<?xml version="1.0" encoding="UTF-8"?>
<svg width="63px" height="62px" viewBox="0 0 63 62" version="1.1" xmlns="http://www.w3.org/2000/svg" xmlns:xlink="http://www.w3.org/1999/xlink">
    <!-- Generator: Sketch 56.3 (81716) - https://sketch.com -->
    <title>Group 16 Copy 2</title>
    <desc>Created with Sketch.</desc>
    <g id="Page-1" stroke="none" stroke-width="1" fill="none" fill-rule="evenodd">
        <g id="Desktop-HD-Copy-6" transform="translate(-810.000000, -2242.000000)">
            <g id="Group-16-Copy-2" transform="translate(811.000000, 2244.000000)">
                <circle id="Oval" fill="#E8DBFC" cx="33" cy="30.7742268" r="29"></circle>
                <path d="M24,11.2742268 L30.5,26.7742268 L26,26.7742268 L26,34.2742268 L19,36.7742268 L19,40.7742268 L37.1432219,44.7568853 C38.5194545,45.0589852 39.5,46.2781185 39.5,47.6871183 L39.5,55.2742268" id="Path-8" stroke="#000000" stroke-width="2"></path>
                <path d="M23.5,12.5 C25.473894,11.0455518 27.6107947,9.61917852 29.9107022,8.22088016 L29.9106993,8.22087546 C31.0259226,7.54284176 31.8318184,6.45561386 32.1562527,5.19141654 C32.776284,2.77538997 32.5575331,1.30299341 31.5,0.774226849 C29.5,-0.225773151 15.5,-0.725773151 6,2.27422685 C-0.333333333,4.27422685 -1.33333333,13.1075602 3,28.7742268 L8.5,28.7742268 L10,24.7742268 C7,21.4408935 7.5,19.2742268 11.5,18.2742268 C15.5,17.2742268 19,15.9408935 22,14.2742268" id="Path-9" stroke="#000000" stroke-width="2"></path>
            </g>
        </g>
    </g>
</svg>