<?xml version="1.0" encoding="UTF-8"?>
<svg width="45px" height="37px" viewBox="0 0 45 37" version="1.1" xmlns="http://www.w3.org/2000/svg" xmlns:xlink="http://www.w3.org/1999/xlink">
    <!-- Generator: Sketch 56.3 (81716) - https://sketch.com -->
    <title>Group 16</title>
    <desc>Created with Sketch.</desc>
    <g id="Page-1" stroke="none" stroke-width="1" fill="none" fill-rule="evenodd">
        <g id="Desktop-HD-Copy-6" transform="translate(-183.000000, -2479.000000)" fill="#A066F2">
            <g id="Group-16" transform="translate(183.000000, 2479.000000)">
                <path d="M0,2 L0,34.9368422 C-4.30562135e-15,36.0414117 0.8954305,36.9368422 2,36.9368422 C2.44127965,36.9368422 2.87017057,36.7909002 3.21986425,36.5217496 L20.2198642,23.437267 C20.7117733,23.0586567 21,22.4731014 21,21.8523597 L21,2 C21,0.8954305 20.1045695,-2.02906125e-16 19,0 L2,0 C0.8954305,2.02906125e-16 -1.3527075e-16,0.8954305 0,2 Z" id="Path-12-Copy-3"></path>
                <path d="M24,2 L24,34.9368422 C24,36.0414117 24.8954305,36.9368422 26,36.9368422 C26.4412797,36.9368422 26.8701706,36.7909002 27.2198642,36.5217496 L44.2198642,23.437267 C44.7117733,23.0586567 45,22.4731014 45,21.8523597 L45,2 C45,0.8954305 44.1045695,-2.02906125e-16 43,0 L26,0 C24.8954305,2.02906125e-16 24,0.8954305 24,2 Z" id="Path-12-Copy-4"></path>
            </g>
        </g>
    </g>
</svg>