<?xml version="1.0" encoding="UTF-8"?>
<svg width="99px" height="20px" viewBox="0 0 99 20" version="1.1" xmlns="http://www.w3.org/2000/svg" xmlns:xlink="http://www.w3.org/1999/xlink">
    <!-- Generator: Sketch 56.3 (81716) - https://sketch.com -->
    <title>★★★★★</title>
    <desc>Created with Sketch.</desc>
    <g id="Page-1" stroke="none" stroke-width="1" fill="none" fill-rule="evenodd">
        <g id="Desktop-HD-Copy-6" transform="translate(-1222.000000, -4384.000000)" fill="#84A3E6" fill-rule="nonzero">
            <g id="Group-13-Copy" transform="translate(847.000000, 4287.000000)">
                <path d="M385,97.14 L387.72,104.54 L394.76,104.54 L388.86,108.96 L391.7,116.42 L385,111.4 L378.3,116.42 L381.14,108.96 L375.24,104.54 L382.26,104.54 L385,97.14 Z M404.625,97.14 L407.345,104.54 L414.385,104.54 L408.485,108.96 L411.325,116.42 L404.625,111.4 L397.925,116.42 L400.765,108.96 L394.865,104.54 L401.885,104.54 L404.625,97.14 Z M424.25,97.14 L426.97,104.54 L434.01,104.54 L428.11,108.96 L430.95,116.42 L424.25,111.4 L417.55,116.42 L420.39,108.96 L414.49,104.54 L421.51,104.54 L424.25,97.14 Z M443.875,97.14 L446.595,104.54 L453.635,104.54 L447.735,108.96 L450.575,116.42 L443.875,111.4 L437.175,116.42 L440.015,108.96 L434.115,104.54 L441.135,104.54 L443.875,97.14 Z M463.5,97.14 L466.22,104.54 L473.26,104.54 L467.36,108.96 L470.2,116.42 L463.5,111.4 L456.8,116.42 L459.64,108.96 L453.74,104.54 L460.76,104.54 L463.5,97.14 Z" id="★★★★★"></path>
            </g>
        </g>
    </g>
</svg>