<?xml version="1.0" encoding="UTF-8"?>
<svg width="17px" height="17px" viewBox="0 0 17 17" version="1.1" xmlns="http://www.w3.org/2000/svg" xmlns:xlink="http://www.w3.org/1999/xlink">
    <!-- Generator: Sketch 56.3 (81716) - https://sketch.com -->
    <title>baseline-check_circle_outline-24px</title>
    <desc>Created with Sketch.</desc>
    <g id="Page-1" stroke="none" stroke-width="1" fill="none" fill-rule="evenodd">
        <g id="Desktop-HD-Copy-5" transform="translate(-979.000000, -2358.000000)">
            <g id="Group-9" transform="translate(842.000000, 2351.000000)">
                <g id="baseline-check_circle_outline-24px" transform="translate(135.000000, 5.000000)">
                    <path d="M0,0 L24,0 L24,24 L0,24 L0,0 Z M0,0 L24,0 L24,24 L0,24 L0,0 Z" id="Shape"></path>
                    <path d="M14.4015,6.743 L8.8,12.3445 L5.7485,9.3015 L4.55,10.5 L8.8,14.75 L15.6,7.95 L14.4015,6.743 Z M10.5,2 C5.808,2 2,5.808 2,10.5 C2,15.192 5.808,19 10.5,19 C15.192,19 19,15.192 19,10.5 C19,5.808 15.192,2 10.5,2 Z M10.5,17.3 C6.743,17.3 3.7,14.257 3.7,10.5 C3.7,6.743 6.743,3.7 10.5,3.7 C14.257,3.7 17.3,6.743 17.3,10.5 C17.3,14.257 14.257,17.3 10.5,17.3 Z" id="Shape" fill="#01C89C" fill-rule="nonzero"></path>
                </g>
            </g>
        </g>
    </g>
</svg>