<?xml version="1.0" encoding="UTF-8"?>
<svg width="520px" height="30px" viewBox="0 0 520 30" version="1.1" xmlns="http://www.w3.org/2000/svg" xmlns:xlink="http://www.w3.org/1999/xlink">
    <!-- Generator: Sketch 63.1 (92452) - https://sketch.com -->
    <title>Group 11</title>
    <desc>Created with Sketch.</desc>
    <g id="Latest---2" stroke="none" stroke-width="1" fill="none" fill-rule="evenodd" opacity="0.5992141">
        <g id="Desktop-HD-Copy-59" transform="translate(-655.000000, -819.000000)" fill-rule="nonzero">
            <g id="Group-11" transform="translate(655.000000, 819.000000)">
                <g id="Group-6">
                    <g id="Okta_logo" transform="translate(135.000000, 4.000000)" fill="#3F4450">
                        <g id="Group">
                            <path d="M5.64963768,4.00592593 C2.52717391,4.00592593 0,6.67259259 0,9.96740741 C0,13.2622222 2.52717391,15.9288889 5.64963768,15.9288889 C8.77210145,15.9288889 11.2992754,13.2622222 11.2992754,9.96740741 C11.2992754,6.67259259 8.77210145,4.00592593 5.64963768,4.00592593 Z M5.64963768,12.9540741 C4.0884058,12.9540741 2.8192029,11.6148148 2.8192029,9.96740741 C2.8192029,8.32 4.0884058,6.98074074 5.64963768,6.98074074 C7.21086957,6.98074074 8.48007246,8.32 8.48007246,9.96740741 C8.48007246,11.6148148 7.21086957,12.9540741 5.64963768,12.9540741 Z" id="Shape"></path>
                            <path d="M15.5786232,11.9703704 C15.5786232,11.4962963 16.1177536,11.2711111 16.4322464,11.602963 C17.8474638,13.12 20.1836957,15.7274074 20.1949275,15.7392593 C20.2286232,15.7748148 20.2623188,15.8340741 20.3971014,15.8814815 C20.4532609,15.9051852 20.5431159,15.9051852 20.6442029,15.9051852 L23.1938406,15.9051852 C23.6543478,15.9051852 23.7891304,15.3481481 23.5757246,15.0637037 L19.3525362,10.5007407 L19.1278986,10.2637037 C18.6449275,9.65925926 18.701087,9.42222222 19.2514493,8.80592593 L22.5985507,4.85925926 C22.8119565,4.57481481 22.6771739,4.02962963 22.2054348,4.02962963 L19.8916667,4.02962963 C19.8018116,4.02962963 19.7344203,4.02962963 19.667029,4.05333333 C19.5322464,4.10074074 19.476087,4.14814815 19.4423913,4.19555556 C19.4311594,4.20740741 17.5778986,6.31703704 16.4322464,7.60888889 C16.1177536,7.96444444 15.5561594,7.72740741 15.5561594,7.24148148 L15.5561594,0.474074074 C15.5561594,0.13037037 15.2865942,0 15.0731884,0 L13.1862319,0 C12.8605072,0 12.7032609,0.225185185 12.7032609,0.426666667 L12.7032609,15.4311111 C12.7032609,15.7748148 12.9728261,15.8696296 13.1974638,15.8696296 L15.0844203,15.8696296 C15.3764493,15.8696296 15.5673913,15.6444444 15.5673913,15.4192593 L15.5673913,15.2651852 L15.5673913,11.9703704 L15.5786232,11.9703704 Z" id="Path"></path>
                            <path d="M30.9887681,15.36 L30.7865942,13.3688889 C30.7641304,13.0962963 30.517029,12.9066667 30.2586957,12.9540741 C30.1126812,12.9777778 29.9666667,12.9896296 29.8206522,12.9896296 C28.3155797,12.9896296 27.0913043,11.7451852 27.0014493,10.1688889 C27.0014493,10.1214815 27.0014493,10.0622222 27.0014493,10.002963 L27.0014493,7.56148148 C27.0014493,7.24148148 27.226087,6.98074074 27.5293478,6.98074074 L30.0565217,6.98074074 C30.2362319,6.98074074 30.5057971,6.81481481 30.5057971,6.47111111 L30.5057971,4.58666667 C30.5057971,4.21925926 30.2811594,4.02962963 30.0789855,4.02962963 L27.5293478,4.02962963 C27.2373188,4.02962963 27.0014493,3.80444444 26.9902174,3.4962963 L26.9902174,0.474074074 C26.9902174,0.284444444 26.8554348,0 26.5072464,0 L24.6315217,0 C24.3956522,0 24.1710145,0.154074074 24.1710145,0.462222222 C24.1710145,0.462222222 24.1710145,10.1214815 24.1710145,10.1688889 C24.2496377,13.3925926 26.7543478,15.9644444 29.8206522,15.9644444 C30.0789855,15.9644444 30.326087,15.9407407 30.5731884,15.9051852 C30.8427536,15.8696296 31.0224638,15.6325926 30.9887681,15.36 Z" id="Path"></path>
                        </g>
                        <path d="M44.6858333,12.921813 C43.1475,12.921813 42.9091667,12.3135076 42.9091667,10.0353441 C42.9091667,10.0234165 42.9091667,10.0234165 42.9091667,10.011489 L42.9091667,4.53674009 C42.9091667,4.34589917 42.7791667,4.02385511 42.4325,4.02385511 L40.6125,4.02385511 C40.385,4.02385511 40.1358333,4.22662359 40.1358333,4.53674009 L40.1358333,4.78721879 C39.345,4.28626138 38.4241667,4 37.4491667,4 C34.4375,4 32,6.68370043 32,9.99956141 C32,13.3154224 34.4375,15.9991228 37.4491667,15.9991228 C38.8033333,15.9991228 40.0383333,15.4504552 40.9916667,14.5558884 C41.5008333,15.4146725 42.3241667,15.9871953 43.6133333,15.9991228 C43.83,15.9991228 45,16.0468331 45,15.4385276 L45,13.3034948 C45,13.1245815 44.87,12.921813 44.6858333,12.921813 Z M37.46,13.0172335 C35.9541667,13.0172335 34.73,11.6694195 34.73,10.011489 C34.73,8.35355848 35.9541667,7.00574448 37.46,7.00574448 C38.9658333,7.00574448 40.19,8.35355848 40.19,10.011489 C40.1791667,11.6694195 38.955,13.0172335 37.46,13.0172335 Z" id="Shape"></path>
                    </g>
                    <g id="Doodle_Logo" transform="translate(338.000000, 4.000000)" fill="#3F4450">
                        <path d="M16.5853659,10.7426049 C16.5853659,7.02603506 19.5381061,4.87804878 23.4146341,4.87804878 C27.2911621,4.87804878 30.2439024,7.02603506 30.2439024,10.7426049 C30.2439024,14.4373797 27.2911621,16.5853659 23.4146341,16.5853659 C19.5381061,16.5853659 16.5853659,14.4373797 16.5853659,10.7426049 Z M26.0517754,10.7426049 C26.0517754,9.06680477 25.284935,7.58445463 23.4146341,7.58445463 C21.5443332,7.58445463 20.777635,9.06680477 20.777635,10.7426049 C20.777635,12.39661 21.5443332,13.87896 23.4146341,13.87896 C25.284935,13.87896 26.0517754,12.39661 26.0517754,10.7426049 Z" id="Fill-1"></path>
                        <path d="M31.2195122,10.7426049 C31.2195122,7.02603506 34.1723754,4.87804878 38.0490646,4.87804878 C41.9257539,4.87804878 44.8780488,7.02603506 44.8780488,10.7426049 C44.8780488,14.4373797 41.9257539,16.5853659 38.0490646,16.5853659 C34.1723754,16.5853659 31.2195122,14.4373797 31.2195122,10.7426049 Z M38.0490646,7.58445463 C36.1781178,7.58445463 35.4119557,9.06680477 35.4119557,10.7426049 C35.4119557,12.39661 36.1781178,13.87896 38.0490646,13.87896 C39.9194432,13.87896 40.6857473,12.39661 40.6857473,10.7426049 C40.6857473,9.06680477 39.9194432,7.58445463 38.0490646,7.58445463 Z" id="Fill-2"></path>
                        <path d="M4.35300406,4.84446295 L6.03757165,4.84446295 C9.22058143,4.84446295 11.1166418,6.35357916 11.1166418,9.26809451 C11.1166418,12.1824778 9.22058143,13.6915939 6.03757165,13.6915939 L4.35300406,13.6915939 L4.35300406,4.84446295 L4.35300406,4.84446295 Z M15.6097561,9.20507153 C15.6097561,3.54436635 11.6310676,1.95121951 5.9431816,1.95121951 L0,1.95121951 L0,16.5853659 L5.9431816,16.5853659 C11.6310676,16.5853659 15.6097561,14.992219 15.6097561,9.33098536 C15.6097561,9.30931709 15.6085762,9.28923429 15.6085762,9.26809451 C15.6085762,9.2468226 15.6097561,9.22673981 15.6097561,9.20507153 L15.6097561,9.20507153 L15.6097561,9.20507153 Z" id="Fill-3"></path>
                        <polygon id="Fill-4" points="61.4634146 0 65.3658537 0 65.3658537 16.5853659 61.4634146 16.5853659"></polygon>
                        <path d="M52.6829268,13.8432213 C50.8126259,13.8432213 50.0457856,12.3412965 50.0457856,10.6654499 C50.0457856,8.96752046 50.8126259,7.46559554 52.6829268,7.46559554 C54.5532277,7.46559554 55.3193579,8.96752046 55.3193579,10.6654499 C55.3193579,12.3412965 54.5532277,13.8432213 52.6829268,13.8432213 L52.6829268,13.8432213 L52.6829268,13.8432213 Z M55.4552842,0 L55.4552842,5.14618455 C54.6147282,4.86815699 53.6798619,4.72345099 52.6829268,4.72345099 C48.8063989,4.72345099 45.8536585,6.89980192 45.8536585,10.6654499 C45.8536585,14.409015 48.8063989,16.5853659 52.6829268,16.5853659 C53.6798619,16.5853659 54.7374455,16.1781316 55.4552842,15.7414076 L55.4552842,16.3243465 L59.5121951,16.3243465 L59.5121951,0 L55.4552842,0 L55.4552842,0 Z" id="Fill-5"></path>
                        <path d="M71.0957107,9.66637813 C71.3748042,8.4813103 72.1586805,7.58445463 73.6123811,7.58445463 C75.0653715,7.58445463 75.8505262,8.4813103 76.1290514,9.66637813 L71.0957107,9.66637813 L71.0957107,9.66637813 Z M75.3843762,5.13620783 C74.7862781,4.97010339 74.1116247,4.87804878 73.3504735,4.87804878 C73.3216409,4.87804878 73.2928083,4.87967327 73.2634077,4.87967327 C73.2323027,4.87967327 73.2017657,4.87804878 73.1702345,4.87804878 C69.294173,4.87804878 66.3414634,7.02603506 66.3414634,10.7426049 C66.3414634,14.4373797 69.294173,16.5853659 73.1702345,16.5853659 C73.2922403,16.5853659 73.4126837,16.5837415 73.5318488,16.5795448 C73.6511558,16.5837415 73.7715993,16.5853659 73.8920427,16.5853659 C75.4021302,16.5853659 76.8902026,16.3712035 78.1973259,15.8766807 L78.1973259,13.1486149 C76.980109,13.7716082 75.7178681,14.0079719 74.6132827,14.0079719 C74.0938706,14.0079719 73.6272945,13.9650582 73.2156849,13.876794 C72.0521562,13.626622 71.3309162,13.0010569 71.1644543,11.8594441 L79.9017135,11.8594441 C79.929978,11.7007853 79.9532714,11.5399605 79.9700311,11.374939 C79.9893475,11.1698468 80,10.958798 80,10.7426049 C80,7.77492646 78.1169356,5.80874807 75.3843762,5.13620783 L75.3843762,5.13620783 L75.3843762,5.13620783 Z" id="Fill-7"></path>
                    </g>
                    <g id="calendly-svg">
                        <path d="M43.3823995,19.9038462 C44.459652,19.9038462 45.4811846,19.5427786 46.2426907,18.9650706 C46.4655705,18.8025903 46.5027172,18.5317896 46.3355573,18.3332025 C46.1912161,18.1753644 45.9417119,18.1197453 45.7402823,18.2490938 L45.7226377,18.260989 C45.0725716,18.7484301 44.2553455,19.0372841 43.3823995,19.0372841 C41.2650411,19.0372841 39.5934424,17.4485871 39.5934424,15.4627159 C39.5934424,13.5129513 41.2650411,11.9062009 43.3823995,11.9062009 C44.2553455,11.9062009 45.0725716,12.1950549 45.7226377,12.7005495 C45.9269443,12.8449765 46.1869707,12.7908163 46.3355573,12.6283359 C46.5027172,12.4297488 46.4655705,12.1589482 46.2798373,12.0325746 C45.4811846,11.4187598 44.459652,11.0576923 43.3823995,11.0576923 C40.7821348,11.0576923 38.7019231,13.0074568 38.7019231,15.4627159 C38.7019231,17.929168 40.7407386,19.8647967 43.3045492,19.9032626 L43.3823995,19.9038462 L43.3823995,19.9038462 Z" id="c" fill="#3F4450"></path>
                        <path d="M58.1482095,19.9038462 C58.3960544,19.9038462 58.6057692,19.705259 58.6057692,19.4705651 L58.6057692,11.4909733 C58.6057692,11.2382261 58.3960544,11.0576923 58.1482095,11.0576923 C57.9003647,11.0576923 57.6906499,11.2382261 57.6906499,11.4909733 L57.6906499,12.7908163 C56.8899204,11.7437206 55.6125663,11.0576923 54.1826923,11.0576923 C51.723309,11.0576923 49.7596154,13.061617 49.7596154,15.4807692 C49.7596154,17.8999215 51.723309,19.9038462 54.1826923,19.9038462 C55.6125663,19.9038462 56.8899204,19.1997645 57.6906499,18.1526688 L57.6906499,19.4705651 C57.6906499,19.705259 57.9003647,19.9038462 58.1482095,19.9038462 Z M54.1826923,19.0372841 C52.2761936,19.0372841 50.6747347,17.4666405 50.6747347,15.4807692 C50.6747347,13.494898 52.2761936,11.9062009 54.1826923,11.9062009 C56.108256,11.9062009 57.6906499,13.494898 57.6906499,15.4807692 C57.6906499,17.4666405 56.108256,19.0372841 54.1826923,19.0372841 Z" id="a" fill="#3F4450"></path>
                        <path d="M62.4646782,19.9038462 C62.7806122,19.9038462 63.0288462,19.6953297 63.0288462,19.4489011 L63.0288462,7.08956044 C63.0288462,6.84313187 62.7806122,6.63461538 62.4646782,6.63461538 C62.1713108,6.63461538 61.9230769,6.84313187 61.9230769,7.08956044 L61.9230769,19.4489011 C61.9230769,19.6953297 62.1713108,19.9038462 62.4646782,19.9038462 Z" id="l" fill="#3F4450"></path>
                        <path d="M70.7878935,19.9038462 C72.3369036,19.9038462 73.6992859,19.1094976 74.4831224,17.8999215 C74.6137618,17.683281 74.5391107,17.4305338 74.3338202,17.2861068 C74.1471925,17.1777865 73.8672509,17.2138932 73.7366115,17.4305338 C73.12074,18.4234694 72.0009737,19.0372841 70.7878935,19.0372841 C68.9029536,19.0372841 67.3352808,17.5749608 67.2419669,15.6432496 L74.7444012,15.6432496 C74.9870172,15.6432496 75.1923077,15.4807692 75.1923077,15.2460754 L75.1923077,15.1738619 C75.00568,12.8630298 73.1394028,11.0576923 70.7878935,11.0576923 C68.3244077,11.0576923 66.3461538,13.0435636 66.3461538,15.4988226 C66.3461538,17.9179749 68.3244077,19.9038462 70.7878935,19.9038462 Z M74.2218436,14.794741 L67.2979552,14.794741 C67.6338851,13.1157771 69.0709185,11.9242543 70.7878935,11.9242543 C72.467543,11.9242543 73.9232392,13.1338305 74.2218436,14.794741 Z" id="e" fill="#3F4450"></path>
                        <path d="M77.870603,19.9038462 C78.0067404,19.9038462 78.1428779,19.8495753 78.2206707,19.7410335 C78.2790153,19.6867626 78.2984635,19.6144014 78.3179117,19.5420403 L78.3179117,14.6576608 C78.3568081,13.1561664 79.6598376,11.9260264 81.2740385,11.9260264 C82.9076875,11.9260264 84.210717,13.1561664 84.210717,14.6576608 L84.210717,19.4696791 C84.210717,19.7229432 84.4246473,19.9038462 84.6774739,19.9038462 C84.9303005,19.9038462 85.1442308,19.7229432 85.1442308,19.4696791 L85.1442308,14.6576608 C85.1442308,12.6858188 83.4133407,11.0576923 81.2740385,11.0576923 C80.0876981,11.0576923 79.018047,11.5642205 78.3179117,12.3421032 L78.3179117,11.4918594 C78.3179117,11.2566855 78.1234296,11.0576923 77.870603,11.0576923 C77.5983282,11.0576923 77.4038462,11.2566855 77.4038462,11.4918594 L77.4038462,19.5782209 C77.4038462,19.5782209 77.4232944,19.5963112 77.4232944,19.6144014 C77.4232944,19.6324917 77.4232944,19.650582 77.4427426,19.6686723 C77.5010872,19.7772141 77.6177764,19.8676656 77.7539138,19.9038462 L77.870603,19.9038462 Z" id="n" fill="#3F4450"></path>
                        <path d="M96.8597858,19.9038462 C97.1024018,19.9038462 97.3076923,19.6953297 97.3076923,19.4489011 L97.3076923,7.08956044 C97.3076923,6.84313187 97.1024018,6.63461538 96.8597858,6.63461538 C96.598507,6.63461538 96.3932165,6.84313187 96.3932165,7.08956044 L96.3932165,12.4351648 C95.5907173,11.3357143 94.3216488,10.6153846 92.8846154,10.6153846 C90.4211295,10.6153846 88.4615385,12.7005495 88.4615385,15.2785714 C88.4615385,17.8186813 90.4211295,19.9038462 92.8846154,19.9038462 C94.3216488,19.9038462 95.5907173,19.2024725 96.3932165,18.103022 L96.3932165,19.4489011 C96.3932165,19.6953297 96.598507,19.9038462 96.8597858,19.9038462 Z M92.8846154,18.975 C90.9623499,18.975 89.3760143,17.3258242 89.3760143,15.2785714 C89.3760143,13.2123626 90.9623499,11.5442308 92.8846154,11.5442308 C94.7695553,11.5442308 96.3185654,13.1365385 96.3932165,15.1269231 L96.3932165,15.4302198 C96.3185654,17.4016484 94.7695553,18.975 92.8846154,18.975 Z" id="d" fill="#3F4450"></path>
                        <path d="M103.37814,19.9038462 C103.694074,19.9038462 103.942308,19.6953297 103.942308,19.4489011 L103.942308,7.08956044 C103.942308,6.84313187 103.694074,6.63461538 103.37814,6.63461538 C103.084772,6.63461538 102.836538,6.84313187 102.836538,7.08956044 L102.836538,19.4489011 C102.836538,19.6953297 103.084772,19.9038462 103.37814,19.9038462 Z" id="l" fill="#3F4450"></path>
                        <path d="M110.468569,24.3269231 C112.977387,24.3269231 115,22.505083 115,20.2188524 L115,12.5742686 C115,12.5206851 114.980552,12.4492404 114.941655,12.3956568 C114.922207,12.3420733 114.863863,12.2884898 114.824966,12.2527674 C114.747173,12.2170451 114.669381,12.1813227 114.591588,12.1634615 L114.474899,12.1634615 C114.45545,12.1634615 114.436002,12.1813227 114.416554,12.1813227 L114.377658,12.1813227 C114.319313,12.1991839 114.24152,12.2349062 114.202624,12.2884898 C114.183175,12.2884898 114.183175,12.306351 114.163727,12.306351 C114.163727,12.3242121 114.144279,12.3420733 114.144279,12.3599345 C114.085934,12.413518 114.066486,12.5028239 114.066486,12.5742686 L114.066486,17.3253417 C114.047038,18.8256806 112.744009,20.0223794 111.110359,20.0223794 C109.496159,20.0223794 108.193129,18.8256806 108.193129,17.3253417 L108.193129,12.5742686 C108.193129,12.3420733 107.979199,12.1634615 107.706924,12.1634615 C107.473546,12.1634615 107.259615,12.3420733 107.259615,12.5742686 L107.259615,17.3253417 C107.259615,19.2900712 108.990505,20.8797159 111.110359,20.8975771 C112.2967,20.8975771 113.346903,20.3974641 114.066486,19.6472947 L114.066486,20.2188524 C114.047038,22.0228312 112.452285,23.4695866 110.468569,23.4695866 C109.924019,23.4695866 109.379469,23.3445583 108.912713,23.1302242 C108.679334,23.0766407 108.426508,23.1302242 108.309818,23.3445583 C108.193129,23.5410313 108.29037,23.7910878 108.5043,23.916116 C109.107195,24.1661725 109.768434,24.3269231 110.468569,24.3269231 Z" id="y" fill="#3F4450"></path>
                        <g id="Group-15">
                            <g id="Group-12">
                                <path d="M25.8262712,1.47435897 C27.441002,1.47435897 28.75,2.76657493 28.75,4.36060409 L28.75,26.9695241 C28.75,28.5635533 27.441002,29.8557692 25.8262712,29.8557692 L2.92372881,29.8557692 C1.30899798,29.8557692 0,28.5635533 0,26.9695241 L0,4.36060409 C0,2.76657493 1.30899798,1.47435897 2.92372881,1.47435897 L25.8262712,1.47435897 Z M25.8262712,3.12364189 L2.92372881,3.12364189 C2.23939051,3.12364189 1.683185,3.66521028 1.67070218,4.33788073 L1.67070218,4.36060409 L1.67070218,26.9695241 C1.67070218,27.6450889 2.21930392,28.1941635 2.90071035,28.2064863 L2.92372881,28.2064863 L25.8262712,28.2064863 C26.5106095,28.2064863 27.066815,27.6649179 27.0792978,26.9922475 L27.0792978,26.9695241 L27.0792978,4.36060409 C27.0792978,3.68503935 26.5306961,3.13596468 25.8492897,3.12364189 L25.8262712,3.12364189 Z" id="Rectangle" fill="#656A74"></path>
                                <path d="M7.84090909,0 C8.25332952,0 8.58766234,0.337721998 8.58766234,0.754323196 L8.58766234,5.1431127 C8.58766234,5.5597139 8.25332952,5.8974359 7.84090909,5.8974359 C7.42848866,5.8974359 7.09415584,5.5597139 7.09415584,5.1431127 L7.09415584,0.754323196 C7.09415584,0.337721998 7.42848866,0 7.84090909,0 Z" id="Rectangle" fill="#656A74"></path>
                                <path d="M20.9090909,0 C21.3215113,0 21.6558442,0.337721998 21.6558442,0.754323196 L21.6558442,5.1431127 C21.6558442,5.5597139 21.3215113,5.8974359 20.9090909,5.8974359 C20.4966705,5.8974359 20.1623377,5.5597139 20.1623377,5.1431127 L20.1623377,0.754323196 C20.1623377,0.337721998 20.4966705,0 20.9090909,0 Z" id="Rectangle-Copy-4" fill="#656A74"></path>
                                <path d="M15.520543,21.3782051 C16.8056699,21.3782051 17.9861934,20.9566631 18.8977369,20.2734742 C19.0621136,20.1571867 19.0920002,19.8955399 18.9425669,19.7647165 C18.8379635,19.5902853 18.5988702,19.5612134 18.4195501,19.6775009 C17.6424967,20.317082 16.6263499,20.6659444 15.520543,20.6659444 C12.9054593,20.6659444 10.8133923,18.6745215 10.8133923,16.2470206 C10.8133923,13.7613759 12.9054593,11.7699531 15.520543,11.7699531 C16.6263499,11.7699531 17.6424967,12.1478873 18.4494368,12.7583965 C18.5988702,12.874684 18.8379635,12.8601481 18.9575102,12.6857169 C19.0920002,12.5548935 19.0621136,12.3077826 18.8977369,12.1769592 C17.9861934,11.4937703 16.8056699,11.0576923 15.520543,11.0576923 C12.5169325,11.0722282 10.0811688,13.3543698 10.0811688,16.2470206 C10.0811688,19.0815276 12.5169325,21.3782051 15.520543,21.3782051 Z" id="C" fill="#3F4450"></path>
                            </g>
                        </g>
                    </g>
                    <g id="logo-new" transform="translate(440.000000, 1.000000)" fill="#3F4450">
                        <path d="M36.7169123,17.7907368 L30.9592515,17.7907368 C30.8998363,17.7907368 30.852117,17.7425497 30.852117,17.6836023 L30.852117,13.6583392 C30.852117,13.5993918 30.8998363,13.5512047 30.9592515,13.5512047 L35.0055673,13.5512047 C35.4944561,13.5512047 35.9014737,13.1643041 35.9014737,12.675883 C35.9014737,12.1668772 35.4944561,11.7795088 35.0055673,11.7795088 L30.9592515,11.7795088 C30.8998363,11.7795088 30.852117,11.7317895 30.852117,11.6723743 L30.852117,7.41038596 C30.852117,7.35097076 30.8993684,7.30325146 30.9592515,7.30325146 L36.4731696,7.30325146 C36.9611228,7.30325146 37.3686082,6.91588304 37.3686082,6.40687719 C37.3686082,5.9179883 36.9611228,5.53108772 36.4731696,5.53108772 L29.9155088,5.53108772 C29.4060351,5.53108772 28.957848,5.97927485 28.957848,6.5088655 L28.957848,18.5851228 C28.957848,19.1142456 29.4060351,19.5624327 29.9155088,19.5624327 L36.7169123,19.5624327 C37.2053333,19.5624327 37.6128187,19.1750643 37.6128187,18.6866433 C37.6128187,18.1776374 37.2053333,17.7907368 36.7169123,17.7907368" id="Fill-1"></path>
                        <path d="M44.5294035,9.84870175 C43.4903392,9.84870175 42.1261287,10.3371228 41.5563041,11.4772398 L41.5563041,10.8872982 C41.5563041,10.3778246 41.1483509,9.95022222 40.6192281,9.95022222 C40.1102222,9.95022222 39.7032047,10.3778246 39.7032047,10.8872982 L39.7032047,18.7272982 C39.7032047,19.2363041 40.1102222,19.6643743 40.6196959,19.6643743 C41.1483509,19.6643743 41.5563041,19.2363041 41.5563041,18.7272982 L41.5563041,14.4302222 C41.5563041,12.4147836 42.8999298,11.6610994 44.2440234,11.6610994 C45.5474152,11.6610994 46.3413333,12.5977076 46.3413333,14.1860117 L46.3413333,18.7272982 C46.3413333,19.2363041 46.7488187,19.6643743 47.2578246,19.6643743 C47.787883,19.6643743 48.1944327,19.2363041 48.1944327,18.7272982 L48.1944327,14.0639064 C48.1944327,11.3963041 46.8919766,9.84870175 44.5294035,9.84870175" id="Fill-3"></path>
                        <path d="M58.2739181,9.99078363 C57.7854971,9.8485614 57.3373099,10.0927719 57.1333333,10.6022456 L54.5854971,17.1285614 C54.5499415,17.2193216 54.4217544,17.2197895 54.385731,17.1290292 L51.8182456,10.6022456 C51.6152047,10.0927719 51.1670175,9.8485614 50.6781287,9.99078363 C50.1691228,10.1128889 49.9239766,10.7037661 50.0872515,11.1519532 L53.2638596,18.7884444 C53.508538,19.338152 53.8959064,19.6642339 54.445614,19.6642339 L54.5471345,19.6642339 C55.0968421,19.6642339 55.4636257,19.338152 55.6877193,18.7884444 L58.8442105,11.1519532 C59.0065497,10.7037661 58.782924,10.1128889 58.2739181,9.99078363" id="Fill-5"></path>
                        <path d="M65.0676023,9.84846784 C62.3588304,9.84846784 60.0987135,11.762386 60.0987135,14.776655 C60.0987135,17.790924 62.3588304,19.7656608 65.0676023,19.7656608 C67.7759064,19.7656608 70.0566082,17.790924 70.0566082,14.776655 C70.0566082,11.762386 67.7759064,9.84846784 65.0676023,9.84846784 M65.0676023,17.973848 C63.357193,17.973848 61.9316959,16.7111579 61.9316959,14.776655 C61.9316959,12.8627368 63.357193,11.6613333 65.0676023,11.6613333 C66.7780117,11.6613333 68.2030409,12.8627368 68.2030409,14.776655 C68.2030409,16.7111579 66.7780117,17.973848 65.0676023,17.973848" id="Fill-7"></path>
                        <path d="M79.4325614,10.0111345 C78.9642573,9.82774269 78.4140819,10.0518363 78.2311579,10.5201404 L75.6828538,16.6955789 C75.6463626,16.784 75.5209825,16.784 75.4844912,16.6960468 L72.9567719,10.5818947 C72.7527953,10.0728889 72.2849591,9.84879532 71.7759532,9.99101754 C71.2870643,10.1337076 71.0629708,10.724117 71.2253099,11.1919532 L74.5483509,19.2359298 C74.5595789,19.2625965 74.5595789,19.2920702 74.5483509,19.3187368 L74.036538,20.5397895 C73.4667135,21.883883 73.0582924,22.6370994 71.8367719,22.6370994 L71.5518596,22.6370994 C71.1036725,22.6169825 70.696655,22.9636491 70.6760702,23.4319532 C70.6554854,23.8796725 71.0218012,24.2464561 71.4695205,24.2866901 C71.6940819,24.3077427 71.8367719,24.3077427 71.8784094,24.3077427 C73.8732632,24.3077427 74.7696374,23.4113684 75.7258947,21.2523041 L79.9219181,11.2130058 C80.1249591,10.7442339 79.9219181,10.1949942 79.4325614,10.0111345" id="Fill-9"></path>
                        <path d="M7.64734503,7.30325146 L13.3324912,7.30325146 C13.8213801,7.30325146 14.2185731,6.90652632 14.2185731,6.41670175 C14.2185731,5.92781287 13.8213801,5.53061988 13.3324912,5.53061988 L7.64734503,5.53061988 C7.15845614,5.53061988 6.76126316,5.92781287 6.76126316,6.41670175 C6.76126316,6.90652632 7.15845614,7.30325146 7.64734503,7.30325146" id="Fill-12"></path>
                        <path d="M18.9233684,-9.35672515e-05 L2.2482807,-9.35672515e-05 C1.00664327,-9.35672515e-05 -0.000140350877,1.00669006 -0.000140350877,2.24832749 L-0.000140350877,22.8509006 C-0.000140350877,24.0930058 1.00664327,25.0997895 2.2482807,25.0997895 L18.9233684,25.0997895 C20.1650058,25.0997895 21.1717895,24.0930058 21.1717895,22.8509006 L21.1717895,2.24832749 C21.1717895,1.00669006 20.1650058,-9.35672515e-05 18.9233684,-9.35672515e-05 L18.9233684,-9.35672515e-05 Z M19.3996257,22.3334737 C19.3996257,22.8822456 18.9542456,23.3276257 18.4054737,23.3276257 L2.76664327,23.3276257 C2.21740351,23.3276257 1.77249123,22.8822456 1.77249123,22.3334737 L1.77249123,2.76622222 C1.77249123,2.21745029 2.21740351,1.77207018 2.76664327,1.77207018 L18.4054737,1.77207018 C18.9542456,1.77207018 19.3996257,2.21745029 19.3996257,2.76622222 L19.3996257,22.3334737 Z" id="Fill-14"></path>
                        <path d="M13.5012398,17.7966784 L8.53375439,17.7966784 L8.53375439,15.5164444 L11.3529357,15.5164444 C11.8418246,15.5164444 12.2385497,15.1201871 12.2385497,14.6303626 C12.2385497,14.1414737 11.8418246,13.7442807 11.3529357,13.7442807 L8.53375439,13.7442807 L8.53375439,11.6207719 L13.2865029,11.6207719 C13.7758596,11.6207719 14.1725848,11.2240468 14.1725848,10.7346901 C14.1725848,10.2453333 13.7758596,9.84907602 13.2865029,9.84907602 L7.64767251,9.84907602 C7.15831579,9.84907602 6.76159064,10.2453333 6.76159064,10.7346901 L6.76159064,18.6832281 C6.76159064,19.1716491 7.15831579,19.5688421 7.64767251,19.5688421 L13.5012398,19.5688421 C13.9905965,19.5688421 14.3873216,19.1716491 14.3873216,18.6832281 C14.3873216,18.1934035 13.9905965,17.7966784 13.5012398,17.7966784" id="Fill-17"></path>
                    </g>
                    <g id="Freshwork_Black_Logo" transform="translate(200.000000, 3.000000)" fill="#3F4450">
                        <path d="M20.2716508,2.80952381 C20.297873,1.05263492 19.2246349,0.0168571429 17.462127,0.0112380952 C15.0084762,0.00374603175 12.5591958,0 10.1142857,0 C5.63403175,0.0318412698 1.6051746,3.20473016 0.477619048,7.55012698 C0.441564704,7.79749879 0.391537605,8.04263158 0.327777778,8.28434921 C0.035703933,10.1115059 0.196490744,11.9824212 0.796031746,13.7329524 C1.30795739,15.1464768 2.12306156,16.4308252 3.18412698,17.4958413 L3.20285714,17.5145714 C4.43904762,18.7207937 6.01612698,19.5805079 7.93409524,20.0937143 C8.13450794,20.1480317 8.378,20.1161905 8.56342857,20.2304444 C9.57822623,20.3972541 10.6129851,20.402943 11.6295556,20.2473016 C11.7297962,20.2162189 11.8337202,20.1985834 11.9386032,20.1948571 L12.0041587,20.183619 C12.266381,20.1311746 12.5267302,20.0693651 12.7795873,19.9963175 L12.7964444,19.9963175 C12.9125714,19.9644762 13.0286984,19.9288889 13.1429524,19.8933016 L13.3489841,19.825873 L13.5138095,19.7696825 C14.1652273,19.5323238 14.7924267,19.2331496 15.3868254,18.876254 C15.456127,18.8350476 15.5216825,18.7994603 15.5853651,18.765746 C18.0961381,17.1841712 19.7631114,14.557863 20.1255556,11.6126984 C20.5226349,8.69828571 20.2285714,5.7464127 20.2716508,2.80952381 Z M17.7131111,2.59974603 C16.2615238,5.20698413 15.1564444,7.99403175 13.217873,10.2510159 C11.8842857,11.8 10.1142857,12.6746984 8.05396825,13.0024762 C7.28603175,13.1260952 7.3047619,12.8151746 7.40403175,12.2851111 C7.86666667,9.92698413 8.92304762,7.90038095 10.9103175,6.49374603 C13.0361905,4.9915873 15.3718413,3.82844444 17.7131111,2.59974603 Z M8.35739683,7.2335873 L8.40609524,7.1624127 C8.40609524,7.17926984 8.40609524,7.20361905 8.40609524,7.21111111 C8.39153106,7.2217882 8.37497078,7.2294314 8.35739683,7.2335873 L8.35739683,7.2335873 Z M3.2684127,4.52146032 C5.14330159,2.33377778 7.49206349,1.18561905 10.3727619,1.1687619 C12.6391111,1.15752381 14.9073333,1.1687619 17.1755556,1.1687619 C17.1942857,1.23431746 17.2148889,1.298 17.2354921,1.35606349 C15.1714286,2.56415873 13.1111111,3.79098413 11.0095873,4.96161905 C8.61587302,6.29707937 6.1247619,6.42069841 3.55873016,5.50292063 C2.92377778,5.27815873 2.7851746,5.0852381 3.2684127,4.52146032 Z M1.28488889,10.7267619 C1.22802114,9.35475188 1.46891638,7.98669696 1.99101587,6.71663492 C2.1127619,6.4188254 2.21765079,6.15473016 2.61473016,6.35514286 C4.42219048,7.25980952 6.372,7.2691746 8.32555556,7.25419048 C7.25606349,8.90431746 6.39634921,10.6387302 6.20530159,12.6334921 C6.16596825,13.0436825 5.99177778,13.0699048 5.62466667,13.0268254 C4.29515511,12.8526576 3.02084998,12.3856683 1.89361905,11.6595238 C1.54711111,11.447873 1.31111111,11.1819048 1.28488889,10.7267619 Z M1.9947619,13.1223492 C3.17288889,13.6299365 4.35288889,14.0794603 5.63215873,14.1862222 C5.9355873,14.2105714 6.16409524,14.3323175 6.19406349,14.7181587 C6.34588156,16.0493849 6.73942118,17.3417182 7.35533333,18.531619 C5.24444444,18.3667937 2.04720635,15.1302222 1.9947619,13.1223492 Z M13.6730159,18.4698095 C12.4052809,18.9966134 11.0384954,19.242622 9.66663492,19.1909206 C9.30176103,19.1798705 8.96986901,18.9768893 8.79380952,18.6571111 C8.07159937,17.5280007 7.59136315,16.2614016 7.38342857,14.9373016 C7.32161905,14.5945397 7.33660317,14.2499048 7.788,14.2068254 C9.78463492,14.0195238 11.5227937,13.1729206 13.2422222,11.912381 C12.9063698,13.9020786 13.1603034,15.9465699 13.9726984,17.7936508 C14.1150476,18.1195556 14.0232698,18.3237143 13.6730159,18.4698095 Z M18.9474286,11.7681587 C18.6196508,13.918381 17.5183175,15.6640317 15.8962857,17.104381 C15.334381,17.6026032 15.0627937,17.5482857 14.8099365,16.8327937 C14.0757143,14.748127 13.9839365,12.6447302 14.8211746,10.6050159 C15.9093968,7.94720635 17.585746,5.59844444 19.0466984,3.11295238 C18.999873,6.02549206 19.3800952,8.90993651 18.9455556,11.7681587 L18.9474286,11.7681587 Z" id="Shape"></path>
                        <path d="M28.7451746,1.12380952 C25.7989206,1.12380952 24.7387937,3.18412698 24.7387937,5.13019048 L24.7387937,6.31206349 L24.1487937,6.31206349 C23.7083937,6.33305277 23.3621158,6.69622719 23.3621158,7.13712698 C23.3621158,7.57802678 23.7083937,7.9412012 24.1487937,7.96219048 L24.7387937,7.96219048 L24.7387937,16.0948254 C24.7341626,16.3306828 24.8258169,16.5582486 24.9926254,16.7250571 C25.1594339,16.8918657 25.3869997,16.9835199 25.6228571,16.9788889 C25.8614401,16.9932546 26.094749,16.9047355 26.2637581,16.7357264 C26.4327672,16.5667172 26.5212864,16.3334083 26.5069206,16.0948254 L26.5069206,7.90412698 L28.3911746,7.90412698 C28.6953201,7.91862243 28.9827757,7.76461337 29.1391877,7.50336661 C29.2955998,7.24211985 29.2955998,6.91600714 29.1391877,6.65476038 C28.9827757,6.39351362 28.6953201,6.23950455 28.3911746,6.254 L26.5069206,6.254 L26.5069206,5.07587302 C26.5069206,4.01387302 26.9189841,2.71774603 28.8051111,2.71774603 C29.0162231,2.7263475 29.2220255,2.65026847 29.3767801,2.50641701 C29.5315347,2.36256555 29.6224203,2.16285961 29.6292381,1.95168254 C29.5933793,1.48843596 29.2097756,1.12921376 28.7451746,1.12380952 Z M35.4636825,6.01425397 C34.3054904,5.95627554 33.1966656,6.48848327 32.5174286,7.42838095 L32.5174286,6.962 C32.5174286,6.47374522 32.1216199,6.07793651 31.6333651,6.07793651 C31.1451103,6.07793651 30.7493016,6.47374522 30.7493016,6.962 L30.7493016,16.0348889 C30.7446705,16.2707463 30.8363248,16.4983121 31.0031333,16.6651206 C31.1699419,16.8319292 31.3975076,16.9235834 31.6333651,16.9189524 C31.871948,16.9333181 32.1052569,16.844799 32.274266,16.6757898 C32.4432752,16.5067807 32.5317943,16.2734718 32.5174286,16.0348889 L32.5174286,11.0264444 C32.5174286,8.90619048 33.6412381,7.66812698 35.4636825,7.66812698 C35.6838022,7.67330844 35.8964461,7.58814595 36.0521373,7.43245476 C36.2078285,7.27676356 36.292991,7.06411962 36.2878095,6.844 C36.2788831,6.39228688 35.9153742,6.02795184 35.4636825,6.018 L35.4636825,6.01425397 Z M45.8888889,10.4888889 C45.8879597,9.4870583 45.6021325,8.50615145 45.0647619,7.66063492 C44.2335769,6.52487448 42.8735545,5.90049734 41.4704444,6.01050794 C38.464254,6.01050794 36.7560635,8.01463492 36.7560635,11.4909524 C36.7560635,15.0852698 38.464254,17.0294603 41.7045714,17.0294603 C43.0265192,17.0796706 44.3163848,16.6150236 45.3026349,15.7333333 C45.4899991,15.5961869 45.6000912,15.3773962 45.5985714,15.1452063 C45.5915592,14.72506 45.2526543,14.3861551 44.8325079,14.3791429 C44.6582051,14.373853 44.4887658,14.4370565 44.3605079,14.5552063 C43.6295374,15.1556754 42.7142203,15.4863536 41.768254,15.4917143 C39.8240635,15.4917143 38.584127,14.1955873 38.5260635,12.1333968 L44.8943175,12.1333968 C45.8888889,12.0285079 45.8888889,11.086381 45.8888889,10.4888889 Z M41.532254,7.55012698 C43.300381,7.55012698 44.1844444,8.55219048 44.2425079,10.496381 L38.5260635,10.496381 C38.704,8.61587302 39.764127,7.55012698 41.532254,7.55012698 Z M51.6671429,10.614381 C50.3710159,10.142381 49.3108889,9.79025397 49.3108889,8.84625397 C49.3108889,7.78612698 50.4890159,7.66812698 51.1370794,7.66812698 C52.0120979,7.61686533 52.867993,7.93799607 53.4933333,8.55219048 C53.8091236,8.84905084 54.3013526,8.84905084 54.6171429,8.55219048 C54.7794468,8.40027704 54.8659054,8.18413053 54.8531429,7.96219048 C54.8488033,7.77186804 54.7874725,7.58722312 54.6770794,7.43212698 C53.7930159,6.43006349 52.4968889,5.84193651 51.1988889,5.95993651 C49.0186984,5.95993651 47.6645079,7.08374603 47.6645079,8.78819048 C47.6645079,10.9084444 49.5506349,11.5565079 51.1988889,12.1465079 C52.4369524,12.5585714 53.5570159,12.9125714 53.5570159,13.8546984 C53.5570159,15.0927619 52.1428889,15.3287619 51.3093968,15.3287619 C50.2971181,15.3721049 49.3133578,14.9873031 48.5991429,14.2686349 C48.4370404,14.1134879 48.2322059,14.0104183 48.0110159,13.9726984 C47.5908695,13.9797107 47.2519646,14.3186156 47.2449524,14.7387619 C47.2483587,14.929245 47.3097789,15.1141588 47.4210159,15.2688254 C48.3912705,16.4123345 49.8210854,17.0633742 51.3206349,17.0444444 C53.7892698,17.0444444 55.2539683,15.8588254 55.2539683,13.9726984 C55.1434603,11.8 53.3172698,11.204381 51.6671429,10.614381 Z M61.8619683,5.95993651 C60.7790619,5.91399127 59.7355012,6.37011715 59.0337143,7.19612698 L59.0337143,1.42161905 C59.0378144,1.18591781 58.9459894,0.958662705 58.7792983,0.791971548 C58.6126071,0.625280392 58.385352,0.533455468 58.1496508,0.537423913 C57.9197815,0.535857419 57.699697,0.6304619 57.5427599,0.798430804 C57.3858229,0.966399708 57.3063646,1.19239432 57.3236508,1.42161905 L57.3236508,16.0311429 C57.3078652,16.5032708 57.6775395,16.8989313 58.1496508,16.9152063 C58.3855082,16.9198374 58.613074,16.8281831 58.7798825,16.6613746 C58.9466911,16.4945661 59.0383453,16.2670003 59.0337143,16.0311429 L59.0337143,10.5563175 C59.0337143,8.55219048 59.9764656,7.55324868 61.8619683,7.55949206 C63.7480952,7.55949206 64.3961587,8.38549206 64.3961587,10.387746 L64.3961587,16.044254 C64.3915277,16.2801114 64.4831819,16.5076772 64.6499905,16.6744857 C64.816799,16.8412943 65.0443648,16.9329485 65.2802222,16.9283175 C65.5099476,16.9300602 65.7298786,16.8354 65.8865275,16.6673585 C66.0431763,16.4993171 66.1221889,16.2732922 66.1043492,16.044254 L66.1043492,10.0843175 C66.1043492,7.37406349 64.6902222,5.95993651 61.8619683,5.95993651 L61.8619683,5.95993651 Z M80.363619,6.136 C79.9924319,6.14058602 79.6634638,6.37609725 79.5394921,6.726 L77.0652381,13.6730159 L75.0611111,6.72038095 C74.8850476,6.24838095 74.4130476,6.07231746 73.9373016,6.19031746 C73.6945212,6.28550074 73.5024214,6.47760057 73.4072381,6.72038095 L71.4068571,13.6730159 L69.0506032,6.66606349 C68.9542285,6.3028963 68.5969067,6.07307339 68.2264762,6.136 C68.0058599,6.13081905 67.7927398,6.21617904 67.6366975,6.37222135 C67.4806552,6.52826366 67.3952952,6.74138368 67.4004762,6.962 C67.3911641,7.08251994 67.4117521,7.20347473 67.4604127,7.31412698 L70.7587937,16.3308254 C70.8700568,16.6906618 71.2083587,16.9315389 71.5847937,16.9189524 C71.955498,16.9146522 72.2843241,16.67999 72.4089206,16.3308254 L74.3587302,9.73968254 L76.3047937,16.3401905 C76.4262579,16.6921075 76.7575681,16.9282451 77.1298571,16.9282451 C77.5021462,16.9282451 77.8334564,16.6921075 77.9549206,16.3401905 L81.2533016,7.32349206 C81.3019621,7.21283981 81.3225502,7.09188502 81.3132381,6.97136508 C81.189619,6.49 80.835619,6.136 80.363619,6.136 L80.363619,6.136 Z M86.610127,5.95993651 C83.4878095,5.95993651 81.777746,7.90412698 81.777746,11.440381 C81.777746,14.9766349 83.4878095,16.9788889 86.610127,16.9788889 C89.7324444,16.9788889 91.4425079,15.0346984 91.4425079,11.440381 C91.4425079,7.84606349 89.7343175,5.95993651 86.610127,5.95993651 L86.610127,5.95993651 Z M86.610127,15.3868254 C84.5498095,15.3868254 83.4878095,14.0906984 83.4878095,11.440381 C83.4878095,8.79006349 84.5479365,7.49206349 86.610127,7.49206349 C88.6723175,7.49206349 89.674381,8.84625397 89.674381,11.440381 C89.674381,14.0345079 88.6723175,15.4467619 86.610127,15.3868254 L86.610127,15.3868254 Z M98.0355238,6.02174603 C96.8773317,5.96376761 95.7685068,6.49597533 95.0892698,7.43587302 L95.0892698,6.962 C95.0911317,6.49959798 94.7254132,6.11930759 94.2632912,6.10311054 C93.8011692,6.0869135 93.409723,6.44066581 93.379205,6.90206349 L93.379205,15.9768254 C93.3784031,16.438834 93.7443833,16.8181108 94.2061265,16.8337888 C94.6678697,16.8494669 95.0587333,16.4958879 95.0892698,16.0348889 L95.0892698,11.0264444 C95.0892698,8.90619048 96.2130794,7.66812698 98.0355238,7.66812698 C98.4759237,7.64713771 98.8222016,7.28396329 98.8222016,6.84306349 C98.8222016,6.40216369 98.4759237,6.03898928 98.0355238,6.018 L98.0355238,6.02174603 Z M104.583587,10.4888889 L108.117968,7.66063492 C108.346563,7.49921267 108.479394,7.23425357 108.471968,6.95450794 C108.477671,6.73406744 108.392738,6.52092987 108.236988,6.36482587 C108.081238,6.20872186 107.868294,6.12330595 107.647841,6.12850794 C107.425527,6.11800168 107.209815,6.20565617 107.057841,6.36825397 L101.98946,10.4888889 L101.98946,1.42161905 C101.999832,1.1164802 101.846627,0.828986844 101.587555,0.667434959 C101.328483,0.505883075 101.002904,0.494816235 100.73346,0.638403212 C100.464016,0.781990189 100.291642,1.0584167 100.28127,1.36355556 L100.28127,15.9730794 C100.270898,16.2782182 100.424103,16.5657116 100.683175,16.7272635 C100.942247,16.8888153 101.267826,16.8998822 101.53727,16.7562952 C101.806714,16.6127082 101.979088,16.3362817 101.98946,16.0311429 L101.98946,12.5005079 L103.16946,11.564 L107.057841,16.514381 C107.223859,16.7468784 107.481683,16.8969348 107.765841,16.9264444 C107.985961,16.9316259 108.198605,16.8464634 108.354296,16.6907722 C108.509987,16.535081 108.59515,16.3224371 108.589968,16.1023175 C108.594926,15.9104988 108.532643,15.7229862 108.413905,15.572254 L104.583587,10.4888889 Z M114.246476,10.6068889 C112.950349,10.1348889 111.890222,9.7827619 111.890222,8.8387619 C111.890222,7.77863492 113.068349,7.66063492 113.716413,7.66063492 C114.591431,7.60937326 115.447326,7.93050401 116.072667,8.54469841 C116.225609,8.70549075 116.441024,8.79165701 116.662667,8.78069841 C117.071842,8.72083474 117.374087,8.36821547 117.370667,7.95469841 C117.36555,7.76421812 117.303583,7.57962079 117.19273,7.42463492 C116.308667,6.42257143 115.01254,5.83444444 113.716413,5.95244444 C111.536222,5.95244444 110.180159,7.07625397 110.180159,8.78069841 C110.180159,10.9009524 112.066286,11.5490159 113.716413,12.1390159 C114.954476,12.5510794 116.072667,12.9050794 116.072667,13.8472063 C116.072667,15.0852698 114.65854,15.3212698 113.825048,15.3212698 C112.812652,15.3653171 111.828617,14.9804078 111.114794,14.2611429 C110.952183,14.105664 110.746649,14.0025708 110.524794,13.9652063 C110.105058,13.9731845 109.766708,14.3115337 109.75873,14.7312698 C109.765407,14.9229699 109.830787,15.1079966 109.946032,15.2613333 C110.944207,16.3799826 112.39512,16.9866528 113.892476,16.9114603 C116.368603,16.9114603 117.840794,15.7333333 117.840794,13.8472063 C117.722794,11.7868889 115.896603,11.1968889 114.246476,10.6068889 L114.246476,10.6068889 Z" id="Shape"></path>
                    </g>
                </g>
            </g>
        </g>
    </g>
</svg>