<svg id="Layer_1" data-name="Layer 1" xmlns="http://www.w3.org/2000/svg" viewBox="0 0 600 136.49"><defs><style>.cls-1{fill:#fff;}</style></defs><path class="cls-1" d="M228.14,70.56V89.3A5.54,5.54,0,0,1,225,94.41,41.64,41.64,0,0,1,206.11,99c-17.33,0-29-12.29-29-29.54,0-17.91,12.71-29.71,28.72-29.71a35.7,35.7,0,0,1,20.55,5.95,3.46,3.46,0,0,1,1.65,3,3.36,3.36,0,0,1-3.47,3.38,3.91,3.91,0,0,1-1.73-.41,30.18,30.18,0,0,0-16.18-4.62c-12.46,0-22,8-22,22.44,0,12.71,8.25,22.45,22.45,22.45a30.14,30.14,0,0,0,14.44-3.63V73.37H207.92a3.39,3.39,0,0,1,0-6.77h16.26A3.91,3.91,0,0,1,228.14,70.56Z"/><path class="cls-1" d="M274.34,92.35a3.75,3.75,0,0,1-2.14,3.05c-3.63,2.07-7.26,3.63-14.44,3.63-13.45,0-21.37-8-21.37-21.87,0-11.13,6-21.86,19.72-21.86,12.71,0,19.64,9.82,19.64,20.79a3.62,3.62,0,0,1-3.8,3.72H244C244.8,87.23,249.51,92,258.42,92a22.43,22.43,0,0,0,11.14-2.56,3,3,0,0,1,1.48-.33A3.23,3.23,0,0,1,274.34,92.35ZM244,73.7h24.34c-.49-8.58-6.93-12.05-12.21-12.05S244.47,65.12,244,73.7Z"/><path class="cls-1" d="M309.41,94.66a3.07,3.07,0,0,1-1.9,2.89A16,16,0,0,1,300.66,99c-3.87,0-12-.66-12-10.89V62.56h-5.86A1.52,1.52,0,0,1,281.19,61a1.86,1.86,0,0,1,.74-1.4l11.23-11a2.09,2.09,0,0,1,1.4-.74,1.59,1.59,0,0,1,1.57,1.65v6.6h9.32a3.22,3.22,0,1,1,0,6.44h-9.32V87.48c0,4.87,3.3,5,5.36,5,2.64,0,3.55-.74,4.95-.74A3,3,0,0,1,309.41,94.66Z"/><path class="cls-1" d="M373.11,95.63a3.55,3.55,0,0,1-3.71,3.71A3.75,3.75,0,0,1,365.85,97l-5.36-12.87H332.43L327.07,97a3.75,3.75,0,0,1-3.55,2.31,3.55,3.55,0,0,1-3.71-3.71,4.34,4.34,0,0,1,.41-1.65l21-49.68a5.18,5.18,0,0,1,4.79-3.38h.82a5.18,5.18,0,0,1,4.79,3.38L372.7,94A4.34,4.34,0,0,1,373.11,95.63ZM357.6,77.31,346.46,50.49,335.32,77.31Z"/><path class="cls-1" d="M416.76,92.18a3.43,3.43,0,0,1-1.65,2.89,23.36,23.36,0,0,1-13.45,4c-11.72,0-22-8.08-22-21.87s10.31-21.86,22-21.86a23.36,23.36,0,0,1,13.45,4,3.43,3.43,0,0,1,1.65,2.89,3.4,3.4,0,0,1-3.13,3.3,3.15,3.15,0,0,1-1.82-.5c-2.89-1.48-5.2-2.64-9.49-2.64-9.57,0-15.18,6-15.18,14.85S392.75,92,402.32,92c4.29,0,6.6-1.16,9.49-2.64a3.23,3.23,0,0,1,1.82-.5A3.4,3.4,0,0,1,416.76,92.18Z"/><path class="cls-1" d="M460.66,92.18A3.43,3.43,0,0,1,459,95.07a23.38,23.38,0,0,1-13.45,4c-11.72,0-22-8.08-22-21.87s10.31-21.86,22-21.86a23.38,23.38,0,0,1,13.45,4,3.32,3.32,0,0,1-1.49,6.19,3.12,3.12,0,0,1-1.81-.5c-2.89-1.48-5.2-2.64-9.49-2.64-9.57,0-15.19,6-15.19,14.85S436.65,92,446.22,92c4.29,0,6.6-1.16,9.49-2.64a3.2,3.2,0,0,1,1.81-.5A3.4,3.4,0,0,1,460.66,92.18Z"/><path class="cls-1" d="M507.28,92.35a3.74,3.74,0,0,1-2.15,3.05C501.5,97.47,497.87,99,490.69,99c-13.45,0-21.37-8-21.37-21.87,0-11.13,6-21.86,19.72-21.86,12.71,0,19.64,9.82,19.64,20.79a3.62,3.62,0,0,1-3.79,3.72h-28c.83,7.42,5.53,12.21,14.44,12.21a22.4,22.4,0,0,0,11.14-2.56,3,3,0,0,1,1.49-.33A3.24,3.24,0,0,1,507.28,92.35ZM476.91,73.7h24.35c-.5-8.58-6.94-12.05-12.22-12.05S477.41,65.12,476.91,73.7Z"/><path class="cls-1" d="M526.34,92.76v21a3.76,3.76,0,1,1-7.51,0V59.42a3.76,3.76,0,0,1,7.51,0v2.15a18.78,18.78,0,0,1,14.11-6.27c10,0,20,7.84,20,21.86s-10,21.87-20,21.87A18.78,18.78,0,0,1,526.34,92.76Zm0-24.26V85.83a17.59,17.59,0,0,0,13,6.19c7.84,0,13.53-5.12,13.53-14.86s-5.69-14.85-13.53-14.85A17.59,17.59,0,0,0,526.34,68.5Z"/><path class="cls-1" d="M594.08,94.66a3.08,3.08,0,0,1-1.89,2.89A16.1,16.1,0,0,1,585.34,99c-3.88,0-12.05-.66-12.05-10.89V62.56h-5.86A1.52,1.52,0,0,1,565.86,61a1.86,1.86,0,0,1,.74-1.4l11.23-11a2.09,2.09,0,0,1,1.4-.74,1.59,1.59,0,0,1,1.57,1.65v6.6h9.32a3.22,3.22,0,1,1,0,6.44H580.8V87.48c0,4.87,3.3,5,5.36,5,2.64,0,3.55-.74,5-.74A3,3,0,0,1,594.08,94.66Z"/><path class="cls-1" d="M72.68,110.28,29.85,67.69,40.57,57.08,72.68,89l51.94-51.64a61.79,61.79,0,1,0,9.56,32.93,61.37,61.37,0,0,0-2.8-18.38Z"/><path class="cls-1" d="M164.42,19.06,153.74,8.4l-29.12,29a60.89,60.89,0,0,1,6.76,14.55Z"/></svg>