<?xml version="1.0" encoding="UTF-8"?>
<svg width="150px" height="23px" viewBox="0 0 150 23" version="1.1" xmlns="http://www.w3.org/2000/svg" xmlns:xlink="http://www.w3.org/1999/xlink">
    <!-- Generator: Sketch 63.1 (92452) - https://sketch.com -->
    <title>Logo-livestorm Copy</title>
    <desc>Created with Sketch.</desc>
    <g id="Latest" stroke="none" stroke-width="1" fill="none" fill-rule="evenodd">
        <g id="Logo-livestorm-Copy" fill="#FFFFFF" fill-rule="nonzero">
            <path d="M34,2 L34,19.2539062 C34,21.578125 35.373558,22.9453125 37.8059002,22.9453125 C38.6357581,22.9453125 39.2939213,22.8085937 39.8376213,22.5898438 L39.8376213,19.8828125 C39.6373108,19.9648438 39.3797687,20.0195312 38.9791476,20.0195312 C38.0348265,20.0195312 37.5197423,19.5820312 37.5197423,18.3789062 L37.5197423,2 L34,2 L34,2 Z M42.1437174,22.7265625 L45.6634597,22.7265625 L45.6634597,7.49609375 L42.1437174,7.49609375 L42.1437174,22.7265625 Z M51.2603718,7.49609375 L47.4258558,7.49609375 L52.8628561,22.7265625 L56.840451,22.7265625 L62.0199092,7.49609375 L58.4429353,7.49609375 L56.0105931,15.453125 C55.4955088,17.2578125 55.2093509,18.3515625 54.9804246,19.5273438 L54.8659614,19.5273438 C54.6084193,18.3242188 54.3222614,17.2578125 53.7785614,15.453125 L51.2603718,7.49609375 L51.2603718,7.49609375 Z M73.9981426,18.9804687 C73.3685952,19.5546875 72.1095004,20.265625 70.4211687,20.265625 C67.5309738,20.265625 66.2146475,18.8984375 66.1001843,16 L75.858169,16 C76.001248,14.90625 76.0298637,14.0859375 76.0298637,13.3203125 C76.0298637,9.62890625 73.797832,7.22265625 69.8488529,7.22265625 C65.6423316,7.22265625 62.6376736,9.90234375 62.6376736,15.0703125 C62.6376736,20.4570312 65.1558632,23 70.0205476,23 C72.7676636,23 74.3701479,22.2890625 75.5433953,21.4140625 L73.9981426,18.9804687 L73.9981426,18.9804687 Z M69.7057739,9.84765625 C71.7088793,9.84765625 72.6532004,10.9414062 72.6818162,12.9375 L72.6818162,13.6484375 L66.1574159,13.6484375 C66.271879,11.1601562 67.7312844,9.84765625 69.7057739,9.84765625 L69.7057739,9.84765625 Z M85.7760655,18.5703125 C85.7760655,19.5 85.0606707,20.265625 83.4009548,20.265625 C81.5123126,20.265625 79.9670599,19.3085937 79.1658178,18.4609375 L77.0482492,20.8398438 C77.9639546,21.7421875 80.0242915,23 83.2292601,23 C87.5502445,23 89.2958078,20.4296875 89.2958078,18.3789062 C89.2958078,13.265625 81.5695442,14.2773437 81.5695442,11.5703125 C81.5695442,10.6679688 82.3135548,9.984375 83.7443443,9.984375 C85.1179023,9.984375 86.2625339,10.6679688 86.9206971,11.3515625 L89.1813446,9.1640625 C88.1511761,8.0703125 86.3483813,7.22265625 83.8301917,7.22265625 C80.1959862,7.22265625 78.0784177,9.3828125 78.0784177,11.7617188 C78.0784177,16.875 85.7760655,15.890625 85.7760655,18.5703125 L85.7760655,18.5703125 Z M96.6668988,22.8632812 C99.0420095,22.8632812 100.215257,22.3710937 100.787573,22.015625 L99.8432516,19.4453125 C99.2995516,19.828125 98.4983095,20.0742187 97.5826042,20.0742187 C96.4093567,20.0742187 95.6653462,19.4726562 95.6653462,18.1601562 L95.6653462,10.09375 L99.8146358,10.09375 L99.8146358,7.49609375 L95.6653462,7.49609375 L95.6653462,3.5859375 L93.3760829,3.5859375 L92.2028355,7.3046875 L90.0280353,7.98828125 L90.0280353,10.09375 L92.2028355,10.09375 L92.2028355,18.1601562 C92.2028355,21.5507812 93.9770145,22.8632812 96.6668988,22.8632812 L96.6668988,22.8632812 Z M105.010927,15.015625 C105.010927,11.5703125 105.955248,9.9296875 108.301743,9.9296875 C110.819932,9.9296875 111.821485,11.7070312 111.821485,15.2070312 C111.821485,18.625 110.991627,20.2929688 108.473438,20.2929688 C105.983864,20.2929688 105.010927,18.4882812 105.010927,15.015625 L105.010927,15.015625 Z M108.330359,23 C113.423969,23 115.427075,19.7460937 115.427075,15.0429687 C115.427075,10.3398437 113.738743,7.22265625 108.473438,7.22265625 C103.351211,7.22265625 101.376721,10.4765625 101.376721,15.1796875 C101.376721,19.8554687 103.093669,23 108.330359,23 L108.330359,23 Z M127.061919,7.33203125 C126.718529,7.25 126.174829,7.1953125 125.631129,7.1953125 C123.628024,7.1953125 122.197234,8.1796875 121.539071,9.51953125 L121.424608,9.51953125 L120.680597,7.49609375 L117.962097,7.49609375 L117.962097,22.7265625 L121.453224,22.7265625 L121.453224,12.0351562 C122.311697,11.0507812 123.828334,10.53125 125.259124,10.53125 C125.83144,10.53125 126.489603,10.5859375 127.061919,10.6953125 L127.061919,7.33203125 L127.061919,7.33203125 Z M140.41371,9.35546875 L140.299247,9.35546875 C139.726931,8.15234375 138.639531,7.16796875 136.235805,7.16796875 C134.318547,7.16796875 132.830525,7.98828125 132.057899,9 L131.943436,9 L131.313889,7.49609375 L128.480925,7.49609375 L128.480925,22.7265625 L132.000668,22.7265625 L132.000668,12.171875 C132.372673,11.0507812 133.488689,10.0390625 134.890862,10.0390625 C136.579194,10.0390625 137.466284,11.078125 137.466284,13.1015625 L137.466284,22.7265625 L141.014642,22.7265625 L141.014642,12.0625 C141.443879,10.9414062 142.617126,10.0390625 144.0193,10.0390625 C145.450089,10.0390625 146.480258,10.859375 146.480258,12.828125 L146.480258,22.7265625 L150,22.7265625 L150,12.2265625 C150,8.80859375 148.225821,7.16796875 145.1067,7.16796875 C142.760205,7.16796875 141.157721,8.20703125 140.41371,9.35546875 Z" id="Shape"></path>
            <path d="M42,2.58278146 C42,3.94039735 43.0927152,5 44.4503311,5 C45.9403974,5 47,3.94039735 47,2.58278146 C47,1.09271523 45.9403974,0 44.4503311,0 C43.0927152,0 42,1.09271523 42,2.58278146 Z" id="Path"></path>
            <path d="M4.11764706,13.5 C4.11764706,12.5611159 4.85637456,11.8 5.76877955,11.8 L22.2312204,11.8 C23.1431158,11.8 23.8823529,12.5630264 23.8823529,13.5 C23.8823529,14.4388841 23.1436254,15.2 22.2312204,15.2 L5.76877955,15.2 C4.85688424,15.2 4.11764706,14.4369736 4.11764706,13.5 Z M8.23529412,20.3 C8.23529412,19.3611159 8.97404954,18.6 9.88105131,18.6 L18.1189487,18.6 C19.0278753,18.6 19.7647059,19.3630264 19.7647059,20.3 C19.7647059,21.2388841 19.0259505,22 18.1189487,22 L9.88105131,22 C8.9721247,22 8.23529412,21.2369736 8.23529412,20.3 Z M0,6.7 C0,5.76111592 0.734539771,5 1.64699327,5 L26.3530067,5 C27.262616,5 28,5.76302638 28,6.7 C28,7.63888407 27.2654602,8.4 26.3530067,8.4 L1.64699327,8.4 C0.737384006,8.4 0,7.63697361 0,6.7 Z" id="Shape" opacity="0.4"></path>
            <path d="M4.13793103,13.5 C4.13793103,12.5611159 4.87524861,11.8 5.79096985,11.8 L18.2090302,11.8 C19.1219783,11.8 19.862069,12.5630264 19.862069,13.5 C19.862069,14.4388841 19.1247514,15.2 18.2090302,15.2 L5.79096985,15.2 C4.87802172,15.2 4.13793103,14.4369736 4.13793103,13.5 Z M8.27586207,20.3 C8.27586207,19.3611159 9.01726163,18.6 9.92887589,18.6 L14.0711241,18.6 C14.9840584,18.6 15.7241379,19.3630264 15.7241379,20.3 C15.7241379,21.2388841 14.9827384,22 14.0711241,22 L9.92887589,22 C9.01594159,22 8.27586207,21.2369736 8.27586207,20.3 Z M0,6.7 C0,5.76111592 0.744589804,5 1.65908633,5 L22.3409137,5 C23.2572017,5 24,5.76302638 24,6.7 C24,7.63888407 23.2554102,8.4 22.3409137,8.4 L1.65908633,8.4 C0.74279825,8.4 0,7.63697361 0,6.7 Z" id="Shape"></path>
        </g>
    </g>
</svg>