<?xml version="1.0" encoding="UTF-8"?>
<svg width="363px" height="429px" viewBox="0 0 363 429" version="1.1" xmlns="http://www.w3.org/2000/svg" xmlns:xlink="http://www.w3.org/1999/xlink">
    <!-- Generator: Sketch 63.1 (92452) - https://sketch.com -->
    <title>Group 17</title>
    <desc>Created with Sketch.</desc>
    <defs>
        <rect id="path-1" x="0" y="0" width="178.645084" height="190.047962" rx="8"></rect>
        <filter x="-14.6%" y="-11.6%" width="129.1%" height="127.4%" filterUnits="objectBoundingBox" id="filter-2">
            <feOffset dx="0" dy="4" in="SourceAlpha" result="shadowOffsetOuter1"></feOffset>
            <feGaussianBlur stdDeviation="8" in="shadowOffsetOuter1" result="shadowBlurOuter1"></feGaussianBlur>
            <feComposite in="shadowBlurOuter1" in2="SourceAlpha" operator="out" result="shadowBlurOuter1"></feComposite>
            <feColorMatrix values="0 0 0 0 0   0 0 0 0 0   0 0 0 0 0  0 0 0 0.09 0" type="matrix" in="shadowBlurOuter1"></feColorMatrix>
        </filter>
        <rect id="path-3" x="0" y="0" width="44.8513189" height="48.6522782" rx="8"></rect>
        <mask id="mask-4" maskContentUnits="userSpaceOnUse" maskUnits="objectBoundingBox" x="0" y="0" width="44.8513189" height="48.6522782" fill="white">
            <use xlink:href="#path-3"></use>
        </mask>
        <rect id="path-5" x="0" y="0" width="95.1207325" height="56.2541966" rx="8"></rect>
        <filter x="-43.1%" y="-65.8%" width="186.2%" height="245.8%" filterUnits="objectBoundingBox" id="filter-6">
            <feOffset dx="0" dy="4" in="SourceAlpha" result="shadowOffsetOuter1"></feOffset>
            <feGaussianBlur stdDeviation="13" in="shadowOffsetOuter1" result="shadowBlurOuter1"></feGaussianBlur>
            <feComposite in="shadowBlurOuter1" in2="SourceAlpha" operator="out" result="shadowBlurOuter1"></feComposite>
            <feColorMatrix values="0 0 0 0 0   0 0 0 0 0   0 0 0 0 0  0 0 0 0.09 0" type="matrix" in="shadowBlurOuter1"></feColorMatrix>
        </filter>
        <rect id="path-7" x="0" y="0" width="95.1994097" height="56.2541966" rx="8"></rect>
        <filter x="-84.0%" y="-119.1%" width="282.8%" height="459.1%" filterUnits="objectBoundingBox" id="filter-8">
            <feOffset dx="0" dy="4" in="SourceAlpha" result="shadowOffsetOuter1"></feOffset>
            <feGaussianBlur stdDeviation="13" in="shadowOffsetOuter1" result="shadowBlurOuter1"></feGaussianBlur>
            <feComposite in="shadowBlurOuter1" in2="SourceAlpha" operator="out" result="shadowBlurOuter1"></feComposite>
            <feColorMatrix values="0 0 0 0 0   0 0 0 0 0   0 0 0 0 0  0 0 0 0.09 0" type="matrix" in="shadowBlurOuter1" result="shadowMatrixOuter1"></feColorMatrix>
            <feOffset dx="7" dy="48" in="SourceAlpha" result="shadowOffsetOuter2"></feOffset>
            <feGaussianBlur stdDeviation="21" in="shadowOffsetOuter2" result="shadowBlurOuter2"></feGaussianBlur>
            <feComposite in="shadowBlurOuter2" in2="SourceAlpha" operator="out" result="shadowBlurOuter2"></feComposite>
            <feColorMatrix values="0 0 0 0 0   0 0 0 0 0   0 0 0 0 0  0 0 0 0.13 0" type="matrix" in="shadowBlurOuter2" result="shadowMatrixOuter2"></feColorMatrix>
            <feMerge>
                <feMergeNode in="shadowMatrixOuter1"></feMergeNode>
                <feMergeNode in="shadowMatrixOuter2"></feMergeNode>
            </feMerge>
        </filter>
        <rect id="path-9" x="0" y="1" width="161.551571" height="164.961631" rx="8"></rect>
        <filter x="-49.5%" y="-40.6%" width="207.7%" height="222.5%" filterUnits="objectBoundingBox" id="filter-10">
            <feOffset dx="0" dy="4" in="SourceAlpha" result="shadowOffsetOuter1"></feOffset>
            <feGaussianBlur stdDeviation="13" in="shadowOffsetOuter1" result="shadowBlurOuter1"></feGaussianBlur>
            <feComposite in="shadowBlurOuter1" in2="SourceAlpha" operator="out" result="shadowBlurOuter1"></feComposite>
            <feColorMatrix values="0 0 0 0 0   0 0 0 0 0   0 0 0 0 0  0 0 0 0.09 0" type="matrix" in="shadowBlurOuter1" result="shadowMatrixOuter1"></feColorMatrix>
            <feOffset dx="7" dy="48" in="SourceAlpha" result="shadowOffsetOuter2"></feOffset>
            <feGaussianBlur stdDeviation="21" in="shadowOffsetOuter2" result="shadowBlurOuter2"></feGaussianBlur>
            <feComposite in="shadowBlurOuter2" in2="SourceAlpha" operator="out" result="shadowBlurOuter2"></feComposite>
            <feColorMatrix values="0 0 0 0 0   0 0 0 0 0   0 0 0 0 0  0 0 0 0.13 0" type="matrix" in="shadowBlurOuter2" result="shadowMatrixOuter2"></feColorMatrix>
            <feMerge>
                <feMergeNode in="shadowMatrixOuter1"></feMergeNode>
                <feMergeNode in="shadowMatrixOuter2"></feMergeNode>
            </feMerge>
        </filter>
    </defs>
    <g id="March-Spring-Release" stroke="none" stroke-width="1" fill="none" fill-rule="evenodd">
        <g id="Group-17" transform="translate(26.000000, 22.000000)">
            <g id="Group-58">
                <g id="Group-51" transform="translate(34.208633, 23.565947)">
                    <g id="Group-50">
                        <g id="Rectangle">
                            <use fill="black" fill-opacity="1" filter="url(#filter-2)" xlink:href="#path-1"></use>
                            <rect stroke="#EBF2FE" stroke-width="2" stroke-linejoin="square" fill="#FFFFFF" fill-rule="evenodd" x="1" y="1" width="176.645084" height="188.047962" rx="8"></rect>
                        </g>
                        <g id="Group-47" transform="translate(79.791367, 49.434053)">
                            <g id="Group-44">
                                <rect id="Rectangle" fill="#34CE9D" x="0" y="0" width="54.7777778" height="17" rx="8.5"></rect>
                                <g id="Group-57" transform="translate(6.925926, 3.518519)" fill="#FFFFFF" fill-rule="nonzero">
                                    <g id="pause" transform="translate(0.000000, 0.518519)">
                                        <g id="play">
                                            <path d="M0,1.82167316 L0,7.10425276 C-1.5440923e-16,7.65653751 0.44771525,8.10425276 1,8.10425276 C1.19018402,8.10425276 1.37642456,8.05001939 1.53687549,7.94791425 L5.68747375,5.30662445 C6.15341512,5.0101163 6.29076789,4.39202884 5.99425974,3.92608747 C5.91568105,3.80260667 5.81095455,3.69788017 5.68747375,3.61930148 L1.53687549,0.978011677 C1.07093412,0.68150353 0.452846659,0.818856299 0.156338512,1.28479767 C0.0542333717,1.44524861 -2.32908254e-17,1.63148914 0,1.82167316 Z" id="Path"></path>
                                        </g>
                                    </g>
                                    <path d="M11.1142222,7.81481481 L11.6342963,6.06066667 L13.7939259,6.06066667 L14.314,7.81481481 L15.0985185,7.81481481 L13.2121481,1.66207407 L12.2337037,1.66207407 L10.3473333,7.81481481 L11.1142222,7.81481481 Z M13.6176296,5.41718519 L11.8105926,5.41718519 L12.6744444,2.44659259 L12.7537778,2.44659259 L13.6176296,5.41718519 Z M18.1660741,7.92059259 C19.074,7.92059259 19.646963,7.47103704 19.9114074,6.86281481 L19.408963,6.51903704 C19.1797778,7.01266667 18.7831111,7.31237037 18.1748889,7.31237037 C17.3198519,7.31237037 16.8614815,6.73059259 16.8614815,5.92844444 L16.8614815,5.15274074 C16.8614815,4.35059259 17.3286667,3.76881481 18.1572593,3.76881481 C18.7214074,3.76881481 19.1092593,4.04207407 19.2767407,4.50925926 L19.8408889,4.20955556 C19.5852593,3.59251852 19.0387407,3.16059259 18.1572593,3.16059259 C16.8702963,3.16059259 16.1034074,4.09496296 16.1034074,5.54059259 C16.1034074,6.97740741 16.8614815,7.92059259 18.1660741,7.92059259 Z M25.2884444,7.81481481 L25.2884444,7.21540741 L23.216963,7.21540741 L23.216963,3.86577778 L25.2884444,3.86577778 L25.2884444,3.26637037 L23.216963,3.26637037 L23.216963,1.66207407 L22.5382222,1.66207407 L22.5382222,2.85207407 C22.5382222,3.16059259 22.4236296,3.26637037 22.1239259,3.26637037 L20.9956296,3.26637037 L20.9956296,3.86577778 L22.5117778,3.86577778 L22.5117778,6.77466667 C22.5117778,7.38288889 22.8291111,7.81481481 23.5166667,7.81481481 L25.2884444,7.81481481 Z M28.8672593,2.26148148 C29.2727407,2.26148148 29.4225926,2.06755556 29.4225926,1.81192593 L29.4225926,1.67088889 C29.4225926,1.41525926 29.2727407,1.22133333 28.8672593,1.22133333 C28.4617778,1.22133333 28.3119259,1.41525926 28.3119259,1.67088889 L28.3119259,1.81192593 C28.3119259,2.06755556 28.4617778,2.26148148 28.8672593,2.26148148 Z M30.7536296,7.81481481 L30.7536296,7.21540741 L29.2198519,7.21540741 L29.2198519,3.26637037 L26.8751111,3.26637037 L26.8751111,3.86577778 L28.5146667,3.86577778 L28.5146667,7.21540741 L26.8751111,7.21540741 L26.8751111,7.81481481 L30.7536296,7.81481481 Z M34.3236296,7.81481481 L35.9543704,3.26637037 L35.258,3.26637037 L34.6057037,5.17037037 L33.9005185,7.22422222 L33.8652593,7.22422222 L33.1600741,5.17037037 L32.5077778,3.26637037 L31.7937778,3.26637037 L33.4245185,7.81481481 L34.3236296,7.81481481 Z M39.2422963,7.92059259 C40.1414074,7.92059259 40.7937037,7.47985185 41.066963,6.87162963 L40.5468889,6.51903704 C40.3088889,7.01266667 39.8505185,7.31237037 39.2422963,7.31237037 C38.3872593,7.31237037 37.8495556,6.73059259 37.8495556,5.92844444 L37.8495556,5.71688889 L41.2168148,5.71688889 L41.2168148,5.38192593 C41.2168148,4.09496296 40.4234815,3.16059259 39.1982222,3.16059259 C37.9641481,3.16059259 37.1091111,4.09496296 37.1091111,5.54940741 C37.1091111,6.98622222 37.9377037,7.92059259 39.2422963,7.92059259 Z M40.4587407,5.188 L37.8495556,5.188 L37.8495556,5.1262963 C37.8495556,4.33296296 38.4225185,3.74237037 39.1982222,3.74237037 C39.9474815,3.74237037 40.4587407,4.28888889 40.4587407,5.09103704 L40.4587407,5.188 Z" id="Active"></path>
                                </g>
                            </g>
                        </g>
                        <g id="Group-5" transform="translate(20.525180, 88.182254)" fill="#00000B" fill-rule="nonzero">
                            <path d="M2.08596643,10.6426859 L2.08596643,7.68401918 L3.67172662,7.68401918 C5.07656115,7.68401918 5.85347722,6.83260432 5.85347722,5.44905516 C5.85347722,4.065506 5.07656115,3.21409113 3.67172662,3.21409113 L0.893985612,3.21409113 L0.893985612,10.6426859 L2.08596643,10.6426859 Z M3.49080096,6.6942494 L2.08596643,6.6942494 L2.08596643,4.20386091 L3.49080096,4.20386091 C4.23578897,4.20386091 4.59764029,4.53378417 4.59764029,5.21491607 L4.59764029,5.67255156 C4.59764029,6.35368345 4.23578897,6.6942494 3.49080096,6.6942494 Z M11.8027386,10.6426859 L11.8027386,9.7061295 L9.81255635,9.7061295 L9.81255635,7.65209113 C9.81255635,6.88581775 10.3127626,6.25789928 11.2599616,6.25789928 L12.3455156,6.25789928 L12.3455156,5.15105995 L11.6856691,5.15105995 C10.5681871,5.15105995 10.0892662,5.84283453 9.87641247,6.60910791 L9.81255635,6.60910791 L9.81255635,5.15105995 L7.19445564,5.15105995 L7.19445564,6.08761631 L8.6525036,6.08761631 L8.6525036,9.7061295 L7.19445564,9.7061295 L7.19445564,10.6426859 L11.8027386,10.6426859 Z M15.9640288,10.7703981 C17.581717,10.7703981 18.5714868,9.65291607 18.5714868,7.8968729 C18.5714868,6.14082974 17.581717,5.02334772 15.9640288,5.02334772 C14.3463405,5.02334772 13.3565707,6.14082974 13.3565707,7.8968729 C13.3565707,9.65291607 14.3463405,10.7703981 15.9640288,10.7703981 Z M15.9640288,9.8551271 C15.1232566,9.8551271 14.5698369,9.33363549 14.5698369,8.31193765 L14.5698369,7.48180815 C14.5698369,6.46011031 15.1232566,5.93861871 15.9640288,5.93861871 C16.804801,5.93861871 17.3582206,6.46011031 17.3582206,7.48180815 L17.3582206,8.31193765 C17.3582206,9.33363549 16.804801,9.8551271 15.9640288,9.8551271 Z M29.2567434,9.98283933 L29.2567434,7.86494484 L31.268211,7.86494484 L31.268211,6.9177458 L29.2567434,6.9177458 L29.2567434,4.79985132 L28.2137602,4.79985132 L28.2137602,6.9177458 L26.2022926,6.9177458 L26.2022926,7.86494484 L28.2137602,7.86494484 L28.2137602,9.98283933 L29.2567434,9.98283933 Z M39.739789,10.6426859 L40.3038513,8.66314628 L42.6665276,8.66314628 L43.2305899,10.6426859 L44.4970695,10.6426859 L42.3259616,3.21409113 L40.6976307,3.21409113 L38.5265228,10.6426859 L39.739789,10.6426859 Z M42.4430312,7.6733765 L40.5273477,7.6733765 L41.4426187,4.41671463 L41.5277602,4.41671463 L42.4430312,7.6733765 Z M47.359952,10.7703981 C48.1687962,10.7703981 48.7009305,10.365976 49.020211,9.7061295 L49.0840671,9.7061295 L49.0840671,10.6426859 L50.2441199,10.6426859 L50.2441199,2.76709832 L49.0840671,2.76709832 L49.0840671,6.08761631 L49.020211,6.08761631 C48.7009305,5.42776978 48.1687962,5.02334772 47.359952,5.02334772 C46.0721871,5.02334772 45.2420576,6.01311751 45.2420576,7.8968729 C45.2420576,9.7806283 46.0721871,10.7703981 47.359952,10.7703981 Z M47.8388729,9.82319904 C46.9661727,9.82319904 46.4659664,9.23785132 46.4659664,8.34386571 L46.4659664,7.4498801 C46.4659664,6.55589448 46.9661727,5.97054676 47.8388729,5.97054676 C48.5093621,5.97054676 49.0840671,6.31111271 49.0840671,6.98160192 L49.0840671,8.81214388 C49.0840671,9.48263309 48.5093621,9.82319904 47.8388729,9.82319904 Z M53.7455635,10.7703981 C54.5544077,10.7703981 55.086542,10.365976 55.4058225,9.7061295 L55.4696787,9.7061295 L55.4696787,10.6426859 L56.6297314,10.6426859 L56.6297314,2.76709832 L55.4696787,2.76709832 L55.4696787,6.08761631 L55.4058225,6.08761631 C55.086542,5.42776978 54.5544077,5.02334772 53.7455635,5.02334772 C52.4577986,5.02334772 51.6276691,6.01311751 51.6276691,7.8968729 C51.6276691,9.7806283 52.4577986,10.7703981 53.7455635,10.7703981 Z M54.2244844,9.82319904 C53.3517842,9.82319904 52.8515779,9.23785132 52.8515779,8.34386571 L52.8515779,7.4498801 C52.8515779,6.55589448 53.3517842,5.97054676 54.2244844,5.97054676 C54.8949736,5.97054676 55.4696787,6.31111271 55.4696787,6.98160192 L55.4696787,8.81214388 C55.4696787,9.48263309 54.8949736,9.82319904 54.2244844,9.82319904 Z M67.0489209,10.7703981 C68.6666091,10.7703981 69.6563789,9.65291607 69.6563789,7.8968729 C69.6563789,6.14082974 68.6666091,5.02334772 67.0489209,5.02334772 C65.4312326,5.02334772 64.4414628,6.14082974 64.4414628,7.8968729 C64.4414628,9.65291607 65.4312326,10.7703981 67.0489209,10.7703981 Z M67.0489209,9.8551271 C66.2081487,9.8551271 65.654729,9.33363549 65.654729,8.31193765 L65.654729,7.48180815 C65.654729,6.46011031 66.2081487,5.93861871 67.0489209,5.93861871 C67.889693,5.93861871 68.4431127,6.46011031 68.4431127,7.48180815 L68.4431127,8.31193765 C68.4431127,9.33363549 67.889693,9.8551271 67.0489209,9.8551271 Z M72.295765,10.6426859 L72.295765,6.9177458 C72.295765,6.27918465 72.8917554,5.97054676 73.4877458,5.97054676 C74.2327338,5.97054676 74.6265132,6.40689688 74.6265132,7.27959712 L74.6265132,10.6426859 L75.7865659,10.6426859 L75.7865659,7.10931415 C75.7865659,5.77897842 75.0415779,5.02334772 73.9347386,5.02334772 C73.0301103,5.02334772 72.5831175,5.51291127 72.3489784,6.08761631 L72.295765,6.08761631 L72.295765,5.15105995 L71.1357122,5.15105995 L71.1357122,10.6426859 L72.295765,10.6426859 Z" id="Pro+Addon"></path>
                            <path d="M5.08416307,34.3203813 L5.08416307,32.8037986 C6.99072422,32.5727002 8.0739976,31.4460959 8.0739976,29.7995204 C8.0739976,28.3984868 7.32292806,27.3152134 5.40192326,26.9685659 L5.01194484,26.9107914 L5.01194484,23.8487386 C5.82078897,23.9498441 6.41297842,24.3253789 6.87517506,24.9175683 L7.92956115,23.9642878 C7.26515348,23.1121127 6.35520384,22.5921415 5.08416307,22.4621487 L5.08416307,20.9744532 L3.87089688,20.9744532 L3.87089688,22.4621487 C2.03655396,22.6499161 0.953280576,23.6754149 0.953280576,25.2931031 C0.953280576,26.6652494 1.67546283,27.7918537 3.61091127,28.1240576 L3.94311511,28.1818321 L3.94311511,31.4894269 C3.03316547,31.3883213 2.31098321,30.955012 1.66101918,30.1750552 L0.621076739,31.1716667 C1.29992806,32.09606 2.3398705,32.7315803 3.87089688,32.8471295 L3.87089688,34.3203813 L5.08416307,34.3203813 Z M3.94311511,26.7085803 C2.90317266,26.477482 2.48430695,26.0586163 2.48430695,25.2497722 C2.48430695,24.4264844 2.97539089,23.9354005 3.94311511,23.8198513 L3.94311511,26.7085803 Z M5.01194484,31.4749832 L5.01194484,28.3840432 C6.09521823,28.5862542 6.54297122,29.0051199 6.54297122,29.8717386 C6.54297122,30.7672446 6.00855635,31.3305468 5.01194484,31.4749832 Z M12.9270624,32.8615731 C15.2380456,32.8615731 16.5668609,31.4316523 16.5668609,29.4384293 C16.5668609,27.4596499 15.2380456,26.2897146 13.5048082,26.2897146 C12.3637602,26.2897146 11.7860144,26.7952422 11.3238177,27.5896427 L11.2082686,27.5896427 L11.4682542,24.0076187 L16.0468897,24.0076187 L16.0468897,22.6065851 L10.2405444,22.6065851 L9.86500959,28.2251631 L11.2082686,28.4129305 C11.5838034,28.0085084 12.0604436,27.61853 12.9559496,27.61853 C14.1836595,27.61853 14.8769544,28.3118249 14.8769544,29.4817602 L14.8769544,29.5973094 C14.8769544,30.7672446 14.1981031,31.5038705 12.9559496,31.5038705 C11.7860144,31.5038705 11.2227122,30.9116811 10.7171847,30.1317242 L9.53280576,31.0561175 C10.1538825,31.9805108 11.1071631,32.8615731 12.9270624,32.8615731 Z M21.5643621,32.6882494 C23.2542686,31.5905324 25.233048,29.2795492 25.233048,26.3619329 C25.233048,23.9498441 23.889789,22.4332614 21.6365803,22.4332614 C19.4700336,22.4332614 18.0545564,23.834295 18.0545564,25.8419616 C18.0545564,27.7629664 19.3255971,28.9762326 21.0588345,28.9762326 C22.3443189,28.9762326 23.0231703,28.2973813 23.4564796,27.5029808 L23.5575851,27.5318681 C23.0520576,29.7128585 21.7232422,31.0416739 19.3978153,32.6882494 L21.5643621,32.6882494 Z M21.651024,27.6907482 C20.4233141,27.6907482 19.7155755,26.9974532 19.7155755,25.7841871 L19.7155755,25.6397506 C19.7155755,24.4264844 20.4233141,23.7331894 21.651024,23.7331894 C22.8642902,23.7331894 23.5720288,24.4264844 23.5720288,25.6397506 L23.5720288,25.7841871 C23.5720288,26.9974532 22.8642902,27.6907482 21.651024,27.6907482 Z M30.2305492,32.6882494 C31.9204556,31.5905324 33.899235,29.2795492 33.899235,26.3619329 C33.899235,23.9498441 32.555976,22.4332614 30.3027674,22.4332614 C28.1362206,22.4332614 26.7207434,23.834295 26.7207434,25.8419616 C26.7207434,27.7629664 27.9917842,28.9762326 29.7250216,28.9762326 C31.010506,28.9762326 31.6893573,28.2973813 32.1226667,27.5029808 L32.2237722,27.5318681 C31.7182446,29.7128585 30.3894293,31.0416739 28.0640024,32.6882494 L30.2305492,32.6882494 Z M30.317211,27.6907482 C29.0895012,27.6907482 28.3817626,26.9974532 28.3817626,25.7841871 L28.3817626,25.6397506 C28.3817626,24.4264844 29.0895012,23.7331894 30.317211,23.7331894 C31.5304772,23.7331894 32.2382158,24.4264844 32.2382158,25.6397506 L32.2382158,25.7841871 C32.2382158,26.9974532 31.5304772,27.6907482 30.317211,27.6907482 Z M38.9978417,32.8326859 C39.9077914,32.8326859 40.2544388,32.3849329 40.2544388,31.8360743 L40.2544388,31.4605396 C40.2544388,30.9116811 39.9077914,30.4639281 38.9978417,30.4639281 C38.0878921,30.4639281 37.7412446,30.9116811 37.7412446,31.4605396 L37.7412446,31.8360743 C37.7412446,32.3849329 38.0878921,32.8326859 38.9978417,32.8326859 Z M47.6640288,32.8615731 C50.220554,32.8615731 51.3616019,30.9405683 51.3616019,27.6474173 C51.3616019,24.3542662 50.220554,22.4332614 47.6640288,22.4332614 C45.1075036,22.4332614 43.9664556,24.3542662 43.9664556,27.6474173 C43.9664556,30.9405683 45.1075036,32.8615731 47.6640288,32.8615731 Z M47.6640288,31.5327578 C46.190777,31.5327578 45.6274748,30.3628225 45.6274748,28.514036 L45.6274748,26.7807986 C45.6274748,24.932012 46.190777,23.7620767 47.6640288,23.7620767 C49.1372806,23.7620767 49.7005827,24.932012 49.7005827,26.7807986 L49.7005827,28.514036 C49.7005827,30.3628225 49.1372806,31.5327578 47.6640288,31.5327578 Z M47.6640288,28.4995923 C48.3284365,28.4995923 48.5595348,28.1962758 48.5595348,27.8062974 L48.5595348,27.4885372 C48.5595348,27.0985588 48.3284365,26.7952422 47.6640288,26.7952422 C46.9996211,26.7952422 46.7685228,27.0985588 46.7685228,27.4885372 L46.7685228,27.8062974 C46.7685228,28.1962758 46.9996211,28.4995923 47.6640288,28.4995923 Z M54.5969784,34.6814724 L59.4644868,21.7110791 L58.0634532,21.7110791 L53.1959448,34.6814724 L54.5969784,34.6814724 Z M62.6420887,32.6882494 L62.6420887,27.2863261 C62.6420887,26.6074748 63.0176235,26.275271 63.5375947,26.275271 C64.1008969,26.275271 64.3175516,26.6219185 64.3175516,27.6474173 L64.3175516,32.6882494 L65.6608106,32.6882494 L65.6608106,27.2863261 C65.6608106,26.6074748 66.0363453,26.275271 66.5418729,26.275271 C67.1051751,26.275271 67.3362734,26.6219185 67.3362734,27.6474173 L67.3362734,32.6882494 L68.6795324,32.6882494 L68.6795324,27.4452062 C68.6795324,25.8997362 68.2751103,25.0620048 67.1340624,25.0620048 C66.2385564,25.0620048 65.7908034,25.5964197 65.5308177,26.275271 L65.4730432,26.275271 C65.357494,25.5242014 64.9241847,25.0620048 64.1442278,25.0620048 C63.3353837,25.0620048 62.9454053,25.5675324 62.714307,26.2030528 L62.6420887,26.2030528 L62.6420887,25.2353285 L61.2988297,25.2353285 L61.2988297,32.6882494 L62.6420887,32.6882494 Z M73.6625899,32.8615731 C75.858024,32.8615731 77.201283,31.3449904 77.201283,28.961789 C77.201283,26.5785875 75.858024,25.0620048 73.6625899,25.0620048 C71.4671559,25.0620048 70.1238969,26.5785875 70.1238969,28.961789 C70.1238969,31.3449904 71.4671559,32.8615731 73.6625899,32.8615731 Z M73.6625899,31.6194197 C72.521542,31.6194197 71.7704724,30.9116811 71.7704724,29.5250911 L71.7704724,28.3984868 C71.7704724,27.0118969 72.521542,26.3041583 73.6625899,26.3041583 C74.8036379,26.3041583 75.5547074,27.0118969 75.5547074,28.3984868 L75.5547074,29.5250911 C75.5547074,30.9116811 74.8036379,31.6194197 73.6625899,31.6194197 Z" id="$599.0/mo"></path>
                        </g>
                        <g id="Group-4" transform="translate(20.525180, 27.366906)">
                            <rect id="Rectangle" fill="#E4F2FF" x="60.8153477" y="2.28057554" width="37.2494005" height="3.80095923" rx="1.90047962"></rect>
                            <rect id="Rectangle-Copy" fill="#E4F2FF" x="60.8153477" y="12.1630695" width="67.6570743" height="3.80095923" rx="1.90047962"></rect>
                            <use id="Rectangle" stroke="#DDEDFF" mask="url(#mask-4)" stroke-width="2" fill="#FFFFFF" stroke-dasharray="3,3" xlink:href="#path-3"></use>
                            <rect id="Rectangle" stroke="#DBEDFF" fill-rule="nonzero" x="6.84172662" y="9.12230216" width="31.1678657" height="31.1678657" rx="15.5839329"></rect>
                            <path d="M22.4256595,27.0856339 C17.355548,27.0833316 12.6131154,29.5911846 9.76086331,33.7829257 C12.6857228,37.8680117 17.401445,40.2914551 22.4256595,40.2914551 C27.4498739,40.2914551 32.1655961,37.8680117 35.0904556,33.7829257 C32.2382035,29.5911846 27.4957709,27.0833316 22.4256595,27.0856339 Z" id="Path" fill="#DDEDFF" fill-rule="nonzero"></path>
                            <circle id="Oval" fill="#DDEDFF" fill-rule="nonzero" cx="22.4256595" cy="19.1568345" r="6.34"></circle>
                        </g>
                    </g>
                </g>
                <g id="Group-60" transform="translate(-0.000000, 181.685851)">
                    <g id="Rectangle-Copy-11">
                        <use fill="black" fill-opacity="1" filter="url(#filter-6)" xlink:href="#path-5"></use>
                        <rect stroke="#EBF2FE" stroke-width="2" stroke-linejoin="square" fill="#FFFFFF" fill-rule="evenodd" x="1" y="1" width="93.1207325" height="54.2541966" rx="8"></rect>
                    </g>
                    <path d="M12.7025576,14.0409947 C13.9651132,14.0409947 14.6579791,13.3789228 14.6579791,12.385815 C14.6579791,11.6236625 14.2422596,11.0693698 13.2722473,10.8923041 L12.7025576,10.7922235 C12.0404857,10.6844443 11.8095304,10.438092 11.8095304,9.99927695 C11.8095304,9.47577827 12.1559634,9.19863192 12.7872412,9.19863192 C13.3800265,9.19863192 13.7726505,9.43728572 14.0651938,9.79911569 L14.6040895,9.26021999 C14.2345611,8.77521387 13.6340773,8.48267049 12.7872412,8.48267049 C11.6478617,8.48267049 10.9395988,9.0292647 10.9395988,10.0377695 C10.9395988,10.7537309 11.3014288,11.3619132 12.3176321,11.5312804 L12.9027188,11.6236625 C13.5493937,11.7314417 13.7880475,11.9700955 13.7880475,12.4320061 C13.7880475,13.0016958 13.4108205,13.3250332 12.7333516,13.3250332 C12.1559634,13.3250332 11.7017513,13.0940779 11.2937303,12.6090718 L10.7394375,13.140269 C11.1474586,13.6791647 11.7710379,14.0409947 12.7025576,14.0409947 Z M17.0060246,14.0409947 C17.660398,14.0409947 17.9837354,13.6868632 18.1531026,13.2711437 L18.1915952,13.2711437 L18.1915952,13.9486126 L19.0307328,13.9486126 L19.0307328,9.97618142 L18.1915952,9.97618142 L18.1915952,12.6706599 C18.1915952,13.1325705 17.7604786,13.3558273 17.3293621,13.3558273 C16.7904664,13.3558273 16.5056215,13.0401884 16.5056215,12.4089106 L16.5056215,9.97618142 L15.6664839,9.97618142 L15.6664839,12.5320867 C15.6664839,13.4944005 16.2053796,14.0409947 17.0060246,14.0409947 Z M22.3718861,14.0409947 C23.3034058,14.0409947 23.9038895,13.3250332 23.9038895,11.962397 C23.9038895,10.5997607 23.3034058,9.8837993 22.3718861,9.8837993 C21.7867993,9.8837993 21.4018738,10.1763427 21.1709185,10.6536503 L21.1247275,10.6536503 L21.1247275,8.25171519 L20.2855899,8.25171519 L20.2855899,13.9486126 L21.1247275,13.9486126 L21.1247275,13.2711437 L21.1709185,13.2711437 C21.4018738,13.7484513 21.7867993,14.0409947 22.3718861,14.0409947 Z M22.0254531,13.3558273 C21.540447,13.3558273 21.1247275,13.109475 21.1247275,12.6244688 L21.1247275,11.3003251 C21.1247275,10.815319 21.540447,10.5689667 22.0254531,10.5689667 C22.6567309,10.5689667 23.0185609,10.9923847 23.0185609,11.6390596 L23.0185609,12.2857344 C23.0185609,12.9324092 22.6567309,13.3558273 22.0254531,13.3558273 Z M26.613765,14.0409947 C27.699255,14.0409947 28.3613268,13.5559885 28.3613268,12.7553435 C28.3613268,11.9393015 27.6684609,11.7237432 27.0371831,11.6313611 L26.4059053,11.5312804 C26.0748694,11.4850894 25.797723,11.3927072 25.797723,11.0539728 C25.797723,10.7075399 26.0902664,10.5227756 26.6368606,10.5227756 C27.2604399,10.5227756 27.6222699,10.7614294 27.8301296,11.0000832 L28.2997387,10.5073786 C27.9379088,10.1147546 27.4067116,9.8837993 26.6676546,9.8837993 C25.6514513,9.8837993 24.9739824,10.3149159 24.9739824,11.1232594 C24.9739824,11.9393015 25.6745468,12.1625582 26.2981261,12.2549404 L26.929404,12.355021 C27.2681384,12.4012121 27.5375862,12.4935942 27.5375862,12.8323286 C27.5375862,13.2249526 27.1680578,13.4020183 26.6291621,13.4020183 C26.0363768,13.4020183 25.6129588,13.1941586 25.2665258,12.8169316 L24.7507256,13.2788422 C25.1279526,13.7407528 25.7592304,14.0409947 26.613765,14.0409947 Z M31.3714442,14.0409947 C32.2028833,14.0409947 32.7186834,13.6483707 32.9727343,13.0940779 L32.3568535,12.716851 C32.1720892,13.1017765 31.8718473,13.3481288 31.3791427,13.3481288 C30.7247694,13.3481288 30.3629394,12.9170122 30.3629394,12.2934329 L30.3629394,11.6313611 C30.3629394,11.0000832 30.7324679,10.5766652 31.3637457,10.5766652 C31.8256563,10.5766652 32.1181997,10.8076205 32.2567728,11.177149 L32.9111462,10.8230175 C32.6647939,10.2687248 32.1797877,9.8837993 31.3637457,9.8837993 C30.1935722,9.8837993 29.4853093,10.6921428 29.4853093,11.962397 C29.4853093,13.2326511 30.1858737,14.0409947 31.3714442,14.0409947 Z M37.4532671,13.9486126 L37.4532671,13.2711437 L36.0136457,13.2711437 L36.0136457,11.7853313 C36.0136457,11.2310385 36.3754757,10.7768265 37.060643,10.7768265 L37.8458911,10.7768265 L37.8458911,9.97618142 L37.3685834,9.97618142 C36.5602399,9.97618142 36.213807,10.4765846 36.0598368,11.0308773 L36.0136457,11.0308773 L36.0136457,9.97618142 L34.1198122,9.97618142 L34.1198122,10.6536503 L35.1745081,10.6536503 L35.1745081,13.2711437 L34.1198122,13.2711437 L34.1198122,13.9486126 L37.4532671,13.9486126 Z M40.7097368,9.25252149 C41.1254563,9.25252149 41.2794265,9.05236023 41.2794265,8.7983094 L41.2794265,8.63664069 C41.2794265,8.38258986 41.1254563,8.1824286 40.7020382,8.1824286 C40.2863187,8.1824286 40.1323485,8.38258986 40.1323485,8.63664069 L40.1323485,8.7983094 C40.1323485,9.05236023 40.2863187,9.25252149 40.7097368,9.25252149 Z M42.3957104,13.9486126 L42.3957104,13.2711437 L41.1254563,13.2711437 L41.1254563,9.97618142 L38.931381,9.97618142 L38.931381,10.6536503 L40.2863187,10.6536503 L40.2863187,13.2711437 L38.931381,13.2711437 L38.931381,13.9486126 L42.3957104,13.9486126 Z M44.2202573,15.4883145 L44.2202573,13.2711437 L44.2664484,13.2711437 C44.4974037,13.7484513 44.8823292,14.0409947 45.4674159,14.0409947 C46.3989356,14.0409947 46.9994194,13.3250332 46.9994194,11.962397 C46.9994194,10.5997607 46.3989356,9.8837993 45.4674159,9.8837993 C44.8823292,9.8837993 44.4974037,10.1763427 44.2664484,10.6536503 L44.2202573,10.6536503 L44.2202573,9.97618142 L43.3811197,9.97618142 L43.3811197,15.4883145 L44.2202573,15.4883145 Z M45.120983,13.3558273 C44.6359768,13.3558273 44.2202573,13.109475 44.2202573,12.6244688 L44.2202573,11.3003251 C44.2202573,10.815319 44.6359768,10.5689667 45.120983,10.5689667 C45.7522608,10.5689667 46.1140907,10.9923847 46.1140907,11.6390596 L46.1140907,12.2857344 C46.1140907,12.9324092 45.7522608,13.3558273 45.120983,13.3558273 Z M51.4568566,13.9486126 L51.4568566,13.2711437 L49.7631845,13.2711437 L49.7631845,10.6536503 L51.4568566,10.6536503 L51.4568566,9.97618142 L49.7631845,9.97618142 L49.7631845,8.57505261 L48.9779364,8.57505261 L48.9779364,9.56816039 C48.9779364,9.87610079 48.8624588,9.97618142 48.5699154,9.97618142 L47.6999838,9.97618142 L47.6999838,10.6536503 L48.9240469,10.6536503 L48.9240469,12.9401077 C48.9240469,13.532893 49.2473843,13.9486126 49.9402502,13.9486126 L51.4568566,13.9486126 Z M54.5670547,9.25252149 C54.9827742,9.25252149 55.1367444,9.05236023 55.1367444,8.7983094 L55.1367444,8.63664069 C55.1367444,8.38258986 54.9827742,8.1824286 54.5593562,8.1824286 C54.1436366,8.1824286 53.9896664,8.38258986 53.9896664,8.63664069 L53.9896664,8.7983094 C53.9896664,9.05236023 54.1436366,9.25252149 54.5670547,9.25252149 Z M56.2530283,13.9486126 L56.2530283,13.2711437 L54.9827742,13.2711437 L54.9827742,9.97618142 L52.7886989,9.97618142 L52.7886989,10.6536503 L54.1436366,10.6536503 L54.1436366,13.2711437 L52.7886989,13.2711437 L52.7886989,13.9486126 L56.2530283,13.9486126 Z M58.9398083,14.0409947 C60.1099818,14.0409947 60.8259432,13.2326511 60.8259432,11.962397 C60.8259432,10.6921428 60.1099818,9.8837993 58.9398083,9.8837993 C57.7696348,9.8837993 57.0536734,10.6921428 57.0536734,11.962397 C57.0536734,13.2326511 57.7696348,14.0409947 58.9398083,14.0409947 Z M58.9398083,13.3789228 C58.331626,13.3789228 57.9313035,13.0016958 57.9313035,12.2626389 L57.9313035,11.6621551 C57.9313035,10.9230981 58.331626,10.5458712 58.9398083,10.5458712 C59.5479906,10.5458712 59.9483131,10.9230981 59.9483131,11.6621551 L59.9483131,12.2626389 C59.9483131,13.0016958 59.5479906,13.3789228 58.9398083,13.3789228 Z M62.7351737,13.9486126 L62.7351737,11.2541341 C62.7351737,10.7922235 63.1662903,10.5689667 63.5974068,10.5689667 C64.1363025,10.5689667 64.4211474,10.8846056 64.4211474,11.5158834 L64.4211474,13.9486126 L65.260285,13.9486126 L65.260285,11.3927072 C65.260285,10.4303935 64.7213893,9.8837993 63.9207442,9.8837993 C63.2663709,9.8837993 62.9430335,10.2379308 62.7736663,10.6536503 L62.7351737,10.6536503 L62.7351737,9.97618142 L61.8960361,9.97618142 L61.8960361,13.9486126 L62.7351737,13.9486126 Z M68.1857188,14.0409947 C69.2712087,14.0409947 69.9332805,13.5559885 69.9332805,12.7553435 C69.9332805,11.9393015 69.2404146,11.7237432 68.6091368,11.6313611 L67.977859,11.5312804 C67.6468231,11.4850894 67.3696767,11.3927072 67.3696767,11.0539728 C67.3696767,10.7075399 67.6622201,10.5227756 68.2088143,10.5227756 C68.8323936,10.5227756 69.1942236,10.7614294 69.4020833,11.0000832 L69.8716924,10.5073786 C69.5098625,10.1147546 68.9786653,9.8837993 68.2396083,9.8837993 C67.223405,9.8837993 66.5459361,10.3149159 66.5459361,11.1232594 C66.5459361,11.9393015 67.2465005,12.1625582 67.8700798,12.2549404 L68.5013577,12.355021 C68.8400921,12.4012121 69.1095399,12.4935942 69.1095399,12.8323286 C69.1095399,13.2249526 68.7400115,13.4020183 68.2011158,13.4020183 C67.6083305,13.4020183 67.1849125,13.1941586 66.8384795,12.8169316 L66.3226793,13.2788422 C66.6999063,13.7407528 67.3311842,14.0409947 68.1857188,14.0409947 Z" id="Subscriptions" fill="#00000B" fill-rule="nonzero"></path>
                    <rect id="Rectangle" fill="#DDEDFF" fill-rule="nonzero" x="28.3852478" y="26.592893" width="45.5147591" height="2.55700894" rx="1.27850447"></rect>
                    <polygon id="↑" fill="#34CE9D" fill-rule="nonzero" points="17.3091468 37.8437323 17.3091468 29.7461836 20.2375056 32.6745424 21.790809 31.1212391 16.2651232 25.5700894 10.7394375 31.1212391 12.2927409 32.6745424 15.2210997 29.7461836 15.2210997 37.8437323"></polygon>
                    <g id="Group-56" transform="translate(28.127098, 35.286723)" fill="#DDEDFF">
                        <rect id="Rectangle" x="0.258149486" y="0" width="19.9446697" height="1.53420536" rx="0.767102681"></rect>
                    </g>
                </g>
                <g id="Group" transform="translate(193.848921, 0.000000)">
                    <g id="Rectangle">
                        <use fill="black" fill-opacity="1" filter="url(#filter-8)" xlink:href="#path-7"></use>
                        <rect stroke="#DDEDFF" stroke-width="2" stroke-linejoin="square" fill="#FFFFFF" fill-rule="evenodd" x="1" y="1" width="93.1994097" height="54.2541966" rx="8"></rect>
                    </g>
                    <rect id="Rectangle" fill="#DDEDFF" fill-rule="nonzero" x="27.3183296" y="29.2089098" width="48.1406106" height="2.70452868" rx="1.35226434"></rect>
                    <polygon id="↑" fill="#34CE9D" fill-rule="nonzero" points="15.7286415 40.5679303 15.7286415 32.0032154 18.8818477 35.1005179 20.554418 33.4576009 14.6044549 27.5861926 8.65449179 33.4576009 10.3270621 35.1005179 13.4802683 32.0032154 13.4802683 40.5679303"></polygon>
                    <rect id="Rectangle" fill="#DDEDFF" x="27.3183296" y="38.4043073" width="15.6862664" height="1.62271721" rx="0.811358605"></rect>
                    <path d="M9.63434331,14.4811284 L9.63434331,11.1753667 L9.60465084,9.09689379 L9.68383076,9.09689379 L11.0694794,12.6500927 L12.455128,9.09689379 L12.5343079,9.09689379 L12.5046154,11.1753667 L12.5046154,14.4811284 L13.4844669,14.4811284 L13.4844669,7.57268032 L12.2076907,7.57268032 L11.1387618,10.3142851 L11.0694794,10.3142851 L10.0104479,7.57268032 L8.65449179,7.57268032 L8.65449179,14.4811284 L9.63434331,14.4811284 Z M15.968737,14.4811284 L15.968737,11.6900362 L16.8892035,11.6900362 L18.3540321,14.4811284 L19.5813208,14.4811284 L17.9878249,11.5910613 C18.9478815,11.4327014 19.4823459,10.7002872 19.4823459,9.65115323 C19.4823459,8.36447952 18.7598292,7.57268032 17.4533605,7.57268032 L14.8701156,7.57268032 L14.8701156,14.4811284 L15.968737,14.4811284 Z M17.2950006,10.7992621 L15.968737,10.7992621 L15.968737,8.49314689 L17.2950006,8.49314689 C17.9878249,8.49314689 18.3243396,8.79996909 18.3243396,9.43340845 L18.3243396,9.85900052 C18.3243396,10.4924399 17.9878249,10.7992621 17.2950006,10.7992621 Z M21.907231,14.4811284 L21.907231,11.6900362 L22.8276976,11.6900362 L24.2925261,14.4811284 L25.5198149,14.4811284 L23.926319,11.5910613 C24.8863755,11.4327014 25.42084,10.7002872 25.42084,9.65115323 C25.42084,8.36447952 24.6983232,7.57268032 23.3918545,7.57268032 L20.8086096,7.57268032 L20.8086096,14.4811284 L21.907231,14.4811284 Z M23.2334947,10.7992621 L21.907231,10.7992621 L21.907231,8.49314689 L23.2334947,8.49314689 C23.926319,8.49314689 24.2628336,8.79996909 24.2628336,9.43340845 L24.2628336,9.85900052 C24.2628336,10.4924399 23.926319,10.7992621 23.2334947,10.7992621 Z" id="MRR" fill="#00000B" fill-rule="nonzero"></path>
                </g>
                <g id="Group-3" transform="translate(123.911271, 151.038369)">
                    <g id="Rectangle">
                        <use fill="black" fill-opacity="1" filter="url(#filter-10)" xlink:href="#path-9"></use>
                        <rect stroke="#DDEDFF" stroke-width="2" stroke-linejoin="square" fill="#FFFFFF" fill-rule="evenodd" x="1" y="2" width="159.551571" height="162.961631" rx="8"></rect>
                    </g>
                    <g id="Invoice-dunning-top" transform="translate(16.088729, 0.961631)" fill="#33CD9C">
                        <path d="M0,0 L35.8687745,0 L35.8687745,9.6402382 C35.8687745,11.8493772 34.0779135,13.6402382 31.8687745,13.6402382 L4,13.6402382 C1.790861,13.6402382 1.25159629e-15,11.8493772 0,9.6402382 L0,0 L0,0 Z" id="Rectangle"></path>
                    </g>
                    <rect id="Rectangle" fill="#DDEDFF" fill-rule="nonzero" x="119.778342" y="136.12361" width="29.4117636" height="3.41005955" rx="1.70502977"></rect>
                    <g id="Group-78" transform="translate(15.345268, 35.100595)">
                        <rect id="Rectangle" fill="#DDEDFF" fill-rule="nonzero" x="0.852514887" y="14.4927531" width="29.4117636" height="3.41005955" rx="1.70502977"></rect>
                        <path d="M1.80985976,6.80340312 L1.80985976,0 L0.760191847,0 L0.760191847,6.80340312 L1.80985976,6.80340312 Z M4.26880403,6.80340312 L4.26880403,4.25698652 C4.26880403,4.03020642 4.30282104,3.82448447 4.37085507,3.63982067 C4.43888911,3.45515687 4.52960115,3.29803066 4.6429912,3.16844202 C4.75638125,3.03885339 4.8892096,2.9384222 5.04147624,2.86714846 C5.19374288,2.79587471 5.35734853,2.76023784 5.53229318,2.76023784 C5.87570305,2.76023784 6.13973989,2.85418959 6.32440368,3.04209311 C6.50906748,3.22999662 6.60139938,3.48917389 6.60139938,3.81962489 L6.60139938,3.81962489 L6.60139938,6.80340312 L7.59275241,6.80340312 L7.59275241,3.52805048 C7.59275241,3.25591435 7.54901625,3.01455553 7.46154392,2.803974 C7.37407159,2.59339248 7.25582197,2.41844782 7.10679504,2.27914005 C6.95776812,2.13983227 6.77958375,2.03292165 6.57224194,1.95840818 C6.36490013,1.88389472 6.14459946,1.84663799 5.91133992,1.84663799 C5.56145062,1.84663799 5.24233862,1.93249046 4.95400391,2.10419539 C4.66566921,2.27590033 4.43726925,2.50430029 4.26880403,2.78939528 L4.26880403,2.78939528 L4.26880403,1.98270605 L3.277451,1.98270605 L3.277451,6.80340312 L4.26880403,6.80340312 Z M11.2471518,6.80340312 L13.1909813,1.98270605 L12.1218751,1.98270605 L10.7709136,5.56907141 L9.4199521,1.98270605 L8.3508459,1.98270605 L10.2946754,6.80340312 L11.2471518,6.80340312 Z M16.0678489,6.93947118 C16.385341,6.93947118 16.6979736,6.88601587 17.0057466,6.77910525 C17.3135196,6.67219463 17.5888954,6.5118287 17.8318741,6.29800746 C18.0748528,6.08418622 18.2708556,5.81852953 18.4198825,5.50103738 C18.5689094,5.18354523 18.6434229,4.81421764 18.6434229,4.39305459 C18.6434229,3.97837097 18.5689094,3.61228309 18.4198825,3.29479094 C18.2708556,2.97729879 18.0748528,2.7116421 17.8318741,2.49782086 C17.5888954,2.28399962 17.3135196,2.12201383 17.0057466,2.01186349 C16.6979736,1.90171316 16.385341,1.84663799 16.0678489,1.84663799 C15.7503567,1.84663799 15.4377241,1.90171316 15.1299512,2.01186349 C14.8221782,2.12201383 14.5468023,2.28399962 14.3038236,2.49782086 C14.0608449,2.7116421 13.8648421,2.97729879 13.7158152,3.29479094 C13.5667883,3.61228309 13.4922748,3.97837097 13.4922748,4.39305459 C13.4922748,4.81421764 13.5667883,5.18354523 13.7158152,5.50103738 C13.8648421,5.81852953 14.0608449,6.08418622 14.3038236,6.29800746 C14.5468023,6.5118287 14.8221782,6.67219463 15.1299512,6.77910525 C15.4377241,6.88601587 15.7503567,6.93947118 16.0678489,6.93947118 Z M16.0678489,6.02587134 C15.8540276,6.02587134 15.6531652,5.98699475 15.4652617,5.90924157 C15.2773582,5.83148839 15.1121327,5.72133805 14.9695852,5.57879056 C14.8270377,5.43624306 14.7136477,5.26453813 14.6294151,5.06367575 C14.5451825,4.86281337 14.5030661,4.63927298 14.5030661,4.39305459 C14.5030661,4.14683619 14.5451825,3.9232958 14.6294151,3.72243342 C14.7136477,3.52157104 14.8270377,3.34986611 14.9695852,3.20731861 C15.1121327,3.06477112 15.2773582,2.95462078 15.4652617,2.87686761 C15.6531652,2.79911443 15.8540276,2.76023784 16.0678489,2.76023784 C16.2816701,2.76023784 16.4825325,2.79911443 16.670436,2.87686761 C16.8583395,2.95462078 17.023565,3.06477112 17.1661125,3.20731861 C17.30866,3.34986611 17.4220501,3.52157104 17.5062827,3.72243342 C17.5905153,3.9232958 17.6326316,4.14683619 17.6326316,4.39305459 C17.6326316,4.63927298 17.5905153,4.86281337 17.5062827,5.06367575 C17.4220501,5.26453813 17.30866,5.43624306 17.1661125,5.57879056 C17.023565,5.72133805 16.8583395,5.83148839 16.670436,5.90924157 C16.4825325,5.98699475 16.2816701,6.02587134 16.0678489,6.02587134 Z M20.6747247,1.21489341 L20.6747247,0.0971914731 L19.5473036,0.0971914731 L19.5473036,1.21489341 L20.6747247,1.21489341 Z M20.6066907,6.80340312 L20.6066907,1.98270605 L19.6153376,1.98270605 L19.6153376,6.80340312 L20.6066907,6.80340312 Z M24.1055837,6.93947118 C24.6109794,6.93947118 25.0499608,6.82122156 25.4225282,6.58472231 C25.7950955,6.34822305 26.0947692,6.00319332 26.3215493,5.54963312 L26.3215493,5.54963312 L25.5537366,5.0539566 C25.3917509,5.35848989 25.2022275,5.596609 24.9851665,5.76831393 C24.7681056,5.94001887 24.478151,6.02587134 24.1153028,6.02587134 C23.9014816,6.02587134 23.7038589,5.9886146 23.5224349,5.91410114 C23.3410108,5.83958768 23.1822647,5.73267706 23.0461966,5.59336928 C22.9101286,5.4540615 22.8048378,5.28235657 22.7303244,5.07825447 C22.6558109,4.87415238 22.6185542,4.64575242 22.6185542,4.39305459 C22.6185542,4.14035676 22.6574307,3.91195679 22.7351839,3.7078547 C22.8129371,3.50375261 22.9198477,3.33204767 23.0559158,3.19273989 C23.1919838,3.05343211 23.3507299,2.94652149 23.532154,2.87200803 C23.7135781,2.79749457 23.907961,2.76023784 24.1153028,2.76023784 C24.387439,2.76023784 24.6417567,2.82503215 24.8782559,2.95462078 C25.1147552,3.08420941 25.3204771,3.3271881 25.4954218,3.68355683 L25.4954218,3.68355683 L26.2826727,3.15872288 C26.1142075,2.75051869 25.8420714,2.42978683 25.4662643,2.19652729 C25.0904573,1.96326776 24.6368971,1.84663799 24.1055837,1.84663799 C23.7686533,1.84663799 23.4495413,1.90819259 23.1482477,2.03130179 C22.8469541,2.15441099 22.5812974,2.32773578 22.3512776,2.55127617 C22.1212578,2.77481656 21.9398337,3.04371297 21.8070054,3.3579654 C21.674177,3.67221783 21.6077628,4.01724756 21.6077628,4.39305459 C21.6077628,4.76886162 21.6725572,5.11389135 21.8021458,5.42814378 C21.9317344,5.74239621 22.1082989,6.01129261 22.3318393,6.234833 C22.5553797,6.45837339 22.8194165,6.63169818 23.1239498,6.75480738 C23.4284831,6.87791658 23.7556944,6.93947118 24.1055837,6.93947118 Z M29.402519,6.93947118 C29.9532707,6.93947118 30.4068309,6.82122156 30.7631996,6.58472231 C31.1195683,6.34822305 31.4111428,5.99671389 31.6379229,5.53019482 L31.6379229,5.53019482 L30.8701102,5.0733949 C30.7988365,5.21594239 30.7210833,5.34877074 30.6368507,5.47187994 C30.5526181,5.59498914 30.4538068,5.7002799 30.3404167,5.78775223 C30.2270266,5.87522455 30.0958182,5.94487844 29.9467912,5.99671389 C29.7977643,6.04854935 29.6260594,6.07446707 29.4316764,6.07446707 C29.2178552,6.07446707 29.0234722,6.0388302 28.8485276,5.96755645 C28.6735829,5.8962827 28.5213163,5.79423166 28.3917277,5.66140331 C28.262139,5.52857496 28.160088,5.37306861 28.0855745,5.19488424 C28.0110611,5.01669987 27.9705646,4.82069707 27.9640852,4.60687583 L27.9640852,4.60687583 L31.7837101,4.60687583 L31.7837101,4.25698652 C31.7837101,3.90709722 31.727015,3.5847455 31.613625,3.28993137 C31.5002349,2.99511723 31.3414889,2.74079954 31.1373868,2.5269783 C30.9332847,2.31315706 30.6886861,2.1463117 30.4035912,2.02644222 C30.1184962,1.90657273 29.801004,1.84663799 29.4511147,1.84663799 C29.1077048,1.84663799 28.7853531,1.90819259 28.4840596,2.03130179 C28.182766,2.15441099 27.920349,2.32773578 27.6968086,2.55127617 C27.4732682,2.77481656 27.2967037,3.04371297 27.1671151,3.3579654 C27.0375265,3.67221783 26.9727322,4.01724756 26.9727322,4.39305459 C26.9727322,4.76886162 27.0375265,5.11389135 27.1671151,5.42814378 C27.2967037,5.74239621 27.4716484,6.01129261 27.6919491,6.234833 C27.9122497,6.45837339 28.1698071,6.63169818 28.4646213,6.75480738 C28.7594354,6.87791658 29.072068,6.93947118 29.402519,6.93947118 Z M30.8409528,3.84878234 L27.9640852,3.84878234 C28.0094412,3.67383768 28.0774752,3.51347175 28.1681873,3.36768454 C28.2588993,3.22189733 28.3674298,3.09554842 28.4937787,2.9886378 C28.6201276,2.88172718 28.7626751,2.79749457 28.9214212,2.73593997 C29.0801673,2.67438537 29.2502523,2.64360807 29.4316764,2.64360807 C29.6001416,2.64360807 29.7637473,2.6695258 29.9224934,2.72136125 C30.0812394,2.7731967 30.2254068,2.84933002 30.3549954,2.94976121 C30.4845841,3.0501924 30.5931145,3.17654131 30.6805869,3.32880796 C30.7680592,3.4810746 30.8215145,3.65439939 30.8409528,3.84878234 L30.8409528,3.84878234 Z" id="Invoicefor$599.00" fill="#00000A" fill-rule="nonzero"></path>
                        <rect id="Rectangle" fill="#DDEDFF" x="0" y="31.5430508" width="59.2497847" height="2.13128722" rx="1.06564361"></rect>
                        <rect id="Rectangle-Copy-8" fill="#E4F2FF" x="102.301786" y="1.70502977" width="12.3614659" height="2.13128722" rx="1.06564361"></rect>
                        <rect id="Rectangle-Copy-9" fill="#E4F2FF" x="121.483371" y="1.70502977" width="12.3614659" height="2.13128722" rx="1.06564361"></rect>
                        <rect id="Rectangle-Copy" fill="#DDEDFF" x="0" y="41.346972" width="46.4620614" height="2.13128722" rx="1.06564361"></rect>
                        <rect id="Rectangle-Copy-2" fill="#DDEDFF" x="0" y="65.2173889" width="46.4620614" height="2.13128722" rx="1.06564361"></rect>
                        <rect id="Rectangle-Copy-4" fill="#DDEDFF" x="90.3665781" y="65.2173889" width="16.6240403" height="2.13128722" rx="1.06564361"></rect>
                        <rect id="Rectangle-Copy-6" fill="#DDEDFF" x="94.6291525" y="74.1687952" width="12.3614659" height="2.13128722" rx="1.06564361"></rect>
                        <rect id="Rectangle-Copy-5" fill="#DDEDFF" x="117.220797" y="65.2173889" width="16.6240403" height="2.13128722" rx="1.06564361"></rect>
                        <rect id="Rectangle-Copy-7" fill="#DDEDFF" x="117.220797" y="74.1687952" width="16.6240403" height="2.13128722" rx="1.06564361"></rect>
                        <line x1="0.426257444" y1="54.5609528" x2="133.631709" y2="54.7740815" id="Line-4" stroke="#E1F2FF" stroke-width="2" stroke-linecap="square"></line>
                        <line x1="90.3665781" y1="86.5302611" x2="133.631709" y2="86.7433898" id="Line-4-Copy-4" stroke="#E1F2FF" stroke-width="2" stroke-linecap="square"></line>
                    </g>
                </g>
            </g>
            <path d="M149.488,161 L149.488,158.872 L150.56,158.872 C151.64,158.872 152.24,158.2 152.24,157.144 C152.24,156.08 151.64,155.416 150.56,155.416 L148.44,155.416 L148.44,161 L149.488,161 Z M150.344,158.016 L149.488,158.016 L149.488,156.272 L150.344,156.272 C150.904,156.272 151.136,156.496 151.136,156.992 L151.136,157.296 C151.136,157.792 150.904,158.016 150.344,158.016 Z M154.408,161.096 C155.048,161.096 155.504,160.8 155.656,160.288 L155.696,160.288 C155.744,160.728 156.024,161 156.52,161 L157.12,161 L157.12,160.232 L156.632,160.232 L156.632,158.288 C156.632,157.296 155.976,156.776 154.896,156.776 C154,156.776 153.424,157.136 153.168,157.592 L153.752,158.088 C153.976,157.768 154.272,157.544 154.792,157.544 C155.36,157.544 155.608,157.816 155.608,158.336 L155.608,158.608 L154.88,158.608 C153.664,158.608 153.048,159.024 153.048,159.856 C153.048,160.632 153.584,161.096 154.408,161.096 Z M154.752,160.392 C154.328,160.392 154.064,160.216 154.064,159.888 L154.064,159.728 C154.064,159.384 154.344,159.2 154.904,159.2 L155.608,159.2 L155.608,159.752 C155.608,160.144 155.24,160.392 154.752,160.392 Z M160.056,156.232 C160.536,156.232 160.712,156 160.712,155.712 L160.712,155.52 C160.712,155.232 160.536,155 160.056,155 C159.576,155 159.4,155.232 159.4,155.52 L159.4,155.712 C159.4,156 159.576,156.232 160.056,156.232 Z M161.832,161 L161.832,160.192 L160.568,160.192 L160.568,156.872 L158.184,156.872 L158.184,157.68 L159.544,157.68 L159.544,160.192 L158.184,160.192 L158.184,161 L161.832,161 Z M164.136,161.096 C164.768,161.096 165.144,160.768 165.368,160.272 L165.424,160.272 L165.424,161 L166.448,161 L166.448,155.08 L165.424,155.08 L165.424,157.6 L165.368,157.6 C165.144,157.104 164.768,156.776 164.136,156.776 C163.192,156.776 162.56,157.48 162.56,158.936 C162.56,160.392 163.192,161.096 164.136,161.096 Z M164.568,160.28 C163.976,160.28 163.632,159.888 163.632,159.264 L163.632,158.608 C163.632,157.984 163.976,157.592 164.568,157.592 C165.032,157.592 165.424,157.816 165.424,158.288 L165.424,159.584 C165.424,160.056 165.032,160.28 164.568,160.28 Z" id="Paid" fill="#FEFEFE" fill-rule="nonzero"></path>
        </g>
    </g>
</svg>