<?xml version="1.0" encoding="UTF-8"?>
<svg width="20px" height="15px" viewBox="0 0 20 15" version="1.1" xmlns="http://www.w3.org/2000/svg" xmlns:xlink="http://www.w3.org/1999/xlink">
    <!-- Generator: Sketch 52.4 (67378) - http://www.bohemiancoding.com/sketch -->
    <title>Group 11</title>
    <desc>Created with Sketch.</desc>
    <g id="Page-1" stroke="none" stroke-width="1" fill="none" fill-rule="evenodd">
        <g id="Group-11">
            <path d="M5.5782,2.7392 L9.9832,2.7392 L9.9832,0.3052 C9.9832,0.1362 9.8412,0.0002 9.6642,0.0002 L0.3182,0.0002 C0.1422,0.0002 0.0002,0.1362 0.0002,0.3052 L0.0002,6.1632 C0.0002,6.3312 0.1422,6.4682 0.3182,6.4682 L1.1802,6.4682 L1.1802,8.0652 C1.1802,8.1852 1.3342,8.2452 1.4222,8.1582 L3.1452,6.4682 L4.8692,6.4682 L4.8692,3.4172 C4.8692,3.0432 5.1872,2.7392 5.5782,2.7392" id="Fill-1" fill="#490098"></path>
            <path d="M19.5519,3.6606 L6.4109,3.6606 C6.1639,3.6606 5.9629,3.8526 5.9629,4.0896 L5.9629,12.3256 C5.9629,12.5626 6.1639,12.7546 6.4109,12.7546 L15.7729,12.7546 L18.0019,14.9426 C18.1259,15.0636 18.3419,14.9796 18.3419,14.8096 L18.3419,12.7546 L19.5519,12.7546 C19.7989,12.7546 19.9999,12.5626 19.9999,12.3256 L19.9999,4.0896 C19.9999,3.8526 19.7989,3.6606 19.5519,3.6606" id="Fill-3" fill="#B65EFF"></path>
            <path d="M10.5343,8.1996 C10.5343,8.6806 10.1443,9.0706 9.6633,9.0706 C9.1823,9.0706 8.7933,8.6806 8.7933,8.1996 C8.7933,7.7186 9.1823,7.3286 9.6633,7.3286 C10.1443,7.3286 10.5343,7.7186 10.5343,8.1996" id="Fill-5" fill="#FFFFFF"></path>
            <path d="M13.8527,8.1996 C13.8527,8.6806 13.4627,9.0706 12.9817,9.0706 C12.4997,9.0706 12.1107,8.6806 12.1107,8.1996 C12.1107,7.7186 12.4997,7.3286 12.9817,7.3286 C13.4627,7.3286 13.8527,7.7186 13.8527,8.1996" id="Fill-7" fill="#FFFFFF"></path>
            <path d="M17.17,8.1996 C17.17,8.6806 16.78,9.0706 16.3,9.0706 C15.818,9.0706 15.429,8.6806 15.429,8.1996 C15.429,7.7186 15.818,7.3286 16.3,7.3286 C16.78,7.3286 17.17,7.7186 17.17,8.1996" id="Fill-9" fill="#FFFFFF"></path>
        </g>
    </g>
</svg>