<?xml version="1.0" encoding="UTF-8"?>
<svg width="20px" height="20px" viewBox="0 0 20 20" version="1.1" xmlns="http://www.w3.org/2000/svg" xmlns:xlink="http://www.w3.org/1999/xlink">
    <!-- Generator: Sketch 52.4 (67378) - http://www.bohemiancoding.com/sketch -->
    <title>Group 23</title>
    <desc>Created with Sketch.</desc>
    <defs>
        <polygon id="path-1" points="0.95749666 0 17.9995 0 17.9995 17.0427271 0.95749666 17.0427271"></polygon>
        <polygon id="path-3" points="0 0.603414673 6.2968 0.603414673 6.2968 6.3346 0 6.3346"></polygon>
    </defs>
    <g id="Page-1" stroke="none" stroke-width="1" fill="none" fill-rule="evenodd">
        <g id="Group-23">
            <g id="Group-3" transform="translate(2.000000, 0.000000)">
                <mask id="mask-2" fill="white">
                    <use xlink:href="#path-1"></use>
                </mask>
                <g id="Clip-2"></g>
                <path d="M7.3515,16.8288 L1.1705,10.6478 C0.9265,10.4038 0.8875,10.0208 1.0775,9.7318 L4.4335,4.6228 C6.3285,1.7378 9.5475,-0.0002 12.9995,-0.0002 L17.2705,-0.0002 C17.6735,-0.0002 17.9995,0.3268 17.9995,0.7298 L17.9995,4.9998 C17.9995,8.4528 16.2625,11.6718 13.3775,13.5668 L8.2685,16.9228 C7.9785,17.1128 7.5965,17.0738 7.3515,16.8288" id="Fill-1" fill="#B65EFF" mask="url(#mask-2)"></path>
            </g>
            <path d="M14.7109,8.384 C13.8569,9.238 12.4709,9.238 11.6159,8.384 C10.7619,7.529 10.7619,6.144 11.6159,5.289 C12.4709,4.434 13.8569,4.434 14.7109,5.289 C15.5659,6.144 15.5659,7.529 14.7109,8.384" id="Fill-4" fill="#FFFFFF"></path>
            <path d="M3.3232,12.8786 C3.1022,12.6586 2.7462,12.6586 2.5262,12.8786 L1.4352,13.9686 C1.2152,14.1896 1.2152,14.5456 1.4352,14.7666 C1.6562,14.9866 2.0122,14.9866 2.2322,14.7666 L3.3232,13.6756 C3.5432,13.4556 3.5432,13.0986 3.3232,12.8786" id="Fill-6" fill="#490098"></path>
            <path d="M7.1215,16.6769 C6.9015,16.4569 6.5445,16.4569 6.3245,16.6769 L5.1065,17.8949 C4.8865,18.1149 4.8865,18.4709 5.1065,18.6919 C5.3275,18.9119 5.6835,18.9119 5.9045,18.6919 L7.1215,17.4739 C7.3415,17.2539 7.3415,16.8979 7.1215,16.6769" id="Fill-8" fill="#490098"></path>
            <path d="M5.2221,14.7775 C5.0021,14.5575 4.6451,14.5575 4.4251,14.7775 L1.0131,18.1965 C0.7921,18.4175 0.7921,18.7745 1.0131,18.9945 C1.2331,19.2145 1.5891,19.2145 1.8101,18.9945 L5.2221,15.5745 C5.4421,15.3545 5.4421,14.9985 5.2221,14.7775" id="Fill-10" fill="#490098"></path>
            <g id="Group-14" transform="translate(0.000000, 2.000000)">
                <mask id="mask-4" fill="white">
                    <use xlink:href="#path-3"></use>
                </mask>
                <g id="Clip-13"></g>
                <path d="M6.2968,1.4176 L4.3998,0.6256 C4.2928,0.5806 4.1698,0.6056 4.0878,0.6866 L0.0838,4.6906 C-0.0602,4.8346 -0.0122,5.0776 0.1748,5.1556 L2.9978,6.3346 L5.7358,2.1656 C5.9088,1.9026 6.1058,1.6616 6.2968,1.4176" id="Fill-12" fill="#490098" mask="url(#mask-4)"></path>
            </g>
            <path d="M15.3774,13.5671 L11.3384,16.2191 L15.3774,13.5671 C15.6844,13.3651 15.9714,13.1411 16.2524,12.9111 C15.9714,13.1411 15.6844,13.3651 15.3774,13.5671" id="Fill-15" fill="#490098"></path>
            <path d="M11.666,17.0016 L12.844,19.8246 C12.922,20.0116 13.166,20.0596 13.309,19.9166 L17.313,15.9126 C17.395,15.8306 17.419,15.7076 17.374,15.6006 L16.583,13.7036 C16.338,13.8946 16.098,14.0906 15.835,14.2636 L11.666,17.0016 Z" id="Fill-17" fill="#490098"></path>
            <path d="M3.3232,13.6759 C3.5432,13.4559 3.5432,13.0989 3.3232,12.8789 C3.1022,12.6579 2.7462,12.6579 2.5262,12.8789 L1.4352,13.9689 C1.2152,14.1889 1.2152,14.5459 1.4352,14.7659 C1.6562,14.9869 2.0122,14.9869 2.2322,14.7659 L3.3232,13.6759 Z" id="Fill-19" fill="#490098"></path>
            <path d="M6.3242,16.6769 L5.1072,17.8949 C4.8872,18.1149 4.8872,18.4709 5.1072,18.6919 C5.3272,18.9119 5.6832,18.9119 5.9042,18.6919 L7.1212,17.4739 C7.3422,17.2539 7.3422,16.8979 7.1212,16.6769 C6.9012,16.4569 6.5442,16.4569 6.3242,16.6769" id="Fill-21" fill="#490098"></path>
        </g>
    </g>
</svg>