<?xml version="1.0" encoding="UTF-8"?>
<svg width="100px" height="102px" viewBox="0 0 100 102" version="1.1" xmlns="http://www.w3.org/2000/svg" xmlns:xlink="http://www.w3.org/1999/xlink">
    <!-- Generator: Sketch 43.2 (39069) - http://www.bohemiancoding.com/sketch -->
    <title>Group 7</title>
    <desc>Created with Sketch.</desc>
    <defs></defs>
    <g id="Page-1" stroke="none" stroke-width="1" fill="none" fill-rule="evenodd">
        <g id="Desktop-HD-Copy-17" transform="translate(-1155.000000, -964.000000)" fill-rule="nonzero">
            <g id="A-Check" transform="translate(920.000000, 943.000000)">
                <g id="Clipped" transform="translate(235.000000, 21.000000)">
                    <g id="Group-7">
                        <path d="M50.027027,77.0990991 C50.027027,77.1171171 44.8288288,70.7567568 41.7927928,67.3243243 L37.4954955,77.4504505 C43.6666667,86.6396396 47.7477477,94.5675676 49.990991,98.3513514 C54.3693694,90.9369369 65.036036,68.9279279 87.1621622,48.3333333 L84.7297297,42.5675676 C70.3603604,53.2072072 58.1351351,66.7567568 50.018018,77.1171171" id="Shape" fill="#059BD2"></path>
                        <path d="M82.2252252,101.351351 L99.7477477,101.351351 L84.2882883,64.3513514 C79.7837838,69.1441441 75.8738739,73.8828829 72.4864865,78.4054054 L82.2162162,101.351351 L82.2252252,101.351351 Z M57.7297297,0.792792793 L42.2522523,0.792792793 L0.234234234,101.351351 L17.7477477,101.351351 L48.1441441,29.6846847 L49.5855856,25.7927928 L50.3963964,25.7927928 L51.8378378,29.6846847 L60.8468468,50.9189189 C64.8468468,46.9369369 69.2072072,42.990991 73.8198198,39.2702703 L57.7207207,0.783783784 L57.7297297,0.792792793 Z" id="Shape" fill="#FC6600"></path>
                    </g>
                </g>
            </g>
        </g>
    </g>
</svg>