<?xml version="1.0" encoding="utf-8"?>
<!-- Generator: Adobe Illustrator 24.0.1, SVG Export Plug-In . SVG Version: 6.00 Build 0)  -->
<svg version="1.1" id="Layer_1" xmlns="http://www.w3.org/2000/svg" xmlns:xlink="http://www.w3.org/1999/xlink" x="0px" y="0px"
	 viewBox="0 0 360 180" style="enable-background:new 0 0 360 180;" xml:space="preserve">
<style type="text/css">
	.st0{clip-path:url(#SVGID_2_);}
	.st1{fill:#E9E6F4;}
	.st2{fill:#FFFFFF;}
	.st3{fill:#EA1F46;}
	.st4{fill:#4C467C;}
	.st5{fill:url(#SVGID_3_);}
	.st6{fill:url(#SVGID_4_);}
	.st7{fill:url(#SVGID_5_);}
	.st8{fill:url(#SVGID_6_);}
	.st9{fill:url(#SVGID_7_);}
	.st10{fill:url(#SVGID_8_);}
</style>
<g>
	<defs>
		<rect id="SVGID_1_" width="360" height="180"/>
	</defs>
	<clipPath id="SVGID_2_">
		<use xlink:href="#SVGID_1_"  style="overflow:visible;"/>
	</clipPath>
	<g class="st0">
		<rect x="-6" y="-56.3" class="st1" width="372" height="371"/>
		<polygon class="st2" points="-6,231.3 36.4,151.9 133.4,96.9 194.4,183.9 227.4,314.7 -6,316.3 		"/>
		<path class="st3" d="M243.3,15.9c0,0,10.3-6.9,19.5,0c7.2,5.4,16.9,1.7,21.9-4.2l0.8,6c0,0-2.4,14-20.3,10c0,0-12.5-3.7-17.4,1.6
			L243.3,15.9z"/>
		<polygon class="st4" points="246.4,50.2 243.2,15.7 245.5,14.6 250.7,49.3 		"/>
		<linearGradient id="SVGID_3_" gradientUnits="userSpaceOnUse" x1="113.1534" y1="89.7506" x2="147.3991" y2="221.3683">
			<stop  offset="1.240079e-03" style="stop-color:#897EC1"/>
			<stop  offset="1" style="stop-color:#E0DCEF"/>
		</linearGradient>
		<polygon class="st5" points="133.4,96.9 81.8,187.4 123.2,301.9 225.4,306.9 194.4,183.9 		"/>
		<polygon class="st2" points="86.1,306.9 138.4,188.9 203.2,124.2 231.4,61.9 259.2,36.6 308.6,116.3 316.3,175.5 359.4,229.1 
			359.4,310.9 		"/>
		<linearGradient id="SVGID_4_" gradientUnits="userSpaceOnUse" x1="210.1366" y1="22.0433" x2="256.7384" y2="219.4214">
			<stop  offset="1.240079e-03" style="stop-color:#897EC1"/>
			<stop  offset="1" style="stop-color:#E0DCEF"/>
		</linearGradient>
		<polygon class="st6" points="259.2,36.6 234.2,133.9 255.3,189.4 209.1,229.8 172.1,316 366,314.7 366,226.9 316.3,175.5 
			308.6,116.3 		"/>
		<linearGradient id="SVGID_5_" gradientUnits="userSpaceOnUse" x1="179.9467" y1="125.0957" x2="180.0516" y2="173.1407">
			<stop  offset="0" style="stop-color:#FFFFFF;stop-opacity:0"/>
			<stop  offset="1" style="stop-color:#FFFFFF"/>
		</linearGradient>
		<rect x="-6" y="119" class="st7" width="372" height="61"/>
		<linearGradient id="SVGID_6_" gradientUnits="userSpaceOnUse" x1="296.5409" y1="71.0013" x2="311.8078" y2="91.3782">
			<stop  offset="1.240079e-03" style="stop-color:#FFFFFF"/>
			<stop  offset="0.9987" style="stop-color:#FFFFFF;stop-opacity:0"/>
		</linearGradient>
		<path class="st8" d="M265.9,91.5l78.4-18.1l-27.6,3.1c0,0-6.4-11.2-11.9-2.6c0,0-29-13.5-31.1,8C273.6,81.8,259.7,83,265.9,91.5z"
			/>
		<linearGradient id="SVGID_7_" gradientUnits="userSpaceOnUse" x1="157.5599" y1="-1.8661" x2="175.3095" y2="28.2993">
			<stop  offset="1.240079e-03" style="stop-color:#FFFFFF"/>
			<stop  offset="0.9987" style="stop-color:#FFFFFF;stop-opacity:0"/>
		</linearGradient>
		<path class="st9" d="M231.5-0.7L102,29.1l19.9-7.8c0,0-0.8-11,25.6-7.7c0,0-1.4-16,19.2-7c0,0-2.7-45,56.1-10.7
			C222.8-4,228.5-10.8,231.5-0.7z"/>
		<linearGradient id="SVGID_8_" gradientUnits="userSpaceOnUse" x1="73.9447" y1="74.947" x2="141.535" y2="85.5782">
			<stop  offset="1.240079e-03" style="stop-color:#FFFFFF"/>
			<stop  offset="0.9987" style="stop-color:#FFFFFF;stop-opacity:0"/>
		</linearGradient>
		<path class="st10" d="M144,71.4L59.3,90.5c0,0-4.1-39.4,47.1-18.9C106.3,71.6,115.7,56.8,144,71.4z"/>
	</g>
</g>
</svg>
