<?xml version="1.0" encoding="utf-8"?>
<!-- Generator: Adobe Illustrator 24.0.1, SVG Export Plug-In . SVG Version: 6.00 Build 0)  -->
<svg version="1.1" id="Layer_1" xmlns="http://www.w3.org/2000/svg" xmlns:xlink="http://www.w3.org/1999/xlink" x="0px" y="0px"
	 viewBox="0 0 360 360" style="enable-background:new 0 0 360 360;" xml:space="preserve">
<style type="text/css">
	.st0{clip-path:url(#SVGID_2_);}
	.st1{fill:#E9E6F4;}
	.st2{fill:#FFFFFF;}
	.st3{fill:#EA1F46;}
	.st4{fill:#4C467C;}
	.st5{fill:url(#SVGID_3_);}
	.st6{fill:url(#SVGID_4_);}
	.st7{fill:url(#SVGID_5_);}
	.st8{fill:url(#SVGID_6_);}
	.st9{fill:url(#SVGID_7_);}
	.st10{fill:url(#SVGID_8_);}
</style>
<g>
	<defs>
		<rect id="SVGID_1_" width="360" height="360"/>
	</defs>
	<clipPath id="SVGID_2_">
		<use xlink:href="#SVGID_1_"  style="overflow:visible;"/>
	</clipPath>
	<g class="st0">
		<rect x="-6" y="-6.3" class="st1" width="372" height="371"/>
		<polygon class="st2" points="-6,281.3 36.4,201.9 133.4,146.9 194.4,233.9 227.4,364.7 -6,366.3 		"/>
		<path class="st3" d="M243.3,65.9c0,0,10.3-6.9,19.5,0c7.2,5.4,16.9,1.7,21.9-4.2l0.8,6c0,0-2.4,14-20.3,10c0,0-12.5-3.7-17.4,1.6
			L243.3,65.9z"/>
		<polygon class="st4" points="246.4,100.2 243.2,65.7 245.5,64.6 250.7,99.3 		"/>
		<linearGradient id="SVGID_3_" gradientUnits="userSpaceOnUse" x1="165.8183" y1="334.5775" x2="129.1322" y2="203.619">
			<stop  offset="1.240079e-03" style="stop-color:#897EC1"/>
			<stop  offset="1" style="stop-color:#E0DCEF"/>
		</linearGradient>
		<polygon class="st5" points="133.4,146.9 81.8,237.4 123.2,351.9 225.4,356.9 194.4,233.9 		"/>
		<polygon class="st2" points="86.1,356.9 138.4,238.9 203.2,174.2 231.4,111.9 259.2,86.6 308.6,166.3 316.3,225.5 359.4,279.1 
			359.4,360.9 		"/>
		<linearGradient id="SVGID_4_" gradientUnits="userSpaceOnUse" x1="280.7043" y1="354.9961" x2="214.0036" y2="163.4736">
			<stop  offset="1.240079e-03" style="stop-color:#897EC1"/>
			<stop  offset="1" style="stop-color:#E0DCEF"/>
		</linearGradient>
		<polygon class="st6" points="259.2,86.6 234.2,183.9 255.3,239.4 209.1,279.8 172.1,366 366,364.7 366,276.9 316.3,225.5 
			308.6,166.3 		"/>
		<linearGradient id="SVGID_5_" gradientUnits="userSpaceOnUse" x1="179.8741" y1="229.7978" x2="180.1219" y2="343.2498">
			<stop  offset="0" style="stop-color:#FFFFFF;stop-opacity:0"/>
			<stop  offset="1" style="stop-color:#FFFFFF"/>
		</linearGradient>
		<rect x="-6" y="214.9" class="st7" width="372" height="145.1"/>
		<linearGradient id="SVGID_6_" gradientUnits="userSpaceOnUse" x1="296.5409" y1="121.0013" x2="311.8078" y2="141.3782">
			<stop  offset="1.240079e-03" style="stop-color:#FFFFFF"/>
			<stop  offset="0.9987" style="stop-color:#FFFFFF;stop-opacity:0"/>
		</linearGradient>
		<path class="st8" d="M265.9,141.5l78.4-18.1l-27.6,3.1c0,0-6.4-11.2-11.9-2.6c0,0-29-13.5-31.1,8
			C273.6,131.8,259.7,133,265.9,141.5z"/>
		<linearGradient id="SVGID_7_" gradientUnits="userSpaceOnUse" x1="177.5599" y1="43.1339" x2="195.3095" y2="73.2993">
			<stop  offset="1.240079e-03" style="stop-color:#FFFFFF"/>
			<stop  offset="0.9987" style="stop-color:#FFFFFF;stop-opacity:0"/>
		</linearGradient>
		<path class="st9" d="M251.5,44.3L122,74.1l19.9-7.8c0,0-0.8-11,25.6-7.7c0,0-1.4-16,19.2-7c0,0-2.7-45,56.1-10.7
			C242.8,41,248.5,34.2,251.5,44.3z"/>
		<linearGradient id="SVGID_8_" gradientUnits="userSpaceOnUse" x1="73.9447" y1="114.947" x2="141.535" y2="125.5782">
			<stop  offset="1.240079e-03" style="stop-color:#FFFFFF"/>
			<stop  offset="0.9987" style="stop-color:#FFFFFF;stop-opacity:0"/>
		</linearGradient>
		<path class="st10" d="M144,111.4l-84.7,19.1c0,0-4.1-39.4,47.1-18.9C106.3,111.6,115.7,96.8,144,111.4z"/>
	</g>
</g>
</svg>
