<?xml version="1.0" encoding="utf-8"?>
<!-- Generator: Adobe Illustrator 24.0.1, SVG Export Plug-In . SVG Version: 6.00 Build 0)  -->
<svg version="1.1" id="Layer_1" xmlns="http://www.w3.org/2000/svg" xmlns:xlink="http://www.w3.org/1999/xlink" x="0px" y="0px"
	 viewBox="0 0 360 360" style="enable-background:new 0 0 360 360;" xml:space="preserve">
<style type="text/css">
	.st0{clip-path:url(#SVGID_2_);}
	.st1{fill:#E9E6F4;}
	.st2{fill:url(#SVGID_3_);}
	.st3{fill:url(#SVGID_4_);}
	.st4{fill:#FFFFFF;}
	.st5{fill:#425072;}
	.st6{fill:#0C1933;}
	.st7{fill:url(#SVGID_5_);}
	.st8{fill:url(#SVGID_6_);}
	.st9{fill:url(#SVGID_7_);}
	.st10{fill:url(#SVGID_8_);}
	.st11{fill:url(#SVGID_9_);}
	.st12{fill:url(#SVGID_10_);}
	.st13{fill:url(#SVGID_11_);}
	.st14{fill:none;stroke:#020202;stroke-miterlimit:10;}
	.st15{fill:url(#SVGID_12_);}
	.st16{fill:url(#SVGID_13_);}
	.st17{fill:url(#SVGID_14_);}
	.st18{fill:url(#SVGID_15_);}
	.st19{fill:url(#SVGID_16_);}
	.st20{fill:#ED931B;}
	.st21{fill:#B7093B;}
	.st22{fill:#EA1F46;}
	.st23{fill:#C44100;}
	.st24{fill:url(#SVGID_17_);}
	.st25{fill:url(#SVGID_18_);}
	.st26{fill:url(#SVGID_19_);}
	.st27{fill:url(#SVGID_20_);}
</style>
<g>
	<defs>
		<rect id="SVGID_1_" width="360" height="360"/>
	</defs>
	<clipPath id="SVGID_2_">
		<use xlink:href="#SVGID_1_"  style="overflow:visible;"/>
	</clipPath>
	<g class="st0">
		<rect x="-4.9" y="-7" class="st1" width="372" height="371"/>
		<linearGradient id="SVGID_3_" gradientUnits="userSpaceOnUse" x1="147.6116" y1="63.4116" x2="170.8019" y2="94.364">
			<stop  offset="1.240079e-03" style="stop-color:#FFFFFF"/>
			<stop  offset="0.9987" style="stop-color:#FFFFFF;stop-opacity:0"/>
		</linearGradient>
		<path class="st2" d="M101.1,94.5l119-27.5l-42,4.6c0,0-9.7-17-18.1-4c0,0-44.1-20.5-47.3,12.2C112.7,79.8,91.7,81.6,101.1,94.5z"
			/>
		<linearGradient id="SVGID_4_" gradientUnits="userSpaceOnUse" x1="39.7409" y1="35.0282" x2="90.5691" y2="43.0229">
			<stop  offset="1.240079e-03" style="stop-color:#FFFFFF"/>
			<stop  offset="0.9987" style="stop-color:#FFFFFF;stop-opacity:0"/>
		</linearGradient>
		<path class="st3" d="M92.4,32.4L28.7,46.8c0,0-3.1-29.6,35.4-14.2C64.1,32.5,71.1,21.4,92.4,32.4z"/>
		<polygon class="st4" points="-4.8,206 121.1,138 133.4,115.8 172.1,99.8 200.4,54.3 288.8,33.4 321.9,-3.6 364.5,-3.6 
			366.9,365.3 -4.8,365.3 		"/>
		<g>
			<polygon class="st5" points="41.7,207.6 65,238.2 68.3,243.1 55.3,238.1 58,244 41.7,238.2 65,271.5 68.3,276.9 54.4,271.2 
				56.6,277.2 41.7,271.5 65,302.1 68.5,307.4 55.2,302.1 54.4,307.3 41.7,302.1 41.7,326.5 28.7,326.5 28.7,302.1 17.8,306.8 
				17.2,302.1 4.5,306.7 7.8,302.1 28.7,271.5 16.1,277.8 17,271.5 4,277.4 7.8,271.5 28.7,238.2 16.5,243.3 16.9,238.2 4.8,242.9 
				7.8,238.2 28.7,207.6 16.7,213.1 15.6,207.8 4,213 7.8,207.6 37.1,174 65,207.6 68.3,213.3 55.5,207.6 56.3,213.5 			"/>
			<rect x="28.7" y="302.1" class="st6" width="6.6" height="11.6"/>
			<path class="st6" d="M35.1,207.6"/>
			<polygon class="st6" points="37.1,174 7.8,207.6 4,213 15.6,207.8 16.7,213.1 			"/>
			<polygon class="st6" points="28.7,207.6 7.8,238.2 4.8,242.9 16.9,238.2 16.5,243.3 23,234.9 			"/>
			<polygon class="st6" points="28.7,238.2 7.8,271.5 4,277.4 17,271.5 16.1,277.8 25.6,266 25.9,254.8 			"/>
			<polygon class="st6" points="28.7,271.5 4.5,306.7 17.2,302.1 17.8,306.8 26,297.5 26.8,283.1 			"/>
			<polygon class="st6" points="37.1,174 30.9,185.8 25.8,204.3 31.4,194.2 28.5,208.7 34,211.3 36.3,188.3 41.7,207.6 47.4,209.9 
				44.6,199.7 56.3,213.5 55.5,207.6 			"/>
			<polygon class="st6" points="28.5,208.7 34,211.3 36.3,239 28.7,238.2 26.1,219.9 			"/>
			<polygon class="st6" points="37.1,208.3 55.3,238.1 58,244 53.1,242.3 38.8,213.5 45.4,234.5 39.2,231.5 			"/>
			<polygon class="st6" points="51.1,219.9 65,238.2 68.3,243.1 61.7,240.6 			"/>
			<polygon class="st6" points="36.3,239 54.4,271.2 56.6,277.2 50,274.7 46.5,264.7 35.1,243.1 39.7,259.4 38.6,268.3 36.3,260.1 
				32.9,244 31.5,261.2 26.1,253.7 28.7,238.2 			"/>
			<polygon class="st6" points="28.7,271.5 31.5,266.9 36.3,271.5 55.2,302.1 54.4,307.3 48.6,305 45.7,293.6 35.8,277.2 
				40.1,292.4 38.3,300.6 32.9,294.3 32.7,277.8 26,297.5 24.9,284.9 			"/>
		</g>
		<polygon class="st4" points="-3.1,297.3 13.4,292.5 51.8,297.3 93.4,364 -3.1,364 		"/>
		<linearGradient id="SVGID_5_" gradientUnits="userSpaceOnUse" x1="172.1255" y1="93.0909" x2="210.7389" y2="93.0909">
			<stop  offset="1.240079e-03" style="stop-color:#897EC1"/>
			<stop  offset="1" style="stop-color:#E0DCEF"/>
		</linearGradient>
		<polygon class="st7" points="200.4,54.3 198.6,88.2 210.7,101.1 210.7,131.9 200.6,112.8 172.1,99.8 		"/>
		<linearGradient id="SVGID_6_" gradientUnits="userSpaceOnUse" x1="121.0721" y1="135.8786" x2="161.2121" y2="135.8786">
			<stop  offset="1.240079e-03" style="stop-color:#897EC1"/>
			<stop  offset="1" style="stop-color:#E0DCEF"/>
		</linearGradient>
		<polygon class="st8" points="133.4,115.8 138.6,131.9 159.7,139.3 161.2,155.9 147.3,143.2 121.1,138 		"/>
		<linearGradient id="SVGID_7_" gradientUnits="userSpaceOnUse" x1="80.6163" y1="150.7491" x2="161.2121" y2="150.7491">
			<stop  offset="0" style="stop-color:#CFC7E5"/>
			<stop  offset="1" style="stop-color:#CFC7E5;stop-opacity:0"/>
		</linearGradient>
		<polygon class="st9" points="161.2,155.9 131.2,154.1 109.3,163.5 80.6,159.9 121.1,138 147.3,143.2 		"/>
		<linearGradient id="SVGID_8_" gradientUnits="userSpaceOnUse" x1="337.9693" y1="133.7087" x2="279.235" y2="156.9774">
			<stop  offset="0" style="stop-color:#CFC7E5"/>
			<stop  offset="1" style="stop-color:#CFC7E5;stop-opacity:0"/>
		</linearGradient>
		<polygon class="st10" points="324.6,121.8 338.8,135.9 326.1,146.1 333,155.9 312.1,146.3 310.9,136.9 285.1,134.4 		"/>
		<linearGradient id="SVGID_9_" gradientUnits="userSpaceOnUse" x1="250.0255" y1="153.3728" x2="286.0004" y2="153.3728">
			<stop  offset="1.240079e-03" style="stop-color:#897EC1"/>
			<stop  offset="1" style="stop-color:#E0DCEF"/>
		</linearGradient>
		<polygon class="st11" points="277.9,135.9 274.2,149.8 286,154.5 286,170.9 277.9,160.5 260.4,159.8 250,150.7 		"/>
		<polygon class="st5" points="301,129.4 301,123 292.7,123 299.3,113.3 292.7,113.3 299.5,103.5 293.6,103.5 302.9,91 311.8,102.6 
			306.1,103.1 311.8,112.4 306.7,112.6 311.8,121.6 305.2,121.6 305,128.2 		"/>
		<linearGradient id="SVGID_10_" gradientUnits="userSpaceOnUse" x1="80.6163" y1="275.8973" x2="236.2073" y2="275.8973">
			<stop  offset="0" style="stop-color:#CFC7E5"/>
			<stop  offset="1" style="stop-color:#CFC7E5;stop-opacity:0"/>
		</linearGradient>
		<polygon class="st12" points="80.6,295.2 141.1,279.3 203.3,268.2 236.2,256.6 206,275.9 146,286.7 		"/>
		<linearGradient id="SVGID_11_" gradientUnits="userSpaceOnUse" x1="274.786" y1="309.8306" x2="335.6573" y2="309.8306">
			<stop  offset="0" style="stop-color:#CFC7E5"/>
			<stop  offset="1" style="stop-color:#CFC7E5;stop-opacity:0"/>
		</linearGradient>
		<polygon class="st13" points="274.8,348.4 297.8,311.4 331.1,285.3 335.7,271.3 323.5,282.5 288.1,305.6 		"/>
		<path class="st14" d="M292.7,343.9"/>
		<linearGradient id="SVGID_12_" gradientUnits="userSpaceOnUse" x1="210.7389" y1="217.3551" x2="285.1298" y2="217.3551">
			<stop  offset="0" style="stop-color:#CFC7E5"/>
			<stop  offset="1" style="stop-color:#CFC7E5;stop-opacity:0"/>
		</linearGradient>
		<polygon class="st15" points="224.3,231.4 210.7,221.3 240.9,215.9 257.9,206 285.1,200.8 261.7,209.4 247.9,223.1 225.8,223.8 
			233.3,233.9 		"/>
		<linearGradient id="SVGID_13_" gradientUnits="userSpaceOnUse" x1="311.9224" y1="194.8328" x2="344.2396" y2="194.8328">
			<stop  offset="0" style="stop-color:#CFC7E5"/>
			<stop  offset="1" style="stop-color:#CFC7E5;stop-opacity:0"/>
		</linearGradient>
		<polygon class="st16" points="344.2,175.2 326,180.9 341.7,189.9 337.5,202 311.9,214.5 333.4,198.8 332.7,189.2 320.3,179.3 		
			"/>
		<linearGradient id="SVGID_14_" gradientUnits="userSpaceOnUse" x1="292.7167" y1="185.1304" x2="313.4042" y2="185.1304">
			<stop  offset="0" style="stop-color:#CFC7E5"/>
			<stop  offset="1" style="stop-color:#CFC7E5;stop-opacity:0"/>
		</linearGradient>
		<polygon class="st17" points="310.3,173.7 296.9,178.3 313.4,188.3 305.1,196.6 306.8,187.4 292.7,176.9 		"/>
		<linearGradient id="SVGID_15_" gradientUnits="userSpaceOnUse" x1="268.0129" y1="245.2563" x2="308.6024" y2="245.2563">
			<stop  offset="0" style="stop-color:#CFC7E5"/>
			<stop  offset="1" style="stop-color:#CFC7E5;stop-opacity:0"/>
		</linearGradient>
		<polygon class="st18" points="286,225.3 277.8,237.2 308.6,247.4 268,265.2 292.7,248.7 268,232.2 		"/>
		<linearGradient id="SVGID_16_" gradientUnits="userSpaceOnUse" x1="196.916" y1="174.0701" x2="117.9943" y2="240.939">
			<stop  offset="0" style="stop-color:#CFC7E5"/>
			<stop  offset="1" style="stop-color:#CFC7E5;stop-opacity:0"/>
		</linearGradient>
		<polygon class="st19" points="234,169.5 215.2,166.3 210.7,152.7 163.4,187.1 114.1,198.7 83.3,222.8 117.1,202.6 187.4,193.1 
			206.2,177.7 231.2,175.9 246,180 		"/>
		<g>
			<polygon class="st20" points="132.1,349.9 127.5,358.8 120.9,367.5 143.5,367 137,363.6 141,354.7 			"/>
			<polygon class="st20" points="176.3,349.2 173.3,358.7 169.8,366.6 192.5,366.6 184.8,362.1 186.1,349.2 			"/>
			<path class="st6" d="M163.2,301.3l-1.4,27.9L141,356.5c0,0-8.1,2.2-10.7-4.6l14.8-29.4c0,0-8.3-21.4-6.2-46.6L163.2,301.3z"/>
			<path class="st21" d="M130.4,351.8c2.6,6.8,10.7,4.6,10.7,4.6l18.1-24.2c-8.3-0.4-13.7-2.7-15.1-7.5L130.4,351.8z"/>
			<path class="st5" d="M174.5,278.7l29.2,29.9l-17.8,46.6c0,0-8.8,2.7-11.4-1.4l7.8-38.4c0,0-45.2-11.4-43.2-39.6L174.5,278.7z"/>
			<path class="st6" d="M141.9,264.3c0,0-1.3,22.7,33.5,23.7l20.7,12.8l-23.5-24.5L141.9,264.3z"/>
			<path class="st22" d="M182.3,315.4l-7.8,38.4c2.6,4.2,11.4,1.4,11.4,1.4l15.8-41.9C193.7,317.5,186.2,318.7,182.3,315.4z"/>
			<path class="st6" d="M166.5,194.9c0,0-10.7,5.5-20.4,2l0.7,2.4c0,0,3.7,1.9,9.4,0.3c0,0-3.3,2-7.2,1.6l1.3,2.3
				c0,0,6.9,0.1,13.2-4.9L166.5,194.9z"/>
			<circle class="st22" cx="178.6" cy="198.6" r="8.3"/>
			<polygon class="st22" points="186.9,199.2 185.8,214.3 176,212 166.5,199.2 			"/>
			<path class="st6" d="M166.5,195.8l-0.1-7.6l-2.7-2.3c-1.7-1.4-4-1.9-6-1.2l-0.6,0.1c-2.2,0.9-3.7,2.7-3.9,5.2l0,0
				c-0.3,2.9,1.4,5.5,4.2,6.3l3.2,1L166.5,195.8z"/>
			<path class="st6" d="M185.3,193.9c0,0-4.6-7.3-14.1-4c-11.8,4.2-7.6,18.7-7.6,18.7s5.3,3.2,15.7,5.3
				C179.2,213.7,174.4,199.2,185.3,193.9z"/>
			<polygon class="st22" points="186.5,202.1 188.8,209 185.6,209 			"/>
			<path class="st20" d="M139.9,278.5l20.4-62.8l-1.9-7.5c-0.6-2.4,1.7-4.5,4-3.6c6,3.9,13.1,6.9,21.4,8.5l7.2,5.9l5.8,22.2l20.6,1
				v7.8l-29.8,4.2l-0.1,20.2c0,4-2.9,7.3-6.9,7.9C172.1,283.8,156.3,284.7,139.9,278.5z"/>
			<path class="st23" d="M217.6,250l-29.2-0.4l-9.6-17.7l-1.4,10.1L182,254c0,0,3.3,11.9-0.3,18c-2.4,4-18.1,3.6-18.1,3.6l-20.7-5.8
				l-3,8.5c16.6,6.3,32.2,5.3,40.9,4c3.9-0.6,6.8-4,6.9-7.9l0.1-20.2l0,0L217.6,250z"/>
			<path class="st6" d="M168.6,221.9c-0.1-0.6,5-7.9,15.3-8.8c0,0,5.5-0.3,5.5,4.5c0,0-10.4-1.7-15.8,10.4L168.6,221.9z"/>
			<path class="st5" d="M164.8,212.3c0,0,14.8,4.2,9.6,32.7c0,0-6.8,4.2-14.1-1.9L164.8,212.3z"/>
			<path class="st5" d="M160.3,243.1l14.1,1.9c0,0,2,24.2-6.5,33.7c0,0-8.8,5.8-33.2-1.6L160.3,243.1z"/>
			<g>
				<path class="st6" d="M144.3,267.6l-3.9,1.7l-5.9,7.8c24.5,7.3,33.2,1.6,33.2,1.6l-12.4-2.4L144.3,267.6z"/>
			</g>
			<polygon class="st6" points="131.5,269.3 120,342.5 122.3,342.5 136.4,270.3 			"/>
			<path class="st22" d="M135.3,235.8l-8.3,5l-2.3,27.9c0,0,8.5,15.8,30.8,7.5l6.3-26.6l-1.6-6.5L135.3,235.8z"/>
			<g>
				<path class="st21" d="M135.3,235.8l-8.3,5c15.7,11.8,34.8,8.8,34.8,8.8l-1.6-6.5L135.3,235.8z"/>
			</g>
			<path class="st22" d="M135.3,235.8c0,0,2.4-29.7,29.5-23.5c0,0,15.8,9.8-4.5,30.8C160.3,243.1,146.8,246.8,135.3,235.8z"/>
			<polygon class="st6" points="220.2,248.9 227.5,353.6 231.3,354.7 226.7,247.9 			"/>
			<polygon class="st22" points="217.6,243.1 225.9,242.8 229.4,248 227.5,250.9 225.2,248.4 217.6,250 			"/>
			<polygon class="st6" points="161.7,249.7 174.5,251.6 174.4,245 160.3,243.1 			"/>
			<path class="st6" d="M130.4,253c0,0,9.8,5.6,24.2,4.2l-0.7,2.2c0,0-10.9,1.6-23.5-4V253z"/>
			<path class="st6" d="M149.2,219.5c0,0,4.9,3.5,14.2,4.9l-0.9,1.4c0,0-9.2-1.6-15-4.7L149.2,219.5z"/>
			<path class="st21" d="M182.3,315.4c0,0,1.3,1.4,4.7,1.9l-6.3,38.9c0,0-4.3,0.7-6-2.3L182.3,315.4z"/>
		</g>
		<linearGradient id="SVGID_17_" gradientUnits="userSpaceOnUse" x1="11.1386" y1="330.6713" x2="93.3526" y2="330.6713">
			<stop  offset="1.240079e-03" style="stop-color:#897EC1"/>
			<stop  offset="1" style="stop-color:#E0DCEF"/>
		</linearGradient>
		<polygon class="st24" points="51.8,297.3 50.1,317 23.5,318.2 11.1,336.4 31.5,328.3 52.9,364 93.4,364 		"/>
		<linearGradient id="SVGID_18_" gradientUnits="userSpaceOnUse" x1="179.9263" y1="283.9697" x2="180.0713" y2="350.3657">
			<stop  offset="0" style="stop-color:#FFFFFF;stop-opacity:0"/>
			<stop  offset="1" style="stop-color:#FFFFFF"/>
		</linearGradient>
		<rect x="-6" y="275.4" class="st25" width="372" height="84.6"/>
		<linearGradient id="SVGID_19_" gradientUnits="userSpaceOnUse" x1="298.9357" y1="44.5339" x2="326.6325" y2="19.4089">
			<stop  offset="0" style="stop-color:#CFC7E5"/>
			<stop  offset="1" style="stop-color:#CFC7E5;stop-opacity:0"/>
		</linearGradient>
		<polygon class="st26" points="288.8,33.4 303.5,35.1 315.7,55 315.7,23.5 313.9,5.3 		"/>
		<linearGradient id="SVGID_20_" gradientUnits="userSpaceOnUse" x1="23.3605" y1="293.2567" x2="-5.3092" y2="317.548">
			<stop  offset="0" style="stop-color:#CFC7E5"/>
			<stop  offset="1" style="stop-color:#CFC7E5;stop-opacity:0"/>
		</linearGradient>
		<polygon class="st27" points="41.7,296 12.6,302.3 -3.2,328.3 -3.1,297.3 13.4,292.5 		"/>
	</g>
</g>
</svg>
