<?xml version="1.0" encoding="utf-8"?>
<!-- Generator: Adobe Illustrator 24.0.1, SVG Export Plug-In . SVG Version: 6.00 Build 0)  -->
<svg version="1.1" id="Layer_1" xmlns="http://www.w3.org/2000/svg" xmlns:xlink="http://www.w3.org/1999/xlink" x="0px" y="0px"
	 viewBox="0 0 1440 750" style="enable-background:new 0 0 1440 750;" xml:space="preserve">
<style type="text/css">
	.st0{fill:url(#SVGID_1_);}
	.st1{fill:url(#SVGID_2_);}
	.st2{fill:url(#SVGID_3_);}
	.st3{fill:#FFFFFF;}
	.st4{fill:url(#SVGID_4_);}
	.st5{fill:url(#SVGID_5_);}
	.st6{fill:url(#SVGID_6_);}
	.st7{fill:url(#SVGID_7_);}
	.st8{fill:url(#SVGID_8_);}
	.st9{fill:url(#SVGID_9_);}
	.st10{fill:url(#SVGID_10_);}
	.st11{fill:url(#SVGID_11_);}
	.st12{fill:url(#SVGID_12_);}
	.st13{fill:url(#SVGID_13_);}
	.st14{fill:url(#SVGID_14_);}
	.st15{fill:url(#SVGID_15_);}
	.st16{fill:url(#SVGID_16_);}
	.st17{fill:url(#SVGID_17_);}
	.st18{fill:url(#SVGID_18_);}
	.st19{fill:url(#SVGID_19_);}
	.st20{fill:url(#SVGID_20_);}
	.st21{fill:url(#SVGID_21_);}
	.st22{fill:url(#SVGID_22_);}
	.st23{fill:url(#SVGID_23_);}
	.st24{fill:url(#SVGID_24_);}
	.st25{fill:url(#SVGID_25_);}
	.st26{fill:url(#SVGID_26_);}
	.st27{fill:url(#SVGID_27_);}
	.st28{fill:url(#SVGID_28_);}
	.st29{fill:url(#SVGID_29_);}
	.st30{fill:url(#SVGID_30_);}
	.st31{fill:url(#SVGID_31_);}
	.st32{fill:url(#SVGID_32_);}
	.st33{fill:url(#SVGID_33_);}
	.st34{fill:url(#SVGID_34_);}
	.st35{fill:url(#SVGID_35_);}
	.st36{fill:url(#SVGID_36_);}
	.st37{fill:url(#SVGID_37_);}
	.st38{fill:#CC113E;}
	.st39{fill:url(#SVGID_38_);}
	.st40{fill:#ED931B;}
	.st41{fill:#0C1933;}
	.st42{fill:#B7093B;}
	.st43{fill:#425072;}
	.st44{fill:#EA1F46;}
	.st45{fill:#C44100;}
	.st46{fill:url(#SVGID_39_);}
	.st47{fill:url(#SVGID_40_);}
	.st48{fill:#131E3A;}
	.st49{fill:#D17214;}
	.st50{fill:url(#SVGID_41_);}
	.st51{fill:url(#SVGID_42_);}
	.st52{fill:url(#SVGID_43_);}
	.st53{fill:url(#SVGID_44_);}
	.st54{fill:url(#SVGID_45_);}
	.st55{fill:url(#SVGID_46_);}
	.st56{fill:url(#SVGID_47_);}
</style>
<g>
	<linearGradient id="SVGID_1_" gradientUnits="userSpaceOnUse" x1="1269.2083" y1="38.5786" x2="1305.1562" y2="86.5589">
		<stop  offset="1.240079e-03" style="stop-color:#FFFFFF"/>
		<stop  offset="0.9987" style="stop-color:#FFFFFF;stop-opacity:0"/>
	</linearGradient>
	<path class="st0" d="M1197.1,86.8l184.5-42.7l-65.1,7.2c0,0-15.1-26.4-28.1-6.2c0,0-68.4-31.8-73.3,18.9
		C1215.1,64,1182.6,66.8,1197.1,86.8z"/>
	<linearGradient id="SVGID_2_" gradientUnits="userSpaceOnUse" x1="1333.5383" y1="265.3098" x2="1312.8418" y2="156.7361">
		<stop  offset="1.240079e-03" style="stop-color:#897EC1"/>
		<stop  offset="1" style="stop-color:#E0DCEF"/>
	</linearGradient>
	<polygon class="st1" points="1440,149.6 1386.3,179.4 1342.7,166 1299.3,202.5 1245.5,477.7 1440,478.8 	"/>
	<linearGradient id="SVGID_3_" gradientUnits="userSpaceOnUse" x1="981.5715" y1="384.5486" x2="920.2907" y2="220.3924">
		<stop  offset="1.240079e-03" style="stop-color:#897EC1"/>
		<stop  offset="1" style="stop-color:#E0DCEF"/>
	</linearGradient>
	<polygon class="st2" points="1066,248.8 1028.8,206.7 992.4,269.3 958.7,248.8 863.7,430.8 1022.6,445.7 	"/>
	<polygon class="st3" points="216.8,687.2 325.9,630.2 464.9,646.7 595.4,594.5 668.1,600.4 761,550.8 842.9,427.6 899.8,401 
		919.6,406.8 990.9,287 1028.1,273.7 1066.2,184.4 1093.5,168.7 1115,58.7 1149.7,28.9 1193.5,49.6 1209.2,102.5 1256.4,121.5 
		1281.2,181.1 1332.5,204.3 1340.7,240.6 1381.3,211.7 1440,222.4 1440,750.1 0,750.1 0,716 	"/>
	<polygon class="st3" points="1340.6,239.7 1351.4,294.3 1385.3,300.1 1440,333 1440,221.5 1381.1,210.8 	"/>
	<g>
		<linearGradient id="SVGID_4_" gradientUnits="userSpaceOnUse" x1="1190.1957" y1="115.9454" x2="1142.0231" y2="15.3984">
			<stop  offset="0" style="stop-color:#CFC7E5"/>
			<stop  offset="0.9987" style="stop-color:#CFC7E5;stop-opacity:0"/>
		</linearGradient>
		<polygon class="st4" points="1149.7,28.9 1136.3,76.8 1165.3,131.4 1227.3,167.8 1209.1,101.6 1193.5,49.6 		"/>
		<linearGradient id="SVGID_5_" gradientUnits="userSpaceOnUse" x1="1259.5299" y1="166.6656" x2="1244.4584" y2="113.692">
			<stop  offset="0" style="stop-color:#CFC7E5"/>
			<stop  offset="0.9987" style="stop-color:#CFC7E5;stop-opacity:0"/>
		</linearGradient>
		<polygon class="st5" points="1244,116.6 1236.4,132.2 1238.9,156.2 1280.2,209.1 1281.1,180.2 1256.4,121.5 		"/>
		<linearGradient id="SVGID_6_" gradientUnits="userSpaceOnUse" x1="1078.7214" y1="184.8868" x2="1093.9834" y2="216.9505">
			<stop  offset="0" style="stop-color:#CFC7E5"/>
			<stop  offset="0.9987" style="stop-color:#CFC7E5;stop-opacity:0"/>
		</linearGradient>
		<polygon class="st6" points="1093.3,167.8 1080.9,237.3 1066,183.5 		"/>
		<linearGradient id="SVGID_7_" gradientUnits="userSpaceOnUse" x1="1144.9647" y1="202.0022" x2="1138.2017" y2="150.0275">
			<stop  offset="0" style="stop-color:#CFC7E5"/>
			<stop  offset="0.9987" style="stop-color:#CFC7E5;stop-opacity:0"/>
		</linearGradient>
		<polygon class="st7" points="1150.4,149.6 1133,183.5 1132.2,227.3 1162,209.1 1152,186 		"/>
		<linearGradient id="SVGID_8_" gradientUnits="userSpaceOnUse" x1="1011.3352" y1="297.7872" x2="1043.8105" y2="399.3368">
			<stop  offset="0" style="stop-color:#CFC7E5"/>
			<stop  offset="0.9987" style="stop-color:#CFC7E5;stop-opacity:0"/>
		</linearGradient>
		<polygon class="st8" points="1055.3,263.7 1012.3,324.1 1016.4,350.6 992.4,410.1 1042.9,363 1038.7,345.6 		"/>
		<linearGradient id="SVGID_9_" gradientUnits="userSpaceOnUse" x1="1140.915" y1="350.3699" x2="1170.2948" y2="297.237">
			<stop  offset="0" style="stop-color:#CFC7E5"/>
			<stop  offset="0.9987" style="stop-color:#CFC7E5;stop-opacity:0"/>
		</linearGradient>
		<polygon class="st9" points="1147.9,294.3 1157.8,328.2 1147.9,349.7 1143.8,388.6 1174.4,322.4 		"/>
		<linearGradient id="SVGID_10_" gradientUnits="userSpaceOnUse" x1="1353.824" y1="459.7914" x2="1448.2041" y2="504.2209">
			<stop  offset="0" style="stop-color:#CFC7E5"/>
			<stop  offset="0.9987" style="stop-color:#CFC7E5;stop-opacity:0"/>
		</linearGradient>
		<polygon class="st10" points="1440,478.8 1440,514.7 1385.3,495.5 1343.8,467.9 1311.3,461.4 1345,456.8 1390.2,479.4 		"/>
		<linearGradient id="SVGID_11_" gradientUnits="userSpaceOnUse" x1="1270.6621" y1="436.6298" x2="1453.6399" y2="350.3764">
			<stop  offset="0" style="stop-color:#CFC7E5"/>
			<stop  offset="0.9987" style="stop-color:#CFC7E5;stop-opacity:0"/>
		</linearGradient>
		<polygon class="st11" points="1440,368.3 1440,344.5 1372,376.2 1310,382 1257.1,382 1235.3,402.6 1200.6,406.6 1248.3,414.6 
			1275.5,392.5 1304.2,413.6 1353.8,425 1385.3,445.7 1361.3,420 1326.5,403.5 1374,407.5 		"/>
		<linearGradient id="SVGID_12_" gradientUnits="userSpaceOnUse" x1="978.7625" y1="521.4836" x2="904.9775" y2="382.5412">
			<stop  offset="0" style="stop-color:#CFC7E5"/>
			<stop  offset="0.9987" style="stop-color:#CFC7E5;stop-opacity:0"/>
		</linearGradient>
		<polygon class="st12" points="1010.6,508.5 973.4,478.8 951.1,432.4 919.6,406.8 899.8,401 917.7,414.9 946.4,454 941.1,477.9 
			960.2,522.6 952.7,552.4 1005.7,566.4 1028.8,535.8 		"/>
		<linearGradient id="SVGID_13_" gradientUnits="userSpaceOnUse" x1="776.5236" y1="633.7327" x2="564.8478" y2="566.7614">
			<stop  offset="0" style="stop-color:#CFC7E5"/>
			<stop  offset="0.9987" style="stop-color:#CFC7E5;stop-opacity:0"/>
		</linearGradient>
		<polygon class="st13" points="798.4,626 742.9,605 667.4,600.3 595.4,594.5 694.7,624.5 773.7,631.6 786,652.3 825.4,664.9 
			795.9,644.1 		"/>
		<linearGradient id="SVGID_14_" gradientUnits="userSpaceOnUse" x1="641.6711" y1="650.1543" x2="616.7898" y2="577.0689">
			<stop  offset="0" style="stop-color:#CFC7E5"/>
			<stop  offset="0.9987" style="stop-color:#CFC7E5;stop-opacity:0"/>
		</linearGradient>
		<polygon class="st14" points="613.8,599.1 638.5,626 624.4,659.9 691.4,688 609.6,664.1 621.7,627.2 595.4,594.5 		"/>
		<linearGradient id="SVGID_15_" gradientUnits="userSpaceOnUse" x1="858.6631" y1="471.7419" x2="919.0192" y2="394.8955">
			<stop  offset="0" style="stop-color:#CFC7E5"/>
			<stop  offset="0.9987" style="stop-color:#CFC7E5;stop-opacity:0"/>
		</linearGradient>
		<polygon class="st15" points="899.8,401 878.6,446.6 825.4,501.9 882.4,451.5 917.7,414.9 		"/>
		<linearGradient id="SVGID_16_" gradientUnits="userSpaceOnUse" x1="880.138" y1="587.5201" x2="886.8762" y2="521.234">
			<stop  offset="0" style="stop-color:#CFC7E5"/>
			<stop  offset="0.9987" style="stop-color:#CFC7E5;stop-opacity:0"/>
		</linearGradient>
		<polygon class="st16" points="858.4,520.9 884.9,548.2 871.7,581.3 910.4,596.9 848.5,591.7 873.3,551.5 		"/>
		<linearGradient id="SVGID_17_" gradientUnits="userSpaceOnUse" x1="995.903" y1="500.3415" x2="1212.9939" y2="500.3415">
			<stop  offset="0" style="stop-color:#CFC7E5"/>
			<stop  offset="0.9987" style="stop-color:#CFC7E5;stop-opacity:0"/>
		</linearGradient>
		<polygon class="st17" points="974.6,483.8 1015.6,476.4 1169.2,504.4 1206.5,524.2 1165.1,510.2 1042,495.5 989.1,511.8 		"/>
		<linearGradient id="SVGID_18_" gradientUnits="userSpaceOnUse" x1="1055.74" y1="660.4847" x2="1245.3055" y2="605.371">
			<stop  offset="0" style="stop-color:#CFC7E5"/>
			<stop  offset="0.9987" style="stop-color:#CFC7E5;stop-opacity:0"/>
		</linearGradient>
		<polygon class="st18" points="1022,668.1 1084.8,659.1 1157.2,611.6 1239,615.6 1158.5,626.5 1084.7,671.5 		"/>
		<linearGradient id="SVGID_19_" gradientUnits="userSpaceOnUse" x1="1125.426" y1="360.0858" x2="1115.7189" y2="296.9823">
			<stop  offset="0" style="stop-color:#CFC7E5"/>
			<stop  offset="0.9987" style="stop-color:#CFC7E5;stop-opacity:0"/>
		</linearGradient>
		<polygon class="st19" points="1137,298.5 1120.9,314.8 1118.4,333 1102.5,347.8 1123,368.3 1119.3,351.6 1129.7,334.4 
			1127.7,317.3 		"/>
		<linearGradient id="SVGID_20_" gradientUnits="userSpaceOnUse" x1="1393.106" y1="558.9785" x2="1451.4259" y2="588.7761">
			<stop  offset="0" style="stop-color:#CFC7E5"/>
			<stop  offset="0.9987" style="stop-color:#CFC7E5;stop-opacity:0"/>
		</linearGradient>
		<polygon class="st20" points="1370.6,543.5 1395.3,562.9 1440,562.9 1440,601.9 1390.2,577.6 		"/>
		<linearGradient id="SVGID_21_" gradientUnits="userSpaceOnUse" x1="413.2393" y1="646.3448" x2="377.779" y2="669.9686">
			<stop  offset="0" style="stop-color:#CFC7E5"/>
			<stop  offset="0.9987" style="stop-color:#CFC7E5;stop-opacity:0"/>
		</linearGradient>
		<polygon class="st21" points="374.6,688.7 399.4,638.9 435.5,643.2 		"/>
	</g>
	<g>
		<linearGradient id="SVGID_22_" gradientUnits="userSpaceOnUse" x1="440.213" y1="649.8094" x2="382.3745" y2="678.6932">
			<stop  offset="1.240079e-03" style="stop-color:#897EC1"/>
			<stop  offset="1" style="stop-color:#E0DCEF"/>
		</linearGradient>
		<polygon class="st22" points="464.8,646.5 374.6,688.7 435.5,643.2 		"/>
		<linearGradient id="SVGID_23_" gradientUnits="userSpaceOnUse" x1="1181.8552" y1="117.9209" x2="1227.6449" y2="194.4493">
			<stop  offset="1.240079e-03" style="stop-color:#897EC1"/>
			<stop  offset="1" style="stop-color:#E0DCEF"/>
		</linearGradient>
		<polygon class="st23" points="1233.5,188.5 1219.4,138.8 1174.4,120.3 1136.3,76.8 1165.3,131.4 1208.3,156.6 1222.9,184.4 
			1222.3,227.3 		"/>
		<linearGradient id="SVGID_24_" gradientUnits="userSpaceOnUse" x1="1268.6641" y1="186.1164" x2="1292.1345" y2="234.955">
			<stop  offset="1.240079e-03" style="stop-color:#897EC1"/>
			<stop  offset="1" style="stop-color:#E0DCEF"/>
		</linearGradient>
		<polygon class="st24" points="1280.7,191.9 1281.1,180.2 1272,182.7 1238.9,156.2 1280.2,209.1 1292.4,225.4 1295.1,248.8 
			1302,223.4 		"/>
		<linearGradient id="SVGID_25_" gradientUnits="userSpaceOnUse" x1="1376.8265" y1="311.8337" x2="1401.067" y2="266.0817">
			<stop  offset="1.240079e-03" style="stop-color:#897EC1"/>
			<stop  offset="1" style="stop-color:#E0DCEF"/>
		</linearGradient>
		<polygon class="st25" points="1347.1,235.1 1371,275.3 1411.3,263.7 1440,275.3 1440,333 1385.3,300.1 1351.4,294.3 1340.6,239.7 
					"/>
		<linearGradient id="SVGID_26_" gradientUnits="userSpaceOnUse" x1="1156.1022" y1="202.8251" x2="1094.5105" y2="268.6499">
			<stop  offset="1.240079e-03" style="stop-color:#897EC1"/>
			<stop  offset="1" style="stop-color:#E0DCEF"/>
		</linearGradient>
		<polygon class="st26" points="1162,209.1 1152,186 1143.8,202.5 1144.9,212.4 1132.2,227.3 1102.4,244.7 1096.6,262.9 
			1071.8,275.3 1117.4,265.4 1115.9,249 		"/>
		<linearGradient id="SVGID_27_" gradientUnits="userSpaceOnUse" x1="1249.2859" y1="332.683" x2="1205.889" y2="283.7811">
			<stop  offset="1.240079e-03" style="stop-color:#897EC1"/>
			<stop  offset="1" style="stop-color:#E0DCEF"/>
		</linearGradient>
		<polygon class="st27" points="1193.4,275.3 1209.9,311.7 1244.8,325 1257.1,351.3 1248.3,308.2 1218.2,301.8 		"/>
		<linearGradient id="SVGID_28_" gradientUnits="userSpaceOnUse" x1="1089.6664" y1="171.4151" x2="1077.2319" y2="217.9068">
			<stop  offset="1.240079e-03" style="stop-color:#897EC1"/>
			<stop  offset="1" style="stop-color:#E0DCEF"/>
		</linearGradient>
		<polygon class="st28" points="1093.3,167.8 1079.7,175.6 1083.5,194.3 1080.9,237.3 		"/>
		<linearGradient id="SVGID_29_" gradientUnits="userSpaceOnUse" x1="981.5855" y1="283.9409" x2="1018.736" y2="383.8627">
			<stop  offset="1.240079e-03" style="stop-color:#897EC1"/>
			<stop  offset="1" style="stop-color:#E0DCEF"/>
		</linearGradient>
		<polygon class="st29" points="1055.3,263.7 1012.3,324.1 1016.4,350.6 992.4,410.1 948.7,413.8 980.7,395.9 992.4,355.9 
			990.9,287 		"/>
		<linearGradient id="SVGID_30_" gradientUnits="userSpaceOnUse" x1="1139.3014" y1="382.2934" x2="1062.3218" y2="410.184">
			<stop  offset="1.240079e-03" style="stop-color:#897EC1"/>
			<stop  offset="1" style="stop-color:#E0DCEF"/>
		</linearGradient>
		<polygon class="st30" points="1147.9,349.7 1130.8,385.1 1066,407.3 1103.6,403.1 1143.8,410.1 1143.8,388.6 		"/>
		<linearGradient id="SVGID_31_" gradientUnits="userSpaceOnUse" x1="1360.0859" y1="311.687" x2="1263.0465" y2="255.4268">
			<stop  offset="1.240079e-03" style="stop-color:#897EC1"/>
			<stop  offset="1" style="stop-color:#E0DCEF"/>
		</linearGradient>
		<polygon class="st31" points="1351.4,294.3 1318.5,296.8 1278.6,260.1 1315,311.7 1385.3,300.1 		"/>
		<linearGradient id="SVGID_32_" gradientUnits="userSpaceOnUse" x1="1345.031" y1="402.3133" x2="1406.8956" y2="445.6736">
			<stop  offset="1.240079e-03" style="stop-color:#897EC1"/>
			<stop  offset="1" style="stop-color:#E0DCEF"/>
		</linearGradient>
		<polygon class="st32" points="1326.5,403.5 1374,407.5 1393.2,439.8 1411.4,458.1 1385.3,445.7 1361.3,420 		"/>
		<linearGradient id="SVGID_33_" gradientUnits="userSpaceOnUse" x1="977.2592" y1="511.2262" x2="1001.4321" y2="570.035">
			<stop  offset="1.240079e-03" style="stop-color:#897EC1"/>
			<stop  offset="1" style="stop-color:#E0DCEF"/>
		</linearGradient>
		<polygon class="st33" points="973.4,478.8 1010.6,508.5 1028.8,535.8 1005.7,566.4 952.7,552.4 990.8,531.5 989.1,511.8 		"/>
		<linearGradient id="SVGID_34_" gradientUnits="userSpaceOnUse" x1="866.3692" y1="562.4374" x2="885.0843" y2="399.7828">
			<stop  offset="1.240079e-03" style="stop-color:#897EC1"/>
			<stop  offset="1" style="stop-color:#E0DCEF"/>
		</linearGradient>
		<polygon class="st34" points="917.7,414.9 896,466 868.3,504.7 911.6,533.5 910.4,596.9 871.7,581.3 884.9,548.2 858.4,520.9 
			825.4,501.9 882.4,451.5 		"/>
		<linearGradient id="SVGID_35_" gradientUnits="userSpaceOnUse" x1="671.9581" y1="611.887" x2="715.7072" y2="712.3436">
			<stop  offset="1.240079e-03" style="stop-color:#897EC1"/>
			<stop  offset="1" style="stop-color:#E0DCEF"/>
		</linearGradient>
		<polygon class="st35" points="638.5,626 683.2,653.3 733.8,652.3 772.9,686.5 732.2,672.7 691.4,688 624.4,659.9 		"/>
	</g>
	<linearGradient id="SVGID_36_" gradientUnits="userSpaceOnUse" x1="1199.7644" y1="713.0839" x2="1440.0131" y2="713.0839">
		<stop  offset="0" style="stop-color:#CFC7E5"/>
		<stop  offset="0.9987" style="stop-color:#CFC7E5;stop-opacity:0"/>
	</linearGradient>
	<polygon class="st36" points="1203.1,693.2 1440,729.8 1440,733 1199.8,694.9 	"/>
	<linearGradient id="SVGID_37_" gradientUnits="userSpaceOnUse" x1="1297.9694" y1="696.0912" x2="1437.9495" y2="712.0746">
		<stop  offset="0" style="stop-color:#CFC7E5"/>
		<stop  offset="0.9987" style="stop-color:#CFC7E5;stop-opacity:0"/>
	</linearGradient>
	<polygon class="st37" points="1271.2,700 1376.2,717.8 1440,725.8 1440,698.8 1382.4,694.5 1290.6,686.1 1302.6,700.5 1389.6,708 
		1264.5,695.6 	"/>
	<polygon class="st38" points="1272.3,683.1 1272.3,683.1 1272.5,684.4 	"/>
	<linearGradient id="SVGID_38_" gradientUnits="userSpaceOnUse" x1="1128.3098" y1="559.3629" x2="1160.8268" y2="594.8445">
		<stop  offset="0" style="stop-color:#CFC7E5"/>
		<stop  offset="0.9987" style="stop-color:#CFC7E5;stop-opacity:0"/>
	</linearGradient>
	<path class="st39" d="M1154.3,551.3h-2.2l14.8,23.8l-2.5-0.1h-11.4l0.2-4.1h-6.5l-14.6-5.4l1.6-5l-6.9-3.6l3.4-1.5h-11l6.7,5.1
		l-1.7,4.9l-6.2,0.4l-3-4.8l-10.5-4l2-1.5l-11,0.2l13.7,6.4l2.4,5.8l-20.8-14.6h-1.1l31.3,23.4l4.9,2.1l5.6-0.2l1.6,3.4l7.3,0.5
		c0,0-1.4,4.1,9.6,3.8c11-0.3,1.5-4.5,1.5-4.5l2.6-0.7l3.6-4l9.8-1.2l1.7-0.8L1154.3,551.3z"/>
	<g>
		<polygon class="st40" points="1100.8,547.3 1098.5,551.6 1095.3,555.8 1106.3,555.6 1103.1,553.9 1105.1,549.6 		"/>
		<polygon class="st40" points="1122.2,547 1120.7,551.6 1119,555.4 1130.1,555.4 1126.3,553.2 1126.9,547 		"/>
		<path class="st41" d="M1115.8,523.7l-0.7,13.5l-10,13.3c0,0-3.9,1-5.2-2.2l7.2-14.2c0,0-4-10.4-3-22.6L1115.8,523.7z"/>
		<path class="st42" d="M1099.9,548.2c1.3,3.3,5.2,2.2,5.2,2.2l8.8-11.7c-4-0.2-6.6-1.3-7.3-3.6L1099.9,548.2z"/>
		<path class="st43" d="M1121.3,512.8l14.2,14.5l-8.7,22.6c0,0-4.3,1.3-5.5-0.7l3.8-18.6c0,0-21.9-5.5-20.9-19.2L1121.3,512.8z"/>
		<path class="st41" d="M1105.5,505.8c0,0-0.6,11,16.3,11.5l10,6.2l-11.4-11.9L1105.5,505.8z"/>
		<path class="st44" d="M1125.1,530.6l-3.8,18.6c1.3,2,5.5,0.7,5.5,0.7l7.7-20.3C1130.6,531.6,1127,532.2,1125.1,530.6z"/>
		<path class="st41" d="M1117.4,472.1c0,0-5.2,2.7-9.9,1l0.3,1.2c0,0,1.8,0.9,4.5,0.1c0,0-1.6,1-3.5,0.8l0.6,1.1
			c0,0,3.3,0.1,6.4-2.4L1117.4,472.1z"/>
		<circle class="st44" cx="1123.3" cy="474" r="4"/>
		<polygon class="st44" points="1127.3,474.2 1126.8,481.6 1122,480.4 1117.4,474.2 		"/>
		<path class="st41" d="M1117.4,472.6l-0.1-3.7l-1.3-1.1c-0.8-0.7-2-0.9-2.9-0.6l-0.3,0.1c-1,0.4-1.8,1.3-1.9,2.5l0,0
			c-0.1,1.4,0.7,2.7,2,3.1l1.5,0.5L1117.4,472.6z"/>
		<path class="st41" d="M1126.6,471.7c0,0-2.2-3.6-6.8-2c-5.7,2-3.7,9.1-3.7,9.1s2.6,1.5,7.6,2.6
			C1123.6,481.3,1121.3,474.2,1126.6,471.7z"/>
		<polygon class="st44" points="1127.1,475.6 1128.2,479 1126.7,479 		"/>
		<path class="st40" d="M1104.5,512.7l9.9-30.4l-0.9-3.6c-0.3-1.2,0.8-2.2,2-1.7c2.9,1.9,6.4,3.3,10.4,4.1l3.5,2.9l2.8,10.7l10,0.5
			v3.8l-14.4,2l-0.1,9.8c0,2-1.4,3.6-3.3,3.8C1120.2,515.3,1112.5,515.7,1104.5,512.7z"/>
		<path class="st45" d="M1142.2,498.9l-14.2-0.2l-4.7-8.6l-0.7,4.9l2.3,5.9c0,0,1.6,5.8-0.1,8.7c-1.2,2-8.8,1.7-8.8,1.7l-10-2.8
			l-1.5,4.1c8,3.1,15.6,2.6,19.8,2c1.9-0.3,3.3-2,3.3-3.8l0.1-9.8l0,0L1142.2,498.9z"/>
		<path class="st41" d="M1118.5,485.3c-0.1-0.3,2.4-3.8,7.4-4.3c0,0,2.7-0.1,2.7,2.2c0,0-5-0.8-7.7,5L1118.5,485.3z"/>
		<path class="st43" d="M1116.6,480.6c0,0,7.2,2,4.7,15.8c0,0-3.3,2-6.8-0.9L1116.6,480.6z"/>
		<path class="st43" d="M1114.4,495.5l6.8,0.9c0,0,1,11.7-3.1,16.3c0,0-4.3,2.8-16.1-0.8L1114.4,495.5z"/>
		<g>
			<path class="st41" d="M1106.7,507.4l-1.9,0.8l-2.9,3.8c11.9,3.6,16.1,0.8,16.1,0.8l-6-1.2L1106.7,507.4z"/>
		</g>
		<polygon class="st41" points="1100.5,508.2 1089.5,553.4 1090.6,553.4 1102.8,508.7 		"/>
		<path class="st44" d="M1102.3,492l-4,2.4l-1.1,13.5c0,0,4.1,7.7,14.9,3.6l3.1-12.9l-0.8-3.1L1102.3,492z"/>
		<g>
			<path class="st42" d="M1102.3,492l-4,2.4c7.6,5.7,16.9,4.3,16.9,4.3l-0.8-3.1L1102.3,492z"/>
		</g>
		<path class="st44" d="M1102.3,492c0,0,1.2-14.4,14.3-11.4c0,0,7.7,4.7-2.2,14.9C1114.4,495.5,1107.9,497.3,1102.3,492z"/>
		<polygon class="st41" points="1143.5,498.3 1147,549.1 1148.8,549.6 1146.6,497.8 		"/>
		<polygon class="st44" points="1142.2,495.5 1146.3,495.4 1147.9,497.9 1147,499.3 1145.9,498.1 1142.2,498.9 		"/>
		<polygon class="st41" points="1115.1,498.7 1121.3,499.6 1121.3,496.4 1114.4,495.5 		"/>
		<path class="st41" d="M1099.9,500.3c0,0,4.7,2.7,11.7,2l-0.3,1c0,0-5.3,0.8-11.4-2V500.3z"/>
		<path class="st41" d="M1109.1,484.1c0,0,2.4,1.7,6.9,2.4l-0.4,0.7c0,0-4.5-0.8-7.3-2.3L1109.1,484.1z"/>
		<path class="st42" d="M1125.1,530.6c0,0,0.6,0.7,2.3,0.9l-3.1,18.8c0,0-2.1,0.3-2.9-1.1L1125.1,530.6z"/>
	</g>
	<linearGradient id="SVGID_39_" gradientUnits="userSpaceOnUse" x1="886.5007" y1="715.2274" x2="1087.1074" y2="563.3696">
		<stop  offset="0" style="stop-color:#CFC7E5;stop-opacity:0"/>
		<stop  offset="1" style="stop-color:#CFC7E5"/>
	</linearGradient>
	<polygon class="st46" points="1088.8,558.8 1064.6,577.4 985,594.5 1032.1,613.4 909.8,640.1 954.3,652.8 803.9,750.2 917.5,749.3 
		1000.1,648.8 962.9,639.6 1067.2,616.2 1021,597.7 1080.7,584.9 1108.5,559.6 	"/>
	<polygon class="st3" points="848.5,749.9 974,652.8 934.9,640.1 1046.6,614.6 1000.5,595.3 1070.8,580.2 1097.4,558.7 
		1100.1,558.8 1072.6,581.6 1005.6,595.9 1052.7,614.9 943.2,640.7 981.7,651.4 881.4,750 	"/>
	<linearGradient id="SVGID_40_" gradientUnits="userSpaceOnUse" x1="1049.2189" y1="556.9106" x2="1173.8269" y2="556.9106">
		<stop  offset="1.240079e-03" style="stop-color:#897EC1"/>
		<stop  offset="1" style="stop-color:#E0DCEF"/>
	</linearGradient>
	<polygon class="st47" points="1037.9,568.1 1068.5,553.2 1136.3,553.2 1154.5,545.7 1181.8,552.4 1155.3,551.5 1136.3,560.6 
		1070.2,558.2 	"/>
	<g>
		<polygon class="st43" points="1262.4,585.7 1246,625.4 1272.6,672.4 1284.1,667.1 1267.7,627.3 1289.2,611.2 1296.1,589 		"/>
		<polyline class="st43" points="1286.7,613 1289.2,611.2 1296.1,589 1287.7,586.9 1315.5,590.5 1314.7,613 1308.8,639.1 
			1310,685.2 1297.5,682.7 1291.2,637.5 1286.7,613 		"/>
		<path class="st41" d="M1283.2,608.7l-19.6,13.8c-7.4-0.8-10.4,2.8-10.4,2.8c4.5-0.8,8.5,1.2,8.5,1.2l7.8,15.4h4l-6-14.5l19-14.2
			l0,0l4.6,24.5l0.2-25.6l0.8-17.4L1283.2,608.7z"/>
		<path class="st40" d="M1272.6,672.4l11.5-5.3l-12.6-30.6c-4.8-5.8-14-1.7-16.9,4.2L1272.6,672.4z"/>
		<g>
			<path class="st45" d="M1282.4,663.1l-10.9-26.7c-1.6-1.9-3.7-2.8-5.9-2.8l12.6,29.3L1282.4,663.1z"/>
		</g>
		<path class="st44" d="M1287.7,678.7l-0.6-4.6l-5.6-13.3c0,0-2-1.5-4.7-1.1c-2.3,0.3-5.1,1.9-7.5,6.9l1.8,12.5l-2.8,9.1l-0.6,0.1
			c-2.8,0.6-4.9,2.9-5.1,5.7l-0.1,1.2l8.1,4.5l9.5-1.8l2-9.7l4.7-6.1c0.3-0.4,0.5-0.8,0.6-1.2
			C1287.7,680.3,1287.8,679.6,1287.7,678.7z"/>
		<path class="st42" d="M1276.9,659.8l3.7,13.2l-4.8,4.8l0.6,9.1l5.9,1.4l5.4-11l-0.4-3.1l-5.6-13.3
			C1281.6,660.9,1279.3,659,1276.9,659.8z"/>
		<path class="st48" d="M1280.2,698l-9.5,1.8l-8.1-4.5l8.2,0.5l5.5-8.9l0.9-4c0.8-3.4,3.3-6.3,6.6-7.4l0,0c1.6-0.6,3.4,0.3,3.8,1.8
			l0.2,1.6c0.2,1.2-0.2,2.3-0.9,3.3l-4.8,6.2L1280.2,698z"/>
		<path class="st41" d="M1306.2,590.1l2.7,22.8l-6.3,22.6c0,0-1.7-0.9-6.5,0.5c0,0,7.8,2,9,5.8l0.9,21.1h3.4l-0.6-23.8l6-26
			l0.8-22.5L1306.2,590.1z"/>
		<path class="st40" d="M1297.5,682.7l12.5,2.4l-1.1-40c-1.1-6.3-11.7-5.2-16.8-1.6L1297.5,682.7z"/>
		<g>
			<path class="st45" d="M1309.7,673.5l-0.7-28.3c-0.4-2.2-2-3.6-4.1-4.1l1,32.5H1309.7z"/>
		</g>
		<path class="st44" d="M1310.3,688l-0.6-17.5c-7.3-5.1-13.6,2.4-13.6,2.4l1.4,9.1l-3.1,0.3c-1.9,0.2-3.4,1.8-3.3,3.9v0.1
			c0,0.5,0.2,0.8,0.5,1.2l4.5,5.2l3.8,7.3c1.9,0.6,3.5,0.8,4.8,0.8c5.1,0,6.3-3.7,6.3-3.7l0.3-5.3L1310.3,688z"/>
		<path class="st42" d="M1298.2,686.6l-0.8-4.4l0.2,1.2l-0.2-1.2l-3.1,0.3c-0.9,0.1-1.7,0.6-2.4,1.2
			C1294.5,687.6,1298.2,686.6,1298.2,686.6z"/>
		<path class="st42" d="M1310.9,697.1l0.3-5.3l-0.9-3.8l-0.6-17.5c-1.4-0.9-2.7-1.5-4-1.7l0.2,18.8c0,0,0.1,11-7.8,9l0,0l1.7,3.4
			C1309.1,703,1310.9,697.1,1310.9,697.1z"/>
		<path class="st48" d="M1291,686.4c0,0.5,0.2,0.8,0.5,1.2l4.5,5.2l3.8,7.3c1.9,0.6,3.5,0.8,4.8,0.8l-7.1-8.5L1291,686.4z"/>
		<polygon class="st41" points="1218.2,549.2 1199.8,694.9 1203.1,693.2 1227,550.3 		"/>
		<polygon class="st40" points="1235.3,543.4 1222.2,541.8 1214.4,549.9 1218,553.4 1220,550.8 1227.5,553.4 1236.3,553.4 		"/>
		<polygon class="st45" points="1218,553.4 1217.2,549.8 1220.2,547.6 1227,550.3 1233,549.8 1234.6,553.4 1227.5,553.4 1220,550.8 
					"/>
		<path class="st40" d="M1280.6,482.5v6.1l0.6,0.9c0.5,0.8,0.5,1.8,0.1,2.7l-0.5,1.1l1.1,9.3l3.9,3.2l16.6,6.2l3.2-15l-5.9-10.1
			L1280.6,482.5z"/>
		<g>
			<path class="st45" d="M1302.3,512l0.6-2.6l-7.3-15.4l-4.3,0.5c0.6,10.5-9.5,8.1-9.5,8.1l3.9,3.2L1302.3,512z"/>
		</g>
		<path class="st41" d="M1280.2,476.8l0.3,5.7l3.8,3l0.1,4l2.1,1.7l0.4,4.6l1.4,1l0.4-4.3l2.5,1.9l2.6,8.1c0,0,2.7,3.6,8.5,2
			l4.1-7.5c3-5.4,2-12.3-2.5-16.6l-1.7-1.7c-2.3-2.2-5.4-3.3-8.6-3L1280.2,476.8z"/>
		<path class="st44" d="M1277.1,505.4c-9.7,12.7-17.1,24.1-20.9,36.4h-21.7c-6.7,6.7-0.8,12.5-0.8,12.5l25,9.2l-3.1,13.1
			c-1.2,5,1.7,10,6.5,11.6c19.7,6.3,46.6,1.3,46.6,1.3l-0.3-87.1l-5-5.1c-5.8,1.6-11.7,5-17.7,9.3L1277.1,505.4z"/>
		<g>
			<path class="st42" d="M1308.7,589.3l-1.3-82.5l-2.8-3.3c0,0-7.2-1.5-12.5,4.4l-10.1,1c0,0,6,4.8,7.3,10c0,0-6.2,12.7-1.9,21.1
				c0,0-14.4,13.5-11.5,27.4c0,0,4.6,7.2-3.5,8h-14.1c0,0,10.7,11.6,25.6,15.6C1297.4,591.4,1308.7,589.3,1308.7,589.3z"/>
		</g>
		<polygon class="st42" points="1233.6,554.3 1258.7,563.5 1264.7,565.1 1282.1,534.4 1262.9,557.9 		"/>
		<path class="st43" d="M1320.9,485.2c0,0-21.9-5.4-20,23.7l5.1,1.5L1320.9,485.2z"/>
		<path class="st43" d="M1300.9,509c0,0-13.7,10.2-8.4,32.2l11.2,4.6c0,0,11-17,2.3-35.3L1300.9,509z"/>
		<path class="st41" d="M1257.9,566.7c0,0-6.9,2.3-2.5,7.6c4.4,5.4,30.2,10.1,30.2,10.1l-0.6-8.5
			C1285,575.9,1268.5,574.2,1257.9,566.7z"/>
		<path class="st43" d="M1292.5,541.2c0,0-12.8,16.5-6.9,43.3c0,0,4.5,10.3,18.8,8c0,0,14.4-28.6-0.6-46.7L1292.5,541.2z"/>
		<path class="st41" d="M1273.5,510.5c0,0,12.7-2.5,21.2,6.3l6.1-7.7c0,0-6.5-5.6-23.8-4.9C1277,504.2,1270,504,1273.5,510.5z"/>
		<polygon class="st41" points="1325.6,590.5 1348.7,687.5 1351.2,686.2 1333.3,586.9 		"/>
		<path class="st40" d="M1338.9,551.4c-3.3-5.1-7-7.4-7-7.4l-28.1,1.7c1.8,3,3.2,6.2,4,9.3c5.3,18.1-3.5,37.4-3.5,37.4
			c22.8,6.8,37.3-6.3,37.3-6.3C1346.5,568.9,1343,557.9,1338.9,551.4z"/>
		<path class="st45" d="M1338.9,551.4c-3.3-5.1-7-7.4-7-7.4l-28.1,1.7c1.8,3,3.2,6.2,4,9.3C1314.8,556.7,1325.9,557.5,1338.9,551.4z
			"/>
		<path class="st40" d="M1327,509.2c0,0,15.5-0.3,11.7,34c0,0-18.9,11-34.9,2.6c0,0,8.1-22.3,2.3-35.3L1327,509.2z"/>
		<g>
			<path class="st45" d="M1334.7,513.9c-3.5-4.8-7.7-4.8-7.7-4.8l-21,1.3c0.9,2,1.5,4.3,1.7,6.7
				C1324.7,518.5,1331.8,515.9,1334.7,513.9z"/>
		</g>
		<path class="st40" d="M1306,510.5c0,0,16,4.9,27.9-2.8c0,0,3.3-18-13-22.3C1320.9,485.2,1306.9,486.8,1306,510.5z"/>
		<path class="st41" d="M1296.7,514.2c0,0,5.5,3.2,11,3c0,0,0-3-1.7-6.7c0,0-3.5,0.1-5.1-1.5C1300.9,509,1297.7,512.6,1296.7,514.2z
			"/>
		<path class="st41" d="M1303.7,545.7c0,0-5.1-0.6-11.2-4.6c0,0-2.4,3.4-3.8,6.7c0,0,8.6,5.5,19.1,7.2
			C1307.9,555,1306.3,549.5,1303.7,545.7z"/>
		<path class="st43" d="M1315.5,568.6c0,0,14.4,2,23.8-3.5c0,0,2.8,8.5-1.5,19.3c0,0-11.8,7.7-26.2,2.5
			C1311.6,586.9,1316.8,578.9,1315.5,568.6z"/>
		<path class="st49" d="M1320.3,574.1c0,0,9.5,1.4,16.8-2.7v0.9c0,0-6.3,3.8-16.8,2.5V574.1z"/>
		<path class="st43" d="M1313.6,524.9c0,0,9.2,1.9,19.7-1.6v1.6c0,0-10.2,3-19.9,1.3L1313.6,524.9z"/>
		<path class="st43" d="M1315.9,530.7c0,0,11.7,0.1,16.3-1.7c0,0,2,6.2-0.5,12.1c0,0-6.2,3.5-16.7,2.1
			C1315,543.3,1317.5,538,1315.9,530.7z"/>
		<path class="st43" d="M1313.3,497.7c0,0,5.6,1.7,15.6-0.6v1.2c0,0-4,2.7-15.6,1V497.7z"/>
	</g>
	<polygon class="st3" points="1419.8,676.9 1391.2,678.3 1343.6,680.9 1282.5,702 1259.5,718.5 1395.3,689.3 	"/>
	<linearGradient id="SVGID_41_" gradientUnits="userSpaceOnUse" x1="1284.9677" y1="706.3231" x2="1424.4745" y2="681.3465">
		<stop  offset="1.240079e-03" style="stop-color:#897EC1"/>
		<stop  offset="1" style="stop-color:#E0DCEF"/>
	</linearGradient>
	<polygon class="st50" points="1259.5,718.5 1291.4,704.3 1359.5,685.3 1393.7,685.5 1419.8,676.9 1393.7,694 1309.2,709.3 	"/>
	<linearGradient id="SVGID_42_" gradientUnits="userSpaceOnUse" x1="1160.8279" y1="701.3406" x2="1242.7628" y2="691.9628">
		<stop  offset="1.240079e-03" style="stop-color:#897EC1"/>
		<stop  offset="1" style="stop-color:#E0DCEF"/>
	</linearGradient>
	<polygon class="st51" points="1143.6,704.6 1208.7,689.2 1239.2,693.3 1212.5,702.1 1188.2,699.1 	"/>
	<linearGradient id="SVGID_43_" gradientUnits="userSpaceOnUse" x1="960.0914" y1="27.7767" x2="993.204" y2="84.0516">
		<stop  offset="1.240079e-03" style="stop-color:#FFFFFF"/>
		<stop  offset="0.9987" style="stop-color:#FFFFFF;stop-opacity:0"/>
	</linearGradient>
	<path class="st52" d="M1098,30L856.5,85.6L893.6,71c0,0-1.4-20.4,47.7-14.3c0,0-2.6-29.9,35.9-13c0,0-5-83.9,104.6-19.9
		C1081.8,23.9,1092.5,11.1,1098,30z"/>
	<linearGradient id="SVGID_44_" gradientUnits="userSpaceOnUse" x1="979.6086" y1="120.5316" x2="1034.2411" y2="129.1247">
		<stop  offset="1.240079e-03" style="stop-color:#FFFFFF"/>
		<stop  offset="0.9987" style="stop-color:#FFFFFF;stop-opacity:0"/>
	</linearGradient>
	<path class="st53" d="M1036.3,117.7l-68.5,15.5c0,0-3.3-31.8,38-15.3C1005.7,117.8,1013.3,105.8,1036.3,117.7z"/>
	<linearGradient id="SVGID_45_" gradientUnits="userSpaceOnUse" x1="1282.6659" y1="699.1799" x2="1319.7552" y2="699.1799">
		<stop  offset="1.240079e-03" style="stop-color:#CBCAE5"/>
		<stop  offset="0.9987" style="stop-color:#CFC7E5"/>
	</linearGradient>
	<polygon class="st54" points="1292.8,698.4 1319.8,696.4 1304.9,700.6 1282.7,701.9 	"/>
	<linearGradient id="SVGID_46_" gradientUnits="userSpaceOnUse" x1="1302.6356" y1="690.1871" x2="1359.4529" y2="690.1871">
		<stop  offset="1.240079e-03" style="stop-color:#CBCAE5"/>
		<stop  offset="0.9987" style="stop-color:#CFC7E5"/>
	</linearGradient>
	<polygon class="st55" points="1320.6,688.8 1359.5,685.3 1333.8,692.5 1302.6,695 	"/>
	<linearGradient id="SVGID_47_" gradientUnits="userSpaceOnUse" x1="1271.093" y1="707.2445" x2="1291.3879" y2="707.2445">
		<stop  offset="1.240079e-03" style="stop-color:#CBCAE5"/>
		<stop  offset="0.9987" style="stop-color:#CFC7E5"/>
	</linearGradient>
	<polygon class="st56" points="1274.8,707.5 1291.4,704.3 1283.1,708 1271.1,710.2 	"/>
</g>
</svg>
