<?xml version="1.0" encoding="UTF-8"?>
<svg width="74px" height="78px" viewBox="0 0 74 78" version="1.1" xmlns="http://www.w3.org/2000/svg" xmlns:xlink="http://www.w3.org/1999/xlink">
    <!-- Generator: Sketch 44.1 (41455) - http://www.bohemiancoding.com/sketch -->
    <title>Fill 10</title>
    <desc>Created with Sketch.</desc>
    <defs></defs>
    <g id="Homepage-Design-Version-A" stroke="none" stroke-width="1" fill="none" fill-rule="evenodd">
        <g id="Ultra-Wide-(nh)" transform="translate(-389.000000, -538.000000)" fill="#97E34F">
            <path d="M426.00125,590.037756 C419.180823,590.037756 413.63251,584.187295 413.63251,576.998683 C413.63251,569.810071 419.180823,563.962244 426.00125,563.962244 C432.821676,563.962244 438.369989,569.810071 438.369989,576.998683 C438.369989,584.187295 432.821676,590.037756 426.00125,590.037756 Z M463,582.933437 L463,571.061295 L453.16549,569.493972 C452.518187,566.880889 451.538485,564.386343 450.243879,562.060383 L456.149583,553.620546 L448.179506,545.222856 L440.176939,551.447368 C437.965112,550.08024 435.598332,549.047651 433.116586,548.365405 L431.637036,538 L420.370462,538 L418.880915,548.365405 C416.406667,549.047651 414.037387,550.08024 411.82556,551.447368 L403.822993,545.222856 L395.852916,553.620546 L401.76112,562.057749 C400.469013,564.37844 399.489311,566.872986 398.83451,569.493972 L389,571.061295 L389,582.933437 L398.837009,584.498126 C399.486811,587.119111 400.466514,589.613657 401.76112,591.934349 L395.852916,600.376819 L403.822993,608.771875 L411.82556,602.547364 C414.044885,603.917125 416.409166,604.949715 418.880915,605.631961 L420.370462,616 L431.637036,616 L433.116586,605.631961 C435.590834,604.952349 437.957614,603.91976 440.176939,602.549998 L448.182005,608.774509 L456.149583,600.376819 L450.243879,591.934349 C451.538485,589.611023 452.518187,587.116477 453.16549,584.50076 L463,582.933437 Z" id="Fill-10"></path>
        </g>
    </g>
</svg>