<svg xmlns="http://www.w3.org/2000/svg" viewBox="0 0 90 90">
   <title>enterprise</title>
   <g class="a" isolation="isolate">
      <path class="b" fill="#2c006b" fill-rule="evenodd" d="M82,8C75.47,1.58,56.25,0,45,0S14.53,1.58,8,8C1.15,14.72,0,33.63,0,45S1.15,75.28,8,82c6.53,6.42,25.75,8,37,8s30.47-1.58,37-8c6.85-6.72,8-25.63,8-37S88.85,14.72,82,8"/>
      <path class="c" fill="#bad3e7" mix-blend-mode="screen" d="M40,28.48V89.9c1.77.07,3.44.1,5,.1a136.35,136.35,0,0,0,13.79-.71,92,92,0,0,0,10.5-1.68V59.24h8.26V28.48Z"/>
      <path class="d" fill="#63c" d="M77.55,59.24H69.29V87.61a41.28,41.28,0,0,0,8.26-2.69A15.9,15.9,0,0,0,82,82c4.39-4.31,6.44-13.63,7.34-22.76Z"/>
      <path class="d" fill="#63c" d="M32.74,11.29A31.76,31.76,0,0,0,30.94.74C21.71,1.73,12.21,3.86,8,8,1.53,14.35.14,31.58,0,43.06l.94,0A31.79,31.79,0,0,0,32.74,11.29Z"/>
      <path class="c" fill="#bad3e7" mix-blend-mode="screen" d="M40,51.41H21.27V87.74A111.4,111.4,0,0,0,40,89.9c1.77.07,3.44.1,5,.1a136.35,136.35,0,0,0,13.79-.71V51.41Z"/>
      <path class="e" fill="#ffffff" d="M22.63,2,1.77,22.84c-.11.57-.21,1.14-.31,1.72L24.37,1.66Z"/>
      <path class="e" fill="#ffffff" d="M38.65.16.12,38.69c0,.49,0,1,0,1.46L40.13.09Z"/>
      <path class="e" fill="#ffffff" d="M52.76.23.19,52.81c0,.44,0,.89.07,1.34L54.09.31Z"/>
   </g>
</svg>