<svg xmlns="http://www.w3.org/2000/svg" viewBox="0 0 90 90">
   <title>finance-ops</title>
   <g class="a" isolation="isolate">
      <path class="b" fill-rule="evenodd" fill="#e2bbe6" d="M82,8C75.47,1.58,56.25,0,45,0S14.53,1.58,8,8C1.15,14.72,0,33.63,0,45S1.15,75.28,8,82c6.53,6.42,25.75,8,37,8s30.47-1.58,37-8c6.85-6.72,8-25.63,8-37S88.85,14.72,82,8"/>
      <path class="c" fill="#c484d9" mix-blend-mode="multiply" d="M72.08,3.1a21.37,21.37,0,0,0,2.8,26.76h0a21.33,21.33,0,0,0,14.87,6.25c-.6-10.61-2.5-23-7.76-28.12C79.84,5.87,76.27,4.28,72.08,3.1Z"/>
      <path class="d" fill="#fce2ff" d="M1.87,31.23c-.5.5-.95,1-1.4,1.54C.11,37.18,0,41.46,0,45A129.08,129.08,0,0,0,1.53,65.79L37,30.37A25.47,25.47,0,0,0,1.87,31.23Z"/>
      <path class="c" fill="#c484d9" mix-blend-mode="multiply" d="M82,82a13.6,13.6,0,0,0,2-2.5,25.39,25.39,0,0,0-5.08-7.28l-1.61-1.61a25.16,25.16,0,0,0-35.57,0L40.1,72.22a25,25,0,0,0-7.35,17.22c4.44.41,8.73.56,12.25.56C56.25,90,75.47,88.42,82,82Z"/>
      <path class="c" fill="#c484d9" mix-blend-mode="multiply" d="M37,30.32,1.53,65.8C2.68,72.57,4.67,78.73,8,82c6.53,6.42,25.75,8,37,8a133.46,133.46,0,0,0,16.27-1L78.48,71.79Z"/>
      <path class="e" fill="#ffffff" d="M69.41,79.19a14,14,0,0,0-19.83,0l-.9.9A14,14,0,0,0,44.57,90H45c8.08,0,20.28-.82,28.92-3.65a13.83,13.83,0,0,0-3.61-6.26Z"/>
      <path class="f" fill="#55007f" d="M81.28,7.36c-.26-.21-.53-.42-.81-.62A80,80,0,0,0,51.66,68.23v21.6l1,0V68.23A79.09,79.09,0,0,1,81.28,7.36Z"/>
      <path class="f" fill="#55007f" d="M86.43,15.85c-.11-.34-.23-.68-.36-1a70.67,70.67,0,0,0-25,53.88V89l1-.13V68.72A69.67,69.67,0,0,1,86.43,15.85Z"/>
      <path class="f" fill="#55007f" d="M88.71,25.64A61.19,61.19,0,0,0,70.48,69.22V87.33l1-.26V69.22A60.18,60.18,0,0,1,88.89,26.88Z"/>
   </g>
</svg>