<?xml version="1.0" encoding="UTF-8"?>
<svg width="20px" height="20px" viewBox="0 0 20 20" version="1.1" xmlns="http://www.w3.org/2000/svg" xmlns:xlink="http://www.w3.org/1999/xlink">
    <!-- Generator: Sketch 40.2 (33826) - http://www.bohemiancoding.com/sketch -->
    <title>Path</title>
    <desc>Created with Sketch.</desc>
    <defs></defs>
    <g id="Page-1" stroke="none" stroke-width="1" fill="none" fill-rule="evenodd">
        <g id="phone-mock" transform="translate(-337.000000, -141.000000)" stroke="#212128" stroke-width="2" fill="#D8D8D8">
            <g id="Cancel" transform="translate(329.000000, 133.000000)">
                <path d="M26.0030769,24.084 L24.0812308,26.0044615 C23.7295385,26.3575385 23.1535385,26.3575385 22.8018462,26.0044615 L18,21.2026154 L13.1995385,26.0030769 C12.8464615,26.3561538 12.2718462,26.3561538 11.9187692,26.0003077 L9.99692308,24.084 C9.64661538,23.7295385 9.64661538,23.1576923 9.99692308,22.8018462 L14.7987692,18.0013846 L9.99830769,13.2009231 C9.64661538,12.8464615 9.64661538,12.2704615 9.99830769,11.9201538 L11.9201538,9.99830769 C12.2732308,9.64246154 12.8492308,9.64246154 13.2009231,9.99830769 L18,14.8001538 L22.8018462,9.99830769 C23.1549231,9.64246154 23.7309231,9.64246154 24.0812308,9.99830769 L26.0030769,11.9173846 C26.3547692,12.2704615 26.3547692,12.8464615 26.0044615,13.2009231 L21.2026154,18.0013846 L26.0044615,22.8018462 C26.3533846,23.1576923 26.3533846,23.7295385 26.0030769,24.084 L26.0030769,24.084 Z" id="Path"></path>
            </g>
        </g>
    </g>
</svg>