<?xml version="1.0" encoding="UTF-8"?>
<svg width="30px" height="30px" viewBox="0 0 30 30" version="1.1" xmlns="http://www.w3.org/2000/svg" xmlns:xlink="http://www.w3.org/1999/xlink">
    <!-- Generator: Sketch 40.2 (33826) - http://www.bohemiancoding.com/sketch -->
    <title>Group</title>
    <desc>Created with Sketch.</desc>
    <defs></defs>
    <g id="Page-1" stroke="none" stroke-width="1" fill="none" fill-rule="evenodd" opacity="0.699999988">
        <g id="phone-mock-copy" transform="translate(-286.000000, -424.000000)" stroke="#000FF0" fill="#000FF0">
            <g id="Group-3" transform="translate(30.000000, 395.000000)">
                <g id="Group" transform="translate(257.000000, 30.000000)">
                    <path d="M10,0 L2,0 C0.885714286,0 0,0.885714286 0,2 L0,10 C0,11.1142857 0.885714286,12 2,12 L10,12 C11.1142857,12 12,11.1142857 12,10 L12,2 C12,0.885714286 11.1142857,0 10,0 L10,0 Z M10.8571429,10 C10.8571429,10.4857143 10.4857143,10.8571429 10,10.8571429 L2,10.8571429 C1.51428571,10.8571429 1.14285714,10.4857143 1.14285714,10 L1.14285714,2 C1.14285714,1.51428571 1.51428571,1.14285714 2,1.14285714 L10,1.14285714 C10.4857143,1.14285714 10.8571429,1.51428571 10.8571429,2 L10.8571429,10 L10.8571429,10 Z" id="Shape"></path>
                    <path d="M26,0 L18,0 C16.8857143,0 16,0.885714286 16,2 L16,10 C16,11.1142857 16.8857143,12 18,12 L26,12 C27.1142857,12 28,11.1142857 28,10 L28,2 C28,0.885714286 27.1142857,0 26,0 L26,0 Z M26.8571429,10 C26.8571429,10.4857143 26.4857143,10.8571429 26,10.8571429 L18,10.8571429 C17.5142857,10.8571429 17.1428571,10.4857143 17.1428571,10 L17.1428571,2 C17.1428571,1.51428571 17.5142857,1.14285714 18,1.14285714 L26,1.14285714 C26.4857143,1.14285714 26.8571429,1.51428571 26.8571429,2 L26.8571429,10 L26.8571429,10 Z" id="Shape"></path>
                    <path d="M10,16 L2,16 C0.885714286,16 0,16.8857143 0,18 L0,26 C0,27.1142857 0.885714286,28 2,28 L10,28 C11.1142857,28 12,27.1142857 12,26 L12,18 C12,16.8857143 11.1142857,16 10,16 L10,16 Z M10.8571429,26 C10.8571429,26.4857143 10.4857143,26.8571429 10,26.8571429 L2,26.8571429 C1.51428571,26.8571429 1.14285714,26.4857143 1.14285714,26 L1.14285714,18 C1.14285714,17.5142857 1.51428571,17.1428571 2,17.1428571 L10,17.1428571 C10.4857143,17.1428571 10.8571429,17.5142857 10.8571429,18 L10.8571429,26 L10.8571429,26 Z" id="Shape"></path>
                    <path d="M26,16 L18,16 C16.8857143,16 16,16.8857143 16,18 L16,26 C16,27.1142857 16.8857143,28 18,28 L26,28 C27.1142857,28 28,27.1142857 28,26 L28,18 C28,16.8857143 27.1142857,16 26,16 L26,16 Z M26.8571429,26 C26.8571429,26.4857143 26.4857143,26.8571429 26,26.8571429 L18,26.8571429 C17.5142857,26.8571429 17.1428571,26.4857143 17.1428571,26 L17.1428571,18 C17.1428571,17.5142857 17.5142857,17.1428571 18,17.1428571 L26,17.1428571 C26.4857143,17.1428571 26.8571429,17.5142857 26.8571429,18 L26.8571429,26 L26.8571429,26 Z" id="Shape"></path>
                </g>
            </g>
        </g>
    </g>
</svg>