<svg xmlns="http://www.w3.org/2000/svg" viewBox="0 0 90 90">
   <title>sales-driven</title>
   <path class="a" fill="#cdc4f2" fill-rule="evenodd" d="M82,8C75.5,1.6,56.3,0,45,0S14.6,1.6,8,8C1.2,14.7,0,33.6,0,45S1.1,75.3,8,82c6.5,6.4,25.7,8,37,8s30.5-1.6,37-8c6.8-6.7,8-25.6,8-37S88.9,14.7,82,8"/>
   <path class="b" fill="#3c1bb2" opacity="0.4" isolation="isolate" d="M90,45c0-.44,0-.89,0-1.35A63.32,63.32,0,0,0,48.29,90C59.72,89.67,76.1,87.81,82,82,88.8,75.3,90,56.4,90,45Z"/>
   <path class="b" fill="#3c1bb2" opacity="0.4" isolation="isolate" d="M45,90c9.66,0,25.07-1.17,33.41-5.5A64.6,64.6,0,0,0,0,46.47C.1,58,1.39,75.58,8,82S33.7,90,45,90Z"/>
   <path class="c" fill="#ffffff" d="M18.4,62.8A45.67,45.67,0,0,1,59.74,89.18c1-.12,2.07-.26,3.11-.4A48.56,48.56,0,0,0,1.08,63c.14,1,.29,2,.46,3A45.46,45.46,0,0,1,18.4,62.8Z"/>
   <path class="c" fill="#ffffff" d="M8.92,82.8a27.14,27.14,0,0,1,29,7c1.41.07,2.77.12,4.06.15A30.15,30.15,0,0,0,6.67,80.45,12.71,12.71,0,0,0,8,82,10.35,10.35,0,0,0,8.92,82.8Z"/>
   <polygon class="d" fill="#ea738c" points="79.7 33.3 73.6 26.2 73.6 40.4 79.7 33.3"/>
   <polygon class="b" fill="#3c1bb2" opacity="0.4" isolation="isolate" points="68.5 33.3 62.4 26.2 62.4 40.4 68.5 33.3"/>
   <polygon class="d" fill="#ea738c" points="57.3 33.3 51.2 26.2 51.2 40.4 57.3 33.3"/>
</svg>