<svg xmlns="http://www.w3.org/2000/svg" viewBox="0 0 90 90">
   <title>self-serve</title>
   <path class="a" fill="#b3c4eb" fill-rule="evenodd" d="M82,8C75.47,1.58,56.25,0,45,0S14.53,1.58,8,8C1.15,14.72,0,33.63,0,45S1.15,75.28,8,82c6.53,6.42,25.75,8,37,8s30.47-1.58,37-8c6.85-6.72,8-25.63,8-37S88.85,14.72,82,8"/>
   <path class="b" fill="#2484c5" d="M35.67,52.29A29.22,29.22,0,0,1,1.89,67.75C3.08,73.74,5,79.05,8,82c6.53,6.42,25.75,8,37,8,1.58,0,3.32,0,5.15-.1A37.65,37.65,0,0,0,35.67,52.29Z"/>
   <path class="c" fill="#fce2ff" d="M9.39,10.31a28.6,28.6,0,0,0-3.36.2C.92,18.62,0,34.83,0,45c0,.73,0,1.49,0,2.28A117.21,117.21,0,0,0,1.89,67.75a29.21,29.21,0,1,0,7.5-57.44Z"/>
   <path class="c" fill="#fce2ff" d="M82,8c-3.91-3.85-12.37-5.95-21-7A37.62,37.62,0,0,0,89.68,55.1C89.92,51.45,90,48,90,45,90,33.63,88.85,14.72,82,8Z"/>
   <path class="d" fill="#182f67" d="M12.28,58.69c-1.09,7,1.29,12.34,6.9,15.53,8,4.58,22.24,4.15,35.48.86-2,5.5-2.42,10.46-1.38,14.66l2-.14c-1.46-5.39.22-11.35,1.73-15.09,9-2.5,17.41-6.31,22.74-10.7,4.75-3.92,6.59-8,5.32-11.71C84,49,81.79,48.24,80.13,48.2,72.9,48,60.93,60.07,55.52,72.86c-1.92.51-3.89,1-5.87,1.36-12.53,2.47-23.28,1.85-29.5-1.7-4.91-2.8-6.9-7.35-5.93-13.53,1.56-10,7.17-18.38,14.27-24.89,16.9.4,33.29-.87,39.19-6.47a7.26,7.26,0,0,0,2.42-6.19c-.16-1.64-1.32-4.42-7.35-4.6-8-.25-23.39,4.8-35.18,15.26Q14.12,31.6.7,30.29c-.06.66-.13,1.31-.18,2C7.89,33,16.7,33.7,25.52,34,19,40.42,13.86,48.64,12.28,58.69ZM80,50.11h.11a3.24,3.24,0,0,1,3.12,2.57c1.25,3.68-1.87,7.24-4.71,9.58-4.66,3.85-12.11,7.41-20.5,9.9C63.54,60.16,74.41,50.11,80,50.11ZM62.69,18.79c1.94.06,5.24.51,5.46,2.84a5.33,5.33,0,0,1-1.82,4.58c-5.23,5-19.94,6.23-35.63,6C41.33,23.35,54.53,18.54,62.69,18.79Z"/>
</svg>