<svg xmlns="http://www.w3.org/2000/svg" xmlns:xlink="http://www.w3.org/1999/xlink" viewBox="0 0 90 90"><defs><style>.cls-1,.cls-13,.cls-5{fill:none;}.cls-1{clip-rule:evenodd;}.cls-2{isolation:isolate;}.cls-3{fill:#93d2b6;}.cls-3,.cls-8{fill-rule:evenodd;}.cls-4{clip-path:url(#clip-path);}.cls-5{stroke:#000;}.cls-13,.cls-5{stroke-miterlimit:10;}.cls-6{fill:#bad3e7;mix-blend-mode:multiply;}.cls-7,.cls-8{fill:#00553d;}.cls-9{clip-path:url(#clip-path-2);}.cls-10{fill:#55007f;}.cls-11{clip-path:url(#clip-path-3);}.cls-12{fill:#63c;}.cls-13{stroke:#fff;}</style><clipPath id="clip-path"><path class="cls-1" d="M82,8C75.47,1.58,56.25,0,45,0S14.53,1.58,8,8C1.15,14.72,0,33.63,0,45S1.15,75.28,8,82c6.53,6.42,25.75,8,37,8s30.47-1.58,37-8c6.85-6.72,8-25.63,8-37S88.85,14.72,82,8"/></clipPath><clipPath id="clip-path-2"><path class="cls-1" d="M-34,8c-6.53-6.42-25.75-8-37-8s-30.47,1.58-37,8c-6.85,6.72-8,25.63-8,37s1.15,30.28,8,37c6.53,6.42,25.75,8,37,8s30.47-1.58,37-8c6.85-6.72,8-25.63,8-37s-1.15-30.28-8-37"/></clipPath><clipPath id="clip-path-3"><path class="cls-1" d="M199,8c-6.53-6.42-25.75-8-37-8s-30.47,1.58-37,8c-6.85,6.72-8,25.63-8,37s1.15,30.28,8,37c6.53,6.42,25.75,8,37,8s30.47-1.58,37-8c6.85-6.72,8-25.63,8-37s-1.15-30.28-8-37"/></clipPath></defs><title>anchor</title><g class="cls-2"><g id="Layer_1" data-name="Layer 1"><path class="cls-3" d="M82,8C75.47,1.58,56.25,0,45,0S14.53,1.58,8,8C1.15,14.72,0,33.63,0,45S1.15,75.28,8,82c6.53,6.42,25.75,8,37,8s30.47-1.58,37-8c6.85-6.72,8-25.63,8-37S88.85,14.72,82,8"/><g class="cls-4"><line class="cls-5" x1="59.38" y1="156.58" x2="59.38" y2="-76.98"/><line class="cls-5" x1="69.41" y1="156.58" x2="69.41" y2="-76.98"/><line class="cls-5" x1="79.44" y1="156.58" x2="79.44" y2="-76.98"/><rect class="cls-6" x="39.16" y="67.71" width="60.5" height="60.5" transform="translate(-48.94 77.77) rotate(-45)"/><rect class="cls-7" x="-51.74" y="15.06" width="81.62" height="81.62" transform="translate(-42.71 8.64) rotate(-45)"/><rect class="cls-6" x="-22.88" y="43.92" width="81.62" height="81.62" rx="40.81" transform="translate(-54.66 37.49) rotate(-45)"/><polygon class="cls-8" points="89.32 43.14 49.49 43.14 69.41 23.23 89.32 43.14"/><polygon class="cls-8" points="77.7 15.46 61.12 15.46 69.41 7.16 77.7 15.46"/><rect class="cls-6" x="3.49" y="70.29" width="28.88" height="28.88" rx="14.44" transform="translate(-54.66 37.49) rotate(-45)"/></g><g class="cls-9"><path class="cls-10" d="M-64.34,68.23v62h1v-62A79.25,79.25,0,0,1,15.82-10.93v-1A80.25,80.25,0,0,0-64.34,68.23Z"/><path class="cls-10" d="M-54.93,68.72v61.47h1V68.72A69.83,69.83,0,0,1,15.82-1V-2A70.83,70.83,0,0,0-54.93,68.72Z"/><path class="cls-10" d="M-45.52,69.22v61h1v-61A60.41,60.41,0,0,1,15.82,8.88v-1A61.41,61.41,0,0,0-45.52,69.22Z"/></g><g class="cls-11"><circle class="cls-12" cx="117.95" cy="11.29" r="31.79"/><line class="cls-13" x1="47.11" y1="95.21" x2="212.26" y2="-69.94"/><line class="cls-13" x1="54.21" y1="102.31" x2="219.35" y2="-62.84"/><line class="cls-13" x1="61.3" y1="109.4" x2="226.45" y2="-55.75"/></g></g></g></svg>