<?xml version="1.0" encoding="UTF-8" standalone="no"?>
<svg width="1280px" height="270px" viewBox="0 0 1280 270" version="1.1" xmlns="http://www.w3.org/2000/svg" xmlns:xlink="http://www.w3.org/1999/xlink">
    <!-- Generator: Sketch 3.7 (28169) - http://www.bohemiancoding.com/sketch -->
    <title>Group 10</title>
    <desc>Created with Sketch.</desc>
    <defs>
        <polygon id="path-1" points="175.7384 0.933 0.6664 0.933 0.6664 17.6616 175.7384 17.6616 175.7384 0.933"></polygon>
        <polygon id="path-3" points="192.964238 0.0263 0.163427848 0.0263 0.163427848 18.42776 192.964238 18.42776 192.964238 0.0263"></polygon>
    </defs>
    <g id="Page-2" stroke="none" stroke-width="1" fill="none" fill-rule="evenodd">
        <g id="starters-guide@2x" transform="translate(0.000000, -229.000000)">
            <g id="Group-10" transform="translate(-47.000000, 229.000000)">
                <g id="Page-1" transform="translate(0.000000, 200.000000)">
                    <g id="Group-3" transform="translate(66.000000, 0.067100)">
                        <mask id="mask-2" fill="white">
                            <use xlink:href="#path-1"></use>
                        </mask>
                        <g id="Clip-2"></g>
                        <path d="M167.3744,17.6616 L9.0304,17.6616 C4.4304,17.6616 0.6664,13.8976 0.6664,9.2976 L0.6664,9.2976 C0.6664,4.6966 4.4304,0.9326 9.0304,0.9326 L167.3744,0.9326 C171.9744,0.9326 175.7384,4.6966 175.7384,9.2976 L175.7384,9.2976 C175.7384,13.8976 171.9744,17.6616 167.3744,17.6616" id="Fill-1" fill="#D2F9FF" mask="url(#mask-2)"></path>
                    </g>
                    <path d="M207.1353,43.1649 L7.8983,43.1649 C3.5543,43.1649 0.0003,39.6109 0.0003,35.2669 L0.0003,35.2669 C0.0003,30.9229 3.5543,27.3679 7.8983,27.3679 L207.1353,27.3679 C211.4793,27.3679 215.0333,30.9229 215.0333,35.2669 L215.0333,35.2669 C215.0333,39.6109 211.4793,43.1649 207.1353,43.1649" id="Fill-4" fill="#D2F9FF"></path>
                    <path d="M137.1583,22.3154 C137.1583,17.9714 140.7123,14.4174 145.0563,14.4174 L91.0443,14.4174 C95.3883,14.4174 98.9423,17.9714 98.9423,22.3154 C98.9423,26.6594 95.3883,30.2134 91.0443,30.2134 L145.0563,30.2134 C140.7123,30.2134 137.1583,26.6594 137.1583,22.3154" id="Fill-6" fill="#D2F9FF"></path>
                    <path d="M190.1353,48.2177 C190.1353,43.8737 193.6893,40.3197 198.0333,40.3197 L76.3713,40.3197 C80.7153,40.3197 84.2703,43.8737 84.2703,48.2177 C84.2703,52.5617 80.7153,56.1157 76.3713,56.1157 L198.0333,56.1157 C193.6893,56.1157 190.1353,52.5617 190.1353,48.2177" id="Fill-8" fill="#D2F9FF"></path>
                    <path d="M236.4164,69.0671 L58.9054,69.0671 C54.5614,69.0671 51.0074,65.5131 51.0074,61.1691 L51.0074,61.1691 C51.0074,56.8251 54.5614,53.2701 58.9054,53.2701 L236.4164,53.2701 C240.7604,53.2701 244.3144,56.8251 244.3144,61.1691 L244.3144,61.1691 C244.3144,65.5131 240.7604,69.0671 236.4164,69.0671" id="Fill-10" fill="#D2F9FF"></path>
                </g>
                <g id="Page-1" transform="translate(1037.000000, 0.000000)">
                    <g id="Group-3" transform="translate(24.227848, 0.073810)">
                        <mask id="mask-4" fill="white">
                            <use xlink:href="#path-3"></use>
                        </mask>
                        <g id="Clip-2"></g>
                        <path d="M183.753251,18.42776 L9.37441519,18.42776 C4.30859241,18.42776 0.163427848,14.28736 0.163427848,9.22736 L0.163427848,9.22736 C0.163427848,4.16626 4.30859241,0.02586 9.37441519,0.02586 L183.753251,0.02586 C188.819073,0.02586 192.964238,4.16626 192.964238,9.22736 L192.964238,9.22736 C192.964238,14.28736 188.819073,18.42776 183.753251,18.42776" id="Fill-1" fill="#D2F9FF" mask="url(#mask-4)"></path>
                    </g>
                    <path d="M301.343992,46.48139 L81.9310937,46.48139 C77.1471949,46.48139 73.2332962,42.57199 73.2332962,37.79359 L73.2332962,37.79359 C73.2332962,33.01519 77.1471949,29.10469 81.9310937,29.10469 L301.343992,29.10469 C306.127891,29.10469 310.04179,33.01519 310.04179,37.79359 L310.04179,37.79359 C310.04179,42.57199 306.127891,46.48139 301.343992,46.48139" id="Fill-4" fill="#D2F9FF"></path>
                    <path d="M179.361953,23.54694 C179.361953,18.76854 183.275852,14.85914 188.059751,14.85914 L128.578181,14.85914 C133.36208,14.85914 137.275978,18.76854 137.275978,23.54694 C137.275978,28.32534 133.36208,32.23474 128.578181,32.23474 L188.059751,32.23474 C183.275852,32.23474 179.361953,28.32534 179.361953,23.54694" id="Fill-6" fill="#D2F9FF"></path>
                    <path d="M256.425232,52.03947 C256.425232,47.26107 260.33913,43.35167 265.123029,43.35167 L131.140827,43.35167 C135.924725,43.35167 139.839725,47.26107 139.839725,52.03947 C139.839725,56.81787 135.924725,60.72727 131.140827,60.72727 L265.123029,60.72727 C260.33913,60.72727 256.425232,56.81787 256.425232,52.03947" id="Fill-8" fill="#D2F9FF"></path>
                    <path d="M425.635276,74.97381 L8.69823797,74.97381 C3.91433924,74.97381 0.00044050633,71.06441 0.00044050633,66.28601 L0.00044050633,66.28601 C0.00044050633,61.50761 3.91433924,57.59711 8.69823797,57.59711 L425.635276,57.59711 C430.419175,57.59711 434.333073,61.50761 434.333073,66.28601 L434.333073,66.28601 C434.333073,71.06441 430.419175,74.97381 425.635276,74.97381" id="Fill-10" fill="#D2F9FF"></path>
                </g>
            </g>
        </g>
    </g>
</svg>