<?xml version="1.0" encoding="UTF-8" standalone="no"?>
<svg width="711px" height="34px" viewBox="0 0 711 34" version="1.1" xmlns="http://www.w3.org/2000/svg" xmlns:xlink="http://www.w3.org/1999/xlink">
    <!-- Generator: Sketch 3.6.1 (26313) - http://www.bohemiancoding.com/sketch -->
    <title>lines</title>
    <desc>Created with Sketch.</desc>
    <defs></defs>
    <g id="Page-2" stroke="none" stroke-width="1" fill="none" fill-rule="evenodd">
        <g id="Desktop-HD-Copy-4" transform="translate(-247.000000, -1926.000000)">
            <g id="Group-9" transform="translate(247.000000, 1926.000000)">
                <g id="lines">
                    <rect id="Rectangle-48" fill="#FFFFFF" x="0" y="0" width="123" height="32"></rect>
                    <g id="Group-26" transform="translate(12.000000, 11.000000)" stroke="#2C2A4F" stroke-width="2">
                        <path d="M5,10 C7.76142375,10 10,7.76142375 10,5 C10,2.23857625 7.76142375,0 5,0 C2.23857625,0 0,2.23857625 0,5 C0,7.76142375 2.23857625,10 5,10 Z" id="Oval-18"></path>
                        <path d="M19,10 C21.7614237,10 24,7.76142375 24,5 C24,2.23857625 21.7614237,0 19,0 C16.2385763,0 14,2.23857625 14,5 C14,7.76142375 16.2385763,10 19,10 Z" id="Oval-18-Copy"></path>
                        <path d="M33,10 C35.7614237,10 38,7.76142375 38,5 C38,2.23857625 35.7614237,0 33,0 C30.2385763,0 28,2.23857625 28,5 C28,7.76142375 30.2385763,10 33,10 Z" id="Oval-18-Copy-2"></path>
                    </g>
                    <path d="M1,33 L709.627563,33" id="Line" stroke="#2C2A4F" stroke-width="2" stroke-linecap="square"></path>
                </g>
            </g>
        </g>
    </g>
</svg>