<?xml version="1.0" encoding="utf-8"?>
<!-- Generator: Adobe Illustrator 22.0.1, SVG Export Plug-In . SVG Version: 6.00 Build 0)  -->
<svg version="1.1" id="Layer_1" xmlns="http://www.w3.org/2000/svg" xmlns:xlink="http://www.w3.org/1999/xlink" x="0px" y="0px"
	 viewBox="0 0 650 602.9" style="enable-background:new 0 0 650 602.9;" xml:space="preserve">
<style type="text/css">
	.st0{fill:#B4D2F7;}
	.st1{fill:#A69DF4;}
	.st2{fill:#E3DCFF;}
	.st3{fill:#876DCA;}
	.st4{fill:#6150A0;}
	.st5{fill:#FF8E31;}
	.st6{fill:#FF580D;}
	.st7{fill:#EF7320;}
	.st8{fill:#FFB471;}
	.st9{fill:#AD4A23;}
	.st10{fill:#FF9624;}
	.st11{fill:#E28A33;}
	.st12{fill:#FFAA55;}
	.st13{fill:#E4C8E0;}
	.st14{fill:#A9DFE3;stroke:#998EA9;stroke-width:1.58;stroke-linecap:round;stroke-linejoin:round;}
	.st15{fill:#FFF435;stroke:#97968D;stroke-width:0.73;stroke-linecap:round;stroke-linejoin:round;}
	.st16{fill:#F58220;stroke:#97968D;stroke-width:0.73;stroke-linecap:round;stroke-linejoin:round;}
	.st17{fill:#DFF3F2;stroke:#7F7D76;stroke-width:0.36;stroke-linejoin:round;}
	.st18{fill:#D9B62E;}
	.st19{fill:#FFD637;}
	.st20{fill:#8969D3;}
	.st21{fill:#9A7CD9;}
	.st22{fill:#F84611;}
	.st23{fill:#FE6231;}
	.st24{display:none;}
	.st25{display:inline;fill:#E3DCFF;}
	.st26{display:inline;fill:#A69DF4;}
	.st27{fill:url(#SVGID_1_);}
	.st28{fill:url(#SVGID_2_);}
	.st29{fill:#D3D3EA;}
	.st30{fill:#B4B4DA;}
	.st31{fill:none;stroke:#F2F5D3;stroke-width:1.7;stroke-linecap:round;stroke-linejoin:round;}
	.st32{fill:#5D54CC;}
	.st33{fill:#7966FF;}
	.st34{fill:#FFFFFF;}
	.st35{fill:#CECECE;}
	.st36{fill:#D3D3D3;}
	.st37{fill:#CDEDEC;}
	.st38{fill:#2DCC70;}
	.st39{fill:#F1D09F;}
	.st40{fill:#D4B78C;}
	.st41{fill:#6D5AFF;}
	.st42{fill:#504AD1;}
	.st43{fill:none;stroke:#FFFFFF;stroke-width:1.7;stroke-linecap:round;stroke-linejoin:round;}
	.st44{fill:#312379;}
	.st45{fill:none;stroke:#9A9AC1;stroke-width:3.16;stroke-linecap:round;stroke-linejoin:round;}
	.st46{fill:url(#SVGID_3_);}
	.st47{fill:url(#SVGID_4_);}
	.st48{fill:#312379;stroke:url(#SVGID_5_);stroke-width:0.73;stroke-linecap:round;stroke-linejoin:bevel;}
	.st49{fill:#3F3A9B;}
	.st50{fill:url(#SVGID_6_);}
	.st51{fill:url(#SVGID_7_);}
	.st52{fill:#0DAC50;}
	.st53{fill:#137B3C;}
	.st54{fill:none;}
	.st55{fill:#008639;}
	.st56{fill:#3C3079;}
	.st57{fill:#473E79;}
	.st58{opacity:0.6;fill:#FFFFFF;enable-background:new    ;}
	.st59{fill:none;stroke:#191226;stroke-width:3.05;stroke-linecap:round;stroke-linejoin:round;}
	.st60{fill:#6D6DAD;}
	.st61{fill:#D4BFFF;}
	.st62{enable-background:new    ;}
	.st63{fill:#191226;}
	.st64{fill:#6A549E;}
	.st65{fill:#0E0914;}
</style>
<title>design_borderArtboard 1 copy</title>
<g id="Layer_7">
	<polygon class="st0" points="68.2,304.6 234.7,210.3 401.1,304.6 234.6,399.1 	"/>
	<path class="st1" d="M198,310.3l-21.2-12l225.8-128c11.6-6.6,25.9-6.6,37.5,0l68.3,38.7c12.6,7,17.2,23,10.1,35.6
		c-2.4,4.3-5.9,7.8-10.1,10.1l-26.6,15.1c-5.7,3.2-7.7,10.3-4.5,15.9c1.1,1.9,2.6,3.5,4.5,4.5l60.4,34.2c12.1,6.7,16.4,22,9.6,34
		c-2.3,4-5.6,7.4-9.6,9.6l-97.5,55.2l-21.2-12.1L514,360c7.5-4.1,10.1-13.6,6-21c-1.4-2.5-3.5-4.6-6-6l-55.5-31.4
		c-11.8-6.6-16.1-21.5-9.5-33.4c2.2-4,5.6-7.3,9.6-9.6l31.6-17.8c4.9-2.7,6.7-8.9,4-13.8c-0.9-1.7-2.3-3-3.9-4l-48.9-27.9
		c-12.5-7.1-27.8-7.1-40.3-0.1L198,310.3"/>
	<path class="st2" d="M198,307.9l-21.2-12l218-123.6c16.4-9.3,36.6-9.3,53,0l60.6,34.3c12.6,7,17.2,23,10.1,35.6
		c-2.4,4.3-5.9,7.8-10.1,10.1l-26.5,15c-5.7,3.2-7.7,10.3-4.6,16c1.1,1.9,2.6,3.5,4.6,4.6l60.3,34.2c12.1,6.7,16.4,22,9.6,34
		c-2.3,4-5.6,7.4-9.6,9.6l-99.6,56.4L421.2,410l92.8-52.4c7.5-4.1,10.1-13.6,6-21c-1.4-2.5-3.5-4.6-6-6l-55.2-31.3
		c-11.9-6.6-16.2-21.6-9.6-33.6c2.3-4,5.6-7.4,9.6-9.6l31.4-17.6c4.9-2.7,6.7-8.9,4-13.8c-0.9-1.7-2.3-3-3.9-4l-48.9-27.9
		c-12.5-7.1-27.8-7.1-40.3,0L198,307.9"/>
	<polygon class="st3" points="68.2,297.4 234.7,203.1 401.1,297.4 234.6,391.9 	"/>
	<polygon class="st4" points="401.1,297.4 401.1,304.6 234.6,399.1 234.6,391.9 	"/>
	<polygon class="st4" points="68.2,304.6 234.6,399.1 234.6,391.9 68.2,297.4 	"/>
	<polygon class="st5" points="134.4,307.7 134.4,211.3 219.4,259.6 219.4,355.9 	"/>
	<polygon class="st6" points="155.5,283.8 198,307.9 198,332 155.5,307.9 	"/>
	<polygon class="st7" points="319.1,203.1 219.4,259.6 219.4,355.9 319.4,299.2 	"/>
	<polygon class="st8" points="235.3,154.1 134.4,211.3 219.4,259.6 319.1,203.1 	"/>
	<polygon class="st9" points="155.5,283.8 155.5,307.9 166.1,301.9 166.1,289.8 	"/>
	<polygon class="st9" points="178.9,321.1 198,332 198,319.9 189.5,315.1 	"/>
	<polygon class="st10" points="240.7,303.7 295.1,272.8 302.2,276.9 247.8,307.7 	"/>
	<polygon class="st11" points="240.7,335.8 240.7,303.7 247.8,307.7 261.9,331.8 261.9,355.9 240.7,343.9 	"/>
	<polygon class="st12" points="302.2,276.9 247.8,307.7 261.9,331.8 316.3,300.9 	"/>
	<polygon class="st10" points="316.3,324.9 316.3,300.9 261.9,331.8 261.9,355.9 	"/>
	<polygon class="st13" points="243.5,330.6 258.4,339 258.4,340 243.5,331.6 	"/>
	<polygon class="st13" points="243.5,333.4 258.4,341.8 258.4,342.8 243.5,334.4 	"/>
	<polygon class="st13" points="243.5,336.2 258.4,344.6 258.4,345.6 243.5,337.2 	"/>
	<polygon class="st13" points="243.5,338.9 258.4,347.3 258.4,348.3 243.5,339.9 	"/>
	<polygon class="st13" points="243.5,341.7 258.4,350.1 258.4,351.1 243.5,342.7 	"/>
	<path class="st14" d="M267.4,303l7.9,13.5c0.7,1.3,2.4,1.7,3.7,1l16.6-9.4c1.3-0.7,1.7-2.3,1-3.5c0,0,0,0,0-0.1l-8-13.5
		c-0.7-1.3-2.4-1.7-3.7-1l-16.6,9.4C267.1,300.1,266.6,301.7,267.4,303L267.4,303z"/>
	<ellipse class="st15" cx="301.8" cy="286.6" rx="1.6" ry="1.6"/>
	<ellipse class="st16" cx="304.1" cy="291.1" rx="1.6" ry="1.6"/>
	<path class="st17" d="M252.4,310.4l2.4,4c0.1,0.1,0.1,0.1,0.2,0l3.8-2.2c0.1,0,0.1-0.1,0-0.2l-2.4-4c0-0.1-0.1-0.1-0.2-0.1
		l-3.8,2.2C252.4,310.2,252.3,310.3,252.4,310.4L252.4,310.4z"/>
	<path class="st17" d="M256,316.7l2.4,4c0,0.1,0.1,0.1,0.2,0l3.8-2.2c0.1,0,0.1-0.1,0.1-0.2l0,0l-2.4-4c0-0.1-0.1-0.1-0.2,0
		l-3.9,2.2C255.9,316.6,255.9,316.6,256,316.7L256,316.7z"/>
	<path class="st17" d="M259.6,323l2.4,4c0,0.1,0.1,0.1,0.2,0l3.8-2.2c0.1,0,0.1-0.1,0.1-0.2l-2.4-4c0-0.1-0.1-0.1-0.2,0l-3.8,2.2
		C259.6,322.8,259.6,322.9,259.6,323L259.6,323z"/>
	<path class="st18" d="M254.4,311.9l0.1,0.1c0.4,0.6,1.1,0.8,1.7,0.5l0,0c0.6-0.3,0.8-1.1,0.5-1.7l0,0l-0.1-0.1
		c-0.4-0.6-1.1-0.8-1.8-0.5l0,0C254.2,310.5,254,311.3,254.4,311.9C254.3,311.9,254.4,311.9,254.4,311.9z"/>
	<path class="st19" d="M254.6,311.8l0.1,0.1c0.4,0.6,1.1,0.8,1.7,0.5l0,0c0.6-0.3,0.8-1.1,0.5-1.7l0,0l-0.1-0.1
		c-0.4-0.6-1.1-0.8-1.7-0.5l0,0C254.5,310.4,254.2,311.1,254.6,311.8L254.6,311.8z"/>
	<path class="st20" d="M257.9,318.2l0.1,0.1c0.4,0.6,1.1,0.8,1.7,0.5l0,0c0.6-0.3,0.8-1.1,0.5-1.7c0,0,0,0,0-0.1l-0.1-0.1
		c-0.4-0.6-1.1-0.8-1.7-0.5l0,0C257.8,316.8,257.6,317.5,257.9,318.2L257.9,318.2z"/>
	<path class="st21" d="M258.2,318l0.1,0.1c0.4,0.6,1.1,0.8,1.7,0.5l0,0c0.6-0.3,0.8-1.1,0.5-1.7c0,0,0,0,0-0.1l-0.1-0.1
		c-0.4-0.6-1.1-0.8-1.7-0.5l0,0C258,316.6,257.8,317.4,258.2,318C258.1,318,258.2,318,258.2,318z"/>
	<path class="st22" d="M261.6,324.5l0.1,0.1c0.4,0.6,1.1,0.8,1.8,0.5l0,0c0.6-0.3,0.8-1.1,0.5-1.7l0,0l-0.1-0.1
		c-0.4-0.6-1.1-0.8-1.7-0.5l0,0C261.4,323,261.2,323.8,261.6,324.5C261.5,324.4,261.6,324.4,261.6,324.5z"/>
	<path class="st23" d="M261.8,324.3l0.1,0.1c0.4,0.6,1.1,0.8,1.7,0.5l0,0c0.6-0.3,0.8-1.1,0.5-1.7l0,0L264,323
		c-0.4-0.6-1.1-0.8-1.8-0.5l0,0C261.6,322.9,261.4,323.6,261.8,324.3L261.8,324.3z"/>
	<g id="billing-belt" class="st24">
		<path class="st25" d="M-14.3,271.6l109.5,62.3c4.4,2.5,9.9,2.5,14.3,0l46-26l21.2-12l21.2,12l-95.6,54.2l-116.7-66.4L-14.3,271.6z
			"/>
		<path class="st26" d="M95.1,357.9l-109.4-62.1v2.4l109.4,62.1c4.5,2.6,10.1,2.6,14.6,0l88.3-50.1v-2.4l-88.3,50
			C105.2,360.5,99.6,360.5,95.1,357.9z"/>
	</g>
	<g id="billing-belt_1_">
		<linearGradient id="SVGID_1_" gradientUnits="userSpaceOnUse" x1="-14.35" y1="316.775" x2="197.95" y2="316.775">
			<stop  offset="7.390000e-02" style="stop-color:#130E24"/>
			<stop  offset="0.1055" style="stop-color:#262138"/>
			<stop  offset="0.1876" style="stop-color:#524C66"/>
			<stop  offset="0.2749" style="stop-color:#79738F"/>
			<stop  offset="0.3662" style="stop-color:#9A93B2"/>
			<stop  offset="0.4625" style="stop-color:#B4AECE"/>
			<stop  offset="0.5657" style="stop-color:#C9C2E4"/>
			<stop  offset="0.679" style="stop-color:#D8D1F3"/>
			<stop  offset="0.81" style="stop-color:#E0D9FC"/>
			<stop  offset="1" style="stop-color:#E3DCFF"/>
		</linearGradient>
		<path class="st27" d="M-14.3,271.5l109.5,62.3c4.4,2.5,9.9,2.5,14.3,0l46-26l21.2-12l21.2,12L102.3,362l-116.7-66.4L-14.3,271.5z"
			/>
		<linearGradient id="SVGID_2_" gradientUnits="userSpaceOnUse" x1="-14.25" y1="328.95" x2="198.05" y2="328.95">
			<stop  offset="7.390000e-02" style="stop-color:#130E24"/>
			<stop  offset="8.857549e-02" style="stop-color:#19142D"/>
			<stop  offset="0.1722" style="stop-color:#3A345B"/>
			<stop  offset="0.2612" style="stop-color:#575084"/>
			<stop  offset="0.3542" style="stop-color:#6F68A7"/>
			<stop  offset="0.4524" style="stop-color:#837BC3"/>
			<stop  offset="0.5574" style="stop-color:#938AD9"/>
			<stop  offset="0.6729" style="stop-color:#9E95E8"/>
			<stop  offset="0.8064" style="stop-color:#A49BF1"/>
			<stop  offset="1" style="stop-color:#A69DF4"/>
		</linearGradient>
		<path class="st28" d="M95.1,357.8l-109.4-62.1v2.4l109.4,62.1c4.5,2.6,10.1,2.6,14.6,0l88.3-50.1v-2.4l-88.3,50
			C105.2,360.4,99.6,360.4,95.1,357.8z"/>
	</g>
	<g id="Exhaust">
		<path class="st29" d="M246.4,135.7l10,5.7l-11,6.2c-2.5,1.4-4.1,4.1-4.1,7V167l-10-5.7v-12.5c0-2.9,1.6-5.5,4.1-6.9L246.4,135.7z"
			/>
		<path class="st30" d="M246.4,154.4v9.7l-5,2.8v-12.4c0-2.9,1.6-5.5,4.1-6.9l11-6.2v5.7l-8.6,4.9
			C246.9,152.4,246.4,153.4,246.4,154.4z"/>
	</g>
	<g id="Pipes">
		<path class="st31" d="M264.2,246.1l4,2.3c0.6,0.4,1,1,1,1.8v12.4c0,1.1-1,2.1-2.1,2c-0.4,0-0.7-0.1-1-0.3l-1.9-1.1"/>
		<path class="st31" d="M270.7,242.2l4,2.2c0.6,0.4,1,1,1,1.8v12.4c0,1.1-1,2.1-2.1,2c-0.4,0-0.7-0.1-1-0.3l-1.9-1.1"/>
		<path class="st31" d="M257.8,249.9l4,2.3c0.6,0.4,1,1,1,1.8v12.4c0,1.1-1,2.1-2.1,2c-0.4,0-0.7-0.1-1-0.3l-1.9-1"/>
		<path class="st31" d="M251,253.6l4,2.3c0.6,0.4,1,1,1,1.8V270c0,1.1-1,2.1-2.1,2c-0.4,0-0.7-0.1-1-0.3l-1.9-1.1"/>
	</g>
	<polygon class="st32" points="227.7,197.7 227.7,209.7 195.9,227.8 195.9,215.7 	"/>
	<polygon class="st33" points="217.1,185.6 227.7,197.7 195.9,215.7 195.9,197.7 	"/>
	<g>
		<g id="Blank_Paper">
			<polygon class="st34" points="59.3,309.1 77.9,319.6 48.2,336.4 29.6,325.9 			"/>
		</g>
		<polygon class="st35" points="77.9,319.6 77.9,322.5 48.2,339.3 48.2,336.4 		"/>
		<polygon class="st36" points="29.6,325.9 29.6,328.8 48.2,339.3 48.2,336.4 		"/>
	</g>
	<g id="Blank_Paper-2">
		<polygon class="st34" points="498.2,194.6 516.8,205.1 487,221.9 468.5,211.4 		"/>
	</g>
	<polygon class="st35" points="516.8,205.1 516.8,208 487,224.8 487,221.9 	"/>
	<polygon class="st36" points="468.5,211.4 468.5,214.3 487,224.8 487,221.9 	"/>
	<g id="Blank_Paper-3">
		<polygon class="st34" points="339,197.6 320.4,208.1 350.1,225 368.7,214.4 		"/>
	</g>
	<polygon class="st35" points="320.4,208.1 320.4,211 350.1,227.8 350.1,225 	"/>
	<polygon class="st36" points="368.7,214.4 368.7,217.3 350.1,227.8 350.1,225 	"/>
	<g id="Blank_Paper-4">
		<polygon class="st34" points="509.2,298.6 527.7,309.1 498,325.9 479.5,315.4 		"/>
	</g>
	<polygon class="st35" points="527.7,309.1 527.7,312 498,328.8 498,325.9 	"/>
	<polygon class="st36" points="479.5,315.4 479.5,318.3 498,328.8 498,325.9 	"/>
	<g id="Blank_Paper-5">
		<polygon class="st34" points="134.2,313.7 115.6,324.2 145.3,341 163.9,330.5 		"/>
	</g>
	<g id="Blank_Paper-6">
		<polygon class="st34" points="134.2,316.5 115.6,327.1 145.3,343.9 163.9,333.4 		"/>
	</g>
	<polygon class="st35" points="115.6,324.2 115.6,327.1 145.3,343.9 145.3,341 	"/>
	<polygon class="st36" points="163.9,330.5 163.9,333.4 145.3,343.9 145.3,341 	"/>
	<g id="Blank_Paper-7">
		<polygon class="st34" points="483.2,368.8 464.6,379.3 494.3,396.1 512.9,385.6 		"/>
	</g>
	<polygon class="st37" points="464.6,379.3 464.6,382.1 494.3,399 494.3,396.1 	"/>
	<polygon class="st36" points="512.9,385.6 512.9,388.5 494.3,399 494.3,396.1 	"/>
	<path class="st38" d="M488.1,209.6c-0.4,0.5-1,0.8-1.6,0.8c-1.1,0-2.1-0.8-2.2-1.9h-0.5v-0.6h0.5c0-0.1,0-0.1,0-0.2
		c0-0.1,0-0.1,0-0.2h-0.5v-0.6h0.5c0.2-1.2,1.2-2,2.3-2c0.6,0,1.1,0.3,1.4,0.7l-0.7,0.7c-0.2-0.2-0.5-0.4-0.8-0.4
		c-0.5,0-0.8,0.4-1,1h1.9v0.6h-2v0.2c0,0.1,0,0.2,0,0.2h1.6v0.6h-1.5c0.2,0.6,0.5,0.9,1,0.9c0.3,0,0.6-0.2,0.8-0.5L488.1,209.6z"/>
	<path class="st38" d="M489.5,207.6L489.5,207.6c-0.4-0.3-0.7-0.7-0.8-1.3c0-0.9,0.8-1.5,1.8-1.5c0.8-0.1,1.6,0.5,1.7,1.3
		c0,0.1,0,0.1,0,0.2c0,0.5-0.3,0.9-0.7,1.2l0,0c0.6,0.2,1,0.8,1,1.4c0,0.8-0.8,1.5-2,1.5s-1.9-0.6-1.9-1.5
		C488.6,208.4,488.9,207.8,489.5,207.6z M490.5,209.6c0.4,0,0.7-0.2,0.7-0.6v-0.1c0-0.5-0.5-0.6-1.2-0.9c-0.3,0.2-0.4,0.5-0.4,0.9
		C489.6,209.2,490,209.6,490.5,209.6C490.4,209.6,490.5,209.6,490.5,209.6L490.5,209.6z M491.2,206.4c0-0.4-0.2-0.7-0.6-0.7h-0.1
		c-0.3,0-0.6,0.2-0.6,0.5v0.1c0,0.4,0.4,0.6,1,0.9C491,207,491.1,206.7,491.2,206.4L491.2,206.4z"/>
	<path class="st38" d="M493.9,209c0.2,0.2,0.5,0.4,0.9,0.4c0.6,0,1.1-0.4,1.1-1.7c-0.3,0.3-0.7,0.5-1.1,0.6
		c-0.8,0.1-1.6-0.5-1.7-1.4c0-0.1,0-0.2,0-0.3c0-1,0.7-1.8,1.7-1.8h0.1c1.1,0,2.1,0.8,2.1,2.7s-1.1,2.9-2.3,2.9
		c-0.6,0-1.2-0.2-1.6-0.6L493.9,209z M495.9,206.9c-0.1-0.8-0.5-1.1-0.9-1.1s-0.7,0.3-0.7,0.9c-0.1,0.4,0.2,0.7,0.6,0.8
		c0.1,0,0.1,0,0.2,0C495.4,207.4,495.7,207.2,495.9,206.9L495.9,206.9z"/>
	<path class="st38" d="M338.1,212c-0.4,0.5-1,0.8-1.6,0.8c-1.1,0-2.1-0.8-2.2-1.9h-0.5v-0.6h0.5c0-0.1,0-0.3,0-0.4h-0.5v-0.6h0.5
		c0.2-1.2,1.2-2,2.3-2c0.5,0,1.1,0.2,1.4,0.7l-0.7,0.7c-0.2-0.2-0.5-0.4-0.8-0.4c-0.5,0-0.9,0.4-1,1h1.9v0.6h-2v0.2
		c0,0.1,0,0.2,0,0.2h1.6v0.6h-1.5c0.2,0.6,0.5,1,1,1c0.3,0,0.6-0.2,0.8-0.5L338.1,212z"/>
	<path class="st38" d="M339.5,210L339.5,210c-0.4-0.3-0.7-0.7-0.8-1.3c0-0.9,0.8-1.5,1.8-1.5c0.8-0.1,1.6,0.5,1.7,1.3
		c0,0.1,0,0.1,0,0.2c0,0.5-0.3,0.9-0.7,1.2l0,0c0.6,0.2,1,0.8,1,1.4c0,0.9-0.8,1.5-2,1.5s-1.9-0.6-1.9-1.5
		C338.6,210.7,338.9,210.2,339.5,210z M340.5,211.9c0.4,0,0.7-0.2,0.7-0.6v-0.1c0-0.5-0.5-0.6-1.2-0.9c-0.3,0.2-0.4,0.5-0.4,0.9
		s0.3,0.8,0.7,0.8C340.4,212,340.4,212,340.5,211.9L340.5,211.9z M341.2,208.8c0-0.4-0.2-0.7-0.6-0.7h-0.1c-0.3,0-0.6,0.2-0.6,0.5
		v0.1c0,0.4,0.4,0.6,1,0.9C341,209.4,341.1,209.1,341.2,208.8L341.2,208.8z"/>
	<path class="st38" d="M343.9,211.4c0.2,0.2,0.5,0.4,0.9,0.4c0.6,0,1.1-0.4,1.1-1.7c-0.3,0.3-0.7,0.5-1.1,0.6
		c-0.8,0.1-1.6-0.5-1.7-1.4c0-0.1,0-0.2,0-0.3c0-1,0.7-1.8,1.7-1.8h0.1c1.1,0,2.1,0.8,2.1,2.7s-1.1,2.9-2.3,2.9
		c-0.6,0-1.2-0.2-1.6-0.6L343.9,211.4z M345.9,209.3c-0.1-0.8-0.5-1.1-0.9-1.1s-0.7,0.3-0.7,0.9c-0.1,0.4,0.2,0.7,0.6,0.8
		c0.1,0,0.1,0,0.2,0C345.4,209.8,345.7,209.6,345.9,209.3L345.9,209.3z"/>
	<path class="st38" d="M483.2,383.6h2.3v1h-3.9v-0.8c0.5-0.2,0.9-0.7,0.9-1.3c0-0.1,0-0.2,0-0.2h-0.9v-0.7h0.6l0,0
		c-0.1-0.2-0.1-0.4-0.1-0.7c0-0.9,0.7-1.7,1.7-1.7c0.1,0,0.1,0,0.2,0c0.6,0,1.1,0.2,1.5,0.7l-0.7,0.7c-0.2-0.2-0.4-0.4-0.7-0.4
		c-0.4,0-0.7,0.2-0.8,0.6c0,0.1,0,0.1,0,0.2c0,0.2,0,0.4,0.1,0.6h1.3v0.8h-1.1c0,0.1,0,0.2,0,0.2C483.6,383,483.5,383.3,483.2,383.6
		L483.2,383.6z"/>
	<path class="st38" d="M487.1,382L487.1,382c-0.4-0.3-0.7-0.7-0.8-1.3c0-0.9,0.8-1.5,1.8-1.5c0.8-0.1,1.6,0.5,1.7,1.3
		c0,0.1,0,0.1,0,0.2c0,0.5-0.3,0.9-0.7,1.2l0,0c0.6,0.2,1,0.8,1,1.4c0,0.8-0.8,1.5-2,1.5s-1.9-0.6-1.9-1.5
		C486.2,382.7,486.6,382.2,487.1,382z M488.1,383.9c0.4,0,0.7-0.2,0.7-0.7s-0.5-0.6-1.2-0.9c-0.3,0.2-0.4,0.5-0.4,0.9
		C487.3,383.6,487.7,383.9,488.1,383.9L488.1,383.9L488.1,383.9z M488.8,380.8c0-0.4-0.2-0.7-0.6-0.7h-0.1c-0.3,0-0.6,0.2-0.6,0.5
		v0.1c0,0.4,0.4,0.6,1,0.9C488.7,381.3,488.8,381,488.8,380.8L488.8,380.8z"/>
	<path class="st38" d="M491.5,383.4c0.2,0.2,0.5,0.4,0.9,0.4c0.6,0,1.1-0.4,1.1-1.7c-0.3,0.3-0.7,0.5-1.1,0.6
		c-0.8,0.1-1.6-0.5-1.7-1.4c0-0.1,0-0.2,0-0.3c0-1,0.7-1.8,1.7-1.8h0.1c1.1,0,2.1,0.8,2.1,2.6s-1.1,2.9-2.3,2.9
		c-0.6,0-1.2-0.2-1.6-0.6L491.5,383.4z M493.5,381.2c-0.1-0.8-0.5-1.1-0.9-1.1s-0.7,0.3-0.7,0.9c-0.1,0.4,0.2,0.7,0.6,0.8
		c0.1,0,0.1,0,0.2,0C493,381.7,493.3,381.5,493.5,381.2L493.5,381.2z"/>
	<path class="st38" d="M497.7,314.4h2.3v1h-4v-0.8c0.5-0.2,0.9-0.7,0.9-1.3c0-0.1,0-0.1,0-0.2H496v-0.7h0.6l0,0
		c-0.1-0.2-0.1-0.4-0.1-0.7c0-0.9,0.7-1.7,1.7-1.7c0.1,0,0.1,0,0.2,0c0.6,0,1.1,0.2,1.5,0.7l-0.7,0.7c-0.2-0.2-0.4-0.3-0.7-0.4
		c-0.4,0-0.7,0.2-0.8,0.6c0,0.1,0,0.1,0,0.2c0,0.2,0,0.4,0.1,0.6h1.3v0.8H498c0,0.1,0,0.2,0,0.2
		C498.1,313.7,497.9,314.1,497.7,314.4L497.7,314.4z"/>
	<path class="st38" d="M501.6,312.7L501.6,312.7c-0.4-0.3-0.7-0.7-0.8-1.3c0-0.9,0.8-1.5,1.8-1.5c0.8-0.1,1.6,0.5,1.7,1.3
		c0,0.1,0,0.1,0,0.2c0,0.5-0.3,0.9-0.7,1.2l0,0c0.6,0.2,1,0.8,1,1.4c0,0.8-0.8,1.5-2,1.5s-1.9-0.6-1.9-1.5
		C500.7,313.5,501,312.9,501.6,312.7z M502.6,314.6c0.4,0,0.8-0.2,0.8-0.7s-0.5-0.6-1.2-0.9c-0.3,0.2-0.4,0.5-0.4,0.9
		C501.7,314.3,502.1,314.7,502.6,314.6C502.5,314.6,502.6,314.6,502.6,314.6L502.6,314.6z M503.2,311.5c0-0.3-0.2-0.7-0.6-0.7h-0.1
		c-0.3,0-0.6,0.2-0.6,0.5v0.1c0,0.4,0.4,0.6,1,0.9C503.1,312.1,503.3,311.8,503.2,311.5L503.2,311.5z"/>
	<path class="st38" d="M506,314.1c0.2,0.2,0.5,0.4,0.9,0.4c0.6,0,1.1-0.4,1.1-1.7c-0.3,0.3-0.7,0.5-1.1,0.6
		c-0.8,0.1-1.6-0.5-1.7-1.4c0-0.1,0-0.2,0-0.3c0-1,0.8-1.8,1.7-1.8h0.1c1.1,0,2.1,0.8,2.1,2.6s-1.1,2.9-2.2,2.9
		c-0.6,0-1.2-0.2-1.6-0.6L506,314.1z M508,312c-0.1-0.9-0.5-1.1-0.9-1.1s-0.7,0.3-0.7,0.9c-0.1,0.4,0.2,0.7,0.6,0.8
		c0.1,0,0.1,0,0.2,0C507.5,312.5,507.8,312.3,508,312L508,312z"/>
	<path class="st39" d="M310.7,220.8c-0.3-0.2-0.8-0.2-1.1,0l-18.9,10.7c-0.3,0.2-0.5,0.6-0.5,0.9v29.5c0,0.4,0.2,0.7,0.5,0.9
		c0.3,0.2,0.8,0.2,1.1,0l18.9-10.7c0.3-0.2,0.5-0.6,0.5-0.9v-29.5C311.3,221.3,311,221,310.7,220.8z M291.4,260.8l-0.6-1.1
		l19.1-10.8l0.6,1.1L291.4,260.8z M291.4,256.4l-0.6-1.1l19.1-10.8l0.6,1.1L291.4,256.4z M291.4,252.1l-0.6-1.1l19.1-10.8l0.6,1.1
		L291.4,252.1z M291.4,247.8l-0.6-1.1l19.1-10.8l0.6,1.1L291.4,247.8z M291.4,243.4l-0.6-1.1l19.1-10.8l0.6,1.1L291.4,243.4z
		 M291.4,239.1l-0.6-1.1l19.1-10.8l0.6,1.1L291.4,239.1z M291.4,234.8l-0.6-1.1l19.1-10.8l0.6,1.1L291.4,234.8z"/>
	<path class="st40" d="M177.7,283.1L177.7,283.1c1,0.6,1.7,1.7,1.7,2.9l0,0c-0.1,0.9-0.8,1.6-1.7,1.5c-0.2,0-0.4-0.1-0.5-0.1v0.1
		c-1.1-0.7-1.8-1.9-1.9-3.2h0.1c0.1-0.8,0.9-1.4,1.7-1.3C177.4,282.9,177.6,283,177.7,283.1z"/>
	<path class="st39" d="M177.4,283.3L177.4,283.3c1,0.6,1.7,1.7,1.7,2.9l0,0c0,0.8-0.6,1.4-1.4,1.4c-0.2,0-0.5-0.1-0.7-0.2l0,0
		c-1-0.6-1.7-1.7-1.7-2.9l0,0c0-0.8,0.6-1.4,1.4-1.4C177,283.1,177.2,283.2,177.4,283.3z"/>
	<path class="st40" d="M172.8,280.2L172.8,280.2c1,0.6,1.7,1.7,1.7,2.9l0,0c-0.1,0.9-0.8,1.6-1.7,1.5c-0.2,0-0.4-0.1-0.5-0.1v0.1
		c-1.1-0.7-1.8-1.9-1.9-3.2h0.1c0.1-0.8,0.9-1.4,1.7-1.3C172.4,280.1,172.6,280.1,172.8,280.2z"/>
	<path class="st39" d="M172.4,280.4L172.4,280.4c1,0.6,1.7,1.7,1.7,2.9l0,0c0,0.8-0.6,1.4-1.4,1.4c-0.2,0-0.5-0.1-0.7-0.2l0,0
		c-1-0.6-1.7-1.7-1.7-2.9l0,0c0-0.8,0.6-1.4,1.4-1.4C172,280.2,172.2,280.3,172.4,280.4z"/>
	<path class="st40" d="M182.7,286L182.7,286c1,0.6,1.7,1.7,1.7,2.9l0,0c-0.1,0.9-0.8,1.6-1.7,1.5c-0.2,0-0.4-0.1-0.5-0.1v0.1
		c-1.1-0.7-1.8-1.9-1.9-3.2h0.1c0.1-0.8,0.9-1.5,1.7-1.3C182.4,285.8,182.6,285.9,182.7,286z"/>
	<path class="st39" d="M182.4,286.1L182.4,286.1c1,0.6,1.7,1.7,1.7,2.9l0,0c0,0.8-0.6,1.4-1.4,1.4c-0.2,0-0.5-0.1-0.7-0.2l0,0
		c-1-0.6-1.7-1.7-1.7-2.9l0,0c0-0.8,0.6-1.4,1.4-1.4C182,286,182.2,286,182.4,286.1z"/>
	<path class="st40" d="M187.8,288.8L187.8,288.8c1,0.6,1.7,1.7,1.7,2.9l0,0c0,0.9-0.8,1.6-1.7,1.5c-0.2,0-0.4-0.1-0.5-0.1v0.1
		c-1.1-0.7-1.8-1.9-1.9-3.2h0.1c0.1-0.8,0.9-1.4,1.7-1.3C187.4,288.7,187.6,288.7,187.8,288.8z"/>
	<path class="st39" d="M187.5,289L187.5,289c1,0.6,1.7,1.7,1.7,2.9l0,0c0,0.8-0.6,1.4-1.4,1.4c-0.2,0-0.5-0.1-0.7-0.2l0,0
		c-1-0.6-1.7-1.7-1.7-2.9l0,0c0-0.8,0.6-1.4,1.4-1.4C187,288.8,187.3,288.9,187.5,289z"/>
	<polygon class="st3" points="278.5,482 399.2,413.2 520.2,481.3 399.5,550.2 	"/>
	<polygon class="st4" points="520.2,481.3 520.2,486.5 399.5,555.4 399.5,550.2 	"/>
	<polygon class="st4" points="278.6,487.3 399.5,555.4 399.5,550.2 278.5,482 	"/>
	<polygon class="st41" points="391.5,347.5 306.5,395.6 402,449.9 487,401.6 	"/>
	<polygon class="st33" points="306.4,477.8 306.5,395.6 402,449.9 402,531.9 	"/>
	<polygon class="st42" points="486.7,483.7 401.7,531.9 402,449.9 487,401.6 	"/>
	<path class="st43" d="M458.6,421.7l4.6,2.6c1.6,0.9,3.4,0.9,5,0l15.4-8.7c1-0.6,1.4-1.9,0.8-2.9c-0.2-0.3-0.5-0.6-0.8-0.8l-3.6-2.1
		"/>
	<path class="st43" d="M458.6,433.6l4.6,2.6c1.6,0.9,3.4,0.9,5,0l15.4-8.7c1-0.6,1.4-1.9,0.8-2.9c-0.2-0.3-0.5-0.6-0.8-0.8l-3.6-2.1
		"/>
	<path class="st43" d="M458.6,445.9l4.6,2.6c1.6,0.9,3.4,0.9,5,0l15.4-8.7c1-0.6,1.4-1.9,0.8-2.9c-0.2-0.3-0.5-0.6-0.8-0.8l-3.5-2.1
		"/>
	<ellipse class="st44" cx="328.2" cy="476.3" rx="2.2" ry="2.2"/>
	<line class="st45" x1="328.2" y1="476.3" x2="326.9" y2="477"/>
	<g>
		<g>
			<linearGradient id="SVGID_3_" gradientUnits="userSpaceOnUse" x1="167.8924" y1="540.6581" x2="325.9803" y2="540.6581">
				<stop  offset="7.995304e-02" style="stop-color:#FFFFFF"/>
				<stop  offset="1" style="stop-color:#9A9AC1"/>
			</linearGradient>
			<path class="st46" d="M169.5,604.5c-0.5,0-1.1-0.3-1.4-0.8c-0.4-0.8-0.2-1.7,0.6-2.2l2.5-1.4c0.6-0.3,1.2-0.3,1.7,0.1
				c-0.1-0.6,0.2-1.2,0.8-1.5l2.5-1.4c0.6-0.3,1.2-0.3,1.7,0.1c-0.1-0.6,0.2-1.2,0.8-1.5l2.5-1.4c0.6-0.3,1.2-0.3,1.7,0.1
				c-0.1-0.6,0.2-1.2,0.8-1.5l2.5-1.4c0.6-0.3,1.2-0.3,1.7,0.1c-0.1-0.6,0.2-1.2,0.8-1.5l2.5-1.4c0.6-0.3,1.2-0.3,1.7,0.1
				c-0.1-0.6,0.2-1.2,0.8-1.5l2.5-1.4c0.6-0.3,1.2-0.3,1.7,0.1c-0.1-0.6,0.2-1.2,0.8-1.5l2.5-1.4c0.6-0.3,1.2-0.3,1.7,0.1
				c-0.1-0.6,0.2-1.2,0.8-1.5l2.5-1.4c0.6-0.3,1.2-0.3,1.7,0.1c-0.1-0.6,0.2-1.2,0.8-1.5l2.5-1.4c0.6-0.3,1.2-0.3,1.7,0.1
				c-0.1-0.6,0.2-1.2,0.8-1.5l2.5-1.4c0.6-0.3,1.2-0.3,1.7,0.1c-0.1-0.6,0.2-1.2,0.8-1.5l2.5-1.4c0.6-0.3,1.2-0.3,1.7,0.1
				c-0.1-0.6,0.2-1.2,0.8-1.5l2.5-1.4c0.6-0.3,1.2-0.3,1.7,0.1c-0.1-0.6,0.2-1.2,0.8-1.5l2.5-1.4c0.6-0.3,1.2-0.3,1.7,0.1
				c-0.1-0.6,0.2-1.2,0.8-1.5l2.5-1.4c0.6-0.3,1.2-0.3,1.7,0.1c-0.1-0.6,0.2-1.2,0.8-1.5l2.5-1.4c0.6-0.3,1.2-0.3,1.7,0.1
				c-0.1-0.6,0.2-1.2,0.8-1.5l2.5-1.4c0.6-0.3,1.2-0.3,1.7,0.1c-0.1-0.6,0.2-1.2,0.8-1.5l2.5-1.4c0.6-0.3,1.2-0.3,1.7,0.1
				c-0.1-0.6,0.2-1.2,0.8-1.5l2.5-1.4c0.6-0.3,1.2-0.3,1.7,0.1c-0.1-0.6,0.2-1.2,0.8-1.5l2.5-1.4c0.6-0.3,1.2-0.3,1.7,0.1
				c-0.1-0.6,0.2-1.2,0.8-1.5l2.5-1.4c0.6-0.3,1.2-0.3,1.7,0.1c-0.1-0.6,0.2-1.2,0.8-1.5l2.5-1.4c0.6-0.3,1.2-0.3,1.7,0.1
				c-0.1-0.6,0.2-1.2,0.8-1.5l2.5-1.4c0.6-0.3,1.2-0.3,1.7,0.1c-0.1-0.6,0.2-1.2,0.8-1.5l2.5-1.4c0.6-0.3,1.2-0.3,1.7,0.1
				c-0.1-0.6,0.2-1.2,0.8-1.5l2.5-1.4c0.6-0.3,1.2-0.3,1.7,0.1c-0.1-0.6,0.2-1.2,0.8-1.5l2.5-1.4c0.6-0.3,1.2-0.3,1.7,0.1
				c-0.1-0.6,0.2-1.2,0.8-1.5l1.5-0.9c0.3-0.2,0.6-0.3,0.8-0.5c0.5-0.3,1.1-0.4,1.6-0.1c-0.2-0.5,0-1.1,0.4-1.5
				c0.6-0.6,1.1-1.3,1.5-2c0.3-0.5,0.9-0.8,1.4-0.8c-0.4-0.4-0.5-1-0.3-1.6c0.3-0.8,0.5-1.6,0.5-2.5c0.1-0.6,0.5-1.1,1-1.3
				c-0.5-0.3-0.9-0.8-0.9-1.4V514c0-0.6,0.4-1.2,1-1.5c-0.6-0.2-1-0.8-1-1.4v-2.9c0-0.6,0.4-1.2,1-1.4c-0.6-0.2-1-0.8-1-1.5v-2.9
				c0-0.6,0.4-1.2,1-1.5c-0.6-0.2-1-0.8-1-1.5v-2.2c0-0.2,0-0.5,0-0.7c0-0.7,0.5-1.3,1.2-1.5c-0.6-0.4-0.9-1.1-0.7-1.8
				c0.3-1.1,0.7-2.1,1.3-3c0.4-0.6,1.1-0.9,1.7-0.8c-0.3-0.6-0.3-1.4,0.2-1.9c0.7-0.8,1.6-1.5,2.5-2.1c0.6-0.4,1.3-0.3,1.8,0.1
				c-0.1-0.6,0.2-1.2,0.8-1.6l2.5-1.4c0.6-0.3,1.2-0.2,1.7,0.1c-0.1-0.6,0.2-1.2,0.8-1.5l2.5-1.4c0.6-0.3,1.2-0.2,1.7,0.1
				c-0.1-0.6,0.2-1.2,0.8-1.5l2.5-1.4c0.8-0.4,1.7-0.2,2.2,0.6s0.2,1.7-0.6,2.2l-2.5,1.4c-0.6,0.3-1.2,0.2-1.7-0.1
				c0.1,0.6-0.2,1.2-0.8,1.5l-2.5,1.4c-0.6,0.3-1.2,0.2-1.7-0.1c0.1,0.6-0.2,1.2-0.8,1.5l-2.5,1.4c-0.6,0.3-1.2,0.2-1.7-0.1
				c0.1,0.6-0.2,1.2-0.7,1.5c-0.7,0.5-1.4,1-1.9,1.6c-0.4,0.4-1,0.6-1.5,0.5c0.3,0.5,0.3,1.1,0,1.6c-0.4,0.7-0.7,1.5-1,2.3
				c-0.2,0.6-0.6,1-1.1,1.1c0.5,0.3,0.7,0.8,0.7,1.4c0,0.2,0,0.4,0,0.6v2.2c0,0.6-0.4,1.2-1,1.5c0.6,0.2,1,0.8,1,1.5v2.9
				c0,0.6-0.4,1.2-1,1.5c0.6,0.2,1,0.8,1,1.4v2.9c0,0.6-0.4,1.2-1,1.4c0.6,0.2,1,0.8,1,1.5v2.9c0,0.7-0.4,1.2-1,1.5
				c0.6,0.3,1,0.9,0.9,1.6c-0.1,1.1-0.4,2.1-0.7,3.2c-0.2,0.7-0.8,1-1.5,1.1c0.4,0.5,0.5,1.3,0.2,1.9c-0.6,0.9-1.2,1.8-1.9,2.6
				c-0.5,0.5-1.2,0.6-1.8,0.3c0.2,0.6,0,1.4-0.6,1.8c-0.3,0.2-0.7,0.5-1.1,0.7l-1.5,0.9c-0.6,0.3-1.2,0.3-1.7-0.1
				c0.1,0.6-0.2,1.2-0.8,1.5l-2.5,1.4c-0.6,0.3-1.2,0.3-1.7-0.1c0.1,0.6-0.2,1.2-0.8,1.5l-2.5,1.4c-0.6,0.3-1.2,0.3-1.7-0.1
				c0.1,0.6-0.2,1.2-0.8,1.5L281,541c-0.6,0.3-1.2,0.3-1.7-0.1c0.1,0.6-0.2,1.2-0.8,1.5l-2.5,1.4c-0.6,0.3-1.2,0.3-1.7-0.1
				c0.1,0.6-0.2,1.2-0.8,1.5l-2.5,1.4c-0.6,0.3-1.2,0.3-1.7-0.1c0.1,0.6-0.2,1.2-0.8,1.5l-2.5,1.4c-0.6,0.3-1.2,0.3-1.7-0.1
				c0.1,0.6-0.2,1.2-0.8,1.5l-2.5,1.4c-0.6,0.3-1.2,0.3-1.7-0.1c0.1,0.6-0.2,1.2-0.8,1.5l-2.5,1.4c-0.6,0.3-1.2,0.3-1.7-0.1
				c0.1,0.6-0.2,1.2-0.8,1.5l-2.5,1.4c-0.6,0.3-1.2,0.3-1.7-0.1c0.1,0.6-0.2,1.2-0.8,1.5l-2.5,1.4c-0.6,0.3-1.2,0.3-1.7-0.1
				c0.1,0.6-0.2,1.2-0.8,1.5l-2.5,1.4c-0.6,0.3-1.2,0.3-1.7-0.1c0.1,0.6-0.2,1.2-0.8,1.5l-2.5,1.4c-0.6,0.3-1.2,0.3-1.7-0.1
				c0.1,0.6-0.2,1.2-0.8,1.5l-2.5,1.4c-0.6,0.3-1.2,0.3-1.7-0.1c0.1,0.6-0.2,1.2-0.8,1.5l-2.5,1.4c-0.6,0.3-1.2,0.3-1.7-0.1
				c0.1,0.6-0.2,1.2-0.8,1.5l-2.5,1.4c-0.6,0.3-1.2,0.3-1.7-0.1c0.1,0.6-0.2,1.2-0.8,1.5l-2.5,1.4c-0.6,0.3-1.2,0.3-1.7-0.1
				c0.1,0.6-0.2,1.2-0.8,1.5l-2.5,1.4c-0.6,0.3-1.2,0.3-1.7-0.1c0.1,0.6-0.2,1.2-0.8,1.5l-2.5,1.4c-0.6,0.3-1.2,0.3-1.7-0.1
				c0.1,0.6-0.2,1.2-0.8,1.5l-2.5,1.4c-0.6,0.3-1.2,0.3-1.7-0.1c0.1,0.6-0.2,1.2-0.8,1.5l-2.5,1.4c-0.6,0.3-1.2,0.3-1.7-0.1
				c0.1,0.6-0.2,1.2-0.8,1.5l-2.5,1.4c-0.6,0.3-1.2,0.3-1.7-0.1c0.1,0.6-0.2,1.2-0.8,1.5l-2.5,1.4c-0.6,0.3-1.2,0.3-1.7-0.1
				c0.1,0.6-0.2,1.2-0.8,1.5l-2.5,1.4c-0.6,0.3-1.2,0.3-1.7-0.1c0.1,0.6-0.2,1.2-0.8,1.5l-2.5,1.4c-0.6,0.3-1.2,0.3-1.7-0.1
				c0.1,0.6-0.2,1.2-0.8,1.5l-2.5,1.4C170,604.4,169.7,604.5,169.5,604.5z"/>
		</g>
	</g>
	<ellipse class="st44" cx="333.9" cy="478.9" rx="2.2" ry="2.2"/>
	<line class="st45" x1="333.9" y1="478.9" x2="332.6" y2="479.6"/>
	<g>
		<linearGradient id="SVGID_4_" gradientUnits="userSpaceOnUse" x1="173.5364" y1="543.2237" x2="331.6798" y2="543.2237">
			<stop  offset="7.995304e-02" style="stop-color:#FFFFFF"/>
			<stop  offset="1" style="stop-color:#9A9AC1"/>
		</linearGradient>
		<path class="st47" d="M175.1,607c-0.5,0-1.1-0.3-1.4-0.8c-0.4-0.8-0.2-1.7,0.6-2.2l2.5-1.4c0.6-0.3,1.2-0.3,1.7,0.1
			c-0.1-0.6,0.2-1.2,0.8-1.5l2.5-1.4c0.6-0.3,1.2-0.3,1.7,0.1c-0.1-0.6,0.2-1.2,0.8-1.5l2.5-1.4c0.6-0.3,1.2-0.3,1.7,0.1
			c-0.1-0.6,0.2-1.2,0.8-1.5l2.5-1.4c0.6-0.3,1.2-0.3,1.7,0.1c-0.1-0.6,0.2-1.2,0.8-1.5l2.5-1.4c0.6-0.3,1.2-0.3,1.7,0.1
			c-0.1-0.6,0.2-1.2,0.8-1.5l2.5-1.4c0.6-0.3,1.2-0.3,1.7,0.1c-0.1-0.6,0.2-1.2,0.8-1.5l2.5-1.4c0.6-0.3,1.2-0.3,1.7,0.1
			c-0.1-0.6,0.2-1.2,0.8-1.5l2.5-1.4c0.6-0.3,1.2-0.3,1.7,0.1c-0.1-0.6,0.2-1.2,0.8-1.5l2.5-1.4c0.6-0.3,1.2-0.3,1.7,0.1
			c-0.1-0.6,0.2-1.2,0.8-1.5l2.5-1.4c0.6-0.3,1.2-0.3,1.7,0.1c-0.1-0.6,0.2-1.2,0.8-1.5l2.5-1.4c0.6-0.3,1.2-0.3,1.7,0.1
			c-0.1-0.6,0.2-1.2,0.8-1.5l2.5-1.4c0.6-0.3,1.2-0.3,1.7,0.1c-0.1-0.6,0.2-1.2,0.8-1.5l2.5-1.4c0.6-0.3,1.2-0.3,1.7,0.1
			c-0.1-0.6,0.2-1.2,0.8-1.5l2.5-1.4c0.6-0.3,1.2-0.3,1.7,0.1c-0.1-0.6,0.2-1.2,0.8-1.5l2.5-1.4c0.6-0.3,1.2-0.3,1.7,0.1
			c-0.1-0.6,0.2-1.2,0.8-1.5l2.5-1.4c0.6-0.3,1.2-0.3,1.7,0.1c-0.1-0.6,0.2-1.2,0.8-1.5l2.5-1.4c0.6-0.3,1.2-0.3,1.7,0.1
			c-0.1-0.6,0.2-1.2,0.8-1.5l2.5-1.4c0.6-0.3,1.2-0.3,1.7,0.1c-0.1-0.6,0.2-1.2,0.8-1.5l2.5-1.4c0.6-0.3,1.2-0.3,1.7,0.1
			c-0.1-0.6,0.2-1.2,0.8-1.5l2.5-1.4c0.6-0.3,1.2-0.3,1.7,0.1c-0.1-0.6,0.2-1.2,0.8-1.5l2.5-1.4c0.6-0.3,1.2-0.3,1.7,0.1
			c-0.1-0.6,0.2-1.2,0.8-1.5l2.5-1.4c0.6-0.3,1.2-0.3,1.7,0.1c-0.1-0.6,0.2-1.2,0.8-1.5l2.5-1.4c0.6-0.3,1.2-0.3,1.7,0.1
			c-0.1-0.6,0.2-1.2,0.8-1.5l2.5-1.4c0.6-0.3,1.2-0.3,1.7,0.1c-0.1-0.6,0.2-1.2,0.8-1.5l2.5-1.4c0.6-0.3,1.2-0.3,1.7,0.1
			c-0.1-0.6,0.2-1.2,0.8-1.5l1.6-0.9c0.3-0.2,0.6-0.3,0.8-0.5c0.5-0.3,1.1-0.3,1.6-0.1c-0.2-0.5,0-1.1,0.4-1.5
			c0.6-0.6,1.1-1.3,1.5-2c0.3-0.5,0.8-0.8,1.4-0.8c-0.4-0.4-0.5-1-0.3-1.5c0.3-0.8,0.5-1.6,0.5-2.5c0.1-0.6,0.5-1.1,1-1.3
			c-0.5-0.3-0.9-0.8-0.9-1.4v-2.9c0-0.6,0.4-1.2,1-1.5c-0.6-0.2-1-0.8-1-1.5v-2.9c0-0.6,0.4-1.2,1-1.4c-0.6-0.2-1-0.8-1-1.5V505
			c0-0.6,0.4-1.2,1-1.5c-0.6-0.2-1-0.8-1-1.4v-2.3c0-0.2,0-0.4,0-0.6c0-0.7,0.5-1.3,1.2-1.5c-0.6-0.4-0.9-1.1-0.7-1.8
			c0.3-1.1,0.7-2.1,1.3-3c0.4-0.6,1.1-0.9,1.7-0.8c-0.3-0.6-0.3-1.3,0.2-1.9c0.7-0.8,1.6-1.5,2.5-2.1c0.6-0.4,1.3-0.3,1.8,0.1
			c-0.1-0.6,0.2-1.2,0.8-1.6l2.5-1.4c0.6-0.3,1.2-0.2,1.7,0.1c-0.1-0.6,0.2-1.2,0.8-1.5l2.5-1.4c0.6-0.3,1.2-0.2,1.7,0.1
			c-0.1-0.6,0.2-1.2,0.8-1.5l2.5-1.4c0.8-0.4,1.7-0.2,2.2,0.6c0.4,0.8,0.2,1.7-0.6,2.2l-2.5,1.4c-0.6,0.3-1.2,0.2-1.7-0.1
			c0.1,0.6-0.2,1.2-0.8,1.5l-2.5,1.4c-0.6,0.3-1.2,0.2-1.7-0.1c0.1,0.6-0.2,1.2-0.8,1.5l-2.5,1.4c-0.6,0.3-1.2,0.2-1.7-0.1
			c0.1,0.6-0.2,1.2-0.7,1.5c-0.7,0.5-1.4,1-1.9,1.6c-0.4,0.4-1,0.6-1.5,0.5c0.3,0.5,0.3,1.1,0,1.6c-0.4,0.7-0.7,1.5-1,2.3
			c-0.2,0.6-0.6,1-1.1,1.1c0.5,0.3,0.7,0.8,0.7,1.4c0,0.2,0,0.3,0,0.5v2.3c0,0.6-0.4,1.2-1,1.4c0.6,0.2,1,0.8,1,1.5v2.9
			c0,0.6-0.4,1.2-1,1.5c0.6,0.2,1,0.8,1,1.4v2.9c0,0.6-0.4,1.2-1,1.5c0.6,0.2,1,0.8,1,1.5v2.9c0,0.7-0.4,1.2-1,1.5
			c0.6,0.3,1,0.9,0.9,1.6c-0.1,1.1-0.3,2.1-0.7,3.2c-0.2,0.7-0.8,1.1-1.5,1.1c0.4,0.5,0.5,1.3,0.2,1.9c-0.6,0.9-1.2,1.8-2,2.6
			c-0.5,0.5-1.2,0.6-1.8,0.3c0.2,0.6-0.1,1.4-0.6,1.8c-0.3,0.2-0.7,0.4-1,0.6l-1.6,0.9c-0.6,0.3-1.2,0.3-1.7-0.1
			c0.1,0.6-0.2,1.2-0.8,1.5l-2.5,1.4c-0.6,0.3-1.2,0.3-1.7-0.1c0.1,0.6-0.2,1.2-0.8,1.5l-2.5,1.4c-0.6,0.3-1.2,0.3-1.7-0.1
			c0.1,0.6-0.2,1.2-0.8,1.5l-2.5,1.4c-0.6,0.3-1.2,0.3-1.7-0.1c0.1,0.6-0.2,1.2-0.8,1.5l-2.5,1.4c-0.6,0.3-1.2,0.3-1.7-0.1
			c0.1,0.6-0.2,1.2-0.8,1.5l-2.5,1.4c-0.6,0.3-1.2,0.3-1.7-0.1c0.1,0.6-0.2,1.2-0.8,1.5l-2.5,1.4c-0.6,0.3-1.2,0.3-1.7-0.1
			c0.1,0.6-0.2,1.2-0.8,1.5l-2.5,1.4c-0.6,0.3-1.2,0.3-1.7-0.1c0.1,0.6-0.2,1.2-0.8,1.5l-2.5,1.4c-0.6,0.3-1.2,0.3-1.7-0.1
			c0.1,0.6-0.2,1.2-0.8,1.5l-2.5,1.4c-0.6,0.3-1.2,0.3-1.7-0.1c0.1,0.6-0.2,1.2-0.8,1.5l-2.5,1.4c-0.6,0.3-1.2,0.3-1.7-0.1
			c0.1,0.6-0.2,1.2-0.8,1.5l-2.5,1.4c-0.6,0.3-1.2,0.3-1.7-0.1c0.1,0.6-0.2,1.2-0.8,1.5l-2.5,1.4c-0.6,0.3-1.2,0.3-1.7-0.1
			c0.1,0.6-0.2,1.2-0.8,1.5l-2.5,1.4c-0.6,0.3-1.2,0.3-1.7-0.1c0.1,0.6-0.2,1.2-0.8,1.5l-2.5,1.4c-0.6,0.3-1.2,0.3-1.7-0.1
			c0.1,0.6-0.2,1.2-0.8,1.5l-2.5,1.4c-0.6,0.3-1.2,0.3-1.7-0.1c0.1,0.6-0.2,1.2-0.8,1.5l-2.5,1.4c-0.6,0.3-1.2,0.3-1.7-0.1
			c0.1,0.6-0.2,1.2-0.8,1.5l-2.5,1.4c-0.6,0.3-1.2,0.3-1.7-0.1c0.1,0.6-0.2,1.2-0.8,1.5l-2.5,1.4c-0.6,0.3-1.2,0.3-1.7-0.1
			c0.1,0.6-0.2,1.2-0.8,1.5l-2.5,1.4c-0.6,0.3-1.2,0.3-1.7-0.1c0.1,0.6-0.2,1.2-0.8,1.5l-2.5,1.4c-0.6,0.3-1.2,0.3-1.7-0.1
			c0.1,0.6-0.2,1.2-0.8,1.5l-2.5,1.4c-0.6,0.3-1.2,0.3-1.7-0.1c0.1,0.6-0.2,1.2-0.8,1.5l-2.5,1.4c-0.6,0.3-1.2,0.3-1.7-0.1
			c0.1,0.6-0.2,1.2-0.8,1.5l-2.5,1.4c-0.6,0.3-1.2,0.3-1.7-0.1c0.1,0.6-0.2,1.2-0.8,1.5l-2.5,1.4c-0.6,0.3-1.2,0.3-1.7-0.1
			c0.1,0.6-0.2,1.2-0.8,1.5l-2.5,1.4C175.7,607,175.4,607,175.1,607z"/>
	</g>
	
		<linearGradient id="SVGID_5_" gradientUnits="userSpaceOnUse" x1="316.695" y1="613.8" x2="349.325" y2="613.8" gradientTransform="matrix(1 0 0 1 0 -164)">
		<stop  offset="0" style="stop-color:#070034"/>
		<stop  offset="0.3" style="stop-color:#180743"/>
		<stop  offset="0.68" style="stop-color:#260E50"/>
		<stop  offset="1" style="stop-color:#2B1054"/>
	</linearGradient>
	<path class="st48" d="M319.5,433.1l27,15.3c1.5,0.8,2.4,2.4,2.4,4.1v12.6c0,0.9-0.8,1.6-1.7,1.6c-0.3,0-0.5-0.1-0.8-0.2l-27.1-15.4
		c-1.4-0.8-2.3-2.3-2.3-4v-12.6c0-0.9,0.7-1.6,1.6-1.6C319,432.9,319.3,433,319.5,433.1z"/>
	<polygon class="st49" points="425.5,508.8 425.5,484.7 468,460.6 468,484.7 	"/>
	<polygon class="st44" points="425.5,484.7 425.5,499.4 459.7,480 459.7,465.3 	"/>
	<g id="billing-belt-2_1_">
		<linearGradient id="SVGID_6_" gradientUnits="userSpaceOnUse" x1="425.35" y1="496.675" x2="657.05" y2="496.675">
			<stop  offset="0" style="stop-color:#E3DCFF"/>
			<stop  offset="0.3901" style="stop-color:#E5DFFF"/>
			<stop  offset="0.6311" style="stop-color:#ECE7FF"/>
			<stop  offset="0.8311" style="stop-color:#F7F6FF"/>
			<stop  offset="0.9224" style="stop-color:#FFFFFF"/>
		</linearGradient>
		<path class="st50" d="M657,448.7l-119,67.7c-4.4,2.5-9.9,2.5-14.3,0l-46-26l-31.1-17.5l-21.2,12l105.5,59.7l126.2-71.8L657,448.7z
			"/>
		<linearGradient id="SVGID_7_" gradientUnits="userSpaceOnUse" x1="425.35" y1="508.85" x2="656.9501" y2="508.85">
			<stop  offset="0" style="stop-color:#A69DF4"/>
			<stop  offset="0.2778" style="stop-color:#A8A0F4"/>
			<stop  offset="0.4494" style="stop-color:#B0A8F5"/>
			<stop  offset="0.5923" style="stop-color:#BDB7F7"/>
			<stop  offset="0.7193" style="stop-color:#D0CBF9"/>
			<stop  offset="0.8348" style="stop-color:#E8E5FC"/>
			<stop  offset="0.9224" style="stop-color:#FFFFFF"/>
		</linearGradient>
		<path class="st51" d="M538.1,540.5L657,472.8v2.4l-118.9,67.7c-4.5,2.6-10.1,2.6-14.6,0l-98.1-55.5v-2.5l98.1,55.5
			C528,543,533.6,543,538.1,540.5z"/>
	</g>
	<polygon class="st38" points="455.9,496.3 478.9,483.2 490.4,489.8 467.4,502.8 	"/>
	<polygon class="st52" points="455.9,499.6 455.9,496.3 467.4,502.8 467.4,506.1 	"/>
	<polygon class="st53" points="490.5,493 490.4,489.8 467.4,502.8 467.4,506.1 	"/>
	<line class="st54" x1="467.9" y1="501.9" x2="457.5" y2="496"/>
	<polygon class="st55" points="457.2,496.3 478.9,484 489.2,489.8 467.4,502 	"/>
	<polygon class="st38" points="458.6,496.3 478.9,484.8 488.1,489.8 467.4,501.2 	"/>
	<ellipse class="st55" cx="478.9" cy="485.3" rx="1.4" ry="0.8"/>
	<ellipse class="st55" cx="467.4" cy="500.8" rx="1.4" ry="0.8"/>
	<ellipse class="st55" cx="459.7" cy="496.3" rx="1.6" ry="0.9"/>
	<ellipse class="st55" cx="486.6" cy="489.8" rx="1.6" ry="0.9"/>
	<path class="st55" d="M480,488.2L480,488.2c0.9,0.3,1.3,1.3,0.9,2.2c-0.2,0.4-0.5,0.8-0.9,0.9l0,0c-0.7,0.3-1.5,0.3-2.1,0l0,0
		c-0.9-0.3-1.3-1.3-0.9-2.2c0.2-0.4,0.5-0.8,0.9-0.9l0,0C478.5,487.9,479.3,487.9,480,488.2z"/>
	<path class="st55" d="M474.9,490.5L474.9,490.5c1.4,0.6,2.1,2.2,1.5,3.6c-0.3,0.7-0.8,1.3-1.5,1.5l0,0c-1.1,0.5-2.4,0.5-3.5,0l0,0
		c-1.4-0.5-2.1-2.1-1.6-3.5c0.3-0.7,0.8-1.3,1.6-1.6l0,0C472.6,490,473.8,490,474.9,490.5z"/>
	<path class="st55" d="M468.5,494.7L468.5,494.7c0.9,0.3,1.3,1.3,0.9,2.2c-0.2,0.4-0.5,0.8-0.9,0.9l0,0c-0.7,0.3-1.5,0.3-2.1,0l0,0
		c-0.9-0.3-1.3-1.3-0.9-2.2c0.2-0.4,0.5-0.8,0.9-0.9l0,0C467,494.4,467.8,494.4,468.5,494.7z"/>
	<polygon class="st38" points="475.5,507.7 498.6,494.7 510.1,501.2 487,514.3 	"/>
	<polygon class="st52" points="475.5,511 475.5,507.7 487,514.3 487,517.5 	"/>
	<polygon class="st53" points="510.1,504.5 510.1,501.2 487,514.3 487,517.5 	"/>
	<line class="st54" x1="487.6" y1="513.3" x2="477.1" y2="507.4"/>
	<polygon class="st55" points="476.8,507.7 498.6,495.4 508.8,501.2 487,513.5 	"/>
	<polygon class="st38" points="478.3,507.7 498.6,496.2 507.7,501.2 487,512.7 	"/>
	<ellipse class="st55" cx="498.6" cy="496.8" rx="1.4" ry="0.8"/>
	<path class="st55" d="M487,511.4c0.8,0,1.4,0.4,1.4,0.8c0,0.5-0.6,0.8-1.4,0.8s-1.4-0.4-1.4-0.8C485.6,511.7,486.3,511.4,487,511.4
		z"/>
	<ellipse class="st55" cx="479.4" cy="507.7" rx="1.6" ry="0.9"/>
	<ellipse class="st55" cx="506.2" cy="501.2" rx="1.6" ry="0.9"/>
	<path class="st55" d="M499.6,499.6L499.6,499.6c0.9,0.3,1.3,1.3,0.9,2.2c-0.2,0.4-0.5,0.8-0.9,0.9l0,0c-0.7,0.3-1.5,0.3-2.1,0l0,0
		c-0.9-0.3-1.3-1.3-0.9-2.2c0.2-0.4,0.5-0.8,0.9-0.9l0,0C498.2,499.3,499,499.3,499.6,499.6z"/>
	<path class="st55" d="M494.6,502L494.6,502c1.4,0.5,2.1,2.1,1.6,3.5c-0.3,0.7-0.8,1.3-1.6,1.6l0,0c-1.1,0.5-2.4,0.5-3.5,0l0,0
		c-1.4-0.5-2.1-2.1-1.6-3.5c0.3-0.7,0.8-1.3,1.6-1.6l0,0C492.2,501.5,493.5,501.5,494.6,502z"/>
	<path class="st55" d="M488.1,506.2L488.1,506.2c0.9,0.3,1.3,1.3,0.9,2.2c-0.2,0.4-0.5,0.8-0.9,0.9l0,0c-0.7,0.3-1.5,0.3-2.1,0l0,0
		c-0.9-0.3-1.3-1.3-0.9-2.2c0.2-0.4,0.5-0.8,0.9-0.9l0,0C486.6,505.8,487.4,505.8,488.1,506.2z"/>
	<polygon class="st38" points="496.2,519.6 519.2,506.5 530.8,513.1 507.7,526.1 	"/>
	<polygon class="st52" points="496.2,522.9 496.2,519.6 507.7,526.1 507.7,529.4 	"/>
	<polygon class="st53" points="530.8,516.3 530.8,513.1 507.7,526.1 507.7,529.4 	"/>
	<line class="st54" x1="508.3" y1="525.2" x2="497.8" y2="519.3"/>
	<polygon class="st55" points="497.5,519.6 519.2,507.3 529.5,513.1 507.7,525.3 	"/>
	<polygon class="st38" points="499,519.6 519.2,508.1 528.4,513.1 507.7,524.5 	"/>
	<ellipse class="st55" cx="519.2" cy="508.6" rx="1.4" ry="0.8"/>
	<ellipse class="st55" cx="507.7" cy="524.1" rx="1.4" ry="0.8"/>
	<ellipse class="st55" cx="500" cy="519.6" rx="1.6" ry="0.9"/>
	<ellipse class="st55" cx="526.9" cy="513.1" rx="1.6" ry="0.9"/>
	<path class="st55" d="M520.3,511.5L520.3,511.5c0.9,0.3,1.3,1.3,0.9,2.2c-0.2,0.4-0.5,0.8-0.9,0.9l0,0c-0.7,0.3-1.5,0.3-2.2,0l0,0
		c-0.9-0.3-1.3-1.3-0.9-2.2c0.2-0.4,0.5-0.8,0.9-0.9l0,0C518.8,511.2,519.6,511.2,520.3,511.5z"/>
	<path class="st55" d="M515.3,513.9L515.3,513.9c1.4,0.5,2.1,2.1,1.6,3.5c-0.3,0.7-0.8,1.3-1.6,1.6l0,0c-1.1,0.5-2.4,0.5-3.5,0l0,0
		c-1.4-0.5-2.1-2.1-1.6-3.5c0.3-0.7,0.8-1.3,1.6-1.6l0,0C512.9,513.3,514.2,513.3,515.3,513.9z"/>
	<path class="st55" d="M508.8,518L508.8,518c0.9,0.3,1.3,1.3,1,2.2c-0.2,0.4-0.5,0.8-1,1l0,0c-0.7,0.3-1.5,0.3-2.1,0l0,0
		c-0.9-0.3-1.3-1.3-0.9-2.2c0.2-0.4,0.5-0.8,0.9-0.9l0,0C507.3,517.7,508.1,517.7,508.8,518z"/>
	<polygon class="st38" points="574.5,514.3 551.5,501.2 539.9,507.8 563,520.8 	"/>
	<polygon class="st52" points="574.5,517.6 574.5,514.3 563,520.8 563,524.1 	"/>
	<polygon class="st53" points="539.9,511 539.9,507.8 563,520.8 563,524.1 	"/>
	<line class="st54" x1="562.4" y1="519.9" x2="572.9" y2="514"/>
	<polygon class="st55" points="573.2,514.3 551.5,501.9 541.2,507.8 563,520 	"/>
	<polygon class="st38" points="571.8,514.3 551.5,502.8 542.3,507.8 563,519.2 	"/>
	<ellipse class="st55" cx="551.5" cy="503.3" rx="1.4" ry="0.8"/>
	<ellipse class="st55" cx="563" cy="518.8" rx="1.4" ry="0.8"/>
	<ellipse class="st55" cx="570.7" cy="514.3" rx="1.6" ry="0.9"/>
	<ellipse class="st55" cx="543.8" cy="507.8" rx="1.6" ry="0.9"/>
	<path class="st55" d="M550.4,506.2L550.4,506.2c-0.9,0.3-1.3,1.3-0.9,2.2c0.2,0.4,0.5,0.8,0.9,0.9l0,0c0.7,0.3,1.5,0.3,2.2,0l0,0
		c0.9-0.3,1.3-1.3,0.9-2.2c-0.2-0.4-0.5-0.8-0.9-0.9l0,0C551.9,505.9,551.1,505.9,550.4,506.2z"/>
	<path class="st55" d="M555.5,508.5L555.5,508.5c-1.4,0.5-2.1,2.1-1.6,3.5c0.3,0.7,0.8,1.3,1.6,1.6l0,0c1.1,0.5,2.4,0.5,3.5,0l0,0
		c1.4-0.5,2.1-2.1,1.6-3.5c-0.3-0.7-0.8-1.3-1.6-1.6l0,0C557.8,508,556.6,508,555.5,508.5z"/>
	<path class="st55" d="M561.9,512.7L561.9,512.7c-0.9,0.3-1.3,1.3-0.9,2.2c0.2,0.4,0.5,0.8,0.9,0.9l0,0c0.7,0.3,1.5,0.3,2.1,0l0,0
		c0.9-0.3,1.3-1.3,0.9-2.2c-0.2-0.4-0.5-0.8-0.9-0.9l0,0C563.4,512.4,562.6,512.4,561.9,512.7z"/>
	<polygon class="st38" points="598,499.6 575,486.5 563.5,493 586.5,506.1 	"/>
	<polygon class="st52" points="598,502.8 598,499.6 586.5,506.1 586.5,509.4 	"/>
	<polygon class="st53" points="563.5,496.3 563.5,493 586.5,506.1 586.5,509.4 	"/>
	<line class="st54" x1="586" y1="505.2" x2="596.4" y2="499.3"/>
	<polygon class="st55" points="596.7,499.6 575,487.2 564.7,493 586.5,505.3 	"/>
	<polygon class="st38" points="595.3,499.6 575,488 565.8,493 586.5,504.5 	"/>
	<ellipse class="st55" cx="575" cy="488.6" rx="1.4" ry="0.8"/>
	<ellipse class="st55" cx="586.5" cy="504" rx="1.4" ry="0.8"/>
	<ellipse class="st55" cx="594.2" cy="499.6" rx="1.6" ry="0.9"/>
	<ellipse class="st55" cx="567.3" cy="493" rx="1.6" ry="0.9"/>
	<path class="st55" d="M573.9,491.5L573.9,491.5c-0.9,0.3-1.3,1.3-0.9,2.2c0.2,0.4,0.5,0.8,0.9,0.9l0,0c0.7,0.3,1.5,0.3,2.1,0l0,0
		c0.9-0.3,1.3-1.3,0.9-2.2c-0.2-0.4-0.5-0.8-0.9-0.9l0,0C575.4,491.1,574.6,491.1,573.9,491.5z"/>
	<path class="st55" d="M579,493.8L579,493.8c-1.4,0.5-2.1,2.1-1.6,3.5c0.3,0.7,0.8,1.3,1.6,1.6l0,0c1.1,0.5,2.4,0.5,3.5,0l0,0
		c1.4-0.5,2.1-2.1,1.6-3.5c-0.3-0.7-0.8-1.3-1.6-1.6l0,0C581.4,493.3,580.1,493.3,579,493.8z"/>
	<path class="st55" d="M585.4,498L585.4,498c-0.9,0.3-1.3,1.3-0.9,2.2c0.2,0.4,0.5,0.8,0.9,0.9l0,0c0.7,0.3,1.5,0.3,2.2,0l0,0
		c0.9-0.3,1.3-1.3,0.9-2.2c-0.2-0.4-0.5-0.8-0.9-0.9l0,0C586.9,497.7,586.1,497.7,585.4,498z"/>
	<polygon class="st38" points="622.7,485.6 599.6,472.5 588.1,479 611.2,492.1 	"/>
	<polygon class="st52" points="622.7,488.9 622.7,485.6 611.2,492.1 611.2,495.4 	"/>
	<polygon class="st53" points="588.1,482.3 588.1,479 611.2,492.1 611.2,495.4 	"/>
	<line class="st54" x1="610.6" y1="491.2" x2="621.1" y2="485.3"/>
	<polygon class="st55" points="621.4,485.6 599.6,473.2 589.4,479 611.2,491.3 	"/>
	<polygon class="st38" points="619.9,485.6 599.6,474 590.5,479 611.2,490.5 	"/>
	<ellipse class="st55" cx="599.6" cy="474.6" rx="1.4" ry="0.8"/>
	<ellipse class="st55" cx="611.2" cy="490" rx="1.4" ry="0.8"/>
	<ellipse class="st55" cx="618.8" cy="485.6" rx="1.6" ry="0.9"/>
	<ellipse class="st55" cx="592" cy="479" rx="1.6" ry="0.9"/>
	<path class="st55" d="M598.6,477.5L598.6,477.5c-0.9,0.3-1.3,1.3-0.9,2.2c0.2,0.4,0.5,0.8,0.9,0.9l0,0c0.7,0.3,1.5,0.3,2.1,0l0,0
		c0.9-0.3,1.3-1.3,0.9-2.2c-0.2-0.4-0.5-0.8-0.9-0.9l0,0C600,477.2,599.2,477.2,598.6,477.5z"/>
	<path class="st55" d="M603.6,479.8L603.6,479.8c-1.4,0.5-2.1,2.1-1.6,3.5c0.3,0.7,0.8,1.3,1.6,1.6l0,0c1.1,0.5,2.4,0.5,3.5,0l0,0
		c1.4-0.5,2.1-2.1,1.6-3.5c-0.3-0.7-0.8-1.3-1.6-1.6l0,0C606,479.3,604.7,479.3,603.6,479.8z"/>
	<path class="st55" d="M610.1,484L610.1,484c-0.9,0.3-1.3,1.3-0.9,2.2c0.2,0.4,0.5,0.8,0.9,0.9l0,0c0.7,0.3,1.5,0.3,2.1,0l0,0
		c0.9-0.3,1.3-1.3,1-2.2c-0.2-0.4-0.5-0.8-1-1l0,0C611.6,483.7,610.8,483.7,610.1,484z"/>
	<polygon class="st56" points="409.3,459.3 420,465.3 420,423.1 414.6,420.2 414.6,456.3 409.3,453.3 	"/>
	<polygon class="st44" points="430.4,417.1 420,423.1 420,465.3 430.4,459.2 	"/>
	<polygon class="st57" points="430.4,417.1 425.2,414.2 414.6,420.2 420,423.1 	"/>
	<polygon class="st44" points="409.3,453.3 414.6,450.3 414.6,453.3 414.6,456.3 	"/>
	<polygon class="st56" points="425.2,420.2 425.2,414.2 430.4,417.1 	"/>
	<path class="st58" d="M368.4,443.7v29.5c0,0.4,0.2,0.7,0.5,0.9l18.9,10.7c0.3,0.2,0.8,0.2,1.1,0c0.3-0.2,0.6-0.5,0.5-0.9v-29.5
		c0-0.4-0.2-0.7-0.5-0.9L370,442.7c-0.3-0.2-0.8-0.2-1.1,0C368.6,442.9,368.4,443.3,368.4,443.7z M369,471.9l0.6-1.1l19.1,10.8
		l-0.6,1.1L369,471.9z M369,467.6l0.6-1.1l19.1,10.8l-0.6,1.1L369,467.6z M369,463.3l0.6-1.1l19.1,10.8l-0.6,1.1L369,463.3z
		 M369,458.9l0.6-1.1l19.1,10.8l-0.6,1.1L369,458.9z M369,454.6l0.6-1.1l19.1,10.8l-0.6,1.1L369,454.6z M369,450.3l0.6-1.1
		l19.1,10.9l-0.6,1.1L369,450.3z M369,445.9l0.6-1.1l19.1,10.8l-0.6,1.1L369,445.9z"/>
	<path class="st40" d="M327.2,427.3L327.2,427.3c1,0.6,1.7,1.7,1.7,2.9l0,0c-0.1,0.9-0.8,1.6-1.7,1.5c-0.2,0-0.4-0.1-0.5-0.1v0.1
		c-1.1-0.7-1.8-1.9-1.9-3.2h0.1c0.1-0.9,0.9-1.4,1.8-1.3C326.8,427.1,327,427.2,327.2,427.3z"/>
	<path class="st39" d="M326.9,427.5L326.9,427.5c1,0.6,1.7,1.7,1.7,2.9l0,0c0,0.8-0.6,1.4-1.4,1.4c-0.2,0-0.5-0.1-0.7-0.2l0,0
		c-1-0.6-1.7-1.7-1.7-2.9l0,0c0-0.8,0.6-1.4,1.4-1.4C326.4,427.3,326.7,427.3,326.9,427.5z"/>
	<path class="st40" d="M332.2,430.1L332.2,430.1c1,0.6,1.7,1.7,1.7,2.9l0,0c-0.1,0.9-0.8,1.6-1.7,1.5c-0.2,0-0.4-0.1-0.5-0.1v0.1
		c-1.1-0.7-1.8-1.9-1.9-3.2h0.1c0.1-0.8,0.9-1.4,1.7-1.3C331.8,429.9,332,430,332.2,430.1z"/>
	<path class="st39" d="M331.9,430.3L331.9,430.3c1,0.6,1.7,1.7,1.7,2.9l0,0c0,0.8-0.6,1.4-1.4,1.4c-0.2,0-0.5-0.1-0.7-0.2l0,0
		c-1-0.6-1.7-1.7-1.7-2.9l0,0c0-0.8,0.6-1.4,1.4-1.4C331.4,430.1,331.7,430.2,331.9,430.3z"/>
	<path class="st40" d="M337.3,433L337.3,433c1,0.6,1.7,1.7,1.7,2.9l0,0c-0.1,0.9-0.8,1.6-1.7,1.5c-0.2,0-0.4-0.1-0.5-0.1v0.1
		c-1.1-0.7-1.8-1.9-1.9-3.2h0.1c0.1-0.8,0.9-1.4,1.7-1.3C336.9,432.8,337.1,432.9,337.3,433z"/>
	<path class="st39" d="M336.9,433.2L336.9,433.2c1,0.6,1.7,1.7,1.7,2.9l0,0c0,0.8-0.6,1.4-1.4,1.4c-0.2,0-0.5-0.1-0.7-0.2l0,0
		c-1-0.6-1.7-1.7-1.7-2.9l0,0c0-0.8,0.6-1.4,1.4-1.4C336.5,433,336.7,433.1,336.9,433.2z"/>
</g>
<g id="Banner_Billing_Logic">
	<line class="st59" x1="389.1" y1="366.5" x2="388.6" y2="394.1"/>
	<path class="st60" d="M297,379.4c44-25.2,159-90.9,159-90.9c2.1-1.2,7.2,0.5,7.3,2.9l0.2,39c-0.2,3.3-1.9,6.4-4.8,8.2
		c-43.5,24.8-159.7,91-159.7,91c-2.1,1.2-7.2-1.7-7.2-4l-0.2-36.9C291.6,384.9,293.6,381.3,297,379.4z"/>
	<path class="st61" d="M299,380.9c43.7-25,159.5-91.2,159.5-91.2c1.5-0.9,3.4-0.4,4.3,1.1c0.3,0.5,0.4,1,0.4,1.5l0.2,38.2
		c0,3.2-1.7,6.2-4.6,7.8C415.5,363.2,299,429.5,299,429.5c-1.5,0.9-3.4,0.4-4.3-1.1c-0.3-0.5-0.4-1-0.4-1.5l-0.2-37.5
		C294.1,385.9,295.9,382.7,299,380.9z"/>
	<g class="st62">
		<path class="st63" d="M305.3,395.2l5-2.9c0.6-0.4,1.2-0.6,1.7-0.7s0.9-0.1,1.3,0s0.6,0.4,0.8,0.8c0.2,0.4,0.3,0.9,0.3,1.6
			s-0.1,1.3-0.3,1.9c-0.2,0.6-0.5,1.2-0.8,1.8c-0.4,0.6-0.8,1.1-1.3,1.5c-0.5,0.5-1.1,0.9-1.7,1.2l-2.9,1.7v4.3l-2.1,1.2V395.2z
			 M307.5,400l2.9-1.7c0.7-0.4,1.2-0.9,1.6-1.5c0.3-0.6,0.5-1.1,0.5-1.7s-0.2-1-0.5-1.1c-0.3-0.2-0.9,0-1.6,0.4l-2.9,1.7V400z"/>
	</g>
	<g class="st62">
		<path class="st63" d="M318.1,387.8l2-1.1l4.6,9.9l-2.2,1.3l-1.1-2.6l-4.2,2.5l-1.1,3.9l-2.2,1.3L318.1,387.8z M317.8,395.1
			l2.8-1.6l-1-2.4c0-0.1-0.1-0.2-0.1-0.3c0-0.1-0.1-0.2-0.1-0.4c0-0.1-0.1-0.3-0.2-0.4c-0.1,0.2-0.1,0.4-0.1,0.6s-0.1,0.4-0.1,0.5
			c0,0.2-0.1,0.3-0.1,0.5L317.8,395.1z"/>
	</g>
	<g class="st62">
		<path class="st63" d="M329.1,394l-2.1,1.2v-4.9l-3.7-5.5l2.3-1.3l2.1,3.3c0,0.1,0.1,0.1,0.1,0.2s0.1,0.2,0.1,0.2l0.1,0.2
			c0-0.1,0.1-0.3,0.1-0.4s0.1-0.2,0.1-0.4c0-0.1,0.1-0.3,0.1-0.4l2-5.6l2.3-1.3l-3.5,9.7V394z"/>
	</g>
	<g class="st62">
		<path class="st63" d="M333.5,378.9l2.2-1.3l3.6,7.9l3.4-11.9l2.2-1.3l0.1,12.5l-2,1.2l-0.1-7.6c0,0.1-0.1,0.3-0.1,0.5
			c-0.1,0.2-0.1,0.5-0.2,0.7c-0.1,0.3-0.1,0.6-0.2,1l-2.1,7l-2,1.1l-2.2-4.5c-0.1-0.2-0.2-0.5-0.2-0.7c-0.1-0.2-0.1-0.4-0.2-0.5
			c-0.1-0.2-0.1-0.3-0.1-0.4l0.1,7.6l-2,1.2L333.5,378.9z"/>
	</g>
	<g class="st62">
		<path class="st63" d="M347,371.1l7.6-4.4v2.1l-5.5,3.2v2.9l5.1-2.9v2.1l-5.1,2.9v3.3l5.5-3.2v2.1l-7.6,4.4V371.1z"/>
	</g>
	<g class="st62">
		<path class="st63" d="M356.4,365.6l2.1-1.2l4.7,5.3c0.1,0.1,0.1,0.2,0.2,0.3c0.1,0.1,0.1,0.2,0.2,0.2c0.1,0.1,0.1,0.1,0.1,0.2
			l-0.1-8.9l2-1.2l0.1,12.5l-2.1,1.2l-4.7-5.3c-0.1-0.1-0.1-0.2-0.2-0.3c-0.1-0.1-0.1-0.2-0.2-0.2c-0.1-0.1-0.1-0.1-0.1-0.2l0.1,9
			l-2,1.2L356.4,365.6z"/>
		<path class="st63" d="M366.9,359.5l8.8-5.1v2.2l-3.4,1.9l0.1,10.3l-2.1,1.2l-0.1-10.3l-3.4,1.9L366.9,359.5z"/>
		<path class="st63" d="M389.8,357c-0.3,0.8-0.7,1.5-1.3,2.2c-0.5,0.7-1.2,1.3-2,1.7c-0.8,0.4-1.5,0.7-2.1,0.8s-1.2,0-1.7-0.3
			s-0.9-0.7-1.2-1.4c-0.3-0.6-0.4-1.4-0.4-2.4c0-0.9,0.1-1.9,0.4-2.9s0.7-1.9,1.2-2.8s1.1-1.7,1.8-2.4s1.4-1.3,2.2-1.8
			c1.1-0.6,2.1-0.9,2.9-0.9s1.5,0.4,1.9,1.1l-1.5,2.2c-0.3-0.6-0.8-0.9-1.4-0.9c-0.6-0.1-1.2,0.1-1.9,0.5c-0.5,0.3-0.9,0.6-1.4,1.1
			c-0.4,0.5-0.8,1-1.1,1.5c-0.3,0.6-0.6,1.2-0.8,1.8c-0.2,0.7-0.3,1.3-0.3,2c0,0.6,0.1,1.2,0.3,1.6c0.2,0.4,0.4,0.7,0.7,0.9
			s0.7,0.3,1.1,0.3s0.9-0.2,1.4-0.5s0.9-0.6,1.2-0.9s0.7-0.7,0.9-1.1c0.2-0.4,0.4-0.8,0.6-1.2c0.1-0.4,0.2-0.8,0.3-1.2l-3.5,2.1
			v-1.9l5.6-3.2l0.1,6.7l-1.4,0.8L389.8,357z"/>
	</g>
	<g class="st62">
		<path class="st63" d="M397,342.1l2-1.1l4.6,9.9l-2.2,1.3l-1.1-2.6l-4.2,2.5L395,356l-2.2,1.3L397,342.1z M396.6,349.4l2.8-1.6
			l-1-2.4c0-0.1-0.1-0.2-0.1-0.3c0-0.1-0.1-0.2-0.1-0.4c0-0.1-0.1-0.3-0.2-0.4c-0.1,0.2-0.1,0.4-0.1,0.6s-0.1,0.4-0.1,0.5
			c0,0.2-0.1,0.3-0.1,0.5L396.6,349.4z"/>
	</g>
	<g class="st62">
		<path class="st63" d="M402,339.2l8.8-5.1v2.2l-3.4,1.9l0.1,10.3l-2.1,1.2l-0.1-10.3l-3.4,1.9L402,339.2z"/>
		<path class="st63" d="M412.1,333.3l7.6-4.4v2.1l-5.5,3.2v2.9l5.1-2.9v2.1l-5.1,2.9v3.3l5.5-3.2v2.1l-7.6,4.4V333.3z"/>
	</g>
	<g class="st62">
		<path class="st63" d="M420.7,328.4l2.2-1.3l1.8,6.9c0,0.2,0.1,0.3,0.1,0.5c0,0.1,0.1,0.3,0.1,0.4s0.1,0.3,0.1,0.3
			c0-0.1,0-0.3,0.1-0.4c0-0.2,0.1-0.3,0.1-0.5s0.1-0.4,0.1-0.6l1.7-8.9l2.1-1.2l1.9,6.8c0,0.2,0.1,0.3,0.1,0.5
			c0,0.1,0.1,0.3,0.1,0.4s0.1,0.3,0.1,0.4c0-0.1,0-0.3,0.1-0.4c0-0.2,0.1-0.3,0.1-0.5s0.1-0.4,0.1-0.6l1.7-8.9l2.2-1.3l-2.9,14.2
			l-2.2,1.3l-2.1-7.9l-2,10.2l-2.2,1.3L420.7,328.4z"/>
	</g>
	<g class="st62">
		<path class="st63" d="M439.1,317.7l2-1.1l4.6,9.9l-2.2,1.3l-1.1-2.6l-4.2,2.5l-1.1,3.9l-2.2,1.3L439.1,317.7z M438.7,325.1
			l2.8-1.6l-1-2.4c0-0.1-0.1-0.2-0.1-0.3c0-0.1-0.1-0.2-0.1-0.4c0-0.1-0.1-0.3-0.2-0.4c0,0.2-0.1,0.4-0.1,0.6s-0.1,0.4-0.1,0.5
			c0,0.2-0.1,0.3-0.1,0.5L438.7,325.1z"/>
	</g>
	<g class="st62">
		<path class="st63" d="M450,323.9l-2.1,1.2v-4.9l-3.7-5.5l2.3-1.3l2.1,3.3c0,0.1,0.1,0.1,0.1,0.2s0.1,0.2,0.1,0.2
			c0,0.1,0.1,0.2,0.1,0.2c0-0.1,0.1-0.2,0.1-0.4c0-0.1,0.1-0.2,0.1-0.4c0-0.1,0.1-0.3,0.1-0.4l2-5.6l2.3-1.3L450,319V323.9z"/>
	</g>
	<line class="st59" x1="232" y1="210.5" x2="232" y2="243"/>
	<line class="st59" x1="299.1" y1="175" x2="299.1" y2="207.5"/>
	<path class="st64" d="M195.5,194.6l120.3-66.8c2-1.1,7.1,0.6,7.1,2.8v39.8c0,1.1-0.7,3.1-1.6,3.6L201,240.6c-2,1.1-7-1.6-7-3.9
		v-39.5C194,196.1,194.6,195.1,195.5,194.6z"/>
	<path class="st3" d="M198,195.9l120.3-66.8c1.5-0.9,3.4-0.3,4.2,1.1c0.3,0.4,0.4,0.9,0.4,1.4v39.8c0,1.1-0.6,2.1-1.5,2.6
		l-120.3,66.5c-1.5,0.8-3.3,0.3-4.2-1.1c-0.2-0.4-0.4-0.9-0.4-1.4v-39.5C196.5,197.4,197.1,196.4,198,195.9z"/>
	<g class="st62">
		<path class="st65" d="M205.1,210l4.5-2.5c1.1-0.6,2-0.8,2.6-0.7c0.6,0.2,0.9,0.7,0.9,1.7c0,0.3,0,0.6-0.1,0.9
			c-0.1,0.3-0.2,0.6-0.3,0.9c-0.1,0.3-0.3,0.6-0.5,0.8c-0.2,0.3-0.4,0.5-0.6,0.7c0.3,0,0.5,0,0.8,0c0.2,0,0.4,0.1,0.6,0.3
			c0.2,0.1,0.3,0.3,0.4,0.6c0.1,0.3,0.1,0.6,0.1,1c0,0.6-0.1,1.1-0.3,1.7c-0.2,0.6-0.5,1.1-0.8,1.6s-0.8,1-1.2,1.4
			c-0.5,0.4-1,0.8-1.5,1.1l-4.5,2.5L205.1,210L205.1,210z M207.2,213.5l2.3-1.2c0.6-0.3,1-0.7,1.3-1c0.3-0.4,0.4-0.8,0.4-1.2
			c0-0.5-0.1-0.7-0.4-0.8c-0.3-0.1-0.7,0-1.3,0.4l-2.3,1.2V213.5z M207.2,218.8l2.4-1.3c0.7-0.4,1.1-0.8,1.5-1.2
			c0.3-0.5,0.5-0.9,0.5-1.5s-0.2-0.9-0.5-1s-0.8,0-1.5,0.4l-2.4,1.3V218.8z"/>
	</g>
	<g class="st62">
		<path class="st65" d="M215.1,204.5l2-1.1v11.9l-2,1.1V204.5z"/>
	</g>
	<g class="st62">
		<path class="st65" d="M219.3,202.2l2-1.1v9.8l5.4-3v2.1l-7.5,4.1v-11.9H219.3z"/>
		<path class="st65" d="M227.6,197.6l2-1.1v9.8l5.4-3v2.1l-7.5,4.1v-11.9H227.6z"/>
	</g>
	<g class="st62">
		<path class="st65" d="M236.9,192.5l2-1.1v11.9l-2,1.1V192.5z"/>
	</g>
	<g class="st62">
		<path class="st65" d="M241.1,190.3l2.1-1.1l4.5,5.1c0.1,0.1,0.1,0.2,0.2,0.3c0.1,0.1,0.1,0.1,0.2,0.2c0.1,0.1,0.1,0.1,0.1,0.2
			v-8.5l2-1.1v11.9l-2.1,1.1l-4.5-5.1c-0.1-0.1-0.1-0.2-0.2-0.3c-0.1-0.1-0.1-0.1-0.2-0.2c-0.1-0.1-0.1-0.1-0.1-0.2v8.6l-2,1.1
			V190.3z"/>
	</g>
	<g class="st62">
		<path class="st65" d="M260.4,189.9c-0.3,0.7-0.7,1.4-1.3,2.1s-1.2,1.2-2,1.6c-0.8,0.4-1.5,0.6-2.1,0.7c-0.7,0.1-1.2-0.1-1.7-0.3
			c-0.5-0.3-0.9-0.7-1.1-1.3c-0.3-0.6-0.4-1.4-0.4-2.3c0-0.9,0.1-1.8,0.4-2.7c0.3-0.9,0.7-1.8,1.2-2.6s1.1-1.6,1.8-2.3
			s1.4-1.2,2.2-1.7c1.1-0.6,2-0.9,2.9-0.8c0.8,0.1,1.5,0.4,1.9,1.1l-1.5,2.1c-0.3-0.5-0.8-0.8-1.3-0.9c-0.6-0.1-1.2,0.1-1.9,0.5
			c-0.5,0.3-0.9,0.6-1.4,1c-0.4,0.4-0.8,0.9-1.1,1.5c-0.3,0.5-0.6,1.1-0.8,1.8s-0.3,1.3-0.3,1.9c0,0.6,0.1,1.1,0.3,1.5
			s0.4,0.7,0.7,0.9s0.7,0.3,1.1,0.3c0.4,0,0.9-0.2,1.3-0.4c0.5-0.3,0.9-0.6,1.2-0.9c0.4-0.3,0.6-0.7,0.9-1.1
			c0.2-0.4,0.4-0.8,0.6-1.2c0.1-0.4,0.2-0.8,0.3-1.2l-3.5,1.9v-1.8l5.5-3v6.4l-1.3,0.7L260.4,189.9z"/>
	</g>
	<g class="st62">
		<path class="st65" d="M268.5,175.2l2-1.1v9.8l5.4-3v2.1l-7.5,4.1v-11.9H268.5z"/>
	</g>
	<g class="st62">
		<path class="st65" d="M287.4,170.8c0,0.9-0.1,1.8-0.4,2.7s-0.7,1.8-1.2,2.6s-1.1,1.6-1.8,2.3c-0.7,0.7-1.4,1.2-2.2,1.7
			c-0.8,0.4-1.5,0.7-2.2,0.7c-0.7,0.1-1.3,0-1.8-0.3s-0.9-0.7-1.2-1.3c-0.3-0.6-0.4-1.3-0.4-2.2s0.1-1.8,0.4-2.7s0.7-1.8,1.2-2.6
			s1.1-1.6,1.8-2.3c0.7-0.7,1.4-1.2,2.2-1.7c0.8-0.4,1.5-0.7,2.2-0.7c0.7-0.1,1.3,0,1.8,0.3s0.9,0.7,1.2,1.3
			S287.4,169.9,287.4,170.8z M281.8,177.9c0.5-0.3,1-0.6,1.4-1s0.8-0.9,1.1-1.4c0.3-0.5,0.6-1.1,0.7-1.7c0.2-0.6,0.3-1.2,0.3-1.9
			s-0.1-1.2-0.3-1.6c-0.2-0.4-0.4-0.7-0.7-0.9c-0.3-0.2-0.7-0.3-1.1-0.2c-0.4,0-0.9,0.2-1.4,0.5s-1,0.6-1.4,1s-0.8,0.9-1.1,1.4
			c-0.3,0.5-0.6,1.1-0.7,1.7c-0.2,0.6-0.3,1.2-0.3,1.9s0.1,1.2,0.3,1.6c0.2,0.4,0.4,0.7,0.7,0.9c0.3,0.2,0.7,0.3,1.1,0.2
			C280.9,178.4,281.3,178.2,281.8,177.9z"/>
	</g>
	<g class="st62">
		<path class="st65" d="M297.5,169.5c-0.3,0.7-0.7,1.4-1.3,2.1s-1.2,1.2-2,1.6c-0.8,0.4-1.5,0.6-2.1,0.7c-0.7,0.1-1.2-0.1-1.7-0.3
			c-0.5-0.3-0.9-0.7-1.1-1.3c-0.3-0.6-0.4-1.4-0.4-2.3c0-0.9,0.1-1.8,0.4-2.7s0.7-1.8,1.2-2.6s1.1-1.6,1.8-2.3
			c0.7-0.7,1.4-1.2,2.2-1.7c1.1-0.6,2-0.9,2.9-0.8c0.8,0.1,1.5,0.4,1.9,1.1l-1.5,2.1c-0.3-0.5-0.8-0.8-1.3-0.9
			c-0.6-0.1-1.2,0.1-1.9,0.5c-0.5,0.3-0.9,0.6-1.4,1c-0.4,0.4-0.8,0.9-1.1,1.5c-0.3,0.5-0.6,1.1-0.8,1.8c-0.2,0.6-0.3,1.3-0.3,1.9
			c0,0.6,0.1,1.1,0.3,1.5s0.4,0.7,0.7,0.9c0.3,0.2,0.7,0.3,1.1,0.3s0.9-0.2,1.3-0.4c0.5-0.3,0.9-0.6,1.2-0.9
			c0.4-0.3,0.6-0.7,0.9-1.1c0.2-0.4,0.4-0.8,0.6-1.2c0.1-0.4,0.2-0.8,0.3-1.2l-3.5,1.9v-1.8l5.5-3v6.4l-1.3,0.7L297.5,169.5z"/>
		<path class="st65" d="M301,157.4l2-1.1v11.9l-2,1.1V157.4z"/>
	</g>
	<g class="st62">
		<path class="st65" d="M315.2,158.5c-0.3,0.7-0.7,1.4-1,2s-0.7,1.1-1.1,1.6s-0.8,0.9-1.3,1.3c-0.5,0.4-1,0.7-1.6,1.1
			c-0.8,0.4-1.5,0.7-2.2,0.8s-1.3,0-1.8-0.3s-0.9-0.7-1.2-1.3c-0.3-0.6-0.4-1.4-0.4-2.3s0.1-1.9,0.4-2.8c0.3-0.9,0.7-1.8,1.2-2.6
			s1.1-1.6,1.8-2.2c0.7-0.7,1.4-1.2,2.2-1.7c0.6-0.3,1.1-0.5,1.6-0.7c0.5-0.1,1-0.2,1.4-0.1c0.4,0.1,0.8,0.2,1.1,0.4
			c0.3,0.2,0.6,0.5,0.7,0.8l-1.7,2.2c-0.3-0.6-0.7-0.9-1.3-1.1c-0.5-0.1-1.1,0-1.9,0.4c-0.5,0.3-0.9,0.6-1.3,1s-0.8,0.9-1.1,1.4
			c-0.3,0.5-0.6,1.1-0.8,1.7c-0.2,0.6-0.3,1.2-0.3,1.9c0,0.6,0.1,1.1,0.3,1.5c0.2,0.4,0.4,0.7,0.7,0.9c0.3,0.2,0.7,0.3,1.1,0.2
			c0.4,0,0.9-0.2,1.4-0.5c1.4-0.8,2.5-2.2,3.3-4.2L315.2,158.5z"/>
	</g>
</g>
</svg>
