<svg width="521" height="467" viewBox="0 0 521 467" fill="none" xmlns="http://www.w3.org/2000/svg">
<path fill-rule="evenodd" clip-rule="evenodd" d="M504.21 438H40.3668C38.6782 438 37.0589 437.329 35.8649 436.134C34.671 434.939 34.0002 433.318 34.0002 431.628V47.1253C33.9935 46.2843 34.1532 45.4502 34.4702 44.6712C34.7871 43.8922 35.255 43.1838 35.8468 42.5866C36.4387 41.9895 37.1428 41.5156 37.9186 41.1922C38.6943 40.8688 39.5264 40.7023 40.3668 40.7024H504.21C505.055 40.6956 505.892 40.8571 506.674 41.1775C507.455 41.4978 508.166 41.9707 508.763 42.5685C509.36 43.1663 509.832 43.877 510.153 44.6594C510.473 45.4417 510.634 46.28 510.627 47.1253V431.628C510.627 432.469 510.461 433.302 510.138 434.078C509.815 434.855 509.341 435.559 508.745 436.152C508.148 436.744 507.44 437.212 506.662 437.53C505.884 437.847 505.05 438.007 504.21 438" fill="#806CE9"/>
<path d="M274.329 40.9993L504.304 40.0255C507.627 40.0114 510.329 42.7018 510.329 46.0255V220C329.829 220 274.329 130.5 274.329 40.9993Z" fill="#D3CBFF"/>
<path fill-rule="evenodd" clip-rule="evenodd" d="M292.751 224.831H271.454C271.222 224.831 270.992 224.785 270.777 224.696C270.563 224.607 270.367 224.477 270.203 224.312C270.039 224.148 269.908 223.952 269.82 223.737C269.731 223.523 269.685 223.292 269.685 223.06V201.684C269.685 201.214 269.871 200.764 270.203 200.431C270.535 200.099 270.985 199.913 271.454 199.913H292.751C293.22 199.913 293.67 200.099 294.002 200.431C294.334 200.764 294.521 201.214 294.521 201.684V223.06C294.521 223.292 294.475 223.523 294.386 223.737C294.297 223.952 294.167 224.148 294.002 224.312C293.838 224.477 293.643 224.607 293.428 224.696C293.213 224.785 292.983 224.831 292.751 224.831" fill="#6448F3"/>
<path fill-rule="evenodd" clip-rule="evenodd" d="M193.408 98.448H172.112C171.88 98.4493 171.65 98.4048 171.435 98.3169C171.221 98.229 171.025 98.0995 170.861 97.9358C170.697 97.7722 170.566 97.5776 170.477 97.3633C170.388 97.149 170.342 96.9191 170.342 96.687V75.362C170.342 75.1294 170.388 74.8991 170.477 74.6842C170.566 74.4693 170.696 74.274 170.86 74.1096C171.025 73.9451 171.22 73.8147 171.434 73.7256C171.649 73.6366 171.879 73.5908 172.112 73.5908H193.408C193.877 73.5908 194.328 73.7774 194.659 74.1096C194.991 74.4417 195.178 74.8922 195.178 75.362V96.687C195.178 96.9191 195.132 97.149 195.043 97.3633C194.954 97.5776 194.823 97.7722 194.659 97.9358C194.494 98.0995 194.299 98.229 194.085 98.3169C193.87 98.4048 193.64 98.4493 193.408 98.448" fill="#6448F3"/>
<path fill-rule="evenodd" clip-rule="evenodd" d="M422.095 174.068H400.799C400.567 174.068 400.336 174.022 400.122 173.933C399.907 173.844 399.712 173.714 399.548 173.549C399.383 173.385 399.253 173.189 399.164 172.975C399.075 172.76 399.029 172.529 399.029 172.297V150.951C399.029 150.482 399.216 150.031 399.548 149.699C399.879 149.367 400.33 149.18 400.799 149.18H422.095C422.565 149.18 423.015 149.367 423.347 149.699C423.679 150.031 423.865 150.482 423.865 150.951V172.327C423.865 172.797 423.679 173.248 423.347 173.58C423.015 173.912 422.565 174.098 422.095 174.098" fill="#6448F3"/>
<path fill-rule="evenodd" clip-rule="evenodd" d="M360.006 119.172H338.71C338.474 119.172 338.241 119.125 338.023 119.034C337.806 118.942 337.609 118.808 337.444 118.639C337.279 118.471 337.15 118.27 337.063 118.051C336.977 117.831 336.935 117.597 336.94 117.361V95.9846C336.94 95.5149 337.127 95.0644 337.459 94.7322C337.791 94.4001 338.241 94.2134 338.71 94.2134H360.006C360.251 94.2061 360.494 94.2495 360.721 94.3411C360.948 94.4326 361.154 94.5703 361.325 94.7453C361.496 94.9204 361.629 95.129 361.715 95.3581C361.802 95.5872 361.84 95.8317 361.827 96.0762V117.361C361.827 117.83 361.64 118.281 361.309 118.613C360.977 118.945 360.527 119.132 360.057 119.132" fill="#6448F3"/>
<path fill-rule="evenodd" clip-rule="evenodd" d="M358.979 224.831H337.673C337.441 224.831 337.211 224.785 336.997 224.696C336.783 224.607 336.589 224.476 336.425 224.311C336.262 224.147 336.132 223.952 336.044 223.737C335.957 223.522 335.912 223.292 335.913 223.06V201.684C335.912 201.452 335.957 201.222 336.044 201.007C336.132 200.792 336.262 200.597 336.425 200.432C336.589 200.267 336.783 200.137 336.997 200.048C337.211 199.958 337.441 199.913 337.673 199.913H358.979C359.211 199.913 359.441 199.958 359.655 200.048C359.869 200.137 360.064 200.267 360.227 200.432C360.391 200.597 360.52 200.792 360.608 201.007C360.696 201.222 360.74 201.452 360.739 201.684V223.06C360.74 223.292 360.696 223.522 360.608 223.737C360.52 223.952 360.391 224.147 360.227 224.311C360.064 224.476 359.869 224.607 359.655 224.696C359.441 224.785 359.211 224.831 358.979 224.831Z" fill="#6448F3"/>
<path fill-rule="evenodd" clip-rule="evenodd" d="M251.358 146.106H230.062C229.829 146.106 229.599 146.06 229.384 145.971C229.17 145.882 228.975 145.752 228.81 145.587C228.646 145.423 228.516 145.228 228.427 145.013C228.338 144.798 228.292 144.568 228.292 144.335V122.959C228.292 122.727 228.338 122.496 228.427 122.281C228.516 122.066 228.646 121.871 228.81 121.707C228.975 121.542 229.17 121.412 229.384 121.323C229.599 121.234 229.829 121.188 230.062 121.188H251.358C251.827 121.188 252.277 121.375 252.609 121.707C252.941 122.039 253.128 122.489 253.128 122.959V144.335C253.128 144.805 252.941 145.255 252.609 145.587C252.277 145.92 251.827 146.106 251.358 146.106Z" fill="#6448F3"/>
<path fill-rule="evenodd" clip-rule="evenodd" d="M275.157 161.639H253.86C253.391 161.639 252.941 161.453 252.609 161.121C252.277 160.788 252.091 160.338 252.091 159.868V138.492C252.091 138.26 252.136 138.03 252.225 137.816C252.315 137.602 252.445 137.407 252.609 137.243C252.774 137.08 252.969 136.95 253.184 136.862C253.398 136.774 253.628 136.73 253.86 136.731H275.157C275.389 136.73 275.618 136.774 275.833 136.862C276.048 136.95 276.243 137.08 276.407 137.243C276.572 137.407 276.702 137.602 276.791 137.816C276.88 138.03 276.926 138.26 276.926 138.492V159.868C276.926 160.338 276.74 160.788 276.408 161.121C276.076 161.453 275.626 161.639 275.157 161.639" fill="#6448F3"/>
<path fill-rule="evenodd" clip-rule="evenodd" d="M331.032 270.402H309.735C309.266 270.402 308.816 270.216 308.484 269.884C308.152 269.551 307.966 269.101 307.966 268.631V247.316C307.966 246.847 308.152 246.396 308.484 246.064C308.816 245.732 309.266 245.545 309.735 245.545H331.032C331.264 245.544 331.495 245.589 331.71 245.677C331.926 245.766 332.121 245.896 332.286 246.061C332.451 246.226 332.581 246.421 332.669 246.637C332.758 246.852 332.803 247.083 332.801 247.316V268.631C332.803 268.864 332.758 269.095 332.669 269.311C332.581 269.526 332.451 269.722 332.286 269.887C332.121 270.051 331.926 270.182 331.71 270.27C331.495 270.359 331.264 270.404 331.032 270.402Z" fill="#6448F3"/>
<path fill-rule="evenodd" clip-rule="evenodd" d="M232.736 234.155H211.43C210.96 234.155 210.51 233.968 210.178 233.636C209.847 233.304 209.66 232.853 209.66 232.384V211.059C209.66 210.589 209.847 210.138 210.178 209.806C210.51 209.474 210.96 209.287 211.43 209.287H232.736C232.968 209.287 233.198 209.333 233.412 209.422C233.626 209.512 233.821 209.642 233.984 209.807C234.148 209.971 234.277 210.167 234.365 210.381C234.453 210.596 234.497 210.826 234.496 211.059V232.384C234.497 232.616 234.453 232.846 234.365 233.061C234.277 233.275 234.148 233.471 233.984 233.635C233.821 233.8 233.626 233.931 233.412 234.02C233.198 234.109 232.968 234.155 232.736 234.155" fill="#6448F3"/>
<path fill-rule="evenodd" clip-rule="evenodd" d="M97.1777 244.507H75.8203C75.5884 244.507 75.3587 244.461 75.1446 244.372C74.9305 244.283 74.7361 244.152 74.5725 243.987C74.409 243.823 74.2796 243.628 74.1918 243.413C74.104 243.198 74.0595 242.968 74.0608 242.736V221.421C74.0595 221.189 74.104 220.959 74.1918 220.744C74.2796 220.529 74.409 220.334 74.5725 220.169C74.7361 220.004 74.9305 219.874 75.1446 219.785C75.3587 219.696 75.5884 219.65 75.8203 219.65H97.1777C97.6471 219.65 98.0972 219.836 98.429 220.168C98.7609 220.501 98.9473 220.951 98.9473 221.421V242.736C98.9473 243.205 98.7609 243.656 98.429 243.988C98.0972 244.32 97.6471 244.507 97.1777 244.507" fill="#6448F3"/>
<path fill-rule="evenodd" clip-rule="evenodd" d="M157.192 187.535H135.896C135.426 187.535 134.976 187.348 134.644 187.016C134.312 186.684 134.126 186.233 134.126 185.764V164.449C134.126 163.979 134.312 163.529 134.644 163.196C134.976 162.864 135.426 162.678 135.896 162.678H157.192C157.661 162.678 158.111 162.864 158.443 163.196C158.775 163.529 158.962 163.979 158.962 164.449V185.764C158.962 186.233 158.775 186.684 158.443 187.016C158.111 187.348 157.661 187.535 157.192 187.535Z" fill="#6448F3"/>
<path fill-rule="evenodd" clip-rule="evenodd" d="M96.1403 185.468H74.8438C74.3745 185.468 73.9244 185.282 73.5925 184.95C73.2607 184.618 73.0742 184.167 73.0742 183.697V162.372C73.0742 161.902 73.2607 161.452 73.5925 161.12C73.9244 160.788 74.3745 160.601 74.8438 160.601H96.1403C96.6096 160.601 97.0597 160.788 97.3916 161.12C97.7234 161.452 97.9099 161.902 97.9099 162.372V183.697C97.9099 184.167 97.7234 184.618 97.3916 184.95C97.0597 185.282 96.6096 185.468 96.1403 185.468Z" fill="#6448F3"/>
<path fill-rule="evenodd" clip-rule="evenodd" d="M142.71 254.869H121.352C120.883 254.869 120.433 254.682 120.101 254.35C119.769 254.018 119.583 253.568 119.583 253.098V231.773C119.583 231.303 119.769 230.853 120.101 230.52C120.433 230.188 120.883 230.002 121.352 230.002H142.71C142.942 230.002 143.171 230.048 143.385 230.137C143.599 230.226 143.794 230.356 143.957 230.521C144.121 230.686 144.25 230.881 144.338 231.096C144.426 231.311 144.47 231.541 144.469 231.773V253.098C144.47 253.33 144.426 253.56 144.338 253.775C144.25 253.99 144.121 254.185 143.957 254.35C143.794 254.514 143.599 254.645 143.385 254.734C143.171 254.823 142.942 254.869 142.71 254.869" fill="#6448F3"/>
<path fill-rule="evenodd" clip-rule="evenodd" d="M148.913 350.165H127.617C127.158 350.157 126.72 349.971 126.396 349.647C126.072 349.322 125.886 348.884 125.878 348.424V327.048C125.878 326.579 126.064 326.128 126.396 325.796C126.728 325.464 127.178 325.277 127.648 325.277H148.944C149.413 325.277 149.863 325.464 150.195 325.796C150.527 326.128 150.714 326.579 150.714 327.048V348.424C150.714 348.894 150.527 349.345 150.195 349.677C149.863 350.009 149.413 350.196 148.944 350.196" fill="#6448F3"/>
<path fill-rule="evenodd" clip-rule="evenodd" d="M246.181 425.785H224.885C224.416 425.785 223.965 425.599 223.634 425.267C223.302 424.934 223.115 424.484 223.115 424.014V402.689C223.115 402.457 223.161 402.227 223.25 402.013C223.339 401.798 223.47 401.604 223.634 401.44C223.799 401.277 223.994 401.147 224.208 401.059C224.423 400.971 224.653 400.927 224.885 400.928H246.181C246.413 400.927 246.643 400.971 246.858 401.059C247.072 401.147 247.268 401.277 247.432 401.44C247.596 401.604 247.727 401.798 247.816 402.013C247.905 402.227 247.951 402.457 247.951 402.689V424.014C247.951 424.247 247.905 424.477 247.816 424.692C247.727 424.907 247.597 425.102 247.433 425.267C247.268 425.431 247.073 425.561 246.859 425.65C246.644 425.739 246.414 425.785 246.181 425.785" fill="#6448F3"/>
<path fill-rule="evenodd" clip-rule="evenodd" d="M301.029 264.193H279.733C279.5 264.194 279.27 264.15 279.054 264.061C278.839 263.972 278.643 263.842 278.479 263.677C278.314 263.513 278.184 263.317 278.095 263.101C278.007 262.886 277.962 262.655 277.963 262.422V241.097C277.962 240.864 278.007 240.633 278.095 240.417C278.184 240.202 278.314 240.006 278.479 239.841C278.643 239.677 278.839 239.546 279.054 239.458C279.27 239.369 279.5 239.324 279.733 239.326H301.029C301.499 239.326 301.949 239.512 302.281 239.844C302.613 240.177 302.799 240.627 302.799 241.097V262.422C302.799 262.892 302.613 263.342 302.281 263.674C301.949 264.006 301.499 264.193 301.029 264.193Z" fill="#6448F3"/>
<path fill-rule="evenodd" clip-rule="evenodd" d="M212.04 210.326H190.733C190.501 210.326 190.271 210.28 190.056 210.191C189.842 210.102 189.646 209.971 189.482 209.807C189.318 209.642 189.187 209.447 189.099 209.232C189.01 209.017 188.964 208.787 188.964 208.554V187.178C188.964 186.946 189.01 186.717 189.099 186.502C189.188 186.288 189.318 186.093 189.483 185.93C189.647 185.766 189.842 185.637 190.057 185.549C190.272 185.461 190.502 185.416 190.733 185.418H212.04C212.272 185.416 212.501 185.461 212.715 185.549C212.929 185.637 213.124 185.766 213.287 185.93C213.451 186.094 213.58 186.289 213.668 186.503C213.756 186.717 213.801 186.947 213.8 187.178V208.554C213.801 208.787 213.756 209.017 213.669 209.231C213.581 209.446 213.451 209.642 213.288 209.806C213.124 209.971 212.93 210.101 212.716 210.191C212.502 210.28 212.272 210.326 212.04 210.326" fill="#6448F3"/>
<path d="M273.329 41L273.329 438" stroke="#6448F3" stroke-width="3"/>
<path d="M38.0276 240.456H507.617" stroke="#6448F3" stroke-width="3"/>
<path d="M58.8 404.595L58.8 402.755L68.288 398.963L58.8 395.171L58.8 393.331L70 393.331L70 394.995L62.24 394.995C62.3147 395.016 62.4373 395.059 62.608 395.123C62.7787 395.187 62.9547 395.251 63.136 395.315C63.3493 395.389 63.5787 395.475 63.824 395.571L70 398.131L70 399.795L63.824 402.355C63.5787 402.451 63.3493 402.536 63.136 402.611C62.9547 402.675 62.7787 402.739 62.608 402.803C62.4373 402.867 62.3147 402.909 62.24 402.931L70 402.931L70 404.595L58.8 404.595ZM70 385.831C69.8827 385.927 69.7173 386.023 69.504 386.119C69.28 386.204 68.9813 386.257 68.608 386.279C69.1413 386.535 69.5467 386.892 69.824 387.351C70.0907 387.809 70.224 388.332 70.224 388.919C70.224 389.324 70.1653 389.692 70.048 390.023C69.9307 390.353 69.7653 390.636 69.552 390.871C69.328 391.105 69.0667 391.292 68.768 391.431C68.4693 391.559 68.1387 391.623 67.776 391.623C67.3813 391.623 67.0347 391.548 66.736 391.399C66.4267 391.249 66.1707 391.047 65.968 390.791C65.7547 390.535 65.584 390.241 65.456 389.911C65.328 389.569 65.232 389.207 65.168 388.823L64.768 386.311L64.432 386.311C63.5147 386.311 63.056 386.865 63.056 387.975C63.056 388.54 63.1627 388.956 63.376 389.223C63.5787 389.489 63.8187 389.623 64.096 389.623C64.1387 389.623 64.176 389.623 64.208 389.623C64.2293 389.623 64.272 389.612 64.336 389.591L64.832 391.047C64.6293 391.132 64.416 391.175 64.192 391.175C63.8827 391.175 63.5893 391.105 63.312 390.967C63.024 390.817 62.7733 390.604 62.56 390.327C62.336 390.049 62.16 389.713 62.032 389.319C61.904 388.924 61.84 388.476 61.84 387.975C61.84 386.887 62.0747 386.065 62.544 385.511C63.0027 384.956 63.664 384.679 64.528 384.679L68.016 384.679C68.4747 384.679 68.848 384.647 69.136 384.583C69.4133 384.508 69.7013 384.38 70 384.199L70 385.831ZM68.864 388.663C68.864 388.311 68.8 387.991 68.672 387.703C68.5333 387.404 68.3467 387.153 68.112 386.951C67.8667 386.748 67.584 386.593 67.264 386.487C66.9333 386.369 66.576 386.311 66.192 386.311L65.968 386.311L66.336 388.455C66.4213 388.956 66.576 389.34 66.8 389.607C67.0133 389.863 67.3067 389.991 67.68 389.991C68.0427 389.991 68.3307 389.873 68.544 389.639C68.7573 389.393 68.864 389.068 68.864 388.663ZM63.472 378.39C63.408 378.603 63.376 378.811 63.376 379.014C63.376 379.302 63.44 379.569 63.568 379.814C63.6853 380.059 63.856 380.273 64.08 380.454C64.2933 380.625 64.5493 380.758 64.848 380.854C65.1467 380.95 65.472 380.998 65.824 380.998L70 380.998L70 382.63L62.064 382.63L62.064 380.998L63.408 380.998C62.9387 380.785 62.56 380.486 62.272 380.102C61.984 379.718 61.84 379.254 61.84 378.71C61.84 378.603 61.8507 378.507 61.872 378.422C61.8827 378.326 61.8987 378.225 61.92 378.118L63.472 378.39ZM64.736 375.123L62.064 372.419L62.064 370.419L64.816 373.219L70 369.939L70 371.843L65.968 374.387L66.704 375.123L70 375.123L70 376.755L58.8 376.755L58.8 375.123L64.736 375.123ZM66.384 368.228C66.736 368.218 67.0613 368.154 67.36 368.036C67.648 367.908 67.904 367.738 68.128 367.524C68.3413 367.311 68.5067 367.06 68.624 366.772C68.7413 366.484 68.8 366.164 68.8 365.812C68.8 365.492 68.7573 365.21 68.672 364.964C68.5867 364.719 68.4747 364.506 68.336 364.324C68.1867 364.132 68.0107 363.967 67.808 363.828C67.6053 363.69 67.3867 363.562 67.152 363.444L67.904 362.18C68.672 362.554 69.2533 363.034 69.648 363.62C70.032 364.207 70.224 364.954 70.224 365.86C70.224 366.404 70.1227 366.922 69.92 367.412C69.7173 367.892 69.4347 368.314 69.072 368.676C68.6987 369.039 68.256 369.327 67.744 369.54C67.2213 369.754 66.6507 369.86 66.032 369.86C65.4133 369.86 64.848 369.754 64.336 369.54C63.8133 369.327 63.3707 369.039 63.008 368.676C62.6347 368.303 62.3467 367.871 62.144 367.38C61.9413 366.879 61.84 366.346 61.84 365.78C61.84 365.204 61.9413 364.682 62.144 364.212C62.336 363.743 62.608 363.343 62.96 363.012C63.312 362.671 63.7333 362.41 64.224 362.228C64.704 362.036 65.232 361.94 65.808 361.94L66.384 361.94L66.384 368.228ZM63.152 365.812C63.152 366.111 63.2053 366.394 63.312 366.66C63.408 366.916 63.5467 367.151 63.728 367.364C63.8987 367.567 64.1067 367.743 64.352 367.892C64.5867 368.042 64.848 368.154 65.136 368.228L65.136 363.492C64.816 363.524 64.5333 363.615 64.288 363.764C64.032 363.903 63.824 364.079 63.664 364.292C63.4933 364.506 63.3653 364.746 63.28 365.012C63.1947 365.268 63.152 365.535 63.152 365.812ZM62.064 361.037L62.064 359.757L59.92 359.757L59.92 358.125L62.064 358.125L62.064 356.349L63.376 356.349L63.376 358.125L67.584 358.125C67.9787 358.125 68.272 358.039 68.464 357.869C68.656 357.698 68.752 357.421 68.752 357.037C68.752 356.951 68.7413 356.855 68.72 356.749C68.6987 356.631 68.6773 356.53 68.656 356.445L70.032 356.301C70.0853 356.45 70.128 356.626 70.16 356.829C70.2027 357.031 70.224 357.25 70.224 357.485C70.224 357.783 70.1867 358.071 70.112 358.349C70.0373 358.626 69.9093 358.871 69.728 359.085C69.5467 359.287 69.3067 359.453 69.008 359.581C68.6987 359.698 68.32 359.757 67.872 359.757L63.376 359.757L63.376 361.037L62.064 361.037ZM58.8 350.048L58.8 345.152C58.8 344.544 58.88 343.994 59.04 343.504C59.2 343.002 59.4347 342.576 59.744 342.224C60.0533 341.872 60.432 341.6 60.88 341.408C61.3173 341.216 61.8133 341.12 62.368 341.12C62.9333 341.12 63.4347 341.216 63.872 341.408C64.3093 341.6 64.6827 341.872 64.992 342.224C65.3013 342.576 65.536 343.002 65.696 343.504C65.856 343.994 65.936 344.544 65.936 345.152L65.936 348.32L70 348.32L70 350.048L58.8 350.048ZM64.4 348.32L64.4 345.216C64.4 344.437 64.2187 343.85 63.856 343.456C63.4933 343.05 62.9973 342.848 62.368 342.848C61.7387 342.848 61.2427 343.05 60.88 343.456C60.5173 343.85 60.336 344.437 60.336 345.216L60.336 348.32L64.4 348.32ZM63.472 335.343C63.408 335.556 63.376 335.764 63.376 335.967C63.376 336.255 63.44 336.522 63.568 336.767C63.6853 337.012 63.856 337.226 64.08 337.407C64.2933 337.578 64.5493 337.711 64.848 337.807C65.1467 337.903 65.472 337.951 65.824 337.951L70 337.951L70 339.583L62.064 339.583L62.064 337.951L63.408 337.951C62.9387 337.738 62.56 337.439 62.272 337.055C61.984 336.671 61.84 336.207 61.84 335.663C61.84 335.556 61.8507 335.46 61.872 335.375C61.8827 335.279 61.8987 335.178 61.92 335.071L63.472 335.343ZM66.384 332.885C66.736 332.874 67.0613 332.81 67.36 332.693C67.648 332.565 67.904 332.394 68.128 332.181C68.3413 331.967 68.5067 331.717 68.624 331.429C68.7413 331.141 68.8 330.821 68.8 330.469C68.8 330.149 68.7573 329.866 68.672 329.621C68.5867 329.375 68.4747 329.162 68.336 328.981C68.1867 328.789 68.0107 328.623 67.808 328.485C67.6053 328.346 67.3867 328.218 67.152 328.101L67.904 326.837C68.672 327.21 69.2533 327.69 69.648 328.277C70.032 328.863 70.224 329.61 70.224 330.517C70.224 331.061 70.1227 331.578 69.92 332.069C69.7173 332.549 69.4347 332.97 69.072 333.333C68.6987 333.695 68.256 333.983 67.744 334.197C67.2213 334.41 66.6507 334.517 66.032 334.517C65.4133 334.517 64.848 334.41 64.336 334.197C63.8133 333.983 63.3707 333.695 63.008 333.333C62.6347 332.959 62.3467 332.527 62.144 332.037C61.9413 331.535 61.84 331.002 61.84 330.437C61.84 329.861 61.9413 329.338 62.144 328.869C62.336 328.399 62.608 327.999 62.96 327.669C63.312 327.327 63.7333 327.066 64.224 326.885C64.704 326.693 65.232 326.597 65.808 326.597L66.384 326.597L66.384 332.885ZM63.152 330.469C63.152 330.767 63.2053 331.05 63.312 331.317C63.408 331.573 63.5467 331.807 63.728 332.021C63.8987 332.223 64.1067 332.399 64.352 332.549C64.5867 332.698 64.848 332.81 65.136 332.885L65.136 328.149C64.816 328.181 64.5333 328.271 64.288 328.421C64.032 328.559 63.824 328.735 63.664 328.949C63.4933 329.162 63.3653 329.402 63.28 329.669C63.1947 329.925 63.152 330.191 63.152 330.469ZM63.984 323.517C64.3253 323.517 64.592 323.346 64.784 323.005C64.976 322.663 65.1307 322.173 65.248 321.533C65.4293 320.626 65.7067 319.954 66.08 319.517C66.4533 319.079 66.976 318.861 67.648 318.861C68 318.861 68.336 318.93 68.656 319.069C68.9653 319.207 69.2373 319.41 69.472 319.677C69.696 319.933 69.8773 320.253 70.016 320.637C70.1547 321.01 70.224 321.442 70.224 321.933C70.224 322.402 70.16 322.829 70.032 323.213C69.904 323.586 69.7333 323.917 69.52 324.205C69.3067 324.493 69.056 324.743 68.768 324.957C68.48 325.159 68.1813 325.319 67.872 325.437L67.04 324.109C67.5627 323.917 67.9947 323.639 68.336 323.277C68.6667 322.914 68.832 322.461 68.832 321.917C68.832 321.501 68.7307 321.149 68.528 320.861C68.3147 320.562 68.0373 320.413 67.696 320.413C67.3547 320.413 67.0987 320.567 66.928 320.877C66.7467 321.175 66.592 321.645 66.464 322.285C66.3893 322.658 66.288 323.01 66.16 323.341C66.032 323.661 65.872 323.943 65.68 324.189C65.488 324.434 65.2587 324.631 64.992 324.781C64.7253 324.919 64.416 324.989 64.064 324.989C63.712 324.989 63.3973 324.914 63.12 324.765C62.8427 324.605 62.608 324.397 62.416 324.141C62.224 323.874 62.08 323.57 61.984 323.229C61.888 322.887 61.84 322.53 61.84 322.157C61.84 321.314 62.0053 320.642 62.336 320.141C62.6667 319.639 63.1573 319.25 63.808 318.973L64.512 320.173C64.032 320.354 63.6747 320.621 63.44 320.973C63.2053 321.314 63.088 321.698 63.088 322.125C63.088 322.498 63.168 322.823 63.328 323.101C63.488 323.378 63.7067 323.517 63.984 323.517ZM66.384 316.041C66.736 316.03 67.0613 315.966 67.36 315.849C67.648 315.721 67.904 315.55 68.128 315.337C68.3413 315.124 68.5067 314.873 68.624 314.585C68.7413 314.297 68.8 313.977 68.8 313.625C68.8 313.305 68.7573 313.022 68.672 312.777C68.5867 312.532 68.4747 312.318 68.336 312.137C68.1867 311.945 68.0107 311.78 67.808 311.641C67.6053 311.502 67.3867 311.374 67.152 311.257L67.904 309.993C68.672 310.366 69.2533 310.846 69.648 311.433C70.032 312.02 70.224 312.766 70.224 313.673C70.224 314.217 70.1227 314.734 69.92 315.225C69.7173 315.705 69.4347 316.126 69.072 316.489C68.6987 316.852 68.256 317.14 67.744 317.353C67.2213 317.566 66.6507 317.673 66.032 317.673C65.4133 317.673 64.848 317.566 64.336 317.353C63.8133 317.14 63.3707 316.852 63.008 316.489C62.6347 316.116 62.3467 315.684 62.144 315.193C61.9413 314.692 61.84 314.158 61.84 313.593C61.84 313.017 61.9413 312.494 62.144 312.025C62.336 311.556 62.608 311.156 62.96 310.825C63.312 310.484 63.7333 310.222 64.224 310.041C64.704 309.849 65.232 309.753 65.808 309.753L66.384 309.753L66.384 316.041ZM63.152 313.625C63.152 313.924 63.2053 314.206 63.312 314.473C63.408 314.729 63.5467 314.964 63.728 315.177C63.8987 315.38 64.1067 315.556 64.352 315.705C64.5867 315.854 64.848 315.966 65.136 316.041L65.136 311.305C64.816 311.337 64.5333 311.428 64.288 311.577C64.032 311.716 63.824 311.892 63.664 312.105C63.4933 312.318 63.3653 312.558 63.28 312.825C63.1947 313.081 63.152 313.348 63.152 313.625ZM70 300.87L70 302.502L65.088 302.502C64.544 302.502 64.1173 302.656 63.808 302.966C63.4987 303.264 63.344 303.696 63.344 304.262C63.344 304.55 63.4027 304.822 63.52 305.078C63.6373 305.323 63.8027 305.542 64.016 305.734C64.2293 305.915 64.4907 306.064 64.8 306.182C65.0987 306.288 65.4347 306.342 65.808 306.342L70 306.342L70 307.974L62.064 307.974L62.064 306.342L63.392 306.342C62.9227 306.064 62.5493 305.691 62.272 305.222C61.984 304.742 61.84 304.214 61.84 303.638C61.84 303.254 61.904 302.891 62.032 302.55C62.1493 302.208 62.3253 301.915 62.56 301.67C62.784 301.424 63.072 301.232 63.424 301.094C63.7653 300.944 64.16 300.87 64.608 300.87L70 300.87ZM67.936 291.444C68.6827 291.817 69.2533 292.313 69.648 292.932C70.032 293.54 70.224 294.26 70.224 295.092C70.224 295.668 70.1227 296.207 69.92 296.708C69.7173 297.209 69.4347 297.647 69.072 298.02C68.6987 298.383 68.256 298.671 67.744 298.884C67.2213 299.097 66.6507 299.204 66.032 299.204C65.4133 299.204 64.848 299.097 64.336 298.884C63.8133 298.66 63.3707 298.361 63.008 297.988C62.6347 297.604 62.3467 297.167 62.144 296.676C61.9413 296.175 61.84 295.647 61.84 295.092C61.84 294.217 62.032 293.471 62.416 292.852C62.8 292.233 63.328 291.785 64 291.508L64.864 292.804C64.2773 293.092 63.8773 293.433 63.664 293.828C63.4507 294.212 63.344 294.628 63.344 295.076C63.344 295.417 63.408 295.737 63.536 296.036C63.6533 296.335 63.8293 296.596 64.064 296.82C64.288 297.044 64.5707 297.22 64.912 297.348C65.2427 297.476 65.616 297.54 66.032 297.54C66.448 297.54 66.8267 297.481 67.168 297.364C67.4987 297.236 67.7813 297.06 68.016 296.836C68.24 296.612 68.416 296.351 68.544 296.052C68.6613 295.753 68.72 295.428 68.72 295.076C68.72 294.479 68.5813 294.004 68.304 293.652C68.016 293.289 67.6213 292.975 67.12 292.708L67.936 291.444ZM66.384 288.744C66.736 288.733 67.0613 288.669 67.36 288.552C67.648 288.424 67.904 288.253 68.128 288.04C68.3413 287.827 68.5067 287.576 68.624 287.288C68.7413 287 68.8 286.68 68.8 286.328C68.8 286.008 68.7573 285.725 68.672 285.48C68.5867 285.235 68.4747 285.021 68.336 284.84C68.1867 284.648 68.0107 284.483 67.808 284.344C67.6053 284.205 67.3867 284.077 67.152 283.96L67.904 282.696C68.672 283.069 69.2533 283.549 69.648 284.136C70.032 284.723 70.224 285.469 70.224 286.376C70.224 286.92 70.1227 287.437 69.92 287.928C69.7173 288.408 69.4347 288.829 69.072 289.192C68.6987 289.555 68.256 289.843 67.744 290.056C67.2213 290.269 66.6507 290.376 66.032 290.376C65.4133 290.376 64.848 290.269 64.336 290.056C63.8133 289.843 63.3707 289.555 63.008 289.192C62.6347 288.819 62.3467 288.387 62.144 287.896C61.9413 287.395 61.84 286.861 61.84 286.296C61.84 285.72 61.9413 285.197 62.144 284.728C62.336 284.259 62.608 283.859 62.96 283.528C63.312 283.187 63.7333 282.925 64.224 282.744C64.704 282.552 65.232 282.456 65.808 282.456L66.384 282.456L66.384 288.744ZM63.152 286.328C63.152 286.627 63.2053 286.909 63.312 287.176C63.408 287.432 63.5467 287.667 63.728 287.88C63.8987 288.083 64.1067 288.259 64.352 288.408C64.5867 288.557 64.848 288.669 65.136 288.744L65.136 284.008C64.816 284.04 64.5333 284.131 64.288 284.28C64.032 284.419 63.824 284.595 63.664 284.808C63.4933 285.021 63.3653 285.261 63.28 285.528C63.1947 285.784 63.152 286.051 63.152 286.328ZM67.536 273.391L65.696 271.551L65.696 276.639L64.384 276.639L64.384 271.551L62.544 273.391L61.568 272.415L65.04 268.927L68.512 272.415L67.536 273.391Z" fill="#FFFCFC"/>
<path d="M414.631 455.536C414.631 456.048 414.871 456.459 415.351 456.768C415.831 457.067 416.567 457.312 417.559 457.504C418.775 457.739 419.682 458.123 420.279 458.656C420.876 459.179 421.175 459.909 421.175 460.848C421.175 461.296 421.079 461.728 420.887 462.144C420.695 462.549 420.423 462.907 420.071 463.216C419.719 463.525 419.287 463.771 418.775 463.952C418.274 464.133 417.708 464.224 417.079 464.224C416.407 464.224 415.804 464.133 415.271 463.952C414.748 463.771 414.295 463.525 413.911 463.216C413.527 462.896 413.218 462.523 412.983 462.096C412.748 461.659 412.583 461.189 412.487 460.688L414.007 459.904C414.167 460.832 414.503 461.536 415.015 462.016C415.527 462.485 416.21 462.72 417.063 462.72C417.436 462.72 417.767 462.672 418.055 462.576C418.354 462.48 418.604 462.352 418.807 462.192C419.02 462.021 419.18 461.829 419.287 461.616C419.394 461.392 419.447 461.157 419.447 460.912C419.447 460.325 419.212 459.883 418.743 459.584C418.284 459.285 417.57 459.045 416.599 458.864C416.076 458.768 415.596 458.629 415.159 458.448C414.722 458.267 414.343 458.043 414.023 457.776C413.703 457.509 413.452 457.195 413.271 456.832C413.09 456.459 412.999 456.037 412.999 455.568C412.999 455.12 413.09 454.715 413.271 454.352C413.463 453.989 413.73 453.675 414.071 453.408C414.412 453.141 414.818 452.939 415.287 452.8C415.756 452.651 416.274 452.576 416.839 452.576C417.852 452.576 418.716 452.816 419.431 453.296C420.156 453.776 420.674 454.464 420.983 455.36L419.607 456.16C419.383 455.488 419.036 454.976 418.567 454.624C418.108 454.261 417.527 454.08 416.823 454.08C416.524 454.08 416.242 454.112 415.975 454.176C415.708 454.24 415.474 454.331 415.271 454.448C415.079 454.565 414.924 454.72 414.807 454.912C414.69 455.093 414.631 455.301 414.631 455.536ZM428.232 464C428.136 463.883 428.04 463.717 427.944 463.504C427.859 463.28 427.805 462.981 427.784 462.608C427.528 463.141 427.171 463.547 426.712 463.824C426.253 464.091 425.731 464.224 425.144 464.224C424.739 464.224 424.371 464.165 424.04 464.048C423.709 463.931 423.427 463.765 423.192 463.552C422.957 463.328 422.771 463.067 422.632 462.768C422.504 462.469 422.44 462.139 422.44 461.776C422.44 461.381 422.515 461.035 422.664 460.736C422.813 460.427 423.016 460.171 423.272 459.968C423.528 459.755 423.821 459.584 424.152 459.456C424.493 459.328 424.856 459.232 425.24 459.168L427.752 458.768V458.432C427.752 457.515 427.197 457.056 426.088 457.056C425.523 457.056 425.107 457.163 424.84 457.376C424.573 457.579 424.44 457.819 424.44 458.096C424.44 458.139 424.44 458.176 424.44 458.208C424.44 458.229 424.451 458.272 424.472 458.336L423.016 458.832C422.931 458.629 422.888 458.416 422.888 458.192C422.888 457.883 422.957 457.589 423.096 457.312C423.245 457.024 423.459 456.773 423.736 456.56C424.013 456.336 424.349 456.16 424.744 456.032C425.139 455.904 425.587 455.84 426.088 455.84C427.176 455.84 427.997 456.075 428.552 456.544C429.107 457.003 429.384 457.664 429.384 458.528V462.016C429.384 462.475 429.416 462.848 429.48 463.136C429.555 463.413 429.683 463.701 429.864 464H428.232ZM425.4 462.864C425.752 462.864 426.072 462.8 426.36 462.672C426.659 462.533 426.909 462.347 427.112 462.112C427.315 461.867 427.469 461.584 427.576 461.264C427.693 460.933 427.752 460.576 427.752 460.192V459.968L425.608 460.336C425.107 460.421 424.723 460.576 424.456 460.8C424.2 461.013 424.072 461.307 424.072 461.68C424.072 462.043 424.189 462.331 424.424 462.544C424.669 462.757 424.995 462.864 425.4 462.864ZM430.62 456.064H431.9V453.92H433.532V456.064H435.308V457.376H433.532V461.584C433.532 461.979 433.617 462.272 433.788 462.464C433.958 462.656 434.236 462.752 434.62 462.752C434.705 462.752 434.801 462.741 434.908 462.72C435.025 462.699 435.126 462.677 435.212 462.656L435.356 464.032C435.206 464.085 435.03 464.128 434.828 464.16C434.625 464.203 434.406 464.224 434.172 464.224C433.873 464.224 433.585 464.187 433.308 464.112C433.03 464.037 432.785 463.909 432.572 463.728C432.369 463.547 432.204 463.307 432.076 463.008C431.958 462.699 431.9 462.32 431.9 461.872V457.376H430.62V456.064ZM436.995 456.064H438.627V464H436.995V456.064ZM436.883 452.96H438.739V454.8H436.883V452.96ZM442.155 457.984C442.155 458.325 442.326 458.592 442.667 458.784C443.009 458.976 443.499 459.131 444.139 459.248C445.046 459.429 445.718 459.707 446.155 460.08C446.593 460.453 446.811 460.976 446.811 461.648C446.811 462 446.742 462.336 446.603 462.656C446.465 462.965 446.262 463.237 445.995 463.472C445.739 463.696 445.419 463.877 445.035 464.016C444.662 464.155 444.23 464.224 443.739 464.224C443.27 464.224 442.843 464.16 442.459 464.032C442.086 463.904 441.755 463.733 441.467 463.52C441.179 463.307 440.929 463.056 440.715 462.768C440.513 462.48 440.353 462.181 440.235 461.872L441.563 461.04C441.755 461.563 442.033 461.995 442.395 462.336C442.758 462.667 443.211 462.832 443.755 462.832C444.171 462.832 444.523 462.731 444.811 462.528C445.11 462.315 445.259 462.037 445.259 461.696C445.259 461.355 445.105 461.099 444.795 460.928C444.497 460.747 444.027 460.592 443.387 460.464C443.014 460.389 442.662 460.288 442.331 460.16C442.011 460.032 441.729 459.872 441.483 459.68C441.238 459.488 441.041 459.259 440.891 458.992C440.753 458.725 440.683 458.416 440.683 458.064C440.683 457.712 440.758 457.397 440.907 457.12C441.067 456.843 441.275 456.608 441.531 456.416C441.798 456.224 442.102 456.08 442.443 455.984C442.785 455.888 443.142 455.84 443.515 455.84C444.358 455.84 445.03 456.005 445.531 456.336C446.033 456.667 446.422 457.157 446.699 457.808L445.499 458.512C445.318 458.032 445.051 457.675 444.699 457.44C444.358 457.205 443.974 457.088 443.547 457.088C443.174 457.088 442.849 457.168 442.571 457.328C442.294 457.488 442.155 457.707 442.155 457.984ZM447.805 456.064H449.005V454.672C449.005 453.829 449.239 453.173 449.709 452.704C450.189 452.235 450.834 452 451.645 452C451.954 452 452.253 452.048 452.541 452.144L452.253 453.552C452.157 453.52 452.061 453.499 451.965 453.488C451.879 453.477 451.794 453.472 451.709 453.472C451.378 453.472 451.117 453.579 450.925 453.792C450.733 453.995 450.637 454.299 450.637 454.704V456.064H452.429V457.376H450.637V464H449.005V457.376H447.805V456.064ZM459.06 464C458.964 463.883 458.868 463.717 458.772 463.504C458.687 463.28 458.633 462.981 458.612 462.608C458.356 463.141 457.999 463.547 457.54 463.824C457.081 464.091 456.559 464.224 455.972 464.224C455.567 464.224 455.199 464.165 454.868 464.048C454.537 463.931 454.255 463.765 454.02 463.552C453.785 463.328 453.599 463.067 453.46 462.768C453.332 462.469 453.268 462.139 453.268 461.776C453.268 461.381 453.343 461.035 453.492 460.736C453.641 460.427 453.844 460.171 454.1 459.968C454.356 459.755 454.649 459.584 454.98 459.456C455.321 459.328 455.684 459.232 456.068 459.168L458.58 458.768V458.432C458.58 457.515 458.025 457.056 456.916 457.056C456.351 457.056 455.935 457.163 455.668 457.376C455.401 457.579 455.268 457.819 455.268 458.096C455.268 458.139 455.268 458.176 455.268 458.208C455.268 458.229 455.279 458.272 455.3 458.336L453.844 458.832C453.759 458.629 453.716 458.416 453.716 458.192C453.716 457.883 453.785 457.589 453.924 457.312C454.073 457.024 454.287 456.773 454.564 456.56C454.841 456.336 455.177 456.16 455.572 456.032C455.967 455.904 456.415 455.84 456.916 455.84C458.004 455.84 458.825 456.075 459.38 456.544C459.935 457.003 460.212 457.664 460.212 458.528V462.016C460.212 462.475 460.244 462.848 460.308 463.136C460.383 463.413 460.511 463.701 460.692 464H459.06ZM456.228 462.864C456.58 462.864 456.9 462.8 457.188 462.672C457.487 462.533 457.737 462.347 457.94 462.112C458.143 461.867 458.297 461.584 458.404 461.264C458.521 460.933 458.58 460.576 458.58 460.192V459.968L456.436 460.336C455.935 460.421 455.551 460.576 455.284 460.8C455.028 461.013 454.9 461.307 454.9 461.68C454.9 462.043 455.017 462.331 455.252 462.544C455.497 462.757 455.823 462.864 456.228 462.864ZM469.665 461.936C469.292 462.683 468.796 463.253 468.177 463.648C467.569 464.032 466.849 464.224 466.017 464.224C465.441 464.224 464.903 464.123 464.401 463.92C463.9 463.717 463.463 463.435 463.089 463.072C462.727 462.699 462.439 462.256 462.225 461.744C462.012 461.221 461.905 460.651 461.905 460.032C461.905 459.413 462.012 458.848 462.225 458.336C462.449 457.813 462.748 457.371 463.121 457.008C463.505 456.635 463.943 456.347 464.433 456.144C464.935 455.941 465.463 455.84 466.017 455.84C466.892 455.84 467.639 456.032 468.257 456.416C468.876 456.8 469.324 457.328 469.601 458L468.305 458.864C468.017 458.277 467.676 457.877 467.281 457.664C466.897 457.451 466.481 457.344 466.033 457.344C465.692 457.344 465.372 457.408 465.073 457.536C464.775 457.653 464.513 457.829 464.289 458.064C464.065 458.288 463.889 458.571 463.761 458.912C463.633 459.243 463.569 459.616 463.569 460.032C463.569 460.448 463.628 460.827 463.745 461.168C463.873 461.499 464.049 461.781 464.273 462.016C464.497 462.24 464.759 462.416 465.057 462.544C465.356 462.661 465.681 462.72 466.033 462.72C466.631 462.72 467.105 462.581 467.457 462.304C467.82 462.016 468.135 461.621 468.401 461.12L469.665 461.936ZM470.495 456.064H471.775V453.92H473.407V456.064H475.183V457.376H473.407V461.584C473.407 461.979 473.492 462.272 473.663 462.464C473.833 462.656 474.111 462.752 474.495 462.752C474.58 462.752 474.676 462.741 474.783 462.72C474.9 462.699 475.001 462.677 475.087 462.656L475.231 464.032C475.081 464.085 474.905 464.128 474.703 464.16C474.5 464.203 474.281 464.224 474.047 464.224C473.748 464.224 473.46 464.187 473.183 464.112C472.905 464.037 472.66 463.909 472.447 463.728C472.244 463.547 472.079 463.307 471.951 463.008C471.833 462.699 471.775 462.32 471.775 461.872V457.376H470.495V456.064ZM476.87 456.064H478.502V464H476.87V456.064ZM476.758 452.96H478.614V454.8H476.758V452.96ZM488.635 460.032C488.635 460.725 488.513 461.333 488.267 461.856C488.022 462.379 487.697 462.816 487.291 463.168C486.897 463.52 486.443 463.787 485.931 463.968C485.43 464.139 484.918 464.224 484.395 464.224C483.873 464.224 483.355 464.139 482.843 463.968C482.342 463.787 481.889 463.52 481.483 463.168C481.089 462.816 480.769 462.379 480.523 461.856C480.278 461.333 480.155 460.725 480.155 460.032C480.155 459.349 480.278 458.747 480.523 458.224C480.769 457.701 481.089 457.264 481.483 456.912C481.889 456.56 482.342 456.293 482.843 456.112C483.355 455.931 483.873 455.84 484.395 455.84C484.918 455.84 485.43 455.931 485.931 456.112C486.443 456.293 486.897 456.56 487.291 456.912C487.697 457.264 488.022 457.701 488.267 458.224C488.513 458.747 488.635 459.349 488.635 460.032ZM484.395 462.72C484.747 462.72 485.078 462.656 485.387 462.528C485.697 462.4 485.969 462.219 486.203 461.984C486.438 461.749 486.625 461.467 486.763 461.136C486.902 460.805 486.971 460.437 486.971 460.032C486.971 459.627 486.902 459.259 486.763 458.928C486.625 458.597 486.438 458.315 486.203 458.08C485.969 457.845 485.697 457.664 485.387 457.536C485.078 457.408 484.747 457.344 484.395 457.344C484.043 457.344 483.713 457.408 483.403 457.536C483.094 457.664 482.822 457.845 482.587 458.08C482.353 458.315 482.166 458.597 482.027 458.928C481.889 459.259 481.819 459.627 481.819 460.032C481.819 460.437 481.889 460.805 482.027 461.136C482.166 461.467 482.353 461.749 482.587 461.984C482.822 462.219 483.094 462.4 483.403 462.528C483.713 462.656 484.043 462.72 484.395 462.72ZM497.49 464H495.858V459.088C495.858 458.544 495.703 458.117 495.394 457.808C495.095 457.499 494.663 457.344 494.098 457.344C493.81 457.344 493.538 457.403 493.282 457.52C493.036 457.637 492.818 457.803 492.626 458.016C492.444 458.229 492.295 458.491 492.178 458.8C492.071 459.099 492.018 459.435 492.018 459.808V464H490.386V456.064H492.018V457.392C492.295 456.923 492.668 456.549 493.138 456.272C493.618 455.984 494.146 455.84 494.722 455.84C495.106 455.84 495.468 455.904 495.81 456.032C496.151 456.149 496.444 456.325 496.69 456.56C496.935 456.784 497.127 457.072 497.266 457.424C497.415 457.765 497.49 458.16 497.49 458.608V464ZM507.015 461.536L508.855 459.696H503.767V458.384H508.855L507.015 456.544L507.991 455.568L511.479 459.04L507.991 462.512L507.015 461.536Z" fill="#FFFCFC"/>
<path fill-rule="evenodd" clip-rule="evenodd" d="M7.65747 35.9144V103.39L9.41713 104.275L59.4473 129.362L60.9411 130.11L62.4222 129.337L110.617 104.25L112.338 103.352V0H7.65747V35.9144Z" fill="white"/>
<path fill-rule="evenodd" clip-rule="evenodd" d="M7.65747 103.39L112.338 0V103.39L60.9411 130.11L7.65747 103.39Z" fill="#F7F8F7"/>
<path d="M7.65747 35.9144V103.39L9.41713 104.275L59.4473 129.362L60.9411 130.11L62.4222 129.337L110.617 104.25L112.338 103.352V0H7.65747V35.9144ZM10.8856 101.431V3.15608H109.11V101.431L60.9158 126.53L10.8856 101.431V101.431Z" fill="#DCDEDC"/>
<g opacity="0.9">
<path opacity="0.9" d="M29.3572 103.775H39.57V102.649H29.3572V103.775ZM80.4211 103.775H90.6339V102.649H80.4211V103.775Z" fill="#FF492C"/>
</g>
<path d="M51.2492 107.591C51.3475 107.591 51.4177 107.522 51.4177 107.426V106.091C51.4177 105.995 51.3475 105.926 51.2492 105.926H47.4436C47.3875 105.926 47.3594 105.884 47.4015 105.843C48.4126 104.839 49.3394 103.93 50.0555 103.063C50.7998 102.169 51.2351 101.371 51.2351 100.572C51.2351 99.0724 49.9994 97.8477 47.9632 97.8477C46.1658 97.8477 44.7896 98.811 44.7053 100.339V100.985C44.7053 101.082 44.7755 101.15 44.8738 101.15H46.5309C46.6292 101.15 46.6994 101.082 46.6994 100.985V100.641C46.6994 99.967 47.2049 99.5128 47.9632 99.5128C48.7215 99.5128 49.227 99.9669 49.227 100.614C49.227 101.123 48.7075 101.852 47.9492 102.678C47.0083 103.683 45.9972 104.839 44.8457 105.953C44.7896 106.008 44.7615 106.077 44.7615 106.16V107.426C44.7615 107.522 44.8317 107.591 44.93 107.591H51.2492ZM55.9815 107.742C58.0458 107.742 59.3377 106.531 59.3377 104.591V100.958C59.3377 99.0449 58.0458 97.8477 55.9815 97.8477C53.9172 97.8477 52.6394 99.0449 52.6394 100.958V104.591C52.6394 106.531 53.9172 107.742 55.9815 107.742ZM55.9815 106.077C55.153 106.077 54.6194 105.54 54.6194 104.687V100.903C54.6194 100.05 55.153 99.5128 55.9815 99.5128C56.824 99.5128 57.3577 100.05 57.3577 100.903V104.687C57.3577 105.54 56.824 106.077 55.9815 106.077ZM67.1172 107.591C67.2155 107.591 67.2858 107.522 67.2858 107.426V106.091C67.2858 105.995 67.2155 105.926 67.1172 105.926H63.3117C63.2555 105.926 63.2275 105.884 63.2696 105.843C64.2806 104.839 65.2075 103.93 65.9236 103.063C66.6679 102.169 67.1032 101.371 67.1032 100.572C67.1032 99.0724 65.8675 97.8477 63.8313 97.8477C62.0338 97.8477 60.6577 98.811 60.5734 100.339V100.985C60.5734 101.082 60.6436 101.15 60.7419 101.15H62.3989C62.4972 101.15 62.5675 101.082 62.5675 100.985V100.641C62.5675 99.967 63.073 99.5128 63.8313 99.5128C64.5896 99.5128 65.0951 99.9669 65.0951 100.614C65.0951 101.123 64.5755 101.852 63.8172 102.678C62.8764 103.683 61.8653 104.839 60.7138 105.953C60.6577 106.008 60.6296 106.077 60.6296 106.16V107.426C60.6296 107.522 60.6998 107.591 60.7981 107.591H67.1172ZM71.8496 107.742C73.9138 107.742 75.2058 106.531 75.2058 104.591V100.958C75.2058 99.0449 73.9138 97.8477 71.8496 97.8477C69.7853 97.8477 68.5075 99.0449 68.5075 100.958V104.591C68.5075 106.531 69.7853 107.742 71.8496 107.742ZM71.8496 106.077C71.0211 106.077 70.4875 105.54 70.4875 104.687V100.903C70.4875 100.05 71.0211 99.5128 71.8496 99.5128C72.6921 99.5128 73.2258 100.05 73.2258 100.903V104.687C73.2258 105.54 72.6921 106.077 71.8496 106.077Z" fill="#0A0B09"/>
<path opacity="0.9" d="M115.904 58.7997H4.10897L0 75.0634L4.10897 91.3272H115.904L120 75.0634L115.904 58.7997ZM60.6383 4.75598C61.131 4.75718 61.6224 4.80243 62.1064 4.89117L60.6383 7.77917C59.0848 7.69663 57.6113 8.44752 56.8087 9.73061C56.0062 11.0137 56.0062 12.6187 56.8087 13.9018C57.6113 15.1849 59.0848 15.9358 60.6383 15.8533C61.6569 15.8491 62.6417 15.5012 63.4213 14.8701L65.0426 17.5246C63.7607 18.4152 62.2191 18.8926 60.6383 18.8888C57.9451 18.9969 55.407 17.6754 54.0269 15.4464C52.6468 13.2174 52.6468 10.4396 54.0269 8.21059C55.407 5.98159 57.9451 4.66008 60.6383 4.76827V4.75598V4.75598ZM65.8213 10.8024L67.7106 13.8378L65.8213 16.861L64.0213 13.8378H60.3191L62.1702 10.8146L65.8213 10.8024V10.8024ZM62.7447 9.64715C62.7243 9.17811 62.8439 8.71327 63.0894 8.30761C63.3897 7.89044 63.8054 7.56262 64.2894 7.36133L64.5574 7.23844C65.017 7.01723 65.1447 6.83289 65.1447 6.59939C65.1447 6.36589 64.8894 6.1201 64.4808 6.1201C63.9989 6.12454 63.5686 6.41203 63.3957 6.84518L62.7447 6.23071C62.892 5.93705 63.1277 5.69294 63.4213 5.53021C63.7541 5.32049 64.1473 5.21728 64.5447 5.23527C64.9727 5.22279 65.3935 5.34345 65.7447 5.57937C66.0613 5.81401 66.2456 6.17785 66.2426 6.56252C66.2426 7.21386 65.8596 7.61941 65.1191 7.9758L64.7106 8.17243C64.2766 8.38135 64.0596 8.56569 63.9957 8.8975H66.2298V9.77004H62.783L62.7447 9.64715V9.64715ZM60.0067 25.0211L72.766 18.3357V0H47.234V18.3357L60.0067 25.0211Z" fill="#FF492C"/>
<path d="M17.7618 78.8168C17.8422 78.8168 17.8997 78.7605 17.8997 78.6817V75.4615C17.8997 75.4277 17.9226 75.4052 17.9571 75.4052H20.5882C20.6686 75.4052 20.726 75.3489 20.726 75.2701V74.4144C20.726 74.3356 20.6686 74.2793 20.5882 74.2793H17.9571C17.9226 74.2793 17.8997 74.2567 17.8997 74.223V72.1175C17.8997 72.0837 17.9226 72.0612 17.9571 72.0612H21.8635C21.9439 72.0612 22.0014 72.0049 22.0014 71.9261V71.0703C22.0014 70.9915 21.9439 70.9352 21.8635 70.9352H16.7048C16.6243 70.9352 16.5669 70.9915 16.5669 71.0703V78.6817C16.5669 78.7605 16.6243 78.8168 16.7048 78.8168H17.7618V78.8168ZM23.6673 72.2751C24.1384 72.2751 24.4831 71.9373 24.4831 71.4757C24.4831 71.0028 24.1384 70.6763 23.6673 70.6763C23.1963 70.6763 22.8516 71.0028 22.8516 71.4757C22.8516 71.9373 23.1963 72.2751 23.6673 72.2751ZM24.1729 78.8168C24.2533 78.8168 24.3107 78.7605 24.3107 78.6817V73.1871C24.3107 73.1083 24.2533 73.052 24.1729 73.052H23.1158C23.0354 73.052 22.978 73.1083 22.978 73.1871V78.6817C22.978 78.7605 23.0354 78.8168 23.1158 78.8168H24.1729ZM27.0337 78.8168C27.1141 78.8168 27.1716 78.7605 27.1716 78.6817V75.2476C27.1716 74.5607 27.6197 74.0991 28.2746 74.0991C28.9409 74.0991 29.366 74.572 29.366 75.2588V78.6817C29.366 78.7605 29.4235 78.8168 29.5039 78.8168H30.5609C30.6414 78.8168 30.6988 78.7605 30.6988 78.6817V74.9886C30.6988 73.7388 29.8946 72.9732 28.6537 72.9732C28.0448 72.9732 27.5507 73.1646 27.229 73.5812C27.206 73.6262 27.1716 73.6037 27.1716 73.5587V73.1984C27.1716 73.1195 27.1141 73.0633 27.0337 73.0633H25.9767C25.8963 73.0633 25.8388 73.1195 25.8388 73.1984V78.6817C25.8388 78.7605 25.8963 78.8168 25.9767 78.8168H27.0337ZM33.7205 78.9069C34.4329 78.9069 34.9843 78.6929 35.352 78.2989C35.3865 78.2651 35.4209 78.2763 35.4209 78.3214V78.6817C35.4209 78.7605 35.4784 78.8168 35.5588 78.8168H36.6158C36.6963 78.8168 36.7537 78.7605 36.7537 78.6817V74.8873C36.7537 73.7839 35.8001 72.9732 34.3294 72.9732C32.9852 72.9732 32.0316 73.6375 31.9167 74.5382C31.9052 74.5945 31.9626 74.6396 32.0431 74.6508L33.1575 74.7859C33.238 74.7972 33.2954 74.7522 33.3184 74.6733C33.4103 74.313 33.778 74.0991 34.3639 74.0991C35.0763 74.0991 35.4209 74.4482 35.4209 75.0224V75.2926C35.4209 75.3264 35.398 75.3489 35.3635 75.3489H34.1341C32.606 75.3489 31.7443 76.047 31.7443 77.2067C31.7443 78.3889 32.652 78.9069 33.7205 78.9069V78.9069ZM34.0537 77.871C33.5022 77.871 33.0886 77.612 33.0886 77.1166C33.0886 76.5537 33.6056 76.2497 34.3984 76.2497H35.3635C35.398 76.2497 35.4209 76.2722 35.4209 76.306V76.8351C35.4209 77.4544 34.7775 77.871 34.0537 77.871V77.871ZM39.2814 78.8168C39.3618 78.8168 39.4192 78.7605 39.4192 78.6817V75.2476C39.4192 74.5607 39.8673 74.0991 40.5222 74.0991C41.1886 74.0991 41.6137 74.572 41.6137 75.2588V78.6817C41.6137 78.7605 41.6711 78.8168 41.7516 78.8168H42.8086C42.889 78.8168 42.9465 78.7605 42.9465 78.6817V74.9886C42.9465 73.7388 42.1422 72.9732 40.9014 72.9732C40.2924 72.9732 39.7984 73.1646 39.4767 73.5812C39.4537 73.6262 39.4192 73.6037 39.4192 73.5587V73.1984C39.4192 73.1195 39.3618 73.0633 39.2814 73.0633H38.2243C38.1439 73.0633 38.0865 73.1195 38.0865 73.1984V78.6817C38.0865 78.7605 38.1439 78.8168 38.2243 78.8168H39.2814V78.8168ZM46.738 78.9069C47.9214 78.9069 48.8865 78.3101 49.1852 77.3418C49.2197 77.2405 49.2311 77.1504 49.2426 77.0828C49.2541 76.9928 49.1967 76.9365 49.1163 76.9252L48.0822 76.7676C48.0018 76.7563 47.9443 76.7901 47.9214 76.8802C47.9214 76.8914 47.9214 76.9027 47.9099 76.914C47.9099 76.9252 47.9099 76.9477 47.8984 76.9703C47.772 77.4544 47.3239 77.7809 46.738 77.7809C46.129 77.7809 45.7269 77.4431 45.5775 76.9252C45.5201 76.7113 45.4741 76.3848 45.4741 75.9231C45.4741 75.484 45.5201 75.135 45.589 74.9211C45.7269 74.4256 46.1405 74.0991 46.738 74.0991C47.3239 74.0991 47.749 74.4144 47.8869 74.8197C47.9099 74.876 47.9214 74.921 47.9328 74.9773C47.9443 75.0111 47.9443 75.0336 47.9443 75.0674C47.9673 75.1575 48.0248 75.1913 48.1052 75.18L49.1392 75.0336C49.2197 75.0224 49.2771 74.9661 49.2656 74.876C49.2541 74.7859 49.2311 74.6621 49.1852 74.5157C48.9094 73.6487 47.9673 72.9732 46.738 72.9732C45.5545 72.9732 44.6354 73.5924 44.3137 74.5833C44.1988 74.9098 44.1299 75.3264 44.1299 75.9119C44.1299 76.4298 44.1758 76.8802 44.3137 77.263C44.6469 78.2651 45.5545 78.9069 46.738 78.9069V78.9069ZM52.8503 78.9181C53.8384 78.9294 54.6771 78.5466 55.1597 77.8823C55.2056 77.8147 55.1941 77.7584 55.1252 77.7021L54.4128 77.1279C54.3439 77.0716 54.275 77.0828 54.2175 77.1617C53.9418 77.5445 53.5397 77.7922 52.9767 77.7922C52.2414 77.7809 51.8048 77.4769 51.6324 76.9703C51.575 76.8464 51.552 76.6775 51.529 76.4636C51.529 76.4298 51.552 76.4073 51.5865 76.4073H55.1826C55.2631 76.4073 55.3205 76.3622 55.3205 76.2722C55.332 75.9119 55.332 75.6079 55.286 75.2926C55.1137 73.8739 54.3554 72.9732 52.7354 72.9732C51.529 72.9732 50.6443 73.6375 50.3341 74.6733C50.2192 75.0224 50.1848 75.439 50.1963 75.9006C50.1963 76.4974 50.2767 77.004 50.4605 77.4206C50.8397 78.3439 51.6554 78.8956 52.8503 78.9181V78.9181ZM53.9188 75.439H51.5865C51.552 75.439 51.529 75.4165 51.5405 75.3827C51.552 75.1913 51.575 75.0336 51.6324 74.8873C51.7818 74.4031 52.1494 74.0991 52.7354 74.0991C53.3558 74.0991 53.7694 74.4256 53.9073 74.9548C53.9418 75.0562 53.9648 75.2138 53.9763 75.3827C53.9763 75.4165 53.9533 75.439 53.9188 75.439V75.439ZM60.1001 78.8168C60.1805 78.8168 60.238 78.7605 60.238 78.6817V75.6529C60.238 75.6191 60.2609 75.5966 60.2954 75.5966H62.1337C63.6388 75.5966 64.6384 74.6733 64.6384 73.2772C64.6384 71.8698 63.6618 70.924 62.2026 70.924H59.0431C58.9626 70.924 58.9052 70.9803 58.9052 71.0591V78.6817C58.9052 78.7605 58.9626 78.8168 59.0431 78.8168H60.1001ZM62.0073 74.5382H60.2954C60.2609 74.5382 60.238 74.5157 60.238 74.4819V72.1062C60.238 72.0724 60.2609 72.0499 60.2954 72.0499H62.0073C62.7886 72.0499 63.3056 72.5566 63.3056 73.311C63.3056 74.0428 62.7886 74.5382 62.0073 74.5382ZM66.8788 78.8168C66.9592 78.8168 67.0167 78.7605 67.0167 78.6817V75.4953C67.0167 74.8085 67.5222 74.3919 68.1426 74.3581C68.3954 74.3243 68.6252 74.3468 68.7745 74.4031C68.8665 74.4369 68.9239 74.4144 68.9354 74.3243L69.1307 73.311C69.1422 73.2434 69.1307 73.1758 69.0618 73.1421C68.9124 73.0633 68.7171 72.9957 68.4184 72.9957C67.8094 72.9957 67.3728 73.2772 67.0741 73.7276C67.0511 73.7726 67.0167 73.7613 67.0167 73.705V73.1984C67.0167 73.1195 66.9592 73.0633 66.8788 73.0633H65.8218C65.7414 73.0633 65.6839 73.1195 65.6839 73.1984V78.6817C65.6839 78.7605 65.7414 78.8168 65.8218 78.8168H66.8788V78.8168ZM72.3822 78.9069C73.5656 78.9069 74.4733 78.2651 74.818 77.1954C74.9443 76.8239 75.0133 76.3735 75.0133 75.9119C75.0133 75.4615 74.9443 74.9886 74.8065 74.6283C74.4503 73.5924 73.5656 72.9732 72.3937 72.9732C71.1643 72.9732 70.2567 73.5924 69.9005 74.6396C69.7856 74.9886 69.7167 75.4615 69.7167 75.9231C69.7167 76.3735 69.7971 76.8464 69.912 77.2067C70.2567 78.2651 71.1758 78.9069 72.3822 78.9069ZM72.3822 77.7809C71.7848 77.7809 71.3482 77.4431 71.1758 76.8802C71.1069 76.6437 71.0609 76.2834 71.0609 75.9344C71.0609 75.5628 71.1069 75.2251 71.1758 74.9886C71.3597 74.4256 71.7848 74.0991 72.3592 74.0991C72.9567 74.0991 73.3818 74.4256 73.5541 74.9886C73.6345 75.2251 73.669 75.5628 73.669 75.9344C73.669 76.2722 73.6345 76.6212 73.5541 76.8802C73.3703 77.4431 72.9452 77.7809 72.3822 77.7809ZM78.529 78.9069C79.0805 78.9069 79.5286 78.6929 79.8503 78.3214C79.8848 78.2763 79.9192 78.2989 79.9192 78.3439V78.6817C79.9192 78.7605 79.9767 78.8168 80.0571 78.8168H81.1141C81.1945 78.8168 81.252 78.7605 81.252 78.6817V71.0703C81.252 70.9915 81.1945 70.9352 81.1141 70.9352H80.0571C79.9767 70.9352 79.9192 70.9915 79.9192 71.0703V73.5136C79.9192 73.5587 79.8848 73.5699 79.8503 73.5361C79.5286 73.1758 79.092 72.9732 78.552 72.9732C77.3801 72.9732 76.6448 73.5924 76.3231 74.5495C76.1852 74.9548 76.1277 75.4165 76.1277 75.9231C76.1277 76.4411 76.1967 76.914 76.3345 77.3306C76.6677 78.3101 77.426 78.9069 78.529 78.9069V78.9069ZM78.7358 77.7809C78.2992 77.7809 77.966 77.5895 77.7592 77.2405C77.5869 76.9252 77.4835 76.4861 77.4835 75.9457C77.4835 75.3489 77.6099 74.8873 77.8282 74.572C78.0465 74.2567 78.3452 74.0991 78.7473 74.0991C79.1265 74.0991 79.4137 74.268 79.6205 74.5945C79.8158 74.9098 79.9077 75.3602 79.9077 75.9344C79.9077 76.4861 79.8158 76.9365 79.6435 77.2405C79.4367 77.5895 79.138 77.7809 78.7358 77.7809ZM84.6873 78.8956C85.3422 78.8956 85.8018 78.6817 86.1005 78.2989C86.135 78.2538 86.1694 78.2763 86.1694 78.3214V78.6817C86.1694 78.7605 86.2269 78.8168 86.3073 78.8168H87.3528C87.4333 78.8168 87.4907 78.7605 87.4907 78.6817V73.1984C87.4907 73.1195 87.4333 73.0633 87.3528 73.0633H86.3073C86.2269 73.0633 86.1694 73.1195 86.1694 73.1984V76.6212C86.1694 77.3193 85.7214 77.7809 85.032 77.7809C84.3426 77.7809 83.9635 77.3193 83.9635 76.6212V73.1984C83.9635 73.1195 83.906 73.0633 83.8256 73.0633H82.7686C82.6882 73.0633 82.6307 73.1195 82.6307 73.1984V76.9928C82.6307 78.2651 83.5958 78.8956 84.6873 78.8956V78.8956ZM91.3626 78.9069C92.546 78.9069 93.5111 78.3101 93.8099 77.3418C93.8443 77.2405 93.8558 77.1504 93.8673 77.0828C93.8788 76.9928 93.8214 76.9365 93.7409 76.9252L92.7069 76.7676C92.6265 76.7563 92.569 76.7901 92.546 76.8802C92.546 76.8914 92.546 76.9027 92.5345 76.914C92.5345 76.9252 92.5345 76.9477 92.5231 76.9703C92.3967 77.4544 91.9486 77.7809 91.3626 77.7809C90.7537 77.7809 90.3516 77.4431 90.2022 76.9252C90.1448 76.7113 90.0988 76.3848 90.0988 75.9231C90.0988 75.484 90.1448 75.135 90.2137 74.9211C90.3516 74.4256 90.7652 74.0991 91.3626 74.0991C91.9486 74.0991 92.3737 74.4144 92.5116 74.8197C92.5345 74.876 92.546 74.921 92.5575 74.9773C92.569 75.0111 92.569 75.0336 92.569 75.0674C92.592 75.1575 92.6494 75.1913 92.7299 75.18L93.7639 75.0336C93.8443 75.0224 93.9018 74.9661 93.8903 74.876C93.8788 74.7859 93.8558 74.6621 93.8099 74.5157C93.5341 73.6487 92.592 72.9732 91.3626 72.9732C90.1792 72.9732 89.2601 73.5924 88.9384 74.5833C88.8235 74.9098 88.7545 75.3264 88.7545 75.9119C88.7545 76.4298 88.8005 76.8802 88.9384 77.263C89.2716 78.2651 90.1792 78.9069 91.3626 78.9069V78.9069ZM97.3026 78.8393C97.4979 78.8393 97.6933 78.828 97.9001 78.828C97.992 78.8168 98.038 78.7605 98.038 78.6817V77.8372C98.038 77.7584 97.9805 77.7021 97.9001 77.7021H97.5554C97.0154 77.7021 96.7626 77.4657 96.7626 76.8914V74.1779C96.7626 74.1442 96.7856 74.1216 96.8201 74.1216H97.992C98.0724 74.1216 98.1299 74.0653 98.1299 73.9865V73.1984C98.1299 73.1195 98.0724 73.0633 97.992 73.0633H96.8201C96.7856 73.0633 96.7626 73.0407 96.7626 73.007V71.6896C96.7626 71.6108 96.7052 71.5545 96.6248 71.5545H95.6252C95.5448 71.5545 95.4873 71.6108 95.4873 71.6896V73.007C95.4873 73.0407 95.4643 73.0633 95.4299 73.0633H94.775C94.6945 73.0633 94.6371 73.1195 94.6371 73.1984V73.9865C94.6371 74.0653 94.6945 74.1216 94.775 74.1216H95.4299C95.4643 74.1216 95.4873 74.1442 95.4873 74.1779V77.3868C95.4988 78.5803 96.1997 78.8393 97.3026 78.8393V78.8393ZM101.496 78.8843C102.909 78.8843 103.852 78.2538 103.852 77.1729C103.852 76.047 102.783 75.6979 101.841 75.4277C101.06 75.2138 100.416 75.1012 100.416 74.6396C100.416 74.2342 100.841 74.0203 101.427 74.0203C102.117 74.0203 102.519 74.3356 102.519 74.7071C102.519 74.7859 102.576 74.8422 102.657 74.8422H103.633C103.714 74.8422 103.771 74.7859 103.771 74.7071C103.771 73.705 102.852 72.9957 101.439 72.9957C100.083 72.9957 99.1409 73.6487 99.1409 74.7184C99.1409 75.8218 100.163 76.1821 101.083 76.4523C101.841 76.7 102.519 76.7788 102.519 77.2517C102.519 77.6233 102.105 77.9048 101.485 77.9048C100.83 77.9048 100.37 77.5783 100.37 77.2067V77.1842C100.37 77.1054 100.313 77.0491 100.232 77.0491H99.2214C99.1409 77.0491 99.0835 77.1054 99.0835 77.1842V77.2855C99.0835 78.1975 100.026 78.8843 101.496 78.8843Z" fill="white"/>
<path d="M31.4168 50.0421C31.5955 50.0421 31.7232 49.917 31.7232 49.7419V35.705C31.7232 35.6299 31.7743 35.5799 31.8508 35.5799H36.4211C36.5998 35.5799 36.7274 35.4548 36.7274 35.2796V32.8276C36.7274 32.6524 36.5998 32.5273 36.4211 32.5273H23.553C23.3742 32.5273 23.2466 32.6524 23.2466 32.8276V35.2796C23.2466 35.4548 23.3742 35.5799 23.553 35.5799H27.9955C28.0721 35.5799 28.1232 35.6299 28.1232 35.705V49.7419C28.1232 49.917 28.2508 50.0421 28.4296 50.0421H31.4168ZM42.4466 50.2423C45.3317 50.2423 47.4509 48.641 48.1913 46.0638C48.4211 45.3131 48.5487 44.4374 48.5487 43.5366C48.5487 42.6109 48.3955 41.6851 48.1402 40.9094C47.3487 38.4824 45.3062 36.9811 42.4721 36.9811C39.587 36.9811 37.4679 38.4824 36.6764 40.9344C36.4466 41.6851 36.3189 42.6359 36.3189 43.5867C36.3189 44.4874 36.4466 45.3882 36.6764 46.1388C37.4168 48.666 39.5615 50.2423 42.4466 50.2423V50.2423ZM42.4466 47.2148C41.2721 47.2148 40.4551 46.4891 40.1232 45.3382C39.9955 44.8878 39.9445 44.2372 39.9445 43.5867C39.9445 42.9111 39.9955 42.2606 40.1487 41.8102C40.4806 40.7092 41.2466 40.0087 42.4211 40.0087C43.57 40.0087 44.3615 40.6842 44.7189 41.8102C44.8466 42.2606 44.9232 42.9111 44.9232 43.5867C44.9232 44.2122 44.8466 44.8377 44.7189 45.3382C44.387 46.4891 43.5955 47.2148 42.4466 47.2148V47.2148ZM54.2679 54.6961C54.4466 54.6961 54.5743 54.571 54.5743 54.3958V49.0413C54.5743 48.9412 54.6509 48.8912 54.7275 48.9913C55.3658 49.7669 56.2849 50.2423 57.587 50.2423C60.1658 50.2423 61.8253 48.8161 62.5658 46.7644C62.8977 45.8136 63.0509 44.7627 63.0509 43.6367C63.0509 42.5858 62.9232 41.56 62.5913 40.6342C61.8509 38.3573 60.0636 36.9811 57.6892 36.9811C56.3615 36.9811 55.3913 37.5065 54.7275 38.3573C54.6509 38.4323 54.5743 38.4073 54.5743 38.3072V37.4815C54.5743 37.3064 54.4466 37.1813 54.2679 37.1813H51.2807C51.1019 37.1813 50.9743 37.3064 50.9743 37.4815V54.3958C50.9743 54.571 51.1019 54.6961 51.2807 54.6961H54.2679V54.6961ZM56.8977 47.2148C56.1317 47.2148 55.5445 46.8645 55.1615 46.2139C54.7785 45.5884 54.5998 44.7126 54.5998 43.6117C54.5998 42.5608 54.7785 41.6851 55.136 41.0846C55.519 40.384 56.1062 40.0087 56.8977 40.0087C57.7658 40.0087 58.4041 40.384 58.787 41.0846C59.1445 41.7101 59.3232 42.5608 59.3232 43.5867C59.3232 44.6876 59.0934 45.6134 58.6849 46.2389C58.2764 46.8645 57.6892 47.2148 56.8977 47.2148V47.2148ZM76.1232 50.2173C78.8041 50.2173 80.8977 48.8411 81.6637 46.7394C81.9445 46.0388 82.0722 45.2631 82.0722 44.4374C82.0722 43.6868 81.9445 42.8861 81.6892 42.0604C80.9488 40.0087 79.0339 38.7326 76.6594 38.7326C75.7147 38.7326 74.7956 38.9578 74.0041 39.4582C73.9275 39.5082 73.8509 39.5082 73.8509 39.3831L73.8764 35.68C73.8764 35.5799 73.9275 35.5549 74.0041 35.5549H81.1275C81.3062 35.5549 81.4339 35.4298 81.4339 35.2546V32.8276C81.4339 32.6524 81.3062 32.5273 81.1275 32.5273H70.5828C70.4041 32.5273 70.2764 32.6524 70.2764 32.8276V42.9111C70.2764 43.0863 70.4041 43.2114 70.5828 43.2114H73.7232C73.902 43.2114 74.0041 43.1113 74.0551 42.9612C74.336 42.2355 75.2551 41.7852 76.1998 41.7852C77.1445 41.7852 77.936 42.2606 78.1658 43.1363C78.3445 43.5867 78.3956 44.012 78.3956 44.4374C78.3956 44.8628 78.319 45.3882 78.1403 45.7385C77.8083 46.6643 77.0424 47.1647 76.0977 47.1647C75.1786 47.1647 74.4637 46.6893 74.1317 45.8136C74.0807 45.6634 74.0041 45.5383 73.9786 45.3882C73.9275 45.2131 73.8254 45.113 73.6466 45.113H70.5573C70.353 45.113 70.2254 45.2381 70.2509 45.4382C70.3275 45.8886 70.4551 46.364 70.6339 46.8144C71.4509 48.8912 73.519 50.2173 76.1232 50.2173V50.2173ZM90.1658 50.3174C93.919 50.3174 96.2679 48.1155 96.2679 44.5875V37.9819C96.2679 34.504 93.919 32.3271 90.1658 32.3271C86.4126 32.3271 84.0892 34.504 84.0892 37.9819V44.5875C84.0892 48.1155 86.4126 50.3174 90.1658 50.3174ZM90.1658 47.2898C88.6594 47.2898 87.6892 46.314 87.6892 44.7627V37.8819C87.6892 36.3305 88.6594 35.3547 90.1658 35.3547C91.6977 35.3547 92.6679 36.3305 92.6679 37.8819V44.7627C92.6679 46.314 91.6977 47.2898 90.1658 47.2898Z" fill="#0A0B09"/>
<path fill-rule="evenodd" clip-rule="evenodd" d="M476.043 111H453.957C451.316 111 448.784 110.001 446.916 108.223C445.049 106.444 444 104.032 444 101.517V80.4829C444 77.9679 445.049 75.5559 446.916 73.7775C448.784 71.9991 451.316 71 453.957 71H476.043C478.684 71 481.216 71.9991 483.084 73.7775C484.951 75.5559 486 77.9679 486 80.4829V101.517C486 102.762 485.742 103.996 485.242 105.146C484.742 106.297 484.008 107.342 483.084 108.223C482.159 109.103 481.061 109.802 479.853 110.278C478.645 110.755 477.351 111 476.043 111Z" fill="white"/>
<path d="M474.324 95.6705C474.209 95.593 474.073 95.5515 473.933 95.5515C473.793 95.5515 473.657 95.593 473.541 95.6705C473.426 95.7522 473.341 95.8676 473.297 96.0001C473.253 96.1326 473.253 96.2752 473.297 96.4076C473.337 96.5405 473.418 96.6579 473.53 96.7436C473.641 96.8292 473.776 96.8789 473.918 96.8857C474.067 96.893 474.215 96.8519 474.338 96.7687C474.461 96.6856 474.553 96.565 474.6 96.4256C474.646 96.2861 474.644 96.1357 474.594 95.9974C474.545 95.8592 474.45 95.7408 474.324 95.6606C474.03 95.4614 474.64 95.8797 474.324 95.6705Z" fill="#FF6C36"/>
<path d="M465.71 101.846C465.866 101.856 466.022 101.856 466.178 101.846C466.483 101.846 466.799 101.846 467.104 101.776C467.177 101.768 467.251 101.777 467.319 101.802C467.388 101.828 467.449 101.869 467.498 101.923C467.547 101.977 467.582 102.041 467.6 102.111C467.618 102.181 467.619 102.254 467.602 102.324C467.583 102.39 467.55 102.451 467.504 102.503C467.459 102.554 467.402 102.595 467.338 102.623C467.253 102.637 467.167 102.637 467.083 102.623H466.768C465.939 102.693 465.105 102.693 464.276 102.623C463.526 102.541 462.784 102.394 462.059 102.185C461.358 101.98 460.677 101.713 460.025 101.388C459.369 101.064 458.742 100.684 458.154 100.252C457.476 99.7707 456.855 99.2161 456.303 98.5988C455.752 97.9838 455.264 97.3165 454.848 96.6067C453.981 95.1724 453.436 93.5729 453.252 91.9154C453.16 91.0678 453.16 90.2132 453.252 89.3656C453.339 88.5277 453.523 87.7023 453.801 86.9054C454.056 86.1179 454.397 85.3599 454.818 84.6444C455.24 83.9335 455.734 83.2661 456.293 82.6523C456.851 82.0481 457.463 81.4947 458.123 80.9989C459.498 79.9959 461.065 79.2744 462.73 78.8774C463.589 78.6812 464.464 78.5644 465.344 78.5287C466.226 78.5085 467.108 78.5685 467.978 78.708C468.825 78.8589 469.656 79.0856 470.46 79.3853C471.248 79.6855 472.001 80.0661 472.707 80.5208C473.412 80.9705 474.07 81.4877 474.67 82.0647C474.928 82.2932 475.145 82.5626 475.311 82.8615C475.446 83.1296 475.529 83.4201 475.555 83.7181C475.571 84.0211 475.526 84.3244 475.421 84.61C475.316 84.8956 475.154 85.1579 474.945 85.3814C474.699 85.6475 474.394 85.8556 474.054 85.9902C473.714 86.1247 473.348 86.1822 472.982 86.1583C472.626 86.1313 472.28 86.033 471.965 85.8695C471.805 85.783 471.658 85.6758 471.528 85.5508C471.375 85.4213 471.243 85.2619 471.09 85.1324C470.471 84.5763 469.763 84.1222 468.995 83.7878C468.208 83.4501 467.37 83.2382 466.514 83.1603C464.765 83.0064 463.013 83.4231 461.53 84.3456C460.831 84.7927 460.206 85.3438 459.679 85.9791C459.155 86.6201 458.739 87.3399 458.449 88.1106C458.162 88.8972 458.015 89.7257 458.011 90.5608C458.01 91.4052 458.155 92.2437 458.439 93.0409C458.718 93.8094 459.127 94.5266 459.649 95.1625C460.708 96.4775 462.187 97.4069 463.849 97.802C465.544 98.2172 467.331 98.0737 468.934 97.3936C469.014 97.3562 469.095 97.3229 469.178 97.294C469.255 97.2741 469.336 97.2741 469.412 97.294C469.485 97.3124 469.551 97.35 469.603 97.4027C469.655 97.4555 469.691 97.5212 469.707 97.5928C469.729 97.6605 469.733 97.7326 469.719 97.8023C469.705 97.872 469.673 97.937 469.626 97.9912C469.569 98.049 469.499 98.0932 469.422 98.1207L469.138 98.2402C468.334 98.5705 467.483 98.7755 466.615 98.8478C465.739 98.9346 464.854 98.8909 463.992 98.7183C464.103 98.8378 464.205 98.9673 464.307 99.0968C464.409 99.2263 464.51 99.3757 464.592 99.5151L464.642 99.5849H464.815C464.903 99.5794 464.992 99.5794 465.08 99.5849C465.446 99.5849 465.812 99.5849 466.178 99.5849C466.897 99.5501 467.609 99.4399 468.304 99.2562C468.972 99.0724 469.62 98.8221 470.236 98.5091C470.839 98.2 471.406 97.8258 471.924 97.3936L472.301 97.0749C472.397 96.9659 472.511 96.8718 472.636 96.796C472.752 96.7377 472.883 96.7134 473.013 96.7257C473.143 96.7381 473.266 96.7867 473.368 96.8657C473.472 96.9432 473.55 97.0486 473.593 97.1688C473.637 97.2891 473.643 97.4191 473.613 97.543C473.578 97.6691 473.507 97.783 473.409 97.8717L473.043 98.2103C472.56 98.6794 472.036 99.106 471.477 99.4853C470.886 99.8319 470.263 100.122 469.616 100.352C468.958 100.595 468.276 100.772 467.582 100.88C466.861 100.983 466.133 101.026 465.405 101.009C465.466 101.169 465.517 101.318 465.568 101.477C465.593 101.549 465.613 101.622 465.629 101.696C465.626 101.723 465.626 101.75 465.629 101.776L465.71 101.846Z" fill="#FF6C36"/>
<path d="M472.962 99.6846C472.239 100.162 471.465 100.559 470.653 100.87C470.246 101.029 469.829 101.159 469.392 101.288L468.741 101.448C468.644 101.461 468.549 101.485 468.456 101.517C468.39 101.557 468.334 101.612 468.294 101.677C468.251 101.745 468.233 101.825 468.242 101.904C468.251 101.984 468.287 102.058 468.344 102.115C468.408 102.182 468.489 102.23 468.579 102.254C468.668 102.279 468.763 102.279 468.853 102.254C469.29 102.165 469.717 102.045 470.145 101.916C470.984 101.666 471.795 101.332 472.565 100.92L473.135 100.601L473.409 100.432C473.494 100.381 473.572 100.321 473.643 100.252C473.691 100.189 473.717 100.112 473.717 100.033C473.717 99.9543 473.691 99.8775 473.643 99.8141C473.593 99.748 473.526 99.6952 473.45 99.6605C473.374 99.6257 473.29 99.61 473.206 99.6149C473.114 99.6277 473.027 99.6619 472.952 99.7145C471.65 100.531 473.165 99.5451 472.962 99.6846Z" fill="#FF6C36"/>
<path d="M474.335 98.3698C474.233 98.4893 474.111 98.6089 473.989 98.7284C473.881 98.8104 473.794 98.9162 473.735 99.0372C473.718 99.0955 473.714 99.1567 473.724 99.2166C473.733 99.2765 473.755 99.3337 473.789 99.3845C473.823 99.4354 473.867 99.4786 473.919 99.5115C473.971 99.5443 474.029 99.566 474.091 99.5751C474.162 99.5867 474.236 99.581 474.305 99.5585C474.374 99.5359 474.437 99.4972 474.487 99.4456C474.609 99.336 474.721 99.2264 474.833 99.1069C474.945 99.0184 475.029 98.9012 475.077 98.7682C475.101 98.6562 475.083 98.5396 475.026 98.4395C474.991 98.3833 474.943 98.3358 474.886 98.3007C474.829 98.2656 474.765 98.2439 474.698 98.2371C474.631 98.2304 474.564 98.2388 474.501 98.2618C474.438 98.2849 474.381 98.3218 474.335 98.3698C474.182 98.5391 474.528 98.1905 474.335 98.3698Z" fill="#FF6C36"/>
<path d="M471.527 96.1288C471.225 96.3938 470.905 96.6399 470.571 96.8658L470.286 97.0451C470.208 97.09 470.145 97.1556 470.103 97.2344C470.064 97.3134 470.056 97.4036 470.081 97.488C470.105 97.5725 470.16 97.6452 470.236 97.6925C470.324 97.7572 470.431 97.7921 470.541 97.7921C470.651 97.7921 470.758 97.7572 470.846 97.6925L471.375 97.3638L471.853 96.9953C471.942 96.928 472.027 96.8548 472.107 96.7762C472.191 96.7124 472.263 96.6349 472.321 96.5471C472.356 96.4568 472.356 96.3567 472.32 96.2664C472.285 96.1761 472.216 96.1022 472.127 96.059C472.031 96.0132 471.923 95.9954 471.817 96.0077C471.71 96.0201 471.61 96.0621 471.527 96.1288C471.07 96.5371 471.7 95.9694 471.527 96.1288Z" fill="#FF6C36"/>
<path d="M465.72 87.9512C465.186 87.95 464.661 88.0902 464.201 88.357C463.741 88.6238 463.363 89.0073 463.107 89.467C462.851 89.9267 462.726 90.4455 462.746 90.9688C462.766 91.492 462.93 92.0002 463.221 92.4398C463.511 92.8794 463.918 93.234 464.397 93.4663C464.876 93.6985 465.41 93.7998 465.943 93.7593C466.476 93.7189 466.988 93.5382 467.425 93.2365C467.862 92.9347 468.208 92.523 468.426 92.0449C468.678 91.4951 468.751 90.8825 468.634 90.2907C468.518 89.6988 468.218 89.1566 467.775 88.738C467.332 88.3328 466.776 88.0658 466.178 87.9711L465.72 87.9512Z" fill="#FF6C36"/>
<path d="M398.17 55.064H399.594V56.568H397.898L397.594 58.232H399.274V59.736H397.322L396.73 63H394.97L395.562 59.736H393.498L392.89 63H391.13L391.738 59.736H390.314V58.232H392.01L392.314 56.568H390.634V55.064H392.586L393.178 51.8H394.938L394.346 55.064H396.41L397.018 51.8H398.778L398.17 55.064ZM393.77 58.232H395.834L396.138 56.568H394.074L393.77 58.232ZM400.986 53.208C401.637 53.208 402.149 53.0907 402.522 52.856C402.906 52.6213 403.221 52.2693 403.466 51.8H405.45V63H403.338V54.408C403.029 54.7173 402.687 54.92 402.314 55.016C401.941 55.112 401.498 55.16 400.986 55.16V53.208ZM411.961 55.064H413.977V63H411.961V55.064ZM411.865 51.8H414.073V53.912H411.865V51.8ZM423.465 63H421.449V58.424C421.449 57.9013 421.321 57.4907 421.065 57.192C420.809 56.8827 420.398 56.728 419.833 56.728C419.299 56.728 418.857 56.936 418.505 57.352C418.163 57.7573 417.993 58.296 417.993 58.968V63H415.977V55.064H417.993V56.344C418.291 55.8853 418.67 55.5227 419.129 55.256C419.587 54.9787 420.105 54.84 420.681 54.84C421.534 54.84 422.211 55.0907 422.713 55.592C423.214 56.0933 423.465 56.76 423.465 57.592V63ZM430.059 51.8H437.979V53.688H432.171V56.584H437.499V58.472H432.171V63H430.059V51.8ZM439.773 55.064H441.789V63H439.773V55.064ZM439.677 51.8H441.885V53.912H439.677V51.8ZM451.277 63H449.261V58.424C449.261 57.9013 449.133 57.4907 448.877 57.192C448.621 56.8827 448.211 56.728 447.645 56.728C447.112 56.728 446.669 56.936 446.317 57.352C445.976 57.7573 445.805 58.296 445.805 58.968V63H443.789V55.064H445.805V56.344C446.104 55.8853 446.483 55.5227 446.941 55.256C447.4 54.9787 447.917 54.84 448.493 54.84C449.347 54.84 450.024 55.0907 450.525 55.592C451.027 56.0933 451.277 56.76 451.277 57.592V63ZM458.509 63C458.445 62.9147 458.365 62.7707 458.269 62.568C458.173 62.3547 458.125 62.0773 458.125 61.736C457.848 62.2373 457.48 62.6107 457.021 62.856C456.563 63.1013 456.045 63.224 455.469 63.224C455.075 63.224 454.712 63.1653 454.381 63.048C454.061 62.9307 453.784 62.7653 453.549 62.552C453.315 62.3387 453.128 62.0773 452.989 61.768C452.861 61.4587 452.797 61.1173 452.797 60.744C452.797 60.3387 452.872 59.9867 453.021 59.688C453.181 59.3787 453.389 59.1173 453.645 58.904C453.912 58.6907 454.216 58.52 454.557 58.392C454.899 58.264 455.256 58.1733 455.629 58.12L458.013 57.752V57.448C458.013 57.064 457.891 56.7707 457.645 56.568C457.411 56.3547 457.048 56.248 456.557 56.248C456.088 56.248 455.731 56.3387 455.485 56.52C455.251 56.6907 455.133 56.8987 455.133 57.144C455.133 57.176 455.133 57.2027 455.133 57.224C455.133 57.2453 455.144 57.2827 455.165 57.336L453.357 57.944C453.261 57.7413 453.213 57.5173 453.213 57.272C453.213 56.9627 453.288 56.664 453.437 56.376C453.587 56.0773 453.8 55.816 454.077 55.592C454.365 55.368 454.717 55.1867 455.133 55.048C455.549 54.9093 456.024 54.84 456.557 54.84C457.677 54.84 458.536 55.08 459.133 55.56C459.731 56.0293 460.029 56.7493 460.029 57.72V61.032C460.029 61.4907 460.067 61.864 460.141 62.152C460.227 62.44 460.365 62.7227 460.557 63H458.509ZM455.949 61.592C456.536 61.592 457.027 61.4 457.421 61.016C457.816 60.632 458.013 60.056 458.013 59.288V59.144L456.093 59.464C455.208 59.6133 454.765 60.0027 454.765 60.632C454.765 60.952 454.872 61.192 455.085 61.352C455.309 61.512 455.597 61.592 455.949 61.592ZM469.512 63H467.496V58.424C467.496 57.9013 467.368 57.4907 467.112 57.192C466.856 56.8827 466.445 56.728 465.88 56.728C465.346 56.728 464.904 56.936 464.552 57.352C464.21 57.7573 464.04 58.296 464.04 58.968V63H462.024V55.064H464.04V56.344C464.338 55.8853 464.717 55.5227 465.176 55.256C465.634 54.9787 466.152 54.84 466.728 54.84C467.581 54.84 468.258 55.0907 468.76 55.592C469.261 56.0933 469.512 56.76 469.512 57.592V63ZM478.854 60.936C478.481 61.6933 477.974 62.264 477.334 62.648C476.705 63.032 475.974 63.224 475.142 63.224C474.556 63.224 474.006 63.128 473.494 62.936C472.993 62.7333 472.55 62.4507 472.166 62.088C471.793 61.7147 471.5 61.272 471.286 60.76C471.073 60.2373 470.966 59.6613 470.966 59.032C470.966 58.4027 471.078 57.832 471.302 57.32C471.526 56.7973 471.825 56.3547 472.198 55.992C472.582 55.6187 473.025 55.336 473.526 55.144C474.038 54.9413 474.577 54.84 475.142 54.84C476.028 54.84 476.785 55.032 477.414 55.416C478.044 55.7893 478.497 56.3173 478.774 57L477.126 58.088C476.892 57.576 476.604 57.224 476.262 57.032C475.921 56.8293 475.542 56.728 475.126 56.728C474.828 56.728 474.55 56.7813 474.294 56.888C474.038 56.9947 473.814 57.1493 473.622 57.352C473.43 57.5547 473.281 57.8 473.174 58.088C473.068 58.3653 473.014 58.68 473.014 59.032C473.014 59.7467 473.212 60.312 473.606 60.728C474.012 61.1333 474.518 61.336 475.126 61.336C475.66 61.336 476.086 61.2133 476.406 60.968C476.726 60.712 476.998 60.3493 477.222 59.88L478.854 60.936ZM481.699 59.512C481.763 60.12 481.992 60.6053 482.387 60.968C482.782 61.32 483.278 61.496 483.875 61.496C484.43 61.496 484.878 61.368 485.219 61.112C485.56 60.8453 485.843 60.488 486.067 60.04L487.571 60.904C487.198 61.6827 486.707 62.264 486.099 62.648C485.502 63.032 484.75 63.224 483.843 63.224C483.288 63.224 482.766 63.1227 482.275 62.92C481.784 62.7173 481.352 62.4347 480.979 62.072C480.606 61.6987 480.307 61.256 480.083 60.744C479.87 60.232 479.763 59.6613 479.763 59.032C479.763 58.4027 479.87 57.832 480.083 57.32C480.307 56.808 480.606 56.3707 480.979 56.008C481.363 55.6347 481.806 55.3467 482.307 55.144C482.819 54.9413 483.363 54.84 483.939 54.84C484.504 54.84 485.022 54.9413 485.491 55.144C485.971 55.336 486.382 55.608 486.723 55.96C487.064 56.312 487.331 56.7333 487.523 57.224C487.715 57.704 487.811 58.232 487.811 58.808V59.512H481.699ZM483.875 56.376C483.331 56.376 482.867 56.536 482.483 56.856C482.11 57.176 481.848 57.5707 481.699 58.04H485.955C485.859 57.528 485.63 57.1227 485.267 56.824C484.915 56.5253 484.451 56.376 483.875 56.376Z" fill="#502CA8"/>
</svg>
