<svg width="1440" height="125" viewBox="0 0 1440 125" fill="none" xmlns="http://www.w3.org/2000/svg">
<circle cx="1291.56" cy="2.06787" r="1.55932" fill="#C4C4C4"/>
<circle cx="1317.29" cy="2.06787" r="1.55932" fill="#C4C4C4"/>
<circle cx="1291.56" cy="61.3221" r="1.55932" fill="#C4C4C4"/>
<circle cx="1317.29" cy="60.5425" r="1.55932" fill="#C4C4C4"/>
<circle cx="1291.56" cy="12.2034" r="1.55932" fill="#C4C4C4"/>
<circle cx="1317.29" cy="12.2034" r="1.55932" fill="#C4C4C4"/>
<circle cx="1291.56" cy="71.4578" r="1.55932" fill="#C4C4C4"/>
<circle cx="1317.29" cy="70.678" r="1.55932" fill="#C4C4C4"/>
<circle cx="1291.56" cy="21.5594" r="1.55932" fill="#C4C4C4"/>
<circle cx="1317.29" cy="21.5594" r="1.55932" fill="#C4C4C4"/>
<circle cx="1291.56" cy="80.8136" r="1.55932" fill="#C4C4C4"/>
<circle cx="1317.29" cy="80.0339" r="1.55932" fill="#C4C4C4"/>
<circle cx="1291.56" cy="51.1865" r="1.55932" fill="#C4C4C4"/>
<circle cx="1317.29" cy="51.1865" r="1.55932" fill="#C4C4C4"/>
<circle cx="1291.56" cy="110.441" r="1.55932" fill="#C4C4C4"/>
<circle cx="1317.29" cy="109.661" r="1.55932" fill="#C4C4C4"/>
<circle cx="1291.56" cy="2.06787" r="1.55932" fill="#C4C4C4"/>
<circle cx="1317.29" cy="2.06787" r="1.55932" fill="#C4C4C4"/>
<circle cx="1291.56" cy="61.3221" r="1.55932" fill="#C4C4C4"/>
<circle cx="1317.29" cy="60.5425" r="1.55932" fill="#C4C4C4"/>
<circle cx="1291.56" cy="31.6949" r="1.55932" fill="#C4C4C4"/>
<circle cx="1317.29" cy="31.6949" r="1.55932" fill="#C4C4C4"/>
<circle cx="1291.56" cy="90.9492" r="1.55932" fill="#C4C4C4"/>
<circle cx="1317.29" cy="90.1695" r="1.55932" fill="#C4C4C4"/>
<circle cx="1300.14" cy="2.06787" r="1.55932" fill="#C4C4C4"/>
<circle cx="1325.86" cy="2.06787" r="1.55932" fill="#C4C4C4"/>
<circle cx="1300.14" cy="61.3221" r="1.55932" fill="#C4C4C4"/>
<circle cx="1325.86" cy="60.5425" r="1.55932" fill="#C4C4C4"/>
<circle cx="1300.14" cy="2.06787" r="1.55932" fill="#C4C4C4"/>
<circle cx="1325.86" cy="2.06787" r="1.55932" fill="#C4C4C4"/>
<circle cx="1300.14" cy="61.3221" r="1.55932" fill="#C4C4C4"/>
<circle cx="1325.86" cy="60.5425" r="1.55932" fill="#C4C4C4"/>
<circle cx="1300.14" cy="31.6949" r="1.55932" fill="#C4C4C4"/>
<circle cx="1325.86" cy="31.6949" r="1.55932" fill="#C4C4C4"/>
<circle cx="1300.14" cy="90.9492" r="1.55932" fill="#C4C4C4"/>
<circle cx="1325.86" cy="90.1695" r="1.55932" fill="#C4C4C4"/>
<circle cx="1300.14" cy="12.2034" r="1.55932" fill="#C4C4C4"/>
<circle cx="1325.86" cy="12.2034" r="1.55932" fill="#C4C4C4"/>
<circle cx="1300.14" cy="71.4578" r="1.55932" fill="#C4C4C4"/>
<circle cx="1325.86" cy="70.678" r="1.55932" fill="#C4C4C4"/>
<circle cx="1300.14" cy="41.0509" r="1.55932" fill="#C4C4C4"/>
<circle cx="1325.86" cy="41.0509" r="1.55932" fill="#C4C4C4"/>
<circle cx="1300.14" cy="100.305" r="1.55932" fill="#C4C4C4"/>
<circle cx="1325.86" cy="99.5255" r="1.55932" fill="#C4C4C4"/>
<circle cx="1291.56" cy="41.0509" r="1.55932" fill="#C4C4C4"/>
<circle cx="1317.29" cy="41.0509" r="1.55932" fill="#C4C4C4"/>
<circle cx="1291.56" cy="100.305" r="1.55932" fill="#C4C4C4"/>
<circle cx="1317.29" cy="99.5255" r="1.55932" fill="#C4C4C4"/>
<circle cx="1300.14" cy="21.5594" r="1.55932" fill="#C4C4C4"/>
<circle cx="1325.86" cy="21.5594" r="1.55932" fill="#C4C4C4"/>
<circle cx="1300.14" cy="80.8136" r="1.55932" fill="#C4C4C4"/>
<circle cx="1325.86" cy="80.0339" r="1.55932" fill="#C4C4C4"/>
<circle cx="1300.14" cy="51.1865" r="1.55932" fill="#C4C4C4"/>
<circle cx="1325.86" cy="51.1865" r="1.55932" fill="#C4C4C4"/>
<circle cx="1300.14" cy="110.441" r="1.55932" fill="#C4C4C4"/>
<circle cx="1325.86" cy="109.661" r="1.55932" fill="#C4C4C4"/>
<circle cx="1308.71" cy="2.06787" r="1.55932" fill="#C4C4C4"/>
<circle cx="1334.44" cy="2.06787" r="1.55932" fill="#C4C4C4"/>
<circle cx="1308.71" cy="61.3221" r="1.55932" fill="#C4C4C4"/>
<circle cx="1334.44" cy="60.5425" r="1.55932" fill="#C4C4C4"/>
<circle cx="1308.71" cy="31.6949" r="1.55932" fill="#C4C4C4"/>
<circle cx="1334.44" cy="31.6949" r="1.55932" fill="#C4C4C4"/>
<circle cx="1308.71" cy="90.9492" r="1.55932" fill="#C4C4C4"/>
<circle cx="1334.44" cy="90.1695" r="1.55932" fill="#C4C4C4"/>
<circle cx="1308.71" cy="12.2034" r="1.55932" fill="#C4C4C4"/>
<circle cx="1334.44" cy="12.2034" r="1.55932" fill="#C4C4C4"/>
<circle cx="1308.71" cy="71.4578" r="1.55932" fill="#C4C4C4"/>
<circle cx="1334.44" cy="70.678" r="1.55932" fill="#C4C4C4"/>
<circle cx="1308.71" cy="41.0509" r="1.55932" fill="#C4C4C4"/>
<circle cx="1334.44" cy="41.0509" r="1.55932" fill="#C4C4C4"/>
<circle cx="1308.71" cy="100.305" r="1.55932" fill="#C4C4C4"/>
<circle cx="1334.44" cy="99.5255" r="1.55932" fill="#C4C4C4"/>
<circle cx="1308.71" cy="21.5594" r="1.55932" fill="#C4C4C4"/>
<circle cx="1334.44" cy="21.5594" r="1.55932" fill="#C4C4C4"/>
<circle cx="1308.71" cy="80.8136" r="1.55932" fill="#C4C4C4"/>
<circle cx="1334.44" cy="80.0339" r="1.55932" fill="#C4C4C4"/>
<circle cx="1308.71" cy="51.1865" r="1.55932" fill="#C4C4C4"/>
<circle cx="1334.44" cy="51.1865" r="1.55932" fill="#C4C4C4"/>
<circle cx="1308.71" cy="110.441" r="1.55932" fill="#C4C4C4"/>
<circle cx="1334.44" cy="109.661" r="1.55932" fill="#C4C4C4"/>
<circle cx="37.5593" cy="5.55932" r="1.55932" fill="#C4C4C4"/>
<circle cx="63.2881" cy="5.55932" r="1.55932" fill="#C4C4C4"/>
<circle cx="37.5593" cy="64.8136" r="1.55932" fill="#C4C4C4"/>
<circle cx="63.2881" cy="64.0339" r="1.55932" fill="#C4C4C4"/>
<circle cx="37.5593" cy="15.6948" r="1.55932" fill="#C4C4C4"/>
<circle cx="63.2881" cy="15.6948" r="1.55932" fill="#C4C4C4"/>
<circle cx="37.5593" cy="74.9492" r="1.55932" fill="#C4C4C4"/>
<circle cx="63.2881" cy="74.1694" r="1.55932" fill="#C4C4C4"/>
<circle cx="37.5593" cy="25.0509" r="1.55932" fill="#C4C4C4"/>
<circle cx="63.2881" cy="25.0509" r="1.55932" fill="#C4C4C4"/>
<circle cx="37.5593" cy="84.305" r="1.55932" fill="#C4C4C4"/>
<circle cx="63.2881" cy="83.5254" r="1.55932" fill="#C4C4C4"/>
<circle cx="37.5593" cy="54.678" r="1.55932" fill="#C4C4C4"/>
<circle cx="63.2881" cy="54.678" r="1.55932" fill="#C4C4C4"/>
<circle cx="37.5593" cy="113.932" r="1.55932" fill="#C4C4C4"/>
<circle cx="63.2881" cy="113.153" r="1.55932" fill="#C4C4C4"/>
<circle cx="37.5593" cy="5.55932" r="1.55932" fill="#C4C4C4"/>
<circle cx="63.2881" cy="5.55932" r="1.55932" fill="#C4C4C4"/>
<circle cx="37.5593" cy="64.8136" r="1.55932" fill="#C4C4C4"/>
<circle cx="63.2881" cy="64.0339" r="1.55932" fill="#C4C4C4"/>
<circle cx="37.5593" cy="35.1864" r="1.55932" fill="#C4C4C4"/>
<circle cx="63.2881" cy="35.1864" r="1.55932" fill="#C4C4C4"/>
<circle cx="37.5593" cy="94.4407" r="1.55932" fill="#C4C4C4"/>
<circle cx="63.2881" cy="93.661" r="1.55932" fill="#C4C4C4"/>
<circle cx="46.1356" cy="5.55932" r="1.55932" fill="#C4C4C4"/>
<circle cx="71.8644" cy="5.55932" r="1.55932" fill="#C4C4C4"/>
<circle cx="46.1356" cy="64.8136" r="1.55932" fill="#C4C4C4"/>
<circle cx="71.8644" cy="64.0339" r="1.55932" fill="#C4C4C4"/>
<circle cx="46.1356" cy="5.55932" r="1.55932" fill="#C4C4C4"/>
<circle cx="71.8644" cy="5.55932" r="1.55932" fill="#C4C4C4"/>
<circle cx="46.1356" cy="64.8136" r="1.55932" fill="#C4C4C4"/>
<circle cx="71.8644" cy="64.0339" r="1.55932" fill="#C4C4C4"/>
<circle cx="46.1356" cy="35.1864" r="1.55932" fill="#C4C4C4"/>
<circle cx="71.8644" cy="35.1864" r="1.55932" fill="#C4C4C4"/>
<circle cx="46.1356" cy="94.4407" r="1.55932" fill="#C4C4C4"/>
<circle cx="71.8644" cy="93.661" r="1.55932" fill="#C4C4C4"/>
<circle cx="46.1356" cy="15.6948" r="1.55932" fill="#C4C4C4"/>
<circle cx="71.8644" cy="15.6948" r="1.55932" fill="#C4C4C4"/>
<circle cx="46.1356" cy="74.9492" r="1.55932" fill="#C4C4C4"/>
<circle cx="71.8644" cy="74.1694" r="1.55932" fill="#C4C4C4"/>
<circle cx="46.1356" cy="44.5424" r="1.55932" fill="#C4C4C4"/>
<circle cx="71.8644" cy="44.5424" r="1.55932" fill="#C4C4C4"/>
<circle cx="46.1356" cy="103.797" r="1.55932" fill="#C4C4C4"/>
<circle cx="71.8644" cy="103.017" r="1.55932" fill="#C4C4C4"/>
<circle cx="37.5593" cy="44.5424" r="1.55932" fill="#C4C4C4"/>
<circle cx="63.2881" cy="44.5424" r="1.55932" fill="#C4C4C4"/>
<circle cx="37.5593" cy="103.797" r="1.55932" fill="#C4C4C4"/>
<circle cx="63.2881" cy="103.017" r="1.55932" fill="#C4C4C4"/>
<circle cx="46.1356" cy="25.0509" r="1.55932" fill="#C4C4C4"/>
<circle cx="71.8644" cy="25.0509" r="1.55932" fill="#C4C4C4"/>
<circle cx="46.1356" cy="84.305" r="1.55932" fill="#C4C4C4"/>
<circle cx="71.8644" cy="83.5254" r="1.55932" fill="#C4C4C4"/>
<circle cx="46.1356" cy="54.678" r="1.55932" fill="#C4C4C4"/>
<circle cx="71.8644" cy="54.678" r="1.55932" fill="#C4C4C4"/>
<circle cx="46.1356" cy="113.932" r="1.55932" fill="#C4C4C4"/>
<circle cx="71.8644" cy="113.153" r="1.55932" fill="#C4C4C4"/>
<circle cx="54.7119" cy="5.55932" r="1.55932" fill="#C4C4C4"/>
<circle cx="80.4407" cy="5.55932" r="1.55932" fill="#C4C4C4"/>
<circle cx="54.7119" cy="64.8136" r="1.55932" fill="#C4C4C4"/>
<circle cx="80.4407" cy="64.0339" r="1.55932" fill="#C4C4C4"/>
<circle cx="54.7119" cy="35.1864" r="1.55932" fill="#C4C4C4"/>
<circle cx="80.4407" cy="35.1864" r="1.55932" fill="#C4C4C4"/>
<circle cx="54.7119" cy="94.4407" r="1.55932" fill="#C4C4C4"/>
<circle cx="80.4407" cy="93.661" r="1.55932" fill="#C4C4C4"/>
<circle cx="54.7119" cy="15.6948" r="1.55932" fill="#C4C4C4"/>
<circle cx="80.4407" cy="15.6948" r="1.55932" fill="#C4C4C4"/>
<circle cx="54.7119" cy="74.9492" r="1.55932" fill="#C4C4C4"/>
<circle cx="80.4407" cy="74.1694" r="1.55932" fill="#C4C4C4"/>
<circle cx="54.7119" cy="44.5424" r="1.55932" fill="#C4C4C4"/>
<circle cx="80.4407" cy="44.5424" r="1.55932" fill="#C4C4C4"/>
<circle cx="54.7119" cy="103.797" r="1.55932" fill="#C4C4C4"/>
<circle cx="80.4407" cy="103.017" r="1.55932" fill="#C4C4C4"/>
<circle cx="54.7119" cy="25.0509" r="1.55932" fill="#C4C4C4"/>
<circle cx="80.4407" cy="25.0509" r="1.55932" fill="#C4C4C4"/>
<circle cx="54.7119" cy="84.305" r="1.55932" fill="#C4C4C4"/>
<circle cx="80.4407" cy="83.5254" r="1.55932" fill="#C4C4C4"/>
<circle cx="54.7119" cy="54.678" r="1.55932" fill="#C4C4C4"/>
<circle cx="80.4407" cy="54.678" r="1.55932" fill="#C4C4C4"/>
<circle cx="54.7119" cy="113.932" r="1.55932" fill="#C4C4C4"/>
<circle cx="80.4407" cy="113.153" r="1.55932" fill="#C4C4C4"/>
<path d="M1361.36 60C1331.75 80.1486 1271.95 121.257 1269.59 124.5H1439.5L1361.36 60Z" fill="white"/>
<path d="M1361.73 124.5V60L1439.5 124.5H1361.73Z" fill="#806CE9"/>
<path d="M89.7563 68C61.0295 87.5485 2.28861 121.353 0 124.5H164.851C164.851 124.5 115.026 88.8597 89.7563 68Z" fill="white"/>
<path d="M89.3987 124.142L89.7563 68L165.209 124.142H89.3987Z" fill="#806CE9"/>
</svg>
