<svg width="13" height="13" viewBox="0 0 13 13" fill="none" xmlns="http://www.w3.org/2000/svg">
<path d="M6.50065 1.08334C3.51065 1.08334 1.08398 3.51 1.08398 6.5C1.08398 9.49 3.51065 11.9167 6.50065 11.9167C9.49065 11.9167 11.9173 9.49 11.9173 6.5C11.9173 3.51 9.49065 1.08334 6.50065 1.08334ZM6.50065 10.8333C4.1119 10.8333 2.16732 8.88875 2.16732 6.5C2.16732 4.11125 4.1119 2.16667 6.50065 2.16667C8.8894 2.16667 10.834 4.11125 10.834 6.5C10.834 8.88875 8.8894 10.8333 6.50065 10.8333ZM8.60232 4.49042L5.41732 7.67542L4.39898 6.65709C4.18773 6.44584 3.84648 6.44584 3.63523 6.65709C3.42398 6.86834 3.42398 7.20959 3.63523 7.42084L5.03815 8.82375C5.2494 9.035 5.59065 9.035 5.8019 8.82375L9.37148 5.25417C9.58274 5.04292 9.58274 4.70167 9.37148 4.49042C9.16024 4.27917 8.81357 4.27917 8.60232 4.49042Z" fill="#00C036"/>
</svg>
