<svg xmlns="http://www.w3.org/2000/svg" xmlns:xlink="http://www.w3.org/1999/xlink" viewBox="0 0 94 122">
  <g id="container">
    <path fill="#fff" d="M8.1 89.9L47.6 110l38-20.1V11.3H8.1z"/>
    <path fill="#f2f3f2" d="M86.4 11.6L7.3 91.3l41 20.3 38.1-19.5z"/>
    <path d="M5.5 37.5v54.1l1.4.7 39.5 20.1 1.2.6 1.2-.6 38.1-20.1 1.4-.7V8.7H5.5v28.8zm2.6 52.6V11.3h77.6v78.8l-38.1 20.1L8.1 90.1z" fill="#dcdedc"/>
    <path id="logo" d="M46.9 12.6c.4 0 .8 0 1.2.1L46.9 15c-1.8-.1-3.4 1.3-3.5 3.1-.1 1.8 1.3 3.4 3.1 3.5h.4c.8 0 1.6-.3 2.2-.8l1.3 2.2c-1 .7-2.2 1.1-3.5 1.1-3.2.1-5.9-2.3-6-5.5-.1-3.2 2.3-5.9 5.5-6h.5zm4.1 4.9l1.5 2.5-1.5 2.4-1.4-2.4h-2.9l1.5-2.5H51zm-2.4-.9c0-.4.1-.8.3-1.1.2-.3.6-.6.9-.8l.2-.1c.4-.2.5-.3.5-.5s-.3-.4-.5-.4c-.4 0-.7.2-.9.6l-.5-.5c.1-.2.3-.4.5-.6.3-.2.6-.2.9-.2.3 0 .7.1.9.3.2.2.4.5.4.8 0 .5-.3.9-.9 1.1l-.3.2c-.3.2-.5.3-.6.6h1.8v.7l-2.7-.1zm-1.7 12.5l9.5-5.4v-15H37.3v14.9l9.6 5.5z" fill="#ff492c"/>
    <path id="banner" d="M90.2 64.5H3.6l-3.2 7 3.2 7h86.6l3.1-7z" fill="#2690ce"/>
  <path fill="#252530" transform="translate(27.00, 60)" d="M4.51 0.12L4.51 0.12Q3.31 0.12 2.42-0.26L2.42-0.26L2.42-0.26Q1.51-0.65 1.03-1.36L1.03-1.36L1.03-1.36Q0.54-2.07 0.54-3.01L0.54-3.01L0.54-3.34L0.54-3.34Q0.54-3.42 0.59-3.47L0.59-3.47L0.59-3.47Q0.65-3.52 0.72-3.52L0.72-3.52L2.43-3.52L2.43-3.52Q2.50-3.52 2.56-3.47L2.56-3.47L2.56-3.47Q2.61-3.42 2.61-3.34L2.61-3.34L2.61-3.12L2.61-3.12Q2.61-2.52 3.17-2.11L3.17-2.11L3.17-2.11Q3.72-1.69 4.67-1.69L4.67-1.69L4.67-1.69Q5.46-1.69 5.85-2.03L5.85-2.03L5.85-2.03Q6.24-2.37 6.24-2.86L6.24-2.86L6.24-2.86Q6.24-3.23 6-3.47L6-3.47L6-3.47Q5.76-3.72 5.35-3.91L5.35-3.91L5.35-3.91Q4.93-4.09 4.04-4.42L4.04-4.42L4.04-4.42Q3.03-4.77 2.33-5.13L2.33-5.13L2.33-5.13Q1.64-5.49 1.16-6.11L1.16-6.11L1.16-6.11Q0.69-6.73 0.69-7.65L0.69-7.65L0.69-7.65Q0.69-8.55 1.16-9.22L1.16-9.22L1.16-9.22Q1.62-9.90 2.44-10.26L2.44-10.26L2.44-10.26Q3.27-10.62 4.35-10.62L4.35-10.62L4.35-10.62Q5.49-10.62 6.38-10.21L6.38-10.21L6.38-10.21Q7.27-9.81 7.78-9.08L7.78-9.08L7.78-9.08Q8.28-8.36 8.28-7.39L8.28-7.39L8.28-7.17L8.28-7.17Q8.28-7.09 8.23-7.04L8.23-7.04L8.23-7.04Q8.17-6.99 8.10-6.99L8.10-6.99L6.38-6.99L6.38-6.99Q6.30-6.99 6.25-7.04L6.25-7.04L6.25-7.04Q6.19-7.09 6.19-7.17L6.19-7.17L6.19-7.29L6.19-7.29Q6.19-7.92 5.68-8.36L5.68-8.36L5.68-8.36Q5.16-8.80 4.26-8.80L4.26-8.80L4.26-8.80Q3.55-8.80 3.16-8.50L3.16-8.50L3.16-8.50Q2.76-8.21 2.76-7.68L2.76-7.68L2.76-7.68Q2.76-7.30 2.99-7.05L2.99-7.05L2.99-7.05Q3.23-6.79 3.68-6.59L3.68-6.59L3.68-6.59Q4.14-6.39 5.10-6.04L5.10-6.04L5.10-6.04Q6.17-5.65 6.77-5.35L6.77-5.35L6.77-5.35Q7.38-5.05 7.87-4.46L7.87-4.46L7.87-4.46Q8.36-3.87 8.36-2.92L8.36-2.92L8.36-2.92Q8.36-1.51 7.32-0.70L7.32-0.70L7.32-0.70Q6.29 0.12 4.51 0.12L4.51 0.12ZM16.53-4.65L16.53-4.65Q16.62-4.08 16.59-3.38L16.59-3.38L16.59-3.38Q16.57-3.19 16.39-3.19L16.39-3.19L11.76-3.19L11.76-3.19Q11.67-3.19 11.70-3.12L11.70-3.12L11.70-3.12Q11.74-2.82 11.86-2.52L11.86-2.52L11.86-2.52Q12.25-1.68 13.45-1.68L13.45-1.68L13.45-1.68Q14.41-1.69 14.97-2.46L14.97-2.46L14.97-2.46Q15.03-2.55 15.10-2.55L15.10-2.55L15.10-2.55Q15.15-2.55 15.21-2.49L15.21-2.49L16.29-1.43L16.29-1.43Q16.36-1.35 16.36-1.29L16.36-1.29L16.36-1.29Q16.36-1.26 16.30-1.17L16.30-1.17L16.30-1.17Q15.81-0.55 15.03-0.22L15.03-0.22L15.03-0.22Q14.25 0.12 13.32 0.12L13.32 0.12L13.32 0.12Q12.03 0.12 11.14-0.46L11.14-0.46L11.14-0.46Q10.24-1.05 9.85-2.10L9.85-2.10L9.85-2.10Q9.54-2.85 9.54-4.06L9.54-4.06L9.54-4.06Q9.54-4.89 9.76-5.52L9.76-5.52L9.76-5.52Q10.11-6.58 10.97-7.21L10.97-7.21L10.97-7.21Q11.83-7.84 13.02-7.84L13.02-7.84L13.02-7.84Q14.52-7.84 15.43-6.97L15.43-6.97L15.43-6.97Q16.34-6.10 16.53-4.65L16.53-4.65ZM13.03-6.01L13.03-6.01Q12.09-6.01 11.79-5.13L11.79-5.13L11.79-5.13Q11.73-4.93 11.68-4.65L11.68-4.65L11.68-4.65Q11.68-4.58 11.76-4.58L11.76-4.58L14.35-4.58L14.35-4.58Q14.44-4.58 14.41-4.65L14.41-4.65L14.41-4.65Q14.34-5.08 14.34-5.07L14.34-5.07L14.34-5.07Q14.20-5.52 13.87-5.77L13.87-5.77L13.87-5.77Q13.53-6.01 13.03-6.01L13.03-6.01ZM22.32-6.19L22.32-6.19Q22.32-6.12 22.27-6.07L22.27-6.07L22.27-6.07Q22.21-6.01 22.14-6.01L22.14-6.01L20.70-6.01L20.70-6.01Q20.63-6.01 20.63-5.94L20.63-5.94L20.63-2.76L20.63-2.76Q20.63-2.27 20.83-2.02L20.83-2.02L20.83-2.02Q21.03-1.78 21.48-1.78L21.48-1.78L21.97-1.78L21.97-1.78Q22.05-1.78 22.10-1.73L22.10-1.73L22.10-1.73Q22.15-1.68 22.15-1.60L22.15-1.60L22.15-0.18L22.15-0.18Q22.15-0.01 21.97 0.01L21.97 0.01L21.97 0.01Q21.34 0.04 21.07 0.04L21.07 0.04L21.07 0.04Q19.83 0.04 19.21-0.37L19.21-0.37L19.21-0.37Q18.60-0.78 18.58-1.92L18.58-1.92L18.58-5.94L18.58-5.94Q18.58-6.01 18.51-6.01L18.51-6.01L17.65-6.01L17.65-6.01Q17.58-6.01 17.53-6.07L17.53-6.07L17.53-6.07Q17.47-6.12 17.47-6.19L17.47-6.19L17.47-7.53L17.47-7.53Q17.47-7.60 17.53-7.66L17.53-7.66L17.53-7.66Q17.58-7.71 17.65-7.71L17.65-7.71L18.51-7.71L18.51-7.71Q18.58-7.71 18.58-7.79L18.58-7.79L18.58-9.57L18.58-9.57Q18.58-9.64 18.64-9.70L18.64-9.70L18.64-9.70Q18.69-9.75 18.76-9.75L18.76-9.75L20.45-9.75L20.45-9.75Q20.52-9.75 20.57-9.70L20.57-9.70L20.57-9.70Q20.63-9.64 20.63-9.57L20.63-9.57L20.63-7.79L20.63-7.79Q20.63-7.71 20.70-7.71L20.70-7.71L22.14-7.71L22.14-7.71Q22.21-7.71 22.27-7.66L22.27-7.66L22.27-7.66Q22.32-7.60 22.32-7.53L22.32-7.53L22.32-6.19ZM28.09-7.53L28.09-7.53Q28.09-7.60 28.15-7.66L28.15-7.66L28.15-7.66Q28.20-7.71 28.27-7.71L28.27-7.71L30.03-7.71L30.03-7.71Q30.10-7.71 30.16-7.66L30.16-7.66L30.16-7.66Q30.21-7.60 30.21-7.53L30.21-7.53L30.21-0.18L30.21-0.18Q30.21-0.10 30.16-0.05L30.16-0.05L30.16-0.05Q30.10 0 30.03 0L30.03 0L28.27 0L28.27 0Q28.20 0 28.15-0.05L28.15-0.05L28.15-0.05Q28.09-0.10 28.09-0.18L28.09-0.18L28.09-0.69L28.09-0.69Q28.09-0.73 28.06-0.74L28.06-0.74L28.06-0.74Q28.03-0.75 28.00-0.70L28.00-0.70L28.00-0.70Q27.40 0.10 26.14 0.10L26.14 0.10L26.14 0.10Q25.00 0.10 24.27-0.58L24.27-0.58L24.27-0.58Q23.53-1.27 23.53-2.52L23.53-2.52L23.53-7.53L23.53-7.53Q23.53-7.60 23.59-7.66L23.59-7.66L23.59-7.66Q23.64-7.71 23.71-7.71L23.71-7.71L25.45-7.71L25.45-7.71Q25.53-7.71 25.58-7.66L25.58-7.66L25.58-7.66Q25.63-7.60 25.63-7.53L25.63-7.53L25.63-3.04L25.63-3.04Q25.63-2.44 25.96-2.07L25.96-2.07L25.96-2.07Q26.28-1.69 26.85-1.69L26.85-1.69L26.85-1.69Q27.36-1.69 27.69-2.00L27.69-2.00L27.69-2.00Q28.02-2.31 28.09-2.80L28.09-2.80L28.09-7.53ZM38.65-5.64L38.65-5.64Q38.92-4.88 38.92-3.84L38.92-3.84L38.92-3.84Q38.92-2.80 38.64-1.96L38.64-1.96L38.64-1.96Q38.29-1.00 37.55-0.44L37.55-0.44L37.55-0.44Q36.81 0.12 35.71 0.12L35.71 0.12L35.71 0.12Q34.63 0.12 34.03-0.63L34.03-0.63L34.03-0.63Q34.00-0.67 33.97-0.66L33.97-0.66L33.97-0.66Q33.94-0.65 33.94-0.60L33.94-0.60L33.94 2.61L33.94 2.61Q33.94 2.69 33.89 2.74L33.89 2.74L33.89 2.74Q33.84 2.79 33.76 2.79L33.76 2.79L32.01 2.79L32.01 2.79Q31.93 2.79 31.88 2.74L31.88 2.74L31.88 2.74Q31.83 2.69 31.83 2.61L31.83 2.61L31.83-7.53L31.83-7.53Q31.83-7.60 31.88-7.66L31.88-7.66L31.88-7.66Q31.93-7.71 32.01-7.71L32.01-7.71L33.76-7.71L33.76-7.71Q33.84-7.71 33.89-7.66L33.89-7.66L33.89-7.66Q33.94-7.60 33.94-7.53L33.94-7.53L33.94-7.04L33.94-7.04Q33.94-6.99 33.97-6.98L33.97-6.98L33.97-6.98Q34.00-6.97 34.03-7.00L34.03-7.00L34.03-7.00Q34.66-7.83 35.77-7.83L35.77-7.83L35.77-7.83Q36.81-7.83 37.57-7.25L37.57-7.25L37.57-7.25Q38.32-6.67 38.65-5.64L38.65-5.64ZM36.36-2.28L36.36-2.28Q36.73-2.86 36.73-3.87L36.73-3.87L36.73-3.87Q36.73-4.81 36.42-5.37L36.42-5.37L36.42-5.37Q36.07-6.01 35.31-6.01L35.31-6.01L35.31-6.01Q34.62-6.01 34.27-5.37L34.27-5.37L34.27-5.37Q33.96-4.83 33.96-3.85L33.96-3.85L33.96-3.85Q33.96-2.85 34.29-2.29L34.29-2.29L34.29-2.29Q34.63-1.69 35.31-1.69L35.31-1.69L35.31-1.69Q35.98-1.69 36.36-2.28L36.36-2.28Z"/><path fill="#252530" transform="translate(21.61, 45)" d="M8.21-8.87L8.21-8.87Q8.21-8.79 8.15-8.74L8.15-8.74L8.15-8.74Q8.10-8.69 8.03-8.69L8.03-8.69L3.10-8.69L3.10-8.69Q3.03-8.69 3.03-8.61L3.03-8.61L3.03-6.29L3.03-6.29Q3.03-6.21 3.10-6.21L3.10-6.21L6.33-6.21L6.33-6.21Q6.40-6.21 6.46-6.16L6.46-6.16L6.46-6.16Q6.51-6.10 6.51-6.03L6.51-6.03L6.51-4.58L6.51-4.58Q6.51-4.50 6.46-4.45L6.46-4.45L6.46-4.45Q6.40-4.39 6.33-4.39L6.33-4.39L3.10-4.39L3.10-4.39Q3.03-4.39 3.03-4.32L3.03-4.32L3.03-1.89L3.03-1.89Q3.03-1.81 3.10-1.81L3.10-1.81L8.03-1.81L8.03-1.81Q8.10-1.81 8.15-1.76L8.15-1.76L8.15-1.76Q8.21-1.71 8.21-1.64L8.21-1.64L8.21-0.18L8.21-0.18Q8.21-0.10 8.15-0.05L8.15-0.05L8.15-0.05Q8.10 0 8.03 0L8.03 0L1.09 0L1.09 0Q1.02 0 0.97-0.05L0.97-0.05L0.97-0.05Q0.91-0.10 0.91-0.18L0.91-0.18L0.91-10.32L0.91-10.32Q0.91-10.39 0.97-10.45L0.97-10.45L0.97-10.45Q1.02-10.50 1.09-10.50L1.09-10.50L8.03-10.50L8.03-10.50Q8.10-10.50 8.15-10.45L8.15-10.45L8.15-10.45Q8.21-10.39 8.21-10.32L8.21-10.32L8.21-8.87ZM12.62-7.83L12.62-7.83Q13.59-7.83 14.36-7.49L14.36-7.49L14.36-7.49Q15.12-7.15 15.55-6.57L15.55-6.57L15.55-6.57Q15.97-5.98 15.97-5.26L15.97-5.26L15.97-0.18L15.97-0.18Q15.97-0.10 15.92-0.05L15.92-0.05L15.92-0.05Q15.87 0 15.79 0L15.79 0L14.04 0L14.04 0Q13.96 0 13.91-0.05L13.91-0.05L13.91-0.05Q13.86-0.10 13.86-0.18L13.86-0.18L13.86-0.67L13.86-0.67Q13.86-0.72 13.83-0.73L13.83-0.73L13.83-0.73Q13.80-0.75 13.77-0.70L13.77-0.70L13.77-0.70Q13.14 0.12 11.74 0.12L11.74 0.12L11.74 0.12Q10.57 0.12 9.86-0.45L9.86-0.45L9.86-0.45Q9.13-1.02 9.13-2.13L9.13-2.13L9.13-2.13Q9.13-3.28 9.95-3.92L9.95-3.92L9.95-3.92Q10.75-4.56 12.25-4.56L12.25-4.56L13.79-4.56L13.79-4.56Q13.86-4.56 13.86-4.63L13.86-4.63L13.86-4.96L13.86-4.96Q13.86-5.46 13.56-5.74L13.56-5.74L13.56-5.74Q13.26-6.01 12.66-6.01L12.66-6.01L12.66-6.01Q12.20-6.01 11.89-5.85L11.89-5.85L11.89-5.85Q11.58-5.68 11.49-5.38L11.49-5.38L11.49-5.38Q11.45-5.22 11.29-5.23L11.29-5.23L9.48-5.47L9.48-5.47Q9.30-5.50 9.31-5.61L9.31-5.61L9.31-5.61Q9.38-6.24 9.82-6.75L9.82-6.75L9.82-6.75Q10.26-7.26 10.99-7.54L10.99-7.54L10.99-7.54Q11.71-7.83 12.62-7.83L12.62-7.83ZM12.31-1.45L12.31-1.45Q12.96-1.45 13.41-1.80L13.41-1.80L13.41-1.80Q13.86-2.15 13.86-2.69L13.86-2.69L13.86-3.23L13.86-3.23Q13.86-3.30 13.79-3.30L13.79-3.30L12.71-3.30L12.71-3.30Q12.03-3.30 11.65-3.04L11.65-3.04L11.65-3.04Q11.27-2.79 11.27-2.32L11.27-2.32L11.27-2.32Q11.27-1.92 11.55-1.69L11.55-1.69L11.55-1.69Q11.83-1.45 12.31-1.45L12.31-1.45ZM20.54 0.10L20.54 0.10Q19.53 0.10 18.78-0.18L18.78-0.18L18.78-0.18Q18.03-0.46 17.62-0.97L17.62-0.97L17.62-0.97Q17.20-1.48 17.20-2.13L17.20-2.13L17.20-2.28L17.20-2.28Q17.20-2.35 17.26-2.41L17.26-2.41L17.26-2.41Q17.31-2.46 17.38-2.46L17.38-2.46L19.05-2.46L19.05-2.46Q19.13-2.46 19.18-2.41L19.18-2.41L19.18-2.41Q19.23-2.35 19.23-2.28L19.23-2.28L19.23-2.27L19.23-2.27Q19.23-1.93 19.60-1.70L19.60-1.70L19.60-1.70Q19.96-1.47 20.52-1.47L20.52-1.47L20.52-1.47Q21.03-1.47 21.34-1.67L21.34-1.67L21.34-1.67Q21.66-1.88 21.66-2.17L21.66-2.17L21.66-2.17Q21.66-2.44 21.39-2.58L21.39-2.58L21.39-2.58Q21.12-2.71 20.50-2.86L20.50-2.86L20.50-2.86Q19.80-3.04 19.39-3.21L19.39-3.21L19.39-3.21Q18.43-3.54 17.86-4.02L17.86-4.02L17.86-4.02Q17.29-4.50 17.29-5.40L17.29-5.40L17.29-5.40Q17.29-6.51 18.16-7.16L18.16-7.16L18.16-7.16Q19.02-7.81 20.45-7.81L20.45-7.81L20.45-7.81Q21.41-7.81 22.13-7.51L22.13-7.51L22.13-7.51Q22.84-7.20 23.24-6.64L23.24-6.64L23.24-6.64Q23.64-6.09 23.64-5.38L23.64-5.38L23.64-5.38Q23.64-5.31 23.59-5.26L23.59-5.26L23.59-5.26Q23.54-5.21 23.46-5.21L23.46-5.21L21.86-5.21L21.86-5.21Q21.78-5.21 21.73-5.26L21.73-5.26L21.73-5.26Q21.68-5.31 21.68-5.38L21.68-5.38L21.68-5.38Q21.68-5.71 21.34-5.94L21.34-5.94L21.34-5.94Q21-6.17 20.45-6.17L20.45-6.17L20.45-6.17Q19.95-6.17 19.63-5.98L19.63-5.98L19.63-5.98Q19.32-5.80 19.32-5.49L19.32-5.49L19.32-5.49Q19.32-5.19 19.63-5.04L19.63-5.04L19.63-5.04Q19.93-4.89 20.66-4.72L20.66-4.72L20.66-4.72Q20.82-4.68 21.03-4.63L21.03-4.63L21.03-4.63Q21.24-4.58 21.48-4.50L21.48-4.50L21.48-4.50Q22.55-4.18 23.16-3.69L23.16-3.69L23.16-3.69Q23.77-3.19 23.77-2.25L23.77-2.25L23.77-2.25Q23.77-1.14 22.90-0.52L22.90-0.52L22.90-0.52Q22.02 0.10 20.54 0.10L20.54 0.10ZM26.13-8.58L26.13-8.58Q25.62-8.58 25.28-8.92L25.28-8.92L25.28-8.92Q24.95-9.25 24.95-9.76L24.95-9.76L24.95-9.76Q24.95-10.29 25.28-10.62L25.28-10.62L25.28-10.62Q25.61-10.95 26.13-10.95L26.13-10.95L26.13-10.95Q26.66-10.95 26.98-10.62L26.98-10.62L26.98-10.62Q27.32-10.29 27.32-9.76L27.32-9.76L27.32-9.76Q27.32-9.25 26.98-8.92L26.98-8.92L26.98-8.92Q26.64-8.58 26.13-8.58L26.13-8.58ZM25.23 0L25.23 0Q25.16 0 25.10-0.05L25.10-0.05L25.10-0.05Q25.05-0.10 25.05-0.18L25.05-0.18L25.05-7.54L25.05-7.54Q25.05-7.62 25.10-7.67L25.10-7.67L25.10-7.67Q25.16-7.72 25.23-7.72L25.23-7.72L26.98-7.72L26.98-7.72Q27.06-7.72 27.11-7.67L27.11-7.67L27.11-7.67Q27.16-7.62 27.16-7.54L27.16-7.54L27.16-0.18L27.16-0.18Q27.16-0.10 27.11-0.05L27.11-0.05L27.11-0.05Q27.06 0 26.98 0L26.98 0L25.23 0ZM35.64-4.65L35.64-4.65Q35.73-4.08 35.70-3.38L35.70-3.38L35.70-3.38Q35.69-3.19 35.51-3.19L35.51-3.19L30.87-3.19L30.87-3.19Q30.78-3.19 30.81-3.12L30.81-3.12L30.81-3.12Q30.86-2.82 30.98-2.52L30.98-2.52L30.98-2.52Q31.37-1.68 32.56-1.68L32.56-1.68L32.56-1.68Q33.52-1.69 34.08-2.46L34.08-2.46L34.08-2.46Q34.14-2.55 34.22-2.55L34.22-2.55L34.22-2.55Q34.26-2.55 34.32-2.49L34.32-2.49L35.40-1.43L35.40-1.43Q35.48-1.35 35.48-1.29L35.48-1.29L35.48-1.29Q35.48-1.26 35.41-1.17L35.41-1.17L35.41-1.17Q34.92-0.55 34.14-0.22L34.14-0.22L34.14-0.22Q33.36 0.12 32.43 0.12L32.43 0.12L32.43 0.12Q31.14 0.12 30.25-0.46L30.25-0.46L30.25-0.46Q29.36-1.05 28.96-2.10L28.96-2.10L28.96-2.10Q28.65-2.85 28.65-4.06L28.65-4.06L28.65-4.06Q28.65-4.89 28.88-5.52L28.88-5.52L28.88-5.52Q29.22-6.58 30.08-7.21L30.08-7.21L30.08-7.21Q30.95-7.84 32.13-7.84L32.13-7.84L32.13-7.84Q33.63-7.84 34.54-6.97L34.54-6.97L34.54-6.97Q35.45-6.10 35.64-4.65L35.64-4.65ZM32.14-6.01L32.14-6.01Q31.20-6.01 30.90-5.13L30.90-5.13L30.90-5.13Q30.84-4.93 30.80-4.65L30.80-4.65L30.80-4.65Q30.80-4.58 30.87-4.58L30.87-4.58L33.47-4.58L33.47-4.58Q33.55-4.58 33.52-4.65L33.52-4.65L33.52-4.65Q33.45-5.08 33.45-5.07L33.45-5.07L33.45-5.07Q33.31-5.52 32.98-5.77L32.98-5.77L32.98-5.77Q32.64-6.01 32.14-6.01L32.14-6.01ZM40.08 0.10L40.08 0.10Q39.08 0.10 38.33-0.18L38.33-0.18L38.33-0.18Q37.58-0.46 37.16-0.97L37.16-0.97L37.16-0.97Q36.75-1.48 36.75-2.13L36.75-2.13L36.75-2.28L36.75-2.28Q36.75-2.35 36.80-2.41L36.80-2.41L36.80-2.41Q36.86-2.46 36.93-2.46L36.93-2.46L38.59-2.46L38.59-2.46Q38.67-2.46 38.72-2.41L38.72-2.41L38.72-2.41Q38.77-2.35 38.77-2.28L38.77-2.28L38.77-2.27L38.77-2.27Q38.77-1.93 39.14-1.70L39.14-1.70L39.14-1.70Q39.51-1.47 40.06-1.47L40.06-1.47L40.06-1.47Q40.58-1.47 40.89-1.67L40.89-1.67L40.89-1.67Q41.20-1.88 41.20-2.17L41.20-2.17L41.20-2.17Q41.20-2.44 40.94-2.58L40.94-2.58L40.94-2.58Q40.66-2.71 40.05-2.86L40.05-2.86L40.05-2.86Q39.34-3.04 38.94-3.21L38.94-3.21L38.94-3.21Q37.98-3.54 37.41-4.02L37.41-4.02L37.41-4.02Q36.84-4.50 36.84-5.40L36.84-5.40L36.84-5.40Q36.84-6.51 37.70-7.16L37.70-7.16L37.70-7.16Q38.56-7.81 39.99-7.81L39.99-7.81L39.99-7.81Q40.95-7.81 41.67-7.51L41.67-7.51L41.67-7.51Q42.39-7.20 42.79-6.64L42.79-6.64L42.79-6.64Q43.19-6.09 43.19-5.38L43.19-5.38L43.19-5.38Q43.19-5.31 43.13-5.26L43.13-5.26L43.13-5.26Q43.08-5.21 43.01-5.21L43.01-5.21L41.40-5.21L41.40-5.21Q41.33-5.21 41.27-5.26L41.27-5.26L41.27-5.26Q41.22-5.31 41.22-5.38L41.22-5.38L41.22-5.38Q41.22-5.71 40.88-5.94L40.88-5.94L40.88-5.94Q40.55-6.17 39.99-6.17L39.99-6.17L39.99-6.17Q39.50-6.17 39.18-5.98L39.18-5.98L39.18-5.98Q38.87-5.80 38.87-5.49L38.87-5.49L38.87-5.49Q38.87-5.19 39.17-5.04L39.17-5.04L39.17-5.04Q39.48-4.89 40.20-4.72L40.20-4.72L40.20-4.72Q40.37-4.68 40.58-4.63L40.58-4.63L40.58-4.63Q40.79-4.58 41.02-4.50L41.02-4.50L41.02-4.50Q42.09-4.18 42.70-3.69L42.70-3.69L42.70-3.69Q43.32-3.19 43.32-2.25L43.32-2.25L43.32-2.25Q43.32-1.14 42.44-0.52L42.44-0.52L42.44-0.52Q41.56 0.10 40.08 0.10L40.08 0.10ZM48.96-6.19L48.96-6.19Q48.96-6.12 48.91-6.07L48.91-6.07L48.91-6.07Q48.86-6.01 48.78-6.01L48.78-6.01L47.34-6.01L47.34-6.01Q47.27-6.01 47.27-5.94L47.27-5.94L47.27-2.76L47.27-2.76Q47.27-2.27 47.47-2.02L47.47-2.02L47.47-2.02Q47.67-1.78 48.12-1.78L48.12-1.78L48.62-1.78L48.62-1.78Q48.69-1.78 48.74-1.73L48.74-1.73L48.74-1.73Q48.80-1.68 48.80-1.60L48.80-1.60L48.80-0.18L48.80-0.18Q48.80-0.01 48.62 0.01L48.62 0.01L48.62 0.01Q47.98 0.04 47.72 0.04L47.72 0.04L47.72 0.04Q46.47 0.04 45.86-0.37L45.86-0.37L45.86-0.37Q45.24-0.78 45.23-1.92L45.23-1.92L45.23-5.94L45.23-5.94Q45.23-6.01 45.15-6.01L45.15-6.01L44.30-6.01L44.30-6.01Q44.22-6.01 44.17-6.07L44.17-6.07L44.17-6.07Q44.12-6.12 44.12-6.19L44.12-6.19L44.12-7.53L44.12-7.53Q44.12-7.60 44.17-7.66L44.17-7.66L44.17-7.66Q44.22-7.71 44.30-7.71L44.30-7.71L45.15-7.71L45.15-7.71Q45.23-7.71 45.23-7.79L45.23-7.79L45.23-9.57L45.23-9.57Q45.23-9.64 45.28-9.70L45.28-9.70L45.28-9.70Q45.33-9.75 45.41-9.75L45.41-9.75L47.09-9.75L47.09-9.75Q47.16-9.75 47.21-9.70L47.21-9.70L47.21-9.70Q47.27-9.64 47.27-9.57L47.27-9.57L47.27-7.79L47.27-7.79Q47.27-7.71 47.34-7.71L47.34-7.71L48.78-7.71L48.78-7.71Q48.86-7.71 48.91-7.66L48.91-7.66L48.91-7.66Q48.96-7.60 48.96-7.53L48.96-7.53L48.96-6.19Z"/><path fill="#fff" transform="translate(21.56, 75.4)" d="M5.24-6.92L5.24-6.92Q5.29-7 5.38-7L5.38-7L6.30-7L6.30-7Q6.35-7 6.38-6.96L6.38-6.96L6.38-6.96Q6.42-6.93 6.42-6.88L6.42-6.88L6.42-0.12L6.42-0.12Q6.42-0.07 6.38-0.04L6.38-0.04L6.38-0.04Q6.35 0 6.30 0L6.30 0L5.38 0L5.38 0Q5.33 0 5.29-0.04L5.29-0.04L5.29-0.04Q5.26-0.07 5.26-0.12L5.26-0.12L5.26-4.89L5.26-4.89Q5.26-4.92 5.24-4.93L5.24-4.93L5.24-4.93Q5.21-4.94 5.20-4.91L5.20-4.91L3.95-2.99L3.95-2.99Q3.90-2.91 3.81-2.91L3.81-2.91L3.35-2.91L3.35-2.91Q3.26-2.91 3.21-2.99L3.21-2.99L1.95-4.90L1.95-4.90Q1.94-4.93 1.92-4.92L1.92-4.92L1.92-4.92Q1.89-4.91 1.89-4.88L1.89-4.88L1.89-0.12L1.89-0.12Q1.89-0.07 1.85-0.04L1.85-0.04L1.85-0.04Q1.82 0 1.77 0L1.77 0L0.85 0L0.85 0Q0.80 0 0.77-0.04L0.77-0.04L0.77-0.04Q0.73-0.07 0.73-0.12L0.73-0.12L0.73-6.88L0.73-6.88Q0.73-6.93 0.77-6.96L0.77-6.96L0.77-6.96Q0.80-7 0.85-7L0.85-7L1.77-7L1.77-7Q1.86-7 1.91-6.92L1.91-6.92L3.54-4.45L3.54-4.45Q3.56-4.43 3.58-4.43L3.58-4.43L3.58-4.43Q3.60-4.43 3.61-4.45L3.61-4.45L5.24-6.92ZM8.43-5.81L8.43-5.81Q8.12-5.81 7.92-6.01L7.92-6.01L7.92-6.01Q7.72-6.21 7.72-6.52L7.72-6.52L7.72-6.52Q7.72-6.83 7.92-7.03L7.92-7.03L7.92-7.03Q8.12-7.23 8.43-7.23L8.43-7.23L8.43-7.23Q8.74-7.23 8.94-7.03L8.94-7.03L8.94-7.03Q9.14-6.83 9.14-6.52L9.14-6.52L9.14-6.52Q9.14-6.21 8.94-6.01L8.94-6.01L8.94-6.01Q8.74-5.81 8.43-5.81L8.43-5.81ZM7.95 0L7.95 0Q7.90 0 7.87-0.04L7.87-0.04L7.87-0.04Q7.83-0.07 7.83-0.12L7.83-0.12L7.83-5L7.83-5Q7.83-5.05 7.87-5.08L7.87-5.08L7.87-5.08Q7.90-5.12 7.95-5.12L7.95-5.12L8.87-5.12L8.87-5.12Q8.92-5.12 8.96-5.08L8.96-5.08L8.96-5.08Q8.99-5.05 8.99-5L8.99-5L8.99-0.12L8.99-0.12Q8.99-0.07 8.96-0.04L8.96-0.04L8.96-0.04Q8.92 0 8.87 0L8.87 0L7.95 0ZM13.49-6.88L13.49-6.88Q13.49-6.93 13.53-6.96L13.53-6.96L13.53-6.96Q13.56-7 13.61-7L13.61-7L14.53-7L14.53-7Q14.58-7 14.62-6.96L14.62-6.96L14.62-6.96Q14.65-6.93 14.65-6.88L14.65-6.88L14.65-0.12L14.65-0.12Q14.65-0.07 14.62-0.04L14.62-0.04L14.62-0.04Q14.58 0 14.53 0L14.53 0L13.61 0L13.61 0Q13.56 0 13.53-0.04L13.53-0.04L13.53-0.04Q13.49-0.07 13.49-0.12L13.49-0.12L13.49-0.42L13.49-0.42Q13.49-0.45 13.47-0.46L13.47-0.46L13.47-0.46Q13.45-0.47 13.43-0.44L13.43-0.44L13.43-0.44Q12.99 0.08 12.28 0.08L12.28 0.08L12.28 0.08Q11.57 0.08 11.08-0.29L11.08-0.29L11.08-0.29Q10.59-0.66 10.37-1.32L10.37-1.32L10.37-1.32Q10.19-1.88 10.19-2.57L10.19-2.57L10.19-2.57Q10.19-3.28 10.36-3.79L10.36-3.79L10.36-3.79Q10.58-4.45 11.07-4.82L11.07-4.82L11.07-4.82Q11.56-5.19 12.30-5.19L12.30-5.19L12.30-5.19Q12.99-5.19 13.43-4.69L13.43-4.69L13.43-4.69Q13.45-4.67 13.47-4.67L13.47-4.67L13.47-4.67Q13.49-4.68 13.49-4.71L13.49-4.71L13.49-6.88ZM13.25-1.40L13.25-1.40Q13.48-1.81 13.48-2.56L13.48-2.56L13.48-2.56Q13.48-3.34 13.23-3.75L13.23-3.75L13.23-3.75Q12.96-4.19 12.47-4.19L12.47-4.19L12.47-4.19Q11.96-4.19 11.67-3.77L11.67-3.77L11.67-3.77Q11.37-3.33 11.37-2.55L11.37-2.55L11.37-2.55Q11.37-1.85 11.61-1.40L11.61-1.40L11.61-1.40Q11.89-0.92 12.46-0.92L12.46-0.92L12.46-0.92Q12.97-0.92 13.25-1.40L13.25-1.40ZM15.73-2.51L15.73-2.51Q15.68-2.51 15.65-2.54L15.65-2.54L15.65-2.54Q15.61-2.58 15.61-2.63L15.61-2.63L15.61-3.39L15.61-3.39Q15.61-3.44 15.65-3.48L15.65-3.48L15.65-3.48Q15.68-3.51 15.73-3.51L15.73-3.51L18.88-3.51L18.88-3.51Q18.93-3.51 18.96-3.48L18.96-3.48L18.96-3.48Q19-3.44 19-3.39L19-3.39L19-2.63L19-2.63Q19-2.58 18.96-2.54L18.96-2.54L18.96-2.54Q18.93-2.51 18.88-2.51L18.88-2.51L15.73-2.51ZM24.57-6.92L24.57-6.92Q24.62-7 24.71-7L24.71-7L25.63-7L25.63-7Q25.68-7 25.72-6.96L25.72-6.96L25.72-6.96Q25.75-6.93 25.75-6.88L25.75-6.88L25.75-0.12L25.75-0.12Q25.75-0.07 25.72-0.04L25.72-0.04L25.72-0.04Q25.68 0 25.63 0L25.63 0L24.71 0L24.71 0Q24.66 0 24.63-0.04L24.63-0.04L24.63-0.04Q24.59-0.07 24.59-0.12L24.59-0.12L24.59-4.89L24.59-4.89Q24.59-4.92 24.57-4.93L24.57-4.93L24.57-4.93Q24.54-4.94 24.53-4.91L24.53-4.91L23.28-2.99L23.28-2.99Q23.23-2.91 23.14-2.91L23.14-2.91L22.68-2.91L22.68-2.91Q22.59-2.91 22.54-2.99L22.54-2.99L21.28-4.90L21.28-4.90Q21.27-4.93 21.25-4.92L21.25-4.92L21.25-4.92Q21.22-4.91 21.22-4.88L21.22-4.88L21.22-0.12L21.22-0.12Q21.22-0.07 21.19-0.04L21.19-0.04L21.19-0.04Q21.15 0 21.10 0L21.10 0L20.18 0L20.18 0Q20.13 0 20.10-0.04L20.10-0.04L20.10-0.04Q20.06-0.07 20.06-0.12L20.06-0.12L20.06-6.88L20.06-6.88Q20.06-6.93 20.10-6.96L20.10-6.96L20.10-6.96Q20.13-7 20.18-7L20.18-7L21.10-7L21.10-7Q21.19-7 21.24-6.92L21.24-6.92L22.87-4.45L22.87-4.45Q22.89-4.43 22.91-4.43L22.91-4.43L22.91-4.43Q22.93-4.43 22.94-4.45L22.94-4.45L24.57-6.92ZM29.05-5.19L29.05-5.19Q29.68-5.19 30.16-4.97L30.16-4.97L30.16-4.97Q30.64-4.75 30.90-4.37L30.90-4.37L30.90-4.37Q31.16-3.98 31.16-3.49L31.16-3.49L31.16-0.12L31.16-0.12Q31.16-0.07 31.13-0.04L31.13-0.04L31.13-0.04Q31.09 0 31.04 0L31.04 0L30.12 0L30.12 0Q30.07 0 30.04-0.04L30.04-0.04L30.04-0.04Q30.00-0.07 30.00-0.12L30.00-0.12L30.00-0.44L30.00-0.44Q30.00-0.47 29.98-0.48L29.98-0.48L29.98-0.48Q29.96-0.48 29.94-0.46L29.94-0.46L29.94-0.46Q29.45 0.08 28.52 0.08L28.52 0.08L28.52 0.08Q27.77 0.08 27.29-0.30L27.29-0.30L27.29-0.30Q26.80-0.68 26.80-1.43L26.80-1.43L26.80-1.43Q26.80-2.21 27.35-2.65L27.35-2.65L27.35-2.65Q27.89-3.08 28.88-3.08L28.88-3.08L29.95-3.08L29.95-3.08Q30.00-3.08 30.00-3.13L30.00-3.13L30.00-3.37L30.00-3.37Q30.00-3.76 29.77-3.98L29.77-3.98L29.77-3.98Q29.54-4.19 29.08-4.19L29.08-4.19L29.08-4.19Q28.70-4.19 28.47-4.05L28.47-4.05L28.47-4.05Q28.23-3.92 28.17-3.68L28.17-3.68L28.17-3.68Q28.14-3.56 28.03-3.58L28.03-3.58L27.06-3.70L27.06-3.70Q27.01-3.71 26.98-3.73L26.98-3.73L26.98-3.73Q26.94-3.76 26.95-3.80L26.95-3.80L26.95-3.80Q27.03-4.41 27.61-4.80L27.61-4.80L27.61-4.80Q28.18-5.19 29.05-5.19L29.05-5.19ZM28.81-0.84L28.81-0.84Q29.30-0.84 29.65-1.10L29.65-1.10L29.65-1.10Q30.00-1.36 30.00-1.76L30.00-1.76L30.00-2.23L30.00-2.23Q30.00-2.28 29.95-2.28L29.95-2.28L29.11-2.28L29.11-2.28Q28.58-2.28 28.28-2.08L28.28-2.08L28.28-2.08Q27.97-1.88 27.97-1.51L27.97-1.51L27.97-1.51Q27.97-1.19 28.21-1.02L28.21-1.02L28.21-1.02Q28.44-0.84 28.81-0.84L28.81-0.84ZM34.70-5.17L34.70-5.17Q35.02-5.17 35.26-5.04L35.26-5.04L35.26-5.04Q35.34-5 35.32-4.89L35.32-4.89L35.15-3.99L35.15-3.99Q35.14-3.87 35.01-3.92L35.01-3.92L35.01-3.92Q34.86-3.97 34.66-3.97L34.66-3.97L34.66-3.97Q34.53-3.97 34.46-3.96L34.46-3.96L34.46-3.96Q34.04-3.94 33.76-3.67L33.76-3.67L33.76-3.67Q33.48-3.39 33.48-2.95L33.48-2.95L33.48-0.12L33.48-0.12Q33.48-0.07 33.45-0.04L33.45-0.04L33.45-0.04Q33.41 0 33.36 0L33.36 0L32.44 0L32.44 0Q32.39 0 32.36-0.04L32.36-0.04L32.36-0.04Q32.32-0.07 32.32-0.12L32.32-0.12L32.32-4.99L32.32-4.99Q32.32-5.04 32.36-5.08L32.36-5.08L32.36-5.08Q32.39-5.11 32.44-5.11L32.44-5.11L33.36-5.11L33.36-5.11Q33.41-5.11 33.45-5.08L33.45-5.08L33.45-5.08Q33.48-5.04 33.48-4.99L33.48-4.99L33.48-4.54L33.48-4.54Q33.48-4.50 33.50-4.50L33.50-4.50L33.50-4.50Q33.51-4.49 33.53-4.52L33.53-4.52L33.53-4.52Q33.95-5.17 34.70-5.17L34.70-5.17ZM36.20 0L36.20 0Q36.15 0 36.12-0.04L36.12-0.04L36.12-0.04Q36.08-0.07 36.08-0.12L36.08-0.12L36.08-6.88L36.08-6.88Q36.08-6.93 36.12-6.96L36.12-6.96L36.12-6.96Q36.15-7 36.20-7L36.20-7L37.12-7L37.12-7Q37.17-7 37.20-6.96L37.20-6.96L37.20-6.96Q37.24-6.93 37.24-6.88L37.24-6.88L37.24-3.27L37.24-3.27Q37.24-3.24 37.26-3.23L37.26-3.23L37.26-3.23Q37.28-3.22 37.30-3.25L37.30-3.25L38.92-5.04L38.92-5.04Q38.99-5.11 39.07-5.11L39.07-5.11L40.13-5.11L40.13-5.11Q40.23-5.11 40.23-5.04L40.23-5.04L40.23-5.04Q40.23-5.01 40.20-4.96L40.20-4.96L38.93-3.44L38.93-3.44Q38.90-3.41 38.92-3.37L38.92-3.37L40.42-0.14L40.42-0.14Q40.44-0.10 40.44-0.08L40.44-0.08L40.44-0.08Q40.44 0 40.33 0L40.33 0L39.36 0L39.36 0Q39.26 0 39.22-0.09L39.22-0.09L38.13-2.63L38.13-2.63Q38.12-2.65 38.09-2.66L38.09-2.66L38.09-2.66Q38.07-2.66 38.06-2.64L38.06-2.64L37.26-1.72L37.26-1.72Q37.24-1.68 37.24-1.65L37.24-1.65L37.24-0.12L37.24-0.12Q37.24-0.07 37.20-0.04L37.20-0.04L37.20-0.04Q37.17 0 37.12 0L37.12 0L36.20 0ZM45.61-3.13L45.61-3.13Q45.65-2.88 45.65-2.57L45.65-2.57L45.64-2.26L45.64-2.26Q45.64-2.14 45.52-2.14L45.52-2.14L42.39-2.14L42.39-2.14Q42.34-2.14 42.34-2.09L42.34-2.09L42.34-2.09Q42.37-1.76 42.43-1.64L42.43-1.64L42.43-1.64Q42.67-0.92 43.60-0.91L43.60-0.91L43.60-0.91Q44.28-0.91 44.68-1.47L44.68-1.47L44.68-1.47Q44.72-1.53 44.78-1.53L44.78-1.53L44.78-1.53Q44.82-1.53 44.85-1.50L44.85-1.50L45.47-0.99L45.47-0.99Q45.56-0.92 45.50-0.83L45.50-0.83L45.50-0.83Q45.19-0.39 44.67-0.15L44.67-0.15L44.67-0.15Q44.16 0.09 43.53 0.09L43.53 0.09L43.53 0.09Q42.75 0.09 42.20-0.26L42.20-0.26L42.20-0.26Q41.66-0.61 41.41-1.24L41.41-1.24L41.41-1.24Q41.18-1.78 41.18-2.74L41.18-2.74L41.18-2.74Q41.18-3.32 41.30-3.68L41.30-3.68L41.30-3.68Q41.50-4.38 42.05-4.79L42.05-4.79L42.05-4.79Q42.61-5.19 43.39-5.19L43.39-5.19L43.39-5.19Q45.36-5.19 45.61-3.13L45.61-3.13ZM43.39-4.19L43.39-4.19Q43.02-4.19 42.77-4.00L42.77-4.00L42.77-4.00Q42.53-3.82 42.43-3.49L42.43-3.49L42.43-3.49Q42.37-3.32 42.35-3.05L42.35-3.05L42.35-3.05Q42.33-3 42.39-3L42.39-3L44.42-3L44.42-3Q44.47-3 44.47-3.05L44.47-3.05L44.47-3.05Q44.45-3.30 44.41-3.43L44.41-3.43L44.41-3.43Q44.32-3.79 44.05-3.99L44.05-3.99L44.05-3.99Q43.79-4.19 43.39-4.19L43.39-4.19ZM49.42-4.29L49.42-4.29Q49.42-4.24 49.39-4.21L49.39-4.21L49.39-4.21Q49.35-4.17 49.30-4.17L49.30-4.17L48.28-4.17L48.28-4.17Q48.23-4.17 48.23-4.12L48.23-4.12L48.23-1.71L48.23-1.71Q48.23-1.33 48.40-1.16L48.40-1.16L48.40-1.16Q48.56-0.99 48.92-0.99L48.92-0.99L49.22-0.99L49.22-0.99Q49.27-0.99 49.31-0.96L49.31-0.96L49.31-0.96Q49.34-0.92 49.34-0.87L49.34-0.87L49.34-0.12L49.34-0.12Q49.34-0.01 49.22 0.01L49.22 0.01L48.70 0.02L48.70 0.02Q47.91 0.02 47.52-0.25L47.52-0.25L47.52-0.25Q47.13-0.52 47.12-1.27L47.12-1.27L47.12-4.12L47.12-4.12Q47.12-4.17 47.07-4.17L47.07-4.17L46.50-4.17L46.50-4.17Q46.45-4.17 46.42-4.21L46.42-4.21L46.42-4.21Q46.38-4.24 46.38-4.29L46.38-4.29L46.38-4.99L46.38-4.99Q46.38-5.04 46.42-5.08L46.42-5.08L46.42-5.08Q46.45-5.11 46.50-5.11L46.50-5.11L47.07-5.11L47.07-5.11Q47.12-5.11 47.12-5.16L47.12-5.16L47.12-6.33L47.12-6.33Q47.12-6.38 47.16-6.42L47.16-6.42L47.16-6.42Q47.19-6.45 47.24-6.45L47.24-6.45L48.11-6.45L48.11-6.45Q48.16-6.45 48.20-6.42L48.20-6.42L48.20-6.42Q48.23-6.38 48.23-6.33L48.23-6.33L48.23-5.16L48.23-5.16Q48.23-5.11 48.28-5.11L48.28-5.11L49.30-5.11L49.30-5.11Q49.35-5.11 49.39-5.08L49.39-5.08L49.39-5.08Q49.42-5.04 49.42-4.99L49.42-4.99L49.42-4.29Z"/><path fill="#252530" transform="translate(27.56, 89.5)" d="M3.01 0.08L3.01 0.08Q2.21 0.08 1.61-0.18L1.61-0.18L1.61-0.18Q1.01-0.43 0.69-0.91L0.69-0.91L0.69-0.91Q0.36-1.38 0.36-2.01L0.36-2.01L0.36-2.23L0.36-2.23Q0.36-2.28 0.40-2.31L0.40-2.31L0.40-2.31Q0.43-2.35 0.48-2.35L0.48-2.35L1.62-2.35L1.62-2.35Q1.67-2.35 1.71-2.31L1.71-2.31L1.71-2.31Q1.74-2.28 1.74-2.23L1.74-2.23L1.74-2.08L1.74-2.08Q1.74-1.68 2.11-1.41L2.11-1.41L2.11-1.41Q2.48-1.13 3.11-1.13L3.11-1.13L3.11-1.13Q3.64-1.13 3.90-1.35L3.90-1.35L3.90-1.35Q4.16-1.58 4.16-1.91L4.16-1.91L4.16-1.91Q4.16-2.15 4-2.31L4-2.31L4-2.31Q3.84-2.48 3.56-2.60L3.56-2.60L3.56-2.60Q3.29-2.73 2.69-2.95L2.69-2.95L2.69-2.95Q2.02-3.18 1.55-3.42L1.55-3.42L1.55-3.42Q1.09-3.66 0.78-4.08L0.78-4.08L0.78-4.08Q0.46-4.49 0.46-5.10L0.46-5.10L0.46-5.10Q0.46-5.70 0.77-6.15L0.77-6.15L0.77-6.15Q1.08-6.60 1.63-6.84L1.63-6.84L1.63-6.84Q2.18-7.08 2.90-7.08L2.90-7.08L2.90-7.08Q3.66-7.08 4.25-6.81L4.25-6.81L4.25-6.81Q4.85-6.54 5.19-6.05L5.19-6.05L5.19-6.05Q5.52-5.57 5.52-4.93L5.52-4.93L5.52-4.78L5.52-4.78Q5.52-4.73 5.49-4.70L5.49-4.70L5.49-4.70Q5.45-4.66 5.40-4.66L5.40-4.66L4.25-4.66L4.25-4.66Q4.20-4.66 4.17-4.70L4.17-4.70L4.17-4.70Q4.13-4.73 4.13-4.78L4.13-4.78L4.13-4.86L4.13-4.86Q4.13-5.28 3.79-5.58L3.79-5.58L3.79-5.58Q3.44-5.87 2.84-5.87L2.84-5.87L2.84-5.87Q2.37-5.87 2.10-5.67L2.10-5.67L2.10-5.67Q1.84-5.47 1.84-5.12L1.84-5.12L1.84-5.12Q1.84-4.87 2.00-4.70L2.00-4.70L2.00-4.70Q2.15-4.53 2.46-4.40L2.46-4.40L2.46-4.40Q2.76-4.26 3.40-4.03L3.40-4.03L3.40-4.03Q4.11-3.77 4.51-3.57L4.51-3.57L4.51-3.57Q4.92-3.37 5.25-2.98L5.25-2.98L5.25-2.98Q5.57-2.58 5.57-1.95L5.57-1.95L5.57-1.95Q5.57-1.01 4.88-0.47L4.88-0.47L4.88-0.47Q4.19 0.08 3.01 0.08L3.01 0.08ZM9.10 0.08L9.10 0.08Q8.33 0.08 7.75-0.22L7.75-0.22L7.75-0.22Q7.16-0.52 6.83-1.06L6.83-1.06L6.83-1.06Q6.51-1.61 6.51-2.32L6.51-2.32L6.51-6.88L6.51-6.88Q6.51-6.93 6.54-6.96L6.54-6.96L6.54-6.96Q6.58-7 6.63-7L6.63-7L7.80-7L7.80-7Q7.85-7 7.88-6.96L7.88-6.96L7.88-6.96Q7.92-6.93 7.92-6.88L7.92-6.88L7.92-2.31L7.92-2.31Q7.92-1.78 8.25-1.46L8.25-1.46L8.25-1.46Q8.57-1.13 9.10-1.13L9.10-1.13L9.10-1.13Q9.63-1.13 9.96-1.46L9.96-1.46L9.96-1.46Q10.28-1.78 10.28-2.31L10.28-2.31L10.28-6.88L10.28-6.88Q10.28-6.93 10.32-6.96L10.32-6.96L10.32-6.96Q10.35-7 10.40-7L10.40-7L11.57-7L11.57-7Q11.62-7 11.66-6.96L11.66-6.96L11.66-6.96Q11.69-6.93 11.69-6.88L11.69-6.88L11.69-2.32L11.69-2.32Q11.69-1.61 11.37-1.06L11.37-1.06L11.37-1.06Q11.04-0.52 10.46-0.22L10.46-0.22L10.46-0.22Q9.87 0.08 9.10 0.08L9.10 0.08ZM17.35-6.92L17.35-6.92Q17.40-7 17.49-7L17.49-7L18.66-7L18.66-7Q18.71-7 18.75-6.96L18.75-6.96L18.75-6.96Q18.78-6.93 18.78-6.88L18.78-6.88L18.78-0.12L18.78-0.12Q18.78-0.07 18.75-0.04L18.75-0.04L18.75-0.04Q18.71 0 18.66 0L18.66 0L17.49 0L17.49 0Q17.44 0 17.41-0.04L17.41-0.04L17.41-0.04Q17.37-0.07 17.37-0.12L17.37-0.12L17.37-4.53L17.37-4.53Q17.37-4.57 17.35-4.57L17.35-4.57L17.35-4.57Q17.33-4.57 17.31-4.54L17.31-4.54L16.25-2.88L16.25-2.88Q16.20-2.80 16.11-2.80L16.11-2.80L15.52-2.80L15.52-2.80Q15.43-2.80 15.38-2.88L15.38-2.88L14.32-4.54L14.32-4.54Q14.30-4.57 14.28-4.57L14.28-4.57L14.28-4.57Q14.26-4.56 14.26-4.52L14.26-4.52L14.26-0.12L14.26-0.12Q14.26-0.07 14.22-0.04L14.22-0.04L14.22-0.04Q14.19 0 14.14 0L14.14 0L12.97 0L12.97 0Q12.92 0 12.88-0.04L12.88-0.04L12.88-0.04Q12.85-0.07 12.85-0.12L12.85-0.12L12.85-6.88L12.85-6.88Q12.85-6.93 12.88-6.96L12.88-6.96L12.88-6.96Q12.92-7 12.97-7L12.97-7L14.14-7L14.14-7Q14.23-7 14.28-6.92L14.28-6.92L15.78-4.59L15.78-4.59Q15.81-4.53 15.84-4.59L15.84-4.59L17.35-6.92ZM24.50-6.92L24.50-6.92Q24.55-7 24.64-7L24.64-7L25.81-7L25.81-7Q25.86-7 25.89-6.96L25.89-6.96L25.89-6.96Q25.93-6.93 25.93-6.88L25.93-6.88L25.93-0.12L25.93-0.12Q25.93-0.07 25.89-0.04L25.89-0.04L25.89-0.04Q25.86 0 25.81 0L25.81 0L24.64 0L24.64 0Q24.59 0 24.55-0.04L24.55-0.04L24.55-0.04Q24.52-0.07 24.52-0.12L24.52-0.12L24.52-4.53L24.52-4.53Q24.52-4.57 24.50-4.57L24.50-4.57L24.50-4.57Q24.48-4.57 24.46-4.54L24.46-4.54L23.40-2.88L23.40-2.88Q23.35-2.80 23.26-2.80L23.26-2.80L22.67-2.80L22.67-2.80Q22.58-2.80 22.53-2.88L22.53-2.88L21.47-4.54L21.47-4.54Q21.45-4.57 21.43-4.57L21.43-4.57L21.43-4.57Q21.41-4.56 21.41-4.52L21.41-4.52L21.41-0.12L21.41-0.12Q21.41-0.07 21.38-0.04L21.38-0.04L21.38-0.04Q21.34 0 21.29 0L21.29 0L20.12 0L20.12 0Q20.07 0 20.04-0.04L20.04-0.04L20.04-0.04Q20-0.07 20-0.12L20-0.12L20-6.88L20-6.88Q20-6.93 20.04-6.96L20.04-6.96L20.04-6.96Q20.07-7 20.12-7L20.12-7L21.29-7L21.29-7Q21.38-7 21.43-6.92L21.43-6.92L22.93-4.59L22.93-4.59Q22.96-4.53 22.99-4.59L22.99-4.59L24.50-6.92ZM32.01-5.91L32.01-5.91Q32.01-5.86 31.98-5.83L31.98-5.83L31.98-5.83Q31.94-5.79 31.89-5.79L31.89-5.79L28.61-5.79L28.61-5.79Q28.56-5.79 28.56-5.74L28.56-5.74L28.56-4.19L28.56-4.19Q28.56-4.14 28.61-4.14L28.61-4.14L30.76-4.14L30.76-4.14Q30.81-4.14 30.84-4.11L30.84-4.11L30.84-4.11Q30.88-4.07 30.88-4.02L30.88-4.02L30.88-3.05L30.88-3.05Q30.88-3 30.84-2.96L30.84-2.96L30.84-2.96Q30.81-2.93 30.76-2.93L30.76-2.93L28.61-2.93L28.61-2.93Q28.56-2.93 28.56-2.88L28.56-2.88L28.56-1.26L28.56-1.26Q28.56-1.21 28.61-1.21L28.61-1.21L31.89-1.21L31.89-1.21Q31.94-1.21 31.98-1.18L31.98-1.18L31.98-1.18Q32.01-1.14 32.01-1.09L32.01-1.09L32.01-0.12L32.01-0.12Q32.01-0.07 31.98-0.04L31.98-0.04L31.98-0.04Q31.94 0 31.89 0L31.89 0L27.27 0L27.27 0Q27.22 0 27.18-0.04L27.18-0.04L27.18-0.04Q27.15-0.07 27.15-0.12L27.15-0.12L27.15-6.88L27.15-6.88Q27.15-6.93 27.18-6.96L27.18-6.96L27.18-6.96Q27.22-7 27.27-7L27.27-7L31.89-7L31.89-7Q31.94-7 31.98-6.96L31.98-6.96L31.98-6.96Q32.01-6.93 32.01-6.88L32.01-6.88L32.01-5.91ZM36.83 0L36.83 0Q36.73 0 36.69-0.09L36.69-0.09L35.44-2.86L35.44-2.86Q35.42-2.90 35.38-2.90L35.38-2.90L34.45-2.90L34.45-2.90Q34.40-2.90 34.40-2.85L34.40-2.85L34.40-0.12L34.40-0.12Q34.40-0.07 34.36-0.04L34.36-0.04L34.36-0.04Q34.33 0 34.28 0L34.28 0L33.11 0L33.11 0Q33.06 0 33.02-0.04L33.02-0.04L33.02-0.04Q32.99-0.07 32.99-0.12L32.99-0.12L32.99-6.88L32.99-6.88Q32.99-6.93 33.02-6.96L33.02-6.96L33.02-6.96Q33.06-7 33.11-7L33.11-7L35.97-7L35.97-7Q36.61-7 37.09-6.74L37.09-6.74L37.09-6.74Q37.58-6.48 37.84-6L37.84-6L37.84-6Q38.11-5.52 38.11-4.89L38.11-4.89L38.11-4.89Q38.11-4.21 37.77-3.73L37.77-3.73L37.77-3.73Q37.43-3.24 36.82-3.04L36.82-3.04L36.82-3.04Q36.77-3.02 36.79-2.97L36.79-2.97L38.15-0.14L38.15-0.14Q38.17-0.10 38.17-0.08L38.17-0.08L38.17-0.08Q38.17 0 38.06 0L38.06 0L36.83 0ZM34.45-5.79L34.45-5.79Q34.40-5.79 34.40-5.74L34.40-5.74L34.40-4.03L34.40-4.03Q34.40-3.98 34.45-3.98L34.45-3.98L35.76-3.98L35.76-3.98Q36.18-3.98 36.44-4.23L36.44-4.23L36.44-4.23Q36.71-4.48 36.71-4.88L36.71-4.88L36.71-4.88Q36.71-5.28 36.44-5.54L36.44-5.54L36.44-5.54Q36.18-5.79 35.76-5.79L35.76-5.79L34.45-5.79Z"/><path fill="#252530" transform="translate(35.53, 98.9)" d="M2.33-1.27L2.33-1.27Q2.31-1.25 2.32-1.23L2.32-1.23L2.32-1.23Q2.33-1.21 2.36-1.21L2.36-1.21L5.07-1.21L5.07-1.21Q5.12-1.21 5.16-1.18L5.16-1.18L5.16-1.18Q5.19-1.14 5.19-1.09L5.19-1.09L5.19-0.12L5.19-0.12Q5.19-0.07 5.16-0.04L5.16-0.04L5.16-0.04Q5.12 0 5.07 0L5.07 0L0.57 0L0.57 0Q0.52 0 0.48-0.04L0.48-0.04L0.48-0.04Q0.45-0.07 0.45-0.12L0.45-0.12L0.45-1.04L0.45-1.04Q0.45-1.13 0.51-1.19L0.51-1.19L0.51-1.19Q1-1.67 1.51-2.23L1.51-2.23L1.51-2.23Q2.02-2.80 2.15-2.94L2.15-2.94L2.15-2.94Q2.43-3.27 2.72-3.57L2.72-3.57L2.72-3.57Q3.63-4.58 3.63-5.07L3.63-5.07L3.63-5.07Q3.63-5.42 3.38-5.65L3.38-5.65L3.38-5.65Q3.13-5.87 2.73-5.87L2.73-5.87L2.73-5.87Q2.33-5.87 2.08-5.65L2.08-5.65L2.08-5.65Q1.83-5.42 1.83-5.05L1.83-5.05L1.83-4.80L1.83-4.80Q1.83-4.75 1.79-4.71L1.79-4.71L1.79-4.71Q1.76-4.68 1.71-4.68L1.71-4.68L0.53-4.68L0.53-4.68Q0.48-4.68 0.45-4.71L0.45-4.71L0.45-4.71Q0.41-4.75 0.41-4.80L0.41-4.80L0.41-5.27L0.41-5.27Q0.44-5.81 0.75-6.23L0.75-6.23L0.75-6.23Q1.06-6.64 1.57-6.86L1.57-6.86L1.57-6.86Q2.09-7.08 2.73-7.08L2.73-7.08L2.73-7.08Q3.44-7.08 3.97-6.82L3.97-6.82L3.97-6.82Q4.49-6.55 4.78-6.10L4.78-6.10L4.78-6.10Q5.06-5.65 5.06-5.10L5.06-5.10L5.06-5.10Q5.06-4.68 4.85-4.24L4.85-4.24L4.85-4.24Q4.64-3.80 4.22-3.29L4.22-3.29L4.22-3.29Q3.91-2.90 3.55-2.52L3.55-2.52L3.55-2.52Q3.19-2.14 2.48-1.42L2.48-1.42L2.33-1.27ZM8.44 0.11L8.44 0.11Q7.34 0.11 6.70-0.51L6.70-0.51L6.70-0.51Q6.06-1.12 6.06-2.18L6.06-2.18L6.06-4.82L6.06-4.82Q6.06-5.86 6.70-6.47L6.70-6.47L6.70-6.47Q7.34-7.08 8.44-7.08L8.44-7.08L8.44-7.08Q9.54-7.08 10.19-6.47L10.19-6.47L10.19-6.47Q10.83-5.86 10.83-4.82L10.83-4.82L10.83-2.18L10.83-2.18Q10.83-1.12 10.19-0.51L10.19-0.51L10.19-0.51Q9.54 0.11 8.44 0.11L8.44 0.11ZM8.44-1.10L8.44-1.10Q8.89-1.10 9.16-1.38L9.16-1.38L9.16-1.38Q9.42-1.65 9.42-2.11L9.42-2.11L9.42-4.86L9.42-4.86Q9.42-5.32 9.16-5.59L9.16-5.59L9.16-5.59Q8.89-5.87 8.44-5.87L8.44-5.87L8.44-5.87Q8-5.87 7.74-5.59L7.74-5.59L7.74-5.59Q7.47-5.32 7.47-4.86L7.47-4.86L7.47-2.11L7.47-2.11Q7.47-1.65 7.74-1.38L7.74-1.38L7.74-1.38Q8-1.10 8.44-1.10L8.44-1.10ZM13.63-1.27L13.63-1.27Q13.61-1.25 13.62-1.23L13.62-1.23L13.62-1.23Q13.63-1.21 13.66-1.21L13.66-1.21L16.37-1.21L16.37-1.21Q16.42-1.21 16.46-1.18L16.46-1.18L16.46-1.18Q16.49-1.14 16.49-1.09L16.49-1.09L16.49-0.12L16.49-0.12Q16.49-0.07 16.46-0.04L16.46-0.04L16.46-0.04Q16.42 0 16.37 0L16.37 0L11.87 0L11.87 0Q11.82 0 11.79-0.04L11.79-0.04L11.79-0.04Q11.75-0.07 11.75-0.12L11.75-0.12L11.75-1.04L11.75-1.04Q11.75-1.13 11.81-1.19L11.81-1.19L11.81-1.19Q12.30-1.67 12.81-2.23L12.81-2.23L12.81-2.23Q13.32-2.80 13.45-2.94L13.45-2.94L13.45-2.94Q13.73-3.27 14.02-3.57L14.02-3.57L14.02-3.57Q14.93-4.58 14.93-5.07L14.93-5.07L14.93-5.07Q14.93-5.42 14.68-5.65L14.68-5.65L14.68-5.65Q14.43-5.87 14.03-5.87L14.03-5.87L14.03-5.87Q13.63-5.87 13.38-5.65L13.38-5.65L13.38-5.65Q13.13-5.42 13.13-5.05L13.13-5.05L13.13-4.80L13.13-4.80Q13.13-4.75 13.10-4.71L13.10-4.71L13.10-4.71Q13.06-4.68 13.01-4.68L13.01-4.68L11.83-4.68L11.83-4.68Q11.78-4.68 11.75-4.71L11.75-4.71L11.75-4.71Q11.71-4.75 11.71-4.80L11.71-4.80L11.71-5.27L11.71-5.27Q11.74-5.81 12.05-6.23L12.05-6.23L12.05-6.23Q12.36-6.64 12.88-6.86L12.88-6.86L12.88-6.86Q13.39-7.08 14.03-7.08L14.03-7.08L14.03-7.08Q14.74-7.08 15.27-6.82L15.27-6.82L15.27-6.82Q15.79-6.55 16.08-6.10L16.08-6.10L16.08-6.10Q16.36-5.65 16.36-5.10L16.36-5.10L16.36-5.10Q16.36-4.68 16.15-4.24L16.15-4.24L16.15-4.24Q15.94-3.80 15.52-3.29L15.52-3.29L15.52-3.29Q15.21-2.90 14.85-2.52L14.85-2.52L14.85-2.52Q14.49-2.14 13.78-1.42L13.78-1.42L13.63-1.27ZM19.74 0.11L19.74 0.11Q18.64 0.11 18.00-0.51L18.00-0.51L18.00-0.51Q17.36-1.12 17.36-2.18L17.36-2.18L17.36-4.82L17.36-4.82Q17.36-5.86 18.00-6.47L18.00-6.47L18.00-6.47Q18.64-7.08 19.74-7.08L19.74-7.08L19.74-7.08Q20.84-7.08 21.49-6.47L21.49-6.47L21.49-6.47Q22.13-5.86 22.13-4.82L22.13-4.82L22.13-2.18L22.13-2.18Q22.13-1.12 21.49-0.51L21.49-0.51L21.49-0.51Q20.84 0.11 19.74 0.11L19.74 0.11ZM19.74-1.10L19.74-1.10Q20.19-1.10 20.46-1.38L20.46-1.38L20.46-1.38Q20.72-1.65 20.72-2.11L20.72-2.11L20.72-4.86L20.72-4.86Q20.72-5.32 20.46-5.59L20.46-5.59L20.46-5.59Q20.19-5.87 19.74-5.87L19.74-5.87L19.74-5.87Q19.30-5.87 19.04-5.59L19.04-5.59L19.04-5.59Q18.77-5.32 18.77-4.86L18.77-4.86L18.77-2.11L18.77-2.11Q18.77-1.65 19.04-1.38L19.04-1.38L19.04-1.38Q19.30-1.10 19.74-1.10L19.74-1.10Z"/></g>
</svg>
