<svg xmlns="http://www.w3.org/2000/svg" xmlns:xlink="http://www.w3.org/1999/xlink" viewBox="0 0 94 122">
  <g id="container">
    <path fill="#fff" d="M8.1 89.9L47.6 110l38-20.1V11.3H8.1z"/>
    <path fill="#f2f3f2" d="M86.4 11.6L7.3 91.3l41 20.3 38.1-19.5z"/>
    <path d="M5.5 37.5v54.1l1.4.7 39.5 20.1 1.2.6 1.2-.6 38.1-20.1 1.4-.7V8.7H5.5v28.8zm2.6 52.6V11.3h77.6v78.8l-38.1 20.1L8.1 90.1z" fill="#dcdedc"/>
    <path id="logo" d="M46.9 12.6c.4 0 .8 0 1.2.1L46.9 15c-1.8-.1-3.4 1.3-3.5 3.1-.1 1.8 1.3 3.4 3.1 3.5h.4c.8 0 1.6-.3 2.2-.8l1.3 2.2c-1 .7-2.2 1.1-3.5 1.1-3.2.1-5.9-2.3-6-5.5-.1-3.2 2.3-5.9 5.5-6h.5zm4.1 4.9l1.5 2.5-1.5 2.4-1.4-2.4h-2.9l1.5-2.5H51zm-2.4-.9c0-.4.1-.8.3-1.1.2-.3.6-.6.9-.8l.2-.1c.4-.2.5-.3.5-.5s-.3-.4-.5-.4c-.4 0-.7.2-.9.6l-.5-.5c.1-.2.3-.4.5-.6.3-.2.6-.2.9-.2.3 0 .7.1.9.3.2.2.4.5.4.8 0 .5-.3.9-.9 1.1l-.3.2c-.3.2-.5.3-.6.6h1.8v.7l-2.7-.1zm-1.7 12.5l9.5-5.4v-15H37.3v14.9l9.6 5.5z" fill="#ff492c"/>
    <path id="banner" d="M90.2 64.5H3.6l-3.2 7 3.2 7h86.6l3.1-7z" fill="#2690ce"/>
  <path fill="#252530" transform="translate(22.36, 60)" d="M6.07 0L6.07 0Q5.95 0 5.92-0.12L5.92-0.12L5.56-1.30L5.56-1.30Q5.53-1.34 5.50-1.34L5.50-1.34L2.54-1.34L2.54-1.34Q2.51-1.34 2.48-1.30L2.48-1.30L2.14-0.12L2.14-0.12Q2.10 0 1.98 0L1.98 0L0.46 0L0.46 0Q0.38 0 0.35-0.04L0.35-0.04L0.35-0.04Q0.31-0.08 0.34-0.17L0.34-0.17L2.93-8.28L2.93-8.28Q2.96-8.40 3.08-8.40L3.08-8.40L4.97-8.40L4.97-8.40Q5.09-8.40 5.12-8.28L5.12-8.28L7.72-0.17L7.72-0.17Q7.73-0.14 7.73-0.11L7.73-0.11L7.73-0.11Q7.73 0 7.60 0L7.60 0L6.07 0ZM2.92-2.72L2.92-2.72Q2.90-2.65 2.96-2.65L2.96-2.65L5.08-2.65L5.08-2.65Q5.15-2.65 5.12-2.72L5.12-2.72L4.04-6.29L4.04-6.29Q4.03-6.34 4.01-6.33L4.01-6.33L4.01-6.33Q3.98-6.32 3.97-6.29L3.97-6.29L2.92-2.72ZM12.50-8.26L12.50-8.26Q12.50-8.32 12.55-8.36L12.55-8.36L12.55-8.36Q12.59-8.40 12.65-8.40L12.65-8.40L14.05-8.40L14.05-8.40Q14.11-8.40 14.15-8.36L14.15-8.36L14.15-8.36Q14.20-8.32 14.20-8.26L14.20-8.26L14.20-0.14L14.20-0.14Q14.20-0.08 14.15-0.04L14.15-0.04L14.15-0.04Q14.11 0 14.05 0L14.05 0L12.65 0L12.65 0Q12.59 0 12.55-0.04L12.55-0.04L12.55-0.04Q12.50-0.08 12.50-0.14L12.50-0.14L12.50-0.54L12.50-0.54Q12.50-0.58 12.48-0.58L12.48-0.58L12.48-0.58Q12.46-0.59 12.43-0.56L12.43-0.56L12.43-0.56Q11.93 0.10 11.05 0.10L11.05 0.10L11.05 0.10Q10.21 0.10 9.61-0.37L9.61-0.37L9.61-0.37Q9-0.84 8.74-1.66L8.74-1.66L8.74-1.66Q8.53-2.28 8.53-3.11L8.53-3.11L8.53-3.11Q8.53-3.96 8.75-4.60L8.75-4.60L8.75-4.60Q9.02-5.36 9.62-5.81L9.62-5.81L9.62-5.81Q10.21-6.26 11.09-6.26L11.09-6.26L11.09-6.26Q11.95-6.26 12.43-5.66L12.43-5.66L12.43-5.66Q12.46-5.63 12.48-5.64L12.48-5.64L12.48-5.64Q12.50-5.65 12.50-5.69L12.50-5.69L12.50-8.26ZM12.25-1.87L12.25-1.87Q12.49-2.32 12.49-3.08L12.49-3.08L12.49-3.08Q12.49-3.89 12.23-4.34L12.23-4.34L12.23-4.34Q11.95-4.81 11.42-4.81L11.42-4.81L11.42-4.81Q10.86-4.81 10.57-4.34L10.57-4.34L10.57-4.34Q10.27-3.88 10.27-3.07L10.27-3.07L10.27-3.07Q10.27-2.35 10.52-1.87L10.52-1.87L10.52-1.87Q10.82-1.36 11.41-1.36L11.41-1.36L11.41-1.36Q11.95-1.36 12.25-1.87L12.25-1.87ZM18.19 0.10L18.19 0.10Q17.18 0.10 16.46-0.43L16.46-0.43L16.46-0.43Q15.74-0.96 15.48-1.87L15.48-1.87L15.48-1.87Q15.31-2.44 15.31-3.10L15.31-3.10L15.31-3.10Q15.31-3.80 15.48-4.37L15.48-4.37L15.48-4.37Q15.76-5.26 16.48-5.76L16.48-5.76L16.48-5.76Q17.20-6.26 18.20-6.26L18.20-6.26L18.20-6.26Q19.19-6.26 19.88-5.77L19.88-5.77L19.88-5.77Q20.58-5.27 20.87-4.38L20.87-4.38L20.87-4.38Q21.06-3.78 21.06-3.12L21.06-3.12L21.06-3.12Q21.06-2.47 20.89-1.91L20.89-1.91L20.89-1.91Q20.63-0.97 19.91-0.44L19.91-0.44L19.91-0.44Q19.20 0.10 18.19 0.10L18.19 0.10ZM18.19-1.36L18.19-1.36Q18.59-1.36 18.86-1.60L18.86-1.60L18.86-1.60Q19.14-1.84 19.26-2.26L19.26-2.26L19.26-2.26Q19.36-2.64 19.36-3.10L19.36-3.10L19.36-3.10Q19.36-3.60 19.26-3.95L19.26-3.95L19.26-3.95Q19.13-4.36 18.85-4.58L18.85-4.58L18.85-4.58Q18.58-4.81 18.18-4.81L18.18-4.81L18.18-4.81Q17.77-4.81 17.50-4.58L17.50-4.58L17.50-4.58Q17.23-4.36 17.11-3.95L17.11-3.95L17.11-3.95Q17.02-3.66 17.02-3.10L17.02-3.10L17.02-3.10Q17.02-2.56 17.10-2.26L17.10-2.26L17.10-2.26Q17.22-1.84 17.50-1.60L17.50-1.60L17.50-1.60Q17.78-1.36 18.19-1.36L18.19-1.36ZM27.66-4.51L27.66-4.51Q27.88-3.90 27.88-3.07L27.88-3.07L27.88-3.07Q27.88-2.24 27.65-1.57L27.65-1.57L27.65-1.57Q27.37-0.80 26.78-0.35L26.78-0.35L26.78-0.35Q26.18 0.10 25.31 0.10L25.31 0.10L25.31 0.10Q24.44 0.10 23.96-0.50L23.96-0.50L23.96-0.50Q23.94-0.54 23.92-0.53L23.92-0.53L23.92-0.53Q23.89-0.52 23.89-0.48L23.89-0.48L23.89 2.09L23.89 2.09Q23.89 2.15 23.85 2.19L23.85 2.19L23.85 2.19Q23.81 2.23 23.75 2.23L23.75 2.23L22.34 2.23L22.34 2.23Q22.28 2.23 22.24 2.19L22.24 2.19L22.24 2.19Q22.20 2.15 22.20 2.09L22.20 2.09L22.20-6.02L22.20-6.02Q22.20-6.08 22.24-6.13L22.24-6.13L22.24-6.13Q22.28-6.17 22.34-6.17L22.34-6.17L23.75-6.17L23.75-6.17Q23.81-6.17 23.85-6.13L23.85-6.13L23.85-6.13Q23.89-6.08 23.89-6.02L23.89-6.02L23.89-5.63L23.89-5.63Q23.89-5.59 23.92-5.59L23.92-5.59L23.92-5.59Q23.94-5.58 23.96-5.60L23.96-5.60L23.96-5.60Q24.47-6.26 25.36-6.26L25.36-6.26L25.36-6.26Q26.18-6.26 26.79-5.80L26.79-5.80L26.79-5.80Q27.40-5.34 27.66-4.51L27.66-4.51ZM25.82-1.82L25.82-1.82Q26.12-2.29 26.12-3.10L26.12-3.10L26.12-3.10Q26.12-3.85 25.87-4.30L25.87-4.30L25.87-4.30Q25.60-4.81 24.98-4.81L24.98-4.81L24.98-4.81Q24.43-4.81 24.16-4.30L24.16-4.30L24.16-4.30Q23.90-3.86 23.90-3.08L23.90-3.08L23.90-3.08Q23.90-2.28 24.17-1.84L24.17-1.84L24.17-1.84Q24.44-1.36 24.98-1.36L24.98-1.36L24.98-1.36Q25.52-1.36 25.82-1.82L25.82-1.82ZM32.51-4.96L32.51-4.96Q32.51-4.90 32.47-4.85L32.47-4.85L32.47-4.85Q32.42-4.81 32.36-4.81L32.36-4.81L31.21-4.81L31.21-4.81Q31.15-4.81 31.15-4.75L31.15-4.75L31.15-2.21L31.15-2.21Q31.15-1.81 31.31-1.62L31.31-1.62L31.31-1.62Q31.48-1.43 31.84-1.43L31.84-1.43L32.23-1.43L32.23-1.43Q32.29-1.43 32.33-1.39L32.33-1.39L32.33-1.39Q32.38-1.34 32.38-1.28L32.38-1.28L32.38-0.14L32.38-0.14Q32.38-0.01 32.23 0.01L32.23 0.01L32.23 0.01Q31.73 0.04 31.51 0.04L31.51 0.04L31.51 0.04Q30.52 0.04 30.02-0.29L30.02-0.29L30.02-0.29Q29.53-0.62 29.52-1.54L29.52-1.54L29.52-4.75L29.52-4.75Q29.52-4.81 29.46-4.81L29.46-4.81L28.78-4.81L28.78-4.81Q28.72-4.81 28.67-4.85L28.67-4.85L28.67-4.85Q28.63-4.90 28.63-4.96L28.63-4.96L28.63-6.02L28.63-6.02Q28.63-6.08 28.67-6.13L28.67-6.13L28.67-6.13Q28.72-6.17 28.78-6.17L28.78-6.17L29.46-6.17L29.46-6.17Q29.52-6.17 29.52-6.23L29.52-6.23L29.52-7.66L29.52-7.66Q29.52-7.72 29.56-7.76L29.56-7.76L29.56-7.76Q29.60-7.80 29.66-7.80L29.66-7.80L31.01-7.80L31.01-7.80Q31.07-7.80 31.11-7.76L31.11-7.76L31.11-7.76Q31.15-7.72 31.15-7.66L31.15-7.66L31.15-6.23L31.15-6.23Q31.15-6.17 31.21-6.17L31.21-6.17L32.36-6.17L32.36-6.17Q32.42-6.17 32.47-6.13L32.47-6.13L32.47-6.13Q32.51-6.08 32.51-6.02L32.51-6.02L32.51-4.96ZM34.44-6.86L34.44-6.86Q34.03-6.86 33.76-7.13L33.76-7.13L33.76-7.13Q33.49-7.40 33.49-7.81L33.49-7.81L33.49-7.81Q33.49-8.23 33.76-8.50L33.76-8.50L33.76-8.50Q34.02-8.76 34.44-8.76L34.44-8.76L34.44-8.76Q34.86-8.76 35.12-8.50L35.12-8.50L35.12-8.50Q35.39-8.23 35.39-7.81L35.39-7.81L35.39-7.81Q35.39-7.40 35.12-7.13L35.12-7.13L35.12-7.13Q34.85-6.86 34.44-6.86L34.44-6.86ZM33.72 0L33.72 0Q33.66 0 33.62-0.04L33.62-0.04L33.62-0.04Q33.58-0.08 33.58-0.14L33.58-0.14L33.58-6.04L33.58-6.04Q33.58-6.10 33.62-6.14L33.62-6.14L33.62-6.14Q33.66-6.18 33.72-6.18L33.72-6.18L35.12-6.18L35.12-6.18Q35.18-6.18 35.23-6.14L35.23-6.14L35.23-6.14Q35.27-6.10 35.27-6.04L35.27-6.04L35.27-0.14L35.27-0.14Q35.27-0.08 35.23-0.04L35.23-0.04L35.23-0.04Q35.18 0 35.12 0L35.12 0L33.72 0ZM39.31 0.10L39.31 0.10Q38.30 0.10 37.58-0.43L37.58-0.43L37.58-0.43Q36.86-0.96 36.60-1.87L36.60-1.87L36.60-1.87Q36.43-2.44 36.43-3.10L36.43-3.10L36.43-3.10Q36.43-3.80 36.60-4.37L36.60-4.37L36.60-4.37Q36.88-5.26 37.60-5.76L37.60-5.76L37.60-5.76Q38.32-6.26 39.32-6.26L39.32-6.26L39.32-6.26Q40.31-6.26 41.00-5.77L41.00-5.77L41.00-5.77Q41.70-5.27 41.99-4.38L41.99-4.38L41.99-4.38Q42.18-3.78 42.18-3.12L42.18-3.12L42.18-3.12Q42.18-2.47 42.01-1.91L42.01-1.91L42.01-1.91Q41.75-0.97 41.03-0.44L41.03-0.44L41.03-0.44Q40.32 0.10 39.31 0.10L39.31 0.10ZM39.31-1.36L39.31-1.36Q39.71-1.36 39.98-1.60L39.98-1.60L39.98-1.60Q40.26-1.84 40.38-2.26L40.38-2.26L40.38-2.26Q40.48-2.64 40.48-3.10L40.48-3.10L40.48-3.10Q40.48-3.60 40.38-3.95L40.38-3.95L40.38-3.95Q40.25-4.36 39.97-4.58L39.97-4.58L39.97-4.58Q39.70-4.81 39.30-4.81L39.30-4.81L39.30-4.81Q38.89-4.81 38.62-4.58L38.62-4.58L38.62-4.58Q38.35-4.36 38.23-3.95L38.23-3.95L38.23-3.95Q38.14-3.66 38.14-3.10L38.14-3.10L38.14-3.10Q38.14-2.56 38.22-2.26L38.22-2.26L38.22-2.26Q38.34-1.84 38.62-1.60L38.62-1.60L38.62-1.60Q38.90-1.36 39.31-1.36L39.31-1.36ZM46.49-6.26L46.49-6.26Q47.45-6.26 48.04-5.68L48.04-5.68L48.04-5.68Q48.62-5.09 48.62-4.08L48.62-4.08L48.62-0.14L48.62-0.14Q48.62-0.08 48.58-0.04L48.58-0.04L48.58-0.04Q48.54 0 48.48 0L48.48 0L47.08 0L47.08 0Q47.02 0 46.97-0.04L46.97-0.04L46.97-0.04Q46.93-0.08 46.93-0.14L46.93-0.14L46.93-3.73L46.93-3.73Q46.93-4.21 46.66-4.51L46.66-4.51L46.66-4.51Q46.39-4.81 45.95-4.81L45.95-4.81L45.95-4.81Q45.50-4.81 45.23-4.51L45.23-4.51L45.23-4.51Q44.96-4.21 44.96-3.73L44.96-3.73L44.96-0.14L44.96-0.14Q44.96-0.08 44.92-0.04L44.92-0.04L44.92-0.04Q44.88 0 44.82 0L44.82 0L43.42 0L43.42 0Q43.36 0 43.31-0.04L43.31-0.04L43.31-0.04Q43.27-0.08 43.27-0.14L43.27-0.14L43.27-6.02L43.27-6.02Q43.27-6.08 43.31-6.13L43.31-6.13L43.31-6.13Q43.36-6.17 43.42-6.17L43.42-6.17L44.82-6.17L44.82-6.17Q44.88-6.17 44.92-6.13L44.92-6.13L44.92-6.13Q44.96-6.08 44.96-6.02L44.96-6.02L44.96-5.60L44.96-5.60Q44.96-5.57 44.99-5.56L44.99-5.56L44.99-5.56Q45.01-5.54 45.02-5.57L45.02-5.57L45.02-5.57Q45.52-6.26 46.49-6.26L46.49-6.26Z"/><path fill="#252530" transform="translate(12.29, 48)" d="M5.20-8.26L5.20-8.26Q5.20-8.32 5.24-8.36L5.24-8.36L5.24-8.36Q5.28-8.40 5.34-8.40L5.34-8.40L6.74-8.40L6.74-8.40Q6.80-8.40 6.85-8.36L6.85-8.36L6.85-8.36Q6.89-8.32 6.89-8.26L6.89-8.26L6.89-0.14L6.89-0.14Q6.89-0.08 6.85-0.04L6.85-0.04L6.85-0.04Q6.80 0 6.74 0L6.74 0L5.34 0L5.34 0Q5.28 0 5.24-0.04L5.24-0.04L5.24-0.04Q5.20-0.08 5.20-0.14L5.20-0.14L5.20-3.46L5.20-3.46Q5.20-3.52 5.14-3.52L5.14-3.52L2.48-3.52L2.48-3.52Q2.42-3.52 2.42-3.46L2.42-3.46L2.42-0.14L2.42-0.14Q2.42-0.08 2.38-0.04L2.38-0.04L2.38-0.04Q2.34 0 2.28 0L2.28 0L0.88 0L0.88 0Q0.82 0 0.77-0.04L0.77-0.04L0.77-0.04Q0.73-0.08 0.73-0.14L0.73-0.14L0.73-8.26L0.73-8.26Q0.73-8.32 0.77-8.36L0.77-8.36L0.77-8.36Q0.82-8.40 0.88-8.40L0.88-8.40L2.28-8.40L2.28-8.40Q2.34-8.40 2.38-8.36L2.38-8.36L2.38-8.36Q2.42-8.32 2.42-8.26L2.42-8.26L2.42-5.03L2.42-5.03Q2.42-4.97 2.48-4.97L2.48-4.97L5.14-4.97L5.14-4.97Q5.20-4.97 5.20-5.03L5.20-5.03L5.20-8.26ZM9.07-6.86L9.07-6.86Q8.66-6.86 8.39-7.13L8.39-7.13L8.39-7.13Q8.12-7.40 8.12-7.81L8.12-7.81L8.12-7.81Q8.12-8.23 8.39-8.50L8.39-8.50L8.39-8.50Q8.65-8.76 9.07-8.76L9.07-8.76L9.07-8.76Q9.49-8.76 9.76-8.50L9.76-8.50L9.76-8.50Q10.02-8.23 10.02-7.81L10.02-7.81L10.02-7.81Q10.02-7.40 9.75-7.13L9.75-7.13L9.75-7.13Q9.48-6.86 9.07-6.86L9.07-6.86ZM8.35 0L8.35 0Q8.29 0 8.25-0.04L8.25-0.04L8.25-0.04Q8.21-0.08 8.21-0.14L8.21-0.14L8.21-6.04L8.21-6.04Q8.21-6.10 8.25-6.14L8.25-6.14L8.25-6.14Q8.29-6.18 8.35-6.18L8.35-6.18L9.76-6.18L9.76-6.18Q9.82-6.18 9.86-6.14L9.86-6.14L9.86-6.14Q9.90-6.10 9.90-6.04L9.90-6.04L9.90-0.14L9.90-0.14Q9.90-0.08 9.86-0.04L9.86-0.04L9.86-0.04Q9.82 0 9.76 0L9.76 0L8.35 0ZM14.99-6.02L14.99-6.02Q14.99-6.08 15.03-6.13L15.03-6.13L15.03-6.13Q15.07-6.17 15.13-6.17L15.13-6.17L16.54-6.17L16.54-6.17Q16.60-6.17 16.64-6.13L16.64-6.13L16.64-6.13Q16.68-6.08 16.68-6.02L16.68-6.02L16.68-0.55L16.68-0.55Q16.68 1.02 15.77 1.69L15.77 1.69L15.77 1.69Q14.87 2.36 13.44 2.36L13.44 2.36L13.44 2.36Q13.02 2.36 12.50 2.30L12.50 2.30L12.50 2.30Q12.38 2.29 12.38 2.15L12.38 2.15L12.43 0.91L12.43 0.91Q12.43 0.76 12.60 0.78L12.60 0.78L12.60 0.78Q13.03 0.85 13.39 0.85L13.39 0.85L13.39 0.85Q14.16 0.85 14.57 0.52L14.57 0.52L14.57 0.52Q14.99 0.18 14.99-0.56L14.99-0.56L14.99-0.56Q14.99-0.60 14.96-0.61L14.96-0.61L14.96-0.61Q14.94-0.61 14.92-0.59L14.92-0.59L14.92-0.59Q14.46-0.10 13.58-0.10L13.58-0.10L13.58-0.10Q12.80-0.10 12.15-0.47L12.15-0.47L12.15-0.47Q11.50-0.85 11.22-1.69L11.22-1.69L11.22-1.69Q11.04-2.24 11.04-3.12L11.04-3.12L11.04-3.12Q11.04-4.06 11.26-4.64L11.26-4.64L11.26-4.64Q11.51-5.38 12.11-5.82L12.11-5.82L12.11-5.82Q12.71-6.26 13.50-6.26L13.50-6.26L13.50-6.26Q14.42-6.26 14.92-5.71L14.92-5.71L14.92-5.71Q14.94-5.69 14.96-5.69L14.96-5.69L14.96-5.69Q14.99-5.70 14.99-5.74L14.99-5.74L14.99-6.02ZM14.89-2.15L14.89-2.15Q14.99-2.51 14.99-3.13L14.99-3.13L14.99-3.13Q14.99-3.50 14.96-3.71L14.96-3.71L14.96-3.71Q14.94-3.91 14.88-4.09L14.88-4.09L14.88-4.09Q14.77-4.42 14.52-4.61L14.52-4.61L14.52-4.61Q14.27-4.81 13.90-4.81L13.90-4.81L13.90-4.81Q13.54-4.81 13.28-4.61L13.28-4.61L13.28-4.61Q13.03-4.42 12.91-4.09L12.91-4.09L12.91-4.09Q12.74-3.73 12.74-3.12L12.74-3.12L12.74-3.12Q12.74-2.45 12.89-2.16L12.89-2.16L12.89-2.16Q13.00-1.84 13.27-1.64L13.27-1.64L13.27-1.64Q13.54-1.44 13.91-1.44L13.91-1.44L13.91-1.44Q14.29-1.44 14.54-1.64L14.54-1.64L14.54-1.64Q14.80-1.84 14.89-2.15L14.89-2.15ZM21.11-6.26L21.11-6.26Q22.07-6.26 22.66-5.68L22.66-5.68L22.66-5.68Q23.24-5.09 23.24-4.08L23.24-4.08L23.24-0.14L23.24-0.14Q23.24-0.08 23.20-0.04L23.20-0.04L23.20-0.04Q23.16 0 23.10 0L23.10 0L21.70 0L21.70 0Q21.64 0 21.59-0.04L21.59-0.04L21.59-0.04Q21.55-0.08 21.55-0.14L21.55-0.14L21.55-3.73L21.55-3.73Q21.55-4.21 21.28-4.51L21.28-4.51L21.28-4.51Q21.01-4.81 20.57-4.81L20.57-4.81L20.57-4.81Q20.12-4.81 19.85-4.51L19.85-4.51L19.85-4.51Q19.58-4.21 19.58-3.73L19.58-3.73L19.58-0.14L19.58-0.14Q19.58-0.08 19.54-0.04L19.54-0.04L19.54-0.04Q19.50 0 19.44 0L19.44 0L18.04 0L18.04 0Q17.98 0 17.93-0.04L17.93-0.04L17.93-0.04Q17.89-0.08 17.89-0.14L17.89-0.14L17.89-8.26L17.89-8.26Q17.89-8.32 17.93-8.36L17.93-8.36L17.93-8.36Q17.98-8.40 18.04-8.40L18.04-8.40L19.44-8.40L19.44-8.40Q19.50-8.40 19.54-8.36L19.54-8.36L19.54-8.36Q19.58-8.32 19.58-8.26L19.58-8.26L19.58-5.60L19.58-5.60Q19.58-5.57 19.61-5.56L19.61-5.56L19.61-5.56Q19.63-5.54 19.64-5.57L19.64-5.57L19.64-5.57Q20.14-6.26 21.11-6.26L21.11-6.26ZM29.92-3.72L29.92-3.72Q29.99-3.26 29.96-2.70L29.96-2.70L29.96-2.70Q29.95-2.56 29.81-2.56L29.81-2.56L26.10-2.56L26.10-2.56Q26.03-2.56 26.05-2.50L26.05-2.50L26.05-2.50Q26.09-2.26 26.18-2.02L26.18-2.02L26.18-2.02Q26.50-1.34 27.46-1.34L27.46-1.34L27.46-1.34Q28.22-1.36 28.67-1.97L28.67-1.97L28.67-1.97Q28.72-2.04 28.78-2.04L28.78-2.04L28.78-2.04Q28.81-2.04 28.86-1.99L28.86-1.99L29.72-1.14L29.72-1.14Q29.78-1.08 29.78-1.03L29.78-1.03L29.78-1.03Q29.78-1.01 29.74-0.94L29.74-0.94L29.74-0.94Q29.34-0.44 28.72-0.17L28.72-0.17L28.72-0.17Q28.09 0.10 27.35 0.10L27.35 0.10L27.35 0.10Q26.32 0.10 25.60-0.37L25.60-0.37L25.60-0.37Q24.89-0.84 24.58-1.68L24.58-1.68L24.58-1.68Q24.32-2.28 24.32-3.25L24.32-3.25L24.32-3.25Q24.32-3.91 24.50-4.42L24.50-4.42L24.50-4.42Q24.78-5.27 25.47-5.77L25.47-5.77L25.47-5.77Q26.16-6.28 27.11-6.28L27.11-6.28L27.11-6.28Q28.31-6.28 29.03-5.58L29.03-5.58L29.03-5.58Q29.76-4.88 29.92-3.72L29.92-3.72ZM27.12-4.81L27.12-4.81Q26.36-4.81 26.12-4.10L26.12-4.10L26.12-4.10Q26.08-3.95 26.04-3.72L26.04-3.72L26.04-3.72Q26.04-3.66 26.10-3.66L26.10-3.66L28.18-3.66L28.18-3.66Q28.25-3.66 28.22-3.72L28.22-3.72L28.22-3.72Q28.16-4.07 28.16-4.06L28.16-4.06L28.16-4.06Q28.06-4.42 27.79-4.61L27.79-4.61L27.79-4.61Q27.52-4.81 27.12-4.81L27.12-4.81ZM33.47 0.08L33.47 0.08Q32.66 0.08 32.06-0.14L32.06-0.14L32.06-0.14Q31.46-0.37 31.13-0.78L31.13-0.78L31.13-0.78Q30.80-1.19 30.80-1.70L30.80-1.70L30.80-1.82L30.80-1.82Q30.80-1.88 30.85-1.93L30.85-1.93L30.85-1.93Q30.89-1.97 30.95-1.97L30.95-1.97L32.28-1.97L32.28-1.97Q32.34-1.97 32.38-1.93L32.38-1.93L32.38-1.93Q32.42-1.88 32.42-1.82L32.42-1.82L32.42-1.81L32.42-1.81Q32.42-1.55 32.72-1.36L32.72-1.36L32.72-1.36Q33.01-1.18 33.46-1.18L33.46-1.18L33.46-1.18Q33.86-1.18 34.12-1.34L34.12-1.34L34.12-1.34Q34.37-1.50 34.37-1.74L34.37-1.74L34.37-1.74Q34.37-1.96 34.15-2.06L34.15-2.06L34.15-2.06Q33.94-2.17 33.44-2.29L33.44-2.29L33.44-2.29Q32.88-2.44 32.56-2.57L32.56-2.57L32.56-2.57Q31.79-2.83 31.33-3.22L31.33-3.22L31.33-3.22Q30.88-3.60 30.88-4.32L30.88-4.32L30.88-4.32Q30.88-5.21 31.57-5.73L31.57-5.73L31.57-5.73Q32.26-6.25 33.40-6.25L33.40-6.25L33.40-6.25Q34.16-6.25 34.74-6.01L34.74-6.01L34.74-6.01Q35.32-5.76 35.63-5.32L35.63-5.32L35.63-5.32Q35.95-4.87 35.95-4.31L35.95-4.31L35.95-4.31Q35.95-4.25 35.91-4.21L35.91-4.21L35.91-4.21Q35.87-4.16 35.81-4.16L35.81-4.16L34.52-4.16L34.52-4.16Q34.46-4.16 34.42-4.21L34.42-4.21L34.42-4.21Q34.38-4.25 34.38-4.31L34.38-4.31L34.38-4.31Q34.38-4.57 34.11-4.75L34.11-4.75L34.11-4.75Q33.84-4.93 33.40-4.93L33.40-4.93L33.40-4.93Q33-4.93 32.75-4.79L32.75-4.79L32.75-4.79Q32.50-4.64 32.50-4.39L32.50-4.39L32.50-4.39Q32.50-4.15 32.74-4.03L32.74-4.03L32.74-4.03Q32.99-3.91 33.56-3.78L33.56-3.78L33.56-3.78Q33.70-3.74 33.86-3.70L33.86-3.70L33.86-3.70Q34.03-3.66 34.22-3.60L34.22-3.60L34.22-3.60Q35.08-3.35 35.57-2.95L35.57-2.95L35.57-2.95Q36.06-2.56 36.06-1.80L36.06-1.80L36.06-1.80Q36.06-0.91 35.36-0.41L35.36-0.41L35.36-0.41Q34.66 0.08 33.47 0.08L33.47 0.08ZM40.57-4.96L40.57-4.96Q40.57-4.90 40.53-4.85L40.53-4.85L40.53-4.85Q40.49-4.81 40.43-4.81L40.43-4.81L39.28-4.81L39.28-4.81Q39.22-4.81 39.22-4.75L39.22-4.75L39.22-2.21L39.22-2.21Q39.22-1.81 39.38-1.62L39.38-1.62L39.38-1.62Q39.54-1.43 39.90-1.43L39.90-1.43L40.30-1.43L40.30-1.43Q40.36-1.43 40.40-1.39L40.40-1.39L40.40-1.39Q40.44-1.34 40.44-1.28L40.44-1.28L40.44-0.14L40.44-0.14Q40.44-0.01 40.30 0.01L40.30 0.01L40.30 0.01Q39.79 0.04 39.58 0.04L39.58 0.04L39.58 0.04Q38.58 0.04 38.09-0.29L38.09-0.29L38.09-0.29Q37.60-0.62 37.58-1.54L37.58-1.54L37.58-4.75L37.58-4.75Q37.58-4.81 37.52-4.81L37.52-4.81L36.84-4.81L36.84-4.81Q36.78-4.81 36.74-4.85L36.74-4.85L36.74-4.85Q36.70-4.90 36.70-4.96L36.70-4.96L36.70-6.02L36.70-6.02Q36.70-6.08 36.74-6.13L36.74-6.13L36.74-6.13Q36.78-6.17 36.84-6.17L36.84-6.17L37.52-6.17L37.52-6.17Q37.58-6.17 37.58-6.23L37.58-6.23L37.58-7.66L37.58-7.66Q37.58-7.72 37.63-7.76L37.63-7.76L37.63-7.76Q37.67-7.80 37.73-7.80L37.73-7.80L39.07-7.80L39.07-7.80Q39.13-7.80 39.17-7.76L39.17-7.76L39.17-7.76Q39.22-7.72 39.22-7.66L39.22-7.66L39.22-6.23L39.22-6.23Q39.22-6.17 39.28-6.17L39.28-6.17L40.43-6.17L40.43-6.17Q40.49-6.17 40.53-6.13L40.53-6.13L40.53-6.13Q40.57-6.08 40.57-6.02L40.57-6.02L40.57-4.96ZM47.15 0.10L47.15 0.10Q46.22 0.10 45.52-0.26L45.52-0.26L45.52-0.26Q44.82-0.62 44.43-1.28L44.43-1.28L44.43-1.28Q44.04-1.93 44.04-2.78L44.04-2.78L44.04-8.26L44.04-8.26Q44.04-8.32 44.08-8.36L44.08-8.36L44.08-8.36Q44.12-8.40 44.18-8.40L44.18-8.40L45.59-8.40L45.59-8.40Q45.65-8.40 45.69-8.36L45.69-8.36L45.69-8.36Q45.73-8.32 45.73-8.26L45.73-8.26L45.73-2.77L45.73-2.77Q45.73-2.14 46.12-1.75L46.12-1.75L46.12-1.75Q46.51-1.36 47.15-1.36L47.15-1.36L47.15-1.36Q47.78-1.36 48.17-1.75L48.17-1.75L48.17-1.75Q48.56-2.14 48.56-2.77L48.56-2.77L48.56-8.26L48.56-8.26Q48.56-8.32 48.61-8.36L48.61-8.36L48.61-8.36Q48.65-8.40 48.71-8.40L48.71-8.40L50.11-8.40L50.11-8.40Q50.17-8.40 50.21-8.36L50.21-8.36L50.21-8.36Q50.26-8.32 50.26-8.26L50.26-8.26L50.26-2.78L50.26-2.78Q50.26-1.93 49.87-1.28L49.87-1.28L49.87-1.28Q49.48-0.62 48.77-0.26L48.77-0.26L48.77-0.26Q48.07 0.10 47.15 0.10L47.15 0.10ZM54.00 0.08L54.00 0.08Q53.20 0.08 52.60-0.14L52.60-0.14L52.60-0.14Q52.00-0.37 51.67-0.78L51.67-0.78L51.67-0.78Q51.34-1.19 51.34-1.70L51.34-1.70L51.34-1.82L51.34-1.82Q51.34-1.88 51.38-1.93L51.38-1.93L51.38-1.93Q51.42-1.97 51.48-1.97L51.48-1.97L52.81-1.97L52.81-1.97Q52.87-1.97 52.91-1.93L52.91-1.93L52.91-1.93Q52.96-1.88 52.96-1.82L52.96-1.82L52.96-1.81L52.96-1.81Q52.96-1.55 53.25-1.36L53.25-1.36L53.25-1.36Q53.54-1.18 53.99-1.18L53.99-1.18L53.99-1.18Q54.40-1.18 54.65-1.34L54.65-1.34L54.65-1.34Q54.90-1.50 54.90-1.74L54.90-1.74L54.90-1.74Q54.90-1.96 54.68-2.06L54.68-2.06L54.68-2.06Q54.47-2.17 53.98-2.29L53.98-2.29L53.98-2.29Q53.41-2.44 53.09-2.57L53.09-2.57L53.09-2.57Q52.32-2.83 51.86-3.22L51.86-3.22L51.86-3.22Q51.41-3.60 51.41-4.32L51.41-4.32L51.41-4.32Q51.41-5.21 52.10-5.73L52.10-5.73L52.10-5.73Q52.79-6.25 53.93-6.25L53.93-6.25L53.93-6.25Q54.70-6.25 55.27-6.01L55.27-6.01L55.27-6.01Q55.85-5.76 56.17-5.32L56.17-5.32L56.17-5.32Q56.48-4.87 56.48-4.31L56.48-4.31L56.48-4.31Q56.48-4.25 56.44-4.21L56.44-4.21L56.44-4.21Q56.40-4.16 56.34-4.16L56.34-4.16L55.06-4.16L55.06-4.16Q55.00-4.16 54.95-4.21L54.95-4.21L54.95-4.21Q54.91-4.25 54.91-4.31L54.91-4.31L54.91-4.31Q54.91-4.57 54.64-4.75L54.64-4.75L54.64-4.75Q54.37-4.93 53.93-4.93L53.93-4.93L53.93-4.93Q53.53-4.93 53.28-4.79L53.28-4.79L53.28-4.79Q53.03-4.64 53.03-4.39L53.03-4.39L53.03-4.39Q53.03-4.15 53.27-4.03L53.27-4.03L53.27-4.03Q53.52-3.91 54.10-3.78L54.10-3.78L54.10-3.78Q54.23-3.74 54.40-3.70L54.40-3.70L54.40-3.70Q54.56-3.66 54.76-3.60L54.76-3.60L54.76-3.60Q55.61-3.35 56.10-2.95L56.10-2.95L56.10-2.95Q56.59-2.56 56.59-1.80L56.59-1.80L56.59-1.80Q56.59-0.91 55.89-0.41L55.89-0.41L55.89-0.41Q55.19 0.08 54.00 0.08L54.00 0.08ZM63.02-3.72L63.02-3.72Q63.10-3.26 63.07-2.70L63.07-2.70L63.07-2.70Q63.06-2.56 62.92-2.56L62.92-2.56L59.21-2.56L59.21-2.56Q59.14-2.56 59.16-2.50L59.16-2.50L59.16-2.50Q59.20-2.26 59.29-2.02L59.29-2.02L59.29-2.02Q59.60-1.34 60.56-1.34L60.56-1.34L60.56-1.34Q61.33-1.36 61.78-1.97L61.78-1.97L61.78-1.97Q61.82-2.04 61.88-2.04L61.88-2.04L61.88-2.04Q61.92-2.04 61.97-1.99L61.97-1.99L62.83-1.14L62.83-1.14Q62.89-1.08 62.89-1.03L62.89-1.03L62.89-1.03Q62.89-1.01 62.84-0.94L62.84-0.94L62.84-0.94Q62.45-0.44 61.82-0.17L61.82-0.17L61.82-0.17Q61.20 0.10 60.46 0.10L60.46 0.10L60.46 0.10Q59.42 0.10 58.71-0.37L58.71-0.37L58.71-0.37Q58.00-0.84 57.68-1.68L57.68-1.68L57.68-1.68Q57.43-2.28 57.43-3.25L57.43-3.25L57.43-3.25Q57.43-3.91 57.61-4.42L57.61-4.42L57.61-4.42Q57.89-5.27 58.58-5.77L58.58-5.77L58.58-5.77Q59.27-6.28 60.22-6.28L60.22-6.28L60.22-6.28Q61.42-6.28 62.14-5.58L62.14-5.58L62.14-5.58Q62.87-4.88 63.02-3.72L63.02-3.72ZM60.23-4.81L60.23-4.81Q59.47-4.81 59.23-4.10L59.23-4.10L59.23-4.10Q59.18-3.95 59.15-3.72L59.15-3.72L59.15-3.72Q59.15-3.66 59.21-3.66L59.21-3.66L61.28-3.66L61.28-3.66Q61.36-3.66 61.33-3.72L61.33-3.72L61.33-3.72Q61.27-4.07 61.27-4.06L61.27-4.06L61.27-4.06Q61.16-4.42 60.89-4.61L60.89-4.61L60.89-4.61Q60.62-4.81 60.23-4.81L60.23-4.81ZM67.19-6.25L67.19-6.25Q67.62-6.25 67.87-6.08L67.87-6.08L67.87-6.08Q67.97-6.04 67.94-5.90L67.94-5.90L67.69-4.54L67.69-4.54Q67.68-4.39 67.52-4.45L67.52-4.45L67.52-4.45Q67.34-4.51 67.10-4.51L67.10-4.51L67.10-4.51Q67.01-4.51 66.84-4.49L66.84-4.49L66.84-4.49Q66.41-4.45 66.11-4.17L66.11-4.17L66.11-4.17Q65.81-3.89 65.81-3.42L65.81-3.42L65.81-0.14L65.81-0.14Q65.81-0.08 65.77-0.04L65.77-0.04L65.77-0.04Q65.72 0 65.66 0L65.66 0L64.26 0L64.26 0Q64.20 0 64.16-0.04L64.16-0.04L64.16-0.04Q64.12-0.08 64.12-0.14L64.12-0.14L64.12-6.02L64.12-6.02Q64.12-6.08 64.16-6.13L64.16-6.13L64.16-6.13Q64.20-6.17 64.26-6.17L64.26-6.17L65.66-6.17L65.66-6.17Q65.72-6.17 65.77-6.13L65.77-6.13L65.77-6.13Q65.81-6.08 65.81-6.02L65.81-6.02L65.81-5.57L65.81-5.57Q65.81-5.53 65.83-5.52L65.83-5.52L65.83-5.52Q65.86-5.51 65.87-5.53L65.87-5.53L65.87-5.53Q66.36-6.25 67.19-6.25L67.19-6.25Z"/><path fill="#fff" transform="translate(27.47, 75.4)" d="M2.99 0.08L2.99 0.08Q2.21 0.08 1.63-0.17L1.63-0.17L1.63-0.17Q1.05-0.42 0.73-0.87L0.73-0.87L0.73-0.87Q0.42-1.32 0.42-1.93L0.42-1.93L0.42-2.18L0.42-2.18Q0.42-2.23 0.46-2.27L0.46-2.27L0.46-2.27Q0.49-2.30 0.54-2.30L0.54-2.30L1.43-2.30L1.43-2.30Q1.48-2.30 1.52-2.27L1.52-2.27L1.52-2.27Q1.55-2.23 1.55-2.18L1.55-2.18L1.55-1.99L1.55-1.99Q1.55-1.53 1.96-1.23L1.96-1.23L1.96-1.23Q2.37-0.92 3.08-0.92L3.08-0.92L3.08-0.92Q3.69-0.92 4-1.18L4-1.18L4-1.18Q4.31-1.44 4.31-1.85L4.31-1.85L4.31-1.85Q4.31-2.13 4.14-2.33L4.14-2.33L4.14-2.33Q3.97-2.52 3.66-2.68L3.66-2.68L3.66-2.68Q3.34-2.84 2.71-3.08L2.71-3.08L2.71-3.08Q2-3.34 1.56-3.57L1.56-3.57L1.56-3.57Q1.12-3.80 0.83-4.20L0.83-4.20L0.83-4.20Q0.53-4.59 0.53-5.18L0.53-5.18L0.53-5.18Q0.53-6.06 1.17-6.57L1.17-6.57L1.17-6.57Q1.81-7.08 2.88-7.08L2.88-7.08L2.88-7.08Q3.63-7.08 4.21-6.82L4.21-6.82L4.21-6.82Q4.78-6.56 5.10-6.09L5.10-6.09L5.10-6.09Q5.42-5.63 5.42-5.02L5.42-5.02L5.42-4.85L5.42-4.85Q5.42-4.80 5.38-4.76L5.38-4.76L5.38-4.76Q5.35-4.73 5.30-4.73L5.30-4.73L4.40-4.73L4.40-4.73Q4.35-4.73 4.32-4.76L4.32-4.76L4.32-4.76Q4.28-4.80 4.28-4.85L4.28-4.85L4.28-4.96L4.28-4.96Q4.28-5.43 3.90-5.75L3.90-5.75L3.90-5.75Q3.51-6.08 2.83-6.08L2.83-6.08L2.83-6.08Q2.28-6.08 1.98-5.85L1.98-5.85L1.98-5.85Q1.67-5.62 1.67-5.20L1.67-5.20L1.67-5.20Q1.67-4.90 1.83-4.71L1.83-4.71L1.83-4.71Q1.99-4.52 2.31-4.37L2.31-4.37L2.31-4.37Q2.63-4.21 3.30-3.97L3.30-3.97L3.30-3.97Q4.01-3.70 4.44-3.48L4.44-3.48L4.44-3.48Q4.86-3.26 5.17-2.87L5.17-2.87L5.17-2.87Q5.47-2.47 5.47-1.88L5.47-1.88L5.47-1.88Q5.47-0.98 4.80-0.45L4.80-0.45L4.80-0.45Q4.14 0.08 2.99 0.08L2.99 0.08ZM9.09 0.08L9.09 0.08Q8.35 0.08 7.78-0.21L7.78-0.21L7.78-0.21Q7.21-0.50 6.90-1.03L6.90-1.03L6.90-1.03Q6.58-1.57 6.58-2.27L6.58-2.27L6.58-6.88L6.58-6.88Q6.58-6.93 6.62-6.96L6.62-6.96L6.62-6.96Q6.65-7 6.70-7L6.70-7L7.62-7L7.62-7Q7.67-7 7.71-6.96L7.71-6.96L7.71-6.96Q7.74-6.93 7.74-6.88L7.74-6.88L7.74-2.25L7.74-2.25Q7.74-1.66 8.11-1.29L8.11-1.29L8.11-1.29Q8.48-0.92 9.09-0.92L9.09-0.92L9.09-0.92Q9.70-0.92 10.07-1.29L10.07-1.29L10.07-1.29Q10.44-1.66 10.44-2.25L10.44-2.25L10.44-6.88L10.44-6.88Q10.44-6.93 10.48-6.96L10.48-6.96L10.48-6.96Q10.51-7 10.56-7L10.56-7L11.48-7L11.48-7Q11.53-7 11.57-6.96L11.57-6.96L11.57-6.96Q11.60-6.93 11.60-6.88L11.60-6.88L11.60-2.27L11.60-2.27Q11.60-1.57 11.29-1.03L11.29-1.03L11.29-1.03Q10.98-0.50 10.41-0.21L10.41-0.21L10.41-0.21Q9.84 0.08 9.09 0.08L9.09 0.08ZM17.51-6.92L17.51-6.92Q17.56-7 17.65-7L17.65-7L18.57-7L18.57-7Q18.62-7 18.66-6.96L18.66-6.96L18.66-6.96Q18.69-6.93 18.69-6.88L18.69-6.88L18.69-0.12L18.69-0.12Q18.69-0.07 18.66-0.04L18.66-0.04L18.66-0.04Q18.62 0 18.57 0L18.57 0L17.65 0L17.65 0Q17.60 0 17.56-0.04L17.56-0.04L17.56-0.04Q17.53-0.07 17.53-0.12L17.53-0.12L17.53-4.89L17.53-4.89Q17.53-4.92 17.50-4.93L17.50-4.93L17.50-4.93Q17.48-4.94 17.47-4.91L17.47-4.91L16.22-2.99L16.22-2.99Q16.17-2.91 16.08-2.91L16.08-2.91L15.62-2.91L15.62-2.91Q15.53-2.91 15.48-2.99L15.48-2.99L14.22-4.90L14.22-4.90Q14.21-4.93 14.18-4.92L14.18-4.92L14.18-4.92Q14.16-4.91 14.16-4.88L14.16-4.88L14.16-0.12L14.16-0.12Q14.16-0.07 14.13-0.04L14.13-0.04L14.13-0.04Q14.09 0 14.04 0L14.04 0L13.12 0L13.12 0Q13.07 0 13.04-0.04L13.04-0.04L13.04-0.04Q13-0.07 13-0.12L13-0.12L13-6.88L13-6.88Q13-6.93 13.04-6.96L13.04-6.96L13.04-6.96Q13.07-7 13.12-7L13.12-7L14.04-7L14.04-7Q14.13-7 14.18-6.92L14.18-6.92L15.81-4.45L15.81-4.45Q15.83-4.43 15.85-4.43L15.85-4.43L15.85-4.43Q15.87-4.43 15.88-4.45L15.88-4.45L17.51-6.92ZM24.66-6.92L24.66-6.92Q24.71-7 24.80-7L24.80-7L25.72-7L25.72-7Q25.77-7 25.80-6.96L25.80-6.96L25.80-6.96Q25.84-6.93 25.84-6.88L25.84-6.88L25.84-0.12L25.84-0.12Q25.84-0.07 25.80-0.04L25.80-0.04L25.80-0.04Q25.77 0 25.72 0L25.72 0L24.80 0L24.80 0Q24.75 0 24.72-0.04L24.72-0.04L24.72-0.04Q24.68-0.07 24.68-0.12L24.68-0.12L24.68-4.89L24.68-4.89Q24.68-4.92 24.66-4.93L24.66-4.93L24.66-4.93Q24.63-4.94 24.62-4.91L24.62-4.91L23.37-2.99L23.37-2.99Q23.32-2.91 23.23-2.91L23.23-2.91L22.77-2.91L22.77-2.91Q22.68-2.91 22.63-2.99L22.63-2.99L21.37-4.90L21.37-4.90Q21.36-4.93 21.34-4.92L21.34-4.92L21.34-4.92Q21.31-4.91 21.31-4.88L21.31-4.88L21.31-0.12L21.31-0.12Q21.31-0.07 21.28-0.04L21.28-0.04L21.28-0.04Q21.24 0 21.19 0L21.19 0L20.27 0L20.27 0Q20.22 0 20.19-0.04L20.19-0.04L20.19-0.04Q20.15-0.07 20.15-0.12L20.15-0.12L20.15-6.88L20.15-6.88Q20.15-6.93 20.19-6.96L20.19-6.96L20.19-6.96Q20.22-7 20.27-7L20.27-7L21.19-7L21.19-7Q21.28-7 21.33-6.92L21.33-6.92L22.96-4.45L22.96-4.45Q22.98-4.43 23-4.43L23-4.43L23-4.43Q23.02-4.43 23.03-4.45L23.03-4.45L24.66-6.92ZM32.04-6.12L32.04-6.12Q32.04-6.07 32.01-6.04L32.01-6.04L32.01-6.04Q31.97-6 31.92-6L31.92-6L28.51-6L28.51-6Q28.46-6 28.46-5.95L28.46-5.95L28.46-4.08L28.46-4.08Q28.46-4.03 28.51-4.03L28.51-4.03L30.80-4.03L30.80-4.03Q30.85-4.03 30.89-4.00L30.89-4.00L30.89-4.00Q30.92-3.96 30.92-3.91L30.92-3.91L30.92-3.15L30.92-3.15Q30.92-3.10 30.89-3.06L30.89-3.06L30.89-3.06Q30.85-3.03 30.80-3.03L30.80-3.03L28.51-3.03L28.51-3.03Q28.46-3.03 28.46-2.98L28.46-2.98L28.46-1.05L28.46-1.05Q28.46-1 28.51-1L28.51-1L31.92-1L31.92-1Q31.97-1 32.01-0.96L32.01-0.96L32.01-0.96Q32.04-0.93 32.04-0.88L32.04-0.88L32.04-0.12L32.04-0.12Q32.04-0.07 32.01-0.04L32.01-0.04L32.01-0.04Q31.97 0 31.92 0L31.92 0L27.42 0L27.42 0Q27.37 0 27.34-0.04L27.34-0.04L27.34-0.04Q27.30-0.07 27.30-0.12L27.30-0.12L27.30-6.88L27.30-6.88Q27.30-6.93 27.34-6.96L27.34-6.96L27.34-6.96Q27.37-7 27.42-7L27.42-7L31.92-7L31.92-7Q31.97-7 32.01-6.96L32.01-6.96L32.01-6.96Q32.04-6.93 32.04-6.88L32.04-6.88L32.04-6.12ZM37.15 0L37.15 0Q37.05 0 37.01-0.09L37.01-0.09L35.69-2.97L35.69-2.97Q35.67-3.01 35.63-3.01L35.63-3.01L34.43-3.01L34.43-3.01Q34.38-3.01 34.38-2.96L34.38-2.96L34.38-0.12L34.38-0.12Q34.38-0.07 34.34-0.04L34.34-0.04L34.34-0.04Q34.31 0 34.26 0L34.26 0L33.34 0L33.34 0Q33.29 0 33.26-0.04L33.26-0.04L33.26-0.04Q33.22-0.07 33.22-0.12L33.22-0.12L33.22-6.88L33.22-6.88Q33.22-6.93 33.26-6.96L33.26-6.96L33.26-6.96Q33.29-7 33.34-7L33.34-7L36.09-7L36.09-7Q36.70-7 37.17-6.75L37.17-6.75L37.17-6.75Q37.64-6.49 37.90-6.03L37.90-6.03L37.90-6.03Q38.16-5.56 38.16-4.96L38.16-4.96L38.16-4.96Q38.16-4.27 37.80-3.79L37.80-3.79L37.80-3.79Q37.45-3.30 36.82-3.11L36.82-3.11L36.82-3.11Q36.80-3.11 36.79-3.09L36.79-3.09L36.79-3.09Q36.78-3.07 36.79-3.05L36.79-3.05L38.20-0.14L38.20-0.14Q38.22-0.10 38.22-0.08L38.22-0.08L38.22-0.08Q38.22 0 38.11 0L38.11 0L37.15 0ZM34.43-6L34.43-6Q34.38-6 34.38-5.95L34.38-5.95L34.38-3.96L34.38-3.96Q34.38-3.91 34.43-3.91L34.43-3.91L35.93-3.91L35.93-3.91Q36.41-3.91 36.70-4.20L36.70-4.20L36.70-4.20Q37-4.48 37-4.95L37-4.95L37-4.95Q37-5.42 36.70-5.71L36.70-5.71L36.70-5.71Q36.41-6 35.93-6L35.93-6L34.43-6Z"/><path fill="#252530" transform="translate(30.36, 95.3)" d="M3.38-1.84L3.38-1.84Q3.35-1.81 3.36-1.78L3.36-1.78L3.36-1.78Q3.38-1.75 3.42-1.75L3.42-1.75L7.35-1.75L7.35-1.75Q7.42-1.75 7.47-1.70L7.47-1.70L7.47-1.70Q7.53-1.65 7.53-1.58L7.53-1.58L7.53-0.17L7.53-0.17Q7.53-0.10 7.47-0.05L7.47-0.05L7.47-0.05Q7.42 0 7.35 0L7.35 0L0.83 0L0.83 0Q0.75 0 0.70-0.05L0.70-0.05L0.70-0.05Q0.65-0.10 0.65-0.17L0.65-0.17L0.65-1.51L0.65-1.51Q0.65-1.64 0.74-1.73L0.74-1.73L0.74-1.73Q1.45-2.42 2.19-3.24L2.19-3.24L2.19-3.24Q2.93-4.06 3.12-4.26L3.12-4.26L3.12-4.26Q3.52-4.74 3.94-5.18L3.94-5.18L3.94-5.18Q5.26-6.64 5.26-7.35L5.26-7.35L5.26-7.35Q5.26-7.86 4.90-8.19L4.90-8.19L4.90-8.19Q4.54-8.51 3.96-8.51L3.96-8.51L3.96-8.51Q3.38-8.51 3.02-8.19L3.02-8.19L3.02-8.19Q2.65-7.86 2.65-7.32L2.65-7.32L2.65-6.96L2.65-6.96Q2.65-6.89 2.60-6.84L2.60-6.84L2.60-6.84Q2.55-6.79 2.48-6.79L2.48-6.79L0.77-6.79L0.77-6.79Q0.70-6.79 0.65-6.84L0.65-6.84L0.65-6.84Q0.59-6.89 0.59-6.96L0.59-6.96L0.59-7.64L0.59-7.64Q0.64-8.42 1.09-9.03L1.09-9.03L1.09-9.03Q1.54-9.63 2.28-9.95L2.28-9.95L2.28-9.95Q3.03-10.27 3.96-10.27L3.96-10.27L3.96-10.27Q4.99-10.27 5.75-9.88L5.75-9.88L5.75-9.88Q6.51-9.50 6.92-8.85L6.92-8.85L6.92-8.85Q7.34-8.19 7.34-7.40L7.34-7.40L7.34-7.40Q7.34-6.79 7.03-6.15L7.03-6.15L7.03-6.15Q6.73-5.51 6.12-4.77L6.12-4.77L6.12-4.77Q5.67-4.21 5.15-3.65L5.15-3.65L5.15-3.65Q4.63-3.10 3.60-2.06L3.60-2.06L3.38-1.84ZM12.24 0.16L12.24 0.16Q10.64 0.16 9.72-0.73L9.72-0.73L9.72-0.73Q8.79-1.62 8.79-3.16L8.79-3.16L8.79-6.99L8.79-6.99Q8.79-8.50 9.72-9.38L9.72-9.38L9.72-9.38Q10.64-10.27 12.24-10.27L12.24-10.27L12.24-10.27Q13.83-10.27 14.77-9.38L14.77-9.38L14.77-9.38Q15.70-8.50 15.70-6.99L15.70-6.99L15.70-3.16L15.70-3.16Q15.70-1.62 14.77-0.73L14.77-0.73L14.77-0.73Q13.83 0.16 12.24 0.16L12.24 0.16ZM12.24-1.59L12.24-1.59Q12.89-1.59 13.27-1.99L13.27-1.99L13.27-1.99Q13.66-2.39 13.66-3.06L13.66-3.06L13.66-7.05L13.66-7.05Q13.66-7.71 13.27-8.11L13.27-8.11L13.27-8.11Q12.89-8.51 12.24-8.51L12.24-8.51L12.24-8.51Q11.60-8.51 11.22-8.11L11.22-8.11L11.22-8.11Q10.83-7.71 10.83-7.05L10.83-7.05L10.83-3.06L10.83-3.06Q10.83-2.39 11.22-1.99L11.22-1.99L11.22-1.99Q11.60-1.59 12.24-1.59L12.24-1.59ZM19.76-1.84L19.76-1.84Q19.73-1.81 19.75-1.78L19.75-1.78L19.75-1.78Q19.76-1.75 19.81-1.75L19.81-1.75L23.74-1.75L23.74-1.75Q23.81-1.75 23.86-1.70L23.86-1.70L23.86-1.70Q23.91-1.65 23.91-1.58L23.91-1.58L23.91-0.17L23.91-0.17Q23.91-0.10 23.86-0.05L23.86-0.05L23.86-0.05Q23.81 0 23.74 0L23.74 0L17.21 0L17.21 0Q17.14 0 17.09-0.05L17.09-0.05L17.09-0.05Q17.04-0.10 17.04-0.17L17.04-0.17L17.04-1.51L17.04-1.51Q17.04-1.64 17.12-1.73L17.12-1.73L17.12-1.73Q17.84-2.42 18.57-3.24L18.57-3.24L18.57-3.24Q19.31-4.06 19.50-4.26L19.50-4.26L19.50-4.26Q19.91-4.74 20.33-5.18L20.33-5.18L20.33-5.18Q21.65-6.64 21.65-7.35L21.65-7.35L21.65-7.35Q21.65-7.86 21.29-8.19L21.29-8.19L21.29-8.19Q20.92-8.51 20.34-8.51L20.34-8.51L20.34-8.51Q19.76-8.51 19.40-8.19L19.40-8.19L19.40-8.19Q19.04-7.86 19.04-7.32L19.04-7.32L19.04-6.96L19.04-6.96Q19.04-6.89 18.99-6.84L18.99-6.84L18.99-6.84Q18.94-6.79 18.86-6.79L18.86-6.79L17.15-6.79L17.15-6.79Q17.08-6.79 17.03-6.84L17.03-6.84L17.03-6.84Q16.98-6.89 16.98-6.96L16.98-6.96L16.98-7.64L16.98-7.64Q17.02-8.42 17.47-9.03L17.47-9.03L17.47-9.03Q17.92-9.63 18.67-9.95L18.67-9.95L18.67-9.95Q19.42-10.27 20.34-10.27L20.34-10.27L20.34-10.27Q21.37-10.27 22.13-9.88L22.13-9.88L22.13-9.88Q22.90-9.50 23.31-8.85L23.31-8.85L23.31-8.85Q23.72-8.19 23.72-7.40L23.72-7.40L23.72-7.40Q23.72-6.79 23.42-6.15L23.42-6.15L23.42-6.15Q23.11-5.51 22.50-4.77L22.50-4.77L22.50-4.77Q22.05-4.21 21.53-3.65L21.53-3.65L21.53-3.65Q21.01-3.10 19.98-2.06L19.98-2.06L19.76-1.84ZM28.62 0.16L28.62 0.16Q27.03 0.16 26.10-0.73L26.10-0.73L26.10-0.73Q25.17-1.62 25.17-3.16L25.17-3.16L25.17-6.99L25.17-6.99Q25.17-8.50 26.10-9.38L26.10-9.38L26.10-9.38Q27.03-10.27 28.62-10.27L28.62-10.27L28.62-10.27Q30.22-10.27 31.15-9.38L31.15-9.38L31.15-9.38Q32.09-8.50 32.09-6.99L32.09-6.99L32.09-3.16L32.09-3.16Q32.09-1.62 31.15-0.73L31.15-0.73L31.15-0.73Q30.22 0.16 28.62 0.16L28.62 0.16ZM28.62-1.59L28.62-1.59Q29.28-1.59 29.66-1.99L29.66-1.99L29.66-1.99Q30.04-2.39 30.04-3.06L30.04-3.06L30.04-7.05L30.04-7.05Q30.04-7.71 29.66-8.11L29.66-8.11L29.66-8.11Q29.28-8.51 28.62-8.51L28.62-8.51L28.62-8.51Q27.99-8.51 27.60-8.11L27.60-8.11L27.60-8.11Q27.22-7.71 27.22-7.05L27.22-7.05L27.22-3.06L27.22-3.06Q27.22-2.39 27.60-1.99L27.60-1.99L27.60-1.99Q27.99-1.59 28.62-1.59L28.62-1.59Z"/></g>
</svg>
