<svg xmlns="http://www.w3.org/2000/svg" xmlns:xlink="http://www.w3.org/1999/xlink" viewBox="0 0 94 122">
  <g id="container">
    <path fill="#fff" d="M8.1 89.9L47.6 110l38-20.1V11.3H8.1z"/>
    <path fill="#f2f3f2" d="M86.4 11.6L7.3 91.3l41 20.3 38.1-19.5z"/>
    <path d="M5.5 37.5v54.1l1.4.7 39.5 20.1 1.2.6 1.2-.6 38.1-20.1 1.4-.7V8.7H5.5v28.8zm2.6 52.6V11.3h77.6v78.8l-38.1 20.1L8.1 90.1z" fill="#dcdedc"/>
    <path id="logo" d="M46.9 12.6c.4 0 .8 0 1.2.1L46.9 15c-1.8-.1-3.4 1.3-3.5 3.1-.1 1.8 1.3 3.4 3.1 3.5h.4c.8 0 1.6-.3 2.2-.8l1.3 2.2c-1 .7-2.2 1.1-3.5 1.1-3.2.1-5.9-2.3-6-5.5-.1-3.2 2.3-5.9 5.5-6h.5zm4.1 4.9l1.5 2.5-1.5 2.4-1.4-2.4h-2.9l1.5-2.5H51zm-2.4-.9c0-.4.1-.8.3-1.1.2-.3.6-.6.9-.8l.2-.1c.4-.2.5-.3.5-.5s-.3-.4-.5-.4c-.4 0-.7.2-.9.6l-.5-.5c.1-.2.3-.4.5-.6.3-.2.6-.2.9-.2.3 0 .7.1.9.3.2.2.4.5.4.8 0 .5-.3.9-.9 1.1l-.3.2c-.3.2-.5.3-.6.6h1.8v.7l-2.7-.1zm-1.7 12.5l9.5-5.4v-15H37.3v14.9l9.6 5.5z" fill="#ff492c"/>
    <path id="banner" d="M90.2 64.5H3.6l-3.2 7 3.2 7h86.6l3.1-7z" fill="#ffd200"/>
  <path fill="#252530" transform="translate(12.02, 60)" d="M4.89 0L4.89 0Q4.79 0 4.74-0.10L4.74-0.10L3.37-3.15L3.37-3.15Q3.34-3.19 3.30-3.19L3.30-3.19L2.28-3.19L2.28-3.19Q2.22-3.19 2.22-3.13L2.22-3.13L2.22-0.13L2.22-0.13Q2.22-0.08 2.18-0.04L2.18-0.04L2.18-0.04Q2.15 0 2.09 0L2.09 0L0.80 0L0.80 0Q0.75 0 0.71-0.04L0.71-0.04L0.71-0.04Q0.67-0.08 0.67-0.13L0.67-0.13L0.67-7.57L0.67-7.57Q0.67-7.62 0.71-7.66L0.71-7.66L0.71-7.66Q0.75-7.70 0.80-7.70L0.80-7.70L3.95-7.70L3.95-7.70Q4.65-7.70 5.19-7.41L5.19-7.41L5.19-7.41Q5.72-7.13 6.01-6.60L6.01-6.60L6.01-6.60Q6.30-6.07 6.30-5.38L6.30-5.38L6.30-5.38Q6.30-4.63 5.93-4.10L5.93-4.10L5.93-4.10Q5.55-3.56 4.88-3.34L4.88-3.34L4.88-3.34Q4.83-3.32 4.85-3.27L4.85-3.27L6.35-0.15L6.35-0.15Q6.37-0.11 6.37-0.09L6.37-0.09L6.37-0.09Q6.37 0 6.25 0L6.25 0L4.89 0ZM2.28-6.37L2.28-6.37Q2.22-6.37 2.22-6.31L2.22-6.31L2.22-4.43L2.22-4.43Q2.22-4.38 2.28-4.38L2.28-4.38L3.72-4.38L3.72-4.38Q4.18-4.38 4.47-4.65L4.47-4.65L4.47-4.65Q4.76-4.93 4.76-5.37L4.76-5.37L4.76-5.37Q4.76-5.81 4.47-6.09L4.47-6.09L4.47-6.09Q4.18-6.37 3.72-6.37L3.72-6.37L2.28-6.37ZM12.33-3.41L12.33-3.41Q12.40-2.99 12.38-2.47L12.38-2.47L12.38-2.47Q12.36-2.34 12.23-2.34L12.23-2.34L8.83-2.34L8.83-2.34Q8.77-2.34 8.79-2.29L8.79-2.29L8.79-2.29Q8.82-2.07 8.91-1.85L8.91-1.85L8.91-1.85Q9.20-1.23 10.08-1.23L10.08-1.23L10.08-1.23Q10.78-1.24 11.19-1.80L11.19-1.80L11.19-1.80Q11.23-1.87 11.29-1.87L11.29-1.87L11.29-1.87Q11.32-1.87 11.36-1.83L11.36-1.83L12.15-1.04L12.15-1.04Q12.21-0.99 12.21-0.95L12.21-0.95L12.21-0.95Q12.21-0.92 12.17-0.86L12.17-0.86L12.17-0.86Q11.80-0.41 11.23-0.16L11.23-0.16L11.23-0.16Q10.66 0.09 9.98 0.09L9.98 0.09L9.98 0.09Q9.03 0.09 8.38-0.34L8.38-0.34L8.38-0.34Q7.72-0.77 7.44-1.54L7.44-1.54L7.44-1.54Q7.20-2.09 7.20-2.98L7.20-2.98L7.20-2.98Q7.20-3.59 7.37-4.05L7.37-4.05L7.37-4.05Q7.62-4.83 8.26-5.29L8.26-5.29L8.26-5.29Q8.89-5.75 9.76-5.75L9.76-5.75L9.76-5.75Q10.86-5.75 11.52-5.11L11.52-5.11L11.52-5.11Q12.19-4.48 12.33-3.41L12.33-3.41ZM9.77-4.41L9.77-4.41Q9.07-4.41 8.86-3.76L8.86-3.76L8.86-3.76Q8.81-3.62 8.78-3.41L8.78-3.41L8.78-3.41Q8.78-3.35 8.83-3.35L8.83-3.35L10.74-3.35L10.74-3.35Q10.80-3.35 10.78-3.41L10.78-3.41L10.78-3.41Q10.72-3.73 10.72-3.72L10.72-3.72L10.72-3.72Q10.63-4.05 10.38-4.23L10.38-4.23L10.38-4.23Q10.13-4.41 9.77-4.41L9.77-4.41ZM16.84-5.52L16.84-5.52Q16.84-5.58 16.88-5.62L16.88-5.62L16.88-5.62Q16.92-5.65 16.97-5.65L16.97-5.65L18.26-5.65L18.26-5.65Q18.31-5.65 18.35-5.62L18.35-5.62L18.35-5.62Q18.39-5.58 18.39-5.52L18.39-5.52L18.39 1.91L18.39 1.91Q18.39 1.97 18.35 2.01L18.35 2.01L18.35 2.01Q18.31 2.05 18.26 2.05L18.26 2.05L16.97 2.05L16.97 2.05Q16.92 2.05 16.88 2.01L16.88 2.01L16.88 2.01Q16.84 1.97 16.84 1.91L16.84 1.91L16.84-0.44L16.84-0.44Q16.84-0.47 16.82-0.48L16.82-0.48L16.82-0.48Q16.80-0.49 16.77-0.46L16.77-0.46L16.77-0.46Q16.33 0.09 15.54 0.09L15.54 0.09L15.54 0.09Q14.74 0.09 14.20-0.32L14.20-0.32L14.20-0.32Q13.65-0.74 13.40-1.44L13.40-1.44L13.40-1.44Q13.20-2.02 13.20-2.82L13.20-2.82L13.20-2.82Q13.20-3.56 13.39-4.14L13.39-4.14L13.39-4.14Q13.63-4.89 14.18-5.32L14.18-5.32L14.18-5.32Q14.74-5.74 15.51-5.74L15.51-5.74L15.51-5.74Q16.31-5.74 16.77-5.14L16.77-5.14L16.77-5.14Q16.80-5.11 16.82-5.12L16.82-5.12L16.82-5.12Q16.84-5.13 16.84-5.16L16.84-5.16L16.84-5.52ZM16.59-1.68L16.59-1.68Q16.83-2.09 16.83-2.83L16.83-2.83L16.83-2.83Q16.83-3.53 16.61-3.94L16.61-3.94L16.61-3.94Q16.33-4.41 15.84-4.41L15.84-4.41L15.84-4.41Q15.30-4.41 15.03-3.94L15.03-3.94L15.03-3.94Q14.79-3.50 14.79-2.84L14.79-2.84L14.79-2.84Q14.79-2.10 15.07-1.67L15.07-1.67L15.07-1.67Q15.34-1.24 15.85-1.24L15.85-1.24L15.85-1.24Q16.33-1.24 16.59-1.68L16.59-1.68ZM22.88-5.52L22.88-5.52Q22.88-5.58 22.92-5.62L22.92-5.62L22.92-5.62Q22.96-5.65 23.01-5.65L23.01-5.65L24.30-5.65L24.30-5.65Q24.35-5.65 24.39-5.62L24.39-5.62L24.39-5.62Q24.43-5.58 24.43-5.52L24.43-5.52L24.43-0.13L24.43-0.13Q24.43-0.08 24.39-0.04L24.39-0.04L24.39-0.04Q24.35 0 24.30 0L24.30 0L23.01 0L23.01 0Q22.96 0 22.92-0.04L22.92-0.04L22.92-0.04Q22.88-0.08 22.88-0.13L22.88-0.13L22.88-0.51L22.88-0.51Q22.88-0.54 22.86-0.54L22.86-0.54L22.86-0.54Q22.84-0.55 22.81-0.52L22.81-0.52L22.81-0.52Q22.37 0.08 21.45 0.08L21.45 0.08L21.45 0.08Q20.61 0.08 20.07-0.43L20.07-0.43L20.07-0.43Q19.54-0.93 19.54-1.85L19.54-1.85L19.54-5.52L19.54-5.52Q19.54-5.58 19.57-5.62L19.57-5.62L19.57-5.62Q19.61-5.65 19.67-5.65L19.67-5.65L20.94-5.65L20.94-5.65Q21.00-5.65 21.04-5.62L21.04-5.62L21.04-5.62Q21.08-5.58 21.08-5.52L21.08-5.52L21.08-2.23L21.08-2.23Q21.08-1.79 21.31-1.52L21.31-1.52L21.31-1.52Q21.55-1.24 21.97-1.24L21.97-1.24L21.97-1.24Q22.34-1.24 22.58-1.47L22.58-1.47L22.58-1.47Q22.82-1.69 22.88-2.06L22.88-2.06L22.88-5.52ZM26.41-6.29L26.41-6.29Q26.04-6.29 25.79-6.54L25.79-6.54L25.79-6.54Q25.54-6.79 25.54-7.16L25.54-7.16L25.54-7.16Q25.54-7.55 25.78-7.79L25.78-7.79L25.78-7.79Q26.03-8.03 26.41-8.03L26.41-8.03L26.41-8.03Q26.80-8.03 27.04-7.79L27.04-7.79L27.04-7.79Q27.28-7.55 27.28-7.16L27.28-7.16L27.28-7.16Q27.28-6.79 27.03-6.54L27.03-6.54L27.03-6.54Q26.78-6.29 26.41-6.29L26.41-6.29ZM25.75 0L25.75 0Q25.70 0 25.66-0.04L25.66-0.04L25.66-0.04Q25.62-0.08 25.62-0.13L25.62-0.13L25.62-5.53L25.62-5.53Q25.62-5.59 25.66-5.63L25.66-5.63L25.66-5.63Q25.70-5.67 25.75-5.67L25.75-5.67L27.04-5.67L27.04-5.67Q27.09-5.67 27.13-5.63L27.13-5.63L27.13-5.63Q27.17-5.59 27.17-5.53L27.17-5.53L27.17-0.13L27.17-0.13Q27.17-0.08 27.13-0.04L27.13-0.04L27.13-0.04Q27.09 0 27.04 0L27.04 0L25.75 0ZM31.20-5.73L31.20-5.73Q31.59-5.73 31.82-5.58L31.82-5.58L31.82-5.58Q31.91-5.53 31.89-5.41L31.89-5.41L31.66-4.16L31.66-4.16Q31.65-4.03 31.50-4.08L31.50-4.08L31.50-4.08Q31.34-4.14 31.12-4.14L31.12-4.14L31.12-4.14Q31.03-4.14 30.88-4.11L30.88-4.11L30.88-4.11Q30.48-4.08 30.21-3.82L30.21-3.82L30.21-3.82Q29.93-3.56 29.93-3.13L29.93-3.13L29.93-0.13L29.93-0.13Q29.93-0.08 29.89-0.04L29.89-0.04L29.89-0.04Q29.85 0 29.80 0L29.80 0L28.51 0L28.51 0Q28.46 0 28.42-0.04L28.42-0.04L28.42-0.04Q28.38-0.08 28.38-0.13L28.38-0.13L28.38-5.52L28.38-5.52Q28.38-5.58 28.42-5.62L28.42-5.62L28.42-5.62Q28.46-5.65 28.51-5.65L28.51-5.65L29.80-5.65L29.80-5.65Q29.85-5.65 29.89-5.62L29.89-5.62L29.89-5.62Q29.93-5.58 29.93-5.52L29.93-5.52L29.93-5.10L29.93-5.10Q29.93-5.07 29.95-5.06L29.95-5.06L29.95-5.06Q29.97-5.05 29.99-5.07L29.99-5.07L29.99-5.07Q30.44-5.73 31.20-5.73L31.20-5.73ZM37.60-3.41L37.60-3.41Q37.66-2.99 37.64-2.47L37.64-2.47L37.64-2.47Q37.63-2.34 37.50-2.34L37.50-2.34L34.10-2.34L34.10-2.34Q34.03-2.34 34.06-2.29L34.06-2.29L34.06-2.29Q34.09-2.07 34.18-1.85L34.18-1.85L34.18-1.85Q34.46-1.23 35.34-1.23L35.34-1.23L35.34-1.23Q36.05-1.24 36.45-1.80L36.45-1.80L36.45-1.80Q36.50-1.87 36.55-1.87L36.55-1.87L36.55-1.87Q36.59-1.87 36.63-1.83L36.63-1.83L37.42-1.04L37.42-1.04Q37.48-0.99 37.48-0.95L37.48-0.95L37.48-0.95Q37.48-0.92 37.43-0.86L37.43-0.86L37.43-0.86Q37.07-0.41 36.50-0.16L36.50-0.16L36.50-0.16Q35.93 0.09 35.24 0.09L35.24 0.09L35.24 0.09Q34.30 0.09 33.64-0.34L33.64-0.34L33.64-0.34Q32.99-0.77 32.70-1.54L32.70-1.54L32.70-1.54Q32.47-2.09 32.47-2.98L32.47-2.98L32.47-2.98Q32.47-3.59 32.64-4.05L32.64-4.05L32.64-4.05Q32.89-4.83 33.52-5.29L33.52-5.29L33.52-5.29Q34.15-5.75 35.02-5.75L35.02-5.75L35.02-5.75Q36.12-5.75 36.79-5.11L36.79-5.11L36.79-5.11Q37.45-4.48 37.60-3.41L37.60-3.41ZM35.03-4.41L35.03-4.41Q34.34-4.41 34.12-3.76L34.12-3.76L34.12-3.76Q34.08-3.62 34.04-3.41L34.04-3.41L34.04-3.41Q34.04-3.35 34.10-3.35L34.10-3.35L36.00-3.35L36.00-3.35Q36.07-3.35 36.05-3.41L36.05-3.41L36.05-3.41Q35.99-3.73 35.99-3.72L35.99-3.72L35.99-3.72Q35.89-4.05 35.65-4.23L35.65-4.23L35.65-4.23Q35.40-4.41 35.03-4.41L35.03-4.41ZM44.87-5.74L44.87-5.74Q45.73-5.74 46.21-5.22L46.21-5.22L46.21-5.22Q46.69-4.71 46.69-3.77L46.69-3.77L46.69-0.13L46.69-0.13Q46.69-0.08 46.66-0.04L46.66-0.04L46.66-0.04Q46.62 0 46.56 0L46.56 0L45.28 0L45.28 0Q45.22 0 45.18-0.04L45.18-0.04L45.18-0.04Q45.14-0.08 45.14-0.13L45.14-0.13L45.14-3.43L45.14-3.43Q45.14-3.88 44.91-4.15L44.91-4.15L44.91-4.15Q44.68-4.41 44.30-4.41L44.30-4.41L44.30-4.41Q43.91-4.41 43.67-4.15L43.67-4.15L43.67-4.15Q43.43-3.88 43.43-3.44L43.43-3.44L43.43-0.13L43.43-0.13Q43.43-0.08 43.39-0.04L43.39-0.04L43.39-0.04Q43.35 0 43.30 0L43.30 0L42.02 0L42.02 0Q41.96 0 41.93-0.04L41.93-0.04L41.93-0.04Q41.89-0.08 41.89-0.13L41.89-0.13L41.89-3.43L41.89-3.43Q41.89-3.87 41.65-4.14L41.65-4.14L41.65-4.14Q41.40-4.41 41.02-4.41L41.02-4.41L41.02-4.41Q40.67-4.41 40.43-4.20L40.43-4.20L40.43-4.20Q40.19-3.99 40.15-3.62L40.15-3.62L40.15-0.13L40.15-0.13Q40.15-0.08 40.11-0.04L40.11-0.04L40.11-0.04Q40.07 0 40.02 0L40.02 0L38.73 0L38.73 0Q38.68 0 38.64-0.04L38.64-0.04L38.64-0.04Q38.60-0.08 38.60-0.13L38.60-0.13L38.60-5.52L38.60-5.52Q38.60-5.58 38.64-5.62L38.64-5.62L38.64-5.62Q38.68-5.65 38.73-5.65L38.73-5.65L40.02-5.65L40.02-5.65Q40.07-5.65 40.11-5.62L40.11-5.62L40.11-5.62Q40.15-5.58 40.15-5.52L40.15-5.52L40.15-5.09L40.15-5.09Q40.15-5.06 40.17-5.05L40.17-5.05L40.17-5.05Q40.19-5.04 40.22-5.07L40.22-5.07L40.22-5.07Q40.67-5.74 41.61-5.74L41.61-5.74L41.61-5.74Q42.16-5.74 42.58-5.51L42.58-5.51L42.58-5.51Q42.99-5.28 43.21-4.85L43.21-4.85L43.21-4.85Q43.24-4.79 43.28-4.85L43.28-4.85L43.28-4.85Q43.53-5.30 43.94-5.52L43.94-5.52L43.94-5.52Q44.35-5.74 44.87-5.74L44.87-5.74ZM52.79-3.41L52.79-3.41Q52.85-2.99 52.83-2.47L52.83-2.47L52.83-2.47Q52.82-2.34 52.69-2.34L52.69-2.34L49.29-2.34L49.29-2.34Q49.22-2.34 49.25-2.29L49.25-2.29L49.25-2.29Q49.28-2.07 49.37-1.85L49.37-1.85L49.37-1.85Q49.65-1.23 50.53-1.23L50.53-1.23L50.53-1.23Q51.24-1.24 51.64-1.80L51.64-1.80L51.64-1.80Q51.69-1.87 51.74-1.87L51.74-1.87L51.74-1.87Q51.78-1.87 51.82-1.83L51.82-1.83L52.61-1.04L52.61-1.04Q52.67-0.99 52.67-0.95L52.67-0.95L52.67-0.95Q52.67-0.92 52.62-0.86L52.62-0.86L52.62-0.86Q52.26-0.41 51.69-0.16L51.69-0.16L51.69-0.16Q51.12 0.09 50.43 0.09L50.43 0.09L50.43 0.09Q49.49 0.09 48.83-0.34L48.83-0.34L48.83-0.34Q48.18-0.77 47.89-1.54L47.89-1.54L47.89-1.54Q47.66-2.09 47.66-2.98L47.66-2.98L47.66-2.98Q47.66-3.59 47.83-4.05L47.83-4.05L47.83-4.05Q48.08-4.83 48.71-5.29L48.71-5.29L48.71-5.29Q49.35-5.75 50.21-5.75L50.21-5.75L50.21-5.75Q51.31-5.75 51.98-5.11L51.98-5.11L51.98-5.11Q52.65-4.48 52.79-3.41L52.79-3.41ZM50.23-4.41L50.23-4.41Q49.53-4.41 49.31-3.76L49.31-3.76L49.31-3.76Q49.27-3.62 49.24-3.41L49.24-3.41L49.24-3.41Q49.24-3.35 49.29-3.35L49.29-3.35L51.19-3.35L51.19-3.35Q51.26-3.35 51.24-3.41L51.24-3.41L51.24-3.41Q51.18-3.73 51.18-3.72L51.18-3.72L51.18-3.72Q51.08-4.05 50.84-4.23L50.84-4.23L50.84-4.23Q50.59-4.41 50.23-4.41L50.23-4.41ZM56.74-5.74L56.74-5.74Q57.62-5.74 58.16-5.20L58.16-5.20L58.16-5.20Q58.70-4.66 58.70-3.74L58.70-3.74L58.70-0.13L58.70-0.13Q58.70-0.08 58.66-0.04L58.66-0.04L58.66-0.04Q58.62 0 58.56 0L58.56 0L57.28 0L57.28 0Q57.22 0 57.18-0.04L57.18-0.04L57.18-0.04Q57.14-0.08 57.14-0.13L57.14-0.13L57.14-3.42L57.14-3.42Q57.14-3.86 56.90-4.14L56.90-4.14L56.90-4.14Q56.65-4.41 56.24-4.41L56.24-4.41L56.24-4.41Q55.84-4.41 55.59-4.14L55.59-4.14L55.59-4.14Q55.34-3.86 55.34-3.42L55.34-3.42L55.34-0.13L55.34-0.13Q55.34-0.08 55.30-0.04L55.30-0.04L55.30-0.04Q55.26 0 55.21 0L55.21 0L53.92 0L53.92 0Q53.87 0 53.83-0.04L53.83-0.04L53.83-0.04Q53.79-0.08 53.79-0.13L53.79-0.13L53.79-5.52L53.79-5.52Q53.79-5.58 53.83-5.62L53.83-5.62L53.83-5.62Q53.87-5.65 53.92-5.65L53.92-5.65L55.21-5.65L55.21-5.65Q55.26-5.65 55.30-5.62L55.30-5.62L55.30-5.62Q55.34-5.58 55.34-5.52L55.34-5.52L55.34-5.14L55.34-5.14Q55.34-5.10 55.36-5.09L55.36-5.09L55.36-5.09Q55.38-5.08 55.40-5.10L55.40-5.10L55.40-5.10Q55.85-5.74 56.74-5.74L56.74-5.74ZM63.05-4.54L63.05-4.54Q63.05-4.49 63.01-4.45L63.01-4.45L63.01-4.45Q62.97-4.41 62.92-4.41L62.92-4.41L61.86-4.41L61.86-4.41Q61.81-4.41 61.81-4.36L61.81-4.36L61.81-2.02L61.81-2.02Q61.81-1.66 61.96-1.48L61.96-1.48L61.96-1.48Q62.11-1.31 62.44-1.31L62.44-1.31L62.80-1.31L62.80-1.31Q62.85-1.31 62.89-1.27L62.89-1.27L62.89-1.27Q62.93-1.23 62.93-1.18L62.93-1.18L62.93-0.13L62.93-0.13Q62.93-0.01 62.80 0.01L62.80 0.01L62.80 0.01Q62.34 0.03 62.14 0.03L62.14 0.03L62.14 0.03Q61.23 0.03 60.77-0.27L60.77-0.27L60.77-0.27Q60.32-0.57 60.31-1.41L60.31-1.41L60.31-4.36L60.31-4.36Q60.31-4.41 60.26-4.41L60.26-4.41L59.63-4.41L59.63-4.41Q59.58-4.41 59.54-4.45L59.54-4.45L59.54-4.45Q59.50-4.49 59.50-4.54L59.50-4.54L59.50-5.52L59.50-5.52Q59.50-5.58 59.54-5.62L59.54-5.62L59.54-5.62Q59.58-5.65 59.63-5.65L59.63-5.65L60.26-5.65L60.26-5.65Q60.31-5.65 60.31-5.71L60.31-5.71L60.31-7.02L60.31-7.02Q60.31-7.07 60.35-7.11L60.35-7.11L60.35-7.11Q60.39-7.15 60.44-7.15L60.44-7.15L61.68-7.15L61.68-7.15Q61.73-7.15 61.77-7.11L61.77-7.11L61.77-7.11Q61.81-7.07 61.81-7.02L61.81-7.02L61.81-5.71L61.81-5.71Q61.81-5.65 61.86-5.65L61.86-5.65L62.92-5.65L62.92-5.65Q62.97-5.65 63.01-5.62L63.01-5.62L63.01-5.62Q63.05-5.58 63.05-5.52L63.05-5.52L63.05-4.54ZM66.24 0.08L66.24 0.08Q65.50 0.08 64.95-0.13L64.95-0.13L64.95-0.13Q64.40-0.34 64.10-0.71L64.10-0.71L64.10-0.71Q63.80-1.09 63.80-1.56L63.80-1.56L63.80-1.67L63.80-1.67Q63.80-1.73 63.84-1.77L63.84-1.77L63.84-1.77Q63.88-1.80 63.93-1.80L63.93-1.80L65.15-1.80L65.15-1.80Q65.21-1.80 65.25-1.77L65.25-1.77L65.25-1.77Q65.28-1.73 65.28-1.67L65.28-1.67L65.28-1.66L65.28-1.66Q65.28-1.42 65.55-1.25L65.55-1.25L65.55-1.25Q65.82-1.08 66.23-1.08L66.23-1.08L66.23-1.08Q66.60-1.08 66.84-1.23L66.84-1.23L66.84-1.23Q67.07-1.38 67.07-1.59L67.07-1.59L67.07-1.59Q67.07-1.79 66.87-1.89L66.87-1.89L66.87-1.89Q66.67-1.99 66.22-2.10L66.22-2.10L66.22-2.10Q65.70-2.23 65.41-2.35L65.41-2.35L65.41-2.35Q64.70-2.60 64.28-2.95L64.28-2.95L64.28-2.95Q63.87-3.30 63.87-3.96L63.87-3.96L63.87-3.96Q63.87-4.77 64.50-5.25L64.50-5.25L64.50-5.25Q65.13-5.73 66.18-5.73L66.18-5.73L66.18-5.73Q66.88-5.73 67.41-5.51L67.41-5.51L67.41-5.51Q67.94-5.28 68.23-4.87L68.23-4.87L68.23-4.87Q68.52-4.47 68.52-3.95L68.52-3.95L68.52-3.95Q68.52-3.89 68.48-3.86L68.48-3.86L68.48-3.86Q68.44-3.82 68.39-3.82L68.39-3.82L67.21-3.82L67.21-3.82Q67.15-3.82 67.12-3.86L67.12-3.86L67.12-3.86Q67.08-3.89 67.08-3.95L67.08-3.95L67.08-3.95Q67.08-4.19 66.83-4.36L66.83-4.36L66.83-4.36Q66.58-4.52 66.18-4.52L66.18-4.52L66.18-4.52Q65.81-4.52 65.58-4.39L65.58-4.39L65.58-4.39Q65.35-4.26 65.35-4.03L65.35-4.03L65.35-4.03Q65.35-3.81 65.58-3.70L65.58-3.70L65.58-3.70Q65.80-3.59 66.33-3.46L66.33-3.46L66.33-3.46Q66.45-3.43 66.60-3.39L66.60-3.39L66.60-3.39Q66.76-3.35 66.93-3.30L66.93-3.30L66.93-3.30Q67.72-3.07 68.17-2.71L68.17-2.71L68.17-2.71Q68.62-2.34 68.62-1.65L68.62-1.65L68.62-1.65Q68.62-0.84 67.97-0.38L67.97-0.38L67.97-0.38Q67.33 0.08 66.24 0.08L66.24 0.08Z"/><path fill="#252530" transform="translate(19.34, 49)" d="M5.24-4.01L5.24-4.01Q5.17-3.98 5.24-3.95L5.24-3.95L5.24-3.95Q6.28-3.41 6.28-2.16L6.28-2.16L6.28-2.16Q6.28-1.09 5.55-0.54L5.55-0.54L5.55-0.54Q4.83 0 3.65 0L3.65 0L0.80 0L0.80 0Q0.75 0 0.71-0.04L0.71-0.04L0.71-0.04Q0.67-0.08 0.67-0.13L0.67-0.13L0.67-7.57L0.67-7.57Q0.67-7.62 0.71-7.66L0.71-7.66L0.71-7.66Q0.75-7.70 0.80-7.70L0.80-7.70L3.56-7.70L3.56-7.70Q6.17-7.70 6.17-5.59L6.17-5.59L6.17-5.59Q6.17-4.49 5.24-4.01L5.24-4.01ZM2.28-6.37L2.28-6.37Q2.22-6.37 2.22-6.31L2.22-6.31L2.22-4.60L2.22-4.60Q2.22-4.54 2.28-4.54L2.28-4.54L3.56-4.54L3.56-4.54Q4.08-4.54 4.37-4.79L4.37-4.79L4.37-4.79Q4.65-5.03 4.65-5.44L4.65-5.44L4.65-5.44Q4.65-5.87 4.37-6.12L4.37-6.12L4.37-6.12Q4.08-6.37 3.56-6.37L3.56-6.37L2.28-6.37ZM3.65-1.34L3.65-1.34Q4.16-1.34 4.44-1.60L4.44-1.60L4.44-1.60Q4.73-1.86 4.73-2.31L4.73-2.31L4.73-2.31Q4.73-2.76 4.44-3.02L4.44-3.02L4.44-3.02Q4.16-3.28 3.64-3.28L3.64-3.28L2.28-3.28L2.28-3.28Q2.22-3.28 2.22-3.22L2.22-3.22L2.22-1.40L2.22-1.40Q2.22-1.34 2.28-1.34L2.28-1.34L3.65-1.34ZM12.40-3.41L12.40-3.41Q12.46-2.99 12.44-2.47L12.44-2.47L12.44-2.47Q12.43-2.34 12.30-2.34L12.30-2.34L8.90-2.34L8.90-2.34Q8.83-2.34 8.85-2.29L8.85-2.29L8.85-2.29Q8.89-2.07 8.98-1.85L8.98-1.85L8.98-1.85Q9.26-1.23 10.14-1.23L10.14-1.23L10.14-1.23Q10.85-1.24 11.25-1.80L11.25-1.80L11.25-1.80Q11.30-1.87 11.35-1.87L11.35-1.87L11.35-1.87Q11.38-1.87 11.43-1.83L11.43-1.83L12.22-1.04L12.22-1.04Q12.28-0.99 12.28-0.95L12.28-0.95L12.28-0.95Q12.28-0.92 12.23-0.86L12.23-0.86L12.23-0.86Q11.87-0.41 11.30-0.16L11.30-0.16L11.30-0.16Q10.72 0.09 10.04 0.09L10.04 0.09L10.04 0.09Q9.10 0.09 8.44-0.34L8.44-0.34L8.44-0.34Q7.79-0.77 7.50-1.54L7.50-1.54L7.50-1.54Q7.27-2.09 7.27-2.98L7.27-2.98L7.27-2.98Q7.27-3.59 7.44-4.05L7.44-4.05L7.44-4.05Q7.69-4.83 8.32-5.29L8.32-5.29L8.32-5.29Q8.95-5.75 9.82-5.75L9.82-5.75L9.82-5.75Q10.92-5.75 11.59-5.11L11.59-5.11L11.59-5.11Q12.25-4.48 12.40-3.41L12.40-3.41ZM9.83-4.41L9.83-4.41Q9.14-4.41 8.92-3.76L8.92-3.76L8.92-3.76Q8.88-3.62 8.84-3.41L8.84-3.41L8.84-3.41Q8.84-3.35 8.90-3.35L8.90-3.35L10.80-3.35L10.80-3.35Q10.87-3.35 10.85-3.41L10.85-3.41L10.85-3.41Q10.79-3.73 10.79-3.72L10.79-3.72L10.79-3.72Q10.69-4.05 10.44-4.23L10.44-4.23L10.44-4.23Q10.20-4.41 9.83-4.41L9.83-4.41ZM15.65 0.08L15.65 0.08Q14.92 0.08 14.37-0.13L14.37-0.13L14.37-0.13Q13.82-0.34 13.51-0.71L13.51-0.71L13.51-0.71Q13.21-1.09 13.21-1.56L13.21-1.56L13.21-1.67L13.21-1.67Q13.21-1.73 13.25-1.77L13.25-1.77L13.25-1.77Q13.29-1.80 13.34-1.80L13.34-1.80L14.56-1.80L14.56-1.80Q14.62-1.80 14.66-1.77L14.66-1.77L14.66-1.77Q14.70-1.73 14.70-1.67L14.70-1.67L14.70-1.66L14.70-1.66Q14.70-1.42 14.97-1.25L14.97-1.25L14.97-1.25Q15.23-1.08 15.64-1.08L15.64-1.08L15.64-1.08Q16.02-1.08 16.25-1.23L16.25-1.23L16.25-1.23Q16.48-1.38 16.48-1.59L16.48-1.59L16.48-1.59Q16.48-1.79 16.28-1.89L16.28-1.89L16.28-1.89Q16.08-1.99 15.63-2.10L15.63-2.10L15.63-2.10Q15.11-2.23 14.82-2.35L14.82-2.35L14.82-2.35Q14.11-2.60 13.69-2.95L13.69-2.95L13.69-2.95Q13.28-3.30 13.28-3.96L13.28-3.96L13.28-3.96Q13.28-4.77 13.91-5.25L13.91-5.25L13.91-5.25Q14.54-5.73 15.59-5.73L15.59-5.73L15.59-5.73Q16.29-5.73 16.82-5.51L16.82-5.51L16.82-5.51Q17.35-5.28 17.64-4.87L17.64-4.87L17.64-4.87Q17.93-4.47 17.93-3.95L17.93-3.95L17.93-3.95Q17.93-3.89 17.89-3.86L17.89-3.86L17.89-3.86Q17.85-3.82 17.80-3.82L17.80-3.82L16.62-3.82L16.62-3.82Q16.57-3.82 16.53-3.86L16.53-3.86L16.53-3.86Q16.49-3.89 16.49-3.95L16.49-3.95L16.49-3.95Q16.49-4.19 16.24-4.36L16.24-4.36L16.24-4.36Q15.99-4.52 15.59-4.52L15.59-4.52L15.59-4.52Q15.22-4.52 14.99-4.39L14.99-4.39L14.99-4.39Q14.76-4.26 14.76-4.03L14.76-4.03L14.76-4.03Q14.76-3.81 14.99-3.70L14.99-3.70L14.99-3.70Q15.21-3.59 15.74-3.46L15.74-3.46L15.74-3.46Q15.86-3.43 16.02-3.39L16.02-3.39L16.02-3.39Q16.17-3.35 16.35-3.30L16.35-3.30L16.35-3.30Q17.13-3.07 17.58-2.71L17.58-2.71L17.58-2.71Q18.03-2.34 18.03-1.65L18.03-1.65L18.03-1.65Q18.03-0.84 17.39-0.38L17.39-0.38L17.39-0.38Q16.74 0.08 15.65 0.08L15.65 0.08ZM22.16-4.54L22.16-4.54Q22.16-4.49 22.13-4.45L22.13-4.45L22.13-4.45Q22.09-4.41 22.03-4.41L22.03-4.41L20.98-4.41L20.98-4.41Q20.92-4.41 20.92-4.36L20.92-4.36L20.92-2.02L20.92-2.02Q20.92-1.66 21.07-1.48L21.07-1.48L21.07-1.48Q21.22-1.31 21.55-1.31L21.55-1.31L21.91-1.31L21.91-1.31Q21.97-1.31 22.01-1.27L22.01-1.27L22.01-1.27Q22.04-1.23 22.04-1.18L22.04-1.18L22.04-0.13L22.04-0.13Q22.04-0.01 21.91 0.01L21.91 0.01L21.91 0.01Q21.45 0.03 21.25 0.03L21.25 0.03L21.25 0.03Q20.34 0.03 19.89-0.27L19.89-0.27L19.89-0.27Q19.44-0.57 19.43-1.41L19.43-1.41L19.43-4.36L19.43-4.36Q19.43-4.41 19.37-4.41L19.37-4.41L18.74-4.41L18.74-4.41Q18.69-4.41 18.65-4.45L18.65-4.45L18.65-4.45Q18.61-4.49 18.61-4.54L18.61-4.54L18.61-5.52L18.61-5.52Q18.61-5.58 18.65-5.62L18.65-5.62L18.65-5.62Q18.69-5.65 18.74-5.65L18.74-5.65L19.37-5.65L19.37-5.65Q19.43-5.65 19.43-5.71L19.43-5.71L19.43-7.02L19.43-7.02Q19.43-7.07 19.46-7.11L19.46-7.11L19.46-7.11Q19.50-7.15 19.56-7.15L19.56-7.15L20.79-7.15L20.79-7.15Q20.84-7.15 20.88-7.11L20.88-7.11L20.88-7.11Q20.92-7.07 20.92-7.02L20.92-7.02L20.92-5.71L20.92-5.71Q20.92-5.65 20.98-5.65L20.98-5.65L22.03-5.65L22.03-5.65Q22.09-5.65 22.13-5.62L22.13-5.62L22.13-5.62Q22.16-5.58 22.16-5.52L22.16-5.52L22.16-4.54ZM30.35-7.61L30.35-7.61Q30.40-7.70 30.50-7.70L30.50-7.70L31.79-7.70L31.79-7.70Q31.84-7.70 31.88-7.66L31.88-7.66L31.88-7.66Q31.92-7.62 31.92-7.57L31.92-7.57L31.92-0.13L31.92-0.13Q31.92-0.08 31.88-0.04L31.88-0.04L31.88-0.04Q31.84 0 31.79 0L31.79 0L30.50 0L30.50 0Q30.45 0 30.41-0.04L30.41-0.04L30.41-0.04Q30.37-0.08 30.37-0.13L30.37-0.13L30.37-4.98L30.37-4.98Q30.37-5.03 30.35-5.03L30.35-5.03L30.35-5.03Q30.33-5.03 30.30-4.99L30.30-4.99L29.14-3.17L29.14-3.17Q29.08-3.08 28.98-3.08L28.98-3.08L28.34-3.08L28.34-3.08Q28.24-3.08 28.18-3.17L28.18-3.17L27.02-4.99L27.02-4.99Q26.99-5.03 26.97-5.02L26.97-5.02L26.97-5.02Q26.95-5.02 26.95-4.97L26.95-4.97L26.95-0.13L26.95-0.13Q26.95-0.08 26.91-0.04L26.91-0.04L26.91-0.04Q26.87 0 26.82 0L26.82 0L25.53 0L25.53 0Q25.48 0 25.44-0.04L25.44-0.04L25.44-0.04Q25.40-0.08 25.40-0.13L25.40-0.13L25.40-7.57L25.40-7.57Q25.40-7.62 25.44-7.66L25.44-7.66L25.44-7.66Q25.48-7.70 25.53-7.70L25.53-7.70L26.82-7.70L26.82-7.70Q26.92-7.70 26.97-7.61L26.97-7.61L28.62-5.05L28.62-5.05Q28.65-4.98 28.69-5.05L28.69-5.05L30.35-7.61ZM38.17-3.41L38.17-3.41Q38.24-2.99 38.21-2.47L38.21-2.47L38.21-2.47Q38.20-2.34 38.07-2.34L38.07-2.34L34.67-2.34L34.67-2.34Q34.61-2.34 34.63-2.29L34.63-2.29L34.63-2.29Q34.66-2.07 34.75-1.85L34.75-1.85L34.75-1.85Q35.03-1.23 35.91-1.23L35.91-1.23L35.91-1.23Q36.62-1.24 37.03-1.80L37.03-1.80L37.03-1.80Q37.07-1.87 37.13-1.87L37.13-1.87L37.13-1.87Q37.16-1.87 37.20-1.83L37.20-1.83L37.99-1.04L37.99-1.04Q38.05-0.99 38.05-0.95L38.05-0.95L38.05-0.95Q38.05-0.92 38.00-0.86L38.00-0.86L38.00-0.86Q37.64-0.41 37.07-0.16L37.07-0.16L37.07-0.16Q36.50 0.09 35.82 0.09L35.82 0.09L35.82 0.09Q34.87 0.09 34.22-0.34L34.22-0.34L34.22-0.34Q33.56-0.77 33.27-1.54L33.27-1.54L33.27-1.54Q33.04-2.09 33.04-2.98L33.04-2.98L33.04-2.98Q33.04-3.59 33.21-4.05L33.21-4.05L33.21-4.05Q33.46-4.83 34.09-5.29L34.09-5.29L34.09-5.29Q34.73-5.75 35.60-5.75L35.60-5.75L35.60-5.75Q36.70-5.75 37.36-5.11L37.36-5.11L37.36-5.11Q38.03-4.48 38.17-3.41L38.17-3.41ZM35.61-4.41L35.61-4.41Q34.91-4.41 34.69-3.76L34.69-3.76L34.69-3.76Q34.65-3.62 34.62-3.41L34.62-3.41L34.62-3.41Q34.62-3.35 34.67-3.35L34.67-3.35L36.57-3.35L36.57-3.35Q36.64-3.35 36.62-3.41L36.62-3.41L36.62-3.41Q36.56-3.73 36.56-3.72L36.56-3.72L36.56-3.72Q36.46-4.05 36.22-4.23L36.22-4.23L36.22-4.23Q35.97-4.41 35.61-4.41L35.61-4.41ZM44.18-3.41L44.18-3.41Q44.24-2.99 44.22-2.47L44.22-2.47L44.22-2.47Q44.21-2.34 44.08-2.34L44.08-2.34L40.68-2.34L40.68-2.34Q40.61-2.34 40.63-2.29L40.63-2.29L40.63-2.29Q40.67-2.07 40.75-1.85L40.75-1.85L40.75-1.85Q41.04-1.23 41.92-1.23L41.92-1.23L41.92-1.23Q42.63-1.24 43.03-1.80L43.03-1.80L43.03-1.80Q43.08-1.87 43.13-1.87L43.13-1.87L43.13-1.87Q43.16-1.87 43.21-1.83L43.21-1.83L44-1.04L44-1.04Q44.05-0.99 44.05-0.95L44.05-0.95L44.05-0.95Q44.05-0.92 44.01-0.86L44.01-0.86L44.01-0.86Q43.65-0.41 43.08-0.16L43.08-0.16L43.08-0.16Q42.50 0.09 41.82 0.09L41.82 0.09L41.82 0.09Q40.88 0.09 40.22-0.34L40.22-0.34L40.22-0.34Q39.57-0.77 39.28-1.54L39.28-1.54L39.28-1.54Q39.05-2.09 39.05-2.98L39.05-2.98L39.05-2.98Q39.05-3.59 39.21-4.05L39.21-4.05L39.21-4.05Q39.47-4.83 40.10-5.29L40.10-5.29L40.10-5.29Q40.73-5.75 41.60-5.75L41.60-5.75L41.60-5.75Q42.70-5.75 43.37-5.11L43.37-5.11L43.37-5.11Q44.03-4.48 44.18-3.41L44.18-3.41ZM41.61-4.41L41.61-4.41Q40.92-4.41 40.70-3.76L40.70-3.76L40.70-3.76Q40.66-3.62 40.62-3.41L40.62-3.41L40.62-3.41Q40.62-3.35 40.68-3.35L40.68-3.35L42.58-3.35L42.58-3.35Q42.65-3.35 42.63-3.41L42.63-3.41L42.63-3.41Q42.57-3.73 42.57-3.72L42.57-3.72L42.57-3.72Q42.47-4.05 42.22-4.23L42.22-4.23L42.22-4.23Q41.98-4.41 41.61-4.41L41.61-4.41ZM48.42-4.54L48.42-4.54Q48.42-4.49 48.38-4.45L48.38-4.45L48.38-4.45Q48.34-4.41 48.29-4.41L48.29-4.41L47.23-4.41L47.23-4.41Q47.18-4.41 47.18-4.36L47.18-4.36L47.18-2.02L47.18-2.02Q47.18-1.66 47.33-1.48L47.33-1.48L47.33-1.48Q47.48-1.31 47.81-1.31L47.81-1.31L48.17-1.31L48.17-1.31Q48.22-1.31 48.26-1.27L48.26-1.27L48.26-1.27Q48.30-1.23 48.30-1.18L48.30-1.18L48.30-0.13L48.30-0.13Q48.30-0.01 48.17 0.01L48.17 0.01L48.17 0.01Q47.71 0.03 47.51 0.03L47.51 0.03L47.51 0.03Q46.60 0.03 46.14-0.27L46.14-0.27L46.14-0.27Q45.69-0.57 45.68-1.41L45.68-1.41L45.68-4.36L45.68-4.36Q45.68-4.41 45.63-4.41L45.63-4.41L45.00-4.41L45.00-4.41Q44.95-4.41 44.91-4.45L44.91-4.45L44.91-4.45Q44.87-4.49 44.87-4.54L44.87-4.54L44.87-5.52L44.87-5.52Q44.87-5.58 44.91-5.62L44.91-5.62L44.91-5.62Q44.95-5.65 45.00-5.65L45.00-5.65L45.63-5.65L45.63-5.65Q45.68-5.65 45.68-5.71L45.68-5.71L45.68-7.02L45.68-7.02Q45.68-7.07 45.72-7.11L45.72-7.11L45.72-7.11Q45.76-7.15 45.81-7.15L45.81-7.15L47.05-7.15L47.05-7.15Q47.10-7.15 47.14-7.11L47.14-7.11L47.14-7.11Q47.18-7.07 47.18-7.02L47.18-7.02L47.18-5.71L47.18-5.71Q47.18-5.65 47.23-5.65L47.23-5.65L48.29-5.65L48.29-5.65Q48.34-5.65 48.38-5.62L48.38-5.62L48.38-5.62Q48.42-5.58 48.42-5.52L48.42-5.52L48.42-4.54ZM51.61 0.08L51.61 0.08Q50.88 0.08 50.32-0.13L50.32-0.13L50.32-0.13Q49.77-0.34 49.47-0.71L49.47-0.71L49.47-0.71Q49.17-1.09 49.17-1.56L49.17-1.56L49.17-1.67L49.17-1.67Q49.17-1.73 49.21-1.77L49.21-1.77L49.21-1.77Q49.25-1.80 49.30-1.80L49.30-1.80L50.52-1.80L50.52-1.80Q50.58-1.80 50.62-1.77L50.62-1.77L50.62-1.77Q50.65-1.73 50.65-1.67L50.65-1.67L50.65-1.66L50.65-1.66Q50.65-1.42 50.92-1.25L50.92-1.25L50.92-1.25Q51.19-1.08 51.60-1.08L51.60-1.08L51.60-1.08Q51.97-1.08 52.21-1.23L52.21-1.23L52.21-1.23Q52.44-1.38 52.44-1.59L52.44-1.59L52.44-1.59Q52.44-1.79 52.24-1.89L52.24-1.89L52.24-1.89Q52.04-1.99 51.59-2.10L51.59-2.10L51.59-2.10Q51.07-2.23 50.78-2.35L50.78-2.35L50.78-2.35Q50.07-2.60 49.65-2.95L49.65-2.95L49.65-2.95Q49.24-3.30 49.24-3.96L49.24-3.96L49.24-3.96Q49.24-4.77 49.87-5.25L49.87-5.25L49.87-5.25Q50.50-5.73 51.55-5.73L51.55-5.73L51.55-5.73Q52.25-5.73 52.78-5.51L52.78-5.51L52.78-5.51Q53.31-5.28 53.60-4.87L53.60-4.87L53.60-4.87Q53.89-4.47 53.89-3.95L53.89-3.95L53.89-3.95Q53.89-3.89 53.85-3.86L53.85-3.86L53.85-3.86Q53.81-3.82 53.76-3.82L53.76-3.82L52.58-3.82L52.58-3.82Q52.52-3.82 52.49-3.86L52.49-3.86L52.49-3.86Q52.45-3.89 52.45-3.95L52.45-3.95L52.45-3.95Q52.45-4.19 52.20-4.36L52.20-4.36L52.20-4.36Q51.95-4.52 51.55-4.52L51.55-4.52L51.55-4.52Q51.18-4.52 50.95-4.39L50.95-4.39L50.95-4.39Q50.72-4.26 50.72-4.03L50.72-4.03L50.72-4.03Q50.72-3.81 50.95-3.70L50.95-3.70L50.95-3.70Q51.17-3.59 51.70-3.46L51.70-3.46L51.70-3.46Q51.82-3.43 51.97-3.39L51.97-3.39L51.97-3.39Q52.13-3.35 52.30-3.30L52.30-3.30L52.30-3.30Q53.09-3.07 53.54-2.71L53.54-2.71L53.54-2.71Q53.99-2.34 53.99-1.65L53.99-1.65L53.99-1.65Q53.99-0.84 53.34-0.38L53.34-0.38L53.34-0.38Q52.70 0.08 51.61 0.08L51.61 0.08Z"/><path fill="#242530" transform="translate(21.56, 75.4)" d="M5.24-6.92L5.24-6.92Q5.29-7 5.38-7L5.38-7L6.30-7L6.30-7Q6.35-7 6.38-6.96L6.38-6.96L6.38-6.96Q6.42-6.93 6.42-6.88L6.42-6.88L6.42-0.12L6.42-0.12Q6.42-0.07 6.38-0.04L6.38-0.04L6.38-0.04Q6.35 0 6.30 0L6.30 0L5.38 0L5.38 0Q5.33 0 5.29-0.04L5.29-0.04L5.29-0.04Q5.26-0.07 5.26-0.12L5.26-0.12L5.26-4.89L5.26-4.89Q5.26-4.92 5.24-4.93L5.24-4.93L5.24-4.93Q5.21-4.94 5.20-4.91L5.20-4.91L3.95-2.99L3.95-2.99Q3.90-2.91 3.81-2.91L3.81-2.91L3.35-2.91L3.35-2.91Q3.26-2.91 3.21-2.99L3.21-2.99L1.95-4.90L1.95-4.90Q1.94-4.93 1.92-4.92L1.92-4.92L1.92-4.92Q1.89-4.91 1.89-4.88L1.89-4.88L1.89-0.12L1.89-0.12Q1.89-0.07 1.85-0.04L1.85-0.04L1.85-0.04Q1.82 0 1.77 0L1.77 0L0.85 0L0.85 0Q0.80 0 0.77-0.04L0.77-0.04L0.77-0.04Q0.73-0.07 0.73-0.12L0.73-0.12L0.73-6.88L0.73-6.88Q0.73-6.93 0.77-6.96L0.77-6.96L0.77-6.96Q0.80-7 0.85-7L0.85-7L1.77-7L1.77-7Q1.86-7 1.91-6.92L1.91-6.92L3.54-4.45L3.54-4.45Q3.56-4.43 3.58-4.43L3.58-4.43L3.58-4.43Q3.60-4.43 3.61-4.45L3.61-4.45L5.24-6.92ZM8.43-5.81L8.43-5.81Q8.12-5.81 7.92-6.01L7.92-6.01L7.92-6.01Q7.72-6.21 7.72-6.52L7.72-6.52L7.72-6.52Q7.72-6.83 7.92-7.03L7.92-7.03L7.92-7.03Q8.12-7.23 8.43-7.23L8.43-7.23L8.43-7.23Q8.74-7.23 8.94-7.03L8.94-7.03L8.94-7.03Q9.14-6.83 9.14-6.52L9.14-6.52L9.14-6.52Q9.14-6.21 8.94-6.01L8.94-6.01L8.94-6.01Q8.74-5.81 8.43-5.81L8.43-5.81ZM7.95 0L7.95 0Q7.90 0 7.87-0.04L7.87-0.04L7.87-0.04Q7.83-0.07 7.83-0.12L7.83-0.12L7.83-5L7.83-5Q7.83-5.05 7.87-5.08L7.87-5.08L7.87-5.08Q7.90-5.12 7.95-5.12L7.95-5.12L8.87-5.12L8.87-5.12Q8.92-5.12 8.96-5.08L8.96-5.08L8.96-5.08Q8.99-5.05 8.99-5L8.99-5L8.99-0.12L8.99-0.12Q8.99-0.07 8.96-0.04L8.96-0.04L8.96-0.04Q8.92 0 8.87 0L8.87 0L7.95 0ZM13.49-6.88L13.49-6.88Q13.49-6.93 13.53-6.96L13.53-6.96L13.53-6.96Q13.56-7 13.61-7L13.61-7L14.53-7L14.53-7Q14.58-7 14.62-6.96L14.62-6.96L14.62-6.96Q14.65-6.93 14.65-6.88L14.65-6.88L14.65-0.12L14.65-0.12Q14.65-0.07 14.62-0.04L14.62-0.04L14.62-0.04Q14.58 0 14.53 0L14.53 0L13.61 0L13.61 0Q13.56 0 13.53-0.04L13.53-0.04L13.53-0.04Q13.49-0.07 13.49-0.12L13.49-0.12L13.49-0.42L13.49-0.42Q13.49-0.45 13.47-0.46L13.47-0.46L13.47-0.46Q13.45-0.47 13.43-0.44L13.43-0.44L13.43-0.44Q12.99 0.08 12.28 0.08L12.28 0.08L12.28 0.08Q11.57 0.08 11.08-0.29L11.08-0.29L11.08-0.29Q10.59-0.66 10.37-1.32L10.37-1.32L10.37-1.32Q10.19-1.88 10.19-2.57L10.19-2.57L10.19-2.57Q10.19-3.28 10.36-3.79L10.36-3.79L10.36-3.79Q10.58-4.45 11.07-4.82L11.07-4.82L11.07-4.82Q11.56-5.19 12.30-5.19L12.30-5.19L12.30-5.19Q12.99-5.19 13.43-4.69L13.43-4.69L13.43-4.69Q13.45-4.67 13.47-4.67L13.47-4.67L13.47-4.67Q13.49-4.68 13.49-4.71L13.49-4.71L13.49-6.88ZM13.25-1.40L13.25-1.40Q13.48-1.81 13.48-2.56L13.48-2.56L13.48-2.56Q13.48-3.34 13.23-3.75L13.23-3.75L13.23-3.75Q12.96-4.19 12.47-4.19L12.47-4.19L12.47-4.19Q11.96-4.19 11.67-3.77L11.67-3.77L11.67-3.77Q11.37-3.33 11.37-2.55L11.37-2.55L11.37-2.55Q11.37-1.85 11.61-1.40L11.61-1.40L11.61-1.40Q11.89-0.92 12.46-0.92L12.46-0.92L12.46-0.92Q12.97-0.92 13.25-1.40L13.25-1.40ZM15.73-2.51L15.73-2.51Q15.68-2.51 15.65-2.54L15.65-2.54L15.65-2.54Q15.61-2.58 15.61-2.63L15.61-2.63L15.61-3.39L15.61-3.39Q15.61-3.44 15.65-3.48L15.65-3.48L15.65-3.48Q15.68-3.51 15.73-3.51L15.73-3.51L18.88-3.51L18.88-3.51Q18.93-3.51 18.96-3.48L18.96-3.48L18.96-3.48Q19-3.44 19-3.39L19-3.39L19-2.63L19-2.63Q19-2.58 18.96-2.54L18.96-2.54L18.96-2.54Q18.93-2.51 18.88-2.51L18.88-2.51L15.73-2.51ZM24.57-6.92L24.57-6.92Q24.62-7 24.71-7L24.71-7L25.63-7L25.63-7Q25.68-7 25.72-6.96L25.72-6.96L25.72-6.96Q25.75-6.93 25.75-6.88L25.75-6.88L25.75-0.12L25.75-0.12Q25.75-0.07 25.72-0.04L25.72-0.04L25.72-0.04Q25.68 0 25.63 0L25.63 0L24.71 0L24.71 0Q24.66 0 24.63-0.04L24.63-0.04L24.63-0.04Q24.59-0.07 24.59-0.12L24.59-0.12L24.59-4.89L24.59-4.89Q24.59-4.92 24.57-4.93L24.57-4.93L24.57-4.93Q24.54-4.94 24.53-4.91L24.53-4.91L23.28-2.99L23.28-2.99Q23.23-2.91 23.14-2.91L23.14-2.91L22.68-2.91L22.68-2.91Q22.59-2.91 22.54-2.99L22.54-2.99L21.28-4.90L21.28-4.90Q21.27-4.93 21.25-4.92L21.25-4.92L21.25-4.92Q21.22-4.91 21.22-4.88L21.22-4.88L21.22-0.12L21.22-0.12Q21.22-0.07 21.19-0.04L21.19-0.04L21.19-0.04Q21.15 0 21.10 0L21.10 0L20.18 0L20.18 0Q20.13 0 20.10-0.04L20.10-0.04L20.10-0.04Q20.06-0.07 20.06-0.12L20.06-0.12L20.06-6.88L20.06-6.88Q20.06-6.93 20.10-6.96L20.10-6.96L20.10-6.96Q20.13-7 20.18-7L20.18-7L21.10-7L21.10-7Q21.19-7 21.24-6.92L21.24-6.92L22.87-4.45L22.87-4.45Q22.89-4.43 22.91-4.43L22.91-4.43L22.91-4.43Q22.93-4.43 22.94-4.45L22.94-4.45L24.57-6.92ZM29.05-5.19L29.05-5.19Q29.68-5.19 30.16-4.97L30.16-4.97L30.16-4.97Q30.64-4.75 30.90-4.37L30.90-4.37L30.90-4.37Q31.16-3.98 31.16-3.49L31.16-3.49L31.16-0.12L31.16-0.12Q31.16-0.07 31.13-0.04L31.13-0.04L31.13-0.04Q31.09 0 31.04 0L31.04 0L30.12 0L30.12 0Q30.07 0 30.04-0.04L30.04-0.04L30.04-0.04Q30.00-0.07 30.00-0.12L30.00-0.12L30.00-0.44L30.00-0.44Q30.00-0.47 29.98-0.48L29.98-0.48L29.98-0.48Q29.96-0.48 29.94-0.46L29.94-0.46L29.94-0.46Q29.45 0.08 28.52 0.08L28.52 0.08L28.52 0.08Q27.77 0.08 27.29-0.30L27.29-0.30L27.29-0.30Q26.80-0.68 26.80-1.43L26.80-1.43L26.80-1.43Q26.80-2.21 27.35-2.65L27.35-2.65L27.35-2.65Q27.89-3.08 28.88-3.08L28.88-3.08L29.95-3.08L29.95-3.08Q30.00-3.08 30.00-3.13L30.00-3.13L30.00-3.37L30.00-3.37Q30.00-3.76 29.77-3.98L29.77-3.98L29.77-3.98Q29.54-4.19 29.08-4.19L29.08-4.19L29.08-4.19Q28.70-4.19 28.47-4.05L28.47-4.05L28.47-4.05Q28.23-3.92 28.17-3.68L28.17-3.68L28.17-3.68Q28.14-3.56 28.03-3.58L28.03-3.58L27.06-3.70L27.06-3.70Q27.01-3.71 26.98-3.73L26.98-3.73L26.98-3.73Q26.94-3.76 26.95-3.80L26.95-3.80L26.95-3.80Q27.03-4.41 27.61-4.80L27.61-4.80L27.61-4.80Q28.18-5.19 29.05-5.19L29.05-5.19ZM28.81-0.84L28.81-0.84Q29.30-0.84 29.65-1.10L29.65-1.10L29.65-1.10Q30.00-1.36 30.00-1.76L30.00-1.76L30.00-2.23L30.00-2.23Q30.00-2.28 29.95-2.28L29.95-2.28L29.11-2.28L29.11-2.28Q28.58-2.28 28.28-2.08L28.28-2.08L28.28-2.08Q27.97-1.88 27.97-1.51L27.97-1.51L27.97-1.51Q27.97-1.19 28.21-1.02L28.21-1.02L28.21-1.02Q28.44-0.84 28.81-0.84L28.81-0.84ZM34.70-5.17L34.70-5.17Q35.02-5.17 35.26-5.04L35.26-5.04L35.26-5.04Q35.34-5 35.32-4.89L35.32-4.89L35.15-3.99L35.15-3.99Q35.14-3.87 35.01-3.92L35.01-3.92L35.01-3.92Q34.86-3.97 34.66-3.97L34.66-3.97L34.66-3.97Q34.53-3.97 34.46-3.96L34.46-3.96L34.46-3.96Q34.04-3.94 33.76-3.67L33.76-3.67L33.76-3.67Q33.48-3.39 33.48-2.95L33.48-2.95L33.48-0.12L33.48-0.12Q33.48-0.07 33.45-0.04L33.45-0.04L33.45-0.04Q33.41 0 33.36 0L33.36 0L32.44 0L32.44 0Q32.39 0 32.36-0.04L32.36-0.04L32.36-0.04Q32.32-0.07 32.32-0.12L32.32-0.12L32.32-4.99L32.32-4.99Q32.32-5.04 32.36-5.08L32.36-5.08L32.36-5.08Q32.39-5.11 32.44-5.11L32.44-5.11L33.36-5.11L33.36-5.11Q33.41-5.11 33.45-5.08L33.45-5.08L33.45-5.08Q33.48-5.04 33.48-4.99L33.48-4.99L33.48-4.54L33.48-4.54Q33.48-4.50 33.50-4.50L33.50-4.50L33.50-4.50Q33.51-4.49 33.53-4.52L33.53-4.52L33.53-4.52Q33.95-5.17 34.70-5.17L34.70-5.17ZM36.20 0L36.20 0Q36.15 0 36.12-0.04L36.12-0.04L36.12-0.04Q36.08-0.07 36.08-0.12L36.08-0.12L36.08-6.88L36.08-6.88Q36.08-6.93 36.12-6.96L36.12-6.96L36.12-6.96Q36.15-7 36.20-7L36.20-7L37.12-7L37.12-7Q37.17-7 37.20-6.96L37.20-6.96L37.20-6.96Q37.24-6.93 37.24-6.88L37.24-6.88L37.24-3.27L37.24-3.27Q37.24-3.24 37.26-3.23L37.26-3.23L37.26-3.23Q37.28-3.22 37.30-3.25L37.30-3.25L38.92-5.04L38.92-5.04Q38.99-5.11 39.07-5.11L39.07-5.11L40.13-5.11L40.13-5.11Q40.23-5.11 40.23-5.04L40.23-5.04L40.23-5.04Q40.23-5.01 40.20-4.96L40.20-4.96L38.93-3.44L38.93-3.44Q38.90-3.41 38.92-3.37L38.92-3.37L40.42-0.14L40.42-0.14Q40.44-0.10 40.44-0.08L40.44-0.08L40.44-0.08Q40.44 0 40.33 0L40.33 0L39.36 0L39.36 0Q39.26 0 39.22-0.09L39.22-0.09L38.13-2.63L38.13-2.63Q38.12-2.65 38.09-2.66L38.09-2.66L38.09-2.66Q38.07-2.66 38.06-2.64L38.06-2.64L37.26-1.72L37.26-1.72Q37.24-1.68 37.24-1.65L37.24-1.65L37.24-0.12L37.24-0.12Q37.24-0.07 37.20-0.04L37.20-0.04L37.20-0.04Q37.17 0 37.12 0L37.12 0L36.20 0ZM45.61-3.13L45.61-3.13Q45.65-2.88 45.65-2.57L45.65-2.57L45.64-2.26L45.64-2.26Q45.64-2.14 45.52-2.14L45.52-2.14L42.39-2.14L42.39-2.14Q42.34-2.14 42.34-2.09L42.34-2.09L42.34-2.09Q42.37-1.76 42.43-1.64L42.43-1.64L42.43-1.64Q42.67-0.92 43.60-0.91L43.60-0.91L43.60-0.91Q44.28-0.91 44.68-1.47L44.68-1.47L44.68-1.47Q44.72-1.53 44.78-1.53L44.78-1.53L44.78-1.53Q44.82-1.53 44.85-1.50L44.85-1.50L45.47-0.99L45.47-0.99Q45.56-0.92 45.50-0.83L45.50-0.83L45.50-0.83Q45.19-0.39 44.67-0.15L44.67-0.15L44.67-0.15Q44.16 0.09 43.53 0.09L43.53 0.09L43.53 0.09Q42.75 0.09 42.20-0.26L42.20-0.26L42.20-0.26Q41.66-0.61 41.41-1.24L41.41-1.24L41.41-1.24Q41.18-1.78 41.18-2.74L41.18-2.74L41.18-2.74Q41.18-3.32 41.30-3.68L41.30-3.68L41.30-3.68Q41.50-4.38 42.05-4.79L42.05-4.79L42.05-4.79Q42.61-5.19 43.39-5.19L43.39-5.19L43.39-5.19Q45.36-5.19 45.61-3.13L45.61-3.13ZM43.39-4.19L43.39-4.19Q43.02-4.19 42.77-4.00L42.77-4.00L42.77-4.00Q42.53-3.82 42.43-3.49L42.43-3.49L42.43-3.49Q42.37-3.32 42.35-3.05L42.35-3.05L42.35-3.05Q42.33-3 42.39-3L42.39-3L44.42-3L44.42-3Q44.47-3 44.47-3.05L44.47-3.05L44.47-3.05Q44.45-3.30 44.41-3.43L44.41-3.43L44.41-3.43Q44.32-3.79 44.05-3.99L44.05-3.99L44.05-3.99Q43.79-4.19 43.39-4.19L43.39-4.19ZM49.42-4.29L49.42-4.29Q49.42-4.24 49.39-4.21L49.39-4.21L49.39-4.21Q49.35-4.17 49.30-4.17L49.30-4.17L48.28-4.17L48.28-4.17Q48.23-4.17 48.23-4.12L48.23-4.12L48.23-1.71L48.23-1.71Q48.23-1.33 48.40-1.16L48.40-1.16L48.40-1.16Q48.56-0.99 48.92-0.99L48.92-0.99L49.22-0.99L49.22-0.99Q49.27-0.99 49.31-0.96L49.31-0.96L49.31-0.96Q49.34-0.92 49.34-0.87L49.34-0.87L49.34-0.12L49.34-0.12Q49.34-0.01 49.22 0.01L49.22 0.01L48.70 0.02L48.70 0.02Q47.91 0.02 47.52-0.25L47.52-0.25L47.52-0.25Q47.13-0.52 47.12-1.27L47.12-1.27L47.12-4.12L47.12-4.12Q47.12-4.17 47.07-4.17L47.07-4.17L46.50-4.17L46.50-4.17Q46.45-4.17 46.42-4.21L46.42-4.21L46.42-4.21Q46.38-4.24 46.38-4.29L46.38-4.29L46.38-4.99L46.38-4.99Q46.38-5.04 46.42-5.08L46.42-5.08L46.42-5.08Q46.45-5.11 46.50-5.11L46.50-5.11L47.07-5.11L47.07-5.11Q47.12-5.11 47.12-5.16L47.12-5.16L47.12-6.33L47.12-6.33Q47.12-6.38 47.16-6.42L47.16-6.42L47.16-6.42Q47.19-6.45 47.24-6.45L47.24-6.45L48.11-6.45L48.11-6.45Q48.16-6.45 48.20-6.42L48.20-6.42L48.20-6.42Q48.23-6.38 48.23-6.33L48.23-6.33L48.23-5.16L48.23-5.16Q48.23-5.11 48.28-5.11L48.28-5.11L49.30-5.11L49.30-5.11Q49.35-5.11 49.39-5.08L49.39-5.08L49.39-5.08Q49.42-5.04 49.42-4.99L49.42-4.99L49.42-4.29Z"/><path fill="#252530" transform="translate(27.56, 89.5)" d="M3.01 0.08L3.01 0.08Q2.21 0.08 1.61-0.18L1.61-0.18L1.61-0.18Q1.01-0.43 0.69-0.91L0.69-0.91L0.69-0.91Q0.36-1.38 0.36-2.01L0.36-2.01L0.36-2.23L0.36-2.23Q0.36-2.28 0.40-2.31L0.40-2.31L0.40-2.31Q0.43-2.35 0.48-2.35L0.48-2.35L1.62-2.35L1.62-2.35Q1.67-2.35 1.71-2.31L1.71-2.31L1.71-2.31Q1.74-2.28 1.74-2.23L1.74-2.23L1.74-2.08L1.74-2.08Q1.74-1.68 2.11-1.41L2.11-1.41L2.11-1.41Q2.48-1.13 3.11-1.13L3.11-1.13L3.11-1.13Q3.64-1.13 3.90-1.35L3.90-1.35L3.90-1.35Q4.16-1.58 4.16-1.91L4.16-1.91L4.16-1.91Q4.16-2.15 4-2.31L4-2.31L4-2.31Q3.84-2.48 3.56-2.60L3.56-2.60L3.56-2.60Q3.29-2.73 2.69-2.95L2.69-2.95L2.69-2.95Q2.02-3.18 1.55-3.42L1.55-3.42L1.55-3.42Q1.09-3.66 0.78-4.08L0.78-4.08L0.78-4.08Q0.46-4.49 0.46-5.10L0.46-5.10L0.46-5.10Q0.46-5.70 0.77-6.15L0.77-6.15L0.77-6.15Q1.08-6.60 1.63-6.84L1.63-6.84L1.63-6.84Q2.18-7.08 2.90-7.08L2.90-7.08L2.90-7.08Q3.66-7.08 4.25-6.81L4.25-6.81L4.25-6.81Q4.85-6.54 5.19-6.05L5.19-6.05L5.19-6.05Q5.52-5.57 5.52-4.93L5.52-4.93L5.52-4.78L5.52-4.78Q5.52-4.73 5.49-4.70L5.49-4.70L5.49-4.70Q5.45-4.66 5.40-4.66L5.40-4.66L4.25-4.66L4.25-4.66Q4.20-4.66 4.17-4.70L4.17-4.70L4.17-4.70Q4.13-4.73 4.13-4.78L4.13-4.78L4.13-4.86L4.13-4.86Q4.13-5.28 3.79-5.58L3.79-5.58L3.79-5.58Q3.44-5.87 2.84-5.87L2.84-5.87L2.84-5.87Q2.37-5.87 2.10-5.67L2.10-5.67L2.10-5.67Q1.84-5.47 1.84-5.12L1.84-5.12L1.84-5.12Q1.84-4.87 2.00-4.70L2.00-4.70L2.00-4.70Q2.15-4.53 2.46-4.40L2.46-4.40L2.46-4.40Q2.76-4.26 3.40-4.03L3.40-4.03L3.40-4.03Q4.11-3.77 4.51-3.57L4.51-3.57L4.51-3.57Q4.92-3.37 5.25-2.98L5.25-2.98L5.25-2.98Q5.57-2.58 5.57-1.95L5.57-1.95L5.57-1.95Q5.57-1.01 4.88-0.47L4.88-0.47L4.88-0.47Q4.19 0.08 3.01 0.08L3.01 0.08ZM9.10 0.08L9.10 0.08Q8.33 0.08 7.75-0.22L7.75-0.22L7.75-0.22Q7.16-0.52 6.83-1.06L6.83-1.06L6.83-1.06Q6.51-1.61 6.51-2.32L6.51-2.32L6.51-6.88L6.51-6.88Q6.51-6.93 6.54-6.96L6.54-6.96L6.54-6.96Q6.58-7 6.63-7L6.63-7L7.80-7L7.80-7Q7.85-7 7.88-6.96L7.88-6.96L7.88-6.96Q7.92-6.93 7.92-6.88L7.92-6.88L7.92-2.31L7.92-2.31Q7.92-1.78 8.25-1.46L8.25-1.46L8.25-1.46Q8.57-1.13 9.10-1.13L9.10-1.13L9.10-1.13Q9.63-1.13 9.96-1.46L9.96-1.46L9.96-1.46Q10.28-1.78 10.28-2.31L10.28-2.31L10.28-6.88L10.28-6.88Q10.28-6.93 10.32-6.96L10.32-6.96L10.32-6.96Q10.35-7 10.40-7L10.40-7L11.57-7L11.57-7Q11.62-7 11.66-6.96L11.66-6.96L11.66-6.96Q11.69-6.93 11.69-6.88L11.69-6.88L11.69-2.32L11.69-2.32Q11.69-1.61 11.37-1.06L11.37-1.06L11.37-1.06Q11.04-0.52 10.46-0.22L10.46-0.22L10.46-0.22Q9.87 0.08 9.10 0.08L9.10 0.08ZM17.35-6.92L17.35-6.92Q17.40-7 17.49-7L17.49-7L18.66-7L18.66-7Q18.71-7 18.75-6.96L18.75-6.96L18.75-6.96Q18.78-6.93 18.78-6.88L18.78-6.88L18.78-0.12L18.78-0.12Q18.78-0.07 18.75-0.04L18.75-0.04L18.75-0.04Q18.71 0 18.66 0L18.66 0L17.49 0L17.49 0Q17.44 0 17.41-0.04L17.41-0.04L17.41-0.04Q17.37-0.07 17.37-0.12L17.37-0.12L17.37-4.53L17.37-4.53Q17.37-4.57 17.35-4.57L17.35-4.57L17.35-4.57Q17.33-4.57 17.31-4.54L17.31-4.54L16.25-2.88L16.25-2.88Q16.20-2.80 16.11-2.80L16.11-2.80L15.52-2.80L15.52-2.80Q15.43-2.80 15.38-2.88L15.38-2.88L14.32-4.54L14.32-4.54Q14.30-4.57 14.28-4.57L14.28-4.57L14.28-4.57Q14.26-4.56 14.26-4.52L14.26-4.52L14.26-0.12L14.26-0.12Q14.26-0.07 14.22-0.04L14.22-0.04L14.22-0.04Q14.19 0 14.14 0L14.14 0L12.97 0L12.97 0Q12.92 0 12.88-0.04L12.88-0.04L12.88-0.04Q12.85-0.07 12.85-0.12L12.85-0.12L12.85-6.88L12.85-6.88Q12.85-6.93 12.88-6.96L12.88-6.96L12.88-6.96Q12.92-7 12.97-7L12.97-7L14.14-7L14.14-7Q14.23-7 14.28-6.92L14.28-6.92L15.78-4.59L15.78-4.59Q15.81-4.53 15.84-4.59L15.84-4.59L17.35-6.92ZM24.50-6.92L24.50-6.92Q24.55-7 24.64-7L24.64-7L25.81-7L25.81-7Q25.86-7 25.89-6.96L25.89-6.96L25.89-6.96Q25.93-6.93 25.93-6.88L25.93-6.88L25.93-0.12L25.93-0.12Q25.93-0.07 25.89-0.04L25.89-0.04L25.89-0.04Q25.86 0 25.81 0L25.81 0L24.64 0L24.64 0Q24.59 0 24.55-0.04L24.55-0.04L24.55-0.04Q24.52-0.07 24.52-0.12L24.52-0.12L24.52-4.53L24.52-4.53Q24.52-4.57 24.50-4.57L24.50-4.57L24.50-4.57Q24.48-4.57 24.46-4.54L24.46-4.54L23.40-2.88L23.40-2.88Q23.35-2.80 23.26-2.80L23.26-2.80L22.67-2.80L22.67-2.80Q22.58-2.80 22.53-2.88L22.53-2.88L21.47-4.54L21.47-4.54Q21.45-4.57 21.43-4.57L21.43-4.57L21.43-4.57Q21.41-4.56 21.41-4.52L21.41-4.52L21.41-0.12L21.41-0.12Q21.41-0.07 21.38-0.04L21.38-0.04L21.38-0.04Q21.34 0 21.29 0L21.29 0L20.12 0L20.12 0Q20.07 0 20.04-0.04L20.04-0.04L20.04-0.04Q20-0.07 20-0.12L20-0.12L20-6.88L20-6.88Q20-6.93 20.04-6.96L20.04-6.96L20.04-6.96Q20.07-7 20.12-7L20.12-7L21.29-7L21.29-7Q21.38-7 21.43-6.92L21.43-6.92L22.93-4.59L22.93-4.59Q22.96-4.53 22.99-4.59L22.99-4.59L24.50-6.92ZM32.01-5.91L32.01-5.91Q32.01-5.86 31.98-5.83L31.98-5.83L31.98-5.83Q31.94-5.79 31.89-5.79L31.89-5.79L28.61-5.79L28.61-5.79Q28.56-5.79 28.56-5.74L28.56-5.74L28.56-4.19L28.56-4.19Q28.56-4.14 28.61-4.14L28.61-4.14L30.76-4.14L30.76-4.14Q30.81-4.14 30.84-4.11L30.84-4.11L30.84-4.11Q30.88-4.07 30.88-4.02L30.88-4.02L30.88-3.05L30.88-3.05Q30.88-3 30.84-2.96L30.84-2.96L30.84-2.96Q30.81-2.93 30.76-2.93L30.76-2.93L28.61-2.93L28.61-2.93Q28.56-2.93 28.56-2.88L28.56-2.88L28.56-1.26L28.56-1.26Q28.56-1.21 28.61-1.21L28.61-1.21L31.89-1.21L31.89-1.21Q31.94-1.21 31.98-1.18L31.98-1.18L31.98-1.18Q32.01-1.14 32.01-1.09L32.01-1.09L32.01-0.12L32.01-0.12Q32.01-0.07 31.98-0.04L31.98-0.04L31.98-0.04Q31.94 0 31.89 0L31.89 0L27.27 0L27.27 0Q27.22 0 27.18-0.04L27.18-0.04L27.18-0.04Q27.15-0.07 27.15-0.12L27.15-0.12L27.15-6.88L27.15-6.88Q27.15-6.93 27.18-6.96L27.18-6.96L27.18-6.96Q27.22-7 27.27-7L27.27-7L31.89-7L31.89-7Q31.94-7 31.98-6.96L31.98-6.96L31.98-6.96Q32.01-6.93 32.01-6.88L32.01-6.88L32.01-5.91ZM36.83 0L36.83 0Q36.73 0 36.69-0.09L36.69-0.09L35.44-2.86L35.44-2.86Q35.42-2.90 35.38-2.90L35.38-2.90L34.45-2.90L34.45-2.90Q34.40-2.90 34.40-2.85L34.40-2.85L34.40-0.12L34.40-0.12Q34.40-0.07 34.36-0.04L34.36-0.04L34.36-0.04Q34.33 0 34.28 0L34.28 0L33.11 0L33.11 0Q33.06 0 33.02-0.04L33.02-0.04L33.02-0.04Q32.99-0.07 32.99-0.12L32.99-0.12L32.99-6.88L32.99-6.88Q32.99-6.93 33.02-6.96L33.02-6.96L33.02-6.96Q33.06-7 33.11-7L33.11-7L35.97-7L35.97-7Q36.61-7 37.09-6.74L37.09-6.74L37.09-6.74Q37.58-6.48 37.84-6L37.84-6L37.84-6Q38.11-5.52 38.11-4.89L38.11-4.89L38.11-4.89Q38.11-4.21 37.77-3.73L37.77-3.73L37.77-3.73Q37.43-3.24 36.82-3.04L36.82-3.04L36.82-3.04Q36.77-3.02 36.79-2.97L36.79-2.97L38.15-0.14L38.15-0.14Q38.17-0.10 38.17-0.08L38.17-0.08L38.17-0.08Q38.17 0 38.06 0L38.06 0L36.83 0ZM34.45-5.79L34.45-5.79Q34.40-5.79 34.40-5.74L34.40-5.74L34.40-4.03L34.40-4.03Q34.40-3.98 34.45-3.98L34.45-3.98L35.76-3.98L35.76-3.98Q36.18-3.98 36.44-4.23L36.44-4.23L36.44-4.23Q36.71-4.48 36.71-4.88L36.71-4.88L36.71-4.88Q36.71-5.28 36.44-5.54L36.44-5.54L36.44-5.54Q36.18-5.79 35.76-5.79L35.76-5.79L34.45-5.79Z"/><path fill="#252530" transform="translate(35.53, 98.9)" d="M2.33-1.27L2.33-1.27Q2.31-1.25 2.32-1.23L2.32-1.23L2.32-1.23Q2.33-1.21 2.36-1.21L2.36-1.21L5.07-1.21L5.07-1.21Q5.12-1.21 5.16-1.18L5.16-1.18L5.16-1.18Q5.19-1.14 5.19-1.09L5.19-1.09L5.19-0.12L5.19-0.12Q5.19-0.07 5.16-0.04L5.16-0.04L5.16-0.04Q5.12 0 5.07 0L5.07 0L0.57 0L0.57 0Q0.52 0 0.48-0.04L0.48-0.04L0.48-0.04Q0.45-0.07 0.45-0.12L0.45-0.12L0.45-1.04L0.45-1.04Q0.45-1.13 0.51-1.19L0.51-1.19L0.51-1.19Q1-1.67 1.51-2.23L1.51-2.23L1.51-2.23Q2.02-2.80 2.15-2.94L2.15-2.94L2.15-2.94Q2.43-3.27 2.72-3.57L2.72-3.57L2.72-3.57Q3.63-4.58 3.63-5.07L3.63-5.07L3.63-5.07Q3.63-5.42 3.38-5.65L3.38-5.65L3.38-5.65Q3.13-5.87 2.73-5.87L2.73-5.87L2.73-5.87Q2.33-5.87 2.08-5.65L2.08-5.65L2.08-5.65Q1.83-5.42 1.83-5.05L1.83-5.05L1.83-4.80L1.83-4.80Q1.83-4.75 1.79-4.71L1.79-4.71L1.79-4.71Q1.76-4.68 1.71-4.68L1.71-4.68L0.53-4.68L0.53-4.68Q0.48-4.68 0.45-4.71L0.45-4.71L0.45-4.71Q0.41-4.75 0.41-4.80L0.41-4.80L0.41-5.27L0.41-5.27Q0.44-5.81 0.75-6.23L0.75-6.23L0.75-6.23Q1.06-6.64 1.57-6.86L1.57-6.86L1.57-6.86Q2.09-7.08 2.73-7.08L2.73-7.08L2.73-7.08Q3.44-7.08 3.97-6.82L3.97-6.82L3.97-6.82Q4.49-6.55 4.78-6.10L4.78-6.10L4.78-6.10Q5.06-5.65 5.06-5.10L5.06-5.10L5.06-5.10Q5.06-4.68 4.85-4.24L4.85-4.24L4.85-4.24Q4.64-3.80 4.22-3.29L4.22-3.29L4.22-3.29Q3.91-2.90 3.55-2.52L3.55-2.52L3.55-2.52Q3.19-2.14 2.48-1.42L2.48-1.42L2.33-1.27ZM8.44 0.11L8.44 0.11Q7.34 0.11 6.70-0.51L6.70-0.51L6.70-0.51Q6.06-1.12 6.06-2.18L6.06-2.18L6.06-4.82L6.06-4.82Q6.06-5.86 6.70-6.47L6.70-6.47L6.70-6.47Q7.34-7.08 8.44-7.08L8.44-7.08L8.44-7.08Q9.54-7.08 10.19-6.47L10.19-6.47L10.19-6.47Q10.83-5.86 10.83-4.82L10.83-4.82L10.83-2.18L10.83-2.18Q10.83-1.12 10.19-0.51L10.19-0.51L10.19-0.51Q9.54 0.11 8.44 0.11L8.44 0.11ZM8.44-1.10L8.44-1.10Q8.89-1.10 9.16-1.38L9.16-1.38L9.16-1.38Q9.42-1.65 9.42-2.11L9.42-2.11L9.42-4.86L9.42-4.86Q9.42-5.32 9.16-5.59L9.16-5.59L9.16-5.59Q8.89-5.87 8.44-5.87L8.44-5.87L8.44-5.87Q8-5.87 7.74-5.59L7.74-5.59L7.74-5.59Q7.47-5.32 7.47-4.86L7.47-4.86L7.47-2.11L7.47-2.11Q7.47-1.65 7.74-1.38L7.74-1.38L7.74-1.38Q8-1.10 8.44-1.10L8.44-1.10ZM13.63-1.27L13.63-1.27Q13.61-1.25 13.62-1.23L13.62-1.23L13.62-1.23Q13.63-1.21 13.66-1.21L13.66-1.21L16.37-1.21L16.37-1.21Q16.42-1.21 16.46-1.18L16.46-1.18L16.46-1.18Q16.49-1.14 16.49-1.09L16.49-1.09L16.49-0.12L16.49-0.12Q16.49-0.07 16.46-0.04L16.46-0.04L16.46-0.04Q16.42 0 16.37 0L16.37 0L11.87 0L11.87 0Q11.82 0 11.79-0.04L11.79-0.04L11.79-0.04Q11.75-0.07 11.75-0.12L11.75-0.12L11.75-1.04L11.75-1.04Q11.75-1.13 11.81-1.19L11.81-1.19L11.81-1.19Q12.30-1.67 12.81-2.23L12.81-2.23L12.81-2.23Q13.32-2.80 13.45-2.94L13.45-2.94L13.45-2.94Q13.73-3.27 14.02-3.57L14.02-3.57L14.02-3.57Q14.93-4.58 14.93-5.07L14.93-5.07L14.93-5.07Q14.93-5.42 14.68-5.65L14.68-5.65L14.68-5.65Q14.43-5.87 14.03-5.87L14.03-5.87L14.03-5.87Q13.63-5.87 13.38-5.65L13.38-5.65L13.38-5.65Q13.13-5.42 13.13-5.05L13.13-5.05L13.13-4.80L13.13-4.80Q13.13-4.75 13.10-4.71L13.10-4.71L13.10-4.71Q13.06-4.68 13.01-4.68L13.01-4.68L11.83-4.68L11.83-4.68Q11.78-4.68 11.75-4.71L11.75-4.71L11.75-4.71Q11.71-4.75 11.71-4.80L11.71-4.80L11.71-5.27L11.71-5.27Q11.74-5.81 12.05-6.23L12.05-6.23L12.05-6.23Q12.36-6.64 12.88-6.86L12.88-6.86L12.88-6.86Q13.39-7.08 14.03-7.08L14.03-7.08L14.03-7.08Q14.74-7.08 15.27-6.82L15.27-6.82L15.27-6.82Q15.79-6.55 16.08-6.10L16.08-6.10L16.08-6.10Q16.36-5.65 16.36-5.10L16.36-5.10L16.36-5.10Q16.36-4.68 16.15-4.24L16.15-4.24L16.15-4.24Q15.94-3.80 15.52-3.29L15.52-3.29L15.52-3.29Q15.21-2.90 14.85-2.52L14.85-2.52L14.85-2.52Q14.49-2.14 13.78-1.42L13.78-1.42L13.63-1.27ZM19.74 0.11L19.74 0.11Q18.64 0.11 18.00-0.51L18.00-0.51L18.00-0.51Q17.36-1.12 17.36-2.18L17.36-2.18L17.36-4.82L17.36-4.82Q17.36-5.86 18.00-6.47L18.00-6.47L18.00-6.47Q18.64-7.08 19.74-7.08L19.74-7.08L19.74-7.08Q20.84-7.08 21.49-6.47L21.49-6.47L21.49-6.47Q22.13-5.86 22.13-4.82L22.13-4.82L22.13-2.18L22.13-2.18Q22.13-1.12 21.49-0.51L21.49-0.51L21.49-0.51Q20.84 0.11 19.74 0.11L19.74 0.11ZM19.74-1.10L19.74-1.10Q20.19-1.10 20.46-1.38L20.46-1.38L20.46-1.38Q20.72-1.65 20.72-2.11L20.72-2.11L20.72-4.86L20.72-4.86Q20.72-5.32 20.46-5.59L20.46-5.59L20.46-5.59Q20.19-5.87 19.74-5.87L19.74-5.87L19.74-5.87Q19.30-5.87 19.04-5.59L19.04-5.59L19.04-5.59Q18.77-5.32 18.77-4.86L18.77-4.86L18.77-2.11L18.77-2.11Q18.77-1.65 19.04-1.38L19.04-1.38L19.04-1.38Q19.30-1.10 19.74-1.10L19.74-1.10Z"/></g>
</svg>
