<svg xmlns="http://www.w3.org/2000/svg" xmlns:xlink="http://www.w3.org/1999/xlink" viewBox="0 0 94 122">
  <g id="container">
    <path fill="#fff" d="M8.1 89.9L47.6 110l38-20.1V11.3H8.1z"/>
    <path fill="#f2f3f2" d="M86.4 11.6L7.3 91.3l41 20.3 38.1-19.5z"/>
    <path d="M5.5 37.5v54.1l1.4.7 39.5 20.1 1.2.6 1.2-.6 38.1-20.1 1.4-.7V8.7H5.5v28.8zm2.6 52.6V11.3h77.6v78.8l-38.1 20.1L8.1 90.1z" fill="#dcdedc"/>
    <path id="logo" d="M46.9 12.6c.4 0 .8 0 1.2.1L46.9 15c-1.8-.1-3.4 1.3-3.5 3.1-.1 1.8 1.3 3.4 3.1 3.5h.4c.8 0 1.6-.3 2.2-.8l1.3 2.2c-1 .7-2.2 1.1-3.5 1.1-3.2.1-5.9-2.3-6-5.5-.1-3.2 2.3-5.9 5.5-6h.5zm4.1 4.9l1.5 2.5-1.5 2.4-1.4-2.4h-2.9l1.5-2.5H51zm-2.4-.9c0-.4.1-.8.3-1.1.2-.3.6-.6.9-.8l.2-.1c.4-.2.5-.3.5-.5s-.3-.4-.5-.4c-.4 0-.7.2-.9.6l-.5-.5c.1-.2.3-.4.5-.6.3-.2.6-.2.9-.2.3 0 .7.1.9.3.2.2.4.5.4.8 0 .5-.3.9-.9 1.1l-.3.2c-.3.2-.5.3-.6.6h1.8v.7l-2.7-.1zm-1.7 12.5l9.5-5.4v-15H37.3v14.9l9.6 5.5z" fill="#ff492c"/>
    <path id="banner" d="M90.2 64.5H3.6l-3.2 7 3.2 7h86.6l3.1-7z" fill="#2690ce"/>
  <path fill="#252530" transform="translate(9.95, 60)" d="M0.80 0L0.80 0Q0.75 0 0.71-0.04L0.71-0.04L0.71-0.04Q0.67-0.08 0.67-0.13L0.67-0.13L0.67-7.57L0.67-7.57Q0.67-7.62 0.71-7.66L0.71-7.66L0.71-7.66Q0.75-7.70 0.80-7.70L0.80-7.70L2.09-7.70L2.09-7.70Q2.15-7.70 2.18-7.66L2.18-7.66L2.18-7.66Q2.22-7.62 2.22-7.57L2.22-7.57L2.22-0.13L2.22-0.13Q2.22-0.08 2.18-0.04L2.18-0.04L2.18-0.04Q2.15 0 2.09 0L2.09 0L0.80 0ZM9.73-5.74L9.73-5.74Q10.59-5.74 11.08-5.22L11.08-5.22L11.08-5.22Q11.56-4.71 11.56-3.77L11.56-3.77L11.56-0.13L11.56-0.13Q11.56-0.08 11.52-0.04L11.52-0.04L11.52-0.04Q11.48 0 11.43 0L11.43 0L10.14 0L10.14 0Q10.09 0 10.05-0.04L10.05-0.04L10.05-0.04Q10.01-0.08 10.01-0.13L10.01-0.13L10.01-3.43L10.01-3.43Q10.01-3.88 9.78-4.15L9.78-4.15L9.78-4.15Q9.55-4.41 9.16-4.41L9.16-4.41L9.16-4.41Q8.78-4.41 8.54-4.15L8.54-4.15L8.54-4.15Q8.29-3.88 8.29-3.44L8.29-3.44L8.29-0.13L8.29-0.13Q8.29-0.08 8.26-0.04L8.26-0.04L8.26-0.04Q8.22 0 8.16 0L8.16 0L6.89 0L6.89 0Q6.83 0 6.79-0.04L6.79-0.04L6.79-0.04Q6.75-0.08 6.75-0.13L6.75-0.13L6.75-3.43L6.75-3.43Q6.75-3.87 6.51-4.14L6.51-4.14L6.51-4.14Q6.27-4.41 5.88-4.41L5.88-4.41L5.88-4.41Q5.53-4.41 5.30-4.20L5.30-4.20L5.30-4.20Q5.06-3.99 5.02-3.62L5.02-3.62L5.02-0.13L5.02-0.13Q5.02-0.08 4.98-0.04L4.98-0.04L4.98-0.04Q4.94 0 4.88 0L4.88 0L3.60 0L3.60 0Q3.54 0 3.50-0.04L3.50-0.04L3.50-0.04Q3.46-0.08 3.46-0.13L3.46-0.13L3.46-5.52L3.46-5.52Q3.46-5.58 3.50-5.62L3.50-5.62L3.50-5.62Q3.54-5.65 3.60-5.65L3.60-5.65L4.88-5.65L4.88-5.65Q4.94-5.65 4.98-5.62L4.98-5.62L4.98-5.62Q5.02-5.58 5.02-5.52L5.02-5.52L5.02-5.09L5.02-5.09Q5.02-5.06 5.04-5.05L5.04-5.05L5.04-5.05Q5.06-5.04 5.08-5.07L5.08-5.07L5.08-5.07Q5.53-5.74 6.48-5.74L6.48-5.74L6.48-5.74Q7.03-5.74 7.44-5.51L7.44-5.51L7.44-5.51Q7.85-5.28 8.07-4.85L8.07-4.85L8.07-4.85Q8.11-4.79 8.15-4.85L8.15-4.85L8.15-4.85Q8.39-5.30 8.81-5.52L8.81-5.52L8.81-5.52Q9.22-5.74 9.73-5.74L9.73-5.74ZM17.70-4.14L17.70-4.14Q17.90-3.57 17.90-2.82L17.90-2.82L17.90-2.82Q17.90-2.06 17.69-1.44L17.69-1.44L17.69-1.44Q17.43-0.74 16.89-0.32L16.89-0.32L16.89-0.32Q16.35 0.09 15.54 0.09L15.54 0.09L15.54 0.09Q14.75 0.09 14.31-0.46L14.31-0.46L14.31-0.46Q14.29-0.49 14.27-0.48L14.27-0.48L14.27-0.48Q14.24-0.47 14.24-0.44L14.24-0.44L14.24 1.91L14.24 1.91Q14.24 1.97 14.21 2.01L14.21 2.01L14.21 2.01Q14.17 2.05 14.11 2.05L14.11 2.05L12.83 2.05L12.83 2.05Q12.77 2.05 12.73 2.01L12.73 2.01L12.73 2.01Q12.69 1.97 12.69 1.91L12.69 1.91L12.69-5.52L12.69-5.52Q12.69-5.58 12.73-5.62L12.73-5.62L12.73-5.62Q12.77-5.65 12.83-5.65L12.83-5.65L14.11-5.65L14.11-5.65Q14.17-5.65 14.21-5.62L14.21-5.62L14.21-5.62Q14.24-5.58 14.24-5.52L14.24-5.52L14.24-5.16L14.24-5.16Q14.24-5.13 14.27-5.12L14.27-5.12L14.27-5.12Q14.29-5.11 14.31-5.14L14.31-5.14L14.31-5.14Q14.77-5.74 15.59-5.74L15.59-5.74L15.59-5.74Q16.35-5.74 16.90-5.32L16.90-5.32L16.90-5.32Q17.46-4.89 17.70-4.14L17.70-4.14ZM16.02-1.67L16.02-1.67Q16.29-2.10 16.29-2.84L16.29-2.84L16.29-2.84Q16.29-3.53 16.06-3.94L16.06-3.94L16.06-3.94Q15.81-4.41 15.25-4.41L15.25-4.41L15.25-4.41Q14.74-4.41 14.49-3.94L14.49-3.94L14.49-3.94Q14.26-3.54 14.26-2.83L14.26-2.83L14.26-2.83Q14.26-2.09 14.50-1.68L14.50-1.68L14.50-1.68Q14.75-1.24 15.25-1.24L15.25-1.24L15.25-1.24Q15.74-1.24 16.02-1.67L16.02-1.67ZM19.03 0L19.03 0Q18.98 0 18.94-0.04L18.94-0.04L18.94-0.04Q18.90-0.08 18.90-0.13L18.90-0.13L18.90-7.57L18.90-7.57Q18.90-7.62 18.94-7.66L18.94-7.66L18.94-7.66Q18.98-7.70 19.03-7.70L19.03-7.70L20.32-7.70L20.32-7.70Q20.37-7.70 20.41-7.66L20.41-7.66L20.41-7.66Q20.45-7.62 20.45-7.57L20.45-7.57L20.45-0.13L20.45-0.13Q20.45-0.08 20.41-0.04L20.41-0.04L20.41-0.04Q20.37 0 20.32 0L20.32 0L19.03 0ZM26.59-3.41L26.59-3.41Q26.65-2.99 26.63-2.47L26.63-2.47L26.63-2.47Q26.62-2.34 26.49-2.34L26.49-2.34L23.09-2.34L23.09-2.34Q23.02-2.34 23.05-2.29L23.05-2.29L23.05-2.29Q23.08-2.07 23.17-1.85L23.17-1.85L23.17-1.85Q23.45-1.23 24.33-1.23L24.33-1.23L24.33-1.23Q25.04-1.24 25.44-1.80L25.44-1.80L25.44-1.80Q25.49-1.87 25.54-1.87L25.54-1.87L25.54-1.87Q25.58-1.87 25.62-1.83L25.62-1.83L26.41-1.04L26.41-1.04Q26.47-0.99 26.47-0.95L26.47-0.95L26.47-0.95Q26.47-0.92 26.42-0.86L26.42-0.86L26.42-0.86Q26.06-0.41 25.49-0.16L25.49-0.16L25.49-0.16Q24.92 0.09 24.23 0.09L24.23 0.09L24.23 0.09Q23.29 0.09 22.63-0.34L22.63-0.34L22.63-0.34Q21.98-0.77 21.69-1.54L21.69-1.54L21.69-1.54Q21.46-2.09 21.46-2.98L21.46-2.98L21.46-2.98Q21.46-3.59 21.63-4.05L21.63-4.05L21.63-4.05Q21.88-4.83 22.51-5.29L22.51-5.29L22.51-5.29Q23.14-5.75 24.01-5.75L24.01-5.75L24.01-5.75Q25.11-5.75 25.78-5.11L25.78-5.11L25.78-5.11Q26.44-4.48 26.59-3.41L26.59-3.41ZM24.02-4.41L24.02-4.41Q23.33-4.41 23.11-3.76L23.11-3.76L23.11-3.76Q23.07-3.62 23.03-3.41L23.03-3.41L23.03-3.41Q23.03-3.35 23.09-3.35L23.09-3.35L24.99-3.35L24.99-3.35Q25.06-3.35 25.04-3.41L25.04-3.41L25.04-3.41Q24.98-3.73 24.98-3.72L24.98-3.72L24.98-3.72Q24.88-4.05 24.63-4.23L24.63-4.23L24.63-4.23Q24.39-4.41 24.02-4.41L24.02-4.41ZM33.86-5.74L33.86-5.74Q34.72-5.74 35.20-5.22L35.20-5.22L35.20-5.22Q35.68-4.71 35.68-3.77L35.68-3.77L35.68-0.13L35.68-0.13Q35.68-0.08 35.65-0.04L35.65-0.04L35.65-0.04Q35.61 0 35.55 0L35.55 0L34.27 0L34.27 0Q34.21 0 34.17-0.04L34.17-0.04L34.17-0.04Q34.13-0.08 34.13-0.13L34.13-0.13L34.13-3.43L34.13-3.43Q34.13-3.88 33.90-4.15L33.90-4.15L33.90-4.15Q33.67-4.41 33.29-4.41L33.29-4.41L33.29-4.41Q32.90-4.41 32.66-4.15L32.66-4.15L32.66-4.15Q32.42-3.88 32.42-3.44L32.42-3.44L32.42-0.13L32.42-0.13Q32.42-0.08 32.38-0.04L32.38-0.04L32.38-0.04Q32.34 0 32.29 0L32.29 0L31.01 0L31.01 0Q30.95 0 30.92-0.04L30.92-0.04L30.92-0.04Q30.88-0.08 30.88-0.13L30.88-0.13L30.88-3.43L30.88-3.43Q30.88-3.87 30.64-4.14L30.64-4.14L30.64-4.14Q30.39-4.41 30.01-4.41L30.01-4.41L30.01-4.41Q29.66-4.41 29.42-4.20L29.42-4.20L29.42-4.20Q29.18-3.99 29.14-3.62L29.14-3.62L29.14-0.13L29.14-0.13Q29.14-0.08 29.10-0.04L29.10-0.04L29.10-0.04Q29.06 0 29.01 0L29.01 0L27.72 0L27.72 0Q27.67 0 27.63-0.04L27.63-0.04L27.63-0.04Q27.59-0.08 27.59-0.13L27.59-0.13L27.59-5.52L27.59-5.52Q27.59-5.58 27.63-5.62L27.63-5.62L27.63-5.62Q27.67-5.65 27.72-5.65L27.72-5.65L29.01-5.65L29.01-5.65Q29.06-5.65 29.10-5.62L29.10-5.62L29.10-5.62Q29.14-5.58 29.14-5.52L29.14-5.52L29.14-5.09L29.14-5.09Q29.14-5.06 29.16-5.05L29.16-5.05L29.16-5.05Q29.18-5.04 29.21-5.07L29.21-5.07L29.21-5.07Q29.66-5.74 30.60-5.74L30.60-5.74L30.60-5.74Q31.15-5.74 31.56-5.51L31.56-5.51L31.56-5.51Q31.98-5.28 32.20-4.85L32.20-4.85L32.20-4.85Q32.23-4.79 32.27-4.85L32.27-4.85L32.27-4.85Q32.52-5.30 32.93-5.52L32.93-5.52L32.93-5.52Q33.34-5.74 33.86-5.74L33.86-5.74ZM41.78-3.41L41.78-3.41Q41.84-2.99 41.82-2.47L41.82-2.47L41.82-2.47Q41.81-2.34 41.68-2.34L41.68-2.34L38.28-2.34L38.28-2.34Q38.21-2.34 38.24-2.29L38.24-2.29L38.24-2.29Q38.27-2.07 38.36-1.85L38.36-1.85L38.36-1.85Q38.64-1.23 39.52-1.23L39.52-1.23L39.52-1.23Q40.23-1.24 40.63-1.80L40.63-1.80L40.63-1.80Q40.68-1.87 40.73-1.87L40.73-1.87L40.73-1.87Q40.77-1.87 40.81-1.83L40.81-1.83L41.60-1.04L41.60-1.04Q41.66-0.99 41.66-0.95L41.66-0.95L41.66-0.95Q41.66-0.92 41.61-0.86L41.61-0.86L41.61-0.86Q41.25-0.41 40.68-0.16L40.68-0.16L40.68-0.16Q40.11 0.09 39.42 0.09L39.42 0.09L39.42 0.09Q38.48 0.09 37.82-0.34L37.82-0.34L37.82-0.34Q37.17-0.77 36.88-1.54L36.88-1.54L36.88-1.54Q36.65-2.09 36.65-2.98L36.65-2.98L36.65-2.98Q36.65-3.59 36.82-4.05L36.82-4.05L36.82-4.05Q37.07-4.83 37.70-5.29L37.70-5.29L37.70-5.29Q38.34-5.75 39.20-5.75L39.20-5.75L39.20-5.75Q40.30-5.75 40.97-5.11L40.97-5.11L40.97-5.11Q41.63-4.48 41.78-3.41L41.78-3.41ZM39.22-4.41L39.22-4.41Q38.52-4.41 38.30-3.76L38.30-3.76L38.30-3.76Q38.26-3.62 38.23-3.41L38.23-3.41L38.23-3.41Q38.23-3.35 38.28-3.35L38.28-3.35L40.18-3.35L40.18-3.35Q40.25-3.35 40.23-3.41L40.23-3.41L40.23-3.41Q40.17-3.73 40.17-3.72L40.17-3.72L40.17-3.72Q40.07-4.05 39.83-4.23L39.83-4.23L39.83-4.23Q39.58-4.41 39.22-4.41L39.22-4.41ZM45.73-5.74L45.73-5.74Q46.61-5.74 47.15-5.20L47.15-5.20L47.15-5.20Q47.69-4.66 47.69-3.74L47.69-3.74L47.69-0.13L47.69-0.13Q47.69-0.08 47.65-0.04L47.65-0.04L47.65-0.04Q47.61 0 47.55 0L47.55 0L46.27 0L46.27 0Q46.21 0 46.17-0.04L46.17-0.04L46.17-0.04Q46.13-0.08 46.13-0.13L46.13-0.13L46.13-3.42L46.13-3.42Q46.13-3.86 45.89-4.14L45.89-4.14L45.89-4.14Q45.64-4.41 45.23-4.41L45.23-4.41L45.23-4.41Q44.83-4.41 44.58-4.14L44.58-4.14L44.58-4.14Q44.33-3.86 44.33-3.42L44.33-3.42L44.33-0.13L44.33-0.13Q44.33-0.08 44.29-0.04L44.29-0.04L44.29-0.04Q44.25 0 44.20 0L44.20 0L42.91 0L42.91 0Q42.86 0 42.82-0.04L42.82-0.04L42.82-0.04Q42.78-0.08 42.78-0.13L42.78-0.13L42.78-5.52L42.78-5.52Q42.78-5.58 42.82-5.62L42.82-5.62L42.82-5.62Q42.86-5.65 42.91-5.65L42.91-5.65L44.20-5.65L44.20-5.65Q44.25-5.65 44.29-5.62L44.29-5.62L44.29-5.62Q44.33-5.58 44.33-5.52L44.33-5.52L44.33-5.14L44.33-5.14Q44.33-5.10 44.35-5.09L44.35-5.09L44.35-5.09Q44.37-5.08 44.38-5.10L44.38-5.10L44.38-5.10Q44.84-5.74 45.73-5.74L45.73-5.74ZM52.04-4.54L52.04-4.54Q52.04-4.49 52.00-4.45L52.00-4.45L52.00-4.45Q51.96-4.41 51.91-4.41L51.91-4.41L50.85-4.41L50.85-4.41Q50.80-4.41 50.80-4.36L50.80-4.36L50.80-2.02L50.80-2.02Q50.80-1.66 50.95-1.48L50.95-1.48L50.95-1.48Q51.10-1.31 51.43-1.31L51.43-1.31L51.79-1.31L51.79-1.31Q51.84-1.31 51.88-1.27L51.88-1.27L51.88-1.27Q51.92-1.23 51.92-1.18L51.92-1.18L51.92-0.13L51.92-0.13Q51.92-0.01 51.79 0.01L51.79 0.01L51.79 0.01Q51.33 0.03 51.13 0.03L51.13 0.03L51.13 0.03Q50.22 0.03 49.76-0.27L49.76-0.27L49.76-0.27Q49.31-0.57 49.30-1.41L49.30-1.41L49.30-4.36L49.30-4.36Q49.30-4.41 49.25-4.41L49.25-4.41L48.62-4.41L48.62-4.41Q48.57-4.41 48.53-4.45L48.53-4.45L48.53-4.45Q48.49-4.49 48.49-4.54L48.49-4.54L48.49-5.52L48.49-5.52Q48.49-5.58 48.53-5.62L48.53-5.62L48.53-5.62Q48.57-5.65 48.62-5.65L48.62-5.65L49.25-5.65L49.25-5.65Q49.30-5.65 49.30-5.71L49.30-5.71L49.30-7.02L49.30-7.02Q49.30-7.07 49.34-7.11L49.34-7.11L49.34-7.11Q49.38-7.15 49.43-7.15L49.43-7.15L50.67-7.15L50.67-7.15Q50.72-7.15 50.76-7.11L50.76-7.11L50.76-7.11Q50.80-7.07 50.80-7.02L50.80-7.02L50.80-5.71L50.80-5.71Q50.80-5.65 50.85-5.65L50.85-5.65L51.91-5.65L51.91-5.65Q51.96-5.65 52.00-5.62L52.00-5.62L52.00-5.62Q52.04-5.58 52.04-5.52L52.04-5.52L52.04-4.54ZM55.23-5.74L55.23-5.74Q55.95-5.74 56.51-5.49L56.51-5.49L56.51-5.49Q57.07-5.25 57.38-4.82L57.38-4.82L57.38-4.82Q57.70-4.39 57.70-3.86L57.70-3.86L57.70-0.13L57.70-0.13Q57.70-0.08 57.66-0.04L57.66-0.04L57.66-0.04Q57.62 0 57.56 0L57.56 0L56.28 0L56.28 0Q56.22 0 56.18-0.04L56.18-0.04L56.18-0.04Q56.14-0.08 56.14-0.13L56.14-0.13L56.14-0.49L56.14-0.49Q56.14-0.53 56.12-0.54L56.12-0.54L56.12-0.54Q56.10-0.55 56.08-0.52L56.08-0.52L56.08-0.52Q55.62 0.09 54.59 0.09L54.59 0.09L54.59 0.09Q53.74 0.09 53.21-0.33L53.21-0.33L53.21-0.33Q52.68-0.75 52.68-1.56L52.68-1.56L52.68-1.56Q52.68-2.41 53.27-2.88L53.27-2.88L53.27-2.88Q53.87-3.34 54.97-3.34L54.97-3.34L56.09-3.34L56.09-3.34Q56.14-3.34 56.14-3.40L56.14-3.40L56.14-3.64L56.14-3.64Q56.14-4.00 55.92-4.21L55.92-4.21L55.92-4.21Q55.70-4.41 55.26-4.41L55.26-4.41L55.26-4.41Q54.92-4.41 54.70-4.29L54.70-4.29L54.70-4.29Q54.47-4.17 54.41-3.95L54.41-3.95L54.41-3.95Q54.37-3.83 54.26-3.84L54.26-3.84L52.93-4.01L52.93-4.01Q52.80-4.04 52.81-4.11L52.81-4.11L52.81-4.11Q52.86-4.58 53.18-4.95L53.18-4.95L53.18-4.95Q53.50-5.32 54.04-5.53L54.04-5.53L54.04-5.53Q54.57-5.74 55.23-5.74L55.23-5.74ZM55.01-1.07L55.01-1.07Q55.48-1.07 55.81-1.32L55.81-1.32L55.81-1.32Q56.14-1.57 56.14-1.97L56.14-1.97L56.14-2.36L56.14-2.36Q56.14-2.42 56.09-2.42L56.09-2.42L55.30-2.42L55.30-2.42Q54.80-2.42 54.52-2.23L54.52-2.23L54.52-2.23Q54.24-2.05 54.24-1.70L54.24-1.70L54.24-1.70Q54.24-1.41 54.45-1.24L54.45-1.24L54.45-1.24Q54.66-1.07 55.01-1.07L55.01-1.07ZM63.79-4.21L63.79-4.21Q64.00-3.64 64.00-2.85L64.00-2.85L64.00-2.85Q64.00-2.09 63.81-1.52L63.81-1.52L63.81-1.52Q63.56-0.77 63.00-0.34L63.00-0.34L63.00-0.34Q62.45 0.09 61.69 0.09L61.69 0.09L61.69 0.09Q60.89 0.09 60.42-0.52L60.42-0.52L60.42-0.52Q60.40-0.54 60.38-0.53L60.38-0.53L60.38-0.53Q60.36-0.53 60.36-0.49L60.36-0.49L60.36-0.13L60.36-0.13Q60.36-0.08 60.32-0.04L60.32-0.04L60.32-0.04Q60.28 0 60.23 0L60.23 0L58.94 0L58.94 0Q58.88 0 58.84-0.04L58.84-0.04L58.84-0.04Q58.81-0.08 58.81-0.13L58.81-0.13L58.81-7.57L58.81-7.57Q58.81-7.62 58.84-7.66L58.84-7.66L58.84-7.66Q58.88-7.70 58.94-7.70L58.94-7.70L60.23-7.70L60.23-7.70Q60.28-7.70 60.32-7.66L60.32-7.66L60.32-7.66Q60.36-7.62 60.36-7.57L60.36-7.57L60.36-5.21L60.36-5.21Q60.36-5.18 60.38-5.17L60.38-5.17L60.38-5.17Q60.40-5.16 60.42-5.19L60.42-5.19L60.42-5.19Q60.85-5.74 61.64-5.74L61.64-5.74L61.64-5.74Q62.45-5.74 62.99-5.33L62.99-5.33L62.99-5.33Q63.54-4.92 63.79-4.21L63.79-4.21ZM62.16-1.72L62.16-1.72Q62.39-2.13 62.39-2.82L62.39-2.82L62.39-2.82Q62.39-3.57 62.13-3.98L62.13-3.98L62.13-3.98Q61.86-4.41 61.35-4.41L61.35-4.41L61.35-4.41Q60.86-4.41 60.61-3.98L60.61-3.98L60.61-3.98Q60.37-3.56 60.37-2.83L60.37-2.83L60.37-2.83Q60.37-2.09 60.59-1.72L60.59-1.72L60.59-1.72Q60.85-1.24 61.36-1.24L61.36-1.24L61.36-1.24Q61.90-1.24 62.16-1.72L62.16-1.72ZM65.14 0L65.14 0Q65.09 0 65.05-0.04L65.05-0.04L65.05-0.04Q65.01-0.08 65.01-0.13L65.01-0.13L65.01-7.57L65.01-7.57Q65.01-7.62 65.05-7.66L65.05-7.66L65.05-7.66Q65.09-7.70 65.14-7.70L65.14-7.70L66.43-7.70L66.43-7.70Q66.48-7.70 66.52-7.66L66.52-7.66L66.52-7.66Q66.56-7.62 66.56-7.57L66.56-7.57L66.56-0.13L66.56-0.13Q66.56-0.08 66.52-0.04L66.52-0.04L66.52-0.04Q66.48 0 66.43 0L66.43 0L65.14 0ZM72.70-3.41L72.70-3.41Q72.77-2.99 72.74-2.47L72.74-2.47L72.74-2.47Q72.73-2.34 72.60-2.34L72.60-2.34L69.20-2.34L69.20-2.34Q69.14-2.34 69.16-2.29L69.16-2.29L69.16-2.29Q69.19-2.07 69.28-1.85L69.28-1.85L69.28-1.85Q69.56-1.23 70.44-1.23L70.44-1.23L70.44-1.23Q71.15-1.24 71.56-1.80L71.56-1.80L71.56-1.80Q71.60-1.87 71.65-1.87L71.65-1.87L71.65-1.87Q71.69-1.87 71.73-1.83L71.73-1.83L72.52-1.04L72.52-1.04Q72.58-0.99 72.58-0.95L72.58-0.95L72.58-0.95Q72.58-0.92 72.53-0.86L72.53-0.86L72.53-0.86Q72.17-0.41 71.60-0.16L71.60-0.16L71.60-0.16Q71.03 0.09 70.34 0.09L70.34 0.09L70.34 0.09Q69.40 0.09 68.74-0.34L68.74-0.34L68.74-0.34Q68.09-0.77 67.80-1.54L67.80-1.54L67.80-1.54Q67.57-2.09 67.57-2.98L67.57-2.98L67.57-2.98Q67.57-3.59 67.74-4.05L67.74-4.05L67.74-4.05Q67.99-4.83 68.62-5.29L68.62-5.29L68.62-5.29Q69.26-5.75 70.13-5.75L70.13-5.75L70.13-5.75Q71.22-5.75 71.89-5.11L71.89-5.11L71.89-5.11Q72.56-4.48 72.70-3.41L72.70-3.41ZM70.14-4.41L70.14-4.41Q69.44-4.41 69.22-3.76L69.22-3.76L69.22-3.76Q69.18-3.62 69.15-3.41L69.15-3.41L69.15-3.41Q69.15-3.35 69.20-3.35L69.20-3.35L71.10-3.35L71.10-3.35Q71.17-3.35 71.15-3.41L71.15-3.41L71.15-3.41Q71.09-3.73 71.09-3.72L71.09-3.72L71.09-3.72Q70.99-4.05 70.75-4.23L70.75-4.23L70.75-4.23Q70.50-4.41 70.14-4.41L70.14-4.41Z"/><path fill="#252530" transform="translate(34.66, 49)" d="M5.62-7.61L5.62-7.61Q5.68-7.70 5.77-7.70L5.77-7.70L7.06-7.70L7.06-7.70Q7.12-7.70 7.16-7.66L7.16-7.66L7.16-7.66Q7.19-7.62 7.19-7.57L7.19-7.57L7.19-0.13L7.19-0.13Q7.19-0.08 7.16-0.04L7.16-0.04L7.16-0.04Q7.12 0 7.06 0L7.06 0L5.77 0L5.77 0Q5.72 0 5.68-0.04L5.68-0.04L5.68-0.04Q5.64-0.08 5.64-0.13L5.64-0.13L5.64-4.98L5.64-4.98Q5.64-5.03 5.62-5.03L5.62-5.03L5.62-5.03Q5.60-5.03 5.58-4.99L5.58-4.99L4.41-3.17L4.41-3.17Q4.36-3.08 4.26-3.08L4.26-3.08L3.61-3.08L3.61-3.08Q3.51-3.08 3.45-3.17L3.45-3.17L2.29-4.99L2.29-4.99Q2.27-5.03 2.24-5.02L2.24-5.02L2.24-5.02Q2.22-5.02 2.22-4.97L2.22-4.97L2.22-0.13L2.22-0.13Q2.22-0.08 2.18-0.04L2.18-0.04L2.18-0.04Q2.15 0 2.09 0L2.09 0L0.80 0L0.80 0Q0.75 0 0.71-0.04L0.71-0.04L0.71-0.04Q0.67-0.08 0.67-0.13L0.67-0.13L0.67-7.57L0.67-7.57Q0.67-7.62 0.71-7.66L0.71-7.66L0.71-7.66Q0.75-7.70 0.80-7.70L0.80-7.70L2.09-7.70L2.09-7.70Q2.19-7.70 2.24-7.61L2.24-7.61L3.89-5.05L3.89-5.05Q3.93-4.98 3.96-5.05L3.96-5.05L5.62-7.61ZM10.93 0.09L10.93 0.09Q10.01 0.09 9.35-0.40L9.35-0.40L9.35-0.40Q8.69-0.88 8.45-1.72L8.45-1.72L8.45-1.72Q8.29-2.23 8.29-2.84L8.29-2.84L8.29-2.84Q8.29-3.49 8.45-4.00L8.45-4.00L8.45-4.00Q8.70-4.82 9.36-5.28L9.36-5.28L9.36-5.28Q10.02-5.74 10.94-5.74L10.94-5.74L10.94-5.74Q11.85-5.74 12.48-5.29L12.48-5.29L12.48-5.29Q13.12-4.83 13.39-4.01L13.39-4.01L13.39-4.01Q13.56-3.46 13.56-2.86L13.56-2.86L13.56-2.86Q13.56-2.27 13.41-1.75L13.41-1.75L13.41-1.75Q13.17-0.89 12.51-0.40L12.51-0.40L12.51-0.40Q11.86 0.09 10.93 0.09L10.93 0.09ZM10.93-1.24L10.93-1.24Q11.30-1.24 11.55-1.46L11.55-1.46L11.55-1.46Q11.80-1.68 11.91-2.07L11.91-2.07L11.91-2.07Q12.00-2.42 12.00-2.84L12.00-2.84L12.00-2.84Q12.00-3.30 11.91-3.62L11.91-3.62L11.91-3.62Q11.79-3.99 11.54-4.20L11.54-4.20L11.54-4.20Q11.29-4.41 10.92-4.41L10.92-4.41L10.92-4.41Q10.55-4.41 10.30-4.20L10.30-4.20L10.30-4.20Q10.05-3.99 9.94-3.62L9.94-3.62L9.94-3.62Q9.86-3.35 9.86-2.84L9.86-2.84L9.86-2.84Q9.86-2.34 9.93-2.07L9.93-2.07L9.93-2.07Q10.04-1.68 10.30-1.46L10.30-1.46L10.30-1.46Q10.56-1.24 10.93-1.24L10.93-1.24ZM16.82 0.08L16.82 0.08Q16.08 0.08 15.53-0.13L15.53-0.13L15.53-0.13Q14.98-0.34 14.68-0.71L14.68-0.71L14.68-0.71Q14.38-1.09 14.38-1.56L14.38-1.56L14.38-1.67L14.38-1.67Q14.38-1.73 14.42-1.77L14.42-1.77L14.42-1.77Q14.45-1.80 14.51-1.80L14.51-1.80L15.73-1.80L15.73-1.80Q15.78-1.80 15.82-1.77L15.82-1.77L15.82-1.77Q15.86-1.73 15.86-1.67L15.86-1.67L15.86-1.66L15.86-1.66Q15.86-1.42 16.13-1.25L16.13-1.25L16.13-1.25Q16.40-1.08 16.81-1.08L16.81-1.08L16.81-1.08Q17.18-1.08 17.41-1.23L17.41-1.23L17.41-1.23Q17.64-1.38 17.64-1.59L17.64-1.59L17.64-1.59Q17.64-1.79 17.45-1.89L17.45-1.89L17.45-1.89Q17.25-1.99 16.80-2.10L16.80-2.10L16.80-2.10Q16.28-2.23 15.98-2.35L15.98-2.35L15.98-2.35Q15.28-2.60 14.86-2.95L14.86-2.95L14.86-2.95Q14.44-3.30 14.44-3.96L14.44-3.96L14.44-3.96Q14.44-4.77 15.08-5.25L15.08-5.25L15.08-5.25Q15.71-5.73 16.75-5.73L16.75-5.73L16.75-5.73Q17.46-5.73 17.98-5.51L17.98-5.51L17.98-5.51Q18.51-5.28 18.80-4.87L18.80-4.87L18.80-4.87Q19.10-4.47 19.10-3.95L19.10-3.95L19.10-3.95Q19.10-3.89 19.06-3.86L19.06-3.86L19.06-3.86Q19.02-3.82 18.96-3.82L18.96-3.82L17.79-3.82L17.79-3.82Q17.73-3.82 17.69-3.86L17.69-3.86L17.69-3.86Q17.65-3.89 17.65-3.95L17.65-3.95L17.65-3.95Q17.65-4.19 17.41-4.36L17.41-4.36L17.41-4.36Q17.16-4.52 16.75-4.52L16.75-4.52L16.75-4.52Q16.39-4.52 16.16-4.39L16.16-4.39L16.16-4.39Q15.93-4.26 15.93-4.03L15.93-4.03L15.93-4.03Q15.93-3.81 16.15-3.70L16.15-3.70L16.15-3.70Q16.38-3.59 16.91-3.46L16.91-3.46L16.91-3.46Q17.03-3.43 17.18-3.39L17.18-3.39L17.18-3.39Q17.34-3.35 17.51-3.30L17.51-3.30L17.51-3.30Q18.29-3.07 18.74-2.71L18.74-2.71L18.74-2.71Q19.20-2.34 19.20-1.65L19.20-1.65L19.20-1.65Q19.20-0.84 18.55-0.38L18.55-0.38L18.55-0.38Q17.91 0.08 16.82 0.08L16.82 0.08ZM23.33-4.54L23.33-4.54Q23.33-4.49 23.29-4.45L23.29-4.45L23.29-4.45Q23.25-4.41 23.20-4.41L23.20-4.41L22.14-4.41L22.14-4.41Q22.09-4.41 22.09-4.36L22.09-4.36L22.09-2.02L22.09-2.02Q22.09-1.66 22.24-1.48L22.24-1.48L22.24-1.48Q22.38-1.31 22.71-1.31L22.71-1.31L23.08-1.31L23.08-1.31Q23.13-1.31 23.17-1.27L23.17-1.27L23.17-1.27Q23.21-1.23 23.21-1.18L23.21-1.18L23.21-0.13L23.21-0.13Q23.21-0.01 23.08 0.01L23.08 0.01L23.08 0.01Q22.62 0.03 22.42 0.03L22.42 0.03L22.42 0.03Q21.50 0.03 21.05-0.27L21.05-0.27L21.05-0.27Q20.60-0.57 20.59-1.41L20.59-1.41L20.59-4.36L20.59-4.36Q20.59-4.41 20.54-4.41L20.54-4.41L19.91-4.41L19.91-4.41Q19.86-4.41 19.82-4.45L19.82-4.45L19.82-4.45Q19.78-4.49 19.78-4.54L19.78-4.54L19.78-5.52L19.78-5.52Q19.78-5.58 19.82-5.62L19.82-5.62L19.82-5.62Q19.86-5.65 19.91-5.65L19.91-5.65L20.54-5.65L20.54-5.65Q20.59-5.65 20.59-5.71L20.59-5.71L20.59-7.02L20.59-7.02Q20.59-7.07 20.63-7.11L20.63-7.11L20.63-7.11Q20.67-7.15 20.72-7.15L20.72-7.15L21.96-7.15L21.96-7.15Q22.01-7.15 22.05-7.11L22.05-7.11L22.05-7.11Q22.09-7.07 22.09-7.02L22.09-7.02L22.09-5.71L22.09-5.71Q22.09-5.65 22.14-5.65L22.14-5.65L23.20-5.65L23.20-5.65Q23.25-5.65 23.29-5.62L23.29-5.62L23.29-5.62Q23.33-5.58 23.33-5.52L23.33-5.52L23.33-4.54Z"/><path fill="#fff" transform="translate(27.47, 75.4)" d="M2.99 0.08L2.99 0.08Q2.21 0.08 1.63-0.17L1.63-0.17L1.63-0.17Q1.05-0.42 0.73-0.87L0.73-0.87L0.73-0.87Q0.42-1.32 0.42-1.93L0.42-1.93L0.42-2.18L0.42-2.18Q0.42-2.23 0.46-2.27L0.46-2.27L0.46-2.27Q0.49-2.30 0.54-2.30L0.54-2.30L1.43-2.30L1.43-2.30Q1.48-2.30 1.52-2.27L1.52-2.27L1.52-2.27Q1.55-2.23 1.55-2.18L1.55-2.18L1.55-1.99L1.55-1.99Q1.55-1.53 1.96-1.23L1.96-1.23L1.96-1.23Q2.37-0.92 3.08-0.92L3.08-0.92L3.08-0.92Q3.69-0.92 4-1.18L4-1.18L4-1.18Q4.31-1.44 4.31-1.85L4.31-1.85L4.31-1.85Q4.31-2.13 4.14-2.33L4.14-2.33L4.14-2.33Q3.97-2.52 3.66-2.68L3.66-2.68L3.66-2.68Q3.34-2.84 2.71-3.08L2.71-3.08L2.71-3.08Q2-3.34 1.56-3.57L1.56-3.57L1.56-3.57Q1.12-3.80 0.83-4.20L0.83-4.20L0.83-4.20Q0.53-4.59 0.53-5.18L0.53-5.18L0.53-5.18Q0.53-6.06 1.17-6.57L1.17-6.57L1.17-6.57Q1.81-7.08 2.88-7.08L2.88-7.08L2.88-7.08Q3.63-7.08 4.21-6.82L4.21-6.82L4.21-6.82Q4.78-6.56 5.10-6.09L5.10-6.09L5.10-6.09Q5.42-5.63 5.42-5.02L5.42-5.02L5.42-4.85L5.42-4.85Q5.42-4.80 5.38-4.76L5.38-4.76L5.38-4.76Q5.35-4.73 5.30-4.73L5.30-4.73L4.40-4.73L4.40-4.73Q4.35-4.73 4.32-4.76L4.32-4.76L4.32-4.76Q4.28-4.80 4.28-4.85L4.28-4.85L4.28-4.96L4.28-4.96Q4.28-5.43 3.90-5.75L3.90-5.75L3.90-5.75Q3.51-6.08 2.83-6.08L2.83-6.08L2.83-6.08Q2.28-6.08 1.98-5.85L1.98-5.85L1.98-5.85Q1.67-5.62 1.67-5.20L1.67-5.20L1.67-5.20Q1.67-4.90 1.83-4.71L1.83-4.71L1.83-4.71Q1.99-4.52 2.31-4.37L2.31-4.37L2.31-4.37Q2.63-4.21 3.30-3.97L3.30-3.97L3.30-3.97Q4.01-3.70 4.44-3.48L4.44-3.48L4.44-3.48Q4.86-3.26 5.17-2.87L5.17-2.87L5.17-2.87Q5.47-2.47 5.47-1.88L5.47-1.88L5.47-1.88Q5.47-0.98 4.80-0.45L4.80-0.45L4.80-0.45Q4.14 0.08 2.99 0.08L2.99 0.08ZM9.09 0.08L9.09 0.08Q8.35 0.08 7.78-0.21L7.78-0.21L7.78-0.21Q7.21-0.50 6.90-1.03L6.90-1.03L6.90-1.03Q6.58-1.57 6.58-2.27L6.58-2.27L6.58-6.88L6.58-6.88Q6.58-6.93 6.62-6.96L6.62-6.96L6.62-6.96Q6.65-7 6.70-7L6.70-7L7.62-7L7.62-7Q7.67-7 7.71-6.96L7.71-6.96L7.71-6.96Q7.74-6.93 7.74-6.88L7.74-6.88L7.74-2.25L7.74-2.25Q7.74-1.66 8.11-1.29L8.11-1.29L8.11-1.29Q8.48-0.92 9.09-0.92L9.09-0.92L9.09-0.92Q9.70-0.92 10.07-1.29L10.07-1.29L10.07-1.29Q10.44-1.66 10.44-2.25L10.44-2.25L10.44-6.88L10.44-6.88Q10.44-6.93 10.48-6.96L10.48-6.96L10.48-6.96Q10.51-7 10.56-7L10.56-7L11.48-7L11.48-7Q11.53-7 11.57-6.96L11.57-6.96L11.57-6.96Q11.60-6.93 11.60-6.88L11.60-6.88L11.60-2.27L11.60-2.27Q11.60-1.57 11.29-1.03L11.29-1.03L11.29-1.03Q10.98-0.50 10.41-0.21L10.41-0.21L10.41-0.21Q9.84 0.08 9.09 0.08L9.09 0.08ZM17.51-6.92L17.51-6.92Q17.56-7 17.65-7L17.65-7L18.57-7L18.57-7Q18.62-7 18.66-6.96L18.66-6.96L18.66-6.96Q18.69-6.93 18.69-6.88L18.69-6.88L18.69-0.12L18.69-0.12Q18.69-0.07 18.66-0.04L18.66-0.04L18.66-0.04Q18.62 0 18.57 0L18.57 0L17.65 0L17.65 0Q17.60 0 17.56-0.04L17.56-0.04L17.56-0.04Q17.53-0.07 17.53-0.12L17.53-0.12L17.53-4.89L17.53-4.89Q17.53-4.92 17.50-4.93L17.50-4.93L17.50-4.93Q17.48-4.94 17.47-4.91L17.47-4.91L16.22-2.99L16.22-2.99Q16.17-2.91 16.08-2.91L16.08-2.91L15.62-2.91L15.62-2.91Q15.53-2.91 15.48-2.99L15.48-2.99L14.22-4.90L14.22-4.90Q14.21-4.93 14.18-4.92L14.18-4.92L14.18-4.92Q14.16-4.91 14.16-4.88L14.16-4.88L14.16-0.12L14.16-0.12Q14.16-0.07 14.13-0.04L14.13-0.04L14.13-0.04Q14.09 0 14.04 0L14.04 0L13.12 0L13.12 0Q13.07 0 13.04-0.04L13.04-0.04L13.04-0.04Q13-0.07 13-0.12L13-0.12L13-6.88L13-6.88Q13-6.93 13.04-6.96L13.04-6.96L13.04-6.96Q13.07-7 13.12-7L13.12-7L14.04-7L14.04-7Q14.13-7 14.18-6.92L14.18-6.92L15.81-4.45L15.81-4.45Q15.83-4.43 15.85-4.43L15.85-4.43L15.85-4.43Q15.87-4.43 15.88-4.45L15.88-4.45L17.51-6.92ZM24.66-6.92L24.66-6.92Q24.71-7 24.80-7L24.80-7L25.72-7L25.72-7Q25.77-7 25.80-6.96L25.80-6.96L25.80-6.96Q25.84-6.93 25.84-6.88L25.84-6.88L25.84-0.12L25.84-0.12Q25.84-0.07 25.80-0.04L25.80-0.04L25.80-0.04Q25.77 0 25.72 0L25.72 0L24.80 0L24.80 0Q24.75 0 24.72-0.04L24.72-0.04L24.72-0.04Q24.68-0.07 24.68-0.12L24.68-0.12L24.68-4.89L24.68-4.89Q24.68-4.92 24.66-4.93L24.66-4.93L24.66-4.93Q24.63-4.94 24.62-4.91L24.62-4.91L23.37-2.99L23.37-2.99Q23.32-2.91 23.23-2.91L23.23-2.91L22.77-2.91L22.77-2.91Q22.68-2.91 22.63-2.99L22.63-2.99L21.37-4.90L21.37-4.90Q21.36-4.93 21.34-4.92L21.34-4.92L21.34-4.92Q21.31-4.91 21.31-4.88L21.31-4.88L21.31-0.12L21.31-0.12Q21.31-0.07 21.28-0.04L21.28-0.04L21.28-0.04Q21.24 0 21.19 0L21.19 0L20.27 0L20.27 0Q20.22 0 20.19-0.04L20.19-0.04L20.19-0.04Q20.15-0.07 20.15-0.12L20.15-0.12L20.15-6.88L20.15-6.88Q20.15-6.93 20.19-6.96L20.19-6.96L20.19-6.96Q20.22-7 20.27-7L20.27-7L21.19-7L21.19-7Q21.28-7 21.33-6.92L21.33-6.92L22.96-4.45L22.96-4.45Q22.98-4.43 23-4.43L23-4.43L23-4.43Q23.02-4.43 23.03-4.45L23.03-4.45L24.66-6.92ZM32.04-6.12L32.04-6.12Q32.04-6.07 32.01-6.04L32.01-6.04L32.01-6.04Q31.97-6 31.92-6L31.92-6L28.51-6L28.51-6Q28.46-6 28.46-5.95L28.46-5.95L28.46-4.08L28.46-4.08Q28.46-4.03 28.51-4.03L28.51-4.03L30.80-4.03L30.80-4.03Q30.85-4.03 30.89-4.00L30.89-4.00L30.89-4.00Q30.92-3.96 30.92-3.91L30.92-3.91L30.92-3.15L30.92-3.15Q30.92-3.10 30.89-3.06L30.89-3.06L30.89-3.06Q30.85-3.03 30.80-3.03L30.80-3.03L28.51-3.03L28.51-3.03Q28.46-3.03 28.46-2.98L28.46-2.98L28.46-1.05L28.46-1.05Q28.46-1 28.51-1L28.51-1L31.92-1L31.92-1Q31.97-1 32.01-0.96L32.01-0.96L32.01-0.96Q32.04-0.93 32.04-0.88L32.04-0.88L32.04-0.12L32.04-0.12Q32.04-0.07 32.01-0.04L32.01-0.04L32.01-0.04Q31.97 0 31.92 0L31.92 0L27.42 0L27.42 0Q27.37 0 27.34-0.04L27.34-0.04L27.34-0.04Q27.30-0.07 27.30-0.12L27.30-0.12L27.30-6.88L27.30-6.88Q27.30-6.93 27.34-6.96L27.34-6.96L27.34-6.96Q27.37-7 27.42-7L27.42-7L31.92-7L31.92-7Q31.97-7 32.01-6.96L32.01-6.96L32.01-6.96Q32.04-6.93 32.04-6.88L32.04-6.88L32.04-6.12ZM37.15 0L37.15 0Q37.05 0 37.01-0.09L37.01-0.09L35.69-2.97L35.69-2.97Q35.67-3.01 35.63-3.01L35.63-3.01L34.43-3.01L34.43-3.01Q34.38-3.01 34.38-2.96L34.38-2.96L34.38-0.12L34.38-0.12Q34.38-0.07 34.34-0.04L34.34-0.04L34.34-0.04Q34.31 0 34.26 0L34.26 0L33.34 0L33.34 0Q33.29 0 33.26-0.04L33.26-0.04L33.26-0.04Q33.22-0.07 33.22-0.12L33.22-0.12L33.22-6.88L33.22-6.88Q33.22-6.93 33.26-6.96L33.26-6.96L33.26-6.96Q33.29-7 33.34-7L33.34-7L36.09-7L36.09-7Q36.70-7 37.17-6.75L37.17-6.75L37.17-6.75Q37.64-6.49 37.90-6.03L37.90-6.03L37.90-6.03Q38.16-5.56 38.16-4.96L38.16-4.96L38.16-4.96Q38.16-4.27 37.80-3.79L37.80-3.79L37.80-3.79Q37.45-3.30 36.82-3.11L36.82-3.11L36.82-3.11Q36.80-3.11 36.79-3.09L36.79-3.09L36.79-3.09Q36.78-3.07 36.79-3.05L36.79-3.05L38.20-0.14L38.20-0.14Q38.22-0.10 38.22-0.08L38.22-0.08L38.22-0.08Q38.22 0 38.11 0L38.11 0L37.15 0ZM34.43-6L34.43-6Q34.38-6 34.38-5.95L34.38-5.95L34.38-3.96L34.38-3.96Q34.38-3.91 34.43-3.91L34.43-3.91L35.93-3.91L35.93-3.91Q36.41-3.91 36.70-4.20L36.70-4.20L36.70-4.20Q37-4.48 37-4.95L37-4.95L37-4.95Q37-5.42 36.70-5.71L36.70-5.71L36.70-5.71Q36.41-6 35.93-6L35.93-6L34.43-6Z"/><path fill="#252530" transform="translate(30.36, 95.3)" d="M3.38-1.84L3.38-1.84Q3.35-1.81 3.36-1.78L3.36-1.78L3.36-1.78Q3.38-1.75 3.42-1.75L3.42-1.75L7.35-1.75L7.35-1.75Q7.42-1.75 7.47-1.70L7.47-1.70L7.47-1.70Q7.53-1.65 7.53-1.58L7.53-1.58L7.53-0.17L7.53-0.17Q7.53-0.10 7.47-0.05L7.47-0.05L7.47-0.05Q7.42 0 7.35 0L7.35 0L0.83 0L0.83 0Q0.75 0 0.70-0.05L0.70-0.05L0.70-0.05Q0.65-0.10 0.65-0.17L0.65-0.17L0.65-1.51L0.65-1.51Q0.65-1.64 0.74-1.73L0.74-1.73L0.74-1.73Q1.45-2.42 2.19-3.24L2.19-3.24L2.19-3.24Q2.93-4.06 3.12-4.26L3.12-4.26L3.12-4.26Q3.52-4.74 3.94-5.18L3.94-5.18L3.94-5.18Q5.26-6.64 5.26-7.35L5.26-7.35L5.26-7.35Q5.26-7.86 4.90-8.19L4.90-8.19L4.90-8.19Q4.54-8.51 3.96-8.51L3.96-8.51L3.96-8.51Q3.38-8.51 3.02-8.19L3.02-8.19L3.02-8.19Q2.65-7.86 2.65-7.32L2.65-7.32L2.65-6.96L2.65-6.96Q2.65-6.89 2.60-6.84L2.60-6.84L2.60-6.84Q2.55-6.79 2.48-6.79L2.48-6.79L0.77-6.79L0.77-6.79Q0.70-6.79 0.65-6.84L0.65-6.84L0.65-6.84Q0.59-6.89 0.59-6.96L0.59-6.96L0.59-7.64L0.59-7.64Q0.64-8.42 1.09-9.03L1.09-9.03L1.09-9.03Q1.54-9.63 2.28-9.95L2.28-9.95L2.28-9.95Q3.03-10.27 3.96-10.27L3.96-10.27L3.96-10.27Q4.99-10.27 5.75-9.88L5.75-9.88L5.75-9.88Q6.51-9.50 6.92-8.85L6.92-8.85L6.92-8.85Q7.34-8.19 7.34-7.40L7.34-7.40L7.34-7.40Q7.34-6.79 7.03-6.15L7.03-6.15L7.03-6.15Q6.73-5.51 6.12-4.77L6.12-4.77L6.12-4.77Q5.67-4.21 5.15-3.65L5.15-3.65L5.15-3.65Q4.63-3.10 3.60-2.06L3.60-2.06L3.38-1.84ZM12.24 0.16L12.24 0.16Q10.64 0.16 9.72-0.73L9.72-0.73L9.72-0.73Q8.79-1.62 8.79-3.16L8.79-3.16L8.79-6.99L8.79-6.99Q8.79-8.50 9.72-9.38L9.72-9.38L9.72-9.38Q10.64-10.27 12.24-10.27L12.24-10.27L12.24-10.27Q13.83-10.27 14.77-9.38L14.77-9.38L14.77-9.38Q15.70-8.50 15.70-6.99L15.70-6.99L15.70-3.16L15.70-3.16Q15.70-1.62 14.77-0.73L14.77-0.73L14.77-0.73Q13.83 0.16 12.24 0.16L12.24 0.16ZM12.24-1.59L12.24-1.59Q12.89-1.59 13.27-1.99L13.27-1.99L13.27-1.99Q13.66-2.39 13.66-3.06L13.66-3.06L13.66-7.05L13.66-7.05Q13.66-7.71 13.27-8.11L13.27-8.11L13.27-8.11Q12.89-8.51 12.24-8.51L12.24-8.51L12.24-8.51Q11.60-8.51 11.22-8.11L11.22-8.11L11.22-8.11Q10.83-7.71 10.83-7.05L10.83-7.05L10.83-3.06L10.83-3.06Q10.83-2.39 11.22-1.99L11.22-1.99L11.22-1.99Q11.60-1.59 12.24-1.59L12.24-1.59ZM19.76-1.84L19.76-1.84Q19.73-1.81 19.75-1.78L19.75-1.78L19.75-1.78Q19.76-1.75 19.81-1.75L19.81-1.75L23.74-1.75L23.74-1.75Q23.81-1.75 23.86-1.70L23.86-1.70L23.86-1.70Q23.91-1.65 23.91-1.58L23.91-1.58L23.91-0.17L23.91-0.17Q23.91-0.10 23.86-0.05L23.86-0.05L23.86-0.05Q23.81 0 23.74 0L23.74 0L17.21 0L17.21 0Q17.14 0 17.09-0.05L17.09-0.05L17.09-0.05Q17.04-0.10 17.04-0.17L17.04-0.17L17.04-1.51L17.04-1.51Q17.04-1.64 17.12-1.73L17.12-1.73L17.12-1.73Q17.84-2.42 18.57-3.24L18.57-3.24L18.57-3.24Q19.31-4.06 19.50-4.26L19.50-4.26L19.50-4.26Q19.91-4.74 20.33-5.18L20.33-5.18L20.33-5.18Q21.65-6.64 21.65-7.35L21.65-7.35L21.65-7.35Q21.65-7.86 21.29-8.19L21.29-8.19L21.29-8.19Q20.92-8.51 20.34-8.51L20.34-8.51L20.34-8.51Q19.76-8.51 19.40-8.19L19.40-8.19L19.40-8.19Q19.04-7.86 19.04-7.32L19.04-7.32L19.04-6.96L19.04-6.96Q19.04-6.89 18.99-6.84L18.99-6.84L18.99-6.84Q18.94-6.79 18.86-6.79L18.86-6.79L17.15-6.79L17.15-6.79Q17.08-6.79 17.03-6.84L17.03-6.84L17.03-6.84Q16.98-6.89 16.98-6.96L16.98-6.96L16.98-7.64L16.98-7.64Q17.02-8.42 17.47-9.03L17.47-9.03L17.47-9.03Q17.92-9.63 18.67-9.95L18.67-9.95L18.67-9.95Q19.42-10.27 20.34-10.27L20.34-10.27L20.34-10.27Q21.37-10.27 22.13-9.88L22.13-9.88L22.13-9.88Q22.90-9.50 23.31-8.85L23.31-8.85L23.31-8.85Q23.72-8.19 23.72-7.40L23.72-7.40L23.72-7.40Q23.72-6.79 23.42-6.15L23.42-6.15L23.42-6.15Q23.11-5.51 22.50-4.77L22.50-4.77L22.50-4.77Q22.05-4.21 21.53-3.65L21.53-3.65L21.53-3.65Q21.01-3.10 19.98-2.06L19.98-2.06L19.76-1.84ZM28.62 0.16L28.62 0.16Q27.03 0.16 26.10-0.73L26.10-0.73L26.10-0.73Q25.17-1.62 25.17-3.16L25.17-3.16L25.17-6.99L25.17-6.99Q25.17-8.50 26.10-9.38L26.10-9.38L26.10-9.38Q27.03-10.27 28.62-10.27L28.62-10.27L28.62-10.27Q30.22-10.27 31.15-9.38L31.15-9.38L31.15-9.38Q32.09-8.50 32.09-6.99L32.09-6.99L32.09-3.16L32.09-3.16Q32.09-1.62 31.15-0.73L31.15-0.73L31.15-0.73Q30.22 0.16 28.62 0.16L28.62 0.16ZM28.62-1.59L28.62-1.59Q29.28-1.59 29.66-1.99L29.66-1.99L29.66-1.99Q30.04-2.39 30.04-3.06L30.04-3.06L30.04-7.05L30.04-7.05Q30.04-7.71 29.66-8.11L29.66-8.11L29.66-8.11Q29.28-8.51 28.62-8.51L28.62-8.51L28.62-8.51Q27.99-8.51 27.60-8.11L27.60-8.11L27.60-8.11Q27.22-7.71 27.22-7.05L27.22-7.05L27.22-3.06L27.22-3.06Q27.22-2.39 27.60-1.99L27.60-1.99L27.60-1.99Q27.99-1.59 28.62-1.59L28.62-1.59Z"/></g>
</svg>
