<svg width="175" height="135" viewBox="0 0 175 135" fill="none" xmlns="http://www.w3.org/2000/svg">
<path d="M2.5 25L3.06129 23.2725H4.87764L3.40818 22.2049L3.96946 20.4775L2.5 21.5451L1.03054 20.4775L1.59182 22.2049L0.122359 23.2725H1.93871L2.5 25Z" fill="#2300BD"/>
<path d="M92.5 25L93.0613 23.2725H94.8776L93.4082 22.2049L93.9695 20.4775L92.5 21.5451L91.0305 20.4775L91.5918 22.2049L90.1224 23.2725H91.9387L92.5 25Z" fill="#2300BD"/>
<path opacity="0.5" d="M2.5 85L3.06129 83.2725H4.87764L3.40818 82.2049L3.96946 80.4775L2.5 81.5451L1.03054 80.4775L1.59182 82.2049L0.122359 83.2725H1.93871L2.5 85Z" fill="#2300BD"/>
<path opacity="0.5" d="M92.5 85L93.0613 83.2725H94.8776L93.4082 82.2049L93.9695 80.4775L92.5 81.5451L91.0305 80.4775L91.5918 82.2049L90.1224 83.2725H91.9387L92.5 85Z" fill="#2300BD"/>
<path opacity="0.8" d="M2.5 35L3.06129 33.2725H4.87764L3.40818 32.2049L3.96946 30.4775L2.5 31.5451L1.03054 30.4775L1.59182 32.2049L0.122359 33.2725H1.93871L2.5 35Z" fill="#2300BD"/>
<path opacity="0.8" d="M92.5 35L93.0613 33.2725H94.8776L93.4082 32.2049L93.9695 30.4775L92.5 31.5451L91.0305 30.4775L91.5918 32.2049L90.1224 33.2725H91.9387L92.5 35Z" fill="#2300BD"/>
<path opacity="0.4" d="M2.5 95L3.06129 93.2725H4.87764L3.40818 92.2049L3.96946 90.4775L2.5 91.5451L1.03054 90.4775L1.59182 92.2049L0.122359 93.2725H1.93871L2.5 95Z" fill="#2300BD"/>
<path opacity="0.4" d="M92.5 95L93.0613 93.2725H94.8776L93.4082 92.2049L93.9695 90.4775L92.5 91.5451L91.0305 90.4775L91.5918 92.2049L90.1224 93.2725H91.9387L92.5 95Z" fill="#2300BD"/>
<path d="M12.5 25L13.0613 23.2725H14.8776L13.4082 22.2049L13.9695 20.4775L12.5 21.5451L11.0305 20.4775L11.5918 22.2049L10.1224 23.2725H11.9387L12.5 25Z" fill="#2300BD"/>
<path d="M102.5 25L103.061 23.2725H104.878L103.408 22.2049L103.969 20.4775L102.5 21.5451L101.031 20.4775L101.592 22.2049L100.122 23.2725H101.939L102.5 25Z" fill="#2300BD"/>
<path opacity="0.5" d="M12.5 85L13.0613 83.2725H14.8776L13.4082 82.2049L13.9695 80.4775L12.5 81.5451L11.0305 80.4775L11.5918 82.2049L10.1224 83.2725H11.9387L12.5 85Z" fill="#2300BD"/>
<path opacity="0.5" d="M102.5 85L103.061 83.2725H104.878L103.408 82.2049L103.969 80.4775L102.5 81.5451L101.031 80.4775L101.592 82.2049L100.122 83.2725H101.939L102.5 85Z" fill="#2300BD"/>
<path opacity="0.8" d="M12.5 35L13.0613 33.2725H14.8776L13.4082 32.2049L13.9695 30.4775L12.5 31.5451L11.0305 30.4775L11.5918 32.2049L10.1224 33.2725H11.9387L12.5 35Z" fill="#2300BD"/>
<path opacity="0.8" d="M102.5 35L103.061 33.2725H104.878L103.408 32.2049L103.969 30.4775L102.5 31.5451L101.031 30.4775L101.592 32.2049L100.122 33.2725H101.939L102.5 35Z" fill="#2300BD"/>
<path opacity="0.4" d="M12.5 95L13.0613 93.2725H14.8776L13.4082 92.2049L13.9695 90.4775L12.5 91.5451L11.0305 90.4775L11.5918 92.2049L10.1224 93.2725H11.9387L12.5 95Z" fill="#2300BD"/>
<path opacity="0.4" d="M102.5 95L103.061 93.2725H104.878L103.408 92.2049L103.969 90.4775L102.5 91.5451L101.031 90.4775L101.592 92.2049L100.122 93.2725H101.939L102.5 95Z" fill="#2300BD"/>
<path d="M22.5 25L23.0613 23.2725H24.8776L23.4082 22.2049L23.9695 20.4775L22.5 21.5451L21.0305 20.4775L21.5918 22.2049L20.1224 23.2725H21.9387L22.5 25Z" fill="#2300BD"/>
<path d="M112.5 25L113.061 23.2725H114.878L113.408 22.2049L113.969 20.4775L112.5 21.5451L111.031 20.4775L111.592 22.2049L110.122 23.2725H111.939L112.5 25Z" fill="#2300BD"/>
<path opacity="0.5" d="M22.5 85L23.0613 83.2725H24.8776L23.4082 82.2049L23.9695 80.4775L22.5 81.5451L21.0305 80.4775L21.5918 82.2049L20.1224 83.2725H21.9387L22.5 85Z" fill="#2300BD"/>
<path opacity="0.5" d="M112.5 85L113.061 83.2725H114.878L113.408 82.2049L113.969 80.4775L112.5 81.5451L111.031 80.4775L111.592 82.2049L110.122 83.2725H111.939L112.5 85Z" fill="#2300BD"/>
<path opacity="0.8" d="M22.5 35L23.0613 33.2725H24.8776L23.4082 32.2049L23.9695 30.4775L22.5 31.5451L21.0305 30.4775L21.5918 32.2049L20.1224 33.2725H21.9387L22.5 35Z" fill="#2300BD"/>
<path opacity="0.8" d="M112.5 35L113.061 33.2725H114.878L113.408 32.2049L113.969 30.4775L112.5 31.5451L111.031 30.4775L111.592 32.2049L110.122 33.2725H111.939L112.5 35Z" fill="#2300BD"/>
<path opacity="0.4" d="M22.5 95L23.0613 93.2725H24.8776L23.4082 92.2049L23.9695 90.4775L22.5 91.5451L21.0305 90.4775L21.5918 92.2049L20.1224 93.2725H21.9387L22.5 95Z" fill="#2300BD"/>
<path opacity="0.4" d="M112.5 95L113.061 93.2725H114.878L113.408 92.2049L113.969 90.4775L112.5 91.5451L111.031 90.4775L111.592 92.2049L110.122 93.2725H111.939L112.5 95Z" fill="#2300BD"/>
<path d="M32.5 25L33.0613 23.2725H34.8776L33.4082 22.2049L33.9695 20.4775L32.5 21.5451L31.0305 20.4775L31.5918 22.2049L30.1224 23.2725H31.9387L32.5 25Z" fill="#2300BD"/>
<path d="M122.5 25L123.061 23.2725H124.878L123.408 22.2049L123.969 20.4775L122.5 21.5451L121.031 20.4775L121.592 22.2049L120.122 23.2725H121.939L122.5 25Z" fill="#2300BD"/>
<path opacity="0.5" d="M32.5 85L33.0613 83.2725H34.8776L33.4082 82.2049L33.9695 80.4775L32.5 81.5451L31.0305 80.4775L31.5918 82.2049L30.1224 83.2725H31.9387L32.5 85Z" fill="#2300BD"/>
<path opacity="0.5" d="M122.5 85L123.061 83.2725H124.878L123.408 82.2049L123.969 80.4775L122.5 81.5451L121.031 80.4775L121.592 82.2049L120.122 83.2725H121.939L122.5 85Z" fill="#2300BD"/>
<path opacity="0.8" d="M32.5 35L33.0613 33.2725H34.8776L33.4082 32.2049L33.9695 30.4775L32.5 31.5451L31.0305 30.4775L31.5918 32.2049L30.1224 33.2725H31.9387L32.5 35Z" fill="#2300BD"/>
<path opacity="0.8" d="M122.5 35L123.061 33.2725H124.878L123.408 32.2049L123.969 30.4775L122.5 31.5451L121.031 30.4775L121.592 32.2049L120.122 33.2725H121.939L122.5 35Z" fill="#2300BD"/>
<path opacity="0.4" d="M32.5 95L33.0613 93.2725H34.8776L33.4082 92.2049L33.9695 90.4775L32.5 91.5451L31.0305 90.4775L31.5918 92.2049L30.1224 93.2725H31.9387L32.5 95Z" fill="#2300BD"/>
<path opacity="0.4" d="M122.5 95L123.061 93.2725H124.878L123.408 92.2049L123.969 90.4775L122.5 91.5451L121.031 90.4775L121.592 92.2049L120.122 93.2725H121.939L122.5 95Z" fill="#2300BD"/>
<path d="M42.5 25L43.0613 23.2725H44.8776L43.4082 22.2049L43.9695 20.4775L42.5 21.5451L41.0305 20.4775L41.5918 22.2049L40.1224 23.2725H41.9387L42.5 25Z" fill="#2300BD"/>
<path d="M132.5 25L133.061 23.2725H134.878L133.408 22.2049L133.969 20.4775L132.5 21.5451L131.031 20.4775L131.592 22.2049L130.122 23.2725H131.939L132.5 25Z" fill="#2300BD"/>
<path opacity="0.5" d="M42.5 85L43.0613 83.2725H44.8776L43.4082 82.2049L43.9695 80.4775L42.5 81.5451L41.0305 80.4775L41.5918 82.2049L40.1224 83.2725H41.9387L42.5 85Z" fill="#2300BD"/>
<path opacity="0.5" d="M132.5 85L133.061 83.2725H134.878L133.408 82.2049L133.969 80.4775L132.5 81.5451L131.031 80.4775L131.592 82.2049L130.122 83.2725H131.939L132.5 85Z" fill="#2300BD"/>
<path opacity="0.8" d="M42.5 35L43.0613 33.2725H44.8776L43.4082 32.2049L43.9695 30.4775L42.5 31.5451L41.0305 30.4775L41.5918 32.2049L40.1224 33.2725H41.9387L42.5 35Z" fill="#2300BD"/>
<path opacity="0.8" d="M132.5 35L133.061 33.2725H134.878L133.408 32.2049L133.969 30.4775L132.5 31.5451L131.031 30.4775L131.592 32.2049L130.122 33.2725H131.939L132.5 35Z" fill="#2300BD"/>
<path opacity="0.4" d="M42.5 95L43.0613 93.2725H44.8776L43.4082 92.2049L43.9695 90.4775L42.5 91.5451L41.0305 90.4775L41.5918 92.2049L40.1224 93.2725H41.9387L42.5 95Z" fill="#2300BD"/>
<path opacity="0.4" d="M132.5 95L133.061 93.2725H134.878L133.408 92.2049L133.969 90.4775L132.5 91.5451L131.031 90.4775L131.592 92.2049L130.122 93.2725H131.939L132.5 95Z" fill="#2300BD"/>
<path d="M52.5 25L53.0613 23.2725H54.8776L53.4082 22.2049L53.9695 20.4775L52.5 21.5451L51.0305 20.4775L51.5918 22.2049L50.1224 23.2725H51.9387L52.5 25Z" fill="#2300BD"/>
<path d="M142.5 25L143.061 23.2725H144.878L143.408 22.2049L143.969 20.4775L142.5 21.5451L141.031 20.4775L141.592 22.2049L140.122 23.2725H141.939L142.5 25Z" fill="#2300BD"/>
<path opacity="0.5" d="M52.5 85L53.0613 83.2725H54.8776L53.4082 82.2049L53.9695 80.4775L52.5 81.5451L51.0305 80.4775L51.5918 82.2049L50.1224 83.2725H51.9387L52.5 85Z" fill="#2300BD"/>
<path opacity="0.5" d="M142.5 85L143.061 83.2725H144.878L143.408 82.2049L143.969 80.4775L142.5 81.5451L141.031 80.4775L141.592 82.2049L140.122 83.2725H141.939L142.5 85Z" fill="#2300BD"/>
<path opacity="0.8" d="M52.5 35L53.0613 33.2725H54.8776L53.4082 32.2049L53.9695 30.4775L52.5 31.5451L51.0305 30.4775L51.5918 32.2049L50.1224 33.2725H51.9387L52.5 35Z" fill="#2300BD"/>
<path opacity="0.8" d="M142.5 35L143.061 33.2725H144.878L143.408 32.2049L143.969 30.4775L142.5 31.5451L141.031 30.4775L141.592 32.2049L140.122 33.2725H141.939L142.5 35Z" fill="#2300BD"/>
<path opacity="0.4" d="M52.5 95L53.0613 93.2725H54.8776L53.4082 92.2049L53.9695 90.4775L52.5 91.5451L51.0305 90.4775L51.5918 92.2049L50.1224 93.2725H51.9387L52.5 95Z" fill="#2300BD"/>
<path opacity="0.4" d="M142.5 95L143.061 93.2725H144.878L143.408 92.2049L143.969 90.4775L142.5 91.5451L141.031 90.4775L141.592 92.2049L140.122 93.2725H141.939L142.5 95Z" fill="#2300BD"/>
<path d="M62.5 25L63.0613 23.2725H64.8776L63.4082 22.2049L63.9695 20.4775L62.5 21.5451L61.0305 20.4775L61.5918 22.2049L60.1224 23.2725H61.9387L62.5 25Z" fill="#2300BD"/>
<path d="M152.5 25L153.061 23.2725H154.878L153.408 22.2049L153.969 20.4775L152.5 21.5451L151.031 20.4775L151.592 22.2049L150.122 23.2725H151.939L152.5 25Z" fill="#2300BD"/>
<path opacity="0.5" d="M62.5 85L63.0613 83.2725H64.8776L63.4082 82.2049L63.9695 80.4775L62.5 81.5451L61.0305 80.4775L61.5918 82.2049L60.1224 83.2725H61.9387L62.5 85Z" fill="#2300BD"/>
<path opacity="0.5" d="M152.5 85L153.061 83.2725H154.878L153.408 82.2049L153.969 80.4775L152.5 81.5451L151.031 80.4775L151.592 82.2049L150.122 83.2725H151.939L152.5 85Z" fill="#2300BD"/>
<path opacity="0.8" d="M62.5 35L63.0613 33.2725H64.8776L63.4082 32.2049L63.9695 30.4775L62.5 31.5451L61.0305 30.4775L61.5918 32.2049L60.1224 33.2725H61.9387L62.5 35Z" fill="#2300BD"/>
<path opacity="0.8" d="M152.5 35L153.061 33.2725H154.878L153.408 32.2049L153.969 30.4775L152.5 31.5451L151.031 30.4775L151.592 32.2049L150.122 33.2725H151.939L152.5 35Z" fill="#2300BD"/>
<path opacity="0.4" d="M62.5 95L63.0613 93.2725H64.8776L63.4082 92.2049L63.9695 90.4775L62.5 91.5451L61.0305 90.4775L61.5918 92.2049L60.1224 93.2725H61.9387L62.5 95Z" fill="#2300BD"/>
<path opacity="0.4" d="M152.5 95L153.061 93.2725H154.878L153.408 92.2049L153.969 90.4775L152.5 91.5451L151.031 90.4775L151.592 92.2049L150.122 93.2725H151.939L152.5 95Z" fill="#2300BD"/>
<path d="M72.5 25L73.0613 23.2725H74.8776L73.4082 22.2049L73.9695 20.4775L72.5 21.5451L71.0305 20.4775L71.5918 22.2049L70.1224 23.2725H71.9387L72.5 25Z" fill="#2300BD"/>
<path d="M162.5 25L163.061 23.2725H164.878L163.408 22.2049L163.969 20.4775L162.5 21.5451L161.031 20.4775L161.592 22.2049L160.122 23.2725H161.939L162.5 25Z" fill="#2300BD"/>
<path opacity="0.5" d="M72.5 85L73.0613 83.2725H74.8776L73.4082 82.2049L73.9695 80.4775L72.5 81.5451L71.0305 80.4775L71.5918 82.2049L70.1224 83.2725H71.9387L72.5 85Z" fill="#2300BD"/>
<path opacity="0.5" d="M162.5 85L163.061 83.2725H164.878L163.408 82.2049L163.969 80.4775L162.5 81.5451L161.031 80.4775L161.592 82.2049L160.122 83.2725H161.939L162.5 85Z" fill="#2300BD"/>
<path opacity="0.8" d="M72.5 35L73.0613 33.2725H74.8776L73.4082 32.2049L73.9695 30.4775L72.5 31.5451L71.0305 30.4775L71.5918 32.2049L70.1224 33.2725H71.9387L72.5 35Z" fill="#2300BD"/>
<path opacity="0.8" d="M162.5 35L163.061 33.2725H164.878L163.408 32.2049L163.969 30.4775L162.5 31.5451L161.031 30.4775L161.592 32.2049L160.122 33.2725H161.939L162.5 35Z" fill="#2300BD"/>
<path opacity="0.4" d="M72.5 95L73.0613 93.2725H74.8776L73.4082 92.2049L73.9695 90.4775L72.5 91.5451L71.0305 90.4775L71.5918 92.2049L70.1224 93.2725H71.9387L72.5 95Z" fill="#2300BD"/>
<path opacity="0.4" d="M162.5 95L163.061 93.2725H164.878L163.408 92.2049L163.969 90.4775L162.5 91.5451L161.031 90.4775L161.592 92.2049L160.122 93.2725H161.939L162.5 95Z" fill="#2300BD"/>
<path d="M82.5 25L83.0613 23.2725H84.8776L83.4082 22.2049L83.9695 20.4775L82.5 21.5451L81.0305 20.4775L81.5918 22.2049L80.1224 23.2725H81.9387L82.5 25Z" fill="#2300BD"/>
<path d="M172.5 25L173.061 23.2725H174.878L173.408 22.2049L173.969 20.4775L172.5 21.5451L171.031 20.4775L171.592 22.2049L170.122 23.2725H171.939L172.5 25Z" fill="#2300BD"/>
<path opacity="0.5" d="M82.5 85L83.0613 83.2725H84.8776L83.4082 82.2049L83.9695 80.4775L82.5 81.5451L81.0305 80.4775L81.5918 82.2049L80.1224 83.2725H81.9387L82.5 85Z" fill="#2300BD"/>
<path opacity="0.5" d="M172.5 85L173.061 83.2725H174.878L173.408 82.2049L173.969 80.4775L172.5 81.5451L171.031 80.4775L171.592 82.2049L170.122 83.2725H171.939L172.5 85Z" fill="#2300BD"/>
<path opacity="0.8" d="M82.5 35L83.0613 33.2725H84.8776L83.4082 32.2049L83.9695 30.4775L82.5 31.5451L81.0305 30.4775L81.5918 32.2049L80.1224 33.2725H81.9387L82.5 35Z" fill="#2300BD"/>
<path opacity="0.8" d="M172.5 35L173.061 33.2725H174.878L173.408 32.2049L173.969 30.4775L172.5 31.5451L171.031 30.4775L171.592 32.2049L170.122 33.2725H171.939L172.5 35Z" fill="#2300BD"/>
<path opacity="0.4" d="M82.5 95L83.0613 93.2725H84.8776L83.4082 92.2049L83.9695 90.4775L82.5 91.5451L81.0305 90.4775L81.5918 92.2049L80.1224 93.2725H81.9387L82.5 95Z" fill="#2300BD"/>
<path opacity="0.4" d="M172.5 95L173.061 93.2725H174.878L173.408 92.2049L173.969 90.4775L172.5 91.5451L171.031 90.4775L171.592 92.2049L170.122 93.2725H171.939L172.5 95Z" fill="#2300BD"/>
<path d="M2.5 5L3.06129 3.27254H4.87764L3.40818 2.20492L3.96946 0.477458L2.5 1.54508L1.03054 0.477458L1.59182 2.20492L0.122359 3.27254H1.93871L2.5 5Z" fill="#2300BD"/>
<path d="M92.5 5L93.0613 3.27254H94.8776L93.4082 2.20492L93.9695 0.477458L92.5 1.54508L91.0305 0.477458L91.5918 2.20492L90.1224 3.27254H91.9387L92.5 5Z" fill="#2300BD"/>
<path opacity="0.5" d="M2.5 65L3.06129 63.2725H4.87764L3.40818 62.2049L3.96946 60.4775L2.5 61.5451L1.03054 60.4775L1.59182 62.2049L0.122359 63.2725H1.93871L2.5 65Z" fill="#2300BD"/>
<path opacity="0.5" d="M92.5 65L93.0613 63.2725H94.8776L93.4082 62.2049L93.9695 60.4775L92.5 61.5451L91.0305 60.4775L91.5918 62.2049L90.1224 63.2725H91.9387L92.5 65Z" fill="#2300BD"/>
<path d="M2.5 15L3.06129 13.2725H4.87764L3.40818 12.2049L3.96946 10.4775L2.5 11.5451L1.03054 10.4775L1.59182 12.2049L0.122359 13.2725H1.93871L2.5 15Z" fill="#2300BD"/>
<path d="M92.5 15L93.0613 13.2725H94.8776L93.4082 12.2049L93.9695 10.4775L92.5 11.5451L91.0305 10.4775L91.5918 12.2049L90.1224 13.2725H91.9387L92.5 15Z" fill="#2300BD"/>
<path opacity="0.5" d="M2.5 75L3.06129 73.2725H4.87764L3.40818 72.2049L3.96946 70.4775L2.5 71.5451L1.03054 70.4775L1.59182 72.2049L0.122359 73.2725H1.93871L2.5 75Z" fill="#2300BD"/>
<path opacity="0.5" d="M92.5 75L93.0613 73.2725H94.8776L93.4082 72.2049L93.9695 70.4775L92.5 71.5451L91.0305 70.4775L91.5918 72.2049L90.1224 73.2725H91.9387L92.5 75Z" fill="#2300BD"/>
<path d="M12.5 5L13.0613 3.27254H14.8776L13.4082 2.20492L13.9695 0.477458L12.5 1.54508L11.0305 0.477458L11.5918 2.20492L10.1224 3.27254H11.9387L12.5 5Z" fill="#2300BD"/>
<path d="M102.5 5L103.061 3.27254H104.878L103.408 2.20492L103.969 0.477458L102.5 1.54508L101.031 0.477458L101.592 2.20492L100.122 3.27254H101.939L102.5 5Z" fill="#2300BD"/>
<path opacity="0.5" d="M12.5 65L13.0613 63.2725H14.8776L13.4082 62.2049L13.9695 60.4775L12.5 61.5451L11.0305 60.4775L11.5918 62.2049L10.1224 63.2725H11.9387L12.5 65Z" fill="#2300BD"/>
<path opacity="0.5" d="M102.5 65L103.061 63.2725H104.878L103.408 62.2049L103.969 60.4775L102.5 61.5451L101.031 60.4775L101.592 62.2049L100.122 63.2725H101.939L102.5 65Z" fill="#2300BD"/>
<path d="M12.5 15L13.0613 13.2725H14.8776L13.4082 12.2049L13.9695 10.4775L12.5 11.5451L11.0305 10.4775L11.5918 12.2049L10.1224 13.2725H11.9387L12.5 15Z" fill="#2300BD"/>
<path d="M102.5 15L103.061 13.2725H104.878L103.408 12.2049L103.969 10.4775L102.5 11.5451L101.031 10.4775L101.592 12.2049L100.122 13.2725H101.939L102.5 15Z" fill="#2300BD"/>
<path opacity="0.5" d="M12.5 75L13.0613 73.2725H14.8776L13.4082 72.2049L13.9695 70.4775L12.5 71.5451L11.0305 70.4775L11.5918 72.2049L10.1224 73.2725H11.9387L12.5 75Z" fill="#2300BD"/>
<path opacity="0.5" d="M102.5 75L103.061 73.2725H104.878L103.408 72.2049L103.969 70.4775L102.5 71.5451L101.031 70.4775L101.592 72.2049L100.122 73.2725H101.939L102.5 75Z" fill="#2300BD"/>
<path d="M22.5 5L23.0613 3.27254H24.8776L23.4082 2.20492L23.9695 0.477458L22.5 1.54508L21.0305 0.477458L21.5918 2.20492L20.1224 3.27254H21.9387L22.5 5Z" fill="#2300BD"/>
<path d="M112.5 5L113.061 3.27254H114.878L113.408 2.20492L113.969 0.477458L112.5 1.54508L111.031 0.477458L111.592 2.20492L110.122 3.27254H111.939L112.5 5Z" fill="#2300BD"/>
<path opacity="0.5" d="M22.5 65L23.0613 63.2725H24.8776L23.4082 62.2049L23.9695 60.4775L22.5 61.5451L21.0305 60.4775L21.5918 62.2049L20.1224 63.2725H21.9387L22.5 65Z" fill="#2300BD"/>
<path opacity="0.5" d="M112.5 65L113.061 63.2725H114.878L113.408 62.2049L113.969 60.4775L112.5 61.5451L111.031 60.4775L111.592 62.2049L110.122 63.2725H111.939L112.5 65Z" fill="#2300BD"/>
<path d="M22.5 15L23.0613 13.2725H24.8776L23.4082 12.2049L23.9695 10.4775L22.5 11.5451L21.0305 10.4775L21.5918 12.2049L20.1224 13.2725H21.9387L22.5 15Z" fill="#2300BD"/>
<path d="M112.5 15L113.061 13.2725H114.878L113.408 12.2049L113.969 10.4775L112.5 11.5451L111.031 10.4775L111.592 12.2049L110.122 13.2725H111.939L112.5 15Z" fill="#2300BD"/>
<path opacity="0.5" d="M22.5 75L23.0613 73.2725H24.8776L23.4082 72.2049L23.9695 70.4775L22.5 71.5451L21.0305 70.4775L21.5918 72.2049L20.1224 73.2725H21.9387L22.5 75Z" fill="#2300BD"/>
<path opacity="0.5" d="M112.5 75L113.061 73.2725H114.878L113.408 72.2049L113.969 70.4775L112.5 71.5451L111.031 70.4775L111.592 72.2049L110.122 73.2725H111.939L112.5 75Z" fill="#2300BD"/>
<path d="M32.5 5L33.0613 3.27254H34.8776L33.4082 2.20492L33.9695 0.477458L32.5 1.54508L31.0305 0.477458L31.5918 2.20492L30.1224 3.27254H31.9387L32.5 5Z" fill="#2300BD"/>
<path d="M122.5 5L123.061 3.27254H124.878L123.408 2.20492L123.969 0.477458L122.5 1.54508L121.031 0.477458L121.592 2.20492L120.122 3.27254H121.939L122.5 5Z" fill="#2300BD"/>
<path opacity="0.5" d="M32.5 65L33.0613 63.2725H34.8776L33.4082 62.2049L33.9695 60.4775L32.5 61.5451L31.0305 60.4775L31.5918 62.2049L30.1224 63.2725H31.9387L32.5 65Z" fill="#2300BD"/>
<path opacity="0.5" d="M122.5 65L123.061 63.2725H124.878L123.408 62.2049L123.969 60.4775L122.5 61.5451L121.031 60.4775L121.592 62.2049L120.122 63.2725H121.939L122.5 65Z" fill="#2300BD"/>
<path d="M32.5 15L33.0613 13.2725H34.8776L33.4082 12.2049L33.9695 10.4775L32.5 11.5451L31.0305 10.4775L31.5918 12.2049L30.1224 13.2725H31.9387L32.5 15Z" fill="#2300BD"/>
<path d="M122.5 15L123.061 13.2725H124.878L123.408 12.2049L123.969 10.4775L122.5 11.5451L121.031 10.4775L121.592 12.2049L120.122 13.2725H121.939L122.5 15Z" fill="#2300BD"/>
<path opacity="0.5" d="M32.5 75L33.0613 73.2725H34.8776L33.4082 72.2049L33.9695 70.4775L32.5 71.5451L31.0305 70.4775L31.5918 72.2049L30.1224 73.2725H31.9387L32.5 75Z" fill="#2300BD"/>
<path opacity="0.5" d="M122.5 75L123.061 73.2725H124.878L123.408 72.2049L123.969 70.4775L122.5 71.5451L121.031 70.4775L121.592 72.2049L120.122 73.2725H121.939L122.5 75Z" fill="#2300BD"/>
<path d="M42.5 5L43.0613 3.27254H44.8776L43.4082 2.20492L43.9695 0.477458L42.5 1.54508L41.0305 0.477458L41.5918 2.20492L40.1224 3.27254H41.9387L42.5 5Z" fill="#2300BD"/>
<path d="M132.5 5L133.061 3.27254H134.878L133.408 2.20492L133.969 0.477458L132.5 1.54508L131.031 0.477458L131.592 2.20492L130.122 3.27254H131.939L132.5 5Z" fill="#2300BD"/>
<path opacity="0.5" d="M42.5 65L43.0613 63.2725H44.8776L43.4082 62.2049L43.9695 60.4775L42.5 61.5451L41.0305 60.4775L41.5918 62.2049L40.1224 63.2725H41.9387L42.5 65Z" fill="#2300BD"/>
<path opacity="0.5" d="M132.5 65L133.061 63.2725H134.878L133.408 62.2049L133.969 60.4775L132.5 61.5451L131.031 60.4775L131.592 62.2049L130.122 63.2725H131.939L132.5 65Z" fill="#2300BD"/>
<path d="M42.5 15L43.0613 13.2725H44.8776L43.4082 12.2049L43.9695 10.4775L42.5 11.5451L41.0305 10.4775L41.5918 12.2049L40.1224 13.2725H41.9387L42.5 15Z" fill="#2300BD"/>
<path d="M132.5 15L133.061 13.2725H134.878L133.408 12.2049L133.969 10.4775L132.5 11.5451L131.031 10.4775L131.592 12.2049L130.122 13.2725H131.939L132.5 15Z" fill="#2300BD"/>
<path opacity="0.5" d="M42.5 75L43.0613 73.2725H44.8776L43.4082 72.2049L43.9695 70.4775L42.5 71.5451L41.0305 70.4775L41.5918 72.2049L40.1224 73.2725H41.9387L42.5 75Z" fill="#2300BD"/>
<path opacity="0.5" d="M132.5 75L133.061 73.2725H134.878L133.408 72.2049L133.969 70.4775L132.5 71.5451L131.031 70.4775L131.592 72.2049L130.122 73.2725H131.939L132.5 75Z" fill="#2300BD"/>
<path d="M52.5 5L53.0613 3.27254H54.8776L53.4082 2.20492L53.9695 0.477458L52.5 1.54508L51.0305 0.477458L51.5918 2.20492L50.1224 3.27254H51.9387L52.5 5Z" fill="#2300BD"/>
<path d="M142.5 5L143.061 3.27254H144.878L143.408 2.20492L143.969 0.477458L142.5 1.54508L141.031 0.477458L141.592 2.20492L140.122 3.27254H141.939L142.5 5Z" fill="#2300BD"/>
<path opacity="0.5" d="M52.5 65L53.0613 63.2725H54.8776L53.4082 62.2049L53.9695 60.4775L52.5 61.5451L51.0305 60.4775L51.5918 62.2049L50.1224 63.2725H51.9387L52.5 65Z" fill="#2300BD"/>
<path opacity="0.5" d="M142.5 65L143.061 63.2725H144.878L143.408 62.2049L143.969 60.4775L142.5 61.5451L141.031 60.4775L141.592 62.2049L140.122 63.2725H141.939L142.5 65Z" fill="#2300BD"/>
<path d="M52.5 15L53.0613 13.2725H54.8776L53.4082 12.2049L53.9695 10.4775L52.5 11.5451L51.0305 10.4775L51.5918 12.2049L50.1224 13.2725H51.9387L52.5 15Z" fill="#2300BD"/>
<path d="M142.5 15L143.061 13.2725H144.878L143.408 12.2049L143.969 10.4775L142.5 11.5451L141.031 10.4775L141.592 12.2049L140.122 13.2725H141.939L142.5 15Z" fill="#2300BD"/>
<path opacity="0.5" d="M52.5 75L53.0613 73.2725H54.8776L53.4082 72.2049L53.9695 70.4775L52.5 71.5451L51.0305 70.4775L51.5918 72.2049L50.1224 73.2725H51.9387L52.5 75Z" fill="#2300BD"/>
<path opacity="0.5" d="M142.5 75L143.061 73.2725H144.878L143.408 72.2049L143.969 70.4775L142.5 71.5451L141.031 70.4775L141.592 72.2049L140.122 73.2725H141.939L142.5 75Z" fill="#2300BD"/>
<path d="M62.5 5L63.0613 3.27254H64.8776L63.4082 2.20492L63.9695 0.477458L62.5 1.54508L61.0305 0.477458L61.5918 2.20492L60.1224 3.27254H61.9387L62.5 5Z" fill="#2300BD"/>
<path d="M152.5 5L153.061 3.27254H154.878L153.408 2.20492L153.969 0.477458L152.5 1.54508L151.031 0.477458L151.592 2.20492L150.122 3.27254H151.939L152.5 5Z" fill="#2300BD"/>
<path opacity="0.5" d="M62.5 65L63.0613 63.2725H64.8776L63.4082 62.2049L63.9695 60.4775L62.5 61.5451L61.0305 60.4775L61.5918 62.2049L60.1224 63.2725H61.9387L62.5 65Z" fill="#2300BD"/>
<path opacity="0.5" d="M152.5 65L153.061 63.2725H154.878L153.408 62.2049L153.969 60.4775L152.5 61.5451L151.031 60.4775L151.592 62.2049L150.122 63.2725H151.939L152.5 65Z" fill="#2300BD"/>
<path d="M62.5 15L63.0613 13.2725H64.8776L63.4082 12.2049L63.9695 10.4775L62.5 11.5451L61.0305 10.4775L61.5918 12.2049L60.1224 13.2725H61.9387L62.5 15Z" fill="#2300BD"/>
<path d="M152.5 15L153.061 13.2725H154.878L153.408 12.2049L153.969 10.4775L152.5 11.5451L151.031 10.4775L151.592 12.2049L150.122 13.2725H151.939L152.5 15Z" fill="#2300BD"/>
<path opacity="0.5" d="M62.5 75L63.0613 73.2725H64.8776L63.4082 72.2049L63.9695 70.4775L62.5 71.5451L61.0305 70.4775L61.5918 72.2049L60.1224 73.2725H61.9387L62.5 75Z" fill="#2300BD"/>
<path opacity="0.5" d="M152.5 75L153.061 73.2725H154.878L153.408 72.2049L153.969 70.4775L152.5 71.5451L151.031 70.4775L151.592 72.2049L150.122 73.2725H151.939L152.5 75Z" fill="#2300BD"/>
<path d="M72.5 5L73.0613 3.27254H74.8776L73.4082 2.20492L73.9695 0.477458L72.5 1.54508L71.0305 0.477458L71.5918 2.20492L70.1224 3.27254H71.9387L72.5 5Z" fill="#2300BD"/>
<path d="M162.5 5L163.061 3.27254H164.878L163.408 2.20492L163.969 0.477458L162.5 1.54508L161.031 0.477458L161.592 2.20492L160.122 3.27254H161.939L162.5 5Z" fill="#2300BD"/>
<path opacity="0.5" d="M72.5 65L73.0613 63.2725H74.8776L73.4082 62.2049L73.9695 60.4775L72.5 61.5451L71.0305 60.4775L71.5918 62.2049L70.1224 63.2725H71.9387L72.5 65Z" fill="#2300BD"/>
<path opacity="0.5" d="M162.5 65L163.061 63.2725H164.878L163.408 62.2049L163.969 60.4775L162.5 61.5451L161.031 60.4775L161.592 62.2049L160.122 63.2725H161.939L162.5 65Z" fill="#2300BD"/>
<path d="M72.5 15L73.0613 13.2725H74.8776L73.4082 12.2049L73.9695 10.4775L72.5 11.5451L71.0305 10.4775L71.5918 12.2049L70.1224 13.2725H71.9387L72.5 15Z" fill="#2300BD"/>
<path d="M162.5 15L163.061 13.2725H164.878L163.408 12.2049L163.969 10.4775L162.5 11.5451L161.031 10.4775L161.592 12.2049L160.122 13.2725H161.939L162.5 15Z" fill="#2300BD"/>
<path opacity="0.5" d="M72.5 75L73.0613 73.2725H74.8776L73.4082 72.2049L73.9695 70.4775L72.5 71.5451L71.0305 70.4775L71.5918 72.2049L70.1224 73.2725H71.9387L72.5 75Z" fill="#2300BD"/>
<path opacity="0.5" d="M162.5 75L163.061 73.2725H164.878L163.408 72.2049L163.969 70.4775L162.5 71.5451L161.031 70.4775L161.592 72.2049L160.122 73.2725H161.939L162.5 75Z" fill="#2300BD"/>
<path d="M82.5 5L83.0613 3.27254H84.8776L83.4082 2.20492L83.9695 0.477458L82.5 1.54508L81.0305 0.477458L81.5918 2.20492L80.1224 3.27254H81.9387L82.5 5Z" fill="#2300BD"/>
<path d="M172.5 5L173.061 3.27254H174.878L173.408 2.20492L173.969 0.477458L172.5 1.54508L171.031 0.477458L171.592 2.20492L170.122 3.27254H171.939L172.5 5Z" fill="#2300BD"/>
<path opacity="0.5" d="M82.5 65L83.0613 63.2725H84.8776L83.4082 62.2049L83.9695 60.4775L82.5 61.5451L81.0305 60.4775L81.5918 62.2049L80.1224 63.2725H81.9387L82.5 65Z" fill="#2300BD"/>
<path opacity="0.5" d="M172.5 65L173.061 63.2725H174.878L173.408 62.2049L173.969 60.4775L172.5 61.5451L171.031 60.4775L171.592 62.2049L170.122 63.2725H171.939L172.5 65Z" fill="#2300BD"/>
<path d="M82.5 15L83.0613 13.2725H84.8776L83.4082 12.2049L83.9695 10.4775L82.5 11.5451L81.0305 10.4775L81.5918 12.2049L80.1224 13.2725H81.9387L82.5 15Z" fill="#2300BD"/>
<path d="M172.5 15L173.061 13.2725H174.878L173.408 12.2049L173.969 10.4775L172.5 11.5451L171.031 10.4775L171.592 12.2049L170.122 13.2725H171.939L172.5 15Z" fill="#2300BD"/>
<path opacity="0.5" d="M82.5 75L83.0613 73.2725H84.8776L83.4082 72.2049L83.9695 70.4775L82.5 71.5451L81.0305 70.4775L81.5918 72.2049L80.1224 73.2725H81.9387L82.5 75Z" fill="#2300BD"/>
<path opacity="0.5" d="M172.5 75L173.061 73.2725H174.878L173.408 72.2049L173.969 70.4775L172.5 71.5451L171.031 70.4775L171.592 72.2049L170.122 73.2725H171.939L172.5 75Z" fill="#2300BD"/>
<path opacity="0.8" d="M2.5 45L3.06129 43.2725H4.87764L3.40818 42.2049L3.96946 40.4775L2.5 41.5451L1.03054 40.4775L1.59182 42.2049L0.122359 43.2725H1.93871L2.5 45Z" fill="#2300BD"/>
<path opacity="0.8" d="M92.5 45L93.0613 43.2725H94.8776L93.4082 42.2049L93.9695 40.4775L92.5 41.5451L91.0305 40.4775L91.5918 42.2049L90.1224 43.2725H91.9387L92.5 45Z" fill="#2300BD"/>
<path opacity="0.4" d="M2.5 105L3.06129 103.273H4.87764L3.40818 102.205L3.96946 100.477L2.5 101.545L1.03054 100.477L1.59182 102.205L0.122359 103.273H1.93871L2.5 105Z" fill="#2300BD"/>
<path opacity="0.4" d="M92.5 105L93.0613 103.273H94.8776L93.4082 102.205L93.9695 100.477L92.5 101.545L91.0305 100.477L91.5918 102.205L90.1224 103.273H91.9387L92.5 105Z" fill="#2300BD"/>
<path opacity="0.8" d="M2.5 55L3.06129 53.2725H4.87764L3.40818 52.2049L3.96946 50.4775L2.5 51.5451L1.03054 50.4775L1.59182 52.2049L0.122359 53.2725H1.93871L2.5 55Z" fill="#2300BD"/>
<path opacity="0.8" d="M92.5 55L93.0613 53.2725H94.8776L93.4082 52.2049L93.9695 50.4775L92.5 51.5451L91.0305 50.4775L91.5918 52.2049L90.1224 53.2725H91.9387L92.5 55Z" fill="#2300BD"/>
<path opacity="0.4" d="M2.5 115L3.06129 113.273H4.87764L3.40818 112.205L3.96946 110.477L2.5 111.545L1.03054 110.477L1.59182 112.205L0.122359 113.273H1.93871L2.5 115Z" fill="#2300BD"/>
<path opacity="0.4" d="M92.5 115L93.0613 113.273H94.8776L93.4082 112.205L93.9695 110.477L92.5 111.545L91.0305 110.477L91.5918 112.205L90.1224 113.273H91.9387L92.5 115Z" fill="#2300BD"/>
<path opacity="0.8" d="M12.5 45L13.0613 43.2725H14.8776L13.4082 42.2049L13.9695 40.4775L12.5 41.5451L11.0305 40.4775L11.5918 42.2049L10.1224 43.2725H11.9387L12.5 45Z" fill="#2300BD"/>
<path opacity="0.8" d="M102.5 45L103.061 43.2725H104.878L103.408 42.2049L103.969 40.4775L102.5 41.5451L101.031 40.4775L101.592 42.2049L100.122 43.2725H101.939L102.5 45Z" fill="#2300BD"/>
<path opacity="0.4" d="M12.5 105L13.0613 103.273H14.8776L13.4082 102.205L13.9695 100.477L12.5 101.545L11.0305 100.477L11.5918 102.205L10.1224 103.273H11.9387L12.5 105Z" fill="#2300BD"/>
<path opacity="0.4" d="M102.5 105L103.061 103.273H104.878L103.408 102.205L103.969 100.477L102.5 101.545L101.031 100.477L101.592 102.205L100.122 103.273H101.939L102.5 105Z" fill="#2300BD"/>
<path opacity="0.8" d="M12.5 55L13.0613 53.2725H14.8776L13.4082 52.2049L13.9695 50.4775L12.5 51.5451L11.0305 50.4775L11.5918 52.2049L10.1224 53.2725H11.9387L12.5 55Z" fill="#2300BD"/>
<path opacity="0.8" d="M102.5 55L103.061 53.2725H104.878L103.408 52.2049L103.969 50.4775L102.5 51.5451L101.031 50.4775L101.592 52.2049L100.122 53.2725H101.939L102.5 55Z" fill="#2300BD"/>
<path opacity="0.4" d="M12.5 115L13.0613 113.273H14.8776L13.4082 112.205L13.9695 110.477L12.5 111.545L11.0305 110.477L11.5918 112.205L10.1224 113.273H11.9387L12.5 115Z" fill="#2300BD"/>
<path opacity="0.4" d="M102.5 115L103.061 113.273H104.878L103.408 112.205L103.969 110.477L102.5 111.545L101.031 110.477L101.592 112.205L100.122 113.273H101.939L102.5 115Z" fill="#2300BD"/>
<path opacity="0.8" d="M22.5 45L23.0613 43.2725H24.8776L23.4082 42.2049L23.9695 40.4775L22.5 41.5451L21.0305 40.4775L21.5918 42.2049L20.1224 43.2725H21.9387L22.5 45Z" fill="#2300BD"/>
<path opacity="0.8" d="M112.5 45L113.061 43.2725H114.878L113.408 42.2049L113.969 40.4775L112.5 41.5451L111.031 40.4775L111.592 42.2049L110.122 43.2725H111.939L112.5 45Z" fill="#2300BD"/>
<path opacity="0.4" d="M22.5 105L23.0613 103.273H24.8776L23.4082 102.205L23.9695 100.477L22.5 101.545L21.0305 100.477L21.5918 102.205L20.1224 103.273H21.9387L22.5 105Z" fill="#2300BD"/>
<path opacity="0.4" d="M112.5 105L113.061 103.273H114.878L113.408 102.205L113.969 100.477L112.5 101.545L111.031 100.477L111.592 102.205L110.122 103.273H111.939L112.5 105Z" fill="#2300BD"/>
<path opacity="0.8" d="M22.5 55L23.0613 53.2725H24.8776L23.4082 52.2049L23.9695 50.4775L22.5 51.5451L21.0305 50.4775L21.5918 52.2049L20.1224 53.2725H21.9387L22.5 55Z" fill="#2300BD"/>
<path opacity="0.8" d="M112.5 55L113.061 53.2725H114.878L113.408 52.2049L113.969 50.4775L112.5 51.5451L111.031 50.4775L111.592 52.2049L110.122 53.2725H111.939L112.5 55Z" fill="#2300BD"/>
<path opacity="0.4" d="M22.5 115L23.0613 113.273H24.8776L23.4082 112.205L23.9695 110.477L22.5 111.545L21.0305 110.477L21.5918 112.205L20.1224 113.273H21.9387L22.5 115Z" fill="#2300BD"/>
<path opacity="0.4" d="M112.5 115L113.061 113.273H114.878L113.408 112.205L113.969 110.477L112.5 111.545L111.031 110.477L111.592 112.205L110.122 113.273H111.939L112.5 115Z" fill="#2300BD"/>
<path opacity="0.8" d="M32.5 45L33.0613 43.2725H34.8776L33.4082 42.2049L33.9695 40.4775L32.5 41.5451L31.0305 40.4775L31.5918 42.2049L30.1224 43.2725H31.9387L32.5 45Z" fill="#2300BD"/>
<path opacity="0.8" d="M122.5 45L123.061 43.2725H124.878L123.408 42.2049L123.969 40.4775L122.5 41.5451L121.031 40.4775L121.592 42.2049L120.122 43.2725H121.939L122.5 45Z" fill="#2300BD"/>
<path opacity="0.4" d="M32.5 105L33.0613 103.273H34.8776L33.4082 102.205L33.9695 100.477L32.5 101.545L31.0305 100.477L31.5918 102.205L30.1224 103.273H31.9387L32.5 105Z" fill="#2300BD"/>
<path opacity="0.4" d="M122.5 105L123.061 103.273H124.878L123.408 102.205L123.969 100.477L122.5 101.545L121.031 100.477L121.592 102.205L120.122 103.273H121.939L122.5 105Z" fill="#2300BD"/>
<path opacity="0.8" d="M32.5 55L33.0613 53.2725H34.8776L33.4082 52.2049L33.9695 50.4775L32.5 51.5451L31.0305 50.4775L31.5918 52.2049L30.1224 53.2725H31.9387L32.5 55Z" fill="#2300BD"/>
<path opacity="0.8" d="M122.5 55L123.061 53.2725H124.878L123.408 52.2049L123.969 50.4775L122.5 51.5451L121.031 50.4775L121.592 52.2049L120.122 53.2725H121.939L122.5 55Z" fill="#2300BD"/>
<path opacity="0.4" d="M32.5 115L33.0613 113.273H34.8776L33.4082 112.205L33.9695 110.477L32.5 111.545L31.0305 110.477L31.5918 112.205L30.1224 113.273H31.9387L32.5 115Z" fill="#2300BD"/>
<path opacity="0.4" d="M122.5 115L123.061 113.273H124.878L123.408 112.205L123.969 110.477L122.5 111.545L121.031 110.477L121.592 112.205L120.122 113.273H121.939L122.5 115Z" fill="#2300BD"/>
<path opacity="0.8" d="M42.5 45L43.0613 43.2725H44.8776L43.4082 42.2049L43.9695 40.4775L42.5 41.5451L41.0305 40.4775L41.5918 42.2049L40.1224 43.2725H41.9387L42.5 45Z" fill="#2300BD"/>
<path opacity="0.8" d="M132.5 45L133.061 43.2725H134.878L133.408 42.2049L133.969 40.4775L132.5 41.5451L131.031 40.4775L131.592 42.2049L130.122 43.2725H131.939L132.5 45Z" fill="#2300BD"/>
<path opacity="0.4" d="M42.5 105L43.0613 103.273H44.8776L43.4082 102.205L43.9695 100.477L42.5 101.545L41.0305 100.477L41.5918 102.205L40.1224 103.273H41.9387L42.5 105Z" fill="#2300BD"/>
<path opacity="0.4" d="M132.5 105L133.061 103.273H134.878L133.408 102.205L133.969 100.477L132.5 101.545L131.031 100.477L131.592 102.205L130.122 103.273H131.939L132.5 105Z" fill="#2300BD"/>
<path opacity="0.8" d="M42.5 55L43.0613 53.2725H44.8776L43.4082 52.2049L43.9695 50.4775L42.5 51.5451L41.0305 50.4775L41.5918 52.2049L40.1224 53.2725H41.9387L42.5 55Z" fill="#2300BD"/>
<path opacity="0.8" d="M132.5 55L133.061 53.2725H134.878L133.408 52.2049L133.969 50.4775L132.5 51.5451L131.031 50.4775L131.592 52.2049L130.122 53.2725H131.939L132.5 55Z" fill="#2300BD"/>
<path opacity="0.4" d="M42.5 115L43.0613 113.273H44.8776L43.4082 112.205L43.9695 110.477L42.5 111.545L41.0305 110.477L41.5918 112.205L40.1224 113.273H41.9387L42.5 115Z" fill="#2300BD"/>
<path opacity="0.4" d="M132.5 115L133.061 113.273H134.878L133.408 112.205L133.969 110.477L132.5 111.545L131.031 110.477L131.592 112.205L130.122 113.273H131.939L132.5 115Z" fill="#2300BD"/>
<path opacity="0.8" d="M52.5 45L53.0613 43.2725H54.8776L53.4082 42.2049L53.9695 40.4775L52.5 41.5451L51.0305 40.4775L51.5918 42.2049L50.1224 43.2725H51.9387L52.5 45Z" fill="#2300BD"/>
<path opacity="0.8" d="M142.5 45L143.061 43.2725H144.878L143.408 42.2049L143.969 40.4775L142.5 41.5451L141.031 40.4775L141.592 42.2049L140.122 43.2725H141.939L142.5 45Z" fill="#2300BD"/>
<path opacity="0.4" d="M52.5 105L53.0613 103.273H54.8776L53.4082 102.205L53.9695 100.477L52.5 101.545L51.0305 100.477L51.5918 102.205L50.1224 103.273H51.9387L52.5 105Z" fill="#2300BD"/>
<path opacity="0.4" d="M142.5 105L143.061 103.273H144.878L143.408 102.205L143.969 100.477L142.5 101.545L141.031 100.477L141.592 102.205L140.122 103.273H141.939L142.5 105Z" fill="#2300BD"/>
<path opacity="0.8" d="M52.5 55L53.0613 53.2725H54.8776L53.4082 52.2049L53.9695 50.4775L52.5 51.5451L51.0305 50.4775L51.5918 52.2049L50.1224 53.2725H51.9387L52.5 55Z" fill="#2300BD"/>
<path opacity="0.8" d="M142.5 55L143.061 53.2725H144.878L143.408 52.2049L143.969 50.4775L142.5 51.5451L141.031 50.4775L141.592 52.2049L140.122 53.2725H141.939L142.5 55Z" fill="#2300BD"/>
<path opacity="0.4" d="M52.5 115L53.0613 113.273H54.8776L53.4082 112.205L53.9695 110.477L52.5 111.545L51.0305 110.477L51.5918 112.205L50.1224 113.273H51.9387L52.5 115Z" fill="#2300BD"/>
<path opacity="0.4" d="M142.5 115L143.061 113.273H144.878L143.408 112.205L143.969 110.477L142.5 111.545L141.031 110.477L141.592 112.205L140.122 113.273H141.939L142.5 115Z" fill="#2300BD"/>
<path opacity="0.8" d="M62.5 45L63.0613 43.2725H64.8776L63.4082 42.2049L63.9695 40.4775L62.5 41.5451L61.0305 40.4775L61.5918 42.2049L60.1224 43.2725H61.9387L62.5 45Z" fill="#2300BD"/>
<path opacity="0.8" d="M152.5 45L153.061 43.2725H154.878L153.408 42.2049L153.969 40.4775L152.5 41.5451L151.031 40.4775L151.592 42.2049L150.122 43.2725H151.939L152.5 45Z" fill="#2300BD"/>
<path opacity="0.4" d="M62.5 105L63.0613 103.273H64.8776L63.4082 102.205L63.9695 100.477L62.5 101.545L61.0305 100.477L61.5918 102.205L60.1224 103.273H61.9387L62.5 105Z" fill="#2300BD"/>
<path opacity="0.4" d="M152.5 105L153.061 103.273H154.878L153.408 102.205L153.969 100.477L152.5 101.545L151.031 100.477L151.592 102.205L150.122 103.273H151.939L152.5 105Z" fill="#2300BD"/>
<path opacity="0.8" d="M62.5 55L63.0613 53.2725H64.8776L63.4082 52.2049L63.9695 50.4775L62.5 51.5451L61.0305 50.4775L61.5918 52.2049L60.1224 53.2725H61.9387L62.5 55Z" fill="#2300BD"/>
<path opacity="0.8" d="M152.5 55L153.061 53.2725H154.878L153.408 52.2049L153.969 50.4775L152.5 51.5451L151.031 50.4775L151.592 52.2049L150.122 53.2725H151.939L152.5 55Z" fill="#2300BD"/>
<path opacity="0.4" d="M62.5 115L63.0613 113.273H64.8776L63.4082 112.205L63.9695 110.477L62.5 111.545L61.0305 110.477L61.5918 112.205L60.1224 113.273H61.9387L62.5 115Z" fill="#2300BD"/>
<path opacity="0.4" d="M152.5 115L153.061 113.273H154.878L153.408 112.205L153.969 110.477L152.5 111.545L151.031 110.477L151.592 112.205L150.122 113.273H151.939L152.5 115Z" fill="#2300BD"/>
<path opacity="0.8" d="M72.5 45L73.0613 43.2725H74.8776L73.4082 42.2049L73.9695 40.4775L72.5 41.5451L71.0305 40.4775L71.5918 42.2049L70.1224 43.2725H71.9387L72.5 45Z" fill="#2300BD"/>
<path opacity="0.8" d="M162.5 45L163.061 43.2725H164.878L163.408 42.2049L163.969 40.4775L162.5 41.5451L161.031 40.4775L161.592 42.2049L160.122 43.2725H161.939L162.5 45Z" fill="#2300BD"/>
<path opacity="0.4" d="M72.5 105L73.0613 103.273H74.8776L73.4082 102.205L73.9695 100.477L72.5 101.545L71.0305 100.477L71.5918 102.205L70.1224 103.273H71.9387L72.5 105Z" fill="#2300BD"/>
<path opacity="0.4" d="M162.5 105L163.061 103.273H164.878L163.408 102.205L163.969 100.477L162.5 101.545L161.031 100.477L161.592 102.205L160.122 103.273H161.939L162.5 105Z" fill="#2300BD"/>
<path opacity="0.8" d="M72.5 55L73.0613 53.2725H74.8776L73.4082 52.2049L73.9695 50.4775L72.5 51.5451L71.0305 50.4775L71.5918 52.2049L70.1224 53.2725H71.9387L72.5 55Z" fill="#2300BD"/>
<path opacity="0.8" d="M162.5 55L163.061 53.2725H164.878L163.408 52.2049L163.969 50.4775L162.5 51.5451L161.031 50.4775L161.592 52.2049L160.122 53.2725H161.939L162.5 55Z" fill="#2300BD"/>
<path opacity="0.4" d="M72.5 115L73.0613 113.273H74.8776L73.4082 112.205L73.9695 110.477L72.5 111.545L71.0305 110.477L71.5918 112.205L70.1224 113.273H71.9387L72.5 115Z" fill="#2300BD"/>
<path opacity="0.4" d="M162.5 115L163.061 113.273H164.878L163.408 112.205L163.969 110.477L162.5 111.545L161.031 110.477L161.592 112.205L160.122 113.273H161.939L162.5 115Z" fill="#2300BD"/>
<path opacity="0.8" d="M82.5 45L83.0613 43.2725H84.8776L83.4082 42.2049L83.9695 40.4775L82.5 41.5451L81.0305 40.4775L81.5918 42.2049L80.1224 43.2725H81.9387L82.5 45Z" fill="#2300BD"/>
<path opacity="0.8" d="M172.5 45L173.061 43.2725H174.878L173.408 42.2049L173.969 40.4775L172.5 41.5451L171.031 40.4775L171.592 42.2049L170.122 43.2725H171.939L172.5 45Z" fill="#2300BD"/>
<path opacity="0.4" d="M82.5 105L83.0613 103.273H84.8776L83.4082 102.205L83.9695 100.477L82.5 101.545L81.0305 100.477L81.5918 102.205L80.1224 103.273H81.9387L82.5 105Z" fill="#2300BD"/>
<path opacity="0.4" d="M172.5 105L173.061 103.273H174.878L173.408 102.205L173.969 100.477L172.5 101.545L171.031 100.477L171.592 102.205L170.122 103.273H171.939L172.5 105Z" fill="#2300BD"/>
<path opacity="0.8" d="M82.5 55L83.0613 53.2725H84.8776L83.4082 52.2049L83.9695 50.4775L82.5 51.5451L81.0305 50.4775L81.5918 52.2049L80.1224 53.2725H81.9387L82.5 55Z" fill="#2300BD"/>
<path opacity="0.8" d="M172.5 55L173.061 53.2725H174.878L173.408 52.2049L173.969 50.4775L172.5 51.5451L171.031 50.4775L171.592 52.2049L170.122 53.2725H171.939L172.5 55Z" fill="#2300BD"/>
<path opacity="0.4" d="M82.5 115L83.0613 113.273H84.8776L83.4082 112.205L83.9695 110.477L82.5 111.545L81.0305 110.477L81.5918 112.205L80.1224 113.273H81.9387L82.5 115Z" fill="#2300BD"/>
<path opacity="0.4" d="M172.5 115L173.061 113.273H174.878L173.408 112.205L173.969 110.477L172.5 111.545L171.031 110.477L171.592 112.205L170.122 113.273H171.939L172.5 115Z" fill="#2300BD"/>
<path opacity="0.18" d="M2.5 125L3.06129 123.273H4.87764L3.40818 122.205L3.96946 120.477L2.5 121.545L1.03054 120.477L1.59182 122.205L0.122359 123.273H1.93871L2.5 125Z" fill="#2300BD"/>
<path opacity="0.18" d="M92.5 125L93.0613 123.273H94.8776L93.4082 122.205L93.9695 120.477L92.5 121.545L91.0305 120.477L91.5918 122.205L90.1224 123.273H91.9387L92.5 125Z" fill="#2300BD"/>
<path opacity="0.18" d="M2.5 135L3.06129 133.273H4.87764L3.40818 132.205L3.96946 130.477L2.5 131.545L1.03054 130.477L1.59182 132.205L0.122359 133.273H1.93871L2.5 135Z" fill="#2300BD"/>
<path opacity="0.18" d="M92.5 135L93.0613 133.273H94.8776L93.4082 132.205L93.9695 130.477L92.5 131.545L91.0305 130.477L91.5918 132.205L90.1224 133.273H91.9387L92.5 135Z" fill="#2300BD"/>
<path opacity="0.18" d="M12.5 125L13.0613 123.273H14.8776L13.4082 122.205L13.9695 120.477L12.5 121.545L11.0305 120.477L11.5918 122.205L10.1224 123.273H11.9387L12.5 125Z" fill="#2300BD"/>
<path opacity="0.18" d="M102.5 125L103.061 123.273H104.878L103.408 122.205L103.969 120.477L102.5 121.545L101.031 120.477L101.592 122.205L100.122 123.273H101.939L102.5 125Z" fill="#2300BD"/>
<path opacity="0.18" d="M12.5 135L13.0613 133.273H14.8776L13.4082 132.205L13.9695 130.477L12.5 131.545L11.0305 130.477L11.5918 132.205L10.1224 133.273H11.9387L12.5 135Z" fill="#2300BD"/>
<path opacity="0.18" d="M102.5 135L103.061 133.273H104.878L103.408 132.205L103.969 130.477L102.5 131.545L101.031 130.477L101.592 132.205L100.122 133.273H101.939L102.5 135Z" fill="#2300BD"/>
<path opacity="0.18" d="M22.5 125L23.0613 123.273H24.8776L23.4082 122.205L23.9695 120.477L22.5 121.545L21.0305 120.477L21.5918 122.205L20.1224 123.273H21.9387L22.5 125Z" fill="#2300BD"/>
<path opacity="0.18" d="M112.5 125L113.061 123.273H114.878L113.408 122.205L113.969 120.477L112.5 121.545L111.031 120.477L111.592 122.205L110.122 123.273H111.939L112.5 125Z" fill="#2300BD"/>
<path opacity="0.18" d="M22.5 135L23.0613 133.273H24.8776L23.4082 132.205L23.9695 130.477L22.5 131.545L21.0305 130.477L21.5918 132.205L20.1224 133.273H21.9387L22.5 135Z" fill="#2300BD"/>
<path opacity="0.18" d="M112.5 135L113.061 133.273H114.878L113.408 132.205L113.969 130.477L112.5 131.545L111.031 130.477L111.592 132.205L110.122 133.273H111.939L112.5 135Z" fill="#2300BD"/>
<path opacity="0.18" d="M32.5 125L33.0613 123.273H34.8776L33.4082 122.205L33.9695 120.477L32.5 121.545L31.0305 120.477L31.5918 122.205L30.1224 123.273H31.9387L32.5 125Z" fill="#2300BD"/>
<path opacity="0.18" d="M122.5 125L123.061 123.273H124.878L123.408 122.205L123.969 120.477L122.5 121.545L121.031 120.477L121.592 122.205L120.122 123.273H121.939L122.5 125Z" fill="#2300BD"/>
<path opacity="0.18" d="M32.5 135L33.0613 133.273H34.8776L33.4082 132.205L33.9695 130.477L32.5 131.545L31.0305 130.477L31.5918 132.205L30.1224 133.273H31.9387L32.5 135Z" fill="#2300BD"/>
<path opacity="0.18" d="M122.5 135L123.061 133.273H124.878L123.408 132.205L123.969 130.477L122.5 131.545L121.031 130.477L121.592 132.205L120.122 133.273H121.939L122.5 135Z" fill="#2300BD"/>
<path opacity="0.18" d="M42.5 125L43.0613 123.273H44.8776L43.4082 122.205L43.9695 120.477L42.5 121.545L41.0305 120.477L41.5918 122.205L40.1224 123.273H41.9387L42.5 125Z" fill="#2300BD"/>
<path opacity="0.18" d="M132.5 125L133.061 123.273H134.878L133.408 122.205L133.969 120.477L132.5 121.545L131.031 120.477L131.592 122.205L130.122 123.273H131.939L132.5 125Z" fill="#2300BD"/>
<path opacity="0.18" d="M42.5 135L43.0613 133.273H44.8776L43.4082 132.205L43.9695 130.477L42.5 131.545L41.0305 130.477L41.5918 132.205L40.1224 133.273H41.9387L42.5 135Z" fill="#2300BD"/>
<path opacity="0.18" d="M132.5 135L133.061 133.273H134.878L133.408 132.205L133.969 130.477L132.5 131.545L131.031 130.477L131.592 132.205L130.122 133.273H131.939L132.5 135Z" fill="#2300BD"/>
<path opacity="0.18" d="M52.5 125L53.0613 123.273H54.8776L53.4082 122.205L53.9695 120.477L52.5 121.545L51.0305 120.477L51.5918 122.205L50.1224 123.273H51.9387L52.5 125Z" fill="#2300BD"/>
<path opacity="0.18" d="M142.5 125L143.061 123.273H144.878L143.408 122.205L143.969 120.477L142.5 121.545L141.031 120.477L141.592 122.205L140.122 123.273H141.939L142.5 125Z" fill="#2300BD"/>
<path opacity="0.18" d="M52.5 135L53.0613 133.273H54.8776L53.4082 132.205L53.9695 130.477L52.5 131.545L51.0305 130.477L51.5918 132.205L50.1224 133.273H51.9387L52.5 135Z" fill="#2300BD"/>
<path opacity="0.18" d="M142.5 135L143.061 133.273H144.878L143.408 132.205L143.969 130.477L142.5 131.545L141.031 130.477L141.592 132.205L140.122 133.273H141.939L142.5 135Z" fill="#2300BD"/>
<path opacity="0.18" d="M62.5 125L63.0613 123.273H64.8776L63.4082 122.205L63.9695 120.477L62.5 121.545L61.0305 120.477L61.5918 122.205L60.1224 123.273H61.9387L62.5 125Z" fill="#2300BD"/>
<path opacity="0.18" d="M152.5 125L153.061 123.273H154.878L153.408 122.205L153.969 120.477L152.5 121.545L151.031 120.477L151.592 122.205L150.122 123.273H151.939L152.5 125Z" fill="#2300BD"/>
<path opacity="0.18" d="M62.5 135L63.0613 133.273H64.8776L63.4082 132.205L63.9695 130.477L62.5 131.545L61.0305 130.477L61.5918 132.205L60.1224 133.273H61.9387L62.5 135Z" fill="#2300BD"/>
<path opacity="0.18" d="M152.5 135L153.061 133.273H154.878L153.408 132.205L153.969 130.477L152.5 131.545L151.031 130.477L151.592 132.205L150.122 133.273H151.939L152.5 135Z" fill="#2300BD"/>
<path opacity="0.18" d="M72.5 125L73.0613 123.273H74.8776L73.4082 122.205L73.9695 120.477L72.5 121.545L71.0305 120.477L71.5918 122.205L70.1224 123.273H71.9387L72.5 125Z" fill="#2300BD"/>
<path opacity="0.18" d="M162.5 125L163.061 123.273H164.878L163.408 122.205L163.969 120.477L162.5 121.545L161.031 120.477L161.592 122.205L160.122 123.273H161.939L162.5 125Z" fill="#2300BD"/>
<path opacity="0.18" d="M72.5 135L73.0613 133.273H74.8776L73.4082 132.205L73.9695 130.477L72.5 131.545L71.0305 130.477L71.5918 132.205L70.1224 133.273H71.9387L72.5 135Z" fill="#2300BD"/>
<path opacity="0.18" d="M162.5 135L163.061 133.273H164.878L163.408 132.205L163.969 130.477L162.5 131.545L161.031 130.477L161.592 132.205L160.122 133.273H161.939L162.5 135Z" fill="#2300BD"/>
<path opacity="0.18" d="M82.5 125L83.0613 123.273H84.8776L83.4082 122.205L83.9695 120.477L82.5 121.545L81.0305 120.477L81.5918 122.205L80.1224 123.273H81.9387L82.5 125Z" fill="#2300BD"/>
<path opacity="0.18" d="M172.5 125L173.061 123.273H174.878L173.408 122.205L173.969 120.477L172.5 121.545L171.031 120.477L171.592 122.205L170.122 123.273H171.939L172.5 125Z" fill="#2300BD"/>
<path opacity="0.18" d="M82.5 135L83.0613 133.273H84.8776L83.4082 132.205L83.9695 130.477L82.5 131.545L81.0305 130.477L81.5918 132.205L80.1224 133.273H81.9387L82.5 135Z" fill="#2300BD"/>
<path opacity="0.18" d="M172.5 135L173.061 133.273H174.878L173.408 132.205L173.969 130.477L172.5 131.545L171.031 130.477L171.592 132.205L170.122 133.273H171.939L172.5 135Z" fill="#2300BD"/>
</svg>
