<?xml version="1.0" encoding="UTF-8"?>
<svg width="452px" height="101px" viewBox="0 0 452 101" version="1.1" xmlns="http://www.w3.org/2000/svg" xmlns:xlink="http://www.w3.org/1999/xlink">
    <!-- Generator: Sketch 59.1 (86144) - https://sketch.com -->
    <title>Group 27</title>
    <desc>Created with Sketch.</desc>
    <defs>
        <polygon id="path-1" points="0.0169230769 0.0649193548 164.824564 0.0649193548 164.824564 35 0.0169230769 35"></polygon>
    </defs>
    <g id="Page-1" stroke="none" stroke-width="1" fill="none" fill-rule="evenodd">
        <g id="Desktop-HD" transform="translate(-149.000000, -2969.000000)">
            <g id="Group-27" transform="translate(149.000000, 2969.000000)">
                <g id="send-in-blue" transform="translate(198.000000, 71.000000)" fill="#FFFFFF" fill-rule="nonzero">
                    <path d="M38.1526891,8.30031068 C36.3262185,8.30031068 35.1562185,8.90234951 35.1562185,9.97592233 C35.1562185,11.0494951 36.3852101,11.5210291 38.2116807,11.7116117 C40.8083193,11.9324854 44.1751261,12.3739806 44.1751261,15.8958447 C44.1751261,18.4042136 41.8056303,20.1901359 38.1821849,20.1901359 C35.8966387,20.1901359 33.6998319,19.6885631 31.7647059,17.681767 L33.305042,15.6749709 C34.5980672,16.9694175 36.3428571,17.6908544 38.157479,17.681767 C39.7273109,17.681767 41.2676471,17.210233 41.2676471,15.9460777 C41.2676471,14.6816699 40.0678992,14.2654175 37.9847899,14.0745825 C35.3584034,13.8539612 32.2484874,13.0711845 32.2484874,10.0609903 C32.2484874,7.05104854 35.4768908,5.93229126 38.0982353,5.93229126 C40.0581688,5.89404866 41.9729144,6.52377761 43.5284874,7.71821359 L41.9881513,9.50943689 C40.8794653,8.69065124 39.5298717,8.26519301 38.1526891,8.30031068 L38.1526891,8.30031068 Z M53.9052101,17.5512621 C55.3863025,17.5512621 57.1041176,17.0496893 57.9877311,16.0914757 L59.9031933,17.8773981 C58.4468067,19.4477476 56.0180672,20.1901359 53.8510084,20.1901359 C49.2254622,20.1901359 46.2584874,17.4109126 46.2584874,13.0613398 C46.2584874,8.93238835 49.3389076,5.93229126 53.7917647,5.93229126 C57.9335294,5.93229126 60.7868067,8.27027184 60.7868067,12.9558252 C60.7868067,13.3369903 60.7570588,13.7534951 60.727563,14.1649515 L49.3240336,14.1649515 C49.5710924,16.2820583 51.2987395,17.5512621 53.9052101,17.5512621 Z M53.7917647,8.46590291 C51.6539496,8.46590291 49.7979832,9.59450485 49.3487395,11.796932 L57.8841176,11.796932 C57.7162185,9.61974757 56.2353782,8.46590291 53.7917647,8.46590291 Z M74.4017647,12.2333786 C74.4017647,9.89565049 73.0295798,8.54617476 70.6056303,8.54617476 C69.5319269,8.53714999 68.5023439,8.97334533 67.7611765,9.75126214 C67.0132956,10.5361509 66.614766,11.5908621 66.6564706,12.6748738 L66.6564706,19.864 L63.6942857,19.864 L63.6942857,6.2632233 L66.379916,6.2632233 L66.552605,8.15970874 C67.7261345,6.73854369 69.4613445,5.92219417 71.2870588,5.93219869 C74.6833613,5.93219869 77.3389916,7.96937864 77.3389916,12.2083883 L77.3389916,19.8642524 L74.3773109,19.8642524 L74.4020168,12.2333786 L74.4017647,12.2333786 Z M95.2933613,19.8642524 L92.5240336,19.8642524 L92.3510924,17.7118058 C91.2471429,19.3286019 89.4090756,20.262835 87.4739496,20.1901359 C83.3914286,20.1901359 80.2815126,17.5765049 80.2815126,13.0613398 C80.2815126,8.43561165 83.3319328,5.93229126 87.4147059,5.93229126 C89.1277311,5.93229126 91.4379832,6.72996117 92.3510924,8.35559223 L92.3510924,0.619203883 L95.3132773,0.619203883 L95.2933613,19.864 L95.2933613,19.8642524 Z M83.2184874,13.0613398 C83.2184874,15.8153204 85.1586555,17.5512621 87.6615126,17.5512621 C90.0935294,17.5512621 92.064958,15.5477476 92.064958,13.076233 C92.064958,10.6049709 90.0935294,8.60120388 87.6615126,8.60120388 C85.1586555,8.60120388 83.2184874,10.3071068 83.2184874,13.0613398 L83.2184874,13.0613398 Z M100.773025,0.25823301 C101.248918,0.219027437 101.718866,0.385279257 102.064538,0.715126214 C102.413299,1.04794301 102.607251,1.51157761 102.599496,1.99392233 C102.528908,2.96627184 101.732269,3.71875728 100.773025,3.71875728 C99.8135294,3.71875728 99.0168908,2.96652427 98.9465546,1.99392233 C98.9387991,1.51157761 99.1327511,1.04794301 99.4815126,0.715126214 C99.8271842,0.385279257 100.297133,0.219027437 100.773025,0.25823301 L100.773025,0.25823301 Z M102.229412,19.8642524 L99.2672269,19.8642524 L99.2672269,6.26347573 L102.229412,6.26347573 L102.229412,19.8642524 Z M116.895882,12.2333786 C116.895882,9.89565049 115.528487,8.54617476 113.099496,8.54617476 C112.025375,8.53572961 110.994967,8.971494 110.253529,9.74974757 C109.505317,10.5349405 109.107231,11.5904671 109.150336,12.6748738 L109.150336,19.864 L106.188403,19.864 L106.188403,6.2632233 L108.868992,6.2632233 L109.041681,8.15970874 C110.217227,6.73854369 111.95395,5.92194175 113.780924,5.93219406 C117.177227,5.93219406 119.833109,7.96937864 119.833109,12.2083883 L119.833109,19.8642524 L116.870924,19.8642524 L116.895882,12.2333786 L116.895882,12.2333786 Z M126.571513,8.4908932 C127.484874,6.86526214 129.799916,5.93229126 131.508151,5.93229126 C135.560924,5.93229126 138.646387,8.44066019 138.646387,13.0613398 C138.646387,17.5765049 135.333782,20.1901359 131.483445,20.1901359 C129.711176,20.1901359 127.687059,19.4477476 126.571513,17.7118058 L126.403613,19.8642524 L123.634286,19.8642524 L123.634286,0.619203883 L126.596218,0.619203883 L126.571513,8.4908932 L126.571513,8.4908932 Z M126.744202,13.0613398 C126.724518,14.270034 127.195807,15.4349309 128.050084,16.2891262 C128.896541,17.1355681 130.055686,17.5925872 131.251261,17.5512621 C133.823445,17.5512621 135.694286,15.8155728 135.694286,13.0613398 C135.694286,10.3071068 133.813613,8.60120388 131.251261,8.60120388 C130.061199,8.56154375 128.907478,9.01504542 128.062185,9.85475728 C127.209167,10.7020482 126.733922,11.8582934 126.744202,13.0613398 Z M144.836723,19.8642524 L141.87479,19.8642524 L141.87479,0.619203883 L144.836975,0.619203883 L144.836975,19.8642524 L144.836723,19.8642524 Z M151.659076,13.6684272 C151.659076,15.981165 153.002017,17.5765049 155.484958,17.5765049 C156.551252,17.5871315 157.573993,17.1535497 158.308487,16.3794951 C159.04991,15.5984871 159.442076,14.5490488 159.39479,13.4725437 L159.39479,6.2632233 L162.332017,6.2632233 L162.332017,19.864 L159.681176,19.864 L159.508235,17.9879612 C158.31,19.4411845 156.520336,20.2534951 154.655546,20.1901359 C151.2,20.1901359 148.731681,17.7971262 148.731681,13.6934175 L148.731681,6.26347573 L151.668908,6.26347573 L151.659076,13.6684272 L151.659076,13.6684272 Z M173.123445,17.5512621 C174.604286,17.5512621 176.317311,17.0496893 177.205966,16.0914757 L179.116387,17.8773981 C177.66,19.4477476 175.236303,20.1901359 173.064202,20.1901359 C168.443445,20.1901359 165.471681,17.4109126 165.471681,13.0613398 C165.471681,8.93238835 168.557143,5.93229126 173.009748,5.93229126 C177.146723,5.93229126 180,8.27027184 180,12.9558252 C180,13.3369903 179.970504,13.7534951 179.945798,14.1649515 L168.527395,14.1649515 C168.789076,16.2820583 170.526555,17.5512621 173.123193,17.5512621 L173.123445,17.5512621 Z M173.01,8.46590291 C170.867143,8.46590291 169.011176,9.59450485 168.566975,11.796932 L177.097311,11.796932 C176.91958,9.61974757 175.433445,8.46590291 173.009748,8.46590291 L173.01,8.46590291 Z" id="Shape"></path>
                    <path d="M21.7343697,18.6069126 C21.0778288,19.7477165 20.0056579,20.5896826 18.7426891,20.9562524 C18.9232172,20.3357819 19.0153866,19.6929049 19.0164706,19.0466408 C19.0164706,15.8281942 16.8012605,13.1287379 13.8277311,12.3936699 C14.4441291,11.7900336 15.2052387,11.3553083 16.0378992,11.1312816 C17.3351821,10.7776974 18.7199699,10.9612648 19.8806723,11.6406796 C22.2990756,13.0469515 23.1305042,16.1717476 21.7343697,18.6069126 M12.2069748,24.1459223 C10.8842017,24.1459223 9.62596639,23.616835 8.69243697,22.7133981 C9.31592471,22.5600914 9.91438792,22.3185263 10.4697479,21.996 C13.2368067,20.3872816 14.4506723,17.1072427 13.5978151,14.1472816 C15.7152101,14.7581553 17.2711765,16.7210291 17.2711765,19.0466408 C17.2711765,21.8579223 14.9989916,24.1459223 12.2069748,24.1459223 M2.67907563,18.6069126 C2.01781513,17.4533204 1.84663866,16.0942524 2.15571429,14.8300971 C2.59918938,15.2944255 3.10555731,15.6941302 3.66,16.0175146 C4.69032936,16.6184403 5.86140693,16.934976 7.05378151,16.934835 C8.91293019,16.9332579 10.6907516,16.1713121 11.9752941,14.8255534 C12.5064706,16.976233 11.5958824,19.3114369 9.59722689,20.4736117 C8.83110209,20.9204447 7.96031525,21.1558006 7.07369748,21.1556703 C5.25834625,21.1564036 3.58152773,20.1839517 2.67882353,18.6069126 M2.67882353,7.5288932 C3.33542409,6.38803828 4.40769375,5.54606555 5.6707563,5.1795534 C5.48984212,5.80012534 5.39749895,6.4432001 5.39647059,7.0896699 C5.39647059,10.3063495 7.61067227,13.0050485 10.5826891,13.7413786 C8.99848739,15.282699 6.53243697,15.6578058 4.53277311,14.4951262 C3.3610084,13.8135728 2.52327731,12.7142524 2.17310924,11.3983495 C1.82170385,10.0924717 2.00365782,8.70025689 2.67882353,7.5288932 M12.2069748,1.9898835 C13.5302521,1.9898835 14.7872269,2.51846602 15.72,3.42114563 C15.0970595,3.57576211 14.499052,3.81770521 13.9436975,4.13980583 C12.3680672,5.0561165 11.2411765,6.53458252 10.7707563,8.30409709 C10.4483479,9.51297849 10.4631711,10.7872378 10.8136134,11.9882718 C8.69722689,11.3768932 7.14252101,9.41427184 7.14252101,7.0896699 C7.14252101,4.27763107 9.41420168,1.9898835 12.2069748,1.9898835 M21.7343697,7.5288932 C22.3963866,8.684 22.5678151,10.0445825 22.2567227,11.3102524 C21.8143929,10.8439116 21.3083651,10.4426107 20.7536975,10.1182913 C19.1780672,9.20273786 17.3430252,8.95939806 15.5856303,9.43345631 C14.3827081,9.75793508 13.2928069,10.4091231 12.4363866,11.3150485 C12.2264203,10.4750853 12.2335346,9.59541923 12.4570588,8.75897087 C12.8067227,7.44332039 13.6447059,6.34349515 14.8164706,5.66219417 C15.9879832,4.98139806 17.352605,4.80040777 18.6592437,5.15279612 C19.9658824,5.50543689 21.0577311,6.34930097 21.7343697,7.5288932 M23.2462185,6.6504466 C22.3366387,5.06394175 20.8681513,3.92928155 19.1107563,3.4552233 C18.6953419,3.34373014 18.2703503,3.27172187 17.8414286,3.24015534 C16.5809244,1.37370874 14.465042,0.23223301 12.2069748,0.23223301 C9.86823529,0.23223301 7.80176471,1.42596117 6.57504202,3.23939806 C4.33815126,3.40499029 2.29689076,4.67974757 1.16747899,6.64994175 C0.257394958,8.23619417 0.0161344538,10.084466 0.486554622,11.8539806 C0.5984845,12.271848 0.749138445,12.6783373 0.936554622,13.0681553 C-0.0383193277,15.1009515 0.0378151261,17.5166796 1.16697479,19.4861165 C2.33621849,21.5252233 4.39537815,22.7290485 6.56798319,22.8926214 C7.82848739,24.7605825 9.94865546,25.9040777 12.2067227,25.9040777 C14.5452101,25.9040777 16.6116807,24.7100971 17.8381513,22.8964078 C20.075042,22.7308155 22.1163025,21.4565631 23.2459664,19.4861165 C24.4154622,17.4465049 24.4215126,15.0476893 23.4751261,13.0714369 C24.4512605,11.0376311 24.3756303,8.6208932 23.2459664,6.6504466" id="Shape"></path>
                </g>
                <g id="5bc9dfc2c343fb7044720823_userlane-logo-optimized" transform="translate(312.000000, 0.000000)" fill="#FFFFFF">
                    <g id="Group" transform="translate(39.789474, 0.000000)">
                        <path d="M54.0350877,0 L54.0350877,0.549019608 C54.0350877,6.04901961 54.0350877,11.5473856 54.0350877,17.0441176 L54.0350877,17.4607843 L51.0042105,17.4607843 L51.0042105,0 L54.0350877,0 Z" id="Path"></path>
                        <path d="M66.8070175,6.40686275 L66.8070175,4.90196078 L69.8378947,4.90196078 L69.8378947,17.4509804 L66.8070175,17.4509804 L66.8070175,15.8872549 C66.4756717,16.2637155 66.1160319,16.614406 65.7312281,16.9362745 C64.6957444,17.6132238 63.4511485,17.8967574 62.2238596,17.7352941 C60.7457752,17.6303831 59.3585701,16.9844972 58.3284211,15.9215686 C57.2986893,14.8803608 56.6513429,13.5227531 56.4912281,12.0686275 C56.2369816,10.3163507 56.6833631,8.53457567 57.7340351,7.10784314 C58.7123188,5.74168393 60.2234359,4.85151714 61.8947368,4.65686275 C63.2021097,4.41778839 64.5517934,4.67666312 65.677193,5.38235294 C66.084949,5.68800339 66.4632004,6.03099677 66.8070175,6.40686275 L66.8070175,6.40686275 Z M63.2112281,7.35294118 C62.2086316,7.3260229 61.2385816,7.70925195 60.5261429,8.41371398 C59.8137042,9.118176 59.4208026,10.0826386 59.4385965,11.0833333 C59.373842,12.0926195 59.7274752,13.0841264 60.4166723,13.8256351 C61.1058695,14.5671437 62.0700912,14.9935196 63.0835088,15.004902 C65.1448741,15.091321 66.8944192,13.5113091 67.0133333,11.4558824 C67.1093026,10.3950957 66.7504979,9.34338396 66.0258406,8.56138925 C65.3011833,7.77939453 64.2784961,7.34030591 63.2112281,7.35294118 L63.2112281,7.35294118 Z" id="Shape"></path>
                        <path d="M28.4617544,11.9117647 C28.5845614,14.0098039 30.1417544,15.127451 32.0231579,15.2009804 C33.3891851,15.2954438 34.7249419,14.7694687 35.6582456,13.7696078 C36.277193,14.3529412 36.8715789,14.9264706 37.4807018,15.504902 C36.4204174,16.7026829 34.9618436,17.4774457 33.3740351,17.6862745 C31.9426754,17.9161695 30.4754852,17.7465162 29.1347368,17.1960784 C27.1081062,16.3460545 25.7238619,14.4412845 25.5438596,12.254902 C25.3486568,10.9274416 25.5184437,9.57199976 26.0350877,8.33333333 C26.803973,6.4060907 28.5208898,5.01576672 30.5691228,4.66176471 C32.2856503,4.24024956 34.1003034,4.53969387 35.5894737,5.49019608 C37.0759371,6.43320527 38.0575312,7.99433421 38.2617544,9.74019608 C38.3649123,10.4411765 38.3452632,11.1617647 38.3845614,11.9166667 L28.4617544,11.9117647 Z M35.2603509,9.80392157 C35.2228494,8.81493633 34.6326278,7.93051696 33.7326316,7.51470588 C32.3964883,6.81906766 30.7734797,6.98488373 29.6063158,7.93627451 C28.9874055,8.36498466 28.5999044,9.05343211 28.5550877,9.80392157 L35.2603509,9.80392157 Z" id="Shape"></path>
                        <path d="M97.037193,13.7843137 L98.84,15.504902 C97.7626601,16.7191372 96.2776387,17.4984431 94.6645614,17.6960784 C92.9988681,17.9614283 91.2920978,17.6628965 89.8161404,16.8480392 C88.1387809,15.8914715 87.037604,14.175413 86.8687719,12.254902 C86.6759679,10.8770085 86.8733497,9.47276843 87.4385965,8.20098039 C88.2307367,6.33707512 89.9188415,5.00346639 91.9185965,4.66176471 C93.6344562,4.23880569 95.449061,4.53647022 96.9389474,5.48529412 C98.4238799,6.42982107 99.4049694,7.99014752 99.6112281,9.73529412 C99.714386,10.4362745 99.6947368,11.1568627 99.7340351,11.9264706 L89.8407018,11.9264706 C89.8228817,13.3183501 90.7304681,14.5539132 92.0659649,14.9558824 C93.4753368,15.474755 95.0500517,15.2714611 96.2807018,14.4117647 C96.5263158,14.2156863 96.7719298,14.0098039 97.037193,13.7843137 Z M96.6147368,9.7745098 C96.6006565,9.09898479 96.3115629,8.45829741 95.8140351,8 C94.2342554,6.64616883 91.8565608,6.81455396 90.4842105,8.37745098 C90.1377016,8.76190365 89.940763,9.25756354 89.9291228,9.7745098 L96.6147368,9.7745098 Z" id="Shape"></path>
                        <path d="M0.0638596491,4.79411765 L3.09964912,4.79411765 L3.09964912,5.20588235 L3.09964912,12.4117647 C3.06903013,13.0496457 3.29527364,13.6732626 3.72800058,14.1437507 C4.16072751,14.6142388 4.7640091,14.892534 5.40350877,14.9166667 C6.14815167,15.0378334 6.91135809,14.8788749 7.54526316,14.4705882 C8.14644483,14.0751209 8.51390481,13.4095822 8.5277193,12.6911765 C8.59157895,11.5245098 8.59649123,10.3578431 8.60631579,9.19607843 L8.60631579,4.78431373 L11.6421053,4.78431373 L11.6421053,5.08333333 L11.6421053,12.2205882 C11.6763276,13.3093524 11.3912088,14.3843943 10.8217544,15.3137255 C10.0212898,16.5229687 8.74868183,17.3411337 7.31438596,17.5686275 C5.92945794,17.8700653 4.48589618,17.7522969 3.16842105,17.2303922 C1.49684887,16.625549 0.314286327,15.1262227 0.117894737,13.3627451 C0.0687594877,13.0218009 0.044210354,12.6777852 0.044210354,12.3333333 L0.044210354,4.95098039 C0.0480974315,4.89839484 0.0546555699,4.84603995 0.0638596491,4.79411765 L0.0638596491,4.79411765 Z" id="Path"></path>
                        <path d="M75.8308772,17.4607843 L72.8,17.4607843 L72.8,17.1470588 L72.8,10.0735294 C72.7692195,8.9970507 73.0470022,7.93417046 73.6007018,7.00980392 C74.3999985,5.78826667 75.6791406,4.96044036 77.122807,4.73039216 C78.4876707,4.43908503 79.9080556,4.55152308 81.2098246,5.05392157 C82.9103372,5.64635016 84.1194412,7.15979674 84.3192982,8.94607843 C84.3642147,9.27091494 84.3855568,9.59856505 84.3831579,9.92647059 L84.3831579,17.0343137 L84.3831579,17.4313725 L81.3375439,17.4313725 L81.3375439,17.0392157 L81.3375439,9.89705882 C81.3695906,9.26112238 81.1467678,8.63859309 80.7182369,8.16681995 C80.289706,7.69504681 79.6906839,7.41280042 79.0533333,7.38235294 C78.3191428,7.26437055 77.5669803,7.41588021 76.9361404,7.80882353 C76.3226345,8.2027871 75.9452747,8.87509697 75.9291228,9.60294118 C75.8652632,10.6078431 75.8603509,11.6127451 75.8554386,12.6176471 C75.8210526,14.2156863 75.8308772,15.8235294 75.8308772,17.4607843 L75.8308772,17.4607843 Z" id="Path"></path>
                        <path d="M21.5010526,8.15196078 C20.6243443,7.27061706 19.3554682,6.90038011 18.1410526,7.17156863 C17.841434,7.20160501 17.570136,7.36138941 17.3989776,7.60862304 C17.2278192,7.85585668 17.1740594,8.16560945 17.2519298,8.45588235 C17.3232184,8.76581302 17.5527844,9.01538395 17.8561404,9.1127451 C18.5929825,9.40686275 19.354386,9.64215686 20.0814035,9.95588235 C20.8856776,10.2600311 21.6601757,10.6374416 22.3950877,11.0833333 C24.36,12.4019608 24.0063158,15.0686275 22.8863158,16.3039216 C22.0458033,17.158445 20.9239321,17.680769 19.7277193,17.7745098 C18.556969,17.9348623 17.3652851,17.8395272 16.2350877,17.495098 C15.017366,17.1743407 13.984287,16.3701611 13.3761404,15.2696078 L15.1691228,13.7254902 C15.4147368,13.9166667 15.6603509,14.0980392 15.8617544,14.2696078 C17.0279601,15.2109315 18.6033299,15.4732516 20.0126316,14.9607843 C20.3491832,14.8900739 20.631568,14.6630475 20.772422,14.3499421 C20.9132761,14.0368368 20.8956185,13.6753993 20.7249123,13.377451 C20.5531952,13.1203418 20.3110793,12.9178681 20.0273684,12.7941176 C19.1480702,12.4362745 18.2392982,12.1372549 17.3452632,11.8137255 C16.4195154,11.5421274 15.5921639,11.0093089 14.962807,10.2794118 C14.0498634,9.00174139 14.0918963,7.27601949 15.0659649,6.04411765 C15.8033558,5.18814574 16.8510527,4.6592271 17.9789474,4.57352941 C19.2779826,4.36687167 20.6088973,4.6034806 21.7564912,5.24509804 C22.268317,5.59155829 22.7603141,5.96632711 23.2301754,6.36764706 L21.5010526,8.15196078 Z" id="Path"></path>
                        <path d="M40.7719298,4.87254902 L43.7192982,4.87254902 L43.7192982,6.67647059 C44.8196491,4.84313725 46.4603509,4.46568627 48.3663158,4.65686275 L48.3663158,7.54411765 C47.9389474,7.54411765 47.5164912,7.48529412 47.0940351,7.48529412 C45.0407018,7.48529412 43.7438596,8.7745098 43.7291228,10.8284314 C43.714386,12.8823529 43.7291228,14.9901961 43.7291228,17.0686275 L43.7291228,17.4558824 L40.7817544,17.4558824 L40.7719298,4.87254902 Z" id="Path"></path>
                    </g>
                    <path d="M4.81894737,9.72551279 C7.47366689,9.72007825 9.62185487,7.56909344 9.61824571,4.91994799 C9.61462744,2.27080254 7.46057909,0.125661805 4.80585464,0.12746097 C2.15113019,0.129262401 -2.53825038e-06,2.27732268 -2.53825038e-06,4.92647059 C-0.00131231635,6.20135094 0.506290129,7.4242489 1.41058634,8.32480558 C2.31488254,9.22536226 3.54138839,9.72940155 4.81894737,9.72551279 L4.81894737,9.72551279 Z" id="Path" fill-rule="nonzero"></path>
                    <polygon id="Path" fill-rule="nonzero" points="15.0659649 0.205882353 24.6105263 0.205882353 24.6105263 9.73039216 15.0659649 9.73039216"></polygon>
                    <path d="M18.4603509,12.4313725 C18.4603509,15.6862745 15.7192982,18.8382353 12.3052632,18.8382353 C8.89122807,18.8382353 6.15508772,15.6862745 6.15508772,12.4313725 L0,12.4313725 C0,18.8921569 5.51157895,24.6862745 12.3052632,24.6862745 C19.0989474,24.6862745 24.6105263,18.8921569 24.6105263,12.4313725 L18.4603509,12.4313725 Z" id="Path" fill-rule="nonzero"></path>
                </g>
                <g id="GetAccept_Logo_Grey_Print" transform="translate(0.000000, 66.000000)">
                    <path d="M61.6093077,17.6095161 L61.6093077,22.8970565 C61.6093077,23.5490726 61.2601282,24.0850806 60.7247949,24.3410887 C59.1887436,25.1096774 57.42,25.6454032 55.3948718,25.6454032 C50.5072051,25.6454032 47.2255385,22.1747581 47.2255385,17.3069355 C47.2255385,12.2528226 50.8098462,8.92189516 55.3252051,8.92189516 C57.9553333,8.92189516 59.6541282,9.66705645 61.1205128,10.5987903 C61.3300769,10.7150806 61.5861795,11.0182258 61.5861795,11.437379 C61.5861795,11.92625 61.2135897,12.3922581 60.6085897,12.3922581 C60.4224359,12.3922581 60.2594103,12.3459677 60.1197949,12.2759677 C58.7464872,11.4605242 57.3500513,10.9716532 55.5578974,10.9716532 C52.0435385,10.9716532 49.3434615,13.2305645 49.3434615,17.3069355 C49.3434615,20.893871 51.6709487,23.6422177 55.6743846,23.6422177 C57.3035128,23.6422177 58.6768205,23.1996371 59.7474872,22.6173387 L59.7474872,18.4018145 L55.9070769,18.4018145 C55.3717436,18.4018145 54.9528974,17.9820968 54.9528974,17.4466532 C54.9528974,16.9112097 55.3717436,16.4914919 55.9070769,16.4914919 L60.4921026,16.4914919 C61.1205128,16.4914919 61.6093077,16.9809274 61.6093077,17.6095161" id="Fill-1" fill="#FFFFFF"></path>
                    <path d="M66.0764359,18.4949597 L72.9424103,18.4949597 C72.8030769,16.072621 70.9875128,15.0940323 69.4977179,15.0940323 C68.0082051,15.0940323 66.2163333,16.072621 66.0764359,18.4949597 Z M74.6417692,23.7585081 C74.6417692,24.131371 74.3622564,24.4342339 74.0364872,24.6205242 C73.012359,25.2028226 71.9882308,25.6454032 69.9633846,25.6454032 C66.1697949,25.6454032 63.9353846,23.3859274 63.9353846,19.4729839 C63.9353846,16.328629 65.6344615,13.3008468 69.4977179,13.3008468 C73.0823077,13.3008468 75.0374872,16.072621 75.0374872,19.170121 C75.0374872,19.7524194 74.618359,20.2181452 73.9665385,20.2181452 L66.0764359,20.2181452 C66.3094103,22.3147581 67.6358974,23.6653629 70.1495385,23.6653629 C71.5459744,23.6653629 72.4307692,23.3859274 73.2918718,22.943629 C73.4314872,22.8739113 73.5479744,22.8504839 73.7107179,22.8504839 C74.1995128,22.8504839 74.6417692,23.2230645 74.6417692,23.7585081 L74.6417692,23.7585081 Z" id="Fill-2" fill="#FFFFFF"></path>
                    <path d="M84.5324615,24.4108065 C84.5324615,24.8068145 84.3231795,25.0628226 83.9971282,25.22625 C83.4383846,25.4825403 82.8102564,25.6454032 82.065359,25.6454032 C80.9715641,25.6454032 78.6672051,25.4591129 78.6672051,22.5707661 L78.6672051,15.3503226 L77.0146667,15.3503226 C76.7588462,15.3503226 76.5724103,15.1640323 76.5724103,14.9077419 C76.5724103,14.7683065 76.6420769,14.6283065 76.7822564,14.5120161 L79.9474359,11.4142339 C80.0171026,11.3442339 80.1567179,11.2045161 80.3431538,11.2045161 C80.5992564,11.2045161 80.7854103,11.4142339 80.7854103,11.6702419 L80.7854103,13.5337097 L83.4152564,13.5337097 C83.9274615,13.5337097 84.3231795,13.9297177 84.3231795,14.4417339 C84.3231795,14.9545968 83.9274615,15.3503226 83.4152564,15.3503226 L80.7854103,15.3503226 L80.7854103,22.3844758 C80.7854103,23.7585081 81.7164615,23.7819355 82.2980513,23.7819355 C83.0429487,23.7819355 83.2990513,23.5722177 83.6944872,23.5722177 C84.1136154,23.5722177 84.5324615,23.9216532 84.5324615,24.4108065" id="Fill-3" fill="#FFFFFF"></path>
                    <path d="M98.1242308,19.513629 L94.9821795,11.9440323 L91.8398462,19.513629 L98.1242308,19.513629 Z M102.499692,24.6845968 C102.499692,25.2668952 102.103974,25.732621 101.452154,25.732621 C101.010179,25.732621 100.637872,25.4994758 100.451436,25.0806048 L98.9385128,21.4470968 L91.0252821,21.4470968 L89.512359,25.0806048 C89.3262051,25.4994758 88.9538974,25.732621 88.511359,25.732621 C87.8598205,25.732621 87.4643846,25.2668952 87.4643846,24.6845968 C87.4643846,24.5445968 87.5109231,24.3814516 87.5805897,24.2185887 L93.5157949,10.1968548 C93.7250769,9.70798387 94.1673333,9.24225806 94.8656923,9.24225806 L95.0983846,9.24225806 C95.7967436,9.24225806 96.2387179,9.70798387 96.4482821,10.1968548 L102.383205,24.2185887 C102.453154,24.3814516 102.499692,24.5445968 102.499692,24.6845968 L102.499692,24.6845968 Z" id="Fill-4" fill="#FFFFFF"></path>
                    <path d="M114.810949,23.7122177 C114.810949,24.0616532 114.624513,24.3410887 114.345282,24.527379 C113.554128,25.0396774 112.390385,25.6454032 110.551692,25.6454032 C107.246333,25.6454032 104.337256,23.3627823 104.337256,19.4729839 C104.337256,15.5831855 107.246333,13.3008468 110.551692,13.3008468 C112.390385,13.3008468 113.554128,13.9062903 114.345282,14.4185887 C114.624513,14.6051613 114.810949,14.8845968 114.810949,15.2340323 C114.810949,15.6763306 114.414949,16.1657661 113.926436,16.1657661 C113.740282,16.1657661 113.624077,16.1423387 113.414231,16.0257661 C112.599949,15.6066129 111.948128,15.2803226 110.737846,15.2803226 C108.038051,15.2803226 106.455462,16.9809274 106.455462,19.4729839 C106.455462,21.9653226 108.038051,23.6653629 110.737846,23.6653629 C111.948128,23.6653629 112.599949,23.3396371 113.414231,22.9202016 C113.624077,22.803629 113.740282,22.7804839 113.926436,22.7804839 C114.414949,22.7804839 114.810949,23.2696371 114.810949,23.7122177" id="Fill-5" fill="#FFFFFF"></path>
                    <path d="M127.192154,23.7122177 C127.192154,24.0616532 127.006,24.3410887 126.726769,24.527379 C125.935333,25.0396774 124.77159,25.6454032 122.932897,25.6454032 C119.628103,25.6454032 116.718462,23.3627823 116.718462,19.4729839 C116.718462,15.5831855 119.628103,13.3008468 122.932897,13.3008468 C124.77159,13.3008468 125.935333,13.9062903 126.726769,14.4185887 C127.006,14.6051613 127.192154,14.8845968 127.192154,15.2340323 C127.192154,15.6763306 126.796718,16.1657661 126.307641,16.1657661 C126.121487,16.1657661 126.005,16.1423387 125.795718,16.0257661 C124.980872,15.6066129 124.329333,15.2803226 123.119051,15.2803226 C120.418974,15.2803226 118.836385,16.9809274 118.836385,19.4729839 C118.836385,21.9653226 120.418974,23.6653629 123.119051,23.6653629 C124.329333,23.6653629 124.980872,23.3396371 125.795718,22.9202016 C126.005,22.803629 126.121487,22.7804839 126.307641,22.7804839 C126.796718,22.7804839 127.192154,23.2696371 127.192154,23.7122177" id="Fill-6" fill="#FFFFFF"></path>
                    <path d="M131.776615,18.4949597 L138.64259,18.4949597 C138.502974,16.072621 136.68741,15.0940323 135.197897,15.0940323 C133.708385,15.0940323 131.915949,16.072621 131.776615,18.4949597 Z M140.341667,23.7585081 C140.341667,24.131371 140.062436,24.4342339 139.736385,24.6205242 C138.712256,25.2028226 137.688128,25.6454032 135.663282,25.6454032 C131.869692,25.6454032 129.635282,23.3859274 129.635282,19.4729839 C129.635282,16.328629 131.334359,13.3008468 135.197897,13.3008468 C138.782205,13.3008468 140.737385,16.072621 140.737385,19.170121 C140.737385,19.7524194 140.318256,20.2181452 139.666718,20.2181452 L131.776615,20.2181452 C132.009026,22.3147581 133.335795,23.6653629 135.849436,23.6653629 C137.246154,23.6653629 138.130385,23.3859274 138.991487,22.943629 C139.131385,22.8739113 139.24759,22.8504839 139.410615,22.8504839 C139.89941,22.8504839 140.341667,23.2230645 140.341667,23.7585081 L140.341667,23.7585081 Z" id="Fill-7" fill="#FFFFFF"></path>
                    <path d="M145.717,17.0275 L145.717,21.91875 C146.624641,22.9202016 147.881744,23.6653629 149.394385,23.6653629 C151.605667,23.6653629 153.211385,22.2216129 153.211385,19.4729839 C153.211385,16.7246371 151.605667,15.2803226 149.394385,15.2803226 C147.881744,15.2803226 146.624641,16.0257661 145.717,17.0275 Z M145.717,23.8750806 L145.717,29.8143548 C145.717,30.4203629 145.251333,30.8860887 144.646333,30.8860887 C144.064462,30.8860887 143.599077,30.4203629 143.599077,29.8143548 L143.599077,14.4651613 C143.599077,13.8828629 144.064462,13.4171371 144.646333,13.4171371 C145.251333,13.4171371 145.717,13.8828629 145.717,14.4651613 L145.717,15.0708871 C146.787667,13.9528629 148.067897,13.3008468 149.696744,13.3008468 C152.513308,13.3008468 155.32959,15.5134677 155.32959,19.4729839 C155.32959,23.4327823 152.513308,25.6454032 149.696744,25.6454032 C148.067897,25.6454032 146.787667,24.9931048 145.717,23.8750806 L145.717,23.8750806 Z" id="Fill-8" fill="#FFFFFF"></path>
                    <g id="Group-12">
                        <mask id="mask-2" fill="white">
                            <use xlink:href="#path-1"></use>
                        </mask>
                        <g id="Clip-10"></g>
                        <path d="M164.824564,24.4108065 C164.824564,24.8068145 164.615282,25.0628226 164.288949,25.22625 C163.730487,25.4825403 163.102077,25.6454032 162.357462,25.6454032 C161.263667,25.6454032 158.959308,25.4591129 158.959308,22.5707661 L158.959308,15.3503226 L157.306769,15.3503226 C157.050667,15.3503226 156.864513,15.1640323 156.864513,14.9077419 C156.864513,14.7683065 156.934179,14.6283065 157.074077,14.5120161 L160.239538,11.4142339 C160.309205,11.3442339 160.448821,11.2045161 160.634974,11.2045161 C160.891359,11.2045161 161.077513,11.4142339 161.077513,11.6702419 L161.077513,13.5337097 L163.707359,13.5337097 C164.219282,13.5337097 164.615282,13.9297177 164.615282,14.4417339 C164.615282,14.9545968 164.219282,15.3503226 163.707359,15.3503226 L161.077513,15.3503226 L161.077513,22.3844758 C161.077513,23.7585081 162.008564,23.7819355 162.590154,23.7819355 C163.335051,23.7819355 163.591154,23.5722177 163.98659,23.5722177 C164.405718,23.5722177 164.824564,23.9216532 164.824564,24.4108065" id="Fill-9" fill="#FFFFFF" mask="url(#mask-2)"></path>
                        <path d="M17.7613333,28.8210887 L5.68305128,16.7994355 L8.70551282,13.8032661 L17.7613333,22.8146371 L32.4124872,8.23685484 C29.3048462,3.3283871 23.8138718,0.0649193548 17.5537436,0.0649193548 C7.85935897,0.0649193548 0,7.88516129 0,17.5321774 C0,27.1791935 7.85935897,35 17.5537436,35 C27.2481282,35 35.1069231,27.1791935 35.1069231,17.5321774 C35.1069231,15.7251613 34.831359,13.9833468 34.3194359,12.3439919 L17.7613333,28.8210887" id="Fill-11" fill="#FFFFFF" mask="url(#mask-2)"></path>
                    </g>
                    <path d="M43.637,3.07181452 L40.6261026,0.0646370968 L32.4124872,8.23685484 C33.2157692,9.5058871 33.863359,10.8824597 34.3194359,12.3442742 L43.637,3.07181452" id="Fill-13" fill="#FFFFFF"></path>
                    <path d="M8.70551282,13.8032661 L5.68305128,16.7994355 L17.7610513,28.8210887 L34.3194359,12.3439919 C33.863641,10.8824597 33.2157692,9.5058871 32.4124872,8.23685484 L17.7610513,22.8146371 L8.70551282,13.8032661" id="Fill-14" fill="#070017"></path>
                </g>
                <g id="Logo-livestorm" transform="translate(131.000000, 0.000000)" fill="#FFFFFF">
                    <path d="M32.8340782,1 L32.8340782,18.16 C32.8340782,20.48 34.1522346,21.84 36.4290503,21.84 C37.227933,21.84 37.827095,21.72 38.3463687,21.48 L38.3463687,18.8 C38.146648,18.88 37.9069832,18.92 37.547486,18.92 C36.6687151,18.92 36.1494413,18.48 36.1494413,17.28 L36.1494413,1 L32.8340782,1 Z M40.5432961,21.6 L43.8986034,21.6 L43.8986034,6.44 L40.5432961,6.44 L40.5432961,21.6 Z M49.2111732,6.44 L45.576257,6.44 L50.7290503,21.6 L54.523743,21.6 L59.4368715,6.44 L56.0416201,6.44 L53.7248603,14.36 C53.2455307,16.16 52.9659218,17.24 52.7662011,18.4 L52.6463687,18.4 C52.4067039,17.2 52.127095,16.16 51.6078212,14.36 C51.6078212,14.36 49.2111732,6.44 49.2111732,6.44 Z M70.7810056,17.88 C70.1818436,18.44 68.9835196,19.16 67.3857542,19.16 C64.6296089,19.16 63.3913408,17.8 63.2715084,14.92 L72.5385475,14.92 C72.6583799,13.84 72.698324,13 72.698324,12.24 C72.698324,8.56 70.5812849,6.16 66.8265363,6.16 C62.8321229,6.16 59.9960894,8.84 59.9960894,13.96 C59.9960894,19.32 62.3927374,21.84 66.9863128,21.84 C69.5826816,21.84 71.1005587,21.12 72.2189944,20.28 L70.7810056,17.88 Z M66.7067039,8.8 C68.6240223,8.8 69.5027933,9.88 69.5427374,11.88 L69.5427374,12.6 L63.3513966,12.6 C63.4712291,10.08 64.8293296,8.8 66.7067039,8.8 L66.7067039,8.8 Z M81.9653631,17.48 C81.9653631,18.4 81.2863128,19.16 79.7284916,19.16 C77.9310056,19.16 76.4530726,18.2 75.6941341,17.36 L73.6969274,19.72 C74.5756983,20.6 76.5329609,21.88 79.5687151,21.88 C83.6829609,21.88 85.3206704,19.32 85.3206704,17.28 C85.3206704,12.2 77.9709497,13.2 77.9709497,10.52 C77.9709497,9.64 78.6899441,8.96 80.0480447,8.96 C81.3662011,8.96 82.4446927,9.64 83.0438547,10.32 L85.200838,8.16 C84.2421788,7.08 82.524581,6.24 80.127933,6.24 C76.6927374,6.24 74.6555866,8.4 74.6555866,10.76 C74.6555866,15.76 81.9653631,14.8 81.9653631,17.48 Z M92.3108939,21.72 C94.5477654,21.72 95.6662011,21.24 96.225419,20.88 L95.346648,18.32 C94.8273743,18.72 94.0684358,18.96 93.1896648,18.96 C92.0712291,18.96 91.3522346,18.36 91.3522346,17.04 L91.3522346,9.04 L95.3067039,9.04 L95.3067039,6.44 L91.3522346,6.44 L91.3522346,2.56 L89.1952514,2.56 L88.0768156,6.24 L85.9997207,6.92 L85.9997207,9 L88.0768156,9 L88.0768156,17.04 C88.0768156,20.44 89.7544693,21.72 92.3108939,21.72 Z M100.219832,13.92 C100.219832,10.48 101.098603,8.88 103.335475,8.88 C105.732123,8.88 106.690782,10.64 106.690782,14.12 C106.690782,17.52 105.891899,19.16 103.495251,19.16 C101.138547,19.16 100.219832,17.4 100.219832,13.92 L100.219832,13.92 Z M103.375419,21.88 C108.208659,21.88 110.125978,18.64 110.125978,13.96 C110.125978,9.28 108.528212,6.2 103.535196,6.2 C98.6620112,6.2 96.7846369,9.44 96.7846369,14.12 C96.7846369,18.76 98.4223464,21.88 103.375419,21.88 L103.375419,21.88 Z M121.150559,6.28 C120.831006,6.2 120.311732,6.16 119.792458,6.16 C117.87514,6.16 116.517039,7.12 115.917877,8.48 L115.798045,8.48 L115.07905,6.48 L112.482682,6.48 L112.482682,21.6 L115.798045,21.6 L115.798045,10.96 C116.596927,10 118.034916,9.48 119.393017,9.48 C119.952235,9.48 120.551397,9.52 121.110615,9.64 C121.150559,9.64 121.150559,6.28 121.150559,6.28 Z M133.812849,8.28 L133.693017,8.28 C133.133799,7.08 132.135196,6.12 129.818436,6.12 C127.981006,6.12 126.582961,6.92 125.863966,7.96 L125.744134,7.96 L125.144972,6.48 L122.468715,6.48 L122.468715,21.6 L125.824022,21.6 L125.824022,11.12 C126.18352,10 127.222067,9 128.580168,9 C130.177933,9 131.01676,10.04 131.01676,12.04 L131.01676,21.6 L134.372067,21.6 L134.372067,11 C134.771508,9.88 135.889944,9 137.208101,9 C138.566201,9 139.52486,9.8 139.52486,11.76 L139.52486,21.6 L142.880168,21.6 L142.880168,11.16 C142.880168,7.76 141.202514,6.12 138.246648,6.12 C136.049721,6.12 134.531844,7.16 133.812849,8.28 L133.812849,8.28 Z" id="Shape"></path>
                    <path d="M40.1039106,2.36 C40.1039106,3.48 40.9826816,4.36 42.1011173,4.36 C43.3393855,4.36 44.1782123,3.48 44.1782123,2.36 C44.1782123,1.12 43.2994413,0.24 42.1011173,0.24 C41.0226257,0.24 40.1039106,1.12 40.1039106,2.36 Z" id="Path" fill-rule="nonzero"></path>
                    <path d="M3.99441341,12.4 C3.99441341,11.52 4.71340782,10.8 5.59217877,10.8 L21.5698324,10.8 C22.4486034,10.8 23.1675978,11.52 23.1675978,12.4 C23.1675978,13.28 22.4486034,14 21.5698324,14 L5.59217877,14 C4.71340782,14 3.99441341,13.28 3.99441341,12.4 Z M7.98882682,18.8 C7.98882682,17.92 8.70782123,17.2 9.58659218,17.2 L17.575419,17.2 C18.4541899,17.2 19.1731844,17.92 19.1731844,18.8 C19.1731844,19.68 18.4541899,20.4 17.575419,20.4 L9.58659218,20.4 C8.70782123,20.4 7.98882682,19.68 7.98882682,18.8 Z M0,6 C0,5.12 0.718994413,4.4 1.59776536,4.4 L25.5642458,4.4 C26.4430168,4.4 27.1620112,5.12 27.1620112,6 C27.1620112,6.88 26.4430168,7.6 25.5642458,7.6 L1.59776536,7.6 C0.718994413,7.6 0,6.88 0,6 Z" id="Shape" fill-rule="nonzero" opacity="0.4"></path>
                    <path d="M3.99441341,12.4 C3.99441341,11.52 4.71340782,10.8 5.59217877,10.8 L17.575419,10.8 C18.4541899,10.8 19.1731844,11.52 19.1731844,12.4 C19.1731844,13.28 18.4541899,14 17.575419,14 L5.59217877,14 C4.71340782,14 3.99441341,13.28 3.99441341,12.4 Z M7.98882682,18.8 C7.98882682,17.92 8.70782123,17.2 9.58659218,17.2 L13.5810056,17.2 C14.4597765,17.2 15.1787709,17.92 15.1787709,18.8 C15.1787709,19.68 14.4597765,20.4 13.5810056,20.4 L9.58659218,20.4 C8.70782123,20.4 7.98882682,19.68 7.98882682,18.8 Z M0,6 C0,5.12 0.718994413,4.4 1.59776536,4.4 L21.5698324,4.4 C22.4486034,4.4 23.1675978,5.12 23.1675978,6 C23.1675978,6.88 22.4486034,7.6 21.5698324,7.6 L1.59776536,7.6 C0.718994413,7.6 0,6.88 0,6 Z" id="Shape" fill-rule="nonzero"></path>
                </g>
                <g id="Doodle" fill="#FFFFFF" fill-rule="nonzero">
                    <path d="M31.902208,14.2022623 C31.902208,11.9699836 30.9268412,9.99539344 28.5479507,9.99539344 C26.1690602,9.99539344 25.1938741,11.9699836 25.1938741,14.2022623 C25.1938741,16.4056885 26.1690602,18.3800984 28.5479507,18.3800984 C30.9268412,18.3800984 31.902208,16.4056885 31.902208,14.2022623 M19.861604,14.2022623 C19.861604,9.25154098 23.617281,6.39027869 28.5479507,6.39027869 C33.4786204,6.39027869 37.2342974,9.25154098 37.2342974,14.2022623 C37.2342974,19.1239508 33.4786204,21.9852131 28.5479507,21.9852131 C23.617281,21.9852131 19.861604,19.1239508 19.861604,14.2022623" id="Shape"></path>
                    <path d="M50.0130657,14.2022623 C50.0130657,11.9699836 49.0384215,9.99539344 46.659531,9.99539344 C44.2799179,9.99539344 43.3054544,11.9699836 43.3054544,14.2022623 C43.3054544,16.4056885 44.2799179,18.3800984 46.659531,18.3800984 C49.0384215,18.3800984 50.0130657,16.4056885 50.0130657,14.2022623 M37.9731843,14.2022623 C37.9731843,9.25154098 41.7288613,6.39027869 46.659531,6.39027869 C51.5902007,6.39027869 55.3451551,9.25154098 55.3451551,14.2022623 C55.3451551,19.1239508 51.5902007,21.9852131 46.659531,21.9852131 C41.7288613,21.9852131 37.9731843,19.1239508 37.9731843,14.2022623" id="Shape"></path>
                    <path d="M5.33208942,5.61757377 L7.39555292,5.61757377 C11.2944909,5.61757377 13.6170164,7.67727869 13.6170164,11.6549508 C13.6170164,15.632623 11.2944909,17.6923279 7.39555292,17.6923279 L5.33208942,17.6923279 L5.33208942,5.61757377 Z M19.1207299,11.5691148 C19.1207299,3.84314754 14.2471478,1.6687541 7.27993248,1.6687541 L0,1.6687541 L0,21.6418689 L7.27993248,21.6418689 C14.2471478,21.6418689 19.1207299,19.4672951 19.1207299,11.7407869 C19.1207299,11.7112131 19.1192847,11.6838033 19.1192847,11.6547705 C19.1192847,11.6257377 19.1207299,11.5985082 19.1207299,11.5689344" id="Shape"></path>
                    <rect id="Rectangle" x="75.332135" y="0.180327869" width="5.16010401" height="21.462623"></rect>
                    <path d="M64.7727372,18.3808197 C62.3938467,18.3808197 61.4186606,16.4064098 61.4186606,14.2029836 C61.4186606,11.9707049 62.3938467,9.99611475 64.7727372,9.99611475 C67.1516277,9.99611475 68.1262719,11.9707049 68.1262719,14.2029836 C68.1260912,16.4064098 67.1516277,18.3808197 64.7727372,18.3808197 M68.2991606,0.180327869 L68.2991606,6.94604918 C67.2300328,6.58052459 66.0409489,6.39027869 64.7727372,6.39027869 C59.8420675,6.39027869 56.0863905,9.25154098 56.0863905,14.2022623 C56.0863905,19.1239508 59.8420675,21.9852131 64.7727372,21.9852131 C66.0409489,21.9852131 67.3859398,21.4498197 68.2991606,20.8758361 L68.2991606,21.6422295 L73.4592646,21.6422295 L73.4592646,0.179606557 L68.2991606,0.179606557 L68.2991606,0.180327869 Z" id="Shape"></path>
                    <path d="M87.652938,12.7688361 C88.0079288,11.1902459 89.0049745,9.99557377 90.8539982,9.99557377 C92.7021186,9.99557377 93.7007901,11.1902459 94.0550584,12.7688361 L87.652938,12.7688361 L87.652938,12.7688361 Z M93.1078741,6.73416393 C92.3471277,6.51290164 91.4890073,6.39027869 90.5208668,6.39027869 C90.4841934,6.39027869 90.4475201,6.39244262 90.4101241,6.39244262 C90.3705602,6.39244262 90.331719,6.39027869 90.2916131,6.39027869 C85.3616661,6.39027869 81.6059891,9.25154098 81.6059891,14.2022623 C81.6059891,19.1239508 85.3616661,21.9852131 90.2916131,21.9852131 C90.4467974,21.9852131 90.5999945,21.9830492 90.7517464,21.977459 C90.9034982,21.9830492 91.0566953,21.9852131 91.2097117,21.9852131 C93.1306369,21.9852131 95.0231989,21.6999344 96.6859653,21.041377 L96.6859653,17.4063279 C95.1377354,18.2361967 93.5322372,18.5510492 92.1272682,18.5510492 C91.4667865,18.5510492 90.8733285,18.4940656 90.349604,18.3763115 C88.8698431,18.0430656 87.9522865,17.2097705 87.7407372,15.6890656 L98.8540292,15.6890656 C98.8899799,15.4777213 98.9196077,15.2636721 98.9407445,15.0438525 C98.9654945,14.7704754 98.9788631,14.4895246 98.9788631,14.2013607 C98.9785018,10.2482131 96.5833522,7.62895082 93.1078741,6.73308197" id="Shape"></path>
                </g>
            </g>
        </g>
    </g>
</svg>