<?xml version="1.0" encoding="UTF-8"?>
<svg width="129px" height="145px" viewBox="0 0 129 145" version="1.1" xmlns="http://www.w3.org/2000/svg" xmlns:xlink="http://www.w3.org/1999/xlink">
    <!-- Generator: Sketch 59.1 (86144) - https://sketch.com -->
    <title>MOMENTUM LEADER</title>
    <desc>Created with Sketch.</desc>
    <g id="Page-1" stroke="none" stroke-width="1" fill="none" fill-rule="evenodd">
        <g id="Desktop-HD" transform="translate(-145.000000, -2535.000000)" fill-rule="nonzero">
            <g id="MOMENTUM-LEADER" transform="translate(145.000000, 2535.000000)">
                <polygon id="Path" fill="#FFFFFF" points="11.2021277 113.1 65.8297872 140.857143 118.382979 113.1 118.382979 4.55714286 11.2021277 4.55714286"></polygon>
                <polygon id="Path" fill="#F2F3F2" points="119.489362 4.97142857 10.0957447 115.033333 66.7978723 143.066667 119.489362 116.138095"></polygon>
                <path d="M7.60638298,40.7380952 L7.60638298,115.447619 L9.54255319,116.414286 L64.1702128,144.171429 L65.8297872,145 L67.4893617,144.171429 L120.180851,116.414286 L122.117021,115.447619 L122.117021,0.966666667 L7.60638298,0.966666667 L7.60638298,40.7380952 Z M11.2021277,113.37619 L11.2021277,4.55714286 L118.521277,4.55714286 L118.521277,113.37619 L65.8297872,141.133333 L11.2021277,113.37619 Z" id="Shape" fill="#DCDEDC"></path>
                <path d="M64.8617021,6.35238095 C65.4148936,6.35238095 65.9680851,6.35238095 66.5212766,6.49047619 L64.8617021,9.66666667 C62.3723404,9.52857143 60.1595745,11.4619048 60.0212766,13.947619 C59.8829787,16.4333333 61.8191489,18.6428571 64.3085106,18.7809524 L64.8617021,18.7809524 C65.9680851,18.7809524 67.0744681,18.3666667 67.9042553,17.6761905 L69.7021277,20.7142857 C68.3191489,21.6809524 66.6595745,22.2333333 64.8617021,22.2333333 C60.4361702,22.3714286 56.7021277,19.0571429 56.5638298,14.6380952 C56.4255319,10.2190476 59.7446809,6.49047619 64.1702128,6.35238095 L64.8617021,6.35238095 Z M70.5319149,13.1190476 L72.606383,16.5714286 L70.5319149,19.8857143 L68.5957447,16.5714286 L64.5851064,16.5714286 L66.6595745,13.1190476 L70.5319149,13.1190476 Z M67.212766,11.8761905 C67.212766,11.3238095 67.3510638,10.7714286 67.6276596,10.3571429 C67.9042553,9.94285714 68.4574468,9.52857143 68.8723404,9.25238095 L69.1489362,9.11428571 C69.7021277,8.83809524 69.8404255,8.7 69.8404255,8.42380952 C69.8404255,8.14761905 69.4255319,7.87142857 69.1489362,7.87142857 C68.5957447,7.87142857 68.1808511,8.14761905 67.9042553,8.7 L67.212766,8.00952381 C67.3510638,7.73333333 67.6276596,7.45714286 67.9042553,7.18095238 C68.3191489,6.9047619 68.7340426,6.9047619 69.1489362,6.9047619 C69.5638298,6.9047619 70.1170213,7.04285714 70.393617,7.31904762 C70.6702128,7.5952381 70.9468085,8.00952381 70.9468085,8.42380952 C70.9468085,9.11428571 70.5319149,9.66666667 69.7021277,9.94285714 L69.287234,10.2190476 C68.8723404,10.4952381 68.5957447,10.6333333 68.4574468,11.047619 L70.9468085,11.047619 L70.9468085,12.0142857 L67.212766,11.8761905 L67.212766,11.8761905 Z M64.8617021,29.1380952 L78,21.6809524 L78,0.966666667 L51.5851064,0.966666667 L51.5851064,21.5428571 L64.8617021,29.1380952 Z" id="Shape" fill="#FF492C"></path>
                <polygon id="banner" fill="#FF492C" points="124.744681 78.0238095 4.9787234 78.0238095 0.553191489 87.6904762 4.9787234 97.3571429 124.744681 97.3571429 129.031915 87.6904762"></polygon>
                <path d="M34.9340426,71.8095238 L34.9340426,71.8095238 C34.8695035,71.8095238 34.8141844,71.7865079 34.7680851,71.7404762 L34.7680851,71.7404762 L34.7680851,71.7404762 C34.7219858,71.6944444 34.6989362,71.6392063 34.6989362,71.5747619 L34.6989362,71.5747619 L34.6989362,58.5109524 L34.6989362,58.5109524 C34.6989362,58.4465079 34.7219858,58.3912698 34.7680851,58.3452381 L34.7680851,58.3452381 L34.7680851,58.3452381 C34.8141844,58.2992063 34.8695035,58.2761905 34.9340426,58.2761905 L34.9340426,58.2761905 L37.2021277,58.2761905 L37.2021277,58.2761905 C37.2666667,58.2761905 37.3219858,58.2992063 37.3680851,58.3452381 L37.3680851,58.3452381 L37.3680851,58.3452381 C37.4141844,58.3912698 37.437234,58.4465079 37.437234,58.5109524 L37.437234,58.5109524 L37.437234,69.3790476 L37.437234,69.3790476 C37.437234,69.4434921 37.4695035,69.4757143 37.5340426,69.4757143 L37.5340426,69.4757143 L43.8680851,69.4757143 L43.8680851,69.4757143 C43.9326241,69.4757143 43.9833333,69.494127 44.0202128,69.5309524 L44.0202128,69.5309524 L44.0202128,69.5309524 C44.0663121,69.5769841 44.0893617,69.6322222 44.0893617,69.6966667 L44.0893617,69.6966667 L44.0893617,71.5747619 L44.0893617,71.5747619 C44.0893617,71.6392063 44.0663121,71.6944444 44.0202128,71.7404762 L44.0202128,71.7404762 L44.0202128,71.7404762 C43.9833333,71.7865079 43.9326241,71.8095238 43.8680851,71.8095238 L43.8680851,71.8095238 L34.9340426,71.8095238 Z M54.4202128,65.8161905 L54.4202128,65.8161905 C54.4939716,66.304127 54.5170213,66.8519048 54.4893617,67.4595238 L54.4893617,67.4595238 L54.4893617,67.4595238 C54.4801418,67.6160317 54.3971631,67.6942857 54.2404255,67.6942857 L54.2404255,67.6942857 L48.2521277,67.6942857 L48.2521277,67.6942857 C48.1783688,67.6942857 48.1553191,67.7265079 48.1829787,67.7909524 L48.1829787,67.7909524 L48.1829787,67.7909524 C48.2198582,68.0487302 48.2890071,68.3065079 48.3904255,68.5642857 L48.3904255,68.5642857 L48.3904255,68.5642857 C48.7315603,69.282381 49.4184397,69.6414286 50.4510638,69.6414286 L50.4510638,69.6414286 L50.4510638,69.6414286 C51.2716312,69.6322222 51.9216312,69.2961905 52.4010638,68.6333333 L52.4010638,68.6333333 L52.4010638,68.6333333 C52.456383,68.5596825 52.5163121,68.5228571 52.5808511,68.5228571 L52.5808511,68.5228571 L52.5808511,68.5228571 C52.6177305,68.5228571 52.6592199,68.5504762 52.7053191,68.6057143 L52.7053191,68.6057143 L54.1021277,69.9728571 L54.1021277,69.9728571 C54.1666667,70.0373016 54.1989362,70.0971429 54.1989362,70.152381 L54.1989362,70.152381 L54.1989362,70.152381 C54.1989362,70.1707937 54.1758865,70.2214286 54.1297872,70.3042857 L54.1297872,70.3042857 L54.1297872,70.3042857 C53.6964539,70.8290476 53.1478723,71.2387302 52.4840426,71.5333333 L52.4840426,71.5333333 L52.4840426,71.5333333 C51.8109929,71.8187302 51.0734043,71.9614286 50.2712766,71.9614286 L50.2712766,71.9614286 L50.2712766,71.9614286 C49.1648936,71.9614286 48.2244681,71.7128571 47.45,71.2157143 L47.45,71.2157143 L47.45,71.2157143 C46.6847518,70.7093651 46.1361702,70.0050794 45.8042553,69.1028571 L45.8042553,69.1028571 L45.8042553,69.1028571 C45.5276596,68.4584127 45.3893617,67.6160317 45.3893617,66.5757143 L45.3893617,66.5757143 L45.3893617,66.5757143 C45.3893617,65.8668254 45.4861702,65.2407937 45.6797872,64.697619 L45.6797872,64.697619 L45.6797872,64.697619 C45.9748227,63.7769841 46.4957447,63.0496825 47.2425532,62.5157143 L47.2425532,62.5157143 L47.2425532,62.5157143 C47.9801418,61.9725397 48.8606383,61.7009524 49.8840426,61.7009524 L49.8840426,61.7009524 L49.8840426,61.7009524 C51.1748227,61.7009524 52.2120567,62.0738095 52.9957447,62.8195238 L52.9957447,62.8195238 L52.9957447,62.8195238 C53.7702128,63.5652381 54.2450355,64.564127 54.4202128,65.8161905 L54.4202128,65.8161905 Z M49.8978723,64.062381 L49.8978723,64.062381 C49.0865248,64.062381 48.551773,64.4398413 48.293617,65.1947619 L48.293617,65.1947619 L48.293617,65.1947619 C48.2475177,65.3604762 48.2014184,65.567619 48.1553191,65.8161905 L48.1553191,65.8161905 L48.1553191,65.8161905 C48.1553191,65.8806349 48.1875887,65.9128571 48.2521277,65.9128571 L48.2521277,65.9128571 L51.612766,65.9128571 L51.612766,65.9128571 C51.6865248,65.9128571 51.7095745,65.8806349 51.6819149,65.8161905 L51.6819149,65.8161905 L51.6819149,65.8161905 C51.6173759,65.4387302 51.5851064,65.2592063 51.5851064,65.277619 L51.5851064,65.277619 L51.5851064,65.277619 C51.4744681,64.8909524 51.2716312,64.591746 50.9765957,64.38 L50.9765957,64.38 L50.9765957,64.38 C50.6907801,64.168254 50.3312057,64.062381 49.8978723,64.062381 L49.8978723,64.062381 Z M60.1457447,61.7147619 L60.1457447,61.7147619 C60.9847518,61.7147619 61.7315603,61.8620635 62.3861702,62.1566667 L62.3861702,62.1566667 L62.3861702,62.1566667 C63.05,62.4420635 63.5663121,62.8379365 63.9351064,63.3442857 L63.9351064,63.3442857 L63.9351064,63.3442857 C64.3039007,63.8414286 64.4882979,64.4030159 64.4882979,65.0290476 L64.4882979,65.0290476 L64.4882979,71.5747619 L64.4882979,71.5747619 C64.4882979,71.6392063 64.4652482,71.6944444 64.4191489,71.7404762 L64.4191489,71.7404762 L64.4191489,71.7404762 C64.3730496,71.7865079 64.3177305,71.8095238 64.2531915,71.8095238 L64.2531915,71.8095238 L61.9851064,71.8095238 L61.9851064,71.8095238 C61.9205674,71.8095238 61.8652482,71.7865079 61.8191489,71.7404762 L61.8191489,71.7404762 L61.8191489,71.7404762 C61.7730496,71.6944444 61.75,71.6392063 61.75,71.5747619 L61.75,71.5747619 L61.75,70.9395238 L61.75,70.9395238 C61.75,70.9026984 61.7361702,70.8750794 61.7085106,70.8566667 L61.7085106,70.8566667 L61.7085106,70.8566667 C61.6900709,70.8474603 61.6670213,70.8612698 61.6393617,70.8980952 L61.6393617,70.8980952 L61.6393617,70.8980952 C61.0953901,71.6069841 60.2241135,71.9614286 59.0255319,71.9614286 L59.0255319,71.9614286 L59.0255319,71.9614286 C58.0205674,71.9614286 57.2046099,71.7174603 56.5776596,71.2295238 L56.5776596,71.2295238 L56.5776596,71.2295238 C55.9599291,70.7415873 55.6510638,70.0188889 55.6510638,69.0614286 L55.6510638,69.0614286 L55.6510638,69.0614286 C55.6510638,68.0671429 56.0014184,67.2984127 56.7021277,66.7552381 L56.7021277,66.7552381 L56.7021277,66.7552381 C57.393617,66.2028571 58.3847518,65.9266667 59.6755319,65.9266667 L59.6755319,65.9266667 L61.6531915,65.9266667 L61.6531915,65.9266667 C61.7177305,65.9266667 61.75,65.8944444 61.75,65.83 L61.75,65.83 L61.75,65.4157143 L61.75,65.4157143 C61.75,64.9830159 61.620922,64.6469841 61.362766,64.407619 L61.362766,64.407619 L61.362766,64.407619 C61.1046099,64.1774603 60.7173759,64.062381 60.2010638,64.062381 L60.2010638,64.062381 L60.2010638,64.062381 C59.8046099,64.062381 59.472695,64.1314286 59.2053191,64.2695238 L59.2053191,64.2695238 L59.2053191,64.2695238 C58.9379433,64.407619 58.7673759,64.6055556 58.693617,64.8633333 L58.693617,64.8633333 L58.693617,64.8633333 C58.6567376,65.0106349 58.5737589,65.0750794 58.4446809,65.0566667 L58.4446809,65.0566667 L56.093617,64.7528571 L56.093617,64.7528571 C55.9460993,64.7252381 55.8769504,64.6653968 55.8861702,64.5733333 L55.8861702,64.5733333 L55.8861702,64.5733333 C55.9414894,64.0393651 56.158156,63.5514286 56.5361702,63.1095238 L56.5361702,63.1095238 L56.5361702,63.1095238 C56.9141844,62.667619 57.4166667,62.3269841 58.043617,62.087619 L58.043617,62.087619 L58.043617,62.087619 C58.6705674,61.8390476 59.3712766,61.7147619 60.1457447,61.7147619 L60.1457447,61.7147619 Z M59.7585106,69.9314286 L59.7585106,69.9314286 C60.3117021,69.9314286 60.7819149,69.784127 61.1691489,69.4895238 L61.1691489,69.4895238 L61.1691489,69.4895238 C61.556383,69.1949206 61.75,68.8128571 61.75,68.3433333 L61.75,68.3433333 L61.75,67.6528571 L61.75,67.6528571 C61.75,67.5884127 61.7177305,67.5561905 61.6531915,67.5561905 L61.6531915,67.5561905 L60.256383,67.5561905 L60.256383,67.5561905 C59.6755319,67.5561905 59.2237589,67.6666667 58.9010638,67.887619 L58.9010638,67.887619 L58.9010638,67.887619 C58.5691489,68.1085714 58.4031915,68.4169841 58.4031915,68.8128571 L58.4031915,68.8128571 L58.4031915,68.8128571 C58.4031915,69.1626984 58.5276596,69.4388889 58.7765957,69.6414286 L58.7765957,69.6414286 L58.7765957,69.6414286 C59.0163121,69.8347619 59.343617,69.9314286 59.7585106,69.9314286 L59.7585106,69.9314286 Z M72.5787234,58.5109524 L72.5787234,58.5109524 C72.5787234,58.4465079 72.601773,58.3912698 72.6478723,58.3452381 L72.6478723,58.3452381 L72.6478723,58.3452381 C72.6939716,58.2992063 72.7492908,58.2761905 72.8138298,58.2761905 L72.8138298,58.2761905 L75.0680851,58.2761905 L75.0680851,58.2761905 C75.1326241,58.2761905 75.1879433,58.2992063 75.2340426,58.3452381 L75.2340426,58.3452381 L75.2340426,58.3452381 C75.2801418,58.3912698 75.3031915,58.4465079 75.3031915,58.5109524 L75.3031915,58.5109524 L75.3031915,71.5747619 L75.3031915,71.5747619 C75.3031915,71.6392063 75.2801418,71.6944444 75.2340426,71.7404762 L75.2340426,71.7404762 L75.2340426,71.7404762 C75.1879433,71.7865079 75.1326241,71.8095238 75.0680851,71.8095238 L75.0680851,71.8095238 L72.8138298,71.8095238 L72.8138298,71.8095238 C72.7492908,71.8095238 72.6939716,71.7865079 72.6478723,71.7404762 L72.6478723,71.7404762 L72.6478723,71.7404762 C72.601773,71.6944444 72.5787234,71.6392063 72.5787234,71.5747619 L72.5787234,71.5747619 L72.5787234,70.9395238 L72.5787234,70.9395238 C72.5787234,70.9026984 72.5648936,70.8796825 72.537234,70.8704762 L72.537234,70.8704762 L72.537234,70.8704762 C72.5095745,70.8612698 72.4819149,70.8704762 72.4542553,70.8980952 L72.4542553,70.8980952 L72.4542553,70.8980952 C71.9195035,71.6069841 71.177305,71.9614286 70.2276596,71.9614286 L70.2276596,71.9614286 L70.2276596,71.9614286 C69.3241135,71.9614286 68.5496454,71.7128571 67.9042553,71.2157143 L67.9042553,71.2157143 L67.9042553,71.2157143 C67.2496454,70.7093651 66.7794326,70.0188889 66.493617,69.1442857 L66.493617,69.1442857 L66.493617,69.1442857 C66.2723404,68.4722222 66.1617021,67.6896825 66.1617021,66.7966667 L66.1617021,66.7966667 L66.1617021,66.7966667 C66.1617021,65.8852381 66.2815603,65.0888889 66.5212766,64.407619 L66.5212766,64.407619 L66.5212766,64.407619 C66.8163121,63.5790476 67.2819149,62.9253968 67.9180851,62.4466667 L67.9180851,62.4466667 L67.9180851,62.4466667 C68.5542553,61.9587302 69.3471631,61.7147619 70.2968085,61.7147619 L70.2968085,61.7147619 L70.2968085,61.7147619 C71.2187943,61.7147619 71.9379433,62.0369841 72.4542553,62.6814286 L72.4542553,62.6814286 L72.4542553,62.6814286 C72.4819149,62.718254 72.5095745,62.7320635 72.537234,62.7228571 L72.537234,62.7228571 L72.537234,62.7228571 C72.5648936,62.7136508 72.5787234,62.6860317 72.5787234,62.64 L72.5787234,62.64 L72.5787234,58.5109524 Z M72.1638298,68.7990476 L72.1638298,68.7990476 C72.4219858,68.3203175 72.5510638,67.6666667 72.5510638,66.8380952 L72.5510638,66.8380952 L72.5510638,66.8380952 C72.5510638,65.9726984 72.412766,65.2960317 72.1361702,64.8080952 L72.1361702,64.8080952 L72.1361702,64.8080952 C71.8319149,64.3109524 71.3985816,64.062381 70.8361702,64.062381 L70.8361702,64.062381 L70.8361702,64.062381 C70.2276596,64.062381 69.7666667,64.3109524 69.4531915,64.8080952 L69.4531915,64.8080952 L69.4531915,64.8080952 C69.1304965,65.3144444 68.9691489,66.0003175 68.9691489,66.8657143 L68.9691489,66.8657143 L68.9691489,66.8657143 C68.9691489,67.6390476 69.1074468,68.2834921 69.3840426,68.7990476 L69.3840426,68.7990476 L69.3840426,68.7990476 C69.7067376,69.3514286 70.1815603,69.627619 70.8085106,69.627619 L70.8085106,69.627619 L70.8085106,69.627619 C71.3893617,69.627619 71.8411348,69.3514286 72.1638298,68.7990476 L72.1638298,68.7990476 Z M86.1734043,65.8161905 L86.1734043,65.8161905 C86.2471631,66.304127 86.2702128,66.8519048 86.2425532,67.4595238 L86.2425532,67.4595238 L86.2425532,67.4595238 C86.2333333,67.6160317 86.1503546,67.6942857 85.993617,67.6942857 L85.993617,67.6942857 L80.0053191,67.6942857 L80.0053191,67.6942857 C79.9315603,67.6942857 79.9085106,67.7265079 79.9361702,67.7909524 L79.9361702,67.7909524 L79.9361702,67.7909524 C79.9730496,68.0487302 80.0421986,68.3065079 80.143617,68.5642857 L80.143617,68.5642857 L80.143617,68.5642857 C80.4847518,69.282381 81.1716312,69.6414286 82.2042553,69.6414286 L82.2042553,69.6414286 L82.2042553,69.6414286 C83.0248227,69.6322222 83.6748227,69.2961905 84.1542553,68.6333333 L84.1542553,68.6333333 L84.1542553,68.6333333 C84.2095745,68.5596825 84.2695035,68.5228571 84.3340426,68.5228571 L84.3340426,68.5228571 L84.3340426,68.5228571 C84.370922,68.5228571 84.4124113,68.5504762 84.4585106,68.6057143 L84.4585106,68.6057143 L85.8553191,69.9728571 L85.8553191,69.9728571 C85.9198582,70.0373016 85.9521277,70.0971429 85.9521277,70.152381 L85.9521277,70.152381 L85.9521277,70.152381 C85.9521277,70.1707937 85.929078,70.2214286 85.8829787,70.3042857 L85.8829787,70.3042857 L85.8829787,70.3042857 C85.4496454,70.8290476 84.9010638,71.2387302 84.237234,71.5333333 L84.237234,71.5333333 L84.237234,71.5333333 C83.5641844,71.8187302 82.8265957,71.9614286 82.0244681,71.9614286 L82.0244681,71.9614286 L82.0244681,71.9614286 C80.9180851,71.9614286 79.9776596,71.7128571 79.2031915,71.2157143 L79.2031915,71.2157143 L79.2031915,71.2157143 C78.4379433,70.7093651 77.8893617,70.0050794 77.5574468,69.1028571 L77.5574468,69.1028571 L77.5574468,69.1028571 C77.2808511,68.4584127 77.1425532,67.6160317 77.1425532,66.5757143 L77.1425532,66.5757143 L77.1425532,66.5757143 C77.1425532,65.8668254 77.2393617,65.2407937 77.4329787,64.697619 L77.4329787,64.697619 L77.4329787,64.697619 C77.7280142,63.7769841 78.2489362,63.0496825 78.9957447,62.5157143 L78.9957447,62.5157143 L78.9957447,62.5157143 C79.7333333,61.9725397 80.6138298,61.7009524 81.637234,61.7009524 L81.637234,61.7009524 L81.637234,61.7009524 C82.9280142,61.7009524 83.9652482,62.0738095 84.7489362,62.8195238 L84.7489362,62.8195238 L84.7489362,62.8195238 C85.5234043,63.5652381 85.998227,64.564127 86.1734043,65.8161905 L86.1734043,65.8161905 Z M81.6510638,64.062381 L81.6510638,64.062381 C80.8397163,64.062381 80.3049645,64.4398413 80.0468085,65.1947619 L80.0468085,65.1947619 L80.0468085,65.1947619 C80.0007092,65.3604762 79.9546099,65.567619 79.9085106,65.8161905 L79.9085106,65.8161905 L79.9085106,65.8161905 C79.9085106,65.8806349 79.9407801,65.9128571 80.0053191,65.9128571 L80.0053191,65.9128571 L83.3659574,65.9128571 L83.3659574,65.9128571 C83.4397163,65.9128571 83.462766,65.8806349 83.4351064,65.8161905 L83.4351064,65.8161905 L83.4351064,65.8161905 C83.3705674,65.4387302 83.3382979,65.2592063 83.3382979,65.277619 L83.3382979,65.277619 L83.3382979,65.277619 C83.2276596,64.8909524 83.0248227,64.591746 82.7297872,64.38 L82.7297872,64.38 L82.7297872,64.38 C82.4439716,64.168254 82.0843972,64.062381 81.6510638,64.062381 L81.6510638,64.062381 Z M92.8808511,61.742381 L92.8808511,61.742381 C93.3510638,61.742381 93.7198582,61.8298413 93.987234,62.0047619 L93.987234,62.0047619 L93.987234,62.0047619 C94.0886525,62.06 94.1301418,62.1566667 94.1117021,62.2947619 L94.1117021,62.2947619 L93.6968085,64.5042857 L93.6968085,64.5042857 C93.6875887,64.6607937 93.6,64.7068254 93.4340426,64.642381 L93.4340426,64.642381 L93.4340426,64.642381 C93.2404255,64.5779365 93.014539,64.5457143 92.756383,64.5457143 L92.756383,64.5457143 L92.756383,64.5457143 C92.6457447,64.5457143 92.5028369,64.5549206 92.3276596,64.5733333 L92.3276596,64.5733333 L92.3276596,64.5733333 C91.8574468,64.6193651 91.4609929,64.7896825 91.1382979,65.0842857 L91.1382979,65.0842857 L91.1382979,65.0842857 C90.8156028,65.3880952 90.6542553,65.7931746 90.6542553,66.2995238 L90.6542553,66.2995238 L90.6542553,71.5747619 L90.6542553,71.5747619 C90.6542553,71.6392063 90.6358156,71.6944444 90.5989362,71.7404762 L90.5989362,71.7404762 L90.5989362,71.7404762 C90.5528369,71.7865079 90.4975177,71.8095238 90.4329787,71.8095238 L90.4329787,71.8095238 L88.1648936,71.8095238 L88.1648936,71.8095238 C88.1003546,71.8095238 88.0450355,71.7865079 87.9989362,71.7404762 L87.9989362,71.7404762 L87.9989362,71.7404762 C87.9528369,71.6944444 87.9297872,71.6392063 87.9297872,71.5747619 L87.9297872,71.5747619 L87.9297872,62.1014286 L87.9297872,62.1014286 C87.9297872,62.0369841 87.9528369,61.981746 87.9989362,61.9357143 L87.9989362,61.9357143 L87.9989362,61.9357143 C88.0450355,61.8896825 88.1003546,61.8666667 88.1648936,61.8666667 L88.1648936,61.8666667 L90.4329787,61.8666667 L90.4329787,61.8666667 C90.4975177,61.8666667 90.5528369,61.8896825 90.5989362,61.9357143 L90.5989362,61.9357143 L90.5989362,61.9357143 C90.6358156,61.981746 90.6542553,62.0369841 90.6542553,62.1014286 L90.6542553,62.1014286 L90.6542553,62.8333333 L90.6542553,62.8333333 C90.6542553,62.8793651 90.6680851,62.9069841 90.6957447,62.9161905 L90.6957447,62.9161905 L90.6957447,62.9161905 C90.7234043,62.9253968 90.741844,62.9207937 90.7510638,62.902381 L90.7510638,62.902381 L90.7510638,62.902381 C91.2858156,62.1290476 91.9957447,61.742381 92.8808511,61.742381 L92.8808511,61.742381 Z" id="Shape" fill="#252530"></path>
                <path d="M26.1521277,39.0947619 L26.1521277,39.0947619 C26.2166667,38.9934921 26.3088652,38.9428571 26.4287234,38.9428571 L26.4287234,38.9428571 L28.6968085,38.9428571 L28.6968085,38.9428571 C28.7613475,38.9428571 28.8166667,38.965873 28.862766,39.0119048 L28.862766,39.0119048 L28.862766,39.0119048 C28.9088652,39.0579365 28.9319149,39.1131746 28.9319149,39.177619 L28.9319149,39.177619 L28.9319149,52.2414286 L28.9319149,52.2414286 C28.9319149,52.305873 28.9088652,52.3611111 28.862766,52.4071429 L28.862766,52.4071429 L28.862766,52.4071429 C28.8166667,52.4531746 28.7613475,52.4761905 28.6968085,52.4761905 L28.6968085,52.4761905 L26.4287234,52.4761905 L26.4287234,52.4761905 C26.3641844,52.4761905 26.3088652,52.4531746 26.262766,52.4071429 L26.262766,52.4071429 L26.262766,52.4071429 C26.2166667,52.3611111 26.193617,52.305873 26.193617,52.2414286 L26.193617,52.2414286 L26.193617,43.7209524 L26.193617,43.7209524 C26.193617,43.6657143 26.1797872,43.6380952 26.1521277,43.6380952 L26.1521277,43.6380952 L26.1521277,43.6380952 C26.1336879,43.6380952 26.1106383,43.6565079 26.0829787,43.6933333 L26.0829787,43.6933333 L24.0223404,46.9109524 L24.0223404,46.9109524 C23.9578014,47.0122222 23.8702128,47.0628571 23.7595745,47.0628571 L23.7595745,47.0628571 L22.6117021,47.0628571 L22.6117021,47.0628571 C22.5010638,47.0628571 22.4134752,47.0122222 22.3489362,46.9109524 L22.3489362,46.9109524 L20.2882979,43.6933333 L20.2882979,43.6933333 C20.2606383,43.6565079 20.2375887,43.6426984 20.2191489,43.6519048 L20.2191489,43.6519048 L20.2191489,43.6519048 C20.1914894,43.6611111 20.1776596,43.6887302 20.1776596,43.7347619 L20.1776596,43.7347619 L20.1776596,52.2414286 L20.1776596,52.2414286 C20.1776596,52.305873 20.1546099,52.3611111 20.1085106,52.4071429 L20.1085106,52.4071429 L20.1085106,52.4071429 C20.0624113,52.4531746 20.0070922,52.4761905 19.9425532,52.4761905 L19.9425532,52.4761905 L17.6744681,52.4761905 L17.6744681,52.4761905 C17.6099291,52.4761905 17.5546099,52.4531746 17.5085106,52.4071429 L17.5085106,52.4071429 L17.5085106,52.4071429 C17.4624113,52.3611111 17.4393617,52.305873 17.4393617,52.2414286 L17.4393617,52.2414286 L17.4393617,39.177619 L17.4393617,39.177619 C17.4393617,39.1131746 17.4624113,39.0579365 17.5085106,39.0119048 L17.5085106,39.0119048 L17.5085106,39.0119048 C17.5546099,38.965873 17.6099291,38.9428571 17.6744681,38.9428571 L17.6744681,38.9428571 L19.9425532,38.9428571 L19.9425532,38.9428571 C20.0624113,38.9428571 20.1546099,38.9934921 20.2191489,39.0947619 L20.2191489,39.0947619 L23.1234043,43.5966667 L23.1234043,43.5966667 C23.1602837,43.6795238 23.1971631,43.6795238 23.2340426,43.5966667 L23.2340426,43.5966667 L26.1521277,39.0947619 Z M35.5148936,52.6280952 L35.5148936,52.6280952 C34.4269504,52.6280952 33.4957447,52.3473016 32.7212766,51.7857143 L32.7212766,51.7857143 L32.7212766,51.7857143 C31.9468085,51.2149206 31.4166667,50.4415873 31.1308511,49.4657143 L31.1308511,49.4657143 L31.1308511,49.4657143 C30.9556738,48.8580952 30.8680851,48.1998413 30.8680851,47.4909524 L30.8680851,47.4909524 L30.8680851,47.4909524 C30.8680851,46.7268254 30.9556738,46.0409524 31.1308511,45.4333333 L31.1308511,45.4333333 L31.1308511,45.4333333 C31.4258865,44.4850794 31.9606383,43.7393651 32.7351064,43.1961905 L32.7351064,43.1961905 L32.7351064,43.1961905 C33.5095745,42.6530159 34.4407801,42.3814286 35.5287234,42.3814286 L35.5287234,42.3814286 L35.5287234,42.3814286 C36.5890071,42.3814286 37.4925532,42.6484127 38.2393617,43.182381 L38.2393617,43.182381 L38.2393617,43.182381 C38.9861702,43.7163492 39.5163121,44.4620635 39.8297872,45.4195238 L39.8297872,45.4195238 L39.8297872,45.4195238 C40.0326241,46.0639683 40.1340426,46.7406349 40.1340426,47.4495238 L40.1340426,47.4495238 L40.1340426,47.4495238 C40.1340426,48.1492063 40.0464539,48.798254 39.8712766,49.3966667 L39.8712766,49.3966667 L39.8712766,49.3966667 C39.585461,50.4093651 39.0599291,51.2011111 38.2946809,51.7719048 L38.2946809,51.7719048 L38.2946809,51.7719048 C37.5202128,52.3426984 36.593617,52.6280952 35.5148936,52.6280952 L35.5148936,52.6280952 Z M35.5148936,50.2942857 L35.5148936,50.2942857 C35.9390071,50.2942857 36.2985816,50.1653968 36.593617,49.907619 L36.593617,49.907619 L36.593617,49.907619 C36.8886525,49.6498413 37.1007092,49.2953968 37.2297872,48.8442857 L37.2297872,48.8442857 L37.2297872,48.8442857 C37.3312057,48.43 37.3819149,47.9788889 37.3819149,47.4909524 L37.3819149,47.4909524 L37.3819149,47.4909524 C37.3819149,46.9477778 37.3312057,46.4874603 37.2297872,46.11 L37.2297872,46.11 L37.2297872,46.11 C37.0914894,45.6773016 36.8748227,45.3366667 36.5797872,45.0880952 L36.5797872,45.0880952 L36.5797872,45.0880952 C36.2755319,44.8487302 35.9113475,44.7290476 35.487234,44.7290476 L35.487234,44.7290476 L35.487234,44.7290476 C35.0539007,44.7290476 34.6897163,44.8487302 34.3946809,45.0880952 L34.3946809,45.0880952 L34.3946809,45.0880952 C34.1088652,45.3366667 33.9014184,45.6773016 33.7723404,46.11 L33.7723404,46.11 L33.7723404,46.11 C33.6617021,46.4230159 33.606383,46.8833333 33.606383,47.4909524 L33.606383,47.4909524 L33.606383,47.4909524 C33.606383,48.0709524 33.6524823,48.5220635 33.7446809,48.8442857 L33.7446809,48.8442857 L33.7446809,48.8442857 C33.8737589,49.2953968 34.0904255,49.6498413 34.3946809,49.907619 L34.3946809,49.907619 L34.3946809,49.907619 C34.6989362,50.1653968 35.0723404,50.2942857 35.5148936,50.2942857 L35.5148936,50.2942857 Z M52.9404255,42.3814286 L52.9404255,42.3814286 C53.9453901,42.3814286 54.729078,42.6852381 55.2914894,43.2928571 L55.2914894,43.2928571 L55.2914894,43.2928571 C55.8631206,43.9004762 56.1489362,44.7520635 56.1489362,45.847619 L56.1489362,45.847619 L56.1489362,52.2414286 L56.1489362,52.2414286 C56.1489362,52.305873 56.1258865,52.3611111 56.0797872,52.4071429 L56.0797872,52.4071429 L56.0797872,52.4071429 C56.0336879,52.4531746 55.9783688,52.4761905 55.9138298,52.4761905 L55.9138298,52.4761905 L53.6457447,52.4761905 L53.6457447,52.4761905 C53.5812057,52.4761905 53.5258865,52.4531746 53.4797872,52.4071429 L53.4797872,52.4071429 L53.4797872,52.4071429 C53.4429078,52.3611111 53.4244681,52.305873 53.4244681,52.2414286 L53.4244681,52.2414286 L53.4244681,46.4414286 L53.4244681,46.4414286 C53.4244681,45.9166667 53.2861702,45.4977778 53.0095745,45.1847619 L53.0095745,45.1847619 L53.0095745,45.1847619 C52.7421986,44.8809524 52.3826241,44.7290476 51.9308511,44.7290476 L51.9308511,44.7290476 L51.9308511,44.7290476 C51.479078,44.7290476 51.1102837,44.8809524 50.8244681,45.1847619 L50.8244681,45.1847619 L50.8244681,45.1847619 C50.5386525,45.4977778 50.3957447,45.9120635 50.3957447,46.427619 L50.3957447,46.427619 L50.3957447,52.2414286 L50.3957447,52.2414286 C50.3957447,52.305873 50.372695,52.3611111 50.3265957,52.4071429 L50.3265957,52.4071429 L50.3265957,52.4071429 C50.2804965,52.4531746 50.2251773,52.4761905 50.1606383,52.4761905 L50.1606383,52.4761905 L47.9202128,52.4761905 L47.9202128,52.4761905 C47.8556738,52.4761905 47.8003546,52.4531746 47.7542553,52.4071429 L47.7542553,52.4071429 L47.7542553,52.4071429 C47.708156,52.3611111 47.6851064,52.305873 47.6851064,52.2414286 L47.6851064,52.2414286 L47.6851064,46.4414286 L47.6851064,46.4414286 C47.6851064,45.925873 47.5421986,45.5115873 47.256383,45.1985714 L47.256383,45.1985714 L47.256383,45.1985714 C46.9797872,44.8855556 46.6156028,44.7290476 46.1638298,44.7290476 L46.1638298,44.7290476 L46.1638298,44.7290476 C45.7489362,44.7290476 45.4031915,44.8487302 45.1265957,45.0880952 L45.1265957,45.0880952 L45.1265957,45.0880952 C44.85,45.3366667 44.6840426,45.6773016 44.6287234,46.11 L44.6287234,46.11 L44.6287234,52.2414286 L44.6287234,52.2414286 C44.6287234,52.305873 44.6056738,52.3611111 44.5595745,52.4071429 L44.5595745,52.4071429 L44.5595745,52.4071429 C44.5134752,52.4531746 44.458156,52.4761905 44.393617,52.4761905 L44.393617,52.4761905 L42.1255319,52.4761905 L42.1255319,52.4761905 C42.0609929,52.4761905 42.0102837,52.4531746 41.9734043,52.4071429 L41.9734043,52.4071429 L41.9734043,52.4071429 C41.927305,52.3611111 41.9042553,52.305873 41.9042553,52.2414286 L41.9042553,52.2414286 L41.9042553,42.7680952 L41.9042553,42.7680952 C41.9042553,42.7036508 41.927305,42.6484127 41.9734043,42.602381 L41.9734043,42.602381 L41.9734043,42.602381 C42.0102837,42.5563492 42.0609929,42.5333333 42.1255319,42.5333333 L42.1255319,42.5333333 L44.393617,42.5333333 L44.393617,42.5333333 C44.458156,42.5333333 44.5134752,42.5563492 44.5595745,42.602381 L44.5595745,42.602381 L44.5595745,42.602381 C44.6056738,42.6484127 44.6287234,42.7036508 44.6287234,42.7680952 L44.6287234,42.7680952 L44.6287234,43.527619 L44.6287234,43.527619 C44.6287234,43.5644444 44.6425532,43.5874603 44.6702128,43.5966667 L44.6702128,43.5966667 L44.6702128,43.5966667 C44.6978723,43.6150794 44.720922,43.605873 44.7393617,43.5690476 L44.7393617,43.5690476 L44.7393617,43.5690476 C45.2741135,42.7773016 46.0946809,42.3814286 47.2010638,42.3814286 L47.2010638,42.3814286 L47.2010638,42.3814286 C47.8464539,42.3814286 48.4134752,42.5195238 48.9021277,42.7957143 L48.9021277,42.7957143 L48.9021277,42.7957143 C49.3815603,43.0626984 49.7503546,43.4493651 50.0085106,43.9557143 L50.0085106,43.9557143 L50.0085106,43.9557143 C50.0453901,44.0293651 50.0914894,44.0293651 50.1468085,43.9557143 L50.1468085,43.9557143 L50.1468085,43.9557143 C50.4326241,43.421746 50.8152482,43.025873 51.2946809,42.7680952 L51.2946809,42.7680952 L51.2946809,42.7680952 C51.7833333,42.5103175 52.3319149,42.3814286 52.9404255,42.3814286 L52.9404255,42.3814286 Z M66.8808511,46.4828571 L66.8808511,46.4828571 C66.9546099,46.9707937 66.9776596,47.5185714 66.95,48.1261905 L66.95,48.1261905 L66.95,48.1261905 C66.9407801,48.2826984 66.8578014,48.3609524 66.7010638,48.3609524 L66.7010638,48.3609524 L60.712766,48.3609524 L60.712766,48.3609524 C60.6390071,48.3609524 60.6159574,48.3931746 60.643617,48.457619 L60.643617,48.457619 L60.643617,48.457619 C60.6804965,48.7153968 60.7496454,48.9731746 60.8510638,49.2309524 L60.8510638,49.2309524 L60.8510638,49.2309524 C61.1921986,49.9490476 61.879078,50.3080952 62.9117021,50.3080952 L62.9117021,50.3080952 L62.9117021,50.3080952 C63.7322695,50.2988889 64.3822695,49.9628571 64.8617021,49.3 L64.8617021,49.3 L64.8617021,49.3 C64.9170213,49.2263492 64.9769504,49.1895238 65.0414894,49.1895238 L65.0414894,49.1895238 L65.0414894,49.1895238 C65.0783688,49.1895238 65.1198582,49.2171429 65.1659574,49.272381 L65.1659574,49.272381 L66.562766,50.6395238 L66.562766,50.6395238 C66.627305,50.7039683 66.6595745,50.7638095 66.6595745,50.8190476 L66.6595745,50.8190476 L66.6595745,50.8190476 C66.6595745,50.8374603 66.6365248,50.8880952 66.5904255,50.9709524 L66.5904255,50.9709524 L66.5904255,50.9709524 C66.1570922,51.4957143 65.6085106,51.9053968 64.9446809,52.2 L64.9446809,52.2 L64.9446809,52.2 C64.2716312,52.4853968 63.5340426,52.6280952 62.7319149,52.6280952 L62.7319149,52.6280952 L62.7319149,52.6280952 C61.6255319,52.6280952 60.6851064,52.3795238 59.9106383,51.882381 L59.9106383,51.882381 L59.9106383,51.882381 C59.1453901,51.3760317 58.5968085,50.671746 58.2648936,49.7695238 L58.2648936,49.7695238 L58.2648936,49.7695238 C57.9882979,49.1250794 57.85,48.2826984 57.85,47.242381 L57.85,47.242381 L57.85,47.242381 C57.85,46.5334921 57.9468085,45.9074603 58.1404255,45.3642857 L58.1404255,45.3642857 L58.1404255,45.3642857 C58.435461,44.4436508 58.956383,43.7163492 59.7031915,43.182381 L59.7031915,43.182381 L59.7031915,43.182381 C60.4407801,42.6392063 61.3212766,42.367619 62.3446809,42.367619 L62.3446809,42.367619 L62.3446809,42.367619 C63.635461,42.367619 64.672695,42.7404762 65.456383,43.4861905 L65.456383,43.4861905 L65.456383,43.4861905 C66.2308511,44.2319048 66.7056738,45.2307937 66.8808511,46.4828571 L66.8808511,46.4828571 Z M62.3585106,44.7290476 L62.3585106,44.7290476 C61.5471631,44.7290476 61.0124113,45.1065079 60.7542553,45.8614286 L60.7542553,45.8614286 L60.7542553,45.8614286 C60.708156,46.0271429 60.6620567,46.2342857 60.6159574,46.4828571 L60.6159574,46.4828571 L60.6159574,46.4828571 C60.6159574,46.5473016 60.648227,46.5795238 60.712766,46.5795238 L60.712766,46.5795238 L64.0734043,46.5795238 L64.0734043,46.5795238 C64.1471631,46.5795238 64.1702128,46.5473016 64.1425532,46.4828571 L64.1425532,46.4828571 L64.1425532,46.4828571 C64.0780142,46.1053968 64.0457447,45.925873 64.0457447,45.9442857 L64.0457447,45.9442857 L64.0457447,45.9442857 C63.9351064,45.557619 63.7322695,45.2584127 63.437234,45.0466667 L63.437234,45.0466667 L63.437234,45.0466667 C63.1514184,44.8349206 62.791844,44.7290476 62.3585106,44.7290476 L62.3585106,44.7290476 Z M73.8234043,42.3814286 L73.8234043,42.3814286 C74.8560284,42.3814286 75.6904255,42.6990476 76.3265957,43.3342857 L76.3265957,43.3342857 L76.3265957,43.3342857 C76.9535461,43.9603175 77.2670213,44.8165079 77.2670213,45.9028571 L77.2670213,45.9028571 L77.2670213,52.2414286 L77.2670213,52.2414286 C77.2670213,52.305873 77.2439716,52.3611111 77.1978723,52.4071429 L77.1978723,52.4071429 L77.1978723,52.4071429 C77.1609929,52.4531746 77.1102837,52.4761905 77.0457447,52.4761905 L77.0457447,52.4761905 L74.7776596,52.4761905 L74.7776596,52.4761905 C74.7131206,52.4761905 74.6578014,52.4531746 74.6117021,52.4071429 L74.6117021,52.4071429 L74.6117021,52.4071429 C74.5656028,52.3611111 74.5425532,52.305873 74.5425532,52.2414286 L74.5425532,52.2414286 L74.5425532,46.4690476 L74.5425532,46.4690476 C74.5425532,45.9534921 74.3950355,45.5346032 74.1,45.212381 L74.1,45.212381 L74.1,45.212381 C73.8141844,44.8901587 73.4315603,44.7290476 72.9521277,44.7290476 L72.9521277,44.7290476 L72.9521277,44.7290476 C72.472695,44.7290476 72.0900709,44.8901587 71.8042553,45.212381 L71.8042553,45.212381 L71.8042553,45.212381 C71.5092199,45.5346032 71.3617021,45.9534921 71.3617021,46.4690476 L71.3617021,46.4690476 L71.3617021,52.2414286 L71.3617021,52.2414286 C71.3617021,52.305873 71.3386525,52.3611111 71.2925532,52.4071429 L71.2925532,52.4071429 L71.2925532,52.4071429 C71.2556738,52.4531746 71.2049645,52.4761905 71.1404255,52.4761905 L71.1404255,52.4761905 L68.8723404,52.4761905 L68.8723404,52.4761905 C68.8078014,52.4761905 68.7524823,52.4531746 68.706383,52.4071429 L68.706383,52.4071429 L68.706383,52.4071429 C68.6602837,52.3611111 68.637234,52.305873 68.637234,52.2414286 L68.637234,52.2414286 L68.637234,42.7680952 L68.637234,42.7680952 C68.637234,42.7036508 68.6602837,42.6484127 68.706383,42.602381 L68.706383,42.602381 L68.706383,42.602381 C68.7524823,42.5563492 68.8078014,42.5333333 68.8723404,42.5333333 L68.8723404,42.5333333 L71.1404255,42.5333333 L71.1404255,42.5333333 C71.2049645,42.5333333 71.2556738,42.5563492 71.2925532,42.602381 L71.2925532,42.602381 L71.2925532,42.602381 C71.3386525,42.6484127 71.3617021,42.7036508 71.3617021,42.7680952 L71.3617021,42.7680952 L71.3617021,43.4447619 L71.3617021,43.4447619 C71.3617021,43.4815873 71.3755319,43.5092063 71.4031915,43.527619 L71.4031915,43.527619 L71.4031915,43.527619 C71.4308511,43.5368254 71.4492908,43.527619 71.4585106,43.5 L71.4585106,43.5 L71.4585106,43.5 C71.9932624,42.7542857 72.7815603,42.3814286 73.8234043,42.3814286 L73.8234043,42.3814286 Z M84.9425532,44.4942857 L84.9425532,44.4942857 C84.9425532,44.5587302 84.9195035,44.6139683 84.8734043,44.66 L84.8734043,44.66 L84.8734043,44.66 C84.827305,44.7060317 84.7719858,44.7290476 84.7074468,44.7290476 L84.7074468,44.7290476 L82.8542553,44.7290476 L82.8542553,44.7290476 C82.7897163,44.7290476 82.7574468,44.7612698 82.7574468,44.8257143 L82.7574468,44.8257143 L82.7574468,48.9133333 L82.7574468,48.9133333 C82.7574468,49.3460317 82.8450355,49.6636508 83.0202128,49.8661905 L83.0202128,49.8661905 L83.0202128,49.8661905 C83.1861702,50.0687302 83.462766,50.17 83.85,50.17 L83.85,50.17 L84.5,50.17 L84.5,50.17 C84.564539,50.17 84.6152482,50.1930159 84.6521277,50.2390476 L84.6521277,50.2390476 L84.6521277,50.2390476 C84.698227,50.2850794 84.7212766,50.3403175 84.7212766,50.4047619 L84.7212766,50.4047619 L84.7212766,52.2414286 L84.7212766,52.2414286 C84.7212766,52.3887302 84.6475177,52.4715873 84.5,52.49 L84.5,52.49 L84.5,52.49 C83.9560284,52.517619 83.5687943,52.5314286 83.3382979,52.5314286 L83.3382979,52.5314286 L83.3382979,52.5314286 C82.2595745,52.5314286 81.4574468,52.3565079 80.9319149,52.0066667 L80.9319149,52.0066667 L80.9319149,52.0066667 C80.406383,51.647619 80.1343972,50.9801587 80.1159574,50.0042857 L80.1159574,50.0042857 L80.1159574,44.8257143 L80.1159574,44.8257143 C80.1159574,44.7612698 80.0836879,44.7290476 80.0191489,44.7290476 L80.0191489,44.7290476 L78.912766,44.7290476 L78.912766,44.7290476 C78.848227,44.7290476 78.7929078,44.7060317 78.7468085,44.66 L78.7468085,44.66 L78.7468085,44.66 C78.7099291,44.6139683 78.6914894,44.5587302 78.6914894,44.4942857 L78.6914894,44.4942857 L78.6914894,42.7680952 L78.6914894,42.7680952 C78.6914894,42.7036508 78.7099291,42.6484127 78.7468085,42.602381 L78.7468085,42.602381 L78.7468085,42.602381 C78.7929078,42.5563492 78.848227,42.5333333 78.912766,42.5333333 L78.912766,42.5333333 L80.0191489,42.5333333 L80.0191489,42.5333333 C80.0836879,42.5333333 80.1159574,42.5011111 80.1159574,42.4366667 L80.1159574,42.4366667 L80.1159574,40.1442857 L80.1159574,40.1442857 C80.1159574,40.0798413 80.1390071,40.0246032 80.1851064,39.9785714 L80.1851064,39.9785714 L80.1851064,39.9785714 C80.2312057,39.9325397 80.2865248,39.9095238 80.3510638,39.9095238 L80.3510638,39.9095238 L82.5223404,39.9095238 L82.5223404,39.9095238 C82.5868794,39.9095238 82.6421986,39.9325397 82.6882979,39.9785714 L82.6882979,39.9785714 L82.6882979,39.9785714 C82.7343972,40.0246032 82.7574468,40.0798413 82.7574468,40.1442857 L82.7574468,40.1442857 L82.7574468,42.4366667 L82.7574468,42.4366667 C82.7574468,42.5011111 82.7897163,42.5333333 82.8542553,42.5333333 L82.8542553,42.5333333 L84.7074468,42.5333333 L84.7074468,42.5333333 C84.7719858,42.5333333 84.827305,42.5563492 84.8734043,42.602381 L84.8734043,42.602381 L84.8734043,42.602381 C84.9195035,42.6484127 84.9425532,42.7036508 84.9425532,42.7680952 L84.9425532,42.7680952 L84.9425532,44.4942857 Z M92.3968085,42.7680952 L92.3968085,42.7680952 C92.3968085,42.7036508 92.4198582,42.6484127 92.4659574,42.602381 L92.4659574,42.602381 L92.4659574,42.602381 C92.5120567,42.5563492 92.5673759,42.5333333 92.6319149,42.5333333 L92.6319149,42.5333333 L94.8861702,42.5333333 L94.8861702,42.5333333 C94.9507092,42.5333333 95.0060284,42.5563492 95.0521277,42.602381 L95.0521277,42.602381 L95.0521277,42.602381 C95.098227,42.6484127 95.1212766,42.7036508 95.1212766,42.7680952 L95.1212766,42.7680952 L95.1212766,52.2414286 L95.1212766,52.2414286 C95.1212766,52.305873 95.098227,52.3611111 95.0521277,52.4071429 L95.0521277,52.4071429 L95.0521277,52.4071429 C95.0060284,52.4531746 94.9507092,52.4761905 94.8861702,52.4761905 L94.8861702,52.4761905 L92.6319149,52.4761905 L92.6319149,52.4761905 C92.5673759,52.4761905 92.5120567,52.4531746 92.4659574,52.4071429 L92.4659574,52.4071429 L92.4659574,52.4071429 C92.4198582,52.3611111 92.3968085,52.305873 92.3968085,52.2414286 L92.3968085,52.2414286 L92.3968085,51.592381 L92.3968085,51.592381 C92.3968085,51.5463492 92.3829787,51.5233333 92.3553191,51.5233333 L92.3553191,51.5233333 L92.3553191,51.5233333 C92.3276596,51.514127 92.3,51.5279365 92.2723404,51.5647619 L92.2723404,51.5647619 L92.2723404,51.5647619 C91.7560284,52.2644444 90.9585106,52.6142857 89.8797872,52.6142857 L89.8797872,52.6142857 L89.8797872,52.6142857 C88.8932624,52.6142857 88.0865248,52.3150794 87.4595745,51.7166667 L87.4595745,51.7166667 L87.4595745,51.7166667 C86.8234043,51.1274603 86.5053191,50.2988889 86.5053191,49.2309524 L86.5053191,49.2309524 L86.5053191,42.7680952 L86.5053191,42.7680952 C86.5053191,42.7036508 86.5283688,42.6484127 86.5744681,42.602381 L86.5744681,42.602381 L86.5744681,42.602381 C86.6205674,42.5563492 86.6758865,42.5333333 86.7404255,42.5333333 L86.7404255,42.5333333 L88.9808511,42.5333333 L88.9808511,42.5333333 C89.0453901,42.5333333 89.1007092,42.5563492 89.1468085,42.602381 L89.1468085,42.602381 L89.1468085,42.602381 C89.1929078,42.6484127 89.2159574,42.7036508 89.2159574,42.7680952 L89.2159574,42.7680952 L89.2159574,48.5542857 L89.2159574,48.5542857 C89.2159574,49.0698413 89.3542553,49.4887302 89.6308511,49.8109524 L89.6308511,49.8109524 L89.6308511,49.8109524 C89.9074468,50.1331746 90.2946809,50.2942857 90.7925532,50.2942857 L90.7925532,50.2942857 L90.7925532,50.2942857 C91.2258865,50.2942857 91.585461,50.1607937 91.8712766,49.8938095 L91.8712766,49.8938095 L91.8712766,49.8938095 C92.1570922,49.6268254 92.3322695,49.2815873 92.3968085,48.8580952 L92.3968085,48.8580952 L92.3968085,42.7680952 Z M108.176596,42.3814286 L108.176596,42.3814286 C109.18156,42.3814286 109.969858,42.6852381 110.541489,43.2928571 L110.541489,43.2928571 L110.541489,43.2928571 C111.103901,43.9004762 111.385106,44.7520635 111.385106,45.847619 L111.385106,45.847619 L111.385106,52.2414286 L111.385106,52.2414286 C111.385106,52.305873 111.362057,52.3611111 111.315957,52.4071429 L111.315957,52.4071429 L111.315957,52.4071429 C111.269858,52.4531746 111.214539,52.4761905 111.15,52.4761905 L111.15,52.4761905 L108.895745,52.4761905 L108.895745,52.4761905 C108.831206,52.4761905 108.775887,52.4531746 108.729787,52.4071429 L108.729787,52.4071429 L108.729787,52.4071429 C108.683688,52.3611111 108.660638,52.305873 108.660638,52.2414286 L108.660638,52.2414286 L108.660638,46.4414286 L108.660638,46.4414286 C108.660638,45.9166667 108.52234,45.4977778 108.245745,45.1847619 L108.245745,45.1847619 L108.245745,45.1847619 C107.978369,44.8809524 107.618794,44.7290476 107.167021,44.7290476 L107.167021,44.7290476 L107.167021,44.7290476 C106.715248,44.7290476 106.346454,44.8809524 106.060638,45.1847619 L106.060638,45.1847619 L106.060638,45.1847619 C105.774823,45.4977778 105.631915,45.9120635 105.631915,46.427619 L105.631915,46.427619 L105.631915,52.2414286 L105.631915,52.2414286 C105.631915,52.305873 105.613475,52.3611111 105.576596,52.4071429 L105.576596,52.4071429 L105.576596,52.4071429 C105.530496,52.4531746 105.475177,52.4761905 105.410638,52.4761905 L105.410638,52.4761905 L103.156383,52.4761905 L103.156383,52.4761905 C103.091844,52.4761905 103.036525,52.4531746 102.990426,52.4071429 L102.990426,52.4071429 L102.990426,52.4071429 C102.944326,52.3611111 102.921277,52.305873 102.921277,52.2414286 L102.921277,52.2414286 L102.921277,46.4414286 L102.921277,46.4414286 C102.921277,45.925873 102.782979,45.5115873 102.506383,45.1985714 L102.506383,45.1985714 L102.506383,45.1985714 C102.220567,44.8855556 101.851773,44.7290476 101.4,44.7290476 L101.4,44.7290476 L101.4,44.7290476 C100.985106,44.7290476 100.639362,44.8487302 100.362766,45.0880952 L100.362766,45.0880952 L100.362766,45.0880952 C100.08617,45.3366667 99.9202128,45.6773016 99.8648936,46.11 L99.8648936,46.11 L99.8648936,52.2414286 L99.8648936,52.2414286 C99.8648936,52.305873 99.841844,52.3611111 99.7957447,52.4071429 L99.7957447,52.4071429 L99.7957447,52.4071429 C99.7496454,52.4531746 99.6943262,52.4761905 99.6297872,52.4761905 L99.6297872,52.4761905 L97.3755319,52.4761905 L97.3755319,52.4761905 C97.3109929,52.4761905 97.2556738,52.4531746 97.2095745,52.4071429 L97.2095745,52.4071429 L97.2095745,52.4071429 C97.1634752,52.3611111 97.1404255,52.305873 97.1404255,52.2414286 L97.1404255,52.2414286 L97.1404255,42.7680952 L97.1404255,42.7680952 C97.1404255,42.7036508 97.1634752,42.6484127 97.2095745,42.602381 L97.2095745,42.602381 L97.2095745,42.602381 C97.2556738,42.5563492 97.3109929,42.5333333 97.3755319,42.5333333 L97.3755319,42.5333333 L99.6297872,42.5333333 L99.6297872,42.5333333 C99.6943262,42.5333333 99.7496454,42.5563492 99.7957447,42.602381 L99.7957447,42.602381 L99.7957447,42.602381 C99.841844,42.6484127 99.8648936,42.7036508 99.8648936,42.7680952 L99.8648936,42.7680952 L99.8648936,43.527619 L99.8648936,43.527619 C99.8648936,43.5644444 99.8787234,43.5874603 99.906383,43.5966667 L99.906383,43.5966667 L99.906383,43.5966667 C99.9340426,43.6150794 99.9617021,43.605873 99.9893617,43.5690476 L99.9893617,43.5690476 L99.9893617,43.5690476 C100.514894,42.7773016 101.330851,42.3814286 102.437234,42.3814286 L102.437234,42.3814286 L102.437234,42.3814286 C103.082624,42.3814286 103.649645,42.5195238 104.138298,42.7957143 L104.138298,42.7957143 L104.138298,42.7957143 C104.61773,43.0626984 104.986525,43.4493651 105.244681,43.9557143 L105.244681,43.9557143 L105.244681,43.9557143 C105.29078,44.0293651 105.336879,44.0293651 105.382979,43.9557143 L105.382979,43.9557143 L105.382979,43.9557143 C105.668794,43.421746 106.056028,43.025873 106.544681,42.7680952 L106.544681,42.7680952 L106.544681,42.7680952 C107.024113,42.5103175 107.568085,42.3814286 108.176596,42.3814286 L108.176596,42.3814286 Z" id="Shape" fill="#252530"></path>
                <path d="M55.4851064,84.6247619 L55.4851064,84.6247619 C55.4851064,84.6707937 55.4666667,84.707619 55.4297872,84.7352381 L55.4297872,84.7352381 L55.4297872,84.7352381 C55.4021277,84.7720635 55.3652482,84.7904762 55.3191489,84.7904762 L55.3191489,84.7904762 L50.6170213,84.7904762 L50.6170213,84.7904762 C50.570922,84.7904762 50.5478723,84.8134921 50.5478723,84.8595238 L50.5478723,84.8595238 L50.5478723,87.4419048 L50.5478723,87.4419048 C50.5478723,87.4879365 50.570922,87.5109524 50.6170213,87.5109524 L50.6170213,87.5109524 L53.7840426,87.5109524 L53.7840426,87.5109524 C53.8301418,87.5109524 53.8716312,87.5247619 53.9085106,87.552381 L53.9085106,87.552381 L53.9085106,87.552381 C53.9361702,87.5892063 53.95,87.6306349 53.95,87.6766667 L53.95,87.6766667 L53.95,88.7261905 L53.95,88.7261905 C53.95,88.7722222 53.9361702,88.8136508 53.9085106,88.8504762 L53.9085106,88.8504762 L53.9085106,88.8504762 C53.8716312,88.8780952 53.8301418,88.8919048 53.7840426,88.8919048 L53.7840426,88.8919048 L50.6170213,88.8919048 L50.6170213,88.8919048 C50.570922,88.8919048 50.5478723,88.9149206 50.5478723,88.9609524 L50.5478723,88.9609524 L50.5478723,92.9104762 L50.5478723,92.9104762 C50.5478723,92.9565079 50.5294326,92.9933333 50.4925532,93.0209524 L50.4925532,93.0209524 L50.4925532,93.0209524 C50.4648936,93.0577778 50.4280142,93.0761905 50.3819149,93.0761905 L50.3819149,93.0761905 L49.1095745,93.0761905 L49.1095745,93.0761905 C49.0634752,93.0761905 49.0265957,93.0577778 48.9989362,93.0209524 L48.9989362,93.0209524 L48.9989362,93.0209524 C48.9620567,92.9933333 48.943617,92.9565079 48.943617,92.9104762 L48.943617,92.9104762 L48.943617,83.5752381 L48.943617,83.5752381 C48.943617,83.5292063 48.9620567,83.492381 48.9989362,83.4647619 L48.9989362,83.4647619 L48.9989362,83.4647619 C49.0265957,83.4279365 49.0634752,83.4095238 49.1095745,83.4095238 L49.1095745,83.4095238 L55.3191489,83.4095238 L55.3191489,83.4095238 C55.3652482,83.4095238 55.4021277,83.4279365 55.4297872,83.4647619 L55.4297872,83.4647619 L55.4297872,83.4647619 C55.4666667,83.492381 55.4851064,83.5292063 55.4851064,83.5752381 L55.4851064,83.5752381 L55.4851064,84.6247619 Z M62.7319149,93.0761905 L62.7319149,93.0761905 C62.6397163,93.0761905 62.5797872,93.0301587 62.5521277,92.9380952 L62.5521277,92.9380952 L62.0957447,91.4604762 L62.0957447,91.4604762 C62.077305,91.4236508 62.0542553,91.4052381 62.0265957,91.4052381 L62.0265957,91.4052381 L58.3755319,91.4052381 L58.3755319,91.4052381 C58.3478723,91.4052381 58.3248227,91.4236508 58.306383,91.4604762 L58.306383,91.4604762 L57.85,92.9380952 L57.85,92.9380952 C57.8223404,93.0301587 57.7624113,93.0761905 57.6702128,93.0761905 L57.6702128,93.0761905 L56.287234,93.0761905 L56.287234,93.0761905 C56.2319149,93.0761905 56.1904255,93.0577778 56.162766,93.0209524 L56.162766,93.0209524 L56.162766,93.0209524 C56.1351064,92.9933333 56.1304965,92.9473016 56.1489362,92.8828571 L56.1489362,92.8828571 L59.15,83.547619 L59.15,83.547619 C59.1776596,83.4555556 59.2375887,83.4095238 59.3297872,83.4095238 L59.3297872,83.4095238 L61.0585106,83.4095238 L61.0585106,83.4095238 C61.1507092,83.4095238 61.2106383,83.4555556 61.2382979,83.547619 L61.2382979,83.547619 L64.2531915,92.8828571 L64.2531915,92.8828571 C64.2624113,92.9012698 64.2670213,92.9242857 64.2670213,92.9519048 L64.2670213,92.9519048 L64.2670213,92.9519048 C64.2670213,93.0347619 64.2163121,93.0761905 64.1148936,93.0761905 L64.1148936,93.0761905 L62.7319149,93.0761905 Z M58.7351064,90.0657143 L58.7351064,90.0657143 C58.7258865,90.1209524 58.7443262,90.1485714 58.7904255,90.1485714 L58.7904255,90.1485714 L61.5978723,90.1485714 L61.5978723,90.1485714 C61.6531915,90.1485714 61.6716312,90.1209524 61.6531915,90.0657143 L61.6531915,90.0657143 L60.2287234,85.4395238 L60.2287234,85.4395238 C60.2195035,85.4026984 60.2056738,85.3842857 60.187234,85.3842857 L60.187234,85.3842857 L60.187234,85.3842857 C60.1687943,85.3842857 60.1549645,85.4026984 60.1457447,85.4395238 L60.1457447,85.4395238 L58.7351064,90.0657143 Z M65.8574468,93.0761905 L65.8574468,93.0761905 C65.8113475,93.0761905 65.7744681,93.0577778 65.7468085,93.0209524 L65.7468085,93.0209524 L65.7468085,93.0209524 C65.7099291,92.9933333 65.6914894,92.9565079 65.6914894,92.9104762 L65.6914894,92.9104762 L65.6914894,83.5752381 L65.6914894,83.5752381 C65.6914894,83.5292063 65.7099291,83.492381 65.7468085,83.4647619 L65.7468085,83.4647619 L65.7468085,83.4647619 C65.7744681,83.4279365 65.8113475,83.4095238 65.8574468,83.4095238 L65.8574468,83.4095238 L67.1297872,83.4095238 L67.1297872,83.4095238 C67.1758865,83.4095238 67.212766,83.4279365 67.2404255,83.4647619 L67.2404255,83.4647619 L67.2404255,83.4647619 C67.277305,83.492381 67.2957447,83.5292063 67.2957447,83.5752381 L67.2957447,83.5752381 L67.2957447,91.6261905 L67.2957447,91.6261905 C67.2957447,91.6722222 67.3187943,91.6952381 67.3648936,91.6952381 L67.3648936,91.6952381 L71.9978723,91.6952381 L71.9978723,91.6952381 C72.0439716,91.6952381 72.0808511,91.7136508 72.1085106,91.7504762 L72.1085106,91.7504762 L72.1085106,91.7504762 C72.1453901,91.7780952 72.1638298,91.8149206 72.1638298,91.8609524 L72.1638298,91.8609524 L72.1638298,92.9104762 L72.1638298,92.9104762 C72.1638298,92.9565079 72.1453901,92.9933333 72.1085106,93.0209524 L72.1085106,93.0209524 L72.1085106,93.0209524 C72.0808511,93.0577778 72.0439716,93.0761905 71.9978723,93.0761905 L71.9978723,93.0761905 L65.8574468,93.0761905 Z M73.7542553,93.0761905 L73.7542553,93.0761905 C73.708156,93.0761905 73.6712766,93.0577778 73.643617,93.0209524 L73.643617,93.0209524 L73.643617,93.0209524 C73.6067376,92.9933333 73.5882979,92.9565079 73.5882979,92.9104762 L73.5882979,92.9104762 L73.5882979,83.5752381 L73.5882979,83.5752381 C73.5882979,83.5292063 73.6067376,83.492381 73.643617,83.4647619 L73.643617,83.4647619 L73.643617,83.4647619 C73.6712766,83.4279365 73.708156,83.4095238 73.7542553,83.4095238 L73.7542553,83.4095238 L75.0265957,83.4095238 L75.0265957,83.4095238 C75.072695,83.4095238 75.1141844,83.4279365 75.1510638,83.4647619 L75.1510638,83.4647619 L75.1510638,83.4647619 C75.1787234,83.492381 75.1925532,83.5292063 75.1925532,83.5752381 L75.1925532,83.5752381 L75.1925532,91.6261905 L75.1925532,91.6261905 C75.1925532,91.6722222 75.2156028,91.6952381 75.2617021,91.6952381 L75.2617021,91.6952381 L79.8946809,91.6952381 L79.8946809,91.6952381 C79.9407801,91.6952381 79.9822695,91.7136508 80.0191489,91.7504762 L80.0191489,91.7504762 L80.0191489,91.7504762 C80.0468085,91.7780952 80.0606383,91.8149206 80.0606383,91.8609524 L80.0606383,91.8609524 L80.0606383,92.9104762 L80.0606383,92.9104762 C80.0606383,92.9565079 80.0468085,92.9933333 80.0191489,93.0209524 L80.0191489,93.0209524 L80.0191489,93.0209524 C79.9822695,93.0577778 79.9407801,93.0761905 79.8946809,93.0761905 L79.8946809,93.0761905 L73.7542553,93.0761905 Z" id="Shape" fill="#FFFFFF"></path>
                <path d="M49.1925532,118.01619 L49.1925532,118.01619 C49.1648936,118.04381 49.1556738,118.071429 49.1648936,118.099048 L49.1648936,118.099048 L49.1648936,118.099048 C49.1833333,118.126667 49.2109929,118.140476 49.2478723,118.140476 L49.2478723,118.140476 L54.6829787,118.140476 L54.6829787,118.140476 C54.7475177,118.140476 54.8028369,118.163492 54.8489362,118.209524 L54.8489362,118.209524 L54.8489362,118.209524 C54.9042553,118.255556 54.9319149,118.310794 54.9319149,118.375238 L54.9319149,118.375238 L54.9319149,120.322381 L54.9319149,120.322381 C54.9319149,120.386825 54.9042553,120.442063 54.8489362,120.488095 L54.8489362,120.488095 L54.8489362,120.488095 C54.8028369,120.534127 54.7475177,120.557143 54.6829787,120.557143 L54.6829787,120.557143 L45.6659574,120.557143 L45.6659574,120.557143 C45.5921986,120.557143 45.5322695,120.534127 45.4861702,120.488095 L45.4861702,120.488095 L45.4861702,120.488095 C45.4400709,120.442063 45.4170213,120.386825 45.4170213,120.322381 L45.4170213,120.322381 L45.4170213,118.471905 L45.4170213,118.471905 C45.4170213,118.352222 45.4585106,118.250952 45.5414894,118.168095 L45.5414894,118.168095 L45.5414894,118.168095 C46.1960993,117.532857 46.864539,116.837778 47.5468085,116.082857 L47.5468085,116.082857 L47.5468085,116.082857 C48.229078,115.327937 48.6578014,114.858413 48.8329787,114.674286 L48.8329787,114.674286 L48.8329787,114.674286 C49.201773,114.232381 49.5797872,113.808889 49.9670213,113.40381 L49.9670213,113.40381 L49.9670213,113.40381 C51.1840426,112.059683 51.7925532,111.060794 51.7925532,110.407143 L51.7925532,110.407143 L51.7925532,110.407143 C51.7925532,109.937619 51.6265957,109.550952 51.2946809,109.247143 L51.2946809,109.247143 L51.2946809,109.247143 C50.962766,108.95254 50.5294326,108.805238 49.9946809,108.805238 L49.9946809,108.805238 L49.9946809,108.805238 C49.4599291,108.805238 49.0265957,108.95254 48.6946809,109.247143 L48.6946809,109.247143 L48.6946809,109.247143 C48.3535461,109.550952 48.1829787,109.951429 48.1829787,110.448571 L48.1829787,110.448571 L48.1829787,110.945714 L48.1829787,110.945714 C48.1829787,111.010159 48.1599291,111.065397 48.1138298,111.111429 L48.1138298,111.111429 L48.1138298,111.111429 C48.0677305,111.15746 48.0124113,111.180476 47.9478723,111.180476 L47.9478723,111.180476 L45.5829787,111.180476 L45.5829787,111.180476 C45.5184397,111.180476 45.4631206,111.15746 45.4170213,111.111429 L45.4170213,111.111429 L45.4170213,111.111429 C45.3617021,111.065397 45.3340426,111.010159 45.3340426,110.945714 L45.3340426,110.945714 L45.3340426,110.006667 L45.3340426,110.006667 C45.3801418,109.288571 45.6106383,108.64873 46.0255319,108.087143 L46.0255319,108.087143 L46.0255319,108.087143 C46.4404255,107.534762 46.9890071,107.11127 47.6712766,106.816667 L47.6712766,106.816667 L47.6712766,106.816667 C48.362766,106.522063 49.137234,106.374762 49.9946809,106.374762 L49.9946809,106.374762 L49.9946809,106.374762 C50.9443262,106.374762 51.7695035,106.554286 52.4702128,106.913333 L52.4702128,106.913333 L52.4702128,106.913333 C53.170922,107.263175 53.7102837,107.737302 54.0882979,108.335714 L54.0882979,108.335714 L54.0882979,108.335714 C54.4755319,108.943333 54.6691489,109.610794 54.6691489,110.338095 L54.6691489,110.338095 L54.6691489,110.338095 C54.6691489,110.899683 54.5262411,111.475079 54.2404255,112.064286 L54.2404255,112.064286 L54.2404255,112.064286 C53.9638298,112.653492 53.5443262,113.28873 52.9819149,113.97 L52.9819149,113.97 L52.9819149,113.97 C52.5670213,114.485556 52.1198582,115.001111 51.6404255,115.516667 L51.6404255,115.516667 L51.6404255,115.516667 C51.1609929,116.023016 50.4464539,116.754921 49.4968085,117.712381 L49.4968085,117.712381 L49.1925532,118.01619 Z M61.4457447,120.778095 L61.4457447,120.778095 C59.9705674,120.778095 58.8088652,120.368413 57.9606383,119.549048 L57.9606383,119.549048 L57.9606383,119.549048 C57.1031915,118.729683 56.6744681,117.611111 56.6744681,116.193333 L56.6744681,116.193333 L56.6744681,110.904286 L56.6744681,110.904286 C56.6744681,109.514127 57.1031915,108.413968 57.9606383,107.60381 L57.9606383,107.60381 L57.9606383,107.60381 C58.8088652,106.784444 59.9705674,106.374762 61.4457447,106.374762 L61.4457447,106.374762 L61.4457447,106.374762 C62.9117021,106.374762 64.0780142,106.784444 64.9446809,107.60381 L64.9446809,107.60381 L64.9446809,107.60381 C65.8021277,108.413968 66.2308511,109.514127 66.2308511,110.904286 L66.2308511,110.904286 L66.2308511,116.193333 L66.2308511,116.193333 C66.2308511,117.611111 65.8021277,118.729683 64.9446809,119.549048 L64.9446809,119.549048 L64.9446809,119.549048 C64.0780142,120.368413 62.9117021,120.778095 61.4457447,120.778095 L61.4457447,120.778095 Z M61.4457447,118.361429 L61.4457447,118.361429 C62.0450355,118.361429 62.5198582,118.177302 62.8702128,117.809048 L62.8702128,117.809048 L62.8702128,117.809048 C63.2297872,117.440794 63.4095745,116.948254 63.4095745,116.331429 L63.4095745,116.331429 L63.4095745,110.821429 L63.4095745,110.821429 C63.4095745,110.21381 63.2297872,109.725873 62.8702128,109.357619 L62.8702128,109.357619 L62.8702128,109.357619 C62.5198582,108.989365 62.0450355,108.805238 61.4457447,108.805238 L61.4457447,108.805238 L61.4457447,108.805238 C60.8556738,108.805238 60.385461,108.989365 60.0351064,109.357619 L60.0351064,109.357619 L60.0351064,109.357619 C59.6755319,109.725873 59.4957447,110.21381 59.4957447,110.821429 L59.4957447,110.821429 L59.4957447,116.331429 L59.4957447,116.331429 C59.4957447,116.948254 59.6755319,117.440794 60.0351064,117.809048 L60.0351064,117.809048 L60.0351064,117.809048 C60.385461,118.177302 60.8556738,118.361429 61.4457447,118.361429 L61.4457447,118.361429 Z M69.9648936,106.595714 L69.9648936,106.595714 C70.0294326,106.558889 70.1308511,106.540476 70.2691489,106.540476 L70.2691489,106.540476 L72.6893617,106.540476 L72.6893617,106.540476 C72.7631206,106.540476 72.8230496,106.563492 72.8691489,106.609524 L72.8691489,106.609524 L72.8691489,106.609524 C72.9152482,106.655556 72.9382979,106.710794 72.9382979,106.775238 L72.9382979,106.775238 L72.9382979,120.322381 L72.9382979,120.322381 C72.9382979,120.386825 72.9152482,120.442063 72.8691489,120.488095 L72.8691489,120.488095 L72.8691489,120.488095 C72.8230496,120.534127 72.7631206,120.557143 72.6893617,120.557143 L72.6893617,120.557143 L70.3521277,120.557143 L70.3521277,120.557143 C70.2783688,120.557143 70.2184397,120.534127 70.1723404,120.488095 L70.1723404,120.488095 L70.1723404,120.488095 C70.1262411,120.442063 70.1031915,120.386825 70.1031915,120.322381 L70.1031915,120.322381 L70.1031915,109.34381 L70.1031915,109.34381 C70.1031915,109.31619 70.0893617,109.288571 70.0617021,109.260952 L70.0617021,109.260952 L70.0617021,109.260952 C70.0340426,109.233333 70.006383,109.22873 69.9787234,109.247143 L69.9787234,109.247143 L68.0010638,109.785714 L67.9180851,109.799524 L67.9180851,109.799524 C67.798227,109.799524 67.7382979,109.725873 67.7382979,109.578571 L67.7382979,109.578571 L67.6829787,107.86619 L67.6829787,107.86619 C67.6829787,107.728095 67.7429078,107.631429 67.862766,107.57619 L67.862766,107.57619 L69.9648936,106.595714 Z M83.5042553,109.081429 L83.5042553,109.081429 C83.7255319,109.63381 83.8361702,110.28746 83.8361702,111.042381 L83.8361702,111.042381 L83.8361702,117.077143 L83.8361702,117.077143 C83.8361702,117.795238 83.651773,118.430476 83.2829787,118.982857 L83.2829787,118.982857 L83.2829787,118.982857 C82.9049645,119.535238 82.3748227,119.963333 81.6925532,120.267143 L81.6925532,120.267143 L81.6925532,120.267143 C81.0102837,120.570952 80.2312057,120.722857 79.3553191,120.722857 L79.3553191,120.722857 L79.3553191,120.722857 C78.4794326,120.722857 77.7095745,120.570952 77.0457447,120.267143 L77.0457447,120.267143 L77.0457447,120.267143 C76.372695,119.963333 75.851773,119.544444 75.4829787,119.010476 L75.4829787,119.010476 L75.4829787,119.010476 C75.1049645,118.467302 74.9159574,117.84127 74.9159574,117.132381 L74.9159574,117.132381 L74.9159574,116.56619 L74.9159574,116.56619 C74.9159574,116.501746 74.9390071,116.446508 74.9851064,116.400476 L74.9851064,116.400476 L74.9851064,116.400476 C75.0312057,116.354444 75.0911348,116.331429 75.1648936,116.331429 L75.1648936,116.331429 L77.5021277,116.331429 L77.5021277,116.331429 C77.5758865,116.331429 77.6358156,116.354444 77.6819149,116.400476 L77.6819149,116.400476 L77.6819149,116.400476 C77.7280142,116.446508 77.7510638,116.501746 77.7510638,116.56619 L77.7510638,116.56619 L77.7510638,116.745714 L77.7510638,116.745714 C77.7510638,117.187619 77.8985816,117.555873 78.193617,117.850476 L78.193617,117.850476 L78.193617,117.850476 C78.4978723,118.145079 78.8851064,118.292381 79.3553191,118.292381 L79.3553191,118.292381 L79.3553191,118.292381 C79.8439716,118.292381 80.2450355,118.145079 80.5585106,117.850476 L80.5585106,117.850476 L80.5585106,117.850476 C80.862766,117.546667 81.0148936,117.16 81.0148936,116.690476 L81.0148936,116.690476 L81.0148936,114.82619 L81.0148936,114.82619 C81.0148936,114.789365 81.0010638,114.761746 80.9734043,114.743333 L80.9734043,114.743333 L80.9734043,114.743333 C80.9457447,114.734127 80.9180851,114.743333 80.8904255,114.770952 L80.8904255,114.770952 L80.8904255,114.770952 C80.3464539,115.240476 79.627305,115.475238 78.7329787,115.475238 L78.7329787,115.475238 L78.7329787,115.475238 C77.9308511,115.475238 77.2117021,115.291111 76.5755319,114.922857 L76.5755319,114.922857 L76.5755319,114.922857 C75.9393617,114.554603 75.4414894,114.025238 75.0819149,113.334762 L75.0819149,113.334762 L75.0819149,113.334762 C74.75,112.699524 74.5840426,111.930794 74.5840426,111.028571 L74.5840426,111.028571 L74.5840426,111.028571 C74.5840426,110.236825 74.7177305,109.541746 74.9851064,108.943333 L74.9851064,108.943333 L74.9851064,108.943333 C75.3170213,108.151587 75.851773,107.530159 76.5893617,107.079048 L76.5893617,107.079048 L76.5893617,107.079048 C77.3361702,106.627937 78.2120567,106.402381 79.2170213,106.402381 L79.2170213,106.402381 L79.2170213,106.402381 C80.2312057,106.402381 81.1163121,106.637143 81.8723404,107.106667 L81.8723404,107.106667 L81.8723404,107.106667 C82.6283688,107.585397 83.1723404,108.243651 83.5042553,109.081429 L83.5042553,109.081429 Z M79.2170213,113.11381 L79.2170213,113.11381 C79.9085106,113.11381 80.406383,112.837619 80.7106383,112.285238 L80.7106383,112.285238 L80.7106383,112.285238 C80.9134752,111.935397 81.0148936,111.488889 81.0148936,110.945714 L81.0148936,110.945714 L81.0148936,110.945714 C81.0148936,110.50381 80.927305,110.09873 80.7521277,109.730476 L80.7521277,109.730476 L80.7521277,109.730476 C80.4570922,109.14127 79.95,108.846667 79.2308511,108.846667 L79.2308511,108.846667 L79.2308511,108.846667 C78.5393617,108.846667 78.0322695,109.14127 77.7095745,109.730476 L77.7095745,109.730476 L77.7095745,109.730476 C77.5067376,110.09873 77.4053191,110.517619 77.4053191,110.987143 L77.4053191,110.987143 L77.4053191,110.987143 C77.4053191,111.493492 77.5205674,111.935397 77.7510638,112.312857 L77.7510638,112.312857 L77.7510638,112.312857 C78.0829787,112.846825 78.5716312,113.11381 79.2170213,113.11381 L79.2170213,113.11381 Z" id="Shape" fill="#252530"></path>
            </g>
        </g>
    </g>
</svg>