<?xml version="1.0" encoding="UTF-8"?>
<svg width="27px" height="34px" viewBox="0 0 27 34" version="1.1" xmlns="http://www.w3.org/2000/svg" xmlns:xlink="http://www.w3.org/1999/xlink">
    <!-- Generator: Sketch 58 (84663) - https://sketch.com -->
    <title>noun_Security_2342899</title>
    <desc>Created with Sketch.</desc>
    <g id="Page-1" stroke="none" stroke-width="1" fill="none" fill-rule="evenodd">
        <g id="icons" transform="translate(-134.000000, -1.000000)" fill="#000000" fill-rule="nonzero">
            <g id="noun_Security_2342899" transform="translate(134.000000, 1.000000)">
                <path d="M13.5,0 C8.64,0 4.97571429,3.93325918 4.97571429,8.66073415 L4.97571429,10.8164627 C4.97571429,11.4593993 5.47714286,11.9510567 6.13285714,11.9510567 C6.78857143,11.9510567 7.29,11.4593993 7.29,10.8164627 C7.29,10.8164627 7.29,10.7786429 7.29,10.7786429 L7.29,8.62291435 C7.29,4.99221357 9.87428571,2.23136819 13.5,2.23136819 C17.1257143,2.23136819 19.71,4.99221357 19.71,8.62291435 L19.71,10.7786429 C19.71,11.4215795 20.2114286,11.9132369 20.8671429,11.9132369 C21.5228571,11.9132369 22.0242857,11.4215795 22.0242857,10.7786429 C22.0242857,10.7786429 22.0242857,10.7408231 22.0242857,10.7408231 L22.0242857,8.58509455 C22.0242857,3.93325918 18.36,0 13.5,0 Z M1.04142857,12.8965517 C0.462857143,12.9721913 0,13.4638487 0,14.0311457 L0,32.865406 C0,33.5083426 0.501428571,34 1.15714286,34 L25.8428571,34 C26.4985714,34 27,33.5083426 27,32.865406 L27,22.2758621 C27,21.6329255 26.4985714,21.1412681 25.8428571,21.1412681 C25.1871429,21.1412681 24.6857143,21.6329255 24.6857143,22.2758621 C24.6857143,22.2758621 24.6857143,22.3136819 24.6857143,22.3136819 L24.6857143,31.7686318 L2.31428571,31.7686318 L2.31428571,15.2035595 L24.6857143,15.2035595 L24.6857143,17.8887653 C24.6857143,18.5317019 25.1871429,19.0233593 25.8428571,19.0233593 C26.4985714,19.0233593 27,18.5317019 27,17.8887653 C27,17.8887653 27,17.8509455 27,17.8509455 L27,14.0311457 C27,13.3882091 26.4985714,12.8965517 25.8428571,12.8965517 L1.15714286,12.8965517 C1.11857143,12.8965517 1.08,12.8965517 1.04142857,12.8965517 Z M13.5,17.7753059 C10.9542857,17.7753059 8.87142857,19.8553949 8.87142857,22.3136819 C8.87142857,23.7130145 9.56571429,24.9610679 10.6071429,25.7552836 L10.6071429,28.0244716 C10.6071429,28.6674082 11.1085714,29.1590656 11.7642857,29.1590656 L15.2357143,29.1590656 C15.8914286,29.1590656 16.3928571,28.6674082 16.3928571,28.0244716 C16.3928571,27.381535 15.8914286,26.8898776 15.2357143,26.8898776 C15.2357143,26.8898776 15.1971429,26.8898776 15.1971429,26.8898776 L12.8828571,26.8898776 L12.8828571,25.1879867 C12.8828571,24.7719689 12.6514286,24.3937709 12.3042857,24.2046719 C11.61,23.7886541 11.1471429,23.1457175 11.1471429,22.2758621 C11.1471429,21.0278087 12.1885714,20.0066741 13.4614286,20.0066741 C14.7342857,20.0066741 15.7757143,21.0278087 15.7757143,22.2758621 C15.7757143,22.8809789 15.5442857,23.3726363 15.1585714,23.7886541 C14.7342857,24.2424917 14.7342857,24.9610679 15.1971429,25.3770857 C15.66,25.7931034 16.3928571,25.7931034 16.8171429,25.3392659 C17.5885714,24.5450501 18.0514286,23.4482759 18.0514286,22.2758621 C18.1285714,19.8175751 16.0457143,17.7753059 13.5,17.7753059 Z" id="Shape"></path>
            </g>
        </g>
    </g>
</svg>