<?xml version="1.0" encoding="UTF-8"?>
<svg width="40px" height="36px" viewBox="0 0 40 36" version="1.1" xmlns="http://www.w3.org/2000/svg" xmlns:xlink="http://www.w3.org/1999/xlink">
    <!-- Generator: Sketch 58 (84663) - https://sketch.com -->
    <title>noun_support_2328399</title>
    <desc>Created with Sketch.</desc>
    <g id="Page-1" stroke="none" stroke-width="1" fill="none" fill-rule="evenodd">
        <g id="icons" transform="translate(-84.000000, -1.000000)" fill="#000000" fill-rule="nonzero">
            <g id="noun_support_2328399" transform="translate(84.000000, 1.000000)">
                <path d="M40,21.4109589 C40,17.9178082 37.3894737,15 33.9368421,14.4657534 L33.9368421,13.4794521 C33.9368421,6.04109589 27.7473684,0 20.1263158,0 C12.5052632,0 6.27368421,6.04109589 6.27368421,13.4794521 L6.27368421,14.4246575 C2.73684211,14.8767123 0,17.8356164 0,21.4109589 C0,25.3150685 3.24210526,28.4794521 7.24210526,28.4794521 L9.09473684,28.4794521 C10.6105263,28.4794521 11.7894737,27.2876712 11.7894737,25.8493151 L11.7894737,17.0136986 C11.7894737,15.6575342 10.7368421,14.5479452 9.38947368,14.3835616 L9.38947368,13.4794521 C9.38947368,7.7260274 14.1894737,3.04109589 20.0842105,3.04109589 C25.9789474,3.04109589 30.7789474,7.7260274 30.7789474,13.4794521 L30.7789474,14.3424658 C29.3052632,14.3835616 28.1684211,15.5342466 28.1684211,16.9726027 L28.1684211,25.8082192 C28.1684211,26.9178082 28.8842105,27.9041096 29.9368421,28.2739726 C28.6315789,30.4109589 26.3578947,31.8493151 23.6631579,32.0547945 C23.4947368,31.3150685 22.8210526,30.739726 21.9789474,30.739726 L18.1894737,30.739726 C17.2631579,30.739726 16.4631579,31.4794521 16.4631579,32.4246575 L16.4631579,34.3150685 C16.4631579,35.2191781 17.2210526,36 18.1894737,36 L21.9789474,36 C22.8210526,36 23.5368421,35.4246575 23.6631579,34.6027397 C27.7473684,34.3972603 31.2,31.890411 32.7578947,28.4383562 C36.7578947,28.4383562 40,25.2739726 40,21.4109589 Z M8.67368421,25.3972603 L7.24210526,25.3972603 C4.96842105,25.3972603 3.15789474,23.5890411 3.15789474,21.4109589 C3.15789474,19.2328767 5.01052632,17.4246575 7.24210526,17.4246575 L8.67368421,17.4246575 L8.67368421,25.3972603 Z M32.7578947,25.3972603 L31.3263158,25.3972603 L31.3263158,17.4246575 L32.7578947,17.4246575 C35.0315789,17.4246575 36.8421053,19.2328767 36.8421053,21.4109589 C36.8421053,23.5890411 35.0315789,25.3972603 32.7578947,25.3972603 Z" id="Shape"></path>
            </g>
        </g>
    </g>
</svg>