<svg width="1440" height="124" viewBox="0 0 1440 124" fill="none" xmlns="http://www.w3.org/2000/svg">
<circle cx="1291.56" cy="1.55932" r="1.55932" fill="#C4C4C4"/>
<circle cx="1317.29" cy="1.55932" r="1.55932" fill="#C4C4C4"/>
<circle cx="1291.56" cy="60.8136" r="1.55932" fill="#C4C4C4"/>
<circle cx="1317.29" cy="60.0339" r="1.55932" fill="#C4C4C4"/>
<circle cx="1291.56" cy="11.6949" r="1.55932" fill="#C4C4C4"/>
<circle cx="1317.29" cy="11.6949" r="1.55932" fill="#C4C4C4"/>
<circle cx="1291.56" cy="70.9492" r="1.55932" fill="#C4C4C4"/>
<circle cx="1317.29" cy="70.1694" r="1.55932" fill="#C4C4C4"/>
<circle cx="1291.56" cy="21.0509" r="1.55932" fill="#C4C4C4"/>
<circle cx="1317.29" cy="21.0509" r="1.55932" fill="#C4C4C4"/>
<circle cx="1291.56" cy="80.305" r="1.55932" fill="#C4C4C4"/>
<circle cx="1317.29" cy="79.5254" r="1.55932" fill="#C4C4C4"/>
<circle cx="1291.56" cy="50.678" r="1.55932" fill="#C4C4C4"/>
<circle cx="1317.29" cy="50.678" r="1.55932" fill="#C4C4C4"/>
<circle cx="1291.56" cy="109.932" r="1.55932" fill="#C4C4C4"/>
<circle cx="1317.29" cy="109.153" r="1.55932" fill="#C4C4C4"/>
<circle cx="1291.56" cy="1.55932" r="1.55932" fill="#C4C4C4"/>
<circle cx="1317.29" cy="1.55932" r="1.55932" fill="#C4C4C4"/>
<circle cx="1291.56" cy="60.8136" r="1.55932" fill="#C4C4C4"/>
<circle cx="1317.29" cy="60.0339" r="1.55932" fill="#C4C4C4"/>
<circle cx="1291.56" cy="31.1864" r="1.55932" fill="#C4C4C4"/>
<circle cx="1317.29" cy="31.1864" r="1.55932" fill="#C4C4C4"/>
<circle cx="1291.56" cy="90.4407" r="1.55932" fill="#C4C4C4"/>
<circle cx="1317.29" cy="89.661" r="1.55932" fill="#C4C4C4"/>
<circle cx="1300.14" cy="1.55932" r="1.55932" fill="#C4C4C4"/>
<circle cx="1325.86" cy="1.55932" r="1.55932" fill="#C4C4C4"/>
<circle cx="1300.14" cy="60.8136" r="1.55932" fill="#C4C4C4"/>
<circle cx="1325.86" cy="60.0339" r="1.55932" fill="#C4C4C4"/>
<circle cx="1300.14" cy="1.55932" r="1.55932" fill="#C4C4C4"/>
<circle cx="1325.86" cy="1.55932" r="1.55932" fill="#C4C4C4"/>
<circle cx="1300.14" cy="60.8136" r="1.55932" fill="#C4C4C4"/>
<circle cx="1325.86" cy="60.0339" r="1.55932" fill="#C4C4C4"/>
<circle cx="1300.14" cy="31.1864" r="1.55932" fill="#C4C4C4"/>
<circle cx="1325.86" cy="31.1864" r="1.55932" fill="#C4C4C4"/>
<circle cx="1300.14" cy="90.4407" r="1.55932" fill="#C4C4C4"/>
<circle cx="1325.86" cy="89.661" r="1.55932" fill="#C4C4C4"/>
<circle cx="1300.14" cy="11.6949" r="1.55932" fill="#C4C4C4"/>
<circle cx="1325.86" cy="11.6949" r="1.55932" fill="#C4C4C4"/>
<circle cx="1300.14" cy="70.9492" r="1.55932" fill="#C4C4C4"/>
<circle cx="1325.86" cy="70.1694" r="1.55932" fill="#C4C4C4"/>
<circle cx="1300.14" cy="40.5424" r="1.55932" fill="#C4C4C4"/>
<circle cx="1325.86" cy="40.5424" r="1.55932" fill="#C4C4C4"/>
<circle cx="1300.14" cy="99.7966" r="1.55932" fill="#C4C4C4"/>
<circle cx="1325.86" cy="99.017" r="1.55932" fill="#C4C4C4"/>
<circle cx="1291.56" cy="40.5424" r="1.55932" fill="#C4C4C4"/>
<circle cx="1317.29" cy="40.5424" r="1.55932" fill="#C4C4C4"/>
<circle cx="1291.56" cy="99.7966" r="1.55932" fill="#C4C4C4"/>
<circle cx="1317.29" cy="99.017" r="1.55932" fill="#C4C4C4"/>
<circle cx="1300.14" cy="21.0509" r="1.55932" fill="#C4C4C4"/>
<circle cx="1325.86" cy="21.0509" r="1.55932" fill="#C4C4C4"/>
<circle cx="1300.14" cy="80.305" r="1.55932" fill="#C4C4C4"/>
<circle cx="1325.86" cy="79.5254" r="1.55932" fill="#C4C4C4"/>
<circle cx="1300.14" cy="50.678" r="1.55932" fill="#C4C4C4"/>
<circle cx="1325.86" cy="50.678" r="1.55932" fill="#C4C4C4"/>
<circle cx="1300.14" cy="109.932" r="1.55932" fill="#C4C4C4"/>
<circle cx="1325.86" cy="109.153" r="1.55932" fill="#C4C4C4"/>
<circle cx="1308.71" cy="1.55932" r="1.55932" fill="#C4C4C4"/>
<circle cx="1334.44" cy="1.55932" r="1.55932" fill="#C4C4C4"/>
<circle cx="1308.71" cy="60.8136" r="1.55932" fill="#C4C4C4"/>
<circle cx="1334.44" cy="60.0339" r="1.55932" fill="#C4C4C4"/>
<circle cx="1308.71" cy="31.1864" r="1.55932" fill="#C4C4C4"/>
<circle cx="1334.44" cy="31.1864" r="1.55932" fill="#C4C4C4"/>
<circle cx="1308.71" cy="90.4407" r="1.55932" fill="#C4C4C4"/>
<circle cx="1334.44" cy="89.661" r="1.55932" fill="#C4C4C4"/>
<circle cx="1308.71" cy="11.6949" r="1.55932" fill="#C4C4C4"/>
<circle cx="1334.44" cy="11.6949" r="1.55932" fill="#C4C4C4"/>
<circle cx="1308.71" cy="70.9492" r="1.55932" fill="#C4C4C4"/>
<circle cx="1334.44" cy="70.1694" r="1.55932" fill="#C4C4C4"/>
<circle cx="1308.71" cy="40.5424" r="1.55932" fill="#C4C4C4"/>
<circle cx="1334.44" cy="40.5424" r="1.55932" fill="#C4C4C4"/>
<circle cx="1308.71" cy="99.7966" r="1.55932" fill="#C4C4C4"/>
<circle cx="1334.44" cy="99.017" r="1.55932" fill="#C4C4C4"/>
<circle cx="1308.71" cy="21.0509" r="1.55932" fill="#C4C4C4"/>
<circle cx="1334.44" cy="21.0509" r="1.55932" fill="#C4C4C4"/>
<circle cx="1308.71" cy="80.305" r="1.55932" fill="#C4C4C4"/>
<circle cx="1334.44" cy="79.5254" r="1.55932" fill="#C4C4C4"/>
<circle cx="1308.71" cy="50.678" r="1.55932" fill="#C4C4C4"/>
<circle cx="1334.44" cy="50.678" r="1.55932" fill="#C4C4C4"/>
<circle cx="1308.71" cy="109.932" r="1.55932" fill="#C4C4C4"/>
<circle cx="1334.44" cy="109.153" r="1.55932" fill="#C4C4C4"/>
<circle cx="37.5593" cy="5.05078" r="1.55932" fill="#C4C4C4"/>
<circle cx="63.2881" cy="5.05078" r="1.55932" fill="#C4C4C4"/>
<circle cx="37.5593" cy="64.305" r="1.55932" fill="#C4C4C4"/>
<circle cx="63.2881" cy="63.5254" r="1.55932" fill="#C4C4C4"/>
<circle cx="37.5593" cy="15.1864" r="1.55932" fill="#C4C4C4"/>
<circle cx="63.2881" cy="15.1864" r="1.55932" fill="#C4C4C4"/>
<circle cx="37.5593" cy="74.4407" r="1.55932" fill="#C4C4C4"/>
<circle cx="63.2881" cy="73.6609" r="1.55932" fill="#C4C4C4"/>
<circle cx="37.5593" cy="24.5424" r="1.55932" fill="#C4C4C4"/>
<circle cx="63.2881" cy="24.5424" r="1.55932" fill="#C4C4C4"/>
<circle cx="37.5593" cy="83.7965" r="1.55932" fill="#C4C4C4"/>
<circle cx="63.2881" cy="83.0168" r="1.55932" fill="#C4C4C4"/>
<circle cx="37.5593" cy="54.1694" r="1.55932" fill="#C4C4C4"/>
<circle cx="63.2881" cy="54.1694" r="1.55932" fill="#C4C4C4"/>
<circle cx="37.5593" cy="113.424" r="1.55932" fill="#C4C4C4"/>
<circle cx="63.2881" cy="112.644" r="1.55932" fill="#C4C4C4"/>
<circle cx="37.5593" cy="5.05078" r="1.55932" fill="#C4C4C4"/>
<circle cx="63.2881" cy="5.05078" r="1.55932" fill="#C4C4C4"/>
<circle cx="37.5593" cy="64.305" r="1.55932" fill="#C4C4C4"/>
<circle cx="63.2881" cy="63.5254" r="1.55932" fill="#C4C4C4"/>
<circle cx="37.5593" cy="34.6779" r="1.55932" fill="#C4C4C4"/>
<circle cx="63.2881" cy="34.6779" r="1.55932" fill="#C4C4C4"/>
<circle cx="37.5593" cy="93.9321" r="1.55932" fill="#C4C4C4"/>
<circle cx="63.2881" cy="93.1525" r="1.55932" fill="#C4C4C4"/>
<circle cx="46.1356" cy="5.05078" r="1.55932" fill="#C4C4C4"/>
<circle cx="71.8644" cy="5.05078" r="1.55932" fill="#C4C4C4"/>
<circle cx="46.1356" cy="64.305" r="1.55932" fill="#C4C4C4"/>
<circle cx="71.8644" cy="63.5254" r="1.55932" fill="#C4C4C4"/>
<circle cx="46.1356" cy="5.05078" r="1.55932" fill="#C4C4C4"/>
<circle cx="71.8644" cy="5.05078" r="1.55932" fill="#C4C4C4"/>
<circle cx="46.1356" cy="64.305" r="1.55932" fill="#C4C4C4"/>
<circle cx="71.8644" cy="63.5254" r="1.55932" fill="#C4C4C4"/>
<circle cx="46.1356" cy="34.6779" r="1.55932" fill="#C4C4C4"/>
<circle cx="71.8644" cy="34.6779" r="1.55932" fill="#C4C4C4"/>
<circle cx="46.1356" cy="93.9321" r="1.55932" fill="#C4C4C4"/>
<circle cx="71.8644" cy="93.1525" r="1.55932" fill="#C4C4C4"/>
<circle cx="46.1356" cy="15.1864" r="1.55932" fill="#C4C4C4"/>
<circle cx="71.8644" cy="15.1864" r="1.55932" fill="#C4C4C4"/>
<circle cx="46.1356" cy="74.4407" r="1.55932" fill="#C4C4C4"/>
<circle cx="71.8644" cy="73.6609" r="1.55932" fill="#C4C4C4"/>
<circle cx="46.1356" cy="44.0338" r="1.55932" fill="#C4C4C4"/>
<circle cx="71.8644" cy="44.0338" r="1.55932" fill="#C4C4C4"/>
<circle cx="46.1356" cy="103.288" r="1.55932" fill="#C4C4C4"/>
<circle cx="71.8644" cy="102.508" r="1.55932" fill="#C4C4C4"/>
<circle cx="37.5593" cy="44.0338" r="1.55932" fill="#C4C4C4"/>
<circle cx="63.2881" cy="44.0338" r="1.55932" fill="#C4C4C4"/>
<circle cx="37.5593" cy="103.288" r="1.55932" fill="#C4C4C4"/>
<circle cx="63.2881" cy="102.508" r="1.55932" fill="#C4C4C4"/>
<circle cx="46.1356" cy="24.5424" r="1.55932" fill="#C4C4C4"/>
<circle cx="71.8644" cy="24.5424" r="1.55932" fill="#C4C4C4"/>
<circle cx="46.1356" cy="83.7965" r="1.55932" fill="#C4C4C4"/>
<circle cx="71.8644" cy="83.0168" r="1.55932" fill="#C4C4C4"/>
<circle cx="46.1356" cy="54.1694" r="1.55932" fill="#C4C4C4"/>
<circle cx="71.8644" cy="54.1694" r="1.55932" fill="#C4C4C4"/>
<circle cx="46.1356" cy="113.424" r="1.55932" fill="#C4C4C4"/>
<circle cx="71.8644" cy="112.644" r="1.55932" fill="#C4C4C4"/>
<circle cx="54.7118" cy="5.05078" r="1.55932" fill="#C4C4C4"/>
<circle cx="80.4407" cy="5.05078" r="1.55932" fill="#C4C4C4"/>
<circle cx="54.7118" cy="64.305" r="1.55932" fill="#C4C4C4"/>
<circle cx="80.4407" cy="63.5254" r="1.55932" fill="#C4C4C4"/>
<circle cx="54.7118" cy="34.6779" r="1.55932" fill="#C4C4C4"/>
<circle cx="80.4407" cy="34.6779" r="1.55932" fill="#C4C4C4"/>
<circle cx="54.7118" cy="93.9321" r="1.55932" fill="#C4C4C4"/>
<circle cx="80.4407" cy="93.1525" r="1.55932" fill="#C4C4C4"/>
<circle cx="54.7118" cy="15.1864" r="1.55932" fill="#C4C4C4"/>
<circle cx="80.4407" cy="15.1864" r="1.55932" fill="#C4C4C4"/>
<circle cx="54.7118" cy="74.4407" r="1.55932" fill="#C4C4C4"/>
<circle cx="80.4407" cy="73.6609" r="1.55932" fill="#C4C4C4"/>
<circle cx="54.7118" cy="44.0338" r="1.55932" fill="#C4C4C4"/>
<circle cx="80.4407" cy="44.0338" r="1.55932" fill="#C4C4C4"/>
<circle cx="54.7118" cy="103.288" r="1.55932" fill="#C4C4C4"/>
<circle cx="80.4407" cy="102.508" r="1.55932" fill="#C4C4C4"/>
<circle cx="54.7118" cy="24.5424" r="1.55932" fill="#C4C4C4"/>
<circle cx="80.4407" cy="24.5424" r="1.55932" fill="#C4C4C4"/>
<circle cx="54.7118" cy="83.7965" r="1.55932" fill="#C4C4C4"/>
<circle cx="80.4407" cy="83.0168" r="1.55932" fill="#C4C4C4"/>
<circle cx="54.7118" cy="54.1694" r="1.55932" fill="#C4C4C4"/>
<circle cx="80.4407" cy="54.1694" r="1.55932" fill="#C4C4C4"/>
<circle cx="54.7118" cy="113.424" r="1.55932" fill="#C4C4C4"/>
<circle cx="80.4407" cy="112.644" r="1.55932" fill="#C4C4C4"/>
<path d="M1361.36 59.4915C1331.75 79.64 1271.95 120.748 1269.59 123.991H1439.5L1361.36 59.4915Z" fill="white"/>
<path d="M1361.73 123.991V59.4915L1439.5 123.991H1361.73Z" fill="#6A7C54"/>
<path d="M89.7563 67.4915C61.0295 87.04 2.28861 120.845 0 123.991H164.851C164.851 123.991 115.026 88.3512 89.7563 67.4915Z" fill="white"/>
<path d="M89.3987 123.634L89.7563 67.4915L165.209 123.634H89.3987Z" fill="#6A7C54"/>
</svg>
