<?xml version="1.0" encoding="UTF-8"?>
<svg width="30px" height="33px" viewBox="0 0 30 33" version="1.1" xmlns="http://www.w3.org/2000/svg" xmlns:xlink="http://www.w3.org/1999/xlink">
    <!-- Generator: Sketch 62 (91390) - https://sketch.com -->
    <title>Increase Customer Retention Copy</title>
    <desc>Created with Sketch.</desc>
    <g id="Billing-System-Software" stroke="none" stroke-width="1" fill="none" fill-rule="evenodd">
        <g id="BSS---01-Copy-2" transform="translate(-683.000000, -1148.000000)" fill="#231F20" fill-rule="nonzero">
            <g id="Increase-Customer-Retention-Copy" transform="translate(683.000000, 1147.000000)">
                <path d="M10.264,17.983 C11.1136944,18.8289215 12.2650224,19.3020453 13.464,19.2980257 L13.488,19.2980257 C15.9971316,19.2847776 18.0210738,17.241142 18.0100452,14.732 L18,12.7 C17.9967063,11.4938374 17.5117843,10.3389526 16.653,9.492 C15.7924858,8.64975926 14.6370955,8.17683863 13.433,8.174 C10.9232238,8.18996973 8.90036538,10.2352 8.91195006,12.745 L8.922,14.775 C8.92308321,15.9806189 9.40629954,17.1357291 10.264,17.983 Z" id="Path"></path>
                <path d="M7.811,26.6000117 L7.821,26.6000117 L19.221,26.544 C19.8167202,26.5412001 20.3675104,26.2267766 20.6728048,25.7152243 C20.9780992,25.2036721 20.9933486,24.5696378 20.713,24.044 C19.278626,21.4156661 16.5232558,19.7806239 13.529,19.7809999 L13.487,19.7809999 C10.4766705,19.7962076 7.71714565,21.4610608 6.3,24.117 C6.02056151,24.6388649 6.03960402,25.2699334 6.35,25.774 C6.65679785,26.2881858 7.21224546,26.6022171 7.811,26.6000117 L7.811,26.6000117 Z" id="Path"></path>
                <path d="M2.047,5.2 L2.058,4.447 C2.06628427,3.89195383 1.62304617,3.43528427 1.068,3.427 C0.512953826,3.41871573 0.0562842712,3.86195383 0.048,4.417 L-0.000101235367,7.62 C-0.00779165982,8.17485056 0.435164052,8.63122917 0.99,8.64 L4.208,8.688 C4.76277003,8.69656041 5.21943959,8.25377003 5.228,7.699 C5.23656041,7.14422997 4.79377003,6.68756041 4.239,6.679 L3.415,6.666 C9.18899888,1.4961997 18.0215344,1.83312496 23.3849135,7.42777088 C28.7482926,13.0224168 28.7122662,21.8613027 23.3034597,27.4120423 C17.8946531,32.9627819 9.0596646,33.2276962 3.328,28.011 C2.9144879,27.6454942 2.28526025,27.6751831 1.908,28.078 C1.72726355,28.2745644 1.63264885,28.5352489 1.645234,28.8019787 C1.65781914,29.0687086 1.77655866,29.3193264 1.975,29.498 C8.51036517,35.4489726 18.5876555,35.1446345 24.7519943,28.8101258 C30.916333,22.475617 30.9462076,12.3937765 24.8195177,6.02284687 C18.6928278,-0.348082717 8.61751802,-0.712137196 2.047,5.2 L2.047,5.2 Z" id="Path"></path>
            </g>
        </g>
    </g>
</svg>