<?xml version="1.0" encoding="UTF-8"?>
<svg width="33px" height="35px" viewBox="0 0 33 35" version="1.1" xmlns="http://www.w3.org/2000/svg" xmlns:xlink="http://www.w3.org/1999/xlink">
    <!-- Generator: Sketch 62 (91390) - https://sketch.com -->
    <title>revenue-operations (1)</title>
    <desc>Created with Sketch.</desc>
    <g id="Billing-System-Software" stroke="none" stroke-width="1" fill="none" fill-rule="evenodd">
        <g id="BSS---01-Copy" transform="translate(-170.000000, -4095.000000)" fill="#000000" fill-rule="nonzero">
            <g id="Group-18" transform="translate(170.000000, 4029.000000)">
                <g id="revenue-operations-(1)" transform="translate(0.000000, 66.000000)">
                    <path d="M30.63,7.23 C30.3119673,6.67535757 29.7857738,6.27053807 29.1681328,6.10533318 C28.5504918,5.94012829 27.8924624,6.02819518 27.34,6.35 L27.34,6.35 L26.08,7.08 C24.4993983,5.6024818 22.6005992,4.50767869 20.53,3.88 L20.53,2.41 C20.5300221,1.7673479 20.2733686,1.15130444 19.817071,0.698762429 C19.3607735,0.246220417 18.74263,-0.00533321285 18.1,-8.31045228e-05 L14.6,-8.31045228e-05 C13.2689938,-8.31045228e-05 12.19,1.07899375 12.19,2.41 L12.19,3.87 C10.2000226,4.46728892 8.3641,5.49103756 6.81,6.87 L5.57,6.16 C5.01845346,5.83070815 4.35861534,5.73421253 3.73587064,5.89177444 C3.11312595,6.04933635 2.57857581,6.44802659 2.25,7 L0.45,10 C-0.230706509,11.1438374 0.140122022,12.6226837 1.28,13.31 L2.51,14 C1.9838539,16.1922056 1.9838539,18.4777944 2.51,20.67 L1.26,21.39 C0.104463468,22.0566572 -0.29362621,23.5327201 0.37,24.69 L2.12,27.69 C2.79007512,28.8419071 4.26533378,29.2353095 5.42,28.57 L5.42,28.57 L6.69,27.84 C8.27002775,29.3205494 10.1687634,30.418737 12.24,31.05 L12.24,32.51 C12.2184681,33.1543318 12.4559914,33.7804287 12.8994787,34.2483455 C13.3429661,34.7162622 13.9554399,34.9869843 14.6,35 L18.1,35 C18.7409081,35 19.3554214,34.7447233 19.8076726,34.2905955 C20.2599239,33.8364677 20.5126594,33.2209026 20.51,32.58 L20.51,31.13 C22.5046631,30.5367398 24.3446793,29.5126121 25.9,28.13 L27.14,28.88 C27.6957524,29.2086706 28.3601466,29.3005941 28.9842609,29.1351662 C29.6083753,28.9697383 30.1400096,28.5607952 30.46,28 L32.26,25 C32.9407065,23.8561626 32.569878,22.3773163 31.43,21.69 L30.19,21 C30.7199604,18.8082474 30.7199604,16.5217526 30.19,14.33 L31.45,13.61 C32.5995728,12.9436399 32.9968565,11.4750294 32.34,10.32 L32.34,10.32 L30.63,7.23 Z M30.63,11.57 C30.6077794,11.67238 30.542063,11.7600018 30.45,11.81 L28.8,12.76 C28.2384487,13.0832381 27.9669182,13.745608 28.14,14.37 C28.7084359,16.491543 28.6911565,18.7274956 28.09,20.84 C27.9081985,21.4627976 28.1716324,22.1296148 28.73,22.46 L30.35,23.46 C30.5303003,23.5718832 30.5880651,23.8073857 30.48,23.99 L28.68,26.99 C28.5719548,27.1690199 28.3395787,27.227114 28.16,27.12 L28.16,27.12 L26.53,26.12 C25.9745511,25.7873439 25.2648973,25.8693848 24.8,26.32 C23.3217822,27.7501035 21.5052289,28.7822361 19.52,29.32 C18.8972571,29.4903607 18.464019,30.0543877 18.46,30.7 L18.46,32.62 C18.46,32.8298682 18.2898682,32.9999981 18.08,32.9999981 L14.6,32.9999981 C14.4992177,32.9999981 14.4025632,32.9599644 14.3312994,32.8887006 C14.2600356,32.8174368 14.22,32.7207823 14.22,32.62 L14.22,30.67 C14.2194103,30.0232158 13.7847594,29.4573496 13.16,29.29 C11.1081354,28.7377599 9.2362636,27.658762 7.73,26.16 C7.46537103,25.8931974 7.10577577,25.7421674 6.73,25.74 C6.48112211,25.7426254 6.23692558,25.8079738 6.02,25.93 L4.36,26.93 C4.26760832,26.9706571 4.16239168,26.9706571 4.07,26.93 C3.9738376,26.9002664 3.89197269,26.8361982 3.84,26.75 L2.09,23.75 C1.98924709,23.5640992 2.05058431,23.331894 2.23,23.22 L3.89,22.22 C4.44876355,21.8943296 4.7193889,21.2341677 4.55,20.61 C4.28021692,19.588225 4.13912464,18.5367515 4.13,17.48 C4.13111719,16.3469802 4.28928916,15.2195843 4.6,14.13 C4.77077935,13.525751 4.52739651,12.8807864 4,12.54 L2.38,11.54 C2.28793697,11.4900018 2.22222061,11.40238 2.2,11.3 C2.16534066,11.2098844 2.16534066,11.1101156 2.2,11.02 L4,7.99999815 C4.04853916,7.91061116 4.13088925,7.84441377 4.22862165,7.81622173 C4.32635406,7.78802969 4.43130926,7.80019671 4.52,7.85 L4.52,7.85 L6.15,8.85 C6.70544891,9.18265607 7.41510268,9.10061517 7.88,8.65 C9.36159674,7.22441494 11.1769229,6.19297963 13.16,5.65 C13.7847594,5.48265044 14.2194103,4.91678421 14.22,4.27 L14.22,2.41 C14.2116151,2.3041289 14.2479175,2.19957979 14.3201103,2.12168758 C14.3923031,2.04379536 14.4937979,1.99966848 14.6,1.99999815 L18.1,1.99999815 C18.3115455,1.99999815 18.4845758,2.16852406 18.49,2.38 L18.49,4.33 C18.4870851,4.97797134 18.9231899,5.54573047 19.55,5.71 C21.6086622,6.25990329 23.487573,7.33898418 25,8.84 C25.4575711,9.29230447 26.1596652,9.38618913 26.72,9.07 L28.38,8.07 C28.4667917,8.0165479 28.5717901,8.00126862 28.6702163,8.02776798 C28.7686425,8.05426733 28.8517768,8.12019773 28.9,8.21 L28.9,8.21 L30.65,11.21 C30.7218321,11.3182362 30.7257128,11.4579431 30.66,11.57 L30.63,11.57 Z" id="Shape"></path>
                    <path d="M17.33,16.24 L17.33,11.91 C18.5250527,12.2822834 19.4459914,13.2409655 19.77,14.45 L21.5,13.45 C20.9063382,11.5820867 19.2760502,10.2332873 17.33,10 L17.33,8.2 L15.54,8.2 L15.54,10 C13.1,10.24 11.43,11.69 11.43,13.72 C11.43,15.96 13.14,17.29 15.54,17.85 L15.54,22.6 C14,22.24 13,21.09 12.68,19.16 L10.77,20.16 C11.1569551,22.5450915 13.1302228,24.352886 15.54,24.53 L15.54,26.34 L17.33,26.34 L17.33,24.56 C20.07,24.27 21.74,22.44 21.74,20.35 C21.74,18 20.27,16.82 17.33,16.24 Z M15.54,15.78 C14.17,15.29 13.54,14.61 13.54,13.66 C13.54,12.71 14.42,12.05 15.54,11.87 L15.54,15.78 Z M17.33,22.62 L17.33,18.21 C18.82,18.64 19.57,19.26 19.57,20.43 C19.4897248,21.6237974 18.5253052,22.5666899 17.33,22.62 L17.33,22.62 Z" id="Shape"></path>
                </g>
            </g>
        </g>
    </g>
</svg>