<?xml version="1.0" encoding="UTF-8"?>
<svg width="33px" height="35px" viewBox="0 0 33 35" version="1.1" xmlns="http://www.w3.org/2000/svg" xmlns:xlink="http://www.w3.org/1999/xlink">
    <!-- Generator: Sketch 62 (91390) - https://sketch.com -->
    <title>Level up your Billing Ops Efficiency</title>
    <desc>Created with Sketch.</desc>
    <g id="Billing-System-Software" stroke="none" stroke-width="1" fill="none" fill-rule="evenodd">
        <g id="BSS---01-Copy-2" transform="translate(-192.000000, -939.000000)" fill="#020202" fill-rule="nonzero">
            <g id="Level-up-your-Billing-Ops-Efficiency" transform="translate(192.000000, 939.000000)">
                <path d="M26.755,17.042 L26.755,7.364 C26.755,7.34 26.743,7.32 26.742,7.297 C26.7348881,7.19564778 26.7140304,7.09573287 26.68,7 C26.667,6.966 26.657,6.932 26.641,6.9 C26.5860891,6.77885247 26.509112,6.66898195 26.414,6.576 L19.745,0.3 C19.6529876,0.215773459 19.5470913,0.148108103 19.432,0.1 C19.3993349,0.0873480236 19.3659418,0.0766622555 19.332,0.068 C19.2446194,0.0390943499 19.153866,0.0216159271 19.062,0.016 C19.042,0.011 19.022,0 19,0 L2.192,0 C0.981848853,0.0011026441 0.0011026441,0.981848853 0,2.192 L0,30.759 C0.0016536849,31.9687606 0.982238767,32.9488983 2.192,32.95 L17.983,32.95 C20.8492881,35.2627898 24.8166732,35.6488345 28.0750618,33.9320036 C31.3334504,32.2151727 33.2582438,28.7245646 32.9712677,25.0527464 C32.6842916,21.3809281 30.2405564,18.2317485 26.755,17.042 L26.755,17.042 Z M2.172,2.192 L2.192,2.172 L17.915,2.172 L17.915,7.364 C17.9149997,7.96339093 18.4006093,8.44944807 19,8.45 L24.581,8.45 L24.574,16.578 C24.308,16.555 24.041,16.537 23.774,16.537 C20.3922625,16.5302382 17.2783835,18.3759513 15.6610313,21.3458614 C14.0436792,24.3157716 14.1826082,27.9328972 16.023,30.77 L2.172,30.759 L2.172,2.192 Z M20.087,3.6 L22.931,6.278 L20.087,6.278 L20.087,3.6 Z M18.987,28.547 C18.9592221,28.4906364 18.9380807,28.4312389 18.924,28.37 L18.343,28.612 C18.1441041,28.693858 17.9156526,28.6508444 17.7601454,28.5022583 C17.6046383,28.3536722 17.5512757,28.1274141 17.624,27.925 L18.349,25.935 C18.4003933,25.7923385 18.5091989,25.6777299 18.649,25.619 C18.7892497,25.5615962 18.9469506,25.5644898 19.085,25.627 L21.009,26.513 C21.2051823,26.602974 21.3294529,26.8005941 21.3255491,27.0163893 C21.3216452,27.2321846 21.1903083,27.4251806 20.991,27.508 L20.41,27.75 C21.0776358,28.843969 22.2547067,29.5244897 23.5358914,29.5572266 C24.817076,29.5899635 26.0273656,28.9704447 26.75,27.912 C26.798,27.842 26.85,27.776 26.894,27.703 C27.1243027,27.3164007 27.6244007,27.1896973 28.011,27.42 C28.3975993,27.6503027 28.5243027,28.1504007 28.294,28.537 C27.9011483,29.1891814 27.3754182,29.7513684 26.751,30.187 C26.4109761,30.4278357 26.044612,30.6291346 25.659,30.787 C24.3504754,31.321466 22.8835594,31.3160729 21.579,30.772 C20.5001401,30.3269095 19.5928718,29.5468972 18.991,28.547 L18.987,28.547 Z M28.446,26.267 L26.746,25.486 L26.518,25.38 C26.3218177,25.290026 26.1975471,25.0924059 26.2014509,24.8766107 C26.2053548,24.6608154 26.3366917,24.4678194 26.536,24.385 L26.746,24.298 L27.069,24.164 C26.9774944,23.9716427 26.8694199,23.7876149 26.746,23.614 C26.2315691,22.8593161 25.4573498,22.3203883 24.571,22.1 C22.9465867,21.6702676 21.2352574,22.3787849 20.39,23.831 C20.1596973,24.2175993 19.6595993,24.3443027 19.273,24.114 C18.8864007,23.8836973 18.7596973,23.3835993 18.99,22.997 C20.0251225,21.2806605 21.9208647,20.2733317 23.9225527,20.3760199 C25.9242407,20.4787081 27.7069486,21.6747444 28.561,23.488 C28.569,23.505 28.567,23.522 28.573,23.538 L29.193,23.28 C29.3924002,23.1990308 29.6207207,23.2420364 29.777,23.39 C29.932638,23.5388485 29.9856012,23.7656094 29.912,23.968 L29.187,25.957 C29.1091953,26.171705 28.9053676,26.314784 28.677,26.3150067 C28.5987747,26.3153854 28.5213734,26.2990186 28.45,26.267 L28.446,26.267 Z" id="Shape"></path>
                <path d="M6.574,13.06 L20.462,13.06 C21.0617812,13.06 21.548,12.5737812 21.548,11.974 C21.548,11.3742188 21.0617812,10.888 20.462,10.888 L6.574,10.888 C5.97421876,10.888 5.488,11.3742188 5.488,11.974 C5.488,12.5737812 5.97421876,13.06 6.574,13.06 Z" id="Path"></path>
                <path d="M13.517,15.449 L6.574,15.449 C5.97421878,15.449 5.48800005,15.9352188 5.48800005,16.535 C5.48800005,17.1347812 5.97421878,17.621 6.574,17.621 L13.517,17.621 C14.1167812,17.621 14.603,17.1347812 14.603,16.535 C14.603,15.9352188 14.1167812,15.449 13.517,15.449 L13.517,15.449 Z" id="Path"></path>
            </g>
        </g>
    </g>
</svg>