<?xml version="1.0" encoding="utf-8"?>
<!-- Generator: Adobe Illustrator 24.1.2, SVG Export Plug-In . SVG Version: 6.00 Build 0)  -->
<svg version="1.1" id="Layer_1" xmlns="http://www.w3.org/2000/svg" xmlns:xlink="http://www.w3.org/1999/xlink" x="0px" y="0px"
	 viewBox="0 0 29.9 25" style="enable-background:new 0 0 29.9 25;" xml:space="preserve">
<style type="text/css">
	.st0{fill:url(#SVGID_1_);}
	.st1{fill:#632AB4;}
</style>
<g>
	<linearGradient id="SVGID_1_" gradientUnits="userSpaceOnUse" x1="0" y1="12.5" x2="25" y2="12.5">
		<stop  offset="8.872768e-02" style="stop-color:#DAC0FE"/>
		<stop  offset="0.3296" style="stop-color:#E1CCFE"/>
		<stop  offset="0.7611" style="stop-color:#F3EBFF"/>
		<stop  offset="1" style="stop-color:#FFFFFF"/>
	</linearGradient>
	<path class="st0" d="M12.5,25L12.5,25C5.6,25,0,19.4,0,12.5v0C0,5.6,5.6,0,12.5,0h0C19.4,0,25,5.6,25,12.5v0
		C25,19.4,19.4,25,12.5,25z"/>
	<g id="Solid_25_">
		<path class="st1" d="M28.1,3.5h-3.6c-1,0-1.8,0.8-1.8,1.8v3.6c0,0.2,0,0.3,0.1,0.5l-5,5c-0.1,0-0.3-0.1-0.5-0.1h-3.6
			c-1,0-1.8,0.8-1.8,1.8v3.6c0,1,0.8,1.8,1.8,1.8h3.6c1,0,1.8-0.8,1.8-1.8v-3.6c0-0.2,0-0.3-0.1-0.5l5-5c0.1,0,0.3,0.1,0.5,0.1h3.6
			c1,0,1.8-0.8,1.8-1.8V5.3C29.9,4.3,29.1,3.5,28.1,3.5z M13.7,19.7v-3.6h3.6l0,3.6H13.7z M24.5,8.9V5.3h3.6l0,3.6H24.5z"/>
	</g>
</g>
</svg>
