<?xml version="1.0" encoding="utf-8"?>
<!-- Generator: Adobe Illustrator 24.1.2, SVG Export Plug-In . SVG Version: 6.00 Build 0)  -->
<svg version="1.1" id="Layer_1" xmlns="http://www.w3.org/2000/svg" xmlns:xlink="http://www.w3.org/1999/xlink" x="0px" y="0px"
	 viewBox="0 0 29.4 25" style="enable-background:new 0 0 29.4 25;" xml:space="preserve">
<style type="text/css">
	.st0{fill:url(#SVGID_1_);}
	.st1{fill:#632AB4;}
</style>
<g>
	<linearGradient id="SVGID_1_" gradientUnits="userSpaceOnUse" x1="0" y1="12.5" x2="25" y2="12.5">
		<stop  offset="8.872768e-02" style="stop-color:#DAC0FE"/>
		<stop  offset="0.3296" style="stop-color:#E1CCFE"/>
		<stop  offset="0.7611" style="stop-color:#F3EBFF"/>
		<stop  offset="1" style="stop-color:#FFFFFF"/>
	</linearGradient>
	<path class="st0" d="M12.5,25L12.5,25C5.6,25,0,19.4,0,12.5v0C0,5.6,5.6,0,12.5,0h0C19.4,0,25,5.6,25,12.5v0
		C25,19.4,19.4,25,12.5,25z"/>
	<g id="Outline_29_">
		<g>
			<g>
				<g>
					<path class="st1" d="M17.4,14.2c-1.9,0-3.5-1.5-3.5-3.5s1.5-3.5,3.5-3.5s3.5,1.5,3.5,3.5S19.3,14.2,17.4,14.2z M17.4,9
						c-1,0-1.7,0.8-1.7,1.7c0,1,0.8,1.7,1.7,1.7c1,0,1.7-0.8,1.7-1.7C19.1,9.8,18.3,9,17.4,9z"/>
				</g>
				<g>
					<path class="st1" d="M24.3,21.1H10.4v-0.9c0-3.1,2.8-5.2,6.9-5.2s6.9,2.1,6.9,5.2V21.1z M12.3,19.4h10.1
						c-0.5-1.6-2.4-2.6-5-2.6S12.8,17.8,12.3,19.4z"/>
				</g>
			</g>
			<polygon class="st1" points="29.4,6.5 26.9,6.5 26.9,3.9 25.1,3.9 25.1,6.5 22.5,6.5 22.5,8.2 25.1,8.2 25.1,10.8 26.9,10.8 
				26.9,8.2 29.4,8.2 			"/>
		</g>
	</g>
</g>
</svg>
