<?xml version="1.0" encoding="UTF-8" standalone="no"?>
<svg width="149px" height="31px" viewBox="0 0 149 31" version="1.1" xmlns="http://www.w3.org/2000/svg" xmlns:xlink="http://www.w3.org/1999/xlink" xmlns:sketch="http://www.bohemiancoding.com/sketch/ns">
    <!-- Generator: Sketch 3.3.2 (12043) - http://www.bohemiancoding.com/sketch -->
    <title>assets/logo</title>
    <desc>Created with Sketch.</desc>
    <defs></defs>
    <g id="Page-1" stroke="none" stroke-width="1" fill="none" fill-rule="evenodd" sketch:type="MSPage">
        <g id="Header" sketch:type="MSLayerGroup" transform="translate(-10.000000, -8.000000)" fill="#FFFFFF">
            <g id="BitGym-Logo" transform="translate(10.000000, 8.000000)" sketch:type="MSShapeGroup">
                <path d="M14.3812467,19.2661199 L14.3812467,14.9703815 C14.3812467,13.4601662 13.4745695,12.4198501 11.9970777,11.9501199 C13.4745695,11.4466866 14.3812467,10.4396512 14.3812467,8.9293515 L14.3812467,4.63378202 C14.3812467,1.64688556 12.4672348,0.103051771 9.78109359,0.103051771 L0.00955019853,0.103051771 L0.00955019853,23.7967657 L9.78109359,23.7967657 C12.4672348,23.7967657 14.3812467,22.2528474 14.3812467,19.2661199 L14.3812467,19.2661199 Z M4.37475156,13.4934469 L9.98249291,13.4934469 L9.98249291,20.7427166 L4.37475156,20.7427166 L4.37475156,13.4934469 Z M4.37475156,3.15710082 L9.98249291,3.15710082 L9.98249291,10.4060327 L4.37475156,10.4060327 L4.37475156,3.15710082 Z" id="Fill-1"></path>
                <path d="M22.575148,7.61045777 L26.9403494,7.61045777 L26.9403494,23.7967657 L22.575148,23.7967657 L22.575148,7.61045777 Z" id="Fill-2"></path>
                <path d="M22.575148,0.0880163488 L26.9403494,0.0880163488 L26.9403494,4.35241689 L22.575148,4.35241689 L22.575148,0.0880163488 Z" id="Fill-3"></path>
                <path d="M44.2333925,20.8097847 L40.137118,20.8097847 L40.137118,7.28516894 L44.2333925,7.28516894 L44.2333925,4.29818801 L40.137118,4.29818801 L40.137118,0.103051771 L35.7715786,0.103051771 L35.7715786,4.29818801 L33.0183324,4.29818801 L33.0183324,7.28516894 L35.7715786,7.28516894 L35.7715786,19.2661199 C35.7715786,22.2528474 37.6855905,23.7967657 40.3719853,23.7967657 L44.2333925,23.7967657 L44.2333925,20.8097847" id="Fill-4"></path>
                <path d="M65.1871197,12.3861471 L58.1019711,12.3861471 L58.1019711,15.4736458 L60.7880278,15.4736458 L60.7880278,20.7426322 L55.1802864,20.7426322 L55.1802864,3.15710082 L60.7880278,3.15710082 L60.7880278,7.65421253 L65.1871197,7.65421253 L65.1871197,4.63378202 C65.1871197,1.64688556 63.2731078,0.103051771 60.586713,0.103051771 L55.4154918,0.103051771 C52.7291815,0.103051771 50.8150851,1.64688556 50.8150851,4.63378202 L50.8150851,19.2661199 C50.8150851,22.2528474 52.7291815,23.7967657 55.4154918,23.7967657 L65.1871197,23.7967657 L65.1871197,12.3861471" id="Fill-5"></path>
                <path d="M87.752464,4.36770572 L83.3536256,4.36770572 L83.3536256,20.748376 L77.7462223,20.7426322 L77.7462223,4.36770572 L73.381021,4.36770572 L73.381021,19.2661199 C73.381021,22.2528474 75.2944413,23.7967657 77.9811741,23.7967657 L83.3536256,23.7967657 L83.3536256,27.6562234 L75.2944413,27.6562234 L75.2944413,30.7101035 L83.1187584,30.7101035 C85.8383676,30.7101035 87.752464,29.1662698 87.752464,26.1793733 L87.752464,4.36770572" id="Fill-6"></path>
                <path d="M109.996229,7.42150136 L109.996229,7.38788283 C109.409863,5.4347139 107.749396,4.42919891 105.59739,4.37057766 L105.59739,4.36770572 L95.9462808,4.36770572 L95.9462808,23.7967657 L100.311482,23.7967657 L100.311482,7.42150136 L105.59739,7.42150136 L105.59739,23.7967657 L109.996229,23.7967657 L109.996229,7.42150136" id="Fill-7"></path>
                <path d="M140.171306,11.0849918 L140.171306,8.8816267 L142.376219,8.8816267 L142.376219,6.67792371 L140.171306,6.67792371 L140.171306,4.47422071 L142.376219,4.47422071 L142.376219,0.0671525886 L137.966732,0.0671525886 L137.966732,4.47422071 L131.352247,4.47422071 L131.352247,6.67792371 L133.556906,6.67792371 L133.556906,8.8816267 L135.761566,8.8816267 L135.761566,11.0849918 L137.966732,11.0849918 L137.966732,13.2886948 L140.171306,13.2886948 L140.171306,11.0849918" id="Fill-8"></path>
                <path d="M133.556906,0.0671525886 L135.761566,0.0671525886 L135.761566,2.27051771 L133.556906,2.27051771 L133.556906,0.0671525886 Z" id="Fill-9"></path>
                <path d="M129.147504,6.67792371 L131.352332,6.67792371 L131.352332,8.8816267 L129.147504,8.8816267 L129.147504,6.67792371 Z" id="Fill-10"></path>
                <path d="M146.786044,6.67792371 L146.786044,4.47422071 L144.581132,4.47422071 L144.581132,8.8816267 L146.786044,8.8816267 L146.786044,6.67792371" id="Fill-11"></path>
                <path d="M126.942845,11.0849918 L126.942845,13.2886948 L129.147504,13.2886948 L129.147504,8.8816267 L126.942845,8.8816267 L126.942845,11.0849918" id="Fill-12"></path>
                <path d="M142.376219,8.8816267 L144.581132,8.8816267 L144.581132,11.0849918 L142.376219,11.0849918 L142.376219,8.8816267 Z" id="Fill-13"></path>
                <path d="M131.352247,11.0849918 L133.556906,11.0849918 L133.556906,13.2886948 L131.352247,13.2886948 L131.352247,11.0849918 Z" id="Fill-14"></path>
                <path d="M135.761566,13.2886948 L137.966732,13.2886948 L137.966732,15.4923978 L135.761566,15.4923978 L135.761566,13.2886948 Z" id="Fill-15"></path>
                <path d="M120.328445,22.1032534 L122.533357,22.1032534 L122.533357,24.3065341 L120.328445,24.3065341 L120.328445,22.1032534 Z" id="Fill-16"></path>
                <path d="M135.761566,22.1032534 L133.556906,22.1032534 L133.556906,24.3065341 L131.352247,24.3065341 L131.352247,26.5099837 L135.761566,26.5099837 L135.761566,22.1032534" id="Fill-17"></path>
                <path d="M122.533357,24.3065341 L124.737678,24.3065341 L124.737678,26.5099837 L122.533357,26.5099837 L122.533357,24.3065341 Z" id="Fill-18"></path>
                <path d="M126.942845,26.5099837 L126.942845,28.7137711 L129.147504,28.7137711 L129.147504,24.3065341 L126.942845,24.3065341 L126.942845,26.5099837" id="Fill-19"></path>
                <path d="M144.581132,26.5099837 L146.786044,26.5099837 L146.786044,22.1032534 L144.581132,22.1032534 L144.581132,19.8991281 L142.376219,19.8991281 L142.376219,15.4923978 L137.966732,15.4923978 L137.966732,17.6958474 L133.556906,17.6958474 L133.556906,19.8991281 L140.171306,19.8991281 L140.171306,22.1032534 L142.376219,22.1032534 L142.376219,24.3065341 L144.581132,24.3065341 L144.581132,26.5099837" id="Fill-20"></path>
                <path d="M144.581132,30.9173896 L148.990365,30.9173896 L148.990365,28.7137711 L144.581132,28.7137711 L144.581132,30.9173896 Z" id="Fill-21"></path>
                <path d="M120.328445,17.6958474 L120.324557,17.6958474 L120.324557,8.89818256 C120.324557,5.9112861 118.376824,4.36770572 115.690767,4.36770572 L112.366199,4.36770572 L112.366199,7.41702452 L115.925719,7.42150136 L115.925719,17.7004932 L118.123532,17.7004932 L118.123532,19.8991281 L120.328445,19.8991281 L120.328445,17.6958474" id="Fill-22"></path>
                <path d="M118.123532,24.3065341 L120.328445,24.3065341 L120.328445,26.5099837 L118.123532,26.5099837 L118.123532,24.3065341 Z" id="Fill-23"></path>
                <path d="M118.123532,22.1032534 L118.123532,19.8991281 L115.918619,19.8991281 L115.918619,24.3065341 L118.123532,24.3065341 L118.123532,22.1032534" id="Fill-24"></path>
            </g>
        </g>
    </g>
</svg>