<?xml version="1.0" encoding="utf-8"?>
<!-- Generator: Adobe Illustrator 24.1.2, SVG Export Plug-In . SVG Version: 6.00 Build 0)  -->
<svg version="1.1" id="Layer_1" xmlns="http://www.w3.org/2000/svg" xmlns:xlink="http://www.w3.org/1999/xlink" x="0px" y="0px"
	 viewBox="0 0 28.9 25" style="enable-background:new 0 0 28.9 25;" xml:space="preserve">
<style type="text/css">
	.st0{fill:url(#SVGID_1_);}
	.st1{fill:#632AB4;}
</style>
<g>
	<linearGradient id="SVGID_1_" gradientUnits="userSpaceOnUse" x1="0" y1="12.5" x2="25" y2="12.5">
		<stop  offset="8.872768e-02" style="stop-color:#DAC0FE"/>
		<stop  offset="0.3296" style="stop-color:#E1CCFE"/>
		<stop  offset="0.7611" style="stop-color:#F3EBFF"/>
		<stop  offset="1" style="stop-color:#FFFFFF"/>
	</linearGradient>
	<path class="st0" d="M12.5,25L12.5,25C5.6,25,0,19.4,0,12.5v0C0,5.6,5.6,0,12.5,0h0C19.4,0,25,5.6,25,12.5v0
		C25,19.4,19.4,25,12.5,25z"/>
	<g id="Outline_36_">
		<g>
			<path class="st1" d="M27.1,3.5H12.7c-1,0-1.8,0.8-1.8,1.8v14.4c0,1,0.8,1.8,1.8,1.8h14.4c1,0,1.8-0.8,1.8-1.8V5.3
				C28.9,4.3,28.1,3.5,27.1,3.5z M27.1,5.3v3.6h-0.4l-1.4,1.4l-3.7-3.7l-3.6,4.5l-2.6-2.6l-2.2,2.2h-0.5V5.3H27.1z M12.7,19.7v-7.2
				H14l1.4-1.4l2.8,2.8l3.6-4.5l3.5,3.5l1.8-1.8v8.6H12.7z"/>
			<rect x="13.6" y="16.1" class="st1" width="1.8" height="2.7"/>
			<rect x="17.2" y="14.3" class="st1" width="1.8" height="4.5"/>
			<rect x="20.8" y="16.1" class="st1" width="1.8" height="2.7"/>
			<rect x="24.4" y="14.3" class="st1" width="1.8" height="4.5"/>
		</g>
	</g>
</g>
</svg>
