<?xml version="1.0" encoding="utf-8"?>
<!-- Generator: Adobe Illustrator 24.1.2, SVG Export Plug-In . SVG Version: 6.00 Build 0)  -->
<svg version="1.1" id="Layer_1" xmlns="http://www.w3.org/2000/svg" xmlns:xlink="http://www.w3.org/1999/xlink" x="0px" y="0px"
	 viewBox="0 0 31.4 25" style="enable-background:new 0 0 31.4 25;" xml:space="preserve">
<style type="text/css">
	.st0{fill:url(#SVGID_1_);}
	.st1{fill:#632AB4;}
</style>
<g>
	<linearGradient id="SVGID_1_" gradientUnits="userSpaceOnUse" x1="0" y1="12.5" x2="25" y2="12.5">
		<stop  offset="8.872768e-02" style="stop-color:#DAC0FE"/>
		<stop  offset="0.3296" style="stop-color:#E1CCFE"/>
		<stop  offset="0.7611" style="stop-color:#F3EBFF"/>
		<stop  offset="1" style="stop-color:#FFFFFF"/>
	</linearGradient>
	<path class="st0" d="M12.5,25L12.5,25C5.6,25,0,19.4,0,12.5v0C0,5.6,5.6,0,12.5,0h0C19.4,0,25,5.6,25,12.5v0
		C25,19.4,19.4,25,12.5,25z"/>
	<g id="Outline_37_">
		<path class="st1" d="M29.7,18.6v-6.1c0-0.3-0.2-0.6-0.5-0.8L25.7,10c-0.2-0.1-0.5-0.1-0.8,0l-3.5,1.8c-0.3,0.1-0.5,0.5-0.5,0.8
			v6.1h-1.8V7.7c0-1.7-1.4-3.1-3.1-3.1S13.1,6,13.1,7.7v10.9h-2.6v1.8h21v-1.8H29.7z M17.4,13.4h-2.6v-2.6h2.6V13.4z M16.1,6.4
			c0.7,0,1.3,0.6,1.3,1.3V9h-2.6V7.7C14.8,7,15.4,6.4,16.1,6.4z M14.8,18.6v-3.5h2.6v3.5H14.8z M27.1,18.6V16h-3.5v2.6h-0.9V13
			l2.6-1.3l2.6,1.3v5.6H27.1z"/>
	</g>
</g>
</svg>
