<?xml version="1.0" encoding="UTF-8"?>
<svg width="1440px" height="456px" viewBox="0 0 1440 456" version="1.1" xmlns="http://www.w3.org/2000/svg" xmlns:xlink="http://www.w3.org/1999/xlink">
    <!-- Generator: Sketch 52.4 (67378) - http://www.bohemiancoding.com/sketch -->
    <title>chargebee-icon-black</title>
    <desc>Created with Sketch.</desc>
    <defs>
        <polygon id="path-1" points="0.0763553957 0.971680576 145.969942 0.971680576 145.969942 146.865479 0.0763553957 146.865479"></polygon>
        <polygon id="path-3" points="0 0.302270642 229.152693 0.302270642 229.152693 114.879197 0 114.879197"></polygon>
    </defs>
    <g id="Page-4" stroke="none" stroke-width="1" fill="none" fill-rule="evenodd">
        <g id="Billing-and-Invoicing" transform="translate(0.000000, -164.000000)">
            <g id="chargebee-icon-black" transform="translate(0.000000, -1.000000)">
                <g id="Group-171" transform="translate(-52.000000, 165.000000)">
                    <path d="M1334.33856,421 C1332.57023,421 1330.90748,420.291446 1329.65752,419.001682 L1324.35572,413.535695 C1322.59796,411.723495 1319.73908,411.725672 1317.98132,413.535695 L1312.67847,419.001682 C1310.09936,421.660664 1305.90078,421.660664 1303.31851,419.001682 L1298.02199,413.53896 C1296.26317,411.728937 1293.4043,411.72676 1291.64759,413.53896 L1286.34896,419.001682 C1283.76985,421.663929 1279.56811,421.662841 1276.989,419.001682 L1271.68615,413.535695 C1269.92944,411.724583 1267.06951,411.724583 1265.3128,413.535695 L1260.00995,419.001682 C1257.42978,421.660664 1253.23226,421.662841 1250.65104,419.001682 L1245.35241,413.53896 C1243.5957,411.728937 1240.73472,411.72676 1238.97801,413.53896 L1233.67938,419.001682 C1232.43047,420.291446 1230.76878,421 1229.00046,421 C1227.23214,421 1225.57044,420.291446 1224.32048,419.001682 L1219.01762,413.535695 C1217.26092,411.724583 1214.40099,411.724583 1212.64428,413.535695 L1207.34143,419.001682 C1204.7602,421.660664 1200.56057,421.660664 1197.98146,419.001682 L1192.68283,413.53896 C1190.92507,411.72676 1188.0662,411.728937 1186.30843,413.53896 L1181.01086,419.001682 C1178.43069,421.662841 1174.23106,421.662841 1171.6509,419.001682 L1169,416.2676 L1170.49278,414.728591 L1173.14473,417.462673 C1174.90144,419.273784 1177.76137,419.273784 1179.51808,417.462673 L1184.81565,411.999951 C1187.39687,409.340969 1191.59651,409.338792 1194.17561,411.999951 L1199.47424,417.462673 C1201.23095,419.273784 1204.08983,419.272696 1205.84865,417.462673 L1211.15044,411.996685 C1213.73061,409.334438 1217.93024,409.334438 1220.5104,411.996685 L1225.81326,417.462673 C1226.66522,418.341018 1227.79589,418.823183 1229.00046,418.823183 C1230.20397,418.823183 1231.3357,418.341018 1232.1866,417.462673 L1237.48523,411.999951 C1240.0654,409.337703 1244.26714,409.33988 1246.84519,411.999951 L1252.14382,417.462673 C1253.90053,419.273784 1256.76046,419.273784 1258.51717,417.462673 L1263.82002,411.996685 C1266.39913,409.336615 1270.59982,409.334438 1273.17892,411.996685 L1278.48178,417.462673 C1280.23743,419.272696 1283.09841,419.273784 1284.85618,417.462673 L1290.15375,411.999951 C1292.73392,409.340969 1296.93249,409.340969 1299.51477,411.999951 L1304.81129,417.462673 C1306.568,419.272696 1309.42687,419.273784 1311.18569,417.462673 L1316.48854,411.996685 C1319.06976,409.336615 1323.26939,409.336615 1325.8485,411.996685 L1331.1503,417.462673 C1332.00226,418.341018 1333.13399,418.823183 1334.33856,418.823183 C1335.54207,418.823183 1336.67379,418.341018 1337.52576,417.462673 L1342.82333,411.999951 C1344.0733,410.711275 1345.73499,410.001633 1347.50331,410.001633 C1349.27163,410.001633 1350.93333,410.711275 1352.18224,411.999951 L1357.48086,417.462673 C1359.23652,419.272696 1362.0975,419.273784 1363.85527,417.462673 L1366.50722,414.728591 L1368,416.2676 L1365.34805,419.001682 C1362.76894,421.663929 1358.56719,421.662841 1355.98808,419.001682 L1350.68946,413.53896 C1349.83855,412.661703 1348.70682,412.17845 1347.50331,412.17845 C1346.29874,412.17845 1345.16807,412.661703 1344.31611,413.53896 L1339.01854,419.001682 C1337.76857,420.291446 1336.10582,421 1334.33856,421" id="Fill-1" fill="#E2CBA0"></path>
                    <path d="M1360.66912,405 C1358.89974,405 1357.23805,404.290428 1355.98808,403.000791 L1350.69051,397.539698 C1349.83855,396.66144 1348.70788,396.179322 1347.50331,396.179322 C1346.2998,396.179322 1345.16807,396.66144 1344.31717,397.539698 L1339.01854,403.000791 C1337.76963,404.290428 1336.10688,405 1334.33961,405 C1332.57023,405 1330.90854,404.290428 1329.65857,403.000791 L1324.35678,397.535345 C1322.59796,395.723324 1319.73908,395.725501 1317.98132,397.535345 L1312.67952,403.000791 C1311.42956,404.290428 1309.76786,405 1307.99954,405 C1306.23228,405 1304.56953,404.290428 1303.31956,403.000791 L1298.02199,397.539698 C1296.26317,395.728766 1293.4043,395.726589 1291.64759,397.539698 L1286.35001,403.000791 C1285.10005,404.290428 1283.43835,405 1281.67003,405 C1279.90066,405 1278.23896,404.290428 1276.989,403.000791 L1271.6872,397.535345 C1269.93049,395.724413 1267.07056,395.724413 1265.31385,397.535345 L1260.00995,403.000791 C1258.76104,404.290428 1257.09934,405 1255.33102,405 C1253.5627,405 1251.90101,404.290428 1250.65104,403.000791 L1245.35347,397.539698 C1243.5957,395.728766 1240.73577,395.726589 1238.97801,397.539698 L1233.68044,403.000791 C1232.43047,404.290428 1230.76878,405 1229.00046,405 C1227.23214,405 1225.57044,404.290428 1224.32153,403.000791 L1219.01762,397.535345 C1217.26092,395.724413 1214.40099,395.724413 1212.64428,397.535345 L1207.34248,403.000791 C1206.09146,404.290428 1204.42977,405 1202.66144,405 C1200.89312,405 1199.23143,404.290428 1197.98146,403.000791 L1192.68389,397.539698 C1190.92613,395.726589 1188.06725,395.728766 1186.30949,397.539698 L1181.01086,403.000791 C1179.76195,404.290428 1178.0992,405 1176.33193,405 C1174.56361,405 1172.90192,404.290428 1171.65195,403.000791 L1169,400.268068 L1170.49278,398.729211 L1173.14473,401.461934 C1173.99669,402.340193 1175.12736,402.823398 1176.33193,402.823398 C1177.53545,402.823398 1178.66717,402.340193 1179.51808,401.461934 L1184.81671,395.999753 C1187.39793,393.341034 1191.59756,393.341034 1194.17667,395.999753 L1199.4753,401.461934 C1200.32621,402.340193 1201.45793,402.823398 1202.66144,402.823398 C1203.86601,402.823398 1204.99774,402.340193 1205.8497,401.461934 L1211.1515,395.996488 C1213.73061,393.334504 1217.93129,393.334504 1220.5104,395.996488 L1225.81431,401.461934 C1226.66522,402.340193 1227.798,402.823398 1229.00046,402.823398 C1230.20397,402.823398 1231.3357,402.340193 1232.18766,401.461934 L1237.48523,395.999753 C1240.06645,393.338857 1244.26714,393.339946 1246.84625,395.999753 L1252.14382,401.461934 C1252.99578,402.340193 1254.12751,402.823398 1255.33102,402.823398 C1256.53348,402.823398 1257.66626,402.340193 1258.51717,401.461934 L1263.82108,395.996488 C1266.40018,393.336681 1270.60087,393.334504 1273.17998,395.996488 L1278.48178,401.461934 C1279.33374,402.340193 1280.46546,402.823398 1281.67003,402.823398 C1282.87355,402.823398 1284.00527,402.340193 1284.85618,401.461934 L1290.15481,395.999753 C1292.73392,393.341034 1296.93355,393.341034 1299.51477,395.999753 L1304.81234,401.461934 C1305.66325,402.340193 1306.79603,402.823398 1307.99954,402.823398 C1309.20306,402.823398 1310.33478,402.340193 1311.18674,401.461934 L1316.48854,395.996488 C1319.07082,393.336681 1323.26939,393.336681 1325.84956,395.996488 L1331.15135,401.461934 C1332.00332,402.340193 1333.13504,402.823398 1334.33961,402.823398 C1335.54207,402.823398 1336.67379,402.340193 1337.52576,401.461934 L1342.82439,395.999753 C1344.0733,394.711205 1345.73499,394.002721 1347.50331,394.002721 C1349.27163,394.002721 1350.93333,394.711205 1352.18329,395.999753 L1357.48086,401.461934 C1358.33283,402.340193 1359.46455,402.823398 1360.66912,402.823398 C1361.87264,402.823398 1363.00436,402.340193 1363.85632,401.461934 L1366.50722,398.729211 L1368,400.268068 L1365.3491,403.000791 C1364.09914,404.290428 1362.43744,405 1360.66912,405" id="Fill-3" fill="#E2CBA0"></path>
                    <path d="M1334.33856,389 C1332.57023,389 1330.90748,388.291621 1329.65752,387.002176 L1324.35572,381.537541 C1323.50376,380.659412 1322.37204,380.176279 1321.16852,380.176279 C1319.96501,380.176279 1318.83223,380.659412 1317.98132,381.537541 L1312.67847,387.002176 C1310.09936,389.660501 1305.90078,389.660501 1303.31851,387.002176 L1298.02199,381.541893 C1296.26317,379.730141 1293.4043,379.729053 1291.64759,381.541893 L1286.34896,387.002176 C1283.76985,389.663765 1279.56811,389.662677 1276.989,387.002176 L1271.68615,381.537541 C1270.83524,380.659412 1269.70246,380.176279 1268.5,380.176279 C1267.29649,380.176279 1266.16476,380.659412 1265.3128,381.537541 L1260.00995,387.002176 C1257.42978,389.660501 1253.23226,389.662677 1250.65104,387.002176 L1245.35241,381.541893 C1243.5957,379.730141 1240.73472,379.729053 1238.97801,381.541893 L1233.67938,387.002176 C1232.43047,388.291621 1230.76878,389 1229.00046,389 C1227.23214,389 1225.57044,388.291621 1224.32048,387.002176 L1219.01762,381.537541 C1218.16566,380.659412 1217.03394,380.176279 1215.83042,380.176279 C1214.62691,380.176279 1213.49518,380.659412 1212.64428,381.537541 L1207.34143,387.002176 C1204.7602,389.660501 1200.56057,389.660501 1197.98146,387.002176 L1192.68283,381.541893 C1190.92507,379.729053 1188.0662,379.730141 1186.30843,381.541893 L1181.01086,387.002176 C1178.43069,389.662677 1174.23106,389.662677 1171.6509,387.002176 L1169,384.26877 L1170.49278,382.730141 L1173.14473,385.463547 C1174.90144,387.274211 1177.76137,387.274211 1179.51808,385.463547 L1184.81565,380.002176 C1187.39687,377.343852 1191.59651,377.341676 1194.17561,380.002176 L1199.47424,385.463547 C1201.23095,387.274211 1204.08983,387.272035 1205.84865,385.463547 L1211.15044,379.998912 C1212.40041,378.709467 1214.0621,378 1215.83042,378 C1217.59874,378 1219.26044,378.709467 1220.5104,379.998912 L1225.81326,385.463547 C1226.66522,386.341676 1227.79589,386.823721 1229.00046,386.823721 C1230.20397,386.823721 1231.3357,386.341676 1232.1866,385.463547 L1237.48523,380.002176 C1240.0654,377.341676 1244.26714,377.343852 1246.84519,380.002176 L1252.14382,385.463547 C1253.90053,387.274211 1256.76046,387.274211 1258.51717,385.463547 L1263.82002,379.998912 C1265.06998,378.709467 1266.73168,378 1268.5,378 C1270.26832,378 1271.93002,378.709467 1273.17892,379.998912 L1278.48178,385.463547 C1280.23743,387.272035 1283.09841,387.274211 1284.85618,385.463547 L1290.15375,380.002176 C1292.73392,377.343852 1296.93249,377.343852 1299.51477,380.002176 L1304.81129,385.463547 C1306.568,387.272035 1309.42687,387.274211 1311.18569,385.463547 L1316.48854,379.998912 C1317.73851,378.709467 1319.40126,378 1321.16852,378 C1322.93684,378 1324.59854,378.709467 1325.8485,379.998912 L1331.1503,385.463547 C1332.00226,386.341676 1333.13399,386.823721 1334.33856,386.823721 C1335.54207,386.823721 1336.67379,386.341676 1337.52576,385.463547 L1342.82333,380.002176 C1344.0733,378.713819 1345.73499,378.005441 1347.50331,378.005441 C1349.27163,378.005441 1350.93333,378.713819 1352.18224,380.002176 L1357.48086,385.463547 C1359.23652,387.272035 1362.0975,387.274211 1363.85527,385.463547 L1366.50722,382.730141 L1368,384.26877 L1365.34805,387.002176 C1362.76894,389.663765 1358.56719,389.662677 1355.98808,387.002176 L1350.68946,381.541893 C1349.83855,380.663765 1348.70682,380.181719 1347.50331,380.181719 C1346.29874,380.181719 1345.16807,380.663765 1344.31611,381.541893 L1339.01854,387.002176 C1337.76857,388.291621 1336.10582,389 1334.33856,389" id="Fill-5" fill="#E2CBA0"></path>
                    <path d="M1360.66912,373 C1358.9008,373 1357.23805,372.291446 1355.98808,371.001682 L1350.69051,365.540048 C1349.83855,364.661703 1348.70788,364.179538 1347.50331,364.179538 C1346.2998,364.179538 1345.16807,364.661703 1344.31717,365.540048 L1339.01854,371.001682 C1336.43943,373.662841 1332.23768,373.662841 1329.65857,371.001682 L1324.35678,365.535695 C1322.59796,363.723495 1319.73908,363.724583 1317.98132,365.535695 L1312.67952,371.001682 C1310.10041,373.660664 1305.90078,373.660664 1303.31956,371.001682 L1298.02199,365.540048 C1296.26317,363.727848 1293.4043,363.72676 1291.64759,365.540048 L1286.35001,371.001682 C1283.76985,373.663929 1279.56916,373.662841 1276.989,371.001682 L1271.6872,365.535695 C1269.93049,363.724583 1267.07056,363.724583 1265.31385,365.535695 L1260.00995,371.001682 C1257.43084,373.660664 1253.23226,373.662841 1250.65104,371.001682 L1245.35347,365.540048 C1243.5957,363.727848 1240.73577,363.72676 1238.97801,365.540048 L1233.68044,371.001682 C1231.10133,373.662841 1226.90064,373.662841 1224.32153,371.001682 L1219.01762,365.535695 C1217.26092,363.724583 1214.40099,363.724583 1212.64428,365.535695 L1207.34248,371.001682 C1204.7602,373.660664 1200.56163,373.660664 1197.98146,371.001682 L1192.68389,365.540048 C1190.92613,363.72676 1188.06725,363.727848 1186.30949,365.540048 L1181.01086,371.001682 C1179.76195,372.291446 1178.0992,373 1176.33193,373 C1174.56361,373 1172.90192,372.291446 1171.65195,371.001682 L1169,368.268688 L1170.49278,366.729679 L1173.14473,369.462673 C1173.99669,370.341018 1175.12736,370.823183 1176.33193,370.823183 C1177.53545,370.823183 1178.66717,370.341018 1179.51808,369.462673 L1184.81671,363.999951 C1187.39793,361.340969 1191.59756,361.340969 1194.17667,363.999951 L1199.4753,369.462673 C1201.23201,371.273784 1204.09088,371.272696 1205.8497,369.462673 L1211.1515,363.996685 C1213.73061,361.334438 1217.93129,361.334438 1220.5104,363.996685 L1225.81431,369.462673 C1227.57102,371.273784 1230.43095,371.273784 1232.18766,369.462673 L1237.48523,363.999951 C1240.06645,361.337703 1244.26714,361.33988 1246.84625,363.999951 L1252.14382,369.462673 C1253.90053,371.273784 1256.76046,371.273784 1258.51717,369.462673 L1263.82108,363.996685 C1266.40018,361.336615 1270.60087,361.334438 1273.17998,363.996685 L1278.48178,369.462673 C1280.23743,371.272696 1283.09841,371.273784 1284.85618,369.462673 L1290.15481,363.999951 C1292.73392,361.340969 1296.93355,361.340969 1299.51477,363.999951 L1304.81234,369.462673 C1306.56905,371.272696 1309.42792,371.273784 1311.18674,369.462673 L1316.48854,363.996685 C1319.07082,361.336615 1323.26939,361.336615 1325.84956,363.996685 L1331.15135,369.462673 C1332.90595,371.272696 1335.76694,371.273784 1337.52576,369.462673 L1342.82439,363.999951 C1344.0733,362.711275 1345.73499,362.002721 1347.50331,362.002721 C1349.27163,362.002721 1350.93333,362.711275 1352.18329,363.999951 L1357.48086,369.462673 C1358.33283,370.341018 1359.46455,370.823183 1360.66912,370.823183 C1361.87264,370.823183 1363.00436,370.341018 1363.85632,369.462673 L1366.50722,366.729679 L1368,368.268688 L1365.3491,371.001682 C1364.09914,372.291446 1362.43639,373 1360.66912,373" id="Fill-7" fill="#E2CBA0"></path>
                    <g id="Group-11" transform="translate(1397.000000, 74.000000)">
                        <mask id="mask-2" fill="white">
                            <use xlink:href="#path-1"></use>
                        </mask>
                        <g id="Clip-10"></g>
                        <path d="M145.970154,73.9185799 C145.970154,114.206098 113.310773,146.865479 73.0232547,146.865479 C32.7367942,146.865479 0.0763553957,114.206098 0.0763553957,73.9185799 C0.0763553957,33.6310619 32.7367942,0.971680576 73.0232547,0.971680576 C113.310773,0.971680576 145.970154,33.6310619 145.970154,73.9185799" id="Fill-9" fill="#FFEECC" mask="url(#mask-2)"></path>
                    </g>
                    <path d="M101.058527,33.9416532 C110.42339,43.3062767 125.574374,43.3513241 135,34.0841287 L100.916048,0 C91.6486158,9.42538516 91.6936643,24.5770297 101.058527,33.9416532" id="Fill-12" fill="#FFEECC"></path>
                    <polygon id="Fill-14" fill="#FFEECC" points="1219 109 1249 139 1219 139"></polygon>
                    <g id="Group-18" transform="translate(0.000000, 350.000000)">
                        <mask id="mask-4" fill="white">
                            <use xlink:href="#path-3"></use>
                        </mask>
                        <g id="Clip-17"></g>
                        <polygon id="Fill-16" fill="#E2CBA0" mask="url(#mask-4)" points="-0.000105504587 114.879197 114.576821 0.302270642 229.152693 114.879197"></polygon>
                    </g>
                    <path d="M66,118.5 C66,119.880342 64.8803419,121 63.5,121 C62.1196581,121 61,119.880342 61,118.5 C61,117.119658 62.1196581,116 63.5,116 C64.8803419,116 66,117.119658 66,118.5" id="Fill-21" fill="#E2CBA0"></path>
                    <path d="M88,118.5 C88,119.880342 86.8803419,121 85.5,121 C84.1196581,121 83,119.880342 83,118.5 C83,117.119658 84.1196581,116 85.5,116 C86.8803419,116 88,117.119658 88,118.5" id="Fill-23" fill="#E2CBA0"></path>
                    <path d="M109,118.5 C109,119.880342 107.880342,121 106.5,121 C105.119658,121 104,119.880342 104,118.5 C104,117.119658 105.119658,116 106.5,116 C107.880342,116 109,117.119658 109,118.5" id="Fill-25" fill="#E2CBA0"></path>
                    <path d="M66,138.5 C66,139.880342 64.8803419,141 63.5,141 C62.1196581,141 61,139.880342 61,138.5 C61,137.119658 62.1196581,136 63.5,136 C64.8803419,136 66,137.119658 66,138.5" id="Fill-29" fill="#E2CBA0"></path>
                    <path d="M88,138.5 C88,139.880342 86.8803419,141 85.5,141 C84.1196581,141 83,139.880342 83,138.5 C83,137.119658 84.1196581,136 85.5,136 C86.8803419,136 88,137.119658 88,138.5" id="Fill-31" fill="#E2CBA0"></path>
                    <path d="M109,138.5 C109,139.880342 107.880342,141 106.5,141 C105.119658,141 104,139.880342 104,138.5 C104,137.119658 105.119658,136 106.5,136 C107.880342,136 109,137.119658 109,138.5" id="Fill-33" fill="#E2CBA0"></path>
                    <path d="M66,158.5 C66,159.880342 64.8803419,161 63.5,161 C62.1196581,161 61,159.880342 61,158.5 C61,157.119658 62.1196581,156 63.5,156 C64.8803419,156 66,157.119658 66,158.5" id="Fill-37" fill="#E2CBA0"></path>
                    <path d="M88,158.5 C88,159.880342 86.8803419,161 85.5,161 C84.1196581,161 83,159.880342 83,158.5 C83,157.119658 84.1196581,156 85.5,156 C86.8803419,156 88,157.119658 88,158.5" id="Fill-39" fill="#E2CBA0"></path>
                    <path d="M109,158.5 C109,159.880342 107.880342,161 106.5,161 C105.119658,161 104,159.880342 104,158.5 C104,157.119658 105.119658,156 106.5,156 C107.880342,156 109,157.119658 109,158.5" id="Fill-41" fill="#E2CBA0"></path>
                    <path d="M66,178.500534 C66,179.881171 64.8803419,181 63.5,181 C62.1196581,181 61,179.881171 61,178.500534 C61,177.119897 62.1196581,176 63.5,176 C64.8803419,176 66,177.119897 66,178.500534" id="Fill-45" fill="#E2CBA0"></path>
                    <path d="M88,178.500534 C88,179.881171 86.8803419,181 85.5,181 C84.1196581,181 83,179.881171 83,178.500534 C83,177.119897 84.1196581,176 85.5,176 C86.8803419,176 88,177.119897 88,178.500534" id="Fill-47" fill="#E2CBA0"></path>
                    <path d="M109,178.500534 C109,179.881171 107.880342,181 106.5,181 C105.119658,181 104,179.881171 104,178.500534 C104,177.119897 105.119658,176 106.5,176 C107.880342,176 109,177.119897 109,178.500534" id="Fill-49" fill="#E2CBA0"></path>
                    <path d="M66,198.5 C66,199.880342 64.8803419,201 63.5,201 C62.1196581,201 61,199.880342 61,198.5 C61,197.119658 62.1196581,196 63.5,196 C64.8803419,196 66,197.119658 66,198.5" id="Fill-53" fill="#E2CBA0"></path>
                    <path d="M88,198.5 C88,199.880342 86.8803419,201 85.5,201 C84.1196581,201 83,199.880342 83,198.5 C83,197.119658 84.1196581,196 85.5,196 C86.8803419,196 88,197.119658 88,198.5" id="Fill-55" fill="#E2CBA0"></path>
                    <path d="M109,198.5 C109,199.880342 107.880342,201 106.5,201 C105.119658,201 104,199.880342 104,198.5 C104,197.119658 105.119658,196 106.5,196 C107.880342,196 109,197.119658 109,198.5" id="Fill-57" fill="#E2CBA0"></path>
                    <path d="M66,218.5 C66,219.880342 64.8803419,221 63.5,221 C62.1196581,221 61,219.880342 61,218.5 C61,217.119658 62.1196581,216 63.5,216 C64.8803419,216 66,217.119658 66,218.5" id="Fill-61" fill="#E2CBA0"></path>
                    <path d="M88,218.5 C88,219.880342 86.8803419,221 85.5,221 C84.1196581,221 83,219.880342 83,218.5 C83,217.119658 84.1196581,216 85.5,216 C86.8803419,216 88,217.119658 88,218.5" id="Fill-63" fill="#E2CBA0"></path>
                    <path d="M109,218.5 C109,219.880342 107.880342,221 106.5,221 C105.119658,221 104,219.880342 104,218.5 C104,217.119658 105.119658,216 106.5,216 C107.880342,216 109,217.119658 109,218.5" id="Fill-65" fill="#E2CBA0"></path>
                    <path d="M66,238.5 C66,239.880342 64.8803419,241 63.5,241 C62.1196581,241 61,239.880342 61,238.5 C61,237.119658 62.1196581,236 63.5,236 C64.8803419,236 66,237.119658 66,238.5" id="Fill-69" fill="#E2CBA0"></path>
                    <path d="M88,238.5 C88,239.880342 86.8803419,241 85.5,241 C84.1196581,241 83,239.880342 83,238.5 C83,237.119658 84.1196581,236 85.5,236 C86.8803419,236 88,237.119658 88,238.5" id="Fill-71" fill="#E2CBA0"></path>
                    <path d="M109,238.5 C109,239.880342 107.880342,241 106.5,241 C105.119658,241 104,239.880342 104,238.5 C104,237.119658 105.119658,236 106.5,236 C107.880342,236 109,237.119658 109,238.5" id="Fill-73" fill="#E2CBA0"></path>
                    <path d="M66,258.5 C66,259.880342 64.8803419,261 63.5,261 C62.1196581,261 61,259.880342 61,258.5 C61,257.119658 62.1196581,256 63.5,256 C64.8803419,256 66,257.119658 66,258.5" id="Fill-77" fill="#E2CBA0"></path>
                    <path d="M88,258.5 C88,259.880342 86.8803419,261 85.5,261 C84.1196581,261 83,259.880342 83,258.5 C83,257.119658 84.1196581,256 85.5,256 C86.8803419,256 88,257.119658 88,258.5" id="Fill-79" fill="#E2CBA0"></path>
                    <path d="M109,258.5 C109,259.880342 107.880342,261 106.5,261 C105.119658,261 104,259.880342 104,258.5 C104,257.119658 105.119658,256 106.5,256 C107.880342,256 109,257.119658 109,258.5" id="Fill-81" fill="#E2CBA0"></path>
                    <path d="M66,278.5 C66,279.88141 64.8803419,281 63.5,281 C62.1196581,281 61,279.88141 61,278.5 C61,277.119658 62.1196581,276 63.5,276 C64.8803419,276 66,277.119658 66,278.5" id="Fill-85" fill="#E2CBA0"></path>
                    <path d="M88,278.5 C88,279.88141 86.8803419,281 85.5,281 C84.1196581,281 83,279.88141 83,278.5 C83,277.119658 84.1196581,276 85.5,276 C86.8803419,276 88,277.119658 88,278.5" id="Fill-87" fill="#E2CBA0"></path>
                    <path d="M109,278.5 C109,279.88141 107.880342,281 106.5,281 C105.119658,281 104,279.88141 104,278.5 C104,277.119658 105.119658,276 106.5,276 C107.880342,276 109,277.119658 109,278.5" id="Fill-89" fill="#E2CBA0"></path>
                    <path d="M66,298.5 C66,299.880342 64.8803419,301 63.5,301 C62.1196581,301 61,299.880342 61,298.5 C61,297.119658 62.1196581,296 63.5,296 C64.8803419,296 66,297.119658 66,298.5" id="Fill-93" fill="#E2CBA0"></path>
                    <path d="M88,298.5 C88,299.880342 86.8803419,301 85.5,301 C84.1196581,301 83,299.880342 83,298.5 C83,297.119658 84.1196581,296 85.5,296 C86.8803419,296 88,297.119658 88,298.5" id="Fill-95" fill="#E2CBA0"></path>
                    <path d="M109,298.5 C109,299.880342 107.880342,301 106.5,301 C105.119658,301 104,299.880342 104,298.5 C104,297.119658 105.119658,296 106.5,296 C107.880342,296 109,297.119658 109,298.5" id="Fill-97" fill="#E2CBA0"></path>
                    <path d="M66,318.5 C66,319.88141 64.8803419,321 63.5,321 C62.1196581,321 61,319.88141 61,318.5 C61,317.119658 62.1196581,316 63.5,316 C64.8803419,316 66,317.119658 66,318.5" id="Fill-101" fill="#E2CBA0"></path>
                    <path d="M88,318.5 C88,319.88141 86.8803419,321 85.5,321 C84.1196581,321 83,319.88141 83,318.5 C83,317.119658 84.1196581,316 85.5,316 C86.8803419,316 88,317.119658 88,318.5" id="Fill-103" fill="#E2CBA0"></path>
                    <path d="M109,318.5 C109,319.88141 107.880342,321 106.5,321 C105.119658,321 104,319.88141 104,318.5 C104,317.119658 105.119658,316 106.5,316 C107.880342,316 109,317.119658 109,318.5" id="Fill-105" fill="#E2CBA0"></path>
                    <path d="M66,338.499466 C66,339.881171 64.8803419,341 63.5,341 C62.1196581,341 61,339.881171 61,338.499466 C61,337.118829 62.1196581,336 63.5,336 C64.8803419,336 66,337.118829 66,338.499466" id="Fill-109" fill="#E2CBA0"></path>
                    <path d="M88,338.499466 C88,339.881171 86.8803419,341 85.5,341 C84.1196581,341 83,339.881171 83,338.499466 C83,337.118829 84.1196581,336 85.5,336 C86.8803419,336 88,337.118829 88,338.499466" id="Fill-111" fill="#E2CBA0"></path>
                    <path d="M109,338.499466 C109,339.881171 107.880342,341 106.5,341 C105.119658,341 104,339.881171 104,338.499466 C104,337.118829 105.119658,336 106.5,336 C107.880342,336 109,337.118829 109,338.499466" id="Fill-113" fill="#E2CBA0"></path>
                    <path d="M66,358.5 C66,359.880342 64.8803419,361 63.5,361 C62.1196581,361 61,359.880342 61,358.5 C61,357.11859 62.1196581,356 63.5,356 C64.8803419,356 66,357.11859 66,358.5" id="Fill-117" fill="#E2CBA0"></path>
                    <path d="M88,358.5 C88,359.880342 86.8803419,361 85.5,361 C84.1196581,361 83,359.880342 83,358.5 C83,357.11859 84.1196581,356 85.5,356 C86.8803419,356 88,357.11859 88,358.5" id="Fill-119" fill="#E2CBA0"></path>
                    <path d="M109,358.5 C109,359.880342 107.880342,361 106.5,361 C105.119658,361 104,359.880342 104,358.5 C104,357.11859 105.119658,356 106.5,356 C107.880342,356 109,357.11859 109,358.5" id="Fill-121" fill="#E2CBA0"></path>
                    <path d="M66,378.5 C66,379.880342 64.8803419,381 63.5,381 C62.1196581,381 61,379.880342 61,378.5 C61,377.11859 62.1196581,376 63.5,376 C64.8803419,376 66,377.11859 66,378.5" id="Fill-125" fill="#E2CBA0"></path>
                    <path d="M88,378.5 C88,379.880342 86.8803419,381 85.5,381 C84.1196581,381 83,379.880342 83,378.5 C83,377.11859 84.1196581,376 85.5,376 C86.8803419,376 88,377.11859 88,378.5" id="Fill-127" fill="#E2CBA0"></path>
                    <path d="M109,378.5 C109,379.880342 107.880342,381 106.5,381 C105.119658,381 104,379.880342 104,378.5 C104,377.11859 105.119658,376 106.5,376 C107.880342,376 109,377.11859 109,378.5" id="Fill-129" fill="#E2CBA0"></path>
                    <path d="M66,398.5 C66,399.880342 64.8803419,401 63.5,401 C62.1196581,401 61,399.880342 61,398.5 C61,397.119658 62.1196581,396 63.5,396 C64.8803419,396 66,397.119658 66,398.5" id="Fill-133" fill="#E2CBA0"></path>
                    <path d="M88,398.5 C88,399.880342 86.8803419,401 85.5,401 C84.1196581,401 83,399.880342 83,398.5 C83,397.119658 84.1196581,396 85.5,396 C86.8803419,396 88,397.119658 88,398.5" id="Fill-135" fill="#E2CBA0"></path>
                    <path d="M109,398.5 C109,399.880342 107.880342,401 106.5,401 C105.119658,401 104,399.880342 104,398.5 C104,397.119658 105.119658,396 106.5,396 C107.880342,396 109,397.119658 109,398.5" id="Fill-137" fill="#E2CBA0"></path>
                    <path d="M66,418.5 C66,419.880342 64.8803419,421 63.5,421 C62.1196581,421 61,419.880342 61,418.5 C61,417.119658 62.1196581,416 63.5,416 C64.8803419,416 66,417.119658 66,418.5" id="Fill-141" fill="#E2CBA0"></path>
                    <path d="M88,418.5 C88,419.880342 86.8803419,421 85.5,421 C84.1196581,421 83,419.880342 83,418.5 C83,417.119658 84.1196581,416 85.5,416 C86.8803419,416 88,417.119658 88,418.5" id="Fill-143" fill="#E2CBA0"></path>
                    <path d="M109,418.5 C109,419.880342 107.880342,421 106.5,421 C105.119658,421 104,419.880342 104,418.5 C104,417.119658 105.119658,416 106.5,416 C107.880342,416 109,417.119658 109,418.5" id="Fill-145" fill="#E2CBA0"></path>
                    <path d="M66,438.5 C66,439.880342 64.8803419,441 63.5,441 C62.1196581,441 61,439.880342 61,438.5 C61,437.119658 62.1196581,436 63.5,436 C64.8803419,436 66,437.119658 66,438.5" id="Fill-149" fill="#E2CBA0"></path>
                    <path d="M88,438.5 C88,439.880342 86.8803419,441 85.5,441 C84.1196581,441 83,439.880342 83,438.5 C83,437.119658 84.1196581,436 85.5,436 C86.8803419,436 88,437.119658 88,438.5" id="Fill-151" fill="#E2CBA0"></path>
                    <path d="M109,438.5 C109,439.880342 107.880342,441 106.5,441 C105.119658,441 104,439.880342 104,438.5 C104,437.119658 105.119658,436 106.5,436 C107.880342,436 109,437.119658 109,438.5" id="Fill-153" fill="#E2CBA0"></path>
                    <polygon id="Fill-163" fill="#E2CBA0" points="1513 487 1307 487 1513 281"></polygon>
                    <path d="M115,353.500529 L115,353.499471 C115,294.129532 163.129532,246 222.500529,246 C281.871525,246 330,294.129532 330,353.499471 L330,353.500529 C330,412.870468 281.871525,461 222.500529,461 C163.129532,461 115,412.870468 115,353.500529" id="Fill-165" fill="#FFEECC"></path>
                    <polygon id="Fill-167" fill="#FFFFFF" points="115 350 115 465 230 465"></polygon>
                    <path d="M1410,412.00053 C1410,453.420961 1376.42144,487 1335.00053,487 C1293.57856,487 1260,453.420961 1260,412.00053 C1260,370.579039 1293.57856,337 1335.00053,337 C1376.42144,337 1410,370.579039 1410,412.00053" id="Fill-169" fill="#FFEECC"></path>
                </g>
            </g>
        </g>
    </g>
</svg>