<?xml version="1.0" encoding="UTF-8"?>
<svg width="130px" height="29px" viewBox="0 0 130 29" version="1.1" xmlns="http://www.w3.org/2000/svg" xmlns:xlink="http://www.w3.org/1999/xlink">
    <!-- Generator: Sketch 42 (36781) - http://www.bohemiancoding.com/sketch -->
    <title>Group 2</title>
    <desc>Created with Sketch.</desc>
    <defs></defs>
    <g id="Page-1" stroke="none" stroke-width="1" fill="none" fill-rule="evenodd">
        <g id="Desktop-HD-Copy" transform="translate(-879.000000, -1358.000000)" fill-rule="nonzero" fill="#384B5D">
            <g id="Group-2" transform="translate(879.000000, 1358.000000)">
                <path d="M69.9187313,28.1952507 C62.1324517,28.1952507 55.821106,21.883905 55.821106,14.0976253 C55.821106,6.31134565 62.1324517,0 69.9187313,0 C77.705011,0 84.0163567,6.31134565 84.0163567,14.0976253 C84.0163567,21.883905 77.6707102,28.1952507 69.9187313,28.1952507 Z M69.9187313,6.24274406 C65.5968316,6.24274406 62.0638501,9.77572559 62.0638501,14.0976253 C62.0638501,18.4195251 65.5625308,21.9525066 69.9187313,21.9525066 C74.2406311,21.9525066 77.7736126,18.4195251 77.7736126,14.0976253 C77.7736126,9.77572559 74.2406311,6.24274406 69.9187313,6.24274406 Z" id="Shape"></path>
                <path d="M29.7868052,0.0343007916 L34.0401034,0.0343007916 C34.6232168,0.0343007916 35.0691271,0.480211082 35.0691271,1.06332454 L35.0691271,16.0184697 C35.0691271,19.4485488 35.9609477,21.9182058 39.4253276,21.9182058 C44.5018448,21.9182058 47.0401034,19.0712401 47.0401034,12.2796834 L47.0401034,1.06332454 C47.0401034,0.480211082 47.4860137,0.0343007916 48.0691271,0.0343007916 L52.2881245,0.0343007916 C52.8712379,0.0343007916 53.3171482,0.480211082 53.3171482,1.06332454 L53.3171482,27.1662269 C53.3171482,27.7493404 52.8712379,28.1952507 52.2881245,28.1952507 L48.0691271,28.1952507 C47.4860137,28.1952507 47.0401034,27.7493404 47.0401034,27.1662269 L47.0401034,24.525066 C45.6680717,27.4406332 42.3408949,28.1609499 37.5387841,28.1609499 C31.5018448,28.1609499 28.7234807,25.1081794 28.7234807,17.4591029 L28.7234807,1.06332454 C28.7577815,0.514511873 29.2036918,0.0343007916 29.7868052,0.0343007916 Z" id="Shape"></path>
                <path d="M87.2406311,0.0343007916 L91.4596284,0.0343007916 C92.0427419,0.0343007916 92.4886522,0.480211082 92.4886522,1.06332454 L92.4886522,3.70448549 C92.4886522,3.70448549 93.346172,0.137203166 101.098151,0.0343007916 L101.235354,0.0343007916 C101.852768,0.0343007916 102.36728,0.548812665 102.264378,1.16622691 L101.715565,5.59102902 C101.715565,6.17414248 101.235354,6.62005277 100.686541,6.58575198 L100.069127,6.58575198 C97.0849583,6.58575198 94.4094965,8.57519789 93.0717656,12.7598945 C92.6258554,14.1319261 92.4543514,15.6754617 92.4543514,17.3562005 L92.4543514,27.2005277 C92.4543514,27.7836412 92.0084411,28.2295515 91.4253276,28.2295515 L87.2063303,28.2295515 C86.6232168,28.2295515 86.1773065,27.7836412 86.1773065,27.2005277 L86.1773065,1.06332454 C86.2116073,0.514511873 86.6575176,0.0343007916 87.2406311,0.0343007916 Z" id="Shape"></path>
                <path d="M129.705011,13.6174142 C129.567808,10.1187335 128.264378,7.06596306 125.829022,4.49340369 C121.198415,-0.44591029 113.892346,-1.2348285 108.404219,1.95514512 C103.396304,4.8707124 100.412135,10.701847 101.612663,16.944591 C102.641686,22.2269129 106.68918,26.651715 112.143006,27.9894459 L112.143006,27.9894459 C120.924008,29.3614776 123.530869,24.4907652 123.359365,24.5593668 C123.427966,24.525066 123.393665,27.1662269 123.393665,27.1662269 C123.393665,27.7493404 123.976779,28.1952507 124.559892,28.1952507 L128.641686,28.1952507 C129.2248,28.1952507 129.67071,27.7150396 129.67071,27.1662269 L129.705011,13.6174142 L129.705011,13.6174142 Z M107.718204,14.1662269 C107.752504,9.84432718 111.319787,6.37994723 115.675987,6.37994723 C119.894985,6.41424802 123.393665,9.94722955 123.359365,14.2348285 C123.393665,18.6596306 119.620578,21.9182058 115.435882,21.8496042 C111.182584,21.7810026 107.683903,18.4538259 107.718204,14.1662269 Z" id="Shape"></path>
                <path d="M29.3751957,27.5092348 L29.3751957,27.5092348 L29.3751957,27.5092348 C27.9345625,26.4116095 27.4200506,24.4907652 26.7340348,22.1926121 C26.699734,22.0211082 26.52823,21.9182058 26.3567261,21.9182058 L11.881792,21.9525066 C11.5387841,21.9525066 11.3672802,21.5751979 11.5730849,21.3007916 L26.2538237,4.11609499 C26.3224253,4.0474934 26.3567261,3.94459103 26.3910269,3.84168865 L26.3910269,1.02902375 L26.3910269,0.823218997 C26.3910269,0.754617414 26.3910269,0.686015831 26.3567261,0.65171504 C26.2195229,0.274406332 25.8422142,0.0343007916 24.9503936,0.0343007916 L1.55725377,0.0343007916 C0.836937144,0.0343007916 0.253823688,0.617414248 0.253823688,1.33773087 L0.253823688,5.07651715 C0.253823688,5.79683377 0.836937144,6.37994723 1.55725377,6.37994723 L8.04010337,6.37994723 L8.04010337,6.37994723 L15.1060664,6.37994723 C15.4490743,6.37994723 15.6205783,6.75725594 15.4147736,7.03166227 L2.17466802,22.5356201 C0.974140311,23.9076517 -0.260688185,25.2453826 0.0480189386,26.7203166 C0.116620522,27.1662269 0.322425271,27.5778364 0.596831603,27.9208443 C0.768335561,28.1266491 1.0084411,28.2295515 1.24854664,28.2295515 L29.1350902,28.2295515 C29.4780981,28.1952507 29.6496021,27.7493404 29.3751957,27.5092348 Z" id="Shape"></path>
            </g>
        </g>
    </g>
</svg>