<?xml version="1.0" encoding="UTF-8"?>
<svg width="555px" height="397px" viewBox="0 0 555 397" version="1.1" xmlns="http://www.w3.org/2000/svg" xmlns:xlink="http://www.w3.org/1999/xlink">
    <!-- Generator: Sketch 51.2 (57519) - http://www.bohemiancoding.com/sketch -->
    <title>Group 11</title>
    <desc>Created with Sketch.</desc>
    <defs></defs>
    <g id="Page-1" stroke="none" stroke-width="1" fill="none" fill-rule="evenodd">
        <g id="xero-chargebee" transform="translate(-735.000000, -220.000000)">
            <g id="Group-22" transform="translate(151.000000, 220.000000)">
                <g id="Group-11" transform="translate(584.000000, 0.000000)">
                    <g id="Group-9">
                        <g id="Group-6">
                            <rect id="Rectangle-Copy" fill="#1AB4D7" x="0.593188295" y="0" width="273.620482" height="273.243252" rx="6"></rect>
                            <g id="Xero_software_logo" transform="translate(93.863518, 91.306461)" fill-rule="nonzero">
                                <g id="g10" transform="translate(44.000000, 44.795049) scale(-1, 1) rotate(-180.000000) translate(-44.000000, -44.795049) translate(0.000000, 0.795049)">
                                    <g id="g12" transform="translate(0.000000, 0.000000)">
                                        <g id="g14-Clipped" transform="translate(0.000000, 0.000000)">
                                            <g id="g14" transform="translate(0.058461, 0.282399)">
                                                <path d="M43.2362113,0.123830521 C67.1149536,0.123830521 86.4722755,19.4544653 86.4722755,43.3004338 C86.4722755,67.1461086 67.1149536,86.4768902 43.2362113,86.4768902 C19.357469,86.4768902 0,67.1461086 0,43.3004338 C0,19.4544653 19.357469,0.123830521 43.2362113,0.123830521" id="path20" fill="#1AB4D7"></path>
                                                <path d="M20.696479,43.4251457 L28.0750817,50.8117905 C28.3197015,51.0607736 28.4562061,51.3904007 28.4562061,51.7400053 C28.4562061,52.4685929 27.8631172,53.0602766 27.1335237,53.0602766 C26.778141,53.0602766 26.4449698,52.9211693 26.1937307,52.6671918 C26.1929953,52.6657229 18.8217473,45.3088973 18.8217473,45.3088973 L11.4168145,52.6782088 C11.1666051,52.9245478 10.8350519,53.0602766 10.4834938,53.0602766 C9.75478285,53.0602766 9.16154684,52.4688867 9.16154684,51.7410335 C9.16154684,51.385994 9.30349397,51.0528414 9.55826331,50.8018018 L16.9358364,43.4354282 L9.5620878,36.0580376 C9.30290559,35.8031788 9.16154684,35.4692918 9.16154684,35.1126364 C9.16154684,34.3841956 9.75478285,33.7932464 10.4834938,33.7932464 C10.8356403,33.7932464 11.1674877,33.9297097 11.4168145,34.1788397 L18.8102739,41.5521172 L26.175638,34.205721 C26.4368795,33.9360261 26.7738752,33.792365 27.1335237,33.792365 C27.8623817,33.792365 28.4554706,34.3841956 28.4554706,35.1126364 C28.4554706,35.4641505 28.3191131,35.7943652 28.0709631,36.0433483 L20.696479,43.4251457 Z" id="path22" fill="#FFFFFF"></path>
                                                <path d="M64.5610821,43.4273491 C64.5610821,42.1044337 65.6382622,41.028298 66.964622,41.028298 C68.2878928,41.028298 69.3655142,42.1044337 69.3655142,43.4273491 C69.3655142,44.7505582 68.2878928,45.8265471 66.964622,45.8265471 C65.6382622,45.8265471 64.5610821,44.7505582 64.5610821,43.4273491" id="path24" fill="#FFFFFF"></path>
                                                <path d="M60.004653,43.4261739 C60.004653,47.2571348 63.1254304,50.3741972 66.9621214,50.3741972 C70.7969002,50.3741972 73.9184131,47.2571348 73.9184131,43.4261739 C73.9184131,39.5960944 70.7969002,36.480354 66.9621214,36.480354 C63.1254304,36.480354 60.004653,39.5960944 60.004653,43.4261739 M57.2677948,43.4261739 C57.2677948,38.0889756 61.6166722,33.7466814 66.9621214,33.7466814 C72.3074235,33.7466814 76.6585074,38.0889756 76.6585074,43.4261739 C76.6585074,48.7641067 72.3074235,53.1075761 66.9621214,53.1075761 C61.6166722,53.1075761 57.2677948,48.7641067 57.2677948,43.4261739" id="path26" fill="#FFFFFF"></path>
                                                <path d="M56.5796822,52.942028 L56.1729633,52.9432032 C54.9519238,52.9432032 53.7742775,52.5586381 52.7906501,51.8017002 C52.661059,52.3939715 52.130927,52.8396438 51.4994461,52.8396438 C50.7726474,52.8396438 50.1902965,52.2580957 50.1885314,51.5308301 C50.1885314,51.5281861 50.1929442,35.2257437 50.1929442,35.2257437 C50.1948565,34.4998001 50.7877983,33.9097323 51.5150383,33.9097323 C52.2421311,33.9097323 52.8349259,34.4998001 52.8368381,35.2273595 C52.8368381,35.2305912 52.8374265,45.2529312 52.8374265,45.2529312 C52.8374265,48.5944456 53.1433851,49.9439486 56.0096873,50.3016323 C56.2746062,50.3345362 56.5627662,50.329395 56.563943,50.329395 C57.348256,50.3562763 57.9056007,50.8944911 57.9056007,51.6219036 C57.9056007,52.3497568 57.3105996,52.942028 56.5796822,52.942028" id="path28" fill="#FFFFFF"></path>
                                                <path d="M31.1948294,45.0199594 C31.1948294,45.056095 31.1976243,45.0936995 31.1993894,45.1308634 C31.9669335,48.1608185 34.7148239,50.4029882 37.9874038,50.4029882 C41.2995524,50.4029882 44.0725961,48.1057337 44.8008658,45.0199594 L31.1948294,45.0199594 Z M47.5081578,45.2692363 C46.9384571,47.9628072 45.4617657,50.1753046 43.2131173,51.5961974 C39.9261221,53.6801637 35.5856291,53.5648529 32.4107206,51.3101973 C29.8209578,49.4703666 28.3260266,46.4606827 28.3260266,43.360366 C28.3260266,42.58301 28.4198735,41.7983094 28.6152163,41.0259477 C29.5931069,37.1844106 32.9001072,34.2763764 36.842854,33.7944215 C38.0128513,33.6529639 39.1516644,33.7206814 40.3309288,34.0256306 C41.3442694,34.2718227 42.3248078,34.6822408 43.2282681,35.2604104 C44.1660017,35.8623765 44.9494322,36.6561845 45.7081506,37.6064332 C45.7234485,37.6239135 45.7388935,37.6393372 45.7541915,37.6576988 C46.2807932,38.3099022 46.1831218,39.2373825 45.6044483,39.6801171 C45.1163855,40.0536651 44.2970638,40.2051115 43.6523444,39.3806029 C43.5137804,39.1834729 43.3591831,38.9806142 43.1889937,38.7777554 C42.676366,38.2120717 42.0403252,37.6640152 41.2782236,37.2389078 C40.3084232,36.7215518 39.2032949,36.4258568 38.0284435,36.4192467 C34.1830738,36.4619924 32.1253554,39.1424899 31.3934083,41.0557669 C31.2655824,41.4130099 31.1670284,41.7836201 31.0983348,42.1652472 C31.089362,42.2366371 31.0827427,42.3055297 31.080095,42.3689874 C31.875146,42.3689874 44.8794147,42.3711908 44.8794147,42.3711908 C46.7712095,42.4108518 47.7894043,43.7443435 47.5081578,45.2692363 Z" id="path30" fill="#FFFFFF"></path>
                                            </g>
                                        </g>
                                    </g>
                                </g>
                            </g>
                        </g>
                        <g id="Group-7" transform="translate(280.883732, 123.745835)" fill="#6200EA">
                            <rect id="Rectangle" x="0" y="0" width="273.620482" height="273.243252" rx="6"></rect>
                        </g>
                    </g>
                    <g id="Group-8" transform="translate(242.000000, 162.000000)">
                        <rect id="Rectangle-2" fill="#FFFFFF" x="0" y="0" width="69" height="69" rx="1"></rect>
                        <g id="add" transform="translate(22.000000, 22.000000)" fill="#6200EA" fill-rule="nonzero">
                            <path d="M0,12.7651218 C1.07921725e-16,13.6463695 0.71439246,14.360762 1.59564022,14.360762 L10.9035415,14.360762 C11.0504161,14.360762 11.1694815,14.4798274 11.1694815,14.626702 L11.1694815,23.9346033 C11.1694815,24.8158511 11.883874,25.5302435 12.7651218,25.5302435 C13.6463695,25.5302435 14.360762,24.8158511 14.360762,23.9346033 L14.360762,14.626702 C14.360762,14.4798274 14.4798274,14.360762 14.626702,14.360762 L23.9346033,14.360762 C24.8158511,14.360762 25.5302435,13.6463695 25.5302435,12.7651218 C25.5302435,11.883874 24.8158511,11.1694815 23.9346033,11.1694815 L14.626702,11.1694815 C14.4798274,11.1694815 14.360762,11.0504161 14.360762,10.9035415 L14.360762,1.59564022 C14.360762,0.71439246 13.6463695,5.39608624e-17 12.7651218,0 C11.883874,-5.39608624e-17 11.1694815,0.71439246 11.1694815,1.59564022 L11.1694815,10.9035415 C11.1694815,11.0504161 11.0504161,11.1694815 10.9035415,11.1694815 L1.59564022,11.1694815 C0.71439246,11.1694815 1.07921725e-16,11.883874 0,12.7651218 Z" id="Shape"></path>
                        </g>
                    </g>
                    <g id="Chargebee-logo" transform="translate(391.000000, 230.000000)" fill="#FFFFFF" fill-rule="nonzero">
                        <path d="M49.2470742,41.4478949 C48.7016762,41.0776882 47.9646233,41.0898018 47.4316855,41.4782851 C46.8928345,41.8711249 46.6539785,42.5823171 46.8430993,43.2236969 C47.0325366,43.8658204 47.6221788,44.3310229 48.2874273,44.3616253 C48.9450727,44.3920156 49.5666046,43.9969442 49.8220387,43.3862733 C50.1117915,42.6936764 49.8657551,41.8678309 49.2470742,41.4478949 C48.521848,40.9555967 49.9723006,41.9401933 49.2470742,41.4478949 Z M28.9661247,56.3156558 C29.3274705,56.3168247 29.688711,56.3108742 30.0498457,56.2978042 C30.7704258,56.2716647 31.48995,56.2170473 32.2060951,56.1328902 C32.784333,56.0654158 31.0244872,56.2717709 32.2060951,56.1328902 C32.9231904,56.0492642 33.5252929,56.7305976 33.355285,57.4379642 C33.2776727,57.7612044 33.0469478,58.0355653 32.7429398,58.1659453 C32.5529745,58.2473398 32.34453,58.2567969 32.1416819,58.2783673 C31.9005032,58.3040822 31.6590074,58.3268216 31.4173005,58.3463733 C29.5033919,58.5019364 27.571215,58.46974 25.6626916,58.2588158 C23.9337853,58.067762 22.2216684,57.7224198 20.5561189,57.2176893 C18.9342858,56.7262409 17.3582809,56.0842236 15.8533415,55.3022629 C14.3260159,54.50872 12.8872843,53.5669458 11.5169786,52.5244378 C9.96283179,51.3420929 8.52832408,49.9994031 7.24069901,48.5281398 C5.96046568,47.0655898 4.82510852,45.4740411 3.85891476,43.7848404 C2.87455835,42.063762 2.06485615,40.24195 1.44860395,38.3553198 C0.819363438,36.4289489 0.391704009,34.4374411 0.172911176,32.4217062 C-0.0496830827,30.3709058 -0.0571803744,28.2966222 0.149363496,26.2441216 C0.352633734,24.2227551 0.766565942,22.2222151 1.38366305,20.2877684 C1.98777185,18.3937002 2.7854362,16.56275 3.76018327,14.8322144 C4.72775017,13.1142176 5.86828124,11.4963167 7.15875748,10.0086896 C8.43719565,8.53508845 9.86262226,7.19059222 11.4065262,6.00187178 C12.9660582,4.80114422 14.6468135,3.75948622 16.415001,2.89985022 C18.2127555,2.02586934 20.0994208,1.33996689 22.0374051,0.856594224 C24.0124534,0.364083335 26.0387154,0.0835593354 28.0722631,0.016084891 C30.1099294,-0.0516022201 32.1554094,0.0942915576 34.1625585,0.454616224 C36.1155374,0.805058669 38.032931,1.35813711 39.87324,2.10365089 C41.6904239,2.839814 43.4332688,3.76171778 45.0657668,4.851086 C46.6935134,5.93726622 48.2117578,7.18793578 49.5915674,8.57876089 C50.1708613,9.16265467 50.702215,9.75834311 51.0616604,10.5076822 C51.3740104,11.1590504 51.5573232,11.8711987 51.6006172,12.5931229 C51.6888946,14.0650238 51.1847842,15.5389436 50.2090867,16.6400002 C49.0710897,17.924354 47.3773464,18.6184382 45.6714597,18.4962402 C44.8501421,18.4374791 44.0442413,18.1935082 43.3284129,17.7839856 C42.9586193,17.5724238 42.613535,17.3175082 42.3016075,17.0264647 C41.9480756,16.6965302 41.626011,16.3335491 41.2730069,16.0023396 C39.8520155,14.6695318 38.2171941,13.5701753 36.4483727,12.7618624 C34.6310833,11.9314476 32.6766262,11.4138596 30.689012,11.2325816 C28.6619056,11.0476909 26.6040708,11.2035729 24.6300785,11.7049033 C22.7078277,12.1930576 20.8710032,13.0066833 19.2131621,14.1004082 C17.5860493,15.1736249 16.1349634,16.5131269 14.9304414,18.0503771 C13.7118756,19.6056916 12.7496941,21.3616229 12.0968004,23.2301889 C11.4311299,25.1352018 11.0934371,27.1505118 11.0875238,29.1692218 C11.0815048,31.202702 11.4138121,33.2342693 12.0770541,35.1554338 C12.7176989,37.0111424 13.6646747,38.7565542 14.8637054,40.3065556 C16.0605189,41.853794 17.5040019,43.197334 19.1277358,44.2802202 C20.7855769,45.3857398 22.621979,46.2134982 24.5479254,46.713766 C26.5203339,47.2261473 28.5814421,47.3952056 30.610555,47.218284 C32.5894047,47.0458256 34.5372095,46.5413073 36.3513311,45.7269378 C36.5412963,45.641718 36.7290442,45.5305711 36.9349545,45.4898738 C37.1078133,45.4556584 37.2884863,45.466178 37.4563824,45.5196262 C37.7931247,45.6268418 38.058696,45.9026902 38.1547875,46.244632 C38.2489782,46.5795607 38.1695707,46.9491298 37.9475047,47.2158402 C37.8193122,47.3699158 37.6574352,47.4622549 37.478874,47.545562 C37.2609261,47.647252 37.041183,47.7450104 36.8197504,47.8387309 C34.9755341,48.619204 33.0164308,49.1167089 31.0253321,49.3130758 C28.9997037,49.5129491 26.9453537,49.404246 24.9522487,48.988348 C25.2053597,49.2933116 25.4484394,49.6066696 25.6811708,49.927572 C25.9182314,50.2545313 26.1444159,50.5894598 26.3593016,50.9316142 C26.3896074,50.9798558 26.4759842,51.1178862 26.4759842,51.1178862 C26.4759842,51.1178862 26.5152653,51.1224556 26.5772497,51.1294687 C26.679888,51.1412633 26.7825262,51.1525269 26.8853758,51.1630464 C27.0910748,51.1840858 27.2970904,51.2019373 27.5033174,51.2163884 C28.3427974,51.275256 29.1854453,51.2859882 30.0260869,51.2486913 C31.6842447,51.1750538 33.33311,50.9129124 34.9323459,50.4654556 C36.4823744,50.0315998 37.9829844,49.423904 39.4002802,48.657776 C40.787059,47.9080118 42.0923182,47.0071473 43.2882868,45.9769653 C43.584164,45.7220498 43.8733885,45.4592711 44.1554327,45.188948 C44.4041089,44.9507151 44.6314548,44.6761418 44.9423265,44.5176031 C45.4870908,44.2398418 46.1618426,44.3068913 46.6410326,44.6884678 C47.1219122,45.071638 47.3426055,45.7153556 47.1985741,46.3152944 C47.1245521,46.623552 46.960035,46.8853744 46.7383912,47.1073496 C46.4621547,47.383942 46.1795826,47.6541589 45.8908861,47.9175751 C44.7287078,48.9781471 43.4683263,49.9299098 42.130438,50.7545864 C40.7720644,51.5919082 39.3341777,52.2992749 37.8423319,52.8613853 C36.3099378,53.4387973 34.7208391,53.8637273 33.1057641,54.1286313 C31.4426433,54.4013984 29.7523848,54.5040447 28.0685672,54.4389078 C28.2041512,54.8152776 28.3276975,55.1960038 28.4384666,55.5804491 C28.4874627,55.7507824 28.53403,55.9218596 28.5779575,56.0936807 C28.5915792,56.1465976 28.633078,56.3111929 28.633078,56.3111929 L28.9661247,56.3156558 Z M45.153886,50.9364489 C43.5237109,52.1628913 41.7580574,53.2060367 39.8950453,54.0316698 C38.9616915,54.4453364 38.0045786,54.8045984 37.030254,55.1076493 C36.5401877,55.2600249 36.045792,55.3983742 35.5479118,55.5224849 C35.3323924,55.5761458 35.1081087,55.6102549 34.9160314,55.7286276 C34.7517257,55.8297862 34.6167753,55.9764238 34.5286034,56.148776 C34.3396942,56.5176013 34.3854166,56.9770656 34.6440189,57.3006244 C34.9382064,57.6684933 35.3792766,57.7489316 35.8166509,57.6438413 C36.8037527,57.4065647 37.7787109,57.1178589 38.7358238,56.777936 C40.6580746,56.0952213 42.5063034,55.2051953 44.2414397,54.1288969 C44.6742735,53.8603802 45.100138,53.5804938 45.5185054,53.2896627 C45.7311737,53.1418562 45.9418356,52.9911809 46.1505969,52.8377429 C46.334332,52.7026876 46.5302107,52.5768767 46.6600925,52.3844416 C46.8861713,52.0494067 46.9014826,51.600462 46.6978957,51.2509758 C46.4940972,50.9013833 46.1011784,50.6955596 45.6997062,50.7283936 C45.5025606,50.7445451 45.3122785,50.8173324 45.153886,50.9364489 C42.1732567,53.1789407 45.6210381,50.5850502 45.153886,50.9364489 Z M48.6555313,47.7902873 C48.3798228,48.08505 48.0975674,48.3735436 47.809082,48.6556613 C47.5708598,48.8885813 47.3067667,49.0942989 47.2095137,49.4276336 C47.0323254,50.0345856 47.4379157,50.6817033 48.0612427,50.7781867 C48.4244895,50.834504 48.7459206,50.6928607 49.0058953,50.4451707 C49.2941696,50.1704909 49.5768473,49.8898607 49.8538228,49.6037049 C50.0899332,49.359734 50.3590948,49.1271329 50.4468443,48.7849787 C50.5175928,48.5089176 50.4738767,48.2097982 50.3266771,47.9662524 C49.9697663,47.3757707 49.1257457,47.2872569 48.6555313,47.7902873 C48.2840481,48.1873776 49.0548913,47.3630196 48.6555313,47.7902873 Z M42.0563632,41.6672138 C41.3979785,42.3639547 40.7014741,43.0085222 39.9359105,43.5844464 C39.7257766,43.74256 39.5126859,43.8965293 39.2993841,44.05018 C39.1219847,44.1780098 38.9806986,44.3389922 38.8993904,44.5449224 C38.7341342,44.9636893 38.8545124,45.4541813 39.1952676,45.7469251 C39.5961061,46.0915233 40.138653,46.058158 40.552163,45.7613764 C40.9532126,45.4734142 41.3508831,45.180458 41.7352488,44.8701813 C42.0967004,44.5782878 42.4450582,44.2703489 42.7803223,43.9483838 C42.9752505,43.7612616 43.1659551,43.5697827 43.3538085,43.3755411 C43.5289905,43.1942631 43.7152601,43.0222296 43.8074446,42.7811278 C43.986428,42.3123127 43.8056494,41.7668847 43.383375,41.4993244 C42.9631071,41.2331453 42.3981742,41.3054016 42.0563632,41.6672138 C41.042229,42.7406431 42.458152,41.2419649 42.0563632,41.6672138 Z M29.0702202,22.3145013 C27.6507069,22.3145013 26.2495673,22.762702 25.0930912,23.5915229 C23.9662873,24.399092 23.0936505,25.5475402 22.6197404,26.8556958 C22.1276678,28.2137933 22.0745534,29.7221409 22.46705,31.1126473 C22.8449745,32.4512993 23.6323961,33.6586151 24.6976381,34.5454536 C25.7820984,35.4483369 27.1343475,35.9993964 28.5380214,36.1076744 C29.963976,36.2177589 31.4073535,35.8756047 32.6300376,35.1277533 C33.80626,34.4083793 34.7554531,33.3329311 35.3241877,32.0714231 C35.9167867,30.7565731 36.0818316,29.2619329 35.7979923,27.8470931 C35.5221783,26.4723131 34.8214501,25.1997542 33.8148131,24.2304589 C32.8047974,23.2578693 31.5056625,22.6094764 30.1235298,22.3953644 C29.7751721,22.3413847 29.422696,22.3145013 29.0702202,22.3145013 Z"></path>
                    </g>
                </g>
            </g>
        </g>
    </g>
</svg>