<?xml version="1.0" encoding="utf-8"?>
<!-- Generator: Adobe Illustrator 22.1.0, SVG Export Plug-In . SVG Version: 6.00 Build 0)  -->
<svg version="1.1" id="Layer_1" xmlns="http://www.w3.org/2000/svg" xmlns:xlink="http://www.w3.org/1999/xlink" x="0px" y="0px"
	 viewBox="0 0 160 124" style="enable-background:new 0 0 160 124;" xml:space="preserve">
<style type="text/css">
	.st0{fill:#FEB401;}
	.st1{fill:#FFFFFF;}
	.st2{fill:#2359FF;}
</style>
<g>
	<path class="st0" d="M86.3,93.7V95v8.1l4.3-2.9l4.3,2.9V95v-1.2v-4.4c-3.6,0.8-6.4,1.6-8.6,2.5V93.7z"/>
	<path class="st1" d="M34,23c-0.3,0-0.6,0.3-0.6,0.6v6.7v1.2V85c0,0.2,0.1,0.3,0.2,0.4c0.1,0.1,0.3,0.2,0.5,0.2
		c3-0.1,5.8-0.2,8.5-0.2c21.8,0,32.3,4.4,36.2,6.7c0.1,0.1,0.2,0.1,0.3,0.2v-62v-0.5C77,28.4,65.1,21.4,34,23z M58.7,47
		c1.5,0.3,1.6,2.7-0.2,2.3c-5.5-1-11-1.4-16.5-0.9c-1.3,0.1-2.7-2.2-1.1-2.4C46.9,45.5,52.8,45.9,58.7,47z M58.9,70.7
		c-5.6-1.1-11.2-1.5-16.9-0.9c-1.3,0.1-2.7-2.2-1.1-2.4c6.1-0.6,12.1-0.2,18.2,1C60.5,68.7,60.7,71.1,58.9,70.7z M70.7,63.6
		c-1.6-0.7-3.2-1.3-4.9-1.9c-5.9-1.9-12.1-2.9-18.3-2.9c-1.8,0-3.7,0.1-5.5,0.2c-1.3,0.1-2.7-2.2-1.1-2.4c10.2-1,21.1,0.6,30.6,4.8
		C73,62.2,72.3,64.4,70.7,63.6z M70.7,42.3c-1.6-0.7-3.2-1.3-4.9-1.9c-5.9-1.9-12.1-2.9-18.3-2.9c-1.8,0-3.7,0.1-5.5,0.2
		c-1.3,0.1-2.7-2.2-1.1-2.4c10.2-1,21.1,0.6,30.6,4.8C73,40.9,72.3,43,70.7,42.3z"/>
	<path class="st1" d="M126,23c-31.2-1.5-43,5.4-45,6.8v0.5v62c0.1-0.1,0.2-0.1,0.3-0.2c1.1-0.6,2.8-1.5,5.1-2.3
		c2.2-0.8,5.1-1.6,8.6-2.4c7.2-1.5,17.2-2.4,31-1.8c0.2,0,0.3-0.1,0.5-0.2c0.1-0.1,0.2-0.3,0.2-0.4V31.5v-1.2v-6.7
		C126.5,23.2,126.3,23,126,23z M102.8,70.3c-4.9,0.8-9.9,2.1-14.4,4.1c-1.6,0.7-1.6-1.7-0.3-2.3c4.8-2.1,10-3.4,15.1-4.3
		C104.9,67.5,104.1,70.1,102.8,70.3z M117.3,59.1c-9.7-0.9-20.1,0.6-29,4.6c-1.6,0.7-1.6-1.7-0.3-2.3c9.3-4.2,20.2-5.7,30.3-4.7
		C119.9,56.9,118.7,59.3,117.3,59.1z M117.3,48.5c-9.7-0.9-20.1,0.6-29,4.6c-1.6,0.7-1.6-1.7-0.3-2.3c9.3-4.2,20.2-5.7,30.3-4.7
		C119.9,46.2,118.7,48.6,117.3,48.5z M88.1,40.1c4.4-2,9.2-3.2,13.9-4.1c1.7-0.3,1,2.2-0.4,2.5c-4.5,0.9-9,2-13.2,3.9
		C86.7,43.2,86.8,40.7,88.1,40.1z"/>
	<g>
		<path class="st2" d="M130.9,30.3h-2.6v-6.7c0-1.3-1-2.4-2.3-2.5c-31.2-1.5-43.4,5.2-46.1,7.1c-2.7-1.8-14.9-8.6-46.1-7.1
			c-1.3,0.1-2.3,1.1-2.3,2.5v6.7h-2.6c-1,0-1.8,0.8-1.8,1.8v61c0,1,0.8,1.8,1.8,1.8H80h6.3v-1.2v-2c2.2-0.8,5-1.7,8.6-2.5v4.4V95h36
			c1,0,1.8-0.8,1.8-1.8v-61C132.8,31.1,132,30.3,130.9,30.3z M33.5,30.3v-6.7c0-0.3,0.3-0.6,0.6-0.6c31.1-1.5,43,5.5,45,6.8v0.5v62
			c-0.1-0.1-0.2-0.1-0.3-0.2c-3.9-2.2-14.3-6.7-36.2-6.7c-2.7,0-5.5,0.1-8.5,0.2c-0.1,0-0.3-0.1-0.5-0.2c-0.1-0.1-0.2-0.3-0.2-0.4
			V31.5V30.3z M80.9,92.3v-62v-0.5c2-1.4,13.8-8.4,45-6.8c0.3,0,0.6,0.3,0.6,0.6v6.7v1.2V85c0,0.2-0.1,0.3-0.2,0.4
			c-0.1,0.1-0.3,0.2-0.5,0.2c-13.8-0.7-23.8,0.3-31,1.8c-3.5,0.7-6.4,1.6-8.6,2.4c-2.3,0.9-4,1.7-5.1,2.3
			C81.1,92.1,81,92.2,80.9,92.3z"/>
		<path class="st2" d="M88.3,42.4c4.2-1.9,8.7-3.1,13.2-3.9c1.3-0.3,2.1-2.8,0.4-2.5c-4.7,0.9-9.5,2.1-13.9,4.1
			C86.8,40.7,86.7,43.2,88.3,42.4z"/>
		<path class="st2" d="M88.3,53.1c8.9-4,19.3-5.6,29-4.6c1.3,0.1,2.6-2.3,1-2.4c-10.1-1-20.9,0.5-30.3,4.7
			C86.8,51.4,86.7,53.8,88.3,53.1z"/>
		<path class="st2" d="M88.3,63.8c8.9-4,19.3-5.6,29-4.6c1.3,0.1,2.6-2.3,1-2.4c-10.1-1-20.9,0.5-30.3,4.7
			C86.8,62,86.7,64.5,88.3,63.8z"/>
		<path class="st2" d="M103.2,67.8C98,68.7,92.8,70,88.1,72.1c-1.3,0.6-1.4,3.1,0.3,2.3c4.6-2,9.5-3.3,14.4-4.1
			C104.1,70.1,104.9,67.5,103.2,67.8z"/>
		<path class="st2" d="M42,37.8c1.8-0.2,3.6-0.2,5.5-0.2c6.2,0,12.4,0.9,18.3,2.9c1.7,0.6,3.3,1.2,4.9,1.9c1.6,0.7,2.3-1.4,0.8-2.1
			C62,36,51.1,34.4,40.9,35.4C39.3,35.6,40.7,37.9,42,37.8z"/>
		<path class="st2" d="M42,48.5c5.6-0.6,11.1-0.2,16.5,0.9c1.8,0.3,1.6-2,0.2-2.3c-5.9-1.1-11.8-1.5-17.8-0.9
			C39.3,46.2,40.7,48.6,42,48.5z"/>
		<path class="st2" d="M71.5,61.6c-9.4-4.2-20.3-5.8-30.6-4.8c-1.6,0.2-0.2,2.5,1.1,2.4c1.8-0.2,3.6-0.2,5.5-0.2
			c6.2,0,12.4,0.9,18.3,2.9c1.7,0.6,3.3,1.2,4.9,1.9C72.3,64.4,73,62.2,71.5,61.6z"/>
		<path class="st2" d="M59.1,68.4c-6-1.2-12-1.6-18.2-1c-1.6,0.2-0.2,2.5,1.1,2.4c5.7-0.6,11.3-0.2,16.9,0.9
			C60.7,71.1,60.5,68.7,59.1,68.4z"/>
	</g>
</g>
</svg>
