<?xml version="1.0" encoding="UTF-8"?>
<svg width="48px" height="44px" viewBox="0 0 48 44" version="1.1" xmlns="http://www.w3.org/2000/svg" xmlns:xlink="http://www.w3.org/1999/xlink">
    <title>noun_code_969421</title>
    <g id="Page-1" stroke="none" stroke-width="1" fill="none" fill-rule="evenodd">
        <g id="version-4" transform="translate(-882.000000, -942.000000)">
            <g id="noun_code_969421" transform="translate(882.000000, 942.000000)">
                <g id="Group">
                    <path d="M46,0 L2,0 C0.896,0 0,0.896 0,2 L0,34 C0,35.104 0.896,36 2,36 L22,36 L22,40 L14,40 C12.896,40 12,40.896 12,42 C12,43.104 12.896,44 14,44 L34,44 C35.104,44 36,43.104 36,42 C36,40.896 35.104,40 34,40 L26,40 L26,36 L46,36 C47.104,36 48,35.104 48,34 L48,2 C48,0.896 47.104,0 46,0 Z M44,32 L4,32 L4,4 L41,4 C42.6568542,4 44,5.34314575 44,7 L44,32 L44,32 Z" id="Shape" fill="#00000A" fill-rule="nonzero"></path>
                    <path d="M4,3 L40.2503113,4.85899032 C41.8055789,4.93874764 43.0412166,6.19528019 43.0948851,7.75166649 L44,34 L44,34 L4,34 L4,3 Z" id="Rectangle" fill="#00000A"></path>
                    <g id="earth" transform="translate(14.000000, 8.000000)" fill="#FFFFFF" fill-rule="nonzero">
                        <path d="M15.9,15.39 C15.64,14.59 14.89,14 14,14 L13,14 L13,11 C13,10.4477153 12.5522847,10 12,10 L6,10 L6,8 L8,8 C8.55228475,8 9,7.55228475 9,7 L9,5 L11,5 C12.1045695,5 13,4.1045695 13,3 L13,2.59 C15.93,3.77 18,6.64 18,10 C18,12.08 17.2,13.97 15.9,15.39 M9,17.93 C5.05,17.44 2,14.08 2,10 C2,9.38 2.08,8.78 2.21,8.21 L7,13 L7,14 C7,15.1045695 7.8954305,16 9,16 M10,0 C4.4771525,0 0,4.4771525 0,10 C0,12.6521649 1.0535684,15.195704 2.92893219,17.0710678 C4.80429597,18.9464316 7.3478351,20 10,20 C12.6521649,20 15.195704,18.9464316 17.0710678,17.0710678 C18.9464316,15.195704 20,12.6521649 20,10 C20,7.3478351 18.9464316,4.80429597 17.0710678,2.92893219 C15.195704,1.0535684 12.6521649,0 10,0 Z" id="Shape"></path>
                    </g>
                </g>
            </g>
        </g>
    </g>
</svg>