<?xml version="1.0" encoding="UTF-8"?>
<svg width="900px" height="350px" viewBox="0 0 900 350" version="1.1" xmlns="http://www.w3.org/2000/svg" xmlns:xlink="http://www.w3.org/1999/xlink">
    <title>Group 67</title>
    <defs>
        <path d="M0.84,288.89 L1.4,288.1 C57.03,209.03 117.01,149.27 184.77,105.41 C244.11,67 309.77,40.16 391.3,20.97 C450.39,7.06 512.72,5.68434189e-14 576.5,5.68434189e-14 C681.43,5.68434189e-14 788.08,19.71 884.92,57 L885.1,57.07 L885.18,57.23 C888.05,62.51 887.02,125.16 881.37,288.4 L881.37,288.88 L0.84,288.89 Z" id="path-1"></path>
        <linearGradient x1="77.9177188%" y1="50%" x2="0%" y2="50%" id="linearGradient-3">
            <stop stop-color="#FFFFFF" offset="0%"></stop>
            <stop stop-color="#FFFFFF" stop-opacity="0" offset="100%"></stop>
        </linearGradient>
        <linearGradient x1="77.9177188%" y1="50%" x2="3.59356806%" y2="50%" id="linearGradient-4">
            <stop stop-color="#FFFFFF" offset="0%"></stop>
            <stop stop-color="#FFFFFF" stop-opacity="0" offset="100%"></stop>
        </linearGradient>
    </defs>
    <g id="Page-1" stroke="none" stroke-width="1" fill="none" fill-rule="evenodd">
        <g id="version-4" transform="translate(-360.000000, -494.000000)">
            <g id="Group-67" transform="translate(360.000000, 494.000000)">
                <g id="Globe" transform="translate(0.000000, -0.000000)">
                    <g id="Path-8" transform="translate(1.000000, 28.370000)">
                        <mask id="mask-2" fill="white">
                            <use xlink:href="#path-1"></use>
                        </mask>
                        <use id="Mask" fill="#E7ECF6" fill-rule="nonzero" xlink:href="#path-1"></use>
                        <g id="Group-62" mask="url(#mask-2)">
                            <g transform="translate(411.733183, 26.973464)">
                                <path d="M96.1968167,10.7065358 C78.6768167,4.90653578 74.4468167,13.3065358 65.0468167,10.7065358 C63.0468167,10.1565358 52.5268167,3.49653578 48.0468167,4.95653578 C38.0468167,8.20653578 52.2468167,21.1665358 40.4868167,25.3665358 C10.0768167,36.2065358 25.9568167,24.3665358 11.5468167,44.3665358 C4.99681672,53.4465358 4.46681672,37.4765358 4.78681672,56.9265358 C4.88681672,63.3765358 10.8568167,60.3965358 13.2368167,65.9965358 C17.3168167,75.5665358 8.54681672,78.6965358 19.4768167,80.1765358 C21.6168167,80.4665358 23.8368167,79.0465358 25.9168167,79.6065358 C27.3868167,79.9965358 30.2068167,81.6065358 29.2068167,82.7765358 C20.7768167,92.4465358 9.48681672,99.2865358 0.656816722,108.596536 C-0.193183278,109.496536 3.32681672,109.686536 4.35681672,108.996536 L10.0368167,106.816536 C28.2668167,94.6365358 45.0868167,80.3165358 63.9668167,69.1665358 C66.8768167,67.4465358 70.7568167,68.5165358 74.1068167,68.9865358 C77.6318268,69.5251744 81.064743,70.5516837 84.3068167,72.0365358 C89.0168167,74.1565358 92.9368167,77.8965358 97.8068167,79.6365358 C101.306817,80.8865358 108.726817,77.1165358 108.886817,80.8265358 L111.236817,83.0865358 C111.806817,96.3665358 104.886817,96.2965358 114.786817,102.846536 C120.296817,106.506536 127.206817,108.156536 132.016817,112.696536 C134.346817,114.896536 133.386817,119.056536 134.936817,121.856536 C135.996817,123.756536 138.596817,124.476536 139.626817,126.386536 C140.746817,128.456536 140.126817,131.146536 141.136817,133.276536 C141.646817,134.366536 144.136817,134.356536 143.936817,135.536536 C142.646817,142.436536 128.726817,134.786536 127.496817,133.726536 C126.496817,132.856536 127.356817,130.026536 126.036817,130.026536 C124.716817,130.026536 125.286817,132.536536 125.636817,133.726536 C126.636817,137.096536 127.726817,140.616536 129.956817,143.326536 C133.196817,147.326536 138.026817,149.656536 141.646817,153.266536 C142.89487,154.317319 143.736686,155.771043 144.026817,157.376536 C144.546817,165.046536 143.026817,172.766536 143.496817,180.436536 C143.686472,182.47679 144.527991,184.401766 145.896817,185.926536 C150.776817,191.476536 155.646817,197.296536 161.836817,201.316536 C175.276817,210.036536 190.526817,215.636536 204.296817,223.816536 C208.796817,226.486536 212.636817,230.166536 216.456817,233.746536 C218.286817,235.466536 219.216817,238.056536 221.166817,239.656536 C222.524302,240.654885 224.128712,241.263455 225.806817,241.416536 C228.246817,241.746536 235.896817,262.676536 238.316817,262.256536 C240.256817,261.916536 246.106817,262.526536 252.606817,263.336536 C261.226817,264.396536 270.996817,265.806536 274.426817,265.806536 C318.966817,265.806536 282.916817,265.896536 327.426817,264.466536 C333.876817,264.256536 389.866817,266.216536 396.286817,265.666536 C407.776817,264.666536 425.596817,267.226536 437.086817,266.376536 C442.086817,266.006536 478.846817,272.516536 482.386817,268.956536 C485.696817,265.606536 484.826817,237.956536 484.786817,233.236536 C484.666817,219.956536 483.396817,211.086536 483.626817,197.856536 C484.126817,169.106536 488.356817,158.236536 484.736817,134.256536 C477.596817,86.9765358 484.976817,71.4865358 454.116817,57.0865358 C448.776817,54.5965358 446.036817,49.0865358 440.916817,47.0865358 C436.316817,45.2465358 425.286817,48.5665358 420.386817,43.7265358 C415.176817,38.5765358 412.726817,30.9065358 407.046817,26.2865358 C400.496817,20.9465358 392.346817,17.8665358 384.566817,14.5765358 C379.956817,12.6265358 374.666817,8.65653578 370.076817,10.6365358 C366.976817,11.9865358 368.716817,17.7665358 370.246817,20.7765358 C372.016817,24.2665358 376.606817,25.4665358 379.136817,28.4565358 C381.536817,31.2965358 382.136817,35.5165358 384.836817,38.0465358 C404.396817,56.1465358 368.176817,4.69653578 400.156817,44.2265358 C409.966817,56.3565358 405.246817,59.8965358 401.026817,70.0265358 C400.073089,72.372269 399.639784,74.8970368 399.756817,77.4265358 C400.186817,87.8965358 411.656817,103.426536 402.606817,108.726536 C398.676817,111.016536 388.226817,81.7265358 377.446817,80.3265358 C363.446817,78.5065358 349.246817,80.5365358 335.226817,79.2065358 C332.466817,78.9465358 329.956817,77.2065358 327.726817,75.6165358 C322.056817,71.4565358 318.326817,64.2065358 311.666817,61.9365358 C304.056817,59.3365358 295.566817,62.2965358 287.536817,61.8865358 C286.356817,61.8265358 284.456817,61.7065358 284.256817,60.5465358 C283.020804,53.9467487 282.89912,47.1865297 283.896817,40.5465358 C285.796817,29.3765358 303.296817,30.0565358 298.196817,14.7065358 C292.396817,-2.78346422 265.516817,16.8265358 251.296817,16.3865358 C192.196817,14.5365358 309.296817,12.2565358 217.866817,1.13653578 C197.866817,-1.28346422 177.646817,3.99653578 157.496817,4.03653578 C144.196817,4.03653578 133.886817,-0.873464219 118.856817,4.03653578 L96.1968167,10.7065358 Z" id="Path" fill="#FFFFFF" fill-rule="evenodd"></path>
                                <path d="M476.036817,270.526536 C469.976817,270.526536 460.586817,269.456536 450.116817,268.166536 C444.006817,267.416536 438.726817,266.766536 437.116817,266.886536 C431.446817,267.306536 424.116817,266.886536 417.116817,266.516536 C409.766817,266.106536 402.116817,265.686536 396.346817,266.176536 C392.586817,266.496536 372.346817,265.976536 354.416817,265.516536 C341.416817,265.176536 330.156817,264.886536 327.416817,264.976536 C307.876817,265.606536 303.896817,265.926536 301.756817,266.096536 C299.346817,266.296536 299.346817,266.296536 282.396817,266.306536 L274.396817,266.306536 C271.766817,266.306536 265.536817,265.496536 258.946817,264.646536 L252.536817,263.826536 C246.996817,263.146536 240.386817,262.406536 238.396817,262.746536 C236.916817,263.026536 235.116817,259.606536 231.336817,251.746536 C229.476817,247.896536 226.666817,242.066536 225.726817,241.886536 C223.95576,241.725206 222.26361,241.078106 220.836817,240.016536 C219.80713,239.077848 218.920994,237.992922 218.206817,236.796536 C217.611742,235.813501 216.907253,234.90102 216.106817,234.076536 L215.636817,233.646536 C212.026817,230.256536 208.296817,226.756536 204.026817,224.216536 C197.826817,220.536536 191.206817,217.316536 184.806817,214.216536 C177.006817,210.426536 168.946817,206.516536 161.556817,201.716536 C155.786817,197.966536 151.136817,192.656536 146.646817,187.526536 L145.516817,186.236536 C144.069875,184.630698 143.182213,182.599249 142.986817,180.446536 C142.821042,176.598136 142.911241,172.742972 143.256817,168.906536 C143.603598,165.076817 143.690464,161.228 143.516817,157.386536 C143.416817,155.886536 142.196817,154.506536 141.286817,153.606536 C139.680457,152.073432 137.958728,150.66596 136.136817,149.396536 C133.713143,147.752929 131.502905,145.814772 129.556817,143.626536 C127.346817,140.936536 126.246817,137.626536 125.146817,133.846536 C124.896817,132.996536 124.386817,130.906536 125.076817,129.976536 C125.296974,129.673235 125.652144,129.497519 126.026817,129.506536 L126.026817,129.506536 C127.206817,129.506536 127.316817,130.776536 127.396817,131.706536 C127.446817,132.346536 127.516817,133.066536 127.816817,133.326536 C128.946817,134.326536 137.676817,138.996536 141.636817,137.616536 C142.611104,137.297899 143.31287,136.444084 143.436817,135.426536 C143.436817,135.196536 143.046817,134.986536 142.436817,134.736536 C141.71957,134.537776 141.098163,134.086812 140.686817,133.466536 C140.237688,132.352024 139.987237,131.16746 139.946817,129.966536 C139.930037,128.806936 139.67474,127.663202 139.196817,126.606536 C138.631007,125.74711 137.879113,125.025975 136.996817,124.496536 C136.00066,123.88834 135.153277,123.064875 134.516817,122.086536 C133.878201,120.734559 133.491863,119.277319 133.376817,117.786536 C133.126817,115.926536 132.876817,114.166536 131.686817,113.036536 C128.886817,110.396536 125.266817,108.706536 121.766817,107.036536 C119.259557,105.939264 116.836359,104.659147 114.516817,103.206536 C108.336817,99.1065358 108.406817,97.4465358 109.516817,93.2065358 C110.475891,89.9640612 110.888199,86.5844861 110.736817,83.2065358 L108.386817,80.9365358 L108.386817,80.7365358 C108.415006,80.4131922 108.284512,80.0962799 108.036817,79.8865358 C107.286817,79.2765358 105.306817,79.5865358 103.396817,79.8865358 C101.326817,80.2165358 99.1968167,80.5565358 97.6368167,79.9965358 C94.9579493,78.9222221 92.416689,77.5324179 90.0668167,75.8565358 C88.1611726,74.5438973 86.1549497,73.3836317 84.0668167,72.3865358 C80.8728208,70.9142552 77.4855124,69.9041234 74.0068167,69.3865358 L72.3468167,69.1165358 C69.4568167,68.6465358 66.4768167,68.1165358 64.1968167,69.4965358 C52.9668167,76.1265358 42.2768167,84.0165358 31.9468167,91.6565358 C24.9468167,96.8365358 17.6668167,102.206536 10.2868167,107.126536 L10.1868167,107.186536 L4.54681672,109.346536 C3.54681672,109.956536 0.826816722,110.006536 0.176816722,109.246536 C-0.0901965255,108.917813 -0.0504973857,108.437012 0.266816722,108.156536 C4.47995839,103.878451 8.9588579,99.8704873 13.6768167,96.1565358 C18.9068167,91.8765358 24.3068167,87.4565358 28.7968167,82.3065358 C28.8822131,82.2277372 28.9100671,82.1043837 28.8668167,81.9965358 C28.6468167,81.2865358 26.9468167,80.2665358 25.7668167,79.9965358 C24.6997768,79.8161781 23.6048593,79.8985543 22.5768167,80.2365358 C21.5404707,80.5476241 20.4559066,80.6662483 19.3768167,80.5865358 C16.0568167,80.1365358 14.3768167,79.5265358 13.6568167,78.4865358 C12.9368167,77.4465358 13.1768167,76.3265358 13.4668167,74.8365358 C14.2085122,71.928631 13.9586495,68.8563758 12.7568167,66.1065358 C11.7568167,63.7165358 10.0368167,63.0165358 8.38681672,62.3365358 C6.38681672,61.5165358 4.31681672,60.6565358 4.25681672,56.8465358 C4.10681672,47.6065358 4.16681672,46.6165358 4.86681672,46.1965358 C5.29681672,45.9365358 5.72681672,46.1965358 6.11681672,46.3965358 C7.03681672,46.9165358 8.43681672,47.6965358 11.1168167,43.9765358 C13.5726194,40.6789844 15.7787532,37.2026524 17.7168167,33.5765358 C19.1368167,30.9365358 19.2768167,30.8365358 22.5368167,30.1265358 C28.5701107,28.7896949 34.5015172,27.028652 40.2868167,24.8565358 C46.0068167,22.8565358 45.1768167,18.6965358 44.2868167,14.3365358 C43.4768167,10.3365358 42.6368167,6.12653578 47.8468167,4.43653578 C51.3568167,3.29653578 57.8468167,6.59653578 62.1468167,8.77653578 C63.1171984,9.30713406 64.1190611,9.77800953 65.1468167,10.1865358 C68.8668167,11.1865358 71.7668167,10.4265358 75.1468167,9.52653578 C79.9068167,8.26653578 85.8168167,6.68653578 96.2068167,10.0865358 L118.716817,3.51653578 C128.716817,0.206535781 136.566817,1.25653578 144.816817,2.35653578 C149.009155,3.05631844 153.247213,3.44736949 157.496817,3.52653578 C165.675216,3.35869643 173.839458,2.76790703 181.956817,1.75653578 C193.766817,0.496535781 205.956817,-0.813464219 217.956817,0.636535781 C254.696817,5.09653578 254.766817,7.86653578 254.796817,9.04653578 C254.856817,11.2265358 248.916817,12.4265358 240.536817,13.8865358 C238.536817,14.2465358 236.266817,14.6365358 235.056817,14.9465358 C237.116817,15.2865358 242.576817,15.5965358 251.346817,15.8765358 C256.136817,16.0165358 262.346817,13.8765358 268.986817,11.5565358 C278.076817,8.39653578 287.466817,5.11653578 293.506817,8.09653578 C296.054218,9.43408303 297.935942,11.7645258 298.706817,14.5365358 C301.796817,23.8365358 296.796817,27.5365358 291.956817,31.1265358 C288.626817,33.6065358 285.176817,36.1265358 284.426817,40.6165358 C283.43702,47.1964686 283.55532,53.895652 284.776817,60.4365358 C284.916817,61.2165358 286.716817,61.3165358 287.586817,61.3565358 C290.645111,61.4238718 293.704069,61.2567157 296.736817,60.8565358 C301.736817,60.3265358 307.016817,59.7765358 311.856817,61.4265358 C316.046817,62.8565358 319.116817,66.2165358 322.096817,69.4265358 C323.891158,71.5205153 325.883763,73.4360947 328.046817,75.1465358 C330.276817,76.7765358 332.666817,78.3965358 335.306817,78.6465358 C341.834554,79.139117 348.384427,79.2726516 354.926817,79.0465358 C362.366817,78.9165358 370.046817,78.7965358 377.546817,79.7765358 C384.006817,80.6165358 390.136817,90.7765358 395.056817,98.8865358 C397.916817,103.606536 401.156817,108.956536 402.386817,108.226536 C407.876817,105.026536 405.276817,97.6665358 402.516817,89.8665358 C401.006817,85.5865358 399.436817,81.1665358 399.286817,77.3865358 C399.163647,74.7847116 399.61075,72.1874139 400.596817,69.7765358 C401.286817,68.1065358 402.006817,66.5865358 402.596817,65.2465358 C405.926817,58.2465358 407.756817,54.3865358 399.746817,44.4865358 C392.746817,35.8365358 388.446817,30.8465358 386.906817,29.6065358 C387.196817,30.5165358 388.006817,32.2465358 388.676817,33.6965358 C391.116817,38.9365358 392.136817,41.4965358 391.036817,42.2965358 C390.266817,42.8565358 388.856817,42.4065358 384.476817,38.3465358 C383.03234,36.8248817 381.912921,35.0249657 381.186817,33.0565358 C380.570279,31.5087813 379.746055,30.0520922 378.736817,28.7265358 C377.582718,27.506789 376.259164,26.4593966 374.806817,25.6165358 C372.866817,24.3565358 370.806817,23.0465358 369.806817,20.9465358 C368.806817,18.8465358 367.216817,14.6465358 368.156817,12.0165358 C368.436263,11.1678875 369.066132,10.4797647 369.886817,10.1265358 C373.636817,8.49653578 377.646817,10.5365358 381.526817,12.4965358 C382.656817,13.0665358 383.726817,13.6165358 384.766817,14.0565358 L387.366817,15.1465358 C394.306817,18.0465358 401.496817,21.0465358 407.366817,25.8365358 C410.506817,28.3965358 412.696817,31.8965358 414.816817,35.2765358 C416.478262,38.160466 418.464538,40.8446226 420.736817,43.2765358 C423.596817,46.1065358 428.836817,46.0065358 433.446817,45.9065358 C436.446817,45.8465358 439.236817,45.7865358 441.096817,46.5365358 C443.806817,47.6165358 445.886817,49.6465358 447.906817,51.5965358 C449.746609,53.6164871 451.917811,55.307454 454.326817,56.5965358 C478.326817,67.7865358 479.466817,79.8065358 481.956817,106.136536 C482.716817,114.136536 483.586817,123.246536 485.226817,134.136536 C487.516817,149.316536 486.676817,159.226536 485.616817,171.756536 C485.006817,179.006536 484.306817,187.216536 484.126817,197.816536 C483.996817,205.146536 484.326817,211.036536 484.676817,217.286536 C484.946817,222.186536 485.236817,227.286536 485.286817,233.186536 C485.286817,233.656536 485.286817,234.346536 485.286817,235.186536 C485.526817,248.446536 485.516817,266.386536 482.706817,269.186536 C481.886817,270.166536 479.506817,270.526536 476.036817,270.526536 Z M437.576817,265.876536 C439.656817,265.876536 444.386817,266.456536 450.236817,267.176536 C462.026817,268.626536 479.836817,270.816536 482.026817,268.606536 C483.906817,266.706536 484.676817,255.506536 484.316817,235.296536 C484.316817,234.416536 484.316817,233.726536 484.316817,233.296536 C484.316817,227.396536 483.976817,222.296536 483.706817,217.436536 C483.356817,211.176536 483.026817,205.266536 483.156817,197.896536 C483.336817,187.266536 484.036817,179.036536 484.656817,171.776536 C485.706817,159.306536 486.546817,149.456536 484.266817,134.386536 C482.616817,123.456536 481.756817,114.386536 480.996817,106.316536 C478.506817,80.3265358 477.386817,68.5265358 453.906817,57.5265358 C451.395313,56.2099996 449.128945,54.4713236 447.206817,52.3865358 C445.206817,50.3865358 443.206817,48.5465358 440.726817,47.5365358 C439.056817,46.8665358 436.346817,46.9165358 433.466817,46.9765358 C428.656817,47.0765358 423.196817,47.1865358 420.036817,44.0565358 C417.701111,41.5652198 415.66401,38.8099311 413.966817,35.8465358 C411.896817,32.5365358 409.746817,29.1065358 406.736817,26.6565358 C400.966817,21.9565358 393.846817,18.9865358 386.976817,16.1065358 L384.366817,15.0165358 C383.286817,14.5565358 382.206817,14.0165358 381.056817,13.4265358 C377.386817,11.5665358 373.596817,9.64653578 370.276817,11.0765358 C369.713026,11.3300728 369.286414,11.815024 369.106817,12.4065358 C368.386817,14.4065358 369.436817,18.0265358 370.706817,20.5465358 C371.656817,22.4065358 373.476817,23.5465358 375.396817,24.8265358 C376.928762,25.721094 378.323209,26.8326097 379.536817,28.1265358 C380.607477,29.5244097 381.482226,31.0619482 382.136817,32.6965358 C382.810291,34.551978 383.851037,36.2525443 385.196817,37.6965358 C389.556817,41.6965358 390.406817,41.5965358 390.506817,41.5665358 C390.936817,40.9265358 388.896817,36.5665358 387.806817,34.1965358 C385.806817,29.9665358 385.456817,28.9365358 386.156817,28.4965358 C386.856817,28.0565358 387.436817,27.6965358 400.566817,43.9365358 C408.976817,54.3265358 406.926817,58.6265358 403.566817,65.7565358 C402.906817,67.1565358 402.216817,68.5965358 401.566817,70.2365358 C400.641402,72.5159714 400.221743,74.9691028 400.336817,77.4265358 C400.486817,81.0565358 402.026817,85.4265358 403.506817,89.6165358 C406.276817,97.4565358 409.146817,105.556536 402.936817,109.176536 C400.856817,110.386536 398.226817,106.056536 394.256817,99.4865358 C389.446817,91.4865358 383.456817,81.6265358 377.466817,80.8465358 C370.046817,79.8465358 362.386817,79.9965358 354.996817,80.1265358 C348.414475,80.3573502 341.824405,80.2238128 335.256817,79.7265358 C332.376817,79.4465358 329.746817,77.7265358 327.506817,76.0365358 C325.289577,74.2878271 323.246726,72.3287003 321.406817,70.1865358 C318.406817,66.8865358 315.526817,63.7765358 311.586817,62.4265358 C306.956817,60.8465358 301.836817,61.4265358 296.886817,61.9065358 C293.803869,62.3075709 290.694991,62.4747148 287.586817,62.4065358 C286.376817,62.3465358 284.116817,62.2265358 283.846817,60.6465358 C282.597121,53.9976406 282.475421,47.1858276 283.486817,40.4965358 C284.306817,35.6465358 287.916817,32.9665358 291.416817,30.3765358 C296.176817,26.8465358 300.666817,23.5165358 297.806817,14.8965358 C297.126841,12.3752413 295.422398,10.2537538 293.106817,9.04653578 C287.456817,6.25653578 278.256817,9.45653578 269.366817,12.5465358 C262.676817,14.8765358 256.366817,17.0565358 251.366817,16.9265358 C233.466817,16.3665358 233.426817,15.8265358 233.366817,15.0865358 C233.306817,14.3465358 234.366817,14.0065358 240.366817,12.9565358 C244.746817,12.1965358 253.846817,10.6065358 253.806817,9.11653578 C253.806817,8.19653578 250.236817,5.60653578 217.806817,1.67653578 C205.966817,0.236535781 193.806817,1.54653578 182.056817,2.80653578 C173.908565,3.8022778 165.71431,4.37637632 157.506817,4.52653578 C153.212908,4.4543892 148.929225,4.08349314 144.686817,3.41653578 C136.546817,2.32653578 128.856817,1.29653578 119.006817,4.53653578 L96.1968167,11.2265358 L96.0468167,11.1765358 C85.8468167,7.80653578 80.2968167,9.28653578 75.4068167,10.5865358 C72.0568167,11.4765358 68.8968167,12.3165358 64.9168167,11.2365358 C63.8188474,10.8215764 62.7526742,10.3269255 61.7268167,9.75653578 C57.8268167,7.75653578 51.3068167,4.46653578 48.1868167,5.47653578 C43.8168167,6.89653578 44.5068167,10.2965358 45.2968167,14.2265358 C46.1768167,18.6065358 47.1768167,23.5565358 40.6468167,25.8865358 C34.8193855,28.0756423 28.8444938,29.8500649 22.7668167,31.1965358 C19.8668167,31.8265358 19.8668167,31.8265358 18.6268167,34.1365358 C16.655162,37.7987706 14.4227396,41.3145016 11.9468167,44.6565358 C8.74681672,49.0865358 6.65681672,47.9265358 5.64681672,47.3565358 L5.39681672,47.2265358 C5.13681672,48.0665358 5.19681672,52.0065358 5.27681672,56.9165358 C5.32681672,60.0765358 6.85681672,60.7065358 8.78681672,61.5065358 C10.5368167,62.2265358 12.5168167,63.0365358 13.6968167,65.8065358 C14.9824426,68.7376938 15.2534145,72.0139908 14.4668167,75.1165358 C14.2168167,76.4165358 14.0268167,77.3565358 14.4668167,77.9965358 C14.9068167,78.6365358 16.5768167,79.2865358 19.5168167,79.6865358 C20.4722501,79.7450366 21.4304778,79.6332998 22.3468167,79.3565358 C23.5312705,78.9731786 24.7925246,78.8906988 26.0168167,79.1165358 C27.1168167,79.4065358 29.4268167,80.5465358 29.8168167,81.8465358 C29.9629004,82.2811859 29.8592755,82.7609309 29.5468167,83.0965358 C25.0068167,88.3165358 19.5468167,92.7665358 14.3068167,97.0965358 C9.68226084,100.727806 5.28405509,104.638436 1.13681672,108.806536 C2.10563795,109.033638 3.12064191,108.960391 4.04681672,108.596536 L4.14681672,108.546536 L9.77681672,106.386536 C17.1168167,101.486536 24.3568167,96.1365358 31.3568167,90.9665358 C41.7068167,83.3265358 52.4168167,75.4165358 63.6868167,68.7565358 C66.2868167,67.2265358 69.5868167,67.7565358 72.5068167,68.2565358 L74.1468167,68.5165358 C77.7173752,69.054475 81.1946771,70.0912698 84.4768167,71.5965358 C86.6022994,72.6237527 88.6450693,73.8139754 90.5868167,75.1565358 C92.8777611,76.7691157 95.3474983,78.1113641 97.9468167,79.1565358 C99.2568167,79.6265358 101.266817,79.3065358 103.206817,78.9965358 C105.436817,78.6465358 107.536817,78.3165358 108.636817,79.2065358 C109.049584,79.5522188 109.305545,80.0497212 109.346817,80.5865358 L111.696817,82.8565358 L111.696817,83.0565358 C111.884546,86.5897294 111.475484,90.1292963 110.486817,93.5265358 C109.486817,97.2465358 109.146817,98.5265358 115.056817,102.416536 C117.331694,103.839125 119.708101,105.092505 122.166817,106.166536 C125.746817,107.836536 129.436817,109.556536 132.346817,112.306536 C133.806817,113.676536 134.076817,115.696536 134.346817,117.646536 C134.438828,119.028853 134.777501,120.383545 135.346817,121.646536 C135.91784,122.492741 136.664866,123.205656 137.536817,123.736536 C138.546742,124.346741 139.402263,125.181729 140.036817,126.176536 C140.577829,127.354703 140.873816,128.63051 140.906817,129.926536 C140.935119,131.013235 141.155166,132.086391 141.556817,133.096536 C141.706817,133.406536 142.276817,133.646536 142.786817,133.856536 C143.546817,134.176536 144.596817,134.616536 144.396817,135.656536 C144.231156,137.047091 143.276235,138.216383 141.946817,138.656536 C137.366817,140.246536 128.026817,134.936536 127.136817,134.166536 C126.604145,133.530062 126.332563,132.715318 126.376817,131.886536 C126.306817,131.016536 126.226817,130.596536 126.006817,130.596536 C125.947694,130.590183 125.889924,130.617142 125.856817,130.666536 C125.619003,131.666071 125.699415,132.714933 126.086817,133.666536 C127.156817,137.316536 128.216817,140.546536 130.306817,143.096536 C132.2083,145.213513 134.360856,147.090703 136.716817,148.686536 C138.572603,149.99341 140.3306,151.433898 141.976817,152.996536 C142.976817,153.996536 144.366817,155.586536 144.496817,157.416536 C144.67103,161.301311 144.584168,165.193401 144.236817,169.066536 C143.891709,172.859549 143.801506,176.671445 143.966817,180.476536 C144.149322,182.409572 144.948677,184.232663 146.246817,185.676536 L147.376817,186.966536 C151.826817,192.046536 156.426817,197.306536 162.086817,200.966536 C169.426817,205.736536 177.456817,209.636536 185.226817,213.406536 C191.646817,216.526536 198.286817,219.756536 204.516817,223.456536 C208.886817,226.046536 212.656817,229.596536 216.306817,233.016536 L216.766817,233.456536 C217.630159,234.328541 218.388636,235.298453 219.026817,236.346536 C219.678158,237.465247 220.497746,238.477084 221.456817,239.346536 C222.740941,240.290676 224.259275,240.864807 225.846817,241.006536 C227.146817,241.186536 228.786817,244.316536 232.216817,251.426536 C234.216817,255.536536 237.216817,261.756536 238.216817,261.846536 C239.876817,261.546536 244.216817,261.846536 252.636817,262.916536 L259.056817,263.736536 C265.616817,264.586536 271.816817,265.386536 274.376817,265.386536 L282.376817,265.386536 C299.286817,265.386536 299.286817,265.386536 301.646817,265.186536 C303.806817,265.006536 307.806817,264.686536 327.366817,264.056536 C330.086817,263.966536 341.366817,264.256536 354.366817,264.596536 C372.226817,265.056536 392.476817,265.596536 396.176817,265.256536 C402.076817,264.756536 409.706817,265.186536 417.086817,265.596536 C424.086817,265.986536 431.386817,266.386536 436.976817,265.976536 C437.173939,265.925612 437.37445,265.888852 437.576817,265.866536 L437.576817,265.876536 Z" id="Shape" fill="#020202" fill-rule="nonzero"></path>
                            </g>
                        </g>
                        <g id="Group-6" mask="url(#mask-2)">
                            <g transform="translate(563.690000, -27.420000)">
                                <path d="M1.02,22.23 C21.37,41.32 13.02,29.99 46.37,35.4 C51.07,36.17 54.65,40.74 59.37,41.32 C68.16,42.39 77.13,39.08 85.91,40.23 C92.85,41.15 98.74,46.23 105.64,47.41 C109.53,48.04 113.34,45.48 117.28,45.34 C125.2,45.06 133.16,47.01 141.03,46.16 C142.15,46.03 153.15,35.92 152.03,35.59 L158.91,31.01 C151.91,29.01 136.08,33.28 131.42,27.66 L111.92,33.66 C111.05,32.66 110.37,30.66 111.23,29.66 C112.44,28.14 114.89,28.36 116.72,27.66 L73.65,0.59 L1.02,22.23 Z" id="Path" fill="#FFFFFF" fill-rule="evenodd"></path>
                                <path d="M106.93,48.01 C106.474536,48.0077994 106.019897,47.9710271 105.57,47.9 C102.163795,47.1750954 98.8799761,45.9626084 95.82,44.3 C92.63,42.77 89.33,41.19 85.82,40.73 C81.45,40.16 76.93,40.73 72.55,41.26 C68.17,41.79 63.7,42.36 59.28,41.82 C56.75,41.51 54.55,40.11 52.42,38.77 C50.29,37.43 48.42,36.25 46.25,35.9 C38.5565771,34.5066673 30.7291747,33.9966951 22.92,34.38 C15.23,34.71 13.63,34.78 0.64,22.59 L-5.1159077e-13,22 L73.69,-4.97379915e-14 L73.88,0.12 L117.86,27.79 L116.86,28.13 C116.206345,28.3424861 115.53785,28.5062674 114.86,28.62 C113.56,28.85 112.33,29.07 111.64,29.93 C111.07,30.63 111.43,32.06 112.12,33.06 L131.61,27.06 L131.82,27.32 C134.54,30.59 141.42,30.32 148.07,30.06 C152.3,29.89 156.29,29.73 159.07,30.51 L160.12,30.8 L152.62,35.8 C152.24,37.1 142.91,46.44 141.13,46.63 C136.690545,46.96249 132.22918,46.8586595 127.81,46.32 C124.333206,45.9432461 120.836874,45.776277 117.34,45.82 C115.642717,45.9700787 113.972093,46.3398344 112.37,46.92 C110.620002,47.5483948 108.787007,47.9156677 106.93,48.01 L106.93,48.01 Z M81.93,39.49 C83.2940338,39.4829538 84.6570308,39.5664708 86.01,39.74 C89.64,40.22 93.01,41.84 96.27,43.4 C99.27,44.86 102.46,46.4 105.75,46.91 C107.84,47.25 109.91,46.62 112.1,45.91 C113.774747,45.317216 115.519293,44.944105 117.29,44.8 C120.830514,44.7486585 124.370769,44.9189916 127.89,45.31 C132.242965,45.8381016 136.63695,45.9419229 141.01,45.62 C142.15,45.31 150.15,37.82 151.45,35.92 L150.84,35.75 L157.66,31.21 C154.482444,30.8525049 151.278248,30.795586 148.09,31.04 C141.35,31.31 134.4,31.59 131.26,28.2 L111.74,34.2 L111.53,33.92 C110.6,32.79 109.76,30.6 110.84,29.27 C111.77,28.11 113.24,27.85 114.67,27.59 L115.49,27.44 L73.58,1.13 L2,22.46 C14.09,33.76 15.53,33.7 22.91,33.38 C30.7897191,32.9939786 38.6877337,33.5106711 46.45,34.92 C48.8125668,35.4702137 51.0401654,36.4904878 53,37.92 C55.12,39.27 57.13,40.54 59.44,40.82 C63.73,41.35 68.18,40.82 72.44,40.27 C75.5773219,39.8128565 78.7401606,39.5523482 81.91,39.49 L81.93,39.49 Z" id="Shape" fill="#020202" fill-rule="nonzero"></path>
                            </g>
                        </g>
                        <g mask="url(#mask-2)" id="Group-46">
                            <g transform="translate(-14.000000, 204.630000)">
                                <g transform="translate(0.000000, 0.881408)">
                                    <path d="M85.94,12.6885915 C90.46,16.5185915 103.21,14.8585915 126.24,5.68859151 C152.17,-6.84140849 145.24,6.20859151 164.24,15.5885915 C183.52,25.0785915 181.24,15.9485915 194.95,25.3285915 C204.35,31.7885915 204.95,38.3285915 217.64,40.3285915 C224.101983,41.1902428 230.668938,40.8135338 236.99,39.2185915 C244.44,37.5185915 238.06,21.5185915 245.89,21.0885915 C257.5,20.4485915 287.28,17.0885915 298.07,19.0885915 C305.59,20.5285915 304.18,35.8085915 305.16,38.0085915 C306.52,41.0585915 311.16,42.0085915 312.04,45.2585915 C316.81,62.5885915 305.13,60.5485915 320.2,73.0685915 C324.7,76.8085915 330.93,78.2385915 335.11,82.3385915 C338.54,85.6985915 346.93,103.868592 342.21,104.798592 C317.5,109.678592 291.81,104.378592 266.66,105.798592 C252.43,106.608592 238.51,110.628592 224.28,111.498592 C200.49,112.948592 125.68,116.748592 94.74,114.338592 C63.25,111.888592 31.74,98.1985915 0.51,102.918592 C3.9,50.1185915 56.84,-12.0114085 85.94,12.6885915 Z" id="Path" fill="#FFFFFF"></path>
                                    <path d="M122.01,115.588592 C111.27,115.588592 101.8,115.358592 94.73,114.808592 C82.73,113.868592 70.57,111.278592 58.8,108.808592 C39.67,104.688592 19.84,100.468592 0.61,103.388592 L-3.12638804e-13,103.478592 L-3.12638804e-13,102.858592 C2.36,65.8585915 30,21.3685915 58,9.46859151 C68.84,4.85859151 78.61,5.83859151 86.24,12.3085915 C89.45,15.0285915 98.96,16.0085915 126.03,5.18859151 C143.44,-3.24140849 146.44,-0.12140849 151.87,5.51859151 C155.416515,9.48908785 159.690024,12.7442865 164.46,15.1085915 C174,19.7985915 178.28,19.8885915 181.71,19.9585915 C185.38,20.0385915 188.28,20.0985915 195.24,24.8785915 C197.994394,26.8252534 200.538165,29.0539856 202.83,31.5285915 C206.63,35.4185915 209.63,38.5285915 217.72,39.7585915 C224.117819,40.6183353 230.620964,40.2483756 236.88,38.6685915 C240.19,37.9085915 240.48,33.9585915 240.78,29.7685915 C241.11,25.3385915 241.45,20.7685915 245.86,20.5185915 C248.69,20.3585915 252.58,20.0385915 257.07,19.6785915 C270.95,18.5385915 289.94,16.9885915 298.16,18.5585915 C304.16,19.7085915 304.81,28.8085915 305.16,34.2385915 C305.17598,35.4272973 305.320147,36.6108107 305.59,37.7685915 C306.371632,39.1088093 307.492592,40.2194217 308.84,40.9885915 C310.41,42.0985915 312.02,43.2585915 312.54,45.1185915 C314.54,52.2885915 313.7,56.2685915 313.1,59.1185915 C312.25,63.2985915 311.82,65.3885915 320.53,72.6285915 C322.662807,74.2593153 324.970316,75.6478455 327.41,76.7685915 C330.342632,78.0602767 333.058015,79.7974472 335.46,81.9185915 C338.56,84.9185915 345.29,99.1385915 343.95,103.638592 C343.770779,104.445342 343.130954,105.069466 342.32,105.228592 C327.39,108.178592 311.87,107.418592 296.86,106.678592 C286.94,106.188592 276.69,105.678592 266.7,106.248592 C259.545502,106.797947 252.427585,107.749451 245.38,109.098592 C238.425081,110.447697 231.401097,111.412494 224.34,111.988592 C200.01,113.448592 155,115.588592 122.01,115.588592 Z M14.09,101.418592 C29.09,101.418592 44.26,104.648592 59.01,107.788592 C70.75,110.288592 82.89,112.878592 94.81,113.788592 C123.51,116.028592 192.05,112.908592 224.28,110.948592 C231.30952,110.386179 238.303204,109.441448 245.23,108.118592 C252.316429,106.755936 259.474671,105.79772 266.67,105.248592 C276.67,104.678592 286.98,105.188592 296.93,105.678592 C311.93,106.408592 327.34,107.168592 342.15,104.248592 C342.42,104.248592 342.8,104.048592 343.01,103.348592 C344.24,99.2185915 337.69,85.4785915 334.79,82.6285915 C332.454113,80.5770719 329.820902,78.8912772 326.98,77.6285915 C324.470237,76.4797291 322.098492,75.0506432 319.91,73.3685915 C310.74,65.7485915 311.24,63.3185915 312.14,58.8985915 C312.75,55.8985915 313.5,52.2385915 311.59,45.3085915 C311.17,43.7785915 309.77,42.7785915 308.28,41.7185915 C306.800521,40.8562636 305.575698,39.6176388 304.73,38.1285915 C304.402689,36.8642412 304.231415,35.5645716 304.22,34.2585915 C303.86,29.1185915 303.22,20.4985915 298.01,19.4885915 C289.92,17.9385915 271.01,19.4885915 257.19,20.6185915 C252.68,20.9885915 248.79,21.3085915 245.95,21.4685915 C242.41,21.6585915 242.13,25.4685915 241.81,29.7885915 C241.49,34.1085915 241.16,38.6685915 237.13,39.5885915 C230.746114,41.1951723 224.114759,41.5718768 217.59,40.6985915 C209.18,39.3685915 205.92,36.0385915 202.15,32.1785915 C199.901113,29.7511134 197.404158,27.5658587 194.7,25.6585915 C187.99,21.0485915 185.22,20.9885915 181.7,20.9085915 C178.18,20.8285915 173.77,20.7485915 164.03,15.9085915 C159.155544,13.4992023 154.787027,10.1795366 151.16,6.12859151 C145.89,0.64859151 143.24,-2.11140849 126.44,6.00859151 C104.31,14.8585915 90.58,17.1985915 85.6,13.0085915 C78.28,6.79859151 68.87,5.87859151 58.4,10.3285915 C33.55,20.8985915 3.88,62.3285915 1.06,102.248592 C5.37801069,101.661831 9.73243888,101.384458 14.09,101.418592 L14.09,101.418592 Z" id="Shape" fill="#020202" fill-rule="nonzero"></path>
                                </g>
                            </g>
                        </g>
                    </g>
                    <path d="M577.5,28.869971 C682.869465,28.8426597 787.348403,48.1629928 885.74,85.87 C888.62,91.16 887.27,160.69 881.87,316.78 L2.77,316.78 C119.27,151.17 245.01,84.51 392.37,49.87 C450.14,36.23 512.65,28.869971 577.5,28.869971 M577.5,27.87 C513.68,27.87 451.31,34.93 392.14,48.87 C310.53,68.06 244.84,94.87 185.46,133.36 C117.65,177.26 57.62,237.06 1.95,316.19 L0.84,317.76 L882.84,317.76 L882.84,316.76 C888.49,153.42 889.51,90.7 886.59,85.33 L886.42,85.01 L886.07,84.88 C835.872059,65.6043654 783.964549,51.1166018 731.04,41.61 C680.36879,32.4853815 628.986211,27.887253 577.5,27.87 L577.5,27.87 Z" id="Shape" fill="#000000" fill-rule="nonzero"></path>
                    <g id="Group" transform="translate(281.000000, 0.000000)">
                        <g id="Path-10" transform="translate(443.000000, 69.000000)">
                            <path d="M1.67,0.53 C2.67,3.53 4.01,6.34 4.59,9.39 C5.48,14.03 2.11,20.91 6.07,23.5 C9.34,25.63 11.8,17.83 15.47,16.5 C19.14,15.17 23.36,17.5 26.83,15.99 C28.53,15.24 28.77,12.54 28.58,10.69 C28.58,10.5 24.03,9.51 15.52,7.81 C6.64,6.04 13.84,2.81 0.22,1.57" id="Path" fill="#FFFFFF"></path>
                            <path d="M7.21,24.38 C6.71272014,24.3502946 6.23565393,24.1727006 5.84,23.87 C3.08,22.07 3.53,18.49 3.96,15.02 C4.29490522,13.1824281 4.35556448,11.3053609 4.14,9.45 C3.69826895,7.45011829 3.08259303,5.49267042 2.3,3.6 C2.13,3.14 1.95,2.67 1.78,2.2 C1.29,2.14 0.78,2.09 0.21,2.04 L0.3,1.04 L1.41,1.15 C1.35,0.98 1.29,0.82 1.24,0.65 L2.19,0.34 C2.29,0.65 2.4,0.97 2.51,1.28 C8.45,2.05 9.51,3.35 10.51,4.62 C11.29,5.62 12.03,6.56 15.7,7.29 C29.1,9.97 29.11,10.09 29.16,10.61 C29.4,12.87 29,15.61 27.16,16.42 C25.32,17.23 23.16,17.02 21.06,16.78 C19.3076219,16.428226 17.497915,16.4829619 15.77,16.94 C14.35,17.45 13.07,19.1 11.83,20.69 C10.3,22.53 8.84,24.38 7.21,24.38 Z M2.86,2.38 L3.2,3.28 C3.99916847,5.2218085 4.62819813,7.22934997 5.08,9.28 C5.32554315,11.2371042 5.26820438,13.2203511 4.91,15.16 C4.5,18.47 4.11,21.6 6.34,23.06 C7.74,23.98 9.01,22.55 10.92,20.06 C12.24,18.36 13.61,16.6 15.3,15.99 C17.174428,15.4749187 19.1429925,15.4030233 21.05,15.78 C23.05,16.01 24.96,16.23 26.62,15.49 C27.86,14.94 28.25,12.88 28.1,10.98 C27.39,10.76 24.68,10.11 15.42,8.26 C11.42,7.46 10.49,6.32 9.63,5.26 C8.77,4.2 7.93,3.09 2.84,2.38 L2.86,2.38 Z" id="Shape" fill="#00000A" fill-rule="nonzero"></path>
                        </g>
                        <g id="Path-5" transform="translate(0.000000, 34.000000)">
                            <path d="M2.64,52.42 C19.87,57.28 36.33,59.48 47.03,56.78 C66.03,51.99 82.8,38.99 103.24,37.71 C107.91,37.42 112.8,37.01 117.24,38.39 C124.79,40.72 131.06,50.92 138.62,48.62 C144.96,46.7 141.97,35.62 145.21,29.89 C148.21,24.65 162.68,23.08 165.36,22.1 C178.44,17.28 181.54,13.63 184.42,1.1 C136.84,4.74 -14.58,47.57 2.64,52.42 Z" id="Path" fill="#FFFFFF"></path>
                            <path d="M36.22,58.44 C27.04,58.44 15.49,56.56 2.51,52.9 C0.99,52.48 0.74,51.75 0.79,51.21 C1.43,44.8 63.73,27.29 76.21,23.84 C110.84,14.29 159.89,2.47 184.41,0.59 L185.09,0.59 L184.93,1.25 C181.93,14.17 178.72,17.77 165.56,22.61 C164.378773,22.9676579 163.176454,23.2515387 161.96,23.46 C157.02,24.46 147.83,26.37 145.68,30.19 C144.44,32.39 144.14,35.48 143.85,38.48 C143.4,43.11 142.93,47.89 138.8,49.15 C133.99,50.61 129.68,47.27 125.5,44.05 C122.81,41.97 120.03,39.81 117.12,38.92 C112.98,37.64 108.44,37.92 104.05,38.21 L103.27,38.26 C91.27,39.01 80.33,43.93 69.76,48.69 C62.47,51.96 54.94,55.36 47.15,57.32 C43.5656848,58.1359116 39.8953015,58.5120167 36.22,58.44 Z M183.84,1.64 C159.16,3.64 110.73,15.35 76.5,24.8 C27.84,38.23 2.09,48.3 1.84,51.31 C1.84,51.52 2.19,51.76 2.84,51.94 C21.54,57.21 37.22,58.76 46.97,56.3 C54.67,54.36 62.16,50.99 69.41,47.72 C80.06,42.93 91.07,37.98 103.27,37.22 L104.05,37.17 C108.53,36.88 113.16,36.59 117.48,37.91 C120.56,38.91 123.41,41.07 126.18,43.21 C130.33,46.42 134.25,49.45 138.57,48.14 C142.06,47.08 142.47,42.83 142.91,38.33 C143.21,35.23 143.52,32.04 144.91,29.65 C147.28,25.43 156.4,23.56 161.85,22.44 C163.46,22.11 164.72,21.84 165.32,21.63 C177.72,17.02 180.98,13.59 183.84,1.64 Z" id="Shape" fill="#020202" fill-rule="nonzero"></path>
                        </g>
                        <g id="Path-6" transform="translate(131.000000, 55.000000)"></g>
                        <g id="Path-11" transform="translate(283.000000, 0.000000)"></g>
                    </g>
                </g>
                <rect id="Rectangle" fill="url(#linearGradient-3)" transform="translate(450.000000, 230.500000) rotate(-270.000000) translate(-450.000000, -230.500000) " x="331" y="-219" width="238" height="899"></rect>
                <rect id="Rectangle" fill="url(#linearGradient-4)" x="733" y="27" width="164" height="300"></rect>
            </g>
        </g>
    </g>
</svg>