<?xml version="1.0" encoding="UTF-8"?>
<svg width="44px" height="52px" viewBox="0 0 44 52" version="1.1" xmlns="http://www.w3.org/2000/svg" xmlns:xlink="http://www.w3.org/1999/xlink">
    <title>noun_price_2764070</title>
    <g id="Page-1" stroke="none" stroke-width="1" fill="none" fill-rule="evenodd">
        <g id="version-4" transform="translate(-441.000000, -942.000000)">
            <g id="noun_price_2764070" transform="translate(441.000000, 942.000000)">
                <g id="Group">
                    <g>
                        <path d="M42.8458333,23.4 L20.8,1.35416667 C20.0416667,0.541666667 18.9583333,0.1625 17.875,0.270833333 L5.09166667,1.57083333 C3.35833333,1.73333333 1.95,3.14166667 1.7875,4.875 L0.4875,17.6583333 C0.379166667,18.7958333 0.758333333,19.8791667 1.57083333,20.6375 L9.2625,28.3291667 C7.58333333,30.7666667 6.55416667,33.6916667 6.55416667,36.8333333 C6.55416667,45.0125 13.2166667,51.7291667 21.45,51.7291667 C29.6833333,51.7291667 36.2916667,45.0666667 36.2916667,36.8333333 C36.2916667,36.2916667 36.2375,35.75 36.1833333,35.2083333 L42.7916667,28.6 C44.3083333,27.1916667 44.3083333,24.8083333 42.8458333,23.4 Z M21.45,49.075 C14.6791667,49.075 9.20833333,43.6041667 9.20833333,36.8333333 C9.20833333,30.0625 14.6791667,24.5916667 21.45,24.5916667 C28.2208333,24.5916667 33.6375,30.1166667 33.6375,36.8333333 C33.6375,43.55 28.1666667,49.075 21.45,49.075 Z M41.0041667,26.7583333 L35.5333333,32.175 C33.5833333,26.2708333 28.0041667,21.9916667 21.45,21.9916667 C17.3875,21.9916667 13.65,23.6708333 10.9958333,26.325 L3.4125,18.7958333 C3.19583333,18.5791667 3.0875,18.2541667 3.14166667,17.9291667 L4.3875,5.14583333 C4.44166667,4.65833333 4.82083333,4.225 5.3625,4.17083333 L18.1458333,2.925 C18.1458333,2.87083333 18.2,2.87083333 18.2541667,2.87083333 C18.525,2.87083333 18.7958333,2.97916667 19.0125,3.19583333 L41.0583333,25.2416667 C41.3833333,25.675 41.3833333,26.325 41.0041667,26.7583333 Z" id="Shape" fill="#00000A" fill-rule="nonzero"></path>
                        <path d="M12.0791667,6.9875 C9.37083333,6.9875 7.20416667,9.20833333 7.20416667,11.8625 C7.20416667,14.5708333 9.425,16.7916667 12.0791667,16.7916667 C14.7875,16.7916667 17.0083333,14.5708333 17.0083333,11.8625 C17.0083333,9.15416667 14.7875,6.9875 12.0791667,6.9875 Z M12.0791667,14.1375 C10.8333333,14.1375 9.80416667,13.1083333 9.80416667,11.8625 C9.80416667,10.6166667 10.8333333,9.5875 12.0791667,9.5875 C13.325,9.5875 14.3541667,10.6166667 14.3541667,11.8625 C14.3541667,13.1083333 13.325,14.1375 12.0791667,14.1375 Z" id="Shape" fill="#00000A" fill-rule="nonzero"></path>
                        <circle id="Oval" fill="#00000A" cx="23" cy="38" r="13"></circle>
                        <path d="M22.425,35.5333333 L20.475,35.5333333 C19.6625,35.5333333 19.0125,34.8833333 19.0125,34.0708333 C19.0125,33.2583333 19.6625,32.6083333 20.475,32.6083333 L22.425,32.6083333 C22.9666667,32.6083333 23.4541667,32.8791667 23.725,33.3666667 C24.05,34.0166667 24.8625,34.2875 25.5125,33.9625 C26.1625,33.6375 26.4333333,32.825 26.1083333,32.175 C25.4583333,30.9291667 24.2125,30.1166667 22.8041667,30.0083333 L22.8041667,28.7083333 C22.8041667,27.95 22.2083333,27.4083333 21.5041667,27.4083333 C20.7458333,27.4083333 20.2041667,28.0041667 20.2041667,28.7083333 L20.2041667,29.9541667 C18.0916667,30.1166667 16.4125,31.9041667 16.4125,34.0166667 C16.4125,36.2916667 18.2541667,38.1333333 20.5291667,38.1333333 L22.4791667,38.1333333 C23.2916667,38.1333333 23.9416667,38.7833333 23.9416667,39.5958333 C23.9416667,40.4083333 23.2916667,41.0583333 22.4791667,41.0583333 L20.5291667,41.0583333 C20.0416667,41.0583333 19.5541667,40.7875 19.3375,40.4083333 C19.1208333,39.9208333 18.6875,39.5958333 18.0916667,39.5958333 C17.3333333,39.5958333 16.7916667,40.1916667 16.7916667,40.95 C16.7916667,41.1666667 16.8458333,41.3833333 16.9541667,41.5458333 C17.6041667,42.7916667 18.85,43.55 20.2041667,43.6583333 L20.2041667,44.9583333 C20.2041667,45.7166667 20.8,46.2583333 21.5041667,46.2583333 C22.2625,46.2583333 22.8041667,45.6625 22.8041667,44.9583333 L22.8041667,43.6583333 C24.9166667,43.4958333 26.5958333,41.7625 26.5958333,39.5958333 C26.5416667,37.375 24.7,35.5333333 22.425,35.5333333 Z" id="Path" fill="#FFFFFF" fill-rule="nonzero"></path>
                    </g>
                </g>
            </g>
        </g>
    </g>
</svg>