<?xml version="1.0" encoding="UTF-8"?>
<svg width="49px" height="53px" viewBox="0 0 49 53" version="1.1" xmlns="http://www.w3.org/2000/svg" xmlns:xlink="http://www.w3.org/1999/xlink">
    <title>Group 63</title>
    <g id="Page-1" stroke="none" stroke-width="1" fill="none" fill-rule="evenodd">
        <g id="version-4" transform="translate(-888.000000, -1040.000000)">
            <g id="Group-63" transform="translate(888.000000, 1040.000000)">
                <g id="noun_Graph_37874" transform="translate(0.000000, 14.000000)" fill="#00000A" fill-rule="nonzero">
                    <g id="Group">
                        <g transform="translate(5.379310, 0.000000)" id="Path">
                            <path d="M0.128431034,14.3741897 C0.128431034,14.3008966 0.188275862,14.2417241 0.260896552,14.2417241 L6.76044828,14.2417241 C6.83239655,14.2417241 6.89224138,14.3008966 6.89224138,14.3741897 L6.89224138,33.5830345 C6.89224138,33.6563276 6.83239655,33.7148276 6.76044828,33.7148276 L0.260896552,33.7148276 C0.188275862,33.7148276 0.128431034,33.6563276 0.128431034,33.5830345 L0.128431034,14.3741897 L0.128431034,14.3741897 Z"></path>
                            <path d="M9.98131034,0.351672414 C9.98131034,0.279051724 10.0411552,0.219206897 10.1131034,0.219206897 L16.6133276,0.219206897 C16.6859483,0.219206897 16.7457931,0.279051724 16.7457931,0.351672414 L16.7457931,33.5830345 C16.7457931,33.6563276 16.6859483,33.7148276 16.6133276,33.7148276 L10.1131034,33.7148276 C10.0411552,33.7148276 9.98131034,33.6563276 9.98131034,33.5830345 L9.98131034,0.351672414 Z"></path>
                            <path d="M30.2518966,9.07489655 C30.2518966,9.00227586 30.311069,8.94243103 30.3830172,8.94243103 L37.4460517,8.94243103 C37.5186724,8.94243103 37.5778448,9.00227586 37.5778448,9.07489655 L37.5778448,33.5830345 C37.5778448,33.6563276 37.5186724,33.7148276 37.4460517,33.7148276 L30.3836897,33.7148276 C30.3117414,33.7148276 30.252569,33.6563276 30.252569,33.5830345 L30.252569,9.07489655 L30.2518966,9.07489655 Z"></path>
                            <path d="M27.1628276,18.7556379 C27.1628276,18.6830172 27.1029828,18.6231724 27.0310345,18.6231724 L19.9659828,18.6231724 C19.8933621,18.6231724 19.8335172,18.6830172 19.8335172,18.7556379 L19.8335172,33.5830345 C19.8335172,33.6563276 19.8933621,33.7148276 19.9659828,33.7148276 L27.0310345,33.7148276 C27.1029828,33.7148276 27.1628276,33.6563276 27.1628276,33.5830345 L27.1628276,18.7556379 Z"></path>
                        </g>
                        <path d="M47.8691379,38.6483276 C47.8691379,38.7209483 47.8099655,38.7807931 47.7380172,38.7807931 L0.676448276,38.7807931 C0.6045,38.7807931 0.544655172,38.7209483 0.544655172,38.6483276 L0.544655172,36.6761379 C0.544655172,36.6041897 0.6045,36.5450172 0.676448276,36.5450172 L47.7380172,36.5450172 C47.8099655,36.5450172 47.8691379,36.6041897 47.8691379,36.6761379 L47.8691379,38.6483276 Z" id="Path"></path>
                    </g>
                </g>
                <polygon id="→" fill="#00000A" transform="translate(39.500000, 10.000000) rotate(-90.000000) translate(-39.500000, -10.000000) " points="40.5838926 19 38.7986577 17.0909091 44.2393736 11.2727273 30 11.2727273 30 8.72727273 44.2393736 8.72727273 38.7986577 2.90909091 40.5838926 1 49 10"></polygon>
                <line x1="19.5" y1="17.5" x2="19.5" y2="45.5" id="Line-6" stroke="#FFFFFF" stroke-width="2" stroke-linecap="round"></line>
            </g>
        </g>
    </g>
</svg>