<?xml version="1.0" encoding="UTF-8"?>
<svg width="48px" height="42px" viewBox="0 0 48 42" version="1.1" xmlns="http://www.w3.org/2000/svg" xmlns:xlink="http://www.w3.org/1999/xlink">
    <title>Group 15</title>
    <g id="Page-1" stroke="none" stroke-width="1" fill="none" fill-rule="evenodd">
        <g id="version-4" transform="translate(-441.000000, -1054.000000)" fill="#00000A">
            <g id="Group-15" transform="translate(441.000000, 1054.000000)">
                <g id="noun_users_1977590">
                    <ellipse id="Oval" cx="25.3090909" cy="14.875" rx="9.6" ry="9.625"></ellipse>
                    <path d="M23.751109,4.18334802 C17.1012287,4.18334802 12.3513148,11.1902334 15.307556,17.6442923 C18.6491035,24.9309203 28.8996187,24.9242605 32.2411663,17.6442923 C35.104401,11.4100298 30.799583,4.26993465 23.751109,4.18334802 Z M8.24579477,41.5156588 C7.58147124,41.4690313 7.1961637,40.9628313 7.1961637,40.2568143 L7.18952008,40.2568143 C7.18952008,37.0664161 8.07307029,34.089159 9.59437171,31.5514947 L1.21725007,31.5514947 C0.532996717,31.5514947 0.101186529,31.0519546 0.0878998078,30.3126341 C-0.0449648527,24.8976167 3.59552882,19.7956467 8.64438847,17.924036 C0.386845619,13.2483392 3.70182084,0.480088946 13.1219299,0.480088946 C15.407205,0.480088946 17.572899,1.33263758 19.2403505,2.84457941 C22.1168724,1.61238023 25.4384924,1.61238023 28.3150121,2.84457941 C34.2009199,-2.4771898 43.6343178,1.75225152 43.6343178,9.79151971 C43.6343178,13.2216949 41.774211,16.2988628 38.9109763,17.9240354 C44.072769,19.8356095 47.394391,24.6644979 47.4674634,30.419204 C47.4674634,31.0452942 46.9625782,31.5514942 46.3381142,31.5514942 L37.9078485,31.5514942 C39.409219,34.0491951 40.3658448,37.2928762 40.3658448,40.3900236 C40.3658448,41.0161181 39.8609596,41.5223181 39.2364956,41.5223181 L8.24579477,41.5156588 Z M11.2286083,29.28691 C13.2215789,26.9557225 15.832371,25.1973421 18.7952547,24.2515449 C16.6162734,23.2125011 14.8225984,21.500744 13.6467471,19.396015 C7.79405425,19.136253 2.91791908,23.5322083 2.39310298,29.28691 L11.2286083,29.28691 Z M28.7401804,24.2648667 C31.6897768,25.204002 34.2872817,26.9690444 36.2736098,29.28691 L45.162263,29.28691 C44.6374458,23.5322082 39.7613085,19.136253 33.9086178,19.396015 C32.7327664,21.5074038 30.9258043,23.2191631 28.7401804,24.2648667 Z M38.0207804,39.257734 C37.2036654,26.9823662 22.35603,21.1543953 13.6334599,29.9929269 C11.2618242,32.3973814 9.71395044,35.734309 9.48143659,39.257734 L38.0207804,39.257734 Z M34.9648946,16.8183852 C40.87073,16.3654704 43.5280242,9.03887897 39.3427849,4.80277725 C36.9512228,2.37834223 33.184507,2.05863619 30.4275616,4.03015535 C34.4334349,6.86088304 36.3068268,11.9628553 34.9648946,16.8183852 Z M17.1278033,4.03015541 C12.563899,0.759831592 6.17974855,4.05013708 6.17974855,9.79152028 C6.17974855,13.4747977 8.96990772,16.5386436 12.5904713,16.8183852 C11.248538,11.9628553 13.1219299,6.86088304 17.1278033,4.03015541 Z" id="Shape" fill-rule="nonzero"></path>
                </g>
                <path d="M10.5941788,40.4628632 C14.6912404,30.5059668 19.8407184,25.9444156 26.0426128,26.7782094 C32.2445073,27.6120032 36.2372298,29.8766721 38.0207804,33.572216 L39.7841814,40.4628632 L10.5941788,40.4628632 Z" id="Path-12"></path>
            </g>
        </g>
    </g>
</svg>