<?xml version="1.0" encoding="utf-8"?>
<!-- Generator: Adobe Illustrator 18.1.1, SVG Export Plug-In . SVG Version: 6.00 Build 0)  -->
<svg version="1.1" id="Layer_1" xmlns="http://www.w3.org/2000/svg" xmlns:xlink="http://www.w3.org/1999/xlink" x="0px" y="0px"
	 viewBox="0 0 28.8 28.8" enable-background="new 0 0 28.8 28.8" xml:space="preserve">
<g>
	<defs>
		<rect id="SVGID_1_" x="0" width="28.8" height="28.8"/>
	</defs>
	<clipPath id="SVGID_2_">
		<use xlink:href="#SVGID_1_"  overflow="visible"/>
	</clipPath>
	<path clip-path="url(#SVGID_2_)" fill="#FFD12B" d="M0,15.4h20.5v2H0v11.4h28.8V13.4H9.4v-2h19.5V0H0V15.4z M14.7,25.9
		c-0.8,0-1.4-0.6-1.4-1.4c0-0.8,0.6-1.4,1.4-1.4c0.8,0,1.4,0.6,1.4,1.4C16.1,25.2,15.5,25.9,14.7,25.9 M21.3,21.5H8.5l0.5-2h11.7
		L21.3,21.5z M14.7,3c0.8,0,1.4,0.6,1.4,1.4c0,0.8-0.6,1.4-1.4,1.4c-0.8,0-1.4-0.6-1.4-1.4C13.3,3.6,13.9,3,14.7,3 M21.3,7.3l-0.6,2
		H9.1l-0.6-2H21.3z"/>
</g>
</svg>
