<?xml version="1.0" encoding="UTF-8"?>
<svg width="89px" height="117px" viewBox="0 0 89 117" version="1.1" xmlns="http://www.w3.org/2000/svg" xmlns:xlink="http://www.w3.org/1999/xlink">
    <!-- Generator: Sketch 52.4 (67378) - http://www.bohemiancoding.com/sketch -->
    <title>Group 51</title>
    <desc>Created with Sketch.</desc>
    <defs>
        <polygon id="path-1" points="0 0.49 88.7888 0.49 88.7888 89.2798 0 89.2798"></polygon>
        <polygon id="path-3" points="0.3943 0.6221 2.3943 0.6221 2.3943 17 0.3943 17"></polygon>
    </defs>
    <g id="Page-1" stroke="none" stroke-width="1" fill="none" fill-rule="evenodd">
        <g id="version-1" transform="translate(-1038.000000, -1724.000000)">
            <g id="Group-51" transform="translate(1038.000000, 1723.000000)">
                <g id="Group-3" transform="translate(0.000000, 0.510000)">
                    <mask id="mask-2" fill="white">
                        <use xlink:href="#path-1"></use>
                    </mask>
                    <g id="Clip-2"></g>
                    <path d="M88.7888,44.8848 C88.7888,69.4038 68.9128,89.2798 44.3938,89.2798 C19.8758,89.2798 -0.0002,69.4038 -0.0002,44.8848 C-0.0002,20.3668 19.8758,0.4898 44.3938,0.4898 C68.9128,0.4898 88.7888,20.3668 88.7888,44.8848" id="Fill-1" fill="#F5E9FF" mask="url(#mask-2)"></path>
                </g>
                <path d="M26.5017,64.9241 L16.4277,69.0651 C16.1017,69.1991 15.8887,69.5161 15.8887,69.8691 L15.8887,87.1301 C15.8887,87.2421 15.9147,87.3451 15.9527,87.4421 C15.9597,87.4611 15.9667,87.4811 15.9757,87.4991 C16.0187,87.5891 16.0727,87.6701 16.1417,87.7381 C16.1527,87.7501 16.1667,87.7601 16.1797,87.7711 C16.2467,87.8311 16.3217,87.8811 16.4037,87.9191 C16.4157,87.9241 16.4267,87.9311 16.4387,87.9371 C16.5287,87.9721 16.6267,87.9901 16.7257,87.9941 C16.7477,87.9941 16.7707,87.9941 16.7927,87.9931 C16.8907,87.9891 16.9897,87.9741 17.0887,87.9341 L26.5907,84.0281 L23.8227,66.0251 L26.5017,64.9241 Z" id="Fill-4" fill="#FFFFFF"></path>
                <path d="M72.8621,69.6135 C72.8121,69.4505 72.7151,69.3055 72.5831,69.1975 C72.5171,69.1435 72.4431,69.0985 72.3611,69.0645 L64.9661,66.0255 L62.1981,84.0285 L71.7001,87.9335 C71.7991,87.9745 71.8981,87.9885 71.9971,87.9925 C72.0181,87.9935 72.0411,87.9945 72.0631,87.9935 C72.1621,87.9895 72.2591,87.9725 72.3491,87.9365 C72.3621,87.9315 72.3731,87.9245 72.3841,87.9185 C72.4671,87.8815 72.5431,87.8315 72.6101,87.7705 C72.6221,87.7595 72.6351,87.7505 72.6471,87.7385 C72.7161,87.6695 72.7711,87.5885 72.8131,87.4995 C72.8221,87.4805 72.8291,87.4615 72.8371,87.4415 C72.8741,87.3445 72.9001,87.2415 72.9001,87.1295 L72.9001,69.8685 C72.9001,69.7805 72.8871,69.6955 72.8621,69.6135" id="Fill-6" fill="#FFFFFF"></path>
                <path d="M51.4734,49.0876 C51.4734,52.9976 48.3044,56.1676 44.3944,56.1676 C40.4844,56.1676 37.3154,52.9976 37.3154,49.0876 C37.3154,45.1776 40.4844,42.0076 44.3944,42.0076 C48.3044,42.0076 51.4734,45.1776 51.4734,49.0876 Z M40.9734,20.9046 L37.3434,24.9116 C35.8254,26.5876 34.4634,28.3746 33.2664,30.2516 C32.4674,31.5026 31.7424,32.7936 31.0904,34.1176 C29.4624,37.4276 28.3004,40.9446 27.6354,44.5666 C27.5024,45.2906 27.3894,46.0196 27.2964,46.7516 C27.1104,48.2146 27.0044,49.6916 26.9824,51.1756 C26.9594,52.6606 27.0184,54.1506 27.1624,55.6426 C27.2354,56.3876 27.3274,57.1336 27.4424,57.8786 L28.0924,62.1086 L28.4054,64.1416 L29.9424,74.1376 L52.0034,74.1376 L52.8044,68.9296 L54.0574,60.7776 L54.5034,57.8786 C56.3354,45.9596 52.6984,33.8496 44.6024,24.9116 L40.9734,20.9046 Z" id="Fill-8" fill="#FFFFFF"></path>
                <path d="M52.9109,26.6238 C52.4399,26.0408 51.9509,25.4698 51.4449,24.9118 L44.3939,17.1278 L51.4449,24.9118 C51.9509,25.4698 52.4399,26.0408 52.9109,26.6238" id="Fill-10" fill="#FFFFFF"></path>
                <polygon id="Fill-12" fill="#FFFFFF" points="30.2488 76.1379 31.1628 82.0799 50.7828 82.0799 51.6968 76.1379"></polygon>
                <polygon id="Fill-14" fill="#CCCCFF" points="29.9422 74.1379 29.9422 74.1379 28.4052 64.1419"></polygon>
                <path d="M30.2488,76.1379 L31.1628,82.0799 L30.2488,76.1379 Z" id="Fill-16" fill="#CCCCFF"></path>
                <path d="M26.5017,64.9241 L23.8227,66.0251 L26.5907,84.0281 L29.3457,82.8971 C29.2727,82.7361 29.2137,82.5661 29.1857,82.3841 L26.5017,64.9241 Z" id="Fill-18" fill="#CCCCFF"></path>
                <path d="M62.2869,64.9241 L59.6029,82.3841 C59.5749,82.5661 59.5159,82.7361 59.4429,82.8971 L62.1979,84.0281 L64.9659,66.0251 L62.2869,64.9241 Z" id="Fill-20" fill="#CCCCFF"></path>
                <path d="M60.6961,62.1081 L61.3461,57.8791 C61.4611,57.1341 61.5531,56.3881 61.6261,55.6421 C61.7701,54.1511 61.8301,52.6601 61.8061,51.1761 C61.7781,49.3211 61.6211,47.4771 61.3381,45.6561 C61.0551,43.8351 60.6471,42.0381 60.1191,40.2771 C59.6961,38.8681 59.1951,37.4831 58.6191,36.1281 C58.0431,34.7721 57.3911,33.4461 56.6661,32.1571 C55.2151,29.5791 53.4691,27.1461 51.4451,24.9111 L44.3941,17.1281 L40.9731,20.9041 L44.6021,24.9111 C52.6981,33.8491 56.3361,45.9601 54.5041,57.8791 L54.0571,60.7781 L52.8041,68.9301 L52.0041,74.1381 L58.8471,74.1381 L60.3841,64.1421 L60.6961,62.1081 Z" id="Fill-22" fill="#CCCCFF"></path>
                <polygon id="Fill-24" fill="#CCCCFF" points="51.6971 76.1379 50.7831 82.0799 57.6261 82.0799 58.5401 76.1379"></polygon>
                <path d="M69.0818,23.5056 C68.0288,23.5056 67.1758,24.3596 67.1758,25.4126 C67.1758,26.4646 68.0288,27.3186 69.0818,27.3186 C70.1348,27.3186 70.9878,26.4646 70.9878,25.4126 C70.9878,24.3596 70.1348,23.5056 69.0818,23.5056" id="Fill-26" fill="#CCCCFF"></path>
                <path d="M21.9168,101.5735 C20.8638,101.5735 20.0108,102.4275 20.0108,103.4795 C20.0108,104.5325 20.8638,105.3865 21.9168,105.3865 C22.9698,105.3865 23.8228,104.5325 23.8228,103.4795 C23.8228,102.4275 22.9698,101.5735 21.9168,101.5735" id="Fill-28" fill="#CCCCFF"></path>
                <path d="M31.6004,9.9568 C30.8554,9.9568 30.2514,10.5608 30.2514,11.3048 C30.2514,12.0498 30.8554,12.6528 31.6004,12.6528 C32.3444,12.6528 32.9484,12.0498 32.9484,11.3048 C32.9484,10.5608 32.3444,9.9568 31.6004,9.9568" id="Fill-30" fill="#CCCCFF"></path>
                <path d="M65.8269,100.7156 C65.0829,100.7156 64.4789,101.3196 64.4789,102.0636 C64.4789,102.8086 65.0829,103.4116 65.8269,103.4116 C66.5719,103.4116 67.1759,102.8086 67.1759,102.0636 C67.1759,101.3196 66.5719,100.7156 65.8269,100.7156" id="Fill-32" fill="#CCCCFF"></path>
                <path d="M15.8885,53.5915 C14.8355,53.5915 13.9825,54.4455 13.9825,55.4975 C13.9825,56.5505 14.8355,57.4045 15.8885,57.4045 C16.9415,57.4045 17.7945,56.5505 17.7945,55.4975 C17.7945,54.4455 16.9415,53.5915 15.8885,53.5915" id="Fill-34" fill="#CCCCFF"></path>
                <path d="M76.7146,56.324 C76.6276,56.238 76.6276,56.097 76.7146,56.01 L77.0236,55.701 C77.3186,55.406 77.3616,54.919 77.0826,54.609 C76.7836,54.277 76.2736,54.267 75.9616,54.578 L75.6216,54.918 C75.5356,55.005 75.3956,55.005 75.3086,54.918 L74.9996,54.609 C74.7036,54.314 74.2176,54.27 73.9066,54.55 C73.5746,54.848 73.5656,55.359 73.8766,55.671 L74.2166,56.01 C74.3026,56.097 74.3026,56.238 74.2166,56.324 L73.9076,56.633 C73.6116,56.928 73.5686,57.415 73.8486,57.726 C74.1466,58.057 74.6576,58.067 74.9686,57.756 L75.3086,57.416 C75.3956,57.33 75.5356,57.33 75.6216,57.416 L75.9616,57.756 C76.2736,58.067 76.7836,58.057 77.0826,57.726 C77.3616,57.415 77.3186,56.928 77.0236,56.633 L76.7146,56.324 Z" id="Fill-36" fill="#CCCCFF"></path>
                <path d="M18.1189,30.5749 C18.4149,30.2789 18.4579,29.7929 18.1789,29.4819 C17.8799,29.1499 17.3689,29.1399 17.0569,29.4509 L16.7179,29.7909 C16.6309,29.8779 16.4909,29.8779 16.4039,29.7909 L16.0959,29.4829 C15.7999,29.1869 15.3129,29.1429 15.0019,29.4229 C14.6709,29.7209 14.6609,30.2329 14.9719,30.5439 L15.3109,30.8839 C15.3979,30.9699 15.3979,31.1109 15.3109,31.1969 L15.0029,31.5059 C14.7069,31.8019 14.6639,32.2879 14.9429,32.5989 C15.2419,32.9299 15.7529,32.9399 16.0639,32.6289 L16.4039,32.2899 C16.4909,32.2029 16.6309,32.2029 16.7179,32.2899 L17.0569,32.6289 C17.3689,32.9399 17.8799,32.9299 18.1789,32.5989 C18.4579,32.2879 18.4149,31.8019 18.1189,31.5059 L17.8099,31.1969 C17.7229,31.1109 17.7229,30.9699 17.8099,30.8839 L18.1189,30.5749 Z" id="Fill-38" fill="#CCCCFF"></path>
                <path d="M72.8133,87.4993 C72.7713,87.5893 72.7153,87.6693 72.6473,87.7383 C72.6353,87.7503 72.6223,87.7593 72.6103,87.7703 C72.5423,87.8313 72.4673,87.8813 72.3843,87.9183 C72.3733,87.9243 72.3623,87.9313 72.3493,87.9363 C72.2593,87.9723 72.1633,87.9903 72.0633,87.9943 C72.0513,87.9943 72.0423,88.0003 72.0313,88.0003 C72.0203,88.0003 72.0073,87.9933 71.9973,87.9933 C71.8983,87.9893 71.7983,87.9743 71.7003,87.9343 L62.1983,84.0283 L59.4433,82.8963 C59.5163,82.7353 59.5753,82.5663 59.6033,82.3843 L62.2873,64.9243 L64.9653,66.0253 L72.3613,69.0643 C72.4433,69.0983 72.5173,69.1433 72.5833,69.1973 C72.7143,69.3053 72.8123,69.4503 72.8623,69.6133 C72.8873,69.6953 72.9003,69.7813 72.9003,69.8693 L72.9003,87.1293 C72.9003,87.2423 72.8743,87.3453 72.8363,87.4413 C72.8293,87.4613 72.8223,87.4803 72.8133,87.4993 Z M31.1633,82.0803 L30.2493,76.1383 L58.5403,76.1383 L57.6253,82.0803 L31.1633,82.0803 Z M26.5903,84.0283 L17.0883,87.9343 C16.9903,87.9743 16.8903,87.9893 16.7923,87.9933 C16.7813,87.9933 16.7693,88.0003 16.7573,88.0003 C16.7473,88.0003 16.7373,87.9943 16.7253,87.9943 C16.6253,87.9903 16.5293,87.9723 16.4393,87.9363 C16.4263,87.9313 16.4163,87.9243 16.4043,87.9183 C16.3213,87.8813 16.2473,87.8313 16.1793,87.7713 C16.1673,87.7593 16.1533,87.7503 16.1413,87.7383 C16.0733,87.6693 16.0183,87.5893 15.9753,87.4993 C15.9663,87.4803 15.9593,87.4613 15.9533,87.4413 C15.9153,87.3453 15.8883,87.2423 15.8883,87.1293 L15.8883,69.8693 C15.8883,69.5163 16.1013,69.1993 16.4273,69.0643 L26.5013,64.9243 L29.1853,82.3843 C29.2133,82.5663 29.2723,82.7353 29.3453,82.8963 L26.5903,84.0283 Z M27.4423,57.8783 C27.3283,57.1343 27.2353,56.3883 27.1633,55.6423 C27.0183,54.1513 26.9593,52.6603 26.9823,51.1763 C27.0043,49.6923 27.1103,48.2153 27.2963,46.7513 C27.3893,46.0193 27.5023,45.2913 27.6353,44.5663 C28.3003,40.9443 29.4623,37.4273 31.0903,34.1173 C31.7423,32.7933 32.4673,31.5023 33.2663,30.2513 C34.4633,28.3743 35.8253,26.5873 37.3433,24.9113 L40.9733,20.9043 L44.3943,17.1273 L51.4453,24.9113 C53.4693,27.1463 55.2143,29.5793 56.6663,32.1573 C57.3913,33.4463 58.0423,34.7723 58.6193,36.1273 C59.1953,37.4833 59.6963,38.8683 60.1193,40.2773 C61.1763,43.7983 61.7503,47.4663 61.8063,51.1763 C61.8303,52.6603 61.7703,54.1513 61.6253,55.6423 C61.5533,56.3883 61.4603,57.1343 61.3463,57.8783 L60.6963,62.1083 L60.3833,64.1423 L58.8473,74.1383 L29.9423,74.1383 L28.4053,64.1423 L28.0923,62.1083 L27.4423,57.8783 Z M73.1223,67.2143 L62.5993,62.8903 L63.3233,58.1833 C65.2553,45.6113 61.4663,32.9953 52.9273,23.5693 L45.8763,15.7853 C45.4983,15.3663 44.9593,15.1273 44.3943,15.1273 C43.8303,15.1273 43.2913,15.3663 42.9123,15.7853 L35.8613,23.5693 C27.3223,32.9953 23.5333,45.6113 25.4653,58.1833 L26.1893,62.8903 L15.6673,67.2143 C14.5863,67.6593 13.8883,68.7013 13.8883,69.8693 L13.8883,87.1293 C13.8883,88.7123 15.1753,90.0003 16.7573,90.0003 C17.1323,90.0003 17.5003,89.9273 17.8483,89.7843 L31.7263,84.0803 L33.1623,84.0803 L31.7673,89.5413 C31.6913,89.8413 31.7573,90.1593 31.9473,90.4023 C32.1363,90.6463 32.4273,90.7893 32.7363,90.7893 L56.0523,90.7893 C56.3613,90.7893 56.6523,90.6463 56.8413,90.4023 C57.0313,90.1593 57.0973,89.8413 57.0213,89.5413 L55.6263,84.0803 L57.0623,84.0803 L70.9403,89.7843 C71.2893,89.9273 71.6563,90.0003 72.0313,90.0003 C73.6133,90.0003 74.9003,88.7123 74.9003,87.1293 L74.9003,69.8693 C74.9003,68.7013 74.2023,67.6593 73.1223,67.2143 Z" id="Fill-40" fill="#490098"></path>
                <path d="M44.3943,56.1672 C48.3043,56.1672 51.4733,52.9972 51.4733,49.0872 C51.4733,45.1772 48.3043,42.0082 44.3943,42.0082 C40.4843,42.0082 37.3153,45.1772 37.3153,49.0872 C37.3153,52.9972 40.4843,56.1672 44.3943,56.1672" id="Fill-42" fill="#490098"></path>
                <path d="M37.3152,95.2908 C36.7622,95.2908 36.3152,95.7388 36.3152,96.2908 L36.3152,110.6688 C36.3152,111.2208 36.7622,111.6688 37.3152,111.6688 C37.8682,111.6688 38.3152,111.2208 38.3152,110.6688 L38.3152,96.2908 C38.3152,95.7388 37.8682,95.2908 37.3152,95.2908" id="Fill-44" fill="#490098"></path>
                <path d="M51.4734,95.2908 C50.9204,95.2908 50.4734,95.7388 50.4734,96.2908 L50.4734,110.6688 C50.4734,111.2208 50.9204,111.6688 51.4734,111.6688 C52.0264,111.6688 52.4734,111.2208 52.4734,110.6688 L52.4734,96.2908 C52.4734,95.7388 52.0264,95.2908 51.4734,95.2908" id="Fill-46" fill="#490098"></path>
                <g id="Group-50" transform="translate(43.000000, 100.510000)">
                    <mask id="mask-4" fill="white">
                        <use xlink:href="#path-3"></use>
                    </mask>
                    <g id="Clip-49"></g>
                    <path d="M1.3943,0.6221 C0.8413,0.6221 0.3943,1.0701 0.3943,1.6221 L0.3943,16.0001 C0.3943,16.5521 0.8413,17.0001 1.3943,17.0001 C1.9473,17.0001 2.3943,16.5521 2.3943,16.0001 L2.3943,1.6221 C2.3943,1.0701 1.9473,0.6221 1.3943,0.6221" id="Fill-48" fill="#490098" mask="url(#mask-4)"></path>
                </g>
            </g>
        </g>
    </g>
</svg>