<svg xmlns="http://www.w3.org/2000/svg" xmlns:xlink="http://www.w3.org/1999/xlink" viewBox="0 0 1439.8 592.25"><defs><style>.a{isolation:isolate;}.b{fill:url(#a);}.c{fill:#bfb5cc;}.d{fill:#4b4c5b;}.e{fill:#31323f;}.f{fill:#7894bb;}.g{fill:#fef8e8;}.h{fill:#71618a;}.i{fill:#fff;}.j{fill:url(#b);}.k{fill:url(#c);}.l{fill:url(#d);}.m{fill:url(#e);}.n,.t,.u{fill:#897ba8;}.o{fill:#dfdbda;}.p,.r,.s,.w{fill:#9f9ec6;}.q{fill:#fdf7e7;}.q,.s,.t{opacity:0.6;}.q,.s,.t,.w{mix-blend-mode:multiply;}.r,.u{mix-blend-mode:overlay;}.v{fill:#fbcbd1;}.w{opacity:0.3;}</style><linearGradient id="a" x1="719.9" y1="1.57" x2="719.9" y2="567.69" gradientUnits="userSpaceOnUse"><stop offset="0" stop-color="#a8bfff"/><stop offset="1" stop-color="#fcced4"/></linearGradient><linearGradient id="b" x1="491.38" y1="408.29" x2="753.58" y2="408.29" gradientUnits="userSpaceOnUse"><stop offset="0" stop-color="#fff" stop-opacity="0"/><stop offset="1" stop-color="#fff"/></linearGradient><linearGradient id="c" x1="694.02" y1="269.99" x2="826.51" y2="269.99" xlink:href="#b"/><linearGradient id="d" x1="593.83" y1="481.74" x2="775.87" y2="481.74" xlink:href="#b"/><linearGradient id="e" x1="638.23" y1="449.54" x2="702.02" y2="449.54" xlink:href="#b"/></defs><title>launch-banner3</title><g class="a"><rect class="b" width="1439.8" height="578.42"/><path class="c" d="M0,578.42l15.41-6.52a53.52,53.52,0,0,1,23.51-4.16l28.14,1.39a53.47,53.47,0,0,0,21.62-3.41l2.8-1.06a53.53,53.53,0,0,1,24-3.23l46.35,4.38L266.36,553.2h41.8l41.7.36,127.4-5.16a32.6,32.6,0,0,1,4.19.36l67.75,10.09a33.58,33.58,0,0,0,17.1-1.91l.23-.09a33.55,33.55,0,0,1,19.24-1.52l.28.06a33.48,33.48,0,0,0,12.54.32l56.92-9.36A33.36,33.36,0,0,1,664,546l233,21.09,164.21-6.87a29.25,29.25,0,0,1,4.86.21l52.75,6.8a28.7,28.7,0,0,0,16.14-2.62l15.76-7.61a28.62,28.62,0,0,1,16.67-2.54l30.13,4.45,99.38-10.07a19.36,19.36,0,0,1,8.34,1l33.32,11.67a19.25,19.25,0,0,0,8.35,1l19.56-2a19.31,19.31,0,0,1,7.25.63l19.78,5.63a19.36,19.36,0,0,0,13-.85h0a17.31,17.31,0,0,1,21.36,6.44l3.94,6Z"/><polygon class="d" points="338.75 545.38 338.75 540 324.15 540 307.29 546.21 307.29 567.13 341 567.13 341 546.21 338.75 545.38"/><rect class="e" x="307.75" y="546.42" width="13.65" height="14.24"/><polygon class="f" points="355.6 567.13 321.89 567.13 321.89 546.21 338.75 540 355.6 546.21 355.6 567.13"/><polygon class="g" points="354.31 566.09 323.19 566.09 323.19 546.77 338.75 541.04 354.31 546.77 354.31 566.09"/><polygon class="d" points="384.38 533.21 367.52 539.42 367.52 560.43 412.73 560.43 412.73 533.21 384.38 533.21"/><polygon class="e" points="367.75 539.6 395.54 539.6 395.54 559.56 368 559.85 367.75 539.6"/><polygon class="f" points="429.58 560.34 395.87 560.34 395.87 539.42 412.73 533.21 429.58 539.42 429.58 560.34"/><polygon class="g" points="396.85 540.14 396.85 559.85 428.6 559.85 428.6 540.14 412.73 534.3 396.85 540.14"/><rect class="d" x="410.04" y="549.41" width="6.7" height="9.79"/><rect class="d" x="336.45" y="553.96" width="4.59" height="6.7"/><path class="h" d="M1348.14,577.31s-44.46-11.94-53.08-15.21-33.85-.71-51.1-4-39.81-13.27-47.11-10-41.81,28.53-45.13,28.53-54.41-8.63-54.41-8.63l-49.73,9.29L942.69,544.13c-8.4,0-124.65,16.53-124.65,16.53l-73.16,4.05-97.16-1.27-22.89-5.51L588,563.38,509.23,563l-47.65-10.53-140.31,6.3-88.44,5.89L0,578.42v13.83H1439.8V578.42h-8.06Z"/><polygon class="i" points="941.89 548.45 1042.1 583.18 971.42 569.02 960.47 559.73 948.53 558.07 941.89 548.45"/><polygon class="i" points="1097.95 571.78 1152.81 580.63 1133.34 585.06 1109.89 578.42 1087.77 583.18 1097.95 571.78"/><polygon class="i" points="1201.47 550.55 1245.27 563.38 1264.29 565.81 1296.58 578.86 1257.1 569.02 1238.26 574.34 1215.39 559.73 1197.49 558.96 1201.47 550.55"/><polygon class="i" points="1292.44 562.96 1342.59 578.42 1307.2 574.88 1292.44 562.96"/><path class="j" d="M751.56,368.22l-257,86a.42.42,0,0,1-.27-.8L749.6,362.55a3,3,0,0,1,2,5.65Z"/><path class="k" d="M824.83,251.44l-128.2,42a.35.35,0,0,1-.23-.67l126.8-46a2.5,2.5,0,1,1,1.7,4.7Z"/><path class="l" d="M774.18,454.64,596.44,513.69a.35.35,0,1,1-.23-.67l176.34-63.11a2.5,2.5,0,1,1,1.69,4.71Z"/><path class="m" d="M700.34,442.85l-59.5,18.26a.35.35,0,0,1-.23-.67l58.1-22.31a2.5,2.5,0,1,1,1.79,4.67Z"/><rect x="764.87" y="364.98" width="151.61" height="2.25" transform="translate(-75.41 405.61) rotate(-26)"/><rect x="775.06" y="384" width="2.25" height="14.12" transform="translate(-16.39 747.73) rotate(-50.97)"/><polygon class="n" points="805.85 459.39 781.67 351.47 805.29 338.28 822.24 437.1 805.85 459.39"/><path d="M805.85,460.51l-.24,0a1.12,1.12,0,0,1-.86-.86L780.57,351.72a1.13,1.13,0,0,1,.55-1.23l23.62-13.19a1.1,1.1,0,0,1,1,0,1.13,1.13,0,0,1,.63.82l17,98.82a1.12,1.12,0,0,1-.2.85l-16.4,22.29A1.12,1.12,0,0,1,805.85,460.51ZM783,352,806.4,456.73l14.65-19.92L804.45,340Z"/><polygon class="n" points="787.94 449.51 768.96 348.01 789.26 333.32 808.41 442.13 787.94 449.51"/><path d="M787.94,450.63a1.12,1.12,0,0,1-1.1-.92l-19-101.49a1.13,1.13,0,0,1,.45-1.12l20.3-14.69a1.15,1.15,0,0,1,1.08-.13,1.12,1.12,0,0,1,.68.85l19.16,108.81a1.12,1.12,0,0,1-.73,1.25l-20.47,7.37A1,1,0,0,1,787.94,450.63ZM770.19,348.5,788.8,448l18.34-6.6L788.46,335.29Z"/><path d="M805.89,460.56l-26.74-7.24L769.48,386,886,324.7l1,2L771.93,387.24l9.14,63.66,233.81-85.21,82.95-45.47,47,15.67L1046,376.65Zm-22-8.29,21.92,5.94,239.36-83.66,93.21-38.43-40.32-13.45-82.32,45.1Z"/><path d="M894.47,428.51a1.13,1.13,0,0,1-.36-.06L870,420.34a1.1,1.1,0,0,1-.76-.92l-9.84-79.9a1.13,1.13,0,0,1,1.41-1.23l22.33,5.91a1.11,1.11,0,0,1,.82.93l11.66,82.1a1.14,1.14,0,0,1-.4,1A1.11,1.11,0,0,1,894.47,428.51Zm-23.13-10.07,21.76,7.3-11.3-79.56-20-5.29Z"/><path class="n" d="M836.39,221.74h0a36.73,36.73,0,0,0,24.53,28.31L1162,350.46a323.46,323.46,0,0,0,39.19-7.07Z"/><path d="M1162,351.58a1,1,0,0,1-.35-.05L860.56,251.12a37.86,37.86,0,0,1-25.28-29.18,1.13,1.13,0,0,1,1.46-1.27l364.84,121.66a1.12,1.12,0,0,1,.77,1.11,1.13,1.13,0,0,1-.85,1.05,329.6,329.6,0,0,1-39.34,7.09ZM837.89,223.42A35.56,35.56,0,0,0,861.27,249l300.9,100.34a330.43,330.43,0,0,0,35-6.1Z"/><path class="n" d="M1262.22,306.8,919.85,192.63c-43.1,5.17-69.4,18.34-84.17,28.87l365.55,121.89C1227.05,337,1257,325.69,1262.22,306.8Z"/><path d="M1201.23,344.52a1.13,1.13,0,0,1-.36-.06L835.32,222.57a1.15,1.15,0,0,1-.76-.9,1.13,1.13,0,0,1,.46-1.08c14.55-10.38,41.05-23.84,84.7-29.07a1,1,0,0,1,.49,0l342.36,114.16a1.12,1.12,0,0,1,.73,1.36c-3,10.84-16.1,26.13-61.8,37.4ZM838.16,221.14l363.11,121.09c24.13-6,53.68-16.82,59.56-34.71L919.74,193.78C878.48,198.76,852.81,211.14,838.16,221.14Z"/><path d="M931.27,196.44c-57,12.58-83.69,29.93-84,30.13a.23.23,0,0,0-.1.12,55.09,55.09,0,0,0-2.31,12.68l.45.49a55,55,0,0,1,2.29-12.94c1.56-1,28.49-17.92,84.54-30.18Z"/><path d="M902,224.23a457,457,0,0,1,58.2-18.13l-.85-.28c-56.65,14-83.56,30-83.86,30.13a.2.2,0,0,0-.1.12,51.49,51.49,0,0,0-2.88,17.86l.49.16a51,51,0,0,1,2.81-17.77C876.72,235.81,885.33,230.82,902,224.23Z"/><path d="M988.16,215.41l-.82-.27c-25.84,7.15-45.13,14-57.67,18.83-17.26,6.71-25.81,11.31-25.9,11.36a.22.22,0,0,0-.1.11,52.59,52.59,0,0,0-2.86,10.11,41,41,0,0,0-.64,7.59l.48.16a40.1,40.1,0,0,1,.63-7.66,52.63,52.63,0,0,1,2.8-9.93c.88-.47,9.39-4.92,25.76-11.29A611.17,611.17,0,0,1,988.16,215.41Z"/><path d="M1015.15,224.41c-55.57,17.23-82.83,30.15-83.13,30.29a.25.25,0,0,0-.11.12,51.42,51.42,0,0,0-3.18,9.64,39.17,39.17,0,0,0-1,7.88l.48.16a38.13,38.13,0,0,1,1-7.92,51.24,51.24,0,0,1,3.11-9.48c1.66-.78,29.11-13.56,83.63-30.43Z"/><path d="M1042.81,233.64c-54.87,19-82.24,30.32-82.54,30.44a.26.26,0,0,0-.12.11,51.25,51.25,0,0,0-3.5,9.19,37.54,37.54,0,0,0-1.36,8.14l.48.16c.37-8.29,4.32-16.32,4.76-17.19,1.7-.7,29.25-12,83-30.61Z"/><path d="M1070.34,242.81c-54.06,20.91-81.53,30.55-81.82,30.65a.24.24,0,0,0-.13.11,51.48,51.48,0,0,0-3.83,8.73,37.66,37.66,0,0,0-1.79,8.38l.47.16a36.17,36.17,0,0,1,1.78-8.38,51.46,51.46,0,0,1,3.74-8.57c1.74-.61,29.35-10.35,82.3-30.84Z"/><path d="M1097.73,252c-53.13,22.9-80.67,30.81-81,30.89a.24.24,0,0,0-.14.1c-.07.11-5.36,8.34-6.42,16.89l.46.15c1-8,5.78-15.85,6.32-16.7,1.77-.51,29.42-8.67,81.43-31.1Z"/><path d="M1125.67,261.26,1125,261c-52.12,25-79.7,31.12-80,31.18a.31.31,0,0,0-.15.1c-.07.1-5.9,8.2-7.3,16.64l.46.15c1.28-7.92,6.59-15.6,7.18-16.44a223,223,0,0,0,23.71-7.33A594.84,594.84,0,0,0,1125.67,261.26Z"/><path d="M1152.81,270.31l-.64-.21c-51,27.15-78.61,31.46-78.9,31.51a.22.22,0,0,0-.15.08c-.08.1-6.49,8.05-8.25,16.37l.46.15c1.63-7.8,7.46-15.33,8.1-16.14,1-.16,8.93-1.53,23.3-6.55C1108.89,291.28,1127.92,283.58,1152.81,270.31Z"/><path d="M1179.85,279.33l-.61-.2c-49.87,29.4-77.43,31.84-77.72,31.86a.21.21,0,0,0-.16.08c-.08.09-7.11,7.86-9.26,16.07l.46.15c2-7.69,8.39-15,9.1-15.83.95-.09,8.84-.95,22.89-5.75C1136.57,301.6,1155.39,293.78,1179.85,279.33Z"/><path d="M1206.79,288.31l-.58-.19c-48.63,31.73-76.14,32.25-76.44,32.25a.24.24,0,0,0-.16.07c-.09.09-7.8,7.65-10.35,15.75l.45.15c2.37-7.58,9.4-14.73,10.17-15.49,1,0,8.76-.38,22.48-5C1164.23,311.93,1182.82,304,1206.79,288.31Z"/><path d="M1233.08,297.08c-47.3,34.12-74.76,32.7-75,32.68a.2.2,0,0,0-.17.05c-.1.09-8.55,7.39-11.53,15.41l.46.16c2.79-7.5,10.48-14.41,11.31-15.14,1.89.07,29.34.43,75.54-33Z"/><path d="M1259.85,306c-14.17,11.27-32.77,23.69-52,29.77-13.86,4.4-21.53,3.37-21.61,3.36a.24.24,0,0,0-.18.05,55.19,55.19,0,0,0-9.22,9.18l.7-.12a55.09,55.09,0,0,1,8.74-8.62c1,.11,8.59.77,21.67-3.37,19.38-6.14,38.16-18.71,52.41-30.07Z"/><rect x="1259.8" y="303.25" width="2.25" height="82.67" transform="translate(-41.21 230.1) rotate(-10.26)"/><rect x="842.32" y="220.79" width="2.25" height="84.93" transform="translate(-33.92 158.68) rotate(-10.54)"/><rect x="926.17" y="191.99" width="2.25" height="86.37" transform="matrix(0.98, -0.17, 0.17, 0.98, -26.81, 165.46)"/><rect x="906.73" y="243.56" width="2.25" height="31.67" transform="translate(-31.61 165.1) rotate(-10.21)"/><rect x="966.49" y="263.71" width="2.25" height="30.94" transform="translate(-34.17 176.02) rotate(-10.21)"/><rect x="1017.93" y="280.87" width="2.25" height="30.73" transform="translate(-36.38 185.42) rotate(-10.22)"/><rect x="1053.52" y="292.62" width="2.25" height="30.73" transform="translate(-37.9 191.92) rotate(-10.22)"/><rect x="1187.59" y="338.12" width="2.25" height="29.75" transform="translate(-43.93 217.95) rotate(-10.29)"/><line class="o" x1="1011.88" y1="223.32" x2="1027.04" y2="305.74"/><rect x="1018.33" y="222.63" width="2.25" height="83.8" transform="translate(-31.04 188.85) rotate(-10.43)"/><line class="o" x1="1118.45" y1="258.81" x2="1133.37" y2="339.88"/><rect x="1124.78" y="258.13" width="2.25" height="82.44" transform="translate(-35.58 208.69) rotate(-10.43)"/><line class="o" x1="1186.07" y1="281.4" x2="1200.86" y2="361.79"/><rect x="1192.34" y="280.73" width="2.25" height="81.73" transform="translate(-38.49 221.28) rotate(-10.43)"/><path class="n" d="M1272.57,379.68l-331-110.38c-74.08,8.88-96.85,42.22-96.85,42.22l331,110.37S1263.49,412.77,1272.57,379.68Z"/><path d="M1175.71,423a1.13,1.13,0,0,1-.36-.06l-331-110.38a1.14,1.14,0,0,1-.71-.71,1.12,1.12,0,0,1,.14-1c.94-1.38,23.91-33.86,97.65-42.7a1.16,1.16,0,0,1,.49.05l331,110.38a1.12,1.12,0,0,1,.73,1.36c-9.17,33.45-94.21,42.67-97.82,43ZM846.55,311l329.28,109.8a311.39,311.39,0,0,0,44.63-8.65c20.34-5.65,45.42-15.72,50.71-31.7l-329.74-110C877,278.23,851.51,305,846.55,311Z"/><path d="M951.42,272.59l-1-.33a210.15,210.15,0,0,0-72.56,26.46A173.73,173.73,0,0,0,855,315l.54.18a172,172,0,0,1,22.63-16A209.5,209.5,0,0,1,951.42,272.59Z"/><path d="M972.38,279.58l-.93-.31a238.52,238.52,0,0,0-73,27,198.08,198.08,0,0,0-23.19,15.48l.54.18a200.05,200.05,0,0,1,22.91-15.25A237.85,237.85,0,0,1,972.38,279.58Z"/><path d="M992.45,286.27c-48.85,10.57-83.36,32.47-96.91,42.2l.57.19c13.77-9.86,48.38-31.68,97.24-42.09Z"/><path d="M1013.44,293.27c-48.11,11.61-83.34,32.53-97.57,42l.58.19c14.47-9.57,49.78-30.41,97.85-41.88Z"/><path d="M1034.43,300.27A382,382,0,0,0,936.23,342l.59.2a381.44,381.44,0,0,1,98.44-41.69Z"/><path d="M1055.41,307.26a481,481,0,0,0-98.78,41.58l.61.21a481,481,0,0,1,99-41.52Z"/><path d="M1076.38,314.26a641.41,641.41,0,0,0-99.31,41.4l.63.21a641.76,641.76,0,0,1,99.45-41.35Z"/><path d="M1097.35,321.25a949.84,949.84,0,0,0-99.8,41.24l.66.22a947.3,947.3,0,0,1,99.89-41.21Z"/><path d="M1118.31,328.24c-44.35,16.55-82.55,33.19-100.23,41.09l.68.23c18-8,56.1-24.61,100.28-41.08Z"/><path d="M1160.23,342.22c-42.82,18.39-81.9,33.59-100.94,40.85l.72.24c19.31-7.37,58.3-22.55,100.9-40.86Z"/><path d="M1181.18,349.2c-42,19.28-81.5,33.83-101.22,40.77l.75.25c20-7.05,59.31-21.59,101.14-40.79Z"/><path d="M1202.13,356.19a813.08,813.08,0,0,1-101.44,40.69l.77.26a813.38,813.38,0,0,0,101.32-40.73Z"/><path d="M1223.08,363.17c-40.49,21-80.56,34.34-101.6,40.64l.79.26c21.31-6.4,61.19-19.79,101.44-40.68Z"/><path d="M1244,370.16c-39.71,21.78-80,34.62-101.7,40.6l.81.27c22-6.08,62.06-19,101.51-40.67Z"/><path d="M1265,377.14c-38.93,22.57-79.41,34.92-101.75,40.59l.85.28c22.57-5.78,62.84-18.18,101.51-40.67Z"/><line class="o" x1="858.6" y1="298.31" x2="1211.54" y2="416"/><rect x="1033.94" y="171.14" width="2.25" height="372.05" transform="translate(368.83 1226.09) rotate(-71.56)"/><path d="M1037,389.24a8.3,8.3,0,0,1-8.22-7.31l2.24-.27a6,6,0,0,0,8.33,4.85L1152.52,339l18.6-24.68,1.8,1.36-19,25.15-.28.12-113.42,47.66A8.25,8.25,0,0,1,1037,389.24Z"/><path d="M981.4,399.15a1.26,1.26,0,0,1-.43-.08l-24.42-10a1.14,1.14,0,0,1-.69-.88l-5.82-41a1.16,1.16,0,0,1,.39-1,1.14,1.14,0,0,1,1.08-.2L975.65,354a1.13,1.13,0,0,1,.76.91l6.1,43a1.13,1.13,0,0,1-1.11,1.28ZM958,387.2l22,9-5.73-40.33-21.76-7.25Z"/><line class="n" x1="810.26" y1="367.29" x2="825.81" y2="373.35"/><rect x="816.91" y="361.98" width="2.25" height="16.68" transform="translate(175.98 998.08) rotate(-68.71)"/><polygon class="n" points="826.81 435.43 771.43 455.61 697.04 440.33 716.02 424.2 746.12 411.65 826.81 435.43"/><path d="M771.43,456.74a.91.91,0,0,1-.23,0l-74.39-15.28a1.13,1.13,0,0,1-.5-2l19-16.12a1,1,0,0,1,.29-.18l30.09-12.56a1.14,1.14,0,0,1,.75,0l80.69,23.78a1.13,1.13,0,0,1,.07,2.14l-55.38,20.18A1.22,1.22,0,0,1,771.43,456.74Zm-71.91-17.05,71.82,14.76,51.87-18.91-77-22.7-29.56,12.33Z"/><line class="n" x1="716.03" y1="424.2" x2="801.96" y2="444.49"/><rect x="757.87" y="390.2" width="2.25" height="88.29" transform="translate(161.88 1073.24) rotate(-76.72)"/><path d="M1026.29,298.08l-1.61-1.58c.48-.49,48.82-48.78,136.85-65.26l.41,2.21A298.32,298.32,0,0,0,1061,272C1038.39,285.89,1026.41,298,1026.29,298.08Z"/><path class="n" d="M1138.1,222.81l14.34,96.47,30.54-6.72-13.78-85.15a10.22,10.22,0,0,0-12.1-8.39Z"/><path d="M1152.44,320.4a1.14,1.14,0,0,1-1.12-1L1137,223a1.12,1.12,0,0,1,.89-1.27l19-3.79a11.34,11.34,0,0,1,13.43,9.31l13.78,85.15a1.13,1.13,0,0,1-.87,1.28l-30.54,6.71Zm-13.07-96.69,14,94.21,28.33-6.23-13.61-84.1a9.1,9.1,0,0,0-10.77-7.47Z"/><rect x="1007.64" y="345.88" width="108.24" height="2.25" transform="translate(-51.49 438.74) rotate(-22.81)"/><rect x="1036.72" y="354.55" width="104.25" height="2.25" transform="translate(-49.95 479.09) rotate(-24.27)"/><rect x="764.87" y="364.98" width="151.61" height="2.25" transform="translate(-75.41 405.61) rotate(-26)"/><rect x="775.06" y="384" width="2.25" height="14.12" transform="translate(-16.39 747.73) rotate(-50.97)"/><polygon class="p" points="805.85 459.39 781.67 351.47 805.29 338.28 822.24 437.1 805.85 459.39"/><path d="M805.85,460.51l-.24,0a1.12,1.12,0,0,1-.86-.86L780.57,351.72a1.13,1.13,0,0,1,.55-1.23l23.62-13.19a1.1,1.1,0,0,1,1,0,1.13,1.13,0,0,1,.63.82l17,98.82a1.12,1.12,0,0,1-.2.85l-16.4,22.29A1.12,1.12,0,0,1,805.85,460.51ZM783,352,806.4,456.73l14.65-19.92L804.45,340Z"/><polygon class="p" points="787.94 449.51 768.96 348.01 789.26 333.32 808.41 442.13 787.94 449.51"/><path d="M787.94,450.63a1.12,1.12,0,0,1-1.1-.92l-19-101.49a1.13,1.13,0,0,1,.45-1.12l20.3-14.69a1.15,1.15,0,0,1,1.08-.13,1.12,1.12,0,0,1,.68.85l19.16,108.81a1.12,1.12,0,0,1-.73,1.25l-20.47,7.37A1,1,0,0,1,787.94,450.63ZM770.19,348.5,788.8,448l18.34-6.6L788.46,335.29Z"/><path d="M805.89,460.56l-26.74-7.24L769.48,386,886,324.7l1,2L771.93,387.24l9.14,63.66,233.81-85.21,82.95-45.47,47,15.67L1046,376.65Zm-22-8.29,21.92,5.94,239.36-83.66,93.21-38.43-40.32-13.45-82.32,45.1Z"/><path d="M894.47,428.51a1.13,1.13,0,0,1-.36-.06L870,420.34a1.1,1.1,0,0,1-.76-.92l-9.84-79.9a1.13,1.13,0,0,1,1.41-1.23l22.33,5.91a1.11,1.11,0,0,1,.82.93l11.66,82.1a1.14,1.14,0,0,1-.4,1A1.11,1.11,0,0,1,894.47,428.51Zm-23.13-10.07,21.76,7.3-11.3-79.56-20-5.29Z"/><path class="p" d="M836.39,221.74h0a36.73,36.73,0,0,0,24.53,28.31L1162,350.46a323.46,323.46,0,0,0,39.19-7.07Z"/><path d="M1162,351.58a1,1,0,0,1-.35-.05L860.56,251.12a37.86,37.86,0,0,1-25.28-29.18,1.13,1.13,0,0,1,1.46-1.27l364.84,121.66a1.12,1.12,0,0,1,.77,1.11,1.13,1.13,0,0,1-.85,1.05,329.6,329.6,0,0,1-39.34,7.09ZM837.89,223.42A35.56,35.56,0,0,0,861.27,249l300.9,100.34a330.43,330.43,0,0,0,35-6.1Z"/><path class="p" d="M1262.22,306.8,919.85,192.63c-43.1,5.17-69.4,18.34-84.17,28.87l365.55,121.89C1227.05,337,1257,325.69,1262.22,306.8Z"/><path d="M931.27,196.44c-57,12.58-83.69,29.93-84,30.13a.23.23,0,0,0-.1.12,55.09,55.09,0,0,0-2.31,12.68l.45.49a55,55,0,0,1,2.29-12.94c1.56-1,28.49-17.92,84.54-30.18Z"/><path d="M902,224.23a457,457,0,0,1,58.2-18.13l-.85-.28c-56.65,14-83.56,30-83.86,30.13a.2.2,0,0,0-.1.12,51.49,51.49,0,0,0-2.88,17.86l.49.16a51,51,0,0,1,2.81-17.77C876.72,235.81,885.33,230.82,902,224.23Z"/><path d="M988.16,215.41l-.82-.27c-25.84,7.15-45.13,14-57.67,18.83-17.26,6.71-25.81,11.31-25.9,11.36a.22.22,0,0,0-.1.11,52.59,52.59,0,0,0-2.86,10.11,41,41,0,0,0-.64,7.59l.48.16a40.1,40.1,0,0,1,.63-7.66,52.63,52.63,0,0,1,2.8-9.93c.88-.47,9.39-4.92,25.76-11.29A611.17,611.17,0,0,1,988.16,215.41Z"/><path d="M1015.15,224.41c-55.57,17.23-82.83,30.15-83.13,30.29a.25.25,0,0,0-.11.12,51.42,51.42,0,0,0-3.18,9.64,39.17,39.17,0,0,0-1,7.88l.48.16a38.13,38.13,0,0,1,1-7.92,51.24,51.24,0,0,1,3.11-9.48c1.66-.78,29.11-13.56,83.63-30.43Z"/><path d="M1042.81,233.64c-54.87,19-82.24,30.32-82.54,30.44a.26.26,0,0,0-.12.11,51.25,51.25,0,0,0-3.5,9.19,37.54,37.54,0,0,0-1.36,8.14l.48.16c.37-8.29,4.32-16.32,4.76-17.19,1.7-.7,29.25-12,83-30.61Z"/><path d="M1070.34,242.81c-54.06,20.91-81.53,30.55-81.82,30.65a.24.24,0,0,0-.13.11,51.48,51.48,0,0,0-3.83,8.73,37.66,37.66,0,0,0-1.79,8.38l.47.16a36.17,36.17,0,0,1,1.78-8.38,51.46,51.46,0,0,1,3.74-8.57c1.74-.61,29.35-10.35,82.3-30.84Z"/><path d="M1097.73,252c-53.13,22.9-80.67,30.81-81,30.89a.24.24,0,0,0-.14.1c-.07.11-5.36,8.34-6.42,16.89l.46.15c1-8,5.78-15.85,6.32-16.7,1.77-.51,29.42-8.67,81.43-31.1Z"/><path d="M1125.67,261.26,1125,261c-52.12,25-79.7,31.12-80,31.18a.31.31,0,0,0-.15.1c-.07.1-5.9,8.2-7.3,16.64l.46.15c1.28-7.92,6.59-15.6,7.18-16.44a223,223,0,0,0,23.71-7.33A594.84,594.84,0,0,0,1125.67,261.26Z"/><path d="M1152.81,270.31l-.64-.21c-51,27.15-78.61,31.46-78.9,31.51a.22.22,0,0,0-.15.08c-.08.1-6.49,8.05-8.25,16.37l.46.15c1.63-7.8,7.46-15.33,8.1-16.14,1-.16,8.93-1.53,23.3-6.55C1108.89,291.28,1127.92,283.58,1152.81,270.31Z"/><path d="M1179.85,279.33l-.61-.2c-49.87,29.4-77.43,31.84-77.72,31.86a.21.21,0,0,0-.16.08c-.08.09-7.11,7.86-9.26,16.07l.46.15c2-7.69,8.39-15,9.1-15.83.95-.09,8.84-.95,22.89-5.75C1136.57,301.6,1155.39,293.78,1179.85,279.33Z"/><path d="M1206.79,288.31l-.58-.19c-48.63,31.73-76.14,32.25-76.44,32.25a.24.24,0,0,0-.16.07c-.09.09-7.8,7.65-10.35,15.75l.45.15c2.37-7.58,9.4-14.73,10.17-15.49,1,0,8.76-.38,22.48-5C1164.23,311.93,1182.82,304,1206.79,288.31Z"/><path d="M1233.08,297.08c-47.3,34.12-74.76,32.7-75,32.68a.2.2,0,0,0-.17.05c-.1.09-8.55,7.39-11.53,15.41l.46.16c2.79-7.5,10.48-14.41,11.31-15.14,1.89.07,29.34.43,75.54-33Z"/><path d="M1259.85,306c-14.17,11.27-32.77,23.69-52,29.77-13.86,4.4-21.53,3.37-21.61,3.36a.24.24,0,0,0-.18.05,55.19,55.19,0,0,0-9.22,9.18l.7-.12a55.09,55.09,0,0,1,8.74-8.62c1,.11,8.59.77,21.67-3.37,19.38-6.14,38.16-18.71,52.41-30.07Z"/><path class="q" d="M836.39,221.74h0a36.73,36.73,0,0,0,24.53,28.31L1162,350.46a323.46,323.46,0,0,0,39.19-7.07Z"/><path class="r" d="M1259.27,311.09a23.91,23.91,0,0,1-2.19,5.3,26.2,26.2,0,0,0,5.14-9.59L919.85,192.63c-43.1,5.17-69.4,18.34-84.17,28.87l2.31.77c15.46-9.78,40.52-20.74,78.92-25.34Z"/><rect x="1259.8" y="303.25" width="2.25" height="82.67" transform="translate(-41.21 230.1) rotate(-10.26)"/><rect x="842.32" y="220.79" width="2.25" height="84.93" transform="translate(-33.92 158.68) rotate(-10.54)"/><path d="M1262.57,305.73,920.21,191.57a1,1,0,0,0-.49,0c-43.65,5.23-70.15,18.69-84.7,29.07a1.13,1.13,0,0,0-.46,1.08,1.15,1.15,0,0,0,.76.9L929.48,254l4.24,23.92,2.21-.39-4-22.73,269,89.69a1.13,1.13,0,0,0,.36.06l.27,0c45.7-11.27,58.83-26.56,61.8-37.4A1.12,1.12,0,0,0,1262.57,305.73ZM838.16,221.14c14.54-9.93,40-22.19,80.67-27.24L929,251.45Zm363.11,121.09-269.81-90-10.28-58,339.65,113.26C1255,325.41,1225.4,336.24,1201.27,342.23Z"/><rect x="906.73" y="243.56" width="2.25" height="31.67" transform="translate(-31.61 165.1) rotate(-10.21)"/><rect x="966.49" y="263.71" width="2.25" height="30.94" transform="translate(-34.17 176.02) rotate(-10.21)"/><rect x="1017.93" y="280.87" width="2.25" height="30.73" transform="translate(-36.38 185.42) rotate(-10.22)"/><polygon points="1056.27 323.31 1050.82 293.06 1053.06 292.86 1058.48 322.91 1056.27 323.31"/><rect x="1187.59" y="338.12" width="2.25" height="29.75" transform="translate(-43.93 217.95) rotate(-10.29)"/><line class="o" x1="1011.88" y1="223.32" x2="1027.04" y2="305.74"/><rect x="1018.33" y="222.63" width="2.25" height="83.8" transform="translate(-31.04 188.85) rotate(-10.43)"/><line class="o" x1="1118.45" y1="258.81" x2="1133.37" y2="339.88"/><rect x="1124.78" y="258.13" width="2.25" height="82.44" transform="translate(-35.58 208.69) rotate(-10.43)"/><line class="o" x1="1186.07" y1="281.4" x2="1200.86" y2="361.79"/><rect x="1192.34" y="280.73" width="2.25" height="81.73" transform="translate(-38.49 221.28) rotate(-10.43)"/><path class="p" d="M1272.57,379.68l-331-110.38c-74.08,8.88-96.85,42.22-96.85,42.22l331,110.37S1263.49,412.77,1272.57,379.68Z"/><path d="M1175.71,423a1.13,1.13,0,0,1-.36-.06l-331-110.38a1.14,1.14,0,0,1-.71-.71,1.12,1.12,0,0,1,.14-1c.94-1.38,23.91-33.86,97.65-42.7a1.16,1.16,0,0,1,.49.05l331,110.38a1.12,1.12,0,0,1,.73,1.36c-9.17,33.45-94.21,42.67-97.82,43ZM846.55,311l329.28,109.8a311.39,311.39,0,0,0,44.63-8.65c20.34-5.65,45.42-15.72,50.71-31.7l-329.74-110C877,278.23,851.51,305,846.55,311Z"/><path d="M951.42,272.59l-1-.33a210.15,210.15,0,0,0-72.56,26.46A173.73,173.73,0,0,0,855,315l.54.18a172,172,0,0,1,22.63-16A209.5,209.5,0,0,1,951.42,272.59Z"/><path d="M972.38,279.58l-.93-.31a238.52,238.52,0,0,0-73,27,198.08,198.08,0,0,0-23.19,15.48l.54.18a200.05,200.05,0,0,1,22.91-15.25A237.85,237.85,0,0,1,972.38,279.58Z"/><path d="M992.45,286.27c-48.85,10.57-83.36,32.47-96.91,42.2l.57.19c13.77-9.86,48.38-31.68,97.24-42.09Z"/><path d="M1013.44,293.27c-48.11,11.61-83.34,32.53-97.57,42l.58.19c14.47-9.57,49.78-30.41,97.85-41.88Z"/><path d="M1034.43,300.27A382,382,0,0,0,936.23,342l.59.2a381.44,381.44,0,0,1,98.44-41.69Z"/><path d="M1055.41,307.26a481,481,0,0,0-98.78,41.58l.61.21a481,481,0,0,1,99-41.52Z"/><path d="M1076.38,314.26a641.41,641.41,0,0,0-99.31,41.4l.63.21a641.76,641.76,0,0,1,99.45-41.35Z"/><path d="M1097.35,321.25a949.84,949.84,0,0,0-99.8,41.24l.66.22a947.3,947.3,0,0,1,99.89-41.21Z"/><path d="M1118.31,328.24c-44.35,16.55-82.55,33.19-100.23,41.09l.68.23c18-8,56.1-24.61,100.28-41.08Z"/><path d="M1160.23,342.22c-42.82,18.39-81.9,33.59-100.94,40.85l.72.24c19.31-7.37,58.3-22.55,100.9-40.86Z"/><path d="M1181.18,349.2c-42,19.28-81.5,33.83-101.22,40.77l.75.25c20-7.05,59.31-21.59,101.14-40.79Z"/><path d="M1202.13,356.19a813.08,813.08,0,0,1-101.44,40.69l.77.26a813.38,813.38,0,0,0,101.32-40.73Z"/><path d="M1223.08,363.17c-40.49,21-80.56,34.34-101.6,40.64l.79.26c21.31-6.4,61.19-19.79,101.44-40.68Z"/><path d="M1244,370.16c-39.71,21.78-80,34.62-101.7,40.6l.81.27c22-6.08,62.06-19,101.51-40.67Z"/><path d="M1265,377.14c-38.93,22.57-79.41,34.92-101.75,40.59l.85.28c22.57-5.78,62.84-18.18,101.51-40.67Z"/><line class="o" x1="858.6" y1="298.31" x2="1211.54" y2="416"/><rect x="1033.94" y="171.14" width="2.25" height="372.05" transform="translate(368.83 1226.09) rotate(-71.56)"/><path d="M1037,389.24a8.3,8.3,0,0,1-8.22-7.31l2.24-.27a6,6,0,0,0,8.33,4.85L1152.52,339l18.6-24.68,1.8,1.36-19,25.15-.28.12-113.42,47.66A8.25,8.25,0,0,1,1037,389.24Z"/><path d="M981.4,399.15a1.26,1.26,0,0,1-.43-.08l-24.42-10a1.14,1.14,0,0,1-.69-.88l-5.82-41a1.16,1.16,0,0,1,.39-1,1.14,1.14,0,0,1,1.08-.2L975.65,354a1.13,1.13,0,0,1,.76.91l6.1,43a1.13,1.13,0,0,1-1.11,1.28ZM958,387.2l22,9-5.73-40.33-21.76-7.25Z"/><line class="p" x1="810.26" y1="367.29" x2="825.81" y2="373.35"/><rect x="816.91" y="361.98" width="2.25" height="16.68" transform="translate(175.98 998.08) rotate(-68.71)"/><polygon class="p" points="826.81 435.43 771.43 455.61 697.04 440.33 716.02 424.2 746.12 411.65 826.81 435.43"/><path d="M771.43,456.74a.91.91,0,0,1-.23,0l-74.39-15.28a1.13,1.13,0,0,1-.5-2l19-16.12a1,1,0,0,1,.29-.18l30.09-12.56a1.14,1.14,0,0,1,.75,0l80.69,23.78a1.13,1.13,0,0,1,.07,2.14l-55.38,20.18A1.22,1.22,0,0,1,771.43,456.74Zm-71.91-17.05,71.82,14.76,51.87-18.91-77-22.7-29.56,12.33Z"/><line class="p" x1="716.03" y1="424.2" x2="801.96" y2="444.49"/><rect x="757.87" y="390.2" width="2.25" height="88.29" transform="translate(161.88 1073.24) rotate(-76.72)"/><path d="M1026.29,298.08l-1.61-1.58c.48-.49,48.82-48.78,136.85-65.26l.41,2.21A298.32,298.32,0,0,0,1061,272C1038.39,285.89,1026.41,298,1026.29,298.08Z"/><path class="p" d="M1138.1,222.81l14.34,96.47,30.54-6.72-13.78-85.15a10.22,10.22,0,0,0-12.1-8.39Z"/><path d="M1152.44,320.4a1.14,1.14,0,0,1-1.12-1L1137,223a1.12,1.12,0,0,1,.89-1.27l19-3.79a11.34,11.34,0,0,1,13.43,9.31l13.78,85.15a1.13,1.13,0,0,1-.87,1.28l-30.54,6.71Zm-13.07-96.69,14,94.21,28.33-6.23-13.61-84.1a9.1,9.1,0,0,0-10.77-7.47Z"/><polygon class="s" points="1152.7 220.38 1175.35 314.24 1152.44 319.28 1138.37 223.67 1152.7 220.38"/><rect x="1007.64" y="345.88" width="108.24" height="2.25" transform="translate(-51.49 438.74) rotate(-22.81)"/><rect x="1036.72" y="354.55" width="104.25" height="2.25" transform="translate(-49.95 479.09) rotate(-24.27)"/><path class="r" d="M938.6,273.59l331,110.38a22.7,22.7,0,0,1-2.09,5.06,25.42,25.42,0,0,0,5-9.35l-331-110.38c-74.08,8.88-96.85,42.22-96.85,42.22l.55.18C854,302.51,880.57,280.55,938.6,273.59Z"/><path class="t" d="M835,220.59s33.91-3.65,53.5-.65,37.4,18.14,68.62,24.88,40,19.85,80.7,34.45,82.33,15.21,104.48,29.84,72.07,29.48,72.07,29.48-16.53,5.11-21.62,5.6c0,0-108.36-35.64-140.82-44.84s-77.2-27.66-99.43-33.37-34.5-9-59.06-17.53S846.77,240.63,835,220.59Z"/><path class="t" d="M843.62,311.87s35.59-30.71,72.25-38.3c25.67-4.27,32.41,7.79,47.89,12.8s27.42,4.71,37.63,11.71,36,10.63,54.82,16.28,21.33,12.4,37.1,17.53,49.5,6.69,64.16,15.86,43.38,15.31,61.17,22.41,37.61,11.78,42.28,17.21-.52,8.35-.52,8.35S1219.15,414.52,1208,416s-32.27,5.89-32.27,5.89Z"/><polygon class="t" points="792.61 346.38 799.3 342.65 811.54 430.93 806.56 428.83 792.61 346.38"/><polygon class="t" points="709.31 431.66 699.08 439.52 771.43 455.61 790.68 448.69 709.31 431.66"/><path class="u" d="M1168.09,227.59a9.1,9.1,0,0,0-10.77-7.47l-18,3.59.11.7,14-2.78a10.23,10.23,0,0,1,12.1,8.39l13.31,82.3,2.86-.63Z"/><path class="i" d="M115.37,383.12c34.49-5.84,37.94,28.76,49,33.63s20.47-4.57,34.31,2.86,5.94,11.4,35.89,17.17,85.19,13.91,85.19,13.91S314.89,457,96.89,427.28C43.78,420-8.27,411.49,23.35,414.49,104,422.15,84.26,388.39,115.37,383.12Z"/><path class="i" d="M1372.35,494.32c-47.78,12.24-115.71,29.36-125,30.21-14.6,1.33,24.89-3.77,40.82-13.06s19.88-21.76,48.1-17.46c20.35,3.09,22.06-16,35.84-21.68,20.35-8.41,27.87,11.06,47.77,9.73,0,0-20.53,5.35-47.48,12.26"/><path class="i" d="M1425.48,128.37l-249.85,68.68c17.86-8.62,29.38-10.09,57.25-27s39.48-32.27,62.5-28.29,14.58-14.68,32-24.88c18.14-10.59,34.77,8,40.75,0s11.51-36.27,40.37-36.27S1425.48,128.37,1425.48,128.37Z"/><path class="v" d="M1362.5,123.2c-7.74-9.07-24.33-3.1-24.33-3.1s19.69-4.2,21,6.86-33.84,11.94-9.73,13a41.39,41.39,0,0,0,8.66-.48C1364.94,133.88,1366.43,127.8,1362.5,123.2Z"/><path class="v" d="M1427.91,106.42c-5.73,6.63-18.53,17.76-36.77,12.71,1,.12,3.21-.13,6.75-3.68,0,0-8,1.33-11.06-5.53,0,0-2.87.67-1.77,5.75,0,0-7.4.75-6.85-8.84,0,0-6.92,8.18,0,16.81,0,0-3.48,13.1-20.07,15.89-6.64,5.49-18.31,10.58-35,13.53-24.8,4.37-24.72,0-22.91-2.71-2.13,1.91-6.79,5-16,6.69,0,0,8.56-.22,3.17,3.32s-28.61,14.82-45.42,10.84c0,0-6.86,8.36-22.12,12s-44.19,13.81-44.2,13.82h0l249.85-68.68A95.11,95.11,0,0,0,1427.91,106.42Z"/><path class="v" d="M228.31,441.39c-.81-1,3.76-2.32,3.76-2.32A41.37,41.37,0,0,1,214.26,438c-9.84-2.77-11.06-12.5-11.06-12.5l-.8,2.34h0a13.3,13.3,0,0,0-4.2-3.91c-5.06,11.09-21.3,5.76-20.73,1s9-4.08,9-4.08c-15.84-5.23-41.24,15.16-37.63-1.24s-9.07-22.64-9.07-22.64c2.41,4.28,1,8.71-2.23,12.34a13.41,13.41,0,0,0,2.35-7.71C137.73,412.34,124.13,416,124.13,416a24.09,24.09,0,0,0,7.08-1.71c-6.89,3.84-15.38,4.69-18.23-.75-5.71-10.91,6.19-21.07,6.19-21.07-11.87,2.56-17.14,26-18.21,12s14.41-21.35,14.41-21.35c-31.11,5.27-11.33,39-92,31.37-3.52-.33-6-.52-7.56-.59l-1.23.47c6,1.73,43.86,7.66,82.33,12.91,218,29.76,222.83,23.41,222.83,23.41S232.4,446.25,228.31,441.39Z"/><path class="v" d="M1247.3,524.53c9.34-.85,77.27-18,125-30.21,27-6.91,47.49-12.26,47.49-12.26-16.4,1.09-24.4-11.89-38.07-11.83.32.1,7,2.39,5.73,8.65-1.33,6.42-15,5.09-15,5.09s.67,2.65,5.76,1.77c0,0-2.66,4.2-10.84,4s-23,10.18-28.54,11.28,9.93-5.65-7.36-6.61c1.28.11,5.33.82,2.5,5.28-3.34,5.25-17.26,6.42-22.79,3.76a3.74,3.74,0,0,0,3.65,2.49,12.23,12.23,0,0,1-7.74.72s.33,1.33,3,1.55c0,0-56,16.35-65.81,16.55C1244.61,524.75,1245.57,524.69,1247.3,524.53Z"/><path class="w" d="M1272.92,378.61l-5-1.67-10.69-59.08a27.41,27.41,0,0,0,6.07-10.77,1.12,1.12,0,0,0-.73-1.36l-84.1-28-8.16-50.46a11.34,11.34,0,0,0-13.43-9.31l-19,3.79A1.12,1.12,0,0,0,1137,223l2,13.36a304,304,0,0,0-41.53,14.33l-177.24-59.1a1,1,0,0,0-.49,0c-43.65,5.23-70.15,18.69-84.7,29.07a1.13,1.13,0,0,0-.46,1.08s0,0,0,0h0l15.32,82.35a46.72,46.72,0,0,0-6.13,6.82,1.12,1.12,0,0,0-.14,1,1.14,1.14,0,0,0,.71.71l39.58,13.2-73,38.43-4.48-26.12a1.13,1.13,0,0,0-.63-.82,1.1,1.1,0,0,0-1,0l-12.42,6.94-2-11.11a1.12,1.12,0,0,0-.68-.85,1.15,1.15,0,0,0-1.08.13L768.3,347.1a1.13,1.13,0,0,0-.45,1.12l6.58,35.16L769.48,386l4.7,32.76-27.75-8.18a1.14,1.14,0,0,0-.75,0l-30.09,12.56a1,1,0,0,0-.29.18l-19,16.12a1.13,1.13,0,0,0,.5,2l74.39,15.28a.91.91,0,0,0,.23,0,1.22,1.22,0,0,0,.38-.07l8.4-3.06,25.68,6.95,175.86-61.47h0l47.16-16.49a8.25,8.25,0,0,0,11.32,6l14.16-5.95L1175.35,423a1.13,1.13,0,0,0,.36.06h.12a306,306,0,0,0,35-6.06l.35.12.07-.22c25.79-6.07,57-17.33,62.4-36.88A1.12,1.12,0,0,0,1272.92,378.61Zm-290.6,17.9-2.24-15.75,32.84-12,24.92,8.31Zm-86.79,30.34-2.07-14.52L957,389.2l21.28,8.74Zm-36-85.72,1.69,13.7-35.49,17.29-14.42-5.62ZM980,396.24l-19.93-8.19,17.84-6.5Zm-22.12-9.78-5.37-37.8,21.38,7.13.38.12,3.32,23.37Zm224.74-38q1.93-.35,4-.75L1187,350Zm6.83,2.28-.63-3.47q3.83-.76,7.91-1.7l1.49,8.09Zm-212.79,5.93,32.82,10.94-29.73,10.84Zm-55.34-85.33c-3.39.68-6.65,1.42-9.77,2.19l-1-5.8Zm28.81,76.48,5.59,39.39-62.59,22.81-9.06-63.85,24.82-12.1Zm-59.16,63L871.29,418l-7.62-61.87L882,347.24Zm2.12,14.9-19-6.36,17.16-6.26Zm-81.39-56.68,11.29,4.4-9.72,4.74Zm15.06,65.19L822.69,433l-9-52.53,47.87-23.32,7.59,61.62Zm36.61-80.46-1.58-12.9L880,345.7ZM776.79,396l-3.37,1.64-1.2-8.32,3.91,3.16Zm46.15,42,47.81-17.42,21.75,7.3-83.6,29.22Zm377.72-83.52-1.73-9.41,2.57-.61c29.51-7.28,45.43-16.23,53.81-24.58l10.18,56.22Zm-61.35-115.92,4.07,27.39-42.73-14.25A304.15,304.15,0,0,1,1139.31,238.59Zm-300.45-6.13a37.82,37.82,0,0,0,21.7,18.66L908.08,267l1.29,7.17c-30.6,7.95-48.37,20-57.53,28.13Zm67,100.64-22.78,11.09L863.55,339l23.32-12.26ZM775.49,389.05l-2.76-2.23,2.13-1.12ZM773.75,400l3.46-1.69,4.23,22.62-4.89-1.44Zm27.9,45.84,2.69,12-20.46-5.54Zm237.73-59.29a6,6,0,0,1-8.3-4.66l10.25-3.58,9.85,3.28Z"/></g></svg>