<svg xmlns="http://www.w3.org/2000/svg" xmlns:xlink="http://www.w3.org/1999/xlink" width="1440" height="580" viewBox="0 0 1440 580"><defs><style>.cls-1{isolation:isolate;}.cls-2{fill:url(#linear-gradient);}.cls-3{fill:url(#linear-gradient-2);}.cls-4{fill:url(#linear-gradient-3);}.cls-5{fill:url(#linear-gradient-4);}.cls-6{fill:#cf9f4a;}.cls-7{fill:#edb756;}.cls-8{fill:#dfdbda;}.cls-9{fill:#816c99;}.cls-10{fill:#958ab5;}.cls-11{fill:#746a9b;opacity:0.6;mix-blend-mode:multiply;}.cls-12{fill:#ad9ed3;mix-blend-mode:overlay;}.cls-13{fill:#d8ecfb;}.cls-14{fill:#d6d0f4;}</style><linearGradient id="linear-gradient" x1="482.74" y1="376.72" x2="735.9" y2="376.72" gradientUnits="userSpaceOnUse"><stop offset="0" stop-color="#fff"/><stop offset="1" stop-color="#a2c7e4"/></linearGradient><linearGradient id="linear-gradient-2" x1="678.4" y1="243.19" x2="806.32" y2="243.19" xlink:href="#linear-gradient"/><linearGradient id="linear-gradient-3" x1="610.66" y1="453.64" x2="786.42" y2="453.64" xlink:href="#linear-gradient"/><linearGradient id="linear-gradient-4" x1="624.53" y1="416.55" x2="686.12" y2="416.55" xlink:href="#linear-gradient"/></defs><title>launch-banner-pricing</title><g class="cls-1"><g id="Layer_1" data-name="Layer 1"><path class="cls-2" d="M734,338,485.77,421a.41.41,0,0,1-.27-.77l246.56-87.7A2.9,2.9,0,1,1,734,338Z"/><path class="cls-3" d="M804.7,225.28,680.92,265.79a.34.34,0,0,1-.43-.22.33.33,0,0,1,.21-.42l122.42-44.43a2.41,2.41,0,1,1,1.65,4.53Z"/><path class="cls-4" d="M784.8,427.47l-171.62,57a.33.33,0,0,1-.43-.21.35.35,0,0,1,.21-.44l170.26-60.93a2.42,2.42,0,0,1,1.63,4.55Z"/><path class="cls-5" d="M684.5,410.09l-57.44,17.63a.33.33,0,0,1-.43-.22.35.35,0,0,1,.2-.43l56.09-21.54a2.42,2.42,0,0,1,1.74,4.51Z"/><rect x="746.8" y="334.91" width="146.38" height="2.17" transform="translate(-64.3 393.5) rotate(-26)"/><rect x="756.64" y="353.27" width="2.17" height="13.63" transform="translate(0.83 721.93) rotate(-50.97)"/><polygon class="cls-6" points="786.37 426.06 763.03 321.86 785.83 309.13 802.2 404.54 786.37 426.06"/><path d="M786.37,427.14a.9.9,0,0,1-.23,0,1.09,1.09,0,0,1-.83-.82L762,322.1a1.07,1.07,0,0,1,.53-1.18l22.8-12.74a1.09,1.09,0,0,1,1.6.77l16.37,95.4a1.08,1.08,0,0,1-.2.83L787.24,426.7A1.07,1.07,0,0,1,786.37,427.14ZM764.26,322.42,786.91,423.5l14.14-19.23-16-93.44Z"/><polygon class="cls-7" points="769.08 416.52 750.75 318.52 770.35 304.34 788.84 409.4 769.08 416.52"/><path d="M769.08,417.61a1,1,0,0,1-.54-.15,1.12,1.12,0,0,1-.53-.74l-18.33-98a1.09,1.09,0,0,1,.44-1.08l19.6-14.18a1.09,1.09,0,0,1,1.7.7l18.49,105a1.08,1.08,0,0,1-.7,1.21l-19.76,7.12A1.21,1.21,0,0,1,769.08,417.61ZM751.94,319l18,96.07,17.71-6.38-18-102.45Z"/><path d="M786.41,427.19l-25.82-7-9.34-65L863.73,296l1,1.92L753.62,356.4l8.83,61.47L988.2,335.59l80.08-43.89,45.37,15.12-95.44,39.35Zm-21.25-8,21.17,5.73,231.11-80.77,90-37.11-38.93-13L989,337.6Z"/><path d="M871.93,396.24a1,1,0,0,1-.34-.05l-23.32-7.83a1.07,1.07,0,0,1-.73-.89L838,310.32a1.08,1.08,0,0,1,.36-.95,1.11,1.11,0,0,1,1-.23l21.57,5.7a1.08,1.08,0,0,1,.79.9L873,395a1.08,1.08,0,0,1-1.08,1.23Zm-22.32-9.72,21,7.05L859.7,316.76l-19.31-5.11Z"/><path class="cls-6" d="M815.86,196.6h0a35.46,35.46,0,0,0,23.68,27.34l290.74,96.95a312,312,0,0,0,37.84-6.82Z"/><path d="M1130.28,322a1,1,0,0,1-.34-.05L839.2,225a36.54,36.54,0,0,1-24.41-28.17,1.08,1.08,0,0,1,1.41-1.23L1168.46,313a1.08,1.08,0,0,1-.08,2.08,317.46,317.46,0,0,1-38,6.85Zm-313-123.74a34.39,34.39,0,0,0,22.59,24.68l290.51,96.87a314.31,314.31,0,0,0,33.77-5.89Z"/><path class="cls-7" d="M1227,278.73,896.44,168.5c-41.61,5-67,17.7-81.27,27.88l352.95,117.69C1193.05,307.92,1222,297,1227,278.73Z"/><path d="M1168.12,315.15a1.41,1.41,0,0,1-.35,0L814.83,197.41a1.09,1.09,0,0,1-.29-1.92c14-10,39.63-23,81.77-28.06a1.11,1.11,0,0,1,.48,0L1227.35,277.7a1.08,1.08,0,0,1,.7,1.32c-2.87,10.46-15.55,25.22-59.67,36.1A1.15,1.15,0,0,1,1168.12,315.15ZM817.56,196l350.6,116.91c23.3-5.78,51.83-16.23,57.5-33.51L896.33,169.61C856.5,174.42,831.71,186.37,817.56,196Z"/><path d="M907.47,172.18c-55,12.14-80.8,28.9-81.09,29.09a.22.22,0,0,0-.09.12,52,52,0,0,0-2.23,12.24l.43.47a53.2,53.2,0,0,1,2.21-12.49c1.51-1,27.51-17.31,81.63-29.14Z"/><path d="M879.25,199a441,441,0,0,1,56.19-17.5l-.82-.28c-54.7,13.52-80.68,28.92-81,29.09a.29.29,0,0,0-.1.12,49.91,49.91,0,0,0-2.78,17.25l.47.15A49.32,49.32,0,0,1,854,210.68C854.8,210.19,863.11,205.38,879.25,199Z"/><path d="M962.4,190.5l-.79-.27c-25,6.91-43.58,13.48-55.69,18.19-16.66,6.47-24.92,10.91-25,11a.18.18,0,0,0-.1.11,49.9,49.9,0,0,0-2.76,9.76,39.08,39.08,0,0,0-.62,7.33l.46.15a38.11,38.11,0,0,1,.62-7.39,50.54,50.54,0,0,1,2.69-9.59,253.34,253.34,0,0,1,24.88-10.9A589.66,589.66,0,0,1,962.4,190.5Z"/><path d="M988.46,199.19c-53.65,16.63-80,29.11-80.27,29.24a.38.38,0,0,0-.11.11,51.11,51.11,0,0,0-3.07,9.32,37.94,37.94,0,0,0-.94,7.6l.46.15a37,37,0,0,1,.94-7.64,49.35,49.35,0,0,1,3-9.15c1.6-.76,28.11-13.1,80.75-29.38Z"/><path d="M1015.17,208.09c-53,18.36-79.42,29.28-79.7,29.4a.22.22,0,0,0-.12.11,48.91,48.91,0,0,0-3.38,8.87,36.3,36.3,0,0,0-1.31,7.85l.46.16c.36-8,4.18-15.75,4.6-16.59,1.64-.68,28.24-11.57,80.17-29.56Z"/><path d="M1041.74,217c-52.19,20.19-78.71,29.5-79,29.6a.19.19,0,0,0-.12.1,48.48,48.48,0,0,0-3.69,8.42,35.12,35.12,0,0,0-1.73,8.1l.45.15a35.06,35.06,0,0,1,1.71-8.09A48.55,48.55,0,0,1,963,247c1.67-.59,28.33-10,79.45-29.78Z"/><path d="M1068.19,225.77c-51.3,22.11-77.89,29.75-78.17,29.83a.22.22,0,0,0-.13.1c-.07.1-5.18,8-6.21,16.3l.45.15c.93-7.76,5.58-15.31,6.1-16.12,1.71-.5,28.41-8.37,78.63-30Z"/><path d="M1095.17,234.77l-.64-.22c-50.33,24.13-76.95,30.05-77.24,30.11a.24.24,0,0,0-.14.09c-.07.1-5.69,7.92-7,16.06l.44.15c1.25-7.64,6.37-15.06,6.94-15.86a219.94,219.94,0,0,0,22.89-7.09A574.07,574.07,0,0,0,1095.17,234.77Z"/><path d="M1121.37,243.5l-.61-.2c-49.28,26.22-75.9,30.38-76.19,30.42a.22.22,0,0,0-.14.08c-.08.1-6.27,7.77-8,15.8l.44.15c1.58-7.53,7.21-14.8,7.83-15.59.91-.14,8.62-1.47,22.5-6.31C1079,263.74,1097.34,256.31,1121.37,243.5Z"/><path d="M1147.47,252.21l-.59-.2c-48.14,28.39-74.75,30.75-75,30.77a.21.21,0,0,0-.15.07c-.09.09-6.87,7.6-8.94,15.52l.43.15c1.93-7.43,8.11-14.53,8.79-15.29.92-.08,8.54-.92,22.1-5.55C1105.69,273.71,1123.86,266.17,1147.47,252.21Z"/><path d="M1173.48,260.88l-.56-.18c-46.94,30.64-73.51,31.14-73.79,31.14a.23.23,0,0,0-.16.06c-.09.09-7.53,7.39-10,15.21l.44.15c2.29-7.33,9.08-14.23,9.82-15,.92,0,8.46-.37,21.71-4.79C1132.4,283.68,1150.34,276,1173.48,260.88Z"/><path d="M1198.87,269.35c-45.67,32.94-72.18,31.57-72.46,31.55a.26.26,0,0,0-.17.05c-.09.09-8.25,7.14-11.13,14.88l.45.15c2.69-7.24,10.12-13.91,10.92-14.61,1.82.07,28.33.41,72.93-31.84Z"/><path d="M1224.72,278c-13.68,10.88-31.64,22.87-50.17,28.75-13.38,4.25-20.79,3.25-20.86,3.24a.23.23,0,0,0-.18.05,53.08,53.08,0,0,0-8.9,8.86l.67-.12a54.1,54.1,0,0,1,8.44-8.32c.93.11,8.3.75,20.93-3.25,18.71-5.93,36.84-18.07,50.6-29Z"/><rect x="1224.67" y="275.3" width="2.17" height="79.82" transform="translate(-36.54 223.36) rotate(-10.26)"/><rect x="821.58" y="195.68" width="2.17" height="82" transform="translate(-29.41 154.43) rotate(-10.54)"/><rect x="902.54" y="167.88" width="2.17" height="83.39" transform="translate(-22.71 160.94) rotate(-10.05)"/><rect x="883.78" y="217.67" width="2.17" height="30.58" transform="translate(-27.29 160.6) rotate(-10.21)"/><rect x="941.47" y="237.13" width="2.17" height="29.87" transform="translate(-29.76 171.14) rotate(-10.21)"/><rect x="991.14" y="253.7" width="2.17" height="29.67" transform="translate(-31.9 180.23) rotate(-10.22)"/><rect x="1025.51" y="265.04" width="2.17" height="29.67" transform="translate(-33.36 186.5) rotate(-10.22)"/><rect x="1154.95" y="308.97" width="2.17" height="28.72" transform="translate(-39.16 211.64) rotate(-10.29)"/><line class="cls-8" x1="985.29" y1="198.13" x2="999.94" y2="277.71"/><rect x="991.53" y="197.46" width="2.17" height="80.91" transform="translate(-26.67 183.56) rotate(-10.43)"/><line class="cls-8" x1="1088.19" y1="232.4" x2="1102.6" y2="310.68"/><rect x="1094.31" y="231.74" width="2.17" height="79.6" transform="translate(-31.05 202.71) rotate(-10.43)"/><line class="cls-8" x1="1153.48" y1="254.21" x2="1167.76" y2="331.83"/><rect x="1159.54" y="253.56" width="2.17" height="78.92" transform="translate(-33.86 214.87) rotate(-10.43)"/><path class="cls-7" d="M1237,349.1,917.39,242.52c-71.53,8.58-93.52,40.77-93.52,40.77l319.61,106.57S1228.24,381.05,1237,349.1Z"/><path d="M1143.48,390.94a1,1,0,0,1-.34-.05L823.53,284.32a1.1,1.1,0,0,1-.69-.69,1.07,1.07,0,0,1,.14-1c.9-1.33,23.08-32.69,94.28-41.22a1.06,1.06,0,0,1,.47,0l319.61,106.58a1.07,1.07,0,0,1,.7,1.31c-8.85,32.3-91,41.2-94.45,41.56ZM825.67,282.74l317.93,106a302.76,302.76,0,0,0,43.09-8.35c19.64-5.47,43.85-15.18,49-30.62L917.28,243.63C855,251.15,830.46,277,825.67,282.74Z"/><path d="M926.92,245.7l-.94-.31a202.89,202.89,0,0,0-70.06,25.54,167.68,167.68,0,0,0-22.11,15.67l.52.17a166.37,166.37,0,0,1,21.85-15.45A202.45,202.45,0,0,1,926.92,245.7Z"/><path d="M947.16,252.45l-.9-.3a230,230,0,0,0-70.5,26,190.57,190.57,0,0,0-22.39,14.94l.53.18A190.33,190.33,0,0,1,876,278.57,229.55,229.55,0,0,1,947.16,252.45Z"/><path d="M966.54,258.91c-47.16,10.2-80.48,31.35-93.57,40.75l.55.18c13.3-9.52,46.71-30.59,93.88-40.64Z"/><path d="M986.81,265.67c-46.46,11.21-80.47,31.41-94.21,40.53l.55.19A304.27,304.27,0,0,1,987.64,266Z"/><path d="M1007.07,272.43a369,369,0,0,0-94.82,40.33l.58.19a368.42,368.42,0,0,1,95-40.26Z"/><path d="M1027.32,279.18A464.51,464.51,0,0,0,932,319.33l.59.19a464.21,464.21,0,0,1,95.56-40.08Z"/><path d="M1047.57,285.93a620.41,620.41,0,0,0-95.88,40l.61.2a619.88,619.88,0,0,1,96-39.93Z"/><path d="M1067.82,292.69a918.07,918.07,0,0,0-96.35,39.81l.63.21a917.72,917.72,0,0,1,96.44-39.78Z"/><path d="M1088.06,299.43c-42.82,16-79.71,32.05-96.77,39.68l.65.22c17.33-7.75,54.16-23.76,96.82-39.66Z"/><path d="M1128.53,312.93c-41.34,17.75-79.08,32.43-97.46,39.45l.7.23c18.65-7.12,56.28-21.78,97.42-39.46Z"/><path d="M1148.76,319.67c-40.59,18.61-78.69,32.66-97.73,39.36l.72.24c19.3-6.8,57.27-20.84,97.66-39.38Z"/><path d="M1169,326.42a784.86,784.86,0,0,1-97.94,39.29l.74.24a782.2,782.2,0,0,0,97.83-39.32Z"/><path d="M1189.21,333.16c-39.09,20.25-77.77,33.16-98.09,39.24l.76.25c20.57-6.18,59.09-19.11,97.95-39.28Z"/><path d="M1209.43,339.91c-38.34,21-77.25,33.43-98.19,39.2l.79.26c21.19-5.87,59.91-18.31,98-39.26Z"/><path d="M1229.65,346.65c-37.58,21.79-76.67,33.72-98.23,39.19l.81.27c21.8-5.58,60.68-17.55,98-39.27Z"/><line class="cls-8" x1="837.3" y1="270.54" x2="1178.07" y2="384.17"/><rect x="1006.6" y="147.75" width="2.17" height="359.22" transform="translate(378.38 1179.74) rotate(-71.56)"/><path d="M1009.58,358.33a8,8,0,0,1-7.93-7.06l2.15-.25a5.84,5.84,0,0,0,8.05,4.68l109.24-45.91,18-23.82,1.74,1.3-18.32,24.29-.27.12-109.51,46A8.08,8.08,0,0,1,1009.58,358.33Z"/><path d="M955.87,367.9a1.25,1.25,0,0,1-.42-.08l-23.58-9.69a1.09,1.09,0,0,1-.66-.85l-5.62-39.56a1.09,1.09,0,0,1,.38-1,1.11,1.11,0,0,1,1-.2l23.31,7.78a1.09,1.09,0,0,1,.73.87l5.89,41.48a1.07,1.07,0,0,1-.41,1A1.08,1.08,0,0,1,955.87,367.9Zm-22.6-11.54,21.26,8.73L949,326.15l-21-7Z"/><line class="cls-7" x1="790.63" y1="337.14" x2="805.64" y2="342.99"/><rect x="797.05" y="332.01" width="2.17" height="16.11" transform="translate(191.5 960.27) rotate(-68.71)"/><polygon class="cls-6" points="806.61 402.93 753.14 422.42 681.31 407.66 699.64 392.09 728.7 379.97 806.61 402.93"/><path d="M753.14,423.5l-.22,0-71.83-14.76a1.07,1.07,0,0,1-.83-.79,1.09,1.09,0,0,1,.35-1.1l18.33-15.57a1.05,1.05,0,0,1,.29-.17l29-12.12a1.05,1.05,0,0,1,.72,0l77.91,23A1.09,1.09,0,0,1,807,404l-53.47,19.49A1.19,1.19,0,0,1,753.14,423.5ZM683.71,407l69.35,14.25L803.14,403l-74.38-21.92L700.22,393Z"/><line class="cls-6" x1="699.64" y1="392.09" x2="782.61" y2="411.67"/><rect x="740.04" y="359.26" width="2.17" height="85.25" transform="translate(179.72 1030.85) rotate(-76.72)"/><path d="M999.21,270.31l-1.55-1.52c.46-.47,47.14-47.1,132.13-63l.39,2.13a288.26,288.26,0,0,0-97.44,37.18C1010.89,258.54,999.32,270.19,999.21,270.31Z"/><path class="cls-6" d="M1107.17,197.64,1121,290.78l29.49-6.49-13.3-82.21a9.88,9.88,0,0,0-11.69-8.1Z"/><path d="M1121,291.86a1.06,1.06,0,0,1-.62-.19,1.09,1.09,0,0,1-.46-.73L1106.1,197.8a1.07,1.07,0,0,1,.86-1.22l18.34-3.67a11,11,0,0,1,13,9l13.3,82.21a1.08,1.08,0,0,1-.84,1.23l-29.49,6.49A.9.9,0,0,1,1121,291.86Zm-12.62-93.36,13.52,91,27.35-6-13.13-81.19a8.8,8.8,0,0,0-10.4-7.22Z"/><rect x="981.21" y="316.46" width="104.5" height="2.17" transform="translate(-42.29 425.47) rotate(-22.81)"/><rect x="1009.28" y="324.83" width="100.65" height="2.17" transform="translate(-40.3 464.44) rotate(-24.27)"/><rect x="746.8" y="334.91" width="146.38" height="2.17" transform="translate(-64.3 393.5) rotate(-26)"/><rect x="756.64" y="353.27" width="2.17" height="13.63" transform="translate(0.83 721.93) rotate(-50.97)"/><polygon class="cls-9" points="786.37 426.06 763.03 321.86 785.83 309.13 802.2 404.54 786.37 426.06"/><path d="M786.37,427.14a.9.9,0,0,1-.23,0,1.09,1.09,0,0,1-.83-.82L762,322.1a1.07,1.07,0,0,1,.53-1.18l22.8-12.74a1.09,1.09,0,0,1,1.6.77l16.37,95.4a1.08,1.08,0,0,1-.2.83L787.24,426.7A1.07,1.07,0,0,1,786.37,427.14ZM764.26,322.42,786.91,423.5l14.14-19.23-16-93.44Z"/><polygon class="cls-10" points="769.08 416.52 750.75 318.52 770.35 304.34 788.84 409.4 769.08 416.52"/><path d="M769.08,417.61a1,1,0,0,1-.54-.15,1.12,1.12,0,0,1-.53-.74l-18.33-98a1.09,1.09,0,0,1,.44-1.08l19.6-14.18a1.09,1.09,0,0,1,1.7.7l18.49,105a1.08,1.08,0,0,1-.7,1.21l-19.76,7.12A1.21,1.21,0,0,1,769.08,417.61ZM751.94,319l18,96.07,17.71-6.38-18-102.45Z"/><path d="M786.41,427.19l-25.82-7-9.34-65L863.73,296l1,1.92L753.62,356.4l8.83,61.47L988.2,335.59l80.08-43.89,45.37,15.12-95.44,39.35Zm-21.25-8,21.17,5.73,231.11-80.77,90-37.11-38.93-13L989,337.6Z"/><path d="M871.93,396.24a1,1,0,0,1-.34-.05l-23.32-7.83a1.07,1.07,0,0,1-.73-.89L838,310.32a1.08,1.08,0,0,1,.36-.95,1.11,1.11,0,0,1,1-.23l21.57,5.7a1.08,1.08,0,0,1,.79.9L873,395a1.08,1.08,0,0,1-1.08,1.23Zm-22.32-9.72,21,7.05L859.7,316.76l-19.31-5.11Z"/><path class="cls-10" d="M815.86,196.6h0a35.46,35.46,0,0,0,23.68,27.34l290.74,96.95a312,312,0,0,0,37.84-6.82Z"/><path d="M1130.28,322a1,1,0,0,1-.34-.05L839.2,225a36.54,36.54,0,0,1-24.41-28.17,1.08,1.08,0,0,1,1.41-1.23L1168.46,313a1.08,1.08,0,0,1-.08,2.08,317.46,317.46,0,0,1-38,6.85Zm-313-123.74a34.39,34.39,0,0,0,22.59,24.68l290.51,96.87a314.31,314.31,0,0,0,33.77-5.89Z"/><path class="cls-10" d="M1227,278.73,896.44,168.5c-41.61,5-67,17.7-81.27,27.88l352.95,117.69C1193.05,307.92,1222,297,1227,278.73Z"/><path d="M1168.12,315.15a1.41,1.41,0,0,1-.35,0L814.83,197.41a1.09,1.09,0,0,1-.29-1.92c14-10,39.63-23,81.77-28.06a1.11,1.11,0,0,1,.48,0L1227.35,277.7a1.08,1.08,0,0,1,.7,1.32c-2.87,10.46-15.55,25.22-59.67,36.1A1.15,1.15,0,0,1,1168.12,315.15ZM817.56,196l350.6,116.91c23.3-5.78,51.83-16.23,57.5-33.51L896.33,169.61C856.5,174.42,831.71,186.37,817.56,196Z"/><path d="M907.47,172.18c-55,12.14-80.8,28.9-81.09,29.09a.22.22,0,0,0-.09.12,52,52,0,0,0-2.23,12.24l.43.47a53.2,53.2,0,0,1,2.21-12.49c1.51-1,27.51-17.31,81.63-29.14Z"/><path d="M879.25,199a441,441,0,0,1,56.19-17.5l-.82-.28c-54.7,13.52-80.68,28.92-81,29.09a.29.29,0,0,0-.1.12,49.91,49.91,0,0,0-2.78,17.25l.47.15A49.32,49.32,0,0,1,854,210.68C854.8,210.19,863.11,205.38,879.25,199Z"/><path d="M962.4,190.5l-.79-.27c-25,6.91-43.58,13.48-55.69,18.19-16.66,6.47-24.92,10.91-25,11a.18.18,0,0,0-.1.11,49.9,49.9,0,0,0-2.76,9.76,39.08,39.08,0,0,0-.62,7.33l.46.15a38.11,38.11,0,0,1,.62-7.39,50.54,50.54,0,0,1,2.69-9.59,253.34,253.34,0,0,1,24.88-10.9A589.66,589.66,0,0,1,962.4,190.5Z"/><path d="M988.46,199.19c-53.65,16.63-80,29.11-80.27,29.24a.38.38,0,0,0-.11.11,51.11,51.11,0,0,0-3.07,9.32,37.94,37.94,0,0,0-.94,7.6l.46.15a37,37,0,0,1,.94-7.64,49.35,49.35,0,0,1,3-9.15c1.6-.76,28.11-13.1,80.75-29.38Z"/><path d="M1015.17,208.09c-53,18.36-79.42,29.28-79.7,29.4a.22.22,0,0,0-.12.11,48.91,48.91,0,0,0-3.38,8.87,36.3,36.3,0,0,0-1.31,7.85l.46.16c.36-8,4.18-15.75,4.6-16.59,1.64-.68,28.24-11.57,80.17-29.56Z"/><path d="M1041.74,217c-52.19,20.19-78.71,29.5-79,29.6a.19.19,0,0,0-.12.1,48.48,48.48,0,0,0-3.69,8.42,35.12,35.12,0,0,0-1.73,8.1l.45.15a35.06,35.06,0,0,1,1.71-8.09A48.55,48.55,0,0,1,963,247c1.67-.59,28.33-10,79.45-29.78Z"/><path d="M1068.19,225.77c-51.3,22.11-77.89,29.75-78.17,29.83a.22.22,0,0,0-.13.1c-.07.1-5.18,8-6.21,16.3l.45.15c.93-7.76,5.58-15.31,6.1-16.12,1.71-.5,28.41-8.37,78.63-30Z"/><path d="M1095.17,234.77l-.64-.22c-50.33,24.13-76.95,30.05-77.24,30.11a.24.24,0,0,0-.14.09c-.07.1-5.69,7.92-7,16.06l.44.15c1.25-7.64,6.37-15.06,6.94-15.86a219.94,219.94,0,0,0,22.89-7.09A574.07,574.07,0,0,0,1095.17,234.77Z"/><path d="M1121.37,243.5l-.61-.2c-49.28,26.22-75.9,30.38-76.19,30.42a.22.22,0,0,0-.14.08c-.08.1-6.27,7.77-8,15.8l.44.15c1.58-7.53,7.21-14.8,7.83-15.59.91-.14,8.62-1.47,22.5-6.31C1079,263.74,1097.34,256.31,1121.37,243.5Z"/><path d="M1147.47,252.21l-.59-.2c-48.14,28.39-74.75,30.75-75,30.77a.21.21,0,0,0-.15.07c-.09.09-6.87,7.6-8.94,15.52l.43.15c1.93-7.43,8.11-14.53,8.79-15.29.92-.08,8.54-.92,22.1-5.55C1105.69,273.71,1123.86,266.17,1147.47,252.21Z"/><path d="M1173.48,260.88l-.56-.18c-46.94,30.64-73.51,31.14-73.79,31.14a.23.23,0,0,0-.16.06c-.09.09-7.53,7.39-10,15.21l.44.15c2.29-7.33,9.08-14.23,9.82-15,.92,0,8.46-.37,21.71-4.79C1132.4,283.68,1150.34,276,1173.48,260.88Z"/><path d="M1198.87,269.35c-45.67,32.94-72.18,31.57-72.46,31.55a.26.26,0,0,0-.17.05c-.09.09-8.25,7.14-11.13,14.88l.45.15c2.69-7.24,10.12-13.91,10.92-14.61,1.82.07,28.33.41,72.93-31.84Z"/><path d="M1224.72,278c-13.68,10.88-31.64,22.87-50.17,28.75-13.38,4.25-20.79,3.25-20.86,3.24a.23.23,0,0,0-.18.05,53.08,53.08,0,0,0-8.9,8.86l.67-.12a54.1,54.1,0,0,1,8.44-8.32c.93.11,8.3.75,20.93-3.25,18.71-5.93,36.84-18.07,50.6-29Z"/><path class="cls-11" d="M815.86,196.6h0a35.46,35.46,0,0,0,23.68,27.34l290.74,96.95a312,312,0,0,0,37.84-6.82Z"/><path class="cls-12" d="M1224.16,282.88A22.45,22.45,0,0,1,1222,288a25.33,25.33,0,0,0,5-9.26L896.44,168.5c-41.61,5-67,17.7-81.27,27.88l2.23.74c14.93-9.45,39.12-20,76.2-24.47Z"/><rect x="1224.67" y="275.3" width="2.17" height="79.82" transform="translate(-36.54 223.36) rotate(-10.26)"/><rect x="821.58" y="195.68" width="2.17" height="82" transform="translate(-29.41 154.43) rotate(-10.54)"/><rect x="902.54" y="167.88" width="2.17" height="83.39" transform="translate(-22.71 160.94) rotate(-10.05)"/><rect x="883.78" y="217.67" width="2.17" height="30.58" transform="translate(-27.29 160.6) rotate(-10.21)"/><rect x="941.47" y="237.13" width="2.17" height="29.87" transform="translate(-29.76 171.14) rotate(-10.21)"/><rect x="991.14" y="253.7" width="2.17" height="29.67" transform="translate(-31.9 180.23) rotate(-10.22)"/><polygon points="1028.15 294.68 1022.89 265.47 1025.06 265.27 1030.29 294.29 1028.15 294.68"/><rect x="1154.95" y="308.97" width="2.17" height="28.72" transform="translate(-39.16 211.64) rotate(-10.29)"/><line class="cls-8" x1="985.29" y1="198.13" x2="999.94" y2="277.71"/><rect x="991.53" y="197.46" width="2.17" height="80.91" transform="translate(-26.67 183.56) rotate(-10.43)"/><line class="cls-8" x1="1088.19" y1="232.4" x2="1102.6" y2="310.68"/><rect x="1094.31" y="231.74" width="2.17" height="79.6" transform="translate(-31.05 202.71) rotate(-10.43)"/><line class="cls-8" x1="1153.48" y1="254.21" x2="1167.76" y2="331.83"/><rect x="1159.54" y="253.56" width="2.17" height="78.92" transform="translate(-33.86 214.87) rotate(-10.43)"/><path class="cls-10" d="M1237,349.1,917.39,242.52c-71.53,8.58-93.52,40.77-93.52,40.77l319.61,106.57S1228.24,381.05,1237,349.1Z"/><path d="M1143.48,390.94a1,1,0,0,1-.34-.05L823.53,284.32a1.1,1.1,0,0,1-.69-.69,1.07,1.07,0,0,1,.14-1c.9-1.33,23.08-32.69,94.28-41.22a1.06,1.06,0,0,1,.47,0l319.61,106.58a1.07,1.07,0,0,1,.7,1.31c-8.85,32.3-91,41.2-94.45,41.56ZM825.67,282.74l317.93,106a302.76,302.76,0,0,0,43.09-8.35c19.64-5.47,43.85-15.18,49-30.62L917.28,243.63C855,251.15,830.46,277,825.67,282.74Z"/><path d="M926.92,245.7l-.94-.31a202.89,202.89,0,0,0-70.06,25.54,167.68,167.68,0,0,0-22.11,15.67l.52.17a166.37,166.37,0,0,1,21.85-15.45A202.45,202.45,0,0,1,926.92,245.7Z"/><path d="M947.16,252.45l-.9-.3a230,230,0,0,0-70.5,26,190.57,190.57,0,0,0-22.39,14.94l.53.18A190.33,190.33,0,0,1,876,278.57,229.55,229.55,0,0,1,947.16,252.45Z"/><path d="M966.54,258.91c-47.16,10.2-80.48,31.35-93.57,40.75l.55.18c13.3-9.52,46.71-30.59,93.88-40.64Z"/><path d="M986.81,265.67c-46.46,11.21-80.47,31.41-94.21,40.53l.55.19A304.27,304.27,0,0,1,987.64,266Z"/><path d="M1007.07,272.43a369,369,0,0,0-94.82,40.33l.58.19a368.42,368.42,0,0,1,95-40.26Z"/><path d="M1027.32,279.18A464.51,464.51,0,0,0,932,319.33l.59.19a464.21,464.21,0,0,1,95.56-40.08Z"/><path d="M1047.57,285.93a620.41,620.41,0,0,0-95.88,40l.61.2a619.88,619.88,0,0,1,96-39.93Z"/><path d="M1067.82,292.69a918.07,918.07,0,0,0-96.35,39.81l.63.21a917.72,917.72,0,0,1,96.44-39.78Z"/><path d="M1088.06,299.43c-42.82,16-79.71,32.05-96.77,39.68l.65.22c17.33-7.75,54.16-23.76,96.82-39.66Z"/><path d="M1128.53,312.93c-41.34,17.75-79.08,32.43-97.46,39.45l.7.23c18.65-7.12,56.28-21.78,97.42-39.46Z"/><path d="M1148.76,319.67c-40.59,18.61-78.69,32.66-97.73,39.36l.72.24c19.3-6.8,57.27-20.84,97.66-39.38Z"/><path d="M1169,326.42a784.86,784.86,0,0,1-97.94,39.29l.74.24a782.2,782.2,0,0,0,97.83-39.32Z"/><path d="M1189.21,333.16c-39.09,20.25-77.77,33.16-98.09,39.24l.76.25c20.57-6.18,59.09-19.11,97.95-39.28Z"/><path d="M1209.43,339.91c-38.34,21-77.25,33.43-98.19,39.2l.79.26c21.19-5.87,59.91-18.31,98-39.26Z"/><path d="M1229.65,346.65c-37.58,21.79-76.67,33.72-98.23,39.19l.81.27c21.8-5.58,60.68-17.55,98-39.27Z"/><line class="cls-8" x1="837.3" y1="270.54" x2="1178.07" y2="384.17"/><rect x="1006.6" y="147.75" width="2.17" height="359.22" transform="translate(378.38 1179.74) rotate(-71.56)"/><path d="M1009.58,358.33a8,8,0,0,1-7.93-7.06l2.15-.25a5.84,5.84,0,0,0,8.05,4.68l109.24-45.91,18-23.82,1.74,1.3-18.32,24.29-.27.12-109.51,46A8.08,8.08,0,0,1,1009.58,358.33Z"/><path d="M955.87,367.9a1.25,1.25,0,0,1-.42-.08l-23.58-9.69a1.09,1.09,0,0,1-.66-.85l-5.62-39.56a1.09,1.09,0,0,1,.38-1,1.11,1.11,0,0,1,1-.2l23.31,7.78a1.09,1.09,0,0,1,.73.87l5.89,41.48a1.07,1.07,0,0,1-.41,1A1.08,1.08,0,0,1,955.87,367.9Zm-22.6-11.54,21.26,8.73L949,326.15l-21-7Z"/><line class="cls-7" x1="790.63" y1="337.14" x2="805.64" y2="342.99"/><rect x="797.05" y="332.01" width="2.17" height="16.11" transform="translate(191.5 960.27) rotate(-68.71)"/><polygon class="cls-9" points="806.61 402.93 753.14 422.42 681.31 407.66 699.64 392.09 728.7 379.97 806.61 402.93"/><path d="M753.14,423.5l-.22,0-71.83-14.76a1.07,1.07,0,0,1-.83-.79,1.09,1.09,0,0,1,.35-1.1l18.33-15.57a1.05,1.05,0,0,1,.29-.17l29-12.12a1.05,1.05,0,0,1,.72,0l77.91,23A1.09,1.09,0,0,1,807,404l-53.47,19.49A1.19,1.19,0,0,1,753.14,423.5ZM683.71,407l69.35,14.25L803.14,403l-74.38-21.92L700.22,393Z"/><line class="cls-6" x1="699.64" y1="392.09" x2="782.61" y2="411.67"/><rect x="740.04" y="359.26" width="2.17" height="85.25" transform="translate(179.72 1030.85) rotate(-76.72)"/><path d="M999.21,270.31l-1.55-1.52c.46-.47,47.14-47.1,132.13-63l.39,2.13a288.26,288.26,0,0,0-97.44,37.18C1010.89,258.54,999.32,270.19,999.21,270.31Z"/><path class="cls-10" d="M1107.17,197.64,1121,290.78l29.49-6.49-13.3-82.21a9.88,9.88,0,0,0-11.69-8.1Z"/><path d="M1121,291.86a1.06,1.06,0,0,1-.62-.19,1.09,1.09,0,0,1-.46-.73L1106.1,197.8a1.07,1.07,0,0,1,.86-1.22l18.34-3.67a11,11,0,0,1,13,9l13.3,82.21a1.08,1.08,0,0,1-.84,1.23l-29.49,6.49A.9.9,0,0,1,1121,291.86Zm-12.62-93.36,13.52,91,27.35-6-13.13-81.19a8.8,8.8,0,0,0-10.4-7.22Z"/><polygon class="cls-11" points="1121.27 195.29 1143.14 285.91 1121.01 290.78 1107.43 198.47 1121.27 195.29"/><rect x="981.21" y="316.46" width="104.5" height="2.17" transform="translate(-42.29 425.47) rotate(-22.81)"/><rect x="1009.28" y="324.83" width="100.65" height="2.17" transform="translate(-40.3 464.44) rotate(-24.27)"/><path class="cls-12" d="M914.54,246.67l319.61,106.58a22,22,0,0,1-2,4.88,24.45,24.45,0,0,0,4.87-9L917.39,242.52c-71.53,8.58-93.52,40.77-93.52,40.77l.54.18C832.89,274.59,858.52,253.39,914.54,246.67Z"/><path class="cls-11" d="M814.54,195.49s32.74-3.52,51.65-.62,36.11,17.51,66.26,24,38.57,19.16,77.92,33.26,79.49,14.68,100.87,28.81,69.59,28.47,69.59,28.47-16,4.93-20.88,5.41c0,0-104.62-34.42-136-43.3s-74.54-26.7-96-32.22-33.32-8.71-57-16.92S825.88,214.85,814.54,195.49Z"/><path class="cls-11" d="M822.84,283.63s34.36-29.65,69.76-37c24.79-4.13,31.29,7.52,46.24,12.36s26.47,4.54,36.33,11.3,34.72,10.27,52.93,15.72,20.6,12,35.82,16.93,47.79,6.46,61.95,15.31,41.89,14.79,59.06,21.64,36.32,11.38,40.83,16.62-.51,8.06-.51,8.06-39.83,18.15-50.61,19.58-31.16,5.69-31.16,5.69Z"/><polygon class="cls-11" points="773.59 316.95 780.04 313.35 791.87 398.58 787.05 396.56 773.59 316.95"/><polygon class="cls-11" points="693.16 399.29 683.29 406.88 753.14 422.42 771.73 415.74 693.16 399.29"/><path class="cls-12" d="M1136.13,202.26a8.8,8.8,0,0,0-10.4-7.22l-17.34,3.46.11.69L1122,196.5a9.87,9.87,0,0,1,11.68,8.1l12.85,79.46,2.76-.61Z"/><path class="cls-13" d="M1333.34,459.78c-46.13,11.82-111.72,28.36-120.74,29.18-14.09,1.28,24-3.64,39.41-12.61s19.2-21,46.45-16.86c19.65,3,21.29-15.44,34.6-20.93,19.65-8.12,26.91,10.67,46.13,9.39,0,0-19.83,5.17-45.85,11.83"/><path class="cls-13" d="M1384.64,106.45l-241.23,66.32c17.24-8.32,28.36-9.75,55.27-26.09s38.11-31.16,60.35-27.32,14.07-14.17,30.94-24c17.52-10.23,33.58,7.69,39.34,0s11.12-35,39-35S1384.64,106.45,1384.64,106.45Z"/><path class="cls-14" d="M1323.83,101.46c-7.47-8.76-23.49-3-23.49-3s19-4.06,20.29,6.62-32.68,11.53-9.4,12.6a39.31,39.31,0,0,0,8.36-.46C1326.18,111.77,1327.62,105.9,1323.83,101.46Z"/><path class="cls-14" d="M1387,85.26c-5.53,6.4-17.88,17.15-35.5,12.28.93.11,3.1-.14,6.52-3.56,0,0-7.69,1.29-10.68-5.34,0,0-2.77.65-1.7,5.56,0,0-7.15.71-6.62-8.55,0,0-6.68,7.91,0,16.24,0,0-3.36,12.65-19.38,15.34-6.41,5.3-17.67,10.22-33.77,13.06-24,4.23-23.87,0-22.12-2.61-2.06,1.84-6.56,4.78-15.47,6.46,0,0,8.26-.22,3.06,3.2s-27.62,14.31-43.85,10.46c0,0-6.63,8.08-21.36,11.62s-42.66,13.34-42.67,13.35h0l241.23-66.32A91.49,91.49,0,0,0,1387,85.26Z"/><path class="cls-14" d="M1212.6,489c9-.82,74.61-17.36,120.74-29.18,26-6.66,45.85-11.83,45.85-11.83-15.83,1.06-23.55-11.48-36.75-11.42.3.1,6.78,2.3,5.53,8.35s-14.53,4.91-14.53,4.91.64,2.57,5.56,1.71c0,0-2.57,4.06-10.47,3.85s-22.21,9.82-27.55,10.89,9.58-5.45-7.11-6.38c1.24.1,5.14.79,2.41,5.1-3.22,5.07-16.66,6.19-22,3.63a3.62,3.62,0,0,0,3.53,2.4,11.83,11.83,0,0,1-7.48.7s.32,1.28,2.89,1.49c0,0-54.11,15.78-63.54,16C1210,489.17,1210.93,489.11,1212.6,489Z"/></g></g></svg>