<?xml version="1.0" encoding="UTF-8"?>
<svg width="18px" height="36px" viewBox="0 0 18 36" version="1.1" xmlns="http://www.w3.org/2000/svg" xmlns:xlink="http://www.w3.org/1999/xlink">
    <!-- Generator: Sketch 45.2 (43514) - http://www.bohemiancoding.com/sketch -->
    <title>Custom Preset</title>
    <desc>Created with Sketch.</desc>
    <defs>
        <path d="M18,15.75 C18,16.9926407 16.9926407,18 15.75,18 L2.25,18 C1.00125,18 0,16.9875 0,15.75 L0,2.25 C0,1.00125 1.00125,0 2.25,0 L15.75,0 C16.9926407,0 18,1.00735931 18,2.25 L18,15.75 L18,15.75 Z" id="path-1"></path>
    </defs>
    <g id="Page-2" stroke="none" stroke-width="1" fill="none" fill-rule="evenodd">
        <g id="Custom-Preset">
            <g id="Group">
                <g id="cb-unchecked-copy">
                    <mask id="mask-2" fill="white">
                        <use xlink:href="#path-1"></use>
                    </mask>
                    <g id="path-1"></g>
                    <path d="M18,15.75 C18,16.9926407 16.9926407,18 15.75,18 L2.25,18 C1.00125,18 0,16.9875 0,15.75 L0,2.25 C0,1.00125 1.00125,0 2.25,0 L15.75,0 C16.9926407,0 18,1.00735931 18,2.25 L18,15.75 L18,15.75 Z" id="path-1" stroke="#575757" stroke-width="2" fill="#FFFFFF" fill-rule="nonzero" mask="url(#mask-2)"></path>
                </g>
                <g id="cb-checked-copy" transform="translate(0.000000, 18.000000)" fill-rule="nonzero" fill="#6450EF">
                    <path d="M18,15.75 C18,16.9926407 16.9926407,18 15.75,18 L2.25,18 C1.00125,18 0,16.9875 0,15.75 L0,2.25 C0,1.00125 1.00125,0 2.25,0 L15.75,0 C16.9926407,0 18,1.00735931 18,2.25 L18,15.75 L18,15.75 Z M7.875,13.5 L15.75,5.625 L14.16375,4.03875 L7.875,10.31625 L4.39875,6.85125 L2.8125,8.4375 L7.875,13.5 Z" id="Shape"></path>
                </g>
            </g>
        </g>
    </g>
</svg>