<svg xmlns="http://www.w3.org/2000/svg" viewBox="0 0 1642.33 348.98"><defs><style>.cls-1,.cls-4{fill:#039;}.cls-2{fill:#fff;}.cls-3{fill:#de2c63;}.cls-4{fill-rule:evenodd;}</style></defs><title>CRC Official Logos - RGB</title><g id="Layer_1" data-name="Layer 1"><path class="cls-1" d="M1129.41,347.51l-.68-.09c-54.12-7-91.89-53.77-87.86-108.85,2.81-38.41,25.32-73.36,59.31-92.84a98.79,98.79,0,0,1,.13-12.16c3.89-53.13,50.29-96.35,103.43-96.35a91.57,91.57,0,0,1,61,22.83c21.78-25.28,50.92-43.29,85-52.37,35.71-9.53,73.63-8.11,106.8,4,58.14,21.2,91.45,70.67,90.29,133.26,39.71,15.83,63.77,54.65,60.52,99.08-3.59,49.05-41.46,92.12-90,102.4l-1.08.23h-1.09Zm74.33-289.1c-42.28,0-79.2,34.41-82.3,76.7a76.21,76.21,0,0,0,.42,15.28l1,7.52-6.79,3.36c-30.9,15.28-51.62,45.5-54.06,78.84-3.18,43.46,26.34,80.4,68.77,86.21l383.23-.87c38.44-8.65,69.42-44.14,72.26-83,2.77-37.77-18.2-69.18-53.42-80l-8-2.46.54-8.35c3.7-57.31-24-101.07-76.06-120-29.13-10.61-62.54-11.83-94.09-3.41-33.57,9-61.62,27.68-81.12,54.16l-8,10.84-8.66-10.31C1244.45,67.31,1224.86,58.41,1203.74,58.41Zm0,0c-42.28,0-79.2,34.41-82.3,76.7a76.21,76.21,0,0,0,.42,15.28l1,7.52-6.79,3.36c-30.9,15.28-51.62,45.5-54.06,78.84-3.18,43.46,26.34,80.4,68.77,86.21l383.23-.87c38.44-8.65,69.42-44.14,72.26-83,2.77-37.77-18.2-69.18-53.42-80l-8-2.46.54-8.35c3.7-57.31-24-101.07-76.06-120-29.13-10.61-62.54-11.83-94.09-3.41-33.57,9-61.62,27.68-81.12,54.16l-8,10.84-8.66-10.31C1244.45,67.31,1224.86,58.41,1203.74,58.41Z"/><path class="cls-1" d="M90.5,292.91c-6.74,3-18.14,5.42-33.29,5.42-33.29,0-55.74-20.2-55.74-53.49,0-28.24,12.72-50.31,31.8-63,13.09-9.16,28.61-13.46,46.38-13.46,13.65,0,23.94,3.18,27.49,5.42l-7.29,21.88c-3.74-1.87-12-4.11-22.82-4.11s-21.13,3.37-28.8,9.73c-10.66,8.6-17.39,23-17.39,40.58,0,20,11.22,33.48,33.47,33.48,8.79,0,17.58-1.5,23.94-4.12Z"/><path class="cls-1" d="M103.78,296.46,114.07,242c2.61-13.84,3.74-29.18,4.67-37h23.38c-.56,6.17-1.12,12.34-1.68,18.7H141c6.36-12.16,16.64-20.76,29.17-20.76a44.78,44.78,0,0,1,5.05.19L170,229.32a31.24,31.24,0,0,0-4.3-.19c-17.21,0-25.25,15.34-28.62,33.29l-6.36,34Z"/><path class="cls-1" d="M249.47,291.23c-10.66,5.42-23.93,7.1-34,7.1-26.19,0-39.65-14.77-39.65-38.52,0-27.87,20.19-56.86,53.3-56.86,18.51,0,31.79,10.29,31.79,27.3,0,23.38-22.63,31.8-59.28,30.86a18.07,18.07,0,0,0,2.8,9.36c3.55,4.67,9.73,7.1,17.58,7.1a57.4,57.4,0,0,0,25.62-5.8Zm-23.75-68.64c-12.53,0-19.64,10.28-21.51,18.89,20.95.18,31.42-2.81,31.42-11C235.63,225.77,231.89,222.59,225.72,222.59Z"/><path class="cls-1" d="M374.79,163.67l-18.52,97.26a246.3,246.3,0,0,0-4.3,35.53H327.29l1.31-14.77h-.38c-8,12.15-19.26,16.83-29.92,16.83-15.53,0-28.43-12.34-28.43-34.6,0-31.79,23-61,57.6-61A37.29,37.29,0,0,1,340,205l7.86-41.34Zm-38.71,62.84c-2.06-1.68-6.18-3.18-10.66-3.18-16.09,0-27.5,18.71-27.5,36.29,0,11,4.87,17.2,12.72,17.2,7.67,0,17.21-8.22,20.76-25.62Z"/><path class="cls-1" d="M372.18,296.46,389.57,205H416.5l-17.39,91.45Zm21.13-115.95a15.32,15.32,0,0,1,15.52-15.34c7.86,0,13.47,5.24,13.47,13.28,0,9.54-7.3,15.15-15.9,15.15C398.92,193.6,393.31,188.55,393.31,180.51Z"/><path class="cls-1" d="M473.55,179.38,468.68,205h19.45l-3.92,20.38H464.76l-6.18,31.05A67.69,67.69,0,0,0,457.09,268c0,4.49,1.87,7.67,7.67,7.67a50.73,50.73,0,0,0,7.48-.37l-3.18,21.13c-3.37,1.31-10.1,2.06-15.9,2.06-16.08,0-23.75-8.23-23.75-19.64a88.53,88.53,0,0,1,1.87-17l7.1-36.47H426.79L430.53,205h11.78l3.74-19.27Z"/><path class="cls-1" d="M511.7,172.84c8.42-2.06,21.14-3.37,33.67-3.37,12,0,24.31,1.87,33.1,7.3,8.23,4.86,14,12.9,14,24.68,0,18.71-12.53,30.3-28.62,35.54v.75c7.48,3.18,10.66,11.59,12,23,1.5,14,2.62,30.49,4.87,35.72H553c-1.13-3.36-2.44-14.21-3.75-29.74-1.12-15.33-6.35-20-17-20h-8.23l-9.36,49.75H488ZM528,226.51H539.2c14.58,0,25.24-8.79,25.24-21.13,0-10.1-8.6-14.59-19.26-14.59a43.94,43.94,0,0,0-10.47.94Z"/><path class="cls-1" d="M670.3,291.23c-10.66,5.42-23.94,7.1-34,7.1-26.19,0-39.65-14.77-39.65-38.52,0-27.87,20.19-56.86,53.3-56.86,18.51,0,31.79,10.29,31.79,27.3,0,23.38-22.63,31.8-59.28,30.86a18.07,18.07,0,0,0,2.8,9.36c3.55,4.67,9.73,7.1,17.58,7.1a57.4,57.4,0,0,0,25.62-5.8Zm-23.75-68.64c-12.53,0-19.64,10.28-21.51,18.89,21,.18,31.42-2.81,31.42-11C656.46,225.77,652.72,222.59,646.55,222.59Z"/><path class="cls-1" d="M680.22,333.49l17.58-93.14c2.06-10.84,4.3-26,5.42-35.34h24.13l-1.68,13.27H726c7.48-9.91,18.33-15.33,29.36-15.33,19.83,0,29.37,15.9,29.37,34.6,0,31.79-21.14,61-52.93,61-7.48,0-13.84-1.87-17-3.74h-.38L707,333.49Zm38.34-59.85a17.44,17.44,0,0,0,12.34,4.49c14.4,0,25.63-20.57,25.63-38.52,0-7.3-3-15-11.79-15-10.1,0-19.45,11.41-22.81,29.37Z"/><path class="cls-1" d="M852.47,296.46c.19-5.42.75-11.59,1.31-18.14h-.56c-8.41,15.15-20,20.2-30.67,20.2-16.46,0-27.68-12.72-27.68-31.8,0-30.85,20.38-63.77,65.46-63.77a109,109,0,0,1,30.3,4.49l-9.73,47.88c-2.24,11.78-3.93,29.73-3.55,41.14Zm7.86-72.38a42.17,42.17,0,0,0-7.3-.75c-17.39,0-30.11,21.33-30.11,38.35,0,9,3.56,15.14,11,15.14,8,0,17.95-9.16,22.07-31.6Z"/><path class="cls-2" d="M1203.74,58.41c-42.28,0-79.2,34.41-82.3,76.7a76.21,76.21,0,0,0,.42,15.28l1,7.52-6.79,3.36c-30.9,15.28-51.62,45.5-54.06,78.84-3.18,43.46,26.34,80.4,68.77,86.21l383.23-.87c38.44-8.65,69.42-44.14,72.26-83,2.77-37.77-18.2-69.18-53.42-80l-8-2.46.54-8.35c3.7-57.31-24-101.07-76.06-120-29.13-10.61-62.54-11.83-94.09-3.41-33.57,9-61.62,27.68-81.12,54.16l-8,10.84-8.66-10.31C1244.45,67.31,1224.86,58.41,1203.74,58.41Z"/><path class="cls-1" d="M897.18,296.46,914.58,205h26.93l-17.39,91.45Zm21.14-115.95a15.31,15.31,0,0,1,15.52-15.34c7.86,0,13.47,5.24,13.47,13.28,0,9.54-7.3,15.15-15.9,15.15C923.93,193.6,918.32,188.55,918.32,180.51Z"/><path class="cls-1" d="M946.75,296.46,957,242c2.62-13.84,3.74-29.18,4.68-37h23.38c-.56,6.17-1.13,12.34-1.69,18.7H984c6.36-12.16,16.65-20.76,29.18-20.76a44.87,44.87,0,0,1,5.05.19L1013,229.32a31.09,31.09,0,0,0-4.3-.19c-17.2,0-25.25,15.34-28.61,33.29l-6.36,34Z"/><path class="cls-3" d="M1184.52,293.31c-6,2.65-16.1,4.81-29.55,4.81-29.54,0-49.46-17.92-49.46-47.47,0-25.06,11.28-44.65,28.22-55.94,11.61-8.13,25.39-12,41.16-12,12.12,0,21.25,2.82,24.4,4.82L1192.82,207c-3.32-1.66-10.63-3.65-20.25-3.65s-18.76,3-25.57,8.63c-9.46,7.63-15.43,20.41-15.43,36,0,17.77,10,29.72,29.71,29.72,7.8,0,15.6-1.33,21.25-3.66Z"/><path class="cls-3" d="M1196.3,296.46l22.57-117.85h23.91L1220.2,296.46Z"/><path class="cls-3" d="M1325.93,246.83c0,29.71-20.25,51.46-48.46,51.46-20.59,0-34.36-13.45-34.36-33.53,0-28.22,19.58-51.29,48.46-51.29C1313.32,213.47,1325.93,228.41,1325.93,246.83Zm-58.09,17.43c0,9.46,4.65,15.77,13,15.77,13.11,0,20.41-19.09,20.41-33,0-7.47-3.15-15.44-12.78-15.44C1274.64,231.56,1267.67,251.65,1267.84,264.26Z"/><path class="cls-3" d="M1421.21,215.3l-10.46,54.77c-2,10.29-3.15,19.09-4.32,26.39h-21.08l1.5-13.28h-.33c-8.3,10.63-18.26,15.11-28.06,15.11-12.94,0-20.74-7.31-20.74-22.74a72.69,72.69,0,0,1,1.66-14.94l8.46-45.31h23.9l-8.13,43.48a65.15,65.15,0,0,0-1.16,10.63c0,5.31,2,9.46,8.13,9.46,8.13,0,16.43-9.8,19.59-26.06l7.13-37.51Z"/><path class="cls-3" d="M1521.29,178.61l-16.43,86.32a218.76,218.76,0,0,0-3.82,31.53h-21.91l1.16-13.11H1480c-7.13,10.79-17.09,14.94-26.55,14.94-13.78,0-25.23-11-25.23-30.71,0-28.22,20.41-54.11,51.12-54.11a33.17,33.17,0,0,1,11.12,1.83l7-36.69Zm-34.36,55.77c-1.82-1.49-5.47-2.82-9.46-2.82-14.27,0-24.4,16.6-24.4,32.2,0,9.8,4.32,15.27,11.29,15.27,6.81,0,15.27-7.3,18.43-22.74Z"/><path class="cls-4" d="M1607.78,133.71V100.06H1616l8.47,26.87,8.25-26.87h8.13v33.65h-5.16V105.45L1627,133.71h-5.07l-9-28.67v28.67Zm-20.38,0V105h-10.91v-5h27.57v5H1593v28.67Z"/></g></svg>