<?xml version="1.0" encoding="UTF-8"?>
<svg width="328px" height="320px" viewBox="0 0 328 320" version="1.1" xmlns="http://www.w3.org/2000/svg" xmlns:xlink="http://www.w3.org/1999/xlink">
    <!-- Generator: Sketch 58 (84663) - https://sketch.com -->
    <title>Group 15</title>
    <desc>Created with Sketch.</desc>
    <g id="Page-1" stroke="none" stroke-width="1" fill="none" fill-rule="evenodd">
        <g id="Group-15" transform="translate(164.000000, 160.500000) rotate(-270.000000) translate(-164.000000, -160.500000) translate(4.000000, -3.000000)">
            <g id="Group-51" transform="translate(0.000000, -0.000000)">
                <circle id="Oval" fill="#FF7373" cx="90.4041916" cy="301.134731" r="3.41616766"></circle>
                <circle id="Oval-Copy-3" fill="#FFD2D2" cx="130.071856" cy="35.2155689" r="2.92814371"></circle>
                <circle id="Oval-Copy-8" fill="#FF7373" cx="157.263473" cy="97.1407186" r="1.46407186"></circle>
                <circle id="Oval-Copy-13" fill="#DFE1E0" cx="60.0958084" cy="2.19161677" r="1.95209581"></circle>
                <circle id="Oval-Copy-16" fill="#DFE1E0" cx="201.095808" cy="306.191617" r="1.95209581"></circle>
                <circle id="Oval-Copy-14" fill="#DFE1E0" cx="141.646707" cy="245.011976" r="1.95209581"></circle>
                <circle id="Oval-Copy-15" fill="#DFE1E0" cx="61.6107784" cy="164" r="3.90419162"></circle>
                <circle id="Oval-Copy-11" fill="#5393DE" cx="224.158683" cy="161.595808" r="3.45209581"></circle>
                <circle id="Oval-Copy-12" fill="#FFE784" cx="228.51497" cy="14.6646707" r="3.90419162"></circle>
                <circle id="Oval-Copy-9" fill="#5393DE" cx="88.9401198" cy="118.613772" r="1.46407186"></circle>
                <polygon id="Path" fill="#883939" fill-rule="nonzero" transform="translate(268.044910, 303.574850) rotate(270.000000) translate(-268.044910, -303.574850) " points="267.617312 354.817365 244.61976 329.940464 268.472508 252.332335 291.47006 277.209237"></polygon>
                <polygon id="Path" fill="#FF7373" fill-rule="nonzero" transform="translate(225.098802, 271.341317) rotate(270.000000) translate(-225.098802, -271.341317) " points="216.430695 288.422156 192.865269 263.36957 233.766909 254.260479 257.332335 279.313065"></polygon>
                <polygon id="Path" fill="#D3424C" fill-rule="nonzero" transform="translate(251.940120, 246.964072) rotate(270.000000) translate(-251.940120, -246.964072) " points="309.526946 179.616766 285.771546 257.332709 246.00127 266.390487 234.12357 305.253599 194.353293 314.311377 218.118959 236.595435 257.889236 227.537657 269.766936 188.674545"></polygon>
                <polygon id="Path" fill="#883939" fill-rule="nonzero" transform="translate(200.697605, 245.988024) rotate(270.000000) translate(-200.697605, -245.988024) " points="206.270496 277.709581 183.128743 252.927594 195.124714 214.266467 218.266467 239.048454"></polygon>
                <polygon id="Path" fill="#FF7373" fill-rule="nonzero" transform="translate(177.272455, 220.610778) rotate(270.000000) translate(-177.272455, -220.610778) " points="168.877004 237.691617 146.038922 212.639031 185.678138 203.52994 208.505988 228.582526"></polygon>
                <polygon id="Path" fill="#3068B2" fill-rule="nonzero" transform="translate(124.792295, 209.594544) scale(-1, 1) rotate(-233.000000) translate(-124.792295, -209.594544) " points="85.8070284 215.680657 153.010972 139.727673 163.777561 171.613797 118.974932 222.251956 129.73301 254.138079 107.331696 279.461415"></polygon>
                <polygon id="Path" fill="#5393DE" fill-rule="nonzero" transform="translate(85.555459, 215.225776) scale(-1, 1) rotate(-233.000000) translate(-85.555459, -215.225776) " points="65.686208 256.036779 38.2207666 250.376269 105.433221 174.414773 132.890151 180.083796"></polygon>
                <polygon id="Path" fill="#255297" fill-rule="nonzero" transform="translate(127.611785, 154.935736) scale(-1, 1) rotate(-233.000000) translate(-127.611785, -154.935736) " points="152.106839 189.656371 124.649909 183.987348 103.11673 120.215102 130.582172 125.875613"></polygon>
                <g id="Group-55" transform="translate(0.025064, 10.901980)" fill-rule="nonzero">
                    <polygon id="Path" fill="#E79C52" transform="translate(34.516195, 24.486388) scale(-1, -1) rotate(270.000000) translate(-34.516195, -24.486388) " points="26.2358725 50.02764 19.0422619 22.8570025 42.8050417 -1.05486464 49.990129 26.107242"></polygon>
                    <polygon id="Path" fill="#E79C52" transform="translate(67.206269, 15.541252) scale(-1, -1) rotate(270.000000) translate(-67.206269, -15.541252) " points="58.9216839 41.0825046 51.7280734 13.9203979 75.4908532 -10 82.6844637 17.1706375"></polygon>
                    <polygon id="Path" fill="#FFE784" transform="translate(74.777365, 43.774469) scale(-1, -1) rotate(270.000000) translate(-74.777365, -43.774469) " points="62.022343 52.9749501 54.8287325 25.8043127 87.5323861 34.5825186 94.7259966 61.7446253"></polygon>
                    <polygon id="Path" fill="#F7C66C" transform="translate(40.462172, 63.718839) scale(-1, -1) rotate(270.000000) translate(-40.462172, -63.718839) " points="96.9243434 32.2316108 25.6530505 103.975743 -7.05060302 95.2060679 16.7036535 71.28567 -16 62.5159948 7.76277979 38.6041277 40.4664333 47.3738028 64.2206899 23.4619357"></polygon>
                    <polygon id="Path" fill="#E79C52" transform="translate(82.344195, 72.003424) scale(-1, -1) rotate(270.000000) translate(-82.344195, -72.003424) " points="74.0638721 97.5404109 66.8702616 70.3783043 90.6245182 46.4664371 97.8181287 73.6285438"></polygon>
                    <polygon id="Path" fill="#FFE784" transform="translate(89.915291, 100.232379) scale(-1, -1) rotate(270.000000) translate(-89.915291, -100.232379) " points="77.1602696 109.428595 69.9666591 82.2664882 102.670313 91.0361633 109.863923 118.19827"></polygon>
                </g>
                <polygon id="Path" fill="#FFEFEF" fill-rule="nonzero" transform="translate(196.916175, 74.780341) rotate(270.000000) translate(-196.916175, -74.780341) " points="200.210817 90.1519958 172.598582 85.8648085 193.621534 59.4086864 221.233769 63.6958737"></polygon>
                <polygon id="Path" fill="#FFD2D2" fill-rule="nonzero" transform="translate(278.717925, 121.193659) rotate(270.000000) translate(-278.717925, -121.193659) " points="298.676585 139.007221 271.07283 134.720033 258.759266 103.380097 286.371501 107.667285"></polygon>
                <polygon id="Path" fill="#FFEFEF" fill-rule="nonzero" transform="translate(249.819896, 116.834725) rotate(270.000000) translate(-249.819896, -116.834725) " points="253.114538 132.20638 225.502303 127.919193 246.533735 101.46307 274.13749 105.758781"></polygon>
                <polygon id="Path" fill="#DCC5CD" fill-rule="nonzero" transform="translate(238.735429, 75.844633) rotate(270.000000) translate(-238.735429, -75.844633) " points="230.780798 18.0485753 243.094363 49.3970345 264.117315 22.9409123 276.430879 54.2808483 213.345063 133.640691 201.039979 102.300755 222.062931 75.8531566 209.757847 44.5046975"></polygon>
                <polygon id="Path" fill="#FFD2D2" fill-rule="nonzero" transform="translate(220.926129, 112.475791) rotate(270.000000) translate(-220.926129, -112.475791) " points="240.884788 130.293614 213.281034 125.997904 200.967469 94.657968 228.579705 98.9451553"></polygon>
                <polygon id="Path" fill="#FFEFEF" fill-rule="nonzero" transform="translate(192.023838, 108.116857) rotate(270.000000) translate(-192.023838, -108.116857) " points="195.31848 123.488512 167.706245 119.201325 188.737677 92.7452026 216.341432 97.0323899"></polygon>
            </g>
        </g>
    </g>
</svg>