<?xml version="1.0" encoding="UTF-8"?>
<svg width="143px" height="25px" viewBox="0 0 143 25" version="1.1" xmlns="http://www.w3.org/2000/svg" xmlns:xlink="http://www.w3.org/1999/xlink">
    <title>Group</title>
    <g id="Page-1" stroke="none" stroke-width="1" fill="none" fill-rule="evenodd">
        <g id="Group" fill-rule="nonzero">
            <polygon id="Path" fill="#003057" points="26.2369 0.378906 26.2369 18.8205 22.2734 18.8253 22.2734 0.378906"></polygon>
            <path d="M37.6121,7.49511 L41.5994,7.49511 L41.5994,18.8063 L37.6145,18.8063 L37.6145,17.5511 C36.7708,18.6231 35.626,19.1607 34.1801,19.1639 C33.405,19.1741 32.6362,19.0212 31.9231,18.7151 C31.2497,18.4187 30.6432,17.9876 30.1404,17.4479 C29.6224,16.8924 29.2176,16.2401 28.9487,15.5279 C28.6595,14.7615 28.514,13.9477 28.5197,13.1279 C28.5152,12.3401 28.655,11.5583 28.932,10.8215 C29.1931,10.1125 29.5871,9.46064 30.0927,8.9015 C30.6059,8.33549 31.2322,7.88525 31.9305,7.5804 C32.6288,7.27554 33.3833,7.12297 34.1444,7.13271 C34.7959,7.11412 35.4438,7.23599 36.0448,7.49014 C36.6457,7.74428 37.1858,8.12484 37.6288,8.6063 L37.6121,7.49511 Z M32.6262,13.1255 C32.6236,13.8152 32.8877,14.4789 33.3626,14.9759 C33.5921,15.2135 33.8681,15.4006 34.173,15.5255 C34.4965,15.6589 34.8434,15.7259 35.193,15.7223 C35.535,15.7235 35.8737,15.6558 36.1893,15.5231 C36.4931,15.3964 36.768,15.2086 36.9972,14.9711 C37.2246,14.7324 37.41,14.4565 37.5454,14.1551 C37.6823,13.8421 37.7522,13.5035 37.7503377,13.1615 C37.7518,12.8162 37.6811,12.4744 37.543,12.1583 C37.4087,11.8529 37.2223,11.5735 36.9924,11.3327 C36.7629,11.0951 36.487,10.908 36.1821,10.7831 C35.8668,10.65 35.5278,10.5831 35.1859,10.5863 C34.8369,10.5838 34.4909,10.6516 34.1682,10.7855 C33.8633,10.9115 33.5875,11.0994 33.3579,11.3375 C33.1335,11.5702 32.9526,11.8417 32.824,12.1391 C32.6896,12.4501 32.6221,12.7863 32.6262,13.1255 Z" id="Shape" fill="#003057"></path>
            <path d="M48.2525,7.48332 L48.2525,13.8553 C48.2525,15.2521 48.9246,15.9497 50.2688,15.9481 C51.6131,15.9465 52.2836,15.2473 52.2804,13.8505 L52.2804,7.47852 L56.2439,7.47852 L56.2439,14.6233 C56.2439,16.1529 55.7457,17.3001 54.7495,18.0649 C53.7533,18.8297 52.2605,19.2137 50.2712,19.2169 C48.2867,19.2169 46.7939,18.8361 45.7929,18.0745 C44.7919,17.3129 44.2907,16.1673 44.2891,14.6377 L44.2891,7.49292 L48.2525,7.48332 Z" id="Path" fill="#003057"></path>
            <path d="M58.9414,7.47046 L62.9049,7.47046 L62.9049,8.91046 C63.334,8.33589 63.8972,7.87674 64.5446,7.57366 C65.1662,7.33306 65.8284,7.2165 66.4942,7.23046 C67.189,7.21072 67.8799,7.34168 68.52,7.61446 C69.0715,7.86554 69.5602,8.23786 69.95,8.70406 C70.2673,9.07085 70.495,9.50727 70.615,9.97846 C70.7383,10.5061 70.7983,11.0468 70.7937,11.5889 L70.7937,18.7889 L66.8302,18.7889 L66.8302,13.0769 C66.8401,12.6217 66.7993,12.1669 66.7087,11.7209 C66.6451,11.4112 66.4974,11.1254 66.2821,10.8953 C66.1154,10.7262 65.9124,10.5981 65.6886,10.5209 C65.4625,10.4466 65.2258,10.4101 64.9879,10.4129 C64.7024,10.3939 64.4162,10.4385 64.1497,10.5434 C63.8832,10.6484 63.6429,10.8111 63.4459,11.0201 C63.0884,11.4257 62.9097,12.0017 62.912,12.7529 L62.912,18.7937 L58.9486,18.7937 L58.9414,7.47046 Z" id="Path" fill="#003057"></path>
            <path d="M81.9581,11.1022 C81.3517,10.6603 80.6259,10.415 79.8775,10.399 C79.5136,10.3971 79.1528,10.4655 78.8145,10.6006 C78.4925,10.7278 78.1991,10.9188 77.9517,11.1622 C77.7012,11.4061 77.5032,11.6994 77.3702,12.0238 C77.2286,12.3775 77.1589,12.7562 77.1653,13.1374 C77.1607,13.512 77.232,13.8836 77.375,14.2294 C77.5078,14.5503 77.7013,14.8421 77.9446,15.0886 C78.1909,15.3346 78.4856,15.5259 78.8097,15.6502 C79.1518,15.7829 79.5157,15.8497 79.8822,15.847 C80.6441,15.8393 81.3795,15.5653 81.9629,15.0718 L81.9629,18.4678 C81.0893,18.8718 80.1426,19.0908 79.1815,19.1110531 C78.3867,19.1142 77.5979,18.9727 76.853,18.6934 C76.132,18.4246 75.4699,18.017 74.9035,17.4934 C74.3348,16.9649 73.8762,16.3278 73.5545,15.619 C73.2071,14.8559 73.0313,14.0249 73.0397,13.1854 C73.0274,12.3418 73.1898,11.5048 73.5164,10.7278 C73.8226,10.0061 74.2691,9.35328 74.8296,8.80783 C75.3998,8.25918 76.0732,7.83079 76.8101,7.54783 C77.5983,7.24207 78.437,7.08977 79.2817,7.09903 C80.2079,7.08888 81.1233,7.2994 81.9534,7.71343 L81.9581,11.1022 Z" id="Path" fill="#003057"></path>
            <path d="M84.75,0.448242 L88.7135,0.448242 L88.7135,8.87224 C89.142,8.29765 89.7054,7.83915 90.3532,7.53784 C90.9743,7.29524 91.6367,7.17781 92.3028,7.19224 C93.7185,7.19224 94.7878,7.58424 95.5108,8.36824 C96.2337,9.15224 96.5968,10.2138 96.5999,11.553 L96.5999,18.741 L92.6365,18.741 L92.6365,13.0314 C92.647,12.5645 92.6022,12.098 92.503,11.6418 C92.4399,11.3323 92.2873,11.0484 92.0645,10.8258 C91.713,10.518 91.2598,10.3536 90.7941,10.365 C90.5087,10.3469 90.2228,10.3919 89.9564,10.4968 C89.69,10.6017 89.4496,10.7639 89.2521,10.9722 C88.8946,11.3778 88.7159,11.9538 88.7182,12.705 L88.7182,18.7458 L84.7548,18.7458 L84.75,0.448242 Z" id="Path" fill="#003057"></path>
            <path d="M103.278,24.3791 L99.3144,24.3791 L99.293,7.42309 L103.256,7.42309 L103.256,8.67829 C104.102,7.60469 105.254,7.06709 106.715,7.0654293 C107.489,7.06181 108.254,7.2255 108.96,7.54549 C109.64,7.85251 110.253,8.29031 110.766,8.83429 C111.284,9.38998 111.689,10.0422 111.958,10.7543 C112.247,11.5064 112.393,12.3069 112.387,13.1135 C112.397,13.913 112.253,14.7068 111.963,15.4511 C111.688,16.1531 111.284,16.7964 110.771,17.3471 C110.259,17.9036 109.638,18.3464 108.946,18.6473 C108.255,18.9481 107.508,19.1004 106.755,19.0943 C106.103,19.1131 105.455,18.9947 104.851,18.7468 C104.248,18.4988 103.702,18.1267 103.249,17.6543 L103.278,24.3791 Z M108.257046,13.0991 C108.259,12.7558 108.196,12.4153 108.071,12.0959 C107.95,11.7861 107.767,11.5049 107.532,11.2703 C107.295,11.0329 107.016,10.8424 106.71,10.7087 C106.389,10.5681 106.042,10.4969 105.692,10.4999 C105.354,10.4977 105.019,10.5655 104.708,10.6991 C104.407,10.8271 104.135,11.0148 103.907,11.2511 C103.677,11.4919 103.493,11.7724 103.361,12.0791 C103.157,12.5453 103.099,13.0635 103.196,13.5638 C103.292,14.0642 103.539,14.5226 103.902,14.8775 C104.141,15.109 104.419,15.2959 104.722,15.4295 C105.037,15.5692 105.377,15.6396 105.721,15.6359 C106.053,15.6382 106.382,15.5729 106.688,15.4438 C106.995,15.3147 107.272,15.1245 107.504,14.8847 C107.732,14.647 107.916,14.3708 108.049,14.0687 C108.187,13.7642 108.257046,13.4335 108.257046,13.0991 Z" id="Shape" fill="#003057"></path>
            <path d="M123.328,7.39385 L127.313,7.39385 L127.327,18.705 L123.342,18.705 L123.342,17.4474 C122.938,17.9714 122.416,18.3911 121.818,18.672 C121.221,18.9528 120.567,19.0867 119.908,19.0626 C119.128,19.0754 118.355,18.9242 117.637,18.6186 C116.959,18.3231 116.347,17.892 115.84,17.3514 C115.321,16.7962 114.916,16.1438 114.648,15.4314 C114.358,14.6651 114.213,13.8513 114.219,13.0314 C114.214,12.2444 114.354,11.4633 114.631,10.7274 C114.891,10.0184 115.284,9.36654 115.79,8.80745 C116.288,8.26055 116.891,7.82057 117.563,7.51385 C118.278,7.18916 119.055,7.02536 119.839,7.03385 C120.492,7.01642 121.141,7.13973 121.743,7.39554 C122.344,7.65134 122.885,8.03372 123.328,8.51705 L123.328,7.39385 Z M118.323,13.0218 C118.317,13.7122 118.582,14.3769 119.059,14.8722 C119.288,15.1111 119.564,15.2991 119.87,15.4242 C120.193,15.5574 120.539,15.6243 120.887,15.621 C121.229,15.6227 121.568,15.555 121.884,15.4218 C122.189,15.2958 122.464,15.1079 122.694,14.8698 C122.922,14.6317 123.106,14.3556 123.24,14.0538 C123.379,13.7413 123.449,13.4025 123.447042,13.0602 C123.449,12.7146 123.378,12.3726 123.237,12.057 C123.105,11.751 122.92,11.4713 122.689,11.2314 C122.46,10.9933 122.184,10.8061 121.879,10.6818 C121.563,10.5492 121.225,10.4814 120.883,10.4826 C120.534,10.4798 120.188,10.5475 119.865,10.6818 C119.56,10.8096 119.285,10.9982 119.055,11.2362 C118.83,11.4698 118.648,11.7421 118.518,12.0402 C118.386,12.3502 118.32,12.6845 118.323,13.0218 Z" id="Shape" fill="#003057"></path>
            <path d="M138.658,0.378906 L142.633,0.378906 L142.655,18.6813 L138.67,18.6813 L138.67,17.4309 C138.266,17.953 137.745,18.3713 137.15,18.6516 C136.554,18.9319 135.902,19.0663 135.245,19.0437 C134.469,19.0547 133.7,18.8975 132.99,18.5829 C132.312,18.2825 131.701,17.8483 131.193,17.3061 C130.675,16.7507 130.27,16.0984 130.001,15.3861 C129.434,13.8781 129.421,12.2155 129.966,10.6989 C130.221,9.98962 130.611,9.33739 131.114,8.77891 C131.632,8.2131 132.262,7.76321 132.963,7.45848 C133.664,7.15375 134.421,7.00098 135.185,7.01011 C135.836,6.99156 136.484,7.11345 137.084,7.36761 C137.685,7.62176 138.225,8.0023 138.667,8.48371 L138.658,0.378906 Z M133.681,13.0053 C133.677,13.695 133.94,14.3591 134.415,14.8557 C134.646,15.0931 134.923,15.2802 135.228,15.4053 C135.55,15.54 135.897,15.6069 136.246,15.6021 C136.588,15.6045 136.927,15.5367 137.242,15.4029 C137.547,15.2769 137.823,15.089 138.052,14.8509 C138.279,14.6124 138.464,14.3364 138.598,14.0349 C138.737,13.7224 138.807,13.3836 138.805042,13.0413 C138.805042,12.6959 138.734,12.3544 138.596,12.0381 C138.462,11.7328 138.277,11.4534 138.048,11.2125 C137.817,10.9751 137.54,10.7881 137.235,10.6629 C136.92,10.5296 136.581,10.4627 136.239,10.4661 C135.897,10.4649 135.558,10.5326 135.242,10.6653 C134.939,10.792 134.664,10.9798 134.434,11.2173 C134.207,11.4522 134.023,11.7251 133.889,12.0237 C133.748,12.3313 133.677,12.6666 133.681,13.0053 Z" id="Shape" fill="#003057"></path>
            <path d="M11.0711,11.8147 L8.21107,9.79395 L1.13972,14.7787 C0.614127,15.1502 0.25658,15.7166 0.145734,16.3535 C0.0348875,16.9903 0.179821,17.6455 0.548651,18.1747 C0.917481,18.704 1.47999,19.0641 2.11245,19.1757 C2.7449,19.2873 3.39548,19.1414 3.92107,18.7699 L13.4854,12.0211 C13.1014,12.2072 12.6749,12.2863 12.2502,12.2499 C11.8256,12.2136 11.4184,12.0634 11.0711,11.8147 Z" id="Path" fill="#00A4FF"></path>
            <path d="M13.4812,7.5621 L3.924,0.820495 C3.39872,0.449086 2.74845,0.303013 2.11622,0.414409 C1.48399,0.525806 0.921604,0.885548 0.552774,1.4145 C0.183944,1.94344 0.0388845,2.59827 0.149508,3.23492 C0.260131,3.87157 0.617374,4.43789 1.14265,4.8093 L8.214,9.7941 L11.074,7.7757 C11.4213,7.53049 11.8266,7.38167 12.2492,7.34417 C12.6717,7.30668 13.0966,7.38184 13.4812,7.5621 Z" id="Path" fill="#185ABC"></path>
            <path d="M14.8843,9.79428 C14.8813,9.40548 14.7855,9.02311 14.6051,8.67937 C14.4247,8.33563 14.1648,8.04058 13.8475,7.81908 L13.4781,7.56228 C13.0935,7.38202 12.6686,7.30686 12.2461,7.34436 C11.8236,7.38185 11.4183,7.53068 11.0709,7.77588 L8.21094,9.79428 L11.0709,11.8151 C11.4178,12.0628 11.8241,12.2126 12.2478,12.2489 C12.6715,12.2852 13.0971,12.2067 13.4805,12.0215 L13.8428,11.7647 C14.1603,11.5442 14.4206,11.2501 14.6019,10.9072 C14.7831,10.5644 14.88,10.1827 14.8843,9.79428 Z" id="Path" fill="#0E3FB4"></path>
        </g>
    </g>
</svg>