<?xml version="1.0" encoding="UTF-8"?> <svg xmlns="http://www.w3.org/2000/svg" id="Layer_1" data-name="Layer 1" viewBox="0 0 772.02 171.73"><defs><style>.cls-1{fill:#465660;}.cls-2{fill:#8dc63f;}</style></defs><title>mirketa_hi-res_080818</title><path class="cls-1" d="M124.35,189.09v58.47H102.8v-58.7a35.8,35.8,0,0,0-71.54,0v58.7H9.71v-114H31.26v11.92A57,57,0,0,1,113.57,157a57.33,57.33,0,0,1,103.87,33.47v57.32H195.89V190.46a35.78,35.78,0,0,0-71.54-1.37Z" transform="translate(-9.71 -76.05)"></path><rect class="cls-1" x="235.25" y="58.24" width="21.55" height="113.27"></rect><path class="cls-1" d="M296.77,247.56V134.06h21.56v11.7a57,57,0,0,1,35.78-12.62V154.7a35.67,35.67,0,0,0-35.78,35.76v57.1Z" transform="translate(-9.71 -76.05)"></path><path class="cls-1" d="M389.87,190.69c29.81,1.38,54.58,26.37,54.58,56.87H422.89c0-19.26-16.05-35.77-35.31-35.77v35.77H365.79V76.05h21.79v93.09a35.18,35.18,0,0,0,35.31-35.31h21.56A57,57,0,0,1,389.87,190.69Z" transform="translate(-9.71 -76.05)"></path><path class="cls-1" d="M569.63,190.46c0,31.19-25.44,56.87-57.54,56.87a57,57,0,0,1-56.87-56.87c0-32.09,25.45-57.55,56.87-57.55a57.1,57.1,0,0,1,47.45,24.54l-64,64.2a36.65,36.65,0,0,0,16.51,4.13c20.18,0,36-15.82,36-35.32Zm-89.19,15.83,48.16-48.15a37.22,37.22,0,0,0-16.51-3.9c-19.72,0-35.32,15.82-35.32,36.22A37.33,37.33,0,0,0,480.44,206.29Z" transform="translate(-9.71 -76.05)"></path><path class="cls-1" d="M641.4,226v21.32A57,57,0,0,1,584.08,190v-77.5h21.55v21.78H641.4v21.78H605.63V190A36.16,36.16,0,0,0,641.4,226Z" transform="translate(-9.71 -76.05)"></path><path class="cls-1" d="M781.73,247.1c-12.62-2.06-22.25-11.93-29.13-22A56.56,56.56,0,0,1,707,247.56a57.33,57.33,0,0,1,0-114.65,56.81,56.81,0,0,1,57.1,57.1v4.81c0,12.85,7.11,25.22,17.66,30.73ZM707,154.7c-19.94,0-35.76,15.59-35.76,35.31A35.72,35.72,0,0,0,707,226c20,0,35.55-16,35.55-36A35.09,35.09,0,0,0,707,154.7Z" transform="translate(-9.71 -76.05)"></path><path class="cls-2" d="M255.88,118.47a15.59,15.59,0,1,1,0-31.18,15.59,15.59,0,0,1,0,31.18Z" transform="translate(-9.71 -76.05)"></path></svg> 