<svg xmlns="http://www.w3.org/2000/svg" xmlns:xlink="http://www.w3.org/1999/xlink" id="Layer_1" x="0px" y="0px" width="634.3px" height="133px" viewBox="0 0 634.3 133" style="enable-background:new 0 0 634.3 133;" xml:space="preserve">
<style type="text/css">
	.st0{fill:#113F67;}
	.st1{fill:#13587B;}
	.st2{fill:#0C2949;stroke:#0C2949;stroke-miterlimit:10;}
	.st3{fill:#9FBAC4;}
	.st4{fill:#072D4A;}
	.st5{fill:#FFFFFF;}
	.st6{fill:#1E3B66;}
	.st7{fill:#9FBCC3;}
	.st8{fill:#172C46;}
	.st9{fill:#18293F;}
	.st10{fill:#24537D;}
	.st11{clip-path:url(#SVGID_2_);}
	.st12{fill:url(#path220_4_);}
	.st13{clip-path:url(#SVGID_4_);}
	.st14{fill:url(#path238_4_);}
	.st15{clip-path:url(#SVGID_6_);}
	.st16{fill:url(#path220_5_);}
	.st17{clip-path:url(#SVGID_8_);}
	.st18{fill:url(#path238_5_);}
	.st19{clip-path:url(#SVGID_10_);}
	.st20{fill:url(#path220_6_);}
	.st21{clip-path:url(#SVGID_12_);}
	.st22{fill:url(#path238_6_);}
	.st23{clip-path:url(#SVGID_14_);}
	.st24{fill:url(#path220_7_);}
	.st25{clip-path:url(#SVGID_16_);}
	.st26{fill:url(#path238_7_);}
</style>
<g>
	<g id="XMLID_103_">
		<g>
			<path id="XMLID_229_" class="st0" d="M671.7-542.4c-1.3-1.6-3.3-2.3-5.2-2.3h-20c-2,0-3.9,0.9-5.2,2.3c-1.6,1.3-2.3,3.2-2.3,5.2     v22.7c0,2,0.7,3.7,2.2,5.2c1.5,1.5,3.3,2.3,5.2,2.3h20c2,0,3.6-0.7,5.2-2.3c1.6-1.3,2.3-3.2,2.3-5.2v-22.7     C673.9-539.1,673.3-541.1,671.7-542.4z M669.1-514.6c0,0.9,0,1.3-0.7,2c-0.7,0.3-1.3,0.7-2,0.7h-20c-0.9,0-1.5-0.1-2-0.7     c-0.4-0.6-0.7-1.3-0.7-2v-22.7c0-0.9,0-1.3,0.7-2c0.7-0.3,1.3-0.7,2-0.7h20c0.9,0,1.3,0,2,0.7c0.4,0.7,0.7,1.3,0.7,2V-514.6z"></path>
			<path id="XMLID_225_" class="st0" d="M631.2-524.9c1.3-0.9,2.3-2,2.9-3.3c0.9-1.6,1.6-3.6,1.6-5.5c0-2.9-1.3-5.5-3.3-7.5     c-2-2.3-4.5-3.2-7.5-3.2h-22c-0.9,0-1.3,0-2,0.7c-0.4,0.3-0.7,0.9-0.7,1.6v32.7c0,0.7,0,0.9,0.7,1.6c0.4,0.3,0.9,0.7,1.6,0.7     s1.3-0.3,1.6-0.7c0.4-0.3,0.7-0.9,0.7-1.6v-13.9h17.8c2.3,0,3.8,0.7,5.5,2.3c1.6,1.6,2.3,3.2,2.3,5.5v6.2c0,0.7,0.4,1.3,0.7,1.6     c0.4,0.3,0.9,0.7,1.6,0.7c0.7,0,1.6,0.1,2.3-0.4c0.4-0.3,0.7-0.9,0.7-1.6v-6.1C635.7-519.4,634.1-522.6,631.2-524.9z      M628.6-529.7c-0.9,0.9-2.3,1.6-3.8,1.6h-19.5v-11.6h19.4c1.3,0,2.9,0.3,3.9,1.6c0.9,1.3,1.6,2.6,1.6,4.2     C630.3-532.3,629.9-531,628.6-529.7z"></path>
			<path id="XMLID_224_" class="st0" d="M565.2-507.1c-0.7,0-1.3-0.3-1.6-0.7c-0.4-0.7-0.7-0.9-0.7-1.6v-16.5c0-0.7,0.4-1.3,0.7-1.6     c0.3-0.3,0.9-0.7,1.6-0.7h20.7c1.6,0,2.9-0.7,3.9-1.6c1.3-1.3,1.6-2.6,1.6-4.2s-0.7-2.9-1.6-4.2s-2.6-1.6-3.9-1.6h-22     c-0.7,0-1.3-0.3-1.6-0.7c-0.7-0.7-0.7-0.9-0.7-1.6s0.4-1.3,0.7-1.6c0.7-0.7,0.9-0.7,2-0.7h22c2.9,0,5.5,0.9,7.5,3.3     c2,2,3.3,4.5,3.3,7.5s-0.9,5.5-3.3,7.5c-2,2-4.5,3.3-7.5,3.3h-18.4v13.9c0,0.7-0.4,1.3-0.7,1.6     C566.6-507.1,565.9-507.1,565.2-507.1z"></path>
			<path id="XMLID_223_" class="st0" d="M510.3-507.1c-0.7,0-1.3-0.3-1.6-0.7c-0.7-0.7-0.7-0.9-0.7-1.6c0-0.7,0.4-1.3,0.7-1.6     s0.9-0.7,1.6-0.7h22c1.6,0,2.9-0.7,3.9-1.6c1.3-1.3,1.6-2.6,1.6-4.2c0-1.6-0.7-2.9-1.6-4.2c-0.9-1.3-2.6-1.6-3.9-1.6h-13.9     c-2.9,0-5.5-0.9-7.5-3.3c-2-2-3.3-4.5-3.3-7.5s0.9-5.5,3.3-7.5c2-2,4.5-3.3,7.5-3.3h22c0.7,0,1.3,0.3,1.6,0.7     c0.7,0.7,0.7,0.9,0.7,1.6c0,0.7-0.4,1.3-0.7,1.6c-0.4,0.3-0.9,0.7-1.6,0.7h-22c-1.6,0-2.9,0.7-4.2,1.6c-0.9,0.9-1.6,2.6-1.6,4.2     s0.7,2.9,1.6,4.2c0.9,0.9,2.6,1.6,4.2,1.6h13.9c2.9,0,5.5,0.9,7.5,3.3c2,2,3.3,4.5,3.3,7.5s-0.9,5.5-3.3,7.5     c-2,2-4.5,3.3-7.5,3.3H510.3z"></path>
			<path id="XMLID_222_" class="st0" d="M471.4-507.1c-0.7,0-1.3-0.3-1.7-0.5c-0.5-0.4-0.7-1.1-0.7-1.7c0-0.8,0.4-1.3,0.7-1.6     c0.3-0.3,0.9-0.7,1.6-0.7h22c1.6,0,2.9-0.7,3.9-1.6c1.3-1.3,1.6-2.6,1.6-4.2c0-1.6-0.7-2.9-1.6-4.2c-0.9-1.3-2.6-1.6-3.9-1.6     h-13.9c-2.9,0-5.5-0.9-7.5-3.3c-2-2-3.3-4.5-3.3-7.5s0.9-5.5,3.3-7.5c2-2,4.5-3.3,7.5-3.3h22c0.7,0,1.3,0.3,1.6,0.7     c0.4,0.7,0.7,0.9,0.7,1.6c0,0.7-0.4,1.3-0.7,1.6c-0.3,0.3-0.9,0.7-1.6,0.7h-22c-1.6,0-2.9,0.7-4.2,1.6c-0.9,0.9-1.6,2.6-1.6,4.2     s0.7,2.9,1.6,4.2c0.9,0.9,2.6,1.6,4.2,1.6h13.9c2.9,0,5.5,0.9,7.5,3.3c2,2,3.3,4.5,3.3,7.5s-0.9,5.5-3.3,7.5     c-2,2-4.5,3.3-7.5,3.3H471.4z"></path>
			<path id="XMLID_221_" class="st0" d="M435.2-524.5v12.9H463c0.7,0,1.3,0.3,1.6,0.7c0.3,0.3,0.7,0.9,0.7,1.6     c0,0.7-0.4,1.3-0.7,1.6c-0.4,0.3-0.9,0.7-1.6,0.7c0,0-24.5,0-31.9,0c-0.4,0-0.4-0.7-0.4-1.3v-34.3c0-0.7,0.3-1.3,0.7-1.6     c0.7-0.3,0.9-0.7,1.6-0.7H463c0.7,0,1.3,0.3,1.6,0.7c0.3,0.7,0.7,0.9,0.7,1.6s-0.4,1.3-0.7,1.6c-0.4,0.3-0.9,0.7-1.6,0.7h-27.8     v11.3H463c0.7,0,1.3,0.3,1.6,0.7c0.3,0.3,0.7,0.9,0.7,1.6c0,0.7-0.4,1.3-0.7,1.6c-0.4,0.3-0.9,0.7-1.6,0.7L435.2-524.5     L435.2-524.5z"></path>
			<path id="XMLID_220_" class="st0" d="M399.3-507.1c-1.7,0-3.8-0.7-5.2-2.3c-1.6-1.6-2.2-3.4-2.2-5.2v-22.7c0-2,0.7-3.9,2.3-5.2     c1.6-1.2,3.3-2.3,5.2-2.3h20c2,0,3.7,0.8,5.2,2.3c1.5,1.5,2.3,3.3,2.3,5.2v1.3c0,0.7-0.3,1.3-0.7,1.6c-0.4,0.3-0.9,0.7-1.6,0.7     c-0.7,0-1.3-0.3-1.6-0.7c-0.4-0.5-0.7-0.9-0.7-1.6v-1.3c0-0.7-0.3-1.3-0.7-2c-0.7-0.7-0.9-0.7-2-0.7h-20c-0.7,0-1.3,0.3-2,0.7     c-0.7,0.7-0.7,0.9-0.7,2v22.7c0,0.7,0.1,1.2,0.6,1.8c0.5,0.7,1,0.7,2,0.7h20c0.7,0,1.4-0.2,2-0.7c0.7-0.5,0.7-0.9,0.7-2v-1.3     c0-0.7,0.3-1.3,0.7-1.6c0.4-0.3,0.9-0.7,1.6-0.7c0.7,0,1.3,0.3,1.6,0.7c0.3,0.4,0.7,0.9,0.7,1.6v1.3c0,2-0.7,3.9-2.3,5.3     c-1.7,1.5-3.2,2.1-5.2,2.1L399.3-507.1L399.3-507.1z"></path>
			<path id="XMLID_216_" class="st0" d="M385.7-542.4c-1.3-1.6-3.3-2.3-5.2-2.3h-20c-2,0-3.8,0.9-5.2,2.3c-1.6,1.3-2.3,3.2-2.3,5.2     v22.7c0,2,0.7,3.6,2.2,5.2c1.4,1.5,3.3,2.2,5.2,2.2h20c2,0,3.6-0.7,5.2-2.3c1.6-1.3,2.3-3.2,2.3-5.2v-22.7     C387.9-539.1,387.4-541.1,385.7-542.4z M383.2-514.6c0,0.9,0,1.3-0.7,2c-0.7,0.3-1.3,0.7-2,0.7h-20c-0.9,0-1.5-0.2-2-0.7     c-0.5-0.5-0.6-1.2-0.6-1.8v-22.7c0-0.9,0-1.3,0.7-2c0.7-0.3,1.3-0.7,2-0.7h20c0.9,0,1.3,0,2,0.7c0.3,0.7,0.7,1.3,0.7,2V-514.6z"></path>
			<path id="XMLID_212_" class="st0" d="M345-524.9c1.3-0.9,2.3-2,2.9-3.3c0.9-1.6,1.6-3.6,1.6-5.5c0-2.9-1.3-5.5-3.3-7.5     c-2-2.3-4.5-3.2-7.4-3.2h-22c-0.7,0-0.9,0-1.6,0.7c-0.4,0.3-0.7,0.9-0.7,1.6v32.7c0,0.7,0,0.9,0.7,1.6c0.4,0.3,0.9,0.7,1.6,0.7     s1.3-0.3,1.6-0.7c0.3-0.3,0.7-0.9,0.7-1.6v-13.9h17.8c2.3,0,3.8,0.7,5.5,2.3c1.6,1.6,2.3,3.2,2.3,5.5v6.2c0,0.7,0.2,1.1,0.7,1.6     c0.3,0.3,0.9,0.7,1.6,0.7c0.9,0,1.3,0.1,2-0.4c0.4-0.3,0.7-0.9,0.7-1.6v-6.1C349.5-519.4,347.9-522.6,345-524.9z M342.7-529.7     c-0.9,0.9-2.3,1.6-3.8,1.6h-19.5v-11.6h19.5c1.3,0,2.9,0.3,3.8,1.6c0.9,1.3,1.6,2.6,1.6,4.2C344.3-532.3,344-531,342.7-529.7z"></path>
			<path id="XMLID_211_" class="st0" d="M279.6-507.1c-0.7,0-1.4-0.3-1.7-0.7c-0.4-0.6-0.6-0.9-0.6-1.6v-16.5c0-0.7,0.4-1.3,0.7-1.6     c0.3-0.3,0.9-0.7,1.6-0.7h20.7c1.6,0,2.9-0.7,3.8-1.6c1.3-1.3,1.6-2.6,1.6-4.2s-0.7-2.9-1.6-4.2s-2.6-1.6-3.8-1.6h-22     c-0.7,0-1.3-0.3-1.6-0.7c-0.7-0.7-0.7-1.1-0.7-1.7c0-0.7,0.3-1.3,0.7-1.6c0.7-0.7,0.9-0.7,1.6-0.7h22c2.9,0,5.5,0.9,7.5,3.3     c2,2,3.3,4.5,3.3,7.5s-0.9,5.5-3.3,7.5c-2,2-4.5,3.3-7.5,3.3h-18.4v13.9c0,0.7-0.3,1.4-0.7,1.6     C280.6-507,280.3-507.1,279.6-507.1z"></path>
		</g>
	</g>
	<g id="XMLID_86_">
		<g>
			<path id="XMLID_167_" class="st0" d="M581.7-491.8v-0.8c0-0.4-0.1-0.9-0.4-1.3c-0.3-0.4-0.7-0.4-1.3-0.4h-13     c-0.7,0-0.9,0.1-1.3,0.4c-0.3,0.3-0.4,0.7-0.4,1.3v14.7c0,0.4,0.1,0.9,0.4,1.2c0.4,0.5,0.7,0.4,1.3,0.4h13c0.5,0,0.9-0.1,1.3-0.4     c0.4-0.3,0.4-0.7,0.4-1.2v-5.7h-9.9c-0.4,0-0.9-0.2-1.1-0.4c-0.2-0.2-0.4-0.7-0.4-1c0-0.4,0.2-0.9,0.4-1c0.2-0.2,0.7-0.4,1.1-0.4     h11.3c0.4,0,0.8,0.2,1.1,0.4c0.2,0.2,0.4,0.7,0.4,1v7.3c0,1.3-0.4,2.5-1.5,3.4c-0.7,0.7-1.3,1-2,1.2h-14.4     c-1.2,0-2.5-0.4-3.4-1.5c-1-1.1-1.5-2.1-1.5-3.4v-14.7c0-1.3,0.4-2.5,1.5-3.3c1.1-0.9,2.1-1.5,3.3-1.5h13.1     c1.2,0,2.5,0.5,3.4,1.5c0.9,0.9,1.5,2.1,1.5,3.4v0.8c0,0.4-0.2,0.9-0.4,1c-0.2,0.2-0.7,0.4-1.1,0.4s-0.9-0.2-1.1-0.4     C581.9-490.9,581.7-491.3,581.7-491.8z"></path>
			<path id="XMLID_166_" class="st0" d="M558-473c-0.4,0-0.9-0.2-1.2-0.4L540-491.8v17.2c0,0.4-0.2,0.9-0.4,1     c-0.2,0.2-0.7,0.4-1.1,0.4c-0.4,0-0.9-0.2-1.1-0.4c-0.4-0.4-0.4-0.7-0.4-1v-21.2c0-0.7,0.4-1.2,1.1-1.5c0.2,0,0.4-0.2,0.7-0.2     c0.2,0,0.7,0,1.1,0.7l16.8,18.3v-17.2c0-0.4,0.2-0.9,0.4-1c0.2-0.2,0.7-0.4,1.1-0.4c0.4,0,0.9,0.2,1.1,0.4c0.2,0.4,0.4,0.7,0.4,1     v21.2c0,0.7-0.4,1.2-1.1,1.5C558.4-473,558.2-473,558-473z"></path>
			<path id="XMLID_165_" class="st0" d="M533-473c-0.4,0-0.9-0.2-1.1-0.4c-0.4-0.4-0.4-0.7-0.4-1v-21.2c0-0.4,0.2-0.9,0.4-1     c0.4-0.4,0.7-0.4,1.1-0.4c0.4,0,0.9,0.2,1.1,0.4c0.2,0.2,0.4,0.7,0.4,1v21.2c0,0.4-0.2,0.9-0.4,1C533.8-473,533.4-473,533-473z"></path>
			<path id="XMLID_164_" class="st0" d="M518.1-473c-0.4,0-0.9-0.2-1.1-0.4c-0.2-0.2-0.4-0.7-0.4-1v-19.7h-8.6     c-0.4,0-0.9-0.2-1.1-0.4c-0.2-0.4-0.4-0.7-0.4-1c0-0.4,0.2-0.9,0.4-1c0.4-0.4,0.7-0.4,1.1-0.4h19.5c0.4,0,0.9,0.2,1.1,0.4     c0.2,0.2,0.4,0.7,0.4,1c0,0.4-0.2,0.9-0.4,1c-0.2,0.2-0.7,0.4-1.1,0.4h-7.8v19.7c0,0.4-0.2,0.9-0.4,1     C518.9-473,518.5-473,518.1-473z"></path>
			<path id="XMLID_163_" class="st0" d="M513.5-474.5c0,0.4-0.2,0.8-0.4,1c-0.2,0.2-0.7,0.4-1,0.4h-20.3c-0.1-0.1-0.2-0.1-0.4-0.2     c-0.4-0.4-0.4-0.7-0.4-1v-21.4c0-0.4,0.2-0.8,0.4-1c0.4-0.4,0.7-0.4,1.1-0.4c0.4,0,0.9,0.2,1.1,0.4c0.2,0.2,0.4,0.7,0.4,1v19.7     h18c0.4,0,0.8,0.2,1.1,0.4C513.3-475.3,513.5-474.9,513.5-474.5z"></path>
			<path id="XMLID_162_" class="st0" d="M473.8-473c-2.3,0-4.2-0.9-5.7-2.3c-1.7-1.7-2.3-3.6-2.3-5.7v-14.7c0-0.4,0.2-0.9,0.4-1     c0.4-0.4,0.7-0.4,1.1-0.4c0.4,0,0.9,0.2,1.1,0.4c0.4,0.4,0.4,0.7,0.4,1v14.7c0,1.5,0.4,2.5,1.5,3.6c1,1,2.1,1.5,3.6,1.5h6.5     c1.5,0,2.5-0.4,3.6-1.5c1-1,1.5-2.1,1.5-3.6v-14.7c0-0.4,0.2-0.9,0.4-1c0.2-0.2,0.7-0.4,1.1-0.4c0.4,0,0.9,0.2,1.1,0.4     c0.4,0.4,0.4,0.7,0.4,1v14.7c0,2.3-0.9,4.2-2.3,5.7c-1.7,1.7-3.6,2.3-5.7,2.3H473.8z"></path>
			<path id="XMLID_161_" class="st0" d="M442.3-473c-0.4,0-0.9-0.2-1-0.4c-0.4-0.4-0.4-0.7-0.4-1c0-0.4,0.2-0.9,0.4-1     c0.2-0.2,0.7-0.4,1-0.4h14.3c1,0,1.9-0.4,2.5-1c0.8-0.7,1-1.7,1-2.8c0-1.1-0.4-1.9-1-2.8c-0.7-0.9-1.7-1-2.5-1h-9     c-1.9,0-3.6-0.7-4.9-2.1c-1.2-1.2-2.1-3-2.1-4.9c0-1.9,0.7-3.6,2.1-4.9c1.2-1.2,3-2.1,4.9-2.1h14.3c0.4,0,0.9,0.2,1.1,0.4     c0.4,0.4,0.4,0.7,0.4,1c0,0.4-0.2,0.9-0.4,1c-0.2,0.2-0.7,0.4-1,0.4h-14.3c-1,0-1.9,0.4-2.8,1c-0.7,0.7-1,1.7-1,2.8     s0.4,1.9,1,2.8c0.7,0.7,1.7,1,2.8,1h9c1.9,0,3.6,0.7,4.9,2.1c1.2,1.2,2.1,3,2.1,4.9c0,1.9-0.7,3.6-2.1,4.9     c-1.2,1.2-3,2.1-4.9,2.1H442.3z"></path>
			<path id="XMLID_160_" class="st0" d="M436.8-473c-0.4,0-0.9-0.2-1.2-0.4l-16.8-18.3v17.2c0,0.4-0.2,0.9-0.4,1     c-0.2,0.2-0.7,0.4-1,0.4c-0.4,0-0.9-0.2-1-0.4c-0.4-0.4-0.4-0.7-0.4-1v-21.2c0-0.7,0.4-1.2,1-1.5c0.2-0.1,0.5-0.1,0.7-0.1     s0.6,0,1,0.6l16.8,18.3v-17.2c0-0.4,0.2-0.9,0.4-1c0.2-0.2,0.7-0.4,1-0.4c0.4,0,0.9,0.2,1,0.4c0.4,0.4,0.4,0.7,0.4,1v21.2     c0,0.7-0.4,1.2-1,1.5C437-473,437-473,436.8-473z"></path>
			<path id="XMLID_156_" class="st0" d="M411.5-495.9c-0.9-1-2.1-1.5-3.3-1.5h-13c-1.2,0-2.3,0.7-3.3,1.5c-1.1,0.9-1.5,2.1-1.5,3.3     v14.7c0,1.2,0.5,2.4,1.5,3.3s2.1,1.5,3.3,1.5h13c1.2,0,2.3-0.4,3.3-1.5c1-0.8,1.5-2.1,1.5-3.3v-14.7     C413-493.9,412.6-495.1,411.5-495.9z M409.9-477.9c0,0.7,0,0.8-0.4,1.2c-0.4,0.2-0.8,0.4-1.2,0.4h-13c-0.7,0-1-0.1-1.4-0.5     c-0.3-0.4-0.3-0.8-0.3-1.2v-14.7c0-0.7,0-0.9,0.4-1.3c0.4-0.2,0.8-0.4,1.2-0.4h13c0.7,0,0.9,0,1.2,0.4c0.2,0.4,0.4,0.9,0.4,1.3     V-477.9z"></path>
			<path id="XMLID_155_" class="st0" d="M387.6-475.8c0.2,0.2,0.4,0.6,0.4,1.2c0,0.7-0.2,1-0.4,1.2c-0.2,0.2-0.7,0.4-1,0.4h-18.2     c-0.5-0.3-1.2-0.6-1.6-1.1c-1-1.1-1.5-2.1-1.5-3.3v-14.7c0-1.2,0.4-2.5,1.5-3.3c0.8-0.9,2.1-1.5,3.3-1.5h16.4     c0.4,0,0.8,0.2,1,0.4c0.2,0.4,0.4,0.7,0.4,1c0,0.4-0.2,0.8-0.4,1s-0.7,0.4-1,0.4h-16.4c-0.4,0-0.8,0.2-1.2,0.4     c-0.4,0.4-0.4,0.7-0.4,1.2v14.7c0,0.5,0.1,0.7,0.4,1s0.7,0.4,1.2,0.4h16.4C386.9-476.1,387.4-475.9,387.6-475.8z"></path>
			<g id="XMLID_152_" transform="scale(1) translate(320,326.4)">
				<path id="XMLID_154_" class="st0" d="M159.9-802.4"></path>
				<path id="XMLID_153_" class="st0" d="M159.9-802.4"></path>
			</g>
		</g>
	</g>
</g>
<g>
	<g>
		<path class="st1" d="M81.6-546.9l-5.8,0.6c-0.9-1.8-1.9-3.5-2.8-5.3l3.4-5c-1.4-1.3-2.8-2.6-4.1-3.9l-4.8,3.3    c-1.4-1.3-3.2-2.1-5-3l0.7-5.8c-1.8-0.8-3.6-1.2-5.4-1.6l-2.5,5.4c-0.9,0-1.8-0.4-3.1-0.4c-0.9,0-1.8,0-3.1,0.1l-2.4-5.3    c-1.8,0.5-3.5,1-5.3,1.5l0.6,5.8c-1.8,0.9-3.5,1.9-5.3,2.8l-5-3.4c-1.3,1.4-2.6,2.8-3.9,4.1l3.3,4.8c-1.3,1.4-2.1,3.2-3,5    l-5.8-0.7c-0.8,1.8-1.2,3.6-1.6,5.4l5.4,2.5c0,0.9-0.4,1.8-0.4,3.1c0,0.9,0.1,1.8,0.1,3.1l-5.3,2.4c0.5,1.8,1,3.5,1.5,5.3l5.8-0.6    c0.9,1.8,1.9,3.5,2.8,5.3l-3.4,5c1.4,1.3,2.8,2.6,4.1,3.9l4.8-3.3c1.4,1.3,3.2,2.1,5,3l-0.7,5.8c1.8,0.8,3.6,1.2,5.4,1.6l2.5-5.4    c0.9,0,1.8,0.4,3.1,0.4c0.9,0,1.8-0.1,3.1-0.1l2.4,5.3c1.8-0.5,3.5-1,5.3-1.5l-0.6-5.8c1.8-0.9,3.5-1.9,5.3-2.8l5,3.4    c1.3-1.4,2.6-2.8,3.9-4.1l-3.3-4.8c1.3-1.4,2.1-3.2,3-5l5.8,0.7c0.8-1.8,1.2-3.6,1.6-5.4l-5.4-2.5c0.4-0.9,0.4-2.2,0.4-3.1    c0-0.9-0.1-1.8-0.1-3.1l5.3-2.4C82.6-543.3,82.1-545.1,81.6-546.9z M52.6-516.6c-10.6,0.3-19.4-8-19.7-18.6    c-0.3-10.6,8.1-19.4,18.6-19.7c10.6-0.3,19.4,8,19.7,18.6C71.5-525.7,63.2-516.9,52.6-516.6z"></path>
		<path class="st2" d="M51.5-554.9c-10.6,0.3-18.9,9.1-18.6,19.7c0.3,10.6,9.1,18.9,19.7,18.6c10.6-0.3,18.9-9.1,18.6-19.7    C70.9-546.9,62.1-555.2,51.5-554.9z M52-525.1c-5.9,0-10.7-4.8-10.7-10.7c0-5.9,4.8-10.7,10.7-10.7s10.7,4.8,10.7,10.7    C62.7-529.9,57.9-525.1,52-525.1z"></path>
		<path class="st1" d="M52-546.5c-5.9,0-10.7,4.8-10.7,10.7c0,5.9,4.8,10.7,10.7,10.7s10.7-4.8,10.7-10.7    C62.7-541.7,57.9-546.5,52-546.5z M52-531.3c-2.5,0-4.5-2-4.5-4.5s2-4.5,4.5-4.5s4.5,2,4.5,4.5S54.5-531.3,52-531.3z"></path>
		<path class="st2" d="M52-540.2c-2.5,0-4.5,2-4.5,4.5s2,4.5,4.5,4.5s4.5-2,4.5-4.5S54.5-540.2,52-540.2z M52.1-532.2    c-2,0-3.6-1.6-3.6-3.6s1.6-3.6,3.6-3.6s3.6,1.6,3.6,3.6S54.1-532.2,52.1-532.2z"></path>
		<path class="st1" d="M240.1-536c0-0.9,0-1.8-0.1-3.1l5.3-2.4c-0.5-1.8-1-3.5-1.5-5.3l-5.8,0.6c-0.9-1.8-1.9-3.5-2.8-5.3l3.4-5    c-1.4-1.3-2.7-2.6-4.1-3.9l-4.8,3.3c-1.4-1.3-3.2-2.1-5-3l0.7-5.8c-1.8-0.8-3.6-1.2-5.4-1.6l-2.5,5.4c-0.9,0-1.8-0.4-3.1-0.4    c-0.9,0-1.8,0-3.1,0.1l-2.4-5.3c-1.8,0.5-3.5,1-5.3,1.5l0.6,5.8c-1.8,0.9-3.5,1.9-5.3,2.8l-5-3.4c-1.3,1.4-2.6,2.7-3.9,4.1    l3.3,4.8c-1.3,1.4-2.1,3.2-3,5l-5.8-0.7c-0.8,1.8-1.2,3.6-1.6,5.4l5.4,2.5c0,0.9-0.4,1.8-0.4,3.1c0,0.9,0,1.8,0.1,3.1l-5.3,2.4    c0.5,1.8,1,3.5,1.5,5.3l5.8-0.6c0.9,1.8,1.9,3.5,2.8,5.3l-3.4,5c1.4,1.3,2.7,2.6,4.1,3.9l4.8-3.3c1.4,1.3,3.2,2.1,5,3l-0.7,5.8    c1.8,0.8,3.6,1.2,5.4,1.6l2.5-5.4c0.9,0,1.8,0.4,3.1,0.4c0.9,0,1.8-0.1,3.1-0.1l2.4,5.3c1.8-0.5,3.5-1,5.3-1.5l-0.6-5.8    c1.8-0.9,3.5-1.9,5.3-2.8l5,3.4c1.3-1.4,2.6-2.7,3.9-4.1l-3.3-4.8c1.3-1.4,2.1-3.2,3-5l5.8,0.7c0.8-1.8,1.2-3.6,1.6-5.4l-5.4-2.5    C240.1-533.8,240.1-535.2,240.1-536z M214.8-516.6c-10.6,0.3-19.4-8-19.7-18.6c-0.3-10.6,8-19.4,18.6-19.7    c10.6-0.3,19.4,8,19.7,18.6C233.7-525.7,225.3-516.9,214.8-516.6z"></path>
		<path class="st2" d="M213.7-554.9c-10.6,0.3-18.9,9.1-18.6,19.7c0.3,10.6,9.1,18.9,19.7,18.6c10.6-0.3,18.9-9.1,18.6-19.7    C233.1-546.9,224.3-555.2,213.7-554.9z M213.9-546.5c4.1-0.1,7.8,2.2,9.7,5.6c0.8,1.4,1.3,3.1,1.3,4.8c0.2,5.9-4.5,10.8-10.4,11    c-5.9,0.2-10.8-4.5-11-10.4c-0.1-5.6,4-10.3,9.5-10.9C213.4-546.4,213.7-546.5,213.9-546.5z"></path>
		<path class="st1" d="M223.6-540.9c-1.9-3.4-5.5-5.7-9.7-5.6c-0.3,0-0.6,0-0.9,0.1c-5.5,0.6-9.7,5.3-9.5,10.9    c0.2,5.9,5.1,10.6,11,10.4c5.9-0.2,10.6-5.1,10.4-11C224.9-537.8,224.4-539.5,223.6-540.9z M214.2-531.3c-2.5,0-4.5-2-4.5-4.5    s2-4.5,4.5-4.5s4.5,2,4.5,4.5S216.7-531.3,214.2-531.3z"></path>
		<path class="st2" d="M214.2-531.3c2.5,0,4.5-2,4.5-4.5s-2-4.5-4.5-4.5s-4.5,2-4.5,4.5C209.8-533.3,211.8-531.3,214.2-531.3z     M214.2-539.4c2,0,3.6,1.6,3.6,3.6s-1.6,3.6-3.6,3.6s-3.6-1.6-3.6-3.6S212.3-539.4,214.2-539.4z"></path>
		<path class="st1" d="M160.1-550.7c0-1.3-0.1-2.2-0.1-3.6l6.6-2.9c-0.5-2.2-1-4.4-2-6.6l-7.1,0.7c-1-2.2-2.4-4.4-3.8-6.1l4.2-5.9    c-1.4-1.7-3.3-3.4-5.1-4.7l-6.1,4.2c-1.8-1.3-4.1-2.5-6.4-3.3l0.6-7.2c-2.3-0.8-4.5-1.2-6.7-1.5l-2.9,6.8    c-1.3,0.1-2.2-0.4-3.6-0.3c-1.3,0.1-2.2,0.1-3.6,0.1l-2.8-6.7c-2.2,0.5-4.4,1-6.6,2l0.7,7.1c-2.2,1-4.4,2.4-6.1,3.8l-5.9-4.2    c-1.7,1.4-3.4,3.3-4.7,5.1l4.2,6.1c-1.3,1.8-2.5,4.1-3.3,6.4l-7.2-0.6c-0.8,2.3-1.2,4.5-1.5,6.7l6.8,2.9c0.1,1.3-0.4,2.2-0.3,3.6    c0.1,1.3,0.1,2.2,0.1,3.6l-6.6,2.9c0.5,2.2,1.1,4.4,2,6.6l7.1-0.7c1,2.2,2.4,4.4,3.8,6.1l-4.2,6c1.4,1.7,3.3,3.4,5.1,4.7l6.1-4.2    c1.8,1.3,4.1,2.5,6.4,3.3l-0.6,7.2c2.3,0.8,4.5,1.2,6.7,1.5l2.9-6.8c1.3-0.1,2.2,0.4,3.6,0.3c1.4-0.1,2.2-0.1,3.6-0.1l2.9,6.6    c2.2-0.5,4.4-1.1,6.6-2l-0.7-7.1c2.2-1,4.4-2.4,6.1-3.8l6,4.2c1.7-1.4,3.5-3.3,4.7-5.1l-4.2-6.1c1.3-1.8,2.5-4.1,3.3-6.4l7.2,0.6    c0.8-2.3,1.2-4.5,1.5-6.7l-6.8-2.9C160.2-548.1,160.2-549.4,160.1-550.7z M129.3-526.9c-13,0.5-24-9.7-24.4-22.7s9.7-24,22.7-24.5    c13-0.5,24,9.7,24.5,22.7C152.5-538.3,142.4-527.4,129.3-526.9z"></path>
		<path class="st2" d="M152.1-551.3c-0.5-13-11.4-23.2-24.5-22.7c-13,0.5-23.2,11.4-22.7,24.4s11.4,23.2,24.4,22.7    S152.5-538.3,152.1-551.3z M128.9-537.6c-7.1,0.3-13.1-5.3-13.4-12.4s5.3-13.1,12.4-13.4c7.1-0.3,13.1,5.3,13.4,12.4    S136.1-537.8,128.9-537.6z"></path>
		<path class="st1" d="M128-563.4c-7.1,0.3-12.7,6.3-12.4,13.4s6.3,12.7,13.4,12.4c7.1-0.3,12.7-6.3,12.4-13.4    S135.1-563.7,128-563.4z M128.7-544.7c-3.2,0.1-5.9-2.4-6-5.6s2.4-5.9,5.6-6c3.2-0.1,5.9,2.4,6,5.6S131.9-544.8,128.7-544.7z"></path>
		<path class="st2" d="M128.3-556.3c-3.2,0.1-5.7,2.8-5.6,6s2.8,5.7,6,5.6c3.2-0.1,5.7-2.8,5.6-6    C134.1-553.9,131.4-556.4,128.3-556.3z M128.5-545.9c-2.5,0-4.5-2-4.5-4.5s2-4.5,4.5-4.5s4.5,2,4.5,4.5    C133-548,131-545.9,128.5-545.9z"></path>
		<circle class="st1" cx="52.1" cy="-535.8" r="3.6"></circle>
		<circle class="st1" cx="214.2" cy="-535.8" r="3.6"></circle>
		<ellipse class="st1" cx="128.5" cy="-550.5" rx="4.5" ry="4.5"></ellipse>
	</g>
	<g>
		<path class="st0" d="M257-485c-2.3-1.9-18.2-10.7-25.7-14.1l7.2,14.2l-11,5.6l8.8,6l-7.8,18.1h37.4C263.2-466.7,261-480.5,257-485    z"></path>
		<polygon class="st3" points="210.1,-486.6 203.5,-480.1 207.1,-455.2 208,-455.2 209.2,-455.2 214,-482.4   "></polygon>
		<polygon class="st3" points="224.8,-479.9 218.3,-486.6 214.2,-482.3 218.9,-455.1 221.3,-455.2   "></polygon>
		<polygon class="st4" points="220.4,-455.1 220.4,-455.1 220.4,-455.2   "></polygon>
		<polygon class="st4" points="239.6,-484.6 231.3,-499.1 231.1,-499.3 225.8,-501.5 224.7,-491.2 224.3,-487.5 223.6,-481.2     220.4,-455.2 220.4,-455.1 225.4,-455.1 228.5,-455.1 237.8,-473.4 228.9,-479.2   "></polygon>
		<polygon class="st4" points="220,-455.1 216,-481.9 218.9,-486 214.2,-490.8 209.3,-485.9 212,-481.9 208,-455.1   "></polygon>
		<polygon class="st5" points="214.2,-490.8 214.2,-490.8 218.9,-486 218.9,-486   "></polygon>
		<path class="st0" d="M38.3-455.2L30-472.8l8.7-6.6l-9.9-5.7l7.3-14.6c-18.4,8.3-24.5,13.4-27.2,15.6c-4,4-6.2,17.8-8.9,29.4    L38.3-455.2z"></path>
		<polygon class="st3" points="50.6,-482.4 47,-486.4 41.8,-481 44.3,-455.1 46.7,-455.1   "></polygon>
		<polygon class="st3" points="62,-480.4 56.1,-486.5 52.4,-482.1 56.5,-455.1 58.6,-455.1   "></polygon>
		<polygon class="st4" points="42.2,-481.9 45.3,-455.1 45.3,-455.1 42.2,-481.4   "></polygon>
		<polygon class="st4" points="42.2,-481.9 41.3,-488.7 40.2,-496.8 39.6,-501 36,-499.7 35.6,-499.1 25.8,-484.6 36.4,-479.2     28,-473.4 36.9,-455.1 41.8,-455.1 45.3,-455.1   "></polygon>
		<path class="st4" d="M45.8-455.1h11.6l-3.7-26.7l2.9-4.2l-4.9-5.2l-5,5.3l3.1,4l0,0L45.8-455.1z"></path>
		<polygon class="st5" points="41.4,-488.7 42.2,-481.9 42.2,-481.4   "></polygon>
		<path class="st0" d="M113.1-483.7l-12-6.3l9.8-17.3c-16.3,7.3-24.4,12.2-28.6,15.2c-5.1-2.7-10.5-5.6-13.8-7.2L75-485l-10.7,5.7    l8.3,6.5l-7.9,17.7h49l-11-21.6L113.1-483.7z"></path>
		<path class="st0" d="M200.3-479.2l-9.8-5.9l7.8-14.5c-8.5,3.9-14.7,7.5-18.6,9.9c-3.6-2.8-22.8-13.4-30.4-17.1l7.8,16.8l-11.8,6.1    l9.4,7.6l-8.2,21.2h53.6l-8.8-18.1L200.3-479.2z"></path>
		<polygon class="st0" points="204.9,-481.4 204.9,-481.4 208,-455.2 208,-455.2 204.9,-481.4   "></polygon>
		<path class="st0" d="M204-488.7l-0.9-7.9L204-488.7z"></path>
		<polygon class="st0" points="204,-488.7 204.9,-481.4 204.9,-481.4 204.9,-481.4   "></polygon>
		<polygon class="st3" points="134.8,-491.8 130.5,-486.4 135.4,-455.1 137.9,-455.1 140.8,-485.2   "></polygon>
		<polygon class="st3" points="129.6,-497.5 129.6,-497.5 129.5,-497.5   "></polygon>
		<polygon class="st3" points="124.2,-492.1 118.1,-486.1 121.6,-455.1 122.8,-455.1 127.9,-486.4   "></polygon>
		<polygon class="st4" points="118.4,-486.3 118.4,-486.3 118.4,-486.3 117.4,-494.3 116,-504.5 115.4,-509.1 115.3,-509.1     110.8,-507.3 110.8,-507.3 99.3,-489.5 111.7,-483.7 101.5,-477 112.2,-455.1 118.4,-455.1 122,-455.1   "></polygon>
		<polygon class="st4" points="159.4,-489.5 149.3,-506.7 149.2,-506.8 143.4,-509.5 141.2,-493.3 140.3,-485.9 136.7,-455.1     142.9,-455.1 146.5,-455.1 157.2,-477 146.9,-483.7   "></polygon>
		<polygon class="st4" points="131.8,-486.3 135.2,-491.4 129.6,-497.5 129.5,-497.5 123.5,-491.4 126.9,-486.3 122.4,-455.1     122.4,-455.1 136.2,-455.1   "></polygon>
		<path class="st4" d="M122.4-455.1L122.4-455.1L122.4-455.1z"></path>
		<polygon class="st5" points="123.5,-491.4 123.5,-491.4 129.5,-497.5   "></polygon>
		<polygon class="st4" points="77,-484.6 68.6,-499.2 68.5,-499.3 62.7,-501.5 62.7,-496.6 61.7,-487.5 61,-481.4 61,-481.4     57.8,-455.1 57.8,-455.1 62.7,-455.1 66.3,-455.1 75.2,-473.4 66.7,-479.2   "></polygon>
		<polygon class="st4" points="199.5,-455.2 199.5,-455.1 204.4,-455.1 204.4,-455.2   "></polygon>
		<polygon class="st4" points="204.4,-455.2 204.4,-455.1 208,-455.1 208,-455.2   "></polygon>
		<polygon class="st4" points="204.9,-481.4 204.9,-481.4 204,-488.7 203.1,-496.6 203.2,-501.4 202.2,-501 198.3,-499.6     197.8,-498.9 188.4,-484.6 199.1,-479.2 190.2,-473.4 199.5,-455.2 204.4,-455.2 208,-455.2   "></polygon>
	</g>
</g>
<g>
	<g>
		<path class="st1" d="M81.6,40.8l-5.8,0.6c-0.9-1.8-1.9-3.5-2.8-5.3l3.4-5c-1.4-1.3-2.8-2.6-4.1-3.9l-4.8,3.3c-1.4-1.3-3.2-2.1-5-3    l0.7-5.8c-1.8-0.8-3.6-1.2-5.4-1.6l-2.5,5.4c-0.9,0-1.8-0.4-3.1-0.4c-0.9,0-1.8,0-3.1,0.1l-2.4-5.3c-1.8,0.5-3.5,1-5.3,1.5    l0.6,5.8c-1.8,0.9-3.5,1.9-5.3,2.8l-5-3.4c-1.3,1.4-2.6,2.8-3.9,4.1l3.3,4.8c-1.3,1.4-2.1,3.2-3,5l-5.8-0.7    c-0.8,1.8-1.2,3.6-1.6,5.4l5.4,2.5c0,0.9-0.4,1.8-0.4,3.1c0,0.9,0.1,1.8,0.1,3.1l-5.3,2.4c0.5,1.8,1,3.5,1.5,5.3l5.8-0.6    c0.9,1.8,1.9,3.5,2.8,5.3l-3.4,5c1.4,1.3,2.8,2.6,4.1,3.9l4.8-3.3c1.4,1.3,3.2,2.1,5,3l-0.7,5.8c1.8,0.8,3.6,1.2,5.4,1.6l2.5-5.4    c0.9,0,1.8,0.4,3.1,0.4c0.9,0,1.8-0.1,3.1-0.1l2.4,5.3c1.8-0.5,3.5-1,5.3-1.5l-0.6-5.8c1.8-0.9,3.5-1.9,5.3-2.8l5,3.4    c1.3-1.4,2.6-2.8,3.9-4.1l-3.3-4.8c1.3-1.4,2.1-3.2,3-5l5.8,0.7c0.8-1.8,1.2-3.6,1.6-5.4l-5.4-2.5c0.4-0.9,0.4-2.2,0.4-3.1    s-0.1-1.8-0.1-3.1l5.3-2.4C82.6,44.4,82.1,42.6,81.6,40.8z M52.6,71.1c-10.6,0.3-19.4-8-19.7-18.6S41,33.1,51.5,32.8    c10.6-0.3,19.4,8,19.7,18.6S63.2,70.8,52.6,71.1z"></path>
		<path class="st2" d="M51.5,32.8c-10.6,0.3-18.9,9.1-18.6,19.7S42,71.4,52.6,71.1c10.6-0.3,18.9-9.1,18.6-19.7    C70.9,40.8,62.1,32.5,51.5,32.8z M52,62.6c-5.9,0-10.7-4.8-10.7-10.7S46.1,41.2,52,41.2S62.7,46,62.7,51.9S57.9,62.6,52,62.6z"></path>
		<path class="st1" d="M52,41.2c-5.9,0-10.7,4.8-10.7,10.7S46.1,62.6,52,62.6s10.7-4.8,10.7-10.7S57.9,41.2,52,41.2z M52,56.4    c-2.5,0-4.5-2-4.5-4.5s2-4.5,4.5-4.5s4.5,2,4.5,4.5S54.5,56.4,52,56.4z"></path>
		<path class="st2" d="M52,47.5c-2.5,0-4.5,2-4.5,4.5s2,4.5,4.5,4.5s4.5-2,4.5-4.5S54.5,47.5,52,47.5z M52.1,55.5    c-2,0-3.6-1.6-3.6-3.6s1.6-3.6,3.6-3.6s3.6,1.6,3.6,3.6S54.1,55.5,52.1,55.5z"></path>
		<path class="st1" d="M240.1,51.7c0-0.9,0-1.8-0.1-3.1l5.3-2.4c-0.5-1.8-1-3.5-1.5-5.3l-5.8,0.6c-0.9-1.8-1.9-3.5-2.8-5.3l3.4-5    c-1.4-1.3-2.7-2.6-4.1-3.9l-4.8,3.3c-1.4-1.3-3.2-2.1-5-3l0.7-5.8c-1.8-0.8-3.6-1.2-5.4-1.6l-2.5,5.4c-0.9,0-1.8-0.4-3.1-0.4    c-0.9,0-1.8,0-3.1,0.1l-2.4-5.3c-1.8,0.5-3.5,1-5.3,1.5l0.6,5.8c-1.8,0.9-3.5,1.9-5.3,2.8l-5-3.4c-1.3,1.4-2.6,2.7-3.9,4.1    l3.3,4.8c-1.3,1.4-2.1,3.2-3,5l-5.8-0.7c-0.8,1.8-1.2,3.6-1.6,5.4l5.4,2.5c0,0.9-0.4,1.8-0.4,3.1c0,0.9,0,1.8,0.1,3.1l-5.3,2.4    c0.5,1.8,1,3.5,1.5,5.3l5.8-0.6c0.9,1.8,1.9,3.5,2.8,5.3l-3.4,5c1.4,1.3,2.7,2.6,4.1,3.9l4.8-3.3c1.4,1.3,3.2,2.1,5,3l-0.7,5.8    c1.8,0.8,3.6,1.2,5.4,1.6l2.5-5.4c0.9,0,1.8,0.4,3.1,0.4c0.9,0,1.8-0.1,3.1-0.1l2.4,5.3c1.8-0.5,3.5-1,5.3-1.5l-0.6-5.8    c1.8-0.9,3.5-1.9,5.3-2.8l5,3.4c1.3-1.4,2.6-2.7,3.9-4.1l-3.3-4.8c1.3-1.4,2.1-3.2,3-5l5.8,0.7c0.8-1.8,1.2-3.6,1.6-5.4l-5.4-2.5    C240.1,53.9,240.1,52.5,240.1,51.7z M214.8,71.1c-10.6,0.3-19.4-8-19.7-18.6s8-19.4,18.6-19.7s19.4,8,19.7,18.6    C233.7,62,225.3,70.8,214.8,71.1z"></path>
		<path class="st2" d="M213.7,32.8c-10.6,0.3-18.9,9.1-18.6,19.7s9.1,18.9,19.7,18.6s18.9-9.1,18.6-19.7S224.3,32.5,213.7,32.8z     M213.9,41.2c4.1-0.1,7.8,2.2,9.7,5.6c0.8,1.4,1.3,3.1,1.3,4.8c0.2,5.9-4.5,10.8-10.4,11s-10.8-4.5-11-10.4    c-0.1-5.6,4-10.3,9.5-10.9C213.4,41.3,213.7,41.2,213.9,41.2z"></path>
		<path class="st1" d="M223.6,46.8c-1.9-3.4-5.5-5.7-9.7-5.6c-0.3,0-0.6,0-0.9,0.1c-5.5,0.6-9.7,5.3-9.5,10.9    c0.2,5.9,5.1,10.6,11,10.4c5.9-0.2,10.6-5.1,10.4-11C224.9,49.9,224.4,48.2,223.6,46.8z M214.2,56.4c-2.5,0-4.5-2-4.5-4.5    s2-4.5,4.5-4.5s4.5,2,4.5,4.5S216.7,56.4,214.2,56.4z"></path>
		<path class="st2" d="M214.2,56.4c2.5,0,4.5-2,4.5-4.5s-2-4.5-4.5-4.5s-4.5,2-4.5,4.5C209.8,54.4,211.8,56.4,214.2,56.4z     M214.2,48.3c2,0,3.6,1.6,3.6,3.6s-1.6,3.6-3.6,3.6s-3.6-1.6-3.6-3.6S212.3,48.3,214.2,48.3z"></path>
		<path class="st1" d="M160.1,37c0-1.3-0.1-2.2-0.1-3.6l6.6-2.9c-0.5-2.2-1-4.4-2-6.6l-7.1,0.7c-1-2.2-2.4-4.4-3.8-6.1l4.2-5.9    c-1.4-1.7-3.3-3.4-5.1-4.7l-6.1,4.2c-1.8-1.3-4.1-2.5-6.4-3.3l0.6-7.2c-2.3-0.8-4.5-1.2-6.7-1.5l-2.9,6.8    c-1.3,0.1-2.2-0.4-3.6-0.3c-1.3,0.1-2.2,0.1-3.6,0.1L121.3,0c-2.2,0.5-4.4,1-6.6,2l0.7,7.1c-2.2,1-4.4,2.4-6.1,3.8l-5.9-4.2    c-1.7,1.4-3.4,3.3-4.7,5.1l4.2,6.1c-1.3,1.8-2.5,4.1-3.3,6.4l-7.2-0.6c-0.8,2.3-1.2,4.5-1.5,6.7l6.8,2.9c0.1,1.3-0.4,2.2-0.3,3.6    c0.1,1.3,0.1,2.2,0.1,3.6l-6.6,2.9c0.5,2.2,1.1,4.4,2,6.6l7.1-0.7c1,2.2,2.4,4.4,3.8,6.1l-4.2,6c1.4,1.7,3.3,3.4,5.1,4.7l6.1-4.2    c1.8,1.3,4.1,2.5,6.4,3.3l-0.6,7.2c2.3,0.8,4.5,1.2,6.7,1.5l2.9-6.8c1.3-0.1,2.2,0.4,3.6,0.3s2.2-0.1,3.6-0.1l2.9,6.6    c2.2-0.5,4.4-1.1,6.6-2l-0.7-7.1c2.2-1,4.4-2.4,6.1-3.8l6,4.2c1.7-1.4,3.5-3.3,4.7-5.1l-4.2-6.1c1.3-1.8,2.5-4.1,3.3-6.4l7.2,0.6    c0.8-2.3,1.2-4.5,1.5-6.7l-6.8-2.9C160.2,39.6,160.2,38.3,160.1,37z M129.3,60.8c-13,0.5-24-9.7-24.4-22.7s9.7-24,22.7-24.5    c13-0.5,24,9.7,24.5,22.7C152.5,49.4,142.4,60.3,129.3,60.8z"></path>
		<path class="st2" d="M152.1,36.4c-0.5-13-11.4-23.2-24.5-22.7c-13,0.5-23.2,11.4-22.7,24.4s11.4,23.2,24.4,22.7    S152.5,49.4,152.1,36.4z M128.9,50.1c-7.1,0.3-13.1-5.3-13.4-12.4s5.3-13.1,12.4-13.4s13.1,5.3,13.4,12.4S136.1,49.9,128.9,50.1z"></path>
		<path class="st1" d="M128,24.3c-7.1,0.3-12.7,6.3-12.4,13.4s6.3,12.7,13.4,12.4s12.7-6.3,12.4-13.4S135.1,24,128,24.3z M128.7,43    c-3.2,0.1-5.9-2.4-6-5.6s2.4-5.9,5.6-6s5.9,2.4,6,5.6C134.4,40.2,131.9,42.9,128.7,43z"></path>
		<path class="st2" d="M128.3,31.4c-3.2,0.1-5.7,2.8-5.6,6s2.8,5.7,6,5.6c3.2-0.1,5.7-2.8,5.6-6C134.1,33.8,131.4,31.3,128.3,31.4z     M128.5,41.8c-2.5,0-4.5-2-4.5-4.5s2-4.5,4.5-4.5s4.5,2,4.5,4.5C133,39.7,131,41.8,128.5,41.8z"></path>
		<circle class="st1" cx="52.1" cy="51.9" r="3.6"></circle>
		<circle class="st1" cx="214.2" cy="51.9" r="3.6"></circle>
		<ellipse class="st1" cx="128.5" cy="37.2" rx="4.5" ry="4.5"></ellipse>
	</g>
	<g>
		<path class="st0" d="M257,102.7c-2.3-1.9-18.2-10.7-25.7-14.1l7.2,14.2l-11,5.6l8.8,6l-7.8,18.1h37.4    C263.2,121,261,107.2,257,102.7z"></path>
		<polygon class="st3" points="210.1,101.1 203.5,107.6 207.1,132.5 208,132.5 209.2,132.5 214,105.3   "></polygon>
		<polygon class="st3" points="224.8,107.8 218.3,101.1 214.2,105.4 218.9,132.6 221.3,132.5   "></polygon>
		<polygon class="st4" points="220.4,132.6 220.4,132.6 220.4,132.5   "></polygon>
		<polygon class="st4" points="239.6,103.1 231.3,88.6 231.1,88.4 225.8,86.2 224.7,96.5 224.3,100.2 223.6,106.5 220.4,132.5     220.4,132.6 225.4,132.6 228.5,132.6 237.8,114.3 228.9,108.5   "></polygon>
		<polygon class="st4" points="220,132.6 216,105.8 218.9,101.7 214.2,96.9 209.3,101.8 212,105.8 208,132.6   "></polygon>
		<polygon class="st5" points="214.2,96.9 214.2,96.9 218.9,101.7 218.9,101.7   "></polygon>
		<path class="st0" d="M38.3,132.5L30,114.9l8.7-6.6l-9.9-5.7L36.1,88c-18.4,8.3-24.5,13.4-27.2,15.6c-4,4-6.2,17.8-8.9,29.4    L38.3,132.5z"></path>
		<polygon class="st3" points="50.6,105.3 47,101.3 41.8,106.7 44.3,132.6 46.7,132.6   "></polygon>
		<polygon class="st3" points="62,107.3 56.1,101.2 52.4,105.6 56.5,132.6 58.6,132.6   "></polygon>
		<polygon class="st4" points="42.2,105.8 45.3,132.6 45.3,132.6 42.2,106.3   "></polygon>
		<polygon class="st4" points="42.2,105.8 41.3,99 40.2,90.9 39.6,86.7 36,88 35.6,88.6 25.8,103.1 36.4,108.5 28,114.3 36.9,132.6     41.8,132.6 45.3,132.6   "></polygon>
		<path class="st4" d="M45.8,132.6h11.6l-3.7-26.7l2.9-4.2l-4.9-5.2l-5,5.3l3.1,4l0,0L45.8,132.6z"></path>
		<polygon class="st5" points="41.4,99 42.2,105.8 42.2,106.3   "></polygon>
		<path class="st0" d="M113.1,104l-12-6.3l9.8-17.3c-16.3,7.3-24.4,12.2-28.6,15.2c-5.1-2.7-10.5-5.6-13.8-7.2l6.5,14.3l-10.7,5.7    l8.3,6.5l-7.9,17.7h49l-11-21.6L113.1,104z"></path>
		<path class="st0" d="M200.3,108.5l-9.8-5.9l7.8-14.5c-8.5,3.9-14.7,7.5-18.6,9.9c-3.6-2.8-22.8-13.4-30.4-17.1l7.8,16.8l-11.8,6.1    l9.4,7.6l-8.2,21.2h53.6l-8.8-18.1L200.3,108.5z"></path>
		<polygon class="st0" points="204.9,106.3 204.9,106.3 208,132.5 208,132.5 204.9,106.3   "></polygon>
		<path class="st0" d="M204,99l-0.9-7.9L204,99z"></path>
		<polygon class="st0" points="204,99 204.9,106.3 204.9,106.3 204.9,106.3   "></polygon>
		<polygon class="st3" points="134.8,95.9 130.5,101.3 135.4,132.6 137.9,132.6 140.8,102.5   "></polygon>
		<polygon class="st3" points="129.6,90.2 129.6,90.2 129.5,90.2   "></polygon>
		<polygon class="st3" points="124.2,95.6 118.1,101.6 121.6,132.6 122.8,132.6 127.9,101.3   "></polygon>
		<polygon class="st4" points="118.4,101.4 118.4,101.4 118.4,101.4 117.4,93.4 116,83.2 115.4,78.6 115.3,78.6 110.8,80.4     110.8,80.4 99.3,98.2 111.7,104 101.5,110.7 112.2,132.6 118.4,132.6 122,132.6   "></polygon>
		<polygon class="st4" points="159.4,98.2 149.3,81 149.2,80.9 143.4,78.2 141.2,94.4 140.3,101.8 136.7,132.6 142.9,132.6     146.5,132.6 157.2,110.7 146.9,104   "></polygon>
		<polygon class="st4" points="131.8,101.4 135.2,96.3 129.6,90.2 129.5,90.2 123.5,96.3 126.9,101.4 122.4,132.6 122.4,132.6     136.2,132.6   "></polygon>
		<path class="st4" d="M122.4,132.6L122.4,132.6L122.4,132.6z"></path>
		<polygon class="st5" points="123.5,96.3 123.5,96.3 129.5,90.2   "></polygon>
		<polygon class="st4" points="77,103.1 68.6,88.5 68.5,88.4 62.7,86.2 62.7,91.1 61.7,100.2 61,106.3 61,106.3 57.8,132.6     57.8,132.6 62.7,132.6 66.3,132.6 75.2,114.3 66.7,108.5   "></polygon>
		<polygon class="st4" points="199.5,132.5 199.5,132.6 204.4,132.6 204.4,132.5   "></polygon>
		<polygon class="st4" points="204.4,132.5 204.4,132.6 208,132.6 208,132.5   "></polygon>
		<polygon class="st4" points="204.9,106.3 204.9,106.3 204,99 203.1,91.1 203.2,86.3 202.2,86.7 198.3,88.1 197.8,88.8     188.4,103.1 199.1,108.5 190.2,114.3 199.5,132.5 204.4,132.5 208,132.5   "></polygon>
	</g>
</g>
<g>
	<path id="path14" class="st6" d="M340.1-340.2c0,0.9,0,1.2-0.6,1.8c-0.6,0.3-1.2,0.6-1.8,0.6h-18.1c-0.9,0-1.4-0.1-1.8-0.6   c-0.4-0.5-0.6-1.2-0.6-1.8v-20.4c0-0.9,0-1.2,0.6-1.8c0.6-0.3,1.2-0.6,1.8-0.6h18.1c0.9,0,1.2,0,1.8,0.6c0.3,0.6,0.6,1.2,0.6,1.8   V-340.2z M342.4-365.3c-1.2-1.5-2.9-2-4.7-2h-18.1c-1.8,0-3.5,0.9-4.7,2c-1.5,1.2-2,2.9-2,4.7v20.4c0,1.8,0.7,3.4,2,4.7   c1.3,1.3,3,2,4.7,2h18.1c1.8,0,3.2-0.6,4.7-2c1.5-1.2,2-2.9,2-4.7v-20.4C344.5-362.3,343.9-364.1,342.4-365.3"></path>
	<path id="path16" class="st6" d="M303.7-353.9c-0.9,0.9-2,1.4-3.5,1.5h-17.5v-10.5h17.5c1.2,0,2.6,0.3,3.5,1.5   c0.9,1.2,1.5,2.3,1.5,3.8C305.1-356.2,304.8-355,303.7-353.9z M306-349.5c1.2-0.9,2-1.8,2.6-2.9c0.9-1.5,1.5-3.2,1.5-5   c0-2.6-1.2-5-2.9-6.7c-1.8-2-4.1-2.9-6.7-2.9h-19.8c-0.9,0-1.2,0-1.8,0.6c-0.3,0.3-0.6,0.9-0.6,1.5v29.4c0,0.6,0,0.9,0.6,1.5   c0.3,0.3,0.9,0.6,1.5,0.6c0.6,0,1.2-0.3,1.5-0.6c0.3-0.3,0.6-0.9,0.6-1.5v-12.5h16c2,0,3.5,0.6,5,2c1.5,1.5,2,2.9,2,5v5.5   c0,0.6,0.3,1.2,0.6,1.5c0.3,0.3,0.9,0.6,1.5,0.6c0.6,0,1.4,0,2-0.3c0.4-0.2,0.6-0.9,0.6-1.4v-5.5   C310.1-344.6,308.6-347.5,306-349.5"></path>
	<path id="path18" class="st6" d="M246.5-333.5c-0.6,0-1.2-0.3-1.5-0.6c-0.3-0.6-0.6-0.9-0.6-1.5v-14.9c0-0.6,0.3-1.2,0.6-1.5   c0.3-0.3,0.9-0.6,1.5-0.6h18.7c1.5,0,2.6-0.6,3.5-1.5c1.2-1.2,1.5-2.3,1.5-3.8c0-1.5-0.6-2.6-1.5-3.8c-0.9-1.2-2.3-1.5-3.5-1.5   h-19.8c-0.6,0-1.2-0.3-1.5-0.6c-0.6-0.6-0.6-0.9-0.6-1.5c0-0.6,0.3-1.2,0.6-1.5c0.6-0.6,0.9-0.6,1.7-0.6h19.8c2.6,0,5,0.9,6.7,2.9   c1.7,1.7,2.9,4.1,2.9,6.7c0,2.6-0.9,5-2.9,6.7c-1.7,1.7-4.1,2.9-6.7,2.9h-16.6v12.5c0,0.6-0.3,1.2-0.6,1.5   C247.7-333.5,247.1-333.5,246.5-333.5"></path>
	<path id="path20" class="st6" d="M197-333.5c-0.6,0-1.2-0.3-1.5-0.6c-0.6-0.6-0.6-0.9-0.6-1.5c0-0.6,0.3-1.2,0.6-1.5   c0.3-0.3,0.9-0.6,1.5-0.6h19.8c1.5,0,2.6-0.6,3.5-1.5c1.2-1.2,1.5-2.3,1.5-3.8c0-1.5-0.6-2.6-1.5-3.8c-0.9-1.2-2.3-1.5-3.5-1.5   h-12.5c-2.6,0-5-0.9-6.7-2.9c-1.7-1.7-2.9-4.1-2.9-6.7c0-2.6,0.9-5,2.9-6.7c1.7-1.7,4.1-2.9,6.7-2.9h19.8c0.6,0,1.2,0.3,1.5,0.6   c0.6,0.6,0.6,0.9,0.6,1.5c0,0.6-0.3,1.2-0.6,1.5c-0.3,0.3-0.9,0.6-1.5,0.6h-19.8c-1.5,0-2.6,0.6-3.8,1.5c-0.9,0.9-1.5,2.3-1.5,3.8   c0,1.5,0.6,2.6,1.5,3.8c0.9,0.9,2.3,1.5,3.8,1.5h12.5c2.6,0,5,0.9,6.7,2.9c1.7,1.7,2.9,4.1,2.9,6.7c0,2.6-0.9,5-2.9,6.7   c-1.7,1.7-4.1,2.9-6.7,2.9L197-333.5"></path>
	<path id="path22" class="st6" d="M162-333.5c-0.6,0-1.1-0.2-1.5-0.5c-0.4-0.3-0.6-1-0.6-1.6c0-0.7,0.3-1.2,0.6-1.5   c0.3-0.3,0.9-0.6,1.5-0.6h19.8c1.5,0,2.6-0.6,3.5-1.5c1.2-1.2,1.5-2.3,1.5-3.8c0-1.5-0.6-2.6-1.5-3.8c-0.9-1.2-2.3-1.5-3.5-1.5   h-12.5c-2.6,0-5-0.9-6.7-2.9c-1.7-1.7-2.9-4.1-2.9-6.7c0-2.6,0.9-5,2.9-6.7c1.7-1.7,4.1-2.9,6.7-2.9h19.8c0.6,0,1.2,0.3,1.5,0.6   c0.3,0.6,0.6,0.9,0.6,1.5c0,0.6-0.3,1.2-0.6,1.5c-0.3,0.3-0.9,0.6-1.5,0.6h-19.8c-1.5,0-2.6,0.6-3.8,1.5c-0.9,0.9-1.5,2.3-1.5,3.8   c0,1.5,0.6,2.6,1.5,3.8c0.9,0.9,2.3,1.5,3.8,1.5h12.5c2.6,0,5,0.9,6.7,2.9c1.7,1.7,2.9,4.1,2.9,6.7c0,2.6-0.9,5-2.9,6.7   c-1.7,1.7-4.1,2.9-6.7,2.9L162-333.5"></path>
	<path id="path24" class="st6" d="M129.3-349.2v11.6h25.1c0.6,0,1.2,0.3,1.5,0.6c0.3,0.3,0.6,0.9,0.6,1.5c0,0.6-0.3,1.2-0.6,1.5   c-0.3,0.3-0.9,0.6-1.5,0.6c0,0-22.1,0-28.8,0c-0.4,0-0.3-0.7-0.3-1.2v-30.9c0-0.6,0.3-1.2,0.6-1.5c0.6-0.3,0.9-0.6,1.5-0.6h27.1   c0.6,0,1.2,0.3,1.5,0.6c0.3,0.6,0.6,0.9,0.6,1.5c0,0.6-0.3,1.2-0.6,1.5c-0.3,0.3-0.9,0.6-1.5,0.6h-25.1v10.2h25.1   c0.6,0,1.2,0.3,1.5,0.6c0.3,0.3,0.6,0.9,0.6,1.5c0,0.6-0.3,1.2-0.6,1.5c-0.3,0.3-0.9,0.6-1.5,0.6H129.3"></path>
	<path id="path26" class="st6" d="M97-333.5c-1.6,0-3.4-0.6-4.7-2.1c-1.5-1.5-2-3.1-2-4.7v-20.4c0-1.7,0.6-3.5,2-4.7   c1.5-1.2,2.9-2,4.7-2H115c1.7,0,3.3,0.7,4.7,2c1.3,1.3,2,2.9,2,4.7v1.2c0,0.6-0.3,1.2-0.6,1.5c-0.3,0.3-0.9,0.6-1.5,0.6   c-0.6,0-1.2-0.3-1.5-0.6c-0.4-0.5-0.6-0.9-0.6-1.5v-1.2c0-0.6-0.3-1.2-0.6-1.7c-0.6-0.6-0.9-0.6-1.7-0.6H97.3   c-0.6,0-1.2,0.3-1.7,0.6c-0.6,0.6-0.6,0.9-0.6,1.7v20.4c0,0.6,0.1,1.1,0.5,1.7c0.5,0.7,0.9,0.7,1.8,0.7h18.1c0.6,0,1.2-0.2,1.7-0.6   c0.7-0.5,0.6-0.9,0.6-1.7v-1.2c0-0.6,0.3-1.2,0.6-1.5c0.3-0.3,0.9-0.6,1.5-0.6c0.6,0,1.2,0.3,1.5,0.6c0.3,0.3,0.6,0.9,0.6,1.5v1.2   c0,1.7-0.7,3.6-2,4.8c-1.5,1.4-2.9,1.9-4.7,1.9H97"></path>
	<path id="path28" class="st6" d="M82.4-340.2c0,0.9,0,1.2-0.6,1.8c-0.6,0.3-1.2,0.6-1.8,0.6H62c-0.9,0-1.4-0.2-1.8-0.7   c-0.4-0.5-0.5-1.1-0.5-1.7v-20.4c0-0.9,0-1.2,0.6-1.8c0.6-0.3,1.2-0.6,1.8-0.6h18.1c0.9,0,1.2,0,1.8,0.6c0.3,0.6,0.6,1.2,0.6,1.8   V-340.2z M84.7-365.3c-1.2-1.5-2.9-2-4.7-2H62c-1.8,0-3.5,0.9-4.7,2c-1.5,1.2-2,2.9-2,4.7v20.4c0,1.8,0.6,3.2,2,4.7   c1.2,1.4,3,2,4.7,2h18.1c1.8,0,3.2-0.6,4.7-2c1.5-1.2,2-2.9,2-4.7v-20.4C86.8-362.3,86.2-364.1,84.7-365.3"></path>
	<path id="path30" class="st6" d="M46-353.9c-0.9,0.9-2,1.4-3.4,1.5H25v-10.5h17.5c1.2,0,2.6,0.3,3.5,1.5c0.9,1.2,1.5,2.3,1.5,3.8   C47.4-356.2,47.1-355,46-353.9z M48-349.5c1.2-0.9,2-1.8,2.6-2.9c0.9-1.5,1.5-3.2,1.5-5c0-2.6-1.2-5-2.9-6.7   c-1.7-2-4.1-2.9-6.7-2.9H22.6c-0.6,0-0.9,0-1.5,0.6c-0.3,0.3-0.6,0.9-0.6,1.5v29.4c0,0.6,0,0.9,0.6,1.5c0.3,0.3,0.9,0.6,1.5,0.6   c0.6,0,1.2-0.3,1.5-0.6c0.3-0.3,0.6-0.9,0.6-1.5v-12.5h16c2,0,3.5,0.6,5,2c1.5,1.5,2,2.9,2,5v5.5c0,0.6,0.2,1,0.6,1.5   c0.3,0.3,0.9,0.6,1.5,0.6c0.9,0,1.2,0.1,1.7-0.3c0.3-0.2,0.6-0.9,0.6-1.4v-5.5C52.1-344.6,50.6-347.5,48-349.5"></path>
	<path id="path32" class="st6" d="M-10.9-333.5c-0.6,0-1.2-0.2-1.5-0.6c-0.4-0.5-0.5-0.9-0.5-1.5v-14.9c0-0.6,0.3-1.2,0.6-1.5   c0.3-0.3,0.9-0.6,1.5-0.6H7.8c1.5,0,2.6-0.6,3.5-1.5c1.2-1.2,1.5-2.3,1.5-3.8c0-1.5-0.6-2.6-1.5-3.8c-0.9-1.2-2.3-1.5-3.5-1.5   h-19.8c-0.6,0-1.2-0.3-1.5-0.6c-0.6-0.6-0.6-0.9-0.6-1.5c0-0.6,0.3-1.2,0.6-1.5c0.6-0.6,0.9-0.6,1.5-0.6H7.8c2.6,0,5,0.9,6.7,2.9   c1.7,1.7,2.9,4.1,2.9,6.7c0,2.6-0.9,5-2.9,6.7c-1.7,1.7-4.1,2.9-6.7,2.9H-8.8v12.5c0,0.6-0.2,1.2-0.6,1.5   C-10-333.4-10.3-333.5-10.9-333.5"></path>
	<g>
		<path id="path34" class="st6" d="M181-319.6v-0.7c0-0.4-0.1-0.8-0.4-1.1c-0.3-0.3-0.6-0.4-1.1-0.4h-11.7c-0.7,0-0.8,0.1-1.1,0.4    c-0.3,0.3-0.4,0.6-0.4,1.1v13.3c0,0.4,0.1,0.8,0.4,1.1c0.3,0.4,0.6,0.4,1.2,0.4h11.7c0.5,0,0.8-0.1,1.1-0.4    c0.3-0.2,0.4-0.6,0.4-1.1v-5.1H172c-0.4,0-0.8-0.2-0.9-0.4c-0.2-0.2-0.4-0.6-0.4-0.9c0-0.4,0.2-0.8,0.4-0.9    c0.2-0.2,0.6-0.4,0.9-0.4h10.2c0.4,0,0.7,0.2,0.9,0.4c0.2,0.2,0.4,0.6,0.4,0.9v6.6c0,1.1-0.3,2.3-1.3,3.1    c-0.6,0.6-1.2,0.9-1.8,1.1h-13c-1.1,0-2.2-0.4-3-1.3c-0.9-1-1.3-1.9-1.3-3v-13.3c0-1.1,0.4-2.3,1.3-3c0.9-0.8,1.9-1.3,3-1.3h11.7    c1.1,0,2.2,0.5,3.1,1.3c0.9,0.9,1.3,1.9,1.3,3v0.7c0,0.4-0.2,0.8-0.4,0.9c-0.2,0.2-0.6,0.4-0.9,0.4c-0.4,0-0.8-0.2-1-0.4    C181.1-318.9,181-319.2,181-319.6"></path>
		<path id="path36" class="st6" d="M159.6-302.8c-0.4,0-0.8-0.2-1.1-0.4l-15.1-16.5v15.5c0,0.4-0.2,0.8-0.4,0.9    c-0.2,0.2-0.6,0.4-0.9,0.4c-0.4,0-0.8-0.2-0.9-0.4c-0.4-0.4-0.4-0.6-0.4-0.9v-19.1c0-0.6,0.4-1.1,0.9-1.3c0.2,0,0.4-0.2,0.6-0.2    c0.2,0,0.6,0,0.9,0.6l15.1,16.5v-15.5c0-0.4,0.2-0.8,0.4-0.9c0.2-0.2,0.6-0.4,0.9-0.4c0.4,0,0.8,0.2,0.9,0.4    c0.2,0.4,0.4,0.6,0.4,0.9v19.1c0,0.6-0.4,1.1-0.9,1.3C159.9-302.8,159.7-302.8,159.6-302.8"></path>
		<path id="path38" class="st6" d="M137-302.8c-0.4,0-0.8-0.2-0.9-0.4c-0.4-0.4-0.4-0.6-0.4-0.9v-19.1c0-0.4,0.2-0.8,0.4-0.9    c0.4-0.4,0.6-0.4,0.9-0.4c0.4,0,0.8,0.2,0.9,0.4c0.2,0.2,0.4,0.6,0.4,0.9v19.1c0,0.4-0.2,0.8-0.4,0.9    C137.8-302.8,137.4-302.8,137-302.8"></path>
		<path id="path40" class="st6" d="M123.6-302.8c-0.4,0-0.8-0.2-0.9-0.4c-0.2-0.2-0.4-0.6-0.4-0.9v-17.8h-7.8    c-0.4,0-0.8-0.2-0.9-0.4c-0.2-0.4-0.4-0.6-0.4-0.9c0-0.4,0.2-0.8,0.4-0.9c0.4-0.4,0.6-0.4,0.9-0.4h17.6c0.4,0,0.8,0.2,0.9,0.4    c0.2,0.2,0.4,0.6,0.4,0.9c0,0.4-0.2,0.8-0.4,0.9c-0.2,0.2-0.6,0.4-0.9,0.4h-7v17.8c0,0.4-0.2,0.8-0.4,0.9    C124.3-302.8,124-302.8,123.6-302.8"></path>
		<path id="path42" class="st6" d="M119.5-304.1c0,0.4-0.2,0.7-0.4,0.9c-0.2,0.2-0.6,0.4-0.9,0.4l-18.3,0c-0.1-0.1-0.2-0.1-0.3-0.2    c-0.4-0.3-0.4-0.6-0.4-0.9v-19.3c0-0.4,0.2-0.7,0.4-0.9c0.4-0.4,0.6-0.4,0.9-0.4c0.4,0,0.8,0.2,0.9,0.4c0.2,0.2,0.4,0.6,0.4,0.9    v17.8h16.3c0.4,0,0.7,0.2,0.9,0.4C119.3-304.8,119.5-304.5,119.5-304.1"></path>
		<path id="path44" class="st6" d="M83.7-302.8c-2.1,0-3.8-0.8-5.1-2.1c-1.5-1.5-2.1-3.2-2.1-5.1v-13.3c0-0.4,0.2-0.8,0.4-0.9    c0.4-0.4,0.6-0.4,0.9-0.4c0.4,0,0.8,0.2,0.9,0.4c0.4,0.4,0.4,0.6,0.4,0.9v13.3c0,1.3,0.4,2.3,1.3,3.2c0.9,0.9,1.9,1.3,3.2,1.3h5.9    c1.3,0,2.3-0.4,3.2-1.3c0.9-0.9,1.3-1.9,1.3-3.2v-13.3c0-0.4,0.2-0.8,0.4-0.9c0.2-0.2,0.6-0.4,0.9-0.4c0.4,0,0.8,0.2,0.9,0.4    c0.4,0.4,0.4,0.6,0.4,0.9v13.3c0,2.1-0.8,3.8-2.1,5.1c-1.5,1.5-3.2,2.1-5.1,2.1H83.7"></path>
		<path id="path46" class="st6" d="M55.2-302.8c-0.4,0-0.8-0.2-0.9-0.4c-0.4-0.4-0.4-0.6-0.4-0.9c0-0.4,0.2-0.8,0.4-0.9    c0.2-0.2,0.6-0.4,0.9-0.4h12.9c0.9,0,1.7-0.4,2.3-0.9c0.7-0.6,0.9-1.5,0.9-2.5c0-0.9-0.4-1.7-0.9-2.5c-0.6-0.8-1.5-0.9-2.3-0.9H60    c-1.7,0-3.2-0.6-4.4-1.9c-1.1-1.1-1.9-2.7-1.9-4.4c0-1.7,0.6-3.2,1.9-4.4c1.1-1.1,2.7-1.9,4.4-1.9h12.9c0.4,0,0.8,0.2,0.9,0.4    c0.4,0.4,0.4,0.6,0.4,0.9c0,0.4-0.2,0.8-0.4,0.9c-0.2,0.2-0.6,0.4-0.9,0.4H60c-0.9,0-1.7,0.4-2.5,0.9c-0.6,0.6-0.9,1.5-0.9,2.5    c0,0.9,0.4,1.7,0.9,2.5c0.6,0.6,1.5,0.9,2.5,0.9h8.1c1.7,0,3.2,0.6,4.4,1.9c1.1,1.1,1.9,2.7,1.9,4.4c0,1.7-0.6,3.2-1.9,4.4    c-1.1,1.1-2.7,1.9-4.4,1.9H55.2"></path>
		<path id="path48" class="st6" d="M50.3-302.8c-0.4,0-0.8-0.2-1.1-0.4L34-319.6v15.5c0,0.4-0.2,0.8-0.4,0.9    c-0.2,0.2-0.6,0.4-0.9,0.4c-0.4,0-0.8-0.2-0.9-0.4c-0.4-0.4-0.4-0.6-0.4-0.9v-19.1c0-0.6,0.4-1.1,0.9-1.3c0.2-0.1,0.4-0.1,0.6-0.1    c0.2,0,0.5,0,0.9,0.5L49-307.7v-15.5c0-0.4,0.2-0.8,0.4-0.9c0.2-0.2,0.6-0.4,0.9-0.4s0.8,0.2,0.9,0.4c0.4,0.4,0.4,0.6,0.4,0.9    v19.1c0,0.6-0.4,1.1-0.9,1.3C50.5-302.8,50.5-302.8,50.3-302.8"></path>
		<path id="path50" class="st6" d="M26.1-307.1c0,0.6,0,0.7-0.4,1.1c-0.4,0.2-0.7,0.4-1.1,0.4H12.8c-0.6,0-0.9-0.1-1.2-0.4    c-0.3-0.4-0.3-0.7-0.3-1.1v-13.3c0-0.6,0-0.8,0.4-1.1c0.4-0.2,0.7-0.4,1.1-0.4h11.7c0.6,0,0.8,0,1.1,0.4c0.2,0.4,0.4,0.8,0.4,1.1    L26.1-307.1z M27.6-323.4c-0.8-0.9-1.9-1.3-3-1.3H12.8c-1.1,0-2.1,0.6-3,1.3c-1,0.8-1.3,1.9-1.3,3v13.3c0,1.1,0.5,2.2,1.3,3    c0.8,0.9,1.9,1.3,3,1.3h11.7c1.1,0,2.1-0.4,3-1.3c0.9-0.7,1.3-1.9,1.3-3v-13.3C28.9-321.5,28.6-322.6,27.6-323.4"></path>
		<path id="path52" class="st6" d="M6-305.2c0.2,0.2,0.4,0.6,0.4,1.1c0,0.6-0.2,0.9-0.4,1.1c-0.2,0.2-0.6,0.3-0.9,0.3h-16.4    c-0.5-0.2-1.1-0.5-1.5-1c-0.9-1-1.3-1.9-1.3-3V-320c0-1.1,0.4-2.3,1.3-3c0.7-0.8,1.9-1.3,3-1.3H5c0.4,0,0.7,0.2,0.9,0.4    c0.2,0.4,0.4,0.6,0.4,0.9c0,0.4-0.2,0.7-0.4,0.9c-0.2,0.2-0.6,0.4-0.9,0.4H-9.7c-0.4,0-0.7,0.2-1.1,0.4c-0.4,0.4-0.4,0.6-0.4,1.1    v13.3c0,0.5,0.1,0.6,0.4,0.9c0.3,0.3,0.6,0.4,1.1,0.4H5C5.4-305.6,5.8-305.4,6-305.2"></path>
	</g>
</g>
<g>
	<path id="path74" class="st6" d="M-78.8-320.9l4.8,40.3h-44c2.2-11.4,4.8-24.6,8.4-28.2c2.2-2.2,8.1-6.6,26-14.7L-78.8-320.9"></path>
	<path id="path76" class="st6" d="M-18.3-280.6h-44l4.8-40.3l3.5-3c3.7,1.4,24.7,12.9,27.3,15.1C-22.7-305.2-20.5-292-18.3-280.6"></path>
	<path id="path78" class="st7" d="M-68.1-315.4c0,0-15,3.7-15,4.4s5.9,30.4,5.9,30.4h20.2l2.2-30.1L-68.1-315.4"></path>
	<path id="path80" class="st8" d="M-74.4-280.6h-8.1l-8.8-18l8.4-5.5l-10.3-4.8l9.5-14.7l3.7-1.5l1.1-0.4v4.4l1.5,14.7L-74.4-280.6"></path>
	<path id="path82" class="st8" d="M-53.8-304.1l8.4,5.5l-8.8,18h-8.1l2.9-25.3l1.8-15v-4.4h0.7l4.8,2.2l8.4,14.3L-53.8-304.1"></path>
	<path id="path84" class="st8" d="M-73.1-310.6l2.7,4.3c1.5,0,2.6,0,4,0l2.7-4.3l-4.6-4.9L-73.1-310.6"></path>
	<path id="path86" class="st8" d="M-70.3-306.3l-3.7,25.7h11.4l-3.7-25.7H-70.3"></path>
	<path id="path88" class="st5" d="M-75.9-326.4l-4,1.1l2.6,19.1l9.2-9.2L-75.9-326.4"></path>
	<path id="path90" class="st5" d="M-56.8-325.3l-3.7-1.1l-7.7,11l8.8,9.5L-56.8-325.3"></path>
	<path id="path92" class="st9" d="M-66.3-306.3h-4H-66.3"></path>
	<path id="path200" class="st6" d="M-78.6-348.1c5.7,5.3,14.9,5,20.2-0.7c5.3-5.7,5-14.9-0.7-20.2c-5.7-5.3-14.9-5-20.2,0.7   C-84.2-362.6-83.9-353.4-78.6-348.1"></path>
	<path id="path202" class="st6" d="M-78.6-348.8c5.7,5.3,14.5,5,20.2-0.7c5.7-5.7,5-14.5-0.7-20.2c-5.7-5.7-14.5-5-20.2,0.7   C-84.3-363.3-84.3-354.1-78.6-348.8"></path>
	<path id="path204" class="st10" d="M-43-359.3c0-1.1-0.1-1.8-0.1-2.9l5.4-2.4c-0.4-1.8-0.9-3.6-1.7-5.4l-5.9,0.6   c-0.8-1.8-2-3.6-3.1-5l3.5-4.9c-1.2-1.4-2.7-2.8-4.2-3.9l-5,3.5c-1.5-1-3.4-2.1-5.2-2.7l0.5-5.9c-1.9-0.7-3.7-1-5.6-1.3l-2.4,5.6   c-1.1,0-1.8-0.3-2.9-0.3c-1.1,0-1.8,0.1-2.9,0.1l-2.4-5.4c-1.8,0.4-3.6,0.9-5.4,1.7l0.6,5.9c-1.8,0.8-3.6,2-5,3.1l-4.9-3.5   c-1.4,1.2-2.8,2.7-3.9,4.2l3.5,5c-1,1.5-2.1,3.4-2.7,5.2l-5.9-0.5c-0.7,1.9-1,3.7-1.3,5.6l5.6,2.4c0,1.1-0.3,1.8-0.3,2.9   c0,1.1,0.1,1.8,0.1,2.9l-5.4,2.4c0.4,1.8,0.9,3.6,1.7,5.4l5.9-0.6c0.8,1.8,2,3.6,3.1,5l-3.5,4.9c1.2,1.4,2.7,2.8,4.2,3.9l5-3.5   c1.5,1,3.4,2.1,5.2,2.7l-0.5,5.9c1.9,0.7,3.7,1,5.6,1.3l2.4-5.6c1.1,0,1.8,0.3,2.9,0.3c1.1,0,1.8-0.1,2.9-0.1l2.4,5.4   c1.8-0.4,3.6-0.9,5.4-1.7l-0.6-5.9c1.8-0.8,3.6-2,5-3.1l4.9,3.5c1.4-1.2,2.8-2.7,3.9-4.2l-3.5-5c1-1.5,2.1-3.4,2.7-5.2l5.9,0.5   c0.7-1.9,1-3.7,1.3-5.6l-5.6-2.4C-42.9-357.1-43-358.2-43-359.3"></path>
	<g id="g206">
		<g>
			<defs>
				<path id="SVGID_1_" d="M-69.8-378.5c10.7-0.4,19.7,8,20.1,18.7c0.4,10.7-8,19.7-18.7,20.1c-10.7,0.4-19.7-8-20.1-18.7      S-80.5-378.1-69.8-378.5z"></path>
			</defs>
			<clipPath id="SVGID_2_">
				<use xlink:href="#SVGID_1_" style="overflow:visible;"></use>
			</clipPath>
			<g id="g208" class="st11">
				
					<linearGradient id="path220_4_" gradientUnits="userSpaceOnUse" x1="-129.8331" y1="-12.2923" x2="-129.2156" y2="-12.2923" gradientTransform="matrix(-0.4747 -49.5476 49.5476 -0.4747 478.3245 -6801.7759)">
					<stop offset="0" style="stop-color:#172944"></stop>
					<stop offset="1" style="stop-color:#172B46"></stop>
				</linearGradient>
				<path id="path220" class="st12" d="M-69.8-378.5c10.7-0.4,19.7,8,20.1,18.7c0.4,10.7-8,19.7-18.7,20.1      c-10.7,0.4-19.7-8-20.1-18.7S-80.5-378.1-69.8-378.5"></path>
			</g>
		</g>
	</g>
	<path id="path222" class="st10" d="M-69.4-369.7c5.9-0.2,10.8,4.4,11,10.2c0.2,5.9-4.4,10.8-10.2,11c-5.9,0.2-10.8-4.4-11-10.2   C-79.9-364.6-75.3-369.5-69.4-369.7"></path>
	<g id="g224">
		<g>
			<defs>
				<path id="SVGID_3_" d="M-69.2-363.8c2.6-0.1,4.8,2,4.9,4.6c0.1,2.6-2,4.8-4.6,4.9c-2.6,0.1-4.8-2-4.9-4.6      C-73.9-361.5-71.9-363.7-69.2-363.8z"></path>
			</defs>
			<clipPath id="SVGID_4_">
				<use xlink:href="#SVGID_3_" style="overflow:visible;"></use>
			</clipPath>
			<g id="g226" class="st13">
				
					<linearGradient id="path238_4_" gradientUnits="userSpaceOnUse" x1="-132.6494" y1="-20.497" x2="-132.032" y2="-20.497" gradientTransform="matrix(-0.2023 -21.1133 21.1133 -0.2023 336.8803 -3162.7874)">
					<stop offset="0" style="stop-color:#172944"></stop>
					<stop offset="1" style="stop-color:#172B46"></stop>
				</linearGradient>
				<path id="path238" class="st14" d="M-69.2-363.8c2.6-0.1,4.8,2,4.9,4.6c0.1,2.6-2,4.8-4.6,4.9c-2.6,0.1-4.8-2-4.9-4.6      C-73.9-361.5-71.9-363.7-69.2-363.8"></path>
			</g>
		</g>
	</g>
	<path id="path244" class="st10" d="M-69-355.3L-69-355.3c-2.1,0-3.7-1.7-3.7-3.7l0,0c0-2.1,1.7-3.7,3.7-3.7l0,0   c2.1,0,3.7,1.7,3.7,3.7l0,0C-65.3-357-67-355.3-69-355.3"></path>
</g>
<g>
	<path id="path74_1_" class="st6" d="M426-324.1l4.8,40.6h-44.3c2.2-11.4,4.8-24.7,8.5-28.4c2.2-2.2,8.1-6.6,26.2-14.8L426-324.1"></path>
	<path id="path76_1_" class="st6" d="M486.9-283.6h-44.3l4.8-40.6l3.5-3c3.7,1.4,24.9,13,27.5,15.2   C482.5-308.3,484.7-295,486.9-283.6"></path>
	<path id="path78_1_" class="st7" d="M436.7-318.6c0,0-15.1,3.7-15.1,4.4s5.9,30.6,5.9,30.6h20.3l2.2-30.3L436.7-318.6"></path>
	<path id="path80_1_" class="st8" d="M430.4-283.6h-8.1l-8.9-18.1l8.5-5.5l-10.3-4.8l9.6-14.8l3.7-1.5l1.1-0.4v4.4l1.5,14.8   L430.4-283.6"></path>
	<path id="path82_1_" class="st8" d="M451.1-307.2l8.5,5.5l-8.9,18.1h-8.1l3-25.5l1.8-15.1v-4.4h0.7l4.8,2.2l8.5,14.4L451.1-307.2"></path>
	<path id="path84_1_" class="st8" d="M431.8-313.7l2.7,4.3c1.5,0,2.6,0,4.1,0l2.7-4.3l-4.6-4.9L431.8-313.7"></path>
	<path id="path86_1_" class="st8" d="M434.5-309.4l-3.7,25.8h11.4l-3.7-25.8H434.5"></path>
	<path id="path88_1_" class="st5" d="M429-329.7l-4.1,1.1l2.6,19.2l9.2-9.2L429-329.7"></path>
	<path id="path90_1_" class="st5" d="M448.1-328.6l-3.7-1.1l-7.7,11.1l8.9,9.6L448.1-328.6"></path>
	<path id="path92_1_" class="st9" d="M438.6-309.4h-4.1H438.6"></path>
	<path id="path200_1_" class="st6" d="M426.2-351.5c5.7,5.3,14.9,5,20.3-0.7c5.3-5.7,5-14.9-0.7-20.3c-5.7-5.3-14.9-5-20.3,0.7   C420.5-366,420.9-356.8,426.2-351.5"></path>
	<path id="path202_1_" class="st6" d="M426.2-352.2c5.7,5.3,14.6,5,20.3-0.7c5.7-5.7,5-14.6-0.7-20.3c-5.7-5.7-14.6-5-20.3,0.7   C420.5-366.8,420.5-357.5,426.2-352.2"></path>
	<path id="path204_1_" class="st10" d="M462-362.7c0-1.1-0.1-1.8-0.1-2.9l5.5-2.4c-0.4-1.8-0.9-3.7-1.7-5.5l-5.9,0.6   c-0.8-1.8-2-3.6-3.1-5.1l3.5-4.9c-1.2-1.4-2.7-2.9-4.2-3.9l-5,3.5c-1.5-1.1-3.4-2.1-5.3-2.8l0.5-5.9c-1.9-0.7-3.7-1-5.6-1.3   l-2.4,5.6c-1.1,0-1.9-0.3-3-0.3c-1.1,0-1.8,0.1-2.9,0.1l-2.4-5.5c-1.8,0.4-3.7,0.9-5.5,1.7l0.6,5.9c-1.8,0.8-3.6,2-5.1,3.1   l-4.9-3.5c-1.4,1.2-2.9,2.7-3.9,4.2l3.5,5c-1.1,1.5-2.1,3.4-2.8,5.3l-5.9-0.5c-0.7,1.9-1,3.7-1.3,5.6l5.6,2.4c0,1.1-0.3,1.9-0.3,3   c0,1.1,0.1,1.8,0.1,2.9l-5.5,2.4c0.4,1.8,0.9,3.7,1.7,5.5l5.9-0.6c0.8,1.8,2,3.6,3.1,5.1l-3.5,4.9c1.2,1.4,2.7,2.9,4.2,3.9l5-3.5   c1.5,1.1,3.4,2.1,5.3,2.8l-0.5,5.9c1.9,0.7,3.7,1,5.6,1.3l2.4-5.6c1.1,0,1.9,0.3,3,0.3c1.1,0,1.8-0.1,2.9-0.1l2.4,5.5   c1.8-0.4,3.7-0.9,5.5-1.7l-0.6-5.9c1.8-0.8,3.6-2,5.1-3.1l4.9,3.5c1.4-1.2,2.9-2.7,3.9-4.2l-3.5-5c1.1-1.5,2.1-3.4,2.8-5.3l5.9,0.5   c0.7-1.9,1-3.7,1.3-5.6l-5.6-2.4C462.1-360.5,462-361.6,462-362.7"></path>
	<g id="g206_1_">
		<g>
			<defs>
				<path id="SVGID_5_" d="M435.1-382c10.8-0.4,19.9,8,20.3,18.8c0.4,10.8-8,19.9-18.8,20.3c-10.8,0.4-19.9-8-20.3-18.8      C415.9-372.6,424.3-381.7,435.1-382z"></path>
			</defs>
			<clipPath id="SVGID_6_">
				<use xlink:href="#SVGID_5_" style="overflow:visible;"></use>
			</clipPath>
			<g id="g208_1_" class="st15">
				
					<linearGradient id="path220_5_" gradientUnits="userSpaceOnUse" x1="-129.8609" y1="-2.1033" x2="-129.2398" y2="-2.1033" gradientTransform="matrix(-0.4747 -49.5476 49.5476 -0.4747 478.3245 -6801.7759)">
					<stop offset="0" style="stop-color:#172944"></stop>
					<stop offset="1" style="stop-color:#172B46"></stop>
				</linearGradient>
				<path id="path220_1_" class="st16" d="M435.1-382c10.8-0.4,19.9,8,20.3,18.8c0.4,10.8-8,19.9-18.8,20.3      c-10.8,0.4-19.9-8-20.3-18.8C415.9-372.6,424.3-381.7,435.1-382"></path>
			</g>
		</g>
	</g>
	<path id="path222_1_" class="st10" d="M435.4-373.2c5.9-0.2,10.9,4.4,11.1,10.3c0.2,5.9-4.4,10.9-10.3,11.1   c-5.9,0.2-10.9-4.4-11.1-10.3C424.9-368,429.5-373,435.4-373.2"></path>
	<g id="g224_1_">
		<g>
			<defs>
				<path id="SVGID_7_" d="M435.6-367.3c2.6-0.1,4.9,2,5,4.6c0.1,2.6-2,4.9-4.6,5c-2.6,0.1-4.9-2-5-4.6      C430.9-365,433-367.2,435.6-367.3z"></path>
			</defs>
			<clipPath id="SVGID_8_">
				<use xlink:href="#SVGID_7_" style="overflow:visible;"></use>
			</clipPath>
			<g id="g226_1_" class="st17">
				
					<linearGradient id="path238_5_" gradientUnits="userSpaceOnUse" x1="-132.7162" y1="3.4139" x2="-132.0951" y2="3.4139" gradientTransform="matrix(-0.2023 -21.1133 21.1133 -0.2023 336.8803 -3162.7874)">
					<stop offset="0" style="stop-color:#172944"></stop>
					<stop offset="1" style="stop-color:#172B46"></stop>
				</linearGradient>
				<path id="path238_1_" class="st18" d="M435.6-367.3c2.6-0.1,4.9,2,5,4.6c0.1,2.6-2,4.9-4.6,5c-2.6,0.1-4.9-2-5-4.6      C430.9-365,433-367.2,435.6-367.3"></path>
			</g>
		</g>
	</g>
	<path id="path244_1_" class="st10" d="M435.8-358.7L435.8-358.7c-2.1,0-3.8-1.7-3.8-3.8l0,0c0-2.1,1.7-3.8,3.8-3.8l0,0   c2.1,0,3.8,1.7,3.8,3.8l0,0C439.6-360.4,437.9-358.7,435.8-358.7"></path>
</g>
<g>
	<path class="st6" d="M496.6-337.1c-0.4-0.4-0.6-1-0.6-1.6v-30.6c0-0.6,0.2-1.2,0.6-1.6c0.4-0.4,1-0.7,1.6-0.7h11.4   c3.2,0,5.7,0.5,7.7,1.6c2,1.1,3.4,2.4,4.3,4.1c0.9,1.7,1.3,3.5,1.3,5.4c0,1.9-0.4,3.7-1.3,5.4c-0.9,1.7-2.3,3-4.3,4.1   c-2,1.1-4.6,1.6-7.7,1.6h-9.1v10.7c0,0.6-0.2,1.2-0.7,1.6c-0.4,0.4-1,0.6-1.6,0.6C497.5-336.5,497-336.7,496.6-337.1z M509.1-353.7   c3.4,0,5.8-0.6,7.2-1.9c1.4-1.3,2.1-2.9,2.1-4.8c0-1.9-0.7-3.5-2.1-4.8c-1.4-1.3-3.8-1.9-7.2-1.9h-8.6v13.6H509.1z"></path>
	<path class="st6" d="M530.2-337.1c-0.4-0.4-0.6-1-0.6-1.6v-30.6c0-0.6,0.2-1.2,0.6-1.6c0.4-0.4,1-0.7,1.6-0.7h11.6   c4.5,0,7.9,0.9,10.2,2.8c2.3,1.9,3.4,4.3,3.4,7.3c0,2-0.6,3.8-1.7,5.5c-1.1,1.6-2.7,2.8-4.9,3.6c2.4,0.6,4,2.1,4.9,4.5   c0.9,2.3,1.3,4.7,1.3,6.9v2.3c0,0.6-0.2,1.2-0.6,1.6c-0.4,0.4-1,0.6-1.6,0.6c-0.7,0-1.3-0.2-1.7-0.6c-0.4-0.4-0.6-1-0.6-1.6v-1.5   c0-1.7-0.1-3.2-0.4-4.6c-0.3-1.4-1-2.7-2.1-3.8c-1.1-1.1-2.8-1.7-5.1-1.7h-10.3v11.6c0,0.6-0.2,1.2-0.7,1.6c-0.4,0.4-1,0.6-1.6,0.6   C531.1-336.5,530.6-336.7,530.2-337.1z M543.1-354.6c2.9,0,5.1-0.6,6.8-1.7c1.7-1.1,2.5-2.7,2.5-4.8c0-2-0.7-3.5-2.2-4.6   c-1.4-1.1-3.9-1.6-7.4-1.6h-8.8v12.7H543.1z"></path>
	<path class="st6" d="M571.4-338.5c-2.6-1.5-4.7-3.6-6.1-6.3c-1.4-2.7-2.2-5.8-2.2-9.3c0.1-3.5,0.8-6.6,2.2-9.3   c1.4-2.7,3.5-4.8,6.1-6.3c2.6-1.5,5.7-2.3,9.2-2.3c3.5,0,6.6,0.8,9.2,2.3c2.6,1.5,4.6,3.7,6.1,6.4c1.4,2.7,2.2,5.8,2.3,9.3   c-0.1,3.5-0.8,6.6-2.3,9.3c-1.4,2.7-3.5,4.8-6.1,6.4c-2.6,1.5-5.7,2.3-9.2,2.3C577-336.2,574-337,571.4-338.5z M587.5-342.3   c2-1.2,3.5-2.8,4.5-4.9c1-2.1,1.5-4.4,1.5-7c0-2.6-0.5-4.9-1.5-7c-1-2.1-2.5-3.7-4.5-4.9c-2-1.2-4.3-1.8-6.9-1.8   c-2.7,0-5,0.6-7,1.8c-1.9,1.2-3.4,2.8-4.5,4.9c-1,2.1-1.5,4.4-1.5,7c0,2.6,0.5,4.9,1.5,7c1,2.1,2.5,3.7,4.5,4.9   c1.9,1.2,4.3,1.8,7,1.8C583.2-340.5,585.5-341.1,587.5-342.3z"></path>
	<path class="st6" d="M612.1-338.4c-2.6-1.4-4.7-3.5-6.2-6.2c-1.5-2.7-2.3-5.9-2.3-9.5c0-3.6,0.8-6.8,2.3-9.5   c1.5-2.7,3.6-4.8,6.2-6.2c2.6-1.4,5.6-2.2,9-2.2c2.3,0,4.3,0.3,6.1,0.8c1.8,0.5,3.6,1.3,5.3,2.3c0.7,0.4,1.1,1,1.1,1.9   c0,0.5-0.2,0.9-0.6,1.3c-0.4,0.4-0.8,0.6-1.4,0.6c-0.3,0-0.6-0.1-0.9-0.2c-1.5-0.8-2.9-1.3-4.3-1.7c-1.4-0.4-3-0.6-4.8-0.6   c-2.9,0-5.3,0.6-7.3,1.8c-2,1.2-3.5,2.8-4.5,4.8c-1,2-1.5,4.4-1.5,7c0,2.6,0.5,4.9,1.5,7c1,2,2.5,3.7,4.5,4.8   c2,1.2,4.5,1.8,7.3,1.8c1.8,0,3.4-0.2,4.8-0.6c1.4-0.4,2.8-1,4.3-1.7c0.3-0.1,0.6-0.2,0.9-0.2c0.6,0,1.1,0.2,1.4,0.5   c0.4,0.4,0.6,0.8,0.6,1.3c0,0.9-0.4,1.5-1.1,1.9c-1.8,1-3.5,1.8-5.3,2.3c-1.8,0.5-3.8,0.8-6.1,0.8   C617.7-336.2,614.8-337,612.1-338.4z"></path>
	<path class="st6" d="M641.1-337.4c-0.4-0.4-0.6-1-0.6-1.6v-30.3c0-0.6,0.2-1.2,0.6-1.6c0.4-0.4,1-0.7,1.6-0.7h20   c0.6,0,1.1,0.2,1.5,0.6c0.4,0.4,0.6,0.9,0.6,1.5s-0.2,1.1-0.6,1.5c-0.4,0.4-0.9,0.6-1.5,0.6H645v11h15.9c0.6,0,1.1,0.2,1.5,0.6   c0.4,0.4,0.6,0.9,0.6,1.5c0,0.6-0.2,1.1-0.6,1.5c-0.4,0.4-0.9,0.6-1.5,0.6H645v11.1h17.7c0.6,0,1.1,0.2,1.5,0.6   c0.4,0.4,0.6,0.9,0.6,1.5c0,0.6-0.2,1.1-0.6,1.5c-0.4,0.4-0.9,0.6-1.5,0.6h-20C642-336.7,641.5-337,641.1-337.4z"></path>
	<path class="st6" d="M671.4-338.6c-0.4-0.2-0.7-0.4-1-0.8c-0.3-0.4-0.4-0.8-0.4-1.2c0-0.6,0.2-1.1,0.6-1.5c0.4-0.4,0.9-0.6,1.5-0.6   c0.3,0,0.6,0.1,0.9,0.2c3.1,1.4,6.3,2,9.8,2c5.8,0,8.7-1.9,8.7-5.7c0-1-0.4-1.8-1.1-2.5c-0.7-0.7-1.7-1.2-2.8-1.6   c-1.1-0.4-2.7-0.8-4.7-1.4c-2.7-0.7-4.9-1.4-6.5-2c-1.7-0.6-3.1-1.6-4.3-2.9c-1.2-1.3-1.8-3-1.8-5.2c0-1.9,0.5-3.6,1.5-5.2   c1-1.5,2.5-2.8,4.4-3.7c1.9-0.9,4.3-1.4,7-1.4c3.7,0,7,0.5,9.9,1.6c0.9,0.3,1.4,1,1.4,2c0,0.5-0.2,1-0.5,1.4   c-0.4,0.4-0.8,0.6-1.4,0.6c-0.2,0-0.5-0.1-0.8-0.2c-2.6-0.9-5.3-1.3-8-1.3c-2.6,0-4.8,0.5-6.4,1.5c-1.6,1-2.5,2.4-2.5,4.2   c0,1.2,0.4,2.2,1.2,2.9c0.8,0.7,1.8,1.3,2.9,1.7c1.2,0.4,2.8,0.9,4.8,1.3c2.6,0.6,4.8,1.3,6.4,1.9c1.6,0.6,3,1.6,4.1,2.9   c1.1,1.3,1.7,3.1,1.7,5.4c0,1.9-0.5,3.5-1.6,5c-1.1,1.5-2.6,2.6-4.5,3.5c-1.9,0.8-4.2,1.2-6.7,1.2   C679.1-336.2,675.1-337,671.4-338.6z"></path>
	<path class="st6" d="M702.2-338.6c-0.4-0.2-0.7-0.4-1-0.8c-0.3-0.4-0.4-0.8-0.4-1.2c0-0.6,0.2-1.1,0.6-1.5c0.4-0.4,0.9-0.6,1.5-0.6   c0.3,0,0.6,0.1,0.9,0.2c3.1,1.4,6.3,2,9.8,2c5.8,0,8.7-1.9,8.7-5.7c0-1-0.4-1.8-1.1-2.5c-0.7-0.7-1.7-1.2-2.8-1.6   c-1.1-0.4-2.7-0.8-4.7-1.4c-2.7-0.7-4.9-1.4-6.5-2c-1.7-0.6-3.1-1.6-4.3-2.9c-1.2-1.3-1.8-3-1.8-5.2c0-1.9,0.5-3.6,1.5-5.2   c1-1.5,2.5-2.8,4.4-3.7c1.9-0.9,4.3-1.4,7-1.4c3.7,0,7,0.5,9.9,1.6c0.9,0.3,1.4,1,1.4,2c0,0.5-0.2,1-0.5,1.4   c-0.4,0.4-0.8,0.6-1.4,0.6c-0.2,0-0.5-0.1-0.8-0.2c-2.6-0.9-5.3-1.3-8-1.3c-2.6,0-4.8,0.5-6.4,1.5c-1.6,1-2.5,2.4-2.5,4.2   c0,1.2,0.4,2.2,1.2,2.9c0.8,0.7,1.8,1.3,2.9,1.7c1.2,0.4,2.8,0.9,4.8,1.3c2.6,0.6,4.8,1.3,6.4,1.9c1.6,0.6,3,1.6,4.1,2.9   c1.1,1.3,1.7,3.1,1.7,5.4c0,1.9-0.5,3.5-1.6,5c-1.1,1.5-2.6,2.6-4.5,3.5c-1.9,0.8-4.2,1.2-6.7,1.2   C709.9-336.2,705.9-337,702.2-338.6z"></path>
	<path class="st6" d="M747.5-337.1c-0.4-0.4-0.6-1-0.6-1.6v-30.6c0-0.6,0.2-1.2,0.6-1.6c0.4-0.4,1-0.7,1.6-0.7h11.4   c3.2,0,5.7,0.5,7.7,1.6c2,1.1,3.4,2.4,4.3,4.1c0.9,1.7,1.3,3.5,1.3,5.4c0,1.9-0.4,3.7-1.3,5.4c-0.9,1.7-2.3,3-4.3,4.1   c-2,1.1-4.6,1.6-7.7,1.6h-9.1v10.7c0,0.6-0.2,1.2-0.7,1.6s-1,0.6-1.6,0.6C748.5-336.5,748-336.7,747.5-337.1z M760.1-353.7   c3.4,0,5.8-0.6,7.2-1.9c1.4-1.3,2.1-2.9,2.1-4.8c0-1.9-0.7-3.5-2.1-4.8c-1.4-1.3-3.8-1.9-7.2-1.9h-8.6v13.6H760.1z"></path>
	<path class="st6" d="M781.1-337.1c-0.4-0.4-0.6-1-0.6-1.6v-30.6c0-0.6,0.2-1.2,0.6-1.6c0.4-0.4,1-0.7,1.6-0.7h11.6   c4.5,0,7.9,0.9,10.2,2.8c2.3,1.9,3.4,4.3,3.4,7.3c0,2-0.6,3.8-1.7,5.5c-1.1,1.6-2.7,2.8-4.9,3.6c2.4,0.6,4,2.1,4.9,4.5   c0.9,2.3,1.3,4.7,1.3,6.9v2.3c0,0.6-0.2,1.2-0.6,1.6c-0.4,0.4-1,0.6-1.6,0.6c-0.7,0-1.3-0.2-1.7-0.6c-0.4-0.4-0.6-1-0.6-1.6v-1.5   c0-1.7-0.2-3.2-0.5-4.6c-0.3-1.4-1-2.7-2.1-3.8c-1.1-1.1-2.8-1.7-5.1-1.7H785v11.6c0,0.6-0.2,1.2-0.7,1.6s-1,0.6-1.6,0.6   C782.1-336.5,781.5-336.7,781.1-337.1z M794.1-354.6c2.9,0,5.1-0.6,6.8-1.7c1.7-1.1,2.5-2.7,2.5-4.8c0-2-0.7-3.5-2.2-4.6   c-1.4-1.1-3.9-1.6-7.4-1.6H785v12.7H794.1z"></path>
	<path class="st6" d="M822.3-338.5c-2.6-1.5-4.7-3.6-6.1-6.3c-1.4-2.7-2.2-5.8-2.2-9.3c0.1-3.5,0.8-6.6,2.2-9.3   c1.4-2.7,3.5-4.8,6.1-6.3c2.6-1.5,5.7-2.3,9.2-2.3c3.5,0,6.6,0.8,9.2,2.3c2.6,1.5,4.6,3.7,6.1,6.4c1.4,2.7,2.2,5.8,2.3,9.3   c-0.1,3.5-0.8,6.6-2.3,9.3c-1.4,2.7-3.5,4.8-6.1,6.4c-2.6,1.5-5.7,2.3-9.2,2.3C828-336.2,824.9-337,822.3-338.5z M838.4-342.3   c2-1.2,3.5-2.8,4.5-4.9c1-2.1,1.5-4.4,1.5-7c0-2.6-0.5-4.9-1.5-7c-1-2.1-2.5-3.7-4.5-4.9c-2-1.2-4.3-1.8-6.9-1.8   c-2.7,0-5,0.6-7,1.8c-1.9,1.2-3.4,2.8-4.5,4.9c-1,2.1-1.5,4.4-1.5,7c0,2.6,0.5,4.9,1.5,7c1,2.1,2.5,3.7,4.5,4.9   c1.9,1.2,4.3,1.8,7,1.8C834.2-340.5,836.5-341.1,838.4-342.3z"></path>
	<path class="st6" d="M497.9-307.1c-1.6-0.9-2.9-2.1-3.8-3.8c-0.9-1.6-1.4-3.6-1.4-5.8c0-2.2,0.5-4.1,1.4-5.8   c0.9-1.6,2.2-2.9,3.8-3.8c1.6-0.9,3.4-1.3,5.4-1.3c1.4,0,2.6,0.2,3.7,0.5c1.1,0.3,2.2,0.8,3.2,1.4c0.4,0.2,0.7,0.6,0.7,1.1   c0,0.3-0.1,0.6-0.3,0.8c-0.2,0.2-0.5,0.3-0.9,0.3c-0.2,0-0.4,0-0.5-0.1c-0.9-0.5-1.8-0.8-2.6-1.1c-0.8-0.2-1.8-0.4-2.9-0.4   c-1.7,0-3.2,0.4-4.4,1.1c-1.2,0.7-2.1,1.7-2.8,2.9c-0.6,1.2-0.9,2.6-0.9,4.2c0,1.6,0.3,3,0.9,4.2c0.6,1.2,1.5,2.2,2.8,2.9   c1.2,0.7,2.7,1.1,4.4,1.1c1.1,0,2.1-0.1,2.9-0.4c0.8-0.2,1.7-0.6,2.6-1.1c0.2-0.1,0.3-0.1,0.5-0.1c0.4,0,0.7,0.1,0.9,0.3   c0.2,0.2,0.3,0.5,0.3,0.8c0,0.5-0.2,0.9-0.7,1.1c-1.1,0.6-2.1,1.1-3.2,1.4c-1.1,0.3-2.3,0.5-3.7,0.5   C501.3-305.8,499.5-306.3,497.9-307.1z"></path>
	<path class="st6" d="M518.2-307.2c-1.6-0.9-2.8-2.2-3.7-3.8c-0.9-1.6-1.3-3.5-1.4-5.6c0-2.1,0.5-4,1.4-5.6c0.9-1.6,2.1-2.9,3.7-3.8   c1.6-0.9,3.4-1.4,5.6-1.4c2.1,0,4,0.5,5.5,1.4c1.6,0.9,2.8,2.2,3.7,3.9c0.9,1.6,1.3,3.5,1.4,5.6c0,2.1-0.5,4-1.4,5.6   c-0.9,1.6-2.1,2.9-3.7,3.9c-1.6,0.9-3.4,1.4-5.5,1.4C521.7-305.8,519.8-306.3,518.2-307.2z M528-309.5c1.2-0.7,2.1-1.7,2.7-3   c0.6-1.2,0.9-2.7,0.9-4.2c0-1.6-0.3-3-0.9-4.2c-0.6-1.2-1.5-2.2-2.7-3c-1.2-0.7-2.6-1.1-4.2-1.1c-1.6,0-3,0.4-4.2,1.1   c-1.2,0.7-2.1,1.7-2.7,3c-0.6,1.2-0.9,2.7-0.9,4.2c0,1.6,0.3,3,0.9,4.2c0.6,1.2,1.5,2.2,2.7,3c1.2,0.7,2.6,1.1,4.2,1.1   C525.4-308.4,526.8-308.8,528-309.5z"></path>
	<path class="st6" d="M539.4-306.4c-0.3-0.3-0.4-0.6-0.4-1v-18.1c0-0.5,0.2-1,0.6-1.4c0.4-0.4,0.8-0.6,1.4-0.6h0.4   c0.6,0,1.2,0.3,1.7,0.9l11.6,16.8V-326c0-0.4,0.1-0.7,0.4-1c0.3-0.3,0.6-0.4,1-0.4c0.4,0,0.7,0.1,1,0.4c0.3,0.3,0.4,0.6,0.4,1v18.1   c0,0.5-0.2,1-0.6,1.4c-0.4,0.4-0.9,0.6-1.4,0.6H555c-0.3,0-0.6-0.1-0.9-0.2c-0.3-0.2-0.5-0.3-0.7-0.6l-11.7-16.9v16.4   c0,0.4-0.1,0.7-0.4,1c-0.3,0.3-0.6,0.4-1,0.4C540-306,539.6-306.1,539.4-306.4z"></path>
	<path class="st6" d="M562.7-307.3c-0.2-0.1-0.4-0.3-0.6-0.5c-0.2-0.2-0.2-0.5-0.2-0.7c0-0.3,0.1-0.6,0.3-0.9   c0.2-0.3,0.5-0.4,0.9-0.4c0.2,0,0.4,0,0.6,0.1c1.9,0.8,3.8,1.2,6,1.2c3.5,0,5.3-1.2,5.3-3.5c0-0.6-0.2-1.1-0.7-1.5   c-0.5-0.4-1-0.7-1.7-1c-0.7-0.2-1.6-0.5-2.8-0.8c-1.6-0.4-3-0.8-4-1.2c-1-0.4-1.9-1-2.6-1.8c-0.7-0.8-1.1-1.8-1.1-3.1   c0-1.1,0.3-2.2,0.9-3.1c0.6-0.9,1.5-1.7,2.7-2.2c1.2-0.6,2.6-0.8,4.2-0.8c2.2,0,4.2,0.3,6,1c0.6,0.2,0.8,0.6,0.8,1.2   c0,0.3-0.1,0.6-0.3,0.9c-0.2,0.3-0.5,0.4-0.9,0.4c-0.1,0-0.3,0-0.5-0.1c-1.6-0.5-3.2-0.8-4.9-0.8c-1.6,0-2.9,0.3-3.9,0.9   c-1,0.6-1.5,1.5-1.5,2.5c0,0.7,0.2,1.3,0.7,1.8c0.5,0.5,1.1,0.8,1.8,1.1c0.7,0.3,1.7,0.5,2.9,0.8c1.6,0.4,2.9,0.8,3.9,1.1   c1,0.4,1.8,1,2.5,1.8c0.7,0.8,1,1.9,1,3.3c0,1.1-0.3,2.1-1,3c-0.6,0.9-1.6,1.6-2.7,2.1c-1.2,0.5-2.5,0.8-4.1,0.8   C567.3-305.8,564.9-306.3,562.7-307.3z"></path>
	<path class="st6" d="M586.3-306.7c-1.3-0.6-2.4-1.5-3.3-2.8c-0.8-1.2-1.3-2.8-1.3-4.6V-326c0-0.4,0.1-0.7,0.4-1   c0.3-0.3,0.6-0.4,1-0.4c0.4,0,0.7,0.1,1,0.4c0.3,0.3,0.4,0.6,0.4,1v12c0,1.2,0.3,2.2,0.8,3.1c0.6,0.8,1.3,1.5,2.2,1.9   c0.9,0.4,1.9,0.6,2.9,0.6c1,0,2-0.2,2.9-0.6s1.6-1.1,2.2-1.9c0.6-0.8,0.8-1.9,0.8-3.1v-12c0-0.4,0.1-0.7,0.4-1   c0.3-0.3,0.6-0.4,1-0.4c0.4,0,0.7,0.1,1,0.4c0.3,0.3,0.4,0.6,0.4,1v11.9c0,1.8-0.4,3.3-1.3,4.6c-0.8,1.2-1.9,2.2-3.3,2.8   c-1.3,0.6-2.7,0.9-4.1,0.9S587.6-306.1,586.3-306.7z"></path>
	<path class="st6" d="M605.4-306.7c-0.4-0.4-0.6-0.8-0.6-1.3v-18c0-0.4,0.1-0.7,0.4-1c0.3-0.3,0.6-0.4,1-0.4c0.4,0,0.7,0.1,1,0.4   c0.3,0.3,0.4,0.6,0.4,1v17.1h9.9c0.4,0,0.7,0.1,1,0.4c0.3,0.3,0.4,0.6,0.4,1c0,0.4-0.1,0.7-0.4,1c-0.3,0.3-0.6,0.4-1,0.4h-10.7   C606.2-306.1,605.7-306.3,605.4-306.7z"></path>
	<path class="st6" d="M625.4-306.4c-0.3-0.3-0.4-0.6-0.4-1v-17.3h-6.2c-0.4,0-0.7-0.1-0.9-0.4c-0.2-0.2-0.4-0.5-0.4-0.9   c0-0.4,0.1-0.7,0.4-0.9c0.2-0.3,0.5-0.4,0.9-0.4h15.1c0.4,0,0.7,0.1,0.9,0.4c0.3,0.3,0.4,0.6,0.4,0.9c0,0.4-0.1,0.7-0.4,0.9   c-0.3,0.2-0.6,0.4-0.9,0.4h-6.1v17.3c0,0.4-0.1,0.7-0.4,1c-0.3,0.3-0.6,0.4-1,0.4C626-306,625.7-306.1,625.4-306.4z"></path>
	<path class="st6" d="M638.9-306.4c-0.3-0.3-0.4-0.6-0.4-1V-326c0-0.4,0.1-0.7,0.4-1c0.3-0.3,0.6-0.4,1-0.4c0.4,0,0.7,0.1,1,0.4   c0.3,0.3,0.4,0.6,0.4,1v18.7c0,0.4-0.1,0.7-0.4,1c-0.3,0.3-0.6,0.4-1,0.4C639.5-306,639.2-306.1,638.9-306.4z"></path>
	<path class="st6" d="M647.5-306.4c-0.3-0.3-0.4-0.6-0.4-1v-18.1c0-0.5,0.2-1,0.6-1.4c0.4-0.4,0.8-0.6,1.4-0.6h0.4   c0.6,0,1.2,0.3,1.7,0.9l11.6,16.8V-326c0-0.4,0.1-0.7,0.4-1c0.3-0.3,0.6-0.4,1-0.4c0.4,0,0.7,0.1,1,0.4c0.3,0.3,0.4,0.6,0.4,1v18.1   c0,0.5-0.2,1-0.6,1.4c-0.4,0.4-0.9,0.6-1.4,0.6h-0.4c-0.3,0-0.6-0.1-0.9-0.2c-0.3-0.2-0.5-0.3-0.7-0.6l-11.7-16.9v16.4   c0,0.4-0.1,0.7-0.4,1s-0.6,0.4-1,0.4C648.1-306,647.8-306.1,647.5-306.4z"></path>
	<path class="st6" d="M675.2-307.2c-1.6-0.9-2.9-2.2-3.7-3.8c-0.9-1.6-1.3-3.5-1.3-5.6c0-2.1,0.5-4,1.4-5.7c0.9-1.7,2.2-2.9,3.8-3.8   c1.6-0.9,3.4-1.4,5.3-1.4c1.6,0,2.9,0.2,4.1,0.6c1.2,0.4,2.3,0.9,3.4,1.6c0.2,0.1,0.3,0.2,0.4,0.4c0.1,0.2,0.2,0.4,0.2,0.7   c0,0.3-0.1,0.6-0.3,0.9c-0.2,0.2-0.5,0.4-0.9,0.4c-0.2,0-0.4,0-0.6-0.2c-0.9-0.6-1.9-1-2.8-1.3c-0.9-0.3-2-0.4-3.1-0.4   c-1.5,0-2.9,0.3-4.1,1c-1.2,0.6-2.2,1.6-2.9,2.8c-0.7,1.2-1,2.7-1,4.4c0,1.6,0.3,3,1,4.2c0.7,1.2,1.6,2.2,2.8,2.9   c1.2,0.7,2.7,1.1,4.4,1.1c1.9,0,3.7-0.4,5.3-1.3v-5.5h-5c-0.3,0-0.6-0.1-0.9-0.4c-0.2-0.2-0.4-0.5-0.4-0.9c0-0.3,0.1-0.6,0.4-0.9   c0.2-0.2,0.5-0.4,0.9-0.4h6c0.4,0,0.7,0.1,1,0.4c0.3,0.3,0.4,0.6,0.4,1v6.9c0,0.4-0.1,0.8-0.3,1.1c-0.2,0.3-0.5,0.6-0.8,0.7   c-2.3,1.1-4.6,1.7-6.9,1.7C678.7-305.8,676.8-306.3,675.2-307.2z"></path>
</g>
<g>
	<path id="path74_2_" class="st6" d="M-76.1-139.2l5.1,43H-118c2.4-12.1,5.1-26.2,9-30.1c2.4-2.3,8.6-7,27.9-15.6L-76.1-139.2"></path>
	<path id="path76_2_" class="st6" d="M-11.3-96.2h-47.1l5.1-43l3.8-3.2c3.9,1.5,26.5,13.8,29.2,16.1C-16-122.4-13.7-108.3-11.3-96.2   "></path>
	<path id="path78_2_" class="st7" d="M-64.7-133.3c0,0-16.1,3.9-16.1,4.7c0,0.8,6.3,32.5,6.3,32.5h21.6l2.4-32.1L-64.7-133.3"></path>
	<path id="path80_2_" class="st8" d="M-71.3-96.2H-80l-9.4-19.2l9-5.9l-11-5.1l10.2-15.6l3.9-1.6l1.2-0.4v4.7l1.6,15.6L-71.3-96.2"></path>
	<path id="path82_2_" class="st8" d="M-49.4-121.2l9,5.9l-9.4,19.2h-8.6l3.1-27l2-16v-4.7h0.8l5.1,2.3l9,15.3L-49.4-121.2"></path>
	<path id="path84_2_" class="st8" d="M-69.9-128.1l2.9,4.6c1.6,0,2.7,0,4.3,0l2.9-4.5l-4.9-5.2L-69.9-128.1"></path>
	<path id="path86_2_" class="st8" d="M-67-123.6L-71-96.2h12.2l-3.9-27.4H-67"></path>
	<path id="path88_2_" class="st5" d="M-72.9-145.1l-4.3,1.2l2.7,20.3l9.8-9.8L-72.9-145.1"></path>
	<path id="path90_2_" class="st5" d="M-52.5-143.9l-3.9-1.2l-8.2,11.7l9.4,10.2L-52.5-143.9"></path>
	<path id="path92_2_" class="st9" d="M-62.7-123.6H-67H-62.7"></path>
	<path id="path200_2_" class="st6" d="M-75.8-168.1c6.1,5.6,15.9,5.3,21.6-0.8c5.7-6.1,5.3-15.8-0.8-21.5   c-6.1-5.7-15.9-5.3-21.6,0.8C-81.9-183.6-81.5-173.8-75.8-168.1"></path>
	<path id="path202_2_" class="st6" d="M-75.8-168.9c6.1,5.6,15.5,5.3,21.6-0.8c6.1-6.1,5.3-15.5-0.8-21.5c-6.1-6-15.5-5.3-21.6,0.8   C-81.9-184.4-81.9-174.6-75.8-168.9"></path>
	<path id="path204_2_" class="st10" d="M-37.8-180.1c0-1.2-0.1-2-0.1-3.1l5.8-2.6c-0.5-1.9-0.9-3.9-1.8-5.8l-6.3,0.6   c-0.9-1.9-2.1-3.8-3.3-5.4l3.7-5.2c-1.2-1.5-2.9-3-4.5-4.1l-5.4,3.7c-1.6-1.1-3.6-2.2-5.6-2.9l0.6-6.3c-2-0.7-4-1-5.9-1.4l-2.5,6   c-1.2,0-2-0.3-3.2-0.3c-1.2,0-2,0.1-3.1,0.1l-2.6-5.8c-1.9,0.5-3.9,0.9-5.8,1.8l0.6,6.2c-1.9,0.9-3.8,2.1-5.4,3.3l-5.2-3.7   c-1.5,1.2-3,2.8-4.2,4.5l3.7,5.3c-1.1,1.6-2.2,3.6-2.9,5.6l-6.3-0.6c-0.7,2-1,4-1.4,5.9l6,2.5c0,1.2-0.3,2-0.3,3.1   c0,1.2,0.1,2,0.1,3.1l-5.8,2.6c0.5,1.9,0.9,3.9,1.8,5.8l6.3-0.6c0.9,1.9,2.1,3.8,3.3,5.4l-3.7,5.2c1.2,1.5,2.9,3,4.5,4.1l5.4-3.7   c1.6,1.1,3.6,2.2,5.6,2.9l-0.6,6.3c2,0.7,4,1,5.9,1.4l2.5-6c1.2,0,2,0.3,3.2,0.3c1.2,0,2-0.1,3.1-0.1l2.6,5.8   c1.9-0.5,3.9-0.9,5.8-1.8l-0.6-6.2c1.9-0.9,3.8-2.1,5.4-3.3l5.2,3.7c1.5-1.2,3-2.8,4.2-4.5l-3.7-5.3c1.1-1.6,2.2-3.6,2.9-5.6   l6.3,0.6c0.7-2,1-4,1.4-5.9l-6-2.5C-37.7-177.7-37.7-178.9-37.8-180.1"></path>
	<g id="g206_2_">
		<g>
			<defs>
				<path id="SVGID_9_" d="M-66.4-200.6c11.5-0.4,21.1,8.5,21.5,20c0.4,11.4-8.5,21.1-20,21.5c-11.5,0.4-21.1-8.5-21.5-20      C-86.8-190.6-77.9-200.2-66.4-200.6z"></path>
			</defs>
			<clipPath id="SVGID_10_">
				<use xlink:href="#SVGID_9_" style="overflow:visible;"></use>
			</clipPath>
			<g id="g208_2_" class="st19">
				
					<linearGradient id="path220_6_" gradientUnits="userSpaceOnUse" x1="-133.445" y1="-12.2581" x2="-132.7866" y2="-12.2581" gradientTransform="matrix(-0.4747 -49.5476 49.5476 -0.4747 478.3245 -6801.7759)">
					<stop offset="0" style="stop-color:#172944"></stop>
					<stop offset="1" style="stop-color:#172B46"></stop>
				</linearGradient>
				<path id="path220_2_" class="st20" d="M-66.4-200.6c11.5-0.4,21.1,8.5,21.5,20c0.4,11.4-8.5,21.1-20,21.5      c-11.5,0.4-21.1-8.5-21.5-20C-86.8-190.6-77.9-200.2-66.4-200.6"></path>
			</g>
		</g>
	</g>
	<path id="path222_2_" class="st10" d="M-66.1-191.2c6.3-0.2,11.6,4.7,11.8,10.9c0.2,6.3-4.7,11.5-11,11.7   c-6.3,0.2-11.6-4.7-11.8-10.9C-77.2-185.7-72.3-191-66.1-191.2"></path>
	<g id="g224_2_">
		<g>
			<defs>
				<path id="SVGID_11_" d="M-65.8-184.9c2.8-0.1,5.2,2.1,5.3,4.9c0.1,2.8-2.1,5.2-4.9,5.3c-2.8,0.1-5.2-2.1-5.3-4.9      C-70.8-182.5-68.6-184.8-65.8-184.9z"></path>
			</defs>
			<clipPath id="SVGID_12_">
				<use xlink:href="#SVGID_11_" style="overflow:visible;"></use>
			</clipPath>
			<g id="g226_2_" class="st21">
				
					<linearGradient id="path238_6_" gradientUnits="userSpaceOnUse" x1="-141.1414" y1="-20.4167" x2="-140.483" y2="-20.4167" gradientTransform="matrix(-0.2023 -21.1133 21.1133 -0.2023 336.8803 -3162.7874)">
					<stop offset="0" style="stop-color:#172944"></stop>
					<stop offset="1" style="stop-color:#172B46"></stop>
				</linearGradient>
				<path id="path238_2_" class="st22" d="M-65.8-184.9c2.8-0.1,5.2,2.1,5.3,4.9c0.1,2.8-2.1,5.2-4.9,5.3c-2.8,0.1-5.2-2.1-5.3-4.9      C-70.8-182.5-68.6-184.8-65.8-184.9"></path>
			</g>
		</g>
	</g>
	<path id="path244_2_" class="st10" d="M-65.6-175.9L-65.6-175.9c-2.2,0-4-1.8-4-4l0,0c0-2.2,1.8-4,4-4l0,0c2.2,0,4,1.8,4,4l0,0   C-61.6-177.7-63.4-175.9-65.6-175.9"></path>
</g>
<g>
	<path class="st6" d="M22-177.5c0,6.5-4.9,11.4-11.6,11.4H0.6v14.1h-2.8V-189h12.6C17.1-189,22-184.1,22-177.5z M19.2-177.5   c0-5.1-3.7-8.8-8.8-8.8H0.6v17.6h9.8C15.5-168.7,19.2-172.4,19.2-177.5z"></path>
	<path class="st6" d="M43.5-167.1H31.8v15.2H29V-189h14.7c6.1,0,11,4.9,11,11c0,5-3.5,9.3-8.2,10.5l9.2,15.6h-3.2L43.5-167.1z    M31.8-169.8h11.9c4.5,0,8.2-3.7,8.2-8.3c0-4.6-3.7-8.3-8.2-8.3H31.8V-169.8z"></path>
	<path class="st6" d="M59.4-170.4c0-10.6,8.5-19.1,19.2-19.1c10.7,0,19.2,8.5,19.2,19.1c0,10.6-8.5,19.1-19.2,19.1   C67.9-151.3,59.4-159.8,59.4-170.4z M95-170.4c0-9.1-7.2-16.4-16.4-16.4c-9.2,0-16.4,7.3-16.4,16.4c0,9.1,7.2,16.4,16.4,16.4   C87.8-154,95-161.3,95-170.4z"></path>
	<path class="st6" d="M102.8-170.4c0-10.6,8-19.1,19.3-19.1c6.9,0,12.9,3.5,15.9,8.9l-2.5,1.4c-2.4-4.6-7.6-7.6-13.4-7.6   c-9.8,0-16.5,7.3-16.5,16.4c0,9.1,6.7,16.4,16.5,16.4c5.9,0,11.1-3.1,13.6-7.8l2.5,1.4c-3,5.5-9.1,9.1-16,9.1   C110.8-151.3,102.8-159.8,102.8-170.4z"></path>
	<path class="st6" d="M166.2-154.5v2.6h-21.4V-189H166v2.6h-18.3v14.4h17v2.6h-17v14.7H166.2z"></path>
	<path class="st6" d="M170.9-160.1l2.4-1.4c1.3,4.5,5,7.5,11.2,7.5c6.2,0,9.4-3.2,9.4-7.4c0-4.5-3.9-6.1-9.6-7.9   c-6.2-2-11.8-3.8-11.8-10.2c0-6.1,4.9-10,11.3-10c6.1,0,10.2,3.5,12,7.8l-2.4,1.3c-1.4-3.3-4.3-6.4-9.6-6.4c-5.2,0-8.4,3-8.4,7.2   c0,4.5,3.8,5.8,9.1,7.6c6.6,2.2,12.3,4.2,12.3,10.6c0,6.1-4.8,10.2-12.2,10.2C177.6-151.3,172.6-154.8,170.9-160.1z"></path>
	<path class="st6" d="M200.1-160.1l2.4-1.4c1.3,4.5,5,7.5,11.2,7.5c6.2,0,9.4-3.2,9.4-7.4c0-4.5-3.9-6.1-9.6-7.9   c-6.2-2-11.8-3.8-11.8-10.2c0-6.1,4.9-10,11.3-10c6.1,0,10.2,3.5,12,7.8l-2.4,1.3c-1.4-3.3-4.3-6.4-9.6-6.4c-5.2,0-8.4,3-8.4,7.2   c0,4.5,3.8,5.8,9.1,7.6c6.6,2.2,12.3,4.2,12.3,10.6c0,6.1-4.8,10.2-12.2,10.2C206.7-151.3,201.8-154.8,200.1-160.1z"></path>
	<path class="st6" d="M258.8-189c3.6,0,6.6,1.2,9,3.6c2.4,2.4,3.7,5.4,3.7,8.8c0,3.5-1.2,6.4-3.7,8.8c-2.4,2.4-5.5,3.6-9,3.6h-6.5   v12.2h-7.3V-189H258.8z M258.8-170.9c1.6,0,2.9-0.5,3.9-1.6c1-1.1,1.5-2.4,1.5-4c0-1.6-0.5-3-1.5-4c-1-1.1-2.3-1.6-3.9-1.6h-6.5   v11.2H258.8z"></path>
	<path class="st6" d="M296.7-151.9l-7.5-12.9h-5.6v12.9h-7.3V-189h14.9c3.4,0,6.4,1.2,8.8,3.6c2.4,2.4,3.6,5.3,3.6,8.7   c0,2.3-0.7,4.4-2,6.4c-1.3,2-3,3.4-5.2,4.4l8.2,14H296.7z M283.6-182.1v11h7.5c1.4,0,2.6-0.5,3.6-1.6c1-1.1,1.5-2.4,1.5-3.9   c0-1.5-0.5-2.8-1.5-3.9c-1-1.1-2.2-1.6-3.6-1.6H283.6z"></path>
	<path class="st6" d="M339.8-156.7c-3.8,3.7-8.3,5.6-13.7,5.6c-5.4,0-9.9-1.9-13.7-5.6c-3.7-3.7-5.6-8.3-5.6-13.7s1.9-10,5.6-13.7   c3.7-3.7,8.3-5.6,13.7-5.6c5.4,0,10,1.9,13.7,5.6c3.8,3.7,5.6,8.3,5.6,13.7S343.6-160.5,339.8-156.7z M317.5-161.7   c2.3,2.3,5.2,3.4,8.6,3.4s6.3-1.1,8.6-3.4c2.3-2.3,3.5-5.2,3.5-8.7c0-3.5-1.2-6.4-3.5-8.7c-2.3-2.3-5.2-3.4-8.6-3.4   s-6.3,1.1-8.6,3.4c-2.3,2.3-3.5,5.2-3.5,8.7C314.1-166.9,315.2-164,317.5-161.7z"></path>
	<path class="st6" d="M5.9-119c-3.4,0-6.2-1.1-8.4-3.4c-2.2-2.2-3.3-5-3.3-8.3c0-3.3,1.1-6.1,3.3-8.3c2.2-2.2,5-3.3,8.4-3.3   c2,0,3.9,0.5,5.6,1.4c1.7,1,3.1,2.2,4,3.9l-3.8,2.2c-0.6-1-1.4-1.8-2.4-2.4c-1-0.6-2.2-0.8-3.5-0.8c-2.2,0-3.9,0.7-5.3,2.1   c-1.3,1.4-2,3.1-2,5.3c0,2.2,0.7,3.9,2,5.3c1.3,1.4,3.1,2.1,5.3,2.1c1.3,0,2.4-0.3,3.5-0.8c1-0.6,1.8-1.3,2.4-2.3l3.8,2.2   c-1,1.6-2.3,2.9-4,3.9C9.9-119.5,8-119,5.9-119z"></path>
	<path class="st6" d="M54-122.4c-2.3,2.3-5,3.4-8.3,3.4c-3.3,0-6-1.1-8.3-3.4c-2.3-2.3-3.4-5-3.4-8.3c0-3.3,1.1-6,3.4-8.3   c2.3-2.3,5-3.4,8.3-3.4c3.3,0,6,1.1,8.3,3.4c2.3,2.3,3.4,5,3.4,8.3C57.4-127.4,56.3-124.6,54-122.4z M40.5-125.4   c1.4,1.4,3.1,2.1,5.2,2.1c2.1,0,3.8-0.7,5.2-2.1c1.4-1.4,2.1-3.1,2.1-5.3c0-2.1-0.7-3.9-2.1-5.3c-1.4-1.4-3.1-2.1-5.2-2.1   c-2.1,0-3.8,0.7-5.2,2.1c-1.4,1.4-2.1,3.2-2.1,5.3C38.4-128.5,39.1-126.8,40.5-125.4z"></path>
	<path class="st6" d="M90.5-141.9H95v22.4h-3.4l-9.6-13.7v13.7h-4.4v-22.4h3.4l9.6,13.7V-141.9z"></path>
	<path class="st6" d="M123.4-119c-2.2,0-4.1-0.5-5.6-1.5s-2.6-2.3-3.2-4.1l3.8-2.2c0.9,2.3,2.6,3.4,5.2,3.4c1.2,0,2.2-0.2,2.7-0.7   c0.6-0.4,0.9-1,0.9-1.7c0-0.8-0.4-1.4-1.1-1.8c-0.7-0.4-2-0.9-3.8-1.4c-1-0.3-1.9-0.6-2.6-0.9c-0.7-0.3-1.4-0.7-2.1-1.2   c-0.7-0.5-1.2-1.1-1.6-1.9c-0.4-0.8-0.5-1.7-0.5-2.7c0-2,0.7-3.6,2.2-4.9c1.4-1.2,3.2-1.8,5.2-1.8c1.8,0,3.4,0.4,4.8,1.3   c1.4,0.9,2.5,2.1,3.2,3.7l-3.7,2.1c-0.9-1.9-2.3-2.9-4.3-2.9c-0.9,0-1.6,0.2-2.2,0.6c-0.5,0.4-0.8,1-0.8,1.6c0,0.7,0.3,1.3,0.9,1.7   c0.6,0.4,1.7,0.9,3.4,1.4c0.7,0.2,1.2,0.4,1.6,0.5c0.4,0.1,0.8,0.3,1.4,0.5c0.6,0.2,1.1,0.5,1.4,0.7c0.3,0.2,0.7,0.5,1.1,0.9   c0.4,0.4,0.8,0.7,1,1.1c0.2,0.4,0.4,0.8,0.6,1.4c0.2,0.5,0.2,1.1,0.2,1.8c0,2.1-0.8,3.7-2.3,4.9C127.8-119.6,125.9-119,123.4-119z"></path>
	<path class="st6" d="M159.9-119c-2.5,0-4.6-0.7-6.2-2.1c-1.6-1.4-2.4-3.3-2.4-5.7v-15.1h4.4v14.7c0,1.2,0.3,2.1,1,2.8   c0.7,0.7,1.7,1,3.2,1c1.4,0,2.5-0.3,3.2-1c0.7-0.7,1-1.6,1-2.8v-14.7h4.4v15.1c0,2.4-0.8,4.3-2.4,5.7   C164.5-119.7,162.4-119,159.9-119z"></path>
	<path class="st6" d="M193.9-123.7h8.6v4.2h-13v-22.4h4.4V-123.7z"></path>
	<path class="st6" d="M234.6-141.9v4.2h-6.1v18.2H224v-18.2h-6v-4.2H234.6z"></path>
	<path class="st6" d="M254-141.9h4.4v22.4H254V-141.9z"></path>
	<path class="st6" d="M292.6-141.9h4.4v22.4h-3.4l-9.6-13.7v13.7h-4.4v-22.4h3.4l9.6,13.7V-141.9z"></path>
	<path class="st6" d="M340.3-131.5v1.7c0,3.2-1,5.8-3.1,7.8c-2.1,2-4.7,3-8,3c-3.5,0-6.3-1.1-8.6-3.4c-2.3-2.3-3.4-5-3.4-8.3   c0-3.3,1.1-6,3.4-8.3c2.3-2.3,5.1-3.4,8.4-3.4c2.1,0,4,0.5,5.8,1.4c1.7,1,3.1,2.2,4.1,3.8l-3.8,2.2c-0.5-0.9-1.3-1.7-2.4-2.2   c-1.1-0.6-2.3-0.9-3.6-0.9c-2.1,0-3.9,0.7-5.3,2.1c-1.4,1.4-2.1,3.2-2.1,5.3c0,2.1,0.7,3.9,2.1,5.2c1.4,1.4,3.3,2.1,5.6,2.1   c1.7,0,3.1-0.4,4.3-1.1c1.1-0.8,1.9-1.8,2.3-3.1H329v-3.9H340.3z"></path>
</g>
<g>
	<path class="st6" d="M310.9,43.4c0,6.5-4.9,11.4-11.6,11.4h-9.8V69h-2.8V31.9h12.6C306,31.9,310.9,36.8,310.9,43.4z M308.1,43.4   c0-5.1-3.7-8.8-8.8-8.8h-9.8v17.6h9.8C304.4,52.2,308.1,48.5,308.1,43.4z"></path>
	<path class="st6" d="M332.4,53.8h-11.7V69h-2.8V31.9h14.7c6.1,0,11,4.9,11,11c0,5-3.5,9.3-8.2,10.5l9.2,15.6h-3.2L332.4,53.8z    M320.6,51.1h11.9c4.5,0,8.2-3.7,8.2-8.3c0-4.6-3.7-8.3-8.2-8.3h-11.9V51.1z"></path>
	<path class="st6" d="M348.3,50.4c0-10.6,8.5-19.1,19.2-19.1c10.7,0,19.2,8.5,19.2,19.1c0,10.6-8.5,19.1-19.2,19.1   C356.7,69.5,348.3,61,348.3,50.4z M383.8,50.4c0-9.1-7.2-16.4-16.4-16.4c-9.2,0-16.4,7.3-16.4,16.4s7.2,16.4,16.4,16.4   C376.7,66.8,383.8,59.5,383.8,50.4z"></path>
	<path class="st6" d="M391.6,50.4c0-10.6,8-19.1,19.3-19.1c6.9,0,12.9,3.5,15.9,8.9l-2.5,1.4C422,37.1,416.8,34,411,34   c-9.8,0-16.5,7.3-16.5,16.4s6.7,16.4,16.5,16.4c5.9,0,11.1-3.1,13.6-7.8l2.5,1.4c-3,5.5-9.1,9.1-16,9.1   C399.7,69.5,391.6,61,391.6,50.4z"></path>
	<path class="st6" d="M455.1,66.3V69h-21.4V31.9h21.2v2.6h-18.3v14.4h17v2.6h-17v14.7H455.1z"></path>
	<path class="st6" d="M459.8,60.8l2.4-1.4c1.3,4.5,5,7.5,11.2,7.5c6.2,0,9.4-3.2,9.4-7.4c0-4.5-3.9-6.1-9.6-7.9   c-6.2-2-11.8-3.8-11.8-10.2c0-6.1,4.9-10,11.3-10c6.1,0,10.2,3.5,12,7.8l-2.4,1.3c-1.4-3.3-4.3-6.4-9.6-6.4c-5.2,0-8.4,3-8.4,7.2   c0,4.5,3.8,5.8,9.1,7.6c6.6,2.2,12.3,4.2,12.3,10.6c0,6.1-4.8,10.2-12.2,10.2C466.4,69.5,461.5,66,459.8,60.8z"></path>
	<path class="st6" d="M488.9,60.8l2.4-1.4c1.3,4.5,5,7.5,11.2,7.5c6.2,0,9.4-3.2,9.4-7.4c0-4.5-3.9-6.1-9.6-7.9   c-6.2-2-11.8-3.8-11.8-10.2c0-6.1,4.9-10,11.3-10c6.1,0,10.2,3.5,12,7.8l-2.4,1.3c-1.4-3.3-4.3-6.4-9.6-6.4c-5.2,0-8.4,3-8.4,7.2   c0,4.5,3.8,5.8,9.1,7.6c6.6,2.2,12.3,4.2,12.3,10.6c0,6.1-4.8,10.2-12.2,10.2C495.6,69.5,490.6,66,488.9,60.8z"></path>
	<path class="st6" d="M547.7,31.9c3.6,0,6.6,1.2,9,3.6c2.4,2.4,3.7,5.4,3.7,8.8c0,3.5-1.2,6.4-3.7,8.8c-2.4,2.4-5.5,3.6-9,3.6h-6.5   V69h-7.3V31.9H547.7z M547.7,49.9c1.6,0,2.9-0.5,3.9-1.6c1-1.1,1.5-2.4,1.5-4c0-1.6-0.5-3-1.5-4c-1-1.1-2.3-1.6-3.9-1.6h-6.5v11.2   H547.7z"></path>
	<path class="st6" d="M585.6,69L578,56.1h-5.6V69h-7.3V31.9H580c3.4,0,6.4,1.2,8.8,3.6c2.4,2.4,3.6,5.3,3.6,8.7c0,2.3-0.7,4.4-2,6.4   c-1.3,2-3,3.4-5.2,4.4l8.2,14H585.6z M572.5,38.7v11h7.5c1.4,0,2.6-0.5,3.6-1.6c1-1.1,1.5-2.4,1.5-3.9c0-1.5-0.5-2.8-1.5-3.9   c-1-1.1-2.2-1.6-3.6-1.6H572.5z"></path>
	<path class="st6" d="M628.7,64.1c-3.8,3.7-8.3,5.6-13.7,5.6c-5.4,0-9.9-1.9-13.7-5.6c-3.7-3.7-5.6-8.3-5.6-13.7s1.9-10,5.6-13.7   c3.7-3.7,8.3-5.6,13.7-5.6c5.4,0,10,1.9,13.7,5.6c3.8,3.7,5.6,8.3,5.6,13.7S632.4,60.4,628.7,64.1z M606.4,59.1   c2.3,2.3,5.2,3.4,8.6,3.4c3.4,0,6.3-1.1,8.6-3.4c2.3-2.3,3.5-5.2,3.5-8.7c0-3.5-1.2-6.4-3.5-8.7c-2.3-2.3-5.2-3.4-8.6-3.4   c-3.4,0-6.3,1.1-8.6,3.4c-2.3,2.3-3.5,5.2-3.5,8.7C602.9,53.9,604.1,56.9,606.4,59.1z"></path>
	<path class="st6" d="M294.8,101.9c-3.4,0-6.2-1.1-8.4-3.4c-2.2-2.2-3.3-5-3.3-8.3c0-3.3,1.1-6.1,3.3-8.3c2.2-2.2,5-3.3,8.4-3.3   c2,0,3.9,0.5,5.6,1.4c1.7,1,3.1,2.2,4,3.9l-3.8,2.2c-0.6-1-1.4-1.8-2.4-2.4c-1-0.6-2.2-0.8-3.5-0.8c-2.2,0-3.9,0.7-5.3,2.1   c-1.3,1.4-2,3.1-2,5.3c0,2.2,0.7,3.9,2,5.3c1.3,1.4,3.1,2.1,5.3,2.1c1.3,0,2.4-0.3,3.5-0.8c1-0.6,1.8-1.3,2.4-2.3l3.8,2.2   c-1,1.6-2.3,2.9-4,3.9C298.7,101.4,296.8,101.9,294.8,101.9z"></path>
	<path class="st6" d="M342.9,98.5c-2.3,2.3-5,3.4-8.3,3.4c-3.3,0-6-1.1-8.3-3.4c-2.3-2.3-3.4-5-3.4-8.3c0-3.3,1.1-6,3.4-8.3   c2.3-2.3,5-3.4,8.3-3.4c3.3,0,6,1.1,8.3,3.4c2.3,2.3,3.4,5,3.4,8.3C346.3,93.5,345.1,96.2,342.9,98.5z M329.4,95.5   c1.4,1.4,3.1,2.1,5.2,2.1c2.1,0,3.8-0.7,5.2-2.1c1.4-1.4,2.1-3.1,2.1-5.3c0-2.1-0.7-3.9-2.1-5.3c-1.4-1.4-3.1-2.1-5.2-2.1   c-2.1,0-3.8,0.7-5.2,2.1c-1.4,1.4-2.1,3.2-2.1,5.3C327.3,92.3,328,94.1,329.4,95.5z"></path>
	<path class="st6" d="M379.4,79h4.4v22.4h-3.4l-9.6-13.7v13.7h-4.4V79h3.4l9.6,13.7V79z"></path>
	<path class="st6" d="M412.3,101.9c-2.2,0-4.1-0.5-5.6-1.5c-1.5-1-2.6-2.3-3.2-4.1l3.8-2.2c0.9,2.3,2.6,3.4,5.2,3.4   c1.2,0,2.2-0.2,2.7-0.7c0.6-0.4,0.9-1,0.9-1.7c0-0.8-0.4-1.4-1.1-1.8c-0.7-0.4-2-0.9-3.8-1.4c-1-0.3-1.9-0.6-2.6-0.9   c-0.7-0.3-1.4-0.7-2.1-1.2c-0.7-0.5-1.2-1.1-1.6-1.9c-0.4-0.8-0.5-1.7-0.5-2.7c0-2,0.7-3.6,2.2-4.9c1.4-1.2,3.2-1.8,5.2-1.8   c1.8,0,3.4,0.4,4.8,1.3c1.4,0.9,2.5,2.1,3.2,3.7l-3.7,2.1c-0.9-1.9-2.3-2.9-4.3-2.9c-0.9,0-1.6,0.2-2.2,0.6c-0.5,0.4-0.8,1-0.8,1.6   c0,0.7,0.3,1.3,0.9,1.7c0.6,0.4,1.7,0.9,3.4,1.4c0.7,0.2,1.2,0.4,1.6,0.5c0.4,0.1,0.8,0.3,1.4,0.5c0.6,0.2,1.1,0.5,1.4,0.7   c0.3,0.2,0.7,0.5,1.1,0.9c0.4,0.4,0.8,0.7,1,1.1c0.2,0.4,0.4,0.8,0.6,1.4c0.2,0.5,0.2,1.1,0.2,1.8c0,2.1-0.8,3.7-2.3,4.9   C416.7,101.3,414.7,101.9,412.3,101.9z"></path>
	<path class="st6" d="M448.7,101.9c-2.5,0-4.6-0.7-6.2-2.1c-1.6-1.4-2.4-3.3-2.4-5.7V79h4.4v14.7c0,1.2,0.3,2.1,1,2.8   c0.7,0.7,1.7,1,3.2,1c1.4,0,2.5-0.3,3.2-1c0.7-0.7,1-1.6,1-2.8V79h4.4v15.1c0,2.4-0.8,4.3-2.4,5.7   C453.3,101.2,451.3,101.9,448.7,101.9z"></path>
	<path class="st6" d="M482.8,97.2h8.6v4.2h-13V79h4.4V97.2z"></path>
	<path class="st6" d="M523.4,79v4.2h-6.1v18.2h-4.4V83.2h-6V79H523.4z"></path>
	<path class="st6" d="M542.9,79h4.4v22.4h-4.4V79z"></path>
	<path class="st6" d="M581.5,79h4.4v22.4h-3.4l-9.6-13.7v13.7h-4.4V79h3.4l9.6,13.7V79z"></path>
	<path class="st6" d="M629.2,89.4v1.7c0,3.2-1,5.8-3.1,7.8s-4.7,3-8,3c-3.5,0-6.3-1.1-8.6-3.4c-2.3-2.3-3.4-5-3.4-8.3   c0-3.3,1.1-6,3.4-8.3c2.3-2.3,5.1-3.4,8.4-3.4c2.1,0,4,0.5,5.8,1.4c1.7,1,3.1,2.2,4.1,3.8l-3.8,2.2c-0.5-0.9-1.3-1.7-2.4-2.2   c-1.1-0.6-2.3-0.9-3.6-0.9c-2.1,0-3.9,0.7-5.3,2.1c-1.4,1.4-2.1,3.2-2.1,5.3c0,2.1,0.7,3.9,2.1,5.2c1.4,1.4,3.3,2.1,5.6,2.1   c1.7,0,3.1-0.4,4.3-1.1c1.1-0.8,1.9-1.8,2.3-3.1h-6.8v-3.9H629.2z"></path>
</g>
<g>
	<path id="path74_3_" class="st6" d="M801.7-138.8l3.7,31.5H771c1.7-8.9,3.7-19.2,6.6-22.1c1.7-1.7,6.3-5.2,20.4-11.5L801.7-138.8"></path>
	<path id="path76_3_" class="st6" d="M849-107.3h-34.4l3.7-31.5l2.7-2.3c2.9,1.1,19.3,10.1,21.3,11.8   C845.6-126.5,847.3-116.2,849-107.3"></path>
	<path id="path78_3_" class="st7" d="M810-134.5c0,0-11.8,2.9-11.8,3.4c0,0.6,4.6,23.8,4.6,23.8h15.8l1.7-23.5L810-134.5"></path>
	<path id="path80_3_" class="st8" d="M805.2-107.3h-6.3l-6.9-14.1l6.6-4.3l-8-3.7l7.5-11.5l2.9-1.1l0.9-0.3v3.4l1.1,11.5   L805.2-107.3"></path>
	<path id="path82_3_" class="st8" d="M821.2-125.6l6.6,4.3l-6.9,14.1h-6.3l2.3-19.8l1.4-11.8v-3.4h0.6l3.7,1.7l6.6,11.2L821.2-125.6   "></path>
	<path id="path84_3_" class="st8" d="M806.2-130.7l2.1,3.4c1.1,0,2,0,3.2,0l2.1-3.3l-3.6-3.8L806.2-130.7"></path>
	<path id="path86_3_" class="st8" d="M808.3-127.3l-2.9,20.1h8.9l-2.9-20.1H808.3"></path>
	<path id="path88_3_" class="st5" d="M804-143.1l-3.2,0.9l2,14.9l7.2-7.2L804-143.1"></path>
	<path id="path90_3_" class="st5" d="M818.9-142.3l-2.9-0.9l-6,8.6l6.9,7.5L818.9-142.3"></path>
	<path id="path92_3_" class="st9" d="M811.5-127.3h-3.2H811.5"></path>
	<path id="path200_3_" class="st6" d="M801.9-160c4.5,4.1,11.6,3.9,15.8-0.6c4.1-4.5,3.9-11.6-0.6-15.8c-4.5-4.1-11.6-3.9-15.8,0.6   C797.5-171.4,797.7-164.2,801.9-160"></path>
	<path id="path202_3_" class="st6" d="M801.9-160.6c4.5,4.1,11.3,3.9,15.8-0.6c4.4-4.5,3.9-11.3-0.6-15.8   c-4.5-4.4-11.3-3.9-15.8,0.6C797.4-171.9,797.4-164.8,801.9-160.6"></path>
	<path id="path204_3_" class="st10" d="M829.7-168.8c0-0.9-0.1-1.4-0.1-2.3l4.2-1.9c-0.3-1.4-0.7-2.8-1.3-4.3l-4.6,0.5   c-0.6-1.4-1.5-2.8-2.4-3.9l2.7-3.8c-0.9-1.1-2.1-2.2-3.3-3l-3.9,2.7c-1.2-0.8-2.6-1.6-4.1-2.1l0.4-4.6c-1.5-0.5-2.9-0.8-4.3-1   l-1.8,4.4c-0.9,0-1.4-0.2-2.3-0.2c-0.9,0-1.4,0.1-2.3,0.1l-1.9-4.2c-1.4,0.3-2.8,0.7-4.3,1.3l0.5,4.6c-1.4,0.6-2.8,1.5-3.9,2.4   l-3.8-2.7c-1.1,0.9-2.2,2.1-3,3.3l2.7,3.9c-0.8,1.2-1.6,2.6-2.1,4.1l-4.6-0.4c-0.5,1.5-0.8,2.9-1,4.3l4.4,1.8   c0,0.9-0.2,1.4-0.2,2.3c0,0.9,0.1,1.4,0.1,2.3l-4.2,1.9c0.3,1.4,0.7,2.8,1.3,4.3l4.6-0.5c0.6,1.4,1.5,2.8,2.4,3.9l-2.7,3.8   c0.9,1.1,2.1,2.2,3.3,3l3.9-2.7c1.2,0.8,2.6,1.6,4.1,2.1l-0.4,4.6c1.5,0.5,2.9,0.8,4.3,1l1.8-4.4c0.9,0,1.4,0.2,2.3,0.2   c0.9,0,1.4-0.1,2.3-0.1l1.9,4.2c1.4-0.3,2.8-0.7,4.3-1.3l-0.5-4.6c1.4-0.6,2.8-1.5,3.9-2.4l3.8,2.7c1.1-0.9,2.2-2.1,3-3.3l-2.7-3.9   c0.8-1.2,1.6-2.6,2.1-4.1l4.6,0.4c0.5-1.5,0.8-2.9,1-4.3l-4.4-1.9C829.8-167.1,829.7-167.9,829.7-168.8"></path>
	<g id="g206_3_">
		<g>
			<defs>
				<path id="SVGID_13_" d="M808.8-183.8c8.4-0.3,15.4,6.2,15.7,14.6c0.3,8.4-6.2,15.4-14.6,15.7c-8.4,0.3-15.4-6.2-15.7-14.6      S800.4-183.5,808.8-183.8z"></path>
			</defs>
			<clipPath id="SVGID_14_">
				<use xlink:href="#SVGID_13_" style="overflow:visible;"></use>
			</clipPath>
			<g id="g208_3_" class="st23">
				
					<linearGradient id="path220_7_" gradientUnits="userSpaceOnUse" x1="-133.8635" y1="5.3972" x2="-133.3808" y2="5.3972" gradientTransform="matrix(-0.4747 -49.5476 49.5476 -0.4747 478.3245 -6801.7759)">
					<stop offset="0" style="stop-color:#172944"></stop>
					<stop offset="1" style="stop-color:#172B46"></stop>
				</linearGradient>
				<path id="path220_3_" class="st24" d="M808.8-183.8c8.4-0.3,15.4,6.2,15.7,14.6c0.3,8.4-6.2,15.4-14.6,15.7      c-8.4,0.3-15.4-6.2-15.7-14.6S800.4-183.5,808.8-183.8"></path>
			</g>
		</g>
	</g>
	<path id="path222_3_" class="st10" d="M809-176.9c4.6-0.2,8.4,3.4,8.6,8c0.2,4.6-3.4,8.4-8,8.6c-4.6,0.2-8.4-3.4-8.6-8   C800.8-172.9,804.4-176.8,809-176.9"></path>
	<g id="g224_3_">
		<g>
			<defs>
				<path id="SVGID_15_" d="M809.2-172.4c2.1-0.1,3.8,1.5,3.9,3.6c0.1,2.1-1.5,3.8-3.6,3.9c-2.1,0.1-3.8-1.5-3.9-3.6      C805.5-170.6,807.1-172.3,809.2-172.4z"></path>
			</defs>
			<clipPath id="SVGID_16_">
				<use xlink:href="#SVGID_15_" style="overflow:visible;"></use>
			</clipPath>
			<g id="g226_3_" class="st25">
				
					<linearGradient id="path238_7_" gradientUnits="userSpaceOnUse" x1="-142.0556" y1="21.0157" x2="-141.5729" y2="21.0157" gradientTransform="matrix(-0.2023 -21.1133 21.1133 -0.2023 336.8803 -3162.7874)">
					<stop offset="0" style="stop-color:#172944"></stop>
					<stop offset="1" style="stop-color:#172B46"></stop>
				</linearGradient>
				<path id="path238_3_" class="st26" d="M809.2-172.4c2.1-0.1,3.8,1.5,3.9,3.6c0.1,2.1-1.5,3.8-3.6,3.9c-2.1,0.1-3.8-1.5-3.9-3.6      C805.5-170.6,807.1-172.3,809.2-172.4"></path>
			</g>
		</g>
	</g>
	<path id="path244_3_" class="st10" d="M809.3-165.7L809.3-165.7c-1.6,0-2.9-1.3-2.9-2.9l0,0c0-1.6,1.3-2.9,2.9-2.9l0,0   c1.6,0,2.9,1.3,2.9,2.9l0,0C812.3-167,810.9-165.7,809.3-165.7"></path>
</g>
<g>
	<path class="st6" d="M421.5-177.2c0,8.3-6.2,14.6-14.7,14.6h-12.5v18h-3.6v-47.3h16.1C415.3-191.9,421.5-185.6,421.5-177.2z    M417.9-177.2c0-6.5-4.7-11.3-11.1-11.3h-12.5v22.5h12.5C413.3-166,417.9-170.8,417.9-177.2z"></path>
	<path class="st6" d="M448.8-164h-14.9v19.4h-3.6v-47.3H449c7.7,0,14,6.3,14,14c0,6.4-4.4,11.8-10.4,13.4l11.7,19.8h-4.1L448.8-164z    M433.9-167.4H449c5.7,0,10.4-4.7,10.4-10.5c0-5.9-4.7-10.6-10.4-10.6h-15.1V-167.4z"></path>
	<path class="st6" d="M469-168.3c0-13.5,10.7-24.4,24.4-24.4c13.6,0,24.4,10.9,24.4,24.4c0,13.5-10.7,24.4-24.4,24.4   C479.7-143.9,469-154.8,469-168.3z M514.2-168.3c0-11.6-9.1-20.9-20.8-20.9c-11.7,0-20.8,9.3-20.8,20.9c0,11.6,9.1,20.9,20.8,20.9   C505.1-147.3,514.2-156.6,514.2-168.3z"></path>
	<path class="st6" d="M524.1-168.3c0-13.5,10.2-24.4,24.6-24.4c8.7,0,16.3,4.5,20.3,11.3l-3.2,1.8c-3.1-5.8-9.7-9.7-17.1-9.7   c-12.4,0-21,9.3-21,20.9c0,11.6,8.6,20.9,21,20.9c7.5,0,14.1-4,17.2-9.9l3.2,1.8c-3.8,7-11.5,11.5-20.4,11.5   C534.3-143.9,524.1-154.8,524.1-168.3z"></path>
	<path class="st6" d="M604.7-148v3.4h-27.2v-47.3h26.9v3.4h-23.3v18.4h21.6v3.4h-21.6v18.8H604.7z"></path>
	<path class="st6" d="M610.7-155l3.1-1.8c1.6,5.7,6.4,9.5,14.2,9.5c7.9,0,11.9-4.1,11.9-9.5c0-5.7-5-7.8-12.2-10.1   c-7.9-2.6-15-4.8-15-13c0-7.8,6.3-12.7,14.3-12.7c7.8,0,12.9,4.5,15.2,9.9l-3,1.7c-1.8-4.3-5.4-8.2-12.2-8.2   c-6.5,0-10.7,3.8-10.7,9.1c0,5.7,4.8,7.4,11.5,9.7c8.4,2.8,15.7,5.4,15.7,13.6c0,7.8-6.1,13-15.5,13   C619.1-143.9,612.8-148.3,610.7-155z"></path>
	<path class="st6" d="M647.7-155l3.1-1.8c1.6,5.7,6.4,9.5,14.2,9.5c7.9,0,11.9-4.1,11.9-9.5c0-5.7-5-7.8-12.2-10.1   c-7.9-2.6-15-4.8-15-13c0-7.8,6.3-12.7,14.3-12.7c7.8,0,12.9,4.5,15.2,9.9l-3,1.7c-1.8-4.3-5.4-8.2-12.2-8.2   c-6.5,0-10.7,3.8-10.7,9.1c0,5.7,4.8,7.4,11.5,9.7c8.4,2.8,15.7,5.4,15.7,13.6c0,7.8-6.1,13-15.5,13   C656.2-143.9,649.9-148.3,647.7-155z"></path>
	<path class="st6" d="M722.3-191.9c4.5,0,8.4,1.5,11.5,4.6c3.1,3.1,4.7,6.8,4.7,11.3c0,4.5-1.6,8.2-4.7,11.3   c-3.1,3.1-6.9,4.6-11.5,4.6H714v15.5h-9.3v-47.3H722.3z M722.3-168.9c2,0,3.6-0.7,4.9-2.1c1.3-1.4,2-3.1,2-5.1c0-2.1-0.7-3.8-2-5.1   c-1.3-1.4-2.9-2-4.9-2H714v14.3H722.3z"></path>
	<path class="st6" d="M770.4-144.6l-9.6-16.4h-7.1v16.4h-9.3v-47.3h18.9c4.4,0,8.1,1.5,11.1,4.6c3.1,3.1,4.6,6.8,4.6,11.1   c0,2.9-0.8,5.6-2.5,8.1c-1.7,2.5-3.9,4.4-6.6,5.6l10.5,17.8H770.4z M753.8-183.2v14h9.6c1.8,0,3.3-0.7,4.5-2.1c1.3-1.4,1.9-3,1.9-5   c0-1.9-0.6-3.6-1.9-4.9c-1.3-1.4-2.8-2-4.5-2H753.8z"></path>
	<path class="st6" d="M386.5-120.2c0-7.2,5.5-13.1,13.2-13.1c4.7,0,8.7,2.4,10.8,6.1l-1.7,1c-1.7-3.1-5.2-5.2-9.1-5.2   c-6.7,0-11.2,5-11.2,11.2c0,6.2,4.6,11.2,11.2,11.2c4,0,7.6-2.1,9.2-5.3l1.7,1c-2.1,3.7-6.2,6.2-10.9,6.2   C392-107.2,386.5-113,386.5-120.2z"></path>
	<path class="st6" d="M431-120.2c0-7.2,5.7-13.1,13.1-13.1s13.1,5.8,13.1,13.1c0,7.2-5.7,13.1-13.1,13.1S431-113,431-120.2z    M455.1-120.2c0-6.2-4.9-11.2-11.1-11.2s-11.1,5-11.1,11.2c0,6.2,4.9,11.2,11.1,11.2S455.1-114,455.1-120.2z"></path>
	<path class="st6" d="M497.7-132.9v25.3H496l-14.9-21.8v21.8h-1.9v-25.3h1.7l15,21.8v-21.8H497.7z"></path>
	<path class="st6" d="M519.4-113.1l1.7-1c0.9,3,3.4,5.1,7.6,5.1c4.2,0,6.4-2.2,6.4-5.1c0-3-2.7-4.2-6.5-5.4c-4.2-1.4-8-2.6-8-7   c0-4.2,3.4-6.8,7.7-6.8c4.2,0,6.9,2.4,8.1,5.3l-1.6,0.9c-0.9-2.3-2.9-4.4-6.5-4.4c-3.5,0-5.7,2.1-5.7,4.9c0,3,2.6,4,6.2,5.2   c4.5,1.5,8.4,2.9,8.4,7.3c0,4.2-3.3,6.9-8.3,6.9C523.9-107.2,520.6-109.6,519.4-113.1z"></path>
	<path class="st6" d="M558.6-116v-16.8h1.9v16.8c0,4.1,2.6,7,7.3,7c4.8,0,7.4-2.9,7.4-7v-16.8h1.9v16.8c0,5.4-3.7,8.9-9.3,8.9   C562.3-107.2,558.6-110.7,558.6-116z"></path>
	<path class="st6" d="M614.2-109.4v1.8h-13.8v-25.3h1.9v23.5H614.2z"></path>
	<path class="st6" d="M648.5-131.1h-8v23.5h-2v-23.5h-8v-1.8h17.9V-131.1z"></path>
	<path class="st6" d="M671.7-132.9v25.3h-1.9v-25.3H671.7z"></path>
	<path class="st6" d="M713.8-132.9v25.3h-1.7l-14.9-21.8v21.8h-1.9v-25.3h1.7l15,21.8v-21.8H713.8z"></path>
	<path class="st6" d="M761.4-118.4c0,6.1-4.7,11.2-12.2,11.2c-7.8,0-13.3-5.8-13.3-13.1c0-7.2,5.5-13.1,13.2-13.1   c4.7,0,8.8,2.5,10.9,6.1l-1.7,1c-1.7-3.2-5.2-5.3-9.2-5.3c-6.7,0-11.2,5-11.2,11.2c0,6.2,4.6,11.2,11.4,11.2   c6.1,0,9.9-3.8,10.3-8.5h-10.7v-1.8h12.7V-118.4z"></path>
</g>
</svg>