<?xml version="1.0" encoding="UTF-8"?>
<svg width="39px" height="49px" viewBox="0 0 39 49" version="1.1" xmlns="http://www.w3.org/2000/svg" xmlns:xlink="http://www.w3.org/1999/xlink">
    <!-- Generator: Sketch 63.1 (92452) - https://sketch.com -->
    <title>build-or-buy</title>
    <desc>Created with Sketch.</desc>
    <g id="Billing-System-Software" stroke="none" stroke-width="1" fill="none" fill-rule="evenodd">
        <g id="BSS---01-Copy-5" transform="translate(-800.000000, -1492.000000)" fill-rule="nonzero">
            <g id="Group-21" transform="translate(728.000000, 1449.000000)">
                <g id="Group-14" transform="translate(72.000000, 42.000000)">
                    <g id="build-or-buy" transform="translate(0.000000, 1.000000)">
                        <rect id="Rectangle" fill="#9F97D5" x="5" y="5" width="34" height="44" rx="1.64"></rect>
                        <rect id="Rectangle-Copy-2" fill="#EAE7FF" x="3" y="2" width="34" height="44" rx="1.64"></rect>
                        <path d="M13.0902483,16 L28.9097517,16 C29.5118792,16 30,15.4480223 30,14.7671233 L30,8.23287671 C30,7.55197771 29.5118792,7 28.9097517,7 L13.0902483,7 C12.4881208,7 12,7.55197771 12,8.23287671 L12,14.7671233 C12,15.4480223 12.4881208,16 13.0902483,16 Z M14.1804967,9.51506849 L27.7976984,9.51506849 L27.7976984,13.4726027 L14.2132041,13.4726027 L14.1804967,9.51506849 Z" id="Shape" fill="#28145A"></path>
                        <path d="M13.0902483,23 L28.9097517,23 C29.5118792,23 30,22.1045695 30,21 C30,19.8954305 29.5118792,19 28.9097517,19 L13.0902483,19 C12.4881208,19 12,19.8954305 12,21 C12,22.1045695 12.4881208,23 13.0902483,23 Z" id="Path" fill="#28145A"></path>
                        <path d="M28.8858696,26 L13.1141304,26 C12.4988132,26 12,26.8954305 12,28 C12,29.1045695 12.4988132,30 13.1141304,30 L28.8858696,30 C29.5011868,30 30,29.1045695 30,28 C30,26.8954305 29.5011868,26 28.8858696,26 Z" id="Path" fill="#28145A"></path>
                        <path d="M33.9316239,0 L1.06837607,0 C0.478328259,0 0,0.48288163 0,1.07854631 L0,44.9214537 C0,45.5171184 0.478328259,46 1.06837607,46 L33.9316239,46 C34.2149749,46 34.4867205,45.8863678 34.6870799,45.6841011 C34.8874393,45.4818344 35,45.207502 35,44.9214537 L35,1.07854631 C35,0.792498041 34.8874393,0.518165568 34.6870799,0.3158989 C34.4867205,0.113632231 34.2149749,0 33.9316239,0 Z M32.8632479,43.8213365 L8.75,43.8213365 L8.75,2.21101993 L32.8418803,2.21101993 L32.8632479,43.8213365 Z" id="Shape" fill="#28145A"></path>
                    </g>
                </g>
            </g>
        </g>
    </g>
</svg>