<?xml version="1.0" encoding="UTF-8"?>
<svg width="615px" height="122px" viewBox="0 0 615 122" version="1.1" xmlns="http://www.w3.org/2000/svg" xmlns:xlink="http://www.w3.org/1999/xlink">
    <!-- Generator: Sketch 62 (91390) - https://sketch.com -->
    <title>Group 54</title>
    <desc>Created with Sketch.</desc>
    <g id="Page-1" stroke="none" stroke-width="1" fill="none" fill-rule="evenodd">
        <g id="recurring-3-copy" transform="translate(-412.000000, -5295.000000)">
            <g id="Group-54" transform="translate(412.000000, 5295.000000)">
                <g id="Group-53">
                    <g id="avalara" transform="translate(271.024328, 11.715749)" fill="#000000">
                        <path d="M9.44911025,15.1959375 C9.44911025,15.1959375 8.46828155,13.994077 7.88807303,13.344796 L7.0730182,15.26501 C8.24724973,17.0056355 9.0208611,18.5114148 9.44911025,19.2297682 C10.2779796,17.8206904 12.3087094,13.6487148 16.4944995,9.73921451 L16.0248068,8.6478699 C13.3033526,10.6647852 10.9825185,13.2342801 9.44911025,15.1959375" id="Path" fill-rule="nonzero"></path>
                        <path d="M51.3898978,15.5965577 C51.3898978,16.7155313 52.0391788,17.2957398 53.0752654,17.4615137 L53.0752654,20.1829679 C49.98082,20.1415245 48.3368958,18.6495597 48.3368958,15.8175895 L48.3368958,0 L51.3898978,0 L51.3898978,15.5965577 Z" id="Path"></path>
                        <path d="M60.977153,5.88497217 C57.1505396,5.88497217 54.1251666,9.0208611 54.1251666,12.9856193 C54.1251666,16.9503776 57.0538382,20.0862665 60.7146777,20.0862665 C62.5796336,20.0862665 64.0715984,19.3817276 64.9557257,18.3594554 L65.1214996,18.4147134 L65.1214996,19.8099767 L68.188316,19.8099767 L68.188316,6.16126194 L65.1214996,6.16126194 L65.1214996,7.11446166 L64.9833547,7.16971962 C64.0577839,6.40992274 62.8006655,5.88497217 60.977153,5.88497217 M61.3501442,17.5305861 C59.056939,17.5305861 57.1643541,15.5412997 57.1643541,12.9994338 C57.1643541,10.4299389 59.056939,8.46828155 61.3501442,8.46828155 C62.8559234,8.46828155 64.1682998,8.91034519 65.0938706,9.61488411 L65.0938706,15.4584128 C64.3064447,16.9503776 62.8835524,17.5305861 61.3501442,17.5305861" id="Shape"></path>
                        <path d="M70.7163675,19.8514202 L73.7693695,19.8514202 L73.7693695,10.2917941 C74.7225692,9.31096536 76.0625746,8.67549888 77.6236118,8.67549888 L78.2728928,8.67549888 L78.2728928,5.88497217 L77.8860871,5.88497217 C76.214534,5.88497217 74.8192706,6.67239802 73.9213288,7.76374263 L73.755555,7.70848467 L73.755555,6.16126194 L70.702553,6.16126194 L70.702553,19.8514202 L70.7163675,19.8514202 Z" id="Path"></path>
                        <path d="M38.6391248,5.88497217 C34.8125114,5.88497217 31.7733239,9.03467559 31.7733239,12.9856193 C31.7733239,16.9503776 34.7019955,20.0862665 38.362835,20.0862665 C40.2139765,20.0862665 41.7197558,19.3817276 42.603883,18.3594554 L42.7696569,18.4147134 L42.7696569,19.8099767 L45.8364734,19.8099767 L45.8364734,6.16126194 L42.7696569,6.16126194 L42.7696569,7.11446166 L42.631512,7.16971962 C41.7197558,6.40992274 40.4626373,5.88497217 38.6391248,5.88497217 M39.012116,17.5305861 C36.7189109,17.5305861 34.8263259,15.5412997 34.8263259,12.9994338 C34.8263259,10.4299389 36.7050964,8.46828155 39.012116,8.46828155 C40.5178953,8.46828155 41.8302717,8.91034519 42.7558424,9.61488411 L42.7558424,15.4584128 C41.9684166,16.9503776 40.5455242,17.5305861 39.012116,17.5305861" id="Shape"></path>
                        <path d="M85.7189022,5.88497217 C81.8922888,5.88497217 78.8669158,9.0208611 78.8669158,12.9856193 C78.8669158,16.9503776 81.7955874,20.0862665 85.4564269,20.0862665 C87.3075684,20.0862665 88.8133476,19.3817276 89.6974749,18.3594554 L89.8632488,18.4147134 L89.8632488,19.8099767 L92.9300652,19.8099767 L92.9300652,6.16126194 L89.8632488,6.16126194 L89.8632488,7.11446166 L89.7251039,7.16971962 C88.7995331,6.40992274 87.5424147,5.88497217 85.7189022,5.88497217 M86.0918934,17.5305861 C83.7986882,17.5305861 81.9199178,15.5412997 81.9199178,12.9994338 C81.9199178,10.4299389 83.7986882,8.46828155 86.0918934,8.46828155 C87.5976726,8.46828155 88.910049,8.91034519 89.8356198,9.61488411 L89.8356198,15.4584128 C89.0481939,16.9503776 87.6253016,17.5305861 86.0918934,17.5305861" id="Shape"></path>
                        <path d="M15.5551142,19.7961623 L18.884406,19.7961623 L15.9557344,12.778402 C15.0992361,13.6901583 14.3670682,14.5881 13.7177872,15.4445983 L15.5551142,19.7961623 Z" id="Path" fill-rule="nonzero"></path>
                        <polygon id="Path" fill-rule="nonzero" points="28.7893944 6.17507643 24.5207174 16.1629517 24.4792739 16.1629517 24.4516449 16.1629517 24.4378304 16.1629517 24.424016 16.1629517 24.4102015 16.1629517 24.3825725 16.1629517 24.3549435 16.1629517 20.0862665 6.17507643 16.7846037 6.17507643 22.8767932 19.7961623 22.8767932 19.7961623 22.9182367 19.7961623 25.9574242 19.7961623 25.9850532 19.7961623 25.9850532 19.7961623 32.0772427 6.17507643"></polygon>
                        <path d="M10.8996316,0.732167899 L10.8858171,0.732167899 L7.98477445,0.732167899 L7.97095996,0.732167899 L0,19.7961623 L3.32929177,19.7961623 L9.08993354,6.20270541 L9.36622331,5.47053751 L9.51818269,5.47053751 L9.79447246,6.20270541 L11.5074691,10.2365361 C12.2672659,9.47673922 13.0961353,8.73075684 13.966448,8.02621791 L10.8996316,0.732167899 Z" id="Path" fill-rule="nonzero"></path>
                    </g>
                    <g id="_brand_assets_images_logos_zapier-logo-monochrome" transform="translate(403.802817, 4.686300)" fill="#000000" fill-rule="nonzero">
                        <path d="M0,24.5987755 L7.0620557,13.6130524 L0.836848962,13.6130524 C0.78473349,13.2992681 0.758675754,12.9508311 0.758675754,12.5670594 C0.758675754,12.2010232 0.785006346,11.8606355 0.837258246,11.5465784 L10.9070042,11.5465784 L11.0379751,11.887239 L3.92366745,22.8986106 L10.5930836,22.8986106 C10.6453355,23.2474568 10.671666,23.6046251 10.671666,23.9706613 C10.671666,24.3199168 10.6454719,24.6510274 10.59322,24.9648117 L0.130970819,24.9648117 L0,24.5985026 M20.3749666,18.660886 C20.1134342,18.6263697 19.7820508,18.5918535 19.3810891,18.5565186 C18.9799909,18.5220024 18.6398761,18.5042667 18.3612903,18.5042667 C17.2799624,18.5042667 16.4560741,18.7048158 15.8897618,19.1059139 C15.3226308,19.5072849 15.0398157,20.1172542 15.0398157,20.9367768 C15.0398157,21.4598415 15.1353153,21.8696711 15.3272694,22.1659925 C15.5188142,22.4628597 15.7587909,22.6890572 16.0465175,22.8460858 C16.3343804,23.0029779 16.6522575,23.0990232 17.0009673,23.1339488 C17.3495407,23.1687379 17.6810606,23.1860642 17.9948448,23.1860642 C18.3959429,23.1860642 18.8100017,23.1642358 19.237294,23.1205788 C19.6643135,23.0773312 20.0435831,23.0117093 20.375103,22.9245319 L20.375103,18.660886 L20.3749666,18.660886 Z M20.3749666,16.1241449 C20.3749666,15.095069 20.1134342,14.3801866 19.590506,13.9790885 C19.0671684,13.5779904 18.3087655,13.3774413 17.314888,13.3774413 C16.7041001,13.3774413 16.133422,13.4257368 15.6017624,13.5215092 C15.0756416,13.6159366 14.5557898,13.7424597 14.0451196,13.9003696 C13.7135997,13.325053 13.5485219,12.636774 13.5485219,11.8341685 C14.1406192,11.6426237 14.7945183,11.4944629 15.50981,11.3898227 C16.2246923,11.285046 16.9132441,11.2326577 17.5761475,11.2326577 C19.3196965,11.2326577 20.6448211,11.629663 21.5516575,12.4229915 C22.4580848,13.2170021 22.9118441,14.4853726 22.9118441,16.2287852 L22.9118441,24.6248332 C22.3011926,24.7642626 21.5603889,24.9080576 20.6886144,25.0563548 C19.8071456,25.2051977 18.9147129,25.2795861 18.0207661,25.2787396 C17.1664544,25.2787396 16.3945451,25.2004227 15.7061298,25.0433941 C15.0171687,24.8860927 14.4329842,24.6338375 13.9535765,24.284582 C13.4737594,23.936145 13.1036304,23.4913899 12.8419617,22.9509989 C12.5804293,22.4104714 12.4495949,21.7567087 12.4495949,20.9891652 C12.4495949,20.2397665 12.6021213,19.5815017 12.9073106,19.0143708 C13.2071529,18.4541905 13.6323589,17.9708555 14.1497599,17.6020688 C14.6728246,17.2277105 15.2743353,16.9483061 15.9544286,16.7654927 C16.6346583,16.58227 17.3492678,16.4905904 18.0990758,16.4905904 C18.657066,16.4905904 19.1147817,16.5039603 19.4723594,16.5301545 C19.8298006,16.5560758 20.1306242,16.5866357 20.3748302,16.6215612 L20.3748302,16.1245542 L20.3749666,16.1241449 Z M28.3259867,22.7672305 C28.656183,22.889208 28.998052,22.9768925 29.3461948,23.0288992 C29.6949046,23.081424 30.1478454,23.1074817 30.7063814,23.1074817 C31.3339499,23.1074817 31.90913,23.0074801 32.4321948,22.806931 C32.9555323,22.6067912 33.4043802,22.2969634 33.7792842,21.878266 C34.1541882,21.459978 34.4505096,20.9328204 34.6685215,20.295702 C34.8863969,19.6596749 34.9956757,18.9057741 34.9956757,18.0334539 C34.9956757,16.6386147 34.7380997,15.5313656 34.2240393,14.7117065 C33.7092967,13.8923203 32.8679456,13.4824908 31.7001224,13.4824908 C31.2642352,13.4824908 30.8454014,13.5608005 30.4449854,13.7179654 C30.0433416,13.8748576 29.6861733,14.1103322 29.3722526,14.4241164 C29.0584683,14.7379007 28.8056674,15.134906 28.6139861,15.6143138 C28.4216227,16.0942672 28.3261232,16.6648089 28.3261232,17.3275758 L28.3261232,22.7676397 L28.3259867,22.7672305 Z M25.7365845,11.546442 C25.9139127,11.5115617 26.0928496,11.4854269 26.2727463,11.4681323 C26.4597406,11.4507779 26.6474408,11.4421281 26.8352387,11.442211 C27.0091843,11.442211 27.1921341,11.4510788 27.3843611,11.4681323 C27.5759059,11.485868 27.7589922,11.5120621 27.93362,11.546442 C27.9508099,11.5819132 27.9729112,11.6903734 27.9991054,11.8735962 C28.0250267,12.0568189 28.0512209,12.2528658 28.0775515,12.4618734 C28.1037456,12.6712903 28.1298034,12.8722487 28.1559975,13.0635206 C28.1821917,13.2556112 28.1952888,13.3777142 28.1952888,13.4299661 C28.3692344,13.1511074 28.5786513,12.8805708 28.8228573,12.6190384 C29.0670633,12.3573696 29.3594283,12.1220314 29.6994068,11.9130238 C30.0393852,11.703607 30.4227477,11.5381199 30.8501764,11.4158804 C31.2771958,11.2939139 31.7523743,11.2323849 32.2755755,11.2323849 C33.0600361,11.2323849 33.788152,11.3633557 34.4597867,11.6250245 C35.1307393,11.8866932 35.7057831,12.2916114 36.1856001,12.8410067 C36.6648715,13.390402 37.039639,14.087958 37.3101756,14.9334019 C37.5803029,15.7796644 37.7153666,16.7776348 37.7153666,17.9284044 C37.7153666,20.2299437 37.0918909,22.0307925 35.8452124,23.3295864 C34.5982611,24.6287896 32.8331565,25.2780502 30.54908,25.2780502 C30.1651717,25.2780502 29.7730778,25.251856 29.3719797,25.1996041 C28.9706087,25.146943 28.6221718,25.0770918 28.3255774,24.9903237 L28.3255774,31.1369479 C28.1046407,31.172835 27.8822291,31.1989636 27.6589905,31.2152576 C27.4233795,31.2323111 27.2095969,31.2411789 27.0177792,31.2411789 C26.8039815,31.2402584 26.5902869,31.2316123 26.3771137,31.2152576 C26.1623157,31.2000462 25.9484359,31.1738633 25.7363116,31.1368115 L25.7363116,11.5457598 L25.7365845,11.546442 Z M40.932883,13.5868582 L39.2325817,13.5868582 C39.1976561,13.4477017 39.1715984,13.2863074 39.154272,13.1030847 C39.1196476,12.746482 39.1196476,12.3873638 39.154272,12.0307611 C39.1715984,11.8479477 39.1976561,11.6866899 39.2325817,11.5467148 L43.4700334,11.5467148 L43.4700334,24.9648117 C43.2579006,25.0017462 43.0440221,25.0278378 42.8292314,25.0429849 C42.6158762,25.0593457 42.4019996,25.0679917 42.1880201,25.0689062 C41.9830434,25.0676007 41.7781793,25.0589547 41.5738215,25.0429849 C41.3590685,25.027776 41.145234,25.0015931 40.9331559,24.9645388 L40.9331559,13.5864489 M55.684563,16.9611303 C55.684563,16.4727183 55.6190775,16.0064076 55.4886524,15.5613797 C55.3576816,15.1170339 55.1653182,14.7291693 54.9131994,14.3976494 C54.6598527,14.0666752 54.3374735,13.8005043 53.9451068,13.6000917 C53.5528764,13.3995426 53.0862929,13.2991317 52.5457654,13.2991317 C51.4821732,13.2991317 50.6668799,13.622193 50.1002947,14.2670879 C49.533573,14.9121192 49.1893653,15.8100878 49.0671259,16.9611303 L55.6846994,16.9611303 L55.684563,16.9611303 Z M49.0410682,18.896497 C49.0759937,20.3611874 49.4552634,21.4337838 50.1788772,22.1134678 C50.9022181,22.7934246 51.9704488,23.1339488 53.3828872,23.1339488 C54.6206979,23.1339488 55.7976617,22.9156641 56.9136422,22.4797768 C57.0530716,22.7413091 57.1663068,23.0595955 57.2536207,23.4344995 C57.3392821,23.7995117 57.3917929,24.1715164 57.4105128,24.5459779 C56.8353326,24.7907296 56.2027163,24.9729973 55.5144373,25.0953732 C54.8252034,25.2170669 54.0624348,25.2784595 53.2259951,25.2784595 C52.0052379,25.2784595 50.9588357,25.1081974 50.087334,24.768219 C49.2152866,24.4279677 48.4960386,23.9482871 47.9293169,23.3297228 C47.3627317,22.7108857 46.9484,21.9784041 46.6868677,21.1325509 C46.4254718,20.287107 46.2943645,19.358442 46.2943645,18.3471017 C46.2943645,17.3532242 46.4205604,16.4245593 46.6736342,15.5612433 C46.9260259,14.6986094 47.3148455,13.9486651 47.8373645,13.3122288 C48.3605656,12.6755196 49.0185576,12.1700541 49.8121589,11.7951501 C50.6052145,11.4202461 51.5423379,11.2325213 52.6239386,11.2325213 C53.547965,11.2325213 54.3587563,11.3896863 55.0564487,11.7034705 C55.7535955,12.0172548 56.3379163,12.4489128 56.8088656,12.9981716 C57.279542,13.5475669 57.6367103,14.201466 57.8811892,14.9595961 C58.1249859,15.7184083 58.2474982,16.5421601 58.2474982,17.4316703 C58.2474982,17.6758763 58.2382211,17.9329065 58.2208947,18.2030338 C58.2065324,18.434272 58.1891136,18.6653102 58.1686428,18.8960878 L49.0405225,18.8960878 L49.0410682,18.896497 Z M61.0999335,11.5465784 C61.2819628,11.513534 61.465181,11.487412 61.6491923,11.4682688 C61.823138,11.4512153 62.0066335,11.4423475 62.1984512,11.4423475 C62.3902689,11.4423475 62.5818137,11.4512153 62.7739042,11.4682688 C62.9655855,11.4860044 63.1400768,11.5121986 63.2971054,11.5465784 C63.3492209,11.8082472 63.4014728,12.1530006 63.4535882,12.5797472 C63.5058401,13.0071759 63.5324436,13.3687099 63.5324436,13.6653043 C63.8984797,13.0726613 64.3823896,12.5579187 64.983764,12.121895 C65.5854112,11.6862806 66.3569111,11.4679959 67.2984003,11.4679959 C67.4378297,11.4679959 67.5816247,11.4726345 67.7299219,11.4813658 C67.8569126,11.4880169 67.9834929,11.5009936 68.1091916,11.5202478 C68.1437078,11.6774128 68.1703113,11.8433092 68.1876376,12.0173912 C68.2048275,12.1916097 68.2135589,12.3748324 68.2135589,12.5665137 C68.2135589,12.7759305 68.2005983,12.9940788 68.1745405,13.2202763 C68.1493861,13.4389073 68.1189082,13.6568929 68.0831338,13.874039 C67.9418401,13.8392511 67.7968527,13.821706 67.6513394,13.8217871 L67.297991,13.8217871 C66.8273147,13.8217871 66.3781939,13.8872725 65.951038,14.017834 C65.5234729,14.1488049 65.1401104,14.3799138 64.800132,14.710888 C64.4604264,15.0424078 64.1898898,15.4958943 63.98975,16.0713473 C63.7887917,16.6468004 63.68879,17.3878769 63.68879,18.2944406 L63.68879,24.9644024 C63.4766156,25.0013952 63.2626911,25.0275325 63.0478515,25.042712 C62.8127862,25.0600384 62.5990036,25.0686333 62.4073224,25.0686333 C62.2152318,25.0686333 62.0021314,25.0600384 61.7663839,25.042712 C61.5429642,25.0264195 61.3203708,25.000291 61.0992513,24.9644024 L61.0992513,11.5467148 M42.7428725,4.38206532 C42.7428984,4.6951276 42.6863738,5.00562013 42.5760211,5.29858819 C42.282955,5.40894449 41.9723807,5.46551339 41.6592254,5.46557599 L41.6554054,5.46557599 C41.3422579,5.46557599 41.0316828,5.40904014 40.7386097,5.29872462 C40.628123,5.00569464 40.5715498,4.69509635 40.5716218,4.38192889 L40.5716218,4.37783605 C40.5716218,4.05532041 40.6308316,3.74617471 40.738064,3.46131317 C41.031166,3.35074473 41.3418688,3.29416928 41.6551325,3.29432506 L41.6586797,3.29432506 C41.9814682,3.29432506 42.290341,3.35353511 42.5754754,3.46117675 C42.6859503,3.7542057 42.7424785,4.06481013 42.7423268,4.37797248 L42.7423268,4.38206532 L42.7428725,4.38206532 Z M45.9388333,3.6562687 L43.404548,3.6562687 L45.1963925,1.86428775 C45.055745,1.66670248 44.8988542,1.48119894 44.7273532,1.30970819 C44.5558437,1.13836344 44.3703911,0.981568385 44.1729101,0.8409418 L42.3807927,2.63305917 L42.3807927,0.098637398 C42.1424955,0.0585529576 41.9012797,0.0383375583 41.6596347,0.0381998222 L41.6549961,0.0381998222 C41.409153,0.0381998222 41.1683577,0.0592097244 40.9337016,0.098637398 L40.9337016,2.63305917 L39.141175,0.8409418 C38.9437682,0.981445258 38.758487,1.13824974 38.5872775,1.30970819 L38.586459,1.31052676 C38.4152568,1.48185803 38.258598,1.66712884 38.1181019,1.86442418 L39.9106285,3.6562687 L37.3757975,3.6562687 C37.3757975,3.6562687 37.3154963,4.13240219 37.3154963,4.37851819 L37.3154963,4.38151961 C37.3154963,4.6276356 37.3363698,4.86884019 37.3759339,5.10363267 L39.9107649,5.10363267 L38.1179654,6.89547719 C38.3999392,7.29113892 38.7458849,7.6370385 39.1415842,7.91895957 L40.933838,6.12697862 L40.933838,8.66153683 C41.1682212,8.70082807 41.4086073,8.72156512 41.6541775,8.72183798 L41.6603168,8.72183798 C41.9016812,8.72161627 42.1426144,8.70144724 42.3806563,8.66153683 L42.3806563,6.12697862 L44.1730465,7.91923243 C44.3704811,7.77860077 44.5558879,7.6218058 44.7273532,7.45046604 L44.7277625,7.45046604 C44.8989375,7.27891422 45.0555932,7.09346452 45.1961196,6.8960229 L43.4041387,5.1037691 L45.9389697,5.1037691 C45.978261,4.86911305 45.998998,4.62872703 45.998998,4.38315674 L45.998998,4.37688106 C45.998998,4.13552188 45.9788445,3.89458411 45.9389697,3.65654155 L45.9388333,3.6562687 Z" id="Shape"></path>
                    </g>
                    <g id="salesforce" fill-rule="nonzero">
                        <path d="M38.0757552,7.00284223 C41.0317288,3.94129814 45.1489778,2.00583923 49.6885087,2.00583923 C55.7412165,2.00583923 60.9845507,5.38409478 63.7997636,10.3810978 C66.2278848,9.29020275 68.9375273,8.69197 71.7879304,8.69197 C82.6968806,8.69197 91.4944211,17.595081 91.4944211,28.5744115 C91.4944211,39.553742 82.6616904,48.456853 71.7879304,48.456853 C70.4507042,48.456853 69.1486682,48.3160924 67.9170126,48.0697612 C65.4537012,52.4685315 60.7382195,55.4596952 55.3189346,55.4596952 C53.0667642,55.4596952 50.9201643,54.9318428 49.0198956,54.0168986 C46.5213941,59.8936556 40.6798272,64.0460948 33.888126,64.0460948 C26.8149034,64.0460948 20.7621956,59.5769442 18.4396449,53.2779052 C17.4191302,53.4890462 16.3634253,53.5946167 15.3077204,53.5946167 C6.86208158,53.5946167 0.035190162,46.6973449 0.035190162,38.1461356 C0.035190162,32.4453293 3.09673425,27.4483263 7.67145531,24.773874 C6.72132093,22.6272741 6.1934685,20.2343431 6.1934685,17.7006515 C6.15827834,7.9529766 14.1464451,0 23.9293101,0 C29.7004967,0 34.8382603,2.74483263 38.0757552,7.00284223" id="Fill-1" fill="#000000"></path>
                        <path d="M13.2666911,33.2195129 L13.6537828,32.1989982 C13.7241632,32.0230474 13.8297336,32.0934277 13.900114,32.1286179 C14.0056845,32.1989982 14.0760648,32.2341883 14.2168254,32.3397588 C15.3077204,33.0435621 16.3282351,33.0435621 16.6449466,33.0435621 C17.4543203,33.0435621 17.9821728,32.6212801 17.9821728,32.0230474 L17.9821728,31.9878572 C17.9821728,31.3544343 17.2079892,31.1081032 16.293045,30.8265819 L16.081904,30.7562015 C14.8502483,30.4042999 13.5130222,29.8764475 13.5130222,28.3280804 L13.5130222,28.2928902 C13.5130222,26.8149034 14.7094877,25.7591985 16.4338056,25.7591985 L16.6097564,25.7591985 C17.6302711,25.7591985 18.5804055,26.0407198 19.2842087,26.4981919 C19.3545891,26.5333821 19.4249694,26.6037624 19.3897792,26.7093329 C19.3545891,26.8149034 19.0378776,27.6242771 19.0026875,27.7298476 C18.9323071,27.9057984 18.7563563,27.8002279 18.7563563,27.8002279 C18.1229334,27.4483263 17.172799,27.2019952 16.3634253,27.2019952 C15.6244319,27.2019952 15.1669598,27.589087 15.1669598,28.1169394 L15.1669598,28.1521296 C15.1669598,28.7503623 15.9763335,29.0318836 16.8912777,29.3134049 L17.0672285,29.3485951 C18.2988842,29.7356868 19.6009202,30.2635393 19.6009202,31.7767162 L19.6009202,31.8119064 C19.6009202,33.4306539 18.4396449,34.4159784 16.5745663,34.4159784 C15.6596221,34.4159784 14.779868,34.2752177 13.8297336,33.7825555 C13.6537828,33.676985 13.477832,33.6066047 13.3018812,33.465844 C13.2666911,33.3954637 13.1963107,33.3602735 13.2666911,33.2195129 Z M40.7150174,33.2195129 L41.1021092,32.1989982 C41.1724895,32.0230474 41.3132501,32.0934277 41.3484403,32.1286179 C41.4540108,32.1989982 41.5243911,32.2341883 41.6651517,32.3397588 C42.7560468,33.0435621 43.7765615,33.0435621 44.0932729,33.0435621 C44.9026466,33.0435621 45.4304991,32.6212801 45.4304991,32.0230474 L45.4304991,31.9878572 C45.4304991,31.3544343 44.6563155,31.1081032 43.7413713,30.8265819 L43.5302303,30.7562015 C42.2985747,30.4042999 40.9613485,29.8764475 40.9613485,28.3280804 L40.9613485,28.2928902 C40.9613485,26.8149034 42.157814,25.7591985 43.882132,25.7591985 L44.0580828,25.7591985 C45.0785975,25.7591985 46.0287318,26.0407198 46.7325351,26.4981919 C46.8029154,26.5333821 46.8732957,26.6037624 46.8381056,26.7093329 C46.8029154,26.8149034 46.4862039,27.6242771 46.4510138,27.7298476 C46.3806335,27.9057984 46.2046826,27.8002279 46.2046826,27.8002279 C45.5712597,27.4483263 44.6211254,27.2019952 43.8117516,27.2019952 C43.0727582,27.2019952 42.6152861,27.589087 42.6152861,28.1169394 L42.6152861,28.1521296 C42.6152861,28.7503623 43.4246598,29.0318836 44.3396041,29.3134049 L44.5155549,29.3485951 C45.7472105,29.7356868 47.0492465,30.2635393 47.0492465,31.7767162 L47.0492465,31.8119064 C47.0492465,33.4306539 45.8879712,34.4159784 44.0228926,34.4159784 C43.1079484,34.4159784 42.2281943,34.2752177 41.27806,33.7825555 C41.1021092,33.676985 40.9261583,33.6066047 40.7502075,33.465844 C40.7502075,33.3954637 40.6798272,33.3602735 40.7150174,33.2195129 Z M61.054931,28.3984607 C61.1956916,28.9263131 61.3012621,29.4893557 61.3012621,30.0875885 C61.3012621,30.6858212 61.2308818,31.2488638 61.054931,31.7767162 C60.9141703,32.3045687 60.6678392,32.7620408 60.3511277,33.1491326 C60.0344163,33.5362243 59.6121343,33.8529358 59.1546622,34.0640768 C58.662,34.2752177 58.0989574,34.3807882 57.4655345,34.3807882 C56.8321116,34.3807882 56.269069,34.2752177 55.7764067,34.0640768 C55.2837444,33.8529358 54.8966526,33.5362243 54.5799412,33.1491326 C54.2632297,32.7620408 54.0168986,32.3045687 53.8761379,31.7767162 C53.7353773,31.2488638 53.6298068,30.6858212 53.6298068,30.0875885 C53.6298068,29.4893557 53.7001871,28.9263131 53.8761379,28.3984607 C54.0168986,27.8706083 54.2632297,27.4131362 54.5799412,27.0260444 C54.8966526,26.6389526 55.3189346,26.3222411 55.7764067,26.1111002 C56.269069,25.8999592 56.8321116,25.7591985 57.4655345,25.7591985 C58.0989574,25.7591985 58.662,25.864769 59.1546622,26.1111002 C59.6473245,26.3222411 60.0344163,26.6389526 60.3511277,27.0260444 C60.6678392,27.4131362 60.9141703,27.8706083 61.054931,28.3984607 Z M59.4713737,30.0523983 C59.4713737,29.1374541 59.2954229,28.4336509 58.9787114,27.9409886 C58.662,27.4483263 58.1341475,27.2019952 57.4655345,27.2019952 C56.7617312,27.2019952 56.269069,27.4483263 55.9523575,27.9409886 C55.635646,28.4336509 55.4596952,29.1374541 55.4596952,30.0523983 C55.4596952,30.9673425 55.635646,31.6711458 55.9523575,32.1989982 C56.269069,32.6916605 56.7617312,32.9379916 57.4655345,32.9379916 C58.1693377,32.9379916 58.662,32.6916605 58.9787114,32.1989982 C59.330613,31.7063359 59.4713737,30.9673425 59.4713737,30.0523983 Z M73.9345303,32.6916605 L74.321622,33.7473653 C74.3568122,33.888126 74.2512417,33.9233161 74.2512417,33.9233161 C73.653009,34.1696473 72.8436352,34.3104079 72.0342615,34.3104079 C70.6618452,34.3104079 69.6413305,33.9233161 68.9375273,33.1491326 C68.233724,32.374949 67.8818224,31.3192441 67.8818224,30.0172081 C67.8818224,29.4189754 67.9522027,28.8559328 68.1281535,28.3280804 C68.3041043,27.8002279 68.5504355,27.3427558 68.9023371,26.9556641 C69.2542387,26.5685723 69.6765207,26.2518608 70.1691829,26.0407198 C70.6618452,25.8295789 71.260078,25.6888182 71.928691,25.6888182 C72.3861631,25.6888182 72.7732549,25.7240084 73.0899664,25.7591985 C73.441868,25.8295789 73.9345303,25.9351494 74.1456712,26.0407198 C74.1808614,26.0407198 74.2864319,26.1111002 74.2512417,26.2166707 C74.1104811,26.6389526 74.0049106,26.9204739 73.8641499,27.2723755 C73.7937696,27.4483263 73.6881991,27.377946 73.6881991,27.377946 C73.1603467,27.2019952 72.6676844,27.1316149 72.0342615,27.1316149 C71.260078,27.1316149 70.6618452,27.377946 70.3099436,27.9057984 C69.9228518,28.3984607 69.7117108,29.0670738 69.7117108,29.982018 C69.7117108,30.9673425 69.958042,31.6711458 70.3803239,32.1286179 C70.8026058,32.58609 71.4008386,32.7972309 72.1750222,32.7972309 C72.4917336,32.7972309 72.7732549,32.7620408 73.019586,32.7268506 C73.2659172,32.6916605 73.5122483,32.6212801 73.7585794,32.5157096 C73.7233893,32.58609 73.8641499,32.5508998 73.9345303,32.6916605 Z M81.922697,28.0817492 C82.2745986,29.2782147 82.0986478,30.2987294 82.0634577,30.3691098 C82.0634577,30.5098704 81.922697,30.5098704 81.922697,30.5098704 L76.6089826,30.5098704 C76.6441727,31.3192441 76.8201235,31.8822867 77.2424055,32.2693785 C77.6294973,32.6564703 78.22773,32.9028014 79.0722939,32.9028014 C80.3391397,32.9028014 80.8669922,32.6564703 81.2540839,32.5157096 C81.2540839,32.5157096 81.3948446,32.4805195 81.4652249,32.6212801 L81.8171265,33.6066047 C81.8875069,33.7825555 81.8171265,33.8177456 81.7819364,33.8529358 C81.4652249,34.0288866 80.6558512,34.3807882 79.1074841,34.3807882 C78.3684907,34.3807882 77.6998776,34.2752177 77.1720252,34.0640768 C76.6441727,33.8529358 76.1867006,33.5714145 75.834799,33.1843227 C75.4828974,32.7972309 75.2365663,32.3397588 75.0606154,31.8470966 C74.8846646,31.3192441 74.8142843,30.7562015 74.8142843,30.1579688 C74.8142843,29.559736 74.8846646,28.9966934 75.0606154,28.468841 C75.2013761,27.9409886 75.4477072,27.4835165 75.7644187,27.0964247 C76.0811301,26.7093329 76.5034121,26.3926215 76.9960743,26.1814805 C77.4887366,25.9351494 78.0869694,25.8295789 78.7555824,25.8295789 C79.318625,25.8295789 79.8464775,25.9351494 80.2687594,26.1462903 C80.5854709,26.287051 80.9373725,26.5333821 81.2892741,26.9204739 C81.4652249,27.0612345 81.7819364,27.589087 81.922697,28.0817492 Z M76.6441727,29.2078344 L80.4095201,29.2078344 C80.3743299,28.7151722 80.2687594,28.2928902 80.0576184,27.9409886 C79.740907,27.4483263 79.2834349,27.166805 78.5796316,27.166805 C77.8758284,27.166805 77.3831661,27.4483263 77.0664547,27.9409886 C76.8553137,28.2577 76.7497432,28.679982 76.6441727,29.2078344 Z M39.4481715,28.0817492 C39.8000732,29.2782147 39.6241224,30.2987294 39.6241224,30.3691098 C39.6241224,30.5098704 39.4833617,30.5098704 39.4833617,30.5098704 L34.1696473,30.5098704 C34.2048374,31.3192441 34.3807882,31.8822867 34.8030702,32.2693785 C35.190162,32.6564703 35.7883947,32.9028014 36.6329586,32.9028014 C37.8998044,32.9028014 38.4276569,32.6564703 38.8147486,32.5157096 C38.8147486,32.5157096 38.9555093,32.4805195 39.0258896,32.6212801 L39.3777912,33.6066047 C39.4481715,33.7825555 39.3777912,33.8177456 39.3426011,33.8529358 C39.0258896,34.0288866 38.2165159,34.3807882 36.6681488,34.3807882 C35.9291554,34.3807882 35.2605423,34.2752177 34.7326898,34.0640768 C34.2048374,33.8529358 33.7473653,33.5714145 33.3954637,33.1843227 C33.0435621,32.7972309 32.7972309,32.3397588 32.6212801,31.8470966 C32.4453293,31.3192441 32.374949,30.7562015 32.374949,30.1579688 C32.374949,29.559736 32.4453293,28.9966934 32.6212801,28.468841 C32.7620408,27.9409886 33.0083719,27.4835165 33.3250834,27.0964247 C33.6417948,26.7093329 34.0640768,26.3926215 34.556739,26.1814805 C35.0494013,25.9351494 35.6476341,25.8295789 36.3162471,25.8295789 C36.8792897,25.8295789 37.4071422,25.9351494 37.8294241,26.1462903 C38.1461356,26.287051 38.4980372,26.5333821 38.8499388,26.9204739 C38.9906994,27.0612345 39.3426011,27.589087 39.4481715,28.0817492 Z M34.1696473,29.2078344 L37.9701847,29.2078344 C37.9349946,28.7151722 37.8294241,28.2928902 37.6182831,27.9409886 C37.3015717,27.4483263 36.8440996,27.166805 36.1402963,27.166805 C35.4364931,27.166805 34.9438308,27.4483263 34.6271194,27.9409886 C34.3807882,28.2577 34.2752177,28.679982 34.1696473,29.2078344 Z M24.8442543,28.9263131 C24.8442543,28.9263131 25.2665363,28.9615033 25.7240084,29.0318836 L25.7240084,28.8207426 C25.7240084,28.1169394 25.5832477,27.7650378 25.3017264,27.5538968 C25.0202051,27.3427558 24.562733,27.2019952 23.9996905,27.2019952 C23.9996905,27.2019952 22.6976545,27.2019952 21.6771398,27.7298476 C21.6419496,27.7650378 21.6067594,27.7650378 21.6067594,27.7650378 C21.6067594,27.7650378 21.4659988,27.8002279 21.4308086,27.6946575 L21.0437168,26.6741428 C20.9733365,26.5333821 21.078907,26.4630018 21.078907,26.4630018 C21.5715693,26.07591 22.6976545,25.864769 22.6976545,25.864769 C23.0847462,25.7943887 23.7181692,25.7240084 24.1052609,25.7240084 C25.1609658,25.7240084 25.9703395,25.9703395 26.5333821,26.4630018 C27.0964247,26.9556641 27.377946,27.7298476 27.377946,28.8207426 L27.377946,33.676985 C27.377946,33.676985 27.377946,33.8177456 27.2723755,33.8529358 C27.2723755,33.8529358 27.0612345,33.9233161 26.8852837,33.9585063 C26.7093329,33.9936964 26.07591,34.1344571 25.5480576,34.2048374 C25.0202051,34.3104079 24.4923527,34.3455981 23.9293101,34.3455981 C23.4014577,34.3455981 22.9439856,34.3104079 22.5217036,34.2048374 C22.0994217,34.0992669 21.7475201,33.9585063 21.4308086,33.7473653 C21.1492873,33.5362243 20.9029562,33.254703 20.7270054,32.9028014 C20.5510546,32.58609 20.4806743,32.163808 20.4806743,31.7063359 C20.4806743,31.2488638 20.5862447,30.8265819 20.7621956,30.4746802 C20.9381464,30.1227786 21.2196677,29.8412573 21.5363791,29.5949262 C21.8530906,29.3485951 22.2401824,29.2078344 22.6272741,29.0670738 C23.0495561,28.9615033 23.471838,28.891123 23.9293101,28.891123 C24.3515921,28.9263131 24.6331134,28.9263131 24.8442543,28.9263131 Z M22.7328446,32.6564703 C22.7328446,32.6564703 23.2255069,33.0435621 24.2812117,32.9731817 C25.0553953,32.9379916 25.7240084,32.7972309 25.7240084,32.7972309 L25.7240084,30.3691098 C25.7240084,30.3691098 25.0553953,30.2635393 24.2812117,30.2635393 C23.1903167,30.2635393 22.7328446,30.6506311 22.7328446,30.6506311 C22.4161332,30.861772 22.2753725,31.2136737 22.2753725,31.6711458 C22.2753725,31.9526671 22.3457528,32.1989982 22.4513233,32.374949 C22.4865135,32.4453293 22.5217036,32.5157096 22.7328446,32.6564703 Z M67.6003011,26.2166707 C67.5651109,26.3574313 67.2835896,27.0964247 67.2132093,27.3427558 C67.1780192,27.4483263 67.1076388,27.4835165 67.0020684,27.4835165 C67.0020684,27.4835165 66.6853569,27.4131362 66.4038356,27.4131362 C66.2278848,27.4131362 65.9463635,27.4483263 65.7000324,27.5187066 C65.4537012,27.589087 65.2425603,27.7298476 65.0314193,27.9057984 C64.8202783,28.0817492 64.6795177,28.3632705 64.5739472,28.679982 C64.4683767,28.9966934 64.3979964,29.5245459 64.3979964,30.0875885 L64.3979964,34.0288866 C64.3979964,34.1344571 64.327616,34.2048374 64.2220456,34.2048374 L62.8144391,34.2048374 C62.7088686,34.2048374 62.6384883,34.1344571 62.6384883,34.0288866 L62.6384883,26.1111002 C62.6384883,26.0055297 62.7088686,25.9351494 62.7792489,25.9351494 L64.1516652,25.9351494 C64.2572357,25.9351494 64.2924259,26.0055297 64.2924259,26.1111002 L64.2924259,26.7445231 C64.5035669,26.4630018 64.8554685,26.2166707 65.1721799,26.07591 C65.4888914,25.9351494 65.8759832,25.8295789 66.5445962,25.864769 C66.8964979,25.8999592 67.35397,25.9703395 67.4243503,26.0055297 C67.5651109,26.0407198 67.6354913,26.07591 67.6003011,26.2166707 Z M54.544751,22.5568938 C54.5799412,22.5568938 54.6855117,22.6272741 54.6503215,22.7328446 L54.2280396,23.8589298 C54.1928494,23.9293101 54.1576592,23.9996905 53.9817084,23.9293101 C53.9465183,23.9293101 53.8761379,23.89412 53.7001871,23.8589298 C53.5946167,23.8237396 53.4186658,23.8237396 53.2779052,23.8237396 C53.0667642,23.8237396 52.8908134,23.8589298 52.7148626,23.89412 C52.5389118,23.9293101 52.3981511,24.0348806 52.2573905,24.1756413 C52.1166298,24.3164019 51.9758692,24.4923527 51.8702987,24.7386839 C51.6591577,25.3017264 51.5887774,25.8999592 51.5887774,25.9351494 L53.2779052,25.9351494 C53.4186658,25.9351494 53.453856,26.0055297 53.453856,26.1111002 L53.242715,27.2019952 C53.2075249,27.377946 53.0667642,27.3427558 53.0667642,27.3427558 L51.3072561,27.3427558 L50.1811709,34.1344571 C50.0404103,34.8382603 49.8996496,35.4364931 49.7236988,35.9291554 C49.547748,36.4218176 49.3366071,36.7737192 49.0198956,37.1256209 C48.7383743,37.4423323 48.4216628,37.6886634 48.0345711,37.7942339 C47.6826694,37.9349946 47.2251973,38.0053749 46.7325351,38.0053749 C46.4862039,38.0053749 46.2398728,38.0053749 45.9583515,37.9349946 C45.7472105,37.8998044 45.6416401,37.8646143 45.4656892,37.7942339 C45.3953089,37.7590438 45.3601188,37.6886634 45.3953089,37.583093 C45.4304991,37.4775225 45.7472105,36.6329586 45.7824007,36.4921979 C45.852781,36.3514373 45.9583515,36.4218176 45.9583515,36.4218176 C46.063922,36.4570078 46.1343023,36.4921979 46.2398728,36.5273881 C46.3806335,36.5625783 46.5213941,36.5625783 46.6621547,36.5625783 C46.9084859,36.5625783 47.1196269,36.5273881 47.2955777,36.4570078 C47.5067186,36.3866275 47.6474793,36.2458668 47.7882399,36.069916 C47.9290006,35.8939652 48.0345711,35.6476341 48.1753317,35.3309226 C48.2809022,35.0142111 48.3864727,34.556739 48.4920432,34.0288866 L49.6885087,27.377946 L48.5272333,27.377946 C48.3864727,27.377946 48.3512825,27.3075657 48.3512825,27.2019952 L48.5624235,26.1111002 C48.5976137,25.9351494 48.7383743,25.9703395 48.7383743,25.9703395 L49.9348398,25.9703395 L50.0052201,25.6184379 C50.1811709,24.562733 50.5330726,23.7533593 51.060925,23.2255069 C51.5887774,22.6976545 52.362961,22.4161332 53.3130954,22.4161332 C53.5946167,22.4161332 53.8409478,22.4513233 54.0520888,22.4865135 C54.1928494,22.4513233 54.3688002,22.4865135 54.544751,22.5568938 Z M30.8265819,33.9936964 C30.8265819,34.0992669 30.7562015,34.1696473 30.6858212,34.1696473 L29.2782147,34.1696473 C29.1726443,34.1696473 29.1374541,34.0992669 29.1374541,33.9936964 L29.1374541,22.6976545 C29.1374541,22.6272741 29.2078344,22.5217036 29.2782147,22.5217036 L30.6858212,22.5217036 C30.7913917,22.5217036 30.8265819,22.592084 30.8265819,22.6976545 L30.8265819,33.9936964 Z" id="Combined-Shape" fill="#FFFFFF"></path>
                    </g>
                    <g id="HubSpot_Logo" transform="translate(130.435339, 9.372599)" fill="#000000" fill-rule="nonzero">
                        <path d="M10.9911363,4.76218744 L10.9911363,12.8762885 L3.53669489,12.8762885 L3.53669489,4.76218744 L0,4.76218744 L0,24.1316716 L3.53765231,24.1316716 L3.53765231,16.2808599 L10.9901788,16.2808599 L10.9901788,24.1316716 L14.5287886,24.1316716 L14.5287886,4.76218744 L10.9911363,4.76218744 Z M25.8521482,17.871128 C25.8521482,19.4878309 24.5415515,20.7984276 22.9248486,20.7984276 C21.3081457,20.7984276 19.997549,19.4878309 19.997549,17.871128 L19.997549,9.57416051 L16.6418058,9.57416051 L16.6418058,17.871128 C16.6418058,21.3377197 19.4520337,24.1479475 22.9186254,24.1479475 C26.3852171,24.1479475 29.195445,21.3377197 29.195445,17.871128 L29.195445,9.57416051 L25.8521482,9.57416051 L25.8521482,17.871128 L25.8521482,17.871128 Z M50.7172004,10.429133 C50.7172004,8.72780472 51.8421643,8.18877948 53.0743588,8.18877948 C54.0681566,8.18877948 55.3798166,8.94513816 56.2386188,9.86234274 L58.4358886,7.2715749 C57.3386899,5.78758003 55.113655,4.76218744 53.2916922,4.76218744 C49.650639,4.76218744 47.0177448,6.89435298 47.0177448,10.429133 C47.0177448,16.987433 55.033232,14.9060105 55.033232,18.5767436 C55.033232,19.7084094 53.9341184,20.7079518 52.6760737,20.7079518 C50.6913502,20.7079518 50.0479666,19.7380893 49.1365065,18.7117393 L46.6970104,21.2479344 C48.2575986,23.1627665 50.1820049,24.1355012 52.4865053,24.1355012 C55.9456495,24.1355012 58.7279005,21.9774854 58.7279005,18.6035513 C58.7279005,11.3233596 50.7114559,13.5857338 50.7114559,10.429133 M100.305607,21.0373029 C98.3227987,21.0373029 97.7588807,20.1794581 97.7588807,18.8658833 L97.7588807,13.0495808 L100.84176,13.0495808 L100.84176,10.1026542 L97.7588807,10.1026542 L97.7588807,6.21458758 L94.356224,7.74166618 L94.356224,19.5887324 C94.356224,22.6189542 96.4472207,24.1460328 99.3137243,24.1460328 C99.7637099,24.1536921 100.213695,24.1173103 100.656022,24.0388022 L101.486101,20.9827302 C101.111752,21.0085804 100.681872,21.0344306 100.305607,21.0344306 M38.6259931,9.67085953 C36.9639189,9.67085953 35.8035306,10.1533972 34.681439,11.2534683 L34.681439,4.87803478 L31.3209087,4.87803478 L31.3209087,16.6954211 C31.3209087,21.1186832 34.5186783,24.1498625 38.1128181,24.1498625 C42.0994986,24.1498625 45.6065136,21.0650679 45.6065136,16.9117971 C45.6065136,12.8102268 42.3790641,9.67373177 38.6259931,9.67373177 M38.60493,20.7673116 C37.2423666,20.7673116 35.9833061,20.0403927 35.3020244,18.8603782 C34.6207426,17.6803636 34.6207426,16.2265258 35.3020244,15.0465113 C35.9833061,13.8664968 37.2423666,13.1395779 38.60493,13.1395779 C40.7112705,13.1395779 42.4187967,14.8471043 42.4187967,16.9534447 C42.4187967,19.0597852 40.7112705,20.7673116 38.60493,20.7673116 M75.122693,16.7356326 C75.122693,12.5747024 71.6233373,9.49756722 67.6289976,9.49756722 C64.0358151,9.49756722 60.8370881,12.527789 60.8370881,16.9520086 L60.8370881,28.7760968 L64.1976184,28.7760968 L64.1976184,22.3920466 C65.3177952,23.4902028 66.4800983,23.9746553 68.1402577,23.9746553 C71.8933287,23.9746553 75.1217356,20.8381603 75.1217356,16.7356326 M71.940242,16.6935063 C71.940242,18.7998467 70.2327157,20.5073731 68.1263752,20.5073731 C66.0200347,20.5073731 64.3125084,18.7998467 64.3125084,16.6935063 C64.3125084,14.5871658 66.0200347,12.8796394 68.1263752,12.8796394 C70.2327157,12.8796394 71.940242,14.5871658 71.940242,16.6935063" id="Shape"></path>
                        <path d="M85.9817058,9.33480649 L85.9817058,5.95800008 C86.892555,5.53229956 87.4763799,4.61965376 87.4810194,3.61424559 L87.4810194,3.53669489 C87.4810194,2.10057081 86.3168015,0.936352897 84.8806774,0.936352897 L84.8031267,0.936352897 C83.3669975,0.936352897 82.2027847,2.10056566 82.2027847,3.53669489 L82.2027847,3.61424559 C82.2074242,4.61965376 82.7912491,5.53229956 83.7020982,5.95800008 L83.7020982,9.33480649 C82.419588,9.53118202 81.2117339,10.0629417 80.2008277,10.8762463 L70.9397423,3.66307381 C71.005804,3.42467721 71.040271,3.1795787 71.0441006,2.93352278 C71.0464234,1.74840129 70.3345156,0.678610906 69.2404208,0.223116607 C68.1463261,-0.232377693 66.8855738,0.016153421 66.0461961,0.852791613 C65.2068184,1.68942981 64.9541672,2.94936294 65.4060824,4.04494086 C65.8579977,5.14051877 66.9254551,5.85591994 68.1105778,5.8574714 C68.6175764,5.85508383 69.1150777,5.71973179 69.5534038,5.46493082 L78.6727917,12.5612986 C76.9962517,15.0940593 77.0410738,18.3949396 78.7857668,20.8812441 L76.0121325,23.6558358 C75.7879273,23.5841352 75.5543325,23.5460632 75.3189633,23.5428607 C73.9906727,23.5439182 72.9145399,24.6211941 72.9148924,25.949485 C72.9152449,27.2777759 73.9919494,28.3544804 75.3202403,28.354833 C76.6485313,28.3551854 77.7258071,27.2790526 77.7268646,25.9507621 C77.7237752,25.7153829 77.6857004,25.4817715 77.6138896,25.2575928 L80.357844,22.512681 C82.8095506,24.4001724 86.176837,24.5627824 88.7990094,22.9203142 C91.4211817,21.2778461 92.7444342,18.177191 92.1161593,15.1475442 C91.4878843,12.1178974 89.0407741,9.79912364 85.9817058,9.33480649 M84.8442956,20.4408327 C83.4636807,20.4788197 82.1713679,19.7639735 81.4698611,18.5742556 C80.7683543,17.3845377 80.7683543,15.9076906 81.4698611,14.7179727 C82.1713679,13.5282548 83.4636807,12.8134087 84.8442956,12.8513956 C86.8871509,12.9229342 88.5065623,14.5992014 88.5075945,16.6433087 C88.5086257,18.687416 86.8909073,20.3653172 84.8481252,20.4389178" id="Shape"></path>
                    </g>
                    <g id="Slack_Monochrome_Black" transform="translate(510.806658, 10.153649)" fill="#000000" fill-rule="nonzero">
                        <g id="Group" transform="translate(33.246897, 0.418200)">
                            <path d="M0.104549991,20.3872483 L1.40096989,17.3762086 C2.80193977,18.4217085 4.66292962,18.9653684 6.50300947,18.9653684 C7.86215936,18.9653684 8.71946929,18.4426185 8.71946929,17.6480386 C8.69855929,15.4315787 0.585479952,17.1671086 0.522749957,11.605049 C0.501839959,8.78219928 3.01103975,6.60755946 6.56573946,6.60755946 C8.67764929,6.60755946 10.7895591,7.13030942 12.295079,8.32217932 L11.0822991,11.3959491 C9.7022392,10.5177291 7.98761935,9.89042919 6.35663948,9.89042919 C5.24840957,9.89042919 4.51655963,10.4131791 4.51655963,11.0822991 C4.53746963,13.2569389 12.713279,12.065069 12.796919,17.3762086 C12.796919,20.2617883 10.3504492,22.2900582 6.83756944,22.2900582 C4.26563965,22.2900582 1.90280984,21.6836682 0.104549991,20.3872483" id="Path"></path>
                            <path d="M49.8494359,16.2888887 C49.201226,17.4180286 47.9884461,18.1916985 46.5874762,18.1916985 C44.5173864,18.1916985 42.8445865,16.5188986 42.8445865,14.4488088 C42.8445865,12.378719 44.5173864,10.7059191 46.5874762,10.7059191 C47.9884461,10.7059191 49.201226,11.4795891 49.8494359,12.608729 L53.4250456,10.6222791 C52.0868057,8.23853932 49.5148759,6.60755946 46.5874762,6.60755946 C42.2591065,6.60755946 38.7462268,10.1204392 38.7462268,14.4488088 C38.7462268,18.7771785 42.2591065,22.2900582 46.5874762,22.2900582 C49.5357859,22.2900582 52.0868057,20.6799883 53.4250456,18.2753385 L49.8494359,16.2888887 Z" id="Path"></path>
                            <rect id="Rectangle" x="14.5951788" y="0.104549991" width="4.47473963" height="21.8927682"></rect>
                            <polygon id="Path" points="55.1814855 0.104549991 55.1814855 21.9973182 59.6562251 21.9973182 59.6562251 15.4315787 64.9673647 21.9973182 70.6967042 21.9973182 63.9427748 14.1978888 70.1948642 6.92120943 64.7164447 6.92120943 59.6562251 12.9641989 59.6562251 0.104549991"></polygon>
                            <path d="M32.3686773,16.3307087 C31.7204674,17.3971186 30.3822275,18.1916985 28.8767076,18.1916985 C26.8066178,18.1916985 25.1338179,16.5188986 25.1338179,14.4488088 C25.1338179,12.378719 26.8066178,10.7059191 28.8767076,10.7059191 C30.3822275,10.7059191 31.7204674,11.5423191 32.3686773,12.629639 L32.3686773,16.3307087 Z M32.3686773,6.92120943 L32.3686773,8.69855929 C31.6368274,7.46486939 29.8176576,6.60755946 27.9148477,6.60755946 C23.983768,6.60755946 20.8890883,10.0786192 20.8890883,14.4278988 C20.8890883,18.7771785 23.983768,22.2900582 27.9148477,22.2900582 C29.8176576,22.2900582 31.6368274,21.4327482 32.3686773,20.1990583 L32.3686773,21.9764082 L36.843417,21.9764082 L36.843417,6.92120943 L32.3686773,6.92120943 Z" id="Shape"></path>
                        </g>
                        <g id="Group">
                            <g transform="translate(0.000000, 13.800599)" id="Path">
                                <path d="M5.68751953,2.92739976 C5.68751953,4.45382963 4.45382963,5.68751953 2.92739976,5.68751953 C1.40096989,5.68751953 0.167279986,4.45382963 0.167279986,2.92739976 C0.167279986,1.40096989 1.40096989,0.167279986 2.92739976,0.167279986 L5.68751953,0.167279986 L5.68751953,2.92739976 Z"></path>
                                <path d="M7.06757942,2.92739976 C7.06757942,1.40096989 8.30126932,0.167279986 9.82769919,0.167279986 C11.3541291,0.167279986 12.587819,1.40096989 12.587819,2.92739976 L12.587819,9.82769919 C12.587819,11.3541291 11.3541291,12.587819 9.82769919,12.587819 C8.30126932,12.587819 7.06757942,11.3541291 7.06757942,9.82769919 L7.06757942,2.92739976 Z"></path>
                            </g>
                            <g id="Path">
                                <path d="M9.82769919,5.64569954 C8.30126932,5.64569954 7.06757942,4.41200964 7.06757942,2.88557976 C7.06757942,1.35914989 8.30126932,0.12545999 9.82769919,0.12545999 C11.3541291,0.12545999 12.587819,1.35914989 12.587819,2.88557976 L12.587819,5.64569954 L9.82769919,5.64569954 Z"></path>
                                <path d="M9.82769919,7.04666942 C11.3541291,7.04666942 12.587819,8.28035932 12.587819,9.8067892 C12.587819,11.3332191 11.3541291,12.566909 9.82769919,12.566909 L2.90648976,12.566909 C1.38005989,12.566909 0.146369988,11.3332191 0.146369988,9.8067892 C0.146369988,8.28035932 1.38005989,7.04666942 2.90648976,7.04666942 L9.82769919,7.04666942 Z"></path>
                            </g>
                            <g transform="translate(13.800599, 0.000000)" id="Path">
                                <path d="M7.08848942,9.8067892 C7.08848942,8.28035932 8.32217932,7.04666942 9.84860919,7.04666942 C11.3750391,7.04666942 12.608729,8.28035932 12.608729,9.8067892 C12.608729,11.3332191 11.3750391,12.566909 9.84860919,12.566909 L7.08848942,12.566909 L7.08848942,9.8067892 Z"></path>
                                <path d="M5.70842953,9.8067892 C5.70842953,11.3332191 4.47473963,12.566909 2.94830976,12.566909 C1.42187988,12.566909 0.188189985,11.3332191 0.188189985,9.8067892 L0.188189985,2.88557976 C0.188189985,1.35914989 1.42187988,0.12545999 2.94830976,0.12545999 C4.47473963,0.12545999 5.70842953,1.35914989 5.70842953,2.88557976 L5.70842953,9.8067892 Z"></path>
                            </g>
                            <g transform="translate(13.800599, 13.800599)" id="Path">
                                <path d="M2.94830976,7.06757942 C4.47473963,7.06757942 5.70842953,8.30126932 5.70842953,9.82769919 C5.70842953,11.3541291 4.47473963,12.587819 2.94830976,12.587819 C1.42187988,12.587819 0.188189985,11.3541291 0.188189985,9.82769919 L0.188189985,7.06757942 L2.94830976,7.06757942 Z"></path>
                                <path d="M2.94830976,5.68751953 C1.42187988,5.68751953 0.188189985,4.45382963 0.188189985,2.92739976 C0.188189985,1.40096989 1.42187988,0.167279986 2.94830976,0.167279986 L9.86951919,0.167279986 C11.3959491,0.167279986 12.629639,1.40096989 12.629639,2.92739976 C12.629639,4.45382963 11.3959491,5.68751953 9.86951919,5.68751953 L2.94830976,5.68751953 Z"></path>
                            </g>
                        </g>
                    </g>
                </g>
                <g id="Group-52" transform="translate(166.363636, 62.640205)" fill-rule="nonzero">
                    <g id="xero" transform="translate(224.161332, 0.000000)">
                        <path d="M29.1375502,59.0224498 C45.2289202,59.0224498 58.2738028,45.9542125 58.2738028,29.8355954 C58.2738028,13.7143832 45.2302177,0.648740931 29.1375502,0.648740931 C13.0448826,0.648740931 0,13.7143832 0,29.8355954 C0,45.9542125 13.0448826,59.0224498 29.1375502,59.0224498" id="Shape" fill="#000000"></path>
                        <path d="M13.94793,29.7577465 L18.9198805,24.7624413 C19.228946,24.4070053 19.2086691,23.8725968 18.8735589,23.5416025 C18.5384485,23.2106081 18.0038301,23.196937 17.6522407,23.5103713 L12.6828852,28.4836193 L7.69406744,23.501289 C7.3433018,23.1551811 6.77837421,23.158957 6.43226634,23.5097226 C6.08615848,23.8604882 6.08993434,24.4254158 6.44069996,24.7715237 L11.4126504,29.7499616 L6.44329492,34.7322919 C6.20448082,34.9532239 6.10477284,35.2865847 6.18305799,35.6023609 C6.26134314,35.918137 6.50522315,36.1663177 6.81958262,36.2501105 C7.13394211,36.3339033 7.46899491,36.2400375 7.69406744,36.0051216 L12.6763978,31.0201963 L17.6392659,35.9856594 C17.8895419,36.2517971 18.2771834,36.3376745 18.6164447,36.2021419 C18.9557061,36.0666092 19.177474,35.7372769 19.1754977,35.3719505 C19.1766396,35.1359249 19.0831766,34.9092772 18.9159881,34.7426718 L13.9466325,29.7525566 L13.94793,29.7577465 Z M43.5058643,29.756449 C43.5058643,30.6517115 44.2324542,31.3783013 45.1277166,31.3783013 C46.0234409,31.377943 46.7492784,30.6515246 46.7489203,29.7558003 C46.7485618,28.8600759 46.0221434,28.1342384 45.1264191,28.1345965 C44.235049,28.1345965 43.5097567,28.8611865 43.5097567,29.756449 L43.5058643,29.756449 Z M40.4373197,29.756449 C40.4373197,27.1679727 42.5392403,25.0595647 45.1264191,25.0595647 C47.7084081,25.0595647 49.8142211,27.1679727 49.8142211,29.756449 C49.8142211,32.3449253 47.7097055,34.4533333 45.1264191,34.4533333 C42.5354423,34.4490389 40.4373197,32.3474294 40.4373197,29.756449 L40.4373197,29.756449 Z M38.5923005,29.756449 C38.5923005,33.3634485 41.5246095,36.3009475 45.1264191,36.3009475 C48.7282288,36.3009475 51.6605378,33.3660435 51.6605378,29.7577465 C51.6605378,26.1507469 48.7282288,23.213248 45.1264191,23.213248 C41.51664,23.2204014 38.5937242,26.1479606 38.5923005,29.7577465 L38.5923005,29.756449 Z M38.1290995,23.3248314 L37.8566283,23.3248314 C37.0327273,23.3248314 36.2386684,23.5843278 35.5756552,24.0968332 C35.4818204,23.6888008 35.1198272,23.3987767 34.7011524,23.3961929 C34.4662531,23.3961889 34.2410497,23.489856 34.0754386,23.6564412 C33.9098276,23.8230265 33.817483,24.0487754 33.8188494,24.2836705 L33.8214597,35.3057789 C33.8476846,35.7786681 34.2391462,36.1484816 34.7127615,36.1477921 C35.1863769,36.1471007 35.5767586,35.7761476 35.6016047,35.303184 L35.6016047,28.5251387 C35.6016047,26.2675202 35.8092019,25.3540931 37.7398549,25.1127614 C37.9215023,25.0907042 38.1135297,25.0945967 38.1161246,25.0945967 C38.6429023,25.0751344 39.019172,24.710542 39.019172,24.2187964 C39.0177418,23.7253703 38.6173377,23.3261268 38.1239095,23.3261289 L38.1290995,23.3248314 Z M21.0205036,28.6808365 C21.0205036,28.6548869 21.0230986,28.6289373 21.024396,28.6055826 C21.557906,26.4982389 23.4619851,25.0280037 25.6357477,25.0449262 C27.8095103,25.0618487 29.6904689,26.5615497 30.1911054,28.6769441 L21.0192061,28.6769441 L21.0205036,28.6808365 Z M32.0140675,28.5121639 C31.6300128,26.6917968 30.6348442,25.1958003 29.1206829,24.2356636 C26.8770129,22.8272469 24.0070113,22.9039849 21.8418096,24.4302859 C19.6496536,26.0073632 18.6363332,28.7586849 19.281878,31.3808963 C19.9568927,33.9908503 22.1532463,35.9266631 24.8273154,36.2685105 C25.6161844,36.3645241 26.3842936,36.3204097 27.1757576,36.1128127 C27.8688606,35.9443835 28.5291796,35.6620161 29.1297653,35.2772343 C29.7616389,34.8711225 30.2897141,34.333965 30.8035169,33.6917115 C30.8113018,33.6787366 30.8216816,33.6696543 30.8320615,33.6566795 C31.1875715,33.2155356 31.1213999,32.5849594 30.7321553,32.2865387 C30.402595,32.0335297 29.8498677,31.9310286 29.4165087,32.4889458 C29.32309,32.6238839 29.217994,32.761417 29.1051131,32.8976526 C28.7586854,33.2804097 28.329219,33.6501921 27.8154161,33.938233 C27.1588903,34.2885531 26.4141357,34.4870679 25.6226718,34.4922578 C23.0303031,34.4624157 21.6445924,32.6498335 21.1502518,31.3575416 C21.0639093,31.1124545 20.9975215,30.8607883 20.9517371,30.6050022 L20.9387622,30.4687666 L30.2417072,30.4687666 C31.5158344,30.4402219 32.2009049,29.5384721 32.0114725,28.5095689 L32.0140675,28.5121639 Z" id="Shape" fill="#FFFFFF"></path>
                    </g>
                    <g id="logotype-04-reversedbw" transform="translate(0.000000, 11.715749)">
                        <g id="Page-1">
                            <path d="M186.34714,28.8415461 C185.610606,28.8415461 185.012396,28.2437979 185.012396,27.5227663 C185.012396,26.7943377 185.610606,26.2039864 186.34714,26.2039864 C187.084029,26.2039864 187.681883,26.7943377 187.681883,27.5227663 C187.681883,28.2437979 187.084029,28.8415461 186.34714,28.8415461 L186.34714,28.8415461 Z M186.34714,25.9634077 C185.471214,25.9634077 184.762488,26.657317 184.762488,27.5227663 C184.762488,28.3882155 185.471214,29.0683876 186.34714,29.0683876 C187.223064,29.0683876 187.932147,28.3882155 187.932147,27.5227663 C187.932147,26.657317 187.223064,25.9634077 186.34714,25.9634077 L186.34714,25.9634077 Z M186.04839,27.4058232 L186.04839,26.904236 L186.340365,26.904236 C186.507209,26.904236 186.695085,26.9524927 186.695085,27.1448147 C186.695085,27.3579188 186.486531,27.4058232 186.305785,27.4058232 L186.04839,27.4058232 Z M187.014511,27.1518595 C187.014511,26.7739079 186.687955,26.6365349 186.354269,26.6365349 L185.728608,26.6365349 L185.728608,28.3949081 L186.04839,28.3949081 L186.04839,27.6601392 L186.277978,27.6601392 L186.695085,28.3949081 L187.084029,28.3949081 L186.604534,27.6256199 C186.854798,27.5706707 187.014511,27.4058232 187.014511,27.1518595 L187.014511,27.1518595 Z" id="Fill-1" fill="#000000"></path>
                            <path d="M147.473809,26.2268819 C144.990417,26.2268819 143.858879,24.1342347 143.858879,22.1898799 C143.858879,20.2715906 144.990417,18.2071225 147.473809,18.2071225 C149.957201,18.2071225 151.088383,20.2715906 151.088383,22.1898799 C151.088383,24.1342347 149.957201,26.2268819 147.473809,26.2268819 L147.473809,26.2268819 Z M147.473809,15.0475458 C143.140528,15.0475458 139.995467,18.0510809 139.995467,22.1898799 C139.995467,26.472392 143.210402,29.4780406 147.473809,29.4780406 C151.73686,29.4780406 154.951794,26.4435084 154.951794,22.1898799 C154.951794,18.0510809 151.806734,15.0475458 147.473809,15.0475458 L147.473809,15.0475458 Z M105.129576,15.4311331 L100.218048,15.4311331 L95.3008171,21.0852609 L95.2163262,21.0852609 L95.2163262,7.9217668 L91.408172,7.9217668 L91.408172,29.0578204 L95.2163262,29.0578204 L95.2163262,22.3367632 L95.3011732,22.3367632 L100.40236,29.0578204 L105.414064,29.0578204 L99.4850804,21.6108002 L105.129576,15.4311331 Z M113.92947,26.2268819 C111.632171,26.2268819 110.259639,24.2018645 110.259639,22.2444767 C110.259639,20.3029398 111.662474,18.2071225 113.92947,18.2071225 C116.393968,18.2071225 117.619978,20.2715906 117.619978,22.1898799 C117.619978,24.1958764 116.284522,26.2268819 113.92947,26.2268819 L113.92947,26.2268819 Z M114.678124,15.0475458 C112.936612,15.0475458 111.653205,15.7995743 110.441811,16.921453 L110.370511,16.921453 L110.370511,7.9217668 L106.562357,7.9217668 L106.562357,29.0578204 L110.204382,29.0578204 L110.204382,27.1317819 L110.261065,27.1317819 C111.119878,28.5231228 112.82574,29.4414078 114.595416,29.4414078 C118.526563,29.4414078 121.506563,26.3917294 121.506563,22.1898799 C121.506563,18.0510809 118.5615,15.0475458 114.678124,15.0475458 L114.678124,15.0475458 Z M171.151956,15.4311331 L166.240429,15.4311331 L161.323197,21.0852609 L161.238706,21.0852609 L161.238706,7.9217668 L157.430196,7.9217668 L157.430196,29.0578204 L161.238706,29.0578204 L161.238706,22.3367632 L161.323554,22.3367632 L166.42474,29.0578204 L171.436445,29.0578204 L165.50746,21.6108002 L171.151956,15.4311331 Z M178.351513,20.6706764 C176.391822,20.20854 175.700921,19.9598598 175.700921,19.1754253 C175.700921,18.094054 177.087714,17.8569977 177.715514,17.8569977 C178.897318,17.8569977 180.232061,18.5540771 180.734373,19.2159327 L182.979979,17.0873572 C181.941488,15.7985176 179.899088,15.0475458 177.742965,15.0475458 C174.986848,15.0475458 172.092765,16.4170479 172.092765,19.4769412 C172.092765,22.1042859 174.176876,22.8971742 176.216423,23.3800927 C178.365773,23.8746352 179.132966,24.2360316 179.132966,25.0916182 C179.132966,26.3526309 177.684498,26.5586903 177.186108,26.5586903 C175.94049,26.5586903 174.496658,25.8538617 173.717701,24.940508 L171.405785,27.2561219 C172.668872,28.6400659 174.8307,29.472757 177.047429,29.472757 C180.770736,29.472757 182.979979,27.7193152 182.979979,24.8253261 C182.979979,22.0567338 180.275911,21.1261205 178.351513,20.6706764 L178.351513,20.6706764 Z M130.738894,26.2268819 C128.255502,26.2268819 127.123964,24.1342347 127.123964,22.1898799 C127.123964,20.2715906 128.255502,18.2071225 130.738894,18.2071225 C133.222286,18.2071225 134.353468,20.2715906 134.353468,22.1898799 C134.353468,24.1342347 133.222286,26.2268819 130.738894,26.2268819 L130.738894,26.2268819 Z M130.738894,15.0475458 C126.405613,15.0475458 123.260552,18.0510809 123.260552,22.1898799 C123.260552,26.472392 126.475487,29.4780406 130.738894,29.4780406 C135.001945,29.4780406 138.216879,26.4435084 138.216879,22.1898799 C138.216879,18.0510809 135.071819,15.0475458 130.738894,15.0475458 L130.738894,15.0475458 Z M43.9912723,26.2268819 C41.6365768,26.2268819 40.2975555,24.1958764 40.2975555,22.1898799 C40.2975555,20.2715906 41.5271307,18.2071225 43.9912723,18.2071225 C46.2582682,18.2071225 47.6611034,20.3029398 47.6611034,22.2444767 C47.6611034,24.2018645 46.2885709,26.2268819 43.9912723,26.2268819 L43.9912723,26.2268819 Z M47.6892671,17.160975 L47.6047762,17.160975 C47.0668147,16.5730894 45.6090782,15.0475458 43.2426182,15.0475458 C39.3595988,15.0475458 36.3671214,18.0510809 36.3671214,22.1898799 C36.3671214,26.3917294 39.128229,29.4414078 43.0597327,29.4414078 C44.8450944,29.4414078 46.5217232,28.5069198 47.4935475,27.4199127 L47.5502314,27.4199127 L47.5502314,35.7683105 L51.3583853,35.7683105 L51.3583853,15.4311331 L47.6892671,15.4311331 L47.6892671,17.160975 Z M63.7218733,22.9021055 C63.7218733,24.5033804 62.6655579,26.2268819 60.6965976,26.2268819 C59.1786122,26.2268819 58.3679268,25.1571345 58.3679268,22.9570547 L58.3679268,15.4311331 L54.5597729,15.4311331 L54.5597729,23.8883725 C54.5597729,26.7024035 55.9807897,29.4414078 59.781457,29.4414078 C61.5735925,29.4414078 63.0748222,28.0476012 63.8313193,27.0187134 L63.8883596,27.0187134 L63.8883596,29.0578204 L67.5300272,29.0578204 L67.5300272,15.4311331 L63.7218733,15.4311331 L63.7218733,22.9021055 Z M70.6469238,29.0578204 L74.4550777,29.0578204 L74.4550777,15.4307809 L70.6469238,15.4307809 L70.6469238,29.0578204 Z M84.3743885,26.2268819 C82.0556996,26.2268819 80.8867295,24.1800257 80.8867295,22.2007993 C80.8867295,20.221925 82.1551632,18.2620716 84.2631599,18.2620716 C85.2503133,18.2620716 86.4984272,18.7513305 86.9882604,19.4388994 L89.442777,17.0225453 C88.2545555,15.785837 86.3608172,15.0475458 84.2631599,15.0475458 C79.9944049,15.0475458 76.8960466,18.0743287 76.8960466,22.2444767 C76.8960466,26.4822546 79.9594678,29.4414078 84.3465808,29.4414078 C86.4339,29.4414078 88.3629325,28.8380238 89.5065903,27.6231542 L87.1190972,25.0916182 C86.5675884,25.7548827 85.4114525,26.2268819 84.3743885,26.2268819 L84.3743885,26.2268819 Z" id="Fill-3" fill="#000000"></path>
                            <path d="M0,15.8507897 C0,7.09661359 7.18280148,7.04476413e-05 16.0425882,7.04476413e-05 C24.9027314,7.04476413e-05 32.0851764,7.09661359 32.0851764,15.8507897 C32.0851764,24.6046136 24.9027314,31.701509 16.0425882,31.701509 C7.18280148,31.701509 0,24.6046136 0,15.8507897" id="Fill-5" fill="#000000"></path>
                            <path d="M21.3916862,9.68711429 L20.5004313,9.68711429 L20.5004313,11.9766626 L21.3916862,11.9766626 C23.5538706,11.9766626 25.3132077,13.7149581 25.3132077,15.8512829 C25.3132077,17.9876076 23.5538706,19.7259031 21.3916862,19.7259031 L19.2498224,19.7259031 L19.2498224,7.74980413 C19.2498224,6.48526896 18.2124017,5.46025578 16.9325596,5.46025578 L16.9325596,22.0154515 L21.3916862,22.0154515 C24.8372776,22.0154515 27.6304705,19.2556651 27.6304705,15.8512829 C27.6304705,12.4469006 24.8372776,9.68711429 21.3916862,9.68711429 M4.45463458,15.8502262 C4.45463458,19.2546084 7.24782743,22.0143947 10.6934189,22.0143947 L11.5846738,22.0143947 L11.5846738,19.7248464 L10.6934189,19.7248464 C8.53123451,19.7248464 6.77189732,17.9869031 6.77189732,15.8502262 C6.77189732,13.7139014 8.53123451,11.9756059 10.6934189,11.9756059 L12.8352827,11.9756059 L12.8352827,23.9517049 C12.8352827,25.2162401 13.8727033,26.2412532 15.1525454,26.2412532 L15.1525454,9.68605753 L10.6934189,9.68605753 C7.24782743,9.68605753 4.45463458,12.4461962 4.45463458,15.8502262" id="Fill-7" fill="#FFFFFF"></path>
                            <path d="M60.8465424,8.33085631 C60.8465424,9.25548157 60.3199889,10.2086381 59.2094854,10.2086381 C58.0836522,10.2086381 57.8936366,9.18292047 57.8936366,8.35973977 L57.8936366,4.51787769 L56.1392904,4.51787769 L56.1392904,8.85075985 C56.1392904,10.2667575 56.8993526,11.6528148 58.7271382,11.6528148 C59.7645589,11.6528148 60.5984169,11.0318188 60.9050086,10.3382618 L60.9342418,10.3382618 L60.9342418,11.4506301 L62.6008885,11.4506301 L62.6008885,4.51787769 L60.8465424,4.51787769 L60.8465424,8.33085631 Z M49.229926,6.0494094 L51.1967473,6.0494094 L51.1967473,11.4506301 L52.9510934,11.4506301 L52.9510934,6.0494094 L54.9179147,6.0494094 L54.9179147,4.51365082 L49.229926,4.51365082 L49.229926,6.0494094 Z M64.3965888,11.4506301 L66.150935,11.4506301 L66.150935,4.51752545 L64.3965888,4.51752545 L64.3965888,11.4506301 Z M67.3797972,4.51365082 L67.3797972,6.0494094 L69.3469751,6.0494094 L69.3469751,11.4506301 L71.1013212,11.4506301 L71.1013212,6.0494094 L73.0681425,6.0494094 L73.0681425,4.51365082 L67.3797972,4.51365082 Z M70.2239699,3.60980758 C70.8093461,3.60980758 71.2838502,3.14062629 71.2838502,2.56225116 C71.2838502,1.98387602 70.8093461,1.51469473 70.2239699,1.51469473 C69.6385937,1.51469473 69.1640896,1.98387602 69.1640896,2.56225116 C69.1640896,3.14062629 69.6385937,3.60980758 70.2239699,3.60980758 L70.2239699,3.60980758 Z M38.323105,11.4506301 L40.0774512,11.4506301 L40.0774512,4.51752545 L38.323105,4.51752545 L38.323105,11.4506301 Z M45.7483279,4.31534071 C44.7109072,4.31534071 43.8774056,4.93668891 43.5708139,5.62954146 L43.5412242,5.62954146 L43.5412242,4.51787769 L41.8752905,4.51787769 L41.8752905,11.4506301 L43.6289237,11.4506301 L43.6289237,7.63729924 C43.6289237,6.71337842 44.1554771,5.75951736 45.2659807,5.75951736 C46.3918139,5.75951736 46.5821859,6.78558726 46.5821859,7.60841571 L46.5821859,11.4506301 L48.3361756,11.4506301 L48.3361756,7.11739565 C48.3361756,5.70210253 47.5761134,4.31534071 45.7483279,4.31534071 L45.7483279,4.31534071 Z M52.0740986,3.60980758 C52.6594748,3.60980758 53.1339789,3.14062629 53.1339789,2.56225116 C53.1339789,1.98387602 52.6594748,1.51469473 52.0740986,1.51469473 C51.4887224,1.51469473 51.0138618,1.98387602 51.0138618,2.56225116 C51.0138618,3.14062629 51.4887224,3.60980758 52.0740986,3.60980758 L52.0740986,3.60980758 Z" id="Fill-9" fill="#000000"></path>
                        </g>
                    </g>
                </g>
            </g>
        </g>
    </g>
</svg>