<?xml version="1.0" encoding="UTF-8"?>
<svg width="127px" height="143px" viewBox="0 0 127 143" version="1.1" xmlns="http://www.w3.org/2000/svg" xmlns:xlink="http://www.w3.org/1999/xlink">
    <!-- Generator: Sketch 63.1 (92452) - https://sketch.com -->
    <title>medal (1) copy</title>
    <desc>Created with Sketch.</desc>
    <g id="Billing-System-Software" stroke="none" stroke-width="1" fill="none" fill-rule="evenodd">
        <g id="BSS---01-Copy-5" transform="translate(-378.000000, -1434.000000)" fill-rule="nonzero">
            <g id="Group-22" transform="translate(267.000000, 1434.000000)">
                <g id="medal-(1)-copy" transform="translate(111.000000, 0.000000)">
                    <polygon id="Path" fill="#FFFFFF" points="11.0066667 110.982432 64.9475269 138.35119 116.84 110.982432 116.84 3.95833333 11.0066667 3.95833333"></polygon>
                    <polygon id="Path" fill="#F2F3F2" points="117.686667 4.80357143 9.31333333 113.261988 65.4866161 140.886905 117.686667 114.350655"></polygon>
                    <path d="M7.62,39.7873522 L7.62,113.442194 L9.53829308,114.395214 L63.661562,141.760507 L65.3058132,142.577381 L66.9500644,141.760507 L119.15504,114.395214 L121.073333,113.442194 L121.073333,0.577380952 L7.62,0.577380952 L7.62,39.7873522 Z M11.1825443,111.400008 L11.1825443,4.11717002 L117.510789,4.11717002 L117.510789,111.400008 L65.3058132,138.7653 L11.1825443,111.400008 Z" id="Shape" fill="#DCDEDC"></path>
                    <path d="M63.9920419,6.59348739 C64.5417103,6.59348739 65.0913787,6.59348739 65.6410471,6.72607376 L63.9920419,9.77556022 C61.518534,9.64297386 59.3198604,11.499183 59.1824433,13.8857376 C59.0450262,16.2722923 60.9688656,18.3936741 63.4423735,18.5262605 L63.9920419,18.5262605 C65.0913787,18.5262605 66.1907155,18.1285014 67.0152182,17.4655696 L68.8016405,20.3824697 C67.4274695,21.3105742 65.7784642,21.8409197 63.9920419,21.8409197 C59.5946946,21.9735061 55.8844328,18.7914332 55.7470157,14.5486695 C55.6095986,10.3059057 58.9076091,6.72607376 63.3049564,6.59348739 L63.9920419,6.59348739 Z M69.6261431,13.0902194 L71.6873997,16.4048786 L69.6261431,19.5869514 L67.7023037,16.4048786 L63.7172077,16.4048786 L65.7784642,13.0902194 L69.6261431,13.0902194 Z M66.3281326,11.8969421 C66.3281326,11.3665966 66.4655497,10.8362512 66.7403839,10.4384921 C67.0152182,10.040733 67.5648866,9.64297386 67.9771379,9.37780112 L68.2519721,9.24521475 C68.8016405,8.98004202 68.9390576,8.84745565 68.9390576,8.58228291 C68.9390576,8.31711018 68.5268063,8.05193744 68.2519721,8.05193744 C67.7023037,8.05193744 67.2900524,8.31711018 67.0152182,8.84745565 L66.3281326,8.18452381 C66.4655497,7.91935107 66.7403839,7.65417834 67.0152182,7.3890056 C67.4274695,7.12383287 67.8397208,7.12383287 68.2519721,7.12383287 C68.6642234,7.12383287 69.2138918,7.25641923 69.488726,7.52159197 C69.7635602,7.78676471 70.0383944,8.18452381 70.0383944,8.58228291 C70.0383944,9.24521475 69.6261431,9.77556022 68.8016405,10.040733 L68.3893892,10.3059057 C67.9771379,10.5710784 67.7023037,10.7036648 67.5648866,11.1014239 L70.0383944,11.1014239 L70.0383944,12.0295285 L66.3281326,11.8969421 L66.3281326,11.8969421 Z M63.9920419,28.4702381 L77.0466667,21.3105742 L77.0466667,1.42261905 L50.8,1.42261905 L50.8,21.1779879 L63.9920419,28.4702381 Z" id="logo" fill="#FF492C"></path>
                    <polygon id="banner" fill="#FF492C" points="122.76211 78.3392857 4.37459634 78.3392857 0 87.6369048 4.37459634 96.9345238 122.76211 96.9345238 127 87.6369048"></polygon>
                    <path d="M34.9444946,71.427268 L34.9444946,71.427268 C34.8810386,71.427268 34.8266477,71.4045236 34.7813219,71.3590349 L34.7813219,71.3590349 L34.7813219,71.3590349 C34.7359962,71.3135461 34.7133333,71.2589596 34.7133333,71.1952753 L34.7133333,71.1952753 L34.7133333,58.2855641 L34.7133333,58.2855641 C34.7133333,58.2218799 34.7359962,58.1672933 34.7813219,58.1218046 L34.7813219,58.1218046 L34.7813219,58.1218046 C34.8266477,58.0763158 34.8810386,58.0535714 34.9444946,58.0535714 L34.9444946,58.0535714 L37.1745211,58.0535714 L37.1745211,58.0535714 C37.2379772,58.0535714 37.292368,58.0763158 37.3376938,58.1218046 L37.3376938,58.1218046 L37.3376938,58.1218046 C37.3830195,58.1672933 37.4056824,58.2218799 37.4056824,58.2855641 L37.4056824,58.2855641 L37.4056824,69.0254613 L37.4056824,69.0254613 C37.4056824,69.0891456 37.4374104,69.1209877 37.5008665,69.1209877 L37.5008665,69.1209877 L43.7286234,69.1209877 L43.7286234,69.1209877 C43.7920794,69.1209877 43.8419377,69.1391832 43.8781983,69.1755742 L43.8781983,69.1755742 L43.8781983,69.1755742 C43.9235241,69.221063 43.9461869,69.2756495 43.9461869,69.3393338 L43.9461869,69.3393338 L43.9461869,71.1952753 L43.9461869,71.1952753 C43.9461869,71.2589596 43.9235241,71.3135461 43.8781983,71.3590349 L43.8781983,71.3590349 L43.8781983,71.3590349 C43.8419377,71.4045236 43.7920794,71.427268 43.7286234,71.427268 L43.7286234,71.427268 L34.9444946,71.427268 Z M54.1036857,65.504631 L54.1036857,65.504631 C54.1762069,65.9868119 54.1988698,66.5281282 54.1716743,67.1285798 L54.1716743,67.1285798 L54.1716743,67.1285798 C54.1626092,67.2832416 54.0810228,67.3605725 53.9269153,67.3605725 L53.9269153,67.3605725 L48.0391014,67.3605725 L48.0391014,67.3605725 C47.9665802,67.3605725 47.9439174,67.3924147 47.9711128,67.4560989 L47.9711128,67.4560989 L47.9711128,67.4560989 C48.0073734,67.710836 48.075362,67.9655731 48.1750787,68.2203102 L48.1750787,68.2203102 L48.1750787,68.2203102 C48.5104891,68.9299349 49.1858427,69.2847472 50.2011393,69.2847472 L50.2011393,69.2847472 L50.2011393,69.2847472 C51.0079375,69.2756495 51.6470305,68.9435815 52.1184182,68.2885433 L52.1184182,68.2885433 L52.1184182,68.2885433 C52.1728091,68.2157613 52.2317326,68.1793703 52.2951886,68.1793703 L52.2951886,68.1793703 L52.2951886,68.1793703 C52.3314492,68.1793703 52.3722424,68.2066635 52.4175681,68.2612501 L52.4175681,68.2612501 L53.7909381,69.6122663 L53.7909381,69.6122663 C53.8543941,69.6759506 53.8861221,69.735086 53.8861221,69.7896725 L53.8861221,69.7896725 L53.8861221,69.7896725 C53.8861221,69.807868 53.8634593,69.8579057 53.8181335,69.9397855 L53.8181335,69.9397855 L53.8181335,69.9397855 C53.3920715,70.4583574 52.8526952,70.8632074 52.2000045,71.1543354 L52.2000045,71.1543354 L52.2000045,71.1543354 C51.5382487,71.4363658 50.8130368,71.577381 50.0243689,71.577381 L50.0243689,71.577381 L50.0243689,71.577381 C48.9365511,71.577381 48.011906,71.3317416 47.2504335,70.840463 L47.2504335,70.840463 L47.2504335,70.840463 C46.4980262,70.3400866 45.9586499,69.6441085 45.6323045,68.7525287 L45.6323045,68.7525287 L45.6323045,68.7525287 C45.3603501,68.115686 45.2243729,67.2832416 45.2243729,66.2551956 L45.2243729,66.2551956 L45.2243729,66.2551956 C45.2243729,65.5546686 45.3195569,64.9360214 45.509925,64.399254 L45.509925,64.399254 L45.509925,64.399254 C45.8000098,63.4894787 46.3121907,62.7707563 47.0464677,62.2430866 L47.0464677,62.2430866 L47.0464677,62.2430866 C47.7716796,61.7063192 48.6374012,61.4379355 49.6436327,61.4379355 L49.6436327,61.4379355 L49.6436327,61.4379355 C50.9127535,61.4379355 51.9325827,61.8063945 52.7031203,62.5433124 L52.7031203,62.5433124 L52.7031203,62.5433124 C53.4645927,63.2802304 53.9314479,64.2673366 54.1036857,65.504631 L54.1036857,65.504631 Z M49.6572304,63.7715091 L49.6572304,63.7715091 C48.8594974,63.7715091 48.3337188,64.1445169 48.0798946,64.8905327 L48.0798946,64.8905327 L48.0798946,64.8905327 C48.0345689,65.0542922 47.9892431,65.2589916 47.9439174,65.504631 L47.9439174,65.504631 L47.9439174,65.504631 C47.9439174,65.5683152 47.9756454,65.6001574 48.0391014,65.6001574 L48.0391014,65.6001574 L51.343348,65.6001574 L51.343348,65.6001574 C51.4158692,65.6001574 51.4385321,65.5683152 51.4113366,65.504631 L51.4113366,65.504631 L51.4113366,65.504631 C51.3478806,65.1316231 51.3161526,64.9542169 51.3161526,64.9724124 L51.3161526,64.9724124 L51.3161526,64.9724124 C51.2073708,64.5903068 51.0079375,64.2946298 50.7178528,64.0853815 L50.7178528,64.0853815 L50.7178528,64.0853815 C50.4368332,63.8761332 50.0832924,63.7715091 49.6572304,63.7715091 L49.6572304,63.7715091 Z M59.7331428,61.4515821 L59.7331428,61.4515821 C60.5580713,61.4515821 61.2923483,61.5971461 61.9359739,61.8882742 L61.9359739,61.8882742 L61.9359739,61.8882742 C62.5886646,62.1703046 63.0963129,62.5615079 63.4589188,63.0618843 L63.4589188,63.0618843 L63.4589188,63.0618843 C63.8215247,63.553163 64.0028277,64.1081259 64.0028277,64.7267731 L64.0028277,64.7267731 L64.0028277,71.1952753 L64.0028277,71.1952753 C64.0028277,71.2589596 63.9801648,71.3135461 63.9348391,71.3590349 L63.9348391,71.3590349 L63.9348391,71.3590349 C63.8895134,71.4045236 63.8351225,71.427268 63.7716664,71.427268 L63.7716664,71.427268 L61.5416399,71.427268 L61.5416399,71.427268 C61.4781839,71.427268 61.423793,71.4045236 61.3784673,71.3590349 L61.3784673,71.3590349 L61.3784673,71.3590349 C61.3331415,71.3135461 61.3104786,71.2589596 61.3104786,71.1952753 L61.3104786,71.1952753 L61.3104786,70.5675304 L61.3104786,70.5675304 C61.3104786,70.5311394 61.2968809,70.5038461 61.2696855,70.4856506 L61.2696855,70.4856506 L61.2696855,70.4856506 C61.2515552,70.4765529 61.2288923,70.4901995 61.2016969,70.5265905 L61.2016969,70.5265905 L61.2016969,70.5265905 C60.6668531,71.2271175 59.8101966,71.577381 58.6317273,71.577381 L58.6317273,71.577381 L58.6317273,71.577381 C57.6436261,71.577381 56.8413605,71.3362905 56.2249304,70.8541096 L56.2249304,70.8541096 L56.2249304,70.8541096 C55.6175655,70.3719287 55.313883,69.6577551 55.313883,68.7115888 L55.313883,68.7115888 L55.313883,68.7115888 C55.313883,67.7290315 55.6583586,66.9693692 56.3473099,66.4326017 L56.3473099,66.4326017 L56.3473099,66.4326017 C57.027196,65.8867366 58.0016995,65.613804 59.2708203,65.613804 L59.2708203,65.613804 L61.2152946,65.613804 L61.2152946,65.613804 C61.2787506,65.613804 61.3104786,65.5819619 61.3104786,65.5182776 L61.3104786,65.5182776 L61.3104786,65.1088787 L61.3104786,65.1088787 C61.3104786,64.6812843 61.1835666,64.3492164 60.9297424,64.1126748 L60.9297424,64.1126748 L60.9297424,64.1126748 C60.6759183,63.885231 60.295182,63.7715091 59.7875337,63.7715091 L59.7875337,63.7715091 L59.7875337,63.7715091 C59.3977323,63.7715091 59.071387,63.8397422 58.8084977,63.9762085 L58.8084977,63.9762085 L58.8084977,63.9762085 C58.5456084,64.1126748 58.3779031,64.3082765 58.305382,64.5630136 L58.305382,64.5630136 L58.305382,64.5630136 C58.2691214,64.7085776 58.187535,64.7722619 58.060623,64.7540664 L58.060623,64.7540664 L55.7490101,64.4538405 L55.7490101,64.4538405 C55.6039677,64.4265473 55.5359791,64.3674119 55.5450443,64.2764343 L55.5450443,64.2764343 L55.5450443,64.2764343 C55.5994352,63.7487647 55.8124662,63.2665838 56.1841372,62.8298916 L56.1841372,62.8298916 L56.1841372,62.8298916 C56.5558083,62.3931995 57.0498589,62.0565827 57.666289,61.8200411 L57.666289,61.8200411 L57.666289,61.8200411 C58.2827191,61.5744018 58.9716704,61.4515821 59.7331428,61.4515821 L59.7331428,61.4515821 Z M59.3524066,69.5713265 L59.3524066,69.5713265 C59.8963155,69.5713265 60.3586381,69.4257624 60.7393743,69.1346343 L60.7393743,69.1346343 L60.7393743,69.1346343 C61.1201105,68.8435062 61.3104786,68.4659495 61.3104786,68.0019641 L61.3104786,68.0019641 L61.3104786,67.3196326 L61.3104786,67.3196326 C61.3104786,67.2559484 61.2787506,67.2241062 61.2152946,67.2241062 L61.2152946,67.2241062 L59.8419246,67.2241062 L59.8419246,67.2241062 C59.2708203,67.2241062 58.826628,67.3332793 58.5093478,67.5516253 L58.5093478,67.5516253 L58.5093478,67.5516253 C58.1830025,67.7699714 58.0198298,68.0747461 58.0198298,68.4659495 L58.0198298,68.4659495 L58.0198298,68.4659495 C58.0198298,68.8116641 58.1422093,69.0845967 58.3869683,69.2847472 L58.3869683,69.2847472 L58.3869683,69.2847472 C58.6226622,69.4758001 58.9444749,69.5713265 59.3524066,69.5713265 L59.3524066,69.5713265 Z M71.9574954,58.2855641 L71.9574954,58.2855641 C71.9574954,58.2218799 71.9801583,58.1672933 72.025484,58.1218046 L72.025484,58.1218046 L72.025484,58.1218046 C72.0708098,58.0763158 72.1252006,58.0535714 72.1886567,58.0535714 L72.1886567,58.0535714 L74.4050855,58.0535714 L74.4050855,58.0535714 C74.4685415,58.0535714 74.5229324,58.0763158 74.5682581,58.1218046 L74.5682581,58.1218046 L74.5682581,58.1218046 C74.6135839,58.1672933 74.6362467,58.2218799 74.6362467,58.2855641 L74.6362467,58.2855641 L74.6362467,71.1952753 L74.6362467,71.1952753 C74.6362467,71.2589596 74.6135839,71.3135461 74.5682581,71.3590349 L74.5682581,71.3590349 L74.5682581,71.3590349 C74.5229324,71.4045236 74.4685415,71.427268 74.4050855,71.427268 L74.4050855,71.427268 L72.1886567,71.427268 L72.1886567,71.427268 C72.1252006,71.427268 72.0708098,71.4045236 72.025484,71.3590349 L72.025484,71.3590349 L72.025484,71.3590349 C71.9801583,71.3135461 71.9574954,71.2589596 71.9574954,71.1952753 L71.9574954,71.1952753 L71.9574954,70.5675304 L71.9574954,70.5675304 C71.9574954,70.5311394 71.9438977,70.508395 71.9167022,70.4992972 L71.9167022,70.4992972 L71.9167022,70.4992972 C71.8895068,70.4901995 71.8623113,70.4992972 71.8351159,70.5265905 L71.8351159,70.5265905 L71.8351159,70.5265905 C71.3093373,71.2271175 70.5795929,71.577381 69.6458826,71.577381 L69.6458826,71.577381 L69.6458826,71.577381 C68.757498,71.577381 67.9960256,71.3317416 67.3614652,70.840463 L67.3614652,70.840463 L67.3614652,70.840463 C66.7178396,70.3400866 66.2555171,69.6577551 65.9744975,68.7934686 L65.9744975,68.7934686 L65.9744975,68.7934686 C65.7569339,68.1293326 65.6481521,67.3560237 65.6481521,66.4735416 L65.6481521,66.4735416 L65.6481521,66.4735416 C65.6481521,65.5728641 65.7659991,64.7859085 66.0016929,64.1126748 L66.0016929,64.1126748 L66.0016929,64.1126748 C66.2917777,63.293877 66.7495677,62.6479366 67.3750629,62.1748534 L67.3750629,62.1748534 L67.3750629,62.1748534 C68.0005581,61.6926725 68.7801609,61.4515821 69.7138712,61.4515821 L69.7138712,61.4515821 L69.7138712,61.4515821 C70.620386,61.4515821 71.3274676,61.7700034 71.8351159,62.4068461 L71.8351159,62.4068461 L71.8351159,62.4068461 C71.8623113,62.4432372 71.8895068,62.4568838 71.9167022,62.447786 L71.9167022,62.447786 L71.9167022,62.447786 C71.9438977,62.4386883 71.9574954,62.411395 71.9574954,62.3659063 L71.9574954,62.3659063 L71.9574954,58.2855641 Z M71.5495637,68.4523029 L71.5495637,68.4523029 C71.8033879,67.9792197 71.9303,67.3332793 71.9303,66.5144815 L71.9303,66.5144815 L71.9303,66.5144815 C71.9303,65.6592928 71.7943227,64.9906079 71.5223683,64.508427 L71.5223683,64.508427 L71.5223683,64.508427 C71.2232184,64.0171484 70.7971564,63.7715091 70.2441824,63.7715091 L70.2441824,63.7715091 L70.2441824,63.7715091 C69.6458826,63.7715091 69.1926252,64.0171484 68.8844101,64.508427 L68.8844101,64.508427 L68.8844101,64.508427 C68.5671299,65.0088034 68.4084898,65.686586 68.4084898,66.5417748 L68.4084898,66.5417748 L68.4084898,66.5417748 C68.4084898,67.305986 68.544467,67.9428287 68.8164215,68.4523029 L68.8164215,68.4523029 L68.8164215,68.4523029 C69.1337017,68.998168 69.6005568,69.2711006 70.2169869,69.2711006 L70.2169869,69.2711006 L70.2169869,69.2711006 C70.7880913,69.2711006 71.2322835,68.998168 71.5495637,68.4523029 L71.5495637,68.4523029 Z M85.3240567,65.504631 L85.3240567,65.504631 C85.3965779,65.9868119 85.4192407,66.5281282 85.3920453,67.1285798 L85.3920453,67.1285798 L85.3920453,67.1285798 C85.3829801,67.2832416 85.3013938,67.3605725 85.1472863,67.3605725 L85.1472863,67.3605725 L79.2594724,67.3605725 L79.2594724,67.3605725 C79.1869512,67.3605725 79.1642884,67.3924147 79.1914838,67.4560989 L79.1914838,67.4560989 L79.1914838,67.4560989 C79.2277444,67.710836 79.295733,67.9655731 79.3954496,68.2203102 L79.3954496,68.2203102 L79.3954496,68.2203102 C79.7308601,68.9299349 80.4062137,69.2847472 81.4215103,69.2847472 L81.4215103,69.2847472 L81.4215103,69.2847472 C82.2283085,69.2756495 82.8674015,68.9435815 83.3387892,68.2885433 L83.3387892,68.2885433 L83.3387892,68.2885433 C83.3931801,68.2157613 83.4521035,68.1793703 83.5155596,68.1793703 L83.5155596,68.1793703 L83.5155596,68.1793703 C83.5518202,68.1793703 83.5926133,68.2066635 83.6379391,68.2612501 L83.6379391,68.2612501 L85.0113091,69.6122663 L85.0113091,69.6122663 C85.0747651,69.6759506 85.1064931,69.735086 85.1064931,69.7896725 L85.1064931,69.7896725 L85.1064931,69.7896725 C85.1064931,69.807868 85.0838302,69.8579057 85.0385045,69.9397855 L85.0385045,69.9397855 L85.0385045,69.9397855 C84.6124425,70.4583574 84.0730662,70.8632074 83.4203755,71.1543354 L83.4203755,71.1543354 L83.4203755,71.1543354 C82.7586197,71.4363658 82.0334078,71.577381 81.2447399,71.577381 L81.2447399,71.577381 L81.2447399,71.577381 C80.1569221,71.577381 79.232277,71.3317416 78.4708045,70.840463 L78.4708045,70.840463 L78.4708045,70.840463 C77.7183972,70.3400866 77.1790209,69.6441085 76.8526755,68.7525287 L76.8526755,68.7525287 L76.8526755,68.7525287 C76.5807211,68.115686 76.4447438,67.2832416 76.4447438,66.2551956 L76.4447438,66.2551956 L76.4447438,66.2551956 C76.4447438,65.5546686 76.5399279,64.9360214 76.730296,64.399254 L76.730296,64.399254 L76.730296,64.399254 C77.0203808,63.4894787 77.5325617,62.7707563 78.2668387,62.2430866 L78.2668387,62.2430866 L78.2668387,62.2430866 C78.9920505,61.7063192 79.8577722,61.4379355 80.8640037,61.4379355 L80.8640037,61.4379355 L80.8640037,61.4379355 C82.1331244,61.4379355 83.1529536,61.8063945 83.9234913,62.5433124 L83.9234913,62.5433124 L83.9234913,62.5433124 C84.6849637,63.2802304 85.1518189,64.2673366 85.3240567,65.504631 L85.3240567,65.504631 Z M80.8776014,63.7715091 L80.8776014,63.7715091 C80.0798683,63.7715091 79.5540897,64.1445169 79.3002656,64.8905327 L79.3002656,64.8905327 L79.3002656,64.8905327 C79.2549398,65.0542922 79.2096141,65.2589916 79.1642884,65.504631 L79.1642884,65.504631 L79.1642884,65.504631 C79.1642884,65.5683152 79.1960164,65.6001574 79.2594724,65.6001574 L79.2594724,65.6001574 L82.563719,65.6001574 L82.563719,65.6001574 C82.6362402,65.6001574 82.6589031,65.5683152 82.6317076,65.504631 L82.6317076,65.504631 L82.6317076,65.504631 C82.5682516,65.1316231 82.5365236,64.9542169 82.5365236,64.9724124 L82.5365236,64.9724124 L82.5365236,64.9724124 C82.4277418,64.5903068 82.2283085,64.2946298 81.9382238,64.0853815 L81.9382238,64.0853815 L81.9382238,64.0853815 C81.6572042,63.8761332 81.3036634,63.7715091 80.8776014,63.7715091 L80.8776014,63.7715091 Z M91.9189521,61.4788754 L91.9189521,61.4788754 C92.3812747,61.4788754 92.7438806,61.565304 93.0067699,61.7381613 L93.0067699,61.7381613 L93.0067699,61.7381613 C93.1064865,61.7927478 93.1472797,61.8882742 93.1291494,62.0247405 L93.1291494,62.0247405 L92.7212177,64.2082012 L92.7212177,64.2082012 C92.7121526,64.362863 92.6260337,64.4083518 92.462861,64.3446675 L92.462861,64.3446675 L92.462861,64.3446675 C92.2724929,64.2809832 92.0503968,64.2491411 91.7965726,64.2491411 L91.7965726,64.2491411 L91.7965726,64.2491411 C91.6877908,64.2491411 91.547281,64.2582388 91.3750432,64.2764343 L91.3750432,64.2764343 L91.3750432,64.2764343 C90.9127206,64.3219231 90.5229193,64.4902315 90.2056391,64.7813596 L90.2056391,64.7813596 L90.2056391,64.7813596 C89.8883589,65.0815855 89.7297188,65.4818866 89.7297188,65.982263 L89.7297188,65.982263 L89.7297188,71.1952753 L89.7297188,71.1952753 C89.7297188,71.2589596 89.7115885,71.3135461 89.6753279,71.3590349 L89.6753279,71.3590349 L89.6753279,71.3590349 C89.6300021,71.4045236 89.5756113,71.427268 89.5121552,71.427268 L89.5121552,71.427268 L87.2821287,71.427268 L87.2821287,71.427268 C87.2186727,71.427268 87.1642818,71.4045236 87.1189561,71.3590349 L87.1189561,71.3590349 L87.1189561,71.3590349 C87.0736303,71.3135461 87.0509674,71.2589596 87.0509674,71.1952753 L87.0509674,71.1952753 L87.0509674,61.8336877 L87.0509674,61.8336877 C87.0509674,61.7700034 87.0736303,61.7154169 87.1189561,61.6699282 L87.1189561,61.6699282 L87.1189561,61.6699282 C87.1642818,61.6244394 87.2186727,61.601695 87.2821287,61.601695 L87.2821287,61.601695 L89.5121552,61.601695 L89.5121552,61.601695 C89.5756113,61.601695 89.6300021,61.6244394 89.6753279,61.6699282 L89.6753279,61.6699282 L89.6753279,61.6699282 C89.7115885,61.7154169 89.7297188,61.7700034 89.7297188,61.8336877 L89.7297188,61.8336877 L89.7297188,62.5569591 L89.7297188,62.5569591 C89.7297188,62.6024478 89.7433165,62.6297411 89.7705119,62.6388388 L89.7705119,62.6388388 L89.7705119,62.6388388 C89.7977074,62.6479366 89.8158377,62.6433877 89.8249028,62.6251922 L89.8249028,62.6251922 L89.8249028,62.6251922 C90.3506814,61.860981 91.0486979,61.4788754 91.9189521,61.4788754 L91.9189521,61.4788754 Z" id="Shape" fill="#252530"></path>
                    <path d="M25.5707542,38.7632082 L25.5707542,38.7632082 C25.6347351,38.6631329 25.7261364,38.6130952 25.844958,38.6130952 L25.844958,38.6130952 L28.0934295,38.6130952 L28.0934295,38.6130952 C28.1574104,38.6130952 28.2122512,38.6358396 28.2579518,38.6813284 L28.2579518,38.6813284 L28.2579518,38.6813284 C28.3036525,38.7268171 28.3265028,38.7814037 28.3265028,38.8450879 L28.3265028,38.8450879 L28.3265028,51.7547991 L28.3265028,51.7547991 C28.3265028,51.8184834 28.3036525,51.8730699 28.2579518,51.9185587 L28.2579518,51.9185587 L28.2579518,51.9185587 C28.2122512,51.9640475 28.1574104,51.9867918 28.0934295,51.9867918 L28.0934295,51.9867918 L25.844958,51.9867918 L25.844958,51.9867918 C25.7809771,51.9867918 25.7261364,51.9640475 25.6804357,51.9185587 L25.6804357,51.9185587 L25.6804357,51.9185587 C25.6347351,51.8730699 25.6118848,51.8184834 25.6118848,51.7547991 L25.6118848,51.7547991 L25.6118848,43.3348289 L25.6118848,43.3348289 C25.6118848,43.2802424 25.5981746,43.2529492 25.5707542,43.2529492 L25.5707542,43.2529492 L25.5707542,43.2529492 C25.552474,43.2529492 25.5296236,43.2711447 25.5022032,43.3075357 L25.5022032,43.3075357 L23.4593847,46.4872003 L23.4593847,46.4872003 C23.3954038,46.5872756 23.3085726,46.6373132 23.198891,46.6373132 L23.198891,46.6373132 L22.0609451,46.6373132 L22.0609451,46.6373132 C21.9512636,46.6373132 21.8644323,46.5872756 21.8004514,46.4872003 L21.8004514,46.4872003 L19.7576329,43.3075357 L19.7576329,43.3075357 C19.7302125,43.2711447 19.7073622,43.257498 19.6890819,43.2665958 L19.6890819,43.2665958 L19.6890819,43.2665958 C19.6616615,43.2756935 19.6479513,43.3029868 19.6479513,43.3484756 L19.6479513,43.3484756 L19.6479513,51.7547991 L19.6479513,51.7547991 C19.6479513,51.8184834 19.625101,51.8730699 19.5794004,51.9185587 L19.5794004,51.9185587 L19.5794004,51.9185587 C19.5336997,51.9640475 19.478859,51.9867918 19.4148781,51.9867918 L19.4148781,51.9867918 L17.1664066,51.9867918 L17.1664066,51.9867918 C17.1024257,51.9867918 17.0475849,51.9640475 17.0018843,51.9185587 L17.0018843,51.9185587 L17.0018843,51.9185587 C16.9561837,51.8730699 16.9333333,51.8184834 16.9333333,51.7547991 L16.9333333,51.7547991 L16.9333333,38.8450879 L16.9333333,38.8450879 C16.9333333,38.7814037 16.9561837,38.7268171 17.0018843,38.6813284 L17.0018843,38.6813284 L17.0018843,38.6813284 C17.0475849,38.6358396 17.1024257,38.6130952 17.1664066,38.6130952 L17.1664066,38.6130952 L19.4148781,38.6130952 L19.4148781,38.6130952 C19.5336997,38.6130952 19.625101,38.6631329 19.6890819,38.7632082 L19.6890819,38.7632082 L22.5682222,43.2120093 L22.5682222,43.2120093 C22.6047827,43.293889 22.6413432,43.293889 22.6779037,43.2120093 L22.6779037,43.2120093 L25.5707542,38.7632082 Z M34.8525541,52.1369048 L34.8525541,52.1369048 C33.774019,52.1369048 32.8508661,51.8594233 32.0830953,51.3044604 L32.0830953,51.3044604 L32.0830953,51.3044604 C31.3153246,50.7403997 30.7897672,49.9761885 30.5064233,49.0118267 L30.5064233,49.0118267 L30.5064233,49.0118267 C30.3327608,48.411375 30.2459296,47.7608857 30.2459296,47.0603587 L30.2459296,47.0603587 L30.2459296,47.0603587 C30.2459296,46.3052452 30.3327608,45.6274626 30.5064233,45.027011 L30.5064233,45.027011 L30.5064233,45.027011 C30.7989074,44.0899424 31.3290348,43.3530244 32.0968055,42.816257 L32.0968055,42.816257 L32.0968055,42.816257 C32.8645763,42.2794896 33.7877292,42.0111059 34.8662643,42.0111059 L34.8662643,42.0111059 L34.8662643,42.0111059 C35.917379,42.0111059 36.8131115,42.2749407 37.5534619,42.8026104 L37.5534619,42.8026104 L37.5534619,42.8026104 C38.2938123,43.3302801 38.8193696,44.067198 39.130134,45.0133643 L39.130134,45.0133643 L39.130134,45.0133643 C39.3312168,45.650207 39.4317582,46.3188919 39.4317582,47.0194188 L39.4317582,47.0194188 L39.4317582,47.0194188 C39.4317582,47.710848 39.344927,48.3522396 39.1712645,48.9435935 L39.1712645,48.9435935 L39.1712645,48.9435935 C38.8879206,49.9443463 38.3669333,50.7267531 37.6083027,51.2908138 L37.6083027,51.2908138 L37.6083027,51.2908138 C36.8405319,51.8548744 35.9219491,52.1369048 34.8525541,52.1369048 L34.8525541,52.1369048 Z M34.8525541,49.8306244 L34.8525541,49.8306244 C35.273,49.8306244 35.629465,49.7032559 35.9219491,49.4485188 L35.9219491,49.4485188 L35.9219491,49.4485188 C36.2144332,49.1937817 36.4246561,48.8435183 36.5526179,48.3977284 L36.5526179,48.3977284 L36.5526179,48.3977284 C36.6531593,47.9883295 36.70343,47.5425396 36.70343,47.0603587 L36.70343,47.0603587 L36.70343,47.0603587 C36.70343,46.5235913 36.6531593,46.0687037 36.5526179,45.6956958 L36.5526179,45.6956958 L36.5526179,45.6956958 C36.415516,45.2681014 36.200723,44.9314846 35.9082389,44.6858452 L35.9082389,44.6858452 L35.9082389,44.6858452 C35.6066147,44.4493037 35.2455796,44.3310329 34.8251337,44.3310329 L34.8251337,44.3310329 L34.8251337,44.3310329 C34.3955477,44.3310329 34.0345127,44.4493037 33.7420286,44.6858452 L33.7420286,44.6858452 L33.7420286,44.6858452 C33.4586846,44.9314846 33.2530317,45.2681014 33.1250699,45.6956958 L33.1250699,45.6956958 L33.1250699,45.6956958 C33.0153884,46.0050194 32.9605476,46.459907 32.9605476,47.0603587 L32.9605476,47.0603587 L32.9605476,47.0603587 C32.9605476,47.6335171 33.0062483,48.079307 33.0976495,48.3977284 L33.0976495,48.3977284 L33.0976495,48.3977284 C33.2256113,48.8435183 33.4404043,49.1937817 33.7420286,49.4485188 L33.7420286,49.4485188 L33.7420286,49.4485188 C34.0436528,49.7032559 34.413828,49.8306244 34.8525541,49.8306244 L34.8525541,49.8306244 Z M52.1273958,42.0111059 L52.1273958,42.0111059 C53.1236698,42.0111059 53.9005807,42.3113317 54.4581285,42.9117834 L54.4581285,42.9117834 L54.4581285,42.9117834 C55.0248164,43.5122351 55.3081604,44.3537772 55.3081604,45.4364098 L55.3081604,45.4364098 L55.3081604,51.7547991 L55.3081604,51.7547991 C55.3081604,51.8184834 55.28531,51.8730699 55.2396094,51.9185587 L55.2396094,51.9185587 L55.2396094,51.9185587 C55.1939088,51.9640475 55.139068,51.9867918 55.0750871,51.9867918 L55.0750871,51.9867918 L52.8266156,51.9867918 L52.8266156,51.9867918 C52.7626347,51.9867918 52.707794,51.9640475 52.6620933,51.9185587 L52.6620933,51.9185587 L52.6620933,51.9185587 C52.6255328,51.8730699 52.6072526,51.8184834 52.6072526,51.7547991 L52.6072526,51.7547991 L52.6072526,46.0232149 L52.6072526,46.0232149 C52.6072526,45.504643 52.4701506,45.0906952 52.1959468,44.7813716 L52.1959468,44.7813716 L52.1959468,44.7813716 C51.9308831,44.4811458 51.5744181,44.3310329 51.1265518,44.3310329 L51.1265518,44.3310329 L51.1265518,44.3310329 C50.6786856,44.3310329 50.3130805,44.4811458 50.0297365,44.7813716 L50.0297365,44.7813716 L50.0297365,44.7813716 C49.7463925,45.0906952 49.6047205,45.5000941 49.6047205,46.0095683 L49.6047205,46.0095683 L49.6047205,51.7547991 L49.6047205,51.7547991 C49.6047205,51.8184834 49.5818702,51.8730699 49.5361696,51.9185587 L49.5361696,51.9185587 L49.5361696,51.9185587 C49.4904689,51.9640475 49.4356282,51.9867918 49.3716473,51.9867918 L49.3716473,51.9867918 L47.1505962,51.9867918 L47.1505962,51.9867918 C47.0866153,51.9867918 47.0317745,51.9640475 46.9860739,51.9185587 L46.9860739,51.9185587 L46.9860739,51.9185587 C46.9403733,51.8730699 46.9175229,51.8184834 46.9175229,51.7547991 L46.9175229,51.7547991 L46.9175229,46.0232149 L46.9175229,46.0232149 C46.9175229,45.5137407 46.775851,45.1043419 46.492507,44.7950183 L46.492507,44.7950183 L46.492507,44.7950183 C46.2183032,44.4856947 45.8572681,44.3310329 45.4094018,44.3310329 L45.4094018,44.3310329 L45.4094018,44.3310329 C44.9980961,44.3310329 44.6553413,44.4493037 44.3811374,44.6858452 L44.3811374,44.6858452 L44.3811374,44.6858452 C44.1069336,44.9314846 43.9424113,45.2681014 43.8875705,45.6956958 L43.8875705,45.6956958 L43.8875705,51.7547991 L43.8875705,51.7547991 C43.8875705,51.8184834 43.8647202,51.8730699 43.8190196,51.9185587 L43.8190196,51.9185587 L43.8190196,51.9185587 C43.7733189,51.9640475 43.7184782,51.9867918 43.6544973,51.9867918 L43.6544973,51.9867918 L41.4060258,51.9867918 L41.4060258,51.9867918 C41.3420449,51.9867918 41.2917742,51.9640475 41.2552137,51.9185587 L41.2552137,51.9185587 L41.2552137,51.9185587 C41.2095131,51.8730699 41.1866627,51.8184834 41.1866627,51.7547991 L41.1866627,51.7547991 L41.1866627,42.3932115 L41.1866627,42.3932115 C41.1866627,42.3295273 41.2095131,42.2749407 41.2552137,42.229452 L41.2552137,42.229452 L41.2552137,42.229452 C41.2917742,42.1839632 41.3420449,42.1612188 41.4060258,42.1612188 L41.4060258,42.1612188 L43.6544973,42.1612188 L43.6544973,42.1612188 C43.7184782,42.1612188 43.7733189,42.1839632 43.8190196,42.229452 L43.8190196,42.229452 L43.8190196,42.229452 C43.8647202,42.2749407 43.8875705,42.3295273 43.8875705,42.3932115 L43.8875705,42.3932115 L43.8875705,43.1437761 L43.8875705,43.1437761 C43.8875705,43.1801671 43.9012807,43.2029115 43.9287011,43.2120093 L43.9287011,43.2120093 L43.9287011,43.2120093 C43.9561215,43.2302048 43.9789718,43.221107 43.9972521,43.184716 L43.9972521,43.184716 L43.9972521,43.184716 C44.5273795,42.4023093 45.3408509,42.0111059 46.4376662,42.0111059 L46.4376662,42.0111059 L46.4376662,42.0111059 C47.0774752,42.0111059 47.639593,42.1475722 48.1240198,42.4205048 L48.1240198,42.4205048 L48.1240198,42.4205048 C48.5993065,42.6843396 48.9649116,43.0664452 49.2208352,43.5668216 L49.2208352,43.5668216 L49.2208352,43.5668216 C49.2573957,43.6396037 49.3030963,43.6396037 49.3579371,43.5668216 L49.3579371,43.5668216 L49.3579371,43.5668216 C49.6412811,43.039152 50.0205964,42.6479486 50.495883,42.3932115 L50.495883,42.3932115 L50.495883,42.3932115 C50.9803098,42.1384744 51.5241474,42.0111059 52.1273958,42.0111059 L52.1273958,42.0111059 Z M65.9472692,46.0641548 L65.9472692,46.0641548 C66.0203903,46.5463357 66.0432406,47.087652 66.0158202,47.6881036 L66.0158202,47.6881036 L66.0158202,47.6881036 C66.0066801,47.8427654 65.9244189,47.9200963 65.7690368,47.9200963 L65.7690368,47.9200963 L59.8325237,47.9200963 L59.8325237,47.9200963 C59.7594027,47.9200963 59.7365523,47.9519385 59.7639727,48.0156227 L59.7639727,48.0156227 L59.7639727,48.0156227 C59.8005332,48.2703598 59.8690842,48.5250969 59.9696256,48.779834 L59.9696256,48.779834 L59.9696256,48.779834 C60.3078103,49.4894587 60.9887499,49.8442711 62.0124442,49.8442711 L62.0124442,49.8442711 L62.0124442,49.8442711 C62.8259156,49.8351733 63.4702946,49.5031053 63.9455812,48.8480671 L63.9455812,48.8480671 L63.9455812,48.8480671 C64.000422,48.7752851 64.0598328,48.7388941 64.1238137,48.7388941 L64.1238137,48.7388941 L64.1238137,48.7388941 C64.1603742,48.7388941 64.2015048,48.7661874 64.2472055,48.8207739 L64.2472055,48.8207739 L65.6319348,50.1717902 L65.6319348,50.1717902 C65.6959157,50.2354744 65.7279062,50.2946098 65.7279062,50.3491963 L65.7279062,50.3491963 L65.7279062,50.3491963 C65.7279062,50.3673918 65.7050559,50.4174295 65.6593552,50.4993093 L65.6593552,50.4993093 L65.6593552,50.4993093 C65.2297692,51.0178812 64.6859316,51.4227312 64.0278424,51.7138593 L64.0278424,51.7138593 L64.0278424,51.7138593 C63.360613,51.9958896 62.6294028,52.1369048 61.8342117,52.1369048 L61.8342117,52.1369048 L61.8342117,52.1369048 C60.7373963,52.1369048 59.8051033,51.8912654 59.0373325,51.3999868 L59.0373325,51.3999868 L59.0373325,51.3999868 C58.2787019,50.8996104 57.7348643,50.2036323 57.4058197,49.3120525 L57.4058197,49.3120525 L57.4058197,49.3120525 C57.1316159,48.6752098 56.994514,47.8427654 56.994514,46.8147194 L56.994514,46.8147194 L56.994514,46.8147194 C56.994514,46.1141924 57.0904853,45.4955452 57.282428,44.9587778 L57.282428,44.9587778 L57.282428,44.9587778 C57.5749121,44.0490025 58.0913293,43.3302801 58.8316797,42.8026104 L58.8316797,42.8026104 L58.8316797,42.8026104 C59.5628899,42.265843 60.4357721,41.9974593 61.4503263,41.9974593 L61.4503263,41.9974593 L61.4503263,41.9974593 C62.7299442,41.9974593 63.7582086,42.3659183 64.5351195,43.1028362 L64.5351195,43.1028362 L64.5351195,43.1028362 C65.3028902,43.8397542 65.7736068,44.8268604 65.9472692,46.0641548 L65.9472692,46.0641548 Z M61.4640365,44.3310329 L61.4640365,44.3310329 C60.6597053,44.3310329 60.1295778,44.7040407 59.8736543,45.4500565 L59.8736543,45.4500565 L59.8736543,45.4500565 C59.8279536,45.613816 59.782253,45.8185154 59.7365523,46.0641548 L59.7365523,46.0641548 L59.7365523,46.0641548 C59.7365523,46.127839 59.7685428,46.1596812 59.8325237,46.1596812 L59.8325237,46.1596812 L63.1641003,46.1596812 L63.1641003,46.1596812 C63.2372213,46.1596812 63.2600716,46.127839 63.2326513,46.0641548 L63.2326513,46.0641548 L63.2326513,46.0641548 C63.1686704,45.6911469 63.1366799,45.5137407 63.1366799,45.5319362 L63.1366799,45.5319362 L63.1366799,45.5319362 C63.0269984,45.1498306 62.8259156,44.8541537 62.5334315,44.6449053 L62.5334315,44.6449053 L62.5334315,44.6449053 C62.2500875,44.435657 61.8936225,44.3310329 61.4640365,44.3310329 L61.4640365,44.3310329 Z M72.8297856,42.0111059 L72.8297856,42.0111059 C73.8534799,42.0111059 74.6806615,42.3249784 75.3113303,42.9527233 L75.3113303,42.9527233 L75.3113303,42.9527233 C75.932859,43.5713705 76.2436233,44.4174615 76.2436233,45.4909963 L76.2436233,45.4909963 L76.2436233,51.7547991 L76.2436233,51.7547991 C76.2436233,51.8184834 76.220773,51.8730699 76.1750724,51.9185587 L76.1750724,51.9185587 L76.1750724,51.9185587 C76.1385119,51.9640475 76.0882412,51.9867918 76.0242603,51.9867918 L76.0242603,51.9867918 L73.7757888,51.9867918 L73.7757888,51.9867918 C73.7118079,51.9867918 73.6569671,51.9640475 73.6112665,51.9185587 L73.6112665,51.9185587 L73.6112665,51.9185587 C73.5655659,51.8730699 73.5427155,51.8184834 73.5427155,51.7547991 L73.5427155,51.7547991 L73.5427155,46.0505081 L73.5427155,46.0505081 C73.5427155,45.541034 73.3964735,45.1270862 73.1039894,44.8086649 L73.1039894,44.8086649 L73.1039894,44.8086649 C72.8206454,44.4902435 72.4413301,44.3310329 71.9660435,44.3310329 L71.9660435,44.3310329 L71.9660435,44.3310329 C71.4907568,44.3310329 71.1114415,44.4902435 70.8280976,44.8086649 L70.8280976,44.8086649 L70.8280976,44.8086649 C70.5356135,45.1270862 70.3893714,45.541034 70.3893714,46.0505081 L70.3893714,46.0505081 L70.3893714,51.7547991 L70.3893714,51.7547991 C70.3893714,51.8184834 70.3665211,51.8730699 70.3208205,51.9185587 L70.3208205,51.9185587 L70.3208205,51.9185587 C70.2842599,51.9640475 70.2339892,51.9867918 70.1700083,51.9867918 L70.1700083,51.9867918 L67.9215369,51.9867918 L67.9215369,51.9867918 C67.857556,51.9867918 67.8027152,51.9640475 67.7570146,51.9185587 L67.7570146,51.9185587 L67.7570146,51.9185587 C67.7113139,51.8730699 67.6884636,51.8184834 67.6884636,51.7547991 L67.6884636,51.7547991 L67.6884636,42.3932115 L67.6884636,42.3932115 C67.6884636,42.3295273 67.7113139,42.2749407 67.7570146,42.229452 L67.7570146,42.229452 L67.7570146,42.229452 C67.8027152,42.1839632 67.857556,42.1612188 67.9215369,42.1612188 L67.9215369,42.1612188 L70.1700083,42.1612188 L70.1700083,42.1612188 C70.2339892,42.1612188 70.2842599,42.1839632 70.3208205,42.229452 L70.3208205,42.229452 L70.3208205,42.229452 C70.3665211,42.2749407 70.3893714,42.3295273 70.3893714,42.3932115 L70.3893714,42.3932115 L70.3893714,43.0618964 L70.3893714,43.0618964 C70.3893714,43.0982874 70.4030816,43.1255806 70.430502,43.1437761 L70.430502,43.1437761 L70.430502,43.1437761 C70.4579224,43.1528739 70.4762026,43.1437761 70.4853428,43.1164829 L70.4853428,43.1164829 L70.4853428,43.1164829 C71.0154702,42.3795649 71.7969511,42.0111059 72.8297856,42.0111059 L72.8297856,42.0111059 Z M83.8527798,44.0990402 L83.8527798,44.0990402 C83.8527798,44.1627244 83.8299295,44.217311 83.7842289,44.2627997 L83.7842289,44.2627997 L83.7842289,44.2627997 C83.7385282,44.3082885 83.6836875,44.3310329 83.6197066,44.3310329 L83.6197066,44.3310329 L81.7825409,44.3310329 L81.7825409,44.3310329 C81.71856,44.3310329 81.6865695,44.362875 81.6865695,44.4265593 L81.6865695,44.4265593 L81.6865695,48.4659615 L81.6865695,48.4659615 C81.6865695,48.8935559 81.7734007,49.2074284 81.9470632,49.4075789 L81.9470632,49.4075789 L81.9470632,49.4075789 C82.1115855,49.6077295 82.3857893,49.7078048 82.7696747,49.7078048 L82.7696747,49.7078048 L83.4140537,49.7078048 L83.4140537,49.7078048 C83.4780346,49.7078048 83.5283053,49.7305491 83.5648658,49.7760379 L83.5648658,49.7760379 L83.5648658,49.7760379 C83.6105664,49.8215267 83.6334168,49.8761132 83.6334168,49.9397975 L83.6334168,49.9397975 L83.6334168,51.7547991 L83.6334168,51.7547991 C83.6334168,51.9003632 83.5602957,51.982243 83.4140537,52.0004385 L83.4140537,52.0004385 L83.4140537,52.0004385 C82.8747861,52.0277317 82.4909008,52.0413784 82.2623976,52.0413784 L82.2623976,52.0413784 L82.2623976,52.0413784 C81.1930026,52.0413784 80.3978115,51.8685211 79.8768242,51.5228064 L79.8768242,51.5228064 L79.8768242,51.5228064 C79.3558369,51.1679941 79.0862031,50.508407 79.0679229,49.5440452 L79.0679229,49.5440452 L79.0679229,44.4265593 L79.0679229,44.4265593 C79.0679229,44.362875 79.0359324,44.3310329 78.9719515,44.3310329 L78.9719515,44.3310329 L77.8751362,44.3310329 L77.8751362,44.3310329 C77.8111553,44.3310329 77.7563145,44.3082885 77.7106139,44.2627997 L77.7106139,44.2627997 L77.7106139,44.2627997 C77.6740534,44.217311 77.6557731,44.1627244 77.6557731,44.0990402 L77.6557731,44.0990402 L77.6557731,42.3932115 L77.6557731,42.3932115 C77.6557731,42.3295273 77.6740534,42.2749407 77.7106139,42.229452 L77.7106139,42.229452 L77.7106139,42.229452 C77.7563145,42.1839632 77.8111553,42.1612188 77.8751362,42.1612188 L77.8751362,42.1612188 L78.9719515,42.1612188 L78.9719515,42.1612188 C79.0359324,42.1612188 79.0679229,42.1293767 79.0679229,42.0656924 L79.0679229,42.0656924 L79.0679229,39.800352 L79.0679229,39.800352 C79.0679229,39.7366677 79.0907732,39.6820812 79.1364738,39.6365924 L79.1364738,39.6365924 L79.1364738,39.6365924 C79.1821745,39.5911037 79.2370152,39.5683593 79.3009961,39.5683593 L79.3009961,39.5683593 L81.4534962,39.5683593 L81.4534962,39.5683593 C81.5174771,39.5683593 81.5723179,39.5911037 81.6180185,39.6365924 L81.6180185,39.6365924 L81.6180185,39.6365924 C81.6637192,39.6820812 81.6865695,39.7366677 81.6865695,39.800352 L81.6865695,39.800352 L81.6865695,42.0656924 L81.6865695,42.0656924 C81.6865695,42.1293767 81.71856,42.1612188 81.7825409,42.1612188 L81.7825409,42.1612188 L83.6197066,42.1612188 L83.6197066,42.1612188 C83.6836875,42.1612188 83.7385282,42.1839632 83.7842289,42.229452 L83.7842289,42.229452 L83.7842289,42.229452 C83.8299295,42.2749407 83.8527798,42.3295273 83.8527798,42.3932115 L83.8527798,42.3932115 L83.8527798,44.0990402 Z M91.2425732,42.3932115 L91.2425732,42.3932115 C91.2425732,42.3295273 91.2654236,42.2749407 91.3111242,42.229452 L91.3111242,42.229452 L91.3111242,42.229452 C91.3568248,42.1839632 91.4116656,42.1612188 91.4756465,42.1612188 L91.4756465,42.1612188 L93.7104078,42.1612188 L93.7104078,42.1612188 C93.7743887,42.1612188 93.8292294,42.1839632 93.8749301,42.229452 L93.8749301,42.229452 L93.8749301,42.229452 C93.9206307,42.2749407 93.943481,42.3295273 93.943481,42.3932115 L93.943481,42.3932115 L93.943481,51.7547991 L93.943481,51.7547991 C93.943481,51.8184834 93.9206307,51.8730699 93.8749301,51.9185587 L93.8749301,51.9185587 L93.8749301,51.9185587 C93.8292294,51.9640475 93.7743887,51.9867918 93.7104078,51.9867918 L93.7104078,51.9867918 L91.4756465,51.9867918 L91.4756465,51.9867918 C91.4116656,51.9867918 91.3568248,51.9640475 91.3111242,51.9185587 L91.3111242,51.9185587 L91.3111242,51.9185587 C91.2654236,51.8730699 91.2425732,51.8184834 91.2425732,51.7547991 L91.2425732,51.7547991 L91.2425732,51.1134076 L91.2425732,51.1134076 C91.2425732,51.0679188 91.228863,51.0451744 91.2014427,51.0451744 L91.2014427,51.0451744 L91.2014427,51.0451744 C91.1740223,51.0360767 91.1466019,51.0497233 91.1191815,51.0861143 L91.1191815,51.0861143 L91.1191815,51.0861143 C90.6073343,51.7775435 89.8167133,52.1232581 88.7473183,52.1232581 L88.7473183,52.1232581 L88.7473183,52.1232581 C87.7693246,52.1232581 86.9695634,51.8275812 86.3480347,51.2362272 L86.3480347,51.2362272 L86.3480347,51.2362272 C85.7173659,50.6539711 85.4020315,49.8351733 85.4020315,48.779834 L85.4020315,48.779834 L85.4020315,42.3932115 L85.4020315,42.3932115 C85.4020315,42.3295273 85.4248818,42.2749407 85.4705825,42.229452 L85.4705825,42.229452 L85.4705825,42.229452 C85.5162831,42.1839632 85.5711239,42.1612188 85.6351048,42.1612188 L85.6351048,42.1612188 L87.8561558,42.1612188 L87.8561558,42.1612188 C87.9201367,42.1612188 87.9749775,42.1839632 88.0206781,42.229452 L88.0206781,42.229452 L88.0206781,42.229452 C88.0663788,42.2749407 88.0892291,42.3295273 88.0892291,42.3932115 L88.0892291,42.3932115 L88.0892291,48.1111492 L88.0892291,48.1111492 C88.0892291,48.6206233 88.226331,49.0345711 88.5005349,49.3529924 L88.5005349,49.3529924 L88.5005349,49.3529924 C88.7747387,49.6714138 89.1586241,49.8306244 89.652191,49.8306244 L89.652191,49.8306244 L89.652191,49.8306244 C90.081777,49.8306244 90.438242,49.698707 90.7215859,49.4348722 L90.7215859,49.4348722 L90.7215859,49.4348722 C91.0049299,49.1710374 91.1785923,48.8298716 91.2425732,48.411375 L91.2425732,48.411375 L91.2425732,42.3932115 Z M106.885902,42.0111059 L106.885902,42.0111059 C107.882176,42.0111059 108.663657,42.3113317 109.230345,42.9117834 L109.230345,42.9117834 L109.230345,42.9117834 C109.787893,43.5122351 110.066667,44.3537772 110.066667,45.4364098 L110.066667,45.4364098 L110.066667,51.7547991 L110.066667,51.7547991 C110.066667,51.8184834 110.043816,51.8730699 109.998116,51.9185587 L109.998116,51.9185587 L109.998116,51.9185587 C109.952415,51.9640475 109.897574,51.9867918 109.833593,51.9867918 L109.833593,51.9867918 L107.598832,51.9867918 L107.598832,51.9867918 C107.534851,51.9867918 107.48001,51.9640475 107.43431,51.9185587 L107.43431,51.9185587 L107.43431,51.9185587 C107.388609,51.8730699 107.365759,51.8184834 107.365759,51.7547991 L107.365759,51.7547991 L107.365759,46.0232149 L107.365759,46.0232149 C107.365759,45.504643 107.228657,45.0906952 106.954453,44.7813716 L106.954453,44.7813716 L106.954453,44.7813716 C106.689389,44.4811458 106.332924,44.3310329 105.885058,44.3310329 L105.885058,44.3310329 L105.885058,44.3310329 C105.437192,44.3310329 105.071587,44.4811458 104.788243,44.7813716 L104.788243,44.7813716 L104.788243,44.7813716 C104.504899,45.0906952 104.363227,45.5000941 104.363227,46.0095683 L104.363227,46.0095683 L104.363227,51.7547991 L104.363227,51.7547991 C104.363227,51.8184834 104.344947,51.8730699 104.308386,51.9185587 L104.308386,51.9185587 L104.308386,51.9185587 C104.262685,51.9640475 104.207845,51.9867918 104.143864,51.9867918 L104.143864,51.9867918 L101.909103,51.9867918 L101.909103,51.9867918 C101.845122,51.9867918 101.790281,51.9640475 101.74458,51.9185587 L101.74458,51.9185587 L101.74458,51.9185587 C101.69888,51.8730699 101.676029,51.8184834 101.676029,51.7547991 L101.676029,51.7547991 L101.676029,46.0232149 L101.676029,46.0232149 C101.676029,45.5137407 101.538927,45.1043419 101.264723,44.7950183 L101.264723,44.7950183 L101.264723,44.7950183 C100.98138,44.4856947 100.615774,44.3310329 100.167908,44.3310329 L100.167908,44.3310329 L100.167908,44.3310329 C99.7566024,44.3310329 99.4138476,44.4493037 99.1396438,44.6858452 L99.1396438,44.6858452 L99.1396438,44.6858452 C98.8654399,44.9314846 98.7009176,45.2681014 98.6460768,45.6956958 L98.6460768,45.6956958 L98.6460768,51.7547991 L98.6460768,51.7547991 C98.6460768,51.8184834 98.6232265,51.8730699 98.5775259,51.9185587 L98.5775259,51.9185587 L98.5775259,51.9185587 C98.5318252,51.9640475 98.4769845,51.9867918 98.4130036,51.9867918 L98.4130036,51.9867918 L96.1782423,51.9867918 L96.1782423,51.9867918 C96.1142614,51.9867918 96.0594206,51.9640475 96.01372,51.9185587 L96.01372,51.9185587 L96.01372,51.9185587 C95.9680194,51.8730699 95.945169,51.8184834 95.945169,51.7547991 L95.945169,51.7547991 L95.945169,42.3932115 L95.945169,42.3932115 C95.945169,42.3295273 95.9680194,42.2749407 96.01372,42.229452 L96.01372,42.229452 L96.01372,42.229452 C96.0594206,42.1839632 96.1142614,42.1612188 96.1782423,42.1612188 L96.1782423,42.1612188 L98.4130036,42.1612188 L98.4130036,42.1612188 C98.4769845,42.1612188 98.5318252,42.1839632 98.5775259,42.229452 L98.5775259,42.229452 L98.5775259,42.229452 C98.6232265,42.2749407 98.6460768,42.3295273 98.6460768,42.3932115 L98.6460768,42.3932115 L98.6460768,43.1437761 L98.6460768,43.1437761 C98.6460768,43.1801671 98.659787,43.2029115 98.6872074,43.2120093 L98.6872074,43.2120093 L98.6872074,43.2120093 C98.7146278,43.2302048 98.7420482,43.221107 98.7694686,43.184716 L98.7694686,43.184716 L98.7694686,43.184716 C99.2904559,42.4023093 100.099357,42.0111059 101.196173,42.0111059 L101.196173,42.0111059 L101.196173,42.0111059 C101.835981,42.0111059 102.398099,42.1475722 102.882526,42.4205048 L102.882526,42.4205048 L102.882526,42.4205048 C103.357813,42.6843396 103.723418,43.0664452 103.979341,43.5668216 L103.979341,43.5668216 L103.979341,43.5668216 C104.025042,43.6396037 104.070743,43.6396037 104.116443,43.5668216 L104.116443,43.5668216 L104.116443,43.5668216 C104.399787,43.039152 104.783673,42.6479486 105.2681,42.3932115 L105.2681,42.3932115 L105.2681,42.3932115 C105.743386,42.1384744 106.282654,42.0111059 106.885902,42.0111059 L106.885902,42.0111059 Z" id="Shape" fill="#252530"></path>
                    <path d="M41.6887339,91.0178571 L41.6887339,91.0178571 C41.5866604,91.0178571 41.5217045,90.9735828 41.4938662,90.885034 L41.4938662,90.885034 L38.9605858,81.8929082 L38.9466667,81.8397789 L38.9466667,81.8397789 C38.9466667,81.760085 38.9977035,81.7202381 39.099777,81.7202381 L39.099777,81.7202381 L40.4638511,81.7202381 L40.4638511,81.7202381 C40.5659247,81.7202381 40.6308806,81.7645125 40.6587188,81.8530612 L40.6587188,81.8530612 L42.2454989,87.9097959 L42.2454989,87.9097959 C42.2547783,87.9363605 42.2686974,87.9496429 42.2872562,87.9496429 L42.2872562,87.9496429 L42.2872562,87.9496429 C42.3058151,87.9496429 42.3197342,87.9363605 42.3290136,87.9097959 L42.3290136,87.9097959 L43.846198,81.8530612 L43.846198,81.8530612 C43.8740363,81.7645125 43.9343525,81.7202381 44.0271466,81.7202381 L44.0271466,81.7202381 L45.3633825,81.7202381 L45.3633825,81.7202381 C45.465456,81.7202381 45.5304119,81.7645125 45.5582502,81.8530612 L45.5582502,81.8530612 L47.1728685,87.9230782 L47.1728685,87.9230782 C47.1821479,87.9496429 47.196067,87.9629252 47.2146259,87.9629252 L47.2146259,87.9629252 L47.2146259,87.9629252 C47.2331847,87.9629252 47.2471038,87.9496429 47.2563832,87.9230782 L47.2563832,87.9230782 L48.815325,81.8530612 L48.815325,81.8530612 C48.8431633,81.7645125 48.9081192,81.7202381 49.0101927,81.7202381 L49.0101927,81.7202381 L50.3046712,81.7202381 L50.3046712,81.7202381 C50.434583,81.7202381 50.4856198,81.7777948 50.4577816,81.8929082 L50.4577816,81.8929082 L48.0497732,90.885034 L48.0497732,90.885034 C48.021935,90.9735828 47.9569791,91.0178571 47.8549055,91.0178571 L47.8549055,91.0178571 L46.5604271,91.0178571 L46.5604271,91.0178571 C46.4583535,91.0178571 46.3933976,90.9735828 46.3655593,90.885034 L46.3655593,90.885034 L44.7370219,84.5493707 L44.7370219,84.5493707 C44.7277425,84.5228061 44.7138234,84.5050964 44.6952646,84.4962415 L44.6952646,84.4962415 L44.6952646,84.4962415 C44.6767057,84.4962415 44.6627866,84.5139512 44.6535072,84.5493707 L44.6535072,84.5493707 L43.0945654,90.885034 L43.0945654,90.885034 C43.0667271,90.9735828 43.0064109,91.0178571 42.9136168,91.0178571 L42.9136168,91.0178571 L41.6887339,91.0178571 Z M52.0028042,91.0178571 L52.0028042,91.0178571 C51.9564072,91.0178571 51.9146498,91.0001474 51.8775321,90.9647279 L51.8775321,90.9647279 L51.8775321,90.9647279 C51.8496939,90.9381633 51.8357748,90.9027438 51.8357748,90.8584694 L51.8357748,90.8584694 L51.8357748,81.8796259 L51.8357748,81.8796259 C51.8357748,81.8353515 51.8496939,81.799932 51.8775321,81.7733673 L51.8775321,81.7733673 L51.8775321,81.7733673 C51.9146498,81.7379478 51.9564072,81.7202381 52.0028042,81.7202381 L52.0028042,81.7202381 L53.2833636,81.7202381 L53.2833636,81.7202381 C53.3297606,81.7202381 53.3668783,81.7379478 53.3947166,81.7733673 L53.3947166,81.7733673 L53.3947166,81.7733673 C53.4318342,81.799932 53.450393,81.8353515 53.450393,81.8796259 L53.450393,81.8796259 L53.450393,90.8584694 L53.450393,90.8584694 C53.450393,90.9027438 53.4318342,90.9381633 53.3947166,90.9647279 L53.3947166,90.9647279 L53.3947166,90.9647279 C53.3668783,91.0001474 53.3297606,91.0178571 53.2833636,91.0178571 L53.2833636,91.0178571 L52.0028042,91.0178571 Z M61.1476682,81.8796259 L61.1476682,81.8796259 C61.1476682,81.8353515 61.1615873,81.799932 61.1894255,81.7733673 L61.1894255,81.7733673 L61.1894255,81.7733673 C61.2265432,81.7379478 61.2683006,81.7202381 61.3146977,81.7202381 L61.3146977,81.7202381 L62.595257,81.7202381 L62.595257,81.7202381 C62.6416541,81.7202381 62.6787717,81.7379478 62.70661,81.7733673 L62.70661,81.7733673 L62.70661,81.7733673 C62.7437276,81.799932 62.7622865,81.8353515 62.7622865,81.8796259 L62.7622865,81.8796259 L62.7622865,90.8584694 L62.7622865,90.8584694 C62.7622865,90.9027438 62.7437276,90.9381633 62.70661,90.9647279 L62.70661,90.9647279 L62.70661,90.9647279 C62.6787717,91.0001474 62.6416541,91.0178571 62.595257,91.0178571 L62.595257,91.0178571 L61.356455,91.0178571 L61.356455,91.0178571 C61.2636609,91.0178571 61.198705,90.9824376 61.1615873,90.9115986 L61.1615873,90.9115986 L57.1528798,84.6423469 L57.1528798,84.6423469 C57.134321,84.6157823 57.1157622,84.6025 57.0972033,84.6025 L57.0972033,84.6025 L57.0972033,84.6025 C57.0786445,84.6113549 57.0693651,84.6334921 57.0693651,84.6689116 L57.0693651,84.6689116 L57.0972033,90.8584694 L57.0972033,90.8584694 C57.0972033,90.9027438 57.0786445,90.9381633 57.0415268,90.9647279 L57.0415268,90.9647279 L57.0415268,90.9647279 C57.0136886,91.0001474 56.9765709,91.0178571 56.9301738,91.0178571 L56.9301738,91.0178571 L55.6496145,91.0178571 L55.6496145,91.0178571 C55.6032174,91.0178571 55.5614601,91.0001474 55.5243424,90.9647279 L55.5243424,90.9647279 L55.5243424,90.9647279 C55.4965042,90.9381633 55.482585,90.9027438 55.482585,90.8584694 L55.482585,90.8584694 L55.482585,81.8796259 L55.482585,81.8796259 C55.482585,81.8353515 55.4965042,81.799932 55.5243424,81.7733673 L55.5243424,81.7733673 L55.5243424,81.7733673 C55.5614601,81.7379478 55.6032174,81.7202381 55.6496145,81.7202381 L55.6496145,81.7202381 L56.8884165,81.7202381 L56.8884165,81.7202381 C56.9812106,81.7202381 57.0461665,81.7556576 57.0832842,81.8264966 L57.0832842,81.8264966 L61.0780726,88.0957483 L61.0780726,88.0957483 C61.0966314,88.1223129 61.1151902,88.1311678 61.1337491,88.1223129 L61.1337491,88.1223129 L61.1337491,88.1223129 C61.1523079,88.1223129 61.1615873,88.1046032 61.1615873,88.0691837 L61.1615873,88.0691837 L61.1476682,81.8796259 Z M71.1972751,81.7202381 L71.1972751,81.7202381 C71.2436722,81.7202381 71.2807899,81.7379478 71.3086281,81.7733673 L71.3086281,81.7733673 L71.3086281,81.7733673 C71.3457458,81.799932 71.3643046,81.8353515 71.3643046,81.8796259 L71.3643046,81.8796259 L71.3643046,82.9023639 L71.3643046,82.9023639 C71.3643046,82.9466383 71.3457458,82.9820578 71.3086281,83.0086224 L71.3086281,83.0086224 L71.3086281,83.0086224 C71.2807899,83.044042 71.2436722,83.0617517 71.1972751,83.0617517 L71.1972751,83.0617517 L68.6361565,83.0617517 L68.6361565,83.0617517 C68.5897594,83.0617517 68.5665608,83.0838889 68.5665608,83.1281633 L68.5665608,83.1281633 L68.5665608,90.8584694 L68.5665608,90.8584694 C68.5665608,90.9027438 68.5526417,90.9381633 68.5248035,90.9647279 L68.5248035,90.9647279 L68.5248035,90.9647279 C68.4876858,91.0001474 68.4459284,91.0178571 68.3995314,91.0178571 L68.3995314,91.0178571 L67.118972,91.0178571 L67.118972,91.0178571 C67.072575,91.0178571 67.0354573,91.0001474 67.007619,90.9647279 L67.007619,90.9647279 L67.007619,90.9647279 C66.9705014,90.9381633 66.9519426,90.9027438 66.9519426,90.8584694 L66.9519426,90.8584694 L66.9519426,83.1281633 L66.9519426,83.1281633 C66.9519426,83.0838889 66.928744,83.0617517 66.8823469,83.0617517 L66.8823469,83.0617517 L64.4186621,83.0617517 L64.4186621,83.0617517 C64.3722651,83.0617517 64.3305077,83.044042 64.29339,83.0086224 L64.29339,83.0086224 L64.29339,83.0086224 C64.2655518,82.9820578 64.2516327,82.9466383 64.2516327,82.9023639 L64.2516327,82.9023639 L64.2516327,81.8796259 L64.2516327,81.8796259 C64.2516327,81.8353515 64.2655518,81.799932 64.29339,81.7733673 L64.29339,81.7733673 L64.29339,81.7733673 C64.3305077,81.7379478 64.3722651,81.7202381 64.4186621,81.7202381 L64.4186621,81.7202381 L71.1972751,81.7202381 Z M79.4513152,82.8890816 L79.4513152,82.8890816 C79.4513152,82.933356 79.4327564,82.9687755 79.3956387,82.9953401 L79.3956387,82.9953401 L79.3956387,82.9953401 C79.3678005,83.0307596 79.3306828,83.0484694 79.2842857,83.0484694 L79.2842857,83.0484694 L74.5378647,83.0484694 L74.5378647,83.0484694 C74.4914676,83.0484694 74.4682691,83.0706066 74.4682691,83.114881 L74.4682691,83.114881 L74.4682691,85.5986735 L74.4682691,85.5986735 C74.4682691,85.6429478 74.4914676,85.665085 74.5378647,85.665085 L74.5378647,85.665085 L77.7253439,85.665085 L77.7253439,85.665085 C77.771741,85.665085 77.8134984,85.6783673 77.850616,85.704932 L77.850616,85.704932 L77.850616,85.704932 C77.8784543,85.7403515 77.8923734,85.7801984 77.8923734,85.8244728 L77.8923734,85.8244728 L77.8923734,86.8339286 L77.8923734,86.8339286 C77.8923734,86.8782029 77.8784543,86.9180499 77.850616,86.9534694 L77.850616,86.9534694 L77.850616,86.9534694 C77.8134984,86.980034 77.771741,86.9933163 77.7253439,86.9933163 L77.7253439,86.9933163 L74.5378647,86.9933163 L74.5378647,86.9933163 C74.4914676,86.9933163 74.4682691,87.0154535 74.4682691,87.0597279 L74.4682691,87.0597279 L74.4682691,89.6232143 L74.4682691,89.6232143 C74.4682691,89.6674887 74.4914676,89.6896259 74.5378647,89.6896259 L74.5378647,89.6896259 L79.2842857,89.6896259 L79.2842857,89.6896259 C79.3306828,89.6896259 79.3678005,89.7073356 79.3956387,89.7427551 L79.3956387,89.7427551 L79.3956387,89.7427551 C79.4327564,89.7693197 79.4513152,89.8047392 79.4513152,89.8490136 L79.4513152,89.8490136 L79.4513152,90.8584694 L79.4513152,90.8584694 C79.4513152,90.9027438 79.4327564,90.9381633 79.3956387,90.9647279 L79.3956387,90.9647279 L79.3956387,90.9647279 C79.3678005,91.0001474 79.3306828,91.0178571 79.2842857,91.0178571 L79.2842857,91.0178571 L73.0206803,91.0178571 L73.0206803,91.0178571 C72.9742832,91.0178571 72.9325258,91.0001474 72.8954082,90.9647279 L72.8954082,90.9647279 L72.8954082,90.9647279 C72.8675699,90.9381633 72.8536508,90.9027438 72.8536508,90.8584694 L72.8536508,90.8584694 L72.8536508,81.8796259 L72.8536508,81.8796259 C72.8536508,81.8353515 72.8675699,81.799932 72.8954082,81.7733673 L72.8954082,81.7733673 L72.8954082,81.7733673 C72.9325258,81.7379478 72.9742832,81.7202381 73.0206803,81.7202381 L73.0206803,81.7202381 L79.2842857,81.7202381 L79.2842857,81.7202381 C79.3306828,81.7202381 79.3678005,81.7379478 79.3956387,81.7733673 L79.3956387,81.7733673 L79.3956387,81.7733673 C79.4327564,81.799932 79.4513152,81.8353515 79.4513152,81.8796259 L79.4513152,81.8796259 L79.4513152,82.8890816 Z M86.5639872,91.0178571 L86.5639872,91.0178571 C86.471193,91.0178571 86.4062371,90.9780102 86.3691194,90.8983163 L86.3691194,90.8983163 L84.5317952,87.0730102 L84.5317952,87.0730102 C84.5132363,87.0375907 84.4853981,87.019881 84.4482804,87.019881 L84.4482804,87.019881 L82.7779856,87.019881 L82.7779856,87.019881 C82.7315886,87.019881 82.70839,87.0420181 82.70839,87.0862925 L82.70839,87.0862925 L82.70839,90.8584694 L82.70839,90.8584694 C82.70839,90.9027438 82.6898312,90.9381633 82.6527135,90.9647279 L82.6527135,90.9647279 L82.6527135,90.9647279 C82.6248753,91.0001474 82.5877576,91.0178571 82.5413605,91.0178571 L82.5413605,91.0178571 L81.2608012,91.0178571 L81.2608012,91.0178571 C81.2144041,91.0178571 81.1726468,91.0001474 81.1355291,90.9647279 L81.1355291,90.9647279 L81.1355291,90.9647279 C81.1076909,90.9381633 81.0937717,90.9027438 81.0937717,90.8584694 L81.0937717,90.8584694 L81.0937717,81.8796259 L81.0937717,81.8796259 C81.0937717,81.8353515 81.1076909,81.799932 81.1355291,81.7733673 L81.1355291,81.7733673 L81.1355291,81.7733673 C81.1726468,81.7379478 81.2144041,81.7202381 81.2608012,81.7202381 L81.2608012,81.7202381 L85.0885601,81.7202381 L85.0885601,81.7202381 C85.6546044,81.7202381 86.1556929,81.830924 86.5918254,82.0522959 L86.5918254,82.0522959 L86.5918254,82.0522959 C87.0279579,82.2825227 87.3666566,82.6012982 87.6079214,83.0086224 L87.6079214,83.0086224 L87.6079214,83.0086224 C87.8491862,83.4248016 87.9698186,83.8985374 87.9698186,84.4298299 L87.9698186,84.4298299 L87.9698186,84.4298299 C87.9698186,85.0408163 87.8027891,85.5588265 87.4687302,85.9838605 L87.4687302,85.9838605 L87.4687302,85.9838605 C87.1439506,86.4177494 86.6892593,86.7188152 86.1046561,86.8870578 L86.1046561,86.8870578 L86.1046561,86.8870578 C86.0860973,86.8870578 86.0721781,86.8959127 86.0628987,86.9136224 L86.0628987,86.9136224 L86.0628987,86.9136224 C86.0536193,86.9313322 86.0536193,86.949042 86.0628987,86.9667517 L86.0628987,86.9667517 L88.0254951,90.8319048 L88.0254951,90.8319048 C88.0440539,90.8673243 88.0533333,90.8938889 88.0533333,90.9115986 L88.0533333,90.9115986 L88.0533333,90.9115986 C88.0533333,90.9824376 88.0022965,91.0178571 87.900223,91.0178571 L87.900223,91.0178571 L86.5639872,91.0178571 Z M82.7779856,83.0484694 L82.7779856,83.0484694 C82.7315886,83.0484694 82.70839,83.0706066 82.70839,83.114881 L82.70839,83.114881 L82.70839,85.7580612 L82.70839,85.7580612 C82.70839,85.8023356 82.7315886,85.8244728 82.7779856,85.8244728 L82.7779856,85.8244728 L84.8658541,85.8244728 L84.8658541,85.8244728 C85.3112661,85.8244728 85.6731633,85.6960771 85.9515457,85.4392857 L85.9515457,85.4392857 L85.9515457,85.4392857 C86.2206488,85.1913492 86.3552003,84.8592914 86.3552003,84.4431122 L86.3552003,84.4431122 L86.3552003,84.4431122 C86.3552003,84.0269331 86.2206488,83.6904478 85.9515457,83.4336565 L85.9515457,83.4336565 L85.9515457,83.4336565 C85.6731633,83.1768651 85.3112661,83.0484694 84.8658541,83.0484694 L84.8658541,83.0484694 L82.7779856,83.0484694 Z" id="Shape" fill="#FFFFFF"></path>
                    <path d="M46.1578476,116.317462 L46.1578476,116.317462 C46.1304317,116.343395 46.1212931,116.369327 46.1304317,116.39526 L46.1304317,116.39526 L46.1304317,116.39526 C46.148709,116.421192 46.1761249,116.434159 46.2126794,116.434159 L46.2126794,116.434159 L51.5998984,116.434159 L51.5998984,116.434159 C51.6638688,116.434159 51.7187005,116.455769 51.7643937,116.49899 L51.7643937,116.49899 L51.7643937,116.49899 C51.8192254,116.542211 51.8466413,116.594076 51.8466413,116.654585 L51.8466413,116.654585 L51.8466413,118.482828 L51.8466413,118.482828 C51.8466413,118.543337 51.8192254,118.595202 51.7643937,118.638423 L51.7643937,118.638423 L51.7643937,118.638423 C51.7187005,118.681644 51.6638688,118.703254 51.5998984,118.703254 L51.5998984,118.703254 L42.6623238,118.703254 L42.6623238,118.703254 C42.5892148,118.703254 42.5298138,118.681644 42.4841206,118.638423 L42.4841206,118.638423 L42.4841206,118.638423 C42.4384275,118.595202 42.415581,118.543337 42.415581,118.482828 L42.415581,118.482828 L42.415581,116.745349 L42.415581,116.745349 C42.415581,116.632975 42.4567048,116.537889 42.5389524,116.460091 L42.5389524,116.460091 L42.5389524,116.460091 C43.1877947,115.863643 43.850345,115.211008 44.5266032,114.502186 L44.5266032,114.502186 L44.5266032,114.502186 C45.2028614,113.793364 45.6278074,113.352511 45.8014413,113.179627 L45.8014413,113.179627 L45.8014413,113.179627 C46.1669862,112.764707 46.5416698,112.367075 46.9254921,111.986731 L46.9254921,111.986731 L46.9254921,111.986731 C48.1317905,110.724682 48.7349397,109.786789 48.7349397,109.173053 L48.7349397,109.173053 L48.7349397,109.173053 C48.7349397,108.7322 48.5704444,108.369145 48.241454,108.083887 L48.241454,108.083887 L48.241454,108.083887 C47.9124635,107.807273 47.4829481,107.668967 46.9529079,107.668967 L46.9529079,107.668967 L46.9529079,107.668967 C46.4228677,107.668967 45.9933524,107.807273 45.6643619,108.083887 L45.6643619,108.083887 L45.6643619,108.083887 C45.3262328,108.369145 45.1571683,108.745166 45.1571683,109.211952 L45.1571683,109.211952 L45.1571683,109.678737 L45.1571683,109.678737 C45.1571683,109.739246 45.1343217,109.791111 45.0886286,109.834332 L45.0886286,109.834332 L45.0886286,109.834332 C45.0429354,109.877553 44.9881037,109.899163 44.9241333,109.899163 L44.9241333,109.899163 L42.5800762,109.899163 L42.5800762,109.899163 C42.5161058,109.899163 42.4612741,109.877553 42.415581,109.834332 L42.415581,109.834332 L42.415581,109.834332 C42.3607492,109.791111 42.3333333,109.739246 42.3333333,109.678737 L42.3333333,109.678737 L42.3333333,108.797031 L42.3333333,108.797031 C42.3790265,108.122786 42.6074921,107.522016 43.0187302,106.994721 L43.0187302,106.994721 L43.0187302,106.994721 C43.4299683,106.476071 43.9737164,106.078439 44.6499746,105.801825 L44.6499746,105.801825 L44.6499746,105.801825 C45.3353714,105.525212 46.1030159,105.386905 46.9529079,105.386905 L46.9529079,105.386905 L46.9529079,105.386905 C47.8941862,105.386905 48.7120931,105.555466 49.4066286,105.892589 L49.4066286,105.892589 L49.4066286,105.892589 C50.101164,106.221068 50.6357735,106.666242 51.0104571,107.228114 L51.0104571,107.228114 L51.0104571,107.228114 C51.3942794,107.798629 51.5861905,108.425332 51.5861905,109.108221 L51.5861905,109.108221 L51.5861905,109.108221 C51.5861905,109.635516 51.4445418,110.175777 51.1612444,110.729004 L51.1612444,110.729004 L51.1612444,110.729004 C50.8870857,111.282231 50.4712783,111.878679 49.9138222,112.518348 L49.9138222,112.518348 L49.9138222,112.518348 C49.5025841,113.002422 49.0593608,113.486495 48.5841524,113.970569 L48.5841524,113.970569 L48.5841524,113.970569 C48.1089439,114.445999 47.4007005,115.13321 46.4594222,116.032204 L46.4594222,116.032204 L46.1578476,116.317462 Z M58.3030794,118.910714 L58.3030794,118.910714 C56.8408995,118.910714 55.6894328,118.526049 54.8486794,117.756717 L54.8486794,117.756717 L54.8486794,117.756717 C53.9987873,116.987386 53.5738413,115.937119 53.5738413,114.605916 L53.5738413,114.605916 L53.5738413,109.639838 L53.5738413,109.639838 C53.5738413,108.334568 53.9987873,107.301589 54.8486794,106.540902 L54.8486794,106.540902 L54.8486794,106.540902 C55.6894328,105.77157 56.8408995,105.386905 58.3030794,105.386905 L58.3030794,105.386905 L58.3030794,105.386905 C59.7561206,105.386905 60.9121566,105.77157 61.7711873,106.540902 L61.7711873,106.540902 L61.7711873,106.540902 C62.6210794,107.301589 63.0460254,108.334568 63.0460254,109.639838 L63.0460254,109.639838 L63.0460254,114.605916 L63.0460254,114.605916 C63.0460254,115.937119 62.6210794,116.987386 61.7711873,117.756717 L61.7711873,117.756717 L61.7711873,117.756717 C60.9121566,118.526049 59.7561206,118.910714 58.3030794,118.910714 L58.3030794,118.910714 Z M58.3030794,116.641619 L58.3030794,116.641619 C58.8970899,116.641619 59.3677291,116.468735 59.7149968,116.122968 L59.7149968,116.122968 L59.7149968,116.122968 C60.0714032,115.777201 60.2496063,115.314738 60.2496063,114.735578 L60.2496063,114.735578 L60.2496063,109.562041 L60.2496063,109.562041 C60.2496063,108.991525 60.0714032,108.533384 59.7149968,108.187617 L59.7149968,108.187617 L59.7149968,108.187617 C59.3677291,107.84185 58.8970899,107.668967 58.3030794,107.668967 L58.3030794,107.668967 L58.3030794,107.668967 C57.7182074,107.668967 57.2521376,107.84185 56.9048698,108.187617 L56.9048698,108.187617 L56.9048698,108.187617 C56.5484635,108.533384 56.3702603,108.991525 56.3702603,109.562041 L56.3702603,109.562041 L56.3702603,114.735578 L56.3702603,114.735578 C56.3702603,115.314738 56.5484635,115.777201 56.9048698,116.122968 L56.9048698,116.122968 L56.9048698,116.122968 C57.2521376,116.468735 57.7182074,116.641619 58.3030794,116.641619 L58.3030794,116.641619 Z M68.6114476,116.317462 L68.6114476,116.317462 C68.5840317,116.343395 68.5794624,116.369327 68.5977397,116.39526 L68.5977397,116.39526 L68.5977397,116.39526 C68.6068783,116.421192 68.6342942,116.434159 68.6799873,116.434159 L68.6799873,116.434159 L74.0672063,116.434159 L74.0672063,116.434159 C74.1311767,116.434159 74.1860085,116.455769 74.2317016,116.49899 L74.2317016,116.49899 L74.2317016,116.49899 C74.2773947,116.542211 74.3002413,116.594076 74.3002413,116.654585 L74.3002413,116.654585 L74.3002413,118.482828 L74.3002413,118.482828 C74.3002413,118.543337 74.2773947,118.595202 74.2317016,118.638423 L74.2317016,118.638423 L74.2317016,118.638423 C74.1860085,118.681644 74.1311767,118.703254 74.0672063,118.703254 L74.0672063,118.703254 L65.1159238,118.703254 L65.1159238,118.703254 C65.0519534,118.703254 64.9971217,118.681644 64.9514286,118.638423 L64.9514286,118.638423 L64.9514286,118.638423 C64.9057354,118.595202 64.8828889,118.543337 64.8828889,118.482828 L64.8828889,118.482828 L64.8828889,116.745349 L64.8828889,116.745349 C64.8828889,116.632975 64.9194434,116.537889 64.9925524,116.460091 L64.9925524,116.460091 L64.9925524,116.460091 C65.6505333,115.863643 66.3130836,115.211008 66.9802032,114.502186 L66.9802032,114.502186 L66.9802032,114.502186 C67.6564614,113.793364 68.0814074,113.352511 68.2550413,113.179627 L68.2550413,113.179627 L68.2550413,113.179627 C68.6297249,112.764707 69.0089778,112.367075 69.3928,111.986731 L69.3928,111.986731 L69.3928,111.986731 C70.5990984,110.724682 71.2022476,109.786789 71.2022476,109.173053 L71.2022476,109.173053 L71.2022476,109.173053 C71.2022476,108.7322 71.0377524,108.369145 70.7087619,108.083887 L70.7087619,108.083887 L70.7087619,108.083887 C70.3706328,107.807273 69.9365481,107.668967 69.4065079,107.668967 L69.4065079,107.668967 L69.4065079,107.668967 C68.8764677,107.668967 68.4469524,107.807273 68.1179619,108.083887 L68.1179619,108.083887 L68.1179619,108.083887 C67.7889714,108.369145 67.6244762,108.745166 67.6244762,109.211952 L67.6244762,109.211952 L67.6244762,109.678737 L67.6244762,109.678737 C67.6244762,109.739246 67.6016296,109.791111 67.5559365,109.834332 L67.5559365,109.834332 L67.5559365,109.834332 C67.5102434,109.877553 67.4508423,109.899163 67.3777333,109.899163 L67.3777333,109.899163 L65.0336762,109.899163 L65.0336762,109.899163 C64.9697058,109.899163 64.9148741,109.877553 64.869181,109.834332 L64.869181,109.834332 L64.869181,109.834332 C64.8234878,109.791111 64.8006413,109.739246 64.8006413,109.678737 L64.8006413,109.678737 L64.8006413,108.797031 L64.8006413,108.797031 C64.8371958,108.122786 65.0610921,107.522016 65.4723302,106.994721 L65.4723302,106.994721 L65.4723302,106.994721 C65.8835683,106.476071 66.4318857,106.078439 67.1172825,105.801825 L67.1172825,105.801825 L67.1172825,105.801825 C67.8026794,105.525212 68.5657545,105.386905 69.4065079,105.386905 L69.4065079,105.386905 L69.4065079,105.386905 C70.3477862,105.386905 71.1656931,105.555466 71.8602286,105.892589 L71.8602286,105.892589 L71.8602286,105.892589 C72.5639026,106.221068 73.1030815,106.666242 73.4777651,107.228114 L73.4777651,107.228114 L73.4777651,107.228114 C73.8524487,107.798629 74.0397905,108.425332 74.0397905,109.108221 L74.0397905,109.108221 L74.0397905,109.108221 C74.0397905,109.635516 73.9027111,110.175777 73.6285524,110.729004 L73.6285524,110.729004 L73.6285524,110.729004 C73.345255,111.282231 72.9248783,111.878679 72.3674222,112.518348 L72.3674222,112.518348 L72.3674222,112.518348 C71.9561841,113.002422 71.5129608,113.486495 71.0377524,113.970569 L71.0377524,113.970569 L71.0377524,113.970569 C70.5625439,114.445999 69.8543005,115.13321 68.9130222,116.032204 L68.9130222,116.032204 L68.6114476,116.317462 Z M80.7566794,118.910714 L80.7566794,118.910714 C79.3036381,118.910714 78.1521714,118.526049 77.3022794,117.756717 L77.3022794,117.756717 L77.3022794,117.756717 C76.4523873,116.987386 76.0274413,115.937119 76.0274413,114.605916 L76.0274413,114.605916 L76.0274413,109.639838 L76.0274413,109.639838 C76.0274413,108.334568 76.4523873,107.301589 77.3022794,106.540902 L77.3022794,106.540902 L77.3022794,106.540902 C78.1521714,105.77157 79.3036381,105.386905 80.7566794,105.386905 L80.7566794,105.386905 L80.7566794,105.386905 C82.2188593,105.386905 83.3748952,105.77157 84.2247873,106.540902 L84.2247873,106.540902 L84.2247873,106.540902 C85.083818,107.301589 85.5133333,108.334568 85.5133333,109.639838 L85.5133333,109.639838 L85.5133333,114.605916 L85.5133333,114.605916 C85.5133333,115.937119 85.083818,116.987386 84.2247873,117.756717 L84.2247873,117.756717 L84.2247873,117.756717 C83.3748952,118.526049 82.2188593,118.910714 80.7566794,118.910714 L80.7566794,118.910714 Z M80.7566794,116.641619 L80.7566794,116.641619 C81.3598286,116.641619 81.835037,116.468735 82.1823048,116.122968 L82.1823048,116.122968 L82.1823048,116.122968 C82.5295725,115.777201 82.7032063,115.314738 82.7032063,114.735578 L82.7032063,114.735578 L82.7032063,109.562041 L82.7032063,109.562041 C82.7032063,108.991525 82.5295725,108.533384 82.1823048,108.187617 L82.1823048,108.187617 L82.1823048,108.187617 C81.835037,107.84185 81.3598286,107.668967 80.7566794,107.668967 L80.7566794,107.668967 L80.7566794,107.668967 C80.180946,107.668967 79.7148762,107.84185 79.3584698,108.187617 L79.3584698,108.187617 L79.3584698,108.187617 C79.0112021,108.533384 78.8375683,108.991525 78.8375683,109.562041 L78.8375683,109.562041 L78.8375683,114.735578 L78.8375683,114.735578 C78.8375683,115.314738 79.0112021,115.777201 79.3584698,116.122968 L79.3584698,116.122968 L79.3584698,116.122968 C79.7148762,116.468735 80.180946,116.641619 80.7566794,116.641619 L80.7566794,116.641619 Z" id="Shape" fill="#252530"></path>
                </g>
            </g>
        </g>
    </g>
</svg>