<?xml version="1.0" encoding="utf-8"?>
<!-- Generator: Adobe Illustrator 24.1.0, SVG Export Plug-In . SVG Version: 6.00 Build 0)  -->
<svg version="1.1" id="Layer_1" xmlns="http://www.w3.org/2000/svg" xmlns:xlink="http://www.w3.org/1999/xlink" x="0px" y="0px"
	 viewBox="0 0 582.6 177.7" style="enable-background:new 0 0 582.6 177.7;" xml:space="preserve">
<style type="text/css">
	.st0{fill:#FFFFFF;}
	.st1{fill:#F7F8F7;}
	.st2{fill:#E9E9EA;}
	.st3{clip-path:url(#SVGID_2_);}
	.st4{clip-path:url(#SVGID_4_);}
	.st5{fill:#9132A2;}
	.st6{clip-path:url(#SVGID_6_);}
	.st7{clip-path:url(#SVGID_8_);}
	.st8{fill:#252530;}
</style>
<g id="container_1_">
	<path class="st0" d="M293.8,172.7l-69-34.4v-115c11.3-1.3,20.9-9.1,24.6-19.9h86.1c3.7,10.9,13.4,18.7,24.9,20v114.9L293.8,172.7z"
		/>
	<path class="st1" d="M225.4,138.2l68.3,34.4l65.8-34.5V23.3c-5.5-0.8-10.7-2.9-15.1-6.2L225.4,138.2z"/>
	<path class="st2" d="M362.8,20.1h-0.2c-12.1,0-22.5-8.4-25.3-20.1h-90.2C244.4,11.7,234,20,222,20.1v121.1l2.4,1.2l67.3,34.3l2,1
		l0,0l2-1.1l64.8-34.3l2.3-1.2V23.5l0,0V20.1z M293.7,172.7l-68.3-34.4v-115c11.3-1.4,20.7-9.1,24.3-19.9h85.1
		c3.6,10.9,13.2,18.7,24.7,20v114.9L293.7,172.7z"/>
	<g>
		<g>
			<defs>
				<polygon id="SVGID_1_" points="365.8,95.5 219,95.5 213.6,108.1 219,120.7 365.8,120.7 371.2,108.1 				"/>
			</defs>
			<clipPath id="SVGID_2_">
				<use xlink:href="#SVGID_1_"  style="overflow:visible;"/>
			</clipPath>
			<g class="st3">
				<g>
					<g>
						<defs>
							<rect id="SVGID_3_" x="213.6" y="-1.7" width="157.6" height="204.5"/>
						</defs>
						<clipPath id="SVGID_4_">
							<use xlink:href="#SVGID_3_"  style="overflow:visible;"/>
						</clipPath>
						<g class="st4">
							<rect id="banner_5_" x="205.3" y="87.1" class="st5" width="174.3" height="41.9"/>
						</g>
					</g>
				</g>
			</g>
		</g>
	</g>
	<g>
		<g>
			<defs>
				<path id="SVGID_5_" d="M292.4,35.2l16.8-9.4V0h-33.5v25.8L292.4,35.2z M295.8,13.2c0-0.7,0.1-1.4,0.5-2c0.5-0.6,1.1-1.1,1.8-1.4
					l0.4-0.2c0.7-0.3,0.9-0.6,0.9-1c0-0.3-0.4-0.7-1-0.7c-0.7-0.1-1.4,0.4-1.7,1L295.8,8c0.2-0.4,0.6-0.8,1-1c0.5-0.3,1-0.4,1.5-0.4
					c0.6,0,1.3,0.2,1.8,0.5s0.8,0.9,0.8,1.4c0,1-0.6,1.6-1.7,2.1l-0.6,0.3c-0.6,0.3-1,0.6-1.1,1.1h3.4v1.3h-5L295.8,13.2L295.8,13.2
					z M300,15.1l2.5,4.2l-2.5,4.2l-2.5-4.2h-5l2.5-4.2C295,15.1,300,15.1,300,15.1z M292.9,6.7c0.7,0,1.4,0.1,2.1,0.2l-2.1,4.1
					c-3.3-0.1-5.9,2.5-6,5.8c0.1,3.2,2.8,5.8,6,5.7c1.4,0,2.8-0.5,3.9-1.4l2.3,3.8c-1.8,1.3-4,1.9-6.2,1.9
					c-5.7,0.1-10.4-4.4-10.5-10.1C282.5,11.1,287.2,6.6,292.9,6.7z"/>
			</defs>
			<clipPath id="SVGID_6_">
				<use xlink:href="#SVGID_5_"  style="overflow:visible;"/>
			</clipPath>
			<g class="st6">
				<g>
					<g>
						<defs>
							<rect id="SVGID_7_" x="213.6" y="-1.7" width="157.6" height="204.5"/>
						</defs>
						<clipPath id="SVGID_8_">
							<use xlink:href="#SVGID_7_"  style="overflow:visible;"/>
						</clipPath>
						<g class="st7">
							<rect id="logo_5_" x="267.3" y="-8.4" class="st5" width="50.3" height="52"/>
						</g>
					</g>
				</g>
			</g>
		</g>
	</g>
	<path class="st8" d="M245.6,87.3L245.6,87.3c-0.1,0-0.2,0-0.3-0.1l0,0l0,0c-0.1-0.1-0.1-0.2-0.1-0.3l0,0V66.6l0,0
		c0-0.1,0-0.2,0.1-0.3l0,0l0,0c0.1-0.1,0.2-0.1,0.3-0.1l0,0h3.5l0,0c0.1,0,0.2,0,0.3,0.1l0,0l0,0c0.1,0.1,0.1,0.2,0.1,0.3l0,0v16.9
		l0,0c0,0.1,0.1,0.2,0.2,0.2l0,0h9.9l0,0c0.1,0,0.2,0,0.3,0.1l0,0l0,0c0.1,0.1,0.1,0.2,0.1,0.3l0,0V87l0,0c0,0.1,0,0.2-0.1,0.3l0,0
		l0,0c-0.1,0.1-0.2,0.1-0.3,0.1l0,0L245.6,87.3L245.6,87.3z M275.9,78L275.9,78c0.1,0.8,0.2,1.6,0.1,2.6l0,0l0,0
		c0,0.2-0.1,0.4-0.4,0.4l0,0h-9.3l0,0c-0.1,0-0.2,0.1-0.1,0.2l0,0l0,0c0.1,0.4,0.2,0.8,0.3,1.2l0,0l0,0c0.5,1.1,1.6,1.7,3.2,1.7l0,0
		l0,0c1.3,0,2.3-0.5,3.1-1.6l0,0l0,0c0.1-0.1,0.2-0.2,0.3-0.2l0,0l0,0c0.1,0,0.1,0,0.2,0.1l0,0l2.2,2.1l0,0c0.1,0.1,0.2,0.2,0.2,0.3
		l0,0l0,0c0,0,0,0.1-0.1,0.3l0,0l0,0c-0.7,0.8-1.5,1.5-2.6,1.9l0,0l0,0c-1,0.4-2.2,0.7-3.4,0.7l0,0l0,0c-1.7,0-3.2-0.4-4.4-1.2l0,0
		l0,0c-1.2-0.8-2.1-1.9-2.6-3.3l0,0l0,0c-0.4-1-0.6-2.3-0.6-4l0,0l0,0c0-1.1,0.2-2.1,0.5-2.9l0,0l0,0c0.5-1.4,1.3-2.6,2.4-3.4l0,0
		l0,0c1.2-0.8,2.5-1.3,4.1-1.3l0,0l0,0c2,0,3.6,0.6,4.8,1.7l0,0l0,0C274.9,74.5,275.7,76,275.9,78L275.9,78z M268.9,75.2L268.9,75.2
		c-1.3,0-2.1,0.6-2.5,1.8l0,0l0,0c-0.1,0.3-0.1,0.6-0.2,1l0,0l0,0c0,0.1,0.1,0.2,0.2,0.2l0,0h5.2l0,0c0.1,0,0.2-0.1,0.1-0.2l0,0l0,0
		c-0.1-0.6-0.2-0.9-0.2-0.8l0,0l0,0c-0.2-0.6-0.5-1.1-0.9-1.4l0,0l0,0C270.1,75.4,269.6,75.2,268.9,75.2L268.9,75.2z M284.9,71.6
		L284.9,71.6c1.3,0,2.5,0.2,3.5,0.7l0,0l0,0c1,0.4,1.8,1.1,2.4,1.9l0,0l0,0c0.6,0.8,0.9,1.7,0.9,2.6l0,0V87l0,0c0,0.1,0,0.2-0.1,0.3
		l0,0l0,0c-0.1,0.1-0.2,0.1-0.3,0.1l0,0h-3.5l0,0c-0.1,0-0.2,0-0.3-0.1l0,0l0,0c-0.1-0.1-0.1-0.2-0.1-0.3l0,0v-1l0,0
		c0-0.1,0-0.1-0.1-0.1l0,0l0,0c0,0-0.1,0-0.1,0.1l0,0l0,0c-0.8,1.1-2.2,1.7-4.1,1.7l0,0l0,0c-1.6,0-2.8-0.4-3.8-1.1l0,0l0,0
		c-1-0.8-1.5-1.9-1.5-3.4l0,0l0,0c0-1.5,0.5-2.7,1.6-3.6l0,0l0,0c1.1-0.8,2.6-1.3,4.6-1.3l0,0h3.1l0,0c0.1,0,0.2-0.1,0.2-0.2l0,0
		v-0.7l0,0c0-0.7-0.2-1.2-0.6-1.6l0,0l0,0c-0.4-0.4-1-0.6-1.8-0.6l0,0l0,0c-0.6,0-1.1,0.1-1.5,0.3l0,0l0,0c-0.4,0.2-0.7,0.5-0.8,0.9
		l0,0l0,0c-0.1,0.2-0.2,0.3-0.4,0.3l0,0l-3.7-0.5l0,0c-0.2,0-0.4-0.1-0.3-0.3l0,0l0,0c0.1-0.8,0.4-1.6,1-2.3l0,0l0,0
		c0.6-0.7,1.4-1.2,2.4-1.6l0,0l0,0C282.6,71.8,283.7,71.6,284.9,71.6L284.9,71.6z M284.3,84.4L284.3,84.4c0.9,0,1.6-0.2,2.2-0.7l0,0
		l0,0c0.6-0.5,0.9-1.1,0.9-1.8l0,0v-1.1l0,0c0-0.1-0.1-0.2-0.2-0.2l0,0H285l0,0c-0.9,0-1.6,0.2-2.1,0.5l0,0l0,0
		c-0.5,0.3-0.8,0.8-0.8,1.4l0,0l0,0c0,0.5,0.2,1,0.6,1.3l0,0l0,0C283.1,84.2,283.6,84.4,284.3,84.4L284.3,84.4z M304.2,66.6
		L304.2,66.6c0-0.1,0-0.2,0.1-0.3l0,0l0,0c0.1-0.1,0.2-0.1,0.3-0.1l0,0h3.5l0,0c0.1,0,0.2,0,0.3,0.1l0,0l0,0
		c0.1,0.1,0.1,0.2,0.1,0.3l0,0V87l0,0c0,0.1,0,0.2-0.1,0.3l0,0l0,0c-0.1,0.1-0.2,0.1-0.3,0.1l0,0h-3.5l0,0c-0.1,0-0.2,0-0.3-0.1l0,0
		l0,0c-0.1-0.1-0.1-0.2-0.1-0.3l0,0v-1l0,0c0-0.1,0-0.1-0.1-0.1l0,0l0,0H304l0,0l0,0c-0.8,1.1-2,1.7-3.5,1.7l0,0l0,0
		c-1.4,0-2.6-0.4-3.6-1.2l0,0l0,0c-1-0.8-1.7-1.9-2.2-3.2l0,0l0,0c-0.3-1.1-0.5-2.3-0.5-3.7l0,0l0,0c0-1.4,0.2-2.7,0.5-3.7l0,0l0,0
		c0.5-1.3,1.2-2.3,2.2-3.1l0,0l0,0c1-0.8,2.2-1.1,3.7-1.1l0,0l0,0c1.5,0,2.6,0.5,3.4,1.5l0,0l0,0c0,0.1,0.1,0.1,0.1,0.1l0,0l0,0
		l0.1-0.1l0,0V66.6z M303.6,82.6L303.6,82.6c0.4-0.7,0.6-1.8,0.6-3.1l0,0l0,0c0-1.3-0.2-2.4-0.7-3.2l0,0l0,0c-0.5-0.8-1.1-1.2-2-1.2
		l0,0l0,0c-0.9,0-1.7,0.4-2.1,1.2l0,0l0,0c-0.5,0.8-0.8,1.9-0.8,3.2l0,0l0,0c0,1.2,0.2,2.2,0.6,3l0,0l0,0c0.5,0.9,1.2,1.3,2.2,1.3
		l0,0l0,0C302.4,83.9,303.1,83.5,303.6,82.6L303.6,82.6z M325.4,78L325.4,78c0.1,0.8,0.2,1.6,0.1,2.6l0,0l0,0c0,0.2-0.1,0.4-0.4,0.4
		l0,0h-9.3l0,0c-0.1,0-0.2,0.1-0.1,0.2l0,0l0,0c0.1,0.4,0.2,0.8,0.3,1.2l0,0l0,0c0.5,1.1,1.6,1.7,3.2,1.7l0,0l0,0
		c1.3,0,2.3-0.5,3.1-1.6l0,0l0,0c0.1-0.1,0.2-0.2,0.3-0.2l0,0l0,0c0.1,0,0.1,0,0.2,0.1l0,0l2.2,2.1l0,0c0.1,0.1,0.2,0.2,0.2,0.3l0,0
		l0,0c0,0,0,0.1-0.1,0.3l0,0l0,0c-0.7,0.8-1.5,1.5-2.6,1.9l0,0l0,0c-1,0.4-2.2,0.7-3.4,0.7l0,0l0,0c-1.7,0-3.2-0.4-4.4-1.2l0,0l0,0
		c-1.2-0.8-2.1-1.9-2.6-3.3l0,0l0,0c-0.4-1-0.6-2.3-0.6-4l0,0l0,0c0-1.1,0.2-2.1,0.5-2.9l0,0l0,0c0.5-1.4,1.3-2.6,2.4-3.4l0,0l0,0
		c1.2-0.8,2.5-1.3,4.1-1.3l0,0l0,0c2,0,3.6,0.6,4.8,1.7l0,0l0,0C324.4,74.5,325.2,76,325.4,78L325.4,78z M318.4,75.2L318.4,75.2
		c-1.3,0-2.1,0.6-2.5,1.8l0,0l0,0c-0.1,0.3-0.1,0.6-0.2,1l0,0l0,0c0,0.1,0.1,0.2,0.2,0.2l0,0h5.2l0,0c0.1,0,0.2-0.1,0.1-0.2l0,0l0,0
		c-0.1-0.6-0.2-0.9-0.2-0.8l0,0l0,0c-0.2-0.6-0.5-1.1-0.9-1.4l0,0l0,0C319.6,75.4,319.1,75.2,318.4,75.2L318.4,75.2z M335.9,71.6
		L335.9,71.6c0.7,0,1.3,0.1,1.7,0.4l0,0l0,0c0.2,0.1,0.2,0.2,0.2,0.5l0,0l-0.6,3.5l0,0c0,0.2-0.2,0.3-0.4,0.2l0,0l0,0
		c-0.3-0.1-0.7-0.2-1.1-0.2l0,0l0,0c-0.2,0-0.4,0-0.7,0.1l0,0l0,0c-0.7,0.1-1.3,0.3-1.8,0.8l0,0l0,0c-0.5,0.5-0.8,1.1-0.8,1.9l0,0
		V87l0,0c0,0.1,0,0.2-0.1,0.3l0,0l0,0c-0.1,0.1-0.2,0.1-0.3,0.1l0,0h-3.5l0,0c-0.1,0-0.2,0-0.3-0.1l0,0l0,0
		c-0.1-0.1-0.1-0.2-0.1-0.3l0,0V72.2l0,0c0-0.1,0-0.2,0.1-0.3l0,0l0,0c0.1-0.1,0.2-0.1,0.3-0.1l0,0h3.5l0,0c0.1,0,0.2,0,0.3,0.1l0,0
		l0,0c0.1,0.1,0.1,0.2,0.1,0.3l0,0v1.2l0,0c0,0.1,0,0.1,0.1,0.1l0,0l0,0h0.1l0,0l0,0C333.4,72.2,334.5,71.6,335.9,71.6L335.9,71.6z"
		/>
	<path class="st0" d="M274.2,104.2L274.2,104.2c0,0.1,0,0.1-0.1,0.1l0,0l0,0c0,0-0.1,0.1-0.2,0.1l0,0h-5.7l0,0c-0.1,0-0.1,0-0.1,0.1
		l0,0v3.1l0,0c0,0.1,0,0.1,0.1,0.1l0,0h3.8l0,0c0.1,0,0.1,0,0.2,0.1l0,0l0,0c0,0,0.1,0.1,0.1,0.2l0,0v1.3l0,0c0,0.1,0,0.1-0.1,0.2
		l0,0l0,0c0,0-0.1,0.1-0.2,0.1l0,0h-3.8l0,0c-0.1,0-0.1,0-0.1,0.1l0,0v3.2l0,0c0,0.1,0,0.1,0.1,0.1l0,0h5.7l0,0c0.1,0,0.1,0,0.2,0.1
		l0,0l0,0l0.1,0.1l0,0v1.3l0,0c0,0.1,0,0.1-0.1,0.1l0,0l0,0c0,0-0.1,0.1-0.2,0.1l0,0h-7.5l0,0c-0.1,0-0.1,0-0.1-0.1l0,0l0,0
		l-0.1-0.1l0,0V103l0,0c0-0.1,0-0.1,0.1-0.1l0,0l0,0l0.1-0.1l0,0h7.5l0,0c0.1,0,0.1,0,0.2,0.1l0,0l0,0l0.1,0.1l0,0V104.2z
		 M281,106.1L281,106.1c0-0.1,0-0.1,0.1-0.2l0,0l0,0l0.1-0.1l0,0h1.5l0,0c0.1,0,0.1,0,0.2,0.1l0,0l0,0c0,0,0.1,0.1,0.1,0.2l0,0v8.2
		l0,0c0,0.1,0,0.1-0.1,0.1l0,0l0,0c0,0-0.1,0.1-0.2,0.1l0,0h-1.5l0,0c-0.1,0-0.1,0-0.1-0.1l0,0l0,0l-0.1-0.1l0,0v-0.5l0,0v-0.1l0,0
		l0,0c0,0,0,0-0.1,0l0,0l0,0c-0.5,0.6-1.1,0.9-2.1,0.9l0,0l0,0c-0.8,0-1.6-0.2-2.1-0.7l0,0l0,0c-0.6-0.5-0.9-1.2-0.9-2.1l0,0v-5.6
		l0,0c0-0.1,0-0.1,0.1-0.2l0,0l0,0c0,0,0.1-0.1,0.2-0.1l0,0h1.5l0,0c0.1,0,0.1,0,0.2,0.1l0,0l0,0c0,0,0.1,0.1,0.1,0.2l0,0v5.1l0,0
		c0,0.5,0.1,0.9,0.4,1.3l0,0l0,0c0.3,0.3,0.7,0.5,1.2,0.5l0,0l0,0c0.5,0,0.9-0.2,1.2-0.5l0,0l0,0c0.3-0.3,0.5-0.7,0.5-1.3l0,0v-5.2
		H281z M289,105.8L289,105.8c0.4,0,0.7,0.1,0.9,0.2l0,0l0,0c0.1,0,0.1,0.1,0.1,0.3l0,0l-0.3,1.5l0,0c0,0.1-0.1,0.2-0.2,0.1l0,0l0,0
		c-0.2-0.1-0.4-0.1-0.6-0.1l0,0l0,0c-0.1,0-0.3,0-0.3,0l0,0l0,0c-0.5,0-0.9,0.2-1.2,0.5l0,0l0,0c-0.3,0.3-0.5,0.7-0.5,1.2l0,0v4.7
		l0,0c0,0.1,0,0.1-0.1,0.1l0,0l0,0l-0.1,0.1l0,0h-1.5l0,0c-0.1,0-0.1,0-0.2-0.1l0,0l0,0l-0.1-0.1l0,0V106l0,0c0-0.1,0-0.1,0.1-0.2
		l0,0l0,0c0,0,0.1-0.1,0.2-0.1l0,0h1.5l0,0c0.1,0,0.1,0,0.1,0.1l0,0l0,0c0,0,0.1,0.1,0.1,0.2l0,0v0.8l0,0v0.1l0,0l0,0c0,0,0,0,0.1,0
		l0,0l0,0C287.5,106.2,288.2,105.8,289,105.8L289,105.8z M295,114.6L295,114.6c-0.9,0-1.6-0.2-2.3-0.7l0,0l0,0
		c-0.6-0.4-1.1-1.1-1.3-1.9l0,0l0,0c-0.2-0.6-0.3-1.2-0.3-1.9l0,0l0,0c0-0.7,0.1-1.4,0.3-1.9l0,0l0,0c0.3-0.8,0.7-1.4,1.3-1.8l0,0
		l0,0c0.6-0.4,1.4-0.7,2.3-0.7l0,0l0,0c0.8,0,1.6,0.2,2.2,0.7l0,0l0,0c0.6,0.4,1.1,1,1.3,1.8l0,0l0,0c0.2,0.5,0.3,1.2,0.3,1.9l0,0
		l0,0c0,0.7-0.1,1.3-0.3,1.9l0,0l0,0c-0.3,0.8-0.7,1.4-1.3,1.9l0,0l0,0C296.6,114.4,295.8,114.6,295,114.6L295,114.6z M295,112.9
		L295,112.9c0.4,0,0.8-0.1,1.1-0.4l0,0l0,0c0.3-0.2,0.5-0.6,0.6-1l0,0l0,0c0.1-0.4,0.2-0.8,0.2-1.4l0,0l0,0c0-0.6-0.1-1.1-0.2-1.4
		l0,0l0,0c-0.1-0.4-0.3-0.7-0.6-1l0,0l0,0c-0.3-0.2-0.7-0.4-1.1-0.4l0,0l0,0c-0.4,0-0.8,0.1-1.1,0.4l0,0l0,0c-0.3,0.2-0.5,0.5-0.7,1
		l0,0l0,0c-0.1,0.4-0.2,0.9-0.2,1.4l0,0l0,0c0,0.5,0.1,1,0.2,1.4l0,0l0,0c0.1,0.4,0.3,0.8,0.6,1l0,0l0,0
		C294.2,112.8,294.5,112.9,295,112.9L295,112.9z M307.9,108.1L307.9,108.1c0.2,0.6,0.3,1.3,0.3,2.1l0,0l0,0c0,0.8-0.1,1.5-0.3,2l0,0
		l0,0c-0.2,0.7-0.6,1.3-1.2,1.7l0,0l0,0c-0.5,0.4-1.2,0.6-2,0.6l0,0l0,0c-0.8,0-1.4-0.3-1.9-0.9l0,0l0,0c0,0,0,0-0.1,0l0,0l0,0
		c0,0,0,0,0,0.1l0,0v3.6l0,0c0,0.1,0,0.1-0.1,0.1l0,0l0,0c0,0-0.1,0.1-0.2,0.1l0,0h-1.5l0,0c-0.1,0-0.1,0-0.2-0.1l0,0l0,0l-0.1-0.1
		l0,0V106l0,0c0-0.1,0-0.1,0.1-0.2l0,0l0,0c0,0,0.1-0.1,0.2-0.1l0,0h1.5l0,0c0.1,0,0.1,0,0.2,0.1l0,0l0,0c0,0,0.1,0.1,0.1,0.2l0,0
		v0.5l0,0v0.1l0,0l0,0c0,0,0,0,0.1,0l0,0l0,0c0.5-0.6,1.1-0.9,1.9-0.9l0,0l0,0c0.8,0,1.5,0.2,2,0.6l0,0l0,0
		C307.3,106.8,307.7,107.4,307.9,108.1L307.9,108.1z M305.7,112.2L305.7,112.2c0.3-0.5,0.5-1.2,0.5-2l0,0l0,0c0-0.8-0.1-1.5-0.4-1.9
		l0,0l0,0c-0.3-0.5-0.8-0.8-1.4-0.8l0,0l0,0c-0.6,0-1,0.3-1.3,0.8l0,0l0,0c-0.3,0.4-0.4,1.1-0.4,1.9l0,0l0,0c0,0.9,0.1,1.6,0.4,2
		l0,0l0,0c0.3,0.5,0.7,0.7,1.3,0.7l0,0l0,0C305,112.9,305.4,112.7,305.7,112.2L305.7,112.2z M317.3,109.2L317.3,109.2
		c0,0.3,0.1,0.6,0.1,0.9l0,0v0.5l0,0c0,0.1-0.1,0.2-0.2,0.2l0,0H312l0,0c-0.1,0-0.1,0-0.1,0.1l0,0l0,0c0,0.4,0.1,0.6,0.2,0.8l0,0
		l0,0c0.3,0.8,0.9,1.2,2,1.2l0,0l0,0c0.8,0,1.4-0.3,1.8-0.9l0,0l0,0c0-0.1,0.1-0.1,0.2-0.1l0,0l0,0c0,0,0.1,0,0.1,0.1l0,0l1,0.9l0,0
		c0.1,0.1,0.1,0.2,0.1,0.3l0,0l0,0c-0.3,0.5-0.8,0.9-1.4,1.1l0,0l0,0c-0.6,0.3-1.2,0.4-1.9,0.4l0,0l0,0c-0.9,0-1.6-0.2-2.2-0.6l0,0
		l0,0c-0.6-0.4-1-0.9-1.3-1.6l0,0l0,0c-0.3-0.6-0.4-1.4-0.4-2.5l0,0l0,0c0-0.6,0.1-1.2,0.2-1.6l0,0l0,0c0.2-0.8,0.6-1.4,1.3-1.9l0,0
		l0,0c0.6-0.4,1.4-0.7,2.2-0.7l0,0l0,0C315.8,105.8,317,106.9,317.3,109.2L317.3,109.2z M313.6,107.5L313.6,107.5
		c-0.4,0-0.8,0.1-1,0.3l0,0l0,0c-0.3,0.2-0.5,0.5-0.6,0.9l0,0l0,0c-0.1,0.2-0.1,0.4-0.1,0.7l0,0l0,0c0,0.1,0,0.1,0.1,0.1l0,0h3.4
		l0,0c0.1,0,0.1,0,0.1-0.1l0,0l0,0c0-0.3-0.1-0.5-0.1-0.6l0,0l0,0c-0.1-0.4-0.3-0.7-0.6-0.9l0,0l0,0
		C314.4,107.6,314,107.5,313.6,107.5L313.6,107.5z"/>
	<path class="st8" d="M265.9,138.1L265.9,138.1c-0.1,0-0.2-0.1-0.2-0.2l0,0l-3-11.3v-0.1l0,0c0-0.1,0.1-0.2,0.2-0.2l0,0h2.1l0,0
		c0.1,0,0.2,0.1,0.2,0.2l0,0l1.6,6.8l0,0c0,0,0,0.1,0.1,0.1l0,0l0,0c0,0,0,0,0.1-0.1l0,0l1.5-6.8l0,0c0-0.1,0.1-0.2,0.2-0.2l0,0h2
		l0,0c0.1,0,0.2,0.1,0.2,0.2l0,0l1.7,6.8l0,0c0,0,0,0.1,0.1,0.1l0,0l0,0c0,0,0,0,0.1-0.1l0,0l1.5-6.8l0,0c0-0.1,0.1-0.2,0.2-0.2l0,0
		h2l0,0c0.2,0,0.2,0.1,0.2,0.2l0,0l-2.7,11.3l0,0c0,0.1-0.1,0.2-0.2,0.2l0,0h-2l0,0c-0.1,0-0.2-0.1-0.2-0.2l0,0l-1.7-7.3l0,0
		c0,0,0-0.1-0.1-0.1l0,0l0,0c0,0,0,0-0.1,0.1l0,0l-1.6,7.2l0,0c0,0.1-0.1,0.2-0.2,0.2l0,0h-2V138.1z M278.2,138.1L278.2,138.1
		c-0.1,0-0.1,0-0.2-0.1l0,0l0,0l-0.1-0.1l0,0v-11.3l0,0c0-0.1,0-0.1,0.1-0.1l0,0l0,0c0,0,0.1-0.1,0.2-0.1l0,0h2l0,0
		c0.1,0,0.1,0,0.1,0.1l0,0l0,0l0.1,0.1l0,0v11.3l0,0c0,0.1,0,0.1-0.1,0.1l0,0l0,0l-0.1,0.1l0,0H278.2z M289.1,126.6L289.1,126.6
		c0-0.1,0-0.1,0.1-0.1l0,0l0,0c0,0,0.1-0.1,0.2-0.1l0,0h2l0,0c0.1,0,0.1,0,0.1,0.1l0,0l0,0l0.1,0.1l0,0v11.3l0,0
		c0,0.1,0,0.1-0.1,0.1l0,0l0,0l-0.1,0.1l0,0h-1.9l0,0c-0.1,0-0.2,0-0.2-0.1l0,0l-4.3-7.2l0,0c0,0,0,0-0.1,0l0,0l0,0c0,0,0,0,0,0.1
		l0,0v7.1l0,0c0,0.1,0,0.1-0.1,0.1l0,0l0,0l-0.1,0.1l0,0h-2l0,0c-0.1,0-0.1,0-0.2-0.1l0,0l0,0l-0.1-0.1l0,0v-11.3l0,0
		c0-0.1,0-0.1,0.1-0.1l0,0l0,0c0,0,0.1-0.1,0.2-0.1l0,0h1.9l0,0c0.1,0,0.2,0,0.2,0.1l0,0l4.3,7.1l0,0c0,0,0,0,0.1,0l0,0l0,0
		c0,0,0,0,0-0.1l0,0L289.1,126.6z M301.6,126.4L301.6,126.4c0.1,0,0.1,0,0.1,0.1l0,0l0,0l0.1,0.1l0,0v1.6l0,0c0,0.1,0,0.1-0.1,0.1
		l0,0l0,0l-0.1,0.1l0,0h-3l0,0c-0.1,0-0.1,0-0.1,0.1l0,0v9.4l0,0c0,0.1,0,0.1-0.1,0.1l0,0l0,0l-0.1,0.1l0,0h-2l0,0
		c-0.1,0-0.1,0-0.2-0.1l0,0l0,0l-0.1-0.1l0,0v-9.4l0,0c0-0.1,0-0.1-0.1-0.1l0,0H293l0,0c-0.1,0-0.1,0-0.2-0.1l0,0l0,0l-0.1-0.1l0,0
		v-1.6l0,0c0-0.1,0-0.1,0.1-0.1l0,0l0,0c0,0,0.1-0.1,0.2-0.1l0,0H301.6z M311.5,128.2L311.5,128.2c0,0.1,0,0.1-0.1,0.1l0,0l0,0
		c0,0-0.1,0.1-0.2,0.1l0,0h-5.5l0,0c-0.1,0-0.1,0-0.1,0.1l0,0v2.6l0,0c0,0.1,0,0.1,0.1,0.1l0,0h3.6l0,0c0.1,0,0.1,0,0.1,0.1l0,0l0,0
		c0,0,0.1,0.1,0.1,0.2l0,0v1.6l0,0c0,0.1,0,0.1-0.1,0.2l0,0l0,0l-0.1,0.1l0,0h-3.6l0,0c-0.1,0-0.1,0-0.1,0.1l0,0v2.7l0,0
		c0,0.1,0,0.1,0.1,0.1l0,0h5.5l0,0c0.1,0,0.1,0,0.2,0.1l0,0l0,0c0,0,0.1,0.1,0.1,0.2l0,0v1.6l0,0c0,0.1,0,0.1-0.1,0.1l0,0l0,0
		c0,0-0.1,0.1-0.2,0.1l0,0h-7.7l0,0c-0.1,0-0.1,0-0.2-0.1l0,0l0,0l-0.1-0.1l0,0v-11.3l0,0c0-0.1,0-0.1,0.1-0.1l0,0l0,0
		c0,0,0.1-0.1,0.2-0.1l0,0h7.7l0,0c0.1,0,0.1,0,0.2,0.1l0,0l0,0l0.1,0.1l0,0V128.2z M319.6,138.1L319.6,138.1
		c-0.1,0-0.2-0.1-0.2-0.2l0,0l-2.1-4.6l0,0l-0.1-0.1l0,0h-1.6l0,0c-0.1,0-0.1,0-0.1,0.1l0,0v4.6l0,0c0,0.1,0,0.1-0.1,0.1l0,0l0,0
		l-0.1,0.1l0,0h-2l0,0c-0.1,0-0.1,0-0.2-0.1l0,0l0,0l-0.1-0.1l0,0v-11.3l0,0c0-0.1,0-0.1,0.1-0.1l0,0l0,0c0,0,0.1-0.1,0.2-0.1l0,0
		h4.8l0,0c0.7,0,1.3,0.1,1.9,0.4l0,0l0,0c0.5,0.3,1,0.7,1.3,1.2l0,0l0,0c0.3,0.5,0.5,1.2,0.5,1.9l0,0l0,0c0,0.8-0.2,1.4-0.6,1.9l0,0
		l0,0c-0.4,0.5-0.9,0.9-1.6,1.2l0,0l0,0c-0.1,0-0.1,0.1-0.1,0.1l0,0l2.3,4.7l0,0v0.1l0,0l0,0c0,0.1-0.1,0.1-0.2,0.1l0,0L319.6,138.1
		L319.6,138.1z M315.6,128.4L315.6,128.4C315.5,128.4,315.5,128.4,315.6,128.4L315.6,128.4l-0.1,3l0,0c0,0.1,0,0.1,0.1,0.1l0,0h2.2
		l0,0c0.5,0,0.8-0.1,1.1-0.4l0,0l0,0c0.3-0.3,0.5-0.6,0.5-1.1l0,0l0,0c0-0.4-0.2-0.8-0.5-1.1l0,0l0,0c-0.3-0.3-0.7-0.4-1.1-0.4l0,0
		h-2.2V128.4z"/>
	<path class="st8" d="M277.1,151.7L277.1,151.7C277.1,151.8,277.1,151.8,277.1,151.7L277.1,151.7L277.1,151.7c0,0.1,0,0.1,0.1,0.1
		l0,0h4.5l0,0c0.1,0,0.1,0,0.2,0.1l0,0l0,0c0,0,0.1,0.1,0.1,0.2l0,0v1.6l0,0c0,0.1,0,0.1-0.1,0.1l0,0l0,0c0,0-0.1,0.1-0.2,0.1l0,0
		h-7.5l0,0c-0.1,0-0.1,0-0.2-0.1l0,0l0,0l-0.1-0.1l0,0v-1.5l0,0c0-0.1,0-0.2,0.1-0.3l0,0l0,0c0.5-0.5,1.1-1.1,1.7-1.7l0,0l0,0
		c0.6-0.6,0.9-1,1.1-1.2l0,0l0,0c0.3-0.4,0.6-0.7,1-1.1l0,0l0,0c1-1.1,1.5-2,1.5-2.5l0,0l0,0c0-0.4-0.1-0.7-0.4-1l0,0l0,0
		c-0.3-0.2-0.6-0.4-1.1-0.4l0,0l0,0c-0.4,0-0.8,0.1-1.1,0.4l0,0l0,0c-0.3,0.3-0.4,0.6-0.4,1l0,0v0.4l0,0c0,0.1,0,0.1-0.1,0.2l0,0
		l0,0l-0.1,0.1l0,0h-2l0,0c-0.1,0-0.1,0-0.1-0.1l0,0l0,0c0,0-0.1-0.1-0.1-0.2l0,0V145l0,0c0-0.6,0.2-1.1,0.6-1.6l0,0l0,0
		c0.3-0.5,0.8-0.8,1.4-1.1l0,0l0,0c0.6-0.2,1.2-0.4,1.9-0.4l0,0l0,0c0.8,0,1.5,0.1,2.1,0.4l0,0l0,0c0.6,0.3,1,0.7,1.4,1.2l0,0l0,0
		c0.3,0.5,0.5,1.1,0.5,1.7l0,0l0,0c0,0.5-0.1,0.9-0.4,1.4l0,0l0,0c-0.2,0.5-0.6,1-1.1,1.6l0,0l0,0c-0.3,0.4-0.7,0.9-1.1,1.3l0,0l0,0
		c-0.4,0.4-1,1-1.8,1.8l0,0L277.1,151.7z M287.4,154.1L287.4,154.1c-1.2,0-2.2-0.3-2.9-1l0,0l0,0c-0.7-0.7-1.1-1.6-1.1-2.8l0,0v-4.4
		l0,0c0-1.2,0.4-2.1,1.1-2.8l0,0l0,0c0.7-0.7,1.7-1,2.9-1l0,0l0,0c1.2,0,2.2,0.3,2.9,1l0,0l0,0c0.7,0.7,1.1,1.6,1.1,2.8l0,0v4.4l0,0
		c0,1.2-0.4,2.1-1.1,2.8l0,0l0,0C289.6,153.7,288.6,154.1,287.4,154.1L287.4,154.1z M287.4,152L287.4,152c0.5,0,0.9-0.2,1.2-0.5l0,0
		l0,0c0.3-0.3,0.4-0.7,0.4-1.2l0,0v-4.6l0,0c0-0.5-0.1-0.9-0.4-1.2l0,0l0,0c-0.3-0.3-0.7-0.5-1.2-0.5l0,0l0,0
		c-0.5,0-0.9,0.2-1.2,0.5l0,0l0,0c-0.3,0.3-0.5,0.7-0.5,1.2l0,0v4.6l0,0c0,0.5,0.2,0.9,0.5,1.2l0,0l0,0
		C286.5,151.9,286.9,152,287.4,152L287.4,152z M296.1,151.7L296.1,151.7C296,151.8,296,151.8,296.1,151.7L296.1,151.7L296.1,151.7
		c0,0.1,0,0.1,0.1,0.1l0,0h4.5l0,0c0.1,0,0.1,0,0.2,0.1l0,0l0,0c0,0,0.1,0.1,0.1,0.2l0,0v1.6l0,0c0,0.1,0,0.1-0.1,0.1l0,0l0,0
		c0,0-0.1,0.1-0.2,0.1l0,0h-7.5l0,0c-0.1,0-0.1,0-0.1-0.1l0,0l0,0l-0.1-0.1l0,0v-1.5l0,0c0-0.1,0-0.2,0.1-0.3l0,0l0,0
		c0.5-0.5,1.1-1.1,1.7-1.7l0,0l0,0c0.6-0.6,0.9-1,1.1-1.2l0,0l0,0c0.3-0.4,0.6-0.7,1-1.1l0,0l0,0c1-1.1,1.5-2,1.5-2.5l0,0l0,0
		c0-0.4-0.1-0.7-0.4-1l0,0l0,0c-0.3-0.2-0.6-0.4-1.1-0.4l0,0l0,0c-0.4,0-0.8,0.1-1.1,0.4l0,0l0,0c-0.3,0.3-0.4,0.6-0.4,1l0,0v0.4
		l0,0c0,0.1,0,0.1-0.1,0.2l0,0l0,0c0,0-0.1,0.1-0.2,0.1l0,0h-2l0,0c-0.1,0-0.1,0-0.1-0.1l0,0l0,0c0,0-0.1-0.1-0.1-0.2l0,0V145l0,0
		c0-0.6,0.2-1.1,0.6-1.6l0,0l0,0c0.3-0.5,0.8-0.8,1.4-1.1l0,0l0,0c0.6-0.2,1.2-0.4,1.9-0.4l0,0l0,0c0.8,0,1.5,0.1,2.1,0.4l0,0l0,0
		c0.6,0.3,1,0.7,1.4,1.2l0,0l0,0c0.3,0.5,0.5,1.1,0.5,1.7l0,0l0,0c0,0.5-0.1,0.9-0.4,1.4l0,0l0,0c-0.2,0.5-0.6,1-1.1,1.6l0,0l0,0
		c-0.3,0.4-0.7,0.9-1.1,1.3l0,0l0,0c-0.4,0.4-1,1-1.8,1.8l0,0L296.1,151.7z M306.3,154.1L306.3,154.1c-1.2,0-2.2-0.3-2.9-1l0,0l0,0
		c-0.7-0.7-1.1-1.6-1.1-2.8l0,0v-4.4l0,0c0-1.2,0.4-2.1,1.1-2.8l0,0l0,0c0.7-0.7,1.7-1,2.9-1l0,0l0,0c1.2,0,2.2,0.3,2.9,1l0,0l0,0
		c0.7,0.7,1.1,1.6,1.1,2.8l0,0v4.4l0,0c0,1.2-0.4,2.1-1.1,2.8l0,0l0,0C308.5,153.7,307.5,154.1,306.3,154.1L306.3,154.1z M306.3,152
		L306.3,152c0.5,0,0.9-0.2,1.2-0.5l0,0l0,0c0.3-0.3,0.4-0.7,0.4-1.2l0,0v-4.6l0,0c0-0.5-0.1-0.9-0.4-1.2l0,0l0,0
		c-0.3-0.3-0.7-0.5-1.2-0.5l0,0l0,0c-0.5,0-0.9,0.2-1.2,0.5l0,0l0,0c-0.3,0.3-0.5,0.7-0.5,1.2l0,0v4.6l0,0c0,0.5,0.2,0.9,0.5,1.2
		l0,0l0,0C305.4,151.9,305.8,152,306.3,152L306.3,152z"/>
</g>
</svg>
