<?xml version="1.0" encoding="UTF-8"?>
<svg width="401px" height="84px" viewBox="0 0 401 84" version="1.1" xmlns="http://www.w3.org/2000/svg" xmlns:xlink="http://www.w3.org/1999/xlink">
    <!-- Generator: Sketch 62 (91390) - https://sketch.com -->
    <title>Group 12</title>
    <desc>Created with Sketch.</desc>
    <defs>
        <rect id="path-1" x="0" y="0" width="138.635206" height="26.5763839"></rect>
    </defs>
    <g id="Page-1" stroke="none" stroke-width="1" fill="none" fill-rule="evenodd">
        <g id="recurring-3-copy" transform="translate(-247.000000, -449.000000)">
            <g id="Group-12" transform="translate(247.000000, 449.000000)">
                <g id="Stripe-logo---slate" fill="#00000A">
                    <path d="M49.4885627,6.32408533 C52.9934184,6.32408533 56.2979967,9.48612799 56.3180244,15.2898772 C56.3180244,21.6339754 53.0535017,24.5158371 49.468535,24.5158371 C47.7060932,24.5158371 46.6446226,23.7753588 45.9236238,23.2550226 L45.9236238,23.2550226 L45.903596,28.9186813 L40.8966593,29.9793665 L40.8966593,6.64429218 L45.3027636,6.64429218 L45.5631243,7.88509373 C46.2640954,7.24468003 47.5258435,6.32408533 49.4885627,6.32408533 Z M18.6057769,2.32149968 L18.5857492,6.66430511 L22.3910211,6.66430511 L22.3910211,10.9270588 L18.5857492,10.9270588 L18.5857492,18.0316484 C18.5857492,20.9935617 21.7501332,20.072967 22.3910211,19.812799 L22.3910211,19.812799 L22.3910211,23.8754234 C21.7301054,24.2356561 20.5284406,24.53585 18.8861654,24.53585 C15.9220588,24.53585 13.6989789,22.3544409 13.6989789,19.3925275 L13.6989789,19.3925275 L13.7190067,3.36217195 L18.6057769,2.32149968 Z M6.76937847,6.32408533 C8.43168147,6.32408533 10.0739567,6.58425339 11.7362597,7.24468003 L11.7362597,7.24468003 L11.7362597,11.9477182 C10.2141509,11.1271881 8.29148724,10.6668908 6.76937847,10.6668908 C5.70790788,10.6668908 5.06701998,10.9670847 5.06701998,11.7475889 C5.06701998,13.9890368 12.6975916,12.9283516 12.7176193,18.8922043 C12.7176193,22.4745184 9.8536515,24.53585 5.68788013,24.53585 C3.9654939,24.53585 2.08288568,24.1956303 0.220305216,23.3951131 L0.220305216,23.3951131 L0.220305216,18.6320362 C1.90263596,19.5526309 4.02557714,20.2330705 5.68788013,20.2330705 C6.80943396,20.2330705 7.61054384,19.9328765 7.61054384,19.0122818 C7.61054384,16.6307434 -1.77635684e-15,17.5113122 -1.77635684e-15,11.987744 C-1.77635684e-15,8.44545572 2.70374584,6.32408533 6.76937847,6.32408533 Z M64.8698724,6.32408533 C69.6164484,6.32408533 72.099889,10.3666968 72.099889,15.4900065 C72.099889,15.9703167 72.0598335,17.010989 72.0598335,17.2711571 L72.0598335,17.2711571 L62.2662653,17.2711571 C62.4865705,19.6326826 64.2089567,20.3131222 66.1516482,20.3131222 C68.1343951,20.3131222 69.6965594,19.8928507 71.0584462,19.2124111 L71.0584462,19.2124111 L71.0584462,23.2149968 C69.6965594,23.975488 67.8940622,24.5158371 65.5107603,24.5158371 C60.62399,24.5158371 57.219273,21.473872 57.219273,15.4499806 C57.219273,10.3666968 60.1032686,6.32408533 64.8698724,6.32408533 Z M39.0340788,6.66430511 L39.0340788,24.1756173 L34.0071143,24.1756173 L34.0071143,6.66430511 L39.0340788,6.66430511 Z M28.6196504,8.1452618 C29.8012875,5.98386555 32.1445339,6.42414997 32.7854218,6.66430511 L32.7854218,6.66430511 L32.7854218,11.2672786 C32.1645616,11.0471364 30.1617869,10.7669554 28.9801498,12.3079509 L28.9801498,12.3079509 L28.9801498,24.1756173 L23.9732131,24.1756173 L23.9732131,6.66430511 L28.2992064,6.66430511 Z M48.2868979,10.7669554 C47.1453163,10.7669554 46.4243174,11.167214 45.903596,11.7475889 L45.903596,11.7475889 L45.9236238,19.1723853 C46.4042897,19.6927214 47.1052608,20.1129929 48.2868979,20.1129929 C50.1294506,20.1129929 51.3711709,18.1117001 51.3711709,15.4299677 C51.3711709,12.8082741 50.1094229,10.7669554 48.2868979,10.7669554 Z M64.8498446,10.3867098 C63.5880966,10.3867098 62.206182,11.3273174 62.206182,13.5887783 L62.206182,13.5887783 L67.3733407,13.5887783 C67.3733407,11.3273174 66.0715372,10.3867098 64.8498446,10.3867098 Z M39.0340788,2.22044605e-15 L39.0340788,4.06262443 L34.0071143,5.14332256 L34.0071143,1.0606852 L39.0340788,2.22044605e-15 Z" id="Combined-Shape"></path>
                </g>
                <g id="gocardless-blue-rgb" transform="translate(103.142897, 4.669683)" fill="#00000A" fill-rule="nonzero">
                    <path d="M8.19891454,0.671544926 C11.0214917,0.671544926 12.7015971,1.41024434 14.3817026,2.82048869 L12.2311676,5.4395139 C11.0214917,4.43219651 9.9462242,3.82780608 8.13171032,3.82780608 C5.64888784,3.82780608 3.6742454,5.92249771 3.5664588,8.5073613 L3.56182353,8.73008403 C3.56182353,11.5505727 5.57795006,13.632362 8.33332297,13.632362 C9.61020311,13.632362 10.6854706,13.2965895 11.6263296,12.6921991 L11.6263296,10.4761008 L8.13171032,10.4761008 L8.13171032,7.52130317 L14.9193363,7.52130317 L14.9193363,14.3039069 C13.3064351,15.6469968 11.0886959,16.7886231 8.26611876,16.7886231 C3.45106102,16.7886231 0.124982329,13.4894169 0.00344548372,9.04974426 L7.10542736e-15,8.79723853 C7.10542736e-15,4.29788752 3.49461931,0.671544926 8.19891454,0.671544926 Z M42.943495,0.671544926 C45.6988679,0.671544926 47.3789734,1.67886231 48.9246704,3.15626115 L47.7149945,4.43219651 C46.4381143,3.15626115 45.0268257,2.28325275 42.943495,2.28325275 C39.5832841,2.28325275 37.0295239,5.03658694 37.0295239,8.73008403 C37.0295239,12.3564266 39.5832841,15.1769153 42.943495,15.1769153 C45.0268257,15.1769153 46.4381143,14.3710614 47.8494029,12.9608171 L48.9918746,14.1024434 C47.4461776,15.7141513 45.6988679,16.7886231 42.8762908,16.7886231 C38.5080166,16.7886231 35.21501,13.229435 35.21501,8.73008403 C35.21501,4.29788752 38.4408124,0.671544926 42.943495,0.671544926 Z M25.0671731,0.671544926 C29.7714684,0.671544926 33.1316792,4.23073303 33.1316792,8.66292954 L33.1316792,8.66292954 L33.128235,8.9083157 C33.0067661,13.2281914 29.6843518,16.7214686 25.0671731,16.7214686 C20.3628779,16.7214686 17.002667,13.1622805 17.002667,8.73008403 L17.002667,8.73008403 L17.0061112,8.48469787 C17.1275802,4.16482214 20.4499945,0.671544926 25.0671731,0.671544926 Z M131.653062,0.604390433 C133.870801,0.604390433 135.416498,1.27593536 136.962195,2.48471622 L135.954132,3.89496057 C134.542844,2.6861797 133.131555,2.21609825 131.585858,2.21609825 C129.636936,2.21609825 128.360055,3.35772463 128.360055,4.76796897 C128.494464,6.3125223 129.23371,7.1855307 132.593921,7.85707563 C135.954132,8.59577505 137.499829,9.87171041 137.499829,12.2892721 C137.499829,14.9754518 135.349294,16.7214686 132.325104,16.7214686 C129.905752,16.7214686 127.95683,15.9156147 126.142316,14.2367524 L127.217584,12.9608171 C128.763281,14.4382159 130.308978,15.1769153 132.392309,15.1769153 C134.408435,15.1769153 135.752519,14.1024434 135.752519,12.4907356 C135.752519,11.0133368 135.013273,10.1403284 131.787471,9.46878345 C128.292851,8.66292954 126.67995,7.52130317 126.67995,4.90227796 C126.67995,2.41756173 128.763281,0.604390433 131.653062,0.604390433 Z M145.429927,0.604390433 C147.647666,0.604390433 149.193363,1.27593536 150.73906,2.48471622 L149.730997,3.89496057 C148.319708,2.6861797 146.90842,2.21609825 145.362723,2.21609825 C143.4138,2.21609825 142.13692,3.35772463 142.13692,4.76796897 C142.204124,6.3125223 143.010575,7.1855307 146.370786,7.85707563 C149.730997,8.59577505 151.276694,9.87171041 151.276694,12.2892721 C151.276694,14.9754518 149.126159,16.7214686 146.101969,16.7214686 C143.682617,16.7214686 141.733695,15.9156147 139.919181,14.2367524 L140.994448,12.9608171 C142.540145,14.4382159 144.085842,15.1769153 146.169173,15.1769153 C148.1853,15.1769153 149.529384,14.1024434 149.529384,12.4907356 C149.529384,11.0133368 148.790138,10.1403284 145.564335,9.46878345 C142.069716,8.66292954 140.456815,7.52130317 140.456815,4.90227796 C140.456815,2.41756173 142.540145,0.604390433 145.429927,0.604390433 Z M58.7364861,1.00731739 L65.7257248,16.5200052 L63.8440067,16.5200052 L62.0294928,12.4235811 L53.6961698,12.4235811 L51.8816559,16.5200052 L50.1343463,16.5200052 L57.1235849,1.00731739 L58.7364861,1.00731739 Z M74.7310899,1.00731739 C78.0913008,1.00731739 80.2418357,2.82048869 80.2418357,5.64097738 C80.2418357,8.19284809 78.5617303,9.73740142 76.1423785,10.1403284 L76.1423785,10.1403284 L80.7122653,16.5200052 L78.5617303,16.5200052 L74.1934562,10.4761008 L69.8923862,10.4761008 L69.8923862,16.5200052 L68.2122808,16.5200052 L68.2122808,1.00731739 Z M88.7767714,1.00731739 C93.6826792,1.00731739 97.0428901,4.36504202 97.1100943,8.73008403 C97.0428901,13.0951261 93.6826792,16.5200052 88.7767714,16.5200052 L88.7767714,16.5200052 L83.3332297,16.5200052 L83.3332297,1.00731739 Z M101.612777,1.00731739 L101.612777,14.9082973 L110.550938,14.9082973 L110.550938,16.5200052 L99.798263,16.5200052 L99.798263,1.00731739 L101.612777,1.00731739 Z M123.722964,1.00731739 L123.722964,2.61902521 L114.717599,2.61902521 L114.717599,7.92423012 L122.714901,7.92423012 L122.714901,9.46878345 L114.717599,9.46878345 L114.717599,14.9082973 L123.790169,14.9082973 L123.790169,16.5200052 L113.037494,16.5200052 L113.037494,1.00731739 L123.722964,1.00731739 Z M88.7767714,2.61902521 L85.1477436,2.61902521 L85.1477436,14.9082973 L88.7767714,14.9082973 C92.674616,14.9082973 95.2283762,12.2221176 95.2283762,8.79723853 C95.2283762,5.30520491 92.7418202,2.61902521 88.7767714,2.61902521 L88.7767714,2.61902521 Z M25.0671731,3.82780608 C22.3790044,3.82780608 20.4972863,5.97674984 20.4972863,8.66292954 L20.4972863,8.66292954 L20.5016191,8.88565227 C20.6024485,11.4705159 22.4536758,13.5652075 25.0671731,13.5652075 C27.7553418,13.5652075 29.6370599,11.4162637 29.6370599,8.73008403 C29.6370599,6.04390433 27.7553418,3.82780608 25.0671731,3.82780608 Z M57.9300355,3.02195217 L54.4354162,10.8790278 L61.4246548,10.8790278 L57.9300355,3.02195217 Z M74.5966815,2.61902521 L69.9595905,2.61902521 L69.9595905,8.93154751 L74.5966815,8.93154751 C76.8816249,8.93154751 78.4945261,7.72276665 78.4945261,5.70813187 C78.4945261,3.76065158 77.0160333,2.61902521 74.5966815,2.61902521 L74.5966815,2.61902521 Z" id="Combined-Shape"></path>
                </g>
                <g id="worldpay" transform="translate(282.947558, 0.000000)" fill="#00000A" fill-rule="nonzero">
                    <path d="M30.4091708,5.93042278 C26.4171233,5.93042278 23.2906945,9.19995061 23.2906945,13.3749323 C23.2906945,17.4929483 26.4171233,20.7205014 30.4091708,20.7205014 C34.4012184,20.7205014 37.5276606,17.4944474 37.5276606,13.3749323 C37.5351482,9.20144971 34.4072192,5.93042278 30.4091708,5.93042278 Z M30.4091708,17.7178127 C28.2908803,17.7178127 26.6946614,15.8514384 26.6946614,13.370435 C26.6946614,10.8369632 28.2923805,8.92711518 30.4091708,8.92711518 C32.5259612,8.92711518 34.1596852,10.8429596 34.1596852,13.3749323 C34.1596852,15.8514384 32.5484643,17.7178127 30.4091708,17.7178127 Z M54.8160184,-2.54920758e-05 L52.1621544,-2.54920758e-05 C51.9425911,-2.54920758e-05 51.7645999,0.177859527 51.7645999,0.397260373 L51.7645999,19.8944997 C51.7645999,20.1139005 51.9425911,20.2917601 52.1621544,20.2917601 L54.820519,20.2917601 C55.0400823,20.2917601 55.2180736,20.1139005 55.2180736,19.8944997 L55.2180736,0.397260373 C55.2180736,0.291116517 55.175578,0.189384215 55.1000458,0.114752805 C55.0245137,0.0401213954 54.9222341,-0.00120162878 54.8160184,-2.54920758e-05 Z M49.0567285,6.29620215 C47.9943725,6.05607727 46.9084789,5.93539995 45.8192844,5.93641276 C43.0754081,5.93641276 40.3195301,6.78490736 40.3195301,11.1187932 L40.3195301,19.9004961 C40.3195301,20.1198969 40.4975213,20.2977564 40.7170846,20.2977564 L43.3784497,20.2977564 C43.598013,20.2977564 43.7760042,20.1198969 43.7760042,19.9004961 L43.7760042,11.1892507 C43.7760042,10.5551332 43.8870194,8.97508625 46.2618451,8.97508625 C46.98231,8.98381509 47.7010326,9.04796612 48.41164,9.1669705 C48.6062177,9.21974883 48.8070228,9.10604344 48.8617017,8.91212423 L49.4377807,6.76242092 C49.5007894,6.51806832 49.3477684,6.35166869 49.0567285,6.29170486 L49.0567285,6.29620215 Z M21.7319807,6.36216236 L18.8935914,6.36216236 C18.7178128,6.36228711 18.5640116,6.48031908 18.5185399,6.64998874 L15.8181696,16.188735 L13.3413299,7.69785667 C13.1201631,6.90659674 12.3992392,6.35895296 11.5770879,6.35766507 L10.7009677,6.35766507 C9.87881635,6.35895296 9.15789245,6.90659674 8.93672574,7.69785667 L6.46138623,16.1842377 L3.76101585,6.64549146 C3.71554421,6.47582179 3.56174295,6.35766507 3.38596441,6.35766507 L0.546074898,6.35766507 C0.419146764,6.35781689 0.299920898,6.41852297 0.2251948,6.52104717 C0.150468701,6.62357138 0.129226026,6.75558813 0.168023046,6.8763522 L4.04155433,19.0010386 C4.28539368,19.769431 4.99909984,20.2915793 5.80579631,20.2917672 L6.9489531,20.2917672 C7.77100755,20.2883549 8.49435061,19.7486827 8.73119755,18.9620621 L11.1315268,10.8444586 L13.531856,18.9620621 C13.7687029,19.7486827 14.492046,20.2883549 15.3141004,20.2917672 L16.4572572,20.2917672 C17.2665726,20.2939917 17.983527,19.7706379 18.2275,18.9995395 L22.1100325,6.8763522 C22.1488296,6.75558813 22.1275869,6.62357138 22.0528608,6.52104717 C21.9781347,6.41852297 21.8589088,6.35781689 21.7319807,6.35766507 L21.7319807,6.36216236 Z M116.822523,6.36216236 L114.110151,6.36216236 C113.929717,6.36296517 113.765279,6.46573564 113.685593,6.62750231 L109.963582,16.455574 L106.238571,6.60651497 C106.171406,6.45192655 106.01712,6.35349403 105.848518,6.35766507 L103.134646,6.35766507 C102.996861,6.34340147 102.861736,6.40266454 102.778968,6.5136577 C102.6962,6.62465086 102.678011,6.77098473 102.73109,6.89883864 L108.176837,20.5496045 L105.976035,26.1037543 C105.868021,26.3795879 105.986537,26.6479298 106.345086,26.6479298 L109.019953,26.6479298 C109.182902,26.6486356 109.329525,26.5491727 109.389003,26.397577 L117.187073,6.93481693 C117.253677,6.81005328 117.248024,6.6591441 117.172272,6.53970543 C117.096519,6.42026676 116.962363,6.35073813 116.821023,6.35766507 L116.822523,6.36216236 Z M70.4361608,-2.9297855e-06 L67.776296,-2.9297855e-06 C67.5567327,-2.9297855e-06 67.3787415,0.177859527 67.3787415,0.397260373 L67.3787415,6.24373379 C66.4224575,6.02727947 65.4443172,5.92214304 64.4638417,5.93042278 C59.1726159,5.93042278 58.0669643,10.6885527 58.0669643,13.2879847 C58.0669643,19.0355178 61.5174376,20.7190023 64.757882,20.7190023 C67.5152602,20.7190023 69.3920176,20.0623984 70.2921411,19.6696353 C70.8352411,19.4357764 70.8352411,19.1194672 70.8352411,18.8406354 L70.8352411,0.401757661 C70.8364218,0.295360211 70.7948633,0.192926438 70.7198509,0.117405987 C70.6448386,0.0418855365 70.5426431,-0.000408353025 70.4361608,-2.9297855e-06 Z M67.3802417,17.4119971 C66.6508714,17.6100264 65.8992064,17.7143051 65.1434349,17.7223099 C62.3620534,17.7223099 61.6929616,15.7554963 61.6929616,13.4214042 C61.6929616,12.5894061 61.6059497,8.96159439 65.012917,8.96159439 C65.811248,8.97749643 66.6052936,9.08258688 67.3802417,9.2749054 L67.3802417,17.4060007 L67.3802417,17.4119971 Z M95.4970981,5.93042278 C93.1387746,5.93042278 91.8125927,6.23923651 90.5269164,6.60051858 C90.1833693,6.69795981 90.0393495,6.93481693 90.1368629,7.32158364 L90.5344174,8.93311157 C90.5854244,9.16547141 90.7999539,9.48178061 91.1825063,9.38284029 C92.0091197,9.17896327 93.2827944,8.77570651 95.1355485,8.77570651 C96.9883026,8.77570651 97.4683685,9.46828875 97.4683685,11.1262886 L95.1775543,11.1262886 C90.2913841,11.1262886 88.9321977,13.7032342 88.9321977,15.812462 C88.9321977,18.4733569 90.2283755,20.7175033 94.8250059,20.7175033 C98.2874808,20.7175033 100.012717,19.8435304 100.399771,19.6411525 C100.713314,19.4777511 100.90234,19.351827 100.90234,18.8076553 L100.90234,10.7740011 C100.90384,7.13719486 98.7525446,5.93042278 95.4970981,5.93042278 Z M97.4473656,17.6233696 C96.6329702,17.8596301 95.788518,17.9762813 94.9405218,17.9696607 C92.9482485,17.9696607 92.3781703,16.9727621 92.3781703,15.938386 C92.3781703,14.6206808 93.2467895,13.7706935 95.1490504,13.7706935 L97.4488658,13.7706935 L97.4488658,17.6158741 L97.4473656,17.6233696 Z M80.1379915,5.93042278 C77.3806133,5.93042278 75.5038559,6.58702672 74.6037324,6.97978981 C74.0651586,7.21814603 74.0651586,7.53295614 74.0651586,7.81328704 L74.0651586,26.2521648 C74.0651586,26.4715656 74.2431498,26.6494251 74.4627131,26.6494251 L77.1210777,26.6494251 C77.340641,26.6494251 77.5186322,26.4715656 77.5186322,26.2521648 L77.5186322,20.4056913 C78.4758939,20.6223758 79.4550544,20.7275137 80.4365324,20.7190023 C85.7277582,20.7190023 86.8334098,15.9608724 86.8334098,13.3614404 C86.8304094,7.61390731 83.3664343,5.93042278 80.1394917,5.93042278 L80.1379915,5.93042278 Z M79.8814563,17.6878307 C79.0834595,17.6703325 78.2899222,17.5637343 77.5156318,17.3700224 L77.5156318,9.2389271 C78.2450021,9.04089781 78.9966671,8.93661913 79.7524386,8.92861428 C82.5338201,8.92861428 83.2029119,10.8954279 83.2029119,13.22952 C83.2029119,14.0615181 83.2899238,17.6893298 79.8829565,17.6893298 L79.8814563,17.6878307 Z" id="Shape"></path>
                </g>
                <g id="Group-32" transform="translate(0.000000, 51.000000)">
                    <g id="Amazon_Pay_logo" transform="translate(-0.000000, 5.948287)">
                        <mask id="mask-2" fill="white">
                            <use xlink:href="#path-1"></use>
                        </mask>
                        <g id="Rectangle"></g>
                        <g id="Group" mask="url(#mask-2)" fill="#00000A">
                            <path d="M54.704809,20.7891159 C49.5816328,24.5672429 42.1540876,26.5763839 35.757775,26.5763839 C26.7939838,26.5763839 18.7216237,23.2652253 12.6127682,17.7534294 C12.133673,17.3202084 12.5609316,16.7292384 13.1374166,17.0643568 C19.7277234,20.8966364 27.8786238,23.2047941 36.2957753,23.2047941 C41.9742306,23.2047941 48.2166044,22.0267782 53.9602481,19.5922643 C54.8265463,19.2257531 55.553043,20.162829 54.704809,20.7891159 Z" id="Path"></path>
                            <path d="M56.837175,18.3561717 C56.1813645,17.5179832 52.5056839,17.9590524 50.8539838,18.1568273 C50.3536828,18.2172585 50.2759281,17.7801133 50.7267487,17.4638306 C53.6594392,15.4052458 58.4653131,15.9993551 59.0237338,16.6892125 C59.5860815,17.3837789 58.8752928,22.1986539 56.1279572,24.4958242 C55.7046256,24.8489935 55.3024998,24.6606365 55.4902109,24.194453 C56.1091075,22.6507107 57.4929856,19.1959299 56.837175,18.3561717 Z" id="Path"></path>
                            <path d="M50.9702233,2.92267234 L50.9702233,0.922949162 C50.9717941,0.618438724 51.2011314,0.415954979 51.4775929,0.4167398 L60.4484527,0.415954979 C60.7351244,0.415954979 60.9660325,0.623932469 60.9660325,0.920594699 L60.9660325,2.63542796 C60.9628909,2.92345717 60.7202017,3.29860147 60.2905869,3.89428039 L55.6433642,10.5244458 C57.3681067,10.4844199 59.1925952,10.742626 60.7602572,11.62241 C61.1136881,11.8209696 61.2087217,12.1152774 61.2362107,12.4033066 L61.2362107,14.5372341 C61.2362107,14.8315419 60.914196,15.1713693 60.5749024,14.9947846 C57.8142149,13.5491448 54.1503153,13.3913959 51.096673,15.0120506 C50.7848684,15.1784326 50.4589267,14.8425294 50.4589267,14.5482216 L50.4589267,12.5194601 C50.4589267,12.1953291 50.4652099,11.639676 50.7927225,11.145239 L56.1758667,3.42731207 L51.4885885,3.42652724 C51.2019168,3.42652724 50.9717941,3.22247386 50.9702233,2.92267234 Z" id="Path"></path>
                            <path d="M18.247241,15.4146637 L15.5179696,15.4146637 C15.2580016,15.3981824 15.0506555,15.2035469 15.0294496,14.9539739 L15.0318058,0.956696452 C15.0318058,0.677300278 15.2674264,0.453626374 15.5588105,0.453626374 L18.1003708,0.452841553 C18.3658367,0.466183505 18.579466,0.667097608 18.5959594,0.922949162 L18.5959594,2.75001179 L18.6477959,2.75001179 C19.3098897,0.982595536 20.5578932,0.157748964 22.2394385,0.157748964 C23.9461167,0.157748964 25.0166194,0.982595536 25.7808154,2.75001179 C26.4429092,0.982595536 27.9461683,0.157748964 29.5507443,0.157748964 C30.697431,0.157748964 31.9454345,0.629426214 32.7096305,1.689719 C33.5759287,2.86851972 33.3984279,4.57628959 33.3984279,6.07843644 L33.3952863,14.9115936 C33.3952863,15.190205 33.1604511,15.4146637 32.869067,15.4146637 L30.1437227,15.4146637 C29.868832,15.3973976 29.6536319,15.1807871 29.6536319,14.9123784 L29.6528465,7.49189855 C29.6528465,6.90328301 29.7038976,5.43095935 29.5758771,4.87138218 C29.3724581,3.92802768 28.7614154,3.66275828 27.9720866,3.66275828 C27.3092074,3.66275828 26.6211954,4.10461234 26.3408069,4.81095099 C26.0604185,5.51885927 26.0863368,6.69609035 26.0863368,7.49189855 L26.0863368,14.9115936 C26.0863368,15.190205 25.8507162,15.4146637 25.5601175,15.4146637 L22.8339877,15.4146637 C22.5598825,15.3973976 22.343897,15.1807871 22.343897,14.9123784 L22.3407554,7.49189855 C22.3407554,5.93089015 22.596011,3.63450473 20.6599954,3.63450473 C18.6980616,3.63450473 18.775031,5.87202859 18.775031,7.49189855 L18.7734602,14.9115936 C18.7734602,15.190205 18.5378397,15.4146637 18.247241,15.4146637 Z" id="Path"></path>
                            <path d="M68.7132363,3.01528119 C66.7010368,3.01528119 66.5737884,5.75352067 66.5737884,7.46207536 C66.5737884,9.17063006 66.5486688,12.8231857 68.6888888,12.8231857 C70.8031906,12.8231857 70.9052928,9.87775353 70.9052928,8.08129891 C70.9052928,6.90328301 70.8534563,5.48903609 70.4968839,4.36988174 C70.1913625,3.39748888 69.5795345,3.01528119 68.7132363,3.01528119 Z M68.6888888,0.157748964 C72.7392061,0.157748964 74.9296918,3.63450473 74.9296918,8.05226054 C74.9296918,12.3216852 72.5098688,15.7097563 68.6888888,15.7097563 C64.7139701,15.7097563 62.5486172,12.2337853 62.5486172,7.90471425 C62.5486172,3.54503517 64.739103,0.157748964 68.6888888,0.157748964 Z" id="Shape"></path>
                            <path d="M80.1832448,15.4146637 L77.4633982,15.4146637 C77.1908637,15.3973976 76.9740928,15.1807871 76.9740928,14.9123784 L76.9693804,0.91039203 C76.9929425,0.653755656 77.2191382,0.453626374 77.4940289,0.453626374 L80.025379,0.452841553 C80.2641412,0.465398684 80.4604916,0.627071752 80.5107573,0.84446709 L80.5107573,2.985458 L80.5618084,2.985458 C81.3267898,1.07049546 82.3957217,0.157748964 84.2806862,0.157748964 C85.5035568,0.157748964 86.7012946,0.599603027 87.4654906,1.80744211 C88.1786355,2.92659645 88.1786355,4.81095099 88.1786355,6.16633636 L88.1786355,14.9743793 C88.1487902,15.2223826 87.9257361,15.4146637 87.6555579,15.4146637 L84.9200033,15.4146637 C84.6671039,15.3989673 84.4636848,15.2129648 84.4338395,14.9743793 L84.4338395,7.37496026 C84.4338395,5.84299023 84.6129111,3.60389673 82.7271613,3.60389673 C82.0650676,3.60389673 81.4532395,4.04575079 81.1477182,4.72305107 C80.7652275,5.57772083 80.7141764,6.43160576 80.7141764,7.37496026 L80.7141764,14.9115936 C80.709464,15.190205 80.4738434,15.4146637 80.1832448,15.4146637 Z" id="Path"></path>
                            <path d="M46.5696168,15.3801316 C46.3897597,15.5418046 46.1297917,15.5527921 45.9255873,15.443702 C45.0192335,14.691059 44.8566554,14.3433834 44.3610668,13.6260573 C42.8633055,15.1509639 41.8022276,15.6085144 39.8614996,15.6085144 C37.5641993,15.6085144 35.7766247,14.1911282 35.7766247,11.3579254 C35.7766247,9.14394616 36.9775041,7.63866003 38.6873239,6.90092855 C40.1678064,6.251097 42.2357694,6.13337389 43.8191395,5.95600441 L43.8191395,5.60205027 C43.8191395,4.95143389 43.8701906,4.18544888 43.4869145,3.62430206 C43.1546896,3.12201681 42.5169433,2.91560896 41.9553809,2.91560896 C40.9139381,2.91560896 39.9895201,3.44850222 39.7617536,4.55274497 C39.7138441,4.79839386 39.5347725,5.0424731 39.2881563,5.05503023 L36.6421375,4.76857067 C36.4190834,4.71755732 36.1708964,4.5386182 36.2345139,4.19800601 C36.8353463,1.03596334 39.6612222,0.0502285258 42.2294862,0.0235446215 L42.4321199,0.0235446215 C43.7468825,0.0400258565 45.4260717,0.400258565 46.4486649,1.38049964 C47.7767794,2.62051637 47.6479735,4.2733488 47.6479735,6.07451234 L47.6479735,10.3227469 C47.6479735,11.6012198 48.1796905,12.1615818 48.6784207,12.8498696 C48.8535653,13.0986577 48.89205,13.3929655 48.6697813,13.5750439 C48.112146,14.0420122 47.1217543,14.9013909 46.5774708,15.3864101 L46.5696168,15.3801316 Z M43.8191395,8.73113046 C43.8191395,9.79377771 43.8442724,10.6790555 43.3086283,11.6239796 C42.8743011,12.3907495 42.1847183,12.8632115 41.4189515,12.8632115 C40.3727962,12.8632115 39.7601828,12.0666185 39.7601828,10.8854633 C39.7601828,8.56239401 41.8446393,8.14016046 43.8191395,8.14016046 L43.8191395,8.73113046 Z" id="Shape"></path>
                            <path d="M10.7937775,15.3801316 C10.6131351,15.5418046 10.3523817,15.5527921 10.1489626,15.443702 C9.24182346,14.691059 9.07924528,14.3433834 8.58444212,13.6260573 C7.08589541,15.1509639 6.02560292,15.6085144 4.08487498,15.6085144 C1.78757459,15.6085144 0,14.1911282 0,11.3579254 C0,9.14394616 1.19930861,7.63866003 2.91069922,6.90092855 C4.39118169,6.251097 6.45914474,6.13337389 8.04172945,5.95600441 L8.04172945,5.60205027 C8.04172945,4.95143389 8.09356597,4.18544888 7.71028987,3.62430206 C7.3780649,3.12201681 6.7395332,2.91560896 6.17875628,2.91560896 C5.13731344,2.91560896 4.21132467,3.44850222 3.98512894,4.55274497 C3.93800483,4.79839386 3.75814781,5.0424731 3.51074623,5.05503023 L0.865512829,4.76857067 C0.641673304,4.71755732 0.393486322,4.5386182 0.457889273,4.19800601 C1.05715088,1.03596334 3.8838121,0.0502285258 6.45286153,0.0235446215 L6.6554952,0.0235446215 C7.97025788,0.0400258565 9.64944702,0.400258565 10.6720402,1.38049964 C11.9993693,2.62051637 11.8713488,4.2733488 11.8713488,6.07451234 L11.8713488,10.3227469 C11.8713488,11.6012198 12.4030659,12.1615818 12.901796,12.8498696 C13.0753699,13.0986577 13.1154253,13.3929655 12.8931566,13.5750439 C12.3355213,14.0420122 11.3443442,14.9013909 10.8000607,15.3864101 L10.7937775,15.3801316 Z M8.04172945,8.73113046 C8.04172945,9.79377771 8.06764771,10.6790555 7.53121825,11.6239796 C7.09767644,12.3907495 6.40809362,12.8632115 5.64154142,12.8632115 C4.59538617,12.8632115 3.98277274,12.0666185 3.98277274,10.8854633 C3.98277274,8.56239401 6.06801462,8.14016046 8.04172945,8.14016046 L8.04172945,8.73113046 Z" id="Shape"></path>
                            <path d="M125.486008,20.4359466 C125.486008,20.0812077 125.486008,19.7625704 125.486008,19.4078315 C125.486008,19.1150933 125.629737,18.9133944 125.935258,18.9314453 C126.50546,19.0122818 127.312068,19.0931184 127.884626,18.9753953 C128.632328,18.8200008 129.168758,18.2902468 129.48606,17.5642876 C129.932954,16.542451 130.22905,15.7183893 130.415976,15.1776478 L124.738306,1.12307844 C124.642487,0.884492946 124.614212,0.441854063 125.090951,0.441854063 L127.075662,0.441854063 C127.454225,0.441854063 127.608164,0.682009202 127.692988,0.917455417 L131.809279,12.3334575 L135.738644,0.917455417 C135.818755,0.683578843 135.979762,0.441854063 136.355184,0.441854063 L138.226797,0.441854063 C138.700394,0.441854063 138.673691,0.883708126 138.579442,1.12307844 L132.947326,15.6163626 C132.218473,17.5454519 131.247716,20.618025 129.061158,21.1517031 C127.964737,21.4381627 126.581644,21.3345663 125.769538,20.994739 C125.564549,20.8919274 125.486008,20.6172402 125.486008,20.4359466 Z" id="Path"></path>
                            <path d="M122.838419,14.5584243 C122.838419,14.8197696 122.624004,15.0340256 122.360894,15.0340256 L120.961308,15.0340256 C120.658929,15.0340256 120.452368,14.8158455 120.413883,14.5584243 L120.273296,13.6064367 C119.630052,14.1503175 118.840723,14.6282733 117.984635,14.9610373 C116.338433,15.5998814 114.440902,15.7058322 112.832399,14.7185277 C111.669219,14.0051257 111.051893,12.6104993 111.051893,11.1719229 C111.051893,10.0590471 111.395114,8.95558919 112.156168,8.15428724 C113.171693,7.05946234 114.643536,6.52186015 116.4209,6.52186015 C117.494545,6.52186015 119.030791,6.64821628 120.148417,7.01315791 L120.148417,5.09741055 C120.148417,3.14948553 119.327673,2.30658808 117.16389,2.30658808 C115.509834,2.30658808 114.244552,2.55616107 112.483681,3.10318111 C112.201722,3.11259896 112.036787,2.8983429 112.036787,2.6369976 L112.036787,1.54452717 C112.036787,1.28239705 112.260627,1.02889996 112.503316,0.951987528 C113.760744,0.404182669 115.542036,0.0627856572 117.435639,0 C119.904157,0 122.838419,0.556437887 122.838419,4.35026123 L122.838419,14.5584243 Z M120.148417,11.7613232 L120.148417,8.87082855 C119.209077,8.61419217 117.654767,8.50745656 117.053149,8.50745656 C116.102813,8.50745656 115.062155,8.73191528 114.518657,9.31660672 C114.112604,9.74511883 113.92882,10.3604183 113.92882,10.9553124 C113.92882,11.7244367 114.195071,12.4959154 114.81711,12.8773383 C115.539679,13.3678512 116.660448,13.3082049 117.713672,13.0091882 C118.726055,12.7219438 119.676391,12.2141648 120.148417,11.7613232 Z" id="Shape"></path>
                            <path d="M102.201985,2.34975322 C105.307464,2.34975322 106.153342,4.78976083 106.153342,7.58372258 C106.170621,9.46729229 105.824259,11.1468086 104.848004,12.108214 C104.11758,12.8278946 103.301548,13.0240998 102.073179,13.0240998 C100.9799,13.0240998 99.5418293,12.4543199 98.4673996,11.6608662 L98.4673996,3.67217613 C99.5858118,2.81358227 101.012887,2.34975322 102.201985,2.34975322 Z M97.9914461,20.9374471 L96.1166919,20.9374471 C95.8543677,20.9374471 95.639953,20.723191 95.639953,20.4618457 C95.639953,13.955682 95.639953,7.44873341 95.639953,0.942569679 C95.639953,0.681224381 95.8543677,0.466968326 96.1166919,0.466968326 L97.5516211,0.466968326 C97.8532154,0.466968326 98.0597761,0.685148485 98.0982608,0.942569679 L98.2490579,1.96519107 C99.5928805,0.773048405 101.323121,0.00863302787 102.971679,0.00863302787 C107.589057,0.00863302787 109.107238,3.81030457 109.107238,7.76344652 C109.107238,11.9928454 106.784805,15.3911191 102.857011,15.3911191 C101.202954,15.3911191 99.656498,14.7813134 98.4673996,13.7218054 L98.4673996,20.4618457 C98.4673996,20.723191 98.2529849,20.9374471 97.9914461,20.9374471 Z" id="Shape"></path>
                        </g>
                    </g>
                    <g id="Apple_Pay_logo" transform="translate(170.068951, -0.000000)" fill="#00000A" fill-rule="nonzero">
                        <path d="M13.3265198,3.85557125 C12.4722557,4.86570246 11.1054331,5.66242567 9.7386106,5.54860807 C9.56775778,4.18279685 10.2369313,2.73162243 11.0200067,1.83530882 C11.8742708,0.79672321 13.369233,0.0569088007 14.5794404,0 C14.7218178,1.42272002 14.1665461,2.81698563 13.3265198,3.85557125 M14.5652027,5.81892487 C12.5861576,5.70510727 10.8918671,6.94287369 9.95217662,6.94287369 C8.99824839,6.94287369 7.56023718,5.87583367 5.99408635,5.90428807 C3.95809027,5.93274247 2.06447155,7.08514569 1.02511691,8.92045451 C-1.11054331,12.5910722 0.469845248,18.0258626 2.53431679,21.0135747 C3.54519596,22.4932035 4.75540342,24.1151043 6.35002972,24.0581955 C7.85922961,24.0012867 8.45721447,23.0765187 10.2796445,23.0765187 C12.1163123,23.0765187 12.6431085,24.0581955 14.2377348,24.0297411 C15.889312,24.0012867 16.9286667,22.5501123 17.9395458,21.0704835 C19.0928024,19.3916738 19.5626476,17.7555458 19.5911231,17.6701826 C19.5626476,17.6417282 16.4018705,16.4324162 16.373395,12.790253 C16.3449195,9.74563212 18.8649986,8.2944577 18.9789005,8.2090945 C17.555127,6.10346888 15.3340404,5.87583367 14.5652027,5.81892487 M25.9981037,1.69303682 L25.9981037,23.8732419 L29.4436356,23.8732419 L29.4436356,16.2901442 L34.2132767,16.2901442 C38.5700236,16.2901442 41.6311365,13.3024322 41.6311365,8.97736331 C41.6311365,4.65229446 38.6269745,1.69303682 34.3271786,1.69303682 L25.9981037,1.69303682 Z M29.4436356,4.59538566 L33.4159636,4.59538566 C36.4058879,4.59538566 38.1144161,6.18883208 38.1144161,8.99159051 C38.1144161,11.7943489 36.4058879,13.4020226 33.4017258,13.4020226 L29.4436356,13.4020226 L29.4436356,4.59538566 L29.4436356,4.59538566 Z M47.9242153,24.0439683 C50.088351,24.0439683 52.0958716,22.9484739 53.0070866,21.2127555 L53.0782753,21.2127555 L53.0782753,23.8732419 L56.2675279,23.8732419 L56.2675279,12.8329346 C56.2675279,9.63181452 53.7047357,7.56887049 49.7608831,7.56887049 C46.1017853,7.56887049 43.3966157,9.66026892 43.2969515,12.5341634 L46.4007777,12.5341634 C46.6570569,11.1683521 47.9242153,10.2720385 49.661219,10.2720385 C51.7684037,10.2720385 52.9501357,11.2537153 52.9501357,13.0605698 L52.9501357,14.284109 L48.6503398,14.5401986 C44.6495363,14.782061 42.4854006,16.418189 42.4854006,19.263629 C42.4854006,22.1375235 44.720725,24.0439683 47.9242153,24.0439683 Z M48.8496681,21.4119363 C47.0130003,21.4119363 45.845506,20.5298499 45.845506,19.1782658 C45.845506,17.7840002 46.9702871,16.9730498 49.120185,16.845005 L52.9501357,16.6031426 L52.9501357,17.8551362 C52.9501357,19.9323074 51.1846566,21.4119363 48.8496681,21.4119363 Z M60.5246106,29.9055748 C63.884716,29.9055748 65.4651046,28.6251268 66.8461649,24.7411011 L72.8972022,7.7822785 L69.3947194,7.7822785 L65.336965,20.8855299 L65.2657763,20.8855299 L61.2080219,7.7822785 L57.605875,7.7822785 L63.4433463,23.9301507 L63.1301161,24.9118275 C62.6033199,26.5764099 61.7490558,27.2166339 60.2256182,27.2166339 C59.9551012,27.2166339 59.428305,27.1881795 59.214739,27.1597251 L59.214739,29.8202116 C59.4140673,29.8771204 60.2683314,29.9055748 60.5246106,29.9055748 Z" id="XMLID_34_"></path>
                    </g>
                </g>
            </g>
        </g>
    </g>
</svg>