<svg width="203" height="130" viewBox="0 0 203 130" fill="none" xmlns="http://www.w3.org/2000/svg">
<path d="M89.5868 14.3383H22.3967C20.2913 14.3383 18.5845 16.0501 18.5845 18.1618V79.3383C18.5845 81.4499 20.2913 83.1618 22.3967 83.1618H89.5868C91.6923 83.1618 93.399 81.4499 93.399 79.3383V18.1618C93.399 16.0501 91.6923 14.3383 89.5868 14.3383Z" fill="#82BDD3"/>
<path d="M199.188 7.16907H11.9133C9.80786 7.16907 8.10107 8.88092 8.10107 10.9926V108.015C8.10107 110.126 9.80786 111.838 11.9133 111.838H199.188C201.293 111.838 203 110.126 203 108.015V10.9926C203 8.88092 201.293 7.16907 199.188 7.16907Z" fill="#FFDD8F"/>
<path d="M104.835 130C122.205 130 136.286 115.877 136.286 98.4559C136.286 81.0345 122.205 66.9117 104.835 66.9117C87.4657 66.9117 73.3848 81.0345 73.3848 98.4559C73.3848 115.877 87.4657 130 104.835 130Z" fill="#36869D"/>
<path d="M191.087 0H3.81221C1.70678 0 0 1.71185 0 3.82353V100.846C0 102.957 1.70678 104.669 3.81221 104.669H191.087C193.192 104.669 194.899 102.957 194.899 100.846V3.82353C194.899 1.71185 193.192 0 191.087 0Z" fill="#FFE8B2"/>
<path d="M176.314 13.8602H109.124C107.019 13.8602 105.312 15.5721 105.312 17.6838V78.8602C105.312 80.9719 107.019 82.6838 109.124 82.6838H176.314C178.42 82.6838 180.127 80.9719 180.127 78.8602V17.6838C180.127 15.5721 178.42 13.8602 176.314 13.8602Z" fill="#F5B200"/>
<path d="M89.5868 14.8162H22.3967C20.2913 14.8162 18.5845 16.528 18.5845 18.6397V79.8162C18.5845 81.9278 20.2913 83.6397 22.3967 83.6397H89.5868C91.6923 83.6397 93.399 81.9278 93.399 79.8162V18.6397C93.399 16.528 91.6923 14.8162 89.5868 14.8162Z" fill="#F5B200"/>
<path d="M86.4893 14.5773H20.7287C18.6233 14.5773 16.9165 16.2891 16.9165 18.4008V78.1434C16.9165 80.2551 18.6233 81.967 20.7287 81.967H86.4893C88.5947 81.967 90.3015 80.2551 90.3015 78.1434V18.4008C90.3015 16.2891 88.5947 14.5773 86.4893 14.5773Z" fill="white" stroke="#336375" stroke-width="3"/>
<path d="M173.217 14.5773H107.457C105.351 14.5773 103.645 16.2891 103.645 18.4008V78.1434C103.645 80.2551 105.351 81.967 107.457 81.967H173.217C175.323 81.967 177.029 80.2551 177.029 78.1434V18.4008C177.029 16.2891 175.323 14.5773 173.217 14.5773Z" fill="white" stroke="#336375" stroke-width="3"/>
<mask id="mask0" mask-type="alpha" maskUnits="userSpaceOnUse" x="125" y="32" width="31" height="34">
<path d="M125.803 32.5261H155.801V65.4764H125.803V32.5261Z" fill="white"/>
</mask>
<g mask="url(#mask0)">
<path fill-rule="evenodd" clip-rule="evenodd" d="M154.428 55.8954C154.111 55.6867 153.682 55.6935 153.373 55.9125C153.059 56.134 152.921 56.535 153.03 56.8966C153.141 57.2587 153.483 57.5209 153.87 57.5382C154.252 57.5553 154.614 57.3326 154.762 56.9883C154.93 56.5978 154.787 56.1321 154.428 55.8954C154.849 56.1729 154.006 55.6178 154.428 55.8954Z" fill="#E26540"/>
<path fill-rule="evenodd" clip-rule="evenodd" d="M142.639 64.2782C142.849 64.2788 143.059 64.2756 143.269 64.2681C143.688 64.2533 144.106 64.2227 144.523 64.1753C144.859 64.1372 143.836 64.2536 144.523 64.1753C144.939 64.1281 145.289 64.512 145.191 64.911C145.145 65.0933 145.011 65.248 144.835 65.3215C144.724 65.3673 144.603 65.3727 144.485 65.3848C144.345 65.3992 144.205 65.4121 144.064 65.4231C142.952 65.511 141.829 65.4928 140.719 65.3738C139.714 65.266 138.719 65.0713 137.751 64.7869C136.809 64.5096 135.893 64.1477 135.018 63.7069C134.13 63.2594 133.294 62.7286 132.497 62.1406C131.594 61.4741 130.76 60.7169 130.012 59.8874C129.268 59.0628 128.608 58.1655 128.046 57.2131C127.474 56.2426 127.003 55.2155 126.645 54.1518C126.279 53.0656 126.031 51.9428 125.904 50.8062C125.774 49.6499 125.77 48.4804 125.89 47.3232C126.008 46.1835 126.249 45.0556 126.607 43.9649C126.959 42.897 127.422 41.8646 127.989 40.8889C128.551 39.9203 129.214 39.008 129.964 38.1693C130.707 37.3384 131.536 36.5803 132.433 35.9101C133.34 35.2331 134.317 34.6458 135.344 34.1611C136.389 33.6683 137.486 33.2816 138.612 33.0091C139.76 32.7314 140.938 32.5732 142.12 32.5352C143.304 32.4971 144.493 32.5793 145.66 32.7824C146.795 32.9801 147.909 33.2919 148.979 33.7122C150.035 34.1272 151.048 34.6471 151.997 35.2613C152.943 35.8737 153.826 36.5788 154.628 37.363C154.964 37.6923 155.273 38.0281 155.482 38.4506C155.664 38.8179 155.77 39.2194 155.796 39.6264C155.847 40.4563 155.554 41.2873 154.987 41.9082C154.325 42.6323 153.341 43.0236 152.349 42.9547C151.872 42.9216 151.403 42.7841 150.987 42.5531C150.772 42.4338 150.572 42.2901 150.391 42.126C150.185 41.94 149.998 41.7353 149.793 41.5486C148.967 40.7972 148.017 40.1773 146.988 39.7216C145.932 39.2533 144.796 38.9615 143.641 38.8593C142.463 38.7551 141.267 38.8429 140.119 39.1256C139.002 39.4008 137.934 39.8596 136.971 40.4762C136.025 41.0814 135.181 41.8366 134.481 42.7034C133.773 43.5803 133.214 44.5703 132.834 45.6239C132.447 46.6979 132.251 47.8342 132.248 48.9724C132.244 50.119 132.437 51.2644 132.823 52.3476C133.195 53.3939 133.746 54.378 134.443 55.2519C135.138 56.1243 135.977 56.8818 136.921 57.4923C137.885 58.1157 138.952 58.5824 140.071 58.8644C141.218 59.1533 142.416 59.2487 143.595 59.1489C144.745 59.0516 145.878 58.7672 146.932 58.3081C147.042 58.26 147.152 58.1974 147.271 58.1744C147.372 58.1551 147.477 58.161 147.574 58.1912C147.77 58.2516 147.924 58.4071 147.98 58.5999C148.035 58.7888 147.989 58.9971 147.86 59.1475C147.785 59.2344 147.691 59.2865 147.587 59.3334C147.461 59.3908 147.333 59.4458 147.204 59.4989C146.132 59.9388 144.994 60.2193 143.836 60.33C142.659 60.4426 141.465 60.3815 140.306 60.1469C140.454 60.3188 140.595 60.4954 140.73 60.6764C140.868 60.8609 140.999 61.0496 141.124 61.2427C141.142 61.2697 141.192 61.3475 141.192 61.3475C141.192 61.3475 141.215 61.3502 141.251 61.3542C141.311 61.3609 141.37 61.3671 141.43 61.373C141.55 61.385 141.669 61.395 141.789 61.4033C142.277 61.4362 142.767 61.4424 143.256 61.4212C144.219 61.3799 145.178 61.2319 146.107 60.9796C147.008 60.7351 147.88 60.3925 148.704 59.9606C149.51 59.5377 150.269 59.0299 150.964 58.449C151.136 58.3053 151.304 58.1571 151.468 58.0047C151.613 57.8704 151.745 57.7156 151.925 57.6262C152.242 57.4696 152.634 57.5074 152.913 57.7226C153.192 57.9385 153.32 58.3015 153.237 58.6398C153.194 58.8136 153.098 58.9612 152.969 59.0863C152.809 59.2423 152.645 59.3946 152.477 59.5431C151.801 60.1413 151.069 60.6778 150.291 61.1427C149.502 61.6148 148.666 62.0138 147.799 62.3307C146.908 62.6562 145.984 62.8959 145.046 63.0452C144.079 63.1988 143.096 63.2567 142.118 63.22C142.197 63.4324 142.268 63.6468 142.333 63.8637C142.361 63.9597 142.388 64.0563 142.414 64.153C142.422 64.1828 142.446 64.2758 142.446 64.2758L142.639 64.2782Z" fill="#E26540"/>
</g>
<path fill-rule="evenodd" clip-rule="evenodd" d="M151.995 61.2928C151.057 61.9664 150.042 62.5394 148.97 62.9928C148.434 63.22 147.883 63.4172 147.323 63.5838C147.041 63.6674 146.756 63.7434 146.47 63.8115C146.346 63.8411 146.217 63.8599 146.107 63.9246C146.012 63.9803 145.935 64.061 145.884 64.1555C145.775 64.3582 145.801 64.6105 145.95 64.7881C146.119 64.9902 146.373 65.0344 146.625 64.9766C147.192 64.8463 147.753 64.6878 148.304 64.501C149.409 64.126 150.472 63.6373 151.47 63.046C151.719 62.8987 151.964 62.7449 152.205 62.5851C152.327 62.5041 152.448 62.4213 152.568 62.337C152.674 62.2628 152.787 62.1938 152.861 62.0881C152.991 61.9039 153 61.6574 152.883 61.4654C152.766 61.2735 152.54 61.1604 152.309 61.1784C152.196 61.1873 152.086 61.2272 151.995 61.2928C152.264 61.0998 150.281 62.5245 151.995 61.2928Z" fill="#E26540"/>
<path fill-rule="evenodd" clip-rule="evenodd" d="M154.298 59.4533C154.139 59.6224 153.977 59.7882 153.811 59.9502C153.674 60.084 153.522 60.2023 153.466 60.3938C153.364 60.7423 153.597 61.1141 153.956 61.1695C154.165 61.2017 154.35 61.1206 154.5 60.9783C154.666 60.8204 154.828 60.6593 154.988 60.4948C155.124 60.3547 155.279 60.2211 155.329 60.0245C155.37 59.866 155.345 59.6942 155.26 59.5544C155.054 59.2151 154.569 59.1642 154.298 59.4533C154.528 59.2078 154.084 59.6814 154.298 59.4533Z" fill="#E26540"/>
<path fill-rule="evenodd" clip-rule="evenodd" d="M150.506 56.5656C150.133 56.9232 149.739 57.2541 149.305 57.5497C149.186 57.6308 149.066 57.7099 148.945 57.7888C148.844 57.8544 148.764 57.937 148.718 58.0427C148.625 58.2577 148.693 58.5094 148.886 58.6597C149.113 58.8366 149.42 58.8195 149.654 58.6671C149.881 58.5193 150.106 58.3689 150.324 58.2097C150.528 58.0598 150.726 57.9018 150.916 57.7365C151.026 57.6405 151.134 57.5422 151.24 57.4425C151.339 57.3494 151.445 57.2611 151.497 57.1374C151.598 56.8967 151.496 56.6167 151.257 56.4794C151.019 56.3428 150.699 56.3799 150.506 56.5656C150.733 56.3473 149.931 57.1166 150.506 56.5656Z" fill="#E26540"/>
<path fill-rule="evenodd" clip-rule="evenodd" d="M142.72 45.4045C141.882 45.4045 141.055 45.6527 140.373 46.1115C139.708 46.5586 139.193 47.1943 138.913 47.9186C138.623 48.6704 138.591 49.5054 138.823 50.2751C139.046 51.0163 139.511 51.6846 140.139 52.1756C140.779 52.6754 141.577 52.9805 142.406 53.0404C143.247 53.1014 144.099 52.9119 144.821 52.4979C145.515 52.0997 146.075 51.5043 146.411 50.8059C146.761 50.0781 146.858 49.2506 146.691 48.4674C146.528 47.7063 146.114 47.0018 145.52 46.4652C144.924 45.9268 144.157 45.5679 143.342 45.4493C143.136 45.4194 142.928 45.4045 142.72 45.4045Z" fill="#E26540"/>
<path d="M98.1641 124.026C115.139 124.026 128.9 110.224 128.9 93.1985C128.9 76.1731 115.139 62.3713 98.1641 62.3713C81.1892 62.3713 67.4282 76.1731 67.4282 93.1985C67.4282 110.224 81.1892 124.026 98.1641 124.026Z" fill="white" stroke="#336375" stroke-width="3"/>
<path d="M95.5434 86.7463C99.491 86.7463 102.691 83.5366 102.691 79.5772C102.691 75.6178 99.491 72.4081 95.5434 72.4081C91.5957 72.4081 88.3955 75.6178 88.3955 79.5772C88.3955 83.5366 91.5957 86.7463 95.5434 86.7463Z" fill="#6292A4" stroke="#336375" stroke-width="3"/>
<path d="M95.5435 85.5515C98.5701 85.5515 101.024 83.0907 101.024 80.0552C101.024 77.0196 98.5701 74.5588 95.5435 74.5588C92.517 74.5588 90.0635 77.0196 90.0635 80.0552C90.0635 83.0907 92.517 85.5515 95.5435 85.5515Z" fill="white"/>
<path d="M113.642 93.3085C113.636 92.3202 113.083 91.4141 112.201 90.9458C110.2 89.9392 108.516 92.2592 108.516 92.2592C108.516 92.1938 108.516 92.1309 108.5 92.0655C108.425 91.1869 108.002 90.3731 107.321 89.8009C105.811 88.5603 104.213 89.587 103.46 90.4199C103.43 90.4518 103.384 90.4632 103.342 90.4491C103.3 90.435 103.271 90.3979 103.267 90.3544L103.205 89.7203L103.182 89.6172C103.168 89.1303 102.989 88.6623 102.672 88.2886C100.983 86.2756 99.0483 88.1779 98.5532 88.734C98.5337 88.7558 98.5027 88.7635 98.475 88.7535C98.4473 88.7435 98.4287 88.7177 98.4282 88.6887L98.3082 81.1801C98.3013 80.6383 98.0732 80.1222 97.6754 79.7484C96.0116 78.2059 94.5902 78.9935 93.817 79.7131C93.4196 80.0907 93.1979 80.6134 93.2045 81.1575V99.5589C93.2044 99.6661 93.1493 99.7659 93.0582 99.8242C92.9671 99.8826 92.8522 99.8917 92.7529 99.8483C91.6964 99.3928 88.9761 98.3385 86.5697 98.5449C83.5075 98.7965 85.2938 101.564 85.8042 101.816C87.4629 102.697 92.1838 106.345 93.2045 108.092L93.2199 108.127C96.7924 116.159 97.8132 115.655 97.8132 115.655L109.297 115.404C111.764 115.152 113.755 105.268 113.89 104.617V104.549L113.642 93.3085Z" fill="#ACE8FF" stroke="black" stroke-width="3"/>
<path d="M113.642 93.3085C113.636 92.3202 113.083 91.4141 112.201 90.9458C110.2 89.9392 108.516 92.2592 108.516 92.2592C108.516 92.1938 108.516 92.1309 108.5 92.0655C108.425 91.1869 108.002 90.3731 107.321 89.8009C105.811 88.5603 104.213 89.587 103.46 90.4199C103.43 90.4518 103.384 90.4632 103.342 90.4491C103.3 90.435 103.271 90.3979 103.267 90.3544L103.205 89.7203L103.182 89.6172C103.168 89.1303 102.989 88.6623 102.672 88.2886C100.983 86.2756 99.0483 88.1779 98.5532 88.734C98.5337 88.7558 98.5027 88.7635 98.475 88.7535C98.4473 88.7435 98.4287 88.7177 98.4282 88.6887L98.3082 81.1801C98.3013 80.6383 98.0732 80.1222 97.6754 79.7484C96.0116 78.2059 94.5902 78.9935 93.817 79.7131C93.4196 80.0907 93.1979 80.6134 93.2045 81.1575V99.5589C93.2044 99.6661 93.1493 99.7659 93.0582 99.8242C92.9671 99.8826 92.8522 99.8917 92.7529 99.8483C91.6964 99.3928 88.9761 98.3385 86.5697 98.5449C83.5075 98.7965 85.2938 101.564 85.8042 101.816C87.4629 102.697 92.1838 106.345 93.2045 108.092L93.2199 108.127C96.7924 116.159 97.8132 115.655 97.8132 115.655L109.297 115.404C111.764 115.152 113.755 105.268 113.89 104.617V104.549L113.642 93.3085Z" fill="#FFDD8F" stroke="#336375" stroke-width="3"/>
<path d="M53.9646 65.9867C63.3334 65.9867 70.9285 58.378 70.9285 48.9933C70.9285 39.6072 63.3342 32 53.9646 32C44.5951 32 37 39.6072 37 48.9933C37 58.378 44.5951 65.9867 53.9646 65.9867Z" fill="#13B5EA"/>
<path d="M45.1212 48.9479L48.016 46.0396C48.1959 45.8326 48.1841 45.5215 47.989 45.3288C47.7939 45.136 47.4826 45.1281 47.2779 45.3106L44.3846 48.2061L41.48 45.3053C41.2758 45.1038 40.9469 45.106 40.7453 45.3102C40.5438 45.5144 40.546 45.8433 40.7503 46.0448L43.645 48.9434L40.7518 51.8443C40.6127 51.9729 40.5547 52.167 40.6002 52.3508C40.6458 52.5347 40.7878 52.6792 40.9708 52.728C41.1539 52.7768 41.349 52.7221 41.48 52.5853L44.3808 49.683L47.2703 52.574C47.4161 52.729 47.6418 52.779 47.8393 52.7C48.0368 52.6211 48.1659 52.4294 48.1648 52.2167C48.1654 52.0793 48.111 51.9473 48.0137 51.8503L45.1204 48.9449L45.1212 48.9479ZM62.3305 48.9472C62.3305 49.4684 62.7536 49.8915 63.2748 49.8915C63.7963 49.8913 64.2189 49.4683 64.2187 48.9468C64.2185 48.4253 63.7956 48.0027 63.2741 48.0029C62.7551 48.0029 62.3328 48.4259 62.3328 48.9472H62.3305ZM60.544 48.9472C60.544 47.4401 61.7677 46.2125 63.2741 46.2125C64.7774 46.2125 66.0034 47.4401 66.0034 48.9472C66.0034 50.4543 64.7781 51.6818 63.2741 51.6818C61.7655 51.6793 60.544 50.4557 60.544 48.9472ZM59.4697 48.9472C59.4697 51.0473 61.177 52.7576 63.2741 52.7576C65.3711 52.7576 67.0784 51.0488 67.0784 48.9479C67.0784 46.8479 65.3711 45.1376 63.2741 45.1376C61.1724 45.1417 59.4706 46.8462 59.4697 48.9479V48.9472ZM59.2 45.2025H59.0414C58.5617 45.2025 58.0994 45.3536 57.7134 45.652C57.6587 45.4145 57.448 45.2456 57.2042 45.2441C57.0674 45.2441 56.9363 45.2986 56.8399 45.3956C56.7435 45.4926 56.6897 45.624 56.6905 45.7608L56.692 52.1782C56.7073 52.4535 56.9352 52.6688 57.211 52.6684C57.4867 52.668 57.714 52.452 57.7285 52.1766V48.2303C57.7285 46.9158 57.8493 46.384 58.9734 46.2435C59.0792 46.2307 59.191 46.2329 59.1925 46.2329C59.4992 46.2216 59.7183 46.0093 59.7183 45.723C59.7174 45.4357 59.4843 45.2033 59.197 45.2033L59.2 45.2025ZM49.239 48.3209C49.239 48.3058 49.2405 48.2907 49.2413 48.2771C49.5519 47.0502 50.6605 46.1942 51.9261 46.204C53.1917 46.2139 54.2869 47.087 54.5783 48.3187H49.2382L49.239 48.3209ZM55.6397 48.2227C55.4161 47.1629 54.8367 46.2919 53.9551 45.7328C52.6488 44.9128 50.9778 44.9575 49.7172 45.8462C48.4408 46.7644 47.8509 48.3663 48.2267 49.893C48.6197 51.4126 49.8985 52.5396 51.4554 52.7387C51.9147 52.7946 52.3619 52.7689 52.8227 52.648C53.2263 52.55 53.6107 52.3856 53.9604 52.1615C54.3283 51.9251 54.6358 51.6123 54.9349 51.2384C54.9394 51.2308 54.9455 51.2256 54.9515 51.218C55.1585 50.9612 55.12 50.594 54.8934 50.4203C54.7015 50.273 54.3797 50.2133 54.1274 50.5381C54.073 50.6167 54.0118 50.6968 53.9461 50.7761C53.7444 50.9989 53.4943 51.2142 53.1952 51.3819C52.8129 51.5859 52.3793 51.7015 51.9185 51.7045C50.4091 51.6871 49.6023 50.6318 49.3145 49.8794C49.2643 49.7367 49.2256 49.5902 49.1989 49.4412L49.1914 49.3619H54.6078C55.3496 49.3453 55.7485 48.8203 55.6382 48.2212L55.6397 48.2227Z" fill="white"/>
</svg>
