<?xml version="1.0" encoding="UTF-8"?>
<svg width="209px" height="219px" viewBox="0 0 209 219" version="1.1" xmlns="http://www.w3.org/2000/svg" xmlns:xlink="http://www.w3.org/1999/xlink">
    <!-- Generator: Sketch 62 (91390) - https://sketch.com -->
    <title>Less Time</title>
    <desc>Created with Sketch.</desc>
    <g id="Page-1" stroke="none" stroke-width="1" fill="none" fill-rule="evenodd">
        <g id="Steward-Page---Final" transform="translate(-740.000000, -819.000000)" fill-rule="nonzero">
            <g id="Less-Time" transform="translate(740.000000, 819.000000)">
                <g id="Group" opacity="0.46" transform="translate(178.000000, 112.000000)" fill="#1A1DA0">
                    <polygon id="Path" points="0.983333333 2.36454545 5.37777778 2.39931818 5.30555556 11.0925 25.6666667 11.2721591 25.6666667 10.8606818 18.3333333 3.90613636 21.2 0.214431818 29.5888889 8.13102273 29.5166667 17.1545455 5.26111111 16.9401136 5.20555556 24.1960227 0.811111111 24.1554545"></polygon>
                    <path d="M24.5833333,49.2613636 L24.6944444,35.0277273 L15.1,34.1931818 L15.1,34.5119318 C17.55,35.89125 19.2222222,37.4502273 19.1944444,41.2578409 C19.15,46.6939773 15.75,50.8840909 10.0444444,50.8319318 C4.33888889,50.7797727 0.144444444,46.5317045 0.205555556,39.0497727 C0.25,33.2079545 2.82222222,30.1015909 5.62777778,28.2180682 L8.63333333,32.5994318 C6.41111111,33.9845455 4.66666667,35.6884091 4.63888889,39.1367045 C4.63888889,42.6719318 6.52222222,44.5902273 9.63888889,44.6192045 L9.96666667,44.6192045 C12.9222222,44.6192045 14.7444444,42.6661364 14.7722222,39.3569318 C14.8408894,37.4022201 14.0735339,35.5167126 12.6777778,34.2105682 L13.3277778,29.325 L29.4111111,30.6405682 L29.2611111,49.2729545 L24.5833333,49.2613636 Z" id="Path"></path>
                </g>
                <g id="Group" opacity="0.3" style="mix-blend-mode: multiply;" transform="translate(165.000000, 102.000000)" fill="#09083A">
                    <path d="M0.785454545,0.485714286 C0.578181818,0.485714286 0.403636364,0.571428571 0.403636364,0.674285714 L0.403636364,73.0342857 C0.403636364,73.0342857 0.403636364,76.2514286 0.403636364,76.4628571 C0.403636364,76.56 5.28,80.9771429 5.47636364,79.7771429 C5.55818182,79.2685714 5.47636364,72.9771429 5.47636364,72.8571429 L5.43272727,0.754285714 C5.43272727,0.657142857 5.27454545,0.571428571 5.07818182,0.565714286 L0.785454545,0.485714286 Z" id="Path"></path>
                </g>
                <path d="M136,104 L136,172.481451 C133.433059,172.904733 130.82764,175.354127 128.909305,175.946723 C123.841382,177.51569 122,179 122,179 L122.11543,104.084656 L136,104 Z" id="Path" fill="#9697D3"></path>
                <g id="Group" opacity="0.3" style="mix-blend-mode: multiply;" transform="translate(131.000000, 103.000000)" fill="#09083A">
                    <path d="M1.02,0.502419355 C0.812727273,0.502419355 0.643636364,0.581451613 0.643636364,0.683064516 L0.545454545,69.2153226 C0.531846035,69.442793 0.531846035,69.6709167 0.545454545,69.8983871 C0.96,70.1241935 3.96545455,69.125 5.11090909,69.2209677 C5.34545455,69.2209677 5.56363636,69.1645161 5.56363636,69.0459677 L5.61818182,0.739516129 C5.61818182,0.643548387 5.46,0.564516129 5.26363636,0.558870968 L1.02,0.502419355 Z" id="Path"></path>
                </g>
                <g id="Group" opacity="0.46" transform="translate(153.000000, 103.000000)" fill="#1A1DA0">
                    <path d="M0.105555556,0.265255474 L0.277777778,70.2350365 C2.77222222,70.6675182 3.31666667,71.1461314 5.18333333,71.7516058 C11.5944444,73.810219 14.4444444,78.2907299 15,78.7693431 L14.9611111,0.345985401 L0.105555556,0.265255474 Z" id="Path"></path>
                </g>
                <circle id="Oval" fill="#9697D3" cx="144" cy="184" r="35"></circle>
                <ellipse id="Oval" fill="#FBB6AF" cx="144" cy="184.5" rx="30" ry="30.5"></ellipse>
                <ellipse id="Oval" fill="#B38FB7" cx="144" cy="183.5" rx="21" ry="21.5"></ellipse>
                <path d="M104.005639,0 C46.5755801,0 0,46.5602936 0,104 L208,104 C208,46.5602936 161.441336,0 104.005639,0 Z" id="Path" fill="#FBB6AF"></path>
                <polygon id="Path" fill="#FFFFFF" points="157 186 142.656219 186 134 174.435331 135.799358 173 143.774432 183.656602 157 183.656602"></polygon>
                <path d="M105,0 L105,0 C47.0974749,0 0,46.8072979 0,104 L104.914472,104 L105,0 Z" id="Path" fill="#9697D3"></path>
                <polygon id="Path" fill="#09083A" points="180.173552 114.151764 184.601931 114.186564 184.529151 122.886419 205.04749 123.066216 205.04749 122.654422 197.657529 115.694538 200.540734 112 209 119.922668 208.92722 128.953117 184.484363 128.738521 184.428378 136 180 135.959401"></polygon>
                <path d="M204.04101,160.402158 L204.155141,145.925788 L194.299932,145.07701 L194.299932,145.401196 C196.81652,146.804037 198.534191,148.3896 198.505658,152.262147 C198.460006,157.790989 194.967598,162.052559 189.106974,161.99951 C183.246349,161.946462 178.937905,157.625949 179.000677,150.016423 C179.04633,144.074982 181.688461,140.915643 184.570268,139 L187.651804,143.456081 C185.369185,144.864816 183.583035,146.597737 183.554502,150.104838 C183.52597,153.700353 185.489022,155.651362 188.690396,155.680834 L189.027082,155.680834 C192.062966,155.680834 193.934713,153.694459 193.957539,150.328821 C194.031917,148.341264 193.245446,146.422745 191.811877,145.094693 L192.479544,140.125809 L209,141.463812 L208.828804,160.437524 L204.04101,160.402158 Z" id="Path" fill="#09083A"></path>
                <g id="Group" opacity="0.46" transform="translate(105.000000, 75.000000)" fill="#1A1DA0">
                    <path d="M0.0685714286,24.1982692 L0.0685714286,28.5873077 L31.4971429,28.5873077 C31.4971429,28.5873077 31.9485714,21.5715385 29.7028571,17.6230769 C27.4571429,13.6746154 30.1485714,20.2553846 28.8,15.8663462 C28.2285714,14.0705769 26.7428571,12.2357692 26.1028571,11.0423077 C25.5315537,9.90668422 24.7728683,8.87043427 23.8571429,7.975 L19.3657143,4.02653846 L16.2171429,2.26980769 L11.7257143,0.518653846 L1.44,1.39423077 L0.514285714,1.39423077" id="Path"></path>
                </g>
                <g id="Group" opacity="0.46" transform="translate(119.000000, 30.000000)" fill="#1A1DA0">
                    <path d="M65.8163478,73.5851515 C63.4231304,10.4833333 6.80086957,0.375606061 6.80086957,0.375606061 L0.424695652,24.1733333 C0.424695652,24.1733333 38.9916522,27.6098485 39.7147826,73.5851515 L65.8163478,73.5851515 Z" id="Path"></path>
                </g>
                <path d="M87.9311605,82.0140579 L127.248461,18.4353953 C127.508825,18.0370415 128.010249,17.889858 128.435589,18.0869358 C128.86093,18.2840135 129.086325,18.7679614 128.969215,19.2326913 L110.123912,91.9517833 C110.123912,92.008733 110.090714,92.0599878 110.068582,92.1169375 C107.479151,98.0624878 100.474408,100.659395 94.3770731,97.8916387 C88.2797377,95.1238825 85.3693944,88.016558 87.9311605,82.0140579" id="Path" fill="#B38FB7"></path>
                <path d="M99.9258505,100.998646 C98.121368,100.997514 96.3367627,100.605584 94.6850084,99.8476669 C88.3132477,96.9241809 85.3066593,89.38527 87.9712138,83.0376222 L88.0153472,82.9628085 L127.216846,18.7381937 C127.612587,18.0781234 128.412042,17.8199478 129.096065,18.1313196 C129.780089,18.4426915 130.142348,19.2296868 129.947601,19.9812508 L111.141253,93.4654897 C111.119164,93.5506245 111.089617,93.6334601 111.052986,93.7129502 C109.045495,98.2178191 104.687542,101.071269 99.9258505,100.998646 L99.9258505,100.998646 Z M88.9697321,83.5440528 C86.5699781,89.2989466 89.3283161,96.1300055 95.1318591,98.7887665 C100.935402,101.447527 107.59403,98.9499035 110.026884,93.2468038 C110.026884,93.2180293 110.026884,93.1950097 110.026884,93.1662352 L128.844266,19.6819963 C128.889065,19.492491 128.788887,19.2984126 128.612565,19.2331146 C128.446831,19.1368112 128.237986,19.1893989 128.132614,19.3539673 L88.9697321,83.5440528 Z" id="Shape" fill="#09083A"></path>
                <g id="Group" opacity="0.3" style="mix-blend-mode: multiply;" transform="translate(93.000000, 79.000000)" fill="#09083A">
                    <ellipse id="Oval" cx="8.03733333" cy="8.48903226" rx="7.78133333" ry="8.00096774"></ellipse>
                </g>
                <path d="M182.896252,104 C181.697257,71.6449731 166.306414,53.5416319 153.604907,44.0890977 C139.822063,33.8068035 126.151275,31.143723 126,31.1212971 L126.207303,30 C126.347372,30 140.247875,32.7191454 154.221213,43.1416016 C167.107612,52.7623305 182.795402,71.1179635 184,103.938329 L182.896252,104 Z" id="Path" fill="#09083A"></path>
                <path d="M135.806294,104 C135.603364,92.2854678 129.969072,85.3245782 125.277808,81.5439034 C122.280865,79.0960723 118.785455,77.2354716 115,76.0730445 L115.316332,75 C115.531199,75.0555982 136.59414,80.709931 137,103.977761 L135.806294,104 Z" id="Path" fill="#09083A"></path>
                <rect id="Rectangle" fill="#FBB6AF" x="0" y="114" width="95" height="15" rx="7"></rect>
                <path d="M0,124 L95,124 L95,125.894428 C95,128.161873 93.2436843,130 91.077159,130 L3.92284096,130 C1.75631572,130 0,128.161873 0,125.894428 L0,124 Z" id="Path" fill="#B38FB7"></path>
                <rect id="Rectangle" fill="#FBB6AF" x="0" y="130" width="95" height="15" rx="7"></rect>
                <path d="M0,139 L95,139 L95,140.894428 C95,143.161873 93.2436843,145 91.077159,145 L3.92284096,145 C1.75631572,145 0,143.161873 0,140.894428 L0,139 L0,139 Z" id="Path" fill="#B38FB7"></path>
                <rect id="Rectangle" fill="#09083A" x="3" y="129" width="88" height="1"></rect>
                <rect id="Rectangle" fill="#FBB6AF" x="0" y="146" width="95" height="15" rx="7"></rect>
                <path d="M0,155 L95,155 L95,156.894428 C95,159.161873 93.2436843,161 91.077159,161 L3.92284096,161 C1.75631572,161 0,159.161873 0,156.894428 L0,155 Z" id="Path" fill="#B38FB7"></path>
                <rect id="Rectangle" fill="#09083A" x="3" y="145" width="88" height="1"></rect>
                <rect id="Rectangle" fill="#FBB6AF" x="0" y="162" width="95" height="15" rx="7"></rect>
                <path d="M0,172 L95,172 L95,173.894428 C95,176.161873 93.2436843,178 91.077159,178 L3.92284096,178 C1.75631572,178 0,176.161873 0,173.894428 L0,172 L0,172 Z" id="Path" fill="#B38FB7"></path>
                <rect id="Rectangle" fill="#09083A" x="3" y="161" width="88" height="1"></rect>
                <rect id="Rectangle" fill="#FBB6AF" x="0" y="179" width="95" height="15" rx="7"></rect>
                <path d="M0,188 L95,188 L95,189.894428 C95,192.161873 93.2436843,194 91.077159,194 L3.92284096,194 C1.75631572,194 0,192.161873 0,189.894428 L0,188 Z" id="Path" fill="#B38FB7"></path>
                <rect id="Rectangle" fill="#09083A" x="3" y="178" width="88" height="1"></rect>
            </g>
        </g>
    </g>
</svg>