<svg xmlns="http://www.w3.org/2000/svg" width="369.38" height="345.41" viewBox="0 0 369.38 345.41"><title>Saas Expertise_2</title><g style="isolation:isolate"><g id="Layer_2" data-name="Layer 2"><g id="Layer_1-2" data-name="Layer 1"><circle cx="255.23" cy="246.96" r="89.93" style="fill:#fbb6af"/><rect x="187.47" y="11.69" width="180.91" height="226.92" style="fill:#9697d3"/><g style="opacity:0.3;mix-blend-mode:multiply"><rect x="212.13" y="177.61" width="129.31" height="28.29" style="fill:#09083a"/></g><g style="opacity:0.3;mix-blend-mode:multiply"><rect x="216.02" y="125.87" width="123.8" height="2" style="fill:#09083a"/></g><g style="opacity:0.3;mix-blend-mode:multiply"><rect x="216.02" y="152.21" width="123.8" height="2" style="fill:#09083a"/></g><rect x="35.11" y="117.49" width="180.91" height="226.92" style="fill:#b38fb7"/><polygon points="217.02 345.41 35.11 345.41 35.11 343.41 215.02 343.41 215.02 117.49 217.02 117.49 217.02 345.41" style="fill:#09083a"/><g style="opacity:0.3;mix-blend-mode:multiply"><rect x="63.67" y="157.89" width="123.8" height="2" style="fill:#09083a"/></g><g style="opacity:0.3;mix-blend-mode:multiply"><rect x="63.67" y="184.24" width="123.8" height="2" style="fill:#09083a"/></g><g style="opacity:0.3;mix-blend-mode:multiply"><rect x="63.67" y="210.58" width="123.8" height="2" style="fill:#09083a"/></g><g style="opacity:0.3;mix-blend-mode:multiply"><rect x="63.67" y="300.13" width="123.8" height="2" style="fill:#09083a"/></g><g style="opacity:0.3;mix-blend-mode:multiply"><rect x="80.03" y="246.96" width="2" height="71.12" style="fill:#09083a"/></g><g style="opacity:0.3;mix-blend-mode:multiply"><rect x="94.01" y="251.96" width="9.22" height="38.29" style="fill:#09083a"/></g><g style="opacity:0.3;mix-blend-mode:multiply"><rect x="115.35" y="262.97" width="9.22" height="27.27" style="fill:#09083a"/></g><g style="opacity:0.3;mix-blend-mode:multiply"><rect x="136.69" y="274.17" width="9.22" height="16.07" style="fill:#09083a"/></g><rect x="186.36" y="52.11" width="21" height="21.78" style="fill:#fff"/><path d="M207.35,74.88h-21a1,1,0,0,1-1-1V52.11a1,1,0,0,1,1-1h21a1,1,0,0,1,1,1V73.88A1,1,0,0,1,207.35,74.88Zm-20-2h19V53.11h-19Z" style="fill:#09083a"/><path d="M240.49,111.54q-43.63,19.14-87.27,0L160.9,73l22.83-15.14,13.12,14.34L210,57.82,232.81,73Z" style="fill:#fbb6af"/><polygon points="196.85 72.16 189.14 107.92 196.85 121.11 203.86 107.92 196.85 72.16" style="fill:#09083a"/><path d="M196.85,122.11a1,1,0,0,1-.86-.5l-7.72-13.18a1.06,1.06,0,0,1-.11-.72L195.88,72a1,1,0,0,1,1-.79h0a1,1,0,0,1,1,.81l7,35.76a1,1,0,0,1-.1.66l-7,13.19a1,1,0,0,1-.86.53Zm-6.65-14.36,6.61,11.31,6-11.29-6-30.65Z" style="fill:#09083a"/><path d="M187.82,12h17.34a8.53,8.53,0,0,1,8.53,8.53v7.76a8.27,8.27,0,0,1-8.27,8.27H187.56a8.27,8.27,0,0,1-8.27-8.27V20.48A8.53,8.53,0,0,1,187.82,12Z" style="fill:#09083a"/><path d="M205.42,37.51H187.56a9.28,9.28,0,0,1-9.27-9.27V20.48A9.54,9.54,0,0,1,187.82,11h17.34a9.53,9.53,0,0,1,9.52,9.53v7.76A9.28,9.28,0,0,1,205.42,37.51ZM187.82,13a7.54,7.54,0,0,0-7.53,7.53v7.76a7.28,7.28,0,0,0,7.27,7.27h17.86a7.27,7.27,0,0,0,7.26-7.27V20.48A7.53,7.53,0,0,0,205.16,13Z" style="fill:#09083a"/><path d="M182.61,22.36h18.63a9.87,9.87,0,0,1,9.87,9.87v11a12.63,12.63,0,0,1-12.63,12.63h-3.23A12.63,12.63,0,0,1,182.61,43.2V22.36A0,0,0,0,1,182.61,22.36Z" style="fill:#fff"/><path d="M198.47,56.84h-3.23A13.66,13.66,0,0,1,181.6,43.2V22.36a1,1,0,0,1,1-1h18.63A10.88,10.88,0,0,1,212.1,32.23v11A13.65,13.65,0,0,1,198.47,56.84ZM183.6,23.36V43.2a11.65,11.65,0,0,0,11.64,11.64h3.23A11.64,11.64,0,0,0,210.1,43.2v-11a8.88,8.88,0,0,0-8.87-8.87Z" style="fill:#09083a"/><rect x="33.14" y="53.49" width="21" height="21.34" style="fill:#fff"/><path d="M54.14,75.83h-21a1,1,0,0,1-1-1V53.49a1,1,0,0,1,1-1h21a1,1,0,0,1,1,1V74.83A1,1,0,0,1,54.14,75.83Zm-20-2h19V54.49h-19Z" style="fill:#09083a"/><path d="M87.27,111.73q-43.63,18.75-87.27,0l7.68-37.8L30.51,59.09,43.64,73.15,56.76,59.09,79.59,73.93Z" style="fill:#fbb6af"/><polygon points="43.64 73.15 35.92 108.19 43.64 121.11 50.64 108.19 43.64 73.15" style="fill:#09083a"/><path d="M43.64,122.11a1,1,0,0,1-.86-.49L35.06,108.7a1,1,0,0,1-.12-.73l7.72-35a1,1,0,0,1,1-.78,1,1,0,0,1,1,.8l7,35a1,1,0,0,1-.1.67l-7,12.92a1,1,0,0,1-.86.53ZM37,108l6.62,11.08,6-11.06-6-30Z" style="fill:#09083a"/><path d="M40.93,14.15h4.68A18.29,18.29,0,0,1,63.9,32.44V49.1a0,0,0,0,1,0,0H22.64a0,0,0,0,1,0,0V32.44A18.29,18.29,0,0,1,40.93,14.15Z" style="fill:#09083a"/><path d="M63.9,50.1H22.64a1,1,0,0,1-1-1V32.44A19.31,19.31,0,0,1,40.93,13.15h4.68A19.31,19.31,0,0,1,64.9,32.44V49.1A1,1,0,0,1,63.9,50.1Zm-40.26-2H62.9V32.44A17.31,17.31,0,0,0,45.61,15.15H40.93A17.31,17.31,0,0,0,23.64,32.44Z" style="fill:#09083a"/><path d="M42,24.35h3.23A12.63,12.63,0,0,1,57.89,37V47.62a9.53,9.53,0,0,1-9.53,9.53H38.92a9.53,9.53,0,0,1-9.53-9.53V37A12.63,12.63,0,0,1,42,24.35Z" style="fill:#fff"/><path d="M48.36,58.15H38.92A10.54,10.54,0,0,1,28.39,47.62V37A13.64,13.64,0,0,1,42,23.35h3.23A13.65,13.65,0,0,1,58.89,37V47.62A10.54,10.54,0,0,1,48.36,58.15ZM42,25.35A11.65,11.65,0,0,0,30.39,37V47.62a8.54,8.54,0,0,0,8.53,8.53h9.44a8.54,8.54,0,0,0,8.53-8.53V37A11.65,11.65,0,0,0,45.25,25.35Z" style="fill:#09083a"/><path d="M31.94,24.35s5.6,16.46,26,14.48V24.35Z" style="fill:#09083a"/><path d="M54.6,40c-8.93,0-14.67-3.66-18-7A23.62,23.62,0,0,1,31,24.67a1,1,0,0,1,.14-.9,1,1,0,0,1,.81-.42h26a1,1,0,0,1,1,1V38.83a1,1,0,0,1-.91,1A33.11,33.11,0,0,1,54.6,40ZM33.44,25.35C35.2,29,41.4,39,56.89,37.91V25.35Z" style="fill:#09083a"/><rect x="105.47" y="48.24" width="24.7" height="25.62" style="fill:#fff"/><path d="M130.17,74.85H105.48a1,1,0,0,1-1-1V48.24a1,1,0,0,1,1-1h24.69a1,1,0,0,1,1,1V73.85A1,1,0,0,1,130.17,74.85Zm-23.69-2h22.69V49.24H106.48Z" style="fill:#09083a"/><path d="M169.16,118.15q-51.33,22.5-102.67,0l9-45.38L102.38,55l15.44,16.87L133.27,55l26.85,17.81Z" style="fill:#fbb6af"/><polygon points="117.83 71.83 108.75 113.89 117.83 129.4 126.06 113.89 117.83 71.83" style="fill:#09083a"/><path d="M117.82,130.4a1,1,0,0,1-.86-.49l-9.08-15.51a1.06,1.06,0,0,1-.11-.72l9.08-42.06a1,1,0,0,1,1-.79h0a1,1,0,0,1,1,.81L127,113.7a.94.94,0,0,1-.1.66l-8.23,15.51a1,1,0,0,1-.86.53Zm-8-16.68,8,13.63L125,113.74l-7.23-36.95Z" style="fill:#09083a"/><path d="M105.69,1h23.4a8.53,8.53,0,0,1,8.53,8.53V21.62a8.27,8.27,0,0,1-8.27,8.27H105.43a8.27,8.27,0,0,1-8.27-8.27V9.53A8.53,8.53,0,0,1,105.69,1Z" style="fill:#09083a"/><path d="M129.35,30.89H105.43a9.27,9.27,0,0,1-9.26-9.27V9.53A9.53,9.53,0,0,1,105.69,0h23.4a9.53,9.53,0,0,1,9.53,9.53V21.62A9.28,9.28,0,0,1,129.35,30.89ZM105.69,2a7.53,7.53,0,0,0-7.52,7.53V21.62a7.27,7.27,0,0,0,7.26,7.27h23.92a7.28,7.28,0,0,0,7.27-7.27V9.53A7.54,7.54,0,0,0,129.09,2Z" style="fill:#09083a"/><path d="M101.06,13.25h23.65a9.87,9.87,0,0,1,9.87,9.87V40A12.63,12.63,0,0,1,122,52.62H113.7A12.63,12.63,0,0,1,101.06,40V13.25a0,0,0,0,1,0,0Z" style="fill:#fff"/><path d="M122,53.62H113.7A13.65,13.65,0,0,1,100.06,40V13.25a1,1,0,0,1,1-1h23.66a10.88,10.88,0,0,1,10.87,10.87V40A13.65,13.65,0,0,1,122,53.62ZM102.06,14.25V40A11.64,11.64,0,0,0,113.7,51.62H122A11.64,11.64,0,0,0,133.59,40V23.12a8.88,8.88,0,0,0-8.87-8.87Z" style="fill:#09083a"/><rect x="47.87" y="94.46" width="46.28" height="2" transform="translate(-36.48 146.45) rotate(-78.73)" style="fill:#09083a"/><g style="opacity:0.3;mix-blend-mode:multiply"><path d="M307.43,36.72v34h34A34,34,0,0,0,307.43,36.72Z" style="fill:#09083a"/></g><g style="opacity:0.3;mix-blend-mode:multiply"><path d="M307.43,106.73a36,36,0,1,1,36-36A36,36,0,0,1,307.43,106.73Zm0-70a34,34,0,1,0,34,34A34,34,0,0,0,307.43,36.76Z" style="fill:#09083a"/></g><polygon points="241.6 251.96 245.57 260 254.44 261.29 248.02 267.54 249.54 276.38 241.6 272.21 233.67 276.38 235.18 267.54 228.76 261.29 237.64 260 241.6 251.96" style="fill:#fff"/><polygon points="273.73 251.96 277.7 260 286.57 261.29 280.15 267.54 281.67 276.38 273.73 272.21 265.8 276.38 267.31 267.54 260.89 261.29 269.76 260 273.73 251.96" style="fill:#fff"/><polygon points="305.86 251.96 309.83 260 318.7 261.29 312.28 267.54 313.8 276.38 305.86 272.21 297.93 276.38 299.44 267.54 293.02 261.29 301.89 260 305.86 251.96" style="fill:#fff"/><rect x="163.64" y="72.32" width="2" height="46.28" transform="translate(-15.47 33.99) rotate(-11.26)" style="fill:#09083a"/><rect x="367.38" y="11.69" width="2" height="226.92" style="fill:#09083a"/></g></g></g></svg>