<svg xmlns="http://www.w3.org/2000/svg" width="373" height="363.18" viewBox="0 0 373 363.18"><title>Focus on your Business_2</title><g style="isolation:isolate"><g id="Layer_2" data-name="Layer 2"><g id="Layer_1-2" data-name="Layer 1"><rect x="191" y="28.18" width="154" height="187" style="fill:#9697d3"/><rect x="210" y="44.25" width="116" height="140.86" style="fill:#fff"/><g style="mix-blend-mode:multiply"><rect x="238" y="28.18" width="59" height="22" style="fill:#09083a"/></g><g style="mix-blend-mode:multiply"><rect x="252" y="17.18" width="31" height="11" style="fill:#09083a"/></g><path d="M304,68.18H232a1,1,0,0,1,0-2h72a1,1,0,0,1,0,2Z" style="fill:#9697d3"/><path d="M304,84.18H232a1,1,0,0,1,0-2h72a1,1,0,0,1,0,2Z" style="fill:#9697d3"/><path d="M304,100.18H232a1,1,0,0,1,0-2h72a1,1,0,0,1,0,2Z" style="fill:#9697d3"/><path d="M24.5,121.68h199a0,0,0,0,1,0,0v216a0,0,0,0,1,0,0H90.3a65.8,65.8,0,0,1-65.8-65.8V121.68A0,0,0,0,1,24.5,121.68Z" style="fill:#9697d3"/><g style="opacity:0.3;mix-blend-mode:multiply"><rect x="89.66" y="116.69" width="12.64" height="216" transform="translate(-130.77 133.68) rotate(-45)" style="fill:#09083a"/></g><g style="opacity:0.3;mix-blend-mode:multiply"><rect x="103.34" y="106.93" width="2.83" height="216" transform="translate(-121.3 137.02) rotate(-45)" style="fill:#09083a"/></g><circle cx="247" cy="237.18" r="125" style="fill:#b38fb7"/><circle cx="247" cy="237.18" r="78" style="fill:#fbb6af"/><circle cx="247" cy="237.18" r="31" style="fill:#b38fb7"/><path d="M247,269.18a32,32,0,1,1,32-32A32,32,0,0,1,247,269.18Zm0-62a30,30,0,1,0,30,30A30,30,0,0,0,247,207.18Z" style="fill:#09083a"/><line x1="46.5" y1="313.68" x2="248.06" y2="236.87" style="fill:#fff"/><path d="M46.5,314.68a1,1,0,0,1-.36-1.94l201.56-76.8a1,1,0,0,1,1.29.58,1,1,0,0,1-.57,1.29L46.86,314.61A.92.92,0,0,1,46.5,314.68Z" style="fill:#09083a"/><polygon points="80.85 301.46 49.86 287.73 2.07 306.18 31.45 319.19 18.43 348.58 66.23 330.13 80.85 301.46" style="fill:#fbb6af"/><path d="M18.43,349.58a1,1,0,0,1-.91-1.41L30.13,319.7,1.66,307.09a1,1,0,0,1-.59-.94,1,1,0,0,1,.64-.91L49.5,286.8a1,1,0,0,1,.77,0l31,13.73a1,1,0,0,1,.48,1.37L67.12,330.58a1,1,0,0,1-.53.48l-47.8,18.45A.89.89,0,0,1,18.43,349.58ZM4.68,306.24l27.18,12a1,1,0,0,1,.5,1.32l-12,27.18,45.19-17.45,14-27.39L49.84,288.81Z" style="fill:#09083a"/><path d="M0,17.18H213a0,0,0,0,1,0,0V151.47a25.71,25.71,0,0,1-25.71,25.71H25.71A25.71,25.71,0,0,1,0,151.47V17.18A0,0,0,0,1,0,17.18Z" style="fill:#fbb6af"/><path d="M0,17.18H106.5a0,0,0,0,1,0,0v160a0,0,0,0,1,0,0H25.71A25.71,25.71,0,0,1,0,151.47V17.18A0,0,0,0,1,0,17.18Z" style="fill:#fbb6af"/><polygon points="182.13 88.82 212.5 69 213 68.65 213 17.18 0 17.18 0 68.46 30.92 88.82 182.13 88.82" style="fill:#b38fb7"/><polygon points="69.35 19.09 86.53 0 126.71 0 143.65 18.82 69.35 19.09" style="fill:#b38fb7"/><polygon points="69.35 19.09 86.53 0 126.71 0 143.65 18.82 69.35 19.09" style="fill:#b38fb7"/><line x1="106.5" y1="88.82" x2="106.5" y2="177.18" style="fill:#fff"/><path d="M106.5,178.18a1,1,0,0,1-1-1V88.82a1,1,0,0,1,2,0v88.36A1,1,0,0,1,106.5,178.18Z" style="fill:#09083a"/><g style="opacity:0.3;mix-blend-mode:multiply"><rect x="82.23" y="16.06" width="48.54" height="2" transform="translate(-0.07 0.42) rotate(-0.22)" style="fill:#09083a"/></g><rect x="30.92" y="87.82" width="151.22" height="2" style="fill:#09083a"/><path d="M247,316.18c-1.08,0-2.23,0-3.6-.09a1,1,0,1,1,.09-2c1.34.06,2.46.09,3.51.09a77,77,0,0,0,24.3-150.07,1,1,0,1,1,.63-1.89,79,79,0,0,1-24.93,154Z" style="fill:#09083a"/><path d="M247,316.18c-1.08,0-2.23,0-3.6-.09a1,1,0,1,1,.09-2c1.34.06,2.46.09,3.51.09a77,77,0,0,0,24.3-150.07,1,1,0,1,1,.63-1.89,79,79,0,0,1-24.93,154Z" style="fill:#09083a"/><path d="M247,363.18a125.71,125.71,0,0,1-96.78-45.33,1,1,0,1,1,1.53-1.28A124,124,0,0,0,360.41,187a1,1,0,0,1,.51-1.32,1,1,0,0,1,1.32.5A126.05,126.05,0,0,1,247,363.18Z" style="fill:#09083a"/></g></g></g></svg>