<svg xmlns="http://www.w3.org/2000/svg" width="460.94" height="343" viewBox="0 0 460.94 343"><title>Insights_1</title><g style="isolation:isolate"><g id="Layer_2" data-name="Layer 2"><g id="Layer_1-2" data-name="Layer 1"><g style="opacity:0.46"><rect x="17.54" y="10.52" width="261.38" height="323.24" rx="48.16" style="fill:#1a1da0"/></g><path d="M383.43,343H19.81c-16.52,0-26.56-28.2-14.5-37.7L290.8,79.89,369.75,8.45c11.49-9.64,31.9,1.72,31.9,15.37V327.67C401.65,336.14,393.49,343,383.43,343Z" style="fill:#fbb6af"/><rect x="90.48" y="189.43" width="2.9" height="118.42" style="fill:#fff"/><rect x="132.05" y="149.8" width="2.9" height="157.09" style="fill:#fff"/><rect x="172.65" y="115" width="2.9" height="191.89" style="fill:#fff"/><rect x="213.25" y="71.49" width="2.9" height="236.36" style="fill:#fff"/><rect x="212.09" y="70.76" width="25.13" height="236.84" style="fill:#b38fb7"/><rect x="280.92" y="98.08" width="73.47" height="60.9" rx="11.45" style="fill:#1a1da0"/><rect x="278.99" y="98.08" width="75.7" height="60.9" rx="11.45" style="fill:#b38fb7"/><rect x="131.86" y="149.07" width="25.13" height="158.54" style="fill:#b38fb7"/><rect x="172.46" y="114.26" width="25.13" height="193.34" transform="translate(-0.25 0.22) rotate(-0.07)" style="fill:#b38fb7"/><g style="opacity:0.3;mix-blend-mode:multiply"><rect x="175.06" y="116.76" width="4" height="188.35" style="fill:#09083a"/></g><g style="opacity:0.3;mix-blend-mode:multiply"><rect x="215.06" y="74.15" width="4" height="230.96" style="fill:#09083a"/></g><rect x="48.72" y="221.57" width="25.13" height="86.04" style="fill:#b38fb7"/><g style="opacity:0.3;mix-blend-mode:multiply"><rect x="51.2" y="224.07" width="4" height="81.04" style="fill:#09083a"/></g><rect x="90.29" y="188.7" width="25.13" height="118.9" style="fill:#b38fb7"/><g style="opacity:0.3;mix-blend-mode:multiply"><rect x="93.2" y="191.59" width="4" height="113.51" style="fill:#09083a"/></g><g style="opacity:0.3;mix-blend-mode:multiply"><rect x="134.2" y="151.77" width="4" height="153.33" style="fill:#09083a"/></g><path d="M29.05,169.66l-.46-1.95c.29-.07,30-7.16,67.73-27.23C131.12,122,180.08,88.35,215.69,33.2l1.68,1.08c-35.85,55.54-85.14,89.39-120.17,108C59.24,162.45,29.34,169.59,29.05,169.66Z" style="fill:#09083a"/><rect x="15.86" y="307.6" width="356.9" height="25.38" style="fill:#b38fb7"/><polygon points="264.34 144.6 263.28 142.9 286.81 128.2 313.99 133.05 332.31 126.3 354.24 128.21 371.31 107.35 372.86 108.61 355.12 130.29 332.58 128.33 314.17 135.11 287.22 130.3 264.34 144.6" style="fill:#09083a"/><circle cx="263.81" cy="143.75" r="1.93" style="fill:#fff"/><circle cx="287.01" cy="129.25" r="1.93" style="fill:#fff"/><circle cx="314.08" cy="134.08" r="1.93" style="fill:#fff"/><circle cx="332.45" cy="127.31" r="1.93" style="fill:#fff"/><circle cx="354.68" cy="129.25" r="1.93" style="fill:#fff"/><circle cx="372.08" cy="107.98" r="1.93" style="fill:#fff"/><polygon points="216.6 43.55 215.74 34.08 205.28 36.7 204.79 34.76 217.53 31.57 218.6 43.37 216.6 43.55" style="fill:#09083a"/><circle cx="317.19" cy="231.48" r="50.04" style="fill:#b38fb7"/><path d="M317.6,282.86a51.21,51.21,0,1,1,51-51.21A51.18,51.18,0,0,1,317.6,282.86Zm0-100.42a49.21,49.21,0,1,0,49,49.21A49.18,49.18,0,0,0,317.6,182.44Z" style="fill:#09083a"/><path d="M315.91,281.23c-.31-5-.34-41.35-.34-48.07l-48,.35,0-2,47.21-.35-21.61-41.8,1.78-.92,22,41.83,32.78-36.21,1.48,1.34-33,36.43,16,7.61,26.46,12.38,1.51.92-1,1.76L333.4,241.25l-15.82-7.39.33,47.3Z" style="fill:#09083a"/><path d="M317.19,281.52V232.77l44.9,20.53S353.11,282.81,317.19,281.52Z" style="fill:#09083a"/><path d="M294.81,188.09l22,43.52-49.34,1.93S262.16,203.15,294.81,188.09Z" style="fill:#09083a"/><circle cx="381.25" cy="80.33" r="71.38" style="fill:#b38fb7"/><polygon points="354.85 106.65 310.87 85.77 311.73 83.97 354.7 104.36 422 61.12 451.96 74.94 451.13 76.76 422.16 63.4 354.85 106.65" style="fill:#09083a"/><circle cx="354.44" cy="103.45" r="10.47" style="fill:#fff"/><path d="M381.25,0a79.7,79.7,0,1,0,79.69,79.69A79.69,79.69,0,0,0,381.25,0Zm0,146.91a67.22,67.22,0,1,1,67.22-67.22A67.22,67.22,0,0,1,381.25,146.91Z" style="fill:#fbb6af"/><circle cx="421.54" cy="62.39" r="10.47" style="fill:#fff"/><g style="mix-blend-mode:hard-light"><path d="M335.57,47.37a1.26,1.26,0,0,1-.27,0,1,1,0,0,1-.69-1.23c.05-.18,5.34-18.23,28.95-23.27a1,1,0,0,1,1.19.77,1,1,0,0,1-.77,1.19c-11.7,2.5-18.54,8.3-22.21,12.72a28,28,0,0,0-5.24,9.13A1,1,0,0,1,335.57,47.37Z" style="fill:#f2f2f2"/></g></g></g></g></svg>