<svg xmlns="http://www.w3.org/2000/svg" xmlns:xlink="http://www.w3.org/1999/xlink" width="15.6in" height="11.91in" viewBox="0 0 1123.22 857.62"><defs><clipPath id="clip-path" transform="translate(-180.52 -206.06)"><path d="M534,322.31c-25.89,43.82-45.89,93.66-82.65,128.86-19.15,18.33-115.76,9.21-153.76,62.92-35.71,50.48,59,143.47,18.95,272.32-21.43,69,97.4,146.5,558.35,124.72,167-7.89,379.48-70.69,299.9-192.51-79.92-122.35,30.32-173.72-3.25-236.93-46.06-86.75-189.32-4.17-254.38-155.76C846.87,162.08,649.37,127.18,534,322.31Z" style="fill:none"/></clipPath><linearGradient id="linear-gradient" x1="297.22" y1="631.55" x2="535.17" y2="665.99" gradientUnits="userSpaceOnUse"><stop offset="0" stop-color="#e6d8f5"/><stop offset="1" stop-color="#fff" stop-opacity="0"/></linearGradient><linearGradient id="linear-gradient-2" x1="565.76" y1="609.79" x2="843.63" y2="655.18" xlink:href="#linear-gradient"/><linearGradient id="linear-gradient-3" x1="1011.06" y1="327.89" x2="1155.37" y2="327.89" gradientTransform="matrix(1, 0, 0, -1, -180.52, 985.94)" xlink:href="#linear-gradient"/><linearGradient id="linear-gradient-4" x1="994.17" y1="373.98" x2="1038.2" y2="373.98" gradientTransform="matrix(1, 0, 0, -1, -180.52, 985.94)" xlink:href="#linear-gradient"/></defs><title>steward-banner</title><g style="isolation:isolate"><g id="Layer_1" data-name="Layer 1"><path d="M1297.72,557.83c-12.48-38.73-42-69.16-72.35-94.94a597.71,597.71,0,0,0-106.65-72.41c-18.69-9.94-37.93-18.68-57.49-26.74-17.7-7.29-38.21-16.44-44.22-36.15a69.39,69.39,0,0,0,14-11.73,2.09,2.09,0,0,0,.32-2.43q-4.36-8-8.71-16.09a2,2,0,0,0-3.14-.41c-7.57,7.79-9.27,18.53-7.07,28.64-26,14.76-60.51,10.7-87.14-2.35-39-19.11-62.17-59.2-97.92-83-32.26-21.52-71.2-32.68-109.89-32.75a196.06,196.06,0,0,0-57.3,8.34c-20.86,6.34-39.82,16.78-58.11,28.47-19.76,12.62-39,26.17-60.31,36.1A238.07,238.07,0,0,1,471,300.67c-23.61,2.95-46.75,1.3-70.32-1-22.08-2.12-45.22-3.53-66.14,5.27-19.27,8.1-34.81,23.42-47.6,39.59a205.84,205.84,0,0,0-30,52.18A208.21,208.21,0,0,0,243,457.47c-1.62,21.42.91,42.37,4.85,63.4,4.28,22.86,9.82,46.22,7.64,69.63-.82,8.83-3.78,21.47-9.37,31.71-5.3-10.82-15.51-18.53-28.69-15.11s-23.28,18.7-11.73,30.1c12.56,12.39,29.55,4.85,39.3-6.7.14.57.27,1.13.39,1.69,2.2,10.6.23,21.23-2.85,31.44-3.36,11.14-7.72,21.93-9.65,33.46-.42,2.52,3.43,3.6,3.86,1.06,3.65-21.77,16.54-42.1,12.9-64.79a40,40,0,0,0-1.72-6.79c.1-.15.21-.3.31-.46,25.94-40.88,2.8-92.86-1.05-136.39-4-45.23,8.06-91.49,33.13-129.3,12.7-19.16,29.15-38.18,49.79-49,23.07-12.07,49.48-9.82,74.49-7.36,24.73,2.44,49,3.35,73.65-.43a242.15,242.15,0,0,0,69.9-22C570.41,270.75,590.42,256,611.49,243c19.52-12,40-21.64,62.42-26.77A198.16,198.16,0,0,1,801,229.94c20.18,9.46,37.85,22.5,53.77,38,16.94,16.52,32.41,34.84,51.73,48.72,28.7,20.63,70.49,30.46,103.59,14.76,1.17-.55,2.31-1.15,3.43-1.77a43.08,43.08,0,0,0,2.72,6.46c8.1,15.6,25.19,23.64,40.65,30.1,38.45,16.07,75.37,34.58,110.12,57.67,33.63,22.35,66.9,47.9,93.42,78.55,25.91,29.95,44.55,68.63,38.2,109.12-2.79,17.77-10.59,34.94-24,47.16-1.44,1.32-2.94,2.57-4.48,3.76-1.1-16.15-7.64-31-19.83-41.82-10.73-9.54-25.09-15.92-39.64-15.38-14.77.55-29.7,9.17-35.23,23.33-6.35,16.27,3.44,33.66,16.68,43.13,22.05,15.78,51.92,12.16,74.16-1.76-1,39.27-30.24,70.65-58.28,95.12-29.38,25.64-60.29,50.16-78.54,85.52-15.71,30.44-19.94,67.83-3.57,99a78.94,78.94,0,0,0,14.5,19.45c1.83,1.81,4.66-1,2.83-2.83-29.14-28.76-29-74.54-12.28-109.6,18.58-38.92,52.77-64.5,84.15-92.44,27.89-24.84,55.6-57.52,55.22-96.88a75.55,75.55,0,0,0,8.73-7.24C1305.92,634,1308.67,591.8,1297.72,557.83ZM218.6,639.24c-9.23-1.49-18-10.74-12.2-20.07,4.28-6.93,14.11-10.27,21.86-8.46s12.65,8.43,15.37,15.58C237.76,635,229.57,641,218.6,639.24Zm801.9-337.39q3.3,6.13,6.62,12.25a64.09,64.09,0,0,1-11.13,9.26C1014.63,315.77,1015.8,308,1020.5,301.85Zm162.84,355.32c-5.64-8.36-8-19-3.62-28.5,3.8-8.21,11.5-14.48,20-17.37,14.73-5,31.07-.23,43.3,8.62,14.59,10.55,22.48,26.7,23.23,44.58,0,.26,0,.53,0,.79a73,73,0,0,1-37,12.69C1211.71,678.86,1193.45,672.16,1183.34,657.17Z" transform="translate(-180.52 -206.06)" style="fill:#f2f7fc"/><path d="M538.29,344c-33.34,38.46-50.14,72-86.9,107.19-19.15,18.33-115.76,9.21-153.76,62.92-35.71,50.48,59,143.47,18.95,272.32-21.43,69,97.4,146.5,558.35,124.72,167-7.89,379.48-70.69,299.9-192.51-79.92-122.35,30.32-173.72-3.25-236.93-46.06-86.75-169.66-6.27-276.79-131.71C799,237.8,672.5,189.12,538.29,344Z" transform="translate(-180.52 -206.06)" style="fill:#f2f7fc"/><g style="clip-path:url(#clip-path)"><path d="M616.79,307.21s1.9,10-4.56,28.59-12,33-8,48.59S598.5,409.91,593.83,417s4,17.46-10.45,20.88-37.07-23.15-37.07-23.15l31.4-81Z" transform="translate(-180.52 -206.06)" style="fill:#09083a"/><path d="M569,402.87c1.79-4.64,23.57-6.63,27.44-14.57s2.28-27.67,4.28-35.76S608,334,610.52,326.81c1.84-5.14,1.05-12.1.45-15.64l-33.26,22.6-31.4,81s13.34,15.63,26.06,21.37a30.86,30.86,0,0,0,7.38-12.48C583.56,409.56,567.23,407.51,569,402.87Z" transform="translate(-180.52 -206.06)" style="fill:#09083a;opacity:0.8;mix-blend-mode:multiply;isolation:isolate"/><path d="M1088.63,528H941c-22.42,0-41.08,18.75-42.87,43.09l-15.46,209.7h234.41l14.44-202.32C1133.46,551.29,1113.7,528,1088.63,528Z" transform="translate(-180.52 -206.06)" style="fill:#09083a"/><path d="M513.59,410.85l53.11,4a39.37,39.37,0,0,1,36,33.93l41.47,304.39H589.25L548.07,517.55" transform="translate(-180.52 -206.06)" style="fill:#9697d3"/><path d="M571,525.72a37.1,37.1,0,0,1-16.11,30.57l34.41,196.93h11.34L571,471.78Z" transform="translate(-180.52 -206.06)" style="fill:#09083a;opacity:0.30000000000000004;isolation:isolate"/><path d="M588,632.1c5.64,3.69,22.79,10.64,29.09,13,8.44,2.4,34.07,3.42,42.92,4.18l3.77-23.49c-1.9-4.76-6.29-5.71-11.39-6.24-4-.67-20.19-.67-23.64-1.8s-7.51-6-4.67-7.71,6.46.94,13.12-1.29a6,6,0,0,0,4.34-7.31,6.16,6.16,0,0,0-.39-1.09c-3.83,3.11-15.32-.35-22.27-2.59s-17.44,10.57-17.44,10.57" transform="translate(-180.52 -206.06)" style="fill:#fbb6af"/><path d="M687.93,556.59a54.26,54.26,0,0,0-52.5,28.33c-2.7,5-5.22,10.18-7.57,15.47q-2.36,5.29-4.48,10.69l-.16,1.08c.35,2.1,3.12,4.82,5.57,5.63,3.45,1.13,19.62,1.13,23.64,1.8,5.1.53,9.49,1.48,11.39,6.24l-3.77,23.49c-8.85-.76-34.48-1.78-42.92-4.18-1.19-.45-2.77-1.07-4.58-1.8a456.89,456.89,0,0,0-13.52,65H714.12c19.1-81.12,50.15-145,50.15-145Z" transform="translate(-180.52 -206.06)" style="fill:#d5e2ef"/><path d="M635.43,584.92s19.15-3.72,25.81,6.53c0,0,33.9-33.23,103-28.14l-76.34-6.72A54.26,54.26,0,0,0,635.43,584.92Z" transform="translate(-180.52 -206.06)" style="fill:#fff"/><path d="M783.51,788.73l27-189.59a58.34,58.34,0,0,1,53.76-50l154.38-10.62a58.36,58.36,0,0,1,62.31,56l7.4,194.19Z" transform="translate(-180.52 -206.06)" style="fill:#b38fb7"/><path d="M810.52,599.14l-27,189.59H939l11.79-11.79s-35.87-28.7-38.94-46.12,4.3-33.82,9.43-56.6-14.65-42.12-16.7-64.1,11.92-53.8,11.92-53.8l-4.69-10.43-47.48,3.27A58.34,58.34,0,0,0,810.52,599.14Z" transform="translate(-180.52 -206.06)" style="fill:#09083a;opacity:0.30000000000000004;isolation:isolate"/><polygon points="662.55 424.33 636.32 589.86 669.22 582.07 662.55 424.33" style="fill:#09083a;opacity:0.30000000000000004;isolation:isolate"/><line x1="662.55" y1="424.33" x2="669.22" y2="582.07" style="fill:none;stroke:#09083a;stroke-miterlimit:10;stroke-width:2px"/><polygon points="1087.29 570.88 138.39 570.88 36.16 715.24 1006.86 715.24 1087.29 570.88" style="fill:#d5e2ef"/><line x1="151.06" y1="570.88" x2="1078.85" y2="570.88" style="fill:none;stroke:#09083a;stroke-miterlimit:10;stroke-width:3px"/><polyline points="434.32 726.86 220.64 695.63 235.03 677.69 158 672.83 231.6 580.34 541.96 591.5" style="mix-blend-mode:multiply;fill:url(#linear-gradient)"/><polygon points="158 672.83 283.32 680.79 353.96 585.31 231.6 580.34 158 672.83" style="fill:#fff"/><polygon points="201.08 651.18 274.56 655.64 277.76 651.34 204.51 646.85 201.08 651.18" style="fill:#e6edf5"/><polygon points="217.84 630.09 290.25 634.47 293.41 630.13 221.31 625.76 217.84 630.09" style="fill:#e6edf5"/><polygon points="235.03 608.53 306.22 612.83 309.41 608.53 238.46 604.19 235.03 608.53" style="fill:#e6edf5"/><polygon points="212.41 693.76 337.77 701.72 408.37 606.24 286.01 601.24 212.41 693.76" style="fill:#fff"/><polygon points="255.5 672.12 329.02 676.57 332.17 672.27 258.93 667.78 255.5 672.12" style="fill:#e6edf5"/><polygon points="272.29 651.02 344.67 655.4 347.86 651.07 275.72 646.69 272.29 651.02" style="fill:#e6edf5"/><polygon points="289.44 629.46 360.67 633.76 363.83 629.46 292.87 625.13 289.44 629.46" style="fill:#e6edf5"/><polyline points="739.93 697.23 420.57 662.01 635.9 581.86 859.68 581.86" style="mix-blend-mode:multiply;fill:url(#linear-gradient-2)"/><polygon points="650.57 582.1 677.38 662.01 786.71 581.86 650.57 582.1" style="fill:#f2f7fc"/><polygon points="786.71 581.86 772.15 581.88 674.52 653.47 677.38 662.01 786.71 581.86" style="fill:#e6edf5"/><path d="M562.44,676.1,601,866.19a2.37,2.37,0,0,0,2.32,1.89H857.9L819.44,678.32a6.3,6.3,0,0,0-6.17-5.05H564.76A2.37,2.37,0,0,0,562.44,676.1Z" transform="translate(-180.52 -206.06)" style="fill:#f2f7fc"/><path d="M1082,624.12l-69.76-15.84L1023,743.58,917.51,792.5l28.62,30.71L1069,792.33A25.34,25.34,0,0,0,1087.48,767Z" transform="translate(-180.52 -206.06)" style="fill:#b38fb7"/><path d="M917.51,792.5s-3.75,3-13.34,6.14A310.33,310.33,0,0,0,868.06,807a70.08,70.08,0,0,0-16.13,12.27s1.83,5.2,9.22,2.09l1.65-.72c-6.54,6.54-12.42,13.47-12.48,15.68-.12,4.09,8.68,1.15,11.86-.84s13.64-13.15,15.24-13.66,16.67-4.36,16.67-4.36-17.65,11.34-20.27,15a85.55,85.55,0,0,0-7.94,11.66c-.29,1.46,9.58,1.22,15.1-4.15l10-9.74L905.62,824s-20.9,19.21-23.11,24.12,9.93,2.28,12.31.64A92.07,92.07,0,0,0,904,837.89s31.84-3,42.15-14.68Z" transform="translate(-180.52 -206.06)" style="fill:#fbb6af"/><path d="M1082,624.12,1081,594.54a58.36,58.36,0,0,0-62.31-56l-53.18,3.66s53.18-3.66,76.53,18.06c22.83,21.23,27.42,42.85,27.62,61,.08,7.54-.6,14.49-1.05,20.58-1.53,20.79-10.76,28-3.07,41.8s13.33,18.44,9.48,33.3-9.1,25.86-5.38,35.36a26.63,26.63,0,0,1,1.75,8.78c.21,8-3.45,16.24-14.56,17.35-4.59.46-16.3,4.63-30.47,10.26-33.31,13.22-80.2,34.48-80.2,34.48L1069,792.33A25.32,25.32,0,0,0,1087.48,767Z" transform="translate(-180.52 -206.06)" style="fill:#d0bed3"/><polyline points="736.99 586.44 842.44 537.51 833.79 427.98" style="fill:none;stroke:#09083a;stroke-miterlimit:10;stroke-width:2px"/><polyline points="974.85 645.75 860.85 639.4 830.54 658.52 942.92 676.7" style="mix-blend-mode:multiply;fill:url(#linear-gradient-3)"/><ellipse cx="705.29" cy="769.22" rx="11.53" ry="14.82" transform="translate(-456.03 919.75) rotate(-67.46)" style="fill:#d5e2ef"/><path d="M990.32,818.09V851.8c0,7.22,11.57,13.09,25.83,13.09S1042,859,1042,851.8V818.09Z" transform="translate(-180.52 -206.06)" style="fill:#fff"/><ellipse cx="835.67" cy="611.96" rx="25.83" ry="13.08" style="fill:#fff"/><ellipse cx="835.67" cy="611.96" rx="22.02" ry="9.24" style="fill:url(#linear-gradient-4)"/><path d="M1016.15,816.94c-8.06,0-14.94,2.4-18.21,5.87a39.5,39.5,0,0,0,36.42,0C1031.09,819.34,1024.24,816.94,1016.15,816.94Z" transform="translate(-180.52 -206.06)" style="fill:#d5e2ef"/><path d="M965.48,542.2h0a6.74,6.74,0,0,1-7.12-5.7L946.51,459a28.69,28.69,0,0,0-30.15-24.26l-26.74,1.69a17.46,17.46,0,0,0-16.17,20.11L882,511.83a16.69,16.69,0,0,0,20.55,13.64,7.17,7.17,0,0,1,8.75,6.33l.06.53a13.16,13.16,0,0,1-12.19,14.43h0a44.78,44.78,0,0,0,56.07,2.84Z" transform="translate(-180.52 -206.06)" style="fill:#fbb6af"/><polyline points="756.58 261.55 770.6 255.68 774.83 273.5 764.26 291.37" style="fill:#fbb6af"/><path d="M936.65,515.24a17.7,17.7,0,0,1-7.14,0c-8.17-1.51-14.73-7.6-17.59-15.4-.25-.68-.49-1.33-.73-1.93-3.05-7.55.74-12,3.43-18.35s-3.85-10.21-7.6-15.5-.42-18.54-.42-18.54l-29.2-3h0a17.06,17.06,0,0,0-1.58,2.18l0,0a19.31,19.31,0,0,0-1.22,2.4l0,.07c-.21.51-.39,1-.56,1.58,0,0,0,0,0,.05a.56.56,0,0,1,0,.12c-.14.5-.26,1-.36,1.53v0a2.44,2.44,0,0,0-.06.26,14.35,14.35,0,0,0-.18,1.45c0,.12,0,.24,0,.36s0,0,0,.06c0,.48,0,1,0,1.44v.09c0,.13,0,.25,0,.38a18.26,18.26,0,0,0,.19,1.93L882,511.83a16.69,16.69,0,0,0,20.55,13.64,7.17,7.17,0,0,1,8.75,6.33l.06.53a13.16,13.16,0,0,1-12.19,14.43,44.68,44.68,0,0,0,5.16,3.92,55.92,55.92,0,0,0,12.11,5.62h0C923.58,529.42,946.82,512.92,936.65,515.24Z" transform="translate(-180.52 -206.06)" style="fill:#09083a;opacity:0.30000000000000004;isolation:isolate"/><path d="M855.36,441.52s2.32,20.69,24,19.83c17-.68,15.92-17.18,12.08-16.66s8.31,14,18.56,13.57,12.65-4.55,12.65-4.55,3.59,11.86,8.38,16.37,5.06,9.23,5.06,9.23,2.14-16.27,11.75-14c8.37,2-1.48,20.05-1.48,20.05l8.43,27.39s5-40.86,2.62-62.08c-2-17.71-13.44-29.83-34.86-28.08a32.31,32.31,0,0,1-18.25-3.91c-5.05-2.79-11.48-5.11-16.4-2.73a12.79,12.79,0,0,0-4.76,3.92,18.44,18.44,0,0,1-14.33,7C861.51,427.2,853.71,430.06,855.36,441.52Z" transform="translate(-180.52 -206.06)" style="fill:#0a0a44"/><path d="M922.67,453.71s1.88,9.66,4.23,12.62a52.5,52.5,0,0,0,6.39,6.27s.39,16.37-5.31,22.11-14.58,9.4-14.58,9.4-4.21-7.59-8.61-8.87c-3.59-1.05-13.93,1.39-20,3a5.33,5.33,0,0,0-3.91,6c1.3,8.06,3.93,23.87,4.89,26.19,1.31,3.13,12.92,5.2,22.57.52,6.71-3.25,26.7-10.12,33.19-12.78s-4.36-45.66-4.36-45.66L938.45,459" transform="translate(-180.52 -206.06)" style="fill:#0a0a44"/><path d="M913.4,504.11s-4.21-7.59-8.61-8.87c-3.59-1.05-13.93,1.38-20,3a5.35,5.35,0,0,0-3.91,6c1.3,8.06,3.93,23.87,4.89,26.19,1.31,3.13,12.92,5.21,22.57.52,1.88-.91,4.8-2.1,8.16-3.4C918.28,521.43,915.68,509.94,913.4,504.11Z" transform="translate(-180.52 -206.06)" style="fill:#09083a;opacity:0.8;mix-blend-mode:multiply;isolation:isolate"/><path d="M889.2,494.55s-4-1.53-2.86-2.31,9.13,1.29,9.13,1.29S894.56,494.84,889.2,494.55Z" transform="translate(-180.52 -206.06)" style="fill:#09083a;opacity:0.400000005960465;isolation:isolate"/><path d="M1014.53,636.78s3,101.36-23.74,121.73L1023,743.58Z" transform="translate(-180.52 -206.06)" style="fill:#09083a;opacity:0.30000000000000004;isolation:isolate"/><path d="M880.9,466.2l-.8.58a9.85,9.85,0,0,1-3.45,1.58l-1.32.31.54,3.46a32.43,32.43,0,0,0,3.44-.63C882,470.68,880.9,466.2,880.9,466.2Z" transform="translate(-180.52 -206.06)" style="fill:#09083a"/><path d="M887.9,492.09a61.05,61.05,0,0,0-3.39-19.7c1.34,6.59,1.83,19.85,1.83,19.85A3,3,0,0,1,887.9,492.09Z" transform="translate(-180.52 -206.06)" style="fill:#fbb6af"/><path d="M910.11,467.37s-14.72,2.69-19,1.78-3.39-4.37-3.39-4.37,3,1,8.29,0C904.2,463.26,908.12,463.51,910.11,467.37Z" transform="translate(-180.52 -206.06)" style="fill:#09083a"/><path d="M945.68,468.05c3.48.58,2.17,5.36,2.17,5.36a2.75,2.75,0,0,0-3.36-2.21c-2.83.58-.11,3.45.44,4.82a2.9,2.9,0,0,1-4,3.7C938.94,478.52,942.2,467.48,945.68,468.05Z" transform="translate(-180.52 -206.06)" style="fill:#09083a;opacity:0.30000000000000004;isolation:isolate"/><path d="M935.84,444.1c-10.18,6.52-16.44-1.36-16.44-1.36-10.17,7.77-32.09-5.16-32.09-5.16-6,8.08-20.61.26-20.61-6.79a9.43,9.43,0,0,1,1.13-3.79c-7,.49-14.05,3.58-12.47,14.52,0,0,2.32,20.69,24,19.83,10.18-.41,13.85-6.48,14.36-11.18,3.72,3.88,10.31,8.35,16.28,8.09,10.25-.43,12.65-4.55,12.65-4.55C936.9,452.1,935.84,444.1,935.84,444.1Z" transform="translate(-180.52 -206.06)" style="fill:#09083a;opacity:0.8;mix-blend-mode:multiply;isolation:isolate"/><path d="M857.9,868.08,819.44,678.32a6.31,6.31,0,0,0-6.18-5.05h-.6l39.48,194.81Z" transform="translate(-180.52 -206.06)" style="fill:#e6edf5"/></g><path d="M561.13,414.36l-105.9-8.82a66.33,66.33,0,0,0-71.48,59.25L372.19,664.13c5,2.42,87.08,21.44,147.11,19.77h1.17l-.17-.54,18.61-120.05,7.41-2.65A37.1,37.1,0,0,0,571,525.72V481.59" transform="translate(-180.52 -206.06)" style="fill:#9697d3"/><path d="M372.19,664.13l-.05,1c-14,58.39-.26,111.86-.26,111.86H543.54l-23.07-93H519.3C454.45,684.07,377.17,666.55,372.19,664.13Z" transform="translate(-180.52 -206.06)" style="fill:#09083a"/><path d="M538.91,563.31l7.41-2.65A37.1,37.1,0,0,0,571,525.72V471.78" transform="translate(-180.52 -206.06)" style="fill:none;stroke:#09083a;stroke-miterlimit:10;stroke-width:2px"/><path d="M472.56,776.94l-9.15-51.18L472.56,712s1.29,19,6.67,27.11,17.29,14.61,16.52,22.68,6.53,15.12,6.53,15.12Z" transform="translate(-180.52 -206.06)" style="fill:#09083a;opacity:0.8;mix-blend-mode:multiply;isolation:isolate"/><path d="M556,303.25a18.14,18.14,0,0,0-20.72,12.54l-23.44,77.13a21.87,21.87,0,0,1-22.75,15.44h0l10,10.41a39.79,39.79,0,0,0,56.22,1.12l5.76-5.53h0a6.87,6.87,0,0,1-6-8.7l1.55-5.51a12.33,12.33,0,0,1,13.84-8.85l2.34.38a17.24,17.24,0,0,0,19.53-13.12L607.56,313Z" transform="translate(-180.52 -206.06)" style="fill:#fbb6af"/><path d="M552.2,390.36c7.54.12,17.07.81,17.07.81s-3.77-2-3.77-5.47,4.19-24.4,5.45-29c1.13-4.16-2.27-7.29-2.27-12.23s7.63-26.84,7.63-26.84l-44.52,9.78-19.92,65.55a21.87,21.87,0,0,1-22.75,15.44l10,10.41a39.71,39.71,0,0,0,33.78,11.83c-.7-1.83-1.94-11.25-.65-19.18C533.77,402.29,542.57,390.19,552.2,390.36Z" transform="translate(-180.52 -206.06)" style="fill:#09083a;opacity:0.30000000000000004;isolation:isolate"/><path d="M411.06,673l-.21-.22c-21.52-3.94-36.56-7.66-38.66-8.68l-.05,1c-14,58.39-.26,111.86-.26,111.86h35.81s-6.73-30.75-7.24-50.73S407.62,681.12,411.06,673Z" transform="translate(-180.52 -206.06)" style="fill:#09083a;opacity:0.8;mix-blend-mode:multiply;isolation:isolate"/><path d="M514.4,563.31c-18.14,1,12.09,5.6,14.66,11.23,2.2,4.84-11.47,86.39-15.38,109.32,1.88,0,3.75,0,5.62,0h1.17l-.17-.54,18.61-120.05,7.41-2.65A37.1,37.1,0,0,0,571,525.72V481.59l-.36-2.41c-.89,15.83-3.74,52.29-11.3,60.6C549.55,550.46,532.54,562.32,514.4,563.31Z" transform="translate(-180.52 -206.06)" style="fill:#f2f2f2;opacity:0.30000000000000004;mix-blend-mode:soft-light;isolation:isolate"/><path d="M520.47,683.9H519.3q-2.79.08-5.64.09c-.63,3.7,22.65,93,22.65,93h7.23Z" transform="translate(-180.52 -206.06)" style="fill:#333d80;mix-blend-mode:screen"/><path d="M406.21,464.92l21.16,134.67a32.42,32.42,0,0,0,29.75,27.31l136.71,9.63,13.73-36.61L486.29,581.61,474.85,464.92" transform="translate(-180.52 -206.06)" style="fill:#9697d3"/><polyline points="427.04 393.85 305.77 375.55 295.25 268.29" style="fill:none;stroke:#09083a;stroke-miterlimit:10;stroke-width:2px"/><path d="M500.76,409.33" transform="translate(-180.52 -206.06)" style="fill:none;stroke:#6d0ef0;stroke-miterlimit:10"/><path d="M548.34,280.76c-29,7.59-33.28,36.44-37.84,41.76s-17.47,2.55-25.43,12.9c-7.59,9.87,4.05,23.54-23.15,29.61-16.35,3.65-26,25.37-18.52,40.59a65.75,65.75,0,0,1,11.83-.08l37.2,3.1c19.63,1.63,38.41-9.84,44.82-28.48,3.1-9,2.61-17.12-1.31-21.2-8-8.35-4.94-19.74,3-20.12s9.43,15.94,9.43,15.94,11.51-17.46,33.53-22.07,34.92-25.5,34.92-25.5C612.23,293.05,577.31,273.17,548.34,280.76Z" transform="translate(-180.52 -206.06)" style="fill:#09083a"/><path d="M475.77,474.35s18.76,46.76,20.37,60c1.77,14.6-12.11,24.24-12.11,24.24Z" transform="translate(-180.52 -206.06)" style="fill:#09083a;opacity:0.30000000000000004;isolation:isolate"/><path d="M561.87,619.7c-15.91,7.11-33.06-9.24-47.67-9.24-16.71,0-48.1,1.27-57.39-5.69s1.54-19.75-8.71-35.86c-6.52-10.25-10.76-23.57-6.66-39.13s-9.22-24.92-12-42.85,2.11-56,30.23-52.95,57.11,6.1,73.3-3.38h0a39.71,39.71,0,0,1-33.78-11.83l-10-10.41-33.9-2.82a66.33,66.33,0,0,0-71.48,59.25L372.19,664.13c4.25,2.06,64.69,16.21,119.63,19.28.55-7.52-.06-17.81-5.52-26.67-10-16.18,0-28.32,0-28.32l41.95,3.7,0-.21,19.78,1.39,46,2.75,2.45-6.55C587.16,624.49,570.36,615.9,561.87,619.7Z" transform="translate(-180.52 -206.06)" style="fill:#09083a;opacity:0.30000000000000004;isolation:isolate"/><path d="M593.83,636.53l-137.1-10.39a31.17,31.17,0,0,1-28.39-26L407.69,474.35" transform="translate(-180.52 -206.06)" style="fill:none;stroke:#09083a;stroke-miterlimit:10;stroke-width:2px"/><path d="M586.48,311c-6.87-4.24-19.64-.37-30.45-7.79s-7.69-22.49-7.69-22.49c-29,7.59-33.28,36.44-37.84,41.76s-17.47,2.55-25.43,12.9c-7.59,9.87,4.05,23.54-23.15,29.61-16.35,3.65-26,25.37-18.52,40.59a65.75,65.75,0,0,1,11.83-.08l37.2,3.1c19.63,1.63,38.41-9.84,44.82-28.48,3.1-9,2.61-17.12-1.31-21.2-8-8.35-4.94-19.74,3-20.12s9.43,15.94,9.43,15.94a58,58,0,0,1,21.94-18.16h0C574.49,324.89,593.36,315.28,586.48,311Z" transform="translate(-180.52 -206.06)" style="fill:#09083a;opacity:0.8;mix-blend-mode:multiply;isolation:isolate"/><path d="M538.91,359.3h0a5,5,0,0,1,5,4.94h0a5,5,0,0,1-5,4.94h0a5,5,0,0,1-5-4.94h0A5,5,0,0,1,538.91,359.3Z" transform="translate(-180.52 -206.06)" style="fill:#fff"/><path d="M592.53,343.31s-4,18.89-2.36,23.34,1-5.67,1-8S592.53,343.31,592.53,343.31Z" transform="translate(-180.52 -206.06)" style="fill:#eb6f9b;mix-blend-mode:screen"/><path d="M588.08,369.52s4-1.53,2.86-2.31-9.12,1.29-9.12,1.29S582.72,369.81,588.08,369.52Z" transform="translate(-180.52 -206.06)" style="fill:#09083a;opacity:0.400000005960465;isolation:isolate"/><path d="M571.48,343.64A18.35,18.35,0,0,1,583,340.13c5.62.12,5.64,3.67,4.23,3.51S582.55,340.72,571.48,343.64Z" transform="translate(-180.52 -206.06)" style="fill:#09083a"/><path d="M596.12,344.59a39.59,39.59,0,0,1,4.08.11l.54-2.31C595.77,341.2,594.77,344.33,596.12,344.59Z" transform="translate(-180.52 -206.06)" style="fill:#09083a"/><path d="M575.08,376.41s7,3.95,12.89,1.77l-.37-1.41S583.13,378.86,575.08,376.41Z" transform="translate(-180.52 -206.06)" style="fill:#09083a;opacity:0.30000000000000004;isolation:isolate"/><path d="M538.29,344c-3.48.58-2.18,5.36-2.18,5.36a2.75,2.75,0,0,1,3.36-2.21c2.84.58.12,3.45-.43,4.82a2.9,2.9,0,0,0,4,3.7C545,354.45,541.76,343.41,538.29,344Z" transform="translate(-180.52 -206.06)" style="fill:#09083a;opacity:0.30000000000000004;isolation:isolate"/><circle cx="184.39" cy="74.7" r="74.7" style="fill:#ebdaff"/><circle cx="942.19" cy="770.97" r="86.65" style="fill:#ebdaff"/><circle cx="853.39" cy="119.75" r="50.42" style="fill:#ffe7ab"/><circle cx="59.27" cy="524.36" r="59.27" style="fill:#f8d1cc"/><circle cx="853.39" cy="119.75" r="30.55" style="fill:#fcfcfc"/><polyline points="856.38 100.38 853.61 120.75 838.4 118.28" style="fill:none;stroke:#ffe7ab;stroke-miterlimit:10;stroke-width:5px"/><polyline points="32.85 501.03 32.85 545.68 89.69 545.68" style="fill:none;stroke:#fcfcfc;stroke-miterlimit:10;stroke-width:5px"/><line x1="48.5" y1="507.87" x2="48.5" y2="536.02" style="fill:none;stroke:#fcfcfc;stroke-miterlimit:10;stroke-width:5px"/><line x1="60.13" y1="515.14" x2="60.13" y2="536.02" style="fill:none;stroke:#fcfcfc;stroke-miterlimit:10;stroke-width:5px"/><line x1="71.76" y1="521.94" x2="71.76" y2="536.02" style="fill:none;stroke:#fcfcfc;stroke-miterlimit:10;stroke-width:5px"/><ellipse cx="1122.71" cy="977.03" rx="50.35" ry="49.47" transform="translate(-546.12 773.33) rotate(-41.12)" style="fill:#fff"/><path d="M1172.29,982.4A48.86,48.86,0,0,0,1129,927.47a50.61,50.61,0,0,0-38.36,11.93L1122.71,977l-6.26,49.56A51,51,0,0,0,1172.29,982.4Z" transform="translate(-180.52 -206.06)" style="fill:#f5eeff"/><path d="M1172.29,982.4A48.86,48.86,0,0,0,1129,927.47l-12.51,99.12A51,51,0,0,0,1172.29,982.4Z" transform="translate(-180.52 -206.06)" style="fill:#dccef2"/><rect x="147.25" y="40.83" width="61.14" height="78.76" style="fill:#dccef2"/><rect x="153.96" y="34.95" width="61.14" height="78.76" style="fill:#f5eeff;mix-blend-mode:multiply"/><rect x="160.68" y="29.08" width="61.14" height="78.76" style="fill:#fcfcfc"/><line x1="172.66" y1="46.81" x2="209.83" y2="46.81" style="fill:none;stroke:#ebdaff;stroke-miterlimit:10;stroke-width:3px"/><line x1="172.66" y1="56.68" x2="209.83" y2="56.68" style="fill:none;stroke:#ebdaff;stroke-miterlimit:10;stroke-width:3px"/><line x1="172.66" y1="66.56" x2="209.83" y2="66.56" style="fill:none;stroke:#ebdaff;stroke-miterlimit:10;stroke-width:3px"/><line x1="172.66" y1="76.43" x2="209.83" y2="76.43" style="fill:none;stroke:#ebdaff;stroke-miterlimit:10;stroke-width:3px"/><line x1="172.66" y1="86.3" x2="209.83" y2="86.3" style="fill:none;stroke:#ebdaff;stroke-miterlimit:10;stroke-width:3px"/></g></g></svg>