<?xml version="1.0" encoding="utf-8"?>
<!-- Generator: Adobe Illustrator 17.1.0, SVG Export Plug-In . SVG Version: 6.00 Build 0)  -->
<!DOCTYPE svg PUBLIC "-//W3C//DTD SVG 1.1//EN" "http://www.w3.org/Graphics/SVG/1.1/DTD/svg11.dtd">
<svg version="1.1" id="Layer_1" xmlns="http://www.w3.org/2000/svg" xmlns:xlink="http://www.w3.org/1999/xlink" x="0px" y="0px"
	 viewBox="0 0 439.4 127.6" enable-background="new 0 0 439.4 127.6" xml:space="preserve">
<path fill="#1A1A1A" d="M150.4,41.6c8-7.8,18.9-12.6,31-12.6v13.4c-17.1,0-31,13.9-31,31v36.3h7.9V123h-29.4v-13.4h8.1V44h-8.1V30.6
	h21.5V41.6z M69.4,111.8c-0.3,0-0.6,0-1,0c-13.4-0.3-25.8-5.8-35-15.7c-17.3-18.6-17.3-47.8,0-66.5c9.8-10.6,25.7-15.8,40.5-13.3
	c6.9,1.2,19.5,5.1,25.3,18.2l1.8,4h11.3V3.7H98.8v9.2c-6.3-4.9-14-8.3-22.7-9.8C56.7-0.1,36.6,6.6,23.6,20.5
	c-22,23.7-22,60.9,0,84.7c11.6,12.6,27.5,19.7,44.6,20c0.4,0,0.8,0,1.2,0c16.6,0,32.2-6.5,44.1-18.3l-9.5-9.5
	C94.7,106.8,82.5,111.8,69.4,111.8z M269.3,42.8c9,9,13.9,20.9,13.9,33.5v6.7h-81.2c0.8,4,2.4,7.8,4.7,11.3
	c6.5,9.7,16.8,16,28.2,17.1c11.4,1.1,22.6-2.9,30.7-11l9.5,9.5c-9.7,9.7-22.8,15.1-36.4,15.1c-1.7,0-3.4-0.1-5.1-0.2
	c-15.4-1.5-29.3-9.9-38-23c-9.1-13.6-10.1-31.1-2.8-45.8c7.2-14.4,20.1-24,35.4-26.5C243.1,27.1,258.5,32.1,269.3,42.8z M269.1,69.7
	c-1.3-6.5-4.5-12.5-9.3-17.4c-7.7-7.7-18.8-11.3-29.5-9.5c-11,1.8-20.3,8.8-25.5,19.3c-1.2,2.5-2.1,5-2.7,7.6H269.1z M401.7,30.6V44
	h8.1l-20.2,55L370,44h8.1V30.6h-12.9h-11.1h-12.9V44h8.1l-19.6,55l-20.2-55h8.1V30.6H287V44h8.1l29.1,79h11.1l24.3-68.1L384,123
	h11.1l29.1-79h8.1V30.6H401.7z"/>
</svg>
