<svg xmlns="http://www.w3.org/2000/svg" width="341" height="58"><title>logo.valk.322543fa</title><desc>Created with Sketch.</desc><g fill="none"><g fill="#000"><g><path id="Shape" d="M89.7 41.3c-2.16 1.5-4.95 2.34-8.6 2.34-4.3 0-8.83-1.28-12.05-4.28L72.5 34c2.35 1.93 6 3.43 8.38 3.43 2.36 0 3.87-.64 3.87-2.36 0-1.93-4.1-2.78-5.17-3-1.07-.2-2.8-.64-4.08-1.28-1.3-.66-4.73-2.37-4.73-7.3 0-5.57 4.73-8.8 10.75-8.8s9.25 2.16 10.76 3.44l-3.02 5.36c-1.5-1.3-4.73-2.8-7.1-2.8-2.14 0-3.44.66-3.44 2.16s2.16 2.14 4.1 2.78c1.93.65 2.8.86 4.08 1.3 1.3.42 2.8 1.27 3.65 2.13.87.86 2.37 2.8 2.37 5.8.22 2.56-1.07 4.92-3.23 6.42zM125.18 43.2h-9.24V28.44c0-3.43-.43-6.43-4.3-6.43-3.88 0-5.17 3.2-5.17 7.3v13.9h-9.25V3.8h9.25V19c1.5-2.57 4.1-4.5 8.4-4.5 8.16 0 10.3 5.14 10.3 12v16.7zM156.6 43.2h-8.83l-.22-3c-1.3 1.3-3.44 3.66-8.17 3.66-4.95 0-10.32-2.8-10.32-9 0-6.22 5.8-8.36 10.97-8.57l7.1-.23v-.64c0-3-2.16-4.5-5.8-4.5-3.67 0-7.33 1.5-8.62 2.57l-2.14-6.2c2.37-1.3 6.9-2.8 12.05-2.8 5.38 0 8.4 1.3 10.55 3.2 2.15 2.16 3.44 4.73 3.44 9.66V43.2zm-9.05-12.4l-4.5.2c-2.8.2-4.53 1.3-4.53 3.43 0 2.14 1.72 3.43 4.3 3.43 2.37 0 4.1-1.5 4.73-2.57v-4.5zM180.46 23.3h-.43c-.43-.23-1.72-.66-3.22-.66-2.14 0-3.65 1.07-4.3 2.15-.64 1.06-1.5 2.77-1.5 6v12.4h-9.25V14.94H171V19h.22c1.5-3 3.87-4.5 7.1-4.5 1.93 0 2.8.43 2.8.43l-.66 8.36zM211.87 31.2h-20.22c.43 4.1 3.44 6 7.3 6 3.67 0 6.9-1.5 8.62-2.77l3.65 4.7c-.86.66-4.73 4.5-13.55 4.5s-15.05-5.34-15.05-14.77S189.5 14.3 197.9 14.3c8.38 0 14.18 5.56 14.18 13.7-.2 1.7-.2 3.2-.2 3.2zm-8.4-5.13c0-2.57-1.93-5.57-5.8-5.57s-5.8 3-5.8 5.57h11.6zM233.8 22h-6.23v10.07c0 2.36.43 3 .86 3.43.43.43 1.08.64 2.15.64 1.5 0 2.8-.43 2.8-.43l.43 7.1c-.64.2-3.22.84-6.45.84-3.22 0-5.37-1.07-6.88-2.57-1.5-1.7-1.93-4.07-1.93-8.36V21.8h-4.1v-6.87h4.1v-7.5h9.24v7.7h6.24V22h-.2zM257.25 23.3h-.43c-.43-.23-1.72-.66-3.22-.66-2.15 0-3.66 1.07-4.3 2.15-.65 1.06-1.5 2.77-1.5 6v12.4h-9.05V14.94H248V19h.22c1.5-3 3.87-4.5 7.1-4.5 1.93 0 2.8.43 2.8.43l-.87 8.36zM266.72 11.7c-3 0-5.17-1.9-5.17-4.7 0-2.8 2.16-4.7 5.17-4.7 3 0 5.16 1.9 5.16 4.7 0 2.8-2.15 4.7-5.16 4.7z"/><path d="M262.2 14.93h9.25v28.3h-9.25z"/><path id="Shape" d="M294.46 43.86c-3.87 0-7.3-1.3-9.46-4.3v3.65h-8.82V3.8h9.25v9.4c0 2.6-.2 5.16-.2 5.16h.2c1.3-1.72 4.1-3.86 8.82-3.86 8.17 0 13.33 6.43 13.33 14.57s-4.94 14.8-13.12 14.8zm-2.58-22.3c-3.87 0-6.66 3-6.66 7.3 0 4.28 2.8 7.28 6.66 7.28 3.87 0 6.67-3 6.67-7.28 0-4.3-2.58-7.3-6.67-7.3zM340.28 31.2h-20.22c.43 4.1 3.44 6 7.3 6 3.67 0 6.9-1.5 8.62-2.77l3.65 4.7c-.86.66-4.73 4.5-13.55 4.5s-15.05-5.34-15.05-14.77S317.9 14.3 326.3 14.3c8.4 0 14.2 5.56 14.2 13.7 0 1.7-.22 3.2-.22 3.2zm-8.4-5.13c0-2.57-1.93-5.57-5.8-5.57s-5.8 3-5.8 5.57h11.6z"/><g><path d="M50.33 13.86L26.9.36c-.66-.43-1.52-.43-2.16 0 0 0-1.94 1.07-1.94 1.28-2.58 1.5-3.66 4.5-.22 6.22 4.1 2.14 8.6 4.5 8.6 4.5 5.82 3 5.4 4.93 5.4 8.35v2.37l-14-7.5c-1.07-.43-1.72 0-1.72 1.07v3.43c0 1.07.86 2.57 1.72 3l5.8 3.22c3.02 1.7 8.2 3.63 8.2 7.06V52l13.75-7.5c.65-.43 1.08-1.07 1.08-1.7V15.56c0-.64-.42-1.28-1.07-1.7zM.86 44.07l23.45 13.5c.65.43 1.5.43 2.16 0 0 0 1.93-1.07 1.93-1.28 2.57-1.5 3.65-4.5.2-6.23-4.08-2.14-8.6-4.5-8.6-4.5-5.8-2.78-5.37-4.93-5.37-8.36v-2.34l13.98 7.5c1.08.64 1.73 0 1.73-1.07v-3.44c0-1.07-.86-2.57-1.72-3l-5.8-3.22c-3-1.7-8.17-3.64-8.17-7.07V5.93L.86 13.43C.43 13.86 0 14.7 0 15.36v27c0 .64.43 1.28.86 1.7z"/></g></g></g></g></svg>