<svg xmlns="http://www.w3.org/2000/svg" width="258" height="121"><title>soylent</title><desc>Created with Sketch.</desc><g id="Page-1" fill="none"><g><g><g><path id="Shape" fill="#fff" d="M160.5 47.78h-.77c-4.55 0-8.25 2.97-8.25 6.6v3.82h17.17v-3.8c0-3.65-3.66-6.62-8.16-6.62zm-80.36 6.6c0-3.63-3.66-6.6-8.17-6.6h-.83c-4.5 0-8.17 2.97-8.17 6.6v12.35c0 3.64 3.66 6.6 8.17 6.6h.83c4.5 0 8.17-2.96 8.17-6.6V54.4zM5.45 5.22v110.7h246.72V5.2H5.45zM38.1 77.86h-.68c-4.86 0-11.3-2.65-13.67-7.08-.38-.58-.4-1.4-.04-2.08.42-.75 1.3-1.23 2.23-1.23.9 0 1.72.46 2.14 1.22 1.46 2.65 6.14 4.64 9.35 4.64h.68c1.5 0 8.93-.27 8.93-5.6 0-3.85-3.6-5.18-9.8-6.18-3.08-.5-12.46-2.03-12.46-8.7v-.57c0-6.2 6.52-9.04 12.57-9.04h.46c5.36 0 8.9 2.14 11.1 3.74.82.63 1.14 1.6.83 2.5-.48 1.43-2.56 2.03-3.8 1.07-1.65-1.2-4.28-2.8-8.13-2.8h-.46c-.32 0-7.86.06-7.86 4.52v.56c0 1.77 3.2 3.4 8.53 4.35 5.83 1 13.82 2.38 13.82 10.54 0 7.47-7.4 10.12-13.72 10.12zm46.83-11.13c0 6.13-5.8 11.13-12.95 11.13h-.84c-7.14 0-12.96-5-12.96-11.13V54.4c0-6.14 5.82-11.13 12.96-11.13h.84c7.14 0 12.95 5 12.95 11.12v12.33zm34.82 13.35c0 6.13-5.8 11.13-12.96 11.13h-.84c-5.3 0-11.6-2.48-13.46-7.25-.25-.42-.25-.83-.25-1 0-1.38 1.26-2.24 2.43-2.24 1 0 1.87.6 2.24 1.53.94 2.55 4.82 4.46 9.04 4.46h.83c4.5 0 8.17-2.98 8.17-6.62v-4.54c-2.25 1.45-5.2 2.3-8.2 2.3h-.82c-7.15 0-12.96-5-12.96-11.18v-21.1c0-1.3 1.03-2.3 2.34-2.3 1.4 0 2.44.98 2.44 2.3v21.1c0 3.68 3.66 6.67 8.17 6.67h.83c4.17 0 7.77-2.4 8.2-5.44V45.54c0-1.28 1.02-2.3 2.34-2.3 1.17 0 2.43.9 2.43 2.3v34.53zm19.7-2.22c-5.82 0-10.38-3.97-10.38-9.03V32.27c0-1.3 1.03-2.3 2.35-2.3 1.4 0 2.44.97 2.44 2.3v36.56c0 2.48 2.5 4.5 5.6 4.5.78 0 1.5.38 1.9.84.33.38.4.68.4.68.08.24.13.5.13.78-.02 1.1-.93 2.22-2.44 2.22zm34-17.43c0 1.26-1.1 2.3-2.43 2.3h-19.54v4c0 3.64 3.67 6.6 8.17 6.6h.84c3.47 0 6.6-1.85 7.75-4.6.15-.78 1.05-1.44 2.15-1.44 1.4 0 2.5.97 2.5 2.22 0 .3-.08.55-.12.67l-.06.17c-1.8 4.48-6.72 7.5-12.23 7.5h-.85c-7.14 0-12.95-5-12.95-11.14V54.4c0-6.14 5.84-11.14 13.03-11.14h.6c7.47 0 13.1 4.8 13.1 11.13v6.03h.02zm34.98 15.13c0 1.42-1.27 2.3-2.44 2.3-1.33 0-2.36-1-2.36-2.3v-21.1c0-3.68-3.7-6.68-8.25-6.68h-.77c-4.47 0-8.24 2.77-8.24 6.04v21.74c0 1.3-1.06 2.3-2.44 2.3-1.32 0-2.36-1-2.36-2.3v-30c0-1.28 1-2.24 2.36-2.24 1.4 0 2.42.94 2.42 2.23v.06c2.25-1.47 5.24-2.34 8.25-2.34h.76c7.18 0 13.02 5.02 13.02 11.2v21.1zm21.13 2.3c-5.82 0-10.38-3.97-10.38-9.03V47.9h-2.5c-1.08 0-1.85-.56-2.2-1.3 0 0-.2-.4-.22-.67-.02-.17-.02-.2-.02-.28 0-1.1.9-2.26 2.45-2.26h2.48V32.2c0-1.26 1.05-2.26 2.4-2.26 1.33 0 2.4 1 2.4 2.26v11.2h5.13c1.5 0 2.4 1.14 2.4 2.25 0 1.1-.9 2.26-2.4 2.26h-5.13v20.93c0 2.53 2.46 4.5 5.6 4.5 1.5 0 2.4 1.16 2.4 2.27 0 1.1-.9 2.26-2.4 2.26z"/><path fill="#000" fill-rule="nonzero" d="M38 57.2c-5.33-.94-8.52-2.57-8.52-4.33v-.58c0-4.47 7.54-4.52 7.86-4.52h.46c3.85 0 6.48 1.6 8.12 2.8 1.25.95 3.33.35 3.8-1.07.3-.9 0-1.87-.83-2.5-2.2-1.6-5.75-3.74-11.1-3.74h-.46c-6.06 0-12.58 2.83-12.58 9.03v.57c0 6.67 9.4 8.2 12.47 8.7 6.2 1 9.8 2.32 9.8 6.17 0 5.33-7.44 5.6-8.93 5.6h-.68c-3.22 0-7.9-2-9.35-4.65-.43-.78-1.23-1.23-2.14-1.23-.94 0-1.82.48-2.23 1.23-.37.68-.34 1.5.04 2.08 2.37 4.43 8.8 7.08 13.68 7.08h.68c6.32 0 13.7-2.65 13.7-10.12 0-8.16-7.97-9.53-13.8-10.53zm33.97-13.94h-.83c-7.14 0-12.96 5-12.96 11.13v12.33c0 6.13 5.82 11.13 12.96 11.13h.83c7.15 0 12.96-5 12.96-11.13V54.4c0-6.14-5.8-11.13-12.96-11.13zm0 30.08h-.83c-4.5 0-8.17-2.97-8.17-6.6V54.38c0-3.65 3.66-6.62 8.17-6.62h.83c4.5 0 8.17 2.97 8.17 6.6v12.35c0 3.64-3.66 6.6-8.17 6.6zm45.35-30.08c-1.32 0-2.36 1-2.36 2.3v21.62l.02.72c-.43 3.05-4.03 5.44-8.2 5.44h-.84c-4.5 0-8.17-3-8.17-6.68v-21.1c0-1.3-1.04-2.3-2.43-2.3-1.32 0-2.35 1-2.35 2.3v21.1c0 6.17 5.8 11.2 12.94 11.2h.83c2.98 0 5.95-.86 8.2-2.32v4.54c0 3.64-3.67 6.6-8.18 6.6h-.84c-4.22 0-8.1-1.9-9.04-4.45-.37-.94-1.23-1.52-2.25-1.52-1.16 0-2.43.86-2.43 2.24 0 .18 0 .6.26 1 1.85 4.77 8.15 7.26 13.46 7.26h.83c7.14 0 12.95-5 12.95-11.12V45.55c0-1.42-1.26-2.3-2.43-2.3zm24.03 30.9c-.4-.45-1.1-.82-1.9-.82-3.1 0-5.6-2.03-5.6-4.5V32.25c0-1.33-1.02-2.3-2.43-2.3-1.32 0-2.35 1.02-2.35 2.3v36.56c0 5.07 4.56 9.03 10.38 9.03 1.52 0 2.43-1.13 2.43-2.22 0-.28-.04-.54-.13-.78 0 0-.06-.3-.4-.7v.02zm18.98-30.9h-.6c-7.2 0-13.03 5-13.03 11.13v12.33c0 6.13 5.8 11.13 12.95 11.13h.84c5.5 0 10.42-3 12.22-7.48l.06-.2c.05-.1.13-.35.13-.65 0-1.25-1.1-2.23-2.5-2.23-1.1 0-2 .65-2.15 1.42-1.16 2.76-4.28 4.62-7.76 4.62h-.85c-4.5 0-8.17-2.97-8.17-6.6v-4H171c1.35 0 2.44-1.04 2.44-2.3v-6.05c0-6.35-5.64-11.13-13.1-11.13zm8.33 11.13v3.8h-17.18v-3.8c0-3.65 3.7-6.62 8.25-6.62h.76c4.5 0 8.16 2.97 8.16 6.6zm26.73-11.14h-.77c-3 0-6 .87-8.24 2.35v-.05c0-1.28-1.03-2.22-2.44-2.22-1.35 0-2.36.96-2.36 2.23v30c0 1.3 1.04 2.3 2.36 2.3 1.38 0 2.43-1 2.43-2.3V53.82c0-3.27 3.76-6.04 8.23-6.04h.76c4.54 0 8.24 3 8.24 6.67v21.1c0 1.3 1.03 2.3 2.35 2.3 1.16 0 2.42-.87 2.42-2.3v-21.1c0-6.17-5.85-11.2-13.03-11.2zm34.16 30.08c-3.14 0-5.6-1.98-5.6-4.5V47.9h5.15c1.5 0 2.4-1.14 2.4-2.25 0-1.1-.9-2.26-2.4-2.26h-5.14V32.2c0-1.27-1.05-2.26-2.4-2.26-1.33 0-2.38 1-2.38 2.26v11.2h-2.5c-1.53 0-2.44 1.14-2.44 2.25 0 .1 0 .1.02.27 0 .28.2.7.2.7.37.7 1.15 1.3 2.23 1.3h2.48v20.9c0 5.07 4.56 9.03 10.38 9.03 1.5 0 2.4-1.15 2.4-2.26 0-1.12-.9-2.27-2.4-2.27zM0 .13V121h257.62V.13H0zM5.45 115.9V5.23h246.72v110.7H5.45z"/></g></g></g></g></svg>