<?xml version="1.0" encoding="UTF-8"?>
<svg width="127px" height="40px" viewBox="0 0 127 40" version="1.1" xmlns="http://www.w3.org/2000/svg" xmlns:xlink="http://www.w3.org/1999/xlink">
    <!-- Generator: Sketch 52.4 (67378) - http://www.bohemiancoding.com/sketch -->
    <title>Group 6</title>
    <desc>Created with Sketch.</desc>
    <g id="Page-2" stroke="none" stroke-width="1" fill="none" fill-rule="evenodd">
        <g id="verision-4-copy-2" transform="translate(-338.000000, -180.000000)" fill="#B2B2BB">
            <g id="Group-6" transform="translate(338.000000, 180.000000)">
                <g id="Group-25">
                    <g id="Adyen_Corporate_Logo">
                        <path d="M17.7626705,9.12907612 L0.372643438,9.12907612 L0.372643438,14.6065218 L11.8003755,14.6065218 C12.5456624,14.6065218 13.0425203,15.2151269 13.0425203,15.8237319 L13.0425203,25.4396921 L10.5582307,25.4396921 C9.81294387,25.4396921 9.31608595,24.831087 9.31608595,24.222482 L9.31608595,17.2843841 L4.47172125,17.2843841 C1.98743167,17.2843841 0,19.2319204 0,21.6663407 L0,26.5351813 C0,28.9696016 1.98743167,30.9171378 4.47172125,30.9171378 L22.2343918,30.9171378 L22.2343918,13.5110327 C22.2343918,11.0766124 20.2469601,9.12907612 17.7626705,9.12907612 Z" id="Path"></path>
                        <path d="M39.0033465,25.4396921 L36.5190569,25.4396921 C35.77377,25.4396921 35.2769121,24.831087 35.2769121,24.222482 L35.2769121,9.12907612 L30.4325474,9.12907612 C27.9482578,9.12907612 25.9608262,11.0766124 25.9608262,13.5110327 L25.9608262,26.5351813 C25.9608262,28.9696016 27.9482578,30.9171378 30.4325474,30.9171378 L48.195218,30.9171378 L48.195218,0 L38.879132,0 L39.0033465,25.4396921 Z" id="Path"></path>
                        <path d="M64.9641727,25.4396921 L62.4798831,25.4396921 C61.7345962,25.4396921 61.2377383,24.831087 61.2377383,24.222482 L61.2377383,9.12907612 L51.9216523,9.12907612 L51.9216523,26.5351813 C51.9216523,28.9696016 53.909084,30.9171378 56.3933736,30.9171378 L64.9641727,30.9171378 L64.9641727,33.5950001 L52.2942958,33.5950001 L52.2942958,39.9244929 L69.8085374,39.9244929 C72.292827,39.9244929 74.2802586,37.9769567 74.2802586,35.5425364 L74.2802586,9.12907612 L64.9641727,9.12907612 L64.9641727,25.4396921 Z" id="Path"></path>
                        <path d="M95.7693635,9.12907612 L77.8824785,9.12907612 L77.8824785,26.5351813 C77.8824785,28.9696016 79.8699102,30.9171378 82.3541998,30.9171378 L99.8684414,30.9171378 L99.8684414,25.4396921 L88.4407093,25.4396921 C87.6954224,25.4396921 87.1985645,24.831087 87.1985645,24.222482 L87.1985645,14.6065218 L89.6828541,14.6065218 C90.4281409,14.6065218 90.9249989,15.2151269 90.9249989,15.8237319 L90.9249989,22.7618298 L95.7693635,22.7618298 C98.2536531,22.7618298 100.241085,20.8142936 100.241085,18.3798733 L100.241085,13.5110327 C100.241085,11.0766124 98.2536531,9.12907612 95.7693635,9.12907612 Z" id="Path"></path>
                        <path d="M121.73019,9.12907612 L103.967519,9.12907612 L103.967519,30.9171378 L113.283605,30.9171378 L113.283605,14.6065218 L115.767895,14.6065218 C116.513182,14.6065218 117.01004,15.2151269 117.01004,15.8237319 L117.01004,30.9171378 L126.326125,30.9171378 L126.326125,13.5110327 C126.201911,11.0766124 124.214479,9.12907612 121.73019,9.12907612 Z" id="Path"></path>
                    </g>
                </g>
            </g>
        </g>
    </g>
</svg>