<?xml version="1.0" encoding="UTF-8"?>
<svg width="22px" height="24px" viewBox="0 0 22 24" version="1.1" xmlns="http://www.w3.org/2000/svg" xmlns:xlink="http://www.w3.org/1999/xlink">
    <!-- Generator: Sketch 52.4 (67378) - http://www.bohemiancoding.com/sketch -->
    <title>Group 32</title>
    <desc>Created with Sketch.</desc>
    <g id="Page-2" stroke="none" stroke-width="1" fill="none" fill-rule="evenodd">
        <g id="verision-4-copy-2" transform="translate(-166.000000, -188.000000)" fill="#1D0046">
            <g id="Group-32" transform="translate(166.000000, 188.000000)">
                <rect id="Rectangle" opacity="0" x="0" y="0" width="24" height="24"></rect>
                <g id="chargebee-icon-orange">
                    <path d="M11.6489435,22.3504193 C11.741659,22.6039604 11.820081,22.8639563 11.8842098,23.1281413 C11.9527112,23.1293795 12.0213101,23.13 12.09,23.13 C12.53,23.13 12.97,23.1 13.4,23.05 C13.64,23.02 13.86,23.19 13.88,23.43 C13.91,23.67 13.74,23.89 13.5,23.91 C13.04,23.97 12.57,24 12.1,24 C8.89,24 5.88,22.75 3.61,20.49 C2.15691039,19.0304808 1.12135232,17.2650474 0.567117343,15.3372307 C0.375402987,14.6822748 0.244956172,14.0146055 0.17,13.34 C0.08,12.56 0.07,11.77 0.14,10.98 C0.193268337,10.3319019 0.301710589,9.67592182 0.465326757,9.04005045 C0.505049929,8.88259055 0.547944056,8.72613048 0.593975465,8.57074601 C0.776841314,7.94135766 1.01454888,7.32874294 1.3,6.74 C1.62,6.08 2.01,5.44 2.45,4.85 C2.60081805,4.64890927 2.75837568,4.45231159 2.92191996,4.26058343 C3.139607,4.00241471 3.36906395,3.75200214 3.61,3.51 C5.62848463,1.50040738 8.23207033,0.289398653 11.0410991,0.0457107123 C11.3728932,0.0158233406 11.7064466,1.24344979e-14 12.04,1.24344979e-14 C12.0502274,1.24344979e-14 12.0604548,1.1581995e-05 12.0706822,3.47634047e-05 C12.0804529,1.15900602e-05 12.0902255,0 12.1,0 C12.5987469,0 13.0930342,0.0303253885 13.5815299,0.0904434183 C13.9133066,0.130083717 14.2432035,0.183065786 14.57,0.25 C14.7427567,0.287922211 14.9150696,0.329395272 15.0866581,0.374419183 C15.7077014,0.533361061 16.3164743,0.742284914 16.91,1 C17.7905327,1.38336119 18.6136569,1.86718727 19.3686264,2.44503055 C19.8784755,2.83278945 20.3592256,3.26473817 20.8,3.73 C21.67,4.65 19.69,2.57 20.8,3.73 C21.01,3.95 21.17,4.21 21.29,4.5 C21.5,5.07 21.48,5.72 21.23,6.27 C20.94,6.9 20.38,7.37 19.71,7.54 C19.03,7.71 18.28,7.56 17.73,7.12 C17.660742,7.06063602 17.5963786,6.99882477 17.5332778,6.9357769 C17.5109332,6.91948395 17.4897261,6.90088644 17.47,6.88 C16.9383692,6.3219762 16.3356577,5.85777899 15.6811618,5.49598454 C15.2660046,5.26825629 14.8294366,5.07959535 14.3779849,4.93326536 C14.2101025,4.87943889 14.0400244,4.83160091 13.8680029,4.78986362 C13.3339125,4.66136427 12.7847144,4.5934202 12.234944,4.58118631 C12.2015587,4.58059883 12.168134,4.58022923 12.1346714,4.58007822 C11.53608,4.58272798 10.9286134,4.65270191 10.35,4.79 C9.78,4.93 9.22,5.14 8.7,5.41 C8.44454799,5.54263854 8.1987492,5.6873436 7.96260362,5.84411518 C6.20307656,7.03085392 4.97686346,8.9512253 4.72704787,11.1621458 C4.66876634,11.7236703 4.66975038,12.2905393 4.73,12.85 C4.76891688,13.1905227 4.8314982,13.5310455 4.91774395,13.8658123 C5.07822103,14.4826854 5.31632168,15.068651 5.62093681,15.6126001 C5.84123646,16.0038426 6.09675135,16.3738072 6.38,16.72 C6.38117661,16.7214975 6.3823555,16.7229939 6.38353665,16.7244891 C6.43055799,16.7812763 6.47840716,16.8373547 6.52706543,16.8927055 C6.57689939,16.9481231 6.62797654,17.0032726 6.67822752,17.0595335 C8.03367072,18.5110004 9.96310567,19.42 12.1,19.42 C13.2,19.42 14.27,19.18 15.26,18.72 C15.48,18.62 15.74,18.71 15.84,18.93 C15.94,19.15 15.85,19.41 15.63,19.51 C14.52,20.03 13.33,20.29 12.1,20.29 C11.4973395,20.29 10.909461,20.2253072 10.3429464,20.1025035 C10.4493984,20.2281479 10.5518119,20.3573134 10.65,20.49 C10.7701888,20.6524173 10.8840466,20.8201106 10.9908878,20.9923942 C11.3544396,21.0370205 11.7245879,21.06 12.1,21.06 C13.36,21.06 14.58,20.81 15.73,20.3 C16.84,19.81 17.82,19.12 18.66,18.24 C18.91,17.98 19.32,17.97 19.59,18.22 C19.85,18.47 19.86,18.88 19.61,19.15 C18.65,20.16 17.52,20.95 16.25,21.51 C14.94,22.07 13.55,22.36 12.1,22.36 C11.9491181,22.36 11.7987406,22.3567957 11.6489435,22.3504193 Z M20.52,16.89 C20.82,17.09 20.9,17.5 20.7,17.8 C20.5,18.1 20.09,18.18 19.79,17.98 C19.49,17.78 19.41,17.37 19.61,17.07 C19.81,16.76 20.22,16.68 20.52,16.89 Z M14.75,23.69 C14.55,23.69 14.37,23.55 14.33,23.35 C14.27,23.12 14.42,22.88 14.66,22.83 C16.15,22.48 17.53,21.84 18.76,20.91 C18.95,20.77 19.23,20.81 19.37,21 C19.51,21.19 19.47,21.47 19.28,21.61 C17.95,22.6 16.46,23.3 14.85,23.68 C14.82,23.69 14.79,23.69 14.75,23.69 Z M20.02,20.86 C19.9,20.86 19.79,20.81 19.7,20.72 C19.53,20.54 19.54,20.27 19.72,20.1 C19.88,19.95 20.04,19.79 20.2,19.62 C20.37,19.44 20.64,19.44 20.82,19.6 C21,19.77 21,20.04 20.84,20.22 C20.67,20.4 20.5,20.57 20.32,20.74 C20.24,20.82 20.13,20.86 20.02,20.86 Z M16.58,18.89 C16.44,18.89 16.31,18.83 16.22,18.71 C16.08,18.51 16.13,18.24 16.32,18.1 C16.81,17.75 17.05,17.55 17.47,17.11 C17.64,16.94 17.91,16.93 18.09,17.09 C18.26,17.26 18.27,17.53 18.11,17.71 C17.64,18.21 17.33,18.45 16.83,18.81 C16.75,18.86 16.67,18.89 16.58,18.89 Z M14.94,12 C14.94,13.57 13.67,14.84 12.1,14.84 C10.53,14.84 9.26,13.57 9.26,12 C9.26,10.43 10.53,9.16 12.1,9.16 C13.67,9.16 14.94,10.43 14.94,12 Z" id="Combined-Shape"></path>
                </g>
            </g>
        </g>
    </g>
</svg>