<?xml version="1.0" encoding="UTF-8"?>
<svg width="24px" height="24px" viewBox="0 0 24 24" version="1.1" xmlns="http://www.w3.org/2000/svg" xmlns:xlink="http://www.w3.org/1999/xlink">
    <!-- Generator: Sketch 52.4 (67378) - http://www.bohemiancoding.com/sketch -->
    <title>checkbox-marked-circle-outline (1)</title>
    <desc>Created with Sketch.</desc>
    <g id="Page-2" stroke="none" stroke-width="1" fill="none" fill-rule="evenodd">
        <g id="verision-4-copy-2" transform="translate(-777.000000, -1862.000000)" fill="#B2B2BB" fill-rule="nonzero">
            <g id="checkbox-marked-circle-outline-(1)" transform="translate(777.000000, 1862.000000)">
                <path d="M21.6,12 C21.6,17.3019336 17.3019336,21.6 12,21.6 C6.6980664,21.6 2.4,17.3019336 2.4,12 C2.4,6.6980664 6.6980664,2.4 12,2.4 C12.912,2.4 13.8,2.532 14.64,2.772 L16.524,0.888 C15.132,0.312 13.608,0 12,0 C5.372583,-2.66453526e-15 8.8817842e-17,5.372583 -4.4408921e-16,12 C-2.04281037e-15,15.1825979 1.26428208,18.2348448 3.51471863,20.4852814 C5.76515517,22.7357179 8.81740212,24 12,24 C15.1825979,24 18.2348448,22.7357179 20.4852814,20.4852814 C22.7357179,18.2348448 24,15.1825979 24,12 L21.6,12 Z M7.092,9.696 L5.4,11.4 L10.8,16.8 L22.8,4.8 L21.108,3.096 L10.8,13.404 L7.092,9.696 Z" id="Shape"></path>
            </g>
        </g>
    </g>
</svg>