<?xml version="1.0" encoding="UTF-8"?>
<svg width="29px" height="28px" viewBox="0 0 29 28" version="1.1" xmlns="http://www.w3.org/2000/svg" xmlns:xlink="http://www.w3.org/1999/xlink">
    <!-- Generator: Sketch 52.4 (67378) - http://www.bohemiancoding.com/sketch -->
    <title>Group 40</title>
    <desc>Created with Sketch.</desc>
    <defs>
        <path d="M12.7061667,0 C7.62883333,0 3.199,2.71366667 0.747833333,6.75966667 L1.008,7.0315 L1.02783333,7.00933333 L3.423,9.54683333 C4.5745,10.7671667 4.76583333,12.6081667 3.89083333,14.0408333 L3.82316667,14.1493333 C3.269,15.0581667 3.129,16.1606667 3.4405,17.1768333 L4.36566667,20.2031667 C4.69933333,21.294 4.51266667,22.4781667 3.8605,23.415 L3.24566667,24.2981667 C5.73883333,26.5895 9.05333333,28 12.7061667,28 C20.3455,28 26.5451667,21.8773333 26.6921667,14.273 L25.9606667,13.9988333 C24.3623333,13.3956667 22.6531667,14.5763333 22.6531667,16.2855 L22.6531667,17.6843333 C22.6531667,18.1638333 22.512,18.6328333 22.2471667,19.033 L21,20.9183333 C20.2778333,22.0091667 18.8265,22.3393333 17.7041667,21.6673333 C17.3156667,21.4351667 17.0006667,21.1003333 16.7918333,20.7001667 L15.7255,18.6503333 C15.3906667,18.0098333 14.7921667,17.5501667 14.0886667,17.3926667 L12.9943333,17.1488333 C12.4051667,17.0181667 11.8848333,16.674 11.536,16.1828333 L8.84916667,12.4191667 C8.19933333,11.5091667 8.25066667,10.2736667 8.97283333,9.41966667 L11.144,6.853 C11.7215,6.1705 12.6245,5.85783333 13.4995,6.03633333 L17.3693333,6.82616667 C18.6701667,7.08983333 19.9465,6.2685 20.2416667,4.9735 L20.7865,2.58066667 C18.5033333,0.961333333 15.7196667,0 12.7061667,0 Z" id="path-1"></path>
        <linearGradient x1="0.000166381869%" y1="50%" x2="99.9992355%" y2="50%" id="linearGradient-3">
            <stop stop-color="#AA83EF" offset="0%"></stop>
            <stop stop-color="#46288C" offset="100%"></stop>
        </linearGradient>
    </defs>
    <g id="Page-2" stroke="none" stroke-width="1" fill="none" fill-rule="evenodd">
        <g id="verision-4-copy-2" transform="translate(-529.000000, -1560.000000)">
            <g id="Group-40" transform="translate(528.595238, 1560.000000)">
                <g id="Group-3" transform="translate(2.333333, 0.000000)">
                    <mask id="mask-2" fill="white">
                        <use xlink:href="#path-1"></use>
                    </mask>
                    <g id="Clip-2"></g>
                    <path d="M12.7061667,0 C7.62883333,0 3.199,2.71366667 0.747833333,6.75966667 L1.008,7.0315 L1.02783333,7.00933333 L3.423,9.54683333 C4.5745,10.7671667 4.76583333,12.6081667 3.89083333,14.0408333 L3.82316667,14.1493333 C3.269,15.0581667 3.129,16.1606667 3.4405,17.1768333 L4.36566667,20.2031667 C4.69933333,21.294 4.51266667,22.4781667 3.8605,23.415 L3.24566667,24.2981667 C5.73883333,26.5895 9.05333333,28 12.7061667,28 C20.3455,28 26.5451667,21.8773333 26.6921667,14.273 L25.9606667,13.9988333 C24.3623333,13.3956667 22.6531667,14.5763333 22.6531667,16.2855 L22.6531667,17.6843333 C22.6531667,18.1638333 22.512,18.6328333 22.2471667,19.033 L21,20.9183333 C20.2778333,22.0091667 18.8265,22.3393333 17.7041667,21.6673333 C17.3156667,21.4351667 17.0006667,21.1003333 16.7918333,20.7001667 L15.7255,18.6503333 C15.3906667,18.0098333 14.7921667,17.5501667 14.0886667,17.3926667 L12.9943333,17.1488333 C12.4051667,17.0181667 11.8848333,16.674 11.536,16.1828333 L8.84916667,12.4191667 C8.19933333,11.5091667 8.25066667,10.2736667 8.97283333,9.41966667 L11.144,6.853 C11.7215,6.1705 12.6245,5.85783333 13.4995,6.03633333 L17.3693333,6.82616667 C18.6701667,7.08983333 19.9465,6.2685 20.2416667,4.9735 L20.7865,2.58066667 C18.5033333,0.961333333 15.7196667,0 12.7061667,0 Z" id="Fill-1" fill="url(#linearGradient-3)" mask="url(#mask-2)"></path>
                </g>
                <g id="Group-8" transform="translate(0.000000, 2.333333)" fill="#E6DCFF">
                    <path d="M23.1205333,0.247333333 L22.5745333,2.64016667 C22.2793667,3.93516667 21.0042,4.75766667 19.7022,4.49166667 L15.8323667,3.70183333 C14.9573667,3.5245 14.0543667,3.83716667 13.4768667,4.51966667 L11.3057,7.08633333 C10.5835333,7.94033333 10.5322,9.17466667 11.1832,10.0858333 L13.8688667,13.8495 C14.2188667,14.3406667 14.7380333,14.6848333 15.3272,14.8155 L16.4215333,15.0593333 C17.1262,15.2168333 17.7247,15.6765 18.0583667,16.317 L19.1258667,18.3668333 C19.3335333,18.767 19.6497,19.103 20.0370333,19.334 C21.1593667,20.0071667 22.6107,19.677 23.3340333,18.5861667 L24.5812,16.6996667 C24.8460333,16.2995 24.9872,15.8293333 24.9872,15.3498333 L24.9872,13.9521667 C24.9872,12.243 26.6952,11.0623333 28.2947,11.6643333 L29.0262,11.9396667 C29.0262,11.8475 29.0390333,11.7588333 29.0390333,11.6666667 C29.0390333,6.94866667 26.6975333,2.78366667 23.1205333,0.247333333" id="Fill-4"></path>
                    <path d="M6.69888333,17.86925 L5.77371667,14.8440833 C5.46221667,13.82675 5.60221667,12.72425 6.15755,11.8165833 L6.22405,11.7069167 C7.09905,10.2754167 6.90771667,8.43441667 5.75621667,7.21408333 L3.36105,4.67658333 L3.34238333,4.69758333 L3.08105,4.42691667 C2.81388333,4.86675 2.56421667,5.31941667 2.34605,5.78958333 C1.51538333,7.57808333 1.03938333,9.56491667 1.03938333,11.66725 C1.03938333,15.7459167 2.79521667,19.4069167 5.57888333,21.9654167 L6.19488333,21.0810833 C6.84588333,20.14425 7.03255,18.96125 6.69888333,17.86925" id="Fill-6"></path>
                </g>
            </g>
        </g>
    </g>
</svg>