<?xml version="1.0" encoding="UTF-8"?>
<svg width="30px" height="25px" viewBox="0 0 30 25" version="1.1" xmlns="http://www.w3.org/2000/svg" xmlns:xlink="http://www.w3.org/1999/xlink">
    <!-- Generator: Sketch 52.4 (67378) - http://www.bohemiancoding.com/sketch -->
    <title>Group 26</title>
    <desc>Created with Sketch.</desc>
    <defs>
        <path d="M0.929761905,4.55 L0.929761905,6.26428571 L0.929761905,21.122619 C0.929761905,21.95 1.60833333,22.6190476 2.44404762,22.6190476 L27.9880952,22.6190476 C28.8238095,22.6190476 29.5011905,21.95 29.5011905,21.122619 L29.5011905,4.55 C29.5011905,3.72380952 28.8238095,3.05357143 27.9880952,3.05357143 L25.4059524,3.05357143 L3.27738095,3.05357143 C1.98095238,3.05357143 0.929761905,2.01428571 0.929761905,0.732142857 L0.929761905,4.55 Z M23.8261905,12.8202381 C23.8261905,11.9559524 24.5333333,11.2571429 25.4059524,11.2571429 C26.277381,11.2571429 26.9857143,11.9559524 26.9857143,12.8202381 C26.9857143,13.6821429 26.277381,14.3821429 25.4059524,14.3821429 C24.5333333,14.3821429 23.8261905,13.6821429 23.8261905,12.8202381 Z" id="path-1"></path>
        <linearGradient x1="0.00129583333%" y1="49.9989622%" x2="100.001272%" y2="49.9989622%" id="linearGradient-3">
            <stop stop-color="#AA83EF" offset="0%"></stop>
            <stop stop-color="#46288C" offset="100%"></stop>
        </linearGradient>
    </defs>
    <g id="Page-2" stroke="none" stroke-width="1" fill="none" fill-rule="evenodd">
        <g id="verision-4-copy-2" transform="translate(-907.000000, -1559.000000)">
            <g id="Group-26" transform="translate(907.000000, 1559.000000)">
                <g id="Group-16" transform="translate(0.000000, 2.380952)">
                    <mask id="mask-2" fill="white">
                        <use xlink:href="#path-1"></use>
                    </mask>
                    <g id="Clip-15"></g>
                    <path d="M0.929761905,4.55 L0.929761905,6.26428571 L0.929761905,21.122619 C0.929761905,21.95 1.60833333,22.6190476 2.44404762,22.6190476 L27.9880952,22.6190476 C28.8238095,22.6190476 29.5011905,21.95 29.5011905,21.122619 L29.5011905,4.55 C29.5011905,3.72380952 28.8238095,3.05357143 27.9880952,3.05357143 L25.4059524,3.05357143 L3.27738095,3.05357143 C1.98095238,3.05357143 0.929761905,2.01428571 0.929761905,0.732142857 L0.929761905,4.55 Z M23.8261905,12.8202381 C23.8261905,11.9559524 24.5333333,11.2571429 25.4059524,11.2571429 C26.277381,11.2571429 26.9857143,11.9559524 26.9857143,12.8202381 C26.9857143,13.6821429 26.277381,14.3821429 25.4059524,14.3821429 C24.5333333,14.3821429 23.8261905,13.6821429 23.8261905,12.8202381 Z" id="Fill-14" fill="url(#linearGradient-3)" mask="url(#mask-2)"></path>
                </g>
                <path d="M25.4059524,0.000119047619 L3.27738095,0.000119047619 C1.98095238,0.000119047619 0.929761905,1.03940476 0.929761905,2.32154762 L0.929761905,3.11321429 C0.929761905,4.39535714 1.98095238,5.43464286 3.27738095,5.43464286 L25.4059524,5.43464286 L25.4059524,0.000119047619 Z" id="Fill-17" fill="#E6DCFF"></path>
            </g>
        </g>
    </g>
</svg>