<?xml version="1.0" encoding="utf-8"?>
<!-- Generator: Adobe Illustrator 24.2.1, SVG Export Plug-In . SVG Version: 6.00 Build 0)  -->
<svg version="1.1" id="Layer_1" xmlns="http://www.w3.org/2000/svg" xmlns:xlink="http://www.w3.org/1999/xlink" x="0px" y="0px"
	 viewBox="0 0 2500 1750" style="enable-background:new 0 0 2500 1750;" xml:space="preserve">
<style type="text/css">
	.st0{fill:#2A184C;}
	.st1{fill:#FFFFFF;}
</style>
<path class="st0" d="M1040.4,190.9c80.6-84,192.9-136.1,317-136.1c165,0,309,92,385.7,228.6c66.6-29.8,140.4-46.3,218-46.3
	c297.6,0,539,243.4,539,543.7c0,300.3-241.3,543.7-539,543.7c-35.7,0-71.2-3.5-106.2-10.6c-67.5,120.4-196.2,201.8-343.9,201.8
	c-61.8,0-120.3-14.3-172.4-39.7c-68.4,161-227.9,273.9-413.8,273.9c-193.6,0-358.5-122.5-421.8-294.2c-27.7,5.9-56.3,8.9-85.8,8.9
	C186.8,1464.6,0,1275.9,0,1043C0,887,83.9,750.7,208.7,677.8c-25.7-59.1-40-124.3-40-192.8c0-267.8,217.4-484.9,485.6-484.9
	C811.7,0.1,951.6,74.9,1040.4,190.9"/>
<path class="st1" d="M362.1,907.5c-1.6,4.1,0.6,5,1.1,5.7c4.7,3.4,9.5,5.9,14.3,8.6c25.5,13.5,49.6,17.5,74.8,17.5
	c51.3,0,83.1-27.3,83.1-71.2v-0.9c0-40.6-35.9-55.3-69.7-66l-4.4-1.4c-25.4-8.3-47.4-15.4-47.4-32.1v-0.9
	c0-14.3,12.8-24.9,32.7-24.9c22.1,0,48.3,7.3,65.2,16.7c0,0,4.9,3.2,6.8-1.6c1-2.6,9.5-25.6,10.4-28.1c1-2.7-0.7-4.7-2.5-5.8
	c-19.3-11.7-45.9-19.7-73.5-19.7l-5.1,0c-46.9,0-79.7,28.3-79.7,69v0.9c0,42.8,36.1,56.7,70,66.4l5.4,1.7
	c24.7,7.6,45.9,14.1,45.9,31.5v0.9c0,15.9-13.8,27.7-36.1,27.7c-8.7,0-36.3-0.2-66.1-19c-3.6-2.1-5.7-3.6-8.5-5.3
	c-1.5-0.9-5.1-2.5-6.7,2.3L362.1,907.5L362.1,907.5z M1112.8,907.5c-1.6,4.1,0.6,5,1.1,5.7c4.7,3.4,9.5,5.9,14.3,8.6
	c25.5,13.5,49.6,17.5,74.8,17.5c51.3,0,83.1-27.3,83.1-71.2v-0.9c0-40.6-35.9-55.3-69.7-66l-4.4-1.4c-25.4-8.3-47.4-15.4-47.4-32.1
	v-0.9c0-14.3,12.8-24.9,32.7-24.9c22.1,0,48.3,7.3,65.2,16.7c0,0,4.9,3.2,6.8-1.6c1-2.6,9.5-25.6,10.4-28.1c1-2.7-0.7-4.7-2.5-5.8
	c-19.3-11.7-45.9-19.7-73.5-19.7l-5.1,0c-46.9,0-79.7,28.3-79.7,69v0.9c0,42.8,36.1,56.7,70,66.4l5.4,1.7c24.7,7.6,46,14.1,46,31.5
	v0.9c0,15.9-13.9,27.7-36.1,27.7c-8.7,0-36.3-0.2-66.1-19c-3.6-2.1-5.7-3.6-8.4-5.3c-0.9-0.6-5.3-2.3-6.8,2.3L1112.8,907.5
	L1112.8,907.5z M1625.4,821.5c0,24.8-4.6,44.4-13.7,58.2c-9,13.7-22.7,20.3-41.7,20.3c-19.1,0-32.6-6.6-41.5-20.3
	c-9-13.8-13.5-33.4-13.5-58.2c0-24.8,4.6-44.3,13.5-58c8.9-13.5,22.4-20.1,41.5-20.1c19,0,32.7,6.6,41.7,20.1
	C1620.7,777.2,1625.4,796.7,1625.4,821.5 M1668.2,775.5c-4.2-14.2-10.8-26.7-19.5-37.2c-8.7-10.5-19.8-18.9-32.9-25
	c-13.1-6.1-28.5-9.2-45.9-9.2c-17.4,0-32.8,3.1-45.9,9.2c-13.1,6.1-24.1,14.5-32.9,25c-8.7,10.5-15.2,23-19.5,37.2
	c-4.2,14.1-6.3,29.6-6.3,46c0,16.4,2.1,31.9,6.3,46c4.2,14.2,10.8,26.7,19.5,37.2c8.7,10.5,19.8,18.8,32.9,24.8
	c13.1,5.9,28.5,9,45.9,9c17.3,0,32.8-3,45.9-9c13.1-5.9,24.1-14.3,32.9-24.8c8.7-10.4,15.3-23,19.5-37.2c4.2-14.1,6.3-29.6,6.3-46
	S1672.4,789.6,1668.2,775.5 M2019.7,893.4c-1.4-4.2-5.4-2.6-5.4-2.6c-6.2,2.4-12.9,4.6-19.9,5.7c-7.2,1.1-15,1.7-23.5,1.7
	c-20.7,0-37.2-6.2-49-18.3c-11.8-12.2-18.4-31.9-18.4-58.5c0.1-24.3,5.9-42.5,16.4-56.4c10.4-13.8,26.3-20.9,47.5-20.9
	c17.7,0,31.1,2,45.2,6.5c0,0,3.4,1.5,5-3c3.7-10.4,6.5-17.8,10.5-29.3c1.1-3.2-1.6-4.6-2.6-5c-5.6-2.2-18.7-5.7-28.6-7.2
	c-9.3-1.4-20.1-2.2-32.1-2.2c-18,0-34,3.1-47.7,9.2c-13.7,6.1-25.3,14.5-34.5,25c-9.2,10.5-16.2,23-20.8,37.2
	c-4.6,14.1-7,29.7-7,46.1c0,35.5,9.6,64.2,28.5,85.2c18.9,21.1,47.4,31.8,84.5,31.8c21.9,0,44.4-4.4,60.6-10.8c0,0,3.1-1.5,1.7-5.1
	L2019.7,893.4L2019.7,893.4z M2094.6,797.7c2-13.8,5.8-25.3,11.7-34.2c8.9-13.6,22.4-21,41.4-21c19,0,31.6,7.5,40.6,21
	c6,8.9,8.6,20.9,9.6,34.2H2094.6L2094.6,797.7z M2238.7,767.4c-3.6-13.7-12.6-27.6-18.6-33.9c-9.3-10-18.4-17.1-27.5-21
	c-11.8-5.1-26-8.4-41.5-8.4c-18.1,0-34.5,3-47.8,9.3c-13.4,6.3-24.6,14.8-33.4,25.5c-8.8,10.6-15.4,23.3-19.6,37.6
	c-4.2,14.3-6.4,29.8-6.4,46.3c0,16.7,2.2,32.3,6.6,46.3c4.4,14.1,11.5,26.5,21,36.8c9.5,10.4,21.8,18.5,36.4,24.1
	c14.6,5.6,32.3,8.5,52.6,8.5c41.8-0.1,63.9-9.5,73-14.5c1.6-0.9,3.1-2.5,1.2-6.9l-9.5-26.5c-1.4-4-5.4-2.5-5.4-2.5
	c-10.4,3.8-25.1,10.8-59.5,10.7c-22.5,0-39.1-6.7-49.6-17c-10.7-10.6-16-26.2-16.9-48.2l144.9,0.1c0,0,3.8-0.1,4.2-3.8
	C2243.2,828.3,2248,800.1,2238.7,767.4 M934.1,797.7c2.1-13.8,5.8-25.3,11.7-34.2c8.9-13.6,22.4-21,41.4-21s31.6,7.5,40.6,21
	c5.9,8.9,8.5,20.9,9.6,34.2H934.1z M1078.2,767.4c-3.6-13.7-12.6-27.6-18.5-33.9c-9.3-10-18.4-17.1-27.5-21
	c-11.8-5.1-26-8.4-41.5-8.4c-18.1,0-34.5,3-47.8,9.3c-13.4,6.3-24.6,14.8-33.4,25.5c-8.8,10.6-15.4,23.3-19.6,37.6
	c-4.2,14.3-6.4,29.8-6.4,46.3c0,16.7,2.2,32.3,6.6,46.3c4.4,14.1,11.5,26.5,21,36.8c9.5,10.4,21.8,18.5,36.4,24.1
	c14.6,5.6,32.3,8.5,52.6,8.5c41.8-0.1,63.9-9.5,73-14.5c1.6-0.9,3.1-2.5,1.2-6.9l-9.4-26.5c-1.5-4-5.5-2.5-5.5-2.5
	c-10.4,3.8-25.1,10.8-59.5,10.7c-22.4,0-39.1-6.7-49.5-17c-10.7-10.6-16-26.2-16.9-48.2l144.9,0.1c0,0,3.8-0.1,4.2-3.8
	C1082.7,828.3,1087.5,800.1,1078.2,767.4 M620.9,892.6c-5.7-4.5-6.4-5.7-8.4-8.6c-2.9-4.5-4.3-10.8-4.3-18.8
	c0-12.8,4.2-21.9,12.9-28.1c-0.1,0,12.5-10.9,42-10.5c20.8,0.3,39.3,3.3,39.3,3.3v65.9h0c0,0-18.4,4-39.1,5.2
	C633.9,902.9,620.8,892.6,620.9,892.6 M678.5,790.8c-5.9-0.4-13.5-0.7-22.6-0.7c-12.4,0-24.4,1.6-35.7,4.6c-11.3,3-21.5,7.8-30.3,14
	c-8.7,6.2-15.9,14.4-21,23.9c-5.1,9.5-7.7,20.8-7.7,33.4c0,12.8,2.2,24,6.6,33.1c4.4,9.2,10.8,16.8,18.9,22.7
	c8,5.9,18,10.2,29.5,12.8c11.4,2.6,24.3,3.9,38.4,3.9c14.8,0,29.7-1.2,44-3.7c14.2-2.4,31.7-5.9,36.5-7c3.4-0.8,6.8-1.7,10.2-2.6
	c3.6-0.9,3.3-4.7,3.3-4.7l-0.1-132.5c0-29.1-7.8-50.6-23-64c-15.2-13.3-37.6-20.1-66.6-20.1c-10.9,0-28.3,1.5-38.8,3.6
	c0,0-31.7,6.1-44.7,16.3c0,0-2.8,1.8-1.3,5.8l10.3,27.6c1.3,3.6,4.7,2.3,4.7,2.3s1.1-0.4,2.4-1.2c27.9-15.2,63.1-14.7,63.1-14.7
	c15.7,0,27.7,3.1,35.8,9.4c7.9,6.1,11.9,15.2,11.9,34.5v6.1C690,791.8,678.5,790.8,678.5,790.8 M1847.3,716.1
	c1.1-3.3-1.2-4.8-2.2-5.2c-2.5-1-14.8-3.6-24.3-4.2c-18.2-1.1-28.3,2-37.4,6c-9,4.1-18.9,10.6-24.5,18.1v-17.6
	c0-2.5-1.7-4.4-4.2-4.4h-37.1c-2.4,0-4.2,2-4.2,4.4v216.1c0,2.4,2,4.4,4.4,4.4h38.1c2.4,0,4.4-2,4.4-4.4v-108c0-14.5,1.6-29,4.8-38
	c3.1-9,7.4-16.2,12.7-21.3c5.3-5.1,11.3-8.7,17.9-10.8c6.7-2.1,14.2-2.7,19.4-2.7c7.6,0,15.9,2,15.9,2c2.8,0.3,4.3-1.4,5.3-3.9
	C1838.9,739.9,1845.9,720.1,1847.3,716.1"/>
<path class="st1" d="M1489.9,615.9c-4.6-1.4-8.8-2.4-14.3-3.4c-5.6-1-12.2-1.5-19.7-1.5c-26.2,0-46.9,7.4-61.4,22
	c-14.4,14.5-24.2,36.6-29.1,65.7l-1.8,9.8h-32.9c0,0-4-0.1-4.8,4.2l-5.4,30.2c-0.4,2.9,0.9,4.7,4.7,4.7h32l-32.5,181.3
	c-2.5,14.6-5.5,26.6-8.7,35.7c-3.2,9-6.3,15.7-10.1,20.6c-3.7,4.7-7.2,8.2-13.3,10.2c-5,1.7-10.8,2.5-17.1,2.5
	c-3.5,0-8.2-0.6-11.6-1.3c-3.4-0.7-5.2-1.4-7.8-2.5c0,0-3.7-1.4-5.2,2.3c-1.2,3.1-9.7,26.6-10.8,29.5c-1,2.9,0.4,5.1,2.2,5.8
	c4.3,1.5,7.4,2.5,13.2,3.9c8.1,1.9,14.8,2,21.2,2c13.3,0,25.5-1.9,35.6-5.5c10.1-3.7,18.9-10,26.8-18.7c8.4-9.3,13.7-19.1,18.8-32.4
	c5-13.2,9.3-29.6,12.7-48.6l32.7-184.7h47.7c0,0,4,0.1,4.8-4.2l5.4-30.1c0.4-2.9-0.9-4.7-4.7-4.7h-46.3c0.3-1,2.3-17.3,7.7-32.7
	c2.3-6.5,6.6-11.8,10.2-15.5c3.6-3.6,7.7-6.1,12.1-7.6c4.6-1.5,9.8-2.2,15.6-2.2c4.3,0,8.7,0.5,11.9,1.2c4.5,1,6.2,1.5,7.4,1.8
	c4.7,1.4,5.4,0,6.3-2.2l11.1-30.4C1493.7,617.7,1490.9,616.3,1489.9,615.9 M842.6,929.3c0,2.4-1.7,4.4-4.2,4.4H800
	c-2.4,0-4.1-2-4.1-4.4V620.1c0-2.4,1.7-4.4,4.1-4.4h38.4c2.4,0,4.2,2,4.2,4.4V929.3z"/>
</svg>
