<?xml version="1.0" encoding="UTF-8"?>
<svg width="29px" height="25px" viewBox="0 0 29 25" version="1.1" xmlns="http://www.w3.org/2000/svg" xmlns:xlink="http://www.w3.org/1999/xlink">
    <!-- Generator: Sketch 52.4 (67378) - http://www.bohemiancoding.com/sketch -->
    <title>Group 41</title>
    <desc>Created with Sketch.</desc>
    <defs>
        <path d="M14.2869048,4.49166667 L0,0.854761905 L0,12.047619 C0,12.6261905 0.511904762,13.0952381 1.14285714,13.0952381 L27.4285714,13.0952381 C28.0595238,13.0952381 28.5714286,12.6261905 28.5714286,12.047619 L28.5714286,0.854761905 L14.2869048,4.49166667 Z M11.6464286,8.4047619 L16.9238095,8.4047619 L16.9238095,6.30952381 L11.6464286,6.30952381 L11.6464286,8.4047619 Z" id="path-1"></path>
        <linearGradient x1="0%" y1="50.0044174%" x2="100%" y2="50.0044174%" id="linearGradient-3">
            <stop stop-color="#AA83EF" offset="0%"></stop>
            <stop stop-color="#46288C" offset="100%"></stop>
        </linearGradient>
    </defs>
    <g id="Page-2" stroke="none" stroke-width="1" fill="none" fill-rule="evenodd">
        <g id="verision-4-copy-2" transform="translate(-150.000000, -1560.000000)">
            <g id="Group-41" transform="translate(150.000000, 1560.000000)">
                <g id="Group-11" transform="translate(0.000000, 11.904762)">
                    <mask id="mask-2" fill="white">
                        <use xlink:href="#path-1"></use>
                    </mask>
                    <g id="Clip-10"></g>
                    <path d="M14.2869048,4.49166667 L0,0.854761905 L0,12.047619 C0,12.6261905 0.511904762,13.0952381 1.14285714,13.0952381 L27.4285714,13.0952381 C28.0595238,13.0952381 28.5714286,12.6261905 28.5714286,12.047619 L28.5714286,0.854761905 L14.2869048,4.49166667 Z M11.6464286,8.4047619 L16.9238095,8.4047619 L16.9238095,6.30952381 L11.6464286,6.30952381 L11.6464286,8.4047619 Z" id="Fill-9" fill="url(#linearGradient-3)" mask="url(#mask-2)"></path>
                </g>
                <path d="M10.052381,4.05714286 L18.5178571,4.05714286 L18.5178571,2.09404762 L10.052381,2.09404762 L10.052381,4.05714286 Z M27.4285714,4.05714286 L20.6345238,4.05714286 L20.6345238,2.09404762 C20.6345238,0.939285714 19.6845238,6.92779167e-14 18.5178571,6.92779167e-14 L10.052381,6.92779167e-14 C8.88571429,6.92779167e-14 7.93571429,0.939285714 7.93571429,2.09404762 L7.93571429,4.05714286 L1.14285714,4.05714286 C0.511904762,4.05714286 0,4.52619048 0,5.1047619 L0,11.5821429 L0,12.152381 L0,12.7607143 L14.2857143,16.3964286 L28.5714286,12.7607143 L28.5714286,12.152381 L28.5714286,11.5630952 L28.5714286,5.1047619 C28.5714286,4.52619048 28.0595238,4.05714286 27.4285714,4.05714286 Z" id="Fill-12" fill="#E6DCFF"></path>
            </g>
        </g>
    </g>
</svg>