<?xml version="1.0" encoding="UTF-8"?>
<svg width="44px" height="44px" viewBox="0 0 44 44" version="1.1" xmlns="http://www.w3.org/2000/svg" xmlns:xlink="http://www.w3.org/1999/xlink">
    <!-- Generator: Sketch 43.2 (39069) - http://www.bohemiancoding.com/sketch -->
    <title>google-analytics-3</title>
    <desc>Created with Sketch.</desc>
    <defs>
        <linearGradient x1="0%" y1="50%" x2="100%" y2="50%" id="linearGradient-1">
            <stop stop-color="#FFFFFF" stop-opacity="0.1" offset="0%"></stop>
            <stop stop-color="#FFFFFF" stop-opacity="0" offset="100%"></stop>
        </linearGradient>
        <linearGradient x1="-49.6146435%" y1="25.2403846%" x2="93.1791908%" y2="96.5%" id="linearGradient-2">
            <stop stop-color="#BF360C" stop-opacity="0.2" offset="0%"></stop>
            <stop stop-color="#BF360C" stop-opacity="0.02" offset="100%"></stop>
        </linearGradient>
        <linearGradient x1="33.5322368%" y1="33.5730263%" x2="98.2203947%" y2="98.2611842%" id="linearGradient-3">
            <stop stop-color="#FFFFFF" stop-opacity="0.1" offset="0%"></stop>
            <stop stop-color="#FFFFFF" stop-opacity="0" offset="100%"></stop>
        </linearGradient>
    </defs>
    <g id="Page-1" stroke="none" stroke-width="1" fill="none" fill-rule="evenodd">
        <g id="Desktop-HD-Copy-17" transform="translate(-600.000000, -828.000000)" fill-rule="nonzero">
            <g id="google-analytics-3" transform="translate(600.000000, 828.000000)">
                <path d="M40.2039216,0 L32.2379085,0 C30.3111111,0 28.7294118,1.57315163 28.7294118,3.48953634 L28.7294118,13.7293233 L17.1973856,13.7293233 C15.3281046,13.7293233 13.8039216,15.2452694 13.8039216,17.1330514 L13.8039216,28.6027569 L3.42222222,28.6027569 C1.52418301,28.6027569 0,30.118703 0,32.006485 L0,40.0152569 C0,41.9030388 1.52418301,43.418985 3.42222222,43.4761905 L40.2326797,43.4761905 C42.1594771,43.4761905 43.7411765,41.9030388 43.7411765,39.9866541 L43.7411765,3.48953634 C43.7124183,1.57315163 42.130719,0 40.2039216,0 Z" id="Shape" fill="url(#linearGradient-1)"></path>
                <path d="M40.2039216,0 L32.2379085,0 C30.3111111,0 28.7294118,1.57315163 28.7294118,3.48953634 L28.7294118,13.7293233 L17.1973856,13.7293233 C15.3281046,13.7293233 13.8039216,15.2452694 13.8039216,17.1330514 L13.8039216,28.6027569 L3.42222222,28.6027569 C1.52418301,28.6027569 0,30.118703 0,32.006485 L0,40.0152569 C0,41.9030388 1.52418301,43.418985 3.42222222,43.4761905 L40.2326797,43.4761905 C42.1594771,43.4761905 43.7411765,41.9030388 43.7411765,39.9866541 L43.7411765,3.48953634 C43.7124183,1.57315163 42.130719,0 40.2039216,0 Z" id="Shape" fill="url(#linearGradient-1)"></path>
                <g id="Group">
                    <path d="M40.2039216,0 L32.2954248,0 C30.3686275,0 28.7869281,1.57315163 28.7869281,3.48953634 L28.7869281,43.4761905 L40.2039216,43.4761905 C42.130719,43.4761905 43.7124183,41.9030388 43.7124183,39.9866541 L43.7124183,3.48953634 C43.7124183,1.57315163 42.130719,0 40.2039216,0 Z" id="Shape" fill="#F57C00"></path>
                    <path d="M13.8039216,17.1616541 L13.8039216,28.6027569 L3.45098039,28.6027569 C1.55294118,28.6027569 0,30.1473058 0,32.0350877 L0,40.0438596 C0,41.9316416 1.55294118,43.4761905 3.45098039,43.4761905 L28.7581699,43.4761905 L28.7581699,13.7293233 L17.254902,13.7293233 C15.3568627,13.7293233 13.8039216,15.2738722 13.8039216,17.1616541 Z" id="Shape" fill="#FFC107"></path>
                </g>
                <path d="M28.7581699,13.7293233 L28.7581699,43.4761905 L40.1751634,43.4761905 C42.1019608,43.4761905 43.6836601,41.9030388 43.6836601,39.9866541 L43.6836601,28.6027569 L28.7581699,13.7293233 Z" id="Shape" fill="url(#linearGradient-2)"></path>
                <path d="M17.254902,14.0153509 L28.7581699,14.0153509 L28.7581699,13.7293233 L17.254902,13.7293233 C15.3568627,13.7293233 13.8039216,15.2738722 13.8039216,17.1616541 L13.8039216,17.4476817 C13.8039216,15.5598997 15.3568627,14.0153509 17.254902,14.0153509 Z" id="Shape" fill="#FFFFFF" opacity="0.2"></path>
                <path d="M3.45098039,28.8887845 L13.8039216,28.8887845 L13.8039216,28.6027569 L3.45098039,28.6027569 C1.55294118,28.6027569 0,30.1473058 0,32.0350877 L0,32.3211153 C0,30.4333333 1.55294118,28.8887845 3.45098039,28.8887845 Z" id="Shape" fill="#FFFFFF" opacity="0.2"></path>
                <path d="M40.2039216,0 L32.2954248,0 C30.3686275,0 28.7869281,1.57315163 28.7869281,3.48953634 L28.7869281,3.77556391 C28.7869281,1.8591792 30.3686275,0.286027569 32.2954248,0.286027569 L40.2039216,0.286027569 C42.130719,0.286027569 43.7124183,1.8591792 43.7124183,3.77556391 L43.7124183,3.48953634 C43.7124183,1.57315163 42.130719,0 40.2039216,0 Z" id="Shape" fill="#FFFFFF" opacity="0.2"></path>
                <path d="M40.2039216,43.1901629 L3.45098039,43.1901629 C1.55294118,43.1901629 0,41.645614 0,39.7578321 L0,40.0438596 C0,41.9316416 1.55294118,43.4761905 3.45098039,43.4761905 L40.1751634,43.4761905 C42.1019608,43.4761905 43.6836601,41.9030388 43.6836601,39.9866541 L43.6836601,39.7006266 C43.7124183,41.6170113 42.130719,43.1901629 40.2039216,43.1901629 L40.2039216,43.1901629 Z" id="Shape" fill="#BF360C" opacity="0.2"></path>
                <path d="M40.2039216,0 L32.2954248,0 C30.3686275,0 28.7869281,1.57315163 28.7869281,3.48953634 L28.7869281,13.7293233 L17.2836601,13.7293233 C15.3856209,13.7293233 13.8326797,15.2738722 13.8326797,17.1616541 L13.8326797,28.6027569 L3.45098039,28.6027569 C1.55294118,28.6027569 0,30.1473058 0,32.0350877 L0,40.0438596 C0,41.9316416 1.55294118,43.4761905 3.45098039,43.4761905 L40.2039216,43.4761905 C42.130719,43.4761905 43.7124183,41.9030388 43.7124183,39.9866541 L43.7124183,3.48953634 C43.7124183,1.57315163 42.130719,0 40.2039216,0 Z" id="Shape" fill="url(#linearGradient-3)"></path>
            </g>
        </g>
    </g>
</svg>