<?xml version="1.0" encoding="UTF-8"?>
<svg width="50px" height="44px" viewBox="0 0 50 44" version="1.1" xmlns="http://www.w3.org/2000/svg" xmlns:xlink="http://www.w3.org/1999/xlink">
    <!-- Generator: Sketch 43.2 (39069) - http://www.bohemiancoding.com/sketch -->
    <title>Group Copy</title>
    <desc>Created with Sketch.</desc>
    <defs>
        <linearGradient x1="9.6442%" y1="37.113%" x2="9.6604%" y2="35.7232%" id="linearGradient-1">
            <stop stop-color="#F3F0EF" offset="0%"></stop>
            <stop stop-color="#EDDCD1" offset="100%"></stop>
        </linearGradient>
    </defs>
    <g id="Page-1" stroke="none" stroke-width="1" fill="none" fill-rule="evenodd">
        <g id="Desktop-HD-Copy-17" transform="translate(-600.000000, -523.000000)">
            <g id="Group-Copy" transform="translate(600.000000, 523.000000)">
                <path d="M48.7593194,18.3330674 C48.7593194,18.3330674 49.7046975,16.9705343 49.8517564,16.1739765 C49.9988152,15.3774187 49.9778068,14.9267347 49.5786471,14.182582 C49.4315883,13.8995943 49.0114202,13.5013154 48.2971345,13.312657 C47.8244454,13.1868847 47.3097395,13.1659227 46.8685631,12.9458212 C46.2278068,12.6313905 45.6290673,12.3064787 45.5660421,12.2750356 C45.5660421,12.2750356 44.3580589,11.1535661 42.855958,10.9963507 C42.855958,10.9963507 38.8328488,4.71821746 31.1017564,4.09983706 C31.1017564,4.09983706 20.8916723,2.52768348 14.1374706,13.2392898 C14.1374706,13.2392898 12.7614202,15.7756976 11.0597395,18.8990427 C9.30553787,22.1796032 7.05763871,23.9508962 5.7551177,24.7788971 C0.797134506,26.7598106 -0.494882301,30.7425996 0.156378203,32.5348547 C0.849655514,34.4528821 2.68789081,35.8783013 4.13747064,37.1045811 C5.55553787,38.3098988 7.0366303,39.1274187 8.63326896,40.0916729 L8.74881518,40.1650401 C16.1542774,44.0639809 25.2614202,43.8962845 31.9525967,41.0768891 C35.0198236,39.7877232 37.6353698,37.943063 39.4736051,35.6791619 C41.0177227,33.7925776 41.8475547,31.7382969 42.0891513,29.600168 L42.1101597,29.568725 C42.1101597,29.568725 43.6962942,28.4891795 44.7152017,27.2209756 C45.7656219,25.9108476 46.2173026,24.2758079 46.2173026,24.2758079 C46.8265463,23.5106932 47.2992353,22.7665405 47.6773866,22.0538309 C47.6773866,22.0538309 48.8118404,19.8318538 48.7593194,18.3330674 L48.7593194,18.3330674 Z" id="Shape" fill="#EFD4C7" fill-rule="nonzero" opacity="0.96"></path>
                <path d="M27.645874,23.0600092 C26.3013362,23.9299341 24.0744454,25.2191001 22.4147816,25.5125687 C21.8055379,25.62786 21.18579,25.7117082 20.5660421,25.7850754 C19.6626807,25.8898856 18.7593194,25.9632528 17.855958,25.9946958 C16.9631009,26.0261389 16.0702437,25.9842148 15.1773866,26.0051769 C12.2362101,26.078544 7.53032778,25.0514037 4.65217652,26.1414302 C2.14167232,27.0952033 -0.410848687,31.1303975 1.4063782,32.671108 C3.80133619,34.7044266 8.48621014,33.6039191 9.95679837,33.2056402 C23.9063782,28.9608256 30.1038572,21.22583 30.1038572,21.22583 C30.1038572,21.22583 28.9904118,22.1796032 27.645874,23.0600092 L27.645874,23.0600092 Z" id="Shape" fill="#D6BCB2" fill-rule="nonzero" opacity="0.96"></path>
                <path d="M48.7593194,18.3330674 C48.8013362,19.465018 48.0555379,21.246792 48.0555379,21.246792 C48.2131009,20.8485131 48.1500757,20.1882086 48.1605799,19.7584867 C48.1815883,18.4169156 47.908479,17.0858256 47.488311,15.8281027 C47.0996555,14.6751901 46.6374706,13.4069862 45.7761261,12.5160992 C45.7236051,12.4636941 45.4820085,12.1597444 45.3979748,12.1597444 C45.3979748,12.1597444 47.8244454,13.4698724 48.7698236,18.3645105" id="Shape" fill="#D6BCB2" fill-rule="nonzero" opacity="0.96"></path>
                <path d="M45.1878908,26.5711522 C45.5765463,25.8794046 46.0702437,25.1247709 46.2278068,24.2024408 C46.4588992,22.7875025 46.2173026,21.1419818 46.0387311,19.9681071 C45.0513362,13.6270877 42.7088992,8.3865758 35.1668824,5.03264818 C34.0849496,4.55052108 32.8664622,4.19416627 31.6689832,4.14176115 L31.553437,4.62388825 C32.5303278,4.66581234 33.5912522,4.94879999 34.5156219,5.2632307 C36.395874,5.91305418 38.4757059,7.20222011 39.9252858,8.55427219 C42.0366303,10.5247047 43.3916723,13.302176 44.2110001,16.2892678 C45.0513362,19.3706888 45.3139412,22.6826923 45.250916,25.5859359 C45.2088992,25.9213287 45.198395,26.2567214 45.1878908,26.5711522 L45.1878908,26.5711522 Z" id="Shape" fill="#D6BCB2" fill-rule="nonzero" opacity="0.96"></path>
                <path d="M30.4715043,20.9009183 C24.9988152,9.92728631 18.9799076,2.20277174 18.9799076,2.20277174 C18.2236051,1.37477086 17.7824286,1.437657 17.7824286,1.437657 C17.7824286,1.437657 17.6353698,1.44813803 17.2572185,1.51102417 L16.9946135,1.57391031 C13.3601597,2.69537986 11.18579,4.73917951 10.2614202,5.65102858 C9.99881518,5.91305418 9.86226056,6.07026954 9.86226056,6.07026954 C9.86226056,6.07026954 9.5366303,6.38470025 9.76772274,7.48520776 C9.76772274,7.48520776 9.84125215,7.73675233 10.0093194,8.23984147 C10.4715043,9.62333662 11.0072185,10.9753887 11.5849496,12.3169597 C12.6248656,14.7590383 13.7593194,17.1696738 14.988311,19.5279041 C16.8055379,23.007604 18.0345295,25.2819862 20.093353,28.6149518 M30.4715043,20.9009183 C24.9988152,9.92728631 18.9799076,2.20277174 18.9799076,2.20277174 C18.2236051,1.37477086 17.7824286,1.437657 17.7824286,1.437657 C17.7824286,1.437657 17.6353698,1.44813803 17.2572185,1.51102417 L16.9946135,1.57391031 C13.3601597,2.69537986 11.18579,4.73917951 10.2614202,5.65102858 C9.99881518,5.91305418 9.86226056,6.07026954 9.86226056,6.07026954 C9.86226056,6.07026954 9.5366303,6.38470025 9.76772274,7.48520776 C9.76772274,7.48520776 9.84125215,7.73675233 10.0093194,8.23984147 C10.4715043,9.62333662 11.0072185,10.9753887 11.5849496,12.3169597 C12.6248656,14.7590383 13.7593194,17.1696738 14.988311,19.5279041 C16.8055379,23.007604 18.0345295,25.2819862 20.093353,28.6149518" id="Shape"></path>
                <path d="M31.5324286,20.4187912 C33.8853698,18.0186367 34.5576387,14.8638485 34.5576387,14.8638485 C33.7488152,16.3416729 32.1941933,17.693725 31.3223446,18.3225864 L31.5324286,20.4187912 Z" id="Shape" fill="#D6BCB2" fill-rule="nonzero" opacity="0.96"></path>
                <path d="M12.4567984,14.3293163 C12.1731849,14.2245061 11.8055379,14.0987338 11.500916,14.0044046 C12.3937732,16.0167612 13.3391513,17.9976747 14.3580589,19.9471451 C16.1542774,23.3954019 17.3727648,25.6593031 19.4000757,28.9503446 L20.0723446,28.5939897 C16.1227648,22.2215273 14.0429328,17.6203578 12.4567984,14.3293163 Z" id="Shape" fill="#D1749E" fill-rule="nonzero"></path>
                <path d="M25.4399916,25.0828468 C28.2341093,22.976161 30.4820085,20.9113993 30.4820085,20.9113993 C24.9988152,9.92728631 18.9799076,2.20277174 18.9799076,2.20277174 C18.2236051,1.37477086 17.7824286,1.437657 17.7824286,1.437657 C17.7824286,1.437657 17.6353698,1.44813803 17.2572185,1.51102417 L16.9946135,1.57391031 C13.3601597,2.69537986 11.18579,4.73917951 10.2614202,5.65102858 C9.99881518,5.91305418 9.86226056,6.07026954 9.86226056,6.07026954 C9.86226056,6.07026954 9.5366303,6.38470025 9.76772274,7.48520776 C9.76772274,7.48520776 9.84125215,7.73675233 10.0093194,8.23984147 C10.4715043,9.62333662 11.0072185,10.9753887 11.5849496,12.3169597 C12.6248656,14.7590383 13.7593194,17.1696738 14.988311,19.5279041 C16.8055379,23.007604 18.0345295,25.2819862 20.093353,28.6149518 C20.0828488,28.6149518 23.4757059,26.6445193 25.4399916,25.0828468 Z" id="Shape" fill="#4BC6E7" fill-rule="nonzero"></path>
                <path d="M34.6626807,15.0210639 C44.4105799,25.3972775 43.8118404,41.2131424 20.1143614,43.1416508 C31.9841093,43.5189677 40.1143614,37.1465052 41.5639412,31.9583984 C43.6017564,24.6531248 37.2887311,17.1487117 34.6626807,15.0210639 Z" id="Shape" fill="#D6BCB2" fill-rule="nonzero" opacity="0.96"></path>
                <path d="M8.73831098,22.3997047 C6.83705047,24.5692766 4.93578997,25.1457329 4.93578997,25.1457329 C3.09755467,22.997123 1.49041182,21.0057285 1.82654627,18.8047135 C2.35175635,15.4612669 5.70259669,14.9896208 5.70259669,14.9896208 C7.08915131,13.8052651 7.42528577,14.5389368 7.42528577,14.5389368 C19.2635211,16.6980277 8.73831098,22.3997047 8.73831098,22.3997047 Z" id="Shape" fill="#C15988" fill-rule="nonzero"></path>
                <path d="M11.500916,14.0044046 C10.1773866,13.5851636 8.69629417,13.2497709 7.40427736,12.9877453 C5.29293283,12.5475423 3.47570593,14.1092148 2.16268072,16.8971672 C1.64797484,17.9871936 1.49041182,18.9619288 1.65847904,20.0624364 C1.76352106,20.785627 2.33074795,21.7289191 2.89797484,22.546439 C1.87906728,20.9638044 1.3748656,19.5069421 3.04503367,19.7689677 C3.04503367,19.7689677 8.29713451,20.775146 17.6248656,29.9145988 L19.3895715,28.9608256 C17.3622606,25.6697841 16.1437732,23.405883 14.3475547,19.9576261 C13.3391513,17.9976747 12.383269,16.0062801 11.500916,14.0044046 Z" id="Shape" fill="#F180AF" fill-rule="nonzero"></path>
                <path d="M35.2088992,5.02216715 C35.2088992,5.02216715 34.0219244,4.58196415 33.3916723,4.44571084 C32.7614202,4.30945753 31.6479748,4.14176115 31.6479748,4.14176115 C30.9336891,6.73057404 30.5240253,11.4679968 31.5324286,20.4187912 C31.5324286,20.4187912 27.3097395,24.1395546 22.0261261,27.4305961 C22.0261261,27.4305961 20.0723446,13.5432395 24.93579,3.9006976 C24.93579,3.9006976 26.0492353,1.42717598 28.0660421,0.504845884 C28.0660421,0.504845884 33.8118404,-1.49702967 34.9988152,3.0202916 C35.3139412,4.23609037 35.3454538,5.07457227 35.3454538,5.07457227 L35.2088992,5.02216715 L35.2088992,5.02216715 Z" id="Shape" fill="#85D3E0" fill-rule="nonzero"></path>
                <path d="M22.8979748,7.77867642 C19.9042774,16.9495723 21.4273866,27.7764699 21.4273866,27.7764699 C22.908479,26.8541398 24.3055379,25.9003666 25.5450337,24.9989986 C28.2971345,22.9237559 30.4820085,20.9009183 30.4820085,20.9009183 C27.8349496,15.5975202 25.0618404,11.0592369 22.8979748,7.77867642 Z" id="Shape" fill="#46B9D3" fill-rule="nonzero"></path>
                <path d="M35.3874706,5.09553432 C35.3874706,5.09553432 35.355958,4.17320422 35.0303278,2.95740546 C33.843353,-1.55991581 28.0975547,0.441959741 28.0975547,0.441959741 C26.080748,1.36428984 24.9673026,3.83781146 24.9673026,3.83781146 C20.1038572,13.4803534 22.0576387,27.36771 22.0576387,27.36771 C27.3412522,24.0766685 31.5429328,20.355905 31.5429328,20.355905 C29.5156219,2.45431632 32.9715043,0.819276599 34.0324286,1.4795811 C35.093353,2.1398856 35.2614202,5.0431292 35.2614202,5.0431292 L35.3874706,5.09553432 Z" id="Shape" fill="#98E6F9" fill-rule="nonzero"></path>
            </g>
        </g>
    </g>
</svg>