<?xml version="1.0" encoding="UTF-8"?>
<svg width="76px" height="80px" viewBox="0 0 76 80" version="1.1" xmlns="http://www.w3.org/2000/svg" xmlns:xlink="http://www.w3.org/1999/xlink">
    <!-- Generator: Sketch 43.2 (39069) - http://www.bohemiancoding.com/sketch -->
    <title>logo-freddie-fullcolor</title>
    <desc>Created with Sketch.</desc>
    <defs></defs>
    <g id="Page-1" stroke="none" stroke-width="1" fill="none" fill-rule="evenodd">
        <g id="Desktop-HD-Copy-17" transform="translate(-482.000000, -692.000000)" fill-rule="nonzero">
            <g id="logo-freddie-fullcolor" transform="translate(482.000000, 692.000000)">
                <path d="M74.8023613,56.8189412 C74.7404118,57.0215546 68.8872941,79.5193109 45.8899496,79.5124454 C26.0102017,79.5065378 16.587479,62.2267563 16.587479,62.2267563 C15.1385294,62.3075462 13.7405126,62.0774706 12.4512269,61.6037479 C6.61870588,59.4608992 3.82027731,52.7883866 5.83252101,47.1902521 L2.62694958,44.7405294 C-9.79042857,35.2812437 25.3857563,-8.00458824 37.8246891,1.7899916 C37.8875966,1.83948739 40.7941176,4.17888235 40.7941176,4.17888235 C45.2602353,1.46667227 49.6834034,0.000478991597 53.2790336,0.000319327731 C55.8323782,0.000159663866 57.9678824,0.739243697 59.4059748,2.29644538 C62.6345378,5.79212605 61.4741008,12.4675126 57.0656218,19.2259244 C58.0138655,20.1261092 58.7997311,21.3496134 59.3606303,22.5641765 C60.7621597,23.6457395 61.6706471,25.2896387 62.1220168,27.5603782 C62.6246387,30.0851429 62.7288992,33.6814118 63.044395,35.2266387 C64.2332521,35.7632689 63.7267983,35.5149916 64.9943697,36.1480588 C66.3160672,36.8085882 67.925479,37.6129748 69.7041345,39.3244118 C72.8656387,40.1165042 74.0728571,43.4777479 72.2229916,45.7717983 C72.1733361,45.8334286 71.9499664,46.0979916 71.7187731,46.3612773 C71.7740168,46.5068908 72.3804202,47.4894622 72.8178992,49.4894118 C74.1279412,49.7988403 75.1715042,50.6054622 75.7191513,51.775 C76.6662773,54.0644202 74.8026807,56.8187815 74.8026807,56.8187815 L74.8023613,56.8189412 Z M65.6858739,73.8094118 L65.6858739,74.7511092 L66.046395,74.7511092 L66.046395,73.8094118 L66.4152185,73.8094118 L66.4152185,73.5122773 L65.3216807,73.5122773 L65.3216807,73.8094118 L65.6858739,73.8094118 Z M66.5257059,73.5122773 L66.5257059,74.7511092 L66.8546134,74.7511092 L66.8546134,73.8566723 L67.1233277,74.7511092 L67.4038571,74.7511092 L67.6725714,73.8542773 L67.6725714,74.7511092 L68.001479,74.7511092 L68.001479,73.5122773 L67.4872017,73.5122773 L67.2651092,74.2251765 L67.0398235,73.5122773 L66.5258655,73.5122773 L66.5257059,73.5122773 Z" id="Brown" fill="#684C46"></path>
                <path d="M21.2787227,48.353084 C21.7795882,47.080084 22.0320168,46.0352437 22.0320168,46.0352437 C22.6053697,47.7880336 22.8986723,49.6315126 22.7835546,51.4949496 C23.2588739,50.862521 23.7691597,49.6714286 23.7691597,49.6714286 C24.6533782,54.8767899 20.8548151,59.6416387 15.8501513,59.6416387 C11.4068655,59.6416387 7.8050084,55.8497815 7.8050084,51.1722689 C7.8050084,46.4947563 11.4068655,42.7028992 15.8501513,42.7028992 C17.0019664,42.7028992 18.0972605,42.9577227 19.0878151,43.4167563 C19.0878151,43.4165966 20.7978151,44.2789412 21.2787227,48.3532437 L21.2787227,48.353084 Z M65.0571176,66.7088403 C71.2937479,61.808437 72.3834538,55.9066218 72.487395,55.7032101 C74.0219244,53.862605 73.6047227,52.0493025 71.5774706,52.0491429 C70.9324286,52.0491429 70.4451345,52.2193445 70.4451345,52.2193445 C70.4451345,52.2193445 70.4526387,49.533479 69.2102941,47.4417227 C68.2526303,48.5188151 65.5942269,50.652563 62.1058908,52.3085966 C58.8348571,53.8614874 54.4699664,55.2216639 49.0608739,55.4017647 L49.0607143,55.4017647 C47.5461429,55.4675462 46.6092353,55.2210252 46.0817059,56.9867479 C45.9132605,57.6105546 45.9860672,58.5374034 46.1128403,58.8051597 C46.5396218,60.2676807 47.6542353,60.9122437 49.1217059,61.253605 C50.2344034,61.5127395 51.4160756,61.5371681 51.4160756,61.5371681 C62.3861008,61.8448403 71.194916,53.2890924 71.3002941,53.2178824 C71.4021597,53.1343782 71.4864622,53.0355462 71.4864622,53.0355462 C71.4864622,53.0355462 71.3897059,53.2624286 71.3780504,53.2881345 C69.7937059,56.8513529 60.6195798,63.3131092 51.488084,63.1280588 L51.4582269,63.1385966 C49.3404454,63.1306134 46.7673025,62.585521 45.4297983,60.9267731 C43.3134538,58.3023782 44.4117815,53.938605 47.7848403,53.8362605 C47.7891513,53.8361008 48.5646387,53.8182185 48.9098319,53.809437 C57.2616891,53.5528571 64.7555126,50.4842773 70.1213361,44.0766471 C70.8591429,43.1601765 70.034958,41.9010672 68.4359244,41.8627479 C68.4220336,41.8624286 68.4083025,41.8563613 68.3988824,41.8461429 C66.5028739,39.8163361 64.8364622,39.0991261 63.3536639,38.3455126 C60.2453277,36.7621261 60.5378319,38.1298067 59.8148739,30.4491765 C59.6192857,28.3784958 59.2271513,25.554521 57.4079412,24.4718403 C56.9310252,24.187958 56.4098824,24.0661345 55.8689412,24.0661345 C55.3342269,24.0661345 55.0736555,24.1753445 54.9685966,24.1986555 C53.9722941,24.4194706 53.4056471,24.9842017 52.6959412,25.6386639 C49.342042,28.7315126 46.6612857,27.8918403 42.6601092,27.856395 C38.9022605,27.8235042 35.5844454,30.4448655 34.9497815,34.4704706 L34.9488235,34.4727059 C34.6403529,36.5799496 34.8399328,38.721042 35.1702773,39.6834958 C35.1702773,39.6834958 34.1503445,39.005084 33.6643277,38.4044286 C34.2526891,42.0819664 37.6077059,44.4855462 37.6077059,44.4855462 C37.0792185,44.6070504 36.3190588,44.5565966 36.3190588,44.5565966 C36.3222521,44.5593109 38.2340672,46.0713277 39.8934538,46.5988571 C39.4612437,46.8678908 37.2740084,49.0262269 36.1459832,51.9974118 C35.0904454,54.777958 35.5204202,58.1160504 35.5204202,58.1160504 L36.4370504,56.7494874 C36.4370504,56.7494874 35.8383109,59.7950756 36.9971513,62.7445462 C37.3816218,61.8671933 38.2216134,60.3008908 38.2216134,60.3008908 C38.2216134,60.3008908 38.0884538,63.571605 39.6630588,66.2496471 C39.7036134,65.6315882 39.9397563,64.0581008 39.9397563,64.0581008 C39.9397563,64.0581008 40.8432941,66.8503025 42.9305798,68.8026723 C46.8378739,72.2699328 57.1836134,72.8962941 65.0575966,66.7088403 L65.0571176,66.7088403 Z" id="Light-Tan" fill="#F5DCBA"></path>
                <path d="M7.03702521,44.8072689 C7.00541176,44.7988067 4.00963866,42.600395 3.58365546,41.876479 C1.06320168,37.6230336 5.44821008,28.8868655 8.56852101,23.921 C16.2801261,11.6481176 29.1156639,1.9627479 34.9454706,3.34591597 L40.9322269,6.43621008 C38.6076807,7.80357143 36.3594538,9.48307563 35.0125294,10.5999244 L33.7387311,11.668395 C33.7387311,11.668395 30.018563,14.1728824 28.1682185,15.751958 C20.7511933,22.0808739 13.4483277,31.8784874 10.7401092,41.3358571 C10.7401092,41.3355378 8.51503361,42.4400924 7.03686555,44.8072689 L7.03702521,44.8072689 Z" id="Blue" fill="#0788BF"></path>
                <path d="M34.9456303,3.3457563 C29.1156639,1.96258824 16.2801261,11.647958 8.56868067,23.9208403 L8.56197479,23.9315378 L8.59310924,23.9348908 L14.7377731,28.7723866 C21.4845294,18.0629328 29.9641176,12.5407983 30.2032941,12.3784202 L29.2290252,5.8237395 L31.0541429,4.94989916 L34.7169916,6.13604202 L34.4367815,4.91237815 L34.9456303,3.3457563 L34.9456303,3.3457563 Z" id="Light-Blue" fill="#46B8E3"></path>
                <path d="M40.9323866,6.43605042 L35.0126891,10.5997647 L34.598521,10.9237227 L29.3492521,6.6349916 L29.2287059,5.82389916 L31.0538235,4.95005882 L34.7166723,6.13620168 L34.7776639,3.86210924 L34.9453109,3.34591597 L36.5486555,2.73136975 C36.5508908,2.73312605 40.926,6.43062185 40.9322269,6.43589076 L40.9323866,6.43605042 Z" id="Gold" fill="#FFD14F"></path>
                <g id="Navy" transform="translate(10.697479, 2.235294)" fill="#122030">
                    <path d="M41.9162353,0.117193277 C38.001437,0.117193277 33.6063697,2.17605882 30.2347479,4.20059664 C29.7618235,4.47889076 29.2925714,4.77011765 28.8327395,5.06693277 L27.0686134,3.58812605 L27.7095042,5.81495798 C27.4672941,5.98132773 27.2306723,6.14721849 26.9993193,6.31215126 L23.3541933,5.19913445 L25.7660756,7.21808403 C25.215395,7.63544538 24.7234706,8.02614286 24.3153697,8.36463025 L18.5313866,3.58876471 L18.8374622,5.72921849 L23.0414118,9.43310084 C23.0414118,9.43310084 19.3212437,11.9375882 17.4708992,13.5166639 C10.0538739,19.8455798 2.7510084,29.6431933 0.042789916,39.100563 L0.196705882,39.0140252 L0.259613445,38.9812941 C0.33497479,38.9405798 0.410176471,38.9021008 0.485537815,38.8641008 L0.630193277,38.7919328 C0.707789916,38.7547311 0.785226891,38.7202437 0.862823529,38.685916 L1.00029412,38.6254034 C1.08427731,38.5902773 1.16810084,38.5581849 1.2522437,38.5264118 L1.36863866,38.4818655 C1.49094118,38.437958 1.61292437,38.397563 1.73426891,38.3613193 C3.57551261,37.8120756 6.08047899,37.4588992 9.01286555,38.7041176 C10.485605,34.9898571 12.2447815,31.2109328 15.0173445,27.5798571 C17.2654118,24.6356555 19.4263025,22.0072689 22.020042,20.5616723 C26.9309832,15.9483445 40.1672773,11.0564034 44.4077899,15.2967563 C45.410479,13.6563697 46.2806471,12.1037983 46.9975378,10.1571765 C48.7669328,5.47631092 48.7993445,0.117033613 41.916395,0.117033613 L41.9162353,0.117193277 Z M25.1136891,4.25504202 L24.2481513,1.11046218 L23.7391429,2.67708403 L24.0437815,3.90857143 L25.1136891,4.25504202 Z" id="Shape"></path>
                </g>
                <path d="M70.4452941,52.2163109 C70.4452941,52.2163109 70.4527983,49.5304454 69.2104538,47.4386891 C68.2527899,48.5157815 65.5943866,50.6495294 62.1060504,52.305563 C58.8350168,53.8584538 54.4701261,55.2186303 49.0610336,55.3987311 L49.0608739,55.3987311 C47.5463025,55.4645126 46.609395,55.2179916 46.0818655,56.9837143 C46.0406723,57.1358739 46.0140084,57.306395 45.9988403,57.4807479 L45.9982017,57.4986303 L45.997563,57.4984706 C45.9929328,57.5548319 45.9895798,57.6113529 45.9871849,57.6678739 C45.981916,57.8292941 45.9836723,57.971395 45.9898992,58.0954538 L45.9903782,58.104395 L45.9919748,58.1313782 C45.9967647,58.2089748 46.0033109,58.2833782 46.0114538,58.3533109 L46.0125714,58.3638487 L46.0140084,58.3748655 C46.0497731,58.655395 46.1053361,58.785521 46.1122017,58.8005294 L46.1128403,58.8022857 L46.1198655,58.8257563 C46.5517563,60.2715126 47.6622185,60.9112857 49.1217059,61.2507311 C50.2344034,61.5098655 51.4162353,61.5342941 51.4162353,61.5342941 C60.3668319,61.7852857 67.8788571,56.1357395 70.3983529,54.0086975 C70.4414622,53.4125126 70.4668487,52.9873277 70.4454538,52.2164706 L70.4452941,52.2163109 Z M44.7322269,4.40464706 C46.8704454,3.41888235 49.1622605,2.63988235 51.3601933,2.41539496 C49.1771092,2.90652101 46.5169496,4.03837815 43.3653445,5.96711765 C43.2885462,6.0115042 35.907605,10.9930168 31.3982185,15.466 C28.9408319,17.9035882 19.0726471,29.7370756 19.0804706,29.7270168 C20.8838739,26.3138824 22.0720924,24.6385294 24.9272017,21.0478487 C26.5418824,19.017084 28.2649748,17.0422017 30.0287815,15.2186807 C30.6216134,14.6057311 31.2192353,14.0100252 31.8187731,13.4347563 C32.0474118,13.2155378 37.2040756,7.93513445 44.7322269,4.40464706 L44.7322269,4.40464706 Z" id="White" fill="#FFFFFF"></path>
                <path d="M65.0571176,66.7086807 C63.9864118,67.5499496 62.8703613,68.2649244 61.7308403,68.8641429 C59.0955882,67.8625714 57.4785126,65.7286639 57.4785126,65.7286639 C57.4785126,65.7286639 59.7377563,65.1944286 62.7577983,63.6586218 C66.4308655,61.7921513 69.863479,59.0957479 72.4877143,55.7028908 C72.3836134,55.9063025 71.2939076,61.8082773 65.0572773,66.7086807 L65.0571176,66.7086807 Z M57.8850168,38.2596134 C56.6102605,37.353042 54.4991849,38.074563 54.033605,39.5747647 C54.7712521,39.6119664 55.5539244,40.1699916 55.5055462,40.8840084 C56.0263697,40.3799496 56.7668908,40.0954286 57.4872941,40.1086807 C57.1398655,39.5514538 57.3153361,38.590916 57.8848571,38.2596134 L57.8850168,38.2596134 Z M44.5109328,56.5671513 C44.9124874,55.0726975 46.0465798,53.8887899 47.784521,53.8361008 C47.7888319,53.8359412 48.5643193,53.8180588 48.9095126,53.8092773 C57.2613697,53.5526975 64.7551933,50.4841176 70.1210168,44.0764874 C70.8588235,43.1600168 70.0346387,41.9009076 68.435605,41.8625882 L68.4127731,41.8625882 C68.1423025,42.1485462 68.0939244,42.6708067 67.6465462,43.4512437 C66.0144622,46.2867143 63.7571345,47.5831849 60.7469916,49.0876975 C51.5182605,53.6823445 46.7324958,51.5444454 44.8117395,54.3574034 C44.2535546,55.1852605 44.2430168,56.1100336 44.5109328,56.5669916 L44.5109328,56.5671513 Z M61.2096975,37.2973193 C60.3270756,36.6639328 60.2956218,35.5592185 59.814395,30.4490168 C59.660479,28.8191681 59.3844202,26.7227815 58.387,25.3760168 C58.1807143,25.1957563 57.8907647,24.9888319 57.473084,24.9888319 C56.8428908,24.9608908 56.1306303,25.613916 55.727,26.0600168 C54.5809328,27.7141345 53.485958,28.7794118 51.5492353,29.7025882 C49.589042,30.5896807 47.7264034,30.911563 45.7925546,30.8504118 C44.3769748,30.8057059 43.1373445,30.572437 41.9221429,30.5571092 C39.670563,30.5218235 37.7189916,31.2516471 36.2967059,33.0477059 C35.3213193,34.2793529 34.9298235,35.5814118 34.8049664,37.1312689 C34.8097563,37.3180756 34.8180588,37.4941849 34.8287563,37.6600756 C34.845521,37.9062773 34.8680336,38.1414622 34.8953361,38.361958 C34.9946471,39.1473445 35.1362689,39.5548067 35.1362689,39.5548067 L35.1335546,39.5725294 L35.169479,39.6834958 C35.169479,39.6834958 34.1495462,39.005084 33.6635294,38.4044286 C34.1540168,41.4701345 36.5670168,43.6505042 37.356395,44.2910756 L37.4940252,44.3978908 L37.5042437,44.4082689 L37.6069076,44.4857059 C37.0784202,44.6072101 36.3182605,44.5567563 36.3182605,44.5567563 C36.3214538,44.5594706 38.2332689,46.0714874 39.8928151,46.5990168 C42.0942605,44.7386134 44.5902857,44.024437 46.6392521,43.8028235 C47.8811176,43.0322857 49.2163866,42.2751597 50.6501681,41.5451765 C50.216042,38.8415882 52.6135546,36.1193193 55.630563,35.8577899 C57.9070504,35.6918992 59.014479,36.7124706 59.812,37.8036134 C60.2448487,37.6655042 60.7329412,37.5144622 61.2783529,37.354 C61.2553613,37.3386723 61.2323697,37.3198319 61.2101765,37.2976387 L61.2096975,37.2973193 Z M62.2987647,55.5053866 C62.2757731,55.5058655 62.2519832,55.5109748 62.2141429,55.519437 C61.3045378,55.7301933 51.9262017,59.3631849 45.997563,57.5010252 C45.9710588,57.8253025 45.979521,58.5070672 46.1123613,58.8032437 L46.113,58.805 C47.0098319,58.9847815 48.1448824,59.0997395 49.4622689,59.0997395 C57.2637647,59.0997395 62.8860084,55.5526471 62.2987647,55.5053866 L62.2987647,55.5053866 Z M18.6530504,54.777 L18.6597563,54.7723697 C19.1347563,54.2617647 19.3341765,53.5483866 19.2211345,52.8659832 C19.0458235,51.8842101 17.9332857,51.6859076 17.1977143,50.9233529 L17.1630672,50.8866303 L17.1268235,50.8460756 L17.1244286,50.8433613 C16.7939244,50.4627227 16.6788067,50.0298739 16.7056303,49.6436471 C16.7637479,48.6393613 17.6556303,48.3570756 18.1197731,48.5419664 C18.1197731,48.5419664 18.6702941,48.6722521 19.0967563,49.267 L19.096437,49.264605 C19.0316134,49.0683782 19.0448655,48.7512857 18.7111681,48.2788403 C18.1643193,47.5041513 16.9084034,46.7162101 15.1278319,47.0934958 L15.1281513,47.0934958 C14.799084,47.1632689 14.9834958,47.1236723 14.6587395,47.2151597 C14.6081261,47.2293697 14.5618235,47.2435798 14.5219076,47.2601849 C14.4198824,47.3079244 14.325521,47.3408151 14.2349916,47.3888739 C14.1880504,47.4150588 13.9204538,47.5364034 13.5985714,47.7789328 C11.5971849,50.3624538 14.9868487,55.0474706 18.6530504,54.777 L18.6530504,54.777 Z" id="Medium-Tan" fill="#EABE8D"></path>
                <path d="M48.1616471,38.8762353 C48.3305714,39.1232353 48.3757563,39.3097227 48.3075798,39.3873193 C48.1715462,39.5463445 47.6852101,39.3315966 46.9673613,39.0518655 C45.1297899,38.3662689 43.776,38.2618487 41.3797647,39.1690588 C40.7738403,39.4002521 40.3441849,39.5787563 40.1380588,39.5479412 C39.8019664,39.4979664 40.1273613,38.8827815 40.8619748,38.285958 C42.3398235,37.107 44.3694706,36.7412101 46.1038992,37.3865714 C46.8631008,37.6659832 47.7157059,38.2236891 48.1618067,38.8760756 L48.1616471,38.8762353 Z M47.7974538,40.7557983 C47.2937143,40.3710084 46.3660672,40.1131513 45.4029748,40.2766471 C45.201,40.3074622 45.0141933,40.3700504 44.8304202,40.4193866 C44.763042,40.4359916 44.6985378,40.4599412 44.6357899,40.4862857 C44.2375882,40.6539328 43.8928739,40.8348319 43.5583782,41.155437 C43.1747059,41.5263361 43.0656555,41.8707311 43.1766218,41.9555126 C43.2856723,42.0425294 43.5513529,41.9136807 43.9618487,41.7476303 C45.3370336,41.1758739 46.3101849,41.1607059 47.2375126,41.2253697 C47.6845714,41.2555462 47.9839412,41.2823697 48.053395,41.1605462 C48.1024118,41.0778403 48.013479,40.9207311 47.7974538,40.755958 L47.7974538,40.7557983 Z M18.182042,47.8091092 L18.1823613,47.8094286 L18.1828403,47.8097479 C18.408605,47.9892101 18.5816807,48.1806471 18.7106891,48.3636218 C19.1336387,48.962521 18.9992017,49.3118655 19.1725966,49.4817479 C19.2351849,49.5432185 19.3245966,49.5625378 19.4140084,49.5261345 C19.6538235,49.4271429 19.7716555,49.0457059 19.7941681,48.7795462 L19.7943277,48.7777899 C19.854521,48.1378571 19.5161933,47.4185714 19.0680168,46.9087647 L19.0668992,46.9073277 C18.7925966,46.5886387 18.431437,46.2916639 18.0019412,46.0523277 C17.5716471,45.8126723 17.0725378,45.6309748 16.5234538,45.5460336 C15.5748908,45.3983445 14.6419748,45.5873866 14.3814034,45.6651429 L14.3828403,45.6648235 C14.2484034,45.7037815 14.0825126,45.7387479 13.9397731,45.7947899 C12.3927899,46.398 11.3747731,47.5055882 10.9218067,48.9722605 L10.9216471,48.9727395 L10.9214874,48.9733782 C10.754,49.5317227 10.6872605,50.0709076 10.6872605,50.5688992 C10.6872605,50.9982353 10.7367563,51.3972353 10.8140336,51.7528067 L10.8140336,51.7531261 L10.8141933,51.753605 L10.8140336,51.7531261 C10.944958,52.3512269 11.2127143,53.0250084 11.630395,53.4671176 L11.6318319,53.4685546 C12.1540924,54.0329664 12.7266471,53.9250336 12.4822017,53.3998992 C12.4239244,53.2544454 12.1084286,52.6598571 12.0657983,51.5837227 C12.0381765,50.8794454 12.1347731,50.1464286 12.3934286,49.477437 C12.5364874,49.115479 12.7325546,48.7634202 12.9876975,48.4469664 C13.5134706,47.8036807 14.1594706,47.5158067 14.2349916,47.4738151 C14.325521,47.4257563 14.4198824,47.3928655 14.5219076,47.3451261 C14.5616639,47.328521 14.6079664,47.3143109 14.6587395,47.3001008 C14.9833361,47.2086134 14.7992437,47.2482101 15.1281513,47.178437 L15.1278319,47.178437 C16.3657059,46.9159496 17.4308235,47.2028655 18.1823613,47.8091092 L18.182042,47.8091092 Z M17.917958,50.1991176 C17.746958,50.0637227 17.667605,49.9481261 17.6205042,49.7702605 C17.5505714,49.4461429 17.5869748,49.2578992 17.8639916,49.0632689 C18.0773025,48.9171765 18.2491008,48.8467647 18.2495798,48.754958 C18.2593193,48.5812437 17.5456218,48.4024202 17.0468319,48.8935462 C16.6325042,49.3348571 16.5017395,50.2548403 17.1625882,50.9718908 C17.8983193,51.7657395 19.0424706,51.9530252 19.2206555,52.9512437 C19.2441261,53.0927059 19.2615294,53.2502941 19.2492353,53.4056471 C19.2517899,53.5841513 19.1920756,53.8410504 19.1892017,53.8571765 C18.9679076,54.8213866 18.0528739,55.7413697 16.5440504,55.5069832 C16.2660756,55.4664286 16.0859748,55.4322605 16.0323277,55.5092185 C15.9159328,55.6711176 16.5625714,56.411 17.7463193,56.3840168 C18.904521,56.3595882 20.0536218,55.4922941 20.4218067,54.188958 C20.4261176,54.1718739 20.5346891,53.8025714 20.5437899,53.4714286 C20.5645462,53.2261849 20.5468235,52.973916 20.5011597,52.7099916 C20.199395,51.036395 18.5364958,50.692479 17.9181176,50.1991176 L17.917958,50.1991176 Z M58.2822605,38.2508319 C57.8246639,38.1794622 57.3742521,38.6301933 57.2762185,39.2579916 C57.1781849,39.8856303 57.4698908,40.4522773 57.9276471,40.5236471 C58.3852437,40.5950168 58.8356555,40.1442857 58.9336891,39.5164874 C59.0317227,38.8888487 58.7400168,38.3222017 58.2822605,38.2508319 Z M53.2534874,40.0816975 C53.0020168,40.5407311 53.3082521,41.1926387 53.9378067,41.5375126 C54.5672017,41.8823866 55.2815378,41.7901008 55.5331681,41.3309076 C55.7846387,40.8718739 55.4784034,40.2199664 54.8488487,39.8750924 C54.2192941,39.5302185 53.5051176,39.6226639 53.2534874,40.0816975 L53.2534874,40.0816975 Z M34.828916,21.5124706 C43.489563,15.8991681 52.1403109,15.2536471 55.1043109,17.5325294 L55.1047899,17.5317311 C55.0993613,17.5167227 55.0517815,17.3853193 55.0332605,17.3492353 C54.280605,15.7502017 52.5247815,14.6346303 50.9607143,14.1872521 C51.2350168,14.4722521 51.6319412,14.9940336 51.792563,15.3041008 C50.6120084,14.4933277 49.0434706,13.7791513 47.4062773,13.4398655 C47.4062773,13.4398655 47.6013866,13.5800504 47.6347563,13.6111849 C47.9611092,13.9151849 48.395395,14.3954538 48.5731008,14.8078655 C47.008395,14.1795882 45.030479,13.8275294 43.337084,14.153563 C43.3134538,14.1581933 43.1255294,14.2025798 43.1255294,14.2025798 C43.1255294,14.2025798 43.3458655,14.2573445 43.3948824,14.2720336 C43.9564202,14.438563 44.7576134,14.7807227 45.1107899,15.2496555 C42.3000672,14.7551765 39.2081765,15.3023445 37.5404874,16.2349412 C37.754916,16.226 37.7528403,16.225042 37.9342185,16.2298319 C38.5476471,16.2461176 39.7834454,16.3294622 40.3023529,16.6596471 C38.5294454,17.0201681 35.9638067,17.8132185 34.5825546,19.0011176 C34.826521,18.9726975 36.2103277,18.7962689 36.7766555,18.8872773 C29.1742605,23.2376387 25.7143445,29.8148319 25.7143445,29.8148319 C27.9557059,26.8941008 30.8635042,24.0828992 34.8290756,21.5127899 L34.828916,21.5124706 Z" id="Medium-Brown" fill="#9C7356"></path>
                <path d="M55.2620588,33.7764118 C55.2502437,33.1795882 55.3447647,32.1933445 55.9066218,32.0100504 L55.9077395,32.0097311 C56.8681176,31.6765126 58.1396807,34.1359748 58.1981176,36.3198571 C57.4392353,35.9398571 56.5473529,35.7787563 55.6302437,35.8581092 C55.3996891,35.1551092 55.2892017,34.4929832 55.2618992,33.7765714 L55.2620588,33.7764118 Z" id="Brown-Eye" fill="#684C46"></path>
            </g>
        </g>
    </g>
</svg>