<?xml version="1.0" encoding="UTF-8"?>
<svg width="48px" height="49px" viewBox="0 0 48 49" version="1.1" xmlns="http://www.w3.org/2000/svg" xmlns:xlink="http://www.w3.org/1999/xlink">
    <!-- Generator: Sketch 43.2 (39069) - http://www.bohemiancoding.com/sketch -->
    <title>Group 8</title>
    <desc>Created with Sketch.</desc>
    <defs></defs>
    <g id="Page-1" stroke="none" stroke-width="1" fill="none" fill-rule="evenodd">
        <g id="Desktop-HD-Copy-17" transform="translate(-988.000000, -1257.000000)" fill-rule="nonzero">
            <g id="QuickBooks_Lockup-Copy" transform="translate(988.000000, 1257.000000)">
                <g id="Icon_2_">
                    <g id="Group-8">
                        <ellipse id="Circle_2_" fill="#2CA01C" cx="24" cy="24.6076923" rx="24" ry="24.2307692"></ellipse>
                        <path d="M6.66666667,24.6076923 C6.66666667,29.8307692 10.8266667,34.0307692 16,34.0307692 L17.3333333,34.0307692 L17.3333333,30.5307692 L16,30.5307692 C12.7466667,30.5307692 10.1333333,27.8923077 10.1333333,24.6076923 C10.1333333,21.3230769 12.7466667,18.6846154 16,18.6846154 L19.2,18.6846154 L19.2,36.9923077 C19.2,38.9307692 20.7466667,40.4923077 22.6666667,40.4923077 L22.6666667,15.1846154 L16,15.1846154 C10.8266667,15.1846154 6.66666667,19.4384615 6.66666667,24.6076923 Z M32,15.1846154 L30.6666667,15.1846154 L30.6666667,18.6846154 L32,18.6846154 C35.2533333,18.6846154 37.8666667,21.3230769 37.8666667,24.6076923 C37.8666667,27.8923077 35.2533333,30.5307692 32,30.5307692 L28.8,30.5307692 L28.8,12.2230769 C28.8,10.2846154 27.2533333,8.72307692 25.3333333,8.72307692 L25.3333333,34.0307692 L32,34.0307692 C37.1733333,34.0307692 41.3333333,29.8307692 41.3333333,24.6076923 C41.3333333,19.4384615 37.1733333,15.1846154 32,15.1846154 Z" id="qb" fill="#FFFFFF"></path>
                    </g>
                </g>
            </g>
        </g>
    </g>
</svg>