<?xml version="1.0" encoding="UTF-8"?>
<svg width="60px" height="61px" viewBox="0 0 60 61" version="1.1" xmlns="http://www.w3.org/2000/svg" xmlns:xlink="http://www.w3.org/1999/xlink">
    <!-- Generator: Sketch 43.2 (39069) - http://www.bohemiancoding.com/sketch -->
    <title>xero</title>
    <desc>Created with Sketch.</desc>
    <defs></defs>
    <g id="Page-1" stroke="none" stroke-width="1" fill="none" fill-rule="evenodd">
        <g id="Desktop-HD-Copy-17" transform="translate(-839.000000, -1118.000000)" fill-rule="nonzero">
            <g id="xero" transform="translate(839.000000, 1118.000000)">
                <path d="M29.9426667,60.6533333 C46.4786667,60.6533333 59.884,47.224 59.884,30.66 C59.884,14.0933333 46.48,0.666666667 29.9426667,0.666666667 C13.4053333,0.666666667 0,14.0933333 0,30.66 C0,47.224 13.4053333,60.6533333 29.9426667,60.6533333" id="Shape" fill="#13B5EA"></path>
                <path d="M14.3333333,30.58 L19.4426667,25.4466667 C19.7602721,25.0814094 19.739435,24.5322343 19.3950651,24.1920941 C19.0506951,23.8519538 18.5013044,23.837905 18.14,24.16 L13.0333333,29.2706667 L7.90666667,24.1506667 C7.54620882,23.7949953 6.96567139,23.7988755 6.61000002,24.1593334 C6.25432865,24.5197912 6.25820884,25.1003286 6.61866667,25.456 L11.728,30.572 L6.62133333,35.692 C6.37592042,35.9190367 6.27345735,36.2616088 6.35390564,36.5861103 C6.43435394,36.9106118 6.68497274,37.1656502 7.00801846,37.2517583 C7.33106419,37.3378664 7.67537503,37.241407 7.90666667,37 L13.0266667,31.8773333 L18.1266667,36.98 C18.3838582,37.2534915 18.7822108,37.3417418 19.1308465,37.2024642 C19.4794822,37.0631866 19.7073779,36.7247543 19.7053333,36.3493333 C19.7065204,36.106786 19.6104749,35.8738757 19.4386667,35.7026667 L14.332,30.5746667 L14.3333333,30.58 Z M44.708,30.5786667 C44.708,31.4986667 45.4546667,32.2453333 46.3746667,32.2453333 C47.2951412,32.2449651 48.0410348,31.4984746 48.0406666,30.578 C48.0402984,29.6575254 47.2938079,28.9116318 46.3733333,28.912 C45.4573333,28.912 44.712,29.6586667 44.712,30.5786667 L44.708,30.5786667 Z M41.5546667,30.5786667 C41.5546667,27.9186667 43.7146667,25.752 46.3733333,25.752 C49.0266667,25.752 51.1906667,27.9186667 51.1906667,30.5786667 C51.1906667,33.2386667 49.028,35.4053333 46.3733333,35.4053333 C43.7107637,35.4009202 41.554663,33.24124 41.5546667,30.5786667 L41.5546667,30.5786667 Z M39.6586667,30.5786667 C39.6586667,34.2853333 42.672,37.304 46.3733333,37.304 C50.0746667,37.304 53.088,34.288 53.088,30.58 C53.088,26.8733333 50.0746667,23.8546667 46.3733333,23.8546667 C42.6638103,23.8620178 39.6601297,26.87047 39.6586667,30.58 L39.6586667,30.5786667 Z M39.1826667,23.9693333 L38.9026667,23.9693333 C38.056,23.9693333 37.24,24.236 36.5586667,24.7626667 C36.4622391,24.3433598 36.0902435,24.0453218 35.66,24.0426667 C35.4186101,24.0426625 35.187184,24.1389178 35.0169968,24.310106 C34.8468097,24.4812943 34.7519134,24.713281 34.7533333,24.9546667 L34.756,36.2813333 C34.7829496,36.7672892 35.1852279,37.1473212 35.6719299,37.1466117 C36.158632,37.1459022 36.5598006,36.764699 36.5853333,36.2786667 L36.5853333,29.3133333 C36.5853333,26.9933333 36.7986667,26.0546667 38.7826667,25.8066667 C38.9693333,25.784 39.1666667,25.788 39.1693333,25.788 C39.7106667,25.768 40.0973333,25.3933333 40.0973333,24.888 C40.0958636,24.3809397 39.6843957,23.9706645 39.1773333,23.9706667 L39.1826667,23.9693333 Z M21.6013333,29.4733333 C21.6013333,29.4466667 21.604,29.42 21.6053333,29.396 C22.153585,27.2304271 24.1102768,25.719567 26.3441039,25.7369571 C28.577931,25.7543471 30.5108634,27.2954873 31.0253333,29.4693333 L21.6,29.4693333 L21.6013333,29.4733333 Z M32.8986667,29.3 C32.504,27.4293333 31.4813333,25.892 29.9253333,24.9053333 C27.6196672,23.4579998 24.6703629,23.5368582 22.4453333,25.1053333 C20.1926046,26.7259877 19.1512845,29.5533328 19.8146667,32.248 C20.5083332,34.9300712 22.7653755,36.9193735 25.5133333,37.2706667 C26.324,37.3693333 27.1133333,37.324 27.9266667,37.1106667 C28.6389212,36.9375836 29.3174859,36.6474139 29.9346667,36.252 C30.584,35.8346667 31.1266667,35.2826667 31.6546667,34.6226667 C31.6626667,34.6093333 31.6733333,34.6 31.684,34.5866667 C32.0493333,34.1333333 31.9813333,33.4853333 31.5813333,33.1786667 C31.2426667,32.9186667 30.6746667,32.8133333 30.2293333,33.3866667 C30.1333333,33.5253333 30.0253333,33.6666667 29.9093333,33.8066667 C29.5533333,34.2 29.112,34.58 28.584,34.876 C27.9093333,35.236 27.144,35.44 26.3306667,35.4453333 C23.6666667,35.4146667 22.2426667,33.552 21.7346667,32.224 C21.6459384,31.9721407 21.5777162,31.7135206 21.5306667,31.4506667 L21.5173333,31.3106667 L31.0773333,31.3106667 C32.3866667,31.2813333 33.0906667,30.3546667 32.896,29.2973333 L32.8986667,29.3 Z" id="Shape" fill="#FFFFFF"></path>
            </g>
        </g>
    </g>
</svg>