<?xml version="1.0" encoding="UTF-8"?>
<svg width="80px" height="80px" viewBox="0 0 80 80" version="1.1" xmlns="http://www.w3.org/2000/svg" xmlns:xlink="http://www.w3.org/1999/xlink">
    <!-- Generator: Sketch 43.2 (39069) - http://www.bohemiancoding.com/sketch -->
    <title>zapier</title>
    <desc>Created with Sketch.</desc>
    <defs></defs>
    <g id="Page-1" stroke="none" stroke-width="1" fill="none" fill-rule="evenodd">
        <g id="Desktop-HD-Copy-17" transform="translate(-592.000000, -937.000000)" fill-rule="nonzero" fill="#FF4A00">
            <g id="zapier" transform="translate(592.000000, 937.000000)">
                <path d="M49.9996875,40.0175 C50.0010592,42.9020805 49.4807051,45.763128 48.46375,48.4625 C45.7633915,49.4793106 42.9017031,50.0004741 40.01625,50.0009375 L39.9825,50.0009375 C37.01125,49.9971875 34.164375,49.4540625 31.5375,48.46375 C30.51991,45.7640709 29.9990251,42.902592 30,40.0175 L30,39.9825 C29.9986092,37.0984648 30.5184202,34.2379159 31.534375,31.53875 C34.2345429,30.520041 37.0968685,29.9987134 39.9828125,30 L40.0165625,30 C42.9021829,29.9986096 45.764201,30.5198331 48.4640625,31.5384375 C49.4811354,34.2373427 50.0014959,37.0980023 50,39.9821875 L50,40.0171875 L49.9996875,40.0175 Z M79.444375,33.3334375 L56.095625,33.3334375 L72.6046875,16.823125 C71.3088978,15.0028646 69.8634656,13.2939138 68.2834375,11.7140625 L68.2834375,11.7128125 C66.7033618,10.1346502 64.9948794,8.69051477 63.175625,7.3953125 L46.6653125,23.905625 L46.6653125,0.556875 C44.4694602,0.187477582 42.2467062,0.00121153092 40.02,0 L39.97875,0 C37.71375,0.00125 35.4953125,0.19375 33.3334375,0.556875 L33.3334375,23.905625 L16.823125,7.3953125 C15.0035722,8.69016564 13.2958169,10.1353342 11.7178125,11.715625 L11.7090625,11.721875 C10.1317322,13.2997561 8.68832284,15.0060502 7.39375,16.823125 L23.9053125,33.3334375 L0.556875,33.3334375 C0.556875,33.3334375 0,37.71875 0,39.98625 L0,40.01375 C0,42.28125 0.1921875,44.5034375 0.556875,46.6665625 L23.905625,46.6665625 L7.3940625,63.176875 C9.99145491,66.8218766 13.1781234,70.0085451 16.823125,72.6059375 L33.3334375,56.094375 L33.3334375,79.444375 C35.5268759,79.8119368 37.7469167,79.9977764 39.9709375,80 L40.0275,80 C42.2515299,79.99799 44.4715882,79.8121489 46.665,79.444375 L46.665,56.094375 L63.176875,72.6059375 C64.9957509,71.3102882 66.7038155,69.8657345 68.2834375,68.2871875 L68.2871875,68.2834375 C69.8650361,66.7035212 71.3091512,64.9954809 72.6046875,63.176875 L56.093125,46.6665625 L79.444375,46.6665625 C79.8078125,44.5071875 79.9975,42.2915625 80,40.0290625 L80,39.9709375 C79.9975,37.7084375 79.8078125,35.4928125 79.444375,33.3334375 L79.444375,33.3334375 Z" id="Shape"></path>
            </g>
        </g>
    </g>
</svg>