<?xml version="1.0" encoding="UTF-8"?>
<svg width="140px" height="30px" viewBox="0 0 140 30" version="1.1" xmlns="http://www.w3.org/2000/svg" xmlns:xlink="http://www.w3.org/1999/xlink">
    <!-- Generator: Sketch 58 (84663) - https://sketch.com -->
    <title>Group 21</title>
    <desc>Created with Sketch.</desc>
    <defs>
        <polygon id="path-1" points="0 0.945543011 7.5523 0.945543011 7.5523 9.99377901 0 9.99377901"></polygon>
        <polygon id="path-3" points="0.721552713 0.464979724 10.358 0.464979724 10.358 14.2995145 0.721552713 14.2995145"></polygon>
    </defs>
    <g id="Page-1" stroke="none" stroke-width="1" fill="none" fill-rule="evenodd">
        <g id="Group-21">
            <path d="M10.3413,16.1131 L18.6083,29.0631 C18.8063,29.3641 19.1493,29.5401 19.5093,29.5231 L22.5713,29.5231 C23.1463,29.5301 23.6153,29.0711 23.6223,28.4971 L23.6223,28.4751 L23.6223,1.0501 C23.6163,0.4651 23.1373,-0.0049 22.5523,6.04736724e-05 C22.2343,0.0031 21.9343,0.1491 21.7353,0.3971 L10.3413,14.8541 C10.0893,15.2351 10.0893,15.7311 10.3413,16.1131" id="Fill-1" fill="#FFFFFF"></path>
            <g id="Group-5" transform="translate(0.000000, 19.524600)">
                <mask id="mask-2" fill="white">
                    <use xlink:href="#path-1"></use>
                </mask>
                <g id="Clip-4"></g>
                <path d="M1.0483,9.99377901 L6.5013,9.99377901 C7.0753,10.0007 7.5453,9.5417 7.5523,8.9687 L7.5523,8.9457 L7.5523,1.9917 C7.5433,1.4047 7.0603,0.9357 6.4733,0.9457 C6.1573,0.9507 5.8603,1.0957 5.6623,1.3417 L0.2083,8.2967 C-0.1407,8.7687 -0.0417,9.4357 0.4313,9.7857 C0.6103,9.9177 0.8253,9.9907 1.0483,9.99377901" id="Fill-3" fill="#FFFFFF" mask="url(#mask-2)"></path>
            </g>
            <path d="M98.4536,13.8826 C98.3916,13.8066 98.3226,13.7356 98.2496,13.6686 L98.1376,13.5726 L98.0796,13.5236 C97.8186,13.3046 97.5376,13.1126 97.2376,12.9516 C96.9126,12.7576 96.5686,12.5966 96.2116,12.4726 C95.8456,12.3416 95.4696,12.2416 95.0866,12.1746 C94.0986,11.9986 93.0826,12.0506 92.1176,12.3256 C91.5406,12.4886 90.9866,12.7236 90.4676,13.0246 C89.9576,13.3226 89.4876,13.6856 89.0696,14.1036 C88.6526,14.5256 88.2846,14.9916 87.9736,15.4966 C87.6566,16.0046 87.4146,16.5556 87.2546,17.1326 C86.9136,18.3246 86.9136,19.5896 87.2546,20.7816 C87.4186,21.3576 87.6606,21.9056 87.9736,22.4156 C88.2846,22.9196 88.6526,23.3876 89.0696,23.8086 C89.4896,24.2276 89.9606,24.5906 90.4726,24.8906 C90.9926,25.1826 91.5436,25.4146 92.1146,25.5856 C93.1046,25.8816 94.1516,25.9336 95.1656,25.7366 C95.5556,25.6726 95.9366,25.5646 96.3026,25.4126 C96.6526,25.2706 96.9916,25.1016 97.3166,24.9066 C97.6406,24.7146 97.9506,24.5026 98.2476,24.2716 C98.3326,24.1966 98.4126,24.1166 98.4866,24.0316 L98.5256,23.9886 C98.5966,23.9036 98.6496,23.8066 98.6836,23.7006 L98.6976,23.6136 C98.7056,23.4766 98.6736,23.3386 98.6046,23.2186 L98.5706,23.1656 C98.5456,23.1236 98.5156,23.0836 98.4816,23.0456 L98.3936,22.9266 C98.2166,22.6866 98.0486,22.4456 97.8686,22.2266 C97.7926,22.1386 97.6966,22.0696 97.5906,22.0246 C97.4836,21.9876 97.3686,21.9876 97.2616,22.0246 C97.1086,22.0926 96.9706,22.1876 96.8506,22.3056 L96.6926,22.4396 C96.5376,22.5696 96.4536,22.6536 96.2346,22.8066 C96.0386,22.9556 95.8266,23.0836 95.6016,23.1876 C95.3596,23.3116 95.1026,23.4016 94.8376,23.4556 C93.9626,23.6456 93.0496,23.5496 92.2326,23.1826 C91.7076,22.9456 91.2296,22.6146 90.8246,22.2066 C90.4086,21.7886 90.0756,21.2956 89.8446,20.7536 C89.3456,19.6406 89.3456,18.3666 89.8446,17.2546 C90.0776,16.7096 90.4096,16.2116 90.8226,15.7866 C91.2336,15.3756 91.7116,15.0366 92.2346,14.7836 C92.9936,14.4246 93.8496,14.3226 94.6716,14.4966 C94.9466,14.5596 95.2166,14.6446 95.4766,14.7506 C95.7256,14.8566 95.9676,14.9816 96.1966,15.1246 C96.6766,15.4076 97.2186,16.2186 97.7436,15.5756 L98.5036,14.5546 C98.5756,14.4546 98.6036,14.3316 98.5836,14.2106 C98.5696,14.0916 98.5246,13.9786 98.4536,13.8826" id="Fill-6" fill="#FFFFFF"></path>
            <path d="M37.9946,18.2781 L38.0286,18.2041 L42.0356,8.8781 L46.0556,18.2781 L37.9946,18.2781 Z M51.6886,24.7541 L43.3716,5.8301 C43.2576,5.5421 42.9806,5.3521 42.6716,5.34909592 L41.3386,5.34909592 C41.0326,5.3481 40.7576,5.5311 40.6406,5.8121 L32.3066,24.7321 C32.1896,24.9671 32.2086,25.2481 32.3536,25.4651 C32.4926,25.6891 32.7366,25.8231 32.9996,25.8211 L34.2296,25.8211 C34.5366,25.8271 34.8156,25.6421 34.9306,25.3581 L36.9306,20.6881 L47.0386,20.6881 L49.0266,25.3581 C49.1406,25.6461 49.4196,25.8361 49.7286,25.8381 L50.9286,25.8381 C51.1816,25.8531 51.4246,25.7411 51.5756,25.5381 C51.7546,25.3171 51.7976,25.0151 51.6886,24.7541 L51.6886,24.7541 Z" id="Fill-8" fill="#FFFFFF"></path>
            <path d="M125.6636,17.7488 L117.3966,17.7868 L117.4186,17.7178 C117.5566,17.2508 117.7626,16.8068 118.0296,16.4008 C118.3566,15.9188 118.7716,15.5028 119.2536,15.1758 C119.6036,14.9498 119.9866,14.7778 120.3876,14.6648 C121.2696,14.4088 122.2096,14.4358 123.0756,14.7408 C123.5376,14.9088 123.9706,15.1448 124.3606,15.4408 C124.7426,15.7448 125.0596,16.1208 125.2916,16.5498 C125.4936,16.9018 125.6396,17.2848 125.7216,17.6838 L125.7356,17.7488 L125.6636,17.7488 Z M127.8386,16.8448 C127.6316,16.1118 127.3086,15.4178 126.8796,14.7888 C126.5626,14.3658 126.1996,13.9798 125.7956,13.6408 C125.4126,13.2998 124.9776,13.0208 124.5076,12.8148 C124.0486,12.5868 123.5656,12.4078 123.0686,12.2828 C121.9566,12.0098 120.7926,12.0318 119.6916,12.3478 C119.1276,12.5048 118.5866,12.7388 118.0856,13.0428 C117.5896,13.3528 117.1316,13.7178 116.7206,14.1318 C116.3166,14.5468 115.9746,15.0168 115.7036,15.5278 C115.4166,16.0488 115.1956,16.6028 115.0496,17.1808 C114.7926,18.0978 114.7416,19.0608 114.8996,20.0008 C114.9416,20.3678 115.0126,20.7308 115.1116,21.0868 C115.3176,21.8208 115.6426,22.5168 116.0706,23.1468 C116.3876,23.5688 116.7506,23.9538 117.1546,24.2928 C117.5386,24.6348 117.9746,24.9138 118.4446,25.1208 C118.9036,25.3508 119.3866,25.5278 119.8846,25.6498 C121.5796,26.0648 123.3706,25.7918 124.8646,24.8908 C125.3596,24.5818 125.8176,24.2178 126.2286,23.8038 C126.6216,23.4058 126.9526,22.9518 127.2106,22.4558 L127.2316,22.4078 C127.3306,22.2748 127.3456,22.0978 127.2696,21.9498 C127.2096,21.8378 127.0936,21.7678 126.9656,21.7638 L124.9776,21.7638 C124.8076,21.7588 124.6446,21.8348 124.5386,21.9668 C124.2886,22.2698 123.9966,22.5368 123.6706,22.7588 C123.3226,22.9808 122.9436,23.1508 122.5456,23.2648 C121.6636,23.5198 120.7246,23.4928 119.8576,23.1868 C119.3956,23.0198 118.9626,22.7838 118.5716,22.4868 C118.1926,22.1858 117.8766,21.8108 117.6436,21.3868 C117.4406,20.9268 117.2966,20.4428 117.2146,19.9478 L117.2026,19.8858 L117.2696,19.8858 L127.4856,19.8638 C127.9056,19.8638 128.1426,19.6038 128.1426,19.1448 C128.1706,18.3658 128.0676,17.5888 127.8386,16.8448 L127.8386,16.8448 Z" id="Fill-10" fill="#FFFFFF"></path>
            <path d="M63.1929,23.1248 C62.1179,23.6258 60.8769,23.6258 59.8009,23.1248 C59.2679,22.8858 58.7899,22.5388 58.3939,22.1078 C57.9879,21.6828 57.6629,21.1858 57.4349,20.6438 C56.9689,19.5328 56.9689,18.2828 57.4349,17.1728 C57.6669,16.6408 57.9909,16.1528 58.3939,15.7338 C58.7969,15.3168 59.2749,14.9788 59.8009,14.7358 C60.8769,14.2368 62.1159,14.2368 63.1899,14.7358 C63.7099,14.9808 64.1799,15.3178 64.5789,15.7308 C64.9749,16.1518 65.2939,16.6388 65.5189,17.1708 C65.9869,18.2788 65.9869,19.5298 65.5189,20.6388 C65.2889,21.1788 64.9699,21.6758 64.5769,22.1108 C64.1849,22.5358 63.7149,22.8798 63.1929,23.1248 M66.3659,23.7918 C66.7769,23.3708 67.1379,22.9028 67.4429,22.3978 C67.7429,21.8798 67.9779,21.3258 68.1399,20.7488 C68.4779,19.5568 68.4779,18.2938 68.1399,17.1018 C67.9779,16.5238 67.7429,15.9698 67.4429,15.4508 C66.8399,14.4268 65.9869,13.5728 64.9629,12.9718 C64.4499,12.6748 63.9029,12.4398 63.3349,12.2728 C61.8669,11.8488 60.2979,11.9468 58.8949,12.5518 C58.3049,12.8198 57.7539,13.1678 57.2569,13.5848 L57.1689,13.6598 L57.1689,12.9208 C57.2069,12.5858 56.9649,12.2818 56.6299,12.2438 C56.5839,12.2388 56.5369,12.2388 56.4899,12.2448 L55.4439,12.2448 C55.1009,12.2038 54.7899,12.4478 54.7489,12.7918 C54.7439,12.8348 54.7429,12.8778 54.7469,12.9208 L54.7469,28.8408 C54.7349,29.2028 55.0189,29.5068 55.3809,29.5188 L55.4039,29.5188 L56.4699,29.5188 C56.6589,29.5238 56.8399,29.4568 56.9789,29.3288 C57.1049,29.2018 57.1729,29.0288 57.1689,28.8498 L57.1689,24.1968 L57.2569,24.2708 C57.7469,24.6838 58.2919,25.0248 58.8769,25.2858 C60.2779,25.8908 61.8459,25.9888 63.3129,25.5638 C63.8899,25.4008 64.4439,25.1668 64.9629,24.8658 C65.4749,24.5698 65.9469,24.2088 66.3659,23.7918" id="Fill-12" fill="#FFFFFF"></path>
            <path d="M73.8979,17.1892 C74.1299,16.6572 74.4559,16.1692 74.8579,15.7512 C75.2579,15.3312 75.7349,14.9892 76.2599,14.7442 C77.3359,14.2452 78.5749,14.2452 79.6489,14.7442 C80.1749,14.9872 80.6529,15.3262 81.0569,15.7412 C81.4539,16.1612 81.7719,16.6482 81.9979,17.1802 C82.4659,18.2892 82.4659,19.5402 81.9979,20.6482 C81.7689,21.1902 81.4509,21.6882 81.0539,22.1232 C80.6639,22.5462 80.1929,22.8912 79.6699,23.1372 C78.5939,23.6362 77.3539,23.6362 76.2779,23.1372 C75.7459,22.8962 75.2669,22.5502 74.8719,22.1202 C74.4649,21.6952 74.1399,21.1982 73.9129,20.6552 C73.4449,19.5482 73.4399,18.3002 73.8979,17.1892 M72.9539,12.2632 L71.9079,12.2632 C71.5649,12.2222 71.2519,12.4662 71.2109,12.8092 C71.2059,12.8572 71.2049,12.9052 71.2099,12.9522 L71.2099,28.8492 C71.2059,29.0292 71.2739,29.2022 71.3999,29.3292 C71.5239,29.4532 71.6919,29.5212 71.8669,29.5182 L72.9319,29.5182 C73.1199,29.5242 73.3019,29.4572 73.4399,29.3292 C73.5679,29.2032 73.6359,29.0292 73.6289,28.8492 L73.6289,24.1972 L73.7179,24.2712 C74.2089,24.6842 74.7539,25.0262 75.3389,25.2862 C76.7419,25.8902 78.3099,25.9892 79.7759,25.5642 C80.3529,25.4012 80.9079,25.1672 81.4259,24.8662 C81.9379,24.5652 82.4099,24.2002 82.8299,23.7802 C83.2399,23.3582 83.6009,22.8912 83.9039,22.3862 C84.2049,21.8682 84.4389,21.3132 84.6009,20.7372 C84.9419,19.5442 84.9419,18.2812 84.6009,17.0882 C84.4389,16.5112 84.2049,15.9582 83.9039,15.4392 C83.3029,14.4152 82.4509,13.5602 81.4259,12.9592 C80.9129,12.6632 80.3649,12.4282 79.7949,12.2612 C78.3289,11.8362 76.7589,11.9352 75.3569,12.5402 C74.7659,12.8082 74.2149,13.1562 73.7179,13.5732 L73.6229,13.6712 L73.6229,12.9522 C73.6669,12.6172 73.4309,12.3102 73.0959,12.2652 C73.0489,12.2592 73.0019,12.2582 72.9539,12.2632" id="Fill-14" fill="#FFFFFF"></path>
            <path d="M112.2339,12.7556 C112.2679,12.4156 112.0209,12.1116 111.6809,12.0766 C111.6319,12.0716 111.5839,12.0726 111.5359,12.0786 L110.4829,12.0786 C110.1469,12.0396 109.8429,12.2796 109.8039,12.6146 C109.7989,12.6616 109.7989,12.7086 109.8039,12.7556 L109.8039,20.3866 C109.8129,20.8336 109.7159,21.2766 109.5209,21.6796 C109.3539,22.0476 109.1089,22.3746 108.8019,22.6386 C108.5029,22.8856 108.1649,23.0806 107.8009,23.2166 C106.9789,23.5216 106.0659,23.4746 105.2789,23.0866 C104.9099,22.8956 104.5889,22.6216 104.3429,22.2856 C104.0979,21.9666 103.9239,21.5986 103.8329,21.2066 C103.7329,20.8086 103.6789,20.3996 103.6739,19.9876 L103.6739,12.9516 C103.6859,12.7216 103.6309,12.4926 103.5179,12.2926 C103.3449,12.1146 103.1009,12.0266 102.8539,12.0526 L102.0959,12.0526 C101.8689,12.0446 101.6469,12.1316 101.4849,12.2926 C101.3149,12.4826 101.2279,12.7326 101.2449,12.9856 L101.2449,20.0096 C101.2359,20.7766 101.3509,21.5406 101.5859,22.2716 C101.8059,22.9516 102.1559,23.5836 102.6149,24.1326 C103.0729,24.6696 103.6469,25.0956 104.2939,25.3796 C105.4179,25.8376 106.6519,25.9556 107.8419,25.7176 C108.1649,25.6406 108.4779,25.5326 108.7799,25.3996 C109.0619,25.2686 109.3229,25.0966 109.5549,24.8906 L109.7199,24.7366 L109.8109,24.6486 L109.8109,25.1826 C109.8069,25.3426 109.8679,25.4956 109.9789,25.6096 C110.1079,25.7696 110.3039,25.8586 110.5089,25.8496 L111.5739,25.8496 C111.7489,25.8536 111.9179,25.7856 112.0419,25.6626 C112.1779,25.5416 112.2489,25.3636 112.2339,25.1826 L112.2339,12.7556 Z" id="Fill-16" fill="#FFFFFF"></path>
            <g id="Group-20" transform="translate(129.000000, 11.524600)">
                <mask id="mask-4" fill="white">
                    <use xlink:href="#path-3"></use>
                </mask>
                <g id="Clip-19"></g>
                <path d="M10.0044,8.6988 C9.7824,8.2348 9.4624,7.8258 9.0654,7.4998 C8.6294,7.1448 8.1454,6.8568 7.6254,6.6428 C7.0384,6.3998 6.4304,6.2118 5.8084,6.0828 C5.5044,6.0128 5.2064,5.9238 4.9154,5.8108 C4.6534,5.7158 4.4034,5.5888 4.1724,5.4318 C3.8594,5.2438 3.6174,4.9588 3.4824,4.6198 C3.4024,4.3708 3.4024,4.1028 3.4824,3.8538 C3.5664,3.5738 3.9204,2.8018 5.2924,2.7158 C6.6044,2.6338 7.2634,3.3218 7.4914,3.6298 C7.5254,3.6728 7.8464,4.0878 8.0764,4.3478 C8.1174,4.3868 8.1634,4.4188 8.2134,4.4438 C8.4044,4.5178 8.6204,4.4908 8.7864,4.3698 L9.5874,3.7748 C9.7654,3.6698 9.8734,3.4778 9.8724,3.2718 L9.8724,3.2478 C9.8374,3.0938 9.7754,2.9468 9.6914,2.8138 C9.4534,2.4738 9.1974,2.1488 8.9234,1.8408 C8.6784,1.5528 8.3924,1.3028 8.0734,1.0988 C7.7434,0.8938 7.3854,0.7398 7.0094,0.6408 C5.9394,0.3698 4.8134,0.4128 3.7674,0.7648 C3.2384,0.9238 2.7484,1.1888 2.3274,1.5448 C1.9264,1.8788 1.6044,2.2988 1.3854,2.7728 C0.9464,3.7328 0.9314,4.8338 1.3424,5.8058 C1.5394,6.2438 1.8294,6.6318 2.1934,6.9428 C2.5854,7.2788 3.0164,7.5658 3.4774,7.7998 C4.0174,8.0528 4.5784,8.2568 5.1554,8.4088 C5.3254,8.4468 5.4954,8.4928 5.6734,8.5408 C5.8514,8.5888 6.0244,8.6348 6.1984,8.6748 C6.5094,8.7498 6.8094,8.8608 7.0934,9.0058 C7.3314,9.1198 7.5434,9.2838 7.7144,9.4848 C8.0204,9.9358 8.0104,10.5308 7.6884,10.9698 C7.5134,11.1928 7.2994,11.3828 7.0554,11.5258 C6.8054,11.6718 6.5364,11.7808 6.2564,11.8518 C5.7824,11.9598 5.2914,11.9598 4.8174,11.8518 C4.5684,11.7888 4.3274,11.6978 4.0984,11.5838 C3.8654,11.4678 3.6494,11.3228 3.4524,11.1518 C3.2744,10.9528 3.1184,10.7338 2.9894,10.4998 C2.9294,10.3598 2.8384,10.2358 2.7244,10.1358 C2.5374,9.9798 2.2754,9.9508 2.0594,10.0608 L1.1004,10.5138 C1.0194,10.5488 0.9444,10.5968 0.8824,10.6578 C0.8294,10.7108 0.7874,10.7708 0.7574,10.8388 C0.7204,10.9328 0.7114,11.0378 0.7334,11.1368 C0.7424,11.2388 0.7684,11.3378 0.8074,11.4298 C0.9744,11.8648 1.2094,12.2698 1.5054,12.6298 C1.8344,13.0208 2.2344,13.3468 2.6854,13.5888 C3.1064,13.8408 3.5644,14.0218 4.0424,14.1288 C5.1424,14.3878 6.2904,14.3518 7.3714,14.0228 C7.9424,13.8638 8.4764,13.5938 8.9424,13.2258 C9.3924,12.8868 9.7524,12.4448 9.9944,11.9358 C10.4764,10.9118 10.4794,9.7258 10.0044,8.6988" id="Fill-18" fill="#FFFFFF" mask="url(#mask-4)"></path>
            </g>
        </g>
    </g>
</svg>