<?xml version="1.0" encoding="utf-8"?>
<!-- Generator: Adobe Illustrator 23.0.2, SVG Export Plug-In . SVG Version: 6.00 Build 0)  -->
<svg version="1.1" id="Layer_1" xmlns="http://www.w3.org/2000/svg" xmlns:xlink="http://www.w3.org/1999/xlink" x="0px" y="0px"
	 viewBox="0 0 165.4 29.9" style="enable-background:new 0 0 165.4 29.9;" xml:space="preserve">
<style type="text/css">
	.st0{fill:#FFFFFF;}
</style>
<g>
	<path class="st0" d="M155.3,4.8V14c0,1.4-0.4,2.6-1.1,3.2c-0.7,0.7-1.7,1.2-2.9,1.2c-1.1,0-1.9-0.4-2.6-1.1
		c-0.7-0.7-1.1-1.7-1.1-2.8V4.8h-3.7v9.8c0,2.2,0.6,4.2,1.9,5.5c1.2,1.3,2.9,1.9,4.9,1.9c0.6,0,1.2-0.1,1.7-0.2
		c0.6-0.1,1.1-0.4,1.4-0.6c0.4-0.1,0.8-0.4,1.1-0.6c0.1-0.1,0.2-0.1,0.4-0.4l0.1-0.1v1.4h3.7v-17L155.3,4.8L155.3,4.8z"/>
	<g>
		<path class="st0" d="M11.2,18.5c-4.1,0-7.3-3.2-7.3-7.3s3.2-7.3,7.3-7.3c2.4,0,4.7,1.2,6,3.1L20.4,5c-1.9-3-5.4-4.9-9.2-4.9
			C5,0.1,0,5.2,0,11.3c0,6.1,5,11.2,11.2,11.2c3.8,0,7.2-1.9,9.2-4.9l-3.2-1.9C15.7,17.3,13.6,18.5,11.2,18.5z"/>
	</g>
	<rect x="161.6" y="0.1" class="st0" width="3.7" height="21.7"/>
	<polygon class="st0" points="99,0.2 92.9,10.7 86.8,0.2 82,0.1 82,22 85.7,22 85.7,5.8 91.6,15.7 94.2,15.7 100.2,5.8 100.2,22 
		103.9,22 103.9,0.2 	"/>
	<path class="st0" d="M74.4,8.6h5V4.9h-5V0.2h-3.7v14.6v0.7c0,3.7,1.7,6.5,6.4,6.5h2.4v-3.8h-2.2c-2.6,0-3-1.3-3-2.6V15L74.4,8.6
		L74.4,8.6z"/>
	<path class="st0" d="M56.4,13.6c0-0.1,0-0.1,0-0.2V4.8h-3.7v1.6c-1.4-1.1-3.1-1.6-4.9-1.6c-4.8,0-8.8,4-8.8,8.8s4,8.8,8.8,8.8
		c1.9,0,3.5-0.6,4.9-1.6V22h3.7v-8C56.4,13.7,56.4,13.7,56.4,13.6z M47.6,18.5c-2.6,0-4.9-2.2-4.9-4.9s2.2-4.9,4.9-4.9
		c2.6,0,4.9,2.2,4.9,4.9S50.4,18.5,47.6,18.5z"/>
	<path class="st0" d="M67.9,4.8c-0.7,0-3.1,0.1-5.2,1.4V4.8H59V22h3.7v-9.4c0-1.1,0.2-1.9,0.7-2.4c1.2-1.4,3.7-1.7,4-1.7
		c0.1,0,0.4-0.1,0.6-0.1c0.5,0,1,0,1,0V4.7c0,0-0.4,0-0.6,0C68.3,4.8,67.9,4.8,67.9,4.8z"/>
	<path class="st0" d="M114.2,22.3c-4.8,0-8.8-4-8.8-8.8s4-8.8,8.8-8.8c4.8,0,8.8,4,8.8,8.8C122.9,18.4,119,22.3,114.2,22.3z
		 M114.2,8.6c-2.6,0-4.9,2.2-4.9,4.9s2.2,4.9,4.9,4.9s4.9-2.2,4.9-4.9C119.2,10.9,117,8.6,114.2,8.6z"/>
	<g>
		<path class="st0" d="M137.6,4.8v1.4c-1.4-1-3.1-1.4-4.9-1.4c-4.8,0-8.8,4-8.8,8.8s4,8.8,8.8,8.8c1.8,0,3.5-0.6,4.9-1.4
			c0,0,0,0.1,0,0.4s-0.1,0.4-0.1,0.4c-0.1,1.2-0.8,2.4-1.4,3.2c-1,1-2.2,1.3-3.5,1.3h-0.1c-1.9-0.1-3.6-1-4.7-2.4l-2.6,2.6
			c1.4,2.2,4.3,3.5,7.4,3.5l0,0c2.4,0,4.4-0.8,6.2-2.6c1.6-1.7,2.4-3.6,2.4-6c0,0,0-0.4,0-0.6c0-0.1,0-0.7,0-0.7V4.8H137.6
			L137.6,4.8L137.6,4.8z M132.7,18.5c-2.6,0-4.9-2.2-4.9-4.9s2.2-4.9,4.9-4.9c2.8,0,4.9,2.2,4.9,4.9S135.4,18.5,132.7,18.5z"/>
	</g>
	<g>
		<path class="st0" d="M29.2,8.6c0.1,0,0.1,0,0.4,0h0.1c0.1,0,0.2,0,0.4,0c-0.1,0-0.2,0-0.4,0C29.4,8.6,29.4,8.6,29.2,8.6z"/>
		<path class="st0" d="M37.1,12.1c0-4.4-3.1-7.3-7.3-7.3c-1.4,0-3,0.5-4.2,1.2l0,0V0H22v21.8h3.7v-8.4c0-0.1,0-0.4,0-0.4
			c0-1.4,0.4-2.5,1.1-3.2c0.6-0.7,1.4-1.1,2.4-1.2c0.1,0,0.2,0,0.4,0c0.1,0,0.2,0,0.4,0c1.1,0.1,1.8,0.5,2.4,1.2
			c0.6,0.8,1.1,1.8,1.1,3.1c0,0.1,0,0.4,0,0.6v8.5h3.7v-9.6L37.1,12.1z"/>
	</g>
</g>
</svg>
