<?xml version="1.0" encoding="UTF-8"?>
<svg width="155px" height="48px" viewBox="0 0 155 48" version="1.1" xmlns="http://www.w3.org/2000/svg" xmlns:xlink="http://www.w3.org/1999/xlink">
    <!-- Generator: Sketch 57.1 (83088) - https://sketch.com -->
    <title>chargebee-logotype-copy-2 copy 2</title>
    <desc>Created with Sketch.</desc>
    <g id="Page-1" stroke="none" stroke-width="1" fill="none" fill-rule="evenodd">
        <g id="version-2-copy" transform="translate(-659.000000, -3533.000000)" fill="#F2F2F2" fill-rule="nonzero">
            <path d="M805.065483,3548.67709 C805.582771,3548.67709 805.896641,3549.03867 806.026087,3549.5258 C806.299976,3550.55581 804.962027,3553.06679 800.283948,3555.95191 C800.38741,3552.60778 802.398581,3548.67709 805.065483,3548.67709 L805.065483,3548.67709 Z M790.744876,3548.67709 C791.526051,3548.67709 791.577034,3549.44947 791.614015,3549.72618 C791.811937,3551.18456 790.470487,3553.76836 786.083795,3555.25035 C786.5516,3552.16133 788.574269,3548.67709 790.744876,3548.67709 L790.744876,3548.67709 Z M771.82366,3536.51789 C773.304551,3536.51789 772.089051,3541.59309 767.37549,3548.69969 C768.455046,3539.28098 770.014405,3536.51789 771.82366,3536.51789 L771.82366,3536.51789 Z M755.555354,3548.67709 C755.993674,3548.67709 756.104128,3549.02762 756.162104,3549.22649 C756.353026,3549.87583 755.672306,3552.43453 750.586898,3556.01017 C750.877778,3552.59824 752.944928,3548.67709 755.555354,3548.67709 L755.555354,3548.67709 Z M734.483025,3577.48462 C733.954742,3577.48462 733.596889,3577.14463 733.596889,3576.48223 C733.596889,3573.42687 738.344935,3569.24959 738.396914,3569.23754 C737.748681,3573.34601 736.090863,3577.48462 734.483025,3577.48462 L734.483025,3577.48462 Z M812.883265,3557.3189 C812.082097,3556.78456 810.997543,3557.00352 810.461262,3557.80653 C810.372798,3557.93861 808.255669,3561.03867 804.566689,3561.03867 C803.115286,3561.03867 802.017735,3560.5882 801.303531,3559.69881 C801.255548,3559.63905 801.209571,3559.57677 801.164089,3559.51249 C801.180081,3559.50446 801.196074,3559.49542 801.211566,3559.48688 C809.882499,3554.47445 809.831021,3550.21682 809.406198,3548.61833 C808.897907,3546.70596 807.194604,3545.47056 805.065483,3545.47056 C800.11052,3545.47056 796.780892,3551.02988 796.780892,3556.2221 C796.780892,3556.88148 796.840867,3557.51325 796.946324,3558.11839 C795.190048,3559.42411 792.460171,3561.03867 790.063657,3561.03867 C788.666728,3561.03867 787.61766,3560.62185 786.944938,3559.79925 C786.704039,3559.50546 786.521115,3559.17803 786.383668,3558.83905 C793.025436,3556.90358 795.541899,3552.64545 795.08009,3549.2506 C794.778717,3547.02486 793.125897,3545.47056 791.063242,3545.47056 C786.442647,3545.47056 783.103518,3550.34589 782.563241,3555.18305 C781.679605,3555.09115 780.878437,3554.8295 780.167228,3554.38958 C780.285177,3553.62222 780.344156,3552.86842 780.344156,3552.15229 C780.344156,3550.57589 780.045278,3549.20239 779.479013,3548.17841 C778.704329,3546.77778 777.448848,3546.0064 775.942967,3546.0064 C775.136798,3546.0064 774.412095,3546.45336 774.003763,3547.20314 C773.146116,3548.77903 773.693391,3551.83892 775.27574,3554.32078 C775.582614,3554.80088 775.915977,3555.24382 776.27633,3555.64909 C775.413682,3558.44783 773.623919,3561.08035 771.284382,3561.08035 C770.234314,3561.08035 769.447638,3560.75493 768.808401,3560.05587 C767.88728,3559.04947 767.300521,3557.25863 767.1081,3554.99523 C773.62342,3546.81645 776.787117,3538.81594 774.986859,3535.02787 C774.374611,3533.73873 773.228083,3533 771.840654,3533 C767.337006,3533 764.65511,3538.85863 763.641527,3550.90986 C763.579552,3551.64658 763.533571,3552.53647 763.542068,3553.50471 C761.134558,3556.77803 757.190681,3561.03867 753.629646,3561.03867 C752.613065,3561.03867 751.87237,3560.69366 751.363579,3559.98406 C751.320596,3559.92379 751.279114,3559.86051 751.23863,3559.79473 C751.280113,3559.77213 751.322096,3559.74752 751.36208,3559.72141 C760.101483,3554.04306 759.976535,3549.79448 759.517723,3548.23114 C759.017429,3546.52869 757.499054,3545.47056 755.555354,3545.47056 C750.468947,3545.47056 747.052853,3551.33974 747.052853,3556.82172 C747.052853,3557.31839 747.08384,3557.79849 747.141316,3558.26202 C745.537976,3559.4231 744.207023,3560.45712 742.930549,3561.458 C743.12097,3559.95895 743.405853,3558.06466 743.722223,3555.22072 C743.722223,3555.22072 743.722223,3555.22072 743.722223,3555.22021 C743.798192,3554.6462 743.861665,3554.17514 743.893152,3553.94413 C744.178535,3551.86654 740.785931,3551.43666 740.419082,3553.75581 C740.041237,3556.14225 739.018159,3561.08035 736.230305,3561.08035 C734.543999,3561.08035 733.659363,3559.19862 733.823296,3556.46114 C734.08069,3552.15631 736.392239,3548.64595 739.25856,3548.64595 C740.241655,3548.64595 740.752945,3549.70308 740.752945,3549.70308 C741.656073,3551.35581 744.465917,3549.9607 743.872661,3548.21306 C743.60827,3547.43264 742.66116,3545.49316 739.396003,3545.49316 C732.685264,3545.49316 730.611617,3552.31751 730.31424,3556.82172 C730.26526,3557.56347 730.278754,3558.2791 730.346227,3558.96058 C729.411611,3560.10559 728.298069,3561.08035 727.214016,3561.08035 C726.151453,3561.08035 725.47823,3559.89065 725.875066,3557.14463 C726.253411,3554.52417 726.5213,3552.35869 726.700726,3551.09115 C727.512392,3545.36008 720.377828,3545.51777 720.377828,3545.51777 C720.377828,3545.51777 720.29986,3542.17514 717.550991,3542.17514 C716.145569,3542.17514 714.896084,3543.27345 714.896084,3545.34501 C714.896084,3547.25989 716.457941,3548.20151 716.457941,3548.20151 L716.466937,3548.20301 C716.121079,3551.16949 714.73515,3561.08035 711.657916,3561.08035 C710.277984,3561.08035 710.182523,3559.5818 710.304473,3558.52768 C710.472904,3557.06378 710.736296,3554.58493 710.824259,3553.94413 C711.109142,3551.86654 707.717038,3551.43666 707.350189,3553.75581 C706.972344,3556.14225 705.948765,3561.08035 703.161412,3561.08035 C701.474606,3561.08035 700.58947,3558.95154 700.724915,3556.38983 C700.956819,3551.99862 703.322846,3548.64595 706.188667,3548.64595 C707.171762,3548.64595 707.683551,3549.70308 707.683551,3549.70308 C708.429744,3551.34024 711.38153,3550.16309 710.803767,3548.21306 C710.547873,3547.35229 709.592266,3545.49316 706.32661,3545.49316 C699.615871,3545.49316 697.542724,3552.31751 697.244846,3556.82172 C697.198366,3557.51877 697.209861,3558.19222 697.266837,3558.83704 C696.305733,3560.14627 695.150708,3561.08035 694.059158,3561.08035 C693.066566,3561.08035 692.30388,3560.5661 692.486304,3558.29969 C692.571769,3557.24105 693.799264,3550.00339 693.717798,3548.68311 C693.581854,3546.48801 692.592261,3545.52028 690.156263,3545.52028 C687.594817,3545.52028 685.658614,3546.84357 684.845948,3547.68876 C684.845948,3547.68876 686.058449,3538.55581 686.288355,3536.80213 C686.528756,3534.9651 683.013702,3534.94652 682.784296,3536.78707 C682.684837,3537.58506 681.746224,3544.82122 680.876082,3551.50144 C678.916888,3555.86353 674.945022,3562.58694 669.064942,3562.58694 C657.925525,3562.58694 663.06641,3538.1887 673.486622,3538.1887 C675.928117,3538.1887 674.837566,3542.10785 673.20024,3544.4978 C672.030221,3546.20477 674.977009,3548.16836 676.604839,3545.40778 C681.102988,3537.78092 677.312048,3534.92894 673.749514,3534.92894 C658.263386,3534.92894 652.515751,3565.95819 668.647113,3565.95819 C673.957928,3565.95819 677.511466,3562.95957 679.802023,3559.73396 C679.561622,3561.56598 679.39719,3562.81444 679.363704,3563.04746 C679.090816,3564.96234 682.651851,3564.80515 682.839274,3563.20465 C682.958725,3562.18318 683.487007,3557.90245 683.940321,3554.63566 C684.199214,3552.76849 686.47028,3549.33145 689.074209,3549.33145 C689.688456,3549.33145 690.088791,3549.94413 690.009823,3550.46893 C689.918361,3551.07759 688.811317,3559.20063 688.886286,3560.41142 C689.0962,3563.80075 691.507208,3564.58569 693.803263,3564.58569 C695.622014,3564.58569 697.076416,3563.72291 698.301912,3562.36447 C699.114078,3563.72994 700.373559,3564.57815 702.066862,3564.57815 C705.947266,3564.57815 707.284716,3561.77087 707.284716,3561.77087 C707.284716,3561.77087 707.748025,3564.55154 711.09065,3564.55154 C717.863862,3564.55154 719.442713,3552.6796 719.781573,3548.72178 C720.177411,3548.73685 722.571425,3548.88449 722.965764,3550.23089 C723.343608,3551.52153 722.143102,3555.66164 722.044143,3559.92379 C721.992164,3562.16912 722.812826,3564.57815 726.349371,3564.57815 C728.509483,3564.57815 730.203286,3563.5838 731.430281,3562.45537 C732.243446,3563.7656 733.481436,3564.57815 735.136256,3564.57815 C737.04647,3564.57815 738.337938,3563.96397 739.1596,3563.33974 C739.105123,3563.70684 739.053144,3564.06642 739.002165,3564.43252 C738.999166,3564.45512 738.995668,3564.47822 738.993169,3564.50132 C739.002165,3564.43252 730.060844,3570.91588 730.060844,3577.0447 C730.060844,3579.43415 731.16339,3581 733.981231,3581 C739.589424,3581 741.320211,3573.48462 742.147871,3567.2624 C742.186855,3566.96861 742.224339,3566.68989 742.260824,3566.42272 C743.137963,3565.7548 743.953628,3565.115 744.746302,3564.49278 C745.909823,3563.58079 747.036359,3562.69793 748.331326,3561.73873 C748.3953,3561.83867 748.455775,3561.94162 748.524247,3562.03704 C749.703262,3563.68374 751.468536,3564.55405 753.629646,3564.55405 C757.686477,3564.55405 761.441432,3561.42687 764.146319,3558.36748 C764.552652,3559.87809 765.205383,3561.31086 766.232461,3562.43478 C767.525429,3563.84846 769.27271,3564.59573 771.284382,3564.59573 C775.160786,3564.59573 777.849182,3561.48814 779.24111,3557.87784 C780.301174,3558.372 781.466191,3558.65675 782.71018,3558.72304 C782.981568,3559.9946 783.494861,3561.11802 784.24155,3562.03051 C785.183166,3563.18205 786.956435,3564.55405 790.063657,3564.55405 C793.149386,3564.55405 796.213126,3562.8973 798.271276,3561.47859 C798.371237,3561.62423 798.471198,3561.76987 798.58115,3561.90647 C799.550751,3563.11425 801.376998,3564.55405 804.566689,3564.55405 C810.173881,3564.55405 813.252614,3559.93986 813.380559,3559.743 C813.908344,3558.93497 813.684938,3557.85424 812.883265,3557.3189 L812.883265,3557.3189 Z" id="chargebee-logotype-copy-2-copy-2"></path>
        </g>
    </g>
</svg>