<?xml version="1.0" encoding="UTF-8"?>
<svg width="132px" height="32px" viewBox="0 0 132 32" version="1.1" xmlns="http://www.w3.org/2000/svg" xmlns:xlink="http://www.w3.org/1999/xlink">
    <!-- Generator: Sketch 57.1 (83088) - https://sketch.com -->
    <title>dribbble-logo</title>
    <desc>Created with Sketch.</desc>
    <g id="Page-1" stroke="none" stroke-width="1" fill="none" fill-rule="evenodd">
        <g id="version-2-copy" transform="translate(-1054.000000, -2919.000000)" fill="#FFFFFF">
            <g id="dribbble-logo" transform="translate(1054.000000, 2919.000000)">
                <path d="M130.605829,22.1598158 C130.196577,21.8658957 129.872143,21.8239117 129.604146,22.3837519 C125.005626,32.2512114 117.261447,27.3245217 118.03738,27.7584098 C119.758238,26.9746016 124.272262,23.3914963 123.595014,18.4227585 C123.186084,15.3855094 120.562229,14.041861 117.769383,14.5317171 C112.902867,15.3715254 111.125572,20.5782153 112.028248,25.1830489 C112.18337,25.9808732 112.465557,26.6247134 112.761934,27.2685537 C107.274606,31.7054192 105.088382,23.3075283 104.834253,22.2997839 C104.820385,22.2437839 109.080281,18.7306626 110.265144,10.3467877 C111.506444,1.57097975 108.685219,-0.0386169761 105.793689,0.0173689638 C100.447615,0.115344358 99.0086226,11.186564 100.941039,20.4102472 C100.785917,20.4522312 100.024173,20.8721354 98.8112529,20.9141194 C97.9366344,18.1848064 94.1985432,15.7914296 93.2252399,16.7151739 C90.7848865,19.0246147 93.8176714,23.5314643 95.9619702,23.8813845 C94.6780999,31.7334192 86.637866,29.7879145 88.1329735,19.9483591 C90.7426391,15.1335734 92.7456832,7.95337881 92.3790013,3.62844928 C92.2519365,2.10284554 91.109321,0.0453619337 88.5280353,0.143337328 C83.5628337,0.339289718 83.0268396,11.4105 83.6050811,19.2765508 C83.5770237,19.0805828 83.2948367,20.2282952 81.2634126,20.8021514 C80.7838559,18.1568384 76.4817132,15.4834935 75.4661624,16.7711739 C73.5759931,19.1645828 76.862585,23.4335123 78.4141299,23.7274324 C77.1305821,31.5794672 69.0903482,29.6339305 70.5854557,19.794407 C73.2093112,14.9796213 75.1981654,7.81341077 74.845351,3.48851323 C74.7186087,1.96288069 73.5759931,-0.0946029159 70.994385,0.00337247882 C66.0291834,0.199323268 65.4931893,11.270532 66.0717533,19.1365828 C66.0433733,18.9406147 65.7611863,20.1303431 63.6452674,20.6901833 C63.5749625,17.2470461 59.2586298,15.6794296 58.2146991,16.7711739 C56.3667772,18.7306626 58.6378184,22.7476561 60.7395473,23.7274324 C59.4559995,31.5794672 51.4157656,29.6339305 52.910873,19.794407 C55.5205386,14.9796213 57.5235827,7.79942676 57.1569009,3.47449723 C57.0440261,1.96288069 55.9014105,-0.0946029159 53.3198023,0.00337247882 C48.3546007,0.199323268 47.9598614,11.8304042 48.5381029,19.696423 C46.9017407,26.6526814 41.414735,35.3305725 42.1339088,17.9328703 C42.2045361,16.7151739 42.2751635,16.2532858 41.668542,15.7914296 C41.2031753,15.4415095 40.1592446,15.6094455 39.5948706,15.6234615 C38.9037542,15.6514615 38.7205745,16.0573497 38.5793198,16.6592059 C38.2268279,18.2267905 38.1562005,19.752423 38.0997631,21.8378957 C38.0717056,22.8176401 37.9868883,23.2655442 37.6060164,24.5952087 C37.2251446,25.9248732 35.0811682,28.346282 33.8963052,27.9403619 C32.259943,27.3805217 32.795937,22.8036561 33.1061815,19.654439 C33.3603111,17.1630781 32.54213,16.0573497 30.4544298,15.6514615 C29.2272226,15.3995255 28.4796366,15.4415095 27.2101175,15.0355893 C25.9970035,14.6577012 25.7290065,12.3902764 23.1617496,13.1460847 C21.7511692,13.5659888 22.6539419,16.5192378 22.315382,18.7166786 C20.6508978,29.5079784 17.1949937,29.8018986 15.5869146,24.5672087 C22.8090964,6.98761847 17.6604894,0.0593584186 14.6559232,0.0593584186 C11.5244535,0.0593584186 7.94158132,2.20081998 9.45087877,15.9173816 C8.71738601,15.7074296 8.49170089,15.5954615 7.67355203,15.5954615 C3.11738293,15.5814775 0,19.2485508 0,23.7694164 C0,28.290282 3.11738293,31.9573553 7.6876775,31.9573553 C10.3818702,31.9573553 12.2720395,30.7396589 13.7108386,28.8641382 C14.64183,30.1938027 15.7844133,31.9853553 17.872049,31.9013873 C24.0786155,31.6634352 25.884161,19.0246147 26.0957529,18.3107905 C26.758715,18.4087745 27.3934907,18.6047106 28.0000477,18.7026946 C29.0156629,18.8566467 29.1002868,19.2625348 29.0720681,20.2702792 C28.804071,28.8641382 30.3980246,31.8733873 34.02337,31.8733873 C36.0402816,31.8733873 37.845956,29.8998826 39.0872564,28.5002341 C40.0183123,30.4037548 41.4850399,31.8173873 43.4742165,31.8733873 C48.2701059,31.9853553 50.1180278,24.3992406 49.9487155,25.393001 C49.8216508,26.1768093 51.5002604,31.8173873 56.4515946,31.8453873 C62.5732792,31.8733873 63.7158948,25.1970649 63.8429596,24.0773525 C63.871017,23.8813845 63.8571495,23.8533844 63.8429596,24.0773525 C63.8429596,24.0913365 63.8429596,24.1193365 63.8429596,24.1473046 C65.7895663,23.7834004 66.7909271,22.7616721 66.7909271,22.7616721 C66.7909271,22.7616721 68.3566619,31.9573553 74.1261772,31.8594033 C80.1211195,31.7474032 81.2634126,25.7149211 81.4046674,24.5392087 C81.4327248,24.2872726 81.4188573,24.2593046 81.4046674,24.5392087 C81.4046674,24.5532247 81.4046674,24.5672087 81.4046674,24.5672087 C83.717956,23.7274324 84.3245774,22.9016401 84.3245774,22.9016401 C84.3245774,22.9016401 85.5658778,31.9153713 91.659505,31.9993393 C97.0903958,32.0694514 99.1073074,26.5407134 99.1214974,24.2313046 C100.038363,24.2452886 101.731163,23.6854484 101.688916,23.6574484 C101.688916,23.6574484 103.67777,31.5374832 109.235403,31.9433713 C111.845068,32.1392114 113.805543,30.4877228 114.920101,29.7319145 C117.543634,31.8453873 126.275306,34.5328122 131.790692,25.2530329 C132.580493,23.9373845 130.901884,22.3557839 130.605829,22.1598158 Z M7.46196013,28.8921382 C4.79598614,28.8921382 3.0891739,26.4427614 3.0891739,23.8114004 C3.0891739,21.1800715 4.65492488,18.7306626 7.32093112,18.7306626 C8.51991959,18.7306626 9.18288172,18.8566467 10.1279664,19.668455 C10.2972463,20.3262792 10.7768353,21.8519117 11.0166459,22.55172 C11.3269548,23.4754963 11.7078267,24.2732886 12.0745731,25.1270809 C11.5244535,27.3385057 9.77531322,28.8921382 7.46196013,28.8921382 Z M13.9506492,19.738439 C13.8378066,19.5564869 13.8660253,19.668455 13.7390573,19.5004869 C13.2594683,18.1848064 12.3143837,15.2455414 12.2015411,11.9003882 C12.0745731,8.12134687 12.7093488,3.6844493 14.5853926,3.6844493 C15.8549439,3.6844493 17.2090869,12.6702125 13.9506492,19.738439 Z M51.4860704,15.8054136 C51.1900159,13.5659888 51.175826,3.55849726 53.5881219,3.83840136 C54.9281071,4.37027355 52.7415608,13.8039089 51.4860704,15.8054136 Z M69.1606531,15.8054136 C68.8645986,13.5659888 68.8504086,3.55849726 71.2627045,3.83840136 C72.6026897,4.37027355 70.4161434,13.8039089 69.1606531,15.8054136 Z M86.6943034,15.9453816 C86.3979264,13.7059249 86.3840589,3.69843331 88.7960324,3.97836941 C90.1360176,4.49625759 87.9497938,13.9438769 86.6943034,15.9453816 Z M106.047496,3.23657714 C108.262099,3.01261866 108.163415,12.6002285 103.734207,18.6466946 C103.155643,16.4632378 102.281347,3.99238541 106.047496,3.23657714 Z M115.35741,23.8813845 C114.652104,20.3122952 116.485836,17.9748544 118.376005,17.7229183 C119.039064,17.6249662 119.998177,18.0448384 120.181357,18.8426627 C120.491924,20.3402632 120.139109,22.565704 115.893404,25.379017 C115.907594,25.393001 115.512532,24.6651927 115.35741,23.8813845 Z M40.3285568,12.8801326 C41.8378543,12.8801326 43.0649647,11.6624361 43.0649647,10.1648356 C43.0649647,8.66720307 41.8378543,7.44950664 40.3285568,7.44950664 C38.8192594,7.44950664 37.5918264,8.66720307 37.5918264,10.1648356 C37.5918264,11.6624361 38.8192594,12.8801326 40.3285568,12.8801326 Z" id="Shape"></path>
            </g>
        </g>
    </g>
</svg>