<?xml version="1.0" encoding="UTF-8"?>
<svg width="268px" height="41px" viewBox="0 0 268 41" version="1.1" xmlns="http://www.w3.org/2000/svg" xmlns:xlink="http://www.w3.org/1999/xlink">
    <!-- Generator: Sketch 57.1 (83088) - https://sketch.com -->
    <title>Group 4</title>
    <desc>Created with Sketch.</desc>
    <g id="Page-1" stroke="none" stroke-width="1" fill="none" fill-rule="evenodd">
        <g id="version-2-copy" transform="translate(-551.000000, -2298.000000)">
            <g id="Group-4" transform="translate(551.000000, 2298.000000)">
                <g id="Skype_logo" transform="translate(58.000000, 0.000000)" fill-rule="nonzero">
                    <g id="Group" transform="translate(46.000000, 20.500000) scale(-1, 1) rotate(-180.000000) translate(-46.000000, -20.500000) ">
                        <g>
                            <path d="M24.1422222,0.357680435 C20.7306667,0.357680435 17.9684444,3.12892391 17.9684444,6.5518 C17.9684444,6.63246304 17.9688889,6.70956087 17.9777778,6.79022391 C17.3102222,6.68906087 16.6333333,6.63691957 15.9475556,6.63691957 C13.9355556,6.63691957 12.0328889,7.08168043 10.3226667,7.87405 C9.36222222,7.35664783 8.264,7.06073478 7.09333333,7.06073478 C3.33435556,7.06073478 0.288888863,10.1205826 0.288888863,13.8867891 C0.288888863,15.8868761 1.14902222,17.6770609 2.51182222,18.9253326 C2.47524444,19.33355 2.45711111,19.7457783 2.45711111,20.1660283 C2.45711111,27.637387 8.49355556,33.6902348 15.9477778,33.6902348 C18.8464444,33.6902348 21.5255556,32.7730826 23.7206667,31.2173109 C25.6962222,33.9331152 28.8886667,35.7028 32.5011111,35.7028 C32.5926667,35.7028 32.6748889,35.6956696 32.7571111,35.6916587 C33.7997778,38.6454413 36.5988889,40.7658543 39.9006667,40.7658543 C43.2388889,40.7658543 46.0731111,38.5928543 47.082,35.578463 C48.2242222,37.7563652 50.4997778,39.2426152 53.1264444,39.2426152 C56.4108889,39.2426152 59.1531111,36.9154196 59.8108889,33.8199196 C60.2864444,33.8845391 60.762,33.9331152 61.2553333,33.9331152 C63.9264444,33.9331152 66.362,32.9148 68.2064444,31.2543 C70.3131111,32.6884087 72.8553333,33.5248978 75.5886667,33.5248978 C82.842,33.5248978 88.7308889,27.6208978 88.7308889,20.3433978 C88.7308889,19.4422891 88.642,18.5656913 88.4686667,17.7131587 C90.3797778,17.0018978 91.7486667,15.1591261 91.7486667,12.9892457 C91.7486667,10.2052565 89.4997778,7.94624565 86.7175556,7.94624565 C85.282,7.94624565 83.9931111,8.55233261 83.0775556,9.51806087 C80.9486667,8.03493043 78.3708889,7.16189783 75.5886667,7.16189783 C72.7708889,7.16189783 70.1664444,8.05543043 68.0331111,9.56663696 C67.0642222,8.67399565 65.7842222,8.12361522 64.3664444,8.12361522 C63.3131111,8.12361522 62.3353333,8.43111522 61.5131111,8.95252826 C59.5353333,5.44078913 55.7975556,3.06056087 51.4908889,3.06056087 C47.5575556,3.06047174 44.0895556,5.04059348 42.0131111,8.05498478 C40.2846667,6.26881087 37.8611111,5.15824565 35.1722222,5.15824565 C33.398,5.15824565 31.7424444,5.6506913 30.3251111,6.49520217 C30.2882222,3.10080326 27.5348889,0.357680435 24.142,0.357680435 L24.1422222,0.357680435 Z" id="Path" fill="#000000" transform="translate(46.018778, 20.561767) scale(-1, 1) rotate(-180.000000) translate(-46.018778, -20.561767) "></path>
                            <path d="M24.2973333,5.6673587 C22.8524444,5.6673587 21.9017778,6.49136957 21.9017778,8.07120652 L21.9017778,23.0879022 C21.124,20.8003696 18.4533333,19.8907935 16.1577778,19.3613587 L14.1542222,18.901 C12.6724444,18.5738913 11.5933333,18.3114022 11.5933333,17.187913 C11.5933333,16.1695978 12.6733333,15.7092391 14.3466667,15.7092391 C17.3742222,15.7092391 17.4382222,17.9147717 19.3128889,17.9147717 C20.5568889,17.9147717 21.3155556,16.9249783 21.3155556,15.8059457 C21.3155556,13.6035326 17.6302222,12.1524891 13.9902222,12.1524891 C10.6702222,12.1524891 6.80088889,13.603087 6.80088889,17.518587 C6.80088889,20.747337 8.96888889,21.8997935 11.7582222,22.5905543 L14.5848889,23.2817609 C16.2857778,23.7100326 17.3373333,23.9083478 17.3373333,25.1245326 C17.3373333,26.1103152 16.2586667,26.8697065 14.5484444,26.8697065 C10.9995556,26.8697065 10.8066667,23.9074565 8.73066667,23.9074565 C7.38622222,23.9074565 6.80088889,24.8620435 6.80088889,25.9164565 C6.80088889,28.2846522 10.4142222,30.2276957 14.74,30.2276957 C17.8315556,30.2276957 21.0417778,28.8938587 21.9017778,26.0532717 L21.9017778,27.8234022 C21.9017778,29.4036848 22.8524444,30.2276957 24.2973333,30.2276957 C25.7426667,30.2276957 26.6942222,29.4036848 26.6942222,27.8234022 L26.6942222,24.1703913 L28.3675556,22.6872609 L32.904,29.1082174 C33.2608889,29.6336413 33.8826667,30.2276957 35.0715556,30.2276957 C36.352,30.2276957 37.3302222,29.1082174 37.3302222,27.8880217 C37.3302222,27.1001087 37.0008889,26.5706739 36.8364444,26.3402717 L31.852,19.6242935 L35.392,15.906663 C35.5382222,15.745337 35.6657778,15.6160978 35.7755556,15.4708152 C35.8764444,15.793913 36.0133333,16.1816304 36.1871111,16.6990326 L41.1808889,30.9509891 C40.8151111,32.4341196 40.1293333,32.4662065 39.5075556,32.4662065 L39.0133333,32.4662065 C37.7328889,32.4662065 36.8093333,33.1248804 36.8093333,34.4101413 C36.8093333,35.5617065 37.6968889,36.6121087 39.828,36.6121087 C42.8551111,36.6121087 44.1631111,34.9034783 45.3177778,31.6101087 L50.7044444,16.2983913 L50.7044444,34.2122717 C50.7044444,35.7925543 51.6555556,36.6121087 53.1,36.6121087 C54.5444444,36.6121087 55.4955556,35.7925543 55.4955556,34.2122717 L55.4955556,27.7913152 L55.5577778,27.7913152 C56.4466667,29.3390652 58.0911111,30.2276957 60.2866667,30.2276957 C64.3933333,30.2276957 66.7088889,27.3786413 67.4288889,23.8388261 C68.2333333,27.2168696 70.9311111,30.2276957 76.3844444,30.2276957 C79.2644444,30.2276957 83.9044444,28.8782609 83.9044444,25.9810761 C83.9044444,25.092 83.0777778,24.1017609 81.9266667,24.1017609 C79.9977778,24.1017609 79.9977778,26.4735217 76.3844444,26.4735217 C73.5844444,26.4735217 71.9488889,24.6311957 71.9488889,22.0936522 L82.7888889,22.0936522 C84.3977778,22.0936522 84.8911111,21.6689457 84.8911111,20.0204783 C84.8911111,16.0684348 81.7355556,12.1524891 76.22,12.1524891 C71.5088889,12.1524891 68.3888889,14.7350435 67.46,18.799837 C66.6333333,14.2983043 63.58,12.1524891 60.1577778,12.1524891 C57.8288889,12.1524891 55.8866667,13.1427283 55.1,15.178913 L55.0377778,15.178913 L55.0377778,14.4235326 C55.0377778,12.944413 54.2777778,12.1524891 52.8688889,12.1524891 C51.8377778,12.1524891 51.1977778,12.5486739 50.8955556,13.2920217 C50.5577778,12.7140109 49.8955556,12.1524891 48.7622222,12.1524891 C47.4466667,12.1524891 46.7977778,13.0745435 46.4688889,14.2947391 L43.5413333,25.1887065 L43.4768889,25.1887065 L40.3857778,13.9631739 C40.0933333,12.8762283 39.2053333,12.1524891 37.9248889,12.1524891 C37.0288889,12.1524891 36.252,12.6418152 35.8675556,13.3896196 C35.4653333,12.6542935 34.6328889,12.1524891 33.8555556,12.1524891 C33.1328889,12.1524891 32.5111111,12.5491196 32.0168889,13.0745435 L26.6942222,19.002163 L26.6942222,8.07120652 C26.6942222,6.49136957 25.7426667,5.6673587 24.2973333,5.6673587 Z M83.5551111,12.4965326 L83.5551111,13.0544891 L84.4617778,13.0544891 L84.4617778,15.5229565 L85.1284444,15.5229565 L85.1284444,13.0544891 L86.0351111,13.0544891 L86.0351111,12.4965326 L83.5551111,12.4965326 L83.5551111,12.4965326 Z M86.3817778,12.4965326 L86.3817778,15.5229565 L87.004,15.5229565 L87.004,13.3971957 L87.7551111,15.5229565 L88.2573333,15.5229565 L88.9995556,13.3771413 L89.0084444,13.3771413 L89.0084444,15.5229565 L89.6306667,15.5229565 L89.6306667,12.4965326 L88.6973333,12.4965326 L88.0306667,14.5777283 L88.0217778,14.5777283 L87.3151111,12.4965326 L86.3817778,12.4965326 L86.3817778,12.4965326 Z M76.3151111,15.5109239 C78.4528889,15.5109239 80.0884444,17.1228478 80.3551111,19.3292717 L71.9506667,19.3292717 C72.4706667,16.9936087 73.9151111,15.5109239 76.3151111,15.5109239 Z M59.0706667,15.906663 C61.6351111,15.9391957 62.8884444,18.3109565 62.8884444,21.1395109 C62.8884444,23.3784674 62.1284444,26.4414348 59.0706667,26.4735217 C56.1551111,26.4735217 55.2306667,23.6088696 55.2306667,21.1395109 C55.2306667,18.4081087 56.284,15.8705652 59.0706667,15.906663 Z" id="Shape" fill="#FFFFFF" transform="translate(48.215778, 21.139734) scale(-1, 1) rotate(-180.000000) translate(-48.215778, -21.139734) "></path>
                        </g>
                    </g>
                </g>
                <path d="M267.834506,18.9295444 C267.813472,18.2709735 267.778828,17.6989134 267.736141,17.2292837 C267.700672,16.8086698 267.640251,16.3897316 267.555703,15.9766585 C267.480847,15.627264 267.387432,15.2818495 267.277107,14.943138 C266.708366,13.1856922 265.753798,11.8436237 264.446396,10.950238 C263.138994,10.0566428 261.523094,9.60000021 259.617256,9.60000021 C257.712244,9.60000021 256.125214,10.0509872 254.820287,10.950238 C253.515359,11.8494889 252.561615,13.1856922 251.990607,14.943138 C251.879457,15.2818495 251.786041,15.627264 251.710979,15.9766585 C251.626431,16.3897316 251.56601,16.8086698 251.530541,17.2292837 C251.487855,17.6989134 251.453211,18.2709735 251.432383,18.9295444 C251.411349,19.5883247 251.400007,20.3771853 251.400007,21.3001061 C251.400007,22.223027 251.400007,23.0200569 251.432383,23.6704585 C251.464552,24.321069 251.48538,24.9010889 251.530541,25.3707186 C251.56601,25.7921705 251.625606,26.2102708 251.710979,26.6235533 C251.786041,26.9729478 251.879457,27.3181528 251.990607,27.6577022 C252.559347,29.4145196 253.513091,30.7588922 254.820287,31.6499738 C256.128514,32.5410553 257.743588,33.0000021 259.617256,33.0000021 C261.490925,33.0000021 263.143943,32.5492246 264.446396,31.6499738 C265.748849,30.7507229 266.705067,29.4145196 267.277107,27.6577022 C267.387432,27.3181528 267.480847,26.9729478 267.555703,26.6235533 C267.640251,26.2102708 267.700672,25.7913326 267.736141,25.3707186 C267.778828,24.9010889 267.810997,24.3292383 267.834506,23.6704585 C267.858633,23.0118876 267.866675,22.2075263 267.866675,21.3001061 C267.866675,20.3935239 267.856166,19.5998455 267.834506,18.9295444 Z M265.233167,23.8422468 C265.211472,24.4295489 265.172809,24.9459956 265.117392,25.3810424 C265.061974,25.8150348 265.006557,26.1800692 264.951354,26.4674995 C264.907536,26.712121 264.848037,26.9535794 264.770925,27.1908201 C264.486535,28.1463204 263.894127,28.9864689 263.082628,29.5845264 C262.307428,30.1281767 261.288865,30.4000019 260.037892,30.4000019 C258.786704,30.4000019 257.784036,30.1281767 257.023013,29.5845264 C256.224401,28.9790881 255.642947,28.1397831 255.362638,27.187446 C255.285527,26.9518924 255.225813,26.7112775 255.18221,26.4674995 C255.126792,26.1718448 255.069012,25.8044907 255.016172,25.3810424 C254.963332,24.9567505 254.922092,24.4295489 254.900397,23.8422468 C254.877629,23.2557877 254.866674,22.5463851 254.866674,21.7334402 C254.866674,20.921128 254.866674,20.2119363 254.900397,19.6246337 C254.933046,19.0373311 254.960755,18.5206735 255.016172,18.0866811 C255.071375,17.6516343 255.126792,17.2712056 255.18221,16.9993805 C255.225813,16.754548 255.285527,16.5133005 255.362638,16.2760598 C255.643807,15.3254098 256.22526,14.4869484 257.023013,13.8821426 C257.787472,13.3384923 258.800236,13.0666672 260.037892,13.0666672 C261.275333,13.0666672 262.296474,13.3384923 263.082628,13.8821426 C263.893268,14.4818872 264.485676,15.3228793 264.770925,16.2794339 C264.847178,16.5149876 264.907536,16.7553915 264.951354,16.9993805 C265.006557,17.2958787 265.061974,17.6649198 265.117392,18.0866811 C265.172809,18.5075989 265.211472,19.0404943 265.233167,19.6246337 C265.255935,20.2085622 265.266675,20.9344134 265.266675,21.7334402 C265.266675,22.532467 265.258289,23.2441892 265.233167,23.8422468 Z M247.40612,10.4688234 L244.994462,10.4688234 C244.852522,10.4556932 244.711243,10.502982 244.609637,10.5981677 C244.508031,10.6933535 244.456456,10.8260304 244.468358,10.9601653 L244.468358,32.5071443 C244.456456,32.6412792 244.508031,32.7739561 244.609637,32.8691419 C244.711243,32.9643276 244.852522,33.0113998 244.994462,32.9976531 L247.40612,32.9976531 C247.54806,33.0113998 247.689339,32.9643276 247.790945,32.8691419 C247.892551,32.7739561 247.944125,32.6412792 247.931121,32.5071443 L247.931121,10.9626647 C247.944998,10.8285298 247.893212,10.6941867 247.791826,10.5990009 C247.69022,10.502982 247.548941,10.4557015 247.40612,10.4688234 Z M241.459813,10.4672433 L239.199701,10.4672433 C238.925373,10.4549504 238.679964,10.6404777 238.61696,10.9105317 L233.310726,27.657211 L227.808249,10.9153206 C227.73409,10.6396448 227.4767,10.4541258 227.193489,10.4728651 L224.964776,10.4728651 C224.819555,10.4607887 224.679086,10.5274173 224.595217,10.6469323 C224.520025,10.7828963 224.512795,10.9463445 224.576626,11.0877221 L231.716192,32.5542042 C231.769487,32.8144721 231.997957,33.0016568 232.26175,33.0000021 L234.178952,33.0000021 C234.436341,32.9966597 234.657374,32.8136392 234.711496,32.559826 L241.822142,11.0927192 C241.889071,10.9463445 241.880189,10.7754006 241.797973,10.6365216 C241.716377,10.5265844 241.587269,10.4639119 241.451757,10.4672433 L241.459805,10.4672433 L241.459813,10.4672433 Z M223.536136,17.2292837 C223.500667,16.8086698 223.440245,16.3897316 223.355696,15.9766585 C223.280839,15.627264 223.187422,15.2818495 223.077096,14.943138 C222.505049,13.1856922 221.553768,11.8436237 220.246349,10.950238 C218.938931,10.0566428 217.323011,9.60000021 215.41715,9.60000021 C213.512113,9.60000021 211.92527,10.0509872 210.62012,10.950238 C209.315176,11.8494889 208.36142,13.1856922 207.790404,14.943138 C207.679253,15.2818495 207.585836,15.627264 207.510773,15.9766585 C207.426224,16.3897316 207.365802,16.8086698 207.330333,17.2292837 C207.287646,17.701427 207.253001,18.274325 207.232174,18.9295444 C207.210314,19.5858111 207.200004,20.3771853 207.200004,21.3001061 C207.200004,22.223027 207.200004,23.0200569 207.232174,23.6704585 C207.263519,24.321069 207.285378,24.9010889 207.330333,25.3707186 C207.365802,25.7921705 207.425399,26.2102708 207.510773,26.6235533 C207.585836,26.9729478 207.679253,27.3181528 207.790404,27.6577022 C208.359152,29.4145196 209.312907,30.7588922 210.62012,31.6499738 C211.928363,32.5410553 213.543458,33.0000021 215.41715,33.0000021 C217.290841,33.0000021 218.94388,32.5492246 220.246349,31.6499738 C221.549025,30.7507229 222.505049,29.4145196 223.077096,27.6577022 C223.187422,27.3181528 223.280839,26.9729478 223.355696,26.6235533 C223.440245,26.2102708 223.500667,25.7913326 223.536136,25.3707186 C223.578823,24.8987848 223.613468,24.3258868 223.634502,23.6704585 C223.656155,23.0141918 223.666672,22.2075263 223.666672,21.3001061 C223.666672,20.3935239 223.666672,19.596494 223.634502,18.9295444 C223.60295,18.2628042 223.57078,17.7095963 223.525825,17.2292837 L223.536136,17.2292837 Z M220.166282,23.8422468 C220.144587,24.4295489 220.105924,24.9459956 220.050507,25.3810424 C219.995304,25.8150348 219.939886,26.1823889 219.884469,26.4674995 C219.840865,26.712121 219.780508,26.9535794 219.70404,27.1908201 C219.418791,28.1463204 218.826383,28.9864689 218.015957,29.5845264 C217.240543,30.1281767 216.219402,30.4000019 214.971007,30.4000019 C213.722397,30.4000019 212.717365,30.1281767 211.956343,29.5845264 C211.157516,28.9790881 210.575203,28.1397831 210.294894,27.187446 C210.218642,26.9518924 210.158284,26.7112775 210.115325,26.4674995 C210.060122,26.1718448 210.002127,25.8019602 209.949287,25.3810424 C209.896447,24.9592811 209.855421,24.4270183 209.832653,23.8422468 C209.810744,23.2581073 209.800004,22.5489157 209.800004,21.7334402 C209.800004,20.9179647 209.800004,20.2085622 209.832653,19.6246337 C209.866161,19.0404943 209.89387,18.5206735 209.949287,18.0866811 C210.004705,17.6516343 210.060122,17.2712056 210.115325,16.9993805 C210.158284,16.754548 210.218642,16.5133005 210.294894,16.2760598 C210.576062,15.3254098 211.158375,14.4869484 211.956343,13.8821426 C212.719728,13.3384923 213.733351,13.0666672 214.971007,13.0666672 C216.207803,13.0666672 217.229803,13.3384923 218.015957,13.8821426 C218.826383,14.4818872 219.418791,15.3228793 219.70404,16.2794339 C219.780508,16.5149876 219.840865,16.7553915 219.884469,16.9993805 C219.939886,17.2925046 219.995304,17.6623892 220.050507,18.0866811 C220.105924,18.5101294 220.144587,19.0404943 220.166282,19.6246337 C220.18905,20.2085622 220.200005,20.9344134 220.200005,21.7334402 C220.200005,22.532467 220.191619,23.2416587 220.166282,23.8422468 Z M199.766829,23.1673813 C201.02927,22.7581315 202.135877,21.985243 202.940412,20.9503514 C203.783957,19.8129911 204.22012,18.4357043 204.179403,17.0315507 C204.188578,16.1105825 204.006942,15.1977369 203.646457,14.3475804 C203.310915,13.5542815 202.802912,12.8417912 202.157622,12.2592612 C201.486324,11.6742319 200.704386,11.2243695 199.855085,10.9354996 C198.898981,10.6149727 197.893207,10.4571043 196.882316,10.4685592 L188.640637,10.4685592 C188.503351,10.4562629 188.367556,10.5043815 188.270134,10.5987277 C188.172711,10.6939069 188.122828,10.8257415 188.135192,10.9598671 L188.135192,32.5053564 C188.122828,32.639482 188.172711,32.7721497 188.270986,32.8673289 C188.369262,32.9625081 188.505909,33.0095771 188.643195,32.9958313 L190.97579,32.9958313 C191.113077,33.0095771 191.249724,32.9625081 191.347999,32.8673289 C191.446274,32.7721497 191.496158,32.639482 191.483581,32.5053564 L191.483581,23.6261992 C191.483581,23.6122368 191.483581,23.6018316 191.483581,23.5993324 L196.38753,23.5993324 L200.868534,32.5695034 C200.948475,32.8258833 201.190646,33.0006215 201.464793,32.9991636 L204.168531,32.9991636 C204.324364,33.0089606 204.47167,32.9323091 204.549906,32.8006827 C204.62665,32.6615586 204.614073,32.4930685 204.520061,32.3653992 L199.766829,23.1673813 L199.766829,23.1673813 Z M191.629318,19.9920051 L191.601305,19.9920051 C191.599568,19.9823771 191.599568,19.9719126 191.601305,19.9622764 L191.601305,13.0931154 C191.601305,13.0795837 191.601305,13.0691275 191.601305,13.0666672 L197.027581,13.0666672 C198.333988,13.0666672 199.358743,13.3703093 200.069493,13.9724681 C200.780459,14.5748318 201.133336,15.4308116 201.133336,16.5330266 C201.133336,17.6348315 200.774379,18.4990123 200.069493,19.0933801 C199.363738,19.6875428 198.337462,20.0000011 197.027581,20.0000011 L191.631924,20.0000011 L191.629318,19.9919969 L191.629318,19.9920051 Z M181.24908,21.6673117 C182.892041,20.2674512 183.761248,18.4904594 183.799177,15.9393894 C183.847642,12.7599802 181.756908,9.58824155 178.06936,8.27318236 C175.929318,7.55407595 173.701196,7.14114906 171.44821,7.04889037 C169.487699,6.94469984 167.522131,7.00712893 165.572156,7.23532537 C165.020498,7.28774024 164.475795,7.39086542 163.942259,7.54235717 C163.804029,7.59732886 163.72501,7.6689199 163.755564,7.70471542 C163.840272,7.7428547 163.934041,7.75713029 164.027178,7.74626379 C164.173627,7.74626379 164.819685,7.68809607 165.927635,7.69384893 C167.581342,7.71217282 169.229992,7.86451685 170.858835,8.14917645 C175.391779,8.91324033 178.145218,10.9557156 177.91954,14.3473411 C177.743381,17.0322181 173.186625,18.2682288 169.034025,19.9318682 C165.292113,21.4318709 163.624498,23.2770447 163.152071,25.1929568 C162.608842,27.3519805 163.603216,29.5866437 164.83296,31.5366472 C165.104574,31.9787645 165.395153,32.4098022 165.699639,32.8076012 C165.754847,32.9115787 165.855149,32.9831697 165.971254,33 C165.985372,32.9232974 165.978629,32.8451013 165.952289,32.7718057 C165.833866,32.3081685 165.757376,31.8355824 165.724293,31.3576696 C165.702168,30.0119285 166.416499,28.8724378 168.168189,27.7440267 C169.577254,26.8384853 171.657452,25.9404013 174.563029,24.9515501 C177.468606,23.9626994 179.700731,22.98578 181.24908,21.6673117 Z M183.391206,32.6116422 C182.469841,32.2899342 181.600782,31.8384721 180.811341,31.271261 C179.817711,30.557819 178.894455,29.5994918 178.761481,28.5109984 C178.529354,26.5978452 179.056839,25.6926554 179.200527,25.4506536 C179.249683,25.3853646 179.27195,25.3033929 179.262917,25.2228629 C179.184981,25.192381 179.098853,25.192381 179.021757,25.2228629 C178.658967,25.2945367 176.641878,25.9976807 175.464438,27.0596053 C174.703776,27.7466846 174.110539,28.6092409 174.303383,29.7830012 C174.489505,30.8947679 175.399526,31.7041868 176.352192,32.1715078 C177.389516,32.6888768 178.721358,32.898955 180.009715,32.9681572 C181.092834,33.0235602 182.178474,33.0066716 183.258232,32.9174913 C183.447085,32.9174913 183.633416,32.8715625 183.800002,32.7846478 C183.67522,32.7049416 183.538255,32.6454195 183.393727,32.6091707 L183.391206,32.6116422 L183.391206,32.6116422 Z" id="path3090" fill="#FFFFFF"></path>
                <path d="M6.516,16.356 L1.392,16.356 L1.392,19.152 L6.252,19.152 L6.252,20.436 L1.392,20.436 L1.392,24.564 L-5.1159077e-13,24.564 L-5.1159077e-13,15.084 L6.516,15.084 L6.516,16.356 Z M13.818,21.24 C13.818,22.296 13.482,23.1 12.918,23.688 C12.33,24.312 11.454,24.684 10.278,24.684 C9.114,24.684 8.214,24.348 7.602,23.712 C7.062,23.136 6.726,22.356 6.726,21.24 C6.726,20.28 7.014,19.44 7.614,18.816 C8.178,18.216 9.03,17.808 10.29,17.808 C11.526,17.808 12.378,18.18 12.954,18.78 C13.554,19.392 13.818,20.256 13.818,21.24 Z M12.546,21.252 C12.546,20.568 12.438,19.944 12.066,19.548 C11.706,19.188 11.13,18.948 10.278,18.948 C9.45,18.948 8.91,19.212 8.526,19.632 C8.118,20.076 8.022,20.64 8.022,21.252 C8.022,22.008 8.19,22.572 8.502,22.92 C8.91,23.364 9.486,23.58 10.29,23.58 C11.046,23.58 11.658,23.352 12.03,22.92 C12.366,22.548 12.546,21.984 12.546,21.252 Z M19.668,17.952 L19.668,19.284 C19.26,19.152 18.804,19.092 18.192,19.092 C17.1,19.092 16.212,19.836 16.212,21.096 L16.212,24.564 L14.904,24.564 L14.904,17.964 L16.188,17.964 L16.188,19.092 C16.368,18.348 17.376,17.82 18.432,17.82 C19.032,17.82 19.392,17.88 19.668,17.952 Z M29.142,24.564 C29.082,24.564 29.082,24.516 29.082,20.388 C29.082,19.536 28.77,19.008 27.606,19.008 C26.742,19.008 26.022,19.5 26.022,20.424 L26.022,24.564 L24.798,24.564 L24.798,20.292 C24.798,19.488 24.306,19.008 23.358,19.008 C22.35,19.008 21.726,19.74 21.726,20.46 L21.726,24.564 L20.43,24.564 L20.43,17.964 L21.69,17.964 L21.69,18.972 C21.99,18.276 22.914,17.832 23.886,17.832 C24.858,17.832 25.59,18.228 25.83,19.008 C26.166,18.168 27.066,17.832 28.05,17.832 C29.61,17.832 30.27,18.72 30.27,19.98 C30.27,24.504 30.27,24.564 30.342,24.564 L29.142,24.564 Z M38.196,22.5 C38.196,22.944 37.836,23.58 37.224,24.048 C36.696,24.444 35.916,24.684 34.872,24.684 C33.66,24.684 32.7,24.324 32.028,23.472 C31.584,22.908 31.368,22.2 31.368,21.228 C31.368,20.304 31.608,19.596 32.04,19.032 C32.628,18.288 33.576,17.808 34.836,17.808 C36.192,17.808 37.104,18.288 37.644,19.02 C38.148,19.656 38.34,20.736 38.232,21.732 L32.64,21.732 C32.664,22.26 32.856,22.668 33.204,23.016 C33.576,23.376 34.176,23.592 34.884,23.592 C35.556,23.592 36.084,23.448 36.408,23.244 C36.804,22.992 36.936,22.656 36.936,22.5 L38.196,22.5 Z M36.948,20.736 C36.948,20.232 36.828,19.812 36.516,19.5 C36.168,19.152 35.64,18.924 34.836,18.924 C34.068,18.924 33.552,19.164 33.192,19.5 C32.856,19.8 32.688,20.22 32.652,20.736 L36.948,20.736 Z M44.01,17.952 L44.01,19.284 C43.602,19.152 43.146,19.092 42.534,19.092 C41.442,19.092 40.554,19.836 40.554,21.096 L40.554,24.564 L39.246,24.564 L39.246,17.964 L40.53,17.964 L40.53,19.092 C40.71,18.348 41.718,17.82 42.774,17.82 C43.374,17.82 43.734,17.88 44.01,17.952 Z M46.092,24.564 L44.808,24.564 C44.784,24.54 44.772,24.456 44.772,24.12 L44.772,15.696 C44.772,15.396 44.76,15.108 44.736,15 L46.02,15 C46.044,15.084 46.056,15.3 46.056,15.588 L46.056,23.952 C46.056,24.288 46.056,24.504 46.092,24.564 Z M54.066,17.964 L50.214,26.64 L48.846,26.64 L49.77,24.564 L46.806,17.964 L48.21,17.964 C48.21,17.964 50.466,23.232 50.466,23.28 C50.466,23.232 52.722,17.964 52.722,17.964 L54.066,17.964 Z" id="Formerly" fill="#EFEFF1" fill-rule="nonzero"></path>
            </g>
        </g>
    </g>
</svg>