<?xml version="1.0" encoding="UTF-8"?>
<svg width="105px" height="26px" viewBox="0 0 105 26" version="1.1" xmlns="http://www.w3.org/2000/svg" xmlns:xlink="http://www.w3.org/1999/xlink">
    <!-- Generator: Sketch 57.1 (83088) - https://sketch.com -->
    <title>path3090</title>
    <desc>Created with Sketch.</desc>
    <g id="Page-1" stroke="none" stroke-width="1" fill="none" fill-rule="evenodd">
        <g id="version-2-copy" transform="translate(-734.000000, -2318.000000)" fill="#FFFFFF">
            <path d="M838.834506,2329.92954 C838.813472,2329.27097 838.778828,2328.69891 838.736141,2328.22928 C838.700672,2327.80867 838.640251,2327.38973 838.555703,2326.97666 C838.480847,2326.62726 838.387432,2326.28185 838.277107,2325.94314 C837.708366,2324.18569 836.753798,2322.84362 835.446396,2321.95024 C834.138994,2321.05664 832.523094,2320.6 830.617256,2320.6 C828.712244,2320.6 827.125214,2321.05099 825.820287,2321.95024 C824.515359,2322.84949 823.561615,2324.18569 822.990607,2325.94314 C822.879457,2326.28185 822.786041,2326.62726 822.710979,2326.97666 C822.626431,2327.38973 822.56601,2327.80867 822.530541,2328.22928 C822.487855,2328.69891 822.453211,2329.27097 822.432383,2329.92954 C822.411349,2330.58832 822.400007,2331.37719 822.400007,2332.30011 C822.400007,2333.22303 822.400007,2334.02006 822.432383,2334.67046 C822.464552,2335.32107 822.48538,2335.90109 822.530541,2336.37072 C822.56601,2336.79217 822.625606,2337.21027 822.710979,2337.62355 C822.786041,2337.97295 822.879457,2338.31815 822.990607,2338.6577 C823.559347,2340.41452 824.513091,2341.75889 825.820287,2342.64997 C827.128514,2343.54106 828.743588,2344 830.617256,2344 C832.490925,2344 834.143943,2343.54922 835.446396,2342.64997 C836.748849,2341.75072 837.705067,2340.41452 838.277107,2338.6577 C838.387432,2338.31815 838.480847,2337.97295 838.555703,2337.62355 C838.640251,2337.21027 838.700672,2336.79133 838.736141,2336.37072 C838.778828,2335.90109 838.810997,2335.32924 838.834506,2334.67046 C838.858633,2334.01189 838.866675,2333.20753 838.866675,2332.30011 C838.866675,2331.39352 838.856166,2330.59985 838.834506,2329.92954 Z M836.233167,2334.84225 C836.211472,2335.42955 836.172809,2335.946 836.117392,2336.38104 C836.061974,2336.81503 836.006557,2337.18007 835.951354,2337.4675 C835.907536,2337.71212 835.848037,2337.95358 835.770925,2338.19082 C835.486535,2339.14632 834.894127,2339.98647 834.082628,2340.58453 C833.307428,2341.12818 832.288865,2341.4 831.037892,2341.4 C829.786704,2341.4 828.784036,2341.12818 828.023013,2340.58453 C827.224401,2339.97909 826.642947,2339.13978 826.362638,2338.18745 C826.285527,2337.95189 826.225813,2337.71128 826.18221,2337.4675 C826.126792,2337.17184 826.069012,2336.80449 826.016172,2336.38104 C825.963332,2335.95675 825.922092,2335.42955 825.900397,2334.84225 C825.877629,2334.25579 825.866674,2333.54639 825.866674,2332.73344 C825.866674,2331.92113 825.866674,2331.21194 825.900397,2330.62463 C825.933046,2330.03733 825.960755,2329.52067 826.016172,2329.08668 C826.071375,2328.65163 826.126792,2328.27121 826.18221,2327.99938 C826.225813,2327.75455 826.285527,2327.5133 826.362638,2327.27606 C826.643807,2326.32541 827.22526,2325.48695 828.023013,2324.88214 C828.787472,2324.33849 829.800236,2324.06667 831.037892,2324.06667 C832.275333,2324.06667 833.296474,2324.33849 834.082628,2324.88214 C834.893268,2325.48189 835.485676,2326.32288 835.770925,2327.27943 C835.847178,2327.51499 835.907536,2327.75539 835.951354,2327.99938 C836.006557,2328.29588 836.061974,2328.66492 836.117392,2329.08668 C836.172809,2329.5076 836.211472,2330.04049 836.233167,2330.62463 C836.255935,2331.20856 836.266675,2331.93441 836.266675,2332.73344 C836.266675,2333.53247 836.258289,2334.24419 836.233167,2334.84225 Z M818.40612,2321.46882 L815.994462,2321.46882 C815.852522,2321.45569 815.711243,2321.50298 815.609637,2321.59817 C815.508031,2321.69335 815.456456,2321.82603 815.468358,2321.96017 L815.468358,2343.50714 C815.456456,2343.64128 815.508031,2343.77396 815.609637,2343.86914 C815.711243,2343.96433 815.852522,2344.0114 815.994462,2343.99765 L818.40612,2343.99765 C818.54806,2344.0114 818.689339,2343.96433 818.790945,2343.86914 C818.892551,2343.77396 818.944125,2343.64128 818.931121,2343.50714 L818.931121,2321.96266 C818.944998,2321.82853 818.893212,2321.69419 818.791826,2321.599 C818.69022,2321.50298 818.548941,2321.4557 818.40612,2321.46882 Z M812.459813,2321.46724 L810.199701,2321.46724 C809.925373,2321.45495 809.679964,2321.64048 809.61696,2321.91053 L804.310726,2338.65721 L798.808249,2321.91532 C798.73409,2321.63964 798.4767,2321.45413 798.193489,2321.47287 L795.964776,2321.47287 C795.819555,2321.46079 795.679086,2321.52742 795.595217,2321.64693 C795.520025,2321.7829 795.512795,2321.94634 795.576626,2322.08772 L802.716192,2343.5542 C802.769487,2343.81447 802.997957,2344.00166 803.26175,2344 L805.178952,2344 C805.436341,2343.99666 805.657374,2343.81364 805.711496,2343.55983 L812.822142,2322.09272 C812.889071,2321.94634 812.880189,2321.7754 812.797973,2321.63652 C812.716377,2321.52658 812.587269,2321.46391 812.451757,2321.46724 L812.459805,2321.46724 L812.459813,2321.46724 Z M794.536136,2328.22928 C794.500667,2327.80867 794.440245,2327.38973 794.355696,2326.97666 C794.280839,2326.62726 794.187422,2326.28185 794.077096,2325.94314 C793.505049,2324.18569 792.553768,2322.84362 791.246349,2321.95024 C789.938931,2321.05664 788.323011,2320.6 786.41715,2320.6 C784.512113,2320.6 782.92527,2321.05099 781.62012,2321.95024 C780.315176,2322.84949 779.36142,2324.18569 778.790404,2325.94314 C778.679253,2326.28185 778.585836,2326.62726 778.510773,2326.97666 C778.426224,2327.38973 778.365802,2327.80867 778.330333,2328.22928 C778.287646,2328.70143 778.253001,2329.27433 778.232174,2329.92954 C778.210314,2330.58581 778.200004,2331.37719 778.200004,2332.30011 C778.200004,2333.22303 778.200004,2334.02006 778.232174,2334.67046 C778.263519,2335.32107 778.285378,2335.90109 778.330333,2336.37072 C778.365802,2336.79217 778.425399,2337.21027 778.510773,2337.62355 C778.585836,2337.97295 778.679253,2338.31815 778.790404,2338.6577 C779.359152,2340.41452 780.312907,2341.75889 781.62012,2342.64997 C782.928363,2343.54106 784.543458,2344 786.41715,2344 C788.290841,2344 789.94388,2343.54922 791.246349,2342.64997 C792.549025,2341.75072 793.505049,2340.41452 794.077096,2338.6577 C794.187422,2338.31815 794.280839,2337.97295 794.355696,2337.62355 C794.440245,2337.21027 794.500667,2336.79133 794.536136,2336.37072 C794.578823,2335.89878 794.613468,2335.32589 794.634502,2334.67046 C794.656155,2334.01419 794.666672,2333.20753 794.666672,2332.30011 C794.666672,2331.39352 794.666672,2330.59649 794.634502,2329.92954 C794.60295,2329.2628 794.57078,2328.7096 794.525825,2328.22928 L794.536136,2328.22928 Z M791.166282,2334.84225 C791.144587,2335.42955 791.105924,2335.946 791.050507,2336.38104 C790.995304,2336.81503 790.939886,2337.18239 790.884469,2337.4675 C790.840865,2337.71212 790.780508,2337.95358 790.70404,2338.19082 C790.418791,2339.14632 789.826383,2339.98647 789.015957,2340.58453 C788.240543,2341.12818 787.219402,2341.4 785.971007,2341.4 C784.722397,2341.4 783.717365,2341.12818 782.956343,2340.58453 C782.157516,2339.97909 781.575203,2339.13978 781.294894,2338.18745 C781.218642,2337.95189 781.158284,2337.71128 781.115325,2337.4675 C781.060122,2337.17184 781.002127,2336.80196 780.949287,2336.38104 C780.896447,2335.95928 780.855421,2335.42702 780.832653,2334.84225 C780.810744,2334.25811 780.800004,2333.54892 780.800004,2332.73344 C780.800004,2331.91796 780.800004,2331.20856 780.832653,2330.62463 C780.866161,2330.04049 780.89387,2329.52067 780.949287,2329.08668 C781.004705,2328.65163 781.060122,2328.27121 781.115325,2327.99938 C781.158284,2327.75455 781.218642,2327.5133 781.294894,2327.27606 C781.576062,2326.32541 782.158375,2325.48695 782.956343,2324.88214 C783.719728,2324.33849 784.733351,2324.06667 785.971007,2324.06667 C787.207803,2324.06667 788.229803,2324.33849 789.015957,2324.88214 C789.826383,2325.48189 790.418791,2326.32288 790.70404,2327.27943 C790.780508,2327.51499 790.840865,2327.75539 790.884469,2327.99938 C790.939886,2328.2925 790.995304,2328.66239 791.050507,2329.08668 C791.105924,2329.51013 791.144587,2330.04049 791.166282,2330.62463 C791.18905,2331.20856 791.200005,2331.93441 791.200005,2332.73344 C791.200005,2333.53247 791.191619,2334.24166 791.166282,2334.84225 Z M770.766829,2334.16738 C772.02927,2333.75813 773.135877,2332.98524 773.940412,2331.95035 C774.783957,2330.81299 775.22012,2329.4357 775.179403,2328.03155 C775.188578,2327.11058 775.006942,2326.19774 774.646457,2325.34758 C774.310915,2324.55428 773.802912,2323.84179 773.157622,2323.25926 C772.486324,2322.67423 771.704386,2322.22437 770.855085,2321.9355 C769.898981,2321.61497 768.893207,2321.4571 767.882316,2321.46856 L759.640637,2321.46856 C759.503351,2321.45626 759.367556,2321.50438 759.270134,2321.59873 C759.172711,2321.69391 759.122828,2321.82574 759.135192,2321.95987 L759.135192,2343.50536 C759.122828,2343.63948 759.172711,2343.77215 759.270986,2343.86733 C759.369262,2343.96251 759.505909,2344.00958 759.643195,2343.99583 L761.97579,2343.99583 C762.113077,2344.00958 762.249724,2343.96251 762.347999,2343.86733 C762.446274,2343.77215 762.496158,2343.63948 762.483581,2343.50536 L762.483581,2334.6262 C762.483581,2334.61224 762.483581,2334.60183 762.483581,2334.59933 L767.38753,2334.59933 L771.868534,2343.5695 C771.948475,2343.82588 772.190646,2344.00062 772.464793,2343.99916 L775.168531,2343.99916 C775.324364,2344.00896 775.47167,2343.93231 775.549906,2343.80068 C775.62665,2343.66156 775.614073,2343.49307 775.520061,2343.3654 L770.766829,2334.16738 L770.766829,2334.16738 Z M762.629318,2330.99201 L762.601305,2330.99201 C762.599568,2330.98238 762.599568,2330.97191 762.601305,2330.96228 L762.601305,2324.09312 C762.601305,2324.07958 762.601305,2324.06913 762.601305,2324.06667 L768.027581,2324.06667 C769.333988,2324.06667 770.358743,2324.37031 771.069493,2324.97247 C771.780459,2325.57483 772.133336,2326.43081 772.133336,2327.53303 C772.133336,2328.63483 771.774379,2329.49901 771.069493,2330.09338 C770.363738,2330.68754 769.337462,2331 768.027581,2331 L762.631924,2331 L762.629318,2330.992 L762.629318,2330.99201 Z M752.24908,2332.66731 C753.892041,2331.26745 754.761248,2329.49046 754.799177,2326.93939 C754.847642,2323.75998 752.756908,2320.58824 749.06936,2319.27318 C746.929318,2318.55408 744.701196,2318.14115 742.44821,2318.04889 C740.487699,2317.9447 738.522131,2318.00713 736.572156,2318.23533 C736.020498,2318.28774 735.475795,2318.39087 734.942259,2318.54236 C734.804029,2318.59733 734.72501,2318.66892 734.755564,2318.70472 C734.840272,2318.74285 734.934041,2318.75713 735.027178,2318.74626 C735.173627,2318.74626 735.819685,2318.6881 736.927635,2318.69385 C738.581342,2318.71217 740.229992,2318.86452 741.858835,2319.14918 C746.391779,2319.91324 749.145218,2321.95572 748.91954,2325.34734 C748.743381,2328.03222 744.186625,2329.26823 740.034025,2330.93187 C736.292113,2332.43187 734.624498,2334.27704 734.152071,2336.19296 C733.608842,2338.35198 734.603216,2340.58664 735.83296,2342.53665 C736.104574,2342.97876 736.395153,2343.4098 736.699639,2343.8076 C736.754847,2343.91158 736.855149,2343.98317 736.971254,2344 C736.985372,2343.9233 736.978629,2343.8451 736.952289,2343.77181 C736.833866,2343.30817 736.757376,2342.83558 736.724293,2342.35767 C736.702168,2341.01193 737.416499,2339.87244 739.168189,2338.74403 C740.577254,2337.83849 742.657452,2336.9404 745.563029,2335.95155 C748.468606,2334.9627 750.700731,2333.98578 752.24908,2332.66731 Z M754.391206,2343.61164 C753.469841,2343.28993 752.600782,2342.83847 751.811341,2342.27126 C750.817711,2341.55782 749.894455,2340.59949 749.761481,2339.511 C749.529354,2337.59785 750.056839,2336.69266 750.200527,2336.45065 C750.249683,2336.38536 750.27195,2336.30339 750.262917,2336.22286 C750.184981,2336.19238 750.098853,2336.19238 750.021757,2336.22286 C749.658967,2336.29454 747.641878,2336.99768 746.464438,2338.05961 C745.703776,2338.74668 745.110539,2339.60924 745.303383,2340.783 C745.489505,2341.89477 746.399526,2342.70419 747.352192,2343.17151 C748.389516,2343.68888 749.721358,2343.89896 751.009715,2343.96816 C752.092834,2344.02356 753.178474,2344.00667 754.258232,2343.91749 C754.447085,2343.91749 754.633416,2343.87156 754.800002,2343.78465 C754.67522,2343.70494 754.538255,2343.64542 754.393727,2343.60917 L754.391206,2343.61164 L754.391206,2343.61164 Z" id="path3090"></path>
        </g>
    </g>
</svg>