<?xml version="1.0" encoding="utf-8"?>
<!-- Generator: Adobe Illustrator 23.0.2, SVG Export Plug-In . SVG Version: 6.00 Build 0)  -->
<svg version="1.1" id="Layer_1" xmlns="http://www.w3.org/2000/svg" xmlns:xlink="http://www.w3.org/1999/xlink" x="0px" y="0px"
	 viewBox="0 0 158.3 36.6" style="enable-background:new 0 0 158.3 36.6;" xml:space="preserve">
<style type="text/css">
	.st0{fill:#FFFFFF;}
</style>
<g>
	<g>
		<path class="st0" d="M0,26h2v10.5H0V26z"/>
		<path class="st0" d="M13.9,26h2l4.4,6.6c0,0,0.4,0.6,0.4,0.8V26h1.9v10.5h-2l-4.4-6.7c0,0-0.4-0.6-0.4-0.8v7.5h-1.9V26z"/>
		<path class="st0" d="M38.9,30.2c2.3,0.5,3.4,1.4,3.4,3.2c0,1.7-1.5,3.2-3.9,3.2c-2.6,0-4-1.4-4.4-3.3l1.7-0.9
			c0.3,1.6,1.1,2.5,2.6,2.5c1.2,0,1.9-0.6,1.9-1.4c0-1-0.9-1.4-2.6-1.7c-1.9-0.4-3.3-1.4-3.3-3.1c0-1.7,1.5-2.9,3.7-2.9
			c2,0,3.3,0.9,4,2.7l-1.6,0.9c-0.4-1.2-1.2-1.9-2.5-1.9c-0.9,0-1.7,0.3-1.7,1.1C36.4,29.4,37.1,29.9,38.9,30.2z"/>
		<path class="st0" d="M52.7,26h8.4v1.8h-3.2v8.6h-2v-8.6h-3.2V26z"/>
		<path class="st0" d="M72.3,26h2v10.5h-2V26z"/>
		<path class="st0" d="M85.4,26h8.4v1.8h-3.2v8.6h-2v-8.6h-3.2V26z"/>
		<path class="st0" d="M113.4,32.5c0,2.7-1.8,4.2-4.3,4.2c-2.4,0-4.3-1.5-4.3-4.2V26h2v6.3c0,1.6,0.9,2.5,2.3,2.5
			c1.4,0,2.3-0.9,2.3-2.5V26h2V32.5z"/>
		<path class="st0" d="M124.5,26h8.4v1.8h-3.2v8.6h-2v-8.6h-3.2V26z"/>
		<path class="st0" d="M144,26h7.2v1.8H146v2.4h4.8v1.8H146v2.8h5.3v1.8H144V26z"/>
	</g>
	<g>
		<path class="st0" d="M9.3,0H0.4v19.6h3.7v-6.8h5.2c4.4,0,7.3-2.3,7.3-6.4C16.7,2.3,13.8,0,9.3,0z M9.2,9.5H4.1V3.3h5.1
			c2.6,0,3.8,1.2,3.8,3.1C13,8.2,11.8,9.5,9.2,9.5z"/>
		<path class="st0" d="M22.6,7.9V5.7H19v13.9h3.5v-6.9c0-2.4,1.3-4.1,3.4-4.1c0.4,0,0.8,0.1,1.1,0.2l0.6-3.3
			c-0.4-0.1-0.8-0.2-1.2-0.2C24.6,5.3,23.3,6.3,22.6,7.9z"/>
		<path class="st0" d="M36,5.3c-3.8,0-7.6,2.5-7.6,7.3c0,4.9,3.8,7.3,7.6,7.3c3.8,0,7.6-2.5,7.6-7.3C43.6,7.8,39.8,5.3,36,5.3z
			 M36,16.7c-2.1,0-4-1.5-4-4s1.9-4,4-4s4,1.5,4,4S38.1,16.7,36,16.7z"/>
		<path class="st0" d="M56.7,7.4c-0.8-1.3-2.3-2.1-4.4-2.1c-3.4,0-6.8,2.7-6.8,7.3s3.1,7.3,6.8,7.3c2.1,0,3.6-1.1,4.4-2.4v2h3.5V0
			h-3.5V7.4z M53,16.7c-2.2,0-3.9-1.7-3.9-4s1.7-4,3.9-4c2.2,0,3.9,1.7,3.9,4S55.3,16.7,53,16.7z"/>
		<path class="st0" d="M73.1,12.9c0,2.2-1.3,3.8-3.2,3.8s-2.8-1.1-2.8-3.2V5.7h-3.5v8.6c0,3.7,2.2,5.7,5.2,5.7c2,0,3.5-0.9,4.4-2.6
			v2.2h3.5V5.7h-3.5V12.9z"/>
		<path class="st0" d="M86.7,16.7c-2.1,0-3.7-1.5-3.7-4c0-2.5,1.6-4,3.7-4c1.5,0,2.7,0.6,3.5,2.4l2.9-1.9c-1-2.4-3.3-3.8-6.4-3.8
			c-3.9,0-7.3,2.9-7.3,7.3s3.2,7.3,7.3,7.3c2.9,0,5.2-1.4,6.5-4l-2.9-1.8C89.6,15.8,88.5,16.7,86.7,16.7z"/>
		<path class="st0" d="M102,16.9c-1.1,0-1.8-0.5-1.8-2V8.6h3V5.7h-3V2h-3.5v3.8h-2.2v2.9h2.2v7c0,3.4,2,4.4,4.5,4.4
			c0.8,0,1.7-0.2,2.4-0.4l-0.3-2.9C102.9,16.8,102.5,16.9,102,16.9z"/>
		<polygon class="st0" points="110.1,0 106.4,0 106.4,19.6 119.9,19.6 119.9,16.2 110.1,16.2 		"/>
		<path class="st0" d="M128,17c-2.1,0-3.6-1.3-3.8-3.5h10.7v-1.2c0-4.1-2.8-6.9-6.8-6.9c-4,0-7.3,2.9-7.3,7.3c0,4.4,3.3,7.3,7.1,7.3
			c1.9,0,3.5-0.5,4.7-1.5l-2.2-2.2C129.8,16.7,129,17,128,17z M128,8c2,0,3.3,1.1,3.6,2.9h-7.5C124.7,9.3,126.2,8,128,8z"/>
		<path class="st0" d="M148.2,7.4c-0.8-1.3-2.3-2.1-4.4-2.1c-3.4,0-6.8,2.7-6.8,7.3s3.1,7.3,6.8,7.3c2.1,0,3.6-1.1,4.4-2.4v2h3.5V0
			h-3.5V7.4z M144.5,16.7c-2.2,0-3.9-1.7-3.9-4s1.7-4,3.9-4c2.2,0,3.9,1.7,3.9,4S146.7,16.7,144.5,16.7z"/>
		<path class="st0" d="M156.4,15.9L156.4,15.9c-1,0-1.9,0.8-1.9,1.9s0.8,1.9,1.9,1.9h0c1,0,1.9-0.8,1.9-1.9S157.5,15.9,156.4,15.9z"
			/>
	</g>
</g>
</svg>
