<?xml version="1.0" encoding="UTF-8"?>
<svg width="20px" height="20px" viewBox="0 0 20 20" version="1.1" xmlns="http://www.w3.org/2000/svg" xmlns:xlink="http://www.w3.org/1999/xlink" xmlns:sketch="http://www.bohemiancoding.com/sketch/ns">
    <!-- Generator: Sketch 3.4.2 (15855) - http://www.bohemiancoding.com/sketch -->
    <title>Shape</title>
    <desc>Created with Sketch.</desc>
    <defs></defs>
    <g id="Page-1" stroke="none" stroke-width="1" fill="none" fill-rule="evenodd" sketch:type="MSPage">
        <path d="M10,17.2 C7.5,17.2 5.29,15.92 4,14 C4.03,12 8,10.9 10,10.9 C12,10.9 15.97,12 16,14 C14.71,15.92 12.5,17.2 10,17.2 L10,17.2 Z M10,3 C11.6568542,3 13,4.34314575 13,6 C13,7.65685425 11.6568542,9 10,9 C8.34314575,9 7,7.65685425 7,6 C7,4.34314575 8.34314575,3 10,3 L10,3 Z M10,0 C4.4771525,-2.22044605e-15 0,4.4771525 -4.4408921e-16,10 C-1.77635684e-15,12.6521649 1.0535684,15.195704 2.92893219,17.0710678 C4.80429597,18.9464316 7.3478351,20 10,20 C12.6521649,20 15.195704,18.9464316 17.0710678,17.0710678 C18.9464316,15.195704 20,12.6521649 20,10 C20,4.47 15.5,0 10,0 L10,0 Z" id="Shape" fill="#EEECF2" sketch:type="MSShapeGroup"></path>
    </g>
</svg>