<?xml version="1.0" encoding="UTF-8"?>
<svg width="92px" height="48px" viewBox="0 0 92 48" version="1.1" xmlns="http://www.w3.org/2000/svg" xmlns:xlink="http://www.w3.org/1999/xlink">
    <!-- Generator: Sketch 45 (43475) - http://www.bohemiancoding.com/sketch -->
    <title>Page 1</title>
    <desc>Created with Sketch.</desc>
    <defs>
        <polygon id="path-1" points="11.8301099 18.6500623 0.0778906883 18.6500623 0.0778906883 0.058203736 11.8301099 0.058203736 11.8301099 18.6500623"></polygon>
        <polygon id="path-3" points="8.07510245 0.141934745 8.07510245 13.2746869 0.131773628 13.2746869 0.131773628 0.141934745 8.07510245 0.141934745"></polygon>
    </defs>
    <g id="Page-1" stroke="none" stroke-width="1" fill="none" fill-rule="evenodd">
        <g id="payment-methods-ver-two" transform="translate(-575.000000, -469.000000)">
            <g id="Group-4" transform="translate(546.000000, 418.000000)">
                <g id="Page-1" transform="translate(29.090909, 51.818182)">
                    <g id="Group-3" transform="translate(0.000000, 27.266780)" fill="#F7981C">
                        <path d="M3.83455249,11.4955875 C3.11010461,11.4955875 2.54856167,11.3588204 1.88084303,11.0203995 L1.88084303,2.20047422 C2.5569944,1.99027248 3.1829327,1.89585654 3.88476555,1.89585654 C6.48817827,1.89585654 8.04248313,3.65323636 8.04248313,6.59411806 C8.04248313,9.66244184 6.46939629,11.4955875 3.83455249,11.4955875 M3.90891381,0.143139228 C2.70035075,0.143139228 1.37449613,0.400743213 0.176282319,0.872434371 C0.070873235,0.912842839 -3.8330576e-05,1.01774944 -3.8330576e-05,1.13353524 L-3.8330576e-05,18.7578441 C-3.8330576e-05,18.9120956 0.124536041,19.0379836 0.276708428,19.0379836 L1.60447958,19.0379836 C1.75665197,19.0379836 1.88084303,18.9120956 1.88084303,18.7578441 L1.88084303,12.9277569 C2.49144911,13.1500035 3.1829327,13.2743372 3.83455249,13.2743372 C7.46330812,13.2743372 9.99964234,10.5479313 9.99964234,6.64307447 C9.99964234,2.5719213 7.72280612,0.143139228 3.90891381,0.143139228" id="Fill-1"></path>
                    </g>
                    <path d="M18.4222498,34.2508394 L18.4222498,37.0495143 C17.7169672,37.8083387 16.6345117,38.7633773 15.1928988,38.7633773 C13.9134241,38.7633773 13.0885501,37.8957609 13.0885501,36.5517908 C13.0885501,35.7579975 13.443108,35.1324433 14.0916613,34.7940224 C14.670453,34.4870735 15.3830184,34.3398157 16.402995,34.3192229 L18.4222498,34.2508394 Z M20.3031312,35.4599851 L20.3031312,31.6503213 C20.3031312,28.9549988 18.7610921,27.4093748 16.0676025,27.4093748 C15.0629581,27.4093748 13.534718,27.6265704 11.9597147,28.6744707 C11.8370568,28.7548991 11.7991096,28.916533 11.8681046,29.0459178 L12.4457464,30.0868244 C12.4817771,30.1536538 12.544256,30.2006675 12.6151675,30.2200946 C12.6876123,30.2395218 12.7654234,30.2305853 12.8294354,30.1886227 C13.6868904,29.6609813 14.5773097,29.1900672 16.0173895,29.1900672 C17.5682446,29.1900672 18.4222498,30.1256787 18.4222498,31.8290511 L18.4222498,32.4720897 L16.3079352,32.5404732 C15.0629581,32.5913724 14.1261588,32.7036613 13.2963019,33.099198 C11.9010689,33.7601096 11.1317742,35.0061669 11.1317742,36.6026899 C11.1317742,38.9211258 12.7585239,40.5401843 15.0924727,40.5401843 C16.3232674,40.5401843 17.4850672,40.0564483 18.5552569,39.1049066 L18.7561091,40.0653848 C18.7817906,40.193604 18.8940992,40.2880199 19.0236565,40.2880199 L20.2770664,40.2880199 C20.3636935,40.2880199 20.4449543,40.2460573 20.4967006,40.1776737 C20.5484468,40.1092902 20.5660789,40.0199253 20.5453804,39.9356115 C20.3774925,39.2855791 20.3031312,37.9062516 20.3031312,35.4599851 L20.3031312,35.4599851 Z" id="Fill-4" fill="#F7981C"></path>
                    <g id="Group-8" transform="translate(20.315205, 27.655323)">
                        <mask id="mask-2" fill="white">
                            <use xlink:href="#path-1"></use>
                        </mask>
                        <g id="Clip-7"></g>
                        <path d="M11.5530656,0.058203736 L10.1248683,0.058203736 C10.0075768,0.058203736 9.89871793,0.135135243 9.86230389,0.250921046 L6.78665847,9.81956862 L2.76348121,0.227997011 C2.72055096,0.125033126 2.62012485,0.058203736 2.50934949,0.058203736 L0.979576201,0.058203736 C0.887966124,0.058203736 0.801339022,0.105605978 0.748059521,0.184480199 C0.697846467,0.263354421 0.689030434,0.363209963 0.726977705,0.449077958 L5.89968894,12.5234391 C5.05258321,15.488799 3.88580047,16.8712349 2.23451926,16.8712349 C1.70709053,16.8712349 1.21109288,16.7748762 0.759942,16.5875985 C0.685580683,16.5576807 0.602786638,16.5596234 0.531875073,16.5961465 C0.459046978,16.633058 0.407300701,16.6979447 0.38660219,16.7764304 L0.087240391,17.9704229 C0.0512096496,18.1068015 0.122121215,18.2486197 0.251678562,18.2995188 C0.865351084,18.5485748 1.4322603,18.6503731 2.20692124,18.6503731 C4.03950608,18.6503731 5.93955274,18.0399721 7.42984553,13.6082511 L11.8160133,0.428096638 C11.8432281,0.342228643 11.8313456,0.249366874 11.7776828,0.175932254 C11.7259365,0.102109091 11.6427591,0.058203736 11.5530656,0.058203736" id="Fill-6" fill="#F7981C" mask="url(#mask-2)"></path>
                    </g>
                    <path d="M46.6919695,27.409608 C45.3036361,27.409608 43.8394081,28.0705196 42.338766,29.3775781 C41.7492418,28.1214187 40.6361218,27.409608 39.2267065,27.409608 C37.923467,27.409608 36.6508918,27.9407462 35.2522091,29.0745146 L35.1157523,27.9601733 C35.0985035,27.8183552 34.9808286,27.71306 34.840922,27.71306 L33.7377681,27.71306 C33.5875122,27.71306 33.4629378,27.8389479 33.4629378,27.9931995 L33.4629378,40.0065594 C33.4629378,40.1604224 33.5875122,40.2870874 33.7377681,40.2870874 L35.0674557,40.2870874 C35.2196281,40.2870874 35.3442025,40.1604224 35.3442025,40.0065594 L35.3442025,31.1163078 C36.4504229,30.1173639 37.663969,29.2147786 39.0247044,29.2147786 C40.3766238,29.2147786 40.9538823,30.1472817 40.9538823,32.3378869 L40.9538823,40.0065594 C40.9538823,40.1604224 41.0769235,40.2870874 41.2290958,40.2870874 L42.5584002,40.2870874 C42.7105726,40.2870874 42.8347637,40.1604224 42.8347637,40.0065594 L42.8347637,31.8537624 C42.8347637,31.6105345 42.8159817,31.3459367 42.7933666,31.1058172 C43.798011,30.2047861 45.1066169,29.2147786 46.4915006,29.2147786 C47.84342,29.2147786 48.4191453,30.1472817 48.4191453,32.3378869 L48.4191453,40.0065594 C48.4191453,40.1604224 48.5437197,40.2870874 48.6974253,40.2870874 L50.0251964,40.2870874 C50.1773688,40.2870874 50.3000267,40.1604224 50.3000267,40.0065594 L50.3000267,31.8537624 C50.3000267,28.576791 48.436394,27.409608 46.6919695,27.409608" id="Fill-9" fill="#F7981C"></path>
                    <path d="M54.1282546,32.6655841 C54.2735275,30.5888219 55.4644585,29.1624807 57.0965744,29.1624807 C58.8271999,29.1624807 59.6900212,30.8778979 59.812679,32.6655841 L54.1282546,32.6655841 Z M57.0724261,27.4101519 C54.1646686,27.4101519 52.1350646,30.0316513 52.1350646,33.7838107 C52.1350646,37.88799 54.3475055,40.5413499 57.7727258,40.5413499 C59.0759654,40.5413499 60.5436431,40.1135641 61.5103402,39.4510984 C61.6226488,39.3741669 61.6640458,39.2269091 61.6054001,39.1006326 L61.1557824,38.1106252 C61.1232014,38.0402989 61.0626391,37.9859029 60.989811,37.9618132 C60.9173662,37.9369465 60.8380219,37.9478257 60.7686436,37.9843487 C60.1480716,38.3386999 59.1660422,38.7622117 58.0234077,38.7622117 C55.2777886,38.7622117 54.2041491,36.4701968 54.0987401,34.3953773 L61.5571035,34.3953773 C61.7088926,34.3953773 61.8319338,34.2691009 61.8319338,34.1148493 L61.8319338,33.758944 C61.8319338,29.8404882 60.008165,27.4101519 57.0724261,27.4101519 L57.0724261,27.4101519 Z" id="Fill-11" fill="#F7981C"></path>
                    <path d="M69.6892036,27.409608 C68.3874972,27.409608 67.1149221,27.9407462 65.7162394,29.0745146 L65.5793992,27.9601733 C65.5621504,27.8183552 65.4448589,27.71306 65.3049523,27.71306 L64.2033315,27.71306 C64.0511591,27.71306 63.9269681,27.8389479 63.9269681,27.9931995 L63.9269681,40.0065594 C63.9269681,40.1604224 64.0511591,40.2870874 64.2033315,40.2870874 L65.5311027,40.2870874 C65.6832751,40.2870874 65.8078494,40.1604224 65.8078494,40.0065594 L65.8078494,31.1163078 C66.9159864,30.1173639 68.1279992,29.2147786 69.4887346,29.2147786 C70.3496394,29.2147786 71.4922739,29.5376578 71.4922739,32.3378869 L71.4922739,40.0065594 C71.4922739,40.1604224 71.6164649,40.2870874 71.7690206,40.2870874 L73.098325,40.2870874 C73.2485808,40.2870874 73.3731552,40.1604224 73.3731552,40.0065594 L73.3731552,31.8537624 C73.3731552,28.576791 71.471192,27.409608 69.6892036,27.409608" id="Fill-13" fill="#F7981C"></path>
                    <path d="M81.8988336,38.0861858 C81.8643361,38.011197 81.7984075,37.9529156 81.7190632,37.9323228 C81.6412521,37.9109529 81.5565415,37.9268832 81.489463,37.9723427 C80.9739168,38.3383502 80.2877995,38.7626391 79.5683346,38.7626391 C79.150148,38.7626391 78.5916715,38.6348085 78.5916715,37.5430027 L78.5916715,29.4414934 L81.3717882,29.4414934 C81.48563,29.4414934 81.5875893,29.3711671 81.6309029,29.2643178 L82.0805205,28.0955806 C82.1134848,28.0097126 82.1027522,27.9114112 82.051006,27.8344797 C81.9992597,27.7591024 81.9145491,27.7136428 81.822939,27.7136428 L78.5916715,27.7136428 L78.5916715,24.8186092 C78.5916715,24.7273016 78.5483579,24.6429878 78.4755298,24.5889803 C78.4015518,24.5380812 78.306492,24.5240936 78.2233147,24.5559542 L76.8955435,25.0377474 C76.7847681,25.0781559 76.7127067,25.1830625 76.7127067,25.3023452 L76.7127067,27.7136428 L75.0579757,27.7136428 C74.9058033,27.7136428 74.7816122,27.8379766 74.7816122,27.9937823 L74.7816122,29.1629081 C74.7816122,29.3171597 74.9058033,29.4414934 75.0579757,29.4414934 L76.7127067,29.4414934 L76.7127067,37.644801 C76.7127067,39.5109729 77.6372401,40.5413888 79.3180359,40.5413888 C80.4951679,40.5413888 81.5688073,39.9317649 82.2599076,39.4200538 C82.3691498,39.340791 82.4051805,39.1974187 82.3503678,39.0765818 L81.8988336,38.0861858 Z" id="Fill-15" fill="#F7981C"></path>
                    <g id="Group-19" transform="translate(83.177350, 27.266780)">
                        <mask id="mask-4" fill="white">
                            <use xlink:href="#path-3"></use>
                        </mask>
                        <g id="Clip-18"></g>
                        <path d="M4.90941851,5.74977534 L4.75762943,5.67789489 C3.40187695,5.04728966 2.5133742,4.5511203 2.5133742,3.46825106 C2.5133742,2.42540174 3.27078638,1.89620623 4.76797868,1.89620623 C5.87458241,1.89620623 6.67454153,2.19266451 7.3112124,2.48174047 C7.39553967,2.51981768 7.49596578,2.51126974 7.57377684,2.46037061 C7.65120461,2.40986002 7.69796791,2.32049514 7.69796791,2.22569066 L7.69796791,0.98157609 C7.69796791,0.867733001 7.63242263,0.765934745 7.52893007,0.722417933 C6.89915871,0.457431631 5.89298109,0.141934745 4.69170083,0.141934745 C1.88743589,0.141934745 0.632492835,1.87677908 0.632492835,3.59608169 C0.632492835,5.88809664 2.3336038,6.67334197 3.70123875,7.30433574 L3.92738915,7.40924234 C5.13096924,7.95631083 6.17164437,8.43111034 6.17164437,9.59129963 C6.17164437,11.3090481 4.45328465,11.4963258 3.71503776,11.4963258 C2.35085256,11.4963258 1.53824435,11.0125898 0.998933141,10.693596 C0.929554799,10.6551303 0.846760755,10.6446396 0.770866214,10.670672 C0.696504897,10.6970929 0.635942587,10.7549858 0.60489482,10.8264777 L0.15374394,11.9202262 C0.101614357,12.0445599 0.144927908,12.1883208 0.255319967,12.262144 C0.826062244,12.6401963 2.0208263,13.2746869 3.61461165,13.2746869 C6.32534998,13.2746869 8.07514078,11.8168737 8.07514078,9.5648787 C8.07514078,8.59390984 7.79647749,7.8230406 7.22266877,7.21341669 C6.59673046,6.55250511 5.73927548,6.14608917 4.90941851,5.74977534" id="Fill-17" fill="#F7981C" mask="url(#mask-4)"></path>
                    </g>
                    <path d="M52.3176715,17.6569465 C48.0250303,20.867477 41.7993782,22.5778431 36.4384638,22.5778431 C28.9268208,22.5778431 22.1618574,19.7616837 17.042809,15.075467 C16.6395714,14.709071 16.9975789,14.2062964 17.4801609,14.4903213 C23.0070466,17.7494197 29.8360221,19.7088418 36.8896147,19.7088418 C41.6491223,19.7088418 46.8789461,18.7098979 51.6936497,16.6385753 C52.4196308,16.3285181 53.0283204,17.1277509 52.3176715,17.6569465" id="Fill-20" fill="#F7981C"></path>
                    <path d="M54.1046813,15.5890431 C53.5546375,14.8756782 50.4740091,15.2525649 49.0891254,15.420804 C48.6724721,15.4697604 48.6050103,15.0983133 48.9837163,14.8321614 C51.4422395,13.0813868 55.4688665,13.5861041 55.9368828,14.1712498 C56.4091155,14.7598924 55.8126918,18.8555238 53.5097908,20.8079522 C53.1552329,21.109073 52.8183072,20.9478276 52.9739293,20.5519024 C53.4940752,19.2409584 54.6543418,16.302408 54.1046813,15.5890431" id="Fill-22" fill="#F7981C"></path>
                    <path d="M49.18798,2.46829689 L49.18798,0.76842142 C49.1895132,0.509263263 49.3796329,0.335584558 49.6130661,0.337527273 L57.1319919,0.335584558 C57.3707913,0.335584558 57.5643608,0.512760149 57.5643608,0.764924533 L57.5643608,2.22662316 C57.5643608,2.46829689 57.3581423,2.78534795 56.9970682,3.29395068 L53.1038316,8.93132055 C54.5488943,8.89635168 56.0805842,9.11393574 57.3930231,9.86382366 C57.6904684,10.0320628 57.7698126,10.282673 57.7920444,10.5262894 L57.7920444,12.3435049 C57.7920444,12.5921724 57.5206639,12.8796941 57.2393175,12.7324364 C54.9241507,11.5019208 51.851955,11.3655422 49.2933891,12.7483666 C49.0323578,12.8866879 48.7575276,12.602663 48.7575276,12.3539955 L48.7575276,10.626145 C48.7575276,10.3491138 48.7659603,9.87936538 49.0392573,9.45701918 L53.5515328,2.89608269 L49.6218821,2.89413998 C49.3834659,2.89413998 49.1895132,2.72084981 49.18798,2.46829689" id="Fill-24" fill="#000000"></path>
                    <path d="M21.764561,13.0877978 L19.4773756,13.0877978 C19.2577414,13.0738102 19.0848705,12.9086795 19.0676217,12.6984777 L19.0676217,0.797795268 C19.0676217,0.557675716 19.2680906,0.366512578 19.5103399,0.366512578 L21.6399867,0.366512578 C21.8649871,0.378945953 22.0413078,0.550681943 22.05664,0.76787746 L22.05664,2.32049514 L22.0984203,2.32049514 C22.6530638,0.818776588 23.6991052,0.115902366 25.1115869,0.115902366 C26.5397842,0.115902366 27.4351864,0.818776588 28.0783735,2.32049514 C28.6299505,0.818776588 29.8898765,0.115902366 31.2352797,0.115902366 C32.1962273,0.115902366 33.2422687,0.517267248 33.8854558,1.41790984 C34.6079871,2.42035068 34.461181,3.87505554 34.461181,5.15064209 L34.4592645,12.6584578 C34.4592645,12.8966346 34.2607121,13.0877978 34.0165463,13.0877978 L31.7347272,13.0877978 C31.5047437,13.0738102 31.3230568,12.8896408 31.3230568,12.660012 L31.3230568,6.35318257 C31.3230568,5.85001943 31.3648371,4.60046526 31.2609612,4.12372304 C31.0861738,3.3194391 30.5744606,3.09680399 29.9144081,3.09680399 C29.3593814,3.09680399 28.7817396,3.47174795 28.5467731,4.07476663 C28.3118067,4.6723457 28.3325052,5.67478655 28.3325052,6.35318257 L28.3325052,12.6584578 C28.3325052,12.8966346 28.1354861,13.0877978 27.8951534,13.0877978 L25.6075846,13.0877978 C25.3779844,13.0738102 25.1962975,12.8896408 25.1962975,12.660012 L25.1962975,6.35318257 C25.1962975,5.02630834 25.4090322,3.07077161 23.785349,3.07077161 C22.1413506,3.07077161 22.2053627,4.97385504 22.2053627,6.35318257 L22.2053627,12.6584578 C22.2053627,12.8966346 22.006427,13.0877978 21.764561,13.0877978" id="Fill-26" fill="#000000"></path>
                    <path d="M64.0579053,2.54686027 C62.3721266,2.54686027 62.2632677,4.87423263 62.2632677,6.32699477 C62.2632677,7.77975691 62.2425692,10.8849923 64.0368235,10.8849923 C65.808846,10.8849923 65.8954731,8.38083288 65.8954731,6.85113923 C65.8954731,5.85025255 65.8525429,4.64810062 65.5531811,3.69617036 C65.2971328,2.87090511 64.7838864,2.54686027 64.0579053,2.54686027 M64.0368235,0.116135492 C67.4306127,0.116135492 69.2685638,3.07100473 69.2685638,6.82627248 C69.2685638,10.4591492 67.2389598,13.3401953 64.0368235,13.3401953 C60.7039799,13.3401953 58.8905604,10.3822177 58.8905604,6.70543562 C58.8905604,2.99718157 60.7296614,0.116135492 64.0368235,0.116135492" id="Fill-28" fill="#000000"></path>
                    <path d="M73.6712521,13.0893131 L71.3890496,13.0893131 C71.1625159,13.0733828 70.9827455,12.8892134 70.9827455,12.6599731 L70.9777625,0.757347945 C70.9965445,0.540152428 71.1870475,0.368416438 71.4166476,0.368416438 L73.5378617,0.368416438 C73.7371807,0.375410212 73.9046853,0.513731507 73.9445491,0.701397758 L73.9445491,2.52016737 L73.9893959,2.52016737 C74.6291332,0.894115068 75.526452,0.115863512 77.1045218,0.115863512 C78.1298647,0.115863512 79.1345091,0.492750187 79.7742464,1.51966924 C80.3722034,2.47276513 80.3722034,4.07472777 80.3722034,5.2244264 L80.3722034,12.7139806 C80.3461386,12.9245709 80.1594687,13.0893131 79.9314018,13.0893131 L77.6403833,13.0893131 C77.4280319,13.0753255 77.2566942,12.9160229 77.2325459,12.7139806 L77.2325459,6.25134545 C77.2325459,4.95089215 77.3812686,3.045866 75.8012822,3.045866 C75.2462555,3.045866 74.7360755,3.42275268 74.478494,3.99740772 C74.1584337,4.72320598 74.1155035,5.45016986 74.1155035,6.25134545 L74.1155035,12.6584189 C74.1105205,12.8965958 73.9150346,13.0893131 73.6712521,13.0893131" id="Fill-30" fill="#000000"></path>
                    <path d="M45.5003486,13.0574137 C45.3497094,13.195735 45.1304585,13.2046715 44.9610374,13.1118097 C44.202092,12.4718795 44.0652518,12.1773639 43.650515,11.5661858 C42.3936554,12.8646964 41.5032361,13.2520737 39.878403,13.2520737 C37.9542081,13.2520737 36.4550993,12.0460364 36.4550993,9.63823562 C36.4550993,7.75457933 37.4593604,6.47510735 38.8944571,5.84761046 C40.1356012,5.29743362 41.8681432,5.19602391 43.1959144,5.04332653 L43.1959144,4.7437599 C43.1959144,4.19164035 43.2353948,3.54160797 42.9157178,3.06486575 C42.6393544,2.63902267 42.1031096,2.4602929 41.6331768,2.4602929 C40.7615395,2.4602929 39.9853453,2.91411108 39.7933091,3.85710486 C39.7538286,4.061867 39.6031895,4.2689604 39.3958211,4.27945106 L37.1810804,4.03738879 C36.9928772,3.99348344 36.7855088,3.84311731 36.8387883,3.55404134 C37.3489683,0.823749938 39.7779769,3.88542964e-05 41.9528538,3.88542964e-05 C43.0659737,3.88542964e-05 44.521769,0.303102366 45.3999225,1.15478854 C46.509976,2.20968269 46.4026503,3.61348842 46.4026503,5.14667895 L46.4026503,8.75857435 C46.4026503,9.84494047 46.8503515,10.3216827 47.2670048,10.9091597 C47.4141942,11.1174187 47.4471585,11.3715258 47.2601053,11.5222804 C46.7917057,11.9197599 45.9652985,12.6525519 45.5057149,13.0644075 L45.5003486,13.0574137 Z M43.1959144,7.40566775 C43.1959144,8.30825305 43.2150796,9.06358057 42.7669952,9.86436762 C42.4020881,10.5163427 41.8232964,10.9177076 41.1816426,10.9177076 C40.3069388,10.9177076 39.7917759,10.2397001 39.7917759,9.23881345 C39.7917759,7.26035268 41.5396502,6.90289315 43.1959144,6.90289315 L43.1959144,7.40566775 Z" id="Fill-32" fill="#000000"></path>
                    <path d="M15.5154506,13.0574137 C15.3651947,13.195735 15.147477,13.2046715 14.9780559,13.1118097 C14.2171939,12.4718795 14.0822703,12.1773639 13.665617,11.5661858 C12.4106739,12.8646964 11.5202546,13.2520737 9.89350497,13.2520737 C7.96739353,13.2520737 6.47211776,12.0460364 6.47211776,9.63823562 C6.47211776,7.75457933 7.47637885,6.47510735 8.91147562,5.84761046 C10.1526197,5.29743362 11.8832452,5.19602391 13.2110163,5.04332653 L13.2110163,4.7437599 C13.2110163,4.19164035 13.2558631,3.54160797 12.9327363,3.06486575 C12.6559896,2.63902267 12.1201281,2.4602929 11.649812,2.4602929 C10.7770248,2.4602929 10.0023638,2.91411108 9.81032762,3.85710486 C9.77238035,4.061867 9.62020797,4.2689604 9.41437277,4.27945106 L7.19618234,4.03738879 C7.00989574,3.99348344 6.80214402,3.84311731 6.8538903,3.55404134 C7.36407026,0.823749938 9.79116234,3.88542964e-05 11.9698723,3.88542964e-05 C13.0829922,3.88542964e-05 14.536871,0.303102366 15.4134912,1.15478854 C16.5269945,2.20968269 16.4196688,3.61348842 16.4196688,5.14667895 L16.4196688,8.75857435 C16.4196688,9.84494047 16.8658368,10.3216827 17.2840233,10.9091597 C17.427763,11.1174187 17.4622605,11.3695831 17.2755906,11.5222804 C16.8087242,11.9197599 15.9754175,12.6525519 15.5208168,13.0644075 L15.5154506,13.0574137 Z M13.2110163,7.40566775 C13.2110163,8.30825305 13.2317148,9.06358057 12.7824805,9.86436762 C12.4175734,10.5163427 11.8399316,10.9177076 11.2005776,10.9177076 C10.3220408,10.9177076 9.8087944,10.2397001 9.8087944,9.23881345 C9.8087944,7.26035268 11.5582019,6.90289315 13.2110163,6.90289315 L13.2110163,7.40566775 Z" id="Fill-34" fill="#000000"></path>
                </g>
            </g>
        </g>
    </g>
</svg>