<?xml version="1.0" encoding="UTF-8"?>
<svg width="57px" height="46px" viewBox="0 0 57 46" version="1.1" xmlns="http://www.w3.org/2000/svg" xmlns:xlink="http://www.w3.org/1999/xlink">
    <!-- Generator: Sketch 45 (43475) - http://www.bohemiancoding.com/sketch -->
    <title>Page 1</title>
    <desc>Created with Sketch.</desc>
    <defs>
        <polygon id="path-1" points="0 44.6205387 56.1564171 44.6205387 56.1564171 0.000168350168 0 0.000168350168"></polygon>
    </defs>
    <g id="Page-1" stroke="none" stroke-width="1" fill="none" fill-rule="evenodd">
        <g id="payment-methods-ver-two" transform="translate(-198.000000, -470.000000)">
            <g id="Group" transform="translate(151.000000, 418.000000)">
                <g id="Page-1" transform="translate(47.272727, 52.727273)">
                    <path d="M53.8770053,27.3329125 L19.1735829,27.3329125 C18.4872727,27.3329125 17.9302674,26.7672559 17.9302674,26.0702862 L17.9302674,2.31439394 C17.9302674,1.61742424 18.4872727,1.05176768 19.1735829,1.05176768 L53.8770053,1.05176768 C54.5633155,1.05176768 55.1203209,1.61742424 55.1203209,2.31439394 L55.1203209,26.0702862 C55.1203209,26.7672559 54.5633155,27.3329125 53.8770053,27.3329125 Z" id="Fill-1" fill="#FFFFFF"></path>
                    <path d="M53.8770053,27.3329125 L19.1735829,27.3329125 C18.4872727,27.3329125 17.9302674,26.7672559 17.9302674,26.0702862 L17.9302674,2.31439394 C17.9302674,1.61742424 18.4872727,1.05176768 19.1735829,1.05176768 L53.8770053,1.05176768 C54.5633155,1.05176768 55.1203209,1.61742424 55.1203209,2.31439394 L55.1203209,26.0702862 C55.1203209,26.7672559 54.5633155,27.3329125 53.8770053,27.3329125 Z" id="Stroke-3" stroke="#191847" stroke-width="2" stroke-linecap="round" stroke-linejoin="round"></path>
                    <mask id="mask-2" fill="white">
                        <use xlink:href="#path-1"></use>
                    </mask>
                    <g id="Clip-6"></g>
                    <polygon id="Fill-5" fill="#191847" mask="url(#mask-2)" points="18.0628877 11.5944444 55.1203209 11.5944444 55.1203209 5.70218855 18.0628877 5.70218855"></polygon>
                    <path d="M23.1409198,15.0338384 L49.1146096,15.0338384 C49.6873636,15.0338384 50.1507059,14.6575758 50.1507059,14.1920875 C50.1507059,13.7274411 49.6873636,13.3503367 49.1146096,13.3503367 L23.1409198,13.3503367 C22.5689947,13.3503367 22.1048235,13.7274411 22.1048235,14.1920875 C22.1048235,14.6575758 22.5689947,15.0338384 23.1409198,15.0338384" id="Fill-7" fill="#A7A9AC" mask="url(#mask-2)"></path>
                    <path d="M33.4509064,17.0551347 L23.1413342,17.0551347 C22.5685802,17.0551347 22.105238,17.4322391 22.105238,17.8968855 C22.105238,18.3623737 22.5685802,18.7386364 23.1413342,18.7386364 L33.4509064,18.7386364 C34.0228316,18.7386364 34.4870027,18.3623737 34.4870027,17.8968855 C34.4870027,17.4322391 34.0228316,17.0551347 33.4509064,17.0551347" id="Fill-8" fill="#A7A9AC" mask="url(#mask-2)"></path>
                    <path d="M51.3515,19.5984848 C51.3515,19.1338384 50.8873289,18.756734 50.3154037,18.756734 L40.1185588,18.756734 C39.5466337,18.756734 39.0824626,19.1338384 39.0824626,19.5984848 C39.0824626,20.0639731 39.5466337,20.4402357 40.1185588,20.4402357 L50.3154037,20.4402357 C50.8873289,20.4402357 51.3515,20.0639731 51.3515,19.5984848" id="Fill-9" fill="#A7A9AC" mask="url(#mask-2)"></path>
                    <path d="M50.3154037,22.2733165 L44.1394412,22.2733165 C43.567516,22.2733165 43.1033449,22.6504209 43.1033449,23.1150673 C43.1033449,23.5805556 43.567516,23.9568182 44.1394412,23.9568182 L50.3154037,23.9568182 C50.8873289,23.9568182 51.3515,23.5805556 51.3515,23.1150673 C51.3515,22.6504209 50.8873289,22.2733165 50.3154037,22.2733165" id="Fill-10" fill="#A7A9AC" mask="url(#mask-2)"></path>
                    <path d="M36.9825027,43.5686869 L2.27908021,43.5686869 C1.59277005,43.5686869 1.03576471,43.0030303 1.03576471,42.3060606 L1.03576471,18.5501684 C1.03576471,17.8531987 1.59277005,17.2875421 2.27908021,17.2875421 L36.9825027,17.2875421 C37.6696417,17.2875421 38.2258182,17.8531987 38.2258182,18.5501684 L38.2258182,42.3060606 C38.2258182,43.0030303 37.6696417,43.5686869 36.9825027,43.5686869" id="Fill-11" fill="#FFFFFF" mask="url(#mask-2)"></path>
                    <path d="M36.9825027,43.5686869 L2.27908021,43.5686869 C1.59277005,43.5686869 1.03576471,43.0030303 1.03576471,42.3060606 L1.03576471,18.5501684 C1.03576471,17.8531987 1.59277005,17.2875421 2.27908021,17.2875421 L36.9825027,17.2875421 C37.6696417,17.2875421 38.2258182,17.8531987 38.2258182,18.5501684 L38.2258182,42.3060606 C38.2258182,43.0030303 37.6696417,43.5686869 36.9825027,43.5686869 Z" id="Stroke-12" stroke="#191847" stroke-width="2" stroke-linecap="round" stroke-linejoin="round" mask="url(#mask-2)"></path>
                    <polygon id="Fill-13" fill="#191847" mask="url(#mask-2)" points="1.16871658 27.8301347 38.2261497 27.8301347 38.2261497 21.9378788 1.16871658 21.9378788"></polygon>
                    <path d="M6.24691444,31.2695286 L32.2206043,31.2695286 C32.7933583,31.2695286 33.2567005,30.893266 33.2567005,30.4277778 C33.2567005,29.9631313 32.7933583,29.5860269 32.2206043,29.5860269 L6.24691444,29.5860269 C5.6749893,29.5860269 5.21081818,29.9631313 5.21081818,30.4277778 C5.21081818,30.893266 5.6749893,31.2695286 6.24691444,31.2695286" id="Fill-14" fill="#A7A9AC" mask="url(#mask-2)"></path>
                    <path d="M16.5569011,33.2909091 L6.24732888,33.2909091 C5.67457487,33.2909091 5.21123262,33.6680135 5.21123262,34.1326599 C5.21123262,34.5981481 5.67457487,34.9744108 6.24732888,34.9744108 L16.5569011,34.9744108 C17.1288262,34.9744108 17.5929973,34.5981481 17.5929973,34.1326599 C17.5929973,33.6680135 17.1288262,33.2909091 16.5569011,33.2909091" id="Fill-15" fill="#A7A9AC" mask="url(#mask-2)"></path>
                    <path d="M34.4574118,35.8342593 C34.4574118,35.3696128 33.9932406,34.9925084 33.4213155,34.9925084 L23.2244706,34.9925084 C22.6525455,34.9925084 22.1883743,35.3696128 22.1883743,35.8342593 C22.1883743,36.2997475 22.6525455,36.6760101 23.2244706,36.6760101 L33.4213155,36.6760101 C33.9932406,36.6760101 34.4574118,36.2997475 34.4574118,35.8342593" id="Fill-16" fill="#A7A9AC" mask="url(#mask-2)"></path>
                    <path d="M33.4213155,38.5090909 L27.2453529,38.5090909 C26.6734278,38.5090909 26.2092567,38.8861953 26.2092567,39.3508418 C26.2092567,39.81633 26.6734278,40.1925926 27.2453529,40.1925926 L33.4213155,40.1925926 C33.9932406,40.1925926 34.4574118,39.81633 34.4574118,39.3508418 C34.4574118,38.8861953 33.9932406,38.5090909 33.4213155,38.5090909" id="Fill-17" fill="#A7A9AC" mask="url(#mask-2)"></path>
                </g>
            </g>
        </g>
    </g>
</svg>