<?xml version="1.0" encoding="UTF-8"?>
<svg width="53px" height="47px" viewBox="0 0 53 47" version="1.1" xmlns="http://www.w3.org/2000/svg" xmlns:xlink="http://www.w3.org/1999/xlink">
    <!-- Generator: Sketch 45 (43475) - http://www.bohemiancoding.com/sketch -->
    <title>Page 1</title>
    <desc>Created with Sketch.</desc>
    <defs>
        <polygon id="path-1" points="0 45.7164976 51.2162937 45.7164976 51.2162937 0.000325358852 0 0.000325358852"></polygon>
    </defs>
    <g id="Page-1" stroke="none" stroke-width="1" fill="none" fill-rule="evenodd">
        <g id="payment-methods-ver-two" transform="translate(-1187.000000, -469.000000)">
            <g id="Group-6" transform="translate(1139.000000, 418.000000)">
                <g id="Page-1" transform="translate(49.090909, 51.818182)">
                    <path d="M48.0277217,44.9032632 L3.18905035,44.9032632 C1.86808531,44.9032632 0.797441958,43.8108708 0.797441958,42.4630718 L0.797441958,19.9295311 C0.797441958,18.5817321 1.86808531,17.4893397 3.18905035,17.4893397 L48.0277217,17.4893397 C49.3486867,17.4893397 50.4193301,18.5817321 50.4193301,19.9295311 L50.4193301,42.4630718 C50.4193301,43.8108708 49.3486867,44.9032632 48.0277217,44.9032632 Z" id="Fill-1" fill="#FFFFFF"></path>
                    <path d="M48.0277217,44.9032632 L3.18905035,44.9032632 C1.86808531,44.9032632 0.797441958,43.8108708 0.797441958,42.4630718 L0.797441958,19.9295311 C0.797441958,18.5817321 1.86808531,17.4893397 3.18905035,17.4893397 L48.0277217,17.4893397 C49.3486867,17.4893397 50.4193301,18.5817321 50.4193301,19.9295311 L50.4193301,42.4630718 C50.4193301,43.8108708 49.3486867,44.9032632 48.0277217,44.9032632 Z" id="Stroke-3" stroke="#231F20" stroke-width="2" stroke-linejoin="round"></path>
                    <path d="M50.4193301,36.5651292 C50.4193301,37.9845072 49.2912881,39.1354641 47.9009664,39.1354641 L3.31580559,39.1354641 C1.92548392,39.1354641 0.797441958,37.9853206 0.797441958,36.5651292 L0.797441958,39.8772823 C0.797441958,41.2966603 1.92468671,42.4476172 3.31580559,42.4476172 L47.9009664,42.4476172 C49.2912881,42.4476172 50.4193301,41.2966603 50.4193301,39.8772823 L50.4193301,36.5651292 Z" id="Fill-5" fill="#E6E7E8" style="mix-blend-mode: multiply;"></path>
                    <path d="M48.0277217,39.1352201 L3.18905035,39.1352201 C1.86808531,39.1352201 0.797441958,38.0428278 0.797441958,36.6950287 L0.797441958,14.161488 C0.797441958,12.8145024 1.86808531,11.7212967 3.18905035,11.7212967 L48.0277217,11.7212967 C49.3486867,11.7212967 50.4193301,12.8145024 50.4193301,14.161488 L50.4193301,36.6950287 C50.4193301,38.0428278 49.3486867,39.1352201 48.0277217,39.1352201" id="Fill-7" fill="#FFFFFF"></path>
                    <path d="M48.0277217,39.1352201 L3.18905035,39.1352201 C1.86808531,39.1352201 0.797441958,38.0428278 0.797441958,36.6950287 L0.797441958,14.161488 C0.797441958,12.8145024 1.86808531,11.7212967 3.18905035,11.7212967 L48.0277217,11.7212967 C49.3486867,11.7212967 50.4193301,12.8145024 50.4193301,14.161488 L50.4193301,36.6950287 C50.4193301,38.0428278 49.3486867,39.1352201 48.0277217,39.1352201 Z" id="Stroke-9" stroke="#231F20" stroke-width="2" stroke-linejoin="round"></path>
                    <path d="M50.4193301,30.5575407 C50.4193301,31.9769187 49.2912881,33.1270622 47.9009664,33.1270622 L3.31580559,33.1270622 C1.92548392,33.1270622 0.797441958,31.9769187 0.797441958,30.5575407 L0.797441958,33.8696938 C0.797441958,35.2890718 1.92468671,36.4400287 3.31580559,36.4400287 L47.9009664,36.4400287 C49.2912881,36.4400287 50.4193301,35.2890718 50.4193301,33.8696938 L50.4193301,30.5575407 Z" id="Fill-11" fill="#E6E7E8" style="mix-blend-mode: multiply;"></path>
                    <path d="M48.0277217,33.8735167 L3.18905035,33.8735167 C1.86808531,33.8735167 0.797441958,32.7811244 0.797441958,31.4333254 L0.797441958,8.89978469 C0.797441958,7.55279904 1.86808531,6.4595933 3.18905035,6.4595933 L48.0277217,6.4595933 C49.3486867,6.4595933 50.4193301,7.55279904 50.4193301,8.89978469 L50.4193301,31.4333254 C50.4193301,32.7811244 49.3486867,33.8735167 48.0277217,33.8735167" id="Fill-13" fill="#FFFFFF"></path>
                    <path d="M48.0277217,33.8735167 L3.18905035,33.8735167 C1.86808531,33.8735167 0.797441958,32.7811244 0.797441958,31.4333254 L0.797441958,8.89978469 C0.797441958,7.55279904 1.86808531,6.4595933 3.18905035,6.4595933 L48.0277217,6.4595933 C49.3486867,6.4595933 50.4193301,7.55279904 50.4193301,8.89978469 L50.4193301,31.4333254 C50.4193301,32.7811244 49.3486867,33.8735167 48.0277217,33.8735167 Z" id="Stroke-15" stroke="#231F20" stroke-width="2" stroke-linejoin="round"></path>
                    <path d="M50.4193301,24.9889426 C50.4193301,26.4083206 49.2912881,27.5592775 47.9009664,27.5592775 L3.31580559,27.5592775 C1.92548392,27.5592775 0.797441958,26.409134 0.797441958,24.989756 L0.797441958,28.3010957 C0.797441958,29.7204737 1.92468671,30.8714306 3.31580559,30.8714306 L47.9009664,30.8714306 C49.2912881,30.8714306 50.4193301,29.7204737 50.4193301,28.3010957 L50.4193301,24.9889426 Z" id="Fill-17" fill="#E6E7E8" style="mix-blend-mode: multiply;"></path>
                    <path d="M48.0277217,28.2269952 L3.18905035,28.2269952 C1.86808531,28.2269952 0.797441958,27.1346029 0.797441958,25.7868038 L0.797441958,3.25326316 C0.797441958,1.90627751 1.86808531,0.81307177 3.18905035,0.81307177 L48.0277217,0.81307177 C49.3486867,0.81307177 50.4193301,1.90627751 50.4193301,3.25326316 L50.4193301,25.7868038 C50.4193301,27.1346029 49.3486867,28.2269952 48.0277217,28.2269952" id="Fill-19" fill="#FFFFFF"></path>
                    <path d="M48.0277217,28.2269952 L3.18905035,28.2269952 C1.86808531,28.2269952 0.797441958,27.1346029 0.797441958,25.7868038 L0.797441958,3.25326316 C0.797441958,1.90627751 1.86808531,0.81307177 3.18905035,0.81307177 L48.0277217,0.81307177 C49.3486867,0.81307177 50.4193301,1.90627751 50.4193301,3.25326316 L50.4193301,25.7868038 C50.4193301,27.1346029 49.3486867,28.2269952 48.0277217,28.2269952 Z" id="Stroke-21" stroke="#231F20" stroke-width="2" stroke-linejoin="round"></path>
                    <path d="M35.5628979,14.5203589 C35.5628979,20.1295455 31.1057371,24.6772488 25.6082266,24.6772488 C20.1099189,24.6772488 15.6535552,20.1295455 15.6535552,14.5203589 C15.6535552,8.91117225 20.1099189,4.3634689 25.6082266,4.3634689 C31.1057371,4.3634689 35.5628979,8.91117225 35.5628979,14.5203589" id="Fill-23" fill="#27AAE1"></path>
                    <path d="M40.3670811,17.6226555 L40.3670811,17.0085407 C39.5013189,16.8702632 38.9966895,16.3326077 38.9368993,15.5883493 L40.0059483,15.5883493 C40.0880601,15.9877273 40.3894028,16.2333732 40.8414168,16.2333732 C41.3978643,16.2333732 41.5716545,15.9641388 41.5716545,15.6566746 C41.5716545,15.2808852 41.3755427,15.096244 40.6827734,14.8888278 C39.411235,14.5203589 39.0421301,14.0363876 39.0421301,13.3222249 C39.0421301,12.5470574 39.5993748,12.0557656 40.3144657,11.917488 L40.3144657,11.4180622 L41.2025497,11.4180622 L41.2025497,11.9093541 C42.143249,12.0557656 42.4748853,12.6462919 42.5267035,13.2457656 L41.4584517,13.2457656 C41.4058364,13.0302153 41.3077804,12.6853349 40.736186,12.6853349 C40.2538783,12.6853349 40.111179,12.9773445 40.111179,13.2156699 C40.111179,13.5450957 40.2913469,13.6980144 41.0973189,13.9290191 C42.218186,14.2519378 42.6399063,14.7123206 42.6399063,15.5265311 C42.6399063,16.3944258 42.0906336,16.8775837 41.2623399,17.0085407 L41.2623399,17.6226555 L40.3670811,17.6226555 Z" id="Fill-25" fill="#27AAE1"></path>
                    <path d="M9.77681538,17.6226555 L9.77681538,17.0085407 C8.91105315,16.8702632 8.40642378,16.3326077 8.34663357,15.5883493 L9.41488531,15.5883493 C9.49779441,15.9877273 9.79833986,16.2333732 10.251151,16.2333732 C10.8075986,16.2333732 10.9805916,15.9641388 10.9805916,15.6566746 C10.9805916,15.2808852 10.7852769,15.096244 10.0925077,14.8888278 C8.82096923,14.5203589 8.45186434,14.0363876 8.45186434,13.3222249 C8.45186434,12.5470574 9.00831189,12.0557656 9.7242,11.917488 L9.7242,11.4180622 L10.6122839,11.4180622 L10.6122839,11.9093541 C11.5529832,12.0557656 11.8846196,12.6462919 11.9364378,13.2457656 L10.868186,13.2457656 C10.8155706,13.0302153 10.7175147,12.6853349 10.1451231,12.6853349 C9.66361259,12.6853349 9.52091329,12.9773445 9.52091329,13.2156699 C9.52091329,13.5450957 9.70108112,13.6980144 10.5062559,13.9290191 C11.6279203,14.2519378 12.0496406,14.7123206 12.0496406,15.5265311 C12.0496406,16.3944258 11.5003678,16.8775837 10.6720741,17.0085407 L10.6720741,17.6226555 L9.77681538,17.6226555 Z" id="Fill-27" fill="#27AAE1"></path>
                    <polyline id="Stroke-29" stroke="#231F20" stroke-width="1.5" stroke-linecap="round" stroke-linejoin="round" points="13.4412378 4.85337799 4.7302028 4.85337799 4.7302028 24.1284498 13.4412378 24.1284498"></polyline>
                    <polyline id="Stroke-31" stroke="#231F20" stroke-width="1.5" stroke-linecap="round" stroke-linejoin="round" points="38.6302154 24.1286124 46.7114601 24.1286124 46.7114601 4.85354067 38.6302154 4.85354067"></polyline>
                    <path d="M9.45291189,5.17466986 C9.45291189,5.06486124 9.4289958,4.96155981 9.42102378,4.85337799 L4.73028252,4.85337799 L4.73028252,9.6402201 C4.83631049,9.64754067 4.93755524,9.67194258 5.04517762,9.67194258 C7.47903776,9.67194258 9.45291189,7.65878469 9.45291189,5.17466986" id="Fill-33" fill="#5AD0F9"></path>
                    <path d="M9.45291189,5.17466986 C9.45291189,5.06486124 9.4289958,4.96155981 9.42102378,4.85337799 L4.73028252,4.85337799 L4.73028252,9.6402201 C4.83631049,9.64754067 4.93755524,9.67194258 5.04517762,9.67194258 C7.47903776,9.67194258 9.45291189,7.65878469 9.45291189,5.17466986 Z" id="Stroke-35" stroke="#231F20" stroke-width="1.5" stroke-linejoin="round"></path>
                    <path d="M41.9879538,5.17466986 C41.9879538,5.06486124 42.0118699,4.96155981 42.019842,4.85337799 L46.7113804,4.85337799 L46.7113804,9.6402201 C46.6053524,9.64754067 46.5041077,9.67194258 46.3956881,9.67194258 C43.961828,9.67194258 41.9879538,7.65878469 41.9879538,5.17466986" id="Fill-37" fill="#5AD0F9"></path>
                    <path d="M41.9879538,5.17466986 C41.9879538,5.06486124 42.0118699,4.96155981 42.019842,4.85337799 L46.7113804,4.85337799 L46.7113804,9.6402201 C46.6053524,9.64754067 46.5041077,9.67194258 46.3956881,9.67194258 C43.961828,9.67194258 41.9879538,7.65878469 41.9879538,5.17466986 Z" id="Stroke-39" stroke="#231F20" stroke-width="1.5" stroke-linejoin="round"></path>
                    <path d="M41.9879538,23.8073206 C41.9879538,23.9171292 42.0118699,24.0204306 42.019842,24.1286124 L46.7113804,24.1286124 L46.7113804,19.3425837 C46.6053524,19.3344498 46.5041077,19.3100478 46.3956881,19.3100478 C43.961828,19.3100478 41.9879538,21.3232057 41.9879538,23.8073206" id="Fill-41" fill="#5AD0F9"></path>
                    <path d="M41.9879538,23.8073206 C41.9879538,23.9171292 42.0118699,24.0204306 42.019842,24.1286124 L46.7113804,24.1286124 L46.7113804,19.3425837 C46.6053524,19.3344498 46.5041077,19.3100478 46.3956881,19.3100478 C43.961828,19.3100478 41.9879538,21.3232057 41.9879538,23.8073206 Z" id="Stroke-43" stroke="#231F20" stroke-width="1.5" stroke-linejoin="round"></path>
                    <path d="M9.45291189,23.8073206 C9.45291189,23.9171292 9.4289958,24.0204306 9.42102378,24.1286124 L4.73028252,24.1286124 L4.73028252,19.3425837 C4.83631049,19.3344498 4.93755524,19.3100478 5.04517762,19.3100478 C7.47903776,19.3100478 9.45291189,21.3232057 9.45291189,23.8073206" id="Fill-45" fill="#5AD0F9"></path>
                    <path d="M9.45291189,23.8073206 C9.45291189,23.9171292 9.4289958,24.0204306 9.42102378,24.1286124 L4.73028252,24.1286124 L4.73028252,19.3425837 C4.83631049,19.3344498 4.93755524,19.3100478 5.04517762,19.3100478 C7.47903776,19.3100478 9.45291189,21.3232057 9.45291189,23.8073206 Z" id="Stroke-47" stroke="#231F20" stroke-width="1.5" stroke-linejoin="round"></path>
                    <mask id="mask-2" fill="white">
                        <use xlink:href="#path-1"></use>
                    </mask>
                    <g id="Clip-50"></g>
                    <polygon id="Fill-49" fill="#5AD0F9" mask="url(#mask-2)" points="18.5142378 44.9031005 32.7873566 44.9031005 32.7873566 0.812909091 18.5142378 0.812909091"></polygon>
                    <polygon id="Stroke-51" stroke="#231F20" stroke-width="2" mask="url(#mask-2)" points="18.5142378 44.9031005 32.7873566 44.9031005 32.7873566 0.812909091 18.5142378 0.812909091"></polygon>
                    <polygon id="Fill-52" fill="#E6E7E8" style="mix-blend-mode: multiply;" mask="url(#mask-2)" points="18.5142378 44.9031005 32.7873566 44.9031005 32.7873566 28.0047751 18.5142378 28.0047751"></polygon>
                </g>
            </g>
        </g>
    </g>
</svg>