<?xml version="1.0" encoding="UTF-8"?>
<svg width="97px" height="27px" viewBox="0 0 97 27" version="1.1" xmlns="http://www.w3.org/2000/svg" xmlns:xlink="http://www.w3.org/1999/xlink">
    <!-- Generator: Sketch 45 (43475) - http://www.bohemiancoding.com/sketch -->
    <title>Page 1</title>
    <desc>Created with Sketch.</desc>
    <defs></defs>
    <g id="Page-1" stroke="none" stroke-width="1" fill="none" fill-rule="evenodd">
        <g id="payment-methods-ver-two" transform="translate(-376.000000, -479.000000)">
            <g id="Group-2-Copy" transform="translate(349.000000, 418.000000)">
                <g id="Page-1" transform="translate(26.363636, 61.818182)">
                    <path d="M12.3102527,0.141610236 L4.8218916,0.141610236 C4.30939768,0.141610236 3.87357849,0.507854007 3.79383677,1.0053301 L0.765184807,19.8934325 C0.705071816,20.2660116 0.998275996,20.602087 1.38287646,20.602087 L4.95775922,20.602087 C5.47025314,20.602087 5.90607232,20.2358432 5.98581405,19.7371604 L6.80255331,14.6429328 C6.88137493,14.14425 7.31842091,13.7780062 7.82968803,13.7780062 L10.2004708,13.7780062 C15.1331097,13.7780062 17.9798892,11.4300035 18.7233274,6.77744054 C19.0582427,4.74168027 18.7377423,3.14215434 17.7685737,2.0220035 C16.7043284,0.792039865 14.8165964,0.141610236 12.3102527,0.141610236 M13.1742236,7.04020687 C12.7644739,9.68295434 10.7117379,9.68295434 8.72647571,9.68295434 L7.59659684,9.68295434 L8.38910689,4.74711057 C8.43633852,4.44874559 8.69917951,4.22881832 9.00587844,4.22881832 L9.52358624,4.22881832 C10.8758218,4.22881832 12.1513827,4.22881832 12.8104787,4.98725064 C13.2036667,5.43947421 13.3241994,6.11162505 13.1742236,7.04020687" id="Fill-1" fill="#253B80"></path>
                    <path d="M34.6941837,6.95495111 L31.1082597,6.95495111 C30.8027876,6.95495111 30.5390265,7.17487838 30.4917949,7.47294168 L30.3329248,8.45974842 L30.0823518,8.10195178 C29.3060968,6.9935666 27.5747813,6.62309926 25.8471462,6.62309926 C21.8842893,6.62309926 18.4998666,9.57537401 17.8407706,13.7168851 C17.4981879,15.7822104 17.9855325,17.7576339 19.1767511,19.1354225 C20.2695194,20.4018898 21.8327639,20.9295343 23.6931996,20.9295343 C26.8862422,20.9295343 28.6565085,18.9100649 28.6565085,18.9100649 L28.4967183,19.8902346 C28.4366053,20.2652272 28.7301162,20.6010009 29.1122631,20.6010009 L32.3421095,20.6010009 C32.8558303,20.6010009 33.2895025,20.2347572 33.3704711,19.736376 L35.3085016,7.66360566 C35.3698414,7.29223327 35.0772506,6.95495111 34.6941837,6.95495111 M29.6959111,13.8200609 C29.3496481,15.835005 27.723837,17.1877538 25.6499388,17.1877538 C24.6086959,17.1877538 23.776315,16.8595222 23.2420455,16.2368474 C22.7123764,15.6186979 22.5105685,14.7386871 22.679253,13.7585174 C23.0022069,11.7607693 24.6559276,10.363673 26.6979291,10.363673 C27.7161695,10.363673 28.54395,10.6967316 29.0892607,11.3245349 C29.6354915,11.9586737 29.8523276,12.8441147 29.6959111,13.8200609" id="Fill-3" fill="#253B80"></path>
                    <path d="M53.7921729,6.95495111 L50.1887671,6.95495111 C49.8449576,6.95495111 49.5216969,7.12298882 49.3269431,7.40415785 L44.3568869,14.605343 L42.2501719,7.68502519 C42.1179847,7.25210936 41.7116086,6.95495111 41.2515602,6.95495111 L37.710721,6.95495111 C37.2804224,6.95495111 36.981391,7.36855919 37.1184854,7.7670831 L41.0874763,19.2244191 L37.3558704,24.4061349 C37.0623595,24.8146144 37.3580172,25.375444 37.8649906,25.375444 L41.4644093,25.375444 C41.8057652,25.375444 42.1256522,25.2116299 42.3194859,24.9361929 L54.3046668,7.9188299 C54.5914303,7.51185886 54.2969993,6.95495111 53.7921729,6.95495111" id="Fill-5" fill="#253B80"></path>
                    <path d="M65.7225774,0.141610236 L58.2332961,0.141610236 C57.722029,0.141610236 57.2862098,0.507854007 57.2061614,1.0053301 L54.1775094,19.8934325 C54.1173964,20.2660116 54.4106006,20.602087 54.7927475,20.602087 L58.6362985,20.602087 C58.9932961,20.602087 59.2987682,20.3459577 59.3542807,19.9966082 L60.2139578,14.6429328 C60.2927794,14.14425 60.7298254,13.7780062 61.2410925,13.7780062 L63.6103418,13.7780062 C68.5442075,13.7780062 71.3900669,11.4300035 72.1344252,6.77744054 C72.470874,4.74168027 72.1476133,3.14215434 71.1787514,2.0220035 C70.1154262,0.792039865 68.228921,0.141610236 65.7225774,0.141610236 M66.5865482,7.04020687 C66.1780253,9.68295434 64.1252893,9.68295434 62.1388003,9.68295434 L61.0101482,9.68295434 L61.8038851,4.74711057 C61.8511167,4.44874559 62.1118108,4.22881832 62.4191231,4.22881832 L62.9371376,4.22881832 C64.2881464,4.22881832 65.5649341,4.22881832 66.2243368,4.98725064 C66.6172181,5.43947421 66.7368307,6.11162505 66.5865482,7.04020687" id="Fill-7" fill="#179BD7"></path>
                    <path d="M88.1056188,6.95495111 L84.5215351,6.95495111 C84.2142228,6.95495111 83.9523019,7.17487838 83.9066037,7.47294168 L83.7477337,8.45974842 L83.4959339,8.10195178 C82.7193722,6.9935666 80.9895902,6.62309926 79.2616484,6.62309926 C75.2990982,6.62309926 71.9155956,9.57537401 71.2564996,13.7168851 C70.9148369,15.7822104 71.4000347,17.7576339 72.5912533,19.1354225 C73.6861685,20.4018898 75.2475728,20.9295343 77.1080085,20.9295343 C80.3007444,20.9295343 82.0713173,18.9100649 82.0713173,18.9100649 L81.9115272,19.8902346 C81.8511075,20.2652272 82.1446184,20.6010009 82.5289121,20.6010009 L85.7581452,20.6010009 C86.2694123,20.6010009 86.7052315,20.2347572 86.7849732,19.736376 L88.7242306,7.66360566 C88.7834235,7.29223327 88.4899126,6.95495111 88.1056188,6.95495111 M83.1070396,13.8200609 C82.7632301,15.835005 81.1349655,17.1877538 79.061374,17.1877538 C78.022278,17.1877538 77.1877502,16.8595222 76.6534807,16.2368474 C76.1238116,15.6186979 75.9241506,14.7386871 76.0906881,13.7585174 C76.4160957,11.7607693 78.0673628,10.363673 80.1093643,10.363673 C81.127298,10.363673 81.9550784,10.6967316 82.5006958,11.3245349 C83.0490735,11.9586737 83.2659097,12.8441147 83.1070396,13.8200609" id="Fill-9" fill="#179BD7"></path>
                    <path d="M92.3332183,0.659661145 L89.2597883,19.8931911 C89.1993686,20.2660719 89.4928795,20.6021473 89.8747196,20.6021473 L92.9650181,20.6021473 C93.4784321,20.6021473 93.9142513,20.2359036 93.9930729,19.7372207 L97.0238718,0.850325118 C97.0839847,0.47744431 96.7904739,0.140463838 96.408327,0.140463838 L92.9484563,0.140463838 C92.6429842,0.141670572 92.3801432,0.361296162 92.3332183,0.659661145" id="Fill-11" fill="#179BD7"></path>
                </g>
            </g>
        </g>
    </g>
</svg>