<?xml version="1.0" encoding="UTF-8"?>
<svg width="83px" height="30px" viewBox="0 0 83 30" version="1.1" xmlns="http://www.w3.org/2000/svg" xmlns:xlink="http://www.w3.org/1999/xlink">
    <!-- Generator: Sketch 45 (43475) - http://www.bohemiancoding.com/sketch -->
    <title>Page 1</title>
    <desc>Created with Sketch.</desc>
    <defs>
        <polygon id="path-1" points="0 29.8863303 82.9244205 29.8863303 82.9244205 0 0 0"></polygon>
    </defs>
    <g id="Page-1" stroke="none" stroke-width="1" fill="none" fill-rule="evenodd">
        <g id="payment-methods-ver-two" transform="translate(-975.000000, -478.000000)">
            <g id="Group-2" transform="translate(941.000000, 418.000000)">
                <g id="Page-1" transform="translate(34.000000, 60.000000)">
                    <path d="M0.0221516556,27.1856697 L0.872489404,27.0997982 C0.923608609,27.3865872 1.02749603,27.5974128 1.18387682,27.732 C1.34025762,27.8668624 1.55133046,27.9340183 1.81709536,27.9340183 C2.09852583,27.9340183 2.31069801,27.8742936 2.45333709,27.7545688 C2.59597616,27.6351193 2.66743311,27.4953028 2.66743311,27.3351193 C2.66743311,27.2324587 2.63747616,27.145211 2.57756225,27.0728257 C2.51792318,27.0007156 2.41321126,26.9382385 2.26397616,26.8845688 C2.16201258,26.8496147 1.92922781,26.7868624 1.56617152,26.6965872 C1.09895298,26.5809908 0.771350331,26.438422 0.582813907,26.269156 C0.31787351,26.0313578 0.185403311,25.7412661 0.185403311,25.3988807 C0.185403311,25.1789725 0.247790728,24.9728257 0.372565563,24.7812661 C0.497615232,24.589156 0.677631788,24.4432844 0.912890066,24.3431009 C1.14787351,24.2429174 1.43177748,24.1925505 1.76432715,24.1925505 C2.3074,24.1925505 2.71635364,24.3122752 2.99091325,24.5511743 C3.26519801,24.7903486 3.40948609,25.1093394 3.42322781,25.508422 L2.54733046,25.5428257 C2.50967815,25.3198899 2.42942649,25.1597064 2.3065755,25.0617248 C2.1837245,24.9640183 1.99903576,24.9150275 1.75333377,24.9150275 C1.49938675,24.9150275 1.30068146,24.9670459 1.15721788,25.071633 C1.06459868,25.138789 1.01842649,25.2285138 1.01842649,25.3408073 C1.01842649,25.4434679 1.0615755,25.5309908 1.14814834,25.6042018 C1.25835695,25.6966789 1.52577086,25.7930092 1.9506649,25.8931927 C2.37528411,25.9933761 2.68941987,26.0971376 2.89307219,26.2050275 C3.09644967,26.3126422 3.25585364,26.4598899 3.37100927,26.6464954 C3.48589007,26.8336514 3.5436053,27.0642936 3.5436053,27.3389725 C3.5436053,27.5883303 3.47462185,27.8214495 3.33665497,28.0388807 C3.19868808,28.2563119 3.00383046,28.4178716 2.75180728,28.5235596 C2.49978411,28.6292477 2.18564834,28.6820917 1.8094,28.6820917 C1.2619298,28.6820917 0.841158278,28.5549358 0.547909934,28.3000734 C0.254386755,28.045211 0.0793172185,27.6736514 0.0221516556,27.1856697 Z" id="Fill-1" fill="#0054A5"></path>
                    <mask id="mask-2" fill="white">
                        <use xlink:href="#path-1"></use>
                    </mask>
                    <g id="Clip-4"></g>
                    <path d="M4.45121854,28.6048624 L5.28424172,28.6048624 L5.28424172,25.4655963 L4.45121854,25.4655963 L4.45121854,28.6048624 Z M4.45121854,25.0354128 L5.28424172,25.0354128 L5.28424172,24.27 L4.45121854,24.27 L4.45121854,25.0354128 Z" id="Fill-3" fill="#0054A5" mask="url(#mask-2)"></path>
                    <path d="M9.1723245,28.6048073 L8.33930132,28.6048073 L8.33930132,26.9991193 C8.33930132,26.6594862 8.32143709,26.4398532 8.28625828,26.339945 C8.25080464,26.2403119 8.19363907,26.1626972 8.11421192,26.1073761 C8.03478477,26.0523303 7.93914238,26.0245321 7.8275596,26.0245321 C7.68437086,26.0245321 7.55602318,26.0641651 7.44251656,26.143156 C7.3287351,26.2221468 7.25068212,26.3267339 7.20863245,26.4569174 C7.16658278,26.5873761 7.14542053,26.8282018 7.14542053,27.1796697 L7.14542053,28.6048073 L6.31239735,28.6048073 L6.31239735,25.4655413 L7.08523179,25.4655413 L7.08523179,25.9268257 C7.35869205,25.5676514 7.70333444,25.3879266 8.11860927,25.3879266 C8.30164901,25.3879266 8.46874834,25.4215046 8.62018212,25.4875596 C8.77161589,25.5536147 8.88622185,25.6381101 8.96427483,25.7407706 C9.04177815,25.8434312 9.09592053,25.9598532 9.12642715,26.0900367 C9.15693377,26.2204954 9.1723245,26.4071009 9.1723245,26.649578 L9.1723245,28.6048073 Z" id="Fill-5" fill="#0054A5" mask="url(#mask-2)"></path>
                    <path d="M10.8570321,26.9674128 C10.8570321,27.3015413 10.9207937,27.5462202 11.0488666,27.7011743 C11.1769394,27.8564037 11.3344195,27.9340183 11.5221315,27.9340183 C11.7230354,27.9340183 11.8931579,27.8544771 12.0316745,27.6953945 C12.1704659,27.5360367 12.2397242,27.3004404 12.2397242,26.988055 C12.2397242,26.6621835 12.1734891,26.4199817 12.0404692,26.2617248 C11.9077242,26.1034679 11.7398003,26.0244771 11.5366977,26.0244771 C11.3393666,26.0244771 11.1769394,26.1020917 11.0488666,26.2573211 C10.9207937,26.4125505 10.8570321,26.6492477 10.8570321,26.9674128 M10.1097573,28.8111743 L11.0546381,28.9143853 C11.0703036,29.0313578 11.1068566,29.1117248 11.164297,29.1557615 C11.2431745,29.2185138 11.3676745,29.2498899 11.537797,29.2498899 C11.7549162,29.2498899 11.917893,29.2174128 12.0267275,29.1521835 C12.0995586,29.1089725 12.1550752,29.038789 12.1927275,28.9424587 C12.2182871,28.8731009 12.2312043,28.7462202 12.2312043,28.5607156 L12.2336778,28.1024587 C11.9882507,28.4374128 11.6763136,28.6047523 11.2981414,28.6047523 C10.8765454,28.6047523 10.5426215,28.4264037 10.2963699,28.0688807 C10.1031613,27.7864954 10.0066944,27.4347523 10.0066944,27.0142018 C10.0066944,26.4868624 10.133393,26.0842018 10.3865156,25.8056697 C10.6393632,25.5274128 10.9543235,25.3881468 11.3305719,25.3881468 C11.7186381,25.3881468 12.0388202,25.5590642 12.291393,25.9003486 L12.291393,25.4654862 L13.0642275,25.4654862 L13.0642275,28.2874128 C13.0642275,28.6586972 13.0337209,28.9358532 12.9727076,29.119156 C12.9114195,29.3030092 12.8256712,29.4472294 12.7151877,29.5518165 C12.6047043,29.6564037 12.457393,29.7381468 12.2729791,29.7975963 C12.0885652,29.8567706 11.8555056,29.8862202 11.5738003,29.8862202 C11.041446,29.8862202 10.6638235,29.7942936 10.4409328,29.6107156 C10.2183169,29.4274128 10.1070089,29.1945688 10.1070089,28.9121835 C10.1070089,28.8846606 10.1078334,28.8510826 10.1097573,28.8111743" id="Fill-6" fill="#0054A5" mask="url(#mask-2)"></path>
                    <polygon id="Fill-7" fill="#0054A5" mask="url(#mask-2)" points="14.061904 28.6048624 14.8949272 28.6048624 14.8949272 24.27 14.061904 24.27"></polygon>
                    <path d="M17.7953924,26.7728257 C17.7896209,26.528422 17.7269586,26.3429174 17.6082301,26.2154862 C17.4892268,26.0883303 17.3446639,26.0244771 17.1745414,26.0244771 C16.9923262,26.0244771 16.8417169,26.091633 16.7229884,26.225945 C16.6039851,26.3599817 16.5457202,26.5424587 16.547644,26.7728257 L17.7953924,26.7728257 Z M17.7525182,27.6158532 L18.5770215,27.7534679 C18.4703858,28.055945 18.3019123,28.2865872 18.0718758,28.444844 C17.8415646,28.6031009 17.5538129,28.6820917 17.208346,28.6820917 C16.6611507,28.6820917 16.2563195,28.5031927 15.9935778,28.1451193 C15.7860778,27.858055 15.6824652,27.4964037 15.6824652,27.058789 C15.6824652,26.5369541 15.8187831,26.1276881 16.091144,25.8318165 C16.3637798,25.535945 16.7078725,25.3881468 17.1245215,25.3881468 C17.5922897,25.3881468 17.9613924,25.5433761 18.2318295,25.8535596 C18.5022666,26.1642936 18.6317136,26.6396147 18.6198957,27.2803486 L16.532803,27.2803486 C16.5388493,27.5275046 16.6064586,27.7193394 16.7356308,27.8569541 C16.864803,27.9940183 17.025856,28.0628257 17.2187897,28.0628257 C17.3498858,28.0628257 17.4600944,28.0278716 17.5496904,27.9571376 C17.6390116,27.8866789 17.7066209,27.7727339 17.7525182,27.6158532 L17.7525182,27.6158532 Z" id="Fill-8" fill="#0054A5" mask="url(#mask-2)"></path>
                    <polygon id="Fill-9" fill="#0054A5" mask="url(#mask-2)" points="21.3457036 28.6048073 21.3457036 24.269945 24.5491738 24.269945 24.5491738 25.0009541 22.2218758 25.0009541 22.2218758 25.9642569 24.386197 25.9642569 24.386197 26.6955413 22.2218758 26.6955413 22.2218758 27.8737982 24.635197 27.8737982 24.635197 28.6048073"></polygon>
                    <path d="M27.6125609,28.6048073 L27.6125609,28.1347156 C27.497955,28.302055 27.3476205,28.4355413 27.1610079,28.5340734 C26.9746702,28.6328807 26.7776139,28.6821468 26.5703887,28.6821468 C26.3593159,28.6821468 26.169955,28.635633 26.002306,28.5428807 C25.8343821,28.4501284 25.7129053,28.319945 25.6378755,28.152055 C25.5628457,27.9841651 25.5254682,27.7521468 25.5254682,27.456 L25.5254682,25.4655413 L26.3587662,25.4655413 L26.3587662,26.9093945 C26.3587662,27.3511376 26.3738821,27.6222385 26.4043887,27.7215963 C26.4348954,27.8215046 26.4904119,27.9002202 26.5712132,27.9585688 C26.6520146,28.0166422 26.7545278,28.0458165 26.878753,28.0458165 C27.0205675,28.0458165 27.1475411,28.0070092 27.2599483,27.9291193 C27.3720808,27.8512294 27.4490344,27.7543486 27.4902596,27.6387523 C27.5317596,27.5234312 27.5523722,27.2410459 27.5523722,26.7910459 L27.5523722,25.4655413 L28.3856702,25.4655413 L28.3856702,28.6048073 L27.6125609,28.6048073 Z" id="Fill-10" fill="#0054A5" mask="url(#mask-2)"></path>
                    <path d="M30.2162325,28.6048073 L29.3832093,28.6048073 L29.3832093,25.4655413 L30.1560437,25.4655413 L30.1560437,25.9119633 C30.2882391,25.7008624 30.4069675,25.5610459 30.512504,25.4916881 C30.6177656,25.4226055 30.7375934,25.3879266 30.8717126,25.3879266 C31.0607987,25.3879266 31.2430139,25.4407706 31.4186331,25.545633 L31.1652358,26.2722385 C31.0247954,26.1816881 30.894249,26.1362752 30.7738715,26.1362752 C30.6570669,26.1362752 30.5584013,26.1684771 30.4773252,26.2326055 C30.396249,26.2967339 30.3322126,26.4126055 30.2857656,26.5804954 C30.2393185,26.7481101 30.2162325,27.0993028 30.2162325,27.6340734 L30.2162325,28.6048073 Z" id="Fill-11" fill="#0054A5" mask="url(#mask-2)"></path>
                    <path d="M32.6046536,27.0351468 C32.6046536,27.3480826 32.6785841,27.5872569 32.8267199,27.7532202 C32.9748556,27.9197339 33.1576205,28.0028532 33.3747397,28.0028532 C33.5918589,28.0028532 33.7740742,27.9197339 33.9213854,27.7532202 C34.0684219,27.5872569 34.1420775,27.3458807 34.1420775,27.029367 C34.1420775,26.7205596 34.0684219,26.4830367 33.9213854,26.3170734 C33.7740742,26.1508349 33.5918589,26.0674404 33.3747397,26.0674404 C33.1576205,26.0674404 32.9748556,26.1508349 32.8267199,26.3170734 C32.6785841,26.4830367 32.6046536,26.7224862 32.6046536,27.0351468 M31.7543159,26.9905596 C31.7543159,26.7136789 31.8222,26.4453303 31.958243,26.1863394 C32.0940113,25.9273486 32.2866702,25.7294587 32.535945,25.592945 C32.784945,25.4564312 33.0630775,25.3881743 33.3703424,25.3881743 C33.8449815,25.3881743 34.234147,25.5428532 34.5372894,25.8524862 C34.8407066,26.1621193 34.9924152,26.5534954 34.9924152,27.0263394 C34.9924152,27.5030367 34.8390576,27.8985413 34.5328921,28.2117523 C34.2264517,28.5255138 33.8411338,28.6821193 33.3763887,28.6821193 C33.0886371,28.6821193 32.8143523,28.6168899 32.5535344,28.4864312 C32.2924417,28.3559725 32.0940113,28.1646881 31.958243,27.9123028 C31.8222,27.6599174 31.7543159,27.3527615 31.7543159,26.9905596" id="Fill-12" fill="#0054A5" mask="url(#mask-2)"></path>
                    <path d="M38.5810934,25.0010367 L38.5810934,26.2395688 L39.058206,26.2395688 C39.401749,26.2395688 39.6315106,26.217 39.7474907,26.1713119 C39.863196,26.1256239 39.9541662,26.0540642 40.0198517,25.9569083 C40.0855371,25.8594771 40.1185172,25.7463578 40.1185172,25.6172752 C40.1185172,25.4584679 40.072345,25.3277339 39.9800007,25.2245229 C39.8876563,25.1213119 39.7708517,25.056633 39.6295868,25.0307615 C39.5254245,25.010945 39.3162755,25.0010367 39.0021397,25.0010367 L38.5810934,25.0010367 Z M37.7049212,28.6048899 L37.7049212,24.2700275 L39.1074013,24.2700275 C39.6386563,24.2700275 39.9849477,24.2917706 40.1465503,24.3349817 C40.394451,24.3999358 40.601951,24.5416789 40.7693252,24.7596606 C40.9364245,24.977367 41.020249,25.2589266 41.020249,25.6040642 C41.020249,25.870211 40.972153,26.0939725 40.8756861,26.2756239 C40.779494,26.4567248 40.6569179,26.5995688 40.5085073,26.703055 C40.3600967,26.8068165 40.2089377,26.8750734 40.055855,26.9086514 C39.8472556,26.9499358 39.5454874,26.970578 39.1502755,26.970578 L38.5810934,26.970578 L38.5810934,28.6048899 L37.7049212,28.6048899 Z" id="Fill-13" fill="#0054A5" mask="url(#mask-2)"></path>
                    <path d="M43.6372225,27.0996606 C43.5308616,27.1354404 43.3629377,27.1778257 43.1331762,27.227367 C42.9034146,27.2769083 42.7530801,27.3253486 42.6824477,27.3726881 C42.5744377,27.4500275 42.520845,27.5480092 42.520845,27.6669083 C42.520845,27.7836055 42.5637192,27.8846147 42.6500172,27.9696606 C42.7365901,28.0549817 42.8465238,28.097367 42.9800934,28.097367 C43.1293285,28.097367 43.2716927,28.0478257 43.4074609,27.9490183 C43.5072258,27.8738807 43.5734609,27.7819541 43.6047921,27.6726881 C43.6262291,27.6014037 43.6372225,27.4657156 43.6372225,27.2658991 L43.6372225,27.0996606 Z M42.520845,26.4201193 L41.7735702,26.2825046 C41.8579444,25.9786514 42.0038815,25.7535138 42.210557,25.607367 C42.4175073,25.4612202 42.7247722,25.3880092 43.1323517,25.3880092 C43.5025536,25.3880092 43.7784874,25.4320459 43.9596033,25.519844 C44.1407192,25.6079174 44.2685172,25.7193853 44.341898,25.8547982 C44.4161033,25.9899358 44.453206,26.2381927 44.453206,26.599844 L44.4446861,27.5711284 C44.4446861,27.8477339 44.4576033,28.0516789 44.4842623,28.1829633 C44.5109212,28.3139725 44.5603914,28.4548899 44.6334974,28.6048899 L43.808994,28.6048899 C43.7870073,28.5503945 43.7606232,28.4700275 43.7290172,28.3629633 C43.7152755,28.3142477 43.7053815,28.2823211 43.6998848,28.266633 C43.5580702,28.4050734 43.4066364,28.5091101 43.2453086,28.5784679 C43.0839808,28.6475505 42.9119344,28.6822294 42.7288947,28.6822294 C42.4062391,28.6822294 42.1520172,28.5944312 41.9662291,28.4185596 C41.7804411,28.2426881 41.687547,28.020578 41.687547,27.7516789 C41.687547,27.5744312 41.7298715,27.4156239 41.8142457,27.276633 C41.8991695,27.137367 42.0176232,27.0303028 42.1704311,26.9562661 C42.3232391,26.8825046 42.5433815,26.8175505 42.8305834,26.7619541 C43.2186497,26.6892936 43.4874377,26.6213119 43.6372225,26.5577339 L43.6372225,26.4740642 C43.6372225,26.3122294 43.5973715,26.1969083 43.5182192,26.1278257 C43.4390669,26.0590183 43.289557,26.0246147 43.0699642,26.0246147 C42.9215536,26.0246147 42.8058483,26.053789 42.7225735,26.1121376 C42.6392987,26.1707615 42.5719642,26.273422 42.520845,26.4201193 L42.520845,26.4201193 Z" id="Fill-14" fill="#0054A5" mask="url(#mask-2)"></path>
                    <path d="M45.0511083,25.4654862 L45.9358003,25.4654862 L46.6871977,27.6942936 L47.4215553,25.4654862 L48.2804129,25.4654862 L47.1755785,28.4869541 L46.97385,29.0385138 C46.900744,29.222367 46.8314858,29.3627339 46.7652507,29.4596147 C46.6992904,29.5562202 46.6234361,29.6346606 46.5374129,29.6949358 C46.4516646,29.755211 46.346403,29.8025505 46.2210785,29.8358532 C46.095754,29.8697064 45.9542142,29.8862202 45.7964593,29.8862202 C45.6367805,29.8862202 45.47985,29.8697064 45.3259427,29.8361284 L45.2487142,29.185211 C45.3789858,29.2110826 45.4971646,29.2240183 45.6018765,29.2240183 C45.7961844,29.2240183 45.9393732,29.1664954 46.0325421,29.052 C46.1257109,28.9369541 46.196893,28.7908073 46.2466381,28.6135596 L45.0511083,25.4654862 Z" id="Fill-15" fill="#0054A5" mask="url(#mask-2)"></path>
                    <path d="M48.930204,25.4654862 L49.6945185,25.4654862 L49.6945185,25.8942936 C49.9690781,25.5568624 50.2958563,25.3881468 50.6751278,25.3881468 C50.8763066,25.3881468 51.0511013,25.4294312 51.1992371,25.5122752 C51.3473728,25.5953945 51.4688497,25.7208991 51.5633927,25.8885138 C51.7013596,25.7208991 51.8505947,25.5953945 52.0099987,25.5122752 C52.1699523,25.4294312 52.3400748,25.3881468 52.5214656,25.3881468 C52.7523265,25.3881468 52.9474589,25.4349358 53.1071377,25.528789 C53.2668166,25.622367 53.3863695,25.7602569 53.465247,25.9419083 C53.5221377,26.0762202 53.5507205,26.2933761 53.5507205,26.5936514 L53.5507205,28.6047523 L52.7176974,28.6047523 L52.7176974,26.8066789 C52.7176974,26.4945688 52.6891146,26.2933761 52.6322238,26.2025505 C52.5552702,26.0836514 52.4373662,26.0244771 52.2782371,26.0244771 C52.1619821,26.0244771 52.052598,26.0599817 51.9503596,26.1312661 C51.8481212,26.2025505 51.7744656,26.3065872 51.7293927,26.4439266 C51.684045,26.5809908 51.6615086,26.7978716 51.6615086,27.0940183 L51.6615086,28.6047523 L50.8282106,28.6047523 L50.8282106,26.8809908 C50.8282106,26.5743853 50.8136444,26.3773211 50.7839623,26.2881468 C50.754555,26.1992477 50.7089325,26.1331927 50.6468199,26.0897064 C50.5849821,26.0462202 50.5008828,26.0244771 50.3945219,26.0244771 C50.2667238,26.0244771 50.1515682,26.059156 50.0493298,26.1282385 C49.9470914,26.1973211 49.8739854,26.2969541 49.8294623,26.4274128 C49.7852139,26.5578716 49.7632272,26.7739266 49.7632272,27.0761284 L49.7632272,28.6047523 L48.930204,28.6047523 L48.930204,25.4654862 Z" id="Fill-16" fill="#0054A5" mask="url(#mask-2)"></path>
                    <path d="M56.4202394,26.7728257 C56.4144679,26.528422 56.3520805,26.3429174 56.2328023,26.2154862 C56.1143487,26.0883303 55.9695109,26.0244771 55.7991136,26.0244771 C55.6171732,26.0244771 55.4662891,26.091633 55.3478354,26.225945 C55.2288321,26.3599817 55.1705672,26.5424587 55.1724911,26.7728257 L56.4202394,26.7728257 Z M56.3773652,27.6158532 L57.2018685,27.7534679 C57.0949579,28.055945 56.9267593,28.2865872 56.6967228,28.444844 C56.4664116,28.6031009 56.1786599,28.6820917 55.8329182,28.6820917 C55.2859977,28.6820917 54.8811666,28.5031927 54.6184248,28.1451193 C54.4109248,27.858055 54.3075871,27.4964037 54.3075871,27.058789 C54.3075871,26.5369541 54.443905,26.1276881 54.7159911,25.8318165 C54.9886268,25.535945 55.3327195,25.3881468 55.7493685,25.3881468 C56.2174116,25.3881468 56.5862394,25.5433761 56.8566765,25.8535596 C57.1271136,26.1642936 57.2565606,26.6396147 57.2447427,27.2803486 L55.15765,27.2803486 C55.1636964,27.5275046 55.2313056,27.7193394 55.3607526,27.8569541 C55.4893752,27.9940183 55.6504281,28.0628257 55.8436368,28.0628257 C55.9747328,28.0628257 56.0849414,28.0278716 56.1742626,27.9571376 C56.2641334,27.8866789 56.3317427,27.7727339 56.3773652,27.6158532 L56.3773652,27.6158532 Z" id="Fill-17" fill="#0054A5" mask="url(#mask-2)"></path>
                    <path d="M60.9520669,28.6048073 L60.1190437,28.6048073 L60.1190437,26.9991193 C60.1190437,26.6594862 60.1011795,26.4398532 60.0660007,26.339945 C60.030547,26.2403119 59.9731066,26.1626972 59.8936795,26.1073761 C59.8142523,26.0523303 59.7188848,26.0245321 59.6070272,26.0245321 C59.4643881,26.0245321 59.3357656,26.0641651 59.2222589,26.143156 C59.1084775,26.2221468 59.0306993,26.3267339 58.9881,26.4569174 C58.9463252,26.5873761 58.9251629,26.8282018 58.9251629,27.1796697 L58.9251629,28.6048073 L58.0921397,28.6048073 L58.0921397,25.4655413 L58.8649742,25.4655413 L58.8649742,25.9268257 C59.1384344,25.5676514 59.4830768,25.3879266 59.8980768,25.3879266 C60.0811166,25.3879266 60.2484907,25.4215046 60.3999245,25.4875596 C60.5513583,25.5536147 60.6662391,25.6381101 60.7440172,25.7407706 C60.8215205,25.8434312 60.8756629,25.9598532 60.9061695,26.0900367 C60.9366762,26.2204954 60.9520669,26.4071009 60.9520669,26.649578 L60.9520669,28.6048073 Z" id="Fill-18" fill="#0054A5" mask="url(#mask-2)"></path>
                    <path d="M63.4097189,25.4654862 L63.4097189,26.1276881 L62.8427354,26.1276881 L62.8427354,27.3978716 C62.8427354,27.6549358 62.8479573,27.8049358 62.8586758,27.8473211 C62.8691195,27.8899817 62.893305,27.9249358 62.9312321,27.9527339 C62.9688844,27.9802569 63.0147818,27.9942936 63.0689242,27.9942936 C63.1445036,27.9942936 63.2536129,27.9675963 63.3968017,27.9142018 L63.4699076,28.5579633 C63.2777983,28.6408073 63.0604043,28.682367 62.8177255,28.682367 C62.6684904,28.682367 62.5343712,28.6570459 62.415093,28.6066789 C62.2955401,28.5563119 62.2078679,28.4910826 62.1520765,28.4109908 C62.0962851,28.3311743 62.0575334,28.2230092 62.0360964,28.0864954 C62.018507,27.9898899 62.0097123,27.7942018 62.0097123,27.4999817 L62.0097123,26.1276881 L61.6318149,26.1276881 L61.6318149,25.4654862 L62.0097123,25.4654862 L62.0097123,24.8376881 L62.8427354,24.3475046 L62.8427354,25.4654862 L63.4097189,25.4654862 Z" id="Fill-19" fill="#0054A5" mask="url(#mask-2)"></path>
                    <path d="M63.8783391,27.7189266 L64.7113623,27.589844 C64.7468159,27.7503028 64.8185477,27.8722294 64.9265576,27.9553486 C65.0348424,28.0387431 65.1862762,28.0800275 65.3808589,28.0800275 C65.5952298,28.0800275 65.7565576,28.0403945 65.8648424,27.9611284 C65.9373987,27.9055321 65.9739517,27.8312202 65.9739517,27.7376422 C65.9739517,27.6743394 65.9541636,27.6214954 65.9143126,27.580211 C65.8728126,27.540578 65.7796437,27.5039725 65.6353556,27.4701193 C64.9620113,27.3212202 64.5354682,27.1855321 64.3554517,27.0627798 C64.105902,26.8929633 63.981402,26.6568165 63.981402,26.3546147 C63.981402,26.0818624 64.0891371,25.8525963 64.3048821,25.6668165 C64.5206272,25.4810367 64.8553755,25.3880092 65.3083026,25.3880092 C65.7397927,25.3880092 66.0602497,25.4576422 66.2702232,25.596633 C66.4801967,25.7358991 66.6244848,25.9414954 66.7039119,26.2136972 L65.9222828,26.3601193 C65.8884781,26.2379174 65.8241669,26.1440642 65.7296238,26.0791101 C65.6350808,26.014156 65.4998623,25.9816789 65.3250675,25.9816789 C65.1038258,25.9816789 64.9455212,26.0122294 64.8498788,26.0738807 C64.7861172,26.1176422 64.7545113,26.1740642 64.7545113,26.243422 C64.7545113,26.3028716 64.7817199,26.3535138 64.8372364,26.3953486 C64.9125411,26.450945 65.1719848,26.5293853 65.6158424,26.6303945 C66.0597,26.7316789 66.3697132,26.8555321 66.5458821,27.0022294 C66.7198523,27.1511284 66.8069748,27.3581009 66.8069748,27.6236972 C66.8069748,27.9129633 66.6868722,28.1617706 66.4469417,28.369844 C66.2064616,28.5781927 65.8513755,28.6822294 65.3808589,28.6822294 C64.9537662,28.6822294 64.6159947,28.5958073 64.3667199,28.4232385 C64.1177199,28.2501193 63.9550179,28.0156239 63.8783391,27.7189266" id="Fill-20" fill="#0054A5" mask="url(#mask-2)"></path>
                    <path d="M71.8770106,26.8932385 L71.2718252,25.2847982 L70.6869775,26.8932385 L71.8770106,26.8932385 Z M73.4834179,28.6048899 L72.5401861,28.6048899 L72.1658616,27.6242477 L70.4212126,27.6242477 L70.0644775,28.6048899 L69.1374609,28.6048899 L70.8142258,24.2700275 L71.735196,24.2700275 L73.4834179,28.6048899 Z" id="Fill-21" fill="#0054A5" mask="url(#mask-2)"></path>
                    <path d="M74.9136013,28.6048073 L74.0805781,28.6048073 L74.0805781,25.4655413 L74.8534126,25.4655413 L74.8534126,25.9119633 C74.9856079,25.7008624 75.1040616,25.5610459 75.2098728,25.4916881 C75.3151344,25.4226055 75.4346874,25.3879266 75.5690815,25.3879266 C75.7581675,25.3879266 75.9403828,25.4407706 76.116002,25.545633 L75.8626046,26.2722385 C75.7221642,26.1816881 75.5916179,26.1362752 75.4712404,26.1362752 C75.3544358,26.1362752 75.2554954,26.1684771 75.1744192,26.2326055 C75.093343,26.2967339 75.0295815,26.4126055 74.9834093,26.5804954 C74.9366874,26.7481101 74.9136013,27.0993028 74.9136013,27.6340734 L74.9136013,28.6048073 Z" id="Fill-22" fill="#0054A5" mask="url(#mask-2)"></path>
                    <path d="M78.5216003,26.7728257 C78.5158288,26.528422 78.4531666,26.3429174 78.3344381,26.2154862 C78.2154348,26.0883303 78.0708719,26.0244771 77.9007493,26.0244771 C77.7182593,26.0244771 77.5679248,26.091633 77.4491964,26.225945 C77.330193,26.3599817 77.2716533,26.5424587 77.273852,26.7728257 L78.5216003,26.7728257 Z M78.4787262,27.6158532 L79.3032295,27.7534679 C79.1965937,28.055945 79.0281202,28.2865872 78.7980838,28.444844 C78.5680474,28.6031009 78.2800209,28.6820917 77.934554,28.6820917 C77.3873586,28.6820917 76.9822526,28.5031927 76.7197858,28.1451193 C76.5122858,27.858055 76.408948,27.4964037 76.408948,27.058789 C76.408948,26.5369541 76.5449911,26.1276881 76.8176268,25.8318165 C77.0897129,25.535945 77.4343553,25.3881468 77.8510043,25.3881468 C78.3184977,25.3881468 78.6876003,25.5433761 78.9583123,25.8535596 C79.2284745,26.1642936 79.3579215,26.6396147 79.3461036,27.2803486 L77.2590109,27.2803486 C77.2650573,27.5275046 77.3326666,27.7193394 77.4618387,27.8569541 C77.5910109,27.9940183 77.7520639,28.0628257 77.9447228,28.0628257 C78.0760937,28.0628257 78.1863023,28.0278716 78.2758983,27.9571376 C78.3652195,27.8866789 78.4328288,27.7727339 78.4787262,27.6158532 L78.4787262,27.6158532 Z" id="Fill-23" fill="#0054A5" mask="url(#mask-2)"></path>
                    <path d="M81.9283106,27.0996606 C81.8219497,27.1354404 81.6540258,27.1778257 81.4242642,27.227367 C81.1945026,27.2769083 81.0441682,27.3253486 80.9735358,27.3726881 C80.8655258,27.4500275 80.8119331,27.5480092 80.8119331,27.6669083 C80.8119331,27.7836055 80.8548073,27.8846147 80.9411053,27.9696606 C81.0276781,28.0549817 81.1376119,28.097367 81.2711815,28.097367 C81.4204166,28.097367 81.5627808,28.0478257 81.698549,27.9490183 C81.7983139,27.8738807 81.864549,27.7819541 81.8958801,27.6726881 C81.9173172,27.6014037 81.9283106,27.4657156 81.9283106,27.2658991 L81.9283106,27.0996606 Z M80.8119331,26.4201193 L80.0646583,26.2825046 C80.1490325,25.9786514 80.2949695,25.7535138 80.501645,25.607367 C80.7085954,25.4612202 81.0158603,25.3880092 81.4234397,25.3880092 C81.7936417,25.3880092 82.0695755,25.4320459 82.2506914,25.519844 C82.4318073,25.6079174 82.5596053,25.7193853 82.6329861,25.8547982 C82.7071914,25.9899358 82.744294,26.2381927 82.744294,26.599844 L82.7357742,27.5711284 C82.7357742,27.8477339 82.7486914,28.0516789 82.7753503,28.1829633 C82.8020093,28.3139725 82.8514795,28.4548899 82.9243106,28.6048899 L82.1000821,28.6048899 C82.0780954,28.5503945 82.0517113,28.4700275 82.0201053,28.3629633 C82.0063636,28.3142477 81.9964695,28.2823211 81.9909728,28.266633 C81.8491583,28.4050734 81.6977245,28.5091101 81.5363967,28.5784679 C81.3750689,28.6475505 81.2030225,28.6822294 81.0199828,28.6822294 C80.6973272,28.6822294 80.4431053,28.5944312 80.2573172,28.4185596 C80.0715291,28.2426881 79.9786351,28.020578 79.9786351,27.7516789 C79.9786351,27.5744312 80.0209596,27.4156239 80.1053338,27.276633 C80.1902576,27.137367 80.3087113,27.0303028 80.4615192,26.9562661 C80.6143272,26.8825046 80.8344695,26.8175505 81.1216715,26.7619541 C81.5097377,26.6892936 81.7785258,26.6213119 81.9283106,26.5577339 L81.9283106,26.4740642 C81.9283106,26.3122294 81.8884596,26.1969083 81.8093073,26.1278257 C81.730155,26.0590183 81.580645,26.0246147 81.3610523,26.0246147 C81.2126417,26.0246147 81.0969364,26.053789 81.0136616,26.1121376 C80.9303868,26.1707615 80.8630523,26.273422 80.8119331,26.4201193 L80.8119331,26.4201193 Z" id="Fill-24" fill="#0054A5" mask="url(#mask-2)"></path>
                    <path d="M18.4179474,7.23663303 L12.7456394,7.23663303 C12.7456394,6.30443119 12.6365301,5.67911009 12.4188613,5.36066972 C12.0810897,4.88920183 11.1496758,4.65333028 9.62489437,4.65333028 C8.14381159,4.65333028 7.16237781,4.78901835 6.68334139,5.06066972 C6.2045798,5.33314679 5.96464934,5.9257156 5.96464934,6.83810092 C5.96464934,7.66406422 6.17709636,8.20791743 6.60254007,8.46855963 C6.90705662,8.65351376 7.30996391,8.76222936 7.81181159,8.79470642 L8.95567252,8.87562385 C11.4071957,9.03855963 12.9382983,9.15333028 13.5489805,9.21883486 C15.4879374,9.41452294 16.8931659,9.93057798 17.7654904,10.7675505 C18.4514772,11.4201193 18.8607056,12.2733303 18.9915268,13.3269083 C19.067656,13.9571835 19.1058579,14.670578 19.1058579,15.4629633 C19.1058579,17.2891101 18.9316129,18.6267248 18.5833977,19.4744312 C17.9518281,21.0297523 16.5331328,22.0123211 14.3253877,22.4248899 C13.4005699,22.5991101 11.985997,22.6863578 10.0830434,22.6863578 C6.90623212,22.6863578 4.69271556,22.497 3.44276854,22.1163578 C1.90864272,21.6501193 0.897251987,20.7058073 0.407771854,19.283422 C0.135136093,18.4915872 -8.24503311e-05,17.1729633 -8.24503311e-05,15.327 L5.67195066,15.327 C5.67195066,15.5328716 5.67277517,15.6900275 5.67277517,15.7984679 C5.67277517,16.783789 5.95530497,17.4170917 6.5198149,17.6994771 C6.9109043,17.8940642 7.38306987,17.9961743 7.9379606,18.0082844 L10.0234043,18.0082844 C11.0872884,18.0082844 11.7666791,17.9535138 12.0593778,17.8439725 C12.5810136,17.6386514 12.9231825,17.3083761 13.0867089,16.850945 C13.1735566,16.5691101 13.2164308,16.2047064 13.2164308,15.7588349 C13.2164308,14.7600275 12.85255,14.1523211 12.1253381,13.9343394 C11.8535268,13.8481927 10.5890136,13.7281927 8.33152351,13.5759908 C6.51844073,13.4463578 5.25914934,13.3216789 4.55419901,13.2008532 C2.69714272,12.8532385 1.45956325,12.1376422 0.842010265,11.0515872 C0.298937417,10.1287431 0.0276758278,8.73250459 0.0276758278,6.86479817 C0.0276758278,5.44241284 0.174162583,4.30186239 0.467685762,3.44397248 C0.76120894,2.58608257 1.23419901,1.93433945 1.88693079,1.48901835 C2.8430798,0.804798165 4.06636788,0.403238532 5.5556957,0.283238532 C6.79519901,0.175073394 8.16992086,0.119752294 9.68205993,0.119752294 C12.0626758,0.119752294 13.7592288,0.257091743 14.7706195,0.52846789 C17.2389076,1.19287156 18.4726394,3.05314679 18.4726394,6.10984404 C18.4726394,6.36057798 18.4545003,6.7357156 18.4179474,7.23663303" id="Fill-25" fill="#0054A5" mask="url(#mask-2)"></path>
                    <path d="M49.4575838,11.5664037 L53.258544,11.5664037 C54.463693,11.5229174 55.1966765,11.4298899 55.4605175,11.284844 C55.8208255,11.0864037 56.0626798,10.6889725 56.1830573,10.0933761 C56.2600109,9.69677064 56.2984877,9.10695413 56.2984877,8.32392661 C56.2984877,7.36420183 56.2220838,6.65300917 56.0684513,6.18869725 C55.8491334,5.53805505 55.3239248,5.14172477 54.492001,4.99777982 C54.32765,4.9760367 53.9338123,4.96447706 53.3099381,4.96447706 L49.4575838,4.96447706 L49.4575838,11.5664037 Z M43.3606566,22.6862202 L43.3606566,-0.000110091743 L52.2468785,-0.000110091743 L53.6416632,-0.000110091743 L54.7198387,-0.000110091743 C56.2778752,-0.000110091743 57.4668089,0.127321101 58.2836169,0.381908257 C60.1519414,0.968146789 61.4054613,2.16842202 62.0477493,3.98245872 C62.3789248,4.93447706 62.54465,6.36787156 62.54465,8.28181651 C62.54465,10.5830092 62.3607858,12.2368624 61.9971798,13.2436514 C61.2685937,15.2346606 59.769097,16.3815413 57.5041864,16.678789 C57.2381467,16.7233761 56.1050043,16.7632844 54.1047593,16.795211 L53.0928189,16.8290642 L49.4575838,16.8290642 L49.4575838,22.6862202 L43.3606566,22.6862202 Z" id="Fill-26" fill="#0054A5" mask="url(#mask-2)"></path>
                    <path d="M74.3486242,14.3458349 L71.4917202,4.51188991 L68.7197401,14.3458349 L74.3486242,14.3458349 Z M75.5592699,18.7657431 L67.4076805,18.7657431 L66.3124652,22.6863853 L60.0044652,22.6863853 L66.8107401,-0.000220183486 L76.0080745,-0.000220183486 L82.897899,22.6863853 L76.722644,22.6863853 L75.5592699,18.7657431 Z" id="Fill-27" fill="#0054A5" mask="url(#mask-2)"></path>
                    <path d="M34.9455834,3.1916422 C37.4600437,3.1916422 39.7043417,4.35173394 41.1799278,6.16879817 L42.4941861,3.34687156 C40.4384245,1.40127523 37.6411596,0.201825688 34.5555934,0.201825688 C29.7514874,0.201825688 25.6416132,3.10742202 23.9552291,7.22044954 L21.392398,7.22044954 L19.8791596,10.4692569 L23.1760735,10.4692569 C23.1513384,10.770633 23.1351232,11.0722844 23.1351232,11.3799908 C23.1351232,11.7523761 23.1546364,12.1203578 23.1911894,12.4839358 L21.5344874,12.4839358 L20.0215238,15.733844 L24.0338318,15.733844 C25.7683119,19.7428349 29.8267921,22.5573303 34.5555934,22.5573303 C36.9386828,22.5573303 39.1500007,21.8422844 40.9809477,20.6208165 L40.9809477,16.6379725 C39.5064609,18.3190734 37.3498351,19.3814587 34.9455834,19.3814587 C32.1348517,19.3814587 29.6627159,17.9301743 28.2234079,15.733844 L36.6250967,15.733844 L38.1383351,12.4839358 L26.9872026,12.4839358 C26.9297623,12.0928349 26.8989808,11.6932018 26.8989808,11.2861376 C26.8989808,11.0109083 26.9129974,10.7384312 26.9396563,10.4692569 L39.0760702,10.4692569 L40.5890338,7.22044954 L27.9889742,7.22044954 C29.3826596,4.81219266 31.9754477,3.1916422 34.9455834,3.1916422" id="Fill-28" fill="#FEC10E" mask="url(#mask-2)"></path>
                    <path d="M27.9891116,7.31807339 L40.5891712,7.31807339 L40.5006745,7.1793578 L38.9882606,10.4284404 L39.0762076,10.3720183 L26.9397937,10.3720183 L26.8518467,10.3720183 L26.8425023,10.460367 C26.8152937,10.7344954 26.8018268,11.0127523 26.8018268,11.286055 C26.8018268,11.6881651 26.8317838,12.0963303 26.8908732,12.4987156 L26.9037904,12.5818349 L26.9870652,12.5818349 L38.1384725,12.5818349 L38.0505255,12.4433945 L36.5375619,15.6924771 L36.6252341,15.6363303 L28.2235454,15.6363303 L28.0427043,15.6363303 L28.1421944,15.7866055 C29.6559825,18.0988073 32.1995752,19.4777064 34.9457209,19.4777064 C37.2798897,19.4777064 39.5063235,18.466789 41.0544659,16.7022936 L40.8835189,16.6378899 L40.8835189,20.6207339 L40.926393,20.540367 C39.044052,21.7959633 36.841254,22.4598165 34.5557308,22.4598165 C29.9959526,22.4598165 25.9009195,19.8041284 24.1238401,15.6946789 L24.0980056,15.6363303 L24.0336944,15.6363303 L20.0216613,15.6363303 L20.1104328,15.7755963 L21.6228467,12.5251376 L21.5346248,12.5818349 L23.1913268,12.5818349 L23.2987871,12.5818349 L23.2880685,12.4742202 C23.2515156,12.1070642 23.2322772,11.7379817 23.2322772,11.3799083 C23.2322772,11.1046789 23.245744,10.8090826 23.2732275,10.4777064 L23.2814725,10.3720183 L23.1759361,10.3720183 L19.8790222,10.3720183 L19.9669692,10.5110092 L21.4802076,7.26165138 L21.3922606,7.31807339 L23.9550917,7.31807339 L24.0207772,7.31807339 L24.0449626,7.25752294 C24.8779858,5.22715596 26.2942076,3.49568807 28.1408202,2.24972477 C30.031956,0.974587156 32.2504195,0.3 34.5557308,0.3 C37.5077275,0.3 40.3027937,1.40642202 42.4269891,3.41752294 L42.4052772,3.30522936 L41.0921182,6.12770642 L41.2553699,6.10733945 C39.699807,4.19229358 37.4005421,3.09412844 34.9457209,3.09412844 C32.0577606,3.09412844 29.3602606,4.6566055 27.9041877,7.17165138 L27.8198136,7.31807339 L27.9891116,7.31807339 Z M34.9457209,3.28899083 C37.3417275,3.28899083 39.5863003,4.3612844 41.1042109,6.23036697 L41.202052,6.35119266 L41.2685619,6.21055046 L42.5825454,3.38807339 L42.6116778,3.32422018 L42.5611083,3.27550459 C40.4006348,1.23055046 37.5574725,0.104587156 34.5557308,0.104587156 C32.211393,0.104587156 29.955552,0.790458716 28.0317109,2.08844037 C26.1532175,3.35559633 24.7125354,5.11788991 23.8657705,7.18348624 L23.9550917,7.12293578 L21.3922606,7.12293578 L21.330148,7.12293578 L21.3040387,7.1793578 L19.7910752,10.4284404 L19.7267639,10.567156 L19.8790222,10.567156 L23.1759361,10.567156 L23.0791944,10.4614679 C23.0511613,10.7986239 23.0379692,11.0986239 23.0379692,11.3799083 C23.0379692,11.7445872 23.0566579,12.12 23.0940354,12.4937615 L23.1913268,12.3869725 L21.5346248,12.3869725 L21.4727871,12.3869725 L21.4466778,12.4433945 L19.9331646,15.6924771 L19.8691281,15.8311927 L20.0216613,15.8311927 L24.0336944,15.8311927 L23.944648,15.7722936 C25.7533334,19.9527523 29.9187242,22.6549541 34.5557308,22.6549541 C36.8802805,22.6549541 39.1199063,21.9798165 41.0349526,20.7022018 L41.0778268,20.6733028 L41.0778268,20.6207339 L41.0778268,16.6378899 L41.0778268,16.3791743 L40.9077043,16.5737615 C39.3972142,18.2958716 37.2240983,19.2833945 34.9457209,19.2833945 C32.2652606,19.2833945 29.7824063,17.9358716 28.3043467,15.6798165 L28.2235454,15.8311927 L36.6252341,15.8311927 L36.6873467,15.8311927 L36.713456,15.7755963 L38.2266944,12.5251376 L38.2912805,12.3869725 L38.1384725,12.3869725 L26.9870652,12.3869725 L27.083807,12.4698165 C27.0260917,12.0765138 26.9966844,11.6785321 26.9966844,11.286055 C26.9966844,11.0190826 27.0098765,10.7477064 27.0368103,10.4790826 L26.9397937,10.567156 L39.0762076,10.567156 L39.1388699,10.567156 L39.1644295,10.5110092 L40.677393,7.26165138 L40.7425288,7.12293578 L40.5891712,7.12293578 L27.9891116,7.12293578 L28.0729361,7.2693578 C29.4938301,4.81431193 32.1275685,3.28899083 34.9457209,3.28899083 L34.9457209,3.28899083 Z" id="Fill-29" fill="#0054A5" mask="url(#mask-2)"></path>
                </g>
            </g>
        </g>
    </g>
</svg>