<?xml version="1.0" encoding="utf-8"?>
<!-- Generator: Adobe Illustrator 23.0.1, SVG Export Plug-In . SVG Version: 6.00 Build 0)  -->
<svg version="1.1" id="Layer_1" xmlns="http://www.w3.org/2000/svg" xmlns:xlink="http://www.w3.org/1999/xlink" x="0px" y="0px"
	 viewBox="0 0 34 34" style="enable-background:new 0 0 34 34;" xml:space="preserve">
<style type="text/css">
	.st0{fill:#E7DBFD;}
	.st1{fill:#6200EA;}
</style>
<g>
	<g>
		<path class="st0" d="M21.01,6.08v14.01c0.48-0.19,1.01-0.3,1.54-0.3c1.06,0,2.05,0.4,2.78,1.12l2.5,2.5
			c1.95-1.83,3.18-4.42,3.18-7.3C31,10.59,26.52,6.1,21.01,6.08z"/>
	</g>
	<g>
		<path class="st1" d="M23.52,4.06V4.03c0-1.05-0.85-1.89-1.89-1.89l-1.32,0c-1.05,0-1.9,0.86-1.89,1.91c0,0.01,0,0.01,0,0.02
			c0,0.22-0.15,0.41-0.36,0.46c-2.23,0.56-4.21,1.75-5.74,3.37l0.05,0.05c0.48,0.48,0.79,1.06,0.97,1.68
			c2.11-2.49,5.41-3.94,9.01-3.45c4.62,0.62,8.27,4.51,8.63,9.15c0.25,3.19-1.02,6.09-3.14,8.09l1.36,1.36
			c2.3-2.18,3.74-5.25,3.74-8.66c0-5.58-3.85-10.28-9.04-11.59C23.67,4.47,23.52,4.28,23.52,4.06z"/>
		<path class="st1" d="M20.97,8.82c-0.49,0-0.88,0.4-0.88,0.88v5.61c-0.36,0.27-0.59,0.69-0.59,1.18c0,0.81,0.66,1.48,1.48,1.48
			c0.29,0,0.55-0.09,0.78-0.23l3.6,1.45c0.11,0.04,0.22,0.06,0.33,0.06c0.35,0,0.68-0.21,0.82-0.55c0.18-0.45-0.04-0.97-0.49-1.15
			l-3.62-1.46c-0.09-0.31-0.28-0.58-0.53-0.77V9.7C21.85,9.21,21.45,8.82,20.97,8.82z"/>
		<path class="st1" d="M23.89,22.36c-0.34-0.34-0.82-0.53-1.34-0.53c-0.55,0-1.08,0.21-1.45,0.59l-2.37,2.37l-0.64-0.35
			c-1.4-0.78-3.33-1.85-5.37-3.89c-2.04-2.04-3.11-3.97-3.89-5.38l-0.35-0.62l2.37-2.37c0.78-0.79,0.81-2.04,0.06-2.79L6.53,5.01
			C6.19,4.67,5.72,4.48,5.2,4.48c-0.55,0-1.07,0.22-1.45,0.59L2.67,6.15l-0.1,0.17C2.17,6.83,1.85,7.41,1.6,8.04
			c-0.23,0.6-0.37,1.17-0.43,1.74c-0.57,4.69,1.6,8.99,7.46,14.86c6.95,6.95,12.76,7.5,14.38,7.5c0.28,0,0.44-0.02,0.49-0.02
			c0.6-0.07,1.17-0.22,1.74-0.44c0.62-0.24,1.2-0.57,1.71-0.97l0.24-0.19l1.01-0.99c0.78-0.78,0.81-2.03,0.06-2.78L23.89,22.36z"/>
	</g>
</g>
</svg>
