<?xml version="1.0" encoding="UTF-8"?>
<svg width="61px" height="48px" viewBox="0 0 61 48" version="1.1" xmlns="http://www.w3.org/2000/svg" xmlns:xlink="http://www.w3.org/1999/xlink">
    <title>icon-handbook</title>
    <g id="Page-1" stroke="none" stroke-width="1" fill="none" fill-rule="evenodd">
        <g id="content-library" transform="translate(-697.000000, -1467.000000)" fill-rule="nonzero">
            <g id="icon-handbook" transform="translate(697.000000, 1467.000000)">
                <path d="M34.1254717,42.1142857 L34.1254717,42.8571429 L34.1254717,47.4857143 L36.6,45.8285714 L39.0745283,47.4857143 L39.0745283,42.8571429 L39.0745283,42.1714286 L39.0745283,39.6571429 C37.0028302,40.1142857 35.3915094,40.5714286 34.1254717,41.0857143 L34.1254717,42.1142857 Z" id="Path" fill="#FEB401"></path>
                <path d="M4.02830189,1.71428571 C3.85566038,1.71428571 3.68301887,1.88571429 3.68301887,2.05714286 L3.68301887,5.88571429 L3.68301887,6.57142857 L3.68301887,37.1428571 C3.68301887,37.2571429 3.74056604,37.3142857 3.79811321,37.3714286 C3.85566038,37.4285714 3.97075472,37.4857143 4.08584906,37.4857143 C5.81226415,37.4285714 7.42358491,37.3714286 8.97735849,37.3714286 C21.5226415,37.3714286 27.5650943,39.8857143 29.809434,41.2 C29.8669811,41.2571429 29.9245283,41.2571429 29.9820755,41.3142857 L29.9820755,5.88571429 L29.9820755,5.6 C28.7735849,4.8 21.9254717,0.8 4.02830189,1.71428571 Z M18.2424528,15.4285714 C19.1056604,15.6 19.1632075,16.9714286 18.1273585,16.7428571 C14.9622642,16.1714286 11.7971698,15.9428571 8.63207547,16.2285714 C7.88396226,16.2857143 7.07830189,14.9714286 7.9990566,14.8571429 C11.4518868,14.5714286 14.8471698,14.8 18.2424528,15.4285714 Z M18.3575472,28.9714286 C15.1349057,28.3428571 11.9122642,28.1142857 8.63207547,28.4571429 C7.88396226,28.5142857 7.07830189,27.2 7.9990566,27.0857143 C11.509434,26.7428571 14.9622642,26.9714286 18.4726415,27.6571429 C19.2783019,27.8285714 19.3933962,29.2 18.3575472,28.9714286 Z M25.1481132,24.9142857 C24.2273585,24.5142857 23.3066038,24.1714286 22.3283019,23.8285714 C18.9330189,22.7428571 15.3650943,22.1714286 11.7971698,22.1714286 C10.7613208,22.1714286 9.66792453,22.2285714 8.63207547,22.2857143 C7.88396226,22.3428571 7.07830189,21.0285714 7.9990566,20.9142857 C13.8688679,20.3428571 20.1415094,21.2571429 25.6084906,23.6571429 C26.4716981,24.1142857 26.0688679,25.3714286 25.1481132,24.9142857 Z M25.1481132,12.7428571 C24.2273585,12.3428571 23.3066038,12 22.3283019,11.6571429 C18.9330189,10.5714286 15.3650943,10 11.7971698,10 C10.7613208,10 9.66792453,10.0571429 8.63207547,10.1142857 C7.88396226,10.1714286 7.07830189,8.85714286 7.9990566,8.74285714 C13.8688679,8.17142857 20.1415094,9.08571429 25.6084906,11.4857143 C26.4716981,11.9428571 26.0688679,13.1428571 25.1481132,12.7428571 Z" id="Shape" fill="#FFFFFF"></path>
                <path d="M56.9716981,1.71428571 C39.0169811,0.857142857 32.2264151,4.8 31.0754717,5.6 L31.0754717,5.88571429 L31.0754717,41.3142857 C31.1330189,41.2571429 31.190566,41.2571429 31.2481132,41.2 C31.8811321,40.8571429 32.859434,40.3428571 34.1830189,39.8857143 C35.4490566,39.4285714 37.1179245,38.9714286 39.1320755,38.5142857 C43.2754717,37.6571429 49.0301887,37.1428571 56.9716981,37.4857143 C57.0867925,37.4857143 57.1443396,37.4285714 57.259434,37.3714286 C57.3169811,37.3142857 57.3745283,37.2 57.3745283,37.1428571 L57.3745283,6.57142857 L57.3745283,5.88571429 L57.3745283,2.05714286 C57.259434,1.82857143 57.1443396,1.71428571 56.9716981,1.71428571 Z M43.6207547,28.7428571 C40.8009434,29.2 37.9235849,29.9428571 35.3339623,31.0857143 C34.4132075,31.4857143 34.4132075,30.1142857 35.1613208,29.7714286 C37.9235849,28.5714286 40.9160377,27.8285714 43.8509434,27.3142857 C44.8292453,27.1428571 44.3688679,28.6285714 43.6207547,28.7428571 Z M51.9650943,22.3428571 C46.3830189,21.8285714 40.3981132,22.6857143 35.2764151,24.9714286 C34.3556604,25.3714286 34.3556604,24 35.1037736,23.6571429 C40.4556604,21.2571429 46.7283019,20.4 52.540566,20.9714286 C53.4613208,21.0857143 52.7707547,22.4571429 51.9650943,22.3428571 Z M51.9650943,16.2857143 C46.3830189,15.7714286 40.3981132,16.6285714 35.2764151,18.9142857 C34.3556604,19.3142857 34.3556604,17.9428571 35.1037736,17.6 C40.4556604,15.2 46.7283019,14.3428571 52.540566,14.9142857 C53.4613208,14.9714286 52.7707547,16.3428571 51.9650943,16.2857143 Z M35.1613208,11.4857143 C37.6933962,10.3428571 40.4556604,9.65714286 43.1603774,9.14285714 C44.1386792,8.97142857 43.7358491,10.4 42.9301887,10.5714286 C40.340566,11.0857143 37.7509434,11.7142857 35.3339623,12.8 C34.3556604,13.2571429 34.4132075,11.8285714 35.1613208,11.4857143 Z" id="Shape" fill="#FFFFFF"></path>
                <g id="Group" fill="#2359FF">
                    <path d="M59.7915094,5.88571429 L58.295283,5.88571429 L58.295283,2.05714286 C58.295283,1.31428571 57.7198113,0.685714286 56.9716981,0.628571429 C39.0169811,-0.228571429 31.9962264,3.6 30.4424528,4.68571429 C28.8886792,3.65714286 21.8679245,-0.228571429 3.91320755,0.628571429 C3.16509434,0.685714286 2.58962264,1.25714286 2.58962264,2.05714286 L2.58962264,5.88571429 L1.09339623,5.88571429 C0.517924528,5.88571429 0.0575471698,6.34285714 0.0575471698,6.91428571 L0.0575471698,41.7714286 C0.0575471698,42.3428571 0.517924528,42.8 1.09339623,42.8 L30.5,42.8 L34.1254717,42.8 L34.1254717,42.1142857 L34.1254717,40.9714286 C35.3915094,40.5142857 37.0028302,40 39.0745283,39.5428571 L39.0745283,42.0571429 L39.0745283,42.8571429 L59.7915094,42.8571429 C60.3669811,42.8571429 60.8273585,42.4 60.8273585,41.8285714 L60.8273585,6.97142857 C60.8849057,6.34285714 60.4245283,5.88571429 59.7915094,5.88571429 Z M3.74056604,5.88571429 L3.74056604,2.05714286 C3.74056604,1.88571429 3.91320755,1.71428571 4.08584906,1.71428571 C21.9830189,0.857142857 28.8311321,4.85714286 29.9820755,5.6 L29.9820755,5.88571429 L29.9820755,41.3142857 C29.9245283,41.2571429 29.8669811,41.2571429 29.809434,41.2 C27.5650943,39.9428571 21.5801887,37.3714286 8.97735849,37.3714286 C7.42358491,37.3714286 5.81226415,37.4285714 4.08584906,37.4857143 C4.02830189,37.4857143 3.91320755,37.4285714 3.79811321,37.3714286 C3.74056604,37.3142857 3.68301887,37.2 3.68301887,37.1428571 L3.68301887,6.57142857 L3.68301887,5.88571429 L3.74056604,5.88571429 Z M31.0179245,41.3142857 L31.0179245,5.88571429 L31.0179245,5.6 C32.1688679,4.8 38.959434,0.8 56.9141509,1.71428571 C57.0867925,1.71428571 57.259434,1.88571429 57.259434,2.05714286 L57.259434,5.88571429 L57.259434,6.57142857 L57.259434,37.1428571 C57.259434,37.2571429 57.2018868,37.3142857 57.1443396,37.3714286 C57.0867925,37.4285714 56.9716981,37.4857143 56.8566038,37.4857143 C48.9150943,37.0857143 43.1603774,37.6571429 39.0169811,38.5142857 C37.0028302,38.9142857 35.3339623,39.4285714 34.0679245,39.8857143 C32.7443396,40.4 31.7660377,40.8571429 31.1330189,41.2 C31.1330189,41.2 31.0754717,41.2571429 31.0179245,41.3142857 Z" id="Shape"></path>
                    <path d="M35.2764151,12.8 C37.6933962,11.7142857 40.2830189,11.0285714 42.8726415,10.5714286 C43.6207547,10.4 44.0811321,8.97142857 43.1028302,9.14285714 C40.3981132,9.65714286 37.6358491,10.3428571 35.1037736,11.4857143 C34.4132075,11.8285714 34.3556604,13.2571429 35.2764151,12.8 Z" id="Path"></path>
                    <path d="M35.2764151,18.9142857 C40.3981132,16.6285714 46.3830189,15.7142857 51.9650943,16.2857143 C52.7132075,16.3428571 53.4613208,14.9714286 52.540566,14.9142857 C46.7283019,14.3428571 40.5132075,15.2 35.1037736,17.6 C34.4132075,17.9428571 34.3556604,19.3142857 35.2764151,18.9142857 Z" id="Path"></path>
                    <path d="M35.2764151,25.0285714 C40.3981132,22.7428571 46.3830189,21.8285714 51.9650943,22.4 C52.7132075,22.4571429 53.4613208,21.0857143 52.540566,21.0285714 C46.7283019,20.4571429 40.5132075,21.3142857 35.1037736,23.7142857 C34.4132075,24 34.3556604,25.4285714 35.2764151,25.0285714 Z" id="Path"></path>
                    <path d="M43.8509434,27.3142857 C40.8584906,27.8285714 37.8660377,28.5714286 35.1613208,29.7714286 C34.4132075,30.1142857 34.3556604,31.5428571 35.3339623,31.0857143 C37.9811321,29.9428571 40.8009434,29.2 43.6207547,28.7428571 C44.3688679,28.6285714 44.8292453,27.1428571 43.8509434,27.3142857 Z" id="Path"></path>
                    <path d="M8.63207547,10.1714286 C9.66792453,10.0571429 10.7037736,10.0571429 11.7971698,10.0571429 C15.3650943,10.0571429 18.9330189,10.5714286 22.3283019,11.7142857 C23.3066038,12.0571429 24.2273585,12.4 25.1481132,12.8 C26.0688679,13.2 26.4716981,12 25.6084906,11.6 C20.1415094,9.14285714 13.8688679,8.22857143 7.9990566,8.8 C7.07830189,8.91428571 7.88396226,10.2285714 8.63207547,10.1714286 Z" id="Path"></path>
                    <path d="M8.63207547,16.2857143 C11.854717,15.9428571 15.0198113,16.1714286 18.1273585,16.8 C19.1632075,16.9714286 19.0481132,15.6571429 18.2424528,15.4857143 C14.8471698,14.8571429 11.4518868,14.6285714 7.9990566,14.9714286 C7.07830189,14.9714286 7.88396226,16.3428571 8.63207547,16.2857143 Z" id="Path"></path>
                    <path d="M25.6084906,23.7714286 C20.1990566,21.3714286 13.9264151,20.4571429 7.9990566,21.0285714 C7.07830189,21.1428571 7.88396226,22.4571429 8.63207547,22.4 C9.66792453,22.2857143 10.7037736,22.2857143 11.7971698,22.2857143 C15.3650943,22.2857143 18.9330189,22.8 22.3283019,23.9428571 C23.3066038,24.2857143 24.2273585,24.6285714 25.1481132,25.0285714 C26.0688679,25.3714286 26.4716981,24.1142857 25.6084906,23.7714286 Z" id="Path"></path>
                    <path d="M18.4726415,27.6571429 C15.0198113,26.9714286 11.5669811,26.7428571 7.9990566,27.0857143 C7.07830189,27.2 7.88396226,28.5142857 8.63207547,28.4571429 C11.9122642,28.1142857 15.1349057,28.3428571 18.3575472,28.9714286 C19.3933962,29.2 19.2783019,27.8285714 18.4726415,27.6571429 Z" id="Path"></path>
                </g>
            </g>
        </g>
    </g>
</svg>