<?xml version="1.0" encoding="UTF-8"?>
<svg width="49px" height="49px" viewBox="0 0 49 49" version="1.1" xmlns="http://www.w3.org/2000/svg" xmlns:xlink="http://www.w3.org/1999/xlink">
    <!-- Generator: Sketch 50.2 (55047) - http://www.bohemiancoding.com/sketch -->
    <title>Group 5</title>
    <desc>Created with Sketch.</desc>
    <defs></defs>
    <g id="Revamp" stroke="none" stroke-width="1" fill="none" fill-rule="evenodd">
        <g id="careers-support-tab-copy-2" transform="translate(-637.000000, -452.000000)">
            <g id="Group-6" transform="translate(637.000000, 452.000000)">
                <g id="Group-5">
                    <rect id="Rectangle-21" fill="#5110B1" x="0" y="0" width="49" height="49" rx="4"></rect>
                    <path d="M17.2295646,11.6718261 C16.6660055,11.742861 16.2447306,12.2243181 16.249133,12.7923193 L16.249133,36.3226773 C16.252919,36.7321655 16.4797683,37.1069804 16.8407936,37.3002565 C17.2018189,37.4935327 17.639522,37.4744884 17.982396,37.2505858 L35.9102878,25.4854068 C36.2257522,25.2782237 36.4157346,24.9261602 36.4157346,24.5487445 C36.4157346,24.1713287 36.2257522,23.8192653 35.9102878,23.6120822 L17.982396,11.8469032 C17.7601564,11.7011099 17.4933303,11.6390573 17.2295646,11.6718261 Z M18.4901195,14.8582288 L33.2491163,24.5574983 L18.4901195,34.2392602 L18.4901195,14.8582288 Z" id="Shape" fill="#FFFFFF" fill-rule="nonzero"></path>
                </g>
            </g>
        </g>
    </g>
</svg>