<?xml version="1.0" encoding="UTF-8"?>
<svg width="366px" height="217px" viewBox="0 0 366 217" version="1.1" xmlns="http://www.w3.org/2000/svg" xmlns:xlink="http://www.w3.org/1999/xlink">
    <!-- Generator: Sketch 52.3 (67297) - http://www.bohemiancoding.com/sketch -->
    <title>Group 11</title>
    <desc>Created with Sketch.</desc>
    <defs>
        <path d="M340.138488,183 L227.861512,183 C219.101659,183 212,175.89878 212,167.138488 L212,54.8615122 C212,46.1012195 219.101659,39 227.861512,39 L340.138488,39 C348.898341,39 356,46.1012195 356,54.8615122 L356,167.138488 C356,175.89878 348.898341,183 340.138488,183" id="path-1"></path>
        <filter x="-5.9%" y="-4.5%" width="111.8%" height="111.8%" filterUnits="objectBoundingBox" id="filter-2">
            <feOffset dx="0" dy="2" in="SourceAlpha" result="shadowOffsetOuter1"></feOffset>
            <feGaussianBlur stdDeviation="2.5" in="shadowOffsetOuter1" result="shadowBlurOuter1"></feGaussianBlur>
            <feColorMatrix values="0 0 0 0 0.491204294   0 0 0 0 0.489430889   0 0 0 0 0.489430889  0 0 0 0.5 0" type="matrix" in="shadowBlurOuter1"></feColorMatrix>
        </filter>
        <path d="M128.138488,183 L15.8615122,183 C7.10165854,183 0,175.89878 0,167.138488 L0,54.8615122 C0,46.1012195 7.10165854,39 15.8615122,39 L128.138488,39 C136.898341,39 144,46.1012195 144,54.8615122 L144,167.138488 C144,175.89878 136.898341,183 128.138488,183" id="path-3"></path>
        <filter x="-5.9%" y="-4.5%" width="111.8%" height="111.8%" filterUnits="objectBoundingBox" id="filter-4">
            <feOffset dx="0" dy="2" in="SourceAlpha" result="shadowOffsetOuter1"></feOffset>
            <feGaussianBlur stdDeviation="2.5" in="shadowOffsetOuter1" result="shadowBlurOuter1"></feGaussianBlur>
            <feColorMatrix values="0 0 0 0 0.491204294   0 0 0 0 0.489430889   0 0 0 0 0.489430889  0 0 0 0.5 0" type="matrix" in="shadowBlurOuter1"></feColorMatrix>
        </filter>
        <polygon id="path-5" points="0 0.0472739017 53.2327701 0.0472739017 53.2327701 59.9512591 0 59.9512591"></polygon>
        <polygon id="path-7" points="0 0.571 16.5253573 0.571 16.5253573 19.568 0 19.568"></polygon>
        <polygon id="path-9" points="0.177079623 0.8969 16.0070116 0.8969 16.0070116 18 0.177079623 18"></polygon>
        <polygon id="path-11" points="0.82103756 0.5702 7.926 0.5702 7.926 19.5682 0.82103756 19.5682"></polygon>
        <polygon id="path-13" points="0.292222873 0.732 43.2060766 0.732 43.2060766 50.3939 0.292222873 50.3939"></polygon>
    </defs>
    <g id="Page-1" stroke="none" stroke-width="1" fill="none" fill-rule="evenodd">
        <g id="Desktop-HD-Copy" transform="translate(-927.000000, -641.000000)">
            <g id="Group-11" transform="translate(932.000000, 641.000000)">
                <g id="Group-23">
                    <g id="Group-164">
                        <g id="Group-139" opacity="0.184319196" transform="translate(71.000000, 0.000000)" fill="#231F20">
                            <polygon id="Fill-1" points="214 130.651969 211.089529 130 210 135.185673 212.876475 136"></polygon>
                            <path d="M216,120.371107 L212.726441,120 L212.387191,122.733208 C212.27301,123.644278 212.177127,124.558349 212,125.459287 L215.251235,126 C215.432754,125.070919 215.533028,124.128705 215.650869,123.189493 L216,120.371107 Z" id="Fill-3"></path>
                            <path d="M217,111.072133 L213.274506,111 L213.197909,113.879059 C213.195425,114.359294 213.157748,114.837961 213.115516,115.316237 L213,116.751846 L216.7168,117 L216.835628,115.520484 C216.878688,115.027311 216.917193,114.534139 216.920505,114.039007 L217,111.072133 Z" id="Fill-5"></path>
                            <path d="M204,158.422677 L201.344092,157 C200.965863,157.746854 200.620177,158.511982 200.216046,159.244354 L199,161.439055 L201.583516,163 L202.836422,160.736682 C203.252839,159.981553 203.610148,159.192977 204,158.422677" id="Fill-7"></path>
                            <path d="M209,149.174283 L206.06102,148 L205.586809,149.187142 C205.432849,149.584361 205.238021,149.964553 205.065389,150.354474 L204,152.679409 L206.874154,154 L207.973013,151.602085 C208.15093,151.200348 208.351043,150.807646 208.510287,150.398262 L209,149.174283 Z" id="Fill-9"></path>
                            <path d="M212,139.91987 L208.739706,139 C208.507342,139.837916 208.179988,140.647925 207.890478,141.468884 L207,143.925758 L210.205798,145 L211.124659,142.466117 C211.423252,141.61937 211.75931,140.783574 212,139.91987" id="Fill-11"></path>
                            <path d="M188,182.169362 L185.654432,180 L183.851764,181.88186 C183.549007,182.193438 183.255144,182.513868 182.945983,182.818718 L182,183.715567 L184.232434,186 L185.206878,185.074826 C185.526001,184.76077 185.829114,184.43078 186.141121,184.109288 L188,182.169362 Z" id="Fill-13"></path>
                            <polygon id="Fill-15" points="194 174.916241 191.395011 173 189.73483 175.009861 189.319876 175.512065 188.879673 175.995128 188 176.960905 190.49997 179 191.406355 178.003944 191.85973 177.505916 192.287858 176.988051"></polygon>
                            <polygon id="Fill-17" points="200 166.670078 197.118131 165 195.613193 167.13305 194 169.199862 196.785009 171 198.447582 168.86902"></polygon>
                            <path d="M165,201.015129 L163.378928,198 C161.935371,198.994957 160.458034,199.926649 159,200.894885 L160.48492,204 C161.989142,203.003471 163.511978,202.041522 165,201.015129" id="Fill-19"></path>
                            <path d="M173,195.715298 L171.143145,193 C169.760255,194.059023 168.399114,195.152669 167,196.185724 L168.728784,199 C170.171394,197.935332 171.575341,196.808568 173,195.715298" id="Fill-21"></path>
                            <path d="M181,189.435251 L178.903455,187 L176.966035,188.747305 C176.32081,189.329861 175.682564,189.922229 175,190.457541 L176.975806,193 C177.678958,192.447244 178.337443,191.837432 179.002908,191.237068 L181,189.435251 Z" id="Fill-23"></path>
                            <path d="M138,211.79342 L137.119722,209 C136.270753,209.211256 135.427903,209.441219 134.574976,209.637639 L132,210.170134 L132.72013,213 L135.37536,212.450411 C136.254918,212.247541 137.12476,212.01145 138,211.79342" id="Fill-25"></path>
                            <path d="M147,209.117346 L145.864494,206 C144.276755,206.705856 142.625718,207.228383 141,207.825503 L141.983238,211 C143.659946,210.385438 145.361974,209.843984 147,209.117346" id="Fill-27"></path>
                            <path d="M156,205.797339 L154.620478,203 C153.872645,203.403036 153.091876,203.736762 152.319773,204.087815 L150,205.136471 L151.235641,208 L153.627528,206.919462 C154.424246,206.556973 155.228938,206.212157 156,205.797339" id="Fill-29"></path>
                            <path d="M108,216 L107.992733,213.107349 C106.375066,213.091601 104.75806,213.033748 103.140724,213 L103,215.889436 C104.666557,215.925434 106.333443,215.984251 108,216" id="Fill-31"></path>
                            <path d="M119,216.591984 L118.678378,213 L115.840739,213.223246 C114.894084,213.293387 113.949755,213.393988 113,213.395591 L113.147249,217 C114.125678,216.996393 115.099458,216.894188 116.074787,216.822044 L119,216.591984 Z" id="Fill-33"></path>
                            <polygon id="Fill-35" points="129 215.153675 128.390669 212 125.703513 212.460401 125.031353 212.574076 124.354359 212.656036 123 212.820668 123.441291 216 124.83766 215.829666 125.535845 215.744499 126.228825 215.627973"></polygon>
                            <polygon id="Fill-37" points="79.1467662 213 80 209.651482 77.4900498 208.877471 76.8628287 208.681748 76.2452026 208.454756 75.0092395 208 74 211.296788 75.2746979 211.765056 75.9115139 211.998996 76.55828 212.201282"></polygon>
                            <path d="M89.4162202,215 L90,212.004988 C89.1206771,211.854848 88.2369703,211.724322 87.3613005,211.558627 L84.7481734,211 L84,213.963564 L86.6953239,214.539099 C87.5983926,214.710204 88.5094983,214.845126 89.4162202,215" id="Fill-39"></path>
                            <polygon id="Fill-41" points="98.7006253 216 99 212.623611 97.6122655 212.519676 96.2313522 212.34871 93.4706625 212 93 215.356807 95.8467126 215.716061 97.2704478 215.891546"></polygon>
                            <path d="M52.3931771,201 L54,198.043974 C52.5751206,197.038149 51.1547209,196.022339 49.73949,195 L48,197.861934 C49.4589938,198.916917 50.9231564,199.963835 52.3931771,201" id="Fill-43"></path>
                            <polygon id="Fill-45" points="60.6383885 205 62 202.279392 59.7433094 201.153484 58.6151367 200.590866 58.0515683 200.307708 57.5021583 200 56 202.64965 56.5666763 202.966774 57.1475108 203.259013 58.3112518 203.839454"></polygon>
                            <polygon id="Fill-47" points="69.887468 210 71 206.989051 68.6176471 206.025476 67.4273425 205.541363 66.2611021 205 65 207.949048 66.2035573 208.50687 67.4304813 209.006369"></polygon>
                            <path d="M29.6353916,182 L32,179.839635 C30.7537242,178.622524 29.6375541,177.289697 28.4730899,176 L26,178.041844 C27.1994234,179.371866 28.3516338,180.743966 29.6353916,182" id="Fill-49"></path>
                            <path d="M36.8959348,189 L39,186.589324 C38.6758374,186.300215 38.3439315,186.020062 38.0268082,185.723788 L37.091629,184.81562 L35.2202147,183 L33,185.299618 L34.9284332,187.171483 L35.8931777,188.106878 C36.220156,188.412467 36.562269,188.701576 36.8959348,189" id="Fill-51"></path>
                            <polygon id="Fill-53" points="44.1460849 196 46 193.326605 45.4819994 192.932611 44.9813349 192.513509 43.9803525 191.675672 41.978041 190 40 192.570374 42.0640277 194.298111 43.096215 195.161425 43.6121352 195.593452"></polygon>
                            <path d="M12.2756148,158 L15,156.558783 L13.8562158,154.299101 L13.5703552,153.734094 C13.4784836,153.543914 13.3965164,153.349239 13.3094262,153.156985 L12.7933743,152 L10,153.299101 L10.5324454,154.491701 C10.6226093,154.69018 10.7073087,154.890733 10.8022541,155.086791 L11.096653,155.669433 L12.2756148,158 Z" id="Fill-55"></path>
                            <path d="M18.0604314,167 L21,165.320165 L19.4598743,163.1904 C18.9748688,162.465204 18.5085174,161.730018 18.0320617,161 L15,162.545475 C15.4912235,163.297887 15.9723428,164.056155 16.4725047,164.803744 L18.0604314,167 Z" id="Fill-57"></path>
                            <path d="M23.3577503,175 L26,173.082838 L25.1545099,172.083588 C24.8736731,171.749928 24.5842697,171.422498 24.3280154,171.071532 L22.743187,169 L20,170.790482 L21.6347383,172.926046 C21.8991868,173.287395 22.1975293,173.625555 22.4865603,173.969599 L23.3577503,175 Z" id="Fill-59"></path>
                            <path d="M2.94635584,131 L6,130.3204 C5.89531155,129.883173 5.82840801,129.437473 5.7535315,128.993984 L5.52994194,127.66241 L5.0820695,125 L2,125.513475 L2.4613918,128.2595 L2.69226103,129.632329 C2.76956409,130.089815 2.83889418,130.548775 2.94635584,131" id="Fill-61"></path>
                            <path d="M4.60524031,140 L8,139.054983 L7.2092179,136.53053 L6.81303765,135.268482 C6.68084603,134.847799 6.54194618,134.428546 6.44369032,134 L3,134.78668 C3.10220188,135.228093 3.24465314,135.660571 3.38039618,136.094478 L3.78880909,137.396557 L4.60524031,140 Z" id="Fill-63"></path>
                            <polygon id="Fill-65" points="7.96308725 149 11 147.803851 10.0177269 145.412602 9.52604319 144.217153 9.09673184 143 6 144.045974 6.44390137 145.300933 6.95017508 146.534189"></polygon>
                            <path d="M0,101.776643 L3.48810564,102 L3.70443732,99.1940489 C3.74405282,98.7270289 3.76852122,98.2580934 3.81978833,97.7922227 L4,96.3965264 L0.527429848,96 L0.34255753,97.4389886 C0.289736868,97.9198008 0.263714924,98.4025286 0.222934265,98.8844901 L0,101.776643 Z" id="Fill-67"></path>
                            <polygon id="Fill-69" points="0.0613910961 111 2.99967345 110.926004 2.93893545 108.50033 3 106.074326 0.0620441929 106 0 108.5"></polygon>
                            <path d="M0.525068014,121 L4,120.605263 L3.81966576,119.209504 C3.77419355,118.742718 3.74504469,118.274016 3.70734551,117.806464 L3.49086669,115 L0,115.221129 L0.223474543,118.114589 C0.262728333,118.596704 0.29304314,119.079586 0.339681306,119.560552 L0.525068014,121 Z" id="Fill-71"></path>
                            <polygon id="Fill-73" points="6 71.9527476 9.09450886 73 9.52658062 71.7836892 10.0184496 70.5887294 11 68.1974099 7.96492379 67 6.95201633 69.4658733 6.44592722 70.6986349"></polygon>
                            <path d="M3,82.2130093 L6.44287518,83 C6.54110778,82.5714796 6.68194729,82.1529664 6.81331861,81.7319514 L7.20940508,80.4699786 L8,77.9456755 L4.60604387,77 L3.7898059,79.6036455 L3.38227868,80.9052895 C3.24696228,81.3395282 3.10217769,81.7712652 3,82.2130093" id="Fill-75"></path>
                            <path d="M2,91.4847778 L5.08046773,92 L5.52810741,89.3377118 L5.7512343,88.0067518 C5.82399307,87.5626074 5.8960589,87.118463 6,86.681316 L2.9482893,86 C2.84192291,86.4511417 2.76708532,86.9089123 2.69155479,87.3670513 L2.46080554,88.7392585 L2,91.4847778 Z" id="Fill-77"></path>
                            <path d="M20,46.2080305 L22.7415591,48 L24.3260924,45.9280028 C24.8563803,45.2391831 25.4440169,44.5898235 26,43.9183108 L23.3593595,42 C22.7858739,42.6919349 22.1811072,43.362063 21.634434,44.0723434 L20,46.2080305 Z" id="Fill-79"></path>
                            <path d="M15,54.4538356 L18.0312804,56 C18.5080629,55.2703261 18.9727997,54.5341066 19.4596853,53.8099449 L21,51.6801791 L18.0612007,50 L16.4734797,52.1962563 C15.9710511,52.9428112 15.4919371,53.701424 15,54.4538356" id="Fill-81"></path>
                            <path d="M10,62.6995908 L12.7919284,64 C13.4478285,62.4416527 14.2430347,60.9514205 15,59.4425171 L12.2770418,58 C11.4958345,59.5555812 10.6774105,61.0931827 10,62.6995908" id="Fill-83"></path>
                            <polygon id="Fill-85" points="40 24.4282548 41.9766541 27 43.9793123 25.3242844 44.979948 24.4862419 45.481306 24.0677747 46 23.6747922 44.1474718 21 43.6128287 21.4051708 43.096215 21.8361958 42.0640277 22.7000923"></polygon>
                            <path d="M33,31.6998865 L35.2202147,34 L37.0909251,32.1846301 L38.0261043,31.2760494 C38.3453394,30.9815489 38.6758374,30.6999463 39,30.4111781 L36.8966387,28 C36.562621,28.2980832 36.2219159,28.5882845 35.8935297,28.8924584 L34.9284332,29.8279095 L33,31.6998865 Z" id="Fill-87"></path>
                            <path d="M26,37.9568648 L28.4717117,40 C29.6342342,38.7087498 30.7538739,37.3796248 32,36.1616693 L29.6371171,34 C28.3538739,35.256181 27.1974775,36.6249342 26,37.9568648" id="Fill-89"></path>
                            <polygon id="Fill-91" points="65 9.04939155 66.2594315 12 67.4260885 11.4581246 68.6175086 10.9767359 71 10.0125268 69.8887985 7 67.4320177 7.99427344 66.2032785 8.49141016"></polygon>
                            <polygon id="Fill-93" points="56 13.3498352 57.5017265 16 58.0507597 15.6919352 58.6146409 15.4097666 59.7434392 14.8474474 62 13.7211273 60.6391575 11 58.3114641 12.1606242 57.1481354 12.7414408 56.566989 13.0326899"></polygon>
                            <path d="M48,19.135464 L49.7373679,22 C51.1560634,20.9827708 52.5720028,19.9597771 54,18.9590726 L52.3945797,16 C50.921796,17.0306796 49.4617593,18.0855697 48,19.135464" id="Fill-95"></path>
                            <path d="M94,1.64060292 L94.4692653,5 L97.2306526,4.65105982 C97.6911997,4.59566651 98.1502306,4.52746114 98.6122939,4.48299576 L100,4.37861517 L99.7024449,1 L98.271906,1.10852567 C97.7958178,1.15412153 97.322383,1.22421102 96.8474319,1.28111163 L94,1.64060292 Z" id="Fill-97"></path>
                            <path d="M84,3.03559652 L84.7471229,6 L87.3607745,5.44094022 C88.2372283,5.27690877 89.1206235,5.1453454 90,4.99551873 L89.41655,2 C88.5097729,2.15422339 87.5993424,2.2908599 86.695488,2.45996449 L84,3.03559652 Z" id="Fill-99"></path>
                            <polygon id="Fill-101" points="74 5.7012977 75.0082331 9 76.243914 8.54541943 76.8619321 8.31832226 77.4895457 8.1248262 80 7.35045574 79.1481372 4 76.5591423 4.79908852 75.9123379 4.99915032 75.2747734 5.23281322"></polygon>
                            <polygon id="Fill-103" points="123.442696 1 123 4.17727718 124.353736 4.34182174 125.030603 4.42480634 125.702267 4.53984507 128.389295 5 129 1.84836613 126.22934 1.37432108 125.53686 1.25607693 124.838806 1.17024308"></polygon>
                            <path d="M113.147617,0 L113,3.60328591 C113.949632,3.60528952 114.89384,3.70827489 115.839985,3.77719896 L118.677257,4 L119,0.409136446 L116.075165,0.17912242 C115.099574,0.108194751 114.12592,0.00320577039 113.147617,0" id="Fill-105"></path>
                            <path d="M103,0.108084924 L103.139394,3 C104.756293,2.96751019 106.373522,2.90606905 107.990421,2.89513189 L108,0 C106.333223,0.0106154836 104.666777,0.0733433412 103,0.108084924" id="Fill-107"></path>
                            <path d="M151.236609,9 L150,11.8619925 L152.319293,12.910212 C153.092737,13.2590412 153.871035,13.5974782 154.618825,14 L156,11.2045171 C155.228636,10.7902175 154.426417,10.4403492 153.628705,10.0804351 L151.236609,9 Z" id="Fill-109"></path>
                            <path d="M141.983589,6 L141,9.17416147 C142.625718,9.77003562 144.276404,10.294672 145.863791,11 L147,7.88334817 C145.361974,7.15761354 143.661001,6.61368359 141.983589,6" id="Fill-111"></path>
                            <path d="M132.721842,3 L132,5.82817537 L134.574667,6.36009026 C135.426053,6.56157318 136.269881,6.78787879 137.118388,7 L138,4.20857511 C137.125225,3.9893617 136.254408,3.75660864 135.376754,3.54932302 L132.721842,3 Z" id="Fill-113"></path>
                            <path d="M176.977316,24 L175,26.5409072 C175.683301,27.0757585 176.317746,27.672016 176.965102,28.2530128 L178.902635,30 L181,27.5662811 L179.003141,25.7647914 C178.336241,25.1659904 177.681207,24.5522921 176.977316,24" id="Fill-115"></path>
                            <path d="M168.729475,19 L167,21.813723 C168.397733,22.8482188 169.75991,23.9406673 171.142454,25 L173,22.2852484 C171.575686,21.1916708 170.170704,20.0661064 168.729475,19" id="Fill-117"></path>
                            <path d="M160.486213,13 L159,16.103516 L161.194164,17.5421332 L162.291245,18.2606561 C162.65625,18.5014732 163.027114,18.7316834 163.377642,19 L165,15.9868395 C164.638442,15.710273 164.256204,15.4725987 163.88017,15.2239246 L162.748621,14.4826164 L160.486213,13 Z" id="Fill-119"></path>
                            <path d="M196.786678,46 L194,47.7988962 C194.53644,48.4887892 195.084658,49.1714384 195.61122,49.8668506 L197.116824,52 L200,50.3311487 L198.447287,48.1324595 C197.904008,47.4153156 197.339834,46.7112798 196.786678,46" id="Fill-121"></path>
                            <polygon id="Fill-123" points="190.500488 38 188 40.0382808 188.879727 41.0040021 189.319224 41.4877327 189.734203 41.9902558 191.394486 44 194 42.0842179 192.288119 40.0125283 191.859966 39.4946929 191.40766 38.9959979"></polygon>
                            <polygon id="Fill-125" points="184.233899 31 182 33.2831013 182.945795 34.1798442 183.849958 35.118362 185.653303 37 188 34.8319566 186.14079 32.8922587 185.208516 31.9250649"></polygon>
                            <path d="M211.207633,72 L208,73.0726652 L208.890883,75.5299729 C209.182796,76.350371 209.504998,77.1622895 209.737846,78 L213,77.0817336 C212.7592,76.2178778 212.42829,75.3805206 212.126912,74.5343305 L211.207633,72 Z" id="Fill-127"></path>
                            <path d="M206.874912,63 L204,64.3198957 L205.065891,66.6451781 C205.237844,67.0347524 205.434109,67.414596 205.586681,67.8128584 L206.060606,69 L209,67.8264118 L208.510923,66.6024327 C208.353066,66.192007 208.151515,65.8 207.974278,65.3979149 L206.874912,63 Z" id="Fill-129"></path>
                            <path d="M201.584546,54 L199,55.5595655 L200.216198,57.7546118 C200.616172,58.4893972 200.964986,59.2524568 201.342369,60 L204,58.5787024 C203.611322,57.8077122 203.250548,57.0212057 202.837951,56.2633182 L201.584546,54 Z" id="Fill-131"></path>
                            <polygon id="Fill-133" points="216.719938 101 213 101.246667 213.116002 102.682745 213.174003 103.400392 213.195132 104.120392 213.271776 107 217 106.930196 216.920041 103.962353 216.898084 103.220392 216.838426 102.48"></polygon>
                            <path d="M215.252494,91 L212,91.5399625 C212.177908,92.4412758 212.270889,93.3553471 212.386199,94.2664165 L212.725542,97 L216,96.6292683 L215.650773,93.8108818 C215.531802,92.8716698 215.434062,91.9294559 215.252494,91" id="Fill-135"></path>
                            <polygon id="Fill-137" points="212.879987 81 210 81.8126133 211.085983 87 214 86.3497644"></polygon>
                        </g>
                        <g id="Fill-141">
                            <use fill="black" fill-opacity="1" filter="url(#filter-2)" xlink:href="#path-1"></use>
                            <use fill="#FFFFFF" fill-rule="evenodd" xlink:href="#path-1"></use>
                        </g>
                        <g id="Fill-141-Copy">
                            <use fill="black" fill-opacity="1" filter="url(#filter-4)" xlink:href="#path-3"></use>
                            <use fill="#FFFFFF" fill-rule="evenodd" xlink:href="#path-3"></use>
                        </g>
                    </g>
                </g>
                <path d="M247.1905,145.792 L249.3535,147.346 C247.5685,150.055 245.8885,151.294 242.7175,151.294 C238.3915,151.294 235.1995,148.228 235.1995,143.65 C235.1995,139.072 238.5175,136.006 242.8225,136.006 C245.9095,136.006 248.2825,137.623 249.2695,139.849 L247.0225,141.466 C246.1405,139.597 244.7965,138.568 242.7385,138.568 C240.1555,138.568 238.0135,140.521 238.0135,143.65 C238.0135,146.674 240.1135,148.732 242.7385,148.732 C244.6495,148.732 246.1615,147.724 247.1905,145.792 Z M260.9685,143.965 L260.9685,151 L258.3225,151 L258.3225,144.994 C258.3225,143.629 257.6085,142.768 256.2225,142.768 C254.7525,142.768 253.6605,143.965 253.6605,145.708 L253.6605,151 L251.0145,151 L251.0145,136.3 L253.6605,136.3 L253.6605,142.222 C254.4375,141.004 255.7395,140.29 257.2725,140.29 C259.5405,140.29 260.9685,141.739 260.9685,143.965 Z M272.4785,151 L269.7905,151 C269.6225,150.79 269.2865,150.244 269.2865,149.341 C268.5515,150.643 267.2915,151.294 265.8005,151.294 C263.7425,151.294 262.2935,150.013 262.2935,148.039 C262.2935,145.918 264.0365,144.889 266.0105,144.595 L269.1395,144.112 L269.1395,143.713 C269.1395,142.705 268.5095,142.138 267.2285,142.138 C266.0105,142.138 265.3595,142.663 265.3595,143.314 C265.3595,143.398 265.3595,143.44 265.4015,143.566 L263.0285,144.364 C262.9025,144.091 262.8395,143.776 262.8395,143.482 C262.8395,141.865 264.4355,140.29 267.2285,140.29 C270.1475,140.29 271.7855,141.529 271.7855,144.07 L271.7855,148.417 C271.7855,149.614 271.9745,150.265 272.4785,151 Z M266.4305,149.152 C267.9635,149.152 269.1395,148.144 269.1395,146.128 L269.1395,145.939 L266.6195,146.359 C265.4855,146.548 264.8765,147.052 264.8765,147.892 C264.8765,148.732 265.5065,149.152 266.4305,149.152 Z M280.1665,140.416 L279.7465,142.915 C279.5155,142.831 279.2215,142.768 278.8855,142.768 C277.3105,142.768 276.3655,144.091 276.3655,145.855 L276.3655,151 L273.7195,151 L273.7195,140.584 L276.3655,140.584 L276.3655,142.243 C276.9535,141.046 277.9195,140.29 279.2635,140.29 C279.5995,140.29 279.8935,140.332 280.1665,140.416 Z M281.0295,150.811 L283.5495,151.588 C283.4655,151.819 283.4235,152.05 283.4235,152.302 C283.4235,152.995 284.2635,153.478 285.7335,153.478 C287.3085,153.478 288.2955,152.659 288.2955,150.622 L288.2955,149.278 C287.7705,150.139 286.8045,150.832 285.3345,150.832 C282.5835,150.832 280.3155,148.669 280.3155,145.561 C280.3155,142.453 282.6675,140.29 285.3555,140.29 C286.6155,140.29 287.6655,140.794 288.2955,141.718 L288.2955,140.584 L290.9415,140.584 L290.9415,150.286 C290.9415,153.835 288.8415,155.578 285.7335,155.578 C282.6255,155.578 280.7355,154.234 280.7355,152.008 C280.7355,151.525 280.8615,151.105 281.0295,150.811 Z M285.6285,142.6 C284.1585,142.6 282.8775,143.65 282.8775,145.561 C282.8775,147.472 284.1585,148.522 285.6285,148.522 C287.0985,148.522 288.4425,147.472 288.4425,145.561 C288.4425,143.65 287.0985,142.6 285.6285,142.6 Z M302.7455,146.422 L294.7235,146.422 C294.8915,148.018 296.0255,149.026 297.5795,149.026 C299.0285,149.026 299.8685,148.291 300.4565,147.115 L302.4305,148.249 C301.4435,150.286 299.8895,151.294 297.5375,151.294 C294.6395,151.294 292.1825,149.089 292.1825,145.792 C292.1825,142.495 294.6395,140.29 297.6635,140.29 C300.6455,140.29 302.7455,142.453 302.7455,145.498 L302.7455,146.422 Z M297.5795,142.306 C296.1725,142.306 295.1015,143.272 294.7235,144.49 L300.3095,144.49 C300.0575,143.146 299.0705,142.306 297.5795,142.306 Z M304.1755,151 L304.1755,136.3 L306.8215,136.3 L306.8215,141.865 C307.5985,140.878 308.8585,140.29 310.2445,140.29 C313.0375,140.29 315.2215,142.327 315.2215,145.792 C315.2215,149.257 312.9325,151.294 310.2025,151.294 C308.5645,151.294 307.4515,150.58 306.8215,149.719 L306.8215,151 L304.1755,151 Z M309.5935,148.816 C311.2945,148.816 312.5335,147.556 312.5335,145.792 C312.5335,144.028 311.2945,142.768 309.5935,142.768 C307.8925,142.768 306.6535,144.028 306.6535,145.792 C306.6535,147.556 307.8925,148.816 309.5935,148.816 Z M326.5845,146.422 L318.5625,146.422 C318.7305,148.018 319.8645,149.026 321.4185,149.026 C322.8675,149.026 323.7075,148.291 324.2955,147.115 L326.2695,148.249 C325.2825,150.286 323.7285,151.294 321.3765,151.294 C318.4785,151.294 316.0215,149.089 316.0215,145.792 C316.0215,142.495 318.4785,140.29 321.5025,140.29 C324.4845,140.29 326.5845,142.453 326.5845,145.498 L326.5845,146.422 Z M321.4185,142.306 C320.0115,142.306 318.9405,143.272 318.5625,144.49 L324.1485,144.49 C323.8965,143.146 322.9095,142.306 321.4185,142.306 Z M337.9895,146.422 L329.9675,146.422 C330.1355,148.018 331.2695,149.026 332.8235,149.026 C334.2725,149.026 335.1125,148.291 335.7005,147.115 L337.6745,148.249 C336.6875,150.286 335.1335,151.294 332.7815,151.294 C329.8835,151.294 327.4265,149.089 327.4265,145.792 C327.4265,142.495 329.8835,140.29 332.9075,140.29 C335.8895,140.29 337.9895,142.453 337.9895,145.498 L337.9895,146.422 Z M332.8235,142.306 C331.4165,142.306 330.3455,143.272 329.9675,144.49 L335.5535,144.49 C335.3015,143.146 334.3145,142.306 332.8235,142.306 Z" id="Chargebee" fill="#4D4D4E"></path>
                <g id="Group-14" transform="translate(257.000000, 64.000000)">
                    <path d="M50.7950203,42.532221 C50.2325508,42.1528221 49.4722421,42.1652023 48.9226401,42.5633664 C48.3667994,42.9660634 48.1204143,43.6950317 48.315524,44.3523997 C48.5108773,45.0105963 49.1190658,45.4874281 49.8051909,45.5188172 C50.4835175,45.5498652 51.124606,45.1449748 51.3880991,44.5190447 C51.6869781,43.809134 51.4331357,42.9626028 50.7950203,42.532221 C50.0469943,42.0276556 51.543095,43.0367864 50.7950203,42.532221" id="Fill-1" fill="#F3694A"></path>
                    <g id="Group-5" transform="translate(0.000000, 0.001462)">
                        <mask id="mask-6" fill="white">
                            <use xlink:href="#path-5"></use>
                        </mask>
                        <g id="Clip-4"></g>
                        <path d="M29.8765979,57.7700374 C30.2492705,57.7711584 30.6219431,57.7650658 30.9943721,57.7517108 C31.7375727,57.7249033 32.4797985,57.6689976 33.2184175,57.5826775 C33.8148107,57.5135142 31.9997011,57.7250496 33.2184175,57.5826775 C33.9580601,57.4968936 34.5790674,58.1953501 34.4037465,58.9203704 C34.3236653,59.2516133 34.0856637,59.5329456 33.772065,59.6664955 C33.5761267,59.7499886 33.3611795,59.7596393 33.151935,59.7817677 C32.9031617,59.8081365 32.6540959,59.8313859 32.4047864,59.8515158 C30.4307327,60.0109959 28.4378652,59.9779496 26.4692705,59.7617352 C24.6860861,59.5658944 22.920156,59.2118895 21.2022356,58.6946028 C19.5294492,58.1909147 17.903844,57.5327669 16.3516426,56.7312721 C14.7763379,55.9179334 13.2923737,54.9526206 11.8790349,53.8840747 C10.2759968,52.672182 8.79641917,51.295935 7.46823071,49.7879415 C6.14784078,48.2888676 4.97679285,46.6575597 3.98023721,44.9261381 C2.96481885,43.1620114 2.12974167,41.2946515 1.49416084,39.3609553 C0.845127539,37.3864143 0.404022746,35.3451958 0.178352559,33.2790707 C-0.0512656377,31.1769748 -0.0589666937,29.0509472 0.153982128,26.9470967 C0.363762794,24.8752689 0.790635256,22.8247896 1.42714216,20.8419139 C2.05024533,18.9005654 2.87299106,17.0238473 3.87832006,15.2500699 C4.87638668,13.48916 6.05269862,11.8308497 7.38376279,10.3060894 C8.70234931,8.79561007 10.1726661,7.41751097 11.7650301,6.19913566 C13.3736247,4.96842892 15.1071909,3.90071162 16.9309277,3.01957433 C18.785225,2.1237173 20.7312039,1.42063038 22.7301154,0.925277011 C24.7672396,0.420419171 26.8571503,0.132896832 28.9546645,0.06373355 C31.0563217,-0.00557595451 33.1661673,0.143961007 35.2363867,0.51317303 C37.2507002,0.872441917 39.2284582,1.43934687 41.1265735,2.20345735 C43.0008546,2.95796588 44.7984663,3.9029537 46.4823656,5.01955808 C48.161147,6.13284809 49.7271422,7.41478148 51.1503266,8.84035418 C51.7478895,9.43884322 52.2959318,10.04942 52.6666548,10.8174785 C52.9888318,11.4851795 53.1779464,12.2150739 53.222593,12.9550089 C53.3135922,14.4637335 52.7936247,15.9744078 51.7873209,17.1030024 C50.6135435,18.4194444 48.8665248,19.130866 47.1069797,19.0056994 C46.2598635,18.945407 45.4286856,18.6953664 44.6902616,18.2755613 C44.3088643,18.0587132 43.9529586,17.7974622 43.6312689,17.4991194 C43.2665898,17.1610041 42.9344208,16.7888676 42.5702778,16.4494362 C41.1046889,15.0833761 39.4184013,13.9564874 37.5940796,13.128039 C35.7195548,12.2768286 33.703779,11.7463331 31.6535922,11.5605329 C29.5628042,11.3710284 27.4402859,11.5307522 25.404234,12.0445784 C23.4215532,12.5449033 21.5270447,13.3789082 19.8170203,14.499948 C18.1388725,15.600078 16.6420894,16.9729618 15.3997335,18.5487051 C14.1428042,20.1428237 13.1504403,21.9426775 12.4769878,23.8579009 C11.790424,25.810411 11.4421706,27.8761462 11.4359805,29.9452933 C11.4297417,32.0296474 11.7724874,34.111857 12.4566629,36.081134 C13.117394,37.9831487 14.0942096,39.7722307 15.3308627,41.3608903 C16.5653712,42.9467717 18.0541608,44.323896 19.7289456,45.4338229 C21.4388725,46.5670479 23.3329911,47.4154801 25.3195223,47.928234 C27.3539171,48.4534167 29.4797498,48.6266418 31.5727311,48.4453258 C33.6138034,48.2685426 35.6228042,47.7514509 37.4939659,46.9167636 C37.6899041,46.8293712 37.8835516,46.7154639 38.0959155,46.6736929 C38.2742583,46.6386483 38.4605459,46.6495175 38.6337222,46.7042535 C38.9810008,46.8141154 39.2549732,47.0968123 39.3541608,47.4473566 C39.4512526,47.7906872 39.3693193,48.1694037 39.1403347,48.44284 C39.008052,48.6007116 38.8411145,48.6953664 38.6568741,48.7808091 C38.43213,48.8850171 38.205485,48.985277 37.9770853,49.0812965 C36.074827,49.8812315 34.0541284,50.3911584 32.0005297,50.5925069 C29.9112039,50.797316 27.7922924,50.6858944 25.7365491,50.2596068 C25.9976052,50.572182 26.2483282,50.8933842 26.4883769,51.2223363 C26.7328611,51.5574785 26.9661348,51.9007604 27.1878083,52.2514021 C27.2191487,52.3008741 27.3081495,52.4423688 27.3081495,52.4423688 C27.3081495,52.4423688 27.3486531,52.4470479 27.4126499,52.4542616 C27.518515,52.4663493 27.6243802,52.4779009 27.7303916,52.4886726 C27.9425605,52.5102648 28.1550707,52.5285914 28.3678245,52.5434086 C29.2336572,52.6036523 30.102853,52.6146677 30.9698554,52.5764062 C32.6801722,52.5009553 34.3808871,52.2323444 36.0302778,51.7736442 C37.6290268,51.3289813 39.1768903,50.7060731 40.6386775,49.9208091 C42.0691243,49.1523119 43.4153956,48.2289651 44.6489293,47.1729943 C44.9540471,46.9117433 45.2523412,46.6424013 45.5433241,46.3653582 C45.7998473,46.121069 46.0342421,45.8396881 46.3549569,45.677186 C46.9168416,45.3924907 47.6128611,45.4611665 48.1070447,45.8523607 C48.6030804,46.2450171 48.8307002,46.9048708 48.6820894,47.5198343 C48.6057124,47.8357238 48.4360942,48.1041397 48.2074509,48.3316133 C47.9226093,48.6151877 47.6310902,48.8920845 47.3333323,49.1621576 C46.1345995,50.2491275 44.834632,51.2247734 43.4547295,52.0700374 C42.0536734,52.9282177 40.5705865,53.653238 39.0318375,54.2294037 C37.4512689,54.821264 35.8121625,55.2568123 34.1463948,55.5283477 C32.4309115,55.807974 30.6874996,55.9131568 28.9507652,55.8463818 C29.0906515,56.232117 29.2181089,56.6223851 29.3323087,57.0164549 C29.3829017,57.1910934 29.4309115,57.366463 29.4762892,57.5424663 C29.4902291,57.5967636 29.533121,57.7654557 29.533121,57.7654557 L29.8765979,57.7700374 Z" id="Fill-3" fill="#F3694A" mask="url(#mask-6)"></path>
                    </g>
                    <path d="M46.5731747,52.2578798 C44.8918099,53.5150041 43.0706564,54.5842323 41.1490967,55.4304712 C40.1863672,55.8544192 39.1991698,56.2227051 38.194182,56.5332819 C37.6886905,56.6894963 37.1787636,56.8312348 36.6652299,56.9584484 C36.4429716,57.0134768 36.2116962,57.0484728 36.0135158,57.1697888 C35.8440439,57.2735093 35.7049374,57.4237774 35.6138895,57.6003656 C35.4190236,57.9785459 35.4662047,58.4493826 35.7330122,58.7810642 C36.0363266,59.1581235 36.4912738,59.240593 36.9423704,59.132827 C37.9606158,58.8896588 38.9662372,58.5937043 39.9534346,58.2453046 C41.9359691,57.5455808 43.8423217,56.6332981 45.6320374,55.5300975 C46.0785524,55.2549066 46.5177076,54.9680179 46.9492104,54.66987 C47.168593,54.5183834 47.3859285,54.3639236 47.6012169,54.2066369 C47.7906726,54.0683103 47.9927522,53.939342 48.1266921,53.742039 C48.3598684,53.3986109 48.3756604,52.9384484 48.1656848,52.5803006 C47.9554655,52.221909 47.5502827,52.0109586 47.1361803,52.0446385 C46.9328335,52.0611617 46.7366028,52.1357352 46.5731747,52.2578798 C43.4988936,54.55645 47.0550268,51.8977335 46.5731747,52.2578798" id="Fill-6" fill="#F3694A"></path>
                    <path d="M50.1849066,49.033082 C49.9005524,49.3352266 49.6093258,49.6309374 49.3118603,49.9200195 C49.0662063,50.158801 48.7937449,50.3697027 48.6933875,50.7113761 C48.510658,51.3335045 48.9289521,51.9968188 49.5718928,52.0957141 C49.9465638,52.1533745 50.2780991,52.0082242 50.5462226,51.7543331 C50.8435906,51.4728058 51.1352071,51.1851373 51.4208773,50.8918148 C51.6643867,50.6417254 51.9420634,50.4032851 52.0325264,50.0526434 C52.1054915,49.7697027 52.0604062,49.4630739 51.9085297,49.2134232 C51.5404874,48.608208 50.6699269,48.51755 50.1849066,49.033082 C49.8018034,49.4401657 50.5968156,48.5952429 50.1849066,49.033082" id="Fill-8" fill="#F3694A"></path>
                    <path d="M43.3782697,42.7570284 C42.699212,43.4711795 41.9808692,44.1318132 41.1911698,44.7221625 C40.9744192,44.8841771 40.7546466,45.042 40.5346304,45.1995305 C40.3516572,45.3305946 40.2059708,45.4956312 40.1220877,45.7067279 C39.9516409,46.1358424 40.0757839,46.6386044 40.4272055,46.9387019 C40.8406742,47.2918781 41.4003168,47.2577595 41.8268481,46.9534703 C42.240463,46.6583932 42.6506661,46.358052 43.0470268,46.0399691 C43.4198944,45.7408465 43.779212,45.4252494 44.1250284,45.095225 C44.3260357,44.903381 44.5227051,44.707199 44.71645,44.5080926 C44.8972786,44.3222437 45.0893176,44.145948 45.1843623,43.8987831 C45.3690902,43.418247 45.1825102,42.8591893 44.7469618,42.5850219 C44.3135581,42.3121219 43.7308611,42.386208 43.3782697,42.7570284 C42.3322421,43.8572071 43.7926645,42.3211877 43.3782697,42.7570284" id="Fill-10" fill="#F3694A"></path>
                    <path d="M29.9839545,22.9207847 C28.519779,22.9207847 27.0746613,23.3802161 25.8817774,24.2297206 C24.7195516,25.0574379 23.8195028,26.2345784 23.3306807,27.5754395 C22.8232396,28.9675272 22.7683574,30.5135386 23.1732478,31.9387214 C23.5630772,33.3108741 24.3752461,34.5483071 25.4739139,35.4573241 C26.5924679,36.3828156 27.9872851,36.9476247 29.4350349,37.0586076 C30.9058392,37.1714427 32.39458,36.8207035 33.6556523,36.0542047 C34.8689098,35.316853 35.8479188,34.2145784 36.4344663,32.9214346 C37.0457254,31.5737985 37.216026,30.0417758 36.9232396,28.591589 C36.6387392,27.1824907 35.915961,25.8780877 34.8776832,24.884554 C33.835896,23.8876572 32.4959123,23.223173 31.0703883,23.0036442 C30.7110707,22.9482746 30.3475126,22.9207847 29.9839545,22.9207847" id="Fill-12" fill="#F3694A"></path>
                </g>
                <g id="Group-25" transform="translate(28.000000, 71.000000)">
                    <g id="Group-3" transform="translate(0.000000, 60.268300)">
                        <mask id="mask-8" fill="white">
                            <use xlink:href="#path-7"></use>
                        </mask>
                        <g id="Clip-2"></g>
                        <path d="M11.34,6.976 C10.966,9.43 9.091,9.43 7.278,9.43 L6.246,9.43 L6.97,4.847 C7.013,4.57 7.253,4.366 7.533,4.366 L8.006,4.366 C9.241,4.366 10.406,4.366 11.008,5.07 C11.367,5.49 11.477,6.114 11.34,6.976 M10.551,0.571 L3.712,0.571 C3.244,0.571 2.846,0.911 2.773,1.372 L0.007,18.91 C-0.048,19.256 0.22,19.568 0.571,19.568 L3.836,19.568 C4.304,19.568 4.702,19.228 4.775,18.765 L5.521,14.035 C5.593,13.572 5.992,13.232 6.459,13.232 L8.624,13.232 C13.129,13.232 15.729,11.052 16.408,6.732 C16.714,4.842 16.421,3.357 15.536,2.317 C14.564,1.175 12.84,0.571 10.551,0.571" id="Fill-1" fill="#253B80" mask="url(#mask-8)"></path>
                    </g>
                    <path d="M26.4294,73.5393 C26.1134,75.4103 24.6284,76.6663 22.7344,76.6663 C21.7834,76.6663 21.0234,76.3613 20.5354,75.7833 C20.0514,75.2093 19.8674,74.3933 20.0214,73.4823 C20.3164,71.6273 21.8264,70.3303 23.6914,70.3303 C24.6214,70.3303 25.3774,70.6393 25.8754,71.2223 C26.3744,71.8113 26.5724,72.6333 26.4294,73.5393 M30.9944,67.1653 L27.7194,67.1653 C27.4404,67.1653 27.1994,67.3693 27.1564,67.6463 L27.0114,68.5623 L26.7824,68.2303 C26.0734,67.2013 24.4924,66.8573 22.9144,66.8573 C19.2954,66.8573 16.2044,69.5983 15.6024,73.4433 C15.2894,75.3613 15.7344,77.1953 16.8224,78.4743 C17.8204,79.6503 19.2484,80.1403 20.9474,80.1403 C23.8634,80.1403 25.4804,78.2653 25.4804,78.2653 L25.3344,79.1753 C25.2794,79.5233 25.5474,79.8353 25.8964,79.8353 L28.8464,79.8353 C29.3154,79.8353 29.7114,79.4953 29.7854,79.0323 L31.5554,67.8233 C31.6114,67.4783 31.3444,67.1653 30.9944,67.1653" id="Fill-4" fill="#253B80"></path>
                    <g id="Group-8" transform="translate(33.000000, 66.268300)">
                        <mask id="mask-10" fill="white">
                            <use xlink:href="#path-9"></use>
                        </mask>
                        <g id="Clip-7"></g>
                        <path d="M15.4357,0.8969 L12.1447,0.8969 C11.8317,0.8969 11.5367,1.0529 11.3587,1.3139 L6.8187,8.0009 L4.8947,1.5749 C4.7737,1.1729 4.4027,0.8969 3.9827,0.8969 L0.7487,0.8969 C0.3557,0.8969 0.0827,1.2809 0.2077,1.6509 L3.8327,12.2889 L0.4247,17.0999 C0.1567,17.4789 0.4267,18.0009 0.8907,18.0009 L4.1767,18.0009 C4.4887,18.0009 4.7807,17.8479 4.9577,17.5919 L15.9047,1.7929 C16.1657,1.4139 15.8977,0.8969 15.4357,0.8969" id="Fill-6" fill="#253B80" mask="url(#mask-10)"></path>
                    </g>
                    <path d="M60.1213,67.2443 C59.7483,69.6983 57.8733,69.6983 56.0593,69.6983 L55.0283,69.6983 L55.7533,65.1153 C55.7963,64.8383 56.0343,64.6343 56.3153,64.6343 L56.7883,64.6343 C58.0223,64.6343 59.1873,64.6343 59.7903,65.3383 C60.1493,65.7583 60.2583,66.3823 60.1213,67.2443 M59.3323,60.8393 L52.4923,60.8393 C52.0253,60.8393 51.6273,61.1793 51.5543,61.6403 L48.7883,79.1783 C48.7333,79.5243 49.0013,79.8363 49.3503,79.8363 L52.8603,79.8363 C53.1853,79.8363 53.4653,79.5983 53.5163,79.2743 L54.3013,74.3033 C54.3733,73.8403 54.7723,73.5003 55.2393,73.5003 L57.4033,73.5003 C61.9093,73.5003 64.5083,71.3203 65.1873,67.0003 C65.4953,65.1103 65.2003,63.6253 64.3153,62.5853 C63.3443,61.4433 61.6213,60.8393 59.3323,60.8393" id="Fill-9" fill="#179BD7"></path>
                    <path d="M75.2092,73.5393 C74.8952,75.4103 73.4082,76.6663 71.5142,76.6663 C70.5652,76.6663 69.8032,76.3613 69.3152,75.7833 C68.8312,75.2093 68.6492,74.3933 68.8012,73.4823 C69.0982,71.6273 70.6062,70.3303 72.4712,70.3303 C73.4012,70.3303 74.1572,70.6393 74.6552,71.2223 C75.1562,71.8113 75.3542,72.6333 75.2092,73.5393 M79.7742,67.1653 L76.5012,67.1653 C76.2202,67.1653 75.9812,67.3693 75.9392,67.6463 L75.7942,68.5623 L75.5642,68.2303 C74.8552,67.2013 73.2752,66.8573 71.6972,66.8573 C68.0782,66.8573 64.9882,69.5983 64.3862,73.4433 C64.0742,75.3613 64.5172,77.1953 65.6052,78.4743 C66.6052,79.6503 68.0312,80.1403 69.7302,80.1403 C72.6462,80.1403 74.2632,78.2653 74.2632,78.2653 L74.1172,79.1753 C74.0622,79.5233 74.3302,79.8353 74.6812,79.8353 L77.6302,79.8353 C78.0972,79.8353 78.4952,79.4953 78.5682,79.0323 L80.3392,67.8233 C80.3932,67.4783 80.1252,67.1653 79.7742,67.1653" id="Fill-11" fill="#179BD7"></path>
                    <g id="Group-15" transform="translate(80.000000, 60.268300)">
                        <mask id="mask-12" fill="white">
                            <use xlink:href="#path-11"></use>
                        </mask>
                        <g id="Clip-14"></g>
                        <path d="M3.635,1.0522 L0.828,18.9092 C0.774,19.2562 1.041,19.5682 1.39,19.5682 L4.212,19.5682 C4.681,19.5682 5.079,19.2282 5.152,18.7652 L7.919,1.2292 C7.974,0.8832 7.706,0.5702 7.358,0.5702 L4.197,0.5702 C3.918,0.5712 3.678,0.7752 3.635,1.0522" id="Fill-13" fill="#179BD7" mask="url(#mask-12)"></path>
                    </g>
                    <path d="M33.7419,54.9641 L34.7099,48.8151 L32.5539,48.7651 L22.2559,48.7651 L29.4119,3.3911 C29.4339,3.2551 29.5069,3.1271 29.6119,3.0361 C29.7179,2.9451 29.8529,2.8951 29.9929,2.8951 L47.3559,2.8951 C53.1189,2.8951 57.0979,4.0951 59.1739,6.4621 C60.1479,7.5731 60.7679,8.7341 61.0679,10.0101 C61.3819,11.3511 61.3879,12.9521 61.0809,14.9041 L61.0589,15.0471 L61.0589,16.2981 L62.0329,16.8501 C62.8519,17.2851 63.5039,17.7831 64.0029,18.3531 C64.8359,19.3031 65.3749,20.5091 65.6029,21.9411 C65.8379,23.4111 65.7599,25.1631 65.3749,27.1461 C64.9309,29.4261 64.2129,31.4111 63.2419,33.0371 C62.3509,34.5341 61.2139,35.7771 59.8649,36.7381 C58.5759,37.6531 57.0459,38.3481 55.3149,38.7911 C53.6379,39.2291 51.7259,39.4481 49.6289,39.4481 L48.2779,39.4481 C47.3119,39.4481 46.3729,39.7971 45.6359,40.4201 C44.8979,41.0571 44.4089,41.9271 44.2589,42.8791 L44.1579,43.4321 L42.4469,54.2701 L42.3689,54.6671 C42.3489,54.7931 42.3139,54.8571 42.2619,54.8991 C42.2149,54.9381 42.1489,54.9641 42.0839,54.9641 L33.7419,54.9641 Z" id="Fill-16" fill="#253B80"></path>
                    <path d="M62.9543,15.1916 C62.9023,15.5226 62.8433,15.8616 62.7763,16.2096 C60.4863,27.9646 52.6533,32.0266 42.6483,32.0266 L37.5553,32.0266 C36.3313,32.0266 35.3003,32.9156 35.1093,34.1216 L32.5013,50.6626 L31.7633,55.3506 C31.6393,56.1426 32.2493,56.8576 33.0493,56.8576 L42.0843,56.8576 C43.1533,56.8576 44.0623,56.0806 44.2313,55.0246 L44.3203,54.5656 L46.0203,43.7706 L46.1303,43.1786 C46.2973,42.1196 47.2073,41.3416 48.2773,41.3416 L49.6293,41.3416 C58.3823,41.3416 65.2343,37.7886 67.2373,27.5046 C68.0733,23.2086 67.6413,19.6216 65.4273,17.0976 C64.7573,16.3376 63.9263,15.7066 62.9543,15.1916" id="Fill-18" fill="#179BD7"></path>
                    <path d="M60.5588,14.2365 C60.2088,14.1345 59.8478,14.0425 59.4778,13.9595 C59.1058,13.8775 58.7248,13.8045 58.3318,13.7425 C56.9578,13.5195 55.4538,13.4145 53.8418,13.4145 L40.2328,13.4145 C39.8978,13.4145 39.5798,13.4905 39.2948,13.6275 C38.6668,13.9285 38.2008,14.5235 38.0878,15.2515 L35.1928,33.5875 L35.1098,34.1215 C35.2998,32.9155 36.3308,32.0265 37.5548,32.0265 L42.6488,32.0265 C52.6538,32.0265 60.4868,27.9635 62.7768,16.2095 C62.8448,15.8615 62.9028,15.5225 62.9548,15.1915 C62.3738,14.8835 61.7468,14.6215 61.0718,14.3975 C60.9048,14.3415 60.7328,14.2885 60.5588,14.2365" id="Fill-20" fill="#222D65"></path>
                    <g id="Group-24" transform="translate(20.000000, 0.268300)">
                        <mask id="mask-14" fill="white">
                            <use xlink:href="#path-13"></use>
                        </mask>
                        <g id="Clip-23"></g>
                        <path d="M18.0876,14.9829 C18.2006,14.2549 18.6676,13.6609 19.2946,13.3609 C19.5816,13.2239 19.8986,13.1479 20.2336,13.1479 L33.8416,13.1479 C35.4536,13.1479 36.9586,13.2539 38.3326,13.4759 C38.7246,13.5389 39.1056,13.6109 39.4776,13.6929 C39.8476,13.7759 40.2096,13.8689 40.5586,13.9699 C40.7326,14.0219 40.9046,14.0759 41.0736,14.1289 C41.7496,14.3529 42.3766,14.6179 42.9566,14.9229 C43.6366,10.5789 42.9506,7.6209 40.6016,4.9429 C38.0116,1.9939 33.3376,0.7319 27.3576,0.7319 L9.9956,0.7319 C8.7736,0.7319 7.7316,1.6199 7.5426,2.8289 L0.3106,48.6689 C0.1686,49.5759 0.8676,50.3939 1.7826,50.3939 L12.5016,50.3939 L15.1926,33.3189 L18.0876,14.9829 Z" id="Fill-22" fill="#253B80" mask="url(#mask-14)"></path>
                    </g>
                </g>
            </g>
        </g>
    </g>
</svg>