<?xml version="1.0" encoding="UTF-8"?>
<svg width="34px" height="32px" viewBox="0 0 34 32" version="1.1" xmlns="http://www.w3.org/2000/svg" xmlns:xlink="http://www.w3.org/1999/xlink">
    <!-- Generator: Sketch 51.2 (57519) - http://www.bohemiancoding.com/sketch -->
    <title>Group 3</title>
    <desc>Created with Sketch.</desc>
    <defs>
        <polygon id="path-1" points="0.93442623 0 35.0327869 0 35.0327869 32 0.93442623 32"></polygon>
    </defs>
    <g id="Page-1" stroke="none" stroke-width="1" fill="none" fill-rule="evenodd">
        <g id="Desktop-HD-Copy" transform="translate(-768.000000, -4007.000000)">
            <g id="Group-3" transform="translate(767.000000, 4007.000000)">
                <mask id="mask-2" fill="white">
                    <use xlink:href="#path-1"></use>
                </mask>
                <g id="Clip-2"></g>
                <path d="M4.83290955,20.519051 C4.53887146,21.3526964 4.2969828,22.0493997 4.04720437,22.743395 C3.79165294,23.4538312 3.23340393,23.7694946 2.64282612,23.5462865 C2.06860514,23.3292679 1.85461931,22.7565477 2.1007415,22.0546221 C2.65918295,20.4616049 3.21916387,18.8691679 3.78838158,17.2800192 C4.08280453,16.457979 4.68589051,16.2026629 5.45985726,16.5800278 C6.98662309,17.324506 8.50857809,18.0800093 10.0280315,18.8395745 C10.6120665,19.1316405 10.8410622,19.5906291 10.7042421,20.1293072 C10.5424057,20.7664367 9.85811285,21.0561817 9.19421795,20.7424525 C8.39927597,20.3664416 7.61607243,19.965286 6.6914304,19.5076514 C6.9323569,20.1614151 7.10227551,20.7051222 7.32857707,21.2240713 C9.60871929,26.4524404 15.0139784,29.5170063 20.6655521,28.795932 C27.6012332,27.9112233 32.6033445,21.5906046 31.8441951,14.6699932 C31.2008906,8.80468799 26.7872403,4.17108916 20.9678648,3.25117782 C15.0518877,2.31617962 9.10762297,5.83876695 7.03742548,11.5062022 C6.73780683,12.3265016 6.28789776,12.6533835 5.68769829,12.4866544 C5.05978842,12.311995 4.7713309,11.742563 5.00032653,11.0804821 C5.97423148,8.26581646 7.61838163,5.91961702 9.98819776,4.13143781 C15.3082089,0.117367154 22.0926374,-0.0611606358 27.5739077,3.73202298 C31.1206459,6.18653831 33.1987332,9.64568347 33.8002797,13.9255149 C34.500352,18.9043706 32.9880187,23.2105073 29.4607162,26.730967 C26.3925596,29.7934052 22.59739,31.1657288 18.2851521,30.9841063 C12.3882259,30.73556 7.03069032,26.7151065 5.05632462,21.1296818 C4.99897949,20.9675948 4.938363,20.8068618 4.83290955,20.519051" id="Fill-1" stroke="#6336AC" fill="#6336AC" mask="url(#mask-2)"></path>
            </g>
        </g>
    </g>
</svg>