<?xml version="1.0" encoding="UTF-8"?>
<svg width="35px" height="35px" viewBox="0 0 35 35" version="1.1" xmlns="http://www.w3.org/2000/svg" xmlns:xlink="http://www.w3.org/1999/xlink">
    <!-- Generator: Sketch 51.2 (57519) - http://www.bohemiancoding.com/sketch -->
    <title>Group 10</title>
    <desc>Created with Sketch.</desc>
    <defs>
        <polygon id="path-1" points="6.06255012e-05 0.135363218 35.1033777 0.135363218 35.1033777 35.3333333 6.06255012e-05 35.3333333"></polygon>
    </defs>
    <g id="Page-1" stroke="none" stroke-width="1" fill="none" fill-rule="evenodd">
        <g id="Desktop-HD-Copy" transform="translate(-280.000000, -4003.000000)">
            <g id="Group-10" transform="translate(280.000000, 4002.000000)">
                <path d="M29.660553,17.413491 C29.0859955,10.7158949 23.3512722,6.3571706 18.3997076,6.18678521 L18.3997076,8.33231194 L16.1298135,8.33231194 L16.1298135,6.15355401 C10.1798573,6.50399206 5.18488436,11.8233999 4.94553563,17.4050322 L7.09665974,17.4050322 L7.09665974,19.6931509 L4.93588933,19.6931509 C5.27592128,25.5049847 10.3968989,30.6171507 16.1623698,30.8944802 L16.1623698,28.8957749 L18.4388957,28.8957749 L18.4388957,30.9162315 C24.5667056,30.4630788 29.3090661,25.2204048 29.6328199,19.6707954 L27.650506,19.6707954 L27.650506,17.413491 L29.660553,17.413491 Z M18.4141771,33.3451297 L18.4141771,36 L16.1738247,36 L16.1738247,33.4248846 C15.0391791,33.1777653 13.9310608,33.052091 12.9037302,32.6931941 C6.98633023,30.6262138 3.50160562,26.4958785 2.59605954,20.2472056 C2.53577019,19.8303051 2.43448407,19.6315222 1.96362423,19.6647534 C1.31852815,19.7106728 0.668006031,19.6762332 0,19.6762332 L0,17.4219499 L2.51165445,17.4219499 C2.84083431,13.7737689 4.25341385,10.6439946 6.80847664,8.0688792 C9.37137703,5.48530491 12.502806,4.08355272 16.1491061,3.75124078 L16.1491061,1.24137931 L18.3834295,1.24137931 L18.3834295,3.63946312 C26.3090679,4.90647792 30.8627227,9.45613051 32.1354309,17.4050322 L33.4141681,17.4050322 L34.7586207,17.4050322 L34.7586207,19.6738164 L32.0817734,19.6738164 C31.5144506,26.8493375 25.8026373,32.6950067 18.4141771,33.3451297 Z" id="Fill-1" fill="#6336AC"></path>
                <g id="Group-5">
                    <mask id="mask-2" fill="white">
                        <use xlink:href="#path-1"></use>
                    </mask>
                    <g id="Clip-4"></g>
                </g>
                <path d="M17.9811548,17.3793927 C19.0091619,17.3699039 19.8449221,18.1815612 19.8617987,19.2056217 C19.8794091,20.2559589 19.0341099,21.1121406 17.9870249,21.1033817 C16.9582841,21.0953527 16.1394005,20.270557 16.137933,19.2421171 C16.1364655,18.2144071 16.9538815,17.3888815 17.9811548,17.3793927" id="Fill-6" fill="#6336AC"></path>
                <path d="M17.982037,17.4662904 L17.9827363,17.5532704 C17.0449496,17.5616205 16.311364,18.3033864 16.3127626,19.2420752 C16.3141612,20.1807639 17.0498448,20.9218339 17.9883309,20.9294882 L18.0030166,20.9294882 C18.453378,20.9294882 18.8757666,20.7541364 19.1932575,20.4354415 C19.5198394,20.1083965 19.6946692,19.6728004 19.6869767,19.2086748 C19.672291,18.292253 18.9156278,17.5532704 17.9981213,17.5532704 L17.9827363,17.5532704 L17.982037,17.4662904 Z M18.0030166,21.1034483 L17.9869322,21.1034483 C16.9512408,21.0950982 16.1393315,20.2781815 16.1379328,19.2420752 C16.1365342,18.2066646 16.9463456,17.3883563 17.9813377,17.3793103 L17.9981213,17.3793103 C19.0107352,17.3793103 19.8450227,18.1948353 19.8618064,19.2058914 C19.8701982,19.7166383 19.6771862,20.1967682 19.3177362,20.5572135 C18.9666781,20.9100046 18.5002324,21.1034483 18.0030166,21.1034483 Z" id="Fill-8" fill="#6336AC"></path>
            </g>
        </g>
    </g>
</svg>