<?xml version="1.0" encoding="UTF-8"?>
<svg width="36px" height="35px" viewBox="0 0 36 35" version="1.1" xmlns="http://www.w3.org/2000/svg" xmlns:xlink="http://www.w3.org/1999/xlink">
    <!-- Generator: Sketch 51.2 (57519) - http://www.bohemiancoding.com/sketch -->
    <title>Group 6</title>
    <desc>Created with Sketch.</desc>
    <defs></defs>
    <g id="Page-1" stroke="none" stroke-width="1" fill="none" fill-rule="evenodd">
        <g id="Desktop-HD-Copy" transform="translate(-765.000000, -3707.000000)" fill="#6336AC">
            <g id="Group-21" transform="translate(765.000000, 3699.000000)">
                <g id="Group-18" transform="translate(0.000000, 8.000000)">
                    <g id="Group-6">
                        <g id="Group-3" transform="translate(0.000000, 0.131726)">
                            <path d="M17.7890381,31.2926037 C25.7053931,31.3126529 32.181068,25.0181111 32.2112232,17.2575859 C32.2413784,9.5180076 25.6001576,3.129504 17.8339632,3.18785607 C9.83145056,3.24800358 3.33177452,9.43541699 3.28654172,17.2058171 C3.24223204,24.865498 9.83791239,31.2725546 17.7890381,31.2926037 M17.2000886,0.0176931968 C26.3411139,-0.396157591 34.9405764,6.49148058 35.4836777,16.330237 C36.0003162,25.6905064 28.8473801,33.4938231 19.6989699,34.4451114 C8.92556379,35.5651717 0.528571909,27.5757269 0.0242416042,18.2097719 C-0.491166121,8.63763955 7.27625907,0.243021934 17.2000886,0.0176931968" id="Fill-1"></path>
                        </g>
                        <path d="M16.8702769,19.223944 C18.4552,17.2549331 19.9724308,15.3703983 21.4899692,13.4861499 C22.1352,12.6852012 22.7702769,11.8762344 23.4305846,11.0861673 C24.1099692,10.2734778 25.0552,10.1222797 25.8472,10.670659 C26.6004308,11.1924068 26.7164308,12.0775454 26.0733538,12.8859395 C23.4822769,16.1427111 20.8813538,19.39261 18.2672,22.6333455 C17.5973538,23.4637893 16.4736615,23.5499836 15.7499692,22.7516121 C14.2148923,21.0577931 12.7358154,19.3181564 11.2841231,17.5610519 C10.7293538,16.8901105 10.9404308,16.0364716 11.6453538,15.5330508 C12.3813538,15.0075803 13.2779692,15.0917701 13.8924308,15.7850475 C14.8684308,16.8866742 15.8195077,18.0077734 16.8702769,19.223944" id="Fill-4"></path>
                    </g>
                </g>
            </g>
        </g>
    </g>
</svg>