<?xml version="1.0" encoding="utf-8"?>
<!-- Generator: Adobe Illustrator 24.0.2, SVG Export Plug-In . SVG Version: 6.00 Build 0)  -->
<svg version="1.1" id="Layer_1" xmlns="http://www.w3.org/2000/svg" xmlns:xlink="http://www.w3.org/1999/xlink" x="0px" y="0px"
	 viewBox="0 0 159 45" style="enable-background:new 0 0 159 45;" xml:space="preserve">
<style type="text/css">
	.st0{fill:#231F20;}
</style>
<title>Relay Logo with Text</title>
<g>
	<path class="st0" d="M73.9,14.6c0-4-1.3-10-13-10H49.5v30.6h6.9V23.1l10,12.2h9L64.8,23.9C72.7,23.4,73.9,18.2,73.9,14.6z
		 M56.4,18.9v-8.6h4.7c4.7,0,5.7,2.4,5.7,4.4s-1,4.2-5.7,4.2H56.4z"/>
	<path class="st0" d="M87,10.3c-9.9,0-12.2,6.6-12.2,12.6c0,6.3,2.1,12.6,12.2,12.6c7.9,0,10.7-3.7,11.2-7.9h-7
		c-0.4,1.4-1.4,2.7-4.4,2.7s-4.9-1.4-5.3-5h16.6C99,17.8,96.5,10.3,87,10.3z M81.7,20.5c0.1-2.9,1.6-5,4.9-5s4.9,2.3,4.9,5H81.7z"/>
	<rect x="100.9" y="1.5" class="st0" width="6.6" height="33.9"/>
	<path class="st0" d="M121.6,10.3c-8.9,0-10.9,4-10.9,9.2h6.6c0-2.4,1-4,4.4-4c3.6,0,4.9,2,4.9,4.7l-6.6,0.6
		c-7.2,0.6-10.3,2.6-10.3,7.3c0,5.3,4.3,7.7,9.7,7.7c4.1,0,6.9-1.4,8.4-3.3v2.9h5.1V21.5C133.2,14.9,131.8,10.3,121.6,10.3z
		 M121.2,30.5c-3.1,0-4.4-1.1-4.4-2.9c0-1.3,1-2.2,4.4-2.4l5.4-0.6C126.7,27.8,125.4,30.5,121.2,30.5z"/>
	<path class="st0" d="M152.6,10.8v13.9c0,3.6-0.9,5.4-5,5.4s-4.9-1.7-4.9-5.2V10.6h-6.6v13.7c0,6.9,1.7,11.2,9.4,11.2
		c3.9,0,5.7-1.4,6.9-3v3.4c0,2.4-0.7,4-5,4c-4.4,0-4.9-1.4-5-3.3h-6.6c0,4.7,2.3,8.3,11.6,8.3c9.9,0,11.6-4.9,11.6-9.6V10.8H152.6z"
		/>
	<path class="st0" d="M37.5,0H2.3C1,0,0,1,0,2.3v35.3c0,1.3,1,2.3,2.3,2.3h35.2c1.3,0,2.3-1,2.3-2.3V2.3C39.8,1,38.8,0,37.5,0
		L37.5,0z M13.8,31.8c-2.9-0.1-5.2-2.5-5.1-5.5c0.1-2.7,2.3-5,5-5.1c2.7,0,5,2,5.3,4.7c0.3,2.9-1.7,5.5-4.6,5.8
		C14.2,31.8,14,31.8,13.8,31.8z M31.3,27.5c0,2.4-2,4.4-4.4,4.4c-0.2,0-0.5,0-0.7-0.1c-2.1-0.4-3.7-2.3-3.6-4.4V16.8h-9.6
		c-2.4,0-4.4-2-4.4-4.4c0-2.4,2-4.4,4.4-4.4h18.4V27.5z"/>
</g>
</svg>
