<?xml version="1.0" encoding="utf-8"?>
<!-- Generator: Adobe Illustrator 22.0.1, SVG Export Plug-In . SVG Version: 6.00 Build 0)  -->
<svg version="1.1" id="Layer_1" xmlns="http://www.w3.org/2000/svg" xmlns:xlink="http://www.w3.org/1999/xlink" x="0px" y="0px"
	 viewBox="0 0 509.7 743.9" style="enable-background:new 0 0 509.7 743.9;" xml:space="preserve">
<style type="text/css">
	.st0{fill:#1B2755;}
	.st1{opacity:0.3;}
	.st2{fill:#181817;}
	.st3{fill:#FFFFFF;}
	.st4{enable-background:new    ;}
</style>
<title>wtfArtboard 1 copy</title>
<polygon class="st0" points="132.6,687.9 9,538.4 50,388.7 260.6,313 270.4,368.5 390.8,473.6 323.5,655.5 "/>
<g class="st1">
	<path class="st2" d="M195,450.2c5-15.9,15.5-28.6,38.7-24l-3,17.7c-7.1-0.6-12.2-1.1-16.6,12.5L197,511
		c-6.9,21.8-20.5,48.5-42.7,49.2c-13.3,0.4-17.5-9.3-17.3-16.3c-4.9,6.8-15,17.2-27.4,17.6C94,561.9,87,546.3,97.2,514.2l14.8-47.1
		c-17.4,7-33.2,12.6-32.8,24.6c0.2,7.5,6.3,9.2,9.6,9.1l0.6,20.2c-16.3,0.5-27.7-11.2-28-28c-0.9-30.7,30.7-37.5,59.6-50.1
		c4.6-7.6,11.9-14.2,21.5-14.5l4.2,13.3c0,0-6.7,3.3-10.4,14.9c-18,57.2-19.8,63.5-19.8,63.5c-5.8,18.2-3.6,20.5-0.9,20.4
		c6.4-0.2,16-14.5,22.3-32.4l21.1-66.8l21.3-0.6l-24.6,78.2c-5.8,18.2-3.6,20.5-0.9,20.4c6.5-0.2,16.3-14.9,22.3-32.6L195,450.2z"/>
	<path class="st2" d="M265.5,514.2c-9.3,20.5-22.4,39.7-39.2,40.2c-13.2,0.4-21.8-10.9-13-39l13.8-43.8l-11.1,0.3l4-12.6l10.9-0.3
		l5.9-18.5l21.2-0.6l-5.9,18.5l10.7-0.3l-4,12.6l-10.5,0.3l-15.1,48.1c-5.8,17.9-2.8,20,0.2,19.9c6.5-0.2,15.3-11.5,24.4-30.7
		C260.7,508.4,264.4,511.3,265.5,514.2z"/>
	<path class="st2" d="M323.7,512.5c-9.3,21.3-22.8,32.7-41.8,32.5c0.2,3,0.2,6,0,9c-0.9,10-3.4,19.8-7.6,29
		c-4.8,9.6-11.8,17.2-22.2,17.4c-13.2,0.4-19.8-11.7-13.5-32l34-108.6c7.5-24.3,16.4-33.5,29.3-33.8c14.5-0.4,18.7,13.6,16.1,26.6
		c-1.3,6.7-4.6,23-15.1,47.1c-6.4,14.8-11.8,22-29.1,23.1l-2.2,6.8c3.1,3.1,7.3,4.8,11.7,4.6c14-0.4,23.9-8.8,32.6-27.9
		C319.3,507.1,322.1,509.3,323.7,512.5z M268.2,541.2l-11.3,35.7c-1.9,6.8-1.6,8.3,0.4,8.2c8-0.1,12.9-21.2,14.5-31.6
		C273,545.3,271.1,542.2,268.2,541.2z M291.7,466.7l-14.2,44.9c6.6-1.3,9.2-5.9,13.7-16.3c9.3-21.8,12.4-33.7,13.8-40.1
		c0.9-4.4,1.8-10.5-1-10.4C299.3,445,295.1,455.9,291.7,466.7z"/>
</g>
<path class="st3" d="M198,450.1c5-15.9,15.5-28.6,38.7-24l-3,17.7c-7.1-0.6-12.2-1.1-16.6,12.5L200,510.9
	c-6.9,21.8-20.5,48.5-42.7,49.2c-13.3,0.4-17.5-9.3-17.3-16.3c-4.9,6.8-15,17.2-27.4,17.6c-15.6,0.4-22.6-15.2-12.4-47.3l14.8-47.2
	c-17.4,7-33.2,12.6-32.8,24.6c0.2,7.5,6.3,9.2,9.6,9.1l0.6,20.2c-16.3,0.5-27.7-11.2-28-28c-0.9-30.7,30.7-37.5,59.6-50.1
	c4.6-7.6,11.9-14.2,21.5-14.5l4.2,13.3c0,0-6.7,3.3-10.4,14.9c-18,57.2-19.8,63.5-19.8,63.5c-5.8,18.2-3.6,20.5-0.9,20.4
	c6.4-0.2,16-14.5,22.3-32.4l21.1-66.8l21.3-0.6l-24.6,78.2c-5.8,18.2-3.6,20.5-0.9,20.4c6.5-0.2,16.3-14.9,22.3-32.6L198,450.1z"/>
<path class="st3" d="M268.5,514.1c-9.3,20.5-22.4,39.7-39.2,40.2c-13.2,0.4-21.8-10.9-13-39l13.8-43.8l-11.1,0.3l4-12.6l10.9-0.3
	l5.9-18.5l21.2-0.6l-5.9,18.5l10.7-0.3l-4,12.6l-10.5,0.3l-14.9,48c-5.8,17.9-2.8,20,0.2,19.9c6.5-0.2,15.3-11.5,24.4-30.7
	C263.7,508.3,267.4,511.2,268.5,514.1z"/>
<path class="st3" d="M326.7,512.5c-9.3,21.3-22.8,32.7-41.8,32.5c0.2,3,0.2,6,0,9c-0.9,10-3.4,19.8-7.6,29
	c-4.8,9.6-11.8,17.2-22.2,17.4c-13.2,0.4-19.8-11.7-13.5-32l34-108.6c7.5-24.3,16.4-33.5,29.3-33.8c14.5-0.4,18.7,13.6,16.1,26.6
	c-1.3,6.7-4.6,23-15.1,47.1c-6.4,14.8-11.8,22-29.1,23.1l-2.2,6.8c3.1,3.1,7.3,4.8,11.7,4.6c14-0.4,23.9-8.8,32.6-27.9
	C322.3,507,325.2,509.3,326.7,512.5z M271.2,541.1l-11.3,35.7c-1.9,6.8-1.6,8.3,0.4,8.2c8-0.1,12.9-21.2,14.5-31.6
	C275.9,545.2,274.1,542.1,271.2,541.1L271.2,541.1z M294.7,466.7l-14.2,44.9c6.6-1.3,9.2-5.9,13.7-16.3
	c9.3-21.8,12.4-33.7,13.8-40.1c0.9-4.4,1.8-10.5-1-10.4C302.3,444.9,298.1,455.8,294.7,466.7L294.7,466.7z"/>
<g>
	<g class="st4">
		<path class="st3" d="M65.7,571.7l2.8-0.1l2.5,8.8c0,0.2,0.1,0.4,0.2,0.6c0,0.2,0.1,0.3,0.1,0.5s0.1,0.3,0.1,0.4
			c0-0.1,0-0.3,0.1-0.5c0-0.2,0.1-0.4,0.1-0.5c0-0.2,0.1-0.4,0.1-0.6l2-8.9l2.7-0.1l2.5,8.8c0,0.2,0.1,0.4,0.2,0.6
			c0,0.2,0.1,0.3,0.1,0.5c0,0.2,0.1,0.3,0.1,0.4c0-0.1,0-0.3,0.1-0.4s0.1-0.3,0.1-0.5c0-0.2,0.1-0.4,0.1-0.6l2-8.9l2.8-0.1
			l-3.5,14.1l-2.8,0.1l-2.9-10.1l-2.3,10.3l-2.8,0.1L65.7,571.7z"/>
	</g>
	<g class="st4">
		<path class="st3" d="M95.4,579.9c0,0.9-0.1,1.6-0.4,2.3c-0.3,0.7-0.7,1.2-1.2,1.7c-0.5,0.5-1.1,0.8-1.7,1s-1.3,0.4-2,0.4
			s-1.3-0.1-2-0.3c-0.7-0.2-1.2-0.5-1.8-0.9s-1-1-1.3-1.6c-0.3-0.6-0.5-1.4-0.5-2.3c0-0.9,0.1-1.6,0.4-2.3c0.3-0.7,0.7-1.2,1.2-1.7
			c0.5-0.5,1.1-0.8,1.7-1c0.6-0.2,1.3-0.4,2-0.4c0.7,0,1.3,0.1,2,0.3c0.7,0.2,1.2,0.5,1.8,0.9c0.5,0.4,1,1,1.3,1.6
			S95.4,579,95.4,579.9z M90,582.9c0.4,0,0.7-0.1,1.1-0.2s0.6-0.3,0.9-0.6s0.5-0.6,0.6-0.9s0.2-0.8,0.2-1.2c0-0.5-0.1-0.9-0.3-1.2
			c-0.2-0.4-0.4-0.7-0.7-0.9s-0.6-0.4-0.9-0.5c-0.3-0.1-0.7-0.2-1.1-0.2s-0.7,0.1-1.1,0.2c-0.3,0.1-0.6,0.3-0.9,0.6
			c-0.3,0.3-0.5,0.6-0.6,0.9s-0.2,0.8-0.2,1.2c0,0.5,0.1,0.9,0.3,1.2c0.2,0.4,0.4,0.7,0.7,0.9c0.3,0.2,0.6,0.4,0.9,0.5
			C89.3,582.9,89.7,583,90,582.9z"/>
	</g>
	<g class="st4">
		<path class="st3" d="M112,584.4l-2.5,0.1l-0.2-6.2c0-0.6-0.2-1-0.4-1.4c-0.2-0.3-0.7-0.5-1.2-0.5c-0.6,0-1,0.2-1.4,0.7
			c-0.3,0.4-0.5,1.1-0.5,1.9l0.2,5.5l-2.5,0.1l-0.2-6.1c0-0.6-0.2-1.1-0.4-1.4c-0.3-0.3-0.7-0.5-1.2-0.5c-0.5,0-0.9,0.2-1.3,0.7
			c-0.4,0.4-0.5,1-0.5,1.8l0.2,5.6l-2.5,0.1l-0.3-9.9l2.5-0.1l0,1.3c0.4-0.6,0.8-1,1.3-1.3c0.5-0.3,1-0.4,1.5-0.4
			c0.7,0,1.3,0.1,1.8,0.4c0.5,0.3,0.8,0.7,1,1.2c0.3-0.6,0.8-1,1.4-1.3c0.6-0.3,1.1-0.4,1.8-0.5c1,0,1.8,0.2,2.4,0.8
			c0.6,0.6,0.9,1.4,0.9,2.4L112,584.4z"/>
	</g>
	<g class="st4">
		<path class="st3" d="M116.2,579.9c0.1,0.8,0.4,1.4,0.9,1.8c0.5,0.4,1.1,0.6,1.9,0.6c0.7,0,1.3-0.2,1.7-0.5c0.4-0.3,0.8-0.8,1-1.4
			l1.9,1c-0.4,1-1,1.7-1.8,2.2c-0.7,0.5-1.7,0.8-2.8,0.8c-0.7,0-1.4-0.1-2-0.3c-0.6-0.2-1.2-0.6-1.7-1c-0.5-0.4-0.9-1-1.2-1.6
			c-0.3-0.6-0.5-1.3-0.5-2.1c0-0.8,0.1-1.5,0.4-2.2c0.3-0.6,0.6-1.2,1.1-1.7c0.5-0.5,1-0.8,1.6-1.1c0.6-0.3,1.3-0.4,2-0.4
			c0.7,0,1.4,0.1,2,0.3c0.6,0.2,1.1,0.6,1.6,1c0.4,0.4,0.8,0.9,1,1.5s0.4,1.3,0.4,2l0,0.9L116.2,579.9z M118.8,575.9
			c-0.7,0-1.3,0.2-1.7,0.7s-0.8,0.9-0.9,1.5l5.3-0.2c-0.1-0.6-0.4-1.1-0.9-1.5S119.5,575.9,118.8,575.9z"/>
		<path class="st3" d="M135.3,583.7l-2.5,0.1l-0.2-5.7c0-0.7-0.2-1.2-0.5-1.5c-0.3-0.4-0.9-0.5-1.6-0.5c-0.7,0-1.2,0.3-1.6,0.8
			c-0.4,0.5-0.6,1.2-0.6,2.1l0.1,5L126,584l-0.3-9.9l2.5-0.1l0,1.6c0.4-0.6,0.8-1.1,1.4-1.4c0.6-0.4,1.2-0.5,1.9-0.6
			c1.1,0,1.9,0.3,2.6,0.9c0.6,0.6,1,1.4,1,2.5L135.3,583.7z"/>
		<path class="st3" d="M137.3,581l2.7-0.1l0.1,2.7l-2.7,0.1L137.3,581z"/>
	</g>
	<g class="st4">
		<path class="st3" d="M144,569.5l11.2-0.3l0.1,2.4l-4.3,0.1l0.3,11.6l-2.6,0.1l-0.3-11.6l-4.3,0.1L144,569.5z"/>
	</g>
	<g class="st4">
		<path class="st3" d="M156.7,578.8c0.1,0.8,0.4,1.4,0.9,1.8c0.5,0.4,1.1,0.6,1.9,0.6c0.7,0,1.3-0.2,1.7-0.5c0.4-0.3,0.8-0.8,1-1.4
			l1.9,1c-0.4,1-1,1.7-1.8,2.2c-0.7,0.5-1.7,0.8-2.8,0.8c-0.7,0-1.4-0.1-2-0.3c-0.6-0.2-1.2-0.6-1.7-1c-0.5-0.4-0.9-1-1.2-1.6
			c-0.3-0.6-0.5-1.3-0.5-2.1c0-0.8,0.1-1.5,0.4-2.2c0.3-0.6,0.6-1.2,1.1-1.7c0.5-0.5,1-0.8,1.6-1.1s1.3-0.4,2-0.4
			c0.7,0,1.4,0.1,2,0.3c0.6,0.2,1.1,0.6,1.6,1c0.4,0.4,0.8,0.9,1,1.5c0.3,0.6,0.4,1.3,0.4,2l0,0.9L156.7,578.8z M159.3,574.8
			c-0.7,0-1.3,0.2-1.7,0.7c-0.5,0.4-0.8,0.9-0.9,1.5l5.3-0.2c-0.1-0.6-0.4-1.1-0.9-1.5C160.6,574.9,160,574.7,159.3,574.8z"/>
	</g>
	<g class="st4">
		<path class="st3" d="M175.7,580c-0.4,1-1.1,1.7-1.8,2.2c-0.8,0.5-1.7,0.8-2.7,0.8c-0.7,0-1.4-0.1-2.1-0.3c-0.6-0.2-1.2-0.6-1.7-1
			s-0.9-1-1.2-1.6c-0.3-0.6-0.4-1.4-0.5-2.1c0-0.8,0.1-1.5,0.4-2.2c0.3-0.7,0.6-1.2,1.1-1.7c0.5-0.5,1-0.8,1.6-1.1
			c0.6-0.3,1.3-0.4,2-0.4c1.1,0,2.1,0.2,2.9,0.6c0.8,0.5,1.4,1.1,1.8,1.9l-2,1.4c-0.3-0.6-0.7-1.1-1.1-1.3c-0.4-0.2-0.9-0.3-1.4-0.3
			c-0.4,0-0.7,0.1-1,0.2s-0.6,0.3-0.8,0.6c-0.2,0.3-0.4,0.6-0.5,0.9c-0.1,0.4-0.2,0.8-0.2,1.2c0,0.9,0.3,1.6,0.8,2.1
			c0.5,0.5,1.2,0.7,1.9,0.7c0.7,0,1.2-0.2,1.6-0.5c0.4-0.3,0.7-0.8,1-1.4L175.7,580z"/>
	</g>
	<g class="st4">
		<path class="st3" d="M187,582.3l-2.5,0.1l-0.2-5.7c0-0.7-0.2-1.2-0.5-1.5c-0.3-0.4-0.9-0.5-1.5-0.5c-0.7,0-1.3,0.3-1.7,0.8
			c-0.4,0.5-0.7,1.2-0.6,2.1l0.1,5.1l-2.5,0.1l-0.4-14l2.5-0.1l0.2,5.7c0.4-0.6,0.8-1.1,1.4-1.4c0.6-0.3,1.2-0.5,2-0.5
			c0.5,0,1,0.1,1.5,0.2c0.4,0.2,0.8,0.4,1.1,0.7s0.6,0.7,0.7,1.1c0.2,0.4,0.3,0.9,0.3,1.4L187,582.3z"/>
		<path class="st3" d="M189,579.5l2.7-0.1l0.1,2.7l-2.7,0.1L189,579.5z"/>
	</g>
	<g class="st4">
		<path class="st3" d="M197.8,567.9l9.9-0.3l0.1,2.4l-7.3,0.2l0.1,3.6l6.7-0.2l0.1,2.4l-6.7,0.2l0.2,5.7l-2.6,0.1L197.8,567.9z"/>
	</g>
	<g class="st4">
		<path class="st3" d="M216.2,581.4c-0.1-0.1-0.2-0.3-0.3-0.5c-0.1-0.3-0.2-0.6-0.2-1c-0.3,0.6-0.8,1.1-1.3,1.4
			c-0.6,0.3-1.2,0.5-1.9,0.5c-0.5,0-0.9,0-1.4-0.2c-0.4-0.1-0.8-0.3-1.1-0.6c-0.3-0.3-0.5-0.6-0.7-1s-0.3-0.8-0.3-1.3
			c0-0.5,0.1-1,0.3-1.3c0.2-0.4,0.4-0.7,0.8-1c0.3-0.3,0.7-0.5,1.1-0.7c0.4-0.2,0.9-0.3,1.3-0.4l3-0.5l0-0.4c0-0.5-0.2-0.8-0.5-1.1
			c-0.3-0.3-0.8-0.4-1.4-0.4c-0.6,0-1,0.1-1.3,0.4c-0.3,0.2-0.4,0.5-0.4,0.8c0,0,0,0.1,0,0.1c0,0,0,0.1,0,0.1l-2.2,0.8
			c-0.1-0.3-0.2-0.5-0.2-0.8c0-0.4,0.1-0.8,0.2-1.1c0.2-0.4,0.4-0.7,0.8-1s0.8-0.5,1.3-0.7c0.5-0.2,1.1-0.3,1.8-0.3
			c1.4,0,2.5,0.2,3.3,0.8c0.8,0.6,1.2,1.5,1.2,2.7l0.1,4.1c0,0.6,0.1,1,0.2,1.4c0.1,0.4,0.3,0.7,0.5,1L216.2,581.4z M212.9,579.8
			c0.7,0,1.3-0.3,1.8-0.8c0.5-0.5,0.7-1.2,0.7-2.2l0-0.2l-2.4,0.5c-1.1,0.2-1.6,0.7-1.6,1.5c0,0.4,0.2,0.7,0.4,0.9
			C212.1,579.7,212.5,579.8,212.9,579.8z"/>
	</g>
	<g class="st4">
		<path class="st3" d="M220.1,567.3l2.5-0.1l0.2,5.3c0.4-0.5,0.8-0.9,1.4-1.1c0.6-0.3,1.2-0.4,1.8-0.5c0.7,0,1.3,0.1,1.9,0.3
			c0.6,0.2,1.1,0.5,1.5,1c0.4,0.4,0.8,1,1.1,1.6c0.3,0.6,0.4,1.4,0.4,2.2c0,0.8-0.1,1.6-0.3,2.2s-0.6,1.2-1,1.7
			c-0.4,0.5-0.9,0.8-1.5,1.1s-1.2,0.4-1.8,0.4c-0.8,0-1.5-0.1-2-0.4c-0.5-0.3-1-0.6-1.3-1l0,1.2l-2.5,0.1L220.1,567.3z M225.6,579.1
			c0.4,0,0.8-0.1,1.1-0.2c0.3-0.2,0.6-0.4,0.9-0.6c0.2-0.3,0.4-0.6,0.6-0.9c0.1-0.4,0.2-0.7,0.2-1.2c0-0.4-0.1-0.8-0.2-1.1
			c-0.2-0.3-0.4-0.7-0.6-0.9c-0.3-0.3-0.6-0.4-0.9-0.6c-0.4-0.1-0.7-0.2-1.1-0.2c-0.4,0-0.8,0.1-1.1,0.2c-0.3,0.2-0.6,0.4-0.9,0.6
			c-0.2,0.3-0.4,0.6-0.6,0.9c-0.1,0.4-0.2,0.7-0.2,1.2c0,0.4,0.1,0.8,0.2,1.2c0.2,0.3,0.4,0.6,0.6,0.9c0.3,0.3,0.6,0.4,0.9,0.6
			C224.8,579,225.2,579.1,225.6,579.1z"/>
	</g>
	<g class="st4">
		<path class="st3" d="M231.9,578.3l2.7-0.1l0.1,2.7l-2.7,0.1L231.9,578.3z"/>
	</g>
</g>
</svg>
