<?xml version="1.0" encoding="UTF-8"?>
<svg width="128px" height="59px" viewBox="0 0 128 59" version="1.1" xmlns="http://www.w3.org/2000/svg" xmlns:xlink="http://www.w3.org/1999/xlink">
    <!-- Generator: Sketch 63.1 (92452) - https://sketch.com -->
    <title>Drawboard-20x</title>
    <desc>Created with Sketch.</desc>
    <g id="Iteration-+-Mobile" stroke="none" stroke-width="1" fill="none" fill-rule="evenodd">
        <g id="Testimonial-comp-Copy" transform="translate(-193.000000, -793.000000)" fill="#FFFFFF" fill-rule="nonzero">
            <g id="wes-hicks-4-EeTnaC1S4-unsplash" transform="translate(131.000000, 673.000000)">
                <g id="Group-55">
                    <g id="Drawboard-20x" transform="translate(62.036000, 120.328000)">
                        <path d="M40.608,57.672 L40.608,47.736 L16.704,47.736 C26.928,41.544 38.664,30.888 39.384,18.864 C39.456,17.784 39.528,14.904 39.456,14.04 C38.952,6.624 34.128,-8.52651283e-14 20.376,-8.52651283e-14 C7.056,-8.52651283e-14 1.224,6.552 0.504,13.68 C0.36,15.12 0.288,18.72 0.288,20.16 L11.952,20.16 C11.952,19.152 11.952,16.416 12.024,15.768 C12.312,12.456 14.472,10.008 19.296,10.008 C24.192,10.008 26.64,12.384 26.64,16.128 C26.64,16.776 26.712,17.568 26.64,18.432 C26.352,30.312 14.04,38.808 -1.49213975e-13,48.096 L-1.49213975e-13,57.672 L40.608,57.672 Z M64.584,58.392 C75.6,58.392 82.08,53.64 84.24,44.064 C84.96,40.392 85.392,33.408 85.392,29.16 C85.392,23.616 85.32,18.288 84.456,14.112 C82.872,6.192 76.464,-8.52651283e-14 64.656,-8.52651283e-14 C52.416,-8.52651283e-14 46.368,5.688 44.712,14.184 C43.776,19.008 43.848,23.472 43.848,29.088 C43.848,33.408 44.064,40.032 44.928,43.92 C47.232,54.072 53.28,58.392 64.584,58.392 Z M64.656,48.672 C59.904,48.672 57.024,46.512 56.448,41.976 C56.16,39.528 55.8,33.768 55.8,29.16 C55.8,26.064 55.944,20.232 56.304,16.776 C56.736,12.528 59.544,9.936 64.656,9.936 C69.624,9.936 72.288,12.528 72.792,16.704 C73.152,20.52 73.296,25.056 73.296,29.016 C73.296,32.688 73.08,39.816 72.792,41.976 C72.144,46.224 69.48,48.672 64.656,48.672 Z M99.072,57.672 L107.136,45.432 L115.488,57.672 L127.512,57.672 L113.544,37.368 C113.544,37.296 127.008,18.072 127.008,18.072 L115.416,18.072 L107.928,29.376 L100.296,18.072 L88.272,18.072 L101.592,37.512 L87.552,57.672 L99.072,57.672 Z" id="20x"></path>
                    </g>
                </g>
            </g>
        </g>
    </g>
</svg>