<?xml version="1.0" encoding="UTF-8"?>
<svg width="125px" height="38px" viewBox="0 0 125 38" version="1.1" xmlns="http://www.w3.org/2000/svg" xmlns:xlink="http://www.w3.org/1999/xlink">
    <!-- Generator: Sketch 63.1 (92452) - https://sketch.com -->
    <title>Fishburners 2</title>
    <desc>Created with Sketch.</desc>
    <g id="Iteration-+-Mobile" stroke="none" stroke-width="1" fill="none" fill-rule="evenodd">
        <g id="Testimonial-comp-Copy" transform="translate(-666.000000, -1525.000000)" fill="#00000A" fill-rule="nonzero">
            <g id="Fishburners-2" transform="translate(666.180000, 1525.844000)">
                <path d="M1.764,27.252 C2.124,27.252 2.364,27.108 2.484,26.82 C2.868,25.932 3.264,24.6 3.672,22.824 C3.888,21.864 4.086,21.06 4.266,20.412 C4.446,19.764 4.596,19.248 4.716,18.864 C5.244,18.408 5.976,18.12 6.912,18 L6.912,18 L9.36,17.784 C9.84,19.008 10.236,20.532 10.548,22.356 C10.86,24.036 11.604,24.984 12.78,25.2 C12.948,25.2 13.224,25.032 13.608,24.696 C14.016,24.336 14.22,23.916 14.22,23.436 C14.22,23.172 14.148,22.836 14.004,22.428 C13.356,20.556 12.72,18.462 12.096,16.146 C11.472,13.83 10.86,11.256 10.26,8.424 C10.212,7.944 10.152,7.452 10.08,6.948 C10.008,6.444 9.936,5.952 9.864,5.472 C9.672,4.32 9.24,3.456 8.568,2.88 C8.304,2.664 8.004,2.556 7.668,2.556 C7.212,2.556 6.912,2.724 6.768,3.06 C6.456,3.828 6.126,4.746 5.778,5.814 C5.43,6.882 5.052,8.136 4.644,9.576 C3.708,12.864 3.024,15.096 2.592,16.272 C2.544,16.44 2.316,16.572 1.908,16.668 C1.5,16.74 1.248,16.848 1.152,16.992 C1.056,17.088 1.008,17.208 1.008,17.352 C1.008,17.496 1.176,17.7 1.512,17.964 C1.824,18.204 1.98,18.42 1.98,18.612 C1.908,19.404 1.512,20.676 0.792,22.428 C0.264,23.724 -1.84741111e-13,24.84 -1.84741111e-13,25.776 L-1.84741111e-13,25.776 L-1.84741111e-13,26.1 C0.048,26.58 0.468,26.94 1.26,27.18 C1.356,27.228 1.446,27.252 1.53,27.252 L1.53,27.252 L1.764,27.252 Z M5.724,15.66 C6.252,13.692 6.876,11.7 7.596,9.684 C7.716,10.164 7.83,10.644 7.938,11.124 C8.046,11.604 8.16,12.084 8.28,12.564 C8.4,13.092 8.496,13.602 8.568,14.094 C8.64,14.586 8.7,15.072 8.748,15.552 C7.116,15.552 6.108,15.588 5.724,15.66 Z M18.1653333,36.36 C18.7173333,36.36 19.2033333,36.3 19.6233333,36.18 C20.0433333,36.06 20.4093333,35.916 20.7213333,35.748 C21.0333333,35.58 21.3093333,35.4 21.5493333,35.208 C21.7893333,35.016 22.0173333,34.836 22.2333333,34.668 C23.6733333,32.988 24.6993333,31.14 25.3113333,29.124 C25.9233333,27.108 26.2293333,24.828 26.2293333,22.284 C26.2293333,21.9 26.2233333,21.486 26.2113333,21.042 C26.1993333,20.598 26.1813333,20.166 26.1573333,19.746 C26.1333333,19.326 26.1153333,18.936 26.1033333,18.576 C26.0913333,18.216 26.0853333,17.928 26.0853333,17.712 C26.0853333,17.064 26.1033333,16.242 26.1393333,15.246 C26.1753333,14.25 26.2413333,13.068 26.3373333,11.7 C26.2653333,11.292 26.0493333,10.98 25.6893333,10.764 C25.3293333,10.548 24.9453333,10.44 24.5373333,10.44 C24.1293333,10.44 23.8293333,10.632 23.6373333,11.016 C23.4453333,11.4 23.3073333,11.874 23.2233333,12.438 C23.1393333,13.002 23.0853333,13.602 23.0613333,14.238 C23.0373333,14.874 22.9893333,15.432 22.9173333,15.912 C22.7973333,16.32 22.6533333,16.83 22.4853333,17.442 C22.3173333,18.054 22.1133333,18.66 21.8733333,19.26 C21.6333333,19.86 21.3453333,20.406 21.0093333,20.898 C20.6733333,21.39 20.2653333,21.72 19.7853333,21.888 C19.5453333,21.72 19.3593333,21.438 19.2273333,21.042 C19.0953333,20.646 18.9933333,20.202 18.9213333,19.71 C18.8493333,19.218 18.8073333,18.732 18.7953333,18.252 C18.7833333,17.772 18.7773333,17.364 18.7773333,17.028 L18.7773333,17.028 L18.7778333,16.2515 C18.7795,15.9631667 18.7853333,15.604 18.7953333,15.174 L18.8018333,14.9235 C18.8135,14.5185 18.8293333,14.176 18.8493333,13.896 C18.7773333,13.584 18.7413333,13.236 18.7413333,12.852 L18.7345833,12.569625 C18.7210833,12.292875 18.6873333,12.033 18.6333333,11.79 C18.5613333,11.466 18.4053333,11.196 18.1653333,10.98 C17.9253333,10.764 17.5293333,10.656 16.9773333,10.656 C16.7133333,10.656 16.5033333,10.77 16.3473333,10.998 C16.1913333,11.226 16.0653333,11.508 15.9693333,11.844 C15.8733333,12.18 15.8133333,12.534 15.7893333,12.906 C15.7653333,13.278 15.7533333,13.608 15.7533333,13.896 C15.7533333,14.304 15.7653333,14.694 15.7893333,15.066 L15.8093333,15.444 C15.82,15.7 15.8253333,15.964 15.8253333,16.236 C15.8253333,16.38 15.8193333,16.524 15.8073333,16.668 C15.7953333,16.812 15.7893333,16.956 15.7893333,17.1 C15.7893333,17.724 15.8313333,18.48 15.9153333,19.368 C15.9993333,20.256 16.1793333,21.108 16.4553333,21.924 C16.7313333,22.74 17.1333333,23.436 17.6613333,24.012 C18.1893333,24.588 18.8973333,24.876 19.7853333,24.876 C20.0733333,24.876 20.3853333,24.798 20.7213333,24.642 C21.0573333,24.486 21.3873333,24.276 21.7113333,24.012 C22.0353333,23.748 22.3293333,23.46 22.5933333,23.148 C22.8573333,22.836 23.0613333,22.512 23.2053333,22.176 C23.3013333,22.176 23.3613333,22.188 23.3853333,22.212 C23.3613333,22.38 23.3493333,22.542 23.3493333,22.698 L23.3493333,22.698 L23.3493333,23.22 C23.3493333,24.948 23.1333333,26.562 22.7013333,28.062 C22.2693333,29.562 21.5133333,31.032 20.4333333,32.472 C20.1453333,32.808 19.7793333,33.096 19.3353333,33.336 C18.8913333,33.576 18.4533333,33.792 18.0213333,33.984 C17.5893333,34.176 17.2173333,34.35 16.9053333,34.506 C16.5933333,34.662 16.4373333,34.812 16.4373333,34.956 C16.4373333,35.172 16.4973333,35.37 16.6173333,35.55 C16.7373333,35.73 16.8873333,35.88 17.0673333,36 C17.2473333,36.12 17.4393333,36.21 17.6433333,36.27 C17.8473333,36.33 18.0213333,36.36 18.1653333,36.36 Z M32.5506667,25.164 C33.1986667,25.164 33.8046667,24.93 34.3686667,24.462 C34.9326667,23.994 35.4306667,23.442 35.8626667,22.806 C36.2946667,22.17 36.6726667,21.516 36.9966667,20.844 C37.3206667,20.172 37.5786667,19.632 37.7706667,19.224 L37.7706667,19.224 L37.9146667,18.936 C37.9866667,19.512 38.0706667,20.07 38.1666667,20.61 C38.2626667,21.15 38.4126667,21.642 38.6166667,22.086 C38.8206667,22.53 39.0846667,22.908 39.4086667,23.22 C39.7326667,23.532 40.1586667,23.748 40.6866667,23.868 C40.8546667,23.82 41.0226667,23.784 41.1906667,23.76 C41.3586667,23.736 41.5146667,23.694 41.6586667,23.634 C41.8026667,23.574 41.9286667,23.478 42.0366667,23.346 C42.1446667,23.214 42.2226667,23.028 42.2706667,22.788 C42.1746667,22.572 42.0666667,22.386 41.9466667,22.23 C41.8266667,22.074 41.6946667,21.912 41.5506667,21.744 C41.1906667,21.24 40.9326667,20.574 40.7766667,19.746 C40.6206667,18.918 40.5426667,17.928 40.5426667,16.776 C40.5426667,16.2 40.5846667,15.51 40.6686667,14.706 C40.7526667,13.902 40.7946667,12.792 40.7946667,11.376 C40.6746667,11.184 40.4826667,10.992 40.2186667,10.8 C39.9546667,10.608 39.7266667,10.512 39.5346667,10.512 C39.5106667,10.512 39.4866667,10.506 39.4626667,10.494 C39.4386667,10.482 39.4146667,10.476 39.3906667,10.476 C38.7906667,10.476 38.3646667,10.56 38.1126667,10.728 C37.8606667,10.896 37.6986667,11.106 37.6266667,11.358 C37.5546667,11.61 37.5246667,11.892 37.5366667,12.204 C37.5486667,12.516 37.5066667,12.828 37.4106667,13.14 C37.1706667,13.884 36.8586667,14.736 36.4746667,15.696 C36.0906667,16.656 35.6706667,17.568 35.2146667,18.432 C34.7586667,19.296 34.2966667,20.034 33.8286667,20.646 C33.3606667,21.258 32.9346667,21.588 32.5506667,21.636 C32.5026667,21.132 32.4426667,20.394 32.3706667,19.422 C32.2986667,18.45 32.2626667,17.388 32.2626667,16.236 C32.2626667,15.9 32.2926667,15.54 32.3526667,15.156 C32.4126667,14.772 32.4426667,14.232 32.4426667,13.536 C32.4426667,13.128 32.4786667,12.774 32.5506667,12.474 C32.6226667,12.174 32.6586667,11.832 32.6586667,11.448 C32.6586667,10.992 32.4666667,10.644 32.0826667,10.404 C31.6986667,10.164 31.3146667,10.02 30.9306667,9.972 C30.8106667,9.996 30.7086667,10.02 30.6246667,10.044 C30.5406667,10.068 30.4626667,10.092 30.3906667,10.116 C30.2466667,10.164 30.1206667,10.218 30.0126667,10.278 C29.9046667,10.338 29.8386667,10.392 29.8146667,10.44 C29.6226667,11.016 29.5026667,11.604 29.4546667,12.204 C29.4066667,12.804 29.3826667,13.428 29.3826667,14.076 L29.3826667,14.076 L29.3826667,16.344 C29.3826667,16.68 29.3586667,17.016 29.3106667,17.352 C29.3106667,18.792 29.3526667,20.004 29.4366667,20.988 C29.5206667,21.972 29.6766667,22.776 29.9046667,23.4 C30.1326667,24.024 30.4566667,24.474 30.8766667,24.75 C31.2966667,25.026 31.8546667,25.164 32.5506667,25.164 Z M46.072,27.396 C46.648,27.396 47.188,27.276 47.692,27.036 C48.196,26.796 48.628,26.472 48.988,26.064 C49.348,25.656 49.63,25.188 49.834,24.66 C50.038,24.132 50.14,23.568 50.14,22.968 C50.14,21.816 49.936,20.778 49.528,19.854 C49.12,18.93 48.676,18.012 48.196,17.1 L48.196,17.1 L48.052,16.812 C47.956,16.668 47.83,16.446 47.674,16.146 C47.518,15.846 47.362,15.522 47.206,15.174 C47.05,14.826 46.912,14.496 46.792,14.184 C46.672,13.872 46.612,13.632 46.612,13.464 L46.612,13.464 L46.612,12.6 C46.612,12.12 46.678,11.646 46.81,11.178 C46.942,10.71 47.152,10.284 47.44,9.9 C47.56,9.78 47.686,9.666 47.818,9.558 C47.95,9.45 48.016,9.3 48.016,9.108 C47.944,8.916 47.824,8.694 47.656,8.442 C47.488,8.19 47.284,8.064 47.044,8.064 C46.972,8.064 46.906,8.058 46.846,8.046 C46.786,8.034 46.72,8.028 46.648,8.028 C46.024,8.028 45.514,8.196 45.118,8.532 C44.722,8.868 44.404,9.3 44.164,9.828 C43.924,10.356 43.756,10.926 43.66,11.538 C43.564,12.15 43.516,12.744 43.516,13.32 C43.516,14.016 43.66,14.706 43.948,15.39 C44.236,16.074 44.578,16.8 44.974,17.568 C45.37,18.336 45.772,19.158 46.18,20.034 C46.588,20.91 46.924,21.888 47.188,22.968 C47.212,23.016 47.224,23.136 47.224,23.328 C47.224,23.88 47.068,24.336 46.756,24.696 C46.444,25.056 46.084,25.236 45.676,25.236 C45.388,25.236 45.1,25.092 44.812,24.804 C44.524,24.876 44.338,24.954 44.254,25.038 C44.17,25.122 44.08,25.26 43.984,25.452 C44.032,25.956 44.266,26.406 44.686,26.802 C45.106,27.198 45.568,27.396 46.072,27.396 Z M62.5093333,24.696 C62.7013333,24.696 62.9173333,24.6 63.1573333,24.408 C63.3973333,24.216 63.5533333,24 63.6253333,23.76 C63.5773333,23.064 63.4333333,22.302 63.1933333,21.474 C62.9533333,20.646 62.7853333,19.836 62.6893333,19.044 C62.6413333,18.636 62.5993333,18.186 62.5633333,17.694 C62.5273333,17.202 62.4613333,16.764 62.3653333,16.38 C62.3653333,15.996 62.3173333,15.504 62.2213333,14.904 C62.1253333,14.304 61.9573333,13.716 61.7173333,13.14 C61.4773333,12.564 61.1473333,12.066 60.7273333,11.646 C60.3073333,11.226 59.7733333,10.992 59.1253333,10.944 C58.7173333,10.944 58.3033333,11.082 57.8833333,11.358 C57.4633333,11.634 57.0673333,12.006 56.6953333,12.474 C56.3233333,12.942 55.9693333,13.476 55.6333333,14.076 C55.2973333,14.676 54.9973333,15.3 54.7333333,15.948 C54.7333333,15.108 54.7393333,14.286 54.7513333,13.482 C54.7633333,12.678 54.7753333,11.856 54.7873333,11.016 C54.7993333,10.176 54.8233333,9.306 54.8593333,8.406 C54.8953333,7.506 54.9373333,6.528 54.9853333,5.472 C55.0093333,4.944 55.0693333,4.446 55.1653333,3.978 C55.2613333,3.51 55.3093333,2.976 55.3093333,2.376 C55.3093333,1.896 55.1893333,1.47 54.9493333,1.098 C54.7093333,0.726 54.3373333,0.54 53.8333333,0.54 C53.5453333,0.54 53.1973333,0.6 52.7893333,0.72 C52.6213333,1.296 52.4833333,1.986 52.3753333,2.79 C52.2673333,3.594 52.1893333,4.44 52.1413333,5.328 C52.0933333,6.216 52.0573333,7.134 52.0333333,8.082 C52.0093333,9.03 51.9973333,9.936 51.9973333,10.8 C51.9973333,12.24 52.0273333,13.692 52.0873333,15.156 C52.1473333,16.62 52.1773333,18.036 52.1773333,19.404 L52.1773333,19.404 L52.1773333,20.052 C52.1773333,20.58 52.1893333,21.102 52.2133333,21.618 C52.2373333,22.134 52.3333333,22.602 52.5013333,23.022 C52.6693333,23.442 52.9273333,23.784 53.2753333,24.048 C53.6233333,24.312 54.1093333,24.444 54.7333333,24.444 C54.9013333,24.444 55.0453333,24.372 55.1653333,24.228 C55.2853333,24.084 55.3813333,23.898 55.4533333,23.67 C55.5253333,23.442 55.5793333,23.196 55.6153333,22.932 C55.6513333,22.668 55.6813333,22.404 55.7053333,22.14 L55.7053333,22.14 L55.7053333,21.996 C55.7053333,21.948 55.7113333,21.918 55.7233333,21.906 L55.7333333,21.888 C55.7386667,21.872 55.7413333,21.848 55.7413333,21.816 L55.7413333,21.816 L55.7413333,21.636 C55.7653333,21.492 55.8193333,21.216 55.9033333,20.808 C55.9873333,20.4 56.0953333,19.932 56.2273333,19.404 C56.3593333,18.876 56.5213333,18.324 56.7133333,17.748 C56.9053333,17.172 57.1153333,16.626 57.3433333,16.11 C57.5713333,15.594 57.8173333,15.156 58.0813333,14.796 C58.3453333,14.436 58.6213333,14.208 58.9093333,14.112 C59.0053333,14.112 59.1013333,14.25 59.1973333,14.526 C59.2933333,14.802 59.3833333,15.138 59.4673333,15.534 C59.5513333,15.93 59.6233333,16.344 59.6833333,16.776 C59.7433333,17.208 59.7733333,17.568 59.7733333,17.856 C59.7733333,18.216 59.8033333,18.78 59.8633333,19.548 C59.9233333,20.316 60.0493333,21.078 60.2413333,21.834 C60.4333333,22.59 60.7093333,23.256 61.0693333,23.832 C61.4293333,24.408 61.9093333,24.696 62.5093333,24.696 Z M77.348,27.756 C78.116,26.916 78.5,25.692 78.5,24.084 C78.5,23.652 78.464,22.98 78.392,22.068 C78.32,21.132 78.284,20.436 78.284,19.98 C78.284,19.26 78.332,18.696 78.428,18.288 C79.124,18.168 79.82,17.832 80.516,17.28 L80.516,17.28 L82.172,15.624 C82.82,14.976 83.6,13.668 84.512,11.7 C84.896,10.908 85.088,10.08 85.088,9.216 C85.088,8.304 84.836,7.488 84.332,6.768 C82.748,4.536 80.396,3.168 77.276,2.664 C76.964,2.616 76.676,2.58 76.412,2.556 C76.148,2.532 75.92,2.52 75.728,2.52 C75.512,2.52 75.284,2.544 75.044,2.592 C74.756,2.592 74.552,2.976 74.432,3.744 C74.528,3.792 74.672,3.972 74.864,4.284 C75.008,4.548 75.152,4.68 75.296,4.68 C75.32,4.68 75.338,4.674 75.35,4.662 C75.362,4.65 75.38,4.644 75.404,4.644 C75.62,6.204 75.728,7.92 75.728,9.792 C75.728,11.088 75.656,12.996 75.512,15.516 C75.368,18.036 75.296,19.932 75.296,21.204 C75.296,22.164 75.326,23.082 75.386,23.958 C75.446,24.834 75.536,25.656 75.656,26.424 C75.68,26.712 75.908,26.976 76.34,27.216 L76.34,27.216 L77.096,27.612 L77.348,27.756 Z M78.608,14.904 C78.632,14.664 78.644,14.412 78.644,14.148 L78.644,14.148 L78.644,13.248 C78.644,12.336 78.62,11.25 78.572,9.99 C78.524,8.73 78.452,7.272 78.356,5.616 C78.788,5.808 79.166,5.964 79.49,6.084 C79.814,6.204 80.084,6.312 80.3,6.408 C80.564,6.504 80.78,6.588 80.948,6.66 C81.764,7.116 82.172,7.776 82.172,8.64 L82.172,8.64 L82.172,8.928 C81.932,10.896 80.744,12.888 78.608,14.904 Z M96.1973333,25.668 C96.3413333,25.668 96.4973333,25.65 96.6653333,25.614 C96.8333333,25.578 96.9953333,25.524 97.1513333,25.452 C97.3073333,25.38 97.4393333,25.284 97.5473333,25.164 C97.6553333,25.044 97.7093333,24.888 97.7093333,24.696 C97.7093333,24.504 97.6733333,24.306 97.6013333,24.102 C97.5293333,23.898 97.4573333,23.7 97.3853333,23.508 L97.3853333,23.508 L97.1333333,22.788 L96.9173333,21.456 C96.6533333,20.376 96.4733333,19.35 96.3773333,18.378 C96.2813333,17.406 96.1493333,16.32 95.9813333,15.12 C95.9093333,14.496 95.8013333,13.896 95.6573333,13.32 C95.5133333,12.744 95.2373333,12.288 94.8293333,11.952 C94.6373333,11.808 94.4093333,11.658 94.1453333,11.502 C93.8813333,11.346 93.6053333,11.214 93.3173333,11.106 C93.0293333,10.998 92.7473333,10.908 92.4713333,10.836 C92.1953333,10.764 91.9493333,10.728 91.7333333,10.728 C90.7253333,10.728 89.7713333,11.118 88.8713333,11.898 C87.9713333,12.678 87.1793333,13.62 86.4953333,14.724 C85.8113333,15.828 85.2713333,16.962 84.8753333,18.126 C84.4793333,19.29 84.2813333,20.268 84.2813333,21.06 C84.2813333,21.42 84.3173333,21.81 84.3893333,22.23 C84.4613333,22.65 84.5933333,23.028 84.7853333,23.364 C84.9773333,23.7 85.2593333,23.982 85.6313333,24.21 C86.0033333,24.438 86.4773333,24.552 87.0533333,24.552 C87.7733333,24.552 88.4933333,24.3 89.2133333,23.796 C89.9333333,23.292 90.5933333,22.686 91.1933333,21.978 C91.7933333,21.27 92.2913333,20.532 92.6873333,19.764 C93.0833333,18.996 93.3173333,18.36 93.3893333,17.856 C93.5093333,18.576 93.6353333,19.386 93.7673333,20.286 C93.8993333,21.186 94.0613333,22.038 94.2533333,22.842 C94.4453333,23.646 94.6973333,24.318 95.0093333,24.858 C95.3213333,25.398 95.7173333,25.668 96.1973333,25.668 Z M87.2693333,21.744 C87.2693333,21.72 87.2633333,21.702 87.2513333,21.69 C87.2393333,21.678 87.2333333,21.66 87.2333333,21.636 L87.2333333,21.636 L87.2333333,21.456 C87.2333333,20.808 87.3473333,20.136 87.5753333,19.44 C87.8033333,18.744 88.0853333,18.096 88.4213333,17.496 C88.4933333,17.376 88.6253333,17.082 88.8173333,16.614 C89.0093333,16.146 89.2553333,15.66 89.5553333,15.156 C89.8553333,14.652 90.2093333,14.196 90.6173333,13.788 C91.0253333,13.38 91.4933333,13.176 92.0213333,13.176 C92.1413333,13.176 92.2493333,13.2 92.3453333,13.248 C92.4413333,13.296 92.5493333,13.344 92.6693333,13.392 C92.6693333,13.56 92.6273333,13.764 92.5433333,14.004 C92.4593333,14.244 92.3513333,14.502 92.2193333,14.778 C92.0873333,15.054 91.9553333,15.324 91.8233333,15.588 C91.6913333,15.852 91.5773333,16.092 91.4813333,16.308 C91.3133333,16.788 91.0553333,17.334 90.7073333,17.946 C90.3593333,18.558 89.9813333,19.14 89.5733333,19.692 C89.1653333,20.244 88.7573333,20.718 88.3493333,21.114 C87.9413333,21.51 87.5813333,21.72 87.2693333,21.744 Z M103.994667,25.092 C104.042667,25.092 104.186667,25.068 104.426667,25.02 C104.690667,24.948 104.930667,24.816 105.146667,24.624 C105.362667,24.432 105.470667,24.132 105.470667,23.724 C105.470667,23.436 105.422667,23.124 105.326667,22.788 C105.230667,22.452 105.146667,22.116 105.074667,21.78 C104.882667,20.7 104.708667,19.578 104.552667,18.414 C104.396667,17.25 104.318667,16.128 104.318667,15.048 C104.318667,14.88 104.324667,14.718 104.336667,14.562 C104.348667,14.406 104.354667,14.256 104.354667,14.112 C104.354667,13.968 104.348667,13.824 104.336667,13.68 C104.324667,13.536 104.318667,13.38 104.318667,13.212 C104.318667,12.924 104.414667,12.684 104.606667,12.492 C104.798667,12.3 105.026667,12.144 105.290667,12.024 C105.554667,11.904 105.836667,11.802 106.136667,11.718 C106.436667,11.634 106.694667,11.544 106.910667,11.448 C107.150667,11.376 107.396667,11.31 107.648667,11.25 C107.900667,11.19 108.134667,11.112 108.350667,11.016 C108.566667,10.92 108.746667,10.782 108.890667,10.602 C109.034667,10.422 109.106667,10.176 109.106667,9.864 C109.106667,9.6 109.046667,9.336 108.926667,9.072 C108.806667,8.808 108.578667,8.676 108.242667,8.676 C107.618667,8.676 107.072667,8.778 106.604667,8.982 C106.136667,9.186 105.590667,9.288 104.966667,9.288 C104.774667,9.288 104.666667,9.228 104.642667,9.108 C104.618667,8.988 104.606667,8.856 104.606667,8.712 C104.606667,8.4 104.612667,8.1 104.624667,7.812 C104.636667,7.524 104.642667,7.248 104.642667,6.984 C104.642667,6.6 104.648667,6.222 104.660667,5.85 C104.672667,5.478 104.678667,5.1 104.678667,4.716 C104.678667,4.356 104.666667,3.99 104.642667,3.618 C104.618667,3.246 104.606667,2.808 104.606667,2.304 C104.606667,2.04 104.582667,1.77 104.534667,1.494 C104.486667,1.218 104.396667,0.972 104.264667,0.756 C104.132667,0.54 103.940667,0.36 103.688667,0.216 C103.436667,0.072 103.106667,2.91322522e-13 102.698667,2.91322522e-13 C102.506667,2.91322522e-13 102.350667,0.03 102.230667,0.09 C102.110667,0.15 101.954667,0.228 101.762667,0.324 C101.690667,0.66 101.654667,0.972 101.654667,1.26 L101.654667,1.26 L101.654667,4.968 C101.654667,5.328 101.660667,5.694 101.672667,6.066 C101.684667,6.438 101.690667,6.804 101.690667,7.164 C101.690667,7.716 101.696667,8.142 101.708667,8.442 C101.720667,8.742 101.726667,9.108 101.726667,9.54 C101.726667,9.756 101.696667,10.014 101.636667,10.314 C101.576667,10.614 101.354667,10.764 100.970667,10.764 C100.658667,10.932 100.370667,11.052 100.106667,11.124 C99.8426667,11.196 99.5846667,11.256 99.3326667,11.304 C99.0806667,11.352 98.8226667,11.4 98.5586667,11.448 C98.2946667,11.496 98.0066667,11.58 97.6946667,11.7 C97.5746667,12.108 97.5146667,12.444 97.5146667,12.708 C97.6826667,12.9 97.9346667,13.152 98.2706667,13.464 C98.6066667,13.776 99.0146667,13.932 99.4946667,13.932 C99.8786667,13.932 100.214667,13.86 100.502667,13.716 C100.790667,13.572 101.150667,13.464 101.582667,13.392 C101.630667,13.488 101.660667,13.578 101.672667,13.662 C101.684667,13.746 101.690667,13.836 101.690667,13.932 C101.714667,15.108 101.738667,16.278 101.762667,17.442 C101.786667,18.606 101.834667,19.776 101.906667,20.952 C101.930667,21.432 101.984667,21.96 102.068667,22.536 C102.152667,23.112 102.254667,23.568 102.374667,23.904 C102.566667,24.24 102.800667,24.522 103.076667,24.75 C103.352667,24.978 103.658667,25.092 103.994667,25.092 Z M113.844,24.768 C114.708,24.768 115.41,24.69 115.95,24.534 C116.49,24.378 117.072,24.036 117.696,23.508 C117.888,23.34 118.062,23.142 118.218,22.914 C118.374,22.686 118.464,22.404 118.488,22.068 C118.488,21.9 118.476,21.774 118.452,21.69 C118.428,21.606 118.404,21.492 118.38,21.348 C118.26,21.18 118.128,21.066 117.984,21.006 C117.84,20.946 117.708,20.892 117.588,20.844 C116.988,21.252 116.442,21.624 115.95,21.96 C115.458,22.296 114.84,22.464 114.096,22.464 C114,22.464 113.808,22.428 113.52,22.356 C113.232,22.284 112.932,22.122 112.62,21.87 C112.308,21.618 112.02,21.24 111.756,20.736 C111.492,20.232 111.348,19.536 111.324,18.648 L111.324,18.648 L111.324,18.45 C111.324,18.366 111.336,18.264 111.36,18.144 C111.672,18.24 111.948,18.312 112.188,18.36 C112.428,18.408 112.704,18.42 113.016,18.396 C113.736,18.372 114.378,18.234 114.942,17.982 C115.506,17.73 115.98,17.4 116.364,16.992 C116.748,16.584 117.042,16.122 117.246,15.606 C117.45,15.09 117.552,14.556 117.552,14.004 C117.552,13.572 117.474,13.158 117.318,12.762 C117.162,12.366 116.928,12.012 116.616,11.7 C116.304,11.388 115.914,11.136 115.446,10.944 C114.978,10.752 114.432,10.656 113.808,10.656 C112.92,10.656 112.14,10.878 111.468,11.322 C110.796,11.766 110.232,12.348 109.776,13.068 C109.32,13.788 108.978,14.598 108.75,15.498 C108.522,16.398 108.408,17.292 108.408,18.18 C108.432,18.756 108.474,19.302 108.534,19.818 C108.594,20.334 108.714,20.832 108.894,21.312 C109.074,21.792 109.326,22.248 109.65,22.68 C109.974,23.112 110.424,23.544 111,23.976 C111.384,24.168 111.858,24.348 112.422,24.516 C112.986,24.684 113.46,24.768 113.844,24.768 Z M112.476,16.308 C112.356,16.308 112.194,16.302 111.99,16.29 C111.786,16.278 111.636,16.26 111.54,16.236 C111.588,15.708 111.66,15.282 111.756,14.958 C111.852,14.634 111.954,14.364 112.062,14.148 C112.17,13.932 112.284,13.764 112.404,13.644 C112.524,13.524 112.632,13.404 112.728,13.284 C112.848,13.092 113.022,12.972 113.25,12.924 C113.478,12.876 113.712,12.852 113.952,12.852 C114.288,12.852 114.552,12.996 114.744,13.284 C114.936,13.572 115.032,13.884 115.032,14.22 C115.032,14.796 114.81,15.288 114.366,15.696 C113.922,16.104 113.292,16.308 112.476,16.308 Z M122.937333,25.164 C123.273333,25.164 123.603333,25.074 123.927333,24.894 C124.251333,24.714 124.413333,24.432 124.413333,24.048 C124.413333,24 124.401333,23.952 124.377333,23.904 L124.357333,23.856 C124.346667,23.824 124.341333,23.792 124.341333,23.76 C124.125333,22.896 123.915333,21.888 123.711333,20.736 C123.507333,19.584 123.405333,18.54 123.405333,17.604 C123.405333,17.268 123.399333,16.914 123.387333,16.542 C123.375333,16.17 123.369333,15.78 123.369333,15.372 C123.369333,14.796 123.357333,14.226 123.333333,13.662 C123.309333,13.098 123.297333,12.504 123.297333,11.88 C123.297333,11.16 123.303333,10.434 123.315333,9.702 C123.327333,8.97 123.333333,8.148 123.333333,7.236 C123.333333,6.612 123.393333,5.982 123.513333,5.346 C123.633333,4.71 123.693333,4.08 123.693333,3.456 C123.693333,3.144 123.609333,2.904 123.441333,2.736 C123.273333,2.568 123.069333,2.436 122.829333,2.34 C122.589333,2.244 122.331333,2.184 122.055333,2.16 C121.779333,2.136 121.545333,2.124 121.353333,2.124 C121.113333,2.316 120.921333,2.508 120.777333,2.7 C120.633333,2.892 120.561333,3.144 120.561333,3.456 C120.561333,4.824 120.495333,6.138 120.363333,7.398 C120.231333,8.658 120.165333,9.948 120.165333,11.268 C120.165333,12.276 120.171333,13.242 120.183333,14.166 C120.195333,15.09 120.201333,16.14 120.201333,17.316 C120.201333,17.748 120.231333,18.396 120.291333,19.26 C120.351333,20.124 120.477333,20.994 120.669333,21.87 C120.861333,22.746 121.137333,23.514 121.497333,24.174 C121.857333,24.834 122.337333,25.164 122.937333,25.164 Z" id="Fishburners"></path>
            </g>
        </g>
    </g>
</svg>