<?xml version="1.0" encoding="UTF-8"?>
<svg width="212px" height="59px" viewBox="0 0 212 59" version="1.1" xmlns="http://www.w3.org/2000/svg" xmlns:xlink="http://www.w3.org/1999/xlink">
    <!-- Generator: Sketch 63.1 (92452) - https://sketch.com -->
    <title>Fishburners-105</title>
    <desc>Created with Sketch.</desc>
    <g id="Iteration-+-Mobile" stroke="none" stroke-width="1" fill="none" fill-rule="evenodd">
        <g id="Testimonial-comp-Copy" transform="translate(-192.000000, -1327.000000)" fill="#FFFFFF" fill-rule="nonzero">
            <g id="Group-55" transform="translate(131.000000, 1207.000000)">
                <g id="Fishburners-105" transform="translate(61.944000, 120.328000)">
                    <path d="M23.328,57.672 L23.328,0.432 L14.256,0.432 C13.32,2.52 10.08,4.896 1.70530257e-13,6.12 L1.70530257e-13,15.048 L11.808,13.608 L11.808,57.672 L23.328,57.672 Z M51.624,58.392 C62.64,58.392 69.12,53.64 71.28,44.064 C72,40.392 72.432,33.408 72.432,29.16 C72.432,23.616 72.36,18.288 71.496,14.112 C69.912,6.192 63.504,-8.52651283e-14 51.696,-8.52651283e-14 C39.456,-8.52651283e-14 33.408,5.688 31.752,14.184 C30.816,19.008 30.888,23.472 30.888,29.088 C30.888,33.408 31.104,40.032 31.968,43.92 C34.272,54.072 40.32,58.392 51.624,58.392 Z M51.696,48.672 C46.944,48.672 44.064,46.512 43.488,41.976 C43.2,39.528 42.84,33.768 42.84,29.16 C42.84,26.064 42.984,20.232 43.344,16.776 C43.776,12.528 46.584,9.936 51.696,9.936 C56.664,9.936 59.328,12.528 59.832,16.704 C60.192,20.52 60.336,25.056 60.336,29.016 C60.336,32.688 60.12,39.816 59.832,41.976 C59.184,46.224 56.52,48.672 51.696,48.672 Z M96.552,58.392 C108.504,58.392 115.56,52.776 116.424,45 C116.856,41.4 116.856,33.984 116.424,30.96 C115.344,23.04 110.232,18.504 100.728,18.504 C95.544,18.504 89.856,20.016 87.84,24.048 L87.84,10.944 L113.904,10.944 L113.904,0.72 L77.328,0.72 L77.328,33.12 L88.56,33.12 C89.496,29.592 92.808,28.368 96.192,28.368 C100.584,28.368 103.104,29.88 103.68,33.912 C104.04,36.144 104.04,40.968 103.752,43.272 C103.248,46.872 100.584,48.6 95.76,48.6 C91.584,48.6 88.776,47.232 87.912,43.632 C87.696,42.336 87.696,40.608 87.696,39.744 L76.176,39.744 L76.1767865,40.5820446 C76.1811124,42.1826272 76.2092308,44.0806154 76.392,45.36 C77.76,54.216 83.592,58.392 96.552,58.392 Z M145.368,57.672 L145.368,41.64 C145.368,39 147.384,37.224 150.264,37.224 C153.288,37.224 154.536,38.808 154.536,41.256 L154.536988,48.7324538 C154.541094,57.0826881 154.562277,57.6483483 154.671532,57.6711913 L162.12,57.672 C161.928,57.624 161.88,56.952 161.88,39.672 C161.88,33.72 159.096,30.744 153.432,30.744 C149.256,30.744 146.328,32.184 145.272,34.68 L145.272,19.416 L138.072,19.416 L138.072,57.672 L145.368,57.672 Z M173.784,57.672 L173.784,44.088 C173.784,39.576 176.232,37.464 179.736,37.464 C181.992,37.464 183.624,37.704 185.112,38.136 L185.112,31.272 C184.2,30.984 182.808,30.696 180.84,30.696 C177.336,30.696 174.12,32.712 173.592,35.208 L173.592,31.272 L166.392,31.272 L166.392,57.672 L173.784,57.672 Z M198.84,58.152 C206.424,58.152 210.408,55.464 210.408,50.088 C210.408,45.432 207.768,43.08 202.728,42.072 C201.768,41.832 199.032,41.304 197.4,40.92 C194.76,40.392 193.608,39.816 193.608,38.52 C193.608,37.224 194.616,36.504 197.976,36.504 C200.904,36.504 201.96,37.176 202.392,37.992 C202.536,38.28 202.632,39.24 202.632,39.528 L209.544,39.528 C209.544,39 209.496,37.272 209.112,36.072 C207.816,32.328 204.024,30.648 197.784,30.648 C190.44,30.648 186.6,33.816 186.6,38.28 C186.6,42.984 189,45.48 193.896,46.488 C195.24,46.776 197.736,47.256 198.84,47.496 C202.104,48.168 203.352,48.648 203.352,50.184 C203.352,51.768 202.056,52.488 198.648,52.488 C195.48,52.488 193.848,52.056 193.512,50.952 C193.32,50.328 193.32,49.8 193.32,49.416 L186.216,49.416 C186.216,50.136 186.264,51.24 186.456,52.248 C187.368,56.376 191.352,58.152 198.84,58.152 Z" id="105hrs"></path>
                </g>
            </g>
        </g>
    </g>
</svg>