<?xml version="1.0" encoding="UTF-8"?>
<svg width="128px" height="26px" viewBox="0 0 128 26" version="1.1" xmlns="http://www.w3.org/2000/svg" xmlns:xlink="http://www.w3.org/1999/xlink">
    <!-- Generator: Sketch 63.1 (92452) - https://sketch.com -->
    <title>Freshworks 2</title>
    <desc>Created with Sketch.</desc>
    <g id="Iteration-+-Mobile" stroke="none" stroke-width="1" fill="none" fill-rule="evenodd">
        <g id="Testimonial-comp-Copy" transform="translate(-667.000000, -460.000000)" fill="#00000A" fill-rule="nonzero">
            <g id="Freshworks-2" transform="translate(667.944000, 460.688000)">
                <path d="M2.412,23.4 C2.724,23.4 2.928,23.352 3.024,23.256 C3.528,23.04 3.78,22.644 3.78,22.068 C3.78,21.9 3.756,21.624 3.708,21.24 C3.66,20.856 3.636,20.568 3.636,20.376 C3.612,19.536 3.588,18.804 3.564,18.18 C3.54,17.556 3.504,17.016 3.456,16.56 C5.184,17.568 6.66,18.45 7.884,19.206 C9.108,19.962 10.128,20.592 10.944,21.096 C11.04,21.192 11.172,21.24 11.34,21.24 C11.46,21.24 11.634,21.18 11.862,21.06 C12.09,20.94 12.276,20.88 12.42,20.88 C12.54,20.88 12.624,20.892 12.672,20.916 C12.864,20.268 12.96,19.908 12.96,19.836 C12.96,19.62 12.888,19.452 12.744,19.332 C12.168,18.852 11.526,18.354 10.818,17.838 C10.11,17.322 9.336,16.8 8.496,16.272 C7.728,15.816 6.972,15.372 6.228,14.94 C5.484,14.508 4.74,14.064 3.996,13.608 C4.644,12.6 6.12,10.908 8.424,8.532 C10.392,6.492 11.712,4.728 12.384,3.24 C12.336,2.592 11.844,2.268 10.908,2.268 C10.644,2.268 10.332,2.328 9.972,2.448 C9.444,3.072 8.916,3.69 8.388,4.302 C7.86,4.914 7.32,5.532 6.768,6.156 C6.144,6.9 5.544,7.56 4.968,8.136 C4.392,8.712 3.864,9.228 3.384,9.684 L3.384,9.684 L3.384,9.108 C3.384,7.26 3.24,4.86 2.952,1.908 C2.904,1.644 2.73,1.446 2.43,1.314 C2.13,1.182 1.824,1.068 1.512,0.972 C1.488,0.972 1.47,0.966 1.458,0.954 C1.446,0.942 1.428,0.936 1.404,0.936 L1.404,0.936 L0.504,1.08 C0.168,1.2 -1.49213975e-13,1.368 -1.49213975e-13,1.584 C0.168,2.592 0.294,3.636 0.378,4.716 C0.462,5.796 0.504,6.984 0.504,8.28 C0.504,8.688 0.498,9.21 0.486,9.846 C0.474,10.482 0.456,11.22 0.432,12.06 C0.408,12.9 0.39,13.632 0.378,14.256 C0.366,14.88 0.36,15.396 0.36,15.804 C0.36,18.132 0.504,20.16 0.792,21.888 C0.912,22.512 1.272,22.932 1.872,23.148 C1.944,23.316 2.124,23.4 2.412,23.4 Z M16.8693333,2.772 C17.2773333,2.772 17.5953333,2.694 17.8233333,2.538 C18.0513333,2.382 18.1653333,2.076 18.1653333,1.62 C18.1653333,1.404 18.0993333,1.2 17.9673333,1.008 C17.8353333,0.816 17.6613333,0.642 17.4453333,0.486 C17.2293333,0.33 16.9953333,0.21 16.7433333,0.126 C16.4913333,0.042 16.2453333,6.75015599e-14 16.0053333,6.75015599e-14 C15.6933333,6.75015599e-14 15.4773333,0.06 15.3573333,0.18 C14.9733333,0.396 14.7513333,0.612 14.6913333,0.828 C14.6313333,1.044 14.6013333,1.296 14.6013333,1.584 C14.6013333,1.704 14.6673333,1.83 14.7993333,1.962 C14.9313333,2.094 15.1053333,2.22 15.3213333,2.34 C15.5373333,2.46 15.7833333,2.562 16.0593333,2.646 C16.3353333,2.73 16.6053333,2.772 16.8693333,2.772 Z M17.8413333,21.708 C18.1053333,21.444 18.2853333,21.216 18.3813333,21.024 C18.4773333,20.832 18.5253333,20.64 18.5253333,20.448 L18.5253333,20.448 L18.5253333,20.304 C18.4773333,19.896 18.3993333,19.308 18.2913333,18.54 C18.1833333,17.772 18.0693333,16.92 17.9493333,15.984 C17.8293333,15.048 17.7213333,14.064 17.6253333,13.032 C17.5293333,12 17.4813333,11.028 17.4813333,10.116 C17.4813333,9.852 17.4873333,9.6 17.4993333,9.36 C17.5113333,9.12 17.5293333,8.88 17.5533333,8.64 C17.4093333,8.472 17.2533333,8.298 17.0853333,8.118 C16.9173333,7.938 16.6653333,7.8 16.3293333,7.704 C16.0653333,7.752 15.8253333,7.794 15.6093333,7.83 C15.3933333,7.866 15.1653333,7.92 14.9253333,7.992 C14.5173333,8.256 14.3133333,8.64 14.3133333,9.144 C14.3133333,10.368 14.3853333,11.532 14.5293333,12.636 L14.5953333,13.193 C14.6953333,14.1296667 14.7453333,15.108 14.7453333,16.128 C14.7453333,16.536 14.7873333,16.944 14.8713333,17.352 L14.9264583,17.658 C14.9737083,17.964 14.9973333,18.27 14.9973333,18.576 C14.9973333,19.272 15.0693333,19.824 15.2133333,20.232 C15.3573333,20.64 15.5553333,20.952 15.8073333,21.168 C16.0593333,21.384 16.3593333,21.528 16.7073333,21.6 C17.0553333,21.672 17.4333333,21.708 17.8413333,21.708 Z M22.8666667,22.392 C23.2506667,22.392 23.5626667,22.314 23.8026667,22.158 C24.0426667,22.002 24.2346667,21.798 24.3786667,21.546 C24.5226667,21.294 24.6186667,21.018 24.6666667,20.718 C24.7146667,20.418 24.7386667,20.124 24.7386667,19.836 C24.7386667,19.644 24.7326667,19.374 24.7206667,19.026 C24.7086667,18.678 24.7026667,18.408 24.7026667,18.216 C24.7026667,17.904 24.7986667,17.49 24.9906667,16.974 C25.1826667,16.458 25.4226667,15.912 25.7106667,15.336 C25.9986667,14.76 26.3226667,14.196 26.6826667,13.644 C27.0426667,13.092 27.4026667,12.624 27.7626667,12.24 C27.9786667,11.928 28.2366667,11.61 28.5366667,11.286 C28.8366667,10.962 29.1246667,10.65 29.4006667,10.35 C29.6766667,10.05 29.9226667,9.762 30.1386667,9.486 C30.3546667,9.21 30.4866667,8.964 30.5346667,8.748 C30.3426667,8.268 30.0726667,7.92 29.7246667,7.704 C29.3766667,7.488 28.9146667,7.38 28.3386667,7.38 C28.0506667,7.38 27.8106667,7.428 27.6186667,7.524 C27.2826667,7.788 26.9586667,8.124 26.6466667,8.532 C26.3346667,8.94 26.0346667,9.36 25.7466667,9.792 C25.4586667,10.224 25.1826667,10.626 24.9186667,10.998 C24.6546667,11.37 24.4026667,11.652 24.1626667,11.844 L24.1626667,11.844 L24.0546667,9.936 C24.0306667,9.672 24.0006667,9.396 23.9646667,9.108 C23.9286667,8.82 23.8506667,8.562 23.7306667,8.334 C23.6106667,8.106 23.4306667,7.914 23.1906667,7.758 C22.9506667,7.602 22.6266667,7.524 22.2186667,7.524 C21.7866667,7.524 21.4866667,7.608 21.3186667,7.776 C21.1506667,7.944 21.0186667,8.184 20.9226667,8.496 C20.9226667,8.736 20.9706667,8.958 21.0666667,9.162 C21.1626667,9.366 21.2106667,9.576 21.2106667,9.792 L21.2106667,9.792 L21.2106667,9.936 C21.2346667,10.464 21.2646667,10.992 21.3006667,11.52 C21.3366667,12.048 21.3546667,12.576 21.3546667,13.104 L21.3546667,13.104 L21.3546667,14.292 C21.3546667,14.34 21.3606667,14.526 21.3726667,14.85 C21.3846667,15.174 21.3966667,15.558 21.4086667,16.002 C21.4206667,16.446 21.4326667,16.932 21.4446667,17.46 C21.4566667,17.988 21.4626667,18.48 21.4626667,18.936 C21.4626667,19.416 21.4566667,19.818 21.4446667,20.142 C21.4326667,20.466 21.4026667,20.688 21.3546667,20.808 L21.3546667,20.808 L21.3546667,20.952 C21.3546667,21.36 21.4926667,21.702 21.7686667,21.978 C22.0446667,22.254 22.4106667,22.392 22.8666667,22.392 Z M41.932,22.824 C42.076,22.824 42.232,22.806 42.4,22.77 C42.568,22.734 42.73,22.68 42.886,22.608 C43.042,22.536 43.174,22.44 43.282,22.32 C43.39,22.2 43.444,22.044 43.444,21.852 C43.444,21.66 43.408,21.462 43.336,21.258 C43.264,21.054 43.192,20.856 43.12,20.664 L43.12,20.664 L42.868,19.944 L42.652,18.612 C42.388,17.532 42.208,16.506 42.112,15.534 C42.016,14.562 41.884,13.476 41.716,12.276 C41.644,11.652 41.536,11.052 41.392,10.476 C41.248,9.9 40.972,9.444 40.564,9.108 C40.372,8.964 40.144,8.814 39.88,8.658 C39.616,8.502 39.34,8.37 39.052,8.262 C38.764,8.154 38.482,8.064 38.206,7.992 C37.93,7.92 37.684,7.884 37.468,7.884 C36.46,7.884 35.506,8.274 34.606,9.054 C33.706,9.834 32.914,10.776 32.23,11.88 C31.546,12.984 31.006,14.118 30.61,15.282 C30.214,16.446 30.016,17.424 30.016,18.216 C30.016,18.576 30.052,18.966 30.124,19.386 C30.196,19.806 30.328,20.184 30.52,20.52 C30.712,20.856 30.994,21.138 31.366,21.366 C31.738,21.594 32.212,21.708 32.788,21.708 C33.508,21.708 34.228,21.456 34.948,20.952 C35.668,20.448 36.328,19.842 36.928,19.134 C37.528,18.426 38.026,17.688 38.422,16.92 C38.818,16.152 39.052,15.516 39.124,15.012 C39.244,15.732 39.37,16.542 39.502,17.442 C39.634,18.342 39.796,19.194 39.988,19.998 C40.18,20.802 40.432,21.474 40.744,22.014 C41.056,22.554 41.452,22.824 41.932,22.824 Z M33.004,18.9 C33.004,18.876 32.998,18.858 32.986,18.846 C32.974,18.834 32.968,18.816 32.968,18.792 L32.968,18.792 L32.968,18.612 C32.968,17.964 33.082,17.292 33.31,16.596 C33.538,15.9 33.82,15.252 34.156,14.652 C34.228,14.532 34.36,14.238 34.552,13.77 C34.744,13.302 34.99,12.816 35.29,12.312 C35.59,11.808 35.944,11.352 36.352,10.944 C36.76,10.536 37.228,10.332 37.756,10.332 C37.876,10.332 37.984,10.356 38.08,10.404 C38.176,10.452 38.284,10.5 38.404,10.548 C38.404,10.716 38.362,10.92 38.278,11.16 C38.194,11.4 38.086,11.658 37.954,11.934 C37.822,12.21 37.69,12.48 37.558,12.744 C37.426,13.008 37.312,13.248 37.216,13.464 C37.048,13.944 36.79,14.49 36.442,15.102 C36.094,15.714 35.716,16.296 35.308,16.848 C34.9,17.4 34.492,17.874 34.084,18.27 C33.676,18.666 33.316,18.876 33.004,18.9 Z M56.7133333,22.104 C57.0013333,22.104 57.3313333,22.014 57.7033333,21.834 C58.0753333,21.654 58.2853333,21.372 58.3333333,20.988 C58.0453333,20.316 57.8293333,19.584 57.6853333,18.792 C57.5413333,18 57.4153333,17.196 57.3073333,16.38 C57.1993333,15.564 57.0673333,14.76 56.9113333,13.968 C56.7553333,13.176 56.5213333,12.432 56.2093333,11.736 C56.0653333,11.424 55.9513333,11.094 55.8673333,10.746 C55.7833333,10.398 55.6873333,10.062 55.5793333,9.738 C55.4713333,9.414 55.3153333,9.12 55.1113333,8.856 C54.9073333,8.592 54.6013333,8.4 54.1933333,8.28 C53.7133333,8.28 53.2453333,8.46 52.7893333,8.82 C52.3333333,9.18 51.9133333,9.618 51.5293333,10.134 C51.1453333,10.65 50.8093333,11.19 50.5213333,11.754 C50.2333333,12.318 50.0173333,12.792 49.8733333,13.176 L49.8733333,13.176 L49.8013333,13.392 C49.6093333,13.872 49.4113333,14.376 49.2073333,14.904 C49.0033333,15.432 48.7333333,15.864 48.3973333,16.2 L48.3973333,16.2 L48.3973333,16.02 C48.3973333,15.444 48.4093333,14.844 48.4333333,14.22 C48.4573333,13.596 48.4693333,12.84 48.4693333,11.952 C48.4693333,11.688 48.4393333,11.436 48.3793333,11.196 C48.3193333,10.956 48.2893333,10.704 48.2893333,10.44 C48.2893333,10.248 48.2773333,10.008 48.2533333,9.72 C48.2293333,9.432 48.1753333,9.156 48.0913333,8.892 C48.0073333,8.628 47.8753333,8.406 47.6953333,8.226 C47.5153333,8.046 47.2693333,7.956 46.9573333,7.956 C46.8373333,7.956 46.7053333,7.962 46.5613333,7.974 C46.4173333,7.986 46.2733333,7.992 46.1293333,7.992 C45.8653333,8.112 45.6793333,8.31 45.5713333,8.586 C45.4633333,8.862 45.4093333,9.144 45.4093333,9.432 C45.4093333,9.84 45.4213333,10.254 45.4453333,10.674 C45.4693333,11.094 45.4813333,11.508 45.4813333,11.916 C45.4813333,13.356 45.4753333,14.724 45.4633333,16.02 C45.4513333,17.316 45.4453333,18.72 45.4453333,20.232 C45.4453333,20.568 45.6193333,20.856 45.9673333,21.096 C46.3153333,21.336 46.6093333,21.456 46.8493333,21.456 C47.0653333,21.456 47.2933333,21.438 47.5333333,21.402 C47.7733333,21.366 48.0253333,21.258 48.2893333,21.078 C48.5533333,20.898 48.8413333,20.616 49.1533333,20.232 C49.4653333,19.848 49.8133333,19.308 50.1973333,18.612 C50.4853333,18.108 50.7253333,17.61 50.9173333,17.118 C51.1093333,16.626 51.3073333,16.122 51.5113333,15.606 C51.7153333,15.09 51.9433333,14.55 52.1953333,13.986 C52.4473333,13.422 52.7773333,12.816 53.1853333,12.168 C53.4253333,12.456 53.6113333,12.828 53.7433333,13.284 C53.8753333,13.74 53.9893333,14.232 54.0853333,14.76 C54.1813333,15.288 54.2653333,15.81 54.3373333,16.326 C54.4093333,16.842 54.5053333,17.304 54.6253333,17.712 C54.7213333,18.048 54.7993333,18.468 54.8593333,18.972 C54.9193333,19.476 55.0153333,19.962 55.1473333,20.43 C55.2793333,20.898 55.4653333,21.294 55.7053333,21.618 C55.9453333,21.942 56.2813333,22.104 56.7133333,22.104 Z M71.696,23.004 C71.96,23.004 72.23,22.86 72.506,22.572 C72.782,22.284 73.04,21.996 73.28,21.708 C74.024,21.204 74.852,20.412 75.764,19.332 C76.148,18.876 76.52,18.42 76.88,17.964 C77.24,17.508 77.612,17.04 77.996,16.56 C78.38,16.08 78.692,15.564 78.932,15.012 C79.052,14.748 79.166,14.472 79.274,14.184 C79.382,13.896 79.496,13.62 79.616,13.356 C79.928,12.732 80.084,12 80.084,11.16 C80.084,9.672 79.508,8.076 78.356,6.372 C77.996,5.844 77.528,5.34 76.952,4.86 C74.768,3.036 72.656,1.908 70.616,1.476 L70.616,1.476 L69.68,1.584 C69.272,1.632 69.008,1.8 68.888,2.088 C68.84,2.28 68.816,2.4 68.816,2.448 C68.816,2.712 68.972,3 69.284,3.312 L69.284,3.312 L70.076,4.14 C70.124,4.788 70.166,5.472 70.202,6.192 C70.238,6.912 70.256,7.656 70.256,8.424 C70.256,9.024 70.244,9.756 70.22,10.62 C70.196,11.484 70.16,12.504 70.112,13.68 C70.064,14.856 70.028,15.876 70.004,16.74 C69.98,17.604 69.968,18.336 69.968,18.936 C69.968,20.088 70.004,21.168 70.076,22.176 C70.22,22.464 70.484,22.674 70.868,22.806 C71.252,22.938 71.528,23.004 71.696,23.004 Z M73.028,18.252 C73.004,17.532 72.992,16.824 72.992,16.128 L72.992,16.128 L72.992,14.04 C72.992,12.528 73.01,11.07 73.046,9.666 C73.082,8.262 73.124,6.876 73.172,5.508 C75.524,6.66 76.808,7.992 77.024,9.504 C77.048,9.672 77.066,9.84 77.078,10.008 C77.09,10.176 77.096,10.344 77.096,10.512 C77.096,12.96 75.74,15.54 73.028,18.252 Z M92.8133333,22.824 C92.9573333,22.824 93.1133333,22.806 93.2813333,22.77 C93.4493333,22.734 93.6113333,22.68 93.7673333,22.608 C93.9233333,22.536 94.0553333,22.44 94.1633333,22.32 C94.2713333,22.2 94.3253333,22.044 94.3253333,21.852 C94.3253333,21.66 94.2893333,21.462 94.2173333,21.258 C94.1453333,21.054 94.0733333,20.856 94.0013333,20.664 L94.0013333,20.664 L93.7493333,19.944 L93.5333333,18.612 C93.2693333,17.532 93.0893333,16.506 92.9933333,15.534 C92.8973333,14.562 92.7653333,13.476 92.5973333,12.276 C92.5253333,11.652 92.4173333,11.052 92.2733333,10.476 C92.1293333,9.9 91.8533333,9.444 91.4453333,9.108 C91.2533333,8.964 91.0253333,8.814 90.7613333,8.658 C90.4973333,8.502 90.2213333,8.37 89.9333333,8.262 C89.6453333,8.154 89.3633333,8.064 89.0873333,7.992 C88.8113333,7.92 88.5653333,7.884 88.3493333,7.884 C87.3413333,7.884 86.3873333,8.274 85.4873333,9.054 C84.5873333,9.834 83.7953333,10.776 83.1113333,11.88 C82.4273333,12.984 81.8873333,14.118 81.4913333,15.282 C81.0953333,16.446 80.8973333,17.424 80.8973333,18.216 C80.8973333,18.576 80.9333333,18.966 81.0053333,19.386 C81.0773333,19.806 81.2093333,20.184 81.4013333,20.52 C81.5933333,20.856 81.8753333,21.138 82.2473333,21.366 C82.6193333,21.594 83.0933333,21.708 83.6693333,21.708 C84.3893333,21.708 85.1093333,21.456 85.8293333,20.952 C86.5493333,20.448 87.2093333,19.842 87.8093333,19.134 C88.4093333,18.426 88.9073333,17.688 89.3033333,16.92 C89.6993333,16.152 89.9333333,15.516 90.0053333,15.012 C90.1253333,15.732 90.2513333,16.542 90.3833333,17.442 C90.5153333,18.342 90.6773333,19.194 90.8693333,19.998 C91.0613333,20.802 91.3133333,21.474 91.6253333,22.014 C91.9373333,22.554 92.3333333,22.824 92.8133333,22.824 Z M83.8853333,18.9 C83.8853333,18.876 83.8793333,18.858 83.8673333,18.846 C83.8553333,18.834 83.8493333,18.816 83.8493333,18.792 L83.8493333,18.792 L83.8493333,18.612 C83.8493333,17.964 83.9633333,17.292 84.1913333,16.596 C84.4193333,15.9 84.7013333,15.252 85.0373333,14.652 C85.1093333,14.532 85.2413333,14.238 85.4333333,13.77 C85.6253333,13.302 85.8713333,12.816 86.1713333,12.312 C86.4713333,11.808 86.8253333,11.352 87.2333333,10.944 C87.6413333,10.536 88.1093333,10.332 88.6373333,10.332 C88.7573333,10.332 88.8653333,10.356 88.9613333,10.404 C89.0573333,10.452 89.1653333,10.5 89.2853333,10.548 C89.2853333,10.716 89.2433333,10.92 89.1593333,11.16 C89.0753333,11.4 88.9673333,11.658 88.8353333,11.934 C88.7033333,12.21 88.5713333,12.48 88.4393333,12.744 C88.3073333,13.008 88.1933333,13.248 88.0973333,13.464 C87.9293333,13.944 87.6713333,14.49 87.3233333,15.102 C86.9753333,15.714 86.5973333,16.296 86.1893333,16.848 C85.7813333,17.4 85.3733333,17.874 84.9653333,18.27 C84.5573333,18.666 84.1973333,18.876 83.8853333,18.9 Z M98.1266667,22.392 C98.5106667,22.392 98.8226667,22.314 99.0626667,22.158 C99.3026667,22.002 99.4946667,21.798 99.6386667,21.546 C99.7826667,21.294 99.8786667,21.018 99.9266667,20.718 C99.9746667,20.418 99.9986667,20.124 99.9986667,19.836 C99.9986667,19.644 99.9926667,19.374 99.9806667,19.026 C99.9686667,18.678 99.9626667,18.408 99.9626667,18.216 C99.9626667,17.904 100.058667,17.49 100.250667,16.974 C100.442667,16.458 100.682667,15.912 100.970667,15.336 C101.258667,14.76 101.582667,14.196 101.942667,13.644 C102.302667,13.092 102.662667,12.624 103.022667,12.24 C103.238667,11.928 103.496667,11.61 103.796667,11.286 C104.096667,10.962 104.384667,10.65 104.660667,10.35 C104.936667,10.05 105.182667,9.762 105.398667,9.486 C105.614667,9.21 105.746667,8.964 105.794667,8.748 C105.602667,8.268 105.332667,7.92 104.984667,7.704 C104.636667,7.488 104.174667,7.38 103.598667,7.38 C103.310667,7.38 103.070667,7.428 102.878667,7.524 C102.542667,7.788 102.218667,8.124 101.906667,8.532 C101.594667,8.94 101.294667,9.36 101.006667,9.792 C100.718667,10.224 100.442667,10.626 100.178667,10.998 C99.9146667,11.37 99.6626667,11.652 99.4226667,11.844 L99.4226667,11.844 L99.3146667,9.936 C99.2906667,9.672 99.2606667,9.396 99.2246667,9.108 C99.1886667,8.82 99.1106667,8.562 98.9906667,8.334 C98.8706667,8.106 98.6906667,7.914 98.4506667,7.758 C98.2106667,7.602 97.8866667,7.524 97.4786667,7.524 C97.0466667,7.524 96.7466667,7.608 96.5786667,7.776 C96.4106667,7.944 96.2786667,8.184 96.1826667,8.496 C96.1826667,8.736 96.2306667,8.958 96.3266667,9.162 C96.4226667,9.366 96.4706667,9.576 96.4706667,9.792 L96.4706667,9.792 L96.4706667,9.936 C96.4946667,10.464 96.5246667,10.992 96.5606667,11.52 C96.5966667,12.048 96.6146667,12.576 96.6146667,13.104 L96.6146667,13.104 L96.6146667,14.292 C96.6146667,14.34 96.6206667,14.526 96.6326667,14.85 C96.6446667,15.174 96.6566667,15.558 96.6686667,16.002 C96.6806667,16.446 96.6926667,16.932 96.7046667,17.46 C96.7166667,17.988 96.7226667,18.48 96.7226667,18.936 C96.7226667,19.416 96.7166667,19.818 96.7046667,20.142 C96.6926667,20.466 96.6626667,20.688 96.6146667,20.808 L96.6146667,20.808 L96.6146667,20.952 C96.6146667,21.36 96.7526667,21.702 97.0286667,21.978 C97.3046667,22.254 97.6706667,22.392 98.1266667,22.392 Z M109.596,2.772 C110.004,2.772 110.322,2.694 110.55,2.538 C110.778,2.382 110.892,2.076 110.892,1.62 C110.892,1.404 110.826,1.2 110.694,1.008 C110.562,0.816 110.388,0.642 110.172,0.486 C109.956,0.33 109.722,0.21 109.47,0.126 C109.218,0.042 108.972,6.75015599e-14 108.732,6.75015599e-14 C108.42,6.75015599e-14 108.204,0.06 108.084,0.18 C107.7,0.396 107.478,0.612 107.418,0.828 C107.358,1.044 107.328,1.296 107.328,1.584 C107.328,1.704 107.394,1.83 107.526,1.962 C107.658,2.094 107.832,2.22 108.048,2.34 C108.264,2.46 108.51,2.562 108.786,2.646 C109.062,2.73 109.332,2.772 109.596,2.772 Z M110.568,21.708 C110.832,21.444 111.012,21.216 111.108,21.024 C111.204,20.832 111.252,20.64 111.252,20.448 L111.252,20.448 L111.252,20.304 C111.204,19.896 111.126,19.308 111.018,18.54 C110.91,17.772 110.796,16.92 110.676,15.984 C110.556,15.048 110.448,14.064 110.352,13.032 C110.256,12 110.208,11.028 110.208,10.116 C110.208,9.852 110.214,9.6 110.226,9.36 C110.238,9.12 110.256,8.88 110.28,8.64 C110.136,8.472 109.98,8.298 109.812,8.118 C109.644,7.938 109.392,7.8 109.056,7.704 C108.792,7.752 108.552,7.794 108.336,7.83 C108.12,7.866 107.892,7.92 107.652,7.992 C107.244,8.256 107.04,8.64 107.04,9.144 C107.04,10.368 107.112,11.532 107.256,12.636 C107.4,13.74 107.472,14.904 107.472,16.128 C107.472,16.536 107.514,16.944 107.598,17.352 C107.682,17.76 107.724,18.168 107.724,18.576 C107.724,19.272 107.796,19.824 107.94,20.232 C108.084,20.64 108.282,20.952 108.534,21.168 C108.786,21.384 109.086,21.528 109.434,21.6 C109.782,21.672 110.16,21.708 110.568,21.708 Z M116.169333,24.552 C116.745333,24.552 117.285333,24.432 117.789333,24.192 C118.293333,23.952 118.725333,23.628 119.085333,23.22 C119.445333,22.812 119.727333,22.344 119.931333,21.816 C120.135333,21.288 120.237333,20.724 120.237333,20.124 C120.237333,18.972 120.033333,17.934 119.625333,17.01 C119.217333,16.086 118.773333,15.168 118.293333,14.256 L118.293333,14.256 L118.149333,13.968 C118.053333,13.824 117.927333,13.602 117.771333,13.302 C117.615333,13.002 117.459333,12.678 117.303333,12.33 C117.147333,11.982 117.009333,11.652 116.889333,11.34 C116.769333,11.028 116.709333,10.788 116.709333,10.62 L116.709333,10.62 L116.709333,9.756 C116.709333,9.276 116.775333,8.802 116.907333,8.334 C117.039333,7.866 117.249333,7.44 117.537333,7.056 C117.657333,6.936 117.783333,6.822 117.915333,6.714 C118.047333,6.606 118.113333,6.456 118.113333,6.264 C118.041333,6.072 117.921333,5.85 117.753333,5.598 C117.585333,5.346 117.381333,5.22 117.141333,5.22 C117.069333,5.22 117.003333,5.214 116.943333,5.202 C116.883333,5.19 116.817333,5.184 116.745333,5.184 C116.121333,5.184 115.611333,5.352 115.215333,5.688 C114.819333,6.024 114.501333,6.456 114.261333,6.984 C114.021333,7.512 113.853333,8.082 113.757333,8.694 C113.661333,9.306 113.613333,9.9 113.613333,10.476 C113.613333,11.172 113.757333,11.862 114.045333,12.546 C114.333333,13.23 114.675333,13.956 115.071333,14.724 C115.467333,15.492 115.869333,16.314 116.277333,17.19 C116.685333,18.066 117.021333,19.044 117.285333,20.124 C117.309333,20.172 117.321333,20.292 117.321333,20.484 C117.321333,21.036 117.165333,21.492 116.853333,21.852 C116.541333,22.212 116.181333,22.392 115.773333,22.392 C115.485333,22.392 115.197333,22.248 114.909333,21.96 C114.621333,22.032 114.435333,22.11 114.351333,22.194 C114.267333,22.278 114.177333,22.416 114.081333,22.608 C114.129333,23.112 114.363333,23.562 114.783333,23.958 C115.203333,24.354 115.665333,24.552 116.169333,24.552 Z M124.650667,2.772 C125.058667,2.772 125.376667,2.694 125.604667,2.538 C125.832667,2.382 125.946667,2.076 125.946667,1.62 C125.946667,1.404 125.880667,1.2 125.748667,1.008 C125.616667,0.816 125.442667,0.642 125.226667,0.486 C125.010667,0.33 124.776667,0.21 124.524667,0.126 C124.272667,0.042 124.026667,6.75015599e-14 123.786667,6.75015599e-14 C123.474667,6.75015599e-14 123.258667,0.06 123.138667,0.18 C122.754667,0.396 122.532667,0.612 122.472667,0.828 C122.412667,1.044 122.382667,1.296 122.382667,1.584 C122.382667,1.704 122.448667,1.83 122.580667,1.962 C122.712667,2.094 122.886667,2.22 123.102667,2.34 C123.318667,2.46 123.564667,2.562 123.840667,2.646 C124.116667,2.73 124.386667,2.772 124.650667,2.772 Z M125.622667,21.708 C125.886667,21.444 126.066667,21.216 126.162667,21.024 C126.258667,20.832 126.306667,20.64 126.306667,20.448 L126.306667,20.448 L126.306667,20.304 C126.258667,19.896 126.180667,19.308 126.072667,18.54 C125.964667,17.772 125.850667,16.92 125.730667,15.984 C125.610667,15.048 125.502667,14.064 125.406667,13.032 C125.310667,12 125.262667,11.028 125.262667,10.116 C125.262667,9.852 125.268667,9.6 125.280667,9.36 C125.292667,9.12 125.310667,8.88 125.334667,8.64 C125.190667,8.472 125.034667,8.298 124.866667,8.118 C124.698667,7.938 124.446667,7.8 124.110667,7.704 C123.846667,7.752 123.606667,7.794 123.390667,7.83 C123.174667,7.866 122.946667,7.92 122.706667,7.992 C122.298667,8.256 122.094667,8.64 122.094667,9.144 C122.094667,10.368 122.166667,11.532 122.310667,12.636 L122.376667,13.193 C122.476667,14.1296667 122.526667,15.108 122.526667,16.128 C122.526667,16.536 122.568667,16.944 122.652667,17.352 L122.707792,17.658 C122.755042,17.964 122.778667,18.27 122.778667,18.576 C122.778667,19.272 122.850667,19.824 122.994667,20.232 C123.138667,20.64 123.336667,20.952 123.588667,21.168 C123.840667,21.384 124.140667,21.528 124.488667,21.6 C124.836667,21.672 125.214667,21.708 125.622667,21.708 Z" id="Freshworks"></path>
            </g>
        </g>
    </g>
</svg>