<?xml version="1.0" encoding="UTF-8"?>
<svg width="186px" height="38px" viewBox="0 0 186 38" version="1.1" xmlns="http://www.w3.org/2000/svg" xmlns:xlink="http://www.w3.org/1999/xlink">
    <!-- Generator: Sketch 63.1 (92452) - https://sketch.com -->
    <title>Harvester 2</title>
    <desc>Created with Sketch.</desc>
    <g id="Iteration-+-Mobile" stroke="none" stroke-width="1" fill="none" fill-rule="evenodd">
        <g id="Testimonial-comp-Copy" transform="translate(-666.000000, -2059.000000)" fill="#00000A" fill-rule="nonzero">
            <g id="Harvester-2" transform="translate(666.612000, 2059.844000)">
                <path d="M8.1,27.792 C8.388,27.792 8.64,27.672 8.856,27.432 C9.168,26.616 9.474,25.626 9.774,24.462 C10.074,23.298 10.392,21.924 10.728,20.34 C11.448,17.028 12.072,14.688 12.6,13.32 C14.328,8.544 15.66,5.268 16.596,3.492 C16.716,3.18 16.776,2.94 16.776,2.772 C16.776,2.604 16.746,2.484 16.686,2.412 C16.626,2.34 16.548,2.286 16.452,2.25 C16.356,2.214 16.26,2.184 16.164,2.16 C16.068,2.136 15.984,2.088 15.912,2.016 C15.792,1.872 15.672,1.776 15.552,1.728 C15.432,1.68 15.324,1.656 15.228,1.656 L15.228,1.656 L14.94,1.656 C14.34,1.656 13.92,1.884 13.68,2.34 C12.552,4.812 11.472,7.668 10.44,10.908 C9.984,12.42 9.516,14.088 9.036,15.912 C8.556,17.736 8.184,19.548 7.92,21.348 C7.776,20.7 7.62,19.986 7.452,19.206 C7.284,18.426 7.11,17.634 6.93,16.83 C6.75,16.026 6.564,15.234 6.372,14.454 C6.18,13.674 6,12.972 5.832,12.348 C5.448,10.956 5.058,9.66 4.662,8.46 C4.266,7.26 3.84,6.144 3.384,5.112 C2.4,4.392 1.728,4.032 1.368,4.032 C1.176,4.032 0.984,4.092 0.792,4.212 C0.576,4.212 0.312,4.512 1.42108547e-13,5.112 C1.176,7.68 2.352,11.388 3.528,16.236 C4.152,18.828 4.734,21.024 5.274,22.824 C5.814,24.624 6.324,26.1 6.804,27.252 C7.332,27.612 7.764,27.792 8.1,27.792 Z M26.6613333,25.668 C26.8053333,25.668 26.9613333,25.65 27.1293333,25.614 C27.2973333,25.578 27.4593333,25.524 27.6153333,25.452 C27.7713333,25.38 27.9033333,25.284 28.0113333,25.164 C28.1193333,25.044 28.1733333,24.888 28.1733333,24.696 C28.1733333,24.504 28.1373333,24.306 28.0653333,24.102 C27.9933333,23.898 27.9213333,23.7 27.8493333,23.508 L27.8493333,23.508 L27.5973333,22.788 L27.3813333,21.456 C27.1173333,20.376 26.9373333,19.35 26.8413333,18.378 C26.7453333,17.406 26.6133333,16.32 26.4453333,15.12 C26.3733333,14.496 26.2653333,13.896 26.1213333,13.32 C25.9773333,12.744 25.7013333,12.288 25.2933333,11.952 C25.1013333,11.808 24.8733333,11.658 24.6093333,11.502 C24.3453333,11.346 24.0693333,11.214 23.7813333,11.106 C23.4933333,10.998 23.2113333,10.908 22.9353333,10.836 C22.6593333,10.764 22.4133333,10.728 22.1973333,10.728 C21.1893333,10.728 20.2353333,11.118 19.3353333,11.898 C18.4353333,12.678 17.6433333,13.62 16.9593333,14.724 C16.2753333,15.828 15.7353333,16.962 15.3393333,18.126 C14.9433333,19.29 14.7453333,20.268 14.7453333,21.06 C14.7453333,21.42 14.7813333,21.81 14.8533333,22.23 C14.9253333,22.65 15.0573333,23.028 15.2493333,23.364 C15.4413333,23.7 15.7233333,23.982 16.0953333,24.21 C16.4673333,24.438 16.9413333,24.552 17.5173333,24.552 C18.2373333,24.552 18.9573333,24.3 19.6773333,23.796 C20.3973333,23.292 21.0573333,22.686 21.6573333,21.978 C22.2573333,21.27 22.7553333,20.532 23.1513333,19.764 C23.5473333,18.996 23.7813333,18.36 23.8533333,17.856 C23.9733333,18.576 24.0993333,19.386 24.2313333,20.286 C24.3633333,21.186 24.5253333,22.038 24.7173333,22.842 C24.9093333,23.646 25.1613333,24.318 25.4733333,24.858 C25.7853333,25.398 26.1813333,25.668 26.6613333,25.668 Z M17.7333333,21.744 C17.7333333,21.72 17.7273333,21.702 17.7153333,21.69 C17.7033333,21.678 17.6973333,21.66 17.6973333,21.636 L17.6973333,21.636 L17.6973333,21.456 C17.6973333,20.808 17.8113333,20.136 18.0393333,19.44 C18.2673333,18.744 18.5493333,18.096 18.8853333,17.496 C18.9573333,17.376 19.0893333,17.082 19.2813333,16.614 C19.4733333,16.146 19.7193333,15.66 20.0193333,15.156 C20.3193333,14.652 20.6733333,14.196 21.0813333,13.788 C21.4893333,13.38 21.9573333,13.176 22.4853333,13.176 C22.6053333,13.176 22.7133333,13.2 22.8093333,13.248 C22.9053333,13.296 23.0133333,13.344 23.1333333,13.392 C23.1333333,13.56 23.0913333,13.764 23.0073333,14.004 C22.9233333,14.244 22.8153333,14.502 22.6833333,14.778 C22.5513333,15.054 22.4193333,15.324 22.2873333,15.588 C22.1553333,15.852 22.0413333,16.092 21.9453333,16.308 C21.7773333,16.788 21.5193333,17.334 21.1713333,17.946 C20.8233333,18.558 20.4453333,19.14 20.0373333,19.692 C19.6293333,20.244 19.2213333,20.718 18.8133333,21.114 C18.4053333,21.51 18.0453333,21.72 17.7333333,21.744 Z M33.0546667,25.164 C33.3906667,25.164 33.7206667,25.074 34.0446667,24.894 C34.3686667,24.714 34.5306667,24.432 34.5306667,24.048 C34.5306667,24 34.5186667,23.952 34.4946667,23.904 L34.4746667,23.856 C34.464,23.824 34.4586667,23.792 34.4586667,23.76 C34.2426667,22.896 34.0326667,21.888 33.8286667,20.736 C33.6246667,19.584 33.5226667,18.54 33.5226667,17.604 C33.5226667,17.268 33.5166667,16.914 33.5046667,16.542 C33.4926667,16.17 33.4866667,15.78 33.4866667,15.372 C33.4866667,14.796 33.4746667,14.226 33.4506667,13.662 C33.4266667,13.098 33.4146667,12.504 33.4146667,11.88 C33.4146667,11.16 33.4206667,10.434 33.4326667,9.702 C33.4446667,8.97 33.4506667,8.148 33.4506667,7.236 C33.4506667,6.612 33.5106667,5.982 33.6306667,5.346 C33.7506667,4.71 33.8106667,4.08 33.8106667,3.456 C33.8106667,3.144 33.7266667,2.904 33.5586667,2.736 C33.3906667,2.568 33.1866667,2.436 32.9466667,2.34 C32.7066667,2.244 32.4486667,2.184 32.1726667,2.16 C31.8966667,2.136 31.6626667,2.124 31.4706667,2.124 C31.2306667,2.316 31.0386667,2.508 30.8946667,2.7 C30.7506667,2.892 30.6786667,3.144 30.6786667,3.456 C30.6786667,4.824 30.6126667,6.138 30.4806667,7.398 C30.3486667,8.658 30.2826667,9.948 30.2826667,11.268 C30.2826667,12.276 30.2886667,13.242 30.3006667,14.166 C30.3126667,15.09 30.3186667,16.14 30.3186667,17.316 C30.3186667,17.748 30.3486667,18.396 30.4086667,19.26 C30.4686667,20.124 30.5946667,20.994 30.7866667,21.87 C30.9786667,22.746 31.2546667,23.514 31.6146667,24.174 C31.9746667,24.834 32.4546667,25.164 33.0546667,25.164 Z M41.932,24.768 C42.796,24.768 43.498,24.69 44.038,24.534 C44.578,24.378 45.16,24.036 45.784,23.508 C45.976,23.34 46.15,23.142 46.306,22.914 C46.462,22.686 46.552,22.404 46.576,22.068 C46.576,21.9 46.564,21.774 46.54,21.69 C46.516,21.606 46.492,21.492 46.468,21.348 C46.348,21.18 46.216,21.066 46.072,21.006 C45.928,20.946 45.796,20.892 45.676,20.844 C45.076,21.252 44.53,21.624 44.038,21.96 C43.546,22.296 42.928,22.464 42.184,22.464 C42.088,22.464 41.896,22.428 41.608,22.356 C41.32,22.284 41.02,22.122 40.708,21.87 C40.396,21.618 40.108,21.24 39.844,20.736 C39.58,20.232 39.436,19.536 39.412,18.648 L39.412,18.648 L39.412,18.45 C39.412,18.366 39.424,18.264 39.448,18.144 C39.76,18.24 40.036,18.312 40.276,18.36 C40.516,18.408 40.792,18.42 41.104,18.396 C41.824,18.372 42.466,18.234 43.03,17.982 C43.594,17.73 44.068,17.4 44.452,16.992 C44.836,16.584 45.13,16.122 45.334,15.606 C45.538,15.09 45.64,14.556 45.64,14.004 C45.64,13.572 45.562,13.158 45.406,12.762 C45.25,12.366 45.016,12.012 44.704,11.7 C44.392,11.388 44.002,11.136 43.534,10.944 C43.066,10.752 42.52,10.656 41.896,10.656 C41.008,10.656 40.228,10.878 39.556,11.322 C38.884,11.766 38.32,12.348 37.864,13.068 C37.408,13.788 37.066,14.598 36.838,15.498 C36.61,16.398 36.496,17.292 36.496,18.18 C36.52,18.756 36.562,19.302 36.622,19.818 C36.682,20.334 36.802,20.832 36.982,21.312 C37.162,21.792 37.414,22.248 37.738,22.68 C38.062,23.112 38.512,23.544 39.088,23.976 C39.472,24.168 39.946,24.348 40.51,24.516 C41.074,24.684 41.548,24.768 41.932,24.768 Z M40.564,16.308 C40.444,16.308 40.282,16.302 40.078,16.29 C39.874,16.278 39.724,16.26 39.628,16.236 C39.676,15.708 39.748,15.282 39.844,14.958 C39.94,14.634 40.042,14.364 40.15,14.148 C40.258,13.932 40.372,13.764 40.492,13.644 C40.612,13.524 40.72,13.404 40.816,13.284 C40.936,13.092 41.11,12.972 41.338,12.924 C41.566,12.876 41.8,12.852 42.04,12.852 C42.376,12.852 42.64,12.996 42.832,13.284 C43.024,13.572 43.12,13.884 43.12,14.22 C43.12,14.796 42.898,15.288 42.454,15.696 C42.01,16.104 41.38,16.308 40.564,16.308 Z M59.7733333,24.948 C60.0613333,24.948 60.3913333,24.858 60.7633333,24.678 C61.1353333,24.498 61.3453333,24.216 61.3933333,23.832 C61.1053333,23.16 60.8893333,22.428 60.7453333,21.636 C60.6013333,20.844 60.4753333,20.04 60.3673333,19.224 C60.2593333,18.408 60.1273333,17.604 59.9713333,16.812 C59.8153333,16.02 59.5813333,15.276 59.2693333,14.58 C59.1253333,14.268 59.0113333,13.938 58.9273333,13.59 C58.8433333,13.242 58.7473333,12.906 58.6393333,12.582 C58.5313333,12.258 58.3753333,11.964 58.1713333,11.7 C57.9673333,11.436 57.6613333,11.244 57.2533333,11.124 C56.7733333,11.124 56.3053333,11.304 55.8493333,11.664 C55.3933333,12.024 54.9733333,12.462 54.5893333,12.978 C54.2053333,13.494 53.8693333,14.034 53.5813333,14.598 C53.2933333,15.162 53.0773333,15.636 52.9333333,16.02 L52.9333333,16.02 L52.8613333,16.236 C52.6693333,16.716 52.4713333,17.22 52.2673333,17.748 C52.0633333,18.276 51.7933333,18.708 51.4573333,19.044 L51.4573333,19.044 L51.4573333,18.864 C51.4573333,18.288 51.4693333,17.688 51.4933333,17.064 C51.5173333,16.44 51.5293333,15.684 51.5293333,14.796 C51.5293333,14.532 51.4993333,14.28 51.4393333,14.04 C51.3793333,13.8 51.3493333,13.548 51.3493333,13.284 C51.3493333,13.092 51.3373333,12.852 51.3133333,12.564 C51.2893333,12.276 51.2353333,12 51.1513333,11.736 C51.0673333,11.472 50.9353333,11.25 50.7553333,11.07 C50.5753333,10.89 50.3293333,10.8 50.0173333,10.8 C49.8973333,10.8 49.7653333,10.806 49.6213333,10.818 C49.4773333,10.83 49.3333333,10.836 49.1893333,10.836 C48.9253333,10.956 48.7393333,11.154 48.6313333,11.43 C48.5233333,11.706 48.4693333,11.988 48.4693333,12.276 C48.4693333,12.684 48.4813333,13.098 48.5053333,13.518 C48.5293333,13.938 48.5413333,14.352 48.5413333,14.76 C48.5413333,16.2 48.5353333,17.568 48.5233333,18.864 C48.5113333,20.16 48.5053333,21.564 48.5053333,23.076 C48.5053333,23.412 48.6793333,23.7 49.0273333,23.94 C49.3753333,24.18 49.6693333,24.3 49.9093333,24.3 C50.1253333,24.3 50.3533333,24.282 50.5933333,24.246 C50.8333333,24.21 51.0853333,24.102 51.3493333,23.922 C51.6133333,23.742 51.9013333,23.46 52.2133333,23.076 C52.5253333,22.692 52.8733333,22.152 53.2573333,21.456 C53.5453333,20.952 53.7853333,20.454 53.9773333,19.962 C54.1693333,19.47 54.3673333,18.966 54.5713333,18.45 C54.7753333,17.934 55.0033333,17.394 55.2553333,16.83 C55.5073333,16.266 55.8373333,15.66 56.2453333,15.012 C56.4853333,15.3 56.6713333,15.672 56.8033333,16.128 C56.9353333,16.584 57.0493333,17.076 57.1453333,17.604 C57.2413333,18.132 57.3253333,18.654 57.3973333,19.17 C57.4693333,19.686 57.5653333,20.148 57.6853333,20.556 C57.7813333,20.892 57.8593333,21.312 57.9193333,21.816 C57.9793333,22.32 58.0753333,22.806 58.2073333,23.274 C58.3393333,23.742 58.5253333,24.138 58.7653333,24.462 C59.0053333,24.786 59.3413333,24.948 59.7733333,24.948 Z M67.1386667,25.092 C67.1866667,25.092 67.3306667,25.068 67.5706667,25.02 C67.8346667,24.948 68.0746667,24.816 68.2906667,24.624 C68.5066667,24.432 68.6146667,24.132 68.6146667,23.724 C68.6146667,23.436 68.5666667,23.124 68.4706667,22.788 C68.3746667,22.452 68.2906667,22.116 68.2186667,21.78 C68.0266667,20.7 67.8526667,19.578 67.6966667,18.414 C67.5406667,17.25 67.4626667,16.128 67.4626667,15.048 C67.4626667,14.88 67.4686667,14.718 67.4806667,14.562 C67.4926667,14.406 67.4986667,14.256 67.4986667,14.112 C67.4986667,13.968 67.4926667,13.824 67.4806667,13.68 C67.4686667,13.536 67.4626667,13.38 67.4626667,13.212 C67.4626667,12.924 67.5586667,12.684 67.7506667,12.492 C67.9426667,12.3 68.1706667,12.144 68.4346667,12.024 C68.6986667,11.904 68.9806667,11.802 69.2806667,11.718 C69.5806667,11.634 69.8386667,11.544 70.0546667,11.448 C70.2946667,11.376 70.5406667,11.31 70.7926667,11.25 C71.0446667,11.19 71.2786667,11.112 71.4946667,11.016 C71.7106667,10.92 71.8906667,10.782 72.0346667,10.602 C72.1786667,10.422 72.2506667,10.176 72.2506667,9.864 C72.2506667,9.6 72.1906667,9.336 72.0706667,9.072 C71.9506667,8.808 71.7226667,8.676 71.3866667,8.676 C70.7626667,8.676 70.2166667,8.778 69.7486667,8.982 C69.2806667,9.186 68.7346667,9.288 68.1106667,9.288 C67.9186667,9.288 67.8106667,9.228 67.7866667,9.108 C67.7626667,8.988 67.7506667,8.856 67.7506667,8.712 C67.7506667,8.4 67.7566667,8.1 67.7686667,7.812 C67.7806667,7.524 67.7866667,7.248 67.7866667,6.984 C67.7866667,6.6 67.7926667,6.222 67.8046667,5.85 C67.8166667,5.478 67.8226667,5.1 67.8226667,4.716 C67.8226667,4.356 67.8106667,3.99 67.7866667,3.618 C67.7626667,3.246 67.7506667,2.808 67.7506667,2.304 C67.7506667,2.04 67.7266667,1.77 67.6786667,1.494 C67.6306667,1.218 67.5406667,0.972 67.4086667,0.756 C67.2766667,0.54 67.0846667,0.36 66.8326667,0.216 C66.5806667,0.072 66.2506667,9.9475983e-14 65.8426667,9.9475983e-14 C65.6506667,9.9475983e-14 65.4946667,0.03 65.3746667,0.09 C65.2546667,0.15 65.0986667,0.228 64.9066667,0.324 C64.8346667,0.66 64.7986667,0.972 64.7986667,1.26 L64.7986667,1.26 L64.7986667,4.968 C64.7986667,5.328 64.8046667,5.694 64.8166667,6.066 C64.8286667,6.438 64.8346667,6.804 64.8346667,7.164 C64.8346667,7.716 64.8406667,8.142 64.8526667,8.442 C64.8646667,8.742 64.8706667,9.108 64.8706667,9.54 C64.8706667,9.756 64.8406667,10.014 64.7806667,10.314 C64.7206667,10.614 64.4986667,10.764 64.1146667,10.764 C63.8026667,10.932 63.5146667,11.052 63.2506667,11.124 C62.9866667,11.196 62.7286667,11.256 62.4766667,11.304 C62.2246667,11.352 61.9666667,11.4 61.7026667,11.448 C61.4386667,11.496 61.1506667,11.58 60.8386667,11.7 C60.7186667,12.108 60.6586667,12.444 60.6586667,12.708 C60.8266667,12.9 61.0786667,13.152 61.4146667,13.464 C61.7506667,13.776 62.1586667,13.932 62.6386667,13.932 C63.0226667,13.932 63.3586667,13.86 63.6466667,13.716 C63.9346667,13.572 64.2946667,13.464 64.7266667,13.392 C64.7746667,13.488 64.8046667,13.578 64.8166667,13.662 C64.8286667,13.746 64.8346667,13.836 64.8346667,13.932 C64.8586667,15.108 64.8826667,16.278 64.9066667,17.442 C64.9306667,18.606 64.9786667,19.776 65.0506667,20.952 C65.0746667,21.432 65.1286667,21.96 65.2126667,22.536 C65.2966667,23.112 65.3986667,23.568 65.5186667,23.904 C65.7106667,24.24 65.9446667,24.522 66.2206667,24.75 C66.4966667,24.978 66.8026667,25.092 67.1386667,25.092 Z M76.052,5.616 C76.46,5.616 76.778,5.538 77.006,5.382 C77.234,5.226 77.348,4.92 77.348,4.464 C77.348,4.248 77.282,4.044 77.15,3.852 C77.018,3.66 76.844,3.486 76.628,3.33 C76.412,3.174 76.178,3.054 75.926,2.97 C75.674,2.886 75.428,2.844 75.188,2.844 C74.876,2.844 74.66,2.904 74.54,3.024 C74.156,3.24 73.934,3.456 73.874,3.672 C73.814,3.888 73.784,4.14 73.784,4.428 C73.784,4.548 73.85,4.674 73.982,4.806 C74.114,4.938 74.288,5.064 74.504,5.184 C74.72,5.304 74.966,5.406 75.242,5.49 C75.518,5.574 75.788,5.616 76.052,5.616 Z M77.024,24.552 C77.288,24.288 77.468,24.06 77.564,23.868 C77.66,23.676 77.708,23.484 77.708,23.292 L77.708,23.292 L77.708,23.148 C77.66,22.74 77.582,22.152 77.474,21.384 C77.366,20.616 77.252,19.764 77.132,18.828 C77.012,17.892 76.904,16.908 76.808,15.876 C76.712,14.844 76.664,13.872 76.664,12.96 C76.664,12.696 76.67,12.444 76.682,12.204 C76.694,11.964 76.712,11.724 76.736,11.484 C76.592,11.316 76.436,11.142 76.268,10.962 C76.1,10.782 75.848,10.644 75.512,10.548 C75.248,10.596 75.008,10.638 74.792,10.674 C74.576,10.71 74.348,10.764 74.108,10.836 C73.7,11.1 73.496,11.484 73.496,11.988 C73.496,13.212 73.568,14.376 73.712,15.48 L73.778,16.037 C73.878,16.9736667 73.928,17.952 73.928,18.972 C73.928,19.38 73.97,19.788 74.054,20.196 C74.138,20.604 74.18,21.012 74.18,21.42 C74.18,22.116 74.252,22.668 74.396,23.076 C74.54,23.484 74.738,23.796 74.99,24.012 C75.242,24.228 75.542,24.372 75.89,24.444 C76.238,24.516 76.616,24.552 77.024,24.552 Z M91.8773333,24.948 C92.1653333,24.948 92.4953333,24.858 92.8673333,24.678 C93.2393333,24.498 93.4493333,24.216 93.4973333,23.832 C93.2093333,23.16 92.9933333,22.428 92.8493333,21.636 C92.7053333,20.844 92.5793333,20.04 92.4713333,19.224 C92.3633333,18.408 92.2313333,17.604 92.0753333,16.812 C91.9193333,16.02 91.6853333,15.276 91.3733333,14.58 C91.2293333,14.268 91.1153333,13.938 91.0313333,13.59 C90.9473333,13.242 90.8513333,12.906 90.7433333,12.582 C90.6353333,12.258 90.4793333,11.964 90.2753333,11.7 C90.0713333,11.436 89.7653333,11.244 89.3573333,11.124 C88.8773333,11.124 88.4093333,11.304 87.9533333,11.664 C87.4973333,12.024 87.0773333,12.462 86.6933333,12.978 C86.3093333,13.494 85.9733333,14.034 85.6853333,14.598 C85.3973333,15.162 85.1813333,15.636 85.0373333,16.02 L85.0373333,16.02 L84.9653333,16.236 C84.7733333,16.716 84.5753333,17.22 84.3713333,17.748 C84.1673333,18.276 83.8973333,18.708 83.5613333,19.044 L83.5613333,19.044 L83.5613333,18.864 C83.5613333,18.288 83.5733333,17.688 83.5973333,17.064 C83.6213333,16.44 83.6333333,15.684 83.6333333,14.796 C83.6333333,14.532 83.6033333,14.28 83.5433333,14.04 C83.4833333,13.8 83.4533333,13.548 83.4533333,13.284 C83.4533333,13.092 83.4413333,12.852 83.4173333,12.564 C83.3933333,12.276 83.3393333,12 83.2553333,11.736 C83.1713333,11.472 83.0393333,11.25 82.8593333,11.07 C82.6793333,10.89 82.4333333,10.8 82.1213333,10.8 C82.0013333,10.8 81.8693333,10.806 81.7253333,10.818 C81.5813333,10.83 81.4373333,10.836 81.2933333,10.836 C81.0293333,10.956 80.8433333,11.154 80.7353333,11.43 C80.6273333,11.706 80.5733333,11.988 80.5733333,12.276 C80.5733333,12.684 80.5853333,13.098 80.6093333,13.518 C80.6333333,13.938 80.6453333,14.352 80.6453333,14.76 C80.6453333,16.2 80.6393333,17.568 80.6273333,18.864 C80.6153333,20.16 80.6093333,21.564 80.6093333,23.076 C80.6093333,23.412 80.7833333,23.7 81.1313333,23.94 C81.4793333,24.18 81.7733333,24.3 82.0133333,24.3 C82.2293333,24.3 82.4573333,24.282 82.6973333,24.246 C82.9373333,24.21 83.1893333,24.102 83.4533333,23.922 C83.7173333,23.742 84.0053333,23.46 84.3173333,23.076 C84.6293333,22.692 84.9773333,22.152 85.3613333,21.456 C85.6493333,20.952 85.8893333,20.454 86.0813333,19.962 C86.2733333,19.47 86.4713333,18.966 86.6753333,18.45 C86.8793333,17.934 87.1073333,17.394 87.3593333,16.83 C87.6113333,16.266 87.9413333,15.66 88.3493333,15.012 C88.5893333,15.3 88.7753333,15.672 88.9073333,16.128 C89.0393333,16.584 89.1533333,17.076 89.2493333,17.604 C89.3453333,18.132 89.4293333,18.654 89.5013333,19.17 C89.5733333,19.686 89.6693333,20.148 89.7893333,20.556 C89.8853333,20.892 89.9633333,21.312 90.0233333,21.816 C90.0833333,22.32 90.1793333,22.806 90.3113333,23.274 C90.4433333,23.742 90.6293333,24.138 90.8693333,24.462 C91.1093333,24.786 91.4453333,24.948 91.8773333,24.948 Z M100.466667,24.768 C101.330667,24.768 102.032667,24.69 102.572667,24.534 C103.112667,24.378 103.694667,24.036 104.318667,23.508 C104.510667,23.34 104.684667,23.142 104.840667,22.914 C104.996667,22.686 105.086667,22.404 105.110667,22.068 C105.110667,21.9 105.098667,21.774 105.074667,21.69 C105.050667,21.606 105.026667,21.492 105.002667,21.348 C104.882667,21.18 104.750667,21.066 104.606667,21.006 C104.462667,20.946 104.330667,20.892 104.210667,20.844 C103.610667,21.252 103.064667,21.624 102.572667,21.96 C102.080667,22.296 101.462667,22.464 100.718667,22.464 C100.622667,22.464 100.430667,22.428 100.142667,22.356 C99.8546667,22.284 99.5546667,22.122 99.2426667,21.87 C98.9306667,21.618 98.6426667,21.24 98.3786667,20.736 C98.1146667,20.232 97.9706667,19.536 97.9466667,18.648 L97.9466667,18.648 L97.9466667,18.45 C97.9466667,18.366 97.9586667,18.264 97.9826667,18.144 C98.2946667,18.24 98.5706667,18.312 98.8106667,18.36 C99.0506667,18.408 99.3266667,18.42 99.6386667,18.396 C100.358667,18.372 101.000667,18.234 101.564667,17.982 C102.128667,17.73 102.602667,17.4 102.986667,16.992 C103.370667,16.584 103.664667,16.122 103.868667,15.606 C104.072667,15.09 104.174667,14.556 104.174667,14.004 C104.174667,13.572 104.096667,13.158 103.940667,12.762 C103.784667,12.366 103.550667,12.012 103.238667,11.7 C102.926667,11.388 102.536667,11.136 102.068667,10.944 C101.600667,10.752 101.054667,10.656 100.430667,10.656 C99.5426667,10.656 98.7626667,10.878 98.0906667,11.322 C97.4186667,11.766 96.8546667,12.348 96.3986667,13.068 C95.9426667,13.788 95.6006667,14.598 95.3726667,15.498 C95.1446667,16.398 95.0306667,17.292 95.0306667,18.18 C95.0546667,18.756 95.0966667,19.302 95.1566667,19.818 C95.2166667,20.334 95.3366667,20.832 95.5166667,21.312 C95.6966667,21.792 95.9486667,22.248 96.2726667,22.68 C96.5966667,23.112 97.0466667,23.544 97.6226667,23.976 C98.0066667,24.168 98.4806667,24.348 99.0446667,24.516 C99.6086667,24.684 100.082667,24.768 100.466667,24.768 Z M99.0986667,16.308 C98.9786667,16.308 98.8166667,16.302 98.6126667,16.29 C98.4086667,16.278 98.2586667,16.26 98.1626667,16.236 C98.2106667,15.708 98.2826667,15.282 98.3786667,14.958 C98.4746667,14.634 98.5766667,14.364 98.6846667,14.148 C98.7926667,13.932 98.9066667,13.764 99.0266667,13.644 C99.1466667,13.524 99.2546667,13.404 99.3506667,13.284 C99.4706667,13.092 99.6446667,12.972 99.8726667,12.924 C100.100667,12.876 100.334667,12.852 100.574667,12.852 C100.910667,12.852 101.174667,12.996 101.366667,13.284 C101.558667,13.572 101.654667,13.884 101.654667,14.22 C101.654667,14.796 101.432667,15.288 100.988667,15.696 C100.544667,16.104 99.9146667,16.308 99.0986667,16.308 Z M125.565333,27.144 C125.733333,27.144 125.871333,27.066 125.979333,26.91 C126.087333,26.754 126.141333,26.592 126.141333,26.424 C126.117333,26.088 126.099333,25.746 126.087333,25.398 C126.075333,25.05 126.069333,24.684 126.069333,24.3 C126.069333,23.58 126.111333,22.656 126.195333,21.528 C126.279333,20.4 126.393333,19.182 126.537333,17.874 C126.681333,16.566 126.831333,15.216 126.987333,13.824 C127.143333,12.432 127.293333,11.106 127.437333,9.846 C127.581333,8.586 127.707333,7.446 127.815333,6.426 C127.923333,5.406 127.989333,4.608 128.013333,4.032 C127.941333,3.768 127.755333,3.57 127.455333,3.438 C127.155333,3.306 126.777333,3.24 126.321333,3.24 L126.321333,3.24 L125.997333,3.24 C125.613333,3.264 125.361333,3.684 125.241333,4.5 C125.001333,6.54 124.755333,8.358 124.503333,9.954 C124.251333,11.55 123.969333,12.996 123.657333,14.292 L123.657333,14.292 L123.513333,14.292 C123.417333,14.292 123.261333,14.304 123.045333,14.328 C122.829333,14.352 122.565333,14.364 122.253333,14.364 L122.253333,14.364 L121.821333,14.364 C121.173333,14.364 120.681333,14.31 120.345333,14.202 C120.009333,14.094 119.841333,13.824 119.841333,13.392 C119.841333,13.08 119.865333,12.702 119.913333,12.258 C119.961333,11.814 120.009333,11.37 120.057333,10.926 C120.105333,10.482 120.153333,10.068 120.201333,9.684 C120.249333,9.3 120.273333,9.012 120.273333,8.82 C120.273333,8.556 120.261333,8.28 120.237333,7.992 C120.213333,7.704 120.165333,7.434 120.093333,7.182 C120.021333,6.93 119.919333,6.714 119.787333,6.534 C119.655333,6.354 119.481333,6.228 119.265333,6.156 L119.265333,6.156 L118.185333,5.868 C118.065333,5.868 117.873333,5.892 117.609333,5.94 C117.345333,5.988 117.213333,6.156 117.213333,6.444 L117.213333,6.444 L117.213333,6.876 C117.213333,7.5 117.177333,8.268 117.105333,9.18 C117.033333,10.092 116.949333,11.064 116.853333,12.096 C116.757333,13.128 116.643333,14.166 116.511333,15.21 C116.379333,16.254 116.265333,17.22 116.169333,18.108 C116.073333,18.996 115.989333,19.77 115.917333,20.43 C115.845333,21.09 115.809333,21.552 115.809333,21.816 C115.809333,21.936 115.791333,22.146 115.755333,22.446 C115.719333,22.746 115.701333,22.992 115.701333,23.184 C115.701333,23.616 115.767333,23.964 115.899333,24.228 C116.031333,24.492 116.193333,24.702 116.385333,24.858 C116.577333,25.014 116.787333,25.116 117.015333,25.164 C117.243333,25.212 117.465333,25.236 117.681333,25.236 C117.897333,25.236 118.209333,25.176 118.617333,25.056 C118.665333,23.184 118.779333,21.546 118.959333,20.142 C119.139333,18.738 119.361333,17.568 119.625333,16.632 C119.937333,16.536 120.285333,16.488 120.669333,16.488 C120.765333,16.488 120.927333,16.506 121.155333,16.542 C121.383333,16.578 121.623333,16.614 121.875333,16.65 C122.127333,16.686 122.367333,16.722 122.595333,16.758 C122.823333,16.794 123.009333,16.812 123.153333,16.812 L123.153333,16.812 L123.477333,16.812 C123.477333,17.028 123.459333,17.346 123.423333,17.766 C123.387333,18.186 123.345333,18.624 123.297333,19.08 C123.249333,19.536 123.207333,19.968 123.171333,20.376 C123.135333,20.784 123.117333,21.084 123.117333,21.276 C123.117333,21.42 123.111333,21.612 123.099333,21.852 C123.087333,22.092 123.075333,22.35 123.063333,22.626 C123.051333,22.902 123.039333,23.16 123.027333,23.4 C123.015333,23.64 123.009333,23.832 123.009333,23.976 C123.009333,25.008 123.195333,25.794 123.567333,26.334 C123.939333,26.874 124.605333,27.144 125.565333,27.144 Z M133.470667,25.164 C134.118667,25.164 134.724667,24.93 135.288667,24.462 C135.852667,23.994 136.350667,23.442 136.782667,22.806 C137.214667,22.17 137.592667,21.516 137.916667,20.844 C138.240667,20.172 138.498667,19.632 138.690667,19.224 L138.690667,19.224 L138.834667,18.936 C138.906667,19.512 138.990667,20.07 139.086667,20.61 C139.182667,21.15 139.332667,21.642 139.536667,22.086 C139.740667,22.53 140.004667,22.908 140.328667,23.22 C140.652667,23.532 141.078667,23.748 141.606667,23.868 C141.774667,23.82 141.942667,23.784 142.110667,23.76 C142.278667,23.736 142.434667,23.694 142.578667,23.634 C142.722667,23.574 142.848667,23.478 142.956667,23.346 C143.064667,23.214 143.142667,23.028 143.190667,22.788 C143.094667,22.572 142.986667,22.386 142.866667,22.23 C142.746667,22.074 142.614667,21.912 142.470667,21.744 C142.110667,21.24 141.852667,20.574 141.696667,19.746 C141.540667,18.918 141.462667,17.928 141.462667,16.776 C141.462667,16.2 141.504667,15.51 141.588667,14.706 C141.672667,13.902 141.714667,12.792 141.714667,11.376 C141.594667,11.184 141.402667,10.992 141.138667,10.8 C140.874667,10.608 140.646667,10.512 140.454667,10.512 C140.430667,10.512 140.406667,10.506 140.382667,10.494 C140.358667,10.482 140.334667,10.476 140.310667,10.476 C139.710667,10.476 139.284667,10.56 139.032667,10.728 C138.780667,10.896 138.618667,11.106 138.546667,11.358 C138.474667,11.61 138.444667,11.892 138.456667,12.204 C138.468667,12.516 138.426667,12.828 138.330667,13.14 C138.090667,13.884 137.778667,14.736 137.394667,15.696 C137.010667,16.656 136.590667,17.568 136.134667,18.432 C135.678667,19.296 135.216667,20.034 134.748667,20.646 C134.280667,21.258 133.854667,21.588 133.470667,21.636 C133.422667,21.132 133.362667,20.394 133.290667,19.422 C133.218667,18.45 133.182667,17.388 133.182667,16.236 C133.182667,15.9 133.212667,15.54 133.272667,15.156 C133.332667,14.772 133.362667,14.232 133.362667,13.536 C133.362667,13.128 133.398667,12.774 133.470667,12.474 C133.542667,12.174 133.578667,11.832 133.578667,11.448 C133.578667,10.992 133.386667,10.644 133.002667,10.404 C132.618667,10.164 132.234667,10.02 131.850667,9.972 C131.730667,9.996 131.628667,10.02 131.544667,10.044 C131.460667,10.068 131.382667,10.092 131.310667,10.116 C131.166667,10.164 131.040667,10.218 130.932667,10.278 C130.824667,10.338 130.758667,10.392 130.734667,10.44 C130.542667,11.016 130.422667,11.604 130.374667,12.204 C130.326667,12.804 130.302667,13.428 130.302667,14.076 L130.302667,14.076 L130.302667,16.344 C130.302667,16.68 130.278667,17.016 130.230667,17.352 C130.230667,18.792 130.272667,20.004 130.356667,20.988 C130.440667,21.972 130.596667,22.776 130.824667,23.4 C131.052667,24.024 131.376667,24.474 131.796667,24.75 C132.216667,25.026 132.774667,25.164 133.470667,25.164 Z M155.704,25.668 C155.848,25.668 156.004,25.65 156.172,25.614 C156.34,25.578 156.502,25.524 156.658,25.452 C156.814,25.38 156.946,25.284 157.054,25.164 C157.162,25.044 157.216,24.888 157.216,24.696 C157.216,24.504 157.18,24.306 157.108,24.102 C157.036,23.898 156.964,23.7 156.892,23.508 L156.892,23.508 L156.64,22.788 L156.424,21.456 C156.16,20.376 155.98,19.35 155.884,18.378 C155.788,17.406 155.656,16.32 155.488,15.12 C155.416,14.496 155.308,13.896 155.164,13.32 C155.02,12.744 154.744,12.288 154.336,11.952 C154.144,11.808 153.916,11.658 153.652,11.502 C153.388,11.346 153.112,11.214 152.824,11.106 C152.536,10.998 152.254,10.908 151.978,10.836 C151.702,10.764 151.456,10.728 151.24,10.728 C150.232,10.728 149.278,11.118 148.378,11.898 C147.478,12.678 146.686,13.62 146.002,14.724 C145.318,15.828 144.778,16.962 144.382,18.126 C143.986,19.29 143.788,20.268 143.788,21.06 C143.788,21.42 143.824,21.81 143.896,22.23 C143.968,22.65 144.1,23.028 144.292,23.364 C144.484,23.7 144.766,23.982 145.138,24.21 C145.51,24.438 145.984,24.552 146.56,24.552 C147.28,24.552 148,24.3 148.72,23.796 C149.44,23.292 150.1,22.686 150.7,21.978 C151.3,21.27 151.798,20.532 152.194,19.764 C152.59,18.996 152.824,18.36 152.896,17.856 C153.016,18.576 153.142,19.386 153.274,20.286 C153.406,21.186 153.568,22.038 153.76,22.842 C153.952,23.646 154.204,24.318 154.516,24.858 C154.828,25.398 155.224,25.668 155.704,25.668 Z M146.776,21.744 C146.776,21.72 146.77,21.702 146.758,21.69 C146.746,21.678 146.74,21.66 146.74,21.636 L146.74,21.636 L146.74,21.456 C146.74,20.808 146.854,20.136 147.082,19.44 C147.31,18.744 147.592,18.096 147.928,17.496 C148,17.376 148.132,17.082 148.324,16.614 C148.516,16.146 148.762,15.66 149.062,15.156 C149.362,14.652 149.716,14.196 150.124,13.788 C150.532,13.38 151,13.176 151.528,13.176 C151.648,13.176 151.756,13.2 151.852,13.248 C151.948,13.296 152.056,13.344 152.176,13.392 C152.176,13.56 152.134,13.764 152.05,14.004 C151.966,14.244 151.858,14.502 151.726,14.778 C151.594,15.054 151.462,15.324 151.33,15.588 C151.198,15.852 151.084,16.092 150.988,16.308 C150.82,16.788 150.562,17.334 150.214,17.946 C149.866,18.558 149.488,19.14 149.08,19.692 C148.672,20.244 148.264,20.718 147.856,21.114 C147.448,21.51 147.088,21.72 146.776,21.744 Z M170.485333,24.948 C170.773333,24.948 171.103333,24.858 171.475333,24.678 C171.847333,24.498 172.057333,24.216 172.105333,23.832 C171.817333,23.16 171.601333,22.428 171.457333,21.636 C171.313333,20.844 171.187333,20.04 171.079333,19.224 C170.971333,18.408 170.839333,17.604 170.683333,16.812 C170.527333,16.02 170.293333,15.276 169.981333,14.58 C169.837333,14.268 169.723333,13.938 169.639333,13.59 C169.555333,13.242 169.459333,12.906 169.351333,12.582 C169.243333,12.258 169.087333,11.964 168.883333,11.7 C168.679333,11.436 168.373333,11.244 167.965333,11.124 C167.485333,11.124 167.017333,11.304 166.561333,11.664 C166.105333,12.024 165.685333,12.462 165.301333,12.978 C164.917333,13.494 164.581333,14.034 164.293333,14.598 C164.005333,15.162 163.789333,15.636 163.645333,16.02 L163.645333,16.02 L163.573333,16.236 C163.381333,16.716 163.183333,17.22 162.979333,17.748 C162.775333,18.276 162.505333,18.708 162.169333,19.044 L162.169333,19.044 L162.169333,18.864 C162.169333,18.288 162.181333,17.688 162.205333,17.064 C162.229333,16.44 162.241333,15.684 162.241333,14.796 C162.241333,14.532 162.211333,14.28 162.151333,14.04 C162.091333,13.8 162.061333,13.548 162.061333,13.284 C162.061333,13.092 162.049333,12.852 162.025333,12.564 C162.001333,12.276 161.947333,12 161.863333,11.736 C161.779333,11.472 161.647333,11.25 161.467333,11.07 C161.287333,10.89 161.041333,10.8 160.729333,10.8 C160.609333,10.8 160.477333,10.806 160.333333,10.818 C160.189333,10.83 160.045333,10.836 159.901333,10.836 C159.637333,10.956 159.451333,11.154 159.343333,11.43 C159.235333,11.706 159.181333,11.988 159.181333,12.276 C159.181333,12.684 159.193333,13.098 159.217333,13.518 C159.241333,13.938 159.253333,14.352 159.253333,14.76 C159.253333,16.2 159.247333,17.568 159.235333,18.864 C159.223333,20.16 159.217333,21.564 159.217333,23.076 C159.217333,23.412 159.391333,23.7 159.739333,23.94 C160.087333,24.18 160.381333,24.3 160.621333,24.3 C160.837333,24.3 161.065333,24.282 161.305333,24.246 C161.545333,24.21 161.797333,24.102 162.061333,23.922 C162.325333,23.742 162.613333,23.46 162.925333,23.076 C163.237333,22.692 163.585333,22.152 163.969333,21.456 C164.257333,20.952 164.497333,20.454 164.689333,19.962 C164.881333,19.47 165.079333,18.966 165.283333,18.45 C165.487333,17.934 165.715333,17.394 165.967333,16.83 C166.219333,16.266 166.549333,15.66 166.957333,15.012 C167.197333,15.3 167.383333,15.672 167.515333,16.128 C167.647333,16.584 167.761333,17.076 167.857333,17.604 C167.953333,18.132 168.037333,18.654 168.109333,19.17 C168.181333,19.686 168.277333,20.148 168.397333,20.556 C168.493333,20.892 168.571333,21.312 168.631333,21.816 C168.691333,22.32 168.787333,22.806 168.919333,23.274 C169.051333,23.742 169.237333,24.138 169.477333,24.462 C169.717333,24.786 170.053333,24.948 170.485333,24.948 Z M179.038667,36.684 C179.758667,36.612 180.340667,36.45 180.784667,36.198 C181.228667,35.946 181.594667,35.658 181.882667,35.334 C182.170667,35.01 182.398667,34.686 182.566667,34.362 C182.734667,34.038 182.914667,33.768 183.106667,33.552 C183.682667,32.544 184.054667,31.47 184.222667,30.33 C184.390667,29.19 184.474667,28.044 184.474667,26.892 C184.474667,24.492 184.420667,22.356 184.312667,20.484 C184.204667,18.612 184.150667,16.824 184.150667,15.12 C184.150667,14.52 184.108667,13.968 184.024667,13.464 C183.940667,12.96 183.874667,12.432 183.826667,11.88 C183.490667,11.784 183.196667,11.724 182.944667,11.7 C182.692667,11.676 182.458667,11.64 182.242667,11.592 C182.122667,11.64 182.008667,11.676 181.900667,11.7 L181.790667,11.728 C181.716,11.7493333 181.638667,11.776 181.558667,11.808 L181.558667,11.808 L181.270667,11.34 C181.078667,11.268 180.886667,11.208 180.694667,11.16 C180.502667,11.112 180.310667,11.088 180.118667,11.088 C179.110667,11.088 178.210667,11.46 177.418667,12.204 C176.626667,12.948 175.942667,13.83 175.366667,14.85 C174.790667,15.87 174.310667,16.896 173.926667,17.928 C173.542667,18.96 173.266667,19.764 173.098667,20.34 C173.074667,20.412 173.062667,20.52 173.062667,20.664 C173.062667,21.12 173.152667,21.528 173.332667,21.888 C173.512667,22.248 173.746667,22.572 174.034667,22.86 C174.322667,23.148 174.640667,23.4 174.988667,23.616 C175.336667,23.832 175.678667,24.024 176.014667,24.192 C176.758667,24.096 177.400667,23.922 177.940667,23.67 C178.480667,23.418 178.948667,23.112 179.344667,22.752 C179.740667,22.392 180.076667,21.99 180.352667,21.546 C180.628667,21.102 180.886667,20.628 181.126667,20.124 C181.198667,20.724 181.252667,21.276 181.288667,21.78 C181.324667,22.284 181.354667,22.776 181.378667,23.256 C181.402667,23.736 181.414667,24.222 181.414667,24.714 L181.414667,24.714 L181.414667,26.244 C181.414667,28.188 181.252667,29.682 180.928667,30.726 C180.604667,31.77 180.226667,32.568 179.794667,33.12 C179.362667,33.672 178.936667,34.098 178.516667,34.398 C178.096667,34.698 177.790667,35.064 177.598667,35.496 C177.718667,36 177.898667,36.294 178.138667,36.378 C178.378667,36.462 178.678667,36.564 179.038667,36.684 Z M176.662667,21.456 C176.182667,21.384 175.942667,21.156 175.942667,20.772 C175.942667,20.34 176.020667,19.896 176.176667,19.44 C176.332667,18.984 176.524667,18.528 176.752667,18.072 C176.980667,17.616 177.220667,17.166 177.472667,16.722 C177.724667,16.278 177.946667,15.852 178.138667,15.444 C178.330667,15.204 178.510667,14.958 178.678667,14.706 C178.846667,14.454 179.032667,14.22 179.236667,14.004 C179.440667,13.788 179.674667,13.608 179.938667,13.464 C180.202667,13.32 180.526667,13.236 180.910667,13.212 C180.910667,13.476 180.880667,13.734 180.820667,13.986 C180.760667,14.238 180.718667,14.496 180.694667,14.76 C180.430667,15.624 180.142667,16.446 179.830667,17.226 C179.518667,18.006 179.188667,18.702 178.840667,19.314 C178.492667,19.926 178.132667,20.424 177.760667,20.808 C177.388667,21.192 177.022667,21.408 176.662667,21.456 Z" id="Harvester"></path>
            </g>
        </g>
    </g>
</svg>