<?xml version="1.0" encoding="UTF-8"?>
<svg width="137px" height="59px" viewBox="0 0 137 59" version="1.1" xmlns="http://www.w3.org/2000/svg" xmlns:xlink="http://www.w3.org/1999/xlink">
    <!-- Generator: Sketch 63.1 (92452) - https://sketch.com -->
    <title>Harvestr-15percent</title>
    <desc>Created with Sketch.</desc>
    <g id="Iteration-+-Mobile" stroke="none" stroke-width="1" fill="none" fill-rule="evenodd">
        <g id="Testimonial-comp-Copy" transform="translate(-192.000000, -1861.000000)" fill="#FFFFFF" fill-rule="nonzero">
            <g id="wes-hicks-4-EeTnaC1S4-unsplash" transform="translate(131.000000, 1741.000000)">
                <g id="Group-55">
                    <g id="Harvestr-15percent" transform="translate(61.944000, 120.040000)">
                        <path d="M23.328,57.96 L23.328,0.72 L14.256,0.72 C13.32,2.808 10.08,5.184 1.13686838e-13,6.408 L1.13686838e-13,15.336 L11.808,13.896 L11.808,57.96 L23.328,57.96 Z M51.336,58.68 C63.288,58.68 70.344,53.064 71.208,45.288 C71.64,41.688 71.64,34.272 71.208,31.248 C70.128,23.328 65.016,18.792 55.512,18.792 C50.328,18.792 44.64,20.304 42.624,24.336 L42.624,11.232 L68.688,11.232 L68.688,1.008 L32.112,1.008 L32.112,33.408 L43.344,33.408 C44.28,29.88 47.592,28.656 50.976,28.656 C55.368,28.656 57.888,30.168 58.464,34.2 C58.824,36.432 58.824,41.256 58.536,43.56 C58.032,47.16 55.368,48.888 50.544,48.888 C46.368,48.888 43.56,47.52 42.696,43.92 C42.48,42.624 42.48,40.896 42.48,40.032 L30.96,40.032 L30.9607865,40.8700446 C30.9651124,42.4706272 30.9932308,44.3686154 31.176,45.648 C32.544,54.504 38.376,58.68 51.336,58.68 Z M89.64,29.736 C98.64,29.736 104.184,23.832 104.184,16.92 L104.184,12.816 C104.184,6.696 99.936,1.49213975e-13 89.64,1.49213975e-13 C79.488,1.49213975e-13 75.168,6.048 75.168,12.816 L75.168,16.92 C75.168,23.904 80.424,29.736 89.64,29.736 Z M92.232,57.96 L124.344,1.872 L117.936,1.872 L85.68,57.96 L92.232,57.96 Z M89.712,22.248 C86.04,22.248 83.736,19.656 83.736,16.56 L83.736,13.104 C83.736,9.936 85.968,7.632 89.64,7.632 C93.096,7.632 95.544,10.44 95.544,13.104 L95.544,16.56 C95.544,19.224 93.6,22.248 89.712,22.248 Z M121.032,58.68 C131.4,58.68 135.72,52.848 135.72,45.792 L135.72,41.688 C135.72,35.784 131.184,28.872 121.248,28.872 C111.168,28.872 106.704,35.352 106.704,41.688 L106.704,45.792 C106.704,52.56 111.816,58.68 121.032,58.68 Z M121.248,51.12 C117.216,51.12 115.344,48.024 115.344,45.432 L115.344,41.976 C115.344,39.312 117,36.576 121.248,36.576 C125.208,36.576 127.08,39.528 127.08,41.976 L127.08,45.432 C127.08,48.096 125.712,51.12 121.248,51.12 Z" id="15%"></path>
                    </g>
                </g>
            </g>
        </g>
    </g>
</svg>