<?xml version="1.0" encoding="UTF-8" standalone="no"?>
<svg xmlns:sketch="http://www.bohemiancoding.com/sketch/ns" xmlns="http://www.w3.org/2000/svg" height="142px" width="227px" version="1.1" xmlns:xlink="http://www.w3.org/1999/xlink" viewBox="0 0 227 142"><!-- Generator: Sketch 3.4 (15575) - http://www.bohemiancoding.com/sketch -->
 <title>money bag</title>
 <desc>Created with Sketch.</desc>
 <defs>
  <path id="path-1" d="m0 142h226.57v-141.53l-226.57 0.004v141.53z"/>
 </defs>
 <g id="Page-1" fill-rule="evenodd" sketch:type="MSPage" fill="none">
  <g id="money-bag" sketch:type="MSLayerGroup">
   <g id="Group-5">
    <mask id="mask-2" sketch:name="Clip 2" fill="white">
     <use xlink:href="#path-1"/>
    </mask>
    <path id="Fill-1" sketch:type="MSShapeGroup" fill="#FAF9D6" mask="url(#mask-2)" d="m203 111c0.17 0 0.16 0.01 0 0zm-2.47-1.12c0.24 0.16 0.48 0.28 0.7 0.44-0.22-0.12-0.45-0.26-0.7-0.44zm17.97-31.376c-17.28-12.094-42.53 2.771-60.67 13.201 1.17-1.992 2.31-3.993 3.41-6.03 9.12-16.981 6.79-38.309-16.24-39.947-24.69-1.735-49.232 23.913-64.513 39.327-3.471 3.506-11.138 11.643-17.849 13.361 1.408-2.276 3.223-4.481 4.569-6.384 10.801-15.281 26.038-27.331 38.153-41.54 13.52-15.83 14.78-36.193-8.016-44.463-11.695-4.24-31.74 5.313-41.894 10.049-16.379 7.641-31.28 17.725-46.809 26.906-20.044 11.863-1.585 42.94 18.513 31.058 5.577-3.303 11.084-6.72 16.6-10.093-1.08 1.292-2.169 2.576-3.222 3.904-11.059 13.98-21.072 30.961-13.148 48.867 8.685 19.64 34.794 21.33 51.828 13.38 11.908-5.58 21.168-14.82 30.508-23.85-3.04 13.39 1.84 25.76 18.28 30.24 13.05 3.58 27.04-3.09 38.56-8.33 7.74-3.49 14.99-8.08 22.52-11.96 3.06-1.63 6.21-2.97 9.5-4.08 1.91-0.72 3.13-0.98 3.82-1.07 18.38 10.17 34.4-19.735 16.1-32.546z"/>
    <path id="Fill-3" sketch:type="MSShapeGroup" fill="#fff" mask="url(#mask-2)" d="m121.45 59.822c-5.14-3.507 8.46-16.477 10.17-18.584 2-2.461-0.81-6.082-6.31-5.622-5.61 0.478-4.13-6.197-13.52-5.958-9.55 0.124-7.92 6.436-13.523 5.958-5.516-0.46-8.296 3.161-6.321 5.622 1.726 2.107 15.314 15.077 10.174 18.584-34.362 23.373-32.202 54.308-19.869 67.928 14.555 16.07 43.399 17.08 59.089 0 11.73-12.77 14.48-44.555-19.89-67.928"/>
    <path id="Fill-4" sketch:type="MSShapeGroup" fill="#D9B993" mask="url(#mask-2)" d="m126.51 59.822c-5.13-3.507 8.46-16.477 10.16-18.584 2-2.461-0.79-6.082-6.3-5.622-5.61 0.478-4.13-6.197-13.52-5.958-9.54 0.124-7.91 6.436-13.53 5.958-5.505-0.46-8.294 3.161-6.319 5.622 1.735 2.107 15.329 15.077 10.179 18.584-34.367 23.373-32.206 54.308-19.874 67.928 14.564 16.07 43.404 17.08 59.084 0 11.73-12.77 14.49-44.555-19.88-67.928"/>
   </g>
   <path id="Fill-6" sketch:type="MSShapeGroup" fill="#232435" d="m97.328 37.387c-2.266 0-3.691 0.859-4.099 1.708-0.177 0.364-0.133 0.682 0.133 1.01 0.221 0.275 0.699 0.779 1.328 1.451 5.67 6.048 10.85 12.245 10.37 16.566-0.15 1.337-0.82 2.443-1.92 3.196-20.154 13.714-25.82 28.658-27.033 38.782-1.196 10.05 1.602 19.93 7.489 26.43 6.809 7.53 17.114 11.84 28.274 11.84 10.97 0 21.22-4.32 28.13-11.86 5.62-6.1 8.39-16.13 7.23-26.17-1.2-10.301-6.81-25.432-26.79-39.022-1.11-0.753-1.78-1.851-1.93-3.187-0.47-4.312 4.68-10.492 10.32-16.521 0.65-0.69 1.14-1.213 1.38-1.514 0.27-0.328 0.31-0.637 0.13-0.992-0.43-0.929-2.22-1.885-4.88-1.681-3.37 0.274-4.94-1.435-6.32-2.922-1.44-1.568-2.79-3.037-6.87-3.037-0.01 0-0.45 0.008-0.46 0.008-4.53 0.054-5.93 1.55-7.42 3.135-1.36 1.443-2.87 3.143-6.273 2.816-0.275-0.018-0.532-0.036-0.789-0.036zm14.542 104.61c-12.178 0-23.466-4.76-30.965-13.04-6.578-7.26-9.721-18.21-8.393-29.289 1.293-10.872 7.304-26.871 28.588-41.346 0.23-0.159 0.32-0.318 0.35-0.602 0.36-3.257-6.99-11.111-9.407-13.687-0.699-0.753-1.231-1.319-1.496-1.647-1.151-1.434-1.364-3.24-0.585-4.86 1.231-2.56 4.498-4.108 8.455-3.719 1.683 0.159 2.183-0.469 3.333-1.682 1.66-1.78 3.95-4.205 10.01-4.286l0.51-0.008c5.66 0 7.9 2.434 9.54 4.206 1.14 1.239 1.7 1.788 2.95 1.788 0.78-0.053 1.14-0.063 1.49-0.063 3.44 0 6.26 1.444 7.37 3.782 0.77 1.62 0.55 3.425-0.59 4.834-0.27 0.336-0.83 0.929-1.55 1.699-2.4 2.576-9.72 10.403-9.36 13.652 0.03 0.283 0.12 0.434 0.35 0.593 21.12 14.36 27.08 30.545 28.35 41.594 1.3 11.221-1.74 22.081-8.14 29.061-7.61 8.27-18.84 13.02-30.81 13.02z"/>
   <path id="Fill-7" sketch:type="MSShapeGroup" fill="#232435" d="m102.12 55.006c-0.5 0-0.9-0.399-0.9-0.895-0.01-0.505 0.38-0.912 0.89-0.912 0.13-0.009 12.96-0.142 19.35-1.496 0.47-0.159 0.97 0.213 1.07 0.699 0.11 0.487-0.2 0.965-0.69 1.071-6.57 1.391-19.18 1.533-19.71 1.533h-0.01"/>
   <path id="Fill-8" sketch:type="MSShapeGroup" fill="#232435" d="m108.24 57.564c-2.97 0-4.79-0.222-4.94-0.239-0.5-0.071-0.85-0.523-0.79-1.019 0.06-0.495 0.49-0.805 1.02-0.787 0.06 0.009 7.22 0.894 16.53-0.921 0.56-0.097 0.98 0.239 1.08 0.717 0.08 0.496-0.24 0.974-0.72 1.071-4.88 0.939-9.13 1.178-12.18 1.178"/>
   <path id="Fill-9" sketch:type="MSShapeGroup" fill="#232435" d="m111.18 60.3c-4.75 0-7.8-0.735-8-0.789-0.49-0.115-0.78-0.61-0.66-1.097 0.11-0.488 0.55-0.788 1.1-0.655 0.08 0.017 7.06 1.7 16.29-0.125 0.55-0.105 0.98 0.24 1.07 0.718 0.09 0.495-0.22 0.974-0.71 1.072-3.41 0.654-6.5 0.876-9.09 0.876"/>
   <path id="Fill-10" sketch:type="MSShapeGroup" fill="#232435" d="m114.86 63.195c-9.02 0-13.47-1.975-13.7-2.081-0.45-0.203-0.64-0.743-0.44-1.195 0.2-0.46 0.75-0.656 1.19-0.452 0.07 0.027 6.95 3.019 20.79 1.444 0.53 0.017 0.96 0.301 1.01 0.797 0.05 0.504-0.3 0.947-0.79 1.009-3.02 0.336-5.7 0.478-8.06 0.478"/>
   <path id="Fill-11" sketch:type="MSShapeGroup" fill="#232435" d="m101.21 35.492c0.85 2.338 1.49 4.631 2.13 6.968 0.08 0.309-0.1 0.629-0.41 0.708-0.28 0.08-0.58-0.079-0.69-0.354-0.83-2.24-1.7-4.507-2.698-6.596-0.231-0.443-0.053-0.992 0.39-1.221 0.438-0.231 0.988-0.063 1.218 0.389 0.02 0.018 0.04 0.08 0.06 0.106"/>
   <path id="Fill-12" sketch:type="MSShapeGroup" fill="#232435" d="m124.54 35.882c0.06 2.063-0.51 3.753-1.19 5.436-0.7 1.655-1.6 3.205-2.62 4.648-0.23 0.328-0.68 0.407-1.02 0.177-0.32-0.23-0.4-0.664-0.19-0.992 0.92-1.407 1.72-2.894 2.32-4.444 0.58-1.505 1-3.232 0.9-4.63l-0.01-0.107c-0.03-0.496 0.34-0.929 0.85-0.964 0.5-0.037 0.93 0.344 0.96 0.84v0.036"/>
   <path id="Fill-13" sketch:type="MSShapeGroup" fill="#232435" d="m116.96 62.088c0.98 2.213 2.02 4.568 3.39 6.41l0.05 0.062c0.21 0.283 0.15 0.691-0.13 0.903-0.28 0.204-0.67 0.16-0.88-0.097-1.76-2.055-2.87-4.259-4.08-6.499-0.24-0.442-0.07-1 0.37-1.231 0.44-0.239 0.99-0.08 1.23 0.364 0.01 0.017 0.04 0.07 0.05 0.088"/>
   <path id="Fill-14" sketch:type="MSShapeGroup" fill="#232435" d="m97.912 73.819c-0.238 0-0.478-0.089-0.654-0.283l-2.506-2.656c-0.186-0.195-0.275-0.46-0.248-0.726 0.035-0.266 0.177-0.505 0.407-0.655 5.229-3.444 8.689-8.624 8.729-8.677 0.28-0.416 0.83-0.531 1.26-0.248 0.41 0.274 0.53 0.832 0.25 1.258-0.14 0.203-3.32 4.967-8.362 8.578l1.196 1.266c1.956-1.665 7.756-6.773 9.206-10.181 0.19-0.46 0.7-0.69 1.19-0.479 0.46 0.196 0.67 0.727 0.48 1.187-1.92 4.515-10.035 11.138-10.372 11.412-0.168 0.142-0.371 0.204-0.576 0.204"/>
   <path id="Fill-15" sketch:type="MSShapeGroup" fill="#232435" d="m108.22 77.732c-0.25 0-0.49-0.098-0.66-0.283-0.17-0.177-0.26-0.434-0.24-0.682 0.45-6.366-0.41-14.547-0.42-14.626-0.05-0.496 0.31-0.947 0.8-1.001h0.1c0.46 0 0.85 0.346 0.9 0.806 0.04 0.328 0.8 7.632 0.48 13.962l1.41-0.018c0.2-2.239 0.62-8.799-0.86-13.581-0.15-0.477 0.13-0.982 0.6-1.133 0.47-0.124 0.99 0.124 1.14 0.602 1.91 6.197 0.89 14.759 0.85 15.113-0.06 0.451-0.44 0.797-0.9 0.797l-3.19 0.044h-0.01"/>
   <path id="Fill-16" sketch:type="MSShapeGroup" fill="#fff" d="m137.28 127.16c-0.28 0-0.56-0.09-0.81-0.27-0.6-0.45-0.73-1.3-0.27-1.91 8.65-11.62 11.66-30.904-5.89-50.125-0.52-0.558-0.47-1.417 0.08-1.922 0.56-0.513 1.41-0.468 1.92 0.08 18.7 20.478 14.95 41.667 6.06 53.597-0.26 0.36-0.67 0.55-1.09 0.55"/>
   <g id="Group-21" sketch:type="MSShapeGroup" fill="#EA8A2F">
    <path id="Fill-17" d="m85.969 26.967c-0.345 0-0.699-0.08-1.027-0.248l-8.756-4.454c-1.115-0.566-1.558-1.93-0.991-3.046 0.566-1.115 1.939-1.549 3.045-0.991l8.756 4.453c1.116 0.567 1.559 1.93 0.992 3.046-0.398 0.787-1.195 1.24-2.019 1.24"/>
    <path id="Fill-19" d="m100.27 14.2c-0.914 0-1.782-0.558-2.118-1.461l-3.48-9.182c-0.442-1.168 0.142-2.478 1.311-2.92 1.177-0.479 2.488 0.141 2.921 1.309l3.476 9.182c0.45 1.169-0.14 2.478-1.31 2.922-0.26 0.105-0.54 0.15-0.8 0.15"/>
    <path id="Fill-20" d="m119.44 14.324c-0.27 0-0.55-0.054-0.83-0.16-1.16-0.46-1.73-1.771-1.27-2.94l3.59-9.136c0.45-1.168 1.77-1.726 2.94-1.275 1.16 0.46 1.74 1.771 1.28 2.94l-3.6 9.136c-0.34 0.895-1.2 1.435-2.11 1.435"/>
   </g>
   <path id="Fill-22" sketch:type="MSShapeGroup" fill="#EA8A2F" d="m133.6 27.276c-0.83 0-1.63-0.46-2.03-1.257-0.55-1.125-0.1-2.479 1.02-3.037l8.79-4.373c1.12-0.541 2.47-0.106 3.04 1.018 0.56 1.125 0.11 2.479-1.02 3.037l-8.79 4.373c-0.33 0.16-0.67 0.239-1.01 0.239"/>
   <path id="Fill-23" sketch:type="MSShapeGroup" fill="#232435" d="m113.62 109.35c0.28-0.23 0.52-0.44 0.72-0.66s0.36-0.45 0.49-0.69c0.12-0.24 0.21-0.51 0.27-0.8s0.09-0.62 0.09-0.98c0-0.58-0.13-1.15-0.38-1.7-0.26-0.55-0.66-1-1.19-1.35v6.18zm-2.87-14.844c-0.88 0.57-1.32 1.351-1.32 2.344 0 0.46 0.11 0.91 0.34 1.352 0.23 0.441 0.56 0.781 0.98 1.02v-4.716zm0 19.084v-0.69c-1-0.1-1.94-0.4-2.81-0.92-0.86-0.52-1.58-1.2-2.14-2.04-0.19-0.25-0.29-0.54-0.29-0.88 0-0.42 0.14-0.76 0.41-1.03s0.61-0.41 1.02-0.41c0.22 0 0.42 0.05 0.59 0.15 0.17 0.11 0.34 0.23 0.5 0.39 0.17 0.16 0.34 0.33 0.5 0.52 0.17 0.18 0.35 0.37 0.57 0.54 0.21 0.18 0.45 0.34 0.71 0.48 0.27 0.14 0.58 0.24 0.94 0.29v-7.67c-0.6-0.15-1.15-0.4-1.67-0.75-0.51-0.34-0.96-0.75-1.34-1.24-0.37-0.481-0.67-1.013-0.88-1.597s-0.32-1.193-0.32-1.828c0-0.644 0.11-1.26 0.31-1.848 0.2-0.589 0.49-1.124 0.85-1.606 0.37-0.484 0.81-0.901 1.33-1.256 0.51-0.353 1.09-0.613 1.72-0.779v-0.855c0-0.414 0.14-0.757 0.41-1.027 0.27-0.272 0.61-0.407 1.03-0.407 0.41 0 0.75 0.135 1.02 0.407 0.27 0.27 0.41 0.613 0.41 1.027v0.869c0.33 0.082 0.66 0.203 0.99 0.359s0.65 0.343 0.94 0.558c0.29 0.216 0.57 0.462 0.82 0.738s0.47 0.575 0.64 0.896c0.07 0.12 0.12 0.239 0.15 0.359 0.04 0.12 0.06 0.257 0.06 0.414 0 0.414-0.14 0.757-0.41 1.027-0.27 0.272-0.61 0.407-1.03 0.407-0.26 0-0.48-0.055-0.64-0.166-0.17-0.11-0.32-0.248-0.47-0.413-0.15-0.166-0.3-0.347-0.46-0.545-0.15-0.197-0.35-0.38-0.59-0.545v5.434c0.64 0.227 1.24 0.557 1.79 0.977 0.54 0.41 1.01 0.9 1.41 1.44 0.4 0.55 0.7 1.15 0.92 1.8s0.34 1.31 0.34 2c0 0.72-0.11 1.41-0.32 2.07-0.2 0.66-0.5 1.27-0.88 1.83-0.39 0.56-0.86 1.05-1.4 1.48-0.55 0.43-1.17 0.77-1.86 1.02v1.02c0 0.2-0.04 0.38-0.11 0.55-0.07 0.18-0.18 0.33-0.31 0.47-0.13 0.13-0.29 0.23-0.46 0.31-0.18 0.07-0.36 0.11-0.55 0.11-0.21 0-0.39-0.04-0.57-0.11-0.17-0.08-0.33-0.18-0.46-0.31-0.12-0.14-0.22-0.29-0.3-0.47-0.07-0.17-0.11-0.35-0.11-0.55z"/>
  </g>
 </g>
</svg>
