<?xml version="1.0" encoding="UTF-8" standalone="no"?>
<svg xmlns:sketch="http://www.bohemiancoding.com/sketch/ns" xmlns="http://www.w3.org/2000/svg" height="131px" width="228px" version="1.1" xmlns:xlink="http://www.w3.org/1999/xlink" viewBox="0 0 228 131"><!-- Generator: Sketch 3.4 (15575) - http://www.bohemiancoding.com/sketch -->
 <title>8</title>
 <desc>Created with Sketch.</desc>
 <defs>
  <path id="path-1" d="m0 0.264h227.28v130.68h-227.28"/>
  <path id="path-3" d="m0.49 4.028v89.464l54.457 4.239v-97.079l-54.457 3.376"/>
  <path id="path-5" d="m0.708 12.962c0.032-0.11 0.092-0.214 0.179-0.301l11.988-11.994 1.94-0.12c-0.026 0.132-0.091 0.259-0.194 0.362l-12.009 12.015-1.904 0.038z"/>
 </defs>
 <g id="Page-1" fill-rule="evenodd" sketch:type="MSPage" fill="none">
  <g id="8" sketch:type="MSLayerGroup">
   <g id="Group-5">
    <mask id="mask-2" sketch:name="Clip 2" fill="white">
     <use xlink:href="#path-1"/>
    </mask>
    <path id="Fill-1" sketch:type="MSShapeGroup" fill="#FBF9D6" mask="url(#mask-2)" d="m204.25 105.11c0.17 0 0.16 0.01 0 0m-2.41-1.09c0.23 0.15 0.47 0.27 0.68 0.43-0.21-0.12-0.44-0.26-0.68-0.43m17.54-30.652c-16.87-11.813-41.53 2.707-59.25 12.895 1.14-1.946 2.26-3.9 3.33-5.889 8.91-16.588 6.63-37.421-15.86-39.021-24.12-1.695-48.094 23.358-63.021 38.415-3.39 3.425-10.88 11.373-17.435 13.05 1.375-2.222 3.148-4.376 4.463-6.235 10.55-14.927 25.434-26.697 37.273-40.577 13.21-15.463 14.43-35.354-7.84-43.431-11.419-4.142-30.999 5.189-40.918 9.815-15.999 7.464-30.554 17.314-45.723 26.283-19.579 11.588-1.548 41.943 18.083 30.337 5.449-3.226 10.828-6.564 16.216-9.859-1.056 1.262-2.119 2.517-3.148 3.814-10.802 13.655-20.582 30.243-12.842 47.725 8.483 19.19 33.986 20.85 50.626 13.08 11.631-5.45 20.676-14.48 29.806-23.3-2.98 13.08 1.79 25.17 17.85 29.54 12.75 3.5 26.41-3.02 37.67-8.13 7.56-3.42 14.64-7.9 21.99-11.69 2.99-1.59 6.07-2.9 9.29-3.98 1.86-0.71 3.05-0.97 3.72-1.05 17.96 9.94 33.6-19.277 15.72-31.792"/>
    <path id="Fill-3" sketch:type="MSShapeGroup" fill="#E4CFBC" mask="url(#mask-2)" d="m169.56 1.685l-11.13 0.753c-0.55-0.186-1.12-0.345-1.74-0.345-0.87 0-1.67 0.248-2.4 0.621l-17.19 1.16c-0.8-0.498-1.71-0.856-2.73-0.856-1.29 0-2.42 0.503-3.35 1.256l-15.82 1.071c-0.8-0.477-1.68-0.823-2.68-0.823-1.26 0-2.37 0.491-3.28 1.216l-17.748 1.195v0.587c-0.284-0.042-0.538-0.16-0.835-0.16-2.977 0-5.386 2.402-5.386 5.386 0 2.969 2.409 5.393 5.386 5.393 0.297 0 0.551-0.132 0.835-0.18v11.807c-0.284-0.048-0.538-0.166-0.835-0.166-2.977 0-5.386 2.411-5.386 5.393 0 2.968 2.409 5.386 5.386 5.386 0.297 0 0.551-0.132 0.835-0.173v11.8c-0.284-0.041-0.538-0.159-0.835-0.159-2.977 0-5.386 2.404-5.386 5.386 0 2.968 2.409 5.386 5.386 5.386 0.297 0 0.551-0.132 0.835-0.173v11.8c-0.284-0.041-0.538-0.159-0.835-0.159-2.977 0-5.386 2.404-5.386 5.386 0 2.968 2.409 5.392 5.386 5.392 0.297 0 0.551-0.131 0.835-0.179v11.807c-0.284-0.048-0.538-0.16-0.835-0.16-2.977 0-5.386 2.404-5.386 5.387 0 2.97 2.409 5.38 5.386 5.38 0.573 0 1.104-0.15 1.615-0.33l76.948 6 5.37-1.49v-107.97l-5.03-1.625"/>
    <path id="Fill-4" sketch:type="MSShapeGroup" fill="#232535" mask="url(#mask-2)" d="m92.272 105.36h0.111l76.697 5.98 4.09-1.14v-105.86l-3.78-1.226-10.87 0.732c-0.21 0.028-0.37-0.013-0.55-0.07-0.95-0.323-1.97-0.351-3.03 0.193-0.17 0.091-0.36 0.139-0.55 0.153l-17.19 1.16c-0.3 0.063-0.59-0.048-0.83-0.207-1.69-1.022-3.11-0.787-4.46 0.297-0.23 0.187-0.5 0.289-0.79 0.31l-15.82 1.071c-0.26 0.055-0.57-0.041-0.82-0.193-1.68-1.008-3.04-0.767-4.37 0.282-0.22 0.18-0.49 0.291-0.78 0.305l-16.636 1.125c-0.077 0.117-0.167 0.221-0.277 0.317-0.317 0.27-0.732 0.366-1.132 0.332l-0.477-0.103h-0.076c-2.306 0-4.045 1.761-4.045 3.928 0 2.195 1.78 3.976 3.97 3.976l0.6-0.157c0.414-0.063 0.836 0.048 1.147 0.31 0.317 0.27 0.503 0.67 0.503 1.084v11.807c0 0.414-0.186 0.815-0.503 1.085-0.311 0.262-0.733 0.393-1.147 0.31l-0.442-0.103c-2.41-0.007-4.128 1.74-4.128 3.935 0 2.188 1.78 3.969 3.97 3.969l0.628-0.157c0.4-0.05 0.815 0.061 1.132 0.33 0.311 0.27 0.49 0.664 0.49 1.071v11.8c0 0.407-0.179 0.801-0.49 1.069-0.317 0.271-0.732 0.366-1.132 0.332l-0.477-0.102h-0.076c-2.306 0-4.045 1.76-4.045 3.928 0 2.188 1.78 3.971 3.97 3.971l0.628-0.159c0.4-0.05 0.815 0.068 1.132 0.33 0.311 0.27 0.49 0.664 0.49 1.071v11.8c0 0.407-0.179 0.801-0.49 1.071-0.317 0.268-0.732 0.364-1.132 0.33l-0.477-0.103h-0.076c-2.306 0-4.045 1.761-4.045 3.929 0 2.195 1.78 3.977 3.97 3.977l0.6-0.159c0.414-0.07 0.836 0.048 1.147 0.31 0.317 0.27 0.503 0.671 0.503 1.085v11.807c0 0.414-0.186 0.814-0.503 1.084-0.311 0.269-0.733 0.401-1.147 0.31l-0.421-0.096h-0.09c-2.32 0-4.059 1.767-4.059 3.929 0 2.56 2.513 4.62 5.13 3.71 0.151-0.04 0.303-0.07 0.455-0.07m76.948 8.82h-0.11l-76.665-5.98c-0.518 0.17-1.112 0.32-1.788 0.32-3.75 0-6.802-3.05-6.802-6.8 0-3.556 2.742-6.483 6.222-6.774v-8.693c-3.48-0.289-6.222-3.225-6.222-6.78 0-3.556 2.742-6.485 6.222-6.774v-8.693c-3.48-0.289-6.222-3.218-6.222-6.773s2.742-6.484 6.222-6.774v-8.693c-3.48-0.291-6.222-3.218-6.222-6.773s2.742-6.491 6.222-6.78v-8.686c-3.48-0.291-6.222-3.225-6.222-6.781 0-3.687 2.956-6.705 6.622-6.794 0.234-0.25 0.559-0.407 0.918-0.429l17.335-1.167c2.04-1.442 4.44-1.69 6.8-0.448l14.97-1.015c2.09-1.485 4.57-1.733 6.94-0.463l16.48-1.111c1.63-0.753 3.42-0.712 4.68-0.311l10.87-0.732c0.18-0.035 0.35 0.013 0.53 0.063l5.02 1.622c0.58 0.186 0.98 0.732 0.98 1.346v107.97c0 0.63-0.42 1.19-1.03 1.36l-5.37 1.49c-0.13 0.03-0.26 0.05-0.38 0.05"/>
   </g>
   <path id="Fill-6" sketch:type="MSShapeGroup" fill="#EDDAC6" d="m169.56 1.685l-11.13 0.753c-0.55-0.186-1.12-0.345-1.74-0.345-0.87 0-1.67 0.248-2.4 0.621l-17.19 1.16c-0.8-0.498-1.71-0.856-2.73-0.856-1.29 0-2.42 0.503-3.35 1.256l-15.82 1.071c-0.8-0.477-1.68-0.823-2.68-0.823-1.26 0-2.37 0.491-3.28 1.216l-17.748 1.195v0.587c-0.284-0.042-0.538-0.16-0.835-0.16-2.977 0-5.386 2.402-5.386 5.386 0 2.969 2.409 5.393 5.386 5.393 0.297 0 0.551-0.132 0.835-0.18v11.807c-0.284-0.048-0.538-0.166-0.835-0.166-2.977 0-5.386 2.411-5.386 5.393 0 2.968 2.409 5.386 5.386 5.386 0.297 0 0.551-0.132 0.835-0.173v11.8c-0.284-0.041-0.538-0.159-0.835-0.159-2.977 0-5.386 2.404-5.386 5.386 0 2.968 2.409 5.386 5.386 5.386 0.297 0 0.551-0.132 0.835-0.173v11.8c-0.284-0.041-0.538-0.159-0.835-0.159-2.977 0-5.386 2.404-5.386 5.386 0 2.968 2.409 5.392 5.386 5.392 0.297 0 0.551-0.131 0.835-0.179v11.807c-0.284-0.048-0.538-0.16-0.835-0.16-2.977 0-5.386 2.404-5.386 5.387 0 2.97 2.409 5.38 5.386 5.38 0.573 0 1.104-0.15 1.615-0.33l76.948 6 0.34-111.08"/>
   <path id="Fill-7" sketch:type="MSShapeGroup" fill="#232535" d="m92.272 105.89h0.069l75.989 5.92 0.35-109.18-10.19 0.691c-0.12-0.014-0.24-0.007-0.35-0.048-1.05-0.352-2.24-0.393-3.44 0.228-0.11 0.054-0.23 0.089-0.35 0.097l-17.18 1.16c-0.18 0.007-0.38-0.043-0.53-0.132-1.86-1.153-3.53-0.891-5.07 0.339-0.13 0.11-0.31 0.18-0.49 0.193l-15.82 1.07c-0.17 0.02-0.36-0.028-0.51-0.125-1.85-1.104-3.47-0.856-4.96 0.325-0.15 0.111-0.31 0.179-0.49 0.193l-16.959 1.14c-0.048 0.166-0.138 0.311-0.269 0.427-0.194 0.166-0.408 0.25-0.711 0.208-0.138-0.021-0.284-0.055-0.421-0.096-0.118-0.028-0.215-0.055-0.283-0.055-2.486 0-4.503 2.015-4.503 4.501s2.017 4.508 4.503 4.508c0.054 0 0.158-0.034 0.261-0.061 0.139-0.041 0.283-0.084 0.422-0.104 0.29-0.035 0.518 0.035 0.725 0.193 0.193 0.166 0.311 0.414 0.311 0.677v11.807c0 0.262-0.118 0.512-0.311 0.676-0.207 0.159-0.435 0.222-0.725 0.193-0.132-0.02-0.263-0.054-0.386-0.089-0.125-0.034-0.229-0.061-0.297-0.061-2.486 0-4.503 2.022-4.503 4.508s2.017 4.501 4.503 4.501c0.054 0 0.158-0.027 0.255-0.054 0.152-0.048 0.296-0.083 0.449-0.112 0.303-0.041 0.517 0.043 0.711 0.207 0.193 0.166 0.304 0.416 0.304 0.671v11.8c0 0.255-0.111 0.505-0.304 0.669-0.194 0.166-0.408 0.257-0.711 0.207-0.138-0.021-0.284-0.055-0.421-0.096-0.118-0.027-0.215-0.055-0.283-0.055-2.486 0-4.503 2.016-4.503 4.502s2.017 4.501 4.503 4.501c0.054 0 0.158-0.027 0.255-0.055 0.152-0.048 0.296-0.082 0.449-0.111 0.303-0.034 0.517 0.05 0.711 0.207 0.193 0.166 0.304 0.416 0.304 0.671v11.8c0 0.255-0.111 0.505-0.304 0.669-0.194 0.166-0.408 0.263-0.711 0.209-0.138-0.023-0.284-0.057-0.421-0.098-0.118-0.027-0.215-0.055-0.283-0.055-2.486 0-4.503 2.016-4.503 4.502s2.017 4.508 4.503 4.508c0.054 0 0.158-0.034 0.261-0.062 0.139-0.041 0.283-0.082 0.422-0.102 0.29-0.029 0.518 0.034 0.725 0.193 0.193 0.164 0.311 0.414 0.311 0.676v11.807c0 0.261-0.118 0.511-0.311 0.677-0.207 0.164-0.435 0.228-0.725 0.193-0.124-0.022-0.249-0.049-0.373-0.083-0.124-0.035-0.235-0.062-0.31-0.062-2.486 0-4.503 2.015-4.503 4.502 0 2.48 2.017 4.5 4.503 4.5 0.448 0 0.904-0.14 1.332-0.28 0.089-0.04 0.186-0.05 0.283-0.05m76.948 7.76h-0.07l-76.767-5.98c-0.505 0.16-1.085 0.32-1.726 0.32-3.46 0-6.27-2.81-6.27-6.27 0-3.44 2.79-6.242 6.221-6.269v-9.701c-3.431-0.029-6.221-2.832-6.221-6.277 0-3.439 2.79-6.242 6.221-6.269v-9.703c-3.431-0.027-6.221-2.829-6.221-6.268s2.79-6.242 6.221-6.269v-9.702c-3.431-0.028-6.221-2.83-6.221-6.269 0-3.446 2.79-6.248 6.221-6.277v-9.694c-3.431-0.028-6.221-2.83-6.221-6.276 0-3.459 2.81-6.27 6.27-6.27h0.075c0.145-0.241 0.401-0.407 0.698-0.428l17.48-1.174c1.95-1.414 4.23-1.692 6.5-0.427l15.28-1.035c1.98-1.492 4.31-1.756 6.63-0.437l16.74-1.132c1.56-0.758 3.25-0.71 4.48-0.296l10.96-0.746c0.23 0.007 0.49 0.068 0.67 0.241 0.17 0.166 0.28 0.4 0.28 0.643l-0.35 111.08c0 0.26-0.1 0.49-0.28 0.66-0.17 0.15-0.38 0.23-0.6 0.23"/>
   <path id="Fill-8" sketch:type="MSShapeGroup" fill="#E6E7E2" d="m101.49 18.028v89.462l54.46 4.24v-97.078l-54.46 3.376"/>
   <g id="Group-47" transform="translate(101 14)">
    <mask id="mask-4" sketch:name="Clip 10" fill="white">
     <use xlink:href="#path-3"/>
    </mask>
    <path id="Fill-9" sketch:type="MSShapeGroup" fill="#fff" mask="url(#mask-4)" d="m57.98 97.62v-82.578l-44.959 0.911c-11.101 17.978-15.97 51.846-18.113 76.517v0.24l63.072 4.91"/>
    <path id="Fill-11" sketch:type="MSShapeGroup" fill="#232535" mask="url(#mask-4)" d="m-4.228 91.959l61.392 4.773v-80.849l-43.679 0.879c-10.693 17.682-15.531 50.476-17.713 75.197m62.208 6.477h-0.064l-63.073-4.91c-0.424-0.034-0.752-0.393-0.752-0.816v-0.24c2.184-25.208 7.118-58.946 18.234-76.948 0.144-0.232 0.4-0.383 0.679-0.383l44.96-0.913c0.224-0.016 0.432 0.073 0.591 0.231 0.153 0.153 0.24 0.361 0.24 0.585v82.578c0 0.232-0.095 0.448-0.255 0.601-0.152 0.142-0.352 0.215-0.56 0.215"/>
    <path id="Fill-12" sketch:type="MSShapeGroup" fill="#B89267" mask="url(#mask-4)" d="m14.98 30.3c-1.447-0.224-2.847 0.688-3.175 2.144-0.335 1.512 0.624 3.015 2.144 3.359 1.103 0.24 2.174-0.208 2.83-1.049-0.943-0.31-1.887-0.798-2.223-1.701-0.36-0.977-0.016-1.984 0.424-2.753"/>
    <path id="Fill-13" sketch:type="MSShapeGroup" fill="#515251" mask="url(#mask-4)" d="m19.034 31.333h9.341v0.814h-9.341v-0.814z"/>
    <path id="Fill-14" sketch:type="MSShapeGroup" fill="#515251" mask="url(#mask-4)" d="m18.523 33.764h9.34v0.814h-9.34v-0.814z"/>
    <path id="Fill-15" sketch:type="MSShapeGroup" fill="#B89267" mask="url(#mask-4)" d="m15.691 31.717c0.952-0.545 0.992-0.864 1.28-2.073 0.032-0.239 0.256-0.398 0.496-0.366 0.12 0.023 0.24 0.119 0.304 0.208 0.36 0.582 0.448 1.391 0.048 2.173-0.512 0.712-1.376 1.104-2.095 0.872-0.224-0.071-0.352-0.319-0.28-0.542 0.04-0.113 0.112-0.193 0.2-0.248l0.047-0.024"/>
    <path id="Fill-16" sketch:type="MSShapeGroup" fill="#515251" mask="url(#mask-4)" d="m37.332 31.717h15.354v0.814h-15.354v-0.814z"/>
    <path id="Fill-17" sketch:type="MSShapeGroup" fill="#515251" mask="url(#mask-4)" d="m37.46 34.275h8.701v0.816h-8.701v-0.816z"/>
    <path id="Fill-18" sketch:type="MSShapeGroup" fill="#515251" mask="url(#mask-4)" d="m36.82 75.22h15.354v0.816h-15.354v-0.816z"/>
    <path id="Fill-19" sketch:type="MSShapeGroup" fill="#515251" mask="url(#mask-4)" d="m41.899 77.778h8.699v0.817h-8.699v-0.817z"/>
    <path id="Fill-20" sketch:type="MSShapeGroup" fill="#515251" mask="url(#mask-4)" d="m5.943 45.703h15.355v0.816h-15.355v-0.816z"/>
    <path id="Fill-21" sketch:type="MSShapeGroup" fill="#515251" mask="url(#mask-4)" d="m0.49 83.233h14.323v0.814h-14.323v-0.814z"/>
    <path id="Fill-22" sketch:type="MSShapeGroup" fill="#515251" mask="url(#mask-4)" d="m5.687 48.261h8.701v0.816h-8.701v-0.816z"/>
    <path id="Fill-23" sketch:type="MSShapeGroup" fill="#515251" mask="url(#mask-4)" d="m3.472 59.354h8.701v0.817h-8.701v-0.817z"/>
    <path id="Fill-24" sketch:type="MSShapeGroup" fill="#515251" mask="url(#mask-4)" d="m2.448 64.248h8.702v0.575h-8.702v-0.575z"/>
    <path id="Fill-25" sketch:type="MSShapeGroup" fill="#515251" mask="url(#mask-4)" d="m34.181 65.271h8.701v0.576h-8.701v-0.576z"/>
    <path id="Fill-26" sketch:type="MSShapeGroup" fill="#515251" mask="url(#mask-4)" d="m44.929 65.271h8.7v0.576h-8.7v-0.576z"/>
    <path id="Fill-27" sketch:type="MSShapeGroup" fill="#515251" mask="url(#mask-4)" d="m21.042 59.865h6.141v0.816h-6.141v-0.816z"/>
    <path id="Fill-28" sketch:type="MSShapeGroup" fill="#515251" mask="url(#mask-4)" d="m34.181 59.865h8.701v0.816h-8.701v-0.816z"/>
    <path id="Fill-29" sketch:type="MSShapeGroup" fill="#515251" mask="url(#mask-4)" d="m4.664 50.821h8.701v0.816h-8.701v-0.816z"/>
    <path id="Fill-30" sketch:type="MSShapeGroup" fill="#515251" mask="url(#mask-4)" d="m24.368 45.703h15.355v0.816h-15.355v-0.816z"/>
    <path id="Fill-31" sketch:type="MSShapeGroup" fill="#515251" mask="url(#mask-4)" d="m24.113 48.261h8.7v0.816h-8.7v-0.816z"/>
    <path id="Fill-32" sketch:type="MSShapeGroup" fill="#515251" mask="url(#mask-4)" d="m23.09 50.821h8.699v0.816h-8.699v-0.816z"/>
    <path id="Fill-33" sketch:type="MSShapeGroup" fill="#515251" mask="url(#mask-4)" d="m44.201 45.703h10.746v0.816h-10.746v-0.816z"/>
    <path id="Fill-34" sketch:type="MSShapeGroup" fill="#515251" mask="url(#mask-4)" d="m43.946 48.261h8.7v0.816h-8.7v-0.816z"/>
    <path id="Fill-35" sketch:type="MSShapeGroup" fill="#515251" mask="url(#mask-4)" d="m42.922 50.821h8.7v0.816h-8.7v-0.816z"/>
    <path id="Fill-36" sketch:type="MSShapeGroup" fill="#232535" mask="url(#mask-4)" d="m24.649 23.2c-0.129 0-0.257-0.018-0.385-0.026v-0.558h1.625v0.527l-0.225 0.031c-0.111 0.008-0.2 0.05-0.2 0.217v3.079c0.136 0 0.256 0.008 0.392 0.023v0.569h-1.623v-0.545l0.224-0.016c0.12-0.008 0.192-0.055 0.192-0.223v-3.078"/>
    <path id="Fill-37" sketch:type="MSShapeGroup" fill="#232535" mask="url(#mask-4)" d="m26.272 26.51l0.247-0.017c0.113-0.023 0.169-0.063 0.169-0.207v-3.112c-0.128 0-0.257 0-0.385-0.007v-0.559c0.401-0.016 0.809-0.016 1.201-0.024 0.631 1.006 1.271 2.023 1.903 3.022h0.008v-2.495c-0.144 0-0.297 0-0.44-0.008v-0.558c0.544-0.009 1.095-0.034 1.632-0.05v0.536l-0.232 0.032c-0.104 0.009-0.169 0.063-0.169 0.217v3.677c-0.263 0-0.52 0.008-0.783 0.024-0.641-1.022-1.295-2.039-1.935-3.069h-0.008v2.526c0.135 0 0.295 0.008 0.432 0.008v0.577c-0.544 0.008-1.088 0.015-1.64 0.032v-0.545"/>
    <path id="Fill-38" sketch:type="MSShapeGroup" fill="#232535" mask="url(#mask-4)" d="m32.974 25.887h0.031c0.312-0.977 0.625-1.96 0.935-2.937-0.127 0-0.271-0.008-0.407-0.008v-0.558c0.512-0.024 1.032-0.048 1.544-0.072v0.536l-0.224 0.031c-0.128 0.024-0.168 0.071-0.208 0.208-0.416 1.249-0.848 2.495-1.263 3.751-0.289 0.008-0.585 0.017-0.864 0.032-0.464-1.264-0.912-2.543-1.368-3.815h-0.392v-0.56c0.584-0.024 1.152-0.04 1.736-0.072v0.536l-0.224 0.033c-0.153 0.024-0.249 0.08-0.192 0.247 0.295 0.888 0.599 1.776 0.896 2.648"/>
    <path id="Fill-39" sketch:type="MSShapeGroup" fill="#232535" mask="url(#mask-4)" d="m37.092 26.069c0.855-0.032 1.095-0.83 1.095-1.638 0-0.688-0.183-1.655-1.103-1.615-0.856 0.039-1.144 0.848-1.144 1.654 0 0.769 0.192 1.657 1.152 1.599zm-0.04 0.697c-1.191 0.048-1.943-0.705-1.943-2.222 0-1.713 1.079-2.36 2.015-2.408 1-0.04 1.887 0.527 1.887 2.232 0 1.535-0.791 2.333-1.959 2.398z"/>
    <path id="Fill-40" sketch:type="MSShapeGroup" fill="#232535" mask="url(#mask-4)" d="m39.867 22.679h-0.384v-0.567c0.536-0.016 1.08-0.041 1.615-0.057v0.537l-0.224 0.024c-0.112 0.015-0.191 0.063-0.191 0.224v3.079c0.136 0 0.255 0 0.391 0.008v0.574c-0.544 0.016-1.088 0.04-1.623 0.058v-0.537l0.224-0.032c0.12-0.008 0.192-0.063 0.192-0.231v-3.08"/>
    <path id="Fill-41" sketch:type="MSShapeGroup" fill="#232535" mask="url(#mask-4)" d="m43.641 22.545c-0.839 0.031-1.263 0.637-1.263 1.654 0 1.048 0.344 1.688 1.287 1.638 0.184 0 0.352-0.031 0.489-0.071 0.112-0.048 0.127-0.113 0.127-0.232v-0.534c0.224 0.015 0.464 0.023 0.688 0.023v1.159c-0.368 0.216-0.896 0.296-1.328 0.319-1.359 0.04-2.103-0.695-2.103-2.223 0-1.742 1.072-2.366 2.103-2.397 0.401-0.009 0.856 0.047 1.264 0.247v1.128c-0.224 0.024-0.456 0.039-0.68 0.063v-0.519c0-0.137-0.024-0.177-0.144-0.216-0.135-0.039-0.304-0.048-0.44-0.039"/>
    <path id="Fill-42" sketch:type="MSShapeGroup" fill="#232535" mask="url(#mask-4)" d="m45.497 26.359v-0.545l0.224-0.016c0.112-0.024 0.191-0.056 0.191-0.192v-3.111c-0.12-0.016-0.247-0.016-0.375-0.024v-0.559c1.023-0.023 2.039-0.031 3.062-0.031v1.111c-0.224 0.008-0.463 0.032-0.687 0.039v-0.263c0-0.137-0.008-0.2-0.192-0.2-0.328 0.008-0.663 0.008-0.992 0.008v1.143c0.52 0 1.032-0.015 1.552-0.015v0.687c-0.52 0-1.032 0.008-1.552 0.008v1.247c0.36 0 0.728-0.017 1.087-0.017 0.169 0 0.185-0.071 0.185-0.207v-0.327c0.224 0.008 0.456 0.031 0.679 0.039v1.191c-1.063 0-2.119 0.01-3.182 0.034"/>
    <path id="Fill-43" sketch:type="MSShapeGroup" fill="#515251" mask="url(#mask-4)" d="m45.953 60.034h8.701v0.816h-8.701v-0.816z"/>
    <path id="Fill-44" sketch:type="MSShapeGroup" fill="#515251" mask="url(#mask-4)" d="m1.425 68.853h8.701v0.577h-8.701v-0.577z"/>
    <path id="Fill-45" sketch:type="MSShapeGroup" fill="#515251" mask="url(#mask-4)" d="m33.158 69.878h8.7v0.577h-8.7v-0.577z"/>
    <path id="Fill-46" sketch:type="MSShapeGroup" fill="#515251" mask="url(#mask-4)" d="m43.906 69.878h8.7v0.577h-8.7v-0.577z"/>
   </g>
   <path id="Fill-48" sketch:type="MSShapeGroup" fill="#232535" d="m102.19 106.84l53.05 4.12v-95.555l-53.05 3.287v88.148m53.76 5.6h-0.06l-54.46-4.24c-0.36-0.03-0.65-0.34-0.65-0.71v-89.462c0-0.373 0.3-0.683 0.67-0.703l54.46-3.378c0.22 0.007 0.38 0.055 0.52 0.187 0.15 0.138 0.22 0.325 0.22 0.518v97.078c0 0.2-0.08 0.39-0.22 0.52-0.13 0.12-0.3 0.19-0.48 0.19"/>
   <path id="Fill-49" sketch:type="MSShapeGroup" fill="#B5B7B4" d="m93.343 9.562h4.17s2.897 3.591-0.11 6.953h-3.709l-0.351-6.953"/>
   <path id="Fill-50" sketch:type="MSShapeGroup" fill="#232535" d="m94.364 15.812h2.714c1.871-2.34 0.593-4.751 0.069-5.545h-3.059l0.276 5.545zm3.039 1.408h-3.709c-0.38 0-0.69-0.289-0.704-0.669l-0.352-6.953c-0.014-0.193 0.055-0.38 0.193-0.525 0.132-0.139 0.318-0.214 0.512-0.214h4.17c0.214 0 0.414 0.096 0.552 0.262 1.132 1.401 2.565 4.854-0.138 7.865-0.131 0.152-0.324 0.234-0.524 0.234z"/>
   <path id="Fill-51" sketch:type="MSShapeGroup" fill="#B5B7B4" d="m115.59 6.318h4.17s2.89 3.59-0.12 6.954h-3.71l-0.34-6.954"/>
   <path id="Fill-52" sketch:type="MSShapeGroup" fill="#232535" d="m116.6 12.567h2.72c1.87-2.341 0.6-4.752 0.07-5.545h-3.05l0.26 5.545zm3.04 1.408h-3.71c-0.38 0-0.69-0.289-0.7-0.669l-0.35-6.953c-0.01-0.194 0.06-0.38 0.2-0.526 0.13-0.138 0.32-0.213 0.51-0.213h4.17c0.21 0 0.41 0.095 0.55 0.261 1.13 1.403 2.56 4.854-0.14 7.865-0.13 0.153-0.33 0.235-0.53 0.235z"/>
   <path id="Fill-53" sketch:type="MSShapeGroup" fill="#B5B7B4" d="m137.06 4.613h4.17s2.89 3.589-0.12 6.946h-3.71l-0.34-6.946"/>
   <path id="Fill-54" sketch:type="MSShapeGroup" fill="#232535" d="m138.07 10.854h2.71c1.89-2.354 0.6-4.751 0.09-5.538h-3.07l0.27 5.538zm3.04 1.408h-3.71c-0.38 0-0.69-0.289-0.7-0.669l-0.35-6.946c-0.01-0.193 0.06-0.38 0.19-0.525 0.14-0.137 0.32-0.214 0.52-0.214h4.17c0.21 0 0.41 0.097 0.55 0.262 1.13 1.402 2.55 4.855-0.15 7.858-0.13 0.152-0.32 0.234-0.52 0.234z"/>
   <path id="Fill-55" sketch:type="MSShapeGroup" fill="#B5B7B4" d="m93.343 31.686h4.17s2.897 3.596-0.11 6.953h-3.709l-0.351-6.953"/>
   <path id="Fill-56" sketch:type="MSShapeGroup" fill="#232535" d="m94.364 37.934h2.714c1.885-2.354 0.6-4.756 0.076-5.545h-3.066l0.276 5.545zm3.039 1.408h-3.709c-0.38 0-0.69-0.289-0.704-0.669l-0.352-6.953c-0.014-0.193 0.055-0.38 0.193-0.525 0.132-0.137 0.318-0.214 0.512-0.214h4.17c0.214 0 0.414 0.097 0.552 0.263 1.132 1.402 2.565 4.861-0.138 7.864-0.131 0.152-0.324 0.234-0.524 0.234z"/>
   <path id="Fill-57" sketch:type="MSShapeGroup" fill="#B5B7B4" d="m159.76 29.373h4.17s2.9 3.589-0.11 6.953h-3.71l-0.35-6.953"/>
   <path id="Fill-58" sketch:type="MSShapeGroup" fill="#232535" d="m160.78 35.621h2.71c1.89-2.361 0.61-4.756 0.08-5.543h-3.07l0.28 5.543zm3.04 1.408h-3.71c-0.38 0-0.69-0.289-0.7-0.669l-0.36-6.953c-0.01-0.193 0.06-0.38 0.2-0.525 0.13-0.137 0.31-0.214 0.51-0.214h4.17c0.21 0 0.41 0.097 0.55 0.263 1.13 1.401 2.56 4.854-0.14 7.864-0.13 0.152-0.32 0.234-0.52 0.234z"/>
   <path id="Fill-59" sketch:type="MSShapeGroup" fill="#B5B7B4" d="m159.3 4.115h4.17s2.9 3.591-0.12 6.953h-3.7l-0.35-6.953"/>
   <path id="Fill-60" sketch:type="MSShapeGroup" fill="#232535" d="m160.32 10.365h2.7c1.9-2.356 0.61-4.758 0.09-5.545h-3.07l0.28 5.545zm3.03 1.408h-3.7c-0.38 0-0.69-0.291-0.71-0.671l-0.35-6.953c-0.01-0.193 0.06-0.38 0.19-0.523 0.14-0.139 0.32-0.214 0.52-0.214h4.17c0.21 0 0.41 0.095 0.55 0.261 1.13 1.402 2.56 4.854-0.15 7.865-0.13 0.151-0.32 0.235-0.52 0.235z"/>
   <path id="Fill-61" sketch:type="MSShapeGroup" fill="#B5B7B4" d="m159.3 53.007h4.17s2.9 3.591-0.12 6.946h-3.7l-0.35-6.946"/>
   <path id="Fill-62" sketch:type="MSShapeGroup" fill="#232535" d="m160.32 59.248h2.7c1.88-2.34 0.6-4.742 0.08-5.536h-3.06l0.28 5.536zm3.03 1.41h-3.7c-0.38 0-0.69-0.291-0.71-0.671l-0.35-6.946c-0.01-0.193 0.06-0.38 0.19-0.523 0.14-0.139 0.32-0.216 0.52-0.216h4.17c0.21 0 0.41 0.097 0.55 0.263 1.13 1.402 2.56 4.854-0.15 7.857-0.13 0.152-0.32 0.236-0.52 0.236z"/>
   <path id="Fill-63" sketch:type="MSShapeGroup" fill="#B5B7B4" d="m159.3 78.492h4.17s2.9 3.591-0.12 6.953h-3.7l-0.35-6.953"/>
   <path id="Fill-64" sketch:type="MSShapeGroup" fill="#232535" d="m160.32 84.74h2.7c1.9-2.354 0.61-4.756 0.09-5.543h-3.07l0.28 5.543zm3.03 1.41h-3.7c-0.38 0-0.69-0.291-0.71-0.67l-0.35-6.953c-0.01-0.194 0.06-0.38 0.19-0.526 0.14-0.137 0.32-0.214 0.52-0.214h4.17c0.21 0 0.41 0.098 0.55 0.264 1.13 1.401 2.56 4.854-0.15 7.863-0.13 0.152-0.32 0.236-0.52 0.236z"/>
   <path id="Fill-65" sketch:type="MSShapeGroup" fill="#B5B7B4" d="m159.3 101.5h4.17s2.9 3.59-0.12 6.95h-3.7l-0.35-6.95"/>
   <path id="Fill-66" sketch:type="MSShapeGroup" fill="#232535" d="m160.32 107.75h2.7c1.9-2.36 0.61-4.76 0.09-5.55h-3.07l0.28 5.55zm3.03 1.41h-3.7c-0.38 0-0.69-0.29-0.71-0.67l-0.35-6.96c-0.01-0.19 0.06-0.38 0.19-0.52 0.14-0.14 0.32-0.22 0.52-0.22h4.17c0.21 0 0.41 0.1 0.55 0.27 1.13 1.4 2.56 4.85-0.15 7.86-0.13 0.15-0.32 0.24-0.52 0.24z"/>
   <path id="Fill-67" sketch:type="MSShapeGroup" fill="#B5B7B4" d="m93.343 53.587h4.17s2.897 3.591-0.11 6.946h-3.709l-0.351-6.946"/>
   <path id="Fill-68" sketch:type="MSShapeGroup" fill="#232535" d="m94.364 59.828h2.714c1.871-2.34 0.593-4.742 0.069-5.536h-3.059l0.276 5.536zm3.039 1.41h-3.709c-0.38 0-0.69-0.291-0.704-0.671l-0.352-6.946c-0.014-0.193 0.055-0.38 0.193-0.523 0.132-0.139 0.318-0.216 0.512-0.216h4.17c0.214 0 0.414 0.097 0.552 0.263 1.132 1.402 2.565 4.854-0.138 7.857-0.131 0.152-0.324 0.236-0.524 0.236z"/>
   <path id="Fill-69" sketch:type="MSShapeGroup" fill="#B5B7B4" d="m93.343 75.827h4.17s2.897 3.591-0.11 6.953h-3.709l-0.351-6.953"/>
   <path id="Fill-70" sketch:type="MSShapeGroup" fill="#232535" d="m94.364 82.077h2.714c1.885-2.363 0.6-4.758 0.076-5.545h-3.066l0.276 5.545zm3.039 1.408h-3.709c-0.38 0-0.69-0.291-0.704-0.671l-0.352-6.953c-0.014-0.193 0.055-0.38 0.193-0.524 0.132-0.138 0.318-0.213 0.512-0.213h4.17c0.214 0 0.414 0.095 0.552 0.261 1.132 1.402 2.565 4.854-0.138 7.865-0.131 0.151-0.324 0.235-0.524 0.235z"/>
   <path id="Fill-71" sketch:type="MSShapeGroup" fill="#B5B7B4" d="m93.343 98.647h4.17s2.897 3.593-0.11 6.953h-3.709l-0.351-6.953"/>
   <path id="Fill-72" sketch:type="MSShapeGroup" fill="#232535" d="m94.364 104.9h2.714c1.871-2.35 0.593-4.76 0.069-5.549h-3.059l0.276 5.549zm3.039 1.4h-3.709c-0.38 0-0.69-0.29-0.704-0.67l-0.352-6.949c-0.014-0.194 0.055-0.38 0.193-0.524 0.132-0.138 0.318-0.214 0.512-0.214h4.17c0.214 0 0.414 0.096 0.552 0.262 1.132 1.401 2.565 4.855-0.138 7.865-0.131 0.15-0.324 0.23-0.524 0.23z"/>
   <path id="Fill-73" sketch:type="MSShapeGroup" fill="#B5B7B4" d="m162.46 33.135c0 2.97-2.41 5.386-5.39 5.386-2.97 0-5.38-2.416-5.38-5.386 0-2.982 2.41-5.386 5.38-5.386 2.98 0 5.39 2.404 5.39 5.386"/>
   <path id="Fill-74" sketch:type="MSShapeGroup" fill="#232535" d="m157.07 28.454c-2.58 0-4.68 2.099-4.68 4.681 0 2.583 2.1 4.683 4.68 4.683 2.59 0 4.68-2.1 4.68-4.683 0-2.582-2.09-4.681-4.68-4.681zm0 10.772c-3.36 0-6.09-2.727-6.09-6.091 0-3.362 2.73-6.089 6.09-6.089 3.37 0 6.09 2.727 6.09 6.089 0 3.364-2.72 6.091-6.09 6.091z"/>
   <path id="Fill-75" sketch:type="MSShapeGroup" fill="#B5B7B4" d="m162.46 56.771c0 2.968-2.41 5.384-5.39 5.384-2.97 0-5.38-2.416-5.38-5.384 0-2.984 2.41-5.386 5.38-5.386 2.98 0 5.39 2.402 5.39 5.386"/>
   <path id="Fill-76" sketch:type="MSShapeGroup" fill="#232535" d="m157.07 52.088c-2.58 0-4.68 2.099-4.68 4.683 0 2.582 2.1 4.681 4.68 4.681 2.59 0 4.68-2.099 4.68-4.681 0-2.584-2.09-4.683-4.68-4.683zm0 10.772c-3.36 0-6.09-2.727-6.09-6.089 0-3.364 2.73-6.091 6.09-6.091 3.37 0 6.09 2.727 6.09 6.091 0 3.362-2.72 6.089-6.09 6.089z"/>
   <path id="Fill-77" sketch:type="MSShapeGroup" fill="#B5B7B4" d="m162.46 81.793c0 2.968-2.41 5.386-5.39 5.386-2.97 0-5.38-2.418-5.38-5.386 0-2.983 2.41-5.386 5.38-5.386 2.98 0 5.39 2.403 5.39 5.386"/>
   <path id="Fill-78" sketch:type="MSShapeGroup" fill="#232535" d="m157.07 77.112c-2.58 0-4.68 2.099-4.68 4.681 0 2.581 2.1 4.681 4.68 4.681 2.59 0 4.68-2.1 4.68-4.681 0-2.582-2.09-4.681-4.68-4.681zm0 10.771c-3.36 0-6.09-2.729-6.09-6.09 0-3.362 2.73-6.089 6.09-6.089 3.37 0 6.09 2.727 6.09 6.089 0 3.361-2.72 6.09-6.09 6.09z"/>
   <path id="Fill-79" sketch:type="MSShapeGroup" fill="#B5B7B4" d="m162.46 105.12c0 2.97-2.41 5.38-5.39 5.38-2.97 0-5.38-2.41-5.38-5.38 0-2.98 2.41-5.396 5.38-5.396 2.98 0 5.39 2.416 5.39 5.396"/>
   <path id="Fill-80" sketch:type="MSShapeGroup" fill="#232535" d="m157.07 100.43c-2.58 0-4.68 2.1-4.68 4.69 0 2.58 2.1 4.68 4.68 4.68 2.59 0 4.68-2.1 4.68-4.68 0-2.59-2.09-4.69-4.68-4.69zm0 10.78c-3.36 0-6.09-2.73-6.09-6.09 0-3.37 2.73-6.101 6.09-6.101 3.37 0 6.09 2.731 6.09 6.101 0 3.36-2.72 6.09-6.09 6.09z"/>
   <path id="Fill-81" sketch:type="MSShapeGroup" fill="#B5B7B4" d="m117.9 9.908c0 2.97-2.41 5.386-5.38 5.386-2.98 0-5.39-2.416-5.39-5.386 0-2.982 2.41-5.386 5.39-5.386 2.97 0 5.38 2.404 5.38 5.386"/>
   <path id="Fill-82" sketch:type="MSShapeGroup" fill="#232535" d="m112.52 5.227c-2.59 0-4.68 2.099-4.68 4.681 0 2.583 2.09 4.681 4.68 4.681 2.58 0 4.68-2.098 4.68-4.681 0-2.582-2.1-4.681-4.68-4.681zm0 10.772c-3.37 0-6.09-2.727-6.09-6.091 0-3.362 2.72-6.089 6.09-6.089 3.36 0 6.09 2.727 6.09 6.089 0 3.364-2.73 6.091-6.09 6.091z"/>
   <path id="Fill-83" sketch:type="MSShapeGroup" fill="#B5B7B4" d="m139.76 8.402c0 2.97-2.41 5.386-5.39 5.386s-5.39-2.416-5.39-5.386c0-2.982 2.41-5.384 5.39-5.384s5.39 2.402 5.39 5.384"/>
   <path id="Fill-84" sketch:type="MSShapeGroup" fill="#232535" d="m134.37 3.721c-2.58 0-4.68 2.1-4.68 4.681 0 2.584 2.1 4.683 4.68 4.683s4.68-2.099 4.68-4.683c0-2.581-2.1-4.681-4.68-4.681zm0 10.772c-3.36 0-6.09-2.727-6.09-6.091 0-3.362 2.73-6.089 6.09-6.089s6.09 2.727 6.09 6.089c0 3.364-2.73 6.091-6.09 6.091z"/>
   <path id="Fill-85" sketch:type="MSShapeGroup" fill="#B5B7B4" d="m162.08 7.478c0 2.969-2.41 5.385-5.39 5.385-2.97 0-5.38-2.416-5.38-5.385 0-2.983 2.41-5.385 5.38-5.385 2.98 0 5.39 2.402 5.39 5.385"/>
   <path id="Fill-86" sketch:type="MSShapeGroup" fill="#232535" d="m156.69 2.796c-2.58 0-4.68 2.099-4.68 4.682 0 2.582 2.1 4.681 4.68 4.681 2.59 0 4.68-2.099 4.68-4.681 0-2.583-2.09-4.682-4.68-4.682zm0 10.772c-3.36 0-6.09-2.728-6.09-6.09 0-3.363 2.73-6.09 6.09-6.09 3.37 0 6.09 2.727 6.09 6.09 0 3.362-2.72 6.09-6.09 6.09z"/>
   <path id="Fill-87" sketch:type="MSShapeGroup" fill="#B5B7B4" d="m96.042 12.746c0 2.969-2.41 5.393-5.385 5.393-2.976 0-5.386-2.424-5.386-5.393 0-2.984 2.41-5.386 5.386-5.386 2.975 0 5.385 2.402 5.385 5.386"/>
   <path id="Fill-88" sketch:type="MSShapeGroup" fill="#232535" d="m90.657 8.065c-2.583 0-4.682 2.098-4.682 4.681 0 2.582 2.099 4.688 4.682 4.688 2.581 0 4.681-2.106 4.681-4.688 0-2.583-2.1-4.681-4.681-4.681zm0 10.777c-3.363 0-6.09-2.734-6.09-6.096 0-3.363 2.727-6.091 6.09-6.091 3.362 0 6.09 2.728 6.09 6.091 0 3.362-2.728 6.096-6.09 6.096z"/>
   <path id="Fill-89" sketch:type="MSShapeGroup" fill="#B5B7B4" d="m96.042 34.993c0 2.968-2.41 5.386-5.385 5.386-2.977 0-5.386-2.418-5.386-5.386 0-2.982 2.409-5.393 5.386-5.393 2.975 0 5.385 2.411 5.385 5.393"/>
   <path id="Fill-90" sketch:type="MSShapeGroup" fill="#232535" d="m90.657 30.305c-2.583 0-4.682 2.106-4.682 4.688s2.099 4.681 4.682 4.681c2.581 0 4.681-2.099 4.681-4.681s-2.1-4.688-4.681-4.688m0 10.777c-3.363 0-6.09-2.727-6.09-6.089s2.727-6.098 6.09-6.098c3.362 0 6.09 2.736 6.09 6.098s-2.728 6.089-6.09 6.089"/>
   <path id="Fill-91" sketch:type="MSShapeGroup" fill="#B5B7B4" d="m96.042 79.473c0 2.968-2.41 5.392-5.385 5.392-2.976 0-5.386-2.424-5.386-5.392 0-2.982 2.41-5.386 5.386-5.386 2.975 0 5.385 2.404 5.385 5.386"/>
   <path id="Fill-92" sketch:type="MSShapeGroup" fill="#232535" d="m90.657 74.792c-2.583 0-4.682 2.099-4.682 4.681 0 2.581 2.099 4.688 4.682 4.688 2.581 0 4.681-2.107 4.681-4.688 0-2.582-2.1-4.681-4.681-4.681zm0 10.778c-3.363 0-6.09-2.735-6.09-6.097s2.727-6.089 6.09-6.089c3.362 0 6.09 2.727 6.09 6.089s-2.728 6.097-6.09 6.097z"/>
   <path id="Fill-93" sketch:type="MSShapeGroup" fill="#B5B7B4" d="m96.042 101.72c0 2.97-2.41 5.38-5.385 5.38-2.976 0-5.386-2.41-5.386-5.38 0-2.983 2.41-5.387 5.386-5.387 2.975 0 5.385 2.404 5.385 5.387"/>
   <path id="Fill-94" sketch:type="MSShapeGroup" fill="#232535" d="m90.657 97.038c-2.583 0-4.682 2.1-4.682 4.682 0 2.58 2.099 4.68 4.682 4.68 2.581 0 4.681-2.1 4.681-4.68 0-2.582-2.1-4.682-4.681-4.682zm0 10.772c-3.363 0-6.09-2.73-6.09-6.09 0-3.363 2.727-6.09 6.09-6.09 3.362 0 6.09 2.727 6.09 6.09 0 3.36-2.728 6.09-6.09 6.09z"/>
   <path id="Fill-95" sketch:type="MSShapeGroup" fill="#B5B7B4" d="m96.042 57.233c0 2.968-2.41 5.386-5.385 5.386-2.976 0-5.386-2.418-5.386-5.386 0-2.982 2.41-5.386 5.386-5.386 2.975 0 5.385 2.404 5.385 5.386"/>
   <path id="Fill-96" sketch:type="MSShapeGroup" fill="#232535" d="m90.657 52.552c-2.583 0-4.682 2.099-4.682 4.681s2.099 4.681 4.682 4.681c2.581 0 4.681-2.099 4.681-4.681s-2.1-4.681-4.681-4.681zm0 10.77c-3.363 0-6.09-2.727-6.09-6.089s2.727-6.091 6.09-6.091c3.362 0 6.09 2.729 6.09 6.091s-2.728 6.089-6.09 6.089z"/>
   <path id="Fill-97" sketch:type="MSShapeGroup" fill="#fff" d="m93.438 15.46c-0.117 0-0.227-0.041-0.324-0.111-0.234-0.187-0.276-0.517-0.096-0.746 0.414-0.531 0.642-1.188 0.642-1.857 0-1.014-0.511-1.96-1.367-2.52-0.242-0.159-0.311-0.484-0.152-0.732 0.152-0.248 0.476-0.332 0.732-0.152 1.16 0.752 1.85 2.03 1.85 3.404 0 0.905-0.31 1.795-0.863 2.507-0.11 0.138-0.262 0.207-0.422 0.207"/>
   <path id="Fill-98" sketch:type="MSShapeGroup" fill="#fff" d="m115.33 12.794c-0.11 0-0.22-0.041-0.32-0.109-0.24-0.187-0.28-0.519-0.1-0.746 0.42-0.532 0.64-1.188 0.64-1.858 0-1.022-0.51-1.961-1.36-2.507-0.24-0.159-0.32-0.489-0.16-0.739 0.16-0.234 0.47-0.316 0.74-0.159 1.16 0.753 1.85 2.024 1.85 3.405 0 0.905-0.31 1.794-0.86 2.506-0.12 0.139-0.27 0.207-0.43 0.207"/>
   <path id="Fill-99" sketch:type="MSShapeGroup" fill="#fff" d="m137.11 11.054c-0.12 0-0.23-0.041-0.32-0.109-0.24-0.187-0.28-0.519-0.1-0.746 0.41-0.532 0.64-1.188 0.64-1.851 0-1.022-0.5-1.961-1.36-2.521-0.24-0.159-0.32-0.482-0.15-0.732 0.14-0.241 0.48-0.33 0.73-0.152 1.15 0.746 1.85 2.024 1.85 3.405 0 0.898-0.32 1.787-0.87 2.499-0.11 0.139-0.26 0.207-0.42 0.207"/>
   <path id="Fill-100" sketch:type="MSShapeGroup" fill="#fff" d="m159.36 10.012c-0.12 0-0.23-0.043-0.33-0.111-0.23-0.186-0.27-0.518-0.09-0.746 0.41-0.53 0.64-1.187 0.64-1.849 0-1.023-0.51-1.961-1.37-2.521-0.24-0.159-0.32-0.484-0.15-0.732 0.14-0.241 0.48-0.325 0.73-0.152 1.16 0.753 1.85 2.024 1.85 3.405 0 0.896-0.31 1.787-0.86 2.499-0.11 0.137-0.26 0.207-0.42 0.207"/>
   <path id="Fill-101" sketch:type="MSShapeGroup" fill="#fff" d="m159.81 36.062c-0.11 0-0.22-0.041-0.32-0.109-0.24-0.187-0.28-0.519-0.1-0.746 0.42-0.532 0.65-1.188 0.65-1.851 0-1.022-0.52-1.961-1.37-2.52-0.24-0.158-0.32-0.483-0.15-0.731 0.14-0.243 0.46-0.332 0.73-0.152 1.16 0.752 1.85 2.022 1.85 3.403 0 0.898-0.31 1.789-0.86 2.499-0.12 0.139-0.27 0.207-0.43 0.207"/>
   <path id="Fill-102" sketch:type="MSShapeGroup" fill="#fff" d="m93.432 37.802c-0.118 0-0.228-0.041-0.324-0.109-0.235-0.187-0.277-0.519-0.097-0.746 0.414-0.532 0.642-1.188 0.642-1.858 0-1.015-0.511-1.961-1.367-2.52-0.242-0.158-0.311-0.483-0.152-0.731 0.152-0.25 0.476-0.325 0.732-0.152 1.16 0.753 1.851 2.029 1.851 3.403 0 0.905-0.312 1.796-0.864 2.506-0.11 0.139-0.262 0.207-0.421 0.207"/>
   <path id="Fill-103" sketch:type="MSShapeGroup" fill="#fff" d="m159.81 59.58c-0.11 0-0.22-0.041-0.32-0.109-0.24-0.187-0.28-0.519-0.1-0.746 0.42-0.532 0.65-1.188 0.65-1.851 0-1.022-0.52-1.961-1.37-2.521-0.24-0.159-0.32-0.482-0.15-0.732 0.14-0.241 0.46-0.33 0.73-0.15 1.16 0.751 1.85 2.022 1.85 3.403 0 0.898-0.31 1.787-0.86 2.499-0.12 0.139-0.27 0.207-0.43 0.207"/>
   <path id="Fill-104" sketch:type="MSShapeGroup" fill="#fff" d="m93.287 60.188c-0.117 0-0.227-0.042-0.324-0.11-0.235-0.186-0.276-0.518-0.097-0.746 0.414-0.532 0.642-1.187 0.642-1.851 0-1.022-0.511-1.968-1.367-2.513-0.241-0.16-0.317-0.49-0.159-0.74 0.166-0.234 0.483-0.316 0.739-0.157 1.16 0.753 1.85 2.022 1.85 3.41 0 0.898-0.31 1.789-0.863 2.499-0.11 0.139-0.262 0.208-0.421 0.208"/>
   <path id="Fill-105" sketch:type="MSShapeGroup" fill="#fff" d="m159.67 84.52c-0.12 0-0.23-0.041-0.33-0.11-0.23-0.186-0.27-0.518-0.09-0.746 0.41-0.532 0.64-1.187 0.64-1.858 0-1.021-0.51-1.96-1.37-2.52-0.24-0.159-0.32-0.482-0.15-0.732 0.15-0.241 0.48-0.33 0.73-0.151 1.16 0.751 1.85 2.023 1.85 3.403 0 0.905-0.31 1.795-0.86 2.507-0.11 0.138-0.26 0.207-0.42 0.207"/>
   <path id="Fill-106" sketch:type="MSShapeGroup" fill="#fff" d="m159.67 108.04c-0.12 0-0.23-0.04-0.33-0.11-0.23-0.19-0.27-0.52-0.09-0.75 0.41-0.53 0.64-1.19 0.64-1.86 0-1.02-0.51-1.96-1.37-2.52-0.24-0.16-0.32-0.48-0.15-0.73 0.15-0.24 0.48-0.32 0.73-0.15 1.16 0.75 1.85 2.02 1.85 3.4 0 0.91-0.31 1.8-0.86 2.51-0.11 0.14-0.26 0.21-0.42 0.21"/>
   <g id="Group-109" transform="translate(122 16)">
    <mask id="mask-6" sketch:name="Clip 108" fill="white">
     <use xlink:href="#path-5"/>
    </mask>
    <path id="Fill-107" sketch:type="MSShapeGroup" fill="#EBECE9" mask="url(#mask-6)" d="m0.708 0.547h14.107v12.416h-14.107v-12.416z"/>
   </g>
   <path id="Fill-110" sketch:type="MSShapeGroup" fill="#43455A" d="m123.38 29.862c-0.18 0-0.35-0.068-0.49-0.207-0.19-0.189-0.25-0.455-0.18-0.693l1.9-0.038-0.73 0.731c-0.14 0.139-0.32 0.207-0.5 0.207"/>
   <path id="Fill-111" sketch:type="MSShapeGroup" fill="#43455A" d="m134.88 16.667l0.75-0.752c0.13-0.139 0.31-0.208 0.49-0.208s0.36 0.069 0.5 0.208c0.17 0.172 0.24 0.41 0.2 0.632l-1.94 0.12"/>
   <path id="Fill-112" sketch:type="MSShapeGroup" fill="#EBECE9" d="m128.77 28.839l7.1-7.104c0.14-0.137 0.32-0.206 0.49-0.206 0.18 0 0.36 0.069 0.5 0.206 0.28 0.276 0.28 0.719 0 0.994l-6.06 6.069-2.03 0.041"/>
   <path id="Fill-113" sketch:type="MSShapeGroup" fill="#fff" d="m123.63 35.682c-0.18 0-0.36-0.068-0.5-0.207-0.28-0.275-0.28-0.718 0-0.994l3.97-3.973 2.03-0.041-5.01 5.008c-0.13 0.139-0.31 0.207-0.49 0.207"/>
   <path id="Fill-114" sketch:type="MSShapeGroup" fill="#43455A" d="m127.1 30.508l1.67-1.669 2.03-0.041-1.67 1.669-2.03 0.041"/>
   <path id="Fill-115" sketch:type="MSShapeGroup" fill="#F4F4F2" d="m13.952 27.811s22.634 41.379 24.857 84.869l71.551 4.33s-10.36-63.189-26.526-89.379l-69.882 0.18"/>
   <path id="Fill-116" sketch:type="MSShapeGroup" fill="#232535" d="m40.149 111.34l68.511 4.15c-1.79-10.26-11.499-62.863-25.619-86.442l-66.762 0.172c4.509 8.887 21.626 44.776 23.87 82.12m70.211 7.08l-0.09-0.01-71.544-4.32c-0.718-0.05-1.291-0.62-1.332-1.34-2.175-42.648-24.456-83.848-24.685-84.262-0.234-0.434-0.227-0.967 0.029-1.394 0.248-0.43 0.711-0.698 1.208-0.698l69.882-0.18h0.006c0.491 0 0.947 0.255 1.202 0.671 16.134 26.127 26.294 87.303 26.714 89.893 0.07 0.42-0.05 0.85-0.35 1.17-0.26 0.3-0.64 0.47-1.04 0.47"/>
   <path id="Fill-117" sketch:type="MSShapeGroup" fill="#AEB0AF" d="m88.695 40.454c-3.782-2.698-9.819-3.262-14.21-3.262-3.16 0-5.468 0.292-5.468 0.292-5.389-4.617-19.966-7.046-32.769-8.315l46.793-0.121c1.972 3.294 3.858 7.152 5.649 11.385 0.003 0.014 0.005 0.021 0.005 0.021"/>
   <path id="Fill-118" sketch:type="MSShapeGroup" fill="#1E202D" d="m88.69 40.433c-1.791-4.233-3.677-8.091-5.649-11.385l-46.793 0.121c-11.915-1.182-22.296-1.358-22.296-1.358 10.351-0.731 22.127-0.966 33.024-0.966 19.895 0 36.858 0.786 36.858 0.786 2.365 3.151 4.729 12.306 4.856 12.802"/>
   <path id="Fill-119" sketch:type="MSShapeGroup" fill="#232535" d="m79.795 73.266c-0.131 0-0.255-0.03-0.38-0.091-11.931-5.696-30.67-5.766-30.856-5.766-0.491 0-0.884-0.393-0.884-0.883 0-0.491 0.393-0.884 0.884-0.884 0.78 0 19.319 0.068 31.616 5.945 0.442 0.207 0.629 0.732 0.415 1.174-0.146 0.318-0.463 0.505-0.795 0.505"/>
   <path id="Fill-120" sketch:type="MSShapeGroup" fill="#232535" d="m73.381 74.653c-0.145 0-0.297-0.034-0.435-0.118-4.239-2.388-15.432-3.487-15.542-3.5-0.49-0.042-0.843-0.476-0.795-0.96 0.042-0.483 0.442-0.94 0.96-0.794 0.476 0.041 11.683 1.139 16.247 3.721 0.421 0.234 0.573 0.773 0.331 1.201-0.159 0.291-0.456 0.45-0.766 0.45"/>
   <g id="Group-124" sketch:type="MSShapeGroup" fill="#EA8B30">
    <path id="Fill-121" d="m6.779 31.871l-5.676 2.638c-0.553 0.255-0.801 0.912-0.538 1.464 0.186 0.407 0.587 0.642 1.001 0.642 0.159 0 0.31-0.034 0.462-0.104l5.675-2.637c0.553-0.257 0.802-0.912 0.539-1.465-0.262-0.566-0.925-0.793-1.463-0.538"/>
    <path id="Fill-123" d="m6.585 27.087c0.124 0.048 0.256 0.068 0.387 0.068 0.441 0 0.87-0.275 1.036-0.718 0.207-0.573-0.083-1.208-0.649-1.422l-5.87-2.188c-0.566-0.216-1.201 0.082-1.422 0.648-0.207 0.573 0.083 1.208 0.649 1.422l5.869 2.19"/>
   </g>
   <path id="Fill-125" sketch:type="MSShapeGroup" fill="#EA8B30" d="m10.086 14.893c-0.248-0.552-0.911-0.809-1.457-0.552-0.56 0.248-0.808 0.903-0.56 1.463l2.563 5.711c0.186 0.407 0.593 0.648 1.007 0.648 0.153 0 0.311-0.027 0.456-0.096 0.553-0.25 0.801-0.905 0.553-1.464l-2.562-5.71"/>
   <path id="Fill-126" sketch:type="MSShapeGroup" fill="#EA8B30" d="m21.14 14.016c-0.566-0.235-1.215 0.055-1.436 0.628l-2.258 5.834c-0.221 0.573 0.062 1.209 0.629 1.43 0.131 0.055 0.262 0.075 0.4 0.075 0.442 0 0.856-0.268 1.029-0.703l2.258-5.836c0.221-0.573-0.056-1.208-0.622-1.428"/>
  </g>
 </g>
</svg>
