<svg id="logotype" xmlns="http://www.w3.org/2000/svg" viewBox="0 0 323.77 100"><defs><style>.cls-1{fill:#fff;opacity:0.87;}</style></defs><title>chargebee-logotype-white</title><path class="cls-1" d="M355.46,84a3.67,3.67,0,0,0-5.07,1c-0.18.27-4.62,6.73-12.34,6.73-3,0-5.34-.94-6.83-2.79l-0.29-.39,0.1-.05c18.15-10.44,18-19.31,17.15-22.64-1.06-4-4.63-6.56-9.09-6.56-10.37,0-17.34,11.58-17.34,22.4a22.86,22.86,0,0,0,.35,4c-3.68,2.72-9.39,6.08-14.41,6.08-2.92,0-5.12-.87-6.53-2.58a7.71,7.71,0,0,1-1.18-2c13.9-4,19.17-12.9,18.2-20-0.63-4.64-4.09-7.87-8.41-7.87-9.67,0-16.66,10.16-17.79,20.23a11.75,11.75,0,0,1-5-1.65,30.79,30.79,0,0,0,.37-4.66A17.22,17.22,0,0,0,285.53,65a8.25,8.25,0,0,0-7.4-4.53,4.61,4.61,0,0,0-4.06,2.49c-1.8,3.28-.65,9.66,2.66,14.83a21.87,21.87,0,0,0,2.09,2.77c-1.81,5.83-5.55,11.32-10.45,11.32a6.57,6.57,0,0,1-5.18-2.13c-1.93-2.1-3.16-5.83-3.56-10.54,13.64-17,20.26-33.71,16.49-41.6a7.1,7.1,0,0,0-6.59-4.22c-9.43,0-15,12.21-17.16,37.31-0.13,1.54-.23,3.39-0.21,5.41-5,6.82-13.3,15.7-20.75,15.7a5.42,5.42,0,0,1-4.74-2.2c-0.09-.13-0.18-0.26-0.26-0.39l0.26-.15c18.29-11.83,18-20.68,17.07-23.94-1-3.55-4.23-5.75-8.29-5.75-10.65,0-17.8,12.23-17.8,23.65a24.21,24.21,0,0,0,.19,3c-3.36,2.42-6.14,4.57-8.82,6.66,0.4-3.12,1-7.07,1.66-13h0c0.16-1.2.29-2.18,0.36-2.66,0.6-4.33-6.5-5.22-7.27-.39S200.83,91.83,195,91.83c-3.53,0-5.38-3.92-5-9.62,0.54-9,5.38-16.28,11.38-16.28,2.06,0,3.13,2.2,3.13,2.2,1.89,3.44,7.77.54,6.53-3.1-0.55-1.63-2.54-5.67-9.37-5.67-14,0-18.39,14.22-19,23.6a27,27,0,0,0,.07,4.46c-2,2.39-4.29,4.42-6.56,4.42s-3.63-2.48-2.8-8.2c0.79-5.46,1.35-10,1.73-12.61,1.7-11.94-13.24-11.61-13.24-11.61s-0.16-7-5.92-7c-2.94,0-5.56,2.29-5.56,6.6a7.29,7.29,0,0,0,3.27,6h0c-0.72,6.18-3.62,26.83-10.07,26.83-2.89,0-3.09-3.12-2.83-5.32,0.35-3,.9-8.21,1.09-9.55,0.6-4.33-6.5-5.22-7.27-.39s-2.93,15.26-8.77,15.26c-3.53,0-5.38-4.44-5.1-9.77,0.49-9.15,5.44-16.13,11.44-16.13,2.06,0,3.13,2.2,3.13,2.2,1.56,3.41,7.74,1,6.53-3.1-0.53-1.79-2.54-5.67-9.37-5.67-14,0-18.39,14.22-19,23.6a27.07,27.07,0,0,0,0,4.2c-2,2.73-4.43,4.67-6.71,4.67-2.08,0-3.68-1.07-3.29-5.79,0.18-2.21,2.75-17.28,2.58-20-0.28-4.57-2.36-6.59-7.46-6.59a16.08,16.08,0,0,0-11.12,4.52s2.54-19,3-22.68c0.5-3.83-6.85-3.87-7.33,0-0.21,1.66-2.17,16.74-4,30.65C75,81,66.71,95,54.4,95c-23.32,0-12.56-50.83,9.26-50.83,5.11,0,2.83,8.16-.6,13.14-2.45,3.56,3.72,7.65,7.13,1.9,9.42-15.89,1.48-21.83-6-21.83C31.79,37.35,19.76,102,53.52,102c11.12,0,18.56-6.25,23.35-13-0.5,3.82-.85,6.42-0.92,6.9-0.57,4,6.88,3.66,7.27.33,0.25-2.13,1.36-11,2.3-17.85,0.54-3.89,5.3-11.05,10.75-11.05a2.08,2.08,0,0,1,2,2.37C98.05,71,95.73,87.91,95.89,90.44c0.44,7.06,5.49,8.7,10.29,8.7,3.81,0,6.85-1.8,9.42-4.63a8.84,8.84,0,0,0,7.88,4.61c8.12,0,10.92-5.85,10.92-5.85s1,5.79,8,5.79c14.18,0,17.48-24.73,18.19-33,0.83,0,5.84.34,6.67,3.14s-1.72,11.31-1.93,20.19c-0.11,4.68,1.61,9.7,9,9.7A15.64,15.64,0,0,0,185,94.7a8.8,8.8,0,0,0,7.76,4.42,13.6,13.6,0,0,0,8.42-2.58c-0.11.76-.22,1.51-0.33,2.28l0,0.14c0-.14-18.7,13.36-18.7,26.13,0,5,2.31,8.24,8.21,8.24,11.74,0,15.36-15.66,17.1-28.62l0.24-1.75c1.84-1.39,3.54-2.72,5.2-4,2.44-1.9,4.79-3.74,7.5-5.74,0.13,0.21.26,0.42,0.4,0.62a12.6,12.6,0,0,0,10.69,5.24c8.49,0,16.35-6.52,22-12.89a20.15,20.15,0,0,0,4.37,8.47,14,14,0,0,0,10.57,4.5c8.11,0,13.74-6.47,16.66-14a19.61,19.61,0,0,0,7.26,1.76,16,16,0,0,0,3.21,6.89c2,2.4,5.68,5.26,12.19,5.26s12.87-3.45,17.18-6.41c0.21,0.3.42,0.61,0.65,0.89,2,2.52,5.85,5.52,12.53,5.52,11.74,0,18.18-9.61,18.45-10A3.65,3.65,0,0,0,355.46,84ZM191.34,126a1.81,1.81,0,0,1-1.86-2.09c0-6.37,9.94-15.07,10-15.09C198.18,117.38,194.71,126,191.34,126Zm44.11-60a1.3,1.3,0,0,1,1.27,1.14c0.4,1.35-1,6.68-11.67,14.13C225.66,74.16,230,66,235.45,66Zm34.05-25.33c3.1,0,.56,10.57-9.31,25.38C262.46,46.42,265.72,40.66,269.51,40.66ZM309.12,66c1.63,0,1.74,1.61,1.82,2.19,0.41,3-2.39,8.42-11.58,11.51C300.34,73.25,304.57,66,309.12,66Zm30,0a2.08,2.08,0,0,1,2,1.77c0.57,2.15-2.23,7.38-12,13.39C329.3,74.18,333.51,66,339.09,66Z" transform="translate(-33.33 -33.33)"/></svg>