<?xml version="1.0" encoding="UTF-8" standalone="no"?>
<svg width="106px" height="33px" viewBox="0 0 106 33" version="1.1" xmlns="http://www.w3.org/2000/svg" xmlns:xlink="http://www.w3.org/1999/xlink">
    <!-- Generator: Sketch 3.8.2 (29753) - http://www.bohemiancoding.com/sketch -->
    <title>chargebee-logotype@2x</title>
    <desc>Created with Sketch.</desc>
    <defs></defs>
    <g id="Page-1" stroke="none" stroke-width="1" fill="none" fill-rule="evenodd">
        <g id="Artboard-1" transform="translate(-65.000000, -45.000000)" fill="#212128">
            <g id="header" transform="translate(-5.000000, 0.000000)">
                <path d="M170.105223,55.7779975 C170.459743,55.7779975 170.674853,56.0265851 170.763568,56.3614878 C170.951276,57.0696171 170.034319,58.7959196 166.828224,60.7794413 C166.899128,58.4803515 168.277475,55.7779975 170.105223,55.7779975 L170.105223,55.7779975 Z M160.290669,55.7779975 C160.826045,55.7779975 160.860983,56.3090082 160.886331,56.4992467 C161.021973,57.5018832 160.102619,59.2782486 157.09622,60.2971124 C157.416829,58.1734149 158.803054,55.7779975 160.290669,55.7779975 L160.290669,55.7779975 Z M147.323112,47.4185499 C148.338033,47.4185499 147.504996,50.9077527 144.274582,55.7935342 C145.01445,49.3181733 146.083148,47.4185499 147.323112,47.4185499 L147.323112,47.4185499 Z M136.173712,55.7779975 C136.474112,55.7779975 136.549812,56.0189893 136.589546,56.1557125 C136.720393,56.6021343 136.253865,58.3612367 132.768607,60.8194915 C132.96796,58.4737916 134.38467,55.7779975 136.173712,55.7779975 L136.173712,55.7779975 Z M121.7319,75.5831764 C121.369845,75.5831764 121.124592,75.349435 121.124592,74.8940364 C121.124592,72.7934714 124.378641,69.9215945 124.414264,69.9133082 C123.970001,72.7378845 122.833824,75.5831764 121.7319,75.5831764 L121.7319,75.5831764 Z M175.4631,61.7192404 C174.914022,61.3518832 174.170729,61.5024168 173.803193,62.0544884 C173.742565,62.1452919 172.291601,64.2765851 169.763376,64.2765851 C168.768665,64.2765851 168.016466,63.9668864 167.526988,63.35543 C167.494105,63.314344 167.462593,63.2715317 167.431422,63.2273384 C167.442383,63.2218142 167.453344,63.2155995 167.463963,63.2097301 C173.406541,59.7636849 173.37126,56.8365662 173.080109,55.737602 C172.731754,54.42285 171.564407,53.5735091 170.105223,53.5735091 C166.709366,53.5735091 164.427421,57.395543 164.427421,60.9651915 C164.427421,61.4185185 164.468525,61.8528562 164.540799,62.2688952 C163.337143,63.1665725 161.466237,64.2765851 159.823798,64.2765851 C158.866423,64.2765851 158.147449,63.9900188 157.686402,63.4244821 C157.521302,63.2225047 157.395935,62.9973949 157.301739,62.764344 C161.85364,61.43371 163.578286,58.5062461 163.261787,56.172285 C163.05524,54.6420904 161.922488,53.5735091 160.508861,53.5735091 C157.342158,53.5735091 155.053705,56.9252982 154.683428,60.2508475 C154.077833,60.1876648 153.528755,60.0077841 153.041332,59.7053358 C153.12217,59.1777778 153.162589,58.6595417 153.162589,58.1672003 C153.162589,57.0834275 152.957755,56.13914 152.569667,55.4351538 C152.038743,54.4722222 151.178304,53.9419021 150.146256,53.9419021 C149.593753,53.9419021 149.097082,54.2491839 148.817234,54.7646579 C148.22945,55.8480854 148.604522,57.9517577 149.688977,59.6580352 C149.899291,59.9881042 150.12776,60.292624 150.374725,60.5712492 C149.783515,62.4953861 148.55691,64.3052417 146.95352,64.3052417 C146.233862,64.3052417 145.694717,64.0815129 145.25662,63.6009102 C144.625334,62.9090082 144.223202,61.6778092 144.091327,60.12172 C148.556568,54.4988073 150.724792,48.998462 149.490994,46.394162 C149.071393,45.5078782 148.285625,45 147.334758,45 C144.248207,45 142.410183,49.0278092 141.715529,57.3130257 C141.673055,57.8195229 141.641542,58.4313245 141.647365,59.0969868 C139.997391,61.3473949 137.294475,64.2765851 134.853939,64.2765851 C134.15723,64.2765851 133.649598,64.0393911 133.300901,63.551538 C133.271443,63.5101067 133.243013,63.4666039 133.215268,63.4213748 C133.243698,63.405838 133.272471,63.3889203 133.299873,63.3709667 C139.289379,59.4671061 139.203746,56.5462021 138.889302,55.4714062 C138.546428,54.300973 137.505817,53.5735091 136.173712,53.5735091 C132.68777,53.5735091 130.346567,57.6085687 130.346567,61.3774325 C130.346567,61.7188952 130.367804,62.0489642 130.407195,62.3676397 C129.308354,63.165882 128.396193,63.8767734 127.521367,64.5648776 C127.651872,63.534275 127.847115,62.2319523 128.063937,60.276742 C128.063937,60.276742 128.063937,60.276742 128.063937,60.2763967 C128.116002,59.881764 128.159503,59.5579096 128.181083,59.3990898 C128.376668,57.970747 126.051565,57.675204 125.800147,59.2696171 C125.541193,60.910295 124.840031,64.3052417 122.92939,64.3052417 C121.773689,64.3052417 121.167408,63.0115505 121.279759,61.1295355 C121.456162,58.1699623 123.040371,55.7565913 125.004789,55.7565913 C125.678548,55.7565913 126.028958,56.4833647 126.028958,56.4833647 C126.647912,57.6196171 128.573624,56.6604834 128.167039,55.4589768 C127.98584,54.9224419 127.336743,53.5890458 125.098985,53.5890458 C120.499815,53.5890458 119.078652,58.280791 118.874845,61.3774325 C118.841277,61.8873823 118.850526,62.3793785 118.896767,62.847897 C118.256233,63.635091 117.493073,64.3052417 116.750123,64.3052417 C116.021901,64.3052417 115.560511,63.4873195 115.832481,61.599435 C116.091777,59.7978657 116.275374,58.3091023 116.398343,57.4376648 C116.954614,53.4975518 112.064977,53.6059636 112.064977,53.6059636 C112.064977,53.6059636 112.011542,51.3079096 110.127619,51.3079096 C109.16442,51.3079096 108.308092,52.0629944 108.308092,53.487194 C108.308092,54.8036723 109.378503,55.4510358 109.378503,55.4510358 L109.384668,55.4520716 C109.147636,57.4915254 108.197797,64.3052417 106.08883,64.3052417 C105.143101,64.3052417 105.077677,63.2749843 105.161255,62.5502825 C105.276688,61.5438481 105.457202,59.8396422 105.517488,59.3990898 C105.712731,57.970747 103.38797,57.675204 103.136552,59.2696171 C102.877598,60.910295 102.176093,64.3052417 100.265795,64.3052417 C99.1097515,64.3052417 98.5031283,62.8416824 98.5959543,61.0805085 C98.7548889,58.0615505 100.376433,55.7565913 102.340508,55.7565913 C103.014268,55.7565913 103.36502,56.4833647 103.36502,56.4833647 C103.87642,57.608914 105.89941,56.7996234 105.503444,55.4589768 C105.328068,54.8672003 104.673148,53.5890458 102.435047,53.5890458 C97.835877,53.5890458 96.4150564,58.280791 96.2109077,61.3774325 C96.1790522,61.8566541 96.1869305,62.3196485 96.2259791,62.762963 C95.567291,63.6630571 94.7757008,64.3052417 94.027612,64.3052417 C93.3473445,64.3052417 92.8246415,63.9516949 92.9496655,62.3935342 C93.0082384,61.665725 93.8494957,56.6898305 93.793663,55.7821406 C93.7004945,54.2730069 93.0222822,53.6076899 91.3527838,53.6076899 C89.5973099,53.6076899 88.270343,54.5174513 87.7133868,55.0985248 C87.7133868,55.0985248 88.5443682,48.8196171 88.7019327,47.6139674 C88.8666903,46.3510044 86.4576664,46.3382298 86.3004445,47.6036095 C86.2322807,48.1522285 85.5890066,53.1270873 84.9926593,57.7197426 C83.6499359,60.7186755 80.9278383,65.3410232 76.8979555,65.3410232 C69.263614,65.3410232 72.7868927,48.5672316 79.9283314,48.5672316 C81.6015977,48.5672316 80.854194,51.2616447 79.7320609,52.9047395 C78.9301947,54.07828 80.9497603,55.4282486 82.0653853,53.5303515 C85.1481686,48.2868801 82.5500674,46.3261456 80.108503,46.3261456 C69.4951652,46.3261456 65.5560533,67.6587571 76.6115992,67.6587571 C80.2513386,67.6587571 82.6867374,65.5972065 84.2565592,63.3795982 C84.0918015,64.6391086 83.9791087,65.4974262 83.9561591,65.6576271 C83.7691369,66.9741055 86.2096736,66.8660389 86.3381229,65.7656937 C86.419988,65.0634338 86.7820437,62.1204331 87.0927198,59.8745135 C87.2701511,58.5908349 88.8266141,56.2278719 90.6112031,56.2278719 C91.0321743,56.2278719 91.306542,56.6490898 91.252422,57.009887 C91.1897388,57.4283427 90.4310316,63.0129316 90.4824113,63.8453547 C90.6262745,66.1755179 92.2786463,66.7151601 93.8522359,66.7151601 C95.098708,66.7151601 96.0954746,66.1220025 96.9353617,65.1880728 C97.4919754,66.1268362 98.3551547,66.7099812 99.5156513,66.7099812 C102.175066,66.7099812 103.09168,64.7799749 103.09168,64.7799749 C103.09168,64.7799749 103.409207,66.6916824 105.700057,66.6916824 C110.342044,66.6916824 111.424101,58.5297238 111.656337,55.8087257 C111.927622,55.8190835 113.568348,55.9205901 113.838605,56.8462335 C114.097559,57.733553 113.274798,60.5798807 113.206977,63.5101067 C113.171354,65.0537665 113.73379,66.7099812 116.157543,66.7099812 C117.637964,66.7099812 118.798803,66.0263653 119.639718,65.250565 C120.197017,66.1513497 121.045467,66.7099812 122.179589,66.7099812 C123.488744,66.7099812 124.373846,66.2877276 124.936967,65.8585687 C124.899631,66.1109542 124.864008,66.3581607 124.82907,66.6098556 C124.827015,66.6253923 124.824617,66.6412743 124.822904,66.6571563 C124.82907,66.6098556 118.701182,71.0671689 118.701182,75.2807282 C118.701182,76.9234777 119.456806,78 121.387999,78 C125.231544,78 126.417731,72.8331764 126.984963,68.5553986 C127.01168,68.3534212 127.03737,68.1618016 127.062375,67.978123 C127.663518,67.5189266 128.222529,67.0790647 128.765784,66.6512869 C129.563197,66.0242938 130.335263,65.4173258 131.222762,64.7578782 C131.266606,64.8265851 131.308053,64.8973635 131.35498,64.962963 C132.163011,66.0950722 133.372833,66.6934087 134.853939,66.6934087 C137.634267,66.6934087 140.207706,64.5434714 142.061486,62.4401444 C142.339964,63.478688 142.78731,64.4637163 143.491212,65.2364093 C144.377341,66.2083176 145.574831,66.7220653 146.95352,66.7220653 C149.610195,66.7220653 151.452671,64.5855932 152.406622,62.1035154 C153.133131,62.4432517 153.931572,62.6390144 154.784133,62.6845888 C154.970127,63.5587884 155.321907,64.3311362 155.833649,64.9584746 C156.478978,65.7501569 157.69428,66.6934087 159.823798,66.6934087 C161.938587,66.6934087 164.038305,65.5543942 165.44885,64.5790333 C165.517356,64.6791588 165.585863,64.7792844 165.66122,64.8731952 C166.325731,65.7035468 167.577341,66.6934087 169.763376,66.6934087 C173.606237,66.6934087 175.716231,63.5211551 175.803919,63.3858129 C176.165632,62.8302888 176.012521,62.0872881 175.4631,61.7192404 L175.4631,61.7192404 Z" id="chargebee-logotype"></path>
            </g>
        </g>
    </g>
</svg>