<?xml version="1.0" encoding="UTF-8" standalone="no"?>
<svg xmlns:sketch="http://www.bohemiancoding.com/sketch/ns" xmlns="http://www.w3.org/2000/svg" height="170px" width="282px" version="1.1" xmlns:xlink="http://www.w3.org/1999/xlink" viewBox="0 0 282 170"><!-- Generator: Sketch 3.3.3 (12072) - http://www.bohemiancoding.com/sketch -->
 <title>Imported Layers</title>
 <desc>Created with Sketch.</desc>
 <g id="Page-1" fill-rule="evenodd" sketch:type="MSPage" fill="none">
  <g id="Desktop-HD-Copy-13" transform="translate(-412 -715)" sketch:type="MSArtboardGroup">
   <g id="Imported-Layers" transform="translate(412 715)" sketch:type="MSLayerGroup">
    <path id="Fill-1" sketch:type="MSShapeGroup" fill="#FBF9D6" d="m264.59 34.179c-13.11-3.563-29.95 6.137-43 15.837-11.99 8.902-20.78 17.804-20.58 16.452 3.5-23.556-8.13-47.373-35.59-39.645-29.44 8.314-52.25 43.707-44.1 22.121 9.1-24.057 2.03-48.253-27.934-48.33-15.375-0.03514-34.686 19.454-44.512 29.206-15.847 15.734-28.954 33.689-43.169 50.859-18.345 22.171 16.125 50.581 34.521 28.361 5.104-6.18 1.421 32.01 18.126 49.5 18.322 19.21 49.388 10.25 65.868-6.12 11.51-11.46 24.01-23.3 31.09-37.7 2.06 16.83 7.33 26.39 28.32 24.72 16.68-1.3 30.15-14.91 41.35-25.81 7.54-7.3 14.05-15.668 21.18-23.323 2.88-3.176 5.98-6.059 9.35-8.721 1.91-1.631 3.22-2.451 3.98-2.842 25.64 4.136 31.74-37.33 5.1-44.565m-7.75 43.988c0.34 0.084 0.67 0.128 0.99 0.22-0.31-0.05-0.63-0.119-0.99-0.22m3.33 0.262c0.2-0.069 0.2-0.046 0 0"/>
    <path id="Fill-2" sketch:type="MSShapeGroup" fill="#fff" d="m59.809 43.908s130.76-21.451 143.31-23.519c27.11-4.45 51.82 39.705 26.31 43.897-25.49 4.18-142.08 23.307-142.08 23.307-0.003 0-13.484 1.432-19.675-1.759-4.653-2.403-29.595-37.532-29.595-37.532s0.624-5.084 5.981-5.353c2.352-0.11 3.621 0.235 5.207 0.582 2.026 0.442 4.568 0.884 10.541 0.377"/>
    <path id="Fill-3" sketch:type="MSShapeGroup" fill="#9AD5E6" d="m68.099 46.907s130.76-21.451 143.31-23.508c27.11-4.45 51.82 39.704 26.31 43.885-25.5 4.19-142.08 23.317-142.08 23.317-0.005 0-13.485 1.423-19.678-1.768-4.654-2.394-29.595-37.523-29.595-37.523s0.626-5.094 5.982-5.354c2.354-0.114 3.623 0.233 5.211 0.58 2.025 0.442 4.568 0.883 10.539 0.371"/>
    <path id="Fill-4" sketch:type="MSShapeGroup" fill="#232435" d="m80.5 89.881c-6.153 0-10.769-0.77-13.731-2.298-4.834-2.498-26.084-32.207-30.295-38.137-0.289-0.404-0.404-0.896-0.346-1.385 0.279-2.326 2.288-6.805 7.837-7.083l0.952-0.02c1.854 0 3.125 0.28 4.346 0.558 2.075 0.45 4.326 0.932 10.382 0.432-0.01-0.009 130.6-21.434 143.16-23.5 1.38-0.23 2.79-0.346 4.19-0.346 17.43 0 33.84 17.964 35.04 32.67 0.68 8.429-3.79 14.06-12.28 15.454l-142.09 23.308c-0.237 0.029-3.276 0.347-7.16 0.347m-40.304-42.002c12.008 16.867 25.776 34.86 28.382 36.205 2.355 1.222 6.48 1.865 11.922 1.865 3.673 0 6.606-0.308 6.635-0.317l141.98-23.289c8.07-1.326 9.34-6.853 8.99-11.255-1-12.254-16.93-31.631-34.67-28.757-12.55 2.066-143.31 23.52-143.31 23.52-2.118 0.182-3.725 0.249-5.06 0.249-3.308 0-5.164-0.413-6.663-0.739-1.155-0.259-2.069-0.463-3.49-0.463l-0.761 0.02c-2.683 0.135-3.634 1.941-3.96 2.961"/>
    <path id="Fill-5" sketch:type="MSShapeGroup" fill="#fff" d="m108.79 42.832l4.09 33.582 13.36-2.191-4.09-33.582-13.36 2.191"/>
    <path id="Fill-6" sketch:type="MSShapeGroup" fill="#232435" d="m112.88 77c-0.12 0-0.25-0.037-0.35-0.114-0.13-0.097-0.21-0.241-0.23-0.404l-4.1-33.582c-0.04-0.309 0.18-0.596 0.49-0.654l13.37-2.192c0.16 0 0.32 0.029 0.45 0.115 0.12 0.097 0.21 0.24 0.23 0.405l4.08 33.582c0.04 0.307-0.18 0.596-0.49 0.654l-13.35 2.19h-0.1m-3.44-33.678l3.95 32.41 12.19-1.999-3.94-32.409-12.2 1.998"/>
    <path id="Fill-7" sketch:type="MSShapeGroup" fill="#fff" d="m148.21 36.374l42.67 27.248 11.74-1.923-42.67-27.247-11.74 1.922"/>
    <path id="Fill-8" sketch:type="MSShapeGroup" fill="#232435" d="m190.88 64.207c-0.12 0-0.22-0.028-0.32-0.085l-42.67-27.249c-0.21-0.135-0.31-0.375-0.26-0.616 0.05-0.24 0.24-0.431 0.48-0.47l11.74-1.921c0.14-0.011 0.29 0.008 0.42 0.086l42.66 27.248c0.22 0.133 0.31 0.376 0.26 0.615-0.04 0.239-0.23 0.433-0.48 0.471l-11.73 1.921h-0.1m-41.06-27.497l41.18 26.297 10-1.643-41.18-26.299-10 1.645"/>
    <path id="Fill-9" sketch:type="MSShapeGroup" fill="#fff" d="m143.75 37.104l42.67 27.249 4.46-0.731-42.67-27.248-4.46 0.73"/>
    <path id="Fill-10" sketch:type="MSShapeGroup" fill="#232435" d="m186.42 64.939c-0.12 0-0.22-0.029-0.32-0.087l-42.67-27.248c-0.21-0.134-0.31-0.375-0.26-0.616 0.05-0.239 0.24-0.433 0.48-0.47l4.46-0.731c0.15-0.01 0.29 0.01 0.41 0.087l42.68 27.248c0.21 0.135 0.3 0.374 0.26 0.616-0.05 0.239-0.24 0.432-0.48 0.469l-4.47 0.732h-0.09m-41.06-27.499l41.18 26.298 2.72-0.452-41.18-26.298-2.72 0.452"/>
    <path id="Fill-11" sketch:type="MSShapeGroup" fill="#fff" d="m159.95 34.452l42.67 27.247 4.46-0.739-42.67-27.24-4.46 0.732"/>
    <path id="Fill-12" sketch:type="MSShapeGroup" fill="#232435" d="m202.62 62.286c-0.12 0-0.22-0.028-0.32-0.086l-42.67-27.249c-0.21-0.134-0.31-0.374-0.26-0.614 0.05-0.241 0.24-0.434 0.48-0.471l4.46-0.732c0.15 0 0.29 0.02 0.42 0.087l42.67 27.239c0.21 0.134 0.31 0.374 0.26 0.615-0.05 0.24-0.24 0.423-0.48 0.471l-4.47 0.74h-0.09m-41.06-27.497l41.18 26.295 2.72-0.452-41.18-26.295-2.72 0.452"/>
    <path id="Fill-13" sketch:type="MSShapeGroup" fill="#fff" d="m164.41 33.72l42.67 27.24 10.93-1.788-42.67-27.239-10.93 1.787"/>
    <path id="Fill-14" sketch:type="MSShapeGroup" fill="#232435" d="m207.08 61.546c-0.12 0-0.22-0.03-0.32-0.086l-42.67-27.239c-0.21-0.135-0.31-0.374-0.26-0.616 0.05-0.24 0.24-0.431 0.48-0.471l10.94-1.787c0.14-0.009 0.28 0.009 0.41 0.087l42.67 27.238c0.21 0.135 0.31 0.375 0.26 0.615-0.05 0.241-0.24 0.432-0.48 0.471l-10.93 1.788h-0.1m-41.06-27.489l41.19 26.288 9.19-1.51-41.18-26.286-9.2 1.508"/>
    <path id="Fill-15" sketch:type="MSShapeGroup" fill="#9BD5E7" d="m159.81 35.067l-7 1.153 41.17 26.297 7.01-1.152-41.18-26.298"/>
    <path id="Fill-16" sketch:type="MSShapeGroup" fill="#1D2334" d="m200.99 61.365l-7.01 1.152 0.75 0.479 7.01-1.153-0.75-0.478m-41.62-26.822l-7.32 1.196 0.76 0.481 7-1.153-0.18-0.116c-0.15-0.096-0.24-0.244-0.26-0.408"/>
    <path id="Fill-17" sketch:type="MSShapeGroup" fill="#9BD5E7" d="m164.27 34.338l-2.71 0.451 41.18 26.295 2.72-0.452-0.5-0.322-40.69-25.972"/>
    <path id="Fill-18" sketch:type="MSShapeGroup" fill="#1D2334" d="m163.8 33.817l-4.43 0.726c0.02 0.164 0.11 0.312 0.26 0.408l0.18 0.116 41.93 26.776 4.47-0.734-1.25-0.799 0.5 0.322-2.72 0.452-41.18-26.295 2.71-0.451-0.18-0.117c-0.14-0.091-0.23-0.231-0.26-0.387l-0.03-0.017"/>
    <path id="Fill-19" sketch:type="MSShapeGroup" fill="#1D2334" d="m163.83 33.834c0.03 0.156 0.12 0.296 0.26 0.387l0.18 0.117 41.94 26.771 0.26-0.045-42.64-27.23"/>
    <path id="Fill-20" sketch:type="MSShapeGroup" fill="#75713B" d="m179.19 31.298l-2.98 0.488 42.12 26.886c0.15 0.094 0.24 0.241 0.26 0.402l3.27-0.537-42.67-27.239"/>
    <path id="Fill-21" sketch:type="MSShapeGroup" fill="#9BD5E7" d="m175.22 32.549l-6.2 1.016 41.16 26.291 6.22-1.021-41.18-26.286"/>
    <path id="Fill-22" sketch:type="MSShapeGroup" fill="#1D2334" d="m176.21 31.786l-7.95 1.301 0.76 0.478 6.2-1.016 41.18 26.286-6.22 1.021 0.75 0.48 7.66-1.262c-0.02-0.161-0.11-0.308-0.26-0.402l-42.12-26.886"/>
    <path id="Fill-23" sketch:type="MSShapeGroup" fill="#fff" d="m175.34 31.933l42.67 27.239 4.45-0.731-42.66-27.248-4.46 0.74"/>
    <path id="Fill-24" sketch:type="MSShapeGroup" fill="#232435" d="m218.01 59.758c-0.11 0-0.22-0.029-0.31-0.086l-42.68-27.24c-0.21-0.134-0.3-0.374-0.26-0.614 0.05-0.24 0.24-0.424 0.49-0.471l4.46-0.741c0.13-0.019 0.29 0.011 0.41 0.087l42.66 27.249c0.21 0.135 0.31 0.374 0.26 0.614-0.05 0.241-0.24 0.433-0.48 0.473l-4.45 0.729h-0.1zm-41.05-27.498l41.18 26.296 2.71-0.452-41.17-26.296-2.72 0.452z"/>
    <path id="Fill-25" sketch:type="MSShapeGroup" fill="#fff" d="m204.23 27.185l-24.43 4.008 42.66 27.248 7.92-15.176c-4.93-9.044-15.54-17.809-26.15-16.08"/>
    <path id="Fill-26" sketch:type="MSShapeGroup" fill="#232435" d="m222.46 59.029c-0.11 0-0.22-0.029-0.31-0.087l-42.67-27.249c-0.21-0.134-0.3-0.374-0.25-0.615 0.04-0.24 0.24-0.433 0.48-0.472l24.43-4.007c0.92-0.145 1.87-0.221 2.82-0.221 10.23 0 19.58 8.601 23.93 16.608 0.1 0.174 0.1 0.375 0 0.548l-7.91 15.177c-0.06 0.154-0.2 0.259-0.36 0.296l-0.16 0.022zm-41.04-27.499l40.82 26.066 7.46-14.321c-4.25-7.623-13.1-15.716-22.74-15.716-0.88 0-1.76 0.068-2.63 0.212l-22.91 3.759z"/>
    <path id="Fill-27" sketch:type="MSShapeGroup" fill="#CBCCCB" d="m208.9 30.723c3.05 1.93 4.25 5.526 2.66 8.043-1.6 2.51-5.35 2.991-8.41 1.068-3.05-1.923-4.24-5.527-2.66-8.036 1.59-2.518 5.34-2.999 8.41-1.075"/>
    <path id="Fill-28" sketch:type="MSShapeGroup" fill="#fff" d="m222.46 58.441l5.86-0.962c2.14-0.345 3.58-1.066 4.24-2.132 0.67-1.077 0.85-2.836 0.5-4.941-0.37-2.278-1.37-4.719-2.68-7.141l-7.92 15.176"/>
    <path id="Fill-29" sketch:type="MSShapeGroup" fill="#232435" d="m222.46 59.029c-0.19 0-0.36-0.087-0.48-0.242-0.12-0.182-0.14-0.422-0.04-0.615l7.92-15.176c0.09-0.201 0.3-0.318 0.51-0.318h0.01c0.21 0 0.41 0.117 0.51 0.308 1.49 2.72 2.41 5.181 2.75 7.323 0.37 2.26 0.17 4.153-0.58 5.355-0.76 1.211-2.32 2.028-4.65 2.402l-5.85 0.963h-0.1zm7.92-14.486l-6.85 13.119 4.69-0.769c1.94-0.307 3.27-0.95 3.84-1.854 0.59-0.941 0.74-2.594 0.41-4.536-0.28-1.759-0.98-3.758-2.09-5.96z"/>
    <path id="Fill-30" sketch:type="MSShapeGroup" fill="#fff" d="m60.395 50.772c-2.066 0.172-3.739 0.22-5.23 0.22l36.998 28.824 4.74-0.777-36.334-28.306-0.174 0.039"/>
    <path id="Fill-31" sketch:type="MSShapeGroup" fill="#232435" d="m92.163 80.404c-0.135 0-0.259-0.039-0.364-0.125l-36.998-28.824c-0.194-0.155-0.28-0.414-0.194-0.655 0.077-0.24 0.309-0.394 0.558-0.394 1.749 0 3.394-0.077 5.182-0.22l0.097-0.03c0.163-0.048 0.355 0 0.49 0.116l36.334 28.305c0.183 0.145 0.27 0.384 0.211 0.605-0.056 0.231-0.249 0.404-0.48 0.443l-4.739 0.779h-0.097zm-35.306-28.845l35.47 27.633 3.143-0.519-35.065-27.315c-1.239 0.106-2.394 0.172-3.548 0.201z"/>
    <path id="Fill-32" sketch:type="MSShapeGroup" fill="#fff" d="m108.79 42.832l-48.221 7.901 36.334 28.306 15.977-2.625-4.09-33.582"/>
    <path id="Fill-33" sketch:type="MSShapeGroup" fill="#232435" d="m96.903 79.625c-0.135 0-0.259-0.039-0.365-0.125l-36.334-28.305c-0.183-0.144-0.269-0.385-0.212-0.606 0.058-0.231 0.251-0.403 0.481-0.442l48.217-7.901c0.16 0.01 0.33 0.019 0.45 0.116 0.13 0.096 0.21 0.239 0.23 0.404l4.1 33.581c0.04 0.309-0.18 0.596-0.49 0.653l-15.981 2.625h-0.096zm-34.902-28.526l35.066 27.315 15.163-2.49-3.95-32.408-46.279 7.583z"/>
    <path id="Fill-34" sketch:type="MSShapeGroup" fill="#232435" d="m65.597 53.521c-0.317 0.056-0.625-0.183-0.664-0.52-0.047-0.335 0.175-0.653 0.491-0.69 0.328-0.049 0.625 0.19 0.673 0.517 0.058 0.345-0.163 0.653-0.5 0.693"/>
    <path id="Fill-35" sketch:type="MSShapeGroup" fill="#232435" d="m69.039 53.021c-0.326 0.057-0.634-0.183-0.672-0.52-0.057-0.336 0.172-0.653 0.491-0.691 0.326-0.058 0.632 0.182 0.673 0.519 0.056 0.337-0.165 0.654-0.492 0.692"/>
    <path id="Fill-36" sketch:type="MSShapeGroup" fill="#232435" d="m70.271 56.193c-0.319 0.058-0.626-0.193-0.674-0.519-0.058-0.337 0.173-0.654 0.499-0.703 0.318-0.047 0.626 0.182 0.664 0.529 0.059 0.336-0.163 0.654-0.489 0.693"/>
    <path id="Fill-37" sketch:type="MSShapeGroup" fill="#232435" d="m72.029 59.018c-0.317 0.038-0.624-0.193-0.672-0.529-0.058-0.337 0.183-0.644 0.5-0.702 0.319-0.039 0.625 0.193 0.673 0.529s-0.172 0.645-0.501 0.702"/>
    <path id="Fill-38" sketch:type="MSShapeGroup" fill="#232435" d="m72.472 52.52c-0.318 0.059-0.626-0.182-0.673-0.517-0.058-0.348 0.163-0.655 0.501-0.703 0.316-0.048 0.624 0.182 0.663 0.528 0.057 0.337-0.174 0.644-0.491 0.692"/>
    <path id="Fill-39" sketch:type="MSShapeGroup" fill="#232435" d="m73.703 55.692c-0.316 0.048-0.625-0.192-0.673-0.518-0.048-0.346 0.163-0.653 0.5-0.702 0.317-0.047 0.625 0.182 0.673 0.529 0.048 0.336-0.182 0.643-0.5 0.691"/>
    <path id="Fill-40" sketch:type="MSShapeGroup" fill="#232435" d="m75.731 50.8c0.318-0.049 0.616 0.182 0.674 0.529 0.039 0.336-0.184 0.644-0.499 0.691-0.329 0.048-0.627-0.183-0.683-0.519-0.039-0.345 0.172-0.653 0.508-0.701"/>
    <path id="Fill-41" sketch:type="MSShapeGroup" fill="#232435" d="m75.462 58.508c-0.318 0.048-0.625-0.181-0.663-0.519-0.058-0.335 0.163-0.653 0.49-0.7 0.317-0.04 0.624 0.19 0.673 0.527 0.059 0.336-0.181 0.646-0.5 0.692"/>
    <path id="Fill-42" sketch:type="MSShapeGroup" fill="#232435" d="m76.704 61.326c-0.329 0.056-0.636-0.183-0.673-0.52-0.06-0.346 0.162-0.653 0.489-0.701 0.317-0.049 0.625 0.183 0.673 0.527 0.058 0.338-0.173 0.645-0.489 0.694"/>
    <path id="Fill-43" sketch:type="MSShapeGroup" fill="#232435" d="m77.135 55.192c-0.327 0.04-0.625-0.191-0.683-0.518-0.039-0.346 0.183-0.653 0.51-0.701 0.318-0.049 0.616 0.183 0.673 0.518 0.039 0.345-0.172 0.654-0.5 0.701"/>
    <path id="Fill-44" sketch:type="MSShapeGroup" fill="#232435" d="m80.386 53.473c0.336-0.049 0.624 0.182 0.681 0.518 0.048 0.337-0.173 0.644-0.49 0.702-0.336 0.038-0.634-0.193-0.683-0.529-0.046-0.336 0.174-0.643 0.492-0.691"/>
    <path id="Fill-45" sketch:type="MSShapeGroup" fill="#232435" d="m79.154 50.302c0.328-0.049 0.625 0.18 0.683 0.527 0.039 0.336-0.172 0.644-0.5 0.693-0.326 0.037-0.625-0.193-0.683-0.53-0.038-0.335 0.183-0.644 0.5-0.69"/>
    <path id="Fill-46" sketch:type="MSShapeGroup" fill="#232435" d="m78.904 58.01c-0.336 0.048-0.634-0.183-0.682-0.531-0.049-0.335 0.173-0.642 0.499-0.69 0.319-0.039 0.616 0.191 0.673 0.518 0.049 0.347-0.172 0.654-0.49 0.703"/>
    <path id="Fill-47" sketch:type="MSShapeGroup" fill="#232435" d="m79.453 60.306c-0.05-0.347 0.172-0.653 0.498-0.702 0.329-0.048 0.626 0.183 0.674 0.53 0.049 0.337-0.173 0.643-0.49 0.692-0.337 0.048-0.624-0.194-0.682-0.52"/>
    <path id="Fill-48" sketch:type="MSShapeGroup" fill="#232435" d="m80.836 64.17c-0.325 0.048-0.624-0.182-0.681-0.519-0.049-0.346 0.172-0.655 0.509-0.702 0.317-0.048 0.616 0.183 0.673 0.529 0.038 0.335-0.183 0.644-0.501 0.692"/>
    <path id="Fill-49" sketch:type="MSShapeGroup" fill="#232435" d="m109.35 62.286c0.32-0.049 0.63 0.192 0.67 0.519 0.06 0.346-0.16 0.653-0.49 0.702-0.32 0.048-0.63-0.183-0.68-0.528-0.05-0.338 0.18-0.645 0.5-0.693"/>
    <path id="Fill-50" sketch:type="MSShapeGroup" fill="#232435" d="m108.11 43.322c0.33-0.047 0.64 0.183 0.68 0.529 0.05 0.326-0.18 0.645-0.49 0.692-0.34 0.049-0.64-0.191-0.68-0.528-0.05-0.337 0.17-0.645 0.49-0.693"/>
    <path id="Fill-51" sketch:type="MSShapeGroup" fill="#232435" d="m108.11 58.942c0.33-0.059 0.64 0.192 0.68 0.518 0.05 0.347-0.17 0.654-0.49 0.702-0.33 0.048-0.64-0.183-0.68-0.529-0.05-0.335 0.18-0.644 0.49-0.691"/>
    <path id="Fill-52" sketch:type="MSShapeGroup" fill="#232435" d="m107.59 56.818c-0.32 0.048-0.63-0.183-0.67-0.53-0.06-0.336 0.18-0.644 0.49-0.692 0.32-0.058 0.63 0.183 0.67 0.52 0.06 0.346-0.16 0.653-0.49 0.702"/>
    <path id="Fill-53" sketch:type="MSShapeGroup" fill="#232435" d="m107.85 49.465c0.32-0.058 0.63 0.183 0.68 0.519 0.05 0.325-0.18 0.653-0.5 0.691-0.32 0.048-0.63-0.183-0.68-0.519-0.04-0.346 0.18-0.654 0.5-0.691"/>
    <path id="Fill-54" sketch:type="MSShapeGroup" fill="#232435" d="m106.62 46.293c0.32-0.058 0.63 0.182 0.68 0.518 0.05 0.337-0.19 0.655-0.5 0.702-0.32 0.048-0.63-0.183-0.68-0.527-0.05-0.337 0.17-0.655 0.5-0.693"/>
    <path id="Fill-55" sketch:type="MSShapeGroup" fill="#232435" d="m106.18 52.77c0.32-0.038 0.63 0.194 0.67 0.53 0.05 0.336-0.17 0.643-0.49 0.701-0.32 0.039-0.63-0.193-0.68-0.528-0.05-0.337 0.18-0.645 0.5-0.703"/>
    <path id="Fill-56" sketch:type="MSShapeGroup" fill="#232435" d="m105.91 62.786c0.34-0.039 0.64 0.193 0.68 0.519 0.05 0.346-0.17 0.654-0.49 0.701-0.32 0.048-0.62-0.182-0.68-0.528-0.05-0.337 0.18-0.644 0.49-0.692"/>
    <path id="Fill-57" sketch:type="MSShapeGroup" fill="#232435" d="m104.68 59.441c0.33-0.038 0.63 0.192 0.68 0.518 0.05 0.347-0.17 0.655-0.51 0.702-0.31 0.048-0.61-0.182-0.66-0.527-0.05-0.337 0.17-0.645 0.49-0.693"/>
    <path id="Fill-58" sketch:type="MSShapeGroup" fill="#232435" d="m104.15 57.317c-0.31 0.048-0.61-0.183-0.67-0.528-0.04-0.337 0.18-0.645 0.5-0.693 0.33-0.048 0.62 0.192 0.68 0.52 0.04 0.345-0.17 0.652-0.51 0.701"/>
    <path id="Fill-59" sketch:type="MSShapeGroup" fill="#232435" d="m104.68 43.822c0.32-0.048 0.63 0.183 0.68 0.53 0.05 0.326-0.18 0.643-0.51 0.692-0.31 0.048-0.62-0.183-0.66-0.52-0.06-0.347 0.16-0.653 0.49-0.702"/>
    <path id="Fill-60" sketch:type="MSShapeGroup" fill="#232435" d="m104.42 49.965c0.32-0.059 0.63 0.182 0.67 0.517 0.06 0.347-0.17 0.655-0.49 0.693-0.32 0.049-0.63-0.183-0.68-0.518-0.06-0.348 0.18-0.654 0.5-0.692"/>
    <path id="Fill-61" sketch:type="MSShapeGroup" fill="#232435" d="m103.18 46.792c0.33-0.057 0.64 0.183 0.67 0.519 0.06 0.347-0.16 0.654-0.49 0.702-0.31 0.049-0.63-0.182-0.67-0.529-0.06-0.336 0.17-0.644 0.49-0.692"/>
    <path id="Fill-62" sketch:type="MSShapeGroup" fill="#232435" d="m102.75 53.27c0.33-0.037 0.62 0.193 0.68 0.53 0.04 0.335-0.18 0.643-0.51 0.7-0.32 0.04-0.61-0.191-0.67-0.52-0.05-0.344 0.17-0.653 0.5-0.71"/>
    <path id="Fill-63" sketch:type="MSShapeGroup" fill="#232435" d="m102.48 63.286c0.33-0.04 0.62 0.192 0.68 0.527 0.05 0.337-0.17 0.646-0.49 0.693-0.33 0.049-0.63-0.181-0.68-0.518s0.17-0.654 0.49-0.702"/>
    <path id="Fill-64" sketch:type="MSShapeGroup" fill="#232435" d="m101.25 59.941c0.33-0.039 0.63 0.193 0.68 0.53 0.04 0.335-0.17 0.642-0.5 0.69-0.32 0.049-0.62-0.183-0.68-0.529-0.04-0.336 0.18-0.644 0.5-0.691"/>
    <path id="Fill-65" sketch:type="MSShapeGroup" fill="#232435" d="m100.73 57.816c-0.33 0.049-0.62-0.183-0.68-0.527-0.04-0.337 0.17-0.646 0.5-0.693 0.32-0.039 0.62 0.193 0.68 0.528 0.04 0.337-0.18 0.645-0.5 0.692"/>
    <path id="Fill-66" sketch:type="MSShapeGroup" fill="#232435" d="m101.25 44.331c0.32-0.057 0.63 0.183 0.67 0.52 0.05 0.337-0.16 0.644-0.5 0.693-0.31 0.047-0.62-0.183-0.67-0.52-0.05-0.346 0.18-0.653 0.5-0.693"/>
    <path id="Fill-67" sketch:type="MSShapeGroup" fill="#232435" d="m100.98 50.464c0.34-0.048 0.63 0.182 0.68 0.518 0.05 0.347-0.17 0.655-0.5 0.694-0.32 0.057-0.61-0.183-0.67-0.52-0.05-0.336 0.17-0.644 0.49-0.692"/>
    <path id="Fill-68" sketch:type="MSShapeGroup" fill="#232435" d="m99.749 47.292c0.341-0.037 0.621 0.192 0.681 0.519 0.05 0.346-0.17 0.654-0.498 0.701-0.326 0.049-0.625-0.181-0.672-0.529-0.049-0.336 0.172-0.642 0.489-0.691"/>
    <path id="Fill-69" sketch:type="MSShapeGroup" fill="#232435" d="m99.307 53.779c0.336-0.047 0.635 0.183 0.681 0.53 0.052 0.326-0.171 0.644-0.489 0.692-0.336 0.048-0.625-0.192-0.683-0.52-0.047-0.346 0.174-0.653 0.491-0.702"/>
    <path id="Fill-70" sketch:type="MSShapeGroup" fill="#232435" d="m99.057 63.787c0.317-0.04 0.615 0.19 0.674 0.527 0.037 0.335-0.174 0.644-0.5 0.701-0.328 0.038-0.627-0.191-0.683-0.528-0.039-0.337 0.182-0.644 0.509-0.7"/>
    <path id="Fill-71" sketch:type="MSShapeGroup" fill="#232435" d="m97.816 44.833c0.328-0.049 0.626 0.18 0.684 0.518 0.039 0.336-0.183 0.652-0.509 0.692-0.318 0.047-0.616-0.182-0.674-0.52-0.039-0.345 0.173-0.653 0.499-0.69"/>
    <path id="Fill-72" sketch:type="MSShapeGroup" fill="#232435" d="m97.827 60.44c0.317-0.038 0.615 0.192 0.673 0.53 0.039 0.335-0.183 0.643-0.501 0.692-0.326 0.048-0.624-0.183-0.682-0.519-0.039-0.337 0.173-0.646 0.51-0.703"/>
    <path id="Fill-73" sketch:type="MSShapeGroup" fill="#232435" d="m97.299 58.316c-0.329 0.049-0.626-0.182-0.684-0.519-0.048-0.336 0.173-0.653 0.509-0.701 0.317-0.038 0.617 0.193 0.664 0.529 0.048 0.336-0.173 0.644-0.489 0.691"/>
    <path id="Fill-74" sketch:type="MSShapeGroup" fill="#232435" d="m97.548 50.963c0.326-0.047 0.626 0.183 0.683 0.519 0.047 0.346-0.175 0.654-0.49 0.703-0.338 0.047-0.636-0.182-0.683-0.53-0.049-0.335 0.172-0.643 0.49-0.692"/>
    <path id="Fill-75" sketch:type="MSShapeGroup" fill="#232435" d="m96.316 47.793c0.328-0.039 0.625 0.19 0.683 0.527 0.049 0.337-0.172 0.644-0.5 0.693-0.326 0.048-0.623-0.183-0.681-0.53-0.039-0.335 0.181-0.643 0.498-0.69"/>
    <path id="Fill-76" sketch:type="MSShapeGroup" fill="#232435" d="m95.883 54.279c0.319-0.048 0.616 0.183 0.674 0.53 0.048 0.336-0.173 0.653-0.491 0.691-0.337 0.048-0.634-0.192-0.682-0.519-0.049-0.346 0.173-0.653 0.499-0.702"/>
    <path id="Fill-77" sketch:type="MSShapeGroup" fill="#232435" d="m95.626 64.294c0.315-0.048 0.623 0.183 0.672 0.52 0.047 0.336-0.173 0.653-0.501 0.702-0.316 0.037-0.624-0.194-0.673-0.53-0.047-0.337 0.164-0.643 0.502-0.692"/>
    <path id="Fill-78" sketch:type="MSShapeGroup" fill="#232435" d="m94.375 45.331c0.336-0.049 0.634 0.183 0.682 0.52 0.048 0.346-0.174 0.653-0.49 0.691-0.327 0.058-0.624-0.181-0.681-0.518-0.05-0.347 0.172-0.654 0.489-0.693"/>
    <path id="Fill-79" sketch:type="MSShapeGroup" fill="#232435" d="m94.394 60.949c0.317-0.047 0.625 0.183 0.663 0.519 0.059 0.337-0.163 0.644-0.49 0.703-0.318 0.038-0.624-0.192-0.674-0.529-0.057-0.337 0.165-0.644 0.501-0.693"/>
    <path id="Fill-80" sketch:type="MSShapeGroup" fill="#232435" d="m93.864 58.817c-0.326 0.048-0.633-0.183-0.673-0.52-0.057-0.336 0.164-0.643 0.491-0.701 0.327-0.038 0.636 0.191 0.673 0.529 0.058 0.337-0.162 0.643-0.491 0.692"/>
    <path id="Fill-81" sketch:type="MSShapeGroup" fill="#232435" d="m94.124 51.464c0.319-0.049 0.617 0.191 0.673 0.528 0.039 0.337-0.172 0.643-0.5 0.692-0.325 0.048-0.625-0.183-0.682-0.528-0.038-0.328 0.183-0.644 0.509-0.692"/>
    <path id="Fill-82" sketch:type="MSShapeGroup" fill="#232435" d="m92.894 48.292c0.318-0.039 0.616 0.191 0.674 0.528 0.038 0.337-0.183 0.645-0.502 0.693-0.327 0.047-0.624-0.183-0.681-0.52-0.039-0.336 0.182-0.654 0.509-0.701"/>
    <path id="Fill-83" sketch:type="MSShapeGroup" fill="#232435" d="m92.453 54.788c0.316-0.057 0.623 0.183 0.673 0.52 0.057 0.336-0.165 0.654-0.501 0.692-0.317 0.048-0.625-0.192-0.673-0.519-0.048-0.336 0.173-0.653 0.501-0.693"/>
    <path id="Fill-84" sketch:type="MSShapeGroup" fill="#232435" d="m90.953 45.831c0.326-0.048 0.613 0.183 0.672 0.52 0.049 0.346-0.173 0.653-0.489 0.691-0.337 0.058-0.637-0.183-0.684-0.519-0.048-0.326 0.172-0.654 0.501-0.692"/>
    <path id="Fill-85" sketch:type="MSShapeGroup" fill="#232435" d="m90.953 61.45c0.326-0.049 0.633 0.183 0.672 0.529 0.057 0.326-0.163 0.643-0.489 0.692-0.33 0.037-0.637-0.193-0.673-0.531-0.059-0.335 0.161-0.642 0.49-0.69"/>
    <path id="Fill-86" sketch:type="MSShapeGroup" fill="#232435" d="m90.423 59.326c-0.318 0.038-0.625-0.192-0.663-0.529-0.058-0.335 0.162-0.645 0.491-0.693 0.316-0.046 0.624 0.183 0.674 0.521 0.056 0.336-0.166 0.653-0.502 0.701"/>
    <path id="Fill-87" sketch:type="MSShapeGroup" fill="#232435" d="m90.692 51.963c0.319-0.038 0.625 0.193 0.674 0.529 0.048 0.336-0.165 0.644-0.501 0.692-0.317 0.049-0.624-0.183-0.673-0.529-0.048-0.326 0.163-0.644 0.5-0.692"/>
    <path id="Fill-88" sketch:type="MSShapeGroup" fill="#232435" d="m89.461 48.792c0.318-0.039 0.626 0.192 0.664 0.527 0.058 0.337-0.163 0.646-0.491 0.694-0.317 0.048-0.625-0.184-0.673-0.52-0.056-0.336 0.164-0.644 0.5-0.701"/>
    <path id="Fill-89" sketch:type="MSShapeGroup" fill="#232435" d="m89.019 55.289c0.317-0.057 0.625 0.182 0.673 0.519 0.049 0.336-0.173 0.654-0.5 0.691-0.318 0.058-0.625-0.182-0.673-0.517-0.047-0.338 0.165-0.655 0.5-0.693"/>
    <path id="Fill-90" sketch:type="MSShapeGroup" fill="#232435" d="m87.52 46.331c0.315-0.048 0.624 0.192 0.673 0.52 0.057 0.346-0.164 0.653-0.5 0.702-0.317 0.048-0.625-0.183-0.665-0.53-0.056-0.326 0.166-0.644 0.492-0.692"/>
    <path id="Fill-91" sketch:type="MSShapeGroup" fill="#232435" d="m87.26 52.463c0.316-0.04 0.624 0.192 0.664 0.529 0.057 0.335-0.165 0.644-0.491 0.691-0.319 0.049-0.625-0.181-0.673-0.528-0.058-0.327 0.163-0.644 0.5-0.692"/>
    <path id="Fill-92" sketch:type="MSShapeGroup" fill="#232435" d="m86.019 49.301c0.328-0.048 0.635 0.183 0.673 0.519 0.059 0.336-0.163 0.654-0.489 0.702-0.328 0.038-0.635-0.193-0.674-0.53-0.057-0.336 0.163-0.643 0.49-0.691"/>
    <path id="Fill-93" sketch:type="MSShapeGroup" fill="#232435" d="m85.587 55.788c0.326-0.057 0.625 0.183 0.682 0.52 0.038 0.335-0.183 0.653-0.509 0.701-0.317 0.049-0.616-0.183-0.673-0.527-0.048-0.338 0.174-0.655 0.5-0.694"/>
    <path id="Fill-94" sketch:type="MSShapeGroup" fill="#232435" d="m83.818 52.964c0.335-0.04 0.635 0.191 0.683 0.527 0.048 0.337-0.173 0.644-0.501 0.702-0.317 0.038-0.615-0.192-0.672-0.528-0.049-0.338 0.172-0.654 0.49-0.701"/>
    <path id="Fill-95" sketch:type="MSShapeGroup" fill="#232435" d="m82.586 49.801c0.326-0.048 0.627 0.183 0.684 0.528 0.047 0.328-0.175 0.645-0.511 0.693-0.316 0.038-0.614-0.193-0.663-0.53-0.047-0.336 0.174-0.642 0.49-0.691"/>
    <path id="Fill-96" sketch:type="MSShapeGroup" fill="#232435" d="m82.336 57.509c-0.335 0.049-0.635-0.182-0.681-0.529-0.049-0.337 0.171-0.643 0.49-0.692 0.337-0.057 0.635 0.194 0.682 0.519 0.049 0.347-0.172 0.654-0.491 0.702"/>
    <path id="Fill-97" sketch:type="MSShapeGroup" fill="#232435" d="m82.884 59.797c-0.047-0.337 0.175-0.645 0.501-0.693s0.625 0.183 0.683 0.529c0.038 0.337-0.183 0.644-0.5 0.692-0.326 0.039-0.626-0.191-0.684-0.528"/>
    <path id="Fill-98" sketch:type="MSShapeGroup" fill="#232435" d="m84.27 63.669c-0.328 0.049-0.626-0.191-0.684-0.528-0.038-0.336 0.183-0.644 0.502-0.691 0.326-0.048 0.624 0.182 0.682 0.529 0.037 0.335-0.183 0.643-0.5 0.69"/>
    <path id="Fill-99" sketch:type="MSShapeGroup" fill="#232435" d="m84.828 66.495c-0.049-0.345 0.172-0.653 0.49-0.701 0.325-0.048 0.624 0.183 0.682 0.529 0.048 0.336-0.173 0.644-0.489 0.693-0.336 0.047-0.635-0.183-0.683-0.521"/>
    <path id="Fill-100" sketch:type="MSShapeGroup" fill="#232435" d="m86.386 69.841c-0.328 0.038-0.626-0.193-0.684-0.538-0.039-0.328 0.173-0.635 0.501-0.693 0.326-0.047 0.623 0.193 0.683 0.519 0.037 0.346-0.184 0.655-0.5 0.712"/>
    <path id="Fill-101" sketch:type="MSShapeGroup" fill="#232435" d="m86.317 59.298c-0.039-0.337 0.183-0.646 0.5-0.693 0.327-0.049 0.626 0.182 0.683 0.529 0.038 0.326-0.182 0.643-0.511 0.691-0.316 0.039-0.614-0.192-0.672-0.527"/>
    <path id="Fill-102" sketch:type="MSShapeGroup" fill="#232435" d="m87.693 63.17c-0.317 0.039-0.617-0.191-0.665-0.529-0.047-0.336 0.174-0.643 0.492-0.691 0.326-0.048 0.624 0.183 0.68 0.528 0.05 0.327-0.171 0.645-0.507 0.692"/>
    <path id="Fill-103" sketch:type="MSShapeGroup" fill="#232435" d="m88.26 65.987c-0.049-0.337 0.173-0.645 0.49-0.692 0.337-0.048 0.634 0.182 0.683 0.527 0.048 0.328-0.174 0.646-0.5 0.692-0.328 0.04-0.614-0.191-0.673-0.527"/>
    <path id="Fill-104" sketch:type="MSShapeGroup" fill="#232435" d="m89.135 68.803c-0.04-0.327 0.182-0.645 0.499-0.693 0.328-0.048 0.624 0.192 0.682 0.521 0.039 0.344-0.172 0.652-0.508 0.7-0.317 0.048-0.616-0.182-0.673-0.528"/>
    <path id="Fill-105" sketch:type="MSShapeGroup" fill="#232435" d="m90.019 71.446c-0.048-0.338 0.173-0.645 0.49-0.694 0.336-0.047 0.635 0.184 0.692 0.531 0.04 0.326-0.182 0.642-0.509 0.69-0.317 0.039-0.615-0.191-0.673-0.527"/>
    <path id="Fill-106" sketch:type="MSShapeGroup" fill="#232435" d="m91.566 74.617c-0.316 0.049-0.613-0.183-0.663-0.528-0.047-0.337 0.174-0.654 0.491-0.693 0.327-0.056 0.624 0.183 0.683 0.52 0.048 0.335-0.173 0.653-0.511 0.701"/>
    <path id="Fill-107" sketch:type="MSShapeGroup" fill="#232435" d="m91.692 65.487c-0.057-0.337 0.164-0.644 0.499-0.692 0.319-0.049 0.626 0.183 0.666 0.527 0.056 0.328-0.165 0.646-0.492 0.693-0.316 0.039-0.626-0.193-0.673-0.528"/>
    <path id="Fill-108" sketch:type="MSShapeGroup" fill="#232435" d="m92.578 68.302c-0.059-0.326 0.161-0.653 0.488-0.691 0.319-0.048 0.627 0.191 0.673 0.519 0.059 0.346-0.162 0.653-0.499 0.691-0.318 0.059-0.626-0.182-0.662-0.519"/>
    <path id="Fill-109" sketch:type="MSShapeGroup" fill="#232435" d="m93.451 70.946c-0.056-0.336 0.164-0.645 0.5-0.692 0.318-0.047 0.624 0.182 0.674 0.519 0.047 0.335-0.174 0.653-0.501 0.701-0.317 0.039-0.625-0.191-0.673-0.528"/>
    <path id="Fill-110" sketch:type="MSShapeGroup" fill="#232435" d="m94.337 73.59c-0.058-0.336 0.163-0.655 0.49-0.692 0.326-0.058 0.633 0.18 0.673 0.517 0.057 0.337-0.165 0.653-0.491 0.693-0.326 0.057-0.634-0.192-0.672-0.518"/>
    <path id="Fill-111" sketch:type="MSShapeGroup" fill="#232435" d="m95.883 76.751c-0.316 0.047-0.624-0.182-0.672-0.529-0.049-0.326 0.173-0.643 0.5-0.691 0.319-0.039 0.626 0.191 0.673 0.528 0.048 0.336-0.164 0.645-0.501 0.692"/>
    <path id="Fill-112" sketch:type="MSShapeGroup" fill="#232435" d="m96.008 67.802c-0.056-0.336 0.165-0.653 0.491-0.691 0.328-0.048 0.636 0.192 0.674 0.519 0.057 0.346-0.164 0.653-0.491 0.692-0.326 0.058-0.635-0.182-0.674-0.52"/>
    <path id="Fill-113" sketch:type="MSShapeGroup" fill="#232435" d="m96.884 70.446c-0.047-0.336 0.174-0.643 0.501-0.691 0.317-0.049 0.625 0.183 0.671 0.518 0.058 0.337-0.162 0.645-0.499 0.702-0.317 0.039-0.624-0.193-0.673-0.529"/>
    <path id="Fill-114" sketch:type="MSShapeGroup" fill="#232435" d="m97.769 73.089c-0.058-0.335 0.161-0.653 0.499-0.691 0.318-0.059 0.626 0.182 0.664 0.518 0.058 0.338-0.163 0.654-0.49 0.693-0.318 0.048-0.626-0.194-0.673-0.52"/>
    <path id="Fill-115" sketch:type="MSShapeGroup" fill="#232435" d="m99.317 76.253c-0.318 0.047-0.626-0.184-0.664-0.531-0.057-0.326 0.163-0.643 0.49-0.692 0.317-0.047 0.625 0.193 0.674 0.529 0.057 0.337-0.164 0.645-0.5 0.694"/>
    <path id="Fill-116" sketch:type="MSShapeGroup" fill="#232435" d="m99.432 67.303c-0.047-0.336 0.174-0.653 0.51-0.692 0.318-0.057 0.618 0.183 0.668 0.519 0.04 0.336-0.18 0.654-0.5 0.692-0.322 0.057-0.621-0.181-0.678-0.519"/>
    <path id="Fill-117" sketch:type="MSShapeGroup" fill="#232435" d="m100.32 69.945c-0.05-0.335 0.17-0.653 0.5-0.701 0.31-0.038 0.61 0.193 0.67 0.529 0.05 0.337-0.17 0.644-0.49 0.692-0.34 0.048-0.63-0.182-0.68-0.52"/>
    <path id="Fill-118" sketch:type="MSShapeGroup" fill="#232435" d="m101.19 72.589c-0.04-0.345 0.18-0.653 0.51-0.702 0.32-0.048 0.62 0.183 0.67 0.529 0.04 0.338-0.18 0.655-0.49 0.693-0.33 0.048-0.63-0.193-0.69-0.52"/>
    <path id="Fill-119" sketch:type="MSShapeGroup" fill="#232435" d="m102.76 75.752c-0.34 0.049-0.64-0.183-0.68-0.529-0.05-0.326 0.17-0.644 0.5-0.692 0.32-0.048 0.62 0.183 0.67 0.519 0.05 0.346-0.17 0.654-0.49 0.702"/>
    <path id="Fill-120" sketch:type="MSShapeGroup" fill="#232435" d="m102.86 66.804c-0.03-0.347 0.19-0.654 0.5-0.702 0.33-0.048 0.63 0.182 0.69 0.528 0.04 0.337-0.19 0.645-0.5 0.693-0.33 0.057-0.63-0.183-0.69-0.519"/>
    <path id="Fill-121" sketch:type="MSShapeGroup" fill="#232435" d="m103.75 69.437c-0.05-0.336 0.17-0.644 0.49-0.691 0.34-0.04 0.63 0.191 0.68 0.527 0.05 0.337-0.17 0.644-0.49 0.693-0.33 0.048-0.63-0.182-0.68-0.529"/>
    <path id="Fill-122" sketch:type="MSShapeGroup" fill="#232435" d="m104.62 72.09c-0.03-0.347 0.19-0.654 0.5-0.702 0.33-0.048 0.63 0.182 0.69 0.528 0.05 0.328-0.18 0.644-0.5 0.692-0.33 0.049-0.63-0.192-0.69-0.518"/>
    <path id="Fill-123" sketch:type="MSShapeGroup" fill="#232435" d="m106.19 75.242c-0.33 0.058-0.62-0.184-0.68-0.519-0.05-0.337 0.17-0.644 0.5-0.692 0.33-0.049 0.62 0.183 0.67 0.519 0.05 0.347-0.17 0.653-0.49 0.692"/>
    <path id="Fill-124" sketch:type="MSShapeGroup" fill="#232435" d="m106.3 66.304c-0.04-0.347 0.18-0.654 0.5-0.702 0.32-0.049 0.62 0.183 0.68 0.529 0.05 0.337-0.17 0.643-0.51 0.692-0.32 0.048-0.61-0.183-0.67-0.519"/>
    <path id="Fill-125" sketch:type="MSShapeGroup" fill="#232435" d="m107.18 68.937c-0.05-0.337 0.17-0.643 0.5-0.692 0.33-0.038 0.63 0.192 0.68 0.519 0.04 0.346-0.18 0.654-0.51 0.701-0.31 0.048-0.61-0.182-0.67-0.528"/>
    <path id="Fill-126" sketch:type="MSShapeGroup" fill="#232435" d="m108.07 71.589c-0.05-0.345 0.17-0.653 0.49-0.71 0.33-0.04 0.62 0.191 0.68 0.527 0.05 0.337-0.17 0.645-0.5 0.703-0.33 0.039-0.63-0.193-0.67-0.52"/>
    <path id="Fill-127" sketch:type="MSShapeGroup" fill="#232435" d="m109.61 74.742c-0.31 0.048-0.61-0.182-0.67-0.519-0.04-0.345 0.18-0.653 0.5-0.693 0.33-0.047 0.63 0.183 0.68 0.52 0.04 0.347-0.18 0.653-0.51 0.692"/>
    <path id="Fill-128" sketch:type="MSShapeGroup" fill="#232435" d="m109.74 65.794c-0.06-0.336 0.17-0.644 0.49-0.693 0.32-0.048 0.62 0.183 0.67 0.531 0.06 0.336-0.16 0.642-0.49 0.691-0.32 0.037-0.63-0.192-0.67-0.529"/>
    <path id="Fill-129" sketch:type="MSShapeGroup" fill="#232435" d="m110.62 68.437c-0.05-0.336 0.18-0.644 0.49-0.692 0.32-0.056 0.63 0.193 0.68 0.52 0.04 0.345-0.18 0.653-0.5 0.701s-0.63-0.183-0.67-0.529"/>
    <path id="Fill-130" sketch:type="MSShapeGroup" fill="#fff" d="m206.87 30.741c3.06 1.942 4.25 5.527 2.66 8.055-1.59 2.498-5.34 2.98-8.4 1.057s-4.24-5.526-2.66-8.035c1.58-2.519 5.34-2.999 8.4-1.077"/>
    <path id="Fill-131" sketch:type="MSShapeGroup" fill="#232435" d="m205.08 41.622c-1.47 0-2.94-0.442-4.27-1.27-1.79-1.123-3.06-2.844-3.48-4.719-0.34-1.479-0.11-2.94 0.65-4.132 1-1.605 2.8-2.528 4.95-2.528 1.46 0 2.93 0.441 4.26 1.268 3.31 2.105 4.59 6.084 2.84 8.872-1.02 1.596-2.82 2.509-4.95 2.509zm-2.15-11.466c-1.72 0-3.17 0.721-3.96 1.979-0.58 0.922-0.76 2.067-0.49 3.239 0.36 1.568 1.44 3.018 2.96 3.979 1.14 0.712 2.39 1.087 3.64 1.087 1.71 0 3.15-0.712 3.95-1.962 1.41-2.229 0.29-5.479-2.48-7.237-1.12-0.71-2.38-1.085-3.62-1.085z"/>
    <path id="Fill-132" sketch:type="MSShapeGroup" fill="#35A0CE" d="m205.07 39.064c-0.98 0-1.98-0.298-2.89-0.873-2.09-1.318-3.03-3.758-2.04-5.326 0.53-0.845 1.54-1.335 2.78-1.335 0.99 0 1.99 0.307 2.9 0.884 2.12 1.346 3.05 3.729 2.05 5.325-0.54 0.846-1.56 1.325-2.8 1.325"/>
    <path id="Fill-133" sketch:type="MSShapeGroup" fill="#fff" d="m143.75 37.104l-1.1 0.183 3.86 33.611 39.91-6.545-42.67-27.249"/>
    <path id="Fill-134" sketch:type="MSShapeGroup" fill="#232435" d="m146.51 71.484c-0.13 0-0.25-0.038-0.36-0.115-0.12-0.096-0.21-0.24-0.23-0.404l-3.86-33.611c-0.03-0.307 0.19-0.595 0.5-0.653l1.09-0.183c0.13-0.02 0.29 0.01 0.41 0.086l42.67 27.248c0.22 0.136 0.31 0.376 0.26 0.616-0.04 0.241-0.23 0.432-0.48 0.471l-39.91 6.545h-0.09m-3.2-33.707l3.72 32.437 37.77-6.197-41.18-26.297-0.31 0.057"/>
    <path id="Fill-135" sketch:type="MSShapeGroup" fill="#CBCCCB" d="m161.36 55.509c3.06 1.933 4.25 5.527 2.66 8.046-1.59 2.508-5.34 2.988-8.4 1.067-3.06-1.933-4.24-5.528-2.66-8.045 1.58-2.518 5.33-2.989 8.4-1.068"/>
    <path id="Fill-136" sketch:type="MSShapeGroup" fill="#fff" d="m122.15 40.641l4.09 33.582 6.6-1.077-3.85-33.619-6.84 1.114"/>
    <path id="Fill-137" sketch:type="MSShapeGroup" fill="#232435" d="m126.24 74.81c-0.13 0-0.25-0.039-0.36-0.117-0.12-0.095-0.21-0.239-0.23-0.402l-4.09-33.582c-0.03-0.308 0.19-0.597 0.5-0.655l6.83-1.113c0.15 0.008 0.32 0.019 0.45 0.114 0.13 0.096 0.22 0.241 0.23 0.403l3.86 33.62c0.04 0.318-0.18 0.598-0.49 0.655l-6.61 1.077h-0.09m-3.43-33.679l3.94 32.41 5.44-0.884-3.72-32.449-5.66 0.923"/>
    <path id="Fill-138" sketch:type="MSShapeGroup" fill="#fff" d="m128.99 39.527l3.85 33.619 11.09-1.826-3.86-33.611-11.08 1.818"/>
    <path id="Fill-139" sketch:type="MSShapeGroup" fill="#232435" d="m132.84 73.733c-0.12 0-0.25-0.038-0.35-0.115-0.13-0.096-0.21-0.24-0.23-0.405l-3.86-33.62c-0.04-0.315 0.18-0.595 0.49-0.652l11.09-1.819c0.16 0.011 0.32 0.021 0.45 0.117 0.12 0.096 0.21 0.241 0.23 0.403l3.86 33.611c0.03 0.317-0.19 0.597-0.49 0.654l-11.09 1.826h-0.1m-3.2-33.716l3.72 32.447 9.92-1.633-3.73-32.439-9.91 1.625"/>
    <path id="Fill-140" sketch:type="MSShapeGroup" fill="#9BD5E7" d="m121.64 41.324l-10.35 1.695 3.94 32.412 10.35-1.698-3.94-32.409"/>
    <path id="Fill-141" sketch:type="MSShapeGroup" fill="#1D2334" d="m125.22 70.725l0.36 3.008-10.35 1.698 0.08 0.59 10.35-1.698c-0.01-0.01-0.01-0.021-0.01-0.032l-0.43-3.566m-3.65-29.984l-10.35 1.698 0.07 0.58 10.35-1.695-0.07-0.583"/>
    <path id="Fill-142" sketch:type="MSShapeGroup" fill="#9BD5E7" d="m124.65 40.831l-1.84 0.3 3.94 32.41 1.85-0.301-3.95-32.409"/>
    <path id="Fill-143" sketch:type="MSShapeGroup" fill="#1D2334" d="m124.57 40.248l-3 0.493 4.08 33.55c0 0.011 0 0.022 0.01 0.032l3.01-0.494-0.07-0.589-1.85 0.301-3.94-32.41 1.84-0.3-0.08-0.583"/>
    <path id="Fill-144" sketch:type="MSShapeGroup" fill="#75713B" d="m142.07 37.385l-1.41 0.23v0.027l3.85 33.587 1.42-0.231c-0.01-0.011-0.01-0.022-0.01-0.033l-3.85-33.58"/>
    <path id="Fill-145" sketch:type="MSShapeGroup" fill="#1D2334" d="m142.5 37.315l-0.43 0.07 3.85 33.58c0 0.011 0 0.022 0.01 0.033l0.42-0.071-3.85-33.612"/>
    <path id="Fill-146" sketch:type="MSShapeGroup" fill="#9BD5E7" d="m139.55 38.392l-8.06 1.322 3.72 32.446 8.07-1.329-3.73-32.439"/>
    <path id="Fill-147" sketch:type="MSShapeGroup" fill="#1D2334" d="m140.66 37.615l-9.24 1.508 0.07 0.591 8.06-1.322 3.73 32.439-8.07 1.329 0.07 0.583 9.23-1.514-3.85-33.587v-0.027"/>
    <path id="Fill-148" sketch:type="MSShapeGroup" fill="#fff" d="m140.07 37.709l3.86 33.611 2.58-0.422-3.86-33.611-2.58 0.422"/>
    <path id="Fill-149" sketch:type="MSShapeGroup" fill="#232435" d="m143.93 71.907c-0.13 0-0.25-0.039-0.36-0.115-0.12-0.097-0.21-0.24-0.23-0.404l-3.85-33.611c-0.04-0.318 0.18-0.596 0.49-0.655l2.58-0.421c0.14-0.01 0.31 0.018 0.45 0.115 0.12 0.096 0.21 0.24 0.23 0.403l3.85 33.612c0.04 0.317-0.18 0.595-0.49 0.653l-2.57 0.423h-0.1zm-3.2-33.708l3.72 32.44 1.4-0.231-3.72-32.438-1.4 0.229z"/>
    <path id="Fill-150" sketch:type="MSShapeGroup" fill="#fff" d="m159.34 55.538c3.05 1.923 4.25 5.518 2.67 8.036-1.6 2.517-5.35 2.989-8.42 1.068-3.05-1.934-4.24-5.528-2.65-8.046 1.59-2.519 5.33-2.989 8.4-1.058"/>
    <path id="Fill-151" sketch:type="MSShapeGroup" fill="#232435" d="m157.55 66.409c-1.47 0-2.95-0.432-4.28-1.269-3.31-2.096-4.59-6.074-2.83-8.861 1.01-1.605 2.81-2.518 4.94-2.518 1.47 0 2.94 0.442 4.28 1.278 3.32 2.095 4.6 6.064 2.85 8.852-1.02 1.606-2.83 2.518-4.96 2.518zm-2.17-11.467c-1.72 0-3.15 0.711-3.94 1.97-1.41 2.231-0.3 5.479 2.47 7.23 1.13 0.71 2.39 1.086 3.64 1.086 1.71 0 3.16-0.713 3.96-1.971 1.4-2.23 0.29-5.47-2.49-7.218-1.13-0.721-2.4-1.097-3.64-1.097z"/>
    <path id="Fill-152" sketch:type="MSShapeGroup" fill="#35A0CE" d="m157.55 63.852c-0.99 0-2-0.297-2.91-0.873-2.1-1.328-3.03-3.768-2.04-5.335 0.54-0.837 1.55-1.327 2.78-1.327 0.99 0 2 0.307 2.91 0.886 2.09 1.315 3.03 3.757 2.05 5.324-0.54 0.836-1.56 1.325-2.79 1.325"/>
    <path id="Fill-153" sketch:type="MSShapeGroup" fill="#232435" d="m84.961 80.682l80.029-13.34 40.01-6.67 20.01-3.336c3.32-0.461 6.45-1.173 8.58-3.229 2.19-1.922 3.5-5.037 3.67-7.901l0.01-0.135c0.05-0.817 0.75-1.431 1.57-1.384 0.8 0.049 1.43 0.75 1.38 1.567v0.011c-0.26 3.854-1.84 7.409-4.7 10.004-2.9 2.673-6.75 3.441-10.05 3.873l-20.02 3.23-40.05 6.469-80.093 12.918c-0.576 0.096-1.114-0.299-1.211-0.875-0.096-0.567 0.298-1.105 0.865-1.202"/>
    <path id="Fill-154" sketch:type="MSShapeGroup" fill="#232435" d="m44.165 42.726l26.414 36.89c0.306 0.431 0.211 1.029-0.222 1.335-0.422 0.298-1.01 0.212-1.318-0.202l-27.258-36.274c-0.49-0.653-0.356-1.575 0.299-2.064 0.653-0.492 1.576-0.366 2.068 0.287l0.017 0.028"/>
    <g id="Fill-155-+-Fill-156" sketch:type="MSShapeGroup" transform="translate(59 102)">
     <path id="Fill-155" fill="#DCDDDC" d="m96.313 12.717c-3.101 6.305-7.238 12.118-11.876 17.624 0.383 0.001 0.766 0.001 1.15 0.001 5.524 0 10.924-0.092 16.153-0.265-3.063-4.234-4.542-10.126-5.427-17.36m70.197-1.606c-0.17 0.174-0.35 0.346-0.53 0.518-4.43 4.315-9.22 9.054-14.43 13.288 11.92-2.531 19.07-5.762 19.07-9.28 0-1.58-1.44-3.1-4.11-4.526"/>
     <path id="Fill-156" fill="#DCDBBD" d="m85.587 0.93285c-46.961 0-85.03 6.5826-85.03 14.704-0.00011 8.055 37.449 14.597 83.88 14.704 4.638-5.506 8.775-11.319 11.876-17.624 0.885 7.234 2.364 13.126 5.427 17.36 19.97-0.665 37.46-2.537 49.81-5.16 5.21-4.234 10-8.973 14.43-13.288 0.18-0.172 0.36-0.344 0.53-0.518-11.03-5.9066-43.09-10.178-80.923-10.178"/>
    </g>
   </g>
  </g>
 </g>
</svg>
