<?xml version="1.0" encoding="UTF-8" standalone="no"?>
<svg xmlns:sketch="http://www.bohemiancoding.com/sketch/ns" xmlns="http://www.w3.org/2000/svg" height="179px" width="278px" version="1.1" xmlns:xlink="http://www.w3.org/1999/xlink" viewBox="0 0 278 179"><!-- Generator: Sketch 3.4 (15575) - http://www.bohemiancoding.com/sketch -->
 <title>2</title>
 <desc>Created with Sketch.</desc>
 <defs>
  <path id="path-1" d="m0.06 0.343h276.98v178.6h-276.98v-178.6z"/>
  <path id="path-3" d="m0.677 0.194c0.267 0.177 0.534 0.316 0.783 0.496-0.249-0.14-0.506-0.298-0.783-0.496z"/>
  <path id="path-5" d="m0.677 0.194c0.267 0.177 0.534 0.316 0.783 0.496-0.249-0.14-0.506-0.298-0.783-0.496z"/>
  <path id="path-7" d="m0.06 0.343h276.98v178.6h-276.98v-178.6z"/>
 </defs>
 <g id="Page-1" fill-rule="evenodd" sketch:type="MSPage" fill="none">
  <g id="2" sketch:type="MSLayerGroup">
   <g id="Group-3">
    <mask id="mask-2" sketch:name="Clip 2" fill="white">
     <use xlink:href="#path-1"/>
    </mask>
    <path id="Fill-1" sketch:type="MSShapeGroup" fill="#DDDCE7" mask="url(#mask-2)" d="m251.96 153.11c0.16 0 0.15 0.01 0 0zm-2.42-1.09c0.24 0.15 0.47 0.28 0.68 0.43-0.21-0.12-0.44-0.26-0.68-0.43zm17.55-30.65c-16.87-11.81-41.54 2.71-59.26 12.89 1.14-1.94 2.26-3.9 3.33-5.89 8.91-16.58 6.63-37.417-15.86-39.016-24.12-1.695-48.09 23.356-63.02 38.416-3.39 3.42-10.88 11.37-17.43 13.05 1.37-2.22 3.15-4.38 4.46-6.24 10.55-14.92 25.43-26.69 37.27-40.573 13.21-15.463 14.44-35.354-7.83-43.432-11.43-4.142-31.01 5.19-40.93 9.816-15.994 7.463-30.549 17.314-45.718 26.282-19.579 11.588-1.547 41.947 18.084 30.337 5.448-3.23 10.827-6.56 16.215-9.86-1.055 1.26-2.119 2.52-3.148 3.82-10.802 13.65-20.582 30.24-12.842 47.72 8.483 19.19 33.989 20.85 50.629 13.08 11.63-5.45 20.67-14.48 29.8-23.3-2.98 13.08 1.8 25.17 17.86 29.54 12.74 3.5 26.41-3.02 37.66-8.13 7.56-3.42 14.64-7.9 21.99-11.69 2.99-1.59 6.07-2.9 9.29-3.98 1.86-0.71 3.05-0.96 3.73-1.05 17.95 9.94 33.59-19.28 15.72-31.79z"/>
   </g>
   <path id="Fill-4" sketch:type="MSShapeGroup" fill="#DAD8DE" d="m251.68 172.19c0.26 0.18 0.53 0.32 0.78 0.5-0.25-0.14-0.51-0.3-0.78-0.5"/>
   <g id="Group-7" transform="translate(251 172)">
    <mask id="mask-4" sketch:name="Clip 6" fill="white">
     <use xlink:href="#path-3"/>
    </mask>
    <path id="Fill-5" sketch:type="MSShapeGroup" fill="#DAD8DE" mask="url(#mask-4)" d="m0.677 0.194h0.783v0.496h-0.783v-0.496z"/>
   </g>
   <g id="Group-10" transform="translate(251 172)">
    <mask id="mask-6" sketch:name="Clip 9" fill="white">
     <use xlink:href="#path-5"/>
    </mask>
    <path id="Fill-8" sketch:type="MSShapeGroup" fill="#DAD8DE" mask="url(#mask-6)" d="m0.58 0.1h0.96v0.6h-0.96v-0.6z"/>
   </g>
   <path id="Fill-11" sketch:type="MSShapeGroup" fill="#F4F4F2" d="m119.52 142.36v-4.21c-13.29-5.66-34.61-4.47-34.61-4.47l-3.154 3.15h-2.887v31.26c14.252-0.35 27.861-1.3 39.461-2.5v-22.96l1.19-0.27"/>
   <path id="Fill-12" sketch:type="MSShapeGroup" fill="#C3A281" d="m86.779 133.68l-3.159 3.15h-2.888v10.93h6.289v6.05l2.628 8.03v5.93c10.981-0.45 21.401-1.23 30.551-2.18v-22.96l1.18-0.27v-4.21c-13.28-5.66-34.601-4.47-34.601-4.47"/>
   <g id="Group-16" fill="#232535">
    <mask id="mask-8" sketch:name="Clip 14" fill="white">
     <use xlink:href="#path-7"/>
    </mask>
    <path id="Fill-13" sketch:type="MSShapeGroup" mask="url(#mask-8)" d="m80.098 138.07v28.75c12.35-0.34 25.082-1.14 37.002-2.34v-21.85c0-0.58 0.4-1.08 0.97-1.21l0.22-0.05v-2.39c-11.85-4.71-29.738-4.22-32.843-4.09l-2.815 2.82c-0.23 0.23-0.544 0.36-0.876 0.36h-1.658zm-1.229 31.25c-0.325 0-0.632-0.12-0.867-0.35s-0.374-0.55-0.374-0.88v-31.26c0-0.68 0.554-1.23 1.241-1.23h2.375l2.799-2.79c0.217-0.21 0.499-0.35 0.802-0.36 0 0 21.615-1.19 35.165 4.57 0.45 0.19 0.75 0.64 0.75 1.13v4.21c0 0.58-0.4 1.08-0.97 1.21l-0.22 0.05v21.97c0 0.63-0.48 1.16-1.1 1.23-12.71 1.32-26.391 2.18-39.575 2.5h-0.026z"/>
    <path id="Fill-15" sketch:type="MSShapeGroup" mask="url(#mask-8)" d="m67.681 169.48c-26.044 0-51.498-2.36-66.63-4.58-0.676-0.1-1.139-0.73-1.037-1.4 0.09-0.67 0.724-1.14 1.399-1.04 15.047 2.2 40.356 4.55 66.268 4.55 16.812 0 35.459-1.01 52.499-2.85 0.65-0.02 1.28 0.42 1.36 1.1 0.07 0.68-0.42 1.29-1.1 1.36-17.12 1.84-35.855 2.86-52.759 2.86"/>
   </g>
   <path id="Fill-17" sketch:type="MSShapeGroup" fill="#F4F4F2" d="m84.127 153.81v-6.05h-10.985v-11.52l1.508-1.51v-5.53h-7.368l-3.675-9.87 1.311-0.65-0.663-8.29h-3.159l-4.6-14.738 1.056-0.134-0.663-3.285c-40.791 0.266-52.167 19.467-52.167 19.467v52.44c16.802 2.27 40.423 4.1 62.959 4.1 6.451 0 12.846-0.15 19.074-0.41v-5.99l-2.628-8.03"/>
   <path id="Fill-18" sketch:type="MSShapeGroup" fill="#E8CBAA" d="m76.036 147.76v-11.52l1.507-1.51v-5.53h-7.367l-3.677-9.87 1.314-0.65-0.664-8.29h-3.158l-4.6-14.738 1.054-0.134-0.663-3.285c-40.79 0.266-52.166 19.467-52.166 19.467v52.44c16.802 2.27 40.422 4.1 62.958 4.1 3.437 0 13.143-0.14 16.531-0.21l0.259-6.23-3.732-8.36-0.128-5.68h-7.468"/>
   <path id="Fill-19" sketch:type="MSShapeGroup" fill="#232535" d="m5.959 163.06c18.784 2.48 41.754 3.95 61.722 3.95 5.678 0 11.526-0.12 17.843-0.36v-4.62l-2.567-7.83c-0.048-0.13-0.067-0.26-0.067-0.39v-4.82h-9.748c-0.687 0-1.242-0.55-1.242-1.23v-11.52c0-0.32 0.133-0.64 0.362-0.87l1.151-1.15v-3.78h-6.131c-0.512 0-0.976-0.32-1.158-0.8l-3.677-9.87c-0.216-0.6 0.042-1.26 0.61-1.54l0.56-0.28-0.5-6.32h-2.021c-0.535 0-1.013-0.35-1.175-0.87l-4.6-14.74c-0.109-0.35-0.061-0.729 0.134-1.039 0.155-0.228 0.373-0.404 0.626-0.492l-0.198-1.009c-36.107 0.525-48.369 16.35-49.924 18.59v50.99zm61.722 6.42c-20.451 0-44.047-1.54-63.121-4.11-0.616-0.09-1.073-0.61-1.073-1.23v-52.44c0-0.22 0.06-0.44 0.174-0.63 0.476-0.81 12.208-19.808 53.221-20.073h0.007c0.59 0 1.098 0.416 1.218 0.996l0.65 3.284c0.074 0.338-0.006 0.688-0.205 0.965-0.119 0.163-0.277 0.296-0.457 0.385l3.911 12.533h2.249c0.646 0 1.183 0.49 1.23 1.14l0.663 8.28c0.037 0.5-0.227 0.98-0.687 1.2l-0.314 0.16 2.99 8.02h6.513c0.68 0 1.235 0.56 1.235 1.24v5.53c0 0.32-0.125 0.64-0.362 0.87l-1.15 1.16v9.76h9.754c0.681 0 1.235 0.56 1.235 1.24v5.85l2.569 7.84c0.043 0.13 0.066 0.25 0.066 0.39v5.99c0 0.67-0.531 1.21-1.186 1.24-6.809 0.27-13.067 0.41-19.13 0.41z"/>
   <path id="Fill-20" sketch:type="MSShapeGroup" fill="#232535" d="m119.52 142.82c-0.03 0-0.06 0-0.09-0.01-23.939-4.91-39.788-3.08-39.944-3.06-0.268 0.09-0.485-0.15-0.514-0.4-0.03-0.26 0.151-0.49 0.405-0.51 0.156-0.03 16.144-1.89 40.233 3.07 0.25 0.05 0.42 0.29 0.36 0.54-0.04 0.23-0.23 0.37-0.45 0.37"/>
   <path id="Fill-21" sketch:type="MSShapeGroup" fill="#232535" d="m4.981 139.54c-0.132 0-0.259-0.06-0.349-0.17-0.169-0.19-0.145-0.48 0.048-0.65 0.398-0.35 10.544-8.61 69.956-9.98h0.014c0.253 0 0.458 0.2 0.464 0.45 0.006 0.26-0.199 0.47-0.452 0.48-58.828 1.36-69.282 9.67-69.377 9.75-0.085 0.08-0.195 0.12-0.304 0.12"/>
   <path id="Fill-22" sketch:type="MSShapeGroup" fill="#232535" d="m14.423 130.4c-0.977 0-1.761 0.79-1.761 1.76v3.23c1.061-0.31 2.25-0.62 3.521-0.93v-2.3c0-0.97-0.789-1.76-1.76-1.76zm-2.17 6.06h-0.055c-0.259 0-0.465-0.21-0.465-0.46v-3.84c0-1.48 1.207-2.69 2.69-2.69s2.688 1.21 2.688 2.69v2.66c0 0.21-0.144 0.4-0.349 0.45-1.628 0.39-3.098 0.79-4.378 1.17-0.047 0.01-0.09 0.02-0.131 0.02z"/>
   <path id="Fill-23" sketch:type="MSShapeGroup" fill="#232535" d="m33.992 125.45c-1.133 0-2.061 0.93-2.061 2.07v4.12c1.308-0.17 2.688-0.33 4.13-0.5v-3.62c0-1.14-0.924-2.07-2.069-2.07zm-2.533 7.19c-0.107 0-0.216-0.04-0.302-0.12-0.095-0.09-0.154-0.21-0.154-0.35v-4.65c0-1.65 1.336-3 2.989-3 1.652 0 2.996 1.35 2.996 3v4.03c0 0.24-0.176 0.44-0.416 0.46-1.772 0.2-3.465 0.41-5.052 0.62-0.017 0.01-0.036 0.01-0.061 0.01z"/>
   <path id="Fill-24" sketch:type="MSShapeGroup" fill="#232535" d="m57.039 123.08c-1.32 0-2.392 1.08-2.392 2.4v4.08c1.543-0.1 3.152-0.18 4.797-0.27v-3.81c0-1.32-1.079-2.4-2.405-2.4zm-2.864 7.43c-0.113 0-0.228-0.05-0.311-0.13-0.098-0.09-0.145-0.21-0.145-0.33v-4.57c0-1.83 1.488-3.33 3.32-3.33 1.84 0 3.335 1.5 3.335 3.33v4.25c0 0.25-0.199 0.45-0.447 0.47-1.965 0.09-3.882 0.2-5.72 0.31h-0.032z"/>
   <path id="Fill-25" sketch:type="MSShapeGroup" fill="#232535" d="m4.916 143.75c-0.163 0-0.332-0.09-0.411-0.25-0.114-0.22-0.03-0.51 0.199-0.62 0.2-0.1 20.679-10.43 68.468-7.1 0.252 0.02 0.446 0.24 0.428 0.49-0.012 0.25-0.216 0.44-0.458 0.44h-0.035c-47.477-3.34-67.775 6.88-67.981 6.99-0.067 0.04-0.137 0.05-0.21 0.05"/>
   <path id="Fill-26" sketch:type="MSShapeGroup" fill="#232535" d="m4.916 132.04c-0.139 0-0.271-0.06-0.363-0.17-0.162-0.2-0.126-0.49 0.073-0.65 0.162-0.13 16.556-12.88 60.292-13 0.255 0 0.46 0.2 0.46 0.46s-0.205 0.46-0.46 0.46c-43.357 0.13-59.551 12.67-59.714 12.8-0.084 0.06-0.187 0.1-0.288 0.1"/>
   <path id="Fill-27" sketch:type="MSShapeGroup" fill="#232535" d="m4.916 127.43c-0.128 0-0.26-0.06-0.344-0.16-0.17-0.19-0.157-0.48 0.037-0.65 0.187-0.17 19.147-16.56 59.646-16.69 0.253 0 0.459 0.2 0.466 0.46 0 0.25-0.213 0.47-0.466 0.47-40.113 0.12-58.851 16.28-59.032 16.45-0.085 0.08-0.2 0.12-0.307 0.12"/>
   <path id="Fill-28" sketch:type="MSShapeGroup" fill="#232535" d="m5.006 124.41c-0.121 0-0.242-0.05-0.338-0.15-0.174-0.18-0.168-0.47 0.012-0.65 0.175-0.17 17.803-16.84 55.367-16.84 0.255 0 0.464 0.21 0.464 0.46 0 0.26-0.209 0.47-0.464 0.47-37.16 0-54.547 16.41-54.72 16.58-0.091 0.09-0.207 0.13-0.321 0.13"/>
   <path id="Fill-29" sketch:type="MSShapeGroup" fill="#232535" d="m20.204 147.29h3.527v-3.37c0-0.97-0.791-1.76-1.761-1.76-0.976 0-1.766 0.79-1.766 1.76v3.37zm3.985 0.93h-4.449c-0.252 0-0.464-0.21-0.464-0.46v-3.84c0-1.48 1.211-2.69 2.694-2.69 1.484 0 2.689 1.21 2.689 2.69v3.84c0 0.25-0.21 0.46-0.47 0.46z"/>
   <path id="Fill-30" sketch:type="MSShapeGroup" fill="#232535" d="m39.477 147.29h4.124v-4.33c0-1.14-0.928-2.07-2.062-2.07-1.137 0-2.062 0.93-2.062 2.07v4.33zm4.589 0.93h-5.057c-0.256 0-0.46-0.21-0.46-0.46v-4.8c0-1.65 1.339-3 2.99-3 1.653 0 2.992 1.35 2.992 3v4.8c0 0.25-0.205 0.46-0.465 0.46z"/>
   <path id="Fill-31" sketch:type="MSShapeGroup" fill="#232535" d="m62.182 147.29h4.812v-5.4c0-1.33-1.081-2.4-2.407-2.4s-2.405 1.07-2.405 2.4v5.4zm5.274 0.93h-5.732c-0.26 0-0.47-0.21-0.47-0.46v-5.87c0-1.84 1.495-3.33 3.333-3.33 1.839 0 3.334 1.49 3.334 3.33v5.87c0 0.25-0.204 0.46-0.465 0.46z"/>
   <path id="Fill-32" sketch:type="MSShapeGroup" fill="#232535" d="m8.478 164.15l0.809 0.1c0.819 0.1 1.638 0.2 2.489 0.3v-2.97c0-0.91-0.742-1.65-1.652-1.65s-1.646 0.74-1.646 1.65v2.57zm3.762 1.39c-0.018 0-0.036 0-0.053-0.01-1.033-0.12-2.027-0.24-3.009-0.36l-1.224-0.15c-0.235-0.03-0.405-0.22-0.405-0.46v-2.98c0-1.42 1.159-2.58 2.575-2.58 1.422 0 2.58 1.16 2.58 2.58v3.49c0 0.13-0.054 0.26-0.156 0.35-0.084 0.07-0.199 0.12-0.308 0.12z"/>
   <path id="Fill-33" sketch:type="MSShapeGroup" fill="#232535" d="m26.818 166.03c0.988 0.08 2.002 0.16 3.014 0.23l0.707 0.05v-5.42c0-1.03-0.839-1.86-1.864-1.86-1.026 0-1.857 0.83-1.857 1.86v5.14zm4.185 1.24h-0.038l-1.198-0.09c-1.165-0.08-2.322-0.17-3.455-0.26-0.242-0.02-0.422-0.22-0.422-0.46v-5.57c0-1.54 1.247-2.79 2.785-2.79 1.537 0 2.79 1.25 2.79 2.79v5.92c0 0.13-0.054 0.25-0.151 0.34-0.084 0.08-0.193 0.12-0.311 0.12z"/>
   <path id="Fill-34" sketch:type="MSShapeGroup" fill="#232535" d="m47.864 167.33c1.5 0.06 2.996 0.12 4.502 0.17v-7.83c0-1.24-1.011-2.25-2.253-2.25-1.243 0-2.249 1.01-2.249 2.25v7.66zm4.969 1.11h-0.019c-1.821-0.06-3.624-0.12-5.439-0.21-0.24-0.01-0.439-0.22-0.439-0.47v-8.09c0-1.75 1.428-3.18 3.177-3.18 1.753 0 3.183 1.43 3.183 3.18v8.31c0 0.12-0.049 0.24-0.145 0.33-0.084 0.08-0.2 0.13-0.318 0.13z"/>
   <path id="Fill-35" sketch:type="MSShapeGroup" fill="#232535" d="m72.985 155.82c-1.422 0-2.575 1.15-2.575 2.57v9.36c1.725-0.01 3.444-0.03 5.144-0.05v-9.31c0-1.42-1.151-2.57-2.569-2.57zm-3.038 12.86c-0.122 0-0.24-0.05-0.326-0.14-0.084-0.08-0.137-0.21-0.137-0.33v-9.82c0-1.93 1.573-3.5 3.501-3.5 1.93 0 3.497 1.57 3.497 3.5v9.76c0 0.25-0.198 0.45-0.452 0.46-2.007 0.04-4.045 0.06-6.083 0.07z"/>
   <path id="Fill-36" sketch:type="MSShapeGroup" fill="#232535" d="m83.211 148.22h-77.898c-0.26 0-0.464-0.21-0.464-0.46 0-0.26 0.204-0.47 0.464-0.47h77.898c0.254 0 0.464 0.21 0.464 0.47 0 0.25-0.21 0.46-0.464 0.46"/>
   <path id="Fill-37" sketch:type="MSShapeGroup" fill="#232535" d="m7.61 118.36c-0.578 0-1.055-0.48-1.055-1.07 0-0.57 0.477-1.05 1.055-1.05 0.579 0 1.061 0.48 1.061 1.05 0 0.6-0.471 1.07-1.061 1.07"/>
   <path id="Fill-38" sketch:type="MSShapeGroup" fill="#232535" d="m15.117 113.55c-0.585 0-1.056-0.48-1.056-1.05 0-0.58 0.471-1.06 1.056-1.06 0.578 0 1.048 0.48 1.048 1.06 0 0.57-0.47 1.05-1.048 1.05"/>
   <path id="Fill-39" sketch:type="MSShapeGroup" fill="#232535" d="m27.42 108.02c-0.584 0-1.06-0.47-1.06-1.05s0.476-1.06 1.06-1.06c0.579 0 1.05 0.48 1.05 1.06s-0.471 1.05-1.05 1.05"/>
   <path id="Fill-40" sketch:type="MSShapeGroup" fill="#232535" d="m44.717 104.67c-0.584 0-1.056-0.48-1.056-1.06s0.472-1.05 1.056-1.05c0.585 0 1.055 0.47 1.055 1.05 0 0.6-0.457 1.06-1.055 1.06"/>
   <path id="Fill-41" sketch:type="MSShapeGroup" fill="#232535" d="m81.756 153.75h-75.135c-0.252 0-0.458-0.21-0.458-0.46 0-0.26 0.206-0.47 0.458-0.47h75.135c0.26 0 0.466 0.21 0.466 0.47 0 0.25-0.206 0.46-0.466 0.46"/>
   <path id="Fill-42" sketch:type="MSShapeGroup" fill="#232535" d="m4.656 117.3c-0.109 0-0.217-0.04-0.301-0.11-0.193-0.17-0.218-0.46-0.048-0.65 0.156-0.19 15.715-18.018 48.977-18.018 1.355 0 2.737 0.03 4.154 0.089 0.253 0.012 0.45 0.229 0.44 0.483-0.014 0.253-0.217 0.446-0.459 0.446h-0.025c-35.617-1.556-52.219 17.41-52.388 17.6-0.084 0.11-0.218 0.16-0.35 0.16"/>
   <path id="Fill-43" sketch:type="MSShapeGroup" fill="#232535" d="m115.84 151.07h-28.687c-0.259 0-0.47-0.21-0.47-0.46s0.211-0.46 0.47-0.46h28.687c0.26 0 0.47 0.21 0.47 0.46s-0.21 0.46-0.47 0.46"/>
   <path id="Fill-44" sketch:type="MSShapeGroup" fill="#232535" d="m94.628 150.17c0.689 0.01 1.375-0.01 2.062-0.02 0.68-0.03 1.364-0.05 2.062-0.02v-6.45c0-1.14-0.921-2.06-2.062-2.06-1.133 0-2.062 0.92-2.062 2.06v6.49zm0.628 0.93c-0.375 0-0.748-0.01-1.115-0.03-0.248-0.01-0.44-0.21-0.44-0.46v-6.93c0-1.65 1.343-3 2.989-3 1.652 0 2.99 1.35 2.99 3v6.93c0 0.13-0.048 0.25-0.144 0.34-0.091 0.08-0.205 0.16-0.345 0.12-0.826-0.05-1.65-0.02-2.477 0-0.481 0.01-0.975 0.03-1.458 0.03z"/>
   <path id="Fill-45" sketch:type="MSShapeGroup" fill="#232535" d="m111.47 150.17c0.68 0.01 1.37 0 2.06-0.02s1.37-0.04 2.07-0.02v-3.75c0-1.14-0.93-2.06-2.07-2.06-1.13 0-2.06 0.92-2.06 2.06v3.79zm0.63 0.93c-0.37 0-0.75-0.01-1.12-0.03-0.24-0.01-0.44-0.21-0.44-0.46v-4.23c0-1.64 1.34-2.99 2.99-2.99 1.66 0 2.99 1.35 2.99 2.99v4.23c0 0.13-0.05 0.25-0.14 0.34-0.1 0.08-0.2 0.16-0.35 0.12-0.83-0.06-1.66-0.02-2.47 0-0.49 0.01-0.98 0.03-1.46 0.03z"/>
   <path id="Fill-46" sketch:type="MSShapeGroup" fill="#232535" d="m103.22 166.22c0.71 0.01 1.41 0 2.12-0.02 0.68-0.01 1.34-0.04 2.02-0.02v-5.06c0-1.14-0.93-2.06-2.06-2.06-1.14 0-2.08 0.92-2.08 2.06v5.1zm0.68 0.93c-0.39 0-0.78 0-1.17-0.03-0.24-0.02-0.43-0.22-0.43-0.46v-5.54c0-1.64 1.35-2.99 3-2.99 1.64 0 2.99 1.35 2.99 2.99v5.54c0 0.12-0.06 0.24-0.15 0.34-0.09 0.08-0.2 0.15-0.34 0.12-0.81-0.05-1.62-0.02-2.43 0.01-0.49 0.01-0.98 0.02-1.47 0.02z"/>
   <path id="Fill-47" sketch:type="MSShapeGroup" fill="#232535" d="m115.57 154.67h-27.452c-0.259 0-0.47-0.21-0.47-0.47 0-0.25 0.211-0.46 0.47-0.46h27.452c0.25 0 0.47 0.21 0.47 0.46 0 0.26-0.22 0.47-0.47 0.47"/>
   <path id="Fill-48" sketch:type="MSShapeGroup" fill="#F4F4F2" d="m171.02 71.041h-2.49v-6.463h-1.49v-5.467h-0.12s-3.84-8.954-4.44-12.336h-0.07v-10.452h-0.51c-4.88-4.566-5.46-22.58-5.46-22.58h-2.89c0.09 15.138-3.94 21.143-5.13 22.58h-0.43v10.452h-0.07c-0.6 3.382-4.44 12.336-4.44 12.336h-0.12v5.467h-1.49v6.463h-2.49v23.085h2.49v73.924h26.66v-73.924h2.49v-23.085"/>
   <path id="Fill-49" sketch:type="MSShapeGroup" fill="#232535" d="m142.72 167.2h24.96v-73.074c0-0.472 0.38-0.852 0.85-0.852h1.64v-21.384h-1.64c-0.47 0-0.85-0.379-0.85-0.849v-5.614h-0.64c-0.47 0-0.85-0.378-0.85-0.849v-5.039c-0.02-0.031-0.04-0.062-0.06-0.097-0.15-0.356-3.69-8.627-4.43-12.239-0.09-0.126-0.14-0.271-0.14-0.428v-9.67c-0.09-0.042-0.17-0.095-0.24-0.162-4.52-4.227-5.51-18.689-5.69-22.349h-1.23c-0.06 14.741-4.07 20.757-5.32 22.27-0.07 0.079-0.15 0.151-0.24 0.199v9.712c0 0.175-0.06 0.338-0.15 0.471-0.76 3.63-4.28 11.84-4.43 12.202-0.02 0.029-0.04 0.06-0.05 0.091v5.039c0 0.471-0.38 0.849-0.85 0.849h-0.64v5.614c0 0.47-0.38 0.849-0.85 0.849h-1.64v21.384h1.64c0.47 0 0.85 0.38 0.85 0.852v73.074zm25.81 1.7h-26.66c-0.47 0-0.85-0.38-0.85-0.85v-73.075h-1.64c-0.47 0-0.85-0.38-0.85-0.849v-23.085c0-0.47 0.38-0.85 0.85-0.85h1.64v-5.613c0-0.471 0.38-0.851 0.85-0.851h0.64v-4.616c0-0.273 0.12-0.519 0.33-0.669 0.7-1.652 3.74-8.93 4.24-11.817 0.02-0.06 0.03-0.121 0.06-0.182v-10.12c0-0.472 0.38-0.853 0.85-0.853h0.02c1.39-1.854 4.78-7.823 4.69-21.72 0-0.228 0.09-0.446 0.25-0.604 0.16-0.162 0.38-0.252 0.6-0.252h2.89c0.46 0 0.84 0.367 0.85 0.82 0.01 0.175 0.6 17.127 4.95 21.756h0.17c0.47 0 0.85 0.381 0.85 0.853v10.132c0.03 0.055 0.04 0.116 0.05 0.17 0.53 2.935 3.65 10.411 4.28 11.895 0.18 0.15 0.3 0.361 0.3 0.591v4.616h0.64c0.47 0 0.85 0.38 0.85 0.851v5.613h1.64c0.47 0 0.85 0.38 0.85 0.85v23.085c0 0.469-0.38 0.849-0.85 0.849h-1.64v73.075c0 0.47-0.38 0.85-0.85 0.85z"/>
   <path id="Fill-50" sketch:type="MSShapeGroup" fill="#F4F4F2" d="m171.02 71.041h-2.49v-6.463h-1.49v-5.467h-0.12s-3.84-8.954-4.44-12.336h-0.07v-10.452h-0.51c-4.88-4.578-5.46-22.58-5.46-22.58h-2.89c0.09 15.036-3.9 21.09-5.11 22.58h-0.45v10.452h-0.07c-0.6 3.382-4.44 12.336-4.44 12.336h-0.12v5.467h-1.49v6.463h-2.49v23.085h2.49v73.924h26.66v-73.924h2.49v-23.085"/>
   <path id="Fill-51" sketch:type="MSShapeGroup" fill="#DC3D39" d="m173.98 71.041h-2.49v-6.463h-1.49v-5.467h-0.12s-3.84-8.954-4.44-12.336h-0.07v-10.452h-0.51c-4.88-4.578-5.46-22.58-5.46-22.58h-2.89c0.09 15.036-3.91 21.09-5.11 22.58h-0.45v10.452h-0.07c-0.6 3.382-4.45 12.336-4.45 12.336h-0.11v5.467h-1.49v6.463h-2.49v23.085h2.49v73.924h26.66v-73.924h2.49v-23.085"/>
   <path id="Fill-52" sketch:type="MSShapeGroup" fill="#232535" d="m143.1 166.81h24.2v-72.684c0-0.683 0.55-1.237 1.23-1.237h1.25v-20.612h-1.25c-0.68 0-1.23-0.555-1.23-1.236v-5.227h-0.26c-0.68 0-1.24-0.554-1.24-1.236v-4.938c0-0.012-0.01-0.029-0.02-0.043-0.15-0.36-3.66-8.559-4.45-12.249-0.09-0.169-0.15-0.368-0.15-0.573v-9.446c-0.04-0.032-0.09-0.066-0.13-0.11-4.51-4.237-5.56-17.862-5.79-22.239h-0.47c-0.13 14.505-4.14 20.574-5.39 22.119-0.06 0.066-0.11 0.127-0.18 0.175v9.501c0 0.224-0.06 0.435-0.16 0.616-0.81 3.713-4.3 11.852-4.45 12.206-0.01 0.014-0.01 0.026-0.02 0.038v4.943c0 0.682-0.55 1.236-1.23 1.236h-0.26v5.227c0 0.681-0.55 1.236-1.23 1.236h-1.26v20.612h1.26c0.68 0 1.23 0.554 1.23 1.237v72.684zm25.43 2.47h-26.66c-0.68 0-1.24-0.55-1.24-1.23v-72.691h-1.25c-0.68 0-1.24-0.553-1.24-1.233v-23.085c0-0.682 0.56-1.236 1.24-1.236h1.25v-5.227c0-0.683 0.56-1.235 1.24-1.235h0.25v-4.232c0-0.357 0.15-0.683 0.4-0.905 0.75-1.791 3.69-8.844 4.19-11.648 0.01-0.06 0.02-0.12 0.04-0.181v-10.054c0-0.629 0.47-1.141 1.07-1.225 1.41-1.996 4.58-7.97 4.5-21.348 0-0.326 0.13-0.645 0.36-0.875 0.23-0.234 0.54-0.367 0.87-0.367h2.89c0.67 0 1.22 0.53 1.24 1.194 0.15 4.726 1.3 17.47 4.74 21.383 0.68 0.006 1.23 0.555 1.23 1.238v10.06c0.02 0.055 0.03 0.115 0.05 0.175 0.5 2.851 3.52 10.104 4.21 11.739 0.23 0.215 0.36 0.5 0.36 0.814v4.232h0.26c0.68 0 1.24 0.552 1.24 1.235v5.227h1.25c0.68 0 1.23 0.554 1.23 1.236v23.085c0 0.68-0.55 1.233-1.23 1.233h-1.25v72.691c0 0.68-0.56 1.23-1.24 1.23z"/>
   <path id="Fill-53" sketch:type="MSShapeGroup" fill="#232535" d="m149.81 35.876h10.54c-3.71-5.251-4.56-17.893-4.72-21.282h-1.23c-0.06 12.493-2.93 18.725-4.59 21.282zm12.54 1.699h-0.04-14.23c-0.35 0-0.66-0.211-0.79-0.536-0.12-0.321-0.04-0.693 0.21-0.929 0.05-0.048 5.3-5.354 5.2-22.36 0-0.228 0.09-0.446 0.25-0.604 0.16-0.162 0.38-0.252 0.6-0.252h2.89c0.46 0 0.84 0.367 0.85 0.827 0.16 5.142 1.44 19.049 5.39 22.227 0.31 0.127 0.52 0.428 0.52 0.778 0 0.469-0.38 0.849-0.85 0.849z"/>
   <path id="Fill-54" sketch:type="MSShapeGroup" fill="#232535" d="m148.6 53.913h13.19v-16.977h-13.19v16.977zm13.81 1.231h-14.42c-0.34 0-0.62-0.273-0.62-0.616v-18.205c0-0.345 0.28-0.617 0.62-0.617h14.42c0.35 0 0.62 0.272 0.62 0.617v18.205c0 0.343-0.27 0.616-0.62 0.616z"/>
   <path id="Fill-55" sketch:type="MSShapeGroup" fill="#232535" d="m155.04 58.681l0.5 0.007c0.04-0.007 0.08-0.013 0.13-0.013l10.32-0.167c-0.92-2.2-3.32-8.081-4.02-11.117h-13.55c-0.69 3.036-3.1 8.917-4.02 11.117l10.04 0.167c0.04 0 0.08 0.006 0.12 0.013l0.48-0.007zm-0.61 1.242c-0.06 0-0.11-0.006-0.16-0.017l-10.81-0.181c-0.2 0-0.39-0.109-0.5-0.277-0.12-0.175-0.13-0.392-0.05-0.58 0.04-0.088 3.82-8.927 4.4-12.201 0.05-0.295 0.32-0.508 0.61-0.508h14.56c0.3 0 0.55 0.213 0.61 0.508 0.58 3.274 4.36 12.113 4.39 12.201 0.09 0.188 0.06 0.405-0.05 0.58-0.1 0.168-0.3 0.277-0.5 0.277l-11.11 0.181c-0.05 0.011-0.12 0-0.15 0.017l-0.63-0.011-0.6 0.011h-0.01z"/>
   <path id="Fill-56" sketch:type="MSShapeGroup" fill="#232535" d="m143.97 102.87h22.45v-43.145h-22.45v43.145zm23.07 1.23h-23.68c-0.34 0-0.62-0.28-0.62-0.62v-44.369c0-0.345 0.28-0.616 0.62-0.616h23.68c0.34 0 0.61 0.271 0.61 0.616v44.369c0 0.34-0.27 0.62-0.61 0.62z"/>
   <path id="Fill-57" sketch:type="MSShapeGroup" fill="#232535" d="m168.53 168.66c-0.33 0-0.61-0.27-0.61-0.61v-102.86l-25.43 0.004v102.86c0 0.34-0.28 0.61-0.62 0.61-0.35 0-0.62-0.27-0.62-0.61v-103.47c0-0.345 0.27-0.618 0.62-0.618h26.66c0.34 0 0.62 0.273 0.62 0.616v103.47c0 0.34-0.28 0.61-0.62 0.61"/>
   <path id="Fill-58" sketch:type="MSShapeGroup" fill="#F4F4F2" d="m139.38 71.041h31.64v23.085h-31.64v-23.085z"/>
   <path id="Fill-59" sketch:type="MSShapeGroup" fill="#D55755" d="m142.46 71.041h31.64v23.085h-31.64v-23.085z"/>
   <path id="Fill-60" sketch:type="MSShapeGroup" fill="#232535" d="m139.99 93.51h30.41v-21.854h-30.41v21.854zm31.03 1.23h-31.64c-0.34 0-0.62-0.272-0.62-0.614v-23.085c0-0.344 0.28-0.615 0.62-0.615h31.64c0.34 0 0.61 0.271 0.61 0.615v23.085c0 0.342-0.27 0.614-0.61 0.614z"/>
   <path id="Fill-61" sketch:type="MSShapeGroup" fill="#fff" d="m156.74 73.778c-4.94 0-8.96 4.021-8.96 8.959s4.02 8.958 8.96 8.958 8.96-4.02 8.96-8.958-4.02-8.959-8.96-8.959"/>
   <path id="Fill-62" sketch:type="MSShapeGroup" fill="#232535" d="m155.2 73.778c-4.95 0-8.96 4.021-8.96 8.959s4.01 8.958 8.96 8.958c4.94 0 8.96-4.02 8.96-8.958s-4.02-8.959-8.96-8.959zm0 18.845c-5.45 0-9.89-4.436-9.89-9.886s4.44-9.888 9.89-9.888 9.89 4.438 9.89 9.888-4.44 9.886-9.89 9.886z"/>
   <path id="Fill-63" sketch:type="MSShapeGroup" fill="#232535" d="m147.3 69.523c-0.25 0-0.46-0.213-0.46-0.466v-3.181c0-0.256 0.21-0.465 0.46-0.465s0.46 0.209 0.46 0.465v3.181c0 0.253-0.21 0.466-0.46 0.466"/>
   <path id="Fill-64" sketch:type="MSShapeGroup" fill="#232535" d="m150.48 69.523c-0.25 0-0.46-0.213-0.46-0.466v-3.181c0-0.256 0.21-0.465 0.46-0.465 0.26 0 0.47 0.209 0.47 0.465v3.181c0 0.253-0.21 0.466-0.47 0.466"/>
   <path id="Fill-65" sketch:type="MSShapeGroup" fill="#232535" d="m153.67 69.523c-0.26 0-0.46-0.213-0.46-0.466v-3.181c0-0.256 0.2-0.465 0.46-0.465 0.25 0 0.47 0.209 0.47 0.465v3.181c0 0.253-0.22 0.466-0.47 0.466"/>
   <path id="Fill-66" sketch:type="MSShapeGroup" fill="#232535" d="m156.86 69.523c-0.26 0-0.47-0.213-0.47-0.466v-3.181c0-0.256 0.21-0.465 0.47-0.465 0.25 0 0.46 0.209 0.46 0.465v3.181c0 0.253-0.21 0.466-0.46 0.466"/>
   <path id="Fill-67" sketch:type="MSShapeGroup" fill="#232535" d="m160.03 69.523c-0.25 0-0.46-0.213-0.46-0.466v-3.181c0-0.256 0.21-0.465 0.46-0.465 0.26 0 0.47 0.209 0.47 0.465v3.181c0 0.253-0.21 0.466-0.47 0.466"/>
   <path id="Fill-68" sketch:type="MSShapeGroup" fill="#232535" d="m163.22 69.523c-0.26 0-0.46-0.213-0.46-0.466v-3.181c0-0.256 0.2-0.465 0.46-0.465s0.46 0.209 0.46 0.465v3.181c0 0.253-0.2 0.466-0.46 0.466"/>
   <path id="Fill-69" sketch:type="MSShapeGroup" fill="#232535" d="m147.3 99.666c-0.25 0-0.46-0.213-0.46-0.466v-3.19c0-0.253 0.21-0.462 0.46-0.462s0.46 0.209 0.46 0.462v3.19c0 0.253-0.21 0.466-0.46 0.466"/>
   <path id="Fill-70" sketch:type="MSShapeGroup" fill="#232535" d="m150.48 99.666c-0.25 0-0.46-0.213-0.46-0.466v-3.19c0-0.253 0.21-0.462 0.46-0.462 0.26 0 0.47 0.209 0.47 0.462v3.19c0 0.253-0.21 0.466-0.47 0.466"/>
   <path id="Fill-71" sketch:type="MSShapeGroup" fill="#232535" d="m153.67 99.666c-0.26 0-0.46-0.213-0.46-0.466v-3.19c0-0.253 0.2-0.462 0.46-0.462 0.25 0 0.47 0.209 0.47 0.462v3.19c0 0.253-0.22 0.466-0.47 0.466"/>
   <path id="Fill-72" sketch:type="MSShapeGroup" fill="#232535" d="m156.86 99.666c-0.26 0-0.47-0.213-0.47-0.466v-3.19c0-0.253 0.21-0.462 0.47-0.462 0.25 0 0.46 0.209 0.46 0.462v3.19c0 0.253-0.21 0.466-0.46 0.466"/>
   <path id="Fill-73" sketch:type="MSShapeGroup" fill="#232535" d="m160.03 99.666c-0.25 0-0.46-0.213-0.46-0.466v-3.19c0-0.253 0.21-0.462 0.46-0.462 0.26 0 0.47 0.209 0.47 0.462v3.19c0 0.253-0.21 0.466-0.47 0.466"/>
   <path id="Fill-74" sketch:type="MSShapeGroup" fill="#232535" d="m163.22 99.666c-0.26 0-0.46-0.213-0.46-0.466v-3.19c0-0.253 0.2-0.462 0.46-0.462s0.46 0.209 0.46 0.462v3.19c0 0.253-0.2 0.466-0.46 0.466"/>
   <path id="Fill-75" sketch:type="MSShapeGroup" fill="#232535" d="m152.08 51.718c-0.26 0-0.46-0.21-0.46-0.464v-1.996c0-0.252 0.2-0.463 0.46-0.463 0.25 0 0.46 0.211 0.46 0.463v1.996c0 0.254-0.21 0.464-0.46 0.464"/>
   <path id="Fill-76" sketch:type="MSShapeGroup" fill="#232535" d="m155.16 51.718c-0.26 0-0.47-0.21-0.47-0.464v-1.996c0-0.252 0.21-0.463 0.47-0.463s0.46 0.211 0.46 0.463v1.996c0 0.254-0.2 0.464-0.46 0.464"/>
   <path id="Fill-77" sketch:type="MSShapeGroup" fill="#232535" d="m158.24 51.718c-0.26 0-0.46-0.21-0.46-0.464v-1.996c0-0.252 0.2-0.463 0.46-0.463s0.47 0.211 0.47 0.463v1.996c0 0.254-0.21 0.464-0.47 0.464"/>
   <path id="Fill-78" sketch:type="MSShapeGroup" fill="#232535" d="m150.54 45.896c-0.26 0-0.47-0.211-0.47-0.465v-1.989c0-0.254 0.21-0.464 0.47-0.464s0.46 0.21 0.46 0.464v1.989c0 0.254-0.2 0.465-0.46 0.465"/>
   <path id="Fill-79" sketch:type="MSShapeGroup" fill="#232535" d="m153.62 45.896c-0.26 0-0.47-0.211-0.47-0.465v-1.989c0-0.254 0.21-0.464 0.47-0.464 0.25 0 0.46 0.21 0.46 0.464v1.989c0 0.254-0.21 0.465-0.46 0.465"/>
   <path id="Fill-80" sketch:type="MSShapeGroup" fill="#232535" d="m156.71 45.896c-0.26 0-0.46-0.211-0.46-0.465v-1.989c0-0.254 0.2-0.464 0.46-0.464 0.25 0 0.46 0.21 0.46 0.464v1.989c0 0.254-0.21 0.465-0.46 0.465"/>
   <path id="Fill-81" sketch:type="MSShapeGroup" fill="#232535" d="m159.89 45.896c-0.25 0-0.47-0.211-0.47-0.465v-1.989c0-0.254 0.22-0.464 0.47-0.464s0.46 0.21 0.46 0.464v1.989c0 0.254-0.21 0.465-0.46 0.465"/>
   <path id="Fill-82" sketch:type="MSShapeGroup" fill="#232535" d="m164.91 62.154h-19.24c-0.25 0-0.46-0.21-0.46-0.464 0-0.253 0.21-0.463 0.46-0.463h19.24c0.26 0 0.46 0.21 0.46 0.463 0 0.254-0.2 0.464-0.46 0.464"/>
   <path id="Fill-83" sketch:type="MSShapeGroup" fill="#232535" d="m167.89 118.12h-26.26c-0.34 0-0.62-0.27-0.62-0.61s0.28-0.61 0.62-0.61h26.26c0.35 0 0.62 0.27 0.62 0.61s-0.27 0.61-0.62 0.61"/>
   <path id="Fill-84" sketch:type="MSShapeGroup" fill="#232535" d="m167.89 119.81h-26.26c-0.34 0-0.62-0.27-0.62-0.61s0.28-0.62 0.62-0.62h26.26c0.35 0 0.62 0.28 0.62 0.62s-0.27 0.61-0.62 0.61"/>
   <path id="Fill-85" sketch:type="MSShapeGroup" fill="#232535" d="m167.89 134.93h-26.26c-0.34 0-0.62-0.27-0.62-0.61s0.28-0.62 0.62-0.62h26.26c0.35 0 0.62 0.28 0.62 0.62s-0.27 0.61-0.62 0.61"/>
   <path id="Fill-86" sketch:type="MSShapeGroup" fill="#232535" d="m167.89 136.62h-26.26c-0.34 0-0.62-0.27-0.62-0.61 0-0.35 0.28-0.62 0.62-0.62h26.26c0.35 0 0.62 0.27 0.62 0.62 0 0.34-0.27 0.61-0.62 0.61"/>
   <path id="Fill-87" sketch:type="MSShapeGroup" fill="#232535" d="m167.89 152.84h-26.26c-0.34 0-0.62-0.27-0.62-0.61 0-0.35 0.28-0.61 0.62-0.61h26.26c0.35 0 0.62 0.26 0.62 0.61 0 0.34-0.27 0.61-0.62 0.61"/>
   <path id="Fill-88" sketch:type="MSShapeGroup" fill="#232535" d="m167.89 154.53h-26.26c-0.34 0-0.62-0.27-0.62-0.61 0-0.35 0.28-0.62 0.62-0.62h26.26c0.35 0 0.62 0.27 0.62 0.62 0 0.34-0.27 0.61-0.62 0.61"/>
   <path id="Fill-89" sketch:type="MSShapeGroup" fill="#232535" d="m167.2 61.165c-0.26 0-0.46-0.21-0.46-0.463v-7.157c0-0.254 0.2-0.464 0.46-0.464s0.46 0.21 0.46 0.464v7.157c0 0.253-0.2 0.463-0.46 0.463"/>
   <path id="Fill-90" sketch:type="MSShapeGroup" fill="#232535" d="m142.92 61.165c-0.26 0-0.47-0.21-0.47-0.463v-7.157c0-0.254 0.21-0.464 0.47-0.464s0.46 0.21 0.46 0.464v7.157c0 0.253-0.2 0.463-0.46 0.463"/>
   <path id="Fill-91" sketch:type="MSShapeGroup" fill="#232535" d="m147.8 39.678c-0.26 0-0.47-0.209-0.47-0.463v-7.163c0-0.252 0.21-0.464 0.47-0.464 0.25 0 0.46 0.212 0.46 0.464v7.163c0 0.254-0.21 0.463-0.46 0.463"/>
   <path id="Fill-92" sketch:type="MSShapeGroup" fill="#232535" d="m162.42 39.678c-0.25 0-0.47-0.209-0.47-0.463v-7.163c0-0.252 0.22-0.464 0.47-0.464s0.46 0.212 0.46 0.464v7.163c0 0.254-0.21 0.463-0.46 0.463"/>
   <path id="Fill-93" sketch:type="MSShapeGroup" fill="#232535" d="m155.06 14.612c-0.42 0-0.77-0.343-0.77-0.77v-12.728c0-0.427 0.35-0.771 0.77-0.771 0.43 0 0.78 0.344 0.78 0.771v12.728c0 0.427-0.35 0.77-0.78 0.77"/>
   <path id="Fill-94" sketch:type="MSShapeGroup" fill="#232535" d="m155.2 83.201c-0.1 0-0.2-0.029-0.28-0.097l-2.92-2.237c-0.21-0.156-0.25-0.445-0.1-0.651 0.16-0.198 0.46-0.246 0.66-0.085l2.61 2.003 3.96-3.576c0.19-0.168 0.49-0.162 0.65 0.035 0.18 0.189 0.16 0.484-0.03 0.652l-4.24 3.835c-0.09 0.079-0.2 0.121-0.31 0.121"/>
   <path id="Fill-95" sketch:type="MSShapeGroup" fill="#232535" d="m144.15 167.72c-0.17 0-0.31-0.14-0.31-0.3v-63.67c0-0.17 0.14-0.31 0.31-0.31s0.3 0.14 0.3 0.31v63.67c0 0.16-0.13 0.3-0.3 0.3"/>
   <path id="Fill-96" sketch:type="MSShapeGroup" fill="#232535" d="m166.57 167.72c-0.17 0-0.3-0.14-0.3-0.3v-63.67c0-0.17 0.13-0.31 0.3-0.31s0.31 0.14 0.31 0.31v63.67c0 0.16-0.14 0.3-0.31 0.3"/>
   <path id="Fill-97" sketch:type="MSShapeGroup" fill="#F4F4F2" d="m135.97 168.24h37.99"/>
   <path id="Fill-98" sketch:type="MSShapeGroup" fill="#232535" d="m173.96 169.48h-37.99c-0.68 0-1.24-0.56-1.24-1.24s0.56-1.23 1.24-1.23h37.99c0.68 0 1.23 0.55 1.23 1.23s-0.55 1.24-1.23 1.24"/>
   <path id="Fill-99" sketch:type="MSShapeGroup" fill="#fff" d="m233.66 40.26c0-0.502 0.15-0.983 0.29-1.448h-2.72c0.15 0.465 0.29 0.946 0.29 1.448 0 1.801-1.04 3.321-2.52 4.111v1.634h7.18v-1.634c-1.48-0.79-2.52-2.31-2.52-4.111"/>
   <path id="Fill-100" sketch:type="MSShapeGroup" fill="#232535" d="m230.61 44.769h3.96c-0.99-0.821-1.68-1.924-1.98-3.148-0.29 1.224-0.99 2.327-1.98 3.148zm5.57 2.471h-7.18c-0.68 0-1.24-0.556-1.24-1.235v-1.634c0-0.458 0.26-0.876 0.66-1.091 1.15-0.615 1.87-1.772 1.87-3.02 0-0.333-0.11-0.712-0.23-1.067-0.12-0.375-0.06-0.786 0.18-1.105 0.23-0.318 0.6-0.512 0.99-0.512h2.72c0.4 0 0.76 0.187 1 0.507 0.23 0.314 0.3 0.717 0.18 1.097-0.12 0.392-0.23 0.766-0.23 1.08 0 1.248 0.72 2.411 1.86 3.02 0.4 0.215 0.66 0.633 0.66 1.091v1.634c0 0.679-0.56 1.235-1.24 1.235z"/>
   <path id="Fill-101" sketch:type="MSShapeGroup" fill="#fff" d="m226.16 44.022h12.86v10.338h-12.86v-10.338z"/>
   <path id="Fill-102" sketch:type="MSShapeGroup" fill="#232535" d="m227.39 53.124h10.4v-7.867h-10.4v7.867zm11.63 2.472h-12.86c-0.68 0-1.24-0.554-1.24-1.236v-10.338c0-0.681 0.56-1.237 1.24-1.237h12.86c0.68 0 1.24 0.556 1.24 1.237v10.338c0 0.682-0.56 1.236-1.24 1.236z"/>
   <path id="Fill-103" sketch:type="MSShapeGroup" fill="#232535" d="m232.54 39.403c-0.26 0-0.47-0.21-0.47-0.464v-25.398c0-0.253 0.21-0.464 0.47-0.464s0.46 0.211 0.46 0.464v25.398c0 0.254-0.2 0.464-0.46 0.464"/>
   <path id="Fill-104" sketch:type="MSShapeGroup" fill="#fff" d="m238.64 54.566h-12.1c0.53 10.376-2.72 41.765-6.61 64.594h25.32c-3.88-22.829-7.14-54.218-6.61-64.594"/>
   <path id="Fill-105" sketch:type="MSShapeGroup" fill="#232535" d="m221.39 117.93h22.4c-3.66-22.049-6.64-50.989-6.43-62.129h-9.54c0.22 11.166-2.77 40.103-6.43 62.129zm23.86 2.47h-25.32c-0.36 0-0.71-0.16-0.94-0.44-0.24-0.28-0.34-0.64-0.28-1 3.91-22.953 7.11-54.211 6.6-64.329-0.03-0.344 0.1-0.669 0.33-0.916 0.23-0.248 0.56-0.385 0.9-0.385h12.1c0.34 0 0.67 0.137 0.9 0.385 0.24 0.247 0.36 0.572 0.34 0.916-0.52 10.087 2.68 41.352 6.59 64.329 0.06 0.36-0.04 0.72-0.27 1-0.24 0.28-0.58 0.44-0.95 0.44z"/>
   <path id="Fill-106" sketch:type="MSShapeGroup" fill="#232535" d="m219.74 117.93h25.76v-0.18h-25.76v0.18zm27.01 2.47h-28.24c-0.68 0-1.24-0.56-1.24-1.24v-2.65c0-0.68 0.56-1.24 1.24-1.24h28.24c0.67 0 1.23 0.56 1.23 1.24v2.65c0 0.68-0.56 1.24-1.23 1.24z"/>
   <path id="Fill-107" sketch:type="MSShapeGroup" fill="#fff" d="m252.71 147.66h-40.23c-5.51 12.88-12.49 20.55-12.49 20.55h16.02c1.09-9 8.02-15.97 16.49-15.97 8.48 0 15.41 6.97 16.51 15.97h16.19s-6.98-7.67-12.49-20.55"/>
   <path id="Fill-108" sketch:type="MSShapeGroup" fill="#232535" d="m250.07 166.97h12.5c-2.38-3.03-6.82-9.29-10.68-18.07h-38.6c-3.86 8.78-8.29 15.04-10.67 18.07h12.32c1.6-9.17 8.98-15.97 17.56-15.97 8.6 0 15.98 6.8 17.57 15.97zm15.13 2.47h-16.19c-0.63 0-1.16-0.46-1.23-1.08-1.03-8.49-7.6-14.89-15.28-14.89-7.67 0-14.23 6.4-15.26 14.89-0.08 0.61-0.61 1.08-1.23 1.08h-16.02c-0.5 0-0.94-0.29-1.14-0.73-0.19-0.45-0.1-0.97 0.22-1.33 0.07-0.08 6.92-7.68 12.27-20.21 0.2-0.45 0.64-0.75 1.14-0.75h40.23c0.49 0 0.94 0.3 1.14 0.75 5.35 12.53 12.19 20.13 12.26 20.21 0.33 0.36 0.42 0.88 0.22 1.33-0.2 0.44-0.64 0.73-1.13 0.73z"/>
   <path id="Fill-109" sketch:type="MSShapeGroup" fill="#fff" d="m219.93 119.16c-0.8 4.66-1.61 8.78-2.42 12.49h9.59l2.25-12.49h-9.42"/>
   <path id="Fill-110" sketch:type="MSShapeGroup" fill="#232535" d="m219.04 130.41h7.03l1.81-10.01h-6.91c-0.61 3.53-1.25 6.83-1.93 10.01zm8.06 2.47h-9.59c-0.37 0-0.73-0.16-0.96-0.46-0.24-0.29-0.32-0.67-0.24-1.04 0.86-3.91 1.64-7.98 2.4-12.42 0.11-0.6 0.62-1.03 1.22-1.03h9.42c0.37 0 0.71 0.16 0.95 0.44 0.23 0.28 0.34 0.65 0.26 1.01l-2.24 12.48c-0.11 0.6-0.62 1.02-1.22 1.02z"/>
   <path id="Fill-111" sketch:type="MSShapeGroup" fill="#232535" d="m228.12 130.8h8.98l-1.46-10.79h-5.58l-1.94 10.79zm9.96 1.7h-10.98c-0.25 0-0.49-0.12-0.65-0.31-0.17-0.19-0.23-0.45-0.19-0.69l2.25-12.49c0.08-0.4 0.43-0.7 0.84-0.7h7.03c0.42 0 0.78 0.31 0.84 0.74l1.69 12.48c0.03 0.25-0.04 0.49-0.19 0.68-0.17 0.18-0.4 0.29-0.64 0.29z"/>
   <path id="Fill-112" sketch:type="MSShapeGroup" fill="#fff" d="m247.67 131.65c-0.81-3.71-1.63-7.83-2.42-12.49h-8.87l1.7 12.49h9.59"/>
   <path id="Fill-113" sketch:type="MSShapeGroup" fill="#232535" d="m239.15 130.41h6.99c-0.69-3.23-1.32-6.53-1.93-10.01h-6.42l1.36 10.01zm8.52 2.47h-9.59c-0.62 0-1.15-0.45-1.23-1.06l-1.7-12.49c-0.05-0.35 0.06-0.71 0.3-0.98 0.23-0.27 0.57-0.42 0.93-0.42h8.87c0.6 0 1.12 0.43 1.22 1.03 0.75 4.36 1.53 8.42 2.41 12.42 0.08 0.37-0.01 0.75-0.24 1.04-0.23 0.3-0.59 0.46-0.97 0.46z"/>
   <path id="Fill-114" sketch:type="MSShapeGroup" fill="#232535" d="m206.17 160.41c-0.06-0.01-0.11 0-0.15 0.02s-0.08 0.02-0.11 0.05c-0.02 0.03-0.02 0.06-0.02 0.08l0.29-0.14s-0.01 0-0.01-0.01"/>
   <path id="Fill-115" sketch:type="MSShapeGroup" fill="#232535" d="m210.92 164.13l-4.17-3.3-0.5 0.24 4.15 3.28 0.52-0.22"/>
   <path id="Fill-116" sketch:type="MSShapeGroup" fill="#232535" d="m215.34 167.63l-3.87-3.06-0.52 0.22 4.09 3.23c0.04 0.04 0.1 0.05 0.14 0.05 0.08 0 0.16-0.03 0.2-0.09 0.03-0.03 0.02-0.08 0.03-0.11 0-0.05 0-0.09-0.01-0.14-0.02-0.03-0.03-0.07-0.06-0.1"/>
   <path id="Fill-117" sketch:type="MSShapeGroup" fill="#232535" d="m208.85 155.16l3.16 2.5 0.49-0.24-3.34-2.64s-0.01 0-0.01-0.01c-0.01 0-0.01 0.01-0.02 0.01-0.02 0-0.03-0.03-0.05-0.03l-0.01-0.01c-0.05-0.02-0.1 0-0.15 0.02-0.04 0.02-0.08 0.02-0.11 0.05-0.02 0.04-0.02 0.07-0.03 0.11 0 0.05 0 0.1 0.02 0.14 0.01 0.04 0.02 0.08 0.05 0.1"/>
   <path id="Fill-118" sketch:type="MSShapeGroup" fill="#232535" d="m217.2 161.49c0.05-0.02 0.09-0.03 0.14-0.03 0.02 0 0.03 0.04 0.06 0.04 0.01-0.05 0.04-0.11 0.04-0.17l-4.4-3.49-0.5 0.24 4.44 3.51 0.22-0.1"/>
   <path id="Fill-119" sketch:type="MSShapeGroup" fill="#232535" d="m218.24 161.96l-0.28-0.22c-0.04 0.17-0.09 0.36-0.14 0.52l0.11 0.09c0.05 0.04 0.11 0.05 0.15 0.05 0.08 0 0.15-0.04 0.2-0.09 0.02-0.04 0.02-0.07 0.03-0.11 0-0.05 0-0.1-0.01-0.14-0.02-0.03-0.03-0.08-0.06-0.1"/>
   <path id="Fill-120" sketch:type="MSShapeGroup" fill="#232535" d="m222.74 147.7c-0.03-0.02-0.06-0.02-0.1-0.02-0.02 0-0.04 0.02-0.07 0.02-0.07 0.01-0.13 0.04-0.17 0.1-0.87 1.64-1.74 3.83-2.56 6.13 0.05-0.02 0.1-0.04 0.14-0.04 0.12 0 0.23 0.08 0.28 0.19 0.03 0.05-0.05 0.08-0.05 0.13 0 0.03 0.01 0.06 0 0.08 0 0.03-0.03 0.04-0.05 0.06-0.02 0.04 0 0.11-0.05 0.13l-0.06 0.04c0.02 0.02-0.01 0.07 0.01 0.11 0.01 0.02 0.03 0.04 0.03 0.07 0 0.02-0.02 0.05-0.02 0.07-0.01 0.01 0 0.02 0 0.03 0.87-2.53 1.82-4.99 2.77-6.77 0.01-0.04 0.01-0.07 0.01-0.12 0-0.04-0.01-0.09-0.05-0.13-0.01-0.03-0.03-0.07-0.06-0.08"/>
   <path id="Fill-121" sketch:type="MSShapeGroup" fill="#232535" d="m219.65 154.95l-0.12-0.1c-0.76 2.25-1.45 4.49-2.01 6.46-0.01 0.02-0.01 0.04-0.02 0.07-0.02 0.05-0.04 0.1-0.06 0.16 0.07 0.04 0.14 0.05 0.17 0.11 0.02 0.06-0.04 0.09-0.06 0.14 0 0.03 0.02 0.05 0 0.07 0 0.03-0.03 0.04-0.04 0.06-0.02 0.02-0.01 0.05-0.03 0.06-0.02 0.02 0 0.06-0.03 0.06-0.01 0.01 0 0.02-0.01 0.02l-0.16 0.07c-0.73 2.6-1.19 4.45-1.2 4.5s0.01 0.08 0.02 0.12c0.01 0.05 0.03 0.08 0.07 0.11 0.03 0.03 0.05 0.06 0.09 0.07 0.02 0.01 0.04 0.01 0.06 0.01 0.11 0 0.21-0.08 0.23-0.19l0.01-0.04c0.13-0.46 0.56-2.19 1.19-4.42 0.01-0.03 0.01-0.05 0.02-0.07 0.05-0.18 0.09-0.33 0.15-0.52 0-0.02 0.01-0.04 0.01-0.06 0.58-2.02 1.3-4.39 2.1-6.7-0.07 0.04-0.12 0.08-0.19 0.08s-0.14-0.02-0.19-0.07"/>
   <path id="Fill-122" sketch:type="MSShapeGroup" fill="#232535" d="m215.55 151.39l3.46 2.94 0.49-0.23-3.49-2.97-0.46 0.26"/>
   <path id="Fill-123" sketch:type="MSShapeGroup" fill="#232535" d="m212.12 148.48l2.93 2.48 0.46-0.25-3.07-2.61c-0.02-0.02-0.06-0.02-0.09-0.04-0.05-0.01-0.09 0-0.14 0.02-0.04 0.01-0.09 0.02-0.12 0.05-0.02 0.03-0.02 0.07-0.03 0.1-0.01 0.05 0 0.09 0.01 0.14 0.02 0.04 0.02 0.08 0.05 0.11"/>
   <path id="Fill-124" sketch:type="MSShapeGroup" fill="#232535" d="m220.01 154.53l-0.44 0.22-0.04 0.01 0.03 0.03 0.13 0.11c0.04 0.04 0.09 0.06 0.15 0.06 0.08 0 0.15-0.03 0.19-0.09 0.03-0.03 0.03-0.07 0.04-0.1 0-0.06 0-0.09-0.01-0.14-0.02-0.04-0.02-0.07-0.05-0.1"/>
   <path id="Fill-125" sketch:type="MSShapeGroup" fill="#232535" d="m217.55 161.68c-0.02-0.05-0.07-0.06-0.11-0.09-0.02 0-0.02-0.01-0.04-0.02 0-0.01-0.01-0.01-0.02-0.01h0.01c-0.03-0.01-0.03-0.04-0.05-0.04-0.01 0-0.03 0.01-0.04 0.01-0.02 0-0.05 0-0.06 0.01l-0.22 0.09-0.06 0.03-5.93 2.49-0.06 0.03-0.52 0.22-0.06 0.02-8.16 3.43c-0.04 0.02-0.06 0.05-0.09 0.08-0.02 0.05-0.04 0.08-0.04 0.13-0.01 0.04-0.02 0.08 0 0.12 0.03 0.09 0.12 0.15 0.23 0.15 0.03 0 0.06-0.01 0.09-0.02l8.41-3.53 0.07-0.03 0.52-0.22 0.06-0.03 5.75-2.41 0.07-0.03 0.11-0.05 0.01-0.01c0.02 0 0.02-0.02 0.04-0.03l0.05-0.05c0.02-0.04 0.04-0.08 0.04-0.13 0.01-0.04 0.02-0.08 0-0.11"/>
   <path id="Fill-126" sketch:type="MSShapeGroup" fill="#232535" d="m220.21 154.1c-0.04-0.06-0.11-0.09-0.17-0.1-0.03-0.01-0.04-0.04-0.06-0.04s-0.02 0.01-0.03 0.01c-0.02 0-0.05 0-0.07 0.01l-0.06 0.03-0.08 0.04-0.13 0.06-0.06 0.03-0.49 0.23-0.06 0.03-6.38 3.03-0.06 0.03-0.5 0.24-0.06 0.03-5.67 2.69-0.07 0.03-0.38 0.19h-0.01l-0.88 0.42c-0.03 0.01-0.05 0.05-0.07 0.08-0.04 0.04-0.05 0.08-0.05 0.13 0 0.04-0.01 0.08 0 0.12 0.05 0.08 0.13 0.14 0.23 0.14 0.04 0 0.07-0.01 0.1-0.03l0.94-0.44 0.06-0.04 0.49-0.23 0.07-0.03 5.67-2.69 0.06-0.03 0.49-0.24 0.06-0.02 6.37-3.03 0.06-0.03 0.05-0.02 0.08-0.03 0.36-0.18 0.07-0.03 0.06-0.03c0.03-0.02 0.05-0.05 0.07-0.08 0.04-0.05 0.05-0.08 0.05-0.14 0-0.04 0.01-0.07 0-0.11"/>
   <path id="Fill-127" sketch:type="MSShapeGroup" fill="#232535" d="m209.08 154.68c0.02 0.01 0.03 0.03 0.05 0.03h0.02c0.03 0 0.07-0.01 0.1-0.03l6.19-3.3 0.06-0.04 0.46-0.25 0.06-0.03 5.96-3.18c0.04-0.02 0.05-0.06 0.07-0.09 0.03-0.05 0.04-0.08 0.04-0.13 0-0.04 0.01-0.08-0.01-0.11-0.03-0.06-0.1-0.08-0.16-0.1-0.04-0.01-0.06-0.03-0.1-0.03-0.02 0.01-0.05 0.01-0.07 0.02l-6.13 3.28-0.06 0.03-0.46 0.25-0.06 0.03-6.02 3.22c-0.04 0.02-0.05 0.05-0.08 0.09-0.02 0.04-0.03 0.08-0.04 0.13 0.01 0.04 0 0.07 0.02 0.11 0.02 0.06 0.1 0.09 0.16 0.1"/>
   <path id="Fill-128" sketch:type="MSShapeGroup" fill="#232535" d="m250.21 167.63c-0.03 0.03-0.04 0.07-0.06 0.11s-0.02 0.08-0.02 0.13c0.02 0.03 0.01 0.08 0.04 0.11 0.04 0.06 0.11 0.09 0.19 0.09 0.04 0 0.1-0.01 0.15-0.05l4.08-3.23-0.51-0.22-3.87 3.06"/>
   <path id="Fill-129" sketch:type="MSShapeGroup" fill="#232535" d="m254.62 164.13l0.53 0.22 4.14-3.28-0.5-0.24-4.17 3.3"/>
   <path id="Fill-130" sketch:type="MSShapeGroup" fill="#232535" d="m259.63 160.48c-0.03-0.03-0.07-0.03-0.1-0.05-0.06-0.02-0.1-0.03-0.16-0.02-0.01 0.01-0.01 0.01-0.02 0.01l0.3 0.14c-0.01-0.02 0-0.05-0.02-0.08"/>
   <path id="Fill-131" sketch:type="MSShapeGroup" fill="#232535" d="m247.31 161.96c-0.03 0.02-0.04 0.07-0.06 0.1-0.01 0.04-0.02 0.09-0.01 0.14 0.01 0.04 0 0.07 0.03 0.11 0.04 0.05 0.11 0.09 0.19 0.09 0.04 0 0.11-0.01 0.15-0.05l0.11-0.09c-0.04-0.16-0.09-0.35-0.14-0.51l-0.27 0.21"/>
   <path id="Fill-132" sketch:type="MSShapeGroup" fill="#232535" d="m248.1 161.33c0.01 0.06 0.03 0.13 0.04 0.18 0.03-0.01 0.05-0.05 0.08-0.05s0.08 0.01 0.12 0.03l0.23 0.1 4.43-3.51-0.49-0.24-4.41 3.49"/>
   <path id="Fill-133" sketch:type="MSShapeGroup" fill="#232535" d="m256.48 154.74c-0.01 0.01-0.02 0.01-0.02 0.01-0.02 0-0.03 0.03-0.04 0.03-0.02 0-0.02-0.01-0.02-0.01l-0.01 0.01-3.35 2.64 0.5 0.24 3.15-2.5c0.03-0.02 0.04-0.07 0.06-0.1 0.01-0.04 0.01-0.09 0.01-0.14-0.01-0.04 0-0.07-0.03-0.11-0.03-0.03-0.07-0.03-0.1-0.05-0.06-0.02-0.1-0.04-0.15-0.02"/>
   <path id="Fill-134" sketch:type="MSShapeGroup" fill="#232535" d="m245.48 154.63c0.01-0.04-0.03-0.09 0.01-0.12l-0.05-0.03c-0.05-0.02-0.02-0.09-0.04-0.13-0.02-0.02-0.05-0.03-0.06-0.06 0-0.02 0.01-0.05 0.01-0.08-0.01-0.05-0.08-0.08-0.05-0.13 0.05-0.11 0.17-0.19 0.28-0.19 0.04 0 0.08 0.02 0.11 0.03-0.81-2.29-1.67-4.47-2.55-6.12-0.04-0.06-0.11-0.09-0.18-0.1-0.02-0.01-0.04-0.02-0.07-0.02s-0.06 0-0.09 0.02c-0.03 0.01-0.05 0.05-0.07 0.09s-0.04 0.08-0.04 0.12c0 0.05-0.01 0.08 0.02 0.12 0.94 1.78 1.88 4.22 2.76 6.76v-0.02c-0.01-0.02-0.03-0.05-0.03-0.07 0-0.03 0.03-0.05 0.04-0.07"/>
   <path id="Fill-135" sketch:type="MSShapeGroup" fill="#232535" d="m247.99 161.79c-0.01-0.05-0.08-0.08-0.06-0.14 0.03-0.06 0.11-0.07 0.17-0.11-0.02-0.05-0.04-0.11-0.05-0.16-0.01-0.02-0.01-0.05-0.02-0.07-0.56-1.97-1.25-4.21-2.02-6.46l-0.12 0.1c-0.06 0.05-0.13 0.07-0.2 0.07s-0.12-0.04-0.17-0.08c0.79 2.31 1.51 4.68 2.09 6.7 0 0.02 0.02 0.04 0.02 0.07 0.05 0.18 0.09 0.33 0.14 0.52 0.01 0.01 0.01 0.03 0.03 0.06 0.62 2.24 1.06 3.96 1.18 4.42l0.01 0.04c0.02 0.11 0.12 0.19 0.24 0.19 0.02 0 0.03 0 0.05-0.01 0.04-0.01 0.07-0.04 0.09-0.07 0.04-0.03 0.06-0.06 0.08-0.11 0.01-0.04 0.02-0.07 0.01-0.11 0-0.05-0.46-1.91-1.2-4.51l-0.16-0.07v-0.01c-0.03-0.01-0.02-0.05-0.03-0.06-0.02-0.02-0.01-0.05-0.03-0.07s-0.04-0.03-0.05-0.06c-0.01-0.02 0-0.04 0-0.07"/>
   <path id="Fill-136" sketch:type="MSShapeGroup" fill="#232535" d="m246.04 154.09l0.49 0.23 3.46-2.93-0.47-0.26-3.48 2.96"/>
   <path id="Fill-137" sketch:type="MSShapeGroup" fill="#232535" d="m253.41 148.48c0.04-0.03 0.04-0.07 0.06-0.11 0.01-0.05 0.01-0.09 0.01-0.14-0.01-0.03-0.01-0.07-0.03-0.1-0.04-0.03-0.08-0.04-0.12-0.05-0.05-0.02-0.09-0.03-0.13-0.02-0.04 0.02-0.08 0.02-0.1 0.04l-3.08 2.6 0.48 0.26 2.91-2.48"/>
   <path id="Fill-138" sketch:type="MSShapeGroup" fill="#232535" d="m245.85 154.9l0.14-0.12 0.03-0.02-0.05-0.02-0.44-0.21c-0.03 0.02-0.04 0.06-0.05 0.1-0.02 0.05-0.03 0.09-0.01 0.14 0.01 0.03 0.01 0.07 0.03 0.1 0.05 0.06 0.12 0.09 0.19 0.09 0.05 0 0.11-0.02 0.16-0.06"/>
   <path id="Fill-139" sketch:type="MSShapeGroup" fill="#232535" d="m263.4 167.93c-0.03-0.03-0.05-0.06-0.08-0.08l-8.16-3.43-0.07-0.02-0.52-0.23-0.06-0.02-5.93-2.49-0.06-0.03-0.21-0.09c-0.02-0.01-0.05-0.01-0.07-0.01l-0.02-0.01c-0.03 0-0.04 0.03-0.06 0.04l-0.02 0.01c-0.01 0.01-0.02 0.02-0.03 0.02-0.05 0.03-0.1 0.04-0.12 0.09-0.01 0.03 0 0.07 0 0.11 0.01 0.05 0.02 0.09 0.05 0.13 0.02 0.02 0.03 0.04 0.05 0.05 0.01 0.01 0.02 0.03 0.03 0.03l0.02 0.01 0.1 0.05 0.07 0.03 5.75 2.41 0.06 0.03 0.53 0.22 0.07 0.03 8.41 3.53c0.03 0.01 0.06 0.02 0.09 0.02 0.1 0 0.19-0.06 0.22-0.15 0.02-0.04 0.02-0.08 0.01-0.12-0.01-0.05-0.02-0.08-0.05-0.13"/>
   <path id="Fill-140" sketch:type="MSShapeGroup" fill="#232535" d="m245.47 154.43l0.05 0.03 0.06 0.02 0.36 0.17 0.08 0.04 0.05 0.02 0.06 0.04 6.37 3.03 0.06 0.02 0.5 0.24 0.06 0.03 5.66 2.69 0.06 0.03 0.51 0.24 0.05 0.03 0.93 0.44c0.04 0.02 0.07 0.03 0.11 0.03 0.1 0 0.18-0.06 0.23-0.14 0.01-0.04 0-0.08 0-0.12 0-0.05-0.02-0.09-0.05-0.13-0.02-0.03-0.03-0.07-0.07-0.08l-0.88-0.42h-0.01l-0.39-0.19-0.06-0.03-5.67-2.69-0.06-0.03-0.49-0.24-0.06-0.03-6.39-3.04-0.06-0.03-0.49-0.22-0.06-0.03-0.14-0.07-0.07-0.04-0.04-0.02c-0.03-0.01-0.05-0.01-0.08-0.01 0 0-0.01-0.01-0.02-0.01-0.02 0-0.03 0.02-0.05 0.03-0.07 0.02-0.15 0.05-0.18 0.12-0.01 0.03 0 0.07 0 0.1 0 0.06 0.01 0.09 0.05 0.14 0.02 0.03 0.03 0.06 0.07 0.08"/>
   <path id="Fill-141" sketch:type="MSShapeGroup" fill="#232535" d="m243.71 147.43c-0.04-0.01-0.06 0.01-0.1 0.03-0.06 0.01-0.12 0.02-0.15 0.09-0.02 0.03-0.01 0.07-0.01 0.11 0 0.05 0.01 0.09 0.04 0.13 0.02 0.03 0.04 0.07 0.07 0.09l5.96 3.18 0.06 0.03 0.46 0.25 0.06 0.04 6.19 3.3c0.03 0.02 0.07 0.03 0.1 0.03h0.03c0.01 0 0.02-0.02 0.04-0.03 0.07-0.01 0.14-0.04 0.17-0.1 0.01-0.04 0.01-0.07 0.01-0.11 0-0.05-0.01-0.09-0.04-0.13-0.02-0.04-0.04-0.07-0.07-0.09l-6.02-3.22-0.06-0.03-0.47-0.25-0.06-0.03-6.13-3.28c-0.02-0.01-0.05-0.01-0.08-0.01"/>
   <path id="Fill-142" sketch:type="MSShapeGroup" fill="#232535" d="m227.64 100.93l-0.4-0.31-2.12 1.71c-0.11 0.09-0.13 0.24-0.04 0.35 0.06 0.07 0.14 0.09 0.19 0.09s0.11-0.02 0.16-0.05l2.21-1.79"/>
   <path id="Fill-143" sketch:type="MSShapeGroup" fill="#232535" d="m231.56 97.761c0-0.103 0.01-0.235 0.02-0.35l-0.17-0.163-3.68 2.972 0.41 0.31 3.42-2.769"/>
   <path id="Fill-144" sketch:type="MSShapeGroup" fill="#232535" d="m232.39 76.457c-0.02 0.005-0.04 0.022-0.06 0.022s-0.04-0.022-0.06-0.028c-0.03 1.772-0.06 3.453-0.09 5.056l0.31 0.302c-0.04-1.694-0.08-3.473-0.1-5.352"/>
   <path id="Fill-145" sketch:type="MSShapeGroup" fill="#232535" d="m232.37 75.448c-0.01-1.21-0.03-2.483-0.05-3.762-0.01 1.315-0.02 2.605-0.04 3.846l0.09-0.084"/>
   <path id="Fill-146" sketch:type="MSShapeGroup" fill="#232535" d="m232.13 83.491c-0.05 2.068-0.11 3.962-0.16 5.715l0.34 0.367c0.05 0.067 0.09 0.146 0.08 0.23 0 0.085-0.05 0.163-0.11 0.217l-0.35 0.294c-0.09 2.473-0.17 4.578-0.26 6.337l0.38 0.363c0 0.005-0.01 0.011 0 0.011 0 0.006-0.01 0.006 0 0.014 0.03 0.028-0.02 0.077 0 0.118v0.018c0.01 0.02 0.02 0.038 0.02 0.057 0 0.023-0.02 0.047-0.02 0.071-0.02 0.048 0.04 0.102 0 0.145-0.01 0.006-0.02 0.006-0.03 0.011-0.04 0.043-0.1 0.067-0.17 0.067-0.01 0-0.01 0.012-0.02 0.012-0.07 0-0.13-0.036-0.19-0.079-0.01 0.092-0.01 0.163-0.01 0.253 0 0.031 0 0.054-0.01 0.079-0.15 3.119-0.27 4.869-0.29 5.089-0.01 0.04 0.02 0.07 0.03 0.1 0.02 0.05 0.06 0.08 0.1 0.12 0.03 0.01 0.06 0.04 0.1 0.04 0.15 0 0.25-0.09 0.26-0.22 0.03-0.43 0.46-6.659 0.75-17.626-0.02-0.7-0.03-1.386-0.05-2.128l-0.39 0.325"/>
   <path id="Fill-147" sketch:type="MSShapeGroup" fill="#232535" d="m232.3 82.388c-0.05-0.007-0.1-0.024-0.14-0.054 0 0.108 0 0.229-0.01 0.331l0.13-0.102v-0.02c0.01-0.047-0.05-0.101-0.02-0.143 0.02-0.007 0.03-0.007 0.04-0.012"/>
   <path id="Fill-148" sketch:type="MSShapeGroup" fill="#232535" d="m232.48 55.036c-0.05 0.024-0.08 0.053-0.11 0.102-0.01 0.024-0.02 0.049-0.02 0.078 0.01-0.114 0.11-0.174 0.21-0.215-0.03 0.004-0.06 0.022-0.08 0.035"/>
   <path id="Fill-149" sketch:type="MSShapeGroup" fill="#232535" d="m223.88 90.291c0.06 0 0.12-0.024 0.16-0.061l0.13-0.108-0.35-0.342-0.09 0.079c-0.04 0.023-0.04 0.059-0.06 0.095-0.01 0.049-0.01 0.089-0.01 0.138 0.01 0.037 0.01 0.079 0.04 0.109 0.04 0.061 0.11 0.09 0.18 0.09"/>
   <path id="Fill-150" sketch:type="MSShapeGroup" fill="#232535" d="m228.57 86.415l-0.33-0.362-3.95 3.328 0.35 0.342 3.93-3.308"/>
   <path id="Fill-151" sketch:type="MSShapeGroup" fill="#232535" d="m232.15 82.749l-0.07 0.055-3.37 2.852 0.33 0.361 3.03-2.556 0.06-0.056 0.39-0.317v-0.081l-0.22-0.173c-0.04-0.037 0.01-0.097-0.01-0.146 0-0.01-0.01-0.023-0.02-0.04l-0.12 0.101"/>
   <path id="Fill-152" sketch:type="MSShapeGroup" fill="#232535" d="m229.14 79.404l-0.36-0.351-3.22 3.172 0.34 0.367 3.24-3.188"/>
   <path id="Fill-153" sketch:type="MSShapeGroup" fill="#232535" d="m232.19 76.413c-0.03-0.011-0.07-0.011-0.09-0.036l-0.28-0.313-2.59 2.556 0.36 0.349 2.6-2.556"/>
   <path id="Fill-154" sketch:type="MSShapeGroup" fill="#232535" d="m225.06 83.405l0.39-0.378-0.33-0.367-0.4 0.39c-0.1 0.103-0.1 0.261 0 0.355 0.04 0.048 0.1 0.073 0.17 0.073s0.13-0.025 0.17-0.073"/>
   <path id="Fill-155" sketch:type="MSShapeGroup" fill="#232535" d="m232.28 75.618l-0.02 0.012 0.02 0.018 0.09 0.108v-0.229l-0.09 0.091"/>
   <path id="Fill-156" sketch:type="MSShapeGroup" fill="#232535" d="m225.68 76.105c-0.01 0.05-0.01 0.084 0 0.14 0.01 0.036 0.02 0.079 0.05 0.109 0.05 0.041 0.11 0.065 0.17 0.065 0.05 0 0.1-0.029 0.14-0.054l-0.34-0.325c-0.01 0.024-0.01 0.041-0.02 0.065"/>
   <path id="Fill-157" sketch:type="MSShapeGroup" fill="#232535" d="m226.13 75.587l0.36 0.343 2.75-2.809-0.33-0.373-2.78 2.839"/>
   <path id="Fill-158" sketch:type="MSShapeGroup" fill="#232535" d="m232.29 69.396c-0.01 0-0.03-0.006-0.03 0-0.04 0.011-0.08 0.011-0.1 0.042l-2.81 2.87 0.32 0.369 2.61-2.66 0.03-0.038v-0.583c-0.01 0-0.01-0.006-0.02 0"/>
   <path id="Fill-159" sketch:type="MSShapeGroup" fill="#232535" d="m229.79 65.121l0.31 0.393 2.19-2.605v-0.753l-2.5 2.965"/>
   <path id="Fill-160" sketch:type="MSShapeGroup" fill="#232535" d="m226.81 69.414l2.89-3.419-0.32-0.391-2.9 3.442 0.33 0.368"/>
   <path id="Fill-161" sketch:type="MSShapeGroup" fill="#232535" d="m227.01 61.649l0.31 0.398 2.45-3.165-0.32-0.403-2.44 3.17"/>
   <path id="Fill-162" sketch:type="MSShapeGroup" fill="#232535" d="m226.81 62.391l-0.12-0.145c0.01 0.012 0 0.019 0.01 0.03 0.02 0.03 0.02 0.073 0.05 0.096 0.02 0.013 0.04 0.013 0.06 0.019"/>
   <path id="Fill-163" sketch:type="MSShapeGroup" fill="#232535" d="m232.28 55.644v-0.006c0.02-0.036 0.02-0.072 0.03-0.103 0-0.052 0-0.09-0.02-0.138 0-0.006-0.01-0.011-0.01-0.018-0.02-0.023-0.02-0.059-0.04-0.079-0.04-0.024-0.07-0.024-0.1-0.029-0.05-0.012-0.09 0-0.14 0.018-0.04 0.011-0.08 0.017-0.12 0.054l-2.03 2.636 0.31 0.403 2.12-2.738"/>
   <path id="Fill-164" sketch:type="MSShapeGroup" fill="#232535" d="m229.5 58.429l0.3 0.404 0.05 0.049 2.44 3.176v-0.006-0.801l-2.13-2.772-0.04-0.05-0.31-0.404-0.04-0.046-2.41-3.144c-0.03-0.035-0.09-0.041-0.13-0.059-0.04-0.011-0.08-0.025-0.13-0.019-0.03 0.008-0.06 0.013-0.09 0.031-0.11 0.085-0.13 0.24-0.05 0.35l2.49 3.244 0.05 0.047"/>
   <path id="Fill-165" sketch:type="MSShapeGroup" fill="#232535" d="m226.68 62.137l0.23 0.29 0.04 0.042 2.43 3.037 0.04 0.049 0.31 0.391 0.05 0.049 2.51 3.141 0.02 0.031c0-0.266 0-0.536-0.01-0.801l-0.01-0.019-2.19-2.737-0.04-0.048-0.32-0.392-0.03-0.049-2.38-2.978-0.05-0.047-0.31-0.399-0.04-0.048-0.21-0.259c-0.02-0.035-0.06-0.035-0.1-0.055-0.05-0.018-0.1-0.029-0.16-0.018-0.02 0.012-0.05 0.018-0.08 0.038-0.11 0.083-0.13 0.24-0.04 0.349l0.34 0.426v0.007"/>
   <path id="Fill-166" sketch:type="MSShapeGroup" fill="#232535" d="m228.91 72.656l0.04 0.048 0.34 0.375 0.03 0.042 2.51 2.858 0.04 0.043 0.27 0.312c0.02 0.02 0.05 0.02 0.06 0.031 0.02 0 0.02 0.007 0.03 0.007 0.01 0.005 0.02 0.018 0.04 0.018 0.01 0.005 0.01 0.012 0.02 0.012s0.02 0.017 0.04 0.017 0.04-0.017 0.06-0.024v-0.089-0.086c0-0.126-0.01-0.241-0.01-0.368l-0.1-0.114-0.06-0.066-0.04-0.042-2.51-2.865-0.04-0.04-0.33-0.375-0.04-0.049-2.45-2.792-0.04-0.046-0.33-0.368-0.04-0.049-0.31-0.355c-0.04-0.03-0.08-0.037-0.12-0.048-0.05-0.02-0.09-0.025-0.14-0.012-0.03 0.012-0.06 0.012-0.09 0.035-0.04 0.031-0.04 0.066-0.05 0.103-0.02 0.047-0.02 0.091-0.01 0.139 0.01 0.043 0.01 0.077 0.04 0.109l3.19 3.639"/>
   <path id="Fill-167" sketch:type="MSShapeGroup" fill="#232535" d="m225.69 75.943l0.05 0.044 0.35 0.347 0.05 0.043 2.64 2.592 0.05 0.044 0.35 0.349 0.05 0.042 2.87 2.809 0.06 0.059c0.04 0.044 0.11 0.067 0.17 0.067 0.07 0 0.13-0.03 0.17-0.067-0.01-0.124-0.01-0.253-0.01-0.377l-0.32-0.309-0.06-0.061-2.52-2.472-0.05-0.04-0.36-0.35-0.04-0.043-2.65-2.605-0.05-0.042-0.35-0.343-0.05-0.049-0.09-0.091c-0.03-0.022-0.07-0.028-0.11-0.042-0.05-0.011-0.09-0.007-0.14 0.006-0.03 0.014-0.07 0.014-0.1 0.044-0.1 0.095-0.1 0.252 0 0.354l0.09 0.091"/>
   <path id="Fill-168" sketch:type="MSShapeGroup" fill="#232535" d="m225.12 82.568l0.04 0.043 0.34 0.373 0.04 0.043 2.7 2.942 0.04 0.041 0.33 0.363 0.05 0.048 3.02 3.292 0.04 0.048-0.05 0.042-3.75 3.16 0.36 0.349 3.59-3.027 0.06-0.055 0.31-0.259c0.05-0.041 0.08-0.108 0.08-0.174 0.01-0.066-0.01-0.126-0.06-0.181l-0.3-0.319-0.06-0.067-2.87-3.128-0.04-0.043-0.33-0.36-0.04-0.05-2.72-2.966-0.05-0.049-0.34-0.367-0.03-0.042-0.28-0.301c-0.02-0.029-0.07-0.037-0.11-0.049-0.05-0.011-0.09-0.018-0.14-0.006-0.03 0.006-0.07 0.012-0.1 0.036-0.03 0.031-0.03 0.065-0.05 0.104-0.01 0.054-0.01 0.096 0 0.146 0.01 0.034 0.01 0.077 0.04 0.108l0.28 0.305"/>
   <path id="Fill-169" sketch:type="MSShapeGroup" fill="#232535" d="m228.14 100.61l-0.05-0.05-0.41-0.3-0.05-0.04-3.93-2.953-0.06-0.049 0.06-0.048 4.11-3.459-0.36-0.351-4.36 3.684c-0.06 0.047-0.09 0.12-0.09 0.191 0 0.08 0.04 0.151 0.1 0.195l4.13 3.12 0.05 0.03 0.41 0.31 0.05 0.04 2.55 1.91c0.04 0.03 0.09 0.05 0.14 0.05 0.09 0 0.16-0.04 0.21-0.09 0.08-0.12 0.05-0.27-0.05-0.36l-2.45-1.83"/>
   <path id="Fill-170" sketch:type="MSShapeGroup" fill="#232535" d="m232.05 97.157c-0.02-0.017-0.02-0.041-0.03-0.066-0.01-0.005-0.01-0.018-0.01-0.024-0.01-0.005-0.01-0.005-0.01-0.011l-0.02-0.031-0.07-0.06-0.24-0.236-0.06-0.06-3.33-3.279-0.04-0.042-0.36-0.35-0.04-0.043-3.2-3.146-0.04-0.042-0.36-0.348-0.04-0.044-0.02-0.018c-0.03-0.022-0.07-0.03-0.1-0.042-0.05-0.012-0.1-0.012-0.15 0-0.03 0.012-0.07 0.02-0.1 0.042-0.03 0.03-0.03 0.072-0.04 0.108-0.01 0.049-0.01 0.091 0 0.139 0.01 0.031 0.01 0.062 0.03 0.09 0 0 0 0.006 0.01 0.013l0.03 0.031 0.36 0.348 0.04 0.043 3.2 3.146 0.04 0.043 0.36 0.35 0.04 0.048 3.51 3.454 0.05 0.043 0.12 0.121 0.06 0.059 0.01 0.012c0.05 0.049 0.11 0.073 0.18 0.073 0.05 0 0.11-0.03 0.15-0.062 0.01-0.005 0.02-0.005 0.02-0.011 0.02-0.024 0.02-0.054 0.03-0.078 0.01-0.007 0.02-0.018 0.02-0.024v-0.062-0.084"/>
   <path id="Fill-171" sketch:type="MSShapeGroup" fill="#232535" d="m237.56 100.93l2.22 1.79c0.04 0.03 0.1 0.05 0.15 0.05 0.06 0 0.14-0.02 0.2-0.09 0.08-0.11 0.06-0.26-0.04-0.35l-2.12-1.71-0.41 0.31"/>
   <path id="Fill-172" sketch:type="MSShapeGroup" fill="#232535" d="m233.64 97.411c0 0.115 0 0.247 0.01 0.355l3.42 2.764 0.4-0.31-3.67-2.972-0.16 0.163"/>
   <path id="Fill-173" sketch:type="MSShapeGroup" fill="#232535" d="m232.65 76.131l-0.04-0.043-0.04-0.042-0.01-0.006-0.12-0.11v-0.005 0.236 0.084c0 0.041 0 0.084 0.01 0.127v0.061c0.03 2.066 0.07 4.036 0.12 5.876 0.01 0.007 0.02 0.012 0.04 0.018 0.01 0.007 0.03 0.007 0.04 0.019 0.01 0.005 0.02 0.005 0.04 0.012 0 0.006 0.01 0 0.01 0.006l0.01 0.005 0.01 0.012 0.22 0.177v0.005l0.12 0.102c-0.01-0.107-0.01-0.223-0.01-0.331-0.04 0.03-0.09 0.047-0.13 0.054-0.02 0-0.02 0.005-0.03 0.005s-0.01 0.007-0.01 0.007c-0.01 0-0.01-0.007-0.02-0.007-0.05-0.005-0.1-0.029-0.15-0.066-0.01-0.006-0.04-0.006-0.05-0.018-0.12-0.12-0.12-0.319 0-0.44l0.06-0.06 0.32-0.302c-0.04-1.603-0.08-3.284-0.1-5.05-0.02 0-0.04 0.022-0.06 0.022s-0.04-0.017-0.06-0.022c-0.02 0-0.04-0.014-0.06-0.024-0.03-0.014-0.06-0.008-0.09-0.031-0.04-0.037 0.01-0.096-0.01-0.145 0-0.024-0.02-0.037-0.03-0.068 0-0.023 0.02-0.034 0.02-0.058"/>
   <path id="Fill-174" sketch:type="MSShapeGroup" fill="#232535" d="m232.43 75.424v0.017c0.05-0.04 0.11-0.064 0.17-0.069 0.01 0 0.02-0.008 0.03-0.008 0.05 0 0.1 0.031 0.15 0.06 0.02 0.007 0.04 0.007 0.06 0.024l0.09 0.079c-0.03-1.236-0.04-2.519-0.05-3.829 0-0.547-0.01-1.09-0.01-1.657l-0.04-0.029-0.17-0.182c-0.12-0.113-0.11-0.301 0-0.428-0.01 0.005-0.02 0.018-0.03 0.018s-0.02-0.006-0.02-0.006c-0.03-0.007-0.04-0.018-0.06-0.024h-0.01c-0.02-0.006-0.05-0.012-0.07-0.025-0.01-0.005-0.03-0.005-0.04-0.011v-0.005-0.008c-0.01-0.012 0.01-0.035 0-0.054-0.08-0.108-0.13-0.253-0.04-0.368l0.18-0.222 0.04-0.049 0.23-0.301 0.02-0.012c0-0.368 0-0.729-0.01-1.103-0.01-1.394-0.01-2.834-0.01-4.303l-0.24-0.285-0.04-0.054-0.19-0.23-0.01-0.011v0.488 0.096c-0.01 1.369 0 2.713 0 4.021 0 0.47 0 0.929 0.01 1.393v0.097 0.8 0.075 0.065 0.006 0.53 0.084c0.02 1.881 0.04 3.684 0.06 5.42"/>
   <path id="Fill-175" sketch:type="MSShapeGroup" fill="#232535" d="m232.36 59.502v1.731 0.096 0.549l0.01-0.018 0.2-0.258 0.03-0.05 0.24-0.312c0-0.712 0.01-1.448 0.02-2.178 0-1.26 0-2.513 0.01-3.821 0-0.012 0-0.019-0.01-0.03 0-0.024-0.02-0.049-0.03-0.073-0.02-0.049-0.05-0.078-0.1-0.102-0.02-0.013-0.04-0.031-0.08-0.035-0.01 0-0.01-0.007-0.02-0.007-0.02 0-0.01 0.018-0.02 0.024-0.12 0.018-0.22 0.096-0.22 0.223-0.02 1.457-0.02 2.862-0.03 4.261"/>
   <path id="Fill-176" sketch:type="MSShapeGroup" fill="#232535" d="m232.84 69.384c-0.01 0-0.02 0.006-0.03 0.006-0.04 0.012-0.08 0.017-0.11 0.042-0.09 0.097-0.09 0.26 0 0.356l0.14 0.132 0.03 0.03 0.03 0.029 0.03 0.038 2.6 2.66 0.33-0.376-2.81-2.863c-0.03-0.031-0.06-0.031-0.1-0.042-0.01-0.006-0.01 0-0.02 0-0.01-0.006-0.02 0-0.03 0-0.02-0.006-0.02-0.006-0.04-0.006v-0.018s-0.02 0.006-0.02 0.012"/>
   <path id="Fill-177" sketch:type="MSShapeGroup" fill="#232535" d="m233.59 97.712c-0.01-0.09-0.01-0.161-0.02-0.253-0.05 0.049-0.12 0.079-0.19 0.079 0 0-0.01-0.012-0.02-0.012-0.06-0.006-0.12-0.024-0.17-0.067-0.01-0.005-0.02-0.005-0.03-0.011-0.04-0.043 0.02-0.097 0-0.145 0-0.024-0.03-0.048-0.03-0.071 0-0.019 0.03-0.037 0.03-0.057 0-0.005 0-0.011 0.01-0.018 0-0.041-0.04-0.09 0-0.118 0-0.008-0.01-0.008 0-0.014 0 0-0.01-0.006 0-0.011l0.37-0.369c-0.08-1.76-0.18-3.858-0.26-6.323l-0.35-0.302c-0.07-0.054-0.11-0.132-0.11-0.217-0.01-0.084 0.02-0.163 0.08-0.23l0.34-0.373c-0.06-1.754-0.11-3.647-0.16-5.715l-0.39-0.326-0.06-0.049-0.02-0.022-0.03-0.024v0.046c0.01 0.338 0.02 0.647 0.02 0.978 0.01 0.397 0.03 0.79 0.04 1.182 0.3 10.972 0.72 17.21 0.74 17.64 0.02 0.14 0.13 0.23 0.26 0.23 0.05 0 0.08-0.03 0.12-0.05 0.04-0.03 0.06-0.06 0.08-0.1s0.05-0.07 0.04-0.11c-0.01-0.22-0.13-1.97-0.29-5.083v-0.085"/>
   <path id="Fill-178" sketch:type="MSShapeGroup" fill="#232535" d="m241.04 90.122l0.12 0.108c0.05 0.037 0.11 0.061 0.16 0.061 0.08 0 0.14-0.029 0.19-0.09 0.03-0.03 0.03-0.072 0.04-0.109 0.01-0.049 0.01-0.089-0.01-0.138-0.02-0.036-0.03-0.072-0.05-0.095l-0.1-0.079-0.35 0.342"/>
   <path id="Fill-179" sketch:type="MSShapeGroup" fill="#232535" d="m236.64 86.415l3.92 3.308 0.36-0.342-3.95-3.328-0.33 0.362"/>
   <path id="Fill-180" sketch:type="MSShapeGroup" fill="#232535" d="m232.51 82.93l0.07 0.054 0.03 0.023 0.02 0.025 0.03 0.018 0.03 0.031 0.38 0.324 0.07 0.048 3.03 2.557 0.33-0.361-3.37-2.845-0.07-0.055-0.12-0.101-0.01-0.014-0.22-0.186-0.05-0.037c0-0.004-0.01 0-0.01-0.004-0.01-0.007-0.03-0.007-0.04-0.014-0.02-0.012-0.03-0.012-0.04-0.017-0.03-0.007-0.05 0.005-0.07 0.005h-0.01l0.01-0.005v-0.025c-0.03 0.007-0.04 0.025-0.07 0.037-0.04 0.012-0.09 0.019-0.12 0.054-0.02 0.03-0.02 0.067-0.03 0.101v0.015c0 0.029 0 0.046 0.01 0.076v0.054c0.02 0.039 0.02 0.074 0.05 0.097l0.17 0.145"/>
   <path id="Fill-181" sketch:type="MSShapeGroup" fill="#232535" d="m233.11 76.377c-0.02 0.025-0.06 0.025-0.09 0.036l2.61 2.556 0.35-0.349-2.6-2.556-0.27 0.313"/>
   <path id="Fill-182" sketch:type="MSShapeGroup" fill="#232535" d="m236.07 79.404l3.24 3.195 0.34-0.374-3.23-3.172-0.35 0.351"/>
   <path id="Fill-183" sketch:type="MSShapeGroup" fill="#232535" d="m239.75 83.032l0.39 0.381c0.04 0.04 0.1 0.065 0.17 0.065s0.13-0.03 0.18-0.073c0.09-0.094 0.09-0.252 0-0.355l-0.4-0.39-0.34 0.372"/>
   <path id="Fill-184" sketch:type="MSShapeGroup" fill="#232535" d="m232.76 75.841l0.01-0.013 0.03-0.035 0.03-0.037 0.1-0.108 0.02-0.018-0.02-0.019-0.09-0.09-0.03-0.031c-0.01-0.005-0.03-0.005-0.04-0.011-0.02-0.011-0.04-0.017-0.07-0.025v-0.006c-0.03-0.007-0.05-0.024-0.07-0.024s-0.02 0.007-0.03 0.007c-0.01 0.006-0.02 0.017-0.04 0.017v0.006c-0.04 0.014-0.08 0.019-0.11 0.044-0.09 0.095-0.09 0.245 0.01 0.348v0.006l0.03 0.036 0.12 0.115 0.04 0.043v-0.006c0.01-0.025-0.02-0.048 0-0.073l0.03-0.037 0.08-0.089"/>
   <path id="Fill-185" sketch:type="MSShapeGroup" fill="#232535" d="m239.48 76.064l-0.31 0.301c0.04 0.025 0.09 0.054 0.14 0.054 0.06 0 0.12-0.024 0.17-0.072 0.08-0.072 0.04-0.186 0-0.283"/>
   <path id="Fill-186" sketch:type="MSShapeGroup" fill="#232535" d="m239.08 75.587l-2.78-2.839-0.34 0.373 2.77 2.817 0.35-0.351"/>
   <path id="Fill-187" sketch:type="MSShapeGroup" fill="#232535" d="m235.52 65.995l2.88 3.419 0.33-0.374-2.9-3.43-0.31 0.385"/>
   <path id="Fill-188" sketch:type="MSShapeGroup" fill="#232535" d="m232.64 62.59l0.2 0.234 0.06 0.078 0.02 0.019 2.19 2.593 0.31-0.385-2.5-2.968v-0.005l-0.02 0.012-0.03 0.048-0.01 0.011-0.02 0.019v0.006l-0.01 0.006-0.02 0.042c-0.01 0.006-0.01 0-0.01 0.006-0.02 0.012-0.04 0.005-0.04 0.018-0.05 0.043-0.1 0.067-0.16 0.078-0.01 0-0.02 0.019-0.04 0.019-0.03 0-0.06-0.019-0.08-0.025l0.12 0.146 0.04 0.048"/>
   <path id="Fill-189" sketch:type="MSShapeGroup" fill="#232535" d="m232.34 62.126v-0.006 0.006 0.035c0 0.019 0.01 0.038 0.02 0.048-0.02-0.029-0.02-0.053-0.02-0.083"/>
   <path id="Fill-190" sketch:type="MSShapeGroup" fill="#232535" d="m238.21 61.649l-2.46-3.17-0.31 0.403 2.45 3.165 0.32-0.398"/>
   <path id="Fill-191" sketch:type="MSShapeGroup" fill="#232535" d="m238.52 62.246l-0.12 0.145c0.02-0.006 0.04-0.006 0.06-0.019 0.03-0.023 0.04-0.066 0.05-0.102 0.01-0.005 0.01-0.012 0.01-0.024"/>
   <path id="Fill-192" sketch:type="MSShapeGroup" fill="#232535" d="m232.94 55.652l2.11 2.724 0.31-0.404-2.04-2.629c-0.03-0.037-0.08-0.043-0.12-0.054-0.04-0.018-0.09-0.03-0.14-0.018-0.03 0.005-0.06 0.005-0.08 0.029-0.03 0.02-0.03 0.043-0.04 0.067-0.01 0.012-0.02 0.024-0.02 0.038-0.02 0.04-0.03 0.083-0.02 0.13 0 0.037 0 0.079 0.03 0.109l0.01 0.008"/>
   <path id="Fill-193" sketch:type="MSShapeGroup" fill="#232535" d="m235.05 58.479l-2.13 2.761-0.02 0.018-0.04 0.059-0.02 0.025-0.2 0.26-0.04 0.053-0.14 0.187-0.04 0.042-0.05 0.073-0.01 0.005s0.01 0.007 0 0.007c0 0.006 0.01 0.011 0.01 0.011v0.005c-0.01 0.021 0.02 0.044 0 0.062-0.01 0.053 0 0.103 0.03 0.152 0.01 0.035-0.02 0.077 0.01 0.107v0.005c0.01 0.007 0.02 0.007 0.03 0.013 0.05 0.02 0.09 0.036 0.12 0.036 0.02 0 0.03-0.016 0.04-0.016 0.06-0.013 0.12-0.033 0.16-0.079l0.05-0.066 0.03-0.049 0.02-0.02v-0.004h0.01l0.01-0.019 0.01-0.017 0.01-0.018 0.02-0.014v-0.006l2.44-3.17 0.04-0.049 0.31-0.411 0.04-0.046 2.49-3.238c0.08-0.11 0.06-0.265-0.05-0.35-0.03-0.018-0.06-0.023-0.09-0.031-0.05-0.006-0.08 0.008-0.13 0.019-0.05 0.018-0.09 0.024-0.12 0.059l-2.41 3.137-0.04 0.047-0.31 0.41-0.04 0.05"/>
   <path id="Fill-194" sketch:type="MSShapeGroup" fill="#232535" d="m237.88 62.143l-2.38 2.978-0.04 0.055-0.31 0.386-0.04 0.048-2.19 2.742-0.02 0.018-0.04 0.061-0.02 0.013-0.2 0.253-0.03 0.048-0.18 0.211c-0.08 0.108-0.06 0.266 0.04 0.35 0.04 0.03 0.08 0.043 0.14 0.048 0 0 0.01 0.006 0.02 0.006 0.06 0 0.11-0.037 0.15-0.073 0.02-0.011 0.03-0.006 0.04-0.016l0.02-0.027 0.02-0.022 0.04-0.049 0.03-0.031 2.51-3.139 0.04-0.057 0.3-0.384 0.05-0.056 2.43-3.037 0.04-0.042 0.23-0.29v-0.007l0.34-0.426c0.09-0.109 0.07-0.266-0.03-0.349-0.03-0.026-0.06-0.026-0.1-0.038-0.05-0.005-0.08 0.006-0.13 0.018-0.05 0.013-0.09 0.02-0.12 0.055l-0.21 0.259-0.04 0.048-0.32 0.399-0.04 0.047"/>
   <path id="Fill-195" sketch:type="MSShapeGroup" fill="#232535" d="m238.77 69.087l-0.33 0.376-0.04 0.046-2.45 2.792-0.04 0.049-0.33 0.375-0.04 0.047-2.52 2.858-0.03 0.042-0.06 0.066-0.1 0.114-0.03 0.03-0.03 0.043-0.02 0.024-0.06 0.061c-0.01 0.017 0 0.036-0.02 0.054-0.01 0.017-0.01 0.036-0.01 0.055v0.018c-0.01 0.041-0.01 0.078 0 0.12 0.02 0.036 0.03 0.072 0.05 0.097 0.02 0.011 0.04 0.011 0.05 0.018 0.02 0.011 0.04 0.018 0.06 0.023 0.02 0.007 0.04 0.024 0.06 0.024s0.03-0.017 0.05-0.017c0-0.007 0.01-0.007 0.01-0.012 0.01 0 0.03-0.013 0.05-0.018l0.01-0.007c0.02-0.011 0.05-0.011 0.06-0.031l0.28-0.312 0.04-0.049 2.5-2.852 0.05-0.042 0.33-0.375 0.03-0.048 3.2-3.639c0.02-0.032 0.03-0.066 0.03-0.109 0.02-0.048 0.02-0.092 0-0.139-0.02-0.037-0.02-0.072-0.05-0.098-0.03-0.023-0.07-0.028-0.1-0.04-0.05-0.008-0.09-0.008-0.14 0.012-0.05 0.011-0.08 0.018-0.11 0.048l-0.31 0.349-0.04 0.047"/>
   <path id="Fill-196" sketch:type="MSShapeGroup" fill="#232535" d="m239.37 75.448c-0.04 0.014-0.08 0.02-0.11 0.042l-0.1 0.097-0.04 0.043-0.36 0.349-0.04 0.043-2.65 2.598-0.04 0.043-0.37 0.35-0.04 0.04-2.52 2.472-0.06 0.061-0.32 0.313-0.02 0.013c-0.09 0.097-0.09 0.259 0 0.355h0.01c0.05 0.042 0.11 0.072 0.17 0.072s0.12-0.023 0.17-0.072l0.06-0.054 2.87-2.809 0.05-0.042 0.35-0.349 0.04-0.044 2.66-2.592 0.04-0.043 0.36-0.342 0.04-0.043 0.09-0.097c0.1-0.102 0.1-0.259 0-0.354-0.03-0.03-0.06-0.036-0.11-0.044-0.04-0.013-0.08-0.017-0.13-0.006"/>
   <path id="Fill-197" sketch:type="MSShapeGroup" fill="#232535" d="m237.52 100.89l0.4-0.31 0.05-0.04 4.13-3.11c0.06-0.044 0.1-0.115 0.1-0.195 0-0.071-0.02-0.144-0.08-0.191l-4.37-3.684-0.36 0.351 4.11 3.459 0.06 0.048-0.06 0.049-3.93 2.953-0.05 0.04-0.4 0.3-0.06 0.04-2.44 1.84c-0.11 0.09-0.13 0.24-0.05 0.36 0.05 0.05 0.12 0.09 0.2 0.09 0.06 0 0.11-0.02 0.15-0.05l2.54-1.91 0.06-0.04"/>
   <path id="Fill-198" sketch:type="MSShapeGroup" fill="#232535" d="m239.31 82.683l-2.72 2.959-0.05 0.049-0.32 0.362-0.05 0.049-2.86 3.117-0.07 0.066-0.3 0.331c-0.05 0.055-0.07 0.115-0.06 0.181 0 0.066 0.04 0.133 0.08 0.174l0.32 0.265 0.06 0.055 3.58 3.021 0.36-0.349-3.75-3.16-0.05-0.042 0.04-0.048 3.03-3.292 0.04-0.048 0.34-0.363 0.04-0.047 2.7-2.931 0.03-0.048 0.35-0.367 0.04-0.042 0.28-0.312c0.03-0.031 0.03-0.074 0.05-0.108 0.01-0.05 0-0.092-0.02-0.142-0.01-0.036-0.01-0.077-0.05-0.101-0.02-0.031-0.06-0.031-0.1-0.043s-0.07-0.005-0.12 0.006c-0.05 0.012-0.09 0.012-0.12 0.049l-0.28 0.301-0.04 0.042-0.34 0.373-0.04 0.043"/>
   <path id="Fill-199" sketch:type="MSShapeGroup" fill="#232535" d="m233.16 97.303c0.01 0.006 0.01 0.017 0.01 0.024 0.02 0.024 0.01 0.054 0.03 0.078 0.01 0.006 0.02 0.006 0.03 0.011 0.05 0.032 0.09 0.062 0.15 0.062 0.07 0 0.13-0.024 0.17-0.073l0.02-0.019 0.06-0.052 0.12-0.121 0.05-0.043 3.5-3.454 0.05-0.048 0.35-0.344 0.05-0.042 3.2-3.153 0.04-0.043 0.35-0.348 0.04-0.031v-0.018c0.02-0.023 0.03-0.054 0.04-0.085 0.01-0.055 0.01-0.09 0-0.144-0.01-0.038-0.02-0.073-0.04-0.103-0.02-0.022-0.07-0.03-0.1-0.042-0.06-0.012-0.09-0.012-0.15 0-0.03 0.012-0.08 0.02-0.1 0.042l-0.02 0.018-0.04 0.044-0.36 0.348-0.04 0.042-3.2 3.154-0.04 0.042-0.36 0.348-0.04 0.044-3.33 3.272-0.06 0.06-0.24 0.236-0.06 0.06-0.04 0.031v0.017c-0.01 0.006-0.01 0.018-0.01 0.025-0.01 0.018-0.02 0.042-0.02 0.059-0.01 0.032-0.01 0.056-0.01 0.084 0.01 0.021 0 0.038 0 0.062"/>
   <path id="Fill-200" sketch:type="MSShapeGroup" fill="#232535" d="m224.22 122.34l-0.46 0.26 3.68 3.04 0.06 0.06-0.07 0.05-4.4 2.89 0.36 0.35 4.66-3.06c0.07-0.05 0.1-0.12 0.11-0.19 0-0.08-0.03-0.16-0.09-0.2l-3.85-3.2"/>
   <path id="Fill-201" sketch:type="MSShapeGroup" fill="#232535" d="m218.95 131.32c-0.11 0.07-0.14 0.22-0.07 0.34 0.05 0.07 0.13 0.11 0.21 0.11 0.04 0 0.09-0.02 0.14-0.04l3.63-2.39-0.36-0.36-3.55 2.34"/>
   <path id="Fill-202" sketch:type="MSShapeGroup" fill="#232535" d="m220.45 119.85l2.8 2.33 0.46-0.26-2.95-2.44c-0.03-0.03-0.07-0.03-0.11-0.04-0.03-0.01-0.07 0-0.11 0.01-0.05 0.01-0.1 0.02-0.13 0.06-0.02 0.03-0.02 0.06-0.04 0.1 0 0.05 0 0.09 0.02 0.14 0.02 0.04 0.02 0.08 0.06 0.1"/>
   <path id="Fill-203" sketch:type="MSShapeGroup" fill="#232535" d="m229.32 118.92c-0.03 0.01-0.06 0.01-0.08 0.03l-5.42 2.98-0.06 0.04-0.46 0.25-0.06 0.03-4.52 2.5c-0.07 0.03-0.12 0.1-0.13 0.18-0.01 0.07 0.02 0.15 0.07 0.21l3.85 3.77 0.04 0.04 0.36 0.35 0.05 0.05 2.26 2.22c0.05 0.04 0.11 0.07 0.18 0.07 0.06 0 0.13-0.03 0.17-0.08 0.1-0.09 0.1-0.25 0-0.35l-2.18-2.14-0.05-0.04-0.36-0.36-0.05-0.04-3.62-3.55-0.06-0.06 0.07-0.04 4.34-2.39 0.06-0.03 0.45-0.26 0.06-0.03 5.24-2.89c0.12-0.06 0.17-0.22 0.1-0.34-0.03-0.05-0.1-0.07-0.16-0.09-0.03-0.01-0.06-0.03-0.09-0.03"/>
   <path id="Fill-204" sketch:type="MSShapeGroup" fill="#232535" d="m239.23 131.72c-0.03 0.02-0.04 0.07-0.05 0.11-0.02 0.05-0.02 0.08-0.01 0.13 0.01 0.04 0.01 0.08 0.04 0.1 0.06 0.07 0.13 0.09 0.18 0.09 0.07 0 0.12-0.03 0.17-0.07l2.78-2.53-0.41-0.28-2.7 2.45"/>
   <path id="Fill-205" sketch:type="MSShapeGroup" fill="#232535" d="m241.3 122.71l4.55 2.87 0.07 0.05-0.06 0.06-3.47 3.15 0.42 0.29 3.68-3.35c0.06-0.05 0.09-0.13 0.09-0.2-0.02-0.08-0.05-0.15-0.11-0.19l-4.79-3.01-0.38 0.33"/>
   <path id="Fill-206" sketch:type="MSShapeGroup" fill="#232535" d="m241.14 122.03l-3.89-2.45c-0.03-0.01-0.06-0.02-0.09-0.02-0.04-0.01-0.07 0.01-0.11 0.02-0.05 0.02-0.11 0.04-0.14 0.08-0.08 0.12-0.04 0.26 0.07 0.34l3.77 2.37 0.39-0.34"/>
   <path id="Fill-207" sketch:type="MSShapeGroup" fill="#232535" d="m246.07 132.02c0.09 0 0.16-0.05 0.21-0.11 0.02-0.03 0.01-0.07 0.02-0.12 0-0.05-0.01-0.09-0.02-0.13-0.03-0.04-0.04-0.07-0.07-0.1l-3.4-2.35-0.04-0.04-0.42-0.29-0.05-0.04-4.46-3.1-0.07-0.04 0.07-0.06 3.35-2.92 0.05-0.04 0.39-0.34 0.05-0.04 2.67-2.32c0.09-0.09 0.11-0.25 0.01-0.35-0.02-0.04-0.08-0.05-0.14-0.06-0.03 0-0.06-0.01-0.09 0-0.04 0-0.09 0.01-0.11 0.03l-2.78 2.43-0.05 0.04-0.38 0.33-0.06 0.05-3.54 3.09c-0.06 0.05-0.09 0.12-0.09 0.2 0 0.07 0.04 0.14 0.11 0.19l4.69 3.25 0.05 0.04 0.42 0.29 0.05 0.04 3.49 2.42c0.04 0.03 0.09 0.05 0.14 0.05"/>
   <path id="Fill-208" sketch:type="MSShapeGroup" fill="#fff" d="m247.67 131.65h-30.16c-0.24 1.08-0.49 2.31-0.71 3.27-1.16 4.69-2.69 8.92-4.32 12.74h40.23c-1.64-3.82-3.15-8.05-4.33-12.74-0.23-0.96-0.47-2.19-0.71-3.27"/>
   <path id="Fill-209" sketch:type="MSShapeGroup" fill="#232535" d="m214.34 146.42h36.52c-1.54-3.78-2.74-7.46-3.67-11.2-0.16-0.62-0.31-1.35-0.46-2.08l-0.06-0.26h-28.16l-0.11 0.49c-0.13 0.65-0.27 1.29-0.4 1.83-0.92 3.72-2.12 7.41-3.66 11.22zm38.37 2.48h-40.23c-0.41 0-0.8-0.22-1.03-0.56-0.23-0.35-0.27-0.78-0.11-1.16 1.85-4.32 3.24-8.42 4.26-12.55 0.12-0.53 0.25-1.15 0.39-1.78l0.32-1.47c0.12-0.57 0.63-0.97 1.2-0.97h30.16c0.58 0 1.09 0.41 1.21 0.97l0.27 1.26c0.15 0.7 0.29 1.4 0.44 1.99 1.03 4.17 2.43 8.27 4.26 12.54 0.15 0.39 0.12 0.82-0.11 1.17-0.23 0.34-0.62 0.56-1.03 0.56z"/>
   <path id="Fill-210" sketch:type="MSShapeGroup" fill="#fff" d="m245.45 111.55h-25.71l-2.63-5.41 2.63-3.32h25.71l2.05 3.32-2.05 5.41"/>
   <path id="Fill-211" sketch:type="MSShapeGroup" fill="#232535" d="m220.51 110.32h24.09l1.54-4.05-1.37-2.21h-24.44l-1.76 2.23 1.94 4.03zm24.94 2.47h-25.71c-0.47 0-0.91-0.27-1.11-0.7l-2.63-5.42c-0.21-0.42-0.15-0.93 0.14-1.3l2.63-3.32c0.23-0.29 0.59-0.47 0.97-0.47h25.71c0.43 0 0.83 0.23 1.05 0.59l2.05 3.31c0.21 0.33 0.25 0.73 0.11 1.09l-2.05 5.42c-0.18 0.48-0.64 0.8-1.16 0.8z"/>
   <path id="Fill-212" sketch:type="MSShapeGroup" fill="#fff" d="m213.34 131.73h38.5v8.74h-38.5v-8.74z"/>
   <path id="Fill-213" sketch:type="MSShapeGroup" fill="#232535" d="m214.19 139.62h36.8v-7.04h-36.8v7.04zm37.65 1.7h-38.5c-0.47 0-0.85-0.38-0.85-0.85v-8.74c0-0.47 0.38-0.85 0.85-0.85h38.5c0.47 0 0.85 0.38 0.85 0.85v8.74c0 0.47-0.38 0.85-0.85 0.85z"/>
   <path id="Fill-214" sketch:type="MSShapeGroup" fill="#fff" d="m218.41 137.53v-3.28"/>
   <path id="Fill-215" sketch:type="MSShapeGroup" fill="#232535" d="m218.41 138.15c-0.34 0-0.61-0.27-0.61-0.62v-3.28c0-0.35 0.27-0.62 0.61-0.62s0.61 0.27 0.61 0.62v3.28c0 0.35-0.27 0.62-0.61 0.62"/>
   <path id="Fill-216" sketch:type="MSShapeGroup" fill="#fff" d="m221.57 137.53v-3.28"/>
   <path id="Fill-217" sketch:type="MSShapeGroup" fill="#232535" d="m221.57 138.15c-0.34 0-0.62-0.27-0.62-0.62v-3.28c0-0.35 0.28-0.62 0.62-0.62s0.61 0.27 0.61 0.62v3.28c0 0.35-0.27 0.62-0.61 0.62"/>
   <path id="Fill-218" sketch:type="MSShapeGroup" fill="#fff" d="m224.72 137.53v-3.28"/>
   <path id="Fill-219" sketch:type="MSShapeGroup" fill="#232535" d="m224.72 138.15c-0.35 0-0.62-0.27-0.62-0.62v-3.28c0-0.35 0.27-0.62 0.62-0.62 0.33 0 0.61 0.27 0.61 0.62v3.28c0 0.35-0.28 0.62-0.61 0.62"/>
   <path id="Fill-220" sketch:type="MSShapeGroup" fill="#fff" d="m227.86 137.53v-3.28"/>
   <path id="Fill-221" sketch:type="MSShapeGroup" fill="#232535" d="m227.86 138.15c-0.34 0-0.61-0.27-0.61-0.62v-3.28c0-0.35 0.27-0.62 0.61-0.62s0.62 0.27 0.62 0.62v3.28c0 0.35-0.28 0.62-0.62 0.62"/>
   <path id="Fill-222" sketch:type="MSShapeGroup" fill="#fff" d="m231.02 137.53v-3.28"/>
   <path id="Fill-223" sketch:type="MSShapeGroup" fill="#232535" d="m231.02 138.15c-0.34 0-0.62-0.27-0.62-0.62v-3.28c0-0.35 0.28-0.62 0.62-0.62s0.62 0.27 0.62 0.62v3.28c0 0.35-0.28 0.62-0.62 0.62"/>
   <path id="Fill-224" sketch:type="MSShapeGroup" fill="#fff" d="m234.17 137.53v-3.28"/>
   <path id="Fill-225" sketch:type="MSShapeGroup" fill="#232535" d="m234.17 138.15c-0.34 0-0.62-0.27-0.62-0.62v-3.28c0-0.35 0.28-0.62 0.62-0.62s0.61 0.27 0.61 0.62v3.28c0 0.35-0.27 0.62-0.61 0.62"/>
   <path id="Fill-226" sketch:type="MSShapeGroup" fill="#fff" d="m237.32 137.53v-3.28"/>
   <path id="Fill-227" sketch:type="MSShapeGroup" fill="#232535" d="m237.32 138.15c-0.34 0-0.62-0.27-0.62-0.62v-3.28c0-0.35 0.28-0.62 0.62-0.62s0.62 0.27 0.62 0.62v3.28c0 0.35-0.28 0.62-0.62 0.62"/>
   <path id="Fill-228" sketch:type="MSShapeGroup" fill="#fff" d="m240.48 137.53v-3.28"/>
   <path id="Fill-229" sketch:type="MSShapeGroup" fill="#232535" d="m240.48 138.15c-0.34 0-0.62-0.27-0.62-0.62v-3.28c0-0.35 0.28-0.62 0.62-0.62 0.33 0 0.61 0.27 0.61 0.62v3.28c0 0.35-0.28 0.62-0.61 0.62"/>
   <path id="Fill-230" sketch:type="MSShapeGroup" fill="#fff" d="m243.62 137.53v-3.28"/>
   <path id="Fill-231" sketch:type="MSShapeGroup" fill="#232535" d="m243.62 138.15c-0.34 0-0.61-0.27-0.61-0.62v-3.28c0-0.35 0.27-0.62 0.61-0.62s0.62 0.27 0.62 0.62v3.28c0 0.35-0.28 0.62-0.62 0.62"/>
   <path id="Fill-232" sketch:type="MSShapeGroup" fill="#fff" d="m246.78 137.53v-3.28"/>
   <path id="Fill-233" sketch:type="MSShapeGroup" fill="#232535" d="m246.78 138.15c-0.34 0-0.62-0.27-0.62-0.62v-3.28c0-0.35 0.28-0.62 0.62-0.62s0.62 0.27 0.62 0.62v3.28c0 0.35-0.28 0.62-0.62 0.62"/>
   <path id="Fill-234" sketch:type="MSShapeGroup" fill="#232535" d="m241.71 109.63h-18.16c-0.26 0-0.47-0.21-0.47-0.47 0-0.25 0.21-0.46 0.47-0.46h18.16c0.25 0 0.46 0.21 0.46 0.46 0 0.26-0.21 0.47-0.46 0.47"/>
   <path id="Fill-235" sketch:type="MSShapeGroup" fill="#232535" d="m247 106.22h-28.37c-0.25 0-0.46-0.2-0.46-0.46 0-0.25 0.21-0.46 0.46-0.46h28.37c0.26 0 0.47 0.21 0.47 0.46 0 0.26-0.21 0.46-0.47 0.46"/>
   <path id="Fill-236" sketch:type="MSShapeGroup" fill="#fff" d="m214.26 143.88h36.81"/>
   <path id="Fill-237" sketch:type="MSShapeGroup" fill="#232535" d="m251.07 144.73h-36.81c-0.47 0-0.85-0.38-0.85-0.85s0.38-0.85 0.85-0.85h36.81c0.47 0 0.85 0.38 0.85 0.85s-0.38 0.85-0.85 0.85"/>
   <path id="Fill-238" sketch:type="MSShapeGroup" fill="#F4F4F2" d="m189.38 168.24h86.43"/>
   <path id="Fill-239" sketch:type="MSShapeGroup" fill="#232535" d="m275.81 169.48h-86.43c-0.68 0-1.24-0.56-1.24-1.24s0.56-1.23 1.24-1.23h86.43c0.68 0 1.23 0.55 1.23 1.23s-0.55 1.24-1.23 1.24"/>
  </g>
 </g>
</svg>
