<?xml version="1.0" encoding="UTF-8" standalone="no"?>
<svg xmlns:sketch="http://www.bohemiancoding.com/sketch/ns" xmlns="http://www.w3.org/2000/svg" height="150px" width="257px" version="1.1" xmlns:xlink="http://www.w3.org/1999/xlink" viewBox="0 0 257 150"><!-- Generator: Sketch 3.3.3 (12072) - http://www.bohemiancoding.com/sketch -->
 <title>Imported Layers</title>
 <desc>Created with Sketch.</desc>
 <g id="Page-1" fill-rule="evenodd" sketch:type="MSPage" fill="none">
  <g id="Desktop-HD-Copy-13" transform="translate(-849 -3086)" sketch:type="MSArtboardGroup">
   <g id="Imported-Layers" transform="translate(849 3086)" sketch:type="MSLayerGroup">
    <path id="Fill-1" sketch:type="MSShapeGroup" fill="#DDDCE7" d="m247.32 83.459c-19.49-13.627-47.99 3.122-68.46 14.874 1.32-2.245 2.61-4.499 3.84-6.793 10.3-19.133 7.67-43.166-18.32-45.012-27.87-1.953-55.57 26.946-72.811 44.315-3.917 3.939-12.571 13.117-20.144 15.047 1.589-2.56 3.637-5.04 5.156-7.187 12.19-17.229 29.389-30.796 43.069-46.806 15.25-17.847 16.67-40.793-9.06-50.109-13.197-4.7697-35.818 5.9947-47.279 11.331-18.485 8.61-35.3 19.972-52.826 30.317-22.622 13.358-1.7882 48.383 20.891 34.985 6.296-3.71 12.511-7.562 18.735-11.372-1.218 1.456-2.447 2.913-3.636 4.409-12.48 15.752-23.78 34.882-14.838 55.052 9.802 22.14 39.268 24.05 58.492 15.09 13.441-6.29 23.891-16.7 34.431-26.89-3.44 15.1 2.08 29.04 20.63 34.09 14.73 4.03 30.52-3.5 43.52-9.39 8.73-3.95 16.92-9.1 25.41-13.48 3.46-1.83 7.01-3.36 10.73-4.59 2.15-0.81 3.53-1.11 4.31-1.22 20.74 11.47 38.82-22.225 18.16-36.661zm-20.27 35.351c0.27 0.18 0.54 0.32 0.79 0.5-0.25-0.15-0.51-0.31-0.79-0.5zm2.79 1.26c0.19 0 0.18 0.02 0 0z"/>
    <path id="Fill-2" sketch:type="MSShapeGroup" fill="#fff" d="m57.007 54.226h113.87v70.564h-113.87l-0.003-70.564z"/>
    <path id="Fill-3" sketch:type="MSShapeGroup" fill="#9AD5E6" d="m62.053 59.263h113.88v70.577h-113.88l0.003-70.577z"/>
    <path id="Fill-4" sketch:type="MSShapeGroup" fill="#232435" d="m170.88 126.86h-113.87c-1.145 0-2.073-0.93-2.073-2.07v-70.564c0-1.141 0.928-2.069 2.07-2.069h113.87c1.14 0 2.07 0.928 2.07 2.069v70.564c0 1.14-0.93 2.07-2.07 2.07zm-111.8-4.14h109.73v-66.429h-109.73l-0.004 66.429z"/>
    <path id="Fill-5" sketch:type="MSShapeGroup" fill="#232435" d="m163.86 117.56l0.03-17.42c0-0.262 0.22-0.482 0.49-0.482s0.48 0.22 0.48 0.482l0.03 17.42c0 0.29-0.23 0.52-0.51 0.52-0.29 0-0.52-0.23-0.52-0.52"/>
    <path id="Fill-6" sketch:type="MSShapeGroup" fill="#232435" d="m159.65 113.79l0.19-9.88c0-0.18 0.16-0.32 0.34-0.31 0.17 0 0.31 0.14 0.31 0.31l0.19 9.88c0.01 0.28-0.22 0.52-0.5 0.52-0.29 0.01-0.53-0.22-0.53-0.5v-0.02"/>
    <path id="Fill-7" sketch:type="MSShapeGroup" fill="#88CAD4" d="m130.61 86.605c0.02-0.072 0.05-0.138 0.06-0.203h0.44l33.76-27.139h-4.34l-30.23 24.014c-1.4-6.017-6.78-10.511-13.21-10.58-0.26-0.251-0.53-0.534-0.76-0.767-2.04-2.066-4.54-1.401-5.56 1.472-0.16 0.484-0.5 0.947-0.78 1.432-1.79 1.087-3.28 2.52-4.39 4.294-0.76 0.422-1.51 0.744-2.26 0.947-2.55 0.669-3.429 2.508-2.37 4.391h-2.748l-31.131-25.203h-4.362l33.333 27.139h6.408c1.6 2.527 1.63 7.02 1.76 8.789 0.17 1.964 1.99 3.791 4.05 4.053 2.06 0.282 7.75 0.562 10.23 3.026 2.49 2.43 5 1.78 5.54-1.48 0.25-1.386 0.91-2.817 1.72-4.128 0.96-0.825 1.71-1.794 2.4-2.86 0.52-0.416 1.03-0.817 1.56-1.051 2.55-1.167 3.21-3.648 1.48-5.522-0.2-0.211-0.38-0.423-0.6-0.624"/>
    <path id="Fill-8" sketch:type="MSShapeGroup" fill="#232435" d="m57.007 125.82c-0.273 0-0.546-0.1-0.747-0.31-0.395-0.42-0.385-1.06 0.029-1.47l41.791-40.317c0.192-0.182 0.444-0.283 0.717-0.283h30.583c0.27 0 0.53 0.101 0.72 0.292l41.5 40.328c0.41 0.39 0.42 1.04 0.02 1.45-0.41 0.4-1.07 0.42-1.45 0.02l-41.21-40.033h-29.749l-41.488 40.043c-0.202 0.19-0.455 0.28-0.716 0.28"/>
    <path id="Fill-9" sketch:type="MSShapeGroup" fill="#232435" d="m129.38 85.497h-30.583c-0.232 0-0.464-0.082-0.656-0.221l-35.612-28.846c-0.436-0.362-0.506-1.015-0.152-1.461 0.383-0.422 1.019-0.493 1.462-0.15l35.321 28.621h29.86l38.14-30.294c0.45-0.354 1.1-0.283 1.45 0.16 0.35 0.445 0.28 1.099-0.16 1.452l-38.42 30.518c-0.18 0.148-0.41 0.221-0.65 0.221"/>
    <path id="Fill-10" sketch:type="MSShapeGroup" fill="#DC3E38" d="m128.69 85.758c-0.21-0.202-0.39-0.423-0.6-0.625 0.02-0.082 0.06-0.14 0.06-0.221 0-7.518-6.09-13.606-13.59-13.686-0.26-0.252-0.52-0.533-0.75-0.767-2.04-2.065-4.55-1.39-5.58 1.471-0.15 0.487-0.48 0.948-0.76 1.432-1.8 1.089-3.28 2.52-4.39 4.293-0.76 0.423-1.52 0.756-2.26 0.947-3.063 0.807-3.728 3.296-1.509 5.523 2.239 2.247 2.249 7.62 2.399 9.596 0.17 1.964 1.99 3.787 4.04 4.051 2.07 0.282 7.76 0.563 10.24 3.018 2.49 2.44 5 1.8 5.54-1.466 0.25-1.392 0.91-2.822 1.72-4.133 0.95-0.827 1.7-1.793 2.4-2.861 0.51-0.413 1.03-0.808 1.55-1.049 2.55-1.169 3.21-3.649 1.49-5.523"/>
    <path id="Fill-11" sketch:type="MSShapeGroup" fill="#232435" d="m118.91 102.79c-1.07 0-2.2-0.57-3.28-1.62-2.02-2.008-6.5-2.502-8.91-2.764-0.4-0.049-0.76-0.08-1.04-0.12-2.28-0.293-4.3-2.317-4.49-4.525-0.02-0.232-0.03-0.516-0.05-0.817-0.12-2.308-0.35-6.601-2.192-8.456-1.211-1.21-1.696-2.559-1.362-3.788 0.333-1.241 1.433-2.157 3.094-2.6 0.63-0.162 1.3-0.433 2.03-0.827 1.1-1.735 2.58-3.175 4.38-4.283l0.15-0.252c0.21-0.334 0.41-0.656 0.5-0.958 0.69-1.905 2.02-3.033 3.57-3.033 1 0 1.99 0.462 2.86 1.349l0.29 0.295c0.1 0.109 0.22 0.21 0.32 0.322 7.68 0.191 13.89 6.519 13.89 14.199v0.07c0.05 0.051 0.09 0.103 0.14 0.151 0.08 0.091 0.16 0.172 0.24 0.261 0.91 0.989 1.28 2.157 1.05 3.306-0.26 1.27-1.23 2.388-2.69 3.054-0.45 0.213-0.92 0.565-1.38 0.929-0.8 1.218-1.54 2.105-2.38 2.841-0.86 1.401-1.39 2.71-1.62 3.89-0.34 2.106-1.51 3.376-3.12 3.376zm-7.6-33.016c-1.1 0-2.07 0.876-2.59 2.326-0.12 0.414-0.36 0.798-0.6 1.182l-0.21 0.343c-0.04 0.07-0.1 0.131-0.17 0.18-1.76 1.058-3.18 2.449-4.23 4.122-0.04 0.071-0.1 0.13-0.18 0.182-0.86 0.473-1.64 0.806-2.38 0.998-1.296 0.331-2.132 0.998-2.365 1.853-0.231 0.868 0.151 1.856 1.091 2.804 2.124 2.124 2.374 6.681 2.494 9.118 0.02 0.304 0.03 0.576 0.05 0.798 0.15 1.703 1.8 3.344 3.6 3.576 0.28 0.042 0.63 0.082 1.01 0.122 2.54 0.283 7.25 0.795 9.52 3.052 0.88 0.85 1.79 1.32 2.56 1.32 1.07 0 1.84-0.92 2.11-2.506 0.25-1.34 0.84-2.794 1.78-4.325 0.03-0.04 0.07-0.079 0.11-0.121 0.81-0.694 1.52-1.542 2.3-2.752 0.04-0.04 0.08-0.092 0.12-0.12 0.51-0.413 1.06-0.838 1.66-1.109 1.14-0.533 1.9-1.371 2.09-2.317 0.17-0.817-0.11-1.673-0.78-2.39-0.08-0.078-0.17-0.181-0.26-0.282-0.1-0.111-0.19-0.221-0.3-0.324-0.14-0.129-0.19-0.32-0.15-0.493 0.01-0.018 0.04-0.119 0.05-0.14 0-7.144-5.87-13.051-13.08-13.131-0.14 0-0.26-0.051-0.35-0.139-0.17-0.165-0.33-0.335-0.49-0.497l-0.28-0.281c-0.67-0.687-1.41-1.049-2.13-1.049z"/>
    <path id="Fill-12" sketch:type="MSShapeGroup" fill="#232435" d="m106.34 105.14c-1.16 0-2.1-0.94-2.1-2.09s0.94-2.08 2.1-2.08c1.15 0 2.09 0.93 2.09 2.08s-0.94 2.09-2.09 2.09"/>
    <path id="Fill-13" sketch:type="MSShapeGroup" fill="#DC3E38" d="m107.52 103.05c0 0.66-0.53 1.18-1.18 1.18-0.66 0-1.2-0.52-1.2-1.18 0-0.65 0.54-1.18 1.2-1.18 0.65 0 1.18 0.53 1.18 1.18"/>
    <path id="Fill-14" sketch:type="MSShapeGroup" fill="#AC2430" d="m114.33 95.976c-5.6 0-10.16-4.554-10.16-10.135 0-5.605 4.56-10.161 10.16-10.161 5.59 0 10.16 4.556 10.16 10.161 0 5.581-4.57 10.135-10.16 10.135"/>
    <path id="Fill-15" sketch:type="MSShapeGroup" fill="#232435" d="m107.14 93.407c-0.09 0-0.21-0.038-0.29-0.12-1.44-1.443-2.43-3.256-2.86-5.263-0.06-0.22 0.09-0.442 0.31-0.494 0.2-0.08 0.44 0.092 0.49 0.315 0.41 1.854 1.32 3.527 2.65 4.857 0.16 0.161 0.16 0.423 0 0.585-0.08 0.082-0.19 0.12-0.3 0.12"/>
    <path id="Fill-16" sketch:type="MSShapeGroup" fill="#EB8B2D" d="m122.77 75.456c0.1-0.01 0.21 0.016 0.3 0.09 1.58 1.29 2.75 2.995 3.38 4.947 0.08 0.213-0.04 0.449-0.26 0.523-0.19 0.101-0.45-0.046-0.52-0.264-0.59-1.803-1.66-3.376-3.12-4.566-0.18-0.144-0.2-0.404-0.06-0.582 0.07-0.089 0.18-0.137 0.28-0.148"/>
    <path id="Fill-17" sketch:type="MSShapeGroup" fill="#90222C" d="m124.49 85.841c0-5.605-4.57-10.161-10.16-10.161-2.17 0-4.07 0.837-5.72 1.995 1.13-0.434 2.33-0.725 3.61-0.725 5.6 0 10.17 4.554 10.17 10.138 0 3.426-1.83 6.319-4.44 8.153 3.81-1.46 6.54-5.101 6.54-9.4"/>
    <path id="Fill-18" sketch:type="MSShapeGroup" fill="#232435" d="m113.23 83.073c0 0.625-0.23 1.149-0.66 1.591-0.44 0.433-0.97 0.647-1.59 0.647s-1.15-0.214-1.59-0.647c-0.44-0.442-0.65-0.966-0.65-1.591 0-0.615 0.21-1.149 0.65-1.582 0.44-0.435 0.97-0.655 1.59-0.655s1.15 0.22 1.59 0.655c0.43 0.433 0.66 0.967 0.66 1.582zm-2.24 7.539c-0.12 0-0.24-0.051-0.31-0.144-0.1-0.08-0.13-0.178-0.13-0.302 0-0.12 0.03-0.22 0.1-0.302l6.26-8.042c0.1-0.119 0.23-0.182 0.36-0.182 0.12 0 0.23 0.041 0.33 0.131 0.09 0.092 0.13 0.193 0.13 0.315 0 0.099-0.03 0.191-0.09 0.27l-6.3 8.094c-0.12 0.099-0.22 0.162-0.35 0.162zm-0.01-8.88c-0.37 0-0.68 0.131-0.95 0.392-0.26 0.264-0.39 0.588-0.39 0.949 0 0.372 0.13 0.684 0.39 0.945 0.27 0.265 0.58 0.404 0.95 0.404s0.68-0.139 0.96-0.404c0.27-0.261 0.4-0.573 0.4-0.945 0-0.361-0.13-0.685-0.4-0.949-0.28-0.261-0.59-0.392-0.96-0.392zm3.97 7.458c0-0.625 0.22-1.161 0.66-1.581 0.43-0.446 0.96-0.667 1.59-0.667 0.62 0 1.14 0.221 1.59 0.667 0.43 0.42 0.64 0.956 0.64 1.581 0 0.615-0.21 1.138-0.64 1.582-0.45 0.444-0.97 0.656-1.59 0.656-0.63 0-1.16-0.212-1.59-0.656-0.44-0.444-0.66-0.967-0.66-1.582zm2.25-1.341c-0.37 0-0.69 0.121-0.97 0.383-0.26 0.264-0.39 0.586-0.39 0.958s0.13 0.674 0.39 0.937c0.28 0.273 0.6 0.405 0.97 0.405s0.68-0.132 0.94-0.405c0.26-0.263 0.39-0.565 0.39-0.937s-0.13-0.694-0.39-0.958c-0.26-0.262-0.57-0.383-0.94-0.383z"/>
    <path id="Fill-19" sketch:type="MSShapeGroup" fill="#232435" d="m112.75 84.847c0.49-0.493 0.74-1.09 0.74-1.774 0-0.685-0.25-1.281-0.74-1.764-0.49-0.485-1.08-0.736-1.77-0.736-0.68 0-1.28 0.251-1.77 0.736-0.49 0.474-0.73 1.069-0.73 1.764 0 0.684 0.24 1.281 0.73 1.774 0.49 0.482 1.09 0.724 1.77 0.724 0.7 0 1.3-0.242 1.77-0.724zm-3.74-1.774c0-0.554 0.19-1.019 0.56-1.4 0.4-0.396 0.86-0.577 1.41-0.577s1.02 0.193 1.41 0.577c0.38 0.381 0.57 0.855 0.57 1.4 0 0.553-0.18 1.007-0.57 1.41-0.39 0.374-0.85 0.565-1.41 0.565-0.55 0-1.02-0.183-1.41-0.565-0.38-0.392-0.56-0.857-0.56-1.41z"/>
    <path id="Fill-20" sketch:type="MSShapeGroup" fill="#232435" d="m118.97 87.426c-0.5-0.493-1.09-0.744-1.77-0.744-0.69 0-1.3 0.251-1.77 0.744-0.49 0.472-0.74 1.07-0.74 1.764 0 0.674 0.25 1.27 0.74 1.763 0.48 0.494 1.06 0.738 1.77 0.738 0.69 0 1.28-0.254 1.77-0.738 0.48-0.493 0.73-1.076 0.73-1.763 0-0.706-0.26-1.301-0.73-1.764zm-0.37 3.165c-0.39 0.393-0.84 0.574-1.4 0.574s-1.03-0.181-1.41-0.574c-0.39-0.404-0.58-0.859-0.58-1.401 0-0.555 0.2-1.029 0.58-1.401 0.39-0.393 0.85-0.584 1.41-0.584 0.55 0 1.01 0.191 1.4 0.584 0.38 0.372 0.57 0.837 0.57 1.401 0 0.555-0.18 1.007-0.57 1.401z"/>
    <path id="Fill-21" sketch:type="MSShapeGroup" fill="#232435" d="m117.99 82.086c0-0.191-0.07-0.354-0.21-0.494-0.28-0.293-0.77-0.263-1.07 0.07l-6.25 8.032c-0.11 0.131-0.17 0.281-0.17 0.472 0 0.213 0.08 0.383 0.19 0.464 0.11 0.153 0.31 0.242 0.51 0.242 0.19 0 0.35-0.081 0.55-0.26l6.3-8.106c0.1-0.118 0.15-0.26 0.15-0.42zm-0.56 0.111l-6.26 8.062c-0.16 0.129-0.22 0.111-0.33 0.009-0.02-0.009-0.03-0.03-0.03-0.102 0-0.081 0.02-0.11 0.04-0.139l6.26-8.043c0.04-0.051 0.1-0.082 0.16-0.082s0.11 0.011 0.14 0.052c0.04 0.04 0.06 0.081 0.06 0.132 0 0.038-0.02 0.081-0.04 0.111z"/>
    <path id="Fill-22" sketch:type="MSShapeGroup" fill="#fff" d="m166.32 116.06c-0.28 0-0.51-0.23-0.51-0.51v-53.555c0-0.282 0.23-0.514 0.51-0.514s0.51 0.232 0.51 0.514v53.555c0 0.28-0.23 0.51-0.51 0.51"/>
    <path id="Fill-23" sketch:type="MSShapeGroup" fill="#EB8B2D" d="m157.87 35.892c-0.75-0.261-1.34-0.877-1.55-1.692l-2.72-10.401c-0.36-1.331 0.44-2.681 1.77-3.023 1.32-0.344 2.68 0.441 3.02 1.774l2.74 10.4c0.33 1.32-0.46 2.671-1.79 3.024-0.5 0.12-1.02 0.089-1.47-0.082"/>
    <path id="Fill-24" sketch:type="MSShapeGroup" fill="#EB8B2D" d="m176.45 38.028c-0.11-0.04-0.21-0.08-0.31-0.142-1.21-0.622-1.69-2.135-1.05-3.344l4.98-9.515c0.62-1.218 2.13-1.692 3.35-1.049 1.21 0.626 1.68 2.137 1.06 3.347l-4.99 9.515c-0.58 1.119-1.88 1.602-3.04 1.188"/>
    <path id="Fill-25" sketch:type="MSShapeGroup" fill="#EB8B2D" d="m188.8 52.048c-0.65-0.243-1.21-0.758-1.49-1.472-0.46-1.279 0.2-2.711 1.49-3.175l10.08-3.727c1.3-0.465 2.73 0.18 3.2 1.459 0.48 1.281-0.19 2.713-1.48 3.185l-10.08 3.719c-0.57 0.222-1.19 0.201-1.72 0.011"/>
    <path id="Fill-26" sketch:type="MSShapeGroup" fill="#EB8B2D" d="m198.55 74.723c-0.03-0.012-0.06-0.031-0.09-0.031l-9.98-3.999c-1.28-0.516-1.88-1.966-1.38-3.226 0.51-1.271 2.13-1.915 3.24-1.382l9.98 4.011c1.28 0.505 1.89 1.957 1.38 3.216-0.5 1.249-1.89 1.865-3.15 1.411"/>
    <path id="Fill-27" sketch:type="MSShapeGroup" fill="#232435" d="m121.1 93.802c-0.11 0-0.23-0.052-0.31-0.144-0.16-0.159-0.14-0.422 0.03-0.574 2.07-1.853 3.25-4.494 3.25-7.243 0-5.374-4.37-9.749-9.74-9.749-2.36 0-4.65 0.867-6.44 2.438-0.18 0.144-0.43 0.133-0.59-0.039-0.14-0.17-0.13-0.434 0.05-0.585 1.93-1.704 4.42-2.638 6.98-2.638 5.83 0 10.57 4.746 10.57 10.573 0 2.982-1.28 5.842-3.53 7.849-0.07 0.079-0.17 0.112-0.27 0.112"/>
   </g>
  </g>
 </g>
</svg>
