<?xml version="1.0" encoding="UTF-8" standalone="no"?>
<svg xmlns:sketch="http://www.bohemiancoding.com/sketch/ns" xmlns="http://www.w3.org/2000/svg" height="206px" width="264px" version="1.1" xmlns:xlink="http://www.w3.org/1999/xlink" viewBox="0 0 264 206"><!-- Generator: Sketch 3.3.3 (12072) - http://www.bohemiancoding.com/sketch -->
 <title>Imported Layers</title>
 <desc>Created with Sketch.</desc>
 <g id="Page-1" fill-rule="evenodd" sketch:type="MSPage" fill="none">
  <g id="Desktop-HD-Copy-13" transform="translate(-412 -1766)" sketch:type="MSArtboardGroup">
   <g id="Imported-Layers" transform="translate(412 1766)" sketch:type="MSLayerGroup">
    <path id="Fill-1" sketch:type="MSShapeGroup" fill="#DDDCE7" d="m254.39 136.69c-20.07-14.03-49.41 3.22-70.48 15.32 1.35-2.31 2.68-4.63 3.95-6.99 10.59-19.72 7.88-44.47-18.87-46.359-28.69-2.018-57.2 27.739-74.966 45.639-4.026 4.06-12.928 13.51-20.738 15.49 1.646-2.63 3.75-5.19 5.306-7.4 12.555-17.74 30.258-31.72 44.338-48.21 15.72-18.383 17.18-42.01-9.31-51.602-13.59-4.918-36.878 6.163-48.682 11.66-19.026 8.874-36.349 20.574-54.389 31.232-23.29 13.76-1.8423 49.83 21.504 36.04 6.489-3.83 12.889-7.8 19.296-11.71-1.255 1.49-2.519 2.99-3.741 4.53-12.856 16.23-24.49 35.94-15.277 56.71 10.092 22.8 40.426 24.77 60.218 15.53 13.841-6.47 24.601-17.2 35.451-27.68-3.54 15.54 2.14 29.9 21.24 35.11 15.16 4.14 31.41-3.61 44.8-9.69 8.99-4.05 17.42-9.36 26.16-13.87 3.56-1.89 7.22-3.45 11.05-4.74 2.2-0.83 3.63-1.14 4.44-1.25 21.35 11.82 39.97-22.9 18.7-37.76"/>
    <path id="Fill-2" sketch:type="MSShapeGroup" fill="#fff" d="m227.96 193.97c0 2.23-1.11 4.04-2.48 4.04h-81.13c-1.37 0-2.47-1.81-2.47-4.04s1.1-4.04 2.47-4.04h81.13c1.37 0 2.48 1.81 2.48 4.04"/>
    <path id="Fill-3" sketch:type="MSShapeGroup" fill="#232435" d="m225.48 199.68h-81.13c-2.32 0-4.15-2.51-4.15-5.71s1.83-5.71 4.15-5.71h81.13c2.33 0 4.15 2.51 4.15 5.71s-1.82 5.71-4.15 5.71zm-0.03-8.09l-81.1 0.01c-0.2 0.08-0.8 0.92-0.8 2.37s0.6 2.3 0.84 2.38l81.08-0.01c0.23-0.1 0.82-0.94 0.82-2.37 0-1.45-0.6-2.29-0.84-2.38z"/>
    <path id="Fill-4" sketch:type="MSShapeGroup" fill="#fff" d="m143.33 190.46s-1.31-7.56 8.08-9.39c9.4-1.82 26.87-0.78 42.79-31.26 15.91 3.65 31.56 8.86 31.56 8.86v31.79h-82.43"/>
    <path id="Fill-5" sketch:type="MSShapeGroup" fill="#BFC0BF" d="m176.57 189.28s-4.96-1.82-5.74-7.55c0 0 17.35-3.26 26.09-25.41 0 0 8.35-2.86 13.43 5.61 8.35 2.73 8.61 2.99 15.13-2.35h4.61v29.7h-53.52"/>
    <path id="Fill-6" sketch:type="MSShapeGroup" fill="#232435" d="m225.76 192.12h-82.43c-0.82 0-1.51-0.58-1.65-1.38-0.55-3.18 0.72-9.62 9.42-11.3 1.08-0.21 2.27-0.38 3.55-0.57 9.69-1.41 24.34-3.54 38.06-29.83 0.35-0.66 1.14-0.99 1.86-0.86 15.81 3.62 31.56 8.85 31.72 8.91 0.68 0.23 1.14 0.86 1.14 1.58v31.79c0 0.92-0.75 1.66-1.67 1.66zm-80.8-3.33h79.13v-28.91c-3.76-1.22-16.24-5.16-29.02-8.16-14.36 26.73-30.34 29.05-39.94 30.45-1.22 0.17-2.36 0.34-3.4 0.54-5.44 1.06-6.59 4.23-6.77 6.08z"/>
    <path id="Fill-7" sketch:type="MSShapeGroup" fill="#fff" d="m215.85 177.98c0 3.31-2.69 5.99-6 5.99-3.3 0-5.99-2.68-5.99-5.99 0-3.3 2.69-5.99 5.99-5.99 3.31 0 6 2.69 6 5.99"/>
    <path id="Fill-8" sketch:type="MSShapeGroup" fill="#232435" d="m209.85 184.47c-3.58 0-6.49-2.91-6.49-6.49s2.91-6.49 6.49-6.49c3.59 0 6.5 2.91 6.5 6.49s-2.91 6.49-6.5 6.49zm0-11.98c-3.03 0-5.5 2.46-5.5 5.49s2.47 5.5 5.5 5.5c3.04 0 5.51-2.47 5.51-5.5s-2.47-5.49-5.51-5.49z"/>
    <path id="Fill-9" sketch:type="MSShapeGroup" fill="#232435" d="m209.85 175.34l0.86 1.75 1.92 0.27-1.39 1.35 0.33 1.91-1.72-0.9-1.71 0.9 0.33-1.91-1.39-1.35 1.92-0.27 0.85-1.75"/>
    <path id="Fill-10" sketch:type="MSShapeGroup" fill="#232435" d="m211.57 180.73l-0.05-0.02-1.67-0.87-1.66 0.87-0.11-0.01-0.04-0.1 0.31-1.85-1.34-1.31-0.02-0.11 0.08-0.07 1.86-0.27 0.84-1.7h0.18l0.83 1.7 1.86 0.27 0.08 0.07-0.02 0.11-1.35 1.31 0.32 1.85-0.04 0.1-0.06 0.03zm-1.72-1.11l0.05 0.01 1.53 0.8-0.3-1.7 0.04-0.09 1.24-1.2-1.72-0.25-0.07-0.06-0.77-1.55-0.76 1.55-0.07 0.06-1.72 0.25 1.24 1.2 0.03 0.09-0.29 1.7 1.53-0.8 0.04-0.01z"/>
    <path id="Fill-11" sketch:type="MSShapeGroup" fill="#232435" d="m215.49 164.91c-0.16 0-0.3 0-0.46-0.01-2.28-0.13-4.24-1.25-5.8-3.32-3.86-5.11-8.02-6.5-12.67-4.3-1.9 0.87-3.5 1.05-4.75 0.52-1.35-0.58-1.77-1.74-1.81-1.87-0.15-0.43 0.09-0.9 0.53-1.05 0.4-0.15 0.89 0.08 1.05 0.52 0.01 0.04 0.23 0.6 0.91 0.87 0.77 0.32 1.96 0.16 3.35-0.51 5.44-2.55 10.39-0.93 14.72 4.81 1.28 1.69 2.77 2.56 4.56 2.67h0.37c4.69 0 9.62-5.09 9.67-5.15 0.31-0.33 0.84-0.35 1.18-0.02 0.33 0.31 0.34 0.84 0.02 1.18-0.23 0.23-5.46 5.66-10.87 5.66"/>
    <path id="Fill-12" sketch:type="MSShapeGroup" fill="#232435" d="m175.84 190.94c-0.21 0-0.42-0.07-0.57-0.22-6.47-6.1-6.19-13.54-6.17-13.85 0.01-0.45 0.39-0.79 0.83-0.79h0.04c0.45 0.01 0.81 0.4 0.79 0.87 0 0.06-0.24 7 5.65 12.56 0.33 0.31 0.35 0.84 0.03 1.17-0.16 0.18-0.38 0.26-0.6 0.26"/>
    <path id="Fill-13" sketch:type="MSShapeGroup" fill="#232435" d="m172.53 186.77h-28.87c-0.46 0-0.83-0.36-0.83-0.83 0-0.46 0.37-0.83 0.83-0.83h28.87c0.46 0 0.83 0.37 0.83 0.83 0 0.47-0.37 0.83-0.83 0.83"/>
    <path id="Fill-14" sketch:type="MSShapeGroup" fill="#232435" d="m178.07 176.78c0 0.76-0.61 1.36-1.37 1.36s-1.37-0.6-1.37-1.36c0-0.75 0.61-1.37 1.37-1.37s1.37 0.62 1.37 1.37"/>
    <path id="Fill-15" sketch:type="MSShapeGroup" fill="#232435" d="m183.29 172.61c0 0.76-0.61 1.37-1.37 1.37s-1.37-0.61-1.37-1.37c0-0.75 0.61-1.37 1.37-1.37s1.37 0.62 1.37 1.37"/>
    <path id="Fill-16" sketch:type="MSShapeGroup" fill="#232435" d="m188.24 167.92c0 0.76-0.61 1.37-1.37 1.37-0.75 0-1.36-0.61-1.36-1.37 0-0.75 0.61-1.37 1.36-1.37 0.76 0 1.37 0.62 1.37 1.37"/>
    <path id="Fill-17" sketch:type="MSShapeGroup" fill="#232435" d="m192.16 163.36c0 0.76-0.61 1.37-1.37 1.37s-1.37-0.61-1.37-1.37c0-0.75 0.61-1.37 1.37-1.37s1.37 0.62 1.37 1.37"/>
    <path id="Fill-18" sketch:type="MSShapeGroup" fill="#232435" d="m225.35 168.88h-5.48c-0.46 0-0.83-0.37-0.83-0.83v-5.08c0-0.47 0.37-0.83 0.83-0.83 0.47 0 0.83 0.36 0.83 0.83v4.25h4.65c0.47 0 0.83 0.36 0.83 0.83 0 0.46-0.36 0.83-0.83 0.83"/>
    <path id="Fill-19" sketch:type="MSShapeGroup" fill="#232435" d="m227.96 194.8l-55.43-0.18c-0.36 0-0.65-0.29-0.65-0.65s0.29-0.65 0.65-0.65l55.43-0.18c0.47-0.01 0.84 0.37 0.84 0.83s-0.37 0.83-0.83 0.83h-0.01"/>
    <path id="Fill-20" sketch:type="MSShapeGroup" fill="#fff" d="m101.02 161.03c-3.702 2.03-4.053 7.25-13.273 6.55-9.318-0.7-14.787-10.78-14.787-10.78s-4.003 0.88-8.348 6.09c0 0-4.736 0.08-4.867 3.33 0 0-4.565-1.43-5.608 1.96 0 0-4.304-0.13-4.696 3.26 0 0-3.391-0.79-5.347 2.08 0 0-5.348 2.21-17.217 3.61 0 0-9.399-0.17-8.698 7.64 0.701 7.82 16.002 13.21 37.222 13.21h39.3c10.089 0 10.789-4.53 10.789-10.26 0-5.67-3.06-20.8-4.47-26.69"/>
    <path id="Fill-21" sketch:type="MSShapeGroup" fill="#BFC0BF" d="m102.09 165.83c-0.4-1.89-0.77-3.55-1.07-4.8-3.702 2.03-4.053 7.25-13.273 6.55-3.603-0.26-6.611-1.94-8.975-3.9-1.728-2.05-2.691-3.76-2.691-3.76s-0.292 0.07-0.773 0.25c-1.354 0.52-4.362 1.98-7.574 5.83 0 0-4.736 0.09-4.866 3.35 0 0-4.566-1.43-5.609 1.95 0 0-4.304-0.13-4.696 3.26 0 0-3.391-0.78-5.347 2.09 0 0-5.347 2.21-17.217 3.59 0 0-2.698 0-5.095 1.16 0.008 0.59 0.164 1.94 1.19 3.53 3.213 2.23 8.781 4.32 18.521 5 21.391 0.27 29.225-3.81 37.173-4.56 15.392-1.43 23.222 0 23.222 0l0.32-0.35c-0.47-5.15-2-13.31-3.24-19.19"/>
    <path id="Fill-22" sketch:type="MSShapeGroup" fill="#BFC0BF" d="m100.8 162.37l3.3-2.14s4.7 18.45 4.7 25.4l-5.05-1.38"/>
    <path id="Fill-23" sketch:type="MSShapeGroup" fill="#232435" d="m94.701 199.65h-39.3c-22.467 0-38.094-5.92-38.885-14.73-0.228-2.53 0.416-4.64 1.907-6.27 2.772-3.03 7.483-3.18 8.405-3.18 9.522-1.13 14.78-2.83 16.222-3.34 1.248-1.55 3.057-2.41 5.16-2.46 0.881-1.95 2.894-2.86 4.827-3.1 0.888-1.48 2.511-2.32 4.614-2.32 0.309 0 0.611 0.02 0.888 0.05 1.011-2.02 3.465-2.82 5.259-3.03 4.483-5.1 8.623-6.06 8.803-6.1 0.734-0.15 1.468 0.18 1.827 0.83 0.048 0.1 5.167 9.29 13.442 9.91 5.486 0.44 7.222-1.38 9.114-3.5 0.913-1.03 1.85-2.08 3.226-2.84 0.46-0.25 1-0.28 1.49-0.06 0.47 0.21 0.82 0.62 0.94 1.13 1.53 6.37 4.52 21.35 4.52 27.08 0 6.03-0.96 11.93-12.459 11.93zm-46.311-26.64c-1.279 0-2.258 0.49-2.918 1.45-0.18 0.26-0.44 0.48-0.742 0.6-0.221 0.1-5.698 2.32-17.658 3.73-0.415 0.01-4.287 0.04-6.186 2.11-0.848 0.92-1.183 2.14-1.045 3.73 0.523 5.8 12.905 11.68 35.56 11.68h39.3c8.669 0 9.109-3.27 9.109-8.59 0-4.6-2.2-16.41-3.81-23.68-0.171 0.19-0.351 0.38-0.53 0.58-2.03 2.29-4.541 5.23-11.853 4.62-8.152-0.61-13.483-7.53-15.374-10.41-1.337 0.6-3.767 2.03-6.351 5.12-0.302 0.37-0.766 0.59-1.247 0.61-0.033 0-3.163 0.12-3.229 1.73-0.023 0.52-0.284 0.99-0.709 1.29-0.423 0.31-0.962 0.39-1.459 0.24 0-0.01-0.749-0.23-1.597-0.23-1.591 0-1.811 0.73-1.917 1.08-0.227 0.71-0.969 1.24-1.646 1.18-0.473 0-2.796 0.08-2.991 1.77-0.05 0.47-0.302 0.91-0.694 1.18-0.391 0.27-0.872 0.35-1.337 0.26 0 0-0.277-0.05-0.676-0.05z"/>
    <path id="Fill-24" sketch:type="MSShapeGroup" fill="#232435" d="m45.659 190.77l-0.253-0.04c-19.654-6.28-19.45-12.95-19.36-13.69 0.065-0.46 0.497-0.74 0.929-0.74 0.456 0.06 0.774 0.47 0.733 0.92-0.007 0.15-0.024 6.09 18.204 11.92 0.44 0.14 0.684 0.61 0.546 1.05-0.114 0.35-0.449 0.58-0.799 0.58"/>
    <path id="Fill-25" sketch:type="MSShapeGroup" fill="#232435" d="m46.531 191.2c-0.627 0-1.271 0-1.931-0.01-11.03-0.78-18.4-3.37-21.979-7.72-2.355-2.87-2.111-5.4-2.07-5.68 0.081-0.68 0.709-1.18 1.394-1.08 0.684 0.08 1.166 0.7 1.092 1.38-0.008 0.07-0.154 1.81 1.606 3.9 2.177 2.56 7.427 5.81 20.063 6.7 14.477 0.23 22.539-1.64 28.988-3.1 2.909-0.66 5.42-1.22 7.98-1.46 15.35-1.41 23.236-0.05 23.556 0.01 0.68 0.13 1.13 0.78 1.01 1.46-0.13 0.68-0.7 1.15-1.46 1-0.08 0-7.854-1.38-22.878 0.02-2.396 0.23-4.834 0.77-7.654 1.41-5.959 1.35-14.029 3.17-27.717 3.17"/>
    <path id="Fill-26" sketch:type="MSShapeGroup" fill="#232435" d="m51.545 194.43c-2.992 0-6.277-0.12-9.905-0.41-10.165-0.72-16.915-3.3-20.037-7.68-2.511-3.52-1.655-6.85-1.614-7 0.114-0.44 0.595-0.68 1.026-0.59 0.441 0.13 0.702 0.58 0.588 1.02-0.033 0.12-0.685 2.77 1.386 5.64 1.948 2.71 6.79 6.11 18.773 6.95 16.549 1.32 25.825-0.84 32.624-2.4 2.706-0.63 5.047-1.17 7.321-1.38 15.325-1.42 23.123-0.06 23.443 0.01 0.46 0.08 0.76 0.52 0.68 0.97-0.08 0.46-0.52 0.76-0.97 0.67-0.08 0-7.925-1.39-22.99 0.01-2.176 0.21-4.459 0.74-7.109 1.35-5.412 1.23-12.391 2.84-23.216 2.84"/>
    <path id="Fill-27" sketch:type="MSShapeGroup" fill="#232435" d="m88.31 185.55c-0.146 0-0.294-0.03-0.433-0.11-0.39-0.24-0.521-0.75-0.284-1.14 0.22-0.38 5.543-9.09 16.377-10.69 0.43-0.11 0.88 0.24 0.94 0.7 0.08 0.46-0.24 0.88-0.7 0.94-10.023 1.49-15.134 9.81-15.183 9.9-0.154 0.26-0.432 0.4-0.717 0.4"/>
    <path id="Fill-28" sketch:type="MSShapeGroup" fill="#232435" d="m49.931 178.45c-4.973 0-7.199-3.97-7.223-4.01-0.22-0.41-0.073-0.9 0.335-1.13 0.383-0.2 0.904-0.08 1.132 0.33 0.09 0.16 2.275 4 7.451 2.97 3.057-0.61 7.916-3.42 12.204-5.89 3.814-2.21 7.417-4.29 9.79-4.91 0.286-0.07 0.603 0.01 0.823 0.24 0.024 0.02 2.031 2.15 4.215 2.15h0.122c1.028-0.04 1.924-0.56 2.748-1.58 0.285-0.36 0.823-0.41 1.174-0.14 0.358 0.29 0.415 0.82 0.129 1.18-1.132 1.41-2.477 2.15-4.002 2.2l-0.171 0.01c-2.283 0-4.255-1.58-5.063-2.32-2.168 0.71-5.461 2.61-8.934 4.61-4.614 2.67-9.382 5.42-12.709 6.08-0.717 0.15-1.394 0.21-2.021 0.21"/>
    <path id="Fill-29" sketch:type="MSShapeGroup" fill="#232435" d="m53.24 174.14c-3.138 0-4.459-2.18-4.515-2.28-0.237-0.4-0.107-0.91 0.293-1.14 0.375-0.25 0.905-0.12 1.141 0.28 0.057 0.1 1.117 1.79 3.75 1.43 0.432 0.01 0.864 0.28 0.93 0.73 0.047 0.46-0.279 0.87-0.734 0.93-0.302 0.03-0.588 0.05-0.865 0.05"/>
    <path id="Fill-30" sketch:type="MSShapeGroup" fill="#232435" d="m58.181 171.35c-2.332 0-5.062-2.28-5.373-2.54-0.351-0.3-0.391-0.83-0.09-1.18 0.302-0.34 0.824-0.38 1.183-0.09 0.693 0.6 2.828 2.15 4.28 2.15 0.464 0 0.83 0.37 0.83 0.83 0 0.47-0.366 0.83-0.83 0.83"/>
    <path id="Fill-31" sketch:type="MSShapeGroup" fill="#232435" d="m63.136 168.75l-0.121-0.01c-3.865-0.57-4.508-2.23-4.598-2.56-0.122-0.44 0.139-0.9 0.587-1.02 0.415-0.09 0.872 0.12 1.01 0.54 0.042 0.08 0.564 1 3.245 1.4 0.457 0.06 0.774 0.48 0.701 0.94-0.057 0.42-0.416 0.71-0.824 0.71"/>
    <path id="Fill-32" sketch:type="MSShapeGroup" fill="#232435" d="m68.615 165.75c-3.122 0-4.899-2.31-4.973-2.42-0.277-0.36-0.204-0.88 0.171-1.16 0.368-0.29 0.897-0.2 1.166 0.17 0.082 0.11 1.394 1.75 3.636 1.75 0.464 0 0.831 0.37 0.831 0.83 0 0.47-0.367 0.83-0.831 0.83"/>
    <path id="Fill-33" sketch:type="MSShapeGroup" fill="#232435" d="m95.892 182.2c0 0.33-0.254 0.59-0.58 0.59s-0.587-0.26-0.587-0.59 0.261-0.59 0.587-0.59 0.58 0.26 0.58 0.59"/>
    <path id="Fill-34" sketch:type="MSShapeGroup" fill="#232435" d="m97.595 182.2c0 0.33-0.262 0.59-0.588 0.59-0.325 0-0.578-0.26-0.578-0.59s0.253-0.59 0.578-0.59c0.326 0 0.588 0.26 0.588 0.59"/>
    <path id="Fill-35" sketch:type="MSShapeGroup" fill="#232435" d="m99.29 182.2c0 0.33-0.252 0.59-0.578 0.59s-0.588-0.26-0.588-0.59 0.262-0.59 0.588-0.59 0.578 0.26 0.578 0.59"/>
    <path id="Fill-36" sketch:type="MSShapeGroup" fill="#232435" d="m100.99 182.2c0 0.33-0.26 0.59-0.58 0.59-0.33 0-0.581-0.26-0.581-0.59s0.251-0.59 0.581-0.59c0.32 0 0.58 0.26 0.58 0.59"/>
    <path id="Fill-37" sketch:type="MSShapeGroup" fill="#232435" d="m102.75 182.2c0 0.33-0.26 0.59-0.59 0.59s-0.58-0.26-0.58-0.59 0.25-0.59 0.58-0.59 0.59 0.26 0.59 0.59"/>
    <path id="Fill-38" sketch:type="MSShapeGroup" fill="#232435" d="m97.595 180.55c0 0.33-0.262 0.59-0.588 0.59-0.325 0-0.578-0.26-0.578-0.59 0-0.32 0.253-0.58 0.578-0.58 0.326 0 0.588 0.26 0.588 0.58"/>
    <path id="Fill-39" sketch:type="MSShapeGroup" fill="#232435" d="m99.29 180.55c0 0.33-0.252 0.59-0.578 0.59s-0.588-0.26-0.588-0.59c0-0.32 0.262-0.58 0.588-0.58s0.578 0.26 0.578 0.58"/>
    <path id="Fill-40" sketch:type="MSShapeGroup" fill="#232435" d="m100.99 180.55c0 0.33-0.26 0.59-0.58 0.59-0.33 0-0.581-0.26-0.581-0.59 0-0.32 0.251-0.58 0.581-0.58 0.32 0 0.58 0.26 0.58 0.58"/>
    <path id="Fill-41" sketch:type="MSShapeGroup" fill="#232435" d="m102.75 180.55c0 0.33-0.26 0.59-0.59 0.59s-0.58-0.26-0.58-0.59c0-0.32 0.25-0.58 0.58-0.58s0.59 0.26 0.59 0.58"/>
    <path id="Fill-42" sketch:type="MSShapeGroup" fill="#232435" d="m99.29 178.75c0 0.32-0.252 0.58-0.578 0.58s-0.588-0.26-0.588-0.58c0-0.33 0.262-0.57 0.588-0.57s0.578 0.24 0.578 0.57"/>
    <path id="Fill-43" sketch:type="MSShapeGroup" fill="#232435" d="m100.99 178.75c0 0.32-0.26 0.58-0.58 0.58-0.33 0-0.581-0.26-0.581-0.58 0-0.33 0.251-0.57 0.581-0.57 0.32 0 0.58 0.24 0.58 0.57"/>
    <path id="Fill-44" sketch:type="MSShapeGroup" fill="#232435" d="m102.75 178.75c0 0.32-0.26 0.58-0.59 0.58s-0.58-0.26-0.58-0.58c0-0.33 0.25-0.57 0.58-0.57s0.59 0.24 0.59 0.57"/>
    <path id="Fill-45" sketch:type="MSShapeGroup" fill="#232435" d="m85.53 198.84c-0.277 0-0.554-0.14-0.709-0.4-0.245-0.39-0.122-0.89 0.269-1.14 0.073-0.05 1.793-1.18 1.068-3.75-0.122-0.45 0.138-0.91 0.578-1.03 0.489-0.09 0.914 0.13 1.036 0.57 0.856 3.06-0.807 5.03-1.81 5.63-0.131 0.09-0.285 0.12-0.432 0.12"/>
    <path id="Fill-46" sketch:type="MSShapeGroup" fill="#232435" d="m90.225 198.84c-0.276 0-0.554-0.14-0.709-0.4-0.244-0.39-0.122-0.89 0.269-1.14 0.074-0.05 1.794-1.18 1.068-3.75-0.121-0.45 0.139-0.91 0.579-1.03 0.489-0.09 0.914 0.13 1.035 0.57 0.857 3.06-0.806 5.03-1.809 5.63-0.131 0.09-0.286 0.12-0.433 0.12"/>
    <path id="Fill-47" sketch:type="MSShapeGroup" fill="#232435" d="m94.53 198.84c-0.277 0-0.555-0.14-0.709-0.4-0.245-0.39-0.123-0.89 0.269-1.14 0.073-0.05 1.793-1.18 1.068-3.75-0.123-0.45 0.138-0.91 0.579-1.03 0.488-0.09 0.912 0.13 1.035 0.57 0.855 3.06-0.808 5.03-1.81 5.63-0.13 0.09-0.286 0.12-0.432 0.12"/>
    <path id="Fill-48" sketch:type="MSShapeGroup" fill="#232435" d="m60.365 173.92c3.204 2.17 6.456 4.34 9.774 6.29 0.399 0.23 0.547 0.74 0.317 1.13-0.219 0.39-0.708 0.53-1.099 0.34-3.538-1.77-6.921-3.71-10.312-5.69-0.588-0.35-0.783-1.09-0.441-1.68 0.343-0.59 1.092-0.79 1.68-0.45l0.081 0.06"/>
    <path id="Fill-49" sketch:type="MSShapeGroup" fill="#232435" d="m70.971 167.53c3.725 2.37 7.483 4.78 11.299 6.95 0.407 0.22 0.554 0.73 0.333 1.13-0.212 0.39-0.717 0.54-1.116 0.34-3.987-2.08-7.81-4.34-11.658-6.6-0.513-0.3-0.685-0.96-0.374-1.47 0.301-0.52 0.962-0.69 1.475-0.39l0.041 0.04"/>
    <path id="Fill-50" sketch:type="MSShapeGroup" fill="#232435" d="m66.064 170.63c3.244 2.53 6.578 5.08 10.074 7.11 0.408 0.21 0.571 0.71 0.351 1.12-0.211 0.4-0.734 0.55-1.132 0.34-3.774-2.03-7.142-4.48-10.533-6.96-0.457-0.33-0.554-0.97-0.22-1.42 0.326-0.45 0.97-0.56 1.419-0.22l0.041 0.03"/>
    <path id="Fill-51" sketch:type="MSShapeGroup" fill="#fff" d="m135.83 26.377c-13.96 0-18.17 7.898-18.17 13.288v48.721s-9.56 13.194-21.036 12.494c-0.407-0.02-0.717 0.08-1.116 0.08h-3.253c-2.747 0-5.102 1.32-6.733 3.29-1.272 1.53-2.135 3.42-2.135 5.57 0 4.88 3.977 8.86 8.868 8.86h27.495l13.35-7.59-0.04 7.59h20.95v-30.294-8.174-40.547c0-5.39-4.21-13.288-18.18-13.288"/>
    <path id="Fill-52" sketch:type="MSShapeGroup" fill="#CBCCCB" d="m135.66 98.874c-6 7.816-10.43-0.522-10.69-2.867-0.26-2.344 1.3-25.012-0.26-29.702-0.39-1.172-1.34-2.051-2.53-2.686v27.895s-9.56 13.186-21.04 12.486c-0.41-0.01-0.72 0.08-1.12 0.08h-3.248c-2.748 0-5.103 1.32-6.734 3.29-0.831 1-1.37 2.2-1.728 3.47l2.576 1.16h28.864l13.35-6.91h25.42v-12.73h-11.9c0.52 6.253-5.74 6.514-10.96 6.514"/>
    <path id="Fill-53" sketch:type="MSShapeGroup" fill="#DBBA94" d="m150.58 31.421c2.48 2.573 3.43 5.689 3.43 8.244v40.547 8.174 3.974h4.51v-0.846-8.176-40.547c0-3.742-2.03-8.693-7.94-11.37"/>
    <path id="Fill-54" sketch:type="MSShapeGroup" fill="#DBBA94" d="m140.35 29.503c-13.96 0-18.17 7.898-18.17 13.288v20.828c1.19 0.635 2.14 1.514 2.53 2.686 0.54 1.61 0.7 5.338 0.7 9.635 0 7.213-0.47 16.031-0.47 19.125 0 0.433 0.01 0.754 0.03 0.942v0.034c0.21 1.655 2.39 6.099 5.7 6.109 1.46-0.01 3.14-0.87 4.96-3.234v-0.002c0.01-0.014 0.02-0.027 0.03-0.04 5.02 0 10.99-0.241 10.99-5.809 0-0.226-0.01-0.462-0.03-0.705h7.39v-3.974-8.174-40.547c0-2.555-0.95-5.671-3.43-8.244-2.6-1.179-5.96-1.918-10.23-1.918"/>
    <path id="Fill-55" sketch:type="MSShapeGroup" fill="#B1997B" d="m130.67 102.15m4.96-3.234c-1.82 2.364-3.5 3.224-4.96 3.234 1.46-0.01 3.14-0.87 4.96-3.234m0.03-0.042c-0.01 0.013-0.02 0.026-0.03 0.04 0.01-0.014 0.02-0.027 0.03-0.04m-10.69-2.867v0.034-0.034m21.65-3.647c0.02 0.243 0.03 0.479 0.03 0.705 0-0.226-0.01-0.462-0.03-0.705m-21.21-16.42c0 7.213-0.47 16.031-0.47 19.125 0-3.094 0.47-11.912 0.47-19.125"/>
    <path id="Fill-56" sketch:type="MSShapeGroup" fill="#8A8B8A" d="m133.1 105.09l-13.35 7.59h-27.495c-3.839 0-7.035-2.47-8.266-5.89-0.383 0.94-0.602 1.95-0.602 3.03 0 4.88 3.977 8.86 8.868 8.86h27.495l13.31-7.58v7.58h20.95v-13.59h-20.91"/>
    <path id="Fill-57" sketch:type="MSShapeGroup" fill="#232435" d="m154.01 120.34h-20.95c-0.45 0-0.88-0.17-1.19-0.49-0.31-0.31-0.49-0.74-0.49-1.18l0.04-4.71-10.84 6.16c-0.26 0.15-0.54 0.22-0.83 0.22h-27.495c-5.812 0-10.539-4.72-10.539-10.52 0-2.36 0.871-4.65 2.518-6.64 2.079-2.51 4.924-3.891 8.021-3.891h3.253c0.538-0.058 0.767-0.082 1.027-0.082 0.457 0.024 0.717 0.033 0.978 0.033 9.017-0.009 16.837-9.323 18.477-11.415v-48.16c0-5.553 4.19-14.957 19.84-14.957 15.67 0 19.85 9.404 19.85 14.957v79.015c0 0.91-0.75 1.66-1.67 1.66zm-19.27-3.33h17.59v-77.345c0-5.358-4.32-11.619-16.5-11.619-12.17 0-16.49 6.261-16.49 11.619v48.721c0 0.35-0.12 0.692-0.32 0.978-0.4 0.553-10.31 14.056-22.493 13.176-0.521 0.06-0.758 0.09-1.019 0.09h-3.253c-2.078 0-4.01 0.95-5.445 2.68-1.166 1.4-1.753 2.92-1.753 4.51 0 3.96 3.228 7.19 7.198 7.19h27.055l12.97-7.37c0.51-0.3 1.16-0.28 1.67 0.01 0.52 0.3 0.83 0.85 0.83 1.44l-0.04 5.92z"/>
    <path id="Fill-58" sketch:type="MSShapeGroup" fill="#232435" d="m152.88 111.17h-12.52c-0.46 0-0.83-0.37-0.83-0.83 0-0.47 0.37-0.83 0.83-0.83h12.52c0.47 0 0.83 0.36 0.83 0.83 0 0.46-0.36 0.83-0.83 0.83"/>
    <path id="Fill-59" sketch:type="MSShapeGroup" fill="#232435" d="m153.4 114.29h-8.08c-0.47 0-0.84-0.36-0.84-0.83 0-0.46 0.37-0.83 0.84-0.83h8.08c0.47 0 0.83 0.37 0.83 0.83 0 0.47-0.36 0.83-0.83 0.83"/>
    <path id="Fill-60" sketch:type="MSShapeGroup" fill="#FFFBDA" d="m132.27 41.244h7.31v16.007h-7.31v-16.007z"/>
    <path id="Fill-61" sketch:type="MSShapeGroup" fill="#232435" d="m139.58 58.082h-7.31c-0.46 0-0.83-0.366-0.83-0.831v-16.007c0-0.463 0.37-0.83 0.83-0.83h7.31c0.46 0 0.83 0.367 0.83 0.83v16.007c0 0.465-0.37 0.831-0.83 0.831zm-6.48-1.661h5.65v-14.346h-5.65v14.346z"/>
    <path id="Fill-62" sketch:type="MSShapeGroup" fill="#FFFBDA" d="m131.23 24.618h9.39v20.582h-9.39v-20.582z"/>
    <path id="Fill-63" sketch:type="MSShapeGroup" fill="#232435" d="m140.62 46.456h-9.39c-0.69 0-1.26-0.563-1.26-1.256v-20.582c0-0.692 0.57-1.254 1.26-1.254h9.39c0.69 0 1.26 0.562 1.26 1.254v20.582c0 0.693-0.57 1.256-1.26 1.256zm-8.13-2.509h6.88v-18.075h-6.88v18.075z"/>
    <path id="Fill-64" sketch:type="MSShapeGroup" fill="#232435" d="m136.19 105.17c-0.47 0-0.84-0.36-0.84-0.82v-46.642c0-0.465 0.37-0.831 0.84-0.831 0.46 0 0.83 0.366 0.83 0.831v46.642c0 0.46-0.37 0.82-0.83 0.82"/>
    <path id="Fill-65" sketch:type="MSShapeGroup" fill="#232435" d="m133.84 60.512c-0.26 0-0.46-0.206-0.46-0.459v-1.995c0-0.255 0.2-0.46 0.46-0.46 0.25 0 0.46 0.205 0.46 0.46v1.995c0 0.253-0.21 0.459-0.46 0.459"/>
    <path id="Fill-66" sketch:type="MSShapeGroup" fill="#232435" d="m133.84 64.281c-0.26 0-0.46-0.205-0.46-0.46v-1.994c0-0.254 0.2-0.46 0.46-0.46 0.25 0 0.46 0.206 0.46 0.46v1.994c0 0.255-0.21 0.46-0.46 0.46"/>
    <path id="Fill-67" sketch:type="MSShapeGroup" fill="#232435" d="m133.84 68.043c-0.26 0-0.46-0.205-0.46-0.459v-1.995c0-0.254 0.2-0.46 0.46-0.46 0.25 0 0.46 0.206 0.46 0.46v1.995c0 0.254-0.21 0.459-0.46 0.459"/>
    <path id="Fill-68" sketch:type="MSShapeGroup" fill="#232435" d="m133.84 71.813c-0.26 0-0.46-0.206-0.46-0.46v-1.994c0-0.254 0.2-0.46 0.46-0.46 0.25 0 0.46 0.206 0.46 0.46v1.994c0 0.254-0.21 0.46-0.46 0.46"/>
    <path id="Fill-69" sketch:type="MSShapeGroup" fill="#232435" d="m133.84 75.575c-0.26 0-0.46-0.206-0.46-0.459v-1.987c0-0.255 0.2-0.46 0.46-0.46 0.25 0 0.46 0.205 0.46 0.46v1.987c0 0.253-0.21 0.459-0.46 0.459"/>
    <path id="Fill-70" sketch:type="MSShapeGroup" fill="#232435" d="m133.84 79.344c-0.26 0-0.46-0.205-0.46-0.46v-1.994c0-0.254 0.2-0.46 0.46-0.46 0.25 0 0.46 0.206 0.46 0.46v1.994c0 0.255-0.21 0.46-0.46 0.46"/>
    <path id="Fill-71" sketch:type="MSShapeGroup" fill="#232435" d="m133.84 83.115c-0.26 0-0.46-0.206-0.46-0.46v-1.995c0-0.254 0.2-0.46 0.46-0.46 0.25 0 0.46 0.206 0.46 0.46v1.995c0 0.254-0.21 0.46-0.46 0.46"/>
    <path id="Fill-72" sketch:type="MSShapeGroup" fill="#232435" d="m133.84 86.876c-0.26 0-0.46-0.206-0.46-0.46v-1.995c0-0.253 0.2-0.459 0.46-0.459 0.25 0 0.46 0.206 0.46 0.459v1.995c0 0.254-0.21 0.46-0.46 0.46"/>
    <path id="Fill-73" sketch:type="MSShapeGroup" fill="#232435" d="m133.84 90.646c-0.26 0-0.46-0.206-0.46-0.46v-1.995c0-0.254 0.2-0.46 0.46-0.46 0.25 0 0.46 0.206 0.46 0.46v1.995c0 0.254-0.21 0.46-0.46 0.46"/>
    <path id="Fill-74" sketch:type="MSShapeGroup" fill="#232435" d="m138.35 60.512c-0.25 0-0.46-0.206-0.46-0.459v-1.995c0-0.255 0.21-0.46 0.46-0.46 0.26 0 0.46 0.205 0.46 0.46v1.995c0 0.253-0.2 0.459-0.46 0.459"/>
    <path id="Fill-75" sketch:type="MSShapeGroup" fill="#232435" d="m138.35 64.281c-0.25 0-0.46-0.205-0.46-0.46v-1.994c0-0.254 0.21-0.46 0.46-0.46 0.26 0 0.46 0.206 0.46 0.46v1.994c0 0.255-0.2 0.46-0.46 0.46"/>
    <path id="Fill-76" sketch:type="MSShapeGroup" fill="#232435" d="m138.35 68.043c-0.25 0-0.46-0.205-0.46-0.459v-1.995c0-0.254 0.21-0.46 0.46-0.46 0.26 0 0.46 0.206 0.46 0.46v1.995c0 0.254-0.2 0.459-0.46 0.459"/>
    <path id="Fill-77" sketch:type="MSShapeGroup" fill="#232435" d="m138.35 71.813c-0.25 0-0.46-0.206-0.46-0.46v-1.994c0-0.254 0.21-0.46 0.46-0.46 0.26 0 0.46 0.206 0.46 0.46v1.994c0 0.254-0.2 0.46-0.46 0.46"/>
    <path id="Fill-78" sketch:type="MSShapeGroup" fill="#232435" d="m138.35 75.575c-0.25 0-0.46-0.206-0.46-0.459v-1.987c0-0.255 0.21-0.46 0.46-0.46 0.26 0 0.46 0.205 0.46 0.46v1.987c0 0.253-0.2 0.459-0.46 0.459"/>
    <path id="Fill-79" sketch:type="MSShapeGroup" fill="#232435" d="m138.35 79.344c-0.25 0-0.46-0.205-0.46-0.46v-1.994c0-0.254 0.21-0.46 0.46-0.46 0.26 0 0.46 0.206 0.46 0.46v1.994c0 0.255-0.2 0.46-0.46 0.46"/>
    <path id="Fill-80" sketch:type="MSShapeGroup" fill="#232435" d="m138.35 83.115c-0.25 0-0.46-0.206-0.46-0.46v-1.995c0-0.254 0.21-0.46 0.46-0.46 0.26 0 0.46 0.206 0.46 0.46v1.995c0 0.254-0.2 0.46-0.46 0.46"/>
    <path id="Fill-81" sketch:type="MSShapeGroup" fill="#232435" d="m138.35 86.876c-0.25 0-0.46-0.206-0.46-0.46v-1.995c0-0.253 0.21-0.459 0.46-0.459 0.26 0 0.46 0.206 0.46 0.459v1.995c0 0.254-0.2 0.46-0.46 0.46"/>
    <path id="Fill-82" sketch:type="MSShapeGroup" fill="#232435" d="m138.35 90.646c-0.25 0-0.46-0.206-0.46-0.46v-1.995c0-0.254 0.21-0.46 0.46-0.46 0.26 0 0.46 0.206 0.46 0.46v1.995c0 0.254-0.2 0.46-0.46 0.46"/>
    <path id="Fill-83" sketch:type="MSShapeGroup" fill="#FFFBDA" d="m141.4 94.119c0 2.914-2.36 5.275-5.28 5.275s-5.28-2.361-5.28-5.275c0-2.915 2.36-5.277 5.28-5.277s5.28 2.362 5.28 5.277"/>
    <path id="Fill-84" sketch:type="MSShapeGroup" fill="#232435" d="m136.12 100.22c-3.37 0-6.11-2.73-6.11-6.101s2.74-6.107 6.11-6.107c3.38 0 6.12 2.736 6.12 6.107s-2.74 6.101-6.12 6.101zm0-10.547c-2.45 0-4.45 1.995-4.45 4.446s2 4.446 4.45 4.446c2.46 0 4.45-1.995 4.45-4.446s-1.99-4.446-4.45-4.446z"/>
    <path id="Fill-85" sketch:type="MSShapeGroup" fill="#232435" d="m136.38 91.496l0.86 1.726 1.91 0.278-1.38 1.352 0.32 1.905-1.71-0.896-1.71 0.896 0.33-1.905-1.39-1.352 1.92-0.278 0.85-1.726"/>
    <path id="Fill-86" sketch:type="MSShapeGroup" fill="#232435" d="m138.09 96.862l-0.05-0.015-1.66-0.872-1.66 0.872-0.12-0.009-0.04-0.098 0.32-1.856-1.34-1.311-0.03-0.106 0.08-0.073 1.87-0.268 0.83-1.678h0.18l0.83 1.678 1.87 0.268 0.08 0.073-0.02 0.106-1.35 1.311 0.32 1.856-0.04 0.098-0.07 0.024zm-1.71-1.107l0.05 0.017 1.53 0.798-0.3-1.702 0.03-0.09 1.24-1.205-1.71-0.245-0.07-0.056-0.77-1.539-0.76 1.539-0.08 0.056-1.71 0.245 1.24 1.205 0.03 0.09-0.29 1.702 1.52-0.798 0.05-0.017z"/>
    <path id="Fill-87" sketch:type="MSShapeGroup" fill="#232435" d="m130.47 103.15c-0.67 0-1.31-0.13-1.91-0.38-2.86-1.18-4.42-4.816-4.42-10.231v-24.15c0-2.889-2.36-5.243-5.25-5.243-0.36 0-0.68 0.033-0.97 0.099-0.51 0.113-0.91-0.189-1-0.637-0.1-0.455 0.19-0.895 0.64-0.993 0.41-0.089 0.85-0.13 1.33-0.13 3.81 0 6.91 3.094 6.91 6.904v24.15c0 4.632 1.24 7.801 3.39 8.691 1.8 0.75 4.08-0.17 6.34-2.422 0.33-0.325 0.85-0.325 1.18 0 0.32 0.326 0.32 0.847 0 1.173-2.07 2.079-4.26 3.169-6.24 3.169"/>
    <path id="Fill-88" sketch:type="MSShapeGroup" fill="#232435" d="m153.49 93.37h-9.04c-0.46 0-0.83-0.367-0.83-0.831s0.37-0.83 0.83-0.83h9.04c0.47 0 0.83 0.366 0.83 0.83s-0.36 0.831-0.83 0.831"/>
    <path id="Fill-89" sketch:type="MSShapeGroup" fill="#232435" d="m154.01 119.5h-20.95c-0.22 0-0.44-0.08-0.59-0.24-0.16-0.15-0.25-0.37-0.25-0.58v-6.14l-12.05 6.86c-0.13 0.07-0.27 0.1-0.42 0.1h-27.495c-5.347 0-9.701-4.34-9.701-9.68 0-1.13 0.22-2.26 0.661-3.34 0.139-0.33 0.441-0.47 0.79-0.52 0.343 0 0.652 0.22 0.767 0.54 1.173 3.25 4.109 5.35 7.483 5.35h27.275l13.15-7.48c0.13-0.07 0.27-0.11 0.42-0.11h20.91c0.46 0 0.83 0.37 0.83 0.83v13.59c0 0.46-0.37 0.82-0.83 0.82zm-20.11-1.66h19.27v-11.92h-19.85l-13.15 7.49c-0.13 0.07-0.27 0.1-0.42 0.1h-27.495c-3.244 0-6.236-1.67-8.005-4.34-0.016 0.21-0.033 0.43-0.033 0.65 0 4.42 3.612 8.02 8.038 8.02h27.275l13.12-7.46c0.27-0.16 0.58-0.16 0.84 0 0.25 0.15 0.41 0.43 0.41 0.72v6.74z"/>
    <path id="Fill-90" sketch:type="MSShapeGroup" fill="#B89367" d="m236.78 121.8c0 1.3-1.05 2.35-2.35 2.35h-226.95c-1.2925 0-2.344-1.05-2.344-2.35 0-1.28 1.0515-2.34 2.347-2.34h226.95c1.3 0 2.35 1.06 2.35 2.34"/>
    <path id="Fill-91" sketch:type="MSShapeGroup" fill="#232435" d="m234.43 125.82h-226.95c-2.2142 0-4.0152-1.8-4.0152-4.02 0-2.21 1.801-4.01 4.0182-4.01h226.95c2.22 0 4.02 1.8 4.02 4.01 0 2.22-1.8 4.02-4.02 4.02zm-226.95-4.69c-0.3665 0-0.6758 0.31-0.6758 0.67 0 0.38 0.2928 0.68 0.6758 0.68h226.95c0.39 0 0.68-0.3 0.68-0.68 0-0.36-0.31-0.67-0.68-0.67h-226.95 0.003z"/>
    <path id="Fill-92" sketch:type="MSShapeGroup" fill="#B89367" d="m239.31 201.53c0 1.3-1.05 2.34-2.35 2.34h-226.95c-1.2959 0-2.3474-1.04-2.3474-2.34 0-1.29 1.0515-2.35 2.3474-2.35h226.95c1.3 0 2.35 1.06 2.35 2.35"/>
    <path id="Fill-93" sketch:type="MSShapeGroup" fill="#232435" d="m236.96 205.54h-226.95c-2.2167 0-4.0186-1.8-4.0186-4.01 0-2.22 1.8019-4.02 4.0186-4.02h226.95c2.22 0 4.02 1.8 4.02 4.02 0 2.21-1.8 4.01-4.02 4.01zm-226.95-4.69c-0.366 0-0.6763 0.31-0.6763 0.68 0 0.38 0.2938 0.67 0.6763 0.67h226.95c0.38 0 0.68-0.29 0.68-0.67 0-0.37-0.31-0.68-0.68-0.68h-226.95z"/>
    <path id="Fill-94" sketch:type="MSShapeGroup" fill="#EB8B2D" d="m114.33 24.854c-0.32 0-0.64-0.073-0.94-0.228l-8.07-4.095c-1.02-0.521-1.43-1.775-0.91-2.801s1.79-1.425 2.8-0.912l8.07 4.096c1.02 0.521 1.43 1.775 0.91 2.801-0.37 0.724-1.1 1.139-1.86 1.139"/>
    <path id="Fill-95" sketch:type="MSShapeGroup" fill="#EB8B2D" d="m127.5 13.113c-0.84 0-1.64-0.512-1.95-1.343l-3.21-8.4437c-0.4-1.0741 0.13-2.2797 1.21-2.6862 1.08-0.44789 2.29 0.12964 2.69 1.2047l3.2 8.4432c0.41 1.074-0.13 2.28-1.2 2.687-0.25 0.098-0.5 0.138-0.74 0.138"/>
    <path id="Fill-96" sketch:type="MSShapeGroup" fill="#EB8B2D" d="m145.15 13.227c-0.25 0-0.51-0.049-0.76-0.146-1.07-0.424-1.6-1.629-1.18-2.704l3.31-8.4016c0.42-1.0751 1.63-1.5965 2.71-1.1726 1.07 0.4231 1.6 1.6287 1.17 2.7029l-3.31 8.4023c-0.31 0.823-1.11 1.319-1.94 1.319"/>
    <path id="Fill-97" sketch:type="MSShapeGroup" fill="#EB8B2D" d="m158.19 25.139c-0.77 0-1.5-0.423-1.87-1.156-0.51-1.034-0.1-2.279 0.94-2.793l8.09-4.022c1.03-0.497 2.28-0.106 2.8 0.936 0.51 1.034 0.1 2.28-0.94 2.793l-8.09 4.023c-0.3 0.146-0.62 0.219-0.93 0.219"/>
   </g>
  </g>
 </g>
</svg>
