<?xml version="1.0" encoding="UTF-8" standalone="no"?>
<svg xmlns:sketch="http://www.bohemiancoding.com/sketch/ns" xmlns="http://www.w3.org/2000/svg" height="130px" width="222px" version="1.1" xmlns:xlink="http://www.w3.org/1999/xlink" viewBox="0 0 222 130"><!-- Generator: Sketch 3.4 (15575) - http://www.bohemiancoding.com/sketch -->
 <title>4</title>
 <desc>Created with Sketch.</desc>
 <defs>
  <path id="path-1" d="m0 130h221.32v-129.46l-221.32 0.001v129.46z"/>
 </defs>
 <g id="Page-1" fill-rule="evenodd" sketch:type="MSPage" fill="none">
  <g id="4" sketch:type="MSLayerGroup">
   <g id="Group-3">
    <mask id="mask-2" sketch:name="Clip 2" fill="white">
     <use xlink:href="#path-1"/>
    </mask>
    <path id="Fill-1" sketch:type="MSShapeGroup" fill="#FBF9D6" mask="url(#mask-2)" d="m198.29 104.11c0.17 0 0.16 0.01 0 0zm-2.41-1.09c0.23 0.15 0.47 0.27 0.68 0.43-0.21-0.12-0.44-0.26-0.68-0.43zm17.55-30.651c-16.87-11.814-41.54 2.707-59.26 12.895 1.14-1.946 2.26-3.901 3.33-5.89 8.91-16.587 6.63-37.421-15.86-39.02-24.12-1.696-48.093 23.358-63.02 38.414-3.39 3.425-10.879 11.373-17.435 13.051 1.376-2.223 3.148-4.377 4.463-6.236 10.551-14.927 25.434-26.697 37.272-40.576 13.21-15.463 14.44-35.354-7.834-43.432-11.424-4.142-31.003 5.189-40.923 9.816-15.999 7.463-30.553 17.313-45.723 26.282-19.579 11.588-1.547 41.943 18.084 30.337 5.448-3.226 10.827-6.564 16.215-9.858-1.055 1.262-2.119 2.516-3.148 3.813-10.801 13.656-20.582 30.243-12.842 47.725 8.483 19.19 33.987 20.85 50.626 13.08 11.631-5.45 20.677-14.48 29.805-23.298-2.98 13.078 1.8 25.168 17.86 29.538 12.74 3.5 26.41-3.02 37.66-8.13 7.56-3.42 14.64-7.9 21.99-11.69 2.99-1.59 6.07-2.9 9.29-3.98 1.86-0.71 3.05-0.97 3.72-1.05 17.96 9.94 33.6-19.277 15.73-31.791z"/>
   </g>
   <path id="Fill-4" sketch:type="MSShapeGroup" fill="#232535" d="m54.594 104.95c-0.395 0-0.789-0.03-1.171-0.07-5.124-0.76-8.135-6.078-11.326-11.712-2.669-4.708-5.425-9.582-9.345-11.72-0.976-0.529-1.34-1.761-0.806-2.736 0.532-0.973 1.76-1.349 2.737-0.807 4.932 2.698 8.114 8.311 10.931 13.275 2.685 4.743 5.228 9.24 8.397 9.7 2.119 0.34 4.817-1.114 8.077-4.217 0.776-0.775 2.075-0.747 2.845 0.071 0.768 0.807 0.739 2.077-0.071 2.846-3.781 3.61-7.159 5.37-10.268 5.37"/>
   <path id="Fill-5" sketch:type="MSShapeGroup" fill="#B89267" d="m77.814 95.808c0 6.182-5.003 11.192-11.187 11.192-6.183 0-11.187-5.01-11.187-11.192s5.004-11.188 11.187-11.188c6.184 0 11.187 5.006 11.187 11.188"/>
   <path id="Fill-6" sketch:type="MSShapeGroup" fill="#232535" d="m66.627 86.64c-5.053 0-9.167 4.114-9.167 9.168 0 5.052 4.114 9.162 9.167 9.162 5.05 0 9.167-4.11 9.167-9.162 0-5.054-4.117-9.168-9.167-9.168zm0 22.37c-7.277 0-13.204-5.93-13.204-13.202 0-7.276 5.927-13.205 13.204-13.205 7.276 0 13.204 5.929 13.204 13.205 0 7.272-5.928 13.202-13.204 13.202z"/>
   <path id="Fill-7" sketch:type="MSShapeGroup" fill="#B89267" d="m73.746 37.493c-19.507 11.894-24.243 39.721-11.017 58.768 13.428 19.349 39.971 24.149 59.301 10.739l50.6-54.677-29.47-42.461c-7.52 2.754-22.31 8.674-23.84 9.275-13.2 5.13-26.381 10.3-39.588 15.412-2.125 0.815-4.126 1.81-5.986 2.944"/>
   <path id="Fill-8" sketch:type="MSShapeGroup" fill="#232535" d="m142.39 12.294c-6.65 2.479-17.11 6.645-20.96 8.183l-16.93 6.597c-8.007 3.12-16.022 6.252-24.037 9.357-1.962 0.747-3.872 1.692-5.673 2.784-8.518 5.199-14.426 13.796-16.621 24.205-2.334 11.077-0.071 22.629 6.213 31.689 7.591 10.941 20.077 17.471 33.401 17.471 8.277 0 16.267-2.5 23.097-7.24l49.17-53.194-27.66-39.852zm-44.607 104.32c-14.642 0-28.37-7.17-36.71-19.197-6.924-9.965-9.414-22.66-6.855-34.831 2.432-11.51 8.991-21.031 18.475-26.813 2.008-1.22 4.136-2.264 6.322-3.101 8.006-3.102 16.012-6.223 24.015-9.345l16.9-6.598c4.17-1.656 16.05-6.383 22.54-8.753 0.85-0.346 1.82-0.023 2.34 0.739l29.47 42.459c0.55 0.78 0.48 1.833-0.17 2.523l-50.61 54.667c-7.84 5.5-16.61 8.25-25.717 8.25z"/>
   <path id="Fill-9" sketch:type="MSShapeGroup" fill="#232535" d="m125.26 90.825c10.96-8.607 21.19-18.275 30.52-28.674 0.27-0.308 0.73-0.336 1.04-0.071 0.3 0.268 0.33 0.73 0.07 1.036-9.28 10.604-19.4 20.434-30.39 29.304-0.44 0.355-1.08 0.287-1.42-0.147-0.35-0.435-0.29-1.075 0.14-1.42 0-0.01 0.04-0.028 0.04-0.028"/>
   <path id="Fill-10" sketch:type="MSShapeGroup" fill="#9D764E" d="m100.81 26.345c-3.833 1.496-7.664 2.986-11.495 4.471 5.869 6.497 25.525 29.593 43.285 64.755l8.23-8.902c-6.68-12.949-21.25-38.975-40.02-60.324"/>
   <path id="Fill-11" sketch:type="MSShapeGroup" fill="#232535" d="m91.461 31.328c6.796 7.711 24.819 29.592 41.449 62.055l6.4-6.92c-6.96-13.401-20.89-37.99-38.87-58.622l-8.979 3.487zm41.139 65.506c-0.06 0-0.12 0-0.18-0.014-0.4-0.059-0.75-0.315-0.94-0.679-17.82-35.282-37.496-58.273-43.101-64.478-0.278-0.303-0.385-0.739-0.296-1.142 0.099-0.404 0.385-0.731 0.779-0.877l11.478-4.472c0.49-0.198 1.04-0.066 1.41 0.337 18.8 21.377 33.25 47.127 40.21 60.581 0.23 0.47 0.16 1.043-0.2 1.438l-8.23 8.898c-0.24 0.258-0.58 0.408-0.93 0.408z"/>
   <path id="Fill-12" sketch:type="MSShapeGroup" fill="#fff" d="m60.776 75.028h-0.067c-0.699-0.036-1.232-0.636-1.192-1.326 0.779-13.935 7.898-26.304 19.024-33.088 1.97-1.2 4.059-2.224 6.195-3.04l2.845-1.107c0.66-0.256 1.38 0.069 1.626 0.721 0.256 0.649-0.071 1.379-0.72 1.627l-2.845 1.101c-1.999 0.765-3.948 1.732-5.78 2.845-10.43 6.362-17.096 17.98-17.823 31.075-0.041 0.672-0.592 1.192-1.263 1.192"/>
   <path id="Fill-13" sketch:type="MSShapeGroup" fill="#fff" d="m96.622 35.56c-0.502 0-0.976-0.302-1.172-0.796-0.257-0.649 0.057-1.377 0.708-1.635l5.212-2.025c0.65-0.247 1.38 0.059 1.63 0.707 0.26 0.651-0.06 1.38-0.71 1.635l-5.206 2.027c-0.157 0.061-0.305 0.087-0.462 0.087"/>
   <path id="Fill-14" sketch:type="MSShapeGroup" fill="#fff" d="m107.47 31.337c-0.5 0-0.97-0.305-1.17-0.797-0.26-0.65 0.07-1.378 0.71-1.636l18.29-7.136c2.03-0.808 6.48-2.583 11.21-4.434 0.66-0.256 1.38 0.061 1.64 0.71 0.25 0.649-0.07 1.38-0.71 1.634-4.73 1.851-9.19 3.624-11.2 4.433l-18.3 7.14c-0.16 0.059-0.31 0.086-0.47 0.086"/>
   <path id="Fill-15" sketch:type="MSShapeGroup" fill="#CDCDC9" d="m134.69 102.13c0-14.615-11.85-26.468-26.47-26.468-14.631 0-26.476 11.843-26.476 26.468v23.3h52.946v-23.3"/>
   <path id="Fill-16" sketch:type="MSShapeGroup" fill="#232535" d="m83.76 123.41h48.91v-21.28c0-13.483-10.97-24.45-24.45-24.45-13.489 0-24.46 10.967-24.46 24.45v21.28zm50.93 4.04h-52.946c-1.116 0-2.02-0.91-2.02-2.02v-23.3c0-15.707 12.781-28.487 28.496-28.487 15.7 0 28.49 12.78 28.49 28.487v23.3c0 1.11-0.91 2.02-2.02 2.02z"/>
   <path id="Fill-17" sketch:type="MSShapeGroup" fill="#fff" d="m86.627 120.7c-0.699 0-1.26-0.56-1.26-1.26v-15.26c0-7.839 3.338-15.343 9.146-20.594 0.532-0.462 1.33-0.422 1.782 0.09 0.463 0.522 0.426 1.321-0.089 1.783-5.286 4.775-8.32 11.6-8.32 18.721v15.26c0 0.7-0.56 1.26-1.259 1.26"/>
   <path id="Fill-18" sketch:type="MSShapeGroup" fill="#F2F2F1" d="m103.81 108.19l-4.432-7.65 4.432-7.635h8.82l4.41 7.635-4.41 7.65h-8.82"/>
   <path id="Fill-19" sketch:type="MSShapeGroup" fill="#232535" d="m104.97 106.17h6.5l3.25-5.63-3.25-5.618h-6.5l-3.26 5.618 3.26 5.63zm7.66 4.03h-8.82c-0.72 0-1.39-0.38-1.74-1l-4.434-7.64c-0.364-0.63-0.364-1.4 0-2.03l4.434-7.643c0.35-0.618 1.02-1.004 1.74-1.004h8.82c0.72 0 1.39 0.386 1.74 1.013l4.42 7.644c0.36 0.62 0.36 1.39 0 2.01l-4.42 7.64c-0.35 0.63-1.02 1.01-1.74 1.01z"/>
   <path id="Fill-20" sketch:type="MSShapeGroup" fill="#F2F2F1" d="m69.778 125.43h76.882"/>
   <path id="Fill-21" sketch:type="MSShapeGroup" fill="#232535" d="m146.66 127.45h-76.882c-1.113 0-2.018-0.91-2.018-2.02s0.905-2.02 2.018-2.02h76.882c1.12 0 2.02 0.91 2.02 2.02s-0.9 2.02-2.02 2.02"/>
   <path id="Fill-22" sketch:type="MSShapeGroup" fill="#E05430" d="m26.765 83.203c-3.251-4.245-1.575-12.131-5.988-13.865 0 0 8.508-3.307 10.715 3.781 0 0 0.315-5.829 3.782-5.829 0 0-0.013 2.343 2.835 5.359 8.191 8.665-5.199 18.589-11.344 10.554"/>
   <path id="Fill-23" sketch:type="MSShapeGroup" fill="#232535" d="m24.845 70.59c0.828 1.624 1.201 3.583 1.545 5.414 0.416 2.218 0.847 4.499 1.98 5.967 2.679 3.527 8.302 2.071 9.897-1.604 0.887-2.078 0.336-4.265-1.626-6.333-1.219-1.299-2.008-2.518-2.51-3.553-0.376 0.895-0.592 2.087-0.621 2.746-0.059 0.978-0.798 1.773-1.771 1.89-0.936 0.148-1.882-0.471-2.177-1.397-0.413-1.348-1.34-3.14-4.499-3.14-0.08 0-0.148 0.01-0.218 0.01zm7.67 17.595c-2.886 0-5.502-1.338-7.354-3.763-1.706-2.221-2.257-5.12-2.74-7.668-0.579-3.093-1.031-5.003-2.38-5.535-0.77-0.304-1.282-1.053-1.282-1.881 0-0.839 0.512-1.577 1.291-1.881 0.086-0.039 2.362-0.906 5.013-0.906 2.263 0 4.164 0.623 5.632 1.793 0.884-1.712 2.335-3.073 4.579-3.073 0.53 0 1.053 0.218 1.426 0.591 0.385 0.386 0.591 0.895 0.591 1.437 0 0.01 0.12 1.675 2.285 3.961 3.051 3.237 3.929 7.138 2.392 10.703-1.573 3.662-5.463 6.222-9.453 6.222z"/>
   <path id="Fill-24" sketch:type="MSShapeGroup" fill="#232535" d="m11.247 79.422c-0.148 0.018-0.327 0.018-0.475-0.019l-5.08-1.309c-0.651-0.169-1.045-0.83-0.875-1.466 0.166-0.664 0.856-1.058 1.465-0.88l5.082 1.3c0.65 0.166 1.043 0.829 0.877 1.478-0.129 0.481-0.524 0.826-0.994 0.896"/>
   <path id="Fill-25" sketch:type="MSShapeGroup" fill="#232535" d="m17.796 64.217c-0.296 0.049-0.591-0.019-0.859-0.188l-4.382-2.894c-0.552-0.372-0.708-1.132-0.332-1.685 0.353-0.552 1.12-0.689 1.672-0.344l4.381 2.906c0.552 0.374 0.709 1.121 0.336 1.673-0.188 0.294-0.502 0.482-0.816 0.532"/>
   <path id="Fill-26" sketch:type="MSShapeGroup" fill="#232535" d="m29.71 55.759c-0.022 0-0.04 0.01-0.059 0.01-0.671 0.061-1.263-0.414-1.329-1.082l-0.544-5.209c-0.066-0.672 0.297-1.241 1.076-1.341 0.667-0.058 1.259 0.412 1.339 1.085l0.542 5.219c0.058 0.638-0.394 1.22-1.025 1.318"/>
   <path id="Fill-27" sketch:type="MSShapeGroup" fill="#232535" d="m44.402 59.697c-0.297 0.05-0.629-0.019-0.897-0.217-0.542-0.393-0.66-1.149-0.265-1.692l3.092-4.235c0.394-0.542 1.151-0.659 1.694-0.267 0.532 0.393 0.649 1.155 0.255 1.694l-3.083 4.237c-0.197 0.274-0.492 0.431-0.796 0.48"/>
  </g>
 </g>
</svg>
