<?xml version="1.0" encoding="UTF-8" standalone="no"?>
<svg width="28px" height="32px" viewBox="0 0 28 32" version="1.1" xmlns="http://www.w3.org/2000/svg" xmlns:xlink="http://www.w3.org/1999/xlink">
    <!-- Generator: Sketch 3.8.2 (29753) - http://www.bohemiancoding.com/sketch -->
    <title></title>
    <desc>Created with Sketch.</desc>
    <defs></defs>
    <g id="Page-1" stroke="none" stroke-width="1" fill="none" fill-rule="evenodd">
        <g id="Artboard-1-Copy" transform="translate(-654.000000, -793.000000)" stroke="#F0F0F5" fill="#6450F0">
            <g id="Group-6" transform="translate(244.000000, 599.000000)">
                <g id="Group-5" transform="translate(408.000000, 15.000000)">
                    <g id="Group-12" transform="translate(3.000000, 180.000000)">
                        <g id="Group-4">
                            <path d="M8.57142857,6.71428571 L8.57142857,4.57142857 L10.7142857,4.57142857 L10.7142857,6.71428571 L8.57142857,6.71428571 Z M10.7142857,8.85714286 L10.7142857,6.71428571 L12.8571429,6.71428571 L12.8571429,8.85714286 L10.7142857,8.85714286 Z M8.57142857,11 L8.57142857,8.85714286 L10.7142857,8.85714286 L10.7142857,11 L8.57142857,11 Z M10.7142857,13.1428571 L10.7142857,11 L12.8571429,11 L12.8571429,13.1428571 L10.7142857,13.1428571 Z M24.5758929,6.64732143 C24.8883944,6.95982299 25.1562489,7.38392589 25.3794643,7.91964286 C25.6026797,8.45535982 25.7142857,8.94642634 25.7142857,9.39285714 L25.7142857,28.6785714 C25.7142857,29.1250022 25.5580373,29.5044627 25.2455357,29.8169643 C24.9330342,30.1294658 24.5535737,30.2857143 24.1071429,30.2857143 L1.60714286,30.2857143 C1.16071205,30.2857143 0.781251563,30.1294658 0.46875,29.8169643 C0.156248438,29.5044627 0,29.1250022 0,28.6785714 L0,1.89285714 C0,1.44642634 0.156248438,1.06696585 0.46875,0.754464286 C0.781251563,0.441962723 1.16071205,0.285714286 1.60714286,0.285714286 L16.6071429,0.285714286 C17.0535737,0.285714286 17.5446402,0.397320312 18.0803571,0.620535714 C18.6160741,0.843751116 19.040177,1.11160558 19.3526786,1.42410714 L24.5758929,6.64732143 Z M17.1428571,2.5625 L17.1428571,8.85714286 L23.4375,8.85714286 C23.3258923,8.53348052 23.2031257,8.30468817 23.0691964,8.17075893 L17.8292411,2.93080357 C17.6953118,2.79687433 17.4665195,2.6741077 17.1428571,2.5625 L17.1428571,2.5625 Z M23.5714286,28.1428571 L23.5714286,11 L16.6071429,11 C16.1607121,11 15.7812516,10.8437516 15.46875,10.53125 C15.1562484,10.2187484 15,9.83928795 15,9.39285714 L15,2.42857143 L12.8571429,2.42857143 L12.8571429,4.57142857 L10.7142857,4.57142857 L10.7142857,2.42857143 L2.14285714,2.42857143 L2.14285714,28.1428571 L23.5714286,28.1428571 Z M13.0747768,16.0725446 L14.8660714,21.9151786 C14.9553576,22.2165194 15,22.506695 15,22.7857143 C15,23.7120582 14.5954282,24.4793496 13.7862723,25.0876116 C12.9771165,25.6958736 11.9531312,26 10.7142857,26 C9.47544023,26 8.45145494,25.6958736 7.64229911,25.0876116 C6.83314328,24.4793496 6.42857143,23.7120582 6.42857143,22.7857143 C6.42857143,22.506695 6.47321384,22.2165194 6.5625,21.9151786 C6.79687617,21.2120501 7.46651233,19.0022507 8.57142857,15.2857143 L8.57142857,13.1428571 L10.7142857,13.1428571 L10.7142857,15.2857143 L12.0368304,15.2857143 C12.2823673,15.2857143 12.4999991,15.3582582 12.6897321,15.5033482 C12.8794652,15.6484382 13.0078122,15.8381685 13.0747768,16.0725446 L13.0747768,16.0725446 Z M10.7142857,23.8571429 C11.3058065,23.8571429 11.8108238,23.7511171 12.2293527,23.5390625 C12.6478816,23.3270079 12.8571429,23.0758943 12.8571429,22.7857143 C12.8571429,22.4955343 12.6478816,22.2444207 12.2293527,22.0323661 C11.8108238,21.8203114 11.3058065,21.7142857 10.7142857,21.7142857 C10.1227649,21.7142857 9.61774763,21.8203114 9.19921875,22.0323661 C8.78068987,22.2444207 8.57142857,22.4955343 8.57142857,22.7857143 C8.57142857,23.0758943 8.78068987,23.3270079 9.19921875,23.5390625 C9.61774763,23.7511171 10.1227649,23.8571429 10.7142857,23.8571429 L10.7142857,23.8571429 Z" id=""></path>
                        </g>
                    </g>
                </g>
            </g>
        </g>
    </g>
</svg>