<?xml version="1.0" encoding="UTF-8" standalone="no"?>
<svg width="88px" height="100px" viewBox="0 0 88 100" version="1.1" xmlns="http://www.w3.org/2000/svg" xmlns:xlink="http://www.w3.org/1999/xlink" xmlns:sketch="http://www.bohemiancoding.com/sketch/ns">
    <!-- Generator: Sketch 3.4 (15588) - http://www.bohemiancoding.com/sketch -->
    <title>Page 1</title>
    <desc>Created with Sketch.</desc>
    <defs>
        <path id="path-1" d="M0,4.8425 L87.685,4.8425 L87.685,104 L0,104 L0,4.8425 Z"></path>
        <path id="path-3" d="M0,4.8425 L87.685,4.8425 L87.685,104 L0,104"></path>
    </defs>
    <g id="Page-1" stroke="none" stroke-width="1" fill="none" fill-rule="evenodd" sketch:type="MSPage">
        <g sketch:type="MSLayerGroup" transform="translate(0.000000, -4.000000)">
            <path d="M71.64105,69.2809 C71.64105,87.7929 56.63255,102.8014 38.12055,102.8014 C19.60855,102.8014 4.60655,87.7929 4.60655,69.2809 C4.60655,50.7689 19.60855,35.7604 38.12055,35.7604 C56.63255,35.7604 71.64105,50.7689 71.64105,69.2809" id="Fill-1" fill="#FFF0DD" sketch:type="MSShapeGroup"></path>
            <path d="M84.0203,79.3286 L82.4083,79.1206 C82.0703,77.7426 81.5503,76.4231 80.8548,75.1881 L81.9208,73.8816 C82.7723,72.8351 82.7008,71.3076 81.7518,70.3456 L79.8733,68.4151 C78.9308,67.4401 77.4098,67.3361 76.3373,68.1681 L75.0113,69.1886 C73.7633,68.4541 72.4113,67.8886 71.0138,67.5116 L70.8383,65.8021 C70.6953,64.4501 69.5838,63.4296 68.2253,63.4166 L65.5148,63.3841 C64.1563,63.3711 63.0123,64.3656 62.8433,65.7111 L62.6093,67.5571 C61.3093,67.9211 60.0613,68.4281 58.8913,69.1171 L57.4418,67.9341 C56.3953,67.0826 54.8613,67.1476 53.8993,68.0966 L51.9688,69.9816 C51.0003,70.9241 50.8963,72.4451 51.7218,73.5111 L52.9438,75.0971 C52.3653,76.1176 51.9233,77.1966 51.5918,78.3146 C48.0233,77.0926 44.0258,76.4491 39.6513,76.4491 L39.4368,76.4491 L39.4368,68.7336 C39.4368,66.3026 37.4543,64.3201 35.0233,64.3201 L34.1133,64.3201 C31.6888,64.3201 29.6998,66.3026 29.6998,68.7336 L29.6998,76.5141 C13.9633,76.8586 1.3403,84.8276 1.3403,102.6636 L67.4128,102.6636 L67.4128,102.6571 L67.9003,102.6636 C69.2588,102.6766 70.4028,101.6821 70.5783,100.3366 L70.8188,98.4841 C72.1448,98.1526 73.4058,97.6521 74.5953,96.9891 L75.9733,98.1136 C77.0263,98.9651 78.5538,98.8936 79.5158,97.9511 L81.4463,96.0661 C82.4148,95.1236 82.5188,93.6026 81.6933,92.5301 L80.6338,91.1521 C81.3163,90.0016 81.8558,88.7666 82.2328,87.4861 L83.9293,87.3106 C85.2813,87.1676 86.3018,86.0561 86.3148,84.6976 L86.3473,82.0001 C86.3473,79.7901 85.3723,79.5041 84.0203,79.3286" id="Fill-3" fill="#A8DEF3" sketch:type="MSShapeGroup"></path>
            <g id="Group-7">
                <mask id="mask-2" sketch:name="Clip 6" fill="white">
                    <use xlink:href="#path-1"></use>
                </mask>
                <g id="Clip-6"></g>
                <path d="M2.6923,101.3272 L67.9003,101.3272 L67.9133,101.3272 C68.5958,101.3272 69.1613,100.8332 69.2523,100.1702 L69.6098,97.4077 L70.4938,97.1867 C71.7028,96.8877 72.8598,96.4262 73.9583,95.8282 L74.7448,95.3862 L76.8183,97.0827 C77.3448,97.4987 78.0923,97.4597 78.5798,96.9982 L80.5168,95.1067 C80.9978,94.6387 81.0498,93.8847 80.6403,93.3517 L79.0218,91.2522 L79.4833,90.4722 C80.1138,89.4127 80.6143,88.2752 80.9588,87.1052 L81.2058,86.2472 L83.7928,85.9872 C84.4688,85.9092 84.9693,85.3632 84.9823,84.6872 L85.0148,81.9832 C85.0148,80.8002 84.9238,80.7872 83.8513,80.6507 L83.8448,80.6507 L81.3358,80.3257 L81.1148,79.4352 C80.8093,78.1807 80.3283,76.9717 79.6913,75.8407 L79.2493,75.0477 L80.8873,73.0392 C81.3098,72.5192 81.2773,71.7587 80.8028,71.2842 L78.9113,69.3472 C78.4433,68.8597 77.6763,68.8077 77.1498,69.2237 L75.1153,70.7967 L74.3353,70.3417 C73.1913,69.6657 71.9563,69.1522 70.6628,68.8012 L69.7723,68.5607 L69.5123,65.9282 C69.4408,65.2652 68.8818,64.7582 68.2123,64.7517 L65.5018,64.7192 L65.4888,64.7192 C64.8193,64.7192 64.2473,65.2132 64.1628,65.8762 L63.8183,68.5997 L62.9668,68.8467 C61.7448,69.1847 60.6073,69.6592 59.5608,70.2702 L58.7678,70.7317 L56.5968,68.9702 C56.0898,68.5542 55.3098,68.5802 54.8353,69.0482 L52.9048,70.9397 C52.4173,71.4077 52.3653,72.1682 52.7748,72.7012 L54.5493,74.9827 L54.1073,75.7562 C53.6133,76.6337 53.2038,77.5957 52.8658,78.7007 L52.4628,80.0267 L51.1563,79.5782 C47.6788,78.3887 43.8113,77.7842 39.6513,77.7842 L38.3188,77.7842 L38.1043,76.4452 L38.1043,68.7362 C38.1043,67.0332 36.7198,65.6552 35.0233,65.6552 L34.1133,65.6552 C32.4168,65.6552 31.0388,67.0332 31.0388,68.7362 L31.0388,77.8232 L29.7258,77.8492 C21.7568,78.0247 3.4528,80.6897 2.6923,101.3272 L2.6923,101.3272 Z M0.0013,103.9987 L0.0013,102.6662 C0.0013,86.2602 10.5703,76.0747 28.3608,75.2232 L28.3608,68.7362 C28.3608,65.5642 30.9478,62.9772 34.1133,62.9772 L35.0233,62.9772 C38.1953,62.9772 40.7758,65.5642 40.7758,68.7362 L40.7758,75.1322 C44.3898,75.2297 47.7048,75.7367 50.7468,76.6467 C50.9353,76.1527 51.1368,75.6847 51.3643,75.2297 L50.6623,74.3327 C49.4208,72.7207 49.5833,70.4392 51.0393,69.0222 L52.9633,67.1437 C54.4128,65.7202 56.6943,65.6032 58.2803,66.8967 L59.0408,67.5142 C59.7883,67.1307 60.5748,66.8057 61.3938,66.5327 L61.5173,65.5447 C61.7643,63.5427 63.4738,62.0477 65.4888,62.0477 L65.5278,62.0477 L68.2383,62.0802 C70.2663,62.0997 71.9563,63.6402 72.1708,65.6617 L72.2488,66.4872 C73.1588,66.7862 74.0428,67.1567 74.8878,67.5987 L75.5183,67.1112 C77.1368,65.8632 79.4248,66.0322 80.8288,67.4817 L82.7138,69.4122 C84.1308,70.8552 84.2413,73.1367 82.9608,74.7227 L82.4473,75.3467 C82.8568,76.1722 83.1948,77.0302 83.4613,77.9077 L84.1893,78.0052 C85.3268,78.1482 87.6863,78.4537 87.6863,82.0027 L87.6538,84.7132 C87.6343,86.7347 86.0938,88.4247 84.0723,88.6392 L83.2403,88.7237 C82.9608,89.5167 82.6163,90.2902 82.2263,91.0377 L82.7528,91.7202 C83.9943,93.3257 83.8318,95.6072 82.3758,97.0242 L80.4453,98.9027 C79.0023,100.3327 76.7013,100.4302 75.1348,99.1497 L74.4393,98.5842 C73.6528,98.9612 72.8468,99.2797 72.0278,99.5332 L71.8978,100.5082 C71.6508,102.5037 69.9413,103.9987 67.9263,103.9987 L67.8873,103.9987 L67.3933,103.9922 L0.0013,103.9987 Z" id="Fill-5" fill="#221F20" sketch:type="MSShapeGroup" mask="url(#mask-2)"></path>
            </g>
            <path d="M69.3927,85.55105 C67.9757,86.94205 65.6877,86.90955 64.3032,85.48605 C62.9122,84.06905 62.9447,81.78755 64.3617,80.39655 C65.7852,79.00555 68.0667,79.03805 69.4577,80.46155 C70.8422,81.87855 70.8097,84.16005 69.3927,85.55105 M71.7717,87.98855 C69.0092,90.69255 64.5632,90.63405 61.8592,87.87155 C59.1552,85.10905 59.2202,80.66305 61.9827,77.95905 C64.7452,75.25505 69.1912,75.31355 71.8952,78.07605 C74.5992,80.84505 74.5407,85.28455 71.7717,87.98855 M84.0177,79.33055 L82.4057,79.11605 C82.0677,77.73805 81.5477,76.41855 80.8587,75.18355 L81.9182,73.88355 C82.7697,72.83705 82.7047,71.30955 81.7557,70.34105 L79.8707,68.41705 C78.9282,67.44205 77.4072,67.33805 76.3412,68.16355 L75.0152,69.19055 C73.7607,68.44955 72.4152,67.89055 71.0112,67.51355 L70.8422,65.80405 C70.6992,64.45205 69.5812,63.42505 68.2292,63.41205 L65.5122,63.38605 C64.1602,63.36655 63.0162,64.36105 62.8407,65.71305 L62.6067,67.55905 C61.3132,67.91655 60.0587,68.43005 58.8952,69.11255 L57.4392,67.93605 C56.3927,67.08455 54.8652,67.14955 53.8967,68.09855 L51.9727,69.98355 C50.9977,70.91955 50.8937,72.44705 51.7257,73.51305 L52.9412,75.09255 C52.3237,76.17805 51.8427,77.32205 51.5047,78.52455 L49.4832,78.73255 C48.1377,78.87555 47.1107,79.99355 47.0977,81.34555 L47.0717,84.04305 C47.0522,85.40155 48.0467,86.54555 49.3987,86.71455 L51.3812,86.97455 C51.7062,88.22905 52.1742,89.43805 52.7917,90.56905 L51.4982,92.16155 C50.6467,93.20805 50.7117,94.74205 51.6607,95.70405 L53.5457,97.63455 C54.4882,98.60305 56.0092,98.70705 57.0817,97.88155 L58.6222,96.68555 C59.8052,97.40055 61.0662,97.94655 62.3857,98.33655 L62.5937,100.24755 C62.7367,101.59305 63.8482,102.62005 65.2067,102.63305 L67.9042,102.66555 C69.2562,102.67855 70.4002,101.68405 70.5757,100.33205 L70.8162,98.48605 C72.1422,98.14805 73.4097,97.65405 74.5992,96.99105 L75.9772,98.11555 C77.0237,98.96705 78.5512,98.89555 79.5197,97.94655 L81.4437,96.06155 C82.4187,95.12555 82.5227,93.60455 81.6907,92.53205 L80.6312,91.15405 C81.3137,90.00355 81.8597,88.76855 82.2367,87.48805 L83.9332,87.31255 C85.2787,87.16955 86.3057,86.05155 86.3187,84.69955 L86.3447,82.00205 C86.3642,80.64355 85.3697,79.49955 84.0177,79.33055" id="Fill-8" fill="#FBAF3F" sketch:type="MSShapeGroup"></path>
            <path d="M66.87005,80.21 C66.14855,80.21 65.45955,80.4895 64.94605,80.9965 C63.86055,82.0625 63.83455,83.8175 64.90055,84.9095 C65.97305,86.0015 67.71505,86.021 68.81355,84.955 C69.34005,84.435 69.63255,83.746 69.64555,82.9985 C69.65205,82.264 69.37255,81.5685 68.85905,81.0485 C68.33905,80.5155 67.64355,80.2165 66.90255,80.21 L66.87005,80.21 Z M66.88305,87.4055 C65.72605,87.4055 64.57555,86.957 63.71105,86.073 C62.00155,84.331 62.03405,81.5165 63.77605,79.8005 C64.60805,78.988 65.70005,78.5395 66.87005,78.5395 L66.92205,78.5395 C68.11155,78.5525 69.21655,79.027 70.04855,79.8785 C70.87405,80.717 71.32255,81.835 71.31605,83.018 C71.30305,84.2075 70.82855,85.319 69.97055,86.151 C69.11905,86.9895 67.99455,87.4055 66.88305,87.4055 L66.88305,87.4055 Z M66.87005,76.804 C65.31655,76.804 63.76305,77.3825 62.56055,78.5525 C61.39055,79.7095 60.72105,81.25 60.70155,82.901 C60.68205,84.552 61.31255,86.112 62.45655,87.2885 C63.61355,88.465 65.16055,89.128 66.81155,89.1475 L66.88305,89.1475 C68.50805,89.1475 70.02905,88.5235 71.18605,87.3925 L71.19255,87.3925 C72.36255,86.242 73.03205,84.695 73.05155,83.044 C73.07105,81.3995 72.44705,79.8395 71.30305,78.663 C70.08755,77.4215 68.48205,76.804 66.87005,76.804 L66.87005,76.804 Z M66.88305,90.818 L66.79205,90.818 C64.69255,90.792 62.72955,89.9535 61.26705,88.452 C59.80455,86.957 59.01155,84.981 59.03755,82.8815 C59.06355,80.7885 59.90205,78.8255 61.39705,77.363 C64.50405,74.334 69.47655,74.4055 72.48605,77.493 C73.95505,78.988 74.74155,80.9705 74.71555,83.07 C74.68955,85.163 73.85105,87.126 72.34955,88.5885 C70.88705,90.025 68.94355,90.818 66.88305,90.818 L66.88305,90.818 Z M58.56305,95.6735 L59.05705,95.966 C60.16205,96.642 61.36455,97.1685 62.62555,97.539 L63.15855,97.695 L63.41855,100.1585 C63.52255,101.0815 64.29605,101.79 65.21905,101.803 L67.90355,101.829 L67.92305,101.829 C68.85255,101.829 69.62605,101.1465 69.74305,100.23 L70.05505,97.812 L70.61405,97.669 C71.86205,97.3635 73.07105,96.889 74.19555,96.265 L74.68955,95.9855 L76.50305,97.4675 C77.23755,98.046 78.27105,98.007 78.92755,97.3505 L80.86455,95.4655 C81.52755,94.822 81.60555,93.782 81.03355,93.0475 L79.62955,91.2145 L79.91555,90.727 C80.56555,89.6285 81.07255,88.4585 81.43005,87.2495 L81.59905,86.71 L83.84805,86.4825 C84.77105,86.385 85.47305,85.6115 85.47955,84.6885 L85.51205,81.991 C85.51855,81.0615 84.83605,80.275 83.91955,80.158 L83.91305,80.158 L81.74205,79.872 L81.60555,79.3195 C81.28055,78.0195 80.78655,76.765 80.13005,75.595 L79.85705,75.101 L81.27405,73.3525 C81.85905,72.6375 81.81355,71.591 81.15705,70.928 L79.27205,68.9975 C78.62855,68.328 77.58205,68.2565 76.84105,68.822 L75.07955,70.2 L74.58555,69.9075 C73.40905,69.212 72.12855,68.679 70.79605,68.315 L70.23055,68.1655 L70.00955,65.884 C69.91205,64.961 69.13855,64.259 68.22205,64.246 L65.50505,64.22 L65.47905,64.22 C64.56255,64.22 63.78905,64.9025 63.67205,65.819 L63.36005,68.211 L62.82705,68.3605 C61.57255,68.7115 60.38305,69.212 59.31705,69.836 L58.81005,70.1285 L56.91205,68.5815 C56.19055,67.99 55.14405,68.042 54.48105,68.692 L52.56355,70.577 C51.88755,71.2335 51.80955,72.267 52.38155,73.0015 L53.94805,75.023 L53.66855,75.5105 C53.08355,76.5375 52.62855,77.623 52.31005,78.7475 L52.15405,79.2935 L49.56705,79.5665 C48.64405,79.664 47.94205,80.431 47.93555,81.354 L47.90305,84.0515 C47.89655,84.981 48.57905,85.774 49.49555,85.891 L52.04355,86.216 L52.18655,86.762 C52.50505,87.9645 52.94705,89.1085 53.52555,90.168 L53.78555,90.662 L52.14105,92.69 C51.55605,93.4115 51.60805,94.458 52.25805,95.121 L54.14305,97.045 C54.79305,97.721 55.84605,97.7925 56.56105,97.2205 L58.56305,95.6735 Z M67.92305,103.4995 L67.89055,103.4995 L65.19955,103.467 C63.42505,103.4475 61.95605,102.102 61.76755,100.334 L61.62455,98.969 C60.59755,98.6375 59.62255,98.202 58.68655,97.6885 L57.58805,98.54 C56.17755,99.632 54.17555,99.4955 52.94705,98.2085 L51.06205,96.291 C49.81405,95.017 49.72305,93.015 50.85405,91.637 L51.79655,90.467 C51.36105,89.596 51.00355,88.6795 50.72405,87.7305 L49.28755,87.5485 C47.52605,87.321 46.21305,85.8065 46.23255,84.0385 L46.26505,81.3345 C46.28455,79.5665 47.62355,78.091 49.39155,77.9025 L50.86705,77.7465 C51.15305,76.869 51.51705,76.0045 51.94605,75.1725 L51.06205,74.0285 C49.97005,72.618 50.11955,70.6225 51.39355,69.381 L53.31105,67.5025 C54.58505,66.2545 56.57405,66.1505 57.96505,67.288 L58.97255,68.1135 C59.88255,67.626 60.83805,67.2295 61.85205,66.911 L62.01455,65.611 C62.23555,63.856 63.72405,62.5495 65.47905,62.5495 L65.52455,62.5495 L68.23505,62.582 C70.00305,62.595 71.47855,63.9405 71.66705,65.715 L71.78405,66.8655 C72.88255,67.2035 73.93555,67.6455 74.94305,68.1915 L75.82705,67.509 C77.23105,66.404 79.22655,66.547 80.46805,67.834 L82.35305,69.758 C83.59455,71.0255 83.69205,73.021 82.56755,74.4055 L81.85905,75.283 C82.36605,76.271 82.77555,77.3045 83.07455,78.364 L84.12755,78.5005 C85.88255,78.728 87.20205,80.236 87.18255,82.0105 L87.15005,84.708 C87.13055,86.476 85.78505,87.9515 84.02355,88.1465 L82.86655,88.2635 C82.54155,89.232 82.13205,90.181 81.63155,91.0845 L82.35305,92.027 C83.44505,93.431 83.30205,95.4265 82.02805,96.6615 L80.09755,98.5465 C78.83655,99.788 76.84755,99.892 75.45005,98.761 L74.50105,97.9875 C73.56505,98.4685 72.58355,98.8585 71.56955,99.1445 L71.40055,100.4445 C71.17955,102.1865 69.69105,103.4995 67.92305,103.4995 L67.92305,103.4995 Z" id="Fill-10" fill="#221F20" sketch:type="MSShapeGroup"></path>
            <path d="M35.02525,85.50945 L34.12175,85.50945 C31.40475,85.50945 29.03225,83.77395 28.21325,81.19345 C28.12875,80.92695 28.27175,80.64095 28.53825,80.56295 C28.77875,80.47195 29.08425,80.62145 29.16225,80.88145 C29.85775,83.05245 31.84675,84.50845 34.12175,84.50845 L35.02525,84.50845 C36.94925,84.50845 38.71075,83.44245 39.61425,81.73295 C39.74425,81.48595 40.03675,81.39495 40.29025,81.52495 C40.53075,81.65495 40.62825,81.95395 40.49825,82.20095 C39.41925,84.24195 37.31975,85.50945 35.02525,85.50945" id="Fill-12" fill="#221F20" sketch:type="MSShapeGroup"></path>
            <path d="M34.9128,83.0232 L34.2238,83.0232 C31.7343,83.0232 29.6998,80.9887 29.6998,78.4927 L29.6998,67.3647 C29.6998,64.8752 31.7343,62.8407 34.2238,62.8407 L34.9128,62.8407 C37.4023,62.8407 39.4433,64.8752 39.4433,67.3647 L39.4433,78.4927 C39.4433,80.9887 37.4023,83.0232 34.9128,83.0232" id="Fill-14" fill="#F0F1F1" sketch:type="MSShapeGroup"></path>
            <path d="M34.3473,63.67465 C32.2413,63.67465 30.5318,65.38415 30.5318,67.49015 L30.5318,78.37765 C30.5318,80.47715 32.2413,82.18665 34.3473,82.18665 L34.7893,82.18665 C36.8953,82.18665 38.6048,80.47715 38.6048,78.37765 L38.6048,67.49015 C38.6048,65.38415 36.8953,63.67465 34.7893,63.67465 L34.3473,63.67465 Z M34.7893,83.85715 L34.3473,83.85715 C31.3248,83.85715 28.8678,81.39365 28.8678,78.37765 L28.8678,67.49015 C28.8678,64.46765 31.3248,62.00415 34.3473,62.00415 L34.7893,62.00415 C37.8183,62.00415 40.2753,64.46765 40.2753,67.49015 L40.2753,78.37765 C40.2753,81.39365 37.8183,83.85715 34.7893,83.85715 L34.7893,83.85715 Z" id="Fill-16" fill="#221F20" sketch:type="MSShapeGroup"></path>
            <path d="M12.18815,101.18615 L12.18815,95.88215" id="Fill-18" fill="#F0F1F1" sketch:type="MSShapeGroup"></path>
            <path d="M12.1901,102.0214 C11.7286,102.0214 11.3581,101.6444 11.3581,101.1894 L11.3581,95.8789 C11.3581,95.4239 11.7286,95.0469 12.1901,95.0469 C12.6516,95.0469 13.0221,95.4239 13.0221,95.8789 L13.0221,101.1894 C13.0221,101.6444 12.6516,102.0214 12.1901,102.0214" id="Fill-20" fill="#221F20" sketch:type="MSShapeGroup"></path>
            <path d="M59.06615,37.44715 C58.92965,37.44715 58.81265,37.51865 58.68265,37.52515 L58.68265,36.23815 C58.68265,24.21315 48.84165,14.37215 36.81665,14.37215 L32.32515,14.37215 C20.30015,14.37215 10.45915,24.21315 10.45915,36.23815 L10.45915,37.49265 C10.38115,37.48615 10.31615,37.44715 10.23815,37.44715 C6.53965,37.44715 3.53665,40.44365 3.53665,44.14215 C3.53665,47.84065 6.53965,50.84365 10.23815,50.84365 C10.32265,50.84365 10.39415,50.79815 10.47865,50.79165 C10.58915,62.72565 20.36515,72.45615 32.32515,72.45615 L36.81665,72.45615 C48.78315,72.45615 58.56565,62.70615 58.66315,50.75915 C58.80615,50.77215 58.92315,50.84365 59.06615,50.84365 C62.76465,50.84365 65.76115,47.84065 65.76115,44.14215 C65.76115,40.44365 62.76465,37.44715 59.06615,37.44715" id="Fill-22" fill="#F0F1F1" sketch:type="MSShapeGroup"></path>
            <path d="M10.2934,49.50595 C10.6379,49.50595 11.0539,49.61645 11.3009,49.85045 C11.5674,50.10395 11.8144,50.42245 11.8209,50.77995 C11.9249,61.99895 21.1224,71.11845 32.3284,71.11845 L36.8134,71.11845 C48.0324,71.11845 57.2364,61.98595 57.3274,50.75395 C57.3339,50.38345 57.4834,50.03895 57.7434,49.79195 C58.0099,49.54495 58.3739,49.42145 58.7184,49.42795 C58.8354,49.42795 59.1409,49.49295 59.2449,49.52545 C62.0204,49.50595 64.4254,47.10095 64.4254,44.14345 C64.4254,41.21845 62.0789,38.83945 59.1734,38.78095 C59.0044,38.81995 58.7834,38.86545 58.6794,38.85895 C58.3414,38.85895 58.0099,38.72895 57.7629,38.49495 C57.4964,38.24145 57.3469,37.89045 57.3469,37.52645 L57.3469,36.23945 C57.3469,24.92295 48.1364,15.71245 36.8134,15.71245 L32.3284,15.71245 C21.0054,15.71245 11.7949,24.92295 11.7949,36.23945 L11.7949,37.49395 C11.7949,37.85795 11.6454,38.20245 11.3789,38.45595 C11.1189,38.70945 10.7159,38.81995 10.3974,38.82645 C10.2869,38.81995 10.0659,38.78095 9.9554,38.74845 C7.2839,38.78095 4.8789,41.18595 4.8789,44.14345 C4.8789,47.10095 7.2839,49.50595 10.2349,49.50595 L10.2934,49.50595 Z M36.8134,73.78995 L32.3284,73.78995 C20.0759,73.78995 9.9489,64.14395 9.1949,52.04095 C5.1454,51.46895 2.2009,48.14095 2.2009,44.14345 C2.2009,40.09395 5.2234,36.73345 9.1169,36.18745 C9.1429,23.41495 19.5494,13.03445 32.3284,13.03445 L36.8134,13.03445 C49.5794,13.03445 59.9794,23.40845 60.0184,36.16795 C64.0029,36.63595 67.0969,40.03545 67.0969,44.14345 C67.0969,48.27745 63.9639,51.68995 59.9469,52.13195 C59.1474,64.19595 49.0334,73.78995 36.8134,73.78995 L36.8134,73.78995 Z" id="Fill-24" fill="#221F20" sketch:type="MSShapeGroup"></path>
            <path d="M66.45665,26.1001 C66.45665,20.4646 61.02915,14.3741 57.10965,15.8951 C56.99915,15.9406 56.88865,15.9276 56.77165,15.9341 L56.77165,15.8951 C56.77165,10.6106 52.84565,6.3271 48.00965,6.3271 C45.82565,6.3271 43.85615,7.2241 42.32215,8.6671 C42.25715,8.5891 42.23765,8.4916 42.17265,8.4266 C39.59215,5.6056 35.36715,5.6056 32.78665,8.4266 C32.39665,8.8556 32.17565,9.3821 31.90265,9.8826 C30.05665,7.6271 27.40465,6.1776 24.43415,6.1776 C18.89615,6.1776 14.37215,11.1176 14.37215,17.1626 C14.37215,17.5201 14.43715,17.8646 14.46965,18.2156 C13.87165,18.0206 13.27365,17.8061 12.62365,17.8061 C8.93165,17.8061 5.91565,21.1016 5.91565,25.1251 C5.91565,25.7686 6.10415,26.3406 6.24715,26.9321 C4.16065,28.2321 2.67865,30.5981 2.67865,33.3996 C2.67865,37.5531 5.79215,40.9461 9.59465,40.9461 C13.40365,40.9461 16.51715,37.5531 16.51715,33.3996 C16.51715,32.6261 16.30915,31.9241 16.10765,31.2221 C17.66115,30.1496 18.74015,28.4596 19.08465,26.4251 C20.64465,27.4976 22.46465,28.1476 24.43415,28.1476 C29.16615,28.1476 33.13765,24.5206 34.19715,19.6911 C36.03665,20.8546 38.25965,21.0041 40.17065,20.1136 C41.58115,23.2141 44.45415,25.3721 47.82115,25.4501 C47.80815,25.6646 47.76265,25.8791 47.76265,26.1001 C47.76265,31.0661 51.01915,35.2001 55.32215,36.1101 C55.32215,36.1296 55.31565,36.1491 55.31565,36.1686 C55.31565,38.8076 57.27215,40.9461 59.69015,40.9461 C62.10815,40.9461 64.07115,38.8076 64.07115,36.1686 C64.07115,35.2326 63.75915,34.4071 63.33015,33.6661 C65.23465,31.7941 66.45665,29.1161 66.45665,26.1001" id="Fill-26" fill="#221F20" sketch:type="MSShapeGroup"></path>
            <g id="Group-30">
                <mask id="mask-4" sketch:name="Clip 29" fill="white">
                    <use xlink:href="#path-3"></use>
                </mask>
                <g id="Clip-29"></g>
                <path d="M56.64815,36.27975 C56.70015,38.12575 58.04565,39.61425 59.69015,39.61425 C61.37365,39.61425 62.73865,38.06725 62.73865,36.16925 C62.73865,35.57775 62.56315,34.99275 62.17315,34.33625 C61.86765,33.80975 61.95865,33.14025 62.40065,32.71125 C64.12965,31.01475 65.12415,28.60325 65.12415,26.10075 C65.12415,23.11075 63.23915,19.56825 60.73665,17.85225 C60.06715,17.39725 58.78665,16.67575 57.59065,17.14375 C57.44115,17.20225 57.17465,17.32575 56.84965,17.26725 C56.50515,17.26725 56.12815,17.13075 55.88115,16.89025 C55.62765,16.63675 55.43265,16.29225 55.43265,15.93475 C55.43265,11.35225 52.10465,7.66025 48.00315,7.66025 C45.79965,7.66025 44.18765,8.73925 43.23215,9.63625 C42.96565,9.89625 42.66665,10.04575 42.21815,9.99375 C41.84115,9.96775 41.49665,9.78575 41.26915,9.48675 C41.21065,9.41525 41.09365,9.22025 41.04815,9.12925 C39.35165,7.35475 35.75715,7.15975 33.77465,9.33075 C33.59265,9.52575 33.44965,9.80525 33.28065,10.13025 L33.07915,10.52675 C32.85815,10.91675 32.46815,11.17025 32.02615,11.21575 C31.59065,11.24175 31.15515,11.07275 30.86915,10.72825 C29.17265,8.65475 26.88465,7.51075 24.43415,7.51075 C19.62415,7.51075 15.71115,11.83975 15.71115,17.16325 C15.71115,17.34525 15.73715,17.52725 15.75665,17.70275 L15.80215,18.08625 C15.84115,18.53475 15.65915,18.97025 15.30815,19.24975 C14.95065,19.53575 14.48915,19.61375 14.06015,19.48375 C13.41665,19.26925 13.00715,19.13925 12.61715,19.13925 C9.65965,19.13925 7.24815,21.82375 7.24815,25.12575 C7.24815,25.45725 7.33915,25.80825 7.44315,26.21775 L7.54715,26.62075 C7.68365,27.17325 7.44315,27.75825 6.95565,28.06375 C5.11615,29.21425 4.01765,31.20975 4.01765,33.40025 C4.01765,36.82575 6.52015,39.61425 9.59465,39.61425 C12.66915,39.61425 15.17815,36.82575 15.17815,33.40025 C15.17815,32.80875 15.00915,32.21725 14.82065,31.58675 C14.66465,31.04075 14.87265,30.44275 15.35365,30.11775 C16.62765,29.24675 17.48565,27.84925 17.77165,26.19825 C17.84965,25.74975 18.14865,25.37275 18.57115,25.19075 C18.98065,25.02175 19.48115,25.06075 19.84515,25.32725 C21.27515,26.31525 22.81565,26.80925 24.43415,26.80925 C28.45765,26.80925 31.94165,23.76725 32.89065,19.40575 C32.98165,18.97675 33.28065,18.62575 33.68365,18.45675 C34.07365,18.28775 34.53515,18.32675 34.90565,18.56075 C36.38765,19.49675 38.10365,19.60725 39.60515,18.90525 C39.94965,18.75575 40.30715,18.73625 40.63865,18.85975 C40.97665,18.98325 41.24315,19.23675 41.39265,19.56175 C42.63415,22.30475 45.10415,24.05325 47.85365,24.11825 C48.21115,24.12475 48.55565,24.28075 48.80915,24.54725 C49.04965,24.80725 49.17965,25.16475 49.15365,25.52875 C49.15365,25.55475 49.12765,25.85375 49.12115,25.87975 C49.10165,30.34525 51.83165,34.00475 55.60165,34.80425 C56.21915,34.93425 56.66115,35.48025 56.66115,36.11075 C56.66115,36.16275 56.65465,36.22125 56.64815,36.27975 M59.69015,42.28575 C56.84965,42.28575 54.49015,40.05625 54.04815,37.15075 C49.73865,35.75975 46.65765,31.54775 46.43665,26.65325 C43.59615,26.17225 41.08715,24.40425 39.52715,21.76525 C38.06465,22.16175 36.49815,22.09025 35.04215,21.57675 C33.37815,26.30875 29.20515,29.48075 24.43415,29.48075 C22.88065,29.48075 21.34015,29.12325 19.91015,28.44075 C19.40965,29.72125 18.63615,30.84575 17.62865,31.72325 C17.75215,32.23675 17.84965,32.79575 17.84965,33.40025 C17.84965,38.29475 14.14465,42.28575 9.59465,42.28575 C5.04465,42.28575 1.33965,38.29475 1.33965,33.40025 C1.33965,30.61175 2.59415,28.05075 4.73265,26.36725 C4.64815,25.99025 4.57665,25.58075 4.57665,25.12575 C4.57665,20.35475 8.18415,16.46775 12.61715,16.46775 C12.77315,16.46775 12.91615,16.48075 13.05915,16.49375 C13.37765,10.00675 18.35665,4.83925 24.43415,4.83925 C27.06665,4.83925 29.62115,5.86625 31.65565,7.69275 C31.70115,7.63425 31.75315,7.57575 31.81165,7.51725 C34.58065,4.48825 39.39715,4.21525 42.45215,6.82825 C44.09665,5.63875 46.03365,4.98875 48.00315,4.98875 C53.07965,4.98875 57.29165,9.05125 58.00665,14.32275 C59.30665,14.25125 60.82115,14.67375 62.23815,15.64875 C65.46215,17.85225 67.79565,22.24625 67.79565,26.10075 C67.79565,28.98025 66.76215,31.76875 64.94215,33.90075 C65.25415,34.65475 65.41015,35.40875 65.41015,36.16925 C65.41015,39.54275 62.84265,42.28575 59.69015,42.28575" id="Fill-28" fill="#221F20" sketch:type="MSShapeGroup" mask="url(#mask-4)"></path>
            </g>
            <path d="M49.54235,20.50165 C49.54235,25.85765 45.20035,30.19965 39.84435,30.19965 C34.48835,30.19965 30.14635,25.85765 30.14635,20.50165 C30.14635,15.14565 34.48835,10.80365 39.84435,10.80365 C45.20035,10.80365 49.54235,15.14565 49.54235,20.50165" id="Fill-31" fill="#221F20" sketch:type="MSShapeGroup"></path>
            <path d="M39.84305,12.1407 C35.23455,12.1407 31.48405,15.8912 31.48405,20.4997 C31.48405,25.1147 35.23455,28.8652 39.84305,28.8652 C44.45805,28.8652 48.20855,25.1147 48.20855,20.4997 C48.20855,15.8912 44.45805,12.1407 39.84305,12.1407 M39.84305,31.5367 C33.75905,31.5367 28.81255,26.5837 28.81255,20.4997 C28.81255,14.4222 33.75905,9.4692 39.84305,9.4692 C45.92705,9.4692 50.88005,14.4222 50.88005,20.4997 C50.88005,26.5837 45.92705,31.5367 39.84305,31.5367" id="Fill-33" fill="#221F20" sketch:type="MSShapeGroup"></path>
            <path d="M26.5005,22.42565 C26.5005,27.78165 22.1585,32.12365 16.8025,32.12365 C11.4465,32.12365 7.1045,27.78165 7.1045,22.42565 C7.1045,17.06965 11.4465,12.72765 16.8025,12.72765 C22.1585,12.72765 26.5005,17.06965 26.5005,22.42565" id="Fill-35" fill="#221F20" sketch:type="MSShapeGroup"></path>
            <path d="M16.80575,14.0634 C12.19075,14.0634 8.44025,17.8139 8.44025,22.4289 C8.44025,27.0374 12.19075,30.7879 16.80575,30.7879 C21.41425,30.7879 25.16475,27.0374 25.16475,22.4289 C25.16475,17.8139 21.41425,14.0634 16.80575,14.0634 M16.80575,33.4594 C10.72175,33.4594 5.76875,28.5064 5.76875,22.4289 C5.76875,16.3449 10.72175,11.3919 16.80575,11.3919 C22.88975,11.3919 27.83625,16.3449 27.83625,22.4289 C27.83625,28.5064 22.88975,33.4594 16.80575,33.4594" id="Fill-37" fill="#221F20" sketch:type="MSShapeGroup"></path>
            <path d="M11.089,44.954 L11.089,54.1775" id="Fill-39" fill="#F0F1F1" sketch:type="MSShapeGroup"></path>
            <path d="M11.08835,55.0082 C10.62685,55.0082 10.25635,54.6312 10.25635,54.1762 L10.25635,44.9527 C10.25635,44.4912 10.62685,44.1207 11.08835,44.1207 C11.54985,44.1207 11.92035,44.4912 11.92035,44.9527 L11.92035,54.1762 C11.92035,54.6312 11.54985,55.0082 11.08835,55.0082" id="Fill-41" fill="#221F20" sketch:type="MSShapeGroup"></path>
            <path d="M58.2504,44.954 L58.2504,54.1775" id="Fill-43" fill="#F0F1F1" sketch:type="MSShapeGroup"></path>
            <path d="M58.25235,55.0082 C57.79085,55.0082 57.42035,54.6312 57.42035,54.1762 L57.42035,44.9527 C57.42035,44.4912 57.79085,44.1207 58.25235,44.1207 C58.71385,44.1207 59.08435,44.4912 59.08435,44.9527 L59.08435,54.1762 C59.08435,54.6312 58.71385,55.0082 58.25235,55.0082" id="Fill-45" fill="#221F20" sketch:type="MSShapeGroup"></path>
            <path d="M46.0811,61.0623 C43.5396,63.6558 39.4251,65.3458 34.7711,65.3458 C29.7596,65.3458 25.3656,63.3828 22.8956,60.4383" id="Fill-47" fill="#F0F1F1" sketch:type="MSShapeGroup"></path>
            <path d="M34.7711,66.1778 C29.6686,66.1778 24.9886,64.2343 22.2586,60.9713 C21.9596,60.6203 22.0116,60.0938 22.3626,59.8013 C22.7266,59.5023 23.2466,59.5478 23.5391,59.9053 C25.9571,62.7913 30.1561,64.5073 34.7711,64.5073 C39.0091,64.5073 43.0131,63.0058 45.4896,60.4773 C45.8146,60.1523 46.3346,60.1458 46.6661,60.4643 C46.9911,60.7893 46.9976,61.3158 46.6726,61.6408 C43.8971,64.4813 39.4446,66.1778 34.7711,66.1778" id="Fill-49" fill="#221F20" sketch:type="MSShapeGroup"></path>
            <path d="M80.5857,81.87205 C80.1697,81.87205 79.8057,81.56005 79.7602,81.13105 C79.3832,77.93305 77.9597,76.60055 77.9467,76.58755 C77.6087,76.28205 77.5762,75.75555 77.8817,75.41755 C78.1742,75.07305 78.6942,75.02755 79.0452,75.33955 C79.1232,75.40455 80.9627,77.04905 81.4112,80.94255 C81.4632,81.39755 81.1382,81.81355 80.6832,81.86555 C80.6507,81.86555 80.6182,81.87205 80.5857,81.87205" id="Fill-51" fill="#FEFEFE" sketch:type="MSShapeGroup"></path>
        </g>
    </g>
</svg>