<?xml version="1.0" encoding="UTF-8" standalone="no"?>
<svg width="28px" height="25px" viewBox="0 0 28 25" version="1.1" xmlns="http://www.w3.org/2000/svg" xmlns:xlink="http://www.w3.org/1999/xlink">
    <!-- Generator: Sketch 3.8.2 (29753) - http://www.bohemiancoding.com/sketch -->
    <title></title>
    <desc>Created with Sketch.</desc>
    <defs></defs>
    <g id="Page-1" stroke="none" stroke-width="1" fill="none" fill-rule="evenodd">
        <g id="Artboard-1-Copy" transform="translate(-655.000000, -738.000000)" stroke="#F0F0F5" fill="#6450F0">
            <g id="Group-6" transform="translate(244.000000, 599.000000)">
                <g id="Group-5" transform="translate(408.000000, 15.000000)">
                    <g id="Group-11" transform="translate(4.000000, 120.000000)">
                        <path d="M5.89285714,23.8571429 L5.89285714,26 L0,26 L0,23.8571429 L5.89285714,23.8571429 Z M11.7857143,21.7142857 C12.0758943,21.7142857 12.3270079,21.8203114 12.5390625,22.0323661 C12.7511171,22.2444207 12.8571429,22.4955343 12.8571429,22.7857143 L12.8571429,27.0714286 C12.8571429,27.3616086 12.7511171,27.6127222 12.5390625,27.8247768 C12.3270079,28.0368314 12.0758943,28.1428571 11.7857143,28.1428571 L7.5,28.1428571 C7.20981998,28.1428571 6.95870642,28.0368314 6.74665179,27.8247768 C6.53459715,27.6127222 6.42857143,27.3616086 6.42857143,27.0714286 L6.42857143,22.7857143 C6.42857143,22.4955343 6.53459715,22.2444207 6.74665179,22.0323661 C6.95870642,21.8203114 7.20981998,21.7142857 7.5,21.7142857 L11.7857143,21.7142857 Z M14.4642857,15.2857143 L14.4642857,17.4285714 L0,17.4285714 L0,15.2857143 L14.4642857,15.2857143 Z M3.75,6.71428571 L3.75,8.85714286 L0,8.85714286 L0,6.71428571 L3.75,6.71428571 Z M25.7142857,23.8571429 L25.7142857,26 L13.3928571,26 L13.3928571,23.8571429 L25.7142857,23.8571429 Z M9.64285714,4.57142857 C9.93303717,4.57142857 10.1841507,4.6774543 10.3962054,4.88950893 C10.60826,5.10156356 10.7142857,5.35267712 10.7142857,5.64285714 L10.7142857,9.92857143 C10.7142857,10.2187515 10.60826,10.469865 10.3962054,10.6819196 C10.1841507,10.8939743 9.93303717,11 9.64285714,11 L5.35714286,11 C5.06696283,11 4.81584927,10.8939743 4.60379464,10.6819196 C4.39174001,10.469865 4.28571429,10.2187515 4.28571429,9.92857143 L4.28571429,5.64285714 C4.28571429,5.35267712 4.39174001,5.10156356 4.60379464,4.88950893 C4.81584927,4.6774543 5.06696283,4.57142857 5.35714286,4.57142857 L9.64285714,4.57142857 Z M20.3571429,13.1428571 C20.6473229,13.1428571 20.8984364,13.2488829 21.1104911,13.4609375 C21.3225457,13.6729921 21.4285714,13.9241057 21.4285714,14.2142857 L21.4285714,18.5 C21.4285714,18.79018 21.3225457,19.0412936 21.1104911,19.2533482 C20.8984364,19.4654028 20.6473229,19.5714286 20.3571429,19.5714286 L16.0714286,19.5714286 C15.7812485,19.5714286 15.530135,19.4654028 15.3180804,19.2533482 C15.1060257,19.0412936 15,18.79018 15,18.5 L15,14.2142857 C15,13.9241057 15.1060257,13.6729921 15.3180804,13.4609375 C15.530135,13.2488829 15.7812485,13.1428571 16.0714286,13.1428571 L20.3571429,13.1428571 Z M25.7142857,15.2857143 L25.7142857,17.4285714 L21.9642857,17.4285714 L21.9642857,15.2857143 L25.7142857,15.2857143 Z M25.7142857,6.71428571 L25.7142857,8.85714286 L11.25,8.85714286 L11.25,6.71428571 L25.7142857,6.71428571 Z" id=""></path>
                    </g>
                </g>
            </g>
        </g>
    </g>
</svg>