<?xml version="1.0" encoding="UTF-8" standalone="no"?>
<svg width="95px" height="108px" viewBox="0 0 95 108" version="1.1" xmlns="http://www.w3.org/2000/svg" xmlns:xlink="http://www.w3.org/1999/xlink" xmlns:sketch="http://www.bohemiancoding.com/sketch/ns">
    <!-- Generator: Sketch 3.4 (15575) - http://www.bohemiancoding.com/sketch -->
    <title>checkout</title>
    <desc>Created with Sketch.</desc>
    <defs>
        <path id="path-1" d="M0,0.761 L94.21,0.761 L94.21,107.94 L0,107.94"></path>
    </defs>
    <g id="Page-1" stroke="none" stroke-width="1" fill="none" fill-rule="evenodd" sketch:type="MSPage">
        <g id="Explore-Copy-2" sketch:type="MSArtboardGroup" transform="translate(-212.000000, -315.000000)">
            <g id="checkout" sketch:type="MSLayerGroup" transform="translate(212.000000, 315.000000)">
                <path d="M88.896,2.934 C87.011,2.934 86.847,3.012 86.847,3.012 L85.211,2.923 L85.049,86.611 L85.049,86.843 L10.427,86.843 L8.639,83.872 L8.639,1.515 C8.278,1.488 6.597,2.699 5.978,2.699 C3.911,2.699 3.236,2.13 3.018,1.869 L3.018,89.085 C3.018,97.852 10.147,104.981 18.915,104.981 L75.295,104.981 C84.062,104.981 91.192,97.852 91.192,89.085 L91.192,2.98 C90.711,2.958 90.005,2.934 88.896,2.934" id="Fill-1" fill="#6AC1BC" sketch:type="MSShapeGroup"></path>
                <g id="Group-5">
                    <mask id="mask-2" sketch:name="Clip 3" fill="white">
                        <use xlink:href="#path-1"></use>
                    </mask>
                    <g id="Clip-3"></g>
                    <path d="M10.481,4.569 L9.093,5.768 L8.889,86.37 L84.296,86.37 L85.506,4.569 L10.481,4.569" id="Fill-2" fill="#FFFFFF" sketch:type="MSShapeGroup" mask="url(#mask-2)"></path>
                    <path d="M92.701,2.45 C92.165,2.648 91.808,3.012 91.808,3.012 C91.808,3.012 91.528,2.996 91.192,2.98 L91.192,89.085 C91.192,97.852 84.062,104.981 75.295,104.981 L18.915,104.981 C10.147,104.981 3.018,97.852 3.018,89.085 L3.018,1.869 C2.555,1.314 2.023,1.125 1.508,1.108 C0.928,1.088 0.381,1.277 0,1.473 L0,89.085 C0,99.512 8.488,108 18.915,108 L75.295,108 C85.722,108 94.21,99.512 94.21,89.085 L94.21,2.654 C93.645,2.358 93.115,2.297 92.701,2.45" id="Fill-4" fill="#1A1918" sketch:type="MSShapeGroup" mask="url(#mask-2)"></path>
                </g>
                <path d="M85.212,87.013 L8.891,87.013 C8.475,87.013 8.136,86.675 8.136,86.259 L8.136,1.516 C8.136,1.1 8.475,0.761 8.891,0.761 C9.306,0.761 9.645,1.1 9.645,1.516 L9.645,85.504 L84.458,85.504 L84.458,3.014 C84.458,2.598 84.797,2.259 85.212,2.259 C85.628,2.259 85.967,2.598 85.967,3.014 L85.967,86.259 C85.967,86.675 85.628,87.013 85.212,87.013" id="Fill-6" fill="#1A1918" sketch:type="MSShapeGroup"></path>
                <path d="M47.104,91.223 C44.754,91.223 42.848,93.129 42.848,95.479 C42.848,97.83 44.754,99.736 47.104,99.736 C49.456,99.736 51.36,97.83 51.36,95.479 C51.36,93.129 49.456,91.223 47.104,91.223" id="Fill-7" fill="#FFFFFF" sketch:type="MSShapeGroup"></path>
                <path d="M22.323,16.104 L71.169,16.104 L71.169,26.664 L22.323,26.664 L22.323,16.104 Z" id="Fill-8" fill="#FFFFFF" sketch:type="MSShapeGroup"></path>
                <path d="M23.076,25.911 L70.413,25.911 L70.413,16.86 L23.076,16.86 L23.076,25.911 Z M71.167,27.42 L22.321,27.42 C21.905,27.42 21.567,27.081 21.567,26.665 L21.567,16.106 C21.567,15.69 21.905,15.351 22.321,15.351 L71.167,15.351 C71.583,15.351 71.922,15.69 71.922,16.106 L71.922,26.665 C71.922,27.081 71.583,27.42 71.167,27.42 L71.167,27.42 Z" id="Fill-9" fill="#1A1918" sketch:type="MSShapeGroup"></path>
                <path d="M24.053,25.911 L23.076,25.911 L23.076,16.86 L70.413,16.86 L70.413,17.575 L24.053,17.575 L24.053,25.911" id="Fill-10" fill="#E6E6E1" sketch:type="MSShapeGroup"></path>
                <path d="M24.053,26.414 L22.323,26.414 L22.323,15.854 L71.169,15.854 L71.169,17.575 L70.413,17.575 L70.413,16.86 L23.076,16.86 L23.076,25.911 L24.053,25.911 L24.053,26.414" id="Fill-11" fill="#0A0A08" sketch:type="MSShapeGroup"></path>
                <path d="M21.731,37.618 L43.471,37.618 L43.471,48.178 L21.731,48.178 L21.731,37.618 Z" id="Fill-12" fill="#FFFFFF" sketch:type="MSShapeGroup"></path>
                <path d="M22.487,47.424 L42.716,47.424 L42.716,38.373 L22.487,38.373 L22.487,47.424 Z M43.47,48.933 L21.732,48.933 C21.316,48.933 20.978,48.595 20.978,48.179 L20.978,37.619 C20.978,37.203 21.316,36.865 21.732,36.865 L43.47,36.865 C43.886,36.865 44.225,37.203 44.225,37.619 L44.225,48.179 C44.225,48.595 43.886,48.933 43.47,48.933 L43.47,48.933 Z" id="Fill-13" fill="#1A1918" sketch:type="MSShapeGroup"></path>
                <path d="M44.411,39.088 L44.225,39.088 L44.225,37.619 C44.225,37.576 44.221,37.534 44.214,37.493 L44.411,37.493 L44.411,39.088" id="Fill-14" fill="#E6E6E1" sketch:type="MSShapeGroup"></path>
                <path d="M23.611,47.424 L22.672,47.424 L22.672,38.374 L42.716,38.374 L42.716,39.088 L23.611,39.088 L23.611,47.424" id="Fill-15" fill="#E6E6E1" sketch:type="MSShapeGroup"></path>
                <path d="M22.672,47.424 L23.611,47.424 L23.611,48.052 L22.672,48.052 L22.672,47.424 Z M44.225,39.088 L42.716,39.088 L42.716,38.374 L22.672,38.374 L22.672,37.493 L44.214,37.493 C44.221,37.534 44.225,37.576 44.225,37.619 L44.225,39.088 L44.225,39.088 Z" id="Fill-16" fill="#0A0A08" sketch:type="MSShapeGroup"></path>
                <path d="M51.011,37.664 L71.08,37.664 L71.08,48.224 L51.011,48.224 L51.011,37.664 Z" id="Fill-17" fill="#FFFFFF" sketch:type="MSShapeGroup"></path>
                <path d="M51.766,47.468 L70.324,47.468 L70.324,38.417 L51.766,38.417 L51.766,47.468 Z M71.079,48.978 L51.012,48.978 C50.596,48.978 50.257,48.639 50.257,48.223 L50.257,37.663 C50.257,37.247 50.596,36.909 51.012,36.909 L71.079,36.909 C71.495,36.909 71.833,37.247 71.833,37.663 L71.833,48.223 C71.833,48.639 71.495,48.978 71.079,48.978 L71.079,48.978 Z" id="Fill-18" fill="#1A1918" sketch:type="MSShapeGroup"></path>
                <path d="M52.883,47.468 L51.953,47.468 L51.953,38.418 L70.324,38.418 L70.324,39.135 L52.883,39.135 L52.883,47.468" id="Fill-19" fill="#E6E6E1" sketch:type="MSShapeGroup"></path>
                <path d="M51.953,47.468 L52.883,47.468 L52.883,48.098 L51.953,48.098 L51.953,47.468 Z M71.341,39.135 L70.324,39.135 L70.324,38.418 L51.953,38.418 L51.953,37.539 L71.341,37.539 L71.341,39.135 L71.341,39.135 Z" id="Fill-20" fill="#0A0A08" sketch:type="MSShapeGroup"></path>
                <path d="M21.08,56.807 L71.961,56.807 L71.961,72.89 L21.08,72.89 L21.08,56.807 Z" id="Fill-21" fill="#FFFFFF" sketch:type="MSShapeGroup"></path>
                <path d="M21.835,72.136 L71.207,72.136 L71.207,57.561 L21.835,57.561 L21.835,72.136 Z M71.962,73.645 L21.081,73.645 C20.665,73.645 20.326,73.307 20.326,72.891 L20.326,56.806 C20.326,56.39 20.665,56.052 21.081,56.052 L71.962,56.052 C72.378,56.052 72.717,56.39 72.717,56.806 L72.717,72.891 C72.717,73.307 72.378,73.645 71.962,73.645 L71.962,73.645 Z" id="Fill-22" fill="#1A1918" sketch:type="MSShapeGroup"></path>
                <path d="M74.082,75.16 L23.201,75.16 L23.201,73.645 L71.962,73.645 C72.378,73.645 72.717,73.307 72.717,72.891 L72.717,59.077 L74.082,59.077 L74.082,75.16" id="Fill-23" fill="#F0A948" sketch:type="MSShapeGroup"></path>
                <path d="M23.201,59.077 L71.208,59.077 L71.208,72.136 L23.201,72.136 L23.201,59.077 Z" id="Fill-24" fill="#F0A948" sketch:type="MSShapeGroup"></path>
                <path d="M71.962,73.645 L23.201,73.645 L23.201,72.136 L71.208,72.136 L71.208,59.077 L72.717,59.077 L72.717,72.891 C72.717,73.307 72.378,73.645 71.962,73.645" id="Fill-25" fill="#0A0A08" sketch:type="MSShapeGroup"></path>
                <path d="M33.137,22.855 L31.834,22.855 L31.458,22.185 C31.355,22.001 31.26,21.817 31.171,21.626 L31.149,21.626 C31.061,21.825 30.958,22.001 30.87,22.185 L30.516,22.855 L29.25,22.855 L30.509,20.963 L29.28,19.145 L30.575,19.145 L30.936,19.756 C31.039,19.948 31.142,20.139 31.238,20.316 L31.252,20.316 C31.355,20.117 31.444,19.925 31.547,19.741 L31.871,19.145 L33.122,19.145 L31.9,20.912 L33.137,22.855" id="Fill-26" fill="#797B79" sketch:type="MSShapeGroup"></path>
                <path d="M37.429,22.855 L36.126,22.855 L35.75,22.185 C35.647,22.001 35.551,21.817 35.463,21.626 L35.441,21.626 C35.353,21.825 35.249,22.001 35.161,22.185 L34.808,22.855 L33.542,22.855 L34.8,20.963 L33.571,19.145 L34.867,19.145 L35.228,19.756 C35.331,19.948 35.434,20.139 35.529,20.316 L35.544,20.316 C35.647,20.117 35.735,19.925 35.839,19.741 L36.162,19.145 L37.414,19.145 L36.192,20.912 L37.429,22.855" id="Fill-27" fill="#797B79" sketch:type="MSShapeGroup"></path>
                <path d="M41.713,22.855 L40.41,22.855 L40.034,22.185 C39.931,22.001 39.836,21.817 39.747,21.626 L39.725,21.626 C39.637,21.825 39.534,22.001 39.445,22.185 L39.092,22.855 L37.826,22.855 L39.085,20.963 L37.855,19.145 L39.151,19.145 L39.512,19.756 C39.615,19.948 39.718,20.139 39.814,20.316 L39.828,20.316 C39.931,20.117 40.02,19.925 40.123,19.741 L40.447,19.145 L41.698,19.145 L40.476,20.912 L41.713,22.855" id="Fill-28" fill="#797B79" sketch:type="MSShapeGroup"></path>
                <path d="M46.004,22.855 L44.701,22.855 L44.326,22.185 C44.223,22.001 44.127,21.817 44.039,21.626 L44.017,21.626 C43.929,21.825 43.826,22.001 43.737,22.185 L43.384,22.855 L42.118,22.855 L43.376,20.963 L42.147,19.145 L43.443,19.145 L43.803,19.756 C43.906,19.948 44.009,20.139 44.105,20.316 L44.12,20.316 C44.223,20.117 44.311,19.925 44.414,19.741 L44.738,19.145 L45.99,19.145 L44.768,20.912 L46.004,22.855" id="Fill-29" fill="#797B79" sketch:type="MSShapeGroup"></path>
                <path d="M46.586,20.478 L48.574,20.478 L48.574,21.244 L46.586,21.244 L46.586,20.478 Z" id="Fill-30" fill="#797B79" sketch:type="MSShapeGroup"></path>
                <path d="M53.064,22.855 L51.761,22.855 L51.385,22.185 C51.282,22.001 51.187,21.817 51.098,21.626 L51.076,21.626 C50.988,21.825 50.885,22.001 50.797,22.185 L50.443,22.855 L49.177,22.855 L50.436,20.963 L49.207,19.145 L50.502,19.145 L50.863,19.756 C50.966,19.948 51.069,20.139 51.165,20.316 L51.179,20.316 C51.282,20.117 51.371,19.925 51.474,19.741 L51.798,19.145 L53.049,19.145 L51.827,20.912 L53.064,22.855" id="Fill-31" fill="#797B79" sketch:type="MSShapeGroup"></path>
                <path d="M57.355,22.855 L56.053,22.855 L55.677,22.185 C55.574,22.001 55.478,21.817 55.39,21.626 L55.368,21.626 C55.28,21.825 55.177,22.001 55.088,22.185 L54.735,22.855 L53.469,22.855 L54.728,20.963 L53.498,19.145 L54.794,19.145 L55.154,19.756 C55.257,19.948 55.361,20.139 55.456,20.316 L55.471,20.316 C55.574,20.117 55.662,19.925 55.765,19.741 L56.089,19.145 L57.341,19.145 L56.119,20.912 L57.355,22.855" id="Fill-32" fill="#797B79" sketch:type="MSShapeGroup"></path>
                <path d="M61.647,22.855 L60.344,22.855 L59.969,22.185 C59.866,22.001 59.77,21.817 59.682,21.626 L59.66,21.626 C59.571,21.825 59.468,22.001 59.38,22.185 L59.026,22.855 L57.76,22.855 L59.019,20.963 L57.79,19.145 L59.085,19.145 L59.446,19.756 C59.549,19.948 59.652,20.139 59.748,20.316 L59.763,20.316 C59.866,20.117 59.954,19.925 60.057,19.741 L60.381,19.145 L61.632,19.145 L60.41,20.912 L61.647,22.855" id="Fill-33" fill="#797B79" sketch:type="MSShapeGroup"></path>
                <path d="M65.931,22.855 L64.628,22.855 L64.253,22.185 C64.15,22.001 64.054,21.817 63.966,21.626 L63.944,21.626 C63.856,21.825 63.752,22.001 63.664,22.185 L63.311,22.855 L62.045,22.855 L63.303,20.963 L62.074,19.145 L63.37,19.145 L63.73,19.756 C63.833,19.948 63.937,20.139 64.032,20.316 L64.047,20.316 C64.15,20.117 64.238,19.925 64.341,19.741 L64.665,19.145 L65.917,19.145 L64.695,20.912 L65.931,22.855" id="Fill-34" fill="#797B79" sketch:type="MSShapeGroup"></path>
                <path d="M34.437,64.453 C34.584,64.483 34.716,64.497 34.9,64.497 C35.651,64.497 36.144,64.019 36.144,63.415 C36.144,62.874 35.762,62.675 35.261,62.675 C35.04,62.675 34.871,62.694 34.775,62.723 L34.437,64.453 L34.437,64.453 Z M34.024,62.086 C34.333,62.009 34.797,61.965 35.261,61.965 C35.732,61.965 36.24,62.061 36.564,62.329 C36.866,62.554 37.035,62.889 37.035,63.345 C37.035,63.953 36.755,64.438 36.38,64.733 C35.975,65.06 35.386,65.219 34.783,65.219 C34.598,65.219 34.437,65.197 34.304,65.182 L33.936,67.118 L33.067,67.118 L34.024,62.086 L34.024,62.086 Z" id="Fill-35" fill="#1B1A18" sketch:type="MSShapeGroup"></path>
                <path d="M39.729,64.059 C39.641,64.037 39.523,64.019 39.369,64.019 C38.544,64.019 37.918,64.939 37.918,65.782 C37.918,66.168 38.058,66.489 38.449,66.489 C38.861,66.489 39.361,65.973 39.531,65.031 L39.729,64.059 L39.729,64.059 Z M39.369,67.118 C39.376,66.897 39.405,66.603 39.435,66.282 L39.413,66.282 C39.045,66.967 38.559,67.203 38.088,67.203 C37.433,67.203 36.998,66.684 36.998,65.94 C36.998,64.681 37.882,63.338 39.604,63.338 C40.002,63.338 40.436,63.415 40.716,63.504 L40.34,65.432 C40.23,65.988 40.171,66.676 40.186,67.118 L39.369,67.118 L39.369,67.118 Z" id="Fill-36" fill="#1B1A18" sketch:type="MSShapeGroup"></path>
                <path d="M42.122,63.423 L42.409,65.204 C42.482,65.602 42.527,65.874 42.556,66.124 L42.571,66.124 C42.659,65.896 42.755,65.646 42.931,65.244 L43.727,63.423 L44.661,63.423 L43.307,66.146 C42.858,67.048 42.453,67.703 41.96,68.182 C41.533,68.598 41.047,68.774 40.819,68.818 L40.613,68.06 C40.782,68.005 41.04,67.906 41.268,67.74 C41.518,67.56 41.754,67.302 41.916,67.004 L41.93,66.831 L41.194,63.423 L42.122,63.423" id="Fill-37" fill="#1B1A18" sketch:type="MSShapeGroup"></path>
                <path d="M45.979,67.118 L46.951,62.002 L47.967,62.002 L48.865,64.376 C49.086,65.002 49.211,65.469 49.328,65.981 L49.343,65.981 C49.373,65.476 49.432,64.983 49.571,64.247 L49.991,62.002 L50.83,62.002 L49.858,67.118 L48.953,67.118 L48.033,64.696 C47.797,64.03 47.672,63.61 47.547,63.047 L47.518,63.058 C47.466,63.544 47.356,64.173 47.223,64.932 L46.804,67.118 L45.979,67.118" id="Fill-38" fill="#1B1A18" sketch:type="MSShapeGroup"></path>
                <path d="M51.861,65.653 C51.861,66.161 52.133,66.518 52.582,66.518 C53.237,66.518 53.679,65.609 53.679,64.873 C53.679,64.49 53.517,64.019 52.972,64.019 C52.266,64.019 51.861,64.961 51.861,65.653 L51.861,65.653 Z M54.599,64.873 C54.599,66.124 53.716,67.203 52.457,67.203 C51.522,67.203 50.948,66.555 50.948,65.675 C50.948,64.424 51.824,63.338 53.083,63.338 C54.076,63.338 54.599,64.052 54.599,64.873 L54.599,64.873 Z" id="Fill-39" fill="#1B1A18" sketch:type="MSShapeGroup"></path>
                <path d="M56.042,63.423 L56.116,65.219 C56.13,65.653 56.123,65.947 56.101,66.312 L56.116,66.312 C56.226,65.988 56.381,65.646 56.543,65.274 L57.441,63.423 L58.177,63.423 L58.331,65.226 C58.361,65.646 58.375,65.988 58.368,66.312 L58.383,66.312 C58.493,65.955 58.611,65.624 58.766,65.226 L59.561,63.423 L60.459,63.423 L58.64,67.118 L57.816,67.118 L57.647,65.51 C57.617,65.145 57.61,64.81 57.61,64.416 L57.595,64.416 C57.411,64.862 57.323,65.145 57.153,65.469 L56.336,67.118 L55.505,67.118 L55.166,63.423 L56.042,63.423" id="Fill-40" fill="#1B1A18" sketch:type="MSShapeGroup"></path>
                <path d="M21.307,10.615 L47.885,10.615" id="Fill-41" fill="#FFFFFF" sketch:type="MSShapeGroup"></path>
                <path d="M47.885,11.559 L21.307,11.559 C20.788,11.559 20.365,11.136 20.365,10.617 C20.365,10.098 20.788,9.675 21.307,9.675 L47.885,9.675 C48.404,9.675 48.827,10.098 48.827,10.617 C48.827,11.136 48.404,11.559 47.885,11.559" id="Fill-42" fill="#1B1A18" sketch:type="MSShapeGroup"></path>
                <path d="M21.307,32.918 L30.84,32.918" id="Fill-43" fill="#FFFFFF" sketch:type="MSShapeGroup"></path>
                <path d="M30.84,33.86 L21.307,33.86 C20.788,33.86 20.365,33.437 20.365,32.918 C20.365,32.399 20.788,31.976 21.307,31.976 L30.84,31.976 C31.359,31.976 31.782,32.399 31.782,32.918 C31.782,33.437 31.359,33.86 30.84,33.86" id="Fill-44" fill="#1B1A18" sketch:type="MSShapeGroup"></path>
                <path d="M50.461,32.918 L59.994,32.918" id="Fill-45" fill="#FFFFFF" sketch:type="MSShapeGroup"></path>
                <path d="M59.994,33.86 L50.462,33.86 C49.943,33.86 49.519,33.437 49.519,32.918 C49.519,32.399 49.943,31.976 50.462,31.976 L59.994,31.976 C60.513,31.976 60.937,32.399 60.937,32.918 C60.937,33.437 60.513,33.86 59.994,33.86" id="Fill-46" fill="#1B1A18" sketch:type="MSShapeGroup"></path>
            </g>
        </g>
    </g>
</svg>