<?xml version="1.0" encoding="UTF-8" standalone="no"?>
<svg width="79px" height="79px" viewBox="0 0 79 79" version="1.1" xmlns="http://www.w3.org/2000/svg" xmlns:xlink="http://www.w3.org/1999/xlink">
    <!-- Generator: Sketch 3.7.2 (28276) - http://www.bohemiancoding.com/sketch -->
    <title>icon-01</title>
    <desc>Created with Sketch.</desc>
    <defs></defs>
    <g id="Page-1" stroke="none" stroke-width="1" fill="none" fill-rule="evenodd">
        <g id="Artboard-2" transform="translate(-426.000000, -388.000000)">
            <g id="Page-1" transform="translate(448.000000, 400.000000)">
                <path d="M21.1682,0.5 C26.4782,2.013 31.1012,5.175 34.4432,9.395" id="Stroke-1" stroke="#8890A0" stroke-linecap="round" stroke-linejoin="round"></path>
                <path d="M20.7923,5.9155 C23.8253,7.0595 26.5423,8.8545 28.7693,11.1305" id="Stroke-3" stroke="#8890A0" stroke-linecap="round" stroke-linejoin="round"></path>
                <path d="M33.2875,25.5109 C33.8475,17.7989 27.0195,11.5109 19.2875,11.5109 C11.5555,11.5109 4.5465,17.8149 5.2875,25.5109 C5.4135,26.8249 5.4325,27.0639 5.6505,27.9209 C6.3915,30.8439 7.8615,33.5309 9.8075,35.8329 L19.2875,47.0529 L28.7675,35.8329 C30.7135,33.5309 32.1835,30.8439 32.9245,27.9209 C33.1425,27.0639 33.2205,26.4319 33.2875,25.5109" id="Fill-5" fill="#ECECFF"></path>
                <path d="M28.0539,25.5109 C28.6139,17.7989 21.7859,11.5109 14.0539,11.5109 C6.3219,11.5109 -0.6871,17.8149 0.0539,25.5109 C0.1799,26.8249 0.1989,27.0639 0.4169,27.9209 C1.1579,30.8439 2.6279,33.5309 4.5739,35.8329 L14.0539,47.0529 L23.5339,35.8329 C25.4799,33.5309 26.9499,30.8439 27.6909,27.9209 C27.9089,27.0639 27.9869,26.4319 28.0539,25.5109 L28.0539,25.5109 Z" id="Stroke-7" stroke="#8890A0" stroke-width="2" stroke-linecap="round" stroke-linejoin="round"></path>
                <path d="M19.2766,25.2192 C19.2766,28.1032 16.9386,30.4422 14.0536,30.4422 C11.1696,30.4422 8.8316,28.1032 8.8316,25.2192 C8.8316,22.3352 11.1696,19.9962 14.0536,19.9962 C16.9386,19.9962 19.2766,22.3352 19.2766,25.2192" id="Fill-9" fill="#8890A0"></path>
                <path d="M23.6653,53.971 C23.6653,54.973 19.3623,55.784 14.0543,55.784 C8.7453,55.784 4.4423,54.973 4.4423,53.971 C4.4423,52.969 8.7453,52.158 14.0543,52.158 C19.3623,52.158 23.6653,52.969 23.6653,53.971" id="Fill-11" fill="#E9E9ED"></path>
            </g>
        </g>
    </g>
</svg>