<?xml version="1.0" encoding="UTF-8" standalone="no"?>
<svg width="34px" height="23px" viewBox="0 0 34 23" version="1.1" xmlns="http://www.w3.org/2000/svg" xmlns:xlink="http://www.w3.org/1999/xlink">
    <!-- Generator: Sketch 3.8.2 (29753) - http://www.bohemiancoding.com/sketch -->
    <title></title>
    <desc>Created with Sketch.</desc>
    <defs></defs>
    <g id="Page-1" stroke="none" stroke-width="1" fill="none" fill-rule="evenodd">
        <g id="Artboard-1-Copy" transform="translate(-651.000000, -678.000000)" stroke="#F0F0F5" fill="#6450F0">
            <g id="Group-6" transform="translate(244.000000, 599.000000)">
                <g id="Group-5" transform="translate(408.000000, 15.000000)">
                    <g id="Group-9" transform="translate(0.000000, 60.000000)">
                        <path d="M12.8571429,19.5714286 L19.2857143,19.5714286 L19.2857143,17.9642857 L17.1428571,17.9642857 L17.1428571,10.4642857 L15.234375,10.4642857 L12.7566964,12.7578125 L14.0457589,14.0970982 C14.5145113,13.6841497 14.8214278,13.3660725 14.9665179,13.1428571 L15,13.1428571 L15,17.9642857 L12.8571429,17.9642857 L12.8571429,19.5714286 Z M21.4285714,15.2857143 C21.4285714,16.0669682 21.3113851,16.859371 21.0770089,17.6629464 C20.8426328,18.4665219 20.5106048,19.2142823 20.0809152,19.90625 C19.6512255,20.5982177 19.0848249,21.1618282 18.3816964,21.5970982 C17.6785679,22.0323682 16.9084863,22.25 16.0714286,22.25 C15.2343708,22.25 14.4642892,22.0323682 13.7611607,21.5970982 C13.0580322,21.1618282 12.4916316,20.5982177 12.061942,19.90625 C11.6322523,19.2142823 11.3002244,18.4665219 11.0658482,17.6629464 C10.831472,16.859371 10.7142857,16.0669682 10.7142857,15.2857143 C10.7142857,14.5044604 10.831472,13.7120576 11.0658482,12.9084821 C11.3002244,12.1049067 11.6322523,11.3571463 12.061942,10.6651786 C12.4916316,9.97321083 13.0580322,9.40960039 13.7611607,8.97433036 C14.4642892,8.53906032 15.2343708,8.32142857 16.0714286,8.32142857 C16.9084863,8.32142857 17.6785679,8.53906032 18.3816964,8.97433036 C19.0848249,9.40960039 19.6512255,9.97321083 20.0809152,10.6651786 C20.5106048,11.3571463 20.8426328,12.1049067 21.0770089,12.9084821 C21.3113851,13.7120576 21.4285714,14.5044604 21.4285714,15.2857143 L21.4285714,15.2857143 Z M30,19.5714286 L30,11 C28.8169584,11 27.8069238,10.5814774 26.9698661,9.74441964 C26.1328083,8.90736189 25.7142857,7.89732734 25.7142857,6.71428571 L6.42857143,6.71428571 C6.42857143,7.89732734 6.01004883,8.90736189 5.17299107,9.74441964 C4.33593331,10.5814774 3.32589877,11 2.14285714,11 L2.14285714,19.5714286 C3.32589877,19.5714286 4.33593331,19.9899512 5.17299107,20.8270089 C6.01004883,21.6640667 6.42857143,22.6741012 6.42857143,23.8571429 L25.7142857,23.8571429 C25.7142857,22.6741012 26.1328083,21.6640667 26.9698661,20.8270089 C27.8069238,19.9899512 28.8169584,19.5714286 30,19.5714286 L30,19.5714286 Z M32.1428571,5.64285714 L32.1428571,24.9285714 C32.1428571,25.2187515 32.0368314,25.469865 31.8247768,25.6819196 C31.6127222,25.8939743 31.3616086,26 31.0714286,26 L1.07142857,26 C0.781248549,26 0.530134989,25.8939743 0.318080357,25.6819196 C0.106025725,25.469865 0,25.2187515 0,24.9285714 L0,5.64285714 C0,5.35267712 0.106025725,5.10156356 0.318080357,4.88950893 C0.530134989,4.6774543 0.781248549,4.57142857 1.07142857,4.57142857 L31.0714286,4.57142857 C31.3616086,4.57142857 31.6127222,4.6774543 31.8247768,4.88950893 C32.0368314,5.10156356 32.1428571,5.35267712 32.1428571,5.64285714 L32.1428571,5.64285714 Z" id=""></path>
                    </g>
                </g>
            </g>
        </g>
    </g>
</svg>