<?xml version="1.0" encoding="UTF-8" standalone="no"?>
<svg width="87px" height="83px" viewBox="0 0 87 83" version="1.1" xmlns="http://www.w3.org/2000/svg" xmlns:xlink="http://www.w3.org/1999/xlink" xmlns:sketch="http://www.bohemiancoding.com/sketch/ns">
    <!-- Generator: Sketch 3.4 (15575) - http://www.bohemiancoding.com/sketch -->
    <title>emails</title>
    <desc>Created with Sketch.</desc>
    <defs>
        <path id="path-1" d="M0.06,0.667 L86.061,0.667 L86.061,82.94 L0.06,82.94 L0.06,0.667 Z"></path>
    </defs>
    <g id="Page-1" stroke="none" stroke-width="1" fill="none" fill-rule="evenodd" sketch:type="MSPage">
        <g id="Explore-Copy-2" sketch:type="MSArtboardGroup" transform="translate(-22.000000, -158.000000)">
            <g id="emails" sketch:type="MSLayerGroup" transform="translate(22.000000, 158.000000)">
                <g id="Group-4">
                    <mask id="mask-2" sketch:name="Clip 2" fill="white">
                        <use xlink:href="#path-1"></use>
                    </mask>
                    <g id="Clip-2"></g>
                    <path d="M1.509,29.943 L84.552,29.943 L84.552,81.491 L1.509,81.491 L1.509,29.943 Z" id="Fill-1" fill="#FFFFFF" sketch:type="MSShapeGroup" mask="url(#mask-2)"></path>
                    <path d="M3.018,79.982 L83.043,79.982 L83.043,31.453 L3.018,31.453 L3.018,79.982 Z M84.552,83 L1.509,83 C0.677,83 0,82.322 0,81.491 L0,29.943 C0,29.111 0.677,28.434 1.509,28.434 L84.552,28.434 C85.383,28.434 86.061,29.111 86.061,29.943 L86.061,81.491 C86.061,82.322 85.383,83 84.552,83 L84.552,83 Z" id="Fill-3" fill="#1B1A18" sketch:type="MSShapeGroup" mask="url(#mask-2)"></path>
                </g>
                <path d="M3.018,31.452 L83.043,31.452 L83.043,79.981 L3.018,79.981 L3.018,31.452 Z M6.109,33.624 L30.416,53.447 L55.975,53.447 L80.599,33.624 L77.434,33.624 L54.297,52.034 L31.992,52.034 L9.29,33.624 L6.109,33.624 L6.109,33.624 Z" id="Fill-5" fill="#9BD5E6" sketch:type="MSShapeGroup"></path>
                <path d="M1.858,29.944 L84.908,29.944 L84.908,81.491 L1.858,81.491 L1.858,29.944 Z M3.018,79.982 L83.043,79.982 L83.043,31.453 L3.018,31.453 L3.018,79.982 Z" id="Fill-6" fill="#131716" sketch:type="MSShapeGroup"></path>
                <path d="M55.975,53.447 L30.416,53.447 L6.109,33.624 L9.29,33.624 L31.992,52.034 L54.297,52.034 L77.434,33.624 L80.599,33.624 L55.975,53.447" id="Fill-7" fill="#83B5C3" sketch:type="MSShapeGroup"></path>
                <path d="M1.509,82.246 C1.31,82.246 1.112,82.168 0.964,82.013 C0.677,81.715 0.684,81.237 0.987,80.95 L31.469,51.494 C31.61,51.357 31.793,51.279 31.992,51.279 L54.297,51.279 C54.496,51.279 54.68,51.357 54.82,51.494 L85.074,80.95 C85.376,81.241 85.383,81.719 85.089,82.017 C84.795,82.304 84.309,82.315 84.029,82.031 L53.988,52.789 L32.294,52.789 L2.031,82.031 C1.884,82.175 1.7,82.246 1.509,82.246" id="Fill-8" fill="#1B1A18" sketch:type="MSShapeGroup"></path>
                <path d="M54.297,52.789 L31.992,52.789 C31.823,52.789 31.653,52.73 31.521,52.62 L5.543,31.556 C5.219,31.294 5.167,30.819 5.425,30.495 C5.705,30.172 6.183,30.124 6.485,30.385 L32.257,51.279 L54.032,51.279 L81.843,29.152 C82.174,28.887 82.645,28.949 82.902,29.269 C83.16,29.597 83.109,30.072 82.785,30.33 L54.768,52.624 C54.635,52.73 54.466,52.789 54.297,52.789" id="Fill-9" fill="#1B1A18" sketch:type="MSShapeGroup"></path>
                <path d="M80.282,77.236 L80.304,64.504 C80.304,64.31 80.466,64.151 80.658,64.151 C80.857,64.151 81.011,64.31 81.011,64.504 L81.033,77.236 C81.033,77.445 80.863,77.615 80.658,77.615 C80.451,77.615 80.282,77.445 80.282,77.236" id="Fill-10" fill="#1B1A18" sketch:type="MSShapeGroup"></path>
                <path d="M77.213,74.475 L77.352,67.265 C77.352,67.136 77.463,67.033 77.595,67.033 C77.72,67.037 77.823,67.14 77.823,67.265 L77.964,74.475 C77.97,74.685 77.801,74.854 77.595,74.858 C77.389,74.862 77.213,74.7 77.213,74.49 L77.213,74.475" id="Fill-11" fill="#1B1A18" sketch:type="MSShapeGroup"></path>
                <path d="M6.485,30.385 L6.485,2.176 L80.282,2.176 L80.282,30.385 L54.768,52.624 L31.521,52.624 L6.485,30.385" id="Fill-12" fill="#F4F3F1" sketch:type="MSShapeGroup"></path>
                <path d="M32.094,51.113 L54.204,51.113 L78.772,29.7 L78.772,3.685 L7.993,3.685 L7.993,29.707 L32.094,51.113 L32.094,51.113 Z M54.767,54.132 L31.52,54.132 C31.152,54.132 30.795,53.995 30.519,53.749 L5.483,31.51 C5.159,31.227 4.975,30.815 4.975,30.384 L4.975,2.176 C4.975,1.344 5.652,0.667 6.484,0.667 L80.281,0.667 C81.113,0.667 81.79,1.344 81.79,2.176 L81.79,30.384 C81.79,30.819 81.599,31.234 81.271,31.521 L55.757,53.76 C55.485,53.999 55.131,54.132 54.767,54.132 L54.767,54.132 Z" id="Fill-13" fill="#1B1A18" sketch:type="MSShapeGroup"></path>
                <path d="M17.586,14.889 L64.698,14.889" id="Fill-14" fill="#F4F3F1" sketch:type="MSShapeGroup"></path>
                <path d="M64.697,16.206 L17.585,16.206 C16.856,16.206 16.267,15.617 16.267,14.889 C16.267,14.16 16.856,13.571 17.585,13.571 L64.697,13.571 C65.426,13.571 66.015,14.16 66.015,14.889 C66.015,15.617 65.426,16.206 64.697,16.206" id="Fill-15" fill="#1B1A18" sketch:type="MSShapeGroup"></path>
                <path d="M17.586,24.294 L51.507,24.294" id="Fill-16" fill="#F4F3F1" sketch:type="MSShapeGroup"></path>
                <path d="M51.506,25.61 L17.585,25.61 C16.856,25.61 16.267,25.021 16.267,24.293 C16.267,23.564 16.856,22.975 17.585,22.975 L51.506,22.975 C52.235,22.975 52.824,23.564 52.824,24.293 C52.824,25.021 52.235,25.61 51.506,25.61" id="Fill-17" fill="#1B1A18" sketch:type="MSShapeGroup"></path>
                <path d="M17.586,33.624 L59.987,33.624" id="Fill-18" fill="#F4F3F1" sketch:type="MSShapeGroup"></path>
                <path d="M59.986,34.941 L17.585,34.941 C16.856,34.941 16.267,34.352 16.267,33.623 C16.267,32.894 16.856,32.305 17.585,32.305 L59.986,32.305 C60.715,32.305 61.304,32.894 61.304,33.623 C61.304,34.352 60.715,34.941 59.986,34.941" id="Fill-19" fill="#1B1A18" sketch:type="MSShapeGroup"></path>
            </g>
        </g>
    </g>
</svg>