<?xml version="1.0" encoding="UTF-8" standalone="no"?>
<svg width="79px" height="79px" viewBox="0 0 79 79" version="1.1" xmlns="http://www.w3.org/2000/svg" xmlns:xlink="http://www.w3.org/1999/xlink">
    <!-- Generator: Sketch 3.7.2 (28276) - http://www.bohemiancoding.com/sketch -->
    <title>icon-03</title>
    <desc>Created with Sketch.</desc>
    <defs></defs>
    <g id="Page-1" stroke="none" stroke-width="1" fill="none" fill-rule="evenodd">
        <g id="Artboard-2" transform="translate(-616.000000, -388.000000)">
            <g id="Page-1" transform="translate(634.000000, 401.000000)">
                <polygon id="Fill-1" fill="#ECECFF" points="3.769 52.7399 39.609 52.7399 39.609 8.5209 3.769 8.5209"></polygon>
                <polygon id="Stroke-2" stroke="#8890A0" stroke-width="2" stroke-linecap="round" stroke-linejoin="round" points="0 52.7399 35.84 52.7399 35.84 8.5209 0 8.5209"></polygon>
                <path d="M10.7675,14.0586 L25.0725,14.0586" id="Stroke-4" stroke="#8890A0" stroke-linecap="round" stroke-linejoin="round"></path>
                <path d="M5.6914,25.5953 L14.4594,25.5953" id="Stroke-5" stroke="#8890A0" stroke-linecap="round" stroke-linejoin="round"></path>
                <path d="M25.9959,25.5953 L30.1489,25.5953" id="Stroke-6" stroke="#8890A0" stroke-linecap="round" stroke-linejoin="round"></path>
                <path d="M25.9959,43.4771 L30.1489,43.4771" id="Stroke-7" stroke="#8890A0" stroke-linecap="round" stroke-linejoin="round"></path>
                <path d="M5.6914,32.3634 L14.4594,32.3634" id="Stroke-8" stroke="#8890A0" stroke-linecap="round" stroke-linejoin="round"></path>
                <path d="M25.9959,32.3634 L30.1489,32.3634" id="Stroke-9" stroke="#8890A0" stroke-linecap="round" stroke-linejoin="round"></path>
                <path d="M5.6914,19.5962 L30.1494,19.5962" id="Stroke-10" stroke="#8890A0" stroke-width="0.5"></path>
                <path d="M5.6914,39.2854 L30.1494,39.2854" id="Stroke-11" stroke="#8890A0" stroke-width="0.5"></path>
                <g id="Group-18" transform="translate(26.000000, 0.739900)">
                    <path d="M17.0154,9.0887 C17.0154,13.6887 13.2864,17.4177 8.6864,17.4177 C4.0874,17.4177 0.3584,13.6887 0.3584,9.0887 C0.3584,4.4887 4.0874,0.7597 8.6864,0.7597 C13.2864,0.7597 17.0154,4.4887 17.0154,9.0887" id="Fill-12" fill="#ECECFF"></path>
                    <path d="M17.0154,9.0887 C17.0154,13.6887 13.2864,17.4177 8.6864,17.4177 C4.0874,17.4177 0.3584,13.6887 0.3584,9.0887 C0.3584,4.4887 4.0874,0.7597 8.6864,0.7597 C13.2864,0.7597 17.0154,4.4887 17.0154,9.0887 L17.0154,9.0887 Z" id="Stroke-14" stroke="#8890A0" stroke-linecap="round" stroke-linejoin="round"></path>
                    <polyline id="Stroke-16" stroke="#8890A0" stroke-linecap="round" stroke-linejoin="round" points="4.377 9.0887 7.27 11.4507 13.587 5.9597"></polyline>
                </g>
            </g>
        </g>
    </g>
</svg>