<?xml version="1.0" encoding="UTF-8" standalone="no"?>
<svg width="100px" height="119px" viewBox="0 0 100 119" version="1.1" xmlns="http://www.w3.org/2000/svg" xmlns:xlink="http://www.w3.org/1999/xlink" xmlns:sketch="http://www.bohemiancoding.com/sketch/ns">
    <!-- Generator: Sketch 3.4 (15575) - http://www.bohemiancoding.com/sketch -->
    <title>invoice</title>
    <desc>Created with Sketch.</desc>
    <defs>
        <path id="path-1" d="M0.06,0.082 L99.738,0.082 L99.738,118.94 L0.06,118.94 L0.06,0.082 Z"></path>
    </defs>
    <g id="Page-1" stroke="none" stroke-width="1" fill="none" fill-rule="evenodd" sketch:type="MSPage">
        <g id="Explore-Copy-2" sketch:type="MSArtboardGroup" transform="translate(-41.000000, -270.000000)">
            <g id="invoice" sketch:type="MSLayerGroup" transform="translate(41.000000, 270.000000)">
                <g id="Group-4">
                    <mask id="mask-2" sketch:name="Clip 2" fill="white">
                        <use xlink:href="#path-1"></use>
                    </mask>
                    <g id="Clip-2"></g>
                    <path d="M1.509,1.59 L98.23,1.59 L98.23,117.491 L1.509,117.491 L1.509,1.59 Z" id="Fill-1" fill="#FFFFFF" sketch:type="MSShapeGroup" mask="url(#mask-2)"></path>
                    <path d="M3.018,115.982 L96.72,115.982 L96.72,3.1 L3.018,3.1 L3.018,115.982 Z M98.229,119 L1.509,119 C0.677,119 0,118.323 0,117.491 L0,1.591 C0,0.759 0.677,0.082 1.509,0.082 L98.229,0.082 C99.061,0.082 99.738,0.759 99.738,1.591 L99.738,117.491 C99.738,118.323 99.061,119 98.229,119 L98.229,119 Z" id="Fill-3" fill="#1B1A18" sketch:type="MSShapeGroup" mask="url(#mask-2)"></path>
                </g>
                <path d="M23.14,30.319 L10.81,30.319 C10.394,30.319 10.056,29.98 10.056,29.564 C10.056,29.148 10.394,28.81 10.81,28.81 L23.14,28.81 C23.556,28.81 23.895,29.148 23.895,29.564 C23.895,29.98 23.556,30.319 23.14,30.319" id="Fill-5" fill="#1B1A18" sketch:type="MSShapeGroup"></path>
                <path d="M86.889,34.805 L10.81,34.805 C10.394,34.805 10.056,34.467 10.056,34.051 C10.056,33.635 10.394,33.296 10.81,33.296 L86.889,33.296 C87.305,33.296 87.644,33.635 87.644,34.051 C87.644,34.467 87.305,34.805 86.889,34.805" id="Fill-6" fill="#1B1A18" sketch:type="MSShapeGroup"></path>
                <path d="M86.889,30.079 L74.559,30.079 C74.143,30.079 73.804,29.741 73.804,29.325 C73.804,28.909 74.143,28.57 74.559,28.57 L86.889,28.57 C87.305,28.57 87.644,28.909 87.644,29.325 C87.644,29.741 87.305,30.079 86.889,30.079" id="Fill-7" fill="#1B1A18" sketch:type="MSShapeGroup"></path>
                <text id="INVOICE" sketch:type="MSTextLayer" font-family="Proxima Nova" font-size="8.5585" font-weight="bold" fill="#393A38">
                    <tspan x="55.2822" y="24.2631827">IN</tspan>
                    <tspan x="63.8663755" y="24.2631827" letter-spacing="-0.17117">V</tspan>
                    <tspan x="69.3780495" y="24.2631827">OICE</tspan>
                </text>
                <path d="M88.737,47.96 L10.81,47.96 C10.575,47.96 10.379,47.765 10.379,47.529 C10.379,47.294 10.575,47.099 10.81,47.099 L88.737,47.099 C88.972,47.099 89.167,47.294 89.167,47.529 C89.167,47.765 88.972,47.96 88.737,47.96" id="Fill-8" fill="#E6E7E3" sketch:type="MSShapeGroup"></path>
                <path d="M88.737,58.325 L10.81,58.325 C10.575,58.325 10.379,58.13 10.379,57.894 C10.379,57.658 10.575,57.463 10.81,57.463 L88.737,57.463 C88.972,57.463 89.167,57.658 89.167,57.894 C89.167,58.13 88.972,58.325 88.737,58.325" id="Fill-9" fill="#E6E7E3" sketch:type="MSShapeGroup"></path>
                <path d="M88.737,82.827 L10.81,82.827 C10.575,82.827 10.379,82.632 10.379,82.396 C10.379,82.16 10.575,81.965 10.81,81.965 L88.737,81.965 C88.972,81.965 89.167,82.16 89.167,82.396 C89.167,82.632 88.972,82.827 88.737,82.827" id="Fill-10" fill="#E6E7E3" sketch:type="MSShapeGroup"></path>
                <path d="M88.737,95.462 L68.762,95.462 C68.526,95.462 68.331,95.267 68.331,95.032 C68.331,94.796 68.526,94.601 68.762,94.601 L88.737,94.601 C88.972,94.601 89.167,94.796 89.167,95.032 C89.167,95.267 88.972,95.462 88.737,95.462" id="Fill-11" fill="#CCCDC9" sketch:type="MSShapeGroup"></path>
                <path d="M88.737,108.08 L68.762,108.08 C68.526,108.08 68.331,107.884 68.331,107.649 C68.331,107.413 68.526,107.218 68.762,107.218 L88.737,107.218 C88.972,107.218 89.167,107.413 89.167,107.649 C89.167,107.884 88.972,108.08 88.737,108.08" id="Fill-12" fill="#CCCDC9" sketch:type="MSShapeGroup"></path>
                <path d="M25.408,53.072 L10.81,53.072 C10.446,53.072 10.151,52.778 10.151,52.413 C10.151,52.049 10.446,51.755 10.81,51.755 L25.408,51.755 C25.772,51.755 26.066,52.049 26.066,52.413 C26.066,52.778 25.772,53.072 25.408,53.072" id="Fill-13" fill="#1B1A18" sketch:type="MSShapeGroup"></path>
                <path d="M87.783,64.019 L10.81,64.019 C10.394,64.019 10.056,63.68 10.056,63.264 C10.056,62.848 10.394,62.51 10.81,62.51 L87.783,62.51 C88.199,62.51 88.538,62.848 88.538,63.264 C88.538,63.68 88.199,64.019 87.783,64.019" id="Fill-14" fill="#797B79" sketch:type="MSShapeGroup"></path>
                <path d="M59.873,70.949 L10.81,70.949 C10.394,70.949 10.056,70.611 10.056,70.195 C10.056,69.779 10.394,69.44 10.81,69.44 L59.873,69.44 C60.289,69.44 60.628,69.779 60.628,70.195 C60.628,70.611 60.289,70.949 59.873,70.949" id="Fill-15" fill="#797B79" sketch:type="MSShapeGroup"></path>
                <path d="M87.783,53.072 L73.186,53.072 C72.822,53.072 72.527,52.778 72.527,52.413 C72.527,52.049 72.822,51.755 73.186,51.755 L87.783,51.755 C88.148,51.755 88.442,52.049 88.442,52.413 C88.442,52.778 88.148,53.072 87.783,53.072" id="Fill-16" fill="#1B1A18" sketch:type="MSShapeGroup"></path>
                <path d="M87.783,89.367 L79.844,89.367 C79.428,89.367 79.09,89.029 79.09,88.613 C79.09,88.197 79.428,87.858 79.844,87.858 L87.783,87.858 C88.199,87.858 88.538,88.197 88.538,88.613 C88.538,89.029 88.199,89.367 87.783,89.367" id="Fill-17" fill="#797B79" sketch:type="MSShapeGroup"></path>
                <path d="M79.844,89.367 L73.186,89.367 C72.77,89.367 72.432,89.029 72.432,88.613 C72.432,88.197 72.77,87.858 73.186,87.858 L79.844,87.858 C80.26,87.858 80.599,88.197 80.599,88.613 C80.599,89.029 80.26,89.367 79.844,89.367" id="Fill-18" fill="#797B79" sketch:type="MSShapeGroup"></path>
                <path d="M86.087,102.312 L76.204,102.312 C75.788,102.312 75.45,101.973 75.45,101.557 C75.45,101.142 75.788,100.803 76.204,100.803 L86.087,100.803 C86.503,100.803 86.841,101.142 86.841,101.557 C86.841,101.973 86.503,102.312 86.087,102.312" id="Fill-19" fill="#1B1A18" sketch:type="MSShapeGroup"></path>
                <path d="M31.385,104.575 C30.642,104.575 29.983,104.345 29.229,104.078 C28.674,103.884 28.047,103.664 27.283,103.502 C26.686,103.377 26.299,103.298 26.058,103.199 C25.503,103.314 24.216,103.889 23.368,104.308 C23.201,104.392 23.023,104.34 22.908,104.209 L21.736,102.738 L20.469,103.157 C20.354,103.183 20.176,103.167 20.071,103.047 L19.307,102.157 L18.523,104.109 C18.47,104.256 18.324,104.35 18.177,104.35 C18.156,104.35 18.135,104.345 18.104,104.34 C17.926,104.308 17.8,104.151 17.8,103.973 C17.8,102.299 17.539,99.75 16.953,99.326 C16.9,99.29 16.869,99.274 16.785,99.305 C15.916,99.598 15.33,102.225 15.205,103.999 C15.184,104.198 15.027,104.35 14.828,104.35 C14.818,104.35 14.807,104.35 14.797,104.345 C14.598,104.334 14.441,104.151 14.451,103.947 C14.493,103.455 14.859,99.159 16.555,98.594 C16.848,98.494 17.131,98.526 17.392,98.719 C18.083,99.216 18.366,100.865 18.481,102.204 L18.836,101.31 C18.878,101.184 18.993,101.095 19.119,101.074 C19.265,101.095 19.381,101.106 19.464,101.2 L20.469,102.367 L21.746,101.943 C21.851,101.901 22.06,101.938 22.154,102.063 L23.305,103.502 C23.923,103.204 25.21,102.602 25.943,102.461 C26.027,102.409 26.173,102.403 26.351,102.403 C26.477,102.419 26.602,102.492 26.676,102.597 C26.843,102.639 27.084,102.696 27.429,102.77 C28.256,102.942 28.905,103.173 29.48,103.371 C30.255,103.644 30.872,103.874 31.532,103.816 C31.762,103.785 31.919,103.963 31.929,104.172 C31.94,104.381 31.783,104.554 31.574,104.57 C31.511,104.57 31.448,104.575 31.385,104.575" id="Fill-20" fill="#1B1A18" sketch:type="MSShapeGroup"></path>
                <path d="M59.873,102.312 L45.276,102.312 C44.86,102.312 44.521,101.973 44.521,101.557 C44.521,101.142 44.86,100.803 45.276,100.803 L59.873,100.803 C60.289,100.803 60.628,101.142 60.628,101.557 C60.628,101.973 60.289,102.312 59.873,102.312" id="Fill-21" fill="#1B1A18" sketch:type="MSShapeGroup"></path>
                <path d="M52.574,39.62 L10.81,39.62 C10.394,39.62 10.056,39.281 10.056,38.865 C10.056,38.449 10.394,38.11 10.81,38.11 L52.574,38.11 C52.99,38.11 53.329,38.449 53.329,38.865 C53.329,39.281 52.99,39.62 52.574,39.62" id="Fill-22" fill="#1B1A18" sketch:type="MSShapeGroup"></path>
                <path d="M14.369,24.63 C14.072,24.63 13.775,24.517 13.549,24.294 L10.47,21.218 C10.018,20.767 10.018,20.034 10.47,19.582 C10.922,19.13 11.658,19.133 12.11,19.579 L14.369,21.838 L21.528,14.676 C21.979,14.224 22.715,14.224 23.167,14.676 C23.619,15.125 23.619,15.857 23.167,16.309 L15.189,24.291 C14.963,24.517 14.666,24.63 14.369,24.63" id="Fill-23" fill="#AB2530" sketch:type="MSShapeGroup"></path>
                <path d="M20.017,24.94 C19.597,24.94 19.171,24.778 18.849,24.456 C18.203,23.81 18.203,22.764 18.849,22.119 L26.549,14.415 C27.188,13.776 28.234,13.763 28.886,14.415 C29.532,15.06 29.532,16.106 28.886,16.751 L21.185,24.456 C20.863,24.778 20.443,24.94 20.017,24.94" id="Fill-24" fill="#EA8A2F" sketch:type="MSShapeGroup"></path>
            </g>
        </g>
    </g>
</svg>