<?xml version="1.0" encoding="UTF-8" standalone="no"?>
<svg xmlns:sketch="http://www.bohemiancoding.com/sketch/ns" xmlns="http://www.w3.org/2000/svg" height="165px" width="245px" version="1.1" xmlns:xlink="http://www.w3.org/1999/xlink" viewBox="0 0 245 165"><!-- Generator: Sketch 3.4 (15575) - http://www.bohemiancoding.com/sketch -->
 <title>9</title>
 <desc>Created with Sketch.</desc>
 <defs>
  <path id="path-1" d="m0 165h244.22v-164.78l-244.22-0.004v164.78z"/>
 </defs>
 <g id="Page-1" fill-rule="evenodd" sketch:type="MSPage" fill="none">
  <g id="9" sketch:type="MSLayerGroup">
   <g id="Group-3">
    <mask id="mask-2" sketch:name="Clip 2" fill="white">
     <use xlink:href="#path-1"/>
    </mask>
    <path id="Fill-1" sketch:type="MSShapeGroup" fill="#FBF9D6" mask="url(#mask-2)" d="m218.81 136.43c0.19 0 0.17 0.02 0 0zm-2.66-1.2c0.26 0.17 0.52 0.3 0.75 0.47-0.23-0.13-0.48-0.28-0.75-0.47zm19.36-33.83c-18.61-13.031-45.83 2.99-65.39 14.23 1.26-2.14 2.5-4.3 3.68-6.49 9.83-18.309 7.32-41.298-17.5-43.063-26.62-1.871-53.07 25.776-69.544 42.393-3.741 3.78-12.005 12.55-19.239 14.4 1.518-2.45 3.474-4.83 4.924-6.88 11.643-16.474 28.069-29.463 41.129-44.778 14.57-17.063 15.93-39.013-8.64-47.926-12.61-4.571-34.216 5.726-45.162 10.831-17.654 8.236-33.715 19.105-50.454 29.002-21.605 12.787-1.708 46.281 19.955 33.477 6.012-3.56 11.947-7.243 17.893-10.879-1.165 1.392-2.338 2.777-3.474 4.208-11.919 15.065-22.712 33.375-14.171 52.665 9.361 21.18 37.504 23 55.865 14.43 12.835-6.01 22.818-15.97 32.888-25.71-3.29 14.43 1.98 27.77 19.7 32.6 14.07 3.86 29.15-3.34 41.56-8.98 8.35-3.77 16.16-8.71 24.27-12.89 3.3-1.76 6.7-3.21 10.25-4.4 2.05-0.77 3.37-1.06 4.11-1.15 19.82 10.96 37.08-21.28 17.35-35.09z"/>
   </g>
   <path id="Fill-4" sketch:type="MSShapeGroup" fill="#B89267" d="m7.719 103.43c-0.386 0.21-0.8 0.35-1.24 0.36 0.44-0.01 0.854-0.15 1.24-0.36"/>
   <path id="Fill-5" sketch:type="MSShapeGroup" fill="#B89267" d="m8.903 102.21c-0.204 0.45-0.54 0.79-0.911 1.05 0.371-0.26 0.707-0.59 0.911-1.05"/>
   <path id="Fill-6" sketch:type="MSShapeGroup" fill="#B89267" d="m6.415 103.8c-0.358 0-0.721-0.07-1.065-0.22 0.344 0.15 0.707 0.22 1.065 0.22"/>
   <path id="Fill-7" sketch:type="MSShapeGroup" fill="#B89267" d="m192.06 78.123c-0.16 0.511-0.5 0.904-0.89 1.226 0.39-0.322 0.72-0.715 0.89-1.226"/>
   <path id="Fill-8" sketch:type="MSShapeGroup" fill="#B89267" d="m190.94 79.517c-0.4 0.267-0.86 0.428-1.36 0.448 0.5-0.013 0.96-0.174 1.36-0.448"/>
   <path id="Fill-9" sketch:type="MSShapeGroup" fill="#B89267" d="m112.5 44.831c-0.42-0.631-0.53-1.373-0.39-2.061-0.45 0.288-0.84 0.554-0.96 0.751-0.92 1.555 0.02 2.704 0.65 3.236 0.56-0.37 1.15-0.694 1.74-1.03-0.05-0.026-0.09-0.061-0.14-0.09-0.34-0.197-0.66-0.449-0.9-0.806"/>
   <path id="Fill-10" sketch:type="MSShapeGroup" fill="#B89267" d="m113.4 45.637c-0.34-0.197-0.66-0.456-0.9-0.806 0.24 0.357 0.56 0.609 0.9 0.806"/>
   <path id="Fill-11" sketch:type="MSShapeGroup" fill="#B89267" d="m113.85 43.157c-0.02 0.139-0.04 0.405 0.14 0.672 0.16 0.245 0.44 0.392 0.75 0.392 0.13 0 0.32-0.021 0.5-0.147 0.01-0.007 2.99-1.955 6.66-3.111-0.22-0.624-0.41-1.184-0.59-1.674-3.67 1.156-6.63 3.005-7.09 3.3-0.26 0.174-0.34 0.434-0.37 0.568"/>
   <path id="Fill-12" sketch:type="MSShapeGroup" fill="#B89267" d="m113.4 45.637c0.05 0.029 0.09 0.064 0.14 0.09 0.01-0.006 0.02-0.013 0.03-0.02-0.05-0.028-0.11-0.035-0.17-0.07"/>
   <path id="Fill-13" sketch:type="MSShapeGroup" fill="#B89267" d="m112.5 44.831c0.24 0.35 0.56 0.609 0.9 0.806 0.06 0.035 0.12 0.042 0.17 0.07 3.34-1.934 6.98-3.343 8.62-3.918-0.1-0.285-0.19-0.553-0.29-0.826-3.67 1.156-6.65 3.104-6.66 3.111-0.18 0.126-0.37 0.147-0.5 0.147-0.31 0-0.59-0.147-0.75-0.392-0.18-0.267-0.16-0.533-0.14-0.672 0.03-0.134 0.11-0.394 0.37-0.568 0.46-0.295 3.42-2.144 7.09-3.3-0.05-0.161-0.11-0.365-0.17-0.498-3.6 1.289-7.32 2.894-9.03 3.979-0.14 0.688-0.03 1.43 0.39 2.061"/>
   <path id="Fill-14" sketch:type="MSShapeGroup" fill="#636462" d="m68.478 88.242l-0.867 1.379c6.523 4.759 11.323 11.619 13.543 19.599 0.058 0.06 0.175 0.03 0.197 0.11 0.021 0.08-0.091 0.11-0.105 0.19 0.504 1.88 0.82 3.82 1.016 5.81h1.627c-1.053-11.13-6.813-20.859-15.411-27.088"/>
   <path id="Fill-15" sketch:type="MSShapeGroup" fill="#636462" d="m63.196 86.944l0.869-1.366c-5.306-2.838-11.276-4.597-17.701-4.597-0.974 0-1.892 0.218-2.845 0.288l0.252 1.598c0.876-0.063 1.703-0.26 2.593-0.26 6.103 0 11.779 1.66 16.832 4.337"/>
   <path id="Fill-16" sketch:type="MSShapeGroup" fill="#636462" d="m46.364 155.12c-19.992 0-36.256-16.26-36.256-36.26 0-17.26 12.144-31.684 28.324-35.321l-0.253-1.611c-16.958 3.755-29.697 18.862-29.697 36.932 0 20.89 16.993 37.88 37.882 37.88 20.258 0 36.703-16.02 37.692-36.03h-1.626c-0.981 19.12-16.705 34.41-36.066 34.41"/>
   <path id="Fill-17" sketch:type="MSShapeGroup" fill="#636462" d="m81.351 109.33c-0.022-0.08-0.139-0.05-0.197-0.11 0.029 0.1 0.064 0.2 0.092 0.3 0.014-0.08 0.126-0.11 0.105-0.19"/>
   <path id="Fill-18" sketch:type="MSShapeGroup" fill="#636462" d="m176.03 82.607c20 0 36.26 16.265 36.26 36.253 0 20-16.26 36.26-36.26 36.26-19.99 0-36.25-16.26-36.25-36.26 0-11.35 5.35-21.377 13.54-28.034-0.23-0.49-0.47-1.008-0.7-1.513-8.74 6.944-14.47 17.537-14.47 29.547 0 20.89 16.99 37.88 37.88 37.88s37.89-16.99 37.89-37.88c0-20.885-17-37.879-37.89-37.879-6.91 0-13.32 1.998-18.91 5.255 0.23 0.492 0.46 0.981 0.68 1.473 5.38-3.16 11.56-5.102 18.23-5.102"/>
   <path id="Fill-19" sketch:type="MSShapeGroup" fill="#B89267" d="m107.79 34.068c-0.39-0.589-0.51-1.269-0.41-1.92-0.14 0.125-0.42 0.286-0.49 0.385-0.92 1.555 0.01 2.705 0.65 3.238 0.43-0.288 0.89-0.527 1.34-0.799-0.06-0.029-0.12-0.064-0.19-0.098-0.34-0.197-0.66-0.45-0.9-0.806"/>
   <path id="Fill-20" sketch:type="MSShapeGroup" fill="#B89267" d="m109.14 32.393c-0.02 0.14-0.04 0.406 0.14 0.672 0.16 0.246 0.44 0.393 0.75 0.393 0.13 0 0.32-0.021 0.5-0.147 0.01-0.007 3.25-2.145 7.13-3.265-0.22-0.625-0.4-1.178-0.58-1.668-3.9 1.135-7.09 3.14-7.57 3.448-0.25 0.174-0.34 0.434-0.37 0.567"/>
   <path id="Fill-21" sketch:type="MSShapeGroup" fill="#B89267" d="m108.69 34.874c-0.34-0.197-0.66-0.456-0.9-0.806 0.24 0.356 0.56 0.609 0.9 0.806"/>
   <path id="Fill-22" sketch:type="MSShapeGroup" fill="#B89267" d="m108.69 34.874c0.07 0.034 0.13 0.069 0.19 0.098 0.01 0 0.02-0.006 0.02-0.014-0.06-0.028-0.14-0.042-0.21-0.084"/>
   <path id="Fill-23" sketch:type="MSShapeGroup" fill="#B89267" d="m107.79 34.068c0.24 0.35 0.56 0.609 0.9 0.806 0.07 0.042 0.15 0.056 0.21 0.084 3.46-2.054 7.32-3.552 9.03-4.155-0.09-0.259-0.18-0.506-0.27-0.757-3.88 1.12-7.12 3.258-7.13 3.265-0.18 0.126-0.37 0.147-0.5 0.147-0.31 0-0.59-0.147-0.75-0.393-0.18-0.266-0.16-0.532-0.14-0.672 0.03-0.133 0.12-0.393 0.37-0.567 0.48-0.308 3.67-2.313 7.57-3.448-0.06-0.189-0.14-0.42-0.2-0.575-4.04 1.45-8.22 3.294-9.5 4.345-0.1 0.651 0.02 1.331 0.41 1.92"/>
   <path id="Fill-24" sketch:type="MSShapeGroup" fill="#BAAE92" d="m143.42 54.719l1.68-0.849-5.16-12.192-1.61 0.665 3.87 9.531c0.4 0.946 0.79 1.843 1.22 2.845"/>
   <path id="Fill-25" sketch:type="MSShapeGroup" fill="#BAAE92" d="m124.62 42.119c0.72-0.126 1.44-0.196 2.15-0.183-0.03-0.006-0.07-0.02-0.11-0.02-0.67 0-1.36 0.083-2.04 0.203"/>
   <path id="Fill-26" sketch:type="MSShapeGroup" fill="#BAAE92" d="m123.64 40.501c1-0.218 2.02-0.38 3.02-0.38 2.07 0 3.74 0.667 5.14 1.753-0.47-1.008-0.96-2.019-1.4-2.902-1.11-0.384-2.3-0.631-3.64-0.631-1.25 0-2.5 0.197-3.71 0.477 0.18 0.498 0.38 1.074 0.59 1.683"/>
   <path id="Fill-27" sketch:type="MSShapeGroup" fill="#BAAE92" d="m49.356 115.33l15.662-24.951 0.574-0.913 0.567-0.91 0.863-1.373 0.589-0.931 0.573-0.913 0.456-0.735 2.319-3.693-1.24-0.889-2.375 3.741-0.492 0.764-0.573 0.911-0.638 0.995-0.868 1.367-0.577 0.911-0.58 0.91-15.031 23.639 0.33 2.07h0.441"/>
   <path id="Fill-28" sketch:type="MSShapeGroup" fill="#BAAE92" d="m42.32 85.171l-0.166-1.057-0.171-1.066-0.25-1.598-0.197-1.219-0.168-1.065-0.148-0.924-1.086-6.881h-1.815l0.295 1.834 0.988 6.245 0.167 1.064 0.176 1.129 0.261 1.597 0.167 1.059 4.75 30.041 0.133 0.83 0.19-0.29 1.261-1.99-4.387-27.709"/>
   <path id="Fill-29" sketch:type="MSShapeGroup" fill="#BAAE92" d="m114.83 110.48c0.61-0.71 1.24-1.43 1.91-2.19 9.22-10.582 23.11-26.467 29.42-33.432-0.26-0.596-0.52-1.206-0.78-1.809-6.05 6.643-20.46 23.123-30.02 34.081-0.65 0.75-1.27 1.46-1.87 2.15-2.03 2.34-3.79 4.36-5.03 5.79l0.66 1.16c0.11 0.17 0.15 0.37 0.22 0.57 1.22-1.42 3.13-3.61 5.49-6.32"/>
   <path id="Fill-30" sketch:type="MSShapeGroup" fill="#BAAE92" d="m94 117.12h-43.657l-0.146 0.24-0.841 1.34-0.14 0.22h55.254l-1.03-1.8h-9.44"/>
   <path id="Fill-31" sketch:type="MSShapeGroup" fill="#BAAE92" d="m113.12 115.17c0.86-0.99 1.8-2.07 2.87-3.29-1.07 1.23-2.01 2.31-2.87 3.29"/>
   <path id="Fill-32" sketch:type="MSShapeGroup" fill="#BAAE92" d="m110.92 117.69c0.6-0.68 1.33-1.51 2.2-2.52-0.87 1-1.59 1.83-2.2 2.52"/>
   <path id="Fill-33" sketch:type="MSShapeGroup" fill="#BAAE92" d="m110.92 117.69c-0.83 0.96-1.46 1.68-1.65 1.91 0.19-0.23 0.83-0.95 1.65-1.91"/>
   <path id="Fill-34" sketch:type="MSShapeGroup" fill="#BAAE92" d="m47.814 116.72c-0.343-0.28-0.594-0.65-0.672-1.11l-0.007-0.05-0.357 0.55-0.793 1.25c-0.07 0.1-0.084 0.16-0.119 0.24-0.013 0.02-0.022 0.04-0.027 0.06-0.085 0.2-0.121 0.37-0.112 0.47l0.006 0.03c0.015 0.09 0.133 0.23 0.217 0.37 0.049 0.07 0.035 0.12 0.113 0.19 0.083 0.07 0.196 0.07 0.301 0.11 0.063 0.02 0.118 0.06 0.188 0.07h0.008c0.022 0 0.035 0.02 0.057 0.02 0.286 0 0.546-0.13 0.707-0.35l0.147-0.23v-0.01l0.175-0.27 0.071-0.12 0.644-1.02c-0.112-0.04-0.224-0.06-0.322-0.12-0.07-0.04-0.162-0.03-0.225-0.08"/>
   <path id="Fill-35" sketch:type="MSShapeGroup" fill="#BAAE92" d="m119.91 31.356c0.72-0.126 1.45-0.197 2.15-0.181-0.03-0.009-0.07-0.022-0.11-0.022-0.67 0-1.36 0.083-2.04 0.203"/>
   <path id="Fill-36" sketch:type="MSShapeGroup" fill="#BAAE92" d="m177.85 118.31c-0.01-0.03-0.01-0.06-0.03-0.09-0.16-0.18-0.39-0.3-0.65-0.3-0.01 0-0.01-0.01-0.02-0.01-0.16 0-0.33-0.05-0.49-0.08-0.03 0-0.07-0.01-0.09-0.01-0.17-0.03-0.33-0.04-0.5-0.08-0.09-0.03-0.16-0.02-0.25-0.05-0.14-0.05-0.3-0.12-0.44-0.19-1.74-0.69-3.62-2.35-5.66-4.93-3.63-4.59-7.76-12.04-12.54-22.079-0.15-0.317-0.3-0.66-0.46-0.982-0.14-0.315-0.3-0.652-0.45-0.966-0.23-0.492-0.45-0.974-0.68-1.472-0.17-0.343-0.32-0.667-0.48-1.016-0.15-0.33-0.3-0.652-0.46-0.988-0.13-0.281-0.26-0.588-0.39-0.877-0.73-1.597-1.47-3.236-2.23-4.939-0.83-1.871-1.69-3.806-2.55-5.802-0.5-1.135-1-2.306-1.51-3.476 0-0.008-0.01-0.021-0.01-0.021-1.13-2.635-2.28-5.318-3.47-8.135-0.77-1.815-1.52-3.595-2.27-5.34-0.61-1.443-1.21-2.823-1.8-4.197l-0.03-0.085c-2.07-4.807-4-9.115-5.74-12.689-0.02-0.029-0.03-0.057-0.04-0.085-2.11-4.33-3.97-7.589-5.44-9.068-1.88-1.871-4.21-2.773-7.11-2.773-1.09 0-2.17 0.16-3.23 0.371 0.18 0.504 0.38 1.079 0.59 1.681 0.84-0.16 1.69-0.274 2.53-0.274 2.44 0 4.44 0.764 5.95 2.271 0.99 0.989 2.21 2.894 3.78 5.907v0.015c0.49 0.931 1.01 1.989 1.57 3.153 0.99 2.053 2.08 4.421 3.33 7.252 0.08 0.19 0.13 0.407 0.15 0.623 0.02 0.134 0.03 0.365 0.06 0.513 0.14 1.121 0.27 2.669 0.25 4.631-0.04 7.392-2.22 20.034-14.28 32.78-8.5 8.969-17.91 12.074-22.73 13.139-0.152 0.035-0.278 0.055-0.425 0.084l0.965 1.674c0.09-0.02 0.14-0.02 0.23-0.04 5.2-1.16 14.57-4.436 23.26-13.623 7.83-8.276 12.61-17.511 14.22-27.469 0.12-0.792 0.76-1.402 1.56-1.493 0.07-0.007 0.14-0.013 0.21-0.013 0.71 0 1.37 0.427 1.65 1.1l0.57 1.317 0.56 1.331c1.07 2.551 2.13 5.032 3.19 7.478 0.02 0.054 0.04 0.105 0.06 0.153 0.21 0.511 0.43 1.017 0.65 1.52 0.25 0.582 0.5 1.17 0.75 1.738 0.26 0.611 0.52 1.206 0.78 1.808 0.74 1.697 1.48 3.371 2.2 5.004 0.75 1.696 1.5 3.37 2.23 4.989 0.14 0.307 0.27 0.589 0.42 0.89 0.15 0.343 0.3 0.665 0.46 1 0.16 0.352 0.32 0.695 0.48 1.046 0.23 0.505 0.47 1.023 0.7 1.521 0.16 0.329 0.32 0.666 0.47 0.995 0.16 0.342 0.32 0.666 0.49 1.002 3.1 6.51 6.06 12.126 8.87 16.606 0.73 1.14 1.43 2.21 2.13 3.2 2.2 3.09 4.33 5.4 6.36 6.76 0.58 0.39 1.15 0.69 1.71 0.92 0.12 0.05 0.23 0.12 0.34 0.16 0.11 0.05 0.22 0.1 0.33 0.14 0.15 0.04 0.3 0.03 0.46 0.07 0.06 0.01 0.12 0.02 0.19 0.03 0.1 0.02 0.21 0.04 0.31 0.05 0.04 0 0.08 0.02 0.12 0.02 0.17 0.02 0.36 0.08 0.54 0.09 0.04 0 0.06 0.01 0.1 0.01 0.27 0 0.5-0.14 0.66-0.33 0.02-0.02 0.02-0.06 0.03-0.08 0.11-0.14 0.2-0.3 0.2-0.49s-0.09-0.35-0.21-0.5"/>
   <path id="Fill-37" sketch:type="MSShapeGroup" fill="#BAAE92" d="m107.72 117.86c0.05-0.23 0.01-0.48-0.12-0.68l-0.24-0.43-0.08-0.13-0.07-0.12-0.95-1.65-4.29-7.44-1.47-2.54-0.84-1.46-0.953-1.65-0.974-1.68-0.965-1.686-0.668-1.156-0.432-0.749-1.184-2.046-15.011-26.04c-0.49-0.035-1.009-0.035-1.478-0.096-0.26-0.036-0.483-0.099-0.736-0.142l-1.493 2.347 1.178 1.031c0.315-0.274 0.728-0.429 1.156-0.429h0.035c0.631 0.016 1.205 0.359 1.521 0.905l13.138 22.928 1.374 2.39 1.247 2.186 2.396 4.177 1.114 1.95 1.425 2.48 1.65 2.86 2.48 4.34 1.02 1.79 0.28 0.47 0.03 0.06 0.31 0.55c0.13 0.2 0.41 0.35 0.72 0.35 0.17 0 0.33-0.04 0.48-0.14 0.27-0.16 0.36-0.42 0.4-0.55"/>
   <path id="Fill-38" sketch:type="MSShapeGroup" fill="#BAAE92" d="m39.272 69.566h25.352c0.372 0 0.73 0.112 1.031 0.324l5.802 4.063 0.967-1.519-6.328-4.457c-0.197-0.142-0.385-0.204-0.581-0.204h-41.94c-0.496 0-0.896 0.398-0.896 0.896s0.4 0.897 0.896 0.897h15.697"/>
   <path id="Fill-39" sketch:type="MSShapeGroup" fill="#B89267" d="m78.338 65.502v-0.021 0.021"/>
   <path id="Fill-40" sketch:type="MSShapeGroup" fill="#B89267" d="m71.33 61.452c1.276 0.961 3.602 2.229 7.477 2.762 3.531 0.496 7.814-0.028 10.427-1.234 0.336-0.148 0.695 0 0.834 0.301 0.148 0.315 0.014 0.694-0.301 0.835-2.137 0.987-5.165 1.54-8.143 1.54-1.015 0-2.024-0.062-2.985-0.196-3.286-0.455-6.075-1.5-8.066-3.012-0.28-0.21-0.328-0.604-0.119-0.876 0.203-0.273 0.611-0.337 0.876-0.12zm6.223 4.204c0.252-0.077 0.506-0.175 0.785-0.175h0.091c0.848 0.043 1.612 0.491 2.088 1.198 0.267 0.007 0.511 0.05 0.786 0.05 5.289 0 9.592-1.591 10.299-3.083 0.12-0.246 0.183-0.576-0.252-1.1-1.072-1.311-11.506-5.838-18.653-5.838-1.884 0-3.329 0.315-4.295 0.946-0.786 0.512-1.087 1.374-0.856 2.418 0.519 2.325 3.609 4.919 9.097 6.075 0.167-0.133 0.301-0.309 0.498-0.4 0.125-0.055 0.28-0.048 0.412-0.091z"/>
   <path id="Fill-41" sketch:type="MSShapeGroup" fill="#B89267" d="m77.553 65.656c-0.132 0.043-0.287 0.036-0.412 0.091 0.125-0.055 0.28-0.048 0.412-0.091"/>
   <path id="Fill-42" sketch:type="MSShapeGroup" fill="#B89267" d="m78.338 65.502v1.031h0.008l-0.008-1.031"/>
   <path id="Fill-43" sketch:type="MSShapeGroup" fill="#B89267" d="m77.553 65.656c0.252-0.077 0.506-0.154 0.785-0.154v-0.021c-0.279 0-0.533 0.098-0.785 0.175"/>
   <path id="Fill-44" sketch:type="MSShapeGroup" fill="#B89267" d="m78.338 65.502c0.035 0 0.056-0.021 0.091-0.021h-0.091v0.021"/>
   <path id="Fill-45" sketch:type="MSShapeGroup" fill="#B89267" d="m76.643 66.147h0.006c0.161-0.133 0.3-0.309 0.492-0.4-0.197 0.091-0.331 0.267-0.498 0.4"/>
   <path id="Fill-46" sketch:type="MSShapeGroup" fill="#B89267" d="m78.429 65.481c-0.035 0-0.056 0.021-0.091 0.021l0.008 1.031c0.686 0.09 1.429 0.119 2.171 0.146-0.476-0.707-1.24-1.155-2.088-1.198"/>
   <path id="Fill-47" sketch:type="MSShapeGroup" fill="#B89267" d="m77.553 65.656c-0.132 0.043-0.287 0.036-0.412 0.091-0.192 0.091-0.331 0.267-0.492 0.4 0.553 0.119 0.995 0.295 1.597 0.378 0.029 0.008 0.065 0 0.092 0.008v-1.031c-0.279 0-0.533 0.077-0.785 0.154"/>
   <path id="Fill-48" sketch:type="MSShapeGroup" fill="#232535" d="m160.79 4.673c0.4 0 0.72-0.316 0.72-0.716v-3.026c0-0.401-0.32-0.715-0.72-0.715s-0.71 0.314-0.71 0.715v3.026c0 0.4 0.31 0.716 0.71 0.716"/>
   <path id="Fill-49" sketch:type="MSShapeGroup" fill="#232535" d="m160.79 13.305c0.4 0 0.72-0.316 0.72-0.714v-5.944c0-0.397-0.32-0.713-0.72-0.713s-0.71 0.316-0.71 0.713v5.944c0 0.398 0.31 0.714 0.71 0.714"/>
   <path id="Fill-50" sketch:type="MSShapeGroup" fill="#232535" d="m184.42 8.855c0.4 0 0.72-0.315 0.72-0.714v-3.027c0-0.4-0.32-0.716-0.72-0.716s-0.71 0.316-0.71 0.716v3.027c0 0.399 0.31 0.714 0.71 0.714"/>
   <path id="Fill-51" sketch:type="MSShapeGroup" fill="#232535" d="m184.42 17.488c0.4 0 0.72-0.315 0.72-0.714v-5.942c0-0.4-0.32-0.715-0.72-0.715s-0.71 0.315-0.71 0.715v5.942c0 0.399 0.31 0.714 0.71 0.714"/>
   <path id="Fill-52" sketch:type="MSShapeGroup" fill="#232535" d="m164.83 16.78c0.4 0 0.71-0.315 0.71-0.714v-11.1c0-0.398-0.31-0.714-0.71-0.714s-0.72 0.316-0.72 0.714v11.1c0 0.399 0.32 0.714 0.72 0.714"/>
   <path id="Fill-53" sketch:type="MSShapeGroup" fill="#232535" d="m180.68 19.324c0.4 0 0.71-0.315 0.71-0.714v-11.1c0-0.4-0.31-0.714-0.71-0.714s-0.72 0.314-0.72 0.714v11.1c0 0.399 0.32 0.714 0.72 0.714"/>
   <path id="Fill-54" sketch:type="MSShapeGroup" fill="#232535" d="m152.69 85.2c-0.73-1.619-1.48-3.293-2.23-4.989-0.72-1.633-1.46-3.307-2.2-5.004-0.26-0.602-0.52-1.197-0.78-1.808-0.25-0.568-0.5-1.156-0.75-1.738-0.22-0.503-0.44-1.009-0.65-1.52-0.02-0.048-0.04-0.099-0.06-0.153-1.06-2.446-2.12-4.927-3.19-7.478l-0.56-1.331-0.57-1.317c-0.28-0.673-0.94-1.1-1.65-1.1-0.07 0-0.14 0.006-0.21 0.013-0.8 0.091-1.44 0.701-1.56 1.493-1.61 9.958-6.39 19.193-14.22 27.469-8.69 9.187-18.06 12.463-23.26 13.623-0.09 0.02-0.14 0.02-0.23 0.04l-0.965-1.674c0.147-0.029 0.273-0.049 0.425-0.084 4.82-1.065 14.23-4.17 22.73-13.139 12.06-12.746 14.24-25.388 14.28-32.78 0.02-1.962-0.11-3.51-0.25-4.631-0.03-0.148-0.04-0.379-0.06-0.513-0.02-0.216-0.07-0.433-0.15-0.623-1.25-2.831-2.34-5.199-3.33-7.252-0.56-1.164-1.08-2.222-1.57-3.153v-0.015c-1.57-3.013-2.79-4.918-3.78-5.907-1.51-1.507-3.51-2.271-5.95-2.271-0.84 0-1.69 0.114-2.53 0.274-0.21-0.602-0.41-1.177-0.59-1.681 1.06-0.211 2.14-0.371 3.23-0.371 2.9 0 5.23 0.902 7.11 2.773 1.47 1.479 3.33 4.738 5.44 9.068 0.01 0.028 0.02 0.056 0.04 0.085 1.74 3.574 3.67 7.882 5.74 12.689 0.01 0.029 0.02 0.057 0.03 0.085 0.59 1.374 1.19 2.754 1.8 4.197 0.75 1.745 1.5 3.525 2.27 5.34 1.19 2.817 2.34 5.5 3.47 8.128 0 0 0.01 0.02 0.01 0.028 0.51 1.17 1.01 2.341 1.51 3.476 0.86 1.996 1.72 3.931 2.55 5.802 0.76 1.703 1.5 3.342 2.23 4.939 0.13 0.289 0.26 0.596 0.39 0.877 0.16 0.336 0.31 0.658 0.46 0.988 0.16 0.349 0.31 0.673 0.48 1.016 0.23 0.498 0.45 0.98 0.68 1.472 0.15 0.314 0.31 0.651 0.45 0.966 0.16 0.322 0.31 0.665 0.46 0.982 4.78 10.039 8.91 17.489 12.54 22.079 2.04 2.58 3.92 4.24 5.66 4.93 0.14 0.07 0.3 0.14 0.44 0.19 0.09 0.03 0.16 0.02 0.25 0.05 0.17 0.04 0.33 0.05 0.5 0.08 0.02 0 0.06 0.01 0.09 0.01 0.16 0.03 0.33 0.08 0.49 0.08 0.01 0 0.01 0.01 0.02 0.01 0.26 0 0.49 0.12 0.65 0.3 0.02 0.03 0.02 0.06 0.03 0.09 0.12 0.15 0.21 0.31 0.21 0.5s-0.09 0.35-0.2 0.49c-0.01 0.02-0.01 0.06-0.03 0.08-0.16 0.19-0.39 0.33-0.66 0.33-0.04 0-0.06-0.01-0.1-0.01-0.18-0.01-0.37-0.07-0.54-0.09-0.04 0-0.08-0.02-0.12-0.02-0.1-0.01-0.21-0.03-0.31-0.05-0.07-0.01-0.13-0.02-0.19-0.03-0.16-0.04-0.31-0.03-0.46-0.07-0.11-0.04-0.22-0.09-0.33-0.14-0.11-0.04-0.22-0.11-0.34-0.16-0.56-0.23-1.13-0.53-1.71-0.92-2.03-1.36-4.16-3.67-6.36-6.76-0.7-0.99-1.4-2.06-2.13-3.2-2.81-4.48-5.77-10.096-8.87-16.606-0.17-0.336-0.33-0.66-0.49-1.002-0.15-0.329-0.31-0.666-0.47-0.995-0.23-0.498-0.47-1.016-0.7-1.521-0.16-0.351-0.32-0.694-0.48-1.046-0.16-0.335-0.31-0.657-0.46-1-0.15-0.301-0.28-0.583-0.42-0.89zm-35.95 23.09c-0.67 0.76-1.3 1.48-1.91 2.19-2.36 2.71-4.27 4.9-5.49 6.32-0.07-0.2-0.11-0.4-0.22-0.57l-0.66-1.16c1.24-1.43 3-3.45 5.03-5.79 0.6-0.69 1.22-1.4 1.87-2.15 9.56-10.958 23.97-27.438 30.02-34.081 0.26 0.603 0.52 1.213 0.78 1.809-6.31 6.965-20.2 22.85-29.42 33.432zm1.48 10.57c0 4.12-2.06 7.74-5.18 9.95l-3.77-9.21c0.48-0.56 3.08-3.55 6.72-7.72 1.39 1.98 2.23 4.38 2.23 6.98zm-12.2 12.2c-6.094 0-11.11-4.5-12.007-10.35h12.607l3.88 9.48c-1.39 0.55-2.89 0.87-4.48 0.87zm-15.061-12.14h-41.743l0.14-0.22 0.841-1.34 0.146-0.24h53.097l1.03 1.8h-13.511zm-51.504-40.411l-0.841-5.314-0.295-1.834h1.815l1.086 6.881 0.148 0.924 0.168 1.065 0.197 1.219 0.25 1.598 0.171 1.066 4.553 28.766-1.261 1.99-0.19 0.29-0.133-0.83-4.917-31.1-0.261-1.597-0.176-1.129-0.167-1.064-0.147-0.931zm-16.776-9.84c0-0.498 0.4-0.896 0.896-0.896h15.705 0.048 26.187c0.196 0 0.384 0.062 0.581 0.204l6.328 4.457-0.967 1.519-5.802-4.063c-0.301-0.212-0.659-0.324-1.031-0.324h-41.049c-0.496 0-0.896-0.399-0.896-0.897zm83.341 35.121c-1.31 0-2.56 0.22-3.76 0.53l-0.56-0.96-0.16-0.37c5.46-1.27 15-4.687 23.82-14.021 9.7-10.244 13.42-20.523 14.69-28.415 0.37 0.885 0.75 1.767 1.12 2.649 1.17 2.762 2.31 5.425 3.43 8.045-5.72 6.23-20.86 23.545-30.69 34.822-2.31-1.42-4.99-2.28-7.89-2.28zm-2.28 3.11c0.74-0.15 1.5-0.24 2.28-0.24 2.18 0 4.2 0.62 5.96 1.62-1.78 2.05-3.31 3.8-4.48 5.15l-3.76-6.53zm-4.919 2.17l3.599 6.26h-8.015c0.779-2.53 2.328-4.72 4.416-6.26zm-29.165-22.707l0.49-0.778c7.589 5.424 13.371 13.342 15.872 22.855 0.316 1.21 1.402 2.01 2.6 2.01 0.223 0 0.455-0.03 0.686-0.09 1.437-0.38 2.293-1.85 1.913-3.29-2.852-10.869-9.502-19.887-18.219-26.026l0.378-0.609 3.904-6.221 0.82-1.305 19.284 33.641c-2.95 2.07-5.102 5.18-5.97 8.78h-5.192c-1.045-11.93-7.351-22.339-16.566-28.967zm11.59 23.157c-0.028-0.1-0.063-0.2-0.092-0.3-1.961-7.04-6.017-13.124-11.407-17.748-0.022-0.023 0.013-0.049-0.006-0.071-0.022-0.013-0.051 0.022-0.072 0.007-0.693-0.588-1.324-1.247-2.058-1.787l0.867-1.379c8.598 6.229 14.358 15.958 15.411 27.088h-1.627c-0.196-1.99-0.512-3.93-1.016-5.81zm-1.961 0.93c0.406 1.59 0.642 3.22 0.818 4.88h-18.512l17.694-4.88zm-1.55 21.75l-25.078-11.49h27.616c-0.219 4.05-1.025 7.93-2.538 11.49zm-47.481-43.203c2.671-1.444 5.488-2.613 8.52-3.314l3.862 24.407-12.382-21.093zm34.378 58.563l-15.76-26.85h1.192l27.16 12.43c-2.76 5.93-7.127 10.92-12.592 14.42zm-20.967-30.96l-27.777-12.72c2.979-6.026 7.639-10.993 13.426-14.371l13.784 23.491 0.567 3.6zm3.826 4.11h0.134l16.06 27.36c-5.093 3.03-10.973 4.89-17.321 4.89-0.498 0-0.953-0.13-1.443-0.15l2.57-32.1zm-32.121-15.88l28.5 13.05 0.083 0.51 0.008 0.05c0 0.02 0.02 0.02 0.02 0.04 0.035 0.19 0.112 0.36 0.182 0.54l-30.664 8.45c-0.721-2.77-1.232-5.61-1.232-8.61 0-5.02 1.149-9.74 3.103-14.03zm-1.548 23.66l30.979-8.53c0.049 0.04 0.069 0.09 0.12 0.13 0.027 0.02 0.042 0.05 0.069 0.07 0.064 0.06 0.141 0.03 0.204 0.08l-20.469 24.75c-5.136-4.26-8.954-9.94-10.903-16.5zm11.731 17.18l20.733-25.07c0.043 0.01 0.085 0.04 0.127 0.04l-2.573 32.07c-6.873-0.52-13.144-3.03-18.287-7.04zm21.582-30.11l0.007 0.05c0.078 0.46 0.329 0.83 0.672 1.11 0.063 0.05 0.155 0.04 0.225 0.08 0.098 0.06 0.21 0.08 0.322 0.12l-0.644 1.02-0.071 0.12-0.175 0.27v0.01l-0.147 0.23c-0.161 0.22-0.421 0.35-0.707 0.35-0.022 0-0.035-0.02-0.05-0.02h-0.007-0.008c-0.07-0.01-0.125-0.05-0.188-0.07-0.105-0.04-0.218-0.04-0.301-0.11-0.078-0.07-0.064-0.12-0.113-0.19-0.084-0.14-0.202-0.28-0.217-0.37l-0.006-0.03c-0.009-0.1 0.027-0.27 0.112-0.47 0.005-0.02 0.014-0.04 0.027-0.06 0.035-0.08 0.049-0.14 0.119-0.24l0.793-1.25 0.357-0.55zm-0.771-30.795c0.995 0 1.926 0.21 2.9 0.295l-1.73 21.57-3.428-21.634c0.764-0.056 1.487-0.231 2.258-0.231zm15.674 3.994l-13.712 21.581 2.017-25.175c4.184 0.498 8.109 1.725 11.695 3.594zm5.929 3.946l-9.509 11.495 7.996-12.743c0.533 0.385 1.009 0.827 1.513 1.248zm0.217-7.366l-0.573 0.913-0.589 0.931-0.863 1.373-0.567 0.91-0.574 0.913-15.662 24.951h-0.441l-0.33-2.07 15.031-23.639 0.58-0.91 0.577-0.911 0.868-1.367 0.638-0.995 0.573-0.911 0.492-0.764 2.375-3.741 1.24 0.889-2.319 3.693-0.456 0.735zm5.011-10.783l0.546-0.856 0.077-0.125 1.128 0.981-1.085 1.739-0.989 1.576-1.225-0.877 0.454-0.715 1.094-1.723zm-31.246-3.195h22.675l5.865 4.106-1.266 1.997-0.506 0.799c-6.692-3.685-14.322-5.781-22.353-5.781-1.416 0-2.795 0.181-4.191 0.308l-0.224-1.429zm1.073 6.748c1.114-0.092 2.215-0.247 3.342-0.247 6.979 0 13.628 1.767 19.474 4.927l-0.519 0.821c-5.648-3.049-12.102-4.787-18.955-4.787-1.079 0-2.145 0.077-3.21 0.162l-0.132-0.876zm0.497 3.16c0.953-0.07 1.871-0.288 2.845-0.288 6.425 0 12.395 1.759 17.701 4.597l-0.869 1.366c-5.053-2.677-10.729-4.337-16.832-4.337-0.89 0-1.717 0.197-2.593 0.26l-0.252-1.598zm2.845 75.471c-20.889 0-37.882-16.99-37.882-37.88 0-18.07 12.739-33.177 29.697-36.932l0.253 1.611c-16.18 3.637-28.324 18.061-28.324 35.321 0 20 16.264 36.26 36.256 36.26 14.722 0 27.292-8.86 32.926-21.5 0.03-0.03 0.092-0.03 0.113-0.07 0.022-0.05-0.048-0.07-0.043-0.12 1.725-3.94 2.839-8.21 3.07-12.72h1.626c-0.989 20.01-17.434 36.03-37.692 36.03zm5.108-41.41l2.592-4.13 14.73-17.815c4.8 4.231 8.347 9.745 10.175 16.045l-21.42 5.9h-6.077zm26.523-47.023c0.469 0.061 0.988 0.061 1.478 0.096l15.011 26.04 1.184 2.046 0.432 0.749 0.668 1.156 0.965 1.686 0.974 1.68 0.953 1.65 0.84 1.46 1.47 2.54 4.29 7.44 0.95 1.65 0.07 0.12 0.08 0.13 0.24 0.43c0.13 0.2 0.17 0.45 0.12 0.68-0.04 0.13-0.13 0.39-0.4 0.55-0.15 0.1-0.31 0.14-0.48 0.14-0.31 0-0.59-0.15-0.72-0.35l-0.31-0.55-0.03-0.06-0.28-0.47-1.02-1.79-2.48-4.34-1.65-2.86-1.425-2.48-1.114-1.95-2.396-4.177-1.247-2.186-1.374-2.39-13.138-22.928c-0.316-0.546-0.89-0.889-1.521-0.905h-0.035c-0.428 0-0.841 0.155-1.156 0.429l-1.178-1.031 1.493-2.347c0.253 0.043 0.476 0.106 0.736 0.142zm-10.449-8.235c-0.231-1.044 0.07-1.906 0.856-2.418 0.966-0.631 2.411-0.946 4.295-0.946 7.147 0 17.581 4.527 18.653 5.838 0.435 0.524 0.372 0.854 0.252 1.1-0.707 1.492-5.01 3.083-10.299 3.083-0.275 0-0.519-0.043-0.786-0.05-0.742-0.027-1.485-0.056-2.171-0.146h-0.008c-0.027-0.008-0.063 0-0.092-0.008-0.602-0.083-1.044-0.259-1.597-0.378h-0.006c-5.488-1.156-8.578-3.75-9.097-6.075zm59.114-19.951c-1 0-2.02 0.162-3.02 0.38-0.21-0.609-0.41-1.185-0.59-1.683 1.21-0.28 2.46-0.477 3.71-0.477 1.34 0 2.53 0.247 3.64 0.631 0.44 0.883 0.93 1.894 1.4 2.902-1.4-1.086-3.07-1.753-5.14-1.753zm-13.09 5.586c-0.01 0.007-0.02 0.014-0.03 0.02-0.59 0.336-1.18 0.66-1.74 1.03-0.63-0.532-1.57-1.681-0.65-3.236 0.12-0.197 0.51-0.463 0.96-0.751 1.71-1.085 5.43-2.69 9.03-3.979 0.06 0.133 0.12 0.337 0.17 0.498 0.18 0.49 0.37 1.05 0.59 1.674 0.1 0.273 0.19 0.541 0.29 0.826-1.64 0.575-5.28 1.984-8.62 3.918zm-6.68-13.174c0.07-0.099 0.35-0.26 0.49-0.385 1.28-1.051 5.46-2.895 9.5-4.345 0.06 0.155 0.14 0.386 0.2 0.575 0.18 0.49 0.36 1.043 0.58 1.668 0.09 0.251 0.18 0.498 0.27 0.757-1.71 0.603-5.57 2.101-9.03 4.155 0 0.008-0.01 0.014-0.02 0.014-0.45 0.272-0.91 0.511-1.34 0.799-0.64-0.533-1.57-1.683-0.65-3.238zm31.44 9.81l1.61-0.665 5.16 12.192-1.68 0.849c-0.43-1.002-0.82-1.899-1.22-2.845l-3.87-9.531zm12.2 54.124c1.15-1.317 2.41-2.515 3.75-3.635 2.11 4.413 4.16 8.428 6.16 11.948l-9.91-8.313zm-8.53 21.753c0.15-7.96 3.11-15.19 7.85-20.925l12.23 10.255c2.82 4.68 5.54 8.3 8.19 10.67h-28.27zm31.09 2.11l-25.25 17.68c-3.64-5.35-5.77-11.78-5.86-18.71h29.58c0.52 0.39 1.03 0.75 1.53 1.03zm1.76 0.75l-10.77 29.6c-6.28-2.36-11.65-6.5-15.55-11.84l25.72-18.01c0.2 0.09 0.4 0.19 0.6 0.25zm26.97 19.83c-4.24 4.96-9.83 8.64-16.24 10.52l-8.05-30c0.29-0.04 0.56-0.1 0.81-0.22l23.48 19.7zm-22.06-21.61h30.33c-0.11 7.89-2.98 15.05-7.58 20.79l-23.31-19.57c0.29-0.34 0.47-0.75 0.56-1.22zm-0.44-2.02l24.97-17.476c3.57 5.276 5.65 11.616 5.78 18.416h-30.33c-0.08-0.34-0.22-0.65-0.42-0.94zm-1.56-1.04l10.58-29.086c6.16 2.405 11.43 6.532 15.26 11.816l-25.09 17.57c-0.23-0.14-0.49-0.24-0.75-0.3zm6.79 35.51c-2.74 0.71-5.56 1.21-8.52 1.21-3.84 0-7.47-0.78-10.93-1.96l10.81-29.68c0.17 0.04 0.33 0.06 0.5 0.08l8.14 30.35zm-25.83-62.1c2.56-1.522 5.32-2.69 8.25-3.505l7.76 28.975c-4.47-3.09-10.32-13.54-16.01-25.47zm17.31 26.19l-8.03-30.016c2.59-0.631 5.25-1.059 8.03-1.059 3.98 0 7.73 0.813 11.28 2.067l-10.61 29.168c-0.22-0.03-0.44-0.09-0.67-0.16zm0 40.9c-20.89 0-37.88-16.99-37.88-37.88 0-12.01 5.73-22.603 14.47-29.547 0.23 0.505 0.47 1.023 0.7 1.513-8.19 6.657-13.54 16.684-13.54 28.034 0 20 16.26 36.26 36.25 36.26 20 0 36.26-16.26 36.26-36.26 0-19.988-16.26-36.253-36.26-36.253-6.67 0-12.85 1.942-18.23 5.102-0.22-0.492-0.45-0.981-0.68-1.473 5.59-3.257 12-5.255 18.91-5.255 20.89 0 37.89 16.994 37.89 37.879 0 20.89-17 37.88-37.89 37.88zm0-77.917c-7.23 0-14 1.955-19.87 5.332-0.13-0.295-0.27-0.588-0.41-0.882 6-3.42 12.91-5.411 20.28-5.411 4.3 0 8.56 0.673 12.65 1.991 0.28 0.092 0.56 0.134 0.83 0.134 0.03 0 0.05-0.022 0.07-0.022 0.5-0.02 0.96-0.181 1.36-0.448 0.08-0.05 0.15-0.112 0.23-0.168 0.39-0.322 0.73-0.715 0.89-1.226 0.46-1.409-0.32-2.929-1.73-3.385-4.62-1.5-9.43-2.256-14.3-2.256-8.16 0-15.82 2.137-22.49 5.85-2.7-6.103-5.23-12.094-7.41-17.223-0.7-1.66-1.35-3.201-2.01-4.743l2.53-1.269c0.43-0.211 0.61-0.716 0.43-1.15l-5.83-13.791c-0.2-0.455-0.72-0.679-1.17-0.475l-2.8 1.156c-2.75-5.886-4.97-9.881-6.84-11.752-0.9-0.888-1.87-1.505-2.88-2.011-0.21-0.112-0.42-0.223-0.64-0.315-0.97-0.413-1.98-0.694-3.01-0.828-0.21-0.027-0.42-0.035-0.63-0.048-0.4-0.035-0.81-0.097-1.22-0.097-0.48 0-0.95 0.062-1.42 0.104-0.25 0.022-0.5 0.029-0.76 0.057-0.57 0.076-1.13 0.188-1.69 0.308-0.09-0.162-0.19-0.316-0.36-0.4-0.22-0.111-0.45-0.118-0.69-0.042-2.46 0.847-10.58 3.785-11.79 5.802-0.62 1.045-0.8 2.095-0.54 3.125 0.47 1.822 2.19 2.86 2.27 2.901 0.14 0.085 0.3 0.127 0.45 0.127 0.18 0 0.37-0.056 0.52-0.168 4.51-3.195 11.23-5.361 11.3-5.382 0.23-0.078 0.42-0.238 0.53-0.456 0.07-0.127 0.03-0.266 0.02-0.406h0.01c0.68-0.12 1.37-0.203 2.04-0.203 0.04 0 0.08 0.013 0.11 0.022 0.58 0.006 1.14 0.133 1.69 0.258 0.25 0.056 0.52 0.056 0.77 0.147 0.77 0.274 1.49 0.693 2.11 1.317 0.7 0.694 1.59 2.138 2.57 3.883-0.19-0.035-0.38-0.063-0.58-0.084-0.21-0.029-0.42-0.036-0.63-0.049-0.41-0.035-0.81-0.098-1.23-0.098-0.47 0-0.94 0.063-1.41 0.105-0.25 0.021-0.5 0.028-0.76 0.056-0.76 0.098-1.51 0.245-2.24 0.42-0.08-0.099-0.13-0.232-0.26-0.287-0.21-0.104-0.45-0.126-0.69-0.043-2.45 0.849-10.58 3.784-11.79 5.803-0.61 1.043-0.8 2.095-0.54 3.124 0.47 1.823 2.19 2.86 2.27 2.902 0.14 0.084 0.3 0.126 0.45 0.126 0.18 0 0.37-0.056 0.52-0.168 4.51-3.196 11.23-5.361 11.3-5.382 0.23-0.077 0.42-0.238 0.53-0.455 0.08-0.168 0.06-0.351 0.04-0.533 0.15-0.034 0.3-0.076 0.44-0.098 0.68-0.12 1.37-0.203 2.04-0.203 0.04 0 0.08 0.014 0.11 0.02 0.58 0.008 1.14 0.133 1.68 0.26 0.26 0.056 0.53 0.056 0.77 0.147 0.78 0.274 1.5 0.694 2.12 1.317 0.96 0.961 2.24 3.119 3.69 5.965 0.66 5.332 0.91 20.327-13.58 35.645-8.44 8.92-17.75 11.8-22.174 12.717l-0.399-0.895 1.433-0.078c0.79-0.042 1.4-0.721 1.36-1.514-0.04-0.784-0.61-1.415-1.51-1.358l-3.667 0.195-14.884-25.822c4.885-0.056 10.364-1.458 11.612-4.1 0.47-0.987 0.294-2.052-0.484-3.005-1.633-1.99-12.864-6.496-20.04-6.496-2.234 0-4.007 0.414-5.277 1.24-1.415 0.919-2.024 2.531-1.625 4.31 0.581 2.586 3.448 5.844 9.572 7.337l-1.942 3.056-0.041 0.061-6.258-4.407c-0.469-0.343-1.03-0.532-1.611-0.532h-41.94c-1.485 0-2.69 1.205-2.69 2.69 0 1.487 1.205 2.692 2.69 2.692h12.93l0.351 2.228c-14.359 3.033-26.733 12.676-32.873 26.441-0.603 1.35 0.008 2.94 1.367 3.55 0.344 0.15 0.707 0.22 1.065 0.22h0.014c0.021 0 0.035-0.01 0.05-0.01 0.44-0.01 0.854-0.15 1.24-0.36 0.09-0.05 0.181-0.1 0.273-0.17 0.371-0.26 0.707-0.6 0.911-1.05 5.389-12.078 16.215-20.564 28.793-23.31l0.139 0.862c-17.986 3.924-31.512 19.957-31.512 39.098 0 22.08 17.968 40.04 40.041 40.04 21.448 0 38.967-16.98 39.949-38.19h4.826c0.926 7.44 7.206 13.23 14.881 13.23 1.97 0 3.84-0.41 5.56-1.1l1.87 4.58-1.43 0.03c-0.8 0.01-1.43 0.66-1.42 1.45s0.65 1.42 1.44 1.42h0.02l6.39-0.11c0.79-0.01 1.43-0.66 1.41-1.45-0.01-0.79-0.65-1.42-1.43-1.42h-0.03l-1.86 0.03-2.39-5.85c4.16-2.69 6.94-7.34 6.94-12.66 0-3.47-1.23-6.62-3.2-9.17 0.47-0.55 0.99-1.13 1.49-1.7 0.32-0.37 0.63-0.73 0.96-1.1 0.38-0.45 0.78-0.9 1.18-1.35 0.7-0.81 1.4-1.62 2.14-2.46 0.32-0.37 0.65-0.75 0.98-1.13 0.74-0.83 1.46-1.67 2.21-2.519 0.91-1.044 1.83-2.087 2.75-3.138 0.1-0.114 0.19-0.225 0.28-0.33 0.8-0.904 1.57-1.793 2.36-2.684 0.45-0.511 0.9-1.022 1.34-1.528 0.47-0.533 0.91-1.043 1.38-1.569 0.63-0.722 1.26-1.443 1.88-2.144 0.48-0.547 0.94-1.065 1.42-1.605 0.57-0.652 1.15-1.317 1.71-1.941 0.45-0.511 0.87-0.981 1.29-1.471 0.54-0.596 1.08-1.207 1.57-1.766 0.7-0.792 1.34-1.506 1.97-2.208 0.18-0.195 0.37-0.42 0.54-0.602 0.58-0.652 1.1-1.221 1.6-1.78 0.68 1.562 1.36 3.11 2.02 4.611-11.67 8.429-19.31 22.124-19.31 37.584 0 6.56 1.35 12.9 4.01 18.86 0.45 0.99 1.43 1.59 2.46 1.59 0.37 0 0.74-0.08 1.1-0.23 1.35-0.61 1.96-2.2 1.36-3.56-2.36-5.26-3.55-10.86-3.55-16.66 0-13.28 6.37-25.063 16.19-32.56 0.14 0.301 0.27 0.596 0.41 0.891-9.48 7.328-15.64 18.789-15.64 31.669 0 22.08 17.97 40.04 40.04 40.04 22.08 0 40.04-17.96 40.04-40.04 0-22.069-17.96-40.037-40.04-40.037z"/>
   <path id="Fill-55" sketch:type="MSShapeGroup" fill="#232535" d="m186.42 47.999c-0.04 0-0.08-0.029-0.14-0.029h-30.01l-3.08-19.592h35.44l-2.21 19.621zm-0.14 4.567h-30.94c-0.87 0-1.59-0.714-1.59-1.583 0-0.764 0.59-1.317 1.3-1.465 0.11-0.02 0.18-0.119 0.29-0.119h30.94c0.26 0 0.46 0.168 0.68 0.288 0.31 0.161 0.5 0.372 0.65 0.686 0.09 0.204 0.25 0.372 0.25 0.61 0 0.869-0.71 1.583-1.58 1.583zm-25.64-29.864h29.28c1.17 0 2.12 0.953 2.12 2.123 0 1.044-0.8 1.808-1.79 1.983-0.12 0.027-0.2 0.141-0.33 0.141h-38.23c-0.08 0-0.12-0.071-0.2-0.085-0.36-0.035-0.67-0.196-0.95-0.399-0.56-0.385-0.97-0.918-0.97-1.64 0-1.17 0.95-2.123 2.12-2.123h8.95zm-21.18 12.438c0.21 0 0.44-0.049 0.65-0.155l11.05-5.612 2.85 18.121c-1.41 0.532-2.41 1.899-2.41 3.489 0 2.06 1.67 3.736 3.74 3.736h30.94c2.06 0 3.73-1.676 3.73-3.736 0-1.113-0.52-2.095-1.43-2.767l2.14-19.194c1.98-0.378 3.48-2.116 3.48-4.197 0-2.354-1.92-4.274-4.28-4.274h-35.55v-5.719c0-0.398-0.32-0.714-0.72-0.714s-0.71 0.316-0.71 0.714v5.719h-1.25c-0.6 0-1.18 0.133-1.7 0.358v-10.112c0-0.4-0.31-0.715-0.71-0.715s-0.71 0.315-0.71 0.715v11.099c0 0.015 0.01 0.022 0.01 0.041-0.71 0.765-1.16 1.767-1.16 2.888 0 1.037 0.38 1.976 1 2.712l-9.62 4.885c-0.7 0.363-0.98 1.225-0.63 1.932 0.26 0.498 0.76 0.786 1.29 0.786z"/>
   <path id="Fill-56" sketch:type="MSShapeGroup" fill="#F7C994" d="m186.29 45.012c-0.02 0.141-0.17 0.162-0.28 0.254-0.09 0.076-0.13 0.224-0.25 0.224-0.02 0-0.04 0-0.06-0.008-0.3-0.034-0.51-0.301-0.47-0.596l1.39-11.322 0.01-0.029 0.5-4.12c0.04-0.295 0.31-0.553 0.6-0.47 0.06 0.007 0.04 0.099 0.1 0.126 0.19 0.092 0.4 0.239 0.37 0.47l-1.91 15.471zm-32.38-16.634h-0.72l3.08 19.592h30.01c0.06 0 0.1 0.029 0.14 0.029l2.21-19.621h-34.72z"/>
   <path id="Fill-57" sketch:type="MSShapeGroup" fill="#F7C994" d="m186.96 49.687c-0.22-0.12-0.42-0.288-0.68-0.288h-30.94c-0.11 0-0.18 0.099-0.29 0.119-0.71 0.148-1.3 0.701-1.3 1.465 0 0.869 0.72 1.583 1.59 1.583h30.94c0.87 0 1.58-0.714 1.58-1.583 0-0.238-0.16-0.406-0.25-0.61-0.15-0.314-0.34-0.525-0.65-0.686"/>
   <path id="Fill-58" sketch:type="MSShapeGroup" fill="#F7C994" d="m189.92 22.702h-38.23c-1.17 0-2.12 0.953-2.12 2.123 0 0.722 0.41 1.255 0.97 1.64 0.28 0.203 0.59 0.364 0.95 0.399 0.08 0.014 0.12 0.085 0.2 0.085h38.23c0.13 0 0.21-0.114 0.33-0.141 0.99-0.175 1.79-0.939 1.79-1.983 0-1.17-0.95-2.123-2.12-2.123"/>
   <path id="Fill-59" sketch:type="MSShapeGroup" fill="#fff" d="m73.741 73.7l-0.546 0.856-1.094 1.723-0.454 0.715 1.225 0.877 0.989-1.576 1.085-1.739-1.128-0.981-0.077 0.125"/>
   <path id="Fill-60" sketch:type="MSShapeGroup" fill="#fff" d="m89.234 62.98c-2.613 1.206-6.896 1.73-10.427 1.234-3.875-0.533-6.201-1.801-7.477-2.762-0.265-0.217-0.673-0.153-0.876 0.12-0.209 0.272-0.161 0.666 0.119 0.876 1.991 1.512 4.78 2.557 8.066 3.012 0.961 0.134 1.97 0.196 2.985 0.196 2.978 0 6.006-0.553 8.143-1.54 0.315-0.141 0.449-0.52 0.301-0.835-0.139-0.301-0.498-0.449-0.834-0.301"/>
   <path id="Fill-61" sketch:type="MSShapeGroup" fill="#fff" d="m187.73 28.945c-0.29-0.083-0.56 0.175-0.6 0.47l-0.5 4.12-0.01 0.029-1.39 11.322c-0.04 0.295 0.17 0.562 0.47 0.596 0.02 0.008 0.04 0.008 0.06 0.008 0.12 0 0.16-0.148 0.25-0.224 0.11-0.092 0.26-0.113 0.28-0.254l1.91-15.471c0.03-0.231-0.18-0.378-0.37-0.47-0.06-0.027-0.04-0.119-0.1-0.126"/>
   <path id="Fill-62" sketch:type="MSShapeGroup" fill="#EA8B30" d="m189.97 13.663c0.32-0.078 0.64 0.118 0.71 0.442l0.61 2.515c0.08 0.322-0.12 0.644-0.44 0.721-0.23 0.056-0.46-0.029-0.6-0.197-0.06-0.069-0.11-0.153-0.12-0.244l-0.61-2.523c-0.08-0.322 0.13-0.644 0.45-0.714zm-0.05 3.755c0.2 0.24 0.48 0.373 0.79 0.373 0.07 0 0.16-0.016 0.23-0.029 0.28-0.063 0.5-0.232 0.64-0.463 0.15-0.238 0.19-0.511 0.13-0.777l-0.61-2.515c-0.11-0.471-0.51-0.793-0.99-0.793-0.07 0-0.16 0.014-0.23 0.029-0.27 0.056-0.5 0.217-0.64 0.455-0.15 0.231-0.2 0.511-0.14 0.778l0.6 2.487c0.02 0.168 0.1 0.33 0.22 0.455z"/>
   <path id="Fill-63" sketch:type="MSShapeGroup" fill="#EA8B30" d="m190.25 17.144c0.14 0.168 0.37 0.253 0.6 0.197 0.32-0.077 0.52-0.399 0.44-0.721l-0.61-2.515c-0.07-0.324-0.39-0.52-0.71-0.442-0.32 0.07-0.53 0.392-0.45 0.714l0.61 2.523c0.01 0.091 0.06 0.175 0.12 0.244"/>
   <path id="Fill-64" sketch:type="MSShapeGroup" fill="#EA8B30" d="m196.45 14.904c0.15-0.288 0.51-0.394 0.8-0.239 0.29 0.154 0.39 0.525 0.23 0.813l-1.24 2.262c-0.16 0.295-0.52 0.4-0.82 0.245-0.06-0.042-0.12-0.09-0.17-0.14-0.15-0.181-0.19-0.455-0.06-0.679l1.26-2.262zm-1.23 3.461c0.15 0.083 0.32 0.126 0.49 0.126 0.37 0 0.72-0.211 0.9-0.541l1.25-2.262c0.13-0.239 0.16-0.526 0.08-0.792-0.07-0.267-0.25-0.484-0.49-0.61-0.49-0.287-1.13-0.056-1.38 0.407l-1.26 2.263c-0.21 0.372-0.16 0.841 0.14 1.191 0.07 0.07 0.14 0.14 0.27 0.218z"/>
   <path id="Fill-65" sketch:type="MSShapeGroup" fill="#EA8B30" d="m195.42 17.985c0.3 0.155 0.66 0.05 0.82-0.245l1.24-2.262c0.16-0.288 0.06-0.659-0.23-0.813-0.29-0.155-0.65-0.049-0.8 0.239l-1.26 2.262c-0.13 0.224-0.09 0.498 0.06 0.679 0.05 0.05 0.11 0.098 0.17 0.14"/>
   <path id="Fill-66" sketch:type="MSShapeGroup" fill="#EA8B30" d="m198.76 20.776l2.45-0.843c0.32-0.112 0.65 0.056 0.77 0.373 0.11 0.314-0.06 0.651-0.38 0.763l-2.44 0.833c-0.24 0.078-0.51 0-0.66-0.181-0.04-0.056-0.08-0.12-0.1-0.189-0.11-0.322 0.06-0.66 0.36-0.756zm0.21 1.589c0.11 0 0.21-0.021 0.33-0.056l2.45-0.834c0.53-0.188 0.82-0.784 0.63-1.317-0.18-0.525-0.79-0.819-1.31-0.632l-2.44 0.835c-0.26 0.085-0.47 0.266-0.59 0.511-0.12 0.246-0.14 0.533-0.05 0.786 0.03 0.111 0.09 0.217 0.18 0.343 0.2 0.225 0.49 0.364 0.8 0.364z"/>
   <path id="Fill-67" sketch:type="MSShapeGroup" fill="#EA8B30" d="m199.16 21.902l2.44-0.833c0.32-0.112 0.49-0.449 0.38-0.763-0.12-0.317-0.45-0.485-0.77-0.373l-2.45 0.843c-0.3 0.096-0.47 0.434-0.36 0.756 0.02 0.069 0.06 0.133 0.1 0.189 0.15 0.181 0.42 0.259 0.66 0.181"/>
   <path id="Fill-68" sketch:type="MSShapeGroup" fill="#EA8B30" d="m201.7 27.65c-0.13 0.308-0.48 0.448-0.78 0.315l-2.39-1.024c-0.08-0.035-0.16-0.09-0.21-0.16-0.14-0.161-0.19-0.406-0.09-0.624 0.12-0.302 0.47-0.442 0.78-0.309l2.38 1.016c0.31 0.14 0.45 0.476 0.31 0.786zm-2.52-2.194c-0.51-0.252-1.14 0.021-1.35 0.533-0.15 0.364-0.09 0.784 0.15 1.059 0.1 0.124 0.24 0.231 0.39 0.286l2.38 1.023c0.12 0.063 0.26 0.09 0.4 0.09 0.41 0 0.78-0.244 0.94-0.63 0.23-0.519 0-1.106-0.54-1.346l-2.37-1.015z"/>
   <path id="Fill-69" sketch:type="MSShapeGroup" fill="#EA8B30" d="m199.01 25.848c-0.31-0.133-0.66 0.007-0.78 0.309-0.1 0.218-0.05 0.463 0.09 0.624 0.05 0.07 0.13 0.125 0.21 0.16l2.39 1.024c0.3 0.133 0.65-0.007 0.78-0.315 0.14-0.31 0-0.646-0.31-0.786l-2.38-1.016"/>
   <path id="Fill-70" sketch:type="MSShapeGroup" fill="#EB9166" d="m159.38 41.608l-0.42-3.182h0.9c0.3 0 0.54-0.246 0.54-0.539 0-0.294-0.24-0.539-0.54-0.539h-1.05l-0.43-3.26h0.81c0.29 0 0.54-0.245 0.54-0.54 0-0.292-0.25-0.538-0.54-0.538h-0.96l-0.3-2.222c-0.04-0.294-0.34-0.546-0.61-0.462-0.29 0.043-0.5 0.308-0.46 0.602l0.28 2.082h-0.76c-0.29 0-0.53 0.246-0.53 0.538 0 0.295 0.24 0.54 0.53 0.54h0.91l0.44 3.26h-0.67c-0.3 0-0.54 0.245-0.54 0.539 0 0.293 0.24 0.539 0.54 0.539h0.81l0.43 3.182h-0.57c-0.29 0-0.54 0.245-0.54 0.54 0 0.294 0.25 0.539 0.54 0.539h0.71l0.22 1.548c0.03 0.273 0.26 0.47 0.53 0.47 0.02 0 0.05 0 0.07-0.007 0.29-0.042 0.5-0.308 0.46-0.602l-0.19-1.409h1c0.3 0 0.54-0.245 0.54-0.539 0-0.295-0.24-0.54-0.54-0.54h-1.15"/>
   <path id="Fill-71" sketch:type="MSShapeGroup" fill="#EB9166" d="m186.1 33.01h-0.9l0.23-2.088c0.03-0.303-0.17-0.569-0.47-0.596-0.25-0.099-0.56 0.176-0.6 0.469l-0.24 2.215h-0.83c-0.29 0-0.54 0.246-0.54 0.538 0 0.295 0.25 0.54 0.54 0.54h0.71l-0.37 3.26h-1.01c-0.29 0-0.54 0.245-0.54 0.539 0 0.293 0.25 0.539 0.54 0.539h0.89l-0.36 3.182h-1.2c-0.3 0-0.54 0.245-0.54 0.54 0 0.294 0.24 0.539 0.54 0.539h1.08l-0.16 1.415c-0.03 0.302 0.18 0.568 0.47 0.596 0.02 0.007 0.04 0.007 0.06 0.007 0.28 0 0.51-0.203 0.54-0.476l0.17-1.542h0.64c0.29 0 0.54-0.245 0.54-0.539 0-0.295-0.25-0.54-0.54-0.54h-0.52l0.36-3.182h0.83c0.3 0 0.54-0.246 0.54-0.539 0-0.294-0.24-0.539-0.54-0.539h-0.71l0.36-3.26h1.03c0.28 0 0.51-0.245 0.52-0.524l0.01-0.029c-0.02-0.279-0.25-0.525-0.53-0.525"/>
   <path id="Fill-72" sketch:type="MSShapeGroup" fill="#EB9166" d="m179.37 34.088c0.29 0 0.54-0.245 0.54-0.54 0-0.292-0.25-0.538-0.54-0.538h-0.74l0.19-2.102c0.02-0.295-0.19-0.561-0.49-0.582-0.01-0.008-0.03-0.008-0.05-0.008-0.27 0-0.51 0.21-0.53 0.492l-0.2 2.2h-0.98c-0.3 0-0.54 0.246-0.54 0.538 0 0.295 0.24 0.54 0.54 0.54h0.89l-0.29 3.26h-0.72c-0.29 0-0.54 0.245-0.54 0.539 0 0.293 0.25 0.539 0.54 0.539h0.62l-0.29 3.182h-1c-0.29 0-0.54 0.245-0.54 0.54 0 0.294 0.25 0.539 0.54 0.539h0.91l-0.13 1.428c-0.03 0.295 0.19 0.561 0.48 0.583 0.02 0.007 0.04 0.007 0.05 0.007 0.27 0 0.51-0.21 0.53-0.491l0.14-1.527h0.82c0.3 0 0.54-0.245 0.54-0.539 0-0.295-0.24-0.54-0.54-0.54h-0.73l0.29-3.182h1.12c0.29 0 0.54-0.246 0.54-0.539 0-0.294-0.25-0.539-0.54-0.539h-1.02l0.29-3.26h0.84"/>
   <path id="Fill-73" sketch:type="MSShapeGroup" fill="#EB9166" d="m165.7 41.608l-0.29-3.182h0.62c0.29 0 0.54-0.246 0.54-0.539 0-0.294-0.25-0.539-0.54-0.539h-0.72l-0.29-3.26h0.9c0.29 0 0.54-0.245 0.54-0.54 0-0.292-0.25-0.538-0.54-0.538h-0.99l-0.2-2.2c-0.02-0.282-0.26-0.492-0.53-0.492-0.02 0-0.04 0-0.05 0.008-0.29 0.021-0.51 0.287-0.49 0.582l0.2 2.102h-0.75c-0.29 0-0.54 0.246-0.54 0.538 0 0.295 0.25 0.54 0.54 0.54h0.84l0.29 3.26h-1.02c-0.29 0-0.54 0.245-0.54 0.539 0 0.293 0.25 0.539 0.54 0.539h1.12l0.28 3.182h-0.72c-0.3 0-0.54 0.245-0.54 0.54 0 0.294 0.24 0.539 0.54 0.539h0.82l0.14 1.527c0.02 0.281 0.26 0.491 0.53 0.491 0.01 0 0.03 0 0.05-0.007 0.29-0.022 0.51-0.288 0.48-0.583l-0.12-1.428h0.9c0.3 0 0.54-0.245 0.54-0.539 0-0.295-0.24-0.54-0.54-0.54h-1"/>
   <path id="Fill-74" sketch:type="MSShapeGroup" fill="#EB9166" d="m172.79 34.201c0.29 0 0.54-0.245 0.54-0.54 0-0.294-0.25-0.539-0.54-0.539h-1.03v-2.264c0-0.295-0.25-0.54-0.54-0.54-0.3 0-0.54 0.245-0.54 0.54v2.264h-0.69c-0.3 0-0.54 0.245-0.54 0.539 0 0.295 0.24 0.54 0.54 0.54h0.69v3.259h-0.69c-0.3 0-0.54 0.244-0.54 0.539 0 0.294 0.24 0.539 0.54 0.539h0.69v3.182h-0.69c-0.3 0-0.54 0.245-0.54 0.539s0.24 0.539 0.54 0.539h0.69v1.367c0 0.295 0.24 0.54 0.54 0.54 0.29 0 0.54-0.245 0.54-0.54v-1.367h1.03c0.29 0 0.54-0.245 0.54-0.539s-0.25-0.539-0.54-0.539h-1.03v-3.182h1.03c0.29 0 0.54-0.245 0.54-0.539 0-0.295-0.25-0.539-0.54-0.539h-1.03v-3.259h1.03"/>
   <path id="Fill-75" sketch:type="MSShapeGroup" fill="#EB9166" d="m155.54 23.983c0-0.187-0.02-0.412-0.02-0.559 0.01-0.072 0.02-0.091 0.03-0.154 0.03-0.225 0.06-0.442 0.09-0.568h-1.08c-0.04 0.175-0.07 0.329-0.09 0.568v0.154c-0.01 0.16 0 0.372 0 0.559 0.01 0.239-0.01 0.428 0.02 0.716 0 0.09 0.02 0.183 0.03 0.274 0.07 0.559 0.22 1.232 0.41 1.976h1.11c-0.27-0.919-0.4-1.64-0.47-2.25-0.03-0.28-0.03-0.49-0.03-0.716"/>
   <path id="Fill-76" sketch:type="MSShapeGroup" fill="#EB9166" d="m161.61 23.983c0-0.187-0.02-0.412-0.01-0.559 0.01-0.072 0.02-0.091 0.03-0.154 0.03-0.225 0.05-0.442 0.09-0.568h-1.08c-0.04 0.175-0.08 0.329-0.1 0.568 0 0.042 0.01 0.111 0.01 0.154-0.02 0.16 0 0.372 0 0.559 0 0.239-0.02 0.428 0.01 0.716 0.06 0.617 0.22 1.388 0.45 2.25h1.1c-0.27-0.919-0.4-1.64-0.46-2.25-0.03-0.28-0.03-0.49-0.04-0.716"/>
   <path id="Fill-77" sketch:type="MSShapeGroup" fill="#EB9166" d="m185.31 24.699c-0.06 0.61-0.19 1.339-0.46 2.25h1.1c0.23-0.862 0.39-1.633 0.45-2.25 0.02-0.288 0-0.477 0.01-0.716 0-0.187 0.01-0.399 0-0.559 0-0.043 0.01-0.112 0.01-0.154-0.03-0.239-0.06-0.393-0.1-0.568h-1.08c0.04 0.126 0.07 0.336 0.1 0.568 0.01 0.063 0.02 0.082 0.03 0.154 0 0.14-0.02 0.378-0.02 0.559-0.01 0.226 0 0.428-0.04 0.716"/>
   <path id="Fill-78" sketch:type="MSShapeGroup" fill="#EB9166" d="m179.17 22.702c0.03 0.126 0.07 0.336 0.09 0.568 0.01 0.063 0.03 0.082 0.03 0.154 0.01 0.14-0.02 0.378-0.02 0.559-0.01 0.226 0 0.428-0.03 0.716-0.07 0.61-0.2 1.339-0.47 2.25h1.1c0.23-0.862 0.39-1.633 0.45-2.25 0.03-0.288 0.01-0.477 0.01-0.716 0-0.187 0.02-0.399 0-0.559 0-0.043 0.01-0.112 0.01-0.154-0.02-0.239-0.05-0.393-0.1-0.568h-1.07"/>
   <path id="Fill-79" sketch:type="MSShapeGroup" fill="#EB9166" d="m167.7 23.983c0-0.187-0.03-0.412-0.02-0.559 0.01-0.072 0.02-0.091 0.03-0.154 0.03-0.225 0.05-0.442 0.09-0.568h-1.08c-0.04 0.175-0.08 0.329-0.1 0.568 0 0.042 0.01 0.111 0.01 0.154-0.01 0.16 0 0.372 0 0.559 0.01 0.239-0.01 0.428 0.01 0.716 0.06 0.617 0.22 1.388 0.45 2.25h1.1c-0.26-0.919-0.4-1.64-0.46-2.25-0.03-0.28-0.03-0.49-0.03-0.716"/>
   <path id="Fill-80" sketch:type="MSShapeGroup" fill="#EB9166" d="m174.18 23.27c0-0.19 0-0.365-0.02-0.568h-1.07c0.01 0.203 0.02 0.378 0.03 0.568v0.154c0 0.183 0.03 0.391 0.03 0.559-0.01 0.267-0.02 0.486-0.03 0.716-0.08 1.429-0.34 2.215-0.34 2.25h1.12c0.11-0.415 0.24-1.192 0.3-2.25 0.01-0.23 0.01-0.456 0.01-0.716 0.01-0.168-0.01-0.376-0.02-0.559 0-0.049-0.01-0.106-0.01-0.154"/>
  </g>
 </g>
</svg>
