<?xml version="1.0" encoding="UTF-8" standalone="no"?>
<svg xmlns:sketch="http://www.bohemiancoding.com/sketch/ns" xmlns="http://www.w3.org/2000/svg" height="161px" width="245px" version="1.1" xmlns:xlink="http://www.w3.org/1999/xlink" viewBox="0 0 245 161"><!-- Generator: Sketch 3.4 (15575) - http://www.bohemiancoding.com/sketch -->
 <title>5</title>
 <desc>Created with Sketch.</desc>
 <defs>
  <path id="path-1" d="m0 0.392h244.22v160.55h-244.22v-160.55z"/>
  <path id="path-3" d="m0 0.392h244.22v160.55h-244.22v-160.55z"/>
 </defs>
 <g id="Page-1" fill-rule="evenodd" sketch:type="MSPage" fill="none">
  <g id="5" sketch:type="MSLayerGroup">
   <g id="Group-3">
    <mask id="mask-2" sketch:name="Clip 2" fill="white">
     <use xlink:href="#path-1"/>
    </mask>
    <path id="Fill-1" sketch:type="MSShapeGroup" fill="#FBF9D6" mask="url(#mask-2)" d="m218.81 127.74c0.19 0 0.17 0.02 0 0zm-2.66-1.2c0.26 0.17 0.52 0.3 0.75 0.48-0.23-0.14-0.48-0.29-0.75-0.48zm19.36-33.822c-18.61-13.036-45.83 2.987-65.39 14.232 1.26-2.15 2.5-4.31 3.68-6.5 9.83-18.306 7.32-41.295-17.5-43.06-26.62-1.871-53.07 25.775-69.544 42.39-3.741 3.78-12.005 12.55-19.239 14.4 1.518-2.45 3.474-4.83 4.924-6.88 11.643-16.472 28.069-29.46 41.129-44.776 14.57-17.063 15.93-39.012-8.64-47.926-12.61-4.57-34.216 5.727-45.162 10.832-17.654 8.236-33.715 19.105-50.454 29.002-21.605 12.787-1.708 46.288 19.955 33.476 6.012-3.56 11.947-7.243 17.893-10.878-1.165 1.392-2.338 2.776-3.474 4.208-11.919 15.068-22.712 33.372-14.171 52.672 9.361 21.17 37.504 22.99 55.865 14.43 12.835-6.02 22.818-15.98 32.888-25.71-3.29 14.43 1.98 27.77 19.7 32.59 14.07 3.86 29.15-3.34 41.56-8.98 8.35-3.76 16.16-8.71 24.27-12.89 3.3-1.75 6.7-3.2 10.25-4.4 2.05-0.77 3.37-1.06 4.11-1.15 19.82 10.96 37.08-21.27 17.35-35.082z"/>
   </g>
   <path id="Fill-4" sketch:type="MSShapeGroup" fill="#C9C5D8" d="m15.727 1.898h65.162v65.067h-65.162v-65.067z"/>
   <path id="Fill-5" sketch:type="MSShapeGroup" fill="#232535" d="m17.233 65.458h62.148v-62.054h-62.148v62.054zm63.655 3.013h-65.161c-0.832 0-1.507-0.675-1.507-1.506v-65.067c0-0.83 0.675-1.506 1.507-1.506h65.161c0.832 0 1.507 0.676 1.507 1.506v65.067c0 0.831-0.675 1.506-1.507 1.506z"/>
   <path id="Fill-6" sketch:type="MSShapeGroup" fill="#C9C5D8" d="m146.06 1.898h65.18v65.067h-65.18v-65.067z"/>
   <path id="Fill-7" sketch:type="MSShapeGroup" fill="#232535" d="m147.56 65.458h62.17v-62.054h-62.17v62.054zm63.68 3.013h-65.18c-0.83 0-1.51-0.675-1.51-1.506v-65.067c0-0.83 0.68-1.506 1.51-1.506h65.18c0.82 0 1.5 0.676 1.5 1.506v65.067c0 0.831-0.68 1.506-1.5 1.506z"/>
   <path id="Fill-8" sketch:type="MSShapeGroup" fill="#C9C5D8" d="m80.888 1.898h65.172v65.067h-65.172v-65.067z"/>
   <path id="Fill-9" sketch:type="MSShapeGroup" fill="#232535" d="m82.395 65.458h62.155v-62.054h-62.155v62.054zm63.665 3.013h-65.172c-0.831 0-1.506-0.675-1.506-1.506v-65.067c0-0.83 0.675-1.506 1.506-1.506h65.172c0.83 0 1.5 0.676 1.5 1.506v65.067c0 0.831-0.67 1.506-1.5 1.506z"/>
   <path id="Fill-10" sketch:type="MSShapeGroup" fill="#9EA1A0" d="m171.68 136.68h3.88v10.94h-3.88v-10.94z"/>
   <path id="Fill-11" sketch:type="MSShapeGroup" fill="#232535" d="m172.82 146.49h1.61v-8.67h-1.61v8.67zm2.74 2.26h-3.88c-0.62 0-1.13-0.51-1.13-1.13v-10.94c0-0.62 0.51-1.13 1.13-1.13h3.88c0.63 0 1.13 0.51 1.13 1.13v10.94c0 0.62-0.5 1.13-1.13 1.13z"/>
   <path id="Fill-12" sketch:type="MSShapeGroup" fill="#9EA1A0" d="m162.1 123.16h23.05v13.64h-23.05v-13.64z"/>
   <path id="Fill-13" sketch:type="MSShapeGroup" fill="#232535" d="m163.23 135.67h20.78v-11.38h-20.78v11.38zm21.92 2.26h-23.05c-0.62 0-1.13-0.51-1.13-1.13v-13.64c0-0.62 0.51-1.13 1.13-1.13h23.05c0.62 0 1.13 0.51 1.13 1.13v13.64c0 0.62-0.51 1.13-1.13 1.13z"/>
   <path id="Fill-14" sketch:type="MSShapeGroup" fill="#CDCDC9" d="m166.46 126.45h14.33v7.06h-14.33v-7.06z"/>
   <path id="Fill-15" sketch:type="MSShapeGroup" fill="#232535" d="m167.21 132.76h12.83v-5.56h-12.83v5.56zm13.58 1.5h-14.33c-0.42 0-0.75-0.33-0.75-0.75v-7.06c0-0.42 0.33-0.75 0.75-0.75h14.33c0.42 0 0.75 0.33 0.75 0.75v7.06c0 0.42-0.33 0.75-0.75 0.75z"/>
   <path id="Fill-16" sketch:type="MSShapeGroup" fill="#9EA1A0" d="m162.1 147.5h23.05v5.29h-23.05v-5.29z"/>
   <path id="Fill-17" sketch:type="MSShapeGroup" fill="#232535" d="m163.23 151.66h20.78v-3.03h-20.78v3.03zm21.92 2.26h-23.05c-0.62 0-1.13-0.5-1.13-1.13v-5.29c0-0.62 0.51-1.13 1.13-1.13h23.05c0.62 0 1.13 0.51 1.13 1.13v5.29c0 0.63-0.51 1.13-1.13 1.13z"/>
   <path id="Fill-18" sketch:type="MSShapeGroup" fill="#CDCDC9" d="m151.93 138.64h-73.96l-1.8-44.521h77.13l-1.37 44.521"/>
   <path id="Fill-19" sketch:type="MSShapeGroup" fill="#232535" d="m79.414 137.14h71.056l1.28-41.515h-74.011l1.675 41.515zm72.516 3.01h-73.96c-0.809 0-1.47-0.64-1.502-1.45l-1.8-44.521c-0.02-0.406 0.133-0.81 0.417-1.104s0.674-0.462 1.085-0.462h77.13c0.41 0 0.8 0.168 1.08 0.455 0.29 0.293 0.44 0.69 0.43 1.095l-1.37 44.527c-0.03 0.82-0.69 1.46-1.51 1.46z"/>
   <path id="Fill-20" sketch:type="MSShapeGroup" fill="#CDCDC9" d="m121 149.79h-11.63l-0.49-21.99h12.82l-0.7 21.99"/>
   <path id="Fill-21" sketch:type="MSShapeGroup" fill="#232535" d="m110.84 148.29h8.71l0.59-18.98h-9.72l0.42 18.98zm10.16 3.01h-11.63c-0.83 0-1.49-0.66-1.51-1.47l-0.48-21.99c-0.02-0.41 0.14-0.8 0.42-1.09 0.29-0.29 0.68-0.45 1.08-0.45h12.82c0.4 0 0.79 0.17 1.08 0.45 0.28 0.3 0.44 0.69 0.42 1.1l-0.69 21.99c-0.03 0.81-0.69 1.46-1.51 1.46z"/>
   <path id="Fill-22" sketch:type="MSShapeGroup" fill="#CDCDC9" d="m86.246 148.13h58.084v6.12h-58.084v-6.12z"/>
   <path id="Fill-23" sketch:type="MSShapeGroup" fill="#232535" d="m87.751 152.74h55.069v-3.1h-55.069v3.1zm56.579 3.01h-58.084c-0.831 0-1.508-0.67-1.508-1.5v-6.12c0-0.83 0.677-1.51 1.508-1.51h58.084c0.83 0 1.51 0.68 1.51 1.51v6.12c0 0.83-0.68 1.5-1.51 1.5z"/>
   <path id="Fill-24" sketch:type="MSShapeGroup" fill="#fff" d="m146.91 133.16h-0.04c-0.52-0.03-0.92-0.47-0.9-0.98l1.37-32.219c0.02-0.507 0.44-0.904 0.94-0.904h0.04c0.52 0.023 0.93 0.463 0.9 0.973l-1.37 32.22c-0.02 0.51-0.44 0.91-0.94 0.91"/>
   <path id="Fill-25" sketch:type="MSShapeGroup" fill="#fff" d="m183.21 134.24c-0.21 0-0.38-0.17-0.38-0.38v-8.11c0-0.21 0.17-0.38 0.38-0.38 0.2 0 0.37 0.17 0.37 0.38v8.11c0 0.21-0.17 0.38-0.37 0.38"/>
   <path id="Fill-26" sketch:type="MSShapeGroup" fill="#E6E7E2" d="m54.806 143.27v-6.59l1.529 1.3 1.647-1.3 1.175 1.3 1.763-1.3 0.825 1.3 1.644-1.3v6.59h-8.583"/>
   <path id="Fill-27" sketch:type="MSShapeGroup" fill="#232535" d="m55.56 142.52h7.077v-4.29l-0.427 0.34c-0.169 0.13-0.395 0.18-0.591 0.15-0.209-0.04-0.396-0.16-0.511-0.34l-0.389-0.62-1.116 0.83c-0.31 0.22-0.742 0.18-1.005-0.11l-0.7-0.78-1.096 0.87c-0.29 0.21-0.679 0.21-0.952-0.02l-0.29-0.24v4.21zm7.829 1.5h-8.583c-0.415 0-0.753-0.33-0.753-0.75v-6.59c0-0.29 0.17-0.56 0.437-0.68 0.269-0.12 0.584-0.07 0.801 0.11l1.063 0.9 1.162-0.92c0.315-0.23 0.756-0.2 1.023 0.09l0.721 0.79 1.217-0.9c0.164-0.11 0.384-0.17 0.585-0.13 0.2 0.04 0.38 0.16 0.495 0.34l0.374 0.59 0.993-0.78c0.223-0.17 0.525-0.22 0.797-0.08 0.258 0.12 0.422 0.39 0.422 0.67v6.59c0 0.42-0.337 0.75-0.754 0.75z"/>
   <path id="Fill-28" sketch:type="MSShapeGroup" fill="#9EA1A0" d="m48.061 142.41h22.112v10.97h-22.112v-10.97z"/>
   <path id="Fill-29" sketch:type="MSShapeGroup" fill="#232535" d="m49.189 152.25h19.857v-8.71h-19.857v8.71zm20.984 2.26h-22.112c-0.625 0-1.127-0.51-1.127-1.13v-10.97c0-0.63 0.502-1.13 1.127-1.13h22.112c0.625 0 1.129 0.5 1.129 1.13v10.97c0 0.62-0.504 1.13-1.129 1.13z"/>
   <path id="Fill-30" sketch:type="MSShapeGroup" fill="#fff" d="m67.506 152.89c-0.209 0-0.375-0.17-0.375-0.38v-8.11c0-0.21 0.166-0.38 0.375-0.38 0.21 0 0.374 0.17 0.374 0.38v8.11c0 0.21-0.164 0.38-0.374 0.38"/>
   <g id="Group-34">
    <mask id="mask-4" sketch:name="Clip 32" fill="white">
     <use xlink:href="#path-3"/>
    </mask>
    <path id="Fill-31" sketch:type="MSShapeGroup" fill="#fff" mask="url(#mask-4)" d="m22.707 153.38h181.54v6.11h-181.54l-0.003-6.11z"/>
    <path id="Fill-33" sketch:type="MSShapeGroup" fill="#232535" mask="url(#mask-4)" d="m24.214 157.99h178.54v-3.1h-178.54l0.004 3.1zm180.04 3.01h-181.54c-0.832 0-1.509-0.68-1.509-1.51v-6.11c0-0.83 0.677-1.51 1.506-1.51h181.54c0.83 0 1.51 0.68 1.51 1.51v6.11c0 0.83-0.68 1.51-1.51 1.51z"/>
   </g>
   <path id="Fill-35" sketch:type="MSShapeGroup" fill="#fff" d="m118.06 145.85h-0.03c-0.51-0.01-0.92-0.45-0.91-0.97l0.48-13.75c0.01-0.52 0.43-0.91 0.94-0.91h0.03c0.52 0.01 0.93 0.45 0.91 0.96l-0.47 13.76c-0.02 0.52-0.44 0.91-0.95 0.91"/>
   <path id="Fill-36" sketch:type="MSShapeGroup" fill="#FDF9CC" d="m52.278 35.725c-1.821-7.239-0.146-23.451-0.124-23.621l0.17-1.63-3.272-0.337-0.176 1.63c-0.073 0.692-1.756 16.962 0.214 24.773l0.389 1.588 3.197-0.793-0.398-1.61"/>
   <path id="Fill-37" sketch:type="MSShapeGroup" fill="#232535" d="m49.721 10.959l-0.095 0.89c-0.017 0.168-1.755 16.777 0.194 24.508l0.211 0.859 1.733-0.433-0.217-0.882c-1.88-7.465-0.161-23.737-0.138-23.891l0.088-0.861-1.776-0.19zm-0.242 27.926c-0.136 0-0.271-0.045-0.389-0.118-0.17-0.102-0.293-0.264-0.342-0.455l-0.39-1.588c-2.014-7.98-0.305-24.339-0.23-25.036l0.175-1.633c0.051-0.41 0.445-0.647 0.827-0.669l3.269 0.338c0.201 0.022 0.384 0.118 0.508 0.279 0.125 0.148 0.184 0.354 0.167 0.544l-0.169 1.632c-0.023 0.177-1.685 16.257 0.105 23.363l0.396 1.608c0.099 0.412-0.146 0.816-0.55 0.911l-3.197 0.795c-0.059 0.014-0.118 0.029-0.18 0.029z"/>
   <path id="Fill-38" sketch:type="MSShapeGroup" fill="#FDF9CC" d="m42.49 36.284c-3.629-6.534-6.188-22.627-6.209-22.796l-0.259-1.624-3.254 0.507 0.249 1.63c0.111 0.692 2.69 16.836 6.6 23.877l0.786 1.44 2.881-1.594-0.794-1.44"/>
   <path id="Fill-39" sketch:type="MSShapeGroup" fill="#232535" d="m33.624 13.002l0.135 0.882c0.111 0.676 2.709 16.777 6.515 23.634l0.427 0.78 1.561-0.868-0.429-0.78c-3.709-6.673-6.279-22.913-6.298-23.067l-0.136-0.86-1.775 0.279zm6.779 27.074c-0.07 0-0.139-0.015-0.21-0.03-0.195-0.059-0.356-0.191-0.451-0.367l-0.787-1.442c-3.861-6.951-6.403-22.383-6.68-24.118l-0.249-1.632c-0.067-0.411 0.216-0.793 0.625-0.86l3.255-0.507c0.441-0.074 0.796 0.222 0.86 0.626l0.257 1.624c0.026 0.168 2.553 16.123 6.124 22.545l0.796 1.441c0.2 0.368 0.068 0.823-0.295 1.03l-2.881 1.587c-0.11 0.067-0.238 0.103-0.364 0.103z"/>
   <path id="Fill-40" sketch:type="MSShapeGroup" fill="#FDF9CC" d="m56.159 42.376c-0.081-7.466 5.321-22.847 5.386-22.995l0.538-1.551-3.095-1.102-0.558 1.543c-0.235 0.662-5.644 16.087-5.556 24.141l0.008 1.646 3.299-0.036-0.022-1.646"/>
   <path id="Fill-41" sketch:type="MSShapeGroup" fill="#232535" d="m59.44 17.69l-0.302 0.838c-0.054 0.147-5.599 15.845-5.512 23.876l0.005 0.89 1.786-0.014-0.011-0.897c-0.085-7.702 5.398-23.186 5.453-23.312l0.267-0.778-1.686-0.603zm-6.558 27.118c-0.199 0-0.386-0.074-0.529-0.213-0.144-0.14-0.225-0.33-0.225-0.537l-0.006-1.646c-0.093-8.29 5.544-24.236 5.599-24.398l0.558-1.543c0.144-0.391 0.562-0.602 0.963-0.455l3.094 1.102c0.389 0.146 0.591 0.572 0.458 0.955l-0.536 1.557c-0.065 0.17-5.425 15.404-5.346 22.738l0.021 1.648c0.005 0.196-0.073 0.388-0.211 0.527-0.141 0.148-0.332 0.229-0.533 0.235l-3.3 0.03h-0.007z"/>
   <path id="Fill-42" sketch:type="MSShapeGroup" fill="#FDF9CC" d="m41.903 38.055c-1.815-7.247-0.147-23.459-0.126-23.62l0.176-1.632-3.269-0.353-0.184 1.64c-0.066 0.698-1.757 16.954 0.213 24.766l0.396 1.594 3.197-0.786-0.403-1.609"/>
   <path id="Fill-43" sketch:type="MSShapeGroup" fill="#232535" d="m39.35 13.281l-0.099 0.898c-0.291 2.923-1.596 17.402 0.194 24.493l0.212 0.867 1.735-0.426-0.22-0.876c-1.863-7.443-0.162-23.751-0.14-23.904l0.092-0.86-1.774-0.192zm-0.241 27.926c-0.337 0-0.645-0.235-0.73-0.572l-0.397-1.603c-1.802-7.136-0.639-20.87-0.242-24.913l0.194-1.748c0.048-0.413 0.382-0.677 0.831-0.669l3.271 0.352c0.197 0.022 0.378 0.125 0.506 0.279 0.125 0.154 0.179 0.353 0.162 0.552l-0.178 1.632c-0.021 0.168-1.659 16.299 0.108 23.354l0.403 1.61c0.048 0.198 0.02 0.403-0.087 0.572-0.103 0.169-0.269 0.294-0.463 0.346l-3.198 0.779c-0.061 0.014-0.12 0.029-0.18 0.029z"/>
   <path id="Fill-44" sketch:type="MSShapeGroup" fill="#FDF9CC" d="m52.463 36.164c2.617-6.994 2.764-23.295 2.764-23.455l0.005-1.647 3.293 0.014v1.653c-0.007 0.706-0.153 17.05-2.982 24.59l-0.567 1.543-3.087-1.145 0.574-1.553"/>
   <path id="Fill-45" sketch:type="MSShapeGroup" fill="#232535" d="m52.856 37.269l1.676 0.622 0.305-0.829c2.686-7.158 2.918-22.589 2.934-24.325v-0.91l-1.788-0.008-0.003 0.89c0 0.16-0.122 16.526-2.812 23.722l-0.312 0.838zm2.12 2.349c-0.087 0-0.176-0.013-0.26-0.05l-3.087-1.146c-0.389-0.141-0.589-0.581-0.446-0.963l0.575-1.558c2.557-6.834 2.715-23.032 2.715-23.192l0.007-1.647c0.005-0.419 0.338-0.749 0.752-0.749h0.006l3.291 0.015c0.415 0 0.75 0.338 0.75 0.748v1.653c-0.019 1.788-0.258 17.454-3.031 24.855l-0.567 1.535c-0.065 0.192-0.209 0.338-0.39 0.426-0.099 0.046-0.208 0.073-0.315 0.073z"/>
   <path id="Fill-46" sketch:type="MSShapeGroup" fill="#FDF9CC" d="m49.303 38.753c2.622-6.981 2.763-23.282 2.763-23.443l0.007-1.646 3.286 0.014v1.646c-0.009 0.706-0.148 17.058-2.976 24.596l-0.568 1.544-3.085-1.154 0.573-1.557"/>
   <path id="Fill-47" sketch:type="MSShapeGroup" fill="#232535" d="m49.697 39.87l1.675 0.624 0.305-0.83c2.678-7.143 2.909-22.59 2.929-24.326v-0.911l-1.784-0.007-0.002 0.89c0 0.161-0.121 16.55-2.812 23.708l-0.311 0.852zm2.118 2.35c-0.087 0-0.179-0.021-0.263-0.051l-3.086-1.153c-0.387-0.147-0.585-0.573-0.442-0.97l0.573-1.558c2.56-6.805 2.716-23.017 2.716-23.178l0.008-1.646c0-0.206 0.079-0.397 0.223-0.529 0.14-0.147 0.331-0.221 0.529-0.221h0.005l3.284 0.015c0.415 0 0.749 0.338 0.749 0.749v1.646c-0.019 1.794-0.253 17.477-3.024 24.862l-0.567 1.535c-0.064 0.192-0.208 0.339-0.388 0.426-0.103 0.045-0.21 0.073-0.317 0.073z"/>
   <path id="Fill-48" sketch:type="MSShapeGroup" fill="#FDF9CC" d="m39.059 39.788c2.578-6.841 2.778-22.846 2.778-23.002l0.006-1.615 3.234 0.021-0.014 1.632c-0.008 0.676-0.192 16.733-2.991 24.126l-0.567 1.506-3.019-1.146 0.573-1.522"/>
   <path id="Fill-49" sketch:type="MSShapeGroup" fill="#232535" d="m39.455 40.869l1.613 0.618 0.299-0.802c2.728-7.209 2.934-23.192 2.942-23.868l0.008-0.874-1.723-0.016-0.004 0.868c0 0.147-0.213 16.321-2.826 23.258l-0.309 0.816zm2.05 2.337c-0.09 0-0.179-0.015-0.268-0.044l-3.019-1.146c-0.387-0.148-0.581-0.589-0.438-0.971l0.573-1.521c2.54-6.731 2.73-22.582 2.73-22.738l0.008-1.623c0-0.191 0.081-0.383 0.224-0.53 0.14-0.138 0.331-0.22 0.528-0.22h0.004l3.234 0.029c0.203 0 0.394 0.081 0.532 0.221 0.14 0.148 0.217 0.338 0.217 0.537l-0.014 1.631c-0.019 1.727-0.265 17.057-3.038 24.39l-0.567 1.5c-0.07 0.191-0.212 0.338-0.395 0.427-0.097 0.043-0.203 0.058-0.311 0.058z"/>
   <path id="Fill-50" sketch:type="MSShapeGroup" fill="#FDF9CC" d="m50.067 44.072c-2.512-7.032-2.411-23.332-2.402-23.494l0.006-1.645-3.285-0.037-0.021 1.646c-0.007 0.698-0.103 17.05 2.608 24.641l0.551 1.551 3.101-1.111-0.558-1.551"/>
   <path id="Fill-51" sketch:type="MSShapeGroup" fill="#232535" d="m45.128 19.66l-0.011 0.897c-0.003 0.161-0.147 16.785 2.565 24.369l0.298 0.845 1.682-0.604-0.305-0.844c-2.551-7.144-2.45-23.627-2.446-23.781l0.003-0.867-1.786-0.015zm2.396 27.822c-0.111 0-0.22-0.022-0.322-0.073-0.181-0.08-0.32-0.236-0.387-0.426l-0.55-1.543c-2.802-7.842-2.654-24.736-2.654-24.906l0.022-1.653c0.008-0.41 0.341-0.735 0.753-0.735h0.008l3.285 0.03c0.414 0.007 0.745 0.346 0.745 0.764l-0.006 1.647c-0.004 0.175-0.11 16.329 2.359 23.236l0.559 1.544c0.064 0.191 0.053 0.396-0.032 0.572-0.084 0.192-0.237 0.324-0.426 0.399l-3.101 1.102c-0.08 0.029-0.169 0.042-0.253 0.042z"/>
   <path id="Fill-52" sketch:type="MSShapeGroup" fill="#B89267" d="m53.198 24.416c-0.097 3.122-2.624 5.643-5.769 5.643-3.144 0-5.681-2.521-5.769-5.643h-7.539l2.902 26.387h20.81l2.897-26.387h-7.532"/>
   <path id="Fill-53" sketch:type="MSShapeGroup" fill="#232535" d="m37.865 49.865h19.128l2.686-24.51h-5.629c-0.524 3.227-3.281 5.643-6.621 5.643-3.348 0-6.103-2.416-6.621-5.643h-5.637l2.694 24.51zm19.968 1.879h-20.81c-0.481 0-0.883-0.358-0.933-0.835l-2.903-26.391c-0.03-0.264 0.055-0.537 0.231-0.727 0.18-0.207 0.435-0.316 0.703-0.316h7.539c0.511 0 0.926 0.403 0.94 0.918 0.073 2.646 2.198 4.725 4.829 4.725 2.626 0 4.748-2.079 4.828-4.733 0.015-0.507 0.433-0.91 0.941-0.91h7.532c0.269 0 0.522 0.109 0.701 0.316 0.179 0.19 0.263 0.463 0.231 0.727l-2.894 26.391c-0.051 0.477-0.451 0.835-0.935 0.835z"/>
   <path id="Fill-54" sketch:type="MSShapeGroup" fill="#E6E7E2" d="m52.91 39.062c0 2.96-2.41 5.379-5.378 5.379-2.963 0-5.373-2.419-5.373-5.379 0-2.971 2.41-5.38 5.373-5.38 2.968 0 5.378 2.409 5.378 5.38"/>
   <path id="Fill-55" sketch:type="MSShapeGroup" fill="#232535" d="m47.532 34.431c-2.546 0-4.619 2.079-4.619 4.631 0 2.549 2.073 4.628 4.619 4.628 2.551 0 4.626-2.079 4.626-4.628 0-2.552-2.075-4.631-4.626-4.631zm0 10.76c-3.377 0-6.126-2.749-6.126-6.129 0-3.381 2.749-6.13 6.126-6.13 3.38 0 6.131 2.749 6.131 6.13 0 3.38-2.751 6.129-6.131 6.129z"/>
   <path id="Fill-56" sketch:type="MSShapeGroup" fill="#fff" d="m55.667 48.623c-0.022 0-0.044-0.009-0.066-0.009-0.312-0.036-0.532-0.315-0.496-0.624l2.582-21.356c0.037-0.308 0.309-0.55 0.626-0.491 0.311 0.036 0.532 0.316 0.496 0.624l-2.583 21.355c-0.035 0.286-0.277 0.501-0.559 0.501"/>
   <path id="Fill-57" sketch:type="MSShapeGroup" fill="#FDF9CC" d="m128.04 37.584h-23.68c-0.24 0-0.01 0.815 0.32 1.668-0.87 0.33-1.58 1.11-1.58 2.235 0 1.388 0.97 3.042 2.18 3.042h20.02c1.2 0 2.16-1.654 2.16-3.042 0-0.11-0.08-0.169-0.08-0.28 0.32-0.015 0.65-0.082 0.95-0.293 1.02-0.721-0.29-3.33-0.29-3.33"/>
   <path id="Fill-58" sketch:type="MSShapeGroup" fill="#232535" d="m106.18 39.091c0.03 0.263-0.01 0.527-0.12 0.779-0.16 0.367-0.47 0.646-0.84 0.793-0.28 0.103-0.61 0.331-0.61 0.824 0 0.733 0.47 1.455 0.71 1.543l19.95-0.008c0.22-0.097 0.62-0.697 0.68-1.345-0.03-0.133-0.06-0.272-0.07-0.367-0.03-0.411 0.11-0.809 0.37-1.103 0.25-0.278 0.58-0.455 0.94-0.499-0.03-0.169-0.08-0.39-0.16-0.617h-20.85zm19.12 6.944h-20.02c-2.17 0-3.68-2.402-3.68-4.548 0-1.147 0.47-2.162 1.28-2.881-0.2-0.757-0.18-1.337 0.17-1.837 0.28-0.412 0.81-0.692 1.31-0.692h23.68c0.58 0 1.1 0.324 1.35 0.839 0.44 0.881 1.73 3.866-0.18 5.224-0.11 0.067-0.21 0.14-0.31 0.191-0.33 1.89-1.72 3.704-3.6 3.704z"/>
   <path id="Fill-59" sketch:type="MSShapeGroup" fill="#FDF9CC" d="m104.08 28.655c-0.54 0.455-0.98 1.095-0.98 1.955 0 1.368 0.97 2.491 2.18 2.491h20.02c1.2 0 2.16-1.123 2.16-2.491 0-0.86-0.41-1.5-0.96-1.955h2.79s1.36-10.611-13.31-10.611c-15.51 0-14.71 10.611-14.71 10.611h2.81"/>
   <path id="Fill-60" sketch:type="MSShapeGroup" fill="#232535" d="m102.89 27.149h1.19c0.63 0 1.2 0.395 1.42 0.991 0.21 0.595 0.03 1.265-0.45 1.67-0.39 0.329-0.44 0.595-0.44 0.8 0 0.567 0.35 0.983 0.67 0.983h20.02c0.31 0 0.66-0.402 0.66-0.983 0-0.205-0.04-0.485-0.42-0.793-0.49-0.404-0.68-1.073-0.46-1.677 0.22-0.587 0.78-0.991 1.42-0.991h1.27c-0.12-1.139-0.53-2.845-1.83-4.299-1.96-2.19-5.3-3.301-9.96-3.301-5.16 0-8.89 1.208-11.1 3.588-1.29 1.389-1.8 2.932-1.99 4.012zm22.41 7.458h-20.02c-2.03 0-3.68-1.792-3.68-3.997 0-0.148 0.01-0.301 0.02-0.448h-0.35c-0.79 0-1.444-0.611-1.504-1.39-0.014-0.176-0.282-4.246 2.904-7.686 2.8-3.013 7.28-4.548 13.31-4.548 5.58 0 9.7 1.462 12.24 4.35 3.09 3.505 2.58 7.783 2.56 7.958-0.1 0.75-0.74 1.316-1.49 1.316h-0.35c0.02 0.147 0.03 0.3 0.03 0.448 0 2.205-1.64 3.997-3.67 3.997z"/>
   <path id="Fill-61" sketch:type="MSShapeGroup" fill="#FDF9CC" d="m129.99 44.815h-29.41c-0.08 0.295-0.18 0.574-0.18 0.89 0 1.947 1.61 5.098 3.57 5.098h22.62c1.97 0 3.58-3.151 3.58-5.098 0-0.316-0.1-0.595-0.18-0.89"/>
   <path id="Fill-62" sketch:type="MSShapeGroup" fill="#232535" d="m101.97 46.322c0.27 1.411 1.35 2.977 2 2.977h22.62c0.65 0 1.74-1.566 2.01-2.977h-26.63zm24.62 5.988h-22.62c-2.94 0-5.079-3.946-5.079-6.605 0-0.448 0.105-0.824 0.182-1.088 0.18-0.654 0.826-1.308 1.507-1.308h29.41c0.67 0 1.27 0.455 1.44 1.102 0.13 0.426 0.25 0.823 0.25 1.294 0 2.659-2.14 6.605-5.09 6.605z"/>
   <path id="Fill-63" sketch:type="MSShapeGroup" fill="#FDF9CC" d="m102.05 37.305h13.17c0.72 0 1.3-0.815 1.3-1.816 0-1.014-0.58-1.807-1.3-1.807h-13.17c-0.73 0-1.3 0.793-1.3 1.807 0 1.001 0.57 1.816 1.3 1.816"/>
   <path id="Fill-64" sketch:type="MSShapeGroup" fill="#232535" d="m102.24 35.181c0.04 0.045 0.02 0.162 0.02 0.308 0 0.25 0.08 0.39 0.1 0.412l12.6-0.103c0.03-0.066 0.06-0.176 0.06-0.309 0-0.235-0.07-0.381-0.1-0.41l-12.68 0.102zm12.98 3.631h-13.17c-1.57 0-2.806-1.456-2.806-3.323 0-1.858 1.236-3.313 2.806-3.313h13.17c1.58 0 2.81 1.455 2.81 3.313 0 1.867-1.23 3.323-2.81 3.323z"/>
   <path id="Fill-65" sketch:type="MSShapeGroup" fill="#FDF9CC" d="m118.21 33.682c-0.73 0-1.31 0.793-1.31 1.807 0 1.001 0.58 1.816 1.31 1.816h10.56c0.73 0 1.3-0.815 1.3-1.816 0-1.014-0.57-1.807-1.3-1.807h-10.56"/>
   <path id="Fill-66" sketch:type="MSShapeGroup" fill="#232535" d="m118.39 35.181c0.05 0.045 0.02 0.162 0.02 0.308 0 0.25 0.08 0.39 0.1 0.412l10.01-0.103c0.02-0.066 0.05-0.176 0.05-0.309 0-0.235-0.08-0.381-0.1-0.41l-10.08 0.102zm10.38 3.631h-10.56c-1.57 0-2.81-1.456-2.81-3.323 0-1.858 1.24-3.313 2.81-3.313h10.56c1.58 0 2.81 1.455 2.81 3.313 0 1.867-1.23 3.323-2.81 3.323z"/>
   <path id="Fill-67" sketch:type="MSShapeGroup" fill="#C5C691" d="m127.46 30.61c0 1.368-0.96 2.491-2.16 2.491h-20.02c-1.21 0-2.18-1.123-2.18-2.491 0-1.412 0.97-2.514 2.18-2.514h20.02c1.2 0 2.16 1.102 2.16 2.514"/>
   <path id="Fill-68" sketch:type="MSShapeGroup" fill="#232535" d="m105.28 28.846c-0.8 0-1.42 0.779-1.42 1.764 0 0.956 0.63 1.734 1.42 1.734h20.02c0.78 0 1.42-0.778 1.42-1.734 0-0.985-0.63-1.764-1.42-1.764h-20.02zm20.02 5.013h-20.02c-1.61 0-2.93-1.456-2.93-3.249 0-1.829 1.29-3.262 2.93-3.262h20.02c1.64 0 2.91 1.433 2.91 3.262 0 1.793-1.3 3.249-2.91 3.249z"/>
   <path id="Fill-69" sketch:type="MSShapeGroup" fill="#C5C691" d="m127.46 41.487c0 1.388-0.96 3.042-2.16 3.042h-20.02c-1.21 0-2.18-1.654-2.18-3.042 0-1.389 0.97-2.514 2.18-2.514h20.02c1.2 0 2.16 1.125 2.16 2.514"/>
   <path id="Fill-70" sketch:type="MSShapeGroup" fill="#232535" d="m105.28 39.724c-0.79 0-1.42 0.792-1.42 1.763 0 1.072 0.75 2.292 1.42 2.292h20.02c0.66 0 1.42-1.22 1.42-2.292 0-0.971-0.64-1.763-1.42-1.763h-20.02zm20.02 5.555h-20.02c-1.68 0-2.93-1.999-2.93-3.792 0-1.801 1.32-3.264 2.93-3.264h20.02c1.61 0 2.91 1.463 2.91 3.264 0 1.793-1.25 3.792-2.91 3.792z"/>
   <path id="Fill-71" sketch:type="MSShapeGroup" fill="#D2DB33" d="m104.36 37.584c-0.51 0 0.95 3.218 1.23 3.468 0.8 0.751 1.81 0.838 2.84 0.654 1.77-0.329 3.3-1.666 5.14-1.748 1.93-0.081 3.4 1.529 5.36 1.529 1.63 0 2.94-0.904 4.52-1.015 1.43-0.08 3.38 1.514 4.88 0.442 1.02-0.721-0.29-3.33-0.29-3.33h-23.68"/>
   <path id="Fill-72" sketch:type="MSShapeGroup" fill="#232535" d="m105.15 38.34c0.26 0.759 0.8 1.949 1 2.205 0.47 0.442 1.27 0.58 2.15 0.42 0.69-0.126 1.36-0.449 2.08-0.779 0.98-0.456 1.98-0.934 3.16-0.978h0.01c1.26 0 2.17 0.41 3.05 0.823 0.79 0.361 1.53 0.706 2.33 0.706 0.75 0 1.44-0.236 2.18-0.477 0.72-0.237 1.45-0.479 2.29-0.536h0.03c0.77 0 1.41 0.21 2.03 0.416 0.57 0.2 1.16 0.39 1.66 0.39 0.31 0 0.55-0.074 0.77-0.234 0.18-0.125 0.05-1.044-0.33-1.956h-22.41zm2.42 4.205c-0.99 0-1.83-0.325-2.5-0.942-0.33-0.308-1.84-3.322-1.5-4.217 0.11-0.294 0.48-0.559 0.79-0.559h23.68c0.29 0 0.55 0.162 0.68 0.426 0.27 0.529 1.51 3.233 0.05 4.277-0.47 0.338-1.03 0.507-1.65 0.507-0.74 0-1.48-0.25-2.14-0.463-0.54-0.183-1.04-0.353-1.42-0.353-0.7 0.045-1.32 0.25-1.97 0.471-0.82 0.265-1.67 0.544-2.66 0.544-1.13 0-2.06-0.426-2.96-0.838-0.77-0.353-1.5-0.69-2.26-0.69-0.98 0.044-1.81 0.426-2.69 0.836-0.77 0.369-1.57 0.736-2.45 0.898-0.34 0.066-0.67 0.103-1 0.103z"/>
   <path id="Fill-73" sketch:type="MSShapeGroup" fill="#B89267" d="m101.27 28.655h28.02s1.36-10.611-13.31-10.611c-15.51 0-14.71 10.611-14.71 10.611"/>
   <path id="Fill-74" sketch:type="MSShapeGroup" fill="#232535" d="m102.03 27.906h26.54c-0.02-1.132-0.27-3.527-2.06-5.542-2.09-2.366-5.64-3.571-10.53-3.571-5.38 0-9.3 1.295-11.65 3.828-1.82 1.962-2.22 4.182-2.3 5.285zm27.26 1.499h-28.02c-0.4 0-0.73-0.301-0.75-0.69-0.02-0.163-0.26-3.918 2.7-7.115 2.65-2.858 6.95-4.306 12.76-4.306 5.36 0 9.29 1.375 11.68 4.086 2.86 3.262 2.39 7.202 2.38 7.372-0.05 0.373-0.37 0.653-0.75 0.653z"/>
   <path id="Fill-75" sketch:type="MSShapeGroup" fill="#B89267" d="m100.58 44.815c-0.08 0.295-0.18 0.574-0.18 0.89 0 1.947 1.61 5.098 3.57 5.098h22.62c1.97 0 3.58-3.151 3.58-5.098 0-0.316-0.1-0.595-0.18-0.89h-29.41"/>
   <path id="Fill-76" sketch:type="MSShapeGroup" fill="#232535" d="m101.16 45.573c0 0.043-0.01 0.087-0.01 0.132 0 1.755 1.49 4.35 2.82 4.35h22.62c1.34 0 2.83-2.595 2.83-4.35 0-0.045-0.01-0.089-0.02-0.132h-28.24zm25.43 5.981h-22.62c-2.47 0-4.325-3.542-4.325-5.849 0-0.346 0.082-0.633 0.153-0.89l0.047-0.183c0.084-0.337 0.385-0.574 0.735-0.574h29.41c0.33 0 0.63 0.237 0.72 0.559 0.12 0.419 0.21 0.72 0.21 1.088 0 2.307-1.86 5.849-4.33 5.849z"/>
   <path id="Fill-77" sketch:type="MSShapeGroup" fill="#FDF9CC" d="m116.52 35.489c0 1.001-0.58 1.816-1.3 1.816h-13.17c-0.73 0-1.3-0.815-1.3-1.816 0-1.014 0.57-1.807 1.3-1.807h13.17c0.72 0 1.3 0.793 1.3 1.807"/>
   <path id="Fill-78" sketch:type="MSShapeGroup" fill="#232535" d="m102.05 34.431c-0.23 0-0.55 0.405-0.55 1.058 0 0.648 0.33 1.058 0.55 1.058h13.17c0.22 0 0.55-0.419 0.55-1.058 0-0.646-0.32-1.058-0.55-1.058h-13.17zm13.17 3.63h-13.17c-1.15 0-2.053-1.132-2.053-2.572s0.903-2.557 2.053-2.557h13.17c1.15 0 2.06 1.117 2.06 2.557s-0.91 2.572-2.06 2.572z"/>
   <path id="Fill-79" sketch:type="MSShapeGroup" fill="#FDF9CC" d="m130.07 35.489c0 1.001-0.57 1.816-1.3 1.816h-10.56c-0.73 0-1.31-0.815-1.31-1.816 0-1.014 0.58-1.807 1.31-1.807h10.56c0.73 0 1.3 0.793 1.3 1.807"/>
   <path id="Fill-80" sketch:type="MSShapeGroup" fill="#232535" d="m118.21 34.431c-0.26 0-0.55 0.455-0.55 1.058 0 0.648 0.33 1.058 0.55 1.058h10.56c0.22 0 0.55-0.41 0.55-1.058 0-0.653-0.32-1.058-0.55-1.058h-10.56zm10.56 3.63h-10.56c-1.15 0-2.06-1.132-2.06-2.572s0.91-2.557 2.06-2.557h10.56c1.16 0 2.05 1.117 2.05 2.557s-0.89 2.572-2.05 2.572z"/>
   <path id="Fill-81" sketch:type="MSShapeGroup" fill="#fff" d="m127.24 27.302c-0.25 0-0.48-0.168-0.55-0.426-1.2-4.659-5.86-5.363-5.9-5.371-0.31-0.044-0.53-0.332-0.48-0.639 0.04-0.309 0.32-0.53 0.63-0.478 0.06 0.007 5.46 0.83 6.84 6.209 0.08 0.302-0.1 0.61-0.4 0.692-0.05 0.006-0.1 0.013-0.14 0.013"/>
   <path id="Fill-82" sketch:type="MSShapeGroup" fill="#fff" d="m126.66 48.997c-0.19 0-0.36-0.088-0.48-0.25-0.16-0.266-0.1-0.618 0.17-0.785 0.98-0.656 1.03-1.251 1.03-1.272 0.03-0.302 0.28-0.545 0.57-0.545h0.02c0.3 0.014 0.55 0.251 0.55 0.559 0 0.117-0.05 1.205-1.56 2.198-0.09 0.065-0.19 0.095-0.3 0.095"/>
   <path id="Fill-83" sketch:type="MSShapeGroup" fill="#F2F2F1" d="m189.46 22.49h-0.13c-0.91-3.821-5.33-6.739-10.67-6.739-5.35 0-9.76 2.918-10.67 6.739h-0.15c-1.66 0-3 1.345-3 3.005 0 1.661 1.34 3.006 3 3.006h0.42l2.32 22.302h16.15l2.32-22.302h0.41c1.67 0 3.01-1.345 3.01-3.006 0-1.66-1.34-3.005-3.01-3.005"/>
   <path id="Fill-84" sketch:type="MSShapeGroup" fill="#232535" d="m171.94 49.299h13.43l2.18-20.952c0.08-0.765 0.73-1.353 1.5-1.353h0.41c0.84 0 1.51-0.661 1.51-1.499s-0.67-1.499-1.51-1.499c-0.7 0-1.43-0.485-1.6-1.16-0.75-3.176-4.71-5.579-9.2-5.579s-8.45 2.403-9.2 5.579c-0.16 0.675-0.77 1.16-1.47 1.16-0.97 0-1.64 0.676-1.64 1.499s0.67 1.499 1.49 1.499h0.42c0.78 0 1.42 0.588 1.5 1.353l2.18 20.952zm14.79 3.011h-16.15c-0.77 0-1.42-0.579-1.5-1.351l-2.18-21.055c-2.04-0.433-3.56-2.249-3.56-4.409 0-2.146 1.5-3.953 3.51-4.401 1.56-4.029 6.33-6.85 11.81-6.85 5.49 0 10.26 2.837 11.81 6.871 2.05 0.493 3.51 2.271 3.51 4.38 0 2.16-1.53 3.969-3.56 4.409l-2.19 21.055c-0.08 0.772-0.73 1.351-1.5 1.351z"/>
   <path id="Fill-85" sketch:type="MSShapeGroup" fill="#fff" d="m175.78 36.938l-2.18-0.948 6.64-26.493c0.19-0.434 0.62-0.714 1.09-0.714h6.29v2.375h-5.52l-6.32 25.78"/>
   <path id="Fill-86" sketch:type="MSShapeGroup" fill="#232535" d="m174.48 35.548l0.78 0.337 6.12-24.912c0.08-0.33 0.38-0.572 0.72-0.572h4.76v-0.868h-5.53c-0.17 0-0.34 0.112-0.4 0.265l-6.45 25.75zm1.3 2.146c-0.1 0-0.2-0.029-0.3-0.066l-2.18-0.948c-0.34-0.146-0.52-0.516-0.43-0.874l6.64-26.493c0.35-0.823 1.05-1.278 1.82-1.278h6.29c0.41 0 0.74 0.337 0.74 0.748v2.375c0 0.419-0.33 0.756-0.74 0.756h-4.93l-6.18 25.207c-0.05 0.207-0.19 0.397-0.4 0.486-0.1 0.058-0.21 0.087-0.33 0.087z"/>
   <path id="Fill-87" sketch:type="MSShapeGroup" fill="#fff" d="m189.53 23.938c0 4.518-4.88 8.177-10.87 8.177-6.01 0-10.86-3.659-10.86-8.177 0-4.52 4.85-8.187 10.86-8.187 5.99 0 10.87 3.667 10.87 8.187"/>
   <path id="Fill-88" sketch:type="MSShapeGroup" fill="#232535" d="m178.66 16.501c-5.58 0-10.12 3.335-10.12 7.437 0 4.092 4.54 7.421 10.12 7.421s10.12-3.329 10.12-7.421c0-4.102-4.54-7.437-10.12-7.437zm0 16.373c-6.4 0-11.61-4.013-11.61-8.936 0-4.925 5.21-8.937 11.61-8.937s11.62 4.012 11.62 8.937c0 4.923-5.22 8.936-11.62 8.936z"/>
   <path id="Fill-89" sketch:type="MSShapeGroup" fill="#F7C994" d="m168.56 31.314l0.33 3.176 1.69 16.313h16.15l1.69-16.313 0.33-3.176h-20.19"/>
   <path id="Fill-90" sketch:type="MSShapeGroup" fill="#232535" d="m171.26 50.055h14.8l1.86-17.99h-18.52l1.86 17.99zm15.47 1.499h-16.15c-0.38 0-0.7-0.293-0.75-0.675l-2.02-19.49c-0.02-0.206 0.05-0.418 0.19-0.573 0.14-0.161 0.35-0.25 0.56-0.25h20.19c0.22 0 0.42 0.089 0.56 0.25 0.14 0.155 0.22 0.367 0.19 0.573l-2.02 19.49c-0.04 0.382-0.36 0.675-0.75 0.675z"/>
   <path id="Fill-91" sketch:type="MSShapeGroup" fill="#fff" d="m189.39 25.158h-21.47l0.64 6.156h20.19l0.64-6.156"/>
   <path id="Fill-92" sketch:type="MSShapeGroup" fill="#232535" d="m169.24 30.566h18.84l0.48-4.658h-19.8l0.48 4.658zm19.51 1.499h-20.19c-0.38 0-0.71-0.287-0.75-0.676l-0.64-6.158c-0.02-0.206 0.05-0.419 0.19-0.574 0.14-0.161 0.35-0.25 0.56-0.25h21.47c0.22 0 0.42 0.089 0.56 0.25 0.14 0.155 0.22 0.368 0.19 0.574l-0.64 6.158c-0.04 0.389-0.36 0.676-0.75 0.676z"/>
   <path id="Fill-93" sketch:type="MSShapeGroup" fill="#fff" d="m192.47 25.495c0 1.661-1.34 3.006-3.01 3.006h-21.62c-1.66 0-3-1.345-3-3.006 0-1.66 1.34-3.005 3-3.005h21.62c1.67 0 3.01 1.345 3.01 3.005"/>
   <path id="Fill-94" sketch:type="MSShapeGroup" fill="#232535" d="m167.84 23.246c-1.24 0-2.25 1.008-2.25 2.249 0 1.243 1.01 2.249 2.25 2.249h21.62c1.25 0 2.26-1.006 2.26-2.249 0-1.241-1.01-2.249-2.26-2.249h-21.62zm21.62 6.011h-21.62c-2.06 0-3.75-1.689-3.75-3.762s1.69-3.763 3.75-3.763h21.62c2.08 0 3.76 1.69 3.76 3.763s-1.68 3.762-3.76 3.762z"/>
   <path id="Fill-95" sketch:type="MSShapeGroup" fill="#fff" d="m185.18 48.049c-0.03 0-0.05-0.008-0.07-0.008-0.31-0.029-0.53-0.316-0.49-0.625l1.66-13.99c0.03-0.31 0.3-0.494 0.62-0.494 0.31 0.03 0.53 0.315 0.5 0.625l-1.67 13.992c-0.03 0.287-0.28 0.5-0.55 0.5"/>
  </g>
 </g>
</svg>
