<?xml version="1.0" encoding="UTF-8" standalone="no"?>
<svg xmlns:sketch="http://www.bohemiancoding.com/sketch/ns" xmlns="http://www.w3.org/2000/svg" height="150px" width="240px" version="1.1" xmlns:xlink="http://www.w3.org/1999/xlink" viewBox="0 0 240 150"><!-- Generator: Sketch 3.4 (15575) - http://www.bohemiancoding.com/sketch -->
 <title>12</title>
 <desc>Created with Sketch.</desc>
 <defs>
  <path id="path-1" d="m0 0.78h239.16v149.16h-239.16"/>
 </defs>
 <g id="Page-1" fill-rule="evenodd" sketch:type="MSPage" fill="none">
  <g id="12" sketch:type="MSLayerGroup">
   <g id="Group-3">
    <mask id="mask-2" sketch:name="Clip 2" fill="white">
     <use xlink:href="#path-1"/>
    </mask>
    <path id="Fill-1" sketch:type="MSShapeGroup" fill="#FAF9D6" mask="url(#mask-2)" d="m217.61 100.78c0.17-0.03 0.16-0.01 0 0m-2.73-0.73c0.28 0.13 0.54 0.21 0.8 0.34-0.25-0.09-0.51-0.2-0.8-0.34m13.13-35.233c-19.77-9.489-43.17 10.035-60.02 23.805 0.87-2.242 1.7-4.488 2.48-6.763 6.49-18.968 0.49-40.46-23.42-38.246-25.63 2.395-46.47 32.865-59.549 51.266-2.968 4.185-9.46 13.831-16.056 16.731 1.06-2.57 2.549-5.15 3.608-7.33 8.5-17.503 22.098-32.445 32.127-49.076 11.2-18.53 9.05-39.639-15.746-44.269-12.718-2.373-31.671 10.819-41.291 17.397-15.515 10.61-29.1 23.478-43.483 35.526-18.562 15.564 5.636 44.332 24.25 28.739 5.165-4.332 10.238-8.77 15.328-13.164-0.89 1.509-1.791 3.011-2.647 4.552-8.983 16.215-16.386 35.335-5.228 52.365 12.235 18.69 39.313 16.01 55.448 4.97 11.279-7.74 19.219-18.79 27.269-29.64-0.86 14.26 6.25 26.13 23.88 27.95 14 1.46 27.22-7.75 38.16-15.07 7.35-4.9 14.01-10.83 21.08-16.08 2.87-2.19 5.87-4.11 9.07-5.8 1.83-1.06 3.04-1.54 3.73-1.74 20.58 7.33 31.96-26.072 11.01-36.123"/>
   </g>
   <path id="Fill-4" sketch:type="MSShapeGroup" fill="#F2F2F1" d="m114.66 3.094h-73.543v126.01h147.09v-126.01l-73.55 0.004"/>
   <path id="Fill-5" sketch:type="MSShapeGroup" fill="#232435" d="m43.431 126.79h142.47v-121.39l-142.47 0.004 0.001 121.39zm144.79 4.62h-147.1c-1.275 0-2.313-1.04-2.313-2.31v-126.01c0-1.272 1.038-2.31 2.312-2.31h147.1c1.27 0 2.31 1.038 2.31 2.312v126.01c0 1.27-1.04 2.31-2.31 2.31z"/>
   <path id="Fill-6" sketch:type="MSShapeGroup" fill="#F2F2F1" d="m114.66 82.501c0.14 0 0.25 0.072 0.38 0.077v-16.483h-26.028c0.026-0.302 0.177-0.562 0.177-0.871 0-5.943-4.827-10.77-10.759-10.77-5.943 0-10.77 4.827-10.77 10.77 0 0.309 0.151 0.569 0.176 0.871h-26.339v63.005h73.543v-25.15c-0.13 0.01-0.24 0.08-0.38 0.08-5.94 0-10.77-4.827-10.77-10.77 0-5.932 4.83-10.759 10.77-10.759"/>
   <path id="Fill-7" sketch:type="MSShapeGroup" fill="#232435" d="m42.94 127.66h70.66v-22.23c-6.24-0.54-11.15-5.799-11.15-12.17 0-6.372 4.91-11.616 11.15-12.157v-13.567h-24.586c-0.401 0-0.784-0.169-1.06-0.462-0.271-0.293-0.412-0.688-0.378-1.088 0.023-0.288 0.09-0.525 0.135-0.694 0.034-5.21-4.144-9.394-9.281-9.394-5.142 0-9.326 4.184-9.326 9.326 0.079 0.237 0.146 0.474 0.169 0.762 0.034 0.4-0.107 0.795-0.378 1.088-0.276 0.293-0.66 0.462-1.06 0.462h-24.895v60.124zm72.11 2.88h-73.553c-0.795 0-1.444-0.64-1.444-1.44v-63.007c0-0.795 0.649-1.444 1.444-1.444h24.731c0.304-6.467 5.661-11.638 12.202-11.638 6.535 0 11.886 5.171 12.191 11.638h24.429c0.79 0 1.44 0.649 1.44 1.444v16.487c0 0.395-0.16 0.767-0.44 1.043-0.29 0.277-0.64 0.406-1.07 0.401-0.09-0.006-0.3-0.046-0.45-0.079-5.08 0.073-9.19 4.217-9.19 9.315 0 5.142 4.18 9.33 9.32 9.33-0.11-0.01 0.06-0.06 0.27-0.08 0.43 0.02 0.8 0.11 1.09 0.38 0.3 0.27 0.47 0.65 0.47 1.06v25.15c0 0.8-0.65 1.44-1.44 1.44z"/>
   <path id="Fill-8" sketch:type="MSShapeGroup" fill="#F2F2F1" d="m115.04 3.094v21.733c5.76 0.212 10.39 4.884 10.39 10.693 0 5.797-4.63 10.469-10.39 10.682v19.893h25.66c0.47 5.505 4.96 9.888 10.58 9.888 5.64 0 10.13-4.383 10.6-9.888h26.71v-63.001h-73.55"/>
   <path id="Fill-9" sketch:type="MSShapeGroup" fill="#232435" d="m116.49 64.649h24.21c0.76 0 1.38 0.575 1.45 1.325 0.4 4.883 4.33 8.565 9.13 8.565 4.81 0 8.74-3.682 9.15-8.565 0.07-0.75 0.69-1.325 1.44-1.325h25.27v-60.114h-70.65v18.98c5.93 0.88 10.39 5.909 10.39 12.005 0 6.09-4.46 11.114-10.39 11.993v17.136zm34.79 12.777c-5.87 0-10.75-4.167-11.84-9.89h-24.39c-0.8 0-1.45-0.648-1.45-1.443v-19.894c0-0.778 0.62-1.415 1.4-1.443 5.04-0.181 8.99-4.24 8.99-9.236 0-5.002-3.95-9.067-8.99-9.248-0.78-0.028-1.4-0.665-1.4-1.443v-21.737c0-0.795 0.65-1.444 1.45-1.444h73.54c0.8 0 1.44 0.649 1.44 1.444v63.001c0 0.795-0.64 1.443-1.44 1.443h-25.46c-1.09 5.723-5.97 9.89-11.85 9.89z"/>
   <path id="Fill-10" sketch:type="MSShapeGroup" fill="#8CC8D7" d="m161.88 66.095c-0.47 5.505-4.96 9.888-10.6 9.888-5.62 0-10.11-4.383-10.58-9.888h-25.66v16.483c-0.13-0.005-0.24-0.077-0.38-0.077-5.94 0-10.77 4.827-10.77 10.759 0 5.943 4.83 10.77 10.77 10.77 0.14 0 0.25-0.07 0.38-0.08v25.15h73.55v-63.005h-26.71"/>
   <path id="Fill-11" sketch:type="MSShapeGroup" fill="#232435" d="m116.49 127.66h70.65v-60.124h-24.01c-1.09 5.723-5.97 9.89-11.85 9.89-5.87 0-10.75-4.167-11.84-9.89h-22.95v15.044c0 0.395-0.16 0.767-0.44 1.043-0.29 0.277-0.64 0.406-1.07 0.401-0.12-0.006-0.42-0.068-0.54-0.102-4.92 0.023-9.1 4.207-9.1 9.338 0 5.142 4.18 9.33 9.32 9.33-0.11-0.01 0.06-0.06 0.27-0.08 0.43 0.02 0.8 0.11 1.09 0.38 0.3 0.27 0.47 0.65 0.47 1.06v23.71zm72.1 2.88h-73.54c-0.8 0-1.45-0.64-1.45-1.44v-23.67c-6.24-0.54-11.15-5.799-11.15-12.17 0-6.372 4.91-11.616 11.15-12.157v-15.01c0-0.795 0.65-1.444 1.45-1.444h25.65c0.76 0 1.38 0.575 1.45 1.325 0.4 4.883 4.33 8.565 9.13 8.565 4.81 0 8.74-3.682 9.15-8.565 0.07-0.75 0.69-1.325 1.44-1.325h26.72c0.8 0 1.44 0.649 1.44 1.444v63.007c0 0.8-0.64 1.44-1.44 1.44z"/>
   <path id="Fill-12" sketch:type="MSShapeGroup" fill="#8CC8D7" d="m115.04 24.827v-21.733h-73.543v63.001h26.339c-0.025-0.302-0.176-0.562-0.176-0.871 0-5.943 4.827-10.77 10.77-10.77 5.932 0 10.759 4.827 10.759 10.77 0 0.309-0.151 0.569-0.177 0.871h26.028v-19.893c5.76-0.213 10.39-4.885 10.39-10.682 0-5.809-4.63-10.481-10.39-10.693"/>
   <path id="Fill-13" sketch:type="MSShapeGroup" fill="#232435" d="m90.621 64.649h22.979v-18.45c0-0.778 0.62-1.415 1.4-1.443 5.04-0.181 8.99-4.24 8.99-9.236 0-5.002-3.95-9.067-8.99-9.248-0.78-0.028-1.4-0.665-1.4-1.443v-20.294h-70.66v60.114h23.288c0.304-6.467 5.661-11.638 12.202-11.638 6.535 0 11.886 5.171 12.191 11.638zm24.429 2.887h-26.036c-0.401 0-0.784-0.169-1.06-0.462-0.271-0.293-0.412-0.688-0.378-1.088 0.023-0.288 0.09-0.525 0.135-0.694 0.034-5.21-4.144-9.394-9.281-9.394-5.142 0-9.326 4.184-9.326 9.326 0.079 0.237 0.146 0.474 0.169 0.762 0.034 0.4-0.107 0.795-0.378 1.088-0.276 0.293-0.66 0.462-1.06 0.462h-26.338c-0.795 0-1.444-0.648-1.444-1.443v-63.001c0-0.795 0.649-1.444 1.444-1.444h73.553c0.79 0 1.44 0.649 1.44 1.444v20.423c5.93 0.88 10.39 5.909 10.39 12.005 0 6.09-4.46 11.114-10.39 11.993v18.58c0 0.795-0.65 1.443-1.44 1.443z"/>
   <path id="Fill-14" sketch:type="MSShapeGroup" fill="#fff" d="m68.72 38.283h3.113v-4.793l-3.113 4.793zm3.113 2.165h-5.515v-1.94l4.579-7.195h3.383v6.97h1.489v2.165h-1.489v2.379h-2.447v-2.379z"/>
   <path id="Fill-15" sketch:type="MSShapeGroup" fill="#fff" d="m81.588 33.309c-1.658 0-2.278 1.647-2.278 3.767s0.62 3.778 2.278 3.778c1.635 0 2.255-1.658 2.255-3.778s-0.62-3.767-2.255-3.767zm0-2.176c3.281 0 4.759 2.977 4.759 5.943s-1.478 5.954-4.759 5.954c-3.305 0-4.771-2.988-4.771-5.954s1.466-5.943 4.771-5.943z"/>
   <path id="Fill-16" sketch:type="MSShapeGroup" fill="#fff" d="m96.677 38.644c-0.801 0-1.365 0.597-1.365 1.545 0 0.924 0.564 1.499 1.365 1.499 0.789 0 1.376-0.575 1.376-1.499 0-0.948-0.587-1.545-1.376-1.545zm0-1.365c1.759 0 2.932 1.286 2.932 2.91 0 1.601-1.173 2.841-2.932 2.841-1.771 0-2.921-1.24-2.921-2.841 0-1.624 1.15-2.91 2.921-2.91zm-0.113-5.966h1.319l-7.375 11.514h-1.297l7.353-11.514zm-6.225 1.184c-0.778 0-1.365 0.576-1.365 1.545 0 0.891 0.587 1.478 1.365 1.478 0.789 0 1.364-0.587 1.364-1.478 0-0.969-0.575-1.545-1.364-1.545zm0-1.364c1.77 0 2.932 1.286 2.932 2.909 0 1.602-1.162 2.831-2.932 2.831-1.771 0-2.921-1.229-2.921-2.831 0-1.623 1.15-2.909 2.921-2.909z"/>
   <path id="Fill-17" sketch:type="MSShapeGroup" fill="#232435" d="m139.1 39.546c0.79 0.834 2.06 1.308 3.18 1.308 1.4 0 2.18-0.598 2.18-1.466 0-0.914-0.71-1.331-2.32-1.331-0.48 0-1.26 0.023-1.44 0.034v-2.21c0.22 0.022 1.01 0.022 1.44 0.022 1.28 0 2.13-0.383 2.13-1.229 0-0.913-0.94-1.365-2.15-1.365-1.1 0-2.1 0.418-2.92 1.196l-1.23-1.534c0.94-1.06 2.39-1.838 4.41-1.838 2.7 0 4.36 1.218 4.36 3.124 0 1.454-1.24 2.402-2.53 2.627 1.17 0.124 2.7 1.038 2.7 2.763 0 1.985-1.79 3.383-4.55 3.383-2.12 0-3.69-0.811-4.53-1.838l1.27-1.646"/>
   <path id="Fill-18" sketch:type="MSShapeGroup" fill="#232435" d="m153.01 33.309c-1.66 0-2.28 1.647-2.28 3.767s0.62 3.778 2.28 3.778c1.63 0 2.25-1.658 2.25-3.778s-0.62-3.767-2.25-3.767zm0-2.176c3.28 0 4.76 2.977 4.76 5.943s-1.48 5.954-4.76 5.954c-3.31 0-4.77-2.988-4.77-5.954s1.46-5.943 4.77-5.943z"/>
   <path id="Fill-19" sketch:type="MSShapeGroup" fill="#232435" d="m168.1 38.644c-0.8 0-1.37 0.597-1.37 1.545 0 0.924 0.57 1.499 1.37 1.499 0.78 0 1.37-0.575 1.37-1.499 0-0.948-0.59-1.545-1.37-1.545zm0-1.365c1.76 0 2.93 1.286 2.93 2.91 0 1.601-1.17 2.841-2.93 2.841-1.77 0-2.92-1.24-2.92-2.841 0-1.624 1.15-2.91 2.92-2.91zm-0.12-5.966h1.32l-7.37 11.514h-1.3l7.35-11.514zm-6.22 1.184c-0.78 0-1.37 0.576-1.37 1.545 0 0.891 0.59 1.478 1.37 1.478 0.79 0 1.36-0.587 1.36-1.478 0-0.969-0.57-1.545-1.36-1.545zm0-1.364c1.77 0 2.93 1.286 2.93 2.909 0 1.602-1.16 2.831-2.93 2.831s-2.92-1.229-2.92-2.831c0-1.623 1.15-2.909 2.92-2.909z"/>
   <path id="Fill-20" sketch:type="MSShapeGroup" fill="#fff" d="m140.98 95.098l-1.91 1.951-1.4-1.466 3.62-3.643h2.14v11.52h-2.45v-8.362"/>
   <path id="Fill-21" sketch:type="MSShapeGroup" fill="#fff" d="m149.95 93.936c-1.66 0-2.28 1.647-2.28 3.767s0.62 3.777 2.28 3.777c1.64 0 2.26-1.657 2.26-3.777s-0.62-3.767-2.26-3.767zm0-2.176c3.28 0 4.76 2.977 4.76 5.943 0 2.967-1.48 5.957-4.76 5.957-3.3 0-4.77-2.99-4.77-5.957 0-2.966 1.47-5.943 4.77-5.943z"/>
   <path id="Fill-22" sketch:type="MSShapeGroup" fill="#fff" d="m165.05 99.271c-0.8 0-1.36 0.597-1.36 1.549 0 0.92 0.56 1.5 1.36 1.5 0.79 0 1.38-0.58 1.38-1.5 0-0.952-0.59-1.549-1.38-1.549zm0-1.365c1.76 0 2.93 1.286 2.93 2.914 0 1.6-1.17 2.84-2.93 2.84-1.77 0-2.92-1.24-2.92-2.84 0-1.628 1.15-2.914 2.92-2.914zm-0.11-5.966h1.32l-7.38 11.52h-1.29l7.35-11.52zm-6.23 1.184c-0.77 0-1.36 0.576-1.36 1.545 0 0.891 0.59 1.478 1.36 1.478 0.79 0 1.37-0.587 1.37-1.478 0-0.969-0.58-1.545-1.37-1.545zm0-1.364c1.77 0 2.93 1.285 2.93 2.909 0 1.602-1.16 2.831-2.93 2.831s-2.92-1.229-2.92-2.831c0-1.624 1.15-2.909 2.92-2.909z"/>
   <path id="Fill-23" sketch:type="MSShapeGroup" fill="#232435" d="m66.713 101.52c4.714-3.467 6.101-4.663 6.101-6.072 0-1.004-0.925-1.512-1.872-1.512-1.308 0-2.312 0.519-3.09 1.331l-1.399-1.624c1.128-1.297 2.831-1.883 4.444-1.883 2.447 0 4.398 1.387 4.398 3.688 0 1.962-1.624 3.676-4.613 5.852h4.703v2.16h-8.672v-1.94"/>
   <path id="Fill-24" sketch:type="MSShapeGroup" fill="#232435" d="m81.655 93.936c-1.657 0-2.278 1.647-2.278 3.767s0.621 3.777 2.278 3.777c1.635 0 2.256-1.657 2.256-3.777s-0.621-3.767-2.256-3.767zm0-2.176c3.282 0 4.759 2.977 4.759 5.943 0 2.967-1.477 5.957-4.759 5.957-3.304 0-4.77-2.99-4.77-5.957 0-2.966 1.466-5.943 4.77-5.943z"/>
   <path id="Fill-25" sketch:type="MSShapeGroup" fill="#232435" d="m96.744 99.271c-0.8 0-1.364 0.597-1.364 1.549 0 0.92 0.564 1.5 1.364 1.5 0.79 0 1.376-0.58 1.376-1.5 0-0.952-0.586-1.549-1.376-1.549zm0-1.365c1.76 0 2.932 1.286 2.932 2.914 0 1.6-1.172 2.84-2.932 2.84-1.77 0-2.92-1.24-2.92-2.84 0-1.628 1.15-2.914 2.92-2.914zm-0.112-5.966h1.319l-7.375 11.52h-1.297l7.353-11.52zm-6.225 1.184c-0.779 0-1.365 0.576-1.365 1.545 0 0.891 0.586 1.478 1.365 1.478 0.789 0 1.364-0.587 1.364-1.478 0-0.969-0.575-1.545-1.364-1.545zm0-1.364c1.77 0 2.932 1.285 2.932 2.909 0 1.602-1.162 2.831-2.932 2.831-1.771 0-2.921-1.229-2.921-2.831 0-1.624 1.15-2.909 2.921-2.909z"/>
   <path id="Fill-26" sketch:type="MSShapeGroup" fill="#F2F2F1" d="m47.609 53.293c-0.474 0-0.868-0.395-0.868-0.868v-44.117c0-0.474 0.394-0.869 0.868-0.869h24.224c0.473 0 0.868 0.395 0.868 0.869 0 0.473-0.395 0.868-0.868 0.868h-23.356v43.249c0 0.473-0.394 0.868-0.868 0.868"/>
   <path id="Fill-27" sketch:type="MSShapeGroup" fill="#7DB3C0" d="m183.77 122.25h-5.77c-0.48 0-0.87-0.39-0.87-0.87 0-0.47 0.39-0.86 0.87-0.86h4.9v-47.999c0-0.474 0.4-0.869 0.87-0.869s0.87 0.395 0.87 0.869v48.859c0 0.48-0.4 0.87-0.87 0.87"/>
  </g>
 </g>
</svg>
