<?xml version="1.0" encoding="UTF-8" standalone="no"?>
<svg xmlns:sketch="http://www.bohemiancoding.com/sketch/ns" xmlns="http://www.w3.org/2000/svg" height="159px" width="222px" version="1.1" xmlns:xlink="http://www.w3.org/1999/xlink" viewBox="0 0 222 159"><!-- Generator: Sketch 3.4 (15575) - http://www.bohemiancoding.com/sketch -->
 <title>7</title>
 <desc>Created with Sketch.</desc>
 <defs>
  <path id="path-1" d="m0 159h221.32v-158.92l-221.32 0.002"/>
 </defs>
 <g id="Page-1" fill-rule="evenodd" sketch:type="MSPage" fill="none">
  <g id="7" sketch:type="MSLayerGroup">
   <g id="Group-3">
    <mask id="mask-2" sketch:name="Clip 2" fill="white">
     <use xlink:href="#path-1"/>
    </mask>
    <path id="Fill-1" sketch:type="MSShapeGroup" fill="#DDDCE7" mask="url(#mask-2)" d="m198.29 129.26c0.17 0 0.16 0.02 0 0m-2.41-1.09c0.23 0.16 0.47 0.28 0.68 0.43-0.21-0.12-0.44-0.26-0.68-0.43m17.55-30.648c-16.87-11.813-41.54 2.708-59.26 12.898 1.14-1.95 2.26-3.9 3.33-5.89 8.91-16.59 6.63-37.423-15.86-39.023-24.12-1.695-48.093 23.358-63.02 38.413-3.39 3.43-10.879 11.37-17.434 13.05 1.375-2.22 3.147-4.37 4.462-6.23 10.551-14.93 25.434-26.7 37.272-40.58 13.21-15.463 14.44-35.354-7.834-43.431-11.424-4.142-31.003 5.189-40.923 9.815-15.999 7.464-30.553 17.314-45.723 26.282-19.579 11.589-1.547 41.944 18.084 30.338 5.448-3.226 10.827-6.564 16.215-9.859-1.055 1.262-2.119 2.517-3.148 3.814-10.801 13.651-20.582 30.241-12.842 47.731 8.483 19.19 33.987 20.84 50.626 13.07 11.631-5.44 20.677-14.47 29.805-23.29-2.98 13.07 1.8 25.16 17.86 29.54 12.74 3.49 26.41-3.03 37.66-8.14 7.56-3.42 14.64-7.9 21.99-11.68 2.99-1.59 6.07-2.91 9.29-3.99 1.86-0.7 3.05-0.96 3.72-1.05 17.96 9.94 33.6-19.27 15.73-31.788"/>
   </g>
   <path id="Fill-4" sketch:type="MSShapeGroup" fill="#CFB18F" d="m28.932 75.102h160.41v20.314h-160.41l0.002-20.314z"/>
   <path id="Fill-5" sketch:type="MSShapeGroup" fill="#232535" d="m30.296 94.05h157.67v-17.582h-157.67l-0.004 17.582zm159.04 2.731h-160.41c-0.751 0-1.364-0.612-1.364-1.365v-20.314c0-0.753 0.613-1.365 1.366-1.365h160.41c0.75 0 1.36 0.612 1.36 1.365v20.314c0 0.753-0.61 1.365-1.36 1.365z"/>
   <path id="Fill-6" sketch:type="MSShapeGroup" fill="#fff" d="m64.497 32.383c0-7.764-6.301-14.066-14.066-14.066s-14.066 6.302-14.066 14.066c0 4.629 2.264 8.699 5.72 11.264l4.591 26.313h-2.812v6.688h2.87v5.581c-1.351 1.099-2.27 2.697-2.27 4.575s0.919 3.477 2.27 4.577v3.661c0 1.552 0.953 2.872 2.305 3.418v5.06h2.557v-5.014c1.465-0.492 2.531-1.83 2.531-3.464v-3.661c1.353-1.1 2.271-2.699 2.271-4.577s-0.918-3.476-2.271-4.575v-5.581h2.871v-6.688h-2.811l4.589-26.313c3.458-2.565 5.721-6.635 5.721-11.264"/>
   <path id="Fill-7" sketch:type="MSShapeGroup" fill="#232535" d="m45.229 75.283h1.505c0.753 0 1.366 0.612 1.366 1.365v5.581c0 0.414-0.187 0.8-0.507 1.059-1.137 0.926-1.764 2.177-1.764 3.516s0.627 2.591 1.764 3.517c0.32 0.259 0.507 0.647 0.507 1.06v3.661c0 0.952 0.566 1.799 1.452 2.153 0.366 0.152 0.646 0.452 0.773 0.811 0.145-0.366 0.446-0.659 0.838-0.793 0.972-0.325 1.599-1.178 1.599-2.171v-3.661c0-0.413 0.187-0.801 0.506-1.06 1.139-0.926 1.765-2.178 1.765-3.517s-0.626-2.59-1.765-3.516c-0.319-0.259-0.506-0.645-0.506-1.059v-5.581c0-0.753 0.613-1.365 1.365-1.365h1.507v-3.956h-1.447c-0.4 0-0.786-0.181-1.046-0.487-0.259-0.306-0.367-0.719-0.3-1.111l4.59-26.316c0.059-0.347 0.254-0.652 0.532-0.859 3.283-2.437 5.168-6.148 5.168-10.171 0-7.005-5.693-12.7-12.7-12.7-7.006 0-12.701 5.695-12.701 12.7 0 4.023 1.885 7.734 5.168 10.171 0.279 0.207 0.473 0.512 0.532 0.859l4.59 26.316c0.067 0.392-0.041 0.805-0.3 1.111s-0.646 0.487-1.044 0.487h-1.447v3.956m6.367 29.607h-2.557c-0.752 0-1.366-0.62-1.366-1.37v-4.236c-1.425-0.917-2.304-2.496-2.304-4.242v-3.049c-1.466-1.406-2.271-3.223-2.271-5.189 0-1.964 0.805-3.783 2.271-5.188v-3.604h-1.505c-0.753 0-1.365-0.612-1.365-1.364v-6.688c0-0.752 0.612-1.364 1.365-1.364h1.185l-4.216-24.19c-3.716-2.959-5.834-7.307-5.834-12.023 0-8.504 6.927-15.431 15.432-15.431s15.431 6.927 15.431 15.431c0 4.716-2.117 9.064-5.834 12.023l-4.216 24.19h1.186c0.753 0 1.365 0.612 1.365 1.364v6.688c0 0.752-0.612 1.364-1.365 1.364h-1.505v3.604c1.465 1.405 2.271 3.224 2.271 5.188 0 1.966-0.806 3.783-2.271 5.189v3.049c0 1.812-0.986 3.451-2.532 4.338v4.14c0 0.75-0.611 1.37-1.365 1.37"/>
   <path id="Fill-8" sketch:type="MSShapeGroup" fill="#fff" d="m49.146 96.129h2.345v7.011h-2.345v-7.011z"/>
   <path id="Fill-9" sketch:type="MSShapeGroup" fill="#232535" d="m51.491 94.423h-2.345c-0.939 0-1.706 0.766-1.706 1.706v7.011c0 0.94 0.767 1.71 1.706 1.71h2.345c0.938 0 1.704-0.77 1.704-1.71v-7.011c0-0.94-0.766-1.706-1.704-1.706zm-2.345 1.706h2.345v7.011h-2.345v-7.011z"/>
   <path id="Fill-10" sketch:type="MSShapeGroup" fill="#fff" d="m50.57 33.662h-10.229l7.385 42.339h5.409l7.385-42.339h-9.95"/>
   <path id="Fill-11" sketch:type="MSShapeGroup" fill="#232535" d="m48.872 74.636h3.117l6.907-39.608h-16.931l6.907 39.608m4.263 2.731h-5.409c-0.664 0-1.232-0.48-1.345-1.132l-7.385-42.339c-0.066-0.393 0.039-0.799 0.299-1.113 0.26-0.306 0.646-0.485 1.046-0.485h20.179c0.401 0 0.786 0.179 1.046 0.485 0.261 0.314 0.367 0.72 0.301 1.113l-7.387 42.339c-0.112 0.652-0.679 1.132-1.345 1.132"/>
   <path id="Fill-12" sketch:type="MSShapeGroup" fill="#fff" d="m48.466 46.024v24.51-24.51"/>
   <path id="Fill-13" sketch:type="MSShapeGroup" fill="#232535" d="m48.466 70.959c-0.233 0-0.426-0.193-0.426-0.425v-24.51c0-0.232 0.193-0.426 0.426-0.426s0.427 0.194 0.427 0.426v24.51c0 0.232-0.194 0.425-0.427 0.425"/>
   <path id="Fill-14" sketch:type="MSShapeGroup" fill="#fff" d="m52.516 46.024v24.51-24.51"/>
   <path id="Fill-15" sketch:type="MSShapeGroup" fill="#232535" d="m52.516 70.959c-0.234 0-0.427-0.193-0.427-0.425v-24.51c0-0.232 0.193-0.426 0.427-0.426 0.233 0 0.426 0.194 0.426 0.426v24.51c0 0.232-0.193 0.425-0.426 0.425"/>
   <path id="Fill-16" sketch:type="MSShapeGroup" fill="#fff" d="m54.127 95.042c0 2.046-1.652 3.697-3.703 3.697-2.038 0-3.69-1.651-3.69-3.697v-18.608c0-2.044 1.652-3.695 3.69-3.695 2.051 0 3.703 1.651 3.703 3.695v18.608"/>
   <path id="Fill-17" sketch:type="MSShapeGroup" fill="#232535" d="m50.424 73.417c-1.658 0-3.01 1.353-3.01 3.017v18.608c0 1.667 1.352 3.018 3.01 3.018 1.665 0 3.024-1.351 3.024-3.018v-18.608c0-1.664-1.359-3.017-3.024-3.017m0 26.002c-2.411 0-4.369-1.966-4.369-4.377v-18.608c0-2.411 1.958-4.375 4.369-4.375 2.417 0 4.383 1.964 4.383 4.375v18.608c0 2.411-1.966 4.377-4.383 4.377"/>
   <path id="Fill-18" sketch:type="MSShapeGroup" fill="#fff" d="m64.497 32.383c0 7.767-6.301 14.067-14.066 14.067s-14.066-6.3-14.066-14.067c0-7.764 6.301-14.066 14.066-14.066s14.066 6.302 14.066 14.066"/>
   <path id="Fill-19" sketch:type="MSShapeGroup" fill="#232535" d="m50.431 19.343c-7.192 0-13.041 5.848-13.041 13.04 0 7.195 5.849 13.041 13.041 13.041s13.04-5.846 13.04-13.041c0-7.192-5.848-13.04-13.04-13.04m0 28.134c-8.319 0-15.092-6.774-15.092-15.094 0-8.318 6.773-15.091 15.092-15.091 8.318 0 15.091 6.773 15.091 15.091 0 8.32-6.773 15.094-15.091 15.094"/>
   <path id="Fill-20" sketch:type="MSShapeGroup" fill="#DBA73A" d="m65.828 31.351c-0.239-3.593-1.714-6.854-4.004-9.361 2.533 2.31 4.218 5.533 4.536 9.146-0.177 0.072-0.355 0.144-0.532 0.215"/>
   <path id="Fill-21" sketch:type="MSShapeGroup" fill="#C5953D" d="m53.408 103.14h-0.213v-3.903c0.073-0.047 0.144-0.096 0.213-0.146v4.049zm1.129-5.171c0.266-0.365 0.482-0.764 0.641-1.188h0.419c-0.261 0.469-0.624 0.873-1.06 1.188zm3.826-28.009h0.552v3.777h-0.552v-3.777zm-2.019-1.364h-0.531l4.221-24.195c0.214-0.171 0.423-0.346 0.627-0.526l-4.317 24.721zm5.57-25.958c2.538-2.803 3.948-6.406 3.948-10.255 0-0.346-0.011-0.691-0.034-1.032 0.177-0.071 0.355-0.143 0.532-0.215 0.036 0.411 0.055 0.827 0.055 1.247 0 4.061-1.743 7.693-4.501 10.255z"/>
   <path id="Fill-22" sketch:type="MSShapeGroup" fill="#B87F39" d="m56.045 94.05h-0.552v-2.057c0.196-0.188 0.38-0.384 0.552-0.586v2.643zm0.072-2.729c1.068-1.292 1.647-2.851 1.647-4.517 0-1.663-0.578-3.222-1.644-4.514 1.311 1.097 2.196 2.671 2.196 4.514 0 1.845-0.886 3.42-2.199 4.517zm-0.072-9.12c-0.172-0.202-0.356-0.397-0.552-0.585v-3.604h0.552v4.189zm2.318-5.733h0.552v0.18h-0.552v-0.18z"/>
   <path id="Fill-23" sketch:type="MSShapeGroup" fill="#211F1B" d="m55.597 96.781h-0.419c0.205-0.546 0.315-1.133 0.315-1.739v-0.992h0.552v0.992c0 0.636-0.162 1.226-0.448 1.739zm2.766-23.044h0.552v2.73h-0.552v-2.73z"/>
   <path id="Fill-24" sketch:type="MSShapeGroup" fill="#DBA73A" d="m54.807 88.169v-2.729c0.149 0.437 0.226 0.895 0.226 1.364s-0.077 0.927-0.226 1.365m0.827-12.886h-0.981c-0.001-0.005-0.003-0.01-0.004-0.015l0.687-3.941h0.298v3.956m-9.425 0h-0.426v-2.477l0.43 2.462c-0.002 0.005-0.003 0.01-0.004 0.015"/>
   <path id="Fill-25" sketch:type="MSShapeGroup" fill="#211F1B" d="m53.195 99.237v-0.807c0.984-0.804 1.612-2.024 1.612-3.388v-6.873c0.149-0.438 0.226-0.896 0.226-1.365s-0.077-0.927-0.226-1.364v-9.006c0-0.398-0.053-0.784-0.154-1.151h0.981v-3.956h-0.298l0.477-2.731h0.531l-0.239 1.364h2.258v6.688h-2.318v1.364h-0.552v3.604c0.196 0.188 0.38 0.383 0.552 0.585v0.028c0.025 0.02 0.05 0.041 0.075 0.061 1.066 1.292 1.644 2.851 1.644 4.514 0 1.666-0.579 3.225-1.647 4.517l-0.072 0.06v0.026c-0.172 0.202-0.356 0.398-0.552 0.586v3.049c0 0.606-0.11 1.193-0.315 1.739-0.159 0.424-0.375 0.823-0.641 1.188-0.338 0.244-0.719 0.434-1.129 0.558v0.564c-0.069 0.05-0.14 0.099-0.213 0.146m-7.14-22.589h-0.272v-1.365h0.426c-0.1 0.367-0.154 0.753-0.154 1.151v0.214m13.979-32.247l0.078-0.45c3.305-2.772 5.41-6.93 5.41-11.568 0-5.087-2.533-9.596-6.403-12.331 0.978 0.538 1.886 1.19 2.705 1.938 2.29 2.507 3.765 5.768 4.004 9.361 0.023 0.341 0.034 0.686 0.034 1.032 0 3.849-1.41 7.452-3.948 10.255-0.385 0.358-0.79 0.695-1.214 1.009l-0.039 0.228c-0.204 0.18-0.413 0.355-0.627 0.526"/>
   <path id="Fill-26" sketch:type="MSShapeGroup" fill="#DBA73A" d="m51.491 103.14h-0.427v-3.768c0.145-0.021 0.287-0.049 0.427-0.085v3.853"/>
   <path id="Fill-27" sketch:type="MSShapeGroup" fill="#211F1B" d="m53.195 103.14h-2.131 0.427v-3.853c0.634-0.159 1.213-0.456 1.704-0.857v4.71"/>
   <path id="Fill-28" sketch:type="MSShapeGroup" fill="#DBA73A" d="m52.36 72.51c-0.584-0.289-1.241-0.451-1.936-0.451-0.69 0-1.343 0.161-1.923 0.447l-0.284-1.628c0.07 0.051 0.156 0.081 0.249 0.081 0.233 0 0.427-0.193 0.427-0.425v-23.135c0.506 0.051 1.018 0.078 1.538 0.078 0.56 0 1.113-0.031 1.658-0.091v23.148c0 0.232 0.193 0.425 0.427 0.425 0.041 0 0.08-0.006 0.117-0.017l-0.273 1.568m0.582-3.336v-21.907c1.426-0.24 2.784-0.68 4.045-1.292l-4.045 23.199m-4.902-2.382l-3.589-20.552c1.131 0.49 2.335 0.846 3.589 1.047v19.505"/>
   <path id="Fill-29" sketch:type="MSShapeGroup" fill="#211F1B" d="m46.213 75.268l-0.43-2.462v-2.846h2.257v0.574c0 0.14 0.07 0.266 0.177 0.344l0.284 1.628c-1.109 0.547-1.953 1.55-2.288 2.762m8.436 0c-0.336-1.21-1.181-2.211-2.289-2.758l0.273-1.568c0.177-0.051 0.309-0.216 0.309-0.408v-1.36l4.045-23.199c1.127-0.546 2.175-1.228 3.125-2.024l-5.463 31.317"/>
   <path id="Fill-30" sketch:type="MSShapeGroup" fill="#211F1B" d="m48.466 70.959c-0.093 0-0.179-0.03-0.249-0.081-0.107-0.078-0.177-0.204-0.177-0.344v-0.574h0.553l-0.553-3.168v-19.505c0.281 0.045 0.566 0.082 0.853 0.112v23.135c0 0.232-0.194 0.425-0.427 0.425"/>
   <path id="Fill-31" sketch:type="MSShapeGroup" fill="#211F1B" d="m52.516 70.959c-0.234 0-0.427-0.193-0.427-0.425v-23.148c0.286-0.032 0.572-0.071 0.853-0.119v23.267c0 0.192-0.132 0.357-0.309 0.408-0.037 0.011-0.076 0.017-0.117 0.017"/>
   <path id="Fill-32" sketch:type="MSShapeGroup" fill="#DBA73A" d="m50.424 98.06c-0.061 0-0.122-0.002-0.182-0.006-0.959-0.658-1.59-1.752-1.59-3.012v-3.661c-0.472-0.385-0.892-0.83-1.238-1.327v-6.5c0.346-0.496 0.766-0.941 1.238-1.325v-5.581h-1.238v-0.214c0-1.664 1.352-3.017 3.01-3.017 1.665 0 3.024 1.353 3.024 3.017v18.608c0 1.667-1.359 3.018-3.024 3.018"/>
   <path id="Fill-33" sketch:type="MSShapeGroup" fill="#211F1B" d="m51.064 99.372v-0.893c-0.293-0.108-0.569-0.251-0.822-0.425 0.06 0.004 0.121 0.006 0.182 0.006 1.665 0 3.024-1.351 3.024-3.018v-18.608c0-1.664-1.359-3.017-3.024-3.017-1.658 0-3.01 1.353-3.01 3.017v0.214h-1.359v-0.214c0-0.398 0.054-0.784 0.154-1.151 0.001-0.005 0.002-0.01 0.004-0.015 0.335-1.212 1.179-2.215 2.288-2.762 0.58-0.286 1.233-0.447 1.923-0.447 0.695 0 1.352 0.162 1.936 0.451 1.108 0.547 1.953 1.548 2.289 2.758 0.001 0.005 0.003 0.01 0.004 0.015 0.101 0.367 0.154 0.753 0.154 1.151v18.608c0 1.364-0.628 2.584-1.612 3.388-0.491 0.401-1.07 0.698-1.704 0.857-0.14 0.036-0.282 0.064-0.427 0.085m-3.65-9.318c-0.644-0.924-1.033-2.028-1.033-3.25s0.389-2.325 1.033-3.25v6.5"/>
   <path id="Fill-34" sketch:type="MSShapeGroup" fill="#DBA73A" d="m50.431 45.424c-2.332 0-4.522-0.615-6.418-1.69l-0.015-0.087c-3.451-2.565-5.715-6.635-5.715-11.264 0-4.7 2.308-8.864 5.854-11.419 1.867-1.033 4.013-1.621 6.294-1.621 7.192 0 13.04 5.848 13.04 13.04 0 7.195-5.848 13.041-13.04 13.041m0-22.671c-5.316 0-9.631 4.317-9.631 9.63 0 5.316 4.315 9.631 9.631 9.631 5.315 0 9.63-4.315 9.63-9.631 0-5.313-4.315-9.63-9.63-9.63"/>
   <path id="Fill-35" sketch:type="MSShapeGroup" fill="#211F1B" d="m50.431 47.477c-0.52 0-1.032-0.027-1.538-0.078-0.287-0.03-0.572-0.067-0.853-0.112-1.254-0.201-2.458-0.557-3.589-1.047l-0.438-2.506c1.896 1.075 4.086 1.69 6.418 1.69 7.192 0 13.04-5.846 13.04-13.041 0-7.192-5.848-13.04-13.04-13.04-2.281 0-4.427 0.588-6.294 1.621 2.311-1.665 5.148-2.647 8.213-2.647 2.453 0 4.76 0.629 6.769 1.735 3.87 2.735 6.403 7.244 6.403 12.331 0 4.638-2.105 8.796-5.41 11.568-0.95 0.796-1.998 1.478-3.125 2.024-1.261 0.612-2.619 1.052-4.045 1.292-0.281 0.048-0.567 0.087-0.853 0.119-0.545 0.06-1.098 0.091-1.658 0.091"/>
   <path id="Fill-36" sketch:type="MSShapeGroup" fill="#fff" d="m50.431 41.336c-4.935 0-8.952-4.017-8.952-8.953 0-4.934 4.017-8.951 8.952-8.951s8.952 4.017 8.952 8.951c0 4.936-4.017 8.953-8.952 8.953"/>
   <path id="Fill-37" sketch:type="MSShapeGroup" fill="#232535" d="m50.431 24.113c-4.562 0-8.272 3.708-8.272 8.27 0 4.563 3.71 8.273 8.272 8.273s8.271-3.71 8.271-8.273c0-4.562-3.709-8.27-8.271-8.27m0 17.901c-5.316 0-9.631-4.315-9.631-9.631 0-5.313 4.315-9.63 9.631-9.63 5.315 0 9.63 4.317 9.63 9.63 0 5.316-4.315 9.631-9.63 9.631"/>
   <path id="Fill-38" sketch:type="MSShapeGroup" fill="#DBA73A" d="m53.127 36.22l-2.63-1.385-2.63 1.385 0.499-2.93-2.125-2.079 2.938-0.426 1.318-2.663 1.319 2.663 2.938 0.426-2.125 2.079 0.498 2.93"/>
   <path id="Fill-39" sketch:type="MSShapeGroup" fill="#DBA83A" d="m56.398 86.804c0 3.298-2.67 5.968-5.967 5.968-3.298 0-5.967-2.67-5.967-5.968 0-3.296 2.669-5.967 5.967-5.967 3.297 0 5.967 2.671 5.967 5.967"/>
   <path id="Fill-40" sketch:type="MSShapeGroup" fill="#232535" d="m50.431 81.517c-2.917 0-5.287 2.371-5.287 5.287 0 2.918 2.37 5.289 5.287 5.289 2.916 0 5.288-2.371 5.288-5.289 0-2.916-2.372-5.287-5.288-5.287zm0 11.935c-3.67 0-6.648-2.979-6.648-6.648 0-3.67 2.978-6.646 6.648-6.646s6.647 2.976 6.647 6.646c0 3.669-2.977 6.648-6.647 6.648z"/>
   <path id="Fill-41" sketch:type="MSShapeGroup" fill="#fff" d="m43.864 69.96h13.134v6.687h-13.134v-6.687z"/>
   <path id="Fill-42" sketch:type="MSShapeGroup" fill="#232535" d="m44.542 75.968h11.777v-5.328h-11.777v5.328zm12.456 1.359h-13.134c-0.38 0-0.679-0.3-0.679-0.679v-6.688c0-0.379 0.299-0.679 0.679-0.679h13.134c0.379 0 0.679 0.3 0.679 0.679v6.688c0 0.379-0.3 0.679-0.679 0.679z"/>
   <path id="Fill-43" sketch:type="MSShapeGroup" fill="#fff" d="m60.487 39.285c-0.099 0-0.206-0.021-0.305-0.068-0.334-0.173-0.474-0.58-0.306-0.918 0.905-1.813 1.385-3.857 1.385-5.916 0-1.836-0.367-3.621-1.093-5.294-0.146-0.346 0.007-0.752 0.352-0.899 0.374-0.147 0.753 0.02 0.9 0.353 0.799 1.852 1.2 3.809 1.2 5.84 0 2.273-0.527 4.524-1.519 6.528-0.12 0.24-0.361 0.374-0.614 0.374"/>
   <path id="Fill-44" sketch:type="MSShapeGroup" fill="#fff" d="m122.16 32.09v-14.491h-3.52c-1.9-3.091-5.92-5.236-10.62-5.236-4.69 0-8.717 2.145-10.635 5.236h-3.503v14.491h10.448v4.19h-6.398l6.528 46.035h-3.01v6.687h2.88v6.42c0 1.633 1.06 2.971 2.51 3.463v4.635h2.35v-4.641c1.46-0.493 2.53-1.831 2.53-3.457v-6.42h2.86v-6.687h-3l6.53-46.035h-6.39v-4.19h10.44"/>
   <path id="Fill-45" sketch:type="MSShapeGroup" fill="#232535" d="m102.81 87.637h1.52c0.75 0 1.36 0.612 1.36 1.365v6.42c0 0.994 0.63 1.845 1.59 2.173 0.32 0.106 0.57 0.319 0.74 0.591 0.15-0.28 0.42-0.492 0.74-0.599 0.97-0.326 1.59-1.179 1.59-2.165v-6.42c0-0.753 0.61-1.365 1.37-1.365h1.5v-3.957h-1.64c-0.39 0-0.77-0.172-1.03-0.473-0.26-0.299-0.37-0.693-0.32-1.085l6.31-44.477h-4.82c-0.76 0-1.37-0.612-1.37-1.365v-4.19c0-0.751 0.61-1.364 1.37-1.364h9.08v-11.762h-2.16c-0.47 0-0.91-0.246-1.16-0.653-1.71-2.784-5.43-4.582-9.46-4.582s-7.74 1.798-9.476 4.588c-0.245 0.401-0.686 0.647-1.159 0.647h-2.138v11.762h9.083c0.75 0 1.36 0.613 1.36 1.364v4.19c0 0.753-0.61 1.365-1.36 1.365h-4.827l6.307 44.477c0.05 0.392-0.06 0.786-0.32 1.085-0.26 0.301-0.64 0.473-1.03 0.473h-1.65v3.957m6.38 17.253h-2.35c-0.75 0-1.36-0.62-1.36-1.37v-3.763c-1.54-0.891-2.52-2.529-2.52-4.335v-5.054h-1.51c-0.76 0-1.37-0.613-1.37-1.366v-6.687c0-0.752 0.61-1.365 1.37-1.365h1.44l-6.31-44.476c-0.054-0.394 0.059-0.786 0.319-1.087 0.259-0.299 0.64-0.472 1.033-0.472h5.028v-1.458h-9.078c-0.752 0-1.366-0.613-1.366-1.367v-14.491c0-0.754 0.614-1.366 1.366-1.366h2.777c2.37-3.243 6.641-5.234 11.361-5.234s8.99 1.991 11.35 5.234h2.79c0.75 0 1.36 0.612 1.36 1.366v14.491c0 0.754-0.61 1.367-1.36 1.367h-9.08v1.458h5.03c0.39 0 0.77 0.173 1.03 0.472 0.26 0.301 0.38 0.693 0.32 1.087l-6.3 44.476h1.42c0.75 0 1.37 0.613 1.37 1.365v6.687c0 0.753-0.62 1.366-1.37 1.366h-1.5v5.054c0 1.806-0.98 3.444-2.53 4.33v3.768c0 0.75-0.61 1.37-1.36 1.37"/>
   <path id="Fill-46" sketch:type="MSShapeGroup" fill="#fff" d="m119.84 21.574c0 5.089-5.28 9.211-11.82 9.211-6.53 0-11.834-4.122-11.834-9.211 0-5.087 5.304-9.211 11.834-9.211 6.54 0 11.82 4.124 11.82 9.211"/>
   <path id="Fill-47" sketch:type="MSShapeGroup" fill="#232535" d="m108.02 13.043c-6.15 0-11.154 3.83-11.154 8.531 0 4.703 5.004 8.533 11.154 8.533 6.14 0 11.14-3.83 11.14-8.533 0-4.701-5-8.531-11.14-8.531m0 18.422c-6.9 0-12.513-4.436-12.513-9.891s5.613-9.889 12.513-9.889 12.5 4.434 12.5 9.889-5.6 9.891-12.5 9.891"/>
   <path id="Fill-48" sketch:type="MSShapeGroup" fill="#fff" d="m111.72 42.388c0 2.044-1.65 3.696-3.7 3.696-2.04 0-3.69-1.652-3.69-3.696v-18.609c0-2.045 1.65-3.697 3.69-3.697 2.05 0 3.7 1.652 3.7 3.697v18.609"/>
   <path id="Fill-49" sketch:type="MSShapeGroup" fill="#232535" d="m108.02 20.762c-1.66 0-3.02 1.351-3.02 3.017v18.609c0 1.664 1.36 3.017 3.02 3.017s3.02-1.353 3.02-3.017v-18.609c0-1.666-1.36-3.017-3.02-3.017m0 26.001c-2.42 0-4.37-1.964-4.37-4.375v-18.609c0-2.41 1.95-4.375 4.37-4.375 2.41 0 4.38 1.965 4.38 4.375v18.609c0 2.411-1.97 4.375-4.38 4.375"/>
   <path id="Fill-50" sketch:type="MSShapeGroup" fill="#fff" d="m106.84 96.507h2.35v7.013h-2.35v-7.013z"/>
   <path id="Fill-51" sketch:type="MSShapeGroup" fill="#232535" d="m109.19 95.144h-2.35c-0.75 0-1.36 0.612-1.36 1.363v7.013c0 0.75 0.61 1.37 1.36 1.37h2.35c0.75 0 1.36-0.62 1.36-1.37v-7.013c0-0.751-0.61-1.363-1.36-1.363zm-2.35 1.363h2.35v7.013h-2.35v-7.013z"/>
   <path id="Fill-52" sketch:type="MSShapeGroup" fill="#fff" d="m108.16 36.28h-10.228l7.378 52.076h5.41l7.39-52.076h-9.95"/>
   <path id="Fill-53" sketch:type="MSShapeGroup" fill="#232535" d="m105.9 87.676h4.23l7.2-50.716h-18.612l7.182 50.716m4.82 1.36h-5.41c-0.34 0-0.63-0.247-0.67-0.586l-7.381-52.077c-0.034-0.194 0.027-0.393 0.16-0.538 0.126-0.154 0.311-0.235 0.513-0.235h20.178c0.2 0 0.39 0.081 0.51 0.235 0.14 0.145 0.2 0.344 0.16 0.538l-7.39 52.077c-0.05 0.339-0.33 0.586-0.67 0.586"/>
   <path id="Fill-54" sketch:type="MSShapeGroup" fill="#fff" d="m111.72 95.422c0 2.044-1.65 3.697-3.7 3.697-2.04 0-3.69-1.653-3.69-3.697v-8.871c0-2.044 1.65-3.696 3.69-3.696 2.05 0 3.7 1.652 3.7 3.696v8.871"/>
   <path id="Fill-55" sketch:type="MSShapeGroup" fill="#232535" d="m108.02 83.535c-1.66 0-3.02 1.351-3.02 3.016v8.871c0 1.666 1.36 3.017 3.02 3.017s3.02-1.351 3.02-3.017v-8.871c0-1.665-1.36-3.016-3.02-3.016m0 16.263c-2.42 0-4.37-1.964-4.37-4.376v-8.871c0-2.41 1.95-4.376 4.37-4.376 2.41 0 4.38 1.966 4.38 4.376v8.871c0 2.412-1.97 4.376-4.38 4.376"/>
   <path id="Fill-56" sketch:type="MSShapeGroup" fill="#fff" d="m101.45 82.315h13.13v6.687h-13.13v-6.687z"/>
   <path id="Fill-57" sketch:type="MSShapeGroup" fill="#232535" d="m102.13 88.323h11.77v-5.328h-11.77v5.328zm12.45 1.358h-13.13c-0.38 0-0.68-0.299-0.68-0.679v-6.687c0-0.38 0.3-0.679 0.68-0.679h13.13c0.38 0 0.68 0.299 0.68 0.679v6.687c0 0.38-0.3 0.679-0.68 0.679z"/>
   <path id="Fill-58" sketch:type="MSShapeGroup" fill="#fff" d="m93.882 17.599h28.278v14.492h-28.278v-14.492z"/>
   <path id="Fill-59" sketch:type="MSShapeGroup" fill="#232535" d="m94.561 31.412h26.919v-13.134h-26.919v13.134zm27.599 1.358h-28.278c-0.38 0-0.68-0.3-0.68-0.68v-14.491c0-0.38 0.3-0.681 0.68-0.681h28.278c0.38 0 0.68 0.301 0.68 0.681v14.491c0 0.38-0.3 0.68-0.68 0.68z"/>
   <path id="Fill-60" sketch:type="MSShapeGroup" fill="#fff" d="m97.292 20.19h21.458v9.516h-21.458v-9.516z"/>
   <path id="Fill-61" sketch:type="MSShapeGroup" fill="#232535" d="m97.971 29.027h20.099v-8.159h-20.099v8.159zm20.779 1.36h-21.458c-0.38 0-0.679-0.301-0.679-0.681v-9.516c0-0.38 0.299-0.68 0.679-0.68h21.458c0.38 0 0.68 0.3 0.68 0.68v9.516c0 0.38-0.3 0.681-0.68 0.681z"/>
   <path id="Fill-62" sketch:type="MSShapeGroup" fill="#22222D" d="m119.82 16.918h-0.77c-0.97-1.431-2.37-2.653-4.07-3.556 2.02 0.802 3.7 2.04 4.84 3.556"/>
   <path id="Fill-63" sketch:type="MSShapeGroup" fill="#F0D4B7" d="m117.35 16.918h-17.945c0.875-1.153 2.055-2.145 3.455-2.907 1.54-0.618 3.3-0.968 5.16-0.968 3.9 0 7.34 1.544 9.33 3.875"/>
   <path id="Fill-64" sketch:type="MSShapeGroup" fill="#22222D" d="m119.05 16.918h-1.7c-1.99-2.331-5.43-3.875-9.33-3.875-1.86 0-3.62 0.35-5.16 0.968 1.92-1.039 4.24-1.648 6.75-1.648 1.94 0 3.76 0.36 5.37 0.999 1.7 0.903 3.1 2.125 4.07 3.556"/>
   <path id="Fill-65" sketch:type="MSShapeGroup" fill="#22222D" d="m120.29 17.599h-21.35c0.143-0.233 0.299-0.46 0.465-0.681h20.415c0.17 0.221 0.32 0.448 0.47 0.681"/>
   <path id="Fill-66" sketch:type="MSShapeGroup" fill="#B89267" d="m113.08 33.457h0.24v1.458h-0.24v-1.458z"/>
   <path id="Fill-67" sketch:type="MSShapeGroup" fill="#1E1D20" d="m113.32 35.6h-0.92v-2.83h0.92v0.687h-0.24v1.458h0.24v0.685"/>
   <path id="Fill-68" sketch:type="MSShapeGroup" fill="#B89267" d="m105.92 32.77h5.12v2.831h-5.12v-2.831z"/>
   <path id="Fill-69" sketch:type="MSShapeGroup" fill="#1E1D20" d="m111.04 32.77h1.36v2.831h-1.36v-2.831z"/>
   <path id="Fill-70" sketch:type="MSShapeGroup" fill="#1E1D20" d="m105.92 35.6h7.4v0.679h-7.4v-0.679z"/>
   <path id="Fill-71" sketch:type="MSShapeGroup" fill="#1E1D20" d="m105.92 32.09h7.4v0.679h-7.4v-0.679z"/>
   <path id="Fill-72" sketch:type="MSShapeGroup" fill="#B99D88" d="m110.78 103.52h-0.23v-3.768c0.08-0.046 0.16-0.093 0.23-0.142v3.91"/>
   <path id="Fill-73" sketch:type="MSShapeGroup" fill="#201F27" d="m110.55 99.752v-0.752c0.08-0.021 0.16-0.044 0.23-0.069v0.679c-0.07 0.049-0.15 0.096-0.23 0.142"/>
   <path id="Fill-74" sketch:type="MSShapeGroup" fill="#CFB18E" d="m109.19 103.52h-0.75v-3.742c0.26-0.025 0.51-0.072 0.75-0.139v3.881"/>
   <path id="Fill-75" sketch:type="MSShapeGroup" fill="#201F27" d="m110.55 103.52h-2.11 0.75v-3.881c0.48-0.134 0.93-0.351 1.34-0.632 0.01-0.003 0.01-0.005 0.02-0.007v4.52"/>
   <path id="Fill-76" sketch:type="MSShapeGroup" fill="#201F27" d="m108.44 99.778v-0.85c0.37 0.124 0.76 0.191 1.17 0.191 0.32 0 0.63-0.039 0.92-0.112-0.41 0.281-0.86 0.498-1.34 0.632-0.24 0.067-0.49 0.114-0.75 0.139"/>
   <path id="Fill-77" sketch:type="MSShapeGroup" fill="#CFB18E" d="m114.22 73.424l5.24-36.95c0.01-0.065 0.02-0.13 0.02-0.194h0.23l-5.25 37.005c-0.08 0.047-0.16 0.092-0.24 0.139"/>
   <path id="Fill-78" sketch:type="MSShapeGroup" fill="#B99D88" d="m114.39 73.737h-0.21l0.04-0.313c0.08-0.047 0.16-0.092 0.24-0.139l-0.07 0.452"/>
   <path id="Fill-79" sketch:type="MSShapeGroup" fill="#AE8461" d="m113.37 80.95h-0.21l0.63-4.482h0.21l-0.63 4.482"/>
   <path id="Fill-80" sketch:type="MSShapeGroup" fill="#201F27" d="m114 76.468h-0.21l0.39-2.731h0.21l-0.39 2.731"/>
   <path id="Fill-81" sketch:type="MSShapeGroup" fill="#201F27" d="m113.27 81.636h-0.91l6.42-45.263c0.01-0.031 0.01-0.062 0.01-0.093h0.69c0 0.064-0.01 0.129-0.02 0.194l-5.24 36.95-0.04 0.313-1.02 7.213h0.21l-0.1 0.686"/>
   <path id="Fill-82" sketch:type="MSShapeGroup" fill="#CFB18E" d="m110.98 81.636h-5.02l-6.334-44.676h17.704l-6.35 44.676"/>
   <path id="Fill-83" sketch:type="MSShapeGroup" fill="#201F27" d="m112.36 81.636h-1.38l6.35-44.676h-17.704l-0.096-0.68h19.26c0 0.031 0 0.062-0.01 0.093l-6.42 45.263"/>
   <path id="Fill-84" sketch:type="MSShapeGroup" fill="#201F27" d="m113.18 82.315h-7.13l-0.09-0.679h7.31l-0.09 0.679"/>
   <path id="Fill-85" sketch:type="MSShapeGroup" fill="#8F6C4D" d="m112.51 97.73c0.16-0.301 0.29-0.619 0.38-0.949h0.17c-0.14 0.345-0.32 0.664-0.55 0.949"/>
   <path id="Fill-86" sketch:type="MSShapeGroup" fill="#895F40" d="m113.08 90.368h0.24v3.681h-0.24v-3.681z"/>
   <path id="Fill-87" sketch:type="MSShapeGroup" fill="#1A181A" d="m113.06 96.781h-0.17c0.13-0.435 0.19-0.891 0.19-1.359v-1.372h0.24v1.372c0 0.48-0.09 0.938-0.26 1.359"/>
   <path id="Fill-88" sketch:type="MSShapeGroup" fill="#1A181A" d="m110.55 99v-0.012c1.12-0.795 1.85-2.097 1.85-3.566v-5.741h0.92v0.687h-0.24v5.054c0 0.468-0.06 0.924-0.19 1.359-0.09 0.33-0.22 0.648-0.38 0.949-0.44 0.551-1.04 0.974-1.73 1.201-0.07 0.025-0.15 0.048-0.23 0.069"/>
   <path id="Fill-89" sketch:type="MSShapeGroup" fill="#1A181A" d="m110.53 99.007c0.01-0.007 0.01-0.013 0.02-0.019v0.012c-0.01 0.002-0.01 0.004-0.02 0.007"/>
   <path id="Fill-90" sketch:type="MSShapeGroup" fill="#9D764E" d="m108.02 98.439c-0.22 0-0.43-0.022-0.63-0.064-0.89-0.675-1.47-1.746-1.47-2.953v-5.741h5.12v5.741c0 1.666-1.36 3.017-3.02 3.017"/>
   <path id="Fill-91" sketch:type="MSShapeGroup" fill="#1A181A" d="m109.61 99.119c-0.41 0-0.8-0.067-1.17-0.191-0.38-0.128-0.73-0.316-1.05-0.553 0.2 0.042 0.41 0.064 0.63 0.064 1.66 0 3.02-1.351 3.02-3.017v-5.741h1.36v5.741c0 1.469-0.73 2.771-1.85 3.566-0.01 0.006-0.01 0.012-0.02 0.019-0.29 0.073-0.6 0.112-0.92 0.112"/>
   <path id="Fill-92" sketch:type="MSShapeGroup" fill="#1A181A" d="m105.92 89.002h7.4v0.679h-7.4v-0.679z"/>
   <path id="Fill-93" sketch:type="MSShapeGroup" fill="#B89267" d="m123.52 17.599h0.24v14.492h-0.24v-14.492z"/>
   <path id="Fill-94" sketch:type="MSShapeGroup" fill="#1E1D20" d="m122.84 17.599h0.68v14.492h-0.68v-14.492z"/>
   <path id="Fill-95" sketch:type="MSShapeGroup" fill="#B89267" d="m95.48 18.278h26v13.134h-26v-13.134zm1.812 1.232c-0.38 0-0.679 0.3-0.679 0.68v9.516c0 0.38 0.299 0.681 0.679 0.681h21.458c0.38 0 0.68-0.301 0.68-0.681h0.92v-9.516h-0.92c0-0.38-0.3-0.68-0.68-0.68h-21.458z"/>
   <path id="Fill-96" sketch:type="MSShapeGroup" fill="#1E1D20" d="m122.84 32.09h-27.36v-0.678h26v-13.134h-26v-0.679h27.36v14.491"/>
   <path id="Fill-97" sketch:type="MSShapeGroup" fill="#B89267" d="m97.971 20.868h0.919v8.159h-0.919v-8.159z"/>
   <path id="Fill-98" sketch:type="MSShapeGroup" fill="#1E1D20" d="m118.75 30.387h-21.458c-0.38 0-0.679-0.301-0.679-0.681v-9.516c0-0.38 0.299-0.68 0.679-0.68h21.458c0.38 0 0.68 0.3 0.68 0.68h-20.54v0.678h-0.919v8.159h0.919v0.679h20.54c0 0.38-0.3 0.681-0.68 0.681"/>
   <path id="Fill-99" sketch:type="MSShapeGroup" fill="#CFB18E" d="m119.43 20.19h0.92v9.516h-0.92v-9.516z"/>
   <path id="Fill-100" sketch:type="MSShapeGroup" fill="#CFB18E" d="m98.89 20.868h19.18v8.159h-19.18v-8.159z"/>
   <path id="Fill-101" sketch:type="MSShapeGroup" fill="#201F27" d="m119.43 29.706h-20.54v-0.679h19.18v-8.159h-19.18v-0.678h20.54v9.516"/>
   <path id="Fill-102" sketch:type="MSShapeGroup" fill="#AE8461" d="m115.95 82.315h0.44v6.687h-0.44v-6.687z"/>
   <path id="Fill-103" sketch:type="MSShapeGroup" fill="#201F27" d="m115.26 82.315h0.69v6.687h-0.69v-6.687z"/>
   <path id="Fill-104" sketch:type="MSShapeGroup" fill="#CFB18E" d="m103.26 82.995h10.64v5.328h-10.64v-5.328z"/>
   <path id="Fill-105" sketch:type="MSShapeGroup" fill="#201F27" d="m115.26 89.002h-12v-0.679h10.64v-5.328h-10.64v-0.68h12v6.687"/>
   <path id="Fill-106" sketch:type="MSShapeGroup" fill="#fff" d="m110 78.733l-0.1-0.007c-0.37-0.054-0.63-0.4-0.57-0.774l5.75-39.001c0.06-0.38 0.39-0.68 0.77-0.573 0.38 0.053 0.64 0.4 0.58 0.773l-5.76 39.002c-0.05 0.339-0.34 0.58-0.67 0.58"/>
   <path id="Fill-107" sketch:type="MSShapeGroup" fill="#fff" d="m114.48 84.233h-5.55"/>
   <path id="Fill-108" sketch:type="MSShapeGroup" fill="#232535" d="m114.48 84.747h-5.55c-0.28 0-0.51-0.235-0.51-0.514s0.23-0.513 0.51-0.513h5.55c0.27 0 0.51 0.234 0.51 0.513s-0.24 0.514-0.51 0.514"/>
   <path id="Fill-109" sketch:type="MSShapeGroup" fill="#fff" d="m114.58 86.472h-3.41"/>
   <path id="Fill-110" sketch:type="MSShapeGroup" fill="#232535" d="m114.58 86.985h-3.41c-0.28 0-0.51-0.235-0.51-0.513 0-0.28 0.23-0.513 0.51-0.513h3.41c0.28 0 0.51 0.233 0.51 0.513 0 0.278-0.23 0.513-0.51 0.513"/>
   <path id="Fill-111" sketch:type="MSShapeGroup" fill="#232535" d="m103.73 24.399c-0.08 0.6-0.11 1.198-0.24 1.831-0.06 0.506-0.42 1.598-1.37 1.426-0.89-0.055-1.14-1.173-0.98-1.725 0.1-0.654 0.31-1.26 0.61-1.825 0.3-0.554 0.66-1.099 1.16-1.539 0.39-0.499 1.53-0.733 1.97 0.019 0.5 0.614 0.44 1.279 0.45 1.926-0.07 0.619-0.07 1.371-0.81 1.871-0.11 0.074-0.26 0.046-0.33-0.06l-0.04-0.079c-0.22-0.66 0.03-1.179 0.25-1.658 0.26-0.467 0.59-0.913 1.12-1.18 0.49-0.347 1.44-0.041 1.57 0.599 0.19 0.514 0.24 1.019 0.49 1.239v0.007l-0.38 0.053c0.36-0.559 0.95-1.484 1.93-1.439 0.93 0.054 1.51 0.62 2.23 0.8 1.42 0.551 2.78-0.326 4.16-0.966 0.1-0.047 0.23 0 0.27 0.1 0.05 0.1 0 0.226-0.1 0.274-1.27 0.619-2.86 1.651-4.49 1.044-0.76-0.205-1.43-0.739-2.05-0.745-0.7-0.027-1.08 0.591-1.51 1.246-0.06 0.119-0.21 0.172-0.33 0.113l-0.07-0.053v-0.014c-0.5-0.486-0.48-1.066-0.66-1.458-0.1-0.419-0.44-0.454-0.82-0.307-0.69 0.353-1.29 1.452-1.1 2.131l-0.37-0.139c0.6-0.526 0.7-2.192 0.16-2.972-0.62-0.899-1.77 0.54-2.22 1.439-0.48 0.893-0.99 2.618-0.04 2.758 0.88 0.106 0.83-1.746 0.99-2.798 0.03-0.145 0.17-0.253 0.32-0.226 0.15 0.021 0.24 0.16 0.23 0.307"/>
   <path id="Fill-112" sketch:type="MSShapeGroup" fill="#fff" d="m174.07 84.006c0-2.795-1.42-5.167-3.48-6.745 0.13-3.498 0.52-7.98 1.47-14.021 3.28-20.919 0.6-44.057-4.24-52.968h1.98v-3.189h-2.44v-5.635h-3.85v5.635h-2.43v3.189h1.96c-4.83 8.911-7.51 32.049-4.25 52.968 0.95 6.049 1.35 10.53 1.49 14.027-2.07 1.577-3.48 3.95-3.48 6.739 0 3.61 2.22 6.694 5.38 7.972v3.983c0 1.433 0.94 2.618 2.22 3.052v4.087h2.07v-4.094c1.29-0.433 2.22-1.619 2.22-3.045v-3.975c3.15-1.286 5.38-4.37 5.38-7.98"/>
   <path id="Fill-113" sketch:type="MSShapeGroup" fill="#232535" d="m162.44 8.907h0.6c0.47 0 0.92 0.253 1.17 0.666 0.24 0.413 0.25 0.926 0.02 1.346-4.58 8.471-7.32 31.429-4.09 52.108 0.84 5.349 1.33 9.985 1.5 14.186 0.02 0.44-0.18 0.865-0.54 1.14-1.89 1.445-2.93 3.455-2.93 5.653 0 2.958 1.77 5.595 4.52 6.709 0.51 0.212 0.85 0.711 0.85 1.263v3.983c0 0.787 0.52 1.499 1.3 1.758 0.23 0.081 0.44 0.22 0.59 0.401 0.16-0.181 0.37-0.326 0.61-0.407 0.76-0.26 1.28-0.965 1.28-1.752v-3.975c0-0.553 0.34-1.052 0.86-1.265 2.75-1.12 4.52-3.757 4.52-6.715 0-2.198-1.04-4.208-2.94-5.66-0.35-0.273-0.55-0.693-0.54-1.14 0.16-4.154 0.65-8.797 1.49-14.179 3.24-20.687 0.5-43.643-4.09-52.103-0.22-0.425-0.22-0.938 0.03-1.351s0.69-0.666 1.17-0.666h0.62v-0.46h-1.08c-0.75 0-1.36-0.613-1.36-1.364v-4.27h-1.13v4.27c0 0.751-0.61 1.364-1.36 1.364h-1.07v0.46m4.03 95.553h-2.07c-0.75 0-1.36-0.61-1.36-1.36v-3.229c-1.36-0.819-2.23-2.29-2.23-3.91v-3.109c-3.29-1.705-5.37-5.083-5.37-8.846 0-2.789 1.25-5.44 3.44-7.358-0.18-3.916-0.65-8.246-1.43-13.194-3.19-20.427-0.77-41.866 3.43-51.83-0.66-0.093-1.17-0.666-1.17-1.352v-3.189c0-0.754 0.61-1.366 1.37-1.366h1.06v-4.269c0-0.754 0.62-1.366 1.37-1.366h3.85c0.76 0 1.37 0.612 1.37 1.366v4.269h1.07c0.75 0 1.37 0.612 1.37 1.366v3.189c0 0.693-0.52 1.267-1.19 1.352 4.21 9.964 6.63 31.396 3.42 51.83-0.78 4.981-1.24 9.304-1.42 13.18 2.2 1.932 3.46 4.583 3.46 7.372 0 3.758-2.09 7.141-5.39 8.852v3.103c0 1.62-0.85 3.085-2.21 3.904v3.235c0 0.75-0.62 1.36-1.37 1.36"/>
   <path id="Fill-114" sketch:type="MSShapeGroup" fill="#F4F4F2" d="m163.51 1.448h3.85v8.725h-3.85v-8.725z"/>
   <path id="Fill-115" sketch:type="MSShapeGroup" fill="#232535" d="m164.19 9.493h2.49v-7.366h-2.49v7.366zm3.17 1.358h-3.85c-0.38 0-0.68-0.299-0.68-0.678v-8.725c0-0.38 0.3-0.68 0.68-0.68h3.85c0.38 0 0.68 0.3 0.68 0.68v8.725c0 0.379-0.3 0.678-0.68 0.678z"/>
   <path id="Fill-116" sketch:type="MSShapeGroup" fill="#F4F4F2" d="m167.55 9.679h-4.24c-5 8.506-7.84 32.229-4.52 53.561 3.02 19.208 0.76 24.031 0.76 24.031h11.76s-2.26-4.823 0.75-24.031c3.34-21.332 0.5-45.055-4.51-53.561"/>
   <path id="Fill-117" sketch:type="MSShapeGroup" fill="#232535" d="m160.47 86.591h9.92c-0.53-2.205-1.34-8.565 1-23.457 3.33-21.265 0.51-44.244-4.23-52.774h-3.46c-4.74 8.53-7.55 31.509-4.24 52.774 2.34 14.892 1.54 21.252 1.01 23.457m10.84 1.359h-11.76c-0.23 0-0.45-0.114-0.57-0.313-0.13-0.2-0.15-0.447-0.05-0.652 0.02-0.048 2.11-5.05-0.81-23.639-3.4-21.845-0.37-45.561 4.6-54.013 0.12-0.206 0.35-0.333 0.59-0.333h4.24c0.24 0 0.47 0.127 0.59 0.333 4.98 8.452 8.02 32.168 4.59 54.013-2.91 18.589-0.82 23.591-0.8 23.645 0.09 0.206 0.07 0.452-0.05 0.646-0.13 0.193-0.34 0.313-0.57 0.313"/>
   <path id="Fill-118" sketch:type="MSShapeGroup" fill="#F4F4F2" d="m164.4 96.921h2.07v6.179h-2.07v-6.179z"/>
   <path id="Fill-119" sketch:type="MSShapeGroup" fill="#232535" d="m166.47 95.216h-2.07c-0.94 0-1.7 0.767-1.7 1.705v6.179c0 0.93 0.76 1.7 1.7 1.7h2.07c0.94 0 1.71-0.77 1.71-1.7v-6.179c0-0.938-0.77-1.705-1.71-1.705zm-2.07 1.705h2.07v6.179h-2.07v-6.179z"/>
   <path id="Fill-120" sketch:type="MSShapeGroup" fill="#F4F4F2" d="m168.69 95.961c0 1.799-1.45 3.257-3.26 3.257-1.8 0-3.25-1.458-3.25-3.257v-16.389c0-1.799 1.45-3.257 3.25-3.257 1.81 0 3.26 1.458 3.26 3.257v16.389"/>
   <path id="Fill-121" sketch:type="MSShapeGroup" fill="#232535" d="m165.43 76.993c-1.42 0-2.57 1.16-2.57 2.579v16.389c0 1.419 1.15 2.578 2.57 2.578s2.58-1.159 2.58-2.578v-16.389c0-1.419-1.16-2.579-2.58-2.579m0 22.906c-2.17 0-3.93-1.766-3.93-3.938v-16.389c0-2.172 1.76-3.937 3.93-3.937s3.94 1.765 3.94 3.937v16.389c0 2.172-1.77 3.938-3.94 3.938"/>
   <path id="Fill-122" sketch:type="MSShapeGroup" fill="#232535" d="m161.9 77.221c-0.19 0-0.34-0.147-0.34-0.334l-0.14-5.075c-0.01-0.186 0.14-0.34 0.33-0.347h0.01c0.18 0 0.33 0.148 0.34 0.335l0.13 5.074c0.01 0.186-0.13 0.339-0.33 0.347"/>
   <path id="Fill-123" sketch:type="MSShapeGroup" fill="#232535" d="m163.45 78.205c-0.19 0-0.34-0.145-0.34-0.332l-0.15-5.075c0-0.186 0.14-0.34 0.33-0.347h0.01c0.19 0 0.33 0.146 0.34 0.333l0.15 5.076c0 0.185-0.14 0.339-0.34 0.345"/>
   <path id="Fill-124" sketch:type="MSShapeGroup" fill="#232535" d="m165.03 77.041c-0.19 0-0.33-0.147-0.34-0.334l-0.14-5.068c-0.01-0.185 0.14-0.339 0.33-0.346h0.01c0.18 0 0.33 0.146 0.34 0.333l0.14 5.068c0.01 0.187-0.14 0.34-0.33 0.347h-0.01"/>
   <path id="Fill-125" sketch:type="MSShapeGroup" fill="#232535" d="m166.51 77.574c-0.19 0-0.33-0.148-0.34-0.334l-0.15-5.075c0-0.187 0.14-0.34 0.34-0.346 0.19 0 0.34 0.147 0.34 0.334l0.15 5.075c0.01 0.185-0.14 0.338-0.33 0.346h-0.01"/>
   <path id="Fill-126" sketch:type="MSShapeGroup" fill="#232535" d="m167.78 79.052c-0.19 0-0.34-0.147-0.34-0.333l-0.15-5.075c-0.01-0.187 0.14-0.339 0.33-0.346h0.01c0.19 0 0.33 0.146 0.34 0.332l0.15 5.075c0 0.187-0.14 0.341-0.34 0.347"/>
   <path id="Fill-127" sketch:type="MSShapeGroup" fill="#232535" d="m169.15 77.673c-0.19 0-0.33-0.146-0.34-0.333l-0.14-5.069c-0.01-0.187 0.14-0.338 0.33-0.346h0.01c0.19 0 0.33 0.147 0.34 0.334l0.14 5.068c0 0.187-0.14 0.339-0.33 0.346h-0.01"/>
   <path id="Fill-128" sketch:type="MSShapeGroup" fill="#F4F4F2" d="m174.07 84.006c0 4.77-3.87 8.632-8.64 8.632s-8.63-3.862-8.63-8.632c0-4.767 3.86-8.63 8.63-8.63s8.64 3.863 8.64 8.63"/>
   <path id="Fill-129" sketch:type="MSShapeGroup" fill="#232535" d="m165.43 76.055c-4.38 0-7.95 3.569-7.95 7.951 0 4.383 3.57 7.954 7.95 7.954 4.39 0 7.96-3.571 7.96-7.954 0-4.382-3.57-7.951-7.96-7.951m0 17.263c-5.13 0-9.31-4.176-9.31-9.312 0-5.134 4.18-9.31 9.31-9.31 5.14 0 9.32 4.176 9.32 9.31 0 5.136-4.18 9.312-9.32 9.312"/>
   <path id="Fill-130" sketch:type="MSShapeGroup" fill="#fff" d="m171.43 88.089l-0.21-0.046c-0.26-0.12-0.37-0.42-0.25-0.679 0.48-1.052 0.72-2.185 0.72-3.358 0-1.11-0.21-2.183-0.64-3.182-0.11-0.261 0.01-0.559 0.27-0.674 0.27-0.099 0.56 0.014 0.67 0.274 0.48 1.119 0.73 2.331 0.73 3.582 0 1.32-0.28 2.599-0.82 3.784-0.09 0.187-0.27 0.299-0.47 0.299"/>
   <path id="Fill-131" sketch:type="MSShapeGroup" fill="#232535" d="m165.43 90.614c-2.2 0-4.25-1.085-5.47-2.911-0.11-0.159-0.07-0.372 0.08-0.473 0.16-0.106 0.38-0.073 0.48 0.087 1.1 1.639 2.94 2.617 4.91 2.617 2.07 0 3.95-1.052 5.04-2.803 0.1-0.161 0.32-0.22 0.47-0.107 0.16 0.093 0.21 0.307 0.11 0.467-1.22 1.957-3.31 3.123-5.62 3.123"/>
   <path id="Fill-132" sketch:type="MSShapeGroup" fill="#232535" d="m170.43 80.563c-0.1 0-0.2-0.045-0.27-0.133-1.14-1.492-2.86-2.352-4.73-2.352-1.78 0-3.46 0.807-4.6 2.198-0.11 0.148-0.34 0.168-0.48 0.055-0.15-0.121-0.17-0.333-0.05-0.48 1.27-1.558 3.14-2.451 5.13-2.451 2.08 0 4 0.953 5.28 2.617 0.11 0.147 0.08 0.36-0.07 0.479l-0.21 0.067"/>
   <path id="Fill-133" sketch:type="MSShapeGroup" fill="#F4F4F2" d="m161.08 7.083h8.72v3.19h-8.72v-3.19z"/>
   <path id="Fill-134" sketch:type="MSShapeGroup" fill="#232535" d="m161.76 9.592h7.36v-1.83h-7.36v1.83zm8.04 1.36h-8.72c-0.38 0-0.68-0.299-0.68-0.68v-3.189c0-0.38 0.3-0.681 0.68-0.681h8.72c0.38 0 0.68 0.301 0.68 0.681v3.189c0 0.381-0.3 0.68-0.68 0.68z"/>
   <path id="Fill-135" sketch:type="MSShapeGroup" fill="#EDEC87" d="m168.73 1.448h0.25v4.269h-0.25v-4.269z"/>
   <path id="Fill-136" sketch:type="MSShapeGroup" fill="#222526" d="m168.98 6.402h-0.94v-4.954h0.69v4.269h0.25v0.685"/>
   <path id="Fill-137" sketch:type="MSShapeGroup" fill="#E1E183" d="m165.13 2.126h1.55v4.276h-1.55v-4.276z"/>
   <path id="Fill-138" sketch:type="MSShapeGroup" fill="#222526" d="m168.04 6.402h-1.36v-4.276h-1.55v-0.678h2.91v4.954"/>
   <path id="Fill-139" sketch:type="MSShapeGroup" fill="#222526" d="m165.13 6.402h3.85v0.68h-3.85v-0.68z"/>
   <path id="Fill-140" sketch:type="MSShapeGroup" fill="#EBECC2" d="m173.04 73.737h-0.88c0.24-3.111 0.65-6.508 1.24-10.283 3.21-20.434 0.79-41.866-3.42-51.83 0.26-0.034 0.5-0.143 0.7-0.306 4.47 9.624 6.79 31.833 3.65 51.922-0.65 4.134-1.05 7.601-1.29 10.497"/>
   <path id="Fill-141" sketch:type="MSShapeGroup" fill="#C0A878" d="m172.82 77.452c-0.26-0.284-0.54-0.558-0.84-0.818 0-0.055 0-0.111 0.01-0.166h0.87c-0.02 0.337-0.03 0.666-0.04 0.984"/>
   <path id="Fill-142" sketch:type="MSShapeGroup" fill="#22242E" d="m172.86 76.468h-0.87c0.04-0.886 0.1-1.796 0.17-2.731h0.88c-0.07 0.974-0.13 1.882-0.18 2.731"/>
   <path id="Fill-143" sketch:type="MSShapeGroup" fill="#22242E" d="m172.81 77.578c-0.47-0.419-0.98-0.788-1.53-1.098 0.17-3.342 0.59-7.646 1.45-13.134 3.23-20.58 0.72-42.82-3.75-52.394h0.82c0.23 0 0.44-0.113 0.56-0.288 0.11 0.211 0.21 0.429 0.32 0.654-0.2 0.163-0.44 0.272-0.7 0.306 4.21 9.964 6.63 31.396 3.42 51.83-0.59 3.775-1 7.172-1.24 10.283-0.07 0.935-0.13 1.845-0.17 2.731-0.01 0.055-0.01 0.111-0.01 0.166 0.3 0.26 0.58 0.534 0.84 0.818 0 0.042 0 0.085-0.01 0.126"/>
   <path id="Fill-144" sketch:type="MSShapeGroup" fill="#E0E1BB" d="m169.94 75.859c-0.16-0.091-0.33-0.177-0.5-0.258l-0.09-3.342c-0.01-0.187-0.15-0.334-0.34-0.334h-0.01c-0.19 0.008-0.34 0.159-0.33 0.346l0.08 3.035c-0.24-0.093-0.49-0.175-0.74-0.248l-0.04-1.428c-0.01-0.186-0.15-0.332-0.34-0.332h-0.01c-0.19 0.007-0.34 0.159-0.33 0.346l0.04 1.245c-0.18-0.037-0.37-0.069-0.55-0.096l-0.08-2.64c0-0.187-0.15-0.334-0.34-0.334-0.2 0.006-0.34 0.159-0.34 0.346l0.08 2.554c-0.22-0.015-0.44-0.023-0.67-0.023-0.04 0-0.08 0-0.11 0.001l-0.09-3.071c-0.01-0.187-0.16-0.333-0.34-0.333h-0.01c-0.19 0.007-0.34 0.161-0.33 0.346l0.09 3.091c-0.32 0.027-0.63 0.069-0.94 0.127l-0.06-2.073c-0.01-0.187-0.15-0.333-0.34-0.333h-0.01c-0.19 0.007-0.33 0.161-0.33 0.347l0.06 2.213c-0.18 0.051-0.37 0.108-0.56 0.17-0.21-3.167-0.63-7.097-1.4-11.941-3.17-20.348-0.73-42.872 3.84-52.288h2.57c4.55 8.962 7.17 31.391 3.92 52.182-0.82 5.231-1.26 9.41-1.45 12.725"/>
   <path id="Fill-145" sketch:type="MSShapeGroup" fill="#22242E" d="m171.28 76.48c-0.41-0.229-0.83-0.425-1.28-0.586-0.02-0.012-0.04-0.024-0.06-0.035 0.19-3.315 0.63-7.494 1.45-12.725 3.25-20.791 0.63-43.22-3.92-52.182h1.51c4.47 9.574 6.98 31.814 3.75 52.394-0.86 5.488-1.28 9.792-1.45 13.134"/>
   <path id="Fill-146" sketch:type="MSShapeGroup" fill="#22242E" d="m163.02 75.011l-0.06-2.213c0-0.186 0.14-0.34 0.33-0.347h0.01c0.19 0 0.33 0.146 0.34 0.333l0.06 2.073c-0.23 0.043-0.45 0.095-0.68 0.154"/>
   <path id="Fill-147" sketch:type="MSShapeGroup" fill="#22242E" d="m164.64 74.73l-0.09-3.091c-0.01-0.185 0.14-0.339 0.33-0.346h0.01c0.18 0 0.33 0.146 0.34 0.333l0.09 3.071c-0.23 0.002-0.46 0.014-0.68 0.033"/>
   <path id="Fill-148" sketch:type="MSShapeGroup" fill="#22242E" d="m166.78 74.793c-0.22-0.033-0.45-0.057-0.68-0.074l-0.08-2.554c0-0.187 0.14-0.34 0.34-0.346 0.19 0 0.34 0.147 0.34 0.334l0.08 2.64"/>
   <path id="Fill-149" sketch:type="MSShapeGroup" fill="#22242E" d="m168.01 75.058c-0.22-0.065-0.45-0.121-0.68-0.169l-0.04-1.245c-0.01-0.187 0.14-0.339 0.33-0.346h0.01c0.19 0 0.33 0.146 0.34 0.332l0.04 1.428"/>
   <path id="Fill-150" sketch:type="MSShapeGroup" fill="#22242E" d="m169.44 75.601c-0.22-0.107-0.45-0.206-0.69-0.295l-0.08-3.035c-0.01-0.187 0.14-0.338 0.33-0.346h0.01c0.19 0 0.33 0.147 0.34 0.334l0.09 3.342"/>
   <path id="Fill-151" sketch:type="MSShapeGroup" fill="#E0E1BB" d="m162.55 76.642c0-0.015 0-0.03-0.01-0.044 0.07-0.027 0.14-0.053 0.21-0.077-0.07 0.039-0.14 0.079-0.2 0.121"/>
   <path id="Fill-152" sketch:type="MSShapeGroup" fill="#22242E" d="m162.54 76.598c-0.02-0.455-0.04-0.926-0.08-1.417 0.19-0.062 0.38-0.119 0.56-0.17 0.23-0.059 0.45-0.111 0.68-0.154 0.31-0.058 0.62-0.1 0.94-0.127 0.22-0.019 0.45-0.031 0.68-0.033 0.03-0.001 0.07-0.001 0.11-0.001 0.23 0 0.45 0.008 0.67 0.023 0.23 0.017 0.46 0.041 0.68 0.074 0.18 0.027 0.37 0.059 0.55 0.096 0.23 0.048 0.46 0.104 0.68 0.169 0.25 0.073 0.5 0.155 0.74 0.248 0.24 0.089 0.47 0.188 0.69 0.295 0.17 0.081 0.34 0.167 0.5 0.258 0.02 0.011 0.04 0.023 0.06 0.035-0.92-0.335-1.91-0.518-2.95-0.518-1.57 0-3.03 0.417-4.3 1.145-0.07 0.024-0.14 0.05-0.21 0.077"/>
   <path id="Fill-153" sketch:type="MSShapeGroup" fill="#22242E" d="m169.8 10.952h-4.9c0.12-0.235 0.23-0.461 0.35-0.68h4.91c0.06 0.128 0.13 0.259 0.2 0.392-0.12 0.175-0.33 0.288-0.56 0.288"/>
   <path id="Fill-154" sketch:type="MSShapeGroup" fill="#E1E183" d="m166.47 103.1h-0.45v-3.246c0.15-0.023 0.3-0.055 0.45-0.096v3.342"/>
   <path id="Fill-155" sketch:type="MSShapeGroup" fill="#222526" d="m168.09 103.1h-2.07 0.45v-3.342c0.47-0.127 0.9-0.338 1.28-0.615 0.11-0.026 0.23-0.057 0.34-0.095v4.052"/>
   <path id="Fill-156" sketch:type="MSShapeGroup" fill="#222526" d="m166.02 99.854v-0.802c0.32 0.108 0.67 0.166 1.02 0.166 0.25 0 0.48-0.026 0.71-0.075-0.38 0.277-0.81 0.488-1.28 0.615-0.15 0.041-0.3 0.073-0.45 0.096"/>
   <path id="Fill-157" sketch:type="MSShapeGroup" fill="#EDEC87" d="m169.53 98.071c0.21-0.402 0.37-0.835 0.45-1.29h0.22c-0.12 0.482-0.35 0.921-0.67 1.29"/>
   <path id="Fill-158" sketch:type="MSShapeGroup" fill="#C0A95D" d="m170.31 94.05h-0.26v-1.192c0.09-0.044 0.17-0.089 0.26-0.136v1.328"/>
   <path id="Fill-159" sketch:type="MSShapeGroup" fill="#222526" d="m170.2 96.781h-0.22c0.05-0.267 0.07-0.541 0.07-0.82v-1.911h0.26v1.911c0 0.283-0.04 0.558-0.11 0.82"/>
   <path id="Fill-160" sketch:type="MSShapeGroup" fill="#222526" d="m168.18 99.018v-0.236c0.73-0.716 1.19-1.716 1.19-2.821v-3.515c0.21-0.1 0.42-0.208 0.63-0.324 0.1-0.037 0.2-0.077 0.31-0.119v0.719c-0.09 0.047-0.17 0.092-0.26 0.136v3.103c0 0.279-0.02 0.553-0.07 0.82-0.08 0.455-0.24 0.888-0.45 1.29-0.36 0.422-0.82 0.752-1.35 0.947"/>
   <path id="Fill-161" sketch:type="MSShapeGroup" fill="#222526" d="m167.75 99.143c0.15-0.11 0.29-0.231 0.43-0.361v0.236c-0.03 0.011-0.06 0.021-0.09 0.03-0.11 0.038-0.23 0.069-0.34 0.095"/>
   <path id="Fill-162" sketch:type="MSShapeGroup" fill="#E1E183" d="m165.43 98.539c-0.14 0-0.28-0.011-0.41-0.033-0.75-0.597-1.23-1.515-1.23-2.545v-2.788c0.54 0.095 1.08 0.145 1.64 0.145 0.9 0 1.76-0.127 2.58-0.362v3.005c0 1.419-1.16 2.578-2.58 2.578"/>
   <path id="Fill-163" sketch:type="MSShapeGroup" fill="#222526" d="m167.04 99.218c-0.35 0-0.7-0.058-1.02-0.166-0.37-0.122-0.71-0.308-1-0.546 0.13 0.022 0.27 0.033 0.41 0.033 1.42 0 2.58-1.159 2.58-2.578v-3.005c0.47-0.135 0.92-0.306 1.36-0.51v3.515c0 1.105-0.46 2.105-1.19 2.821-0.14 0.13-0.28 0.251-0.43 0.361-0.23 0.049-0.46 0.075-0.71 0.075"/>
   <path id="Fill-164" sketch:type="MSShapeGroup" fill="#222526" d="m165.43 93.318c-0.56 0-1.1-0.05-1.64-0.145v-1.169c1.01 0.409 2.11 0.634 3.26 0.634 1.03 0 2.03-0.182 2.95-0.516-0.21 0.116-0.42 0.224-0.63 0.324-0.44 0.204-0.89 0.375-1.36 0.51-0.82 0.235-1.68 0.362-2.58 0.362"/>
   <path id="Fill-165" sketch:type="MSShapeGroup" fill="#222526" d="m170.43 80.563c-0.1 0-0.2-0.045-0.27-0.133-1.14-1.492-2.86-2.352-4.73-2.352-1.78 0-3.46 0.807-4.6 2.198-0.06 0.085-0.17 0.127-0.27 0.127-0.07 0-0.15-0.024-0.21-0.072-0.15-0.121-0.17-0.333-0.05-0.48 1.27-1.558 3.14-2.451 5.13-2.451 2.08 0 4 0.953 5.28 2.617 0.11 0.147 0.08 0.36-0.07 0.479l-0.21 0.067"/>
   <path id="Fill-166" sketch:type="MSShapeGroup" fill="#C0A95D" d="m174.11 88.982c0.85-1.48 1.33-3.186 1.33-4.976 0-2.088-0.71-4.099-1.98-5.789 1.38 1.531 2.23 3.561 2.23 5.789 0 1.853-0.59 3.57-1.58 4.976"/>
   <path id="Fill-167" sketch:type="MSShapeGroup" fill="#222526" d="m170 92.122c2.83-1.598 4.75-4.636 4.75-8.116 0-2.93-1.36-5.548-3.49-7.256 0.01-0.089 0.01-0.18 0.02-0.27 0.55 0.31 1.06 0.679 1.53 1.098 0.23 0.202 0.44 0.415 0.65 0.639 1.27 1.69 1.98 3.701 1.98 5.789 0 1.79-0.48 3.496-1.33 4.976-0.95 1.338-2.26 2.395-3.8 3.021-0.11 0.042-0.21 0.082-0.31 0.119"/>
   <path id="Fill-168" sketch:type="MSShapeGroup" fill="#222526" d="m171.26 76.75c-0.39-0.319-0.81-0.605-1.26-0.856 0.45 0.161 0.87 0.357 1.28 0.586-0.01 0.09-0.01 0.181-0.02 0.27"/>
   <path id="Fill-169" sketch:type="MSShapeGroup" fill="#E1E183" d="m165.43 91.96c-0.94 0-1.84-0.165-2.68-0.466-2.59-1.49-4.33-4.284-4.33-7.488 0-3.117 1.65-5.848 4.13-7.364 0.06-0.042 0.13-0.082 0.2-0.121 0.84-0.302 1.74-0.466 2.68-0.466 4.39 0 7.96 3.569 7.96 7.951 0 4.383-3.57 7.954-7.96 7.954m-5.19-4.791c-0.07 0-0.14 0.02-0.2 0.061-0.15 0.101-0.19 0.314-0.08 0.473 1.22 1.826 3.27 2.911 5.47 2.911 2.23 0 4.27-1.094 5.5-2.942 0.03 0.157 0.13 0.298 0.29 0.371l0.21 0.046c0.2 0 0.38-0.112 0.47-0.299 0.54-1.185 0.82-2.464 0.82-3.784 0-1.251-0.25-2.463-0.73-3.582-0.08-0.197-0.27-0.31-0.47-0.31-0.07 0-0.14 0.012-0.2 0.036-0.26 0.115-0.38 0.413-0.27 0.674 0.43 0.999 0.64 2.072 0.64 3.182 0 1.095-0.21 2.155-0.63 3.146-0.03-0.052-0.07-0.097-0.12-0.128-0.05-0.04-0.11-0.059-0.18-0.059-0.11 0-0.23 0.062-0.29 0.166-1.09 1.751-2.97 2.803-5.04 2.803-1.97 0-3.81-0.978-4.91-2.617-0.06-0.098-0.17-0.148-0.28-0.148m5.19-9.091c1.87 0 3.59 0.86 4.73 2.352 0.07 0.088 0.17 0.133 0.27 0.133l0.21-0.067c0.15-0.119 0.18-0.332 0.07-0.479-1.28-1.664-3.2-2.617-5.28-2.617-1.99 0-3.86 0.893-5.13 2.451-0.12 0.147-0.1 0.359 0.05 0.48 0.06 0.048 0.14 0.072 0.21 0.072 0.1 0 0.21-0.042 0.27-0.127 1.14-1.391 2.82-2.198 4.6-2.198"/>
   <path id="Fill-170" sketch:type="MSShapeGroup" fill="#222526" d="m167.05 92.638c-1.15 0-2.25-0.225-3.26-0.634-0.36-0.147-0.71-0.318-1.04-0.51 0.84 0.301 1.74 0.466 2.68 0.466 4.39 0 7.96-3.571 7.96-7.954 0-4.382-3.57-7.951-7.96-7.951-0.94 0-1.84 0.164-2.68 0.466 1.27-0.728 2.73-1.145 4.3-1.145 1.04 0 2.03 0.183 2.95 0.518 0.45 0.251 0.87 0.537 1.26 0.856 2.13 1.708 3.49 4.326 3.49 7.256 0 3.48-1.92 6.518-4.75 8.116-0.92 0.334-1.92 0.516-2.95 0.516"/>
   <path id="Fill-171" sketch:type="MSShapeGroup" fill="#EDEC87" d="m171.43 88.089l-0.21-0.046c-0.16-0.073-0.26-0.214-0.29-0.371 0.04-0.06 0.08-0.12 0.12-0.181 0.06-0.106 0.07-0.236 0.01-0.339 0.42-0.991 0.63-2.051 0.63-3.146 0-1.11-0.21-2.183-0.64-3.182-0.11-0.261 0.01-0.559 0.27-0.674 0.06-0.024 0.13-0.036 0.2-0.036 0.2 0 0.39 0.113 0.47 0.31 0.48 1.119 0.73 2.331 0.73 3.582 0 1.32-0.28 2.599-0.82 3.784-0.09 0.187-0.27 0.299-0.47 0.299"/>
   <path id="Fill-172" sketch:type="MSShapeGroup" fill="#222526" d="m165.43 90.614c-2.2 0-4.25-1.085-5.47-2.911-0.11-0.159-0.07-0.372 0.08-0.473 0.06-0.041 0.13-0.061 0.2-0.061 0.11 0 0.22 0.05 0.28 0.148 1.1 1.639 2.94 2.617 4.91 2.617 2.07 0 3.95-1.052 5.04-2.803 0.06-0.104 0.18-0.166 0.29-0.166 0.07 0 0.13 0.019 0.18 0.059 0.05 0.031 0.09 0.076 0.12 0.128 0.06 0.103 0.05 0.233-0.01 0.339-0.04 0.061-0.08 0.121-0.12 0.181-1.23 1.848-3.27 2.942-5.5 2.942"/>
   <path id="Fill-173" sketch:type="MSShapeGroup" fill="#EDEC87" d="m171.17 7.083h0.25v3.19h-0.25v-3.19z"/>
   <path id="Fill-174" sketch:type="MSShapeGroup" fill="#222526" d="m170.48 7.083h0.69v3.19h-0.69v-3.19z"/>
   <path id="Fill-175" sketch:type="MSShapeGroup" fill="#E1E183" d="m162.7 7.762h6.42v1.83h-6.42v-1.83z"/>
   <path id="Fill-176" sketch:type="MSShapeGroup" fill="#222526" d="m170.48 10.272h-7.78v-0.68h6.42v-1.83h-6.42v-0.679h7.78v3.189"/>
   <path id="Fill-177" sketch:type="MSShapeGroup" fill="#232535" d="m165.45 80.611l0.93 2.117 2.31-0.254-1.37 1.873 1.37 1.865-2.31-0.246-0.93 2.111-0.93-2.111-2.3 0.246 1.36-1.865-1.36-1.873 2.3 0.254 0.93-2.117"/>
   <path id="Fill-178" sketch:type="MSShapeGroup" fill="#9D764E" d="m165.67 62.987l0.68 1.565 1.71-0.186-1.02 1.38 1.02 1.378-1.71-0.181-0.68 1.559-0.69-1.559-1.7 0.181 1-1.378-1-1.38 1.7 0.186 0.69-1.565"/>
   <path id="Fill-179" sketch:type="MSShapeGroup" fill="#F4F4F2" d="m170.55 28.228c-0.14 0-0.25-0.099-0.28-0.24-0.83-6.574-2.15-12.067-3.8-15.897-0.06-0.141 0.01-0.301 0.15-0.361 0.14-0.059 0.3 0.008 0.36 0.147 1.66 3.87 2.99 9.417 3.84 16.044 0.02 0.147-0.09 0.287-0.24 0.307h-0.03"/>
   <path id="Fill-180" sketch:type="MSShapeGroup" fill="#F4F4F2" d="m169.95 64.332h-0.04c-0.14-0.025-0.25-0.166-0.23-0.311 0.05-0.274 0.09-0.54 0.13-0.826 0.6-3.798 1.01-7.773 1.24-11.822 0-0.154 0.12-0.26 0.28-0.26 0.16 0.006 0.27 0.139 0.26 0.286-0.22 4.069-0.64 8.066-1.24 11.881-0.05 0.28-0.09 0.546-0.12 0.82-0.02 0.133-0.14 0.232-0.28 0.232"/>
   <path id="Fill-181" sketch:type="MSShapeGroup" fill="#9D764E" d="m31.117 152.84h156.43v4.8h-156.43l-0.003-4.8z"/>
   <path id="Fill-182" sketch:type="MSShapeGroup" fill="#232535" d="m32.481 156.27h153.7v-2.07h-153.7l0.001 2.07zm155.07 2.73h-156.43c-0.756 0-1.368-0.61-1.368-1.36v-4.8c0-0.75 0.612-1.37 1.365-1.37h156.43c0.75 0 1.37 0.62 1.37 1.37v4.8c0 0.75-0.62 1.36-1.37 1.36z"/>
  </g>
 </g>
</svg>
