<?xml version="1.0" encoding="UTF-8" standalone="no"?>
<svg xmlns:sketch="http://www.bohemiancoding.com/sketch/ns" xmlns="http://www.w3.org/2000/svg" height="150px" width="256px" version="1.1" xmlns:xlink="http://www.w3.org/1999/xlink" viewBox="0 0 256 150"><!-- Generator: Sketch 3.3.3 (12072) - http://www.bohemiancoding.com/sketch -->
 <title>Imported Layers</title>
 <desc>Created with Sketch.</desc>
 <g id="Page-1" fill-rule="evenodd" sketch:type="MSPage" fill="none">
  <g id="Desktop-HD-Copy-13" transform="translate(-550 -3509)" sketch:type="MSArtboardGroup">
   <g id="Imported-Layers" transform="translate(550 3509)" sketch:type="MSLayerGroup">
    <path id="Fill-1" sketch:type="MSShapeGroup" fill="#DDDCE7" d="m246.3 83.059c-19.4-13.582-47.78 3.119-68.16 14.83 1.31-2.233 2.6-4.488 3.83-6.762 10.24-19.084 7.63-43.038-18.25-44.882-27.74-1.951-55.32 26.854-72.495 44.179-3.894 3.923-12.509 13.076-20.056 15.006 1.59-2.55 3.624-5.04 5.133-7.169 12.136-17.175 29.268-30.706 42.878-46.672 15.2-17.788 16.61-40.666-9-49.953-13.148-4.7576-35.669 5.9663-47.081 11.3-18.408 8.591-35.152 19.909-52.603 30.222-22.521 13.32-1.7812 48.232 20.802 34.891 6.27-3.713 12.458-7.547 18.657-11.349-1.217 1.45-2.434 2.898-3.622 4.397-12.429 15.705-23.679 34.783-14.773 54.893 9.761 22.06 39.096 23.97 58.237 15.04 13.383-6.27 23.793-16.66 34.283-26.8-3.42 15.04 2.07 28.94 20.54 33.98 14.67 4.01 30.38-3.49 43.33-9.36 8.69-3.94 16.84-9.08 25.29-13.44 3.45-1.83 6.99-3.35 10.69-4.58 2.14-0.81 3.51-1.11 4.29-1.21 20.65 11.43 38.65-22.173 18.08-36.561"/>
    <path id="Fill-2" sketch:type="MSShapeGroup" fill="#fff" d="m147.68 69.477c-1.81 0-3.52 0.362-5.14 0.906-1.07-5.816-5.21-10.505-10.68-12.416 1.24-2.073 1.65-4.628 0.71-7.102-1.61-4.226-6.29-6.379-10.45-4.79-4.16 1.59-6.21 6.299-4.59 10.544 0.35 0.936 0.92 1.731 1.53 2.445-4.23 2.224-7.47 6.067-8.48 10.876-0.71-0.101-1.41-0.222-2.13-0.222-9.013 0-16.308 7.305-16.308 16.318 0 8.029 5.827 14.664 13.498 16.014l2.69 22.34c0.34 2.81 2.93 5.11 5.77 5.11h9.74 10.31 9.74c2.84 0 5.43-2.3 5.76-5.11l2.79-23.1c6.67-2.043 11.55-8.171 11.55-15.515 0-9.005-7.29-16.298-16.31-16.298"/>
    <path id="Fill-3" sketch:type="MSShapeGroup" fill="#CBCCCB" d="m138.49 89.578h-10.3-14.73c-2.84 0-4.88 2.304-4.54 5.121l3.76 31.141c0.33 2.81 2.93 5.11 5.77 5.11h9.74 10.3 9.74c2.84 0 5.44-2.3 5.77-5.11l3.76-31.141c0.34-2.817-1.7-5.121-4.53-5.121h-14.74"/>
    <path id="Fill-4" sketch:type="MSShapeGroup" fill="#DBBA94" d="m150.34 72.827c-1.81 0-3.52 0.372-5.14 0.916-1.39-7.607-8.01-13.382-16.02-13.382-7.85 0-14.39 5.554-15.95 12.929-0.7-0.091-1.4-0.21-2.12-0.21-9.02 0-16.311 7.303-16.311 16.308 0 9.004 7.291 16.312 16.311 16.312 4.17 0 7.93-1.61 10.82-4.19 1.69 1.51 3.87 2.51 6.33 2.51 1.66 0 3.15-0.54 4.51-1.28 2.15 2.13 5.11 3.46 8.37 3.46 1.88 0 3.59-0.54 5.18-1.32 1.29 0.33 2.63 0.55 4.02 0.55 9.01 0 16.31-7.29 16.31-16.294 0-9.014-7.3-16.309-16.31-16.309"/>
    <path id="Fill-5" sketch:type="MSShapeGroup" fill="#232435" d="m143.89 131.56h-29.79c-3.85 0-7.37-3.11-7.81-6.93l-2.53-20.88c-8.006-2.11-13.681-9.322-13.681-17.714 0.01-10.331 8.553-18.792 18.981-18.36 1.23-3.702 3.69-6.933 7.05-9.236-0.2-0.363-0.37-0.724-0.51-1.097-2.01-5.281 0.58-11.196 5.79-13.19 5.08-1.971 11.15 0.845 13.1 5.977 0.83 2.172 0.86 4.547 0.12 6.761 4.5 2.223 7.91 6.187 9.42 10.936 11.83-2.557 22.03 6.631 22.03 17.948 0 7.626-4.66 14.305-11.73 17.045l-2.63 21.82c-0.45 3.81-3.96 6.92-7.81 6.92m-35.44-59.779c-7.85 0-14.245 6.399-14.245 14.255 0 6.903 4.96 12.789 11.785 13.984 0.89 0.16 1.59 0.89 1.69 1.78l2.7 22.34c0.21 1.79 1.92 3.3 3.72 3.3h29.79c1.8 0 3.51-1.51 3.72-3.29l2.79-23.11c0.09-0.81 0.66-1.482 1.44-1.723 6.04-1.851 10.09-7.293 10.09-13.542 0-7.847-6.39-14.236-14.25-14.236-1.42 0-2.89 0.262-4.49 0.794-0.55 0.192-1.17 0.132-1.7-0.18-0.51-0.302-0.87-0.815-0.97-1.397-0.92-5.001-4.5-9.147-9.34-10.847-0.59-0.201-1.05-0.654-1.26-1.237s-0.14-1.228 0.17-1.762c1.02-1.7 1.21-3.58 0.56-5.311-1.18-3.069-4.77-4.729-7.79-3.602-3.08 1.187-4.61 4.719-3.41 7.888 0.23 0.583 0.6 1.167 1.17 1.841 0.41 0.473 0.59 1.106 0.46 1.721-0.11 0.623-0.5 1.146-1.06 1.438-3.88 2.042-6.58 5.493-7.43 9.477-0.22 1.057-1.13 1.7-2.3 1.621-0.82-0.123-1.32-0.202-1.84-0.202"/>
    <path id="Fill-6" sketch:type="MSShapeGroup" fill="#232435" d="m113.43 101.59l1.59 18.22c0.04 0.41-0.27 0.78-0.68 0.82-0.4 0.03-0.75-0.27-0.8-0.66l-2.17-18.16c-0.07-0.57 0.35-1.08 0.91-1.15s1.08 0.34 1.15 0.9v0.03"/>
    <path id="Fill-7" sketch:type="MSShapeGroup" fill="#232435" d="m121.73 99.085l0.68 20.135c0.01 0.41-0.31 0.76-0.72 0.77s-0.74-0.3-0.77-0.69l-1.24-20.114c-0.04-0.574 0.39-1.056 0.96-1.096 0.57-0.031 1.06 0.402 1.09 0.966v0.029"/>
    <path id="Fill-8" sketch:type="MSShapeGroup" fill="#232435" d="m146.05 101.81l-2.16 18.16c-0.05 0.4-0.42 0.7-0.84 0.65-0.39-0.04-0.68-0.41-0.65-0.81l1.6-18.22c0.05-0.56 0.55-0.99 1.12-0.93 0.56 0.04 0.98 0.55 0.93 1.11v0.04"/>
    <path id="Fill-9" sketch:type="MSShapeGroup" fill="#232435" d="m137.75 99.186l-1.25 20.114c-0.03 0.4-0.38 0.71-0.79 0.69-0.41-0.03-0.71-0.37-0.7-0.77l0.69-20.135c0.02-0.562 0.49-1.015 1.05-0.995 0.58 0.02 1.02 0.493 1 1.066v0.03"/>
    <path id="Fill-10" sketch:type="MSShapeGroup" fill="#232435" d="m130.22 98.381l-0.48 20.889c-0.01 0.41-0.35 0.73-0.77 0.72-0.4-0.01-0.72-0.34-0.72-0.74l-0.08-20.889c-0.01-0.572 0.45-1.037 1.02-1.037s1.03 0.465 1.03 1.028v0.029"/>
    <path id="Fill-11" sketch:type="MSShapeGroup" fill="#DBBA94" d="m147.84 69.477c-1.81 0-3.52 0.362-5.14 0.906-1.39-7.607-8.01-13.371-16.02-13.371-7.85 0-14.38 5.543-15.94 12.928-0.7-0.101-1.41-0.222-2.12-0.222-9.022 0-16.318 7.305-16.318 16.318 0 8.996 7.296 16.304 16.318 16.304 4.16 0 7.92-1.61 10.81-4.19 1.69 1.519 3.88 2.51 6.33 2.51 1.66 0 3.15-0.54 4.51-1.283 2.16 2.133 5.11 3.463 8.37 3.463 1.89 0 3.6-0.54 5.19-1.31 1.29 0.32 2.62 0.55 4.01 0.55 9.02 0 16.32-7.29 16.32-16.305 0-9.005-7.3-16.298-16.32-16.298"/>
    <path id="Fill-12" sketch:type="MSShapeGroup" fill="#232435" d="m138.64 103.86c-3.17 0-6.17-1.14-8.54-3.24-3.88 1.89-7.63 1.21-10.66-1.121-3.11 2.491-6.91 3.861-10.82 3.861-9.565 0-17.343-7.766-17.343-17.324 0-9.567 7.778-17.344 17.343-17.344 0.45 0 0.89 0.04 1.33 0.101 2.03-7.486 8.91-12.808 16.73-12.808 7.98 0 14.86 5.433 16.79 13.09 1.52-0.424 2.95-0.624 4.37-0.624 9.56 0 17.34 7.766 17.34 17.324 0 9.559-7.78 17.335-17.34 17.335-1.22 0-2.46-0.15-3.9-0.49-1.82 0.84-3.57 1.24-5.3 1.24m-8.37-5.508c0.26 0 0.53 0.1 0.73 0.291 2.06 2.037 4.78 3.167 7.64 3.167 1.52 0 3.07-0.4 4.73-1.21 0.21-0.11 0.47-0.13 0.71-0.07 1.43 0.36 2.61 0.53 3.76 0.53 8.43 0 15.29-6.863 15.29-15.285s-6.86-15.273-15.29-15.273c-1.53 0-3.11 0.282-4.81 0.857-0.28 0.119-0.59 0.08-0.85-0.091-0.26-0.151-0.44-0.403-0.5-0.704-1.32-7.255-7.63-12.526-15-12.526-7.17 0-13.46 5.101-14.94 12.113-0.11 0.533-0.71 0.875-1.14 0.804l-0.3-0.04c-0.57-0.08-1.12-0.171-1.68-0.171-8.43 0-15.292 6.863-15.292 15.292 0 8.422 6.862 15.274 15.292 15.274 3.69 0 7.29-1.4 10.13-3.925 0.38-0.362 0.99-0.362 1.37 0 1.72 1.54 5.28 3.475 9.66 1.087 0.15-0.08 0.32-0.12 0.49-0.12"/>
    <path id="Fill-13" sketch:type="MSShapeGroup" fill="#C6AA88" d="m95.304 78.526c-1.257 2.221-1.976 4.783-1.976 7.51 0 8.422 6.862 15.274 15.292 15.274 3.69 0 7.29-1.4 10.13-3.925 0.19-0.18 0.44-0.271 0.68-0.271 0.25 0 0.5 0.091 0.69 0.271 1.14 1.018 3.08 2.207 5.53 2.207 1.26 0 2.65-0.312 4.13-1.12 0.15-0.08 0.32-0.12 0.49-0.12 0.26 0 0.53 0.1 0.73 0.291 2.06 2.037 4.78 3.167 7.64 3.167 1.52 0 3.07-0.4 4.73-1.21 0.14-0.07 0.29-0.1 0.44-0.1 0.09 0 0.18 0.01 0.27 0.03 1.43 0.36 2.61 0.53 3.76 0.53 7.07 0 13.04-4.836 14.78-11.368-2.96 3.124-7.12 5.098-11.78 5.098-1.39 0-2.73-0.231-4.01-0.564-1.59 0.785-3.3 1.308-5.19 1.308-3.26 0-6.22-1.318-8.37-3.461-1.36 0.754-2.85 1.287-4.51 1.287-2.45 0-4.64-0.985-6.33-2.515-2.89 2.577-6.65 4.187-10.82 4.187-9.01 0-16.308-7.296-16.308-16.3 0-0.068 0.001-0.137 0.002-0.206"/>
    <path id="Fill-14" sketch:type="MSShapeGroup" fill="#1F2030" d="m95.544 76.358c-2.015 2.717-3.242 6.036-3.242 9.678 0 8.996 7.296 16.304 16.318 16.304 4.16 0 7.92-1.61 10.81-4.19 1.69 1.519 3.88 2.51 6.33 2.51 1.66 0 3.15-0.54 4.51-1.283 2.16 2.133 5.11 3.463 8.37 3.463 1.89 0 3.6-0.54 5.19-1.31 1.29 0.32 2.62 0.55 4.01 0.55 8.2 0 14.93-6.063 16.07-13.931-0.4 0.54-0.83 1.056-1.29 1.543-1.74 6.532-7.71 11.368-14.78 11.368-1.15 0-2.33-0.17-3.76-0.53-0.09-0.02-0.18-0.03-0.27-0.03-0.15 0-0.3 0.03-0.44 0.1-1.66 0.81-3.21 1.21-4.73 1.21-2.86 0-5.58-1.13-7.64-3.167-0.2-0.191-0.47-0.291-0.73-0.291-0.17 0-0.34 0.04-0.49 0.12-1.48 0.808-2.87 1.12-4.13 1.12-2.45 0-4.39-1.189-5.53-2.207-0.19-0.18-0.44-0.271-0.69-0.271-0.24 0-0.49 0.091-0.68 0.271-2.84 2.525-6.44 3.925-10.13 3.925-8.43 0-15.292-6.852-15.292-15.274 0-2.727 0.719-5.289 1.976-7.51 0.018-0.732 0.128-1.45 0.24-2.168"/>
    <path id="Fill-15" sketch:type="MSShapeGroup" fill="#232435" d="m99.287 73.762c-0.313 0-0.614-0.14-0.815-0.401-0.342-0.453-0.263-1.096 0.18-1.439 0.322-0.232 7.778-5.796 18.038-0.253 0.49 0.273 0.68 0.896 0.41 1.399-0.26 0.504-0.91 0.655-1.4 0.413-9.08-4.89-15.51-0.12-15.789 0.071-0.182 0.14-0.403 0.21-0.624 0.21"/>
    <path id="Fill-16" sketch:type="MSShapeGroup" fill="#232435" d="m139.31 73.842c-0.34 0-0.68-0.159-0.88-0.473-0.3-0.48-0.15-1.116 0.33-1.427 9.9-6.218 17.68-1.178 18-0.956 0.47 0.312 0.59 0.956 0.28 1.429-0.32 0.474-0.96 0.593-1.43 0.282-0.27-0.182-7.01-4.507-15.75 0.995-0.17 0.101-0.36 0.15-0.55 0.15"/>
    <path id="Fill-17" sketch:type="MSShapeGroup" fill="#35A0CE" d="m109.88 82.938c0.13 0.04 0.26 0.06 0.39 0.06 0.41 0 0.79-0.241 0.95-0.643 0.2-0.523-0.05-1.117-0.57-1.328-1.57-0.615-3.62-0.101-3.86-0.039-0.54 0.139-0.86 0.703-0.72 1.255 0.15 0.543 0.68 0.857 1.26 0.726 0.41-0.111 1.78-0.363 2.55-0.031"/>
    <path id="Fill-18" sketch:type="MSShapeGroup" fill="#EB8B2D" d="m130.78 92.495c-0.21 0.364-0.99 1.489-1.78 1.822-0.51 0.231-0.75 0.825-0.54 1.348 0.17 0.392 0.54 0.624 0.95 0.624 0.14 0 0.27-0.03 0.4-0.081 1.55-0.653 2.63-2.484 2.76-2.697 0.28-0.493 0.11-1.116-0.39-1.397-0.48-0.282-1.1-0.121-1.4 0.381"/>
    <path id="Fill-19" sketch:type="MSShapeGroup" fill="#fff" d="m122.04 82.695c-1.55 0.665-2.64 2.497-2.76 2.697-0.28 0.484-0.11 1.117 0.38 1.399 0.16 0.091 0.34 0.142 0.52 0.142 0.34 0 0.69-0.192 0.88-0.514 0.21-0.363 1-1.509 1.79-1.831 0.51-0.221 0.75-0.824 0.54-1.348-0.23-0.523-0.84-0.755-1.35-0.545"/>
    <path id="Fill-20" sketch:type="MSShapeGroup" fill="#EB8B2D" d="m142.29 81.419c-1.55 0.654-2.64 2.484-2.76 2.687-0.28 0.502-0.11 1.127 0.38 1.408 0.15 0.089 0.34 0.141 0.52 0.141 0.34 0 0.69-0.191 0.88-0.524 0.21-0.362 1-1.488 1.77-1.821 0.53-0.232 0.77-0.825 0.56-1.348-0.24-0.522-0.84-0.754-1.35-0.543"/>
    <path id="Fill-21" sketch:type="MSShapeGroup" fill="#35A0CE" d="m148.17 90.584c-0.42-0.079-1.75-0.442-2.32-1.066-0.38-0.424-1.04-0.443-1.45-0.06s-0.44 1.026-0.06 1.448c1.14 1.238 3.23 1.651 3.46 1.691l0.19 0.02c0.49 0 0.91-0.342 1.01-0.845 0.1-0.554-0.26-1.087-0.83-1.188"/>
    <path id="Fill-22" sketch:type="MSShapeGroup" fill="#fff" d="m120.01 65.653c0.38 0 0.75-0.211 0.92-0.583 0.25-0.513 0.03-1.126-0.48-1.368-0.39-0.182-1.57-0.866-1.97-1.629-0.26-0.495-0.88-0.695-1.38-0.424-0.5 0.261-0.7 0.877-0.43 1.378 0.77 1.489 2.68 2.426 2.89 2.526 0.14 0.071 0.3 0.1 0.45 0.1"/>
    <path id="Fill-23" sketch:type="MSShapeGroup" fill="#35A0CE" d="m130.42 78.712c0.48-0.322 0.59-0.965 0.26-1.428-0.23-0.352-0.91-1.55-0.88-2.394 0.03-0.564-0.41-1.037-0.99-1.067-0.59-0.021-1.03 0.422-1.06 0.986-0.06 1.671 1.12 3.441 1.25 3.642 0.2 0.281 0.52 0.443 0.85 0.443 0.2 0 0.4-0.06 0.57-0.182"/>
    <path id="Fill-24" sketch:type="MSShapeGroup" fill="#EB8B2D" d="m111.14 90.584c-0.42-0.079-1.75-0.442-2.32-1.066-0.39-0.424-1.04-0.443-1.45-0.06-0.42 0.383-0.45 1.026-0.06 1.448 1.13 1.238 3.23 1.651 3.46 1.691l0.18 0.02c0.49 0 0.92-0.342 1.02-0.845 0.1-0.554-0.27-1.087-0.83-1.188"/>
    <path id="Fill-25" sketch:type="MSShapeGroup" fill="#fff" d="m151.06 78.612c-0.66-1.55-2.48-2.637-2.69-2.756-0.5-0.282-1.12-0.122-1.4 0.382-0.28 0.484-0.11 1.106 0.37 1.397 0.37 0.213 1.51 1.007 1.83 1.782 0.17 0.383 0.56 0.623 0.95 0.623 0.14 0 0.27-0.03 0.4-0.081 0.52-0.219 0.76-0.823 0.54-1.347"/>
    <path id="Fill-26" sketch:type="MSShapeGroup" fill="#fff" d="m120.11 56.619c-1.41-3.699-0.03-7.746 3.09-9.779-0.24 0.062-0.48 0.112-0.71 0.201-3.62 1.378-5.41 5.514-3.99 9.206 0.84 2.219 2.71 3.839 4.91 4.415-1.45-0.921-2.64-2.302-3.3-4.043"/>
    <path id="Fill-27" sketch:type="MSShapeGroup" fill="#DC3E38" d="m131.6 51.238c-1.06-2.788-3.73-4.66-6.65-4.66-0.6 0-1.18 0.107-1.75 0.262-3.12 2.033-4.5 6.08-3.09 9.779 0.66 1.741 1.85 3.122 3.3 4.043 0.57 0.147 1.14 0.244 1.74 0.244 0.84 0 1.67-0.163 2.46-0.463 3.62-1.379 5.41-5.515 3.99-9.205"/>
    <path id="Fill-28" sketch:type="MSShapeGroup" fill="#232435" d="m133.53 50.502c-0.77-2.014-2.21-3.633-3.98-4.682-1.38-0.814-2.95-1.294-4.6-1.294-1.1 0-2.18 0.191-3.2 0.583-4.67 1.791-7 7.114-5.18 11.873 1.36 3.582 4.81 5.975 8.58 5.975 1.1 0 2.17-0.191 3.2-0.582 0.52-0.198 1-0.445 1.45-0.723 3.68-2.242 5.35-6.916 3.73-11.15zm-5.92 9.941c-0.79 0.3-1.62 0.463-2.46 0.463-0.6 0-1.17-0.097-1.74-0.244-2.2-0.576-4.07-2.196-4.91-4.415-1.42-3.692 0.37-7.828 3.99-9.206 0.23-0.089 0.47-0.139 0.71-0.201 0.57-0.155 1.15-0.262 1.75-0.262 2.92 0 5.59 1.872 6.65 4.66 1.42 3.69-0.37 7.826-3.99 9.205z"/>
    <path id="Fill-29" sketch:type="MSShapeGroup" fill="#DC3E38" d="m123.12 49.717s1.93 1.026 3.7-0.361"/>
    <path id="Fill-30" sketch:type="MSShapeGroup" fill="#232435" d="m124.75 50.855c-1.11 0-1.94-0.423-2-0.453-0.37-0.201-0.52-0.674-0.32-1.046 0.2-0.382 0.65-0.524 1.05-0.323 0.06 0.031 1.52 0.755 2.87-0.282 0.33-0.261 0.81-0.221 1.07 0.132 0.28 0.332 0.22 0.814-0.13 1.076-0.87 0.694-1.78 0.896-2.54 0.896"/>
    <path id="Fill-31" sketch:type="MSShapeGroup" fill="#232435" d="m123.87 49.375c-1.07-5.513 0.78-12.142 6.05-15.735l0.1-0.07c0.95-0.643 2.23-0.393 2.88 0.542 0.64 0.947 0.39 2.235-0.55 2.879l-0.26 0.151c-4.09 1.982-6.44 6.961-6.18 11.951 0.05 0.564-0.37 1.068-0.93 1.117-0.53 0.05-1-0.33-1.11-0.835"/>
    <path id="Fill-32" sketch:type="MSShapeGroup" fill="#fff" d="m156.13 97.677c-0.2 0-0.4-0.079-0.55-0.23-0.29-0.303-0.29-0.796 0.01-1.098 2.21-2.163 3.67-4.94 4.28-8.009 0.82-4.155-0.11-8.51-2.56-11.972-0.24-0.342-0.16-0.824 0.19-1.076 0.34-0.242 0.83-0.172 1.08 0.191 2.69 3.793 3.71 8.591 2.8 13.159-0.66 3.372-2.28 6.418-4.7 8.814-0.15 0.142-0.35 0.221-0.55 0.221"/>
    <path id="Fill-33" sketch:type="MSShapeGroup" fill="#EB8B2D" d="m93.202 47.151c-0.392 0-0.794-0.09-1.166-0.281l-9.943-5.061c-1.269-0.643-1.772-2.193-1.127-3.46 0.643-1.267 2.214-1.772 3.461-1.127l9.942 5.06c1.269 0.644 1.773 2.194 1.128 3.462-0.453 0.895-1.358 1.407-2.295 1.407"/>
    <path id="Fill-34" sketch:type="MSShapeGroup" fill="#EB8B2D" d="m113.04 29.416c-1.04 0-2.03-0.635-2.41-1.66l-3.95-10.434c-0.51-1.328 0.16-2.816 1.49-3.321 1.31-0.543 2.82 0.163 3.32 1.49l3.95 10.433c0.51 1.327-0.16 2.817-1.49 3.319-0.3 0.122-0.61 0.173-0.91 0.173"/>
    <path id="Fill-35" sketch:type="MSShapeGroup" fill="#EB8B2D" d="m139.66 29.595c-0.32 0-0.64-0.06-0.95-0.179-1.32-0.524-1.97-2.014-1.45-3.341l4.09-10.382c0.51-1.329 2-1.962 3.34-1.45 1.31 0.524 1.97 2.013 1.45 3.341l-4.09 10.382c-0.39 1.017-1.37 1.629-2.39 1.629"/>
    <path id="Fill-36" sketch:type="MSShapeGroup" fill="#EB8B2D" d="m159.31 47.575c-0.95 0-1.85-0.524-2.3-1.43-0.64-1.267-0.13-2.815 1.15-3.451l10-4.979c1.23-0.624 2.8-0.121 3.45 1.158 0.63 1.267 0.12 2.817-1.16 3.45l-9.99 4.979c-0.37 0.182-0.76 0.273-1.15 0.273"/>
   </g>
  </g>
 </g>
</svg>
