<?xml version="1.0" encoding="UTF-8" standalone="no"?>
<svg xmlns:sketch="http://www.bohemiancoding.com/sketch/ns" xmlns="http://www.w3.org/2000/svg" height="134px" width="229px" version="1.1" xmlns:xlink="http://www.w3.org/1999/xlink" viewBox="0 0 229 134"><!-- Generator: Sketch 3.3.3 (12072) - http://www.bohemiancoding.com/sketch -->
 <title>Imported Layers</title>
 <desc>Created with Sketch.</desc>
 <g id="Page-1" fill-rule="evenodd" sketch:type="MSPage" fill="none">
  <g id="Desktop-HD-Copy-13" transform="translate(-576 -1261)" sketch:type="MSArtboardGroup">
   <g id="Imported-Layers" transform="translate(576 1261)" sketch:type="MSLayerGroup">
    <path id="Fill-1" sketch:type="MSShapeGroup" fill="#FBF9D6" d="m220.6 74.63c-17.42-12.184-42.89 2.792-61.19 13.299 1.18-2.007 2.33-4.022 3.43-6.074 9.2-17.107 6.86-38.595-16.38-40.245-24.91-1.749-49.664 24.092-65.079 39.621-3.502 3.532-11.236 11.73-18.007 13.459 1.42-2.292 3.252-4.513 4.61-6.431 10.896-15.395 26.267-27.535 38.496-41.85 13.64-15.948 14.9-36.463-8.094-44.795-11.798-4.2717-32.019 5.3526-42.263 10.124-16.523 7.698-31.554 17.857-47.221 27.108-20.222 11.951-1.5992 43.259 18.675 31.289 5.627-3.327 11.183-6.77 16.747-10.168-1.09 1.302-2.188 2.595-3.25 3.933-11.157 14.084-21.258 31.192-13.265 49.23 8.762 19.79 35.101 21.49 52.285 13.48 12.013-5.62 21.356-14.93 30.776-24.03-3.07 13.49 1.86 25.96 18.45 30.47 13.16 3.61 27.27-3.12 38.89-8.39 7.81-3.52 15.12-8.14 22.72-12.05 3.09-1.64 6.27-3 9.59-4.11 1.92-0.72 3.15-0.99 3.85-1.08 18.54 10.25 34.7-19.883 16.23-32.79zm-18.12 31.61c0.24 0.16 0.48 0.29 0.71 0.45-0.23-0.13-0.46-0.27-0.71-0.45zm2.49 1.12c0.17 0 0.17 0.02 0 0z"/>
    <path id="Fill-2" sketch:type="MSShapeGroup" fill="#F2F2F1" d="m136.82 109.08h-4.35c11.33-8.71 18.77-22.248 18.77-37.643 0-26.313-21.36-47.64-47.7-47.64-26.348 0-47.702 21.327-47.702 47.64 0 15.395 7.43 28.933 18.773 37.643h-4.341c-4.483 0-8.101 3.62-8.101 8.09s3.618 8.08 8.101 8.08h66.55c4.46 0 8.09-3.61 8.09-8.08s-3.63-8.09-8.09-8.09"/>
    <path id="Fill-3" sketch:type="MSShapeGroup" fill="#9AD5E6" d="m142.31 109.08h-4.35c11.34-8.71 18.78-22.248 18.78-37.643 0-26.313-21.37-47.64-47.72-47.64-26.335 0-47.69 21.327-47.69 47.64 0 15.395 7.431 28.933 18.764 37.643h-4.34c-4.465 0-8.093 3.62-8.093 8.09s3.628 8.08 8.093 8.08h66.556c4.47 0 8.09-3.61 8.09-8.08s-3.62-8.09-8.09-8.09"/>
    <path id="Fill-4" sketch:type="MSShapeGroup" fill="#232435" d="m136.82 127.13h-66.55c-5.511 0-9.995-4.48-9.995-9.96 0-5.25 4.092-9.57 9.244-9.95-9.958-9.363-15.567-22.146-15.567-35.783 0-27.311 22.249-49.522 49.588-49.522 27.34 0 49.59 22.211 49.59 49.522 0 13.637-5.62 26.42-15.58 35.783 5.15 0.38 9.25 4.7 9.25 9.95 0 5.48-4.49 9.96-9.98 9.96zm-66.55-16.17c-3.438 0-6.217 2.78-6.217 6.21 0 3.41 2.779 6.2 6.217 6.2h66.55c3.42 0 6.21-2.79 6.21-6.2 0-3.43-2.79-6.21-6.21-6.21h-4.35c-0.81 0-1.53-0.51-1.79-1.28-0.25-0.76-0.01-1.6 0.64-2.1 11.46-8.795 18.04-21.979 18.04-36.143 0-25.225-20.56-45.758-45.82-45.758-25.267 0-45.819 20.533-45.819 45.758 0 14.164 6.574 27.348 18.033 36.143 0.642 0.5 0.892 1.34 0.634 2.1-0.259 0.77-0.973 1.28-1.777 1.28h-4.341z"/>
    <path id="Fill-5" sketch:type="MSShapeGroup" fill="#F2F2F1" d="m140.9 93.504c-0.27 0-0.51-0.054-0.76-0.161-0.95-0.419-1.39-1.534-0.97-2.48 2.73-6.208 4-12.807 3.77-19.631-0.45-12.639-6.18-24.662-15.75-32.958-0.79-0.679-0.87-1.872-0.18-2.657 0.68-0.786 1.85-0.876 2.65-0.189 10.36 8.983 16.57 21.987 17.04 35.679 0.25 7.385-1.13 14.539-4.08 21.273-0.31 0.696-1.01 1.124-1.72 1.124"/>
    <path id="Fill-6" sketch:type="MSShapeGroup" fill="#232435" d="m73.038 107.17l46.472 1.18c0.41 0 0.73 0.34 0.72 0.75-0.01 0.39-0.33 0.71-0.72 0.71l-46.472 1.18c-1.061 0.03-1.946-0.81-1.973-1.86-0.019-1.05 0.822-1.93 1.867-1.96h0.106"/>
    <path id="Fill-7" sketch:type="MSShapeGroup" fill="#E4E5E3" d="m108.76 72.614l-34.712-38.353c-11.021 8.731-18.21 22.049-18.21 37.176 0 10.053 3.152 19.346 8.475 27.044l44.447-20.568v-5.299"/>
    <path id="Fill-8" sketch:type="MSShapeGroup" fill="#232435" d="m64.313 99.89c-0.456 0-0.894-0.213-1.161-0.615-5.708-8.25-8.727-17.884-8.727-27.838 0-14.896 6.833-28.847 18.739-38.282 0.58-0.456 1.428-0.392 1.929 0.16l34.717 38.354c0.24 0.259 0.36 0.589 0.36 0.945v5.299c0 0.544-0.31 1.043-0.81 1.276l-44.449 20.576c-0.197 0.081-0.403 0.125-0.598 0.125zm9.582-63.685c-10.6 8.875-16.647 21.638-16.647 35.232 0 8.991 2.608 17.687 7.556 25.242l42.546-19.676v-3.854l-33.455-36.944z"/>
    <path id="Fill-9" sketch:type="MSShapeGroup" fill="#232435" d="m61.134 80.892c-0.68-0.036-1.26-0.535-1.341-1.223-0.375-2.809-0.5-5.681-0.366-8.553 0.5-11.382 5.081-22.308 12.906-30.755 0.527-0.57 1.42-0.607 1.992-0.081 0.58 0.527 0.617 1.42 0.089 1.99-7.475 8.081-11.691 18.107-12.173 28.971-0.127 2.703 0 5.405 0.357 8.054 0.098 0.776-0.447 1.49-1.224 1.588-0.081 0.009-0.169 0.009-0.24 0.009"/>
    <path id="Fill-10" sketch:type="MSShapeGroup" fill="#EB8B2D" d="m132.89 21.015c-0.71-0.258-1.27-0.839-1.47-1.614l-2.59-9.8654c-0.34-1.2663 0.43-2.5428 1.68-2.8722 1.26-0.3305 2.55 0.4281 2.88 1.6764l2.59 9.8652c0.32 1.266-0.44 2.552-1.69 2.872-0.48 0.125-0.97 0.09-1.4-0.062"/>
    <path id="Fill-11" sketch:type="MSShapeGroup" fill="#EB8B2D" d="m150.52 23.031c-0.1-0.028-0.2-0.072-0.3-0.125-1.14-0.598-1.59-2.024-0.99-3.167l4.73-9.045c0.59-1.1584 2.02-1.6037 3.18-0.9891 1.14 0.5981 1.6 2.0251 1 3.1661l-4.74 9.044c-0.55 1.053-1.78 1.518-2.88 1.116"/>
    <path id="Fill-12" sketch:type="MSShapeGroup" fill="#EB8B2D" d="m162.24 36.347c-0.62-0.231-1.16-0.73-1.4-1.399-0.45-1.222 0.17-2.569 1.4-3.026l9.57-3.531c1.23-0.446 2.58 0.179 3.03 1.392 0.45 1.214-0.18 2.569-1.4 3.024l-9.57 3.531c-0.54 0.206-1.12 0.188-1.63 0.009"/>
    <path id="Fill-13" sketch:type="MSShapeGroup" fill="#EB8B2D" d="m171.49 57.862c-0.03-0.009-0.05-0.019-0.08-0.019l-9.48-3.799c-1.2-0.491-1.78-1.864-1.3-3.068 0.48-1.205 2.02-1.82 3.07-1.302l9.47 3.799c1.21 0.482 1.8 1.856 1.31 3.05-0.47 1.196-1.79 1.775-2.99 1.339"/>
    <path id="Fill-14" sketch:type="MSShapeGroup" fill="#232435" d="m104.88 70.991l-17.167-9.473c-0.143-0.08-0.197-0.267-0.125-0.427 0.09-0.144 0.268-0.197 0.412-0.125l17.62 8.598c0.4 0.196 0.57 0.678 0.38 1.07-0.2 0.411-0.68 0.571-1.08 0.375-0.01 0-0.02-0.018-0.04-0.018"/>
    <path id="Fill-15" sketch:type="MSShapeGroup" fill="#232435" d="m105.22 73.346l-13.997-2.997c-0.124-0.027-0.205-0.152-0.178-0.267 0.025-0.125 0.142-0.197 0.258-0.179l14.137 2.283c0.32 0.054 0.55 0.357 0.49 0.678-0.05 0.322-0.35 0.536-0.67 0.482h-0.04"/>
    <path id="Fill-16" sketch:type="MSShapeGroup" fill="#232435" d="m109.92 74.746l-14.312 0.83c-0.116 0.017-0.232-0.089-0.24-0.214-0.01-0.116 0.08-0.223 0.205-0.232l14.237-1.553c0.32-0.044 0.62 0.197 0.66 0.518 0.03 0.321-0.2 0.606-0.53 0.643-0.01 0-0.02 0.008-0.02 0.008"/>
    <path id="Fill-17" sketch:type="MSShapeGroup" fill="#fff" d="m109.33 84.772c-5.52 0-10.006-4.487-10.006-9.999s4.486-9.99 10.006-9.99c5.53 0 10.01 4.478 10.01 9.99s-4.48 9.999-10.01 9.999"/>
    <path id="Fill-18" sketch:type="MSShapeGroup" fill="#232435" d="m109.33 86.19c-6.3 0-11.417-5.119-11.417-11.417 0-6.288 5.117-11.408 11.417-11.408s11.43 5.12 11.43 11.408c0 6.298-5.13 11.417-11.43 11.417zm0-19.998c-4.74 0-8.59 3.853-8.59 8.581 0 4.736 3.85 8.58 8.59 8.58s8.6-3.844 8.6-8.58c0-4.728-3.86-8.581-8.6-8.581z"/>
    <path id="Fill-19" sketch:type="MSShapeGroup" fill="#fff" d="m109.33 79.286c-2.5 0-4.52-2.016-4.52-4.513 0-2.489 2.02-4.514 4.52-4.514 2.48 0 4.51 2.025 4.51 4.514 0 2.497-2.03 4.513-4.51 4.513"/>
    <path id="Fill-20" sketch:type="MSShapeGroup" fill="#232435" d="m109.33 80c-2.89 0-5.23-2.355-5.23-5.227s2.34-5.218 5.23-5.218c2.88 0 5.22 2.346 5.22 5.218s-2.34 5.227-5.22 5.227zm0-9.027c-2.1 0-3.81 1.695-3.81 3.8s1.71 3.799 3.81 3.799c2.11 0 3.81-1.694 3.81-3.799s-1.7-3.8-3.81-3.8z"/>
   </g>
  </g>
 </g>
</svg>
