<?xml version="1.0" encoding="UTF-8" standalone="no"?>
<svg xmlns:sketch="http://www.bohemiancoding.com/sketch/ns" xmlns="http://www.w3.org/2000/svg" height="130px" width="222px" version="1.1" xmlns:xlink="http://www.w3.org/1999/xlink" viewBox="0 0 222 130"><!-- Generator: Sketch 3.4 (15575) - http://www.bohemiancoding.com/sketch -->
 <title>3</title>
 <desc>Created with Sketch.</desc>
 <defs>
  <path id="path-1" d="m0 130h221.32v-129.46l-221.32 0.001v129.46z"/>
 </defs>
 <g id="Page-1" fill-rule="evenodd" sketch:type="MSPage" fill="none">
  <g id="3" sketch:type="MSLayerGroup">
   <g id="Group-3">
    <mask id="mask-2" sketch:name="Clip 2" fill="white">
     <use xlink:href="#path-1"/>
    </mask>
    <path id="Fill-1" sketch:type="MSShapeGroup" fill="#DDDCE7" mask="url(#mask-2)" d="m198.29 104.11c0.17 0 0.16 0.01 0 0zm-2.41-1.09c0.23 0.15 0.47 0.27 0.68 0.43-0.21-0.12-0.44-0.26-0.68-0.43zm17.55-30.651c-16.87-11.814-41.54 2.707-59.26 12.895 1.14-1.946 2.26-3.901 3.33-5.89 8.91-16.587 6.63-37.421-15.86-39.02-24.12-1.696-48.093 23.358-63.02 38.414-3.39 3.425-10.879 11.373-17.435 13.051 1.376-2.223 3.148-4.377 4.463-6.236 10.551-14.927 25.434-26.697 37.272-40.576 13.21-15.463 14.44-35.354-7.834-43.432-11.424-4.142-31.003 5.189-40.923 9.816-15.999 7.463-30.553 17.313-45.723 26.282-19.579 11.588-1.547 41.943 18.084 30.337 5.448-3.226 10.827-6.564 16.215-9.858-1.055 1.262-2.119 2.516-3.148 3.813-10.801 13.656-20.582 30.243-12.842 47.725 8.483 19.19 33.987 20.85 50.626 13.08 11.631-5.45 20.677-14.48 29.805-23.298-2.98 13.078 1.8 25.168 17.86 29.538 12.74 3.5 26.41-3.02 37.66-8.13 7.56-3.42 14.64-7.9 21.99-11.69 2.99-1.59 6.07-2.9 9.29-3.98 1.86-0.71 3.05-0.97 3.72-1.05 17.96 9.94 33.6-19.277 15.73-31.791z"/>
   </g>
   <path id="Fill-4" sketch:type="MSShapeGroup" fill="#AB6934" d="m121.53 68.11l-14.12 1.095-63.335-5.801 5.801 22.753s18.726 12.487 57.534 12.487c5.23 0 11.98-0.257 16.51-0.655v-24.771l-2.39-5.108"/>
   <path id="Fill-5" sketch:type="MSShapeGroup" fill="#232535" d="m51.585 84.883c3.525 2.057 21.996 11.781 55.825 11.781 4.6 0 10.29-0.194 14.53-0.502v-22.507l-1.62-3.472-12.76 0.989-60.888-5.542 4.913 19.253zm55.825 15.747c-38.948 0-57.842-12.312-58.629-12.827-0.41-0.271-0.693-0.683-0.82-1.157l-5.801-22.753c-0.156-0.617 0-1.287 0.41-1.777 0.425-0.476 1.068-0.692 1.684-0.68l63.336 5.801 13.78-1.094c0.83 0.078 1.6 0.398 1.95 1.132l2.39 5.106c0.11 0.258 0.19 0.54 0.19 0.837v24.771c0 1.028-0.78 1.877-1.8 1.967-4.51 0.404-11.22 0.674-16.69 0.674z"/>
   <path id="Fill-6" sketch:type="MSShapeGroup" fill="#9F5B2E" d="m115.37 54.232l36.61 40.838 0.08-28.76-36.69-12.078"/>
   <path id="Fill-7" sketch:type="MSShapeGroup" fill="#232535" d="m121.79 58.426l28.24 31.499 0.05-22.187-28.29-9.312zm30.19 38.625c-0.55 0-1.08-0.233-1.46-0.655l-36.63-40.839c-0.59-0.666-0.67-1.658-0.18-2.404 0.49-0.748 1.41-1.081 2.27-0.798l36.7 12.078c0.81 0.27 1.36 1.028 1.36 1.877l-0.08 28.76c0 0.822-0.51 1.556-1.28 1.852-0.22 0.078-0.46 0.129-0.7 0.129z"/>
   <path id="Fill-8" sketch:type="MSShapeGroup" fill="#AB6934" d="m170.74 63.404l-18.68 2.906-0.08 28.76c8.36-2.909 12.97-6.06 12.97-6.06l5.79-25.606"/>
   <path id="Fill-9" sketch:type="MSShapeGroup" fill="#232535" d="m154.04 68.009l-0.08 24.229c4.79-1.863 7.97-3.678 9.24-4.461l4.97-21.967-14.13 2.199zm-2.06 29.042c-0.41 0-0.8-0.129-1.14-0.374-0.53-0.372-0.84-0.976-0.84-1.607l0.08-28.76c0-0.977 0.72-1.801 1.67-1.954l18.68-2.908c0.64-0.077 1.31 0.13 1.75 0.605 0.45 0.476 0.63 1.146 0.49 1.787l-5.79 25.609c-0.1 0.489-0.41 0.912-0.81 1.196-0.19 0.129-4.93 3.331-13.44 6.289-0.21 0.077-0.43 0.117-0.65 0.117z"/>
   <path id="Fill-10" sketch:type="MSShapeGroup" fill="#D3A24D" d="m169.84 53.822s-15.59-26.766-63.77-26.766c-50.844 0-63.551 23.641-63.551 23.641s-10.714 2.225-10.932 8.026c-0.22 5.801 12.706 10.032 25.426 10.263 11.14 7.806 13.892 3.794 19.241 3.345 5.351-0.451 8.181 5.132 19.551 0.667 9.815 6.02 17.165 1.338 20.295 0 1.97 1.005 5.89 1.468 7.82 1.621v-1.401l-2.55-5.108-6-13.878 36.69 12.078c0.08-0.077-0.1 0.066 0 0 10.7 5.132 24.54 2.895 27.45-2.456 2.91-5.35-9.67-10.032-9.67-10.032"/>
   <path id="Fill-11" sketch:type="MSShapeGroup" fill="#232535" d="m95.805 71.018c0.359 0 0.721 0.103 1.028 0.296 2.933 1.801 5.887 2.7 8.827 2.7 3.62 0 6.56-1.388 8.51-2.302l1.16-0.527c0.54-0.232 1.16-0.22 1.67 0.052 0.93 0.475 2.57 0.835 4.27 1.094l-1.67-3.333-6.05-13.979c-0.3-0.707-0.16-1.545 0.37-2.123 0.51-0.567 1.31-0.784 2.06-0.541l36.39 11.974c0.31 0.053 0.59 0.169 0.85 0.347 3.57 1.648 7.83 2.549 12.05 2.549 6.68 0 11.33-2.163 12.5-4.311 0.23-0.424 0.26-0.784 0.09-1.246-0.9-2.418-6.26-5.08-8.72-5.995-0.41-0.152-0.77-0.461-1-0.848-0.16-0.257-15.73-25.788-62.07-25.788-48.85 0-61.686 22.38-61.816 22.599-0.283 0.513-0.769 0.876-1.336 0.989-2.38 0.502-9.235 2.715-9.364 6.176-0.026 0.629 0.309 1.309 0.978 2.019 3.214 3.407 12.694 6.018 22.521 6.185 0.399 0.012 0.772 0.14 1.093 0.359 5.646 3.964 8.605 4.426 10.341 4.426 1.336 0 2.547-0.335 3.806-0.669 1.171-0.309 2.368-0.641 3.795-0.759 2.226-0.205 4.142 0.489 5.955 1.146 3.241 1.182 7.28 1.915 13.042-0.35 0.23-0.09 0.476-0.14 0.72-0.14zm9.855 6.959c-3.37 0-6.743-0.938-10.034-2.791-6.457 2.339-11.679 1.234-14.947 0.026-1.375-0.502-2.573-0.926-3.807-0.926-1.569 0.102-2.559 0.384-3.55 0.653-1.388 0.376-2.971 0.799-4.835 0.799-3.536 0-7.281-1.479-12.116-4.797-9.158-0.258-20.191-2.611-24.72-7.408-1.415-1.504-2.11-3.152-2.033-4.887 0.232-6.265 8.721-8.953 11.641-9.685 2.79-4.311 18.045-23.886 64.811-23.886 45.3 0 62.38 22.972 65.09 27.14 2.23 0.9 8.84 3.898 10.41 8.077 0.56 1.517 0.46 3.073-0.33 4.502-2.1 3.884-8.37 6.391-15.97 6.391-4.87 0-9.62-1.028-13.76-2.957-0.14-0.027-0.27-0.091-0.4-0.154l-32.18-10.586 4.26 9.84 2.51 5.003c0.12 0.282 0.2 0.578 0.2 0.887v1.401c0 0.552-0.23 1.081-0.64 1.454-0.41 0.36-0.98 0.514-1.5 0.514-1.56-0.127-5.16-0.501-7.63-1.428l-0.27 0.13c-2.13 1.002-5.7 2.688-10.2 2.688z"/>
   <path id="Fill-12" sketch:type="MSShapeGroup" fill="#fff" d="m114.74 23.301c1.75 4.567-0.48 9.699-4.98 11.408-4.5 1.725-9.56-0.604-11.306-5.208-1.747-4.566 0.463-9.698 4.966-11.409 4.5-1.723 9.57 0.605 11.32 5.209"/>
   <path id="Fill-13" sketch:type="MSShapeGroup" fill="#DC3E38" d="m117.53 23.301c1.75 4.567-0.48 9.699-4.98 11.408-4.49 1.725-9.57-0.604-11.3-5.208-1.766-4.566 0.46-9.698 4.96-11.409 4.5-1.723 9.57 0.605 11.32 5.209"/>
   <path id="Fill-14" sketch:type="MSShapeGroup" fill="#232535" d="m106.47 18.645c-0.92 0-1.8 0.168-2.66 0.49-1.88 0.718-3.37 2.159-4.198 4.037-0.823 1.877-0.863 3.987-0.116 5.93 1.464 3.898 5.994 6.007 9.874 4.567 1.88-0.722 3.37-2.163 4.2-4.041 0.83-1.889 0.87-3.986 0.13-5.928-1.15-3.035-4.06-5.055-7.23-5.055zm0.24 17.749c-4.09 0-7.817-2.597-9.298-6.494-0.951-2.496-0.912-5.197 0.155-7.615 1.053-2.444 2.993-4.295 5.453-5.247 1.11-0.413 2.27-0.645 3.45-0.645 4.09 0 7.83 2.611 9.31 6.51 0.95 2.481 0.89 5.195-0.17 7.613-1.05 2.443-2.99 4.296-5.45 5.247-1.11 0.412-2.25 0.631-3.45 0.631z"/>
   <path id="Fill-15" sketch:type="MSShapeGroup" fill="#DC3E38" d="m104.5 22.04s2.1 1.118 4-0.386"/>
   <path id="Fill-16" sketch:type="MSShapeGroup" fill="#232535" d="m106.27 23.288c-1.2 0-2.12-0.474-2.17-0.502-0.4-0.231-0.55-0.746-0.35-1.132 0.22-0.423 0.7-0.589 1.15-0.348 0.05 0.029 1.63 0.823 3.1-0.307 0.36-0.282 0.89-0.231 1.16 0.153 0.29 0.349 0.24 0.875-0.13 1.157-0.94 0.746-1.93 0.979-2.76 0.979"/>
   <path id="Fill-17" sketch:type="MSShapeGroup" fill="#232535" d="m105.31 21.68c-1.15-5.98 0.83-13.171 6.56-17.054l0.1-0.077c1.02-0.695 2.43-0.424 3.13 0.591 0.69 1.016 0.43 2.418-0.61 3.125-0.07 0.051-0.19 0.104-0.27 0.154-4.43 2.137-6.97 7.539-6.7 12.927 0.07 0.631-0.4 1.171-1 1.223-0.57 0.062-1.08-0.363-1.21-0.889"/>
   <path id="Fill-18" sketch:type="MSShapeGroup" fill="#232535" d="m98.273 31.957c2.827 1.016 6.017 1.376 9.027 1.545 3.04 0.256 6.1-0.118 8.93-1.135 0.85-0.333 1.8 0.08 2.13 0.928 0.34 0.81-0.08 1.736-0.84 2.108-3.27 1.455-6.85 2.123-10.37 2.073-3.55-0.103-6.89-1.082-10.161-2.485-0.836-0.358-1.224-1.322-0.861-2.158 0.345-0.799 1.245-1.199 2.056-0.902l0.089 0.026"/>
   <path id="Fill-19" sketch:type="MSShapeGroup" fill="#fff" d="m53.734 48.665c-0.308 0-0.605-0.103-0.861-0.323-0.541-0.476-0.618-1.298-0.129-1.851 0.335-0.4 8.874-9.995 36.939-14.044 0.796-0.143 1.39 0.396 1.493 1.105 0.102 0.72-0.413 1.388-1.134 1.492-26.906 3.884-35.241 13.081-35.318 13.171-0.256 0.296-0.617 0.45-0.99 0.45"/>
   <path id="Fill-20" sketch:type="MSShapeGroup" fill="#232535" d="m43.175 50.195c14.507 8.876 32.231 13.004 49.428 11.602 0.475-0.04 0.912 0.309 0.952 0.796 0.036 0.464-0.311 0.887-0.772 0.952-17.609 1.906-35.77-1.646-51.384-10.572-0.797-0.451-1.066-1.467-0.617-2.252 0.451-0.783 1.467-1.066 2.251-0.617 0.012 0.014 0.012 0.014 0.039 0.026l0.103 0.065"/>
   <path id="Fill-21" sketch:type="MSShapeGroup" fill="#232535" d="m172.22 53.835c-0.13 3.139-2.28 3.897-3.62 4.63-1.5 0.656-3 0.965-4.48 1.183-2.94 0.425-5.83 0.438-8.71 0.361-0.7-0.012-1.26-0.605-1.25-1.325 0.01-0.682 0.6-1.234 1.3-1.249 2.76-0.051 5.54-0.179 8.18-0.681 1.31-0.246 2.6-0.591 3.65-1.117 1.11-0.387 1.8-1.544 1.66-1.392-0.11-0.898 0.53-1.723 1.43-1.84 0.9-0.113 1.72 0.53 1.84 1.43"/>
   <path id="Fill-22" sketch:type="MSShapeGroup" fill="#B89267" d="m123.92 104.57s-8.64 2.41-7.76 4.78c0.9 2.36 7.14 1.17 8.94 1.47 1.78 0.31 4.48-4.77-1.18-6.25"/>
   <path id="Fill-23" sketch:type="MSShapeGroup" fill="#232535" d="m117.43 109.06c0.09 0 0.6 0.48 3.3 0.48 0.67 0 1.33-0.03 1.93-0.04 1.15-0.05 2.08-0.06 2.68 0.03 0.11-0.08 0.69-0.79 0.66-1.61-0.02-1.08-1.08-1.66-2.08-1.98-3.15 0.92-6.17 2.38-6.51 3.12h0.02zm3.3 3.12c-2.29 0-4.99-0.28-5.79-2.37-0.26-0.63-0.2-1.3 0.13-1.93 1.21-2.39 6.81-4.1 8.49-4.58 0.23-0.05 0.46-0.05 0.7 0 4.5 1.18 4.47 4.3 4.34 5.22-0.24 1.97-1.77 3.63-3.34 3.63-0.08 0-0.31-0.01-0.39-0.03-0.43-0.05-1.23-0.01-2.11 0-0.64 0.03-1.33 0.06-2.03 0.06z"/>
   <path id="Fill-24" sketch:type="MSShapeGroup" fill="#B89267" d="m151.08 103.75s-5.9 1.63-5.3 3.25c0.62 1.61 4.87 0.8 6.1 1.01 1.21 0.21 3.06-3.25-0.8-4.26"/>
   <path id="Fill-25" sketch:type="MSShapeGroup" fill="#232535" d="m146.65 106.81c0.06 0 0.41 0.32 2.25 0.32 0.46 0 0.9-0.01 1.32-0.02 0.79-0.04 1.43-0.04 1.82 0.01 0.07-0.05 0.49-0.53 0.46-1.09-0.01-0.74-0.74-1.13-1.42-1.35-2.16 0.63-4.21 1.62-4.45 2.13h0.02zm2.25 2.13c-1.56 0-3.41-0.19-3.96-1.63-0.16-0.42-0.13-0.89 0.1-1.31 0.82-1.63 4.64-2.8 5.79-3.12 0.15-0.04 0.32-0.04 0.49 0 3.06 0.81 3.04 2.93 2.95 3.56-0.16 1.35-1.21 2.48-2.27 2.48-0.07 0-0.22-0.01-0.27-0.02-0.3-0.03-0.84 0-1.44 0-0.44 0.02-0.91 0.04-1.39 0.04z"/>
   <path id="Fill-26" sketch:type="MSShapeGroup" fill="#232535" d="m60.422 91.932c-0.643 0-1.195-0.463-1.298-1.121l-2.006-13.155c-0.118-0.71 0.384-1.39 1.106-1.493 0.718-0.205 1.387 0.374 1.491 1.105l2.008 13.159c0.113 0.706-0.387 1.388-1.109 1.493-0.062 0.012-0.127 0.012-0.192 0.012"/>
   <path id="Fill-27" sketch:type="MSShapeGroup" fill="#232535" d="m68.937 94.594l-1.53-13.222c-0.05-0.464 0.282-0.875 0.732-0.926 0.439-0.053 0.836 0.244 0.915 0.669l2.48 13.093c0.142 0.706-0.334 1.401-1.041 1.53-0.721 0.142-1.415-0.334-1.544-1.04 0-0.04-0.012-0.066-0.012-0.104"/>
   <path id="Fill-28" sketch:type="MSShapeGroup" fill="#232535" d="m80.049 96.381c-0.643 0-1.197-0.462-1.298-1.119l-2.007-13.158c-0.116-0.707 0.386-1.388 1.105-1.491 0.772-0.193 1.39 0.385 1.493 1.105l2.006 13.16c0.116 0.705-0.386 1.387-1.105 1.489-0.065 0.014-0.129 0.014-0.194 0.014"/>
   <path id="Fill-29" sketch:type="MSShapeGroup" fill="#232535" d="m88.563 97.501l-1.556-13.224c-0.051-0.462 0.282-0.899 0.747-0.951 0.461-0.05 0.861 0.259 0.951 0.696l2.457 13.091c0.142 0.71-0.333 1.402-1.042 1.531-0.719 0.143-1.415-0.334-1.543-1.054 0-0.025-0.014-0.052-0.014-0.089"/>
   <path id="Fill-30" sketch:type="MSShapeGroup" fill="#232535" d="m100.56 98.838c-0.639 0-1.205-0.463-1.295-1.12l-2.007-13.158c-0.116-0.707 0.374-1.388 1.093-1.491 0.771-0.179 1.39 0.386 1.506 1.105l2.003 13.159c0.12 0.707-0.37 1.389-1.09 1.493-0.08 0.012-0.14 0.012-0.21 0.012"/>
   <path id="Fill-31" sketch:type="MSShapeGroup" fill="#232535" d="m111.97 98.838l-1.71-13.195c-0.08-0.554 0.32-1.069 0.88-1.134 0.54-0.077 1.03 0.297 1.13 0.823l2.3 13.12c0.13 0.708-0.35 1.39-1.07 1.516-0.72 0.132-1.38-0.345-1.52-1.064-0.01-0.015-0.01-0.041-0.01-0.066"/>
  </g>
 </g>
</svg>
