<?xml version="1.0" encoding="UTF-8" standalone="no"?>
<svg xmlns:sketch="http://www.bohemiancoding.com/sketch/ns" xmlns="http://www.w3.org/2000/svg" height="148px" width="245px" version="1.1" xmlns:xlink="http://www.w3.org/1999/xlink" viewBox="0 0 245 148"><!-- Generator: Sketch 3.4 (15575) - http://www.bohemiancoding.com/sketch -->
 <title>6</title>
 <desc>Created with Sketch.</desc>
 <defs>
  <path id="path-1" d="m0 148h244.22v-147.39l-244.22 0.001"/>
 </defs>
 <g id="Page-1" fill-rule="evenodd" sketch:type="MSPage" fill="none">
  <g id="6" sketch:type="MSLayerGroup">
   <g id="Group-3">
    <mask id="mask-2" sketch:name="Clip 2" fill="white">
     <use xlink:href="#path-1"/>
    </mask>
    <path id="Fill-1" sketch:type="MSShapeGroup" fill="#FBF9D6" mask="url(#mask-2)" d="m218.81 119.43c0.19 0 0.17 0.02 0 0m-2.66-1.2c0.26 0.17 0.52 0.3 0.75 0.47-0.23-0.13-0.48-0.28-0.75-0.47m19.36-33.825c-18.61-13.036-45.83 2.987-65.39 14.229 1.26-2.147 2.5-4.304 3.68-6.499 9.83-18.304 7.32-41.293-17.5-43.058-26.62-1.871-53.07 25.775-69.544 42.39-3.741 3.779-12.005 12.553-19.239 14.403 1.518-2.45 3.474-4.83 4.924-6.883 11.643-16.472 28.069-29.46 41.129-44.776 14.57-17.063 15.93-39.012-8.64-47.926-12.61-4.57-34.216 5.727-45.162 10.832-17.654 8.236-33.715 19.105-50.454 29.002-21.605 12.787-1.708 46.284 19.955 33.476 6.012-3.56 11.947-7.243 17.893-10.879-1.165 1.393-2.338 2.777-3.474 4.209-11.919 15.068-22.712 33.375-14.171 52.665 9.361 21.18 37.504 23 55.865 14.43 12.835-6.01 22.818-15.97 32.888-25.71-3.29 14.43 1.98 27.77 19.7 32.6 14.07 3.86 29.15-3.34 41.56-8.98 8.35-3.77 16.16-8.71 24.27-12.89 3.3-1.76 6.7-3.21 10.25-4.4 2.05-0.77 3.37-1.06 4.11-1.15 19.82 10.96 37.08-21.276 17.35-35.085"/>
   </g>
   <path id="Fill-4" sketch:type="MSShapeGroup" fill="#B89267" d="m31.265 127.53c-0.125 3.74 1.093 6.64 4.852 6.76 2.501 0.08 3.887-1.37 4.91-4.17l139.87 12.23c8.11 0.89 14.58-5.15 14.84-13.25v-5.15c-0.26-8.1-6.73-14.14-14.84-13.25l-139.87 12.22c-1.026-2.8-2.412-4.25-4.913-4.16-3.759 0.12-4.977 3.02-4.852 6.76v2.01"/>
   <path id="Fill-5" sketch:type="MSShapeGroup" fill="#232535" d="m41.027 128.4l0.151 0.01 139.87 12.23c0.51 0.06 0.97 0.08 1.43 0.08 6.36 0 11.33-5.03 11.54-11.68v-5.09c-0.23-7.08-5.98-12.39-12.92-11.53l-139.92 12.21c-0.79 0.1-1.503-0.39-1.764-1.13-1.033-2.8-2.089-3.03-3.097-3.03-1.713 0.05-2.317 0.73-2.626 1.22-0.523 0.83-0.764 2.13-0.707 3.77v2.07c-0.057 1.69 0.184 3 0.707 3.82 0.309 0.5 0.913 1.17 2.484 1.22h0.016c1.141 0 2.198-0.24 3.223-3.04 0.244-0.69 0.899-1.13 1.611-1.13m141.45 15.76c-0.58 0-1.17-0.04-1.76-0.1l-138.58-12.12c-0.945 2.01-2.572 4.07-5.821 4.07-3.215-0.1-4.768-1.59-5.541-2.83-0.898-1.42-1.307-3.35-1.234-5.71v-1.95c-0.073-2.31 0.336-4.23 1.234-5.66 0.773-1.23 2.326-2.73 5.28-2.83h0.01c3.458 0 5.119 2.07 6.069 4.07l138.61-12.11c0.56-0.06 1.16-0.09 1.74-0.09 8.25 0 14.69 6.45 14.97 14.99v5.21c-0.28 8.61-6.72 15.06-14.98 15.06"/>
   <path id="Fill-6" sketch:type="MSShapeGroup" fill="#8E7559" d="m34.539 131.24c-0.419 0-0.781-0.29-0.846-0.72-0.12-0.74-0.168-1.58-0.136-2.52v-1.98c-0.051-1.26 0.067-2.43 0.334-3.42 0.118-0.4 0.497-0.62 0.88-0.62 0.06 0 0.12 0 0.179 0.01 0.463 0.13 0.73 0.61 0.605 1.06-0.227 0.82-0.319 1.81-0.287 2.94v2.04c-0.025 0.85 0.018 1.59 0.119 2.22 0.075 0.47-0.244 0.91-0.713 0.99h-0.135"/>
   <path id="Fill-7" sketch:type="MSShapeGroup" fill="#fff" d="m180.16 139.75c-0.56 0-1.13-0.03-1.7-0.09l-83.074-7.43c-0.596-0.05-1.032-0.57-0.973-1.16 0.041-0.56 0.511-0.98 1.066-0.98l0.094 0.01 83.097 7.42c5.12 0.54 9.79-1.86 12.16-6.35 0.27-0.51 0.93-0.73 1.45-0.45s0.72 0.93 0.44 1.46c-2.52 4.77-7.23 7.57-12.56 7.57"/>
   <path id="Fill-8" sketch:type="MSShapeGroup" fill="#232535" d="m169.43 127.17c-0.03-1.93-0.25-3.86 0.16-6.06 0.37-2.08 1.18-4.08 2.38-5.87 2.36-3.6 6.56-6 10.94-6.32 0.94-0.08 1.78 0.62 1.86 1.58 0.08 0.93-0.63 1.76-1.57 1.85l-0.12 0.01c-3.39 0.05-6.78 1.66-8.88 4.48-1.07 1.38-1.86 3.01-2.28 4.75-0.44 1.63-0.38 3.63-0.46 5.58-0.01 0.57-0.47 1.01-1.03 1-0.55-0.01-0.98-0.46-1-1"/>
   <path id="Fill-9" sketch:type="MSShapeGroup" fill="#232535" d="m91.753 134.86c-0.596 0-1.076-0.48-1.076-1.07v-14.51c0-0.59 0.48-1.07 1.076-1.07 0.595 0 1.073 0.48 1.073 1.07v14.51c0 0.59-0.478 1.07-1.073 1.07"/>
   <path id="Fill-10" sketch:type="MSShapeGroup" fill="#232535" d="m86.783 134.86c-0.596 0-1.074-0.48-1.074-1.07v-14.51c0-0.59 0.478-1.07 1.074-1.07s1.074 0.48 1.074 1.07v14.51c0 0.59-0.478 1.07-1.074 1.07"/>
   <path id="Fill-11" sketch:type="MSShapeGroup" fill="#232535" d="m81.814 134.86c-0.597 0-1.074-0.48-1.074-1.07v-14.51c0-0.59 0.477-1.07 1.074-1.07 0.596 0 1.075 0.48 1.075 1.07v14.51c0 0.59-0.479 1.07-1.075 1.07"/>
   <path id="Fill-12" sketch:type="MSShapeGroup" fill="#232535" d="m76.844 134.86c-0.596 0-1.073-0.48-1.073-1.07v-13.47c0-0.6 0.477-1.08 1.073-1.08s1.075 0.48 1.075 1.08v13.47c0 0.59-0.479 1.07-1.075 1.07"/>
   <path id="Fill-13" sketch:type="MSShapeGroup" fill="#232535" d="m71.875 133.61c-0.595 0-1.074-0.48-1.074-1.07v-11.82c0-0.6 0.479-1.08 1.074-1.08 0.596 0 1.075 0.48 1.075 1.08v11.82c0 0.59-0.479 1.07-1.075 1.07"/>
   <path id="Fill-14" sketch:type="MSShapeGroup" fill="#232535" d="m66.906 133.21c-0.596 0-1.075-0.48-1.075-1.07v-11.15c0-0.6 0.479-1.08 1.075-1.08 0.597 0 1.075 0.48 1.075 1.08v11.15c0 0.59-0.478 1.07-1.075 1.07"/>
   <path id="Fill-15" sketch:type="MSShapeGroup" fill="#232535" d="m61.938 133.07c-0.596 0-1.076-0.47-1.076-1.07v-10.21c0-0.59 0.48-1.07 1.076-1.07 0.595 0 1.073 0.48 1.073 1.07v10.21c0 0.6-0.478 1.07-1.073 1.07"/>
   <path id="Fill-16" sketch:type="MSShapeGroup" fill="#232535" d="m56.968 132.4c-0.596 0-1.074-0.48-1.074-1.07v-9c0-0.6 0.478-1.07 1.074-1.07s1.074 0.47 1.074 1.07v9c0 0.59-0.478 1.07-1.074 1.07"/>
   <path id="Fill-17" sketch:type="MSShapeGroup" fill="#232535" d="m51.998 131.73c-0.596 0-1.073-0.48-1.073-1.07v-7.66c0-0.6 0.477-1.07 1.073-1.07 0.597 0 1.075 0.47 1.075 1.07v7.66c0 0.59-0.478 1.07-1.075 1.07"/>
   <path id="Fill-18" sketch:type="MSShapeGroup" fill="#232535" d="m47.029 131.46c-0.596 0-1.073-0.48-1.073-1.07v-7.39c0-0.6 0.477-1.07 1.073-1.07s1.074 0.47 1.074 1.07v7.39c0 0.59-0.478 1.07-1.074 1.07"/>
   <path id="Fill-19" sketch:type="MSShapeGroup" fill="#B89267" d="m40.18 122.33v8.42"/>
   <path id="Fill-20" sketch:type="MSShapeGroup" fill="#232535" d="m40.18 131.82c-0.596 0-1.075-0.48-1.075-1.07v-8.42c0-0.6 0.479-1.07 1.075-1.07s1.073 0.47 1.073 1.07v8.42c0 0.59-0.477 1.07-1.073 1.07"/>
   <path id="Fill-21" sketch:type="MSShapeGroup" fill="#B89267" d="m196.61 14.594v-7.243c0-2.518-2.39-5.02-5.12-5.02-1.55 0-2.88 0.696-3.79 1.728-0.9-1.032-2.24-1.728-3.78-1.728-1.55 0-2.87 0.696-3.79 1.728-0.91-1.032-2.23-1.728-3.77-1.728-1.55 0-2.89 0.696-3.79 1.728-0.91-1.032-2.24-1.728-3.79-1.728-2.73 0-4.4 2.047-4.4 4.566v24.888c0 0.301-0.06 0.571 0 0.856-0.7 3.677-2.97 7.118-7.34 7.118-6.8 0-8.96-6.446-8.96-10.928v-18.416l-0.13-0.01v-1.612c0-2.333-1.81-4.171-4.03-4.23-3.36-0.092-8.73 5.281-8.56 13.523 0.14 6.446-0.7 16.479 0 30.798 0.57 11.449 16.48 17.542 18.27 19.338h26.15s6.89-2.55 11.95-8.594c5.21-6.219 4.88-11.013 4.88-45.034"/>
   <path id="Fill-22" sketch:type="MSShapeGroup" fill="#232535" d="m135.91 57.093c-0.37 0-0.72-0.184-0.92-0.529-0.3-0.512-0.13-1.167 0.37-1.47l2.89-1.711c0.51-0.302 1.16-0.144 1.47 0.376 0.31 0.514 0.14 1.168-0.37 1.47l-2.89 1.711c-0.17 0.102-0.36 0.153-0.55 0.153"/>
   <path id="Fill-23" sketch:type="MSShapeGroup" fill="#232535" d="m139.04 61.121c-0.27 0-0.56-0.108-0.77-0.327-0.41-0.42-0.4-1.108 0.03-1.52l2.41-2.341c0.41-0.419 1.09-0.412 1.51 0.025 0.42 0.419 0.41 1.108-0.02 1.52l-2.41 2.342c-0.21 0.201-0.48 0.301-0.75 0.301"/>
   <path id="Fill-24" sketch:type="MSShapeGroup" fill="#232535" d="m142.78 64.396c-0.23 0-0.45-0.068-0.65-0.221-0.48-0.349-0.57-1.03-0.21-1.501l2.02-2.677c0.36-0.47 1.05-0.571 1.51-0.211 0.48 0.354 0.57 1.034 0.21 1.503l-2.02 2.678c-0.22 0.277-0.53 0.429-0.86 0.429"/>
   <path id="Fill-25" sketch:type="MSShapeGroup" fill="#232535" d="m146.82 67.131c-0.2 0-0.39-0.05-0.57-0.159-0.5-0.311-0.66-0.973-0.35-1.477l1.76-2.855c0.31-0.503 0.98-0.653 1.47-0.353 0.51 0.312 0.67 0.976 0.35 1.478l-1.75 2.855c-0.2 0.326-0.55 0.511-0.91 0.511"/>
   <path id="Fill-26" sketch:type="MSShapeGroup" fill="#232535" d="m150.93 69.532c-0.19 0-0.37-0.051-0.54-0.142-0.51-0.302-0.69-0.958-0.39-1.469l1.68-2.906c0.3-0.52 0.96-0.678 1.46-0.394 0.52 0.303 0.69 0.958 0.4 1.47l-1.68 2.904c-0.2 0.345-0.56 0.537-0.93 0.537"/>
   <path id="Fill-27" sketch:type="MSShapeGroup" fill="#232535" d="m156.12 70.976c-0.59 0-1.07-0.478-1.07-1.074v-3.358c0-0.596 0.48-1.074 1.07-1.074 0.6 0 1.08 0.478 1.08 1.074v3.358c0 0.596-0.48 1.074-1.08 1.074"/>
   <path id="Fill-28" sketch:type="MSShapeGroup" fill="#232535" d="m160.84 70.976c-0.59 0-1.07-0.478-1.07-1.074v-3.358c0-0.596 0.48-1.074 1.07-1.074 0.6 0 1.08 0.478 1.08 1.074v3.358c0 0.596-0.48 1.074-1.08 1.074"/>
   <path id="Fill-29" sketch:type="MSShapeGroup" fill="#232535" d="m165.56 70.976c-0.6 0-1.08-0.478-1.08-1.074v-3.358c0-0.596 0.48-1.074 1.08-1.074s1.07 0.478 1.07 1.074v3.358c0 0.596-0.47 1.074-1.07 1.074"/>
   <path id="Fill-30" sketch:type="MSShapeGroup" fill="#232535" d="m170.28 70.976c-0.6 0-1.08-0.478-1.08-1.074v-3.358c0-0.596 0.48-1.074 1.08-1.074 0.59 0 1.07 0.478 1.07 1.074v3.358c0 0.596-0.48 1.074-1.07 1.074"/>
   <path id="Fill-31" sketch:type="MSShapeGroup" fill="#232535" d="m174.99 70.976c-0.59 0-1.07-0.478-1.07-1.074v-3.358c0-0.596 0.48-1.074 1.07-1.074 0.6 0 1.08 0.478 1.08 1.074v3.358c0 0.596-0.48 1.074-1.08 1.074"/>
   <path id="Fill-32" sketch:type="MSShapeGroup" fill="#232535" d="m180.01 70.968c-0.52 0-0.97-0.369-1.06-0.891l-0.58-3.348c-0.1-0.588 0.29-1.141 0.87-1.243 0.63-0.084 1.14 0.294 1.24 0.874l0.58 3.349c0.1 0.587-0.29 1.142-0.87 1.241l-0.18 0.018"/>
   <path id="Fill-33" sketch:type="MSShapeGroup" fill="#232535" d="m184.8 68.659c-0.36 0-0.72-0.186-0.92-0.521l-1.72-2.887c-0.31-0.51-0.14-1.174 0.36-1.477 0.52-0.303 1.17-0.142 1.48 0.37l1.72 2.888c0.3 0.51 0.14 1.174-0.37 1.475-0.17 0.102-0.37 0.152-0.55 0.152"/>
   <path id="Fill-34" sketch:type="MSShapeGroup" fill="#232535" d="m188.86 65.831c-0.31 0-0.62-0.135-0.84-0.402l-2.11-2.611c-0.36-0.462-0.29-1.135 0.17-1.513 0.45-0.376 1.13-0.31 1.51 0.169l2.11 2.61c0.37 0.463 0.29 1.134-0.17 1.511-0.19 0.16-0.43 0.236-0.67 0.236"/>
   <path id="Fill-35" sketch:type="MSShapeGroup" fill="#232535" d="m192.48 62.389c-0.25 0-0.51-0.092-0.72-0.268l-2.5-2.225c-0.45-0.395-0.49-1.075-0.1-1.52 0.41-0.437 1.08-0.478 1.52-0.091l2.51 2.224c0.45 0.394 0.49 1.074 0.09 1.519-0.2 0.236-0.51 0.361-0.8 0.361"/>
   <path id="Fill-36" sketch:type="MSShapeGroup" fill="#232535" d="m195.44 58.224c-0.17 0-0.34-0.041-0.5-0.126l-2.97-1.559c-0.52-0.278-0.73-0.924-0.45-1.453 0.28-0.521 0.93-0.721 1.46-0.444l2.97 1.56c0.52 0.277 0.72 0.924 0.44 1.453-0.19 0.361-0.56 0.569-0.95 0.569"/>
   <path id="Fill-37" sketch:type="MSShapeGroup" fill="#B89267" d="m164.38 14.888v-8.621c-3.05-3.046-12-3.216-16.3 1.075v8.654c2.82-1.476 8.15-2.981 16.3-1.108"/>
   <path id="Fill-38" sketch:type="MSShapeGroup" fill="#B89267" d="m158.6 23.743c-1.93 0.049-3.73 0.151-5.36 0.311 0.02 1.965 0.09 4.028 0.21 6.145 1.64-0.144 3.43-0.244 5.35-0.286-0.12-2.133-0.17-4.206-0.2-6.17"/>
   <path id="Fill-39" sketch:type="MSShapeGroup" fill="#B89267" d="m158.79 14.064c-2.09-0.125-3.82 0.045-5.39 0.296-0.07 1.368-0.13 3.12-0.16 5.111 1.64-0.152 3.45-0.253 5.38-0.294 0.03-2.005 0.1-3.768 0.17-5.113"/>
   <path id="Fill-40" sketch:type="MSShapeGroup" fill="#B89267" d="m159.15 34.471c-1.93 0.033-3.71 0.135-5.34 0.276 0.15 1.555 0.33 3.098 0.57 4.592 0.8 0.253 1.67 0.42 2.66 0.42 1.04 0 1.9-0.25 2.68-0.596-0.25-1.535-0.42-3.112-0.57-4.692"/>
   <path id="Fill-41" sketch:type="MSShapeGroup" fill="#B89267" d="m158.8 29.913c-1.92 0.042-3.71 0.142-5.35 0.286-2 0.175-3.75 0.394-5.16 0.612 0.21 1.494 0.61 3.013 1.36 4.407 1.2-0.177 2.62-0.327 4.16-0.471 1.63-0.141 3.41-0.243 5.34-0.276 1.39-0.024 2.84-0.008 4.34 0.06 0.5-1.453 0.72-3.007 0.8-4.518-1.91-0.117-3.73-0.126-5.49-0.1"/>
   <path id="Fill-42" sketch:type="MSShapeGroup" fill="#B89267" d="m158.62 19.177c-1.93 0.041-3.74 0.142-5.38 0.294-2.03 0.183-3.76 0.41-5.16 0.637v4.61c1.38-0.227 3.1-0.464 5.16-0.664 1.63-0.16 3.43-0.262 5.36-0.311 1.85-0.05 3.76-0.042 5.78 0.076v-4.541c-2.01-0.134-3.92-0.134-5.76-0.101"/>
   <path id="Fill-43" sketch:type="MSShapeGroup" fill="#232535" d="m171.85 39.885l-0.45-35.724c0-0.596 0.47-1.084 1.06-1.091 0.6 0 1.08 0.469 1.09 1.065v0.026l-0.44 35.724c0 0.344-0.29 0.631-0.64 0.621-0.35 0-0.61-0.277-0.62-0.621"/>
   <path id="Fill-44" sketch:type="MSShapeGroup" fill="#232535" d="m181.79 4.161l-0.36 35.724c0 0.403-0.33 0.723-0.73 0.713-0.39 0-0.71-0.318-0.71-0.713l-0.35-35.724c-0.01-0.596 0.47-1.084 1.06-1.084 0.59-0.007 1.08 0.472 1.09 1.058v0.026"/>
   <path id="Fill-45" sketch:type="MSShapeGroup" fill="#232535" d="m189.49 4.161l-0.4 35.724c0 0.369-0.31 0.672-0.68 0.664-0.36 0-0.67-0.304-0.67-0.664l-0.4-35.724c-0.01-0.596 0.47-1.084 1.07-1.084 0.59-0.007 1.07 0.462 1.08 1.058v0.026"/>
   <path id="Fill-46" sketch:type="MSShapeGroup" fill="#fff" d="m146.96 59.232c-0.15 0-0.3-0.032-0.44-0.117-5.43-3.232-8.29-8.931-8.29-16.494v-24.898c0-0.476 0.38-0.854 0.85-0.854 0.48 0 0.86 0.378 0.86 0.854v24.898c0 4.827 1.3 11.348 7.46 15.017 0.41 0.244 0.54 0.772 0.3 1.175-0.16 0.277-0.45 0.419-0.74 0.419"/>
   <path id="Fill-47" sketch:type="MSShapeGroup" fill="#232535" d="m184.48 54.264c-0.22 0-0.45-0.068-0.64-0.211-11.59-8.518-30.04-3.458-30.22-3.407-0.62 0.142-1.17-0.176-1.33-0.739-0.16-0.571 0.17-1.168 0.74-1.327 0.8-0.235 19.64-5.405 32.09 3.746 0.48 0.351 0.58 1.023 0.22 1.501-0.21 0.286-0.53 0.437-0.86 0.437"/>
   <path id="Fill-48" sketch:type="MSShapeGroup" fill="#232535" d="m151.48 8.777c-0.38 0-0.73-0.252-0.83-0.637l-1.21-4.701c-0.11-0.464 0.16-0.932 0.62-1.05 0.47-0.135 0.93 0.16 1.05 0.613l1.21 4.7c0.11 0.463-0.17 0.931-0.62 1.049l-0.22 0.026"/>
   <path id="Fill-49" sketch:type="MSShapeGroup" fill="#232535" d="m155.98 7.233c-0.41 0-0.77-0.286-0.84-0.704l-0.88-4.769c-0.08-0.461 0.23-0.916 0.7-1 0.48-0.057 0.91 0.228 1 0.698l0.87 4.767c0.08 0.463-0.23 0.915-0.69 0.999l-0.16 0.009"/>
   <path id="Fill-50" sketch:type="MSShapeGroup" fill="#232535" d="m160.08 7.536h-0.06c-0.48-0.035-0.83-0.445-0.8-0.917l0.34-4.834c0.03-0.453 0.41-0.797 0.85-0.797h0.06c0.48 0.033 0.83 0.444 0.8 0.915l-0.34 4.833c-0.03 0.454-0.41 0.8-0.85 0.8"/>
   <path id="Fill-51" sketch:type="MSShapeGroup" fill="#232535" d="m174.58 12.378c-0.17 0-0.35-0.051-0.5-0.159l-4.03-2.905c-0.39-0.278-0.47-0.814-0.19-1.201 0.27-0.385 0.82-0.461 1.2-0.193l4.03 2.905c0.38 0.278 0.47 0.814 0.19 1.202-0.17 0.234-0.43 0.351-0.7 0.351"/>
   <path id="Fill-52" sketch:type="MSShapeGroup" fill="#232535" d="m170.55 12.378c-0.26 0-0.53-0.117-0.69-0.351-0.28-0.388-0.2-0.924 0.19-1.202l4.03-2.905c0.39-0.268 0.92-0.192 1.2 0.193 0.28 0.387 0.19 0.923-0.19 1.201l-4.03 2.905c-0.15 0.108-0.33 0.159-0.51 0.159"/>
   <path id="Fill-53" sketch:type="MSShapeGroup" fill="#232535" d="m182.78 12.378c-0.18 0-0.36-0.051-0.51-0.159l-4.03-2.905c-0.38-0.278-0.47-0.814-0.19-1.201 0.28-0.385 0.81-0.461 1.2-0.193l4.03 2.905c0.38 0.278 0.47 0.814 0.19 1.202-0.17 0.234-0.43 0.351-0.69 0.351"/>
   <path id="Fill-54" sketch:type="MSShapeGroup" fill="#232535" d="m178.75 12.378c-0.27 0-0.53-0.117-0.7-0.351-0.28-0.388-0.19-0.924 0.19-1.202l4.03-2.905c0.38-0.268 0.93-0.192 1.2 0.193 0.28 0.387 0.19 0.923-0.19 1.201l-4.03 2.905c-0.15 0.108-0.33 0.159-0.5 0.159"/>
   <path id="Fill-55" sketch:type="MSShapeGroup" fill="#232535" d="m190.16 12.378c-0.17 0-0.35-0.051-0.5-0.159l-4.03-2.905c-0.39-0.278-0.47-0.814-0.19-1.201 0.27-0.385 0.81-0.461 1.2-0.193l4.03 2.905c0.38 0.278 0.47 0.814 0.19 1.202-0.17 0.234-0.43 0.351-0.7 0.351"/>
   <g id="Group-59" sketch:type="MSShapeGroup" fill="#232535">
    <path id="Fill-56" d="m186.13 12.378c-0.26 0-0.53-0.117-0.69-0.351-0.28-0.388-0.2-0.924 0.19-1.202l4.03-2.905c0.39-0.268 0.92-0.192 1.2 0.193 0.28 0.387 0.19 0.923-0.19 1.201l-4.03 2.905c-0.15 0.108-0.33 0.159-0.51 0.159"/>
    <path id="Fill-58" d="m154.28 66.502h25.21c1.27-0.529 6.82-3.031 10.97-7.974 4.49-5.373 4.49-9.737 4.47-38.117l0.01-5.817-0.01-0.176v-7.067c0-1.487-1.57-3.3-3.4-3.3-0.96 0-1.85 0.403-2.49 1.143-0.66 0.738-1.93 0.738-2.59 0-1.29-1.478-3.67-1.486-4.99 0.007-0.33 0.369-0.79 0.579-1.29 0.579-0.49 0-0.96-0.217-1.29-0.586-1.29-1.478-3.68-1.478-4.98 0-0.65 0.738-1.93 0.738-2.58 0-0.65-0.74-1.54-1.143-2.49-1.143-1.99 0-2.69 1.535-2.69 2.846v24.888l-0.03 0.578c0.05 0.219 0.04 0.379 0 0.597-0.99 5.255-4.45 8.52-9.03 8.52-7.33 0-10.68-6.555-10.68-12.649v-17.662c-0.09-0.236-0.13-0.494-0.13-0.764v-1.612c0-1.376-1.03-2.474-2.35-2.509h-0.01c-0.71 0-1.9 0.471-3.2 1.805-2.33 2.367-3.67 6.093-3.58 9.963 0.04 2.259-0.03 4.945-0.11 8.099-0.16 5.953-0.35 13.358 0.11 22.649 0.39 8.109 9.69 13.387 14.68 16.225 1.17 0.663 1.93 1.1 2.47 1.477zm25.54 3.441h-26.15c-0.45 0-0.89-0.186-1.21-0.511-0.26-0.226-1.36-0.857-2.35-1.419-5.17-2.938-15.93-9.048-16.42-19.046-0.46-9.417-0.26-16.897-0.1-22.907 0.07-3.088 0.15-5.726 0.1-7.941-0.1-4.842 1.56-9.375 4.56-12.438 1.76-1.807 3.82-2.839 5.63-2.839 3.32 0.085 5.83 2.702 5.83 5.951v0.866c0.09 0.226 0.14 0.478 0.14 0.756v18.416c0 0.94 0.2 9.208 7.23 9.208 3.93 0 5.21-3.644 5.6-5.473-0.02-0.235 0-0.437 0.01-0.596l0.01-25.073c0-3.644 2.58-6.286 6.13-6.286 1.35 0 2.67 0.42 3.78 1.174 2.22-1.503 5.35-1.519 7.56 0 2.21-1.519 5.35-1.519 7.57 0 1.11-0.754 2.43-1.174 3.79-1.174 3.58 0 6.84 3.215 6.84 6.74v7.025c0.01 0.144 0 0.277-0.01 0.395l0.01 5.632c0.02 29.471 0.03 34.003-5.28 40.334-5.29 6.32-12.37 8.989-12.67 9.097-0.2 0.068-0.4 0.109-0.6 0.109z"/>
   </g>
   <path id="Fill-60" sketch:type="MSShapeGroup" fill="#232535" d="m149.85 8.105v5.306c2.91-0.982 7.63-1.528 12.85-0.622v-5.716c-1.19-0.806-3.2-1.309-5.38-1.309-2.95 0-5.68 0.863-7.47 2.341zm-1.73 9.611c-0.3 0-0.62-0.083-0.88-0.251-0.52-0.312-0.84-0.865-0.84-1.469v-8.654c0-0.453 0.19-0.898 0.51-1.217 2.42-2.417 6.22-3.803 10.41-3.803 3.5 0 6.6 1.025 8.32 2.729 0.31 0.327 0.5 0.763 0.5 1.216v8.621c0 0.521-0.24 1.016-0.65 1.342-0.41 0.319-0.94 0.445-1.46 0.337-2.39-0.555-4.69-0.831-6.83-0.831-4.02 0-6.72 0.965-8.28 1.779-0.25 0.135-0.52 0.201-0.8 0.201z"/>
   <path id="Fill-61" sketch:type="MSShapeGroup" fill="#232535" d="m149.2 7.804v6.53c1.88-0.739 4.52-1.395 8-1.395 1.95 0 4.01 0.211 6.14 0.622v-6.816c-1.26-1.015-3.51-1.628-6.02-1.628-3.22 0-6.22 1-8.12 2.687zm-1.08 9.266c-0.19 0-0.38-0.051-0.55-0.152-0.33-0.202-0.52-0.543-0.52-0.922v-8.654c0-0.286 0.12-0.563 0.32-0.764 2.27-2.258 5.99-3.61 9.95-3.61 3.33 0 6.27 0.95 7.86 2.535 0.2 0.201 0.31 0.479 0.31 0.764v8.621c0 0.326-0.15 0.638-0.4 0.84-0.26 0.201-0.59 0.268-0.91 0.21-2.45-0.563-4.79-0.847-6.98-0.847-4.16 0-6.96 1.006-8.58 1.854-0.15 0.083-0.33 0.125-0.5 0.125z"/>
   <path id="Fill-62" sketch:type="MSShapeGroup" fill="#232535" d="m154.37 25.035c0.03 1.303 0.07 2.636 0.13 4.004 1.03-0.074 2.1-0.132 3.22-0.166-0.07-1.377-0.11-2.722-0.14-4.022-1.14 0.043-2.21 0.101-3.21 0.184zm-0.88 6.238c-0.26 0-0.51-0.093-0.71-0.26-0.21-0.193-0.35-0.461-0.36-0.757-0.12-2.132-0.19-4.214-0.22-6.186 0-0.562 0.42-1.031 0.98-1.083 1.59-0.158 3.42-0.268 5.44-0.319h0.02c0.28 0 0.55 0.11 0.75 0.304 0.2 0.192 0.33 0.469 0.33 0.755 0.02 1.955 0.08 4.012 0.2 6.127 0.02 0.294-0.09 0.581-0.29 0.789-0.2 0.209-0.47 0.335-0.76 0.343-1.9 0.045-3.66 0.144-5.29 0.287h-0.09z"/>
   <path id="Fill-63" sketch:type="MSShapeGroup" fill="#232535" d="m154.47 15.291c-0.03 0.889-0.07 1.905-0.09 3.012 1.03-0.074 2.12-0.134 3.22-0.176 0.04-1.108 0.07-2.131 0.1-3.03-0.96 0-2.09 0.042-3.23 0.194zm-1.19 5.254c-0.27 0-0.53-0.1-0.73-0.284-0.23-0.211-0.35-0.505-0.35-0.806 0.04-2.006 0.1-3.769 0.16-5.146 0.03-0.512 0.41-0.933 0.91-1.007 2.02-0.337 3.66-0.42 5.63-0.311 0.58 0.034 1.03 0.538 1 1.125-0.07 1.335-0.13 3.09-0.16 5.077-0.01 0.58-0.48 1.041-1.06 1.057-1.87 0.043-3.66 0.136-5.3 0.288l-0.1 0.007z"/>
   <path id="Fill-64" sketch:type="MSShapeGroup" fill="#232535" d="m155.38 38.491c1.07 0.235 2.14 0.295 3.19-0.024-0.14-0.958-0.25-1.923-0.35-2.897-1.07 0.034-2.14 0.085-3.19 0.16 0.11 0.932 0.21 1.855 0.35 2.761zm1.7 2.341c-1 0-1.97-0.15-2.98-0.469-0.39-0.118-0.68-0.453-0.74-0.854-0.24-1.52-0.42-3.082-0.58-4.66-0.03-0.284 0.06-0.571 0.25-0.79 0.17-0.217 0.44-0.361 0.73-0.386 1.77-0.149 3.59-0.243 5.41-0.277h0.02c0.55 0 1.01 0.42 1.07 0.975 0.15 1.551 0.32 3.113 0.56 4.624 0.08 0.48-0.18 0.958-0.62 1.149-1.07 0.47-2.06 0.688-3.12 0.688z"/>
   <path id="Fill-65" sketch:type="MSShapeGroup" fill="#232535" d="m149.2 16.667v2.191c0.96-0.135 1.97-0.261 3.02-0.36 0.03-1.025 0.05-1.973 0.08-2.831-1.16 0.271-2.22 0.606-3.1 1zm-1.08 4.514c-0.25 0-0.5-0.091-0.69-0.258-0.25-0.201-0.38-0.494-0.38-0.815v-4.112c0-0.404 0.22-0.763 0.57-0.949 1.46-0.772 3.47-1.394 5.64-1.745 0.32-0.051 0.66 0.042 0.89 0.252 0.25 0.217 0.38 0.537 0.36 0.856-0.07 1.36-0.12 3.105-0.16 5.078 0 0.554-0.42 1.005-0.97 1.05-1.82 0.168-3.52 0.376-5.09 0.627l-0.17 0.016z"/>
   <path id="Fill-66" sketch:type="MSShapeGroup" fill="#232535" d="m149.2 25.632v3.199c0 0.243 0.02 0.503 0.05 0.762 0.93-0.134 1.97-0.259 3.11-0.367-0.06-1.353-0.1-2.688-0.14-3.98-1.12 0.126-2.13 0.261-3.02 0.386zm-0.86 6.253c-0.23 0-0.46-0.075-0.64-0.208-0.24-0.178-0.39-0.437-0.43-0.723l-0.05-0.345c-0.08-0.604-0.17-1.217-0.17-1.778v-4.113c0-0.53 0.38-0.975 0.9-1.06 1.39-0.234 3.14-0.468 5.23-0.671 0.3-0.065 0.6 0.068 0.81 0.27 0.23 0.2 0.36 0.486 0.36 0.781 0.03 1.955 0.09 4.003 0.21 6.101 0.04 0.58-0.4 1.074-0.98 1.134-1.97 0.168-3.69 0.385-5.08 0.596l-0.16 0.016z"/>
   <path id="Fill-67" sketch:type="MSShapeGroup" fill="#232535" d="m154.42 40.414c-0.11 0-0.22-0.016-0.32-0.051-2.28-0.705-4.08-2.266-5.35-4.641-0.17-0.302-0.17-0.671-0.01-0.991 0.15-0.311 0.45-0.528 0.8-0.58 1.21-0.175 2.66-0.327 4.21-0.469 0.54-0.193 1.11 0.369 1.17 0.965 0.15 1.528 0.33 3.055 0.56 4.524 0.06 0.369-0.08 0.739-0.35 0.983-0.2 0.168-0.46 0.26-0.71 0.26"/>
   <path id="Fill-68" sketch:type="MSShapeGroup" fill="#232535" d="m149.58 31.719c0.17 0.847 0.42 1.619 0.74 2.332 1.03-0.135 2.2-0.26 3.43-0.369 1.78-0.158 3.6-0.252 5.42-0.286l1.25-0.009c0.76 0 1.54 0.009 2.33 0.035 0.19-0.721 0.33-1.521 0.43-2.391-0.96-0.045-1.9-0.053-2.82-0.053l-1.5 0.008c-1.89 0.045-3.65 0.144-5.28 0.287-1.48 0.127-2.84 0.285-4 0.446zm0.12 4.573c-0.39 0-0.76-0.21-0.95-0.562-0.74-1.359-1.24-2.971-1.48-4.776-0.08-0.58 0.33-1.115 0.9-1.2 1.43-0.227 3.2-0.445 5.23-0.63 1.66-0.142 3.47-0.244 5.42-0.285l1.54-0.008c1.3 0 2.65 0.026 4.04 0.109 0.59 0.042 1.04 0.545 1.01 1.132-0.1 1.856-0.39 3.433-0.87 4.812-0.15 0.434-0.56 0.72-1.01 0.72h-0.05c-1.04-0.051-2.07-0.067-3.06-0.067l-1.21 0.009c-1.77 0.032-3.54 0.125-5.27 0.276-1.51 0.134-2.9 0.286-4.08 0.462l-0.16 0.008z"/>
   <path id="Fill-69" sketch:type="MSShapeGroup" fill="#232535" d="m159.76 40.238c-0.18 0-0.35-0.043-0.51-0.136-0.29-0.159-0.5-0.444-0.55-0.772-0.25-1.561-0.43-3.155-0.58-4.758-0.03-0.294 0.07-0.596 0.27-0.813 0.19-0.227 0.48-0.353 0.78-0.363l1.25-0.009c1.02 0 2.08 0.019 3.16 0.068 0.33 0.016 0.64 0.193 0.84 0.47 0.19 0.278 0.23 0.64 0.12 0.959-0.89 2.607-2.36 4.38-4.34 5.26-0.15 0.06-0.29 0.094-0.44 0.094"/>
   <path id="Fill-70" sketch:type="MSShapeGroup" fill="#232535" d="m160.52 18.086c0.92 0 1.87 0.017 2.82 0.059v-2.393c-1.18-0.244-2.34-0.419-3.49-0.528-0.03 0.847-0.06 1.812-0.09 2.862h0.76zm3.9 2.266h-0.08c-1.97-0.143-3.83-0.134-5.66-0.102h-0.02c-0.29 0-0.55-0.107-0.76-0.308-0.21-0.211-0.32-0.487-0.32-0.782 0.04-2.023 0.11-3.793 0.17-5.146 0.02-0.293 0.15-0.562 0.36-0.747 0.22-0.191 0.52-0.268 0.79-0.276 1.86 0.118 3.8 0.404 5.76 0.848 0.49 0.118 0.83 0.544 0.83 1.049v4.39c0 0.294-0.12 0.58-0.34 0.779-0.19 0.193-0.46 0.295-0.73 0.295z"/>
   <path id="Fill-71" sketch:type="MSShapeGroup" fill="#232535" d="m160.36 28.831c0.97 0 1.97 0.016 2.98 0.058v-4.045c-1.24-0.06-2.46-0.06-3.6-0.052 0.02 1.311 0.06 2.663 0.13 4.039h0.49zm3.97 2.257h-0.06c-1.35-0.083-2.65-0.11-3.91-0.11l-1.5 0.008h-0.02c-0.57 0-1.04-0.443-1.07-1.014-0.12-2.148-0.18-4.238-0.2-6.212-0.01-0.587 0.46-1.074 1.05-1.092 1.85-0.05 3.82-0.05 5.86 0.075 0.57 0.035 1.01 0.505 1.01 1.076v5.012c0 0.243-0.02 0.503-0.05 0.771l-0.03 0.453c-0.02 0.295-0.14 0.562-0.35 0.756-0.2 0.175-0.46 0.277-0.73 0.277z"/>
   <path id="Fill-72" sketch:type="MSShapeGroup" fill="#232535" d="m149.2 21.032v2.433c1.15-0.167 2.47-0.334 3.98-0.478 1.59-0.158 3.42-0.268 5.44-0.319 1.51-0.042 3.09-0.058 4.72 0.027v-2.402c-1.59-0.067-3.14-0.059-4.66-0.043-1.87 0.043-3.66 0.136-5.3 0.288-1.48 0.133-2.88 0.302-4.18 0.494zm-1.08 4.759c-0.25 0-0.5-0.092-0.69-0.251-0.24-0.209-0.38-0.505-0.38-0.822v-4.61c0-0.527 0.39-0.972 0.91-1.056 1.6-0.261 3.36-0.478 5.22-0.648 1.7-0.158 3.53-0.259 5.46-0.301 1.86-0.034 3.8-0.034 5.86 0.099 0.56 0.044 0.99 0.513 0.99 1.076v4.541c0 0.293-0.12 0.58-0.33 0.782-0.21 0.201-0.52 0.309-0.8 0.293-1.99-0.118-3.85-0.11-5.69-0.075-1.96 0.05-3.74 0.15-5.29 0.302-2.02 0.2-3.72 0.434-5.08 0.654l-0.18 0.016z"/>
   <path id="Fill-73" sketch:type="MSShapeGroup" fill="#232535" d="m157.21 44.073c-0.17 0-0.35-0.008-0.52-0.016-5.42-0.201-8.03-3.124-8.14-3.248-0.31-0.354-0.27-0.899 0.09-1.21 0.33-0.31 0.89-0.301 1.21 0.084 0.09 0.093 2.27 2.485 6.91 2.662 0.14 0 0.3 0.008 0.44 0.008 5.95 0 7.83-4.651 7.86-4.701 0.16-0.445 0.65-0.663 1.1-0.487 0.45 0.168 0.67 0.671 0.49 1.108-0.02 0.06-2.34 5.8-9.44 5.8"/>
   <path id="Fill-74" sketch:type="MSShapeGroup" fill="#232535" d="m152.96 74.956l-0.23-0.018c-0.94-0.126-1.6-0.99-1.47-1.931l0.67-5.012c0.12-0.938 1.01-1.585 1.93-1.476 0.94 0.125 1.6 0.991 1.47 1.931l-0.67 5.011c-0.11 0.864-0.85 1.495-1.7 1.495"/>
   <path id="Fill-75" sketch:type="MSShapeGroup" fill="#232535" d="m180.16 74.947c-0.84 0-1.58-0.631-1.7-1.486l-0.69-5.004c-0.12-0.939 0.53-1.804 1.47-1.938 1.03-0.109 1.81 0.538 1.94 1.469l0.69 5.003c0.13 0.939-0.53 1.804-1.47 1.939l-0.24 0.017"/>
   <path id="Fill-76" sketch:type="MSShapeGroup" fill="#232535" d="m130.67 51.771c-0.73 0-1.41-0.463-1.64-1.192-0.29-0.906 0.21-1.872 1.11-2.167l3.62-1.165c0.91-0.312 1.88 0.201 2.17 1.107 0.29 0.907-0.21 1.872-1.11 2.167l-3.62 1.167c-0.18 0.058-0.36 0.083-0.53 0.083"/>
   <path id="Fill-77" sketch:type="MSShapeGroup" fill="#232535" d="m135.5 15.148c-0.08 0-0.18-0.009-0.27-0.025l-4.56-0.713c-0.93-0.143-1.58-1.024-1.43-1.965 0.13-0.931 0.97-1.628 1.96-1.427l4.57 0.713c0.93 0.143 1.58 1.025 1.43 1.964-0.13 0.847-0.87 1.453-1.7 1.453"/>
   <path id="Fill-78" sketch:type="MSShapeGroup" fill="#232535" d="m179.82 72.722h-26.32c-0.95 0-1.72-0.772-1.72-1.722 0-0.947 0.77-1.718 1.72-1.718h26.32c0.95 0 1.72 0.771 1.72 1.718 0 0.95-0.77 1.722-1.72 1.722"/>
   <path id="Fill-79" sketch:type="MSShapeGroup" fill="#286BA6" d="m17.349 61.6s21.748 8.352 66.244 8.352c15.697 0 24.537-0.411 33.527-2.417 4.66-1.041-21.079-6.506-21.079-6.506l-78.692 0.571"/>
   <path id="Fill-80" sketch:type="MSShapeGroup" fill="#232535" d="m29.931 63.22c10.693 2.308 28.573 5.01 53.662 5.01 12.726 0 20.997-0.242 28.647-1.501-4.12-1.201-10.58-2.744-16.559-4.021l-65.75 0.512zm53.662 8.453c-44.303 0-65.959-8.125-66.856-8.47-0.774-0.293-1.227-1.098-1.084-1.914 0.153-0.807 0.857-1.401 1.686-1.409l78.694-0.572c23.347 4.92 23.357 6.421 23.367 7.874 0 0.378-0.12 1.636-1.9 2.032-9.38 2.09-18.404 2.459-33.907 2.459z"/>
   <path id="Fill-81" sketch:type="MSShapeGroup" fill="#286BA6" d="m16.533 60.844h79.13s1.437-24.006-2.381-28.95c-4.594-5.925-30.49-13.673-39.285-13.867-8.797-0.186-30.956 8.033-36.321 16.829-3.476 5.708-1.143 25.988-1.143 25.988"/>
   <path id="Fill-82" sketch:type="MSShapeGroup" fill="#232535" d="m18.079 59.125h75.955c0.437-9.159 0.236-23.135-2.113-26.181-4.08-5.263-29.338-13.012-37.958-13.196h-0.008c-9.15 0-29.967 8.067-34.811 16.007-2.383 3.91-1.679 17.015-1.065 23.37m77.584 3.439h-79.13c-0.871 0-1.611-0.654-1.703-1.527-0.251-2.133-2.3-21.035 1.378-27.079 5.892-9.66 28.462-17.652 37.496-17.652 9.231 0.202 35.806 7.916 40.935 14.539 4.096 5.298 2.888 27.581 2.738 30.099-0.051 0.908-0.807 1.62-1.714 1.62"/>
   <path id="Fill-83" sketch:type="MSShapeGroup" fill="#fff" d="m20.027 58.224c-0.444 0-0.823-0.334-0.858-0.786-0.501-6.465-0.965-17.963 1.571-22.338 0.235-0.427 0.78-0.554 1.176-0.318 0.408 0.243 0.552 0.764 0.319 1.174-1.689 2.904-2.184 10.686-1.354 21.345 0.035 0.472-0.317 0.89-0.788 0.923h-0.066"/>
   <path id="Fill-84" sketch:type="MSShapeGroup" fill="#359ECD" d="m92.517 31.894c-4.357-5.632-29.286-12.826-39.192-13.699v0.311c-11.466 6.597-19.063 14.337-19.063 23.074v17.351h60.705c0.244-5.254 0.804-22.832-2.45-27.037"/>
   <path id="Fill-85" sketch:type="MSShapeGroup" fill="#3796BE" d="m93.145 58.628h-0.033c-0.47-0.016-0.84-0.412-0.825-0.89 0.44-12.782-0.443-21.891-2.356-24.367-0.824-1.056-2.593-2.291-5.105-3.576-0.418-0.218-0.585-0.729-0.368-1.158 0.153-0.295 0.454-0.465 0.766-0.465 0.133 0 0.267 0.031 0.392 0.096 2.763 1.418 4.676 2.778 5.667 4.047 3.003 3.869 2.996 17.626 2.72 25.491-0.017 0.461-0.396 0.822-0.858 0.822"/>
   <path id="Fill-86" sketch:type="MSShapeGroup" fill="#232535" d="m34.12 60.534c-0.354 0-0.647-0.294-0.647-0.646v-19.49c0-10.553 17.333-22.22 18.064-22.716 0.293-0.202 0.697-0.125 0.898 0.178 0.192 0.3 0.118 0.696-0.175 0.896-0.178 0.118-17.495 11.777-17.495 21.642v19.49c0 0.352-0.293 0.646-0.645 0.646"/>
   <path id="Fill-87" sketch:type="MSShapeGroup" fill="#232535" d="m80.564 61.366h-0.043c-0.47-0.018-0.84-0.429-0.815-0.9 0.572-11.777 0.313-24.819-1.141-26.273-5.918-5.916-28.272-15.227-28.498-15.319-0.436-0.183-0.645-0.688-0.469-1.124 0.185-0.444 0.671-0.646 1.125-0.471 0.931 0.387 22.898 9.545 29.061 15.706 2.71 2.712 1.836 23.437 1.635 27.565-0.016 0.463-0.403 0.816-0.855 0.816"/>
   <path id="Fill-88" sketch:type="MSShapeGroup" fill="#232535" d="m76.408 62.724h-0.051c-0.596-0.033-1.049-0.537-1.023-1.124 0.562-11.474 0.311-24.72-1.075-26.097-5.892-5.892-28.204-15.201-28.429-15.294-0.547-0.226-0.805-0.856-0.58-1.402 0.227-0.545 0.839-0.813 1.401-0.578 0.932 0.386 22.932 9.561 29.129 15.747 2.71 2.702 1.989 21.907 1.702 27.725-0.032 0.578-0.503 1.023-1.074 1.023"/>
   <path id="Fill-89" sketch:type="MSShapeGroup" fill="#232535" d="m83.863 59.577h-0.051c-0.596-0.033-1.051-0.536-1.026-1.126 0.564-11.473 0.312-24.719-1.081-26.104-5.884-5.891-28.195-15.194-28.422-15.285-0.546-0.227-0.806-0.856-0.579-1.402 0.218-0.537 0.847-0.822 1.402-0.579 0.931 0.386 22.931 9.552 29.126 15.739 2.712 2.712 1.989 21.917 1.705 27.732-0.034 0.579-0.505 1.025-1.074 1.025"/>
   <path id="Fill-90" sketch:type="MSShapeGroup" fill="#359ECD" d="m87.663 44.543c-1.015 0-1.871 0.738-2.031 1.722h-0.176l-0.872-1.923c-0.319-0.737-1.059-1.226-1.881-1.226h-1.721c-0.612 0-1.133 0.352-1.518 0.815-0.379-0.471-0.889-0.815-1.545-0.815h-2.713v-4.079c0.994-0.142 1.763-0.998 1.763-2.04 0-1.141-0.921-2.056-2.056-2.056h-3.442c-1.141 0-2.062 0.915-2.062 2.056 0 1.008 0.728 1.847 1.677 2.024v6.152c0 1.141 0.923 2.066 2.057 2.066h2.594c-0.218 0.334-0.453 0.661-0.453 1.083 0 0.939 0.639 1.736 1.51 1.979l-0.018 0.042c-0.209 0.52-0.2 1.092 0.026 1.588 0.219 0.51 0.63 0.897 1.117 1.074 0.235 0.101 0.504 0.158 0.771 0.158 0.858 0 1.638-0.535 1.915-1.316l0.581-1.462h1.61l0.704 1.554c0.437 0.999 1.68 1.492 2.729 1.041 0.429-0.186 0.771-0.521 0.99-0.931 1.244 0.334 2.51-0.707 2.51-2.007v-3.442c0-1.133-0.923-2.057-2.066-2.057"/>
   <path id="Fill-91" sketch:type="MSShapeGroup" fill="#fff" d="m78.834 45.173c0-0.504-0.402-0.905-0.915-0.905h-3.861v-6.355h0.855c0.504 0 0.908-0.404 0.908-0.916 0-0.513-0.404-0.915-0.908-0.915h-3.442c-0.51 0-0.914 0.402-0.914 0.915 0 0.512 0.404 0.916 0.914 0.916h0.758v7.26c0 0.512 0.402 0.914 0.914 0.914h4.776c0.513 0 0.915-0.402 0.915-0.914"/>
   <path id="Fill-92" sketch:type="MSShapeGroup" fill="#fff" d="m81.101 47.406l0.511-1.319h0.505l0.586 1.319h-1.602zm6.562-1.721c-0.503 0-0.906 0.402-0.906 0.915v0.957c-0.125-0.06-0.225-0.151-0.376-0.151h-1.664l-1.182-2.603c-0.142-0.335-0.472-0.535-0.832-0.535h-1.721c-0.377 0-0.712 0.227-0.848 0.578l-0.998 2.56h-1.788c-0.512 0-0.915 0.402-0.915 0.916 0 0.512 0.403 0.915 0.915 0.915h1.084l-0.597 1.536c-0.185 0.47 0.051 0.998 0.52 1.174 0.11 0.05 0.226 0.067 0.335 0.067 0.371 0 0.715-0.219 0.848-0.579l0.858-2.198h3.139l1.014 2.24c0.203 0.462 0.765 0.654 1.21 0.454 0.47-0.201 0.672-0.749 0.454-1.209l-0.672-1.485h0.84c0.151 0 0.251-0.094 0.376-0.152v0.957c0 0.512 0.403 0.913 0.906 0.913 0.513 0 0.915-0.401 0.915-0.913v-3.442c0-0.513-0.402-0.915-0.915-0.915z"/>
   <path id="Fill-93" sketch:type="MSShapeGroup" fill="#286BA6" d="m60.107 16.785c0 1.897-3.29 3.441-7.353 3.441s-7.353-1.544-7.353-3.441 3.29-3.441 7.353-3.441 7.353 1.544 7.353 3.441"/>
   <path id="Fill-94" sketch:type="MSShapeGroup" fill="#232535" d="m52.754 15.064c-3.652 0-5.533 1.318-5.632 1.738 0.099 0.386 1.98 1.704 5.632 1.704 3.65 0 5.533-1.318 5.632-1.737-0.099-0.387-1.982-1.705-5.632-1.705zm0 6.882c-5.255 0-9.074-2.173-9.074-5.161s3.819-5.162 9.074-5.162c5.256 0 9.074 2.174 9.074 5.162s-3.818 5.161-9.074 5.161z"/>
   <path id="Fill-95" sketch:type="MSShapeGroup" fill="#232535" d="m36.167 60.19c-0.35 0-0.646-0.294-0.646-0.646v-5.105c0-0.352 0.296-0.645 0.646-0.645 0.354 0 0.647 0.293 0.647 0.645v5.105c0 0.352-0.293 0.646-0.647 0.646"/>
   <path id="Fill-96" sketch:type="MSShapeGroup" fill="#232535" d="m38.181 61.534c-0.35 0-0.646-0.296-0.646-0.647v-5.103c0-0.353 0.296-0.647 0.646-0.647 0.354 0 0.648 0.294 0.648 0.647v5.103c0 0.351-0.294 0.647-0.648 0.647"/>
   <path id="Fill-97" sketch:type="MSShapeGroup" fill="#232535" d="m40.465 62.07c-0.353 0-0.646-0.293-0.646-0.646v-5.104c0-0.352 0.293-0.646 0.646-0.646s0.646 0.294 0.646 0.646v5.104c0 0.353-0.293 0.646-0.646 0.646"/>
  </g>
 </g>
</svg>
