<?xml version="1.0" encoding="UTF-8"?>
<svg width="904px" height="534px" viewBox="0 0 904 534" version="1.1" xmlns="http://www.w3.org/2000/svg" xmlns:xlink="http://www.w3.org/1999/xlink">
    <!-- Generator: Sketch 58 (84663) - https://sketch.com -->
    <title>world-map</title>
    <desc>Created with Sketch.</desc>
    <g id="Page-1" stroke="none" stroke-width="1" fill="none" fill-rule="evenodd">
        <g id="Desktop-HD-Copy-10" transform="translate(0.000000, -3780.000000)" fill="#F6ECFF" fill-rule="nonzero">
            <g id="world-map" transform="translate(-61.000000, 3780.000000)">
                <path d="M328.302351,345.641309 C327.265827,344.940142 309.949786,329.362043 305.651262,323.844164 C301.444195,318.265314 293.334922,316.802009 289.09737,314.576566 C284.829332,312.381609 256.660279,303.083526 249.892389,307.900238 C243.215958,312.71695 234.00919,315.643559 230.442329,307.900238 C226.93644,300.095945 225.168253,298.998466 220.229523,297.900988 C215.290793,296.803509 217.760158,290.919804 217.424812,285.737266 C217.028494,280.524242 214.223783,274.975878 210.687409,278.695111 C207.151034,282.414345 195.139555,292.047768 193.401853,287.170085 C191.633666,282.383859 183.128075,262.415845 195.871218,258.666126 C208.55339,255.007864 219.162513,257.172335 222.363542,260.525742 C225.534085,263.818178 227.972964,273.116262 231.905656,271.988297 C235.807863,270.860333 233.673844,263.787693 235.076199,257.934473 C236.478555,252.050768 245.715809,244.246476 249.892389,236.137328 C254.129942,227.936724 254.831119,223.150497 260.105195,220.925054 C265.470729,218.730097 268.27544,215.773002 273.21417,212.053769 C278.183386,208.334535 285.896341,205.042099 288.79251,203.151997 C291.627707,201.261895 304.309878,194.981878 308.516944,196.109842 C312.754497,197.237807 315.559208,195.744016 312.053319,189.464 C308.516944,183.183983 303.944046,164.282961 297.237129,155.807987 C290.530211,147.333013 289.798548,145.046599 286.628005,136.967937 C283.457462,128.767333 279.890602,121.755664 277.421237,127.304028 C274.951872,132.852392 269.677796,140.260373 266.842599,133.218218 C264.037888,126.176064 264.373234,126.511404 260.836859,123.218968 C257.33097,119.896047 254.465288,119.133909 249.557044,117.640119 C244.618313,116.146328 239.679583,118.03643 240.014929,122.822657 C240.350275,127.639369 235.381059,136.205799 238.612574,142.516301 C241.783117,148.826804 244.618313,155.472647 240.350275,157.69809 C236.143209,159.893047 240.350275,173.245704 236.143209,172.849392 C231.905656,172.514051 229.802123,173.245704 229.802123,168.398506 C229.802123,163.642766 231.905656,156.234785 224.101243,156.234785 C216.357802,156.234785 211.754418,152.180211 206.11451,148.064666 C200.444117,144.010092 195.871218,146.205049 197.273574,136.998423 C198.675929,127.70034 196.602882,124.407904 202.913482,119.225366 C209.285053,114.073313 210.717895,111.055247 215.290793,113.311175 C219.894177,115.536618 223.034234,115.536618 225.930403,112.945349 C228.735114,110.35408 234.00919,111.421073 234.00919,108.128637 C234.00919,104.805715 228.00345,104.805715 228.735114,99.2878366 C229.405805,93.6480157 232.271488,96.666082 233.308012,87.3984845 C234.344535,78.130887 226.601094,64.0770631 218.827168,65.9366797 C211.022755,67.7658108 199.072247,78.5271987 196.602882,73.6800013 C194.103031,68.8937749 189.164301,71.0887322 179.622187,74.4421392 C170.080073,77.7955463 130.539746,71.1497033 127.735035,67.7658108 C127.735035,67.7658108 120.997632,62.9795844 117.461257,65.5708534 C113.955369,68.1621225 99.80987,67.0341583 95.5723177,66.3329914 C91.3042794,65.5708534 87.4325589,71.1192178 82.1889689,69.2900867 C76.823435,67.4304701 58.1355243,63.7112368 53.928458,60.7541416 C49.6299337,57.7665608 43.2583621,57.7665608 40.5146232,56.3032559 C37.6794263,54.8094655 27.4056483,54.0778131 25.3326012,57.0349083 C23.198582,59.9920036 15.424655,65.1440562 11.5224486,68.8632894 C7.65072807,72.5825226 3.10831584,71.8508702 6.94955034,79.6246773 C10.8212708,87.3984845 -2.9279098,92.2151964 0.577978831,100.69017 C4.08386746,109.165145 -0.123198895,132.12074 13.9918136,136.571625 C28.1373121,141.022511 39.7829595,143.61378 47.8922323,136.998423 C56.0624771,130.291609 68.4093023,130.291609 72.2810228,137.69959 C76.1527433,145.10757 78.2867625,156.204299 90.9689335,162.484316 C103.651105,168.794818 114.62606,186.933701 113.924883,195.012364 C113.254191,203.182483 114.3212,230.162166 127.308231,245.709781 C140.417206,261.257395 153.831041,289.426014 154.837079,282.7192 C155.904088,276.042871 155.904088,269.366543 158.769771,274.21374 C161.543996,279.030452 168.982577,293.846414 180.994056,296.437683 C193.036022,299.028952 199.041761,299.760604 203.584173,304.241976 C208.157072,308.692861 212.089764,311.253645 216.998008,313.509573 C221.936738,315.70453 233.948218,322.411344 236.417583,326.831745 C238.917434,331.28263 237.850424,337.196821 235.350573,343.873149 C232.911694,350.549478 230.076497,357.195321 233.582386,363.505823 C237.149246,369.78584 244.557341,387.924723 250.593567,391.979297 C256.599307,396.094842 262.544074,402.740685 261.141719,411.977797 C259.739364,421.214909 253.032446,460.815597 253.733624,469.717369 C254.465288,478.558169 245.654837,507.793781 252.6971,519.652647 C259.739364,531.481028 271.811815,535.200262 277.085891,533.675986 C282.359967,532.243166 278.1529,531.816369 275.653049,526.29849 C273.183684,520.719641 273.51903,513.677486 276.354227,508.525433 C279.21991,503.342895 279.21991,500.3858 277.787068,494.471609 C276.354227,488.557419 277.085891,485.204012 280.591779,480.783612 C284.15864,476.332726 298.97483,464.504345 303.578214,459.321807 C308.120627,454.139269 337.143287,418.593154 341.015008,415.636059 C344.886728,412.678964 353.697179,405.636809 356.562862,394.570566 C359.398059,383.504323 369.610865,361.646206 362.568601,356.067357 C355.495852,350.488507 329.36936,346.372962 328.302351,345.641309 Z" id="Path"></path>
                <path d="M399.478474,33.2051025 C401.492643,29.2663772 406.375477,19.4042975 409,14 L297,14 C298.342779,19.9538871 303.195095,42.0596012 302.279564,51.0056983 C301.211444,61.3868347 304.415804,57.6923715 307.223433,61.7837605 C310.06158,65.8751496 309.359673,72.1954298 307.589646,76.9585394 C305.789101,81.7827146 304.751499,92.5607769 310.458311,105.170804 C316.073569,117.750299 322.787466,133.688397 328.433243,134.451716 C334.140054,135.153969 332.705722,143.336747 336.611989,140.344537 C340.487738,137.352328 341.159128,130.757253 344.394005,121.078369 C347.567847,111.491085 347.567847,104.407486 355.716076,99.5833104 C363.864305,94.7591352 386.447411,79.2179633 391.391281,73.6304692 C396.365668,68.0429752 402.011444,65.8446169 400.241417,56.2267993 C398.410354,46.5784489 396.670845,38.7925965 399.478474,33.2051025 Z" id="Path"></path>
                <path d="M950.016205,77.7575614 C945.778227,74.8002585 920.380844,54.4649902 909.404784,57.0564412 C898.520192,59.6478922 879.068175,51.1113478 875.866824,49.2820883 C872.695962,47.4223411 846.597331,39.4040869 832.816279,38.9162843 C825.956241,38.6723831 797.144084,32.2394871 785.131397,27.0870728 C773.08822,21.8736832 762.904876,-3.64448703 739.946618,0.440859219 C736.989179,0.989637073 709.244139,4.89205737 702.170679,11.2030027 C695.158196,17.513948 691.926356,24.8614737 688.054246,26.355369 C684.182136,27.8492643 672.870697,27.0870728 672.870697,32.6663143 C672.870697,38.2150682 676.773296,55.2576693 672.199938,51.9040269 C667.59609,48.5808721 662.992243,40.8065192 660.918987,46.7516126 C658.815243,52.696706 655.187045,55.9893732 653.113789,53.7637741 C651.040534,51.538175 640.369364,53.7637741 638.997357,57.4527808 C637.564371,61.1722751 623.813808,69.6478442 617.837953,70.8063752 C611.831609,71.9039309 609.331507,74.8612338 606.160645,76.3551291 C602.989783,77.8185367 578.933919,88.9465321 574.39105,84.8611858 C569.787203,80.8063272 568.384706,83.3977782 565.549224,84.129482 C565.549224,84.129482 557.073267,82.6355867 551.79866,75.9892772 C546.463076,69.3429676 545.426448,71.538079 539.420104,65.2576214 C533.444249,58.9771637 532.011264,52.696706 526.035409,55.288157 C520.059554,57.8491203 494.631682,84.0989944 484.72274,95.9586935 C474.874775,107.818393 457.191123,120.013456 466.00246,128.489025 C474.874775,136.995082 479.417644,135.897526 480.51525,140.684089 C481.612856,145.470651 482.649484,150.684041 484.05198,152.543788 C485.454477,154.434023 493.899945,161.049845 498.168413,152.177936 C502.467369,143.27554 503.10764,136.995082 508.046867,138.488977 C512.986093,139.952385 514.022721,143.306027 511.522619,149.952337 C509.053005,156.659622 507.315129,166.994938 498.839172,166.598598 C490.393704,166.232747 481.216498,161.049845 478.350527,162.177888 C475.545534,163.275444 473.838147,165.866895 470.606307,168.458346 C467.435445,171.049797 457.526503,183.214372 450.818911,185.104607 C444.141808,186.964354 436.031719,185.439971 440.605077,190.988725 C445.178435,196.537479 451.886028,208.76303 445.544304,208.366691 C439.202581,208.000839 428.59239,206.903283 427.891141,213.183741 C427.189893,219.464198 424.3849,223.183693 425.787397,227.604403 C427.189893,232.055601 431.79374,240.592146 437.403726,237.604355 C443.135669,234.616565 454.05075,231.720237 456.855743,225.012952 C459.691226,218.336155 462.892576,210.988629 469.935548,211.354481 C476.97852,211.720333 493.960923,220.958094 492.863317,224.311736 C491.826689,227.604403 488.320448,235.409244 492.527938,232.817793 C496.765916,230.195854 500.272158,227.238551 502.741771,226.140996 C505.211384,225.012952 508.473713,229.86049 509.479852,231.720237 C510.51648,233.610472 517.62043,237.268991 518.992437,231.29341 C520.425423,225.409292 521.827919,229.86049 526.035409,231.720237 C530.303877,233.610472 542.987323,235.012904 544.69471,236.5068 C546.524054,238.000695 550.396164,242.421405 545.426448,248.366499 C540.487221,254.250617 534.816257,256.537191 526.706168,252.085993 C518.56559,247.634795 509.723765,255.805487 500.638026,251.323802 C491.399843,246.903091 495.66831,240.622634 484.72274,236.171435 C473.838147,231.720237 449.081034,237.268991 441.275836,239.49459 C433.501127,241.689702 433.165748,242.451893 429.994886,246.1409 C426.824024,249.860394 406,273.884669 406,287.573628 C406,301.232099 413.74422,338.305092 438.806223,334.585597 C463.898715,330.866103 479.082264,333.061214 476.277271,340.439228 C473.4113,347.878216 474.874775,349.737964 479.448133,358.213533 C484.021491,366.719589 494.662171,423.365659 496.400048,432.572932 C498.229391,441.84118 495.02804,453.639904 506.674859,451.810644 C518.382656,449.950897 530.700234,447.024082 535.608972,436.292426 C540.578688,425.530283 541.340914,413.365707 547.682638,407.085249 C554.05485,400.774304 561.79907,400.774304 562.469829,391.902395 C563.140589,383 560.701464,361.933027 564.939443,357.055002 C569.207911,352.298927 588.934329,330.042936 591.038074,321.171027 C593.172308,312.299119 595.977301,310.07352 587.867212,310.07352 C579.757123,310.07352 565.976071,309.006452 562.042983,301.597951 C558.170873,294.280913 548.963178,280.226102 548.963178,276.902947 C548.963178,273.61028 554.634142,273.945644 557.408646,280.957806 C560.274617,287.969967 570.092093,309.128402 581.403532,304.616229 C592.714972,300.165031 608.630258,295.012616 608.965638,287.969967 C609.301018,280.957806 604.026411,272.817601 598.355447,273.213941 C592.653994,273.61028 586.678139,269.494446 586.678139,265.439588 C586.678139,261.384729 587.714767,262.878624 594.452848,265.439588 C601.190929,268.031039 603.264185,272.451749 613.538996,273.213941 C623.783319,273.945644 635.430138,283.945596 641.040124,288.396795 C646.711088,292.847993 656.559053,323.213701 659.059155,326.140516 C661.498279,329.128306 664.425229,329.128306 666.864353,323.183213 C669.333967,317.23812 679.913669,298.396747 685.950501,293.183357 C691.926356,288.000455 692.292225,280.988293 695.767977,285.439492 C699.304707,289.89069 714.488257,300.95771 715.555374,307.634507 C716.622491,314.311304 714.854125,328.731967 718.024987,324.280769 C721.195849,319.82957 723.695951,310.622298 726.439966,314.707644 C729.305937,318.79299 729.305937,325.073448 735.98304,320.256398 C742.721122,315.500323 754.36794,313.610088 748.026217,303.244284 C741.684494,292.87848 745.922472,286.598023 749.85556,286.201683 C753.72767,285.805344 780.222659,281.018781 780.923907,266.567631 C781.625156,252.146968 771.716213,244.372616 776.411527,236.964114 C780.923907,229.555613 787.661988,222.909304 789.094974,227.330014 C790.49747,231.781213 785.558244,246.201875 791.899967,243.976276 C798.272179,241.781165 805.68102,241.781165 805.68102,237.299479 C805.68102,232.817793 804.248034,221.720285 807.114005,218.79347 C809.949487,215.836167 830.743023,196.26309 833.212636,188.488737 C835.68225,180.683897 840.286097,174.037587 836.383498,168.153469 C832.480899,162.238863 825.803796,164.037635 831.078402,156.690109 C836.383498,149.281608 845.225324,142.421885 851.932916,141.873107 C873.366722,139.982873 867.329889,166.507136 867.695757,172.421741 C868.092115,178.336347 868.092115,193.153349 871.232488,185.744848 C874.403349,178.366835 878.092525,169.251025 884.464737,162.970567 C890.83695,156.720597 894.343191,152.604763 894.739549,147.086497 C895.105418,141.537743 895.379819,139.677996 901.447141,136.720693 C907.453485,133.732903 933.917984,123.367099 936.387598,116.385425 C938.857211,109.373263 933.216736,103.03183 939.55846,103.458658 C945.900183,103.794022 951.906527,110.806183 955.107878,107.117177 C958.278739,103.458658 965.3522,96.7818603 964.986331,93.062366 C964.559485,89.220921 954.315162,80.7148643 950.016205,77.7575614 Z" id="Path"></path>
                <path d="M835.64536,201.98129 C833.520264,206.825139 832.488075,207.58675 829.33079,217.579093 C826.112788,227.510506 827.175336,224.921027 823.987693,231.196706 C820.830408,237.502849 815.608744,238.203532 810.326364,242.316234 C804.983267,246.398471 803.586775,254.502017 803.586775,254.502017 C799.032999,260.777696 822.226899,245.606395 830.302262,240.823475 C838.407984,236.010091 836.313247,230.465559 837.011493,222.697122 C837.709738,214.89822 839.895551,213.8015 843.326062,210.480874 C846.817291,207.160248 844.024308,200.488531 842.35459,195.705611 C840.533079,190.922691 837.709738,197.228834 835.64536,201.98129 Z" id="Path"></path>
                <path d="M763.4926,369.501442 C765.968749,367.608791 764.165134,363.579275 768.047492,364.281388 C771.960421,365.014027 775.475942,367.303525 780.153114,364.708761 C784.708007,362.08347 788.620935,363.182429 787.917831,358.756067 C787.245296,354.329705 787.917831,348.407538 786.878459,344.713815 C785.808518,340.989566 779.45001,339.86008 774.833977,343.981176 C770.217945,348.102272 763.890006,354.390758 763.890006,352.131787 C763.890006,349.93387 766.671854,343.981176 765.265645,340.287453 C763.890006,336.59373 765.968749,333.266327 758.907137,336.196884 C751.814955,339.188494 747.932596,338.425328 745.456447,342.515897 C743.010866,346.636993 740.13731,353.627592 735.918684,349.20123 C731.700059,344.774868 719.25817,335.525298 719.25817,335.525298 C718.249368,334.395813 704.095574,322.887271 709.047873,330.70209 C713.969603,338.486382 721.428622,351.826521 724.974713,356.619203 C728.459665,361.442411 732.372593,367.028785 736.652358,364.434021 C740.901554,361.80873 741.604658,361.106618 747.290632,364.434021 C752.823757,367.639318 761.01645,371.363567 763.4926,369.501442 Z" id="Path"></path>
                <path d="M850.718934,359.140834 C843.907873,356.133834 846.761156,353.498834 838.569475,352.041834 C830.377793,350.584834 823.689455,352.041834 821.480462,350.553834 C819.33283,349.034834 808.717393,345.283834 810.128694,350.553834 C811.570675,355.854834 821.142977,357.311834 823.628094,358.799834 C826.11321,360.318834 820.069161,363.728834 824.640549,366.332834 C829.242617,368.936834 832.494745,373.865834 838.508114,372.346834 C844.552163,370.796834 846.699795,374.237834 851.608667,374.981834 C856.609581,375.694834 861.579815,374.237834 859.524224,371.912834 C857.376593,369.711834 855.995972,366.642834 856.333457,364.038834 C856.701623,361.403834 857.437953,362.178834 850.718934,359.140834 Z" id="Path"></path>
                <path d="M846.646898,392.23411 C844.169189,384.801529 838.143158,371.12925 836.766653,377.766575 C835.328971,384.434488 825.785205,389.236608 822.175704,388.869567 C818.933271,388.502526 820.768611,385.16857 820.768611,382.140481 C820.768611,379.173566 818.902682,376.237238 810.827189,378.470071 C802.629339,380.672317 800.946944,388.47194 798.744537,387.768444 C796.664485,387.034362 790.944344,385.535611 787.457199,389.634236 C783.908876,393.732861 780.666443,401.532484 776.475751,403.031235 C772.193292,404.529986 758,406.334604 758,412.329608 C758,418.263439 761.578912,427.164184 761.211844,431.996892 C760.844776,436.829599 754.390499,447.932591 762.986006,451.327721 C767.941422,453.254686 771.459156,453.529967 777.209887,450.593639 C782.86885,447.626723 807.278866,439.827101 810.521299,442.396388 C813.702554,444.996262 818.841504,451.083027 821.135679,452.398257 C825.632261,455.089891 826.85582,461.299003 832.881852,462.797754 C838.816116,464.296505 843.496232,465 845.943351,465 C848.451648,465 857.261278,462.033085 859.402507,456.833336 C861.543737,451.603001 865.428539,439.3683 867.2027,433.434469 C869.068629,427.500639 870.720434,420.832726 865.428539,415.602391 C860.136643,410.43323 849.124606,399.666692 846.646898,392.23411 Z" id="Path"></path>
            </g>
        </g>
    </g>
</svg>