<svg id="Layer_1" data-name="Layer 1" xmlns="http://www.w3.org/2000/svg" width="1440" height="900" viewBox="0 0 1440 900"><defs><style>.cls-1{fill:#877fdd;}</style></defs><path class="cls-1" d="M387.21,1160.7c-104.37,0-204.49-25.41-260.77-42.8l.29-1c68.87,21.28,203.46,54.58,331,38.52,60.79-7.65,113-25.76,155.28-53.81,48.21-32,84.05-77.49,106.5-135.16C732.2,934,744.86,897.55,758.26,859c43.13-124.12,96.82-278.6,188-402.62,50-68,105.38-119.87,169.36-158.63,72.57-44,156.45-70,249.33-77.3,71.48-5.64,135.9-17.33,191.46-34.74,44.44-13.93,83.35-31.53,115.65-52.31C1727,98,1744,65.22,1744.12,64.9l.9.45c-.17.32-17.17,33.29-72.33,68.81-32.37,20.85-71.36,38.5-115.9,52.46-55.65,17.45-120.17,29.16-191.77,34.81-92.71,7.31-176.45,33.27-248.88,77.15C1052.27,337.27,997,389.08,947.06,457,856,580.85,802.32,735.25,759.21,859.31c-13.41,38.58-26.07,75-38.74,107.55-22.54,57.85-58.5,103.48-106.89,135.62-42.37,28.14-94.76,46.3-155.71,54A567.42,567.42,0,0,1,387.21,1160.7Z"/><path class="cls-1" d="M356.73,1135c-91.81,0-181.24-20.83-245.87-40.8l.27-.88c82.2,25.4,204.6,52.21,320.85,35.66,124.77-17.76,211.25-81.35,257-189,8.08-19,16.22-38.67,24.83-59.51C764,759.11,826.41,608.11,925.72,485.88c54.44-67,113.61-118.44,180.89-157.26,76.32-44,163.31-70.78,258.52-79.5,71.36-6.53,136-19.05,192.24-37.21,45-14.52,84.63-32.67,117.91-53.93,56.65-36.2,75.34-69.33,75.52-69.66l.8.45c-.18.33-18.94,33.61-75.75,69.93-33.34,21.32-73.09,39.5-118.13,54.06-56.29,18.19-121,30.73-192.5,37.27-95.09,8.71-181.94,35.41-258.15,79.38-67.18,38.76-126.27,90.13-180.64,157C827.21,608.58,764.81,759.52,714.68,880.8c-8.62,20.83-16.75,40.51-24.83,59.51-45.92,108-132.63,171.75-257.75,189.56A536.61,536.61,0,0,1,356.73,1135Z"/><path class="cls-1" d="M328.21,1109.22c-86.5,0-171.17-19.68-232.92-38.76l.24-.8c80.3,24.81,199.39,50.65,310.75,32.81,118.21-18.93,203.06-82.54,252.19-189.06C720.52,778.9,790,637.64,896.36,518.89c59.06-65.95,125.09-119.14,196.25-158.1,81.6-44.67,173.35-72.58,272.71-83,71.23-7.45,136.17-20.81,193-39.73,45.47-15.13,85.9-33.82,120.16-55.55,58.33-37,78.78-70.44,79-70.78l.71.43c-.2.34-20.72,33.91-79.18,71-34.32,21.78-74.81,40.51-120.35,55.66-56.92,19-121.94,32.33-193.25,39.79-99.25,10.38-190.9,38.27-272.4,82.88-71.08,38.92-137,92.05-196,157.92C790.7,638.11,721.25,779.31,659.23,913.76,610,1020.54,524.91,1084.31,406.41,1103.29A495.23,495.23,0,0,1,328.21,1109.22Z"/><path class="cls-1" d="M299.13,1083.66c-75,0-151.28-15.86-219.42-36.92l.22-.72c185.36,57.28,430.91,76.16,548-159.14C705.14,731.75,791.21,612,891.07,520.8c62.52-57.1,131.59-103.72,205.29-138.57,82.18-38.86,172.73-64.33,269.15-75.73,71.12-8.4,136.33-22.64,193.83-42.32,46-15.74,87.19-35,122.43-57.18,60-37.79,82.17-71.48,82.38-71.81l.63.4c-.22.34-22.49,34.17-82.61,72-35.29,22.23-76.53,41.5-122.58,57.26-57.56,19.7-122.82,33.95-194,42.36-96.34,11.38-186.81,36.84-268.92,75.66-73.63,34.82-142.64,81.4-205.1,138.45-99.79,91.13-185.81,210.81-263,365.85C554.34,1036.44,428.53,1083.66,299.13,1083.66Z"/><path class="cls-1" d="M270.84,1058.17a547.83,547.83,0,0,1-61.42-3.56c-44.95-5.06-93.83-15.69-145.28-31.59l.19-.63c51.42,15.88,100.26,26.5,145.16,31.56,52.57,5.92,101.55,4.44,145.58-4.39,49.78-10,94.68-29.67,133.46-58.48,42.94-31.9,79.56-75.89,108.88-130.74a1053.88,1053.88,0,0,1,122-181A969.54,969.54,0,0,1,885.83,522.66c135.86-100.25,297.31-163.32,479.87-187.46,71-9.39,136.42-24.51,194.56-44.95,46.5-16.36,88.45-36.13,124.67-58.77,61.68-38.56,85.66-72.52,85.9-72.86l.54.38c-.23.34-24.27,34.39-86,73-36.26,22.68-78.26,42.48-124.81,58.85-58.19,20.46-123.71,35.6-194.73,45C1183.34,360,1022,423,886.23,523.2A969.31,969.31,0,0,0,719.92,679.72,1054.25,1054.25,0,0,0,598,860.66c-29.35,54.93-66,99-109.06,131-38.86,28.88-83.86,48.59-133.73,58.6A428.73,428.73,0,0,1,270.84,1058.17Z"/><path class="cls-1" d="M243.61,1032.81c-58.11,0-122.62-11.13-195-33.5l.17-.56c110.19,34,202,42,280.82,24.39a326.18,326.18,0,0,0,128-59.64c41.51-31.8,78.29-75.43,109.29-129.69,71.66-125.38,177.22-229.46,313.77-309.34,135.24-79.11,298.5-133.14,485.25-160.58,70.83-10.41,136.54-26.45,195.32-47.67,47-17,89.72-37.28,126.93-60.36,63.35-39.3,89.11-73.46,89.36-73.8l.47.35c-.26.34-26,34.57-89.48,73.92-37.25,23.11-80,43.44-127,60.43-58.82,21.24-124.59,37.29-195.47,47.7C1179.3,391.9,1016.11,445.9,880.94,525,744.48,604.8,639,708.81,567.38,834.1c-31,54.32-67.87,98-109.45,129.86a326.75,326.75,0,0,1-128.25,59.75A392.83,392.83,0,0,1,243.61,1032.81Z"/><path class="cls-1" d="M216.81,1007.56c-14.55,0-29.53-.76-45.05-2.28C129.7,1001.16,84.3,991.44,33,975.59l.14-.48c51.29,15.85,96.65,25.55,138.68,29.67,48.33,4.74,91.6,2.11,132.27-8,44.27-11,85.51-31.49,122.6-60.79,40-31.65,76.94-74.94,109.66-128.68,37.26-61.19,86-116.36,144.83-164,54.54-44.14,119.92-83.52,194.32-117,68.44-30.83,144.39-57.07,232.17-80.2,76.53-20.16,161.06-37.65,258.42-53.46,70.69-11.48,136.65-28.46,196.07-50.46,47.53-17.61,91-38.45,129.19-61.95,65-40,92.56-74.32,92.83-74.67l.39.31c-.27.35-27.84,34.71-92.93,74.77-38.23,23.52-81.72,44.38-129.29,62-59.45,22-125.45,39-196.18,50.49-97.34,15.81-181.86,33.29-258.37,53.46-87.76,23.12-163.68,49.34-232.1,80.17-74.35,33.49-139.69,72.85-194.2,117C622.69,691.27,574,746.4,536.76,807.54,504,861.33,467.08,904.66,427,936.35c-37.14,29.35-78.45,49.84-122.79,60.89A359,359,0,0,1,216.81,1007.56Z"/><path class="cls-1" d="M190.48,982.37q-18.25,0-37.52-1.74c-40.31-3.63-84.65-13-135.55-28.76l.12-.4C68.4,967.19,112.71,976.59,153,980.21c45.86,4.13,87,.92,125.66-9.81,42.08-11.68,80.4-31.94,117.16-61.95,39-31.87,75-73.64,110-127.69a508.8,508.8,0,0,1,64.56-80.43A563.92,563.92,0,0,1,648.2,634.8c52.65-36.93,114.13-68,187.94-94.93,137.13-50.07,297.4-78,452.39-104.95,25.51-4.44,51.88-9,77.74-13.65,70.54-12.6,136.75-30.55,196.8-53.35,48-18.24,92.26-39.61,131.44-63.52,66.72-40.71,96-75.11,96.33-75.45l.32.27c-.29.34-29.64,34.78-96.41,75.52-39.2,23.92-83.45,45.31-131.52,63.56-60.08,22.82-126.32,40.78-196.88,53.38-25.87,4.62-52.24,9.21-77.75,13.65-155,27-315.22,54.88-452.31,104.93-73.78,26.93-135.23,58-187.86,94.88a562.91,562.91,0,0,0-77.77,65.49A508.33,508.33,0,0,0,506.15,781c-35,54.09-71,95.89-110.06,127.79-36.81,30.05-75.18,50.34-117.32,62A327.54,327.54,0,0,1,190.48,982.37Z"/><path class="cls-1" d="M164.76,957.27q-14.94,0-30.59-1.28c-38.56-3.13-81.85-12.24-132.33-27.84l.09-.32c50.47,15.59,93.73,24.7,132.26,27.83,43.43,3.53,82.39-.26,119.08-11.59C292.53,932,329.08,911.32,365,881c37.36-31.53,73.42-73,110.25-126.74a436,436,0,0,1,56.8-67.12,473.14,473.14,0,0,1,67.34-53.74c45.28-29.94,97.68-54.47,160.19-75,116.08-38.09,250-56.05,379.55-73.41,75.66-10.15,153.89-20.64,227.33-35,70.36-13.77,136.81-32.73,197.49-56.34,48.55-18.89,93.53-40.79,133.71-65.08,68.41-41.37,99.53-75.8,99.84-76.15l.24.22c-.3.35-31.45,34.81-99.89,76.2-40.2,24.31-85.2,46.22-133.77,65.12-60.7,23.62-127.17,42.58-197.56,56.36-73.45,14.37-151.69,24.86-227.35,35-129.51,17.36-263.43,35.32-379.48,73.4-62.49,20.51-114.86,45-160.11,74.95a473.23,473.23,0,0,0-67.3,53.7,435.28,435.28,0,0,0-56.75,67.07c-36.85,53.77-72.94,95.25-110.31,126.81-36,30.37-72.56,51-111.86,63.16C225.46,953,196.25,957.27,164.76,957.27Z"/><path class="cls-1" d="M139.66,932.26q-11.9,0-24.27-.89C78.07,928.68,37,920.12-13.74,904.43l.07-.24c50.76,15.69,91.78,24.24,129.07,26.93,41,3,77.82-1.41,112.52-13.34,36.4-12.51,71.18-33.52,106.32-64.24,35.5-31,71.64-72.19,110.48-125.83a384.83,384.83,0,0,1,54.36-60.39,415.43,415.43,0,0,1,64-47c42.9-25.69,92.34-45.79,151.15-61.45,109.09-29,233.59-37.73,354-46.13,101.47-7.09,206.4-14.41,298.42-34.09,70.18-15,136.86-35,198.17-59.45,49.05-19.55,94.8-42,136-66.64,70.1-42,103-76.38,103.36-76.72l.18.17c-.32.35-33.28,34.76-103.42,76.77-41.18,24.67-86.94,47.09-136,66.65-61.33,24.45-128,44.45-198.21,59.46-92,19.69-197,27-298.46,34.1-120.4,8.4-244.89,17.09-354,46.12-58.78,15.65-108.2,35.74-151.08,61.42a415.08,415.08,0,0,0-64,47,384.25,384.25,0,0,0-54.32,60.35c-38.86,53.66-75,94.84-110.53,125.88-35.16,30.74-70,51.77-106.4,64.29C200.26,927.56,171.17,932.26,139.66,932.26Z"/></svg>