<?xml version="1.0" encoding="UTF-8"?>
<svg width="92px" height="91px" viewBox="0 0 92 91" version="1.1" xmlns="http://www.w3.org/2000/svg" xmlns:xlink="http://www.w3.org/1999/xlink">
    <!-- Generator: Sketch 61.2 (89653) - https://sketch.com -->
    <title>Group 23</title>
    <desc>Created with Sketch.</desc>
    <g id="Page-1" stroke="none" stroke-width="1" fill="none" fill-rule="evenodd">
        <g id="Desktop-HD-Copy-8" transform="translate(-1069.000000, -1096.000000)" fill-rule="nonzero">
            <g id="Group-9" transform="translate(216.000000, 882.000000)">
                <g id="Group-23" transform="translate(854.000000, 214.000000)">
                    <g id="Asset-9texture">
                        <g id="Group" transform="translate(28.831169, 0.129870)" stroke="#000000" stroke-linejoin="round">
                            <polygon id="Path" fill="#FFD662" points="50.6727273 15.187013 25.5116883 29.8051948 0.194805195 15.187013 25.3480519 0.568831169"></polygon>
                            <polygon id="Path" fill="#D2AB3F" points="50.6727273 15.187013 50.587013 59.2831169 25.4337662 73.9012987 25.5116883 29.8051948"></polygon>
                            <polygon id="Path" fill="#F8DF98" points="25.4337662 73.9012987 0.116883117 59.2831169 0.194805195 15.187013 25.5116883 29.8051948"></polygon>
                        </g>
                        <rect id="Rectangle" fill="#D3EBE6" x="6.28831169" y="20.038961" width="7.11428571" height="7.11428571"></rect>
                        <rect id="Rectangle" fill="#D3EBE6" x="16.0675325" y="28.7818182" width="3.04675325" height="3.04675325" rx="1.5"></rect>
                        <rect id="Rectangle" fill="#D3EBE6" x="83.3454545" y="29.7792208" width="7.11428571" height="7.11428571"></rect>
                        <polygon id="Path" stroke="#000000" fill="#EC7E7C" stroke-linejoin="round" points="50.5558442 47.9584416 25.3948052 62.5766234 0.0779220779 47.9584416 25.2311688 33.3402597"></polygon>
                        <polygon id="Path" stroke="#000000" fill="#CB5D5B" stroke-linejoin="round" points="50.5558442 47.9584416 50.4779221 75.6675325 25.3168831 90.2857143 25.3948052 62.5766234"></polygon>
                        <polygon id="Path" stroke="#000000" fill="#CB5D5B" stroke-linejoin="round" points="25.3948052 62.5766234 25.3168831 90.2857143 -1.22213351e-12 75.6675325 0.0779220779 47.9584416"></polygon>
                    </g>
                </g>
            </g>
        </g>
    </g>
</svg>