<?xml version="1.0" encoding="UTF-8"?>
<svg width="68px" height="100px" viewBox="0 0 68 100" version="1.1" xmlns="http://www.w3.org/2000/svg" xmlns:xlink="http://www.w3.org/1999/xlink">
    <!-- Generator: Sketch 61.2 (89653) - https://sketch.com -->
    <title>Group 9</title>
    <desc>Created with Sketch.</desc>
    <g id="Page-1" stroke="none" stroke-width="1" fill="none" fill-rule="evenodd">
        <g id="Desktop-HD-Copy-8" transform="translate(-552.000000, -1095.000000)" fill-rule="nonzero">
            <g id="Group-9" transform="translate(553.480488, 1096.000000)">
                <polygon id="Path" stroke="#000000" fill="#FFD662" points="65.2902439 43.0170732 32.5902439 24.1317073 13.1121951 35.4512195 46.0902439 54.1756098"></polygon>
                <polygon id="Path" stroke="#000000" fill="#D2AB3F" points="65.2902439 43.0170732 46.0902439 54.1756098 46.097561 54.1829268 46.097561 89.897561 65.1878049 78.804878"></polygon>
                <polygon id="Path" stroke="#9ACAC9" fill="#D3EBE6" points="5.43658537 2.13162821e-14 5.43658537 66.4536585 46.097561 89.9487805 46.097561 23.495122"></polygon>
                <polygon id="Path" stroke="#000000" fill="#EC7E7C" points="13.1121951 35.4512195 0.102439024 43.0170732 32.802439 61.895122 46.0902439 54.1756098"></polygon>
                <polygon id="Path" stroke="#000000" fill="#CB5D5B" points="46.0902439 54.1756098 32.802439 61.895122 32.7 97.6829268 46.097561 89.897561 46.097561 54.1829268"></polygon>
                <polygon id="Path" stroke="#000000" fill="#FFB0AF" points="32.7 97.6829268 7.78044296e-13 78.804878 0.102439024 43.0170732 32.802439 61.895122"></polygon>
                <rect id="Rectangle" fill="#D3EBE6" x="53.0780488" y="16.8731707" width="5.12926829" height="5.12926829"></rect>
                <rect id="Rectangle" fill="#D3EBE6" x="60.1317073" y="23.1804878" width="2.19512195" height="2.19512195" rx="1.09756098"></rect>
                <rect id="Rectangle" fill="#D3EBE6" x="-8.85957974e-14" y="36.9219512" width="2.19512195" height="2.19512195" rx="1.09756098"></rect>
            </g>
        </g>
    </g>
</svg>