<?xml version="1.0" encoding="utf-8"?>
<!-- Generator: Adobe Illustrator 23.0.2, SVG Export Plug-In . SVG Version: 6.00 Build 0)  -->
<svg version="1.1" id="Layer_1" xmlns="http://www.w3.org/2000/svg" xmlns:xlink="http://www.w3.org/1999/xlink" x="0px" y="0px"
	 viewBox="0 0 36 36" style="enable-background:new 0 0 36 36;" xml:space="preserve">
<style type="text/css">
	.st0{fill:#E01E5A;}
	.st1{fill:#36C5F0;}
	.st2{fill:#2EB67D;}
	.st3{fill:#ECB22E;}
</style>
<g>
	<g>
		<g>
			<path class="st0" d="M7.7,22.7c0,2.1-1.7,3.7-3.7,3.7s-3.7-1.7-3.7-3.7S2,19,4,19h3.7V22.7z"/>
			<path class="st0" d="M9.6,22.7c0-2.1,1.7-3.7,3.7-3.7s3.7,1.7,3.7,3.7V32c0,2.1-1.7,3.7-3.7,3.7S9.6,34.1,9.6,32V22.7z"/>
		</g>
		<g>
			<path class="st1" d="M13.3,7.7c-2.1,0-3.7-1.7-3.7-3.7c0-2.1,1.7-3.7,3.7-3.7s3.7,1.7,3.7,3.7v3.7H13.3z"/>
			<path class="st1" d="M13.3,9.6c2.1,0,3.7,1.7,3.7,3.7s-1.7,3.7-3.7,3.7H4c-2.1,0-3.7-1.7-3.7-3.7c0-2.1,1.7-3.7,3.7-3.7H13.3z"/>
		</g>
		<g>
			<path class="st2" d="M28.3,13.3c0-2.1,1.7-3.7,3.7-3.7s3.7,1.7,3.7,3.7S34,17.1,32,17.1h-3.7V13.3z"/>
			<path class="st2" d="M26.4,13.3c0,2.1-1.7,3.7-3.7,3.7s-3.7-1.7-3.7-3.7V4c0-2.1,1.7-3.7,3.7-3.7s3.7,1.7,3.7,3.7V13.3z"/>
		</g>
		<g>
			<path class="st3" d="M22.7,28.3c2.1,0,3.7,1.7,3.7,3.7s-1.7,3.7-3.7,3.7s-3.7-1.7-3.7-3.7v-3.7H22.7z"/>
			<path class="st3" d="M22.7,26.4c-2.1,0-3.7-1.7-3.7-3.7s1.7-3.7,3.7-3.7H32c2.1,0,3.7,1.7,3.7,3.7s-1.7,3.7-3.7,3.7H22.7z"/>
		</g>
	</g>
</g>
</svg>
