<?xml version="1.0" encoding="UTF-8"?>
<svg width="155px" height="163px" viewBox="0 0 155 163" version="1.1" xmlns="http://www.w3.org/2000/svg" xmlns:xlink="http://www.w3.org/1999/xlink">
    <!-- Generator: Sketch 52.6 (67491) - http://www.bohemiancoding.com/sketch -->
    <title>Fill 1</title>
    <desc>Created with Sketch.</desc>
    <g id="Page-1" stroke="none" stroke-width="1" fill="none" fill-rule="evenodd">
        <path d="M112.621548,117.062548 C100.648548,117.035548 90.9645483,107.305548 90.9915483,95.3335483 C91.0195483,83.3595483 100.748548,73.6755483 112.722548,73.7025483 C124.680548,73.7305483 134.357548,83.4345483 134.351548,95.3925483 C134.351548,107.366548 124.645548,117.072548 112.672548,117.072548 M119.142548,53.6425483 L119.142548,34.3925483 C124.343548,31.9635483 127.676548,26.7525483 127.701548,21.0125483 L127.701548,20.5625483 C127.680548,12.3815483 121.053548,5.75454829 112.871548,5.73254829 L112.422548,5.73254829 C104.240548,5.75454829 97.6135483,12.3815483 97.5925483,20.5625483 L97.5925483,21.0125483 C97.6175483,26.7525483 100.950548,31.9635483 106.151548,34.3925483 L106.151548,53.6825483 C98.8265483,54.8025483 91.9275483,57.8385483 86.1515483,62.4825483 L33.2115483,21.2525483 C35.6195483,12.2405483 30.2645483,2.98354829 21.2525483,0.576548289 C12.2405483,-1.83145171 2.98354829,3.52354829 0.576548289,12.5355483 C-1.83145171,21.5475483 3.52354829,30.8045483 12.5355483,33.2115483 C16.8445483,34.3625483 21.4335483,33.7625483 25.3025483,31.5425483 L77.3515483,72.0625483 C67.7575483,86.5385483 68.0155483,105.415548 78.0015483,119.623548 L62.1625483,135.462548 C60.8905483,135.057548 59.5665483,134.841548 58.2315483,134.822548 C50.6385483,134.822548 44.4815483,140.978548 44.4815483,148.572548 C44.4815483,156.166548 50.6385483,162.322548 58.2315483,162.322548 C65.8265483,162.322548 71.9815483,156.166548 71.9815483,148.572548 C71.9635483,147.238548 71.7475483,145.914548 71.3425483,144.642548 L87.0125483,128.972548 C105.555548,143.136548 132.069548,139.585548 146.233548,121.042548 C160.397548,102.499548 156.848548,75.9845483 138.304548,61.8205483 C132.690548,57.5335483 126.092548,54.7215483 119.111548,53.6425483" id="Fill-1" fill="#FF7A59"></path>
    </g>
</svg>