<?xml version="1.0" encoding="UTF-8" standalone="no"?>
<svg width="1440px" height="537px" viewBox="0 0 1440 537" version="1.1" xmlns="http://www.w3.org/2000/svg" xmlns:xlink="http://www.w3.org/1999/xlink" xmlns:sketch="http://www.bohemiancoding.com/sketch/ns">
    <!-- Generator: Sketch 3.4.4 (17249) - http://www.bohemiancoding.com/sketch -->
    <title>stories</title>
    <desc>Created with Sketch.</desc>
    <defs></defs>
    <g id="Page-1" stroke="none" stroke-width="1" fill="none" fill-rule="evenodd" sketch:type="MSPage">
        <g id="year-in-review-copy-2" sketch:type="MSArtboardGroup" transform="translate(0.000000, -4427.000000)" fill="#000000">
            <path d="M6.09097824,4963.79 C66.6809782,4963.79 123.120978,4918.97 123.120978,4863.36 C122.290978,4817.71 80.7909782,4780.36 50.9109782,4752.97 C16.0509782,4721.43 -6.35902176,4698.19 -6.35902176,4667.48 C-7.18902176,4631.79 14.3909782,4600.25 57.5509782,4596.93 C81.6209782,4596.93 102.370978,4607.72 118.970978,4623.49 C107.350978,4628.47 99.8809782,4639.26 99.8809782,4651.71 C99.8809782,4668.31 110.670978,4679.93 125.610978,4679.93 C141.380978,4679.93 155.490978,4667.48 155.490978,4645.9 C154.660978,4606.06 118.140978,4584.48 70.0009782,4584.48 C17.7109782,4584.48 -41.2190218,4625.98 -40.3890218,4682.42 C-39.5590218,4723.09 -9.67902176,4752.14 26.0109782,4786.17 C55.0609782,4814.39 86.6009782,4842.61 87.4309782,4877.47 C88.2609782,4909.84 69.1709782,4948.02 20.2009782,4952.17 C-12.1690218,4951.34 -38.7290218,4936.4 -56.1590218,4920.63 C-45.3690218,4916.48 -35.4090218,4904.03 -35.4090218,4892.41 C-35.4090218,4876.64 -47.0290218,4864.19 -62.7990218,4864.19 C-78.5690218,4864.19 -91.0190218,4879.13 -91.0190218,4899.05 C-91.0190218,4938.89 -47.8590218,4963.79 6.09097824,4963.79 L6.09097824,4963.79 Z M195.65927,4963.79 C219.72927,4963.79 257.90927,4922.29 292.76927,4855.06 L285.29927,4848.42 L223.04927,4934.74 L184.03927,4929.76 L267.86927,4621.83 L351.69927,4621.83 L355.01927,4596.93 L275.33927,4596.1 L306.04927,4483.22 L267.86927,4483.22 L237.15927,4594.44 L173.24927,4598.59 L167.43927,4621 L229.68927,4621.83 L146.68927,4931.42 C142.53927,4943.87 179.05927,4963.79 195.65927,4963.79 L195.65927,4963.79 Z M408.467562,4963.79 C502.257562,4963.79 583.597562,4840.12 583.597562,4731.39 C583.597562,4649.22 547.907562,4584.48 483.167562,4584.48 C393.527562,4584.48 312.187562,4718.94 312.187562,4825.18 C312.187562,4891.58 336.257562,4963.79 408.467562,4963.79 L408.467562,4963.79 Z M403.487562,4950.51 C366.137562,4950.51 349.537562,4909.84 349.537562,4856.72 C349.537562,4835.97 355.347562,4791.15 365.307562,4757.95 C389.377562,4681.59 435.857562,4598.59 488.147562,4598.59 C527.157562,4598.59 545.417562,4637.6 545.417562,4698.19 C545.417562,4728.9 538.777562,4773.72 528.817562,4806.09 C504.747562,4884.11 456.607562,4950.51 403.487562,4950.51 L403.487562,4950.51 Z M641.195854,4955.49 L679.375854,4841.78 C752.415854,4705.66 813.835854,4612.7 827.945854,4606.06 L849.525854,4615.19 C824.625854,4640.92 846.205854,4663.33 864.465854,4663.33 C881.895854,4663.33 896.835854,4649.22 896.835854,4629.3 C896.835854,4606.89 878.575854,4583.65 851.185854,4583.65 C824.625854,4583.65 813.835854,4595.27 789.765854,4632.62 C771.505854,4650.88 725.855854,4731.39 685.185854,4808.58 L681.035854,4808.58 C712.575854,4710.64 729.175854,4649.22 729.175854,4630.13 C729.175854,4608.55 711.745854,4583.65 695.975854,4583.65 C666.095854,4583.65 627.085854,4625.15 592.225854,4693.21 L599.695854,4699.85 L661.115854,4613.53 L695.145854,4617.68 L642.025854,4819.37 L598.865854,4951.34 L641.195854,4955.49 Z M1033.28415,4500.65 C1049.88415,4500.65 1066.48415,4479.9 1066.48415,4456.66 C1066.48415,4440.06 1055.69415,4427.61 1037.43415,4427.61 C1021.66415,4427.61 1005.06415,4448.36 1005.06415,4470.77 C1005.06415,4488.2 1015.85415,4500.65 1033.28415,4500.65 L1033.28415,4500.65 Z M917.914146,4963.79 C940.324146,4963.79 979.334146,4922.29 1015.02415,4855.06 L1007.55415,4848.42 L943.644146,4934.74 L907.124146,4929.76 C907.124146,4929.76 1013.36415,4647.56 1013.36415,4630.96 C1014.19415,4609.38 995.934146,4584.48 979.334146,4584.48 C949.454146,4584.48 910.444146,4625.98 875.584146,4693.21 L883.054146,4699.85 L945.304146,4613.53 L981.824146,4617.68 C981.824146,4617.68 870.604146,4927.27 870.604146,4933.08 C869.774146,4943.87 901.314146,4963.79 917.914146,4963.79 L917.914146,4963.79 Z M1120.76244,4963.79 C1171.39244,4963.79 1219.53244,4912.33 1254.39244,4857.55 L1246.09244,4850.91 C1210.40244,4905.69 1174.71244,4933.91 1138.19244,4933.91 C1098.35244,4933.91 1067.64244,4896.56 1067.64244,4831.82 C1067.64244,4811.07 1070.96244,4790.32 1076.77244,4768.74 C1232.81244,4720.6 1290.08244,4693.21 1290.08244,4640.92 C1290.08244,4611.04 1257.71244,4584.48 1212.89244,4584.48 C1122.42244,4584.48 1024.48244,4713.96 1024.48244,4845.1 C1024.48244,4909.84 1061.00244,4963.79 1120.76244,4963.79 L1120.76244,4963.79 Z M1081.75244,4755.46 C1081.75244,4756.29 1080.09244,4754.63 1080.09244,4754.63 C1094.20244,4702.34 1121.59244,4651.71 1146.49244,4627.64 C1164.75244,4610.21 1185.50244,4596.93 1203.76244,4596.93 C1230.32244,4596.93 1246.92244,4616.85 1246.92244,4640.92 C1246.92244,4692.38 1212.06244,4718.11 1081.75244,4755.46 L1081.75244,4755.46 Z M1345.19073,4963.79 C1405.78073,4963.79 1462.22073,4918.97 1462.22073,4863.36 C1461.39073,4817.71 1419.89073,4780.36 1390.01073,4752.97 C1355.15073,4721.43 1332.74073,4698.19 1332.74073,4667.48 C1331.91073,4631.79 1353.49073,4600.25 1396.65073,4596.93 C1420.72073,4596.93 1441.47073,4607.72 1458.07073,4623.49 C1446.45073,4628.47 1438.98073,4639.26 1438.98073,4651.71 C1438.98073,4668.31 1449.77073,4679.93 1464.71073,4679.93 C1480.48073,4679.93 1494.59073,4667.48 1494.59073,4645.9 C1493.76073,4606.06 1457.24073,4584.48 1409.10073,4584.48 C1356.81073,4584.48 1297.88073,4625.98 1298.71073,4682.42 C1299.54073,4723.09 1329.42073,4752.14 1365.11073,4786.17 C1394.16073,4814.39 1425.70073,4842.61 1426.53073,4877.47 C1427.36073,4909.84 1408.27073,4948.02 1359.30073,4952.17 C1326.93073,4951.34 1300.37073,4936.4 1282.94073,4920.63 C1293.73073,4916.48 1303.69073,4904.03 1303.69073,4892.41 C1303.69073,4876.64 1292.07073,4864.19 1276.30073,4864.19 C1260.53073,4864.19 1248.08073,4879.13 1248.08073,4899.05 C1248.08073,4938.89 1291.24073,4963.79 1345.19073,4963.79 L1345.19073,4963.79 Z" id="stories" sketch:type="MSShapeGroup"></path>
        </g>
    </g>
</svg>