<?xml version="1.0" encoding="UTF-8" standalone="no"?>
<svg width="596px" height="214px" viewBox="0 0 596 214" version="1.1" xmlns="http://www.w3.org/2000/svg" xmlns:xlink="http://www.w3.org/1999/xlink" xmlns:sketch="http://www.bohemiancoding.com/sketch/ns">
    <!-- Generator: Sketch 3.4.4 (17249) - http://www.bohemiancoding.com/sketch -->
    <title>Group</title>
    <desc>Created with Sketch.</desc>
    <defs></defs>
    <g id="Page-1" stroke="none" stroke-width="1" fill="none" fill-rule="evenodd" sketch:type="MSPage">
        <g id="year-in-review" sketch:type="MSArtboardGroup" transform="translate(-422.000000, -1230.000000)">
            <g id="Group" sketch:type="MSLayerGroup" transform="translate(422.000000, 1230.000000)">
                <path d="M428,214 C428,95.8110635 332.188936,0 214,0 C95.8110635,0 0,95.8110635 0,214 L428,214 Z" id="Oval-1" opacity="0.9" fill="#D02112" sketch:type="MSShapeGroup"></path>
                <path d="M596,214 C596,95.8110635 500.188936,0 382,0 C263.811064,0 168,95.8110635 168,214 L596,214 Z" id="Oval-1-Copy" opacity="0.9" fill="#7EA3A2" sketch:type="MSShapeGroup"></path>
                <path d="M298,17.1153915 C374.434243,49.7677934 428,125.62842 428,214 L298,214 L168,214 C168,125.62842 221.565757,49.7677934 298,17.1153915 Z" id="Oval-1-Copy-3" opacity="0.9" fill="#4A171C" sketch:type="MSShapeGroup"></path>
                <path d="M282.936,86 L286.512,86 L286.512,72.392 L291.528,72.392 L291.528,69.464 L277.896,69.464 L277.896,72.392 L282.936,72.392 L282.936,86 Z M293.304,68.48 L293.304,86 L296.76,86 L296.76,79.4 C296.76,77.504 297.12,76.064 299.04,76.064 C300.48,76.064 301.056,76.928 301.056,78.536 L301.056,86 L304.464,86 L304.464,78.032 C304.464,74.672 302.616,73.28 300.312,73.28 C298.296,73.28 297.288,74.24 296.76,75.056 L296.76,68.48 L293.304,68.48 Z M318.504,80.528 C318.552,80.168 318.552,79.904 318.552,79.472 C318.552,76.376 317.088,73.28 312.84,73.28 C308.832,73.28 306.84,76.064 306.84,79.976 C306.84,83.24 308.616,86.288 312.72,86.288 C316.608,86.288 317.976,83.792 318.408,82.28 L314.976,82.28 C314.64,83.024 314.232,83.6 312.792,83.6 C311.088,83.6 310.296,82.088 310.296,80.528 L318.504,80.528 Z M310.368,78.416 C310.512,76.88 311.184,75.752 312.816,75.752 C314.496,75.752 315.072,76.976 315.096,78.416 L310.368,78.416 Z M239.676,114.80001 L243.252,114.80001 L243.252,101.19201 L248.268,101.19201 L248.268,98.2640097 L234.636,98.2640097 L234.636,101.19201 L239.676,101.19201 L239.676,114.80001 Z M258.852,109.32801 C258.9,108.96801 258.9,108.70401 258.9,108.27201 C258.9,105.17601 257.436,102.08001 253.188,102.08001 C249.18,102.08001 247.188,104.86401 247.188,108.77601 C247.188,112.04001 248.964,115.08801 253.068,115.08801 C256.956,115.08801 258.324,112.59201 258.756,111.08001 L255.324,111.08001 C254.988,111.82401 254.58,112.40001 253.14,112.40001 C251.436,112.40001 250.644,110.88801 250.644,109.32801 L258.852,109.32801 Z M250.716,107.21601 C250.86,105.68001 251.532,104.55201 253.164,104.55201 C254.844,104.55201 255.42,105.77601 255.444,107.21601 L250.716,107.21601 Z M268.836,110.79201 C268.524,111.72801 267.9,112.42401 266.7,112.42401 C265.212,112.42401 264.252,111.22401 264.252,108.56001 C264.252,106.16001 265.14,104.79201 266.724,104.79201 C268.068,104.79201 268.644,105.48801 268.86,106.49601 L272.196,106.49601 C272.148,105.10401 270.972,102.08001 266.796,102.08001 C263.004,102.08001 260.772,105.00801 260.772,108.68001 C260.772,112.42401 262.764,115.08801 266.628,115.08801 C270.324,115.08801 271.788,112.85601 272.196,110.79201 L268.836,110.79201 Z M274.38,97.2800097 L274.38,114.80001 L277.836,114.80001 L277.836,108.20001 C277.836,106.30401 278.196,104.86401 280.116,104.86401 C281.556,104.86401 282.132,105.72801 282.132,107.33601 L282.132,114.80001 L285.54,114.80001 L285.54,106.83201 C285.54,103.47201 283.692,102.08001 281.388,102.08001 C279.372,102.08001 278.364,103.04001 277.836,103.85601 L277.836,97.2800097 L274.38,97.2800097 Z M288.66,114.80001 L292.116,114.80001 L292.116,107.88801 C292.116,105.68001 292.932,104.86401 294.396,104.86401 C295.932,104.86401 296.388,105.87201 296.388,107.28801 L296.388,114.80001 L299.82,114.80001 L299.82,106.90401 C299.82,103.78401 298.212,102.08001 295.716,102.08001 C293.532,102.08001 292.524,103.18401 292.116,103.95201 C292.092,103.56801 292.044,102.70401 291.972,102.36801 L288.636,102.36801 C288.66,103.30401 288.66,104.45601 288.66,105.51201 L288.66,114.80001 Z M308.412,102.08001 C304.476,102.08001 302.148,104.79201 302.148,108.63201 C302.148,112.32801 304.404,115.08801 308.244,115.08801 C312.18,115.08801 314.436,112.32801 314.436,108.56001 C314.436,104.67201 312.06,102.08001 308.412,102.08001 L308.412,102.08001 Z M308.268,104.79201 C309.996,104.79201 310.956,106.01601 310.956,108.60801 C310.956,110.98401 310.02,112.40001 308.316,112.40001 C306.66,112.40001 305.628,110.98401 305.628,108.58401 C305.628,105.96801 306.684,104.79201 308.268,104.79201 L308.268,104.79201 Z M320.244,114.80001 L320.244,97.2800097 L316.788,97.2800097 L316.788,114.80001 L320.244,114.80001 Z M328.86,102.08001 C324.924,102.08001 322.596,104.79201 322.596,108.63201 C322.596,112.32801 324.852,115.08801 328.692,115.08801 C332.628,115.08801 334.884,112.32801 334.884,108.56001 C334.884,104.67201 332.508,102.08001 328.86,102.08001 L328.86,102.08001 Z M328.716,104.79201 C330.444,104.79201 331.404,106.01601 331.404,108.60801 C331.404,110.98401 330.468,112.40001 328.764,112.40001 C327.108,112.40001 326.076,110.98401 326.076,108.58401 C326.076,105.96801 327.132,104.79201 328.716,104.79201 L328.716,104.79201 Z M348.636,105.94401 C348.636,104.74401 348.66,103.49601 348.66,102.36801 L345.42,102.36801 C345.396,102.58401 345.3,103.32801 345.276,103.66401 C345.084,103.08801 344.196,102.08001 342.06,102.08001 C338.964,102.08001 336.636,104.74401 336.636,108.63201 C336.636,111.96801 338.508,114.65601 341.772,114.65601 C343.596,114.65601 344.628,113.98401 345.276,112.90401 L345.276,113.50401 C345.276,115.92801 344.844,117.29601 342.612,117.29601 C341.292,117.29601 340.668,116.72001 340.428,115.85601 L336.924,115.85601 C337.044,117.27201 337.932,119.79201 342.468,119.79201 C347.172,119.79201 348.636,117.27201 348.636,113.28801 L348.636,105.94401 Z M340.164,108.48801 C340.164,105.99201 341.34,104.84001 342.828,104.84001 C345.012,104.84001 345.372,106.28001 345.372,108.36801 C345.372,110.45601 344.82,111.87201 342.756,111.87201 C341.244,111.87201 340.164,110.62401 340.164,108.48801 L340.164,108.48801 Z M350.268,102.36801 L354.804,115.18401 C354.324,116.55201 353.7,116.98401 352.428,116.98401 C352.14,116.98401 351.78,116.96001 351.54,116.93601 L351.54,119.69601 C352.14,119.76801 352.836,119.79201 353.148,119.79201 C356.124,119.79201 357.132,118.73601 358.308,115.16001 L362.484,102.36801 L359.052,102.36801 C357.588,107.60001 356.844,110.38401 356.58,111.63201 L356.556,111.63201 C356.364,110.48001 355.236,106.66401 353.964,102.36801 L350.268,102.36801 Z M262.944,136.976019 C265.608,136.976019 266.064,137.840019 266.064,139.640019 L266.064,139.880019 C266.064,141.632019 266.112,142.880019 266.4,143.600019 L269.808,143.600019 C269.568,142.832019 269.568,141.560019 269.568,140.456019 L269.568,139.640019 C269.568,136.664019 268.32,135.824019 267.504,135.512019 C268.704,135.008019 269.904,133.808019 269.904,131.600019 C269.904,129.032019 267.96,127.064019 264.36,127.064019 L257.088,127.064019 L257.088,143.600019 L260.592,143.600019 L260.592,136.976019 L262.944,136.976019 Z M260.592,129.896019 L263.664,129.896019 C265.416,129.896019 266.304,130.664019 266.304,132.008019 C266.304,133.376019 265.536,134.120019 263.592,134.120019 L260.592,134.120019 L260.592,129.896019 Z M282.864,135.176019 C282.864,132.200019 281.04,130.904019 277.728,130.880019 C273.936,130.880019 272.568,132.656019 272.4,134.864019 L275.664,134.864019 C275.808,133.952019 276.144,133.352019 277.584,133.352019 C279.192,133.352019 279.504,134.216019 279.504,135.104019 L279.504,135.848019 L277.728,135.848019 C274.08,135.848019 271.824,137.168019 271.824,140.000019 C271.824,141.920019 273.072,143.888019 276.072,143.888019 C278.28,143.888019 279.12,143.072019 279.576,142.376019 C279.576,142.688019 279.648,143.360019 279.744,143.600019 L283.032,143.600019 C282.96,143.312019 282.864,141.584019 282.864,140.384019 L282.864,135.176019 Z M279.504,138.272019 C279.504,139.904019 279.24,141.440019 277.056,141.440019 C275.808,141.440019 275.256,140.672019 275.256,139.784019 C275.256,138.584019 276.024,137.936019 278.112,137.936019 L279.504,137.936019 L279.504,138.272019 Z M284.52,133.760019 L286.44,133.760019 L286.44,140.288019 C286.44,142.472019 287.232,143.768019 289.656,143.768019 C290.352,143.768019 291.288,143.768019 291.96,143.528019 L291.96,141.176019 C291.72,141.200019 291.384,141.200019 291.192,141.200019 C290.16,141.200019 289.872,140.840019 289.872,139.904019 L289.872,133.760019 L292.32,133.760019 L292.32,131.168019 L289.872,131.168019 L289.872,127.808019 L286.44,127.808019 L286.44,131.168019 L284.52,131.168019 L284.52,133.760019 Z M301.584,139.592019 C301.272,140.528019 300.648,141.224019 299.448,141.224019 C297.96,141.224019 297,140.024019 297,137.360019 C297,134.960019 297.888,133.592019 299.472,133.592019 C300.816,133.592019 301.392,134.288019 301.608,135.296019 L304.944,135.296019 C304.896,133.904019 303.72,130.880019 299.544,130.880019 C295.752,130.880019 293.52,133.808019 293.52,137.480019 C293.52,141.224019 295.512,143.888019 299.376,143.888019 C303.072,143.888019 304.536,141.656019 304.944,139.592019 L301.584,139.592019 Z M307.128,126.080019 L307.128,143.600019 L310.584,143.600019 L310.584,137.000019 C310.584,135.104019 310.944,133.664019 312.864,133.664019 C314.304,133.664019 314.88,134.528019 314.88,136.136019 L314.88,143.600019 L318.288,143.600019 L318.288,135.632019 C318.288,132.272019 316.44,130.880019 314.136,130.880019 C312.12,130.880019 311.112,131.840019 310.584,132.656019 L310.584,126.080019 L307.128,126.080019 Z M332.328,138.128019 C332.376,137.768019 332.376,137.504019 332.376,137.072019 C332.376,133.976019 330.912,130.880019 326.664,130.880019 C322.656,130.880019 320.664,133.664019 320.664,137.576019 C320.664,140.840019 322.44,143.888019 326.544,143.888019 C330.432,143.888019 331.8,141.392019 332.232,139.880019 L328.8,139.880019 C328.464,140.624019 328.056,141.200019 326.616,141.200019 C324.912,141.200019 324.12,139.688019 324.12,138.128019 L332.328,138.128019 Z M324.192,136.016019 C324.336,134.480019 325.008,133.352019 326.64,133.352019 C328.32,133.352019 328.896,134.576019 328.92,136.016019 L324.192,136.016019 Z M333.504,133.760019 L335.424,133.760019 L335.424,140.288019 C335.424,142.472019 336.216,143.768019 338.64,143.768019 C339.336,143.768019 340.272,143.768019 340.944,143.528019 L340.944,141.176019 C340.704,141.200019 340.368,141.200019 340.176,141.200019 C339.144,141.200019 338.856,140.840019 338.856,139.904019 L338.856,133.760019 L341.304,133.760019 L341.304,131.168019 L338.856,131.168019 L338.856,127.808019 L335.424,127.808019 L335.424,131.168019 L333.504,131.168019 L333.504,133.760019 Z" id="The-Technology-Ratch-Copy" fill="#FFFFFF" sketch:type="MSShapeGroup"></path>
                <path d="M246.7125,176.075 C246.9375,177.725 248.1075,179.135 250.7325,179.135 C253.3275,179.135 254.6025,177.815 254.6025,176.09 C254.6025,174.74 254.0475,173.585 251.0625,172.865 C249.2775,172.43 248.7075,172.055 248.7075,171.125 C248.7075,170.18 249.3975,169.655 250.5975,169.655 C252.0825,169.655 252.6225,170.405 252.7875,171.275 L254.3625,171.275 C254.2125,169.88 253.1775,168.425 250.6425,168.425 C248.2875,168.425 247.1175,169.685 247.1175,171.29 C247.1175,172.745 247.9275,173.615 250.4625,174.23 C252.4875,174.71 252.9975,175.265 252.9975,176.27 C252.9975,177.215 252.3825,177.92 250.8375,177.92 C249.3825,177.92 248.5575,177.275 248.2725,176.075 L246.7125,176.075 Z M265.7175,175.46 C265.7475,175.25 265.7475,175.07 265.7475,174.83 C265.7475,173.15 264.9225,171.185 262.4325,171.185 C260.0775,171.185 258.9225,172.97 258.9225,175.265 C258.9225,177.245 259.9275,179.18 262.3425,179.18 C264.5025,179.18 265.3125,177.83 265.6125,176.855 L264.1275,176.855 C263.9025,177.395 263.5275,177.965 262.3875,177.965 C261.1425,177.965 260.4225,176.9 260.4075,175.46 L265.7175,175.46 Z M260.4525,174.455 C260.5725,173.21 261.1275,172.325 262.4175,172.325 C263.6625,172.325 264.2475,173.27 264.2625,174.455 L260.4525,174.455 Z M269.5125,172.535 L270.8025,172.535 L270.8025,177.17 C270.8025,178.46 271.3125,179.105 272.5725,179.105 C272.9475,179.105 273.4125,179.09 273.7575,178.97 L273.7575,177.875 C273.5625,177.935 273.3075,177.935 273.1275,177.935 C272.4525,177.935 272.2725,177.59 272.2725,176.87 L272.2725,172.535 L273.9225,172.535 L273.9225,171.365 L272.2725,171.365 L272.2725,169.145 L270.8025,169.145 L270.8025,171.365 L269.5125,171.365 L269.5125,172.535 Z M278.2725,168.005 L278.2725,179 L279.7425,179 L279.7425,174.845 C279.7425,173.345 280.2825,172.43 281.6175,172.43 C282.6825,172.43 283.1925,173.12 283.1925,174.365 L283.1925,179 L284.6625,179 L284.6625,174.125 C284.6625,171.89 283.3575,171.185 282.0825,171.185 C280.8075,171.185 280.1175,171.815 279.7425,172.445 L279.7425,168.005 L278.2725,168.005 Z M305.4375,173.33 L301.1175,173.33 L301.1175,174.65 L303.9225,174.65 L303.9225,174.755 C303.9225,176.36 303.3825,177.86 301.1325,177.86 C298.8375,177.86 297.9225,175.91 297.9225,173.825 C297.9225,171.605 298.8075,169.7 301.1775,169.7 C302.8425,169.7 303.6225,170.555 303.9525,171.62 L305.4975,171.62 C305.2125,169.775 303.6675,168.425 301.2075,168.425 C298.0275,168.425 296.3025,170.78 296.3025,173.9 C296.3025,176.87 297.9075,179.15 300.9225,179.15 C302.7225,179.15 303.6375,178.415 304.1175,177.665 C304.1475,178.34 304.1925,178.775 304.2675,179 L305.4375,179 L305.4375,173.33 Z M313.8075,171.185 C311.4825,171.185 310.1625,172.925 310.1625,175.19 C310.1625,177.485 311.4975,179.18 313.7175,179.18 C316.0725,179.18 317.3475,177.395 317.3475,175.16 C317.3475,172.775 315.9525,171.185 313.8075,171.185 L313.8075,171.185 Z M313.7475,172.4 C315.0975,172.4 315.8475,173.495 315.8475,175.19 C315.8475,176.87 315.0975,177.965 313.7775,177.965 C312.4725,177.965 311.6775,176.81 311.6775,175.175 C311.6775,173.465 312.3975,172.4 313.7475,172.4 L313.7475,172.4 Z M327.1125,168.005 L327.1125,172.115 C326.9025,171.695 326.3025,171.185 325.0125,171.185 C322.8825,171.185 321.5775,172.91 321.5775,175.265 C321.5775,177.59 322.7925,179.18 324.7575,179.18 C325.9875,179.18 326.7375,178.73 327.1125,177.965 C327.1125,178.25 327.1425,178.79 327.1725,179 L328.5975,179 C328.5825,178.265 328.5825,177.56 328.5825,176.855 L328.5825,168.005 L327.1125,168.005 Z M323.1075,175.22 C323.1075,173.435 323.8875,172.415 325.1925,172.415 C326.8425,172.415 327.1575,173.465 327.1575,175.085 C327.1575,176.66 326.8125,177.95 325.0875,177.95 C323.9325,177.95 323.1075,176.99 323.1075,175.22 L323.1075,175.22 Z M333.7575,179 L335.2275,179 L335.2275,171.365 L333.7575,171.365 L333.7575,179 Z M335.2275,169.7 L335.2275,168.005 L333.7575,168.005 L333.7575,169.7 L335.2275,169.7 Z M340.4175,179 L341.9025,179 L341.9025,174.92 C341.9025,173.42 342.4575,172.43 343.7925,172.43 C344.9175,172.43 345.3375,173.18 345.3375,174.275 L345.3375,179 L346.8075,179 L346.8075,174.095 C346.8075,172.085 345.7125,171.185 344.2575,171.185 C342.8175,171.185 342.1875,171.935 341.9025,172.565 C341.9025,172.34 341.8725,171.59 341.8425,171.365 L340.4025,171.365 C340.4175,171.95 340.4175,172.625 340.4175,173.285 L340.4175,179 Z" id="Seth-Godin" opacity="0.5" fill="#FFFFFF" sketch:type="MSShapeGroup"></path>
            </g>
        </g>
    </g>
</svg>