<?xml version="1.0" encoding="UTF-8"?>
<svg width="1390px" height="493px" viewBox="0 0 1390 493" version="1.1" xmlns="http://www.w3.org/2000/svg" xmlns:xlink="http://www.w3.org/1999/xlink">
    <!-- Generator: Sketch 52.6 (67491) - http://www.bohemiancoding.com/sketch -->
    <title>Group 186</title>
    <desc>Created with Sketch.</desc>
    <defs>
        <polygon id="path-1" points="0 0.182897825 153.616616 0.182897825 153.616616 153.799707 0 153.799707"></polygon>
        <polygon id="path-3" points="0.107426015 0.578767314 123.184599 0.578767314 123.184599 123.655844 0.107426015 123.655844"></polygon>
    </defs>
    <g id="Page-4" stroke="none" stroke-width="1" fill="none" fill-rule="evenodd">
        <g id="Accounting-and-Taxes" transform="translate(-19.000000, -73.000000)">
            <g id="chargebee-icon-black" transform="translate(0.000000, -1.000000)">
                <g id="Group-186" transform="translate(19.000000, 74.000000)">
                    <path d="M1278.63024,374.577922 L1276.14213,372.151104 C1275.06206,371.098065 1274.46753,369.699167 1274.46753,368.210422 C1274.46753,366.721677 1275.06206,365.322778 1276.14213,364.26974 L1281.11538,359.421899 C1282.95744,357.624971 1282.95744,354.701582 1281.11538,352.904655 L1276.14213,348.056814 C1275.06206,347.003776 1274.46753,345.604877 1274.46753,344.116132 C1274.46753,342.627387 1275.06206,341.227522 1276.14213,340.17545 L1281.11935,335.322779 C1282.9614,333.525851 1282.9614,330.602462 1281.11935,328.806501 L1276.14213,323.954796 C1275.06206,322.901757 1274.46753,321.502859 1274.46753,320.013148 C1274.46753,318.524403 1275.06206,317.124538 1276.14213,316.0715 L1281.11538,311.223659 C1282.95744,309.426731 1282.95744,306.504309 1281.11538,304.708347 L1276.14213,299.85954 C1275.06206,298.806502 1274.46753,297.406637 1274.46753,295.917892 C1274.46753,294.429147 1275.06206,293.030249 1276.14213,291.97721 L1281.11935,287.125505 C1282.9614,285.328578 1282.9614,282.405189 1281.11935,280.608261 L1276.14213,275.756556 C1275.06206,274.703518 1274.46753,273.304619 1274.46753,271.815874 C1274.46753,270.326163 1275.06206,268.927264 1276.14213,267.874226 L1281.11538,263.025419 C1282.00718,262.155938 1282.49866,260.998562 1282.49866,259.767763 C1282.49866,258.53793 1282.00718,257.379588 1281.11538,256.510107 L1276.14213,251.662266 C1275.06206,250.609228 1274.46753,249.209363 1274.46753,247.720618 C1274.46753,246.230907 1275.06206,244.832009 1276.14213,243.77897 L1281.11935,238.927265 C1282.9614,237.131304 1282.9614,234.207915 1281.11935,232.410987 L1276.14213,227.558316 C1275.06206,226.506244 1274.46753,225.106379 1274.46753,223.617634 C1274.46753,222.128889 1275.06206,220.729024 1276.14213,219.676952 L1281.11538,214.828146 C1282.95744,213.032184 1282.95744,210.108795 1281.11538,208.311867 L1276.14213,203.464027 C1275.06206,202.411954 1274.46753,201.01209 1274.46753,199.523345 C1274.46753,198.033634 1275.06206,196.634735 1276.14213,195.581697 L1278.63024,193.155844 L1279.3308,193.83887 L1276.84268,196.264722 C1275.9499,197.13517 1275.45842,198.292546 1275.45842,199.523345 C1275.45842,200.753177 1275.9499,201.910554 1276.84268,202.781001 L1281.81594,207.628841 C1282.896,208.68188 1283.48954,210.081744 1283.48954,211.570489 C1283.48954,213.059234 1282.896,214.459099 1281.81594,215.511171 L1276.84268,220.359978 C1275.9499,221.230425 1275.45842,222.386835 1275.45842,223.617634 C1275.45842,224.848433 1275.9499,226.004843 1276.84268,226.87529 L1281.8199,231.727961 C1284.0484,233.901664 1284.0484,237.437554 1281.8199,239.610291 L1276.84268,244.461996 C1275.9499,245.332443 1275.45842,246.48982 1275.45842,247.720618 C1275.45842,248.951417 1275.9499,250.108793 1276.84268,250.978275 L1281.81594,255.827081 C1282.896,256.88012 1283.48954,258.279018 1283.48954,259.767763 C1283.48954,261.256508 1282.896,262.655407 1281.81594,263.708445 L1276.84268,268.557252 C1275.9499,269.426733 1275.45842,270.584109 1275.45842,271.815874 C1275.45842,273.045707 1275.9499,274.204049 1276.84268,275.07353 L1281.8199,279.925235 C1282.89997,280.978273 1283.49351,282.377172 1283.49351,283.866883 C1283.49351,285.355628 1282.89997,286.755493 1281.8199,287.808531 L1276.84268,292.660236 C1275.9499,293.529717 1275.45842,294.688059 1275.45842,295.917892 C1275.45842,297.149657 1275.9499,298.306067 1276.84268,299.176514 L1281.81594,304.025321 C1284.04444,306.198058 1284.04444,309.733948 1281.81594,311.906685 L1276.84268,316.754526 C1275.9499,317.624973 1275.45842,318.782349 1275.45842,320.013148 C1275.45842,321.243947 1275.9499,322.401323 1276.84268,323.27177 L1281.8199,328.123475 C1284.0484,330.296212 1284.0484,333.832102 1281.8199,336.005805 L1276.84268,340.858476 C1275.9499,341.727957 1275.45842,342.885333 1275.45842,344.116132 C1275.45842,345.345965 1275.9499,346.503341 1276.84268,347.373788 L1281.81594,352.221629 C1282.896,353.274667 1283.48954,354.673566 1283.48954,356.163277 C1283.48954,357.652022 1282.896,359.051887 1281.81594,360.104925 L1276.84268,364.952765 C1275.9499,365.822247 1275.45842,366.980589 1275.45842,368.210422 C1275.45842,369.441221 1275.9499,370.598597 1276.84268,371.468078 L1279.3308,373.894896 L1278.63024,374.577922 Z" id="Fill-1" fill="#C484D9"></path>
                    <path d="M1293.0718,374.577922 L1290.5827,372.151104 C1289.50263,371.098065 1288.90909,369.699167 1288.90909,368.210422 C1288.90909,366.721677 1289.50263,365.322778 1290.5827,364.26974 L1295.55595,359.421899 C1297.39801,357.624971 1297.39801,354.701582 1295.55595,352.904655 L1290.5827,348.056814 C1288.3542,345.884077 1288.3542,342.348187 1290.5827,340.17545 L1295.55991,335.322779 C1296.4527,334.452332 1296.94418,333.295922 1296.94418,332.064157 C1296.94418,330.834324 1296.4527,329.675982 1295.55991,328.806501 L1290.5827,323.954796 C1288.3532,321.782059 1288.3532,318.244237 1290.5827,316.0715 L1295.55595,311.223659 C1297.39801,309.426731 1297.39801,306.504309 1295.55595,304.708347 L1290.5827,299.85954 C1288.3542,297.685837 1288.3542,294.149947 1290.5827,291.97721 L1295.55991,287.125505 C1296.4527,286.255058 1296.94418,285.097682 1296.94418,283.866883 C1296.94418,282.636084 1296.4527,281.478708 1295.55991,280.608261 L1290.5827,275.756556 C1289.50263,274.703518 1288.90909,273.304619 1288.90909,271.815874 C1288.90909,270.326163 1289.50263,268.927264 1290.5827,267.874226 L1295.55595,263.025419 C1297.39801,261.229458 1297.39801,258.306069 1295.55595,256.510107 L1290.5827,251.662266 C1289.50263,250.609228 1288.90909,249.209363 1288.90909,247.720618 C1288.90909,246.230907 1289.50263,244.832009 1290.5827,243.77897 L1295.55991,238.927265 C1296.4527,238.057784 1296.94418,236.899442 1296.94418,235.669609 C1296.94418,234.437844 1296.4527,233.281434 1295.55991,232.410987 L1290.5827,227.558316 C1288.3542,225.385579 1288.3542,221.849689 1290.5827,219.676952 L1295.55595,214.828146 C1297.39801,213.032184 1297.39801,210.108795 1295.55595,208.311867 L1290.5827,203.464027 C1289.50263,202.411954 1288.90909,201.01209 1288.90909,199.523345 C1288.90909,198.033634 1289.50263,196.634735 1290.5827,195.581697 L1293.0718,193.155844 L1293.77236,193.83887 L1291.28325,196.264722 C1290.39146,197.13517 1289.89998,198.29158 1289.89998,199.523345 C1289.89998,200.754144 1290.39146,201.910554 1291.28325,202.781001 L1296.25651,207.628841 C1297.33657,208.68188 1297.93011,210.081744 1297.93011,211.570489 C1297.93011,213.059234 1297.33657,214.459099 1296.25651,215.511171 L1291.28325,220.359978 C1289.4412,222.15594 1289.4412,225.079329 1291.28325,226.87529 L1296.26047,231.727961 C1297.34053,232.781 1297.93506,234.180864 1297.93506,235.669609 C1297.93506,237.158354 1297.34053,238.557253 1296.26047,239.610291 L1291.28325,244.461996 C1290.39146,245.332443 1289.89998,246.48982 1289.89998,247.720618 C1289.89998,248.951417 1290.39146,250.108793 1291.28325,250.978275 L1296.25651,255.827081 C1298.48501,257.999818 1298.48501,261.535708 1296.25651,263.708445 L1291.28325,268.557252 C1289.4412,270.353213 1289.4412,273.277568 1291.28325,275.07353 L1296.26047,279.925235 C1297.34053,280.978273 1297.93506,282.377172 1297.93506,283.866883 C1297.93506,285.355628 1297.34053,286.755493 1296.26047,287.808531 L1291.28325,292.660236 C1289.4412,294.456198 1289.4412,297.379587 1291.28325,299.176514 L1296.25651,304.025321 C1298.48501,306.198058 1298.48501,309.733948 1296.25651,311.906685 L1291.28325,316.754526 C1290.39146,317.624973 1289.89998,318.782349 1289.89998,320.013148 C1289.89998,321.243947 1290.39146,322.401323 1291.28325,323.27177 L1296.26047,328.123475 C1297.34053,329.176513 1297.93506,330.575412 1297.93506,332.064157 C1297.93506,333.552902 1297.34053,334.952767 1296.26047,336.005805 L1291.28325,340.858476 C1289.4412,342.654438 1289.4412,345.57686 1291.28325,347.373788 L1296.25651,352.221629 C1297.33657,353.274667 1297.93011,354.673566 1297.93011,356.163277 C1297.93011,357.652022 1297.33657,359.051887 1296.25651,360.104925 L1291.28325,364.952765 C1290.39146,365.822247 1289.89998,366.980589 1289.89998,368.210422 C1289.89998,369.441221 1290.39146,370.598597 1291.28325,371.468078 L1293.77236,373.894896 L1293.0718,374.577922 Z" id="Fill-3" fill="#C484D9"></path>
                    <path d="M1307.51282,374.577922 L1305.02444,372.151104 C1303.94425,371.098065 1303.35065,369.699167 1303.35065,368.210422 C1303.35065,366.721677 1303.94425,365.322778 1305.02444,364.26974 L1309.99824,359.421899 C1311.8405,357.624971 1311.8405,354.701582 1309.99824,352.904655 L1305.02444,348.056814 C1302.79569,345.884077 1302.79569,342.348187 1305.02444,340.17545 L1310.0022,335.322779 C1311.84446,333.525851 1311.84446,330.602462 1310.0022,328.806501 L1305.02444,323.954796 C1302.7947,321.782059 1302.7947,318.244237 1305.02444,316.0715 L1309.99824,311.223659 C1311.8405,309.426731 1311.8405,306.504309 1309.99824,304.708347 L1305.02444,299.85954 C1302.79569,297.685837 1302.79569,294.149947 1305.02444,291.97721 L1310.0022,287.125505 C1311.84446,285.328578 1311.84446,282.405189 1310.0022,280.608261 L1305.02444,275.756556 C1302.7947,273.583819 1302.7947,270.046963 1305.02444,267.874226 L1309.99824,263.025419 C1310.89013,262.155938 1311.38167,260.998562 1311.38167,259.767763 C1311.38167,258.53793 1310.89013,257.379588 1309.99824,256.510107 L1305.02444,251.662266 C1303.94425,250.609228 1303.35065,249.209363 1303.35065,247.720618 C1303.35065,246.230907 1303.94425,244.832009 1305.02444,243.77897 L1310.0022,238.927265 C1311.84446,237.131304 1311.84446,234.207915 1310.0022,232.410987 L1305.02444,227.558316 C1302.79569,225.385579 1302.79569,221.849689 1305.02444,219.676952 L1309.99824,214.828146 C1311.8405,213.032184 1311.8405,210.108795 1309.99824,208.311867 L1305.02444,203.464027 C1303.94425,202.411954 1303.35065,201.01209 1303.35065,199.523345 C1303.35065,198.033634 1303.94425,196.634735 1305.02444,195.581697 L1307.51282,193.155844 L1308.21346,193.83887 L1305.72507,196.264722 C1304.83318,197.13517 1304.34164,198.29158 1304.34164,199.523345 C1304.34164,200.754144 1304.83318,201.910554 1305.72507,202.781001 L1310.69887,207.628841 C1311.77905,208.68188 1312.37266,210.081744 1312.37266,211.570489 C1312.37266,213.059234 1311.77905,214.459099 1310.69887,215.511171 L1305.72507,220.359978 C1303.88281,222.15594 1303.88281,225.079329 1305.72507,226.87529 L1310.70283,231.727961 C1312.93158,233.901664 1312.93158,237.437554 1310.70283,239.610291 L1305.72507,244.461996 C1304.83318,245.332443 1304.34164,246.48982 1304.34164,247.720618 C1304.34164,248.951417 1304.83318,250.108793 1305.72507,250.978275 L1310.69887,255.827081 C1311.77905,256.88012 1312.37266,258.279018 1312.37266,259.767763 C1312.37266,261.256508 1311.77905,262.655407 1310.69887,263.708445 L1305.72507,268.557252 C1303.88281,270.353213 1303.88281,273.277568 1305.72507,275.07353 L1310.70283,279.925235 C1311.78302,280.978273 1312.37662,282.377172 1312.37662,283.866883 C1312.37662,285.355628 1311.78302,286.755493 1310.70283,287.808531 L1305.72507,292.660236 C1303.88281,294.456198 1303.88281,297.379587 1305.72507,299.176514 L1310.69887,304.025321 C1312.92762,306.198058 1312.92762,309.733948 1310.69887,311.906685 L1305.72507,316.754526 C1304.83318,317.624973 1304.34164,318.782349 1304.34164,320.013148 C1304.34164,321.243947 1304.83318,322.401323 1305.72507,323.27177 L1310.70283,328.123475 C1312.93158,330.296212 1312.93158,333.832102 1310.70283,336.005805 L1305.72507,340.858476 C1303.88281,342.654438 1303.88281,345.57686 1305.72507,347.373788 L1310.69887,352.221629 C1311.77905,353.274667 1312.37266,354.673566 1312.37266,356.163277 C1312.37266,357.652022 1311.77905,359.051887 1310.69887,360.104925 L1305.72507,364.952765 C1304.83318,365.822247 1304.34164,366.980589 1304.34164,368.210422 C1304.34164,369.441221 1304.83318,370.598597 1305.72507,371.468078 L1308.21346,373.894896 L1307.51282,374.577922 Z" id="Fill-5" fill="#C484D9"></path>
                    <path d="M1321.95492,374.577922 L1319.46581,372.151104 C1318.38575,371.098065 1317.79221,369.699167 1317.79221,368.210422 C1317.79221,366.721677 1318.38575,365.322778 1319.46581,364.26974 L1324.43907,359.421899 C1325.33086,358.550486 1325.82333,357.394076 1325.82333,356.162311 C1325.82333,354.932478 1325.33185,353.775102 1324.43907,352.904655 L1319.46581,348.056814 C1317.23731,345.884077 1317.23731,342.348187 1319.46581,340.17545 L1324.44402,335.322779 C1326.28608,333.525851 1326.28608,330.602462 1324.44402,328.806501 L1319.46581,323.954796 C1317.23632,321.782059 1317.23632,318.244237 1319.46581,316.0715 L1324.43907,311.223659 C1325.33086,310.353212 1325.82333,309.195836 1325.82333,307.966003 C1325.82333,306.735204 1325.33185,305.577828 1324.43907,304.708347 L1319.46581,299.85954 C1317.23731,297.685837 1317.23731,294.149947 1319.46581,291.97721 L1324.44402,287.125505 C1326.28608,285.328578 1326.28608,282.405189 1324.44402,280.608261 L1319.46581,275.756556 C1318.38575,274.703518 1317.79221,273.304619 1317.79221,271.815874 C1317.79221,270.326163 1318.38575,268.927264 1319.46581,267.874226 L1324.43907,263.025419 C1325.33086,262.155938 1325.82333,260.998562 1325.82333,259.767763 C1325.82333,258.53793 1325.33185,257.379588 1324.43907,256.510107 L1319.46581,251.662266 C1318.38575,250.609228 1317.79221,249.209363 1317.79221,247.720618 C1317.79221,246.230907 1318.38575,244.832009 1319.46581,243.77897 L1324.44402,238.927265 C1326.28608,237.131304 1326.28608,234.207915 1324.44402,232.410987 L1319.46581,227.558316 C1317.23731,225.385579 1317.23731,221.849689 1319.46581,219.676952 L1324.43907,214.828146 C1325.33086,213.957698 1325.82333,212.800322 1325.82333,211.570489 C1325.82333,210.33969 1325.33185,209.182314 1324.43907,208.311867 L1319.46581,203.464027 C1318.38575,202.411954 1317.79221,201.01209 1317.79221,199.523345 C1317.79221,198.033634 1318.38575,196.634735 1319.46581,195.581697 L1321.95492,193.155844 L1322.65547,193.83887 L1320.16637,196.264722 C1319.27457,197.13517 1318.78309,198.29158 1318.78309,199.523345 C1318.78309,200.754144 1319.27457,201.910554 1320.16637,202.781001 L1325.13962,207.628841 C1326.21969,208.68188 1326.81422,210.081744 1326.81422,211.570489 C1326.81323,213.059234 1326.21969,214.458133 1325.13962,215.511171 L1320.16637,220.359978 C1318.32431,222.15594 1318.32431,225.079329 1320.16637,226.87529 L1325.14458,231.727961 C1327.37308,233.901664 1327.37308,237.437554 1325.14458,239.610291 L1320.16637,244.461996 C1319.27457,245.332443 1318.78309,246.48982 1318.78309,247.720618 C1318.78309,248.951417 1319.27457,250.108793 1320.16637,250.978275 L1325.13962,255.827081 C1326.21969,256.88012 1326.81422,258.279018 1326.81422,259.767763 C1326.81323,261.256508 1326.21969,262.655407 1325.13962,263.708445 L1320.16637,268.557252 C1318.32431,270.353213 1318.32431,273.277568 1320.16637,275.07353 L1325.14458,279.925235 C1326.22464,280.978273 1326.81818,282.377172 1326.81818,283.866883 C1326.81818,285.355628 1326.22464,286.755493 1325.14458,287.808531 L1320.16637,292.660236 C1318.32431,294.456198 1318.32431,297.379587 1320.16637,299.176514 L1325.13962,304.025321 C1326.21969,305.078359 1326.81422,306.477258 1326.81422,307.966003 C1326.81323,309.454748 1326.21969,310.853647 1325.13962,311.906685 L1320.16637,316.754526 C1319.27457,317.624973 1318.78309,318.782349 1318.78309,320.013148 C1318.78309,321.243947 1319.27457,322.401323 1320.16637,323.27177 L1325.14458,328.123475 C1327.37308,330.296212 1327.37308,333.832102 1325.14458,336.005805 L1320.16637,340.858476 C1318.32431,342.654438 1318.32431,345.57686 1320.16637,347.373788 L1325.13962,352.221629 C1326.21969,353.274667 1326.81422,354.673566 1326.81422,356.163277 C1326.81323,357.652022 1326.21969,359.051887 1325.13962,360.104925 L1320.16637,364.952765 C1319.27457,365.822247 1318.78309,366.980589 1318.78309,368.210422 C1318.78309,369.441221 1319.27457,370.598597 1320.16637,371.468078 L1322.65547,373.894896 L1321.95492,374.577922 Z" id="Fill-7" fill="#C484D9"></path>
                    <path d="M1169.76623,377.053834 C1169.76623,437.499064 1218.76717,486.5 1279.21337,486.5 C1309.43598,486.5 1336.79777,474.250492 1356.6039,454.444362 L1201.82284,299.662338 C1182.01671,319.468467 1169.76623,346.830251 1169.76623,377.053834" id="Fill-9" fill="#C484D9"></path>
                    <path d="M1278.74767,267.168831 C1248.52409,267.168831 1221.16327,279.418339 1201.35714,299.224469 L1356.1382,454.006494 C1375.94433,434.200364 1388.19481,406.837612 1388.19481,376.615965 C1388.19481,316.169767 1339.1929,267.168831 1278.74767,267.168831" id="Fill-11" fill="#FFFFFF"></path>
                    <path d="M440.467532,395.788961 C440.467532,411.990108 427.334264,425.123377 411.133117,425.123377 C394.93197,425.123377 381.798701,411.990108 381.798701,395.788961 C381.798701,379.587814 394.93197,366.454545 411.133117,366.454545 C427.334264,366.454545 440.467532,379.587814 440.467532,395.788961" id="Fill-13" fill="#F8D7F9"></path>
                    <g id="Group-17" transform="translate(1278.980519, 12.636364)" fill="#F8D7F9">
                        <path d="M110.161325,55.5299937 C110.161325,86.1986464 85.501003,111.059987 55.0803248,111.059987 C24.660322,111.059987 1.27897692e-13,86.1986464 1.27897692e-13,55.5299937 C1.27897692e-13,24.8613409 24.660322,4.26325641e-14 55.0803248,4.26325641e-14 C85.501003,4.26325641e-14 110.161325,24.8613409 110.161325,55.5299937" id="Fill-15"></path>
                    </g>
                    <path d="M81.4419831,31.3828589 C90.1008474,40.041502 104.109629,40.0831534 112.824675,31.5145935 L81.3102452,0 C72.7414664,8.71482397 72.7831189,22.7242159 81.4419831,31.3828589" id="Fill-18" fill="#F8D7F9"></path>
                    <g id="Group-22" transform="translate(0.000000, 304.175325)">
                        <mask id="mask-2" fill="white">
                            <use xlink:href="#path-1"></use>
                        </mask>
                        <g id="Clip-21"></g>
                        <path d="M-0.000192930195,76.9913023 C-0.000192930195,34.5707757 34.387685,0.182897825 76.8082116,0.182897825 C119.228738,0.182897825 153.616616,34.5707757 153.616616,76.9913023 C153.616616,119.411829 119.228738,153.799707 76.8082116,153.799707 C34.387685,153.799707 -0.000192930195,119.411829 -0.000192930195,76.9913023" id="Fill-20" fill="#F8D7F9" mask="url(#mask-2)"></path>
                    </g>
                    <polygon id="Fill-23" fill="#F8D7F9" points="1102.97403 100.188312 1130.95455 128.168831 1102.97403 128.168831"></polygon>
                    <path d="M72.2077922,273.035714 C72.2077922,274.282219 71.1969768,275.292208 69.9507661,275.292208 C68.7045554,275.292208 67.6948052,274.282219 67.6948052,273.035714 C67.6948052,271.789209 68.7045554,270.779221 69.9507661,270.779221 C71.1969768,270.779221 72.2077922,271.789209 72.2077922,273.035714" id="Fill-25" fill="#FFFFFF"></path>
                    <path d="M89.3571429,273.035714 C89.3571429,274.282219 88.3463275,275.292208 87.1001168,275.292208 C85.8539061,275.292208 84.8441558,274.282219 84.8441558,273.035714 C84.8441558,271.789209 85.8539061,270.779221 87.1001168,270.779221 C88.3463275,270.779221 89.3571429,271.789209 89.3571429,273.035714" id="Fill-27" fill="#FFFFFF"></path>
                    <path d="M107.409091,273.035714 C107.409091,274.282219 106.399341,275.292208 105.152065,275.292208 C103.905854,275.292208 102.896104,274.282219 102.896104,273.035714 C102.896104,271.789209 103.905854,270.779221 105.152065,270.779221 C106.399341,270.779221 107.409091,271.789209 107.409091,273.035714" id="Fill-29" fill="#FFFFFF"></path>
                    <path d="M125.461039,273.035714 C125.461039,274.282219 124.451289,275.292208 123.205078,275.292208 C121.957802,275.292208 120.948052,274.282219 120.948052,273.035714 C120.948052,271.789209 121.957802,270.779221 123.205078,270.779221 C124.451289,270.779221 125.461039,271.789209 125.461039,273.035714" id="Fill-31" fill="#FFFFFF"></path>
                    <path d="M143.512987,273.035714 C143.512987,274.282219 142.503237,275.292208 141.257026,275.292208 C140.010815,275.292208 139,274.282219 139,273.035714 C139,271.789209 140.010815,270.779221 141.257026,270.779221 C142.503237,270.779221 143.512987,271.789209 143.512987,273.035714" id="Fill-33" fill="#FFFFFF"></path>
                    <path d="M160.662338,273.035714 C160.662338,274.282219 159.652587,275.292208 158.406377,275.292208 C157.160166,275.292208 156.149351,274.282219 156.149351,273.035714 C156.149351,271.789209 157.160166,270.779221 158.406377,270.779221 C159.652587,270.779221 160.662338,271.789209 160.662338,273.035714" id="Fill-35" fill="#FFFFFF"></path>
                    <path d="M178.714286,273.035714 C178.714286,274.282219 177.704297,275.292208 176.457792,275.292208 C175.211287,275.292208 174.201299,274.282219 174.201299,273.035714 C174.201299,271.789209 175.211287,270.779221 176.457792,270.779221 C177.704297,270.779221 178.714286,271.789209 178.714286,273.035714" id="Fill-37" fill="#FFFFFF"></path>
                    <path d="M196.766234,273.035714 C196.766234,274.282219 195.755418,275.292208 194.509208,275.292208 C193.262997,275.292208 192.253247,274.282219 192.253247,273.035714 C192.253247,271.789209 193.262997,270.779221 194.509208,270.779221 C195.755418,270.779221 196.766234,271.789209 196.766234,273.035714" id="Fill-39" fill="#FFFFFF"></path>
                    <path d="M213.915584,273.035714 C213.915584,274.282219 212.904769,275.292208 211.658558,275.292208 C210.412348,275.292208 209.402597,274.282219 209.402597,273.035714 C209.402597,271.789209 210.412348,270.779221 211.658558,270.779221 C212.904769,270.779221 213.915584,271.789209 213.915584,273.035714" id="Fill-41" fill="#FFFFFF"></path>
                    <path d="M72.2077922,290.184532 C72.2077922,291.431808 71.1969768,292.441558 69.9507661,292.441558 C68.7045554,292.441558 67.6948052,291.431808 67.6948052,290.184532 C67.6948052,288.938322 68.7045554,287.928571 69.9507661,287.928571 C71.1969768,287.928571 72.2077922,288.938322 72.2077922,290.184532" id="Fill-43" fill="#FFFFFF"></path>
                    <path d="M89.3571429,290.184532 C89.3571429,291.431808 88.3463275,292.441558 87.1001168,292.441558 C85.8539061,292.441558 84.8441558,291.431808 84.8441558,290.184532 C84.8441558,288.938322 85.8539061,287.928571 87.1001168,287.928571 C88.3463275,287.928571 89.3571429,288.938322 89.3571429,290.184532" id="Fill-45" fill="#FFFFFF"></path>
                    <path d="M107.409091,290.184532 C107.409091,291.431808 106.399341,292.441558 105.152065,292.441558 C103.905854,292.441558 102.896104,291.431808 102.896104,290.184532 C102.896104,288.938322 103.905854,287.928571 105.152065,287.928571 C106.399341,287.928571 107.409091,288.938322 107.409091,290.184532" id="Fill-47" fill="#FFFFFF"></path>
                    <path d="M125.461039,290.184532 C125.461039,291.431808 124.451289,292.441558 123.205078,292.441558 C121.957802,292.441558 120.948052,291.431808 120.948052,290.184532 C120.948052,288.938322 121.957802,287.928571 123.205078,287.928571 C124.451289,287.928571 125.461039,288.938322 125.461039,290.184532" id="Fill-49" fill="#FFFFFF"></path>
                    <path d="M143.512987,290.184532 C143.512987,291.431808 142.503237,292.441558 141.257026,292.441558 C140.010815,292.441558 139,291.431808 139,290.184532 C139,288.938322 140.010815,287.928571 141.257026,287.928571 C142.503237,287.928571 143.512987,288.938322 143.512987,290.184532" id="Fill-51" fill="#FFFFFF"></path>
                    <path d="M160.662338,290.184532 C160.662338,291.431808 159.652587,292.441558 158.406377,292.441558 C157.160166,292.441558 156.149351,291.431808 156.149351,290.184532 C156.149351,288.938322 157.160166,287.928571 158.406377,287.928571 C159.652587,287.928571 160.662338,288.938322 160.662338,290.184532" id="Fill-53" fill="#FFFFFF"></path>
                    <path d="M178.714286,290.184532 C178.714286,291.431808 177.704297,292.441558 176.457792,292.441558 C175.211287,292.441558 174.201299,291.431808 174.201299,290.184532 C174.201299,288.938322 175.211287,287.928571 176.457792,287.928571 C177.704297,287.928571 178.714286,288.938322 178.714286,290.184532" id="Fill-55" fill="#FFFFFF"></path>
                    <path d="M196.766234,290.184532 C196.766234,291.431808 195.755418,292.441558 194.509208,292.441558 C193.262997,292.441558 192.253247,291.431808 192.253247,290.184532 C192.253247,288.938322 193.262997,287.928571 194.509208,287.928571 C195.755418,287.928571 196.766234,288.938322 196.766234,290.184532" id="Fill-57" fill="#FFFFFF"></path>
                    <path d="M213.915584,290.184532 C213.915584,291.431808 212.904769,292.441558 211.658558,292.441558 C210.412348,292.441558 209.402597,291.431808 209.402597,290.184532 C209.402597,288.938322 210.412348,287.928571 211.658558,287.928571 C212.904769,287.928571 213.915584,288.938322 213.915584,290.184532" id="Fill-59" fill="#FFFFFF"></path>
                    <path d="M72.2077922,306.432351 C72.2077922,307.678561 71.1969768,308.688312 69.9507661,308.688312 C68.7045554,308.688312 67.6948052,307.678561 67.6948052,306.432351 C67.6948052,305.18614 68.7045554,304.175325 69.9507661,304.175325 C71.1969768,304.175325 72.2077922,305.18614 72.2077922,306.432351" id="Fill-61" fill="#FFFFFF"></path>
                    <path d="M89.3571429,306.432351 C89.3571429,307.678561 88.3463275,308.688312 87.1001168,308.688312 C85.8539061,308.688312 84.8441558,307.678561 84.8441558,306.432351 C84.8441558,305.18614 85.8539061,304.175325 87.1001168,304.175325 C88.3463275,304.175325 89.3571429,305.18614 89.3571429,306.432351" id="Fill-63" fill="#FFFFFF"></path>
                    <path d="M107.409091,306.432351 C107.409091,307.678561 106.399341,308.688312 105.152065,308.688312 C103.905854,308.688312 102.896104,307.678561 102.896104,306.432351 C102.896104,305.18614 103.905854,304.175325 105.152065,304.175325 C106.399341,304.175325 107.409091,305.18614 107.409091,306.432351" id="Fill-65" fill="#FFFFFF"></path>
                    <path d="M125.461039,306.432351 C125.461039,307.678561 124.451289,308.688312 123.205078,308.688312 C121.957802,308.688312 120.948052,307.678561 120.948052,306.432351 C120.948052,305.18614 121.957802,304.175325 123.205078,304.175325 C124.451289,304.175325 125.461039,305.18614 125.461039,306.432351" id="Fill-67" fill="#FFFFFF"></path>
                    <path d="M143.512987,306.432351 C143.512987,307.678561 142.503237,308.688312 141.257026,308.688312 C140.010815,308.688312 139,307.678561 139,306.432351 C139,305.18614 140.010815,304.175325 141.257026,304.175325 C142.503237,304.175325 143.512987,305.18614 143.512987,306.432351" id="Fill-69" fill="#FFFFFF"></path>
                    <path d="M160.662338,306.432351 C160.662338,307.678561 159.652587,308.688312 158.406377,308.688312 C157.160166,308.688312 156.149351,307.678561 156.149351,306.432351 C156.149351,305.18614 157.160166,304.175325 158.406377,304.175325 C159.652587,304.175325 160.662338,305.18614 160.662338,306.432351" id="Fill-71" fill="#FFFFFF"></path>
                    <path d="M178.714286,306.432351 C178.714286,307.678561 177.704297,308.688312 176.457792,308.688312 C175.211287,308.688312 174.201299,307.678561 174.201299,306.432351 C174.201299,305.18614 175.211287,304.175325 176.457792,304.175325 C177.704297,304.175325 178.714286,305.18614 178.714286,306.432351" id="Fill-73" fill="#FFFFFF"></path>
                    <path d="M196.766234,306.432351 C196.766234,307.678561 195.755418,308.688312 194.509208,308.688312 C193.262997,308.688312 192.253247,307.678561 192.253247,306.432351 C192.253247,305.18614 193.262997,304.175325 194.509208,304.175325 C195.755418,304.175325 196.766234,305.18614 196.766234,306.432351" id="Fill-75" fill="#FFFFFF"></path>
                    <path d="M213.915584,306.432351 C213.915584,307.678561 212.904769,308.688312 211.658558,308.688312 C210.412348,308.688312 209.402597,307.678561 209.402597,306.432351 C209.402597,305.18614 210.412348,304.175325 211.658558,304.175325 C212.904769,304.175325 213.915584,305.18614 213.915584,306.432351" id="Fill-77" fill="#FFFFFF"></path>
                    <path d="M72.2077922,323.580636 C72.2077922,324.826847 71.1969768,325.837662 69.9507661,325.837662 C68.7045554,325.837662 67.6948052,324.826847 67.6948052,323.580636 C67.6948052,322.334426 68.7045554,321.324675 69.9507661,321.324675 C71.1969768,321.324675 72.2077922,322.334426 72.2077922,323.580636" id="Fill-79" fill="#FFFFFF"></path>
                    <path d="M89.3571429,323.580636 C89.3571429,324.826847 88.3463275,325.837662 87.1001168,325.837662 C85.8539061,325.837662 84.8441558,324.826847 84.8441558,323.580636 C84.8441558,322.334426 85.8539061,321.324675 87.1001168,321.324675 C88.3463275,321.324675 89.3571429,322.334426 89.3571429,323.580636" id="Fill-81" fill="#FFFFFF"></path>
                    <path d="M107.409091,323.580636 C107.409091,324.826847 106.399341,325.837662 105.152065,325.837662 C103.905854,325.837662 102.896104,324.826847 102.896104,323.580636 C102.896104,322.334426 103.905854,321.324675 105.152065,321.324675 C106.399341,321.324675 107.409091,322.334426 107.409091,323.580636" id="Fill-83" fill="#FFFFFF"></path>
                    <path d="M125.461039,323.580636 C125.461039,324.826847 124.451289,325.837662 123.205078,325.837662 C121.957802,325.837662 120.948052,324.826847 120.948052,323.580636 C120.948052,322.334426 121.957802,321.324675 123.205078,321.324675 C124.451289,321.324675 125.461039,322.334426 125.461039,323.580636" id="Fill-85" fill="#FFFFFF"></path>
                    <path d="M143.512987,323.580636 C143.512987,324.826847 142.503237,325.837662 141.257026,325.837662 C140.010815,325.837662 139,324.826847 139,323.580636 C139,322.334426 140.010815,321.324675 141.257026,321.324675 C142.503237,321.324675 143.512987,322.334426 143.512987,323.580636" id="Fill-87" fill="#FFFFFF"></path>
                    <path d="M160.662338,323.580636 C160.662338,324.826847 159.652587,325.837662 158.406377,325.837662 C157.160166,325.837662 156.149351,324.826847 156.149351,323.580636 C156.149351,322.334426 157.160166,321.324675 158.406377,321.324675 C159.652587,321.324675 160.662338,322.334426 160.662338,323.580636" id="Fill-89" fill="#FFFFFF"></path>
                    <path d="M178.714286,323.580636 C178.714286,324.826847 177.704297,325.837662 176.457792,325.837662 C175.211287,325.837662 174.201299,324.826847 174.201299,323.580636 C174.201299,322.334426 175.211287,321.324675 176.457792,321.324675 C177.704297,321.324675 178.714286,322.334426 178.714286,323.580636" id="Fill-91" fill="#FFFFFF"></path>
                    <path d="M196.766234,323.580636 C196.766234,324.826847 195.755418,325.837662 194.509208,325.837662 C193.262997,325.837662 192.253247,324.826847 192.253247,323.580636 C192.253247,322.334426 193.262997,321.324675 194.509208,321.324675 C195.755418,321.324675 196.766234,322.334426 196.766234,323.580636" id="Fill-93" fill="#FFFFFF"></path>
                    <path d="M213.915584,323.580636 C213.915584,324.826847 212.904769,325.837662 211.658558,325.837662 C210.412348,325.837662 209.402597,324.826847 209.402597,323.580636 C209.402597,322.334426 210.412348,321.324675 211.658558,321.324675 C212.904769,321.324675 213.915584,322.334426 213.915584,323.580636" id="Fill-95" fill="#FFFFFF"></path>
                    <path d="M72.2077922,339.828455 C72.2077922,341.074665 71.1969768,342.084416 69.9507661,342.084416 C68.7045554,342.084416 67.6948052,341.074665 67.6948052,339.828455 C67.6948052,338.582244 68.7045554,337.571429 69.9507661,337.571429 C71.1969768,337.571429 72.2077922,338.582244 72.2077922,339.828455" id="Fill-97" fill="#FFFFFF"></path>
                    <path d="M89.3571429,339.828455 C89.3571429,341.074665 88.3463275,342.084416 87.1001168,342.084416 C85.8539061,342.084416 84.8441558,341.074665 84.8441558,339.828455 C84.8441558,338.582244 85.8539061,337.571429 87.1001168,337.571429 C88.3463275,337.571429 89.3571429,338.582244 89.3571429,339.828455" id="Fill-99" fill="#FFFFFF"></path>
                    <path d="M107.409091,339.828455 C107.409091,341.074665 106.399341,342.084416 105.152065,342.084416 C103.905854,342.084416 102.896104,341.074665 102.896104,339.828455 C102.896104,338.582244 103.905854,337.571429 105.152065,337.571429 C106.399341,337.571429 107.409091,338.582244 107.409091,339.828455" id="Fill-101" fill="#FFFFFF"></path>
                    <path d="M125.461039,339.828455 C125.461039,341.074665 124.451289,342.084416 123.205078,342.084416 C121.957802,342.084416 120.948052,341.074665 120.948052,339.828455 C120.948052,338.582244 121.957802,337.571429 123.205078,337.571429 C124.451289,337.571429 125.461039,338.582244 125.461039,339.828455" id="Fill-103" fill="#FFFFFF"></path>
                    <path d="M143.512987,339.828455 C143.512987,341.074665 142.503237,342.084416 141.257026,342.084416 C140.010815,342.084416 139,341.074665 139,339.828455 C139,338.582244 140.010815,337.571429 141.257026,337.571429 C142.503237,337.571429 143.512987,338.582244 143.512987,339.828455" id="Fill-105" fill="#FFFFFF"></path>
                    <path d="M160.662338,339.828455 C160.662338,341.074665 159.652587,342.084416 158.406377,342.084416 C157.160166,342.084416 156.149351,341.074665 156.149351,339.828455 C156.149351,338.582244 157.160166,337.571429 158.406377,337.571429 C159.652587,337.571429 160.662338,338.582244 160.662338,339.828455" id="Fill-107" fill="#FFFFFF"></path>
                    <path d="M178.714286,339.828455 C178.714286,341.074665 177.704297,342.084416 176.457792,342.084416 C175.211287,342.084416 174.201299,341.074665 174.201299,339.828455 C174.201299,338.582244 175.211287,337.571429 176.457792,337.571429 C177.704297,337.571429 178.714286,338.582244 178.714286,339.828455" id="Fill-109" fill="#FFFFFF"></path>
                    <path d="M196.766234,339.828455 C196.766234,341.074665 195.755418,342.084416 194.509208,342.084416 C193.262997,342.084416 192.253247,341.074665 192.253247,339.828455 C192.253247,338.582244 193.262997,337.571429 194.509208,337.571429 C195.755418,337.571429 196.766234,338.582244 196.766234,339.828455" id="Fill-111" fill="#FFFFFF"></path>
                    <path d="M213.915584,339.828455 C213.915584,341.074665 212.904769,342.084416 211.658558,342.084416 C210.412348,342.084416 209.402597,341.074665 209.402597,339.828455 C209.402597,338.582244 210.412348,337.571429 211.658558,337.571429 C212.904769,337.571429 213.915584,338.582244 213.915584,339.828455" id="Fill-113" fill="#FFFFFF"></path>
                    <path d="M72.2077922,356.074143 C72.2077922,357.320353 71.1969768,358.331169 69.9507661,358.331169 C68.7045554,358.331169 67.6948052,357.320353 67.6948052,356.074143 C67.6948052,354.827932 68.7045554,353.818182 69.9507661,353.818182 C71.1969768,353.818182 72.2077922,354.827932 72.2077922,356.074143" id="Fill-115" fill="#FFFFFF"></path>
                    <path d="M89.3571429,356.074143 C89.3571429,357.320353 88.3463275,358.331169 87.1001168,358.331169 C85.8539061,358.331169 84.8441558,357.320353 84.8441558,356.074143 C84.8441558,354.827932 85.8539061,353.818182 87.1001168,353.818182 C88.3463275,353.818182 89.3571429,354.827932 89.3571429,356.074143" id="Fill-117" fill="#FFFFFF"></path>
                    <path d="M107.409091,356.074143 C107.409091,357.320353 106.399341,358.331169 105.152065,358.331169 C103.905854,358.331169 102.896104,357.320353 102.896104,356.074143 C102.896104,354.827932 103.905854,353.818182 105.152065,353.818182 C106.399341,353.818182 107.409091,354.827932 107.409091,356.074143" id="Fill-119" fill="#FFFFFF"></path>
                    <path d="M125.461039,356.074143 C125.461039,357.320353 124.451289,358.331169 123.205078,358.331169 C121.957802,358.331169 120.948052,357.320353 120.948052,356.074143 C120.948052,354.827932 121.957802,353.818182 123.205078,353.818182 C124.451289,353.818182 125.461039,354.827932 125.461039,356.074143" id="Fill-121" fill="#FFFFFF"></path>
                    <path d="M143.512987,356.074143 C143.512987,357.320353 142.503237,358.331169 141.257026,358.331169 C140.010815,358.331169 139,357.320353 139,356.074143 C139,354.827932 140.010815,353.818182 141.257026,353.818182 C142.503237,353.818182 143.512987,354.827932 143.512987,356.074143" id="Fill-123" fill="#FFFFFF"></path>
                    <path d="M160.662338,356.074143 C160.662338,357.320353 159.652587,358.331169 158.406377,358.331169 C157.160166,358.331169 156.149351,357.320353 156.149351,356.074143 C156.149351,354.827932 157.160166,353.818182 158.406377,353.818182 C159.652587,353.818182 160.662338,354.827932 160.662338,356.074143" id="Fill-125" fill="#FFFFFF"></path>
                    <path d="M178.714286,356.074143 C178.714286,357.320353 177.704297,358.331169 176.457792,358.331169 C175.211287,358.331169 174.201299,357.320353 174.201299,356.074143 C174.201299,354.827932 175.211287,353.818182 176.457792,353.818182 C177.704297,353.818182 178.714286,354.827932 178.714286,356.074143" id="Fill-127" fill="#FFFFFF"></path>
                    <path d="M196.766234,356.074143 C196.766234,357.320353 195.755418,358.331169 194.509208,358.331169 C193.262997,358.331169 192.253247,357.320353 192.253247,356.074143 C192.253247,354.827932 193.262997,353.818182 194.509208,353.818182 C195.755418,353.818182 196.766234,354.827932 196.766234,356.074143" id="Fill-129" fill="#FFFFFF"></path>
                    <path d="M213.915584,356.074143 C213.915584,357.320353 212.904769,358.331169 211.658558,358.331169 C210.412348,358.331169 209.402597,357.320353 209.402597,356.074143 C209.402597,354.827932 210.412348,353.818182 211.658558,353.818182 C212.904769,353.818182 213.915584,354.827932 213.915584,356.074143" id="Fill-131" fill="#FFFFFF"></path>
                    <path d="M72.2077922,373.224559 C72.2077922,374.470769 71.1969768,375.480519 69.9507661,375.480519 C68.7045554,375.480519 67.6948052,374.470769 67.6948052,373.224559 C67.6948052,371.977283 68.7045554,370.967532 69.9507661,370.967532 C71.1969768,370.967532 72.2077922,371.977283 72.2077922,373.224559" id="Fill-133" fill="#FFFFFF"></path>
                    <path d="M89.3571429,373.224559 C89.3571429,374.470769 88.3463275,375.480519 87.1001168,375.480519 C85.8539061,375.480519 84.8441558,374.470769 84.8441558,373.224559 C84.8441558,371.977283 85.8539061,370.967532 87.1001168,370.967532 C88.3463275,370.967532 89.3571429,371.977283 89.3571429,373.224559" id="Fill-135" fill="#FFFFFF"></path>
                    <path d="M107.409091,373.224559 C107.409091,374.470769 106.399341,375.480519 105.152065,375.480519 C103.905854,375.480519 102.896104,374.470769 102.896104,373.224559 C102.896104,371.977283 103.905854,370.967532 105.152065,370.967532 C106.399341,370.967532 107.409091,371.977283 107.409091,373.224559" id="Fill-137" fill="#FFFFFF"></path>
                    <path d="M125.461039,373.224559 C125.461039,374.470769 124.451289,375.480519 123.205078,375.480519 C121.957802,375.480519 120.948052,374.470769 120.948052,373.224559 C120.948052,371.977283 121.957802,370.967532 123.205078,370.967532 C124.451289,370.967532 125.461039,371.977283 125.461039,373.224559" id="Fill-139" fill="#FFFFFF"></path>
                    <path d="M143.512987,373.224559 C143.512987,374.470769 142.503237,375.480519 141.257026,375.480519 C140.010815,375.480519 139,374.470769 139,373.224559 C139,371.977283 140.010815,370.967532 141.257026,370.967532 C142.503237,370.967532 143.512987,371.977283 143.512987,373.224559" id="Fill-141" fill="#FFFFFF"></path>
                    <path d="M160.662338,373.224559 C160.662338,374.470769 159.652587,375.480519 158.406377,375.480519 C157.160166,375.480519 156.149351,374.470769 156.149351,373.224559 C156.149351,371.977283 157.160166,370.967532 158.406377,370.967532 C159.652587,370.967532 160.662338,371.977283 160.662338,373.224559" id="Fill-143" fill="#FFFFFF"></path>
                    <path d="M178.714286,373.224559 C178.714286,374.470769 177.704297,375.480519 176.457792,375.480519 C175.211287,375.480519 174.201299,374.470769 174.201299,373.224559 C174.201299,371.977283 175.211287,370.967532 176.457792,370.967532 C177.704297,370.967532 178.714286,371.977283 178.714286,373.224559" id="Fill-145" fill="#FFFFFF"></path>
                    <path d="M196.766234,373.224559 C196.766234,374.470769 195.755418,375.480519 194.509208,375.480519 C193.262997,375.480519 192.253247,374.470769 192.253247,373.224559 C192.253247,371.977283 193.262997,370.967532 194.509208,370.967532 C195.755418,370.967532 196.766234,371.977283 196.766234,373.224559" id="Fill-147" fill="#FFFFFF"></path>
                    <path d="M213.915584,373.224559 C213.915584,374.470769 212.904769,375.480519 211.658558,375.480519 C210.412348,375.480519 209.402597,374.470769 209.402597,373.224559 C209.402597,371.977283 210.412348,370.967532 211.658558,370.967532 C212.904769,370.967532 213.915584,371.977283 213.915584,373.224559" id="Fill-149" fill="#FFFFFF"></path>
                    <path d="M72.2077922,389.471312 C72.2077922,390.717523 71.1969768,391.727273 69.9507661,391.727273 C68.7045554,391.727273 67.6948052,390.717523 67.6948052,389.471312 C67.6948052,388.225101 68.7045554,387.214286 69.9507661,387.214286 C71.1969768,387.214286 72.2077922,388.225101 72.2077922,389.471312" id="Fill-151" fill="#FFFFFF"></path>
                    <path d="M89.3571429,389.471312 C89.3571429,390.717523 88.3463275,391.727273 87.1001168,391.727273 C85.8539061,391.727273 84.8441558,390.717523 84.8441558,389.471312 C84.8441558,388.225101 85.8539061,387.214286 87.1001168,387.214286 C88.3463275,387.214286 89.3571429,388.225101 89.3571429,389.471312" id="Fill-153" fill="#FFFFFF"></path>
                    <path d="M107.409091,389.471312 C107.409091,390.717523 106.399341,391.727273 105.152065,391.727273 C103.905854,391.727273 102.896104,390.717523 102.896104,389.471312 C102.896104,388.225101 103.905854,387.214286 105.152065,387.214286 C106.399341,387.214286 107.409091,388.225101 107.409091,389.471312" id="Fill-155" fill="#FFFFFF"></path>
                    <path d="M125.461039,389.471312 C125.461039,390.717523 124.451289,391.727273 123.205078,391.727273 C121.957802,391.727273 120.948052,390.717523 120.948052,389.471312 C120.948052,388.225101 121.957802,387.214286 123.205078,387.214286 C124.451289,387.214286 125.461039,388.225101 125.461039,389.471312" id="Fill-157" fill="#FFFFFF"></path>
                    <path d="M143.512987,389.471312 C143.512987,390.717523 142.503237,391.727273 141.257026,391.727273 C140.010815,391.727273 139,390.717523 139,389.471312 C139,388.225101 140.010815,387.214286 141.257026,387.214286 C142.503237,387.214286 143.512987,388.225101 143.512987,389.471312" id="Fill-159" fill="#FFFFFF"></path>
                    <path d="M160.662338,389.471312 C160.662338,390.717523 159.652587,391.727273 158.406377,391.727273 C157.160166,391.727273 156.149351,390.717523 156.149351,389.471312 C156.149351,388.225101 157.160166,387.214286 158.406377,387.214286 C159.652587,387.214286 160.662338,388.225101 160.662338,389.471312" id="Fill-161" fill="#FFFFFF"></path>
                    <path d="M178.714286,389.471312 C178.714286,390.717523 177.704297,391.727273 176.457792,391.727273 C175.211287,391.727273 174.201299,390.717523 174.201299,389.471312 C174.201299,388.225101 175.211287,387.214286 176.457792,387.214286 C177.704297,387.214286 178.714286,388.225101 178.714286,389.471312" id="Fill-163" fill="#FFFFFF"></path>
                    <path d="M196.766234,389.471312 C196.766234,390.717523 195.755418,391.727273 194.509208,391.727273 C193.262997,391.727273 192.253247,390.717523 192.253247,389.471312 C192.253247,388.225101 193.262997,387.214286 194.509208,387.214286 C195.755418,387.214286 196.766234,388.225101 196.766234,389.471312" id="Fill-165" fill="#FFFFFF"></path>
                    <path d="M72.2077922,406.619597 C72.2077922,407.865808 71.1969768,408.876623 69.9507661,408.876623 C68.7045554,408.876623 67.6948052,407.865808 67.6948052,406.619597 C67.6948052,405.373387 68.7045554,404.363636 69.9507661,404.363636 C71.1969768,404.363636 72.2077922,405.373387 72.2077922,406.619597" id="Fill-167" fill="#FFFFFF"></path>
                    <path d="M89.3571429,406.619597 C89.3571429,407.865808 88.3463275,408.876623 87.1001168,408.876623 C85.8539061,408.876623 84.8441558,407.865808 84.8441558,406.619597 C84.8441558,405.373387 85.8539061,404.363636 87.1001168,404.363636 C88.3463275,404.363636 89.3571429,405.373387 89.3571429,406.619597" id="Fill-169" fill="#FFFFFF"></path>
                    <path d="M107.409091,406.619597 C107.409091,407.865808 106.399341,408.876623 105.152065,408.876623 C103.905854,408.876623 102.896104,407.865808 102.896104,406.619597 C102.896104,405.373387 103.905854,404.363636 105.152065,404.363636 C106.399341,404.363636 107.409091,405.373387 107.409091,406.619597" id="Fill-171" fill="#FFFFFF"></path>
                    <path d="M125.461039,406.619597 C125.461039,407.865808 124.451289,408.876623 123.205078,408.876623 C121.957802,408.876623 120.948052,407.865808 120.948052,406.619597 C120.948052,405.373387 121.957802,404.363636 123.205078,404.363636 C124.451289,404.363636 125.461039,405.373387 125.461039,406.619597" id="Fill-173" fill="#FFFFFF"></path>
                    <path d="M143.512987,406.619597 C143.512987,407.865808 142.503237,408.876623 141.257026,408.876623 C140.010815,408.876623 139,407.865808 139,406.619597 C139,405.373387 140.010815,404.363636 141.257026,404.363636 C142.503237,404.363636 143.512987,405.373387 143.512987,406.619597" id="Fill-175" fill="#FFFFFF"></path>
                    <path d="M160.662338,406.619597 C160.662338,407.865808 159.652587,408.876623 158.406377,408.876623 C157.160166,408.876623 156.149351,407.865808 156.149351,406.619597 C156.149351,405.373387 157.160166,404.363636 158.406377,404.363636 C159.652587,404.363636 160.662338,405.373387 160.662338,406.619597" id="Fill-177" fill="#FFFFFF"></path>
                    <path d="M178.714286,406.619597 C178.714286,407.865808 177.704297,408.876623 176.457792,408.876623 C175.211287,408.876623 174.201299,407.865808 174.201299,406.619597 C174.201299,405.373387 175.211287,404.363636 176.457792,404.363636 C177.704297,404.363636 178.714286,405.373387 178.714286,406.619597" id="Fill-179" fill="#FFFFFF"></path>
                    <path d="M196.766234,406.619597 C196.766234,407.865808 195.755418,408.876623 194.509208,408.876623 C193.262997,408.876623 192.253247,407.865808 192.253247,406.619597 C192.253247,405.373387 193.262997,404.363636 194.509208,404.363636 C195.755418,404.363636 196.766234,405.373387 196.766234,406.619597" id="Fill-181" fill="#FFFFFF"></path>
                    <g id="Group-185" transform="translate(97.480519, 369.162338)">
                        <mask id="mask-4" fill="white">
                            <use xlink:href="#path-3"></use>
                        </mask>
                        <g id="Clip-184"></g>
                        <polygon id="Fill-183" fill="#C484D9" mask="url(#mask-4)" points="0.107426015 123.655941 0.107426015 0.578767314 123.184599 0.578767314"></polygon>
                    </g>
                </g>
            </g>
        </g>
    </g>
</svg>