<?xml version="1.0" encoding="UTF-8"?>
<svg width="35px" height="30px" viewBox="0 0 35 30" version="1.1" xmlns="http://www.w3.org/2000/svg" xmlns:xlink="http://www.w3.org/1999/xlink">
    <!-- Generator: Sketch 51 (57462) - http://www.bohemiancoding.com/sketch -->
    <title>Group 32</title>
    <desc>Created with Sketch.</desc>
    <defs></defs>
    <g id="Final-" stroke="none" stroke-width="1" fill="none" fill-rule="evenodd">
        <g id="Order-management-final-Copy" transform="translate(-766.000000, -3010.000000)">
            <rect fill="#FFFFFF" x="0" y="0" width="1440" height="4215"></rect>
            <g id="Group-32" transform="translate(766.000000, 3010.000000)" fill="#6200EA">
                <path d="M18.3333333,8.33333333 L18.3333333,16.6666667 L25.4666667,20.9 L26.6666667,18.8833333 L20.8333333,15.4166667 L20.8333333,8.33333333 L18.3333333,8.33333333 Z M20,0 C11.7166667,0 5,6.71666667 5,15 L0,15 L6.48333333,21.4833333 L6.6,21.7166667 L13.3333333,15 L8.33333333,15 C8.33333333,8.55 13.55,3.33333333 20,3.33333333 C26.45,3.33333333 31.6666667,8.55 31.6666667,15 C31.6666667,21.45 26.45,26.6666667 20,26.6666667 C16.7833333,26.6666667 13.8666667,25.35 11.7666667,23.2333333 L9.4,25.6 C12.1166667,28.3166667 15.85,30 20,30 C28.2833333,30 35,23.2833333 35,15 C35,6.71666667 28.2833333,0 20,0 Z" id="Fill-1"></path>
            </g>
        </g>
    </g>
</svg>