<?xml version="1.0" encoding="UTF-8"?>
<svg width="41px" height="30px" viewBox="0 0 41 30" version="1.1" xmlns="http://www.w3.org/2000/svg" xmlns:xlink="http://www.w3.org/1999/xlink">
    <!-- Generator: Sketch 51 (57462) - http://www.bohemiancoding.com/sketch -->
    <title>Group 25</title>
    <desc>Created with Sketch.</desc>
    <defs></defs>
    <g id="Final-" stroke="none" stroke-width="1" fill="none" fill-rule="evenodd">
        <g id="Order-management-final-Copy" transform="translate(-181.000000, -3269.000000)">
            <rect fill="#FFFFFF" x="0" y="0" width="1440" height="4215"></rect>
            <g id="Group-25" transform="translate(181.000000, 3269.000000)" fill="#6200EA">
                <path d="M9.31818182,15 C9.31818182,8.79375 14.3313636,3.75 20.5,3.75 C22.3822727,3.75 24.1713636,4.21875 25.7181818,5.0625 L28.4390909,2.325 C26.1468182,0.8625 23.4259091,0 20.5,0 C12.2627273,0 5.59090909,6.7125 5.59090909,15 L0,15 L7.45454545,22.5 L14.9090909,15 L9.31818182,15 Z M33.5454545,7.5 L26.0909091,15 L31.6818182,15 C31.6818182,21.20625 26.6686364,26.25 20.5,26.25 C18.6177273,26.25 16.8286364,25.78125 15.2818182,24.9375 L12.5609091,27.675 C14.8531818,29.1375 17.5740909,30 20.5,30 C28.7372727,30 35.4090909,23.2875 35.4090909,15 L41,15 L33.5454545,7.5 Z" id="Fill-1"></path>
            </g>
        </g>
    </g>
</svg>