<?xml version="1.0" encoding="utf-8"?>
<!-- Generator: Adobe Illustrator 22.1.0, SVG Export Plug-In . SVG Version: 6.00 Build 0)  -->
<svg version="1.1" id="Layer_1" xmlns="http://www.w3.org/2000/svg" xmlns:xlink="http://www.w3.org/1999/xlink" x="0px" y="0px"
	 viewBox="0 0 436 405" style="enable-background:new 0 0 436 405;" xml:space="preserve">
<style type="text/css">
	.st0{fill:#FF7846;}
	.st1{fill:#FFFFFF;}
	.st2{filter:url(#Adobe_OpacityMaskFilter);}
	.st3{mask:url(#mask-4_1_);fill:#FFAE90;}
	.st4{filter:url(#Adobe_OpacityMaskFilter_1_);}
	.st5{mask:url(#mask-4_2_);fill:#FFAE90;}
	.st6{filter:url(#Adobe_OpacityMaskFilter_2_);}
	.st7{mask:url(#mask-4_3_);fill:#BAB6F2;}
	.st8{filter:url(#Adobe_OpacityMaskFilter_3_);}
	.st9{mask:url(#mask-4_4_);fill:#28145A;}
	.st10{filter:url(#Adobe_OpacityMaskFilter_4_);}
	.st11{mask:url(#mask-4_5_);fill:#28145A;}
	.st12{filter:url(#Adobe_OpacityMaskFilter_5_);}
	.st13{mask:url(#mask-4_6_);fill:#28145A;}
	.st14{filter:url(#Adobe_OpacityMaskFilter_6_);}
	.st15{mask:url(#mask-4_7_);fill:#28145A;}
	.st16{filter:url(#Adobe_OpacityMaskFilter_7_);}
	.st17{mask:url(#mask-4_8_);fill:#28145A;}
	.st18{fill:#28145A;}
	.st19{filter:url(#Adobe_OpacityMaskFilter_8_);}
	.st20{mask:url(#mask-4_13_);fill:#BAB6F2;}
	.st21{filter:url(#Adobe_OpacityMaskFilter_9_);}
	.st22{mask:url(#mask-4_14_);fill:#BAB6F2;}
	.st23{filter:url(#Adobe_OpacityMaskFilter_10_);}
	.st24{mask:url(#mask-4_15_);fill:#BAB6F2;}
	.st25{filter:url(#Adobe_OpacityMaskFilter_11_);}
	.st26{mask:url(#mask-4_16_);fill:#FFAE90;}
	.st27{filter:url(#Adobe_OpacityMaskFilter_12_);}
	.st28{mask:url(#mask-4_17_);fill:#28145A;}
	.st29{filter:url(#Adobe_OpacityMaskFilter_13_);}
	.st30{mask:url(#mask-4_18_);fill:#28145A;}
	.st31{filter:url(#Adobe_OpacityMaskFilter_14_);}
	.st32{mask:url(#mask-4_19_);fill:#28145A;}
	.st33{filter:url(#Adobe_OpacityMaskFilter_15_);}
	.st34{mask:url(#mask-4_20_);fill:#28145A;}
	.st35{filter:url(#Adobe_OpacityMaskFilter_16_);}
	.st36{mask:url(#mask-4_21_);fill:#28145A;}
	.st37{filter:url(#Adobe_OpacityMaskFilter_17_);}
	.st38{mask:url(#mask-4_22_);fill:#28145A;}
	.st39{filter:url(#Adobe_OpacityMaskFilter_18_);}
	.st40{mask:url(#mask-4_23_);fill:#28145A;}
	.st41{filter:url(#Adobe_OpacityMaskFilter_19_);}
	.st42{mask:url(#mask-4_26_);fill:#827AED;}
	.st43{filter:url(#Adobe_OpacityMaskFilter_20_);}
	.st44{mask:url(#mask-4_27_);fill:#BAB6F2;}
	.st45{filter:url(#Adobe_OpacityMaskFilter_21_);}
	.st46{mask:url(#mask-4_28_);fill:#BAB6F2;}
	.st47{filter:url(#Adobe_OpacityMaskFilter_22_);}
	.st48{mask:url(#mask-4_29_);fill:#BAB6F2;}
	.st49{filter:url(#Adobe_OpacityMaskFilter_23_);}
	.st50{mask:url(#mask-4_30_);fill:#BAB6F2;}
	.st51{fill:#FFB69E;}
	.st52{fill:#BAB6F2;}
	.st53{filter:url(#Adobe_OpacityMaskFilter_24_);}
	.st54{mask:url(#mask-4_12_);fill:#827AED;}
	.st55{filter:url(#Adobe_OpacityMaskFilter_25_);}
	.st56{mask:url(#mask-4_11_);fill:#BAB6F2;}
	.st57{filter:url(#Adobe_OpacityMaskFilter_26_);}
	.st58{mask:url(#mask-4_10_);fill:#BAB6F2;}
	.st59{fill:#00001E;}
</style>
<title>Group 33</title>
<desc>Created with Sketch.</desc>
<g id="Page-2">
	<g id="Order-management-final-Copy-2" transform="translate(-842.000000, -150.000000)">
		<g id="Group-33" transform="translate(842.000000, 150.000000)">
			<g id="Group-6">
				<g id="Group-62">
					<g id="Clip-4">
					</g>
					<path id="Fill-6" class="st0" d="M202.4,216.6c0.6-0.9,0.4-2.1-0.5-2.7c-0.9-0.6-2.1-0.4-2.7,0.5c-0.6,0.9-0.4,2.1,0.5,2.7
						C200.6,217.7,201.9,217.4,202.4,216.6"/>
					<path id="Fill-8" class="st0" d="M196.7,225.7c-3.6,2.7-7.7,4.6-12.1,5.7c-0.7,0.1-1.1,0.9-1,1.5c0.1,0.6,0.6,1,1.2,1
						c0.1,0,0.2,0,0.3,0c4.7-1.1,9.1-3.2,13.1-6.1c0.6-0.4,0.7-1.2,0.3-1.8C198.1,225.4,197.3,225.3,196.7,225.7"/>
					<path id="Fill-10" class="st0" d="M201,221.9c-0.5,0.5-0.9,1-1.4,1.4c-0.5,0.5-0.6,1.3-0.1,1.8c0.3,0.3,0.6,0.4,0.9,0.4
						c0.3,0,0.6-0.1,0.9-0.4c0.5-0.5,1-1,1.5-1.5c0.5-0.5,0.5-1.3-0.1-1.8C202.3,221.4,201.5,221.4,201,221.9"/>
					<path id="Fill-12" class="st0" d="M192.9,214.5c-1.2,1.3-1.9,1.9-3.4,2.9c-0.6,0.4-0.7,1.2-0.3,1.8c0.3,0.4,0.6,0.5,1.1,0.5
						c0.3,0,0.5-0.1,0.7-0.2c1.5-1.1,2.4-1.8,3.8-3.2c0.5-0.5,0.4-1.3-0.1-1.8C194.2,214,193.4,214,192.9,214.5"/>
					<path id="Fill-14" class="st0" d="M204.2,177.4c-0.3-0.8-0.8-1.5-1.3-2.1c0.6,0.6,0.9,1-0.1-0.1c-1.6-1.7-1-1-0.3-0.3
						c-1.1-1.2-2.3-2.3-3.6-3.3c-2.3-1.8-4.8-3.3-7.6-4.5c-1.7-0.7-3.4-1.3-5.1-1.8c0,0,0,0,0,0c-0.1,0-0.3-0.1-0.4-0.1
						c-0.5-0.1-0.9-0.2-1.4-0.3c-0.9-0.2-1.9-0.3-2.8-0.4c-1.5-0.2-3-0.3-4.5-0.3c0,0-0.1,0-0.1,0c0,0-0.1,0-0.1,0
						c-1.1,0-2.1,0.1-3.1,0.2c-8.2,0.8-15.8,4.3-21.7,10.2c-0.7,0.7-1.3,1.4-1.9,2.1c-0.5,0.6-1,1.2-1.5,1.8
						c-1.3,1.7-2.4,3.6-3.4,5.6c-0.6,1.1-1,2.3-1.5,3.5c0,0,0,0.1,0,0.1c-0.1,0.4-0.3,0.9-0.4,1.3c-0.1,0.3-0.2,0.5-0.2,0.8
						c0,0.1-0.1,0.2-0.1,0.4c0,0.1-0.1,0.2-0.1,0.3c-0.1,0.3-0.1,0.5-0.2,0.8c-0.1,0.4-0.2,0.8-0.3,1.2c0,0.1,0,0.2-0.1,0.3
						c-0.1,0.5-0.2,1-0.3,1.5c0,0,0,0.1,0,0.1c-0.1,0.5-0.1,1.1-0.2,1.6c0,0,0,0,0,0.1c0,0.2,0,0.3-0.1,0.5c-0.2,2.3-0.2,4.7,0.1,7
						c0.1,1,0.3,1.9,0.5,2.9c0,0.1,0,0.1,0,0.2c0.1,0.4,0.2,0.9,0.3,1.3c0,0.2,0.1,0.3,0.1,0.5c0.1,0.3,0.2,0.6,0.2,0.9
						c0.1,0.4,0.2,0.8,0.3,1.1c0,0,0,0.1,0,0.1c0,0,0,0.1,0,0.1c0.2,0.5,0.3,1,0.5,1.4c0,0.1,0.1,0.2,0.1,0.2c0.2,0.5,0.4,1,0.6,1.5
						c0,0,0,0.1,0.1,0.1c1.7,3.9,4.2,7.5,7.3,10.6c6.7,6.7,15.6,10.3,25,10.3c1.4,0,2.8-0.1,4.1-0.3c0.7-0.1,1.2-0.7,1.1-1.4
						c-0.1-0.7-0.7-1.2-1.4-1.1c-1.3,0.1-2.6,0.2-3.9,0.2c-0.2,0-0.4,0-0.6,0c-0.2-0.8-0.4-1.5-0.7-2.3c0.4,0,0.9,0,1.3,0
						c4.3,0,8.4-0.9,12.2-2.5c3.7-1.7,7.1-4,9.9-7c0.7-0.8,0.7-2-0.1-2.7c-0.8-0.7-2-0.7-2.7,0.1c-2.5,2.6-5.4,4.6-8.6,6.1
						c-3.4,1.5-7,2.2-10.7,2.2c-1.1,0-2.2-0.1-3.3-0.2c-0.3-0.5-0.6-1-1-1.5c-0.3-0.4-0.6-0.8-0.9-1.1c1.7,0.4,3.4,0.6,5.2,0.6
						c3.6,0,7.1-0.8,10.4-2.3c0.6-0.3,0.9-1.1,0.6-1.7c-0.3-0.6-1.1-0.9-1.7-0.6c-2.9,1.4-6.1,2.1-9.3,2.1c-6.4,0-12.2-2.8-16.2-7.2
						c0,0,0,0-0.1-0.1c-0.2-0.2-0.4-0.5-0.6-0.7c0,0,0,0,0,0c-0.3-0.4-0.6-0.8-0.9-1.2c0,0-0.1-0.1-0.1-0.1
						c-0.6-0.8-1.1-1.6-1.5-2.5c-0.1-0.1-0.1-0.3-0.2-0.4c-0.2-0.3-0.3-0.7-0.5-1c0-0.1-0.1-0.2-0.1-0.2c-0.2-0.4-0.3-0.8-0.5-1.2
						c-0.1-0.2-0.1-0.3-0.2-0.5c-0.1-0.3-0.2-0.7-0.3-1c0-0.1,0-0.2-0.1-0.2c-0.1-0.5-0.2-0.9-0.3-1.4c0-0.1,0-0.1,0-0.2
						c-0.1-0.5-0.2-0.9-0.2-1.4c0,0,0,0,0,0c-0.2-1.4-0.2-2.8-0.1-4.3c0,0,0-0.1,0-0.1c0-0.3,0.1-0.6,0.1-0.9
						c0.1-0.9,0.3-1.7,0.5-2.5c0-0.1,0-0.1,0-0.2c0.1-0.3,0.2-0.6,0.2-0.8c0-0.1,0.1-0.2,0.1-0.3c0.1-0.3,0.2-0.5,0.3-0.8
						c0-0.1,0.1-0.2,0.1-0.4c0.1-0.2,0.2-0.5,0.3-0.7c0,0,0-0.1,0-0.1c0.4-0.9,0.8-1.8,1.4-2.7c0-0.1,0.1-0.1,0.1-0.1
						c0.2-0.3,0.3-0.5,0.5-0.8c0-0.1,0.1-0.1,0.1-0.2c1.6-2.3,3.5-4.3,5.8-5.8c0.7-0.5,1.4-0.9,2.2-1.3c1.5-0.8,3.2-1.4,4.8-1.8
						c0,0,0.1,0,0.1,0c1.7-0.4,3.5-0.6,5.2-0.6c0.1,0,0.2,0,0.3,0c0.4,0,0.8,0,1.2,0.1c0.1,0,0.1,0,0.2,0c1,0.1,1.9,0.2,2.9,0.4
						c0.1,0,0.2,0.1,0.3,0.1c0.3,0.1,0.7,0.2,1,0.3c0.1,0,0.3,0.1,0.4,0.1c0.4,0.1,0.9,0.3,1.3,0.4c0,0,0,0,0.1,0
						c0.4,0.2,0.8,0.3,1.3,0.5c0.1,0,0.1,0.1,0.2,0.1c0.4,0.2,0.8,0.4,1.2,0.6c0,0,0.1,0,0.1,0.1c0.4,0.2,0.7,0.4,1.1,0.6
						c0.2,0.1,0.4,0.2,0.6,0.4c0.2,0.2,0.4,0.3,0.7,0.5c0.1,0.1,0.3,0.2,0.4,0.3c0.2,0.2,0.5,0.4,0.7,0.6c0.4,0.3,0.7,0.6,1.1,0.9
						c0,0,0,0,0.1,0.1c0.3,0.3,0.5,0.5,0.8,0.8c0.1,0.1,0.1,0.1,0.2,0.1c0.2,0.2,0.4,0.4,0.6,0.6c1.6,1.3,3.8,1.7,5.8,1.2
						c2-0.5,3.6-1.9,4.5-3.7C204.7,181,204.8,179.1,204.2,177.4"/>
					<path id="Fill-16" class="st0" d="M168.7,199.5c0,4.6,3.7,8.4,8.4,8.4c4.6,0,8.4-3.7,8.4-8.4c0-4.6-3.7-8.4-8.4-8.4
						C172.5,191.1,168.7,194.8,168.7,199.5"/>
					<path id="Fill-18" class="st1" d="M86.6,74.1c0,0,34.5-1.7,38.9,2.8c4.4,4.4,1,23.5,1,23.5s-2,5.2-9.8,5
						c-7.8-0.3-40.3,0.3-40.3,0.3l-6.8-29.5L86.6,74.1z"/>
					<g id="Clip-21">
					</g>
					<defs>
						<filter id="Adobe_OpacityMaskFilter" filterUnits="userSpaceOnUse" x="75.5" y="59.3" width="16.7" height="14.8">
							<feColorMatrix  type="matrix" values="1 0 0 0 0  0 1 0 0 0  0 0 1 0 0  0 0 0 1 0"/>
						</filter>
					</defs>
					<mask maskUnits="userSpaceOnUse" x="75.5" y="59.3" width="16.7" height="14.8" id="mask-4_1_">
						<g class="st2">
							<polygon id="path-3_1_" class="st1" points="0,414 435.1,414 435.1,0.1 0,0.1 							"/>
						</g>
					</mask>
					<polygon id="Fill-20" class="st3" points="75.5,74.1 92.2,74.1 92.2,59.3 75.5,59.3 					"/>
					<defs>
						<filter id="Adobe_OpacityMaskFilter_1_" filterUnits="userSpaceOnUse" x="102.3" y="61.9" width="16.7" height="14.8">
							<feColorMatrix  type="matrix" values="1 0 0 0 0  0 1 0 0 0  0 0 1 0 0  0 0 0 1 0"/>
						</filter>
					</defs>
					<mask maskUnits="userSpaceOnUse" x="102.3" y="61.9" width="16.7" height="14.8" id="mask-4_2_">
						<g class="st4">
							<polygon id="path-3_2_" class="st1" points="-0.5,413.5 434.5,413.5 434.5,-0.5 -0.5,-0.5 							"/>
						</g>
					</mask>
					<polygon id="Fill-22" class="st5" points="102.3,76.7 119,76.7 119,61.9 102.3,61.9 					"/>
					<defs>
						<filter id="Adobe_OpacityMaskFilter_2_" filterUnits="userSpaceOnUse" x="84.4" y="49.5" width="24.4" height="24.8">
							<feColorMatrix  type="matrix" values="1 0 0 0 0  0 1 0 0 0  0 0 1 0 0  0 0 0 1 0"/>
						</filter>
					</defs>
					<mask maskUnits="userSpaceOnUse" x="84.4" y="49.5" width="24.4" height="24.8" id="mask-4_3_">
						<g class="st6">
							<polygon id="path-3_3_" class="st1" points="0,414 435.1,414 435.1,0.1 0,0.1 							"/>
						</g>
					</mask>
					<polygon id="Fill-23" class="st7" points="84.4,74.3 108.8,74.3 108.8,49.5 84.4,49.5 					"/>
					<defs>
						<filter id="Adobe_OpacityMaskFilter_3_" filterUnits="userSpaceOnUse" x="42.1" y="47.8" width="86.9" height="71.2">
							<feColorMatrix  type="matrix" values="1 0 0 0 0  0 1 0 0 0  0 0 1 0 0  0 0 0 1 0"/>
						</filter>
					</defs>
					<mask maskUnits="userSpaceOnUse" x="42.1" y="47.8" width="86.9" height="71.2" id="mask-4_4_">
						<g class="st8">
							<polygon id="path-3_4_" class="st1" points="0,414 435.1,414 435.1,0.1 0,0.1 							"/>
						</g>
					</mask>
					<path id="Fill-24" class="st9" d="M53.7,57.2c-2.1,0-4.1,0-6.2,0c-0.7,0-1.2,0.2-1.2,1.1c0,0.8,0.5,1.1,1.2,1.1
						c4,0,8.1,0,12.1,0c0.7,0,1.3-0.2,1.3-1.1c0-0.8-0.5-1-1.2-1C57.7,57.2,55.7,57.2,53.7,57.2z M105,72.8h11.4v-8.2H105V72.8z
						 M77.8,72.8h11.4V60.4H77.8V72.8z M86.2,56.1c0.2,0.1,0.2,0.1,0.3,0.1c1.5,0,2.9,0,4.4,0c1.8,0,2.5,0.8,2.5,2.6
						c0,4.3,0,8.7,0,13v1h7.3v-1.1c0-3,0-5.9,0-8.9c0-1.7,0.8-2.4,2.5-2.5c1.2,0,2.5,0,3.7,0v-8.2H86.2V56.1z M77.5,103.2h1.1
						c13.9,0,27.8,0,41.6,0c2.8,0,4.5-1.7,4.5-4.5c0-5.7,0-11.4,0-17.1c0-2.8-1.7-4.5-4.5-4.5c-15.2,0-30.5,0-45.7,0
						c-0.3,0-0.7,0-1.1,0.1C74.8,85.9,76.1,94.6,77.5,103.2z M81.9,56.2c0-2,0-3.8,0-5.7c0-1.9,0.7-2.7,2.7-2.7c8,0,16,0,24,0
						c1.9,0,2.7,0.8,2.7,2.7c0,2.9,0,5.8,0,8.7v1.2h6.5c2.2,0,2.9,0.7,2.9,2.9v8.5v1c1,0.2,1.8,0.3,2.7,0.6c3.5,1.2,5.7,4.1,5.7,8
						c0.1,5.9,0.1,11.8,0,17.6c-0.1,5-3.7,8.5-8.9,8.5c-7.2,0-14.4,0-21.5,0c-7.2,0-14.5,0-21.7,0c-2.4,0-3.8,1.1-4.2,3
						c-0.4,1.8,0.8,3.7,2.6,4.1c0.6,0.1,1.2,0.2,1.8,0.2c16.4,0,32.7,0,49.1,0c0.6,0,1.3,0.1,1.8,0.3c0.9,0.4,1.2,1.3,1,2.2
						c-0.2,0.9-0.9,1.5-1.8,1.6c-0.3,0-0.5,0-0.8,0c-16.6,0-33.2,0-49.8,0c-3.3,0-5.8-1.3-7.4-4.3c-2-3.8-0.6-8.4,3.2-10.4
						c0.8-0.4,0.9-0.8,0.8-1.6c-1.8-11.2-3.5-22.5-5.3-33.7c-0.2-1.4-0.4-2.9-0.8-4.3c-0.2-0.8-0.8-1.6-1.4-2.2
						c-1-1-1.4-0.9-2.4-0.1c-0.9,0.7-1.9,1.1-3.1,1.1c-4.3,0-8.7,0-13,0c-3,0-5.1-2.3-5.1-5.2c0-2.9,2.1-5.1,5.1-5.2
						c4.3,0,8.6,0,12.8,0c2.5,0,4.2,1.5,4.9,3.8c0.1,0.3,0.3,0.6,0.5,0.7c3.8,1.3,5.5,4.2,6.1,7.9c0.3,2.2,0.7,4.5,1,6.7
						c0,0.3,0.4,0.5,0.5,0.7c0.1-0.3,0.3-0.5,0.3-0.8c0-4.4,0-8.7,0-13.1c0-2.2,0.6-2.8,2.8-2.8C78.1,56.2,79.9,56.2,81.9,56.2z"/>
					<defs>
						<filter id="Adobe_OpacityMaskFilter_4_" filterUnits="userSpaceOnUse" x="112.2" y="121.4" width="13.3" height="13.2">
							<feColorMatrix  type="matrix" values="1 0 0 0 0  0 1 0 0 0  0 0 1 0 0  0 0 0 1 0"/>
						</filter>
					</defs>
					<mask maskUnits="userSpaceOnUse" x="112.2" y="121.4" width="13.3" height="13.2" id="mask-4_5_">
						<g class="st10">
							<polygon id="path-3_5_" class="st1" points="0,414 435.1,414 435.1,0.1 0,0.1 							"/>
						</g>
					</mask>
					<path id="Fill-25" class="st11" d="M121.3,128c0-1.3-1.1-2.4-2.4-2.4c-1.3,0-2.4,1.1-2.4,2.5c0,1.3,1.1,2.4,2.4,2.4
						C120.2,130.5,121.3,129.3,121.3,128 M118.8,134.6c-3.5,0.1-6.5-2.9-6.6-6.5c-0.1-3.7,2.9-6.6,6.7-6.7c3.5-0.1,6.5,2.9,6.6,6.5
						C125.6,131.6,122.6,134.6,118.8,134.6"/>
					<defs>
						<filter id="Adobe_OpacityMaskFilter_5_" filterUnits="userSpaceOnUse" x="77.7" y="121.4" width="13.3" height="13.2">
							<feColorMatrix  type="matrix" values="1 0 0 0 0  0 1 0 0 0  0 0 1 0 0  0 0 0 1 0"/>
						</filter>
					</defs>
					<mask maskUnits="userSpaceOnUse" x="77.7" y="121.4" width="13.3" height="13.2" id="mask-4_6_">
						<g class="st12">
							<polygon id="path-3_6_" class="st1" points="0,414 435.1,414 435.1,0.1 0,0.1 							"/>
						</g>
					</mask>
					<path id="Fill-26" class="st13" d="M86.8,128.1c0-1.3-1.1-2.4-2.4-2.5c-1.3,0-2.4,1.1-2.5,2.4c0,1.3,1.1,2.4,2.4,2.5
						C85.6,130.5,86.7,129.4,86.8,128.1 M84.2,134.6c-3.5,0-6.4-2.9-6.5-6.5c0-3.8,2.9-6.7,6.8-6.7c3.5,0,6.5,3,6.5,6.6
						C91,131.7,88,134.6,84.2,134.6"/>
					<defs>
						<filter id="Adobe_OpacityMaskFilter_6_" filterUnits="userSpaceOnUse" x="85" y="91.7" width="31.4" height="4.2">
							<feColorMatrix  type="matrix" values="1 0 0 0 0  0 1 0 0 0  0 0 1 0 0  0 0 0 1 0"/>
						</filter>
					</defs>
					<mask maskUnits="userSpaceOnUse" x="85" y="91.7" width="31.4" height="4.2" id="mask-4_7_">
						<g class="st14">
							<polygon id="path-3_7_" class="st1" points="0,414 435.1,414 435.1,0.1 0,0.1 							"/>
						</g>
					</mask>
					<path id="Fill-27" class="st15" d="M100.7,96c-4.4,0-8.8,0-13.1,0c-0.7,0-1.5-0.3-1.9-0.7c-1.1-1-0.6-2.9,0.8-3.4
						c0.4-0.1,0.9-0.1,1.4-0.1c8.6,0,17.2,0,25.8,0c0.2,0,0.3,0,0.5,0c1.4,0,2.3,0.9,2.3,2.1c0,1.2-0.9,2.1-2.3,2.1
						c-0.2,0-0.5,0-0.7,0H100.7z"/>
					<defs>
						<filter id="Adobe_OpacityMaskFilter_7_" filterUnits="userSpaceOnUse" x="85" y="83.4" width="31.4" height="4.2">
							<feColorMatrix  type="matrix" values="1 0 0 0 0  0 1 0 0 0  0 0 1 0 0  0 0 0 1 0"/>
						</filter>
					</defs>
					<mask maskUnits="userSpaceOnUse" x="85" y="83.4" width="31.4" height="4.2" id="mask-4_8_">
						<g class="st16">
							<polygon id="path-3_8_" class="st1" points="0,414 435.1,414 435.1,0.1 0,0.1 							"/>
						</g>
					</mask>
					<path id="Fill-28" class="st17" d="M100.7,87.6c-4.5,0-8.9,0-13.4,0c-1.6,0-2.6-1.3-2.2-2.7c0.3-0.8,0.8-1.3,1.7-1.4
						c0.5-0.1,1,0,1.6,0c8.3,0,16.7,0,25,0c0.3,0,0.7,0,1,0c1.2,0.1,2.1,0.9,2.1,2c0,1.2-0.9,2.1-2.1,2.1c-1.9,0-3.9,0-5.8,0
						C105.9,87.6,103.3,87.6,100.7,87.6"/>
					<path class="st18" d="M127.6,13.3c-0.8-7.6-7-12.9-14.5-13.2c-2.6-0.1-5.2,0-7.8,0H24.9C15.7,0.1,4.3-1,0.7,10.2
						C-0.2,13.1,0,16.1,0,19.1V34v77.2c0,5.5,1.4,10.6,6.2,14c4.7,3.3,10.5,2.7,15.9,2.7h39.6c3.2,0,3.2-5,0-5H30.7
						c-8.8,0-25.2,3.1-25.7-10C4.2,90.7,5,68.4,5,46.3V23.6h117.9c-0.1,1.8-0.2,3.4-0.2,4.8v16.8c0,3.2,5,3.2,5,0
						C127.7,34.8,128.7,23.8,127.6,13.3z"/>
					<defs>
						<filter id="Adobe_OpacityMaskFilter_8_" filterUnits="userSpaceOnUse" x="34.8" y="93.1" width="23.8" height="5.3">
							<feColorMatrix  type="matrix" values="1 0 0 0 0  0 1 0 0 0  0 0 1 0 0  0 0 0 1 0"/>
						</filter>
					</defs>
					<mask maskUnits="userSpaceOnUse" x="34.8" y="93.1" width="23.8" height="5.3" id="mask-4_13_">
						<g class="st19">
							<polygon id="path-3_13_" class="st1" points="0,414 435.1,414 435.1,0.1 0,0.1 							"/>
						</g>
					</mask>
					<path id="Fill-33" class="st20" d="M37.2,98.3c6.3,0.2,12.7,0.1,19-0.2c3.2-0.2,3.2-5.2,0-5c-6.3,0.3-12.7,0.4-19,0.2
						C34,93.2,34,98.2,37.2,98.3"/>
					<defs>
						<filter id="Adobe_OpacityMaskFilter_9_" filterUnits="userSpaceOnUse" x="21.8" y="101.8" width="35.3" height="5">
							<feColorMatrix  type="matrix" values="1 0 0 0 0  0 1 0 0 0  0 0 1 0 0  0 0 0 1 0"/>
						</filter>
					</defs>
					<mask maskUnits="userSpaceOnUse" x="21.8" y="101.8" width="35.3" height="5" id="mask-4_14_">
						<g class="st21">
							<polygon id="path-3_14_" class="st1" points="0,414 435.1,414 435.1,0.1 0,0.1 							"/>
						</g>
					</mask>
					<path id="Fill-34" class="st22" d="M24.2,106.8h30.5c3.2,0,3.2-5,0-5H24.2C21,101.8,21,106.8,24.2,106.8"/>
					<defs>
						<filter id="Adobe_OpacityMaskFilter_10_" filterUnits="userSpaceOnUse" x="317.9" y="330.6" width="74" height="55.6">
							<feColorMatrix  type="matrix" values="1 0 0 0 0  0 1 0 0 0  0 0 1 0 0  0 0 0 1 0"/>
						</filter>
					</defs>
					<mask maskUnits="userSpaceOnUse" x="317.9" y="330.6" width="74" height="55.6" id="mask-4_15_">
						<g class="st23">
							<polygon id="path-3_15_" class="st1" points="0,414 435.1,414 435.1,0.1 0,0.1 							"/>
						</g>
					</mask>
					<polygon id="Fill-36" class="st24" points="391.9,386.2 345,386.2 337,382.1 329.5,386.2 317.9,386.2 317.9,330.6 391.9,330.6 
											"/>
					<defs>
						<filter id="Adobe_OpacityMaskFilter_11_" filterUnits="userSpaceOnUse" x="345.6" y="339.5" width="38.7" height="34.3">
							<feColorMatrix  type="matrix" values="1 0 0 0 0  0 1 0 0 0  0 0 1 0 0  0 0 0 1 0"/>
						</filter>
					</defs>
					<mask maskUnits="userSpaceOnUse" x="345.6" y="339.5" width="38.7" height="34.3" id="mask-4_16_">
						<g class="st25">
							<polygon id="path-3_16_" class="st1" points="0,414 435.1,414 435.1,0.1 0,0.1 							"/>
						</g>
					</mask>
					<path id="Fill-37" class="st26" d="M371.2,339.5l-1.7,2.5c0.9,0.8,0.9,2,0.5,3c-0.2,0.5-0.4,1.3-0.6,1.9c-0.5,1.3-1.6,2-3,1.7
						c-0.7-0.1-1.6-0.1-2.3,0.2c-0.2,0.1-0.5,0.2-0.7,0.3c-2.4,0.7-4-2.6-2.4-4.1c-0.2-0.8-0.2-1.6-0.1-2.4c0-0.2,0.1-0.5,0.3-0.7
						l-1.8-2.5h-13.8v34.3h11.6v-4.5c-0.9-1.4-0.3-3.8,1.9-3.8h8.1c1.4-0.5,3.4,0.2,3.4,2.2v6.1h13.7v-34.3H371.2z"/>
					<defs>
						<filter id="Adobe_OpacityMaskFilter_12_" filterUnits="userSpaceOnUse" x="311.3" y="329.7" width="123.8" height="75">
							<feColorMatrix  type="matrix" values="1 0 0 0 0  0 1 0 0 0  0 0 1 0 0  0 0 0 1 0"/>
						</filter>
					</defs>
					<mask maskUnits="userSpaceOnUse" x="311.3" y="329.7" width="123.8" height="75" id="mask-4_17_">
						<g class="st27">
							<polygon id="path-3_17_" class="st1" points="0,414 435.1,414 435.1,0.1 0,0.1 							"/>
						</g>
					</mask>
					<path id="Fill-38" class="st28" d="M431.2,385.1c0,0.2-0.1,0.5-0.1,0.8c-2.4,0-4.7,0-7,0c-0.3,0-0.6-0.3-0.8-0.6
						c-5.1-6.6-14.4-6.6-19.6,0c-0.2,0.3-0.7,0.6-1,0.7c-2.3,0.1-4.5,0-6.9,0v-31.9h1.2c7.6,0,15.3,0,22.9,0c0.8,0,1.3,0.2,1.7,0.9
						c3,5.1,6.1,10.2,9.1,15.2c0.3,0.5,0.5,1,0.5,1.5C431.2,376.2,431.2,380.7,431.2,385.1z M425.4,395.1h5.7v-5.2h-5.7V395.1z
						 M413.4,400.8c-4.5,0-8.3-3.8-8.2-8.3c0-4.5,3.8-8.3,8.3-8.3c4.6,0,8.3,3.7,8.3,8.3C421.7,397.1,417.9,400.9,413.4,400.8z
						 M349.9,395.1h51.3V390h-51.3V395.1z M342,333.5c16.3,0,32.6,0,49,0c0.2,0,0.4,0,0.7,0.1c0,0.4,0.1,0.8,0.1,1.3
						c0,16.6,0,33.1,0,49.7c0,1.1-0.3,1.4-1.4,1.4c-13.7,0-27.5,0-41.2,0c-0.6,0-1.1-0.1-1.6-0.7c-4.9-6.5-14.3-6.6-19.4-0.2
						c-0.5,0.6-1,0.9-1.8,0.9c-2.1,0-4.1,0-6.3,0v-52.4c1.9,0,3.7,0,5.5,0L342,333.5z M337.8,400.8c-4.6,0-8.3-3.7-8.3-8.3
						c0-4.6,3.7-8.4,8.4-8.3c4.6,0,8.3,3.8,8.3,8.3C346.1,397,342.2,400.8,337.8,400.8z M315.3,395.3h10.3v-5.2h-10.3V395.3z
						 M324.2,329.7c-1.9,0-3.5,0-5.2,0c-2.5,0-2.9,0.5-2.9,2.9v51.6v1.7c-0.9,0-1.6,0-2.3,0c-1.9,0-2.5,0.6-2.5,2.5
						c0,2.7,0,5.4,0,8.1c0,2,0.6,2.5,2.6,2.5c4.2,0,8.4,0,12.7,0c0.5,0,1.2,0.3,1.5,0.7c4.9,6.4,14.3,6.5,19.3,0.2
						c0.6-0.8,1.2-1,2.1-1c9.5,0,19,0,28.6,0c8,0,16,0,24,0c0.5,0,1.3,0.3,1.6,0.7c4.9,6.4,14.4,6.6,19.4,0.2
						c0.5-0.7,1.1-0.9,1.9-0.9c2.5,0,5.1,0,7.6,0c2,0,2.5-0.6,2.5-2.6c0-8.5,0-17,0-25.4c0-0.8-0.3-1.7-0.7-2.3
						c-3.4-5.6-6.8-11.1-10.1-16.7c-0.8-1.3-1.7-1.9-3.3-1.9c-8,0.1-15.9,0-23.9,0h-1.4v-1.5c0-5.4,0-10.8,0-16.1
						c0-2.4-0.4-2.9-2.9-2.9h-48.4h-1.4H324.2z"/>
					<defs>
						<filter id="Adobe_OpacityMaskFilter_13_" filterUnits="userSpaceOnUse" x="343.6" y="338.2" width="43.2" height="37.6">
							<feColorMatrix  type="matrix" values="1 0 0 0 0  0 1 0 0 0  0 0 1 0 0  0 0 0 1 0"/>
						</filter>
					</defs>
					<mask maskUnits="userSpaceOnUse" x="343.6" y="338.2" width="43.2" height="37.6" id="mask-4_18_">
						<g class="st29">
							<polygon id="path-3_18_" class="st1" points="0,414 435.1,414 435.1,0.1 0,0.1 							"/>
						</g>
					</mask>
					<path id="Fill-39" class="st30" d="M361.5,342.1v5.7c2.4-2.9,4.8-2.7,7.1-0.1v-5.6H361.5z M360.3,371.7h8.3v-4.2h-8.3V371.7z
						 M372.7,371.7h1.4c2.5,0,4.9-0.1,7.4,0c1.1,0,1.4-0.3,1.4-1.4c0-9,0-17.9,0-26.9c0-0.4,0-0.8-0.1-1.3h-10.3c0,0.5,0,0.9,0,1.4
						c0,2.5,0.1,5-0.1,7.5c0,0.7-0.5,1.7-1.1,2c-0.5,0.3-1.5,0.1-2.2-0.3c-1.1-0.6-2.1-1.4-3.1-2.2c-0.7-0.6-1.2-0.5-1.9,0
						c-0.9,0.7-1.9,1.3-2.8,2c-0.8,0.6-1.6,1-2.5,0.5c-0.9-0.5-1.1-1.4-1.1-2.4c0-2.5,0-5.1,0-7.6c0-0.6-0.1-1-0.9-1
						c-2.9,0-5.8,0-8.7,0c-0.6,0-0.9,0.2-0.9,0.8c0,0.2,0,0.4,0,0.6c0,8.9,0,17.8,0,26.7c0,1.2,0.3,1.5,1.5,1.5c2.2-0.1,4.5,0,6.7,0
						c0.7,0,1-0.3,1-1c0-1.6,0-3.1,0-4.7c0-2.3,0.5-2.7,2.7-2.7c3.5,0,7,0,10.5,0c2.6,0,3,0.4,3,3.1
						C372.7,368.1,372.7,369.8,372.7,371.7z M365.3,338.2c5.6,0,11.2,0,16.8,0c3.1,0,4.6,1.5,4.6,4.6c0,9.4,0,18.9,0,28.3
						c0,3.1-1.6,4.6-4.6,4.6c-11.3,0-22.6,0-33.9,0c-3,0-4.6-1.5-4.6-4.5c0-9.6,0-19.1,0-28.7c0-2.8,1.5-4.3,4.4-4.4
						C353.8,338.2,359.5,338.2,365.3,338.2z"/>
					<defs>
						<filter id="Adobe_OpacityMaskFilter_14_" filterUnits="userSpaceOnUse" x="325.1" y="371.8" width="14.9" height="4">
							<feColorMatrix  type="matrix" values="1 0 0 0 0  0 1 0 0 0  0 0 1 0 0  0 0 0 1 0"/>
						</filter>
					</defs>
					<mask maskUnits="userSpaceOnUse" x="325.1" y="371.8" width="14.9" height="4" id="mask-4_19_">
						<g class="st31">
							<polygon id="path-3_19_" class="st1" points="0,414 435.1,414 435.1,0.1 0,0.1 							"/>
						</g>
					</mask>
					<path id="Fill-40" class="st32" d="M332.2,371.8c1.5,0,3.1,0,4.6,0c0.6,0,1.2,0.1,1.8,0.2c1,0.2,1.4,0.9,1.3,1.9
						c-0.1,0.9-0.6,1.5-1.4,1.6c-1.1,0.1-2.2,0.2-3.3,0.2c-2.6,0-5.2-0.1-7.7-0.1c-1.5,0-2.3-0.6-2.4-1.9c0-1.3,0.8-1.9,2.3-1.9
						c1.6,0,3.3,0,4.9,0V371.8z"/>
					<defs>
						<filter id="Adobe_OpacityMaskFilter_15_" filterUnits="userSpaceOnUse" x="330.7" y="364.3" width="9.3" height="3.9">
							<feColorMatrix  type="matrix" values="1 0 0 0 0  0 1 0 0 0  0 0 1 0 0  0 0 0 1 0"/>
						</filter>
					</defs>
					<mask maskUnits="userSpaceOnUse" x="330.7" y="364.3" width="9.3" height="3.9" id="mask-4_20_">
						<g class="st33">
							<polygon id="path-3_20_" class="st1" points="0,414 435.1,414 435.1,0.1 0,0.1 							"/>
						</g>
					</mask>
					<path id="Fill-41" class="st34" d="M335.3,364.3c0.9,0,1.8,0,2.7,0c1.2,0.1,1.9,0.8,1.9,1.9c0,1-0.6,1.9-1.7,1.9
						c-2,0.1-4.1,0.1-6.1,0c-1-0.1-1.5-0.9-1.5-2c0-1,0.5-1.7,1.6-1.8C333.2,364.3,334.3,364.3,335.3,364.3L335.3,364.3z"/>
					<defs>
						<filter id="Adobe_OpacityMaskFilter_16_" filterUnits="userSpaceOnUse" x="400.9" y="357.5" width="27" height="19.4">
							<feColorMatrix  type="matrix" values="1 0 0 0 0  0 1 0 0 0  0 0 1 0 0  0 0 0 1 0"/>
						</filter>
					</defs>
					<mask maskUnits="userSpaceOnUse" x="400.9" y="357.5" width="27" height="19.4" id="mask-4_21_">
						<g class="st35">
							<polygon id="path-3_21_" class="st1" points="0,414 435.1,414 435.1,0.1 0,0.1 							"/>
						</g>
					</mask>
					<path id="Fill-42" class="st36" d="M405,361.4v11.3h18.4c0-0.2,0-0.3-0.1-0.4c-2.1-3.5-4.2-6.9-6.3-10.4
						c-0.2-0.3-0.5-0.5-0.8-0.5C412.5,361.4,408.8,361.4,405,361.4 M414.4,376.9c-3.6,0-7.2,0-10.7,0c-2,0-2.8-0.8-2.8-2.8
						c0-4.7,0-9.5,0-14.2c0-1.7,0.6-2.3,2.3-2.3c4.7,0,9.5,0,14.2,0c1.1,0,1.8,0.4,2.3,1.3c2.5,4.1,5.1,8.2,7.6,12.4
						c0.9,1.4,0.6,3.1,0.2,4.6c-0.3,1-1.3,1-2.2,1c-3.1,0-6.3,0-9.4,0C415.4,376.9,414.9,376.9,414.4,376.9"/>
					<defs>
						<filter id="Adobe_OpacityMaskFilter_17_" filterUnits="userSpaceOnUse" x="334.9" y="390.6" width="5.7" height="3.9">
							<feColorMatrix  type="matrix" values="1 0 0 0 0  0 1 0 0 0  0 0 1 0 0  0 0 0 1 0"/>
						</filter>
					</defs>
					<mask maskUnits="userSpaceOnUse" x="334.9" y="390.6" width="5.7" height="3.9" id="mask-4_22_">
						<g class="st37">
							<polygon id="path-3_22_" class="st1" points="0,414 435.1,414 435.1,0.1 0,0.1 							"/>
						</g>
					</mask>
					<path id="Fill-43" class="st38" d="M337.7,394.5c-0.4,0-0.9,0-1.3-0.1c-1-0.2-1.5-0.9-1.5-1.9c0-1,0.5-1.7,1.5-1.8
						c0.9-0.1,1.8-0.1,2.6,0c1,0.1,1.6,0.9,1.6,1.9c0,1-0.6,1.7-1.7,1.8C338.6,394.5,338.1,394.4,337.7,394.5
						C337.7,394.4,337.7,394.5,337.7,394.5"/>
					<defs>
						<filter id="Adobe_OpacityMaskFilter_18_" filterUnits="userSpaceOnUse" x="410.5" y="390.6" width="5.8" height="3.9">
							<feColorMatrix  type="matrix" values="1 0 0 0 0  0 1 0 0 0  0 0 1 0 0  0 0 0 1 0"/>
						</filter>
					</defs>
					<mask maskUnits="userSpaceOnUse" x="410.5" y="390.6" width="5.8" height="3.9" id="mask-4_23_">
						<g class="st39">
							<polygon id="path-3_23_" class="st1" points="0,414 435.1,414 435.1,0.1 0,0.1 							"/>
						</g>
					</mask>
					<path id="Fill-44" class="st40" d="M413.4,390.6c0.4,0,0.8,0,1.2,0c1.1,0.2,1.6,0.8,1.6,1.9c0,1.1-0.5,1.8-1.6,1.9
						c-0.7,0.1-1.4,0.1-2.1,0c-1.3-0.1-2-0.8-2-1.9c0-1.1,0.7-1.9,2-1.9C412.8,390.6,413.1,390.6,413.4,390.6L413.4,390.6z"/>
					<path class="st18" d="M372.3,288.6c-0.8-7.6-7-12.9-14.5-13.2c-2.6-0.1-5.2,0-7.8,0h-80.3c-9.2,0-20.6-1.1-24.2,10.1
						c-0.9,2.9-0.7,5.9-0.7,8.9v14.9v77.2c0,5.5,1.4,10.6,6.2,14c4.7,3.3,10.5,2.7,15.9,2.7h39.6c3.2,0,3.2-5,0-5h-30.9
						c-8.8,0-25.2,3.1-25.7-10c-0.8-22.1,0-44.4,0-66.5V299h117.9c-0.1,1.8-0.2,3.4-0.2,4.8v16.8c0,3.2,5,3.2,5,0
						C372.4,310.1,373.4,299.1,372.3,288.6z"/>
					<defs>
						<filter id="Adobe_OpacityMaskFilter_19_" filterUnits="userSpaceOnUse" x="252.2" y="286" width="5.3" height="5.3">
							<feColorMatrix  type="matrix" values="1 0 0 0 0  0 1 0 0 0  0 0 1 0 0  0 0 0 1 0"/>
						</filter>
					</defs>
					<mask maskUnits="userSpaceOnUse" x="252.2" y="286" width="5.3" height="5.3" id="mask-4_26_">
						<g class="st41">
							<polygon id="path-3_26_" class="st1" points="0,414 435.1,414 435.1,0.1 0,0.1 							"/>
						</g>
					</mask>
					<path id="Fill-47" class="st42" d="M257.5,288.6c0,1.5-1.2,2.7-2.7,2.7s-2.7-1.2-2.7-2.7s1.2-2.7,2.7-2.7
						S257.5,287.1,257.5,288.6"/>
					<defs>
						<filter id="Adobe_OpacityMaskFilter_20_" filterUnits="userSpaceOnUse" x="261.2" y="286" width="5.3" height="5.3">
							<feColorMatrix  type="matrix" values="1 0 0 0 0  0 1 0 0 0  0 0 1 0 0  0 0 0 1 0"/>
						</filter>
					</defs>
					<mask maskUnits="userSpaceOnUse" x="261.2" y="286" width="5.3" height="5.3" id="mask-4_27_">
						<g class="st43">
							<polygon id="path-3_27_" class="st1" points="2,414 437.1,414 437.1,0.1 2,0.1 							"/>
						</g>
					</mask>
					<path id="Fill-48" class="st44" d="M266.5,288.6c0,1.5-1.2,2.7-2.7,2.7s-2.7-1.2-2.7-2.7s1.2-2.7,2.7-2.7
						S266.5,287.1,266.5,288.6"/>
					<defs>
						<filter id="Adobe_OpacityMaskFilter_21_" filterUnits="userSpaceOnUse" x="270.2" y="286" width="5.3" height="5.3">
							<feColorMatrix  type="matrix" values="1 0 0 0 0  0 1 0 0 0  0 0 1 0 0  0 0 0 1 0"/>
						</filter>
					</defs>
					<mask maskUnits="userSpaceOnUse" x="270.2" y="286" width="5.3" height="5.3" id="mask-4_28_">
						<g class="st45">
							<polygon id="path-3_28_" class="st1" points="4,414 439.1,414 439.1,0.1 4,0.1 							"/>
						</g>
					</mask>
					<path id="Fill-49" class="st46" d="M275.5,288.6c0,1.5-1.2,2.7-2.7,2.7s-2.7-1.2-2.7-2.7s1.2-2.7,2.7-2.7
						S275.5,287.1,275.5,288.6"/>
					<defs>
						<filter id="Adobe_OpacityMaskFilter_22_" filterUnits="userSpaceOnUse" x="279.4" y="368.4" width="23.8" height="5.3">
							<feColorMatrix  type="matrix" values="1 0 0 0 0  0 1 0 0 0  0 0 1 0 0  0 0 0 1 0"/>
						</filter>
					</defs>
					<mask maskUnits="userSpaceOnUse" x="279.4" y="368.4" width="23.8" height="5.3" id="mask-4_29_">
						<g class="st47">
							<polygon id="path-3_29_" class="st1" points="0,414 435.1,414 435.1,0.1 0,0.1 							"/>
						</g>
					</mask>
					<path id="Fill-50" class="st48" d="M281.9,373.6c6.3,0.2,12.7,0.1,19-0.2c3.2-0.2,3.2-5.2,0-5c-6.3,0.3-12.7,0.4-19,0.2
						C278.6,368.5,278.6,373.5,281.9,373.6"/>
					<defs>
						<filter id="Adobe_OpacityMaskFilter_23_" filterUnits="userSpaceOnUse" x="266.4" y="377.1" width="35.3" height="5">
							<feColorMatrix  type="matrix" values="1 0 0 0 0  0 1 0 0 0  0 0 1 0 0  0 0 0 1 0"/>
						</filter>
					</defs>
					<mask maskUnits="userSpaceOnUse" x="266.4" y="377.1" width="35.3" height="5" id="mask-4_30_">
						<g class="st49">
							<polygon id="path-3_30_" class="st1" points="0,414 435.1,414 435.1,0.1 0,0.1 							"/>
						</g>
					</mask>
					<path id="Fill-51" class="st50" d="M268.9,382.1h30.5c3.2,0,3.2-5,0-5h-30.5C265.6,377.1,265.6,382.1,268.9,382.1"/>
					<path class="st51" d="M115.5,207.1H57.3c-9,0-16.2-7.3-16.2-16.2v-52.1c0-0.7,0.6-1.2,1.2-1.2s1.2,0.6,1.2,1.2v52.1
						c0,7.6,6.2,13.8,13.8,13.8h58.2c0.7,0,1.2,0.6,1.2,1.2S116.2,207.1,115.5,207.1z"/>
					<path class="st51" d="M42.3,180.9l-6.8-6.1c-0.5-0.5-0.6-1.3-0.1-1.8c0.5-0.5,1.3-0.6,1.8-0.1l5.1,4.6l4.9-4.6
						c0.5-0.5,1.3-0.4,1.8,0.1s0.4,1.3-0.1,1.8L42.3,180.9z"/>
					<path class="st51" d="M231.8,339.4H183c-9,0-16.2-7.3-16.2-16.2v-62.3c0-0.7,0.6-1.2,1.2-1.2s1.2,0.6,1.2,1.2v62.3
						c0,7.6,6.2,13.8,13.8,13.8h48.8c0.7,0,1.2,0.6,1.2,1.2S232.5,339.4,231.8,339.4z"/>
					<path class="st51" d="M168,313.3l-6.8-6.1c-0.5-0.5-0.6-1.3-0.1-1.8c0.5-0.5,1.2-0.6,1.8-0.1l5.1,4.6l4.9-4.6
						c0.5-0.5,1.3-0.4,1.8,0.1c0.5,0.5,0.4,1.3-0.1,1.8L168,313.3z"/>
					<path class="st52" d="M177.1,137.1c-0.7,0-1.2-0.6-1.2-1.2V74c0-10.3-8.4-18.8-18.8-18.8h-22.6c-0.7,0-1.2-0.6-1.2-1.2
						s0.6-1.2,1.2-1.2h22.6c11.7,0,21.2,9.5,21.2,21.2v61.9C178.4,136.6,177.8,137.1,177.1,137.1z"/>
					<path class="st52" d="M182.9,93.6c-0.3,0-0.6-0.1-0.8-0.3l-5.1-4.6l-4.9,4.6c-0.5,0.5-1.3,0.4-1.8-0.1
						c-0.5-0.5-0.4-1.3,0.1-1.8l6.6-6.1l6.8,6.1c0.5,0.5,0.6,1.3,0.1,1.8C183.6,93.5,183.3,93.6,182.9,93.6z"/>
					<path class="st52" d="M302.5,263.7c-0.7,0-1.2-0.6-1.2-1.2v-44.1c0-10.3-8.4-18.8-18.8-18.8h-43.7c-0.7,0-1.2-0.6-1.2-1.2
						s0.6-1.2,1.2-1.2h43.7c11.7,0,21.2,9.5,21.2,21.2v44.1C303.7,263.1,303.2,263.7,302.5,263.7z"/>
					<path class="st52" d="M308.3,238.8c-0.3,0-0.6-0.1-0.8-0.3l-5.1-4.6l-4.9,4.6c-0.5,0.5-1.3,0.4-1.8-0.1s-0.4-1.3,0.1-1.8
						l6.6-6.1l6.8,6.1c0.5,0.5,0.6,1.3,0.1,1.8C309,238.6,308.7,238.8,308.3,238.8z"/>
					<defs>
						<filter id="Adobe_OpacityMaskFilter_24_" filterUnits="userSpaceOnUse" x="7.5" y="10.6" width="5.3" height="5.3">
							<feColorMatrix  type="matrix" values="1 0 0 0 0  0 1 0 0 0  0 0 1 0 0  0 0 0 1 0"/>
						</filter>
					</defs>
					<mask maskUnits="userSpaceOnUse" x="7.5" y="10.6" width="5.3" height="5.3" id="mask-4_12_">
						<g class="st53">
							<polygon id="path-3_12_" class="st1" points="-244.7,138.7 190.4,138.7 190.4,-275.2 -244.7,-275.2 							"/>
						</g>
					</mask>
					<path id="Fill-47_1_" class="st54" d="M12.9,13.3c0,1.5-1.2,2.7-2.7,2.7s-2.7-1.2-2.7-2.7s1.2-2.7,2.7-2.7S12.9,11.8,12.9,13.3
						"/>
					<defs>
						<filter id="Adobe_OpacityMaskFilter_25_" filterUnits="userSpaceOnUse" x="16.5" y="10.6" width="5.3" height="5.3">
							<feColorMatrix  type="matrix" values="1 0 0 0 0  0 1 0 0 0  0 0 1 0 0  0 0 0 1 0"/>
						</filter>
					</defs>
					<mask maskUnits="userSpaceOnUse" x="16.5" y="10.6" width="5.3" height="5.3" id="mask-4_11_">
						<g class="st55">
							<polygon id="path-3_11_" class="st1" points="-242.7,138.7 192.4,138.7 192.4,-275.2 -242.7,-275.2 							"/>
						</g>
					</mask>
					<path id="Fill-48_1_" class="st56" d="M21.9,13.3c0,1.5-1.2,2.7-2.7,2.7s-2.7-1.2-2.7-2.7s1.2-2.7,2.7-2.7S21.9,11.8,21.9,13.3
						"/>
					<defs>
						<filter id="Adobe_OpacityMaskFilter_26_" filterUnits="userSpaceOnUse" x="25.5" y="10.6" width="5.3" height="5.3">
							<feColorMatrix  type="matrix" values="1 0 0 0 0  0 1 0 0 0  0 0 1 0 0  0 0 0 1 0"/>
						</filter>
					</defs>
					<mask maskUnits="userSpaceOnUse" x="25.5" y="10.6" width="5.3" height="5.3" id="mask-4_10_">
						<g class="st57">
							<polygon id="path-3_10_" class="st1" points="-240.7,138.7 194.4,138.7 194.4,-275.2 -240.7,-275.2 							"/>
						</g>
					</mask>
					<path id="Fill-49_1_" class="st58" d="M30.9,13.3c0,1.5-1.2,2.7-2.7,2.7s-2.7-1.2-2.7-2.7s1.2-2.7,2.7-2.7S30.9,11.8,30.9,13.3
						"/>
				</g>
			</g>
			<path id="Your-Webstore" class="st59" d="M152.8,33v-4.5l-3.7-6.7h1.9l2.3,4.4c0,0,0.2,0.4,0.4,0.8c0.1-0.4,0.4-0.8,0.4-0.8
				l2.3-4.4h1.9l-3.7,6.7V33H152.8z M165.6,29c0,2.8-2.2,4.2-4.2,4.2s-4.2-1.4-4.2-4.2s2.2-4.2,4.2-4.2S165.6,26.3,165.6,29z
				 M161.3,31.7c1.4,0,2.6-1.1,2.6-2.7c0-1.6-1.2-2.7-2.6-2.7s-2.6,1.1-2.6,2.7C158.7,30.6,159.9,31.7,161.3,31.7z M167,30.2v-5.1
				h1.6v4.8c0,1.2,0.6,1.9,1.8,1.9c1.2,0,2.1-1,2.1-2.4v-4.3h1.6V33h-1.6v-1.3c-0.5,0.9-1.4,1.5-2.6,1.5
				C168.3,33.2,167,32.3,167,30.2z M180.5,24.9l-0.3,1.6c-0.2-0.1-0.4-0.1-0.6-0.1c-1.2,0-2,1-2,2.4V33H176v-7.9h1.6v1.3
				c0.4-0.9,1.2-1.6,2.3-1.6C180.2,24.8,180.3,24.9,180.5,24.9z M199.4,21.8L196.3,33h-1.9l-2.3-8.8l-2.3,8.8H188l-3.1-11.2h1.8
				l2,7.8c0,0,0.2,0.8,0.3,1.2c0.1-0.4,0.3-1.2,0.3-1.2l2-7.7h1.8l2,7.7c0,0,0.2,0.8,0.3,1.2c0.1-0.4,0.3-1.2,0.3-1.2l2-7.8H199.4z
				 M207.1,29.4h-6.3c0.1,1.4,1,2.4,2.4,2.4c1.3,0,1.9-0.7,2.4-1.6l1.3,0.8c-0.7,1.5-1.9,2.3-3.7,2.3c-2.2,0-4-1.7-4-4.2
				s1.8-4.2,4.1-4.2c2.3,0,3.8,1.6,3.8,4V29.4z M203.2,26.2c-1.2,0-2.1,0.8-2.4,2h4.7C205.4,26.8,204.3,26.2,203.2,26.2z M208.7,33
				V21.8h1.6v4.5c0.6-0.9,1.6-1.4,2.8-1.4c2.1,0,3.7,1.6,3.7,4.2s-1.7,4.2-3.8,4.2c-1.3,0-2.2-0.7-2.7-1.4V33H208.7z M212.7,31.7
				c1.4,0,2.5-1.1,2.5-2.7s-1.1-2.7-2.5-2.7s-2.5,1.1-2.5,2.7S211.3,31.7,212.7,31.7z M219.6,27c0,0.7,0.7,1,2,1.3
				c1.8,0.4,2.7,1.1,2.7,2.4c0,1.4-1.1,2.6-3.1,2.6c-1.9,0-3-1.1-3.5-2.4L219,30c0.4,1,1.1,1.8,2.2,1.8c0.8,0,1.5-0.4,1.5-1.1
				c0-0.7-0.6-1-1.9-1.2c-1.5-0.3-2.7-1-2.7-2.4c0-1.4,1.3-2.2,2.8-2.2c1.7,0,2.6,0.7,3.2,2l-1.2,0.7c-0.4-0.9-1.1-1.4-2-1.4
				C220.3,26.1,219.6,26.4,219.6,27z M225,26.4v-1.3h1.3v-2.1h1.6v2.1h1.8v1.3h-1.8v4.2c0,0.8,0.3,1.2,1.1,1.2c0.2,0,0.4,0,0.6-0.1
				l0.1,1.4c-0.3,0.1-0.7,0.2-1.2,0.2c-1.2,0-2.3-0.5-2.3-2.4v-4.5H225z M238.9,29c0,2.8-2.2,4.2-4.2,4.2c-2.1,0-4.2-1.4-4.2-4.2
				s2.2-4.2,4.2-4.2C236.8,24.8,238.9,26.3,238.9,29z M234.7,31.7c1.4,0,2.6-1.1,2.6-2.7c0-1.6-1.2-2.7-2.6-2.7
				c-1.4,0-2.6,1.1-2.6,2.7C232.1,30.6,233.3,31.7,234.7,31.7z M245,24.9l-0.3,1.6c-0.2-0.1-0.4-0.1-0.6-0.1c-1.2,0-2,1-2,2.4V33
				h-1.6v-7.9h1.6v1.3c0.4-0.9,1.2-1.6,2.3-1.6C244.6,24.8,244.8,24.9,245,24.9z M253.2,29.4H247c0.1,1.4,1,2.4,2.4,2.4
				c1.3,0,1.9-0.7,2.4-1.6l1.3,0.8c-0.7,1.5-1.9,2.3-3.7,2.3c-2.2,0-4-1.7-4-4.2s1.8-4.2,4.1-4.2c2.3,0,3.8,1.6,3.8,4V29.4z
				 M249.4,26.2c-1.2,0-2.1,0.8-2.4,2h4.7C251.6,26.8,250.5,26.2,249.4,26.2z"/>
			<path id="Fulfillment-Platform" class="st59" d="M93.8,383v-11.2h7.6v1.5h-5.8v3.4h5.3v1.5h-5.3v4.7H93.8z M102.8,380.2v-5.1h1.6
				v4.8c0,1.2,0.6,1.9,1.8,1.9c1.2,0,2.1-1,2.1-2.4v-4.3h1.6v7.9h-1.6v-1.3c-0.5,0.9-1.4,1.5-2.6,1.5
				C104.1,383.2,102.8,382.3,102.8,380.2z M111.9,383v-11.2h1.6V383H111.9z M120.8,383v-6.6h-3.1v6.6H116v-6.6h-1.2v-1.3h1.2v-1.4
				c0-1.7,1-2.7,2.6-2.7c0.3,0,0.6,0,0.9,0.1l-0.3,1.4c-0.2-0.1-0.4-0.1-0.5-0.1c-0.7,0-1.1,0.4-1.1,1.2v1.4h4.7v7.9H120.8z
				 M120.7,373.8V372h1.9v1.8H120.7z M124.4,383v-11.2h1.6V383H124.4z M128.1,383v-11.2h1.6V383H128.1z M142.8,377.2v5.8h-1.6v-5.2
				c0-0.9-0.4-1.5-1.4-1.5c-1,0-1.7,0.7-1.7,2.4v4.4h-1.6v-5.2c0-0.9-0.4-1.5-1.3-1.5c-1,0-1.8,0.8-1.8,2.4v4.4h-1.6v-7.9h1.6v1.1
				c0.5-0.8,1.4-1.4,2.3-1.4c1.1,0,1.8,0.5,2.2,1.4c0.6-0.9,1.5-1.4,2.5-1.4C141.9,374.8,142.8,375.8,142.8,377.2z M152.2,379.4
				h-6.3c0.1,1.4,1,2.4,2.4,2.4c1.3,0,1.9-0.7,2.4-1.6l1.3,0.8c-0.7,1.5-1.9,2.3-3.7,2.3c-2.2,0-4-1.7-4-4.2c0-2.5,1.8-4.2,4.1-4.2
				c2.3,0,3.8,1.6,3.8,4V379.4z M148.3,376.2c-1.2,0-2.1,0.8-2.4,2h4.7C150.5,376.8,149.4,376.2,148.3,376.2z M160.9,377.6v5.4h-1.6
				v-4.9c0-1.1-0.6-1.7-1.8-1.7c-1.1,0-2.1,1-2.1,2.5v4.2h-1.6v-7.9h1.6v1.3c0.6-0.9,1.6-1.6,2.7-1.6
				C159.7,374.8,160.9,375.8,160.9,377.6z M161.8,376.4v-1.3h1.3v-2.1h1.6v2.1h1.8v1.3h-1.8v4.2c0,0.8,0.3,1.2,1.1,1.2
				c0.2,0,0.4,0,0.6-0.1l0.1,1.4c-0.3,0.1-0.7,0.2-1.2,0.2c-1.2,0-2.3-0.5-2.3-2.4v-4.5H161.8z M172.3,383v-11.2h4.9
				c2.4,0,4,1.3,4,3.6c0,2.2-1.6,3.6-4,3.6h-3.2v4.1H172.3z M174.1,373.3v4.1h3.1c1.6,0,2.4-0.8,2.4-2c0-1.2-0.8-2-2.4-2H174.1z
				 M182.7,383v-11.2h1.6V383H182.7z M193.3,383h-1.6c-0.2-0.2-0.4-0.7-0.4-1.4c-0.5,1.1-1.5,1.6-2.6,1.6c-1.6,0-2.7-1-2.7-2.4
				c0-1.6,1.3-2.4,2.8-2.6l2.5-0.4v-0.3c0-0.9-0.6-1.4-1.7-1.4c-1.1,0-1.6,0.5-1.6,1c0,0.1,0,0.1,0,0.2l-1.5,0.5
				c-0.1-0.2-0.1-0.4-0.1-0.6c0-1.2,1.2-2.4,3.2-2.4c2.2,0,3.3,1,3.3,2.7v3.5C192.8,381.9,193,382.4,193.3,383z M188.8,381.9
				c1.4,0,2.4-1.2,2.4-2.7V379l-2.1,0.4c-1,0.2-1.5,0.6-1.5,1.3C187.5,381.4,188,381.9,188.8,381.9z M193.9,376.4v-1.3h1.3v-2.1h1.6
				v2.1h1.8v1.3h-1.8v4.2c0,0.8,0.3,1.2,1.1,1.2c0.2,0,0.4,0,0.6-0.1l0.1,1.4c-0.3,0.1-0.7,0.2-1.2,0.2c-1.2,0-2.3-0.5-2.3-2.4v-4.5
				H193.9z M199.3,376.4v-1.3h1.2v-1.4c0-1.7,1-2.7,2.6-2.7c0.3,0,0.6,0,0.9,0.1l-0.3,1.4c-0.2-0.1-0.4-0.1-0.5-0.1
				c-0.7,0-1.1,0.4-1.1,1.2v1.4h1.8v1.3h-1.8v6.6h-1.6v-6.6H199.3z M212.9,379c0,2.8-2.2,4.2-4.2,4.2s-4.2-1.4-4.2-4.2
				c0-2.8,2.2-4.2,4.2-4.2S212.9,376.3,212.9,379z M208.7,381.7c1.4,0,2.6-1.1,2.6-2.7c0-1.6-1.2-2.7-2.6-2.7s-2.6,1.1-2.6,2.7
				C206.1,380.6,207.3,381.7,208.7,381.7z M219,374.9l-0.3,1.6c-0.2-0.1-0.4-0.1-0.6-0.1c-1.2,0-2,1-2,2.4v4.2h-1.6v-7.9h1.6v1.3
				c0.4-0.9,1.2-1.6,2.3-1.6C218.6,374.8,218.7,374.9,219,374.9z M231.2,377.2v5.8h-1.6v-5.2c0-0.9-0.4-1.5-1.4-1.5
				c-1,0-1.7,0.7-1.7,2.4v4.4h-1.6v-5.2c0-0.9-0.4-1.5-1.3-1.5c-1,0-1.8,0.8-1.8,2.4v4.4h-1.6v-7.9h1.6v1.1c0.5-0.8,1.4-1.4,2.3-1.4
				c1.1,0,1.8,0.5,2.2,1.4c0.6-0.9,1.5-1.4,2.5-1.4C230.3,374.8,231.2,375.8,231.2,377.2z"/>
		</g>
	</g>
</g>
</svg>
