<?xml version="1.0" encoding="utf-8"?>
<!-- Generator: Adobe Illustrator 24.1.2, SVG Export Plug-In . SVG Version: 6.00 Build 0)  -->
<svg version="1.1" id="Layer_1" xmlns="http://www.w3.org/2000/svg" xmlns:xlink="http://www.w3.org/1999/xlink" x="0px" y="0px"
	 viewBox="0 0 1600 1411.7" style="enable-background:new 0 0 1600 1411.7;" xml:space="preserve">
<style type="text/css">
	.st0{fill:#ED4545;}
</style>
<g>
	<path class="st0" d="M1044.2,462.9c0-1-0.7-1.7-1.7-1.7H875.7c-1,0-1.7,0.7-1.7,1.7c0,1,0.7,1.7,1.7,1.7h166.8
		C1043.4,464.6,1044.2,463.8,1044.2,462.9z"/>
	<path class="st0" d="M1037.9,479.1c0-1-0.7-1.7-1.7-1.7H881.9c-1,0-1.7,0.7-1.7,1.7c0,1,0.7,1.7,1.7,1.7h154.3
		C1037.1,480.7,1037.9,480,1037.9,479.1z"/>
	<path class="st0" d="M1031.7,495.3c0-1-0.7-1.7-1.7-1.7H888.1c-1,0-1.7,0.7-1.7,1.7c0,1,0.7,1.7,1.7,1.7H1030
		C1030.9,497,1031.7,496.2,1031.7,495.3z"/>
	<path class="st0" d="M1025.4,511.4c0-1-0.7-1.7-1.7-1.7H894.2c-1,0-1.7,0.7-1.7,1.7s0.7,1.7,1.7,1.7h129.5
		C1024.6,513.1,1025.4,512.3,1025.4,511.4z"/>
	<path class="st0" d="M1019.1,527.6c0-1-0.7-1.7-1.7-1.7h-117c-1,0-1.7,0.7-1.7,1.7s0.7,1.7,1.7,1.7h117
		C1018.4,529.3,1019.1,528.6,1019.1,527.6z"/>
	<path class="st0" d="M906.6,542.1c-1,0-1.7,0.7-1.7,1.7s0.7,1.7,1.7,1.7h104.6c1,0,1.7-0.7,1.7-1.7s-0.7-1.7-1.7-1.7H906.6z"/>
	<path class="st0" d="M1044.2,579.8c0-1-0.7-1.7-1.7-1.7H875.7c-1,0-1.7,0.7-1.7,1.7s0.7,1.7,1.7,1.7h166.8
		C1043.4,581.5,1044.2,580.7,1044.2,579.8z"/>
	<path class="st0" d="M1037.9,596c0-1-0.7-1.7-1.7-1.7H881.9c-1,0-1.7,0.7-1.7,1.7c0,1,0.7,1.7,1.7,1.7h154.3
		C1037.1,597.7,1037.9,596.9,1037.9,596z"/>
	<path class="st0" d="M1031.7,612.2c0-1-0.7-1.7-1.7-1.7H888.1c-1,0-1.7,0.7-1.7,1.7s0.7,1.7,1.7,1.7H1030
		C1030.9,613.8,1031.7,613.1,1031.7,612.2z"/>
	<path class="st0" d="M1025.4,628.3c0-1-0.7-1.7-1.7-1.7H894.2c-1,0-1.7,0.7-1.7,1.7c0,1,0.7,1.7,1.7,1.7h129.5
		C1024.6,630,1025.4,629.3,1025.4,628.3z"/>
	<path class="st0" d="M1019.1,644.5c0-1-0.7-1.7-1.7-1.7h-117c-1,0-1.7,0.7-1.7,1.7c0,1,0.7,1.7,1.7,1.7h117
		C1018.4,646.2,1019.1,645.4,1019.1,644.5z"/>
	<path class="st0" d="M1012.9,660.7c0-1-0.7-1.7-1.7-1.7H906.6c-1,0-1.7,0.7-1.7,1.7c0,1,0.7,1.7,1.7,1.7h104.6
		C1012.2,662.4,1012.9,661.6,1012.9,660.7z"/>
	<path class="st0" d="M1044.2,697c0-1-0.7-1.7-1.7-1.7H875.7c-1,0-1.7,0.7-1.7,1.7c0,1,0.7,1.7,1.7,1.7h166.8
		C1043.4,698.7,1044.2,698,1044.2,697z"/>
	<path class="st0" d="M1037.9,713.2c0-1-0.7-1.7-1.7-1.7H881.9c-1,0-1.7,0.7-1.7,1.7c0,1,0.7,1.7,1.7,1.7h154.3
		C1037.1,714.9,1037.9,714.2,1037.9,713.2z"/>
	<path class="st0" d="M1031.7,729.4c0-1-0.7-1.7-1.7-1.7H888.1c-1,0-1.7,0.7-1.7,1.7c0,1,0.7,1.7,1.7,1.7H1030
		C1030.9,731,1031.7,730.3,1031.7,729.4z"/>
	<path class="st0" d="M1025.4,745.6c0-1-0.7-1.7-1.7-1.7H894.2c-1,0-1.7,0.7-1.7,1.7s0.7,1.7,1.7,1.7h129.5
		C1024.6,747.3,1025.4,746.5,1025.4,745.6z"/>
	<path class="st0" d="M1019.1,761.8c0-1-0.7-1.7-1.7-1.7h-117c-1,0-1.7,0.7-1.7,1.7s0.7,1.7,1.7,1.7h117
		C1018.4,763.4,1019.1,762.7,1019.1,761.8z"/>
	<path class="st0" d="M906.6,776.2c-1,0-1.7,0.7-1.7,1.7s0.7,1.7,1.7,1.7h104.6c1,0,1.7-0.7,1.7-1.7s-0.7-1.7-1.7-1.7H906.6z"/>
	<path class="st0" d="M1044.2,814.3c0-1-0.7-1.7-1.7-1.7H875.7c-1,0-1.7,0.7-1.7,1.7s0.7,1.7,1.7,1.7h166.8
		C1043.4,816,1044.2,815.2,1044.2,814.3z"/>
	<path class="st0" d="M1037.9,830.5c0-1-0.7-1.7-1.7-1.7H881.9c-1,0-1.7,0.7-1.7,1.7s0.7,1.7,1.7,1.7h154.3
		C1037.1,832.2,1037.9,831.4,1037.9,830.5z"/>
	<path class="st0" d="M1031.7,846.6c0-1-0.7-1.7-1.7-1.7H888.1c-1,0-1.7,0.7-1.7,1.7s0.7,1.7,1.7,1.7H1030
		C1030.9,848.3,1031.7,847.6,1031.7,846.6z"/>
	<path class="st0" d="M1025.4,862.8c0-1-0.7-1.7-1.7-1.7H894.2c-1,0-1.7,0.7-1.7,1.7s0.7,1.7,1.7,1.7h129.5
		C1024.6,864.5,1025.4,863.8,1025.4,862.8z"/>
	<path class="st0" d="M1019.1,879c0-1-0.7-1.7-1.7-1.7h-117c-1,0-1.7,0.7-1.7,1.7s0.7,1.7,1.7,1.7h117
		C1018.4,880.6,1019.1,879.9,1019.1,879z"/>
	<path class="st0" d="M1012.9,895.2c0-1-0.7-1.7-1.7-1.7H906.6c-1,0-1.7,0.7-1.7,1.7s0.7,1.7,1.7,1.7h104.6
		C1012.2,896.9,1012.9,896.1,1012.9,895.2z"/>
	<path class="st0" d="M1044.2,931.2c0-1-0.7-1.7-1.7-1.7H875.7c-1,0-1.7,0.7-1.7,1.7s0.7,1.7,1.7,1.7h166.8
		C1043.4,932.9,1044.2,932.2,1044.2,931.2z"/>
	<path class="st0" d="M1037.9,947.4c0-1-0.7-1.7-1.7-1.7H881.9c-1,0-1.7,0.7-1.7,1.7s0.7,1.7,1.7,1.7h154.3
		C1037.1,949,1037.9,948.3,1037.9,947.4z"/>
	<path class="st0" d="M1031.7,963.5c0-1-0.7-1.7-1.7-1.7H888.1c-1,0-1.7,0.7-1.7,1.7s0.7,1.7,1.7,1.7H1030
		C1030.9,965.2,1031.7,964.5,1031.7,963.5z"/>
	<path class="st0" d="M1025.4,979.8c0-1-0.7-1.7-1.7-1.7H894.2c-1,0-1.7,0.7-1.7,1.7s0.7,1.7,1.7,1.7h129.5
		C1024.6,981.4,1025.4,980.6,1025.4,979.8z"/>
	<path class="st0" d="M1019.1,995.9c0-1-0.7-1.7-1.7-1.7h-117c-1,0-1.7,0.7-1.7,1.7s0.7,1.7,1.7,1.7h117
		C1018.4,997.6,1019.1,996.8,1019.1,995.9z"/>
	<path class="st0" d="M906.6,1010.4c-1,0-1.7,0.7-1.7,1.7s0.7,1.7,1.7,1.7h104.6c1,0,1.7-0.7,1.7-1.7s-0.7-1.7-1.7-1.7H906.6z"/>
	<path class="st0" d="M1044.2,1048.5c0-1-0.7-1.7-1.7-1.7H875.7c-1,0-1.7,0.7-1.7,1.7s0.7,1.7,1.7,1.7h166.8
		C1043.4,1050.2,1044.2,1049.4,1044.2,1048.5z"/>
	<path class="st0" d="M1037.9,1064.6c0-1-0.7-1.7-1.7-1.7H881.9c-1,0-1.7,0.7-1.7,1.7s0.7,1.7,1.7,1.7h154.3
		C1037.1,1066.3,1037.9,1065.5,1037.9,1064.6z"/>
	<path class="st0" d="M1031.7,1080.8c0-1-0.7-1.7-1.7-1.7H888.1c-1,0-1.7,0.7-1.7,1.7s0.7,1.7,1.7,1.7H1030
		C1030.9,1082.5,1031.7,1081.8,1031.7,1080.8z"/>
	<path class="st0" d="M1025.4,1097c0-1-0.7-1.7-1.7-1.7H894.2c-1,0-1.7,0.7-1.7,1.7s0.7,1.7,1.7,1.7h129.5
		C1024.6,1098.6,1025.4,1097.9,1025.4,1097z"/>
	<path class="st0" d="M1017.5,1111.5h-117c-1,0-1.7,0.7-1.7,1.7s0.7,1.7,1.7,1.7h117c1,0,1.7-0.7,1.7-1.7
		S1018.4,1111.5,1017.5,1111.5z"/>
	<path class="st0" d="M1011.2,1127.7H906.6c-1,0-1.7,0.7-1.7,1.7s0.7,1.7,1.7,1.7h104.6c1,0,1.7-0.7,1.7-1.7
		S1012.2,1127.7,1011.2,1127.7z"/>
	<path class="st0" d="M1598.3,1408.1h-41V1253c0-1-0.7-1.7-1.7-1.7h-24.9v-64.4c0-1-0.7-1.7-1.7-1.7h-13V1142c0-1-0.7-1.7-1.7-1.7
		h-7.5V888.8c0-1-0.7-1.7-1.7-1.7s-1.7,0.7-1.7,1.7v251.5H1475V819.4h28.6v35.3c0,1,0.7,1.7,1.7,1.7s1.7-0.7,1.7-1.7v-36.9
		c0-1-0.7-1.7-1.7-1.7H1491v-79.8c0-1-0.7-1.7-1.7-1.7h-13.4c-0.4-11.3-4.6-21.5-11.5-29.6V705c0-10-4-19-10.5-25.7
		c-0.2-11-7.1-20.5-17-24.2l-7.6-22.2v-31.3c0-1-0.7-1.7-1.7-1.7s-1.7,0.7-1.7,1.7v31.3l-7.6,22.2c-9.8,3.8-16.8,13.1-16.9,24.2
		c-6.5,6.6-10.5,15.7-10.5,25.7v0.1c-6.9,8-11.1,18.3-11.5,29.6h-13.1c-1,0-1.7,0.7-1.7,1.7v79.8h-14.3c-1,0-1.7,0.7-1.7,1.7v322.6
		h-7.5c-1,0-1.7,0.7-1.7,1.7v43.2h-11.3V828.5c0-1-0.7-1.7-1.7-1.7h-24.8v-38.6c0-1-0.7-1.7-1.7-1.7s-1.7,0.7-1.7,1.7v464.6
		c0,0.1,0,0.2,0,0.2v155.1h-25.1v-26.4h12.9c1,0,1.7-0.7,1.7-1.7s-0.7-1.7-1.7-1.7h-12.9v-18.1h12.9c1,0,1.7-0.7,1.7-1.7
		s-0.7-1.7-1.7-1.7h-12.9v-18.1h12.9c1,0,1.7-0.7,1.7-1.7s-0.7-1.7-1.7-1.7h-12.9v-18.1h12.9c1,0,1.7-0.7,1.7-1.7s-0.7-1.7-1.7-1.7
		h-12.9V1296h12.9c1,0,1.7-0.7,1.7-1.7s-0.7-1.7-1.7-1.7h-12.9v-18.2h12.9c1,0,1.7-0.7,1.7-1.7s-0.7-1.7-1.7-1.7h-12.9V1253h12.9
		c1,0,1.7-0.7,1.7-1.7s-0.7-1.7-1.7-1.7h-12.9v-18.1h12.9c1,0,1.7-0.7,1.7-1.7s-0.7-1.7-1.7-1.7h-12.9v-18.1h12.9
		c1,0,1.7-0.7,1.7-1.7s-0.7-1.7-1.7-1.7h-12.9v-18.1h12.9c1,0,1.7-0.7,1.7-1.7s-0.7-1.7-1.7-1.7h-12.9v-18.1h12.9
		c1,0,1.7-0.7,1.7-1.7s-0.7-1.7-1.7-1.7h-12.9v-18.1h12.9c1,0,1.7-0.7,1.7-1.7s-0.7-1.7-1.7-1.7h-12.9v-18.1h12.9
		c1,0,1.7-0.7,1.7-1.7s-0.7-1.7-1.7-1.7h-12.9v-18.1h12.9c1,0,1.7-0.7,1.7-1.7s-0.7-1.7-1.7-1.7h-12.9v-18.1h12.9
		c1,0,1.7-0.7,1.7-1.7s-0.7-1.7-1.7-1.7h-12.9V1060h12.9c1,0,1.7-0.7,1.7-1.7s-0.7-1.7-1.7-1.7h-12.9v-18.1h12.9
		c1,0,1.7-0.7,1.7-1.7s-0.7-1.7-1.7-1.7h-12.9v-18.1h12.9c1,0,1.7-0.7,1.7-1.7s-0.7-1.7-1.7-1.7h-12.9v-18.1h12.9
		c1,0,1.7-0.7,1.7-1.7s-0.7-1.7-1.7-1.7h-12.9v-18.1h12.9c1,0,1.7-0.7,1.7-1.7s-0.7-1.7-1.7-1.7h-12.9v-18.1h12.9
		c1,0,1.7-0.7,1.7-1.7s-0.7-1.7-1.7-1.7h-12.9v-18.2h12.9c1,0,1.7-0.7,1.7-1.7s-0.7-1.7-1.7-1.7h-12.9v-18.1h12.9
		c1,0,1.7-0.7,1.7-1.7s-0.7-1.7-1.7-1.7h-12.9v-18.1h12.9c1,0,1.7-0.7,1.7-1.7s-0.7-1.7-1.7-1.7h-12.9v-18.1h12.9
		c1,0,1.7-0.7,1.7-1.7s-0.7-1.7-1.7-1.7h-12.9v-18.1h12.9c1,0,1.7-0.7,1.7-1.7s-0.7-1.7-1.7-1.7h-12.9V824h12.9c1,0,1.7-0.7,1.7-1.7
		s-0.7-1.7-1.7-1.7h-12.9v-18.1h12.9c1,0,1.7-0.7,1.7-1.7s-0.7-1.7-1.7-1.7h-12.9v-18.1h12.9c1,0,1.7-0.7,1.7-1.7
		c0-1-0.7-1.7-1.7-1.7h-12.9v-18.1h12.9c1,0,1.7-0.7,1.7-1.7c0-1-0.7-1.7-1.7-1.7h-12.9v-18.1h12.9c1,0,1.7-0.7,1.7-1.7
		c0-1-0.7-1.7-1.7-1.7h-12.9v-18.1h12.9c1,0,1.7-0.7,1.7-1.7c0-1-0.7-1.7-1.7-1.7h-12.9v-18.1h12.9c1,0,1.7-0.7,1.7-1.7
		c0-1-0.7-1.7-1.7-1.7h-12.9v-18.1h12.9c1,0,1.7-0.7,1.7-1.7s-0.7-1.7-1.7-1.7h-12.9v-18.1h12.9c1,0,1.7-0.7,1.7-1.7
		s-0.7-1.7-1.7-1.7h-12.9V631h12.9c1,0,1.7-0.7,1.7-1.7s-0.7-1.7-1.7-1.7h-12.9v-18.1h12.9c1,0,1.7-0.7,1.7-1.7c0-1-0.7-1.7-1.7-1.7
		h-12.9v-12.8h25.2V761c0,1,0.7,1.7,1.7,1.7s1.7-0.7,1.7-1.7V591.8c0-1-0.7-1.7-1.7-1.7h-26.8v-73.3c0-1-0.7-1.7-1.7-1.7
		s-1.7,0.7-1.7,1.7v891.3h-30.1v-26.3h12.9c1,0,1.7-0.7,1.7-1.7s-0.7-1.7-1.7-1.7h-12.9v-18.1h12.9c1,0,1.7-0.7,1.7-1.7
		s-0.7-1.7-1.7-1.7h-12.9v-18.1h12.9c1,0,1.7-0.7,1.7-1.7s-0.7-1.7-1.7-1.7h-12.9v-18.1h12.9c1,0,1.7-0.7,1.7-1.7s-0.7-1.7-1.7-1.7
		h-12.9V1296h12.9c1,0,1.7-0.7,1.7-1.7s-0.7-1.7-1.7-1.7h-12.9v-18.1h12.9c1,0,1.7-0.7,1.7-1.7s-0.7-1.7-1.7-1.7h-12.9v-18.1h12.9
		c1,0,1.7-0.7,1.7-1.7s-0.7-1.7-1.7-1.7h-12.9v-18.1h12.9c1,0,1.7-0.7,1.7-1.7s-0.7-1.7-1.7-1.7h-12.9v-18.1h12.9
		c1,0,1.7-0.7,1.7-1.7s-0.7-1.7-1.7-1.7h-12.9v-18.1h12.9c1,0,1.7-0.7,1.7-1.7s-0.7-1.7-1.7-1.7h-12.9v-18.1h12.9
		c1,0,1.7-0.7,1.7-1.7s-0.7-1.7-1.7-1.7h-12.9v-18.1h12.9c1,0,1.7-0.7,1.7-1.7s-0.7-1.7-1.7-1.7h-12.9v-18.1h12.9
		c1,0,1.7-0.7,1.7-1.7s-0.7-1.7-1.7-1.7h-12.9V1103h12.9c1,0,1.7-0.7,1.7-1.7s-0.7-1.7-1.7-1.7h-12.9v-18.1h12.9
		c1,0,1.7-0.7,1.7-1.7s-0.7-1.7-1.7-1.7h-12.9V1060h12.9c1,0,1.7-0.7,1.7-1.7s-0.7-1.7-1.7-1.7h-12.9v-18.1h12.9
		c1,0,1.7-0.7,1.7-1.7s-0.7-1.7-1.7-1.7h-12.9v-18.1h12.9c1,0,1.7-0.7,1.7-1.7s-0.7-1.7-1.7-1.7h-12.9v-18.1h12.9
		c1,0,1.7-0.7,1.7-1.7s-0.7-1.7-1.7-1.7h-12.9v-18.1h12.9c1,0,1.7-0.7,1.7-1.7s-0.7-1.7-1.7-1.7h-12.9v-18.1h12.9
		c1,0,1.7-0.7,1.7-1.7s-0.7-1.7-1.7-1.7h-12.9v-18.1h12.9c1,0,1.7-0.7,1.7-1.7s-0.7-1.7-1.7-1.7h-12.9v-18.1h12.9
		c1,0,1.7-0.7,1.7-1.7s-0.7-1.7-1.7-1.7h-12.9v-18.1h12.9c1,0,1.7-0.7,1.7-1.7s-0.7-1.7-1.7-1.7h-12.9V867h12.9c1,0,1.7-0.7,1.7-1.7
		s-0.7-1.7-1.7-1.7h-12.9v-18.1h12.9c1,0,1.7-0.7,1.7-1.7s-0.7-1.7-1.7-1.7h-12.9v-18.1h12.9c1,0,1.7-0.7,1.7-1.7s-0.7-1.7-1.7-1.7
		h-12.9v-18.1h12.9c1,0,1.7-0.7,1.7-1.7s-0.7-1.7-1.7-1.7h-12.9v-18.1h12.9c1,0,1.7-0.7,1.7-1.7s-0.7-1.7-1.7-1.7h-12.9v-18.1h12.9
		c1,0,1.7-0.7,1.7-1.7s-0.7-1.7-1.7-1.7h-12.9v-18.1h12.9c1,0,1.7-0.7,1.7-1.7s-0.7-1.7-1.7-1.7h-12.9V717h12.9c1,0,1.7-0.7,1.7-1.7
		s-0.7-1.7-1.7-1.7h-12.9v-18.1h12.9c1,0,1.7-0.7,1.7-1.7s-0.7-1.7-1.7-1.7h-12.9v-18.1h12.9c1,0,1.7-0.7,1.7-1.7s-0.7-1.7-1.7-1.7
		h-12.9v-18.1h12.9c1,0,1.7-0.7,1.7-1.7s-0.7-1.7-1.7-1.7h-12.9v-18.1h12.9c1,0,1.7-0.7,1.7-1.7s-0.7-1.7-1.7-1.7h-12.9v-18.2h12.9
		c1,0,1.7-0.7,1.7-1.7s-0.7-1.7-1.7-1.7h-12.9v-18.1h12.9c1,0,1.7-0.7,1.7-1.7c0-1-0.7-1.7-1.7-1.7h-12.9v-18.1h12.9
		c1,0,1.7-0.7,1.7-1.7c0-1-0.7-1.7-1.7-1.7h-12.9v-18.1h12.9c1,0,1.7-0.7,1.7-1.7c0-1-0.7-1.7-1.7-1.7h-12.9v-18.1h12.9
		c1,0,1.7-0.7,1.7-1.7c0-1-0.7-1.7-1.7-1.7h-12.9v-18.1h12.9c1,0,1.7-0.7,1.7-1.7s-0.7-1.7-1.7-1.7h-12.9V481h12.9
		c1,0,1.7-0.7,1.7-1.7s-0.7-1.7-1.7-1.7h-12.9v-18.1h12.9c1,0,1.7-0.7,1.7-1.7c0-1-0.7-1.7-1.7-1.7h-12.9v-18.1h12.9
		c1,0,1.7-0.7,1.7-1.7c0-1-0.7-1.7-1.7-1.7h-12.9v-18.1h12.9c1,0,1.7-0.7,1.7-1.7c0-1-0.7-1.7-1.7-1.7h-12.9v-18.1h12.9
		c1,0,1.7-0.7,1.7-1.7s-0.7-1.7-1.7-1.7h-12.9v-18.1h12.9c1,0,1.7-0.7,1.7-1.7c0-1-0.7-1.7-1.7-1.7h-12.9v-18.1h12.9
		c1,0,1.7-0.7,1.7-1.7c0-1-0.7-1.7-1.7-1.7h-12.9v-1.5c0-1-0.7-1.7-1.7-1.7h-32.2v-21.4c0-1-0.7-1.7-1.7-1.7s-1.7,0.7-1.7,1.7v21.4
		H1171c-1,0-1.7,0.7-1.7,1.7v192.8h-31.8c-1,0-1.7,0.7-1.7,1.7s0.7,1.7,1.7,1.7h65.6v864.6H1173v-26.4h13.2c1,0,1.7-0.7,1.7-1.7
		s-0.7-1.7-1.7-1.7H1173v-18.1h13.2c1,0,1.7-0.7,1.7-1.7s-0.7-1.7-1.7-1.7H1173v-18.1h13.2c1,0,1.7-0.7,1.7-1.7s-0.7-1.7-1.7-1.7
		H1173v-18.1h13.2c1,0,1.7-0.7,1.7-1.7s-0.7-1.7-1.7-1.7H1173V1296h13.2c1,0,1.7-0.7,1.7-1.7s-0.7-1.7-1.7-1.7H1173v-18.2h13.2
		c1,0,1.7-0.7,1.7-1.7s-0.7-1.7-1.7-1.7H1173V1253h13.2c1,0,1.7-0.7,1.7-1.7s-0.7-1.7-1.7-1.7H1173v-18.1h13.2c1,0,1.7-0.7,1.7-1.7
		s-0.7-1.7-1.7-1.7H1173v-18.1h13.2c1,0,1.7-0.7,1.7-1.7s-0.7-1.7-1.7-1.7H1173v-18.1h13.2c1,0,1.7-0.7,1.7-1.7s-0.7-1.7-1.7-1.7
		H1173v-18.1h13.2c1,0,1.7-0.7,1.7-1.7s-0.7-1.7-1.7-1.7H1173v-18.1h13.2c1,0,1.7-0.7,1.7-1.7s-0.7-1.7-1.7-1.7H1173v-18.1h13.2
		c1,0,1.7-0.7,1.7-1.7s-0.7-1.7-1.7-1.7H1173v-18.1h13.2c1,0,1.7-0.7,1.7-1.7s-0.7-1.7-1.7-1.7H1173v-18.1h13.2c1,0,1.7-0.7,1.7-1.7
		s-0.7-1.7-1.7-1.7H1173V1060h13.2c1,0,1.7-0.7,1.7-1.7s-0.7-1.7-1.7-1.7H1173v-18.1h13.2c1,0,1.7-0.7,1.7-1.7s-0.7-1.7-1.7-1.7
		H1173v-18.1h13.2c1,0,1.7-0.7,1.7-1.7s-0.7-1.7-1.7-1.7H1173v-18.1h13.2c1,0,1.7-0.7,1.7-1.7s-0.7-1.7-1.7-1.7H1173v-18.1h13.2
		c1,0,1.7-0.7,1.7-1.7s-0.7-1.7-1.7-1.7H1173v-18.1h13.2c1,0,1.7-0.7,1.7-1.7s-0.7-1.7-1.7-1.7H1173v-18.1h13.2c1,0,1.7-0.7,1.7-1.7
		s-0.7-1.7-1.7-1.7H1173v-18.1h13.2c1,0,1.7-0.7,1.7-1.7s-0.7-1.7-1.7-1.7H1173v-18.1h13.2c1,0,1.7-0.7,1.7-1.7s-0.7-1.7-1.7-1.7
		H1173V867h13.2c1,0,1.7-0.7,1.7-1.7s-0.7-1.7-1.7-1.7H1173v-18.1h13.2c1,0,1.7-0.7,1.7-1.7s-0.7-1.7-1.7-1.7H1173V824h13.2
		c1,0,1.7-0.7,1.7-1.7s-0.7-1.7-1.7-1.7H1173v-18.1h13.2c1,0,1.7-0.7,1.7-1.7s-0.7-1.7-1.7-1.7H1173v-18.1h13.2c1,0,1.7-0.7,1.7-1.7
		s-0.7-1.7-1.7-1.7H1173v-4.6c0-1-0.7-1.7-1.7-1.7h-32.2v-86c0-1-0.7-1.7-1.7-1.7s-1.7,0.7-1.7,1.7v86H1104c-1,0-1.7,0.7-1.7,1.7
		v170c0,1,0.7,1.7,1.7,1.7s1.7-0.7,1.7-1.7V774.8h63.9v633.3h-30.1v-26.8h13.8c1,0,1.7-0.7,1.7-1.7s-0.7-1.7-1.7-1.7h-13.8v-18.1
		h13.8c1,0,1.7-0.7,1.7-1.7s-0.7-1.7-1.7-1.7h-13.8v-18.1h13.8c1,0,1.7-0.7,1.7-1.7s-0.7-1.7-1.7-1.7h-13.8V1317h13.8
		c1,0,1.7-0.7,1.7-1.7s-0.7-1.7-1.7-1.7h-13.8v-18.1h13.8c1,0,1.7-0.7,1.7-1.7s-0.7-1.7-1.7-1.7h-13.8v-18.1h13.8
		c1,0,1.7-0.7,1.7-1.7s-0.7-1.7-1.7-1.7h-13.8v-18.1h13.8c1,0,1.7-0.7,1.7-1.7s-0.7-1.7-1.7-1.7h-13.8v-18.1h13.8
		c1,0,1.7-0.7,1.7-1.7s-0.7-1.7-1.7-1.7h-13.8v-18.1h13.8c1,0,1.7-0.7,1.7-1.7s-0.7-1.7-1.7-1.7h-13.8v-18.1h13.8
		c1,0,1.7-0.7,1.7-1.7s-0.7-1.7-1.7-1.7h-13.8v-18.1h13.8c1,0,1.7-0.7,1.7-1.7s-0.7-1.7-1.7-1.7h-13.8v-18.1h13.8
		c1,0,1.7-0.7,1.7-1.7s-0.7-1.7-1.7-1.7h-13.8V1124h13.8c1,0,1.7-0.7,1.7-1.7s-0.7-1.7-1.7-1.7h-13.8v-18.2h13.8
		c1,0,1.7-0.7,1.7-1.7s-0.7-1.7-1.7-1.7h-13.8V1081h13.8c1,0,1.7-0.7,1.7-1.7s-0.7-1.7-1.7-1.7h-13.8v-18.1h13.8
		c1,0,1.7-0.7,1.7-1.7s-0.7-1.7-1.7-1.7h-13.8v-18.1h13.8c1,0,1.7-0.7,1.7-1.7s-0.7-1.7-1.7-1.7h-13.8v-4.6c0-1-0.7-1.7-1.7-1.7
		h-32.2v-50.7c0-1-0.7-1.7-1.7-1.7s-1.7,0.7-1.7,1.7v50.7h-31.8c-0.4,0-0.7,0.2-1,0.3h-42.2l43.8-115c0.2-0.5,0.2-1.1-0.2-1.5
		c-0.3-0.5-0.8-0.7-1.4-0.7h-42.2l43.7-114.6c0.2-0.5,0.2-1.1-0.2-1.5c-0.3-0.5-0.8-0.7-1.4-0.7h-42.2l43.8-115
		c0.2-0.5,0.2-1.1-0.2-1.5c-0.3-0.5-0.8-0.7-1.4-0.7h-42.2l43.7-115c0.3-0.9-0.1-1.8-1-2.2c-0.9-0.3-1.8,0.1-2.2,1l-44.3,116.2
		h-28.4c-1,0-1.7,0.7-1.7,1.7s0.7,1.7,1.7,1.7h71.8l-43.3,113.6H894.3L851,680.7h110.8c1,0,1.7-0.7,1.7-1.7s-0.7-1.7-1.7-1.7h-67.4
		L851,563.4h201.6l-7.8,7.8c-1.3,1.3-1.3,3.4,0,4.7c0.6,0.6,1.5,1,2.4,1c0.9,0,1.7-0.3,2.4-1l11.8-11.8c1.3-1.3,1.3-3.4,0-4.7
		l-11.8-11.8c-1.3-1.3-3.4-1.3-4.7,0c-1.3,1.3-1.3,3.4,0,4.7l7.8,7.8h-25.2l43.7-114.6c0.2-0.5,0.2-1.1-0.2-1.5
		c-0.3-0.5-0.8-0.7-1.4-0.7h-52.7v-34.9c0-1-0.7-1.7-1.7-1.7h-31.1v-136c0-1-0.7-1.7-1.7-1.7h-21.6v-90.6c0-1-0.7-1.7-1.7-1.7
		s-1.7,0.7-1.7,1.7V269h-21.8c-1,0-1.7,0.7-1.7,1.7V293c0,1,0.7,1.7,1.7,1.7s1.7-0.7,1.7-1.7v-20.6h43.4v134.3h-12.3v-113
		c0-1-0.7-1.7-1.7-1.7s-1.7,0.7-1.7,1.7v113h-12.7v-113c0-1-0.7-1.7-1.7-1.7s-1.7,0.7-1.7,1.7v113h-11.7v-90.1c0-1-0.7-1.7-1.7-1.7
		s-1.7,0.7-1.7,1.7v90.1h-31.1c-1,0-1.7,0.7-1.7,1.7v34.8h-52.7c-0.6,0-1,0.2-1.4,0.7c-0.3,0.5-0.4,1-0.2,1.5l18.7,49
		c0.3,0.9,1.3,1.3,2.2,1c0.9-0.3,1.3-1.3,1-2.2L851,446.6h216.2l-43.3,113.6H894.3l-16-41.9c-0.3-0.9-1.3-1.3-2.2-1
		c-0.9,0.3-1.3,1.3-1,2.2l15.5,40.7h-42.2c-0.6,0-1,0.2-1.4,0.7c-0.3,0.5-0.4,1-0.2,1.5l43.8,115h-42.2c-0.6,0-1,0.2-1.4,0.7
		c-0.3,0.5-0.4,1-0.2,1.5l43.8,115h-24.2l7.8-7.8c1.3-1.3,1.3-3.4,0-4.7c-1.3-1.3-3.4-1.3-4.7,0l-11.8,11.8c-0.6,0.6-1,1.4-1,2.4
		c0,0.9,0.3,1.8,1,2.4l11.8,11.8c0.6,0.6,1.5,1,2.4,1c0.9,0,1.7-0.3,2.4-1c1.3-1.3,1.3-3.4,0-4.7l-7.8-7.8h200.3l-43.3,113.6h-84.6
		c-1,0-1.7,0.7-1.7,1.7s0.7,1.7,1.7,1.7h127.8l-43.3,113.6H894.3L851,914.9h58.2c1,0,1.7-0.7,1.7-1.7s-0.7-1.7-1.7-1.7h-14.9
		l-44.2-115.8c-0.3-0.9-1.3-1.3-2.2-1c-0.9,0.3-1.3,1.3-1,2.2l43.7,114.6h-42.2c-0.6,0-1,0.2-1.4,0.7c-0.3,0.5-0.4,1-0.2,1.5
		l43.8,115h-42.2c-0.6,0-1,0.2-1.4,0.7c-0.3,0.5-0.4,1-0.2,1.5l43.7,114.6h-20.2c-0.8,0-1.4,0.5-1.6,1.3l-8.9,34.8
		c-0.2,0.9,0.3,1.8,1.2,2c0.9,0.2,1.8-0.3,2-1.2l8.6-33.5h61.6l-46.9,259h-62.1v-73.2l31.2-122.5c0.2-0.9-0.3-1.8-1.2-2
		c-0.9-0.2-1.8,0.3-2,1.2l-28,109.8V998.5l7.8,7.8c0.6,0.6,1.5,1,2.4,1c0.9,0,1.7-0.3,2.4-1c1.3-1.3,1.3-3.4,0-4.7l-11.8-11.8
		c-1.3-1.3-3.4-1.3-4.7,0l-11.8,11.8c-1.3,1.3-1.3,3.4,0,4.7c1.3,1.3,3.4,1.3,4.7,0l7.8-7.8V1408h-95.2V796.8h95.2v180.8
		c0,1,0.7,1.7,1.7,1.7s1.7-0.7,1.7-1.7V795.2c0-1-0.7-1.7-1.7-1.7h-7.8v-37.3c0-1-0.7-1.7-1.7-1.7c-1,0-1.7,0.7-1.7,1.7v37.3h-89.4
		V681.4h89.3v43.3c0,1,0.7,1.7,1.7,1.7c1,0,1.7-0.7,1.7-1.7v-45c0-1-0.7-1.7-1.7-1.7h-7.6v-95.6c0-1-0.7-1.7-1.7-1.7h-7v-58.1
		c0-0.2,0-0.2-0.1-0.4v-0.1c0-0.1-0.1-0.2-0.1-0.3c0,0,0,0,0-0.1l-22.3-41.7l-22.3-41.7c-0.3-0.6-0.9-0.9-1.4-0.9h-15.5v-19.6
		c0-1-0.7-1.7-1.7-1.7h-17.4v-46.3c0-1-0.7-1.7-1.7-1.7c-1,0-1.7,0.7-1.7,1.7v46.3h-17.4c-1,0-1.7,0.7-1.7,1.7v19.7h-15.5
		c-0.6,0-1.2,0.3-1.4,0.9l-5.8,11c-0.4,0.8-0.2,1.8,0.7,2.2c0.8,0.4,1.8,0.2,2.2-0.7l5.4-10.1h70.7l20.5,38.3H658.8l5.2-9.8
		c0.4-0.8,0.2-1.8-0.7-2.2c-0.8-0.4-1.8-0.2-2.2,0.7l-6.6,12.2l-22.3,41.7c0,0,0,0,0,0.1c-0.1,0.1-0.1,0.2-0.1,0.3v0.1
		c0,0.1-0.1,0.2-0.1,0.4v58.1h-7c-1,0-1.7,0.7-1.7,1.7v31.4c0,1,0.7,1.7,1.7,1.7c1,0,1.7-0.7,1.7-1.7v-29.8h80v93.9h-80v-45.7
		l7.8,7.8c0.6,0.6,1.5,1,2.4,1c0.9,0,1.7-0.3,2.4-1c1.3-1.3,1.3-3.4,0-4.7l-11.8-11.8c-1.3-1.3-3.4-1.3-4.7,0L611,635.4
		c-1.3,1.3-1.3,3.4,0,4.7c1.3,1.3,3.4,1.3,4.7,0l7.8-7.8v45.7h-7.6c-1,0-1.7,0.7-1.7,1.7v113.9h-7.8c-1,0-1.7,0.7-1.7,1.7v174.1
		H471.2l7.8-7.8c1.3-1.3,1.3-3.4,0-4.7c-1.3-1.3-3.4-1.3-4.7,0l-11.8,11.8c-0.6,0.6-1,1.4-1,2.4c0,0.9,0.3,1.8,1,2.4l11.8,11.8
		c0.6,0.6,1.5,1,2.4,1s1.7-0.3,2.4-1c1.3-1.3,1.3-3.4,0-4.7l-7.8-7.8h133.5v24.6H456.3V795.2c0-1-0.7-1.7-1.7-1.7h-7.8V679.7
		c0-1-0.7-1.7-1.7-1.7h-7.6v-95.6c0-1-0.7-1.7-1.7-1.7h-7v-14.2c0-1-0.7-1.7-1.7-1.7c-1,0-1.7,0.7-1.7,1.7v14.2h-71.4v-56.4h71.4
		v16.1c0,1,0.7,1.7,1.7,1.7c1,0,1.7-0.7,1.7-1.7v-17.8c0-0.2,0-0.2-0.1-0.4v-0.1c0-0.1-0.1-0.2-0.1-0.3c0,0,0,0,0-0.1l-22.3-41.7
		l-22.3-41.7c-0.3-0.6-0.9-0.9-1.4-0.9h-15.5v-19.6c0-1-0.7-1.7-1.7-1.7h-17.4v-46.3c0-1-0.7-1.7-1.7-1.7c-1,0-1.7,0.7-1.7,1.7v46.3
		h-17.4c-1,0-1.7,0.7-1.7,1.7v19.7h-15.5c-0.6,0-1.2,0.3-1.4,0.9l-22.3,41.7L264,521.8c0,0,0,0,0,0.1c-0.1,0.1-0.1,0.2-0.1,0.3v0.1
		c0,0.1-0.1,0.2-0.1,0.4v58.1h-7c-1,0-1.7,0.7-1.7,1.7v95.6h-7.6c-1,0-1.7,0.7-1.7,1.7v113.9h-7.8c-1,0-1.7,0.7-1.7,1.7v209
		c0,1,0.7,1.7,1.7,1.7s1.7-0.7,1.7-1.7V796.9h23c1,0,1.7-0.7,1.7-1.7c0-1-0.7-1.7-1.7-1.7h-13.7V681.4h89.3v112.2h-44.9
		c-1,0-1.7,0.7-1.7,1.7c0,1,0.7,1.7,1.7,1.7H335v611.1h-95.2v-235.3c0-1-0.7-1.7-1.7-1.7s-1.7,0.7-1.7,1.7v235.3h-23.2l-41.9-285.3
		c-0.2-0.9-1-1.5-1.9-1.4c-0.9,0.2-1.5,1-1.4,1.9l41.8,284.8h-19.9l-39.1-375.9h3.8l8.5,57.8c0.2,0.9,1,1.5,1.9,1.4
		c0.9-0.2,1.5-1,1.4-1.9l-8.4-57.4h19.6c1,0,1.7-0.7,1.7-1.7v-14c0-1-0.7-1.7-1.7-1.7h-18.9l20.2-26.5c0.2-0.3,0.3-0.7,0.3-1.1
		c0-0.1,0-0.2,0-0.2v-14c0-0.1,0-0.2,0-0.2c0-0.4-0.1-0.8-0.3-1.1l-20.2-26.5h18.9c1,0,1.7-0.7,1.7-1.7v-14c0-1-0.7-1.7-1.7-1.7h-20
		v-22.6c0-1-0.7-1.7-1.7-1.7h-14.5v-28.2c0-1-0.7-1.7-1.7-1.7c-1,0-1.7,0.7-1.7,1.7v28.2h-7.5V798.9h7.5V849c0,1,0.7,1.7,1.7,1.7
		c1,0,1.7-0.7,1.7-1.7v-51.8c0-1-0.7-1.7-1.7-1.7H136v-78.2c0-1-0.7-1.7-1.7-1.7c-1,0-1.7,0.7-1.7,1.7v78.2h-3.8
		c-1,0-1.7,0.7-1.7,1.7v106.4h-14.5c-1,0-1.7,0.7-1.7,1.7v22.6H91c-1,0-1.7,0.7-1.7,1.7v14c0,1,0.7,1.7,1.7,1.7h18.9l-20.2,26.5
		c-0.2,0.3-0.3,0.7-0.3,1.1c0,0.1,0,0.2,0,0.2v14c0,0.1,0,0.2,0,0.2c0,0.4,0.1,0.8,0.3,1.1l20.2,26.5H91c-1,0-1.7,0.7-1.7,1.7v14
		c0,1,0.7,1.7,1.7,1.7h19.5L55.4,1408H1.7c-1,0-1.7,0.7-1.7,1.7s0.7,1.7,1.7,1.7h1025.2c0.2,0.2,0.6,0.3,1,0.3c0.1,0,0.2,0,0.3,0
		c0.2-0.1,0.5-0.2,0.6-0.3h569.5c1,0,1.7-0.7,1.7-1.7S1599.3,1408.1,1598.3,1408.1z M1013.6,443.2h-109V410h109V443.2z M732.2,437.6
		h-35v-17.9h35V437.6z M114.4,907h39.9v20.9h-39.9V907z M92.7,941.8v-10.6h83.2v10.6H92.7z M114.2,945.2h40.3l19.8,25.8H94.4
		L114.2,945.2z M92.7,974.6h83.2v10.6H92.7C92.7,985.3,92.7,974.6,92.7,974.6z M94.4,989h79.8l-19.8,25.8h-40.3L94.4,989z
		 M92.7,1028.8v-10.6h83.2v10.6h-26.7c-0.1,0-0.2,0-0.3,0l0,0H142c-0.1,0-0.2,0-0.3,0h-0.1H92.7z M58.7,1408.1l55.2-375.9h3.8
		l-39.1,375.9H58.7z M82,1408.1l39.1-375.9h4l-20.7,375.9H82z M132.6,1408.1h-25l20.7-375.9h4.2V1408.1z M136,1408.1v-375.9h4.2
		l20.7,375.9H136z M164.3,1408.1l-20.7-375.9h4l39.1,375.9H164.3z M434.3,584.1V678h-80v-93.9H434.3z M329,419.8h35v17.8h-35V419.8z
		 M311,441h70.7l20.5,38.3H290.6L311,441z M288.8,482.6h115.3l20.5,38.3H268.3L288.8,482.6z M341.9,678v-93.6h9V678H341.9z
		 M351,681.7v111.8h-9V681.7H351z M341.9,580.7v-56.1h9v56.1H341.9z M267.2,524.3h71.4v56.4h-71.4V524.3z M258.6,678v-93.9h80V678
		H258.6z M354.4,1408.1h-16V797.3h16V1408.1z M370.4,1408.1h-12.6V972.6h12.6V1408.1z M386.9,1408.1h-13.2V972.6h13.2V1408.1z
		 M403.4,1408.1h-13.2V972.6h13.2V1408.1z M419.9,1408.1h-13.2V972.6h13.2V1408.1z M436.4,1408.1h-13.2V972.6h13.2V1408.1z
		 M453,1408.1h-13.2V972.6H453V1408.1z M453,969.3h-95.2V796.9h23.8l-7.8,7.8c-1.3,1.3-1.3,3.4,0,4.7c0.6,0.6,1.5,1,2.4,1
		s1.7-0.3,2.4-1l11.8-11.8c1.3-1.3,1.3-3.4,0-4.7l-11.8-11.8c-1.3-1.3-3.4-1.3-4.7,0c-1.3,1.3-1.3,3.4,0,4.7l7.8,7.8h-27.3V681.4
		h89.3v112.2h-45.8c-1,0-1.7,0.7-1.7,1.7c0,1,0.7,1.7,1.7,1.7H453L453,969.3L453,969.3z M802.5,584.1V678h-80v-93.9H802.5z
		 M793.9,580.7h-71.4v-56.4h71.4V580.7z M657,482.6h115.3l20.5,38.3H636.5L657,482.6z M710.1,678v-93.6h9.1V678H710.1z M719.2,681.7
		v111.8h-9V681.7H719.2z M710.1,580.7v-56.1h9.1v56.1H710.1z M635.4,580.7v-56.4h71.4v56.4H635.4z M621.3,1408.1H482.4V1144
		c0-1-0.7-1.7-1.7-1.7c-1,0-1.7,0.7-1.7,1.7v264.1h-22.8v-407.6h148.6v69.1h-25.4v-47.8c0-1-0.7-1.7-1.7-1.7h-51.7
		c-1,0-1.7,0.7-1.7,1.7v47.8h-27c-1,0-1.7,0.7-1.7,1.7v29.8h-14.9c-1,0-1.7,0.7-1.7,1.7v16.9c0,1,0.7,1.7,1.7,1.7
		c1,0,1.7-0.7,1.7-1.7v-15.2h138.9L621.3,1408.1L621.3,1408.1z M560.4,1031.5c-1,0-1.7,0.7-1.7,1.7v36.2h-14v-36.2
		c0-1-0.7-1.7-1.7-1.7c-1,0-1.7,0.7-1.7,1.7v36.2h-13.7v-45.9h48.4v45.9h-14v-36.2C562.1,1032.2,561.3,1031.5,560.4,1031.5z
		 M604.8,1073v27.8H499V1073H604.8z M621.3,1101h-13.2V972.6h13.2V1101z M637.8,1408.1h-13.2V972.6h13.2V1408.1z M654.3,1408.1
		h-13.2V972.6h13.2V1408.1z M670.9,1408.1h-13.2V972.6h13.2V1408.1z M687.4,1408.1h-13.2V972.6h13.2V1408.1z M703.3,1408.1h-12.6
		V972.6h12.6V1408.1z M703.3,969.3h-95.2V796.9h29.6c1,0,1.7-0.7,1.7-1.7c0-1-0.7-1.7-1.7-1.7h-20.2V681.4h89.3v112.2H669
		c-1,0-1.7,0.7-1.7,1.7c0,1,0.7,1.7,1.7,1.7h34.3V969.3z M722.6,1408.1h-16V797.3h16V1408.1z M894.3,1145.7L851,1032.1h216.2
		l-43.3,113.6H894.3z M890,1408.1l46.9-259H979l46.9,259L890,1408.1L890,1408.1z M1068.9,1323.1c-0.3-0.2-0.6-0.3-1-0.3h-29.1
		c-1,0-1.7,0.7-1.7,1.7s0.7,1.7,1.7,1.7h29.1c0.4,0,0.7-0.2,1-0.3v16.6H1043c-1,0-1.7,0.7-1.7,1.7s0.7,1.7,1.7,1.7h25.8v16.2h-21.5
		c-1,0-1.7,0.7-1.7,1.7s0.7,1.7,1.7,1.7h21.5v16.2h-17.2c-1,0-1.7,0.7-1.7,1.7s0.7,1.7,1.7,1.7h17.2v23.3h-39.8l-46.9-259h63.7
		l22.9,89.8L1068.9,1323.1L1068.9,1323.1z M1068.9,1225.3L1049,1147c-0.2-0.7-0.9-1.3-1.6-1.3h-19.8L1069,1037L1068.9,1225.3
		L1068.9,1225.3z M1136.2,1408.1h-63.9v-376.3h63.9V1408.1z M1236.5,1408.1h-30.1v-26.4h13c1,0,1.7-0.7,1.7-1.7s-0.7-1.7-1.7-1.7
		l0,0h-13v-18.1h13c1,0,1.7-0.7,1.7-1.7s-0.7-1.7-1.7-1.7l0,0h-13v-18.1h13c1,0,1.7-0.7,1.7-1.7s-0.7-1.7-1.7-1.7l0,0h-13v-18.1h13
		c1,0,1.7-0.7,1.7-1.7s-0.7-1.7-1.7-1.7l0,0h-13v-18.1h13c1,0,1.7-0.7,1.7-1.7s-0.7-1.7-1.7-1.7l0,0h-13v-18.2h13
		c1,0,1.7-0.7,1.7-1.7s-0.7-1.7-1.7-1.7l0,0h-13V1253h13c1,0,1.7-0.7,1.7-1.7s-0.7-1.7-1.7-1.7l0,0h-13v-18.1h13
		c1,0,1.7-0.7,1.7-1.7s-0.7-1.7-1.7-1.7l0,0h-13v-18.1h13c1,0,1.7-0.7,1.7-1.7s-0.7-1.7-1.7-1.7l0,0h-13v-18.1h13
		c1,0,1.7-0.7,1.7-1.7s-0.7-1.7-1.7-1.7l0,0h-13v-18.1h13c1,0,1.7-0.7,1.7-1.7s-0.7-1.7-1.7-1.7l0,0h-13v-18.1h13
		c1,0,1.7-0.7,1.7-1.7s-0.7-1.7-1.7-1.7l0,0h-13v-18.1h13c1,0,1.7-0.7,1.7-1.7s-0.7-1.7-1.7-1.7l0,0h-13v-18.1h13
		c1,0,1.7-0.7,1.7-1.7s-0.7-1.7-1.7-1.7l0,0h-13v-18.1h13c1,0,1.7-0.7,1.7-1.7s-0.7-1.7-1.7-1.7l0,0h-13V1060h13
		c1,0,1.7-0.7,1.7-1.7s-0.7-1.7-1.7-1.7l0,0h-13v-18.1h13c1,0,1.7-0.7,1.7-1.7s-0.7-1.7-1.7-1.7l0,0h-13v-18.1h13
		c1,0,1.7-0.7,1.7-1.7s-0.7-1.7-1.7-1.7l0,0h-13v-18.1h13c1,0,1.7-0.7,1.7-1.7s-0.7-1.7-1.7-1.7l0,0h-13v-18.1h13
		c1,0,1.7-0.7,1.7-1.7s-0.7-1.7-1.7-1.7l0,0h-13v-18.1h13c1,0,1.7-0.7,1.7-1.7s-0.7-1.7-1.7-1.7l0,0h-13v-18.1h13
		c1,0,1.7-0.7,1.7-1.7s-0.7-1.7-1.7-1.7l0,0h-13v-18.1h13c1,0,1.7-0.7,1.7-1.7s-0.7-1.7-1.7-1.7l0,0h-13v-18.1h13
		c1,0,1.7-0.7,1.7-1.7s-0.7-1.7-1.7-1.7l0,0h-13V867h13c1,0,1.7-0.7,1.7-1.7s-0.7-1.7-1.7-1.7l0,0h-13v-18.1h13c1,0,1.7-0.7,1.7-1.7
		s-0.7-1.7-1.7-1.7l0,0h-13V824h13c1,0,1.7-0.7,1.7-1.7s-0.7-1.7-1.7-1.7l0,0h-13v-18.1h13c1,0,1.7-0.7,1.7-1.7c0-1-0.7-1.7-1.7-1.7
		l0,0h-13v-18.1h13c1,0,1.7-0.7,1.7-1.7c0-1-0.7-1.7-1.7-1.7l0,0h-13v-18.1h13c1,0,1.7-0.7,1.7-1.7c0-1-0.7-1.7-1.7-1.7l0,0h-13
		v-18.1h13c1,0,1.7-0.7,1.7-1.7c0-1-0.7-1.7-1.7-1.7l0,0h-13v-18.1h13c1,0,1.7-0.7,1.7-1.7s-0.7-1.7-1.7-1.7l0,0h-13v-18.1h13
		c1,0,1.7-0.7,1.7-1.7s-0.7-1.7-1.7-1.7l0,0h-13v-18.1h13c1,0,1.7-0.7,1.7-1.7s-0.7-1.7-1.7-1.7l0,0h-13v-18.1h13
		c1,0,1.7-0.7,1.7-1.7s-0.7-1.7-1.7-1.7l0,0h-13V631h13c1,0,1.7-0.7,1.7-1.7s-0.7-1.7-1.7-1.7l0,0h-13v-18.1h13c1,0,1.7-0.7,1.7-1.7
		s-0.7-1.7-1.7-1.7l0,0h-13v-18.1h13c1,0,1.7-0.7,1.7-1.7s-0.7-1.7-1.7-1.7l0,0h-13v-18.1h13c1,0,1.7-0.7,1.7-1.7s-0.7-1.7-1.7-1.7
		l0,0h-13v-18.1h13c1,0,1.7-0.7,1.7-1.7s-0.7-1.7-1.7-1.7h-13c0-0.9-0.7-1.6-1.7-1.6h-32.2V349.1h63.9L1236.5,1408.1L1236.5,1408.1z
		 M1527.5,1188.6v62.7H1475v-62.7H1527.5z M1512.9,1143.7v41.5H1475v-41.5H1512.9z M1487.8,738v78.2h-37.6V738H1487.8z
		 M1427.9,714.1c-11.7,0-21.3,9.1-22.2,20.6h-9.5c0.6-16.9,14.6-30.5,31.7-30.5c17,0,31,13.6,31.7,30.5h-9.5
		C1449.2,723.1,1439.6,714.1,1427.9,714.1z M1446.7,734.6h-37.6c0.9-9.6,9-17.2,18.8-17.2C1437.8,717.4,1445.8,725,1446.7,734.6z
		 M1427.9,638.3l5.3,15.6c-1.7-0.3-3.5-0.6-5.3-0.6c-1.8,0-3.6,0.2-5.4,0.6L1427.9,638.3z M1427.9,656.7c11.4,0,20.8,8.4,22.6,19.3
		c-6.2-4.9-14.1-7.8-22.6-7.8s-16.3,2.9-22.6,7.8C1407,665.1,1416.5,656.7,1427.9,656.7z M1427.9,671.6c17.2,0,31.4,13,33.1,29.8
		c-8.6-8.2-20.3-13.3-33.1-13.3c-12.8,0-24.5,5-33.1,13.3C1396.6,684.6,1410.7,671.6,1427.9,671.6z M1427.9,691.4
		c24.2,0,43.9,19.2,44.8,43.2h-9.8c-0.6-18.8-16.1-33.8-35-33.8s-34.4,15-35,33.8h-9.8C1383.9,710.6,1403.7,691.4,1427.9,691.4z
		 M1368.1,738h37.6v78.2h-37.6V738z M1301.8,1231.6h12.9c1,0,1.7-0.7,1.7-1.7s-0.7-1.7-1.7-1.7h-12.9v-18.1h12.9
		c1,0,1.7-0.7,1.7-1.7s-0.7-1.7-1.7-1.7h-12.9v-18.1h12.9c1,0,1.7-0.7,1.7-1.7s-0.7-1.7-1.7-1.7h-12.9v-18.1h12.9
		c1,0,1.7-0.7,1.7-1.7s-0.7-1.7-1.7-1.7h-12.9v-18.1h12.9c1,0,1.7-0.7,1.7-1.7s-0.7-1.7-1.7-1.7h-12.9v-18.1h12.9
		c1,0,1.7-0.7,1.7-1.7s-0.7-1.7-1.7-1.7h-12.9V1103h12.9c1,0,1.7-0.7,1.7-1.7s-0.7-1.7-1.7-1.7h-12.9v-18.1h12.9
		c1,0,1.7-0.7,1.7-1.7s-0.7-1.7-1.7-1.7h-12.9V1060h12.9c1,0,1.7-0.7,1.7-1.7s-0.7-1.7-1.7-1.7h-12.9v-18.1h12.9
		c1,0,1.7-0.7,1.7-1.7s-0.7-1.7-1.7-1.7h-12.9v-18.1h12.9c1,0,1.7-0.7,1.7-1.7s-0.7-1.7-1.7-1.7h-12.9v-18.1h12.9
		c1,0,1.7-0.7,1.7-1.7s-0.7-1.7-1.7-1.7h-12.9v-18.1h12.9c1,0,1.7-0.7,1.7-1.7s-0.7-1.7-1.7-1.7h-12.9v-18.1h12.9
		c1,0,1.7-0.7,1.7-1.7s-0.7-1.7-1.7-1.7h-12.9v-18.1h12.9c1,0,1.7-0.7,1.7-1.7s-0.7-1.7-1.7-1.7h-12.9v-18.1h12.9
		c1,0,1.7-0.7,1.7-1.7s-0.7-1.7-1.7-1.7h-12.9v-18.1h12.9c1,0,1.7-0.7,1.7-1.7s-0.7-1.7-1.7-1.7h-12.9V867h12.9c1,0,1.7-0.7,1.7-1.7
		s-0.7-1.7-1.7-1.7h-12.9v-18.1h12.9c1,0,1.7-0.7,1.7-1.7s-0.7-1.7-1.7-1.7h-12.9v-12.1h23.1v421.2h-23.1V1231.6z M1380.7,1408h-79
		v-146.7c0-0.1,0-0.2,0-0.2v-6.4h79V1408z M1380.7,1251.3h-52.5v-62.7h52.5V1251.3z M1380.7,1185.3h-37.8v-41.5h37.8V1185.3z
		 M1380.7,1140.4h-28.6V819.5h28.6V1140.4z M1471.7,1408h-87.6V819.5h43.3l-7.8,7.8c-1.3,1.3-1.3,3.4,0,4.7c0.6,0.6,1.5,1,2.4,1
		s1.7-0.3,2.4-1l11.8-11.8c1.3-1.3,1.3-3.4,0-4.7l-11.8-11.8c-1.3-1.3-3.4-1.3-4.7,0c-1.3,1.3-1.3,3.4,0,4.7l7.8,7.8H1409v-78.2
		h37.8v79.8c0,1,0.7,1.7,1.7,1.7h23.3L1471.7,1408L1471.7,1408z M1554,1408h-79v-153.4h79V1408z"/>
	<path class="st0" d="M1505.4,863.7c-1,0-1.7,0.7-1.7,1.7v13.2c0,1,0.7,1.7,1.7,1.7s1.7-0.7,1.7-1.7v-13.2
		C1507,864.4,1506.3,863.7,1505.4,863.7z"/>
	<path class="st0" d="M1104,968.4c1,0,1.7-0.7,1.7-1.7v-12.5c0-1-0.7-1.7-1.7-1.7s-1.7,0.7-1.7,1.7v12.5
		C1102.3,967.7,1103.1,968.4,1104,968.4z"/>
	<path class="st0" d="M1137.4,560.8c1,0,1.7-0.7,1.7-1.7v-8.2c0-1-0.7-1.7-1.7-1.7s-1.7,0.7-1.7,1.7v8.3
		C1135.8,560.1,1136.6,560.8,1137.4,560.8z"/>
	<path class="st0" d="M1204.3,209.3c1,0,1.7-0.7,1.7-1.7v-25.2h63.9v314.3l-7.8-7.8c-1.3-1.3-3.4-1.3-4.7,0c-1.3,1.3-1.3,3.4,0,4.7
		l11.8,11.8c0.6,0.6,1.5,1,2.4,1s1.7-0.3,2.4-1l11.8-11.8c1.3-1.3,1.3-3.4,0-4.7c-1.3-1.3-3.4-1.3-4.7,0l-7.8,7.8V130.1
		c0-1-0.7-1.7-1.7-1.7s-1.7,0.7-1.7,1.7v49h-18.5V3.4h18.5v95.2c0,1,0.7,1.7,1.7,1.7s1.7-0.7,1.7-1.7V1.7c0-1-0.7-1.7-1.7-1.7h-21.8
		c-1,0-1.7,0.7-1.7,1.7V179h-43.8c-1,0-1.7,0.7-1.7,1.7v26.9C1202.6,208.5,1203.4,209.3,1204.3,209.3z"/>
	<path class="st0" d="M1204.3,302.9c-1,0-1.7,0.7-1.7,1.7v8.8c0,1,0.7,1.7,1.7,1.7s1.7-0.7,1.7-1.7v-8.8
		C1206,303.6,1205.2,302.9,1204.3,302.9z"/>
	<path class="st0" d="M1271.6,106.9c-1,0-1.7,0.7-1.7,1.7v10.6c0,1,0.7,1.7,1.7,1.7s1.7-0.7,1.7-1.7v-10.6
		C1273.3,107.6,1272.6,106.9,1271.6,106.9z"/>
	<path class="st0" d="M1300.2,767.6c-1,0-1.7,0.7-1.7,1.7v11.6c0,1,0.7,1.7,1.7,1.7s1.7-0.7,1.7-1.7v-11.6
		C1301.8,768.3,1301,767.6,1300.2,767.6z"/>
	<path class="st0" d="M758.9,1362h-19.4c-1,0-1.7,0.7-1.7,1.7s0.7,1.7,1.7,1.7h19.4c1,0,1.7-0.7,1.7-1.7S759.8,1362,758.9,1362z"/>
	<path class="st0" d="M809.7,1362h-19.4c-1,0-1.7,0.7-1.7,1.7s0.7,1.7,1.7,1.7h19.4c1,0,1.7-0.7,1.7-1.7S810.6,1362,809.7,1362z"/>
	<path class="st0" d="M758.9,1380.5h-19.4c-1,0-1.7,0.7-1.7,1.7s0.7,1.7,1.7,1.7h19.4c1,0,1.7-0.7,1.7-1.7
		S759.8,1380.5,758.9,1380.5z"/>
	<path class="st0" d="M809.7,1380.5h-19.4c-1,0-1.7,0.7-1.7,1.7s0.7,1.7,1.7,1.7h19.4c1,0,1.7-0.7,1.7-1.7
		S810.6,1380.5,809.7,1380.5z"/>
	<path class="st0" d="M657.9,793.5h-8.6c-1,0-1.7,0.7-1.7,1.7c0,1,0.7,1.7,1.7,1.7h8.6c1,0,1.7-0.7,1.7-1.7
		C659.6,794.3,658.9,793.5,657.9,793.5z"/>
	<path class="st0" d="M813.4,733.8c-1,0-1.7,0.7-1.7,1.7v9c0,1,0.7,1.7,1.7,1.7c1,0,1.7-0.7,1.7-1.7v-9
		C815.1,734.6,814.4,733.8,813.4,733.8z"/>
	<path class="st0" d="M665.3,463.7c0.2,0.2,0.6,0.2,0.8,0.2c0.6,0,1.2-0.3,1.4-0.9l2.9-5.4c0.4-0.8,0.2-1.8-0.7-2.2
		c-0.8-0.4-1.8-0.2-2.2,0.7l-2.9,5.4C664.2,462.2,664.5,463.2,665.3,463.7z"/>
	<path class="st0" d="M655.7,813.2c-1,0-1.7,0.7-1.7,1.7v136.3c0,1,0.7,1.7,1.7,1.7c1,0,1.7-0.7,1.7-1.7V814.9
		C657.4,814,656.6,813.2,655.7,813.2z"/>
	<path class="st0" d="M639.5,828.5c1,0,1.7-0.7,1.7-1.7s-0.7-1.7-1.7-1.7H620c-1,0-1.7,0.7-1.7,1.7s0.7,1.7,1.7,1.7H639.5z"/>
	<path class="st0" d="M670.8,828.5h19.4c1,0,1.7-0.7,1.7-1.7s-0.7-1.7-1.7-1.7h-19.4c-1,0-1.7,0.7-1.7,1.7S669.8,828.5,670.8,828.5z
		"/>
	<path class="st0" d="M640.1,847c1,0,1.7-0.7,1.7-1.7s-0.7-1.7-1.7-1.7h-19.4c-1,0-1.7,0.7-1.7,1.7s0.7,1.7,1.7,1.7H640.1z"/>
	<path class="st0" d="M671.4,843.7c-1,0-1.7,0.7-1.7,1.7s0.7,1.7,1.7,1.7h19.4c1,0,1.7-0.7,1.7-1.7s-0.7-1.7-1.7-1.7H671.4z"/>
	<path class="st0" d="M640.6,865.5c1,0,1.7-0.7,1.7-1.7s-0.7-1.7-1.7-1.7h-19.4c-1,0-1.7,0.7-1.7,1.7s0.7,1.7,1.7,1.7H640.6z"/>
	<path class="st0" d="M671.9,862.2c-1,0-1.7,0.7-1.7,1.7s0.7,1.7,1.7,1.7h19.4c1,0,1.7-0.7,1.7-1.7s-0.7-1.7-1.7-1.7H671.9z"/>
	<path class="st0" d="M641.3,884c1,0,1.7-0.7,1.7-1.7s-0.7-1.7-1.7-1.7h-19.4c-1,0-1.7,0.7-1.7,1.7s0.7,1.7,1.7,1.7H641.3z"/>
	<path class="st0" d="M672.6,880.6c-1,0-1.7,0.7-1.7,1.7s0.7,1.7,1.7,1.7H692c1,0,1.7-0.7,1.7-1.7s-0.7-1.7-1.7-1.7H672.6z"/>
	<path class="st0" d="M641.8,902.6c1,0,1.7-0.7,1.7-1.7s-0.7-1.7-1.7-1.7h-19.4c-1,0-1.7,0.7-1.7,1.7s0.7,1.7,1.7,1.7H641.8z"/>
	<path class="st0" d="M673.1,899.2c-1,0-1.7,0.7-1.7,1.7s0.7,1.7,1.7,1.7h19.4c1,0,1.7-0.7,1.7-1.7s-0.7-1.7-1.7-1.7H673.1z"/>
	<path class="st0" d="M642.4,921c1,0,1.7-0.7,1.7-1.7s-0.7-1.7-1.7-1.7H623c-1,0-1.7,0.7-1.7,1.7s0.7,1.7,1.7,1.7H642.4z"/>
	<path class="st0" d="M673.7,917.7c-1,0-1.7,0.7-1.7,1.7s0.7,1.7,1.7,1.7h19.4c1,0,1.7-0.7,1.7-1.7s-0.7-1.7-1.7-1.7H673.7z"/>
	<path class="st0" d="M643,936.2h-19.4c-1,0-1.7,0.7-1.7,1.7s0.7,1.7,1.7,1.7H643c1,0,1.7-0.7,1.7-1.7
		C644.7,937,643.9,936.2,643,936.2z"/>
	<path class="st0" d="M674.3,936.2c-1,0-1.7,0.7-1.7,1.7s0.7,1.7,1.7,1.7h19.4c1,0,1.7-0.7,1.7-1.7s-0.7-1.7-1.7-1.7H674.3z"/>
	<path class="st0" d="M771.7,814.9v575.5c0,1,0.7,1.7,1.7,1.7s1.7-0.7,1.7-1.7V815c0-1-0.7-1.7-1.7-1.7
		C772.4,813.2,771.7,814,771.7,814.9z"/>
	<path class="st0" d="M757.1,828.5c1,0,1.7-0.7,1.7-1.7s-0.7-1.7-1.7-1.7h-19.4c-1,0-1.7,0.7-1.7,1.7s0.7,1.7,1.7,1.7H757.1z"/>
	<path class="st0" d="M807.8,828.5c1,0,1.7-0.7,1.7-1.7s-0.7-1.7-1.7-1.7h-19.4c-1,0-1.7,0.7-1.7,1.7s0.7,1.7,1.7,1.7H807.8z"/>
	<path class="st0" d="M738.2,847h19.4c1,0,1.7-0.7,1.7-1.7s-0.7-1.7-1.7-1.7h-19.4c-1,0-1.7,0.7-1.7,1.7S737.4,847,738.2,847z"/>
	<path class="st0" d="M789,847h19.4c1,0,1.7-0.7,1.7-1.7s-0.7-1.7-1.7-1.7H789c-1,0-1.7,0.7-1.7,1.7S788.1,847,789,847z"/>
	<path class="st0" d="M738.9,865.5h19.4c1,0,1.7-0.7,1.7-1.7s-0.7-1.7-1.7-1.7h-19.4c-1,0-1.7,0.7-1.7,1.7
		C737.2,864.7,737.9,865.5,738.9,865.5z"/>
	<path class="st0" d="M789.6,865.5H809c1,0,1.7-0.7,1.7-1.7s-0.7-1.7-1.7-1.7h-19.4c-1,0-1.7,0.7-1.7,1.7
		C787.9,864.7,788.6,865.5,789.6,865.5z"/>
	<path class="st0" d="M758.9,880.6h-19.4c-1,0-1.7,0.7-1.7,1.7s0.7,1.7,1.7,1.7h19.4c1,0,1.7-0.7,1.7-1.7S759.8,880.6,758.9,880.6z"
		/>
	<path class="st0" d="M809.7,880.6h-19.4c-1,0-1.7,0.7-1.7,1.7s0.7,1.7,1.7,1.7h19.4c1,0,1.7-0.7,1.7-1.7S810.6,880.6,809.7,880.6z"
		/>
	<path class="st0" d="M758.9,899.2h-19.4c-1,0-1.7,0.7-1.7,1.7s0.7,1.7,1.7,1.7h19.4c1,0,1.7-0.7,1.7-1.7S759.8,899.2,758.9,899.2z"
		/>
	<path class="st0" d="M809.7,899.2h-19.4c-1,0-1.7,0.7-1.7,1.7s0.7,1.7,1.7,1.7h19.4c1,0,1.7-0.7,1.7-1.7S810.6,899.2,809.7,899.2z"
		/>
	<path class="st0" d="M758.9,917.7h-19.4c-1,0-1.7,0.7-1.7,1.7s0.7,1.7,1.7,1.7h19.4c1,0,1.7-0.7,1.7-1.7
		C760.6,918.5,759.8,917.7,758.9,917.7z"/>
	<path class="st0" d="M809.7,917.7h-19.4c-1,0-1.7,0.7-1.7,1.7s0.7,1.7,1.7,1.7h19.4c1,0,1.7-0.7,1.7-1.7
		C811.3,918.5,810.6,917.7,809.7,917.7z"/>
	<path class="st0" d="M758.9,936.2h-19.4c-1,0-1.7,0.7-1.7,1.7s0.7,1.7,1.7,1.7h19.4c1,0,1.7-0.7,1.7-1.7
		C760.6,937,759.8,936.2,758.9,936.2z"/>
	<path class="st0" d="M809.7,936.2h-19.4c-1,0-1.7,0.7-1.7,1.7s0.7,1.7,1.7,1.7h19.4c1,0,1.7-0.7,1.7-1.7
		C811.3,937,810.6,936.2,809.7,936.2z"/>
	<path class="st0" d="M758.9,954.7h-19.4c-1,0-1.7,0.7-1.7,1.7s0.7,1.7,1.7,1.7h19.4c1,0,1.7-0.7,1.7-1.7S759.8,954.7,758.9,954.7z"
		/>
	<path class="st0" d="M809.7,954.7h-19.4c-1,0-1.7,0.7-1.7,1.7s0.7,1.7,1.7,1.7h19.4c1,0,1.7-0.7,1.7-1.7S810.6,954.7,809.7,954.7z"
		/>
	<path class="st0" d="M758.9,973.2h-19.4c-1,0-1.7,0.7-1.7,1.7s0.7,1.7,1.7,1.7h19.4c1,0,1.7-0.7,1.7-1.7S759.8,973.2,758.9,973.2z"
		/>
	<path class="st0" d="M809.7,973.2h-19.4c-1,0-1.7,0.7-1.7,1.7s0.7,1.7,1.7,1.7h19.4c1,0,1.7-0.7,1.7-1.7S810.6,973.2,809.7,973.2z"
		/>
	<path class="st0" d="M758.9,991.8h-19.4c-1,0-1.7,0.7-1.7,1.7s0.7,1.7,1.7,1.7h19.4c1,0,1.7-0.7,1.7-1.7
		C760.6,992.5,759.8,991.8,758.9,991.8z"/>
	<path class="st0" d="M811.3,993.4c0-1-0.7-1.7-1.7-1.7h-19.4c-1,0-1.7,0.7-1.7,1.7s0.7,1.7,1.7,1.7h19.4
		C810.6,995.1,811.3,994.3,811.3,993.4z"/>
	<path class="st0" d="M758.9,1010.2h-19.4c-1,0-1.7,0.7-1.7,1.7s0.7,1.7,1.7,1.7h19.4c1,0,1.7-0.7,1.7-1.7
		S759.8,1010.2,758.9,1010.2z"/>
	<path class="st0" d="M809.7,1010.2h-19.4c-1,0-1.7,0.7-1.7,1.7s0.7,1.7,1.7,1.7h19.4c1,0,1.7-0.7,1.7-1.7
		S810.6,1010.2,809.7,1010.2z"/>
	<path class="st0" d="M758.9,1028.8h-19.4c-1,0-1.7,0.7-1.7,1.7s0.7,1.7,1.7,1.7h19.4c1,0,1.7-0.7,1.7-1.7
		S759.8,1028.8,758.9,1028.8z"/>
	<path class="st0" d="M809.7,1028.8h-19.4c-1,0-1.7,0.7-1.7,1.7s0.7,1.7,1.7,1.7h19.4c1,0,1.7-0.7,1.7-1.7
		S810.6,1028.8,809.7,1028.8z"/>
	<path class="st0" d="M758.9,1047.3h-19.4c-1,0-1.7,0.7-1.7,1.7s0.7,1.7,1.7,1.7h19.4c1,0,1.7-0.7,1.7-1.7
		C760.6,1048,759.8,1047.3,758.9,1047.3z"/>
	<path class="st0" d="M809.7,1047.3h-19.4c-1,0-1.7,0.7-1.7,1.7s0.7,1.7,1.7,1.7h19.4c1,0,1.7-0.7,1.7-1.7
		C811.3,1048,810.6,1047.3,809.7,1047.3z"/>
	<path class="st0" d="M758.9,1065.8h-19.4c-1,0-1.7,0.7-1.7,1.7s0.7,1.7,1.7,1.7h19.4c1,0,1.7-0.7,1.7-1.7
		S759.8,1065.8,758.9,1065.8z"/>
	<path class="st0" d="M809.7,1065.8h-19.4c-1,0-1.7,0.7-1.7,1.7s0.7,1.7,1.7,1.7h19.4c1,0,1.7-0.7,1.7-1.7
		S810.6,1065.8,809.7,1065.8z"/>
	<path class="st0" d="M758.9,1084.3h-19.4c-1,0-1.7,0.7-1.7,1.7s0.7,1.7,1.7,1.7h19.4c1,0,1.7-0.7,1.7-1.7
		S759.8,1084.3,758.9,1084.3z"/>
	<path class="st0" d="M809.7,1084.3h-19.4c-1,0-1.7,0.7-1.7,1.7s0.7,1.7,1.7,1.7h19.4c1,0,1.7-0.7,1.7-1.7
		S810.6,1084.3,809.7,1084.3z"/>
	<path class="st0" d="M758.9,1102.8h-19.4c-1,0-1.7,0.7-1.7,1.7s0.7,1.7,1.7,1.7h19.4c1,0,1.7-0.7,1.7-1.7
		S759.8,1102.8,758.9,1102.8z"/>
	<path class="st0" d="M809.7,1102.8h-19.4c-1,0-1.7,0.7-1.7,1.7s0.7,1.7,1.7,1.7h19.4c1,0,1.7-0.7,1.7-1.7
		S810.6,1102.8,809.7,1102.8z"/>
	<path class="st0" d="M758.9,1121.4h-19.4c-1,0-1.7,0.7-1.7,1.7s0.7,1.7,1.7,1.7h19.4c1,0,1.7-0.7,1.7-1.7
		C760.6,1122.1,759.8,1121.4,758.9,1121.4z"/>
	<path class="st0" d="M809.7,1121.4h-19.4c-1,0-1.7,0.7-1.7,1.7s0.7,1.7,1.7,1.7h19.4c1,0,1.7-0.7,1.7-1.7
		C811.3,1122.1,810.6,1121.4,809.7,1121.4z"/>
	<path class="st0" d="M758.9,1139.8h-19.4c-1,0-1.7,0.7-1.7,1.7s0.7,1.7,1.7,1.7h19.4c1,0,1.7-0.7,1.7-1.7
		S759.8,1139.8,758.9,1139.8z"/>
	<path class="st0" d="M809.7,1139.8h-19.4c-1,0-1.7,0.7-1.7,1.7s0.7,1.7,1.7,1.7h19.4c1,0,1.7-0.7,1.7-1.7
		S810.6,1139.8,809.7,1139.8z"/>
	<path class="st0" d="M758.9,1158.3h-19.4c-1,0-1.7,0.7-1.7,1.7s0.7,1.7,1.7,1.7h19.4c1,0,1.7-0.7,1.7-1.7
		S759.8,1158.3,758.9,1158.3z"/>
	<path class="st0" d="M809.7,1158.3h-19.4c-1,0-1.7,0.7-1.7,1.7s0.7,1.7,1.7,1.7h19.4c1,0,1.7-0.7,1.7-1.7
		S810.6,1158.3,809.7,1158.3z"/>
	<path class="st0" d="M758.9,1176.9h-19.4c-1,0-1.7,0.7-1.7,1.7s0.7,1.7,1.7,1.7h19.4c1,0,1.7-0.7,1.7-1.7
		C760.6,1177.6,759.8,1176.9,758.9,1176.9z"/>
	<path class="st0" d="M809.7,1176.9h-19.4c-1,0-1.7,0.7-1.7,1.7s0.7,1.7,1.7,1.7h19.4c1,0,1.7-0.7,1.7-1.7
		C811.3,1177.6,810.6,1176.9,809.7,1176.9z"/>
	<path class="st0" d="M758.9,1195.4h-19.4c-1,0-1.7,0.7-1.7,1.7s0.7,1.7,1.7,1.7h19.4c1,0,1.7-0.7,1.7-1.7
		S759.8,1195.4,758.9,1195.4z"/>
	<path class="st0" d="M809.7,1195.4h-19.4c-1,0-1.7,0.7-1.7,1.7s0.7,1.7,1.7,1.7h19.4c1,0,1.7-0.7,1.7-1.7
		S810.6,1195.4,809.7,1195.4z"/>
	<path class="st0" d="M758.9,1213.9h-19.4c-1,0-1.7,0.7-1.7,1.7s0.7,1.7,1.7,1.7h19.4c1,0,1.7-0.7,1.7-1.7
		S759.8,1213.9,758.9,1213.9z"/>
	<path class="st0" d="M809.7,1213.9h-19.4c-1,0-1.7,0.7-1.7,1.7s0.7,1.7,1.7,1.7h19.4c1,0,1.7-0.7,1.7-1.7
		S810.6,1213.9,809.7,1213.9z"/>
	<path class="st0" d="M758.9,1232.4h-19.4c-1,0-1.7,0.7-1.7,1.7s0.7,1.7,1.7,1.7h19.4c1,0,1.7-0.7,1.7-1.7
		C760.6,1233.1,759.8,1232.4,758.9,1232.4z"/>
	<path class="st0" d="M809.7,1232.4h-19.4c-1,0-1.7,0.7-1.7,1.7s0.7,1.7,1.7,1.7h19.4c1,0,1.7-0.7,1.7-1.7
		C811.3,1233.1,810.6,1232.4,809.7,1232.4z"/>
	<path class="st0" d="M758.9,1250.9h-19.4c-1,0-1.7,0.7-1.7,1.7s0.7,1.7,1.7,1.7h19.4c1,0,1.7-0.7,1.7-1.7
		C760.6,1251.7,759.8,1250.9,758.9,1250.9z"/>
	<path class="st0" d="M809.7,1250.9h-19.4c-1,0-1.7,0.7-1.7,1.7s0.7,1.7,1.7,1.7h19.4c1,0,1.7-0.7,1.7-1.7
		C811.3,1251.7,810.6,1250.9,809.7,1250.9z"/>
	<path class="st0" d="M758.9,1269.4h-19.4c-1,0-1.7,0.7-1.7,1.7s0.7,1.7,1.7,1.7h19.4c1,0,1.7-0.7,1.7-1.7
		S759.8,1269.4,758.9,1269.4z"/>
	<path class="st0" d="M809.7,1269.4h-19.4c-1,0-1.7,0.7-1.7,1.7s0.7,1.7,1.7,1.7h19.4c1,0,1.7-0.7,1.7-1.7
		S810.6,1269.4,809.7,1269.4z"/>
	<path class="st0" d="M758.9,1287.9h-19.4c-1,0-1.7,0.7-1.7,1.7s0.7,1.7,1.7,1.7h19.4c1,0,1.7-0.7,1.7-1.7
		S759.8,1287.9,758.9,1287.9z"/>
	<path class="st0" d="M809.7,1287.9h-19.4c-1,0-1.7,0.7-1.7,1.7s0.7,1.7,1.7,1.7h19.4c1,0,1.7-0.7,1.7-1.7
		S810.6,1287.9,809.7,1287.9z"/>
	<path class="st0" d="M758.9,1306.5h-19.4c-1,0-1.7,0.7-1.7,1.7s0.7,1.7,1.7,1.7h19.4c1,0,1.7-0.7,1.7-1.7
		C760.6,1307.2,759.8,1306.5,758.9,1306.5z"/>
	<path class="st0" d="M809.7,1306.5h-19.4c-1,0-1.7,0.7-1.7,1.7s0.7,1.7,1.7,1.7h19.4c1,0,1.7-0.7,1.7-1.7
		C811.3,1307.2,810.6,1306.5,809.7,1306.5z"/>
	<path class="st0" d="M758.9,1325h-19.4c-1,0-1.7,0.7-1.7,1.7s0.7,1.7,1.7,1.7h19.4c1,0,1.7-0.7,1.7-1.7S759.8,1325,758.9,1325z"/>
	<path class="st0" d="M809.7,1325h-19.4c-1,0-1.7,0.7-1.7,1.7s0.7,1.7,1.7,1.7h19.4c1,0,1.7-0.7,1.7-1.7S810.6,1325,809.7,1325z"/>
	<path class="st0" d="M758.9,1343.4h-19.4c-1,0-1.7,0.7-1.7,1.7s0.7,1.7,1.7,1.7h19.4c1,0,1.7-0.7,1.7-1.7
		S759.8,1343.4,758.9,1343.4z"/>
	<path class="st0" d="M809.7,1343.4h-19.4c-1,0-1.7,0.7-1.7,1.7s0.7,1.7,1.7,1.7h19.4c1,0,1.7-0.7,1.7-1.7
		S810.6,1343.4,809.7,1343.4z"/>
	<path class="st0" d="M661.2,692.8c-1,0-1.7,0.7-1.7,1.7v86.2c0,1,0.7,1.7,1.7,1.7c1,0,1.7-0.7,1.7-1.7v-86.2
		C662.9,693.6,662.2,692.8,661.2,692.8z"/>
	<path class="st0" d="M647.3,706.4c1,0,1.7-0.7,1.7-1.7c0-1-0.7-1.7-1.7-1.7h-16.8c-1,0-1.7,0.7-1.7,1.7c0,1,0.7,1.7,1.7,1.7H647.3z
		"/>
	<path class="st0" d="M674.2,706.4H691c1,0,1.7-0.7,1.7-1.7c0-1-0.7-1.7-1.7-1.7h-16.8c-1,0-1.7,0.7-1.7,1.7
		S673.3,706.4,674.2,706.4z"/>
	<path class="st0" d="M647.8,722.4c1,0,1.7-0.7,1.7-1.7c0-1-0.7-1.7-1.7-1.7H631c-1,0-1.7,0.7-1.7,1.7c0,1,0.7,1.7,1.7,1.7H647.8z"
		/>
	<path class="st0" d="M674.7,719.1c-1,0-1.7,0.7-1.7,1.7c0,1,0.7,1.7,1.7,1.7h16.8c1,0,1.7-0.7,1.7-1.7c0-1-0.7-1.7-1.7-1.7H674.7z"
		/>
	<path class="st0" d="M648.2,738.4c1,0,1.7-0.7,1.7-1.7s-0.7-1.7-1.7-1.7h-16.8c-1,0-1.7,0.7-1.7,1.7s0.7,1.7,1.7,1.7H648.2z"/>
	<path class="st0" d="M675.2,735.1c-1,0-1.7,0.7-1.7,1.7s0.7,1.7,1.7,1.7H692c1,0,1.7-0.7,1.7-1.7s-0.7-1.7-1.7-1.7H675.2z"/>
	<path class="st0" d="M648.8,754.4c1,0,1.7-0.7,1.7-1.7c0-1-0.7-1.7-1.7-1.7H632c-1,0-1.7,0.7-1.7,1.7c0,1,0.7,1.7,1.7,1.7H648.8z"
		/>
	<path class="st0" d="M675.8,751.1c-1,0-1.7,0.7-1.7,1.7c0,1,0.7,1.7,1.7,1.7h16.8c1,0,1.7-0.7,1.7-1.7c0-1-0.7-1.7-1.7-1.7H675.8z"
		/>
	<path class="st0" d="M651,768.7c0-1-0.7-1.7-1.7-1.7h-16.8c-1,0-1.7,0.7-1.7,1.7c0,1,0.7,1.7,1.7,1.7h16.8
		C650.2,770.4,651,769.7,651,768.7z"/>
	<path class="st0" d="M676.2,767.1c-1,0-1.7,0.7-1.7,1.7c0,1,0.7,1.7,1.7,1.7H693c1,0,1.7-0.7,1.7-1.7c0-1-0.7-1.7-1.7-1.7H676.2z"
		/>
	<path class="st0" d="M764.1,693.7v86.2c0,1,0.7,1.7,1.7,1.7c1,0,1.7-0.7,1.7-1.7v-86.2c0-1-0.7-1.7-1.7-1.7
		C764.9,692,764.1,692.7,764.1,693.7z"/>
	<path class="st0" d="M751.8,705.6c1,0,1.7-0.7,1.7-1.7s-0.7-1.7-1.7-1.7H735c-1,0-1.7,0.7-1.7,1.7s0.7,1.7,1.7,1.7H751.8z"/>
	<path class="st0" d="M795.5,705.6c1,0,1.7-0.7,1.7-1.7s-0.7-1.7-1.7-1.7h-16.8c-1,0-1.7,0.7-1.7,1.7s0.7,1.7,1.7,1.7H795.5z"/>
	<path class="st0" d="M735.5,721.6h16.8c1,0,1.7-0.7,1.7-1.7c0-1-0.7-1.7-1.7-1.7h-16.8c-1,0-1.7,0.7-1.7,1.7
		C733.8,720.8,734.6,721.6,735.5,721.6z"/>
	<path class="st0" d="M779.3,721.6h16.8c1,0,1.7-0.7,1.7-1.7c0-1-0.7-1.7-1.7-1.7h-16.8c-1,0-1.7,0.7-1.7,1.7
		C777.6,720.8,778.3,721.6,779.3,721.6z"/>
	<path class="st0" d="M736,737.6h16.8c1,0,1.7-0.7,1.7-1.7s-0.7-1.7-1.7-1.7H736c-1,0-1.7,0.7-1.7,1.7S735.1,737.6,736,737.6z"/>
	<path class="st0" d="M779.8,737.6h16.8c1,0,1.7-0.7,1.7-1.7s-0.7-1.7-1.7-1.7h-16.8c-1,0-1.7,0.7-1.7,1.7S778.9,737.6,779.8,737.6z
		"/>
	<path class="st0" d="M736.6,753.6h16.8c1,0,1.7-0.7,1.7-1.7c0-1-0.7-1.7-1.7-1.7h-16.8c-1,0-1.7,0.7-1.7,1.7
		C734.9,752.8,735.6,753.6,736.6,753.6z"/>
	<path class="st0" d="M780.2,753.6H797c1,0,1.7-0.7,1.7-1.7c0-1-0.7-1.7-1.7-1.7h-16.8c-1,0-1.7,0.7-1.7,1.7
		C778.6,752.8,779.4,753.6,780.2,753.6z"/>
	<path class="st0" d="M737,769.6h16.8c1,0,1.7-0.7,1.7-1.7s-0.7-1.7-1.7-1.7H737c-1,0-1.7,0.7-1.7,1.7S736.2,769.6,737,769.6z"/>
	<path class="st0" d="M780.8,769.6h16.8c1,0,1.7-0.7,1.7-1.7s-0.7-1.7-1.7-1.7h-16.8c-1,0-1.7,0.7-1.7,1.7S779.8,769.6,780.8,769.6z
		"/>
	<path class="st0" d="M668,666.7v-70.3c0-1-0.7-1.7-1.7-1.7c-1,0-1.7,0.7-1.7,1.7v70.3c0,1,0.7,1.7,1.7,1.7
		C667.2,668.4,668,667.7,668,666.7z"/>
	<path class="st0" d="M654.9,603h-13.7c-1,0-1.7,0.7-1.7,1.7s0.7,1.7,1.7,1.7h13.7c1,0,1.7-0.7,1.7-1.7S655.8,603,654.9,603z"/>
	<path class="st0" d="M690.6,603h-13.7c-1,0-1.7,0.7-1.7,1.7s0.7,1.7,1.7,1.7h13.7c1,0,1.7-0.7,1.7-1.7S691.5,603,690.6,603z"/>
	<path class="st0" d="M655.3,616.2h-13.7c-1,0-1.7,0.7-1.7,1.7c0,1,0.7,1.7,1.7,1.7h13.7c1,0,1.7-0.7,1.7-1.7
		C657,616.9,656.2,616.2,655.3,616.2z"/>
	<path class="st0" d="M691,616.2h-13.7c-1,0-1.7,0.7-1.7,1.7c0,1,0.7,1.7,1.7,1.7H691c1,0,1.7-0.7,1.7-1.7
		C692.6,616.9,691.9,616.2,691,616.2z"/>
	<path class="st0" d="M655.8,629.2h-13.7c-1,0-1.7,0.7-1.7,1.7s0.7,1.7,1.7,1.7h13.7c1,0,1.7-0.7,1.7-1.7S656.6,629.2,655.8,629.2z"
		/>
	<path class="st0" d="M691.4,629.2h-13.7c-1,0-1.7,0.7-1.7,1.7s0.7,1.7,1.7,1.7h13.7c1,0,1.7-0.7,1.7-1.7S692.3,629.2,691.4,629.2z"
		/>
	<path class="st0" d="M656.2,642.2h-13.7c-1,0-1.7,0.7-1.7,1.7s0.7,1.7,1.7,1.7h13.7c1,0,1.7-0.7,1.7-1.7S657,642.2,656.2,642.2z"/>
	<path class="st0" d="M691.8,642.2h-13.7c-1,0-1.7,0.7-1.7,1.7s0.7,1.7,1.7,1.7h13.7c1,0,1.7-0.7,1.7-1.7S692.7,642.2,691.8,642.2z"
		/>
	<path class="st0" d="M642.9,655.3c-1,0-1.7,0.7-1.7,1.7s0.7,1.7,1.7,1.7h13.7c1,0,1.7-0.7,1.7-1.7s-0.7-1.7-1.7-1.7H642.9z"/>
	<path class="st0" d="M678.6,655.3c-1,0-1.7,0.7-1.7,1.7s0.7,1.7,1.7,1.7h13.7c1,0,1.7-0.7,1.7-1.7s-0.7-1.7-1.7-1.7H678.6z"/>
	<path class="st0" d="M762.5,667.7c1,0,1.7-0.7,1.7-1.7v-70.3c0-1-0.7-1.7-1.7-1.7c-1,0-1.7,0.7-1.7,1.7V666
		C760.8,667,761.5,667.7,762.5,667.7z"/>
	<path class="st0" d="M737.4,605.8H751c1,0,1.7-0.7,1.7-1.7c0-1-0.7-1.7-1.7-1.7h-13.7c-1,0-1.7,0.7-1.7,1.7
		C735.7,605,736.4,605.8,737.4,605.8z"/>
	<path class="st0" d="M773,605.8h13.7c1,0,1.7-0.7,1.7-1.7c0-1-0.7-1.7-1.7-1.7H773c-1,0-1.7,0.7-1.7,1.7
		C771.4,605,772.1,605.8,773,605.8z"/>
	<path class="st0" d="M751.4,615.4h-13.7c-1,0-1.7,0.7-1.7,1.7s0.7,1.7,1.7,1.7h13.7c1,0,1.7-0.7,1.7-1.7S752.4,615.4,751.4,615.4z"
		/>
	<path class="st0" d="M787.1,615.4h-13.7c-1,0-1.7,0.7-1.7,1.7s0.7,1.7,1.7,1.7h13.7c1,0,1.7-0.7,1.7-1.7S788.1,615.4,787.1,615.4z"
		/>
	<path class="st0" d="M751.8,628.5h-13.7c-1,0-1.7,0.7-1.7,1.7s0.7,1.7,1.7,1.7h13.7c1,0,1.7-0.7,1.7-1.7S752.8,628.5,751.8,628.5z"
		/>
	<path class="st0" d="M787.6,628.5h-13.7c-1,0-1.7,0.7-1.7,1.7s0.7,1.7,1.7,1.7h13.7c1,0,1.7-0.7,1.7-1.7S788.5,628.5,787.6,628.5z"
		/>
	<path class="st0" d="M752.3,641.5h-13.7c-1,0-1.7,0.7-1.7,1.7c0,1,0.7,1.7,1.7,1.7h13.7c1,0,1.7-0.7,1.7-1.7
		C754,642.3,753.2,641.5,752.3,641.5z"/>
	<path class="st0" d="M788,641.5h-13.7c-1,0-1.7,0.7-1.7,1.7c0,1,0.7,1.7,1.7,1.7H788c1,0,1.7-0.7,1.7-1.7
		C789.7,642.3,788.9,641.5,788,641.5z"/>
	<path class="st0" d="M752.7,654.6H739c-1,0-1.7,0.7-1.7,1.7c0,1,0.7,1.7,1.7,1.7h13.7c1,0,1.7-0.7,1.7-1.7
		C754.4,655.4,753.6,654.6,752.7,654.6z"/>
	<path class="st0" d="M788.4,654.6h-13.7c-1,0-1.7,0.7-1.7,1.7c0,1,0.7,1.7,1.7,1.7h13.7c1,0,1.7-0.7,1.7-1.7
		C790.1,655.4,789.3,654.6,788.4,654.6z"/>
	<path class="st0" d="M693,536.1h-45.8c-1,0-1.7,0.7-1.7,1.7c0,1,0.7,1.7,1.7,1.7H693c1,0,1.7-0.7,1.7-1.7
		C694.7,536.8,693.9,536.1,693,536.1z"/>
	<path class="st0" d="M693,550.9h-45.8c-1,0-1.7,0.7-1.7,1.7c0,1,0.7,1.7,1.7,1.7H693c1,0,1.7-0.7,1.7-1.7
		C694.7,551.7,693.9,550.9,693,550.9z"/>
	<path class="st0" d="M693,565.8h-45.8c-1,0-1.7,0.7-1.7,1.7s0.7,1.7,1.7,1.7H693c1,0,1.7-0.7,1.7-1.7S693.9,565.8,693,565.8z"/>
	<path class="st0" d="M735,539.3h45.8c1,0,1.7-0.7,1.7-1.7s-0.7-1.7-1.7-1.7H735c-1,0-1.7,0.7-1.7,1.7
		C733.3,538.6,734,539.3,735,539.3z"/>
	<path class="st0" d="M735,554.2h45.8c1,0,1.7-0.7,1.7-1.7s-0.7-1.7-1.7-1.7H735c-1,0-1.7,0.7-1.7,1.7S734,554.2,735,554.2z"/>
	<path class="st0" d="M735,569h45.8c1,0,1.7-0.7,1.7-1.7s-0.7-1.7-1.7-1.7H735c-1,0-1.7,0.7-1.7,1.7C733.3,568.3,734,569,735,569z"
		/>
	<path class="st0" d="M666.2,496.7h96.2c1,0,1.7-0.7,1.7-1.7s-0.7-1.7-1.7-1.7h-96.2c-1,0-1.7,0.7-1.7,1.7S665.3,496.7,666.2,496.7z
		"/>
	<path class="st0" d="M771.4,506.8H657.3c-1,0-1.7,0.7-1.7,1.7c0,1,0.7,1.7,1.7,1.7h114.1c1,0,1.7-0.7,1.7-1.7
		C773,507.5,772.3,506.8,771.4,506.8z"/>
	<path class="st0" d="M738,455.1c1,0,1.7-0.7,1.7-1.7c0-1-0.7-1.7-1.7-1.7h-47.4c-1,0-1.7,0.7-1.7,1.7c0,1,0.7,1.7,1.7,1.7H738z"/>
	<path class="st0" d="M681.9,466.8c0,1,0.7,1.7,1.7,1.7H745c1,0,1.7-0.7,1.7-1.7c0-1-0.7-1.7-1.7-1.7h-61.4
		C682.7,465.1,681.9,465.9,681.9,466.8z"/>
	<path class="st0" d="M238.2,1028.3c1,0,1.7-0.7,1.7-1.7v-12.4c0-1-0.7-1.7-1.7-1.7s-1.7,0.7-1.7,1.7v12.4
		C236.6,1027.6,237.3,1028.3,238.2,1028.3z"/>
	<path class="st0" d="M271.9,796.9h12.9c1,0,1.7-0.7,1.7-1.7c0-1-0.7-1.7-1.7-1.7h-12.9c-1,0-1.7,0.7-1.7,1.7
		C270.2,796.2,271,796.9,271.9,796.9z"/>
	<path class="st0" d="M427.4,546.8c-1,0-1.7,0.7-1.7,1.7v9.9c0,1,0.7,1.7,1.7,1.7c1,0,1.7-0.7,1.7-1.7v-9.9
		C429,547.5,428.2,546.8,427.4,546.8z"/>
	<path class="st0" d="M405.4,952.9c1,0,1.7-0.7,1.7-1.7V814.9c0-1-0.7-1.7-1.7-1.7c-1,0-1.7,0.7-1.7,1.7v136.3
		C403.7,952.1,404.4,952.9,405.4,952.9z"/>
	<path class="st0" d="M421.6,828.5H441c1,0,1.7-0.7,1.7-1.7s-0.7-1.7-1.7-1.7h-19.4c-1,0-1.7,0.7-1.7,1.7S420.6,828.5,421.6,828.5z"
		/>
	<path class="st0" d="M390.3,825.1h-19.4c-1,0-1.7,0.7-1.7,1.7s0.7,1.7,1.7,1.7h19.4c1,0,1.7-0.7,1.7-1.7S391.2,825.1,390.3,825.1z"
		/>
	<path class="st0" d="M421,847h19.4c1,0,1.7-0.7,1.7-1.7s-0.7-1.7-1.7-1.7H421c-1,0-1.7,0.7-1.7,1.7S420.1,847,421,847z"/>
	<path class="st0" d="M389.7,843.7h-19.4c-1,0-1.7,0.7-1.7,1.7s0.7,1.7,1.7,1.7h19.4c1,0,1.7-0.7,1.7-1.7S390.6,843.7,389.7,843.7z"
		/>
	<path class="st0" d="M420.4,865.5h19.4c1,0,1.7-0.7,1.7-1.7s-0.7-1.7-1.7-1.7h-19.4c-1,0-1.7,0.7-1.7,1.7
		C418.7,864.7,419.4,865.5,420.4,865.5z"/>
	<path class="st0" d="M389.1,862.2h-19.4c-1,0-1.7,0.7-1.7,1.7s0.7,1.7,1.7,1.7h19.4c1,0,1.7-0.7,1.7-1.7S390.1,862.2,389.1,862.2z"
		/>
	<path class="st0" d="M419.8,884h19.4c1,0,1.7-0.7,1.7-1.7s-0.7-1.7-1.7-1.7h-19.4c-1,0-1.7,0.7-1.7,1.7S418.9,884,419.8,884z"/>
	<path class="st0" d="M388.6,880.6h-19.4c-1,0-1.7,0.7-1.7,1.7s0.7,1.7,1.7,1.7h19.4c1,0,1.7-0.7,1.7-1.7S389.4,880.6,388.6,880.6z"
		/>
	<path class="st0" d="M419.2,902.6h19.4c1,0,1.7-0.7,1.7-1.7s-0.7-1.7-1.7-1.7h-19.4c-1,0-1.7,0.7-1.7,1.7S418.3,902.6,419.2,902.6z
		"/>
	<path class="st0" d="M387.9,899.2h-19.4c-1,0-1.7,0.7-1.7,1.7s0.7,1.7,1.7,1.7h19.4c1,0,1.7-0.7,1.7-1.7S388.9,899.2,387.9,899.2z"
		/>
	<path class="st0" d="M418.6,921h19.4c1,0,1.7-0.7,1.7-1.7s-0.7-1.7-1.7-1.7h-19.4c-1,0-1.7,0.7-1.7,1.7S417.7,921,418.6,921z"/>
	<path class="st0" d="M387.4,917.7h-19.4c-1,0-1.7,0.7-1.7,1.7s0.7,1.7,1.7,1.7h19.4c1,0,1.7-0.7,1.7-1.7
		C389,918.5,388.2,917.7,387.4,917.7z"/>
	<path class="st0" d="M418,939.5h19.4c1,0,1.7-0.7,1.7-1.7s-0.7-1.7-1.7-1.7H418c-1,0-1.7,0.7-1.7,1.7
		C416.4,938.8,417.1,939.5,418,939.5z"/>
	<path class="st0" d="M386.7,936.2h-19.4c-1,0-1.7,0.7-1.7,1.7s0.7,1.7,1.7,1.7h19.4c1,0,1.7-0.7,1.7-1.7
		C388.4,937,387.7,936.2,386.7,936.2z"/>
	<path class="st0" d="M287.7,1392.1c1,0,1.7-0.7,1.7-1.7V815c0-1-0.7-1.7-1.7-1.7c-1,0-1.7,0.7-1.7,1.7v575.4
		C286,1391.3,286.8,1392.1,287.7,1392.1z"/>
	<path class="st0" d="M323.4,828.5c1,0,1.7-0.7,1.7-1.7s-0.7-1.7-1.7-1.7h-19.4c-1,0-1.7,0.7-1.7,1.7s0.7,1.7,1.7,1.7H323.4z"/>
	<path class="st0" d="M251.5,826.8c0,1,0.7,1.7,1.7,1.7h19.4c1,0,1.7-0.7,1.7-1.7s-0.7-1.7-1.7-1.7h-19.4
		C252.2,825.1,251.5,825.9,251.5,826.8z"/>
	<path class="st0" d="M301.7,845.3c0,1,0.7,1.7,1.7,1.7h19.4c1,0,1.7-0.7,1.7-1.7s-0.7-1.7-1.7-1.7h-19.4
		C302.4,843.7,301.7,844.4,301.7,845.3z"/>
	<path class="st0" d="M251,845.3c0,1,0.7,1.7,1.7,1.7h19.4c1,0,1.7-0.7,1.7-1.7s-0.7-1.7-1.7-1.7h-19.4
		C251.7,843.7,251,844.4,251,845.3z"/>
	<path class="st0" d="M301.1,863.8c0,1,0.7,1.7,1.7,1.7h19.4c1,0,1.7-0.7,1.7-1.7s-0.7-1.7-1.7-1.7h-19.4
		C301.8,862.2,301.1,862.9,301.1,863.8z"/>
	<path class="st0" d="M250.3,863.8c0,1,0.7,1.7,1.7,1.7h19.4c1,0,1.7-0.7,1.7-1.7s-0.7-1.7-1.7-1.7H252
		C251.1,862.2,250.3,862.9,250.3,863.8z"/>
	<path class="st0" d="M300.5,882.3c0,1,0.7,1.7,1.7,1.7h19.4c1,0,1.7-0.7,1.7-1.7s-0.7-1.7-1.7-1.7h-19.4
		C301.3,880.6,300.5,881.4,300.5,882.3z"/>
	<path class="st0" d="M249.8,882.3c0,1,0.7,1.7,1.7,1.7h19.4c1,0,1.7-0.7,1.7-1.7s-0.7-1.7-1.7-1.7h-19.4
		C250.5,880.6,249.8,881.4,249.8,882.3z"/>
	<path class="st0" d="M302.2,902.6h19.4c1,0,1.7-0.7,1.7-1.7s-0.7-1.7-1.7-1.7h-19.4c-1,0-1.7,0.7-1.7,1.7S301.3,902.6,302.2,902.6z
		"/>
	<path class="st0" d="M251.4,902.6h19.4c1,0,1.7-0.7,1.7-1.7s-0.7-1.7-1.7-1.7h-19.4c-1,0-1.7,0.7-1.7,1.7S250.5,902.6,251.4,902.6z
		"/>
	<path class="st0" d="M302.2,921h19.4c1,0,1.7-0.7,1.7-1.7s-0.7-1.7-1.7-1.7h-19.4c-1,0-1.7,0.7-1.7,1.7S301.3,921,302.2,921z"/>
	<path class="st0" d="M251.4,921h19.4c1,0,1.7-0.7,1.7-1.7s-0.7-1.7-1.7-1.7h-19.4c-1,0-1.7,0.7-1.7,1.7
		C249.8,920.3,250.5,921,251.4,921z"/>
	<path class="st0" d="M302.2,939.5h19.4c1,0,1.7-0.7,1.7-1.7s-0.7-1.7-1.7-1.7h-19.4c-1,0-1.7,0.7-1.7,1.7S301.3,939.5,302.2,939.5z
		"/>
	<path class="st0" d="M251.4,939.5h19.4c1,0,1.7-0.7,1.7-1.7s-0.7-1.7-1.7-1.7h-19.4c-1,0-1.7,0.7-1.7,1.7
		C249.8,938.8,250.5,939.5,251.4,939.5z"/>
	<path class="st0" d="M302.2,958.1h19.4c1,0,1.7-0.7,1.7-1.7s-0.7-1.7-1.7-1.7h-19.4c-1,0-1.7,0.7-1.7,1.7S301.3,958.1,302.2,958.1z
		"/>
	<path class="st0" d="M251.4,958.1h19.4c1,0,1.7-0.7,1.7-1.7s-0.7-1.7-1.7-1.7h-19.4c-1,0-1.7,0.7-1.7,1.7S250.5,958.1,251.4,958.1z
		"/>
	<path class="st0" d="M302.2,976.6h19.4c1,0,1.7-0.7,1.7-1.7s-0.7-1.7-1.7-1.7h-19.4c-1,0-1.7,0.7-1.7,1.7S301.3,976.6,302.2,976.6z
		"/>
	<path class="st0" d="M251.4,976.6h19.4c1,0,1.7-0.7,1.7-1.7s-0.7-1.7-1.7-1.7h-19.4c-1,0-1.7,0.7-1.7,1.7S250.5,976.6,251.4,976.6z
		"/>
	<path class="st0" d="M302.2,995.1h19.4c1,0,1.7-0.7,1.7-1.7s-0.7-1.7-1.7-1.7h-19.4c-1,0-1.7,0.7-1.7,1.7
		C300.5,994.3,301.3,995.1,302.2,995.1z"/>
	<path class="st0" d="M251.4,995.1h19.4c1,0,1.7-0.7,1.7-1.7s-0.7-1.7-1.7-1.7h-19.4c-1,0-1.7,0.7-1.7,1.7
		C249.8,994.3,250.5,995.1,251.4,995.1z"/>
	<path class="st0" d="M302.2,1013.6h19.4c1,0,1.7-0.7,1.7-1.7s-0.7-1.7-1.7-1.7h-19.4c-1,0-1.7,0.7-1.7,1.7
		S301.3,1013.6,302.2,1013.6z"/>
	<path class="st0" d="M251.4,1013.6h19.4c1,0,1.7-0.7,1.7-1.7s-0.7-1.7-1.7-1.7h-19.4c-1,0-1.7,0.7-1.7,1.7
		S250.5,1013.6,251.4,1013.6z"/>
	<path class="st0" d="M302.2,1032.1h19.4c1,0,1.7-0.7,1.7-1.7s-0.7-1.7-1.7-1.7h-19.4c-1,0-1.7,0.7-1.7,1.7
		S301.3,1032.1,302.2,1032.1z"/>
	<path class="st0" d="M251.4,1032.1h19.4c1,0,1.7-0.7,1.7-1.7s-0.7-1.7-1.7-1.7h-19.4c-1,0-1.7,0.7-1.7,1.7
		S250.5,1032.1,251.4,1032.1z"/>
	<path class="st0" d="M302.2,1050.6h19.4c1,0,1.7-0.7,1.7-1.7s-0.7-1.7-1.7-1.7h-19.4c-1,0-1.7,0.7-1.7,1.7
		C300.5,1049.8,301.3,1050.6,302.2,1050.6z"/>
	<path class="st0" d="M251.4,1050.6h19.4c1,0,1.7-0.7,1.7-1.7s-0.7-1.7-1.7-1.7h-19.4c-1,0-1.7,0.7-1.7,1.7
		C249.8,1049.8,250.5,1050.6,251.4,1050.6z"/>
	<path class="st0" d="M302.2,1069.1h19.4c1,0,1.7-0.7,1.7-1.7s-0.7-1.7-1.7-1.7h-19.4c-1,0-1.7,0.7-1.7,1.7
		S301.3,1069.1,302.2,1069.1z"/>
	<path class="st0" d="M251.4,1069.1h19.4c1,0,1.7-0.7,1.7-1.7s-0.7-1.7-1.7-1.7h-19.4c-1,0-1.7,0.7-1.7,1.7
		S250.5,1069.1,251.4,1069.1z"/>
	<path class="st0" d="M302.2,1087.7h19.4c1,0,1.7-0.7,1.7-1.7s-0.7-1.7-1.7-1.7h-19.4c-1,0-1.7,0.7-1.7,1.7
		S301.3,1087.7,302.2,1087.7z"/>
	<path class="st0" d="M251.4,1087.7h19.4c1,0,1.7-0.7,1.7-1.7s-0.7-1.7-1.7-1.7h-19.4c-1,0-1.7,0.7-1.7,1.7
		S250.5,1087.7,251.4,1087.7z"/>
	<path class="st0" d="M302.2,1106.2h19.4c1,0,1.7-0.7,1.7-1.7s-0.7-1.7-1.7-1.7h-19.4c-1,0-1.7,0.7-1.7,1.7
		S301.3,1106.2,302.2,1106.2z"/>
	<path class="st0" d="M251.4,1106.2h19.4c1,0,1.7-0.7,1.7-1.7s-0.7-1.7-1.7-1.7h-19.4c-1,0-1.7,0.7-1.7,1.7
		S250.5,1106.2,251.4,1106.2z"/>
	<path class="st0" d="M302.2,1124.6h19.4c1,0,1.7-0.7,1.7-1.7s-0.7-1.7-1.7-1.7h-19.4c-1,0-1.7,0.7-1.7,1.7
		S301.3,1124.6,302.2,1124.6z"/>
	<path class="st0" d="M251.4,1124.6h19.4c1,0,1.7-0.7,1.7-1.7s-0.7-1.7-1.7-1.7h-19.4c-1,0-1.7,0.7-1.7,1.7
		C249.8,1123.9,250.5,1124.6,251.4,1124.6z"/>
	<path class="st0" d="M302.2,1143.2h19.4c1,0,1.7-0.7,1.7-1.7s-0.7-1.7-1.7-1.7h-19.4c-1,0-1.7,0.7-1.7,1.7
		S301.3,1143.2,302.2,1143.2z"/>
	<path class="st0" d="M251.4,1143.2h19.4c1,0,1.7-0.7,1.7-1.7s-0.7-1.7-1.7-1.7h-19.4c-1,0-1.7,0.7-1.7,1.7
		S250.5,1143.2,251.4,1143.2z"/>
	<path class="st0" d="M302.2,1161.7h19.4c1,0,1.7-0.7,1.7-1.7s-0.7-1.7-1.7-1.7h-19.4c-1,0-1.7,0.7-1.7,1.7
		S301.3,1161.7,302.2,1161.7z"/>
	<path class="st0" d="M270.9,1158.3h-19.4c-1,0-1.7,0.7-1.7,1.7s0.7,1.7,1.7,1.7h19.4c1,0,1.7-0.7,1.7-1.7
		S271.8,1158.3,270.9,1158.3z"/>
	<path class="st0" d="M302.2,1180.2h19.4c1,0,1.7-0.7,1.7-1.7s-0.7-1.7-1.7-1.7h-19.4c-1,0-1.7,0.7-1.7,1.7
		C300.5,1179.4,301.3,1180.2,302.2,1180.2z"/>
	<path class="st0" d="M270.9,1176.9h-19.4c-1,0-1.7,0.7-1.7,1.7s0.7,1.7,1.7,1.7h19.4c1,0,1.7-0.7,1.7-1.7
		S271.8,1176.9,270.9,1176.9z"/>
	<path class="st0" d="M302.2,1198.7h19.4c1,0,1.7-0.7,1.7-1.7s-0.7-1.7-1.7-1.7h-19.4c-1,0-1.7,0.7-1.7,1.7
		S301.3,1198.7,302.2,1198.7z"/>
	<path class="st0" d="M270.9,1195.4h-19.4c-1,0-1.7,0.7-1.7,1.7s0.7,1.7,1.7,1.7h19.4c1,0,1.7-0.7,1.7-1.7
		S271.8,1195.4,270.9,1195.4z"/>
	<path class="st0" d="M302.2,1217.2h19.4c1,0,1.7-0.7,1.7-1.7s-0.7-1.7-1.7-1.7h-19.4c-1,0-1.7,0.7-1.7,1.7
		S301.3,1217.2,302.2,1217.2z"/>
	<path class="st0" d="M270.9,1213.9h-19.4c-1,0-1.7,0.7-1.7,1.7s0.7,1.7,1.7,1.7h19.4c1,0,1.7-0.7,1.7-1.7
		S271.8,1213.9,270.9,1213.9z"/>
	<path class="st0" d="M302.2,1235.8h19.4c1,0,1.7-0.7,1.7-1.7s-0.7-1.7-1.7-1.7h-19.4c-1,0-1.7,0.7-1.7,1.7
		C300.5,1235,301.3,1235.8,302.2,1235.8z"/>
	<path class="st0" d="M270.9,1232.4h-19.4c-1,0-1.7,0.7-1.7,1.7s0.7,1.7,1.7,1.7h19.4c1,0,1.7-0.7,1.7-1.7
		S271.8,1232.4,270.9,1232.4z"/>
	<path class="st0" d="M302.2,1254.2h19.4c1,0,1.7-0.7,1.7-1.7s-0.7-1.7-1.7-1.7h-19.4c-1,0-1.7,0.7-1.7,1.7
		S301.3,1254.2,302.2,1254.2z"/>
	<path class="st0" d="M270.9,1250.9h-19.4c-1,0-1.7,0.7-1.7,1.7s0.7,1.7,1.7,1.7h19.4c1,0,1.7-0.7,1.7-1.7
		C272.6,1251.7,271.8,1250.9,270.9,1250.9z"/>
	<path class="st0" d="M302.2,1272.8h19.4c1,0,1.7-0.7,1.7-1.7s-0.7-1.7-1.7-1.7h-19.4c-1,0-1.7,0.7-1.7,1.7
		S301.3,1272.8,302.2,1272.8z"/>
	<path class="st0" d="M270.9,1269.4h-19.4c-1,0-1.7,0.7-1.7,1.7s0.7,1.7,1.7,1.7h19.4c1,0,1.7-0.7,1.7-1.7
		S271.8,1269.4,270.9,1269.4z"/>
	<path class="st0" d="M302.2,1291.3h19.4c1,0,1.7-0.7,1.7-1.7s-0.7-1.7-1.7-1.7h-19.4c-1,0-1.7,0.7-1.7,1.7
		S301.3,1291.3,302.2,1291.3z"/>
	<path class="st0" d="M270.9,1287.9h-19.4c-1,0-1.7,0.7-1.7,1.7s0.7,1.7,1.7,1.7h19.4c1,0,1.7-0.7,1.7-1.7
		S271.8,1287.9,270.9,1287.9z"/>
	<path class="st0" d="M302.2,1309.8h19.4c1,0,1.7-0.7,1.7-1.7s-0.7-1.7-1.7-1.7h-19.4c-1,0-1.7,0.7-1.7,1.7
		C300.5,1309,301.3,1309.8,302.2,1309.8z"/>
	<path class="st0" d="M270.9,1306.5h-19.4c-1,0-1.7,0.7-1.7,1.7s0.7,1.7,1.7,1.7h19.4c1,0,1.7-0.7,1.7-1.7
		S271.8,1306.5,270.9,1306.5z"/>
	<path class="st0" d="M302.2,1328.3h19.4c1,0,1.7-0.7,1.7-1.7s-0.7-1.7-1.7-1.7h-19.4c-1,0-1.7,0.7-1.7,1.7
		S301.3,1328.3,302.2,1328.3z"/>
	<path class="st0" d="M270.9,1325h-19.4c-1,0-1.7,0.7-1.7,1.7s0.7,1.7,1.7,1.7h19.4c1,0,1.7-0.7,1.7-1.7S271.8,1325,270.9,1325z"/>
	<path class="st0" d="M302.2,1346.8h19.4c1,0,1.7-0.7,1.7-1.7s-0.7-1.7-1.7-1.7h-19.4c-1,0-1.7,0.7-1.7,1.7
		S301.3,1346.8,302.2,1346.8z"/>
	<path class="st0" d="M270.9,1343.4h-19.4c-1,0-1.7,0.7-1.7,1.7s0.7,1.7,1.7,1.7h19.4c1,0,1.7-0.7,1.7-1.7
		S271.8,1343.4,270.9,1343.4z"/>
	<path class="st0" d="M399.8,782.4c1,0,1.7-0.7,1.7-1.7v-86.2c0-1-0.7-1.7-1.7-1.7c-1,0-1.7,0.7-1.7,1.7v86.2
		C398.2,781.7,398.9,782.4,399.8,782.4z"/>
	<path class="st0" d="M413.8,706.4h16.8c1,0,1.7-0.7,1.7-1.7c0-1-0.7-1.7-1.7-1.7h-16.8c-1,0-1.7,0.7-1.7,1.7
		S412.9,706.4,413.8,706.4z"/>
	<path class="st0" d="M386.9,703.1h-16.8c-1,0-1.7,0.7-1.7,1.7c0,1,0.7,1.7,1.7,1.7h16.8c1,0,1.7-0.7,1.7-1.7
		C388.6,703.8,387.8,703.1,386.9,703.1z"/>
	<path class="st0" d="M413.3,722.4h16.8c1,0,1.7-0.7,1.7-1.7c0-1-0.7-1.7-1.7-1.7h-16.8c-1,0-1.7,0.7-1.7,1.7
		C411.7,721.7,412.4,722.4,413.3,722.4z"/>
	<path class="st0" d="M386.3,719.1h-16.8c-1,0-1.7,0.7-1.7,1.7c0,1,0.7,1.7,1.7,1.7h16.8c1,0,1.7-0.7,1.7-1.7
		C388,719.8,387.3,719.1,386.3,719.1z"/>
	<path class="st0" d="M412.8,738.4h16.8c1,0,1.7-0.7,1.7-1.7s-0.7-1.7-1.7-1.7h-16.8c-1,0-1.7,0.7-1.7,1.7S411.9,738.4,412.8,738.4z
		"/>
	<path class="st0" d="M385.8,735.1H369c-1,0-1.7,0.7-1.7,1.7s0.7,1.7,1.7,1.7h16.8c1,0,1.7-0.7,1.7-1.7S386.8,735.1,385.8,735.1z"/>
	<path class="st0" d="M412.3,754.4h16.8c1,0,1.7-0.7,1.7-1.7c0-1-0.7-1.7-1.7-1.7h-16.8c-1,0-1.7,0.7-1.7,1.7
		C410.6,753.7,411.4,754.4,412.3,754.4z"/>
	<path class="st0" d="M385.4,751.1h-16.8c-1,0-1.7,0.7-1.7,1.7c0,1,0.7,1.7,1.7,1.7h16.8c1,0,1.7-0.7,1.7-1.7
		C387,751.8,386.2,751.1,385.4,751.1z"/>
	<path class="st0" d="M411.8,770.4h16.8c1,0,1.7-0.7,1.7-1.7c0-1-0.7-1.7-1.7-1.7h-16.8c-1,0-1.7,0.7-1.7,1.7
		C410.1,769.7,410.9,770.4,411.8,770.4z"/>
	<path class="st0" d="M384.8,767.1H368c-1,0-1.7,0.7-1.7,1.7c0,1,0.7,1.7,1.7,1.7h16.8c1,0,1.7-0.7,1.7-1.7
		C386.5,767.8,385.8,767.1,384.8,767.1z"/>
	<path class="st0" d="M295.3,781.5c1,0,1.7-0.7,1.7-1.7v-86.2c0-1-0.7-1.7-1.7-1.7c-1,0-1.7,0.7-1.7,1.7v86.2
		C293.6,780.8,294.4,781.5,295.3,781.5z"/>
	<path class="st0" d="M326.1,705.6c1,0,1.7-0.7,1.7-1.7s-0.7-1.7-1.7-1.7h-16.8c-1,0-1.7,0.7-1.7,1.7s0.7,1.7,1.7,1.7H326.1z"/>
	<path class="st0" d="M282.3,705.6c1,0,1.7-0.7,1.7-1.7s-0.7-1.7-1.7-1.7h-16.8c-1,0-1.7,0.7-1.7,1.7s0.7,1.7,1.7,1.7H282.3z"/>
	<path class="st0" d="M307.1,719.9c0,1,0.7,1.7,1.7,1.7h16.8c1,0,1.7-0.7,1.7-1.7c0-1-0.7-1.7-1.7-1.7h-16.8
		C307.8,718.2,307.1,719,307.1,719.9z"/>
	<path class="st0" d="M263.4,719.9c0,1,0.7,1.7,1.7,1.7h16.8c1,0,1.7-0.7,1.7-1.7c0-1-0.7-1.7-1.7-1.7H265
		C264.1,718.2,263.4,719,263.4,719.9z"/>
	<path class="st0" d="M306.6,735.9c0,1,0.7,1.7,1.7,1.7H325c1,0,1.7-0.7,1.7-1.7s-0.7-1.7-1.7-1.7h-16.8
		C307.4,734.2,306.6,735,306.6,735.9z"/>
	<path class="st0" d="M262.9,735.9c0,1,0.7,1.7,1.7,1.7h16.8c1,0,1.7-0.7,1.7-1.7s-0.7-1.7-1.7-1.7h-16.8
		C263.6,734.2,262.9,735,262.9,735.9z"/>
	<path class="st0" d="M306.1,751.9c0,1,0.7,1.7,1.7,1.7h16.8c1,0,1.7-0.7,1.7-1.7c0-1-0.7-1.7-1.7-1.7h-16.8
		C306.8,750.2,306.1,751,306.1,751.9z"/>
	<path class="st0" d="M262.3,751.9c0,1,0.7,1.7,1.7,1.7h16.8c1,0,1.7-0.7,1.7-1.7c0-1-0.7-1.7-1.7-1.7H264
		C263.1,750.2,262.3,751,262.3,751.9z"/>
	<path class="st0" d="M305.6,767.9c0,1,0.7,1.7,1.7,1.7h16.8c1,0,1.7-0.7,1.7-1.7s-0.7-1.7-1.7-1.7h-16.8
		C306.3,766.2,305.6,767,305.6,767.9z"/>
	<path class="st0" d="M261.8,767.9c0,1,0.7,1.7,1.7,1.7h16.8c1,0,1.7-0.7,1.7-1.7s-0.7-1.7-1.7-1.7h-16.8
		C262.6,766.2,261.8,767,261.8,767.9z"/>
	<path class="st0" d="M394.9,668.4c1,0,1.7-0.7,1.7-1.7v-70.3c0-1-0.7-1.7-1.7-1.7s-1.7,0.7-1.7,1.7v70.3
		C393.2,667.7,393.9,668.4,394.9,668.4z"/>
	<path class="st0" d="M406.3,606.4H420c1,0,1.7-0.7,1.7-1.7S421,603,420,603h-13.7c-1,0-1.7,0.7-1.7,1.7S405.4,606.4,406.3,606.4z"
		/>
	<path class="st0" d="M370.6,606.4h13.7c1,0,1.7-0.7,1.7-1.7s-0.7-1.7-1.7-1.7h-13.7c-1,0-1.7,0.7-1.7,1.7S369.7,606.4,370.6,606.4z
		"/>
	<path class="st0" d="M405.8,619.4h13.7c1,0,1.7-0.7,1.7-1.7c0-1-0.7-1.7-1.7-1.7h-13.7c-1,0-1.7,0.7-1.7,1.7
		C404.2,618.7,405,619.4,405.8,619.4z"/>
	<path class="st0" d="M370.2,619.4h13.7c1,0,1.7-0.7,1.7-1.7c0-1-0.7-1.7-1.7-1.7h-13.7c-1,0-1.7,0.7-1.7,1.7
		C368.5,618.7,369.3,619.4,370.2,619.4z"/>
	<path class="st0" d="M405.4,632.6h13.7c1,0,1.7-0.7,1.7-1.7s-0.7-1.7-1.7-1.7h-13.7c-1,0-1.7,0.7-1.7,1.7
		C403.8,631.8,404.6,632.6,405.4,632.6z"/>
	<path class="st0" d="M369.8,632.6h13.7c1,0,1.7-0.7,1.7-1.7s-0.7-1.7-1.7-1.7h-13.7c-1,0-1.7,0.7-1.7,1.7
		C368.1,631.8,368.9,632.6,369.8,632.6z"/>
	<path class="st0" d="M405,645.6h13.7c1,0,1.7-0.7,1.7-1.7s-0.7-1.7-1.7-1.7H405c-1,0-1.7,0.7-1.7,1.7S404.2,645.6,405,645.6z"/>
	<path class="st0" d="M369.4,645.6H383c1,0,1.7-0.7,1.7-1.7s-0.7-1.7-1.7-1.7h-13.7c-1,0-1.7,0.7-1.7,1.7S368.4,645.6,369.4,645.6z"
		/>
	<path class="st0" d="M404.6,658.6h13.7c1,0,1.7-0.7,1.7-1.7s-0.7-1.7-1.7-1.7h-13.7c-1,0-1.7,0.7-1.7,1.7S403.7,658.6,404.6,658.6z
		"/>
	<path class="st0" d="M369,658.6h13.7c1,0,1.7-0.7,1.7-1.7s-0.7-1.7-1.7-1.7H369c-1,0-1.7,0.7-1.7,1.7S368,658.6,369,658.6z"/>
	<path class="st0" d="M298.6,594c-1,0-1.7,0.7-1.7,1.7V666c0,1,0.7,1.7,1.7,1.7c1,0,1.7-0.7,1.7-1.7v-70.3
		C300.2,594.7,299.5,594,298.6,594z"/>
	<path class="st0" d="M323.7,602.4H310c-1,0-1.7,0.7-1.7,1.7c0,1,0.7,1.7,1.7,1.7h13.7c1,0,1.7-0.7,1.7-1.7S324.6,602.4,323.7,602.4
		z"/>
	<path class="st0" d="M288,602.4h-13.7c-1,0-1.7,0.7-1.7,1.7c0,1,0.7,1.7,1.7,1.7H288c1,0,1.7-0.7,1.7-1.7S289,602.4,288,602.4z"/>
	<path class="st0" d="M323.3,615.4h-13.7c-1,0-1.7,0.7-1.7,1.7s0.7,1.7,1.7,1.7h13.7c1,0,1.7-0.7,1.7-1.7S324.2,615.4,323.3,615.4z"
		/>
	<path class="st0" d="M287.6,615.4h-13.7c-1,0-1.7,0.7-1.7,1.7s0.7,1.7,1.7,1.7h13.7c1,0,1.7-0.7,1.7-1.7S288.6,615.4,287.6,615.4z"
		/>
	<path class="st0" d="M322.9,628.5h-13.7c-1,0-1.7,0.7-1.7,1.7s0.7,1.7,1.7,1.7h13.7c1,0,1.7-0.7,1.7-1.7S323.8,628.5,322.9,628.5z"
		/>
	<path class="st0" d="M287.2,628.5h-13.7c-1,0-1.7,0.7-1.7,1.7s0.7,1.7,1.7,1.7h13.7c1,0,1.7-0.7,1.7-1.7S288.1,628.5,287.2,628.5z"
		/>
	<path class="st0" d="M322.5,641.5h-13.7c-1,0-1.7,0.7-1.7,1.7c0,1,0.7,1.7,1.7,1.7h13.7c1,0,1.7-0.7,1.7-1.7
		C324.2,642.3,323.4,641.5,322.5,641.5z"/>
	<path class="st0" d="M286.8,641.5h-13.7c-1,0-1.7,0.7-1.7,1.7c0,1,0.7,1.7,1.7,1.7h13.7c1,0,1.7-0.7,1.7-1.7
		C288.5,642.3,287.7,641.5,286.8,641.5z"/>
	<path class="st0" d="M322.1,654.6h-13.7c-1,0-1.7,0.7-1.7,1.7c0,1,0.7,1.7,1.7,1.7h13.7c1,0,1.7-0.7,1.7-1.7
		C323.8,655.4,323,654.6,322.1,654.6z"/>
	<path class="st0" d="M286.4,654.6h-13.7c-1,0-1.7,0.7-1.7,1.7c0,1,0.7,1.7,1.7,1.7h13.7c1,0,1.7-0.7,1.7-1.7
		C288,655.4,287.3,654.6,286.4,654.6z"/>
	<path class="st0" d="M413.8,536.1h-45.8c-1,0-1.7,0.7-1.7,1.7c0,1,0.7,1.7,1.7,1.7h45.8c1,0,1.7-0.7,1.7-1.7
		C415.5,536.8,414.7,536.1,413.8,536.1z"/>
	<path class="st0" d="M413.8,550.9h-45.8c-1,0-1.7,0.7-1.7,1.7c0,1,0.7,1.7,1.7,1.7h45.8c1,0,1.7-0.7,1.7-1.7
		C415.5,551.7,414.7,550.9,413.8,550.9z"/>
	<path class="st0" d="M413.8,565.8h-45.8c-1,0-1.7,0.7-1.7,1.7s0.7,1.7,1.7,1.7h45.8c1,0,1.7-0.7,1.7-1.7S414.7,565.8,413.8,565.8z"
		/>
	<path class="st0" d="M326.1,536h-45.8c-1,0-1.7,0.7-1.7,1.7c0,1,0.7,1.7,1.7,1.7h45.8c1,0,1.7-0.7,1.7-1.7S327,536,326.1,536z"/>
	<path class="st0" d="M326.1,550.8h-45.8c-1,0-1.7,0.7-1.7,1.7s0.7,1.7,1.7,1.7h45.8c1,0,1.7-0.7,1.7-1.7S327,550.8,326.1,550.8z"/>
	<path class="st0" d="M326.1,565.7h-45.8c-1,0-1.7,0.7-1.7,1.7s0.7,1.7,1.7,1.7h45.8c1,0,1.7-0.7,1.7-1.7
		C327.8,566.5,327,565.7,326.1,565.7z"/>
	<path class="st0" d="M298.6,496.7h96.2c1,0,1.7-0.7,1.7-1.7s-0.7-1.7-1.7-1.7h-96.2c-1,0-1.7,0.7-1.7,1.7S297.7,496.7,298.6,496.7z
		"/>
	<path class="st0" d="M403.8,506.8H289.7c-1,0-1.7,0.7-1.7,1.7c0,1,0.7,1.7,1.7,1.7h114.1c1,0,1.7-0.7,1.7-1.7
		S404.7,506.8,403.8,506.8z"/>
	<path class="st0" d="M323,455.1h47.4c1,0,1.7-0.7,1.7-1.7c0-1-0.7-1.7-1.7-1.7H323c-1,0-1.7,0.7-1.7,1.7
		C321.4,454.4,322.2,455.1,323,455.1z"/>
	<path class="st0" d="M377.4,465.1H316c-1,0-1.7,0.7-1.7,1.7c0,1,0.7,1.7,1.7,1.7h61.4c1,0,1.7-0.7,1.7-1.7
		C379.1,465.9,378.4,465.1,377.4,465.1z"/>
	<path class="st0" d="M859.4,1191.3c-0.9-0.2-1.8,0.3-2,1.2l-2.4,9.5c-0.2,0.9,0.3,1.8,1.2,2c0.2,0,0.2,0.1,0.4,0.1
		c0.7,0,1.4-0.5,1.6-1.3l2.4-9.5C860.8,1192.4,860.2,1191.5,859.4,1191.3z"/>
	<path class="st0" d="M928.6,911.5h-9c-1,0-1.7,0.7-1.7,1.7s0.7,1.7,1.7,1.7h9c1,0,1.7-0.7,1.7-1.7S929.6,911.5,928.6,911.5z"/>
	<path class="st0" d="M983.8,677.4h-10.2c-1,0-1.7,0.7-1.7,1.7s0.7,1.7,1.7,1.7h10.2c1,0,1.7-0.7,1.7-1.7S984.7,677.4,983.8,677.4z"
		/>
	<path class="st0" d="M870.1,501.3c-0.9,0.3-1.3,1.3-1,2.2l2.7,7.2c0.2,0.6,0.9,1,1.6,1c0.2,0,0.4,0,0.6-0.1c0.9-0.3,1.3-1.3,1-2.2
		l-2.7-7.2C871.9,501.4,871,501,870.1,501.3z"/>
	<path class="st0" d="M935.7,311.6c1,0,1.7-0.7,1.7-1.7v-10.1c0-1-0.7-1.7-1.7-1.7s-1.7,0.7-1.7,1.7v10.1
		C934,310.9,934.8,311.6,935.7,311.6z"/>
	<path class="st0" d="M914.2,1169.2c1,0,1.7-0.7,1.7-1.7s-0.7-1.7-1.7-1.7H885c-1,0-1.7,0.7-1.7,1.7s0.7,1.7,1.7,1.7H914.2z"/>
	<path class="st0" d="M879.1,1187.1c0,1,0.7,1.7,1.7,1.7h29.1c1,0,1.7-0.7,1.7-1.7s-0.7-1.7-1.7-1.7h-29.1
		C879.8,1185.4,879.1,1186.2,879.1,1187.1z"/>
	<path class="st0" d="M874.8,1206.6c0,1,0.7,1.7,1.7,1.7h29.1c1,0,1.7-0.7,1.7-1.7s-0.7-1.7-1.7-1.7h-29.1
		C875.5,1205,874.8,1205.8,874.8,1206.6z"/>
	<path class="st0" d="M870.5,1226.2c0,1,0.7,1.7,1.7,1.7h29.1c1,0,1.7-0.7,1.7-1.7s-0.7-1.7-1.7-1.7h-29.1
		C871.2,1224.6,870.5,1225.3,870.5,1226.2z"/>
	<path class="st0" d="M866.2,1245.8c0,1,0.7,1.7,1.7,1.7H897c1,0,1.7-0.7,1.7-1.7s-0.7-1.7-1.7-1.7h-29.1
		C866.9,1244.1,866.2,1244.8,866.2,1245.8z"/>
	<path class="st0" d="M861.8,1265.3c0,1,0.7,1.7,1.7,1.7h29.1c1,0,1.7-0.7,1.7-1.7s-0.7-1.7-1.7-1.7h-29.1
		C862.6,1263.7,861.8,1264.4,861.8,1265.3z"/>
	<path class="st0" d="M857.5,1284.9c0,1,0.7,1.7,1.7,1.7h29.1c1,0,1.7-0.7,1.7-1.7s-0.7-1.7-1.7-1.7h-29.1
		C858.2,1283.2,857.5,1283.9,857.5,1284.9z"/>
	<path class="st0" d="M885.6,1304.4c0-1-0.7-1.7-1.7-1.7h-29.1c-1,0-1.7,0.7-1.7,1.7s0.7,1.7,1.7,1.7h29.1
		C884.9,1306.1,885.6,1305.4,885.6,1304.4z"/>
	<path class="st0" d="M881.3,1324c0-1-0.7-1.7-1.7-1.7h-29.1c-1,0-1.7,0.7-1.7,1.7s0.7,1.7,1.7,1.7h29.1
		C880.6,1325.7,881.3,1324.9,881.3,1324z"/>
	<path class="st0" d="M877,1343.5c0-1-0.7-1.7-1.7-1.7h-29.1c-1,0-1.7,0.7-1.7,1.7s0.7,1.7,1.7,1.7h29.1
		C876.2,1345.2,877,1344.5,877,1343.5z"/>
	<path class="st0" d="M872.6,1363.1c0-1-0.7-1.7-1.7-1.7h-29.1c-1,0-1.7,0.7-1.7,1.7s0.7,1.7,1.7,1.7H871
		C871.9,1364.7,872.6,1364,872.6,1363.1z"/>
	<path class="st0" d="M837.5,1381c-1,0-1.7,0.7-1.7,1.7s0.7,1.7,1.7,1.7h29.1c1,0,1.7-0.7,1.7-1.7s-0.7-1.7-1.7-1.7H837.5z"/>
	<path class="st0" d="M1035,1168c0-1-0.7-1.7-1.7-1.7h-29.1c-1,0-1.7,0.7-1.7,1.7s0.7,1.7,1.7,1.7h29.1
		C1034.2,1169.7,1035,1169,1035,1168z"/>
	<path class="st0" d="M1039.4,1187.6c0-1-0.7-1.7-1.7-1.7h-29.1c-1,0-1.7,0.7-1.7,1.7s0.7,1.7,1.7,1.7h29.1
		C1038.6,1189.2,1039.4,1188.5,1039.4,1187.6z"/>
	<path class="st0" d="M1043.7,1207.1c0-1-0.7-1.7-1.7-1.7h-29.1c-1,0-1.7,0.7-1.7,1.7s0.7,1.7,1.7,1.7h29.1
		C1042.9,1208.8,1043.7,1208.1,1043.7,1207.1z"/>
	<path class="st0" d="M1015.5,1226.6c0,1,0.7,1.7,1.7,1.7h29.1c1,0,1.7-0.7,1.7-1.7s-0.7-1.7-1.7-1.7h-29.1
		C1016.2,1225,1015.5,1225.8,1015.5,1226.6z"/>
	<path class="st0" d="M1019.8,1246.2c0,1,0.7,1.7,1.7,1.7h29.1c1,0,1.7-0.7,1.7-1.7s-0.7-1.7-1.7-1.7h-29.1
		C1020.6,1244.6,1019.8,1245.3,1019.8,1246.2z"/>
	<path class="st0" d="M1024.2,1265.8c0,1,0.7,1.7,1.7,1.7h29.1c1,0,1.7-0.7,1.7-1.7s-0.7-1.7-1.7-1.7h-29.1
		C1024.9,1264.1,1024.2,1264.9,1024.2,1265.8z"/>
	<path class="st0" d="M1028.5,1285.4c0,1,0.7,1.7,1.7,1.7h29.1c1,0,1.7-0.7,1.7-1.7s-0.7-1.7-1.7-1.7h-29.1
		C1029.2,1283.7,1028.5,1284.4,1028.5,1285.4z"/>
	<path class="st0" d="M1032.8,1304.9c0,1,0.7,1.7,1.7,1.7h29.1c1,0,1.7-0.7,1.7-1.7s-0.7-1.7-1.7-1.7h-29.1
		C1033.5,1303.2,1032.8,1304,1032.8,1304.9z"/>
	<path class="st0" d="M945.3,1169.2h20.6c1,0,1.7-0.7,1.7-1.7s-0.7-1.7-1.7-1.7h-20.6c-1,0-1.7,0.7-1.7,1.7
		S944.3,1169.2,945.3,1169.2z"/>
	<path class="st0" d="M943.6,1188.8h25c1,0,1.7-0.7,1.7-1.7s-0.7-1.7-1.7-1.7h-25c-1,0-1.7,0.7-1.7,1.7S942.7,1188.8,943.6,1188.8z"
		/>
	<path class="st0" d="M941.1,1208.3H972c1,0,1.7-0.7,1.7-1.7s-0.7-1.7-1.7-1.7h-30.9c-1,0-1.7,0.7-1.7,1.7
		C939.5,1207.6,940.2,1208.3,941.1,1208.3z"/>
	<path class="st0" d="M937.6,1227.9h37.8c1,0,1.7-0.7,1.7-1.7s-0.7-1.7-1.7-1.7h-37.8c-1,0-1.7,0.7-1.7,1.7
		C935.9,1227.1,936.7,1227.9,937.6,1227.9z"/>
	<path class="st0" d="M933.8,1245.8c0,1,0.7,1.7,1.7,1.7h43.8c1,0,1.7-0.7,1.7-1.7s-0.7-1.7-1.7-1.7h-43.8
		C934.6,1244.1,933.8,1244.8,933.8,1245.8z"/>
	<path class="st0" d="M930.7,1265.3c0,1,0.7,1.7,1.7,1.7h49.7c1,0,1.7-0.7,1.7-1.7s-0.7-1.7-1.7-1.7h-49.7
		C931.4,1263.7,930.7,1264.4,930.7,1265.3z"/>
	<path class="st0" d="M927.3,1284.9c0,1,0.7,1.7,1.7,1.7h55.2c1,0,1.7-0.7,1.7-1.7s-0.7-1.7-1.7-1.7H929
		C928,1283.2,927.3,1283.9,927.3,1284.9z"/>
	<path class="st0" d="M924.6,1304.4c0,1,0.7,1.7,1.7,1.7h62c1,0,1.7-0.7,1.7-1.7s-0.7-1.7-1.7-1.7h-62
		C925.4,1302.7,924.6,1303.5,924.6,1304.4z"/>
	<path class="st0" d="M922.2,1324c0,1,0.7,1.7,1.7,1.7h68.6c1,0,1.7-0.7,1.7-1.7s-0.7-1.7-1.7-1.7h-68.6
		C922.9,1322.3,922.2,1323,922.2,1324z"/>
	<path class="st0" d="M918.2,1343.5c0,1,0.7,1.7,1.7,1.7h74.8c1,0,1.7-0.7,1.7-1.7s-0.7-1.7-1.7-1.7h-74.8
		C919,1341.8,918.2,1342.6,918.2,1343.5z"/>
	<path class="st0" d="M914.7,1363.1c0,1,0.7,1.7,1.7,1.7h81.8c1,0,1.7-0.7,1.7-1.7s-0.7-1.7-1.7-1.7h-81.8
		C915.5,1361.4,914.7,1362.2,914.7,1363.1z"/>
	<path class="st0" d="M911.2,1382.6c0,1,0.7,1.7,1.7,1.7h89c1,0,1.7-0.7,1.7-1.7s-0.7-1.7-1.7-1.7h-89
		C911.9,1381,911.2,1381.7,911.2,1382.6z"/>
	<path class="st0" d="M918.2,428.3h81.7c1,0,1.7-0.7,1.7-1.7c0-1-0.7-1.7-1.7-1.7h-81.7c-1,0-1.7,0.7-1.7,1.7
		C916.6,427.5,917.4,428.3,918.2,428.3z"/>
	<path class="st0" d="M166.2,1098.7c-0.9,0.2-1.5,1-1.4,1.9l1.8,12.6c0.2,0.8,0.8,1.4,1.7,1.4c0.1,0,0.2,0,0.2,0
		c0.9-0.2,1.5-1,1.4-1.9l-1.8-12.6C168,1099.3,167.1,1098.6,166.2,1098.7z"/>
	<path class="st0" d="M139.8,855.4c-1,0-1.7,0.7-1.7,1.7v10c0,1,0.7,1.7,1.7,1.7s1.7-0.7,1.7-1.7v-10
		C141.4,856.2,140.6,855.4,139.8,855.4z"/>
	<path class="st0" d="M480.8,1126.7c-1,0-1.7,0.7-1.7,1.7v7.3c0,1,0.7,1.7,1.7,1.7c1,0,1.7-0.7,1.7-1.7v-7.3
		C482.4,1127.4,481.7,1126.7,480.8,1126.7z"/>
	<path class="st0" d="M145.4,915.8h-22.2c-1,0-1.7,0.7-1.7,1.7s0.7,1.7,1.7,1.7h22.2c1,0,1.7-0.7,1.7-1.7S146.3,915.8,145.4,915.8z"
		/>
	<path class="st0" d="M119.6,954.2h30c1,0,1.7-0.7,1.7-1.7s-0.7-1.7-1.7-1.7h-30c-1,0-1.7,0.7-1.7,1.7
		C117.9,953.4,118.6,954.2,119.6,954.2z"/>
	<path class="st0" d="M155.2,960.4H114c-1,0-1.7,0.7-1.7,1.7s0.7,1.7,1.7,1.7h41.2c1,0,1.7-0.7,1.7-1.7S156.1,960.4,155.2,960.4z"/>
	<path class="st0" d="M149.6,1005h-30c-1,0-1.7,0.7-1.7,1.7s0.7,1.7,1.7,1.7h30c1,0,1.7-0.7,1.7-1.7
		C151.3,1005.8,150.6,1005,149.6,1005z"/>
	<path class="st0" d="M156.9,997c0-1-0.7-1.7-1.7-1.7H114c-1,0-1.7,0.7-1.7,1.7s0.7,1.7,1.7,1.7h41.2
		C156.1,998.7,156.9,998,156.9,997z"/>
	<path class="st0" d="M574.4,986.6c1,0,1.7-0.7,1.7-1.7s-0.7-1.7-1.7-1.7h-87.8c-1,0-1.7,0.7-1.7,1.7s0.7,1.7,1.7,1.7H574.4z"/>
	<path class="st0" d="M501.9,1128.2h99.8c1,0,1.7-0.7,1.7-1.7s-0.7-1.7-1.7-1.7h-99.8c-1,0-1.7,0.7-1.7,1.7S501,1128.2,501.9,1128.2
		z"/>
	<path class="st0" d="M501.9,1146.8h99.8c1,0,1.7-0.7,1.7-1.7s-0.7-1.7-1.7-1.7h-99.8c-1,0-1.7,0.7-1.7,1.7S501,1146.8,501.9,1146.8
		z"/>
	<path class="st0" d="M501.9,1165.3h99.8c1,0,1.7-0.7,1.7-1.7s-0.7-1.7-1.7-1.7h-99.8c-1,0-1.7,0.7-1.7,1.7
		C500.2,1164.6,501,1165.3,501.9,1165.3z"/>
	<path class="st0" d="M501.9,1183.8h99.8c1,0,1.7-0.7,1.7-1.7s-0.7-1.7-1.7-1.7h-99.8c-1,0-1.7,0.7-1.7,1.7S501,1183.8,501.9,1183.8
		z"/>
	<path class="st0" d="M501.9,1202.3h99.8c1,0,1.7-0.7,1.7-1.7s-0.7-1.7-1.7-1.7h-99.8c-1,0-1.7,0.7-1.7,1.7S501,1202.3,501.9,1202.3
		z"/>
	<path class="st0" d="M501.9,1220.8h99.8c1,0,1.7-0.7,1.7-1.7s-0.7-1.7-1.7-1.7h-99.8c-1,0-1.7,0.7-1.7,1.7
		C500.2,1220.1,501,1220.8,501.9,1220.8z"/>
	<path class="st0" d="M501.9,1239.4h99.8c1,0,1.7-0.7,1.7-1.7s-0.7-1.7-1.7-1.7h-99.8c-1,0-1.7,0.7-1.7,1.7S501,1239.4,501.9,1239.4
		z"/>
	<path class="st0" d="M501.9,1257.8h99.8c1,0,1.7-0.7,1.7-1.7s-0.7-1.7-1.7-1.7h-99.8c-1,0-1.7,0.7-1.7,1.7S501,1257.8,501.9,1257.8
		z"/>
	<path class="st0" d="M501.9,1276.4h99.8c1,0,1.7-0.7,1.7-1.7s-0.7-1.7-1.7-1.7h-99.8c-1,0-1.7,0.7-1.7,1.7
		C500.2,1275.6,501,1276.4,501.9,1276.4z"/>
	<path class="st0" d="M501.9,1294.9h99.8c1,0,1.7-0.7,1.7-1.7s-0.7-1.7-1.7-1.7h-99.8c-1,0-1.7,0.7-1.7,1.7
		C500.2,1294.2,501,1294.9,501.9,1294.9z"/>
	<path class="st0" d="M501.9,1313.4h99.8c1,0,1.7-0.7,1.7-1.7s-0.7-1.7-1.7-1.7h-99.8c-1,0-1.7,0.7-1.7,1.7S501,1313.4,501.9,1313.4
		z"/>
	<path class="st0" d="M501.9,1331.9h99.8c1,0,1.7-0.7,1.7-1.7s-0.7-1.7-1.7-1.7h-99.8c-1,0-1.7,0.7-1.7,1.7S501,1331.9,501.9,1331.9
		z"/>
	<path class="st0" d="M501.9,1350.4h99.8c1,0,1.7-0.7,1.7-1.7s-0.7-1.7-1.7-1.7h-99.8c-1,0-1.7,0.7-1.7,1.7
		C500.2,1349.7,501,1350.4,501.9,1350.4z"/>
	<path class="st0" d="M501.9,1369h99.8c1,0,1.7-0.7,1.7-1.7s-0.7-1.7-1.7-1.7h-99.8c-1,0-1.7,0.7-1.7,1.7S501,1369,501.9,1369z"/>
	<path class="st0" d="M501.9,1387.4h99.8c1,0,1.7-0.7,1.7-1.7s-0.7-1.7-1.7-1.7h-99.8c-1,0-1.7,0.7-1.7,1.7S501,1387.4,501.9,1387.4
		z"/>
	<path class="st0" d="M515.4,1088.6h73c1,0,1.7-0.7,1.7-1.7s-0.7-1.7-1.7-1.7h-73c-1,0-1.7,0.7-1.7,1.7S514.5,1088.6,515.4,1088.6z"
		/>
	<path class="st0" d="M1089.4,1059h29.8c1,0,1.7-0.7,1.7-1.7s-0.7-1.7-1.7-1.7h-29.8c-1,0-1.7,0.7-1.7,1.7S1088.4,1059,1089.4,1059z
		"/>
	<path class="st0" d="M1089.4,1080.4h29.8c1,0,1.7-0.7,1.7-1.7s-0.7-1.7-1.7-1.7h-29.8c-1,0-1.7,0.7-1.7,1.7
		S1088.4,1080.4,1089.4,1080.4z"/>
	<path class="st0" d="M1089.4,1101.8h29.8c1,0,1.7-0.7,1.7-1.7s-0.7-1.7-1.7-1.7h-29.8c-1,0-1.7,0.7-1.7,1.7
		S1088.4,1101.8,1089.4,1101.8z"/>
	<path class="st0" d="M1089.4,1123.3h29.8c1,0,1.7-0.7,1.7-1.7s-0.7-1.7-1.7-1.7h-29.8c-1,0-1.7,0.7-1.7,1.7
		S1088.4,1123.3,1089.4,1123.3z"/>
	<path class="st0" d="M1089.4,1144.7h29.8c1,0,1.7-0.7,1.7-1.7s-0.7-1.7-1.7-1.7h-29.8c-1,0-1.7,0.7-1.7,1.7
		S1088.4,1144.7,1089.4,1144.7z"/>
	<path class="st0" d="M1089.4,1166.2h29.8c1,0,1.7-0.7,1.7-1.7s-0.7-1.7-1.7-1.7h-29.8c-1,0-1.7,0.7-1.7,1.7
		S1088.4,1166.2,1089.4,1166.2z"/>
	<path class="st0" d="M1089.4,1187.7h29.8c1,0,1.7-0.7,1.7-1.7s-0.7-1.7-1.7-1.7h-29.8c-1,0-1.7,0.7-1.7,1.7
		S1088.4,1187.7,1089.4,1187.7z"/>
	<path class="st0" d="M1089.4,1209.1h29.8c1,0,1.7-0.7,1.7-1.7s-0.7-1.7-1.7-1.7h-29.8c-1,0-1.7,0.7-1.7,1.7
		S1088.4,1209.1,1089.4,1209.1z"/>
	<path class="st0" d="M1089.4,1230.6h29.8c1,0,1.7-0.7,1.7-1.7s-0.7-1.7-1.7-1.7h-29.8c-1,0-1.7,0.7-1.7,1.7
		S1088.4,1230.6,1089.4,1230.6z"/>
	<path class="st0" d="M1089.4,1252h29.8c1,0,1.7-0.7,1.7-1.7s-0.7-1.7-1.7-1.7h-29.8c-1,0-1.7,0.7-1.7,1.7S1088.4,1252,1089.4,1252z
		"/>
	<path class="st0" d="M1089.4,1273.4h29.8c1,0,1.7-0.7,1.7-1.7s-0.7-1.7-1.7-1.7h-29.8c-1,0-1.7,0.7-1.7,1.7
		S1088.4,1273.4,1089.4,1273.4z"/>
	<path class="st0" d="M1089.4,1294.9h29.8c1,0,1.7-0.7,1.7-1.7s-0.7-1.7-1.7-1.7h-29.8c-1,0-1.7,0.7-1.7,1.7
		S1088.4,1294.9,1089.4,1294.9z"/>
	<path class="st0" d="M1089.4,1316.3h29.8c1,0,1.7-0.7,1.7-1.7s-0.7-1.7-1.7-1.7h-29.8c-1,0-1.7,0.7-1.7,1.7
		S1088.4,1316.3,1089.4,1316.3z"/>
	<path class="st0" d="M1089.4,1337.8h29.8c1,0,1.7-0.7,1.7-1.7s-0.7-1.7-1.7-1.7h-29.8c-1,0-1.7,0.7-1.7,1.7
		C1087.7,1337,1088.4,1337.8,1089.4,1337.8z"/>
	<path class="st0" d="M1089.4,1359.2h29.8c1,0,1.7-0.7,1.7-1.7s-0.7-1.7-1.7-1.7h-29.8c-1,0-1.7,0.7-1.7,1.7
		S1088.4,1359.2,1089.4,1359.2z"/>
	<path class="st0" d="M1089.4,1380.7h29.8c1,0,1.7-0.7,1.7-1.7s-0.7-1.7-1.7-1.7h-29.8c-1,0-1.7,0.7-1.7,1.7
		C1087.7,1379.9,1088.4,1380.7,1089.4,1380.7z"/>
	<path class="st0" d="M1156.4,566.6h29.8c1,0,1.7-0.7,1.7-1.7c0-1-0.7-1.7-1.7-1.7h-29.8c-1,0-1.7,0.7-1.7,1.7
		C1154.7,565.8,1155.5,566.6,1156.4,566.6z"/>
	<path class="st0" d="M1156.4,588.1h29.8c1,0,1.7-0.7,1.7-1.7c0-1-0.7-1.7-1.7-1.7h-29.8c-1,0-1.7,0.7-1.7,1.7
		S1155.5,588.1,1156.4,588.1z"/>
	<path class="st0" d="M1156.4,609.5h29.8c1,0,1.7-0.7,1.7-1.7c0-1-0.7-1.7-1.7-1.7h-29.8c-1,0-1.7,0.7-1.7,1.7
		S1155.5,609.5,1156.4,609.5z"/>
	<path class="st0" d="M1156.4,631h29.8c1,0,1.7-0.7,1.7-1.7s-0.7-1.7-1.7-1.7h-29.8c-1,0-1.7,0.7-1.7,1.7S1155.5,631,1156.4,631z"/>
	<path class="st0" d="M1156.4,652.4h29.8c1,0,1.7-0.7,1.7-1.7s-0.7-1.7-1.7-1.7h-29.8c-1,0-1.7,0.7-1.7,1.7
		S1155.5,652.4,1156.4,652.4z"/>
	<path class="st0" d="M1156.4,673.8h29.8c1,0,1.7-0.7,1.7-1.7s-0.7-1.7-1.7-1.7h-29.8c-1,0-1.7,0.7-1.7,1.7
		S1155.5,673.8,1156.4,673.8z"/>
	<path class="st0" d="M1156.4,695.3h29.8c1,0,1.7-0.7,1.7-1.7s-0.7-1.7-1.7-1.7h-29.8c-1,0-1.7,0.7-1.7,1.7
		S1155.5,695.3,1156.4,695.3z"/>
	<path class="st0" d="M1156.4,716.8h29.8c1,0,1.7-0.7,1.7-1.7s-0.7-1.7-1.7-1.7h-29.8c-1,0-1.7,0.7-1.7,1.7
		C1154.7,716,1155.5,716.8,1156.4,716.8z"/>
	<path class="st0" d="M1156.4,738.2h29.8c1,0,1.7-0.7,1.7-1.7c0-1-0.7-1.7-1.7-1.7h-29.8c-1,0-1.7,0.7-1.7,1.7
		C1154.7,737.4,1155.5,738.2,1156.4,738.2z"/>
	<path class="st0" d="M1156.4,759.7h29.8c1,0,1.7-0.7,1.7-1.7c0-1-0.7-1.7-1.7-1.7h-29.8c-1,0-1.7,0.7-1.7,1.7
		C1154.7,758.9,1155.5,759.7,1156.4,759.7z"/>
	<path class="st0" d="M1123.7,802.2h29.8c1,0,1.7-0.7,1.7-1.7c0-1-0.7-1.7-1.7-1.7h-29.8c-1,0-1.7,0.7-1.7,1.7
		S1122.7,802.2,1123.7,802.2z"/>
	<path class="st0" d="M1123.7,823.6h29.8c1,0,1.7-0.7,1.7-1.7s-0.7-1.7-1.7-1.7h-29.8c-1,0-1.7,0.7-1.7,1.7
		S1122.7,823.6,1123.7,823.6z"/>
	<path class="st0" d="M1123.7,845h29.8c1,0,1.7-0.7,1.7-1.7s-0.7-1.7-1.7-1.7h-29.8c-1,0-1.7,0.7-1.7,1.7S1122.7,845,1123.7,845z"/>
	<path class="st0" d="M1123.7,866.5h29.8c1,0,1.7-0.7,1.7-1.7s-0.7-1.7-1.7-1.7h-29.8c-1,0-1.7,0.7-1.7,1.7
		S1122.7,866.5,1123.7,866.5z"/>
	<path class="st0" d="M1123.7,887.9h29.8c1,0,1.7-0.7,1.7-1.7s-0.7-1.7-1.7-1.7h-29.8c-1,0-1.7,0.7-1.7,1.7
		S1122.7,887.9,1123.7,887.9z"/>
	<path class="st0" d="M1123.7,909.4h29.8c1,0,1.7-0.7,1.7-1.7s-0.7-1.7-1.7-1.7h-29.8c-1,0-1.7,0.7-1.7,1.7
		S1122.7,909.4,1123.7,909.4z"/>
	<path class="st0" d="M1123.7,930.9h29.8c1,0,1.7-0.7,1.7-1.7s-0.7-1.7-1.7-1.7h-29.8c-1,0-1.7,0.7-1.7,1.7
		C1122,930.1,1122.7,930.9,1123.7,930.9z"/>
	<path class="st0" d="M1123.7,952.3h29.8c1,0,1.7-0.7,1.7-1.7s-0.7-1.7-1.7-1.7h-29.8c-1,0-1.7,0.7-1.7,1.7
		S1122.7,952.3,1123.7,952.3z"/>
	<path class="st0" d="M1123.7,973.8h29.8c1,0,1.7-0.7,1.7-1.7s-0.7-1.7-1.7-1.7h-29.8c-1,0-1.7,0.7-1.7,1.7
		S1122.7,973.8,1123.7,973.8z"/>
	<path class="st0" d="M1123.7,995.2h29.8c1,0,1.7-0.7,1.7-1.7s-0.7-1.7-1.7-1.7h-29.8c-1,0-1.7,0.7-1.7,1.7
		S1122.7,995.2,1123.7,995.2z"/>
	<path class="st0" d="M1123.7,1016.6h29.8c1,0,1.7-0.7,1.7-1.7s-0.7-1.7-1.7-1.7h-29.8c-1,0-1.7,0.7-1.7,1.7
		S1122.7,1016.6,1123.7,1016.6z"/>
	<path class="st0" d="M1189.7,373.6h29.8c1,0,1.7-0.7,1.7-1.7c0-1-0.7-1.7-1.7-1.7h-29.8c-1,0-1.7,0.7-1.7,1.7
		C1188,372.9,1188.7,373.6,1189.7,373.6z"/>
	<path class="st0" d="M1189.7,395h29.8c1,0,1.7-0.7,1.7-1.7s-0.7-1.7-1.7-1.7h-29.8c-1,0-1.7,0.7-1.7,1.7
		C1188,394.2,1188.7,395,1189.7,395z"/>
	<path class="st0" d="M1189.7,416.5h29.8c1,0,1.7-0.7,1.7-1.7c0-1-0.7-1.7-1.7-1.7h-29.8c-1,0-1.7,0.7-1.7,1.7
		C1188,415.8,1188.7,416.5,1189.7,416.5z"/>
	<path class="st0" d="M1189.7,437.9h29.8c1,0,1.7-0.7,1.7-1.7c0-1-0.7-1.7-1.7-1.7h-29.8c-1,0-1.7,0.7-1.7,1.7
		S1188.7,437.9,1189.7,437.9z"/>
	<path class="st0" d="M1189.7,459.4h29.8c1,0,1.7-0.7,1.7-1.7c0-1-0.7-1.7-1.7-1.7h-29.8c-1,0-1.7,0.7-1.7,1.7
		S1188.7,459.4,1189.7,459.4z"/>
	<path class="st0" d="M1189.7,480.8h29.8c1,0,1.7-0.7,1.7-1.7s-0.7-1.7-1.7-1.7h-29.8c-1,0-1.7,0.7-1.7,1.7
		S1188.7,480.8,1189.7,480.8z"/>
	<path class="st0" d="M1189.7,502.2h29.8c1,0,1.7-0.7,1.7-1.7s-0.7-1.7-1.7-1.7h-29.8c-1,0-1.7,0.7-1.7,1.7
		S1188.7,502.2,1189.7,502.2z"/>
	<path class="st0" d="M1189.7,523.7h29.8c1,0,1.7-0.7,1.7-1.7s-0.7-1.7-1.7-1.7h-29.8c-1,0-1.7,0.7-1.7,1.7
		S1188.7,523.7,1189.7,523.7z"/>
	<path class="st0" d="M1252.7,198.7H1223c-1,0-1.7,0.7-1.7,1.7c0,1,0.7,1.7,1.7,1.7h29.8c1,0,1.7-0.7,1.7-1.7
		C1254.4,199.4,1253.7,198.7,1252.7,198.7z"/>
	<path class="st0" d="M1252.7,220.2H1223c-1,0-1.7,0.7-1.7,1.7s0.7,1.7,1.7,1.7h29.8c1,0,1.7-0.7,1.7-1.7
		C1254.4,221,1253.7,220.2,1252.7,220.2z"/>
	<path class="st0" d="M1252.7,241.7H1223c-1,0-1.7,0.7-1.7,1.7c0,1,0.7,1.7,1.7,1.7h29.8c1,0,1.7-0.7,1.7-1.7
		C1254.4,242.4,1253.7,241.7,1252.7,241.7z"/>
	<path class="st0" d="M1252.7,263.1H1223c-1,0-1.7,0.7-1.7,1.7c0,1,0.7,1.7,1.7,1.7h29.8c1,0,1.7-0.7,1.7-1.7
		C1254.4,263.8,1253.7,263.1,1252.7,263.1z"/>
	<path class="st0" d="M1252.7,284.6H1223c-1,0-1.7,0.7-1.7,1.7c0,1,0.7,1.7,1.7,1.7h29.8c1,0,1.7-0.7,1.7-1.7
		C1254.4,285.3,1253.7,284.6,1252.7,284.6z"/>
	<path class="st0" d="M1252.7,306H1223c-1,0-1.7,0.7-1.7,1.7c0,1,0.7,1.7,1.7,1.7h29.8c1,0,1.7-0.7,1.7-1.7
		C1254.4,306.7,1253.7,306,1252.7,306z"/>
	<path class="st0" d="M1252.7,327.4H1223c-1,0-1.7,0.7-1.7,1.7s0.7,1.7,1.7,1.7h29.8c1,0,1.7-0.7,1.7-1.7
		C1254.4,328.2,1253.7,327.4,1252.7,327.4z"/>
	<path class="st0" d="M1381,747.8c-1,0-1.7,0.7-1.7,1.7v55c0,1,0.7,1.7,1.7,1.7s1.7-0.7,1.7-1.7v-55
		C1382.7,748.6,1382,747.8,1381,747.8z"/>
	<path class="st0" d="M1393.3,747.8c-1,0-1.7,0.7-1.7,1.7v55c0,1,0.7,1.7,1.7,1.7s1.7-0.7,1.7-1.7v-55
		C1395,748.6,1394.2,747.8,1393.3,747.8z"/>
	<path class="st0" d="M1463.1,806.2c1,0,1.7-0.7,1.7-1.7v-55c0-1-0.7-1.7-1.7-1.7s-1.7,0.7-1.7,1.7v55
		C1461.4,805.5,1462.2,806.2,1463.1,806.2z"/>
	<path class="st0" d="M1475.4,806.2c1,0,1.7-0.7,1.7-1.7v-55c0-1-0.7-1.7-1.7-1.7s-1.7,0.7-1.7,1.7v55
		C1473.7,805.5,1474.4,806.2,1475.4,806.2z"/>
	<path class="st0" d="M1420.2,751.2h16.2c1,0,1.7-0.7,1.7-1.7c0-1-0.7-1.7-1.7-1.7h-16.2c-1,0-1.7,0.7-1.7,1.7
		S1419.3,751.2,1420.2,751.2z"/>
	<path class="st0" d="M1420.1,762.3h16.2c1,0,1.7-0.7,1.7-1.7s-0.7-1.7-1.7-1.7h-16.2c-1,0-1.7,0.7-1.7,1.7
		S1419.1,762.3,1420.1,762.3z"/>
	<path class="st0" d="M1420,773.5h16.2c1,0,1.7-0.7,1.7-1.7c0-1-0.7-1.7-1.7-1.7H1420c-1,0-1.7,0.7-1.7,1.7
		C1418.3,772.7,1419,773.5,1420,773.5z"/>
	<path class="st0" d="M1419.9,784.6h16.2c1,0,1.7-0.7,1.7-1.7s-0.7-1.7-1.7-1.7h-16.2c-1,0-1.7,0.7-1.7,1.7S1419,784.6,1419.9,784.6
		z"/>
	<path class="st0" d="M1438.1,793.8c0-1-0.7-1.7-1.7-1.7h-16.2c-1,0-1.7,0.7-1.7,1.7s0.7,1.7,1.7,1.7h16.2
		C1437.3,795.4,1438.1,794.7,1438.1,793.8z"/>
	<path class="st0" d="M1401.7,839.7c0,1,0.7,1.7,1.7,1.7h49c1,0,1.7-0.7,1.7-1.7s-0.7-1.7-1.7-1.7h-49
		C1402.5,838,1401.7,838.8,1401.7,839.7z"/>
	<path class="st0" d="M1452.4,853h-49c-1,0-1.7,0.7-1.7,1.7s0.7,1.7,1.7,1.7h49c1,0,1.7-0.7,1.7-1.7
		C1454.1,853.8,1453.4,853,1452.4,853z"/>
	<path class="st0" d="M1452.4,868.1h-49c-1,0-1.7,0.7-1.7,1.7s0.7,1.7,1.7,1.7h49c1,0,1.7-0.7,1.7-1.7
		C1454.1,868.9,1453.4,868.1,1452.4,868.1z"/>
	<path class="st0" d="M1452.4,883.2h-49c-1,0-1.7,0.7-1.7,1.7s0.7,1.7,1.7,1.7h49c1,0,1.7-0.7,1.7-1.7S1453.4,883.2,1452.4,883.2z"
		/>
	<path class="st0" d="M1452.4,898.2h-49c-1,0-1.7,0.7-1.7,1.7s0.7,1.7,1.7,1.7h49c1,0,1.7-0.7,1.7-1.7S1453.4,898.2,1452.4,898.2z"
		/>
	<path class="st0" d="M1452.4,913.3h-49c-1,0-1.7,0.7-1.7,1.7s0.7,1.7,1.7,1.7h49c1,0,1.7-0.7,1.7-1.7S1453.4,913.3,1452.4,913.3z"
		/>
	<path class="st0" d="M1452.4,928.3h-49c-1,0-1.7,0.7-1.7,1.7s0.7,1.7,1.7,1.7h49c1,0,1.7-0.7,1.7-1.7S1453.4,928.3,1452.4,928.3z"
		/>
	<path class="st0" d="M1452.4,943.4h-49c-1,0-1.7,0.7-1.7,1.7s0.7,1.7,1.7,1.7h49c1,0,1.7-0.7,1.7-1.7S1453.4,943.4,1452.4,943.4z"
		/>
	<path class="st0" d="M1452.4,958.4h-49c-1,0-1.7,0.7-1.7,1.7s0.7,1.7,1.7,1.7h49c1,0,1.7-0.7,1.7-1.7S1453.4,958.4,1452.4,958.4z"
		/>
	<path class="st0" d="M1452.4,973.4h-49c-1,0-1.7,0.7-1.7,1.7s0.7,1.7,1.7,1.7h49c1,0,1.7-0.7,1.7-1.7S1453.4,973.4,1452.4,973.4z"
		/>
	<path class="st0" d="M1452.4,988.6h-49c-1,0-1.7,0.7-1.7,1.7s0.7,1.7,1.7,1.7h49c1,0,1.7-0.7,1.7-1.7S1453.4,988.6,1452.4,988.6z"
		/>
	<path class="st0" d="M1452.4,1003.6h-49c-1,0-1.7,0.7-1.7,1.7s0.7,1.7,1.7,1.7h49c1,0,1.7-0.7,1.7-1.7S1453.4,1003.6,1452.4,1003.6
		z"/>
	<path class="st0" d="M1452.4,1018.6h-49c-1,0-1.7,0.7-1.7,1.7s0.7,1.7,1.7,1.7h49c1,0,1.7-0.7,1.7-1.7
		C1454.1,1019.4,1453.4,1018.6,1452.4,1018.6z"/>
	<path class="st0" d="M1452.4,1033.7h-49c-1,0-1.7,0.7-1.7,1.7s0.7,1.7,1.7,1.7h49c1,0,1.7-0.7,1.7-1.7S1453.4,1033.7,1452.4,1033.7
		z"/>
	<path class="st0" d="M1452.4,1048.7h-49c-1,0-1.7,0.7-1.7,1.7s0.7,1.7,1.7,1.7h49c1,0,1.7-0.7,1.7-1.7S1453.4,1048.7,1452.4,1048.7
		z"/>
	<path class="st0" d="M1452.4,1063.8h-49c-1,0-1.7,0.7-1.7,1.7s0.7,1.7,1.7,1.7h49c1,0,1.7-0.7,1.7-1.7
		C1454.1,1064.6,1453.4,1063.8,1452.4,1063.8z"/>
	<path class="st0" d="M1452.4,1078.8h-49c-1,0-1.7,0.7-1.7,1.7s0.7,1.7,1.7,1.7h49c1,0,1.7-0.7,1.7-1.7S1453.4,1078.8,1452.4,1078.8
		z"/>
	<path class="st0" d="M1452.4,1093.8h-49c-1,0-1.7,0.7-1.7,1.7s0.7,1.7,1.7,1.7h49c1,0,1.7-0.7,1.7-1.7S1453.4,1093.8,1452.4,1093.8
		z"/>
	<path class="st0" d="M1452.4,1109h-49c-1,0-1.7,0.7-1.7,1.7s0.7,1.7,1.7,1.7h49c1,0,1.7-0.7,1.7-1.7S1453.4,1109,1452.4,1109z"/>
	<path class="st0" d="M1452.4,1124h-49c-1,0-1.7,0.7-1.7,1.7s0.7,1.7,1.7,1.7h49c1,0,1.7-0.7,1.7-1.7S1453.4,1124,1452.4,1124z"/>
	<path class="st0" d="M1452.4,1139h-49c-1,0-1.7,0.7-1.7,1.7s0.7,1.7,1.7,1.7h49c1,0,1.7-0.7,1.7-1.7S1453.4,1139,1452.4,1139z"/>
	<path class="st0" d="M1452.4,1154.1h-49c-1,0-1.7,0.7-1.7,1.7s0.7,1.7,1.7,1.7h49c1,0,1.7-0.7,1.7-1.7S1453.4,1154.1,1452.4,1154.1
		z"/>
	<path class="st0" d="M1452.4,1169.1h-49c-1,0-1.7,0.7-1.7,1.7s0.7,1.7,1.7,1.7h49c1,0,1.7-0.7,1.7-1.7S1453.4,1169.1,1452.4,1169.1
		z"/>
	<path class="st0" d="M1452.4,1184.2h-49c-1,0-1.7,0.7-1.7,1.7s0.7,1.7,1.7,1.7h49c1,0,1.7-0.7,1.7-1.7S1453.4,1184.2,1452.4,1184.2
		z"/>
	<path class="st0" d="M1452.4,1199.2h-49c-1,0-1.7,0.7-1.7,1.7s0.7,1.7,1.7,1.7h49c1,0,1.7-0.7,1.7-1.7
		C1454.1,1200,1453.4,1199.2,1452.4,1199.2z"/>
	<path class="st0" d="M1452.4,1214.2h-49c-1,0-1.7,0.7-1.7,1.7s0.7,1.7,1.7,1.7h49c1,0,1.7-0.7,1.7-1.7
		C1454.1,1215,1453.4,1214.2,1452.4,1214.2z"/>
	<path class="st0" d="M1452.4,1229.4h-49c-1,0-1.7,0.7-1.7,1.7s0.7,1.7,1.7,1.7h49c1,0,1.7-0.7,1.7-1.7S1453.4,1229.4,1452.4,1229.4
		z"/>
	<path class="st0" d="M1452.4,1244.4h-49c-1,0-1.7,0.7-1.7,1.7s0.7,1.7,1.7,1.7h49c1,0,1.7-0.7,1.7-1.7S1453.4,1244.4,1452.4,1244.4
		z"/>
	<path class="st0" d="M1452.4,1259.4h-49c-1,0-1.7,0.7-1.7,1.7s0.7,1.7,1.7,1.7h49c1,0,1.7-0.7,1.7-1.7
		C1454.1,1260.2,1453.4,1259.4,1452.4,1259.4z"/>
	<path class="st0" d="M1452.4,1274.5h-49c-1,0-1.7,0.7-1.7,1.7s0.7,1.7,1.7,1.7h49c1,0,1.7-0.7,1.7-1.7S1453.4,1274.5,1452.4,1274.5
		z"/>
	<path class="st0" d="M1452.4,1289.5h-49c-1,0-1.7,0.7-1.7,1.7s0.7,1.7,1.7,1.7h49c1,0,1.7-0.7,1.7-1.7S1453.4,1289.5,1452.4,1289.5
		z"/>
	<path class="st0" d="M1452.4,1304.6h-49c-1,0-1.7,0.7-1.7,1.7s0.7,1.7,1.7,1.7h49c1,0,1.7-0.7,1.7-1.7S1453.4,1304.6,1452.4,1304.6
		z"/>
	<path class="st0" d="M1452.4,1319.6h-49c-1,0-1.7,0.7-1.7,1.7s0.7,1.7,1.7,1.7h49c1,0,1.7-0.7,1.7-1.7S1453.4,1319.6,1452.4,1319.6
		z"/>
	<path class="st0" d="M1452.4,1334.6h-49c-1,0-1.7,0.7-1.7,1.7s0.7,1.7,1.7,1.7h49c1,0,1.7-0.7,1.7-1.7S1453.4,1334.6,1452.4,1334.6
		z"/>
	<path class="st0" d="M1452.4,1349.8h-49c-1,0-1.7,0.7-1.7,1.7s0.7,1.7,1.7,1.7h49c1,0,1.7-0.7,1.7-1.7S1453.4,1349.8,1452.4,1349.8
		z"/>
	<path class="st0" d="M1452.4,1364.8h-49c-1,0-1.7,0.7-1.7,1.7s0.7,1.7,1.7,1.7h49c1,0,1.7-0.7,1.7-1.7S1453.4,1364.8,1452.4,1364.8
		z"/>
	<path class="st0" d="M1452.4,1379.8h-49c-1,0-1.7,0.7-1.7,1.7s0.7,1.7,1.7,1.7h49c1,0,1.7-0.7,1.7-1.7S1453.4,1379.8,1452.4,1379.8
		z"/>
	<path class="st0" d="M1318.5,1381.8c1,0,1.7-0.7,1.7-1.7v-107.8c0-1-0.7-1.7-1.7-1.7s-1.7,0.7-1.7,1.7v107.8
		C1316.8,1381,1317.6,1381.8,1318.5,1381.8z"/>
	<path class="st0" d="M1333.4,1381.8c1,0,1.7-0.7,1.7-1.7v-107.8c0-1-0.7-1.7-1.7-1.7s-1.7,0.7-1.7,1.7v107.8
		C1331.7,1381,1332.4,1381.8,1333.4,1381.8z"/>
	<path class="st0" d="M1348.2,1381.8c1,0,1.7-0.7,1.7-1.7v-107.8c0-1-0.7-1.7-1.7-1.7s-1.7,0.7-1.7,1.7v107.8
		C1346.6,1381,1347.3,1381.8,1348.2,1381.8z"/>
	<path class="st0" d="M1363,1381.8c1,0,1.7-0.7,1.7-1.7v-107.8c0-1-0.7-1.7-1.7-1.7s-1.7,0.7-1.7,1.7v107.8
		C1361.4,1381,1362.2,1381.8,1363,1381.8z"/>
	<path class="st0" d="M1492.2,1381.8c1,0,1.7-0.7,1.7-1.7v-107.8c0-1-0.7-1.7-1.7-1.7s-1.7,0.7-1.7,1.7v107.8
		C1490.6,1381,1491.4,1381.8,1492.2,1381.8z"/>
	<path class="st0" d="M1507.1,1381.8c1,0,1.7-0.7,1.7-1.7v-107.8c0-1-0.7-1.7-1.7-1.7s-1.7,0.7-1.7,1.7v107.8
		C1505.4,1381,1506.2,1381.8,1507.1,1381.8z"/>
	<path class="st0" d="M1522,1381.8c1,0,1.7-0.7,1.7-1.7v-107.8c0-1-0.7-1.7-1.7-1.7s-1.7,0.7-1.7,1.7v107.8
		C1520.3,1381,1521,1381.8,1522,1381.8z"/>
	<path class="st0" d="M1536.8,1381.8c1,0,1.7-0.7,1.7-1.7v-107.8c0-1-0.7-1.7-1.7-1.7s-1.7,0.7-1.7,1.7v107.8
		C1535.1,1381,1535.9,1381.8,1536.8,1381.8z"/>
	<path class="st0" d="M1366.4,1128.6c1,0,1.7-0.7,1.7-1.7V832.9c0-1-0.7-1.7-1.7-1.7s-1.7,0.7-1.7,1.7V1127
		C1364.7,1127.9,1365.5,1128.6,1366.4,1128.6z"/>
	<path class="st0" d="M1487.7,832.9V1127c0,1,0.7,1.7,1.7,1.7s1.7-0.7,1.7-1.7V832.9c0-1-0.7-1.7-1.7-1.7
		C1488.5,831.2,1487.7,831.9,1487.7,832.9z"/>
	<path class="st0" d="M1352.9,1157.4h17c1,0,1.7-0.7,1.7-1.7s-0.7-1.7-1.7-1.7h-17c-1,0-1.7,0.7-1.7,1.7S1352,1157.4,1352.9,1157.4z
		"/>
	<path class="st0" d="M1352.9,1172.5h17c1,0,1.7-0.7,1.7-1.7s-0.7-1.7-1.7-1.7h-17c-1,0-1.7,0.7-1.7,1.7S1352,1172.5,1352.9,1172.5z
		"/>
	<path class="st0" d="M1485.5,1157.4h17c1,0,1.7-0.7,1.7-1.7s-0.7-1.7-1.7-1.7h-17c-1,0-1.7,0.7-1.7,1.7
		S1484.6,1157.4,1485.5,1157.4z"/>
	<path class="st0" d="M1485.5,1172.5h17c1,0,1.7-0.7,1.7-1.7s-0.7-1.7-1.7-1.7h-17c-1,0-1.7,0.7-1.7,1.7
		S1484.6,1172.5,1485.5,1172.5z"/>
	<path class="st0" d="M1340.2,1242.2c1,0,1.7-0.7,1.7-1.7v-41.4c0-1-0.7-1.7-1.7-1.7s-1.7,0.7-1.7,1.7v41.4
		C1338.5,1241.5,1339.3,1242.2,1340.2,1242.2z"/>
	<path class="st0" d="M1355,1242.2c1,0,1.7-0.7,1.7-1.7v-41.4c0-1-0.7-1.7-1.7-1.7s-1.7,0.7-1.7,1.7v41.4
		C1353.3,1241.5,1354,1242.2,1355,1242.2z"/>
	<path class="st0" d="M1369.7,1242.2c1,0,1.7-0.7,1.7-1.7v-41.4c0-1-0.7-1.7-1.7-1.7s-1.7,0.7-1.7,1.7v41.4
		C1368,1241.5,1368.7,1242.2,1369.7,1242.2z"/>
	<path class="st0" d="M1486.6,1242.2c1,0,1.7-0.7,1.7-1.7v-41.4c0-1-0.7-1.7-1.7-1.7s-1.7,0.7-1.7,1.7v41.4
		C1484.9,1241.5,1485.6,1242.2,1486.6,1242.2z"/>
	<path class="st0" d="M1501.3,1242.2c1,0,1.7-0.7,1.7-1.7v-41.4c0-1-0.7-1.7-1.7-1.7s-1.7,0.7-1.7,1.7v41.4
		C1499.6,1241.5,1500.3,1242.2,1501.3,1242.2z"/>
	<path class="st0" d="M1516,1242.2c1,0,1.7-0.7,1.7-1.7v-41.4c0-1-0.7-1.7-1.7-1.7s-1.7,0.7-1.7,1.7v41.4
		C1514.3,1241.5,1515.1,1242.2,1516,1242.2z"/>
	<path class="st0" d="M1194.9,234.9l7.8-7.8V294c0,1,0.7,1.7,1.7,1.7s1.7-0.7,1.7-1.7v-66.9l7.8,7.8c0.6,0.6,1.5,1,2.4,1
		c0.9,0,1.7-0.3,2.4-1c1.3-1.3,1.3-3.4,0-4.7l-11.8-11.8c-1.3-1.3-3.4-1.3-4.7,0l-11.8,11.8c-1.3,1.3-1.3,3.4,0,4.7
		C1191.4,236.2,1193.6,236.2,1194.9,234.9z"/>
	<path class="st0" d="M1135.1,674.3c0.6,0.6,1.5,1,2.4,1s1.7-0.3,2.4-1l11.8-11.8c1.3-1.3,1.3-3.4,0-4.7c-1.3-1.3-3.4-1.3-4.7,0
		l-7.8,7.8v-97.3c0-1-0.7-1.7-1.7-1.7s-1.7,0.7-1.7,1.7v97.3l-7.8-7.8c-1.3-1.3-3.4-1.3-4.7,0c-1.3,1.3-1.3,3.4,0,4.7L1135.1,674.3z
		"/>
	<path class="st0" d="M235.8,1164c0.6,0.6,1.5,1,2.4,1s1.7-0.3,2.4-1l11.8-11.8c1.3-1.3,1.3-3.4,0-4.7c-1.3-1.3-3.4-1.3-4.7,0
		l-7.8,7.8v-118c0-1-0.7-1.7-1.7-1.7s-1.7,0.7-1.7,1.7v118l-7.8-7.8c-1.3-1.3-3.4-1.3-4.7,0c-1.3,1.3-1.3,3.4,0,4.7L235.8,1164z"/>
</g>
</svg>
