<?xml version="1.0" encoding="UTF-8" standalone="no"?>
<svg xmlns="http://www.w3.org/2000/svg" height="44px" width="151px" version="1.1" xmlns:xlink="http://www.w3.org/1999/xlink" viewBox="0 0 151 44"><!-- Generator: Sketch 46.2 (44496) - http://www.bohemiancoding.com/sketch -->
 <title>Group 11</title>
 <desc>Created with Sketch.</desc>
 <g id="Version-1" fill-rule="evenodd" fill="none">
  <g id="Events-Version_-Two-" transform="translate(-152 -42)">
   <g id="Group-11" transform="translate(152 42)">
    <path id="Community" fill="#FF6C36" d="m76.176 36.128h-2.336c-0.16 1.28-0.688 2.112-2.32 2.112-2.08 0-2.448-1.472-2.448-3.36 0-1.872 0.368-3.36 2.448-3.36 1.616 0 2.176 0.848 2.32 2.096h2.32c0-2.112-1.248-3.984-4.64-3.984-3.856 0-4.736 2.448-4.736 5.248s0.832 5.248 4.736 5.248c3.44 0 4.656-1.76 4.656-4zm9.48-0.24c0 2.208-0.928 4.24-4.112 4.24-3.168 0-4.048-2.064-4.048-4.24 0-2.16 0.896-4.208 4.08-4.208 3.152 0 4.08 2.048 4.08 4.208zm-2.16 0c0-1.296-0.384-2.352-1.92-2.352-1.504 0-1.92 1.008-1.92 2.352 0 1.36 0.416 2.368 1.888 2.368 1.504 0 1.952-0.992 1.952-2.368zm15.224 4.112v-4.88c0-1.824-0.48-3.44-2.72-3.44-1.504 0-2.16 0.72-2.432 1.216-0.432-0.8-1.184-1.216-2.272-1.216-1.552 0-2.336 0.8-2.672 1.472l-0.496-1.344h-0.944v8.192h2.192v-4.992c0-0.8 0.24-1.472 1.264-1.472s1.2 0.656 1.2 1.44v5.024h2.224v-5.024c0-0.8 0.224-1.44 1.232-1.44 1.024 0 1.2 0.656 1.2 1.44v5.024h2.224zm13.32 0v-4.88c0-1.824-0.48-3.44-2.72-3.44-1.5 0-2.16 0.72-2.43 1.216-0.43-0.8-1.19-1.216-2.27-1.216-1.56 0-2.34 0.8-2.68 1.472l-0.49-1.344h-0.95v8.192h2.2v-4.992c0-0.8 0.24-1.472 1.26-1.472s1.2 0.656 1.2 1.44v5.024h2.22v-5.024c0-0.8 0.23-1.44 1.24-1.44 1.02 0 1.2 0.656 1.2 1.44v5.024h2.22zm9.26 0v-8.192h-2.2v4.608c0 1.184-0.32 1.872-1.69 1.872-1.38 0-1.59-0.704-1.59-1.872v-4.608h-2.17v4.432c0 2.288 0.54 3.888 3.12 3.888 1.79 0 2.56-0.544 3.12-1.392l0.49 1.264h0.92zm9.62 0v-4.464c0-2.288-0.56-3.856-3.15-3.856-1.79 0-2.53 0.56-3.09 1.408l-0.51-1.28h-0.91v8.192h2.19v-4.592c0-1.184 0.3-1.888 1.68-1.888 1.36 0 1.6 0.672 1.6 1.84v4.64h2.19zm3.91 0v-8.192h-2.21v8.192h2.21zm0.27-10.16c0-0.912-0.56-1.136-1.37-1.136-0.82 0-1.41 0.224-1.41 1.136 0 0.896 0.56 1.12 1.41 1.12 0.81 0 1.37-0.224 1.37-1.12zm6.49 10.24v-1.792c-1.53 0.112-2.05-0.112-2.05-1.024v-3.664h2.05v-1.792h-2.11v-2.048h-2.18v2.08l-1.2 0.672v1.088h1.2v3.68c0 2.528 1.38 3.04 4.29 2.8zm8.94-8.272h-2.19v4.656c0 1.184-0.31 1.84-1.67 1.84-1.37 0-1.61-0.576-1.61-1.728v-4.768h-2.18v4.576c0 2.304 0.58 3.744 3.15 3.744 1.28 0 1.92-0.48 2.31-0.992v1.168c0 0.8-0.24 1.344-1.67 1.344-1.5 0-1.61-0.48-1.68-1.104h-2.19c0 1.6 0.77 2.784 3.86 2.784 3.29 0 3.87-1.616 3.87-3.2v-8.32z"/>
    <path id="chargebee-logotype" opacity="0.9" fill="#202022" d="m109.55 11.758c0.39 0 0.62 0.271 0.72 0.636 0.2 0.773-0.8 2.656-4.31 4.82 0.08-2.508 1.59-5.456 3.59-5.456zm-10.741 0c0.586 0 0.624 0.579 0.652 0.787 0.148 1.093-0.858 3.031-4.148 4.143 0.351-2.317 1.868-4.93 3.496-4.93zm-14.191-9.1196c1.11 0 0.199 3.8064-3.336 9.1366 0.809-7.0643 1.979-9.1366 3.336-9.1366zm-12.201 9.1196c0.328 0 0.411 0.263 0.455 0.412 0.143 0.487-0.368 2.406-4.182 5.088 0.218-2.559 1.769-5.5 3.727-5.5zm-15.805 21.605c-0.396 0-0.664-0.255-0.664-0.751 0-2.292 3.561-5.425 3.6-5.434-0.486 3.082-1.73 6.185-2.936 6.185zm58.798-15.124c-0.6-0.401-1.41-0.236-1.81 0.366-0.07 0.099-1.66 2.424-4.42 2.424-1.09 0-1.92-0.338-2.45-1.005-0.04-0.045-0.07-0.091-0.11-0.14 0.02-0.006 0.03-0.012 0.04-0.019 6.5-3.759 6.46-6.952 6.14-8.151-0.38-1.435-1.65-2.3611-3.25-2.3611-3.72 0-6.21 4.1691-6.21 8.0641 0 0.494 0.04 0.968 0.12 1.422-1.32 0.979-3.36 2.19-5.162 2.19-1.048 0-1.835-0.313-2.339-0.93-0.181-0.22-0.318-0.465-0.421-0.72 4.982-1.451 6.872-4.645 6.522-7.191-0.23-1.669-1.47-2.8351-3.013-2.8351-3.465 0-5.969 3.6561-6.375 7.2841-0.662-0.069-1.263-0.265-1.797-0.595 0.089-0.575 0.133-1.141 0.133-1.678 0-1.182-0.224-2.212-0.649-2.98-0.581-1.051-1.522-1.6292-2.652-1.6292-0.604 0-1.148 0.3352-1.454 0.8972-0.643 1.182-0.233 3.477 0.954 5.339 0.23 0.36 0.48 0.692 0.75 0.996-0.647 2.099-1.989 4.073-3.744 4.073-0.787 0-1.377-0.244-1.857-0.768-0.691-0.755-1.131-2.098-1.275-3.796 4.887-6.134 7.259-12.134 5.909-14.975-0.459-0.96695-1.319-1.521-2.36-1.521-3.377 0-5.389 4.394-6.149 13.432-0.046 0.553-0.081 1.22-0.074 1.947-1.806 2.455-4.764 5.65-7.435 5.65-0.762 0-1.318-0.259-1.699-0.791-0.033-0.045-0.064-0.093-0.094-0.142 0.031-0.017 0.063-0.035 0.093-0.055 6.554-4.259 6.46-7.445 6.116-8.618-0.375-1.276-1.514-2.0701-2.971-2.0701-3.815 0-6.377 4.4021-6.377 8.5131 0 0.373 0.023 0.733 0.066 1.081-1.203 0.87-2.201 1.646-3.158 2.397 0.143-1.125 0.356-2.546 0.594-4.678v-0.001c0.057-0.43 0.104-0.784 0.128-0.957 0.214-1.558-2.331-1.881-2.606-0.141-0.283 1.79-1.05 5.493-3.141 5.493-1.265 0-1.928-1.411-1.806-3.464 0.194-3.229 1.927-5.862 4.077-5.862 0.737 0 1.121 0.793 1.121 0.793 0.677 1.24 2.784 0.194 2.339-1.117-0.198-0.586-0.908-2.0401-3.357-2.0401-5.033 0-6.588 5.1181-6.811 8.4961-0.037 0.557-0.027 1.093 0.024 1.604-0.701 0.859-1.536 1.59-2.349 1.59-0.797 0-1.302-0.892-1.005-2.952 0.284-1.965 0.485-3.589 0.62-4.54 0.608-4.2979-4.743-4.1797-4.743-4.1797s-0.058-2.5069-2.12-2.5069c-1.054 0-1.991 0.8237-1.991 2.3774 0 1.4362 1.171 2.1422 1.171 2.1422l0.007 0.001c-0.259 2.225-1.299 9.658-3.607 9.658-1.035 0-1.106-1.124-1.015-1.914 0.127-1.098 0.324-2.957 0.39-3.438 0.214-1.558-2.33-1.881-2.605-0.141-0.284 1.79-1.051 5.493-3.142 5.493-1.265 0-1.929-1.596-1.827-3.518 0.174-3.293 1.948-5.808 4.097-5.808 0.738 0 1.122 0.793 1.122 0.793 0.559 1.228 2.773 0.345 2.34-1.117-0.192-0.646-0.909-2.0401-3.358-2.0401-5.033 0-6.588 5.1181-6.811 8.4961-0.035 0.523-0.027 1.028 0.016 1.512-0.721 0.982-1.587 1.682-2.406 1.682-0.744 0-1.316-0.385-1.179-2.085 0.064-0.794 0.984-6.222 0.923-7.213-0.102-1.646-0.844-2.3718-2.671-2.3718-1.921 0-3.373 0.9928-3.983 1.6268 0 0 0.91-6.8501 1.082-8.1654 0.181-1.3778-2.456-1.3917-2.628-0.0113-0.074 0.5985-0.778 6.0256-1.431 11.036-1.469 3.272-4.448 8.314-8.8583 8.314-8.3546 0-4.4989-18.298 3.3163-18.298 1.831-0.0005 1.013 2.9389-0.215 4.7314-0.8773 1.2802 1.333 2.7526 2.554 0.6824 3.373-5.7201 0.53-7.8591-2.142-7.8591-11.614 0-15.925 23.272-3.8267 23.272 3.9827 0 6.6487-2.249 8.3667-4.669-0.181 1.374-0.304 2.311-0.329 2.486-0.205 1.436 2.466 1.318 2.606 0.117 0.09-0.766 0.486-3.976 0.826-6.426 0.194-1.401 1.898-3.978 3.851-3.978 0.46 0 0.761 0.459 0.701 0.853-0.068 0.456-0.899 6.548-0.842 7.457 0.157 2.542 1.965 3.13 3.687 3.13 1.365 0 2.455-0.647 3.374-1.666 0.61 1.024 1.554 1.661 2.824 1.661 2.91 0 3.914-2.106 3.914-2.106s0.347 2.086 2.854 2.086c5.08 0 6.264-8.904 6.518-11.873 0.297 0.012 2.093 0.122 2.388 1.132 0.284 0.968-0.617 4.073-0.691 7.27-0.039 1.684 0.577 3.491 3.229 3.491 1.62 0 2.89-0.746 3.811-1.592 0.61 0.982 1.538 1.592 2.779 1.592 1.433 0 2.401-0.461 3.018-0.929-0.041 0.275-0.08 0.545-0.118 0.819-0.003 0.017-0.005 0.035-0.007 0.052 0.007-0.052-6.699 4.811-6.699 9.408 0 1.792 0.827 2.966 2.94 2.966 4.206 0 5.504-5.637 6.125-10.303 0.029-0.221 0.057-0.43 0.085-0.63 0.657-0.501 1.269-0.981 1.864-1.447 0.872-0.684 1.717-1.347 2.688-2.066 0.048 0.075 0.094 0.152 0.145 0.224 0.884 1.235 2.208 1.888 3.829 1.888 3.043 0 5.859-2.346 7.888-4.64 0.304 1.133 0.794 2.207 1.564 3.05 0.97 1.06 2.281 1.621 3.789 1.621 2.908 0 4.924-2.331 5.968-5.039 0.795 0.371 1.669 0.585 2.602 0.634 0.203 0.954 0.588 1.797 1.148 2.481 0.706 0.864 2.036 1.893 4.367 1.893 2.312 0 4.612-1.243 6.152-2.307 0.08 0.109 0.15 0.218 0.24 0.321 0.72 0.906 2.09 1.986 4.49 1.986 4.2 0 6.51-3.461 6.61-3.609 0.39-0.606 0.22-1.416-0.38-1.818z"/>
   </g>
  </g>
 </g>
</svg>
