<?xml version="1.0" encoding="UTF-8" standalone="no"?>
<svg xmlns:sketch="http://www.bohemiancoding.com/sketch/ns" xmlns="http://www.w3.org/2000/svg" height="94px" width="300px" version="1.1" xmlns:xlink="http://www.w3.org/1999/xlink" viewBox="0 0 300 94"><!-- Generator: Sketch 3.4.2 (15855) - http://www.bohemiancoding.com/sketch -->
 <title>chargebee-logotype copy 2</title>
 <desc>Created with Sketch.</desc>
 <g id="Page-1" fill-rule="evenodd" sketch:type="MSPage" fill="none">
  <g id="Desktop-HD-Copy-25" transform="translate(-775 -1936)" fill="#fff" sketch:type="MSArtboardGroup">
   <g id="Logo-guidelines-+-Please-use-Chargebee-+-Group-Copy" transform="translate(0 1648)" sketch:type="MSLayerGroup">
    <g id="Group" sketch:type="MSShapeGroup" transform="translate(0 134)">
     <path id="chargebee-logotype-copy-2" d="m1058.3 184.5c1 0 1.6 0.71 1.9 1.66 0.5 2-2.1 6.89-11.2 12.5 0.2-6.51 4.1-14.16 9.3-14.16zm-27.8 0c1.6 0 1.7 1.51 1.7 2.05 0.4 2.83-2.2 7.86-10.7 10.74 0.9-6.01 4.8-12.79 9-12.79zm-36.66-23.66c2.87 0 0.51 9.88-8.63 23.71 2.1-18.33 5.12-23.71 8.63-23.71zm-31.56 23.66c0.85 0 1.07 0.69 1.18 1.07 0.37 1.27-0.95 6.24-10.81 13.2 0.56-6.64 4.57-14.27 9.63-14.27zm-40.87 56.06c-1.02 0-1.72-0.67-1.72-1.95 0-5.95 9.21-14.08 9.31-14.1-1.25 7.99-4.47 16.05-7.59 16.05zm152.09-39.24c-1.6-1.04-3.7-0.62-4.7 0.95-0.2 0.25-4.3 6.29-11.5 6.29-2.8 0-4.9-0.88-6.3-2.61l-0.3-0.36c0.1-0.02 0.1-0.04 0.1-0.05 16.9-9.76 16.8-18.04 15.9-21.15-0.9-3.72-4.3-6.13-8.4-6.13-9.6 0-16.1 10.82-16.1 20.92 0 1.29 0.2 2.52 0.4 3.69-3.4 2.54-8.7 5.69-13.4 5.69-2.7 0-4.7-0.81-6-2.42-0.5-0.57-0.9-1.2-1.1-1.86 12.9-3.77 17.7-12.05 16.8-18.66-0.5-4.33-3.7-7.36-7.7-7.36-9 0-15.5 9.49-16.5 18.9-1.7-0.18-3.3-0.69-4.7-1.54 0.3-1.49 0.4-2.96 0.4-4.35 0-3.07-0.6-5.74-1.7-7.74-1.5-2.72-4-4.22-6.9-4.22-1.5 0-2.94 0.87-3.73 2.33-1.67 3.06-0.6 9.02 2.43 13.85 0.6 0.93 1.3 1.79 2 2.58-1.7 5.45-5.17 10.57-9.71 10.57-2.03 0-3.56-0.64-4.8-2-1.79-1.95-2.92-5.44-3.3-9.84 12.64-15.92 18.81-31.48 15.28-38.85-1.18-2.51-3.41-3.95-6.1-3.95-8.73 0-13.94 11.4-15.9 34.85-0.12 1.43-0.21 3.16-0.19 5.05-4.67 6.37-12.32 14.66-19.23 14.66-1.97 0-3.41-0.67-4.4-2.06-0.08-0.11-0.16-0.24-0.24-0.36l0.24-0.15c16.95-11.05 16.71-19.31 15.82-22.35-0.97-3.32-3.92-5.38-7.69-5.38-9.86 0-16.49 11.42-16.49 22.09 0 0.97 0.06 1.9 0.17 2.8-3.11 2.26-5.69 4.27-8.16 6.22 0.37-2.91 0.92-6.6 1.53-12.13 0.15-1.12 0.27-2.04 0.33-2.49 0.56-4.04-6.02-4.88-6.74-0.36-0.73 4.64-2.71 14.25-8.12 14.25-3.27 0-4.99-3.66-4.67-8.99 0.5-8.38 4.98-15.21 10.54-15.21 1.91 0 2.9 2.06 2.9 2.06 1.75 3.22 7.2 0.5 6.05-2.9-0.51-1.52-2.35-5.29-8.68-5.29-13.02 0-17.04 13.28-17.61 22.04-0.1 1.44-0.07 2.84 0.06 4.16-1.82 2.23-3.98 4.13-6.08 4.13-2.06 0-3.37-2.32-2.6-7.66 0.74-5.1 1.26-9.31 1.61-11.78 1.57-11.15-12.27-10.84-12.27-10.84s-0.15-6.51-5.48-6.51c-2.73 0-5.15 2.14-5.15 6.17 0 3.73 3.03 5.56 3.03 5.56h0.02c-0.67 5.77-3.36 25.06-9.33 25.06-2.68 0-2.86-2.92-2.63-4.97 0.33-2.85 0.84-7.67 1.01-8.92 0.55-4.04-6.03-4.88-6.74-0.36-0.73 4.64-2.72 14.25-8.12 14.25-3.27 0-4.99-4.14-4.73-9.13 0.45-8.54 5.04-15.07 10.6-15.07 1.91 0 2.9 2.06 2.9 2.06 1.45 3.19 7.17 0.9 6.05-2.9-0.49-1.67-2.35-5.29-8.68-5.29-13.02 0-17.04 13.28-17.62 22.04-0.09 1.36-0.07 2.67 0.04 3.92-1.86 2.55-4.1 4.37-6.22 4.37-1.92 0-3.4-1-3.05-5.41 0.17-2.06 2.55-16.15 2.39-18.71-0.26-4.28-2.18-6.16-6.91-6.16-4.97 0-8.72 2.58-10.3 4.22 0 0 2.35-17.77 2.8-21.18 0.47-3.58-6.35-3.61-6.8-0.03-0.19 1.55-2.01 15.63-3.7 28.63-3.8 8.49-11.5 21.57-22.91 21.57-21.6 0-11.63-47.47 8.58-47.47 4.73 0 2.62 7.62-0.56 12.27-2.27 3.32 3.45 7.14 6.61 1.77 8.72-14.84 1.37-20.39-5.54-20.39-30.04 0-41.19 60.38-9.9 60.38 10.3 0 17.2-5.84 21.64-12.11-0.47 3.56-0.79 5.99-0.85 6.44-0.53 3.73 6.38 3.43 6.74 0.31 0.23-1.99 1.26-10.32 2.14-16.67 0.5-3.64 4.9-10.32 9.95-10.32 1.2 0 1.97 1.19 1.82 2.21-0.18 1.18-2.33 16.99-2.18 19.35 0.41 6.59 5.08 8.12 9.54 8.12 3.52 0 6.35-1.68 8.72-4.32 1.58 2.65 4.02 4.3 7.3 4.3 7.53 0 10.13-5.46 10.13-5.46s0.89 5.41 7.38 5.41c13.14 0 16.2-23.1 16.86-30.8 0.76 0.03 5.41 0.32 6.17 2.94 0.73 2.51-1.59 10.56-1.79 18.86-0.1 4.37 1.49 9.05 8.35 9.05 4.19 0 7.48-1.93 9.86-4.13 1.58 2.55 3.98 4.13 7.19 4.13 3.7 0 6.21-1.19 7.8-2.41-0.1 0.72-0.2 1.42-0.3 2.13-0.01 0.04-0.02 0.09-0.02 0.13 0.02-0.13-17.33 12.49-17.33 24.41 0 4.65 2.14 7.7 7.61 7.7 10.88 0 14.23-14.63 15.84-26.73 0.07-0.58 0.15-1.12 0.22-1.64 1.7-1.3 3.28-2.54 4.82-3.75 2.26-1.78 4.44-3.5 6.95-5.36 0.13 0.19 0.24 0.39 0.38 0.58 2.28 3.2 5.71 4.9 9.9 4.9 7.87 0 15.15-6.09 20.4-12.04 0.79 2.94 2.05 5.73 4.04 7.91 2.51 2.75 5.9 4.21 9.8 4.21 7.51 0 12.71-6.05 15.41-13.07 2.1 0.96 4.3 1.51 6.8 1.64 0.5 2.47 1.5 4.66 2.9 6.44 1.9 2.24 5.3 4.91 11.3 4.91s11.9-3.23 15.9-5.99c0.2 0.29 0.4 0.57 0.6 0.83 1.9 2.35 5.5 5.16 11.6 5.16 10.9 0 16.9-8.98 17.1-9.36 1.1-1.58 0.6-3.68-0.9-4.72z"/>
    </g>
   </g>
  </g>
 </g>
</svg>
