<svg xmlns="http://www.w3.org/2000/svg" width="57" height="60" xmlns:xlink="http://www.w3.org/1999/xlink"><title>Group</title><desc>Created with Sketch.</desc><defs><path id="a" d="M12 0c3.18 0 6.23 1.26 8.5 3.5C22.73 5.78 24 8.83 24 12c0 6.63-5.37 12-12 12-3.18 0-6.23-1.26-8.5-3.5C1.27 18.22 0 15.17 0 12c0-3.18 1.26-6.23 3.5-8.5C5.78 1.27 8.83 0 12 0z"/></defs><g fill="none"><g><g><g transform="translate(4 -1)"><path d="M0 0h60v60H0z"/><circle cx="30" cy="30" r="30"/><path fill="#fff" d="M49.9 41.98c.73.48-.7-.48 0 0 .62.4.86 1.22.58 1.9-.25.6-.86.98-1.5.95-.67-.03-1.25-.48-1.43-1.1-.2-.64.05-1.33.58-1.72.52-.37 1.25-.38 1.78-.02zM29.96 56.52c.36 0 .7 0 1.07 0 .7-.04 1.42-.1 2.12-.17.57-.07-1.16.13 0 0 .7-.1 1.3.58 1.13 1.27-.08.32-.3.6-.6.7-.2.1-.4.1-.6.12-.23.03-.47.05-.7.07-1.9.16-3.8.13-5.67-.07-1.7-.2-3.4-.53-5.03-1.02-1.6-.47-3.14-1.1-4.63-1.87-1.5-.77-2.92-1.7-4.26-2.7-1.53-1.17-2.95-2.48-4.2-3.92-1.27-1.42-2.4-2.98-3.34-4.63-.97-1.7-1.77-3.47-2.37-5.3-.62-1.9-1.04-3.85-1.26-5.82-.2-2-.22-4.03 0-6.04.2-1.97.6-3.92 1.2-5.82.6-1.85 1.38-3.64 2.34-5.33.95-1.68 2.08-3.26 3.35-4.72 1.24-1.44 2.65-2.76 4.17-3.92 1.53-1.16 3.2-2.18 4.93-3.02 1.77-.86 3.62-1.53 5.53-2 1.95-.48 3.94-.76 5.94-.82 2-.07 4.02.07 6 .42 1.92.35 3.8.9 5.62 1.62 1.78.72 3.5 1.62 5.1 2.7 1.6 1.05 3.1 2.27 4.45 3.63.57.57 1.1 1.16 1.45 1.9.3.63.5 1.32.53 2.03.1 1.44-.4 2.88-1.37 3.96-1.12 1.25-2.8 1.93-4.47 1.8-.8-.05-1.6-.28-2.3-.68-.38-.2-.72-.46-1.02-.75-.35-.33-.67-.68-1.02-1-1.4-1.3-3-2.4-4.74-3.18-1.8-.8-3.72-1.32-5.67-1.5-2-.17-4.02-.02-5.97.47-1.9.47-3.7 1.26-5.33 2.33-1.6 1.05-3.03 2.36-4.2 3.87-1.2 1.52-2.16 3.23-2.8 5.06-.66 1.87-1 3.84-1 5.8 0 2 .32 4 .98 5.87.63 1.8 1.56 3.52 2.74 5.04 1.18 1.5 2.6 2.82 4.2 3.88 1.63 1.08 3.44 1.9 5.33 2.38 1.94.5 3.97.67 5.97.5 1.95-.17 3.86-.67 5.65-1.46.2-.1.37-.2.57-.23.16-.04.34-.03.5.02.34.1.6.38.7.7.1.34 0 .7-.2.96-.13.15-.3.24-.47.33-.2.1-.43.2-.65.28-1.8.77-3.74 1.25-5.7 1.45-2 .2-4.02.08-5.98-.32.25.3.5.6.72.92.23.32.45.64.67.98.02.05.1.18.1.18s.04 0 .1 0c.1.02.2.03.3.04.2.03.4.04.6.06.84.05 1.67.06 2.5.03 1.63-.07 3.25-.33 4.82-.77 1.53-.42 3-1.02 4.4-1.77 1.37-.73 2.65-1.6 3.83-2.62.3-.24.57-.5.85-.76.25-.23.47-.5.78-.66.53-.27 1.2-.2 1.67.17.47.38.7 1 .55 1.6-.08.3-.24.55-.46.77-.27.27-.55.53-.83.8-1.13 1.03-2.37 1.96-3.7 2.77-1.33.8-2.74 1.5-4.2 2.05-1.52.56-3.08.98-4.67 1.24-1.64.25-3.3.35-4.96.3.13.36.25.73.36 1.1.05.17.1.34.14.5 0 .06.05.22.05.22h.33zm15.93-5.26c.46-.34-2.93 2.2 0 0 .16-.1.35-.18.54-.2.4-.03.78.17.98.5.2.35.2.8-.03 1.12-.13.2-.32.3-.5.44-.2.15-.42.3-.63.44-.4.3-.83.56-1.25.83-1.72 1.04-3.54 1.9-5.43 2.58-.94.33-1.9.6-2.88.84-.44.1-.87.03-1.16-.33-.25-.33-.3-.78-.1-1.14.07-.17.2-.3.37-.4.2-.13.42-.16.63-.2.5-.13.98-.27 1.46-.42.95-.3 1.9-.64 2.8-1.05 1.84-.82 3.58-1.84 5.18-3.04zm3.45-3.07c.4-.43-.36.37 0 0 .46-.5 1.3-.42 1.65.16.14.24.18.53.1.8-.07.33-.34.56-.57.8-.26.28-.54.55-.82.82-.26.24-.58.38-.93.33-.62-.1-1.02-.72-.84-1.3.1-.34.36-.54.6-.77.28-.27.56-.56.83-.84zm-6.5-6c.4-.42-1 1.05 0 0 .34-.36.9-.43 1.3-.17.43.26.6.8.43 1.26-.1.22-.27.4-.45.57-.17.2-.36.37-.55.56-.33.3-.67.6-1.03.9-.38.3-.77.6-1.16.87-.4.3-.95.32-1.34 0-.34-.3-.45-.78-.3-1.2.1-.2.23-.35.4-.47.2-.15.42-.3.63-.46.75-.56 1.44-1.2 2.1-1.87zM30.06 23.27c.35 0 .7.02 1.04.08 1.35.2 2.63.84 3.62 1.8 1 .94 1.68 2.18 1.96 3.53.28 1.38.1 2.84-.47 4.13-.55 1.24-1.48 2.3-2.64 3-1.2.73-2.63 1.07-4.03.96-1.38-.1-2.7-.65-3.78-1.53-1.05-.87-1.82-2.05-2.2-3.36-.38-1.36-.33-2.83.15-4.16.47-1.27 1.33-2.4 2.44-3.18 1.14-.8 2.52-1.25 3.9-1.25z"/></g><g><g transform="translate(1 35)"><use fill="#fff" xlink:href="#a"/><path stroke="#FF7846" d="M12-.5c3.32 0 6.5 1.32 8.84 3.66C23.18 5.5 24.5 8.68 24.5 12c0 6.9-5.6 12.5-12.5 12.5-3.32 0-6.5-1.32-8.84-3.66C.82 18.5-.5 15.32-.5 12c0-3.32 1.32-6.5 3.66-8.84C5.5.82 8.68-.5 12-.5z"/></g><path fill="#FF7846" fill-rule="nonzero" d="M13 53l-6-6h3.6v-4.8h4.8V47H19l-6 6zm0-18c3.18 0 6.23 1.26 8.5 3.5 2.24 2.27 3.5 5.32 3.5 8.5 0 6.63-5.37 12-12 12-3.18 0-6.23-1.26-8.5-3.5C2.27 53.22 1 50.17 1 47c0-3.18 1.26-6.23 3.5-8.5C6.78 36.27 9.83 35 13 35zm0 2.4c-5.3 0-9.6 4.3-9.6 9.6s4.3 9.6 9.6 9.6c2.55 0 5-1 6.8-2.8 1.8-1.8 2.8-4.25 2.8-6.8 0-5.3-4.3-9.6-9.6-9.6z"/></g></g></g></g></svg>