<?xml version="1.0" encoding="UTF-8"?>
<svg width="105px" height="60px" viewBox="0 0 105 60" version="1.1" xmlns="http://www.w3.org/2000/svg" xmlns:xlink="http://www.w3.org/1999/xlink">
    <!-- Generator: Sketch 47.1 (45422) - http://www.bohemiancoding.com/sketch -->
    <title>Group 11</title>
    <desc>Created with Sketch.</desc>
    <defs></defs>
    <g id="Page-1" stroke="none" stroke-width="1" fill="none" fill-rule="evenodd">
        <g id="Evaluating-Enterprise-Ready-Billing-Guide-_-1" transform="translate(-199.000000, -2083.000000)">
            <g id="Group-11" transform="translate(189.000000, 2078.000000)">
                <g id="Group-3" transform="translate(45.000000, 0.000000)">
                    <rect id="Rectangle-2-Copy-2" fill-opacity="0" fill="#FFFFFF" x="0" y="0" width="30" height="30"></rect>
                    <g id="twitter-(6)" transform="translate(4.000000, 7.000000)" fill-rule="nonzero" fill="#000000">
                        <path d="M21.46,2 C20.69,2.35 19.86,2.58 19,2.69 C19.88,2.16 20.56,1.32 20.88,0.31 C20.05,0.81 19.13,1.16 18.16,1.36 C17.37,0.5 16.26,0 15,0 C12.65,0 10.73,1.92 10.73,4.29 C10.73,4.63 10.77,4.96 10.84,5.27 C7.28,5.09 4.11,3.38 2,0.79 C1.63,1.42 1.42,2.16 1.42,2.94 C1.42,4.43 2.17,5.75 3.33,6.5 C2.62,6.5 1.96,6.3 1.38,6 C1.38,6 1.38,6 1.38,6.03 C1.38,8.11 2.86,9.85 4.82,10.24 C4.46,10.34 4.08,10.39 3.69,10.39 C3.42,10.39 3.15,10.36 2.89,10.31 C3.43,12 5,13.26 6.89,13.29 C5.43,14.45 3.58,15.13 1.56,15.13 C1.22,15.13 0.88,15.11 0.54,15.07 C2.44,16.29 4.7,17 7.12,17 C15,17 19.33,10.46 19.33,4.79 C19.33,4.6 19.33,4.42 19.32,4.23 C20.16,3.63 20.88,2.87 21.46,2 Z" id="Shape"></path>
                    </g>
                </g>
                <g id="Group-2" transform="translate(90.000000, 0.000000)">
                    <rect id="Rectangle-2-Copy-3" fill-opacity="0" fill="#FFFFFF" x="0" y="0" width="30" height="30"></rect>
                    <g id="linkedin-(3)" transform="translate(6.000000, 5.000000)" fill-rule="nonzero" fill="#000000">
                        <path d="M19,19 L14.7777778,19 L14.7777778,11.875 C14.7777778,10.7561111 13.5216667,9.82722222 12.4027778,9.82722222 C11.2838889,9.82722222 10.5555556,10.7561111 10.5555556,11.875 L10.5555556,19 L6.33333333,19 L6.33333333,6.33333333 L10.5555556,6.33333333 L10.5555556,8.44444444 C11.2522222,7.315 13.0466667,6.58666667 14.25,6.58666667 C16.8888889,6.58666667 19,8.74 19,11.3472222 L19,19 L19,19 Z M4.22222222,19 L0,19 L0,6.33333333 L4.22222222,6.33333333 L4.22222222,19 L4.22222222,19 Z M2.11111111,0 C3.27704558,0 4.22222222,0.945176639 4.22222222,2.11111111 C4.22222222,3.27704558 3.27704558,4.22222222 2.11111111,4.22222222 C0.945176639,4.22222222 0,3.27704558 0,2.11111111 C0,0.945176639 0.945176639,0 2.11111111,0 Z" id="Shape"></path>
                    </g>
                </g>
                <g id="Group-4">
                    <rect id="Rectangle-2" fill-opacity="0" fill="#FFFFFF" x="0" y="0" width="30" height="30"></rect>
                    <g id="facebook-(6)" transform="translate(10.000000, 5.000000)" fill-rule="nonzero" fill="#202022">
                        <path d="M10,0 L10,0 L10,0 L10,4 L8,4 C7.31,4 7,4.81 7,5.5 L7,8 L7,8 L10,8 L10,12 L7,12 L7,20 L3,20 L3,12 L0,12 L0,8 L3,8 L3,4 C3,1.790861 4.790861,4.4408921e-16 7,0 L10,0 Z" id="Shape"></path>
                    </g>
                </g>
                <g id="Group-9" transform="translate(45.000000, 40.000000)">
                    <rect id="Rectangle-2-Copy-5" fill-opacity="0" fill="#FFFFFF" x="0" y="0" width="30" height="30"></rect>
                    <g id="twitter-(6)-copy-2" transform="translate(4.000000, 7.000000)" fill-rule="nonzero" fill="#7864FF">
                        <path d="M21.46,2 C20.69,2.35 19.86,2.58 19,2.69 C19.88,2.16 20.56,1.32 20.88,0.31 C20.05,0.81 19.13,1.16 18.16,1.36 C17.37,0.5 16.26,0 15,0 C12.65,0 10.73,1.92 10.73,4.29 C10.73,4.63 10.77,4.96 10.84,5.27 C7.28,5.09 4.11,3.38 2,0.79 C1.63,1.42 1.42,2.16 1.42,2.94 C1.42,4.43 2.17,5.75 3.33,6.5 C2.62,6.5 1.96,6.3 1.38,6 C1.38,6 1.38,6 1.38,6.03 C1.38,8.11 2.86,9.85 4.82,10.24 C4.46,10.34 4.08,10.39 3.69,10.39 C3.42,10.39 3.15,10.36 2.89,10.31 C3.43,12 5,13.26 6.89,13.29 C5.43,14.45 3.58,15.13 1.56,15.13 C1.22,15.13 0.88,15.11 0.54,15.07 C2.44,16.29 4.7,17 7.12,17 C15,17 19.33,10.46 19.33,4.79 C19.33,4.6 19.33,4.42 19.32,4.23 C20.16,3.63 20.88,2.87 21.46,2 Z" id="Shape"></path>
                    </g>
                </g>
                <g id="Group-10" transform="translate(90.000000, 40.000000)">
                    <rect id="Rectangle-2-Copy-4" fill-opacity="0" fill="#FFFFFF" x="0" y="0" width="30" height="30"></rect>
                    <g id="linkedin-(3)-copy-2" transform="translate(6.000000, 5.000000)" fill-rule="nonzero" fill="#7864FF">
                        <path d="M19,19 L14.7777778,19 L14.7777778,11.875 C14.7777778,10.7561111 13.5216667,9.82722222 12.4027778,9.82722222 C11.2838889,9.82722222 10.5555556,10.7561111 10.5555556,11.875 L10.5555556,19 L6.33333333,19 L6.33333333,6.33333333 L10.5555556,6.33333333 L10.5555556,8.44444444 C11.2522222,7.315 13.0466667,6.58666667 14.25,6.58666667 C16.8888889,6.58666667 19,8.74 19,11.3472222 L19,19 L19,19 Z M4.22222222,19 L0,19 L0,6.33333333 L4.22222222,6.33333333 L4.22222222,19 L4.22222222,19 Z M2.11111111,0 C3.27704558,0 4.22222222,0.945176639 4.22222222,2.11111111 C4.22222222,3.27704558 3.27704558,4.22222222 2.11111111,4.22222222 C0.945176639,4.22222222 0,3.27704558 0,2.11111111 C0,0.945176639 0.945176639,0 2.11111111,0 Z" id="Shape"></path>
                    </g>
                </g>
                <g id="Group-7" transform="translate(0.000000, 40.000000)">
                    <rect id="Rectangle-2-Copy-6" fill-opacity="0" fill="#FFFFFF" x="0" y="0" width="30" height="30"></rect>
                    <g id="facebook-(6)-copy-2" transform="translate(10.000000, 5.000000)" fill-rule="nonzero" fill="#7864FF">
                        <path d="M10,0 L10,0 L10,0 L10,4 L8,4 C7.31,4 7,4.81 7,5.5 L7,8 L7,8 L10,8 L10,12 L7,12 L7,20 L3,20 L3,12 L0,12 L0,8 L3,8 L3,4 C3,1.790861 4.790861,4.4408921e-16 7,0 L10,0 Z" id="Shape"></path>
                    </g>
                </g>
            </g>
        </g>
    </g>
</svg>