<?xml version="1.0" encoding="UTF-8"?>
<svg width="45px" height="15px" viewBox="0 0 45 15" version="1.1" xmlns="http://www.w3.org/2000/svg" xmlns:xlink="http://www.w3.org/1999/xlink">
    <!-- Generator: Sketch 50.2 (55047) - http://www.bohemiancoding.com/sketch -->
    <title>Group 36</title>
    <desc>Created with Sketch.</desc>
    <defs></defs>
    <g id="Revamp" stroke="none" stroke-width="1" fill="none" fill-rule="evenodd">
        <g id="careers-women-tab" transform="translate(-272.000000, -1102.000000)" fill="#130D23" fill-rule="nonzero">
            <g id="Group-36" transform="translate(273.000000, 1104.000000)">
                <path d="M20.0006986,-16.2282119 C20.7437124,-17.0455271 22.0086091,-17.1057603 22.8259243,-16.3627465 C23.6432396,-15.6197326 23.7034727,-14.354836 22.9604589,-13.5375207 C17.0109438,-6.99305414 17.0109438,-1.59626257 22.8185082,3.63054539 C30.3348501,10.3952531 30.3348501,18.616108 23.0170213,27.3975025 C22.3098931,28.2460563 21.0487637,28.3607044 20.2002099,27.6535762 C19.3516561,26.9464481 19.237008,25.6853187 19.9441362,24.8367649 C25.9596407,17.6181594 25.9596407,11.8390143 20.1426493,6.60372198 C12.6168803,-0.169470066 12.6168803,-8.10601183 20.0006986,-16.2282119 Z" id="Path-3" transform="translate(21.480640, 5.617152) rotate(-90.000000) translate(-21.480640, -5.617152) "></path>
            </g>
        </g>
    </g>
</svg>