<?xml version="1.0" encoding="UTF-8"?>
<svg width="112px" height="106px" viewBox="0 0 112 106" version="1.1" xmlns="http://www.w3.org/2000/svg" xmlns:xlink="http://www.w3.org/1999/xlink">
    <!-- Generator: Sketch 52.6 (67491) - http://www.bohemiancoding.com/sketch -->
    <title>Group 233</title>
    <desc>Created with Sketch.</desc>
    <defs>
        <path d="M0.867,2.069 L3.497,4.339 C3.871,3.368 4.875,2.708 5.738,2.858 C4.947,2.178 3.895,1.269 3.106,0.588 C3.023,0.574 2.939,0.567 2.855,0.567 C2.057,0.567 1.204,1.192 0.867,2.069" id="path-1"></path>
        <path d="M0.867,2.069 L3.497,4.339 C3.871,3.368 4.875,2.708 5.738,2.858 C4.947,2.178 3.895,1.269 3.106,0.588 C3.023,0.574 2.939,0.567 2.855,0.567 C2.057,0.567 1.204,1.192 0.867,2.069" id="path-3"></path>
        <path d="M0.867,2.069 L3.497,4.339 C3.871,3.368 4.875,2.708 5.738,2.858 C4.947,2.178 3.895,1.269 3.106,0.588 C3.023,0.574 2.939,0.567 2.855,0.567 C2.057,0.567 1.204,1.192 0.867,2.069" id="path-5"></path>
        <path d="M0.867,2.069 L3.497,4.339 C3.871,3.368 4.875,2.708 5.738,2.858 C4.947,2.178 3.895,1.269 3.106,0.588 C3.023,0.574 2.939,0.567 2.855,0.567 C2.057,0.567 1.204,1.192 0.867,2.069" id="path-7"></path>
        <path d="M0.867,2.069 L3.497,4.339 C3.871,3.368 4.875,2.708 5.738,2.858 C4.947,2.178 3.895,1.269 3.106,0.588 C3.023,0.574 2.939,0.567 2.855,0.567 C2.057,0.567 1.204,1.192 0.867,2.069" id="path-9"></path>
        <path d="M0.867,2.069 L3.497,4.339 C3.871,3.368 4.875,2.708 5.738,2.858 C4.947,2.178 3.895,1.269 3.106,0.588 C3.023,0.574 2.939,0.567 2.855,0.567 C2.057,0.567 1.204,1.192 0.867,2.069" id="path-11"></path>
        <path d="M0.867,2.069 L3.497,4.339 C3.871,3.368 4.875,2.708 5.738,2.858 C4.947,2.178 3.895,1.269 3.106,0.588 C3.023,0.574 2.939,0.567 2.855,0.567 C2.057,0.567 1.204,1.192 0.867,2.069" id="path-13"></path>
        <path d="M0.867,2.069 L3.497,4.339 C3.871,3.368 4.875,2.708 5.738,2.858 C4.947,2.178 3.895,1.269 3.106,0.588 C3.023,0.574 2.939,0.567 2.855,0.567 C2.057,0.567 1.204,1.192 0.867,2.069" id="path-15"></path>
        <path d="M0.867,2.069 L3.497,4.339 C3.871,3.368 4.875,2.708 5.738,2.858 C4.947,2.178 3.895,1.269 3.106,0.588 C3.023,0.574 2.939,0.567 2.855,0.567 C2.057,0.567 1.204,1.192 0.867,2.069" id="path-17"></path>
        <path d="M0.867,2.069 L3.497,4.339 C3.871,3.368 4.875,2.708 5.738,2.858 C4.947,2.178 3.895,1.269 3.106,0.588 C3.023,0.574 2.939,0.567 2.855,0.567 C2.057,0.567 1.204,1.192 0.867,2.069" id="path-19"></path>
        <path d="M0.867,2.069 L3.497,4.339 C3.871,3.368 4.875,2.708 5.738,2.858 C4.947,2.178 3.895,1.269 3.106,0.588 C3.023,0.574 2.939,0.567 2.855,0.567 C2.057,0.567 1.204,1.192 0.867,2.069" id="path-21"></path>
        <path d="M0.808,1.925 L3.439,4.195 C3.009,3.824 2.868,3.153 3.138,2.451 C2.349,1.77 1.296,0.862 0.507,0.181 C0.237,0.882 0.377,1.554 0.808,1.925" id="path-23"></path>
        <path d="M0.808,1.925 L3.439,4.195 C3.009,3.824 2.868,3.153 3.138,2.451 C2.349,1.77 1.296,0.862 0.507,0.181 C0.237,0.882 0.377,1.554 0.808,1.925" id="path-25"></path>
        <path d="M0.808,1.925 L3.439,4.195 C3.009,3.824 2.868,3.153 3.138,2.451 C2.349,1.77 1.296,0.862 0.507,0.181 C0.237,0.882 0.377,1.554 0.808,1.925" id="path-27"></path>
        <path d="M0.808,1.925 L3.439,4.195 C3.009,3.824 2.868,3.153 3.138,2.451 C2.349,1.77 1.296,0.862 0.507,0.181 C0.237,0.882 0.377,1.554 0.808,1.925" id="path-29"></path>
        <path d="M0.808,1.925 L3.439,4.195 C3.009,3.824 2.868,3.153 3.138,2.451 C2.349,1.77 1.296,0.862 0.507,0.181 C0.237,0.882 0.377,1.554 0.808,1.925" id="path-31"></path>
        <path d="M0.808,1.925 L3.439,4.195 C3.009,3.824 2.868,3.153 3.138,2.451 C2.349,1.77 1.296,0.862 0.507,0.181 C0.237,0.882 0.377,1.554 0.808,1.925" id="path-33"></path>
        <path d="M0.808,1.925 L3.439,4.195 C3.009,3.824 2.868,3.153 3.138,2.451 C2.349,1.77 1.296,0.862 0.507,0.181 C0.237,0.882 0.377,1.554 0.808,1.925" id="path-35"></path>
        <path d="M3.439,3.195 C3.599,3.333 3.798,3.429 4.032,3.469 L1.401,1.2 C1.167,1.159 0.967,1.063 0.808,0.925" id="path-37"></path>
        <path d="M3.446,3.137 C3.764,3.412 4.165,3.604 4.634,3.686 L2.002,1.416 C1.534,1.334 1.134,1.142 0.814,0.866" id="path-39"></path>
        <path d="M3.155,2.624 C3.39,2.665 3.591,2.762 3.751,2.901 L1.12,0.632 C0.959,0.493 0.758,0.396 0.525,0.355" id="path-41"></path>
        <path d="M0.423,2.384 L3.053,4.654 C3.326,3.947 3.183,3.273 2.751,2.901 L0.12,0.632 C0.552,1.003 0.695,1.676 0.423,2.384" id="path-43"></path>
        <path d="M0.423,2.384 L3.053,4.654 C3.326,3.947 3.183,3.273 2.751,2.901 L0.12,0.632 C0.552,1.003 0.695,1.676 0.423,2.384" id="path-45"></path>
        <path d="M0.423,2.384 L3.053,4.654 C3.326,3.947 3.183,3.273 2.751,2.901 L0.12,0.632 C0.552,1.003 0.695,1.676 0.423,2.384" id="path-47"></path>
        <path d="M0.423,2.384 L3.053,4.654 C3.326,3.947 3.183,3.273 2.751,2.901 L0.12,0.632 C0.552,1.003 0.695,1.676 0.423,2.384" id="path-49"></path>
        <path d="M0.423,2.384 L3.053,4.654 C3.326,3.947 3.183,3.273 2.751,2.901 L0.12,0.632 C0.552,1.003 0.695,1.676 0.423,2.384" id="path-51"></path>
        <path d="M0.423,2.384 L3.053,4.654 C3.326,3.947 3.183,3.273 2.751,2.901 L0.12,0.632 C0.552,1.003 0.695,1.676 0.423,2.384" id="path-53"></path>
        <path d="M0.423,2.384 L3.053,4.654 C3.326,3.947 3.183,3.273 2.751,2.901 L0.12,0.632 C0.552,1.003 0.695,1.676 0.423,2.384" id="path-55"></path>
        <path d="M0.705,4.165 L3.336,6.435 C3.876,5.033 3.603,3.696 2.746,2.957 L0.116,0.687 C0.971,1.426 1.245,2.763 0.705,4.165" id="path-57"></path>
        <path d="M0.705,4.165 L3.336,6.435 C3.876,5.033 3.603,3.696 2.746,2.957 L0.116,0.687 C0.971,1.426 1.245,2.763 0.705,4.165" id="path-59"></path>
        <path d="M0.705,4.165 L3.336,6.435 C3.876,5.033 3.603,3.696 2.746,2.957 L0.116,0.687 C0.971,1.426 1.245,2.763 0.705,4.165" id="path-61"></path>
        <path d="M0.705,4.165 L3.336,6.435 C3.876,5.033 3.603,3.696 2.746,2.957 L0.116,0.687 C0.971,1.426 1.245,2.763 0.705,4.165" id="path-63"></path>
        <path d="M0.705,4.165 L3.336,6.435 C3.876,5.033 3.603,3.696 2.746,2.957 L0.116,0.687 C0.971,1.426 1.245,2.763 0.705,4.165" id="path-65"></path>
        <path d="M0.705,4.165 L3.336,6.435 C3.876,5.033 3.603,3.696 2.746,2.957 L0.116,0.687 C0.971,1.426 1.245,2.763 0.705,4.165" id="path-67"></path>
        <path d="M0.705,4.165 L3.336,6.435 C3.876,5.033 3.603,3.696 2.746,2.957 L0.116,0.687 C0.971,1.426 1.245,2.763 0.705,4.165" id="path-69"></path>
        <path d="M0.82,1.967 L3.45,4.236 C4.312,4.387 5.324,3.728 5.695,2.766 L3.063,0.497 C2.693,1.458 1.682,2.117 0.82,1.967" id="path-71"></path>
        <path d="M0.82,1.967 L3.45,4.236 C4.312,4.387 5.324,3.728 5.695,2.766 L3.063,0.497 C2.693,1.458 1.682,2.117 0.82,1.967" id="path-73"></path>
        <path d="M0.82,1.967 L3.45,4.236 C4.312,4.387 5.324,3.728 5.695,2.766 L3.063,0.497 C2.693,1.458 1.682,2.117 0.82,1.967" id="path-75"></path>
        <path d="M0.82,1.967 L3.45,4.236 C4.312,4.387 5.324,3.728 5.695,2.766 L3.063,0.497 C2.693,1.458 1.682,2.117 0.82,1.967" id="path-77"></path>
        <path d="M0.82,1.967 L3.45,4.236 C4.312,4.387 5.324,3.728 5.695,2.766 L3.063,0.497 C2.693,1.458 1.682,2.117 0.82,1.967" id="path-79"></path>
        <path d="M0.82,1.967 L3.45,4.236 C4.312,4.387 5.324,3.728 5.695,2.766 L3.063,0.497 C2.693,1.458 1.682,2.117 0.82,1.967" id="path-81"></path>
        <path d="M0.82,1.967 L3.45,4.236 C4.312,4.387 5.324,3.728 5.695,2.766 L3.063,0.497 C2.693,1.458 1.682,2.117 0.82,1.967" id="path-83"></path>
        <path d="M0.82,1.967 L3.45,4.236 C4.312,4.387 5.324,3.728 5.695,2.766 L3.063,0.497 C2.693,1.458 1.682,2.117 0.82,1.967" id="path-85"></path>
        <path d="M0.82,1.967 L3.45,4.236 C4.312,4.387 5.324,3.728 5.695,2.766 L3.063,0.497 C2.693,1.458 1.682,2.117 0.82,1.967" id="path-87"></path>
        <path d="M0.82,1.967 L3.45,4.236 C4.312,4.387 5.324,3.728 5.695,2.766 L3.063,0.497 C2.693,1.458 1.682,2.117 0.82,1.967" id="path-89"></path>
        <path d="M0.82,1.967 L3.45,4.236 C4.312,4.387 5.324,3.728 5.695,2.766 L3.063,0.497 C2.693,1.458 1.682,2.117 0.82,1.967" id="path-91"></path>
        <polygon id="path-93" points="0.943366144 0.15 85.9831026 0.15 85.9831026 100.406401 0.943366144 100.406401"></polygon>
        <path d="M0.451,3.363 L3.082,5.633 C4.807,5.935 6.796,4.62 7.535,2.696 L4.905,0.427 C4.164,2.35 2.176,3.665 0.451,3.363" id="path-95"></path>
        <path d="M0.451,3.363 L3.082,5.633 C4.807,5.935 6.796,4.62 7.535,2.696 L4.905,0.427 C4.164,2.35 2.176,3.665 0.451,3.363" id="path-97"></path>
        <path d="M0.451,3.363 L3.082,5.633 C4.807,5.935 6.796,4.62 7.535,2.696 L4.905,0.427 C4.164,2.35 2.176,3.665 0.451,3.363" id="path-99"></path>
        <path d="M0.451,3.363 L3.082,5.633 C4.807,5.935 6.796,4.62 7.535,2.696 L4.905,0.427 C4.164,2.35 2.176,3.665 0.451,3.363" id="path-101"></path>
        <path d="M0.451,3.363 L3.082,5.633 C4.807,5.935 6.796,4.62 7.535,2.696 L4.905,0.427 C4.164,2.35 2.176,3.665 0.451,3.363" id="path-103"></path>
        <path d="M0.451,3.363 L3.082,5.633 C4.807,5.935 6.796,4.62 7.535,2.696 L4.905,0.427 C4.164,2.35 2.176,3.665 0.451,3.363" id="path-105"></path>
        <path d="M0.451,3.363 L3.082,5.633 C4.807,5.935 6.796,4.62 7.535,2.696 L4.905,0.427 C4.164,2.35 2.176,3.665 0.451,3.363" id="path-107"></path>
        <path d="M0.451,3.363 L3.082,5.633 C4.807,5.935 6.796,4.62 7.535,2.696 L4.905,0.427 C4.164,2.35 2.176,3.665 0.451,3.363" id="path-109"></path>
        <path d="M0.451,3.363 L3.082,5.633 C4.807,5.935 6.796,4.62 7.535,2.696 L4.905,0.427 C4.164,2.35 2.176,3.665 0.451,3.363" id="path-111"></path>
        <path d="M0.451,3.363 L3.082,5.633 C4.807,5.935 6.796,4.62 7.535,2.696 L4.905,0.427 C4.164,2.35 2.176,3.665 0.451,3.363" id="path-113"></path>
        <path d="M0.451,3.363 L3.082,5.633 C4.807,5.935 6.796,4.62 7.535,2.696 L4.905,0.427 C4.164,2.35 2.176,3.665 0.451,3.363" id="path-115"></path>
    </defs>
    <g id="Page-1" stroke="none" stroke-width="1" fill="none" fill-rule="evenodd">
        <g id="Version-1-Copy" transform="translate(-999.000000, -3317.000000)">
            <g id="Group-233" transform="translate(999.000000, 3316.000000)">
                <polygon id="Fill-1" fill="#E8E8F9" points="3.1473 42.0608 14.8453 45.1608 11.6983 33.4138 0.0003 30.3138"></polygon>
                <polygon id="Fill-2" fill="#C5C5DC" points="0 30.314 11.698 33.414 19.871 25.287 8.173 22.188"></polygon>
                <polygon id="Fill-3" fill="#8C8C96" points="11.6984 33.4134 19.8714 25.2864 23.0184 37.0334 14.8454 45.1604"></polygon>
                <polygon id="Fill-4" fill="#E8E8F9" points="85.5704 65.1414 88.2704 69.7874 85.5704 74.4644 82.8704 69.8184"></polygon>
                <polygon id="Fill-5" fill="#C5C5DC" points="85.5704 65.1414 90.6884 65.1564 93.3884 69.8024 88.2704 69.7874"></polygon>
                <polygon id="Fill-6" fill="#8C8C96" points="88.2706 69.7879 93.3886 69.8029 90.6886 74.4789 85.5706 74.4649"></polygon>
                <polygon id="Fill-7" fill="#E8E8F9" points="88.129 83.8314 85.03 95.5294 73.283 98.6774 76.383 86.9784"></polygon>
                <polygon id="Fill-8" fill="#C5C5DC" points="88.129 83.8314 96.256 92.0044 93.156 103.7024 85.03 95.5294"></polygon>
                <polygon id="Fill-9" fill="#8C8C96" points="73.2834 98.6771 81.4104 106.8501 93.1564 103.7031 85.0304 95.5301"></polygon>
                <g id="Group-43" transform="translate(45.000000, 2.850000)">
                    <g id="Group-12">
                        <mask id="mask-2" fill="white">
                            <use xlink:href="#path-1"></use>
                        </mask>
                        <g id="Clip-11"></g>
                        <path d="M3.1056,0.5883 L5.7376,2.8583 C5.3626,2.7923 4.9606,2.8803 4.5966,3.0803 L1.9646,0.8103 C2.3306,0.6103 2.7316,0.5233 3.1056,0.5883" id="Fill-10" fill="#0B3F7F" mask="url(#mask-2)"></path>
                    </g>
                    <g id="Group-15">
                        <mask id="mask-4" fill="white">
                            <use xlink:href="#path-3"></use>
                        </mask>
                        <g id="Clip-14"></g>
                        <path d="M1.965,0.81 L4.597,3.08 C4.526,3.119 4.455,3.162 4.387,3.209 L1.756,0.939 C1.824,0.893 1.894,0.849 1.965,0.81" id="Fill-13" fill="#0C4284" mask="url(#mask-4)"></path>
                    </g>
                    <g id="Group-18">
                        <mask id="mask-6" fill="white">
                            <use xlink:href="#path-5"></use>
                        </mask>
                        <g id="Clip-17"></g>
                        <path d="M1.756,0.9394 L4.387,3.2094 C4.332,3.2474 4.278,3.2884 4.226,3.3314 L1.595,1.0624 C1.648,1.0184 1.701,0.9784 1.756,0.9394" id="Fill-16" fill="#0C4489" mask="url(#mask-6)"></path>
                    </g>
                    <g id="Group-21">
                        <mask id="mask-8" fill="white">
                            <use xlink:href="#path-7"></use>
                        </mask>
                        <g id="Clip-20"></g>
                        <path d="M1.5949,1.0619 L4.2259,3.3319 C4.1799,3.3699 4.1339,3.4109 4.0899,3.4529 L1.4589,1.1829 C1.5029,1.1409 1.5489,1.0999 1.5949,1.0619" id="Fill-19" fill="#0D478E" mask="url(#mask-8)"></path>
                    </g>
                    <g id="Group-24">
                        <mask id="mask-10" fill="white">
                            <use xlink:href="#path-9"></use>
                        </mask>
                        <g id="Clip-23"></g>
                        <path d="M1.4591,1.1825 L4.0901,3.4525 C4.0501,3.4915 4.0101,3.5325 3.9721,3.5745 L1.3411,1.3045 C1.3791,1.2625 1.4181,1.2215 1.4591,1.1825" id="Fill-22" fill="#0D4992" mask="url(#mask-10)"></path>
                    </g>
                    <g id="Group-27">
                        <mask id="mask-12" fill="white">
                            <use xlink:href="#path-11"></use>
                        </mask>
                        <g id="Clip-26"></g>
                        <path d="M1.341,1.3046 L3.972,3.5746 C3.935,3.6156 3.899,3.6576 3.864,3.7006 L1.234,1.4306 C1.268,1.3876 1.304,1.3456 1.341,1.3046" id="Fill-25" fill="#0E4C97" mask="url(#mask-12)"></path>
                    </g>
                    <g id="Group-30">
                        <mask id="mask-14" fill="white">
                            <use xlink:href="#path-13"></use>
                        </mask>
                        <g id="Clip-29"></g>
                        <path d="M1.2335,1.4306 L3.8645,3.7006 C3.8305,3.7436 3.7965,3.7876 3.7655,3.8336 L1.1345,1.5636 C1.1665,1.5176 1.1995,1.4736 1.2335,1.4306" id="Fill-28" fill="#0E4E9C" mask="url(#mask-14)"></path>
                    </g>
                    <g id="Group-33">
                        <mask id="mask-16" fill="white">
                            <use xlink:href="#path-15"></use>
                        </mask>
                        <g id="Clip-32"></g>
                        <path d="M1.1349,1.5634 L3.7659,3.8334 C3.7339,3.8794 3.7019,3.9284 3.6729,3.9774 L1.0419,1.7074 C1.0719,1.6584 1.1019,1.6104 1.1349,1.5634" id="Fill-31" fill="#0F51A1" mask="url(#mask-16)"></path>
                    </g>
                    <g id="Group-36">
                        <mask id="mask-18" fill="white">
                            <use xlink:href="#path-17"></use>
                        </mask>
                        <g id="Clip-35"></g>
                        <path d="M1.0421,1.707 L3.6731,3.977 C3.6421,4.029 3.6121,4.083 3.5861,4.138 L0.9541,1.868 C0.9811,1.813 1.0111,1.759 1.0421,1.707" id="Fill-34" fill="#0F53A6" mask="url(#mask-18)"></path>
                    </g>
                    <g id="Group-39">
                        <mask id="mask-20" fill="white">
                            <use xlink:href="#path-19"></use>
                        </mask>
                        <g id="Clip-38"></g>
                        <path d="M0.9542,1.8681 L3.5862,4.1381 C3.5552,4.1991 3.5272,4.2621 3.5022,4.3261 L0.8712,2.0571 C0.8952,1.9931 0.9242,1.9301 0.9542,1.8681" id="Fill-37" fill="#0F55AB" mask="url(#mask-20)"></path>
                    </g>
                    <g id="Group-42">
                        <mask id="mask-22" fill="white">
                            <use xlink:href="#path-21"></use>
                        </mask>
                        <g id="Clip-41"></g>
                        <path d="M0.8712,2.0571 L3.5022,4.3271 C3.5002,4.3301 3.4992,4.3341 3.4972,4.3381 L0.8662,2.0691 C0.8682,2.0651 0.8692,2.0611 0.8712,2.0571" id="Fill-40" fill="#1058B0" mask="url(#mask-22)"></path>
                    </g>
                </g>
                <polygon id="Fill-44" fill="#0B3D7A" points="59.3644 5.4066 61.9954 7.6766 50.7374 5.7076 48.1054 3.4386"></polygon>
                <polygon id="Fill-45" fill="#CDCDCD" points="59.3644 5.4066 61.9954 7.6766 61.6744 10.3286 59.0434 8.0586"></polygon>
                <polygon id="Fill-46" fill="#1057AF" points="81.2658 9.2362 83.8978 11.5062 82.2748 13.9302 79.6438 11.6602"></polygon>
                <polygon id="Fill-47" fill="#0B3D7A" points="79.6437 11.6605 82.2747 13.9305 61.6737 10.3285 59.0427 8.0585"></polygon>
                <polygon id="Fill-48" fill="#115EBC" points="45.8663 4.9188 48.4973 7.1888 16.1373 91.3008 13.5073 89.0308"></polygon>
                <g id="Group-70" transform="translate(13.000000, 88.850000)">
                    <g id="Group-51">
                        <mask id="mask-24" fill="white">
                            <use xlink:href="#path-23"></use>
                        </mask>
                        <g id="Clip-50"></g>
                        <path d="M0.507,0.1811 L3.138,2.4511 C3.108,2.5301 3.082,2.6091 3.062,2.6871 L0.431,0.4171 C0.451,0.3391 0.477,0.2601 0.507,0.1811" id="Fill-49" fill="#1058B0" mask="url(#mask-24)"></path>
                    </g>
                    <g id="Group-54">
                        <mask id="mask-26" fill="white">
                            <use xlink:href="#path-25"></use>
                        </mask>
                        <g id="Clip-53"></g>
                        <path d="M0.4308,0.4174 L3.0618,2.6874 C2.9808,3.0004 2.9818,3.3024 3.0528,3.5654 L0.4218,1.2964 C0.3508,1.0324 0.3498,0.7314 0.4308,0.4174" id="Fill-52" fill="#105AB5" mask="url(#mask-26)"></path>
                    </g>
                    <g id="Group-57">
                        <mask id="mask-28" fill="white">
                            <use xlink:href="#path-27"></use>
                        </mask>
                        <g id="Clip-56"></g>
                        <path d="M0.422,1.2963 L3.053,3.5663 C3.072,3.6393 3.098,3.7093 3.128,3.7753 L0.497,1.5063 C0.467,1.4393 0.442,1.3693 0.422,1.2963" id="Fill-55" fill="#1058B0" mask="url(#mask-28)"></path>
                    </g>
                    <g id="Group-60">
                        <mask id="mask-30" fill="white">
                            <use xlink:href="#path-29"></use>
                        </mask>
                        <g id="Clip-59"></g>
                        <path d="M0.4972,1.5063 L3.1282,3.7763 C3.1512,3.8273 3.1782,3.8763 3.2072,3.9233 L0.5752,1.6533 C0.5462,1.6063 0.5192,1.5573 0.4972,1.5063" id="Fill-58" fill="#0F55AB" mask="url(#mask-30)"></path>
                    </g>
                    <g id="Group-63">
                        <mask id="mask-32" fill="white">
                            <use xlink:href="#path-31"></use>
                        </mask>
                        <g id="Clip-62"></g>
                        <path d="M0.5753,1.6533 L3.2073,3.9233 C3.2323,3.9653 3.2613,4.0043 3.2913,4.0423 L0.6603,1.7723 C0.6303,1.7343 0.6013,1.6953 0.5753,1.6533" id="Fill-61" fill="#0F53A6" mask="url(#mask-32)"></path>
                    </g>
                    <g id="Group-66">
                        <mask id="mask-34" fill="white">
                            <use xlink:href="#path-33"></use>
                        </mask>
                        <g id="Clip-65"></g>
                        <path d="M0.6603,1.7724 L3.2913,4.0424 C3.3193,4.0774 3.3483,4.1094 3.3813,4.1414 L0.7493,1.8714 C0.7183,1.8404 0.6873,1.8074 0.6603,1.7724" id="Fill-64" fill="#0F51A1" mask="url(#mask-34)"></path>
                    </g>
                    <g id="Group-69">
                        <mask id="mask-36" fill="white">
                            <use xlink:href="#path-35"></use>
                        </mask>
                        <g id="Clip-68"></g>
                        <path d="M0.7492,1.8715 L3.3812,4.1415 C3.3992,4.1595 3.4192,4.1775 3.4382,4.1945 L0.8082,1.9245 C0.7872,1.9075 0.7692,1.8905 0.7492,1.8715" id="Fill-67" fill="#0E4E9C" mask="url(#mask-36)"></path>
                    </g>
                </g>
                <g id="Group-73" transform="translate(13.000000, 89.850000)">
                    <mask id="mask-38" fill="white">
                        <use xlink:href="#path-37"></use>
                    </mask>
                    <g id="Clip-72"></g>
                    <path d="M1.4005,1.1996 L4.0315,3.4696 C3.7975,3.4286 3.5985,3.3326 3.4385,3.1946 L0.8075,0.9246 C0.9665,1.0626 1.1675,1.1586 1.4005,1.1996" id="Fill-71" fill="#858585" mask="url(#mask-38)"></path>
                </g>
                <path d="M14.4454,94.9867 L11.8144,92.7167 C12.1334,92.9917 12.5344,93.1847 13.0024,93.2667 L15.6334,95.5367 C15.1654,95.4547 14.7644,95.2617 14.4454,94.9867" id="Fill-74" fill="#1F0256"></path>
                <g id="Group-78" transform="translate(11.000000, 91.850000)">
                    <mask id="mask-40" fill="white">
                        <use xlink:href="#path-39"></use>
                    </mask>
                    <g id="Clip-77"></g>
                    <path d="M2.0021,1.4164 L4.6341,3.6864 C4.1651,3.6044 3.7651,3.4124 3.4451,3.1364 L0.8151,0.8664 C1.1341,1.1424 1.5341,1.3344 2.0021,1.4164" id="Fill-76" fill="#0B3F7F" mask="url(#mask-40)"></path>
                </g>
                <polygon id="Fill-79" fill="#0B3D7A" points="92.5246 11.2049 95.1556 13.4749 83.8976 11.5059 81.2656 9.2359"></polygon>
                <g id="Group-83" transform="translate(92.000000, 10.850000)">
                    <mask id="mask-42" fill="white">
                        <use xlink:href="#path-41"></use>
                    </mask>
                    <g id="Clip-82"></g>
                    <path d="M1.1203,0.6313 L3.7513,2.9013 C3.5913,2.7623 3.3903,2.6653 3.1553,2.6243 L0.5243,0.3553 C0.7593,0.3953 0.9593,0.4923 1.1203,0.6313" id="Fill-81" fill="#0B3F7F" mask="url(#mask-42)"></path>
                </g>
                <g id="Group-105" transform="translate(93.000000, 10.850000)">
                    <g id="Group-86">
                        <mask id="mask-44" fill="white">
                            <use xlink:href="#path-43"></use>
                        </mask>
                        <g id="Clip-85"></g>
                        <path d="M0.1203,0.6313 L2.7513,2.9013 C2.7713,2.9183 2.7913,2.9363 2.8093,2.9553 L0.1793,0.6853 C0.1603,0.6663 0.1413,0.6483 0.1203,0.6313" id="Fill-84" fill="#A3A3A3" mask="url(#mask-44)"></path>
                    </g>
                    <g id="Group-89">
                        <mask id="mask-46" fill="white">
                            <use xlink:href="#path-45"></use>
                        </mask>
                        <g id="Clip-88"></g>
                        <path d="M0.1788,0.685 L2.8098,2.955 C2.8418,2.986 2.8718,3.02 2.9008,3.055 L0.2688,0.785 C0.2408,0.75 0.2108,0.717 0.1788,0.685" id="Fill-87" fill="#A8A8A8" mask="url(#mask-46)"></path>
                    </g>
                    <g id="Group-92">
                        <mask id="mask-48" fill="white">
                            <use xlink:href="#path-47"></use>
                        </mask>
                        <g id="Clip-91"></g>
                        <path d="M0.2687,0.7851 L2.9007,3.0551 C2.9307,3.0931 2.9587,3.1331 2.9847,3.1741 L0.3537,0.9051 C0.3287,0.8631 0.2997,0.8231 0.2687,0.7851" id="Fill-90" fill="#ADADAD" mask="url(#mask-48)"></path>
                    </g>
                    <g id="Group-95">
                        <mask id="mask-50" fill="white">
                            <use xlink:href="#path-49"></use>
                        </mask>
                        <g id="Clip-94"></g>
                        <path d="M0.3537,0.9047 L2.9847,3.1747 C3.0147,3.2217 3.0417,3.2707 3.0647,3.3227 L0.4327,1.0527 C0.4097,1.0017 0.3827,0.9517 0.3537,0.9047" id="Fill-93" fill="#B3B3B3" mask="url(#mask-50)"></path>
                    </g>
                    <g id="Group-98">
                        <mask id="mask-52" fill="white">
                            <use xlink:href="#path-51"></use>
                        </mask>
                        <g id="Clip-97"></g>
                        <path d="M0.4328,1.0527 L3.0648,3.3227 C3.0948,3.3897 3.1208,3.4607 3.1398,3.5337 L0.5088,1.2637 C0.4888,1.1907 0.4638,1.1197 0.4328,1.0527" id="Fill-96" fill="#B8B8B8" mask="url(#mask-52)"></path>
                    </g>
                    <g id="Group-101">
                        <mask id="mask-54" fill="white">
                            <use xlink:href="#path-53"></use>
                        </mask>
                        <g id="Clip-100"></g>
                        <path d="M0.5089,1.2636 L3.1399,3.5336 C3.2109,3.7976 3.2119,4.1006 3.1299,4.4156 L0.4989,2.1456 C0.5809,1.8306 0.5799,1.5286 0.5089,1.2636" id="Fill-99" fill="#BDBDBD" mask="url(#mask-54)"></path>
                    </g>
                    <g id="Group-104">
                        <mask id="mask-56" fill="white">
                            <use xlink:href="#path-55"></use>
                        </mask>
                        <g id="Clip-103"></g>
                        <path d="M0.4992,2.1459 L3.1302,4.4159 C3.1102,4.4949 3.0852,4.5739 3.0542,4.6539 L0.4232,2.3839 C0.4532,2.3039 0.4782,2.2249 0.4992,2.1459" id="Fill-102" fill="#B8B8B8" mask="url(#mask-56)"></path>
                    </g>
                </g>
                <path d="M95.1154,9.5374 L97.7464,11.8074 C98.6024,12.5464 98.8764,13.8834 98.3364,15.2854 L95.7054,13.0154 C96.2454,11.6134 95.9704,10.2764 95.1154,9.5374" id="Fill-106" fill="#1F0256"></path>
                <g id="Group-129" transform="translate(95.000000, 8.850000)">
                    <g id="Group-110">
                        <mask id="mask-58" fill="white">
                            <use xlink:href="#path-57"></use>
                        </mask>
                        <g id="Clip-109"></g>
                        <path d="M0.1154,0.6874 L2.7464,2.9574 C2.7854,2.9914 2.8244,3.0264 2.8604,3.0634 L0.2294,0.7934 C0.1924,0.7564 0.1544,0.7214 0.1154,0.6874" id="Fill-108" fill="#1F0256" mask="url(#mask-58)"></path>
                    </g>
                    <g id="Group-113">
                        <mask id="mask-60" fill="white">
                            <use xlink:href="#path-59"></use>
                        </mask>
                        <g id="Clip-112"></g>
                        <path d="M0.2296,0.7934 L2.8606,3.0634 C2.9236,3.1254 2.9826,3.1904 3.0386,3.2594 L0.4076,0.9904 C0.3516,0.9214 0.2916,0.8554 0.2296,0.7934" id="Fill-111" fill="#1F0256" mask="url(#mask-60)"></path>
                    </g>
                    <g id="Group-116">
                        <mask id="mask-62" fill="white">
                            <use xlink:href="#path-61"></use>
                        </mask>
                        <g id="Clip-115"></g>
                        <path d="M0.4074,0.9902 L3.0384,3.2602 C3.0984,3.3342 3.1544,3.4132 3.2054,3.4952 L0.5744,1.2252 C0.5224,1.1432 0.4674,1.0642 0.4074,0.9902" id="Fill-114" fill="#1F0256" mask="url(#mask-62)"></path>
                    </g>
                    <g id="Group-119">
                        <mask id="mask-64" fill="white">
                            <use xlink:href="#path-63"></use>
                        </mask>
                        <g id="Clip-118"></g>
                        <path d="M0.5744,1.225 L3.2054,3.495 C3.2624,3.588 3.3144,3.685 3.3614,3.787 L0.7294,1.517 C0.6834,1.415 0.6324,1.318 0.5744,1.225" id="Fill-117" fill="#1F0256" mask="url(#mask-64)"></path>
                    </g>
                    <g id="Group-122">
                        <mask id="mask-66" fill="white">
                            <use xlink:href="#path-65"></use>
                        </mask>
                        <g id="Clip-121"></g>
                        <path d="M0.7296,1.5165 L3.3616,3.7865 C3.4206,3.9185 3.4706,4.0575 3.5096,4.2025 L0.8786,1.9325 C0.8396,1.7875 0.7906,1.6485 0.7296,1.5165" id="Fill-120" fill="#1F0256" mask="url(#mask-66)"></path>
                    </g>
                    <g id="Group-125">
                        <mask id="mask-68" fill="white">
                            <use xlink:href="#path-67"></use>
                        </mask>
                        <g id="Clip-124"></g>
                        <path d="M0.879,1.9325 L3.51,4.2025 C3.651,4.7275 3.652,5.3295 3.489,5.9585 L0.858,3.6885 C1.021,3.0605 1.021,2.4585 0.879,1.9325" id="Fill-123" fill="#1F0256" mask="url(#mask-68)"></path>
                    </g>
                    <g id="Group-128">
                        <mask id="mask-70" fill="white">
                            <use xlink:href="#path-69"></use>
                        </mask>
                        <g id="Clip-127"></g>
                        <path d="M0.8585,3.6884 L3.4895,5.9584 C3.4495,6.1154 3.3985,6.2744 3.3365,6.4354 L0.7055,4.1654 C0.7665,4.0054 0.8175,3.8464 0.8585,3.6884" id="Fill-126" fill="#1F0256" mask="url(#mask-70)"></path>
                    </g>
                </g>
                <g id="Group-136" transform="translate(13.000000, 2.850000)">
                    <polygon id="Fill-130" fill="#808080" points="45.8195 95.9662 48.4505 98.2362 4.0315 90.4692 1.4005 88.1992"></polygon>
                    <polygon id="Fill-132" fill="#C5C5C5" points="80.423 10.3837 83.054 12.6537 50.694 96.7657 48.064 94.4967"></polygon>
                    <path d="M79.5246,8.3549 C80.3866,8.5049 80.7956,9.4139 80.4226,10.3839 L48.0636,94.4969 C47.6936,95.4579 46.6816,96.1169 45.8196,95.9659 L1.4006,88.1999 C0.5386,88.0489 0.1366,87.1429 0.5066,86.1809 L32.8666,2.0689 C33.2396,1.0979 34.2436,0.4379 35.1056,0.5879 L46.3646,2.5569 L46.0436,5.2089 L66.6436,8.8109 L68.2666,6.3859 L79.5246,8.3549 Z" id="Fill-134" fill="#FFFFFF"></path>
                </g>
                <g id="Group-170" transform="translate(58.000000, 96.850000)">
                    <g id="Group-139">
                        <mask id="mask-72" fill="white">
                            <use xlink:href="#path-71"></use>
                        </mask>
                        <g id="Clip-138"></g>
                        <path d="M3.0636,0.4965 L5.6946,2.7665 C5.6936,2.7695 5.6916,2.7735 5.6906,2.7775 L3.0586,0.5075 C3.0606,0.5035 3.0616,0.4995 3.0636,0.4965" id="Fill-137" fill="#B8B8B8" mask="url(#mask-72)"></path>
                    </g>
                    <g id="Group-142">
                        <mask id="mask-74" fill="white">
                            <use xlink:href="#path-73"></use>
                        </mask>
                        <g id="Clip-141"></g>
                        <path d="M3.0587,0.5078 L5.6907,2.7778 C5.6657,2.8408 5.6387,2.9018 5.6087,2.9618 L2.9777,0.6918 C3.0067,0.6318 3.0347,0.5698 3.0587,0.5078" id="Fill-140" fill="#B3B3B3" mask="url(#mask-74)"></path>
                    </g>
                    <g id="Group-145">
                        <mask id="mask-76" fill="white">
                            <use xlink:href="#path-75"></use>
                        </mask>
                        <g id="Clip-144"></g>
                        <path d="M2.9777,0.6913 L5.6087,2.9613 C5.5817,3.0153 5.5537,3.0673 5.5237,3.1183 L2.8917,0.8483 C2.9227,0.7973 2.9517,0.7453 2.9777,0.6913" id="Fill-143" fill="#ADADAD" mask="url(#mask-76)"></path>
                    </g>
                    <g id="Group-148">
                        <mask id="mask-78" fill="white">
                            <use xlink:href="#path-77"></use>
                        </mask>
                        <g id="Clip-147"></g>
                        <path d="M2.8917,0.8486 L5.5237,3.1186 C5.4947,3.1666 5.4637,3.2136 5.4327,3.2596 L2.8007,0.9906 C2.8327,0.9446 2.8637,0.8966 2.8917,0.8486" id="Fill-146" fill="#A8A8A8" mask="url(#mask-78)"></path>
                    </g>
                    <g id="Group-151">
                        <mask id="mask-80" fill="white">
                            <use xlink:href="#path-79"></use>
                        </mask>
                        <g id="Clip-150"></g>
                        <path d="M2.8009,0.9902 L5.4329,3.2602 C5.4019,3.3042 5.3689,3.3482 5.3349,3.3912 L2.7039,1.1212 C2.7379,1.0782 2.7709,1.0352 2.8009,0.9902" id="Fill-149" fill="#A3A3A3" mask="url(#mask-80)"></path>
                    </g>
                    <g id="Group-154">
                        <mask id="mask-82" fill="white">
                            <use xlink:href="#path-81"></use>
                        </mask>
                        <g id="Clip-153"></g>
                        <path d="M2.7042,1.121 L5.3352,3.391 C5.3012,3.434 5.2652,3.475 5.2282,3.516 L2.5982,1.246 C2.6342,1.205 2.6702,1.164 2.7042,1.121" id="Fill-152" fill="#9E9E9E" mask="url(#mask-82)"></path>
                    </g>
                    <g id="Group-157">
                        <mask id="mask-84" fill="white">
                            <use xlink:href="#path-83"></use>
                        </mask>
                        <g id="Clip-156"></g>
                        <path d="M2.5978,1.246 L5.2288,3.516 C5.1908,3.558 5.1508,3.598 5.1108,3.637 L2.4798,1.367 C2.5198,1.329 2.5598,1.288 2.5978,1.246" id="Fill-155" fill="#999999" mask="url(#mask-84)"></path>
                    </g>
                    <g id="Group-160">
                        <mask id="mask-86" fill="white">
                            <use xlink:href="#path-85"></use>
                        </mask>
                        <g id="Clip-159"></g>
                        <path d="M2.4796,1.3671 L5.1106,3.6371 C5.0666,3.6791 5.0216,3.7201 4.9746,3.7581 L2.3436,1.4881 C2.3896,1.4501 2.4356,1.4091 2.4796,1.3671" id="Fill-158" fill="#949494" mask="url(#mask-86)"></path>
                    </g>
                    <g id="Group-163">
                        <mask id="mask-88" fill="white">
                            <use xlink:href="#path-87"></use>
                        </mask>
                        <g id="Clip-162"></g>
                        <path d="M2.3439,1.4877 L4.9749,3.7577 C4.9219,3.8007 4.8679,3.8417 4.8129,3.8807 L2.1819,1.6107 C2.2379,1.5727 2.2909,1.5307 2.3439,1.4877" id="Fill-161" fill="#8F8F8F" mask="url(#mask-88)"></path>
                    </g>
                    <g id="Group-166">
                        <mask id="mask-90" fill="white">
                            <use xlink:href="#path-89"></use>
                        </mask>
                        <g id="Clip-165"></g>
                        <path d="M2.1818,1.6108 L4.8128,3.8808 C4.7448,3.9288 4.6738,3.9718 4.6028,4.0108 L1.9708,1.7418 C2.0428,1.7018 2.1138,1.6588 2.1818,1.6108" id="Fill-164" fill="#8A8A8A" mask="url(#mask-90)"></path>
                    </g>
                    <g id="Group-169">
                        <mask id="mask-92" fill="white">
                            <use xlink:href="#path-91"></use>
                        </mask>
                        <g id="Clip-168"></g>
                        <path d="M1.9708,1.7416 L4.6028,4.0116 C4.2338,4.2136 3.8268,4.3026 3.4498,4.2366 L0.8198,1.9666 C1.1968,2.0326 1.6028,1.9436 1.9708,1.7416" id="Fill-167" fill="#858585" mask="url(#mask-92)"></path>
                    </g>
                </g>
                <g id="Group-180" transform="translate(10.000000, 0.850000)">
                    <polygon id="Fill-171" fill="#1F0256" points="48.4503 100.3632 51.0823 102.6332 5.6343 94.6862 3.0023 92.4162"></polygon>
                    <polygon id="Fill-173" fill="#1F0256" points="85.7052 12.165 88.3362 14.435 55.5352 99.696 52.9042 97.426"></polygon>
                    <g id="Group-177">
                        <mask id="mask-94" fill="white">
                            <use xlink:href="#path-93"></use>
                        </mask>
                        <g id="Clip-176"></g>
                        <path d="M51.0636,96.4965 L83.4226,12.3835 C83.7956,11.4135 83.3866,10.5055 82.5246,10.3545 L71.2656,8.3865 L69.6436,10.8105 L49.0426,7.2085 L49.3646,4.5565 L38.1056,2.5885 C37.2436,2.4375 36.2396,3.0985 35.8666,4.0685 L3.5066,88.1815 C3.1366,89.1425 3.5386,90.0495 4.4006,90.1995 L48.8196,97.9665 C49.6816,98.1175 50.6936,97.4575 51.0636,96.4965 Z M83.9306,8.1395 C85.6556,8.4405 86.4456,10.2425 85.7056,12.1645 L52.9046,97.4265 C52.1646,99.3495 50.1756,100.6645 48.4506,100.3635 L3.0016,92.4165 C1.2776,92.1155 0.4796,90.3125 1.2196,88.3895 L34.0206,3.1285 C34.7606,1.2045 36.7576,-0.1085 38.4826,0.1925 L83.9306,8.1395 Z" id="Fill-175" fill="#167AF4" mask="url(#mask-94)"></path>
                    </g>
                    <path d="M52.9044,97.4262 L55.5354,99.6962 C54.7954,101.6192 52.8064,102.9342 51.0824,102.6332 L48.4504,100.3632 C50.1754,100.6652 52.1644,99.3492 52.9044,97.4262" id="Fill-178" fill="#1F0256"></path>
                </g>
                <g id="Group-214" transform="translate(58.000000, 97.850000)">
                    <g id="Group-183">
                        <mask id="mask-96" fill="white">
                            <use xlink:href="#path-95"></use>
                        </mask>
                        <g id="Clip-182"></g>
                        <path d="M4.9044,0.4262 L7.5354,2.6962 L7.5264,2.7192 L4.8944,0.4492 C4.8984,0.4422 4.9014,0.4342 4.9044,0.4262" id="Fill-181" fill="#1F0256" mask="url(#mask-96)"></path>
                    </g>
                    <g id="Group-186">
                        <mask id="mask-98" fill="white">
                            <use xlink:href="#path-97"></use>
                        </mask>
                        <g id="Clip-185"></g>
                        <path d="M4.8947,0.4496 L7.5267,2.7196 C7.4767,2.8476 7.4207,2.9726 7.3607,3.0946 L4.7287,0.8246 C4.7897,0.7026 4.8447,0.5776 4.8947,0.4496" id="Fill-184" fill="#1F0256" mask="url(#mask-98)"></path>
                    </g>
                    <g id="Group-189">
                        <mask id="mask-100" fill="white">
                            <use xlink:href="#path-99"></use>
                        </mask>
                        <g id="Clip-188"></g>
                        <path d="M4.7287,0.8246 L7.3607,3.0946 C7.3057,3.2036 7.2487,3.3096 7.1867,3.4136 L4.5547,1.1436 C4.6177,1.0406 4.6747,0.9336 4.7287,0.8246" id="Fill-187" fill="#1F0256" mask="url(#mask-100)"></path>
                    </g>
                    <g id="Group-192">
                        <mask id="mask-102" fill="white">
                            <use xlink:href="#path-101"></use>
                        </mask>
                        <g id="Clip-191"></g>
                        <path d="M4.5548,1.144 L7.1868,3.414 C7.1278,3.512 7.0678,3.607 7.0028,3.7 L4.3708,1.43 C4.4358,1.337 4.4968,1.242 4.5548,1.144" id="Fill-190" fill="#1F0256" mask="url(#mask-102)"></path>
                    </g>
                    <g id="Group-195">
                        <mask id="mask-104" fill="white">
                            <use xlink:href="#path-103"></use>
                        </mask>
                        <g id="Clip-194"></g>
                        <path d="M4.3712,1.4296 L7.0032,3.6996 C6.9402,3.7896 6.8752,3.8776 6.8072,3.9636 L4.1762,1.6936 C4.2432,1.6076 4.3092,1.5196 4.3712,1.4296" id="Fill-193" fill="#1F0256" mask="url(#mask-104)"></path>
                    </g>
                    <g id="Group-198">
                        <mask id="mask-106" fill="white">
                            <use xlink:href="#path-105"></use>
                        </mask>
                        <g id="Clip-197"></g>
                        <path d="M4.1759,1.6933 L6.8069,3.9633 C6.7389,4.0493 6.6669,4.1323 6.5939,4.2133 L3.9629,1.9433 C4.0359,1.8623 4.1079,1.7793 4.1759,1.6933" id="Fill-196" fill="#1F0256" mask="url(#mask-106)"></path>
                    </g>
                    <g id="Group-201">
                        <mask id="mask-108" fill="white">
                            <use xlink:href="#path-107"></use>
                        </mask>
                        <g id="Clip-200"></g>
                        <path d="M3.963,1.9433 L6.594,4.2133 C6.518,4.2963 6.44,4.3773 6.359,4.4543 L3.728,2.1843 C3.809,2.1073 3.887,2.0263 3.963,1.9433" id="Fill-199" fill="#1F0256" mask="url(#mask-108)"></path>
                    </g>
                    <g id="Group-204">
                        <mask id="mask-110" fill="white">
                            <use xlink:href="#path-109"></use>
                        </mask>
                        <g id="Clip-203"></g>
                        <path d="M3.7277,2.1845 L6.3587,4.4545 C6.2717,4.5385 6.1817,4.6185 6.0897,4.6935 L3.4577,2.4245 C3.5507,2.3485 3.6407,2.2675 3.7277,2.1845" id="Fill-202" fill="#1F0256" mask="url(#mask-110)"></path>
                    </g>
                    <g id="Group-207">
                        <mask id="mask-112" fill="white">
                            <use xlink:href="#path-111"></use>
                        </mask>
                        <g id="Clip-206"></g>
                        <path d="M3.4581,2.4243 L6.0901,4.6943 C5.9861,4.7793 5.8801,4.8603 5.7711,4.9363 L3.1401,2.6663 C3.2481,2.5903 3.3541,2.5093 3.4581,2.4243" id="Fill-205" fill="#1F0256" mask="url(#mask-112)"></path>
                    </g>
                    <g id="Group-210">
                        <mask id="mask-114" fill="white">
                            <use xlink:href="#path-113"></use>
                        </mask>
                        <g id="Clip-209"></g>
                        <path d="M3.1398,2.666 L5.7708,4.936 C5.6358,5.03 5.4968,5.116 5.3568,5.193 L2.7248,2.923 C2.8668,2.846 3.0048,2.76 3.1398,2.666" id="Fill-208" fill="#1F0256" mask="url(#mask-114)"></path>
                    </g>
                    <g id="Group-213">
                        <mask id="mask-116" fill="white">
                            <use xlink:href="#path-115"></use>
                        </mask>
                        <g id="Clip-212"></g>
                        <path d="M2.7247,2.9228 L5.3567,5.1928 C4.6307,5.5898 3.8307,5.7638 3.0817,5.6328 L0.4507,3.3628 C1.2007,3.4938 1.9997,3.3198 2.7247,2.9228" id="Fill-211" fill="#1F0256" mask="url(#mask-116)"></path>
                    </g>
                </g>
                <polygon id="Fill-215" fill="#E8E8F9" points="45.7137 8.1047 46.8487 8.3027 47.1377 7.5527 46.0017 7.3537"></polygon>
                <g id="Group-232" transform="translate(28.000000, 5.850000)">
                    <path d="M23.6408,70.1489 L7.8688,67.3919 C7.1218,67.2609 6.2618,67.8339 5.9418,68.6659 C5.6208,69.4979 5.9608,70.2809 6.7068,70.4119 L22.4788,73.1689 C23.2248,73.2999 24.0938,72.7279 24.4138,71.8959 C24.7348,71.0639 24.3868,70.2789 23.6408,70.1489" id="Fill-216" fill="#E8E8F9"></path>
                    <polygon id="Fill-218" fill="#E8E8F9" points="22.0685 3.016 23.0315 0.512 21.8875 0.311 20.9245 2.816"></polygon>
                    <polygon id="Fill-220" fill="#E8E8F9" points="20.5031 2.7426 21.1781 0.9886 20.0341 0.7886 19.3591 2.5426"></polygon>
                    <path d="M30.9064,61.7016 L7.6174,57.6296 C6.8714,57.4986 6.0024,58.0706 5.6814,58.9026 C5.3624,59.7346 5.7134,60.5106 6.4594,60.6406 L29.7474,64.7126 C30.4934,64.8436 31.3504,64.2786 31.6714,63.4466 C31.9914,62.6156 31.6524,61.8316 30.9064,61.7016" id="Fill-222" fill="#E8E8F9"></path>
                    <polygon id="Fill-224" fill="#E8E8F9" points="57.2853 7.08 56.9693 7.024 56.4233 8.444 56.7393 8.499 56.5303 9.042 61.3473 9.884 62.3103 7.379 57.4943 6.537"></polygon>
                    <path d="M24.7882,48.2695 L28.3602,47.4655 L28.4702,43.8945 L26.1182,44.4295 L26.2982,38.5645 L28.6382,38.0385 L28.7372,34.6965 L25.2292,35.4925 L24.0162,36.8245 L23.7142,46.9235 L24.7882,48.2695 M30.4912,30.4775 C35.9962,31.4395 38.5562,37.2055 36.1902,43.3535 C33.8252,49.5025 27.4332,53.7015 21.9272,52.7395 C16.4122,51.7745 13.8612,46.0115 16.2262,39.8625 C18.5922,33.7145 24.9762,29.5135 30.4912,30.4775" id="Fill-226" fill="#167AF4"></path>
                    <path d="M83.5949,54.7651 C83.5949,57.7161 81.2029,60.1071 78.2519,60.1071 C75.3019,60.1071 72.9099,57.7161 72.9099,54.7651 C72.9099,51.8141 75.3019,49.4231 78.2519,49.4231 C81.2029,49.4231 83.5949,51.8141 83.5949,54.7651" id="Fill-228" fill="#E8E8F9"></path>
                    <path d="M5.8839,19.4364 C5.8839,20.7894 4.7869,21.8854 3.4349,21.8854 C2.0819,21.8854 0.9869,20.7894 0.9869,19.4364 C0.9869,18.0844 2.0819,16.9874 3.4349,16.9874 C4.7869,16.9874 5.8839,18.0844 5.8839,19.4364" id="Fill-230" fill="#E8E8F9"></path>
                </g>
            </g>
        </g>
    </g>
</svg>