<?xml version="1.0" encoding="UTF-8"?>
<svg width="110px" height="108px" viewBox="0 0 110 108" version="1.1" xmlns="http://www.w3.org/2000/svg" xmlns:xlink="http://www.w3.org/1999/xlink">
    <!-- Generator: Sketch 52.6 (67491) - http://www.bohemiancoding.com/sketch -->
    <title>Group 199</title>
    <desc>Created with Sketch.</desc>
    <defs>
        <path d="M5.58,13.614 C-1.563,23.868 -1.203,36.124 5.805,43.005 L8.795,45.941 C1.788,39.06 1.427,26.805 8.57,16.55 C16.76,4.788 31.75,0.039 41.984,5.948 C43.29,6.702 44.458,7.594 45.482,8.6 L42.493,5.664 C41.467,4.658 40.301,3.766 38.995,3.013 C36.008,1.288 32.618,0.472 29.108,0.472 C20.592,0.472 11.381,5.284 5.58,13.614" id="path-1"></path>
        <path d="M5.58,13.614 C-1.563,23.868 -1.203,36.124 5.805,43.005 L8.795,45.941 C1.788,39.06 1.427,26.805 8.57,16.55 C16.76,4.788 31.75,0.039 41.984,5.948 C43.29,6.702 44.458,7.594 45.482,8.6 L42.493,5.664 C41.467,4.658 40.301,3.766 38.995,3.013 C36.008,1.288 32.618,0.472 29.108,0.472 C20.592,0.472 11.381,5.284 5.58,13.614" id="path-3"></path>
        <path d="M5.58,13.614 C-1.563,23.868 -1.203,36.124 5.805,43.005 L8.795,45.941 C1.788,39.06 1.427,26.805 8.57,16.55 C16.76,4.788 31.75,0.039 41.984,5.948 C43.29,6.702 44.458,7.594 45.482,8.6 L42.493,5.664 C41.467,4.658 40.301,3.766 38.995,3.013 C36.008,1.288 32.618,0.472 29.108,0.472 C20.592,0.472 11.381,5.284 5.58,13.614" id="path-5"></path>
        <path d="M5.58,13.614 C-1.563,23.868 -1.203,36.124 5.805,43.005 L8.795,45.941 C1.788,39.06 1.427,26.805 8.57,16.55 C16.76,4.788 31.75,0.039 41.984,5.948 C43.29,6.702 44.458,7.594 45.482,8.6 L42.493,5.664 C41.467,4.658 40.301,3.766 38.995,3.013 C36.008,1.288 32.618,0.472 29.108,0.472 C20.592,0.472 11.381,5.284 5.58,13.614" id="path-7"></path>
        <path d="M5.58,13.614 C-1.563,23.868 -1.203,36.124 5.805,43.005 L8.795,45.941 C1.788,39.06 1.427,26.805 8.57,16.55 C16.76,4.788 31.75,0.039 41.984,5.948 C43.29,6.702 44.458,7.594 45.482,8.6 L42.493,5.664 C41.467,4.658 40.301,3.766 38.995,3.013 C36.008,1.288 32.618,0.472 29.108,0.472 C20.592,0.472 11.381,5.284 5.58,13.614" id="path-9"></path>
        <path d="M5.58,13.614 C-1.563,23.868 -1.203,36.124 5.805,43.005 L8.795,45.941 C1.788,39.06 1.427,26.805 8.57,16.55 C16.76,4.788 31.75,0.039 41.984,5.948 C43.29,6.702 44.458,7.594 45.482,8.6 L42.493,5.664 C41.467,4.658 40.301,3.766 38.995,3.013 C36.008,1.288 32.618,0.472 29.108,0.472 C20.592,0.472 11.381,5.284 5.58,13.614" id="path-11"></path>
        <path d="M5.58,13.614 C-1.563,23.868 -1.203,36.124 5.805,43.005 L8.795,45.941 C1.788,39.06 1.427,26.805 8.57,16.55 C16.76,4.788 31.75,0.039 41.984,5.948 C43.29,6.702 44.458,7.594 45.482,8.6 L42.493,5.664 C41.467,4.658 40.301,3.766 38.995,3.013 C36.008,1.288 32.618,0.472 29.108,0.472 C20.592,0.472 11.381,5.284 5.58,13.614" id="path-13"></path>
        <path d="M5.58,13.614 C-1.563,23.868 -1.203,36.124 5.805,43.005 L8.795,45.941 C1.788,39.06 1.427,26.805 8.57,16.55 C16.76,4.788 31.75,0.039 41.984,5.948 C43.29,6.702 44.458,7.594 45.482,8.6 L42.493,5.664 C41.467,4.658 40.301,3.766 38.995,3.013 C36.008,1.288 32.618,0.472 29.108,0.472 C20.592,0.472 11.381,5.284 5.58,13.614" id="path-15"></path>
        <path d="M5.58,13.614 C-1.563,23.868 -1.203,36.124 5.805,43.005 L8.795,45.941 C1.788,39.06 1.427,26.805 8.57,16.55 C16.76,4.788 31.75,0.039 41.984,5.948 C43.29,6.702 44.458,7.594 45.482,8.6 L42.493,5.664 C41.467,4.658 40.301,3.766 38.995,3.013 C36.008,1.288 32.618,0.472 29.108,0.472 C20.592,0.472 11.381,5.284 5.58,13.614" id="path-17"></path>
        <path d="M5.58,13.614 C-1.563,23.868 -1.203,36.124 5.805,43.005 L8.795,45.941 C1.788,39.06 1.427,26.805 8.57,16.55 C16.76,4.788 31.75,0.039 41.984,5.948 C43.29,6.702 44.458,7.594 45.482,8.6 L42.493,5.664 C41.467,4.658 40.301,3.766 38.995,3.013 C36.008,1.288 32.618,0.472 29.108,0.472 C20.592,0.472 11.381,5.284 5.58,13.614" id="path-19"></path>
        <path d="M5.58,13.614 C-1.563,23.868 -1.203,36.124 5.805,43.005 L8.795,45.941 C1.788,39.06 1.427,26.805 8.57,16.55 C16.76,4.788 31.75,0.039 41.984,5.948 C43.29,6.702 44.458,7.594 45.482,8.6 L42.493,5.664 C41.467,4.658 40.301,3.766 38.995,3.013 C36.008,1.288 32.618,0.472 29.108,0.472 C20.592,0.472 11.381,5.284 5.58,13.614" id="path-21"></path>
        <path d="M5.58,13.614 C-1.563,23.868 -1.203,36.124 5.805,43.005 L8.795,45.941 C1.788,39.06 1.427,26.805 8.57,16.55 C16.76,4.788 31.75,0.039 41.984,5.948 C43.29,6.702 44.458,7.594 45.482,8.6 L42.493,5.664 C41.467,4.658 40.301,3.766 38.995,3.013 C36.008,1.288 32.618,0.472 29.108,0.472 C20.592,0.472 11.381,5.284 5.58,13.614" id="path-23"></path>
        <path d="M5.58,13.614 C-1.563,23.868 -1.203,36.124 5.805,43.005 L8.795,45.941 C1.788,39.06 1.427,26.805 8.57,16.55 C16.76,4.788 31.75,0.039 41.984,5.948 C43.29,6.702 44.458,7.594 45.482,8.6 L42.493,5.664 C41.467,4.658 40.301,3.766 38.995,3.013 C36.008,1.288 32.618,0.472 29.108,0.472 C20.592,0.472 11.381,5.284 5.58,13.614" id="path-25"></path>
        <path d="M5.58,13.614 C-1.563,23.868 -1.203,36.124 5.805,43.005 L8.795,45.941 C1.788,39.06 1.427,26.805 8.57,16.55 C16.76,4.788 31.75,0.039 41.984,5.948 C43.29,6.702 44.458,7.594 45.482,8.6 L42.493,5.664 C41.467,4.658 40.301,3.766 38.995,3.013 C36.008,1.288 32.618,0.472 29.108,0.472 C20.592,0.472 11.381,5.284 5.58,13.614" id="path-27"></path>
        <path d="M5.58,13.614 C-1.563,23.868 -1.203,36.124 5.805,43.005 L8.795,45.941 C1.788,39.06 1.427,26.805 8.57,16.55 C16.76,4.788 31.75,0.039 41.984,5.948 C43.29,6.702 44.458,7.594 45.482,8.6 L42.493,5.664 C41.467,4.658 40.301,3.766 38.995,3.013 C36.008,1.288 32.618,0.472 29.108,0.472 C20.592,0.472 11.381,5.284 5.58,13.614" id="path-29"></path>
        <path d="M5.58,13.614 C-1.563,23.868 -1.203,36.124 5.805,43.005 L8.795,45.941 C1.788,39.06 1.427,26.805 8.57,16.55 C16.76,4.788 31.75,0.039 41.984,5.948 C43.29,6.702 44.458,7.594 45.482,8.6 L42.493,5.664 C41.467,4.658 40.301,3.766 38.995,3.013 C36.008,1.288 32.618,0.472 29.108,0.472 C20.592,0.472 11.381,5.284 5.58,13.614" id="path-31"></path>
        <path d="M5.58,13.614 C-1.563,23.868 -1.203,36.124 5.805,43.005 L8.795,45.941 C1.788,39.06 1.427,26.805 8.57,16.55 C16.76,4.788 31.75,0.039 41.984,5.948 C43.29,6.702 44.458,7.594 45.482,8.6 L42.493,5.664 C41.467,4.658 40.301,3.766 38.995,3.013 C36.008,1.288 32.618,0.472 29.108,0.472 C20.592,0.472 11.381,5.284 5.58,13.614" id="path-33"></path>
        <path d="M5.58,13.614 C-1.563,23.868 -1.203,36.124 5.805,43.005 L8.795,45.941 C1.788,39.06 1.427,26.805 8.57,16.55 C16.76,4.788 31.75,0.039 41.984,5.948 C43.29,6.702 44.458,7.594 45.482,8.6 L42.493,5.664 C41.467,4.658 40.301,3.766 38.995,3.013 C36.008,1.288 32.618,0.472 29.108,0.472 C20.592,0.472 11.381,5.284 5.58,13.614" id="path-35"></path>
        <path d="M5.58,13.614 C-1.563,23.868 -1.203,36.124 5.805,43.005 L8.795,45.941 C1.788,39.06 1.427,26.805 8.57,16.55 C16.76,4.788 31.75,0.039 41.984,5.948 C43.29,6.702 44.458,7.594 45.482,8.6 L42.493,5.664 C41.467,4.658 40.301,3.766 38.995,3.013 C36.008,1.288 32.618,0.472 29.108,0.472 C20.592,0.472 11.381,5.284 5.58,13.614" id="path-37"></path>
        <path d="M5.58,13.614 C-1.563,23.868 -1.203,36.124 5.805,43.005 L8.795,45.941 C1.788,39.06 1.427,26.805 8.57,16.55 C16.76,4.788 31.75,0.039 41.984,5.948 C43.29,6.702 44.458,7.594 45.482,8.6 L42.493,5.664 C41.467,4.658 40.301,3.766 38.995,3.013 C36.008,1.288 32.618,0.472 29.108,0.472 C20.592,0.472 11.381,5.284 5.58,13.614" id="path-39"></path>
        <path d="M5.58,13.614 C-1.563,23.868 -1.203,36.124 5.805,43.005 L8.795,45.941 C1.788,39.06 1.427,26.805 8.57,16.55 C16.76,4.788 31.75,0.039 41.984,5.948 C43.29,6.702 44.458,7.594 45.482,8.6 L42.493,5.664 C41.467,4.658 40.301,3.766 38.995,3.013 C36.008,1.288 32.618,0.472 29.108,0.472 C20.592,0.472 11.381,5.284 5.58,13.614" id="path-41"></path>
        <path d="M3.007,3.839 C3.198,4.027 3.396,4.214 3.594,4.397 L0.605,1.461 C0.405,1.278 0.209,1.092 0.016,0.903" id="path-43"></path>
        <path d="M1.737,3.659 C1.32,3.419 0.948,3.134 0.622,2.813 L3.611,5.749 C3.938,6.07 4.31,6.354 4.728,6.595 C7.998,8.484 12.765,6.972 15.382,3.214 L12.391,0.278 C9.775,4.036 5.008,5.548 1.737,3.659" id="path-45"></path>
        <path d="M1.737,3.659 C1.32,3.419 0.948,3.134 0.622,2.813 L3.611,5.749 C3.938,6.07 4.31,6.354 4.728,6.595 C7.998,8.484 12.765,6.972 15.382,3.214 L12.391,0.278 C9.775,4.036 5.008,5.548 1.737,3.659" id="path-47"></path>
        <path d="M1.737,3.659 C1.32,3.419 0.948,3.134 0.622,2.813 L3.611,5.749 C3.938,6.07 4.31,6.354 4.728,6.595 C7.998,8.484 12.765,6.972 15.382,3.214 L12.391,0.278 C9.775,4.036 5.008,5.548 1.737,3.659" id="path-49"></path>
        <path d="M1.737,3.659 C1.32,3.419 0.948,3.134 0.622,2.813 L3.611,5.749 C3.938,6.07 4.31,6.354 4.728,6.595 C7.998,8.484 12.765,6.972 15.382,3.214 L12.391,0.278 C9.775,4.036 5.008,5.548 1.737,3.659" id="path-51"></path>
        <path d="M1.737,3.659 C1.32,3.419 0.948,3.134 0.622,2.813 L3.611,5.749 C3.938,6.07 4.31,6.354 4.728,6.595 C7.998,8.484 12.765,6.972 15.382,3.214 L12.391,0.278 C9.775,4.036 5.008,5.548 1.737,3.659" id="path-53"></path>
        <path d="M1.737,3.659 C1.32,3.419 0.948,3.134 0.622,2.813 L3.611,5.749 C3.938,6.07 4.31,6.354 4.728,6.595 C7.998,8.484 12.765,6.972 15.382,3.214 L12.391,0.278 C9.775,4.036 5.008,5.548 1.737,3.659" id="path-55"></path>
        <path d="M1.737,3.659 C1.32,3.419 0.948,3.134 0.622,2.813 L3.611,5.749 C3.938,6.07 4.31,6.354 4.728,6.595 C7.998,8.484 12.765,6.972 15.382,3.214 L12.391,0.278 C9.775,4.036 5.008,5.548 1.737,3.659" id="path-57"></path>
        <path d="M1.737,3.659 C1.32,3.419 0.948,3.134 0.622,2.813 L3.611,5.749 C3.938,6.07 4.31,6.354 4.728,6.595 C7.998,8.484 12.765,6.972 15.382,3.214 L12.391,0.278 C9.775,4.036 5.008,5.548 1.737,3.659" id="path-59"></path>
        <path d="M1.737,3.659 C1.32,3.419 0.948,3.134 0.622,2.813 L3.611,5.749 C3.938,6.07 4.31,6.354 4.728,6.595 C7.998,8.484 12.765,6.972 15.382,3.214 L12.391,0.278 C9.775,4.036 5.008,5.548 1.737,3.659" id="path-61"></path>
        <path d="M1.737,3.659 C1.32,3.419 0.948,3.134 0.622,2.813 L3.611,5.749 C3.938,6.07 4.31,6.354 4.728,6.595 C7.998,8.484 12.765,6.972 15.382,3.214 L12.391,0.278 C9.775,4.036 5.008,5.548 1.737,3.659" id="path-63"></path>
        <path d="M1.737,3.659 C1.32,3.419 0.948,3.134 0.622,2.813 L3.611,5.749 C3.938,6.07 4.31,6.354 4.728,6.595 C7.998,8.484 12.765,6.972 15.382,3.214 L12.391,0.278 C9.775,4.036 5.008,5.548 1.737,3.659" id="path-65"></path>
        <polygon id="path-67" points="0.2906 0.7575 11 0.7575 11 45.5385 0.2906 45.5385"></polygon>
        <path d="M0.594,42.602 L3.584,45.538 C13.769,30.913 13.268,13.501 3.28,3.693 L0.291,0.758 C10.278,10.565 10.78,27.977 0.594,42.602" id="path-69"></path>
        <path d="M0.594,42.602 L3.584,45.538 C13.769,30.913 13.268,13.501 3.28,3.693 L0.291,0.758 C10.278,10.565 10.78,27.977 0.594,42.602" id="path-71"></path>
        <path d="M0.594,42.602 L3.584,45.538 C13.769,30.913 13.268,13.501 3.28,3.693 L0.291,0.758 C10.278,10.565 10.78,27.977 0.594,42.602" id="path-73"></path>
        <path d="M0.594,42.602 L3.584,45.538 C13.769,30.913 13.268,13.501 3.28,3.693 L0.291,0.758 C10.278,10.565 10.78,27.977 0.594,42.602" id="path-75"></path>
        <path d="M0.594,42.602 L3.584,45.538 C13.769,30.913 13.268,13.501 3.28,3.693 L0.291,0.758 C10.278,10.565 10.78,27.977 0.594,42.602" id="path-77"></path>
        <path d="M0.594,42.602 L3.584,45.538 C13.769,30.913 13.268,13.501 3.28,3.693 L0.291,0.758 C10.278,10.565 10.78,27.977 0.594,42.602" id="path-79"></path>
        <path d="M0.594,42.602 L3.584,45.538 C13.769,30.913 13.268,13.501 3.28,3.693 L0.291,0.758 C10.278,10.565 10.78,27.977 0.594,42.602" id="path-81"></path>
        <path d="M0.594,42.602 L3.584,45.538 C13.769,30.913 13.268,13.501 3.28,3.693 L0.291,0.758 C10.278,10.565 10.78,27.977 0.594,42.602" id="path-83"></path>
        <path d="M0.594,42.602 L3.584,45.538 C13.769,30.913 13.268,13.501 3.28,3.693 L0.291,0.758 C10.278,10.565 10.78,27.977 0.594,42.602" id="path-85"></path>
        <path d="M0.594,42.602 L3.584,45.538 C13.769,30.913 13.268,13.501 3.28,3.693 L0.291,0.758 C10.278,10.565 10.78,27.977 0.594,42.602" id="path-87"></path>
        <path d="M0.594,42.602 L3.584,45.538 C13.769,30.913 13.268,13.501 3.28,3.693 L0.291,0.758 C10.278,10.565 10.78,27.977 0.594,42.602" id="path-89"></path>
        <path d="M0.092,17.939 L3.082,20.875 C17.206,25.427 35.201,18.445 45.584,3.538 L42.594,0.602 C32.212,15.509 14.216,22.491 0.092,17.939" id="path-91"></path>
        <path d="M0.092,17.939 L3.082,20.875 C17.206,25.427 35.201,18.445 45.584,3.538 L42.594,0.602 C32.212,15.509 14.216,22.491 0.092,17.939" id="path-93"></path>
        <path d="M0.092,17.939 L3.082,20.875 C17.206,25.427 35.201,18.445 45.584,3.538 L42.594,0.602 C32.212,15.509 14.216,22.491 0.092,17.939" id="path-95"></path>
        <path d="M0.092,17.939 L3.082,20.875 C17.206,25.427 35.201,18.445 45.584,3.538 L42.594,0.602 C32.212,15.509 14.216,22.491 0.092,17.939" id="path-97"></path>
        <path d="M0.092,17.939 L3.082,20.875 C17.206,25.427 35.201,18.445 45.584,3.538 L42.594,0.602 C32.212,15.509 14.216,22.491 0.092,17.939" id="path-99"></path>
        <path d="M0.092,17.939 L3.082,20.875 C17.206,25.427 35.201,18.445 45.584,3.538 L42.594,0.602 C32.212,15.509 14.216,22.491 0.092,17.939" id="path-101"></path>
        <path d="M0.092,17.939 L3.082,20.875 C17.206,25.427 35.201,18.445 45.584,3.538 L42.594,0.602 C32.212,15.509 14.216,22.491 0.092,17.939" id="path-103"></path>
        <path d="M0.092,17.939 L3.082,20.875 C17.206,25.427 35.201,18.445 45.584,3.538 L42.594,0.602 C32.212,15.509 14.216,22.491 0.092,17.939" id="path-105"></path>
        <path d="M0.092,17.939 L3.082,20.875 C17.206,25.427 35.201,18.445 45.584,3.538 L42.594,0.602 C32.212,15.509 14.216,22.491 0.092,17.939" id="path-107"></path>
        <path d="M0.092,17.939 L3.082,20.875 C17.206,25.427 35.201,18.445 45.584,3.538 L42.594,0.602 C32.212,15.509 14.216,22.491 0.092,17.939" id="path-109"></path>
        <path d="M0.092,17.939 L3.082,20.875 C17.206,25.427 35.201,18.445 45.584,3.538 L42.594,0.602 C32.212,15.509 14.216,22.491 0.092,17.939" id="path-111"></path>
    </defs>
    <g id="Page-1" stroke="none" stroke-width="1" fill="none" fill-rule="evenodd">
        <g id="Version-1-Copy" transform="translate(-335.000000, -3316.000000)">
            <g id="Group-199" transform="translate(335.000000, 3315.000000)">
                <polygon id="Fill-1" fill="#E8E8F9" points="4.1742 53.6203 19.6892 57.7303 15.5142 42.1513 0.0002 38.0423"></polygon>
                <polygon id="Fill-2" fill="#C5C5DC" points="0 38.0422 15.514 42.1512 26.353 31.3742 10.839 27.2642"></polygon>
                <polygon id="Fill-3" fill="#8C8C96" points="15.5143 42.1517 26.3533 31.3737 30.5283 46.9527 19.6893 57.7307"></polygon>
                <polygon id="Fill-4" fill="#E8E8F9" points="79.9137 85.9397 76.9287 97.2067 65.6157 100.2377 68.6007 88.9707"></polygon>
                <polygon id="Fill-5" fill="#C5C5DC" points="79.9137 85.9397 87.7397 93.8107 84.7557 105.0777 76.9287 97.2067"></polygon>
                <polygon id="Fill-6" fill="#8C8C96" points="65.6154 100.2376 73.4414 108.1086 84.7554 105.0776 76.9284 97.2066"></polygon>
                <path d="M91.4928,18.7732 L94.4818,21.7092 C93.4578,20.7032 92.2908,19.8112 90.9838,19.0572 C80.7498,13.1482 65.7608,17.8972 57.5698,29.6582 C50.4278,39.9142 50.7878,52.1692 57.7958,59.0502 L54.8048,56.1142 C47.7978,49.2322 47.4368,36.9782 54.5798,26.7222 C62.7708,14.9612 77.7608,10.2122 87.9948,16.1212 C89.3008,16.8752 90.4678,17.7672 91.4928,18.7732" id="Fill-7" fill="#1F0256"></path>
                <g id="Group-72" transform="translate(49.000000, 13.109000)">
                    <g id="Group-11">
                        <mask id="mask-2" fill="white">
                            <use xlink:href="#path-1"></use>
                        </mask>
                        <g id="Clip-10"></g>
                        <path d="M42.4928,5.6642 L45.4818,8.6002 C44.4578,7.5942 43.2908,6.7022 41.9838,5.9482 C36.6198,2.8512 29.9488,2.6822 23.6358,4.9162 L20.6458,1.9802 C26.9598,-0.2538 33.6308,-0.0848 38.9948,3.0122 C40.3008,3.7662 41.4678,4.6582 42.4928,5.6642" id="Fill-9" fill="#1F0256" mask="url(#mask-2)"></path>
                    </g>
                    <g id="Group-14">
                        <mask id="mask-4" fill="white">
                            <use xlink:href="#path-3"></use>
                        </mask>
                        <g id="Clip-13"></g>
                        <path d="M20.6461,1.9802 L23.6351,4.9162 C22.6911,5.2502 21.7541,5.6382 20.8321,6.0782 L17.8411,3.1432 C18.7651,2.7022 19.7021,2.3142 20.6461,1.9802" id="Fill-12" fill="#1F0256" mask="url(#mask-4)"></path>
                    </g>
                    <g id="Group-17">
                        <mask id="mask-6" fill="white">
                            <use xlink:href="#path-5"></use>
                        </mask>
                        <g id="Clip-16"></g>
                        <path d="M17.8414,3.1428 L20.8314,6.0788 C20.1144,6.4198 19.4064,6.7928 18.7094,7.1968 L15.7194,4.2608 C16.4164,3.8568 17.1254,3.4838 17.8414,3.1428" id="Fill-15" fill="#1F0256" mask="url(#mask-6)"></path>
                    </g>
                    <g id="Group-20">
                        <mask id="mask-8" fill="white">
                            <use xlink:href="#path-7"></use>
                        </mask>
                        <g id="Clip-19"></g>
                        <path d="M15.7193,4.2609 L18.7093,7.1969 C18.0943,7.5529 17.4873,7.9319 16.8913,8.3349 L13.9013,5.3989 C14.4973,4.9959 15.1043,4.6159 15.7193,4.2609" id="Fill-18" fill="#1F0256" mask="url(#mask-8)"></path>
                    </g>
                    <g id="Group-23">
                        <mask id="mask-10" fill="white">
                            <use xlink:href="#path-9"></use>
                        </mask>
                        <g id="Clip-22"></g>
                        <path d="M13.901,5.3986 L16.891,8.3346 C16.342,8.7046 15.802,9.0946 15.273,9.5036 L12.283,6.5676 C12.813,6.1586 13.353,5.7696 13.901,5.3986" id="Fill-21" fill="#1F0256" mask="url(#mask-10)"></path>
                    </g>
                    <g id="Group-26">
                        <mask id="mask-12" fill="white">
                            <use xlink:href="#path-11"></use>
                        </mask>
                        <g id="Clip-25"></g>
                        <path d="M12.2828,6.5681 L15.2728,9.5041 C14.7698,9.8921 14.2768,10.2971 13.7948,10.7181 L10.8038,7.7821 C11.2878,7.3601 11.7808,6.9561 12.2828,6.5681" id="Fill-24" fill="#1F0256" mask="url(#mask-12)"></path>
                    </g>
                    <g id="Group-29">
                        <mask id="mask-14" fill="white">
                            <use xlink:href="#path-13"></use>
                        </mask>
                        <g id="Clip-28"></g>
                        <path d="M10.8043,7.7824 L13.7943,10.7184 C13.3253,11.1274 12.8663,11.5534 12.4163,11.9934 L9.4273,9.0574 C9.8753,8.6164 10.3353,8.1914 10.8043,7.7824" id="Fill-27" fill="#1F0256" mask="url(#mask-14)"></path>
                    </g>
                    <g id="Group-32">
                        <mask id="mask-16" fill="white">
                            <use xlink:href="#path-15"></use>
                        </mask>
                        <g id="Clip-31"></g>
                        <path d="M9.4274,9.0578 L12.4164,11.9938 C11.9724,12.4308 11.5374,12.8828 11.1144,13.3498 L8.1244,10.4138 C8.5474,9.9468 8.9824,9.4948 9.4274,9.0578" id="Fill-30" fill="#1F0256" mask="url(#mask-16)"></path>
                    </g>
                    <g id="Group-35">
                        <mask id="mask-18" fill="white">
                            <use xlink:href="#path-17"></use>
                        </mask>
                        <g id="Clip-34"></g>
                        <path d="M8.1246,10.4142 L11.1146,13.3502 C10.6856,13.8242 10.2686,14.3132 9.8636,14.8182 L6.8746,11.8822 C7.2786,11.3772 7.6956,10.8882 8.1246,10.4142" id="Fill-33" fill="#1F0256" mask="url(#mask-18)"></path>
                    </g>
                    <g id="Group-38">
                        <mask id="mask-20" fill="white">
                            <use xlink:href="#path-19"></use>
                        </mask>
                        <g id="Clip-37"></g>
                        <path d="M6.8746,11.882 L9.8636,14.818 C9.4406,15.346 9.0316,15.89 8.6386,16.451 L5.6486,13.515 C6.0426,12.954 6.4506,12.41 6.8746,11.882" id="Fill-36" fill="#1F0256" mask="url(#mask-20)"></path>
                    </g>
                    <g id="Group-41">
                        <mask id="mask-22" fill="white">
                            <use xlink:href="#path-21"></use>
                        </mask>
                        <g id="Clip-40"></g>
                        <path d="M5.649,13.5148 L8.638,16.4508 C8.616,16.4838 8.592,16.5158 8.57,16.5498 C8.17,17.1238 7.794,17.7038 7.44,18.2888 L4.451,15.3528 C4.803,14.7678 5.18,14.1878 5.58,13.6138 C5.603,13.5808 5.626,13.5478 5.649,13.5148" id="Fill-39" fill="#1F0256" mask="url(#mask-22)"></path>
                    </g>
                    <g id="Group-44">
                        <mask id="mask-24" fill="white">
                            <use xlink:href="#path-23"></use>
                        </mask>
                        <g id="Clip-43"></g>
                        <path d="M4.4508,15.3532 L7.4398,18.2892 C7.0078,19.0072 6.6098,19.7322 6.2468,20.4622 L3.2578,17.5262 C3.6198,16.7962 4.0178,16.0712 4.4508,15.3532" id="Fill-42" fill="#1F0256" mask="url(#mask-24)"></path>
                    </g>
                    <g id="Group-47">
                        <mask id="mask-26" fill="white">
                            <use xlink:href="#path-25"></use>
                        </mask>
                        <g id="Clip-46"></g>
                        <path d="M3.2574,17.5266 L6.2464,20.4626 C5.7794,21.4016 5.3704,22.3506 5.0194,23.3016 L2.0284,20.3656 C2.3814,19.4146 2.7904,18.4666 3.2574,17.5266" id="Fill-45" fill="#1F0256" mask="url(#mask-26)"></path>
                    </g>
                    <g id="Group-50">
                        <mask id="mask-28" fill="white">
                            <use xlink:href="#path-27"></use>
                        </mask>
                        <g id="Clip-49"></g>
                        <path d="M2.0289,20.3659 L5.0189,23.3019 C3.5209,27.3499 3.0569,31.4579 3.5819,35.2369 L0.5919,32.3009 C0.0679,28.5229 0.5319,24.4139 2.0289,20.3659" id="Fill-48" fill="#1F0256" mask="url(#mask-28)"></path>
                    </g>
                    <g id="Group-53">
                        <mask id="mask-30" fill="white">
                            <use xlink:href="#path-29"></use>
                        </mask>
                        <g id="Clip-52"></g>
                        <path d="M0.5914,32.3005 L3.5814,35.2365 C3.7104,36.1695 3.9014,37.0815 4.1504,37.9685 L1.1594,35.0325 C0.9104,34.1455 0.7214,33.2335 0.5914,32.3005" id="Fill-51" fill="#1F0256" mask="url(#mask-30)"></path>
                    </g>
                    <g id="Group-56">
                        <mask id="mask-32" fill="white">
                            <use xlink:href="#path-31"></use>
                        </mask>
                        <g id="Clip-55"></g>
                        <path d="M1.1598,35.0324 L4.1498,37.9684 C4.3428,38.6534 4.5698,39.3224 4.8338,39.9734 L1.8448,37.0374 C1.5808,36.3864 1.3518,35.7174 1.1598,35.0324" id="Fill-54" fill="#1F0256" mask="url(#mask-32)"></path>
                    </g>
                    <g id="Group-59">
                        <mask id="mask-34" fill="white">
                            <use xlink:href="#path-33"></use>
                        </mask>
                        <g id="Clip-58"></g>
                        <path d="M1.8443,37.0378 L4.8333,39.9738 C5.0623,40.5378 5.3173,41.0898 5.5983,41.6248 L2.6093,38.6898 C2.3273,38.1538 2.0723,37.6028 1.8443,37.0378" id="Fill-57" fill="#1F0256" mask="url(#mask-34)"></path>
                    </g>
                    <g id="Group-62">
                        <mask id="mask-36" fill="white">
                            <use xlink:href="#path-35"></use>
                        </mask>
                        <g id="Clip-61"></g>
                        <path d="M2.609,38.6896 L5.598,41.6256 C5.856,42.1166 6.136,42.5936 6.438,43.0576 L3.448,40.1216 C3.146,39.6586 2.867,39.1806 2.609,38.6896" id="Fill-60" fill="#1F0256" mask="url(#mask-36)"></path>
                    </g>
                    <g id="Group-65">
                        <mask id="mask-38" fill="white">
                            <use xlink:href="#path-37"></use>
                        </mask>
                        <g id="Clip-64"></g>
                        <path d="M3.4479,40.1218 L6.4379,43.0578 C6.7229,43.4958 7.0279,43.9208 7.3519,44.3318 L4.3619,41.3958 C4.0379,40.9848 3.7329,40.5598 3.4479,40.1218" id="Fill-63" fill="#1F0256" mask="url(#mask-38)"></path>
                    </g>
                    <g id="Group-68">
                        <mask id="mask-40" fill="white">
                            <use xlink:href="#path-39"></use>
                        </mask>
                        <g id="Clip-67"></g>
                        <path d="M4.3619,41.3962 L7.3519,44.3322 C7.6659,44.7292 7.9979,45.1142 8.3479,45.4852 L5.3579,42.5492 C5.0079,42.1792 4.6759,41.7942 4.3619,41.3962" id="Fill-66" fill="#1F0256" mask="url(#mask-40)"></path>
                    </g>
                    <g id="Group-71">
                        <mask id="mask-42" fill="white">
                            <use xlink:href="#path-41"></use>
                        </mask>
                        <g id="Clip-70"></g>
                        <path d="M5.358,42.5495 L8.348,45.4855 C8.494,45.6395 8.643,45.7915 8.796,45.9415 L5.805,43.0055 C5.653,42.8565 5.504,42.7035 5.358,42.5495" id="Fill-69" fill="#1F0256" mask="url(#mask-42)"></path>
                    </g>
                </g>
                <g id="Group-75" transform="translate(47.000000, 63.109000)">
                    <mask id="mask-44" fill="white">
                        <use xlink:href="#path-43"></use>
                    </mask>
                    <g id="Clip-74"></g>
                    <path d="M0.6051,1.4611 L3.5941,4.3971 C3.3951,4.2131 3.1991,4.0271 3.0061,3.8381 L0.0161,0.9021 C0.2091,1.0911 0.4051,1.2781 0.6051,1.4611" id="Fill-73" fill="#0B3F7F" mask="url(#mask-44)"></path>
                </g>
                <g id="Group-82" transform="translate(28.000000, 69.109000)">
                    <polygon id="Fill-76" fill="#115EBC" points="29.0934 0.9391 32.0824 3.8751 28.8384 8.5321 25.8494 5.5961"></polygon>
                    <polygon id="Fill-78" fill="#115EBC" points="27.0211 6.2731 30.0101 9.2091 15.3811 30.2141 12.3911 27.2781"></polygon>
                    <path d="M3.6109,32.7487 L0.6219,29.8127 C0.9479,30.1337 1.3199,30.4177 1.7369,30.6587 C5.0079,32.5477 9.7749,31.0357 12.3909,27.2787 L15.3819,30.2147 C12.7639,33.9717 7.9989,35.4837 4.7269,33.5947 C4.3099,33.3537 3.9379,33.0697 3.6109,32.7487" id="Fill-80" fill="#1F0256"></path>
                </g>
                <g id="Group-116" transform="translate(28.000000, 96.109000)">
                    <g id="Group-85">
                        <mask id="mask-46" fill="white">
                            <use xlink:href="#path-45"></use>
                        </mask>
                        <g id="Clip-84"></g>
                        <path d="M12.3912,0.2785 L15.3812,3.2145 C15.3732,3.2255 15.3672,3.2355 15.3592,3.2465 L12.3702,0.3105 C12.3762,0.2995 12.3842,0.2895 12.3912,0.2785" id="Fill-83" fill="#1F0256" mask="url(#mask-46)"></path>
                    </g>
                    <g id="Group-88">
                        <mask id="mask-48" fill="white">
                            <use xlink:href="#path-47"></use>
                        </mask>
                        <g id="Clip-87"></g>
                        <path d="M12.3697,0.3102 L15.3587,3.2462 C15.2327,3.4262 15.1007,3.6012 14.9657,3.7702 L11.9757,0.8342 C12.1117,0.6642 12.2427,0.4902 12.3697,0.3102" id="Fill-86" fill="#1F0256" mask="url(#mask-48)"></path>
                    </g>
                    <g id="Group-91">
                        <mask id="mask-50" fill="white">
                            <use xlink:href="#path-49"></use>
                        </mask>
                        <g id="Clip-90"></g>
                        <path d="M11.9762,0.8342 L14.9652,3.7702 C14.8362,3.9322 14.7032,4.0882 14.5652,4.2402 L11.5762,1.3042 C11.7122,1.1522 11.8462,0.9962 11.9762,0.8342" id="Fill-89" fill="#1F0256" mask="url(#mask-50)"></path>
                    </g>
                    <g id="Group-94">
                        <mask id="mask-52" fill="white">
                            <use xlink:href="#path-51"></use>
                        </mask>
                        <g id="Clip-93"></g>
                        <path d="M11.5758,1.3044 L14.5648,4.2404 C14.4298,4.3894 14.2908,4.5344 14.1478,4.6744 L11.1588,1.7384 C11.3018,1.5984 11.4398,1.4544 11.5758,1.3044" id="Fill-92" fill="#1F0256" mask="url(#mask-52)"></path>
                    </g>
                    <g id="Group-97">
                        <mask id="mask-54" fill="white">
                            <use xlink:href="#path-53"></use>
                        </mask>
                        <g id="Clip-96"></g>
                        <path d="M11.1588,1.7385 L14.1478,4.6745 C14.0058,4.8155 13.8578,4.9505 13.7088,5.0815 L10.7188,2.1465 C10.8688,2.0155 11.0148,1.8795 11.1588,1.7385" id="Fill-95" fill="#1F0256" mask="url(#mask-54)"></path>
                    </g>
                    <g id="Group-100">
                        <mask id="mask-56" fill="white">
                            <use xlink:href="#path-55"></use>
                        </mask>
                        <g id="Clip-99"></g>
                        <path d="M10.7184,2.1462 L13.7084,5.0822 C13.5544,5.2162 13.3974,5.3462 13.2374,5.4692 L10.2464,2.5332 C10.4064,2.4102 10.5654,2.2802 10.7184,2.1462" id="Fill-98" fill="#1F0256" mask="url(#mask-56)"></path>
                    </g>
                    <g id="Group-103">
                        <mask id="mask-58" fill="white">
                            <use xlink:href="#path-57"></use>
                        </mask>
                        <g id="Clip-102"></g>
                        <path d="M10.2467,2.5334 L13.2367,5.4694 C13.0677,5.5994 12.8957,5.7234 12.7217,5.8424 L9.7307,2.9064 C9.9057,2.7884 10.0777,2.6634 10.2467,2.5334" id="Fill-101" fill="#1F0256" mask="url(#mask-58)"></path>
                    </g>
                    <g id="Group-106">
                        <mask id="mask-60" fill="white">
                            <use xlink:href="#path-59"></use>
                        </mask>
                        <g id="Clip-105"></g>
                        <path d="M9.7311,2.9059 L12.7211,5.8419 C12.5311,5.9699 12.3381,6.0909 12.1421,6.2039 L9.1531,3.2679 C9.3481,3.1549 9.5421,3.0339 9.7311,2.9059" id="Fill-104" fill="#1F0256" mask="url(#mask-60)"></path>
                    </g>
                    <g id="Group-109">
                        <mask id="mask-62" fill="white">
                            <use xlink:href="#path-61"></use>
                        </mask>
                        <g id="Clip-108"></g>
                        <path d="M9.1529,3.2682 L12.1419,6.2042 C11.9209,6.3322 11.6949,6.4512 11.4669,6.5602 L8.4779,3.6232 C8.7059,3.5152 8.9309,3.3962 9.1529,3.2682" id="Fill-107" fill="#1F0256" mask="url(#mask-62)"></path>
                    </g>
                    <g id="Group-112">
                        <mask id="mask-64" fill="white">
                            <use xlink:href="#path-63"></use>
                        </mask>
                        <g id="Clip-111"></g>
                        <path d="M8.4781,3.6237 L11.4671,6.5597 C11.1741,6.6997 10.8761,6.8227 10.5771,6.9287 L7.5861,3.9937 C7.8871,3.8867 8.1841,3.7637 8.4781,3.6237" id="Fill-110" fill="#1F0256" mask="url(#mask-64)"></path>
                    </g>
                    <g id="Group-115">
                        <mask id="mask-66" fill="white">
                            <use xlink:href="#path-65"></use>
                        </mask>
                        <g id="Clip-114"></g>
                        <path d="M7.5865,3.9933 L10.5765,6.9293 C8.5655,7.6403 6.4405,7.5843 4.7275,6.5953 C4.3105,6.3543 3.9385,6.0703 3.6105,5.7483 L0.6215,2.8133 C0.9475,3.1343 1.3195,3.4183 1.7365,3.6593 C3.4515,4.6483 5.5755,4.7043 7.5865,3.9933" id="Fill-113" fill="#1F0256" mask="url(#mask-66)"></path>
                    </g>
                </g>
                <g id="Group-119" transform="translate(99.000000, 10.109000)">
                    <mask id="mask-68" fill="white">
                        <use xlink:href="#path-67"></use>
                    </mask>
                    <g id="Clip-118"></g>
                    <path d="M0.2906,0.7575 L3.2796,3.6935 C13.2686,13.5015 13.7696,30.9135 3.5836,45.5385 L0.5946,42.6025 C10.7796,27.9775 10.2776,10.5655 0.2906,0.7575" id="Fill-117" fill="#1F0256" mask="url(#mask-68)"></path>
                </g>
                <g id="Group-153" transform="translate(99.000000, 10.109000)">
                    <g id="Group-122">
                        <mask id="mask-70" fill="white">
                            <use xlink:href="#path-69"></use>
                        </mask>
                        <g id="Clip-121"></g>
                        <path d="M0.2906,0.7575 L3.2796,3.6935 C3.4976,3.9065 3.7106,4.1235 3.9186,4.3445 L0.9296,1.4085 C0.7216,1.1885 0.5076,0.9705 0.2906,0.7575" id="Fill-120" fill="#1F0256" mask="url(#mask-70)"></path>
                    </g>
                    <g id="Group-125">
                        <mask id="mask-72" fill="white">
                            <use xlink:href="#path-71"></use>
                        </mask>
                        <g id="Clip-124"></g>
                        <path d="M0.9293,1.4089 L3.9183,4.3449 C4.4183,4.8739 4.8923,5.4229 5.3403,5.9899 L2.3503,3.0549 C1.9033,2.4869 1.4293,1.9379 0.9293,1.4089" id="Fill-123" fill="#1F0256" mask="url(#mask-72)"></path>
                    </g>
                    <g id="Group-128">
                        <mask id="mask-74" fill="white">
                            <use xlink:href="#path-73"></use>
                        </mask>
                        <g id="Clip-127"></g>
                        <path d="M2.3502,3.0544 L5.3402,5.9904 C5.8022,6.5764 6.2372,7.1824 6.6432,7.8064 L3.6542,4.8704 C3.2472,4.2464 2.8132,3.6404 2.3502,3.0544" id="Fill-126" fill="#1F0256" mask="url(#mask-74)"></path>
                    </g>
                    <g id="Group-131">
                        <mask id="mask-76" fill="white">
                            <use xlink:href="#path-75"></use>
                        </mask>
                        <g id="Clip-130"></g>
                        <path d="M3.6539,4.8703 L6.6429,7.8063 C7.0729,8.4663 7.4709,9.1463 7.8389,9.8463 L4.8489,6.9103 C4.4819,6.2113 4.0839,5.5303 3.6539,4.8703" id="Fill-129" fill="#1F0256" mask="url(#mask-76)"></path>
                    </g>
                    <g id="Group-134">
                        <mask id="mask-78" fill="white">
                            <use xlink:href="#path-77"></use>
                        </mask>
                        <g id="Clip-133"></g>
                        <path d="M4.8492,6.9099 L7.8382,9.8459 C8.2392,10.6079 8.6012,11.3909 8.9262,12.1949 L5.9362,9.2589 C5.6122,8.4559 5.2482,7.6719 4.8492,6.9099" id="Fill-132" fill="#1F0256" mask="url(#mask-78)"></path>
                    </g>
                    <g id="Group-137">
                        <mask id="mask-80" fill="white">
                            <use xlink:href="#path-79"></use>
                        </mask>
                        <g id="Clip-136"></g>
                        <path d="M5.9361,9.259 L8.9261,12.195 C9.3001,13.12 9.6241,14.072 9.8981,15.046 L6.9091,12.11 C6.6351,11.136 6.3111,10.185 5.9361,9.259" id="Fill-135" fill="#1F0256" mask="url(#mask-80)"></path>
                    </g>
                    <g id="Group-140">
                        <mask id="mask-82" fill="white">
                            <use xlink:href="#path-81"></use>
                        </mask>
                        <g id="Clip-139"></g>
                        <path d="M6.9088,12.11 L9.8978,15.046 C10.2528,16.304 10.5208,17.6 10.7048,18.923 L7.7158,15.988 C7.5318,14.664 7.2628,13.369 6.9088,12.11" id="Fill-138" fill="#1F0256" mask="url(#mask-82)"></path>
                    </g>
                    <g id="Group-143">
                        <mask id="mask-84" fill="white">
                            <use xlink:href="#path-83"></use>
                        </mask>
                        <g id="Clip-142"></g>
                        <path d="M7.7154,15.988 L10.7044,18.924 C11.4494,24.293 10.7884,30.132 8.6574,35.891 L5.6684,32.955 C7.7994,27.196 8.4604,21.357 7.7154,15.988" id="Fill-141" fill="#1F0256" mask="url(#mask-84)"></path>
                    </g>
                    <g id="Group-146">
                        <mask id="mask-86" fill="white">
                            <use xlink:href="#path-85"></use>
                        </mask>
                        <g id="Clip-145"></g>
                        <path d="M5.6686,32.9548 L8.6576,35.8908 C8.1556,37.2468 7.5726,38.5998 6.9066,39.9398 L3.9166,37.0038 C4.5826,35.6638 5.1666,34.3108 5.6686,32.9548" id="Fill-144" fill="#1F0256" mask="url(#mask-86)"></path>
                    </g>
                    <g id="Group-149">
                        <mask id="mask-88" fill="white">
                            <use xlink:href="#path-87"></use>
                        </mask>
                        <g id="Clip-148"></g>
                        <path d="M3.9166,37.0041 L6.9066,39.9401 C6.3876,40.9841 5.8186,42.0211 5.1996,43.0481 L2.2106,40.1121 C2.8296,39.0851 3.3976,38.0481 3.9166,37.0041" id="Fill-147" fill="#1F0256" mask="url(#mask-88)"></path>
                    </g>
                    <g id="Group-152">
                        <mask id="mask-90" fill="white">
                            <use xlink:href="#path-89"></use>
                        </mask>
                        <g id="Clip-151"></g>
                        <path d="M2.2106,40.112 L5.1996,43.048 C4.6946,43.885 4.1556,44.716 3.5836,45.538 L0.5946,42.602 C1.1666,41.78 1.7046,40.95 2.2106,40.112" id="Fill-150" fill="#1F0256" mask="url(#mask-90)"></path>
                    </g>
                </g>
                <path d="M99.5943,52.7112 L102.5833,55.6472 C92.2013,70.5542 74.2053,77.5362 60.0823,72.9842 L57.0923,70.0482 C71.2163,74.6002 89.2113,67.6182 99.5943,52.7112" id="Fill-154" fill="#1F0256"></path>
                <g id="Group-189" transform="translate(57.000000, 52.109000)">
                    <g id="Group-158">
                        <mask id="mask-92" fill="white">
                            <use xlink:href="#path-91"></use>
                        </mask>
                        <g id="Clip-157"></g>
                        <path d="M42.5943,0.6022 L45.5833,3.5382 C45.5503,3.5852 45.5183,3.6322 45.4853,3.6792 L42.4943,0.7442 C42.5283,0.6962 42.5613,0.6492 42.5943,0.6022" id="Fill-156" fill="#1F0256" mask="url(#mask-92)"></path>
                    </g>
                    <g id="Group-161">
                        <mask id="mask-94" fill="white">
                            <use xlink:href="#path-93"></use>
                        </mask>
                        <g id="Clip-160"></g>
                        <path d="M42.4947,0.7438 L45.4847,3.6798 C44.9237,4.4788 44.3417,5.2548 43.7377,6.0068 L40.7487,3.0718 C41.3507,2.3188 41.9337,1.5428 42.4947,0.7438" id="Fill-159" fill="#1F0256" mask="url(#mask-94)"></path>
                    </g>
                    <g id="Group-164">
                        <mask id="mask-96" fill="white">
                            <use xlink:href="#path-95"></use>
                        </mask>
                        <g id="Clip-163"></g>
                        <path d="M40.7486,3.0715 L43.7376,6.0075 C43.1596,6.7285 42.5626,7.4285 41.9496,8.1065 L38.9606,5.1705 C39.5736,4.4925 40.1706,3.7925 40.7486,3.0715" id="Fill-162" fill="#1F0256" mask="url(#mask-96)"></path>
                    </g>
                    <g id="Group-167">
                        <mask id="mask-98" fill="white">
                            <use xlink:href="#path-97"></use>
                        </mask>
                        <g id="Clip-166"></g>
                        <path d="M38.9606,5.1701 L41.9496,8.1061 C41.3466,8.7731 40.7276,9.4181 40.0926,10.0411 L37.1026,7.1051 C37.7366,6.4821 38.3566,5.8371 38.9606,5.1701" id="Fill-165" fill="#1F0256" mask="url(#mask-98)"></path>
                    </g>
                    <g id="Group-170">
                        <mask id="mask-100" fill="white">
                            <use xlink:href="#path-99"></use>
                        </mask>
                        <g id="Clip-169"></g>
                        <path d="M37.1022,7.1052 L40.0922,10.0412 C39.4542,10.6682 38.8002,11.2732 38.1322,11.8552 L35.1432,8.9192 C35.8102,8.3372 36.4642,7.7322 37.1022,7.1052" id="Fill-168" fill="#1F0256" mask="url(#mask-100)"></path>
                    </g>
                    <g id="Group-173">
                        <mask id="mask-102" fill="white">
                            <use xlink:href="#path-101"></use>
                        </mask>
                        <g id="Clip-172"></g>
                        <path d="M35.1432,8.9196 L38.1322,11.8556 C37.4462,12.4556 36.7452,13.0306 36.0312,13.5826 L33.0402,10.6466 C33.7542,10.0956 34.4562,9.5196 35.1432,8.9196" id="Fill-171" fill="#1F0256" mask="url(#mask-102)"></path>
                    </g>
                    <g id="Group-176">
                        <mask id="mask-104" fill="white">
                            <use xlink:href="#path-103"></use>
                        </mask>
                        <g id="Clip-175"></g>
                        <path d="M33.0406,10.6467 L36.0306,13.5827 C35.2766,14.1647 34.5086,14.7197 33.7276,15.2467 L30.7386,12.3107 C31.5196,11.7837 32.2866,11.2287 33.0406,10.6467" id="Fill-174" fill="#1F0256" mask="url(#mask-104)"></path>
                    </g>
                    <g id="Group-179">
                        <mask id="mask-106" fill="white">
                            <use xlink:href="#path-105"></use>
                        </mask>
                        <g id="Clip-178"></g>
                        <path d="M30.7389,12.3102 L33.7279,15.2462 C32.8799,15.8192 32.0149,16.3602 31.1389,16.8662 L28.1499,13.9312 C29.0259,13.4242 29.8889,12.8832 30.7389,12.3102" id="Fill-177" fill="#1F0256" mask="url(#mask-106)"></path>
                    </g>
                    <g id="Group-182">
                        <mask id="mask-108" fill="white">
                            <use xlink:href="#path-107"></use>
                        </mask>
                        <g id="Clip-181"></g>
                        <path d="M28.15,13.9308 L31.139,16.8668 C30.149,17.4398 29.142,17.9698 28.125,18.4548 L25.134,15.5188 C26.153,15.0338 27.159,14.5038 28.15,13.9308" id="Fill-180" fill="#1F0256" mask="url(#mask-108)"></path>
                    </g>
                    <g id="Group-185">
                        <mask id="mask-110" fill="white">
                            <use xlink:href="#path-109"></use>
                        </mask>
                        <g id="Clip-184"></g>
                        <path d="M25.1344,15.5192 L28.1244,18.4552 C26.8214,19.0762 25.4994,19.6242 24.1654,20.0972 L21.1764,17.1622 C22.5094,16.6882 23.8314,16.1402 25.1344,15.5192" id="Fill-183" fill="#1F0256" mask="url(#mask-110)"></path>
                    </g>
                    <g id="Group-188">
                        <mask id="mask-112" fill="white">
                            <use xlink:href="#path-111"></use>
                        </mask>
                        <g id="Clip-187"></g>
                        <path d="M21.1764,17.1618 L24.1654,20.0978 C17.0724,22.6138 9.6574,22.9948 3.0824,20.8748 L0.0934,17.9388 C6.6674,20.0578 14.0814,19.6778 21.1764,17.1618" id="Fill-186" fill="#1F0256" mask="url(#mask-112)"></path>
                    </g>
                </g>
                <g id="Group-198" transform="translate(19.000000, 0.109000)">
                    <path d="M39.2965,58.6525 C49.5385,64.5655 64.5335,59.8075 72.7185,48.0555 C80.9095,36.2945 79.2355,21.9245 68.9945,16.0125 C58.7605,10.1035 43.7715,14.8525 35.5795,26.6135 C27.3955,38.3655 29.0635,52.7435 39.2965,58.6525 M80.5945,52.6025 C70.2115,67.5085 52.2165,74.4915 38.0935,69.9395 L34.8495,74.5965 L36.0215,75.2735 L21.3915,96.2785 C18.7755,100.0355 14.0085,101.5485 10.7365,99.6585 C7.4735,97.7745 6.9425,93.2045 9.5595,89.4475 L24.1895,68.4425 L25.3605,69.1185 L28.6055,64.4615 C18.0525,54.7665 17.3225,36.9735 27.7045,22.0665 C39.3825,5.2985 60.6915,-1.4615 75.2925,6.9685 C89.9015,15.4025 92.2725,35.8345 80.5945,52.6025" id="Fill-190" fill="#167AF4"></path>
                    <path d="M24.1891,68.4421 L9.5591,89.4471 C6.9431,93.2051 7.4731,97.7741 10.7371,99.6591 C14.0081,101.5481 18.7751,100.0361 21.3911,96.2781 L36.0211,75.2731 L34.8491,74.5961 L25.3611,69.1181 L24.1891,68.4421 Z" id="Fill-192" fill="#A0D0FF"></path>
                    <path d="M11.3736,67.3351 C11.3736,70.2861 8.9806,72.6771 6.0306,72.6771 C3.0806,72.6771 0.6886,70.2861 0.6886,67.3351 C0.6886,64.3841 3.0806,61.9931 6.0306,61.9931 C8.9806,61.9931 11.3736,64.3841 11.3736,67.3351" id="Fill-194" fill="#E8E8F9"></path>
                    <path d="M32.65,3.3405 C32.65,4.6925 31.553,5.7895 30.201,5.7895 C28.848,5.7895 27.753,4.6925 27.753,3.3405 C27.753,1.9875 28.848,0.8915 30.201,0.8915 C31.553,0.8915 32.65,1.9875 32.65,3.3405" id="Fill-196" fill="#E8E8F9"></path>
                </g>
            </g>
        </g>
    </g>
</svg>