<?xml version="1.0" encoding="UTF-8"?>
<svg width="110px" height="109px" viewBox="0 0 110 109" version="1.1" xmlns="http://www.w3.org/2000/svg" xmlns:xlink="http://www.w3.org/1999/xlink">
    <!-- Generator: Sketch 52.6 (67491) - http://www.bohemiancoding.com/sketch -->
    <title>Group 21</title>
    <desc>Created with Sketch.</desc>
    <g id="Page-1" stroke="none" stroke-width="1" fill="none" fill-rule="evenodd">
        <g id="Version-1-Copy" transform="translate(-663.000000, -3315.000000)">
            <g id="Group-21" transform="translate(663.000000, 3315.000000)">
                <polygon id="Fill-1" fill="#167AF4" points="49.4643 39.798 24.7083 48.42 4.8163 31.152 29.5703 22.53"></polygon>
                <polygon id="Fill-2" fill="#1F0256" points="49.4643 39.798 44.6483 64.295 19.8933 72.917 24.7083 48.42"></polygon>
                <polygon id="Fill-3" fill="#A0D0FF" points="0.0009 55.6494 19.8929 72.9164 24.7089 48.4194 4.8159 31.1524"></polygon>
                <polygon id="Fill-4" fill="#E8E8F9" points="84.6594 46.1328 109.9994 52.8448 109.9994 52.8418 103.1824 27.4008 77.8414 20.6878"></polygon>
                <polygon id="Fill-5" fill="#C5C5DC" points="66.9564 63.7359 92.2954 70.4479 109.9994 52.8459 109.9994 52.8449 84.6594 46.1329"></polygon>
                <polygon id="Fill-6" fill="#8C8C96" points="84.6596 46.1325 66.9566 63.7355 60.1386 38.2915 77.8426 20.6885"></polygon>
                <polygon id="Fill-7" fill="#A0D0FF" points="46.089 103.3395 65.745 108.5455 60.457 88.8085 40.801 83.6015"></polygon>
                <polygon id="Fill-8" fill="#167AF4" points="40.8003 83.6018 54.5323 69.9478 74.1893 75.1548 60.4563 88.8088"></polygon>
                <polygon id="Fill-9" fill="#1F0256" points="60.4566 88.809 65.7446 108.546 79.4776 94.891 74.1886 75.154"></polygon>
                <polygon id="Fill-10" fill="#E8E8F9" points="45.0141 7.029 55.1331 9.71 57.8561 19.87 47.7371 17.19"></polygon>
                <polygon id="Fill-11" fill="#C5C5DC" points="52.0839 -0.0003 45.0139 7.0287 55.1329 9.7097 62.2029 2.6807"></polygon>
                <polygon id="Fill-12" fill="#8C8C96" points="55.1333 9.7097 62.2023 2.6807 64.9253 12.8407 57.8563 19.8707"></polygon>
                <polygon id="Fill-13" fill="#E8E8F9" points="22.7993 78.8537 20.1183 88.9727 9.9573 91.6947 12.6383 81.5767"></polygon>
                <polygon id="Fill-14" fill="#C5C5DC" points="22.7993 78.8537 29.8283 85.9227 27.1483 96.0417 20.1183 88.9727"></polygon>
                <polygon id="Fill-15" fill="#8C8C96" points="20.1186 88.9724 27.1476 96.0414 16.9866 98.7644 9.9576 91.6954"></polygon>
                <g id="Group-20" transform="translate(32.000000, 74.546000)" fill="#E8E8F9">
                    <path d="M61.8208,5.9356 C61.8208,8.8856 59.4288,11.2776 56.4778,11.2776 C53.5278,11.2776 51.1358,8.8856 51.1358,5.9356 C51.1358,2.9846 53.5278,0.5926 56.4778,0.5926 C59.4288,0.5926 61.8208,2.9846 61.8208,5.9356" id="Fill-16"></path>
                    <path d="M5.1274,29.1266 C5.1274,30.4796 4.0304,31.5756 2.6784,31.5756 C1.3254,31.5756 0.2304,30.4796 0.2304,29.1266 C0.2304,27.7736 1.3254,26.6776 2.6784,26.6776 C4.0304,26.6776 5.1274,27.7736 5.1274,29.1266" id="Fill-18"></path>
                </g>
            </g>
        </g>
    </g>
</svg>