<svg width="57" height="26" viewBox="0 0 57 26" fill="none" xmlns="http://www.w3.org/2000/svg">
<path fill-rule="evenodd" clip-rule="evenodd" d="M39.2899 16.2142C39.2727 16.8786 39.1474 17.5016 38.9032 18.0794C38.6397 18.7009 38.2873 19.2414 37.8449 19.7008C37.4028 20.161 36.8771 20.5274 36.2675 20.8005H36.2487C36.2015 20.8252 36.1486 20.8427 36.0996 20.8653C35.5439 21.0894 34.9554 21.2073 34.3316 21.2093C33.644 21.2071 33.0047 21.0714 32.4127 20.7992C31.8151 20.5248 31.2838 20.151 30.818 19.6769C30.3513 19.2028 29.9871 18.6542 29.7242 18.0312C29.4607 17.4081 29.3296 16.7472 29.3296 16.0482C29.3296 15.3248 29.4607 14.6459 29.7242 14.0099C29.9871 13.3739 30.3513 12.8251 30.818 12.3639C31.2838 11.9025 31.8151 11.5346 32.4127 11.2601C33.0103 10.986 33.655 10.8485 34.3489 10.8485C35.0182 10.8485 35.6574 10.9794 36.2675 11.2411C36.8771 11.5028 37.4147 11.8702 37.8805 12.3436C38.3465 12.817 38.7106 13.3653 38.9738 13.9876C39.1255 14.3461 39.2254 14.7239 39.2899 15.1155V16.2142ZM43.2665 6.67861H40.2933L40.0883 6.67556C39.9775 6.67556 39.8721 6.69868 39.7768 6.73959C39.4907 6.85902 39.2899 7.14106 39.2899 7.46985V9.12145C38.6362 8.26058 37.8632 7.59614 36.966 7.1342C36.0343 6.65346 34.9462 6.41309 33.704 6.41309C32.4363 6.41309 31.2411 6.66819 30.1183 7.17739C28.9944 7.68659 28.0151 8.3762 27.1787 9.24595C26.3419 10.116 25.6785 11.1346 25.1889 12.3022C24.6985 13.4705 24.4538 14.7249 24.4538 16.0668C24.4538 17.384 24.6985 18.6262 25.1889 19.7938C25.6785 20.9624 26.3419 21.9808 27.1787 22.8505C28.0151 23.7205 28.9944 24.4038 30.1183 24.9008C31.2411 25.3973 32.4363 25.6458 33.704 25.6458C33.9002 25.6458 34.091 25.6376 34.2787 25.6257C34.3207 25.6229 34.3623 25.6196 34.4033 25.6163C34.5832 25.6023 34.7603 25.5838 34.9328 25.5584C34.9374 25.5576 34.9419 25.5574 34.9462 25.5566C36.7826 25.2867 38.2301 24.3906 39.2899 22.8696V24.524C39.2899 24.961 39.6441 25.3152 40.0809 25.3152H43.2665C43.7043 25.3152 44.0587 24.961 44.0587 24.524V7.46985C44.0587 7.03281 43.7043 6.67861 43.2665 6.67861Z" fill="#2D343B"></path>
<path fill-rule="evenodd" clip-rule="evenodd" d="M46.2024 6.67871H49.3882C49.8249 6.67871 50.1791 7.03291 50.1791 7.46995V24.5238C50.1791 24.9611 49.8249 25.3153 49.3882 25.3153H46.2024C45.7656 25.3153 45.4116 24.9611 45.4116 24.5238V7.46995C45.4116 7.03291 45.7656 6.67871 46.2024 6.67871Z" fill="#2D343B"></path>
<path fill-rule="evenodd" clip-rule="evenodd" d="M24.6323 9.61673V8.2712V7.38867C24.6323 6.99714 24.3139 6.6761 23.9231 6.69954C21.9642 6.81698 20.9495 7.47356 19.8124 9.10124V7.46946C19.8124 7.03243 19.4577 6.67822 19.0212 6.67822H15.7276C15.2909 6.67822 14.9364 7.03243 14.9364 7.46946V24.5236C14.9364 24.9606 15.2909 25.3148 15.7276 25.3148H19.0212C19.4577 25.3148 19.8124 24.9606 19.8124 24.5236V15.0648C19.9074 14.4684 20.1049 13.9094 20.4042 13.3878C20.7025 12.8656 21.0674 12.6125 21.4975 12.2268C21.928 11.8419 22.4174 11.6434 22.9677 11.4323C23.2791 11.3127 23.603 11.2294 23.9383 11.1795C24.3208 11.1226 24.6323 10.8133 24.6323 10.4266V9.61673Z" fill="#2D343B"></path>
<path fill-rule="evenodd" clip-rule="evenodd" d="M48.8108 0.879752L45.6392 4.05081C45.1384 4.55163 45.4928 5.40791 46.201 5.40791H49.3782C49.8177 5.40791 50.1737 5.05117 50.1729 4.61185L50.1679 1.44079C50.1666 0.733141 49.3113 0.3797 48.8108 0.879752Z" fill="#2D343B"></path>
<path fill-rule="evenodd" clip-rule="evenodd" d="M56.2225 4.58712V4.56171H56.2199C56.2095 4.38131 56.1376 4.20039 55.9882 4.05073L52.8166 0.879927C52.3161 0.379621 51.4608 0.733062 51.4595 1.44071L51.4542 4.56171V24.5903C51.4542 24.9882 51.7769 25.3106 52.1745 25.3106H55.5021C55.8998 25.3106 56.2225 24.9882 56.2225 24.5903V4.58814V4.58712Z" fill="#2D343B"></path>
<path fill-rule="evenodd" clip-rule="evenodd" d="M12.826 20.5585H10.1426C9.59271 20.5585 9.12137 20.3603 8.72778 19.9629C8.33394 19.5663 8.13677 19.0822 8.13677 18.511V13.4836H8.13601V11.4557L10.7509 11.4643C11.1882 11.4648 11.5434 11.1104 11.5434 10.6728V7.48828C11.5434 7.07945 11.2321 6.74684 10.8339 6.70517H8.16853V3.16492C8.16853 3.13544 8.16294 3.10749 8.15989 3.07903L8.1571 1.44065C8.15608 0.733262 7.30055 0.379567 6.80025 0.879873L3.62868 4.05093C3.43862 4.24074 3.40101 4.47909 3.40101 4.70776V6.70517H3.39415V6.71534L1.96209 6.70517H1.70724V6.70339L0.790986 6.69679C0.354458 6.69679 0 7.05124 0 7.48828V10.6393C0 11.0761 0.353441 11.4303 0.790224 11.4308L3.38755 11.4394L3.37738 13.4836H3.37433V14.1386L3.36874 15.2193C3.36874 15.2378 3.37281 15.2551 3.37433 15.2734V18.353C3.37433 19.3208 3.55321 20.2272 3.91148 21.071C4.26924 21.9148 4.75278 22.6532 5.36184 23.2859C5.97064 23.9189 6.68667 24.4156 7.51043 24.7751C8.33394 25.1352 9.21132 25.3148 10.1426 25.3148H12.826C13.2623 25.3148 13.6157 24.9614 13.6157 24.5254V21.348C13.6157 20.9119 13.2623 20.5585 12.826 20.5585Z" fill="#2D343B"></path>
</svg>