<?xml version="1.0" encoding="utf-8"?>
<!-- Generator: Adobe Illustrator 24.3.0, SVG Export Plug-In . SVG Version: 6.00 Build 0)  -->
<svg version="1.1" id="Layer_1" xmlns="http://www.w3.org/2000/svg" xmlns:xlink="http://www.w3.org/1999/xlink" x="0px" y="0px"
	 width="63.2px" height="63.2px" viewBox="0 0 63.2 63.2" style="enable-background:new 0 0 63.2 63.2;" xml:space="preserve">
<style type="text/css">
	.st0{fill:url(#SVGID_1_);}
	.st1{fill:#28145A;}
</style>
<g>
	<linearGradient id="SVGID_1_" gradientUnits="userSpaceOnUse" x1="0" y1="31.5978" x2="63.1955" y2="31.5978">
		<stop  offset="0" style="stop-color:#C2A9FF"/>
		<stop  offset="1" style="stop-color:#C2A9FF;stop-opacity:0"/>
	</linearGradient>
	<circle class="st0" cx="31.6" cy="31.6" r="31.6"/>
	<path class="st1" d="M59.2,20.3H47.5v-4.2c0-1.1-0.9-2-2-2H34.7c-1.1,0-2,0.9-2,2v4.2H21c-1.1,0-2,0.9-2,2v24.8c0,1.1,0.9,2,2,2
		h38.2c1.1,0,2-0.9,2-2V22.3C61.2,21.2,60.3,20.3,59.2,20.3z M36.7,18.1h6.7v2.2h-6.7V18.1z M57.1,24.3v4.3H23v-4.3H57.1z M23,45.1
		V32.7h12.1v2c0,1.1,0.9,2,2,2h5.9c1.1,0,2-0.9,2-2v-2h12.1v12.4H23z"/>
</g>
</svg>
