<?xml version="1.0" encoding="utf-8"?>
<!-- Generator: Adobe Illustrator 24.3.0, SVG Export Plug-In . SVG Version: 6.00 Build 0)  -->
<svg version="1.1" id="Layer_1" xmlns="http://www.w3.org/2000/svg" xmlns:xlink="http://www.w3.org/1999/xlink" x="0px" y="0px"
	 width="44.5px" height="44.5px" viewBox="0 0 44.5 44.5" style="enable-background:new 0 0 44.5 44.5;" xml:space="preserve">
<style type="text/css">
	.st0{fill:#F2465B;}
	.st1{fill:#2E1872;}
</style>
<g>
	<path class="st0" d="M29.7,14.8h-15v15h15V14.8z M25.1,25.1h-5.8v-5.8h5.8V25.1z"/>
	<path class="st1" d="M44.5,19.4v-4.6h-6.3V6.3h-8.5V0h-4.6v6.3h-5.8V0h-4.6v6.3H6.3v8.5H0v4.6h6.3v5.8H0v4.6h6.3v8.5h8.5v6.3h4.6
		v-6.3h5.8v6.3h4.6v-6.3h8.5v-8.5h6.3v-4.6h-6.3v-5.8H44.5z M33.6,33.6H10.9V10.9h22.7V33.6z"/>
</g>
</svg>
