<?xml version="1.0" encoding="utf-8"?>
<!-- Generator: Adobe Illustrator 24.3.0, SVG Export Plug-In . SVG Version: 6.00 Build 0)  -->
<svg version="1.1" id="Layer_1" xmlns="http://www.w3.org/2000/svg" xmlns:xlink="http://www.w3.org/1999/xlink" x="0px" y="0px"
	 width="49.1px" height="34.4px" viewBox="0 0 49.1 34.4" style="enable-background:new 0 0 49.1 34.4;" xml:space="preserve">
<style type="text/css">
	.st0{fill:#2E1872;}
	.st1{fill:#F2465B;}
</style>
<g>
	<path class="st0" d="M5.7,8.6C2.6,8.6,0,11.2,0,14.3v4.8c0,2.4,1.5,4.4,3.5,5.3l3.6,10h10.2l-3-8.3l21.1,7.4V0L10.7,8.6H5.7z
		 M31.4,27.9L13,21.4V12l18.4-6.4V27.9z M9.9,30.4l-2-5.6h1.7l2,5.6H9.9z M4,19.1v-4.8c0-1,0.8-1.7,1.7-1.7h3.3v8.3H5.7
		C4.8,20.9,4,20.1,4,19.1z"/>
	<path class="st1" d="M44.8,6.5L42,9.3c2,2,3.1,4.7,3.1,7.5c0,2.8-1.1,5.4-3,7.4l2.8,2.8c2.7-2.7,4.2-6.4,4.2-10.2
		C49.1,12.9,47.6,9.2,44.8,6.5z"/>
	<path class="st1" d="M40.4,10.9l-2.8,2.8c0.8,0.8,1.3,1.9,1.3,3.1c0,1.1-0.4,2.2-1.2,3l2.9,2.7c1.5-1.6,2.3-3.6,2.3-5.8
		C42.9,14.5,42,12.4,40.4,10.9z"/>
</g>
</svg>
