<?xml version="1.0" encoding="utf-8"?>
<!-- Generator: Adobe Illustrator 24.3.0, SVG Export Plug-In . SVG Version: 6.00 Build 0)  -->
<svg version="1.1" id="Layer_1" xmlns="http://www.w3.org/2000/svg" xmlns:xlink="http://www.w3.org/1999/xlink" x="0px" y="0px"
	 width="63.2px" height="63.2px" viewBox="0 0 63.2 63.2" style="enable-background:new 0 0 63.2 63.2;" xml:space="preserve">
<style type="text/css">
	.st0{fill:url(#SVGID_1_);}
	.st1{fill:#28145A;}
</style>
<linearGradient id="SVGID_1_" gradientUnits="userSpaceOnUse" x1="0" y1="31.5978" x2="63.1955" y2="31.5978">
	<stop  offset="0" style="stop-color:#C2A9FF"/>
	<stop  offset="1" style="stop-color:#C2A9FF;stop-opacity:0"/>
</linearGradient>
<circle class="st0" cx="31.6" cy="31.6" r="31.6"/>
<g>
	<path class="st1" d="M55.8,28v-1.1c0-8.5-6.9-15.5-15.5-15.5c-8.5,0-15.5,6.9-15.5,15.5v1.1c-1.4,0.4-2.5,1.6-2.5,3.2v6.3
		c0,1.8,1.5,3.3,3.3,3.3h2.4c1.8,0,3.3-1.5,3.3-3.3v-6.3c0-1.6-1.2-3-2.8-3.2v-1c0-6.5,5.3-11.8,11.8-11.8s11.8,5.3,11.8,11.8v1
		c-1.6,0.2-2.9,1.6-2.9,3.2v6.3c0,1.6,1.1,2.9,2.6,3.2v4.2c0,0.5-0.4,0.9-0.9,0.9h-4.3c-0.2-1.6-1.6-2.8-3.2-2.8h-6.3
		c-1.8,0-3.3,1.5-3.3,3.3v2.4c0,1.8,1.5,3.3,3.3,3.3h6.3c1.5,0,2.8-1,3.2-2.5H51c2.5,0,4.6-2.1,4.6-4.6v-4.2
		c1.5-0.3,2.6-1.6,2.6-3.2v-6.3C58.2,29.6,57.2,28.4,55.8,28z M27.7,36.9h-1.5v-5.4h1.5V36.9z M52.9,31.5h1.5v5.4h-1.5V31.5z"/>
	<path class="st1" d="M46.8,29.8c-0.1-0.2-0.2-0.3-0.4-0.3l-3.8-0.6l-1.7-3.5c-0.1-0.3-0.6-0.3-0.8,0l-1.7,3.5l-3.8,0.6
		c-0.2,0-0.3,0.1-0.4,0.3c-0.1,0.2,0,0.3,0.1,0.4l2.8,2.7l-0.7,3.8c0,0.2,0,0.3,0.2,0.4c0.1,0.1,0.3,0.1,0.5,0l3.4-1.8l3.4,1.8
		c0.1,0,0.1,0.1,0.2,0.1c0.1,0,0.2,0,0.3-0.1c0.1-0.1,0.2-0.3,0.2-0.4l-0.7-3.8l2.8-2.7C46.8,30.1,46.9,29.9,46.8,29.8z"/>
</g>
</svg>
