<?xml version="1.0" encoding="utf-8"?>
<!-- Generator: Adobe Illustrator 24.3.0, SVG Export Plug-In . SVG Version: 6.00 Build 0)  -->
<svg version="1.1" id="Layer_1" xmlns="http://www.w3.org/2000/svg" xmlns:xlink="http://www.w3.org/1999/xlink" x="0px" y="0px"
	 width="41.4px" height="41.4px" viewBox="0 0 41.4 41.4" style="enable-background:new 0 0 41.4 41.4;" xml:space="preserve">
<style type="text/css">
	.st0{fill:#F2465B;}
	.st1{fill:#2E1872;}
</style>
<g id="Solid_7_">
	<g>
		<path class="st0" d="M25.9,5.2V7c-2,0.4-3.4,2.1-3.4,4.2c0,2.4,1.9,4.3,4.3,4.3h1.7c0.5,0,0.9,0.4,0.9,0.9c0,0.5-0.4,0.9-0.9,0.9
			h-2.6v5.2h3.4v-1.8c2-0.4,3.4-2.1,3.4-4.2c0-2.4-1.9-4.3-4.3-4.3h-1.7c-0.5,0-0.9-0.4-0.9-0.9c0-0.5,0.4-0.9,0.9-0.9h6V6.9h-3.4
			V5.2H25.9z"/>
		<path class="st1" d="M32.7,31c0,1-0.8,1.7-1.7,1.7h-8.6v3.4h6.9c0,1-0.8,1.7-1.7,1.7H14.5l-4.2-4.2v-8.9l4.2-4.2h6.2v1.7
			c0,1-0.8,1.7-1.7,1.7h-3.4v3.4H19c2.9,0,5.2-2.3,5.2-5.2V19c0-1-0.8-1.7-1.7-1.7h-8.6c-0.5,0-0.9,0.2-1.2,0.5l-3.2,3.2
			c-0.2-0.1-0.5-0.2-0.8-0.2H1.7c-1,0-1.7,0.8-1.7,1.7v13.8c0,1,0.8,1.7,1.7,1.7h6.9c0.3,0,0.6-0.1,0.8-0.2l3.2,3.2
			c0.3,0.3,0.8,0.5,1.2,0.5h13.8c2.9,0,5.2-2.3,5.2-5.2v-0.3c2-0.7,3.4-2.6,3.4-4.9v-1.7h-3.4V31z M6.9,34.5H3.4V24.1h3.4V34.5z"/>
		<path class="st0" d="M27.6,0C20,0,13.8,6.2,13.8,13.8c0,0.6,0,1.2,0.1,1.7h3.5c-0.1-0.6-0.2-1.1-0.2-1.7c0-5.7,4.6-10.3,10.3-10.3
			s10.3,4.6,10.3,10.3c0,5.7-4.6,10.3-10.3,10.3c-0.6,0-1.2-0.1-1.7-0.2v3.5c0.6,0.1,1.1,0.1,1.7,0.1c7.6,0,13.8-6.2,13.8-13.8
			C41.4,6.2,35.2,0,27.6,0z"/>
	</g>
</g>
</svg>
