<?xml version="1.0" encoding="utf-8"?>
<!-- Generator: Adobe Illustrator 24.3.0, SVG Export Plug-In . SVG Version: 6.00 Build 0)  -->
<svg version="1.1" id="Layer_1" xmlns="http://www.w3.org/2000/svg" xmlns:xlink="http://www.w3.org/1999/xlink" x="0px" y="0px"
	 width="29.1px" height="41.6px" viewBox="0 0 29.1 41.6" style="enable-background:new 0 0 29.1 41.6;" xml:space="preserve">
<style type="text/css">
	.st0{fill:#2E1872;}
	.st1{fill:#F2465B;}
</style>
<g id="Outline_20_">
	<g>
		<path class="st0" d="M28.7,0.8c-0.4-0.5-1-0.8-1.6-0.8h-25C1.5,0,0.9,0.3,0.5,0.8C0.1,1.3-0.1,1.9,0,2.5l4.2,18.7l4.1-0.9L4.7,4.2
			h6.1l1.7,8.3h4.2l1.7-8.3h6.1l-3.6,16.2l4.1,0.9l4.2-18.7C29.2,1.9,29.1,1.3,28.7,0.8z"/>
		<g>
			<path class="st1" d="M22.9,41.6c-0.3,0-0.6-0.1-0.9-0.2l-7.4-3.7l-7.4,3.7c-0.7,0.4-1.6,0.3-2.2-0.2C4.3,40.7,4,39.8,4.2,39
				l1.9-7.4l-3.7-5.5C2,25.5,2,24.7,2.3,24c0.4-0.7,1.1-1.1,1.8-1.1h5l3.6-7.2c0.7-1.4,3-1.4,3.7,0l3.6,7.2h5c0.8,0,1.5,0.4,1.8,1.1
				c0.4,0.7,0.3,1.5-0.1,2.1l-3.7,5.5l1.9,7.4c0.2,0.8-0.1,1.6-0.7,2.1C23.8,41.5,23.4,41.6,22.9,41.6z M14.6,33.3
				c0.3,0,0.6,0.1,0.9,0.2l4.3,2.1l-1-3.9c-0.1-0.6,0-1.2,0.3-1.7l2-3h-2.4c-0.8,0-1.5-0.4-1.9-1.2l-2.3-4.6l-2.3,4.6
				c-0.4,0.7-1.1,1.2-1.9,1.2H8.1l2,3c0.3,0.5,0.4,1.1,0.3,1.7l-1,3.9l4.3-2.1C13.9,33.4,14.3,33.3,14.6,33.3z"/>
		</g>
	</g>
</g>
</svg>
