<?xml version="1.0" encoding="utf-8"?>
<!-- Generator: Adobe Illustrator 24.3.0, SVG Export Plug-In . SVG Version: 6.00 Build 0)  -->
<svg version="1.1" id="Layer_1" xmlns="http://www.w3.org/2000/svg" xmlns:xlink="http://www.w3.org/1999/xlink" x="0px" y="0px"
	 width="45px" height="38.2px" viewBox="0 0 45 38.2" style="enable-background:new 0 0 45 38.2;" xml:space="preserve">
<style type="text/css">
	.st0{fill:#F2465B;}
	.st1{fill:#2E1872;}
</style>
<g id="Outline_22_">
	<g>
		<polygon class="st0" points="20.2,23.8 15.1,18.7 11.9,21.8 20.2,30.2 33.1,17.3 29.9,14.2 		"/>
		<path class="st1" d="M40.5,6.8H21.9l-3.7-4.9C17.4,0.7,16,0,14.6,0H4.5C2,0,0,2,0,4.5v29.2c0,2.5,2,4.5,4.5,4.5h36
			c2.5,0,4.5-2,4.5-4.5V11.2C45,8.8,43,6.8,40.5,6.8z M4.5,33.8V4.5h10.1l3.7,4.9c0.8,1.1,2.2,1.8,3.6,1.8h18.6l0,22.5H4.5z"/>
	</g>
</g>
</svg>
