<svg width="302" height="255" viewBox="0 0 302 255" fill="none" xmlns="http://www.w3.org/2000/svg">
<path d="M104.458 172.454C79.2711 197.915 13.7425 250.826 12.0507 254.462L178.797 221.821C178.797 221.821 132.458 190.954 104.458 172.454Z" fill="white"/>
<path d="M169.428 130.793C132.675 167.947 37.0536 245.156 34.5848 250.462L277.908 202.831C277.908 202.831 210.287 157.789 169.428 130.793Z" fill="white"/>
<path d="M104 235.761L104.5 172.761L179 220.761L104 235.761Z" fill="#337CBF"/>
<path d="M169 223.261L169.727 131.261L278 201.356L169 223.261Z" fill="#337CBF"/>
<circle cx="46" cy="123" r="34" fill="#337CBF"/>
<circle cx="253.254" cy="35.7455" r="1.25424" transform="rotate(-90 253.254 35.7455)" fill="#337CBF"/>
<circle cx="301.254" cy="35.7455" r="1.25424" transform="rotate(-90 301.254 35.7455)" fill="#337CBF"/>
<circle cx="277.254" cy="35.7455" r="1.25424" transform="rotate(-90 277.254 35.7455)" fill="#337CBF"/>
<circle cx="253.254" cy="15.0508" r="1.25424" transform="rotate(-90 253.254 15.0508)" fill="#337CBF"/>
<circle cx="301.254" cy="15.0508" r="1.25424" transform="rotate(-90 301.254 15.0508)" fill="#337CBF"/>
<circle cx="277.254" cy="15.0508" r="1.25424" transform="rotate(-90 277.254 15.0508)" fill="#337CBF"/>
<circle cx="261.254" cy="35.7455" r="1.25424" transform="rotate(-90 261.254 35.7455)" fill="#337CBF"/>
<circle cx="285.254" cy="35.7455" r="1.25424" transform="rotate(-90 285.254 35.7455)" fill="#337CBF"/>
<circle cx="269.254" cy="35.7455" r="1.25424" transform="rotate(-90 269.254 35.7455)" fill="#337CBF"/>
<circle cx="293.254" cy="35.7455" r="1.25424" transform="rotate(-90 293.254 35.7455)" fill="#337CBF"/>
<circle cx="261.254" cy="35.7455" r="1.25424" transform="rotate(-90 261.254 35.7455)" fill="#337CBF"/>
<circle cx="285.254" cy="35.7455" r="1.25424" transform="rotate(-90 285.254 35.7455)" fill="#337CBF"/>
<circle cx="269.254" cy="35.7455" r="1.25424" transform="rotate(-90 269.254 35.7455)" fill="#337CBF"/>
<circle cx="293.254" cy="35.7455" r="1.25424" transform="rotate(-90 293.254 35.7455)" fill="#337CBF"/>
<circle cx="261.254" cy="15.0508" r="1.25424" transform="rotate(-90 261.254 15.0508)" fill="#337CBF"/>
<circle cx="285.254" cy="15.0508" r="1.25424" transform="rotate(-90 285.254 15.0508)" fill="#337CBF"/>
<circle cx="269.254" cy="15.0508" r="1.25424" transform="rotate(-90 269.254 15.0508)" fill="#337CBF"/>
<circle cx="293.254" cy="15.0508" r="1.25424" transform="rotate(-90 293.254 15.0508)" fill="#337CBF"/>
<circle cx="261.254" cy="15.0508" r="1.25424" transform="rotate(-90 261.254 15.0508)" fill="#337CBF"/>
<circle cx="285.254" cy="15.0508" r="1.25424" transform="rotate(-90 285.254 15.0508)" fill="#337CBF"/>
<circle cx="269.254" cy="15.0508" r="1.25424" transform="rotate(-90 269.254 15.0508)" fill="#337CBF"/>
<circle cx="293.254" cy="15.0508" r="1.25424" transform="rotate(-90 293.254 15.0508)" fill="#337CBF"/>
<circle cx="253.254" cy="35.7455" r="1.25424" transform="rotate(-90 253.254 35.7455)" fill="#337CBF"/>
<circle cx="301.254" cy="35.7455" r="1.25424" transform="rotate(-90 301.254 35.7455)" fill="#337CBF"/>
<circle cx="277.254" cy="35.7455" r="1.25424" transform="rotate(-90 277.254 35.7455)" fill="#337CBF"/>
<circle cx="253.254" cy="15.0508" r="1.25424" transform="rotate(-90 253.254 15.0508)" fill="#337CBF"/>
<circle cx="301.254" cy="15.0508" r="1.25424" transform="rotate(-90 301.254 15.0508)" fill="#337CBF"/>
<circle cx="277.254" cy="15.0508" r="1.25424" transform="rotate(-90 277.254 15.0508)" fill="#337CBF"/>
<circle cx="253.254" cy="28.8471" r="1.25424" transform="rotate(-90 253.254 28.8471)" fill="#337CBF"/>
<circle cx="301.254" cy="28.8471" r="1.25424" transform="rotate(-90 301.254 28.8471)" fill="#337CBF"/>
<circle cx="277.254" cy="28.8471" r="1.25424" transform="rotate(-90 277.254 28.8471)" fill="#337CBF"/>
<circle cx="253.254" cy="8.15238" r="1.25424" transform="rotate(-90 253.254 8.15238)" fill="#337CBF"/>
<circle cx="301.254" cy="8.15238" r="1.25424" transform="rotate(-90 301.254 8.15238)" fill="#337CBF"/>
<circle cx="277.254" cy="8.15238" r="1.25424" transform="rotate(-90 277.254 8.15238)" fill="#337CBF"/>
<circle cx="253.254" cy="28.8471" r="1.25424" transform="rotate(-90 253.254 28.8471)" fill="#337CBF"/>
<circle cx="301.254" cy="28.8471" r="1.25424" transform="rotate(-90 301.254 28.8471)" fill="#337CBF"/>
<circle cx="277.254" cy="28.8471" r="1.25424" transform="rotate(-90 277.254 28.8471)" fill="#337CBF"/>
<circle cx="253.254" cy="8.15238" r="1.25424" transform="rotate(-90 253.254 8.15238)" fill="#337CBF"/>
<circle cx="301.254" cy="8.15238" r="1.25424" transform="rotate(-90 301.254 8.15238)" fill="#337CBF"/>
<circle cx="277.254" cy="8.15238" r="1.25424" transform="rotate(-90 277.254 8.15238)" fill="#337CBF"/>
<circle cx="261.254" cy="28.8471" r="1.25424" transform="rotate(-90 261.254 28.8471)" fill="#337CBF"/>
<circle cx="285.254" cy="28.8471" r="1.25424" transform="rotate(-90 285.254 28.8471)" fill="#337CBF"/>
<circle cx="269.254" cy="28.8471" r="1.25424" transform="rotate(-90 269.254 28.8471)" fill="#337CBF"/>
<circle cx="293.254" cy="28.8471" r="1.25424" transform="rotate(-90 293.254 28.8471)" fill="#337CBF"/>
<circle cx="261.254" cy="28.8471" r="1.25424" transform="rotate(-90 261.254 28.8471)" fill="#337CBF"/>
<circle cx="285.254" cy="28.8471" r="1.25424" transform="rotate(-90 285.254 28.8471)" fill="#337CBF"/>
<circle cx="269.254" cy="28.8471" r="1.25424" transform="rotate(-90 269.254 28.8471)" fill="#337CBF"/>
<circle cx="293.254" cy="28.8471" r="1.25424" transform="rotate(-90 293.254 28.8471)" fill="#337CBF"/>
<circle cx="261.254" cy="8.15238" r="1.25424" transform="rotate(-90 261.254 8.15238)" fill="#337CBF"/>
<circle cx="285.254" cy="8.15238" r="1.25424" transform="rotate(-90 285.254 8.15238)" fill="#337CBF"/>
<circle cx="269.254" cy="8.15238" r="1.25424" transform="rotate(-90 269.254 8.15238)" fill="#337CBF"/>
<circle cx="293.254" cy="8.15238" r="1.25424" transform="rotate(-90 293.254 8.15238)" fill="#337CBF"/>
<circle cx="261.254" cy="8.15238" r="1.25424" transform="rotate(-90 261.254 8.15238)" fill="#337CBF"/>
<circle cx="285.254" cy="8.15238" r="1.25424" transform="rotate(-90 285.254 8.15238)" fill="#337CBF"/>
<circle cx="269.254" cy="8.15238" r="1.25424" transform="rotate(-90 269.254 8.15238)" fill="#337CBF"/>
<circle cx="293.254" cy="8.15238" r="1.25424" transform="rotate(-90 293.254 8.15238)" fill="#337CBF"/>
<circle cx="253.254" cy="21.949" r="1.25424" transform="rotate(-90 253.254 21.949)" fill="#337CBF"/>
<circle cx="301.254" cy="21.949" r="1.25424" transform="rotate(-90 301.254 21.949)" fill="#337CBF"/>
<circle cx="277.254" cy="21.949" r="1.25424" transform="rotate(-90 277.254 21.949)" fill="#337CBF"/>
<circle cx="253.254" cy="1.25419" r="1.25424" transform="rotate(-90 253.254 1.25419)" fill="#337CBF"/>
<circle cx="301.254" cy="1.25419" r="1.25424" transform="rotate(-90 301.254 1.25419)" fill="#337CBF"/>
<circle cx="277.254" cy="1.25419" r="1.25424" transform="rotate(-90 277.254 1.25419)" fill="#337CBF"/>
<circle cx="261.254" cy="21.949" r="1.25424" transform="rotate(-90 261.254 21.949)" fill="#337CBF"/>
<circle cx="285.254" cy="21.949" r="1.25424" transform="rotate(-90 285.254 21.949)" fill="#337CBF"/>
<circle cx="269.254" cy="21.949" r="1.25424" transform="rotate(-90 269.254 21.949)" fill="#337CBF"/>
<circle cx="293.254" cy="21.949" r="1.25424" transform="rotate(-90 293.254 21.949)" fill="#337CBF"/>
<circle cx="261.254" cy="21.949" r="1.25424" transform="rotate(-90 261.254 21.949)" fill="#337CBF"/>
<circle cx="285.254" cy="21.949" r="1.25424" transform="rotate(-90 285.254 21.949)" fill="#337CBF"/>
<circle cx="269.254" cy="21.949" r="1.25424" transform="rotate(-90 269.254 21.949)" fill="#337CBF"/>
<circle cx="293.254" cy="21.949" r="1.25424" transform="rotate(-90 293.254 21.949)" fill="#337CBF"/>
<circle cx="261.254" cy="1.25419" r="1.25424" transform="rotate(-90 261.254 1.25419)" fill="#337CBF"/>
<circle cx="285.254" cy="1.25419" r="1.25424" transform="rotate(-90 285.254 1.25419)" fill="#337CBF"/>
<circle cx="269.254" cy="1.25419" r="1.25424" transform="rotate(-90 269.254 1.25419)" fill="#337CBF"/>
<circle cx="293.254" cy="1.25419" r="1.25424" transform="rotate(-90 293.254 1.25419)" fill="#337CBF"/>
<circle cx="261.254" cy="1.25419" r="1.25424" transform="rotate(-90 261.254 1.25419)" fill="#337CBF"/>
<circle cx="285.254" cy="1.25419" r="1.25424" transform="rotate(-90 285.254 1.25419)" fill="#337CBF"/>
<circle cx="269.254" cy="1.25419" r="1.25424" transform="rotate(-90 269.254 1.25419)" fill="#337CBF"/>
<circle cx="293.254" cy="1.25419" r="1.25424" transform="rotate(-90 293.254 1.25419)" fill="#337CBF"/>
<circle cx="213.254" cy="94.7455" r="1.25424" transform="rotate(-90 213.254 94.7455)" fill="#337CBF"/>
<circle cx="261.254" cy="94.7455" r="1.25424" transform="rotate(-90 261.254 94.7455)" fill="#337CBF"/>
<circle cx="237.254" cy="94.7455" r="1.25424" transform="rotate(-90 237.254 94.7455)" fill="#337CBF"/>
<circle cx="285.254" cy="94.7455" r="1.25424" transform="rotate(-90 285.254 94.7455)" fill="#337CBF"/>
<circle cx="213.254" cy="74.0508" r="1.25424" transform="rotate(-90 213.254 74.0508)" fill="#337CBF"/>
<circle cx="261.254" cy="74.0508" r="1.25424" transform="rotate(-90 261.254 74.0508)" fill="#337CBF"/>
<circle cx="237.254" cy="74.0508" r="1.25424" transform="rotate(-90 237.254 74.0508)" fill="#337CBF"/>
<circle cx="285.254" cy="74.0508" r="1.25424" transform="rotate(-90 285.254 74.0508)" fill="#337CBF"/>
<circle cx="221.254" cy="94.7455" r="1.25424" transform="rotate(-90 221.254 94.7455)" fill="#337CBF"/>
<circle cx="269.254" cy="94.7455" r="1.25424" transform="rotate(-90 269.254 94.7455)" fill="#337CBF"/>
<circle cx="245.254" cy="94.7455" r="1.25424" transform="rotate(-90 245.254 94.7455)" fill="#337CBF"/>
<circle cx="293.254" cy="94.7455" r="1.25424" transform="rotate(-90 293.254 94.7455)" fill="#337CBF"/>
<circle cx="229.254" cy="94.7455" r="1.25424" transform="rotate(-90 229.254 94.7455)" fill="#337CBF"/>
<circle cx="277.254" cy="94.7455" r="1.25424" transform="rotate(-90 277.254 94.7455)" fill="#337CBF"/>
<circle cx="253.254" cy="94.7455" r="1.25424" transform="rotate(-90 253.254 94.7455)" fill="#337CBF"/>
<circle cx="301.254" cy="94.7455" r="1.25424" transform="rotate(-90 301.254 94.7455)" fill="#337CBF"/>
<circle cx="221.254" cy="94.7455" r="1.25424" transform="rotate(-90 221.254 94.7455)" fill="#337CBF"/>
<circle cx="269.254" cy="94.7455" r="1.25424" transform="rotate(-90 269.254 94.7455)" fill="#337CBF"/>
<circle cx="245.254" cy="94.7455" r="1.25424" transform="rotate(-90 245.254 94.7455)" fill="#337CBF"/>
<circle cx="293.254" cy="94.7455" r="1.25424" transform="rotate(-90 293.254 94.7455)" fill="#337CBF"/>
<circle cx="229.254" cy="94.7455" r="1.25424" transform="rotate(-90 229.254 94.7455)" fill="#337CBF"/>
<circle cx="277.254" cy="94.7455" r="1.25424" transform="rotate(-90 277.254 94.7455)" fill="#337CBF"/>
<circle cx="253.254" cy="94.7455" r="1.25424" transform="rotate(-90 253.254 94.7455)" fill="#337CBF"/>
<circle cx="301.254" cy="94.7455" r="1.25424" transform="rotate(-90 301.254 94.7455)" fill="#337CBF"/>
<circle cx="221.254" cy="74.0508" r="1.25424" transform="rotate(-90 221.254 74.0508)" fill="#337CBF"/>
<circle cx="269.254" cy="74.0508" r="1.25424" transform="rotate(-90 269.254 74.0508)" fill="#337CBF"/>
<circle cx="245.254" cy="74.0508" r="1.25424" transform="rotate(-90 245.254 74.0508)" fill="#337CBF"/>
<circle cx="293.254" cy="74.0508" r="1.25424" transform="rotate(-90 293.254 74.0508)" fill="#337CBF"/>
<circle cx="229.254" cy="74.0508" r="1.25424" transform="rotate(-90 229.254 74.0508)" fill="#337CBF"/>
<circle cx="277.254" cy="74.0508" r="1.25424" transform="rotate(-90 277.254 74.0508)" fill="#337CBF"/>
<circle cx="253.254" cy="74.0508" r="1.25424" transform="rotate(-90 253.254 74.0508)" fill="#337CBF"/>
<circle cx="301.254" cy="74.0508" r="1.25424" transform="rotate(-90 301.254 74.0508)" fill="#337CBF"/>
<circle cx="221.254" cy="74.0508" r="1.25424" transform="rotate(-90 221.254 74.0508)" fill="#337CBF"/>
<circle cx="269.254" cy="74.0508" r="1.25424" transform="rotate(-90 269.254 74.0508)" fill="#337CBF"/>
<circle cx="245.254" cy="74.0508" r="1.25424" transform="rotate(-90 245.254 74.0508)" fill="#337CBF"/>
<circle cx="293.254" cy="74.0508" r="1.25424" transform="rotate(-90 293.254 74.0508)" fill="#337CBF"/>
<circle cx="229.254" cy="74.0508" r="1.25424" transform="rotate(-90 229.254 74.0508)" fill="#337CBF"/>
<circle cx="277.254" cy="74.0508" r="1.25424" transform="rotate(-90 277.254 74.0508)" fill="#337CBF"/>
<circle cx="253.254" cy="74.0508" r="1.25424" transform="rotate(-90 253.254 74.0508)" fill="#337CBF"/>
<circle cx="301.254" cy="74.0508" r="1.25424" transform="rotate(-90 301.254 74.0508)" fill="#337CBF"/>
<circle cx="213.254" cy="94.7455" r="1.25424" transform="rotate(-90 213.254 94.7455)" fill="#337CBF"/>
<circle cx="261.254" cy="94.7455" r="1.25424" transform="rotate(-90 261.254 94.7455)" fill="#337CBF"/>
<circle cx="237.254" cy="94.7455" r="1.25424" transform="rotate(-90 237.254 94.7455)" fill="#337CBF"/>
<circle cx="285.254" cy="94.7455" r="1.25424" transform="rotate(-90 285.254 94.7455)" fill="#337CBF"/>
<circle cx="213.254" cy="74.0508" r="1.25424" transform="rotate(-90 213.254 74.0508)" fill="#337CBF"/>
<circle cx="261.254" cy="74.0508" r="1.25424" transform="rotate(-90 261.254 74.0508)" fill="#337CBF"/>
<circle cx="237.254" cy="74.0508" r="1.25424" transform="rotate(-90 237.254 74.0508)" fill="#337CBF"/>
<circle cx="285.254" cy="74.0508" r="1.25424" transform="rotate(-90 285.254 74.0508)" fill="#337CBF"/>
<circle cx="213.254" cy="87.8471" r="1.25424" transform="rotate(-90 213.254 87.8471)" fill="#337CBF"/>
<circle cx="261.254" cy="87.8471" r="1.25424" transform="rotate(-90 261.254 87.8471)" fill="#337CBF"/>
<circle cx="237.254" cy="87.8471" r="1.25424" transform="rotate(-90 237.254 87.8471)" fill="#337CBF"/>
<circle cx="285.254" cy="87.8471" r="1.25424" transform="rotate(-90 285.254 87.8471)" fill="#337CBF"/>
<circle cx="213.254" cy="67.1524" r="1.25424" transform="rotate(-90 213.254 67.1524)" fill="#337CBF"/>
<circle cx="261.254" cy="67.1524" r="1.25424" transform="rotate(-90 261.254 67.1524)" fill="#337CBF"/>
<circle cx="237.254" cy="67.1524" r="1.25424" transform="rotate(-90 237.254 67.1524)" fill="#337CBF"/>
<circle cx="285.254" cy="67.1524" r="1.25424" transform="rotate(-90 285.254 67.1524)" fill="#337CBF"/>
<circle cx="213.254" cy="87.8471" r="1.25424" transform="rotate(-90 213.254 87.8471)" fill="#337CBF"/>
<circle cx="261.254" cy="87.8471" r="1.25424" transform="rotate(-90 261.254 87.8471)" fill="#337CBF"/>
<circle cx="237.254" cy="87.8471" r="1.25424" transform="rotate(-90 237.254 87.8471)" fill="#337CBF"/>
<circle cx="285.254" cy="87.8471" r="1.25424" transform="rotate(-90 285.254 87.8471)" fill="#337CBF"/>
<circle cx="213.254" cy="67.1524" r="1.25424" transform="rotate(-90 213.254 67.1524)" fill="#337CBF"/>
<circle cx="261.254" cy="67.1524" r="1.25424" transform="rotate(-90 261.254 67.1524)" fill="#337CBF"/>
<circle cx="237.254" cy="67.1524" r="1.25424" transform="rotate(-90 237.254 67.1524)" fill="#337CBF"/>
<circle cx="285.254" cy="67.1524" r="1.25424" transform="rotate(-90 285.254 67.1524)" fill="#337CBF"/>
<circle cx="221.254" cy="87.8471" r="1.25424" transform="rotate(-90 221.254 87.8471)" fill="#337CBF"/>
<circle cx="269.254" cy="87.8471" r="1.25424" transform="rotate(-90 269.254 87.8471)" fill="#337CBF"/>
<circle cx="245.254" cy="87.8471" r="1.25424" transform="rotate(-90 245.254 87.8471)" fill="#337CBF"/>
<circle cx="293.254" cy="87.8471" r="1.25424" transform="rotate(-90 293.254 87.8471)" fill="#337CBF"/>
<circle cx="229.254" cy="87.8471" r="1.25424" transform="rotate(-90 229.254 87.8471)" fill="#337CBF"/>
<circle cx="277.254" cy="87.8471" r="1.25424" transform="rotate(-90 277.254 87.8471)" fill="#337CBF"/>
<circle cx="253.254" cy="87.8471" r="1.25424" transform="rotate(-90 253.254 87.8471)" fill="#337CBF"/>
<circle cx="301.254" cy="87.8471" r="1.25424" transform="rotate(-90 301.254 87.8471)" fill="#337CBF"/>
<circle cx="221.254" cy="87.8471" r="1.25424" transform="rotate(-90 221.254 87.8471)" fill="#337CBF"/>
<circle cx="269.254" cy="87.8471" r="1.25424" transform="rotate(-90 269.254 87.8471)" fill="#337CBF"/>
<circle cx="245.254" cy="87.8471" r="1.25424" transform="rotate(-90 245.254 87.8471)" fill="#337CBF"/>
<circle cx="293.254" cy="87.8471" r="1.25424" transform="rotate(-90 293.254 87.8471)" fill="#337CBF"/>
<circle cx="229.254" cy="87.8471" r="1.25424" transform="rotate(-90 229.254 87.8471)" fill="#337CBF"/>
<circle cx="277.254" cy="87.8471" r="1.25424" transform="rotate(-90 277.254 87.8471)" fill="#337CBF"/>
<circle cx="253.254" cy="87.8471" r="1.25424" transform="rotate(-90 253.254 87.8471)" fill="#337CBF"/>
<circle cx="301.254" cy="87.8471" r="1.25424" transform="rotate(-90 301.254 87.8471)" fill="#337CBF"/>
<circle cx="221.254" cy="67.1524" r="1.25424" transform="rotate(-90 221.254 67.1524)" fill="#337CBF"/>
<circle cx="269.254" cy="67.1524" r="1.25424" transform="rotate(-90 269.254 67.1524)" fill="#337CBF"/>
<circle cx="245.254" cy="67.1524" r="1.25424" transform="rotate(-90 245.254 67.1524)" fill="#337CBF"/>
<circle cx="293.254" cy="67.1524" r="1.25424" transform="rotate(-90 293.254 67.1524)" fill="#337CBF"/>
<circle cx="229.254" cy="67.1524" r="1.25424" transform="rotate(-90 229.254 67.1524)" fill="#337CBF"/>
<circle cx="277.254" cy="67.1524" r="1.25424" transform="rotate(-90 277.254 67.1524)" fill="#337CBF"/>
<circle cx="253.254" cy="67.1524" r="1.25424" transform="rotate(-90 253.254 67.1524)" fill="#337CBF"/>
<circle cx="301.254" cy="67.1524" r="1.25424" transform="rotate(-90 301.254 67.1524)" fill="#337CBF"/>
<circle cx="221.254" cy="67.1524" r="1.25424" transform="rotate(-90 221.254 67.1524)" fill="#337CBF"/>
<circle cx="269.254" cy="67.1524" r="1.25424" transform="rotate(-90 269.254 67.1524)" fill="#337CBF"/>
<circle cx="245.254" cy="67.1524" r="1.25424" transform="rotate(-90 245.254 67.1524)" fill="#337CBF"/>
<circle cx="293.254" cy="67.1524" r="1.25424" transform="rotate(-90 293.254 67.1524)" fill="#337CBF"/>
<circle cx="229.254" cy="67.1524" r="1.25424" transform="rotate(-90 229.254 67.1524)" fill="#337CBF"/>
<circle cx="277.254" cy="67.1524" r="1.25424" transform="rotate(-90 277.254 67.1524)" fill="#337CBF"/>
<circle cx="253.254" cy="67.1524" r="1.25424" transform="rotate(-90 253.254 67.1524)" fill="#337CBF"/>
<circle cx="301.254" cy="67.1524" r="1.25424" transform="rotate(-90 301.254 67.1524)" fill="#337CBF"/>
<circle cx="213.254" cy="80.949" r="1.25424" transform="rotate(-90 213.254 80.949)" fill="#337CBF"/>
<circle cx="261.254" cy="80.949" r="1.25424" transform="rotate(-90 261.254 80.949)" fill="#337CBF"/>
<circle cx="237.254" cy="80.949" r="1.25424" transform="rotate(-90 237.254 80.949)" fill="#337CBF"/>
<circle cx="285.254" cy="80.949" r="1.25424" transform="rotate(-90 285.254 80.949)" fill="#337CBF"/>
<circle cx="213.254" cy="60.2542" r="1.25424" transform="rotate(-90 213.254 60.2542)" fill="#337CBF"/>
<circle cx="261.254" cy="60.2542" r="1.25424" transform="rotate(-90 261.254 60.2542)" fill="#337CBF"/>
<circle cx="237.254" cy="60.2542" r="1.25424" transform="rotate(-90 237.254 60.2542)" fill="#337CBF"/>
<circle cx="285.254" cy="60.2542" r="1.25424" transform="rotate(-90 285.254 60.2542)" fill="#337CBF"/>
<circle cx="221.254" cy="80.949" r="1.25424" transform="rotate(-90 221.254 80.949)" fill="#337CBF"/>
<circle cx="269.254" cy="80.949" r="1.25424" transform="rotate(-90 269.254 80.949)" fill="#337CBF"/>
<circle cx="245.254" cy="80.949" r="1.25424" transform="rotate(-90 245.254 80.949)" fill="#337CBF"/>
<circle cx="293.254" cy="80.949" r="1.25424" transform="rotate(-90 293.254 80.949)" fill="#337CBF"/>
<circle cx="229.254" cy="80.949" r="1.25424" transform="rotate(-90 229.254 80.949)" fill="#337CBF"/>
<circle cx="277.254" cy="80.949" r="1.25424" transform="rotate(-90 277.254 80.949)" fill="#337CBF"/>
<circle cx="253.254" cy="80.949" r="1.25424" transform="rotate(-90 253.254 80.949)" fill="#337CBF"/>
<circle cx="301.254" cy="80.949" r="1.25424" transform="rotate(-90 301.254 80.949)" fill="#337CBF"/>
<circle cx="221.254" cy="80.949" r="1.25424" transform="rotate(-90 221.254 80.949)" fill="#337CBF"/>
<circle cx="269.254" cy="80.949" r="1.25424" transform="rotate(-90 269.254 80.949)" fill="#337CBF"/>
<circle cx="245.254" cy="80.949" r="1.25424" transform="rotate(-90 245.254 80.949)" fill="#337CBF"/>
<circle cx="293.254" cy="80.949" r="1.25424" transform="rotate(-90 293.254 80.949)" fill="#337CBF"/>
<circle cx="229.254" cy="80.949" r="1.25424" transform="rotate(-90 229.254 80.949)" fill="#337CBF"/>
<circle cx="277.254" cy="80.949" r="1.25424" transform="rotate(-90 277.254 80.949)" fill="#337CBF"/>
<circle cx="253.254" cy="80.949" r="1.25424" transform="rotate(-90 253.254 80.949)" fill="#337CBF"/>
<circle cx="301.254" cy="80.949" r="1.25424" transform="rotate(-90 301.254 80.949)" fill="#337CBF"/>
<circle cx="221.254" cy="60.2542" r="1.25424" transform="rotate(-90 221.254 60.2542)" fill="#337CBF"/>
<circle cx="269.254" cy="60.2542" r="1.25424" transform="rotate(-90 269.254 60.2542)" fill="#337CBF"/>
<circle cx="245.254" cy="60.2542" r="1.25424" transform="rotate(-90 245.254 60.2542)" fill="#337CBF"/>
<circle cx="293.254" cy="60.2542" r="1.25424" transform="rotate(-90 293.254 60.2542)" fill="#337CBF"/>
<circle cx="229.254" cy="60.2542" r="1.25424" transform="rotate(-90 229.254 60.2542)" fill="#337CBF"/>
<circle cx="277.254" cy="60.2542" r="1.25424" transform="rotate(-90 277.254 60.2542)" fill="#337CBF"/>
<circle cx="253.254" cy="60.2542" r="1.25424" transform="rotate(-90 253.254 60.2542)" fill="#337CBF"/>
<circle cx="301.254" cy="60.2542" r="1.25424" transform="rotate(-90 301.254 60.2542)" fill="#337CBF"/>
<circle cx="221.254" cy="60.2542" r="1.25424" transform="rotate(-90 221.254 60.2542)" fill="#337CBF"/>
<circle cx="269.254" cy="60.2542" r="1.25424" transform="rotate(-90 269.254 60.2542)" fill="#337CBF"/>
<circle cx="245.254" cy="60.2542" r="1.25424" transform="rotate(-90 245.254 60.2542)" fill="#337CBF"/>
<circle cx="293.254" cy="60.2542" r="1.25424" transform="rotate(-90 293.254 60.2542)" fill="#337CBF"/>
<circle cx="229.254" cy="60.2542" r="1.25424" transform="rotate(-90 229.254 60.2542)" fill="#337CBF"/>
<circle cx="277.254" cy="60.2542" r="1.25424" transform="rotate(-90 277.254 60.2542)" fill="#337CBF"/>
<circle cx="253.254" cy="60.2542" r="1.25424" transform="rotate(-90 253.254 60.2542)" fill="#337CBF"/>
<circle cx="301.254" cy="60.2542" r="1.25424" transform="rotate(-90 301.254 60.2542)" fill="#337CBF"/>
</svg>
