<?xml version="1.0" encoding="UTF-8"?>
<svg width="16px" height="16px" viewBox="0 0 16 16" version="1.1" xmlns="http://www.w3.org/2000/svg" xmlns:xlink="http://www.w3.org/1999/xlink">
    <!-- Generator: Sketch 52.6 (67491) - http://www.bohemiancoding.com/sketch -->
    <title>Fill 1</title>
    <desc>Created with Sketch.</desc>
    <g id="Page-1" stroke="none" stroke-width="1" fill="none" fill-rule="evenodd">
        <g id="Group-3" fill="#39008c">
            <path d="M1.45268571,6.77005714 C1.48354286,6.61462857 1.62068571,6.50262857 1.77954286,6.50377143 L4.67097143,6.50377143 C5.2904,6.50148571 5.88468571,6.7472 6.32125714,7.1872 L7.0664,7.93348571 C7.94068571,8.80662857 7.98068571,10.2100571 7.16011429,11.1334857 L6.25382857,12.1529143 C5.98297143,12.4580571 5.83325714,12.8523429 5.83325714,13.2603429 L5.83325714,13.8123429 C5.83325714,13.9963429 5.68354286,14.1449143 5.49954286,14.1449143 C5.45382857,14.1449143 5.40925714,14.1357714 5.36697143,14.1174857 C2.92125714,13.0660571 1.33611429,10.6614857 1.33382857,7.99977143 C1.33382857,7.5872 1.37382857,7.17462857 1.45268571,6.77005714 Z M14.6675429,7.99977143 C14.6664,8.59291429 14.5852571,9.18377143 14.4275429,9.7552 C14.3784,9.93348571 14.1944,10.0374857 14.0172571,9.98834286 C14.0024,9.98491429 13.9875429,9.9792 13.9726857,9.97234286 C13.5624,9.79405714 13.2104,9.50148571 12.9612571,9.12777143 L11.4824,6.90834286 C11.1738286,6.44548571 10.6538286,6.16662857 10.0961143,6.16662857 L9.80811429,6.16662857 C8.79554286,6.16662857 7.97497143,5.34605714 7.97497143,4.33348571 C7.97497143,3.32091429 8.79554286,2.50034286 9.80811429,2.50034286 L11.6561143,2.50034286 C11.7246857,2.50034286 11.7921143,2.52091429 11.8492571,2.56091429 C13.6161143,3.80891429 14.6664,5.83748571 14.6675429,7.99977143 Z M16.0001143,7.99977143 C16.0001143,3.58148571 12.4184,-0.000228571429 8.00011429,-0.000228571429 C3.58182857,-0.000228571429 0.000114285714,3.58148571 0.000114285714,7.99977143 C0.000114285714,12.4180571 3.58182857,15.9997714 8.00011429,15.9997714 L8.04125714,15.9997714 L8.08354286,15.9997714 C12.4538286,15.9952 15.9955429,12.4534857 16.0001143,8.0832 L16.0001143,8.04091429 L16.0001143,7.99977143 Z" id="Fill-1"></path>
        </g>
    </g>
</svg>