<?xml version="1.0" encoding="utf-8"?>
<!-- Generator: Adobe Illustrator 24.1.2, SVG Export Plug-In . SVG Version: 6.00 Build 0)  -->
<svg version="1.1" id="Layer_1" xmlns="http://www.w3.org/2000/svg" xmlns:xlink="http://www.w3.org/1999/xlink" x="0px" y="0px"
	 viewBox="0 0 28.9 25" style="enable-background:new 0 0 28.9 25;" xml:space="preserve">
<style type="text/css">
	.st0{fill:url(#SVGID_1_);}
	.st1{fill:#632AB4;}
</style>
<g>
	<linearGradient id="SVGID_1_" gradientUnits="userSpaceOnUse" x1="0" y1="12.5" x2="25" y2="12.5">
		<stop  offset="8.872768e-02" style="stop-color:#DAC0FE"/>
		<stop  offset="0.3296" style="stop-color:#E1CCFE"/>
		<stop  offset="0.7611" style="stop-color:#F3EBFF"/>
		<stop  offset="1" style="stop-color:#FFFFFF"/>
	</linearGradient>
	<path class="st0" d="M12.5,25L12.5,25C5.6,25,0,19.4,0,12.5v0C0,5.6,5.6,0,12.5,0h0C19.4,0,25,5.6,25,12.5v0
		C25,19.4,19.4,25,12.5,25z"/>
	<g id="Outline_32_">
		<g>
			<path class="st1" d="M14.9,7.4c1.3-1.3,3.1-2.1,5.1-2.1c4,0,7.2,3.2,7.2,7.2h1.8c0-5-4-9-9-9c-2.4,0-4.7,1-6.4,2.6l-1.7-1.7v5.4
				h5.4L14.9,7.4z"/>
			<path class="st1" d="M25,17.6c-1.3,1.3-3.1,2.1-5.1,2.1c-4,0-7.2-3.2-7.2-7.2h-1.8c0,5,4,9,9,9c2.4,0,4.7-1,6.4-2.6l1.7,1.7v-5.4
				h-5.4L25,17.6z"/>
			<circle class="st1" cx="19.9" cy="12.5" r="1.8"/>
		</g>
	</g>
</g>
</svg>
