<?xml version="1.0" encoding="utf-8"?>
<!-- Generator: Adobe Illustrator 24.1.2, SVG Export Plug-In . SVG Version: 6.00 Build 0)  -->
<svg version="1.1" id="Layer_1" xmlns="http://www.w3.org/2000/svg" xmlns:xlink="http://www.w3.org/1999/xlink" x="0px" y="0px"
	 viewBox="0 0 31.4 25" style="enable-background:new 0 0 31.4 25;" xml:space="preserve">
<style type="text/css">
	.st0{fill:url(#SVGID_1_);}
	.st1{fill:#632AB4;}
</style>
<g>
	<linearGradient id="SVGID_1_" gradientUnits="userSpaceOnUse" x1="0" y1="12.5" x2="25" y2="12.5">
		<stop  offset="8.872768e-02" style="stop-color:#DAC0FE"/>
		<stop  offset="0.3296" style="stop-color:#E1CCFE"/>
		<stop  offset="0.7611" style="stop-color:#F3EBFF"/>
		<stop  offset="1" style="stop-color:#FFFFFF"/>
	</linearGradient>
	<path class="st0" d="M12.5,25L12.5,25C5.6,25,0,19.4,0,12.5v0C0,5.6,5.6,0,12.5,0h0C19.4,0,25,5.6,25,12.5v0
		C25,19.4,19.4,25,12.5,25z"/>
	<g id="Outline_33_">
		<g>
			<path class="st1" d="M10.4,12.5c0,0.9,0.1,1.8,0.4,2.6h4V9.9h-4C10.6,10.7,10.4,11.6,10.4,12.5z"/>
			<path class="st1" d="M11.6,8.1h3.2V4.9C13.5,5.7,12.4,6.8,11.6,8.1z"/>
			<polygon class="st1" points="20.1,9.9 16.6,9.9 16.6,15.1 21.8,15.1 21.8,12.5 20.1,12.5 			"/>
			<path class="st1" d="M20.1,3.8c-0.3,0-0.6,0-0.9,0c-0.9,0-1.8,0.1-2.6,0.4v4h3.5V3.8z"/>
			<path class="st1" d="M23.6,20.1c1.3-0.8,2.4-1.9,3.2-3.2h-3.2V20.1z"/>
			<path class="st1" d="M14.8,20.1v-3.2h-3.2C12.4,18.2,13.5,19.3,14.8,20.1z"/>
			<path class="st1" d="M23.6,15.1h4c0.3-0.8,0.4-1.7,0.4-2.6h-4.4V15.1z"/>
			<path class="st1" d="M16.6,20.8c0.8,0.3,1.7,0.4,2.6,0.4c0.9,0,1.8-0.1,2.6-0.4v-4h-5.2V20.8z"/>
			<path class="st1" d="M31.4,5.1c-0.2-0.4-0.7-0.6-1.1-0.5l-2.5,1.1l-2.9-1.8l-1.4,0.7c0.1,0.1,2.7,1.8,2.8,1.8l-2.1,0.9l-1.8-0.8
				l-1.4,0.8l3.5,1.8l1.9-0.9L25,11.6l1.6-0.8l1.9-3.5l2.4-1.1C31.4,6.1,31.6,5.5,31.4,5.1z"/>
		</g>
	</g>
</g>
</svg>
