<?xml version="1.0" encoding="UTF-8"?>
<svg width="30px" height="30px" viewBox="0 0 30 30" version="1.1" xmlns="http://www.w3.org/2000/svg" xmlns:xlink="http://www.w3.org/1999/xlink">
    <!-- Generator: Sketch 59.1 (86144) - https://sketch.com -->
    <title>billing-analytics-chargebee-clr copy 2</title>
    <desc>Created with Sketch.</desc>
    <g id="Page-1" stroke="none" stroke-width="1" fill="none" fill-rule="evenodd">
        <g id="Desktop-HD" transform="translate(-1263.000000, -254.000000)" fill="#6200EA" fill-rule="nonzero">
            <g id="Group-2" transform="translate(97.000000, 254.000000)">
                <g id="Group-10-Copy" transform="translate(1112.000000, 0.000000)">
                    <g id="billing-analytics-chargebee-clr-copy-2" transform="translate(54.000000, 0.000000)">
                        <path d="M2.26674418,1.74418605 C1.97860465,1.74418605 1.74418605,1.97860465 1.74418605,2.26674418 L1.74418605,27.3844186 C1.74418605,27.6725582 1.97860465,27.9069767 2.26674418,27.9069767 L27.3844186,27.9069767 C27.6725582,27.9069767 27.9069767,27.6725582 27.9069767,27.3844186 L27.9069767,2.26674418 C27.9069767,1.97860465 27.6725582,1.74418605 27.3844186,1.74418605 L2.26674418,1.74418605 Z M27.3844186,29.6511627 L2.26674418,29.6511627 C1.01651162,29.6511627 0,28.6346512 0,27.3844186 L0,2.26674418 C0,1.01651162 1.01651162,0 2.26674418,0 L27.3844186,0 C28.6346512,0 29.6511627,1.01651162 29.6511627,2.26674418 L29.6511627,27.3844186 C29.6511627,28.6346512 28.6346512,29.6511627 27.3844186,29.6511627 L27.3844186,29.6511627 Z" id="Fill-1"></path>
                        <path d="M7.5,23.7209303 C7.01860465,23.7209303 6.62790698,23.3302326 6.62790698,22.8488373 L6.62790698,14.4767442 C6.62790698,13.9953488 7.01860465,13.6046512 7.5,13.6046512 C7.98139535,13.6046512 8.372093,13.9953488 8.372093,14.4767442 L8.372093,22.8488373 C8.372093,23.3302326 7.98139535,23.7209303 7.5,23.7209303" id="Fill-3"></path>
                        <path d="M12.3837209,23.7209302 C11.9023256,23.7209302 11.5116279,23.3302326 11.5116279,22.8488372 L11.5116279,10.9883721 C11.5116279,10.5069767 11.9023256,10.1162791 12.3837209,10.1162791 C12.8651163,10.1162791 13.2558139,10.5069767 13.2558139,10.9883721 L13.2558139,22.8488372 C13.2558139,23.3302326 12.8651163,23.7209302 12.3837209,23.7209302" id="Fill-5"></path>
                        <path d="M17.2674418,23.7209302 C16.7860465,23.7209302 16.3953488,23.3302326 16.3953488,22.8488372 L16.3953488,6.80232558 C16.3953488,6.32093023 16.7860465,5.93023256 17.2674418,5.93023256 C17.7488373,5.93023256 18.1395349,6.32093023 18.1395349,6.80232558 L18.1395349,22.8488372 C18.1395349,23.3302326 17.7488373,23.7209302 17.2674418,23.7209302" id="Fill-7"></path>
                        <path d="M22.1511628,23.7209303 C21.6697674,23.7209303 21.2790698,23.3302326 21.2790698,22.8488373 L21.2790698,13.0813953 C21.2790698,12.6 21.6697674,12.2093023 22.1511628,12.2093023 C22.6325582,12.2093023 23.0232558,12.6 23.0232558,13.0813953 L23.0232558,22.8488373 C23.0232558,23.3302326 22.6325582,23.7209303 22.1511628,23.7209303" id="Fill-9"></path>
                    </g>
                </g>
            </g>
        </g>
    </g>
</svg>