<?xml version="1.0" encoding="UTF-8"?>
<svg width="32px" height="36px" viewBox="0 0 32 36" version="1.1" xmlns="http://www.w3.org/2000/svg" xmlns:xlink="http://www.w3.org/1999/xlink">
    <!-- Generator: Sketch 59.1 (86144) - https://sketch.com -->
    <title>recurring-billing-clr copy 3</title>
    <desc>Created with Sketch.</desc>
    <g id="Page-1" stroke="none" stroke-width="1" fill="none" fill-rule="evenodd">
        <g id="Desktop-HD" transform="translate(-468.000000, -441.000000)" fill="#FFB100" fill-rule="nonzero">
            <g id="Group-2" transform="translate(97.000000, 254.000000)">
                <g id="Group-12" transform="translate(306.000000, 187.000000)">
                    <g id="recurring-billing-clr-copy-3" transform="translate(65.000000, 0.000000)">
                        <path d="M2.10526316,32.7746512 L2.10526316,2.72051163 C2.10526316,2.37390698 2.38905263,2.09344186 2.73684211,2.09344186 L28.8421053,2.09344186 C29.1898947,2.09344186 29.4736842,2.37474419 29.4736842,2.72134884 L29.4736842,32.6959535 L27.3338947,31.4317674 C26.6972632,31.0558605 25.9216842,31.0290698 25.2589474,31.3564186 L21.1738947,33.349814 L17.1722105,31.342186 C16.5541053,31.034093 15.8197895,31.0374419 15.2075789,31.3488837 L11.1983158,33.3606977 L6.64168421,31.3003256 C6.35705263,31.1713953 6.04968421,31.1077674 5.74231579,31.1077674 C5.38442105,31.1077674 5.02652632,31.1948372 4.70568421,31.3689767 L2.10526316,32.7746512 Z M28.8421053,0.000418604651 L2.73684211,0.000418604651 C1.22778947,0.000418604651 0,1.22023256 0,2.72051163 L0,34.2799535 C0,34.6993953 0.225684211,35.0945581 0.587789474,35.3088837 C0.776421053,35.4202326 0.991157895,35.4771628 1.20589474,35.4771628 C1.40294737,35.4771628 1.60168421,35.4294419 1.78189474,35.3323256 L5.77010526,33.205814 L10.3275789,35.2670233 C10.9347368,35.5399535 11.6218947,35.5240465 12.2138947,35.2226512 L16.2248421,33.2116744 L20.2248421,35.2176279 C20.832,35.5240465 21.5595789,35.5257209 22.1701053,35.2243256 L26.2602105,33.2317674 L29.7625263,35.3013488 C30.1338947,35.518186 30.5970526,35.5215349 30.9717895,35.3088837 C31.3465263,35.0953953 31.5789474,34.6977209 31.5789474,34.2682326 L31.5789474,2.72134884 C31.5789474,1.22106977 30.3511579,0.000418604651 28.8421053,0.000418604651 Z" id="Fill-1"></path>
                        <path d="M6.9424,14.8342605 L16.3116632,14.8342605 C16.8927158,14.8342605 17.3642947,14.3654233 17.3642947,13.7877488 C17.3642947,13.2100744 16.8927158,12.7412372 16.3116632,12.7412372 L6.9424,12.7412372 C6.36134737,12.7412372 5.88976842,13.2100744 5.88976842,13.7877488 C5.88976842,14.3654233 6.36134737,14.8342605 6.9424,14.8342605" id="Fill-4"></path>
                        <path d="M22.2960842,14.8342605 L24.6371368,14.8342605 C25.2190316,14.8342605 25.6897684,14.3654233 25.6897684,13.7877488 C25.6897684,13.2100744 25.2190316,12.7412372 24.6371368,12.7412372 L22.2960842,12.7412372 C21.7150316,12.7412372 21.2434526,13.2100744 21.2434526,13.7877488 C21.2434526,14.3654233 21.7150316,14.8342605 22.2960842,14.8342605" id="Fill-6"></path>
                        <path d="M6.9424,20.5238512 L13.0602947,20.5238512 C13.6413474,20.5238512 14.1129263,20.055014 14.1129263,19.4773395 C14.1129263,18.8996651 13.6413474,18.4308279 13.0602947,18.4308279 L6.9424,18.4308279 C6.36134737,18.4308279 5.88976842,18.8996651 5.88976842,19.4773395 C5.88976842,20.055014 6.36134737,20.5238512 6.9424,20.5238512" id="Fill-8"></path>
                        <path d="M22.2960842,20.5238512 L24.6371368,20.5238512 C25.2190316,20.5238512 25.6897684,20.055014 25.6897684,19.4773395 C25.6897684,18.8996651 25.2190316,18.4308279 24.6371368,18.4308279 L22.2960842,18.4308279 C21.7150316,18.4308279 21.2434526,18.8996651 21.2434526,19.4773395 C21.2434526,20.055014 21.7150316,20.5238512 22.2960842,20.5238512" id="Fill-10"></path>
                        <path d="M6.9424,26.4055814 L15.7895579,26.4055814 C16.3706105,26.4055814 16.8421895,25.9367442 16.8421895,25.3590698 C16.8421895,24.7813953 16.3706105,24.3125581 15.7895579,24.3125581 L6.9424,24.3125581 C6.36134737,24.3125581 5.88976842,24.7813953 5.88976842,25.3590698 C5.88976842,25.9367442 6.36134737,26.4055814 6.9424,26.4055814" id="Fill-12"></path>
                        <path d="M22.2960842,26.4055814 L24.6371368,26.4055814 C25.2190316,26.4055814 25.6897684,25.9367442 25.6897684,25.3590698 C25.6897684,24.7813953 25.2190316,24.3125581 24.6371368,24.3125581 L22.2960842,24.3125581 C21.7150316,24.3125581 21.2434526,24.7813953 21.2434526,25.3590698 C21.2434526,25.9367442 21.7150316,26.4055814 22.2960842,26.4055814" id="Fill-14"></path>
                    </g>
                </g>
            </g>
        </g>
    </g>
</svg>