<?xml version="1.0" encoding="UTF-8"?>
<svg width="30px" height="30px" viewBox="0 0 30 30" version="1.1" xmlns="http://www.w3.org/2000/svg" xmlns:xlink="http://www.w3.org/1999/xlink">
    <!-- Generator: Sketch 59.1 (86144) - https://sketch.com -->
    <title>subscription-management-software-clr copy 4</title>
    <desc>Created with Sketch.</desc>
    <defs>
        <polygon id="path-1" points="0 29.6511627 29.6511627 29.6511627 29.6511627 0 0 0"></polygon>
        <polygon id="path-3" points="0 29.6511627 29.6511627 29.6511627 29.6511627 0 0 0"></polygon>
        <polygon id="path-5" points="0 29.6511627 29.6511627 29.6511627 29.6511627 0 0 0"></polygon>
        <polygon id="path-7" points="0 29.6511627 29.6511627 29.6511627 29.6511627 0 0 0"></polygon>
        <polygon id="path-9" points="0 29.6511627 29.6511627 29.6511627 29.6511627 0 0 0"></polygon>
        <polygon id="path-11" points="0 29.6511627 29.6511627 29.6511627 29.6511627 0 0 0"></polygon>
    </defs>
    <g id="Page-1" stroke="none" stroke-width="1" fill="none" fill-rule="evenodd">
        <g id="Desktop-HD" transform="translate(-286.000000, -1950.000000)">
            <g id="subscription-management-software-clr-copy-4" transform="translate(286.000000, 1950.000000)">
                <g id="subscription-management-software-clr-copy-3">
                    <path d="M2.26674418,1.74418605 C1.97860465,1.74418605 1.74418605,1.97860465 1.74418605,2.26674418 L1.74418605,27.3844186 C1.74418605,27.6725582 1.97860465,27.9069767 2.26674418,27.9069767 L27.3837209,27.9069767 C27.6725582,27.9069767 27.9069767,27.6725582 27.9069767,27.3844186 L27.9069767,2.26674418 C27.9069767,1.97860465 27.6725582,1.74418605 27.3837209,1.74418605 L2.26674418,1.74418605 Z M27.3837209,29.6511627 L2.26674418,29.6511627 C1.01651162,29.6511627 0,28.6346512 0,27.3844186 L0,2.26674418 C0,1.01651162 1.01651162,0 2.26674418,0 L27.3837209,0 C28.6339535,0 29.6511627,1.01651162 29.6511627,2.26674418 L29.6511627,27.3844186 C29.6511627,28.6346512 28.6339535,29.6511627 27.3837209,29.6511627 L27.3837209,29.6511627 Z" id="Fill-1" fill="#2F70FF" fill-rule="nonzero"></path>
                    <g id="Fill-3-Clipped">
                        <mask id="mask-2" fill="white">
                            <use xlink:href="#path-1"></use>
                        </mask>
                        <g id="path-1"></g>
                        <polygon id="Fill-3" fill="#2F70FF" fill-rule="nonzero" mask="url(#mask-2)" points="0.872093025 9.79255817 28.7790697 9.79255817 28.7790697 8.04837209 0.872093025 8.04837209"></polygon>
                    </g>
                    <g id="Fill-5-Clipped">
                        <mask id="mask-4" fill="white">
                            <use xlink:href="#path-3"></use>
                        </mask>
                        <g id="path-1"></g>
                        <path d="M8.45316275,16.4083256 L4.21269767,16.4083256 C3.73060465,16.4083256 3.34060465,16.0176279 3.34060465,15.5362326 C3.34060465,15.0548372 3.73060465,14.6641395 4.21269767,14.6641395 L8.45316275,14.6641395 C8.93455817,14.6641395 9.32525583,15.0548372 9.32525583,15.5362326 C9.32525583,16.0176279 8.93455817,16.4083256 8.45316275,16.4083256" id="Fill-5" fill="#2F70FF" fill-rule="nonzero" mask="url(#mask-4)"></path>
                    </g>
                    <g id="Fill-6-Clipped">
                        <mask id="mask-6" fill="white">
                            <use xlink:href="#path-5"></use>
                        </mask>
                        <g id="path-1"></g>
                        <path d="M8.45316275,22.3133023 L4.21269767,22.3133023 C3.73060465,22.3133023 3.34060465,21.9226047 3.34060465,21.4412093 C3.34060465,20.9598139 3.73060465,20.5691163 4.21269767,20.5691163 L8.45316275,20.5691163 C8.93455817,20.5691163 9.32525583,20.9598139 9.32525583,21.4412093 C9.32525583,21.9226047 8.93455817,22.3133023 8.45316275,22.3133023" id="Fill-6" fill="#2F70FF" fill-rule="nonzero" mask="url(#mask-6)"></path>
                    </g>
                    <g id="Fill-7-Clipped">
                        <mask id="mask-8" fill="white">
                            <use xlink:href="#path-7"></use>
                        </mask>
                        <g id="path-1"></g>
                        <polygon id="Fill-7" fill="#2F70FF" fill-rule="nonzero" mask="url(#mask-8)" points="11.0602326 28.0569767 12.8044186 28.0569767 12.8044186 8.92046508 11.0602326 8.92046508"></polygon>
                    </g>
                    <g id="Fill-8-Clipped">
                        <mask id="mask-10" fill="white">
                            <use xlink:href="#path-9"></use>
                        </mask>
                        <g id="path-1"></g>
                        <path d="M5.72853488,4.61665117 C5.72853488,5.19432558 5.26039535,5.66316279 4.68202326,5.66316279 C4.10365117,5.66316279 3.63551162,5.19432558 3.63551162,4.61665117 C3.63551162,4.03897674 4.10365117,3.57013953 4.68202326,3.57013953 C5.26039535,3.57013953 5.72853488,4.03897674 5.72853488,4.61665117" id="Fill-8" fill="#2F70FF" fill-rule="nonzero" mask="url(#mask-10)"></path>
                    </g>
                    <g id="Fill-9-Clipped">
                        <mask id="mask-12" fill="white">
                            <use xlink:href="#path-11"></use>
                        </mask>
                        <g id="path-1"></g>
                        <path d="M9.216907,4.61665117 C9.216907,5.19432558 8.74876742,5.66316279 8.17039535,5.66316279 C7.59202326,5.66316279 7.12388372,5.19432558 7.12388372,4.61665117 C7.12388372,4.03897674 7.59202326,3.57013953 8.17039535,3.57013953 C8.74876742,3.57013953 9.216907,4.03897674 9.216907,4.61665117" id="Fill-9" fill="#2F70FF" fill-rule="nonzero" mask="url(#mask-12)"></path>
                    </g>
                </g>
            </g>
        </g>
    </g>
</svg>