<?xml version="1.0" encoding="utf-8"?>
<!-- Generator: Adobe Illustrator 24.1.2, SVG Export Plug-In . SVG Version: 6.00 Build 0)  -->
<svg version="1.1" id="Layer_1" xmlns="http://www.w3.org/2000/svg" xmlns:xlink="http://www.w3.org/1999/xlink" x="0px" y="0px"
	 viewBox="0 0 30.9 25" style="enable-background:new 0 0 30.9 25;" xml:space="preserve">
<style type="text/css">
	.st0{fill:url(#SVGID_1_);}
	.st1{fill:#632AB4;}
</style>
<g>
	<linearGradient id="SVGID_1_" gradientUnits="userSpaceOnUse" x1="0" y1="12.5" x2="25" y2="12.5">
		<stop  offset="8.872768e-02" style="stop-color:#DAC0FE"/>
		<stop  offset="0.3296" style="stop-color:#E1CCFE"/>
		<stop  offset="0.7611" style="stop-color:#F3EBFF"/>
		<stop  offset="1" style="stop-color:#FFFFFF"/>
	</linearGradient>
	<path class="st0" d="M12.5,25L12.5,25C5.6,25,0,19.4,0,12.5v0C0,5.6,5.6,0,12.5,0h0C19.4,0,25,5.6,25,12.5v0
		C25,19.4,19.4,25,12.5,25z"/>
	<g id="Solid_26_">
		<g>
			<path class="st1" d="M26.8,15.3c0,0.5-0.4,0.8-0.8,0.8h-4.2v1.7h3.3c0,0.5-0.4,0.8-0.8,0.8h-6.3l-2-2v-4.3l2-2h3v0.8
				c0,0.5-0.4,0.8-0.8,0.8h-1.7v1.7h1.7c1.4,0,2.5-1.1,2.5-2.5V9.4c0-0.5-0.4-0.8-0.8-0.8h-4.2c-0.2,0-0.4,0.1-0.6,0.2l-1.5,1.5
				c-0.1-0.1-0.2-0.1-0.4-0.1h-3.3c-0.5,0-0.8,0.4-0.8,0.8v6.7c0,0.5,0.4,0.8,0.8,0.8h3.3c0.1,0,0.3,0,0.4-0.1L17,20
				c0.2,0.2,0.4,0.2,0.6,0.2h6.7c1.4,0,2.5-1.1,2.5-2.5v-0.2c1-0.3,1.7-1.3,1.7-2.3v-0.8h-1.7V15.3z M14.3,16.9h-1.7v-5h1.7V16.9z"
				/>
			<path class="st1" d="M23.4,2.8v0.9c-1,0.2-1.7,1-1.7,2c0,1.1,0.9,2.1,2.1,2.1h0.8c0.2,0,0.4,0.2,0.4,0.4c0,0.2-0.2,0.4-0.4,0.4
				h-1.2v2.5h1.7v-0.9c0.9-0.2,1.7-1,1.7-2c0-1.1-0.9-2.1-2.1-2.1h-0.8c-0.2,0-0.4-0.2-0.4-0.4s0.2-0.4,0.4-0.4h2.9V3.6h-1.7V2.8
				H23.4z"/>
			<path class="st1" d="M24.3,0.3c-3.7,0-6.7,3-6.7,6.7c0,0.3,0,0.6,0.1,0.8h1.7c0-0.3-0.1-0.5-0.1-0.8c0-2.8,2.2-5,5-5s5,2.2,5,5
				c0,2.8-2.2,5-5,5c-0.3,0-0.6,0-0.8-0.1v1.7c0.3,0,0.6,0.1,0.8,0.1c3.7,0,6.7-3,6.7-6.7C30.9,3.3,27.9,0.3,24.3,0.3z"/>
		</g>
	</g>
</g>
</svg>
