<?xml version="1.0" encoding="UTF-8"?>
<svg width="30px" height="23px" viewBox="0 0 30 23" version="1.1" xmlns="http://www.w3.org/2000/svg" xmlns:xlink="http://www.w3.org/1999/xlink">
    <!-- Generator: Sketch 44 (41411) - http://www.bohemiancoding.com/sketch -->
    <title>mail1</title>
    <desc>Created with Sketch.</desc>
    <defs></defs>
    <g id="Chargebee-_-Engage" stroke="none" stroke-width="1" fill="none" fill-rule="evenodd" opacity="0.400000006">
        <g id="Engage-3-Copy-2" transform="translate(-233.000000, -2694.000000)" fill-rule="nonzero" fill="#9BA0A7">
            <g id="Group-39" transform="translate(175.000000, 2435.000000)">
                <g id="Group-29-Copy-2" transform="translate(40.000000, 210.000000)">
                    <g id="Group-35" transform="translate(18.000000, 35.000000)">
                        <g id="mail1" transform="translate(0.000000, 14.000000)">
                            <g id="Group-3" transform="translate(0.000000, 0.835800)">
                                <path d="M26.7101,15.2511 C27.1071,15.5731 27.1691,16.1571 26.8471,16.5551 C26.6631,16.7811 26.3961,16.8981 26.1261,16.8981 C25.9201,16.8981 25.7141,16.8311 25.5431,16.6911 L17.6581,10.3001 L15.6641,11.9331 C15.4941,12.0731 15.2851,12.1431 15.0771,12.1431 C14.8701,12.1431 14.6641,12.0751 14.4931,11.9361 L12.3481,10.1971 L4.8651,16.3271 C4.6931,16.4681 4.4841,16.5371 4.2781,16.5371 C4.0101,16.5371 3.7441,16.4211 3.5611,16.1971 C3.2361,15.8011 3.2941,15.2171 3.6901,14.8931 L10.8771,9.0051 L0.3181,0.4461 C0.1221,0.8011 0.000100000001,1.2031 0.000100000001,1.6361 L0.000100000001,19.5281 C0.000100000001,20.8931 1.1071,22.0001 2.4721,22.0001 L27.5271,22.0001 C28.8941,22.0001 30.0001,20.8931 30.0001,19.5281 L30.0001,1.6361 C30.0001,1.2041 29.8791,0.8031 29.6841,0.4491 L19.1221,9.1011 L26.7101,15.2511 Z" id="Fill-1"></path>
                            </g>
                            <path d="M16.9103,9.353 C16.9123,9.35 16.9133,9.345 16.9163,9.341 C17.0003,9.236 17.1043,9.158 17.2173,9.101 L28.2003,0.104 C27.9843,0.043 27.7633,0 27.5273,0 L2.4723,0 C2.2403,0 2.0193,0.042 1.8063,0.103 L15.0743,10.856 L16.9103,9.353 Z" id="Fill-4"></path>
                        </g>
                    </g>
                </g>
            </g>
        </g>
    </g>
</svg>