<?xml version="1.0" encoding="UTF-8"?>
<svg width="27px" height="29px" viewBox="0 0 27 29" version="1.1" xmlns="http://www.w3.org/2000/svg" xmlns:xlink="http://www.w3.org/1999/xlink">
    <!-- Generator: Sketch 44 (41411) - http://www.bohemiancoding.com/sketch -->
    <title>notification</title>
    <desc>Created with Sketch.</desc>
    <defs>
        <polygon id="path-1" points="0 25.8203 0 0.9183 26.2207385 0.9183 26.2207385 25.8203"></polygon>
    </defs>
    <g id="Chargebee-_-Engage" stroke="none" stroke-width="1" fill="none" fill-rule="evenodd">
        <g id="Engage-3-Copy" transform="translate(-215.000000, -2503.000000)">
            <g id="Group-39" transform="translate(155.000000, 2458.000000)">
                <g id="Group-29">
                    <g id="Group-31" transform="translate(60.000000, 34.000000)">
                        <g id="notification" transform="translate(0.000000, 10.000000)">
                            <g id="Group-3" transform="translate(0.000000, 0.081600)">
                                <g id="Fill-1-Clipped">
                                    <mask id="mask-2" fill="#D1D4D7">
                                        <use xlink:href="#path-1"></use>
                                    </mask>
                                    <g id="path-1"></g>
                                    <path d="M24.7887,21.1733 C23.2424308,19.2613 22.3649308,16.9263 22.2839308,14.5033 L22.2226615,12.7083 C22.2226615,8.5853 19.2942,5.1313 15.3501231,4.0783 C15.4560462,3.8173 15.5193923,3.5353 15.5193923,3.2383 C15.5193923,1.9573 14.4414692,0.9183 13.1101615,0.9183 C11.7798923,0.9183 10.7009308,1.9573 10.7009308,3.2383 C10.7009308,3.5353 10.7642769,3.8173 10.8702,4.0783 C6.92716154,5.1313 3.99766154,8.5853 3.99766154,12.7083 L3.93743077,14.5033 C3.85643077,16.9263 2.97893077,19.2613 1.43266154,21.1733 L0.467930769,22.3663 C0.1647,22.7413 -0.000415384617,23.2043 -0.000415384617,23.6803 C-0.000415384617,24.8623 0.994430769,25.8203 2.22085385,25.8203 L3.99766154,25.8203 L13.0592769,25.8203 L13.1610462,25.8203 L22.2226615,25.8203 L23.9994692,25.8203 C25.2269308,25.8203 26.2207385,24.8623 26.2207385,23.6803 C26.2207385,23.2043 26.0556231,22.7413 25.7523923,22.3663 L24.7887,21.1733 Z" id="Fill-1" fill="#D1D4D7" fill-rule="nonzero" mask="url(#mask-2)"></path>
                                </g>
                            </g>
                            <path d="M10.0178308,26.819 C10.1268692,28.38 11.4623308,29.617 13.1103692,29.617 C14.7584077,29.617 16.0949077,28.38 16.2039462,26.819 L10.0178308,26.819 Z" id="Fill-4" fill="#D1D4D7" fill-rule="nonzero"></path>
                        </g>
                    </g>
                </g>
            </g>
        </g>
    </g>
</svg>