<svg id="Layer_1" data-name="Layer 1" xmlns="http://www.w3.org/2000/svg" xmlns:xlink="http://www.w3.org/1999/xlink" viewBox="0 0 1440 721"><defs><style>.cls-1,.cls-10,.cls-8{fill:none;}.cls-2{fill:#e1e9f6;}.cls-3{clip-path:url(#clip-path);}.cls-4{fill:#73c1ec;}.cls-5{fill:#2385c4;}.cls-6{fill:#f58426;}.cls-7{clip-path:url(#clip-path-2);}.cls-8{stroke:#fff7e5;}.cls-10,.cls-8{stroke-miterlimit:10;}.cls-9{fill:#fff;}.cls-10{stroke:#272361;}.cls-11{fill:#1a4790;}.cls-12{clip-path:url(#clip-path-3);}</style><clipPath id="clip-path"><rect class="cls-1" width="1440" height="721"/></clipPath><clipPath id="clip-path-2"><path class="cls-1" d="M1231.45,721.62c-19.38-4.24-31-27.14-26.5-46.47s21.85-33.89,41-39.26c19.47-5.48,40.46-2.75,60.1-7.62a80.23,80.23,0,0,0,44.2-29.08c18.45-24.28,23.09-59.05,47.65-77.11,5.54-4.07,12.29-7.12,19.12-6.36,10.69,1.19,18.14,11,23.42,20.36,31.87,56.56,31.69,129.85-.46,186.25"/></clipPath><clipPath id="clip-path-3"><path class="cls-1" d="M312.64,665.25c-18.27-27.87-55.85-34.82-89.16-35.15-14.34-.14-29.1.4-42.52-4.64-9.85-3.71-18.35-10.21-26.7-16.62-9-6.91-18-13.88-26.19-21.74a148.27,148.27,0,0,0,17.44,183.59q56.54-4.79,113.32-5.16c22.95-.15,50.19-2,62-21.73,6.48-10.87,6.16-24.4,4.7-37C323.79,692.29,320.67,677.49,312.64,665.25Z"/></clipPath></defs><title>1Artboard 13</title><rect class="cls-2" y="1" width="1440" height="721"/><g class="cls-3"><circle class="cls-4" cx="1287.13" cy="567.52" r="5.3"/><circle class="cls-4" cx="1287.13" cy="594.61" r="5.3"/><path class="cls-5" d="M1232.45,723.62c-19.38-4.24-31-27.14-26.5-46.46s21.85-33.9,41-39.27c19.47-5.48,40.46-2.75,60.1-7.62a80.23,80.23,0,0,0,44.2-29.08c18.45-24.27,23.09-59.05,47.65-77.1,5.55-4.08,12.29-7.13,19.12-6.37,10.7,1.2,18.14,11,23.42,20.37,31.87,56.55,31.69,129.85-.46,186.24"/><circle class="cls-6" cx="1053.23" cy="489.68" r="4"/><circle class="cls-6" cx="1081.39" cy="489.68" r="4"/><circle class="cls-6" cx="1109.54" cy="489.68" r="4"/><circle class="cls-6" cx="1137.69" cy="489.68" r="4"/><circle class="cls-6" cx="1165.85" cy="489.68" r="4"/><circle class="cls-6" cx="1194" cy="489.68" r="4"/><circle class="cls-6" cx="1222.16" cy="489.68" r="4"/><circle class="cls-6" cx="1250.31" cy="489.68" r="4"/><circle class="cls-6" cx="1278.47" cy="489.68" r="4"/><circle class="cls-6" cx="1053.23" cy="462.64" r="4"/><circle class="cls-6" cx="1081.39" cy="462.64" r="4"/><circle class="cls-6" cx="1109.54" cy="462.64" r="4"/><circle class="cls-6" cx="1137.69" cy="462.64" r="4"/><circle class="cls-6" cx="1165.85" cy="462.64" r="4"/><circle class="cls-6" cx="1194" cy="462.64" r="4"/><circle class="cls-6" cx="1222.16" cy="462.64" r="4"/><circle class="cls-6" cx="1250.31" cy="462.64" r="4"/><circle class="cls-6" cx="1278.47" cy="462.64" r="4"/><circle class="cls-6" cx="1281.23" cy="408.68" r="4"/><circle class="cls-6" cx="1309.39" cy="408.68" r="4"/><circle class="cls-6" cx="1337.54" cy="408.68" r="4"/><circle class="cls-6" cx="1365.69" cy="408.68" r="4"/><circle class="cls-6" cx="1393.85" cy="408.68" r="4"/><circle class="cls-6" cx="1422" cy="408.68" r="4"/><circle class="cls-6" cx="1281.23" cy="381.64" r="4"/><circle class="cls-6" cx="1309.39" cy="381.64" r="4"/><circle class="cls-6" cx="1337.54" cy="381.64" r="4"/><circle class="cls-6" cx="1365.69" cy="381.64" r="4"/><circle class="cls-6" cx="1393.85" cy="381.64" r="4"/><circle class="cls-6" cx="1422" cy="381.64" r="4"/><g class="cls-7"><line class="cls-8" x1="1153.2" y1="677.35" x2="1247.88" y2="755.65"/><line class="cls-8" x1="1173.03" y1="660.71" x2="1283.59" y2="752.16"/><line class="cls-8" x1="1192.86" y1="644.08" x2="1319.3" y2="748.66"/><line class="cls-8" x1="1212.69" y1="627.45" x2="1355.01" y2="745.16"/><line class="cls-8" x1="1232.53" y1="610.82" x2="1390.73" y2="741.66"/><line class="cls-8" x1="1252.36" y1="594.18" x2="1426.44" y2="738.17"/><line class="cls-8" x1="1272.19" y1="577.55" x2="1462.15" y2="734.67"/><line class="cls-8" x1="1292.02" y1="560.92" x2="1497.86" y2="731.17"/><line class="cls-8" x1="1311.85" y1="544.29" x2="1533.57" y2="727.67"/><line class="cls-8" x1="1331.68" y1="527.65" x2="1569.29" y2="724.17"/><line class="cls-8" x1="1351.51" y1="511.02" x2="1605" y2="720.68"/><line class="cls-8" x1="1371.34" y1="494.39" x2="1640.71" y2="717.18"/></g><path class="cls-9" d="M1220.27,542.25A152.72,152.72,0,1,0,1372.93,695,152.69,152.69,0,0,0,1220.27,542.25Zm0,261.87A109.16,109.16,0,1,1,1329.38,695,109.13,109.13,0,0,1,1220.27,804.12Z"/><path class="cls-5" d="M-1.34,508.59c31.19.18,64.4,5.9,87.29,27.1,13.51,12.5,22.21,29.3,34.29,43.19,9.93,11.42,22,20.74,34,30,8.35,6.41,16.85,12.91,26.7,16.62,13.42,5,28.18,4.5,42.52,4.64,33.31.33,70.89,7.28,89.16,35.15,8,12.24,11.15,27,12.85,41.58,1.46,12.57,1.78,26.1-4.7,37-11.77,19.71-39,21.58-62,21.73q-59.2.36-118.25,5.57c-24.56,2.16-49.37,4.95-73.77,1.45s-48.87-14.16-63.5-34c-17.55-23.79-18-55.68-17.79-85.24l1-123.21"/><ellipse class="cls-10" cx="252.26" cy="667.93" rx="148.15" ry="148.21"/><ellipse class="cls-10" cx="252.26" cy="667.93" rx="115.62" ry="115.66"/><path class="cls-11" d="M312.64,665.25c-18.27-27.87-55.85-34.82-89.16-35.15-14.34-.14-29.1.4-42.52-4.64-9.85-3.71-18.35-10.21-26.7-16.62-9-6.91-18-13.88-26.19-21.74a148.27,148.27,0,0,0,17.44,183.59q56.54-4.79,113.32-5.16c22.95-.15,50.19-2,62-21.73,6.48-10.87,6.16-24.4,4.7-37C323.79,692.29,320.67,677.49,312.64,665.25Z"/><g class="cls-12"><line class="cls-8" x1="424.63" y1="706.62" x2="314.07" y2="805.35"/><line class="cls-8" x1="404.8" y1="688.66" x2="278.36" y2="801.57"/><line class="cls-8" x1="384.97" y1="670.7" x2="242.65" y2="797.79"/><line class="cls-8" x1="365.14" y1="652.74" x2="206.94" y2="794.02"/><line class="cls-8" x1="345.31" y1="634.79" x2="171.23" y2="790.24"/><line class="cls-8" x1="325.48" y1="616.83" x2="135.51" y2="786.46"/><line class="cls-8" x1="305.65" y1="598.87" x2="99.8" y2="782.69"/><line class="cls-8" x1="285.81" y1="580.91" x2="64.09" y2="778.91"/><line class="cls-8" x1="265.98" y1="562.96" x2="28.38" y2="775.13"/><line class="cls-8" x1="246.15" y1="545" x2="-7.33" y2="771.36"/><line class="cls-8" x1="226.32" y1="527.04" x2="-43.04" y2="767.58"/></g></g></svg>