<?xml version="1.0" encoding="utf-8"?>
<!-- Generator: Adobe Illustrator 23.0.2, SVG Export Plug-In . SVG Version: 6.00 Build 0)  -->
<svg version="1.1" id="Layer_1" xmlns="http://www.w3.org/2000/svg" xmlns:xlink="http://www.w3.org/1999/xlink" x="0px" y="0px"
	 viewBox="0 0 401.1 120.1" style="enable-background:new 0 0 401.1 120.1;" xml:space="preserve">
<style type="text/css">
	.st0{fill:#60C575;}
</style>
<g>
	<path class="st0" d="M397.8,82.4c-0.4-0.1-8.6-0.8-21.7,0.9c8.1-22.5,10.3-36.4,10.5-37.1c0.3-1.8-0.8-3.5-2.6-4
		c-1.8-0.4-3.6,0.6-4.2,2.3c-2.9,8.7-11.6,26.3-19.6,25c-1-0.1-1.7-0.6-2.1-1.4c-2-3.4-0.4-12,1.9-19.2c1.3-3.3,2-5.6,2.1-5.9
		c0.5-1.8-0.4-3.7-2.2-4.3c-1.8-0.6-3.7,0.3-4.4,2c-0.1,0.1-1,2.3-2,5.5c-1.1,2.7-2.7,6.3-4.9,9.7c-5.4,8.6-11.2,12.4-17.3,11.2
		c-1.5-0.3-2.5-0.9-3.2-2c-1.3-2-1.7-5.3-1.5-9.3c5.3-6.2,9.6-12.9,12.6-17.3l0.6-0.8c3.3-5.1,6.5-10.9,8.5-16
		c2.8-7,3.6-12.3,2.4-16c-0.8-2.4-2.4-4.2-4.7-5.1c-1.5-0.6-4-1-6.8,0.5c-6.5,3.4-12.5,15.7-16.4,33.5c-1.5,6.9-2.6,13-3.1,18.3
		c-6.9,7.7-15,13.8-22.4,11.3c-2.7-1-4.5-2.7-5.5-5.3c-0.1-0.2-0.1-0.4-0.2-0.5c5.6-1.2,15.9-4.3,20.6-10.8c2.1-2.9,2.9-6.2,2.3-9.6
		c-0.7-4.2-3.6-7.3-7.9-8.2c-5.2-1.1-12.8,1.4-18,9.5c-2.7,4.2-4.7,10.2-4.5,16.1c0,0.3,0,0.5,0.1,0.7c0.1,1.7,0.4,3.4,1,5.1
		c1.6,4.7,5,8,9.8,9.6c8.8,3,17.4-1.4,24.8-8.1c0.4,2.4,1.1,4.5,2.3,6.3c1.8,2.7,4.3,4.3,7.7,5c1.3,0.3,2.5,0.4,3.7,0.4
		c6.8,0,12.3-3.8,16.6-8.8c0.2,2.4,0.8,4.5,1.7,6.1c1.5,2.7,4,4.4,7.2,4.9c5.2,0.8,9.9-1.8,13.8-5.7c-1.3,4.2-2.9,8.8-4.8,13.8
		c-2.6,0.5-5.3,1.1-8.1,1.9c-14.5,3.7-24.5,10.9-26.8,19.3c-1.1,4.2-0.1,8.2,2.9,11.2c2,2.1,4.7,3.1,7.6,3.1c0.9,0,1.9-0.1,2.8-0.3
		c10.3-2.1,21.5-15.4,25.9-26.4c0.3-0.9,0.7-1.7,1-2.6c14.3-2.4,23.6-1.5,23.7-1.5c1.9,0.2,3.6-1.2,3.8-3.1
		C401.1,84.3,399.7,82.6,397.8,82.4L397.8,82.4z M329.7,36.1c3.7-17.1,9.3-27,12.8-28.9c0.4-0.2,0.6-0.3,0.7-0.3s0.2,0,0.2,0.1
		c0.2,0.1,0.4,0.1,0.6,0.7c1.3,3.9-3.3,15.6-10.1,26l-0.6,0.9c-1.2,1.9-2.9,4.4-4.8,7.2C328.9,39.8,329.3,37.9,329.7,36.1z
		 M294.8,43c2.8-4.4,6.7-6.5,9.6-6.5c0.4,0,0.7,0.1,1,0.1c1.4,0.3,2.1,1.1,2.4,2.4c0.3,1.6-0.1,2.9-1,4.3c-2.8,3.9-10,6.5-15.1,7.7
		C292.2,48.1,293.3,45.2,294.8,43L294.8,43z M345,112.9c-2.3,0.4-3.4-0.3-4-0.9c-1.2-1.2-1.5-2.6-1-4.4c1.2-4.3,7.6-10.7,21.8-14.4
		c1.1-0.3,2.2-0.6,3.3-0.8C360.7,102.1,351.5,111.6,345,112.9L345,112.9z"/>
	<path class="st0" d="M275,60.3c-1,0.5-5.9,2.7-8.8-1.7c-0.7-1.1-2.7-6.6,2.9-28.4c0.2-0.8,0.4-1.7,0.6-2.5c0.4-1.1,0.8-2.3,1.1-3.4
		c8.4-0.4,18.1-0.7,27.1-0.3c1.9,0.1,3.6-1.4,3.7-3.3c0.1-1.9-1.4-3.6-3.3-3.7c-8.4-0.4-17.3-0.3-25.2,0.1c2-6.3,3.2-10.7,3.2-10.8
		c0.5-1.9-0.5-3.7-2.3-4.3c-1.8-0.6-3.7,0.4-4.3,2.2c-0.1,0.3-2,5.8-4.3,13.4c-9.6,0.6-16.5,1.5-17.1,1.5c-1.9,0.3-3.3,2-3.1,3.9
		c0.2,1.8,1.7,3.1,3.5,3.1h0.4c0.1,0,5.9-0.7,14.2-1.3c-0.1,0.3-0.2,0.6-0.3,0.9c-0.7,2.1-1.5,4.3-2.2,6.5
		c-9.5,26.3-14.1,28-14.2,28c-1.1,0.2-1.5-0.1-1.8-0.3c-2.2-2-2.8-9.2-2.5-13.7c0.5-1.9,2-8.6-0.8-13.2c-1.3-2.2-3.4-3.6-6.1-4.2
		c-4.1-0.8-9,0.8-13.9,4.5c-4.4,3.3-8,7.7-10.2,12.3c-0.1,0.3-0.3,0.5-0.3,0.8c-0.4,0.7-2.8,4.6-6.5,8.3c-5,4.9-9.8,7.1-14.3,6.5
		c-0.8-0.1-3.6-0.7-5.4-3.3c-1.7-2.4-2.1-5.9-1.1-10.5c1.7-7.9,5.7-11,8-12.1c2.7-1.3,5.1-1.2,6.3-0.6c1.1,0.5,1.5,1.1,1.6,1.6
		c0.6,1.8-0.4,4.5-0.9,5.2c-0.9,1.7-0.3,3.8,1.5,4.7c1.7,0.9,3.8,0.3,4.7-1.5c0.3-0.6,3-5.8,1.3-10.8c-0.8-2.6-2.7-4.5-5.3-5.7
		c-3.6-1.7-8.2-1.4-12.5,0.7c-3.4,1.7-9.5,6.2-11.8,17c-1.3,6.5-0.6,11.9,2.2,16c3.3,4.8,8.2,6,10.2,6.3c0.9,0.1,1.8,0.2,2.6,0.2
		c7.2,0,13.4-4.3,17.8-8.8c0.3,1.1,0.8,2,1.4,3c2.2,3.4,6.3,5.4,10.9,5.2c6.5-0.1,11.2-4.4,14.4-9.1c0.8,2.6,1.9,4.9,3.7,6.5
		c1.5,1.3,4.1,2.7,7.9,1.9c2.6-0.6,5.8-2.6,10.3-11.1c0.3,3.3,1.1,5.1,1.9,6.4c2.9,4.5,6.9,5.9,10.6,5.9c2.9,0,5.6-0.9,7.4-1.9
		c1.7-0.9,2.4-3,1.5-4.7C278.8,60.1,276.7,59.4,275,60.3L275,60.3z M235.6,44.6C235.5,44.6,235.5,44.6,235.6,44.6
		c-1.3,4.5-6.3,16-13.7,16.2c-1.6,0.1-3.7-0.3-4.9-2.1c-1.4-2.2-1.1-5.8,0.9-10.1c3.3-7.1,11.1-12.8,15.5-12.8c0.3,0,0.6,0,0.8,0.1
		c0.9,0.2,1.2,0.5,1.4,0.9C236.8,38.6,236.1,42.8,235.6,44.6L235.6,44.6z M160.8,28.1c-8.8-2.1-18.6,4.7-22.3,15.5
		c-2.2,6.5-1.8,13,1.2,18c2.3,3.8,5.9,6.2,10.2,6.8c0.7,0.1,1.4,0.1,2.1,0.1c8.4,0,16.4-7.1,18.8-17.1c1.3-5.2,1.1-10.2-0.3-14.2
		C168.7,32.3,165.3,29.2,160.8,28.1L160.8,28.1z M163.9,49.7c-1.7,7.2-7.6,12.5-13.1,11.7c-2.7-0.4-4.3-2.2-5.2-3.6
		c-1.9-3.1-2.1-7.6-0.6-12c2.2-6.5,7.5-11.1,12.3-11.1c0.6,0,1.1,0.1,1.7,0.2c2.2,0.6,3.8,2.1,4.7,4.6
		C164.8,42.2,164.8,45.8,163.9,49.7L163.9,49.7z M144.8,23.9c1.5-1.2,1.8-3.4,0.6-4.9c-1.2-1.5-3.4-1.8-4.9-0.6
		c-11.9,9.5-18.5,25.6-21.7,35.8c-0.8-2-1.5-4.3-2-6.6c-2.2-10.1-1.5-16.2-1.5-16.3c0.3-1.9-1-3.7-2.9-4c-1.9-0.3-3.7,1-4,2.9
		c-0.1,0.3-1,7.3,1.5,18.8c2,8.9,6.5,16.9,6.7,17.2c0.6,1.1,1.8,1.8,3.1,1.8c0.2,0,0.4,0,0.6-0.1c1.5-0.3,2.6-1.3,2.9-2.8
		C123.1,65.1,128.6,36.8,144.8,23.9L144.8,23.9z M99,45c0-0.3,0-0.5,0.1-0.8c1.5-15.3,8.9-33.3,9-33.5c0.8-1.8-0.1-3.8-1.9-4.6
		s-3.8,0.1-4.6,1.9c-0.3,0.6-5,11.8-7.7,23.4c-0.4-0.3-0.8-0.5-1.3-0.7c-3.4-1.7-7.6-1.5-12,0.5c-7.1,3.2-12.9,10.3-15.2,18.5
		c-2.2,7.7-0.6,14.7,4.2,18.7c2.2,1.9,4.9,2.8,7.7,2.8c2,0,4-0.5,6-1.5c4-2,7.2-4.9,9.6-8.4c0.8,2.7,2,5.2,4,6.9
		c1.4,1.3,3.6,1.2,5-0.3c1.3-1.4,1.2-3.6-0.3-5c-2.3-2.1-3.4-8.5-2.9-16.5C98.9,46.1,99,45.6,99,45L99,45z M92,44
		c-0.1,0.6-0.1,1.3-0.1,2c-0.8,5.7-4.2,14-11.6,17.6c-2.2,1.1-4.5,1-6.2-0.4c-2-1.7-3.6-5.6-1.9-11.4c2-7.5,7.4-12.2,11.3-13.9
		c1.5-0.6,2.9-1,4.1-1c0.8,0,1.4,0.1,1.9,0.4C91.7,38.2,92,41.9,92,44L92,44z M49,4.4c-7.8-0.4-16,8.8-24.3,27.1
		c-2.7,5.9-5.1,12.3-7.1,18c-8.9,1.7-14.7,3.2-15,3.3c-1.9,0.4-3,2.4-2.6,4.3c0.4,1.6,1.9,2.6,3.4,2.6c0.3,0,0.6-0.1,0.9-0.1
		c0.1,0,4.2-1.1,10.7-2.4c-2.4,7.5-3.8,12.8-3.9,13.3c-0.5,1.9,0.6,3.8,2.5,4.3c0.3,0.1,0.6,0.1,0.9,0.1c1.5,0,3-1,3.4-2.6
		c0-0.1,1.9-7.3,5-16.6c1.5-0.3,3.1-0.6,4.8-0.8c11-1.9,19.4-2.7,23.8-3.1c-1.1,8.5-2.3,15.7-2.3,15.8c-0.3,1.9,1,3.7,2.9,4
		c1.9,0.3,3.7-1,4-2.9c0-0.1,2.1-13.5,3.5-25.2c1.5-12.3,1.2-28.9-4.5-35.7C53.6,5.6,51.5,4.5,49,4.4L49,4.4z M26.7,47.9l-1,0.2
		c1.7-4.5,3.5-9.2,5.5-13.7C39,17.1,45.5,11.2,48.6,11.4c0.2,0,0.6,0.1,1.3,0.8c3.3,3.9,4.5,16.9,2.9,30.3c-0.1,0.7-0.2,1.4-0.3,2
		C48.5,44.9,39.4,45.8,26.7,47.9L26.7,47.9z"/>
</g>
</svg>
