<?xml version="1.0" encoding="utf-8"?>
<!-- Generator: Adobe Illustrator 24.1.2, SVG Export Plug-In . SVG Version: 6.00 Build 0)  -->
<svg version="1.1" id="Layer_1" xmlns="http://www.w3.org/2000/svg" xmlns:xlink="http://www.w3.org/1999/xlink" x="0px" y="0px"
	 viewBox="0 0 33.7 33.7" style="enable-background:new 0 0 33.7 33.7;" xml:space="preserve">
<style type="text/css">
	.st0{fill:#020202;}
</style>
<path class="st0" d="M29.9,0h-26C1.7,0,0,1.7,0,3.9v26c0,2.1,1.7,3.9,3.9,3.9h26c2.1,0,3.9-1.7,3.9-3.9v-26C33.7,1.7,32,0,29.9,0z
	 M3.9,1.9h12v3.3c-0.5-0.2-1-0.3-1.6-0.3c-2.2,0-4.1,1.8-4.1,4.1s1.8,4.1,4.1,4.1c0.6,0,1.1-0.1,1.6-0.3v3.1h-5.2c-0.5,0-1,0.4-1,1
	c0,0.2,0.1,0.4,0.2,0.5c0,0,0,0.1,0.1,0.1c0,0,0,0,0,0c0.1,0.1,0.1,0.1,0.2,0.2c0.6,0.4,0.9,0.9,0.9,1.6c0,1.2-1,2.1-2.1,2.1
	c-1.2,0-2.1-1-2.1-2.1c0-0.7,0.3-1.3,0.9-1.7c0.4-0.3,0.5-0.9,0.2-1.3c-0.2-0.3-0.6-0.5-1-0.4c0,0-0.1,0-0.1,0H1.9v-12
	C1.9,2.8,2.8,1.9,3.9,1.9z M31.8,29.9c0,1.1-0.9,1.9-1.9,1.9h-26c-1.1,0-1.9-0.9-1.9-1.9V17.7h3.2c-0.2,0.5-0.3,1-0.3,1.6
	c0,2.2,1.8,4.1,4.1,4.1c2.2,0,4.1-1.8,4.1-4.1c0-0.6-0.1-1.1-0.3-1.6h4.1c0,0,0.1,0,0.1,0c0,0,0,0,0,0c0.5,0,1-0.4,1-1v-6.1
	c0-0.5-0.4-1-1-1c-0.2,0-0.4,0.1-0.5,0.2c0,0-0.1,0-0.1,0.1c0,0,0,0,0,0c-0.1,0.1-0.1,0.1-0.2,0.2c-0.4,0.6-0.9,0.9-1.6,0.9
	c-1.2,0-2.1-1-2.1-2.1s1-2.1,2.1-2.1c0.7,0,1.3,0.3,1.7,0.9c0.3,0.4,0.9,0.5,1.3,0.2c0.3-0.2,0.5-0.6,0.4-1c0,0,0-0.1,0-0.1V1.9h12
	c1.1,0,1.9,0.9,1.9,1.9V29.9z"/>
</svg>
