<?xml version="1.0" encoding="UTF-8"?>
<svg width="289px" height="234px" viewBox="0 0 289 234" version="1.1" xmlns="http://www.w3.org/2000/svg" xmlns:xlink="http://www.w3.org/1999/xlink">
    <!-- Generator: Sketch 52.6 (67491) - http://www.bohemiancoding.com/sketch -->
    <title>Group</title>
    <desc>Created with Sketch.</desc>
    <g id="Page-1" stroke="none" stroke-width="1" fill="none" fill-rule="evenodd">
        <g id="Desktop-HD-Copy-4" transform="translate(-254.000000, -885.000000)">
            <g id="Group" transform="translate(251.000000, 880.000000)">
                <path d="M149.242353,238.285229 C208.34743,238.285229 292,144.418524 292,91.88056 C292,39.3425962 208.34743,91.88056 149.242353,26.7956578 C90.1372768,-38.2892443 6.99169026,58.2915514 6.99169026,109.055826 C6.99169026,159.8201 90.1372768,238.285229 149.242353,238.285229 Z" id="Oval" fill="#E6F5E4"></path>
                <path d="M3.65,83 L3.65,48 L10.25,48 L10.25,62.1 L25.55,62.1 L25.55,48 L32.15,48 L32.15,83 L25.55,83 L25.55,68.2 L10.25,68.2 L10.25,83 L3.65,83 Z M62.3,72.1 L43.2,72.1 C43.6,75.9 46.3,78.3 50,78.3 C53.45,78.3 55.45,76.55 56.85,73.75 L61.55,76.45 C59.2,81.3 55.5,83.7 49.9,83.7 C43,83.7 37.15,78.45 37.15,70.6 C37.15,62.75 43,57.5 50.2,57.5 C57.3,57.5 62.3,62.65 62.3,69.9 L62.3,72.1 Z M50,62.3 C46.65,62.3 44.1,64.6 43.2,67.5 L56.5,67.5 C55.9,64.3 53.55,62.3 50,62.3 Z M67.3,83 L67.3,48 L73.6,48 L73.6,83 L67.3,83 Z M79.9,83 L79.9,48 L86.2,48 L86.2,83 L79.9,83 Z M118.2,70.6 C118.2,79.3 111.45,83.7 104.65,83.7 C97.85,83.7 91.1,79.3 91.1,70.6 C91.1,61.9 97.85,57.5 104.65,57.5 C111.45,57.5 118.2,61.9 118.2,70.6 Z M104.65,77.8 C108.35,77.8 111.8,75.15 111.8,70.6 C111.8,66.05 108.35,63.4 104.65,63.4 C100.95,63.4 97.5,66.05 97.5,70.6 C97.5,75.15 100.95,77.8 104.65,77.8 Z" id="Hello" fill-opacity="0.8" fill="#00001E"></path>
                <path d="M163.65,112 L163.65,77 L170.25,77 L170.25,91.1 L185.55,91.1 L185.55,77 L192.15,77 L192.15,112 L185.55,112 L185.55,97.2 L170.25,97.2 L170.25,112 L163.65,112 Z M224.25,99.6 C224.25,108.3 217.5,112.7 210.7,112.7 C203.9,112.7 197.15,108.3 197.15,99.6 C197.15,90.9 203.9,86.5 210.7,86.5 C217.5,86.5 224.25,90.9 224.25,99.6 Z M210.7,106.8 C214.4,106.8 217.85,104.15 217.85,99.6 C217.85,95.05 214.4,92.4 210.7,92.4 C207,92.4 203.55,95.05 203.55,99.6 C203.55,104.15 207,106.8 210.7,106.8 Z M229.15,112 L229.15,77 L235.45,77 L235.45,112 L229.15,112 Z M264.55,112 L258.15,112 C257.75,111.5 256.95,110.2 256.95,108.05 C255.2,111.15 252.2,112.7 248.65,112.7 C243.75,112.7 240.3,109.65 240.3,104.95 C240.3,99.9 244.45,97.45 249.15,96.75 L256.6,95.6 L256.6,94.65 C256.6,92.25 255.1,90.9 252.05,90.9 C249.15,90.9 247.6,92.15 247.6,93.7 C247.6,93.9 247.6,94 247.7,94.3 L242.05,96.2 C241.75,95.55 241.6,94.8 241.6,94.1 C241.6,90.25 245.4,86.5 252.05,86.5 C259,86.5 262.9,89.45 262.9,95.5 L262.9,105.85 C262.9,108.7 263.35,110.25 264.55,112 Z M250.15,107.6 C253.8,107.6 256.6,105.2 256.6,100.4 L256.6,99.95 L250.6,100.95 C247.9,101.4 246.45,102.6 246.45,104.6 C246.45,106.6 247.95,107.6 250.15,107.6 Z" id="Hola" fill-opacity="0.8" fill="#00001E"></path>
                <path d="M213.19,165 L213.19,144 L217.15,144 L217.15,152.46 L226.33,152.46 L226.33,144 L230.29,144 L230.29,165 L226.33,165 L226.33,156.12 L217.15,156.12 L217.15,165 L213.19,165 Z M247.66,165 L243.82,165 C243.58,164.7 243.1,163.92 243.1,162.63 C242.05,164.49 240.25,165.42 238.12,165.42 C235.18,165.42 233.11,163.59 233.11,160.77 C233.11,157.74 235.6,156.27 238.42,155.85 L242.89,155.16 L242.89,154.59 C242.89,153.15 241.99,152.34 240.16,152.34 C238.42,152.34 237.49,153.09 237.49,154.02 C237.49,154.14 237.49,154.2 237.55,154.38 L234.16,155.52 C233.98,155.13 233.89,154.68 233.89,154.26 C233.89,151.95 236.17,149.7 240.16,149.7 C244.33,149.7 246.67,151.47 246.67,155.1 L246.67,161.31 C246.67,163.02 246.94,163.95 247.66,165 Z M239.02,162.36 C241.21,162.36 242.89,160.92 242.89,158.04 L242.89,157.77 L239.29,158.37 C237.67,158.64 236.8,159.36 236.8,160.56 C236.8,161.76 237.7,162.36 239.02,162.36 Z M250.27,165 L250.27,144 L254.05,144 L254.05,165 L250.27,165 Z M257.83,165 L257.83,144 L261.61,144 L261.61,165 L257.83,165 Z M280.81,157.56 C280.81,162.78 276.76,165.42 272.68,165.42 C268.6,165.42 264.55,162.78 264.55,157.56 C264.55,152.34 268.6,149.7 272.68,149.7 C276.76,149.7 280.81,152.34 280.81,157.56 Z M272.68,161.88 C274.9,161.88 276.97,160.29 276.97,157.56 C276.97,154.83 274.9,153.24 272.68,153.24 C270.46,153.24 268.39,154.83 268.39,157.56 C268.39,160.29 270.46,161.88 272.68,161.88 Z" id="Hallo" fill-opacity="0.8" fill="#00001E"></path>
                <path d="M17.65,214 L17.65,179 L32.05,179 C39.25,179 43.25,182.2 43.25,187.55 C43.25,191.2 40.9,193.75 38.4,195 C41.95,196.4 44.7,198.95 44.7,203.5 C44.7,210.1 39.05,214 32.3,214 L17.65,214 Z M24.25,198.4 L24.25,208.1 L31.9,208.1 C36.15,208.1 38.1,206.35 38.1,203.25 C38.1,200.15 36.15,198.4 31.9,198.4 L24.25,198.4 Z M24.25,184.8 L24.25,192.6 L31.55,192.6 C35.25,192.6 36.85,191.35 36.85,188.7 C36.85,186.05 35.25,184.8 31.55,184.8 L24.25,184.8 Z M75.2,201.6 C75.2,210.3 68.45,214.7 61.65,214.7 C54.85,214.7 48.1,210.3 48.1,201.6 C48.1,192.9 54.85,188.5 61.65,188.5 C68.45,188.5 75.2,192.9 75.2,201.6 Z M61.65,208.8 C65.35,208.8 68.8,206.15 68.8,201.6 C68.8,197.05 65.35,194.4 61.65,194.4 C57.95,194.4 54.5,197.05 54.5,201.6 C54.5,206.15 57.95,208.8 61.65,208.8 Z M103.5,197.1 L103.5,214 L97.2,214 L97.2,199.7 C97.2,196.45 95.65,194.4 92.15,194.4 C88.85,194.4 86.4,197.25 86.4,201.4 L86.4,214 L80.1,214 L80.1,189.2 L86.4,189.2 L86.4,193.2 C88.25,190.35 91.2,188.5 94.8,188.5 C100.1,188.5 103.5,191.95 103.5,197.1 Z M103.7,224.05 L104.5,218.35 C105.1,218.6 105.75,218.75 106.45,218.75 C108.5,218.75 109.25,217.55 109.25,215.2 L109.25,189.2 L115.55,189.2 L115.55,215.9 C115.55,221.4 112.9,224.55 107.45,224.55 C105.75,224.55 104.6,224.3 103.7,224.05 Z M108.95,185.6 L108.95,179 L115.85,179 L115.85,185.6 L108.95,185.6 Z M147.5,201.6 C147.5,210.3 140.75,214.7 133.95,214.7 C127.15,214.7 120.4,210.3 120.4,201.6 C120.4,192.9 127.15,188.5 133.95,188.5 C140.75,188.5 147.5,192.9 147.5,201.6 Z M133.95,208.8 C137.65,208.8 141.1,206.15 141.1,201.6 C141.1,197.05 137.65,194.4 133.95,194.4 C130.25,194.4 126.8,197.05 126.8,201.6 C126.8,206.15 130.25,208.8 133.95,208.8 Z M152.3,204.6 L152.3,189.2 L158.6,189.2 L158.6,203.15 C158.6,206.75 160.15,208.8 163.65,208.8 C167.15,208.8 169.4,205.95 169.4,202 L169.4,189.2 L175.7,189.2 L175.7,214 L169.4,214 L169.4,210.1 C167.8,213.05 165,214.7 161.5,214.7 C156.3,214.7 152.3,211.25 152.3,204.6 Z M197.1,188.8 L196.1,194.75 C195.55,194.55 194.85,194.4 194.05,194.4 C190.3,194.4 188.05,197.55 188.05,201.75 L188.05,214 L181.75,214 L181.75,189.2 L188.05,189.2 L188.05,193.15 C189.45,190.3 191.75,188.5 194.95,188.5 C195.75,188.5 196.45,188.6 197.1,188.8 Z" id="Bonjour" fill-opacity="0.8" fill="#00001E"></path>
                <path d="M81.51,136.56 L84.6,138.78 C82.05,142.65 79.65,144.42 75.12,144.42 C68.94,144.42 64.38,140.04 64.38,133.5 C64.38,126.96 69.12,122.58 75.27,122.58 C79.68,122.58 83.07,124.89 84.48,128.07 L81.27,130.38 C80.01,127.71 78.09,126.24 75.15,126.24 C71.46,126.24 68.4,129.03 68.4,133.5 C68.4,137.82 71.4,140.76 75.15,140.76 C77.88,140.76 80.04,139.32 81.51,136.56 Z M87.9,144 L87.9,129.12 L91.68,129.12 L91.68,144 L87.9,144 Z M87.72,126.96 L87.72,123 L91.86,123 L91.86,126.96 L87.72,126.96 Z M109.08,144 L105.24,144 C105,143.7 104.52,142.92 104.52,141.63 C103.47,143.49 101.67,144.42 99.54,144.42 C96.6,144.42 94.53,142.59 94.53,139.77 C94.53,136.74 97.02,135.27 99.84,134.85 L104.31,134.16 L104.31,133.59 C104.31,132.15 103.41,131.34 101.58,131.34 C99.84,131.34 98.91,132.09 98.91,133.02 C98.91,133.14 98.91,133.2 98.97,133.38 L95.58,134.52 C95.4,134.13 95.31,133.68 95.31,133.26 C95.31,130.95 97.59,128.7 101.58,128.7 C105.75,128.7 108.09,130.47 108.09,134.1 L108.09,140.31 C108.09,142.02 108.36,142.95 109.08,144 Z M100.44,141.36 C102.63,141.36 104.31,139.92 104.31,137.04 L104.31,136.77 L100.71,137.37 C99.09,137.64 98.22,138.36 98.22,139.56 C98.22,140.76 99.12,141.36 100.44,141.36 Z M127.38,136.56 C127.38,141.78 123.33,144.42 119.25,144.42 C115.17,144.42 111.12,141.78 111.12,136.56 C111.12,131.34 115.17,128.7 119.25,128.7 C123.33,128.7 127.38,131.34 127.38,136.56 Z M119.25,140.88 C121.47,140.88 123.54,139.29 123.54,136.56 C123.54,133.83 121.47,132.24 119.25,132.24 C117.03,132.24 114.96,133.83 114.96,136.56 C114.96,139.29 117.03,140.88 119.25,140.88 Z" id="Ciao" fill-opacity="0.8" fill="#00001E"></path>
                <path d="M115.98,17.5 C115.98,23.77 111.36,28.42 105.18,28.42 C99,28.42 94.38,23.77 94.38,17.5 C94.38,11.23 99,6.58 105.18,6.58 C111.36,6.58 115.98,11.23 115.98,17.5 Z M105.18,24.76 C108.99,24.76 111.96,22.03 111.96,17.5 C111.96,12.97 108.99,10.24 105.18,10.24 C101.37,10.24 98.4,12.97 98.4,17.5 C98.4,22.03 101.37,24.76 105.18,24.76 Z M119.25,28 L119.25,7 L123.03,7 L123.03,28 L119.25,28 Z M140.49,28 L136.65,28 C136.41,27.7 135.93,26.92 135.93,25.63 C134.88,27.49 133.08,28.42 130.95,28.42 C128.01,28.42 125.94,26.59 125.94,23.77 C125.94,20.74 128.43,19.27 131.25,18.85 L135.72,18.16 L135.72,17.59 C135.72,16.15 134.82,15.34 132.99,15.34 C131.25,15.34 130.32,16.09 130.32,17.02 C130.32,17.14 130.32,17.2 130.38,17.38 L126.99,18.52 C126.81,18.13 126.72,17.68 126.72,17.26 C126.72,14.95 129,12.7 132.99,12.7 C137.16,12.7 139.5,14.47 139.5,18.1 L139.5,24.31 C139.5,26.02 139.77,26.95 140.49,28 Z M131.85,25.36 C134.04,25.36 135.72,23.92 135.72,21.04 L135.72,20.77 L132.12,21.37 C130.5,21.64 129.63,22.36 129.63,23.56 C129.63,24.76 130.53,25.36 131.85,25.36 Z M130.74,11.44 L132.78,6.7 L137.37,6.7 L133.65,11.44 L130.74,11.44 Z" id="Olá" fill-opacity="0.8" fill="#00001E"></path>
            </g>
        </g>
    </g>
</svg>