<?xml version="1.0" encoding="UTF-8" standalone="no"?>
<svg width="103px" height="30px" viewBox="0 0 103 30" version="1.1" xmlns="http://www.w3.org/2000/svg" xmlns:xlink="http://www.w3.org/1999/xlink">
    <!-- Generator: Sketch 41.2 (35397) - http://www.bohemiancoding.com/sketch -->
    <title>crew</title>
    <desc>Created with Sketch.</desc>
    <defs></defs>
    <g id="Customers_section_project" stroke="none" stroke-width="1" fill="none" fill-rule="evenodd">
        <g id="Desktop-HD-Copy-28" transform="translate(-669.000000, -1145.000000)" fill="#1A1A1A">
            <g id="crew" transform="translate(669.000000, 1145.000000)">
                <g id="Layer_1">
                    <path d="M34.671831,9.58064516 C36.6061033,7.69354839 39.2415493,6.53225806 42.1671362,6.53225806 L42.1671362,9.77419355 C38.0326291,9.77419355 34.671831,13.1370968 34.671831,17.2741935 L34.671831,26.0564516 L36.5819249,26.0564516 L36.5819249,29.2741935 L29.4734742,29.2741935 L29.4734742,26.0322581 L31.4319249,26.0322581 L31.4319249,10.1612903 L29.4734742,10.1612903 L29.4734742,6.91935484 L34.671831,6.91935484 L34.671831,9.58064516 Z M15.0873239,26.5645161 L14.8455399,26.5645161 C11.6056338,26.4919355 8.60751174,25.1612903 6.38309859,22.766129 C2.20023474,18.266129 2.20023474,11.2016129 6.38309859,6.67741935 C8.75258216,4.11290323 12.5969484,2.85483871 16.1753521,3.45967742 C17.843662,3.75 20.8901408,4.69354839 22.2924883,7.86290323 L22.7276995,8.83064516 L25.4598592,8.83064516 L25.4598592,0.411290323 L22.1957746,0.411290323 L22.1957746,2.63709677 C20.6725352,1.4516129 18.8107981,0.629032258 16.707277,0.266129032 C12.0166667,-0.508064516 7.15680751,1.11290323 4.01361502,4.47580645 C-1.3056338,10.2096774 -1.3056338,19.2096774 4.01361502,24.9677419 C6.81830986,28.016129 10.6626761,29.733871 14.7971831,29.8064516 L15.0873239,29.8064516 C19.100939,29.8064516 22.87277,28.233871 25.75,25.3790323 L23.4530516,23.0806452 C21.2044601,25.3548387 18.2546948,26.5645161 15.0873239,26.5645161 Z M63.4199531,9.87096774 C65.5960094,12.0483871 66.7807512,14.9274194 66.7807512,17.9758065 L66.7807512,19.5967742 L47.1478873,19.5967742 C47.3413146,20.5645161 47.728169,21.483871 48.2842723,22.3306452 C49.8558685,24.6774194 52.3462441,26.2016129 55.1025822,26.4677419 C57.8589202,26.733871 60.5669014,25.766129 62.5253521,23.8064516 L64.8223005,26.1048387 C62.4769953,28.4516129 59.3096244,29.7580645 56.0213615,29.7580645 C55.6103286,29.7580645 55.1992958,29.733871 54.7882629,29.7096774 C51.0647887,29.3467742 47.7039906,27.3145161 45.6004695,24.1451613 C43.4002347,20.8548387 43.1584507,16.6209677 44.9234742,13.0645161 C46.6643192,9.58064516 49.7833333,7.25806452 53.4826291,6.65322581 C57.0852113,6.07258065 60.8086854,7.28225806 63.4199531,9.87096774 Z M63.3715962,16.3790323 C63.057277,14.8064516 62.2835681,13.3548387 61.1230047,12.1693548 C59.2612676,10.3064516 56.5774648,9.43548387 53.9903756,9.87096774 C51.3307512,10.3064516 49.0821596,12 47.8248826,14.5403226 C47.5347418,15.1451613 47.3171362,15.75 47.1720657,16.3790323 L63.3715962,16.3790323 Z M95.4321596,6.91935484 L95.4321596,10.1612903 L97.3906103,10.1612903 L92.5065728,23.4677419 L87.7676056,10.1612903 L89.7260563,10.1612903 L89.7260563,6.91935484 L86.6070423,6.91935484 L83.9232394,6.91935484 L80.8042254,6.91935484 L80.8042254,10.1612903 L82.7626761,10.1612903 L78.0237089,23.4677419 L73.1396714,10.1612903 L75.0981221,10.1612903 L75.0981221,6.91935484 L67.6995305,6.91935484 L67.6995305,10.1612903 L69.6579812,10.1612903 L76.6938967,29.2741935 L79.3776995,29.2741935 L85.2530516,12.7983871 L91.1525822,29.2741935 L93.836385,29.2741935 L100.8723,10.1612903 L102.830751,10.1612903 L102.830751,6.91935484 L95.4321596,6.91935484 Z" id="Shape"></path>
                </g>
            </g>
        </g>
    </g>
</svg>