<?xml version="1.0" encoding="UTF-8" standalone="no"?>
<svg width="341px" height="58px" viewBox="0 0 341 58" version="1.1" xmlns="http://www.w3.org/2000/svg" xmlns:xlink="http://www.w3.org/1999/xlink" xmlns:sketch="http://www.bohemiancoding.com/sketch/ns">
    <!-- Generator: Sketch 3.4.2 (15855) - http://www.bohemiancoding.com/sketch -->
    <title>logo.valk.322543fa</title>
    <desc>Created with Sketch.</desc>
    <defs></defs>
    <g id="Page-1" stroke="none" stroke-width="1" fill="none" fill-rule="evenodd" sketch:type="MSPage">
        <g id="logo.valk.322543fa" sketch:type="MSLayerGroup" transform="translate(0.000000, -2.000000)" fill="#000000">
            <g id="Group" sketch:type="MSShapeGroup">
                <path d="M89.6943396,43.2857143 C87.5433962,44.7857143 84.7471698,45.6428571 81.090566,45.6428571 C76.7886792,45.6428571 72.2716981,44.3571429 69.045283,41.3571429 L72.4867925,36 C74.8528302,37.9285714 78.509434,39.4285714 80.8754717,39.4285714 C83.2415094,39.4285714 84.7471698,38.7857143 84.7471698,37.0714286 C84.7471698,35.1428571 80.6603774,34.2857143 79.5849057,34.0714286 C78.509434,33.8571429 76.7886792,33.4285714 75.4981132,32.7857143 C74.2075472,32.1428571 70.7660377,30.4285714 70.7660377,25.5 C70.7660377,19.9285714 75.4981132,16.7142857 81.5207547,16.7142857 C87.5433962,16.7142857 90.7698113,18.8571429 92.2754717,20.1428571 L89.2641509,25.5 C87.7584906,24.2142857 84.5320755,22.7142857 82.1660377,22.7142857 C80.0150943,22.7142857 78.7245283,23.3571429 78.7245283,24.8571429 C78.7245283,26.3571429 80.8754717,27 82.8113208,27.6428571 C84.7471698,28.2857143 85.6075472,28.5 86.8981132,28.9285714 C88.1886792,29.3571429 89.6943396,30.2142857 90.554717,31.0714286 C91.4150943,31.9285714 92.9207547,33.8571429 92.9207547,36.8571429 C93.1358491,39.4285714 91.845283,41.7857143 89.6943396,43.2857143 L89.6943396,43.2857143 Z" id="Shape"></path>
                <path d="M125.184906,45.2142857 L115.935849,45.2142857 L115.935849,30.4285714 C115.935849,27 115.50566,24 111.633962,24 C107.762264,24 106.471698,27.2142857 106.471698,31.2857143 L106.471698,45.2142857 L97.2226415,45.2142857 L97.2226415,5.78571429 L106.471698,5.78571429 L106.471698,15 L106.471698,21 C107.977358,18.4285714 110.558491,16.5 114.860377,16.5 C123.033962,16.5 125.184906,21.6428571 125.184906,28.5 L125.184906,45.2142857 L125.184906,45.2142857 Z" id="Shape"></path>
                <path d="M156.588679,45.2142857 L147.769811,45.2142857 L147.554717,42.2142857 C146.264151,43.5 144.113208,45.8571429 139.381132,45.8571429 C134.433962,45.8571429 129.056604,43.0714286 129.056604,36.8571429 C129.056604,30.6428571 134.864151,28.5 140.026415,28.2857143 L147.124528,28.0714286 L147.124528,27.4285714 C147.124528,24.4285714 144.973585,22.9285714 141.316981,22.9285714 C137.660377,22.9285714 134.003774,24.4285714 132.713208,25.5 L130.562264,19.2857143 C132.928302,18 137.445283,16.5 142.607547,16.5 C147.984906,16.5 150.996226,17.7857143 153.14717,19.7142857 C155.298113,21.8571429 156.588679,24.4285714 156.588679,29.3571429 L156.588679,45.2142857 L156.588679,45.2142857 Z M147.554717,32.7857143 L143.037736,33 C140.241509,33.2142857 138.520755,34.2857143 138.520755,36.4285714 C138.520755,38.5714286 140.241509,39.8571429 142.822642,39.8571429 C145.188679,39.8571429 146.909434,38.3571429 147.554717,37.2857143 L147.554717,32.7857143 L147.554717,32.7857143 Z" id="Shape"></path>
                <path d="M180.464151,25.2857143 L180.033962,25.2857143 C179.603774,25.0714286 178.313208,24.6428571 176.807547,24.6428571 C174.656604,24.6428571 173.150943,25.7142857 172.50566,26.7857143 C171.860377,27.8571429 171,29.5714286 171,32.7857143 L171,45.2142857 L161.750943,45.2142857 L161.750943,16.9285714 L171,16.9285714 L171,21 L171.215094,21 C172.720755,18 175.086792,16.5 178.313208,16.5 C180.249057,16.5 181.109434,16.9285714 181.109434,16.9285714 L180.464151,25.2857143 L180.464151,25.2857143 Z" id="Shape"></path>
                <path d="M211.867925,33.2142857 L191.649057,33.2142857 C192.079245,37.2857143 195.090566,39.2142857 198.962264,39.2142857 C202.618868,39.2142857 205.845283,37.7142857 207.566038,36.4285714 L211.222642,41.1428571 C210.362264,41.7857143 206.490566,45.6428571 197.671698,45.6428571 C188.85283,45.6428571 182.615094,40.2857143 182.615094,30.8571429 C182.615094,21.4285714 189.498113,16.2857143 197.886792,16.2857143 C206.275472,16.2857143 212.083019,21.8571429 212.083019,30 C211.867925,31.7142857 211.867925,33.2142857 211.867925,33.2142857 L211.867925,33.2142857 Z M203.479245,28.0714286 C203.479245,25.5 201.543396,22.5 197.671698,22.5 C193.8,22.5 191.864151,25.5 191.864151,28.0714286 L203.479245,28.0714286 L203.479245,28.0714286 Z" id="Shape"></path>
                <path d="M233.807547,24 L227.569811,24 L227.569811,34.0714286 C227.569811,36.4285714 228,37.0714286 228.430189,37.5 C228.860377,37.9285714 229.50566,38.1428571 230.581132,38.1428571 C232.086792,38.1428571 233.377358,37.7142857 233.377358,37.7142857 L233.807547,44.7857143 C233.162264,45 230.581132,45.6428571 227.354717,45.6428571 C224.128302,45.6428571 221.977358,44.5714286 220.471698,43.0714286 C218.966038,41.3571429 218.535849,39 218.535849,34.7142857 L218.535849,23.7857143 L214.449057,23.7857143 L214.449057,16.9285714 L218.535849,16.9285714 L218.535849,9.42857143 L227.784906,9.42857143 L227.784906,17.1428571 L234.022642,17.1428571 L234.022642,24 L233.807547,24 Z" id="Shape"></path>
                <path d="M257.25283,25.2857143 L256.822642,25.2857143 C256.392453,25.0714286 255.101887,24.6428571 253.596226,24.6428571 C251.445283,24.6428571 249.939623,25.7142857 249.29434,26.7857143 C248.649057,27.8571429 247.788679,29.5714286 247.788679,32.7857143 L247.788679,45.2142857 L238.754717,45.2142857 L238.754717,16.9285714 L248.003774,16.9285714 L248.003774,21 L248.218868,21 C249.724528,18 252.090566,16.5 255.316981,16.5 C257.25283,16.5 258.113208,16.9285714 258.113208,16.9285714 L257.25283,25.2857143 L257.25283,25.2857143 Z" id="Shape"></path>
                <path d="M266.716981,13.7142857 C263.70566,13.7142857 261.554717,11.7857143 261.554717,9 C261.554717,6.21428571 263.70566,4.28571429 266.716981,4.28571429 C269.728302,4.28571429 271.879245,6.21428571 271.879245,9 C271.879245,11.7857143 269.728302,13.7142857 266.716981,13.7142857 L266.716981,13.7142857 Z" id="Shape"></path>
                <rect id="Rectangle-path" x="262.2" y="16.9285714" width="9.2490566" height="28.2857143"></rect>
                <path d="M294.464151,45.8571429 C290.592453,45.8571429 287.150943,44.5714286 285,41.5714286 L285,41.5714286 L285,45.2142857 L276.181132,45.2142857 L276.181132,5.78571429 L285.430189,5.78571429 L285.430189,15.2142857 C285.430189,17.7857143 285.215094,20.3571429 285.215094,20.3571429 L285.430189,20.3571429 C286.720755,18.6428571 289.516981,16.5 294.249057,16.5 C302.422642,16.5 307.584906,22.9285714 307.584906,31.0714286 C307.584906,39.2142857 302.637736,45.8571429 294.464151,45.8571429 L294.464151,45.8571429 Z M291.883019,23.5714286 C288.011321,23.5714286 285.215094,26.5714286 285.215094,30.8571429 C285.215094,35.1428571 288.011321,38.1428571 291.883019,38.1428571 C295.754717,38.1428571 298.550943,35.1428571 298.550943,30.8571429 C298.550943,26.5714286 295.969811,23.5714286 291.883019,23.5714286 L291.883019,23.5714286 Z" id="Shape"></path>
                <path d="M340.279245,33.2142857 L320.060377,33.2142857 C320.490566,37.2857143 323.501887,39.2142857 327.373585,39.2142857 C331.030189,39.2142857 334.256604,37.7142857 335.977358,36.4285714 L339.633962,41.1428571 C338.773585,41.7857143 334.901887,45.6428571 326.083019,45.6428571 C317.264151,45.6428571 311.026415,40.2857143 311.026415,30.8571429 C311.026415,21.4285714 317.909434,16.2857143 326.298113,16.2857143 C334.686792,16.2857143 340.49434,21.8571429 340.49434,30 C340.49434,31.7142857 340.279245,33.2142857 340.279245,33.2142857 L340.279245,33.2142857 Z M331.890566,28.0714286 C331.890566,25.5 329.954717,22.5 326.083019,22.5 C322.211321,22.5 320.275472,25.5 320.275472,28.0714286 L331.890566,28.0714286 L331.890566,28.0714286 Z" id="Shape"></path>
                <g id="Shape">
                    <path d="M50.3320755,15.8571429 L26.8867925,2.35714286 C26.2415094,1.92857143 25.3811321,1.92857143 24.7358491,2.35714286 C24.7358491,2.35714286 22.8,3.42857143 22.8,3.64285714 C20.2188679,5.14285714 19.1433962,8.14285714 22.5849057,9.85714286 C26.6716981,12 31.1886792,14.3571429 31.1886792,14.3571429 C36.9962264,17.3571429 36.5660377,19.2857143 36.5660377,22.7142857 L36.5660377,25.0714286 L22.5849057,17.5714286 C21.509434,17.1428571 20.8641509,17.5714286 20.8641509,18.6428571 L20.8641509,22.0714286 C20.8641509,23.1428571 21.7245283,24.6428571 22.5849057,25.0714286 L28.3924528,28.2857143 C31.4037736,30 36.5660377,31.9285714 36.5660377,35.3571429 L36.5660377,54 L50.3320755,46.5 C50.9773585,46.0714286 51.4075472,45.4285714 51.4075472,44.7857143 L51.4075472,17.5714286 C51.4075472,16.9285714 50.9773585,16.2857143 50.3320755,15.8571429 L50.3320755,15.8571429 Z"></path>
                    <path d="M0.860377358,46.0714286 L24.3056604,59.5714286 C24.9509434,60 25.8113208,60 26.4566038,59.5714286 C26.4566038,59.5714286 28.3924528,58.5 28.3924528,58.2857143 C30.9735849,56.7857143 32.0490566,53.7857143 28.6075472,52.0714286 C24.5207547,49.9285714 20.0037736,47.5714286 20.0037736,47.5714286 C14.1962264,44.7857143 14.6264151,42.6428571 14.6264151,39.2142857 L14.6264151,36.8571429 L28.6075472,44.3571429 C29.6830189,45 30.3283019,44.3571429 30.3283019,43.2857143 L30.3283019,39.8571429 C30.3283019,38.7857143 29.4679245,37.2857143 28.6075472,36.8571429 L22.8,33.6428571 C19.7886792,31.9285714 14.6264151,30 14.6264151,26.5714286 L14.6264151,7.92857143 L0.860377358,15.4285714 C0.430188679,15.8571429 0,16.7142857 0,17.3571429 L0,44.3571429 C0,45 0.430188679,45.6428571 0.860377358,46.0714286 L0.860377358,46.0714286 Z"></path>
                </g>
            </g>
        </g>
    </g>
</svg>