<?xml version="1.0" encoding="UTF-8" standalone="no"?>
<svg width="258px" height="121px" viewBox="0 0 258 121" version="1.1" xmlns="http://www.w3.org/2000/svg" xmlns:xlink="http://www.w3.org/1999/xlink" xmlns:sketch="http://www.bohemiancoding.com/sketch/ns">
    <!-- Generator: Sketch 3.4.2 (15855) - http://www.bohemiancoding.com/sketch -->
    <title>soylent-logo</title>
    <desc>Created with Sketch.</desc>
    <defs></defs>
    <g id="Page-1" stroke="none" stroke-width="1" fill="none" fill-rule="evenodd" sketch:type="MSPage">
        <g id="soylent-logo" sketch:type="MSLayerGroup">
            <path d="M160.486624,47.7821438 L159.7278,47.7821438 C155.180171,47.7821438 151.482424,50.7466438 151.482424,54.3917688 L151.482424,58.2032688 L168.6546,58.2032688 L168.6546,54.3917688 C168.656118,50.7466438 164.991759,47.7821437 160.486624,47.7821437 L160.486624,47.7821438 Z M80.1423882,54.3917688 C80.1423882,50.7466438 76.4787882,47.7821438 71.9736529,47.7821438 L71.1389471,47.7821438 C66.6315353,47.7821438 62.9664176,50.7466438 62.9664176,54.3917688 L62.9664176,66.7262063 C62.9664176,70.3713313 66.6315353,73.3358313 71.1389471,73.3358313 L71.9736529,73.3358313 C76.4772706,73.3358313 80.1385941,70.3713313 80.1385941,66.7262063 L80.1385941,54.3917688 L80.1423882,54.3917688 Z" id="Shape" sketch:type="MSShapeGroup"></path>
            <path d="M5.45062941,5.218125 L5.45062941,115.91195 L252.170718,115.91195 L252.170718,5.218125 L5.45062941,5.218125 L5.45062941,5.218125 Z M38.1012882,77.8559375 L37.4229,77.8559375 C32.5558059,77.8559375 26.1088412,75.2090625 23.7451059,70.7812187 C23.3656941,70.2042 23.3376176,69.3806437 23.7102,68.7038 C24.1214824,67.9536 24.9941294,67.466575 25.9305176,67.466575 C26.8449,67.466575 27.6454588,67.9256188 28.0704,68.6939688 C29.5273412,71.3514313 34.2092824,73.3373438 37.4206235,73.3373438 L38.1012882,73.3373438 C39.5901,73.3373438 47.0273294,73.0673625 47.0273294,67.7441188 C47.0273294,63.891025 43.4380941,62.5585125 37.2385059,61.5579938 C34.1500941,61.0588688 24.7672412,59.5342688 24.7672412,52.8649 L24.7672412,52.2924188 C24.7672412,46.0866313 31.2855353,43.260525 37.3432235,43.260525 L37.7985176,43.260525 C43.1558118,43.260525 46.6942059,45.396175 48.8925176,47.0009375 C49.7150824,47.6308938 50.0383412,48.61175 49.7317765,49.5116875 C49.2514412,50.9281438 47.1745412,51.5270938 45.9171706,50.5704375 C44.2834235,49.3785875 41.6480294,47.779875 37.8000353,47.779875 L37.3447412,47.779875 C37.0245176,47.779875 29.4780176,47.8328125 29.4780176,52.2916625 L29.4780176,52.8641438 C29.4780176,54.6292313 32.6673529,56.2536563 38.0071941,57.2095563 C43.8319235,58.2115875 51.8177824,59.5841813 51.8177824,67.7403375 C51.8155059,75.2067938 44.4268412,77.8551813 38.1012882,77.8551813 L38.1012882,77.8559375 Z M84.9282882,66.7277187 C84.9282882,72.8639313 79.1157,77.8566937 71.9751706,77.8566937 L71.1404647,77.8566937 C63.9969,77.8566937 58.1835529,72.8654437 58.1835529,66.7299875 L58.1835529,54.39555 C58.1835529,48.2593375 63.9976588,43.2658188 71.1412235,43.2658188 L71.9759294,43.2658188 C79.1187353,43.2658188 84.9290471,48.2570688 84.9290471,54.3940375 L84.9290471,66.728475 L84.9282882,66.7277187 Z M119.748424,80.0793125 C119.748424,86.2147687 113.937353,91.2082875 106.793029,91.2082875 L105.958324,91.2082875 C100.651112,91.2082875 94.3483235,88.7156875 92.4967941,83.9513125 C92.2463824,83.5300812 92.2463824,83.123975 92.2463824,82.9417187 C92.2463824,81.5653437 93.5083059,80.7107812 94.6761353,80.7107812 C95.6899235,80.7107812 96.5519471,81.2946062 96.9222529,82.2308437 C97.8556059,84.7824312 101.739265,86.6881812 105.959841,86.6881812 L106.794547,86.6881812 C111.301959,86.6881812 114.967076,83.7236812 114.967076,80.0785562 L114.967076,75.5380312 C112.724753,76.9945687 109.756994,77.8536687 106.779371,77.8536687 L105.946941,77.8536687 C98.8018588,77.8536687 92.9907882,72.8321687 92.9907882,66.6611687 L92.9907882,45.5512062 C92.9907882,44.26785 94.0258235,43.2612812 95.3446588,43.2612812 C96.7302706,43.2612812 97.7751706,44.2444062 97.7751706,45.55045 L97.7751706,66.6604125 C97.7751706,70.3380562 101.440288,73.3335625 105.946182,73.3335625 L106.779371,73.3335625 C110.949865,73.3335625 114.553518,70.9438125 114.982253,67.8946125 L114.967076,67.176175 L114.967076,45.5519625 C114.967076,44.2686062 116.001353,43.2620375 117.321706,43.2620375 C118.490294,43.2620375 119.749941,44.1370187 119.749941,45.5512062 L119.749941,80.0762875 L119.746906,80.0762875 L119.748424,80.0793125 Z M139.455071,77.8559375 C133.633376,77.8559375 129.072088,73.8894062 129.072088,68.8263125 L129.072088,32.2654062 C129.072088,30.9797812 130.104088,29.9739687 131.424441,29.9739687 C132.833576,29.9739687 133.856471,30.936675 133.856471,32.2654062 L133.856471,68.8255562 C133.856471,71.3090812 136.3659,73.3343187 139.453553,73.3343187 C140.240453,73.3343187 140.956024,73.7079062 141.355924,74.1661937 C141.689806,74.5465875 141.752029,74.8498437 141.752029,74.8498437 C141.839294,75.089575 141.885582,75.3512375 141.885582,75.6257562 C141.882547,76.7238312 140.971959,77.854425 139.455071,77.854425 L139.455071,77.8559375 Z M173.445053,60.4319375 C173.445053,61.694875 172.355382,62.723375 171.016818,62.723375 L151.4847,62.723375 L151.4847,66.7269625 C151.4847,70.3720875 155.149818,73.3365875 159.654953,73.3365875 L160.489659,73.3365875 C163.970382,73.3365875 167.092941,71.48075 168.253941,68.7196812 C168.398118,67.9498187 169.304912,67.2949062 170.404447,67.2949062 C171.810547,67.2949062 172.912359,68.2727375 172.912359,69.5220625 C172.912359,69.8298562 172.824335,70.074125 172.781082,70.1898312 L172.7181,70.3728437 C170.914376,74.847575 165.998718,77.8551812 160.485865,77.8551812 L159.651159,77.8551812 C152.507594,77.8551812 146.696524,72.8639312 146.696524,66.7262062 L146.696524,54.3917687 C146.696524,48.2555562 152.540982,43.2620375 159.727041,43.2620375 L160.331824,43.2620375 C167.804718,43.2620375 173.442018,48.0468312 173.442018,54.3910125 L173.442018,60.430425 L173.445053,60.4319375 Z M208.426818,75.5645 C208.426818,76.9809562 207.164135,77.8559375 205.994029,77.8559375 C204.6714,77.8559375 203.637124,76.850125 203.637124,75.5645 L203.637124,54.4552937 C203.637124,50.7768937 199.938618,47.7821437 195.392506,47.7821437 L194.633682,47.7821437 C190.162694,47.7821437 186.385271,50.5485062 186.385271,53.8215562 L186.385271,75.5607187 C186.385271,76.8667625 185.342647,77.8536687 183.957035,77.8536687 C182.636682,77.8536687 181.601647,76.8478562 181.601647,75.5599625 L181.601647,45.5519625 C181.601647,44.2814625 182.6124,43.3232937 183.955518,43.3232937 C185.363894,43.3232937 186.383753,44.2610437 186.383753,45.5527187 L186.383753,45.6056562 C188.629871,44.1309687 191.617359,43.2612812 194.632165,43.2612812 L195.390988,43.2612812 C202.577047,43.2612812 208.422265,48.2827812 208.422265,54.4537812 L208.422265,75.5607187 L208.423782,75.5607187 L208.426818,75.5645 Z M229.560053,77.8559375 C223.739876,77.8559375 219.181624,73.8894062 219.181624,68.8263125 L219.181624,47.9107062 L216.688888,47.9107062 C215.603771,47.9107062 214.829771,47.3374687 214.467053,46.6076875 C214.467053,46.6076875 214.272794,46.2046062 214.2561,45.9270625 C214.240924,45.7644687 214.237129,45.7417812 214.237129,45.6510312 C214.237129,44.5408562 215.153029,43.3913562 216.688129,43.3913562 L219.180106,43.3913562 L219.180106,32.20415 C219.180106,30.9374312 220.231076,29.9429625 221.5704,29.9429625 C222.913518,29.9429625 223.965247,30.9374312 223.965247,32.20415 L223.965247,43.3913562 L229.107035,43.3913562 C230.605712,43.3913562 231.501124,44.5408562 231.501124,45.6510312 C231.501124,46.7627187 230.605712,47.9122187 229.107794,47.9122187 L223.966765,47.9122187 L223.966765,68.8263125 C223.966765,71.3559687 226.425353,73.3373437 229.562329,73.3373437 C231.061006,73.3373437 231.956418,74.4868437 231.956418,75.5955062 C231.957935,76.7071937 231.062524,77.8566937 229.563088,77.8566937 L229.560053,77.8559375 Z" id="Shape" sketch:type="MSShapeGroup"></path>
            <path d="M38.0064353,57.2125813 C32.6658353,56.255925 29.4772588,54.6322563 29.4772588,52.8671688 L29.4772588,52.2946875 C29.4772588,47.8328125 37.023,47.7829 37.3439824,47.7829 L37.7992765,47.7829 C41.6465118,47.7829 44.2819059,49.3816125 45.9156529,50.5734625 C47.1715059,51.5301188 49.2468882,50.9311688 49.7279824,49.5147125 C50.0345471,48.614775 49.7112882,47.634675 48.8887235,47.005475 C46.6896529,45.3999563 43.1520176,43.2643063 37.7947235,43.2643063 L37.3394294,43.2643063 C31.2840176,43.2643063 24.7634471,46.0881438 24.7634471,52.2939313 L24.7634471,52.8656563 C24.7634471,59.5357813 34.1470588,61.0581125 37.2347118,61.5579938 C43.4343,62.5607813 47.0235353,63.8917813 47.0235353,67.7441188 C47.0235353,73.0681187 39.5870647,73.3365875 38.0959765,73.3365875 L37.4153118,73.3365875 C34.2032118,73.3365875 29.5235471,71.350675 28.0650882,68.6932125 C27.6401471,67.9248625 26.8403471,67.4658187 25.9252059,67.4658187 C24.9873,67.4658187 24.1146529,67.9520875 23.7041294,68.7030437 C23.3323059,69.3798875 23.3626588,70.2026875 23.7397941,70.7797062 C26.1050471,75.2090625 32.5497353,77.8551812 37.4175882,77.8551812 L38.0982529,77.8551812 C44.4215294,77.8551812 51.8101941,75.2083062 51.8101941,67.7426062 C51.8124706,59.5849375 43.8273706,58.2115875 38.0034,57.2103125 L38.0064353,57.2125813 Z M71.9744118,43.26355 L71.1397059,43.26355 C63.9953824,43.26355 58.1820353,48.2563125 58.1820353,54.392525 L58.1820353,66.7269625 C58.1820353,72.8639313 63.9961412,77.8566938 71.1397059,77.8566938 L71.9744118,77.8566938 C79.1172176,77.8566938 84.9275294,72.8654438 84.9275294,66.7299875 L84.9275294,54.39555 C84.9275294,48.2585813 79.1164588,43.2658188 71.9744118,43.2658188 L71.9744118,43.26355 Z M71.9744118,73.3365875 L71.1397059,73.3365875 C66.6322941,73.3365875 62.9671765,70.3720875 62.9671765,66.7269625 L62.9671765,54.392525 C62.9671765,50.7474 66.6322941,47.7829 71.1397059,47.7829 L71.9744118,47.7829 C76.4795471,47.7829 80.1416294,50.7474 80.1416294,54.392525 L80.1416294,66.7269625 C80.1416294,70.3720875 76.4787882,73.3365875 71.9736529,73.3365875 L71.9744118,73.3365875 Z M117.317153,43.26355 C115.9968,43.26355 114.961765,44.2693625 114.961765,45.553475 L114.961765,67.1792 L114.976941,67.8976375 C114.548965,70.9475938 110.945312,73.3365875 106.774059,73.3365875 L105.941629,73.3365875 C101.434218,73.3365875 97.7706176,70.3418375 97.7706176,66.6634375 L97.7706176,45.553475 C97.7706176,44.2474313 96.7257176,43.26355 95.3401059,43.26355 C94.0197529,43.26355 92.9862353,44.2693625 92.9862353,45.553475 L92.9862353,66.6634375 C92.9862353,72.8344375 98.7973059,77.8559375 105.941629,77.8559375 L106.774818,77.8559375 C109.753959,77.8559375 112.722476,76.9960813 114.962524,75.5395438 L114.962524,80.0785563 C114.962524,83.7236813 111.297406,86.6851563 106.789994,86.6851563 L105.958324,86.6851563 C101.736988,86.6851563 97.8540882,84.7794063 96.9192176,82.228575 C96.5511882,81.290825 95.6899235,80.7085125 94.6731,80.7085125 C93.5067882,80.7085125 92.2448647,81.5608062 92.2448647,82.93945 C92.2448647,83.12095 92.2448647,83.5278125 92.4952765,83.9482875 C94.3468059,88.7126625 100.649594,91.2045063 105.956806,91.2045063 L106.791512,91.2045063 C113.935835,91.2045063 119.746906,86.2117438 119.746906,80.0755313 L119.746906,45.5489375 C119.749182,44.13475 118.487259,43.260525 117.320188,43.260525 L117.317153,43.26355 Z M141.353647,74.1677063 C140.954506,73.7094188 140.238176,73.3358313 139.452035,73.3358313 C136.363624,73.3358313 133.854194,71.31135 133.854194,68.8255562 L133.854194,32.2631375 C133.854194,30.9344062 132.8313,29.9717 131.422924,29.9717 C130.102571,29.9717 129.070571,30.9775125 129.070571,32.2631375 L129.070571,68.8232875 C129.070571,73.8863813 133.6311,77.8529125 139.451276,77.8529125 C140.968924,77.8529125 141.879512,76.7238313 141.883306,75.6257563 C141.883306,75.3512375 141.837776,75.0888188 141.749753,74.8498438 C141.749753,74.8498438 141.687529,74.5443188 141.355165,74.163925 L141.353647,74.1677063 Z M160.331824,43.26355 L159.7278,43.26355 C152.543259,43.26355 146.697282,48.2563125 146.697282,54.392525 L146.697282,66.7269625 C146.697282,72.8639312 152.508353,77.8566937 159.652676,77.8566937 L160.487382,77.8566937 C165.999476,77.8566937 170.915135,74.8513562 172.719618,70.3773812 L172.781841,70.1936125 C172.825094,70.07715 172.913118,69.8343937 172.913118,69.5266 C172.913118,68.2787875 171.811306,67.2994437 170.405206,67.2994437 C169.307188,67.2994437 168.398118,67.9536 168.252424,68.7211937 C167.089906,71.4830187 163.968865,73.3373437 160.487382,73.3373437 L159.652676,73.3373437 C155.147541,73.3373437 151.483182,70.3728438 151.483182,66.7277187 L151.483182,62.7256437 L171.010747,62.7256437 C172.351588,62.7256437 173.438982,61.6971437 173.438982,60.4342062 L173.438982,54.3932812 C173.4405,48.0506125 167.803959,43.2658187 160.330306,43.2658187 L160.331824,43.26355 Z M168.656118,54.392525 L168.656118,58.204025 L151.483941,58.204025 L151.483941,54.392525 C151.483941,50.7474 155.181688,47.7829 159.729318,47.7829 L160.488141,47.7829 C164.991759,47.7829 168.656118,50.7458875 168.656118,54.392525 L168.656118,54.392525 Z M195.392506,43.26355 L194.633682,43.26355 C191.619635,43.26355 188.631388,44.1332375 186.385271,45.607925 L186.385271,45.5549875 C186.385271,44.2655813 185.365412,43.327075 183.957035,43.327075 C182.613918,43.327075 181.601647,44.2852438 181.601647,45.5557438 L181.601647,75.5637438 C181.601647,76.8493688 182.636682,77.8551813 183.957035,77.8551813 C185.342647,77.8551813 186.385271,76.8675187 186.385271,75.5637438 L186.385271,53.8215563 C186.385271,50.5469938 190.161176,47.7806313 194.633682,47.7806313 L195.392506,47.7806313 C199.937859,47.7806313 203.637124,50.7753813 203.637124,54.4537813 L203.637124,75.5622313 C203.637124,76.8478563 204.669124,77.8536688 205.991753,77.8536688 C207.161859,77.8536688 208.423024,76.9764188 208.423024,75.5622313 L208.423024,54.4552938 C208.420747,48.2842938 202.574012,43.260525 195.389471,43.260525 L195.392506,43.26355 Z M229.559294,73.3365875 C226.421559,73.3365875 223.963729,71.3552125 223.963729,68.8255562 L223.963729,47.9076812 L229.105518,47.9076812 C230.603435,47.9076812 231.498847,46.7581812 231.498847,45.6464937 C231.498847,44.537075 230.603435,43.387575 229.105518,43.387575 L223.963729,43.387575 L223.963729,32.201125 C223.963729,30.9344063 222.913518,29.9399375 221.5704,29.9399375 C220.229559,29.9399375 219.180106,30.9344063 219.180106,32.201125 L219.180106,43.3883313 L216.688129,43.3883313 C215.153029,43.3883313 214.237129,44.5378313 214.237129,45.6480063 C214.237129,45.7387563 214.240924,45.7614438 214.256859,45.9247938 C214.273553,46.2015813 214.467053,46.6054188 214.467053,46.6054188 C214.831288,47.3344438 215.605288,47.9076812 216.690406,47.9076812 L219.1839,47.9076812 L219.1839,68.8225312 C219.1839,73.8863812 223.742153,77.8536687 229.563088,77.8536687 C231.062524,77.8536687 231.957935,76.7041687 231.957935,75.5924812 C231.955659,74.4838187 231.060247,73.3343187 229.560053,73.3343187 L229.559294,73.3365875 Z" id="Shape" fill="#231F20" sketch:type="MSShapeGroup"></path>
            <path d="M0,0.130075 L0,121 L257.622865,121 L257.622865,0.130075 L0,0.130075 L0,0.130075 Z M5.45062941,115.91195 L5.45062941,5.218125 L252.170718,5.218125 L252.170718,115.91195 L5.45062941,115.91195 L5.45062941,115.91195 Z" id="Shape" fill="#231F20" sketch:type="MSShapeGroup"></path>
        </g>
    </g>
</svg>