<?xml version="1.0" encoding="UTF-8" standalone="no"?>
<svg width="391px" height="335px" viewBox="0 0 391 335" version="1.1" xmlns="http://www.w3.org/2000/svg" xmlns:xlink="http://www.w3.org/1999/xlink" xmlns:sketch="http://www.bohemiancoding.com/sketch/ns">
    <!-- Generator: Sketch 3.4.2 (15855) - http://www.bohemiancoding.com/sketch -->
    <title>Group</title>
    <desc>Created with Sketch.</desc>
    <defs>
        <path id="path-1" d="M0,0 L177.727,0 L177.727,200 L0,200 L0,0 Z"></path>
    </defs>
    <g id="Page-1" stroke="none" stroke-width="1" fill="none" fill-rule="evenodd" sketch:type="MSPage">
        <g id="Desktop-HD-Copy-26" sketch:type="MSArtboardGroup" transform="translate(-483.000000, -4373.000000)">
            <g id="Group" sketch:type="MSLayerGroup" transform="translate(483.000000, 4374.000000)">
                <g transform="translate(0.000000, 65.000000)">
                    <path d="M0.5,1.8 L390.5,2.2" id="Line" stroke="#FFCEBB" stroke-linecap="round" stroke-dasharray="6" sketch:type="MSShapeGroup"></path>
                    <path d="M351,2 L351,202" id="Line-Copy-12" stroke="#FFCEBB" stroke-linecap="round" sketch:type="MSShapeGroup"></path>
                    <path id="Line-Copy-12-decoration-1" d="M348,12.8 L351,2 L354,12.8" stroke="#FFCEBB" stroke-linecap="round"></path>
                    <path id="Line-Copy-12-decoration-2" d="M348,191.2 L351,202 L354,191.2" stroke="#FFCEBB" stroke-linecap="round"></path>
                    <g id="Rectangle-49-+-x" transform="translate(341.000000, 85.000000)" sketch:type="MSShapeGroup">
                        <rect id="Rectangle-49" fill="#FFFFFF" x="0" y="0" width="20" height="20"></rect>
                        <path d="M8.77852916,9.86897718 L7.30769231,6.89349112 C7.22316103,6.73006399 7.14003986,6.59199831 7.05832629,6.47928994 C6.97661272,6.36658157 6.87940321,6.31022823 6.76669484,6.31022823 C6.65398648,6.31022823 6.5497328,6.32713423 6.45393068,6.36094675 C6.35812857,6.39475926 6.23133356,6.4680186 6.07354184,6.58072697 L5.76077768,5.99746407 C5.79459019,5.94674531 5.8748937,5.8664418 6.00169062,5.75655114 C6.12848753,5.64666048 6.28909455,5.53536264 6.48351648,5.42265427 C6.67793842,5.3099459 6.90194294,5.21132756 7.15553677,5.12679628 C7.4091306,5.042265 7.68526196,5 7.98393914,5 C8.39532468,5 8.70526805,5.07607701 8.91377853,5.22823331 C9.12228901,5.3803896 9.27444303,5.59734996 9.37024514,5.87912088 L10.2155537,8.38968724 L12.3795435,5.06762468 L14.5688926,5.06762468 L10.8157227,9.97886729 L12.3203719,12.8613694 C12.3598199,12.9402653 12.4049025,13.0233864 12.4556213,13.1107354 C12.5063401,13.1980844 12.5584669,13.2783879 12.6120034,13.3516484 C12.6655399,13.4249088 12.7218932,13.4854886 12.7810651,13.5333897 C12.840237,13.5812907 12.8979992,13.6052409 12.9543533,13.6052409 C13.0388846,13.6052409 13.1445471,13.5798819 13.271344,13.5291631 C13.398141,13.4784444 13.5770628,13.3572847 13.808115,13.1656805 L14.1462384,13.7489434 C14.1124259,13.810933 14.0293047,13.9095513 13.8968724,14.0448014 C13.76444,14.1800514 13.5925623,14.3195259 13.3812342,14.4632291 C13.169906,14.6069322 12.9205424,14.7323184 12.6331361,14.8393914 C12.3457298,14.9464643 12.0329687,15 11.6948436,15 C11.4919686,15 11.318682,14.9788675 11.1749789,14.9366019 C11.0312757,14.8943362 10.9087072,14.8337564 10.8072697,14.7548605 C10.7058321,14.6759647 10.6227109,14.5829817 10.5579036,14.4759087 C10.4930963,14.3688358 10.4353342,14.2476761 10.3846154,14.112426 L9.40405748,11.4243449 L7.22316145,14.8309383 L5,14.8309383 L8.77852916,9.86897718 Z" id="x" fill="#000000"></path>
                    </g>
                    <path d="M1,202 L391,202" id="Line-Copy-11" stroke="#FFCEBB" stroke-linecap="round" stroke-dasharray="6" sketch:type="MSShapeGroup"></path>
                </g>
                <g>
                    <rect id="Rectangle-43" stroke="#FFCEBB" fill="#FFEDE6" sketch:type="MSShapeGroup" x="1" y="0" width="312" height="333"></rect>
                    <rect id="Rectangle-43-Copy-5" stroke="#FFCEBB" fill="#FFFFFF" sketch:type="MSShapeGroup" x="68" y="67" width="178" height="200"></rect>
                    <rect id="Rectangle-43-Copy" stroke="#FFCEBB" fill="#FFFFFF" sketch:type="MSShapeGroup" x="1" y="0" width="66.6600037" height="66.6600037"></rect>
                    <g id="Line-+-Line-Copy-15" stroke="#FFCEBB" stroke-linecap="square" sketch:type="MSShapeGroup">
                        <path d="M1.5,0.5 L68.092041,67.092041" id="Line"></path>
                        <path d="M0.5,0.5 L67.092041,67.092041" id="Line-Copy-15" transform="translate(34.000000, 34.000000) scale(-1, 1) translate(-34.000000, -34.000000) "></path>
                    </g>
                    <rect id="Rectangle-43-Copy-3" stroke="#FFCEBB" fill="#FFFFFF" sketch:type="MSShapeGroup" x="246" y="0" width="66.6600037" height="66.6600037"></rect>
                    <g id="Line-+-Line-Copy-16" transform="translate(245.000000, 0.000000)" stroke="#FFCEBB" stroke-linecap="square" sketch:type="MSShapeGroup">
                        <path d="M1.5,0.5 L68.092041,67.092041" id="Line"></path>
                        <path d="M0.5,0.5 L67.092041,67.092041" id="Line-Copy-15" transform="translate(34.000000, 34.000000) scale(-1, 1) translate(-34.000000, -34.000000) "></path>
                    </g>
                    <rect id="Rectangle-43-Copy-2" stroke="#FFCEBB" fill="#FFFFFF" sketch:type="MSShapeGroup" x="1" y="267" width="66.6600037" height="65.6600037"></rect>
                    <g id="Line-+-Line-Copy-17" transform="translate(0.000000, 267.000000)" stroke="#FFCEBB" stroke-linecap="square" sketch:type="MSShapeGroup">
                        <path d="M1.5,0.492647059 L68.092041,66.1053934" id="Line"></path>
                        <path d="M0.5,0.492647059 L67.092041,66.1053934" id="Line-Copy-15" transform="translate(34.000000, 33.500000) scale(-1, 1) translate(-34.000000, -33.500000) "></path>
                    </g>
                    <rect id="Rectangle-43-Copy-4" stroke="#FFCEBB" fill="#FFFFFF" sketch:type="MSShapeGroup" x="246" y="267" width="66.6600037" height="65.6600037"></rect>
                    <path d="M3,166 L66,166" id="Line-Copy-13" stroke="#FFCEBB" stroke-linecap="round" sketch:type="MSShapeGroup"></path>
                    <path id="Line-Copy-13-decoration-1" d="M13.8,169 L3,166 L13.8,163" stroke="#FFCEBB" stroke-linecap="round"></path>
                    <path id="Line-Copy-13-decoration-2" d="M55.2,169 L66,166 L55.2,163" stroke="#FFCEBB" stroke-linecap="round"></path>
                    <g id="Line-+-Line-Copy-18" transform="translate(245.000000, 267.000000)" stroke="#FFCEBB" stroke-linecap="square" sketch:type="MSShapeGroup">
                        <path d="M1.5,0.485294118 L68.092041,65.1187457" id="Line"></path>
                        <path d="M0.5,0.485294118 L67.092041,65.1187457" id="Line-Copy-15" transform="translate(34.000000, 33.000000) scale(-1, 1) translate(-34.000000, -33.000000) "></path>
                    </g>
                    <path d="M158,2 L158,65" id="Line-Copy-14" stroke="#FFCEBB" stroke-linecap="round" sketch:type="MSShapeGroup"></path>
                    <path id="Line-Copy-14-decoration-1" d="M155,12.8 L158,2 L161,12.8" stroke="#FFCEBB" stroke-linecap="round"></path>
                    <path id="Line-Copy-14-decoration-2" d="M155,54.2 L158,65 L161,54.2" stroke="#FFCEBB" stroke-linecap="round"></path>
                    <g id="Rectangle-49-+-x-Copy" transform="translate(22.000000, 154.000000)" sketch:type="MSShapeGroup">
                        <rect id="Rectangle-49" fill="#FFEDE6" x="0" y="0" width="24" height="24"></rect>
                        <path d="M5.61914062,11.9179688 L4.59960938,9.85546875 C4.54101533,9.74218693 4.48339872,9.64648477 4.42675781,9.56835938 C4.3701169,9.49023398 4.30273477,9.45117188 4.22460938,9.45117188 C4.14648398,9.45117188 4.07421908,9.46289051 4.0078125,9.48632812 C3.94140592,9.50976574 3.85351617,9.56054648 3.74414062,9.63867188 L3.52734375,9.234375 C3.55078137,9.19921857 3.60644487,9.14355507 3.69433594,9.06738281 C3.782227,8.99121056 3.89355401,8.91406289 4.02832031,8.8359375 C4.16308661,8.75781211 4.3183585,8.68945342 4.49414062,8.63085938 C4.66992275,8.57226533 4.86132709,8.54296875 5.06835938,8.54296875 C5.35351705,8.54296875 5.56835865,8.5957026 5.71289062,8.70117188 C5.8574226,8.80664115 5.96289029,8.95703027 6.02929688,9.15234375 L6.61523438,10.8925781 L8.11523438,8.58984375 L9.6328125,8.58984375 L7.03125,11.9941406 L8.07421875,13.9921875 C8.10156264,14.0468753 8.13281232,14.1044919 8.16796875,14.1650391 C8.20312518,14.2255862 8.23925763,14.2812497 8.27636719,14.3320312 C8.31347675,14.3828128 8.35253886,14.4248045 8.39355469,14.4580078 C8.43457052,14.4912111 8.47460918,14.5078125 8.51367188,14.5078125 C8.57226592,14.5078125 8.64550737,14.4902346 8.73339844,14.4550781 C8.8212895,14.4199217 8.9453117,14.3359382 9.10546875,14.203125 L9.33984375,14.6074219 C9.31640613,14.6503908 9.25878952,14.7187495 9.16699219,14.8125 C9.07519485,14.9062505 8.95605542,15.0029292 8.80957031,15.1025391 C8.66308521,15.2021489 8.49023537,15.2890621 8.29101562,15.3632812 C8.09179588,15.4375004 7.87500117,15.4746094 7.640625,15.4746094 C7.4999993,15.4746094 7.37988331,15.4599611 7.28027344,15.4306641 C7.18066356,15.401367 7.09570348,15.3593753 7.02539062,15.3046875 C6.95507777,15.2499997 6.89746116,15.1855472 6.85253906,15.1113281 C6.80761696,15.037109 6.7675783,14.9531255 6.73242188,14.859375 L6.05273438,12.9960938 L4.54101562,15.3574219 L3,15.3574219 L5.61914062,11.9179688 Z M8.58398438,17.4785156 L13.6289062,6 L14.8242188,6 L9.76757812,17.4785156 L8.58398438,17.4785156 Z M14.5664062,16.4414062 C14.6289066,16.4531251 14.6972653,16.4638671 14.7714844,16.4736328 C14.8457035,16.4833985 14.918945,16.4912109 14.9912109,16.4970703 C15.0634769,16.5029297 15.1328122,16.5078125 15.1992188,16.5117188 C15.2656253,16.515625 15.3242185,16.5175781 15.375,16.5175781 C15.7968771,16.5175781 16.1806623,16.4677739 16.5263672,16.3681641 C16.872072,16.2685542 17.166991,16.1279306 17.4111328,15.9462891 C17.6552747,15.7646475 17.8437493,15.5478528 17.9765625,15.2958984 C18.1093757,15.0439441 18.1757812,14.7675796 18.1757812,14.4667969 C18.1757812,14.2753897 18.1464847,14.0986336 18.0878906,13.9365234 C18.0292966,13.7744133 17.9355475,13.6357428 17.8066406,13.5205078 C17.6777337,13.4052729 17.5107432,13.3183597 17.3056641,13.2597656 C17.1005849,13.2011716 16.851564,13.1796874 16.5585938,13.1953125 L15.8203125,13.3828125 L15.9257812,12.5332031 C16.1875013,12.4824216 16.4580064,12.396485 16.7373047,12.2753906 C17.016603,12.1542963 17.2714832,12.0068368 17.5019531,11.8330078 C17.732423,11.6591788 17.9218743,11.4599621 18.0703125,11.2353516 C18.2187507,11.0107411 18.2929688,10.7656263 18.2929688,10.5 C18.2929688,10.3593743 18.2695315,10.2314459 18.2226562,10.1162109 C18.175781,10.000976 18.110352,9.90136761 18.0263672,9.81738281 C17.9423824,9.73339802 17.8388678,9.66796898 17.7158203,9.62109375 C17.5927728,9.57421852 17.4550789,9.55078125 17.3027344,9.55078125 C17.1074209,9.55078125 16.9228524,9.56933575 16.7490234,9.60644531 C16.5751944,9.64355487 16.4111336,9.69531217 16.2568359,9.76171875 C16.1025383,9.82812533 15.9541023,9.90624955 15.8115234,9.99609375 C15.6689446,10.0859379 15.5332038,10.1835932 15.4042969,10.2890625 L15.0996094,9.62695312 C15.1972661,9.52148385 15.3359366,9.40625063 15.515625,9.28125 C15.6953134,9.15624937 15.9042957,9.0400396 16.1425781,8.93261719 C16.3808606,8.82519478 16.6445298,8.73437537 16.9335938,8.66015625 C17.2226577,8.58593713 17.5273421,8.54882812 17.8476562,8.54882812 C18.1171888,8.54882812 18.3769519,8.58398402 18.6269531,8.65429688 C18.8769544,8.72460973 19.0966787,8.82910087 19.2861328,8.96777344 C19.4755869,9.10644601 19.6269526,9.28027239 19.7402344,9.48925781 C19.8535162,9.69824323 19.9101562,9.94335797 19.9101562,10.2246094 C19.9101562,10.4902357 19.8535162,10.7421863 19.7402344,10.9804688 C19.6269526,11.2187512 19.4746103,11.437499 19.2832031,11.6367188 C19.0917959,11.8359385 18.8691419,12.011718 18.6152344,12.1640625 C18.3613269,12.316407 18.0937514,12.4394527 17.8125,12.5332031 C18.1679705,12.5410157 18.472655,12.5937495 18.7265625,12.6914062 C18.98047,12.789063 19.1894523,12.9199211 19.3535156,13.0839844 C19.5175789,13.2480477 19.6376949,13.4384755 19.7138672,13.6552734 C19.7900394,13.8720714 19.828125,14.1015613 19.828125,14.34375 C19.828125,14.8203149 19.7128918,15.2441388 19.4824219,15.6152344 C19.251952,15.98633 18.9404317,16.2998034 18.5478516,16.5556641 C18.1552715,16.8115247 17.6992213,17.0068353 17.1796875,17.1416016 C16.6601537,17.2763679 16.1093779,17.34375 15.5273438,17.34375 C15.3554679,17.34375 15.1738291,17.3339845 14.9824219,17.3144531 C14.7910147,17.2949218 14.6171883,17.2695314 14.4609375,17.2382812 L14.5664062,16.4414062 Z" id="x/3" fill="#000000"></path>
                    </g>
                    <g id="Rectangle-49-+-x-Copy-2" transform="translate(145.000000, 21.000000)" sketch:type="MSShapeGroup">
                        <rect id="Rectangle-49" fill="#FFEDE6" x="0" y="0" width="24" height="24"></rect>
                        <path d="M5.61914062,11.9179688 L4.59960938,9.85546875 C4.54101533,9.74218693 4.48339872,9.64648477 4.42675781,9.56835938 C4.3701169,9.49023398 4.30273477,9.45117188 4.22460938,9.45117188 C4.14648398,9.45117188 4.07421908,9.46289051 4.0078125,9.48632812 C3.94140592,9.50976574 3.85351617,9.56054648 3.74414062,9.63867188 L3.52734375,9.234375 C3.55078137,9.19921857 3.60644487,9.14355507 3.69433594,9.06738281 C3.782227,8.99121056 3.89355401,8.91406289 4.02832031,8.8359375 C4.16308661,8.75781211 4.3183585,8.68945342 4.49414062,8.63085938 C4.66992275,8.57226533 4.86132709,8.54296875 5.06835938,8.54296875 C5.35351705,8.54296875 5.56835865,8.5957026 5.71289062,8.70117188 C5.8574226,8.80664115 5.96289029,8.95703027 6.02929688,9.15234375 L6.61523438,10.8925781 L8.11523438,8.58984375 L9.6328125,8.58984375 L7.03125,11.9941406 L8.07421875,13.9921875 C8.10156264,14.0468753 8.13281232,14.1044919 8.16796875,14.1650391 C8.20312518,14.2255862 8.23925763,14.2812497 8.27636719,14.3320312 C8.31347675,14.3828128 8.35253886,14.4248045 8.39355469,14.4580078 C8.43457052,14.4912111 8.47460918,14.5078125 8.51367188,14.5078125 C8.57226592,14.5078125 8.64550737,14.4902346 8.73339844,14.4550781 C8.8212895,14.4199217 8.9453117,14.3359382 9.10546875,14.203125 L9.33984375,14.6074219 C9.31640613,14.6503908 9.25878952,14.7187495 9.16699219,14.8125 C9.07519485,14.9062505 8.95605542,15.0029292 8.80957031,15.1025391 C8.66308521,15.2021489 8.49023537,15.2890621 8.29101562,15.3632812 C8.09179588,15.4375004 7.87500117,15.4746094 7.640625,15.4746094 C7.4999993,15.4746094 7.37988331,15.4599611 7.28027344,15.4306641 C7.18066356,15.401367 7.09570348,15.3593753 7.02539062,15.3046875 C6.95507777,15.2499997 6.89746116,15.1855472 6.85253906,15.1113281 C6.80761696,15.037109 6.7675783,14.9531255 6.73242188,14.859375 L6.05273438,12.9960938 L4.54101562,15.3574219 L3,15.3574219 L5.61914062,11.9179688 Z M8.58398438,17.4785156 L13.6289062,6 L14.8242188,6 L9.76757812,17.4785156 L8.58398438,17.4785156 Z M14.5664062,16.4414062 C14.6289066,16.4531251 14.6972653,16.4638671 14.7714844,16.4736328 C14.8457035,16.4833985 14.918945,16.4912109 14.9912109,16.4970703 C15.0634769,16.5029297 15.1328122,16.5078125 15.1992188,16.5117188 C15.2656253,16.515625 15.3242185,16.5175781 15.375,16.5175781 C15.7968771,16.5175781 16.1806623,16.4677739 16.5263672,16.3681641 C16.872072,16.2685542 17.166991,16.1279306 17.4111328,15.9462891 C17.6552747,15.7646475 17.8437493,15.5478528 17.9765625,15.2958984 C18.1093757,15.0439441 18.1757812,14.7675796 18.1757812,14.4667969 C18.1757812,14.2753897 18.1464847,14.0986336 18.0878906,13.9365234 C18.0292966,13.7744133 17.9355475,13.6357428 17.8066406,13.5205078 C17.6777337,13.4052729 17.5107432,13.3183597 17.3056641,13.2597656 C17.1005849,13.2011716 16.851564,13.1796874 16.5585938,13.1953125 L15.8203125,13.3828125 L15.9257812,12.5332031 C16.1875013,12.4824216 16.4580064,12.396485 16.7373047,12.2753906 C17.016603,12.1542963 17.2714832,12.0068368 17.5019531,11.8330078 C17.732423,11.6591788 17.9218743,11.4599621 18.0703125,11.2353516 C18.2187507,11.0107411 18.2929688,10.7656263 18.2929688,10.5 C18.2929688,10.3593743 18.2695315,10.2314459 18.2226562,10.1162109 C18.175781,10.000976 18.110352,9.90136761 18.0263672,9.81738281 C17.9423824,9.73339802 17.8388678,9.66796898 17.7158203,9.62109375 C17.5927728,9.57421852 17.4550789,9.55078125 17.3027344,9.55078125 C17.1074209,9.55078125 16.9228524,9.56933575 16.7490234,9.60644531 C16.5751944,9.64355487 16.4111336,9.69531217 16.2568359,9.76171875 C16.1025383,9.82812533 15.9541023,9.90624955 15.8115234,9.99609375 C15.6689446,10.0859379 15.5332038,10.1835932 15.4042969,10.2890625 L15.0996094,9.62695312 C15.1972661,9.52148385 15.3359366,9.40625063 15.515625,9.28125 C15.6953134,9.15624937 15.9042957,9.0400396 16.1425781,8.93261719 C16.3808606,8.82519478 16.6445298,8.73437537 16.9335938,8.66015625 C17.2226577,8.58593713 17.5273421,8.54882812 17.8476562,8.54882812 C18.1171888,8.54882812 18.3769519,8.58398402 18.6269531,8.65429688 C18.8769544,8.72460973 19.0966787,8.82910087 19.2861328,8.96777344 C19.4755869,9.10644601 19.6269526,9.28027239 19.7402344,9.48925781 C19.8535162,9.69824323 19.9101562,9.94335797 19.9101562,10.2246094 C19.9101562,10.4902357 19.8535162,10.7421863 19.7402344,10.9804688 C19.6269526,11.2187512 19.4746103,11.437499 19.2832031,11.6367188 C19.0917959,11.8359385 18.8691419,12.011718 18.6152344,12.1640625 C18.3613269,12.316407 18.0937514,12.4394527 17.8125,12.5332031 C18.1679705,12.5410157 18.472655,12.5937495 18.7265625,12.6914062 C18.98047,12.789063 19.1894523,12.9199211 19.3535156,13.0839844 C19.5175789,13.2480477 19.6376949,13.4384755 19.7138672,13.6552734 C19.7900394,13.8720714 19.828125,14.1015613 19.828125,14.34375 C19.828125,14.8203149 19.7128918,15.2441388 19.4824219,15.6152344 C19.251952,15.98633 18.9404317,16.2998034 18.5478516,16.5556641 C18.1552715,16.8115247 17.6992213,17.0068353 17.1796875,17.1416016 C16.6601537,17.2763679 16.1093779,17.34375 15.5273438,17.34375 C15.3554679,17.34375 15.1738291,17.3339845 14.9824219,17.3144531 C14.7910147,17.2949218 14.6171883,17.2695314 14.4609375,17.2382812 L14.5664062,16.4414062 Z" id="x/3" fill="#000000"></path>
                    </g>
                    <g id="Page-1" transform="translate(68.000000, 67.000000)">
                        <path d="M169.5881,141.8387 C167.7101,140.5717 165.1721,140.6127 163.3371,141.9427 C161.4811,143.2867 160.6581,145.7207 161.3101,147.9157 C161.9621,150.1127 163.9921,151.7047 166.2831,151.8097 C168.5481,151.9137 170.6881,150.5617 171.5681,148.4717 C172.5661,146.1017 171.7181,143.2757 169.5881,141.8387 C167.0911,140.1537 172.0851,143.5237 169.5881,141.8387" id="Fill-1" fill="#F97242" sketch:type="MSShapeGroup"></path>
                        <g id="Group-5">
                            <mask id="mask-2" sketch:name="Clip 4" fill="white">
                                <use xlink:href="#path-1"></use>
                            </mask>
                            <g id="Clip-4"></g>
                            <path d="M99.7482,192.7176 C100.9922,192.7216 102.2362,192.7016 103.4802,192.6566 C105.9612,192.5666 108.4392,192.3806 110.9052,192.0916 C112.8962,191.8616 106.8362,192.5676 110.9052,192.0916 C113.3752,191.8056 115.4482,194.1376 114.8632,196.5586 C114.5952,197.6646 113.8012,198.6036 112.7542,199.0496 C112.1002,199.3276 111.3822,199.3606 110.6832,199.4346 C109.8532,199.5226 109.0212,199.5996 108.1892,199.6666 C101.5982,200.1996 94.9452,200.0886 88.3722,199.3676 C82.4192,198.7136 76.5232,197.5316 70.7872,195.8046 C65.2022,194.1226 59.7752,191.9256 54.5932,189.2496 C49.3332,186.5336 44.3792,183.3116 39.6602,179.7436 C34.3082,175.6976 29.3682,171.1026 24.9342,166.0686 C20.5252,161.0636 16.6162,155.6166 13.2882,149.8356 C9.8982,143.9466 7.1102,137.7116 4.9882,131.2556 C2.8212,124.6636 1.3492,117.8486 0.5952,110.9506 C-0.1708,103.9316 -0.1968,96.8336 0.5142,89.8096 C1.2142,82.8926 2.6402,76.0466 4.7642,69.4266 C6.8452,62.9456 9.5922,56.6796 12.9482,50.7576 C16.2802,44.8786 20.2082,39.3416 24.6522,34.2506 C29.0542,29.2076 33.9632,24.6066 39.2792,20.5396 C44.6502,16.4306 50.4382,12.8656 56.5272,9.9236 C62.7182,6.9326 69.2152,4.5856 75.8882,2.9316 C82.6902,1.2456 89.6672,0.2856 96.6702,0.0546 C103.6872,-0.1764 110.7312,0.3226 117.6432,1.5556 C124.3682,2.7556 130.9712,4.6476 137.3082,7.1986 C143.5662,9.7176 149.5672,12.8726 155.1892,16.6006 C160.7942,20.3176 166.0232,24.5976 170.7742,29.3576 C172.7692,31.3556 174.5992,33.3936 175.8372,35.9586 C176.9122,38.1876 177.5442,40.6246 177.6932,43.0946 C177.9962,48.1316 176.2602,53.1756 172.9012,56.9436 C168.9822,61.3386 163.1492,63.7136 157.2752,63.2956 C154.4462,63.0946 151.6712,62.2596 149.2062,60.8586 C147.9332,60.1346 146.7442,59.2626 145.6702,58.2666 C144.4532,57.1376 143.3442,55.8946 142.1282,54.7616 C137.2352,50.2006 131.6052,46.4386 125.5142,43.6726 C119.2562,40.8306 112.5262,39.0596 105.6812,38.4386 C98.7002,37.8066 91.6142,38.3396 84.8162,40.0556 C78.1972,41.7256 71.8722,44.5106 66.1622,48.2526 C60.5592,51.9256 55.5622,56.5096 51.4142,61.7706 C47.2182,67.0926 43.9052,73.1016 41.6562,79.4966 C39.3642,86.0146 38.2012,92.9116 38.1812,99.8196 C38.1602,106.7786 39.3042,113.7306 41.5882,120.3056 C43.7952,126.6556 47.0562,132.6286 51.1852,137.9326 C55.3062,143.2276 60.2772,147.8256 65.8682,151.5306 C71.5772,155.3146 77.9012,158.1466 84.5332,159.8586 C91.3262,161.6126 98.4232,162.1906 105.4112,161.5856 C112.2252,160.9956 118.9332,159.2686 125.1802,156.4826 C125.8342,156.1906 126.4812,155.8096 127.1902,155.6706 C127.7852,155.5536 128.4072,155.5896 128.9852,155.7726 C130.1452,156.1396 131.0592,157.0836 131.3902,158.2536 C131.7152,159.3996 131.4412,160.6646 130.6772,161.5776 C130.2352,162.1046 129.6782,162.4206 129.0632,162.7056 C128.3122,163.0536 127.5552,163.3886 126.7932,163.7086 C120.4422,166.3796 113.6962,168.0816 106.8392,168.7546 C99.8642,169.4376 92.7892,169.0656 85.9262,167.6426 C86.7972,168.6866 87.6342,169.7586 88.4362,170.8566 C89.2522,171.9756 90.0312,173.1226 90.7712,174.2926 C90.8762,174.4576 91.1732,174.9306 91.1732,174.9306 C91.1732,174.9306 91.3082,174.9456 91.5222,174.9706 C91.8752,175.0106 92.2292,175.0486 92.5832,175.0846 C93.2912,175.1566 94.0002,175.2186 94.7112,175.2676 C97.6012,175.4686 100.5032,175.5056 103.3982,175.3776 C109.1082,175.1256 114.7862,174.2286 120.2932,172.6976 C125.6312,171.2126 130.7992,169.1336 135.6792,166.5116 C140.4552,163.9456 144.9502,160.8636 149.0682,157.3376 C150.0872,156.4656 151.0832,155.5666 152.0542,154.6416 C152.9102,153.8256 153.6932,152.8866 154.7642,152.3436 C156.6402,151.3926 158.9642,151.6226 160.6132,152.9286 C162.2702,154.2396 163.0302,156.4426 162.5332,158.4956 C162.2792,159.5506 161.7122,160.4466 160.9492,161.2056 C159.9982,162.1526 159.0242,163.0766 158.0302,163.9786 C154.0282,167.6076 149.6882,170.8656 145.0812,173.6876 C140.4032,176.5526 135.4522,178.9726 130.3142,180.8966 C125.0372,182.8726 119.5652,184.3266 114.0032,185.2336 C108.2762,186.1666 102.4552,186.5186 96.6572,186.2956 C97.1242,187.5826 97.5492,188.8856 97.9312,190.2016 C98.1002,190.7846 98.2602,191.3706 98.4112,191.9576 C98.4582,192.1396 98.6012,192.7026 98.6012,192.7026 L99.7482,192.7176 Z" id="Fill-3" fill="#F97242" sketch:type="MSShapeGroup" mask="url(#mask-2)"></path>
                        </g>
                        <path d="M155.4927,174.3094 C149.8787,178.5064 143.7987,182.0764 137.3837,184.9014 C134.1697,186.3174 130.8737,187.5464 127.5177,188.5834 C125.8307,189.1054 124.1277,189.5784 122.4137,190.0034 C121.6717,190.1864 120.8987,190.3034 120.2377,190.7084 C119.6717,191.0554 119.2067,191.5564 118.9037,192.1464 C118.2527,193.4084 118.4097,194.9804 119.3007,196.0884 C120.3137,197.3474 121.8327,197.6224 123.3387,197.2624 C126.7377,196.4504 130.0957,195.4624 133.3917,194.2994 C140.0107,191.9634 146.3757,188.9174 152.3507,185.2344 C153.8417,184.3154 155.3077,183.3574 156.7477,182.3624 C157.4807,181.8564 158.2057,181.3404 158.9247,180.8154 C159.5577,180.3534 160.2327,179.9234 160.6797,179.2644 C161.4577,178.1184 161.5107,176.5814 160.8097,175.3854 C160.1077,174.1894 158.7547,173.4854 157.3727,173.5974 C156.6937,173.6524 156.0387,173.9014 155.4927,174.3094 C145.2287,181.9834 157.1017,173.1074 155.4927,174.3094" id="Fill-6" fill="#F97242" sketch:type="MSShapeGroup"></path>
                        <path d="M167.551,163.5429 C166.602,164.5519 165.629,165.5389 164.636,166.5039 C163.816,167.3009 162.906,168.0049 162.571,169.1459 C161.961,171.2229 163.358,173.4379 165.504,173.7679 C166.755,173.9599 167.862,173.4759 168.757,172.6279 C169.75,171.6879 170.724,170.7279 171.678,169.7489 C172.491,168.9139 173.418,168.1179 173.72,166.9469 C173.963,166.0019 173.813,164.9789 173.306,164.1449 C172.077,162.1239 169.17,161.8219 167.551,163.5429 C166.272,164.9019 168.926,162.0809 167.551,163.5429" id="Fill-8" fill="#F97242" sketch:type="MSShapeGroup"></path>
                        <path d="M144.826,142.5892 C142.559,144.9732 140.16,147.1792 137.524,149.1502 C136.8,149.6912 136.067,150.2182 135.332,150.7442 C134.721,151.1812 134.235,151.7322 133.955,152.4372 C133.386,153.8702 133.8,155.5482 134.973,156.5502 C136.354,157.7292 138.222,157.6152 139.646,156.5992 C141.027,155.6142 142.397,154.6122 143.72,153.5502 C144.965,152.5512 146.164,151.4972 147.319,150.3952 C147.99,149.7552 148.647,149.1002 149.294,148.4352 C149.897,147.8152 150.539,147.2262 150.856,146.4012 C151.473,144.7972 150.85,142.9302 149.396,142.0152 C147.949,141.1042 146.003,141.3512 144.826,142.5892 C141.334,146.2622 146.209,141.1342 144.826,142.5892" id="Fill-10" fill="#F97242" sketch:type="MSShapeGroup"></path>
                        <path d="M100.1067,76.3624 C95.2187,76.3624 90.3937,77.8964 86.4107,80.7324 C82.5307,83.4964 79.5257,87.4264 77.8937,91.9024 C76.1997,96.5504 76.0167,101.7124 77.3677,106.4704 C78.6697,111.0514 81.3807,115.1834 85.0487,118.2174 C88.7837,121.3074 93.4407,123.1934 98.2737,123.5644 C103.1847,123.9404 108.1547,122.7694 112.3657,120.2104 C116.4157,117.7484 119.6847,114.0684 121.6427,109.7514 C123.6837,105.2524 124.2517,100.1374 123.2747,95.2954 C122.3247,90.5904 119.9117,86.2354 116.4457,82.9184 C112.9667,79.5904 108.4937,77.3724 103.7337,76.6394 C102.5347,76.4544 101.3207,76.3624 100.1067,76.3624" id="Fill-12" fill="#F97242" sketch:type="MSShapeGroup"></path>
                    </g>
                </g>
            </g>
        </g>
    </g>
</svg>