<?xml version="1.0" encoding="UTF-8" standalone="no"?>
<svg width="458px" height="168px" viewBox="0 0 458 168" version="1.1" xmlns="http://www.w3.org/2000/svg" xmlns:xlink="http://www.w3.org/1999/xlink" xmlns:sketch="http://www.bohemiancoding.com/sketch/ns">
    <!-- Generator: Sketch 3.4.2 (15855) - http://www.bohemiancoding.com/sketch -->
    <title>Group + Group</title>
    <desc>Created with Sketch.</desc>
    <defs>
        <path id="path-1" d="M0,0.433041027 L320.441874,0.433041027 L320.441874,99.2170373 L0,99.2170373"></path>
    </defs>
    <g id="Page-1" stroke="none" stroke-width="1" fill="none" fill-rule="evenodd" sketch:type="MSPage">
        <g id="Desktop-HD-Copy-26" sketch:type="MSArtboardGroup" transform="translate(-446.000000, -4788.000000)">
            <g id="Group-+-Group" sketch:type="MSLayerGroup" transform="translate(446.000000, 4788.000000)">
                <g id="Group" transform="translate(0.000000, 32.000000)">
                    <path d="M0.5,1.8 L457.5,2.2" id="Line" stroke="#FFCEBB" stroke-linecap="round" stroke-dasharray="6" sketch:type="MSShapeGroup"></path>
                    <path d="M424,4 L424,101" id="Line-Copy-12" stroke="#FFCEBB" stroke-linecap="round" sketch:type="MSShapeGroup"></path>
                    <path id="Line-Copy-12-decoration-1" d="M421,14.8 L424,4 L427,14.8" stroke="#FFCEBB" stroke-linecap="round"></path>
                    <path id="Line-Copy-12-decoration-2" d="M421,90.2 L424,101 L427,90.2" stroke="#FFCEBB" stroke-linecap="round"></path>
                    <g id="Rectangle-49-+-x" transform="translate(414.000000, 39.000000)" sketch:type="MSShapeGroup">
                        <rect id="Rectangle-49" fill="#FFFFFF" x="0" y="0" width="20" height="20"></rect>
                        <path d="M8.77852916,9.86897718 L7.30769231,6.89349112 C7.22316103,6.73006399 7.14003986,6.59199831 7.05832629,6.47928994 C6.97661272,6.36658157 6.87940321,6.31022823 6.76669484,6.31022823 C6.65398648,6.31022823 6.5497328,6.32713423 6.45393068,6.36094675 C6.35812857,6.39475926 6.23133356,6.4680186 6.07354184,6.58072697 L5.76077768,5.99746407 C5.79459019,5.94674531 5.8748937,5.8664418 6.00169062,5.75655114 C6.12848753,5.64666048 6.28909455,5.53536264 6.48351648,5.42265427 C6.67793842,5.3099459 6.90194294,5.21132756 7.15553677,5.12679628 C7.4091306,5.042265 7.68526196,5 7.98393914,5 C8.39532468,5 8.70526805,5.07607701 8.91377853,5.22823331 C9.12228901,5.3803896 9.27444303,5.59734996 9.37024514,5.87912088 L10.2155537,8.38968724 L12.3795435,5.06762468 L14.5688926,5.06762468 L10.8157227,9.97886729 L12.3203719,12.8613694 C12.3598199,12.9402653 12.4049025,13.0233864 12.4556213,13.1107354 C12.5063401,13.1980844 12.5584669,13.2783879 12.6120034,13.3516484 C12.6655399,13.4249088 12.7218932,13.4854886 12.7810651,13.5333897 C12.840237,13.5812907 12.8979992,13.6052409 12.9543533,13.6052409 C13.0388846,13.6052409 13.1445471,13.5798819 13.271344,13.5291631 C13.398141,13.4784444 13.5770628,13.3572847 13.808115,13.1656805 L14.1462384,13.7489434 C14.1124259,13.810933 14.0293047,13.9095513 13.8968724,14.0448014 C13.76444,14.1800514 13.5925623,14.3195259 13.3812342,14.4632291 C13.169906,14.6069322 12.9205424,14.7323184 12.6331361,14.8393914 C12.3457298,14.9464643 12.0329687,15 11.6948436,15 C11.4919686,15 11.318682,14.9788675 11.1749789,14.9366019 C11.0312757,14.8943362 10.9087072,14.8337564 10.8072697,14.7548605 C10.7058321,14.6759647 10.6227109,14.5829817 10.5579036,14.4759087 C10.4930963,14.3688358 10.4353342,14.2476761 10.3846154,14.112426 L9.40405748,11.4243449 L7.22316145,14.8309383 L5,14.8309383 L8.77852916,9.86897718 Z" id="x" fill="#000000"></path>
                    </g>
                    <path d="M1,102 L458,102" id="Line-Copy-11" stroke="#FFCEBB" stroke-linecap="round" stroke-dasharray="6" sketch:type="MSShapeGroup"></path>
                </g>
                <g id="Group">
                    <rect id="Rectangle-47" stroke="#FFCEBB" fill="#FFEDE6" sketch:type="MSShapeGroup" x="0.700012207" y="0.700195312" width="387.700012" height="166.699997"></rect>
                    <rect id="Rectangle-47-Copy-5" stroke="#FFCEBB" fill="#FFFFFF" sketch:type="MSShapeGroup" x="34" y="34" width="321" height="100"></rect>
                    <rect id="Rectangle-47-Copy" stroke="#FFCEBB" fill="#FFFFFF" sketch:type="MSShapeGroup" x="0.700012207" y="0.700195312" width="33.3300018" height="33.3300018"></rect>
                    <rect id="Rectangle-47-Copy-3" stroke="#FFCEBB" fill="#FFFFFF" sketch:type="MSShapeGroup" x="355" y="0.700195312" width="33.3300018" height="33.3300018"></rect>
                    <rect id="Rectangle-47-Copy-2" stroke="#FFCEBB" fill="#FFFFFF" sketch:type="MSShapeGroup" x="0.600006104" y="134" width="33.3300018" height="33.3300018"></rect>
                    <rect id="Rectangle-47-Copy-4" stroke="#FFCEBB" fill="#FFFFFF" sketch:type="MSShapeGroup" x="355" y="134" width="33.3300018" height="33.3300018"></rect>
                    <g id="Page-1" transform="translate(34.000000, 34.000000)">
                        <mask id="mask-2" sketch:name="Clip 2" fill="white">
                            <use xlink:href="#path-1"></use>
                        </mask>
                        <g id="Clip-2"></g>
                        <path d="M302.621507,32.6969746 C303.693233,32.6969746 304.343517,33.4411024 304.611707,34.4425744 C305.180188,36.5633386 302.407162,41.7308926 292.716069,47.6673786 C292.930414,40.7862637 297.096165,32.6969746 302.621507,32.6969746 M272.952824,32.6969746 C274.570249,32.6969746 274.675869,34.2865142 274.752495,34.8559787 C275.163582,37.8572941 272.383307,43.1747072 263.294865,46.2245976 C264.264078,39.8664391 268.454682,32.6969746 272.952824,32.6969746 M233.75044,7.67361102 C236.818578,7.67361102 234.301317,18.1172377 224.534633,32.7434826 C226.771278,13.3599875 230.001988,7.67361102 233.75044,7.67361102 M200.04544,32.6969746 C200.954595,32.6969746 201.182401,33.4183652 201.302517,33.8276355 C201.698072,35.1639649 200.287743,40.428669 189.751695,47.7882994 C190.354346,40.766627 194.638143,32.6969746 200.04544,32.6969746 M156.387369,91.9822549 C155.293898,91.9822549 154.551456,91.2825681 154.551456,89.9193674 C154.551456,83.6304541 164.388553,75.0347448 164.496243,75.008907 C163.154256,83.4650924 159.71852,91.9822549 156.387369,91.9822549 M318.819582,50.4816286 C317.158665,49.3819731 314.911665,49.8325838 313.800591,51.4851676 C313.617311,51.7559474 309.231001,58.1368431 301.588095,58.1368431 C298.582085,58.1368431 296.307127,57.2097839 294.828456,55.3794363 C294.728014,55.2564485 294.632749,55.1282931 294.53852,54.9960038 C294.572691,54.9794676 294.604791,54.9608644 294.636891,54.9422612 C312.602536,44.6278234 312.494846,35.8646852 311.61572,32.5760539 C310.561598,28.6404447 307.032669,26.0980081 302.621507,26.0980081 C292.35572,26.0980081 285.458362,37.5389728 285.458362,48.2234075 C285.458362,49.5814407 285.581585,50.8815972 285.800072,52.1269778 C282.161382,54.8130723 276.505569,58.1368431 271.540424,58.1368431 C268.647282,58.1368431 266.472765,57.2790291 265.079004,55.5851049 C264.580936,54.9815346 264.200914,54.3076856 263.916156,53.6090323 C277.676701,49.6269151 282.890362,40.8627435 281.934611,33.877244 C281.309178,29.2967241 277.884833,26.0980081 273.611391,26.0980081 C264.038343,26.0980081 257.121311,36.131331 256.001953,46.0861071 C254.170182,45.8959411 252.511336,45.3585155 251.037843,44.45316 C251.281182,42.8739555 251.403369,41.3226558 251.403369,39.8488694 C251.403369,36.604679 250.784149,33.7780269 249.611982,31.6706984 C248.005946,28.7882368 245.404811,27.2007642 242.285933,27.2007642 C240.614662,27.2007642 239.113211,28.1205888 238.268256,29.6625869 C236.49033,32.9067773 237.624185,39.2039587 240.902527,44.3105355 C241.538314,45.2985719 242.230017,46.2111619 242.975565,47.0452051 C241.18832,52.8049609 237.481288,58.2226245 232.633153,58.2226245 C230.458636,58.2226245 228.827749,57.5529095 227.503365,56.1142624 C225.594969,54.0420733 224.379311,50.3576073 223.980649,45.6995741 C237.479217,28.8678171 244.03383,12.4029565 240.304017,4.60615096 C239.035549,1.95416223 236.660149,0.432834325 233.785646,0.432834325 C224.455936,0.432834325 218.898495,12.4897714 216.798533,37.2909302 C216.670133,38.808124 216.574869,40.6395052 216.592472,42.632114 C211.605582,49.3685374 203.433543,58.1368431 196.05572,58.1368431 C193.950582,58.1368431 192.414959,57.4268212 191.361872,55.9664704 C191.271785,55.8424491 191.18584,55.7122267 191.103001,55.5768368 C191.188946,55.5303288 191.274891,55.4796868 191.35773,55.4259443 C209.464201,43.7400376 209.20533,34.9965362 208.254756,31.7781835 C207.218236,28.2756154 204.072436,26.0980081 200.04544,26.0980081 C189.508356,26.0980081 182.429788,38.1766489 182.429788,49.4584529 C182.429788,50.4795615 182.493988,51.4686314 182.614104,52.4225619 C179.291236,54.8110053 176.533743,56.9400376 173.889117,58.9998246 C174.284672,55.9147949 174.873862,52.0153586 175.530359,46.1636204 L175.530359,46.1615534 C175.686717,44.9802505 175.818224,44.0118509 175.883459,43.536436 C176.47472,39.2608018 169.446891,38.3761165 168.685811,43.1478359 C167.90402,48.0601127 165.784385,58.2226245 160.008456,58.2226245 C156.514733,58.2226245 154.680891,54.3500595 155.02053,48.7163921 C155.55484,39.8571375 160.343953,32.632897 166.281417,32.632897 C168.318214,32.632897 169.377514,34.8084372 169.377514,34.8084372 C171.248633,38.2097213 177.070124,35.3386282 175.841004,31.7420106 C175.293233,30.1349013 173.332027,26.1445161 166.567211,26.1445161 C152.663769,26.1445161 148.367546,40.1888945 147.750398,49.4584529 C147.64892,50.9839148 147.676878,52.4577012 147.817704,53.8601754 C145.880314,56.21658 143.573256,58.2226245 141.327291,58.2226245 C139.125853,58.2226245 137.732091,55.7742374 138.554265,50.1219668 C139.338127,44.7301409 139.892111,40.2736423 140.264885,37.6650611 C141.945475,25.8706358 127.164978,26.1951582 127.164978,26.1951582 C127.164978,26.1951582 127.003443,19.3161102 121.308282,19.3161102 C118.395465,19.3161102 115.806756,21.5763984 115.806756,25.8396304 C115.806756,29.7804071 119.042643,31.7182399 119.042643,31.7182399 L119.061282,31.7213404 C118.344727,37.8252552 115.47333,58.2226245 109.097856,58.2226245 C106.23992,58.2226245 106.042143,55.1386282 106.293765,52.9692891 C106.642724,49.9566051 107.188424,44.8551957 107.370669,43.536436 C107.960895,39.2608018 100.933065,38.3761165 100.17302,43.1478359 C99.3901945,48.0601127 97.270559,58.2226245 91.49463,58.2226245 C87.9998719,58.2226245 86.16603,53.8415722 86.4466461,48.5686001 C86.9271106,39.5326151 91.8301268,32.632897 97.7675913,32.632897 C99.8033526,32.632897 100.863688,34.8084372 100.863688,34.8084372 C102.410701,38.1776824 108.526269,35.7551331 107.328214,31.7420106 C106.799082,29.9695396 104.818201,26.1445161 98.0523494,26.1445161 C84.1499429,26.1445161 79.8537203,40.1888945 79.2365719,49.4584529 C79.1413074,50.8929659 79.1640881,52.2789039 79.2831687,53.6048982 C77.2919332,56.3002944 74.8978945,58.2226245 72.6374332,58.2226245 C70.5809623,58.2226245 68.9997784,57.1643094 69.3787655,52.5000752 C69.5558332,50.3214344 72.0989816,35.4264767 71.9291623,32.7093768 C71.6485461,28.191901 69.5982881,26.2003257 64.5503042,26.2003257 C59.2434494,26.2003257 55.2319848,28.9236267 53.5482881,30.6630254 C53.5482881,30.6630254 56.0614074,11.8675979 56.5366945,8.25857814 C57.0357977,4.4769621 49.7522042,4.4387222 49.2769171,8.22757282 C49.0708558,9.86982148 47.1262171,24.7616787 45.3244752,38.5094394 C41.2643429,47.4865142 33.0353526,61.3231569 20.8539203,61.3231569 C-2.22494419,61.3231569 8.42500742,11.1121015 30.0138106,11.1121015 C35.0731848,11.1121015 32.813759,19.1776198 29.4204784,24.0960977 C26.9974461,27.6090009 33.102659,31.6489947 36.47523,25.9688193 C45.7945848,10.2728907 37.9404397,4.40358284 30.5584752,4.40358284 C-1.52599258,4.40358284 -13.4340571,68.2611149 19.9872203,68.2611149 C30.9902719,68.2611149 38.3535977,62.0889884 43.0981848,55.451782 C42.6011526,59.2220294 42.2604784,61.7903038 42.191101,62.2708863 C41.6246913,66.211663 49.0025139,65.8881741 49.3908203,62.5943752 C49.638301,60.4922142 50.7338429,51.6825681 51.6719913,44.9595803 C52.2083719,41.1159536 56.9136106,34.0436392 62.3084816,34.0436392 C63.5810913,34.0436392 64.4115494,35.3034889 64.2479429,36.3835077 C64.0574139,37.6371563 61.7638171,54.3541935 61.9191397,56.8459881 C62.3540429,63.8211525 67.3502526,65.4365299 72.10623,65.4365299 C75.8753913,65.4365299 78.8886494,63.6609583 81.4266203,60.8653116 C83.1092816,63.6754275 85.718701,65.4210272 89.2279558,65.4210272 C97.2664171,65.4210272 100.037372,59.6437018 100.037372,59.6437018 C100.037372,59.6437018 100.998301,65.3652177 107.922582,65.3652177 C121.955459,65.3652177 125.227588,40.9340557 125.928611,32.7879236 C126.748714,32.8199624 131.708682,33.1238146 132.525678,35.8946571 C133.308504,38.5507798 130.821272,47.0710429 130.616246,55.8424491 C130.508556,60.4632759 132.20882,65.4210272 139.53694,65.4210272 C144.012301,65.4210272 147.52052,63.3746759 150.062633,61.0523771 C151.747365,63.7488068 154.313295,65.4210272 157.740746,65.4210272 C161.698365,65.4210272 164.374056,64.15601 166.076391,62.8723896 C165.963524,63.627886 165.855833,64.3678797 165.750214,65.1213091 C165.745036,65.1678171 165.737788,65.2153586 165.731575,65.2629001 C165.750214,65.1213091 147.225407,78.4629001 147.225407,91.075866 C147.225407,95.9943439 149.51072,99.2168306 155.348778,99.2168306 C166.966907,99.2168306 170.552788,83.7493079 172.267549,70.9451425 C172.349353,70.3405387 172.427014,69.7669402 172.501569,69.2171124 C174.318843,67.8425431 176.009788,66.5248168 177.65103,65.2453304 C180.062672,63.3684748 182.396653,61.5515628 185.078556,59.5775572 C185.211098,59.7832258 185.336391,59.9950955 185.478253,60.1914626 C187.920959,63.5803445 191.578288,65.3714187 196.05572,65.3714187 C204.460743,65.3714187 212.240333,58.9357469 217.844372,52.6395991 C218.68622,55.7483996 220.038562,58.697006 222.167517,61.0100031 C224.846314,63.919336 228.46533,65.4572001 232.633153,65.4572001 C240.664365,65.4572001 246.234233,59.0618353 249.118056,51.6308926 C251.314317,52.6489007 253.72803,53.2349013 256.305349,53.3713248 C256.867617,55.9881741 257.932095,58.2991043 259.478072,60.1780269 C261.428924,62.5478672 265.103856,65.3714187 271.540424,65.3714187 C277.933501,65.3714187 284.281017,61.9608331 288.54514,59.0421986 C288.753272,59.3419167 288.960369,59.6406013 289.18714,59.9227498 C291.197014,62.4083433 294.979636,65.3714187 301.588095,65.3714187 C313.206224,65.3714187 319.583769,55.8755215 319.849888,55.4703852 C320.942324,53.8074663 320.479462,51.5823176 318.819582,50.4816286" id="Fill-1" fill="#000000" sketch:type="MSShapeGroup" mask="url(#mask-2)"></path>
                    </g>
                    <g id="Line-Copy-15-+-Line-Copy-16" transform="translate(0.000000, 1.000000)" stroke="#FFCEBB" stroke-linecap="square" sketch:type="MSShapeGroup">
                        <path d="M0.946401427,-1.11022302e-16 L33.567869,32.674675" id="Line-Copy-15" transform="translate(17.257135, 16.337337) scale(-1, 1) translate(-17.257135, -16.337337) "></path>
                        <path d="M0.946401427,-1.11022302e-16 L33.567869,32.674675" id="Line-Copy-16"></path>
                    </g>
                    <g id="Line-Copy-15-+-Line-Copy-16-Copy" transform="translate(0.000000, 134.000000)" stroke="#FFCEBB" stroke-linecap="square" sketch:type="MSShapeGroup">
                        <path d="M0.946401427,-1.11022302e-16 L33.567869,32.674675" id="Line-Copy-15" transform="translate(17.257135, 16.337337) scale(-1, 1) translate(-17.257135, -16.337337) "></path>
                        <path d="M0.946401427,-1.11022302e-16 L33.567869,32.674675" id="Line-Copy-16"></path>
                    </g>
                    <g id="Line-Copy-15-+-Line-Copy-16-Copy-Copy-Copy" transform="translate(355.000000, 1.000000)" stroke="#FFCEBB" stroke-linecap="square" sketch:type="MSShapeGroup">
                        <path d="M0.946401427,-1.11022302e-16 L33.567869,32.674675" id="Line-Copy-15" transform="translate(17.257135, 16.337337) scale(-1, 1) translate(-17.257135, -16.337337) "></path>
                        <path d="M0.946401427,-1.11022302e-16 L33.567869,32.674675" id="Line-Copy-16"></path>
                    </g>
                    <g id="Line-Copy-15-+-Line-Copy-16-Copy-Copy" transform="translate(355.000000, 134.000000)" stroke="#FFCEBB" stroke-linecap="square" sketch:type="MSShapeGroup">
                        <path d="M0.946401427,-1.11022302e-16 L33.567869,32.674675" id="Line-Copy-15" transform="translate(17.257135, 16.337337) scale(-1, 1) translate(-17.257135, -16.337337) "></path>
                        <path d="M0.946401427,-1.11022302e-16 L33.567869,32.674675" id="Line-Copy-16"></path>
                    </g>
                    <path d="M2,84 L32,84" id="Line-Copy-13" stroke="#FFCEBB" stroke-linecap="round" sketch:type="MSShapeGroup"></path>
                    <path id="Line-Copy-13-decoration-1" d="M12.8,87 L2,84 L12.8,81" stroke="#FFCEBB" stroke-linecap="round"></path>
                    <path id="Line-Copy-13-decoration-2" d="M21.2,87 L32,84 L21.2,81" stroke="#FFCEBB" stroke-linecap="round"></path>
                    <path d="M194,2 L194,31" id="Line-Copy-14" stroke="#FFCEBB" stroke-linecap="round" sketch:type="MSShapeGroup"></path>
                    <path id="Line-Copy-14-decoration-1" d="M191,12.8 L194,2 L197,12.8" stroke="#FFCEBB" stroke-linecap="round"></path>
                    <path id="Line-Copy-14-decoration-2" d="M191,20.2 L194,31 L197,20.2" stroke="#FFCEBB" stroke-linecap="round"></path>
                    <g id="Rectangle-49-+-x-Copy" transform="translate(5.000000, 72.000000)" sketch:type="MSShapeGroup">
                        <rect id="Rectangle-49" fill="#FFEDE6" x="0" y="0" width="24" height="24"></rect>
                        <path d="M5.61914062,11.9179688 L4.59960938,9.85546875 C4.54101533,9.74218693 4.48339872,9.64648477 4.42675781,9.56835938 C4.3701169,9.49023398 4.30273477,9.45117188 4.22460938,9.45117188 C4.14648398,9.45117188 4.07421908,9.46289051 4.0078125,9.48632812 C3.94140592,9.50976574 3.85351617,9.56054648 3.74414062,9.63867188 L3.52734375,9.234375 C3.55078137,9.19921857 3.60644487,9.14355507 3.69433594,9.06738281 C3.782227,8.99121056 3.89355401,8.91406289 4.02832031,8.8359375 C4.16308661,8.75781211 4.3183585,8.68945342 4.49414062,8.63085938 C4.66992275,8.57226533 4.86132709,8.54296875 5.06835938,8.54296875 C5.35351705,8.54296875 5.56835865,8.5957026 5.71289062,8.70117188 C5.8574226,8.80664115 5.96289029,8.95703027 6.02929688,9.15234375 L6.61523438,10.8925781 L8.11523438,8.58984375 L9.6328125,8.58984375 L7.03125,11.9941406 L8.07421875,13.9921875 C8.10156264,14.0468753 8.13281232,14.1044919 8.16796875,14.1650391 C8.20312518,14.2255862 8.23925763,14.2812497 8.27636719,14.3320312 C8.31347675,14.3828128 8.35253886,14.4248045 8.39355469,14.4580078 C8.43457052,14.4912111 8.47460918,14.5078125 8.51367188,14.5078125 C8.57226592,14.5078125 8.64550737,14.4902346 8.73339844,14.4550781 C8.8212895,14.4199217 8.9453117,14.3359382 9.10546875,14.203125 L9.33984375,14.6074219 C9.31640613,14.6503908 9.25878952,14.7187495 9.16699219,14.8125 C9.07519485,14.9062505 8.95605542,15.0029292 8.80957031,15.1025391 C8.66308521,15.2021489 8.49023537,15.2890621 8.29101562,15.3632812 C8.09179588,15.4375004 7.87500117,15.4746094 7.640625,15.4746094 C7.4999993,15.4746094 7.37988331,15.4599611 7.28027344,15.4306641 C7.18066356,15.401367 7.09570348,15.3593753 7.02539062,15.3046875 C6.95507777,15.2499997 6.89746116,15.1855472 6.85253906,15.1113281 C6.80761696,15.037109 6.7675783,14.9531255 6.73242188,14.859375 L6.05273438,12.9960938 L4.54101562,15.3574219 L3,15.3574219 L5.61914062,11.9179688 Z M8.58398438,17.4785156 L13.6289062,6 L14.8242188,6 L9.76757812,17.4785156 L8.58398438,17.4785156 Z M14.5664062,16.4414062 C14.6289066,16.4531251 14.6972653,16.4638671 14.7714844,16.4736328 C14.8457035,16.4833985 14.918945,16.4912109 14.9912109,16.4970703 C15.0634769,16.5029297 15.1328122,16.5078125 15.1992188,16.5117188 C15.2656253,16.515625 15.3242185,16.5175781 15.375,16.5175781 C15.7968771,16.5175781 16.1806623,16.4677739 16.5263672,16.3681641 C16.872072,16.2685542 17.166991,16.1279306 17.4111328,15.9462891 C17.6552747,15.7646475 17.8437493,15.5478528 17.9765625,15.2958984 C18.1093757,15.0439441 18.1757812,14.7675796 18.1757812,14.4667969 C18.1757812,14.2753897 18.1464847,14.0986336 18.0878906,13.9365234 C18.0292966,13.7744133 17.9355475,13.6357428 17.8066406,13.5205078 C17.6777337,13.4052729 17.5107432,13.3183597 17.3056641,13.2597656 C17.1005849,13.2011716 16.851564,13.1796874 16.5585938,13.1953125 L15.8203125,13.3828125 L15.9257812,12.5332031 C16.1875013,12.4824216 16.4580064,12.396485 16.7373047,12.2753906 C17.016603,12.1542963 17.2714832,12.0068368 17.5019531,11.8330078 C17.732423,11.6591788 17.9218743,11.4599621 18.0703125,11.2353516 C18.2187507,11.0107411 18.2929688,10.7656263 18.2929688,10.5 C18.2929688,10.3593743 18.2695315,10.2314459 18.2226562,10.1162109 C18.175781,10.000976 18.110352,9.90136761 18.0263672,9.81738281 C17.9423824,9.73339802 17.8388678,9.66796898 17.7158203,9.62109375 C17.5927728,9.57421852 17.4550789,9.55078125 17.3027344,9.55078125 C17.1074209,9.55078125 16.9228524,9.56933575 16.7490234,9.60644531 C16.5751944,9.64355487 16.4111336,9.69531217 16.2568359,9.76171875 C16.1025383,9.82812533 15.9541023,9.90624955 15.8115234,9.99609375 C15.6689446,10.0859379 15.5332038,10.1835932 15.4042969,10.2890625 L15.0996094,9.62695312 C15.1972661,9.52148385 15.3359366,9.40625063 15.515625,9.28125 C15.6953134,9.15624937 15.9042957,9.0400396 16.1425781,8.93261719 C16.3808606,8.82519478 16.6445298,8.73437537 16.9335938,8.66015625 C17.2226577,8.58593713 17.5273421,8.54882812 17.8476562,8.54882812 C18.1171888,8.54882812 18.3769519,8.58398402 18.6269531,8.65429688 C18.8769544,8.72460973 19.0966787,8.82910087 19.2861328,8.96777344 C19.4755869,9.10644601 19.6269526,9.28027239 19.7402344,9.48925781 C19.8535162,9.69824323 19.9101562,9.94335797 19.9101562,10.2246094 C19.9101562,10.4902357 19.8535162,10.7421863 19.7402344,10.9804688 C19.6269526,11.2187512 19.4746103,11.437499 19.2832031,11.6367188 C19.0917959,11.8359385 18.8691419,12.011718 18.6152344,12.1640625 C18.3613269,12.316407 18.0937514,12.4394527 17.8125,12.5332031 C18.1679705,12.5410157 18.472655,12.5937495 18.7265625,12.6914062 C18.98047,12.789063 19.1894523,12.9199211 19.3535156,13.0839844 C19.5175789,13.2480477 19.6376949,13.4384755 19.7138672,13.6552734 C19.7900394,13.8720714 19.828125,14.1015613 19.828125,14.34375 C19.828125,14.8203149 19.7128918,15.2441388 19.4824219,15.6152344 C19.251952,15.98633 18.9404317,16.2998034 18.5478516,16.5556641 C18.1552715,16.8115247 17.6992213,17.0068353 17.1796875,17.1416016 C16.6601537,17.2763679 16.1093779,17.34375 15.5273438,17.34375 C15.3554679,17.34375 15.1738291,17.3339845 14.9824219,17.3144531 C14.7910147,17.2949218 14.6171883,17.2695314 14.4609375,17.2382812 L14.5664062,16.4414062 Z" id="x/3" fill="#000000"></path>
                    </g>
                    <g id="Rectangle-49-+-x-Copy-2" transform="translate(182.000000, 5.000000)" sketch:type="MSShapeGroup">
                        <rect id="Rectangle-49" fill="#FFEDE6" x="0" y="0" width="24" height="24"></rect>
                        <path d="M5.61914062,11.9179688 L4.59960938,9.85546875 C4.54101533,9.74218693 4.48339872,9.64648477 4.42675781,9.56835938 C4.3701169,9.49023398 4.30273477,9.45117188 4.22460938,9.45117188 C4.14648398,9.45117188 4.07421908,9.46289051 4.0078125,9.48632812 C3.94140592,9.50976574 3.85351617,9.56054648 3.74414062,9.63867188 L3.52734375,9.234375 C3.55078137,9.19921857 3.60644487,9.14355507 3.69433594,9.06738281 C3.782227,8.99121056 3.89355401,8.91406289 4.02832031,8.8359375 C4.16308661,8.75781211 4.3183585,8.68945342 4.49414062,8.63085938 C4.66992275,8.57226533 4.86132709,8.54296875 5.06835938,8.54296875 C5.35351705,8.54296875 5.56835865,8.5957026 5.71289062,8.70117188 C5.8574226,8.80664115 5.96289029,8.95703027 6.02929688,9.15234375 L6.61523438,10.8925781 L8.11523438,8.58984375 L9.6328125,8.58984375 L7.03125,11.9941406 L8.07421875,13.9921875 C8.10156264,14.0468753 8.13281232,14.1044919 8.16796875,14.1650391 C8.20312518,14.2255862 8.23925763,14.2812497 8.27636719,14.3320312 C8.31347675,14.3828128 8.35253886,14.4248045 8.39355469,14.4580078 C8.43457052,14.4912111 8.47460918,14.5078125 8.51367188,14.5078125 C8.57226592,14.5078125 8.64550737,14.4902346 8.73339844,14.4550781 C8.8212895,14.4199217 8.9453117,14.3359382 9.10546875,14.203125 L9.33984375,14.6074219 C9.31640613,14.6503908 9.25878952,14.7187495 9.16699219,14.8125 C9.07519485,14.9062505 8.95605542,15.0029292 8.80957031,15.1025391 C8.66308521,15.2021489 8.49023537,15.2890621 8.29101562,15.3632812 C8.09179588,15.4375004 7.87500117,15.4746094 7.640625,15.4746094 C7.4999993,15.4746094 7.37988331,15.4599611 7.28027344,15.4306641 C7.18066356,15.401367 7.09570348,15.3593753 7.02539062,15.3046875 C6.95507777,15.2499997 6.89746116,15.1855472 6.85253906,15.1113281 C6.80761696,15.037109 6.7675783,14.9531255 6.73242188,14.859375 L6.05273438,12.9960938 L4.54101562,15.3574219 L3,15.3574219 L5.61914062,11.9179688 Z M8.58398438,17.4785156 L13.6289062,6 L14.8242188,6 L9.76757812,17.4785156 L8.58398438,17.4785156 Z M14.5664062,16.4414062 C14.6289066,16.4531251 14.6972653,16.4638671 14.7714844,16.4736328 C14.8457035,16.4833985 14.918945,16.4912109 14.9912109,16.4970703 C15.0634769,16.5029297 15.1328122,16.5078125 15.1992188,16.5117188 C15.2656253,16.515625 15.3242185,16.5175781 15.375,16.5175781 C15.7968771,16.5175781 16.1806623,16.4677739 16.5263672,16.3681641 C16.872072,16.2685542 17.166991,16.1279306 17.4111328,15.9462891 C17.6552747,15.7646475 17.8437493,15.5478528 17.9765625,15.2958984 C18.1093757,15.0439441 18.1757812,14.7675796 18.1757812,14.4667969 C18.1757812,14.2753897 18.1464847,14.0986336 18.0878906,13.9365234 C18.0292966,13.7744133 17.9355475,13.6357428 17.8066406,13.5205078 C17.6777337,13.4052729 17.5107432,13.3183597 17.3056641,13.2597656 C17.1005849,13.2011716 16.851564,13.1796874 16.5585938,13.1953125 L15.8203125,13.3828125 L15.9257812,12.5332031 C16.1875013,12.4824216 16.4580064,12.396485 16.7373047,12.2753906 C17.016603,12.1542963 17.2714832,12.0068368 17.5019531,11.8330078 C17.732423,11.6591788 17.9218743,11.4599621 18.0703125,11.2353516 C18.2187507,11.0107411 18.2929688,10.7656263 18.2929688,10.5 C18.2929688,10.3593743 18.2695315,10.2314459 18.2226562,10.1162109 C18.175781,10.000976 18.110352,9.90136761 18.0263672,9.81738281 C17.9423824,9.73339802 17.8388678,9.66796898 17.7158203,9.62109375 C17.5927728,9.57421852 17.4550789,9.55078125 17.3027344,9.55078125 C17.1074209,9.55078125 16.9228524,9.56933575 16.7490234,9.60644531 C16.5751944,9.64355487 16.4111336,9.69531217 16.2568359,9.76171875 C16.1025383,9.82812533 15.9541023,9.90624955 15.8115234,9.99609375 C15.6689446,10.0859379 15.5332038,10.1835932 15.4042969,10.2890625 L15.0996094,9.62695312 C15.1972661,9.52148385 15.3359366,9.40625063 15.515625,9.28125 C15.6953134,9.15624937 15.9042957,9.0400396 16.1425781,8.93261719 C16.3808606,8.82519478 16.6445298,8.73437537 16.9335938,8.66015625 C17.2226577,8.58593713 17.5273421,8.54882812 17.8476562,8.54882812 C18.1171888,8.54882812 18.3769519,8.58398402 18.6269531,8.65429688 C18.8769544,8.72460973 19.0966787,8.82910087 19.2861328,8.96777344 C19.4755869,9.10644601 19.6269526,9.28027239 19.7402344,9.48925781 C19.8535162,9.69824323 19.9101562,9.94335797 19.9101562,10.2246094 C19.9101562,10.4902357 19.8535162,10.7421863 19.7402344,10.9804688 C19.6269526,11.2187512 19.4746103,11.437499 19.2832031,11.6367188 C19.0917959,11.8359385 18.8691419,12.011718 18.6152344,12.1640625 C18.3613269,12.316407 18.0937514,12.4394527 17.8125,12.5332031 C18.1679705,12.5410157 18.472655,12.5937495 18.7265625,12.6914062 C18.98047,12.789063 19.1894523,12.9199211 19.3535156,13.0839844 C19.5175789,13.2480477 19.6376949,13.4384755 19.7138672,13.6552734 C19.7900394,13.8720714 19.828125,14.1015613 19.828125,14.34375 C19.828125,14.8203149 19.7128918,15.2441388 19.4824219,15.6152344 C19.251952,15.98633 18.9404317,16.2998034 18.5478516,16.5556641 C18.1552715,16.8115247 17.6992213,17.0068353 17.1796875,17.1416016 C16.6601537,17.2763679 16.1093779,17.34375 15.5273438,17.34375 C15.3554679,17.34375 15.1738291,17.3339845 14.9824219,17.3144531 C14.7910147,17.2949218 14.6171883,17.2695314 14.4609375,17.2382812 L14.5664062,16.4414062 Z" id="x/3" fill="#000000"></path>
                    </g>
                </g>
            </g>
        </g>
    </g>
</svg>