<?xml version="1.0" encoding="UTF-8" standalone="no"?>
<svg width="234px" height="147px" viewBox="0 0 234 147" version="1.1" xmlns="http://www.w3.org/2000/svg" xmlns:xlink="http://www.w3.org/1999/xlink" xmlns:sketch="http://www.bohemiancoding.com/sketch/ns">
    <!-- Generator: Sketch 3.4.2 (15855) - http://www.bohemiancoding.com/sketch -->
    <title>Page 1</title>
    <desc>Created with Sketch.</desc>
    <defs>
        <path id="path-1" d="M0,0.0342857143 L233.974286,0.0342857143 L233.974286,147 L0,147"></path>
    </defs>
    <g id="Page-1" stroke="none" stroke-width="1" fill="none" fill-rule="evenodd" sketch:type="MSPage">
        <g id="Desktop-HD-Copy-26" sketch:type="MSArtboardGroup" transform="translate(-522.000000, -3139.000000)">
            <g id="Page-1" sketch:type="MSLayerGroup" transform="translate(522.000000, 3139.000000)">
                <path d="M37.719,143.374286 L129.291857,118.56 C131.576143,117.942857 132.926143,115.585714 132.309,113.301429 L103.286143,6.18857143 C102.664714,3.90428571 100.311857,2.55428571 98.0275714,3.17571429 L6.45471429,27.99 C4.16614286,28.6071429 2.81614286,30.96 3.43757143,33.2442857 L32.4604286,140.357143 C33.0818571,142.641429 35.4347143,143.991429 37.719,143.374286" id="Fill-1" fill="#FFFFFF" sketch:type="MSShapeGroup"></path>
                <path d="M28.8265714,110.558571 L120.399429,85.7442857 C122.683714,85.1271429 124.033714,82.77 123.416571,80.4857143 L103.282286,6.18857143 C102.665143,3.90428571 100.312286,2.55428571 98.028,3.17571429 L6.45085714,27.99 C4.16657143,28.6071429 2.81657143,30.96 3.438,33.2442857 L23.568,107.541429 C24.1894286,109.825714 26.5422857,111.175714 28.8265714,110.558571" id="Fill-3" fill="#9C6DE7" sketch:type="MSShapeGroup"></path>
                <path d="M78.7504286,97.0307143 L120.399,85.7464286 C122.687571,85.125 124.037571,82.7721429 123.416143,80.4878571 L103.286143,6.19071429 C102.664714,3.90642857 100.311857,2.55642857 98.0275714,3.17357143 L56.3747143,14.4621429 C54.0904286,15.0792857 52.7404286,17.4321429 53.3618571,19.7164286 L73.4918571,94.0135714 C74.1132857,96.2978571 76.4661429,97.6478571 78.7504286,97.0307143" id="Fill-5" fill="#8F65D3" sketch:type="MSShapeGroup"></path>
                <g id="Group-9">
                    <mask id="mask-2" sketch:name="Clip 8" fill="white">
                        <use xlink:href="#path-1"></use>
                    </mask>
                    <g id="Clip-8"></g>
                    <path d="M38.6155714,146.683714 C38.6155714,146.683714 37.8912857,146.979429 36.3741429,147.000857 C34.9127143,146.983714 32.4612857,146.533714 30.4727143,144.249429 C29.9755714,143.623714 29.5984286,143.148 29.1698571,142.110857 C28.977,141.605143 29.0327143,141.806571 28.8398571,141.176571 L28.6212857,140.486571 C28.3255714,139.543714 28.0041429,138.510857 27.657,137.400857 C26.997,135.163714 26.2384286,132.596571 25.3898571,129.720857 C23.8427143,123.926571 22.2098571,116.825143 20.9841429,108.502286 C19.887,104.473714 18.3998571,100.273714 17.0027143,95.7951429 C15.5627143,91.3337143 13.8141429,86.7051429 12.867,81.6351429 C12.4684286,76.4151429 10.647,71.3622857 9.06985714,66.048 C7.36842857,60.768 5.61985714,55.308 4.08128571,49.6208571 C3.37414286,46.7622857 2.65414286,43.8651429 1.92557143,40.9294286 C1.56128571,39.4637143 1.197,37.9894286 0.828428571,36.5022857 L0.275571429,34.2694286 C-0.0415714286,33.2108571 -0.118714286,31.6165714 0.228428571,30.3437143 C0.849857143,27.6951429 3.16414286,25.4837143 5.70557143,24.9051429 C7.22271429,24.5322857 8.74842857,24.1594286 10.2784286,23.7822857 C13.3427143,23.028 16.437,22.2694286 19.5612857,21.5022857 C22.6684286,20.688 25.8527143,20.058 28.9684286,19.0808571 C32.0841429,18.0951429 35.127,16.7665714 38.3455714,16.0037143 C39.9484286,15.5922857 41.6455714,15.5237143 43.2741429,15.1637143 C44.9112857,14.8551429 46.497,14.3365714 48.1212857,13.9337143 C51.3527143,13.0722857 54.597,12.2065714 57.8584286,11.3365714 C64.3555714,9.52371429 70.9898571,8.00228571 77.4955714,5.92371429 C84.0398571,3.96514286 90.5584286,1.818 97.2398571,0.270857143 C100.077,-0.504857143 103.278429,0.660857143 104.941286,3.03514286 C105.155571,3.32657143 105.339857,3.63514286 105.507,3.95657143 C105.661286,4.23514286 105.905571,4.85657143 105.939857,5.00228571 C106.158429,5.688 106.184143,5.90657143 106.312714,6.38228571 L106.942714,8.87228571 C107.804143,12.1894286 108.545571,15.528 109.591286,18.7808571 C111.485571,25.3422857 113.877,31.7408571 115.891286,38.1822857 C116.907,41.4051429 117.944143,44.6022857 118.844143,47.8251429 L120.237,52.6251429 C120.819857,54.1937143 120.532714,55.9894286 121.004143,57.5708571 L122.277,62.3494286 L123.258429,67.1751429 C123.995571,70.3551429 124.835571,73.4837143 125.499857,76.6294286 C126.194143,79.7708571 126.888429,82.8822857 127.569857,85.968 C128.195571,89.0665714 128.791286,92.1437143 129.519857,95.1522857 C131.024143,101.152286 132.969857,106.890857 134.688429,112.530857 C135.352714,114.618 134.808429,117.283714 133.252714,118.968 C132.472714,119.825143 131.521286,120.498 130.364143,120.888 L128.169857,121.513714 C125.414143,122.280857 122.701286,123.039429 120.031286,123.780857 C114.691286,125.272286 109.535571,126.712286 104.585571,128.096571 C94.6941429,130.895143 85.5784286,133.286571 77.6884286,136.106571 C73.7455714,137.533714 69.9698571,138.528 66.4427143,139.338 C62.9241429,140.173714 59.6927143,140.936571 56.7741429,141.630857 C50.9027143,142.895143 46.4112857,144.339429 43.3255714,145.239429 C40.2527143,146.182286 38.6155714,146.683714 38.6155714,146.683714 M36.8241429,140.066571 C36.8241429,140.066571 38.4612857,139.565143 41.5341429,138.626571 C44.6198571,137.726571 49.1155714,136.299429 54.9827143,135.018 C60.8027143,133.569429 67.9812857,132.219429 75.9184286,129.579429 C83.8598571,126.952286 92.9455714,124.453714 102.837,121.642286 C107.782714,120.240857 112.934143,118.779429 118.265571,117.262286 C120.931286,116.508 123.639857,115.736571 126.395571,114.956571 L128.255571,114.416571 C128.148429,114.446571 128.165571,114.425143 128.165571,114.425143 C128.144143,114.339429 128.157,114.549429 128.088429,114.318 C125.234143,102.888 123.147,90.5837143 119.247,78.3265714 C117.528429,72.1337143 115.977,65.7865714 115.089857,59.178 C113.482714,52.7622857 111.485571,46.368 109.677,39.8665714 C108.871286,36.5922857 107.469857,33.4594286 106.441286,30.2194286 C105.554143,26.9408571 104.662714,23.6537143 103.767,20.3622857 C102.824143,17.0794286 102.112714,13.728 101.311286,10.398 L100.724143,7.89942857 L100.458429,6.78942857 C100.372714,6.528 100.441286,6.75085714 100.411286,6.63942857 C100.381286,6.57514286 100.355571,6.51085714 100.312714,6.45085714 C100.008429,5.95371429 99.3612857,5.64942857 98.7355714,5.78657143 C92.0284286,7.248 85.5355714,9.48085714 78.9827143,11.4008571 C72.4812857,13.5051429 65.7827143,14.7994286 59.2555714,16.5051429 C52.6984286,18.1037143 46.1327143,19.458 39.7941429,21.3437143 C33.4641429,23.268 27.2112857,25.1751429 21.0227143,26.8937143 C17.9327143,27.7722857 14.8684286,28.6465714 11.8298571,29.5122857 C10.3127143,29.9451429 8.80414286,30.3737143 7.29985714,30.8022857 C6.717,30.9737143 6.41271429,31.3208571 6.27557143,31.8137143 C6.24128571,32.0965714 6.19842857,32.178 6.327,32.6322857 L6.93128571,34.848 C7.33414286,36.3265714 7.73271429,37.7922857 8.127,39.2494286 C8.91985714,42.168 9.70414286,45.048 10.4755714,47.8894286 C11.8298571,53.6237143 13.1498571,59.2037143 14.4227143,64.5994286 C15.7341429,69.9865714 16.6855714,75.2751429 18.5584286,80.0922857 C21.6355714,89.9108571 23.9327143,99.048 26.2641429,107.070857 C28.6298571,115.085143 30.2841429,122.182286 32.0241429,127.925143 C32.8984286,130.792286 33.6827143,133.355143 34.3598571,135.583714 C34.7027143,136.698 35.0155714,137.726571 35.307,138.673714 L35.517,139.363714 C35.4784286,139.235143 35.6712857,139.818 35.6712857,139.758 C35.6284286,139.625143 35.7698571,139.860857 35.8127143,139.878 C36.4598571,140.370857 36.837,140.015143 36.8241429,140.066571" id="Fill-7" fill="#000000" sketch:type="MSShapeGroup" mask="url(#mask-2)"></path>
                </g>
                <path d="M124.239,85.7824286 C124.239,85.7824286 118.050429,87.5267143 108.767571,90.1367143 C106.461857,90.8352857 103.933286,91.4952857 101.250429,92.151 C98.5632857,92.7938571 95.7561429,93.5867143 92.8761429,94.4738571 C87.0818571,96.1281429 80.9575714,98.121 74.709,99.6381429 C68.4861429,101.245286 62.2632857,102.856714 56.4261429,104.361 C50.6232857,105.989571 45.2061429,107.511 40.5647143,108.809571 C31.2047143,111.132429 24.9604286,112.683857 24.9604286,112.683857 L24.9261429,112.692429 C24.009,112.919571 23.079,112.362429 22.8518571,111.441 C22.6247143,110.536714 23.169,109.619571 24.0647143,109.375286 C24.0647143,109.375286 30.2704286,107.691 39.579,105.171 C44.1861429,103.748143 49.6118571,102.265286 55.4404286,100.731 C58.359,99.9724286 61.3718571,99.1838571 64.4318571,98.3824286 C67.509,97.6452857 70.5604286,96.6081429 73.6418571,95.691 C79.749,93.6552857 86.1175714,92.5838571 91.8732857,90.7752857 C97.6761429,89.1467143 103.063286,87.5224286 107.747571,86.3695714 C117.103286,84.0295714 123.343286,82.4738571 123.343286,82.4738571 C124.260429,82.2338571 125.194714,82.7824286 125.434714,83.6995714 C125.666143,84.5995714 125.126143,85.521 124.239,85.7824286" id="Fill-10" fill="#000000" sketch:type="MSShapeGroup"></path>
                <path d="M196.598571,143.374286 L105.025714,118.56 C102.741429,117.942857 101.391429,115.585714 102.008571,113.301429 L131.031429,6.18857143 C131.652857,3.90428571 134.005714,2.55428571 136.29,3.17571429 L227.862857,27.99 C230.151429,28.6071429 231.501429,30.96 230.88,33.2442857 L201.857143,140.357143 C201.235714,142.641429 198.882857,143.991429 196.598571,143.374286" id="Fill-12" fill="#FFFFFF" sketch:type="MSShapeGroup"></path>
                <path d="M205.490571,110.558571 L113.917714,85.7442857 C111.633429,85.1271429 110.283429,82.77 110.900571,80.4857143 L131.030571,6.18857143 C131.652,3.90428571 134.004857,2.55428571 136.289143,3.17571429 L227.866286,27.99 C230.150571,28.6071429 231.500571,30.96 230.879143,33.2442857 L210.749143,107.541429 C210.127714,109.825714 207.774857,111.175714 205.490571,110.558571" id="Fill-14" fill="#00BCB4" sketch:type="MSShapeGroup"></path>
                <path d="M155.567143,97.0307143 L113.918571,85.7464286 C111.63,85.125 110.28,82.7721429 110.901429,80.4878571 L131.031429,6.19071429 C131.652857,3.90642857 134.005714,2.55642857 136.29,3.17357143 L177.942857,14.4621429 C180.227143,15.0792857 181.577143,17.4321429 180.955714,19.7164286 L160.825714,94.0135714 C160.204286,96.2978571 157.851429,97.6478571 155.567143,97.0307143" id="Fill-16" fill="#13CEC0" sketch:type="MSShapeGroup"></path>
                <path d="M197.495143,140.065286 C197.469429,140.052429 197.953714,140.151 198.223714,139.649571 C198.223714,139.649571 198.322286,139.409571 198.219429,139.606714 C198.193714,139.696714 198.386571,139.053857 198.313714,139.233857 L198.476571,138.526714 C198.699429,137.566714 198.943714,136.516714 199.205143,135.381 C199.762286,133.118143 200.405143,130.516714 201.125143,127.606714 C202.715143,121.825286 204.888,114.869571 208.029429,107.065286 C209.122286,103.036714 209.958,98.6567143 211.008,94.0881429 C212.023714,89.511 212.850857,84.6295714 214.590857,79.7781429 C216.883714,75.0724286 217.860857,69.7881429 219.185143,64.4052857 C220.380857,58.9881429 221.628,53.391 223.170857,47.7081429 C224.002286,44.8795714 224.842286,42.0167143 225.695143,39.1152857 C226.123714,37.6667143 226.552286,36.2095714 226.980857,34.7395714 L227.632286,32.5324286 C227.765143,32.121 227.730857,32.1252857 227.730857,31.8895714 C227.645143,31.5081429 227.460857,31.1995714 226.955143,31.0281429 C225.455143,30.5824286 223.950857,30.1367143 222.438,29.6867143 C219.412286,28.791 216.356571,27.8867143 213.275143,26.9738571 C210.180857,26.1038571 207.112286,25.0367143 203.932286,24.3081429 C200.748,23.5881429 197.448,23.2024286 194.285143,22.2295714 C192.695143,21.7795714 191.190857,20.9824286 189.609429,20.4681429 C188.036571,19.911 186.403714,19.5552857 184.800857,19.0838571 C181.578,18.1967143 178.338,17.3052857 175.085143,16.4095714 C168.562286,14.6952857 162.069429,12.6552857 155.396571,11.1681429 C148.762286,9.55242857 142.050857,8.11671429 135.502286,6.07671429 C135.018,5.901 134.418,6.07242857 134.070857,6.501 L133.950857,6.66385714 C133.916571,6.76671429 133.972286,6.53528571 133.878,6.79671429 C133.813714,6.921 133.655143,7.53814286 133.548,7.88528571 L132.836571,10.3538571 C131.906571,13.6495714 130.856571,16.9067143 130.119429,20.2452857 C128.443714,26.8624286 127.273714,33.591 125.760857,40.1695714 C125.010857,43.4652857 124.290857,46.7481429 123.442286,49.9838571 L122.225143,54.8352857 C121.933714,56.4767143 120.780857,57.8824286 120.386571,59.4895714 L119.075143,64.2552857 L117.485143,68.9138571 C116.516571,72.0338571 115.663714,75.1581429 114.643714,78.2095714 C113.662286,81.2695714 112.685143,84.3081429 111.720857,87.3167143 C110.692286,90.3081429 109.650857,93.2652857 108.763714,96.2267143 C107.032286,102.162429 105.819429,108.102429 104.452286,113.836714 C104.250857,114.578143 104.435143,115.118143 104.838,115.593857 C105.039429,115.808143 105.313714,115.988143 105.528,116.048143 L107.482286,116.575286 C110.250857,117.303857 112.976571,118.023857 115.655143,118.731 C121.016571,120.136714 126.193714,121.499571 131.165143,122.802429 C141.116571,125.382429 150.193714,127.919571 158.426571,129.471 C162.549429,130.229571 166.316571,131.275286 169.766571,132.355286 C173.225143,133.413857 176.400857,134.382429 179.268,135.261 C184.976571,137.129571 189.579429,138.153857 192.699429,138.933857 C195.828,139.671 197.495143,140.065286 197.495143,140.065286 M195.703714,146.682429 C195.703714,146.682429 194.032286,146.288143 190.908,145.546714 C187.788,144.766714 183.189429,143.725286 177.476571,141.869571 C171.720857,140.185286 164.846571,137.725286 156.660857,135.998143 C148.475143,134.253857 139.372286,131.823857 129.416571,129.256714 C124.440857,127.971 119.255143,126.633857 113.889429,125.245286 C111.206571,124.555286 108.476571,123.848143 105.708,123.136714 C104.923714,122.922429 104.520857,122.853857 103.419429,122.519571 C101.940857,122.035286 100.745143,121.212429 99.7551429,120.136714 C97.7708571,118.062429 97.0551429,114.646714 97.8522857,112.049571 C101.160857,100.739571 105.570857,89.0652857 108.390857,76.5167143 C110.036571,70.3024286 111.900857,64.041 114.472286,57.8867143 C116.323714,51.5395714 117.828,45.0124286 119.546571,38.4852857 C120.506571,35.2538571 120.879429,31.8424286 121.625143,28.5295714 C122.512286,25.251 123.403714,21.9595714 124.295143,18.6681429 C125.135143,15.3595714 126.215143,12.1067143 127.205143,8.82814286 L127.959429,6.37242857 L128.392286,5.00957143 C128.439429,4.86385714 128.696571,4.251 128.859429,3.981 C129.030857,3.66814286 129.228,3.36814286 129.442286,3.08528571 C131.152286,0.783857143 134.302286,-0.253285714 136.998,0.561 C143.520857,2.68671429 150.258,4.03671429 156.883714,5.68671429 C163.560857,7.15242857 169.989429,9.41957143 176.486571,11.241 C182.953714,13.1738571 189.305143,15.321 195.729429,16.8938571 C202.166571,18.4281429 208.522286,19.9367143 214.736571,21.5781429 C217.848,22.3795714 220.933714,23.1724286 223.989429,23.9567143 C225.519429,24.351 227.040857,24.741 228.553714,25.131 C231.018,25.7138571 233.208,27.8824286 233.773714,30.4238571 C234.090857,31.6452857 234.005143,33.1538571 233.688,34.1738571 L233.088,36.3938571 C232.689429,37.8724286 232.290857,39.3381429 231.896571,40.7952857 C231.112286,43.7138571 230.332286,46.5981429 229.565143,49.4395714 C227.838,55.0752857 226.158,60.5524286 224.533714,65.8538571 C222.943714,71.1681429 221.096571,76.2124286 220.282286,81.3167143 C217.980857,91.3452857 215.349429,100.396714 213.313714,108.496714 C211.312286,116.609571 209.152286,123.569571 207.755143,129.402429 C207.060857,132.321 206.443714,134.926714 205.908,137.198143 C205.638,138.329571 205.389429,139.379571 205.162286,140.339571 L204.995143,141.042429 C204.832286,141.629571 204.883714,141.483857 204.720857,141.959571 C204.356571,142.932429 204.018,143.412429 203.563714,144.025286 C201.759429,146.283857 199.385143,146.836714 197.940857,146.909571 C196.440857,146.948143 195.703714,146.682429 195.703714,146.682429" id="Fill-18" fill="#000000" sketch:type="MSShapeGroup"></path>
                <path d="M110.974714,82.4734286 C110.974714,82.4734286 117.197571,84.0934286 126.527571,86.5234286 C128.871857,87.0891429 131.387571,87.7962857 134.036143,88.5848571 C136.680429,89.3862857 139.500429,90.1148571 142.436143,90.8091429 C148.273286,92.3048571 154.560429,93.672 160.723286,95.5191429 C166.907571,97.272 173.091857,99.0291429 178.890429,100.670571 C184.723286,102.196286 190.166143,103.619143 194.829,104.840571 C204.081857,107.562 210.253286,109.374857 210.253286,109.374857 L210.287571,109.383429 C211.196143,109.653429 211.714714,110.604857 211.449,111.513429 C211.183286,112.409143 210.253286,112.927714 209.353286,112.683429 C209.353286,112.683429 203.151857,111.003429 193.843286,108.479143 C189.146143,107.377714 183.711857,105.920571 177.909,104.304857 C175.007571,103.486286 172.007571,102.646286 168.960429,101.793429 C165.930429,100.876286 162.776143,100.229143 159.651857,99.4662857 C153.351857,98.1377143 147.313286,95.8491429 141.433286,94.5034286 C135.600429,92.982 130.131857,91.662 125.507571,90.2948571 C116.250429,87.5862857 110.079,85.782 110.079,85.782 C109.166143,85.5248571 108.634714,84.5777143 108.891857,83.6691429 C109.144714,82.7734286 110.079,82.2505714 110.974714,82.4734286" id="Fill-20" fill="#000000" sketch:type="MSShapeGroup"></path>
                <path d="M166.810286,132.992143 L71.9331429,133.103571 C69.5674286,133.107857 67.6474286,131.187857 67.6431429,128.822143 L67.5102857,17.8478571 C67.5102857,15.4821429 69.426,13.5578571 71.7917143,13.5578571 L166.668857,13.4464286 C169.038857,13.4421429 170.958857,15.3578571 170.958857,17.7278571 L171.091714,128.702143 C171.091714,131.067857 169.176,132.987857 166.810286,132.992143" id="Fill-22" fill="#FFFFFF" sketch:type="MSShapeGroup"></path>
                <path d="M166.770429,98.9927143 L71.8932857,99.1041429 C69.5275714,99.1084286 67.6075714,97.1884286 67.6032857,94.8227143 L67.5132857,17.847 C67.509,15.4812857 69.4247143,13.5612857 71.7947143,13.557 L166.671857,13.4455714 C169.037571,13.4412857 170.957571,15.357 170.961857,17.727 L171.051857,94.7027143 C171.051857,97.0684286 169.136143,98.9884286 166.770429,98.9927143" id="Fill-24" fill="#FF6C36" sketch:type="MSShapeGroup"></path>
                <path d="M115.046143,99.0535714 L71.8932857,99.105 C69.5275714,99.105 67.6075714,97.1892857 67.6032857,94.8235714 L67.5132857,17.8478571 C67.509,15.4821429 69.4247143,13.5578571 71.7947143,13.5578571 L114.947571,13.5064286 C117.313286,13.5021429 119.233286,15.4178571 119.237571,17.7878571 L119.327571,94.7635714 C119.327571,97.1292857 117.411857,99.0492857 115.046143,99.0535714" id="Fill-26" fill="#FF7F48" sketch:type="MSShapeGroup"></path>
                <path d="M166.806429,129.563571 C166.776429,129.559286 167.273571,129.525 167.402143,128.972143 C167.402143,128.972143 167.432143,128.710714 167.385,128.929286 C167.385,129.027857 167.402143,128.355 167.380714,128.547857 L167.350714,127.823571 C167.312143,126.833571 167.269286,125.757857 167.226429,124.592143 C167.170714,122.265 167.106429,119.586429 167.033571,116.590714 C167.050714,110.590714 167.320714,103.309286 168.306429,94.9564286 C168.297857,90.7778571 167.955,86.3378571 167.770714,81.6492857 C167.543571,76.965 167.059286,72.0407143 167.466429,66.9021429 C168.439286,61.7592857 167.997857,56.4064286 167.860714,50.865 C167.590714,45.3235714 167.325,39.5935714 167.320714,33.705 C167.380714,30.7607143 167.440714,27.7735714 167.500714,24.7521429 C167.530714,23.2392857 167.560714,21.7221429 167.590714,20.1921429 L167.637857,17.8907143 C167.659286,17.4578571 167.629286,17.4707143 167.565,17.2435714 C167.385,16.8964286 167.123571,16.6521429 166.592143,16.6178571 C165.027857,16.5792857 163.459286,16.545 161.877857,16.5107143 C158.723571,16.4378571 155.539286,16.3692857 152.325,16.2964286 C149.110714,16.2707143 145.870714,16.0478571 142.609286,16.1807143 C139.347857,16.3221429 136.060714,16.815 132.756429,16.7121429 C131.102143,16.6907143 129.443571,16.3178571 127.780714,16.2407143 C126.117857,16.1121429 124.450714,16.1978571 122.779286,16.1635714 C119.436429,16.155 116.076429,16.1464286 112.703571,16.1378571 C105.957857,16.1935714 99.1564286,15.9364286 92.3292857,16.2492857 C85.5021429,16.4335714 78.6492857,16.8107143 71.7964286,16.5621429 C71.2821429,16.5235714 70.7464286,16.845 70.5235714,17.3507143 C70.4935714,17.4107143 70.4764286,17.475 70.455,17.5392857 C70.4464286,17.6464286 70.4421429,17.4064286 70.4207143,17.685 C70.3864286,17.8178571 70.3992857,18.4607143 70.3864286,18.8207143 L70.3435714,21.3921429 C70.3135714,24.8164286 70.1592857,28.2364286 70.3221429,31.6478571 C70.4464286,38.475 71.085,45.2721429 71.3507143,52.0178571 C71.4921429,55.395 71.6592857,58.7507143 71.6935714,62.0935714 L71.7878571,67.095 C71.9421429,68.7578571 71.1964286,70.4207143 71.2435714,72.0707143 L71.2264286,77.0164286 L70.9135714,81.9278571 C70.8021429,85.1892857 70.7978571,88.4292857 70.6178571,91.6435714 C70.4721429,94.8535714 70.3307143,98.0421429 70.185,101.196429 C69.9792857,104.355 69.7521429,107.479286 69.675,110.569286 C69.5635714,116.753571 69.9535714,122.805 70.1421429,128.693571 C70.1378571,129.465 70.4635714,129.936429 70.9778571,130.292143 C71.2221429,130.442143 71.5392857,130.545 71.7621429,130.549286 L73.785,130.540714 C76.6478571,130.519286 79.4635714,130.497857 82.2364286,130.476429 C87.7778571,130.425 93.1307143,130.377857 98.2735714,130.330714 C108.550714,130.206429 117.975,130.266429 126.327857,129.602143 C130.502143,129.250714 134.410714,129.272143 138.027857,129.409286 C141.640714,129.520714 144.962143,129.623571 147.957857,129.713571 C153.957857,130.022143 158.667857,129.795 161.882143,129.730714 C165.092143,129.623571 166.806429,129.563571 166.806429,129.563571 M166.815,136.420714 C166.815,136.420714 165.100714,136.476429 161.890714,136.583571 C158.676429,136.647857 153.966429,136.853571 147.966429,136.566429 C141.970714,136.450714 134.689286,135.880714 126.336429,136.365 C117.983571,136.832143 108.559286,136.879286 98.2778571,137.016429 C93.1392857,137.085 87.7864286,137.153571 82.245,137.226429 C79.4721429,137.265 76.6564286,137.299286 73.7935714,137.337857 C72.9835714,137.337857 72.5764286,137.376429 71.4235714,137.346429 C69.8721429,137.269286 68.5007143,136.785 67.2621429,136.009286 C64.8064286,134.530714 63.2164286,131.423571 63.3021429,128.702143 C63.525,116.925 64.7164286,104.500714 64.1378571,91.6521429 C64.095,85.2235714 64.2492857,78.6921429 65.1107143,72.0792857 C65.2307143,65.4664286 64.9692857,58.7721429 64.9135714,52.0264286 C64.9907143,48.6535714 64.455,45.2678571 64.305,41.8735714 C64.3007143,38.475 64.2921429,35.0678571 64.2878571,31.6564286 C64.2321429,28.2407143 64.4164286,24.8207143 64.5107143,21.3964286 L64.5964286,18.8292857 L64.6564286,17.4021429 C64.665,17.2521429 64.7507143,16.5921429 64.8321429,16.2878571 C64.9178571,15.9407143 65.0292857,15.5978571 65.1621429,15.2678571 C66.2078571,12.5978571 68.9721429,10.7721429 71.7878571,10.8492857 C78.645,11.1878571 85.4978571,10.7207143 92.325,10.575 C99.1478571,10.2321429 105.949286,10.7292857 112.695,10.7807143 C119.445,10.9478571 126.135,11.3507143 132.747857,11.1792857 C139.360714,10.9692857 145.892143,10.755 152.320714,10.7078571 C155.530714,10.665 158.715,10.6178571 161.873571,10.575 C163.450714,10.5535714 165.019286,10.5321429 166.583571,10.5064286 C169.116429,10.4207143 171.799286,11.9378571 173.012143,14.2392857 C173.637857,15.3364286 173.950714,16.8192857 173.912143,17.8864286 L173.916429,20.1835714 C173.920714,21.7135714 173.925,23.235 173.925,24.7435714 C173.933571,27.765 173.937857,30.7521429 173.946429,33.6964286 C173.757857,39.585 173.577857,45.315 173.402143,50.8564286 C173.265,56.3978571 172.810714,61.755 173.359286,66.8935714 C173.775,77.175 173.616429,86.5992857 173.775,94.9478571 C173.976429,103.300714 173.719286,110.586429 173.903571,116.582143 C174.002143,119.577857 174.092143,122.256429 174.169286,124.583571 C174.207857,125.749286 174.242143,126.829286 174.276429,127.815 L174.302143,128.539286 C174.297857,129.143571 174.310714,128.993571 174.276429,129.490714 C174.177857,130.527857 173.976429,131.080714 173.702143,131.787857 C172.553571,134.445 170.410714,135.602143 169.035,136.047857 C167.599286,136.480714 166.815,136.420714 166.815,136.420714" id="Fill-28" fill="#000000" sketch:type="MSShapeGroup"></path>
                <path d="M68.196,96.7208571 C68.196,96.7208571 74.6245714,96.648 84.2674286,96.5451429 C86.676,96.4722857 89.2902857,96.4937143 92.0502857,96.558 C94.8145714,96.6351429 97.7288571,96.6008571 100.741714,96.498 C106.767429,96.408 113.196,96.078 119.624571,96.2408571 C126.053143,96.3094286 132.481714,96.378 138.507429,96.4422857 C144.533143,96.3822857 150.160286,96.7851429 154.981714,96.738 C164.624571,96.9308571 171.053143,97.5222857 171.053143,97.5222857 L171.087429,97.5222857 C172.034571,97.5222857 172.788857,97.8651429 172.767429,98.8122857 C172.750286,99.7422857 171.987429,100.256571 171.057429,100.260857 C171.057429,100.260857 164.628857,100.149429 154.986,100.162286 C150.164571,100.333714 144.537429,100.295143 138.511714,100.260857 C135.498857,100.235143 132.387429,100.183714 129.220286,100.158 C126.057429,100.072286 122.843143,100.260857 119.628857,100.342286 C113.200286,100.715143 106.771714,100.089429 100.746,100.333714 C94.716,100.398 89.0931429,100.556571 84.2717143,100.453714 C74.6288571,100.273714 68.2002857,100.149429 68.2002857,100.149429 C67.2531429,100.140857 66.4902857,99.3694286 66.4988571,98.4222857 C66.5074286,97.4922857 67.2745714,96.7422857 68.196,96.7208571" id="Fill-30" fill="#000000" sketch:type="MSShapeGroup"></path>
                <path d="M100.226571,112.968857 C100.226571,112.968857 102.618,112.973143 106.200857,112.707429 C107.096571,112.617429 108.069429,112.660286 109.098,112.758857 C110.122286,112.870286 111.206571,112.840286 112.325143,112.711714 C114.566571,112.476 116.958,112.064571 119.349429,112.291714 C121.736571,112.510286 124.128,112.561714 126.369429,112.643143 C128.610857,112.630286 130.702286,112.377429 132.493714,112.411714 C136.080857,112.617429 138.468,112.926 138.468,112.926 L138.900857,112.977429 C140.298,113.161714 141.288,114.443143 141.108,115.840286 C140.936571,117.160286 139.779429,118.111714 138.476571,118.068857 C138.476571,118.068857 136.085143,117.974571 132.502286,118.073143 C130.706571,118.326 128.615143,118.347429 126.373714,118.283143 C124.136571,118.193143 121.745143,117.910286 119.353714,118.471714 C118.158,118.677429 116.966571,118.686 115.788,118.510286 C114.609429,118.373143 113.452286,118.296 112.333714,118.394571 C110.092286,118.536 108.000857,118.737429 106.209429,118.583143 C102.622286,118.381714 100.230857,118.111714 100.230857,118.111714 L99.9351429,118.077429 C98.5294286,117.918857 97.518,116.650286 97.6765714,115.244571 C97.8222857,113.937429 98.9408571,112.973143 100.226571,112.968857" id="Fill-32" fill="#000000" sketch:type="MSShapeGroup"></path>
            </g>
        </g>
    </g>
</svg>