<?xml version="1.0" encoding="UTF-8"?>
<svg width="525px" height="537px" viewBox="0 0 525 537" version="1.1" xmlns="http://www.w3.org/2000/svg" xmlns:xlink="http://www.w3.org/1999/xlink">
    <!-- Generator: Sketch 61.2 (89653) - https://sketch.com -->
    <title>Group 13</title>
    <desc>Created with Sketch.</desc>
    <g id="Page-1" stroke="none" stroke-width="1" fill="none" fill-rule="evenodd">
        <g id="Desktop-HD-Copy-8" transform="translate(-100.000000, -96.000000)">
            <g id="Group-13" transform="translate(100.000000, 96.000000)">
                <g id="Group-12" transform="translate(68.000000, 0.000000)" opacity="0.376743862" stroke="#3E959A" stroke-linecap="square">
                    <g id="Group-10" transform="translate(0.000000, 0.500000)">
                        <line x1="355.5" y1="0.69419108" x2="355.5" y2="505.698057" id="Line-Copy-9"></line>
                        <line x1="0.5" y1="25.5" x2="0.5" y2="485.698057" id="Line-Copy-7"></line>
                        <line x1="158.5" y1="30.6941911" x2="158.5" y2="535.698057" id="Line-Copy-8"></line>
                    </g>
                </g>
                <g id="Asset-17texture" transform="translate(0.000000, 115.000000)" fill-rule="nonzero">
                    <circle id="Oval" fill="#FFFFFF" cx="143.5" cy="65.5" r="8.5"></circle>
                    <circle id="Oval" fill="#FFFFFF" cx="69.5" cy="6.5" r="6.5"></circle>
                    <circle id="Oval" fill="#FFFFFF" cx="262.5" cy="301.5" r="6.5"></circle>
                    <circle id="Oval" fill="#FFFFFF" cx="220.5" cy="155.5" r="6.5"></circle>
                    <circle id="Oval" fill="#FFFFFF" cx="247.5" cy="6.5" r="6.5"></circle>
                    <circle id="Oval" fill="#FFFFFF" cx="211" cy="244" r="3"></circle>
                    <circle id="Oval" fill="#FFFFFF" cx="355" cy="239" r="3"></circle>
                    <circle id="Oval" fill="#FFFFFF" cx="39" cy="285" r="3"></circle>
                    <circle id="Oval" fill="#FFFFFF" cx="106" cy="268" r="3"></circle>
                    <circle id="Oval" fill="#FFFFFF" cx="106" cy="105" r="3"></circle>
                    <circle id="Oval" fill="#FFFFFF" cx="304" cy="17" r="3"></circle>
                    <circle id="Oval" fill="#FFFFFF" cx="412" cy="108" r="3"></circle>
                    <circle id="Oval" fill="#FFFFFF" cx="194" cy="288" r="3"></circle>
                    <circle id="Oval" fill="#FFFFFF" cx="209" cy="12" r="3"></circle>
                    <circle id="Oval" fill="#FFFFFF" cx="8.5" cy="258.5" r="8.5"></circle>
                    <g id="Group" transform="translate(54.000000, 298.000000)">
                        <polygon id="Path" fill="#FFFFFF" points="40.4316768 8.43801724 45.0979663 31.7938793 27.6123906 47.6374138 22.9287542 24.2993534"></polygon>
                        <path d="M39.8765791,8.59823276 L43.9530774,28.9812069 C44.0423436,29.9623619 44.2402159,30.9298905 44.5428687,31.8650862 C44.3520539,31.49125 44.9938855,31.3488362 44.4040943,31.6336638 C43.9978348,31.927732 43.625389,32.2681406 43.293899,32.6483621 L34.3949899,40.7125431 L27.2134141,47.2279741 L28.1674882,47.495 L24.0736431,27.1120259 C23.9732354,26.1236498 23.7637303,25.1501803 23.4491582,24.2103448 C23.6399731,24.6019828 22.9807946,24.7443966 23.5705859,24.459569 C23.9818268,24.1651478 24.3599851,23.8248354 24.6981279,23.4448707 L33.597037,15.3628879 L40.7959596,8.90086207 C41.3510572,8.40241379 40.5357576,7.58353448 39.9806599,8.08198276 L22.4950842,23.943319 C22.349973,24.092374 22.2908379,24.3081461 22.338963,24.5129741 L27.0225993,47.8510345 C27.0753021,48.052848 27.2284901,48.2107482 27.4249119,48.2657227 C27.6213336,48.3206971 27.8314272,48.264472 27.9766734,48.1180603 L45.479596,32.2567241 C45.6250003,32.1078169 45.6783851,31.8886778 45.6183704,31.687069 L40.9520808,8.3312069 C40.7959596,7.54793103 39.7204579,7.85056034 39.8765791,8.59823276 Z" id="Path" fill="#231F20"></path>
                        <polygon id="Path" fill="#3E959A" points="27.6123906 47.6374138 6.0156229 40.1428879 1.33198653 16.7870259 22.9287542 24.2993534"></polygon>
                        <path d="M27.7685118,47.0855603 L8.6870303,40.463319 C7.86825835,40.0796587 7.01396758,39.7814632 6.13705051,39.5732328 C6.53602694,39.1815948 6.48398653,40.5523276 6.43194613,39.5732328 C6.3571698,39.0439195 6.24704747,38.5205033 6.1023569,38.006681 L3.69115152,25.9371121 L1.83504377,16.6802155 L1.12382492,17.3922845 L20.2053064,24.0145259 C21.017564,24.3951325 21.8663954,24.6874854 22.7379394,24.8868103 C22.3563098,25.29625 22.3910034,23.9255172 22.4603906,24.8868103 C22.5209226,25.417148 22.6253813,25.9412277 22.772633,26.4533621 L25.1838384,38.522931 L27.0399461,47.7976293 C27.1960673,48.5453017 28.2889158,48.2248707 28.1501414,47.495 L24.0042559,26.8271983 C23.9323658,25.9178527 23.7517596,25.0210335 23.4665051,24.1569397 C23.1716094,23.5872845 22.338963,23.4804741 21.7318249,23.2846552 L10.6819125,19.4394828 L1.43606734,16.2173707 C1.00239731,16.0749569 0.655461279,16.5378017 0.724848485,16.9472414 L4.87073401,37.6150431 C4.94433791,38.5241357 5.12490143,39.420743 5.40848485,40.2853017 C5.70338047,40.8549569 6.53602694,40.9617672 7.14316498,41.1575862 L18.2451178,45.0027586 L27.490963,48.207069 C28.1674882,48.4562931 28.4623838,47.3169828 27.7685118,47.0855603 Z" id="Path" fill="#231F20"></path>
                        <polygon id="Path" fill="#3E959A" points="22.9287542 24.2993534 1.33198653 16.7870259 18.8349091 0.925689655 40.4316768 8.43801724"></polygon>
                        <path d="M23.0848754,23.7296983 L1.48810774,16.2173707 L1.74830976,17.2142672 L16.8226801,3.56034483 C17.447165,2.99068966 18.7481751,2.22521552 19.1298047,1.45974138 C19.1298047,1.45974138 18.6440943,1.26392241 18.9216431,1.60215517 C19.1991919,1.94038793 19.9624512,1.95818966 20.24,2.065 L31.3072593,5.91017241 L40.2755556,9.02547414 L40.0153535,8.04637931 L22.5297778,23.9077155 C21.9746801,24.4061638 22.7899798,25.2250431 23.3450774,24.7265948 L40.7959596,8.90086207 C40.9388858,8.75431568 40.9959505,8.54130356 40.9461114,8.34037241 C40.8962724,8.13944126 40.7469114,7.98035184 40.5531044,7.92176724 L18.9389899,0.427241379 C18.7423928,0.376651555 18.5341617,0.430074576 18.3838923,0.569655172 L0.898316498,16.3775862 C0.755390263,16.5241326 0.698325584,16.7371447 0.748164657,16.9380759 C0.798003729,17.139007 0.94736468,17.2980964 1.14117172,17.356681 L22.7899798,24.9224138 C23.4491582,25.100431 23.7787475,23.9789224 23.0848754,23.7296983 Z" id="Path" fill="#231F20"></path>
                    </g>
                    <g id="Group" transform="translate(441.000000, 116.000000)">
                        <polygon id="Path" fill="#EC7E7C" points="29.1882353 13.104 21.9 25.2026667 7.51764706 24.9946667 14.8058824 12.896"></polygon>
                        <path d="M28.8882353,12.9306667 L22.5,23.5213333 C22.3058824,23.8506667 21.6176471,24.6133333 21.6176471,24.9946667 C21.6176471,24.7693333 22.0588235,24.9946667 21.6176471,24.856 C21.3014606,24.8136863 20.9808923,24.8136863 20.6647059,24.856 L13.3411765,24.752 L7.44705882,24.752 L7.74705882,25.272 L14.1352941,14.6813333 C14.3294118,14.352 15.0176471,13.6066667 15.0176471,13.208 C15.0176471,13.4333333 14.5764706,13.208 15.0176471,13.364 C15.3343157,13.3986309 15.6539195,13.3986309 15.9705882,13.364 L23.2941176,13.468 L29.1882353,13.5546667 C29.3831593,13.5546667 29.5411765,13.3994587 29.5411765,13.208 C29.5411765,13.0165413 29.3831593,12.8613333 29.1882353,12.8613333 L14.8058824,12.6533333 C14.682761,12.6585233 14.5703205,12.7234888 14.5058824,12.8266667 L7.2,24.96 C7.14667044,25.0700984 7.15300255,25.1991105 7.21686734,25.3036595 C7.28073213,25.4082085 7.39364685,25.4744079 7.51764706,25.48 L21.9,25.688 C22.0231214,25.6828101 22.1355618,25.6178445 22.2,25.5146667 L29.5058824,13.3813333 C29.7352941,12.896 29.1176471,12.5493333 28.8882353,12.9306667 Z" id="Path" fill="#231F20"></path>
                        <polygon id="Path" fill="#EC7E7C" points="7.51764706 24.9946667 0.688235294 12.9306667 7.99411765 0.832 14.8058824 12.896"></polygon>
                        <path d="M7.81764706,24.8213333 L1.76470588,14.196 C1.52201643,13.7073626 1.25098278,13.2328049 0.952941176,12.7746667 C1.2,13.104 0.794117647,13.1733333 1.09411765,12.7746667 C1.28569276,12.5197286 1.45119985,12.2468521 1.58823529,11.96 L5.34705882,5.73733333 L8.24117647,0.918666667 L7.64117647,0.918666667 L13.6411765,11.5613333 C13.9058824,12.012 14.1352941,12.532 14.4352941,12.9653333 C14.2058824,12.636 14.6117647,12.584 14.2941176,12.9653333 C14.1082965,13.21463 13.9486584,13.4817709 13.8176471,13.7626667 L10.0588235,19.9853333 L7.14705882,24.804 C6.91764706,25.1853333 7.53529412,25.532 7.76470588,25.1506667 L14.2235294,14.4386667 C14.5686209,14.0258471 14.8482459,13.5641949 15.0529412,13.0693333 C15.1411765,12.688 14.8941176,12.4106667 14.7,12.064 L11.1705882,5.84133333 L8.22352941,0.641333333 C8.15917437,0.539338131 8.04569561,0.477284665 7.92352941,0.477284665 C7.80136321,0.477284665 7.68788445,0.539338131 7.62352941,0.641333333 L1.14705882,11.3533333 C0.810351814,11.7781485 0.531526905,12.2443068 0.317647059,12.74 C0.317647059,13.104 0.494117647,13.3986667 0.688235294,13.728 L4.21764706,19.968 L7.14705882,25.168 C7.21010569,25.2856595 7.3322701,25.3613442 7.46753389,25.3665444 C7.60279769,25.3717446 7.73061109,25.3056703 7.80282801,25.193211 C7.87504494,25.0807518 7.88069393,24.9389928 7.81764706,24.8213333 L7.81764706,24.8213333 Z" id="Path" fill="#231F20"></path>
                        <polygon id="Path" fill="#FFFFFF" points="14.8058824 12.896 7.99411765 0.832 22.3764706 1.04 29.1882353 13.104"></polygon>
                        <path d="M15.1235294,12.7226667 L8.29411765,0.589333333 L7.99411765,1.10933333 L20.4352941,1.28266667 C20.7176471,1.28266667 22.0941176,1.508 22.3058824,1.28266667 C22.5176471,1.05733333 22.1117647,0.936 22.1470588,1.28266667 C22.2493542,1.54524783 22.3922045,1.7907916 22.5705882,2.01066667 L26.1,8.25066667 L28.9058824,13.208 L29.2058824,12.688 L14.8235294,12.48 C14.6286054,12.48 14.4705882,12.635208 14.4705882,12.8266667 C14.4705882,13.0181254 14.6286054,13.1733333 14.8235294,13.1733333 L29.2058824,13.3813333 C29.3341099,13.3856578 29.4546267,13.3212925 29.520638,13.2132294 C29.5866494,13.1051663 29.5877565,12.9704288 29.5235294,12.8613333 L22.6941176,0.728 C22.6381115,0.616762734 22.520314,0.548701917 22.3941176,0.554666667 L8.01176471,0.346666667 C7.88668286,0.348626741 7.77200292,0.415475262 7.71032814,0.522378198 C7.64865337,0.629281135 7.64919991,0.760263858 7.71176471,0.866666667 L14.5235294,13 C14.6288249,13.1025335 14.7881386,13.1294939 14.9222969,13.067483 C15.0564552,13.005472 15.1368506,12.8677127 15.1235294,12.7226667 L15.1235294,12.7226667 Z" id="Path" fill="#231F20"></path>
                    </g>
                    <path d="M41.2772384,142.895049 L39.7065804,138.119788 C38.4983819,134.446509 37.9805825,131.997657 37.9805825,123.86397 L37.9805825,105.952366 C37.9805825,101.91176 37.4455232,101.054662 37.3764833,100.967203 L37.0140237,100.967203 L37.0140237,142.947525 L8,142.947525 L8,31 L37.3419633,31 C56.5868393,31 66.6839266,41.2152116 66.6839266,60.5261596 L66.6839266,66.5433391 C66.6839266,74.624551 64.8543689,81.0615337 61.2125135,85.7843199 C66.1833873,91.9764173 66.8220065,100.599875 66.8220065,106.896923 L66.8220065,124.108855 C66.5792479,127.215313 66.9609123,130.339391 67.9439051,133.292051 L72,143 L41.2772384,142.895049 Z M36.9967638,72.9278463 C37.1383831,72.9092114 37.2773918,72.8739924 37.4110032,72.8228955 C37.7755406,71.7987271 37.9168603,70.7066916 37.8252427,69.621896 L37.8252427,62.0129627 C37.8652024,60.9847715 37.7723626,59.9556979 37.5490831,58.9518975 L36.9967638,58.9518975 L36.9967638,72.9278463 Z" id="Shape" fill="#C0DDD6"></path>
                    <polygon id="Path" fill="#C0DDD6" points="64 143 64 31 120 31 120 59 93.4 59 93.4 70.9 114.54 70.9 114.54 98.9 93.4 98.9 93.4 115 120 115 120 143"></polygon>
                    <polygon id="Path" fill="#C0DDD6" points="126.856616 143 110 31 139.642594 31 143.695836 61.8175 147.766473 31 176 31 159.143384 143"></polygon>
                    <polygon id="Path" fill="#C0DDD6" points="168 143 168 31 224 31 224 59 197.4 59 197.4 70.9 218.54 70.9 218.54 98.9 197.4 98.9 197.4 115 224 115 224 143"></polygon>
                    <polygon id="Path" fill="#C0DDD6" points="252.891011 143 246.586517 118.465 246.586517 143 219 143 219 31 250.609551 31 253.413483 42.06 253.413483 31 281 31 281 143"></polygon>
                    <path d="M307.94743,144 C289.162383,144 278,132.229167 278,112.41929 L278,31 L307.439252,31 L307.439252,113.587654 C307.401178,114.433034 307.489765,115.279344 307.702103,116.098765 L308.858645,116.098765 C309.061493,115.277672 309.149938,114.432724 309.121495,113.587654 L309.121495,31 L338,31 L338,112.41929 C337.94743,132.229167 326.732477,144 307.94743,144 Z" id="Path" fill="#C0DDD6"></path>
                    <polygon id="Path" fill="#C0DDD6" points="335 143 335 31 391 31 391 59 364.4 59 364.4 70.9 385.54 70.9 385.54 98.9 364.4 98.9 364.4 115 391 115 391 143"></polygon>
                    <path d="M36.5,272 C17.6834677,272 6,259.868902 6,240.304878 L6,188.695122 C6,169.148628 17.6834677,157 36.5,157 C55.3165323,157 67,169.148628 67,188.695122 L67,240.252287 C66.9472926,259.868902 55.2638249,272 36.5,272 Z M35.8499424,243.95122 L37.1676267,243.95122 C37.4251101,243.087615 37.5320788,242.18631 37.483871,241.286585 L37.483871,187.660823 C37.5328695,186.76684 37.4258642,185.871159 37.1676267,185.01372 L35.797235,185.01372 C35.529111,185.869265 35.4160697,186.76567 35.4634217,187.660823 L35.4634217,241.233994 C35.4106701,242.152375 35.5237378,243.072742 35.797235,243.95122 L35.8499424,243.95122 Z" id="Shape" fill="#C0DDD6"></path>
                    <path d="M64,270 L64,158 L93.3962485,158 C112.209848,158 123,169.3925 123,189.22 L123,198.88 C123,218.725 112.209848,230.1 93.3962485,230.1 L93.119578,230.1 L93.119578,270 L64,270 Z M93.7420868,202.1 C93.8487999,201.358434 93.8950676,200.609242 93.880422,199.86 L93.880422,188.24 C93.8936181,187.49079 93.8473577,186.741717 93.7420868,186 L93.0504103,186 L93.0504103,202.1 L93.7420868,202.1 Z" id="Shape" fill="#C0DDD6"></path>
                    <polygon id="Path" fill="#C0DDD6" points="117 270 117 158 173 158 173 186 146.4 186 146.4 197.9 167.54 197.9 167.54 225.9 146.4 225.9 146.4 242 173 242 173 270"></polygon>
                    <path d="M202.277238,269.895049 L200.70658,265.119788 C199.498382,261.446509 198.980583,258.997657 198.980583,250.86397 L198.980583,232.952366 C198.980583,228.91176 198.445523,228.054662 198.376483,227.967203 L198.048544,227.967203 L198.048544,269.947525 L169,269.947525 L169,158 L198.341963,158 C217.586839,158 227.683927,168.215212 227.683927,187.52616 L227.683927,193.543339 C227.683927,201.624551 225.854369,208.061534 222.212513,212.78432 C227.183387,218.976417 227.822006,227.599875 227.822006,233.896923 L227.822006,251.108855 C227.57466,254.214107 227.950426,257.337961 228.926645,260.292051 L233,270 L202.277238,269.895049 Z M197.996764,199.927846 C198.138383,199.909211 198.277392,199.873992 198.411003,199.822896 C198.775541,198.798727 198.91686,197.706692 198.825243,196.621896 L198.825243,189.065438 C198.863418,188.036362 198.764725,187.006762 198.531823,186.004373 L198.048544,186.004373 L197.996764,199.927846 Z" id="Shape" fill="#C0DDD6"></path>
                    <polygon id="Path" fill="#C0DDD6" points="259.391205 270 256.653525 250.82 251.247915 250.82 248.457923 270 220 270 238.169826 158 270.812737 158 289 270"></polygon>
                    <polygon id="Path" fill="#C0DDD6" points="286.204545 270 286.204545 186 270 186 270 158 332 158 332 186 315.795455 186 315.795455 270"></polygon>
                    <rect id="Rectangle" fill="#C0DDD6" x="326" y="158" width="29" height="112"></rect>
                    <path d="M381.49998,272 C362.68346,272 351,259.868902 351,240.304878 L351,188.695122 C351,169.148628 362.68346,157 381.49998,157 C400.3165,157 411.99998,169.148628 411.99998,188.695122 L411.99998,240.252287 C412.01753,259.868902 400.334069,272 381.49998,272 Z M380.832354,243.95122 L382.167607,243.95122 C382.415184,243.085604 382.521956,242.185957 382.483851,241.286585 L382.483851,187.660823 C382.522831,186.767188 382.416024,185.873171 382.167607,185.01372 L380.832354,185.01372 C380.574117,185.871159 380.467111,186.76684 380.51611,187.660823 L380.51611,241.233994 C380.467461,242.152238 380.580441,243.071886 380.849923,243.95122 L380.832354,243.95122 Z" id="Shape" fill="#C0DDD6"></path>
                    <polygon id="Path" fill="#C0DDD6" points="442.891011 270 436.586517 245.465 436.586517 270 409 270 409 158 440.609551 158 443.413483 169.06 443.413483 158 471 158 471 270"></polygon>
                    <path d="M494.7894,272 C476.179786,272 465,260.175933 465,240.329018 L465,227.716679 L488.481056,227.716679 C487.412143,226.683168 486.18552,225.544554 484.766143,224.213252 C470.747602,211.951257 465.280371,201.826352 465.280371,188.390708 C465.280371,168.736481 476.495204,157 495.280049,157 C513.71443,157 524.718985,168.841584 524.718985,188.670982 L524.718985,199.741813 L501.763624,199.741813 C502.867584,200.827875 504.164299,202.001523 505.636246,203.24524 C519.759926,215.66489 524.999679,225.597106 524.999679,239.908606 C525.069448,260.07083 513.749477,272 494.7894,272 Z M493.948287,243.972582 L495.297572,243.972582 C495.561554,243.062908 495.674036,242.116018 495.630512,241.16984 C495.775641,238.543689 495.088896,235.938635 493.667916,233.725057 L493.667916,241.450114 C493.633969,242.300246 493.72849,243.150634 493.948287,243.972582 L493.948287,243.972582 Z M495.017201,185.132521 C494.837719,185.907373 494.761126,186.702483 494.7894,187.497334 C494.725954,189.432076 495.211997,191.345213 496.191254,193.015232 L496.191254,187.760091 C496.220094,186.870686 496.13172,185.981355 495.928406,185.115004 L495.017201,185.132521 Z" id="Shape" fill="#C0DDD6"></path>
                    <path d="M46.7613105,136 L45.9226209,133.7075 C44.8917317,130.6275 44.3326053,128.58 44.3326053,120.5475 L44.3326053,102.54 C44.3326053,94.3675 42.3407176,94 38.1822153,94 L36.4349454,94 L36.4349454,136 L14,136 L14,31 L40.2090484,31 C57.6817473,31 66.4180967,39.75 66.4180967,57.04 L66.4180967,63.06 C66.4180967,71.81 64.1117005,78.2325 59.5513261,82.31 C65.7191888,87.42 66.5404056,96.4325 66.5404056,103.31 L66.5404056,120.53 C66.2821352,124.088984 66.7579436,127.663123 67.9382215,131.03 L70,135.895 L46.7613105,136 Z M38.5141966,73 C41.8689548,73 44.2452418,72.51 44.2452418,66.14 L44.2452418,58.58 C44.2452418,52 42.1485179,52 39.9120125,52 L36.4174727,52 L36.4174727,73 L38.5141966,73 Z" id="Shape" fill="#FCCB4F"></path>
                    <polygon id="Path" fill="#FCCB4F" points="71 136 71 31 120 31 120 52 93.4 52 93.4 70.9 114.54 70.9 114.54 91.9 93.4 91.9 93.4 115 120 115 120 136"></polygon>
                    <polygon id="Path" fill="#FCCB4F" points="133.09252 136 117 31 139.951337 31 147.20006 84.9525 154.448783 31 176 31 159.889757 136"></polygon>
                    <polygon id="Path" fill="#FCCB4F" points="175 136 175 31 224 31 224 52 197.4 52 197.4 70.9 218.54 70.9 218.54 91.9 197.4 91.9 197.4 115 224 115 224 136"></polygon>
                    <polygon id="Path" fill="#FCCB4F" points="259.087025 136 246.607595 87.42 246.607595 136 226 136 226 31 251.393987 31 260.392405 66.42 260.392405 31 281 31 281 136"></polygon>
                    <path d="M311.447421,137 C294.604497,137 285,126.783553 285,108.913487 L285,31 L307.433862,31 L307.433862,110.081579 C307.433862,116.078947 309.747354,116.078947 311.780423,116.078947 C313.813492,116.078947 316.126984,116.078947 316.126984,110.081579 L316.126984,31 L338,31 L338,108.913487 C337.947421,126.783553 328.290344,137 311.447421,137 Z" id="Path" fill="#FCCB4F"></path>
                    <polygon id="Path" fill="#FCCB4F" points="342 136 342 31 391 31 391 52 364.4 52 364.4 70.9 385.54 70.9 385.54 91.9 364.4 91.9 364.4 115 391 115 391 136"></polygon>
                    <path d="M40,265 C23.0898438,265 13,254.480519 13,236.807792 L13,185.192208 C13,167.537013 23.0898438,157 40,157 C56.9101562,157 67,167.519481 67,185.192208 L67,236.755195 C66.9472656,254.462987 56.8574219,265 40,265 Z M40,178.038961 C38.1015625,178.038961 35.5,178.038961 35.5,184.21039 L35.5,237.78961 C35.5,243.961039 38.1015625,243.961039 40,243.961039 C41.8984375,243.961039 44.5,243.961039 44.5,237.78961 L44.5,184.157792 C44.4472656,178.038961 41.8457031,178.038961 40,178.038961 L40,178.038961 Z" id="Shape" fill="#FCCB4F"></path>
                    <path d="M70,264 L70,159 L96.3944223,159 C113.550797,159 123,168.8525 123,186.72 L123,196.38 C123,214.265 113.550797,224.1 96.3944223,224.1 L92.5232404,224.1 L92.5232404,264 L70,264 Z M96.3944223,203.1 C98.7699203,203.1 100.47676,203.1 100.47676,197.36 L100.47676,185.74 C100.47676,180 98.7171315,180 96.3944223,180 L92.5232404,180 L92.5232404,203.1 L96.3944223,203.1 Z" id="Shape" fill="#FCCB4F"></path>
                    <polygon id="Path" fill="#FCCB4F" points="124 264 124 159 173 159 173 180 146.4 180 146.4 198.9 167.54 198.9 167.54 219.9 146.4 219.9 146.4 243 173 243 173 264"></polygon>
                    <path d="M207.649189,264 L206.845194,261.62 C205.831461,258.54 205.27216,256.4925 205.27216,248.46 L205.27216,230.54 C205.27216,222.3675 203.27965,222 199.11985,222 L197.372035,222 L197.372035,264 L175,264 L175,159 L201.217228,159 C218.695381,159 227.434457,167.75 227.434457,185.04 L227.434457,191.06 C227.434457,199.81 225.127341,206.2325 220.548065,210.31 C226.735331,215.42 227.539326,224.4325 227.539326,231.31 L227.539326,248.53 C227.280975,252.088984 227.756932,255.663123 228.937578,259.03 L231,263.895 L207.649189,264 Z M199.399501,201 C202.755306,201 205.132335,200.51 205.132335,194.14 L205.132335,186.58 C205.132335,180 203.034956,180 200.797753,180 L197.302122,180 L197.302122,201 L199.399501,201 Z" id="Shape" fill="#FCCB4F"></path>
                    <path d="M265.461847,264 L262.697074,244.75 L251.218015,244.75 L248.418244,264 L227,264 L244.096099,159 L270.903901,159 L288,264 L265.461847,264 Z M259.844808,224.52 L256.905049,203.8 L254.035284,224.52 L259.844808,224.52 Z" id="Shape" fill="#FCCB4F"></path>
                    <polygon id="Path" fill="#FCCB4F" points="292.923077 264 292.923077 180 277 180 277 159 331 159 331 180 315.076923 180 315.076923 264"></polygon>
                    <rect id="Rectangle" fill="#FCCB4F" x="332" y="159" width="23" height="105"></rect>
                    <path d="M384.999977,265 C368.089835,265 358,254.480519 358,236.807792 L358,185.192208 C358,167.537013 368.089835,157 384.999977,157 C401.910119,157 411.999977,167.519481 411.999977,185.192208 L411.999977,236.755195 C412.017532,254.462987 401.927697,265 384.999977,265 Z M384.999981,178.038961 C383.101541,178.038961 380.499981,178.038961 380.499981,184.21039 L380.499981,237.78961 C380.499981,243.961039 383.101541,243.961039 384.999981,243.961039 C386.898413,243.961039 389.500062,243.961039 389.500062,237.78961 L389.500062,184.157792 C389.517551,178.038961 386.915991,178.038961 384.999981,178.038961 L384.999981,178.038961 Z" id="Shape" fill="#FCCB4F"></path>
                    <polygon id="Path" fill="#FCCB4F" points="448.087025 264 435.607595 215.42 435.607595 264 415 264 415 159 440.393987 159 449.392405 194.42 449.392405 159 470 159 470 264"></polygon>
                    <path d="M498.254954,265 C481.609313,265 472,254.725974 472,236.807792 L472,227.690909 L493.564069,227.690909 L493.564069,237.92987 C493.564069,243.961039 496.049538,243.961039 498.044914,243.961039 C500.040291,243.961039 502.52576,243.961039 502.52576,237.649351 C502.52576,231.337662 500.775429,227.12987 490.553501,218.135714 C477.233487,206.371429 472.280053,197.377273 472.280053,184.911688 C472.280053,167.186364 481.924373,157 498.745046,157 C515.198151,157 524.649934,167.274026 524.649934,185.192208 L524.649934,192.766234 L503.155878,192.766234 L503.155878,184.157792 C503.155878,177.986364 500.915456,177.986364 498.955086,177.986364 C496.994716,177.986364 494.754293,177.986364 494.754293,183.877273 C494.754293,189.137013 496.627147,193.45 506.849075,202.426623 C520.256605,214.243506 525,223.15 525,236.474675 C525,254.620779 515.250661,265 498.254954,265 Z" id="Path" fill="#FCCB4F"></path>
                    <path d="M14,32 L37.042836,32 C53.2082718,32 60.0856721,39.42 60.0856721,54.54 L60.0856721,60.56 C60.0856721,70.64 56.8242245,77.08 49.8759232,79.81 L49.8759232,80.09 C57.6750369,82.47 60.2274742,89.75 60.2274742,100.81 L60.2274742,118.03 C60.2274742,122.79 60.3692762,126.29 62,129.93 L46.0472674,129.93 C45.1964549,127.41 44.6292467,125.87 44.6292467,117.89 L44.6292467,100.0575 C44.6292467,90.9575 41.9350074,88.0175 34.844904,88.0175 L29.5273264,88.0175 L29.5273264,130 L14,130 L14,32 Z M35.2703102,74 C41.084195,74 44.6292467,71.48 44.6292467,63.64 L44.6292467,56.0975 C44.6292467,49.0975 42.2186115,46.0175 36.6883309,46.0175 L29.5982275,46.0175 L29.5982275,74 L35.2703102,74 Z" id="Shape" fill="#FFFFFF"></path>
                    <path d="M63,131 L45.5961945,131 L45.406272,130.403509 C44.5257223,127.736842 43.9732206,126.052632 43.9732206,118.122807 L43.9732206,100.087719 C43.9732206,91.6140351 41.8668076,88.8947368 35.3403805,88.8947368 L30.9203665,88.8947368 L30.9203665,131 L14,131 L14,31 L37.3777308,31 C53.3312192,31 60.7554616,38.4561404 60.7554616,54.4736842 L60.7554616,60.5087719 C60.7554616,70.3333333 57.8375617,76.7192982 51.8636364,79.9298246 C58.0965469,82.7017544 60.893587,89.2807018 60.893587,100.982456 L60.893587,118.245614 C60.6271603,122.175427 61.1680978,126.11859 62.4820296,129.824561 L63,131 Z M46.8393235,129.245614 L60.4446794,129.245614 C59.3947019,125.663838 58.9624416,121.924493 59.167019,118.192982 L59.167019,100.929825 C59.167019,89.1929825 56.2491191,83.0526316 49.7054264,81 L49.0838619,80.8070175 L49.0838619,79.2280702 L49.619098,79.0175439 C55.9556025,76.3859649 59.0288936,70.245614 59.0288936,60.4561404 L59.0288936,54.4736842 C59.0288936,39.4561404 52.3643411,32.754386 37.3777308,32.754386 L15.726568,32.754386 L15.726568,129.245614 L29.1937984,129.245614 L29.1937984,87.1403509 L35.3058492,87.1403509 C42.8854827,87.1403509 45.6652572,90.6491228 45.6652572,100.087719 L45.6652572,118.052632 C45.6997886,125.245614 46.1486963,127.105263 46.8393235,129.245614 Z M35.5821001,74.8596491 L29.1937984,74.8596491 L29.1937984,45.0350877 L36.9633545,45.0350877 C42.8336857,45.0350877 45.5961945,48.5438596 45.5961945,56.0175439 L45.5961945,63.5964912 C45.5098661,71.2807018 42.4020437,74.8596491 35.5821001,74.8596491 L35.5821001,74.8596491 Z M30.9203665,73.1052632 L35.5821001,73.1052632 C41.3661029,73.1052632 43.8350951,70.2631579 43.8350951,63.5964912 L43.8350951,56.0175439 C43.8350951,49.4561404 41.8495419,46.7894737 36.9288231,46.7894737 L30.8858351,46.7894737 L30.9203665,73.1052632 Z" id="Shape" fill="#231F20"></path>
                    <polygon id="Path" fill="#FFFFFF" points="71 32 113 32 113 46 86.4 46 86.4 71.9 107.54 71.9 107.54 85.9 86.4 85.9 86.4 116 113 116 113 130 71 130"></polygon>
                    <path d="M114,131 L70,131 L70,31 L114,31 L114,46.7894737 L87.2304,46.7894737 L87.2304,71 L108.4912,71 L108.4912,86.7894737 L87.2304,86.7894737 L87.2304,115.210526 L114,115.210526 L114,131 Z M71.76,129.245614 L112.24,129.245614 L112.24,116.964912 L85.4704,116.964912 L85.4704,85.0350877 L106.7312,85.0350877 L106.7312,72.754386 L85.4704,72.754386 L85.4704,45.0350877 L112.24,45.0350877 L112.24,32.754386 L71.76,32.754386 L71.76,129.245614 Z" id="Shape" fill="#231F20"></path>
                    <polygon id="Path" fill="#FFFFFF" points="117 32 132.502793 32 142.558659 108.02 142.820531 108.02 152.893855 32 167 32 152.195531 130 131.804469 130"></polygon>
                    <path d="M152.94094,131 L131.05906,131 L116,31 L133.275168,31 L142.697987,102.473684 L152.120805,31 L168,31 L152.94094,131 Z M132.559732,129.245614 L151.440268,129.245614 L165.975839,32.754386 L153.656376,32.754386 L143.605369,109.052632 L141.860403,109.052632 L131.739597,32.754386 L118.024161,32.754386 L132.559732,129.245614 Z" id="Shape" fill="#231F20"></path>
                    <polygon id="Path" fill="#FFFFFF" points="175 32 217 32 217 46 190.4 46 190.4 71.9 211.5925 71.9 211.5925 85.9 190.4 85.9 190.4 116 217 116 217 130 175 130"></polygon>
                    <path d="M218,131 L174,131 L174,31 L218,31 L218,46.7894737 L191.248,46.7894737 L191.248,71 L212.5088,71 L212.5088,86.7894737 L191.248,86.7894737 L191.248,115.210526 L218,115.210526 L218,131 Z M175.76,129.245614 L216.24,129.245614 L216.24,116.964912 L189.488,116.964912 L189.488,85.0350877 L210.7488,85.0350877 L210.7488,72.754386 L189.488,72.754386 L189.488,45.0350877 L216.24,45.0350877 L216.24,32.754386 L175.76,32.754386 L175.76,129.245614 Z" id="Shape" fill="#231F20"></path>
                    <polygon id="Path" fill="#FFFFFF" points="226 32 245.557329 32 260.776488 90.66 261.060958 90.66 261.060958 32 275 32 275 130 258.998549 130 240.223512 58.4775 239.99238 58.4775 239.99238 130 226.053338 130"></polygon>
                    <path d="M275,131 L257.63986,131 L240.454545,64.2105263 L240.454545,131 L225,131 L225,31 L245.856643,31 L259.545455,84.8070175 L259.545455,31 L275,31 L275,131 Z M259.003497,129.245614 L273.251748,129.245614 L273.251748,32.754386 L261.293706,32.754386 L261.293706,91.5087719 L259.545455,91.5087719 L244.58042,32.7017544 L226.748252,32.7017544 L226.748252,129.192982 L238.706294,129.192982 L238.706294,57.5263158 L240.541958,57.5263158 L259.003497,129.245614 Z" id="Shape" fill="#231F20"></path>
                    <path d="M286,107.215631 L286,32 L301.426829,32 L301.426829,108.342193 C301.426829,115.383207 304.371951,117.917972 309.280488,117.917972 C314.189024,117.917972 317.134146,115.383207 317.134146,108.342193 L317.134146,32 L332,32 L332,107.215631 C332,123.057912 324.146341,132 309,132 C293.853659,132 286,122.987502 286,107.215631 Z" id="Path" fill="#FFFFFF"></path>
                    <path d="M308.964809,132 C293.516129,132 285,122.948443 285,106.522837 L285,31 L302.243402,31 L302.243402,107.641176 C302.243402,115.29481 305.991202,116.273356 309.281525,116.273356 C312.571848,116.273356 316.319648,115.29481 316.319648,107.641176 L316.319648,31 L333,31 L333,106.522837 C332.929619,122.948443 324.41349,132 308.964809,132 Z M286.759531,32.7474048 L286.759531,106.522837 C286.759531,122.039792 294.431085,130.252595 308.964809,130.252595 C323.498534,130.252595 331.170088,122.039792 331.170088,106.522837 L331.170088,32.7474048 L318.008798,32.7474048 L318.008798,107.641176 C318.008798,114.630796 315.140762,118.020761 309.211144,118.020761 C303.281525,118.020761 300.41349,114.630796 300.41349,107.641176 L300.41349,32.7474048 L286.759531,32.7474048 Z" id="Shape" fill="#231F20"></path>
                    <polygon id="Path" fill="#FFFFFF" points="342 32 384 32 384 46 357.4 46 357.4 71.9 378.54 71.9 378.54 85.9 357.4 85.9 357.4 116 384 116 384 130 342 130"></polygon>
                    <path d="M385,131 L341,131 L341,31 L385,31 L385,46.7894737 L358.248,46.7894737 L358.248,71 L379.5088,71 L379.5088,86.7894737 L358.16,86.7894737 L358.16,115.210526 L385,115.210526 L385,131 Z M342.76,129.245614 L383.24,129.245614 L383.24,116.964912 L356.488,116.964912 L356.488,85.0350877 L377.7488,85.0350877 L377.7488,72.754386 L356.4,72.754386 L356.4,45.0350877 L383.24,45.0350877 L383.24,32.754386 L342.76,32.754386 L342.76,129.245614 Z" id="Shape" fill="#231F20"></path>
                    <path d="M13,234.555556 L13,183.444444 C13,167.819444 21.3023952,159 36.5,159 C51.6976048,159 60,167.888889 60,183.444444 L60,234.555556 C60,250.180556 51.6976048,259 36.5,259 C21.3023952,259 13,250.111111 13,234.555556 Z M44.5209581,235.527778 L44.5209581,182.472222 C44.5209581,175.527778 41.4251497,172.888889 36.5,172.888889 C31.5748503,172.888889 28.4790419,175.527778 28.4790419,182.472222 L28.4790419,235.527778 C28.4790419,242.472222 31.5748503,245.111111 36.5,245.111111 C41.4251497,245.111111 44.5209581,242.472222 44.5209581,235.527778 Z" id="Shape" fill="#FFFFFF"></path>
                    <path d="M36.5267778,260 C20.936822,260 12.0002331,250.649147 12.0002331,234.373038 L12.0002331,182.626962 C11.9473811,166.298123 20.8837348,157 36.5267778,157 C52.1698208,157 61,166.298123 61,182.626962 L61,234.373038 C61,250.666724 52.0636463,260 36.5267778,260 Z M36.5267778,158.757679 C21.857001,158.757679 13.7700433,167.229693 13.7700433,182.626962 L13.7700433,234.373038 C13.7700433,249.770307 21.857001,258.242321 36.5267778,258.242321 C51.1965545,258.242321 59.2835123,249.770307 59.2835123,234.373038 L59.2835123,182.626962 C59.230425,167.229693 51.161163,158.757679 36.5267778,158.757679 L36.5267778,158.757679 Z M36.5267778,245.938567 C30.5987015,245.938567 27.5727283,242.423208 27.5727283,235.392491 L27.5727283,181.642662 C27.5727283,174.611945 30.5987015,171.096587 36.5267778,171.096587 C42.454854,171.096587 45.4808273,174.611945 45.4808273,181.642662 L45.4808273,235.357338 C45.3746528,242.370478 42.4194625,245.938567 36.5267778,245.938567 Z M36.5267778,172.819113 C31.625055,172.819113 29.3423033,175.613823 29.3423033,181.607509 L29.3423033,235.322184 C29.3423033,241.333447 31.625055,244.11058 36.5267778,244.11058 C41.4285005,244.11058 43.7112523,241.298294 43.7112523,235.322184 L43.7112523,181.642662 C43.6050778,175.613823 41.3754133,172.819113 36.5267778,172.819113 L36.5267778,172.819113 Z" id="Shape" fill="#231F20"></path>
                    <path d="M70,160 L92.8943338,160 C108.392037,160 116,168.54 116,184.22 L116,193.88 C116,209.63 108.392037,218.1 92.8943338,218.1 L85.4977029,218.1 L85.4977029,258 L70,258 L70,160 Z M92.8943338,204.1 C97.8254211,204.1 100.502297,201.86 100.502297,194.86 L100.502297,183.24 C100.502297,176.24 97.8254211,174 92.8943338,174 L85.4977029,174 L85.4977029,204.1 L92.8943338,204.1 Z" id="Shape" fill="#FFFFFF"></path>
                    <path d="M86.3707533,259 L69,259 L69,159 L92.8581979,159 C108.651403,159 117,167.77193 117,184.157895 L117,193.842105 C117,210.298246 108.651403,219 92.8581979,219 L86.3707533,219 L86.3707533,259 Z M70.7725258,257.245614 L84.5982275,257.245614 L84.5982275,217.245614 L92.8581979,217.245614 C107.711965,217.245614 115.227474,209.368421 115.227474,193.842105 L115.227474,184.157895 C115.227474,168.631579 107.711965,160.754386 92.8581979,160.754386 L70.7725258,160.754386 L70.7725258,257.245614 Z M92.8581979,204.964912 L84.5982275,204.964912 L84.5982275,173.035088 L92.8581979,173.035088 C98.7784343,173.035088 101.401773,176.157895 101.401773,183.175439 L101.401773,194.824561 C101.348597,201.842105 98.7784343,204.964912 92.8581979,204.964912 Z M86.3707533,203.210526 L92.8581979,203.210526 C96.9172821,203.210526 99.6292467,201.789474 99.6292467,194.824561 L99.6292467,183.175439 C99.6292467,176.157895 96.9172821,174.789474 92.8581979,174.789474 L86.3707533,174.789474 L86.3707533,203.210526 Z" id="Shape" fill="#231F20"></path>
                    <polygon id="Path" fill="#FFFFFF" points="125 160 167 160 167 174 140.4 174 140.4 199.9 161.5225 199.9 161.5225 213.9 140.4 213.9 140.4 244 167 244 167 258 125 258"></polygon>
                    <path d="M168,259 L124,259 L124,159 L168,159 L168,174.789474 L141.248,174.789474 L141.248,199 L162.5088,199 L162.5088,214.789474 L141.248,214.789474 L141.248,243.210526 L168,243.210526 L168,259 Z M125.76,257.245614 L166.24,257.245614 L166.24,244.964912 L139.488,244.964912 L139.488,213.035088 L160.7488,213.035088 L160.7488,200.754386 L139.488,200.754386 L139.488,173.035088 L166.24,173.035088 L166.24,160.754386 L125.76,160.754386 L125.76,257.245614 Z" id="Shape" fill="#231F20"></path>
                    <path d="M175.070796,160 L198.079646,160 C214.221239,160 221.088496,167.418675 221.088496,182.535976 L221.088496,188.554901 C221.088496,198.633101 217.831858,205.071951 210.893805,207.801464 L210.893805,208.081414 C218.681416,210.460989 221.230088,217.739689 221.230088,228.797715 L221.230088,246.01464 C221.230088,250.77379 221.371681,254.273166 223,257.912516 L207.070796,257.912516 C206.221239,255.392966 205.654867,253.85324 205.654867,245.874665 L205.654867,228.045349 C205.654867,218.946974 202.964602,216.007499 195.884956,216.007499 L190.575221,216.007499 L190.575221,258 L175,258 L175.070796,160 Z M196.309735,201.992501 C202.115044,201.992501 205.654867,199.472951 205.654867,191.634351 L205.654867,184.075701 C205.654867,177.076951 203.247788,173.9975 197.725664,173.9975 L190.646018,173.9975 L190.646018,201.992501 L196.309735,201.992501 Z" id="Shape" fill="#FFFFFF"></path>
                    <path d="M223,259 L205.673267,259 L205.482673,258.403509 C204.59901,255.736842 204.044554,254.052632 204.044554,246.122807 L204.044554,228.087719 C204.044554,219.614035 201.930693,216.894737 195.381188,216.894737 L190.980198,216.894737 L190.980198,259 L174,259 L174,159 L197.460396,159 C213.470297,159 220.920792,166.45614 220.920792,182.473684 L220.920792,188.508772 C220.920792,198.333333 217.992574,204.719298 211.980198,207.929825 C218.252475,210.701754 221.059406,217.280702 221.059406,228.982456 L221.059406,246.245614 C220.793051,250.175391 221.335873,254.118344 222.653465,257.824561 L223,259 Z M206.799505,257.245614 L220.435644,257.245614 C219.396579,253.660992 218.968831,249.923208 219.170792,246.192982 L219.170792,228.929825 C219.170792,217.192982 216.242574,211.052632 209.658416,209 L209.05198,208.807018 L209.05198,207.22807 L209.589109,207.017544 C215.94802,204.385965 219.032178,198.245614 219.032178,188.45614 L219.032178,182.421053 C219.032178,167.403509 212.326733,160.701754 197.304455,160.701754 L175.64604,160.701754 L175.64604,257.192982 L189.160891,257.192982 L189.160891,215.087719 L195.277228,215.087719 C202.883663,215.087719 205.673267,218.596491 205.673267,228.035088 L205.673267,246 C205.673267,253.245614 206.175743,255.105263 206.868812,257.245614 L206.799505,257.245614 Z M195.502475,202.859649 L189.091584,202.859649 L189.091584,173.035088 L197.009901,173.035088 C202.90099,173.035088 205.673267,176.54386 205.673267,184.017544 L205.673267,191.596491 C205.673267,199.280702 202.398515,202.859649 195.571782,202.859649 L195.502475,202.859649 Z M190.824257,201.105263 L195.502475,201.105263 C201.306931,201.105263 203.784653,198.263158 203.784653,191.596491 L203.784653,184.017544 C203.784653,177.45614 201.792079,174.789474 196.85396,174.789474 L190.789604,174.789474 L190.824257,201.105263 Z" id="Shape" fill="#231F20"></path>
                    <path d="M244.026525,160 L264.973475,160 L281,257.93005 L265.535809,257.93005 L262.724138,238.48394 L262.724138,238.76374 L245.151194,238.76374 L242.339523,258 L228,258 L244.026525,160 Z M260.896552,225.473233 L254.007958,177.067809 L253.72679,177.067809 L246.97878,225.473233 L260.896552,225.473233 Z" id="Shape" fill="#FFFFFF"></path>
                    <path d="M281,259 L264.04531,259 L261.32291,239.701754 L245.539885,239.701754 L242.783025,259 L227,259 L242.989789,159 L265.010211,159 L281,259 Z M265.492661,257.245614 L278.897894,257.245614 L263.476707,160.754386 L244.471602,160.754386 L228.964263,257.245614 L241.266752,257.245614 L244.023612,237.947368 L261.994895,237.947368 L261.994895,238.473684 L262.856414,238.473684 L265.492661,257.245614 Z M261.271219,226.526316 L245.643267,226.526316 L252.535418,176.210526 L254.258456,176.210526 L261.271219,226.526316 Z M247.60753,224.77193 L259.272495,224.77193 L253.379706,182.403509 L247.60753,224.77193 Z" id="Shape" fill="#231F20"></path>
                    <polygon id="Path" fill="#FFFFFF" points="293.235294 174 277 174 277 160 325 160 325 174 308.764706 174 308.764706 258 293.235294 258"></polygon>
                    <path d="M310.014184,259 L292.985816,259 L292.985816,174.789474 L277,174.789474 L277,159 L326,159 L326,174.789474 L310.014184,174.789474 L310.014184,259 Z M294.723404,257.245614 L308.276596,257.245614 L308.276596,173.035088 L324.262411,173.035088 L324.262411,160.754386 L278.737589,160.754386 L278.737589,173.035088 L294.723404,173.035088 L294.723404,257.245614 Z" id="Shape" fill="#231F20"></path>
                    <polygon id="Path" fill="#FFFFFF" points="332 160 347 160 347 258 332 258"></polygon>
                    <path d="M348,259 L331,259 L331,159 L348,159 L348,259 Z M332.734694,257.245614 L346.265306,257.245614 L346.265306,160.754386 L332.734694,160.754386 L332.734694,257.245614 Z" id="Shape" fill="#231F20"></path>
                    <path d="M358,234.555556 L358,183.444444 C358,167.819444 366.302395,159 381.5,159 C396.697605,159 405,167.888889 405,183.444444 L405,234.555556 C405,250.180556 396.697605,259 381.5,259 C366.302395,259 358,250.111111 358,234.555556 Z M389.520958,235.527778 L389.520958,182.472222 C389.520958,175.527778 386.42515,172.888889 381.5,172.888889 C376.57485,172.888889 373.479042,175.527778 373.479042,182.472222 L373.479042,235.527778 C373.479042,242.472222 376.57485,245.111111 381.5,245.111111 C386.42515,245.111111 389.520958,242.472222 389.520958,235.527778 Z" id="Shape" fill="#FFFFFF"></path>
                    <path d="M381.499974,260 C365.926758,260 357,250.649147 357,234.373038 L357,182.626962 C357,166.333276 365.838374,157 381.499974,157 C397.161573,157 405.999974,166.333276 405.999974,182.626962 L405.999974,234.373038 C406.017624,250.666724 397.090866,260 381.499974,260 Z M381.499974,158.757679 C366.845949,158.757679 358.767675,167.229693 358.767675,182.626962 L358.767675,234.373038 C358.767675,249.770307 366.845949,258.242321 381.499974,258.242321 C396.153999,258.242321 404.232302,249.770307 404.232302,234.373038 L404.232302,182.626962 C404.24995,167.229693 396.171675,158.757679 381.499974,158.757679 L381.499974,158.757679 Z M381.499974,245.938567 C375.560586,245.938567 372.555539,242.423208 372.555539,235.392491 L372.555539,181.642662 C372.555539,174.611945 375.560586,171.096587 381.499974,171.096587 C387.439361,171.096587 390.444486,174.611945 390.444486,181.642662 L390.444486,235.357338 C390.462085,242.370478 387.457038,245.938567 381.499974,245.938567 Z M381.499974,172.819113 C376.603514,172.819113 374.323214,175.613823 374.323214,181.607509 L374.323214,235.322184 C374.323214,241.333447 376.603514,244.11058 381.499974,244.11058 C386.396433,244.11058 388.676836,241.298294 388.676836,235.322184 L388.676836,181.642662 C388.694411,175.613823 386.41411,172.819113 381.499974,172.819113 L381.499974,172.819113 Z" id="Shape" fill="#231F20"></path>
                    <polygon id="Path" fill="#FFFFFF" points="415 160 434.557329 160 449.776488 218.66 450.060958 218.66 450.060958 160 464 160 464 258 447.998549 258 429.223512 186.46 428.939042 186.46 428.939042 258 415 258"></polygon>
                    <path d="M465,259 L447.63986,259 L430.454545,192.210526 L430.454545,259 L415,259 L415,159 L435.856643,159 L449.545455,212.807018 L449.545455,159 L465,159 L465,259 Z M449.003497,257.245614 L463.251748,257.245614 L463.251748,160.754386 L451.293706,160.754386 L451.293706,219.508772 L449.458042,219.508772 L434.493007,160.701754 L416.748252,160.701754 L416.748252,257.192982 L428.706294,257.192982 L428.706294,185.526316 L430.541958,185.526316 L449.003497,257.245614 Z" id="Shape" fill="#231F20"></path>
                    <path d="M472,234.555556 L472,229 L486.590926,229 L486.590926,235.666667 C486.590926,242.611111 489.677469,245.111111 494.587876,245.111111 C499.498284,245.111111 502.584827,242.611111 502.584827,235.388889 C502.584827,227.333333 499.498284,222.194444 489.396874,213.444444 C476.489516,202.194444 472.280595,194.347222 472.280595,183.166667 C472.280595,167.888889 480.277545,159 495.289363,159 C510.301182,159 517.719405,167.888889 517.719405,183.444444 L517.719405,187.472222 L503.128479,187.472222 L503.128479,182.472222 C503.128479,175.527778 500.322531,172.888889 495.412124,172.888889 C490.501716,172.888889 487.695768,175.527778 487.695768,182.194444 C487.695768,189.277778 490.922608,194.347222 501.024018,203.166667 C513.931376,214.416667 518,222.263889 518,234.277778 C518,250.111111 509.862753,259 494.710637,259 C479.558521,259 472,250.111111 472,234.555556 Z" id="Path" fill="#FFFFFF"></path>
                    <path d="M494.718062,260 C479.422907,260 471,250.899881 471,234.38615 L471,227.833362 L487.422907,227.833362 L487.422907,235.457786 C487.422907,241.465973 489.625551,244.136278 494.577093,244.136278 C497.907489,244.136278 501.731278,243.117346 501.731278,235.176701 C501.731278,227.236057 498.700441,222.281938 488.779736,213.621013 C475.863436,202.289783 471.281938,194.103189 471.281938,182.332765 C471.281938,166.223094 480.092511,157 495.281938,157 C510.471366,157 518.718062,166.100119 518.718062,182.61385 L518.718062,187.567969 L502.295154,187.567969 L502.295154,181.630053 C502.295154,173.812383 498.612335,172.846154 495.422907,172.846154 C490.665198,172.846154 488.550661,175.481324 488.550661,181.384104 C488.550661,188.305816 491.722467,193.295071 501.643172,201.938427 C514.612335,213.339928 519,221.438683 519,234.087498 C519,250.794474 510.365639,260 494.718062,260 Z M472.762115,229.590142 L472.762115,234.333447 C472.762115,249.933652 480.356828,258.190517 494.718062,258.190517 C509.079295,258.190517 517.237885,249.617431 517.237885,234.052362 C517.237885,221.86031 513.167401,214.358861 500.480176,203.220877 C490.118943,194.191028 486.788546,188.867986 486.788546,181.348968 C486.788546,174.515095 489.696035,171.054238 495.422907,171.054238 C501.14978,171.054238 504.057269,174.567798 504.057269,181.594917 L504.057269,185.776053 L516.955947,185.776053 L516.955947,182.578714 C516.955947,166.960941 509.449339,158.721644 495.281938,158.721644 C481.114537,158.721644 473.044053,167.083916 473.044053,182.297629 C473.044053,193.470749 477.46696,201.323554 489.942731,212.268293 C500.321586,221.333276 503.493392,226.673887 503.493392,235.10643 C503.493392,242.309227 500.568282,245.822787 494.577093,245.822787 C488.585903,245.822787 485.660793,242.309227 485.660793,235.387515 L485.660793,229.590142 L472.762115,229.590142 Z" id="Shape" fill="#231F20"></path>
                    <polyline id="Path" fill="#FFFFFF" points="458.064777 16 473 64.8335589 439 68"></polyline>
                    <polygon id="Path" fill="#231F20" points="439.086978 68 439 67.1298527 472.851889 64.0495315 457.909046 16.2610442 458.744036 16 474 64.815261"></polygon>
                    <path d="M413.007694,48.8170732 L438.71511,68 L438.71511,68 L458,16 C458,16 458,16 457.913443,16 L413.007694,48.7818428 C413.007694,48.7818428 412.990383,48.8170732 413.007694,48.8170732 Z" id="Path" fill="#3E959A"></path>
                    <path d="M438.738328,68 L438.543675,67.8944924 L412,48.5514267 L412,48.0414731 L412.230045,47.9007963 L458.416039,15 L459,15.4044459 L458.893825,15.756138 L439.127636,67.8417386 L438.738328,68 Z M413.221009,48.3404114 L438.579066,66.8218315 L457.602033,16.6529529 L413.221009,48.3404114 Z" id="Shape" fill="#231F20"></path>
                </g>
            </g>
        </g>
    </g>
</svg>