<svg xmlns="http://www.w3.org/2000/svg" width="243" height="33" viewBox="0 0 486 65"><style>.a{fill:#FFFFFE;}</style><g fill="none"><path d="M151.9 29.5L146.9 43.3 156.9 43.3 151.9 29.5ZM160.8 54.7L158.8 49.3 145 49.3 143 54.7 135.3 54.7 147.6 22.7 156.2 22.7 168.5 54.7 160.8 54.7 160.8 54.7Z" class="a"/><path d="M182.3 38.7C182.3 28.8 189.7 22.1 199.4 22.1 206.4 22.1 210.5 25.9 212.7 30L206.9 32.8C205.5 30.2 202.6 28.2 199.4 28.2 193.5 28.2 189.3 32.6 189.3 38.7 189.3 44.7 193.5 49.2 199.4 49.2 202.6 49.2 205.5 47.1 206.9 44.6L212.7 47.4C210.5 51.4 206.4 55.3 199.4 55.3 189.7 55.3 182.3 48.5 182.3 38.7" class="a"/><polyline points="216.3 54.7 216.3 22.7 223.1 22.7 223.1 48.7 236.7 48.7 236.7 54.7 216.3 54.7" class="a"/><path d="M264.4 38.7C264.4 32.7 260.6 28.2 254.7 28.2 248.7 28.2 244.9 32.7 244.9 38.7 244.9 44.6 248.7 49.2 254.7 49.2 260.6 49.2 264.4 44.6 264.4 38.7ZM237.9 38.7C237.9 29 245 22.1 254.7 22.1 264.3 22.1 271.4 29 271.4 38.7 271.4 48.3 264.3 55.3 254.7 55.3 245 55.3 237.9 48.3 237.9 38.7L237.9 38.7Z" class="a"/><path d="M275.7 41.9L275.7 22.7 282.6 22.7 282.6 41.7C282.6 46.1 285.2 49.2 290.1 49.2 295.1 49.2 297.6 46.1 297.6 41.7L297.6 22.7 304.6 22.7 304.6 41.9C304.6 49.8 299.9 55.3 290.1 55.3 280.4 55.3 275.7 49.8 275.7 41.9" class="a"/><path d="M333.3 38.6C333.3 33 329.9 28.7 323.3 28.7L317.5 28.7 317.5 48.7 323.3 48.7C329.6 48.7 333.3 44.1 333.3 38.6ZM310.7 54.7L310.7 22.7 323.3 22.7C333.3 22.7 340.3 29 340.3 38.6 340.3 48.3 333.3 54.7 323.3 54.7L310.7 54.7 310.7 54.7Z" class="a"/><path d="M355.9 38.7C355.9 28.6 363.6 22.1 373 22.1 379.6 22.1 383.8 25.5 386.2 29.3L380.6 32.4C379.1 30.1 376.4 28.2 373 28.2 367.2 28.2 362.9 32.6 362.9 38.7 362.9 44.7 367.2 49.2 373 49.2 375.8 49.2 378.5 48 379.8 46.8L379.8 42.9 371.3 42.9 371.3 37 386.6 37 386.6 49.3C383.3 52.9 378.8 55.3 373 55.3 363.6 55.3 355.9 48.8 355.9 38.7" class="a"/><path d="M391.6 41.9L391.6 22.7 398.6 22.7 398.6 41.7C398.6 46.1 401.1 49.2 406.1 49.2 411 49.2 413.6 46.1 413.6 41.7L413.6 22.7 420.5 22.7 420.5 41.9C420.5 49.8 415.8 55.3 406.1 55.3 396.3 55.3 391.6 49.8 391.6 41.9" class="a"/><path d="M445.4 32.9C445.4 30.3 443.3 28.7 440.6 28.7L433.4 28.7 433.4 37.3 440.6 37.3C443.3 37.3 445.4 35.7 445.4 32.9ZM444.7 54.7L438.4 43.3 433.4 43.3 433.4 54.7 426.6 54.7 426.6 22.7 441.6 22.7C448.3 22.7 452.4 27 452.4 33 452.4 38.6 448.8 41.7 445.3 42.5L452.6 54.7 444.7 54.7 444.7 54.7Z" class="a"/><path d="M456.8 41.9L456.8 22.7 463.7 22.7 463.7 41.7C463.7 46.1 466.3 49.2 471.2 49.2 476.2 49.2 478.7 46.1 478.7 41.7L478.7 22.7 485.7 22.7 485.7 41.9C485.7 49.8 481 55.3 471.2 55.3 461.5 55.3 456.8 49.8 456.8 41.9" class="a"/><path d="M37.8 48.9C38 48.1 38.2 47.3 38.3 46.5L39.8 46.7C39.7 47.8 39.4 48.9 39.1 50L37.6 49.5C37.7 49.4 37.7 49.2 37.7 49.1L37.7 49.1C37.7 49.1 37.7 49.1 37.7 49.1 37.7 49.1 37.7 49.1 37.7 49.1 37.7 49.1 37.7 49.1 37.7 49.1 37.7 49.1 37.7 49.1 37.7 49.1 37.7 49.1 37.7 49.1 37.7 49.1 37.7 49.1 37.7 49.1 37.7 49.1 37.7 49.1 37.7 49.1 37.7 49 37.7 49 37.7 49 37.7 49 37.7 49 37.7 49 37.7 49 37.7 49 37.7 49 37.7 49 37.7 49 37.8 49 37.8 49 37.8 49 37.8 49 37.8 49 37.8 49 37.8 49 37.8 49 37.8 49 37.8 49 37.8 49 37.8 49 37.8 49 37.8 49 37.8 49 37.8 49 37.8 49 37.8 49 37.8 49 37.8 49 37.8 49 37.8 49 37.8 49 37.8 49 37.8 49 37.8 49 37.8 49 37.8 49 37.8 49 37.8 49 37.8 49 37.8 49 37.8 49 37.8 49 37.8 49 37.8 49 37.8 49 37.8 48.9 37.8 48.9 37.8 48.9 37.8 48.9 37.8 48.9 37.8 48.9 37.8 48.9 37.8 48.9 37.8 48.9 37.8 48.9 37.8 48.9 37.8 48.9 37.8 48.9 37.8 48.9 37.8 48.9 37.8 48.9 37.8 48.9 37.8 48.9 37.8 48.9 37.8 48.9 37.8 48.9 37.8 48.9 37.8 48.9 37.8 48.9 37.8 48.9 37.8 48.9 37.8 48.9 37.8 48.9 37.8 48.9 37.8 48.9 37.8 48.9 37.8 48.9 37.8 48.9 37.8 48.9 37.8 48.9 37.8 48.9 37.8 48.9 37.8 48.9 37.8 48.9 37.8 48.9L37.8 48.9C37.8 48.9 37.8 48.9 37.8 48.9 37.8 48.9 37.8 48.9 37.8 48.9ZM38.3 36.8L36.9 37.4C36.4 36.5 35.9 35.6 35.3 34.7L36.6 33.8C37.2 34.8 37.8 35.8 38.3 36.8ZM34.4 31.3L33.3 32.4C32.6 31.7 31.8 31 30.9 30.4L31.8 29.2C32.7 29.8 33.6 30.5 34.4 31.3ZM36.4 52.4L37.8 53.1C37.2 54.1 36.6 55 35.9 55.9L34.7 54.9C34.7 54.9 34.7 54.9 34.7 54.9 34.7 54.9 34.7 54.9 34.7 54.9 34.7 54.9 34.7 54.9 34.7 54.9 34.7 54.9 34.7 54.9 34.7 54.9 34.7 54.9 34.7 54.9 34.7 54.9 34.7 54.9 34.7 54.9 34.7 54.9 34.7 54.9 34.7 54.9 34.7 54.9 34.7 54.9 34.7 54.9 34.7 54.9 34.7 54.9 34.7 54.9 34.7 54.9 34.7 54.9 34.7 54.9 34.7 54.9 34.8 54.9 34.8 54.9 34.8 54.9 34.8 54.9 34.8 54.9 34.8 54.9 34.8 54.9 34.8 54.9 34.8 54.9 34.8 54.9 34.8 54.9 34.8 54.9 34.8 54.9 34.8 54.9 34.8 54.9 34.8 54.9 34.8 54.9 34.8 54.9 34.8 54.9 34.8 54.9 34.8 54.9 34.8 54.9 34.8 54.9 34.8 54.9 34.8 54.9 34.8 54.9 34.8 54.9 34.8 54.8 34.8 54.8 34.8 54.8 34.8 54.8 34.8 54.8 34.8 54.8 34.8 54.8 34.8 54.8 34.8 54.8 34.8 54.8 34.8 54.8 34.8 54.8 34.8 54.8 34.8 54.8 34.8 54.8 34.8 54.8 34.8 54.8 34.8 54.8 34.8 54.8 34.8 54.8 34.8 54.8 34.8 54.8 34.8 54.8 34.8 54.8 34.8 54.8 34.8 54.8 34.8 54.8 34.8 54.8 34.8 54.8 34.8 54.8 34.8 54.8 34.8 54.8 34.8 54.8 34.8 54.8 34.8 54.8 34.8 54.8 34.8 54.8 34.8 54.8 34.8 54.8 34.8 54.8 34.8 54.8 34.8 54.8 34.8 54.8 34.8 54.8 34.8 54.8 34.8 54.8 34.8 54.8 34.8 54.8 34.9 54.8 34.9 54.8 34.9 54.8 34.9 54.8 34.9 54.7 34.9 54.7 34.9 54.7 34.9 54.7 34.9 54.7 34.9 54.7 34.9 54.7 34.9 54.7 34.9 54.7 34.9 54.7 34.9 54.7 34.9 54.7 34.9 54.7 34.9 54.7 34.9 54.7 34.9 54.7 34.9 54.7 34.9 54.7 34.9 54.7 34.9 54.7 34.9 54.7 34.9 54.7 34.9 54.7 34.9 54.7 34.9 54.7 34.9 54.7 34.9 54.7 34.9 54.7 34.9 54.7 34.9 54.7 34.9 54.7 34.9 54.7 34.9 54.7 34.9 54.7 34.9 54.7 34.9 54.7 34.9 54.7 34.9 54.7 34.9 54.7 34.9 54.7 34.9 54.7 34.9 54.7 34.9 54.7 34.9 54.7 34.9 54.7 34.9 54.7 34.9 54.7 34.9 54.7 34.9 54.7 34.9 54.7 34.9 54.7 34.9 54.7 34.9 54.7 34.9 54.7 34.9 54.7 34.9 54.7 34.9 54.7 34.9 54.7 34.9 54.7 34.9 54.7 34.9 54.7 34.9 54.6 34.9 54.6 34.9 54.6 34.9 54.6 34.9 54.6 34.9 54.6 34.9 54.6 34.9 54.6 34.9 54.6 34.9 54.6 35 54.6 35 54.6 35 54.6 35 54.6 35 54.6 35 54.6 35 54.6 35 54.6 35 54.6 35 54.6 35 54.6 35 54.6 35 54.6 35 54.6 35 54.6 35 54.6 35 54.6 35 54.6 35 54.6 35 54.6 35 54.6 35 54.6 35 54.6 35 54.6 35 54.6 35 54.6 35 54.6 35 54.6 35 54.6 35 54.6 35 54.5 35.1 54.5 35.1 54.4 35.4 54 35.7 53.6 35.9 53.1L35.2 53.8C34.5 53 33.8 52.2 33.1 51.3L34.3 50.4C34.5 50.7 34.8 50.9 35 51.2L35 51.2C35 51.2 35 51.2 35 51.2L35 51.2C35 51.2 35 51.2 35 51.2L35 51.2C35 51.2 35 51.2 35 51.2L35 51.2C35 51.2 35 51.2 35 51.3L35 51.3C35 51.3 35 51.3 35 51.3 35 51.3 35 51.3 35 51.3 35 51.3 35 51.3 35.1 51.3L35.1 51.3C35.1 51.3 35.1 51.3 35.1 51.3 35.1 51.3 35.1 51.3 35.1 51.3 35.1 51.3 35.1 51.3 35.1 51.3L35.1 51.3C35.1 51.3 35.1 51.3 35.1 51.3 35.1 51.3 35.1 51.3 35.1 51.3 35.1 51.3 35.1 51.3 35.1 51.3 35.1 51.3 35.1 51.3 35.1 51.3 35.1 51.3 35.1 51.3 35.1 51.3 35.1 51.3 35.1 51.3 35.1 51.3 35.1 51.3 35.1 51.3 35.1 51.3 35.1 51.3 35.1 51.4 35.1 51.4 35.1 51.4 35.1 51.4 35.1 51.4 35.1 51.4 35.1 51.4 35.1 51.4 35.1 51.4 35.1 51.4 35.1 51.4 35.1 51.4 35.1 51.4 35.1 51.4 35.1 51.4 35.1 51.4 35.1 51.4 35.1 51.4 35.1 51.4 35.1 51.4 35.1 51.4 35.1 51.4 35.1 51.4 35.1 51.4 35.1 51.4 35.1 51.4 35.1 51.4 35.1 51.4 35.1 51.4 35.1 51.4 35.1 51.4 35.1 51.4 35.1 51.4 35.1 51.4 35.1 51.4 35.1 51.4 35.1 51.4 35.1 51.4 35.2 51.4 35.2 51.4 35.2 51.4 35.2 51.4 35.2 51.4 35.2 51.4 35.2 51.4 35.2 51.4 35.2 51.4 35.2 51.4 35.2 51.4 35.2 51.4 35.2 51.4 35.2 51.4 35.2 51.4 35.2 51.4 35.2 51.4 35.2 51.4 35.2 51.4 35.2 51.4 35.2 51.4 35.2 51.4 35.2 51.4 35.2 51.4 35.2 51.4 35.2 51.4 35.2 51.5 35.2 51.5 35.2 51.5 35.2 51.5 35.2 51.5 35.2 51.5 35.2 51.5 35.2 51.5 35.2 51.5 35.2 51.5 35.2 51.5 35.2 51.5 35.2 51.5 35.2 51.5 35.2 51.5 35.2 51.5 35.2 51.5 35.2 51.5 35.2 51.5 35.2 51.5 35.2 51.5 35.2 51.5 35.2 51.5 35.2 51.5 35.2 51.5 35.2 51.5 35.2 51.5 35.2 51.5 35.2 51.5 35.2 51.5 35.2 51.5 35.2 51.5 35.2 51.5 35.2 51.5 35.2 51.5 35.2 51.5 35.2 51.5 35.2 51.5 35.2 51.5 35.2 51.5 35.2 51.5 35.2 51.5 35.2 51.5 35.2 51.5 35.2 51.5 35.3 51.5 35.3 51.5 35.3 51.5 35.3 51.5 35.3 51.5 35.3 51.5 35.3 51.5 35.3 51.5 35.3 51.5 35.3 51.5 35.3 51.5 35.3 51.5 35.3 51.5 35.3 51.6 35.3 51.6 35.3 51.6 35.3 51.6 35.3 51.6 35.3 51.6 35.3 51.6 35.3 51.6 35.3 51.6 35.3 51.6 35.3 51.6 35.3 51.6 35.3 51.6 35.3 51.6 35.3 51.6 35.3 51.6 35.3 51.6 35.3 51.6 35.3 51.6 35.3 51.6 35.3 51.6 35.3 51.6 35.3 51.6 35.4 51.6 35.4 51.6 35.4 51.6 35.4 51.6 35.4 51.6 35.4 51.7 35.4 51.7 35.4 51.7 35.4 51.7 35.4 51.7 35.4 51.7 35.4 51.7 35.4 51.7 35.4 51.7 35.4 51.7 35.4 51.8 35.4 51.8 35.5 51.8 35.5 51.8 35.5 51.8 35.5 51.8 35.5 51.8 35.5 51.8 35.5 51.8 35.5 51.8 35.5 51.8 35.5 51.8 35.5 51.8 35.5 51.8 35.5 51.8 35.5 51.8 35.5 51.8 35.5 51.8 35.5 51.8 35.5 51.8 35.5 51.8 35.5 51.8 35.5 51.8 35.5 51.9 35.5 51.9 35.5 51.9 35.5 51.9 35.5 51.9 35.5 51.9 35.5 51.9 35.5 51.9 35.5 51.9 35.5 51.9 35.6 51.9 35.6 51.9 35.6 51.9 35.6 51.9 35.6 51.9 35.6 51.9 35.6 51.9 35.6 51.9 35.6 51.9 35.6 51.9 35.6 51.9 35.6 51.9 35.6 51.9 35.6 51.9 35.6 51.9 35.6 51.9 35.6 51.9 35.6 51.9 35.6 51.9 35.6 51.9 35.6 51.9 35.6 51.9 35.6 51.9 35.6 51.9 35.6 51.9 35.6 51.9 35.6 51.9 35.6 51.9 35.6 51.9 35.6 51.9 35.6 51.9 35.6 51.9 35.6 51.9 35.6 51.9 35.6 51.9 35.6 52 35.6 52 35.6 52 35.6 52 35.6 52 35.6 52 35.6 52 35.6 52 35.6 52 35.6 52 35.6 52 35.6 52 35.6 52 35.6 52 35.6 52 35.7 52 35.7 52 35.7 52 35.7 52 35.7 52 35.7 52 35.7 52 35.7 52 35.7 52 35.7 52 35.7 52 35.7 52 35.7 52 35.7 52 35.7 52 35.7 52 35.7 52 35.7 52 35.7 52 35.7 52 35.7 52 35.7 52 35.7 52 35.7 52 35.7 52 35.7 52 35.7 52 35.7 52 35.7 52 35.7 52 35.7 52 35.7 52 35.7 52 35.7 52 35.7 52 35.7 52 35.7 52.1 35.7 52.1 35.7 52.1 35.7 52.1 35.7 52.1 35.7 52.1 35.7 52.1 35.7 52.1 35.7 52.1 35.7 52.1 35.7 52.1 35.7 52.1 35.7 52.1 35.7 52.1 35.7 52.1 35.7 52.1 35.7 52.1 35.7 52.1 35.7 52.1 35.7 52.1 35.7 52.1 35.7 52.1 35.7 52.1 35.7 52.1 35.7 52.1 35.7 52.1 35.7 52.1 35.7 52.1 35.7 52.1 35.7 52.1 35.7 52.1 35.7 52.1 35.8 52.1 35.8 52.1 35.8 52.1 35.8 52.1 35.8 52.1 35.8 52.1 35.8 52.1 35.8 52.1 35.8 52.1 35.8 52.1 35.8 52.1 35.8 52.1 35.8 52.1 35.8 52.1 35.8 52.1 35.8 52.1 35.8 52.1 35.8 52.1 35.8 52.1 35.8 52.1 35.8 52.1 35.8 52.1 35.8 52.1 35.8 52.1 35.8 52.1 35.8 52.1 35.8 52.1 35.8 52.1 35.8 52.1 35.8 52.2 35.8 52.2 35.8 52.2 35.8 52.2 35.8 52.2 35.8 52.2 35.8 52.2 35.8 52.2 35.8 52.2 35.8 52.2 35.8 52.2 35.8 52.2 35.8 52.2 35.8 52.2 35.8 52.2 35.8 52.2 35.8 52.2 35.8 52.2 35.8 52.2L35.8 52.2C35.8 52.2 35.8 52.2 35.9 52.2L35.9 52.2C35.9 52.2 35.9 52.2 35.9 52.2L35.9 52.2C35.9 52.2 35.9 52.2 35.9 52.2L35.9 52.2C36 52.4 36.1 52.5 36.3 52.6 36.3 52.6 36.3 52.6 36.3 52.6 36.3 52.6 36.3 52.6 36.3 52.6 36.3 52.6 36.3 52.6 36.3 52.6 36.3 52.6 36.3 52.6 36.3 52.6 36.3 52.6 36.3 52.6 36.3 52.6 36.3 52.6 36.3 52.6 36.3 52.6 36.3 52.6 36.3 52.6 36.3 52.6 36.3 52.6 36.3 52.6 36.3 52.6 36.3 52.6 36.3 52.6 36.3 52.6 36.3 52.6 36.3 52.6 36.3 52.6 36.3 52.6 36.3 52.6 36.3 52.6 36.3 52.6 36.3 52.6 36.3 52.6 36.3 52.6 36.3 52.6 36.3 52.6 36.3 52.6 36.3 52.6 36.3 52.6 36.3 52.6 36.3 52.6 36.3 52.6 36.3 52.6 36.3 52.6 36.3 52.6 36.3 52.6 36.3 52.5 36.3 52.5 36.3 52.5 36.3 52.5 36.3 52.5 36.3 52.5 36.3 52.5 36.3 52.5 36.3 52.5 36.3 52.5 36.3 52.5 36.3 52.5 36.3 52.5 36.3 52.5 36.3 52.5 36.3 52.5 36.3 52.5 36.3 52.5 36.3 52.5 36.3 52.5 36.3 52.5 36.3 52.5 36.3 52.5 36.3 52.5 36.3 52.5 36.3 52.5 36.3 52.5 36.3 52.5 36.3 52.5 36.3 52.5 36.3 52.5 36.3 52.5 36.3 52.5 36.3 52.5 36.3 52.5 36.4 52.4 36.4 52.4 36.4 52.4ZM30.1 59C31 58.4 31.8 57.8 32.6 57.2L33.6 58.3C32.7 59.1 31.8 59.7 30.8 60.3L30.1 59ZM75.6 20.6L75.5 20.6 74.8 19 74.9 19C75.9 18.5 76.9 18.1 78 17.8L78.1 17.8 78.6 19.5 78.5 19.5C77.5 19.8 76.6 20.1 75.6 20.6ZM72.7 22.2L72.7 22.2 72.5 22.4 72.5 22.4 72.5 22.4 72.5 22.4 72.5 22.4 72.5 22.4 72.4 22.4 72.4 22.5 72.3 22.5 72.2 22.6C72.2 22.6 72.2 22.6 72.2 22.6L72.1 22.6C72.1 22.6 72.1 22.6 72.1 22.6 72.1 22.7 72.1 22.7 72.1 22.7 72.1 22.7 72 22.7 72 22.7L72 22.7C72 22.7 72 22.7 72 22.8L71.9 22.8C71.9 22.8 71.9 22.8 71.9 22.8 71.9 22.8 71.9 22.8 71.8 22.8L71.7 23 71.7 23 71.6 23 71.6 23 71.6 23.1 71.6 23.1 71.6 23.1 71.5 23.1 71.5 23.1 71.4 23.2 71.4 23.3 71.3 23.3 71.3 23.3 71.3 23.3 71.3 23.3 71.2 23.4 71.1 23.4 71 23.5C71 23.5 71 23.5 71 23.5L71 23.5 70.9 23.5 70.9 23.6C70.9 23.6 70.9 23.6 70.9 23.6L70.9 23.6C70.8 23.7 70.6 23.8 70.5 23.9L70.4 24 69.2 22.7 69.3 22.6C70.1 21.9 71 21.2 72 20.6L72.1 20.5 73 22 72.9 22.1 72.9 22.2 72.8 22.2 72.8 22.2 72.7 22.2ZM66.5 28.7L66.4 28.6 65 27.8 65 27.7C65.6 26.7 66.3 25.8 67 25L67.1 24.9 68.4 26.1 68.3 26.1 68.3 26.2 68.3 26.2C68.3 26.2 68.3 26.2 68.3 26.2L68.3 26.2C68.3 26.2 68.3 26.2 68.3 26.2 68.3 26.2 68.3 26.2 68.3 26.2L68.2 26.3 68.2 26.4 68.2 26.4 68.2 26.4 68.1 26.4 68.1 26.5 68 26.5C67.5 27.2 67 27.9 66.5 28.6L66.5 28.7ZM64 34.3L63.9 34.3 62.3 33.9 62.3 33.8C62.6 32.7 63 31.6 63.5 30.6L63.5 30.5 65.1 31.2 65.1 31.3C64.7 32.2 64.3 33.2 64.1 34.1L64 34.2 64 34.3ZM63.3 40.3L63.3 40.4 61.5 40.5 61.5 40.4C61.5 39.9 61.5 39.3 61.5 38.9 61.6 38.2 61.6 37.6 61.7 37L61.7 36.9 63.5 37.1 63.4 37.2C63.4 37.8 63.3 38.3 63.3 38.8L63.3 38.9C63.3 38.9 63.3 38.9 63.3 39L63.3 39C63.3 39.4 63.3 39.9 63.3 40.3ZM64.3 46.5L64.2 46.5 62.6 47 62.6 46.9C62.2 45.8 62 44.8 61.8 43.7L61.8 43.6 61.9 43.5 63.5 43.3 63.6 43.4C63.7 44.4 64 45.4 64.3 46.4L64.3 46.5ZM66.5 51.1C66.6 51.4 66.8 51.7 67 51.9L67 52 65.5 53 65.5 52.9C64.9 52 64.3 51 63.8 50L63.8 49.9 65.4 49.1 65.4 49.2C65.5 49.4 65.5 49.5 65.6 49.7L65.6 49.7 65.7 49.7 65.7 49.7 65.7 49.7 65.7 49.8 65.7 49.8 65.7 49.8 65.8 49.8 65.8 49.9 65.8 49.9 65.8 49.9 65.9 50.1 65.9 50.1 66 50.3 66 50.3 66.1 50.6 66.2 50.6 66.2 50.6 66.2 50.6 66.2 50.7 66.2 50.7 66.2 50.8 66.3 50.8 66.3 50.8 66.3 50.8 66.3 50.8 66.3 50.8 66.3 50.8 66.3 50.8 66.3 50.8 66.3 50.9 66.4 51 66.4 51.1 66.4 51.1 66.4 51.1 66.4 51.1 66.4 51.1 66.4 51.1 66.5 51.1ZM75.5 59.2C75.8 59.3 76.1 59.5 76.4 59.6L76.5 59.6 75.8 61.3 75.7 61.2C74.7 60.8 73.7 60.3 72.7 59.7L72.6 59.7 73.5 58.1 73.9 58.4 73.9 58.4 74 58.4 74.1 58.5 74.3 58.6 74.3 58.6 74.3 58.6 74.4 58.6 74.4 58.6 74.4 58.6 74.5 58.7 74.5 58.7 74.6 58.7 74.6 58.8 74.6 58.8 74.6 58.8 74.7 58.8 74.8 58.8 74.8 58.9 74.9 58.9 74.9 58.9 75 59 75.1 59 75.1 59 75.1 59 75.1 59 75.2 59 75.2 59.1 75.3 59.1 75.4 59.1 75.4 59.2 75.5 59.2ZM84.3 31.7L85.8 31.6C85.9 32.2 85.9 32.9 85.9 33.5 85.9 33.9 85.9 34.4 85.9 34.8L84.3 34.8C84.3 34.8 84.3 34.8 84.3 34.7L84.3 34.7C84.3 34.7 84.3 34.7 84.3 34.7 84.3 34.7 84.3 34.7 84.3 34.7 84.3 34.7 84.3 34.7 84.3 34.7 84.3 34.7 84.3 34.7 84.3 34.7 84.3 34.7 84.3 34.7 84.3 34.7 84.3 34.6 84.3 34.6 84.3 34.6 84.3 34.6 84.3 34.6 84.3 34.6 84.3 34.6 84.3 34.6 84.3 34.6 84.3 34.6 84.3 34.6 84.3 34.6 84.3 34.6 84.3 34.6 84.3 34.6 84.3 34.6 84.3 34.6 84.3 34.6 84.3 34.6 84.3 34.6 84.3 34.6 84.3 34.6 84.3 34.6 84.3 34.6 84.3 34.6 84.3 34.6 84.3 34.6 84.3 34.6 84.3 34.6 84.3 34.6 84.3 34.6 84.3 34.5 84.3 34.5 84.3 34.5 84.3 34.5 84.3 34.5 84.3 34.5 84.3 34.5 84.3 34.5 84.3 34.5 84.3 34.5 84.3 34.5 84.3 34.5 84.3 34.5 84.3 34.5 84.3 34.5 84.3 34.5 84.3 34.5 84.3 34.5 84.3 34.5 84.3 34.5 84.3 34.5 84.3 34.5 84.3 34.5 84.3 34.5 84.3 34.5 84.3 34.5 84.3 34.5 84.3 34.5 84.3 34.5 84.3 34.4 84.3 34.4 84.3 34.4 84.3 34.4 84.3 34.4 84.3 34.4 84.3 34.4 84.3 34.4 84.3 34.4 84.3 34.4 84.3 34.4 84.3 34.4 84.3 34.4 84.3 34.4 84.3 34.4 84.3 34.4 84.3 34.4 84.3 34.4 84.3 34.4 84.3 34.4 84.3 34.4 84.3 34.4 84.3 34.4 84.3 34.4 84.3 34.4 84.3 34.4 84.3 34.4 84.3 34.4 84.3 34.4 84.3 34.4 84.3 34.4 84.3 34.3 84.3 34.3 84.3 34.3 84.3 34.3 84.3 34.3 84.3 34.3 84.3 34.3 84.3 34.3 84.3 34.3 84.3 34.3 84.3 34.3 84.3 34.3 84.3 34.3 84.3 34.3 84.3 34.3 84.3 34.3 84.3 34.3 84.3 34.3 84.3 34.3 84.3 34.3 84.3 34.3 84.3 34.3 84.3 34.3 84.3 34.3 84.3 34.3 84.3 34.3 84.3 34.3 84.3 34.3 84.3 34.3 84.3 34.2 84.3 34.2 84.3 34.2 84.3 34.2 84.3 34.2 84.3 34.2 84.3 34.2 84.3 34.2 84.3 34.2 84.3 34.2 84.3 34.2 84.3 34.2 84.3 34.2 84.3 34.2 84.3 34.2 84.3 34.2 84.3 34.2 84.3 34.2 84.3 34.2 84.3 34.2 84.3 34.2 84.3 34.2 84.3 34.2 84.3 34.2 84.3 34.2 84.3 34.2 84.3 34.2 84.3 34.2 84.3 34.2 84.3 34.2 84.3 34.1 84.3 34.1 84.3 34.1 84.3 34.1 84.3 34.1 84.3 34.1 84.3 34.1 84.3 34.1 84.3 34.1 84.3 34.1 84.3 34.1 84.3 34.1 84.3 34.1 84.3 34.1 84.3 34.1 84.3 34.1 84.3 34.1 84.3 34.1 84.3 34.1 84.3 34.1 84.3 34.1 84.3 34.1 84.3 34.1 84.3 34.1 84.3 34.1 84.3 34.1 84.3 34.1 84.3 34.1 84.3 34.1 84.3 34.1 84.3 34 84.3 34 84.3 34 84.3 34 84.3 34 84.3 34 84.3 34 84.3 34 84.3 34 84.3 34 84.3 34 84.3 34 84.3 34 84.3 34 84.3 34 84.3 34 84.3 34 84.3 34 84.3 34 84.3 34 84.3 34 84.3 34 84.3 34 84.3 34 84.3 34 84.3 34 84.3 34 84.3 34 84.3 34 84.3 34 84.3 33.9 84.3 33.9 84.3 33.9 84.3 33.9 84.3 33.9 84.3 33.9 84.3 33.9 84.3 33.9 84.3 33.9 84.3 33.9 84.3 33.9 84.3 33.9 84.3 33.9 84.3 33.9 84.3 33.9 84.3 33.9 84.3 33.9 84.3 33.9 84.3 33.9 84.3 33.9 84.3 33.9 84.3 33.9 84.3 33.9 84.3 33.9 84.3 33.9 84.3 33.9 84.3 33.9 84.3 33.9 84.3 33.9 84.3 33.9 84.3 33.9 84.3 33.8 84.3 33.8 84.3 33.8 84.3 33.8 84.3 33.8 84.3 33.8 84.3 33.8 84.3 33.8 84.3 33.8 84.3 33.8 84.3 33.8 84.3 33.8 84.3 33.8 84.3 33.8 84.3 33.8 84.3 33.8 84.3 33.8 84.3 33.8 84.3 33.8 84.3 33.8 84.3 33.8 84.3 33.8 84.3 33.8 84.3 33.8 84.3 33.8 84.3 33.8 84.3 33.8 84.3 33.8 84.3 33.8 84.3 33.8 84.3 33.7 84.3 33.7 84.3 33.7 84.3 33.7 84.3 33.7 84.3 33.7 84.3 33.7 84.3 33.7 84.3 33.7 84.3 33.7 84.3 33.7 84.3 33.7 84.3 33.7 84.3 33.7 84.3 33.7 84.3 33.7 84.3 33.7 84.4 33.7 84.4 33.7 84.4 33.7 84.4 33.7 84.4 33.7 84.4 33.7 84.4 33.7 84.4 33.7 84.4 33.7 84.4 33.7 84.4 33.7 84.4 33.7 84.4 33.6 84.4 33.6 84.4 33.6 84.4 33.6 84.4 33.6 84.4 33.6 84.4 33.6 84.4 33.6 84.4 33.6 84.4 33.6 84.4 33.6 84.4 33.6 84.4 33.6 84.4 33.6 84.4 33.6L84.4 33.6C84.4 33.6 84.4 33.6 84.4 33.6 84.4 33.6 84.4 33.6 84.4 33.6 84.4 33.6 84.4 33.6 84.4 33.6 84.4 33.6 84.4 33.6 84.4 33.6 84.4 33.5 84.4 33.5 84.4 33.5 84.4 33.5 84.4 33.5 84.4 33.5 84.4 33.5 84.4 33.5 84.4 33.5 84.4 33.5 84.4 33.5 84.4 33.5 84.4 33.5 84.4 33.5 84.4 33.5 84.4 33.5 84.4 33.5 84.4 33.5 84.4 33.5 84.4 33.5 84.4 33.5 84.4 33.5 84.4 33.5 84.4 33.5 84.4 33.5 84.4 33.5 84.4 33.5 84.4 33.5 84.4 33.5 84.4 33.5 84.4 33.5 84.4 33.5 84.4 33.5 84.4 33.4 84.4 33.4 84.4 33.4 84.4 33.4 84.4 33.4 84.4 33.4 84.4 33.4 84.4 33.4 84.4 33.4 84.4 33.4 84.4 33.4 84.4 33.4 84.4 33.4 84.4 33.4 84.4 33.4 84.4 33.4 84.4 33.4 84.4 33.4 84.4 33.4 84.4 33.4 84.4 33.4 84.4 33.4 84.4 33.4 84.4 33.4 84.4 33.4 84.4 33.4 84.4 33.4 84.4 33.4 84.4 33.4 84.4 33.4 84.4 33.4 84.4 33.4 84.4 33.4 84.4 33.4 84.4 33.4 84.4 33.4 84.4 33.4 84.4 33.4 84.4 33.4 84.4 33.4 84.4 33.4 84.4 33.4 84.4 33.3 84.4 33.3 84.4 33.3 84.4 33.3 84.4 33.3 84.4 33.3 84.4 33.3 84.4 33.3 84.4 33.3 84.4 33.3 84.4 33.3 84.4 33.3 84.4 33.3 84.4 33.3 84.4 33.3 84.4 33.3 84.4 33.3 84.4 33.3 84.4 33.3 84.4 33.3 84.3 33.3 84.3 33.3 84.3 33.3 84.3 33.3 84.3 33.3 84.3 33.3 84.3 33.3 84.3 33.3 84.3 33.3 84.3 33.3 84.3 33.3 84.3 33.3 84.3 33.3 84.3 33.3 84.3 33.3 84.3 33.3 84.3 33.3 84.3 33.3 84.3 33.3 84.3 33.3 84.3 33.3 84.3 33.3 84.3 33.2 84.3 33.2 84.3 33.2 84.3 33.2 84.3 33.2 84.3 33.2 84.3 33.2 84.3 33.2 84.3 33.2 84.3 33.2 84.3 33.2 84.3 33.2 84.3 33.2 84.3 33.2 84.3 33.2 84.3 33.2 84.3 33.2 84.3 33.2 84.3 33.2 84.3 33.2 84.3 33.2 84.3 33.2 84.3 33.2 84.3 33.2 84.3 33.2 84.3 33.2 84.3 33.2 84.3 33.2 84.3 33.2 84.3 33.2 84.3 33.2 84.3 33.2 84.3 33.2 84.3 33.2 84.3 33.2 84.3 33.1 84.3 33.1 84.3 33.1 84.3 33.1 84.3 33.1 84.3 33.1 84.3 33.1 84.3 33.1 84.3 33.1 84.3 33.1 84.3 33.1 84.3 33.1 84.3 33.1 84.3 33.1 84.3 33.1 84.3 33.1 84.3 33.1 84.3 33.1 84.3 33.1 84.3 33.1 84.3 33.1 84.3 33.1 84.3 33.1 84.3 33.1 84.3 33L84.3 33C84.3 32.8 84.3 32.5 84.3 32.3L84.3 32.3C84.3 32.2 84.3 32.2 84.3 32.2L84.3 32.2C84.3 32.2 84.3 32.2 84.3 32.2L84.3 32.2C84.3 32.2 84.3 32.2 84.3 32.2 84.3 32.2 84.3 32.2 84.3 32.2 84.3 32.2 84.3 32.2 84.3 32.2 84.3 32.2 84.3 32.2 84.3 32.2 84.3 32.2 84.3 32.2 84.3 32.2 84.3 32.2 84.3 32.2 84.3 32.2 84.3 32.2 84.3 32.2 84.3 32.1 84.3 32.1 84.3 32.1 84.3 32.1 84.3 32.1 84.3 32.1 84.3 32.1 84.3 32.1 84.3 32.1 84.3 32.1 84.3 32.1 84.3 32.1 84.3 32.1L84.3 32.1C84.3 32.1 84.3 32.1 84.3 32.1 84.3 32.1 84.3 32.1 84.3 32.1 84.3 32.1 84.3 32.1 84.3 32.1 84.3 32.1 84.3 32.1 84.3 32.1 84.3 32.1 84.3 32.1 84.3 32.1L84.3 32.1C84.3 31.9 84.3 31.8 84.3 31.7ZM32.6 47.8L31.3 48.6C30.7 47.7 30.2 46.7 29.7 45.7L31.1 45.1C31.6 46 32.1 46.9 32.6 47.8ZM81.1 46.6C81.6 45.7 82 44.8 82.4 43.8L83.8 44.4C83.4 45.4 82.9 46.4 82.4 47.3L81.1 46.6ZM81.5 21.1L81.4 21.1C81.2 20.7 81 20.3 80.8 19.9L82.2 19.1C82.7 20.1 83.2 21.1 83.6 22.1L82.2 22.7C82 22.2 81.8 21.8 81.6 21.3 81.6 21.3 81.6 21.3 81.6 21.3 81.5 21.3 81.5 21.3 81.5 21.3 81.5 21.3 81.5 21.3 81.5 21.3 81.5 21.3 81.5 21.3 81.5 21.3 81.5 21.3 81.5 21.3 81.5 21.3 81.5 21.3 81.5 21.3 81.5 21.3 81.5 21.3 81.5 21.3 81.5 21.3 81.5 21.3 81.5 21.3 81.5 21.3 81.5 21.3 81.5 21.2 81.5 21.2 81.5 21.2 81.5 21.2 81.5 21.2 81.5 21.2 81.5 21.2 81.5 21.2 81.5 21.2 81.5 21.2 81.5 21.2 81.5 21.2 81.5 21.2 81.5 21.2 81.5 21.2 81.5 21.2 81.5 21.2 81.5 21.2 81.5 21.2 81.5 21.2 81.5 21.2 81.5 21.2 81.5 21.2 81.5 21.2 81.5 21.2 81.5 21.2 81.5 21.2 81.5 21.2 81.5 21.2 81.5 21.2 81.5 21.2 81.5 21.2 81.5 21.2 81.5 21.2 81.5 21.2 81.5 21.2 81.5 21.2 81.5 21.2 81.5 21.2 81.5 21.2 81.5 21.2 81.5 21.2 81.5 21.2 81.5 21.2 81.5 21.2 81.5 21.2 81.5 21.2 81.5 21.2 81.5 21.2 81.5 21.2 81.5 21.2 81.5 21.2 81.5 21.2 81.5 21.1 81.5 21.1 81.5 21.1L81.5 21.1C81.5 21.1 81.5 21.1 81.5 21.1 81.5 21.1 81.5 21.1 81.5 21.1 81.5 21.1 81.5 21.1 81.5 21.1ZM28.6 33.9C28.6 34.7 28.7 35.4 28.8 36.2L27.2 36.3C27.1 35.4 27.1 34.4 27.1 33.5L27.1 33 28.6 33.1C28.6 33.1 28.6 33.1 28.6 33.2 28.6 33.2 28.6 33.2 28.6 33.2 28.6 33.2 28.6 33.2 28.6 33.2 28.6 33.2 28.6 33.2 28.6 33.2 28.6 33.2 28.6 33.2 28.6 33.2 28.6 33.3 28.6 33.3 28.6 33.4 28.6 33.4 28.6 33.4 28.6 33.4 28.6 33.4 28.6 33.4 28.6 33.4 28.6 33.4 28.6 33.4 28.6 33.4 28.6 33.4 28.6 33.4 28.6 33.4 28.6 33.4 28.6 33.4 28.6 33.4 28.6 33.4 28.6 33.5 28.6 33.5 28.6 33.5 28.6 33.5 28.6 33.5 28.6 33.5 28.6 33.5 28.6 33.5 28.6 33.5 28.6 33.5 28.6 33.5 28.6 33.5 28.6 33.5 28.6 33.5 28.6 33.5 28.6 33.5 28.6 33.5 28.6 33.5 28.6 33.5 28.6 33.5 28.6 33.5 28.6 33.5 28.6 33.5 28.6 33.5 28.6 33.5 28.6 33.5 28.6 33.5 28.6 33.5 28.6 33.5 28.6 33.5 28.6 33.5 28.6 33.5 28.6 33.5 28.6 33.5 28.6 33.5 28.6 33.5 28.6 33.5 28.6 33.5 28.6 33.5 28.6 33.5 28.6 33.5 28.6 33.5 28.6 33.5 28.6 33.5 28.6 33.5 28.6 33.5 28.6 33.6 28.6 33.6 28.6 33.6 28.6 33.6 28.6 33.6 28.6 33.6 28.6 33.6 28.6 33.6 28.6 33.6 28.6 33.6 28.6 33.6 28.6 33.6 28.6 33.6 28.6 33.6 28.6 33.6 28.6 33.6 28.6 33.6 28.6 33.6 28.6 33.6 28.6 33.6 28.6 33.6 28.6 33.6 28.6 33.6 28.6 33.6 28.6 33.6 28.6 33.6 28.6 33.6 28.6 33.6 28.6 33.6 28.6 33.6 28.6 33.6 28.6 33.6 28.6 33.6 28.6 33.6 28.6 33.6 28.6 33.6 28.6 33.6 28.6 33.6 28.6 33.6 28.6 33.6 28.6 33.6 28.6 33.6 28.6 33.6 28.6 33.6 28.6 33.6 28.6 33.6 28.6 33.6 28.6 33.7 28.6 33.7 28.6 33.7 28.6 33.7 28.6 33.7 28.6 33.7 28.6 33.7 28.6 33.7 28.6 33.7 28.6 33.7 28.6 33.7 28.6 33.7 28.6 33.7 28.6 33.7 28.6 33.7 28.6 33.7 28.6 33.7 28.6 33.7 28.6 33.7 28.6 33.7 28.6 33.7 28.6 33.7 28.6 33.7 28.6 33.7 28.6 33.7 28.6 33.7 28.6 33.7 28.6 33.7 28.6 33.7 28.6 33.7 28.6 33.7 28.6 33.7L28.6 33.7C28.6 33.7 28.6 33.7 28.6 33.7L28.6 33.7C28.6 33.7 28.6 33.8 28.6 33.8L28.6 33.8C28.6 33.8 28.6 33.8 28.6 33.8L28.6 33.8C28.6 33.8 28.6 33.8 28.6 33.8 28.6 33.8 28.6 33.8 28.6 33.9 28.6 33.9 28.6 33.9 28.6 33.9 28.6 33.9 28.6 33.9 28.6 33.9 28.6 33.9 28.6 33.9 28.6 33.9ZM83.4 40.9C83.6 39.9 83.8 38.9 84 37.9L85.5 38.1C85.4 39.2 85.1 40.2 84.9 41.3L83.4 40.9ZM27.3 29.8C27.4 29.4 27.5 29.1 27.5 28.7 26.8 28.4 26 28.2 25.3 28L25.6 26.5C26.3 26.7 27.1 26.9 27.8 27.2 27.8 27 27.9 26.8 27.9 26.6L29.4 26.9C29.2 27.9 29 28.9 28.8 30L27.3 29.8ZM43.9 58.4C43.9 58.4 43.9 58.4 43.9 58.4 44.8 58.8 45.7 59.2 46.6 59.5L46 61C45 60.6 44 60.2 43 59.7L43.7 58.3C43.7 58.3 43.7 58.3 43.7 58.3 43.7 58.3 43.8 58.3 43.8 58.3 43.8 58.3 43.8 58.3 43.8 58.3 43.8 58.3 43.8 58.3 43.8 58.3 43.8 58.3 43.8 58.3 43.8 58.3 43.8 58.3 43.8 58.3 43.8 58.3L43.8 58.3C43.8 58.3 43.8 58.3 43.8 58.3 43.8 58.3 43.8 58.3 43.8 58.3 43.8 58.3 43.8 58.3 43.8 58.3 43.8 58.3 43.8 58.3 43.8 58.3 43.8 58.3 43.8 58.3 43.8 58.3 43.8 58.3 43.8 58.3 43.8 58.3 43.8 58.3 43.8 58.3 43.8 58.3 43.8 58.3 43.8 58.3 43.9 58.3 43.9 58.3 43.9 58.3 43.9 58.4 43.9 58.4 43.9 58.4 43.9 58.4 43.9 58.4 43.9 58.4 43.9 58.4L43.9 58.4C43.9 58.4 43.9 58.4 43.9 58.4ZM83.2 25.7C83.2 25.6 83.2 25.6 83.2 25.6L84.7 25.2C85 26.2 85.3 27.3 85.4 28.3L83.9 28.6C83.9 28.5 83.9 28.3 83.8 28.1L83.8 28.1C83.8 28.1 83.8 28.1 83.8 28.1L83.8 28.1C83.8 28.1 83.8 28.1 83.8 28.1L83.8 28.1C83.8 28.1 83.8 28.1 83.8 28.1L83.8 28.1C83.8 28.1 83.8 28.1 83.8 28.1 83.8 28.1 83.8 28.1 83.8 28.1 83.8 28 83.8 28 83.8 28 83.8 28 83.8 28 83.8 28 83.8 28 83.8 28 83.8 28 83.8 28 83.8 28 83.8 28 83.8 28 83.8 28 83.8 28 83.8 28 83.8 28 83.8 28 83.8 28 83.8 28 83.8 28 83.8 28 83.8 28 83.8 28 83.8 28 83.8 28 83.8 28 83.8 28 83.8 28 83.8 28 83.8 28 83.8 28 83.8 28 83.8 28 83.8 28 83.8 28 83.8 28 83.8 28 83.8 28 83.8 28 83.8 28 83.8 28 83.8 28 83.8 28 83.8 28 83.8 28 83.8 28 83.8 28 83.8 28 83.8 28 83.8 27.9 83.8 27.9 83.8 27.9 83.8 27.9 83.8 27.9 83.8 27.9 83.8 27.9 83.8 27.9 83.8 27.9 83.8 27.9 83.8 27.9 83.8 27.9 83.8 27.9 83.8 27.9 83.8 27.9 83.8 27.9 83.8 27.9 83.8 27.9 83.8 27.9 83.8 27.9 83.8 27.9 83.8 27.9 83.8 27.9 83.8 27.9 83.8 27.9 83.8 27.9 83.8 27.9 83.8 27.9 83.8 27.9 83.8 27.9 83.8 27.9 83.8 27.9 83.8 27.9 83.8 27.9 83.8 27.9 83.8 27.9 83.8 27.9 83.8 27.9 83.8 27.9 83.8 27.9 83.8 27.9 83.8 27.8 83.8 27.8 83.8 27.8 83.8 27.8 83.8 27.8 83.8 27.8 83.8 27.8 83.8 27.8 83.8 27.8 83.8 27.8 83.8 27.8 83.8 27.8 83.8 27.8 83.8 27.8 83.8 27.8 83.8 27.8 83.8 27.8 83.8 27.8 83.8 27.8 83.8 27.8 83.6 27.1 83.5 26.5 83.3 25.8 83.3 25.8 83.3 25.8 83.3 25.8 83.3 25.8 83.3 25.8 83.3 25.8 83.3 25.8 83.3 25.8 83.3 25.8 83.3 25.8 83.3 25.8 83.3 25.8 83.3 25.8 83.3 25.8 83.3 25.8 83.3 25.8 83.3 25.8 83.3 25.8 83.3 25.8 83.3 25.8 83.3 25.8 83.3 25.8 83.3 25.8 83.3 25.8 83.3 25.7 83.3 25.7 83.3 25.7 83.3 25.7 83.3 25.7 83.3 25.7 83.3 25.7 83.3 25.7 83.3 25.7 83.3 25.7 83.3 25.7 83.3 25.7 83.3 25.7 83.3 25.7 83.3 25.7 83.3 25.7 83.2 25.7 83.2 25.7 83.2 25.7 83.2 25.7 83.2 25.7 83.2 25.7 83.2 25.7 83.2 25.7 83.2 25.7 83.2 25.7 83.2 25.7 83.2 25.7 83.2 25.7 83.2 25.7 83.2 25.7 83.2 25.7 83.2 25.7L83.2 25.7C83.2 25.7 83.2 25.7 83.2 25.7L83.2 25.7C83.2 25.7 83.2 25.7 83.2 25.7L83.2 25.7ZM78.8 50.2C79 49.9 79.2 49.6 79.5 49.3L80.7 50.1C80.1 51 79.5 51.9 78.7 52.7L77.6 51.7C77.9 51.3 78.3 50.8 78.7 50.4 78.7 50.4 78.7 50.4 78.7 50.4 78.7 50.4 78.7 50.4 78.7 50.4L78.7 50.4C78.7 50.4 78.7 50.4 78.7 50.4 78.7 50.4 78.7 50.4 78.7 50.4 78.7 50.4 78.7 50.4 78.7 50.4 78.7 50.4 78.7 50.4 78.7 50.4 78.7 50.3 78.7 50.3 78.7 50.3 78.7 50.3 78.7 50.3 78.7 50.3 78.7 50.3 78.7 50.3 78.7 50.3 78.7 50.3 78.7 50.3 78.7 50.3 78.7 50.3 78.7 50.3 78.7 50.3 78.7 50.3 78.7 50.3 78.7 50.3 78.7 50.3 78.7 50.3 78.7 50.3 78.7 50.3 78.7 50.3 78.7 50.3 78.7 50.3 78.7 50.3 78.7 50.3 78.7 50.3 78.7 50.3 78.7 50.3 78.7 50.3 78.7 50.3 78.7 50.3 78.7 50.3 78.7 50.3 78.7 50.3 78.7 50.3 78.7 50.3 78.7 50.3 78.7 50.3 78.7 50.3 78.7 50.3L78.7 50.3C78.7 50.3 78.7 50.3 78.7 50.3 78.7 50.3 78.7 50.3 78.7 50.3 78.7 50.3 78.8 50.3 78.8 50.3 78.8 50.2 78.8 50.2 78.8 50.2 78.8 50.2 78.8 50.2 78.8 50.2L78.8 50.2C78.8 50.2 78.8 50.2 78.8 50.2L78.8 50.2ZM74.6 54.7C74.8 54.5 75.1 54.2 75.4 53.9L76.5 55.1C75.7 55.8 74.8 56.5 74 57.2L73 55.9C73.4 55.7 73.7 55.4 74 55.2 74 55.2 74 55.2 74 55.2 74 55.2 74 55.2 74 55.2 74 55.2 74 55.2 74 55.2 74 55.2 74 55.2 74 55.2 74 55.2 74 55.2 74 55.2 74 55.2 74 55.1 74.1 55.1 74.1 55.1 74.1 55.1 74.1 55.1 74.1 55.1 74.1 55.1 74.1 55.1 74.1 55.1 74.1 55.1 74.1 55.1 74.1 55.1 74.1 55.1 74.1 55.1L74.1 55.1C74.1 55.1 74.1 55.1 74.1 55.1L74.1 55.1C74.1 55.1 74.1 55.1 74.1 55.1 74.1 55.1 74.1 55.1 74.1 55.1 74.1 55.1 74.1 55.1 74.1 55.1 74.1 55.1 74.1 55.1 74.1 55.1 74.1 55.1 74.1 55.1 74.1 55.1 74.1 55 74.2 55 74.2 55 74.2 55 74.2 55 74.2 55 74.2 55 74.2 55 74.2 55 74.2 55 74.2 55 74.2 55 74.2 55 74.2 55 74.2 55 74.2 55 74.2 55 74.2 55 74.2 55 74.2 55 74.2 55 74.2 55 74.2 55 74.2 55 74.2 55 74.2 55 74.2 55 74.2 55 74.2 55 74.2 55 74.3 55 74.3 55 74.3 55 74.3 55 74.3 55 74.3 55 74.3 54.9 74.3 54.9 74.3 54.9 74.3 54.9 74.3 54.9 74.3 54.9 74.3 54.9 74.3 54.9 74.3 54.9 74.3 54.9 74.3 54.9 74.3 54.9 74.3 54.9 74.3 54.9 74.3 54.9 74.3 54.9 74.3 54.9 74.3 54.9 74.3 54.9 74.3 54.9 74.3 54.9L74.3 54.9C74.3 54.9 74.3 54.9 74.4 54.9L74.4 54.9C74.4 54.9 74.4 54.9 74.4 54.9 74.4 54.9 74.4 54.9 74.4 54.9 74.4 54.9 74.4 54.9 74.4 54.9 74.4 54.9 74.4 54.9 74.4 54.9 74.4 54.9 74.4 54.9 74.4 54.9L74.4 54.9C74.4 54.8 74.4 54.8 74.4 54.8 74.4 54.8 74.4 54.8 74.4 54.8L74.4 54.8C74.4 54.8 74.4 54.8 74.4 54.8 74.4 54.8 74.4 54.8 74.4 54.8 74.4 54.8 74.5 54.8 74.5 54.8L74.5 54.8C74.5 54.8 74.5 54.8 74.5 54.8 74.5 54.7 74.5 54.7 74.6 54.7 74.6 54.7 74.6 54.7 74.6 54.7ZM70.1 57.8C70.2 57.7 70.3 57.7 70.5 57.6L71.2 58.9C70.3 59.5 69.3 60 68.3 60.4L67.7 59C67.9 58.9 68.2 58.8 68.4 58.7L68.4 58.7C68.4 58.7 68.4 58.7 68.4 58.7L68.4 58.7C68.4 58.7 68.5 58.7 68.5 58.7 68.5 58.7 68.5 58.7 68.5 58.7 68.5 58.7 68.5 58.7 68.5 58.7 68.5 58.7 68.5 58.7 68.5 58.7 68.5 58.7 68.5 58.7 68.5 58.6 68.5 58.6 68.5 58.6 68.5 58.6 68.5 58.6 68.5 58.6 68.5 58.6 68.5 58.6 68.5 58.6 68.5 58.6 68.5 58.6 68.5 58.6 68.5 58.6 68.5 58.6 68.5 58.6 68.5 58.6 68.5 58.6 68.5 58.6 68.5 58.6 68.5 58.6 68.5 58.6 68.5 58.6 68.5 58.6 68.5 58.6 68.5 58.6 68.5 58.6 68.5 58.6 68.5 58.6 68.5 58.6 68.5 58.6 68.5 58.6 68.5 58.6 68.5 58.6 68.5 58.6 68.5 58.6 68.5 58.6 68.6 58.6 68.6 58.6 68.6 58.6 68.6 58.6 68.6 58.6 68.6 58.6 68.6 58.6 68.6 58.6 68.6 58.6 68.6 58.6 68.6 58.6 68.6 58.6 68.6 58.6 68.6 58.6 68.6 58.6 68.6 58.6 68.6 58.6 68.6 58.6 68.6 58.6 69.1 58.3 69.6 58.1 70 57.8L70 57.8C69.1 57.1 68.3 56.3 67.6 55.5L67.5 55.4 67.6 55.4 68.8 54.2 68.9 54.3C69.1 54.6 69.4 54.9 69.7 55.2L69.8 55.2 69.8 55.2 69.8 55.3 69.9 55.3 69.9 55.4 70 55.4 70 55.4 70 55.4 70 55.5 70 55.5 70 55.5C70.4 55.8 70.7 56.1 71.1 56.4L71.2 56.5 70.1 57.8ZM40.4 56.3L40.4 56.3C40.6 56.4 40.9 56.6 41.1 56.7L40.2 58C39.3 57.4 38.4 56.7 37.6 56L38.6 54.9C38.6 54.9 38.6 54.9 38.6 54.9 38.6 54.9 38.6 54.9 38.6 54.9 38.6 54.9 38.6 54.9 38.6 54.9 38.6 54.9 38.6 54.9 38.6 54.9 38.6 54.9 38.6 54.9 38.6 54.9 38.6 54.9 38.6 54.9 38.6 54.9 38.6 54.9 38.6 54.9 38.6 54.9 38.6 54.9 38.6 54.9 38.6 54.9 38.6 54.9 38.6 54.9 38.6 54.9 38.6 54.9 38.6 54.9 38.6 54.9 38.6 54.9 38.6 54.9 38.6 54.9 38.7 54.9 38.7 54.9 38.7 54.9 38.7 54.9 38.7 54.9 38.7 54.9 38.7 54.9 38.7 54.9 38.7 54.9 38.7 54.9 38.7 54.9 38.7 54.9 38.7 54.9 38.7 54.9 38.7 54.9 38.7 54.9 38.7 54.9 38.7 54.9 38.7 54.9 38.7 54.9 38.7 54.9 39.2 55.3 39.7 55.7 40.2 56.1 40.2 56.1 40.2 56.1 40.2 56.1 40.2 56.1 40.2 56.1 40.2 56.1 40.2 56.1 40.2 56.1 40.2 56.1 40.2 56.1 40.2 56.1 40.2 56.1 40.2 56.1 40.2 56.1 40.2 56.1 40.3 56.1 40.3 56.1 40.3 56.2 40.3 56.2 40.3 56.2 40.3 56.2 40.3 56.2 40.3 56.2 40.3 56.2 40.3 56.2 40.3 56.2 40.3 56.2 40.3 56.2 40.3 56.2 40.3 56.2 40.3 56.2 40.3 56.2 40.3 56.2 40.3 56.2 40.3 56.2 40.3 56.2 40.3 56.2 40.3 56.2 40.3 56.2 40.3 56.2 40.3 56.2 40.3 56.2 40.3 56.2 40.3 56.2 40.3 56.2 40.3 56.2 40.3 56.2 40.3 56.2 40.3 56.2 40.3 56.2 40.3 56.2 40.3 56.2 40.3 56.2 40.3 56.2 40.3 56.2 40.3 56.2 40.3 56.2 40.3 56.2 40.3 56.2 40.3 56.2 40.3 56.2 40.3 56.2 40.3 56.2 40.3 56.2 40.3 56.2 40.3 56.2 40.3 56.2 40.3 56.2 40.4 56.2 40.4 56.2 40.4 56.2 40.4 56.2 40.4 56.2 40.4 56.2 40.4 56.2 40.4 56.2 40.4 56.2 40.4 56.2 40.4 56.2 40.4 56.2 40.4 56.2 40.4 56.2 40.4 56.2 40.4 56.2 40.4 56.2 40.4 56.2 40.4 56.2 40.4 56.2 40.4 56.2 40.4 56.2 40.4 56.2 40.4 56.2 40.4 56.2L40.4 56.2C40.4 56.2 40.4 56.3 40.4 56.3ZM41.6 30.1C41.6 29.4 41.4 28.8 41.3 28.2L42.7 27.8C43.1 28.9 43.2 30.1 43.2 31.3L41.7 31.3C41.7 31.1 41.7 30.9 41.7 30.7 41.7 30.7 41.7 30.7 41.7 30.7L41.7 30.7C41.7 30.7 41.7 30.7 41.7 30.6 41.7 30.6 41.7 30.6 41.7 30.6 41.7 30.6 41.7 30.6 41.7 30.6 41.7 30.6 41.7 30.6 41.7 30.6 41.7 30.6 41.7 30.6 41.7 30.6 41.7 30.6 41.7 30.6 41.7 30.6 41.7 30.6 41.7 30.6 41.7 30.6 41.7 30.6 41.7 30.6 41.7 30.6 41.7 30.6 41.7 30.6 41.7 30.6 41.7 30.6 41.7 30.6 41.7 30.5 41.7 30.5 41.7 30.5 41.7 30.5 41.7 30.5 41.7 30.5 41.7 30.5 41.7 30.5 41.7 30.5 41.7 30.5 41.7 30.5 41.7 30.5 41.7 30.5 41.7 30.5 41.7 30.5 41.7 30.5 41.7 30.5 41.7 30.5 41.7 30.5 41.7 30.5 41.7 30.5 41.7 30.5 41.7 30.5 41.7 30.5 41.7 30.5 41.7 30.5 41.7 30.5 41.7 30.5 41.7 30.5 41.7 30.5 41.7 30.5 41.7 30.5 41.7 30.5 41.7 30.5 41.7 30.5 41.7 30.5 41.7 30.5 41.7 30.5 41.7 30.5 41.7 30.5 41.7 30.5 41.7 30.5 41.7 30.5 41.7 30.5 41.7 30.5 41.7 30.5 41.7 30.4 41.7 30.4 41.7 30.4 41.7 30.4 41.7 30.4 41.7 30.4 41.7 30.4 41.7 30.4 41.7 30.4 41.7 30.4 41.7 30.4 41.7 30.4 41.7 30.4 41.7 30.4 41.7 30.4 41.7 30.4 41.7 30.4 41.7 30.4 41.7 30.4 41.7 30.4 41.7 30.4 41.7 30.4 41.7 30.4 41.7 30.4 41.7 30.4 41.7 30.4 41.7 30.4 41.7 30.4 41.7 30.4 41.7 30.4 41.7 30.4 41.7 30.4 41.7 30.4 41.7 30.4 41.7 30.4 41.7 30.4 41.7 30.4 41.7 30.4 41.7 30.4 41.7 30.4 41.7 30.4 41.7 30.4 41.7 30.4 41.7 30.4 41.7 30.4 41.7 30.4 41.7 30.4 41.7 30.4 41.7 30.4 41.7 30.4 41.7 30.4 41.7 30.3 41.7 30.3 41.7 30.3 41.7 30.3 41.7 30.3 41.7 30.3 41.7 30.3 41.7 30.3 41.7 30.3 41.7 30.3 41.7 30.3 41.7 30.3 41.7 30.3 41.7 30.3 41.7 30.3 41.7 30.3 41.6 30.3 41.6 30.3 41.6 30.3 41.6 30.3 41.6 30.3 41.6 30.3 41.6 30.3 41.6 30.3 41.6 30.3 41.6 30.3 41.6 30.3 41.6 30.3 41.6 30.3 41.6 30.3 41.6 30.3 41.6 30.3 41.6 30.3 41.6 30.3 41.6 30.3 41.6 30.3 41.6 30.3 41.6 30.3 41.6 30.3 41.6 30.3 41.6 30.3 41.6 30.3 41.6 30.3 41.6 30.3 41.6 30.3 41.6 30.3 41.6 30.3 41.6 30.3 41.6 30.2 41.6 30.2 41.6 30.2 41.6 30.2 41.6 30.2 41.6 30.2 41.6 30.2 41.6 30.2 41.6 30.2 41.6 30.2 41.6 30.2 41.6 30.2 41.6 30.2 41.6 30.2 41.6 30.2 41.6 30.2 41.6 30.2 41.6 30.2 41.6 30.2 41.6 30.2 41.6 30.2 41.6 30.2 41.6 30.2 41.6 30.2 41.6 30.2 41.6 30.2 41.6 30.2 41.6 30.2 41.6 30.2 41.6 30.2 41.6 30.2 41.6 30.2 41.6 30.2 41.6 30.2 41.6 30.2 41.6 30.2 41.6 30.2 41.6 30.2 41.6 30.2 41.6 30.1 41.6 30.1 41.6 30.1 41.6 30.1 41.6 30.1 41.6 30.1 41.6 30.1 41.6 30.1 41.6 30.1 41.6 30.1 41.6 30.1 41.6 30.1 41.6 30.1 41.6 30.1 41.6 30.1 41.6 30.1 41.6 30.1 41.6 30.1 41.6 30.1 41.6 30.1 41.6 30.1 41.6 30.1 41.6 30.1 41.6 30.1ZM38 41C37.3 41.6 36.5 42 35.7 42.4L35.1 40.9C35.9 40.6 36.6 40.2 37.3 39.7 37.3 39.7 37.3 39.7 37.3 39.7 37.3 39.7 37.3 39.7 37.3 39.7 37.3 39.7 37.3 39.7 37.3 39.7 37.3 39.7 37.3 39.7 37.3 39.7 37.3 39.7 37.3 39.7 37.3 39.7L37.3 39.7C37.3 39.7 37.3 39.7 37.3 39.7L37.3 39.7C37.3 39.7 37.4 39.7 37.4 39.7 37.4 39.7 37.4 39.7 37.4 39.7 37.4 39.7 37.4 39.7 37.4 39.7 37.4 39.7 37.4 39.7 37.4 39.7 37.4 39.7 37.4 39.7 37.4 39.7 37.4 39.7 37.4 39.7 37.4 39.7 37.4 39.7 37.4 39.7 37.4 39.7 37.4 39.7 37.4 39.7 37.4 39.7 37.4 39.6 37.4 39.6 37.4 39.6 37.4 39.6 37.4 39.6 37.4 39.6 37.4 39.6 37.4 39.6 37.4 39.6 37.4 39.6 37.4 39.6 37.4 39.6 37.4 39.6 37.4 39.6 37.4 39.6 37.4 39.6 37.4 39.6 37.4 39.6 37.4 39.6 37.4 39.6 37.4 39.6 37.4 39.6 37.4 39.6 37.4 39.6 37.4 39.6 37.4 39.6 37.4 39.6 37.4 39.6 37.4 39.6 37.4 39.6 37.4 39.6 37.4 39.6 37.4 39.6 37.4 39.6 37.4 39.6 37.4 39.6 37.4 39.6 37.5 39.6 37.5 39.6 37.5 39.6 37.5 39.6 37.5 39.6 37.5 39.6 37.5 39.6 37.5 39.6 37.6 39.5 37.7 39.4 37.8 39.4L38.4 40.2 39.4 40C39.5 40.3 39.6 40.7 39.6 41.1 39.8 41.8 39.9 42.6 39.9 43.3L38.4 43.4C38.3 43.3 38.3 43.3 38.3 43.2L38.3 43.2C38.3 43.2 38.3 43.2 38.3 43.2 38.3 43.2 38.3 43.2 38.3 43.2 38.3 43.1 38.3 43.1 38.3 43.1 38.3 43.1 38.3 43.1 38.3 43.1 38.3 43.1 38.3 43.1 38.3 43.1 38.3 43.1 38.3 43.1 38.3 43.1 38.3 43.1 38.3 43.1 38.3 43.1 38.3 43.1 38.3 43.1 38.3 43.1 38.3 43.1 38.3 43.1 38.3 43.1 38.3 43.1 38.3 43.1 38.3 43.1 38.3 43.1 38.3 43.1 38.3 43.1 38.3 43.1 38.3 43.1 38.3 43.1 38.3 43.1 38.3 43.1 38.3 43.1 38.3 43.1 38.3 43.1 38.3 43.1 38.3 43.1 38.3 43.1 38.3 43 38.3 43 38.3 43 38.3 43 38.3 43 38.3 43 38.3 43 38.3 43 38.3 43 38.3 43 38.3 43 38.3 43 38.3 43 38.3 43 38.3 43 38.3 43 38.3 43 38.3 43 38.3 43 38.3 43 38.3 43 38.3 43 38.3 43 38.3 43 38.3 43 38.3 43 38.3 43 38.3 43 38.3 43 38.3 43 38.3 43 38.3 43 38.3 43 38.3 43 38.3 43 38.3 43 38.3 43 38.3 43 38.3 43 38.3 42.9 38.3 42.9 38.3 42.9 38.3 42.9 38.3 42.9 38.3 42.9 38.3 42.9 38.3 42.9 38.3 42.9 38.3 42.9 38.3 42.9 38.3 42.9 38.3 42.9 38.3 42.9 38.3 42.9 38.3 42.9 38.3 42.9 38.3 42.9 38.3 42.9 38.3 42.9 38.3 42.9 38.3 42.9L38.3 42.9C38.3 42.8 38.3 42.8 38.3 42.8 38.3 42.8 38.3 42.8 38.3 42.8 38.3 42.8 38.3 42.8 38.3 42.8 38.3 42.4 38.2 42 38.1 41.6 38.1 41.5 38.1 41.5 38.1 41.5 38.1 41.5 38.1 41.5 38.1 41.5 38.1 41.5 38.1 41.5 38.1 41.5 38.1 41.5 38.1 41.5 38.1 41.5 38.1 41.5 38.1 41.5 38.1 41.5 38.1 41.5 38.1 41.5 38.1 41.5 38.1 41.5 38.1 41.5 38.1 41.4 38.1 41.4 38.1 41.4 38.1 41.4 38.1 41.4 38.1 41.4 38.1 41.4 38.1 41.4 38.1 41.4 38.1 41.4 38.1 41.4 38.1 41.4 38.1 41.4 38.1 41.4 38.1 41.4 38.1 41.4 38.1 41.4 38.1 41.4 38.1 41.4 38.1 41.4 38.1 41.4 38.1 41.4 38.1 41.4 38.1 41.4 38.1 41.4 38.1 41.4 38.1 41.4 38.1 41.4 38.1 41.4 38.1 41.4 38.1 41.4 38.1 41.4 38.1 41.4 38.1 41.4 38.1 41.4 38.1 41.4 38.1 41.3 38.1 41.3 38.1 41.3 38.1 41.3 38.1 41.3 38.1 41.3 38.1 41.2 38.1 41.2 38.1 41.2 38.1 41.2 38.1 41.2 38 41.1 38 41ZM38.7 23.8L38.7 23.8C38.5 23.6 38.2 23.3 37.9 23.1L38.9 21.9C39.8 22.7 40.6 23.6 41.3 24.6L40 25.4C39.8 25.1 39.6 24.9 39.4 24.7 39.4 24.6 39.4 24.6 39.4 24.6L39.4 24.6C39.4 24.6 39.4 24.6 39.4 24.6 39.4 24.6 39.4 24.6 39.4 24.6 39.4 24.6 39.4 24.6 39.4 24.6 39.4 24.6 39.4 24.6 39.4 24.6 39.4 24.6 39.4 24.6 39.4 24.6 39.4 24.6 39.4 24.6 39.4 24.6 39.4 24.6 39.4 24.6 39.4 24.6 39.4 24.6 39.4 24.6 39.4 24.6 39.4 24.6 39.4 24.6 39.4 24.6 39.3 24.6 39.3 24.5 39.3 24.5 39.3 24.5 39.3 24.5 39.3 24.5 39.3 24.5 39.3 24.5 39.3 24.5 39.3 24.5 39.3 24.5 39.3 24.5 39.3 24.5 39.3 24.5 39.3 24.5 39.3 24.5 39.3 24.5 39.3 24.5 39.3 24.5 39.3 24.5 39.3 24.5 39.3 24.5 39.3 24.5 39.3 24.5 39.3 24.5 39.3 24.5 39.3 24.5 39.3 24.5 39.3 24.5 39.3 24.5 39.3 24.5 39.3 24.5 39.3 24.5 39.3 24.5 39.3 24.5 39.3 24.5 39.3 24.5 39.3 24.5 39.3 24.5 39.3 24.5 39.3 24.5 39.3 24.5 39.3 24.5 39.3 24.5 39.3 24.5 39.3 24.5 39.3 24.5 39.3 24.5 39.3 24.5 39.3 24.5 39.3 24.5 39.3 24.5 39.3 24.5 39.3 24.5 39.3 24.5 39.3 24.5 39.3 24.5 39.3 24.5 39.3 24.5 39.3 24.5 39.3 24.5 39.3 24.5 39.3 24.5 39.3 24.5 39.3 24.5 39.3 24.4 39.3 24.4 39.3 24.4 39.3 24.4 39.3 24.4 39.3 24.4 39.3 24.4 39.3 24.4 39.3 24.4 39.3 24.4 39.3 24.4 39.3 24.4 39.3 24.4 39.3 24.4 39.3 24.4 39.3 24.4 39.2 24.4 39.2 24.4 39.2 24.4 39.2 24.4 39.2 24.4 39.2 24.4 39.2 24.4 39.2 24.4 39.2 24.4 39.2 24.4 39.2 24.4 39.2 24.4 39.2 24.4 39.2 24.4 39.2 24.4 39.2 24.4 39.2 24.4 39.2 24.4 39.2 24.4 39.2 24.4 39.2 24.4 39.2 24.4 39.2 24.4 39.2 24.4 39.2 24.4 39.2 24.4 39.2 24.4 39.2 24.4 39.2 24.4 39.2 24.4 39.2 24.4 39.2 24.4 39.2 24.4 39.2 24.4 39.2 24.4 39.2 24.4 39.2 24.4 39.2 24.4 39.2 24.4 39.2 24.4 39.2 24.4 39.2 24.4 39.2 24.4 39.2 24.4 39.2 24.4 39.2 24.4 39.2 24.4 39.2 24.4 39.2 24.4 39.2 24.3 39.2 24.3 39.2 24.3 39.2 24.3 39.2 24.3 39.2 24.3 39.2 24.3 39.2 24.3 39.2 24.3 39.2 24.3 39.2 24.3 39.2 24.3 39.2 24.3 39.2 24.3 39.2 24.3 39.2 24.3 39.2 24.3 39.2 24.3 39.2 24.3 39.2 24.3 39.2 24.3 39.2 24.3 39.2 24.3 39.2 24.3 39.2 24.3 39.2 24.3 39.2 24.3 39.1 24.3 39.1 24.3 39.1 24.3 39.1 24.3 39.1 24.3 39.1 24.3 39.1 24.3 39.1 24.3 39.1 24.3 39.1 24.3 39.1 24.3 39.1 24.3 39.1 24.3 39.1 24.3 39.1 24.3 39.1 24.3 39.1 24.3L39.1 24.3C39.1 24.3 39.1 24.3 39.1 24.3 39.1 24.3 39.1 24.3 39.1 24.3 39.1 24.3 39.1 24.3 39.1 24.3 39.1 24.3 39.1 24.3 39.1 24.3 39.1 24.3 39.1 24.3 39.1 24.3 39.1 24.3 39.1 24.3 39.1 24.3 39.1 24.3 39.1 24.2 39.1 24.2L39.1 24.2C39.1 24.2 39.1 24.2 39.1 24.2 39.1 24.2 39.1 24.2 39.1 24.2 39.1 24.2 39.1 24.2 39.1 24.2 39.1 24.2 39.1 24.2 39.1 24.2 39.1 24.2 39.1 24.2 39.1 24.2 39.1 24.2 39.1 24.2 39.1 24.2 39.1 24.2 39.1 24.2 39.1 24.2 39.1 24.2 39.1 24.2 39.1 24.2 39.1 24.2 39.1 24.2 39.1 24.2 39.1 24.2 39.1 24.2 39.1 24.2 39.1 24.2 39 24.2 39 24.2 39 24.2 39 24.2 39 24.2 39 24.2 39 24.2 39 24.2 39 24.2 39 24.2 39 24.2 39 24.2 39 24.2 39 24.2 39 24.2 39 24.2 39 24.2 39 24.2 39 24.2 39 24.2 39 24.2 39 24.2 39 24.2 39 24.2 39 24.2 39 24.2 39 24.2 39 24.2 39 24.2 39 24.2 39 24.1 39 24.1 39 24.1 39 24.1 39 24.1 39 24.1 39 24.1 39 24.1 39 24.1 39 24.1 39 24.1 39 24.1 39 24.1 39 24.1 39 24.1 39 24.1 39 24.1 39 24.1 39 24.1 39 24.1 39 24.1 39 24.1 39 24.1 39 24.1 39 24.1 39 24.1 39 24.1 39 24.1 39 24.1 39 24.1 39 24.1 39 24.1 39 24.1 39 24.1 39 24.1 39 24.1 39 24.1 39 24.1 39 24.1 39 24.1 39 24.1 39 24.1 39 24.1 39 24.1 39 24.1 38.9 24.1 38.9 24.1 38.9 24.1 38.9 24.1 38.9 24.1 38.9 24.1 38.9 24.1 38.9 24.1 38.9 24.1 38.9 24.1 38.9 24.1 38.9 24.1 38.9 24.1 38.9 24.1 38.9 24.1 38.9 24.1 38.9 24.1 38.9 24.1 38.9 24.1 38.9 24.1 38.9 24.1 38.9 24 38.9 24 38.9 24 38.9 24 38.9 24 38.9 24 38.9 24 38.9 24 38.9 24 38.9 24 38.9 24 38.9 24 38.9 24 38.9 24 38.9 24 38.9 24 38.9 24 38.9 24 38.9 24 38.9 24 38.9 24 38.9 24 38.9 24 38.9 24 38.9 24 38.9 24 38.9 24 38.9 24 38.9 24 38.9 24 38.9 24 38.9 24 38.9 24 38.9 24 38.9 24 38.9 24 38.9 24 38.9 24L38.9 24C38.9 24 38.9 24 38.9 24L38.9 24C38.8 24 38.8 24 38.8 24 38.8 24 38.8 24 38.8 24 38.8 24 38.8 24 38.8 24 38.8 24 38.8 24 38.8 23.9 38.8 23.9 38.8 23.9 38.8 23.9 38.8 23.9 38.8 23.9 38.8 23.9L38.8 23.9C38.8 23.9 38.8 23.9 38.8 23.9 38.8 23.9 38.8 23.9 38.8 23.9 38.8 23.9 38.8 23.9 38.8 23.9 38.8 23.9 38.8 23.9 38.8 23.9 38.8 23.9 38.8 23.9 38.8 23.9 38.8 23.9 38.8 23.9 38.8 23.9L38.8 23.9C38.8 23.9 38.8 23.9 38.8 23.9L38.8 23.9C38.8 23.9 38.8 23.9 38.8 23.9 38.8 23.9 38.8 23.9 38.8 23.9 38.8 23.9 38.8 23.9 38.8 23.9 38.8 23.9 38.8 23.9 38.8 23.9 38.7 23.9 38.7 23.9 38.7 23.9 38.7 23.9 38.7 23.8 38.7 23.8ZM31.1 43.2C30.3 43.2 29.5 43.2 28.7 43L28.8 42.6 28.5 42.7C28.2 41.7 27.9 40.6 27.7 39.5L29.2 39.2C29.4 40 29.6 40.8 29.8 41.6 30.1 41.6 30.4 41.7 30.6 41.7 30.6 41.7 30.6 41.7 30.6 41.7 30.6 41.7 30.6 41.7 30.6 41.7 30.6 41.7 30.6 41.7 30.6 41.7 30.6 41.7 30.6 41.7 30.6 41.7 30.6 41.7 30.6 41.7 30.6 41.7 30.6 41.7 30.6 41.7 30.6 41.7 30.7 41.7 30.7 41.7 30.7 41.7L30.7 41.7C30.7 41.7 30.7 41.7 30.7 41.7 30.7 41.7 30.7 41.7 30.7 41.7 30.7 41.7 30.7 41.7 30.7 41.7L30.7 41.7C30.7 41.7 30.7 41.7 30.7 41.7 30.7 41.7 30.7 41.7 30.7 41.7 30.7 41.7 30.7 41.7 30.7 41.7 30.7 41.7 30.7 41.7 30.7 41.7 30.7 41.7 30.7 41.7 30.7 41.7 30.7 41.7 30.7 41.7 30.7 41.7 30.7 41.7 30.7 41.7 30.7 41.7 30.7 41.7 30.7 41.7 30.7 41.7 30.8 41.7 30.8 41.7 30.8 41.7L30.8 41.7C30.8 41.7 30.8 41.7 30.8 41.7 30.8 41.7 30.8 41.7 30.8 41.7 30.8 41.7 30.8 41.7 30.8 41.7 30.8 41.7 30.8 41.7 30.8 41.7 30.8 41.7 30.8 41.7 30.8 41.7 30.8 41.7 30.8 41.7 30.8 41.7 30.8 41.7 30.8 41.7 30.8 41.7L30.8 41.7C30.8 41.7 30.8 41.7 30.8 41.7 30.8 41.7 30.8 41.7 30.8 41.7 30.8 41.7 30.8 41.7 30.8 41.7 30.8 41.7 30.8 41.7 30.8 41.7 30.8 41.7 30.8 41.7 30.8 41.7 30.8 41.7 30.8 41.7 30.8 41.7 30.8 41.7 30.8 41.7 30.8 41.7 30.8 41.7 30.8 41.7 30.8 41.7 30.8 41.7 30.9 41.7 30.9 41.7 30.9 41.7 30.9 41.7 30.9 41.7 30.9 41.7 30.9 41.7 30.9 41.7 30.9 41.7 30.9 41.7 30.9 41.7 30.9 41.7 30.9 41.7 30.9 41.7 30.9 41.7 30.9 41.7 30.9 41.7 30.9 41.7 30.9 41.7 30.9 41.7 30.9 41.7 30.9 41.7 30.9 41.7 30.9 41.7 30.9 41.7 30.9 41.7 30.9 41.7 30.9 41.7 30.9 41.7 30.9 41.7 30.9 41.7 30.9 41.7 30.9 41.7 30.9 41.7 30.9 41.7 30.9 41.7 30.9 41.7 30.9 41.7 30.9 41.7 30.9 41.7 30.9 41.7 30.9 41.7 30.9 41.7 30.9 41.7 30.9 41.7 30.9 41.7 30.9 41.7 30.9 41.7 30.9 41.7 30.9 41.7 30.9 41.7 30.9 41.7 30.9 41.7 30.9 41.7 30.9 41.7 30.9 41.7 30.9 41.7 30.9 41.7 30.9 41.7 30.9 41.7 30.9 41.7 30.9 41.7 30.9 41.7 30.9 41.7 30.9 41.7 30.9 41.7 31 41.7 31 41.7 31 41.7 31 41.7 31 41.7 31 41.7 31 41.7 31 41.7 31 41.7 31 41.7 31 41.7 31 41.7 31 41.7 31 41.7 31 41.7 31 41.7 31 41.7 31 41.7 31 41.7 31 41.7 31 41.7 31 41.7 31 41.7 31 41.7 31 41.7 31 41.7 31 41.7 31 41.7 31 41.7 31 41.7 31 41.7 31 41.7 31 41.7 31 41.7 31 41.7 31 41.7 31 41.7 31 41.7 31 41.7 31 41.7 31 41.7 31 41.7 31 41.7 31 41.7 31 41.7 31 41.7 31 41.7 31 41.7 31 41.7 31 41.7 31 41.7 31 41.7 31 41.7 31 41.7 31 41.7 31 41.7 31 41.7 31 41.7 31 41.7 31 41.7 31 41.7 31 41.7 31 41.7 31 41.7 31 41.7 31 41.7 31 41.7 31 41.7 31 41.7 31 41.7 31 41.7 31 41.7 31 41.7 31.1 41.7 31.1 41.7 31.1 41.7 31.1 41.7 31.1 41.7 31.1 41.7 31.1 41.7 31.1 41.7 31.1 41.7 31.1 41.7 31.1 41.7 31.1 41.7 31.1 41.7 31.1 41.7 31.1 41.7 31.1 41.7 31.1 41.7 31.1 41.7 31.1 41.7 31.1 41.7 31.1 41.7 31.1 41.7 31.1 41.7 31.1 41.7 31.1 41.7 31.1 41.7 31.1 41.7 31.1 41.7 31.1 41.7 31.1 41.7 31.1 41.7 31.1 41.7 31.1 41.7 31.1 41.7 31.1 41.7 31.1 41.7 31.1 41.7 31.1 41.7 31.1 41.7 31.1 41.7 31.1 41.7 31.1 41.7 31.1 41.7 31.1 41.7 31.1 41.7 31.1 41.7 31.1 41.7 31.1 41.7 31.1 41.7 31.1 41.7 31.1 41.7 31.1 41.7 31.1 41.7 31.1 41.7 31.1 41.7 31.1 41.7 31.1 41.7 31.1 41.7 31.1 41.7 31.1 41.7 31.1 41.7 31.1 41.7 31.1 41.7 31.1 41.7 31.1 41.7 31.1 41.7 31.1 41.7 31.1 41.7 31.1 41.7 31.1 41.7 31.2 41.7 31.2 41.7 31.2 41.7 31.2 41.7 31.2 41.7 31.2 41.7 31.2 41.7 31.2 41.7 31.2 41.7 31.2 41.7 31.2 41.7 31.2 41.7 31.2 41.7 31.2 41.7 31.2 41.7L31.2 41.7C31.2 41.7 31.2 41.7 31.2 41.7 31.2 41.7 31.2 41.7 31.2 41.7 31.2 41.7 31.2 41.7 31.2 41.7 31.2 41.7 31.2 41.7 31.2 41.7 31.2 41.7 31.2 41.7 31.2 41.7 31.2 41.7 31.2 41.7 31.2 41.7 31.2 41.7 31.2 41.7 31.2 41.7 31.2 41.7 31.2 41.7 31.2 41.7 31.2 41.7 31.3 41.7 31.3 41.7 31.3 41.7 31.3 41.7 31.3 41.7 31.3 41.7 31.3 41.7 31.3 41.7 31.3 41.7 31.3 41.7 31.3 41.7 31.3 41.7 31.3 41.7 31.3 41.7 31.3 41.7 31.3 41.7 31.3 41.7 31.3 41.7 31.3 41.7 31.3 41.7 31.3 41.7 31.3 41.7 31.4 41.7 31.6 41.7 31.9 41.7 32.1 41.7L32.3 43.2C31.9 43.2 31.5 43.2 31.1 43.2ZM41.2 34.3C41.2 34.3 41.2 34.3 41.2 34.3L42.7 34.8C42.6 35.1 42.5 35.4 42.4 35.7 42 36.5 41.6 37.2 41.1 38L39.9 37.1C40.1 36.7 40.4 36.3 40.6 35.9 40.6 35.8 40.6 35.8 40.6 35.8L40.6 35.8C40.6 35.8 40.6 35.8 40.6 35.8 40.6 35.8 40.6 35.8 40.6 35.8 40.6 35.8 40.6 35.8 40.6 35.8 40.6 35.8 40.6 35.8 40.6 35.8 40.6 35.8 40.6 35.7 40.6 35.7 40.6 35.7 40.6 35.7 40.6 35.7 40.6 35.7 40.6 35.7 40.6 35.7 40.6 35.7 40.6 35.7 40.6 35.7 40.6 35.7 40.6 35.7 40.7 35.7 40.7 35.7 40.7 35.7 40.7 35.7 40.7 35.7 40.7 35.7 40.7 35.7 40.7 35.7 40.7 35.7 40.7 35.7 40.7 35.7 40.7 35.7 40.7 35.7 40.7 35.7 40.7 35.7 40.7 35.7 40.7 35.7 40.7 35.7 40.7 35.7 40.7 35.7 40.7 35.6 40.7 35.6 40.7 35.6 40.7 35.6 40.7 35.6 40.7 35.6 40.7 35.6 40.7 35.6 40.7 35.6 40.7 35.6 40.7 35.6 40.7 35.6 40.7 35.6 40.7 35.6 40.7 35.6 40.7 35.6 40.7 35.6 40.7 35.6 40.7 35.6 40.7 35.6 40.7 35.6 40.7 35.6 40.7 35.6 40.7 35.6 40.7 35.6 40.7 35.6 40.7 35.6 40.7 35.6 40.7 35.6 40.7 35.6 40.7 35.6 40.7 35.6 40.7 35.6 40.7 35.6 40.7 35.6 40.7 35.6 40.7 35.6 40.7 35.6 40.7 35.6 40.7 35.6 40.7 35.6 40.7 35.6 40.7 35.6 40.7 35.6 40.7 35.6 40.7 35.6 40.7 35.6 40.7 35.5 40.7 35.5 40.7 35.5 40.7 35.5 40.7 35.5 40.7 35.5 40.7 35.5 40.7 35.5 40.7 35.5 40.7 35.5 40.7 35.5 40.7 35.5 40.7 35.5 40.7 35.5 40.7 35.5 40.7 35.5 40.7 35.5 40.7 35.5 40.7 35.5 40.7 35.5 40.7 35.5 40.7 35.5 40.7 35.5 40.7 35.5 40.7 35.5 40.8 35.5 40.8 35.5 40.8 35.5 40.8 35.5 40.8 35.5 40.8 35.5 40.8 35.5 40.8 35.5 40.8 35.5 40.8 35.5 40.8 35.5 40.8 35.5 40.8 35.5 40.8 35.5 40.8 35.5 40.8 35.5 40.8 35.5 40.8 35.5 40.8 35.5 40.8 35.5 40.8 35.5 40.8 35.4 40.8 35.4 40.8 35.4 40.8 35.4 40.8 35.4 40.8 35.4 40.8 35.4 40.8 35.4 40.8 35.4 40.8 35.4 40.8 35.4 40.8 35.4 40.8 35.4 40.8 35.4 40.8 35.4 40.8 35.4 40.8 35.4 40.8 35.4 40.8 35.4 40.8 35.4 40.8 35.4 40.8 35.4 40.8 35.4 40.8 35.4 40.8 35.4 40.8 35.4 40.8 35.4 40.8 35.4 40.8 35.4 40.8 35.4 40.8 35.4 40.8 35.4 40.8 35.4 40.8 35.4 40.8 35.4 40.8 35.4 40.8 35.4 40.8 35.4 40.8 35.4 40.8 35.4 40.8 35.4 40.8 35.4 40.8 35.4 40.8 35.4 40.8 35.4 40.8 35.4 40.8 35.4 40.8 35.4 40.8 35.4 40.8 35.4 40.8 35.4 40.8 35.3 40.8 35.3 40.8 35.3 40.8 35.3 40.8 35.3 40.8 35.3 40.8 35.3 40.8 35.3 40.8 35.3 40.8 35.3 40.8 35.3 40.8 35.3 40.8 35.3 40.8 35.3 40.8 35.3 40.8 35.3 40.8 35.3 40.8 35.3 40.8 35.3 40.8 35.3 40.8 35.3 40.8 35.3 40.8 35.3 40.8 35.3 40.8 35.3 40.8 35.3 40.8 35.3 40.8 35.3 40.8 35.3 40.8 35.3 40.8 35.3 40.8 35.3 40.8 35.3 40.8 35.3 40.8 35.3 40.8 35.3 40.8 35.3 40.8 35.3 40.8 35.3 40.8 35.3 40.8 35.3 40.8 35.3 40.8 35.3 40.8 35.3 40.8 35.3 40.8 35.3 40.9 35.3 40.9 35.3 40.9 35.3 40.9 35.3 40.9 35.3 40.9 35.2 40.9 35.2 40.9 35.2 40.9 35.2 40.9 35.2 40.9 35.2 40.9 35.2 40.9 35.2 40.9 35.2 40.9 35.2 40.9 35.2 40.9 35.2 40.9 35.2 40.9 35.2 40.9 35.2 40.9 35.2 40.9 35.2 40.9 35.2 40.9 35.2 40.9 35.2 40.9 35.2 40.9 35.2 40.9 35.2 40.9 35.2 40.9 35.2 40.9 35.2 40.9 35.2 40.9 35.2 40.9 35.2 40.9 35.2 40.9 35.2 40.9 35.2 40.9 35.2 40.9 35.2 40.9 35.2 40.9 35.2 40.9 35.2 40.9 35.2 40.9 35.2 40.9 35.2 40.9 35.2 40.9 35.2 40.9 35.2 40.9 35.2 40.9 35.2 40.9 35.2 40.9 35.2 40.9 35.2 40.9 35.2 40.9 35.2 40.9 35.2 40.9 35.1 40.9 35.1 40.9 35.1 40.9 35.1 40.9 35.1 40.9 35.1 40.9 35.1 40.9 35.1 40.9 35.1 40.9 35.1 40.9 35.1 40.9 35.1 40.9 35.1 40.9 35.1 40.9 35.1 40.9 35.1 40.9 35.1 40.9 35.1 40.9 35.1 40.9 35.1 40.9 35.1 40.9 35.1 40.9 35.1 40.9 35.1 40.9 35.1 40.9 35.1 40.9 35.1 40.9 35.1 40.9 35.1 40.9 35.1 40.9 35.1 40.9 35.1 40.9 35.1 40.9 35.1 40.9 35.1 40.9 35.1 40.9 35.1 40.9 35.1 40.9 35.1 40.9 35.1 40.9 35.1 40.9 35.1 40.9 35.1 40.9 35.1 40.9 35.1 40.9 35.1 40.9 35.1 40.9 35.1 40.9 35.1 40.9 35.1 40.9 35.1 40.9 35.1 40.9 35.1 40.9 35.1 40.9 35.1 40.9 35.1 40.9 35.1 40.9 35.1 40.9 35 40.9 35 40.9 35 40.9 35 40.9 35 40.9 35 40.9 35 40.9 35 40.9 35 40.9 35 40.9 35 40.9 35 40.9 35 40.9 35 40.9 35 40.9 35 40.9 35 40.9 35 40.9 35 40.9 35 40.9 35 40.9 35 40.9 35 40.9 35 41 35 41 35 41 35 41 35 41 35 41 35 41 35 41 35 41 35 41 35 41 35 41 35 41 35 41 35 41 35 41 35 41 35 41 35 41 35 41 35 41 35 41 35 41 35 41 35 41 35 41 35 41 35 41 35 41 35 41 35 41 35 41 35 41 35 41 35 41 35 41 35 41 35 41 35 41 35 41 35L41 35C41 35 41 35 41 35 41 35 41 35 41 35 41 35 41 35 41 34.9 41 34.9 41 34.9 41 34.9 41 34.9 41 34.9 41 34.9 41 34.9 41 34.9 41 34.9 41 34.9 41 34.9 41 34.9 41 34.9 41 34.9 41 34.9 41 34.9 41 34.9 41 34.9 41 34.9 41 34.9 41 34.9 41 34.9 41 34.9 41 34.9 41 34.9 41 34.9 41 34.9 41 34.9 41 34.9 41 34.9 41 34.9 41 34.9 41 34.9 41 34.9 41 34.9 41 34.9 41 34.9 41 34.9 41 34.9 41 34.9 41 34.9 41 34.9L41 34.9C41 34.9 41 34.9 41 34.9L41 34.9C41 34.9 41 34.9 41 34.9 41 34.9 41 34.9 41 34.9 41 34.9 41 34.9 41 34.9 41 34.9 41 34.9 41 34.8 41 34.8 41 34.8 41 34.8 41 34.8 41 34.8 41 34.8 41 34.8 41 34.8 41 34.8 41 34.8 41 34.8 41 34.8 41 34.8 41 34.8 41 34.8 41 34.8 41 34.8 41 34.8 41 34.8 41 34.8 41 34.8 41.1 34.6 41.1 34.5 41.2 34.4 41.2 34.4 41.2 34.3 41.2 34.3 41.2 34.3 41.2 34.3 41.2 34.3 41.2 34.3 41.2 34.3 41.2 34.3ZM19.3 33.5L20.8 33.2C21 34.2 21.4 35.2 21.8 36.1L20.5 36.8C19.9 35.8 19.5 34.6 19.3 33.5ZM24.1 39C24.1 39 24.1 39 24.1 39 24.7 39.6 25.4 40 26.1 40.4L25.4 41.8C24.4 41.2 23.4 40.5 22.6 39.7L23.7 38.6C23.7 38.6 23.7 38.6 23.7 38.6 23.7 38.6 23.7 38.6 23.7 38.6 23.7 38.6 23.7 38.6 23.7 38.6L23.7 38.6C23.7 38.6 23.7 38.6 23.7 38.6L23.7 38.6C23.7 38.6 23.7 38.6 23.7 38.6 23.7 38.6 23.7 38.6 23.7 38.6 23.7 38.6 23.7 38.7 23.7 38.7 23.7 38.7 23.7 38.7 23.7 38.7 23.8 38.7 23.8 38.7 23.8 38.7 23.8 38.7 23.8 38.7 23.8 38.7 23.8 38.7 23.8 38.7 23.8 38.7 23.8 38.7 23.8 38.7 23.8 38.7 23.8 38.7 23.8 38.7 23.8 38.7 23.8 38.7 23.8 38.7 23.8 38.7 23.8 38.7 23.8 38.7 23.8 38.7 23.8 38.7 23.8 38.7 23.8 38.7 23.8 38.7 23.8 38.7 23.8 38.7 23.8 38.7 23.8 38.7 23.8 38.7 23.8 38.7 23.8 38.7 23.8 38.7 23.8 38.7 23.8 38.7 23.8 38.7 23.8 38.7 23.8 38.7 23.8 38.7 23.8 38.7 23.8 38.7 23.8 38.7 23.8 38.7 23.8 38.7 23.8 38.7 23.8 38.7 23.8 38.7 23.8 38.7 23.8 38.7 23.8 38.7 23.8 38.7 23.8 38.7 23.8 38.7 23.8 38.7 23.8 38.7 23.8 38.7 23.8 38.7 23.8 38.7 23.8 38.7 23.8 38.7 23.8 38.7 23.8 38.7 23.8 38.7 23.8 38.8 23.8 38.8 23.9 38.8 23.9 38.8 23.9 38.8 23.9 38.8 23.9 38.8 23.9 38.8 23.9 38.8 23.9 38.8 23.9 38.8 23.9 38.8 23.9 38.8 23.9 38.8 23.9 38.8 23.9 38.8 23.9 38.8 23.9 38.8 23.9 38.8 23.9 38.8 23.9 38.8 23.9 38.8 23.9 38.8 23.9 38.8 23.9 38.8 23.9 38.8 23.9 38.8 23.9 38.8 23.9 38.8 23.9 38.8 23.9 38.8 23.9 38.8 23.9 38.8 23.9 38.8 23.9 38.8 23.9 38.8 23.9 38.8 23.9 38.8 23.9 38.8 23.9 38.8 23.9 38.8 23.9 38.8 23.9 38.8 23.9 38.8 23.9 38.8 23.9 38.8 23.9 38.8 23.9 38.8 23.9 38.8 23.9 38.8 23.9 38.8 23.9 38.8 23.9 38.8 23.9 38.8 23.9 38.8 23.9 38.8 23.9 38.8 23.9 38.8 23.9 38.8 23.9 38.8 23.9 38.8 23.9 38.8 23.9 38.8 23.9 38.8 23.9 38.8 23.9 38.8 23.9 38.8 23.9 38.8 23.9 38.8 23.9 38.8 23.9 38.8 23.9 38.8 23.9 38.8 24 38.9 24 38.9 24 38.9 24 38.9 24 38.9 24 38.9 24 38.9 24 38.9 24 38.9 24 38.9 24 38.9 24 38.9 24 38.9 24 38.9 24 38.9 24 38.9 24 38.9 24 38.9 24 38.9 24 38.9 24 38.9 24 38.9 24 38.9 24 38.9 24 38.9 24 38.9 24 38.9 24 38.9 24 38.9 24 38.9 24 38.9 24 38.9 24 38.9 24 38.9 24 38.9 24 38.9 24 38.9 24 38.9 24 38.9 24 38.9 24 38.9 24 38.9 24 38.9 24 38.9 24 38.9 24 38.9 24 38.9 24 38.9 24 38.9 24 38.9 24 38.9 24 38.9 24 38.9 24 38.9 24 38.9 24 38.9 24 38.9 24 38.9 24 38.9 24 38.9 24 38.9 24 38.9 24 38.9 24 38.9 24 38.9 24 38.9 24 38.9 24 38.9 24.1 38.9 24.1 38.9 24.1 38.9 24.1 38.9 24.1 38.9 24.1 38.9 24.1 39 24.1 39 24.1 39 24.1 39 24.1 39 24.1 39 24.1 39 24.1 39 24.1 39 24.1 39 24.1 39 24.1 39 24.1 39 24.1 39 24.1 39L24.1 39C24.1 39 24.1 39 24.1 39ZM85.1 61.3C96.3 61.1 105.5 52.2 106 40.9 106.6 29.1 97.4 19.1 85.6 18.5 85.3 18.5 84.9 18.5 84.6 18.5 83.1 18.5 81.6 18.6 80.2 18.9 79.6 18 79 17.1 78.3 16.3 78.2 16.1 78.1 16 78 15.9 72.9 9.7 65.2 5.6 56.5 5.6 47.3 5.6 39.1 10.1 34.1 17.1 33.9 17.2 33.8 17.4 33.6 17.6 33.3 18.1 32.9 18.6 32.6 19.2 33.7 19.3 34.7 19.6 35.7 20L35.9 20.1 35.3 21.5C35.2 21.5 35.2 21.4 35.1 21.4 35.1 21.4 35.1 21.4 35.1 21.4 35.1 21.4 35.1 21.4 35.1 21.4 35.1 21.4 35.1 21.4 35.1 21.4 35.1 21.4 35.1 21.4 35.1 21.4 35.1 21.4 35.1 21.4 35.1 21.4 35.1 21.4 35.1 21.4 35.1 21.4 35.1 21.4 35.1 21.4 35.1 21.4L35.1 21.4C35 21.4 35 21.4 35 21.4 35 21.4 35 21.4 35 21.4 35 21.4 35 21.4 35 21.4 35 21.4 35 21.4 35 21.4 35 21.4 35 21.4 35 21.4 35 21.4 35 21.4 35 21.4 35 21.4 35 21.4 35 21.4 35 21.4 35 21.4 35 21.4 35 21.4 35 21.3 35 21.3 34.9 21.3 34.9 21.3 34.9 21.3 34.8 21.3 34.7 21.2 34.6 21.2 34.6 21.2 34.6 21.2 34.5 21.2 34.5 21.2 34.5 21.2 34.5 21.2 34.5 21.2 34.5 21.2 34.5 21.2 34.5 21.2 34.5 21.2 34.5 21.2L34.5 21.2C34.5 21.2 34.5 21.2 34.5 21.2 34.5 21.2 34.5 21.2 34.5 21.2 34.5 21.2 34.5 21.2 34.5 21.2L34.5 21.2C34.5 21.2 34.5 21.2 34.5 21.2 34.5 21.2 34.5 21.2 34.5 21.2 34.5 21.2 34.5 21.2 34.5 21.2 34.5 21.2 34.5 21.2 34.5 21.2 34.4 21.2 34.4 21.2 34.4 21.2 34.4 21.2 34.4 21.2 34.4 21.2 34.4 21.2 34.4 21.2 34.4 21.2 34.4 21.2 34.4 21.2 34.4 21.2 34.4 21.2 34.4 21.2 34.4 21.2 34.4 21.2 34.4 21.1 34.4 21.1 34.4 21.1 34.4 21.1 34.4 21.1 34.4 21.1 34.4 21.1 34.4 21.1 34.4 21.1 34.4 21.1 34.4 21.1 34.4 21.1 34.4 21.1 34.4 21.1 34.4 21.1 34.4 21.1 34.4 21.1 34.4 21.1 34.4 21.1 34.4 21.1 34.4 21.1 34.4 21.1 34.4 21.1 34.4 21.1 34.4 21.1 34.4 21.1 34.4 21.1 34.4 21.1 34.4 21.1 34.4 21.1 34.4 21.1 34.4 21.1 34.4 21.1 34.4 21.1 34.4 21.1 34.4 21.1 34.4 21.1 34.4 21.1 34.4 21.1 34.3 21.1 34.3 21.1 34.3 21.1 34.3 21.1 34.3 21.1 34.3 21.1 34.3 21.1 34.3 21.1 34.3 21.1 34.3 21.1 34.3 21.1 34.3 21.1 34.3 21.1 34.3 21.1 34.3 21.1 34.3 21.1 34.3 21.1 34.3 21.1 34.3 21.1 34.3 21.1 34.3 21.1 34.3 21.1 34.3 21.1 34.3 21.1 34.3 21.1 34.3 21.1 34.3 21.1 34.3 21.1 34.3 21.1 34.3 21.1 34.3 21.1 34.3 21.1 34.3 21.1 34.3 21.1 34.3 21.1 34.3 21.1 34.3 21.1 34.3 21.1 34.3 21.1 34.3 21.1 34.3 21.1 34.3 21.1 34.3 21.1 34.3 21.1 34.3 21.1 34.3 21.1 34.3 21.1 34.3 21.1 34.3 21.1 34.3 21.1 34.2 21.1 34.2 21.1 34.2 21.1 34.2 21.1 34.2 21.1 34.2 21.1 34.2 21.1 34.2 21.1 34.2 21.1 34.2 21.1 34.2 21.1 34.2 21.1 34.2 21.1 34.2 21.1 34.2 21.1 34.2 21.1 34.2 21.1 34.2 21.1 33.6 20.9 32.9 20.8 32.3 20.7L32.4 19.5C32.2 19.9 32 20.2 31.8 20.6 31.6 20.6 31.4 20.6 31.2 20.6 31 20.6 30.8 20.7 30.6 20.7L31.5 21.1C31.5 21.2 31.5 21.3 31.4 21.3L31.4 21.3C31.4 21.3 31.4 21.3 31.4 21.3 31.4 21.3 31.4 21.3 31.4 21.3 31.4 21.3 31.4 21.3 31.4 21.3 31.4 21.3 31.4 21.3 31.4 21.3 31.4 21.3 31.4 21.3 31.4 21.3 31.4 21.4 31.4 21.4 31.4 21.4 31.4 21.4 31.4 21.4 31.4 21.4 31.4 21.4 31.4 21.4 31.4 21.4 31.4 21.4 31.4 21.4 31.4 21.4 31.4 21.4 31.4 21.4 31.4 21.4 31.4 21.4 31.4 21.4 31.4 21.4 31.4 21.4 31.4 21.4 31.4 21.4 31.4 21.4 31.4 21.4 31.4 21.4 31.4 21.4 31.4 21.4 31.4 21.4 31.4 21.4 31.4 21.4 31.4 21.4 31.4 21.4 31.4 21.4 31.4 21.4 31.4 21.4 31.4 21.4 31.4 21.4 31.4 21.4 31.4 21.4 31.4 21.4 31.4 21.4 31.4 21.4 31.4 21.4 31.4 21.4 31.4 21.4 31.4 21.4L31.4 21.4C31.4 21.4 31.4 21.5 31.3 21.5 31.3 21.5 31.3 21.5 31.3 21.5 31 22.3 30.6 23.1 30.3 24L28.8 23.4C29.2 22.5 29.6 21.6 30 20.7 26 21.2 22.6 23.9 21.3 27.6 21.3 27.6 21.3 27.6 21.2 27.6 21.2 27.6 21.2 27.6 21.2 27.6 21.2 27.6 21.2 27.6 21.2 27.6 21.2 27.6 21.2 27.6 21.2 27.6 21.2 27.6 21.2 27.6 21.2 27.6 21.2 27.6 21.2 27.6 21.2 27.6 21.2 27.6 21.2 27.6 21.2 27.6 21.2 27.6 21.2 27.6 21.2 27.6 21.2 27.6 21.2 27.6 21.2 27.6 21.2 27.6 21.2 27.6 21.2 27.6 21.2 27.6 21.2 27.6 21.2 27.6 21.2 27.6 21.2 27.6 21.2 27.6 21.2 27.6 21.2 27.7 21.2 27.7 21.2 27.7 21.2 27.7 21.2 27.7 21.2 27.7 21.2 27.7 21.2 27.7 21.2 27.7 21.2 27.7 21.2 27.7 21.2 27.7 21.2 27.7 21.2 27.7 21.2 27.7 21.2 27.7 21.2 27.7 21.2 27.7 21.2 27.7 21.2 27.7 21.2 27.7 21.2 27.7 21.2 27.7 21.2 27.7 21.2 27.7 21.2 27.7 21.2 27.7 21.2 27.7 21.2 27.7 21.2 27.7 21.2 27.7 21.2 27.7 21.2 27.7 21.2 27.7 21.2 27.7 21.2 27.7 21.2 27.7 21.2 27.7 21.2 27.7 21.2 27.7 21.2 27.7 21.2 27.7 21.2 27.7 21.2 27.7 21.2 27.7 21.2 27.7 21.2 27.7 21.2 27.7 21.2 27.7 21.2 27.7 21.2 27.7 21.2 27.7 21.2 27.7 21.2 27.7 21.2 27.7 21.2 27.8 21.2 27.8 21.2 27.8 21.2 27.8 21.2 27.8 21.2 27.8 21.2 27.8 21.2 27.8 21.2 27.8 21.2 27.8 21.2 27.8 21.2 27.8 21.2 27.8 21.2 27.8 21.2 27.8 21.2 27.8 21.2 27.8 21.2 27.8 21.2 27.8 21.2 27.8 21.2 27.8 21.2 27.8 21.2 27.8 21.2 27.8 21.2 27.8 21.2 27.8 21.2 27.8 21.2 27.8 21.2 27.8 21.2 27.8 21.2 27.8 21.2 27.8 21.2 27.8 21.2 27.8 21.2 27.8 21.2 27.8 21.2 27.8 21.2 27.8 21.2 27.8 21.2 27.8 21.2 27.8 21.2 27.8 21.2 27.9 21.2 27.9 21.2 27.9 21.2 27.9 21.2 27.9 21.1 27.9 21.1 27.9 21.1 27.9 21.1 27.9 21.1 27.9 21.1 27.9 21.1 27.9 21.1 27.9L21.1 27.9C21.1 27.9 21.1 27.9 21.1 27.9 21.1 27.9 21.1 27.9 21.1 27.9 21.1 27.9 21.1 27.9 21.1 27.9 21.1 27.9 21.1 27.9 21.1 27.9 21.1 27.9 21.1 27.9 21.1 27.9 21.1 27.9 21.1 27.9 21.1 27.9 21.1 27.9 21.1 27.9 21.1 27.9 21.1 27.9 21.1 27.9 21.1 27.9 21.1 28 21.1 28 21.1 28L21.1 28C21.1 28 21.1 28 21.1 28L21.1 28C21.1 28 21.1 28 21.1 28 21.1 28 21.1 28 21.1 28 21.1 28 21.1 28 21.1 28 21.1 28 21.1 28 21.1 28 21.1 28 21.1 28 21.1 28 21.1 28 21.1 28 21.1 28 21.1 28 21.1 28 21.1 28.1 21.1 28.1 21.1 28.1 21.1 28.1 21.1 28.1 21.1 28.1 21.1 28.1 21.1 28.1 21.1 28.1 21.1 28.1L21.1 28.1C21.1 28.1 21.1 28.1 21.1 28.1L21.1 28.1C21.1 28.1 21.1 28.1 21.1 28.2 20.9 28.5 20.9 28.9 20.8 29.2 20.8 29.3 20.8 29.3 20.8 29.3L20.8 29.3C20.8 29.3 20.8 29.3 20.8 29.3L20.8 29.3C20.8 29.3 20.8 29.3 20.8 29.3L20.8 29.3C20.8 29.3 20.8 29.3 20.8 29.4 20.8 29.4 20.8 29.4 20.8 29.4 20.8 29.4 20.8 29.4 20.8 29.4 20.8 29.4 20.8 29.4 20.8 29.4 20.8 29.4 20.8 29.4 20.8 29.4 20.8 29.4 20.8 29.4 20.8 29.4 20.8 29.4 20.8 29.4 20.8 29.4 20.8 29.4 20.8 29.4 20.8 29.4 20.8 29.4 20.8 29.4 20.8 29.4 20.8 29.4 20.8 29.4 20.8 29.4 20.8 29.4 20.8 29.4 20.8 29.4 20.8 29.5 20.8 29.5 20.8 29.5 20.8 29.5 20.8 29.5 20.8 29.5 20.8 29.5 20.8 29.5 20.8 29.5L20.8 29.5C20.8 29.5 20.8 29.5 20.7 29.5 20.7 29.5 20.7 29.5 20.7 29.5 20.7 29.5 20.7 29.5 20.7 29.5 20.7 29.5 20.7 29.5 20.7 29.5 20.7 29.5 20.7 29.5 20.7 29.5 20.7 29.5 20.7 29.5 20.7 29.5 20.7 29.5 20.7 29.5 20.7 29.5 20.7 29.5 20.7 29.5 20.7 29.5 20.7 29.5 20.7 29.5 20.7 29.5 20.7 29.5 20.7 29.6 20.7 29.6 20.7 29.6 20.7 29.6 20.7 29.6 20.7 29.6 20.7 29.6 20.7 29.6 20.7 29.6 20.7 29.6 20.7 29.6 20.7 29.6 20.7 29.6 20.7 29.6 20.7 29.6 20.7 29.6 20.7 29.6 20.7 29.6 20.7 29.6 20.7 29.6 20.7 29.6 20.7 29.6 20.7 29.6 20.7 29.6 20.7 29.6 20.7 29.6 20.7 29.6 20.7 29.6 20.7 29.6 20.7 29.6 20.7 29.6 20.7 29.6 20.7 29.6 20.7 29.6 20.7 29.6 20.7 29.6 20.7 29.6 20.7 29.6 20.7 29.6 20.7 29.6 20.7 29.6 20.7 29.6 20.7 29.6 20.7 29.6 20.7 29.6 20.7 29.6 20.7 29.6 20.7 29.6 20.7 29.6 20.7 29.6 20.7 29.6 20.7 29.6 20.7 29.6 20.7 29.6 20.7 29.7 20.7 29.7 20.7 29.7 20.7 29.7 20.7 29.7 20.7 29.7 20.7 29.7 20.7 29.7 20.7 29.7 20.7 29.7 20.7 29.7 20.7 29.7 20.7 29.7 20.7 29.7 20.7 29.7 20.7 29.7 20.7 29.7 20.7 29.7 20.7 29.7 20.7 29.7 20.7 29.7 20.7 29.7 20.7 29.7 20.7 29.7 20.7 29.7 20.7 29.7 20.7 29.7 20.7 29.7 20.7 29.7 20.7 29.7 20.7 29.7 20.7 29.7 20.7 29.7 20.7 29.7 20.7 29.7 20.7 29.7 20.7 29.7 20.7 29.7 20.7 29.7 20.7 29.7 20.7 29.7 20.7 29.7 20.7 29.7 20.7 29.7 20.7 29.7 20.7 29.7 20.7 29.7 20.7 29.7 20.7 29.7 20.7 29.7 20.7 29.7 20.7 29.7 20.7 29.7 20.7 29.7 20.7 29.8 20.7 29.8 20.7 29.8 20.7 29.8 20.7 29.8 20.7 29.8 20.7 29.8 20.7 29.8 20.7 29.8 20.7 29.8 20.7 29.8 20.7 29.8 20.7 29.8 20.7 29.8 20.7 29.8 20.7 29.8 20.7 29.8 20.7 29.8 20.7 29.8 20.7 29.8 20.7 29.8 20.7 29.8 20.7 29.8 20.7 29.8 20.7 29.8 20.7 29.8L20.7 29.8C20.7 29.8 20.7 29.8 20.7 29.8 20.7 29.8 20.7 29.8 20.7 29.8 20.7 29.8 20.7 29.8 20.7 29.8 20.7 29.8 20.7 29.8 20.7 29.8 20.7 29.8 20.7 29.8 20.7 29.8 20.7 29.8 20.7 29.8 20.7 29.8 20.7 29.9 20.7 29.9 20.7 29.9 20.7 29.9 20.7 29.9 20.7 29.9 20.7 29.9 20.7 29.9 20.7 29.9 20.7 29.9 20.7 29.9 20.7 29.9 20.7 30 20.7 30 20.7 30.1L19.1 29.9C19.2 29.2 19.4 28.4 19.6 27.7 11.2 28.7 4.6 35.8 4.6 44.5 4.6 53.7 12.3 61.3 21.5 61.4L21.4 61.4 24.3 61.4 24.3 61.1C24.3 61.1 24.3 61.1 24.3 61.1 24.3 61.1 24.3 61.1 24.3 61.1 24.3 61.1 24.3 61.1 24.3 61.1 24.4 61 24.5 61 24.5 61 24.5 61 24.5 61 24.5 61 24.5 61 24.6 61 24.6 61 24.6 61 24.6 61 24.6 61 24.6 61 24.6 61 24.6 61 24.6 61 24.6 61 24.6 61 24.6 61 24.6 61 24.6 61 24.6 61 24.6 61 24.6 61 24.6 61 24.6 61 24.6 61 24.6 61 24.6 61 24.6 61 24.6 61 24.6 61 24.6 61 24.6 61 24.6 61 24.6 61 24.6 61 24.6 61 24.6 61 24.6 61 24.6 61 24.6 61 24.6 61 24.6 61 24.6 61 24.7 61 24.7 61 24.7 61 24.7 61 24.7 61 24.7 61 24.7 61 24.7 61 24.7 61 24.7 61 24.7 61 24.7 61 24.7 61 24.7 61 24.7 61 24.7 61 24.8 61 24.8 61 25.6 60.8 26.5 60.6 27.3 60.3L27.7 61.4 49.3 61.4 49.5 60.5C50 60.6 50.5 60.7 51 60.8 51 60.8 51 60.8 51 60.8 51 60.8 51 60.8 51 60.8 51 60.8 51 60.8 51 60.8 51 60.8 51 60.8 51 60.8 51 60.8 51 60.8 51 60.8 51 60.8 51 60.8 51 60.8L51 60.8C51 60.8 51.1 60.8 51.1 60.8 51.1 60.8 51.1 60.8 51.1 60.8 51.1 60.8 51.1 60.8 51.1 60.8 51.1 60.8 51.1 60.8 51.1 60.8 51.1 60.8 51.1 60.8 51.1 60.8 51.1 60.8 51.1 60.8 51.1 60.8 51.1 60.8 51.1 60.8 51.1 60.8 51.1 60.8 51.1 60.8 51.1 60.8 51.1 60.8 51.1 60.8 51.1 60.8 51.1 60.8 51.1 60.8 51.1 60.8 51.1 60.8 51.1 60.8 51.1 60.8 51.1 60.8 51.1 60.8 51.1 60.8 51.1 60.8 51.1 60.8 51.1 60.8 51.1 60.8 51.1 60.8 51.1 60.8 51.1 60.8 51.2 60.8 51.2 60.8 51.2 60.8 51.2 60.8 51.2 60.8 51.2 60.8 51.2 60.8 51.2 60.8 51.2 60.8 51.2 60.8 51.2 60.8 51.2 60.9 51.2 60.9 51.2 60.9 51.2 60.9 51.2 60.9 51.2 60.9 51.2 60.9 51.2 60.9 51.2 60.9 51.2 60.9 51.2 60.9 51.2 60.9 51.2 60.9 51.2 60.9 51.2 60.9 51.2 60.9 51.2 60.9 51.2 60.9 51.2 60.9 51.2 60.9 51.2 60.9 51.2 60.9 51.2 60.9 51.2 60.9 51.2 60.9 51.2 60.9 51.2 60.9 51.2 60.9 51.2 60.9 51.2 60.9 51.2 60.9 51.2 60.9 51.2 60.9 51.2 60.9 51.2 60.9 51.2 60.9 51.2 60.9 51.2 60.9 51.2 60.9L51.2 60.9C51.3 60.9 51.3 60.9 51.3 60.9 51.3 60.9 51.3 60.9 51.3 60.9 51.3 60.9 51.3 60.9 51.3 60.9 51.3 60.9 51.3 60.9 51.3 60.9L51.3 60.9C51.3 60.9 51.3 60.9 51.3 60.9L51.3 60.9C51.7 61 52.1 61 52.6 61.1L52.5 61.4 55.6 61.4 55.6 61.3C55.7 61.3 55.8 61.3 56 61.4 56 61.4 56 61.4 56 61.4 56 61.4 56 61.4 56 61.4 56 61.4 56 61.4 56 61.4L56 61.4C56 61.4 56 61.4 56 61.4 56 61.4 56 61.4 56 61.4 56 61.4 56 61.4 56 61.4 56 61.4 56 61.4 56 61.4 56 61.4 56 61.4 56 61.4 56 61.4 56 61.4 56 61.4 56.1 61.4 56.1 61.4 56.1 61.4 56.1 61.4 56.1 61.4 56.1 61.4 56.1 61.4 56.1 61.4 56.1 61.4 56.1 61.4 56.1 61.4 56.1 61.4 56.1 61.4 56.1 61.4 56.1 61.4 56.1 61.4 56.1 61.4 56.1 61.4 56.1 61.4 56.1 61.4 56.1 61.4 56.1 61.4 56.1 61.4 56.2 61.4 56.2 61.4 56.2 61.4 56.2 61.4 56.2 61.4 56.2 61.4 56.2 61.4 56.2 61.4 56.2 61.4 56.2 61.4 56.2 61.4 56.2 61.4 56.2 61.4 56.2 61.4 56.2 61.4 56.2 61.4 56.2 61.4 56.2 61.4 56.2 61.4 56.2 61.4 56.2 61.4 56.2 61.4 56.2 61.4 56.2 61.4 56.2 61.4 56.2 61.4 56.2 61.4 56.2 61.4 56.2 61.4 56.2 61.4 56.2 61.4 56.2 61.4 56.2 61.4 56.2 61.4 56.2 61.4 56.2 61.4 56.2 61.4 56.2 61.4 56.2 61.4 56.2 61.4 56.2 61.4 56.2 61.4 56.2 61.4 56.2 61.4 56.2 61.4 56.3 61.4 56.3 61.4 56.3 61.4 56.3 61.4 56.3 61.4 56.3 61.4 56.3 61.4 56.3 61.4 56.3 61.4 56.3 61.4 56.3 61.4 56.3 61.4 56.3 61.4 56.3 61.4 56.3 61.4 56.3 61.4 56.3 61.4 56.3 61.4 56.3 61.4 56.3 61.4 56.3 61.4 56.3 61.4 56.3 61.4 56.3 61.4 56.3 61.4 56.3 61.4 56.3 61.4 56.3 61.4 56.3 61.4 56.3 61.4 56.3 61.4 56.3 61.4 56.3 61.4 56.3 61.4 56.3 61.4 56.3 61.4 56.3 61.4 56.3 61.4 56.3 61.4 56.3 61.4 56.3 61.4 56.3 61.4 56.3 61.4 56.3 61.4 56.4 61.4 56.4 61.4 56.4 61.4 56.4 61.4 56.4 61.4 56.4 61.4 56.4 61.4 56.4 61.4 56.4 61.4 56.4 61.4 56.4 61.4 56.4 61.4 56.4 61.4 56.4 61.4 56.4 61.4 56.4 61.4 56.4 61.4 56.4 61.4 56.4 61.4 56.4 61.4 56.4 61.4 56.4 61.4 56.4 61.4 56.4 61.4 56.4 61.4 56.4 61.4 56.4 61.4 56.4 61.4 56.4 61.4 56.4 61.4 56.4 61.4 56.4 61.4 56.4 61.4 56.4 61.4 56.4 61.4 56.4 61.4 56.4 61.4 56.4 61.4 56.4 61.4 56.4 61.4 56.4 61.4 56.4 61.4 56.4 61.4 56.4 61.4 56.4 61.4 56.5 61.4 56.5 61.4 56.5 61.4 56.5 61.4 56.5 61.4 56.5 61.4 56.5 61.4 56.5 61.4 56.5 61.4 56.5 61.4 56.5 61.4 56.5 61.4 56.5 61.4 56.5 61.4 56.5 61.4 56.5 61.4 56.5 61.4 56.5 61.4 56.5 61.4 56.5 61.4 56.5 61.4 56.5 61.4 56.5 61.4 56.5 61.4 56.5 61.4 56.5 61.4 56.5 61.4 56.5 61.4 56.5 61.4 56.5 61.4 56.5 61.4 56.5 61.4 56.5 61.4 56.5 61.4 56.5 61.4 56.5 61.4 56.6 61.4 56.6 61.4 56.6 61.4 56.6 61.4 56.6 61.4 56.6 61.4 56.6 61.4 56.6 61.4 56.6 61.4 56.6 61.4 56.6 61.4 56.6 61.4 56.6 61.4 56.6 61.4 56.6 61.4 56.6 61.4 56.6 61.4 56.6 61.4 56.6 61.4 56.6 61.4 56.6 61.4 56.6 61.4 56.6 61.4 56.6 61.4 56.6 61.4 56.6 61.4 56.6 61.4 56.6 61.4 56.6 61.4 56.6 61.4 56.6 61.4 56.6 61.4 56.6 61.4 56.6 61.4 56.7 61.4 56.7 61.4 56.7 61.4 56.7 61.4 56.7 61.4 56.7 61.4 56.7 61.4 56.7 61.4 56.7 61.4 56.7 61.4 56.7 61.4 56.7 61.4 56.7 61.4 56.7 61.4 56.7 61.4 56.7 61.4 56.7 61.4 56.7 61.4 56.7 61.4 56.7 61.4 56.7 61.4 56.7 61.4 56.7 61.4 56.7 61.4 56.7 61.4 56.7 61.4 56.7 61.4 56.7 61.4 56.7 61.4 56.7 61.4 56.7 61.4 56.7 61.4 56.7 61.4 56.8 61.4 56.8 61.4 56.8 61.4 56.8 61.4 56.8 61.4 56.8 61.4 56.8 61.4 56.8 61.4 56.8 61.4 56.8 61.4 56.8 61.4 56.8 61.4 56.8 61.4 56.8 61.4 56.8 61.4 56.8 61.4 56.8 61.4 56.8 61.4 56.8 61.4 56.8 61.4 56.8 61.4 56.8 61.4 56.8 61.4 56.8 61.4 56.8 61.4L56.8 61.4C56.8 61.4 56.8 61.4 56.8 61.4 56.8 61.4 56.8 61.4 56.8 61.4 56.8 61.4 56.9 61.4 56.9 61.4 56.9 61.4 56.9 61.4 56.9 61.4 56.9 61.4 56.9 61.4 56.9 61.4 56.9 61.4 56.9 61.4 56.9 61.4 56.9 61.4 56.9 61.4 56.9 61.4 56.9 61.4 56.9 61.4 56.9 61.4L56.9 61.4C56.9 61.4 56.9 61.4 56.9 61.4L56.9 61.4C57 61.4 57 61.4 57 61.4 57 61.4 57 61.4 57 61.4 57 61.4 57 61.4 57 61.4 57 61.4 57 61.4 57 61.4 57 61.4 57 61.4 57 61.4 57 61.4 57 61.4 57 61.4 57 61.4 57 61.4 57 61.4L57 61.4C57 61.4 57 61.4 57 61.4 57 61.4 57 61.4 57 61.4 57 61.4 57 61.4 57.1 61.4 57.1 61.4 57.1 61.4 57.1 61.4 57.1 61.4 57.1 61.4 57.1 61.4 57.1 61.4 57.1 61.4 57.1 61.4 57.1 61.4 57.1 61.4 57.1 61.4 57.1 61.4 57.1 61.4 57.1 61.4 57.1 61.4 57.1 61.3 57.1 61.3L57.1 61.3C57.1 61.3 57.1 61.3 57.1 61.3 57.1 61.3 57.1 61.3 57.1 61.3 57.1 61.3 57.1 61.3 57.2 61.3 57.2 61.3 57.2 61.3 57.2 61.3 57.2 61.3 57.2 61.3 57.2 61.3 57.2 61.3 57.2 61.3 57.2 61.3 57.2 61.3 57.2 61.3 57.2 61.3 57.2 61.3 57.2 61.3 57.2 61.3 57.2 61.3 57.2 61.3 57.2 61.3 57.2 61.3 57.2 61.3 57.2 61.3 57.2 61.3 57.2 61.3 57.2 61.3 57.3 61.3 57.3 61.3 57.3 61.3 57.3 61.3 57.3 61.3 57.3 61.3 57.3 61.3 57.3 61.3 57.3 61.3 57.3 61.3 57.3 61.3 57.3 61.3 57.3 61.3 57.3 61.3 57.3 61.3 57.3 61.3 57.3 61.3 57.3 61.3 57.3 61.3 57.4 61.3 57.4 61.3 57.4 61.3 57.4 61.3 57.4 61.3 57.4 61.3 57.4 61.3 57.4 61.3 57.4 61.3 57.4 61.3 57.4 61.3 57.9 61.3 58.3 61.3 58.7 61.3L58.7 61.4 61.9 61.4 61.8 60.9C62.6 60.7 63.4 60.5 64.2 60.3 64.2 60.3 64.2 60.3 64.2 60.3 64.2 60.3 64.2 60.3 64.2 60.3 64.2 60.3 64.2 60.3 64.2 60.3 64.2 60.3 64.2 60.3 64.2 60.3 64.2 60.3 64.2 60.3 64.2 60.3L64.2 60.3C64.2 60.3 64.2 60.3 64.2 60.3 64.2 60.3 64.2 60.3 64.2 60.3 64.2 60.3 64.2 60.3 64.2 60.3 64.2 60.3 64.2 60.3 64.2 60.3 64.2 60.3 64.2 60.3 64.2 60.3 64.2 60.3 64.2 60.3 64.2 60.3 64.2 60.3 64.2 60.3 64.2 60.3 64.2 60.3 64.2 60.3 64.2 60.3 64.2 60.3 64.2 60.3 64.2 60.3 64.2 60.3 64.3 60.3 64.3 60.3 64.3 60.3 64.3 60.3 64.3 60.3 64.3 60.3 64.3 60.3 64.3 60.3 64.3 60.3 64.3 60.3 64.3 60.3 64.3 60.3 64.3 60.3 64.3 60.3 64.3 60.3 64.3 60.3 64.3 60.3 64.3 60.3 64.3 60.3 64.3 60.3 64.3 60.3 64.3 60.3 64.3 60.2 64.5 60.2 64.6 60.1 64.8 60.1L65.2 61.4 84 61.4 85.1 61.3ZM85.8 13.9C100.2 14.5 111.3 26.8 110.6 41.1 110 54.7 98.9 65.7 85.2 66L84 66 21.4 66 21.4 66C9.6 65.8 0 56.2 0 44.5 0 33.8 8 24.8 18.3 23.2 20.6 19.4 24.6 16.8 29 16.1 35 6.7 45.3 1 56.5 1 66.8 1 76.3 5.8 82.4 13.9 83.1 13.9 83.9 13.8 84.6 13.8 85 13.8 85.4 13.9 85.8 13.9Z" fill="#E8802E"/></g></svg>
