<?xml version="1.0" encoding="UTF-8"?>
<svg width="454px" height="164px" viewBox="0 0 454 164" version="1.1" xmlns="http://www.w3.org/2000/svg" xmlns:xlink="http://www.w3.org/1999/xlink">
    <!-- Generator: Sketch 63.1 (92452) - https://sketch.com -->
    <title>The RevOps Intervent</title>
    <desc>Created with Sketch.</desc>
    <g id="SB-Version" stroke="none" stroke-width="1" fill="none" fill-rule="evenodd">
        <g id="Artboard-Copy-6" transform="translate(-91.000000, -73.000000)" fill-rule="nonzero">
            <g id="The-RevOps-Intervent" transform="translate(91.000000, 73.000000)">
                <path d="M22.6482759,29.6052632 L22.6482759,28.9736842 L19.1628647,28.9736842 L19.1628647,1.85526316 C22.6482759,2.28947368 25.9013263,5.52631579 28.8058355,12.3157895 L28.8445623,12.3157895 L28.8445623,1.18421053 L1,1.18421053 L1,12.3157895 L1.03872679,12.3157895 C3.94323607,5.52631579 7.19628647,2.28947368 10.6429708,1.85526316 L10.6429708,28.9736842 L7.15755968,28.9736842 L7.15755968,29.6052632 L22.6482759,29.6052632 Z M41.7793103,29.6052632 L41.7793103,28.9736842 L40.2302387,28.9736842 L40.2302387,13.5789474 C41.0047745,13.2236842 41.7793103,12.9868421 42.5538462,12.9868421 C44.1416446,12.9868421 44.8774536,14.0131579 44.8774536,17.0921053 L44.8774536,28.9736842 L43.328382,28.9736842 L43.328382,29.6052632 L54.5591512,29.6052632 L54.5591512,28.9736842 L52.6228117,28.9736842 L52.6228117,15.3947368 C52.6228117,11.3684211 50.9188329,9.27631579 47.6270557,9.27631579 C44.993634,9.27631579 42.7474801,10.8157895 40.2302387,13.0263158 L40.2302387,0 L30.2774536,3.55263158 L32.4848806,5.48684211 L32.4848806,28.9736842 L30.5485411,28.9736842 L30.5485411,29.6052632 L41.7793103,29.6052632 Z M66.1771883,30 C69.7787798,30 72.3734748,28.5789474 74,26.0526316 L73.9612732,26.0131579 C73.6127321,26.0921053 73.2254642,26.1315789 72.8381963,26.1315789 C70.2435013,26.1315789 67.4551724,24.6710526 65.2477454,22.4605263 C69.8949602,20.6842105 72.3734748,17.8026316 72.3734748,14.5263158 C72.3734748,11.6447368 69.8562334,9.47368421 66.2159151,9.47368421 C60.0196286,9.47368421 56.2244032,14.25 56.2244032,20.0131579 C56.2244032,26.1315789 60.7167109,30 66.1771883,30 Z M65.0153846,22.2236842 C62.6917772,19.7763158 61.0265252,16.4605263 61.0265252,13.1842105 C61.0265252,11.7236842 61.6074271,10.8552632 62.6143236,10.8552632 C64.2795756,10.8552632 66.5257294,13.7763158 66.5257294,17.2105263 C66.5257294,19.2236842 66.0997347,20.8026316 65.0153846,22.2236842 Z" id="The" fill="#389583"></path>
                <path d="M29.0225605,94.5656566 L29.0225605,93.3858586 L22.7613482,93.3858586 L22.7613482,70.2323232 L36.8306605,94.5656566 L57.824137,94.5656566 L57.824137,93.3858586 L54.2883936,93.3858586 L38.5985322,68.5363636 C46.2593096,66.4717172 50.6053275,61.9737374 50.6053275,54.6737374 C50.6053275,45.8252525 42.2815983,41.4747475 27.770318,41.4747475 L0,41.4747475 L6.55585757,45.4565657 L6.55585757,93.3858586 L0.662951889,93.3858586 L0.662951889,94.5656566 L29.0225605,94.5656566 Z M22.7613482,68.8313131 L22.7613482,42.6545455 L25.1185105,42.6545455 C30.8640935,42.6545455 33.6632237,47.3737374 33.6632237,54.8212121 C33.6632237,63.9646465 31.8216907,68.3151515 22.7613482,68.8313131 Z M75.2818701,95.3030303 C82.1323729,95.3030303 87.0676814,92.6484848 90.1614569,87.9292929 L90.0877956,87.8555556 C89.4248437,88.0030303 88.6882305,88.0767677 87.9516173,88.0767677 C83.0163088,88.0767677 77.7126937,85.3484848 73.5139984,81.2191919 C82.3533569,77.9010101 87.0676814,72.5181818 87.0676814,66.3979798 C87.0676814,61.0151515 82.2796956,56.959596 75.3555314,56.959596 C63.56972,56.959596 56.3509106,65.8818182 56.3509106,76.6474747 C56.3509106,88.0767677 64.8956238,95.3030303 75.2818701,95.3030303 Z M73.0720304,80.7767677 C68.6523512,76.2050505 65.4849144,70.0111111 65.4849144,63.8909091 C65.4849144,61.1626263 66.5898342,59.540404 68.5050285,59.540404 C71.6724653,59.540404 75.944822,64.9969697 75.944822,71.4121212 C75.944822,75.1727273 75.1345474,78.1222222 73.0720304,80.7767677 Z M110.41832,95.6717172 L126.844795,62.0474747 L131.780103,58.4343434 L117.931775,58.4343434 L123.088067,62.0474747 L115.942919,81.8828283 L108.72411,62.0474747 L113.659418,58.4343434 L87.9516173,58.4343434 L92.8869258,62.0474747 L108.503126,95.6717172 L110.41832,95.6717172 Z M162.202229,96.040404 C179.070671,96.040404 188.720304,82.6939394 188.720304,68.2414141 C188.720304,52.0929293 176.713509,40 160.58168,40 C143.786899,40 133.989943,53.3464646 133.989943,67.7989899 C133.989943,84.0212121 146.144061,96.040404 162.202229,96.040404 Z M172.29383,91.9111111 C162.128568,91.9111111 145.481109,66.2505051 145.481109,50.3969697 C145.481109,46.2676768 147.469965,44.1292929 150.416418,44.1292929 C160.949986,44.1292929 177.3028,69.789899 177.3028,85.6434343 C177.3028,89.920202 175.534928,91.9111111 172.29383,91.9111111 Z M216.637945,113 L216.637945,111.820202 L210.745039,111.820202 L210.745039,92.6484848 C213.249524,94.2707071 216.195977,95.3030303 219.584398,95.3030303 C229.528676,95.3030303 236.673824,87.4131313 236.673824,74.4353535 C236.673824,63.0060606 231.001903,56.959596 223.562109,56.959596 C219.216091,56.959596 214.649089,59.540404 210.745039,63.5222222 L210.745039,56.2222222 L191.81408,62.8585859 L196.012775,66.4717172 L196.012775,111.820202 L192.329709,111.820202 L192.329709,113 L216.637945,113 Z M214.354444,92.5010101 C213.102202,92.5010101 211.776298,92.1323232 210.745039,91.3949495 L210.745039,64.5545455 C211.776298,64.1121212 212.733895,63.8171717 213.838815,63.8171717 C218.774123,63.8171717 220.910302,68.7575758 220.910302,78.6383838 C220.910302,87.4868687 218.184833,92.5010101 214.354444,92.5010101 Z M254.205219,95.3030303 C263.265561,95.3030303 271,90.5838384 271,82.9151515 C271,78.3434343 268.348192,74.6565657 263.265561,71.9282828 L257.740962,68.9787879 C253.394944,66.6929293 252.216363,64.8494949 252.216363,62.2686869 C252.216363,60.2040404 253.836912,58.3606061 257.07801,58.3606061 C257.446317,58.3606061 257.961946,58.4343434 258.330253,58.5818182 L266.874966,70.7484848 L266.948627,70.7484848 L269.821419,59.0979798 C266.212014,57.7707071 262.381625,56.959596 257.59364,56.959596 C247.796684,56.959596 241.756456,61.8262626 241.756456,69.2737374 C241.756456,74.8777778 244.702908,78.3434343 250.816798,81.5878788 L255.678445,84.1686869 C258.772221,85.7909091 260.098124,87.0444444 260.098124,89.2565657 C260.098124,92.279798 257.888285,93.9757576 254.647187,93.9757576 C253.763251,93.9757576 253.247622,93.9020202 252.216363,93.6070707 L243.082359,81.3666667 L243.008698,81.3666667 L240.725197,93.3858586 C245.88149,94.9343434 250.743137,95.3030303 254.205219,95.3030303 Z" id="RevOps" fill="#389583"></path>
                <path d="M28.6047943,162.896774 L28.6047943,161.72 L22.7220603,161.72 L22.7220603,113.913548 L29.2666019,109.941935 L0,109.941935 L6.54454163,113.913548 L6.54454163,161.72 L0.66180758,161.72 L0.66180758,162.896774 L28.6047943,162.896774 Z M53.4593456,162.896774 L53.4593456,161.72 L50.5179786,161.72 L50.5179786,133.036129 C51.9886621,132.374194 53.4593456,131.932903 54.9300292,131.932903 C57.9449304,131.932903 59.3420797,133.845161 59.3420797,139.581935 L59.3420797,161.72 L56.4007127,161.72 L56.4007127,162.896774 L77.7256236,162.896774 L77.7256236,161.72 L74.0489148,161.72 L74.0489148,136.419355 C74.0489148,128.917419 70.8134111,125.019355 64.5630062,125.019355 C59.5626822,125.019355 55.2977,127.887742 50.5179786,132.006452 L50.5179786,124.651613 L31.6196955,131.270968 L35.8111435,134.874839 L35.8111435,161.72 L32.1344347,161.72 L32.1344347,162.896774 L53.4593456,162.896774 Z M95.6679624,163.632258 C102.433107,163.632258 107.286362,160.469677 110.007127,156.130323 L109.933592,156.056774 C108.462909,156.645161 107.212828,156.865806 105.595076,156.865806 C100.153547,156.865806 98.1681244,153.703226 98.1681244,145.171613 L98.1681244,128.034839 L108.536443,128.034839 L108.536443,126.858065 L98.1681244,126.858065 L98.1681244,111.927742 L77.7991578,127.96129 L77.7991578,128.034839 L83.4612893,128.034839 L83.4612893,148.922581 C83.4612893,158.483871 86.9173955,163.632258 95.6679624,163.632258 Z M130.008422,163.632258 C136.847101,163.632258 141.773891,160.984516 144.862326,156.277419 L144.788792,156.203871 C144.126984,156.350968 143.391642,156.424516 142.656301,156.424516 C137.729511,156.424516 132.43505,153.703226 128.243602,149.584516 C137.067703,146.274839 141.773891,140.905806 141.773891,134.80129 C141.773891,129.432258 136.994169,125.387097 130.081957,125.387097 C118.316489,125.387097 111.110139,134.286452 111.110139,145.024516 C111.110139,156.424516 119.640104,163.632258 130.008422,163.632258 Z M127.802397,149.143226 C123.390347,144.583226 120.228377,138.405161 120.228377,132.300645 C120.228377,129.579355 121.33139,127.96129 123.243278,127.96129 C126.405248,127.96129 130.67023,133.403871 130.67023,139.802581 C130.67023,143.553548 129.861354,146.495484 127.802397,149.143226 Z M170.893424,162.896774 L170.893424,161.72 L165.378361,161.72 L165.378361,135.095484 C167.952057,134.654194 171.408163,136.566452 179.055718,145.024516 L179.129252,145.024516 L179.129252,125.534194 C178.688047,125.387097 178.246842,125.313548 177.732102,125.313548 C174.34953,125.313548 169.569809,128.770323 165.378361,134.286452 L165.378361,125.092903 L146.480078,131.418065 L150.671526,135.021935 L150.671526,161.72 L146.994817,161.72 L146.994817,162.896774 L170.893424,162.896774 Z M203.469064,164 L219.867185,130.461935 L224.793975,126.858065 L210.96955,126.858065 L216.116942,130.461935 L208.984127,150.246452 L201.777778,130.461935 L206.704568,126.858065 L181.04114,126.858065 L185.96793,130.461935 L201.557175,164 L203.469064,164 Z M241.486233,163.632258 C248.324911,163.632258 253.251701,160.984516 256.340136,156.277419 L256.266602,156.203871 C255.604794,156.350968 254.869453,156.424516 254.134111,156.424516 C249.207321,156.424516 243.91286,153.703226 239.721412,149.584516 C248.545513,146.274839 253.251701,140.905806 253.251701,134.80129 C253.251701,129.432258 248.471979,125.387097 241.559767,125.387097 C229.794299,125.387097 222.587949,134.286452 222.587949,145.024516 C222.587949,156.424516 231.117914,163.632258 241.486233,163.632258 Z M239.280207,149.143226 C234.868157,144.583226 231.706187,138.405161 231.706187,132.300645 C231.706187,129.579355 232.8092,127.96129 234.721088,127.96129 C237.883058,127.96129 242.14804,133.403871 242.14804,139.802581 C242.14804,143.553548 241.339164,146.495484 239.280207,149.143226 Z M279.797538,162.896774 L279.797538,161.72 L276.856171,161.72 L276.856171,133.036129 C278.326855,132.374194 279.797538,131.932903 281.268222,131.932903 C284.283123,131.932903 285.680272,133.845161 285.680272,139.581935 L285.680272,161.72 L282.738905,161.72 L282.738905,162.896774 L304.063816,162.896774 L304.063816,161.72 L300.387107,161.72 L300.387107,136.419355 C300.387107,128.917419 297.151603,125.019355 290.901199,125.019355 C285.900875,125.019355 281.635892,127.887742 276.856171,132.006452 L276.856171,124.651613 L257.957888,131.270968 L262.149336,134.874839 L262.149336,161.72 L258.472627,161.72 L258.472627,162.896774 L279.797538,162.896774 Z M322.006155,163.632258 C328.771299,163.632258 333.624555,160.469677 336.345319,156.130323 L336.271785,156.056774 C334.801101,156.645161 333.55102,156.865806 331.933269,156.865806 C326.49174,156.865806 324.506317,153.703226 324.506317,145.171613 L324.506317,128.034839 L334.874636,128.034839 L334.874636,126.858065 L324.506317,126.858065 L324.506317,111.927742 L304.13735,127.96129 L304.13735,128.034839 L309.799482,128.034839 L309.799482,148.922581 C309.799482,158.483871 313.255588,163.632258 322.006155,163.632258 Z M348.404924,123.40129 C353.62585,123.40129 356.567217,120.091613 356.567217,115.163871 C356.567217,110.309677 353.62585,107 348.404924,107 C343.183997,107 340.24263,110.309677 340.24263,115.163871 C340.24263,120.091613 343.183997,123.40129 348.404924,123.40129 Z M359.43505,162.896774 L359.43505,161.72 L355.758341,161.72 L355.758341,124.651613 L336.860058,131.270968 L341.051506,134.874839 L341.051506,161.72 L337.374798,161.72 L337.374798,162.896774 L359.43505,162.896774 Z M383.627794,163.632258 C397.599287,163.632258 404.437966,155.027097 404.437966,144.289032 C404.437966,132.741935 395.687399,125.387097 383.55426,125.387097 C371.568189,125.387097 363.332362,133.771613 363.332362,144.289032 C363.332362,156.130323 373.038873,163.632258 383.627794,163.632258 Z M391.863622,160.984516 C385.833819,160.984516 373.112407,138.846452 373.112407,131.63871 C373.112407,129.35871 374.21542,128.034839 376.053774,128.034839 C382.524781,128.034839 394.878523,151.055484 394.878523,157.233548 C394.878523,159.734194 393.849044,160.984516 391.863622,160.984516 Z M429.733722,162.896774 L429.733722,161.72 L426.792355,161.72 L426.792355,133.036129 C428.263039,132.374194 429.733722,131.932903 431.204406,131.932903 C434.219307,131.932903 435.616456,133.845161 435.616456,139.581935 L435.616456,161.72 L432.675089,161.72 L432.675089,162.896774 L454,162.896774 L454,161.72 L450.323291,161.72 L450.323291,136.419355 C450.323291,128.917419 447.087787,125.019355 440.837383,125.019355 C435.837059,125.019355 431.572076,127.887742 426.792355,132.006452 L426.792355,124.651613 L407.894072,131.270968 L412.08552,134.874839 L412.08552,161.72 L408.408811,161.72 L408.408811,162.896774 L429.733722,162.896774 Z" id="Intervention" fill="#00000B"></path>
            </g>
        </g>
    </g>
</svg>