<?xml version="1.0" encoding="UTF-8"?>
<svg width="125px" height="38px" viewBox="0 0 125 38" version="1.1" xmlns="http://www.w3.org/2000/svg" xmlns:xlink="http://www.w3.org/1999/xlink">
    <!-- Generator: Sketch 42 (36781) - http://www.bohemiancoding.com/sketch -->
    <title>logo recurly</title>
    <desc>Created with Sketch.</desc>
    <defs></defs>
    <g id="Page-1" stroke="none" stroke-width="1" fill="none" fill-rule="evenodd">
        <g id="Desktop-HD-Copy" transform="translate(-732.000000, -1357.000000)" fill-rule="nonzero" fill="#723080">
            <g id="logo-recurly" transform="translate(732.000000, 1357.000000)">
                <g id="Group">
                    <path d="M18.75,21.1829787 C17.4193548,19.0808511 16.4112903,17.706383 15.7258065,17.1808511 C19.1935484,16.2914894 22.6209677,13.3808511 22.6209677,8.6106383 C22.6209677,2.7893617 18.6290323,0 12.2983871,0 L12.2983871,0 L12.2983871,0 C6.73387097,0 3.50806452,2.62765957 2.78225806,7.19574468 L0,7.19574468 L5.52419355,11.9255319 L11.3709677,7.19574468 L8.22580645,7.19574468 C8.22580645,7.19574468 8.26612903,3.9212766 12.3790323,3.9212766 C15.8870968,3.9212766 17.0967742,6.50851064 17.0967742,8.65106383 C17.0967742,11.7638298 15.4435484,14.1489362 11.4919355,14.1489362 L2.74193548,14.1489362 L2.74193548,29.3489362 L8.26612903,29.3489362 L8.26612903,17.9085106 L8.26612903,17.9085106 C9.47580645,17.9085106 10.6451613,18.3531915 12.7016129,21.3851064 L17.6209677,29.3489362 L23.7903226,29.3489362 L18.75,21.1829787 Z" id="Shape"></path>
                    <path d="M12.1370968,0 L12.2983871,0 L12.2983871,0 L12.1370968,0 Z" id="Shape"></path>
                    <path id="Shape"></path>
                </g>
                <polygon id="Shape" points="97.5 29.3489362 97.5 1.65744681 102.620968 1.65744681 102.620968 29.3085106 97.5 29.3085106"></polygon>
                <path d="M34.0725806,25.8319149 C36.6129032,25.8319149 38.0645161,25.0234043 38.9919355,24.5382979 L40.6451613,27.8531915 C39.3951613,28.5404255 37.4596774,29.6723404 33.6290323,29.6723404 C27.3387097,29.6723404 23.7903226,25.6702128 23.7903226,19.687234 C23.7903226,13.7446809 27.9032258,9.90425532 33.1048387,9.90425532 C38.9919355,9.90425532 41.8145161,14.1085106 41.2096774,21.0617021 L29.233871,21.0617021 C29.4758065,23.9319149 30.9274194,25.8319149 34.0725806,25.8319149 Z M36.2096774,17.4638298 C36.1693548,15.3212766 35.3225806,13.6234043 32.983871,13.6234043 C30.8064516,13.6234043 29.5967742,14.9574468 29.233871,17.4638298 L36.2096774,17.4638298 Z" id="Shape"></path>
                <path d="M53.1854839,29.6723404 C47.1774194,29.6723404 43.4677419,25.6297872 43.4677419,19.8085106 C43.4677419,13.4617021 47.6612903,9.90425532 53.3467742,9.90425532 C56.4112903,9.90425532 58.2258065,10.8340426 59.1129032,11.4 L57.4596774,14.7553191 C56.6129032,14.2297872 55.4032258,13.6234043 53.5080645,13.6234043 C50.483871,13.6234043 48.9112903,16.1702128 48.9112903,19.6468085 C48.9112903,23.1234043 50.4032258,25.8319149 53.6290323,25.8319149 C55.8064516,25.8319149 56.9758065,24.9425532 57.5403226,24.5787234 L59.1129032,27.893617 C58.266129,28.4595745 56.6532258,29.6723404 53.1854839,29.6723404 Z" id="Shape"></path>
                <path d="M67.0564516,10.4702128 L67.0564516,22.112766 C67.0564516,24.012766 67.7016129,24.9829787 69.5564516,24.9829787 C71.5322581,24.9829787 73.0241935,23.0829787 73.4274194,22.6382979 L73.4274194,10.5106383 L78.5483871,10.5106383 L78.5483871,23.9319149 C78.5483871,26.3170213 78.8306452,28.2170213 79.0322581,29.3489362 L73.9919355,29.3489362 C73.8306452,28.8638298 73.6290323,27.6106383 73.5887097,26.8425532 C72.5806452,28.1361702 70.6451613,29.8340426 67.5403226,29.8340426 C63.4274194,29.8340426 61.8951613,27.1659574 61.8951613,23.7297872 L61.8951613,10.4702128 L67.0564516,10.4702128 Z" id="Shape"></path>
                <path d="M93.5080645,14.9978723 C93.1854839,14.7957447 92.6209677,14.5531915 91.5322581,14.5531915 C89.2741935,14.5531915 87.9032258,16.5744681 87.4193548,17.4234043 L87.4193548,29.3085106 L82.2983871,29.3085106 L82.2983871,10.4702128 L87.4193548,10.4702128 L87.4193548,13.0170213 C88.2258065,11.6425532 89.7580645,9.98510638 92.1774194,9.98510638 C93.5483871,9.98510638 94.3145161,10.2680851 94.7177419,10.4702128 L93.5080645,14.9978723 Z" id="Shape"></path>
                <path d="M119.072581,10.4702128 L115.443548,22.8808511 L111.048387,10.4702128 L105.403226,10.4702128 L112.620968,27.8531915 C111.41129,32.5829787 110.201613,33.9978723 107.5,33.9978723 C106.330645,33.9978723 105.685484,33.8361702 105.403226,33.7553191 L104.717742,37.393617 C105.120968,37.5148936 106.209677,37.8787234 107.822581,37.8787234 C113.104839,37.8787234 115.443548,34.4021277 117.137097,29.8340426 L122.903226,15.2808511 L124.758065,10.5106383 L119.072581,10.4702128 Z" id="Shape"></path>
            </g>
        </g>
    </g>
</svg>