<?xml version="1.0" encoding="utf-8"?>
<!-- Generator: Adobe Illustrator 24.1.2, SVG Export Plug-In . SVG Version: 6.00 Build 0)  -->
<svg version="1.1" id="Layer_1" xmlns="http://www.w3.org/2000/svg" xmlns:xlink="http://www.w3.org/1999/xlink" x="0px" y="0px"
	 viewBox="0 0 727.4 998.1" style="enable-background:new 0 0 727.4 998.1;" xml:space="preserve">
<style type="text/css">
	.st0{fill:#FF7348;}
	.st1{fill:#CDD1EF;}
	.st2{fill:#B9BFE9;}
	.st3{fill:#E5E0EF;}
	.st4{fill:url(#SVGID_1_);}
	.st5{fill:url(#SVGID_2_);}
	.st6{fill:url(#SVGID_3_);}
	.st7{fill:url(#SVGID_4_);}
	.st8{fill:url(#SVGID_5_);}
	.st9{fill:url(#SVGID_6_);}
	.st10{fill:#8570B2;}
	.st11{fill:#B7A9D2;}
	.st12{fill:#694FA0;}
	.st13{fill:none;stroke:#000009;stroke-width:4;stroke-linecap:round;stroke-linejoin:round;stroke-miterlimit:10;}
	.st14{fill:#E9719B;}
	.st15{fill:#A24F6E;}
	.st16{fill:#1E0445;}
	.st17{fill:none;}
	.st18{opacity:0.5;}
</style>
<g>
	<path class="st0" d="M464.5,301l-32.1-16.4l-104,50.8l42.1,93.1c16.1,4.8,31.6,16.3,46.3,35.6L366.4,349L464.5,301z"/>
	<path class="st0" d="M211.9,737.9l32.1,16.4l104-50.8l-42.1-93.1c-16.1-4.8-31.6-16.3-46.3-35.6l50.6,115.2L211.9,737.9z"/>
	<polygon class="st1" points="322.5,270.9 306.4,194.4 312.4,194.4 342.4,194.4 353,194.4 345.5,272.5 	"/>
	<path class="st2" d="M319.1,254.8c0,0,12.8,5.8,28,1.3l-1.6,16.4l-23-1.5L319.1,254.8z"/>
	<path class="st3" d="M308.9,279.4c12.8-2,25.9-3,39.2-3c139.5,0,252.5,113,252.5,252.5S487.5,781.4,348,781.4
		S95.5,668.3,95.5,528.9c0-95,51.8-177.3,129.3-220.5"/>
	<path class="st1" d="M367.1,268l7.1-19.8l-11.8-11.5l11.8-8.8l-9.6-33.6h11.6c7.9,0,14.9,5.1,17.2,12.7l22.9,74L367.1,268z"/>
	<path class="st2" d="M374.3,248.2c0,0,4.6,10.9,17.6,12.8s20.8,8.1,20.8,8.1l3.7,12l-49.3-13L374.3,248.2z"/>
	<linearGradient id="SVGID_1_" gradientUnits="userSpaceOnUse" x1="56.4516" y1="87.872" x2="152.23" y2="291.8813">
		<stop  offset="0" style="stop-color:#8570B2;stop-opacity:0"/>
		<stop  offset="1" style="stop-color:#8570B2"/>
	</linearGradient>
	<polygon class="st4" points="170.6,351.7 160.6,351.7 160.6,218.8 60.5,218.8 60.5,18.3 70.5,18.3 70.5,208.8 170.6,208.8 	"/>
	<linearGradient id="SVGID_2_" gradientUnits="userSpaceOnUse" x1="663.0333" y1="610.5594" x2="625.5316" y2="483.4592">
		<stop  offset="0" style="stop-color:#8570B2;stop-opacity:0"/>
		<stop  offset="1" style="stop-color:#8570B2"/>
	</linearGradient>
	<polygon class="st5" points="727.4,645.8 664.2,645.8 664.2,485.7 569.2,485.7 569.2,475.7 674.2,475.7 674.2,635.8 727.4,635.8 	
		"/>
	<linearGradient id="SVGID_3_" gradientUnits="userSpaceOnUse" x1="-13.7679" y1="453.0482" x2="61.0052" y2="597.2955">
		<stop  offset="0" style="stop-color:#8570B2;stop-opacity:0"/>
		<stop  offset="1" style="stop-color:#8570B2"/>
	</linearGradient>
	<polygon class="st6" points="117.4,599.8 2,599.8 2,417.2 12,417.2 12,589.8 117.4,589.8 	"/>
	<linearGradient id="SVGID_4_" gradientUnits="userSpaceOnUse" x1="121.2196" y1="951.4673" x2="174.0328" y2="752.5109">
		<stop  offset="0" style="stop-color:#8570B2;stop-opacity:0"/>
		<stop  offset="1" style="stop-color:#8570B2"/>
	</linearGradient>
	<polygon class="st7" points="122.4,993.6 112.4,993.6 112.4,801.2 197.1,801.2 197.1,694.4 207.1,694.4 207.1,811.2 122.4,811.2 	
		"/>
	<linearGradient id="SVGID_5_" gradientUnits="userSpaceOnUse" x1="486.6876" y1="954.528" x2="435.151" y2="790.3414">
		<stop  offset="0" style="stop-color:#8570B2;stop-opacity:0"/>
		<stop  offset="1" style="stop-color:#8570B2"/>
	</linearGradient>
	<polygon class="st8" points="537.4,998.1 527.4,998.1 527.4,849 366.6,849 366.4,745.5 376.4,745.5 376.6,839 537.4,839 	"/>
	<linearGradient id="SVGID_6_" gradientUnits="userSpaceOnUse" x1="620.3734" y1="45.507" x2="566.2787" y2="313.9528">
		<stop  offset="0" style="stop-color:#8570B2;stop-opacity:0"/>
		<stop  offset="1" style="stop-color:#8570B2"/>
	</linearGradient>
	<path class="st9" d="M622,365.1H478.9c-0.1,0-0.1,0-0.2-0.1c-4.9-4.4-1.9-9.9,2.5-9.9H612V169.5h52.2V2.7c0-0.1,0-0.1,0.1-0.2
		c4.4-4.9,9.9-1.9,9.9,2.5v174.5H622V365.1z"/>
	<path class="st10" d="M298.9,269.4c12.8-2,25.9-3,39.2-3c139.5,0,252.5,113,252.5,252.5S477.5,771.4,338,771.4
		S85.5,658.3,85.5,518.9c0-95,51.8-177.3,129.3-220.5"/>
	<g>
		<g>
			<path class="st11" d="M337.9,696.8c-30.5,0-60.9-7.8-87.4-22.8c-1.9-1.1-2.6-3.5-1.5-5.4c1.1-1.9,3.5-2.6,5.4-1.5
				c31.6,17.8,68.9,25.1,105.1,20.4c37.4-4.8,71.2-21.5,97.9-48.2c24.5-24.5,40.7-55.4,46.9-89.3c6-33.2,2.2-67-11.1-97.8
				c-0.9-2,0.1-4.4,2.1-5.3c2-0.9,4.4,0.1,5.3,2.1c13.9,32.3,18,67.7,11.6,102.4c-6.5,35.5-23.5,67.9-49.1,93.5
				c-28,28-63.4,45.4-102.6,50.5C353.1,696.3,345.5,696.8,337.9,696.8z"/>
			<polygon class="st11" points="266.8,754.6 259.4,752.6 226.3,658.6 318.9,623.3 332.7,625.6 234.9,662.7 			"/>
			<polygon class="st11" points="249.9,750.1 241.4,747.5 207.1,650.4 294.2,616.8 303.3,620.2 216.2,653.2 			"/>
		</g>
		<g>
			<path class="st11" d="M177.3,594.8c-1.5,0-3-0.9-3.7-2.4c-13.9-32.3-18-67.7-11.6-102.4c6.5-35.5,23.5-67.9,49.1-93.5
				c28-28,63.4-45.4,102.6-50.5c37.9-4.9,77,2.7,110.1,21.3c1.9,1.1,2.6,3.5,1.5,5.4c-1.1,1.9-3.5,2.6-5.4,1.5
				c-31.6-17.8-68.9-25.1-105.1-20.4c-37.4,4.8-71.2,21.5-97.9,48.2c-24.5,24.5-40.7,55.4-46.9,89.3c-6,33.2-2.2,67,11.1,97.8
				c0.9,2-0.1,4.4-2.1,5.3C178.4,594.7,177.8,594.8,177.3,594.8z"/>
			<polygon class="st11" points="407.5,286.8 414.9,288.8 448,382.7 355.4,418 341.6,415.7 439.4,378.6 			"/>
			<polygon class="st11" points="424.5,291.2 432.9,293.8 467.2,390.9 380.2,424.5 371,421.1 458.1,388.1 			"/>
		</g>
	</g>
	<path class="st12" d="M214.8,298.4L190,345.5c-3,5.7-2.7,12.7,0.8,18.1l76.1,118.7l7.6-7.8l4.2,5.5l3.5,12.8l16.3,16.5l12.1,1.1
		l-91.2-171.1l7.7-46.2L214.8,298.4z"/>
	<path class="st13" d="M338,283.4"/>
	<path class="st12" d="M306.8,442.1c12.5-5.9,26.5-9.3,41.2-9.3c53,0,96,43,96,96c0,53-43,96-96,96s-96-43-96-96
		c0-18.5,5.2-35.8,14.3-50.5"/>
	<path class="st11" d="M296.8,432.1c12.5-5.9,26.5-9.3,41.2-9.3c53,0,96,43,96,96c0,53-43,96-96,96s-96-43-96-96
		c0-18.5,5.2-35.8,14.3-50.5"/>
	<polygon class="st10" points="257.6,467.4 268.5,484.4 275.5,475.9 278.7,480 280.2,496.9 299.5,516.8 319.5,516 287.3,470.4 
		263,462.4 	"/>
	<path class="st13" d="M295.3,432.9"/>
	<path class="st3" d="M288.6,586.4c-0.4,0-0.8-0.1-1.2-0.4c-17.5-13.2-29.1-32.4-32.4-54c-0.2-1.1,0.6-2.1,1.7-2.3
		c1.1-0.2,2.1,0.6,2.3,1.7c3.2,20.6,14.2,38.8,30.9,51.5c0.9,0.7,1.1,1.9,0.4,2.8C289.8,586.2,289.2,586.4,288.6,586.4z"/>
	<path class="st3" d="M382.7,589.8c-0.7,0-1.3-0.3-1.7-0.9c-0.6-0.9-0.3-2.2,0.6-2.8c17.9-11.6,30.6-30.3,34.9-51.1
		c0.2-1.1,1.3-1.8,2.4-1.6c1.1,0.2,1.8,1.3,1.6,2.4c-4.5,21.9-17.8,41.4-36.7,53.6C383.5,589.7,383.1,589.8,382.7,589.8z"/>
	<path class="st3" d="M420.2,520.9c-1.1,0-2-0.9-2-2c0-10.8-2.1-21.3-6.3-31.2c-0.4-1,0-2.2,1.1-2.6c1-0.4,2.2,0,2.6,1.1
		c4.4,10.4,6.6,21.4,6.6,32.7C422.2,520,421.3,520.9,420.2,520.9z"/>
	<path class="st13" d="M338,436.8"/>
	<polyline class="st14" points="310.5,194.4 321.7,222.1 331.7,233.2 341.7,221.3 345.5,194.4 	"/>
	<polyline class="st14" points="345.5,194.4 360.7,186.1 359.5,164.4 368.5,160.4 359.5,143.8 355.8,123.4 310.6,123.4 310.5,194.4 
			"/>
	<g>
		<path class="st14" d="M299.9,446.6l9.1,13.7l11.3,3l10.2,9.8l12.8,2.4c0,0-4.9,5.9-12.3,5.2l-10.6-3l10.2,10.6l18.2,10l-2,5.4
			l5.1,1.9l-5.9,4.5l-5.2-0.6l-1.7,4.5l-6-0.9l-1.6,5l-18.6-1.7l-19.6-18.5l-5.3-16.7l-9.3-12.6L299.9,446.6z"/>
		<polygon class="st15" points="331,480.7 318.9,471.9 311.9,470.4 320.3,477.6 		"/>
		<polygon class="st15" points="346.8,503.6 328.8,498.2 320.8,491.4 329.6,496.6 347.4,501.9 		"/>
		<polygon class="st15" points="340.8,509.4 325.7,505.6 316,498.9 324,507.4 340.4,510.4 		"/>
		<polygon class="st15" points="333.1,513 317.1,511.1 308.2,503.6 315.7,512.8 332.5,515 		"/>
	</g>
	<path class="st1" d="M297,194.4l-9.4,33.8l14.2,8.4l-9.9,11.1l6.7,21.8L252,346.2l55.5,95.2l-30,43l-80-121.4
		c-3.5-5.3-3.9-12.1-1.1-17.8l69.2-140.7c3-6.2,9.3-10.1,16.2-10.1h28.8"/>
	<path class="st13" d="M322.5,130.4"/>
	<path class="st16" d="M335.7,110.6c0,0,10.3-8.2,19.7,0.6c3.9,3.7,18.1,5.5,10.1,14.6c0,0-6.8,9.6-33.4,5.5l3.4,13.3l-11.4,3.7
		l-2.1,16.1l-10.8,16.1l-10.5-51c0,0-3.1-11.7,11.1-12.9C311.7,116.6,317.9,105.1,335.7,110.6z"/>
	<polygon class="st15" points="360.7,186.1 345.2,188 329.7,182.4 345.5,194.4 	"/>
	<polygon class="st15" points="368.5,160.4 359.9,160.4 355.8,164 359.5,164.4 	"/>
	<path class="st2" d="M292,247.7c0,0-4.6,38.5-24.9,54.6c-20.3,16.1-23.5,43.1-23.5,43.1s22.9,32.7,27.6,58
		c4.7,25.3,27.7,50.5,27.7,50.5l8.7-12.5L252,346.2l46.6-76.8L292,247.7z"/>
	<path class="st17" d="M371.4,256.1"/>
	<g class="st18">
		<path class="st11" d="M121.5,257.5c-0.5,0-1-0.2-1.4-0.5c-0.8-0.7-0.9-2-0.1-2.8l8.8-9.6c0.7-0.8,2-0.9,2.8-0.1l9.6,8.8
			c0.8,0.7,0.9,2,0.1,2.8c-0.7,0.8-2,0.9-2.8,0.1l-8.2-7.5l-7.5,8.2C122.5,257.3,122,257.5,121.5,257.5z"/>
		<path class="st11" d="M121.6,274.6c-0.5,0-1-0.2-1.4-0.5c-0.8-0.7-0.9-2-0.1-2.8l8.8-9.6c0.7-0.8,2-0.9,2.8-0.1l9.6,8.8
			c0.8,0.7,0.9,2,0.1,2.8c-0.7,0.8-2,0.9-2.8,0.1l-8.2-7.5l-7.5,8.2C122.7,274.4,122.1,274.6,121.6,274.6z"/>
		<path class="st11" d="M121.7,291.8c-0.5,0-1-0.2-1.4-0.5c-0.8-0.7-0.9-2-0.1-2.8l8.8-9.6c0.7-0.8,2-0.9,2.8-0.1l9.6,8.8
			c0.8,0.7,0.9,2,0.1,2.8c-0.7,0.8-2,0.9-2.8,0.1l-8.2-7.5l-7.5,8.2C122.8,291.5,122.3,291.8,121.7,291.8z"/>
		<path class="st11" d="M121.9,308.9c-0.5,0-1-0.2-1.4-0.5c-0.8-0.7-0.9-2-0.1-2.8l8.8-9.6c0.7-0.8,2-0.9,2.8-0.1l9.6,8.8
			c0.8,0.7,0.9,2,0.1,2.8c-0.7,0.8-2,0.9-2.8,0.1l-8.2-7.5l-7.5,8.2C123,308.7,122.4,308.9,121.9,308.9z"/>
	</g>
	<g class="st18">
		<path class="st11" d="M581.1,206c-0.5,0-1-0.2-1.4-0.5c-0.8-0.7-0.9-2-0.1-2.8l8.8-9.6c0.7-0.8,2-0.9,2.8-0.1l9.6,8.8
			c0.8,0.7,0.9,2,0.1,2.8c-0.7,0.8-2,0.9-2.8,0.1l-8.2-7.5l-7.5,8.2C582.2,205.8,581.6,206,581.1,206z"/>
		<path class="st11" d="M581.2,223.1c-0.5,0-1-0.2-1.4-0.5c-0.8-0.7-0.9-2-0.1-2.8l8.8-9.6c0.7-0.8,2-0.9,2.8-0.1l9.6,8.8
			c0.8,0.7,0.9,2,0.1,2.8c-0.7,0.8-2,0.9-2.8,0.1l-8.2-7.5l-7.5,8.2C582.3,222.9,581.8,223.1,581.2,223.1z"/>
		<path class="st11" d="M581.4,240.3c-0.5,0-1-0.2-1.4-0.5c-0.8-0.7-0.9-2-0.1-2.8l8.8-9.6c0.7-0.8,2-0.9,2.8-0.1l9.6,8.8
			c0.8,0.7,0.9,2,0.1,2.8c-0.7,0.8-2,0.9-2.8,0.1l-8.2-7.5l-7.5,8.2C582.5,240,581.9,240.3,581.4,240.3z"/>
		<path class="st11" d="M581.5,257.4c-0.5,0-1-0.2-1.4-0.5c-0.8-0.7-0.9-2-0.1-2.8l8.8-9.6c0.7-0.8,2-0.9,2.8-0.1l9.6,8.8
			c0.8,0.7,0.9,2,0.1,2.8c-0.7,0.8-2,0.9-2.8,0.1l-8.2-7.5l-7.5,8.2C582.6,257.2,582.1,257.4,581.5,257.4z"/>
	</g>
	<g class="st18">
		<path class="st11" d="M640.3,601.8c-0.5,0-1-0.2-1.4-0.5l-9.6-8.8c-0.8-0.7-0.9-2-0.1-2.8c0.7-0.8,2-0.9,2.8-0.1l8.2,7.5l7.5-8.2
			c0.7-0.8,2-0.9,2.8-0.1c0.8,0.7,0.9,2,0.1,2.8l-8.8,9.6C641.5,601.5,641,601.8,640.3,601.8C640.4,601.8,640.4,601.8,640.3,601.8z"
			/>
		<path class="st11" d="M640.2,584.7c-0.5,0-1-0.2-1.4-0.5l-9.6-8.8c-0.8-0.7-0.9-2-0.1-2.8c0.7-0.8,2-0.9,2.8-0.1l8.2,7.5l7.5-8.2
			c0.7-0.8,2-0.9,2.8-0.1s0.9,2,0.1,2.8l-8.8,9.6C641.3,584.5,640.7,584.7,640.2,584.7z"/>
		<path class="st11" d="M640.1,567.5c-0.5,0-1-0.2-1.4-0.5l-9.6-8.8c-0.8-0.7-0.9-2-0.1-2.8c0.7-0.8,2-0.9,2.8-0.1l8.2,7.5l7.5-8.2
			c0.7-0.8,2-0.9,2.8-0.1c0.8,0.7,0.9,2,0.1,2.8l-8.8,9.6C641.2,567.3,640.7,567.5,640.1,567.5C640.1,567.5,640.1,567.5,640.1,567.5
			z"/>
		<path class="st11" d="M639.9,550.4c-0.5,0-1-0.2-1.4-0.5l-9.6-8.8c-0.8-0.7-0.9-2-0.1-2.8c0.7-0.8,2-0.9,2.8-0.1l8.2,7.5l7.5-8.2
			c0.7-0.8,2-0.9,2.8-0.1c0.8,0.7,0.9,2,0.1,2.8l-8.8,9.6C641,550.2,640.5,550.4,639.9,550.4C640,550.4,640,550.4,639.9,550.4z"/>
	</g>
	<g class="st18">
		<path class="st11" d="M516.7,826.6c-0.5,0-1-0.2-1.4-0.5c-0.8-0.7-0.9-2-0.1-2.8l7.5-8.2l-8.2-7.5c-0.8-0.7-0.9-2-0.1-2.8
			c0.7-0.8,2-0.9,2.8-0.1l9.6,8.8c0.8,0.7,0.9,2,0.1,2.8l-8.8,9.6C517.8,826.4,517.3,826.6,516.7,826.6z"/>
		<path class="st11" d="M499.6,826.8c-0.5,0-1-0.2-1.4-0.5c-0.8-0.7-0.9-2-0.1-2.8l7.5-8.2l-8.2-7.5c-0.8-0.7-0.9-2-0.1-2.8
			c0.7-0.8,2-0.9,2.8-0.1l9.6,8.8c0.4,0.4,0.6,0.9,0.6,1.4s-0.2,1-0.5,1.4l-8.8,9.6C500.7,826.6,500.1,826.8,499.6,826.8z"/>
		<path class="st11" d="M482.5,826.9c-0.5,0-1-0.2-1.4-0.5c-0.8-0.7-0.9-2-0.1-2.8l7.5-8.2l-8.2-7.5c-0.8-0.7-0.9-2-0.1-2.8
			c0.7-0.8,2-0.9,2.8-0.1l9.6,8.8c0.4,0.4,0.6,0.9,0.6,1.4c0,0.5-0.2,1-0.5,1.4l-8.8,9.6C483.6,826.7,483,826.9,482.5,826.9z"/>
		<path class="st11" d="M465.3,827.1c-0.5,0-1-0.2-1.4-0.5c-0.8-0.7-0.9-2-0.1-2.8l7.5-8.2l-8.2-7.5c-0.8-0.7-0.9-2-0.1-2.8
			c0.7-0.8,2-0.9,2.8-0.1l9.6,8.8c0.8,0.7,0.9,2,0.1,2.8l-8.8,9.6C466.4,826.8,465.9,827.1,465.3,827.1z"/>
	</g>
	<g class="st18">
		<path class="st11" d="M147.1,914.6c-0.5,0-1-0.2-1.4-0.5l-9.6-8.8c-0.8-0.7-0.9-2-0.1-2.8c0.7-0.8,2-0.9,2.8-0.1l8.2,7.5l7.5-8.2
			c0.7-0.8,2-0.9,2.8-0.1c0.8,0.7,0.9,2,0.1,2.8l-8.8,9.6C148.1,914.4,147.6,914.6,147.1,914.6z"/>
		<path class="st11" d="M146.9,897.5c-0.5,0-1-0.2-1.4-0.5l-9.6-8.8c-0.8-0.7-0.9-2-0.1-2.8c0.7-0.8,2-0.9,2.8-0.1l8.2,7.5l7.5-8.2
			c0.7-0.8,2-0.9,2.8-0.1c0.8,0.7,0.9,2,0.1,2.8l-8.8,9.6C148,897.2,147.5,897.5,146.9,897.5C147,897.5,147,897.5,146.9,897.5z"/>
		<path class="st11" d="M146.8,880.4c-0.5,0-1-0.2-1.4-0.5l-9.6-8.8c-0.8-0.7-0.9-2-0.1-2.8c0.7-0.8,2-0.9,2.8-0.1l8.2,7.5l7.5-8.2
			c0.7-0.8,2-0.9,2.8-0.1s0.9,2,0.1,2.8l-8.8,9.6C147.9,880.1,147.4,880.3,146.8,880.4C146.8,880.4,146.8,880.4,146.8,880.4z"/>
		<path class="st11" d="M146.6,863.2c-0.5,0-1-0.2-1.4-0.5l-9.6-8.8c-0.8-0.7-0.9-2-0.1-2.8c0.7-0.8,2-0.9,2.8-0.1l8.2,7.5l7.5-8.2
			c0.7-0.8,2-0.9,2.8-0.1c0.8,0.7,0.9,2,0.1,2.8l-8.8,9.6C147.8,863,147.3,863.2,146.6,863.2C146.7,863.2,146.7,863.2,146.6,863.2z"
			/>
	</g>
	<g class="st18">
		<path class="st11" d="M11.6,636.3c-0.5,0-1-0.2-1.4-0.5l-9.6-8.8c-0.8-0.7-0.9-2-0.1-2.8l8.8-9.6c0.7-0.8,2-0.9,2.8-0.1
			c0.8,0.7,0.9,2,0.1,2.8l-7.5,8.2l8.2,7.5c0.8,0.7,0.9,2,0.1,2.8C12.7,636.1,12.2,636.3,11.6,636.3z"/>
		<path class="st11" d="M28.8,636.2c-0.5,0-1-0.2-1.4-0.5l-9.6-8.8c-0.8-0.7-0.9-2-0.1-2.8l8.8-9.6c0.7-0.8,2-0.9,2.8-0.1
			s0.9,2,0.1,2.8l-7.5,8.2l8.2,7.5c0.8,0.7,0.9,2,0.1,2.8C29.8,636,29.3,636.2,28.8,636.2z"/>
		<path class="st11" d="M45.9,636c-0.5,0-1-0.2-1.4-0.5l-9.6-8.8c-0.4-0.4-0.6-0.9-0.6-1.4c0-0.5,0.2-1,0.5-1.4l8.8-9.6
			c0.7-0.8,2-0.9,2.8-0.1s0.9,2,0.1,2.8l-7.5,8.2l8.2,7.5c0.8,0.7,0.9,2,0.1,2.8C47,635.8,46.4,636,45.9,636z"/>
		<path class="st11" d="M63,635.9c-0.5,0-1-0.2-1.4-0.5l-9.6-8.8c-0.8-0.7-0.9-2-0.1-2.8l8.8-9.6c0.7-0.8,2-0.9,2.8-0.1
			c0.8,0.7,0.9,2,0.1,2.8l-7.5,8.2l8.2,7.5c0.8,0.7,0.9,2,0.1,2.8C64.1,635.7,63.6,635.9,63,635.9z"/>
	</g>
</g>
</svg>
