<?xml version="1.0" encoding="UTF-8"?>
<svg width="18px" height="18px" viewBox="0 0 18 18" version="1.1" xmlns="http://www.w3.org/2000/svg" xmlns:xlink="http://www.w3.org/1999/xlink">
    <!-- Generator: Sketch 52.6 (67491) - http://www.bohemiancoding.com/sketch -->
    <title>linkedin</title>
    <desc>Created with Sketch.</desc>
    <g id="Page-1" stroke="none" stroke-width="1" fill="none" fill-rule="evenodd">
        <g id="Desktop" transform="translate(-569.000000, -276.000000)" fill="#000000" fill-rule="nonzero">
            <g id="social" transform="translate(187.000000, 214.000000)">
                <g id="linkedin" transform="translate(382.000000, 62.000000)">
                    <path d="M18,18 L14,18 L14,11.25 C14,10.19 12.81,9.31 11.75,9.31 C10.69,9.31 10,10.19 10,11.25 L10,18 L6,18 L6,6 L10,6 L10,8 C10.66,6.93 12.36,6.24 13.5,6.24 C16,6.24 18,8.28 18,10.75 L18,18 Z M4,18 L0,18 L0,6 L4,6 L4,18 Z M2,0 C3.1045695,0 4,0.8954305 4,2 C4,3.1045695 3.1045695,4 2,4 C0.8954305,4 0,3.1045695 0,2 C0,0.8954305 0.8954305,0 2,0 Z" id="Shape"></path>
                </g>
            </g>
        </g>
    </g>
</svg>