<svg width="1269" height="641" fill="none" xmlns="http://www.w3.org/2000/svg"><path d="M702.523 237.32c.033-.133 0-.232-.099-.331-.1-.993-.596-1.853-.926-2.78-.926-2.714-2.084-5.593-1.059-8.34 1.522-4.136 2.315-8.438 3.406-12.641h-.033c.496-.331.728-.794.827-1.357.331-.397.364-.894.331-1.39.331-1.522.198-3.045-.066-4.567.033-.463.066-.926.066-1.357.132-.562 0-1.059-.529-1.357v.034c-.1-.364-.298-.629-.695-.695l.066-.033c-2.149-1.953-2.513-1.986-5.026-.662-.132-.067-.232-.033-.298.066-.793.099-1.256.596-1.554 1.257-.165.034-.331.067-.496.199h-4.596a.817.817 0 00-.497-.166c-.297-.694-.727-1.191-1.554-1.125-2.315-1.059-4.563-2.118-7.11-.264-.992.728-2.281.165-3.472-.232-1.984-.662-3.836-1.787-6.018-1.655-1.455.1-2.514-.529-3.572-1.39-2.711-2.25-3.968-5.195-4.133-8.67-.1-1.754-.133-3.541-.166-5.295-.033-.794-.231-1.522-.826-2.085-1.224-1.257-4.63-2.118-5.854-1.489-1.719.893-2.844 3.475-2.414 5.659.265 1.39.596 2.78.992 4.17.232.893.463 1.853 0 2.581-1.091 1.853-1.355 3.938-2.116 5.857-.231.629-.529 1.192-1.224 1.423-2.116.762-5.787-1.059-6.349-3.21-.33-1.29-.43-2.68-1.289-3.706-2.414-2.78-4.068-5.99-6.019-9.035-.893-1.356-1.422-2.581-1.455-4.202-.033-1.953-.066-4.17-1.521-5.593-2.976-2.879-5.986-5.758-10.02-7.248-1.786-.662-3.373-1.687-4.365-3.375-1.488-2.482-4.2-3.508-6.184-5.394-.496-.464-1.19-.364-1.885-.199-2.216.596-3.505 3.045-1.918 4.964 2.216 2.681 4.068 5.659 6.449 8.207.132.166.396.199.562.364 1.488 1.423 3.736 1.456 5.225 2.515 2.877 2.052 6.018 3.641 8.763 5.891.694.563 1.422 1.092 1.653 1.986.166.661.199 1.323-.364 1.82-.462.43-1.025.364-1.554.099-.694-.331-1.322-.827-2.05-.993-1.918-.529-3.009.463-2.149 2.184.859 1.721.496 3.012-.265 4.633-.728 1.589-1.455 2.946-3.175 3.541-1.785.629-2.91 1.589-2.91 3.806 0 1.886-1.356 2.648-2.943 1.688-2.282-1.39-4.696-2.416-7.01-3.674-.794-.43-1.555-.959-1.224-2.051.265-.861 1.058-1.092 1.852-1.092.893-.033 1.753 0 2.645.066 2.018.165 3.936-.232 5.887-.629 1.091-.232 1.686-.827 2.149-1.787.794-1.688.661-3.21-.562-4.6-2.116-2.383-4.398-4.534-7.341-5.957-5.721-2.78-10.781-6.387-13.955-12.145-.695-1.291-1.885-2.151-3.142-2.879-.727-.397-1.653-.662-2.149-.033-1.819 2.118-4.862 2.018-6.713 3.971-1.191 1.257-2.778 1.191-4.332.695-1.687-.53-3.373-1.026-5.159-1.092-3.175-.099-4.663 1.29-4.795 4.401-.066 1.324.033 2.714-1.058 3.707-1.654 1.456-3.274 3.144-5.49 3.541-1.819.331-2.976 1.158-3.803 2.746-.562 1.059-1.355 2.019-2.149 2.913-1.058 1.224-1.885 2.415-.992 4.136.297.596.165 1.357-.331 1.854-2.249 2.316-2.976 5.923-6.349 7.247-.463.165-.728.794-1.091 1.191-.232.199-.496.397-.728.563l.033-.033c-1.852.132-3.704.364-5.588.298-1.29-.033-2.679-.1-3.671 1.026l-.033-.034c-2.48.662-4.828-.066-7.176-.628-.232-.331-.496-.662-.728-.96-2.744-2.35-6.018-1.655-9.16-1.622-1.289-1.025-1.256-2.448-1.289-3.905-.033-1.158.396-2.449-.761-3.375l-.033-.033c-1.29-1.754-.496-3.31.397-4.898 1.323-2.416 2.678-4.931 2.248-7.777-.429-2.846.893-5.692 0-8.505-.066-.265.034-.794.232-.893 1.951-1.093 3.34-3.211 5.952-3.012 6.779.496 13.592.86 20.371 1.423 1.885.165 2.645-.629 2.976-2.25l.992-5.163c.43-.596.496-1.257.364-1.985.198-.53.099-.993-.265-1.424a.825.825 0 00-.099-.562c-.066-.43-.265-.794-.661-1.026v-.298c-.067-.926-.496-1.621-1.323-2.052v.033l-.695-.694.033.033c-.231-.298-.429-.563-.661-.861-.066-.463-.264-.86-.661-1.125-.232-.199-.463-.43-.695-.629l-.033-.033c-.297-.463-.727-.695-1.289-.695-.695-.827-1.621-1.191-2.679-1.224l-.066-.033-3.175-.993a.497.497 0 00-.132-.364c.231-1.324-1.29-2.681.033-4.004h.033l6.746-.695c2.017-.199 3.505-1.026 3.836-3.244 1.158-.264 2.348-1.059 3.472-.496 2.216 1.125 4.035.496 6.085-.596 1.521-.794 2.877-1.489 3.604-3.077.596-1.258 1.687-1.92 2.844-2.582 1.885-1.059 3.869-1.985 5.258-3.706l-.099-.066c.397-.066.662-.265.695-.695l.099.099c2.248-2.151 4.233-4.567 7.01-6.155l.067-.033c1.025 0 1.851-.497 2.744-.927 6.019-2.879 5.887-1.423 4.762-9.597.132-.43.298-.894.43-1.324.992-2.019 1.488-4.335 3.439-5.758l-.033-.033c.43-.099.86-.166 1.29-.298 2.612-.794 3.042-.496 3.538 2.118.364 1.853.463 3.64-.397 5.46-.628 1.324-.76 2.78.662 3.872l-.033.033c.132.828.661 1.192 1.455 1.258 1.785 1.986 3.538 1.059 5.291-.066 2.381-.993 4.431-.563 6.084 1.489.629.794 1.389 1.357 2.514.927 1.984-.795 4.266-.927 6.018-2.383 3.241-.563 6.416-1.456 9.789-1.357 2.149.066 3.769-1.026 4.861-2.879.793-1.357 1.322-2.78 1.521-4.335.397-3.442 1.918-5.759 5.655-6.222 2.281-.298 2.877-2.118 3.207-4.07.298-1.887-.694-3.177-2.182-4.104-.629-.397-1.422-.53-2.117-.86-2.447-1.06-4.861-2.185-5.621-5.097-1.687-6.618-2.447-8.075 3.869-11.748 2.314-1.357 4.034-3.376 6.018-5.096.827-.695.496-1.39-.43-1.721-4.596-1.589-7.903-.331-10.284 4.004-.893 1.589-2.05 2.846-3.538 3.806a98.634 98.634 0 01-5.093 3.044c-3.77 2.02-4.233 5.99-1.058 8.737.496.43 1.025.827 1.488 1.29 2.612 2.681 2.381 5.13-.695 7.347-.529.398-1.124.762-1.719.96-2.117.662-2.811 2.118-2.844 4.269-.033 2.747-.529 5.494-2.116 7.843-1.654-.364-3.208-.231-4.597.861h-.033c-.364.066-.562.298-.662.629a4.113 4.113 0 00-2.182 1.29.503.503 0 00-.43.099c-1.157.133-2.348.166-3.505.398-1.687.364-3.373.595-5.093.165l.066.066c.033-.231-.033-.43-.132-.629a39.86 39.86 0 00.066-1.952.609.609 0 00.165-.53s0 .067-.033.034c1.455-.199 2.547-.993 3.506-2.085l.264-.1c1.257-.86 1.158-1.787.066-2.713-.198-.298-.43-.596-.628-.894-.099-.463-.364-.794-.76-1.059-.199-.198-.397-.43-.596-.629-.231-.231-.43-.463-.661-.694-.893-2.152-2.05-4.071-4.497-4.766-1.422-1.456-1.522-1.456-3.407.166l-.033.033c-.992.297-1.785.794-2.116 1.82l.099.033c-.628-.033-1.091.265-1.455.695a.759.759 0 00-.463.132c-3.406.861-6.581.629-9.16-2.15-.066-.398-.132-.828-.231-1.225.231-1.589-.166-2.979-1.158-4.236a.57.57 0 00-.066-.397c0-1.159-.231-2.284-.794-3.31l-.099-1.985c.066-.662.199-1.324.166-1.953-.067-1.522.562-2.647 1.951-3.11 4.431-1.424 7.936-4.6 12.202-6.388 3.77-1.588 7.044-4.004 9.425-7.512.793-1.158 1.852-2.184 2.91-3.144 3.042-2.713 6.018-5.427 8.763-8.439 1.257-1.356 3.274-1.919 4.034-3.772a.924.924 0 00.463-.331c1.356-.993 3.274-1.258 4.002-3.078l1.289-.794c3.241.364 6.581.132 9.26-1.589 1.951-1.224 3.736-1.654 5.853-1.621 2.744 0 5.522-.033 8.267.033 5.258.166 10.549.232 15.41 2.813.827.43 1.918.43 2.877.596h-.066c.694 1.257 1.951 1.72 3.208 2.051a3083.18 3083.18 0 0018.684 4.6l-.067-.033c.695.927 1.753 1.324 2.778 1.589 2.712.695 5.556.993 8.168 2.052.86.364 1.687-.1 2.447-.596.992-.662 1.951-1.39 2.547-2.449 2.149-.86 4.332-1.29 6.613-.695.298.232.563.43.86.662.728 1.224 1.918 1.92 3.241 1.853 4.332-.198 8.631-.695 12.368-3.177l.066-.033c3.207-1.655 6.58-1.026 9.987-.794 5.059.33 10.053.265 14.517-2.813 1.719-1.191 3.869-1.49 5.985-1.522a91.648 91.648 0 014.266 0c1.521.033 2.844-.497 3.935-1.456 1.786-1.589 2.712-3.972 4.861-5.295.496-.298.265-.993.298-1.556.132-2.416.628-3.078 2.943-3.54 1.72-.332 3.472-.431 5.192-.63.562.133 1.091.232 1.653.364 2.315 1.721 4.696 3.409 7.805 2.681 3.34-.794 6.713-.927 10.086-1.39 1.256-.165 2.678-.232 3.406-1.655l.033-.033c1.719-1.92 3.869-2.581 6.415-2.813 2.712-.264 5.424-.992 7.771-2.515 3.836-2.482 7.937-4.17 12.467-4.798.761-.1 1.521-.199 2.216-.63h.066c2.943-.462 5.853-1.19 8.796-1.29 3.638-.132 6.746-1.356 9.921-3.044 3.208-1.721 6.878-2.383 10.549-.96 1.323.53 2.712.993 4.167.761.264.1.562.232.826.331 1.158.066 2.315.166 3.44.232.231.033.429.033.661.066.761.662 1.653 1.026 2.645 1.026.463.066.893.1 1.356.165 5.391.133 10.781.364 15.84 2.549.463.264.926.529 1.422.827 1.29 1.555 2.58 3.11 3.869 4.7 1.158 2.15 3.175 3.01 5.424 3.11 2.546.132 5.026.298 7.539.761a8.84 8.84 0 003.605-.132c6.812-1.721 13.789-1.49 20.635-.695 5.026.595 10.053 1.158 15.079 1.456 4.035.231 7.54 1.257 10.781 3.475 2.612 1.787 5.555 2.548 8.531 3.408 1.885.563 3.638.232 5.457-.33 3.803-1.159 7.109-3.476 10.945-4.535.463-.033.893-.099 1.356-.132 2.712.331 5.424.728 8.135.96 7.941.662 15.911.926 23.641 3.11 1.36.232 2.75.497 4.1.729 3.91 1.886 7.97 3.077 12.4 2.58 1.53-.165 3.05-.363 4.57-.529 5.69-.562 11.04 1.523 16.53 2.284.07.132.17.232.3.298.69 1.059 1.69 1.688 2.91 1.952 2.45.497 4.89 1.06 7.41.596 3.54 0 7.07.033 10.61.033 2.19.33 4.47.43 6.55-.265 4.76-1.555 9.66-1.29 14.35-.662 8.6 1.125 17.26 1.622 25.76 3.574.33.067.66.033 1 .067h.03c.92.695 2.05.695 3.14.794 6.75.563 13.13 2.482 19.35 4.997 2.51 1.026 4.99 2.019 7.8 2.383 5.39.728 10.88 1.456 15.81 4.269 3.34 1.92 4.46 3.872 3.63 7.446-.56.728-1.32 1.125-2.18 1.357-1.52-.166-3.07.033-4.56-.464-3.97-1.29-7.97-2.449-11.94-3.805-2.05-.695-3.87-.464-5.69.595-2.68 1.622-2.71 3.31-.03 4.898 1.82 1.059 3.83 1.622 5.85 2.184 1.89.53 3.97 1.06 3.81 3.773-1.29.53-2.62.893-4.04.893-1.19 0-2.35.199-3.31.993-.76.1-1.35.463-1.91.96-.17.165-.37.33-.53.496l-.1.066c-.23.199-.47.398-.66.563-.24.232-.43.43-.67.662l-.66.662-.66.662-.66.662c-.33.099-.56.33-.63.694-.1.1-.13.199-.06.298-.3.331-.63.63-.93.96-.23.066-.36.199-.4.43-.36.232-.62.497-.66.927l.04-.066c-.6 0-1.06.231-1.43.695-.16 0-.33.033-.49.165-1.82.033-3.67.265-5.49-.165-1.42-.331-2.55.198-3.41 1.29-.13 0-.26.033-.36.133-.56 0-1.03.132-1.36.595-.53.033-1.09.033-1.35.596v-.033c-2.65 1.092-2.81 1.522-1.46 4.203v.033c.2.827.66 1.49 1.42 1.886h-.03c.69 1.522 1.26 3.144 3.27 3.442v-.099c.04.43.27.661.7.695h-.1c.89 2.316 1.45 4.798 3.47 6.519l2.58 2.978c.03.331.07.629.1.96.03 2.648.03 5.295.07 7.942-.04.398-.07.762-.1 1.159-1.43 2.515-1.79 5.262-2.02 8.075-.2.198-.36.397-.56.595-1.56.265-2.65-.496-3.74-1.489-2.35-2.085-4.53-4.368-7.47-5.692-.23-.199-.47-.397-.7-.596l-.06-.066-.6-.596c-.2-.264-.43-.496-.63-.761-.23-.231-.43-.463-.66-.695h.03c-.13-.728-.49-1.224-1.22-1.423l-.03.1c-.07-.398-.3-.629-.73-.695l.03.066-.69-.695c0-.199-.07-.397-.17-.563-.19-.529-.62-.728-1.15-.761h.06c-.59-1.191-1.35-2.217-2.71-2.581-.23-.199-.46-.397-.66-.596l-.07-.033c-.26-.463-.66-.728-1.22-.761h.07c-.9-1.522-1.99-2.846-3.38-3.905-.29-1.158-1.02-1.986-2.01-2.615-.7-1.753-1.39-3.507-2.09-5.261 0-.464 0-.927.04-1.39 1.35-3.078 3.1-6.023 3.67-9.432.33-2.052-.2-3.243-2.12-3.144-2.61.133-4.89-.96-7.37-1.323-.2-.232-.4-.43-.6-.662-.23-.232-.46-.43-.73-.662-1.72-1.721-3.93-1.688-6.08-1.522-1.49.132-2.71 1.025-3.04 2.58-.34 1.59-.1 3.078 1.72 3.773l-.04-.033c.17.397.33.794.5 1.192 1.49 3.011 1.09 3.74-2.22 4.203-2.91.397-5.82.496-8.73.364-.66-.927-1.39-1.787-2.58-1.82-4.89-.1-9.79-.795-14.61.661-2.48-.165-4.93-.96-7.48-.695-4.89.464-6.58 2.052-7.24 7.149h.03c-.46.463-1.02.86-1.35 1.423-1.49 2.415-1.06 5.328-1.79 7.942-.16.662.27 1.357.86 1.655 3.61 1.853 6.65 5.295 11.38 4.004.59-.166 1.32.099 1.95.099 3.5-.033 6.98.96 10.48.166 1.16-.265 2.22.165 2.98 1.026 1.98 2.316 4.4 4.269 6.45 6.42 2.51 2.68 5.25 5.261 7.27 8.472 1.03 1.621 1.95 3.507 4.17 3.938.92.794 1.95 1.39 3.21 1.489l-.1-.033c.43 1.257.59 2.647 1.58 3.673l.07.099c1.36 2.118 1.52 4.733 3.04 6.751l.04-.033c.06.397.26.662.69.728l-.1.034c.1 1.654 1.62 2.846 1.49 4.533-.1.1-.13.199-.1.364-3.6 2.218-4.5 2.019-6.88-1.522-.23-.364-.59-.629-.89-.927l.03.067c-.03-.53-.3-.96-.79-1.159-.17-.264-.3-.562-.47-.827-.13-.364-.36-.629-.76-.695l.1-.066c-.53-1.291-.92-2.681-1.65-3.872-.99-1.655-2.61-2.912-4.53-2.714-1.85.199-2.28 2.118-2.78 3.674-1.02 3.144-1.02 6.42-1.09 9.696-.86 2.085-2.18 4.004-2.02 6.387-.69.827-.69 1.82-.72 2.813-.33.397-.37.893-.37 1.39-.76 1.655-1.65 3.21-2.84 4.567-1.52.099-3.08.298-4.6.231-1.65-.066-3.01.364-4 1.754l-.03.033c-2.22 1.953-2.32 4.634-2.68 7.248-.4.265-.6.629-.66 1.092-.23.298-.43.596-.66.894l.03-.034c-.27.232-.53.464-.83.662-.2.133-.36.298-.56.43-2.02 1.754-2.12 2.714-.4 4.402a7.892 7.892 0 003.67 1.986h-.06c2.87 3.342 5.78 6.717 8.66 10.06a.38.38 0 00.1.364c.07.43.23.794.6 1.026-.17 1.919 1.35 3.442 1.29 5.328-.43.529-.86 1.026-1.29 1.555h.03c-.76 0-1.42.166-1.98.695-2.62.166-4.7 2.019-7.31 2.184-.17-.099-.37-.165-.53-.231-.23-.331-.47-.662-.7-.993l.07-.265c-.6-2.052-1.06-4.136-2.05-6.056l.03.033c-.03-.562-.23-.993-.69-1.324-.04-.926-.56-1.522-1.36-1.952-.16-.232-.33-.496-.49-.728-.14-.364-.37-.629-.8-.662h.04c-.07-.43-.34-.662-.77-.662-.52-1.257-1.65-1.886-2.67-2.614-.04-.364-.24-.53-.57-.596l-.09-.033c-1-.794-1.96-1.655-3.21-2.052-.2-.198-.37-.43-.56-.629-.1-1.654.33-3.474-1.43-4.633-2.87-3.044-5.02-3.243-8.03-.695l.03-.033c-.73.166-1.26.497-1.39 1.291l.1.066c-.4.066-.63.298-.69.695v-.066c-2.98.96-3.31.794-4.3-1.986-.23-.595-.23-1.29-.37-1.919-.43-2.383-2.58-3.276-4.59-1.92-2.12 1.423-3.01 4.104-2.25 6.619 1.26 4.038 3.77 5.593 7.77 4.766 1.16-.232 2.15-.034 3.17.463 1.19.562 2.48.794 3.81.86 2.71.166 2.74.265 2.81 3.177h-.04c-.95.232-1.91.464-2.87.662-2.65.629-3.54 2.945-4.17 5.03-.49 1.688.7 3.31 2.38 4.203l.3.033c.23.364.53.662.96.695h-.1c.17 1.456.96 2.449 2.08 3.277 1.52 2.515 2.58 5.294 4.86 7.346 4.1 3.674 5.66 8.571 5.99 13.833.13 1.92.5 4.038-.43 5.858-1.06 2.118-1.32 4.401-1.82 6.652l.03-.034c-1.02 1.059-1.58 2.383-1.75 3.806-.16 1.423-.36 2.813-.89 4.137h.03c-.2.232-.43.463-.63.695l-.03.033c-2.02 2.383-3.57 5.129-5.89 7.28-.23.199-.49.398-.72.596-.96.298-1.39.993-1.46 1.953l.07-.033c-1.66.496-3.41.761-4.67 2.051-2.41.033-3.43 2.185-5.12 3.31-.56 0-.99.264-1.32.695h-.04c-.72.132-1.25.562-1.62 1.224-1.02.563-2.01 1.092-3.04 1.655-.16.132-.33.298-.5.43l-.13.066c-.33.033-.56.232-.69.563-1.36.298-2.48 1.026-3.54 1.952-.13-.033-.27.033-.4.133-.63.198-1.29.264-1.88.562-2.48 1.258-4.63.53-6.72-.959-1.15-.828-2.31-1.622-3.5-2.416-.76-.53-1.59-.695-2.48-.364-2.75.959-6.58 6.188-6.52 9.233.07 1.82.34 3.772 2.45 4.6v-.033c1.99 3.474 4.57 6.453 7.94 8.637l-.03-.033c1.09 1.621 2.14 3.309 3.34 4.865 1.48 1.952 2.57 4.004 2.84 6.519.13 1.158.63 2.317 1.06 3.442 1.35 3.805 1.29 7.479-.96 10.987-.13.132-.23.264-.27.463-.26.265-.49.53-.76.794-.2.199-.36.397-.56.596-1.26.463-2.45.993-3.31 2.052-2.48.629-3.17 2.978-4.59 4.666h-.04c-.72.132-1.19.529-1.38 1.257l.03-.033c-.76.166-1.19.629-1.26 1.423-.46.298-.79.662-.76 1.258l.07-.066c-.56 0-1.03.231-1.33.728l.04-.033c-.86.033-1.75.099-2.61-.232.03-.132-.04-.265-.14-.397-.03-.331-.26-.563-.56-.662-.16-.232-.36-.463-.53-.695-.59-2.118-2.048-3.739-3.371-5.427-.066-.497-.265-.894-.695-1.158-.132-.331-.363-.53-.694-.596-.099-.099-.198-.133-.331-.099-.198-.53-.463-1.026-.959-1.324l.033.033c-.099-.861-.033-1.787-.793-2.416l-.066-.132c-.364-1.059-.794-2.085-1.852-2.681l-.033-.033c-.265-.496-.662-.794-1.257-.761l.033.066a12.842 12.842 0 00-.694-.662c-1.654-3.144-4.2-3.607-7.275-1.323-.496.33-.695.794-.695 1.356l.033-.033-.595.695-.033.033c-1.621 2.78-2.546 5.792-2.546 9.002 0 1.125.066 2.217 1.554 2.449 1.422.231 1.786 1.423 2.116 2.614 1.29 4.799 4.167 8.306 8.664 10.491.629 1.125 1.29 2.217 2.613 2.68l.165-.066-.165.099c.959 2.284 2.348 4.302 4.034 6.123 0 0 .033.297.066.297-.099 4.667.529 9.2 2.813 13.37.06.099.1.199.13.298.36.827.63 1.688-.17 2.416-.82.761-1.913.794-2.773.298-3.538-2.151-7.308-4.005-9.491-7.91-1.62-2.879-2.943-5.89-4.166-8.935-1.72-4.203-4.002-8.108-6.879-11.583-1.488-1.787-2.943-3.441-3.273-5.791.033-.893.033-1.787.066-2.681 1.455-2.614.33-5.294.099-7.942.099-.132.099-.232.066-.397.265-.463.761-.927.761-1.39-.133-3.574-.265-7.115-2.117-10.358 0-.166-.066-.298-.198-.43-.43-2.516-1.786-4.6-3.175-6.685v.033c-.066-.43-.264-.794-.661-1.026l.099-.199c.033-1.026.132-2.085-.76-2.879-2.15-2.647-2.15-2.647-4.663-1.82-.728-.066-1.488-.099-1.984.596-.265.198-.529.43-.761.629a9.308 9.308 0 00-.562.595c-2.15.43-3.803-1.621-5.919-1.224l.099-4.931c.066-2.35-.463-4.534-2.017-6.42l.033.033c-.397-2.019-1.125-3.872-2.712-5.295l.033.033c-.231-1.986-2.348-2.085-3.34-3.309-.463-1.456-1.521-2.383-2.678-3.243l-.033-.034c-.959-1.72-1.852-3.474-2.911-5.129-.826-1.258-2.116-2.151-3.637-1.555-1.521.595-3.274.397-4.663 1.356-.959.033-1.951-.033-2.91.133-1.653.298-3.505.165-4.663 1.754-.132-.033-.231 0-.33.099-1.158.232-2.381.927-2.249 2.019.331 2.184-1.29 3.408-1.918 5.096l.033-.033c-.893.165-1.521.728-2.083 1.39-.166 0-.298.033-.397.132-2.646.43-3.935 2.218-4.696 4.567-.198.232-.397.463-.595.728-.198.199-.397.43-.628.629l-.695.695c-1.62 1.191-2.282 3.111-3.637 4.501-.133 0-.265.033-.331.165-.331.066-.595.232-.695.563-2.149.827-2.281 3.408-3.935 4.633-.231.231-.463.463-.694.662h.033c-.298.198-.628.43-.926.628a.314.314 0 00-.331.133c-2.811 1.489-3.77 3.772-3.075 6.85.397 1.721.86 3.508.496 5.229-1.191 5.593-.463 11.516-2.811 16.944h.033c-1.157.827-1.554 2.118-2.215 3.276-.364.265-.695.496-1.059.761-.231.199-.463.43-.694.629l.033-.033c-.397.066-.628.264-.694.695l-.067-.066c-.793.132-1.157.628-1.289 1.356h.033l-.695.695.033-.033a1.705 1.705 0 00-1.322.695c-.662 0-1.323.033-1.951.033-.232-.397-.53-.331-.827-.066-1.389-1.555-2.017-3.508-3.142-5.229-.264-1.787-.959-3.408-1.918-4.898a.436.436 0 00-.099-.397 6.079 6.079 0 00-1.223-3.375c-2.084-2.78-3.043-6.056-4.266-9.233-.232-.629-.43-1.258-.992-1.655l.033-.265c-.397-4.269-3.77-7.015-5.357-10.689l.033.033c-.463-3.739-2.018-7.082-3.936-10.292l.033-.198c-.033-.265-.066-.497-.066-.761.1-.199.1-.364 0-.563.066-3.938-1.025-7.645-2.083-11.351-.165-.232-.364-.43-.529-.662-.628-1.655-1.918-1.588-3.274-1.191-1.587.43-3.141.959-4.828.629l-.033-.034c-.265-.463-.628-.794-1.191-.827l.067.066c.033-.595-.232-1.026-.761-1.323h.033c-.231-1.126-.926-1.754-2.05-1.953-.43-.761-1.125-1.191-1.984-1.357v.033l-.695-.695.033.033c-.231-.297-.43-.595-.661-.893.033-.132.033-.265-.066-.397-.397-4.137-3.506-6.023-6.614-7.91l-.033-.033c-.198-.231-.397-.43-.628-.662l-.596-.694c-.396-1.39-1.686-1.953-2.645-2.88a.5.5 0 00-.132-.364c-.563-1.356-1.621-2.018-3.076-2.018-2.381 0-4.795-.199-7.143.529-2.414.728-4.927.662-7.44.894-2.976.264-5.82-.96-8.763-.761-1.654-.398-3.307-1.357-5.027-.133-.331-.993-1.19-1.059-2.05-1.324-2.05-.595-4.233-.86-6.052-2.151.033-.132-.033-.264-.099-.397-.099-.43-.165-.86-.331-1.257-1.355-3.607-1.488-3.607-5.092-2.251-2.447.894-4.961 1.754-7.54.067-1.025-.662-2.315-.563-3.538-.563h.033c-2.679-2.35-5.556-4.368-8.962-5.494l-.066-.132c-.364-1.357-.562-2.813-1.124-4.103-1.191-2.747-2.646-5.329-5.986-5.924-3.307-.596-5.489 1.952-4.497 5.129.496 1.589 1.323 2.979 2.678 4.038h-.033c.232 1.456.728 2.68 2.48 2.813l.133-.133c.066.43.33.629.727.695l-.099.033c.761 1.456 2.116 2.118 3.472 2.846 4.2 2.317 6.548 5.626 5.49 9.796-.397 1.622.496 2.217 1.885 2.383 2.314.264 4.629.364 6.911-.033 1.554-.265 2.943-.927 3.538-2.582.1-.066.133-.165.1-.298.264-.198.562-.364.793-.595 3.043-2.648 5.324-2.383 7.606.893.695.993 1.455 1.92 2.117 2.946.959 1.489 2.215 2.084 3.935 1.588.43.033.86.066 1.323.099 1.818 1.026 2.81 2.946 4.431 4.137v-.033c.165 1.291.826 2.184 2.017 2.681v-.133c.264 2.648-1.521 4.766-1.885 7.214-2.513 2.847-4.597 5.924-4.696 9.929-.198.165-.397.364-.595.529-.695.232-1.191.662-1.323 1.423h.033c-.231.232-.43.463-.661.695l-.661.662c-.232.231-.463.43-.695.662-.364.099-.628.264-.694.662l.033-.034c-.43.034-.728.298-.926.662a.495.495 0 00-.364.133c-.231.198-.463.364-.694.562v-.033c-1.985.497-3.869 1.158-4.663 3.343-.199.033-.397.066-.562.165-2.613.53-4.994 1.655-7.209 3.012-1.753 1.092-3.936 2.151-4.101 4.765-.694.199-1.223.596-1.521 1.291a1.027 1.027 0 00-.43.198c-.992.133-1.918.497-2.679 1.159h-.033c-1.686-.034-3.34 0-4.629 1.323-1.323.265-2.48.828-3.307 1.953l-.033.033c-.298.198-.562.43-.86.629-2.149.297-4.134.992-6.118 1.952-2.215 1.059-4.563 1.886-6.878 2.78-.529 0-.992.132-1.29.629l-.033.033-.694.596v-.034c-1.091 0-2.183.034-3.274.034-.893-1.159-1.918-2.185-3.241-2.88 0-.165-.066-.264-.165-.364-.529-1.588-.695-3.342-1.852-4.699-1.455-2.813-2.943-5.593-3.77-8.67-.132-.497-.562-.927-.827-1.39-.033-.364-.099-.728-.132-1.125-.231-1.523-.827-2.846-1.951-3.905l-.595-.795-.662-.662v-.033c-.462-1.059-.429-2.382-1.587-3.144.463-1.654-.76-2.482-1.686-3.474-.232-.265-.43-.563-.662-.828l-.396-.595c-.563-1.324-1.522-2.218-2.944-2.549-.33-.463-.727-.728-1.289-.728l.033.034c-.066-.398-.331-.596-.695-.695l.033.033c-.231-.298-.429-.596-.661-.861 0-.165-.033-.298-.132-.397-.1-.927-.463-1.721-1.125-2.383v-.231c-.231-2.085-.231-4.203-1.322-6.089-.298-1.721-.893-3.277-2.15-4.534-2.282-3.475-5.622-6.189-7.176-10.16-.033-.198-.132-.331-.264-.463l-.496-.596c-.199-.232-.364-.496-.563-.728-.132-.364-.363-.629-.727-.695l.066.033c-.066-.397-.298-.629-.694-.728l.099.033c-.265-1.787-1.521-2.912-2.712-4.07-.231-.397-.43-.795-.661-1.192-.132-1.059-.529-1.985-1.356-2.713-.231-.993-1.29-1.489-1.389-2.548 0-.398-.264-.662-.595-.828 0-.165 0-.331-.033-.463-.232-.53-.463-1.059-.992-1.456z" fill="#FEFFFF" stroke="#E1E0EA" stroke-miterlimit="10"/><path d="M608.607 397.459a1.572 1.572 0 00-.76-1.059c-.166-.695-.53-1.225-1.257-1.39v.033a.93.93 0 00-.695-.695l.034.033c-.232-.298-.43-.596-.662-.894 0-.165-.033-.297-.132-.397-.199-.231-.364-.43-.562-.662-.232-.628-.695-1.059-1.29-1.356h.033c-.264-1.192-.992-2.019-1.984-2.648v.033c-.099-.364-.331-.629-.694-.695h.066l-2.679-4.765a.502.502 0 00-.099-.43c-.199-1.159-.695-2.35-.132-3.508 1.918-3.938 1.851-8.207 2.182-12.41.099-.1.099-.232.066-.364 1.753-3.574 1.555-6.056-.727-8.207h-.033c-.298-.53-.794-.629-1.356-.629-.099-.1-.232-.133-.397-.099-1.587-2.085-3.836-2.085-6.151-1.986-2.678.099-5.423.761-8.002-.563-.43-1.125-.53-2.349-1.323-3.309-.066-1.456-.761-2.581-2.017-3.309-.232-.431-.596-.662-1.059-.728-.76-.894-1.785-1.39-2.91-1.39-3.174-.1-6.415-.232-9.424.893-2.447.894-4.762 2.151-7.143 3.243-1.62.464-3.142 1.159-4.597 2.019-2.612.86-5.225 1.489-7.936.496-.364-.132-.86.034-1.29.067-.331-.464-.794-.53-1.323-.497-.363-.066-.727-.132-1.091-.231-.595-.629-1.157-.662-1.753 0-.793 0-1.62-.695-2.414.033-1.752 0-3.472.033-4.927 1.257-2.05.298-3.803 1.324-5.688 2.085-1.752.364-3.141-.728-4.662-1.257l-.067-.067c-.297-.43-.694-.662-1.223-.728-.232-.397-.562-.662-1.025-.728-2.117-2.813-4.795-4.898-8.234-5.89l-.662-.662v-.033c-.595-1.059-1.521-1.655-2.612-1.986l-.662-.662c-.264-.629-.694-1.092-1.388-1.29-.067-.1-.166-.133-.298-.1-1.587-1.82-2.48-4.203-4.266-5.89l-.661-.762c.231-.926.33-1.853-.397-2.647-.529-3.011-2.249-5.229-4.828-6.784.033-.132 0-.265-.099-.397-.067-.364-.232-.662-.596-.761l.1-.033c-.232-1.126-1.059-1.622-2.051-1.953l.033.033c-.231-.728-.595-1.257-1.455-1.291-.893-.661-1.785-1.29-2.678-1.952-.397-1.688-1.488-2.945-2.48-4.269a.372.372 0 00-.1-.364c-.099-1.258-.363-2.416-1.322-3.343-.033-.33-.033-.661-.133-.959-1.389-4.567-.595-8.638 2.811-12.079a5.445 5.445 0 001.521-2.846c.463-2.482 1.026-4.931 1.488-7.38.232-1.258.034-2.416-1.091-3.21.033-2.35-.463-4.6-1.389-6.751-1.091-2.548-1.19-5.262-.264-7.744 1.124-2.945 2.48-5.924 4.299-8.472 2.811-3.905 5.092-7.942 6.051-12.675l-.099.033c.397-.099.628-.331.695-.728l-.067.066c.761 0 1.389-.231 1.918-.794 0 0 .033-.033.033 0 1.621-.827 2.051-2.449 2.679-3.905 1.157-1.522 2.116-3.342 4.299-3.673 1.819-.265 2.877-1.423 3.605-2.946.529-.264.793-.661.793-1.257l.033.099c3.373-2.052 5.126-5.295 6.383-8.836 1.488-4.236 2.976-8.405 6.944-11.119.959-.662 1.653-1.754 2.447-2.614l-.066.033c1.951 0 3.406-.695 4.067-2.648l-.099-.033c.331-.132.463-.364.529-.695.033-.232.066-.463.066-.695.1-.198.166-.397.166-.596l-.066.034c.926-.232 1.355-.993 1.818-1.754 2.051-3.244 2.348-3.376 6.019-2.251v-.033c.595 1.158 1.653 1.158 2.745 1.192 2.48.132 4.894-.298 7.308-.729.496 0 .959-.165 1.323-.496.628-.033 1.256-.066 1.885-.066 2.447-.827 4.993-1.357 6.845-3.508 1.157-1.324 2.976-1.919 4.828-1.787 1.885.132 3.704-.199 5.555-.53 2.811-.496 5.721-2.151 8.367-1.191 3.208 1.158 5.721-.463 8.565-.728.628-.066 1.322.132 1.951.165 2.612.1 5.258.464 7.771-.794 1.223-.595 2.612-.364 3.902-.265 2.315.232 3.373 1.39 3.208 3.674-.099 1.522-.298 3.078-.1 4.6.199 1.489-.198 2.813-.892 4.103-1.257 2.317-.761 4.832 1.455 6.288 2.48 1.622 5.092 3.045 8.3 2.581 1.29-.165 2.645-.099 3.935.133 2.447.463 4.663 1.423 5.357 4.203.463 1.886 1.819 2.68 3.638 2.713 2.381.067 4.53.761 6.514 2.052.827.53 1.555 1.225 2.414 1.688 1.389.728 2.811.562 4.068-.298 1.223-.86.992-2.118.529-3.276-.827-1.953.132-3.276 1.257-4.766 1.389-1.82 3.505-1.654 5.324-2.283 2.348-.794 4.762-.563 6.614.927 1.984 1.588 4.265 2.151 6.547 2.779.695.596 1.521.894 2.447.828l-.099.066c.463.993 1.389.86 2.249 1.026 3.538.662 7.176 1.059 10.549 2.383 2.513.992 4.497.926 6.68-.729 3.108-2.349 6.15-1.522 9.06.629.86.662 1.588 1.523 2.679 1.82.298.596.694 1.059 1.323 1.357h-.033c1.951 5.03 3.406 10.16 3.439 15.62 0 .629.231 1.324.529 1.887 1.521 2.779 3.141 5.526 4.729 8.273 0 .529.198.993.562 1.357.893 3.971 2.612 7.479 5.886 10.06l.033-.099c.066.397.298.629.695.695l-.099.033c2.281 4.103 3.902 8.439 4.431 13.138.132 1.224.099 2.681 1.521 3.376l.066-.067c.066.397.265.662.695.695l-.067-.033c-.033.596.232 1.026.728 1.324h-.033c.231 1.257 1.058 2.184 1.852 3.078 2.248 2.482 3.34 5.394 3.604 8.67.099 1.125.562 2.085 1.025 3.111 1.125 2.482 3.373 3.408 5.655 4.203 1.654.595 2.745 1.555 3.77 2.945 1.554 2.085 3.175 4.17 5.39 5.659.066.099.166.165.298.132.496 1.887 2.645 3.111 2.282 5.328-.596 3.74 4.431 6.586 7.539 5.792 3.043-.794 6.217-1.192 9.193-2.416 4.266-1.787 8.995-1.886 13.36-3.475 1.521-.562 2.414.364 2.447 2.118.066 1.655.199 3.309 0 4.931-.264 2.383-.297 4.832-1.488 7.049-1.587 2.912-2.579 6.056-3.869 9.101-.099.132-.165.264-.132.463-1.554 2.052-2.447 4.401-3.142 6.817a.791.791 0 00-.165.463c-.86.728-1.356 1.655-1.323 2.813l.033-.033c-1.025.894-1.422 2.151-1.885 3.376l-.033.033c-1.025.596-1.653 1.489-1.984 2.614-.463.298-.727.695-.76 1.258l.066-.033c-.364.099-.562.331-.562.695l-.695.794c-.562.198-.727.629-.794 1.158l.067-.033c-.364.099-.596.331-.695.728v-.066a5.298 5.298 0 00-2.546 2.118c-.232.198-.463.43-.695.629-.727.165-1.223.628-1.587 1.257-1.786.795-3.671 1.423-5.059 2.912l-.496.497-.067.099c-.496.265-.76.629-.76 1.192l.033-.034-.695.695.034-.033c-.397.066-.629.298-.728.662l.033-.033c-.397.066-.628.298-.694.695l.033-.033c-.397.066-.629.331-.695.695l.033-.033c-.363.099-.595.331-.661.695l-.595.695-.033.033c-2.084 2.184-4.002 4.501-5.358 7.214-.396.232-.661.563-.727.993-1.687 1.224-3.109 2.78-4.597 4.236-1.157 1.125-1.885 2.416-1.951 4.037-1.488 2.78-3.009 5.527-4.431 8.34-.694 1.39-.694 2.846-.397 4.467.761 4.038 2.216 8.009 1.257 12.278-.265 1.158.298 2.35.992 3.376.033.529.165.992.529 1.356a11.033 11.033 0 001.653 3.575c1.819 2.614 2.15 5.625 1.522 8.571-.629 2.978-.695 5.923-.463 8.869.264 3.276-.166 6.354-1.422 9.365h.033c-.463.331-.629.827-.728 1.357l-.595.596c-1.19.496-1.753 1.456-2.116 2.614h.099c-.562.033-.992.265-1.191.827l-8.035 4.567c-.926.033-1.687.364-1.985 1.357-.859.43-1.388 1.158-1.686 2.052-.165.132-.265.331-.331.529-.198.265-.397.53-.628.762l-.066.264c-.926.464-1.984.695-2.58 1.655l-.033.033-.628.629-.033.033c-.198.232-.397.43-.562.662l-.033.066c-2.282 2.515-2.48 5.493-1.554 8.505.793 2.614 1.157 5.262 1.19 8.009-.033.463-.033.893-.066 1.356-.86 3.475-1.819 6.884-4.861 9.2-1.224.232-2.117.993-2.91 1.887-.166 0-.265.099-.364.198-1.753.761-2.612 2.251-3.142 4.005-.496 1.687-.925 3.375-1.422 5.063-.76 2.614-1.554 5.262-3.472 7.313-1.356.431-2.248 1.324-2.612 2.681-.992.629-1.654 1.489-2.017 2.647-.496.331-.662.828-.695 1.39l-.066.265c-1.058.728-1.521 1.82-1.852 3.012-1.19 1.026-2.414 1.985-3.307 3.309a5.53 5.53 0 00-1.984 2.019c-.529.264-.76.662-.794 1.257l.067-.033c-.397.099-.629.364-.662.761-.198.232-.397.43-.628.662-.232.199-.463.43-.695.629a136.26 136.26 0 00-2.645 1.919l-.893.695c-.165 0-.298.066-.43.199-.198.165-.43.331-.628.529l-.033.033c-.331.1-.595.265-.695.629l.033-.033c-1.223-.066-2.447-.099-3.505.662a.503.503 0 00-.43.099c-.297.199-.562.397-.86.596-.165 0-.33.066-.496.199-2.877-.166-5.456 1.456-8.366 1.158-2.91-.265-5.589.629-8.102 2.018l-.066.034c-2.083 0-4.2-.133-6.25.066-2.05.198-3.935.066-5.721-.993-.595-.364-1.223-.463-1.918-.43-.099-.1-.198-.133-.331-.1-1.223-3.706-2.612-7.346-2.182-11.384.231-2.217-.562-4.302-1.951-6.056.066-.132.033-.231-.066-.331-.232-1.853-.232-3.739-1.323-5.361l.033.033c.033-.761-.066-1.489-.694-2.018v.033c-.067-.397-.232-.662-.662-.728l.132-.1c-.363-1.489-1.62-1.919-2.81-2.482v.033c-.232-.264-.43-.529-.662-.827-.033-.198-.132-.331-.264-.463-.199-.596-.529-1.092-1.092-1.39-.396-1.522-.826-3.012-1.918-4.203.033-.132.034-.265-.066-.364a14.689 14.689 0 00-.826-4.633c-.067-.463-.133-.894-.199-1.357.298-1.092.331-2.184-.066-3.21-.827-2.151-1.025-4.434-1.29-6.718.066-.463.133-.927.199-1.357.264-1.29.165-2.581-.033-3.872.099-.529-.033-.992-.43-1.39-.099-.364-.298-.628-.662-.728l.067-.033a892.147 892.147 0 01-4.63-7.479.374.374 0 00-.099-.364c-.033-.562-.199-1.026-.662-1.357-.793-3.077-1.62-6.122-4.1-8.339-.166-.298-.298-.596-.463-.927l-.794-3.971.099-1.721c.761-2.912.695-6.023 1.852-8.869l-.297-.893c1.355-.695 1.388-2.118 1.686-3.31.529-2.085.959-4.203 1.422-6.321.198-.231.397-.43.595-.661.496-.298.761-.729.761-1.324v.099c2.976-2.085 4.233-5.229 3.241-8.836-.563-2.085-1.224-4.203-2.646-5.957.033-.198 0-.397-.066-.562-.165-1.523-.595-3.045-.463-4.534.529-5.096-1.951-9.2-4.134-13.436 0-.199 0-.397-.099-.563.331-2.118.133-4.103-1.488-5.592zM100.636 117.191c.1-.166.166-.331.133-.53.628-2.217 1.223-4.434.893-6.751l.099-2.581c.099-.96-.397-1.588-1.191-2.019-.231-3.408-2.248-5.791-4.563-8.008l.033.033c-.96-4.402-4.464-4.799-8.003-5.13-.198-.099-.397-.132-.595-.165-1.025-.993-2.381-1.29-3.67-1.191-2.779.231-5.126-.795-7.474-2.118-2.017-1.126-4.167-1.258-6.283-.033-.298.099-.794.099-.893.297-1.39 3.243-4.53 3.674-7.341 4.633-.298.1-.596.265-.893.43-1.72.1-3.406.2-4.895 1.192l-.198-.033-.198.066c-1.918.165-3.836.397-5.754-.033-1.323-.298-2.547-.033-3.671.728a.68.68 0 00-.496.1c-1.819.562-3.803.694-5.423 1.886-.695.033-1.29.364-1.852.76-3.307.894-6.614 1.788-9.49 3.807a.5.5 0 00-.43.099c-1.82.099-3.34.926-4.796 1.919-2.48.662-4.86 1.556-7.143 2.78-.529-.033-.959.199-1.322.596-.662.298-1.356.595-2.018.893-.992.066-1.918.265-2.546 1.125l-.066.034c-.232.198-.463.397-.694.562v-.033c-2.58.96-4.994 2.482-7.937 1.986-.198-.199-.364-.397-.562-.596-.397-1.059-.53-1.919.694-2.648 1.092-.661 2.513-.728 3.274-1.886v.033c1.852-.066 3.274-1.158 4.762-2.052a.666.666 0 00.43-.132c2.48-.893 4.861-1.986 7.044-3.475.76-.529 1.686-1.224 1.29-2.416-.364-1.092-1.323-1.356-2.382-1.323-.661.033-1.322 0-1.984 0-.298-.728-.463-1.589-1.323-1.986h-.033c-.231-.231-.43-.463-.661-.695l.033.033c-.033-.562-.232-1.059-.661-1.456 0-.165-.033-.364-.133-.496 0-1.06-1.09-2.383-.264-3.111 1.653-1.456 1.95-3.541 2.976-5.262.661-1.092 1.753-1.522 2.943-1.82 1.356-.33 2.811-.496 3.77-1.72l-.033.032c1.984-.43 3.803-1.257 5.324-2.647v.033c3.803-.596 7.44-1.754 10.813-3.64.761-.43 1.62-1.06 1.29-2.052-.33-.96-1.323-.993-2.248-.96-1.522.033-2.977.827-4.564.364v-1.49c.496-.462.827-1.058.86-1.72.099-2.747 1.72-3.706 4.233-4.004 3.24-.397 6.481-.927 9.689-1.688 3.505-.827 6.779-2.118 6.713-6.718 0-.629.297-1.29.43-1.92.198-.032.363-.099.496-.198 2.15-.794 4.299-1.655 6.58-1.787 5.788-.33 10.814-3.276 16.27-4.666.794-.199 1.488-.894 2.216-1.357l.066-.033c1.753-.463 3.538-.894 5.291-1.357.463-.033.893-.033 1.356-.066 1.091.033 2.282.364 3.274.1 4.067-1.093 8.366.165 12.367-1.49.86-.33 1.985-.199 2.944-.066 5.423.893 10.846 1.754 16.236 2.813 4.332.827 8.697 1.456 13.063 1.092 2.414-.199 4.563.033 6.613 1.324 1.025.628 2.084 1.356 3.34 1.224 1.588-.166 3.01.397 4.498.761 1.587.364 3.174 1.225 4.828.629 2.414-.894 4.927-1.06 7.44-1.258 4.961-.364 9.689-2.018 14.617-2.448.661 0 1.322.033 2.017.033 2.249.893 4.166.099 5.952-1.225.662 0 1.323-.033 1.984-.033 1.654.563 3.274 1.357 5.027 1.258 4.629-.265 9.094.562 13.459 2.117.364.398.793.596 1.323.662 1.157 1.258 2.48 2.482 4.232 2.118 2.778-.562 5.159.364 7.606 1.291h-.066c.232.53.661.827 1.124 1.125 2.481 1.622 5.225 1.423 7.97 1.192 4.365-.398 8.499-1.92 12.831-2.582 2.844-.43 5.39-.397 7.969.828.199.198.397.397.596.628.297.53.727.828 1.355.761h-.033c.43.729 1.158 1.026 1.918 1.026 4.531.067 9.028-.397 13.525-.728.166 0 .298-.297.463-.43.1-.066.166-.165.133-.298 2.844-.165 5.655-.231 8.498.265 4.498.761 6.317-.761 5.887-5.163-.199-1.985.297-3.441 1.686-4.732 3.274-3.078 7.176-4.534 11.64-4.567v-.033c.695 1.125 1.356 2.217 1.389 3.64.033 1.589.728 2.979 1.455 4.336 1.588 2.912 5.291 3.54 7.805 1.356 1.058-.926 1.686-1.985.992-3.474-.794-1.655-.629-3.409-.298-5.163l-.033.033c1.058-.794 2.183-1.522 3.108-2.449 4.068-3.97 8.83-5.824 14.584-5.593 3.274.133 6.614.662 9.854-.099 4.266-.992 8.532-.562 12.798-.264 3.009.198 5.622 1.158 6.481 4.533.1.397.53.662.827 1.026l.066.1c.695 1.19 1.654 1.985 3.076 2.184l.033-.033c.297.496.793.76 1.323.86 3.571.463 6.514 2.317 9.325 4.368l-.033-.033c.595 1.423.76 2.88.727 4.435-.066 2.879 1.588 5.03 4.531 6.221v-.033c2.348 2.085 4.133 4.402 3.042 7.843-.132 0-.231.067-.33.166-.199.165-.397.364-.629.53l-.033.032c-1.091.364-2.017.86-2.513 1.986-.265.232-.529.496-.827.728-.364.033-.595.199-.694.53l.033-.034c-.298.232-.595.43-.893.662l-1.091.795c-1.092-.067-2.183-.1-3.274-.166l.066.033c-.529-1.357-1.62-2.316-2.546-3.409-.86-1.058-1.918-2.68-3.439-1.82-1.72.96-.43 2.582.132 3.74.992 1.986 1.752 4.004 1.62 6.255 0 0 .099.198.066.198-.397.232-.628.563-.661.993l.033-.066c-.397.066-.595.33-.694.695l.033-.033a.983.983 0 00-.695.695l.033-.067a1.839 1.839 0 00-1.289.728h-.034c-1.157.166-1.918.795-2.314 1.887l-.265.1c-.231.23-.496.43-.727.66-.794.233-1.555.564-1.951 1.325-.497.43-.993.827-1.489 1.257a.935.935 0 00-.496.133h-1.984c-2.447-.993-4.828-2.118-7.374-2.846-2.447-.728-4.167-2.118-5.06-4.7-1.157-3.342-2.017-3.673-5.357-3.144-3.34.53-6.547-.496-9.854-.661-1.092-.034-1.323-.96-.959-1.986.926-2.581 3.902-4.17 6.613-3.409 1.588.43 3.142.993 4.862.828 1.984-.199 3.935-.265 4.795-2.68.396-1.16 1.752-1.623 2.844-2.152 1.587-.827 3.042-1.853 4.265-3.078 1.687-1.687 1.489-3.143-.661-4.136-1.455-.695-2.48-1.556-3.373-2.946-1.29-1.985-3.571-2.448-5.787-2.68-1.951-.199-3.968-.1-5.952-.1-1.918-.033-3.274.861-4.366 2.45-3.207 4.6-6.812 8.802-11.871 11.549-1.29.695-2.613 1.026-4.068 1.191-2.281.232-2.844 1.126-2.215 3.376.43 1.49.859 2.978 2.248 3.938.695.496.992 1.191.563 2.019-.43.893-1.158 1.29-2.117 1.257-1.025 0-1.984-.397-2.778-.96-1.587-1.125-3.075-.893-4.629-.032-1.356.728-2.745 1.39-4.101 2.15-1.29.695-2.282.63-3.571-.33-4.762-3.541-8.499-3.343-13.162.231-2.182 1.688-4.464 2.979-7.374 3.343-5.027.628-9.392 3.044-13.393 6.056-2.017 1.522-4.233 2.813-5.886 4.798-1.058 1.291-1.687 2.548-.662 4.17.728 1.158.794 2.515 1.059 3.806.363 1.919 1.223 2.945 3.34 3.442 2.844.661 5.291 2.084 7.605 4.269 2.613 2.515 5.986 4.533 9.954 4.566 1.786 0 3.505.331 5.192.894 1.587.529 1.852 1.092.827 2.35-1.521 1.952-2.381 4.202-3.638 6.287-.893 1.456-.86 2.946-.496 4.468.695 2.879 2.447 3.673 5.093 2.35 1.091-.53 2.149-1.092 3.174-1.754.629-.431 1.356-1.092 1.323-1.82-.132-2.88 1.984-5.13 1.951-7.943-.033-1.555.926-2.25 2.216-2.879 3.075-1.489 6.382-2.35 9.358-4.104 2.183-1.29 3.836-2.945 5.06-5.063.926-1.588 1.256-3.177-.033-4.898-1.918-2.548-1.819-2.68.959-4.467.198-.133.363-.265.529-.397 1.323-.265 2.579-.729 3.34-1.986 1.918-1.886 1.025-4.368 1.455-6.586l.066.133c1.29-.497 2.348-1.29 2.513-2.747.199-1.423 1.191-2.317 1.951-3.342l-.033.033c2.414-1.192 4.96-.695 7.474-.63 4.365.1 8.565.696 11.541 4.435.132.166.397.166.595.265l.165-.132-.165.132c.132.53.43.96.86 1.324 3.24 2.647 3.24 2.647 1.918 6.42h.033c-1.422 2.912-.595 4.799 2.348 5.626 1.223.33 2.447.265 3.505-.397 2.017-1.29 4.233-2.35 5.622-4.468.165 0 .33-.033.496-.066.793.298 1.157-.397 1.686-.761 2.679-1.787 2.646-1.787 5.225.463.232.199.562.298.86.463v-.066c1.885 4.567 2.216 9.333 2.083 14.197-.099 3.475 1.125 6.222 4.927 7.182 1.29.331 2.514.926 2.448 2.647-.067 1.688 1.091 2.25 2.48 2.515l-.066.066c1.289 2.317-.1 4.666.165 7.016-.198.463-.397.894-.595 1.357-1.555 1.522-1.224 3.64-1.654 5.493-.463 1.986.298 3.343 2.117 4.203.859.397 1.852.629 2.777.927.067.198.166.397.298.596-.099.661-.198 1.323-.298 1.952-1.785 2.482-1.785 4.104 0 6.751-.198 1.886-1.388 3.177-2.546 4.501-.661 0-1.356 0-2.017.033-1.587-1.158-3.704-.728-5.291-1.754-2.381-1.555-4.96-1.688-7.639-1.39-1.984.232-3.968.099-5.919-.165-1.257-.166-1.753-.762-1.323-2.052.43-1.258 1.091-2.416 1.124-3.773h-.099c.43-.033.662-.265.695-.695l.066.099c1.752-.694 2.811-2.117 3.472-3.772.694-1.787-.364-3.078-2.249-2.912-1.19.099-2.414.331-3.34 1.224h-.033c-.959-.132-1.951-.265-2.91-.397-3.042-.463-6.118-.53-9.16-.066-3.009.463-3.704 1.324-3.373 4.269.198 1.621-.43 2.68-1.488 3.739-1.885 1.953-3.075 4.203-2.844 7.049.099 1.357.496 2.317 1.885 2.714.231.397.595.596 1.058.629 2.15 1.257 4.696.993 6.912 1.952.198.199.396.43.628.629.165 1.555-.033 2.879-1.918 3.21-3.109.53-6.184 1.357-9.326 1.589-2.843.198-4.728 1.356-6.018 3.739l-.562.563-.695.794.033-.033c-1.389.165-2.744.265-3.968-.629-.033-.43-.099-.86-.132-1.291 0-.364-.199-.562-.529-.628l-.033-.033c-2.514-1.688-5.225-1.059-7.937-.762-.628.067-1.025.762-1.323 1.39-.264.199-.562.431-.826.629a.759.759 0 00-.463.132c-.794-.099-1.521-.033-2.15.53-1.124.033-1.719.96-2.513 1.522a8.785 8.785 0 00-.562.53l-.033.033c-.629.265-1.058.662-1.323 1.29-.231.232-.43.464-.661.695-1.323 1.324-.563 3.012-.893 4.534-.166.166-.331.364-.496.53-.562.132-1.125.331-1.521.761-.166-.033-.298 0-.397.099-.562 0-1.025.199-1.356.596-1.984.463-3.935.893-5.919 1.357-.728-.067-1.323.132-1.786.728-.298.198-.595.364-.86.562-2.017.397-3.505 1.556-4.464 3.343-.265.397-.562.794-.827 1.224-.231.232-.463.497-.727.728-.199.166-.43.364-.629.53-.727.231-1.223.629-1.356 1.423h.067c-.265.231-.53.463-.761.662-.165.198-.364.43-.529.628-.827.398-1.323 1.026-1.389 1.986h.033c-.231.232-.43.463-.661.695l-.662.662c-.198.231-.43.43-.628.662l-.033.033c-1.091.562-1.72 1.456-1.984 2.647-.761.464-1.191 1.159-1.29 2.052-.099.099-.132.199-.066.331-.198.331-.43.662-.628.993-.1.099-.133.231-.066.364-.827 1.555-1.323 3.243-1.72 4.931-.066.331-.165.629-.232.959-.462.232-.76.53-.925 1.026-.166.133-.298.265-.364.464-.364.165-.629.397-.662.827l-.066-.066c-.893.397-1.157 1.158-1.157 2.085-.761 1.257-2.348 1.125-3.34 1.985-3.076.861-5.589 2.747-8.168 4.534-.165 0-.298 0-.43.099-.562-.033-.959.265-1.257.695l-.066.033c-1.256.497-2.281 1.324-3.009 2.482l-.298.1c-.892.165-1.587.595-2.116 1.29-.198 0-.364.1-.496.199-.661.132-1.091.562-1.356 1.158-.231.199-.463.397-.694.629-.232.232-.43.463-.662.695-.33.099-.562.331-.628.662-.959.926-1.521 2.052-1.918 3.309-.265.397-.529.761-.761 1.158-.694.662-.727 1.556-.727 2.449-.033 2.747-.033 5.527.76 8.174.993 3.31 1.356 6.652 1.323 10.061a1.088 1.088 0 00-.132.562c-.926 1.754-1.819 3.541-3.472 4.766-1.621 1.224-3.043.926-4.167-.761-.298-.464-.529-.96-.794-1.423-.165-.199-.33-.364-.496-.563-.132-.596-.33-1.125-.793-1.555a.46.46 0 00-.066-.364c-.133-1.126-.496-2.151-1.224-3.012-.033-.331-.066-.662-.099-.96-.199-2.25-.728-4.434-.331-6.784.496-3.111-2.116-5.229-5.357-4.798-.959.132-1.951.165-2.91.264h.099c-1.422-3.474-2.844-4.302-6.25-3.541-2.017.464-4.001 1.026-6.018 1.556-1.72.231-2.58 1.621-3.407 2.879-.562.86-1.223 1.191-2.215 1.026-4.299-.695-8.763-.629-12.897-2.25-1.72-.662-3.307-.034-4.729.794-2.943 1.721-6.118 3.044-9.127 4.633-1.918 1.026-3.637 2.449-5.291 3.872-1.422 1.224-1.885 2.978-1.819 4.798.1 2.184-.661 4.071-1.554 5.99-2.645 5.659-4.2 11.417-3.406 17.871.364 3.011.893 5.791 2.05 8.505 1.654 3.905 5.622 6.552 9.888 6.089a57.446 57.446 0 017.903-.364c2.481.066 4.167-.894 4.994-3.409.661-1.985 1.62-3.872 1.885-5.957.231-1.754 1.124-2.746 2.811-3.276 3.571-1.092 7.043-2.383 10.912-1.621 2.547.496 2.679.364 2.91 3.342-.198.265-.397.529-.562.794l-.033.066c-1.356.695-1.951 1.854-1.951 3.376 0 1.059-.099 2.118-.132 3.177l.066-.066c-.364.132-.529.364-.595.728-.067.331-.166.662-.232.993-.959 1.29-1.455 2.746-1.819 4.269-1.124.628-1.719 1.687-2.314 2.713-1.257 2.118-1.356 4.402-.265 6.586 1.058 2.118 3.307 1.191 5.026 1.621.1.033.199-.033.331-.066 4.134-.86 8.036-.397 11.64 1.887l.067-.034c1.851 1.324 2.281 3.177 1.951 5.328-.133.828-.331 1.655-.53 2.482-.099.1-.132.199-.099.331-.727.728-.992 1.655-1.124 2.648-.331 2.482-.695 4.931-1.654 7.28-.628 1.556-.496 3.244-.363 4.865.132 1.522.661 3.012 2.381 3.574l.033.033c.926 1.787 2.315 3.012 4.166 3.74.1.099.199.132.331.099 1.521 1.158 3.142.993 4.927.629 2.514-.496 3.473.695 2.646 3.144-.298.926-.992 1.721-.496 2.747v1.323a4.457 4.457 0 00-.165.629h.033c-.232.232-.463.463-.695.662l.033-.033h-3.968l.033.033c-.728-2.019-2.149-3.144-4.332-3.309-1.753-.133-3.34-.795-4.927-1.457-.033-.198-.099-.364-.232-.496-.165-.761-.595-1.39-1.157-1.919-.166-.265-.364-.53-.529-.795-.463-.794-1.191-1.191-2.084-1.29-.198-.166-.43-.331-.628-.497a.775.775 0 00-.463-.231c-.827-1.357-2.216-1.225-3.505-1.39-1.058-1.853-2.117-3.707-2.712-5.792.066-1.323.099-2.68-1.19-3.541.033-.132-.033-.264-.1-.397 0-.562-.198-1.026-.694-1.323-.264-3.012-2.91-3.839-4.993-4.435-2.282-.662-4.597-1.257-6.846-2.019-1.025-.331-2.116-.529-3.207-.198-.827-1.754-3.076-1.158-4.101-2.548l-.033-.033c-1.488-1.357-3.009-2.714-4.497-4.071v.066c-.066-.397-.265-.662-.695-.695l.033.033c-.066-.43-.297-.628-.694-.695l.099-.033c-.496-1.257-1.223-2.349-2.678-2.647v.033c-1.191-1.986-2.844-2.283-4.828-1.324-4.233 1.688-8.334.927-12.401-.595-2.447-1.622-5.192-2.516-8.036-3.244h-.033c-1.951-1.125-3.935-2.25-5.886-3.375-.166-.761-.794-.96-1.389-1.258v-.033c-.066-.364-.298-.529-.629-.595l-.066-.034c-2.546-.992-5.059-1.985-6.68-4.467-.826-1.258-2.381-1.456-3.803-1.589h.034c-1.555-3.11-3.043-6.254-1.257-9.795l-.099.033c.397-.099.562-.364.595-.761v-1.324c.033-1.423.165-2.879-.628-4.17-1.323-2.151-2.613-4.302-3.936-6.453-.066-.496-.264-.96-.661-1.291-.364-1.125-.992-2.018-2.017-2.647-.232-.232-.43-.463-.661-.695h.033c-.166-.728-.596-1.191-1.323-1.357v.033c-.232-.198-.463-.397-.728-.595-.099-.1-.198-.166-.363-.133-1.687-1.489-.959-3.739-1.621-5.394-1.124-2.78-2.083-5.957-3.902-8.207-3.208-3.938-4.63-8.075-4.1-13.039.033-.232 0-.43 0-.662-.067-1.357-.53-2.416-2.084-2.416-1.422 0-2.215.861-2.447 2.184-.264 1.655-.165 3.277.364 4.898.496 1.589.926 3.177.992 4.832.1 2.019.628 3.905 1.488 5.692 1.157 2.515 1.72 5.196 2.381 7.876.727 2.945 1.257 5.99 3.34 8.439.794.927 1.323 2.019 1.19 3.309-.099.96-.496 1.688-1.389 2.085-.892.364-1.455-.231-1.984-.761-.529-.563-.926-1.224-1.686-1.522-.232-.232-.43-.464-.662-.695h.034c-.133-.828-.629-1.423-1.29-1.787-2.447-1.324-3.67-3.409-3.638-6.089.033-3.144-1.488-4.998-4.332-6.057v.067c-.099-.364-.33-.596-.694-.662-.232-.232-.463-.43-.695-.662-.959-2.217-1.587-4.302 1.29-5.758 1.157-.563 1.091-1.787.595-2.879-.595-1.291-1.29-2.516-2.546-3.277v.033c-.198-.297-.43-.595-.628-.926.066-.133.033-.265-.033-.397-.232-3.475-.1-7.016-.893-10.425-.562-2.515.099-5.295-1.72-7.512v.033a.93.93 0 00-.694-.695l.033.033c-.232-.231-.463-.463-.695-.662-.231-.198-.43-.43-.661-.628l-.661-.662c-1.29-1.92-3.406-1.655-5.258-2.019-.232-.232-.43-.496-.662-.728 0-.232-.066-.43-.165-.629.198-3.111.364-6.254-.96-9.233.1-.463.232-.893.332-1.357 0-.43 0-.86-.033-1.29.033-.464.033-.894.066-1.357.43-1.258.893-2.548-.496-3.541.033-.132 0-.265-.1-.397-.033-.96-.496-1.787-.826-2.615 0-.893.033-1.82.033-2.713 1.389-1.721.397-4.071 1.521-5.891l-.033.033c.794-.397 1.29-1.059 1.422-1.919h-.033c.893-.364 1.322-1.059 1.389-1.986l.033.033c2.017-1.522 1.752-4.004 2.513-6.056 0 0-.033.033-.033 0 .496-.298.827-.662.794-1.257l.066.099c.727-.166 1.124-.662 1.256-1.357.926-.43 1.555-1.125 1.885-2.118.199-.232.43-.43.629-.662 1.025-.595 1.72-1.456 2.05-2.614l-.033.033a32.34 32.34 0 007.374-10.59v.033c1.488-.993 1.521-2.647 1.885-4.136.1-.1.1-.232.033-.365 1.951-3.673 1.654-5.427-1.356-8.273-.529-1.324-1.091-2.614-1.62-3.938l.198-2.085c1.092-.43 1.72-1.324 2.183-2.283 1.852-3.839 3.141-7.81 1.753-12.146v-1.985c-.1-.265-.067-.497-.034-.695z" fill="#FEFFFF" stroke="#E1E0EA" stroke-miterlimit="10"/><path d="M285.822 597.971c0-.893-.265-1.72-.727-2.482-.034-.761.033-1.522-.067-2.283-.628-4.501-1.521-8.935-4.464-12.609.033-.132 0-.231-.099-.297-.199-.232-.43-.464-.628-.728-.331-1.026-.86-1.92-1.951-2.317l-.133-.265a651.765 651.765 0 00-1.984-4.633v-.695c.033-.529-.099-.993-.562-1.357h.033c-.331-3.21-.364-6.486-1.951-9.464a.505.505 0 00-.099-.431c-.364-1.489-.761-3.011-1.918-4.136 0-.199-.033-.364-.099-.53.198-1.985.628-3.971.529-5.99.066-.43.132-.86.165-1.29.727-1.655.364-3.442.794-5.163 1.355-5.493.33-10.854-1.29-16.116-.364-1.324-.661-2.681-1.356-3.872-.033-.861.033-1.787-.132-2.615-.728-3.805-.926-7.611-.033-11.417.364-1.588.231-3.276-.133-4.898a18.547 18.547 0 01-.429-5.228c.198-3.641-.397-7.215-.794-10.822l-.099-7.28c-.099-1.953-.364-3.905-.298-5.825.132-3.309-.827-6.453-1.488-9.63-.298-1.423-1.058-2.614-2.48-3.243-1.323-2.085-3.34-3.31-5.423-4.468-.232-.198-.43-.43-.662-.629l-.033-.033c-.198-.198-.43-.397-.628-.595l-.033-.033c-.298-.464-.728-.695-1.257-.695-.496-.629-1.256-.728-1.951-.927-.264-.099-.496-.232-.761-.331-2.182-1.522-4.596-2.383-7.175-2.879-.199-.166-.364-.331-.563-.463-.264-.232-.529-.464-.76-.695l.033.033c-.099-.364-.298-.629-.695-.695l.033.033c-.066-.53-.264-.96-.76-1.258-.298-.628-.827-1.026-1.389-1.39-.198-.231-.397-.463-.562-.695h.033c-.397-1.323-1.191-2.316-2.546-2.779v.099c-.232-2.35-.397-4.732-2.679-6.222.033-.132-.033-.231-.132-.331-.761-2.184-1.257-4.5-3.241-5.99-.496-1.654-1.224-3.143-2.579-4.269.033-.132 0-.231-.1-.297-.198-.232-.429-.464-.628-.728-.727-2.085-2.612-3.244-3.902-4.898.033-.133.033-.232-.066-.364-.529-1.887-.628-3.905-1.951-5.494-.132-1.324-.893-2.316-1.753-3.21-1.025-1.688-2.116-3.276-4.233-3.706-.43-.497-.859-1.026-1.289-1.523-.1-.43-.166-.86-.298-1.29-1.488-4.17-2.381-8.274 1.356-11.881.231-.198.331-.562.463-.86.496-1.324 1.289-2.648-.199-3.872v.033a1.393 1.393 0 00-.661-.993v-.298c-1.157-5.162-.43-10.027 2.183-14.66.198-.364.297-.827.429-1.225.232-.198.43-.43.662-.628.86-.166 1.521-.596 1.918-1.39l.033-.033c1.389-1.688 2.778-3.343 4.134-5.03.959-1.159 2.414-1.788 3.273-3.144 2.679-4.302 2.844-9.068 2.745-13.9-.033-1.423-.331-2.846-1.422-3.905.033-.132 0-.264-.099-.397-.562-1.985-2.05-3.574-2.117-5.758-.033-.993-1.124-.761-1.851-.893-.067-.232-.133-.431-.199-.662 0-.629 0-1.258-.033-1.887.033-.463.066-.926.099-1.423 1.72-1.026 3.572-.86 5.357-.331 1.852.53 3.34-.066 4.862-1.026 2.447-1.522 3.24-3.905 3.736-6.519 1.257-.463 2.249-1.224 2.811-2.515l-.033.033c2.249-.728 4.464-1.621 6.845-1.919 1.985-.232 3.836-1.324 5.093-2.747 1.521-1.721 3.109-1.655 4.993-1.258 2.018.431 4.035.828 6.052 1.258l-.066-.066c.066.397.298.629.727.695l-.099.033c.265.331.496.827.827.96 4.067 1.687 7.407 5.228 12.335 4.864.562-.033 1.19.497 1.752.828 2.381 1.323 4.762 1.588 7.11-.067.529-.364 1.157-.86 1.753-.827 4.034.132 8.002-1.257 12.07-.596.165.1.331.1.496.067 1.554.893 1.389 2.415 1.389 3.871-.397.365-.562.795-.595 1.324-.695 2.714.066 4.799 2.38 5.924 1.158.563 2.415.893 3.638 1.357l.033.033c.43.86 1.124 1.489 1.918 2.019.199.827.529 1.555 1.257 2.051l-.033-.066c.033.563.264 1.026.727 1.357h-.033c.099.794.595 1.191 1.356 1.357.231.198.43.397.661.595 1.654 2.648 4.299 3.211 7.11 3.31 6.217.231 12.335.629 16.468 6.321a.52.52 0 00.265.198c3.34 1.523 4.067 4.666 4.762 7.81.297 1.39.463 2.846 1.719 3.806.034.463.232.827.629 1.092.628 1.39 1.289 2.747 1.653 4.269.463 2.052 1.257 4.203 3.274 5.063 4.299 1.854 8.499 4.038 13.095 5.163.099.099.232.132.397.099 3.373 1.754 6.581 3.872 10.152 5.262v-.033c.496.662 1.323.728 1.984 1.059 3.34 1.787 6.779 2.912 10.682 2.184 1.752-.331 3.439.066 4.96 1.192 1.025.761 2.182 1.456 3.538 1.621l-.099.033c.364.96.992 1.655 1.984 1.953l.066-.1c.066.398.298.629.695.695l-.099.033c.363.96.859 1.788 1.918 2.019l.099-.099c.033.43.297.629.694.695l-.066.033c1.158 2.052 3.406 1.886 5.192 2.35 2.513.628 4.1 1.952 4.729 4.434.297 1.158.595 2.317.959 3.475.959 2.945-.099 5.857-.166 8.803-.066.165-.099.364-.066.562-.595.828-.727 1.754-.694 2.747l.066-.033c-.364.099-.496.364-.529.728a.634.634 0 00-.132.496c-1.092 1.258-2.084 2.549-2.613 4.104h.033c-.198.232-.397.463-.628.695l-.033.033c-.463.331-.728.728-.695 1.324-.198.231-.429.43-.628.662-.397.066-.628.264-.727.628v-.033c-1.059.596-2.051 1.225-2.547 2.449-.628 1.655-1.389 3.243-2.083 4.832h.033l-.595.695-.033.033c-.463.298-.794.662-.794 1.224l.066-.033c-.397.066-.628.298-.694.695l-.066-.066c-1.753 1.522-2.58 3.475-2.514 5.758.1 2.615-.198 5.262 1.026 7.711.496.993.429 2.118.066 3.21-.364 1.059-.563 2.118-.496 3.21.165 2.151-.364 4.104-1.29 5.99-1.191 1.191-.628 2.614-.463 3.971 0 .695 0 1.357-.033 2.052-.662 1.026-1.158 2.085-1.356 3.309a.817.817 0 00-.165.497c-.695.562-1.158 1.224-1.29 2.118-2.017 1.423-1.091 3.475-1.157 5.328-.463 1.489-1.885 2.184-2.778 3.309-1.356 1.853-3.142 2.813-5.49 2.813-1.521 0-3.009.397-4.53.563-.926.099-1.687.364-2.216 1.158-.132 0-.264.033-.363.165-.232.199-.463.364-.695.563v-.033c-.992.033-1.719.496-2.282 1.291-1.058.066-2.05.43-3.009.827-.331.165-.628.364-.959.529l-.198-.033-.166.1c-.363.066-.628.231-.727.628l.033-.033c-.562 0-.992.232-1.257.761-.231.199-.43.398-.661.596-.595-.033-1.058.199-1.356.695h-.033c-.694.165-1.157.596-1.323 1.291-.231.231-.43.463-.661.728-.099.066-.132.165-.099.298-1.025.695-1.29 1.72-1.29 2.879 0 1.754-.099 3.541.463 5.228 1.058 3.144 1.025 6.255.132 9.399l.066-.066c-.529.066-.892.298-1.091.794-.297.265-.562.53-.86.794a.57.57 0 00-.529.53c-.132.099-.165.231-.198.397-1.29 1.125-1.786 2.614-1.984 4.236-.232.595-.43 1.158-.662 1.754-1.951.794-3.439 2.018-3.902 4.236a.374.374 0 00-.099.364c-.86.794-1.257 1.787-1.224 2.945-.066.298-.099.596-.165.894-1.488 1.356-1.885 3.243-2.447 5.03-.099.099-.132.231-.132.397-.199.331-.43.629-.629.96-.892 2.647-2.877 4.533-4.596 6.585-.232.232-.463.43-.695.662v-.033c-3.538 1.787-4.299 5.295-5.258 8.637-.727 1.82-1.256 3.674-1.388 5.626-.364.364-.728.695-1.092 1.059l-.132.066c-1.786.431-3.208 1.49-4.663 2.515-.595 0-1.124.166-1.521.596a.503.503 0 00-.43.099c-.628-.033-1.19.067-1.62.563h-.165l-.166.099c-1.256.298-2.116 1.125-2.711 2.218-.827 1.588-1.125 3.309-1.29 5.063a.374.374 0 00-.099.364c-.662.364-1.158.827-1.224 1.621-.099.1-.132.199-.099.331-1.488 1.026-1.984 2.615-2.249 4.236-.33 2.118-.992 3.972-2.48 5.593-.727.794-1.356 1.886-.926 3.012.893 2.25 0 4.037-1.256 5.791-1.356 1.919-1.158 3.806-.034 5.824.993 1.787 2.481 2.648 4.332 3.078l-.033-.033c1.488 2.978.86 5.262-1.587 7.645-2.381 2.316-2.612 5.857-3.373 8.968-.331 1.39.728 2.68 2.15 3.408l.066-.033c.595 1.82 2.381 2.515 3.505 3.839.033.53.198.96.562 1.324-.033 1.324.695 2.217 1.587 3.078 2.977 2.813 6.35 4.897 10.45 5.692 3.208.628 3.472 1.092 3.109 4.434-2.414 0-4.795.033-7.209.033-3.076-1.754-6.581-1.39-9.855-2.052l.033.034c-.264-2.251-.959-4.203-3.108-5.461-2.183-1.29-4.266-2.052-6.779-.761-1.224.629-2.58.331-3.737-.43-.926-.596-1.852-1.192-2.91-1.456a.9.9 0 00-.298-.397c-.463-.762-.893-1.589-1.752-1.986l-.034-.033-.628-.629-.033-.033-.628-.629-.033-.033c-.199-.232-.43-.43-.629-.662-.198-1.39-.859-2.482-1.951-3.342v.033c-.066-1.258-.165-2.482-1.389-3.21l-.033-.066c-.198-.232-.363-.464-.562-.728-.231-.431-.43-.828-.661-1.258-.199-.331-.43-.662-.628-.993.033-.132.033-.231-.034-.331.034-.959-.297-1.721-1.256-2.118l.033.033c-1.29-2.978-2.282-6.056-2.712-9.299-.165-1.29-.231-2.614-1.256-3.607.099-.099.099-.199 0-.298 0-1.191-.529-1.853-1.257-2.416zM1155.57 438.726c.36-.397.43-.893.36-1.39.56-1.291.99-2.647 1.69-3.872.79-1.324.59-3.541 2.54-3.806 2.32-.33 2.68 2.118 3.81 3.442l.03.298c.23 1.82.73 3.541 1.95 4.997 0 0 .07.265.07.298.43 2.747 1.32 5.262 3.14 7.413.56.662 1.35 1.489 1.32 2.184-.1 3.012 1.36 5.725 1.45 8.671.07 2.283.07 4.566.17 6.883.13 2.945.2 2.978 3.24 4.037.23.199.46.397.7.629.26.463.59.827 1.19.827l-.1.067c.13.794.72 1.125 1.39 1.423.16.132.29.297.46.43.33.43.63.86.96 1.29-.07 2.416 1.49 4.104 2.64 5.99 1.56 3.409 2.98 6.851 5.36 9.796.6 1.324 1.62 2.35 2.51 3.442.63 1.026 1.09 2.151 1.89 3.044 2.25 2.548 2.18 5.593 1.06 8.274-1.39 3.243-2.15 6.585-3.24 9.861-.1.298-.17.629-.27.927-.23.331-.43.695-.63 1.026-.1.099-.13.199-.06.331-1.72 2.283-2.95 4.865-3.91 7.545-1.58.894-1.35 2.615-1.85 4.005-.29.364-.56.728-.86 1.092-2.15.992-3.57 2.713-4.63 4.765l.04-.033c-1.72.827-3.34 1.82-4.43 3.442-.27.231-.5.463-.77.695-.62.231-1.09.628-1.38 1.224h.03a.943.943 0 00-.7.695l.04-.033c-.27.232-.53.43-.8.662-1.98 1.489-3.73 3.144-3.87 5.857-1.05.464-1.98 1.059-2.57 2.085l-.04.033-.66.662c-1.59 1.787-3.04 3.674-4.03 5.891h.06c-.23.231-.49.463-.72.695-.93.629-1.39 1.588-1.92 2.515-.5.132-.99.331-1.33.761v-.033c-1.19-.132-2.08.43-2.81 1.324-.36.264-.72.529-1.12.794-1.36.331-2.75.596-4.1.96-1.56.397-3.28.397-4.5 1.621-.33.199-.66.397-.96.596l-.16-.033s-.14.099-.17.099c-4.86.265-9.72-.364-14.55-.563-.2-.099-.4-.132-.59-.165-2.55-1.191-5.16-2.283-7.97-2.647-1.52-1.523-1.59-3.442-1.56-5.461.1-4.269-1.32-6.288-5.12-7.644a.471.471 0 00-.4-.199c-.83-.993-2.02-1.357-3.11-1.787-2.81-1.125-4.26-2.945-3.87-6.089.13-1.092.1-2.218-1.09-2.879 0-.166-.07-.298-.16-.431-.07-1.025.19-2.217-1.16-2.713h-.03c-2.42-1.787-5.33-2.581-7.97-3.938-.93-.695-1.89-.728-2.88-.067-2.75-.364-5.23.894-7.77 1.49-2.42.562-4.8 1.323-7.21 1.919-2.12-.033-4.3-.265-6.12 1.225a.79.79 0 00-.46.165c-2.28 1.059-4.96 1.224-6.88 3.111-.17 0-.3.066-.43.165-.26.166-.53.364-.79.53-.2.165-.4.331-.57.496-.49.166-.96.397-1.25.861-2.45 1.125-5.06 1.356-7.71 1.092-1.92-.199-3.7.099-5.49.662-2.28.761-4.59 1.456-6.88 2.184-.76.231-1.45.496-1.85 1.224v-.033c-1.35.331-2.41 1.125-3.47 2.019-.36.066-.73.099-1.09.165-1.82.1-3.51-.463-5.26-.794l.03.033c-.23-.198-.46-.43-.69-.629-.2-.231-.43-.463-.63-.695-.2-.231-.4-.43-.63-.662a.94.94 0 00-.72-.595c-.24-.232-.47-.464-.7-.695-.2-.232-.4-.463-.59-.695h.03c-.07-1.456.23-2.78 1.32-3.872.7-.662 1.62-1.125 1.95-2.118.1-.099.13-.199.1-.331 1.56-2.383 3.51-4.732 2.95-7.777-.57-3.078-.6-6.155-.47-9.2.2-4.137-.66-8.075-2.02-11.947-.72-2.118-1.25-4.434-.16-6.42 2.05-3.772 2.05-8.339 4.86-11.814.63-.761.63-1.853.56-2.879-.13-2.052.8-3.111 2.68-3.971 2.75-1.258 5.82-2.218 7.41-5.163v.033c2.71-.463 5.49-.926 7.8-2.316 2.68-1.655 5.59-2.582 8.6-2.979 5.39-.761 8.3-4.302 10.65-8.703.1-.133.13-.265.13-.431 1.29-2.448 2.65-4.798 4.53-6.817 2.65-.529 3.9-2.68 5.29-4.633a2.998 2.998 0 001.36-1.224c1.65-1.092 3.31-2.184 4.96-3.31.13.033.23 0 .3-.132 1.12-.43 2.11-1.092 3.14-1.754 3.37-2.184 5.26-2.085 8.56.265.8.562 1.66 1.026 2.52 1.522 1.09.596 2.01.596 2.77-.629 1.19-1.952 2.78-3.64 3.71-5.758l.03-.066c.76-.199 1.03-.794 1.19-1.489.4-.232.63-.596.7-1.026 1.25-.927 2.64-1.721 3.6-2.979.33-.331.63-.695.96-1.026.26-.297.53-.595.79-.893.17-.166.33-.331.53-.53.23-.264.46-.562.66-.827l-.03.033c.3-.231.6-.43.89-.662.37-.066.73-.099 1.09-.165.86.033 1.76.099 2.62.132.1.1.2.133.33.066.43.464.92.728 1.58.662l-.06.033c1.29 1.622 3.27 1.457 5.03 1.854 3.17.728 6.48.397 9.62 1.356l-.03-.033c.36 1.059.79 2.118.72 3.277-1.88 1.555-1.88 3.772-2.08 5.89l.03-.033c-2.68 3.376-2.78 6.222.1 8.637 3.31 2.747 7.11 4.832 10.85 6.884 2.25 1.257 3.5.596 4.3-1.787 1.62-5.527 3.83-11.285 5.16-17.308zM488.534 55.571a6.447 6.447 0 00-3.042.728c-2.48.1-4.96.364-7.275 1.324-.232.033-.43.066-.662.1-5.125-.133-9.689 1.157-13.194 5.195l-.033.033a3.415 3.415 0 00-1.621 1.191h-.198l-.165.1c-.596 0-1.092.165-1.488.628a.973.973 0 00-.53.133c-.529-.034-.959.165-1.322.562-4.861 1.688-9.987 1.953-15.047 2.714-3.009.43-5.092 1.688-6.15 4.567-.761.463-1.257 1.092-1.323 1.985-.463.331-.662.795-.728 1.324-.86.894-1.719 1.754-2.546 2.648-1.058.463-2.315.628-2.646 2.051-.231.331-.462.695-.727 1.026-.198.298-.43.596-.628.927-1.422 2.813-4.465 4.236-5.986 6.983-.86.297-1.521.827-1.918 1.621-2.315.331-4.034-1.059-5.952-1.92a15.855 15.855 0 01-.794-.727c-.86-2.25-2.778-2.085-4.596-1.854-1.29.166-2.514.662-3.836.398-.199-1.159-.827-2.152-1.389-3.144-.199-.331-.364-.662-.563-.96.067-.132.067-.232-.033-.331-.628-1.357-.992-2.846-1.984-4.004-.661-2.35-.661-4.733-.727-7.148-.033-1.192.264-2.416-.562-3.475-.1-.43-.199-.828-.265-1.258 0-3.938.728-7.611 3.538-10.59.232-.165.43-.364.662-.53 1.62-.628 3.174-1.356 4.993-1.588 2.58-.364 2.976-1.621 1.488-3.905-1.521-2.283-2.943-4.6-3.869-7.214.033-.794.099-1.555.133-2.35.462-.43.727-.926.694-1.588v.066c2.282-3.508 1.819-7.115-1.389-10.093h.033c-.364-1.026-1.223-1.556-2.215-1.754-4.696-1.026-9.425-2.118-14.22-1.225-3.836.695-7.341.1-10.714-1.754-.596-.827-1.191-1.688-1.786-2.515-.132-4.236-.099-4.17 3.902-5.229 2.116-.562 4.266-.43 6.382-.827.529 0 .992-.1 1.389-.463l1.951-.1h1.323c2.579.067 5.39-.231 6.978-2.184 1.322-1.621 2.777-1.92 4.464-2.283 1.058-.199 2.215 0 3.141-.761v.033c4.663-1.158 9.491-1.655 14.055-3.177 1.256-.397 2.546-.828 3.869-.728 7.01.463 13.889-2.383 20.932-.927.397.1.893-.033 1.323-.1 3.042-.529 6.118-.529 9.193-.562 2.547-.033 5.027-.397 7.441-1.224.43-.066.893-.133 1.322-.199 6.548-.86 13.129-.993 19.71-.562.959.066 1.984 0 2.943-.232 5.522-1.357 11.111-1.191 16.733-1.158 6.216.033 12.235 1.323 18.121 3.077 2.315.695 4.597 1.457 7.044 1.589 2.645.165 5.258.298 7.903.165 1.852-.099 3.737-.066 5.556.464 1.356.397 1.422 1.158.761 2.217-3.737 1.158-7.474 2.25-11.343 2.978-2.348.43-4.464 1.754-6.548 3.012-.562-.033-1.025.066-1.356.563-1.918.364-2.711 1.621-2.711 3.441 0 1.06.066 2.151.132 3.21-.033.166-.033.364-.033.53-.331.165-.595.364-.661.76l.033-.032c-.232.231-.43.463-.662.695l-.661.662c-.728.496-.761 1.224-.694 1.985l.033-.033c-.496.298-.662.794-.761 1.324-.529.463-.628 1.092-.595 1.754-.331.231-.596.53-.629.96l-.595.595c-.86.066-1.289.53-1.289 1.39-.1.133-.133.265-.1.43-.231.298-.463.596-.661.86l.033-.065c-.562.033-1.025.198-1.356.728h.033c-.595-.034-1.091.231-1.521.661-.463.067-.86.265-1.157.662-1.687 1.092-4.035.828-5.324 2.68-1.29.795-1.125 1.887-.827 3.178.595 2.581.827 5.196-.992 7.512-.099.132-.166.265-.166.43-1.289.662-2.612 1.192-4.001 1.456-2.414.43-4.596 1.39-6.68 2.648-.364.198-.694.397-1.058.629-.628.033-1.157.231-1.62.695a.5.5 0 00-.43.099c-.695-.166-1.257-.033-1.687.397zM1137.61 400.371c-.23-.232-.46-.43-.7-.662-1.25-1.357-2.87-1.39-4.56-1.224l-.1-.1c-.36-.86-1.09-1.191-1.92-1.357-1.72-1.323-3.47-1.853-5.39-.463-1.09.794-2.08.331-3.07-.265-.27-1.059-.56-2.118-1.36-2.945v-.232c0-.595-.26-1.092-.76-1.456-.16-.231-.33-.43-.49-.662-.1-.198-.17-.397-.27-.628.03-.431.07-.861.1-1.291.56-2.614.3-3.309-1.98-4.732-.63-1.192-2.12-.993-2.95-1.853-.46-.464-.92-.993-.76-1.688.17-.761.83-.894 1.52-.927 1.33-.033 2.58-.232 3.44-1.423h.04c2.44-.728 4.92-1.357 7.3.066 2.32 1.39 4.04 3.21 4.2 6.189.04.761.7 1.588 1.26 2.25 1.29 1.522 1.69 1.489 3.8.099.9-.132 1.56-.595 2.09-1.29.2 0 .39-.066.56-.133.96-.132 1.92-.397 2.61-1.092 1.95-1.853 4.17-1.919 6.55-1.158.26.099.53.232.83.331.1.165.23.265.39.232.5.132 1 .297 1.49.43 1.19.827 2.58 1.158 3.97 1.456.1.099.2.099.3 0 .53.596 1.15 1.026 1.91 1.158 3.28.53 6.16 2.118 9.2 3.243 1.02.364 1.98.927 3.14.728.33.033.66.067.96.1.33.264.66.496.99.761.2.198.4.364.56.562 2.62 2.251 5.23 4.501 7.84 6.751l.03-.099c-.03.596.3.993.8 1.291h-.04c.93 2.846 3.41 3.475 5.86 4.103l.1-.165-.1.132c1.42 2.085 1.82 4.369 1.45 6.818-.3 2.051.4 3.838 1.29 5.625.73 1.456 2.18 1.225 3.31 1.754.49.232.92.563 1.39.861.16.231.33.463.53.695.26.231.53.463.79.695h-.07c.33 1.158 1.1 1.985 2.05 2.614v-.033c.1.364.3.629.67.728l-.04-.066c.23.298.47.562.66.86-.03.166 0 .298.1.43-.03.662-.1 1.291-.13 1.953l.1-.033c-1.52.198-3.08.298-4.6.066-1.05-1.456-2.54-1.986-4.3-1.919-1.42.033-2.84-.067-4.26-.1v.033c-.23-.165-.46-.364-.7-.529-.13-.132-.26-.166-.43-.199-.36-.529-.95-.595-1.52-.728-.03-.496-.23-.893-.62-1.191-1.23-2.019-1.59-4.666-4.04-5.891l-.03-.033c-.47-2.184-2.61-2.151-4.07-2.912-1.72-.927-2.38-.496-3.9 1.555h.03c-.4.067-.59.298-.69.695l-.04-.033c-1.32.728-1.42 2.184-1.98 3.343-.2.198-.4.43-.6.629-3.27 1.125-6.58 1.29-9.85-.034v.067c-.07-.398-.3-.596-.69-.695h.03c-3.21-3.409-5.03-3.806-9.36-1.953h-2.45c-1.02-1.092-.92-2.349-.33-3.574.66-1.39 1.06-2.813.93-4.368v-.298c.82-1.82.99-3.541-.7-4.997h.04c-.5-1.456-.93-2.912-2.75-3.21-.1-.099-.23-.133-.39-.133-.63-.661-1.39-.728-2.22-.529zM1033.74 393.686c-1.42-1.986-3.54-2.085-5.69-1.986-.3-.231-.59-.43-.89-.661l.03.033c-.23-.331-.43-.662-.66-.993l.07-.265c.03-2.283-.8-4.302-2.09-6.122-1.38-1.953-2.15-4.071-2.08-6.453.03-1.324-.33-2.582-.56-3.905-.63-3.31 1.19-6.785 4.3-7.976 2.08-.794 3.9-1.952 5.52-3.442l.07-.033c1.91-.529 3.77-1.125 5.19-2.614l.1-.066c2.54-.927 3.97-2.946 5.16-5.196.13-.132.19-.298.23-.496 1.22-.53 2.44-1.026 3.27-2.118.99-.298 1.85-.728 2.15-1.82l-.1-.067c.43-.033.66-.264.7-.695 0 0 .1.1.06.1 2.15-.894 2.88-2.946 3.94-4.733.16-.231.33-.496.53-.728.66-.496 1.05-1.191 1.42-1.919l-.07.033c.63.033 1.26.033 1.89.066l-.07-.099c-.03.629.3 1.026.79 1.357.17.198.37.397.53.628.67 1.92 2.29 2.846 3.94 3.773 4.96 2.747 5.12 3.839 1.26 8.042-.14.165-.33.298-.5.43-2.02 1.588-2.25 3.74-1.55 5.99.82 2.714 1.62 5.527 2.91 8.042.82 1.621.23 2.415-.67 3.441-.19.199-.43.397-.62.629-1.86 1.324-3.31 2.879-3.18 5.394-.26.431-.53.861-.79 1.258-1.09.364-2.22.695-2.71 1.952-1.39.398-1.39 1.49-1.39 2.615 0 1.423.13 2.879-.1 4.236-.5 2.78-1.13 5.593-4.5 6.42-1.29.232-2.55.43-3.84.662-.33-.464-.82-.629-1.35-.629l-.03-.033c-3.28-2.217-6.78-3.012-10.62-2.052zM963.105 349.374v-.265c1.025-.43 2.05-.364 3.142-.132 2.414.496 4.861.827 7.275 1.224l-.033-.066c.066.397.363.596.727.662h-.066c.298.629.728 1.059 1.356 1.324h-.033c.628 2.482 2.579 3.673 4.63 4.765.396.397.826.794 1.223 1.191.232.662.628 1.225 1.389 1.39l.033-.099c.066.397.298.629.694.695l-.099.033c.529 1.291 1.29 2.284 2.745 2.615v-.034c.694 1.291 1.819 2.185 2.877 3.144 4.398 4.005 9.623 6.983 13.655 11.418h-.03c.89 2.448 1.79 4.897 2.74 7.313.37.894.73 1.887 1.96 1.92 1.28 1.423 2.18 3.044 2.11 5.03-.03.993-.13 1.985-.16 2.945-.04 2.482-.43 5.063 1.32 7.248h-.03c.76 2.415 2.81 3.408 4.96 3.706 1.88.265 3.53.894 5.25 1.589 2.42.959 4.9 1.224 7.11-.662.43-.033.86-.1 1.29-.133 1.39.828 2.98.662 4.5.894l.07-.066c2.21 1.919 4.86.893 7.34 1.026.2.099.4.198.59.231.24.232.47.463.73.695h-.06c.43 1.754 1.65 2.747 3.24 3.409l.06-.033c1.32 1.125 3.21 1.522 4.07 3.177-.13.728-.23 1.456-.73 2.051-3.14-.066-6.38.927-9.46-.529-.26-.132-.76.265-1.15.397-1.29.066-2.62.132-3.91.199h-.66c-.43-.033-.82-.067-1.25-.133-1.03-.761-2.25-.629-3.41-.662l-.16-.066-.17.033c-.33-.165-.63-.331-.96-.496a.916.916 0 00-.49-.133c-.27-.165-.53-.33-.8-.496-3.14-2.118-6.74-2.118-10.32-2.184-1.22-.96-2.71-1.191-4.2-1.324v.033c-.29-.529-.86-.595-1.35-.761a.923.923 0 00-.13-.496c-.43-.794-1.19-.695-1.92-.662l-.2-.099h-.23c-.27-.166-.56-.331-.83-.464-.13-.099-.3-.198-.49-.198-1.26-1.854-3.25-3.012-4.77-4.633v.033c0-.596-.26-.993-.72-1.324-.17-.232-.33-.463-.5-.662-.13-.529-.36-.96-.83-1.224l-.03-.067-.595-.694h.033c-.066-.365-.298-.596-.662-.695l.034.033c-.067-.364-.298-.596-.695-.695l.033.033c-.099-.364-.331-.596-.694-.662l.033.033c-.232-.199-.463-.397-.695-.629h-.033c-.463-.695-1.157-1.125-1.918-1.489-1.091-2.118-2.546-4.004-4.1-5.758-.199-.629-.562-1.125-1.191-1.357-.231-.199-.463-.43-.694-.629h-.033c-.298-.595-.728-1.026-1.29-1.357a5.729 5.729 0 00-1.323-2.647c0-.728-.165-1.423-.727-1.953-.066-.926-.496-1.621-1.224-2.184-.364-.695-1.323-.959-1.455-1.82.033-.529-.231-.927-.628-1.257l-.298-.695c-.132-.497-.463-.762-.959-.795l.033.066c0-.562-.231-1.025-.727-1.323h.033c-.066-.927-.496-1.589-1.323-1.986v.033c-.298-1.886-.959-3.64-2.083-5.195-.166-.265-.364-.53-.529-.762-.232-.728-.662-1.158-1.455-1.158-.166-.099-.331-.132-.496-.165-.265-.232-.53-.464-.761-.695-.132-.232-.231-.464-.364-.662-.562-2.581-1.455-4.898-4.332-5.725-.231-.662-.661-1.125-1.223-1.489-.199-.729-.563-1.291-1.422-1.324-.232-.199-.43-.397-.662-.596-.066-.364-.297-.596-.628-.728-.231-.199-.43-.43-.661-.629-.232-.264-.43-.496-.662-.761-.496-1.026-.661-2.085-.694-3.21.066-.298.099-.529.132-.761zM769.222 457.92c-.099.099-.132.199-.066.298-.826.86-.694 1.919-.562 2.978a.97.97 0 00-.033.53c-.76 1.489-1.091 3.078-1.356 4.699h.033c-.496.331-.628.828-.661 1.39a617.374 617.374 0 01-2.712 7.049c-1.091 1.456-1.455 3.111-1.719 4.865a1.37 1.37 0 00-.166.629c-1.355 1.787-2.017 3.805-2.116 6.056l.033.198c-1.488 2.383-2.05 5.13-3.108 7.678a.808.808 0 00-.166.496c-.43.397-.562.927-.628 1.523-1.025 1.059-2.348 1.555-3.704 1.853-1.058.231-2.116.463-2.91 1.324-1.951.364-3.439-1.126-5.258-1.258-1.157-1.324-2.711-2.383-3.108-4.17-.595-2.78-1.422-5.493-1.587-8.372-.166-3.078.463-5.659 2.347-8.274 2.117-2.912 3.44-6.188 2.514-10.159-.893-3.806-1.158-7.844 1.356-11.385.231-.331.231-.827.33-1.257.099-.133.166-.265.166-.397 2.711-1.523 6.018-1.655 8.597-3.508v.033c.86-.166 1.522-.629 1.985-1.357.529-.232.859-.629.793-1.257h-.066c.463-.034.628-.298.694-.695l-.066.033c.397-.066.629-.331.794-.695.198-.199.364-.397.562-.563.529-.331.794-.794.761-1.39v.066c1.984-2.746 3.637-5.725 5.225-8.703.099-.099.099-.199.066-.331 2.348-1.986 2.711-1.953 3.902.728.926 2.118 1.885 4.203 2.116 6.552.099.96.298 1.953 1.058 2.681.033 1.82.033 3.673.067 5.494-.728.992-1.356 2.051-1.422 3.342v-.033c-1.158.529-1.224 1.621-1.323 2.647l.099.033c-.496 0-.694.265-.761.629zM1110.2 215.048c-.14.199-.27.397-.4.596-.23.264-.43.529-.66.761v-.033c-2.55.43-5.13.827-7.67 1.324-4.54.86-6.19 2.614-6.88 7.313l-.6.695c-.63.265-1.02.728-1.39 1.291-.23.066-.43.099-.66.165-.2-.066-.4-.066-.63-.033-.59-.496-1.19-.993-1.75-1.489-.3-.232-.59-.43-.89-.662h.03c-.23-.232-.46-.43-.69-.662l.03.033c-.23-.264-.46-.496-.66-.761-.13-.198-.3-.43-.43-.629-.3-.662-.73-1.191-1.46-1.39h.04c-1.03-2.548-1.95-5.063-.8-7.843.7-.496.8-1.191.8-1.952.19-.364.39-.761.59-1.125.23-.298.43-.563.66-.861l-.03.033c.36-.099.56-.364.66-.695v.033c.46-.297.73-.728.76-1.323l-.1.033c.3-.232.56-.464.86-.695.17-.166.33-.298.5-.464.53-.165 1.02-.33 1.32-.86v.033c1.62-.926 3.27-1.456 5.19-1.489 2.48-.066 4.7-1.125 6.12-3.243a42.997 42.997 0 014.66-5.725h.04c1.91-.927 4.03-1.622 4.43-4.17 0-.43-.04-.861-.04-1.258.07-2.118-.23-4.103-1.85-5.626v-.297c.07-.795.04-1.556-.69-2.085-.86-1.754-1.32-3.707-2.75-5.13l-.03-.066c-.16-1.191-.59-2.25-1.88-2.681l-.04-.033-.63-.628-.03-.033c-.23-.199-.46-.398-.66-.596l-.3-.099c-.23-.695-.43-1.423-1.02-1.887-.3-2.25 1.15-4.335.69-6.618 0-.563-.13-1.059-.63-1.39l.04.033c0-.596-.24-1.092-.67-1.489a.677.677 0 00-.03-.464c0-.463.03-.926.03-1.357.07-.132.1-.264.07-.397 1.65-1.754 3.41-.496 5.13-.165v-.033c.72.794 1.68 1.059 2.68 1.323 2.91 1.787 5.88 3.475 9.49 3.21 1.42-.099 2.15.894 3.01 1.721-.07.133-.04.232.06.331.07.894.6 1.556 1.19 2.118.76.695.89 1.589.93 2.548-.1.133-.17.265-.17.398-.69.264-1.22.695-1.35 1.489l.06-.033c-.53.066-.96.298-1.29.728h-.03c-.36.066-.6.264-.73.629v-.067c-1.06.265-1.82.861-2.01 1.986l.03-.033c-2.51.761-3.31 2.383-2.08 4.798.72 1.423 1.85 2.648 2.81 3.938.03.53.26.96.62 1.324.04.563.2 1.059.67 1.456a.66.66 0 00.09.497c-.19 1.026.1 1.985.7 2.78 1.82 2.515 2.12 5.427 2.41 8.372.2 1.853.04 3.707.27 5.56.23 2.184-.43 3.839-2.18 5.096-.2-.033-.37 0-.53.1-2.02.066-3.81.959-5.56 1.853-.33.066-.69.099-1.02.165-1.76-.066-2.29 1.192-2.75 2.515h.03c-.62.265-.86.762-1.05 1.291zM1230.43 573.747c.17-.199.33-.364.5-.563.46-.364.79-.794.73-1.456 0 0-.07.1-.07.067.6.033.99-.298 1.29-.795l-.03.033c1.25-.397 2.54-.695 3.83-.893 1.46-.232 3.15-.265 4.1-1.754 1.13-.199 2.02-.662 2.05-1.986l-.06.033c.46-.099.99-.165 1.02-.794.1-.43.17-.86.27-1.29.13-.133.2-.331.2-.53l-.04.033c1.26-.761 2.95-.728 3.81-2.151.76-.066 1.29-.397 1.45-1.191 2.48-2.251 3.8-5.031 3.84-8.373.03-2.085 0-4.17-.3-6.222-.33-2.184-.03-4.169 2.25-5.294l-.03-.034c.46.431.92.861 1.35 1.324.17.232.33.463.5.662.33 1.059 1.06 1.688 2.08 2.019l-.03-.033c.1 2.316.73 4.533 1.22 6.817.53 2.35 1.65 3.541 4.23 3.739 3.44.265 3.81 1.192 2.32 4.534-.17.166-.33.298-.5.464-1.62.827-3.4 1.522-4 3.541-.2 0-.36.066-.53.132-.53-.033-.96.198-1.29.596l-.03.033c-.83.198-1.59.562-2.18 1.224-.37.43-.73.861-1.09 1.291-.6-.033-1.03.265-1.33.761-.43.232-.69.596-.79 1.092-.23.298-.43.563-.66.86l.03-.033c-.36.1-.59.331-.69.695l.03-.033c-.26.232-.53.464-.76.662-1.06.695-2.12 1.423-3.18 2.118-.23.166-.46.364-.69.53v-.034c-1.03.133-2.02.364-2.68 1.258v-.033c-1.72.496-3.44.993-5.19 1.456-2.84.066-4.23 2.35-6.12 3.905-.49.099-.89.397-1.16.827-.23.199-.49.364-.72.563-.2.165-.43.331-.63.496-.23.265-.46.53-.66.828v-.066c-.86.165-1.56.529-1.99 1.356h.04a.93.93 0 00-.7.695l-.03-.066c-.76.132-1.16.629-1.32 1.357h.03c-2.61 1.125-5.26 2.25-7.87 3.375-.43.232-.89.431-1.32.662-1.59.133-3.11.431-4.01 1.986-.23.165-.46.331-.69.529-1.19.331-2.12 1.059-2.84 2.052-2.58 1.953-5.69 2.912-8.34 4.7-3.14.397-6.15-.927-9.26-.695h.04c-.33-.464-.8-.662-1.33-.695h.07c.03-.629.03-1.225.07-1.854.16-.198.36-.43.53-.628.46-.331.76-.762.76-1.357l.03.099c2.71-1.39 5.65-2.449 7.77-4.799h.03c.37-.066.66-.198.73-.595l-.03.066c.76.033 1.42-.199 1.95-.794.89-.1 1.55-.563 2.02-1.324l-.04.033c2.98-1.092 5.89-2.416 8.96-3.177 1.39-.331 2.75-.86 3.64-2.085v.033c1.49-.099 2.45-.992 3.34-2.051.83-.398 1.39-1.093 1.99-1.787 1.95-1.49 3.7-3.244 6.11-4.071zM570.743 127.748c-.198.198-.397.364-.595.562-.364.133-.595.364-.661.761-.397.067-.562.298-.496.695-.033.431-.066.894-.066 1.324-.232.232-.463.43-.695.662l-.033.033c-.331.066-.595.265-.694.629v-.033c-1.422.165-2.778.463-3.936 1.39-1.19 0-2.381-.067-3.571.033-2.249.165-4.597-.166-6.614 1.224h-.198l-.166.099c-.892.067-1.62.464-2.05 1.258h.033c-.76-.033-1.422.232-2.017.695-.562 0-1.157 0-1.72-.033-.264-.232-.562-.497-.826-.728a.996.996 0 00-.166-.53c.529-3.144 2.282-5.99 2.249-9.266.694-.794.397-1.754.43-2.68.132-.199.165-.397.165-.629l-.033.033c.629-.53 1.257-1.026 1.885-1.555.728-.1 1.455-.166 2.183-.265.198.066.397 0 .496-.199 1.653-1.257 1.653-1.555.099-3.408l.033-.033c-.265-2.019-1.852-2.284-3.439-2.582-1.191-1.257-2.348-2.581-3.638-3.772-1.025-.993-1.422-2.118-1.554-3.508-.298-3.012-.331-5.891 2.282-8.108.463-.397.661-1.125.992-1.688l-.033.033c.397-.132.826-.364 1.223-.397 3.307-.397 6.779-1.357 8.664 2.78.199.463.761.728 1.158 1.125 0 .132.033.265.132.364-.595 4.435.628 8.406 3.208 12.013l-.033.033c.33 1.357 1.455 1.721 2.579 2.085v-.066c.198.728.463 1.456.595 2.217.529 2.482 1.356 4.534 4.266 5.13 1.554.297 1.852 1.687 1.786 3.11-.165.199-.364.397-.529.596-.232.099-.463.364-.695.596zM1069.26 403.614c-1.13.265-2.29.397-3.41 0-.5-1.555.07-3.045.26-4.534.3-2.184.53-4.269-1.78-5.89-1.62-1.126-1.75-3.111-.56-4.7 2.05-2.78 2.25-6.188 2.81-9.299.43-2.283.79-4.468 1.72-6.586.43-.43.86-.827 1.25-1.257.53-.166 1.26-.132 1.52-.497 1.59-2.018 3.41-1.687 5.59-1.125 2.09.563 4.3.629 6.49.828 2.08.198 3.63-.464 4.26-2.648.1-.099.1-.198.03-.298.37-.231.63-.529.7-.959l.06.165c2.39.364 2.75.728 2.45 2.614-.13.828-.43 1.622-.66 2.449-2.65 2.416-5.46 4.7-5.65 8.704a1.11 1.11 0 00-.3.496c-.23.232-.46.497-.66.728v-.033c-.96.265-1.92.563-2.58 1.357l-.04.033c-1.12.596-1.35 1.622-1.42 2.747-.1 1.886.23 3.64.7 5.494.92 3.541 2.68 6.982 1.75 10.821-.13 0-.27.033-.36.133-1.23.099-2.19-.298-3.25-1.059-3-2.251-5.88-1.986-7.87.397-.06.331-.13.628-.19.959-.3.331-.57.629-.86.96zM493.627 65.665c.397-.332.793-.696 1.19-1.026 1.753-.364 3.373-1.159 5.225-1.026h.033c1.422.827 2.943 1.356 4.63 1.323 3.174-.033 6.316-.264 9.424-.893 3.043-.596 6.052-.596 9.061.231v-.032c.232.231.463.496.695.727.198.2.364.398.562.596.264.232.496.463.76.662h-.033c.298.463.695.794 1.29.794l-.132.033c.066.596.165 1.192.231 1.787 0 .365-.033.762-.033 1.126-.496.165-.992.33-1.256.827l-.033.033c-.199.199-.43.397-.629.629l-.033.033c-.496.066-.926.298-1.289.662h-.034c-.595-.033-1.091.165-1.521.562-2.447.364-4.861.795-7.043 2.085-1.092.033-2.117.199-2.712 1.258v-.033c-1.753.662-3.571 1.257-5.456.595-2.977-1.025-6.019-1.025-9.094-1.191-.1-.1-.199-.132-.331-.1-.529-1.19-1.058-2.382-1.521-3.573-.43-1.026-.794-2.052-2.05-2.317v.033c-.232-.231-.463-.43-.695-.662-.231-.231-.43-.463-.661-.662 0-.397.033-.794.033-1.19.562-.233 1.058-.696 1.422-1.291zM1077.42 314.394c-.56-.496-.79-1.357-1.68-1.423-.2-.364-.5-.595-.93-.662l.03.034c-.09-.365-.33-.563-.69-.629h-.03c-.53-.629-1.23-.993-1.99-.993-1.91 0-3.57-.894-5.29-1.522-.06-.133-.16-.199-.33-.199-.4-1.059-1.16-1.754-2.21-2.085a.793.793 0 00-.27-.43c-.99-2.052-2.35-3.938-2.51-6.387-.27-3.905.63-7.645 1.49-11.384.23-1.059.96-1.688 1.85-2.217.89 0 1.78 0 2.68.033 1.09.066 2.18.165 3.27.231.46.397.89.761 1.36 1.159 2.15 3.739 1.78 7.479-.07 11.218-1.95 1.787-.96 3.872-.53 5.858.33 1.489 1.22 2.316 2.91 1.787.53-.166 1.09-.166 1.62-.265.33.033.66.033.99.066.86.761 1.86 1.225 2.98 1.258.1.099.2.132.33.066.43.53 1.03.629 1.65.563.14.066.24.099.37.033.3.231.59.463.89.662l-.1-.034c.13 1.953.27 3.905-.03 5.891-.2 0-.37.066-.53.132-1.69-.297-3.47-.529-5.23-.761zM249.744 282.492l-.298.033c-1.389.033-2.678-.331-4.001-.629-.232-.165-.463-.364-.695-.529a1.199 1.199 0 00-.562-.232c-1.223-.959-2.48-.364-3.703-.099-1.125.265-2.514.265-2.613-1.092-.165-2.879-2.182-3.773-4.266-4.732l-.033.066c-.099-.364-.364-.563-.727-.629h-.033c-.662-.463-1.29-.893-1.951-1.357a12.492 12.492 0 01-.662-.695h.033c-.595-1.125-1.587-1.423-2.744-1.423-1.654-.761-3.373-.695-5.126-.496-1.819-1.953-4.001-1.555-6.217-.96-1.753.563-3.472 1.225-5.258 1.721-2.381.662-2.513.463-1.852-2.118.463-.298.761-.728.761-1.291l-.099.034c.33-.232.628-.464.959-.662.462-.033.793-.298 1.025-.662.297-.232.595-.43.893-.662.363-.232.694-.43 1.058-.662.86-.132 1.785-.066 2.579-.364 3.042-1.158 6.184-1.191 9.359-.993.165.066.33.1.496.066.859.728 1.951.993 2.943 1.423 3.042 1.258 6.184 2.251 8.994 3.939v-.034c.232.695.761 1.059 1.389 1.357.298.563.695.96 1.29 1.225.298.496.728.794 1.356.794l-.066.033a26.547 26.547 0 007.969 4.567v-.033c.463.761 1.224 1.125 2.017 1.39.232.496.43.993.629 1.489-.232.331-.43.662-.662.96l-.033-.067c-.826.166-1.554.662-2.149 1.324z" fill="#FEFFFF" stroke="#E1E0EA" stroke-miterlimit="10"/><path d="M529.11 129.138c-.166-.232-.331-.497-.496-.729-.53-1.29-.629-2.415.297-3.673 1.158-1.522 1.687-3.276 1.058-5.229-.231-.695-.066-1.522-.099-2.283l-.033.066c2.183-.695 4.597-1.059 6.118-2.879 1.686-1.986 3.77-2.052 5.985-1.919 3.836.231 4.928 1.423 4.994 5.361-.562.298-1.059.728-1.356 1.29-.893.133-1.257.695-1.356 1.523-.165 1.29-.364 2.548-.562 3.838-.099.133-.132.265-.099.398-.463.397-.596.959-.662 1.522-.198.232-.397.43-.595.662-1.356.132-2.811-.298-4.034.662-1.125.132-2.084.661-2.977 1.29-1.587 1.159-3.339 1.655-5.291 1.324a22.535 22.535 0 00-.892-1.224zM255.465 283.617c.033-.132.033-.231-.033-.33-.033-.431-.298-.695-.695-.762h.066a.924.924 0 00-.198-.595c0-.96.298-1.721 1.356-1.953 2.348.828 4.729 1.158 7.176.331l1.554.099c.595.133 1.224.265 1.819.398l-.033-.1c.033.43.297.662.694.695l-.066.066c1.62 1.754 3.968 1.821 6.019 2.615h-.033c.463.794 1.256 1.092 1.984 1.522 0 1.357-.066 2.813-1.819 2.945-5.06.364-9.855 2.747-15.046 1.92-1.918-.828-3.969-.993-5.986-1.291-1.488-.231-2.48-.794-2.083-2.548l-.033.033c1.752-.232 3.472-.463 5.225-.695.562-.066 1.124-.198 1.223-.86.066-.828-.397-1.258-1.091-1.49z" fill="#FEFFFF" stroke="#E1E0EA" stroke-miterlimit="10"/><circle cx="78.5" cy="220.5" r="4.271" fill="#FF9B05"/><circle opacity=".1" cx="78.5" cy="220.5" r="11.5" fill="#FF9B05"/><circle cx="586.5" cy="121.5" r="4.271" fill="#FF9B05"/><circle opacity=".1" cx="586.5" cy="121.5" r="11.5" fill="#FF9B05"/><circle cx="900.5" cy="312.5" r="3.9" fill="#FF9B05"/><circle opacity=".1" cx="900.5" cy="312.5" r="10.5" fill="#FF9B05"/><circle cx="1179.5" cy="521.5" r="5.014" fill="#FF9B05"/><circle opacity=".1" cx="1179.5" cy="521.5" r="13.5" fill="#FF9B05"/></svg>