<svg width="181" height="147" fill="none" xmlns="http://www.w3.org/2000/svg"><path d="M53.86 20v-6.703h6.68v-2.754h-6.68V5.961h7.347V3.09H50.519V20h3.34zM70.441 4.438c1.313 0 2.203-.81 2.203-2.028 0-1.219-.89-2.027-2.203-2.027-1.312 0-2.191.808-2.191 2.027s.879 2.027 2.191 2.027zM75.961 20v-2.555h-3.902V7.075h-7.055V9.64h3.937v7.804h-4.148V20h11.168zM79.336 20h3.2v-7.465c0-1.793 1.066-2.93 2.706-2.93 1.63 0 2.39.903 2.39 2.801V20h3.212v-8.355c0-3.153-1.5-4.84-4.313-4.84-1.863 0-3.258.879-3.89 2.437h-.2V7.074h-3.105V20zM98.496 20.2c1.899 0 3.176-.856 3.621-2.427h.246V20h3.305V2.152h-3.352v7.125h-.234c-.434-1.547-1.723-2.414-3.586-2.414-2.953 0-4.71 2.04-4.71 5.555v2.227c0 3.515 1.757 5.554 4.71 5.554zm1.242-2.778c-1.664 0-2.683-1.09-2.683-2.871v-2.133c0-1.781 1.02-2.86 2.683-2.86 1.653 0 2.66 1.079 2.66 2.86v2.133c0 1.781-1.007 2.87-2.66 2.87zM125.777 24.664c3.164 0 4.676-1.172 5.789-4.5l4.454-13.09h-3.399l-2.859 9.973h-.2l-2.859-9.973h-3.539l4.547 13.02-.129.492c-.305 1.02-1.02 1.465-2.32 1.465-.176 0-.633-.012-.715-.035v2.625c.094.011.68.023 1.23.023zM144.434 20.281c3.644 0 5.941-2.215 5.941-5.742v-1.992c0-3.527-2.297-5.742-5.941-5.742-3.645 0-5.942 2.215-5.942 5.742v1.992c0 3.527 2.297 5.742 5.942 5.742zm0-10.851c1.722 0 2.789 1.242 2.789 3.246v1.734c0 1.992-1.067 3.246-2.789 3.246-1.723 0-2.789-1.254-2.789-3.246v-1.734c0-2.004 1.066-3.246 2.789-3.246zM165.023 7.074h-3.199v7.477c0 1.781-1.066 2.918-2.707 2.918-1.629 0-2.39-.903-2.39-2.801V7.074h-3.211v8.367c0 3.153 1.5 4.84 4.312 4.84 1.863 0 3.258-.89 3.891-2.449h.199V20h3.105V7.074zM173.859 14.27c0-2.778 1.489-4.16 4.536-4.16.726 0 1.57.152 2.156.374v-3.48c-.457-.176-1.113-.27-1.84-.27-2.438 0-3.762 1.09-4.324 3.657h-.504V7.074h-5.789v2.367h2.695v8.204h-2.461V20h9.281v-2.355h-3.75V14.27zM61.266 40.586c-.305-3.164-2.25-4.828-5.59-4.828-3.809 0-5.918 2.156-5.918 6.082v1.36c0 3.925 2.11 6.081 5.918 6.081 3.34 0 5.308-1.64 5.59-4.722h-3.141c-.223 1.382-1.066 2.05-2.473 2.05-1.722 0-2.672-1.289-2.672-3.656v-.867c0-2.367.95-3.656 2.672-3.656 1.395 0 2.262.703 2.473 2.156h3.14zM68.508 49.21c1.687 0 3.047-.714 3.68-1.933h.28V49h3.048v-8.766c0-2.824-1.864-4.406-5.18-4.406-3.07 0-5.192 1.512-5.426 3.856h3.117c.27-.809 1.102-1.301 2.215-1.301 1.324 0 2.098.656 2.098 1.781v1.031l-3.024.188c-3.187.222-4.886 1.594-4.886 3.926s1.64 3.902 4.078 3.902zm1.101-2.566c-1.242 0-2.015-.609-2.015-1.57 0-.996.762-1.57 2.262-1.664l2.484-.152v.937c0 1.442-1.137 2.45-2.73 2.45zM90.797 49v-2.555H86.94V31.152H79.84v2.555h3.89v12.738H79.63V49h11.168zM105.633 49v-2.555h-3.856V31.152h-7.101v2.555h3.89v12.738h-4.101V49h11.168zM114.949 33.438c1.313 0 2.203-.81 2.203-2.028 0-1.219-.89-2.027-2.203-2.027-1.312 0-2.191.808-2.191 2.027s.879 2.027 2.191 2.027zM120.469 49v-2.555h-3.903v-10.37h-7.054v2.566h3.937v7.804h-4.148V49h11.168zM123.844 49h3.199v-7.465c0-1.793 1.066-2.93 2.707-2.93 1.629 0 2.391.903 2.391 2.801V49h3.211v-8.355c0-3.153-1.5-4.84-4.313-4.84-1.863 0-3.258.879-3.891 2.437h-.199v-2.168h-3.105V49zM144.07 53.863c3.774 0 6.106-1.863 6.106-4.875V36.074h-3.153v2.203h-.234c-.422-1.465-1.863-2.414-3.738-2.414-3.094 0-4.91 2.028-4.91 5.555v1.957c0 3.492 1.781 5.555 4.757 5.555 1.922 0 3.422-.973 3.821-2.426h.246v2.543c0 1.617-.985 2.46-2.848 2.46-1.418 0-2.449-.526-2.672-1.359h-3.129c.211 2.297 2.403 3.715 5.754 3.715zm-2.648-10.582v-1.863c0-1.746 1.066-2.86 2.742-2.86 1.688 0 2.754 1.102 2.754 2.86v1.863c0 1.758-1.066 2.86-2.754 2.86-1.676 0-2.742-1.102-2.742-2.86z" fill="#000"/><path fill-rule="evenodd" clip-rule="evenodd" d="M75.423 73c-6.805 23.254-26.974 56.268-72.207 65.551l3.72-5.389a1 1 0 10-1.645-1.136l-5.114 7.406a1 1 0 00.255 1.391l7.406 5.114a1.001 1.001 0 001.136-1.646l-5.447-3.762C50.097 131.013 70.687 96.842 77.5 73h-2.078z" fill="#000"/></svg>