<?xml version="1.0" encoding="UTF-8"?>
<svg width="131px" height="46px" viewBox="0 0 131 46" version="1.1" xmlns="http://www.w3.org/2000/svg" xmlns:xlink="http://www.w3.org/1999/xlink">
    <!-- Generator: Sketch 52.3 (67297) - http://www.bohemiancoding.com/sketch -->
    <title>Group 14</title>
    <desc>Created with Sketch.</desc>
    <g id="Revamp" stroke="none" stroke-width="1" fill="none" fill-rule="evenodd">
        <g id="careers-final" transform="translate(-737.000000, -235.000000)" fill="#FFFFFF" fill-rule="nonzero">
            <g id="Group-14" transform="translate(737.000000, 235.000000)">
                <path d="M2.08287135,9.49308452 C1.81054829,9.5388531 1.55268407,9.35519441 1.50691548,9.08287135 C1.4611469,8.81054829 1.64480559,8.55268407 1.91712865,8.50691548 C81.4910387,-4.86685091 124.433121,7.21060982 130.493665,44.920661 C130.537483,45.1933047 130.351983,45.4498474 130.079339,45.4936652 C129.806695,45.5374829 129.550153,45.3519828 129.506335,45.079339 C123.566879,8.12272351 81.175628,-3.79981576 2.08287135,9.49308452 Z" id="Path-9"></path>
                <path d="M1.37628835,9.3292523 C1.19444732,9.53707062 0.878566012,9.55812937 0.670747696,9.37628835 C0.46292938,9.19444732 0.441870626,8.87856601 0.623711653,8.6707477 L7.62371165,0.670747696 C7.80555268,0.46292938 8.12143399,0.441870626 8.3292523,0.623711653 C8.53707062,0.805552679 8.55812937,1.12143399 8.37628835,1.3292523 L1.37628835,9.3292523 Z" id="Path-10"></path>
                <path d="M0.73500053,9.42399915 C0.500832264,9.27764399 0.429645682,8.9691688 0.576000848,8.73500053 C0.722356014,8.50083226 1.0308312,8.42964568 1.26499947,8.57600085 L9.26499947,13.5760008 C9.49916774,13.722356 9.57035432,14.0308312 9.42399915,14.2649995 C9.27764399,14.4991677 8.9691688,14.5703543 8.73500053,14.4239992 L0.73500053,9.42399915 Z" id="Path-11"></path>
            </g>
        </g>
    </g>
</svg>