<svg xmlns="http://www.w3.org/2000/svg" xmlns:xlink="http://www.w3.org/1999/xlink" viewBox="0 0 1440 768"><defs><style>.a{fill:none;}.b{isolation:isolate;}.c{fill:#fce8e5;}.d{clip-path:url(#a);}.e{clip-path:url(#b);}.f{clip-path:url(#c);}.g{clip-path:url(#d);}.h{clip-path:url(#e);}.i{fill:#bad3e7;}.i,.j{mix-blend-mode:multiply;}.j{fill:#efdbcf;}.k{fill:#fff;}.l{fill:#e9c17a;}</style><clipPath id="a"><rect class="a" x="0.08" y="-0.3" width="1440" height="620"/></clipPath><clipPath id="b"><rect class="a" width="1440" height="4039"/></clipPath><clipPath id="c"><rect class="a" x="-5" y="-6" width="1451" height="631"/></clipPath><clipPath id="d"><rect class="a" width="1440" height="620"/></clipPath><clipPath id="e"><polygon class="a" points="0.72 35 0 735.06 1440 735.06 1440 35 0.72 35"/></clipPath></defs><title>acquisation-banner</title><g class="b"><rect class="c" width="1440" height="768"/><g class="d"><g class="e"><g class="b"><g class="f"><g class="g"><rect class="c" x="-4.92" y="-5.3" width="1450" height="630"/></g></g></g></g></g><g class="h"><rect class="i" x="1223.28" y="437.71" width="120.65" height="120.65" transform="translate(728.12 -761.78) rotate(45)"/><rect class="j" x="1298.71" y="383.1" width="182.95" height="182.95" transform="translate(742.75 -844.01) rotate(45)"/><polygon class="k" points="1468.12 632.38 1361.66 632.38 1361.66 270.18 1362.66 270.18 1362.66 631.38 1468.12 631.38 1468.12 632.38"/><polygon class="k" points="1468.12 611.38 1375.5 611.38 1375.5 271.52 1376.5 271.52 1376.5 610.38 1468.12 610.38 1468.12 611.38"/><polygon class="k" points="1468.12 590.38 1389.35 590.38 1389.35 271.52 1390.35 271.52 1390.35 589.38 1468.12 589.38 1468.12 590.38"/><polygon class="k" points="1468.12 569.38 1403.19 569.38 1403.19 271.52 1404.19 271.52 1404.19 568.38 1468.12 568.38 1468.12 569.38"/><polygon class="k" points="1468.12 548.38 1417.03 548.38 1417.03 271.52 1418.03 271.52 1418.03 547.38 1468.12 547.38 1468.12 548.38"/><rect class="l" x="52.74" y="421.87" width="130.47" height="130.47" rx="62.13" transform="translate(545.83 748.13) rotate(135)"/><rect class="l" x="-41.67" y="211.33" width="93.41" height="93.41" transform="translate(191.06 436.93) rotate(135)"/><rect class="i" x="-113.88" y="323.44" width="244.06" height="244.06" rx="116.23" transform="translate(328.92 754.7) rotate(135)"/><rect class="l" x="1388.92" y="204.51" width="131.35" height="131.35" transform="translate(2292.09 1489.78) rotate(-135)"/><circle class="k" cx="55.23" cy="548.67" r="1.66"/><circle class="k" cx="55.23" cy="534.64" r="1.66"/><circle class="k" cx="55.23" cy="520.61" r="1.66"/><circle class="k" cx="55.23" cy="506.58" r="1.66"/><circle class="k" cx="55.23" cy="492.56" r="1.66"/><circle class="k" cx="55.23" cy="478.53" r="1.66"/><circle class="k" cx="55.23" cy="464.5" r="1.66"/><circle class="k" cx="55.23" cy="450.47" r="1.66"/><circle class="k" cx="55.23" cy="436.44" r="1.66"/><circle class="k" cx="55.23" cy="422.41" r="1.66"/><circle class="k" cx="55.23" cy="408.39" r="1.66"/><circle class="k" cx="55.23" cy="394.36" r="1.66"/><circle class="k" cx="55.23" cy="380.33" r="1.66"/><circle class="k" cx="55.23" cy="366.3" r="1.66"/><circle class="k" cx="55.23" cy="352.27" r="1.66"/><circle class="k" cx="70.9" cy="548.67" r="1.66"/><circle class="k" cx="70.9" cy="534.64" r="1.66"/><circle class="k" cx="70.9" cy="520.61" r="1.66"/><circle class="k" cx="70.9" cy="506.58" r="1.66"/><circle class="k" cx="70.9" cy="492.56" r="1.66"/><circle class="k" cx="70.9" cy="478.53" r="1.66"/><circle class="k" cx="70.9" cy="464.5" r="1.66"/><circle class="k" cx="70.9" cy="450.47" r="1.66"/><circle class="k" cx="70.9" cy="436.44" r="1.66"/><circle class="k" cx="70.9" cy="422.41" r="1.66"/><circle class="k" cx="70.9" cy="408.39" r="1.66"/><circle class="k" cx="70.9" cy="394.36" r="1.66"/><circle class="k" cx="70.9" cy="380.33" r="1.66"/><circle class="k" cx="70.9" cy="366.3" r="1.66"/><circle class="k" cx="70.9" cy="352.27" r="1.66"/><circle class="k" cx="86.57" cy="548.67" r="1.66"/><circle class="k" cx="86.57" cy="534.64" r="1.66"/><circle class="k" cx="86.57" cy="520.61" r="1.66"/><circle class="k" cx="86.57" cy="506.58" r="1.66"/><circle class="k" cx="86.57" cy="492.56" r="1.66"/><circle class="k" cx="86.57" cy="478.53" r="1.66"/><circle class="k" cx="86.57" cy="464.5" r="1.66"/><circle class="k" cx="86.57" cy="450.47" r="1.66"/><circle class="k" cx="86.57" cy="436.44" r="1.66"/><circle class="k" cx="86.57" cy="422.41" r="1.66"/><circle class="k" cx="86.57" cy="408.39" r="1.66"/><circle class="k" cx="86.57" cy="394.36" r="1.66"/><circle class="k" cx="86.57" cy="380.33" r="1.66"/><circle class="k" cx="86.57" cy="366.3" r="1.66"/><circle class="k" cx="86.57" cy="352.27" r="1.66"/><circle class="k" cx="102.24" cy="548.67" r="1.66"/><circle class="k" cx="102.24" cy="534.64" r="1.66"/><circle class="k" cx="102.24" cy="520.61" r="1.66"/><circle class="k" cx="102.24" cy="506.58" r="1.66"/><circle class="k" cx="102.24" cy="492.56" r="1.66"/><circle class="k" cx="102.24" cy="478.53" r="1.66"/><circle class="k" cx="102.24" cy="464.5" r="1.66"/><circle class="k" cx="102.24" cy="450.47" r="1.66"/><circle class="k" cx="102.24" cy="436.44" r="1.66"/><circle class="k" cx="102.24" cy="422.41" r="1.66"/><circle class="k" cx="102.24" cy="408.39" r="1.66"/><circle class="k" cx="102.24" cy="394.36" r="1.66"/><circle class="k" cx="102.24" cy="380.33" r="1.66"/><circle class="k" cx="102.24" cy="366.3" r="1.66"/><circle class="k" cx="102.24" cy="352.27" r="1.66"/><rect class="k" x="-200.17" y="237.15" width="244.06" height="244.06" transform="translate(120.6 668.42) rotate(135)"/><circle class="l" cx="1308.78" cy="364.15" r="1.55"/><circle class="l" cx="1308.78" cy="351.05" r="1.55"/><circle class="l" cx="1308.78" cy="337.95" r="1.55"/><circle class="l" cx="1308.78" cy="324.84" r="1.55"/><circle class="l" cx="1308.78" cy="311.74" r="1.55"/><circle class="l" cx="1308.78" cy="298.63" r="1.55"/><circle class="l" cx="1323.42" cy="364.15" r="1.55"/><circle class="l" cx="1323.42" cy="351.05" r="1.55"/><circle class="l" cx="1323.42" cy="337.95" r="1.55"/><circle class="l" cx="1323.42" cy="324.84" r="1.55"/><circle class="l" cx="1323.42" cy="311.74" r="1.55"/><circle class="l" cx="1323.42" cy="298.63" r="1.55"/><circle class="l" cx="1338.06" cy="364.15" r="1.55"/><circle class="l" cx="1338.06" cy="351.05" r="1.55"/><circle class="l" cx="1338.06" cy="337.95" r="1.55"/><circle class="l" cx="1338.06" cy="324.84" r="1.55"/><circle class="l" cx="1338.06" cy="311.74" r="1.55"/><circle class="l" cx="1338.06" cy="298.63" r="1.55"/><circle class="l" cx="1352.7" cy="364.15" r="1.55"/><circle class="l" cx="1352.7" cy="351.05" r="1.55"/><circle class="l" cx="1352.7" cy="337.95" r="1.55"/><circle class="l" cx="1352.7" cy="324.84" r="1.55"/><circle class="l" cx="1352.7" cy="311.74" r="1.55"/><circle class="l" cx="1352.7" cy="298.63" r="1.55"/></g></g></svg>