<?xml version="1.0" encoding="UTF-8"?>
<svg width="108px" height="24px" viewBox="0 0 108 24" version="1.1" xmlns="http://www.w3.org/2000/svg" xmlns:xlink="http://www.w3.org/1999/xlink">
    <!-- Generator: Sketch 59.1 (86144) - https://sketch.com -->
    <title>Doodle</title>
    <desc>Created with Sketch.</desc>
    <g id="Page-1" stroke="none" stroke-width="1" fill="none" fill-rule="evenodd">
        <g id="Desktop-HD-Copy-10" transform="translate(-1059.000000, -4252.000000)" fill="#00001E" fill-rule="nonzero">
            <g id="Doodle" transform="translate(1059.000000, 4252.000000)">
                <path d="M35.1684518,15.5158243 C35.1684518,13.0824227 34.1017221,10.9299268 31.5,10.9299268 C28.8982779,10.9299268 27.8317458,13.0824227 27.8317458,15.5158243 C27.8317458,17.9177738 28.8982779,20.0700732 31.5,20.0700732 C34.1017221,20.0700732 35.1684518,17.9177738 35.1684518,15.5158243 M22,15.5158243 C22,10.1190551 26.1074727,7 31.5,7 C36.8925273,7 41,10.1190551 41,15.5158243 C41,20.8809449 36.8925273,24 31.5,24 C26.1074727,24 22,20.8809449 22,15.5158243" id="Shape"></path>
                <path d="M55.1682092,15.5158243 C55.1682092,13.0824227 54.1022255,10.9299268 51.5003952,10.9299268 C48.8977745,10.9299268 47.8319884,13.0824227 47.8319884,15.5158243 C47.8319884,17.9177738 48.8977745,20.0700732 51.5003952,20.0700732 C54.1022255,20.0700732 55.1682092,17.9177738 55.1682092,15.5158243 M42,15.5158243 C42,10.1190551 46.1076435,7 51.5003952,7 C56.8931468,7 61,10.1190551 61,15.5158243 C61,20.8809449 56.8931468,24 51.5003952,24 C46.1076435,24 42,20.8809449 42,15.5158243" id="Shape"></path>
                <path d="M5.85615079,6.34954857 L8.12242063,6.34954857 C12.4045635,6.34954857 14.9553571,8.61827375 14.9553571,12.9996027 C14.9553571,17.3809317 12.4045635,19.6496569 8.12242063,19.6496569 L5.85615079,19.6496569 L5.85615079,6.34954857 Z M21,12.905056 C21,4.39505237 15.6474206,2 7.99543651,2 L0,2 L0,24 L7.99543651,24 C15.6474206,24 21,21.604749 21,13.0941495 C21,13.0615746 20.9984127,13.0313832 20.9984127,12.9994041 C20.9984127,12.9674251 21,12.9374323 21,12.9048573 L21,12.905056 Z" id="Shape"></path>
                <rect id="Rectangle" x="82" y="0" width="5" height="23"></rect>
                <path d="M70.4999012,20.0328807 C67.8982062,20.0328807 66.8316851,17.8597774 66.8316851,15.4346107 C66.8316851,12.9776881 67.8982062,10.8043863 70.4999012,10.8043863 C73.1015962,10.8043863 74.1675246,12.9776881 74.1675246,15.4346107 C74.167327,17.8597774 73.1015962,20.0328807 70.4999012,20.0328807 L70.4999012,20.0328807 Z M74.3566058,0.0007939002 L74.3566058,7.4473793 C73.1873447,7.04507038 71.8868923,6.8356792 70.4999012,6.8356792 C65.1074299,6.8356792 61,9.98488282 61,15.4338168 C61,20.8507964 65.1074299,24 70.4999012,24 C71.8868923,24 73.3578537,23.4107276 74.3566058,22.7789815 L74.3566058,23.6225005 L80,23.6225005 L80,0 L74.3566058,0 L74.3566058,0.0007939002 Z" id="Shape"></path>
                <path d="M95.6133001,13.9532498 C96.001539,12.2324326 97.0919669,10.9301234 99.1141684,10.9301234 C101.135382,10.9301234 102.227588,12.2324326 102.615037,13.9532498 L95.6133001,13.9532498 L95.6133001,13.9532498 Z M101.57914,7.37486847 C100.747143,7.13367098 99.8086518,7 98.7498362,7 C98.7097281,7 98.6696199,7.0023589 98.6287215,7.0023589 C98.5854521,7.0023589 98.542973,7 98.4991109,7 C93.1074299,7 89,10.1190551 89,15.5158243 C89,20.8809449 93.1074299,24 98.4991109,24 C98.6688296,24 98.836375,23.9976411 99.0023397,23.9915473 C99.1683045,23.9976411 99.3358498,24 99.5031976,24 C101.604035,24 103.673852,23.6890184 105.492352,22.9711266 L105.492352,19.0085684 C103.799116,19.9132064 102.043249,20.2564263 100.506692,20.2564263 C99.7843498,20.2564263 99.1353091,20.1943086 98.5625331,20.0659451 C96.9441793,19.7026746 95.9406853,18.7943016 95.7093225,17.1365849 L107.863474,17.1365849 C107.902792,16.906199 107.935195,16.6728646 107.958311,16.4332397 C107.985379,16.135232 108,15.8289682 108,15.5148414 C107.999605,11.2055249 105.380128,8.35027347 101.57914,7.37368902 L101.57914,7.37486847 Z" id="Shape"></path>
            </g>
        </g>
    </g>
</svg>