<?xml version="1.0" encoding="UTF-8"?>
<svg width="150px" height="23px" viewBox="0 0 150 23" version="1.1" xmlns="http://www.w3.org/2000/svg" xmlns:xlink="http://www.w3.org/1999/xlink">
    <!-- Generator: Sketch 59.1 (86144) - https://sketch.com -->
    <title>Logo-livestorm</title>
    <desc>Created with Sketch.</desc>
    <g id="Page-1" stroke="none" stroke-width="1" fill="none" fill-rule="evenodd">
        <g id="Desktop-HD-Copy-10" transform="translate(-867.000000, -4313.000000)" fill="#00001E" fill-rule="nonzero">
            <g id="Logo-livestorm" transform="translate(867.000000, 4313.000000)">
                <path d="M34,1 L34,19.0755208 C34,21.5104167 35.373558,22.9427083 37.8059002,22.9427083 C38.6357581,22.9427083 39.2939213,22.7994792 39.8376213,22.5703125 L39.8376213,19.734375 C39.6373108,19.8203125 39.3797687,19.8776042 38.9791476,19.8776042 C38.0348265,19.8776042 37.5197423,19.4192708 37.5197423,18.1588542 L37.5197423,1 L34,1 L34,1 Z M42.1437174,22.7135417 L45.6634597,22.7135417 L45.6634597,6.7578125 L42.1437174,6.7578125 L42.1437174,22.7135417 Z M51.2603718,6.7578125 L47.4258558,6.7578125 L52.8628561,22.7135417 L56.840451,22.7135417 L62.0199092,6.7578125 L58.4429353,6.7578125 L56.0105931,15.09375 C55.4955088,16.984375 55.2093509,18.1302083 54.9804246,19.3619792 L54.8659614,19.3619792 C54.6084193,18.1015625 54.3222614,16.984375 53.7785614,15.09375 L51.2603718,6.7578125 L51.2603718,6.7578125 Z M73.9981426,18.7890625 C73.3685952,19.390625 72.1095004,20.1354167 70.4211687,20.1354167 C67.5309738,20.1354167 66.2146475,18.703125 66.1001843,15.6666667 L75.858169,15.6666667 C76.001248,14.5208333 76.0298637,13.6614583 76.0298637,12.859375 C76.0298637,8.9921875 73.797832,6.47135417 69.8488529,6.47135417 C65.6423316,6.47135417 62.6376736,9.27864583 62.6376736,14.6927083 C62.6376736,20.3359375 65.1558632,23 70.0205476,23 C72.7676636,23 74.3701479,22.2552083 75.5433953,21.3385417 L73.9981426,18.7890625 L73.9981426,18.7890625 Z M69.7057739,9.22135417 C71.7088793,9.22135417 72.6532004,10.3671875 72.6818162,12.4583333 L72.6818162,13.203125 L66.1574159,13.203125 C66.271879,10.5963542 67.7312844,9.22135417 69.7057739,9.22135417 L69.7057739,9.22135417 Z M85.7760655,18.359375 C85.7760655,19.3333333 85.0606707,20.1354167 83.4009548,20.1354167 C81.5123126,20.1354167 79.9670599,19.1328125 79.1658178,18.2447917 L77.0482492,20.7369792 C77.9639546,21.6822917 80.0242915,23 83.2292601,23 C87.5502445,23 89.2958078,20.3072917 89.2958078,18.1588542 C89.2958078,12.8020833 81.5695442,13.8619792 81.5695442,11.0260417 C81.5695442,10.0807292 82.3135548,9.36458333 83.7443443,9.36458333 C85.1179023,9.36458333 86.2625339,10.0807292 86.9206971,10.796875 L89.1813446,8.50520833 C88.1511761,7.359375 86.3483813,6.47135417 83.8301917,6.47135417 C80.1959862,6.47135417 78.0784177,8.734375 78.0784177,11.2265625 C78.0784177,16.5833333 85.7760655,15.5520833 85.7760655,18.359375 L85.7760655,18.359375 Z M96.6668988,22.8567708 C99.0420095,22.8567708 100.215257,22.3411458 100.787573,21.96875 L99.8432516,19.2760417 C99.2995516,19.6770833 98.4983095,19.9348958 97.5826042,19.9348958 C96.4093567,19.9348958 95.6653462,19.3046875 95.6653462,17.9296875 L95.6653462,9.47916667 L99.8146358,9.47916667 L99.8146358,6.7578125 L95.6653462,6.7578125 L95.6653462,2.66145833 L93.3760829,2.66145833 L92.2028355,6.55729167 L90.0280353,7.2734375 L90.0280353,9.47916667 L92.2028355,9.47916667 L92.2028355,17.9296875 C92.2028355,21.4817708 93.9770145,22.8567708 96.6668988,22.8567708 L96.6668988,22.8567708 Z M105.010927,14.6354167 C105.010927,11.0260417 105.955248,9.30729167 108.301743,9.30729167 C110.819932,9.30729167 111.821485,11.1692708 111.821485,14.8359375 C111.821485,18.4166667 110.991627,20.1640625 108.473438,20.1640625 C105.983864,20.1640625 105.010927,18.2734375 105.010927,14.6354167 L105.010927,14.6354167 Z M108.330359,23 C113.423969,23 115.427075,19.5911458 115.427075,14.6640625 C115.427075,9.73697917 113.738743,6.47135417 108.473438,6.47135417 C103.351211,6.47135417 101.376721,9.88020833 101.376721,14.8072917 C101.376721,19.7057292 103.093669,23 108.330359,23 L108.330359,23 Z M127.061919,6.5859375 C126.718529,6.5 126.174829,6.44270833 125.631129,6.44270833 C123.628024,6.44270833 122.197234,7.47395833 121.539071,8.87760417 L121.424608,8.87760417 L120.680597,6.7578125 L117.962097,6.7578125 L117.962097,22.7135417 L121.453224,22.7135417 L121.453224,11.5130208 C122.311697,10.4817708 123.828334,9.9375 125.259124,9.9375 C125.83144,9.9375 126.489603,9.99479167 127.061919,10.109375 L127.061919,6.5859375 L127.061919,6.5859375 Z M140.41371,8.70572917 L140.299247,8.70572917 C139.726931,7.4453125 138.639531,6.4140625 136.235805,6.4140625 C134.318547,6.4140625 132.830525,7.2734375 132.057899,8.33333333 L131.943436,8.33333333 L131.313889,6.7578125 L128.480925,6.7578125 L128.480925,22.7135417 L132.000668,22.7135417 L132.000668,11.65625 C132.372673,10.4817708 133.488689,9.421875 134.890862,9.421875 C136.579194,9.421875 137.466284,10.5104167 137.466284,12.6302083 L137.466284,22.7135417 L141.014642,22.7135417 L141.014642,11.5416667 C141.443879,10.3671875 142.617126,9.421875 144.0193,9.421875 C145.450089,9.421875 146.480258,10.28125 146.480258,12.34375 L146.480258,22.7135417 L150,22.7135417 L150,11.7135417 C150,8.1328125 148.225821,6.4140625 145.1067,6.4140625 C142.760205,6.4140625 141.157721,7.50260417 140.41371,8.70572917 Z" id="Shape"></path>
                <path d="M42,2.06622517 C42,3.15231788 42.8741722,4 43.9602649,4 C45.1523179,4 46,3.15231788 46,2.06622517 C46,0.874172185 45.1523179,0 43.9602649,0 C42.8741722,0 42,0.874172185 42,2.06622517 Z" id="Path"></path>
                <path d="M4.26470588,13.5 C4.26470588,12.5611159 5.02981651,11.8 5.97480739,11.8 L23.0251926,11.8 C23.9696556,11.8 24.7352941,12.5630264 24.7352941,13.5 C24.7352941,14.4388841 23.9701835,15.2 23.0251926,15.2 L5.97480739,15.2 C5.03034439,15.2 4.26470588,14.4369736 4.26470588,13.5 Z M8.52941176,20.3 C8.52941176,19.3611159 9.2945513,18.6 10.233946,18.6 L18.766054,18.6 C19.7074423,18.6 20.4705882,19.3630264 20.4705882,20.3 C20.4705882,21.2388841 19.7054487,22 18.766054,22 L10.233946,22 C9.29255773,22 8.52941176,21.2369736 8.52941176,20.3 Z M0,6.7 C0,5.76111593 0.760773334,5 1.70581446,5 L27.2941855,5 C28.2362809,5 29,5.76302639 29,6.7 C29,7.63888408 28.2392267,8.4 27.2941855,8.4 L1.70581446,8.4 C0.76371915,8.4 0,7.63697362 0,6.7 Z" id="Shape" opacity="0.4"></path>
                <path d="M4.31034483,13.5 C4.31034483,12.5611159 5.07838397,11.8 6.03226026,11.8 L18.9677397,11.8 C19.9187274,11.8 20.6896552,12.5630264 20.6896552,13.5 C20.6896552,14.4388841 19.921616,15.2 18.9677397,15.2 L6.03226026,15.2 C5.08127263,15.2 4.31034483,14.4369736 4.31034483,13.5 Z M8.62068966,20.3 C8.62068966,19.3611159 9.39298086,18.6 10.3425791,18.6 L14.6574209,18.6 C15.6083942,18.6 16.3793103,19.3630264 16.3793103,20.3 C16.3793103,21.2388841 15.6070191,22 14.6574209,22 L10.3425791,22 C9.39160582,22 8.62068966,21.2369736 8.62068966,20.3 Z M0,6.7 C0,5.76111593 0.775614379,5 1.72821492,5 L23.2717851,5 C24.2262518,5 25,5.76302639 25,6.7 C25,7.63888408 24.2243856,8.4 23.2717851,8.4 L1.72821492,8.4 C0.773748177,8.4 0,7.63697362 0,6.7 Z" id="Shape"></path>
            </g>
        </g>
    </g>
</svg>