<?xml version="1.0" encoding="UTF-8"?>
<svg width="90px" height="90px" viewBox="0 0 90 90" version="1.1" xmlns="http://www.w3.org/2000/svg" xmlns:xlink="http://www.w3.org/1999/xlink">
    <!-- Generator: Sketch 52.4 (67378) - http://www.bohemiancoding.com/sketch -->
    <title>Group 12</title>
    <desc>Created with Sketch.</desc>
    <defs>
        <polygon id="path-1" points="0.0002 0.0005 90 0.0005 90 90 0.0002 90"></polygon>
    </defs>
    <g id="Page-1" stroke="none" stroke-width="1" fill="none" fill-rule="evenodd">
        <g id="Group-12">
            <g id="Group-3">
                <mask id="mask-2" fill="white">
                    <use xlink:href="#path-1"></use>
                </mask>
                <g id="Clip-2"></g>
                <path d="M90.0002,45.0005 C90.0002,69.8535 69.8532,90.0005 45.0002,90.0005 C20.1462,90.0005 0.0002,69.8535 0.0002,45.0005 C0.0002,20.1465 20.1462,0.0005 45.0002,0.0005 C69.8532,0.0005 90.0002,20.1465 90.0002,45.0005" id="Fill-1" fill="#F5EAFF" mask="url(#mask-2)"></path>
            </g>
            <path d="M36.5813,34.9594 L35.2443,34.9594 L25.3313,34.9594 L25.3313,63.1664 C25.3313,63.7284 25.5593,64.2354 25.9273,64.6034 C26.0183,64.6944 26.1193,64.7784 26.2273,64.8514 C26.4433,64.9974 26.6893,65.1034 26.9533,65.1574 C27.0863,65.1844 27.2233,65.1984 27.3633,65.1984 L35.2443,65.1984 L58.6953,65.1984 L56.8693,58.8784 L32.3533,58.8784 C31.9163,58.8784 31.5613,58.6334 31.5613,58.3294 L31.5613,40.2904 C31.5613,39.9874 31.9163,39.7424 32.3533,39.7424 L36.5813,39.7424 L57.6853,39.7424 C58.1223,39.7424 58.4773,39.9874 58.4773,40.2904 L58.4773,53.9484 L58.4773,57.4234 L64.7063,59.2234 L64.7063,53.9484 L64.7063,34.9594 L36.5813,34.9594 Z" id="Fill-4" fill="#B65EFF"></path>
            <path d="M37.9387,32.0659 C37.3177,32.0659 36.8137,31.5619 36.8137,30.9409 C36.8137,30.3199 37.3177,29.8159 37.9387,29.8159 C38.5597,29.8159 39.0637,30.3199 39.0637,30.9409 C39.0637,31.5619 38.5597,32.0659 37.9387,32.0659 Z M34.1197,32.0659 C33.4977,32.0659 32.9947,31.5619 32.9947,30.9409 C32.9947,30.3199 33.4977,29.8159 34.1197,29.8159 C34.7407,29.8159 35.2447,30.3199 35.2447,30.9409 C35.2447,31.5619 34.7407,32.0659 34.1197,32.0659 Z M30.1197,32.0659 C29.4987,32.0659 28.9947,31.5619 28.9947,30.9409 C28.9947,30.3199 29.4987,29.8159 30.1197,29.8159 C30.7407,29.8159 31.2447,30.3199 31.2447,30.9409 C31.2447,31.5619 30.7407,32.0659 30.1197,32.0659 Z M64.7067,27.8549 C64.7067,26.7329 63.7967,25.8239 62.6747,25.8239 L36.5817,25.8239 L27.3637,25.8239 C26.2417,25.8239 25.3317,26.7329 25.3317,27.8549 L25.3317,34.9599 L35.2447,34.9599 L36.5817,34.9599 L64.7067,34.9599 L64.7067,27.8549 Z" id="Fill-6" fill="#410092"></path>
            <path d="M40.3889,50.8003 C40.2289,50.8003 40.0999,50.8513 40.0999,50.9133 L40.0999,53.9483 L40.0999,54.6193 C40.0999,54.6823 40.2289,54.7323 40.3889,54.7323 L49.6499,54.7323 C49.8089,54.7323 49.9389,54.6823 49.9389,54.6193 L49.9389,53.9483 L49.9389,50.9133 C49.9389,50.8513 49.8089,50.8003 49.6499,50.8003 L40.3889,50.8003 Z" id="Fill-8" fill="#410092"></path>
            <path d="M66.6233,64.8198 L65.9773,64.1738 C65.7483,63.9448 65.8273,63.5548 66.1283,63.4338 L66.9563,63.0978 L68.5043,62.4718 C69.5223,62.0598 69.4473,60.5918 68.3923,60.2878 L66.9563,59.8738 L64.7063,59.2228 L58.4773,57.4238 L58.2793,57.3668 C57.4043,57.1138 56.5943,57.9238 56.8473,58.7988 L56.8693,58.8788 L58.6953,65.1988 L59.3463,67.4488 L59.7683,68.9118 C60.0733,69.9668 61.5403,70.0428 61.9523,69.0238 L62.5903,67.4488 L62.9303,66.6068 C63.0523,66.3058 63.4403,66.2268 63.6703,66.4568 L64.3283,67.1148 L67.5613,70.3478 C68.1943,70.9818 69.2233,70.9818 69.8563,70.3478 C70.4903,69.7148 70.4903,68.6868 69.8563,68.0528 L66.6233,64.8198 Z" id="Fill-10" fill="#410092"></path>
        </g>
    </g>
</svg>