<?xml version="1.0" encoding="UTF-8"?>
<svg width="36px" height="36px" viewBox="0 0 36 36" version="1.1" xmlns="http://www.w3.org/2000/svg" xmlns:xlink="http://www.w3.org/1999/xlink">
    <!-- Generator: Sketch 53.2 (72643) - https://sketchapp.com -->
    <title>insighta</title>
    <desc>Created with Sketch.</desc>
    <g id="Page-4" stroke="none" stroke-width="1" fill="none" fill-rule="evenodd">
        <g id="iteration-1-copy-8" transform="translate(-1053.000000, -1154.000000)" fill="#FF6E33">
            <g id="insighta" transform="translate(1053.000000, 1154.000000)">
                <path d="M2.72009302,2.09302326 C2.37432558,2.09302326 2.09302326,2.37432558 2.09302326,2.72009302 L2.09302326,32.8613023 C2.09302326,33.2070698 2.37432558,33.4883721 2.72009302,33.4883721 L32.8613023,33.4883721 C33.2070698,33.4883721 33.4883721,33.2070698 33.4883721,32.8613023 L33.4883721,2.72009302 C33.4883721,2.37432558 33.2070698,2.09302326 32.8613023,2.09302326 L2.72009302,2.09302326 Z M32.8613023,35.5813953 L2.72009302,35.5813953 C1.21981395,35.5813953 0,34.3615814 0,32.8613023 L0,2.72009302 C0,1.21981395 1.21981395,0 2.72009302,0 L32.8613023,0 C34.3615814,0 35.5813953,1.21981395 35.5813953,2.72009302 L35.5813953,32.8613023 C35.5813953,34.3615814 34.3615814,35.5813953 32.8613023,35.5813953 L32.8613023,35.5813953 Z" id="Fill-1"></path>
                <path d="M9,28.4651163 C8.42232558,28.4651163 7.95348837,27.9962791 7.95348837,27.4186047 L7.95348837,17.372093 C7.95348837,16.7944186 8.42232558,16.3255814 9,16.3255814 C9.57767442,16.3255814 10.0465116,16.7944186 10.0465116,17.372093 L10.0465116,27.4186047 C10.0465116,27.9962791 9.57767442,28.4651163 9,28.4651163" id="Fill-3"></path>
                <path d="M14.8604651,28.4651163 C14.2827907,28.4651163 13.8139535,27.9962791 13.8139535,27.4186047 L13.8139535,13.1860465 C13.8139535,12.6083721 14.2827907,12.1395349 14.8604651,12.1395349 C15.4381395,12.1395349 15.9069767,12.6083721 15.9069767,13.1860465 L15.9069767,27.4186047 C15.9069767,27.9962791 15.4381395,28.4651163 14.8604651,28.4651163" id="Fill-5"></path>
                <path d="M20.7209302,28.4651163 C20.1432558,28.4651163 19.6744186,27.9962791 19.6744186,27.4186047 L19.6744186,8.1627907 C19.6744186,7.58511628 20.1432558,7.11627907 20.7209302,7.11627907 C21.2986047,7.11627907 21.7674419,7.58511628 21.7674419,8.1627907 L21.7674419,27.4186047 C21.7674419,27.9962791 21.2986047,28.4651163 20.7209302,28.4651163" id="Fill-7"></path>
                <path d="M26.5813953,28.4651163 C26.0037209,28.4651163 25.5348837,27.9962791 25.5348837,27.4186047 L25.5348837,15.6976744 C25.5348837,15.12 26.0037209,14.6511628 26.5813953,14.6511628 C27.1590698,14.6511628 27.627907,15.12 27.627907,15.6976744 L27.627907,27.4186047 C27.627907,27.9962791 27.1590698,28.4651163 26.5813953,28.4651163" id="Fill-9"></path>
            </g>
        </g>
    </g>
</svg>