<?xml version="1.0" encoding="UTF-8"?>
<svg width="39px" height="30px" viewBox="0 0 39 30" version="1.1" xmlns="http://www.w3.org/2000/svg" xmlns:xlink="http://www.w3.org/1999/xlink">
    <!-- Generator: Sketch 53.2 (72643) - https://sketchapp.com -->
    <title>recs</title>
    <desc>Created with Sketch.</desc>
    <defs>
        <polygon id="path-1" points="0 29.5454545 38.6363636 29.5454545 38.6363636 0 0 0"></polygon>
    </defs>
    <g id="Page-4" stroke="none" stroke-width="1" fill="none" fill-rule="evenodd">
        <g id="iteration-1-copy-8" transform="translate(-467.000000, -1160.000000)">
            <g id="recs" transform="translate(467.000000, 1160.000000)">
                <path d="M2.95454545,2.27272727 C2.57909091,2.27272727 2.27272727,2.57818182 2.27272727,2.95363636 L2.27272727,26.5918182 C2.27272727,26.9672727 2.57909091,27.2727273 2.95454545,27.2727273 L35.6827273,27.2727273 C36.0581818,27.2727273 36.3636364,26.9672727 36.3636364,26.5918182 L36.3636364,2.95363636 C36.3636364,2.57818182 36.0581818,2.27272727 35.6827273,2.27272727 L2.95454545,2.27272727 Z M35.6827273,29.5454545 L2.95454545,29.5454545 C1.32545455,29.5454545 0,28.2209091 0,26.5918182 L0,2.95363636 C0,1.32454545 1.32545455,0 2.95454545,0 L35.6827273,0 C37.3118182,0 38.6363636,1.32454545 38.6363636,2.95363636 L38.6363636,26.5918182 C38.6363636,28.2209091 37.3118182,29.5454545 35.6827273,29.5454545 L35.6827273,29.5454545 Z" id="Fill-1" fill="#00BC19"></path>
                <mask id="mask-2" fill="white">
                    <use xlink:href="#path-1"></use>
                </mask>
                <g id="Clip-4"></g>
                <polygon id="Fill-3" fill="#00BC19" mask="url(#mask-2)" points="1.13636364 10.4272727 37.5 10.4272727 37.5 8.15454545 1.13636364 8.15454545"></polygon>
                <path d="M31.6015455,21.8882727 L27.4833636,21.8882727 C26.8551818,21.8882727 26.347,21.3791818 26.347,20.7519091 C26.347,20.1246364 26.8551818,19.6155455 27.4833636,19.6155455 L31.6015455,19.6155455 C32.2288182,19.6155455 32.7379091,20.1246364 32.7379091,20.7519091 C32.7379091,21.3791818 32.2288182,21.8882727 31.6015455,21.8882727" id="Fill-5" fill="#00BC19" mask="url(#mask-2)"></path>
                <path d="M19.3350909,21.8882727 L6.77145455,21.8882727 C6.14327273,21.8882727 5.63509091,21.3791818 5.63509091,20.7519091 C5.63509091,20.1246364 6.14327273,19.6155455 6.77145455,19.6155455 L19.3350909,19.6155455 C19.9623636,19.6155455 20.4714545,20.1246364 20.4714545,20.7519091 C20.4714545,21.3791818 19.9623636,21.8882727 19.3350909,21.8882727" id="Fill-6" fill="#00BC19" mask="url(#mask-2)"></path>
            </g>
        </g>
    </g>
</svg>