<?xml version="1.0" encoding="UTF-8"?>
<svg width="90px" height="90px" viewBox="0 0 90 90" version="1.1" xmlns="http://www.w3.org/2000/svg" xmlns:xlink="http://www.w3.org/1999/xlink">
    <!-- Generator: Sketch 52.4 (67378) - http://www.bohemiancoding.com/sketch -->
    <title>Group 16</title>
    <desc>Created with Sketch.</desc>
    <defs>
        <polygon id="path-1" points="0 0.0005 89.9998 0.0005 89.9998 90 0 90"></polygon>
    </defs>
    <g id="Page-1" stroke="none" stroke-width="1" fill="none" fill-rule="evenodd">
        <g id="Group-16">
            <g id="Group-3">
                <mask id="mask-2" fill="white">
                    <use xlink:href="#path-1"></use>
                </mask>
                <g id="Clip-2"></g>
                <path d="M89.9998,45.0005 C89.9998,69.8535 69.8538,90.0005 44.9998,90.0005 C20.1468,90.0005 -0.0002,69.8535 -0.0002,45.0005 C-0.0002,20.1465 20.1468,0.0005 44.9998,0.0005 C69.8538,0.0005 89.9998,20.1465 89.9998,45.0005" id="Fill-1" fill="#F5EAFF" mask="url(#mask-2)"></path>
            </g>
            <path d="M34.8796,58.0776 L37.9636,58.0776 L60.1576,58.0776 L60.1576,61.0176 C60.1576,62.6426 58.8416,63.9596 57.2176,63.9596 L40.4356,63.9596 L40.4356,67.5946 L58.9416,67.5946 C60.5766,67.5946 61.9016,66.2686 61.9016,64.6346 L61.9016,52.3846 C61.9016,54.0176 60.5766,55.3436 58.9416,55.3436 L37.9636,55.3436 L31.9396,55.3436 L31.9396,25.3396 L31.0576,25.3396 C29.4236,25.3396 28.0986,26.6646 28.0986,28.2996 L28.0986,64.6346 C28.0986,66.2686 29.4236,67.5946 31.0576,67.5946 L34.7056,67.5946 L34.7056,63.9416 C33.1636,63.8496 31.9396,62.5836 31.9396,61.0176 C31.9396,59.3936 33.2556,58.0776 34.8796,58.0776" id="Fill-4" fill="#490098"></path>
            <path d="M40.2185,37.7544 L53.4015,37.7544 C53.9045,37.7544 54.3125,37.3464 54.3125,36.8434 L54.3125,35.2054 L54.3125,30.7684 C54.3125,30.2654 53.9045,29.8574 53.4015,29.8574 L40.2185,29.8574 C39.7155,29.8574 39.3085,30.2654 39.3085,30.7684 L39.3085,35.6904 L39.3085,36.8434 C39.3085,37.3464 39.7155,37.7544 40.2185,37.7544" id="Fill-6" fill="#490098"></path>
            <path d="M40.321,42.4321 L53.3,42.4321 C53.858,42.4321 54.312,41.9781 54.312,41.4191 C54.312,40.8601 53.858,40.4071 53.3,40.4071 L40.321,40.4071 C39.761,40.4071 39.308,40.8601 39.308,41.4191 C39.308,41.9781 39.761,42.4321 40.321,42.4321" id="Fill-8" fill="#490098"></path>
            <path d="M40.321,47.1089 L53.3,47.1089 C53.858,47.1089 54.312,46.6559 54.312,46.0959 C54.312,45.5379 53.858,45.0839 53.3,45.0839 L40.321,45.0839 C39.761,45.0839 39.308,45.5379 39.308,46.0959 C39.308,46.6559 39.761,47.1089 40.321,47.1089" id="Fill-10" fill="#490098"></path>
            <path d="M54.3123,36.8432 C54.3123,37.3462 53.9043,37.7542 53.4013,37.7542 L40.2183,37.7542 C39.7153,37.7542 39.3083,37.3462 39.3083,36.8432 L39.3083,35.6902 L39.3083,30.7682 C39.3083,30.2652 39.7153,29.8572 40.2183,29.8572 L53.4013,29.8572 C53.9043,29.8572 54.3123,30.2652 54.3123,30.7682 L54.3123,35.2052 L54.3123,36.8432 Z M53.2993,42.4322 L40.3213,42.4322 C39.7613,42.4322 39.3083,41.9782 39.3083,41.4192 C39.3083,40.8602 39.7613,40.4062 40.3213,40.4062 L53.2993,40.4062 C53.8583,40.4062 54.3123,40.8602 54.3123,41.4192 C54.3123,41.9782 53.8583,42.4322 53.2993,42.4322 Z M53.2993,47.1092 L40.3213,47.1092 C39.7613,47.1092 39.3083,46.6562 39.3083,46.0962 C39.3083,45.5372 39.7613,45.0832 40.3213,45.0832 L53.2993,45.0832 C53.8583,45.0832 54.3123,45.5372 54.3123,46.0962 C54.3123,46.6562 53.8583,47.1092 53.2993,47.1092 Z M61.7103,27.2782 C61.5603,26.8732 61.3343,26.5052 61.0353,26.2052 C60.9303,26.1012 60.8153,26.0092 60.6933,25.9242 C60.5903,25.8482 60.4803,25.7822 60.3683,25.7202 C60.3673,25.7202 60.3673,25.7202 60.3673,25.7192 C60.1703,25.6112 59.9613,25.5242 59.7413,25.4622 C59.7233,25.4562 59.7083,25.4462 59.6903,25.4412 C59.6813,25.4392 59.6703,25.4402 59.6613,25.4372 C59.4293,25.3792 59.1913,25.3392 58.9423,25.3392 L31.9393,25.3392 L31.9393,55.3432 L37.9633,55.3432 L58.9423,55.3432 C60.5773,55.3432 61.9023,54.0182 61.9023,52.3842 L61.9023,52.3832 L61.9023,35.2052 L61.9023,28.2992 C61.9023,27.9392 61.8283,27.5982 61.7103,27.2782 Z" id="Fill-12" fill="#B65EFF"></path>
            <polygon id="Fill-14" fill="#B65EFF" points="34.7058 60.2924 34.7058 62.9604 34.7058 66.6114 34.7058 70.3394 37.5708 68.5534 40.4348 70.3394 40.4348 66.6114 40.4348 62.9784 40.4348 60.2924 37.9638 60.2924"></polygon>
        </g>
    </g>
</svg>