<?xml version="1.0" encoding="UTF-8"?>
<svg width="38px" height="43px" viewBox="0 0 38 43" version="1.1" xmlns="http://www.w3.org/2000/svg" xmlns:xlink="http://www.w3.org/1999/xlink">
    <!-- Generator: Sketch 52.6 (67491) - http://www.bohemiancoding.com/sketch -->
    <title>Group 16</title>
    <desc>Created with Sketch.</desc>
    <g id="Page-1" stroke="none" stroke-width="1" fill="none" fill-rule="evenodd">
        <g id="Group-16" fill="#000000">
            <path d="M2.5,39.1475 L2.5,3.2495 C2.5,2.8355 2.837,2.5005 3.25,2.5005 L34.25,2.5005 C34.663,2.5005 35,2.8365 35,3.2505 L35,39.0535 L32.459,37.5435 C31.703,37.0945 30.782,37.0625 29.995,37.4535 L25.144,39.8345 L20.392,37.4365 C19.658,37.0685 18.786,37.0725 18.059,37.4445 L13.298,39.8475 L7.887,37.3865 C7.549,37.2325 7.184,37.1565 6.819,37.1565 C6.394,37.1565 5.969,37.2605 5.588,37.4685 L2.5,39.1475 Z M34.25,0.0005 L3.25,0.0005 C1.458,0.0005 0,1.4575 0,3.2495 L0,40.9455 C0,41.4465 0.268,41.9185 0.698,42.1745 C0.922,42.3075 1.177,42.3755 1.432,42.3755 C1.666,42.3755 1.902,42.3185 2.116,42.2025 L6.852,39.6625 L12.264,42.1245 C12.985,42.4505 13.801,42.4315 14.504,42.0715 L19.267,39.6695 L24.017,42.0655 C24.738,42.4315 25.602,42.4335 26.327,42.0735 L31.184,39.6935 L35.343,42.1655 C35.784,42.4245 36.334,42.4285 36.779,42.1745 C37.224,41.9195 37.5,41.4445 37.5,40.9315 L37.5,3.2505 C37.5,1.4585 36.042,0.0005 34.25,0.0005 Z" id="Fill-1"></path>
            <path d="M8.2441,17.7187 L19.3701,17.7187 C20.0601,17.7187 20.6201,17.1587 20.6201,16.4687 C20.6201,15.7787 20.0601,15.2187 19.3701,15.2187 L8.2441,15.2187 C7.5541,15.2187 6.9941,15.7787 6.9941,16.4687 C6.9941,17.1587 7.5541,17.7187 8.2441,17.7187" id="Fill-4"></path>
            <path d="M26.4766,17.7187 L29.2566,17.7187 C29.9476,17.7187 30.5066,17.1587 30.5066,16.4687 C30.5066,15.7787 29.9476,15.2187 29.2566,15.2187 L26.4766,15.2187 C25.7866,15.2187 25.2266,15.7787 25.2266,16.4687 C25.2266,17.1587 25.7866,17.7187 26.4766,17.7187" id="Fill-6"></path>
            <path d="M8.2441,24.5146 L15.5091,24.5146 C16.1991,24.5146 16.7591,23.9546 16.7591,23.2646 C16.7591,22.5746 16.1991,22.0146 15.5091,22.0146 L8.2441,22.0146 C7.5541,22.0146 6.9941,22.5746 6.9941,23.2646 C6.9941,23.9546 7.5541,24.5146 8.2441,24.5146" id="Fill-8"></path>
            <path d="M26.4766,24.5146 L29.2566,24.5146 C29.9476,24.5146 30.5066,23.9546 30.5066,23.2646 C30.5066,22.5746 29.9476,22.0146 29.2566,22.0146 L26.4766,22.0146 C25.7866,22.0146 25.2266,22.5746 25.2266,23.2646 C25.2266,23.9546 25.7866,24.5146 26.4766,24.5146" id="Fill-10"></path>
            <path d="M8.2441,31.54 L18.7501,31.54 C19.4401,31.54 20.0001,30.98 20.0001,30.29 C20.0001,29.6 19.4401,29.04 18.7501,29.04 L8.2441,29.04 C7.5541,29.04 6.9941,29.6 6.9941,30.29 C6.9941,30.98 7.5541,31.54 8.2441,31.54" id="Fill-12"></path>
            <path d="M26.4766,31.54 L29.2566,31.54 C29.9476,31.54 30.5066,30.98 30.5066,30.29 C30.5066,29.6 29.9476,29.04 29.2566,29.04 L26.4766,29.04 C25.7866,29.04 25.2266,29.6 25.2266,30.29 C25.2266,30.98 25.7866,31.54 26.4766,31.54" id="Fill-14"></path>
        </g>
    </g>
</svg>