<?xml version="1.0" encoding="UTF-8"?>
<svg width="30px" height="35px" viewBox="0 0 30 35" version="1.1" xmlns="http://www.w3.org/2000/svg" xmlns:xlink="http://www.w3.org/1999/xlink">
    <!-- Generator: Sketch 53.2 (72643) - https://sketchapp.com -->
    <title>accs</title>
    <desc>Created with Sketch.</desc>
    <defs>
        <polygon id="path-1" points="0.000317355372 0.307041322 29.841719 0.307041322 29.841719 34.1157025 0.000317355372 34.1157025"></polygon>
        <polygon id="path-3" points="0.396932231 0.307041322 10.8003967 0.307041322 10.8003967 10.3138116 0.396932231 10.3138116"></polygon>
    </defs>
    <g id="Page-4" stroke="none" stroke-width="1" fill="none" fill-rule="evenodd">
        <g id="iteration-1-copy-8" transform="translate(-760.000000, -1154.000000)">
            <g id="accs" transform="translate(760.000000, 1154.000000)">
                <g id="Group-3" transform="translate(0.000000, 0.486585)">
                    <mask id="mask-2" fill="white">
                        <use xlink:href="#path-1"></use>
                    </mask>
                    <g id="Clip-2"></g>
                    <path d="M2.69625124,2.38016529 C2.35271405,2.38016529 2.07344132,2.65943802 2.07344132,3.00297521 L2.07344132,31.4197686 C2.07344132,31.7633058 2.35271405,32.0425785 2.69625124,32.0425785 L27.1453091,32.0425785 C27.4888463,32.0425785 27.7689124,31.7633058 27.7689124,31.4197686 L27.7689124,10.3140496 L20.4744992,10.3140496 C19.9024661,10.3140496 19.4383339,9.84991736 19.4383339,9.27709091 L19.4383339,2.38016529 L2.69625124,2.38016529 Z M27.1453091,34.1157025 L2.69625124,34.1157025 C1.20944132,34.1157025 0.000317355372,32.9065785 0.000317355372,31.4197686 L0.000317355372,3.00297521 C0.000317355372,1.51616529 1.20944132,0.307041322 2.69625124,0.307041322 L20.4744992,0.307041322 C21.0473256,0.307041322 21.5114579,0.771173554 21.5114579,1.34320661 L21.5114579,8.24092562 L28.8050777,8.24092562 C29.3779041,8.24092562 29.8420364,8.70505785 29.8420364,9.27709091 L29.8420364,31.4197686 C29.8420364,32.9065785 28.632119,34.1157025 27.1453091,34.1157025 L27.1453091,34.1157025 Z" id="Fill-1" fill="#6F00F4" mask="url(#mask-2)"></path>
                </g>
                <g id="Group-6" transform="translate(19.041322, 0.486585)">
                    <mask id="mask-4" fill="white">
                        <use xlink:href="#path-3"></use>
                    </mask>
                    <g id="Clip-5"></g>
                    <path d="M2.4700562,8.2406876 L7.17246942,8.2406876 L2.4700562,3.76280331 L2.4700562,8.2406876 Z M9.76367603,10.3138116 L1.43309752,10.3138116 C0.861064463,10.3138116 0.396932231,9.84967934 0.396932231,9.27764628 L0.396932231,1.34376198 C0.396932231,0.928819835 0.643676033,0.554340496 1.02529587,0.390109091 C1.40612231,0.227464463 1.84803967,0.306803306 2.14873388,0.59242314 L10.4793124,8.52630744 C10.7855603,8.81906777 10.8839405,9.26891901 10.7260562,9.66243967 C10.5689653,10.0559603 10.1881388,10.3138116 9.76367603,10.3138116 L9.76367603,10.3138116 Z" id="Fill-4" fill="#6F00F4" mask="url(#mask-4)"></path>
                </g>
                <path d="M21.8677686,15.6500628 L7.68198347,15.6500628 C7.13375207,15.6500628 6.69024793,15.2057653 6.69024793,14.6583273 C6.69024793,14.1108893 7.13375207,13.6665917 7.68198347,13.6665917 L21.8677686,13.6665917 C22.4152066,13.6665917 22.8595041,14.1108893 22.8595041,14.6583273 C22.8595041,15.2057653 22.4152066,15.6500628 21.8677686,15.6500628" id="Fill-7" fill="#6F00F4"></path>
                <path d="M21.8677686,28.3016727 L14.4963967,28.3016727 C13.9489587,28.3016727 13.5046612,27.8573752 13.5046612,27.3099372 C13.5046612,26.7624992 13.9489587,26.3182017 14.4963967,26.3182017 L21.8677686,26.3182017 C22.4152066,26.3182017 22.8595041,26.7624992 22.8595041,27.3099372 C22.8595041,27.8573752 22.4152066,28.3016727 21.8677686,28.3016727" id="Fill-9" fill="#6F00F4"></path>
                <path d="M22.1598942,21.0027372 L7.68134876,21.0027372 C7.13391074,21.0027372 6.68961322,20.5584397 6.68961322,20.0110017 C6.68961322,19.4635636 7.13391074,19.0192661 7.68134876,19.0192661 L22.1598942,19.0192661 C22.7073322,19.0192661 23.1516298,19.4635636 23.1516298,20.0110017 C23.1516298,20.5584397 22.7073322,21.0027372 22.1598942,21.0027372" id="Fill-11" fill="#6F00F4"></path>
            </g>
        </g>
    </g>
</svg>