<?xml version="1.0" encoding="UTF-8"?>
<svg width="36px" height="36px" viewBox="0 0 36 36" version="1.1" xmlns="http://www.w3.org/2000/svg" xmlns:xlink="http://www.w3.org/1999/xlink">
    <!-- Generator: Sketch 53.2 (72643) - https://sketchapp.com -->
    <title>subs</title>
    <desc>Created with Sketch.</desc>
    <defs>
        <polygon id="path-1" points="0 35.5813953 35.5813953 35.5813953 35.5813953 0 0 0"></polygon>
    </defs>
    <g id="Page-4" stroke="none" stroke-width="1" fill="none" fill-rule="evenodd">
        <g id="iteration-1-copy-8" transform="translate(-174.000000, -1154.000000)">
            <g id="subs" transform="translate(174.000000, 1154.000000)">
                <path d="M2.72009302,2.09302326 C2.37432558,2.09302326 2.09302326,2.37432558 2.09302326,2.72009302 L2.09302326,32.8613023 C2.09302326,33.2070698 2.37432558,33.4883721 2.72009302,33.4883721 L32.8604651,33.4883721 C33.2070698,33.4883721 33.4883721,33.2070698 33.4883721,32.8613023 L33.4883721,2.72009302 C33.4883721,2.37432558 33.2070698,2.09302326 32.8604651,2.09302326 L2.72009302,2.09302326 Z M32.8604651,35.5813953 L2.72009302,35.5813953 C1.21981395,35.5813953 0,34.3615814 0,32.8613023 L0,2.72009302 C0,1.21981395 1.21981395,0 2.72009302,0 L32.8604651,0 C34.3607442,0 35.5813953,1.21981395 35.5813953,2.72009302 L35.5813953,32.8613023 C35.5813953,34.3615814 34.3607442,35.5813953 32.8604651,35.5813953 L32.8604651,35.5813953 Z" id="Fill-1" fill="#000000"></path>
                <mask id="mask-2" fill="white">
                    <use xlink:href="#path-1"></use>
                </mask>
                <g id="Clip-4"></g>
                <polygon id="Fill-3" fill="#000000" mask="url(#mask-2)" points="1.04651163 11.7510698 34.5348837 11.7510698 34.5348837 9.65804651 1.04651163 9.65804651"></polygon>
                <path d="M10.1437953,19.6899907 L5.05523721,19.6899907 C4.47672558,19.6899907 4.00872558,19.2211535 4.00872558,18.6434791 C4.00872558,18.0658047 4.47672558,17.5969674 5.05523721,17.5969674 L10.1437953,17.5969674 C10.7214698,17.5969674 11.190307,18.0658047 11.190307,18.6434791 C11.190307,19.2211535 10.7214698,19.6899907 10.1437953,19.6899907" id="Fill-5" fill="#000000" mask="url(#mask-2)"></path>
                <path d="M10.1437953,26.7759628 L5.05523721,26.7759628 C4.47672558,26.7759628 4.00872558,26.3071256 4.00872558,25.7294512 C4.00872558,25.1517767 4.47672558,24.6829395 5.05523721,24.6829395 L10.1437953,24.6829395 C10.7214698,24.6829395 11.190307,25.1517767 11.190307,25.7294512 C11.190307,26.3071256 10.7214698,26.7759628 10.1437953,26.7759628" id="Fill-6" fill="#000000" mask="url(#mask-2)"></path>
                <polygon id="Fill-7" fill="#000000" mask="url(#mask-2)" points="13.2722791 33.6683721 15.3653023 33.6683721 15.3653023 10.7045581 13.2722791 10.7045581"></polygon>
                <path d="M6.87424186,5.5399814 C6.87424186,6.2331907 6.31247442,6.79579535 5.61842791,6.79579535 C4.9243814,6.79579535 4.36261395,6.2331907 4.36261395,5.5399814 C4.36261395,4.84677209 4.9243814,4.28416744 5.61842791,4.28416744 C6.31247442,4.28416744 6.87424186,4.84677209 6.87424186,5.5399814" id="Fill-8" fill="#000000" mask="url(#mask-2)"></path>
                <path d="M11.0602884,5.5399814 C11.0602884,6.2331907 10.4985209,6.79579535 9.80447442,6.79579535 C9.11042791,6.79579535 8.54866047,6.2331907 8.54866047,5.5399814 C8.54866047,4.84677209 9.11042791,4.28416744 9.80447442,4.28416744 C10.4985209,4.28416744 11.0602884,4.84677209 11.0602884,5.5399814" id="Fill-9" fill="#000000" mask="url(#mask-2)"></path>
            </g>
        </g>
    </g>
</svg>