<?xml version="1.0" encoding="UTF-8"?>
<svg width="475px" height="349px" viewBox="0 0 475 349" version="1.1" xmlns="http://www.w3.org/2000/svg" xmlns:xlink="http://www.w3.org/1999/xlink">
    <!-- Generator: Sketch 64 (93537) - https://sketch.com -->
    <title>92</title>
    <desc>Created with Sketch.</desc>
    <g id="Latest" stroke="none" stroke-width="1" fill="none" fill-rule="evenodd">
        <path d="M110.982369,349 C175.090395,349 209.080557,314.961728 218.976427,267.566667 C223.709234,246.454321 225,202.506173 225,172.776543 C225,139.6 221.988214,93.4975309 214.673875,68.9382716 C198.754432,18.9580247 161.752484,0 110.121858,0 C52.4676595,0 17.6169873,25.4209877 5.13958609,64.1987654 C-2.60500775,89.1888889 -0.883986899,142.185185 5.5698413,166.31358 C14.1749456,198.197531 43.4323001,221.033333 90.3301183,221.033333 C127.762322,221.033333 154.8684,208.538272 168.636567,193.458025 C168.636567,208.969136 167.345801,238.698765 166.055036,253.779012 C163.473505,282.646914 143.681765,299.881481 111.412624,299.881481 C81.2947588,299.881481 64.9450607,290.402469 60.6425086,271.444444 C59.3517429,265.84321 58.9214877,259.811111 58.9214877,255.933333 L6.43035172,255.933333 C6.43035172,264.119753 7.29086215,276.183951 9.44213822,286.524691 C17.6169873,324.871605 48.1651074,349 110.982369,349 Z M109.86181,177 C77.0552225,177 62.810257,163.611296 58.0619351,144.17608 C55.0402758,130.787375 55.4719414,94.076412 58.4936008,80.6877076 C63.6735882,61.6843854 82.23521,47 111.156807,47 C142.236731,47 160.798353,62.5481728 165.115009,90.1893688 C167.273338,110.488372 168.568334,129.923588 169,148.063123 C164.683344,157.13289 146.121722,177 109.86181,177 Z M475,345 L475,295.898876 L321.563327,295.898876 C395.26465,246.797753 464.224953,185.205993 467.672968,109.400749 C468.10397,103.370787 468.10397,86.5730337 467.672968,81.4044944 C465.086957,38.3333333 438.364839,0 361.215501,0 C287.083176,0 254.758034,37.9026217 250.017013,79.2509363 C249.586011,87.4344569 249.155009,107.677903 249.155009,115.430712 L305.185255,115.430712 L305.19199,109.387289 C305.212193,102.15941 305.293006,92.3876404 305.616257,89.1573034 C307.771267,66.7602996 323.718336,50.82397 356.47448,50.82397 C390.954631,50.82397 407.332703,66.329588 407.332703,92.6029963 L407.332703,108.108614 L407.332703,108.108614 C405.608696,183.052434 332.769376,236.029963 247,296.7603 L247,345 L475,345 Z" id="92" fill="#F6E0B5" fill-rule="nonzero"></path>
    </g>
</svg>