<?xml version="1.0" encoding="UTF-8"?>
<svg width="384px" height="158px" viewBox="0 0 384 158" version="1.1" xmlns="http://www.w3.org/2000/svg" xmlns:xlink="http://www.w3.org/1999/xlink">
    <!-- Generator: Sketch 64 (93537) - https://sketch.com -->
    <title>95%</title>
    <desc>Created with Sketch.</desc>
    <g id="Latest" stroke="none" stroke-width="1" fill="none" fill-rule="evenodd">
        <path d="M50.3120071,158 C79.3743125,158 94.7831859,142.687654 99.2693136,121.366667 C101.414853,111.869136 102,92.0987654 102,78.7246914 C102,63.8 100.634657,43.0604938 97.3188233,32.0123457 C90.1020092,9.52839506 73.3277926,1 49.921909,1 C23.785339,1 7.98636756,12.4358025 2.32994569,29.8802469 C-1.18093685,41.1222222 -0.400740727,64.962963 2.52499472,75.817284 C6.42597532,90.1604938 19.6893094,100.433333 40.9496536,100.433333 C57.9189192,100.433333 70.2070081,94.8123457 76.4485771,88.0283951 C76.4485771,95.0061728 75.86343,108.380247 75.2782829,115.164198 C74.1079887,128.150617 65.1357333,135.903704 50.5070561,135.903704 C36.853624,135.903704 29.4417609,131.639506 27.4912706,123.111111 C26.9061235,120.591358 26.7110744,117.877778 26.7110744,116.133333 L2.91509278,116.133333 C2.91509278,119.816049 3.30519084,125.24321 4.28043599,129.895062 C7.98636756,147.145679 21.8348487,158 50.3120071,158 Z M49.3093124,80 C34.5027995,80 28.0736558,74.0265781 25.9306079,65.3554817 C24.5668501,59.3820598 24.7616727,43.0033223 26.1254304,37.0299003 C28.4633009,28.551495 36.84067,22 49.89378,22 C63.9210027,22 72.2983718,28.9368771 74.2465972,41.269103 C75.2207099,50.3255814 75.8051775,58.9966777 76,67.089701 C74.0517746,71.1362126 65.6744055,80 49.3093124,80 Z M165.319518,158 C194.755619,158 211.991231,144.841448 215.283427,123.362047 C216.445378,113.299625 216.058061,93.7553059 215.089768,84.8539326 C211.991231,64.1485643 197.854156,52.1510612 173.259519,52.1510612 C159.897079,52.1510612 145.179028,56.6017478 139.950247,67.051186 L140.143906,25.8339576 L208.699036,25.8339576 L208.699036,3 L117.292196,3 L117.292196,88.1435705 L141.693174,88.1435705 C144.404394,78.855181 153.119029,74.4044944 164.932201,74.4044944 C178.100983,74.4044944 186.428301,79.6292135 188.171228,91.0461923 C188.752204,97.2384519 189.139521,113.106117 188.171228,118.911361 C186.234643,130.521848 178.100983,135.746567 163.576591,135.746567 C150.795126,135.746567 141.499515,131.29588 139.56293,120.072409 C139.175613,117.750312 138.788296,111.945069 138.788296,109.622971 L114,109.622971 C114,115.041199 114.193659,119.685393 114.580976,124.329588 C117.098537,145.808989 133.559515,158 165.319518,158 Z M265.096606,80 C288.475196,80 302,64.503632 302,46.1016949 L302,33.8983051 C302,17.433414 291.373368,0 265.096606,0 C239.206266,0 228,15.6900726 228,33.8983051 L228,46.1016949 C228,64.503632 241.138381,80 265.096606,80 Z M269.976424,156 L354,6 L339.412574,6 L255,156 L269.976424,156 Z M264.893617,63 C253.085106,63 246,55.0084746 246,45.2627119 L246,33.7627119 C246,23.8220339 252.888298,17 264.696809,17 C275.914894,17 283,25.3813559 283,33.7627119 L283,45.4576271 C283,54.0338983 277.095745,63 264.893617,63 Z M345.914063,158 C372.476562,158 384,142.927536 384,124.183575 L384,111.816425 C384,96.1642512 372.28125,78 346.5,78 C320.71875,78 309,95.0048309 309,111.816425 L309,124.183575 C309,141.961353 321.890625,158 345.914063,158 Z M346.5,141 C334.101064,141 328,131.644068 328,123.262712 L328,111.762712 C328,103.186441 333.510638,95 346.5,95 C358.111702,95 365,103.186441 365,111.762712 L365,123.262712 C365,132.033898 360.276596,141 346.5,141 Z" id="95%" fill="#00000A" fill-rule="nonzero"></path>
    </g>
</svg>