<svg xmlns="http://www.w3.org/2000/svg" xmlns:xlink="http://www.w3.org/1999/xlink" viewBox="0 0 94 122">
  <g id="container">
    <path fill="#fff" d="M8.1 89.9L47.6 110l38-20.1V11.3H8.1z"/>
    <path fill="#f2f3f2" d="M86.4 11.6L7.3 91.3l41 20.3 38.1-19.5z"/>
    <path d="M5.5 37.5v54.1l1.4.7 39.5 20.1 1.2.6 1.2-.6 38.1-20.1 1.4-.7V8.7H5.5v28.8zm2.6 52.6V11.3h77.6v78.8l-38.1 20.1L8.1 90.1z" fill="#dcdedc"/>
    <path id="logo" d="M46.9 12.6c.4 0 .8 0 1.2.1L46.9 15c-1.8-.1-3.4 1.3-3.5 3.1-.1 1.8 1.3 3.4 3.1 3.5h.4c.8 0 1.6-.3 2.2-.8l1.3 2.2c-1 .7-2.2 1.1-3.5 1.1-3.2.1-5.9-2.3-6-5.5-.1-3.2 2.3-5.9 5.5-6h.5zm4.1 4.9l1.5 2.5-1.5 2.4-1.4-2.4h-2.9l1.5-2.5H51zm-2.4-.9c0-.4.1-.8.3-1.1.2-.3.6-.6.9-.8l.2-.1c.4-.2.5-.3.5-.5s-.3-.4-.5-.4c-.4 0-.7.2-.9.6l-.5-.5c.1-.2.3-.4.5-.6.3-.2.6-.2.9-.2.3 0 .7.1.9.3.2.2.4.5.4.8 0 .5-.3.9-.9 1.1l-.3.2c-.3.2-.5.3-.6.6h1.8v.7l-2.7-.1zm-1.7 12.5l9.5-5.4v-15H37.3v14.9l9.6 5.5z" fill="#ff492c"/>
    <path id="banner" d="M90.2 64.5H3.6l-3.2 7 3.2 7h86.6l3.1-7z" fill="#23cca2"/>
  <path fill="#252530" transform="translate(13.24, 60)" d="M5.34 0L5.34 0Q5.22 0 5.17-0.11L5.17-0.11L3.67-3.43L3.67-3.43Q3.65-3.48 3.60-3.48L3.60-3.48L2.48-3.48L2.48-3.48Q2.42-3.48 2.42-3.42L2.42-3.42L2.42-0.14L2.42-0.14Q2.42-0.08 2.38-0.04L2.38-0.04L2.38-0.04Q2.34 0 2.28 0L2.28 0L0.88 0L0.88 0Q0.82 0 0.77-0.04L0.77-0.04L0.77-0.04Q0.73-0.08 0.73-0.14L0.73-0.14L0.73-8.26L0.73-8.26Q0.73-8.32 0.77-8.36L0.77-8.36L0.77-8.36Q0.82-8.40 0.88-8.40L0.88-8.40L4.31-8.40L4.31-8.40Q5.08-8.40 5.66-8.09L5.66-8.09L5.66-8.09Q6.24-7.78 6.56-7.20L6.56-7.20L6.56-7.20Q6.88-6.62 6.88-5.87L6.88-5.87L6.88-5.87Q6.88-5.05 6.47-4.47L6.47-4.47L6.47-4.47Q6.06-3.89 5.33-3.65L5.33-3.65L5.33-3.65Q5.27-3.62 5.29-3.56L5.29-3.56L6.92-0.17L6.92-0.17Q6.95-0.12 6.95-0.10L6.95-0.10L6.95-0.10Q6.95 0 6.82 0L6.82 0L5.34 0ZM2.48-6.95L2.48-6.95Q2.42-6.95 2.42-6.89L2.42-6.89L2.42-4.84L2.42-4.84Q2.42-4.78 2.48-4.78L2.48-4.78L4.06-4.78L4.06-4.78Q4.56-4.78 4.88-5.08L4.88-5.08L4.88-5.08Q5.20-5.38 5.20-5.86L5.20-5.86L5.20-5.86Q5.20-6.34 4.88-6.64L4.88-6.64L4.88-6.64Q4.56-6.95 4.06-6.95L4.06-6.95L2.48-6.95ZM13.45-3.72L13.45-3.72Q13.52-3.26 13.50-2.70L13.50-2.70L13.50-2.70Q13.49-2.56 13.34-2.56L13.34-2.56L9.64-2.56L9.64-2.56Q9.56-2.56 9.59-2.50L9.59-2.50L9.59-2.50Q9.62-2.26 9.72-2.02L9.72-2.02L9.72-2.02Q10.03-1.34 10.99-1.34L10.99-1.34L10.99-1.34Q11.76-1.36 12.20-1.97L12.20-1.97L12.20-1.97Q12.25-2.04 12.31-2.04L12.31-2.04L12.31-2.04Q12.35-2.04 12.40-1.99L12.40-1.99L13.26-1.14L13.26-1.14Q13.32-1.08 13.32-1.03L13.32-1.03L13.32-1.03Q13.32-1.01 13.27-0.94L13.27-0.94L13.27-0.94Q12.88-0.44 12.25-0.17L12.25-0.17L12.25-0.17Q11.63 0.10 10.88 0.10L10.88 0.10L10.88 0.10Q9.85 0.10 9.14-0.37L9.14-0.37L9.14-0.37Q8.42-0.84 8.11-1.68L8.11-1.68L8.11-1.68Q7.86-2.28 7.86-3.25L7.86-3.25L7.86-3.25Q7.86-3.91 8.04-4.42L8.04-4.42L8.04-4.42Q8.32-5.27 9.01-5.77L9.01-5.77L9.01-5.77Q9.70-6.28 10.64-6.28L10.64-6.28L10.64-6.28Q11.84-6.28 12.57-5.58L12.57-5.58L12.57-5.58Q13.30-4.88 13.45-3.72L13.45-3.72ZM10.66-4.81L10.66-4.81Q9.90-4.81 9.66-4.10L9.66-4.10L9.66-4.10Q9.61-3.95 9.58-3.72L9.58-3.72L9.58-3.72Q9.58-3.66 9.64-3.66L9.64-3.66L11.71-3.66L11.71-3.66Q11.78-3.66 11.76-3.72L11.76-3.72L11.76-3.72Q11.70-4.07 11.70-4.06L11.70-4.06L11.70-4.06Q11.59-4.42 11.32-4.61L11.32-4.61L11.32-4.61Q11.05-4.81 10.66-4.81L10.66-4.81ZM14.69 0L14.69 0Q14.63 0 14.59-0.04L14.59-0.04L14.59-0.04Q14.54-0.08 14.54-0.14L14.54-0.14L14.54-8.26L14.54-8.26Q14.54-8.32 14.59-8.36L14.59-8.36L14.59-8.36Q14.63-8.40 14.69-8.40L14.69-8.40L16.09-8.40L16.09-8.40Q16.15-8.40 16.19-8.36L16.19-8.36L16.19-8.36Q16.24-8.32 16.24-8.26L16.24-8.26L16.24-0.14L16.24-0.14Q16.24-0.08 16.19-0.04L16.19-0.04L16.19-0.04Q16.15 0 16.09 0L16.09 0L14.69 0ZM19.93-6.26L19.93-6.26Q20.71-6.26 21.32-5.99L21.32-5.99L21.32-5.99Q21.94-5.72 22.28-5.26L22.28-5.26L22.28-5.26Q22.62-4.79 22.62-4.21L22.62-4.21L22.62-0.14L22.62-0.14Q22.62-0.08 22.58-0.04L22.58-0.04L22.58-0.04Q22.54 0 22.48 0L22.48 0L21.07 0L21.07 0Q21.01 0 20.97-0.04L20.97-0.04L20.97-0.04Q20.93-0.08 20.93-0.14L20.93-0.14L20.93-0.54L20.93-0.54Q20.93-0.58 20.90-0.59L20.90-0.59L20.90-0.59Q20.88-0.60 20.86-0.56L20.86-0.56L20.86-0.56Q20.35 0.10 19.24 0.10L19.24 0.10L19.24 0.10Q18.30 0.10 17.72-0.36L17.72-0.36L17.72-0.36Q17.15-0.82 17.15-1.70L17.15-1.70L17.15-1.70Q17.15-2.63 17.80-3.14L17.80-3.14L17.80-3.14Q18.44-3.65 19.64-3.65L19.64-3.65L20.87-3.65L20.87-3.65Q20.93-3.65 20.93-3.71L20.93-3.71L20.93-3.97L20.93-3.97Q20.93-4.37 20.69-4.59L20.69-4.59L20.69-4.59Q20.45-4.81 19.97-4.81L19.97-4.81L19.97-4.81Q19.60-4.81 19.35-4.68L19.35-4.68L19.35-4.68Q19.10-4.55 19.03-4.31L19.03-4.31L19.03-4.31Q19.00-4.18 18.88-4.19L18.88-4.19L17.42-4.38L17.42-4.38Q17.28-4.40 17.29-4.49L17.29-4.49L17.29-4.49Q17.34-4.99 17.69-5.40L17.69-5.40L17.69-5.40Q18.05-5.81 18.63-6.04L18.63-6.04L18.63-6.04Q19.21-6.26 19.93-6.26L19.93-6.26ZM19.69-1.16L19.69-1.16Q20.21-1.16 20.57-1.44L20.57-1.44L20.57-1.44Q20.93-1.72 20.93-2.15L20.93-2.15L20.93-2.58L20.93-2.58Q20.93-2.64 20.87-2.64L20.87-2.64L20.00-2.64L20.00-2.64Q19.46-2.64 19.16-2.44L19.16-2.44L19.16-2.44Q18.85-2.23 18.85-1.86L18.85-1.86L18.85-1.86Q18.85-1.54 19.08-1.35L19.08-1.35L19.08-1.35Q19.31-1.16 19.69-1.16L19.69-1.16ZM27.35-4.96L27.35-4.96Q27.35-4.90 27.31-4.85L27.31-4.85L27.31-4.85Q27.26-4.81 27.20-4.81L27.20-4.81L26.05-4.81L26.05-4.81Q25.99-4.81 25.99-4.75L25.99-4.75L25.99-2.21L25.99-2.21Q25.99-1.81 26.15-1.62L26.15-1.62L26.15-1.62Q26.32-1.43 26.68-1.43L26.68-1.43L27.07-1.43L27.07-1.43Q27.13-1.43 27.17-1.39L27.17-1.39L27.17-1.39Q27.22-1.34 27.22-1.28L27.22-1.28L27.22-0.14L27.22-0.14Q27.22-0.01 27.07 0.01L27.07 0.01L27.07 0.01Q26.57 0.04 26.35 0.04L26.35 0.04L26.35 0.04Q25.36 0.04 24.86-0.29L24.86-0.29L24.86-0.29Q24.37-0.62 24.36-1.54L24.36-1.54L24.36-4.75L24.36-4.75Q24.36-4.81 24.30-4.81L24.30-4.81L23.62-4.81L23.62-4.81Q23.56-4.81 23.51-4.85L23.51-4.85L23.51-4.85Q23.47-4.90 23.47-4.96L23.47-4.96L23.47-6.02L23.47-6.02Q23.47-6.08 23.51-6.13L23.51-6.13L23.51-6.13Q23.56-6.17 23.62-6.17L23.62-6.17L24.30-6.17L24.30-6.17Q24.36-6.17 24.36-6.23L24.36-6.23L24.36-7.66L24.36-7.66Q24.36-7.72 24.40-7.76L24.40-7.76L24.40-7.76Q24.44-7.80 24.50-7.80L24.50-7.80L25.85-7.80L25.85-7.80Q25.91-7.80 25.95-7.76L25.95-7.76L25.95-7.76Q25.99-7.72 25.99-7.66L25.99-7.66L25.99-6.23L25.99-6.23Q25.99-6.17 26.05-6.17L26.05-6.17L27.20-6.17L27.20-6.17Q27.26-6.17 27.31-6.13L27.31-6.13L27.31-6.13Q27.35-6.08 27.35-6.02L27.35-6.02L27.35-4.96ZM29.28-6.86L29.28-6.86Q28.87-6.86 28.60-7.13L28.60-7.13L28.60-7.13Q28.33-7.40 28.33-7.81L28.33-7.81L28.33-7.81Q28.33-8.23 28.60-8.50L28.60-8.50L28.60-8.50Q28.86-8.76 29.28-8.76L29.28-8.76L29.28-8.76Q29.70-8.76 29.96-8.50L29.96-8.50L29.96-8.50Q30.23-8.23 30.23-7.81L30.23-7.81L30.23-7.81Q30.23-7.40 29.96-7.13L29.96-7.13L29.96-7.13Q29.69-6.86 29.28-6.86L29.28-6.86ZM28.56 0L28.56 0Q28.50 0 28.46-0.04L28.46-0.04L28.46-0.04Q28.42-0.08 28.42-0.14L28.42-0.14L28.42-6.04L28.42-6.04Q28.42-6.10 28.46-6.14L28.46-6.14L28.46-6.14Q28.50-6.18 28.56-6.18L28.56-6.18L29.96-6.18L29.96-6.18Q30.02-6.18 30.07-6.14L30.07-6.14L30.07-6.14Q30.11-6.10 30.11-6.04L30.11-6.04L30.11-0.14L30.11-0.14Q30.11-0.08 30.07-0.04L30.07-0.04L30.07-0.04Q30.02 0 29.96 0L29.96 0L28.56 0ZM34.15 0.10L34.15 0.10Q33.14 0.10 32.42-0.43L32.42-0.43L32.42-0.43Q31.70-0.96 31.44-1.87L31.44-1.87L31.44-1.87Q31.27-2.44 31.27-3.10L31.27-3.10L31.27-3.10Q31.27-3.80 31.44-4.37L31.44-4.37L31.44-4.37Q31.72-5.26 32.44-5.76L32.44-5.76L32.44-5.76Q33.16-6.26 34.16-6.26L34.16-6.26L34.16-6.26Q35.15-6.26 35.84-5.77L35.84-5.77L35.84-5.77Q36.54-5.27 36.83-4.38L36.83-4.38L36.83-4.38Q37.02-3.78 37.02-3.12L37.02-3.12L37.02-3.12Q37.02-2.47 36.85-1.91L36.85-1.91L36.85-1.91Q36.59-0.97 35.87-0.44L35.87-0.44L35.87-0.44Q35.16 0.10 34.15 0.10L34.15 0.10ZM34.15-1.36L34.15-1.36Q34.55-1.36 34.82-1.60L34.82-1.60L34.82-1.60Q35.10-1.84 35.22-2.26L35.22-2.26L35.22-2.26Q35.32-2.64 35.32-3.10L35.32-3.10L35.32-3.10Q35.32-3.60 35.22-3.95L35.22-3.95L35.22-3.95Q35.09-4.36 34.81-4.58L34.81-4.58L34.81-4.58Q34.54-4.81 34.14-4.81L34.14-4.81L34.14-4.81Q33.73-4.81 33.46-4.58L33.46-4.58L33.46-4.58Q33.19-4.36 33.07-3.95L33.07-3.95L33.07-3.95Q32.98-3.66 32.98-3.10L32.98-3.10L32.98-3.10Q32.98-2.56 33.06-2.26L33.06-2.26L33.06-2.26Q33.18-1.84 33.46-1.60L33.46-1.60L33.46-1.60Q33.74-1.36 34.15-1.36L34.15-1.36ZM41.33-6.26L41.33-6.26Q42.29-6.26 42.88-5.68L42.88-5.68L42.88-5.68Q43.46-5.09 43.46-4.08L43.46-4.08L43.46-0.14L43.46-0.14Q43.46-0.08 43.42-0.04L43.42-0.04L43.42-0.04Q43.38 0 43.32 0L43.32 0L41.92 0L41.92 0Q41.86 0 41.81-0.04L41.81-0.04L41.81-0.04Q41.77-0.08 41.77-0.14L41.77-0.14L41.77-3.73L41.77-3.73Q41.77-4.21 41.50-4.51L41.50-4.51L41.50-4.51Q41.23-4.81 40.79-4.81L40.79-4.81L40.79-4.81Q40.34-4.81 40.07-4.51L40.07-4.51L40.07-4.51Q39.80-4.21 39.80-3.73L39.80-3.73L39.80-0.14L39.80-0.14Q39.80-0.08 39.76-0.04L39.76-0.04L39.76-0.04Q39.72 0 39.66 0L39.66 0L38.26 0L38.26 0Q38.20 0 38.15-0.04L38.15-0.04L38.15-0.04Q38.11-0.08 38.11-0.14L38.11-0.14L38.11-6.02L38.11-6.02Q38.11-6.08 38.15-6.13L38.15-6.13L38.15-6.13Q38.20-6.17 38.26-6.17L38.26-6.17L39.66-6.17L39.66-6.17Q39.72-6.17 39.76-6.13L39.76-6.13L39.76-6.13Q39.80-6.08 39.80-6.02L39.80-6.02L39.80-5.60L39.80-5.60Q39.80-5.57 39.83-5.56L39.83-5.56L39.83-5.56Q39.85-5.54 39.86-5.57L39.86-5.57L39.86-5.57Q40.36-6.26 41.33-6.26L41.33-6.26ZM47.14 0.08L47.14 0.08Q46.33 0.08 45.73-0.14L45.73-0.14L45.73-0.14Q45.13-0.37 44.80-0.78L44.80-0.78L44.80-0.78Q44.47-1.19 44.47-1.70L44.47-1.70L44.47-1.82L44.47-1.82Q44.47-1.88 44.51-1.93L44.51-1.93L44.51-1.93Q44.56-1.97 44.62-1.97L44.62-1.97L45.95-1.97L45.95-1.97Q46.01-1.97 46.05-1.93L46.05-1.93L46.05-1.93Q46.09-1.88 46.09-1.82L46.09-1.82L46.09-1.81L46.09-1.81Q46.09-1.55 46.39-1.36L46.39-1.36L46.39-1.36Q46.68-1.18 47.12-1.18L47.12-1.18L47.12-1.18Q47.53-1.18 47.78-1.34L47.78-1.34L47.78-1.34Q48.04-1.50 48.04-1.74L48.04-1.74L48.04-1.74Q48.04-1.96 47.82-2.06L47.82-2.06L47.82-2.06Q47.60-2.17 47.11-2.29L47.11-2.29L47.11-2.29Q46.55-2.44 46.22-2.57L46.22-2.57L46.22-2.57Q45.46-2.83 45.00-3.22L45.00-3.22L45.00-3.22Q44.54-3.60 44.54-4.32L44.54-4.32L44.54-4.32Q44.54-5.21 45.23-5.73L45.23-5.73L45.23-5.73Q45.92-6.25 47.06-6.25L47.06-6.25L47.06-6.25Q47.83-6.25 48.41-6.01L48.41-6.01L48.41-6.01Q48.98-5.76 49.30-5.32L49.30-5.32L49.30-5.32Q49.62-4.87 49.62-4.31L49.62-4.31L49.62-4.31Q49.62-4.25 49.58-4.21L49.58-4.21L49.58-4.21Q49.54-4.16 49.48-4.16L49.48-4.16L48.19-4.16L48.19-4.16Q48.13-4.16 48.09-4.21L48.09-4.21L48.09-4.21Q48.05-4.25 48.05-4.31L48.05-4.31L48.05-4.31Q48.05-4.57 47.78-4.75L47.78-4.75L47.78-4.75Q47.51-4.93 47.06-4.93L47.06-4.93L47.06-4.93Q46.67-4.93 46.42-4.79L46.42-4.79L46.42-4.79Q46.16-4.64 46.16-4.39L46.16-4.39L46.16-4.39Q46.16-4.15 46.41-4.03L46.41-4.03L46.41-4.03Q46.66-3.91 47.23-3.78L47.23-3.78L47.23-3.78Q47.36-3.74 47.53-3.70L47.53-3.70L47.53-3.70Q47.70-3.66 47.89-3.60L47.89-3.60L47.89-3.60Q48.74-3.35 49.24-2.95L49.24-2.95L49.24-2.95Q49.73-2.56 49.73-1.80L49.73-1.80L49.73-1.80Q49.73-0.91 49.03-0.41L49.03-0.41L49.03-0.41Q48.32 0.08 47.14 0.08L47.14 0.08ZM53.92-6.26L53.92-6.26Q54.88-6.26 55.46-5.68L55.46-5.68L55.46-5.68Q56.05-5.09 56.05-4.08L56.05-4.08L56.05-0.14L56.05-0.14Q56.05-0.08 56.01-0.04L56.01-0.04L56.01-0.04Q55.97 0 55.91 0L55.91 0L54.50 0L54.50 0Q54.44 0 54.40-0.04L54.40-0.04L54.40-0.04Q54.36-0.08 54.36-0.14L54.36-0.14L54.36-3.73L54.36-3.73Q54.36-4.21 54.09-4.51L54.09-4.51L54.09-4.51Q53.82-4.81 53.38-4.81L53.38-4.81L53.38-4.81Q52.93-4.81 52.66-4.51L52.66-4.51L52.66-4.51Q52.39-4.21 52.39-3.73L52.39-3.73L52.39-0.14L52.39-0.14Q52.39-0.08 52.35-0.04L52.35-0.04L52.35-0.04Q52.31 0 52.25 0L52.25 0L50.84 0L50.84 0Q50.78 0 50.74-0.04L50.74-0.04L50.74-0.04Q50.70-0.08 50.70-0.14L50.70-0.14L50.70-8.26L50.70-8.26Q50.70-8.32 50.74-8.36L50.74-8.36L50.74-8.36Q50.78-8.40 50.84-8.40L50.84-8.40L52.25-8.40L52.25-8.40Q52.31-8.40 52.35-8.36L52.35-8.36L52.35-8.36Q52.39-8.32 52.39-8.26L52.39-8.26L52.39-5.60L52.39-5.60Q52.39-5.57 52.42-5.56L52.42-5.56L52.42-5.56Q52.44-5.54 52.45-5.57L52.45-5.57L52.45-5.57Q52.94-6.26 53.92-6.26L53.92-6.26ZM58.18-6.86L58.18-6.86Q57.77-6.86 57.50-7.13L57.50-7.13L57.50-7.13Q57.23-7.40 57.23-7.81L57.23-7.81L57.23-7.81Q57.23-8.23 57.49-8.50L57.49-8.50L57.49-8.50Q57.76-8.76 58.18-8.76L58.18-8.76L58.18-8.76Q58.60-8.76 58.86-8.50L58.86-8.50L58.86-8.50Q59.12-8.23 59.12-7.81L59.12-7.81L59.12-7.81Q59.12-7.40 58.85-7.13L58.85-7.13L58.85-7.13Q58.58-6.86 58.18-6.86L58.18-6.86ZM57.46 0L57.46 0Q57.40 0 57.35-0.04L57.35-0.04L57.35-0.04Q57.31-0.08 57.31-0.14L57.31-0.14L57.31-6.04L57.31-6.04Q57.31-6.10 57.35-6.14L57.35-6.14L57.35-6.14Q57.40-6.18 57.46-6.18L57.46-6.18L58.86-6.18L58.86-6.18Q58.92-6.18 58.96-6.14L58.96-6.14L58.96-6.14Q59.00-6.10 59.00-6.04L59.00-6.04L59.00-0.14L59.00-0.14Q59.00-0.08 58.96-0.04L58.96-0.04L58.96-0.04Q58.92 0 58.86 0L58.86 0L57.46 0ZM65.83-4.51L65.83-4.51Q66.05-3.90 66.05-3.07L66.05-3.07L66.05-3.07Q66.05-2.24 65.82-1.57L65.82-1.57L65.82-1.57Q65.54-0.80 64.95-0.35L64.95-0.35L64.95-0.35Q64.36 0.10 63.48 0.10L63.48 0.10L63.48 0.10Q62.62 0.10 62.14-0.50L62.14-0.50L62.14-0.50Q62.11-0.54 62.09-0.53L62.09-0.53L62.09-0.53Q62.06-0.52 62.06-0.48L62.06-0.48L62.06 2.09L62.06 2.09Q62.06 2.15 62.02 2.19L62.02 2.19L62.02 2.19Q61.98 2.23 61.92 2.23L61.92 2.23L60.52 2.23L60.52 2.23Q60.46 2.23 60.41 2.19L60.41 2.19L60.41 2.19Q60.37 2.15 60.37 2.09L60.37 2.09L60.37-6.02L60.37-6.02Q60.37-6.08 60.41-6.13L60.41-6.13L60.41-6.13Q60.46-6.17 60.52-6.17L60.52-6.17L61.92-6.17L61.92-6.17Q61.98-6.17 62.02-6.13L62.02-6.13L62.02-6.13Q62.06-6.08 62.06-6.02L62.06-6.02L62.06-5.63L62.06-5.63Q62.06-5.59 62.09-5.59L62.09-5.59L62.09-5.59Q62.11-5.58 62.14-5.60L62.14-5.60L62.14-5.60Q62.64-6.26 63.53-6.26L63.53-6.26L63.53-6.26Q64.36-6.26 64.96-5.80L64.96-5.80L64.96-5.80Q65.57-5.34 65.83-4.51L65.83-4.51ZM64.00-1.82L64.00-1.82Q64.30-2.29 64.30-3.10L64.30-3.10L64.30-3.10Q64.30-3.85 64.04-4.30L64.04-4.30L64.04-4.30Q63.77-4.81 63.16-4.81L63.16-4.81L63.16-4.81Q62.60-4.81 62.33-4.30L62.33-4.30L62.33-4.30Q62.08-3.86 62.08-3.08L62.08-3.08L62.08-3.08Q62.08-2.28 62.34-1.84L62.34-1.84L62.34-1.84Q62.62-1.36 63.16-1.36L63.16-1.36L63.16-1.36Q63.70-1.36 64.00-1.82L64.00-1.82Z"/><path fill="#252530" transform="translate(34.18, 48)" d="M5.71-4.38L5.71-4.38Q5.64-4.34 5.71-4.31L5.71-4.31L5.71-4.31Q6.85-3.72 6.85-2.35L6.85-2.35L6.85-2.35Q6.85-1.19 6.06-0.59L6.06-0.59L6.06-0.59Q5.27 0 3.98 0L3.98 0L0.88 0L0.88 0Q0.82 0 0.77-0.04L0.77-0.04L0.77-0.04Q0.73-0.08 0.73-0.14L0.73-0.14L0.73-8.26L0.73-8.26Q0.73-8.32 0.77-8.36L0.77-8.36L0.77-8.36Q0.82-8.40 0.88-8.40L0.88-8.40L3.89-8.40L3.89-8.40Q6.73-8.40 6.73-6.10L6.73-6.10L6.73-6.10Q6.73-4.90 5.71-4.38L5.71-4.38ZM2.48-6.95L2.48-6.95Q2.42-6.95 2.42-6.89L2.42-6.89L2.42-5.02L2.42-5.02Q2.42-4.96 2.48-4.96L2.48-4.96L3.89-4.96L3.89-4.96Q4.45-4.96 4.76-5.22L4.76-5.22L4.76-5.22Q5.08-5.48 5.08-5.94L5.08-5.94L5.08-5.94Q5.08-6.41 4.76-6.68L4.76-6.68L4.76-6.68Q4.45-6.95 3.89-6.95L3.89-6.95L2.48-6.95ZM3.98-1.46L3.98-1.46Q4.54-1.46 4.85-1.75L4.85-1.75L4.85-1.75Q5.16-2.03 5.16-2.52L5.16-2.52L5.16-2.52Q5.16-3.01 4.85-3.29L4.85-3.29L4.85-3.29Q4.54-3.58 3.97-3.58L3.97-3.58L2.48-3.58L2.48-3.58Q2.42-3.58 2.42-3.52L2.42-3.52L2.42-1.52L2.42-1.52Q2.42-1.46 2.48-1.46L2.48-1.46L3.98-1.46ZM13.52-3.72L13.52-3.72Q13.60-3.26 13.57-2.70L13.57-2.70L13.57-2.70Q13.56-2.56 13.42-2.56L13.42-2.56L9.71-2.56L9.71-2.56Q9.64-2.56 9.66-2.50L9.66-2.50L9.66-2.50Q9.70-2.26 9.79-2.02L9.79-2.02L9.79-2.02Q10.10-1.34 11.06-1.34L11.06-1.34L11.06-1.34Q11.83-1.36 12.28-1.97L12.28-1.97L12.28-1.97Q12.32-2.04 12.38-2.04L12.38-2.04L12.38-2.04Q12.42-2.04 12.47-1.99L12.47-1.99L13.33-1.14L13.33-1.14Q13.39-1.08 13.39-1.03L13.39-1.03L13.39-1.03Q13.39-1.01 13.34-0.94L13.34-0.94L13.34-0.94Q12.95-0.44 12.32-0.17L12.32-0.17L12.32-0.17Q11.70 0.10 10.96 0.10L10.96 0.10L10.96 0.10Q9.92 0.10 9.21-0.37L9.21-0.37L9.21-0.37Q8.50-0.84 8.18-1.68L8.18-1.68L8.18-1.68Q7.93-2.28 7.93-3.25L7.93-3.25L7.93-3.25Q7.93-3.91 8.11-4.42L8.11-4.42L8.11-4.42Q8.39-5.27 9.08-5.77L9.08-5.77L9.08-5.77Q9.77-6.28 10.72-6.28L10.72-6.28L10.72-6.28Q11.92-6.28 12.64-5.58L12.64-5.58L12.64-5.58Q13.37-4.88 13.52-3.72L13.52-3.72ZM10.73-4.81L10.73-4.81Q9.97-4.81 9.73-4.10L9.73-4.10L9.73-4.10Q9.68-3.95 9.65-3.72L9.65-3.72L9.65-3.72Q9.65-3.66 9.71-3.66L9.71-3.66L11.78-3.66L11.78-3.66Q11.86-3.66 11.83-3.72L11.83-3.72L11.83-3.72Q11.77-4.07 11.77-4.06L11.77-4.06L11.77-4.06Q11.66-4.42 11.39-4.61L11.39-4.61L11.39-4.61Q11.12-4.81 10.73-4.81L10.73-4.81ZM17.08 0.08L17.08 0.08Q16.27 0.08 15.67-0.14L15.67-0.14L15.67-0.14Q15.07-0.37 14.74-0.78L14.74-0.78L14.74-0.78Q14.41-1.19 14.41-1.70L14.41-1.70L14.41-1.82L14.41-1.82Q14.41-1.88 14.45-1.93L14.45-1.93L14.45-1.93Q14.50-1.97 14.56-1.97L14.56-1.97L15.89-1.97L15.89-1.97Q15.95-1.97 15.99-1.93L15.99-1.93L15.99-1.93Q16.03-1.88 16.03-1.82L16.03-1.82L16.03-1.81L16.03-1.81Q16.03-1.55 16.33-1.36L16.33-1.36L16.33-1.36Q16.62-1.18 17.06-1.18L17.06-1.18L17.06-1.18Q17.47-1.18 17.72-1.34L17.72-1.34L17.72-1.34Q17.98-1.50 17.98-1.74L17.98-1.74L17.98-1.74Q17.98-1.96 17.76-2.06L17.76-2.06L17.76-2.06Q17.54-2.17 17.05-2.29L17.05-2.29L17.05-2.29Q16.49-2.44 16.16-2.57L16.16-2.57L16.16-2.57Q15.40-2.83 14.94-3.22L14.94-3.22L14.94-3.22Q14.48-3.60 14.48-4.32L14.48-4.32L14.48-4.32Q14.48-5.21 15.17-5.73L15.17-5.73L15.17-5.73Q15.86-6.25 17.00-6.25L17.00-6.25L17.00-6.25Q17.77-6.25 18.35-6.01L18.35-6.01L18.35-6.01Q18.92-5.76 19.24-5.32L19.24-5.32L19.24-5.32Q19.56-4.87 19.56-4.31L19.56-4.31L19.56-4.31Q19.56-4.25 19.52-4.21L19.52-4.21L19.52-4.21Q19.48-4.16 19.42-4.16L19.42-4.16L18.13-4.16L18.13-4.16Q18.07-4.16 18.03-4.21L18.03-4.21L18.03-4.21Q17.99-4.25 17.99-4.31L17.99-4.31L17.99-4.31Q17.99-4.57 17.72-4.75L17.72-4.75L17.72-4.75Q17.45-4.93 17.00-4.93L17.00-4.93L17.00-4.93Q16.61-4.93 16.36-4.79L16.36-4.79L16.36-4.79Q16.10-4.64 16.10-4.39L16.10-4.39L16.10-4.39Q16.10-4.15 16.35-4.03L16.35-4.03L16.35-4.03Q16.60-3.91 17.17-3.78L17.17-3.78L17.17-3.78Q17.30-3.74 17.47-3.70L17.47-3.70L17.47-3.70Q17.64-3.66 17.83-3.60L17.83-3.60L17.83-3.60Q18.68-3.35 19.18-2.95L19.18-2.95L19.18-2.95Q19.67-2.56 19.67-1.80L19.67-1.80L19.67-1.80Q19.67-0.91 18.97-0.41L18.97-0.41L18.97-0.41Q18.26 0.08 17.08 0.08L17.08 0.08ZM24.18-4.96L24.18-4.96Q24.18-4.90 24.14-4.85L24.14-4.85L24.14-4.85Q24.10-4.81 24.04-4.81L24.04-4.81L22.88-4.81L22.88-4.81Q22.82-4.81 22.82-4.75L22.82-4.75L22.82-2.21L22.82-2.21Q22.82-1.81 22.99-1.62L22.99-1.62L22.99-1.62Q23.15-1.43 23.51-1.43L23.51-1.43L23.90-1.43L23.90-1.43Q23.96-1.43 24.01-1.39L24.01-1.39L24.01-1.39Q24.05-1.34 24.05-1.28L24.05-1.28L24.05-0.14L24.05-0.14Q24.05-0.01 23.90 0.01L23.90 0.01L23.90 0.01Q23.40 0.04 23.18 0.04L23.18 0.04L23.18 0.04Q22.19 0.04 21.70-0.29L21.70-0.29L21.70-0.29Q21.20-0.62 21.19-1.54L21.19-1.54L21.19-4.75L21.19-4.75Q21.19-4.81 21.13-4.81L21.13-4.81L20.45-4.81L20.45-4.81Q20.39-4.81 20.35-4.85L20.35-4.85L20.35-4.85Q20.30-4.90 20.30-4.96L20.30-4.96L20.30-6.02L20.30-6.02Q20.30-6.08 20.35-6.13L20.35-6.13L20.35-6.13Q20.39-6.17 20.45-6.17L20.45-6.17L21.13-6.17L21.13-6.17Q21.19-6.17 21.19-6.23L21.19-6.23L21.19-7.66L21.19-7.66Q21.19-7.72 21.23-7.76L21.23-7.76L21.23-7.76Q21.28-7.80 21.34-7.80L21.34-7.80L22.68-7.80L22.68-7.80Q22.74-7.80 22.78-7.76L22.78-7.76L22.78-7.76Q22.82-7.72 22.82-7.66L22.82-7.66L22.82-6.23L22.82-6.23Q22.82-6.17 22.88-6.17L22.88-6.17L24.04-6.17L24.04-6.17Q24.10-6.17 24.14-6.13L24.14-6.13L24.14-6.13Q24.18-6.08 24.18-6.02L24.18-6.02L24.18-4.96Z"/><path fill="#242530" transform="translate(30.15, 75.4)" d="M2.99 0.08L2.99 0.08Q2.21 0.08 1.63-0.17L1.63-0.17L1.63-0.17Q1.05-0.42 0.73-0.87L0.73-0.87L0.73-0.87Q0.42-1.32 0.42-1.93L0.42-1.93L0.42-2.18L0.42-2.18Q0.42-2.23 0.46-2.27L0.46-2.27L0.46-2.27Q0.49-2.30 0.54-2.30L0.54-2.30L1.43-2.30L1.43-2.30Q1.48-2.30 1.52-2.27L1.52-2.27L1.52-2.27Q1.55-2.23 1.55-2.18L1.55-2.18L1.55-1.99L1.55-1.99Q1.55-1.53 1.96-1.23L1.96-1.23L1.96-1.23Q2.37-0.92 3.08-0.92L3.08-0.92L3.08-0.92Q3.69-0.92 4-1.18L4-1.18L4-1.18Q4.31-1.44 4.31-1.85L4.31-1.85L4.31-1.85Q4.31-2.13 4.14-2.33L4.14-2.33L4.14-2.33Q3.97-2.52 3.66-2.68L3.66-2.68L3.66-2.68Q3.34-2.84 2.71-3.08L2.71-3.08L2.71-3.08Q2-3.34 1.56-3.57L1.56-3.57L1.56-3.57Q1.12-3.80 0.83-4.20L0.83-4.20L0.83-4.20Q0.53-4.59 0.53-5.18L0.53-5.18L0.53-5.18Q0.53-6.06 1.17-6.57L1.17-6.57L1.17-6.57Q1.81-7.08 2.88-7.08L2.88-7.08L2.88-7.08Q3.63-7.08 4.21-6.82L4.21-6.82L4.21-6.82Q4.78-6.56 5.10-6.09L5.10-6.09L5.10-6.09Q5.42-5.63 5.42-5.02L5.42-5.02L5.42-4.85L5.42-4.85Q5.42-4.80 5.38-4.76L5.38-4.76L5.38-4.76Q5.35-4.73 5.30-4.73L5.30-4.73L4.40-4.73L4.40-4.73Q4.35-4.73 4.32-4.76L4.32-4.76L4.32-4.76Q4.28-4.80 4.28-4.85L4.28-4.85L4.28-4.96L4.28-4.96Q4.28-5.43 3.90-5.75L3.90-5.75L3.90-5.75Q3.51-6.08 2.83-6.08L2.83-6.08L2.83-6.08Q2.28-6.08 1.98-5.85L1.98-5.85L1.98-5.85Q1.67-5.62 1.67-5.20L1.67-5.20L1.67-5.20Q1.67-4.90 1.83-4.71L1.83-4.71L1.83-4.71Q1.99-4.52 2.31-4.37L2.31-4.37L2.31-4.37Q2.63-4.21 3.30-3.97L3.30-3.97L3.30-3.97Q4.01-3.70 4.44-3.48L4.44-3.48L4.44-3.48Q4.86-3.26 5.17-2.87L5.17-2.87L5.17-2.87Q5.47-2.47 5.47-1.88L5.47-1.88L5.47-1.88Q5.47-0.98 4.80-0.45L4.80-0.45L4.80-0.45Q4.14 0.08 2.99 0.08L2.99 0.08ZM9.45-7.01L9.45-7.01Q10.08-7.01 10.56-6.75L10.56-6.75L10.56-6.75Q11.04-6.49 11.30-6.02L11.30-6.02L11.30-6.02Q11.57-5.54 11.57-4.92L11.57-4.92L11.57-4.92Q11.57-4.31 11.30-3.84L11.30-3.84L11.30-3.84Q11.03-3.37 10.54-3.12L10.54-3.12L10.54-3.12Q10.04-2.86 9.39-2.86L9.39-2.86L7.79-2.86L7.79-2.86Q7.74-2.86 7.74-2.81L7.74-2.81L7.74-0.12L7.74-0.12Q7.74-0.07 7.71-0.04L7.71-0.04L7.71-0.04Q7.67 0 7.62 0L7.62 0L6.70 0L6.70 0Q6.65 0 6.62-0.04L6.62-0.04L6.62-0.04Q6.58-0.07 6.58-0.12L6.58-0.12L6.58-6.89L6.58-6.89Q6.58-6.94 6.62-6.98L6.62-6.98L6.62-6.98Q6.65-7.01 6.70-7.01L6.70-7.01L9.45-7.01ZM9.28-3.80L9.28-3.80Q9.79-3.80 10.10-4.10L10.10-4.10L10.10-4.10Q10.41-4.40 10.41-4.89L10.41-4.89L10.41-4.89Q10.41-5.39 10.10-5.70L10.10-5.70L10.10-5.70Q9.79-6.01 9.28-6.01L9.28-6.01L7.79-6.01L7.79-6.01Q7.74-6.01 7.74-5.96L7.74-5.96L7.74-3.85L7.74-3.85Q7.74-3.80 7.79-3.80L7.79-3.80L9.28-3.80ZM16.52 0L16.52 0Q16.42 0 16.38-0.09L16.38-0.09L15.06-2.97L15.06-2.97Q15.04-3.01 15-3.01L15-3.01L13.80-3.01L13.80-3.01Q13.75-3.01 13.75-2.96L13.75-2.96L13.75-0.12L13.75-0.12Q13.75-0.07 13.71-0.04L13.71-0.04L13.71-0.04Q13.68 0 13.63 0L13.63 0L12.71 0L12.71 0Q12.66 0 12.63-0.04L12.63-0.04L12.63-0.04Q12.59-0.07 12.59-0.12L12.59-0.12L12.59-6.88L12.59-6.88Q12.59-6.93 12.63-6.96L12.63-6.96L12.63-6.96Q12.66-7 12.71-7L12.71-7L15.46-7L15.46-7Q16.07-7 16.54-6.75L16.54-6.75L16.54-6.75Q17.01-6.49 17.27-6.03L17.27-6.03L17.27-6.03Q17.53-5.56 17.53-4.96L17.53-4.96L17.53-4.96Q17.53-4.27 17.18-3.79L17.18-3.79L17.18-3.79Q16.82-3.30 16.19-3.11L16.19-3.11L16.19-3.11Q16.17-3.11 16.16-3.09L16.16-3.09L16.16-3.09Q16.15-3.07 16.16-3.05L16.16-3.05L17.57-0.14L17.57-0.14Q17.59-0.10 17.59-0.08L17.59-0.08L17.59-0.08Q17.59 0 17.48 0L17.48 0L16.52 0ZM13.80-6L13.80-6Q13.75-6 13.75-5.95L13.75-5.95L13.75-3.96L13.75-3.96Q13.75-3.91 13.80-3.91L13.80-3.91L15.30-3.91L15.30-3.91Q15.78-3.91 16.07-4.20L16.07-4.20L16.07-4.20Q16.37-4.48 16.37-4.95L16.37-4.95L16.37-4.95Q16.37-5.42 16.07-5.71L16.07-5.71L16.07-5.71Q15.78-6 15.30-6L15.30-6L13.80-6ZM18.84 0L18.84 0Q18.79 0 18.75-0.04L18.75-0.04L18.75-0.04Q18.72-0.07 18.72-0.12L18.72-0.12L18.72-6.88L18.72-6.88Q18.72-6.93 18.75-6.96L18.75-6.96L18.75-6.96Q18.79-7 18.84-7L18.84-7L19.76-7L19.76-7Q19.81-7 19.84-6.96L19.84-6.96L19.84-6.96Q19.88-6.93 19.88-6.88L19.88-6.88L19.88-0.12L19.88-0.12Q19.88-0.07 19.84-0.04L19.84-0.04L19.84-0.04Q19.81 0 19.76 0L19.76 0L18.84 0ZM25.41-6.88L25.41-6.88Q25.41-6.93 25.45-6.96L25.45-6.96L25.45-6.96Q25.48-7 25.53-7L25.53-7L26.45-7L26.45-7Q26.50-7 26.54-6.96L26.54-6.96L26.54-6.96Q26.57-6.93 26.57-6.88L26.57-6.88L26.57-0.12L26.57-0.12Q26.57-0.07 26.54-0.04L26.54-0.04L26.54-0.04Q26.50 0 26.45 0L26.45 0L25.56 0L25.56 0Q25.46 0 25.42-0.08L25.42-0.08L22.54-4.80L22.54-4.80Q22.52-4.83 22.50-4.83L22.50-4.83L22.50-4.83Q22.48-4.82 22.48-4.78L22.48-4.78L22.50-0.12L22.50-0.12Q22.50-0.07 22.46-0.04L22.46-0.04L22.46-0.04Q22.43 0 22.38 0L22.38 0L21.46 0L21.46 0Q21.41 0 21.38-0.04L21.38-0.04L21.38-0.04Q21.34-0.07 21.34-0.12L21.34-0.12L21.34-6.88L21.34-6.88Q21.34-6.93 21.38-6.96L21.38-6.96L21.38-6.96Q21.41-7 21.46-7L21.46-7L22.35-7L22.35-7Q22.45-7 22.49-6.92L22.49-6.92L25.36-2.20L25.36-2.20Q25.38-2.17 25.40-2.18L25.40-2.18L25.40-2.18Q25.42-2.18 25.42-2.22L25.42-2.22L25.41-6.88ZM30.37 0.08L30.37 0.08Q29.62 0.08 29.05-0.21L29.05-0.21L29.05-0.21Q28.48-0.51 28.17-1.05L28.17-1.05L28.17-1.05Q27.86-1.59 27.86-2.29L27.86-2.29L27.86-4.71L27.86-4.71Q27.86-5.42 28.17-5.96L28.17-5.96L28.17-5.96Q28.48-6.49 29.05-6.79L29.05-6.79L29.05-6.79Q29.62-7.08 30.37-7.08L30.37-7.08L30.37-7.08Q31.11-7.08 31.68-6.79L31.68-6.79L31.68-6.79Q32.24-6.50 32.55-6L32.55-6L32.55-6Q32.86-5.50 32.86-4.87L32.86-4.87L32.86-4.79L32.86-4.79Q32.86-4.74 32.83-4.71L32.83-4.71L32.83-4.71Q32.79-4.67 32.74-4.67L32.74-4.67L31.83-4.67L31.83-4.67Q31.78-4.67 31.75-4.71L31.75-4.71L31.75-4.71Q31.71-4.74 31.71-4.79L31.71-4.79L31.71-4.84L31.71-4.84Q31.71-5.38 31.34-5.73L31.34-5.73L31.34-5.73Q30.98-6.08 30.37-6.08L30.37-6.08L30.37-6.08Q29.76-6.08 29.39-5.71L29.39-5.71L29.39-5.71Q29.02-5.35 29.02-4.75L29.02-4.75L29.02-2.25L29.02-2.25Q29.02-1.65 29.41-1.28L29.41-1.28L29.41-1.28Q29.80-0.92 30.42-0.92L30.42-0.92L30.42-0.92Q31.02-0.92 31.37-1.24L31.37-1.24L31.37-1.24Q31.71-1.55 31.71-2.10L31.71-2.10L31.71-2.72L31.71-2.72Q31.71-2.77 31.66-2.77L31.66-2.77L30.43-2.77L30.43-2.77Q30.38-2.77 30.34-2.81L30.34-2.81L30.34-2.81Q30.31-2.84 30.31-2.89L30.31-2.89L30.31-3.63L30.31-3.63Q30.31-3.68 30.34-3.71L30.34-3.71L30.34-3.71Q30.38-3.75 30.43-3.75L30.43-3.75L32.74-3.75L32.74-3.75Q32.79-3.75 32.83-3.71L32.83-3.71L32.83-3.71Q32.86-3.68 32.86-3.63L32.86-3.63L32.86-2.35L32.86-2.35Q32.86-1.20 32.19-0.56L32.19-0.56L32.19-0.56Q31.51 0.08 30.37 0.08L30.37 0.08Z"/><path fill="#252530" transform="translate(30.36, 95.3)" d="M3.38-1.84L3.38-1.84Q3.35-1.81 3.36-1.78L3.36-1.78L3.36-1.78Q3.38-1.75 3.42-1.75L3.42-1.75L7.35-1.75L7.35-1.75Q7.42-1.75 7.47-1.70L7.47-1.70L7.47-1.70Q7.53-1.65 7.53-1.58L7.53-1.58L7.53-0.17L7.53-0.17Q7.53-0.10 7.47-0.05L7.47-0.05L7.47-0.05Q7.42 0 7.35 0L7.35 0L0.83 0L0.83 0Q0.75 0 0.70-0.05L0.70-0.05L0.70-0.05Q0.65-0.10 0.65-0.17L0.65-0.17L0.65-1.51L0.65-1.51Q0.65-1.64 0.74-1.73L0.74-1.73L0.74-1.73Q1.45-2.42 2.19-3.24L2.19-3.24L2.19-3.24Q2.93-4.06 3.12-4.26L3.12-4.26L3.12-4.26Q3.52-4.74 3.94-5.18L3.94-5.18L3.94-5.18Q5.26-6.64 5.26-7.35L5.26-7.35L5.26-7.35Q5.26-7.86 4.90-8.19L4.90-8.19L4.90-8.19Q4.54-8.51 3.96-8.51L3.96-8.51L3.96-8.51Q3.38-8.51 3.02-8.19L3.02-8.19L3.02-8.19Q2.65-7.86 2.65-7.32L2.65-7.32L2.65-6.96L2.65-6.96Q2.65-6.89 2.60-6.84L2.60-6.84L2.60-6.84Q2.55-6.79 2.48-6.79L2.48-6.79L0.77-6.79L0.77-6.79Q0.70-6.79 0.65-6.84L0.65-6.84L0.65-6.84Q0.59-6.89 0.59-6.96L0.59-6.96L0.59-7.64L0.59-7.64Q0.64-8.42 1.09-9.03L1.09-9.03L1.09-9.03Q1.54-9.63 2.28-9.95L2.28-9.95L2.28-9.95Q3.03-10.27 3.96-10.27L3.96-10.27L3.96-10.27Q4.99-10.27 5.75-9.88L5.75-9.88L5.75-9.88Q6.51-9.50 6.92-8.85L6.92-8.85L6.92-8.85Q7.34-8.19 7.34-7.40L7.34-7.40L7.34-7.40Q7.34-6.79 7.03-6.15L7.03-6.15L7.03-6.15Q6.73-5.51 6.12-4.77L6.12-4.77L6.12-4.77Q5.67-4.21 5.15-3.65L5.15-3.65L5.15-3.65Q4.63-3.10 3.60-2.06L3.60-2.06L3.38-1.84ZM12.24 0.16L12.24 0.16Q10.64 0.16 9.72-0.73L9.72-0.73L9.72-0.73Q8.79-1.62 8.79-3.16L8.79-3.16L8.79-6.99L8.79-6.99Q8.79-8.50 9.72-9.38L9.72-9.38L9.72-9.38Q10.64-10.27 12.24-10.27L12.24-10.27L12.24-10.27Q13.83-10.27 14.77-9.38L14.77-9.38L14.77-9.38Q15.70-8.50 15.70-6.99L15.70-6.99L15.70-3.16L15.70-3.16Q15.70-1.62 14.77-0.73L14.77-0.73L14.77-0.73Q13.83 0.16 12.24 0.16L12.24 0.16ZM12.24-1.59L12.24-1.59Q12.89-1.59 13.27-1.99L13.27-1.99L13.27-1.99Q13.66-2.39 13.66-3.06L13.66-3.06L13.66-7.05L13.66-7.05Q13.66-7.71 13.27-8.11L13.27-8.11L13.27-8.11Q12.89-8.51 12.24-8.51L12.24-8.51L12.24-8.51Q11.60-8.51 11.22-8.11L11.22-8.11L11.22-8.11Q10.83-7.71 10.83-7.05L10.83-7.05L10.83-3.06L10.83-3.06Q10.83-2.39 11.22-1.99L11.22-1.99L11.22-1.99Q11.60-1.59 12.24-1.59L12.24-1.59ZM19.76-1.84L19.76-1.84Q19.73-1.81 19.75-1.78L19.75-1.78L19.75-1.78Q19.76-1.75 19.81-1.75L19.81-1.75L23.74-1.75L23.74-1.75Q23.81-1.75 23.86-1.70L23.86-1.70L23.86-1.70Q23.91-1.65 23.91-1.58L23.91-1.58L23.91-0.17L23.91-0.17Q23.91-0.10 23.86-0.05L23.86-0.05L23.86-0.05Q23.81 0 23.74 0L23.74 0L17.21 0L17.21 0Q17.14 0 17.09-0.05L17.09-0.05L17.09-0.05Q17.04-0.10 17.04-0.17L17.04-0.17L17.04-1.51L17.04-1.51Q17.04-1.64 17.12-1.73L17.12-1.73L17.12-1.73Q17.84-2.42 18.57-3.24L18.57-3.24L18.57-3.24Q19.31-4.06 19.50-4.26L19.50-4.26L19.50-4.26Q19.91-4.74 20.33-5.18L20.33-5.18L20.33-5.18Q21.65-6.64 21.65-7.35L21.65-7.35L21.65-7.35Q21.65-7.86 21.29-8.19L21.29-8.19L21.29-8.19Q20.92-8.51 20.34-8.51L20.34-8.51L20.34-8.51Q19.76-8.51 19.40-8.19L19.40-8.19L19.40-8.19Q19.04-7.86 19.04-7.32L19.04-7.32L19.04-6.96L19.04-6.96Q19.04-6.89 18.99-6.84L18.99-6.84L18.99-6.84Q18.94-6.79 18.86-6.79L18.86-6.79L17.15-6.79L17.15-6.79Q17.08-6.79 17.03-6.84L17.03-6.84L17.03-6.84Q16.98-6.89 16.98-6.96L16.98-6.96L16.98-7.64L16.98-7.64Q17.02-8.42 17.47-9.03L17.47-9.03L17.47-9.03Q17.92-9.63 18.67-9.95L18.67-9.95L18.67-9.95Q19.42-10.27 20.34-10.27L20.34-10.27L20.34-10.27Q21.37-10.27 22.13-9.88L22.13-9.88L22.13-9.88Q22.90-9.50 23.31-8.85L23.31-8.85L23.31-8.85Q23.72-8.19 23.72-7.40L23.72-7.40L23.72-7.40Q23.72-6.79 23.42-6.15L23.42-6.15L23.42-6.15Q23.11-5.51 22.50-4.77L22.50-4.77L22.50-4.77Q22.05-4.21 21.53-3.65L21.53-3.65L21.53-3.65Q21.01-3.10 19.98-2.06L19.98-2.06L19.76-1.84ZM28.62 0.16L28.62 0.16Q27.03 0.16 26.10-0.73L26.10-0.73L26.10-0.73Q25.17-1.62 25.17-3.16L25.17-3.16L25.17-6.99L25.17-6.99Q25.17-8.50 26.10-9.38L26.10-9.38L26.10-9.38Q27.03-10.27 28.62-10.27L28.62-10.27L28.62-10.27Q30.22-10.27 31.15-9.38L31.15-9.38L31.15-9.38Q32.09-8.50 32.09-6.99L32.09-6.99L32.09-3.16L32.09-3.16Q32.09-1.62 31.15-0.73L31.15-0.73L31.15-0.73Q30.22 0.16 28.62 0.16L28.62 0.16ZM28.62-1.59L28.62-1.59Q29.28-1.59 29.66-1.99L29.66-1.99L29.66-1.99Q30.04-2.39 30.04-3.06L30.04-3.06L30.04-7.05L30.04-7.05Q30.04-7.71 29.66-8.11L29.66-8.11L29.66-8.11Q29.28-8.51 28.62-8.51L28.62-8.51L28.62-8.51Q27.99-8.51 27.60-8.11L27.60-8.11L27.60-8.11Q27.22-7.71 27.22-7.05L27.22-7.05L27.22-3.06L27.22-3.06Q27.22-2.39 27.60-1.99L27.60-1.99L27.60-1.99Q27.99-1.59 28.62-1.59L28.62-1.59Z"/></g>
</svg>
