<svg xmlns="http://www.w3.org/2000/svg" xmlns:xlink="http://www.w3.org/1999/xlink" viewBox="0 0 94 122">
  <g id="container">
    <path fill="#fff" d="M8.1 89.9L47.6 110l38-20.1V11.3H8.1z"/>
    <path fill="#f2f3f2" d="M86.4 11.6L7.3 91.3l41 20.3 38.1-19.5z"/>
    <path d="M5.5 37.5v54.1l1.4.7 39.5 20.1 1.2.6 1.2-.6 38.1-20.1 1.4-.7V8.7H5.5v28.8zm2.6 52.6V11.3h77.6v78.8l-38.1 20.1L8.1 90.1z" fill="#dcdedc"/>
    <path id="logo" d="M46.9 12.6c.4 0 .8 0 1.2.1L46.9 15c-1.8-.1-3.4 1.3-3.5 3.1-.1 1.8 1.3 3.4 3.1 3.5h.4c.8 0 1.6-.3 2.2-.8l1.3 2.2c-1 .7-2.2 1.1-3.5 1.1-3.2.1-5.9-2.3-6-5.5-.1-3.2 2.3-5.9 5.5-6h.5zm4.1 4.9l1.5 2.5-1.5 2.4-1.4-2.4h-2.9l1.5-2.5H51zm-2.4-.9c0-.4.1-.8.3-1.1.2-.3.6-.6.9-.8l.2-.1c.4-.2.5-.3.5-.5s-.3-.4-.5-.4c-.4 0-.7.2-.9.6l-.5-.5c.1-.2.3-.4.5-.6.3-.2.6-.2.9-.2.3 0 .7.1.9.3.2.2.4.5.4.8 0 .5-.3.9-.9 1.1l-.3.2c-.3.2-.5.3-.6.6h1.8v.7l-2.7-.1zm-1.7 12.5l9.5-5.4v-15H37.3v14.9l9.6 5.5z" fill="#ff492c"/>
    <path id="banner" d="M90.2 64.5H3.6l-3.2 7 3.2 7h86.6l3.1-7z" fill="#ffd200"/>
  <path fill="#252530" transform="translate(12.02, 60)" d="M4.89 0L4.89 0Q4.79 0 4.74-0.10L4.74-0.10L3.37-3.15L3.37-3.15Q3.34-3.19 3.30-3.19L3.30-3.19L2.28-3.19L2.28-3.19Q2.22-3.19 2.22-3.13L2.22-3.13L2.22-0.13L2.22-0.13Q2.22-0.08 2.18-0.04L2.18-0.04L2.18-0.04Q2.15 0 2.09 0L2.09 0L0.80 0L0.80 0Q0.75 0 0.71-0.04L0.71-0.04L0.71-0.04Q0.67-0.08 0.67-0.13L0.67-0.13L0.67-7.57L0.67-7.57Q0.67-7.62 0.71-7.66L0.71-7.66L0.71-7.66Q0.75-7.70 0.80-7.70L0.80-7.70L3.95-7.70L3.95-7.70Q4.65-7.70 5.19-7.41L5.19-7.41L5.19-7.41Q5.72-7.13 6.01-6.60L6.01-6.60L6.01-6.60Q6.30-6.07 6.30-5.38L6.30-5.38L6.30-5.38Q6.30-4.63 5.93-4.10L5.93-4.10L5.93-4.10Q5.55-3.56 4.88-3.34L4.88-3.34L4.88-3.34Q4.83-3.32 4.85-3.27L4.85-3.27L6.35-0.15L6.35-0.15Q6.37-0.11 6.37-0.09L6.37-0.09L6.37-0.09Q6.37 0 6.25 0L6.25 0L4.89 0ZM2.28-6.37L2.28-6.37Q2.22-6.37 2.22-6.31L2.22-6.31L2.22-4.43L2.22-4.43Q2.22-4.38 2.28-4.38L2.28-4.38L3.72-4.38L3.72-4.38Q4.18-4.38 4.47-4.65L4.47-4.65L4.47-4.65Q4.76-4.93 4.76-5.37L4.76-5.37L4.76-5.37Q4.76-5.81 4.47-6.09L4.47-6.09L4.47-6.09Q4.18-6.37 3.72-6.37L3.72-6.37L2.28-6.37ZM12.33-3.41L12.33-3.41Q12.40-2.99 12.38-2.47L12.38-2.47L12.38-2.47Q12.36-2.34 12.23-2.34L12.23-2.34L8.83-2.34L8.83-2.34Q8.77-2.34 8.79-2.29L8.79-2.29L8.79-2.29Q8.82-2.07 8.91-1.85L8.91-1.85L8.91-1.85Q9.20-1.23 10.08-1.23L10.08-1.23L10.08-1.23Q10.78-1.24 11.19-1.80L11.19-1.80L11.19-1.80Q11.23-1.87 11.29-1.87L11.29-1.87L11.29-1.87Q11.32-1.87 11.36-1.83L11.36-1.83L12.15-1.04L12.15-1.04Q12.21-0.99 12.21-0.95L12.21-0.95L12.21-0.95Q12.21-0.92 12.17-0.86L12.17-0.86L12.17-0.86Q11.80-0.41 11.23-0.16L11.23-0.16L11.23-0.16Q10.66 0.09 9.98 0.09L9.98 0.09L9.98 0.09Q9.03 0.09 8.38-0.34L8.38-0.34L8.38-0.34Q7.72-0.77 7.44-1.54L7.44-1.54L7.44-1.54Q7.20-2.09 7.20-2.98L7.20-2.98L7.20-2.98Q7.20-3.59 7.37-4.05L7.37-4.05L7.37-4.05Q7.62-4.83 8.26-5.29L8.26-5.29L8.26-5.29Q8.89-5.75 9.76-5.75L9.76-5.75L9.76-5.75Q10.86-5.75 11.52-5.11L11.52-5.11L11.52-5.11Q12.19-4.48 12.33-3.41L12.33-3.41ZM9.77-4.41L9.77-4.41Q9.07-4.41 8.86-3.76L8.86-3.76L8.86-3.76Q8.81-3.62 8.78-3.41L8.78-3.41L8.78-3.41Q8.78-3.35 8.83-3.35L8.83-3.35L10.74-3.35L10.74-3.35Q10.80-3.35 10.78-3.41L10.78-3.41L10.78-3.41Q10.72-3.73 10.72-3.72L10.72-3.72L10.72-3.72Q10.63-4.05 10.38-4.23L10.38-4.23L10.38-4.23Q10.13-4.41 9.77-4.41L9.77-4.41ZM16.84-5.52L16.84-5.52Q16.84-5.58 16.88-5.62L16.88-5.62L16.88-5.62Q16.92-5.65 16.97-5.65L16.97-5.65L18.26-5.65L18.26-5.65Q18.31-5.65 18.35-5.62L18.35-5.62L18.35-5.62Q18.39-5.58 18.39-5.52L18.39-5.52L18.39 1.91L18.39 1.91Q18.39 1.97 18.35 2.01L18.35 2.01L18.35 2.01Q18.31 2.05 18.26 2.05L18.26 2.05L16.97 2.05L16.97 2.05Q16.92 2.05 16.88 2.01L16.88 2.01L16.88 2.01Q16.84 1.97 16.84 1.91L16.84 1.91L16.84-0.44L16.84-0.44Q16.84-0.47 16.82-0.48L16.82-0.48L16.82-0.48Q16.80-0.49 16.77-0.46L16.77-0.46L16.77-0.46Q16.33 0.09 15.54 0.09L15.54 0.09L15.54 0.09Q14.74 0.09 14.20-0.32L14.20-0.32L14.20-0.32Q13.65-0.74 13.40-1.44L13.40-1.44L13.40-1.44Q13.20-2.02 13.20-2.82L13.20-2.82L13.20-2.82Q13.20-3.56 13.39-4.14L13.39-4.14L13.39-4.14Q13.63-4.89 14.18-5.32L14.18-5.32L14.18-5.32Q14.74-5.74 15.51-5.74L15.51-5.74L15.51-5.74Q16.31-5.74 16.77-5.14L16.77-5.14L16.77-5.14Q16.80-5.11 16.82-5.12L16.82-5.12L16.82-5.12Q16.84-5.13 16.84-5.16L16.84-5.16L16.84-5.52ZM16.59-1.68L16.59-1.68Q16.83-2.09 16.83-2.83L16.83-2.83L16.83-2.83Q16.83-3.53 16.61-3.94L16.61-3.94L16.61-3.94Q16.33-4.41 15.84-4.41L15.84-4.41L15.84-4.41Q15.30-4.41 15.03-3.94L15.03-3.94L15.03-3.94Q14.79-3.50 14.79-2.84L14.79-2.84L14.79-2.84Q14.79-2.10 15.07-1.67L15.07-1.67L15.07-1.67Q15.34-1.24 15.85-1.24L15.85-1.24L15.85-1.24Q16.33-1.24 16.59-1.68L16.59-1.68ZM22.88-5.52L22.88-5.52Q22.88-5.58 22.92-5.62L22.92-5.62L22.92-5.62Q22.96-5.65 23.01-5.65L23.01-5.65L24.30-5.65L24.30-5.65Q24.35-5.65 24.39-5.62L24.39-5.62L24.39-5.62Q24.43-5.58 24.43-5.52L24.43-5.52L24.43-0.13L24.43-0.13Q24.43-0.08 24.39-0.04L24.39-0.04L24.39-0.04Q24.35 0 24.30 0L24.30 0L23.01 0L23.01 0Q22.96 0 22.92-0.04L22.92-0.04L22.92-0.04Q22.88-0.08 22.88-0.13L22.88-0.13L22.88-0.51L22.88-0.51Q22.88-0.54 22.86-0.54L22.86-0.54L22.86-0.54Q22.84-0.55 22.81-0.52L22.81-0.52L22.81-0.52Q22.37 0.08 21.45 0.08L21.45 0.08L21.45 0.08Q20.61 0.08 20.07-0.43L20.07-0.43L20.07-0.43Q19.54-0.93 19.54-1.85L19.54-1.85L19.54-5.52L19.54-5.52Q19.54-5.58 19.57-5.62L19.57-5.62L19.57-5.62Q19.61-5.65 19.67-5.65L19.67-5.65L20.94-5.65L20.94-5.65Q21.00-5.65 21.04-5.62L21.04-5.62L21.04-5.62Q21.08-5.58 21.08-5.52L21.08-5.52L21.08-2.23L21.08-2.23Q21.08-1.79 21.31-1.52L21.31-1.52L21.31-1.52Q21.55-1.24 21.97-1.24L21.97-1.24L21.97-1.24Q22.34-1.24 22.58-1.47L22.58-1.47L22.58-1.47Q22.82-1.69 22.88-2.06L22.88-2.06L22.88-5.52ZM26.41-6.29L26.41-6.29Q26.04-6.29 25.79-6.54L25.79-6.54L25.79-6.54Q25.54-6.79 25.54-7.16L25.54-7.16L25.54-7.16Q25.54-7.55 25.78-7.79L25.78-7.79L25.78-7.79Q26.03-8.03 26.41-8.03L26.41-8.03L26.41-8.03Q26.80-8.03 27.04-7.79L27.04-7.79L27.04-7.79Q27.28-7.55 27.28-7.16L27.28-7.16L27.28-7.16Q27.28-6.79 27.03-6.54L27.03-6.54L27.03-6.54Q26.78-6.29 26.41-6.29L26.41-6.29ZM25.75 0L25.75 0Q25.70 0 25.66-0.04L25.66-0.04L25.66-0.04Q25.62-0.08 25.62-0.13L25.62-0.13L25.62-5.53L25.62-5.53Q25.62-5.59 25.66-5.63L25.66-5.63L25.66-5.63Q25.70-5.67 25.75-5.67L25.75-5.67L27.04-5.67L27.04-5.67Q27.09-5.67 27.13-5.63L27.13-5.63L27.13-5.63Q27.17-5.59 27.17-5.53L27.17-5.53L27.17-0.13L27.17-0.13Q27.17-0.08 27.13-0.04L27.13-0.04L27.13-0.04Q27.09 0 27.04 0L27.04 0L25.75 0ZM31.20-5.73L31.20-5.73Q31.59-5.73 31.82-5.58L31.82-5.58L31.82-5.58Q31.91-5.53 31.89-5.41L31.89-5.41L31.66-4.16L31.66-4.16Q31.65-4.03 31.50-4.08L31.50-4.08L31.50-4.08Q31.34-4.14 31.12-4.14L31.12-4.14L31.12-4.14Q31.03-4.14 30.88-4.11L30.88-4.11L30.88-4.11Q30.48-4.08 30.21-3.82L30.21-3.82L30.21-3.82Q29.93-3.56 29.93-3.13L29.93-3.13L29.93-0.13L29.93-0.13Q29.93-0.08 29.89-0.04L29.89-0.04L29.89-0.04Q29.85 0 29.80 0L29.80 0L28.51 0L28.51 0Q28.46 0 28.42-0.04L28.42-0.04L28.42-0.04Q28.38-0.08 28.38-0.13L28.38-0.13L28.38-5.52L28.38-5.52Q28.38-5.58 28.42-5.62L28.42-5.62L28.42-5.62Q28.46-5.65 28.51-5.65L28.51-5.65L29.80-5.65L29.80-5.65Q29.85-5.65 29.89-5.62L29.89-5.62L29.89-5.62Q29.93-5.58 29.93-5.52L29.93-5.52L29.93-5.10L29.93-5.10Q29.93-5.07 29.95-5.06L29.95-5.06L29.95-5.06Q29.97-5.05 29.99-5.07L29.99-5.07L29.99-5.07Q30.44-5.73 31.20-5.73L31.20-5.73ZM37.60-3.41L37.60-3.41Q37.66-2.99 37.64-2.47L37.64-2.47L37.64-2.47Q37.63-2.34 37.50-2.34L37.50-2.34L34.10-2.34L34.10-2.34Q34.03-2.34 34.06-2.29L34.06-2.29L34.06-2.29Q34.09-2.07 34.18-1.85L34.18-1.85L34.18-1.85Q34.46-1.23 35.34-1.23L35.34-1.23L35.34-1.23Q36.05-1.24 36.45-1.80L36.45-1.80L36.45-1.80Q36.50-1.87 36.55-1.87L36.55-1.87L36.55-1.87Q36.59-1.87 36.63-1.83L36.63-1.83L37.42-1.04L37.42-1.04Q37.48-0.99 37.48-0.95L37.48-0.95L37.48-0.95Q37.48-0.92 37.43-0.86L37.43-0.86L37.43-0.86Q37.07-0.41 36.50-0.16L36.50-0.16L36.50-0.16Q35.93 0.09 35.24 0.09L35.24 0.09L35.24 0.09Q34.30 0.09 33.64-0.34L33.64-0.34L33.64-0.34Q32.99-0.77 32.70-1.54L32.70-1.54L32.70-1.54Q32.47-2.09 32.47-2.98L32.47-2.98L32.47-2.98Q32.47-3.59 32.64-4.05L32.64-4.05L32.64-4.05Q32.89-4.83 33.52-5.29L33.52-5.29L33.52-5.29Q34.15-5.75 35.02-5.75L35.02-5.75L35.02-5.75Q36.12-5.75 36.79-5.11L36.79-5.11L36.79-5.11Q37.45-4.48 37.60-3.41L37.60-3.41ZM35.03-4.41L35.03-4.41Q34.34-4.41 34.12-3.76L34.12-3.76L34.12-3.76Q34.08-3.62 34.04-3.41L34.04-3.41L34.04-3.41Q34.04-3.35 34.10-3.35L34.10-3.35L36.00-3.35L36.00-3.35Q36.07-3.35 36.05-3.41L36.05-3.41L36.05-3.41Q35.99-3.73 35.99-3.72L35.99-3.72L35.99-3.72Q35.89-4.05 35.65-4.23L35.65-4.23L35.65-4.23Q35.40-4.41 35.03-4.41L35.03-4.41ZM44.87-5.74L44.87-5.74Q45.73-5.74 46.21-5.22L46.21-5.22L46.21-5.22Q46.69-4.71 46.69-3.77L46.69-3.77L46.69-0.13L46.69-0.13Q46.69-0.08 46.66-0.04L46.66-0.04L46.66-0.04Q46.62 0 46.56 0L46.56 0L45.28 0L45.28 0Q45.22 0 45.18-0.04L45.18-0.04L45.18-0.04Q45.14-0.08 45.14-0.13L45.14-0.13L45.14-3.43L45.14-3.43Q45.14-3.88 44.91-4.15L44.91-4.15L44.91-4.15Q44.68-4.41 44.30-4.41L44.30-4.41L44.30-4.41Q43.91-4.41 43.67-4.15L43.67-4.15L43.67-4.15Q43.43-3.88 43.43-3.44L43.43-3.44L43.43-0.13L43.43-0.13Q43.43-0.08 43.39-0.04L43.39-0.04L43.39-0.04Q43.35 0 43.30 0L43.30 0L42.02 0L42.02 0Q41.96 0 41.93-0.04L41.93-0.04L41.93-0.04Q41.89-0.08 41.89-0.13L41.89-0.13L41.89-3.43L41.89-3.43Q41.89-3.87 41.65-4.14L41.65-4.14L41.65-4.14Q41.40-4.41 41.02-4.41L41.02-4.41L41.02-4.41Q40.67-4.41 40.43-4.20L40.43-4.20L40.43-4.20Q40.19-3.99 40.15-3.62L40.15-3.62L40.15-0.13L40.15-0.13Q40.15-0.08 40.11-0.04L40.11-0.04L40.11-0.04Q40.07 0 40.02 0L40.02 0L38.73 0L38.73 0Q38.68 0 38.64-0.04L38.64-0.04L38.64-0.04Q38.60-0.08 38.60-0.13L38.60-0.13L38.60-5.52L38.60-5.52Q38.60-5.58 38.64-5.62L38.64-5.62L38.64-5.62Q38.68-5.65 38.73-5.65L38.73-5.65L40.02-5.65L40.02-5.65Q40.07-5.65 40.11-5.62L40.11-5.62L40.11-5.62Q40.15-5.58 40.15-5.52L40.15-5.52L40.15-5.09L40.15-5.09Q40.15-5.06 40.17-5.05L40.17-5.05L40.17-5.05Q40.19-5.04 40.22-5.07L40.22-5.07L40.22-5.07Q40.67-5.74 41.61-5.74L41.61-5.74L41.61-5.74Q42.16-5.74 42.58-5.51L42.58-5.51L42.58-5.51Q42.99-5.28 43.21-4.85L43.21-4.85L43.21-4.85Q43.24-4.79 43.28-4.85L43.28-4.85L43.28-4.85Q43.53-5.30 43.94-5.52L43.94-5.52L43.94-5.52Q44.35-5.74 44.87-5.74L44.87-5.74ZM52.79-3.41L52.79-3.41Q52.85-2.99 52.83-2.47L52.83-2.47L52.83-2.47Q52.82-2.34 52.69-2.34L52.69-2.34L49.29-2.34L49.29-2.34Q49.22-2.34 49.25-2.29L49.25-2.29L49.25-2.29Q49.28-2.07 49.37-1.85L49.37-1.85L49.37-1.85Q49.65-1.23 50.53-1.23L50.53-1.23L50.53-1.23Q51.24-1.24 51.64-1.80L51.64-1.80L51.64-1.80Q51.69-1.87 51.74-1.87L51.74-1.87L51.74-1.87Q51.78-1.87 51.82-1.83L51.82-1.83L52.61-1.04L52.61-1.04Q52.67-0.99 52.67-0.95L52.67-0.95L52.67-0.95Q52.67-0.92 52.62-0.86L52.62-0.86L52.62-0.86Q52.26-0.41 51.69-0.16L51.69-0.16L51.69-0.16Q51.12 0.09 50.43 0.09L50.43 0.09L50.43 0.09Q49.49 0.09 48.83-0.34L48.83-0.34L48.83-0.34Q48.18-0.77 47.89-1.54L47.89-1.54L47.89-1.54Q47.66-2.09 47.66-2.98L47.66-2.98L47.66-2.98Q47.66-3.59 47.83-4.05L47.83-4.05L47.83-4.05Q48.08-4.83 48.71-5.29L48.71-5.29L48.71-5.29Q49.35-5.75 50.21-5.75L50.21-5.75L50.21-5.75Q51.31-5.75 51.98-5.11L51.98-5.11L51.98-5.11Q52.65-4.48 52.79-3.41L52.79-3.41ZM50.23-4.41L50.23-4.41Q49.53-4.41 49.31-3.76L49.31-3.76L49.31-3.76Q49.27-3.62 49.24-3.41L49.24-3.41L49.24-3.41Q49.24-3.35 49.29-3.35L49.29-3.35L51.19-3.35L51.19-3.35Q51.26-3.35 51.24-3.41L51.24-3.41L51.24-3.41Q51.18-3.73 51.18-3.72L51.18-3.72L51.18-3.72Q51.08-4.05 50.84-4.23L50.84-4.23L50.84-4.23Q50.59-4.41 50.23-4.41L50.23-4.41ZM56.74-5.74L56.74-5.74Q57.62-5.74 58.16-5.20L58.16-5.20L58.16-5.20Q58.70-4.66 58.70-3.74L58.70-3.74L58.70-0.13L58.70-0.13Q58.70-0.08 58.66-0.04L58.66-0.04L58.66-0.04Q58.62 0 58.56 0L58.56 0L57.28 0L57.28 0Q57.22 0 57.18-0.04L57.18-0.04L57.18-0.04Q57.14-0.08 57.14-0.13L57.14-0.13L57.14-3.42L57.14-3.42Q57.14-3.86 56.90-4.14L56.90-4.14L56.90-4.14Q56.65-4.41 56.24-4.41L56.24-4.41L56.24-4.41Q55.84-4.41 55.59-4.14L55.59-4.14L55.59-4.14Q55.34-3.86 55.34-3.42L55.34-3.42L55.34-0.13L55.34-0.13Q55.34-0.08 55.30-0.04L55.30-0.04L55.30-0.04Q55.26 0 55.21 0L55.21 0L53.92 0L53.92 0Q53.87 0 53.83-0.04L53.83-0.04L53.83-0.04Q53.79-0.08 53.79-0.13L53.79-0.13L53.79-5.52L53.79-5.52Q53.79-5.58 53.83-5.62L53.83-5.62L53.83-5.62Q53.87-5.65 53.92-5.65L53.92-5.65L55.21-5.65L55.21-5.65Q55.26-5.65 55.30-5.62L55.30-5.62L55.30-5.62Q55.34-5.58 55.34-5.52L55.34-5.52L55.34-5.14L55.34-5.14Q55.34-5.10 55.36-5.09L55.36-5.09L55.36-5.09Q55.38-5.08 55.40-5.10L55.40-5.10L55.40-5.10Q55.85-5.74 56.74-5.74L56.74-5.74ZM63.05-4.54L63.05-4.54Q63.05-4.49 63.01-4.45L63.01-4.45L63.01-4.45Q62.97-4.41 62.92-4.41L62.92-4.41L61.86-4.41L61.86-4.41Q61.81-4.41 61.81-4.36L61.81-4.36L61.81-2.02L61.81-2.02Q61.81-1.66 61.96-1.48L61.96-1.48L61.96-1.48Q62.11-1.31 62.44-1.31L62.44-1.31L62.80-1.31L62.80-1.31Q62.85-1.31 62.89-1.27L62.89-1.27L62.89-1.27Q62.93-1.23 62.93-1.18L62.93-1.18L62.93-0.13L62.93-0.13Q62.93-0.01 62.80 0.01L62.80 0.01L62.80 0.01Q62.34 0.03 62.14 0.03L62.14 0.03L62.14 0.03Q61.23 0.03 60.77-0.27L60.77-0.27L60.77-0.27Q60.32-0.57 60.31-1.41L60.31-1.41L60.31-4.36L60.31-4.36Q60.31-4.41 60.26-4.41L60.26-4.41L59.63-4.41L59.63-4.41Q59.58-4.41 59.54-4.45L59.54-4.45L59.54-4.45Q59.50-4.49 59.50-4.54L59.50-4.54L59.50-5.52L59.50-5.52Q59.50-5.58 59.54-5.62L59.54-5.62L59.54-5.62Q59.58-5.65 59.63-5.65L59.63-5.65L60.26-5.65L60.26-5.65Q60.31-5.65 60.31-5.71L60.31-5.71L60.31-7.02L60.31-7.02Q60.31-7.07 60.35-7.11L60.35-7.11L60.35-7.11Q60.39-7.15 60.44-7.15L60.44-7.15L61.68-7.15L61.68-7.15Q61.73-7.15 61.77-7.11L61.77-7.11L61.77-7.11Q61.81-7.07 61.81-7.02L61.81-7.02L61.81-5.71L61.81-5.71Q61.81-5.65 61.86-5.65L61.86-5.65L62.92-5.65L62.92-5.65Q62.97-5.65 63.01-5.62L63.01-5.62L63.01-5.62Q63.05-5.58 63.05-5.52L63.05-5.52L63.05-4.54ZM66.24 0.08L66.24 0.08Q65.50 0.08 64.95-0.13L64.95-0.13L64.95-0.13Q64.40-0.34 64.10-0.71L64.10-0.71L64.10-0.71Q63.80-1.09 63.80-1.56L63.80-1.56L63.80-1.67L63.80-1.67Q63.80-1.73 63.84-1.77L63.84-1.77L63.84-1.77Q63.88-1.80 63.93-1.80L63.93-1.80L65.15-1.80L65.15-1.80Q65.21-1.80 65.25-1.77L65.25-1.77L65.25-1.77Q65.28-1.73 65.28-1.67L65.28-1.67L65.28-1.66L65.28-1.66Q65.28-1.42 65.55-1.25L65.55-1.25L65.55-1.25Q65.82-1.08 66.23-1.08L66.23-1.08L66.23-1.08Q66.60-1.08 66.84-1.23L66.84-1.23L66.84-1.23Q67.07-1.38 67.07-1.59L67.07-1.59L67.07-1.59Q67.07-1.79 66.87-1.89L66.87-1.89L66.87-1.89Q66.67-1.99 66.22-2.10L66.22-2.10L66.22-2.10Q65.70-2.23 65.41-2.35L65.41-2.35L65.41-2.35Q64.70-2.60 64.28-2.95L64.28-2.95L64.28-2.95Q63.87-3.30 63.87-3.96L63.87-3.96L63.87-3.96Q63.87-4.77 64.50-5.25L64.50-5.25L64.50-5.25Q65.13-5.73 66.18-5.73L66.18-5.73L66.18-5.73Q66.88-5.73 67.41-5.51L67.41-5.51L67.41-5.51Q67.94-5.28 68.23-4.87L68.23-4.87L68.23-4.87Q68.52-4.47 68.52-3.95L68.52-3.95L68.52-3.95Q68.52-3.89 68.48-3.86L68.48-3.86L68.48-3.86Q68.44-3.82 68.39-3.82L68.39-3.82L67.21-3.82L67.21-3.82Q67.15-3.82 67.12-3.86L67.12-3.86L67.12-3.86Q67.08-3.89 67.08-3.95L67.08-3.95L67.08-3.95Q67.08-4.19 66.83-4.36L66.83-4.36L66.83-4.36Q66.58-4.52 66.18-4.52L66.18-4.52L66.18-4.52Q65.81-4.52 65.58-4.39L65.58-4.39L65.58-4.39Q65.35-4.26 65.35-4.03L65.35-4.03L65.35-4.03Q65.35-3.81 65.58-3.70L65.58-3.70L65.58-3.70Q65.80-3.59 66.33-3.46L66.33-3.46L66.33-3.46Q66.45-3.43 66.60-3.39L66.60-3.39L66.60-3.39Q66.76-3.35 66.93-3.30L66.93-3.30L66.93-3.30Q67.72-3.07 68.17-2.71L68.17-2.71L68.17-2.71Q68.62-2.34 68.62-1.65L68.62-1.65L68.62-1.65Q68.62-0.84 67.97-0.38L67.97-0.38L67.97-0.38Q67.33 0.08 66.24 0.08L66.24 0.08Z"/><path fill="#252530" transform="translate(19.34, 49)" d="M5.24-4.01L5.24-4.01Q5.17-3.98 5.24-3.95L5.24-3.95L5.24-3.95Q6.28-3.41 6.28-2.16L6.28-2.16L6.28-2.16Q6.28-1.09 5.55-0.54L5.55-0.54L5.55-0.54Q4.83 0 3.65 0L3.65 0L0.80 0L0.80 0Q0.75 0 0.71-0.04L0.71-0.04L0.71-0.04Q0.67-0.08 0.67-0.13L0.67-0.13L0.67-7.57L0.67-7.57Q0.67-7.62 0.71-7.66L0.71-7.66L0.71-7.66Q0.75-7.70 0.80-7.70L0.80-7.70L3.56-7.70L3.56-7.70Q6.17-7.70 6.17-5.59L6.17-5.59L6.17-5.59Q6.17-4.49 5.24-4.01L5.24-4.01ZM2.28-6.37L2.28-6.37Q2.22-6.37 2.22-6.31L2.22-6.31L2.22-4.60L2.22-4.60Q2.22-4.54 2.28-4.54L2.28-4.54L3.56-4.54L3.56-4.54Q4.08-4.54 4.37-4.79L4.37-4.79L4.37-4.79Q4.65-5.03 4.65-5.44L4.65-5.44L4.65-5.44Q4.65-5.87 4.37-6.12L4.37-6.12L4.37-6.12Q4.08-6.37 3.56-6.37L3.56-6.37L2.28-6.37ZM3.65-1.34L3.65-1.34Q4.16-1.34 4.44-1.60L4.44-1.60L4.44-1.60Q4.73-1.86 4.73-2.31L4.73-2.31L4.73-2.31Q4.73-2.76 4.44-3.02L4.44-3.02L4.44-3.02Q4.16-3.28 3.64-3.28L3.64-3.28L2.28-3.28L2.28-3.28Q2.22-3.28 2.22-3.22L2.22-3.22L2.22-1.40L2.22-1.40Q2.22-1.34 2.28-1.34L2.28-1.34L3.65-1.34ZM12.40-3.41L12.40-3.41Q12.46-2.99 12.44-2.47L12.44-2.47L12.44-2.47Q12.43-2.34 12.30-2.34L12.30-2.34L8.90-2.34L8.90-2.34Q8.83-2.34 8.85-2.29L8.85-2.29L8.85-2.29Q8.89-2.07 8.98-1.85L8.98-1.85L8.98-1.85Q9.26-1.23 10.14-1.23L10.14-1.23L10.14-1.23Q10.85-1.24 11.25-1.80L11.25-1.80L11.25-1.80Q11.30-1.87 11.35-1.87L11.35-1.87L11.35-1.87Q11.38-1.87 11.43-1.83L11.43-1.83L12.22-1.04L12.22-1.04Q12.28-0.99 12.28-0.95L12.28-0.95L12.28-0.95Q12.28-0.92 12.23-0.86L12.23-0.86L12.23-0.86Q11.87-0.41 11.30-0.16L11.30-0.16L11.30-0.16Q10.72 0.09 10.04 0.09L10.04 0.09L10.04 0.09Q9.10 0.09 8.44-0.34L8.44-0.34L8.44-0.34Q7.79-0.77 7.50-1.54L7.50-1.54L7.50-1.54Q7.27-2.09 7.27-2.98L7.27-2.98L7.27-2.98Q7.27-3.59 7.44-4.05L7.44-4.05L7.44-4.05Q7.69-4.83 8.32-5.29L8.32-5.29L8.32-5.29Q8.95-5.75 9.82-5.75L9.82-5.75L9.82-5.75Q10.92-5.75 11.59-5.11L11.59-5.11L11.59-5.11Q12.25-4.48 12.40-3.41L12.40-3.41ZM9.83-4.41L9.83-4.41Q9.14-4.41 8.92-3.76L8.92-3.76L8.92-3.76Q8.88-3.62 8.84-3.41L8.84-3.41L8.84-3.41Q8.84-3.35 8.90-3.35L8.90-3.35L10.80-3.35L10.80-3.35Q10.87-3.35 10.85-3.41L10.85-3.41L10.85-3.41Q10.79-3.73 10.79-3.72L10.79-3.72L10.79-3.72Q10.69-4.05 10.44-4.23L10.44-4.23L10.44-4.23Q10.20-4.41 9.83-4.41L9.83-4.41ZM15.65 0.08L15.65 0.08Q14.92 0.08 14.37-0.13L14.37-0.13L14.37-0.13Q13.82-0.34 13.51-0.71L13.51-0.71L13.51-0.71Q13.21-1.09 13.21-1.56L13.21-1.56L13.21-1.67L13.21-1.67Q13.21-1.73 13.25-1.77L13.25-1.77L13.25-1.77Q13.29-1.80 13.34-1.80L13.34-1.80L14.56-1.80L14.56-1.80Q14.62-1.80 14.66-1.77L14.66-1.77L14.66-1.77Q14.70-1.73 14.70-1.67L14.70-1.67L14.70-1.66L14.70-1.66Q14.70-1.42 14.97-1.25L14.97-1.25L14.97-1.25Q15.23-1.08 15.64-1.08L15.64-1.08L15.64-1.08Q16.02-1.08 16.25-1.23L16.25-1.23L16.25-1.23Q16.48-1.38 16.48-1.59L16.48-1.59L16.48-1.59Q16.48-1.79 16.28-1.89L16.28-1.89L16.28-1.89Q16.08-1.99 15.63-2.10L15.63-2.10L15.63-2.10Q15.11-2.23 14.82-2.35L14.82-2.35L14.82-2.35Q14.11-2.60 13.69-2.95L13.69-2.95L13.69-2.95Q13.28-3.30 13.28-3.96L13.28-3.96L13.28-3.96Q13.28-4.77 13.91-5.25L13.91-5.25L13.91-5.25Q14.54-5.73 15.59-5.73L15.59-5.73L15.59-5.73Q16.29-5.73 16.82-5.51L16.82-5.51L16.82-5.51Q17.35-5.28 17.64-4.87L17.64-4.87L17.64-4.87Q17.93-4.47 17.93-3.95L17.93-3.95L17.93-3.95Q17.93-3.89 17.89-3.86L17.89-3.86L17.89-3.86Q17.85-3.82 17.80-3.82L17.80-3.82L16.62-3.82L16.62-3.82Q16.57-3.82 16.53-3.86L16.53-3.86L16.53-3.86Q16.49-3.89 16.49-3.95L16.49-3.95L16.49-3.95Q16.49-4.19 16.24-4.36L16.24-4.36L16.24-4.36Q15.99-4.52 15.59-4.52L15.59-4.52L15.59-4.52Q15.22-4.52 14.99-4.39L14.99-4.39L14.99-4.39Q14.76-4.26 14.76-4.03L14.76-4.03L14.76-4.03Q14.76-3.81 14.99-3.70L14.99-3.70L14.99-3.70Q15.21-3.59 15.74-3.46L15.74-3.46L15.74-3.46Q15.86-3.43 16.02-3.39L16.02-3.39L16.02-3.39Q16.17-3.35 16.35-3.30L16.35-3.30L16.35-3.30Q17.13-3.07 17.58-2.71L17.58-2.71L17.58-2.71Q18.03-2.34 18.03-1.65L18.03-1.65L18.03-1.65Q18.03-0.84 17.39-0.38L17.39-0.38L17.39-0.38Q16.74 0.08 15.65 0.08L15.65 0.08ZM22.16-4.54L22.16-4.54Q22.16-4.49 22.13-4.45L22.13-4.45L22.13-4.45Q22.09-4.41 22.03-4.41L22.03-4.41L20.98-4.41L20.98-4.41Q20.92-4.41 20.92-4.36L20.92-4.36L20.92-2.02L20.92-2.02Q20.92-1.66 21.07-1.48L21.07-1.48L21.07-1.48Q21.22-1.31 21.55-1.31L21.55-1.31L21.91-1.31L21.91-1.31Q21.97-1.31 22.01-1.27L22.01-1.27L22.01-1.27Q22.04-1.23 22.04-1.18L22.04-1.18L22.04-0.13L22.04-0.13Q22.04-0.01 21.91 0.01L21.91 0.01L21.91 0.01Q21.45 0.03 21.25 0.03L21.25 0.03L21.25 0.03Q20.34 0.03 19.89-0.27L19.89-0.27L19.89-0.27Q19.44-0.57 19.43-1.41L19.43-1.41L19.43-4.36L19.43-4.36Q19.43-4.41 19.37-4.41L19.37-4.41L18.74-4.41L18.74-4.41Q18.69-4.41 18.65-4.45L18.65-4.45L18.65-4.45Q18.61-4.49 18.61-4.54L18.61-4.54L18.61-5.52L18.61-5.52Q18.61-5.58 18.65-5.62L18.65-5.62L18.65-5.62Q18.69-5.65 18.74-5.65L18.74-5.65L19.37-5.65L19.37-5.65Q19.43-5.65 19.43-5.71L19.43-5.71L19.43-7.02L19.43-7.02Q19.43-7.07 19.46-7.11L19.46-7.11L19.46-7.11Q19.50-7.15 19.56-7.15L19.56-7.15L20.79-7.15L20.79-7.15Q20.84-7.15 20.88-7.11L20.88-7.11L20.88-7.11Q20.92-7.07 20.92-7.02L20.92-7.02L20.92-5.71L20.92-5.71Q20.92-5.65 20.98-5.65L20.98-5.65L22.03-5.65L22.03-5.65Q22.09-5.65 22.13-5.62L22.13-5.62L22.13-5.62Q22.16-5.58 22.16-5.52L22.16-5.52L22.16-4.54ZM30.35-7.61L30.35-7.61Q30.40-7.70 30.50-7.70L30.50-7.70L31.79-7.70L31.79-7.70Q31.84-7.70 31.88-7.66L31.88-7.66L31.88-7.66Q31.92-7.62 31.92-7.57L31.92-7.57L31.92-0.13L31.92-0.13Q31.92-0.08 31.88-0.04L31.88-0.04L31.88-0.04Q31.84 0 31.79 0L31.79 0L30.50 0L30.50 0Q30.45 0 30.41-0.04L30.41-0.04L30.41-0.04Q30.37-0.08 30.37-0.13L30.37-0.13L30.37-4.98L30.37-4.98Q30.37-5.03 30.35-5.03L30.35-5.03L30.35-5.03Q30.33-5.03 30.30-4.99L30.30-4.99L29.14-3.17L29.14-3.17Q29.08-3.08 28.98-3.08L28.98-3.08L28.34-3.08L28.34-3.08Q28.24-3.08 28.18-3.17L28.18-3.17L27.02-4.99L27.02-4.99Q26.99-5.03 26.97-5.02L26.97-5.02L26.97-5.02Q26.95-5.02 26.95-4.97L26.95-4.97L26.95-0.13L26.95-0.13Q26.95-0.08 26.91-0.04L26.91-0.04L26.91-0.04Q26.87 0 26.82 0L26.82 0L25.53 0L25.53 0Q25.48 0 25.44-0.04L25.44-0.04L25.44-0.04Q25.40-0.08 25.40-0.13L25.40-0.13L25.40-7.57L25.40-7.57Q25.40-7.62 25.44-7.66L25.44-7.66L25.44-7.66Q25.48-7.70 25.53-7.70L25.53-7.70L26.82-7.70L26.82-7.70Q26.92-7.70 26.97-7.61L26.97-7.61L28.62-5.05L28.62-5.05Q28.65-4.98 28.69-5.05L28.69-5.05L30.35-7.61ZM38.17-3.41L38.17-3.41Q38.24-2.99 38.21-2.47L38.21-2.47L38.21-2.47Q38.20-2.34 38.07-2.34L38.07-2.34L34.67-2.34L34.67-2.34Q34.61-2.34 34.63-2.29L34.63-2.29L34.63-2.29Q34.66-2.07 34.75-1.85L34.75-1.85L34.75-1.85Q35.03-1.23 35.91-1.23L35.91-1.23L35.91-1.23Q36.62-1.24 37.03-1.80L37.03-1.80L37.03-1.80Q37.07-1.87 37.13-1.87L37.13-1.87L37.13-1.87Q37.16-1.87 37.20-1.83L37.20-1.83L37.99-1.04L37.99-1.04Q38.05-0.99 38.05-0.95L38.05-0.95L38.05-0.95Q38.05-0.92 38.00-0.86L38.00-0.86L38.00-0.86Q37.64-0.41 37.07-0.16L37.07-0.16L37.07-0.16Q36.50 0.09 35.82 0.09L35.82 0.09L35.82 0.09Q34.87 0.09 34.22-0.34L34.22-0.34L34.22-0.34Q33.56-0.77 33.27-1.54L33.27-1.54L33.27-1.54Q33.04-2.09 33.04-2.98L33.04-2.98L33.04-2.98Q33.04-3.59 33.21-4.05L33.21-4.05L33.21-4.05Q33.46-4.83 34.09-5.29L34.09-5.29L34.09-5.29Q34.73-5.75 35.60-5.75L35.60-5.75L35.60-5.75Q36.70-5.75 37.36-5.11L37.36-5.11L37.36-5.11Q38.03-4.48 38.17-3.41L38.17-3.41ZM35.61-4.41L35.61-4.41Q34.91-4.41 34.69-3.76L34.69-3.76L34.69-3.76Q34.65-3.62 34.62-3.41L34.62-3.41L34.62-3.41Q34.62-3.35 34.67-3.35L34.67-3.35L36.57-3.35L36.57-3.35Q36.64-3.35 36.62-3.41L36.62-3.41L36.62-3.41Q36.56-3.73 36.56-3.72L36.56-3.72L36.56-3.72Q36.46-4.05 36.22-4.23L36.22-4.23L36.22-4.23Q35.97-4.41 35.61-4.41L35.61-4.41ZM44.18-3.41L44.18-3.41Q44.24-2.99 44.22-2.47L44.22-2.47L44.22-2.47Q44.21-2.34 44.08-2.34L44.08-2.34L40.68-2.34L40.68-2.34Q40.61-2.34 40.63-2.29L40.63-2.29L40.63-2.29Q40.67-2.07 40.75-1.85L40.75-1.85L40.75-1.85Q41.04-1.23 41.92-1.23L41.92-1.23L41.92-1.23Q42.63-1.24 43.03-1.80L43.03-1.80L43.03-1.80Q43.08-1.87 43.13-1.87L43.13-1.87L43.13-1.87Q43.16-1.87 43.21-1.83L43.21-1.83L44-1.04L44-1.04Q44.05-0.99 44.05-0.95L44.05-0.95L44.05-0.95Q44.05-0.92 44.01-0.86L44.01-0.86L44.01-0.86Q43.65-0.41 43.08-0.16L43.08-0.16L43.08-0.16Q42.50 0.09 41.82 0.09L41.82 0.09L41.82 0.09Q40.88 0.09 40.22-0.34L40.22-0.34L40.22-0.34Q39.57-0.77 39.28-1.54L39.28-1.54L39.28-1.54Q39.05-2.09 39.05-2.98L39.05-2.98L39.05-2.98Q39.05-3.59 39.21-4.05L39.21-4.05L39.21-4.05Q39.47-4.83 40.10-5.29L40.10-5.29L40.10-5.29Q40.73-5.75 41.60-5.75L41.60-5.75L41.60-5.75Q42.70-5.75 43.37-5.11L43.37-5.11L43.37-5.11Q44.03-4.48 44.18-3.41L44.18-3.41ZM41.61-4.41L41.61-4.41Q40.92-4.41 40.70-3.76L40.70-3.76L40.70-3.76Q40.66-3.62 40.62-3.41L40.62-3.41L40.62-3.41Q40.62-3.35 40.68-3.35L40.68-3.35L42.58-3.35L42.58-3.35Q42.65-3.35 42.63-3.41L42.63-3.41L42.63-3.41Q42.57-3.73 42.57-3.72L42.57-3.72L42.57-3.72Q42.47-4.05 42.22-4.23L42.22-4.23L42.22-4.23Q41.98-4.41 41.61-4.41L41.61-4.41ZM48.42-4.54L48.42-4.54Q48.42-4.49 48.38-4.45L48.38-4.45L48.38-4.45Q48.34-4.41 48.29-4.41L48.29-4.41L47.23-4.41L47.23-4.41Q47.18-4.41 47.18-4.36L47.18-4.36L47.18-2.02L47.18-2.02Q47.18-1.66 47.33-1.48L47.33-1.48L47.33-1.48Q47.48-1.31 47.81-1.31L47.81-1.31L48.17-1.31L48.17-1.31Q48.22-1.31 48.26-1.27L48.26-1.27L48.26-1.27Q48.30-1.23 48.30-1.18L48.30-1.18L48.30-0.13L48.30-0.13Q48.30-0.01 48.17 0.01L48.17 0.01L48.17 0.01Q47.71 0.03 47.51 0.03L47.51 0.03L47.51 0.03Q46.60 0.03 46.14-0.27L46.14-0.27L46.14-0.27Q45.69-0.57 45.68-1.41L45.68-1.41L45.68-4.36L45.68-4.36Q45.68-4.41 45.63-4.41L45.63-4.41L45.00-4.41L45.00-4.41Q44.95-4.41 44.91-4.45L44.91-4.45L44.91-4.45Q44.87-4.49 44.87-4.54L44.87-4.54L44.87-5.52L44.87-5.52Q44.87-5.58 44.91-5.62L44.91-5.62L44.91-5.62Q44.95-5.65 45.00-5.65L45.00-5.65L45.63-5.65L45.63-5.65Q45.68-5.65 45.68-5.71L45.68-5.71L45.68-7.02L45.68-7.02Q45.68-7.07 45.72-7.11L45.72-7.11L45.72-7.11Q45.76-7.15 45.81-7.15L45.81-7.15L47.05-7.15L47.05-7.15Q47.10-7.15 47.14-7.11L47.14-7.11L47.14-7.11Q47.18-7.07 47.18-7.02L47.18-7.02L47.18-5.71L47.18-5.71Q47.18-5.65 47.23-5.65L47.23-5.65L48.29-5.65L48.29-5.65Q48.34-5.65 48.38-5.62L48.38-5.62L48.38-5.62Q48.42-5.58 48.42-5.52L48.42-5.52L48.42-4.54ZM51.61 0.08L51.61 0.08Q50.88 0.08 50.32-0.13L50.32-0.13L50.32-0.13Q49.77-0.34 49.47-0.71L49.47-0.71L49.47-0.71Q49.17-1.09 49.17-1.56L49.17-1.56L49.17-1.67L49.17-1.67Q49.17-1.73 49.21-1.77L49.21-1.77L49.21-1.77Q49.25-1.80 49.30-1.80L49.30-1.80L50.52-1.80L50.52-1.80Q50.58-1.80 50.62-1.77L50.62-1.77L50.62-1.77Q50.65-1.73 50.65-1.67L50.65-1.67L50.65-1.66L50.65-1.66Q50.65-1.42 50.92-1.25L50.92-1.25L50.92-1.25Q51.19-1.08 51.60-1.08L51.60-1.08L51.60-1.08Q51.97-1.08 52.21-1.23L52.21-1.23L52.21-1.23Q52.44-1.38 52.44-1.59L52.44-1.59L52.44-1.59Q52.44-1.79 52.24-1.89L52.24-1.89L52.24-1.89Q52.04-1.99 51.59-2.10L51.59-2.10L51.59-2.10Q51.07-2.23 50.78-2.35L50.78-2.35L50.78-2.35Q50.07-2.60 49.65-2.95L49.65-2.95L49.65-2.95Q49.24-3.30 49.24-3.96L49.24-3.96L49.24-3.96Q49.24-4.77 49.87-5.25L49.87-5.25L49.87-5.25Q50.50-5.73 51.55-5.73L51.55-5.73L51.55-5.73Q52.25-5.73 52.78-5.51L52.78-5.51L52.78-5.51Q53.31-5.28 53.60-4.87L53.60-4.87L53.60-4.87Q53.89-4.47 53.89-3.95L53.89-3.95L53.89-3.95Q53.89-3.89 53.85-3.86L53.85-3.86L53.85-3.86Q53.81-3.82 53.76-3.82L53.76-3.82L52.58-3.82L52.58-3.82Q52.52-3.82 52.49-3.86L52.49-3.86L52.49-3.86Q52.45-3.89 52.45-3.95L52.45-3.95L52.45-3.95Q52.45-4.19 52.20-4.36L52.20-4.36L52.20-4.36Q51.95-4.52 51.55-4.52L51.55-4.52L51.55-4.52Q51.18-4.52 50.95-4.39L50.95-4.39L50.95-4.39Q50.72-4.26 50.72-4.03L50.72-4.03L50.72-4.03Q50.72-3.81 50.95-3.70L50.95-3.70L50.95-3.70Q51.17-3.59 51.70-3.46L51.70-3.46L51.70-3.46Q51.82-3.43 51.97-3.39L51.97-3.39L51.97-3.39Q52.13-3.35 52.30-3.30L52.30-3.30L52.30-3.30Q53.09-3.07 53.54-2.71L53.54-2.71L53.54-2.71Q53.99-2.34 53.99-1.65L53.99-1.65L53.99-1.65Q53.99-0.84 53.34-0.38L53.34-0.38L53.34-0.38Q52.70 0.08 51.61 0.08L51.61 0.08Z"/><path fill="#242530" transform="translate(30.15, 75.4)" d="M2.99 0.08L2.99 0.08Q2.21 0.08 1.63-0.17L1.63-0.17L1.63-0.17Q1.05-0.42 0.73-0.87L0.73-0.87L0.73-0.87Q0.42-1.32 0.42-1.93L0.42-1.93L0.42-2.18L0.42-2.18Q0.42-2.23 0.46-2.27L0.46-2.27L0.46-2.27Q0.49-2.30 0.54-2.30L0.54-2.30L1.43-2.30L1.43-2.30Q1.48-2.30 1.52-2.27L1.52-2.27L1.52-2.27Q1.55-2.23 1.55-2.18L1.55-2.18L1.55-1.99L1.55-1.99Q1.55-1.53 1.96-1.23L1.96-1.23L1.96-1.23Q2.37-0.92 3.08-0.92L3.08-0.92L3.08-0.92Q3.69-0.92 4-1.18L4-1.18L4-1.18Q4.31-1.44 4.31-1.85L4.31-1.85L4.31-1.85Q4.31-2.13 4.14-2.33L4.14-2.33L4.14-2.33Q3.97-2.52 3.66-2.68L3.66-2.68L3.66-2.68Q3.34-2.84 2.71-3.08L2.71-3.08L2.71-3.08Q2-3.34 1.56-3.57L1.56-3.57L1.56-3.57Q1.12-3.80 0.83-4.20L0.83-4.20L0.83-4.20Q0.53-4.59 0.53-5.18L0.53-5.18L0.53-5.18Q0.53-6.06 1.17-6.57L1.17-6.57L1.17-6.57Q1.81-7.08 2.88-7.08L2.88-7.08L2.88-7.08Q3.63-7.08 4.21-6.82L4.21-6.82L4.21-6.82Q4.78-6.56 5.10-6.09L5.10-6.09L5.10-6.09Q5.42-5.63 5.42-5.02L5.42-5.02L5.42-4.85L5.42-4.85Q5.42-4.80 5.38-4.76L5.38-4.76L5.38-4.76Q5.35-4.73 5.30-4.73L5.30-4.73L4.40-4.73L4.40-4.73Q4.35-4.73 4.32-4.76L4.32-4.76L4.32-4.76Q4.28-4.80 4.28-4.85L4.28-4.85L4.28-4.96L4.28-4.96Q4.28-5.43 3.90-5.75L3.90-5.75L3.90-5.75Q3.51-6.08 2.83-6.08L2.83-6.08L2.83-6.08Q2.28-6.08 1.98-5.85L1.98-5.85L1.98-5.85Q1.67-5.62 1.67-5.20L1.67-5.20L1.67-5.20Q1.67-4.90 1.83-4.71L1.83-4.71L1.83-4.71Q1.99-4.52 2.31-4.37L2.31-4.37L2.31-4.37Q2.63-4.21 3.30-3.97L3.30-3.97L3.30-3.97Q4.01-3.70 4.44-3.48L4.44-3.48L4.44-3.48Q4.86-3.26 5.17-2.87L5.17-2.87L5.17-2.87Q5.47-2.47 5.47-1.88L5.47-1.88L5.47-1.88Q5.47-0.98 4.80-0.45L4.80-0.45L4.80-0.45Q4.14 0.08 2.99 0.08L2.99 0.08ZM9.45-7.01L9.45-7.01Q10.08-7.01 10.56-6.75L10.56-6.75L10.56-6.75Q11.04-6.49 11.30-6.02L11.30-6.02L11.30-6.02Q11.57-5.54 11.57-4.92L11.57-4.92L11.57-4.92Q11.57-4.31 11.30-3.84L11.30-3.84L11.30-3.84Q11.03-3.37 10.54-3.12L10.54-3.12L10.54-3.12Q10.04-2.86 9.39-2.86L9.39-2.86L7.79-2.86L7.79-2.86Q7.74-2.86 7.74-2.81L7.74-2.81L7.74-0.12L7.74-0.12Q7.74-0.07 7.71-0.04L7.71-0.04L7.71-0.04Q7.67 0 7.62 0L7.62 0L6.70 0L6.70 0Q6.65 0 6.62-0.04L6.62-0.04L6.62-0.04Q6.58-0.07 6.58-0.12L6.58-0.12L6.58-6.89L6.58-6.89Q6.58-6.94 6.62-6.98L6.62-6.98L6.62-6.98Q6.65-7.01 6.70-7.01L6.70-7.01L9.45-7.01ZM9.28-3.80L9.28-3.80Q9.79-3.80 10.10-4.10L10.10-4.10L10.10-4.10Q10.41-4.40 10.41-4.89L10.41-4.89L10.41-4.89Q10.41-5.39 10.10-5.70L10.10-5.70L10.10-5.70Q9.79-6.01 9.28-6.01L9.28-6.01L7.79-6.01L7.79-6.01Q7.74-6.01 7.74-5.96L7.74-5.96L7.74-3.85L7.74-3.85Q7.74-3.80 7.79-3.80L7.79-3.80L9.28-3.80ZM16.52 0L16.52 0Q16.42 0 16.38-0.09L16.38-0.09L15.06-2.97L15.06-2.97Q15.04-3.01 15-3.01L15-3.01L13.80-3.01L13.80-3.01Q13.75-3.01 13.75-2.96L13.75-2.96L13.75-0.12L13.75-0.12Q13.75-0.07 13.71-0.04L13.71-0.04L13.71-0.04Q13.68 0 13.63 0L13.63 0L12.71 0L12.71 0Q12.66 0 12.63-0.04L12.63-0.04L12.63-0.04Q12.59-0.07 12.59-0.12L12.59-0.12L12.59-6.88L12.59-6.88Q12.59-6.93 12.63-6.96L12.63-6.96L12.63-6.96Q12.66-7 12.71-7L12.71-7L15.46-7L15.46-7Q16.07-7 16.54-6.75L16.54-6.75L16.54-6.75Q17.01-6.49 17.27-6.03L17.27-6.03L17.27-6.03Q17.53-5.56 17.53-4.96L17.53-4.96L17.53-4.96Q17.53-4.27 17.18-3.79L17.18-3.79L17.18-3.79Q16.82-3.30 16.19-3.11L16.19-3.11L16.19-3.11Q16.17-3.11 16.16-3.09L16.16-3.09L16.16-3.09Q16.15-3.07 16.16-3.05L16.16-3.05L17.57-0.14L17.57-0.14Q17.59-0.10 17.59-0.08L17.59-0.08L17.59-0.08Q17.59 0 17.48 0L17.48 0L16.52 0ZM13.80-6L13.80-6Q13.75-6 13.75-5.95L13.75-5.95L13.75-3.96L13.75-3.96Q13.75-3.91 13.80-3.91L13.80-3.91L15.30-3.91L15.30-3.91Q15.78-3.91 16.07-4.20L16.07-4.20L16.07-4.20Q16.37-4.48 16.37-4.95L16.37-4.95L16.37-4.95Q16.37-5.42 16.07-5.71L16.07-5.71L16.07-5.71Q15.78-6 15.30-6L15.30-6L13.80-6ZM18.84 0L18.84 0Q18.79 0 18.75-0.04L18.75-0.04L18.75-0.04Q18.72-0.07 18.72-0.12L18.72-0.12L18.72-6.88L18.72-6.88Q18.72-6.93 18.75-6.96L18.75-6.96L18.75-6.96Q18.79-7 18.84-7L18.84-7L19.76-7L19.76-7Q19.81-7 19.84-6.96L19.84-6.96L19.84-6.96Q19.88-6.93 19.88-6.88L19.88-6.88L19.88-0.12L19.88-0.12Q19.88-0.07 19.84-0.04L19.84-0.04L19.84-0.04Q19.81 0 19.76 0L19.76 0L18.84 0ZM25.41-6.88L25.41-6.88Q25.41-6.93 25.45-6.96L25.45-6.96L25.45-6.96Q25.48-7 25.53-7L25.53-7L26.45-7L26.45-7Q26.50-7 26.54-6.96L26.54-6.96L26.54-6.96Q26.57-6.93 26.57-6.88L26.57-6.88L26.57-0.12L26.57-0.12Q26.57-0.07 26.54-0.04L26.54-0.04L26.54-0.04Q26.50 0 26.45 0L26.45 0L25.56 0L25.56 0Q25.46 0 25.42-0.08L25.42-0.08L22.54-4.80L22.54-4.80Q22.52-4.83 22.50-4.83L22.50-4.83L22.50-4.83Q22.48-4.82 22.48-4.78L22.48-4.78L22.50-0.12L22.50-0.12Q22.50-0.07 22.46-0.04L22.46-0.04L22.46-0.04Q22.43 0 22.38 0L22.38 0L21.46 0L21.46 0Q21.41 0 21.38-0.04L21.38-0.04L21.38-0.04Q21.34-0.07 21.34-0.12L21.34-0.12L21.34-6.88L21.34-6.88Q21.34-6.93 21.38-6.96L21.38-6.96L21.38-6.96Q21.41-7 21.46-7L21.46-7L22.35-7L22.35-7Q22.45-7 22.49-6.92L22.49-6.92L25.36-2.20L25.36-2.20Q25.38-2.17 25.40-2.18L25.40-2.18L25.40-2.18Q25.42-2.18 25.42-2.22L25.42-2.22L25.41-6.88ZM30.37 0.08L30.37 0.08Q29.62 0.08 29.05-0.21L29.05-0.21L29.05-0.21Q28.48-0.51 28.17-1.05L28.17-1.05L28.17-1.05Q27.86-1.59 27.86-2.29L27.86-2.29L27.86-4.71L27.86-4.71Q27.86-5.42 28.17-5.96L28.17-5.96L28.17-5.96Q28.48-6.49 29.05-6.79L29.05-6.79L29.05-6.79Q29.62-7.08 30.37-7.08L30.37-7.08L30.37-7.08Q31.11-7.08 31.68-6.79L31.68-6.79L31.68-6.79Q32.24-6.50 32.55-6L32.55-6L32.55-6Q32.86-5.50 32.86-4.87L32.86-4.87L32.86-4.79L32.86-4.79Q32.86-4.74 32.83-4.71L32.83-4.71L32.83-4.71Q32.79-4.67 32.74-4.67L32.74-4.67L31.83-4.67L31.83-4.67Q31.78-4.67 31.75-4.71L31.75-4.71L31.75-4.71Q31.71-4.74 31.71-4.79L31.71-4.79L31.71-4.84L31.71-4.84Q31.71-5.38 31.34-5.73L31.34-5.73L31.34-5.73Q30.98-6.08 30.37-6.08L30.37-6.08L30.37-6.08Q29.76-6.08 29.39-5.71L29.39-5.71L29.39-5.71Q29.02-5.35 29.02-4.75L29.02-4.75L29.02-2.25L29.02-2.25Q29.02-1.65 29.41-1.28L29.41-1.28L29.41-1.28Q29.80-0.92 30.42-0.92L30.42-0.92L30.42-0.92Q31.02-0.92 31.37-1.24L31.37-1.24L31.37-1.24Q31.71-1.55 31.71-2.10L31.71-2.10L31.71-2.72L31.71-2.72Q31.71-2.77 31.66-2.77L31.66-2.77L30.43-2.77L30.43-2.77Q30.38-2.77 30.34-2.81L30.34-2.81L30.34-2.81Q30.31-2.84 30.31-2.89L30.31-2.89L30.31-3.63L30.31-3.63Q30.31-3.68 30.34-3.71L30.34-3.71L30.34-3.71Q30.38-3.75 30.43-3.75L30.43-3.75L32.74-3.75L32.74-3.75Q32.79-3.75 32.83-3.71L32.83-3.71L32.83-3.71Q32.86-3.68 32.86-3.63L32.86-3.63L32.86-2.35L32.86-2.35Q32.86-1.20 32.19-0.56L32.19-0.56L32.19-0.56Q31.51 0.08 30.37 0.08L30.37 0.08Z"/><path fill="#252530" transform="translate(30.36, 95.3)" d="M3.38-1.84L3.38-1.84Q3.35-1.81 3.36-1.78L3.36-1.78L3.36-1.78Q3.38-1.75 3.42-1.75L3.42-1.75L7.35-1.75L7.35-1.75Q7.42-1.75 7.47-1.70L7.47-1.70L7.47-1.70Q7.53-1.65 7.53-1.58L7.53-1.58L7.53-0.17L7.53-0.17Q7.53-0.10 7.47-0.05L7.47-0.05L7.47-0.05Q7.42 0 7.35 0L7.35 0L0.83 0L0.83 0Q0.75 0 0.70-0.05L0.70-0.05L0.70-0.05Q0.65-0.10 0.65-0.17L0.65-0.17L0.65-1.51L0.65-1.51Q0.65-1.64 0.74-1.73L0.74-1.73L0.74-1.73Q1.45-2.42 2.19-3.24L2.19-3.24L2.19-3.24Q2.93-4.06 3.12-4.26L3.12-4.26L3.12-4.26Q3.52-4.74 3.94-5.18L3.94-5.18L3.94-5.18Q5.26-6.64 5.26-7.35L5.26-7.35L5.26-7.35Q5.26-7.86 4.90-8.19L4.90-8.19L4.90-8.19Q4.54-8.51 3.96-8.51L3.96-8.51L3.96-8.51Q3.38-8.51 3.02-8.19L3.02-8.19L3.02-8.19Q2.65-7.86 2.65-7.32L2.65-7.32L2.65-6.96L2.65-6.96Q2.65-6.89 2.60-6.84L2.60-6.84L2.60-6.84Q2.55-6.79 2.48-6.79L2.48-6.79L0.77-6.79L0.77-6.79Q0.70-6.79 0.65-6.84L0.65-6.84L0.65-6.84Q0.59-6.89 0.59-6.96L0.59-6.96L0.59-7.64L0.59-7.64Q0.64-8.42 1.09-9.03L1.09-9.03L1.09-9.03Q1.54-9.63 2.28-9.95L2.28-9.95L2.28-9.95Q3.03-10.27 3.96-10.27L3.96-10.27L3.96-10.27Q4.99-10.27 5.75-9.88L5.75-9.88L5.75-9.88Q6.51-9.50 6.92-8.85L6.92-8.85L6.92-8.85Q7.34-8.19 7.34-7.40L7.34-7.40L7.34-7.40Q7.34-6.79 7.03-6.15L7.03-6.15L7.03-6.15Q6.73-5.51 6.12-4.77L6.12-4.77L6.12-4.77Q5.67-4.21 5.15-3.65L5.15-3.65L5.15-3.65Q4.63-3.10 3.60-2.06L3.60-2.06L3.38-1.84ZM12.24 0.16L12.24 0.16Q10.64 0.16 9.72-0.73L9.72-0.73L9.72-0.73Q8.79-1.62 8.79-3.16L8.79-3.16L8.79-6.99L8.79-6.99Q8.79-8.50 9.72-9.38L9.72-9.38L9.72-9.38Q10.64-10.27 12.24-10.27L12.24-10.27L12.24-10.27Q13.83-10.27 14.77-9.38L14.77-9.38L14.77-9.38Q15.70-8.50 15.70-6.99L15.70-6.99L15.70-3.16L15.70-3.16Q15.70-1.62 14.77-0.73L14.77-0.73L14.77-0.73Q13.83 0.16 12.24 0.16L12.24 0.16ZM12.24-1.59L12.24-1.59Q12.89-1.59 13.27-1.99L13.27-1.99L13.27-1.99Q13.66-2.39 13.66-3.06L13.66-3.06L13.66-7.05L13.66-7.05Q13.66-7.71 13.27-8.11L13.27-8.11L13.27-8.11Q12.89-8.51 12.24-8.51L12.24-8.51L12.24-8.51Q11.60-8.51 11.22-8.11L11.22-8.11L11.22-8.11Q10.83-7.71 10.83-7.05L10.83-7.05L10.83-3.06L10.83-3.06Q10.83-2.39 11.22-1.99L11.22-1.99L11.22-1.99Q11.60-1.59 12.24-1.59L12.24-1.59ZM19.76-1.84L19.76-1.84Q19.73-1.81 19.75-1.78L19.75-1.78L19.75-1.78Q19.76-1.75 19.81-1.75L19.81-1.75L23.74-1.75L23.74-1.75Q23.81-1.75 23.86-1.70L23.86-1.70L23.86-1.70Q23.91-1.65 23.91-1.58L23.91-1.58L23.91-0.17L23.91-0.17Q23.91-0.10 23.86-0.05L23.86-0.05L23.86-0.05Q23.81 0 23.74 0L23.74 0L17.21 0L17.21 0Q17.14 0 17.09-0.05L17.09-0.05L17.09-0.05Q17.04-0.10 17.04-0.17L17.04-0.17L17.04-1.51L17.04-1.51Q17.04-1.64 17.12-1.73L17.12-1.73L17.12-1.73Q17.84-2.42 18.57-3.24L18.57-3.24L18.57-3.24Q19.31-4.06 19.50-4.26L19.50-4.26L19.50-4.26Q19.91-4.74 20.33-5.18L20.33-5.18L20.33-5.18Q21.65-6.64 21.65-7.35L21.65-7.35L21.65-7.35Q21.65-7.86 21.29-8.19L21.29-8.19L21.29-8.19Q20.92-8.51 20.34-8.51L20.34-8.51L20.34-8.51Q19.76-8.51 19.40-8.19L19.40-8.19L19.40-8.19Q19.04-7.86 19.04-7.32L19.04-7.32L19.04-6.96L19.04-6.96Q19.04-6.89 18.99-6.84L18.99-6.84L18.99-6.84Q18.94-6.79 18.86-6.79L18.86-6.79L17.15-6.79L17.15-6.79Q17.08-6.79 17.03-6.84L17.03-6.84L17.03-6.84Q16.98-6.89 16.98-6.96L16.98-6.96L16.98-7.64L16.98-7.64Q17.02-8.42 17.47-9.03L17.47-9.03L17.47-9.03Q17.92-9.63 18.67-9.95L18.67-9.95L18.67-9.95Q19.42-10.27 20.34-10.27L20.34-10.27L20.34-10.27Q21.37-10.27 22.13-9.88L22.13-9.88L22.13-9.88Q22.90-9.50 23.31-8.85L23.31-8.85L23.31-8.85Q23.72-8.19 23.72-7.40L23.72-7.40L23.72-7.40Q23.72-6.79 23.42-6.15L23.42-6.15L23.42-6.15Q23.11-5.51 22.50-4.77L22.50-4.77L22.50-4.77Q22.05-4.21 21.53-3.65L21.53-3.65L21.53-3.65Q21.01-3.10 19.98-2.06L19.98-2.06L19.76-1.84ZM28.62 0.16L28.62 0.16Q27.03 0.16 26.10-0.73L26.10-0.73L26.10-0.73Q25.17-1.62 25.17-3.16L25.17-3.16L25.17-6.99L25.17-6.99Q25.17-8.50 26.10-9.38L26.10-9.38L26.10-9.38Q27.03-10.27 28.62-10.27L28.62-10.27L28.62-10.27Q30.22-10.27 31.15-9.38L31.15-9.38L31.15-9.38Q32.09-8.50 32.09-6.99L32.09-6.99L32.09-3.16L32.09-3.16Q32.09-1.62 31.15-0.73L31.15-0.73L31.15-0.73Q30.22 0.16 28.62 0.16L28.62 0.16ZM28.62-1.59L28.62-1.59Q29.28-1.59 29.66-1.99L29.66-1.99L29.66-1.99Q30.04-2.39 30.04-3.06L30.04-3.06L30.04-7.05L30.04-7.05Q30.04-7.71 29.66-8.11L29.66-8.11L29.66-8.11Q29.28-8.51 28.62-8.51L28.62-8.51L28.62-8.51Q27.99-8.51 27.60-8.11L27.60-8.11L27.60-8.11Q27.22-7.71 27.22-7.05L27.22-7.05L27.22-3.06L27.22-3.06Q27.22-2.39 27.60-1.99L27.60-1.99L27.60-1.99Q27.99-1.59 28.62-1.59L28.62-1.59Z"/></g>
</svg>
