<?xml version="1.0" encoding="UTF-8"?>
<svg width="87px" height="15px" viewBox="0 0 87 15" version="1.1" xmlns="http://www.w3.org/2000/svg" xmlns:xlink="http://www.w3.org/1999/xlink">
    <!-- Generator: Sketch 64 (93537) - https://sketch.com -->
    <title>Group 2 Copy 3</title>
    <desc>Created with Sketch.</desc>
    <g id="Latest" stroke="none" stroke-width="1" fill="none" fill-rule="evenodd">
        <g id="01-copy-17" transform="translate(-1085.000000, -2226.000000)" fill="#6448F3" fill-rule="nonzero">
            <g id="Group-8" transform="translate(732.000000, 2089.000000)">
                <g id="Group-4">
                    <g id="Group-2-Copy-3" transform="translate(353.000000, 137.000000)">
                        <polygon id="Star" points="8 12 3.29771798 14.472136 4.19577393 9.23606798 0.39154787 5.52786405 5.64885899 4.76393202 8 0 10.351141 4.76393202 15.6084521 5.52786405 11.8042261 9.23606798 12.702282 14.472136"></polygon>
                        <polygon id="Star-Copy" points="25.75 12 21.047718 14.472136 21.9457739 9.23606798 18.1415479 5.52786405 23.398859 4.76393202 25.75 0 28.101141 4.76393202 33.3584521 5.52786405 29.5542261 9.23606798 30.452282 14.472136"></polygon>
                        <polygon id="Star-Copy-2" points="43.5 12 38.797718 14.472136 39.6957739 9.23606798 35.8915479 5.52786405 41.148859 4.76393202 43.5 0 45.851141 4.76393202 51.1084521 5.52786405 47.3042261 9.23606798 48.202282 14.472136"></polygon>
                        <polygon id="Star-Copy-3" points="61.25 12 56.547718 14.472136 57.4457739 9.23606798 53.6415479 5.52786405 58.898859 4.76393202 61.25 0 63.601141 4.76393202 68.8584521 5.52786405 65.0542261 9.23606798 65.952282 14.472136"></polygon>
                        <polygon id="Star-Copy-4" points="79 12 74.297718 14.472136 75.1957739 9.23606798 71.3915479 5.52786405 76.648859 4.76393202 79 0 81.351141 4.76393202 86.6084521 5.52786405 82.8042261 9.23606798 83.702282 14.472136"></polygon>
                    </g>
                </g>
            </g>
        </g>
    </g>
</svg>