<svg xmlns="http://www.w3.org/2000/svg" xmlns:xlink="http://www.w3.org/1999/xlink" viewBox="0 0 94 122">
  <g id="container">
    <path fill="#fff" d="M8.1 89.9L47.6 110l38-20.1V11.3H8.1z"/>
    <path fill="#f2f3f2" d="M86.4 11.6L7.3 91.3l41 20.3 38.1-19.5z"/>
    <path d="M5.5 37.5v54.1l1.4.7 39.5 20.1 1.2.6 1.2-.6 38.1-20.1 1.4-.7V8.7H5.5v28.8zm2.6 52.6V11.3h77.6v78.8l-38.1 20.1L8.1 90.1z" fill="#dcdedc"/>
    <path id="logo" d="M46.9 12.6c.4 0 .8 0 1.2.1L46.9 15c-1.8-.1-3.4 1.3-3.5 3.1-.1 1.8 1.3 3.4 3.1 3.5h.4c.8 0 1.6-.3 2.2-.8l1.3 2.2c-1 .7-2.2 1.1-3.5 1.1-3.2.1-5.9-2.3-6-5.5-.1-3.2 2.3-5.9 5.5-6h.5zm4.1 4.9l1.5 2.5-1.5 2.4-1.4-2.4h-2.9l1.5-2.5H51zm-2.4-.9c0-.4.1-.8.3-1.1.2-.3.6-.6.9-.8l.2-.1c.4-.2.5-.3.5-.5s-.3-.4-.5-.4c-.4 0-.7.2-.9.6l-.5-.5c.1-.2.3-.4.5-.6.3-.2.6-.2.9-.2.3 0 .7.1.9.3.2.2.4.5.4.8 0 .5-.3.9-.9 1.1l-.3.2c-.3.2-.5.3-.6.6h1.8v.7l-2.7-.1zm-1.7 12.5l9.5-5.4v-15H37.3v14.9l9.6 5.5z" fill="#ff492c"/>
    <path id="banner" d="M90.2 64.5H3.6l-3.2 7 3.2 7h86.6l3.1-7z" fill="#2690ce"/>
  <path fill="#252530" transform="translate(27.00, 60)" d="M4.51 0.12L4.51 0.12Q3.31 0.12 2.42-0.26L2.42-0.26L2.42-0.26Q1.51-0.65 1.03-1.36L1.03-1.36L1.03-1.36Q0.54-2.07 0.54-3.01L0.54-3.01L0.54-3.34L0.54-3.34Q0.54-3.42 0.59-3.47L0.59-3.47L0.59-3.47Q0.65-3.52 0.72-3.52L0.72-3.52L2.43-3.52L2.43-3.52Q2.50-3.52 2.56-3.47L2.56-3.47L2.56-3.47Q2.61-3.42 2.61-3.34L2.61-3.34L2.61-3.12L2.61-3.12Q2.61-2.52 3.17-2.11L3.17-2.11L3.17-2.11Q3.72-1.69 4.67-1.69L4.67-1.69L4.67-1.69Q5.46-1.69 5.85-2.03L5.85-2.03L5.85-2.03Q6.24-2.37 6.24-2.86L6.24-2.86L6.24-2.86Q6.24-3.23 6-3.47L6-3.47L6-3.47Q5.76-3.72 5.35-3.91L5.35-3.91L5.35-3.91Q4.93-4.09 4.04-4.42L4.04-4.42L4.04-4.42Q3.03-4.77 2.33-5.13L2.33-5.13L2.33-5.13Q1.64-5.49 1.16-6.11L1.16-6.11L1.16-6.11Q0.69-6.73 0.69-7.65L0.69-7.65L0.69-7.65Q0.69-8.55 1.16-9.22L1.16-9.22L1.16-9.22Q1.62-9.90 2.44-10.26L2.44-10.26L2.44-10.26Q3.27-10.62 4.35-10.62L4.35-10.62L4.35-10.62Q5.49-10.62 6.38-10.21L6.38-10.21L6.38-10.21Q7.27-9.81 7.78-9.08L7.78-9.08L7.78-9.08Q8.28-8.36 8.28-7.39L8.28-7.39L8.28-7.17L8.28-7.17Q8.28-7.09 8.23-7.04L8.23-7.04L8.23-7.04Q8.17-6.99 8.10-6.99L8.10-6.99L6.38-6.99L6.38-6.99Q6.30-6.99 6.25-7.04L6.25-7.04L6.25-7.04Q6.19-7.09 6.19-7.17L6.19-7.17L6.19-7.29L6.19-7.29Q6.19-7.92 5.68-8.36L5.68-8.36L5.68-8.36Q5.16-8.80 4.26-8.80L4.26-8.80L4.26-8.80Q3.55-8.80 3.16-8.50L3.16-8.50L3.16-8.50Q2.76-8.21 2.76-7.68L2.76-7.68L2.76-7.68Q2.76-7.30 2.99-7.05L2.99-7.05L2.99-7.05Q3.23-6.79 3.68-6.59L3.68-6.59L3.68-6.59Q4.14-6.39 5.10-6.04L5.10-6.04L5.10-6.04Q6.17-5.65 6.77-5.35L6.77-5.35L6.77-5.35Q7.38-5.05 7.87-4.46L7.87-4.46L7.87-4.46Q8.36-3.87 8.36-2.92L8.36-2.92L8.36-2.92Q8.36-1.51 7.32-0.70L7.32-0.70L7.32-0.70Q6.29 0.12 4.51 0.12L4.51 0.12ZM16.53-4.65L16.53-4.65Q16.62-4.08 16.59-3.38L16.59-3.38L16.59-3.38Q16.57-3.19 16.39-3.19L16.39-3.19L11.76-3.19L11.76-3.19Q11.67-3.19 11.70-3.12L11.70-3.12L11.70-3.12Q11.74-2.82 11.86-2.52L11.86-2.52L11.86-2.52Q12.25-1.68 13.45-1.68L13.45-1.68L13.45-1.68Q14.41-1.69 14.97-2.46L14.97-2.46L14.97-2.46Q15.03-2.55 15.10-2.55L15.10-2.55L15.10-2.55Q15.15-2.55 15.21-2.49L15.21-2.49L16.29-1.43L16.29-1.43Q16.36-1.35 16.36-1.29L16.36-1.29L16.36-1.29Q16.36-1.26 16.30-1.17L16.30-1.17L16.30-1.17Q15.81-0.55 15.03-0.22L15.03-0.22L15.03-0.22Q14.25 0.12 13.32 0.12L13.32 0.12L13.32 0.12Q12.03 0.12 11.14-0.46L11.14-0.46L11.14-0.46Q10.24-1.05 9.85-2.10L9.85-2.10L9.85-2.10Q9.54-2.85 9.54-4.06L9.54-4.06L9.54-4.06Q9.54-4.89 9.76-5.52L9.76-5.52L9.76-5.52Q10.11-6.58 10.97-7.21L10.97-7.21L10.97-7.21Q11.83-7.84 13.02-7.84L13.02-7.84L13.02-7.84Q14.52-7.84 15.43-6.97L15.43-6.97L15.43-6.97Q16.34-6.10 16.53-4.65L16.53-4.65ZM13.03-6.01L13.03-6.01Q12.09-6.01 11.79-5.13L11.79-5.13L11.79-5.13Q11.73-4.93 11.68-4.65L11.68-4.65L11.68-4.65Q11.68-4.58 11.76-4.58L11.76-4.58L14.35-4.58L14.35-4.58Q14.44-4.58 14.41-4.65L14.41-4.65L14.41-4.65Q14.34-5.08 14.34-5.07L14.34-5.07L14.34-5.07Q14.20-5.52 13.87-5.77L13.87-5.77L13.87-5.77Q13.53-6.01 13.03-6.01L13.03-6.01ZM22.32-6.19L22.32-6.19Q22.32-6.12 22.27-6.07L22.27-6.07L22.27-6.07Q22.21-6.01 22.14-6.01L22.14-6.01L20.70-6.01L20.70-6.01Q20.63-6.01 20.63-5.94L20.63-5.94L20.63-2.76L20.63-2.76Q20.63-2.27 20.83-2.02L20.83-2.02L20.83-2.02Q21.03-1.78 21.48-1.78L21.48-1.78L21.97-1.78L21.97-1.78Q22.05-1.78 22.10-1.73L22.10-1.73L22.10-1.73Q22.15-1.68 22.15-1.60L22.15-1.60L22.15-0.18L22.15-0.18Q22.15-0.01 21.97 0.01L21.97 0.01L21.97 0.01Q21.34 0.04 21.07 0.04L21.07 0.04L21.07 0.04Q19.83 0.04 19.21-0.37L19.21-0.37L19.21-0.37Q18.60-0.78 18.58-1.92L18.58-1.92L18.58-5.94L18.58-5.94Q18.58-6.01 18.51-6.01L18.51-6.01L17.65-6.01L17.65-6.01Q17.58-6.01 17.53-6.07L17.53-6.07L17.53-6.07Q17.47-6.12 17.47-6.19L17.47-6.19L17.47-7.53L17.47-7.53Q17.47-7.60 17.53-7.66L17.53-7.66L17.53-7.66Q17.58-7.71 17.65-7.71L17.65-7.71L18.51-7.71L18.51-7.71Q18.58-7.71 18.58-7.79L18.58-7.79L18.58-9.57L18.58-9.57Q18.58-9.64 18.64-9.70L18.64-9.70L18.64-9.70Q18.69-9.75 18.76-9.75L18.76-9.75L20.45-9.75L20.45-9.75Q20.52-9.75 20.57-9.70L20.57-9.70L20.57-9.70Q20.63-9.64 20.63-9.57L20.63-9.57L20.63-7.79L20.63-7.79Q20.63-7.71 20.70-7.71L20.70-7.71L22.14-7.71L22.14-7.71Q22.21-7.71 22.27-7.66L22.27-7.66L22.27-7.66Q22.32-7.60 22.32-7.53L22.32-7.53L22.32-6.19ZM28.09-7.53L28.09-7.53Q28.09-7.60 28.15-7.66L28.15-7.66L28.15-7.66Q28.20-7.71 28.27-7.71L28.27-7.71L30.03-7.71L30.03-7.71Q30.10-7.71 30.16-7.66L30.16-7.66L30.16-7.66Q30.21-7.60 30.21-7.53L30.21-7.53L30.21-0.18L30.21-0.18Q30.21-0.10 30.16-0.05L30.16-0.05L30.16-0.05Q30.10 0 30.03 0L30.03 0L28.27 0L28.27 0Q28.20 0 28.15-0.05L28.15-0.05L28.15-0.05Q28.09-0.10 28.09-0.18L28.09-0.18L28.09-0.69L28.09-0.69Q28.09-0.73 28.06-0.74L28.06-0.74L28.06-0.74Q28.03-0.75 28.00-0.70L28.00-0.70L28.00-0.70Q27.40 0.10 26.14 0.10L26.14 0.10L26.14 0.10Q25.00 0.10 24.27-0.58L24.27-0.58L24.27-0.58Q23.53-1.27 23.53-2.52L23.53-2.52L23.53-7.53L23.53-7.53Q23.53-7.60 23.59-7.66L23.59-7.66L23.59-7.66Q23.64-7.71 23.71-7.71L23.71-7.71L25.45-7.71L25.45-7.71Q25.53-7.71 25.58-7.66L25.58-7.66L25.58-7.66Q25.63-7.60 25.63-7.53L25.63-7.53L25.63-3.04L25.63-3.04Q25.63-2.44 25.96-2.07L25.96-2.07L25.96-2.07Q26.28-1.69 26.85-1.69L26.85-1.69L26.85-1.69Q27.36-1.69 27.69-2.00L27.69-2.00L27.69-2.00Q28.02-2.31 28.09-2.80L28.09-2.80L28.09-7.53ZM38.65-5.64L38.65-5.64Q38.92-4.88 38.92-3.84L38.92-3.84L38.92-3.84Q38.92-2.80 38.64-1.96L38.64-1.96L38.64-1.96Q38.29-1.00 37.55-0.44L37.55-0.44L37.55-0.44Q36.81 0.12 35.71 0.12L35.71 0.12L35.71 0.12Q34.63 0.12 34.03-0.63L34.03-0.63L34.03-0.63Q34.00-0.67 33.97-0.66L33.97-0.66L33.97-0.66Q33.94-0.65 33.94-0.60L33.94-0.60L33.94 2.61L33.94 2.61Q33.94 2.69 33.89 2.74L33.89 2.74L33.89 2.74Q33.84 2.79 33.76 2.79L33.76 2.79L32.01 2.79L32.01 2.79Q31.93 2.79 31.88 2.74L31.88 2.74L31.88 2.74Q31.83 2.69 31.83 2.61L31.83 2.61L31.83-7.53L31.83-7.53Q31.83-7.60 31.88-7.66L31.88-7.66L31.88-7.66Q31.93-7.71 32.01-7.71L32.01-7.71L33.76-7.71L33.76-7.71Q33.84-7.71 33.89-7.66L33.89-7.66L33.89-7.66Q33.94-7.60 33.94-7.53L33.94-7.53L33.94-7.04L33.94-7.04Q33.94-6.99 33.97-6.98L33.97-6.98L33.97-6.98Q34.00-6.97 34.03-7.00L34.03-7.00L34.03-7.00Q34.66-7.83 35.77-7.83L35.77-7.83L35.77-7.83Q36.81-7.83 37.57-7.25L37.57-7.25L37.57-7.25Q38.32-6.67 38.65-5.64L38.65-5.64ZM36.36-2.28L36.36-2.28Q36.73-2.86 36.73-3.87L36.73-3.87L36.73-3.87Q36.73-4.81 36.42-5.37L36.42-5.37L36.42-5.37Q36.07-6.01 35.31-6.01L35.31-6.01L35.31-6.01Q34.62-6.01 34.27-5.37L34.27-5.37L34.27-5.37Q33.96-4.83 33.96-3.85L33.96-3.85L33.96-3.85Q33.96-2.85 34.29-2.29L34.29-2.29L34.29-2.29Q34.63-1.69 35.31-1.69L35.31-1.69L35.31-1.69Q35.98-1.69 36.36-2.28L36.36-2.28Z"/><path fill="#252530" transform="translate(21.61, 45)" d="M8.21-8.87L8.21-8.87Q8.21-8.79 8.15-8.74L8.15-8.74L8.15-8.74Q8.10-8.69 8.03-8.69L8.03-8.69L3.10-8.69L3.10-8.69Q3.03-8.69 3.03-8.61L3.03-8.61L3.03-6.29L3.03-6.29Q3.03-6.21 3.10-6.21L3.10-6.21L6.33-6.21L6.33-6.21Q6.40-6.21 6.46-6.16L6.46-6.16L6.46-6.16Q6.51-6.10 6.51-6.03L6.51-6.03L6.51-4.58L6.51-4.58Q6.51-4.50 6.46-4.45L6.46-4.45L6.46-4.45Q6.40-4.39 6.33-4.39L6.33-4.39L3.10-4.39L3.10-4.39Q3.03-4.39 3.03-4.32L3.03-4.32L3.03-1.89L3.03-1.89Q3.03-1.81 3.10-1.81L3.10-1.81L8.03-1.81L8.03-1.81Q8.10-1.81 8.15-1.76L8.15-1.76L8.15-1.76Q8.21-1.71 8.21-1.64L8.21-1.64L8.21-0.18L8.21-0.18Q8.21-0.10 8.15-0.05L8.15-0.05L8.15-0.05Q8.10 0 8.03 0L8.03 0L1.09 0L1.09 0Q1.02 0 0.97-0.05L0.97-0.05L0.97-0.05Q0.91-0.10 0.91-0.18L0.91-0.18L0.91-10.32L0.91-10.32Q0.91-10.39 0.97-10.45L0.97-10.45L0.97-10.45Q1.02-10.50 1.09-10.50L1.09-10.50L8.03-10.50L8.03-10.50Q8.10-10.50 8.15-10.45L8.15-10.45L8.15-10.45Q8.21-10.39 8.21-10.32L8.21-10.32L8.21-8.87ZM12.62-7.83L12.62-7.83Q13.59-7.83 14.36-7.49L14.36-7.49L14.36-7.49Q15.12-7.15 15.55-6.57L15.55-6.57L15.55-6.57Q15.97-5.98 15.97-5.26L15.97-5.26L15.97-0.18L15.97-0.18Q15.97-0.10 15.92-0.05L15.92-0.05L15.92-0.05Q15.87 0 15.79 0L15.79 0L14.04 0L14.04 0Q13.96 0 13.91-0.05L13.91-0.05L13.91-0.05Q13.86-0.10 13.86-0.18L13.86-0.18L13.86-0.67L13.86-0.67Q13.86-0.72 13.83-0.73L13.83-0.73L13.83-0.73Q13.80-0.75 13.77-0.70L13.77-0.70L13.77-0.70Q13.14 0.12 11.74 0.12L11.74 0.12L11.74 0.12Q10.57 0.12 9.86-0.45L9.86-0.45L9.86-0.45Q9.13-1.02 9.13-2.13L9.13-2.13L9.13-2.13Q9.13-3.28 9.95-3.92L9.95-3.92L9.95-3.92Q10.75-4.56 12.25-4.56L12.25-4.56L13.79-4.56L13.79-4.56Q13.86-4.56 13.86-4.63L13.86-4.63L13.86-4.96L13.86-4.96Q13.86-5.46 13.56-5.74L13.56-5.74L13.56-5.74Q13.26-6.01 12.66-6.01L12.66-6.01L12.66-6.01Q12.20-6.01 11.89-5.85L11.89-5.85L11.89-5.85Q11.58-5.68 11.49-5.38L11.49-5.38L11.49-5.38Q11.45-5.22 11.29-5.23L11.29-5.23L9.48-5.47L9.48-5.47Q9.30-5.50 9.31-5.61L9.31-5.61L9.31-5.61Q9.38-6.24 9.82-6.75L9.82-6.75L9.82-6.75Q10.26-7.26 10.99-7.54L10.99-7.54L10.99-7.54Q11.71-7.83 12.62-7.83L12.62-7.83ZM12.31-1.45L12.31-1.45Q12.96-1.45 13.41-1.80L13.41-1.80L13.41-1.80Q13.86-2.15 13.86-2.69L13.86-2.69L13.86-3.23L13.86-3.23Q13.86-3.30 13.79-3.30L13.79-3.30L12.71-3.30L12.71-3.30Q12.03-3.30 11.65-3.04L11.65-3.04L11.65-3.04Q11.27-2.79 11.27-2.32L11.27-2.32L11.27-2.32Q11.27-1.92 11.55-1.69L11.55-1.69L11.55-1.69Q11.83-1.45 12.31-1.45L12.31-1.45ZM20.54 0.10L20.54 0.10Q19.53 0.10 18.78-0.18L18.78-0.18L18.78-0.18Q18.03-0.46 17.62-0.97L17.62-0.97L17.62-0.97Q17.20-1.48 17.20-2.13L17.20-2.13L17.20-2.28L17.20-2.28Q17.20-2.35 17.26-2.41L17.26-2.41L17.26-2.41Q17.31-2.46 17.38-2.46L17.38-2.46L19.05-2.46L19.05-2.46Q19.13-2.46 19.18-2.41L19.18-2.41L19.18-2.41Q19.23-2.35 19.23-2.28L19.23-2.28L19.23-2.27L19.23-2.27Q19.23-1.93 19.60-1.70L19.60-1.70L19.60-1.70Q19.96-1.47 20.52-1.47L20.52-1.47L20.52-1.47Q21.03-1.47 21.34-1.67L21.34-1.67L21.34-1.67Q21.66-1.88 21.66-2.17L21.66-2.17L21.66-2.17Q21.66-2.44 21.39-2.58L21.39-2.58L21.39-2.58Q21.12-2.71 20.50-2.86L20.50-2.86L20.50-2.86Q19.80-3.04 19.39-3.21L19.39-3.21L19.39-3.21Q18.43-3.54 17.86-4.02L17.86-4.02L17.86-4.02Q17.29-4.50 17.29-5.40L17.29-5.40L17.29-5.40Q17.29-6.51 18.16-7.16L18.16-7.16L18.16-7.16Q19.02-7.81 20.45-7.81L20.45-7.81L20.45-7.81Q21.41-7.81 22.13-7.51L22.13-7.51L22.13-7.51Q22.84-7.20 23.24-6.64L23.24-6.64L23.24-6.64Q23.64-6.09 23.64-5.38L23.64-5.38L23.64-5.38Q23.64-5.31 23.59-5.26L23.59-5.26L23.59-5.26Q23.54-5.21 23.46-5.21L23.46-5.21L21.86-5.21L21.86-5.21Q21.78-5.21 21.73-5.26L21.73-5.26L21.73-5.26Q21.68-5.31 21.68-5.38L21.68-5.38L21.68-5.38Q21.68-5.71 21.34-5.94L21.34-5.94L21.34-5.94Q21-6.17 20.45-6.17L20.45-6.17L20.45-6.17Q19.95-6.17 19.63-5.98L19.63-5.98L19.63-5.98Q19.32-5.80 19.32-5.49L19.32-5.49L19.32-5.49Q19.32-5.19 19.63-5.04L19.63-5.04L19.63-5.04Q19.93-4.89 20.66-4.72L20.66-4.72L20.66-4.72Q20.82-4.68 21.03-4.63L21.03-4.63L21.03-4.63Q21.24-4.58 21.48-4.50L21.48-4.50L21.48-4.50Q22.55-4.18 23.16-3.69L23.16-3.69L23.16-3.69Q23.77-3.19 23.77-2.25L23.77-2.25L23.77-2.25Q23.77-1.14 22.90-0.52L22.90-0.52L22.90-0.52Q22.02 0.10 20.54 0.10L20.54 0.10ZM26.13-8.58L26.13-8.58Q25.62-8.58 25.28-8.92L25.28-8.92L25.28-8.92Q24.95-9.25 24.95-9.76L24.95-9.76L24.95-9.76Q24.95-10.29 25.28-10.62L25.28-10.62L25.28-10.62Q25.61-10.95 26.13-10.95L26.13-10.95L26.13-10.95Q26.66-10.95 26.98-10.62L26.98-10.62L26.98-10.62Q27.32-10.29 27.32-9.76L27.32-9.76L27.32-9.76Q27.32-9.25 26.98-8.92L26.98-8.92L26.98-8.92Q26.64-8.58 26.13-8.58L26.13-8.58ZM25.23 0L25.23 0Q25.16 0 25.10-0.05L25.10-0.05L25.10-0.05Q25.05-0.10 25.05-0.18L25.05-0.18L25.05-7.54L25.05-7.54Q25.05-7.62 25.10-7.67L25.10-7.67L25.10-7.67Q25.16-7.72 25.23-7.72L25.23-7.72L26.98-7.72L26.98-7.72Q27.06-7.72 27.11-7.67L27.11-7.67L27.11-7.67Q27.16-7.62 27.16-7.54L27.16-7.54L27.16-0.18L27.16-0.18Q27.16-0.10 27.11-0.05L27.11-0.05L27.11-0.05Q27.06 0 26.98 0L26.98 0L25.23 0ZM35.64-4.65L35.64-4.65Q35.73-4.08 35.70-3.38L35.70-3.38L35.70-3.38Q35.69-3.19 35.51-3.19L35.51-3.19L30.87-3.19L30.87-3.19Q30.78-3.19 30.81-3.12L30.81-3.12L30.81-3.12Q30.86-2.82 30.98-2.52L30.98-2.52L30.98-2.52Q31.37-1.68 32.56-1.68L32.56-1.68L32.56-1.68Q33.52-1.69 34.08-2.46L34.08-2.46L34.08-2.46Q34.14-2.55 34.22-2.55L34.22-2.55L34.22-2.55Q34.26-2.55 34.32-2.49L34.32-2.49L35.40-1.43L35.40-1.43Q35.48-1.35 35.48-1.29L35.48-1.29L35.48-1.29Q35.48-1.26 35.41-1.17L35.41-1.17L35.41-1.17Q34.92-0.55 34.14-0.22L34.14-0.22L34.14-0.22Q33.36 0.12 32.43 0.12L32.43 0.12L32.43 0.12Q31.14 0.12 30.25-0.46L30.25-0.46L30.25-0.46Q29.36-1.05 28.96-2.10L28.96-2.10L28.96-2.10Q28.65-2.85 28.65-4.06L28.65-4.06L28.65-4.06Q28.65-4.89 28.88-5.52L28.88-5.52L28.88-5.52Q29.22-6.58 30.08-7.21L30.08-7.21L30.08-7.21Q30.95-7.84 32.13-7.84L32.13-7.84L32.13-7.84Q33.63-7.84 34.54-6.97L34.54-6.97L34.54-6.97Q35.45-6.10 35.64-4.65L35.64-4.65ZM32.14-6.01L32.14-6.01Q31.20-6.01 30.90-5.13L30.90-5.13L30.90-5.13Q30.84-4.93 30.80-4.65L30.80-4.65L30.80-4.65Q30.80-4.58 30.87-4.58L30.87-4.58L33.47-4.58L33.47-4.58Q33.55-4.58 33.52-4.65L33.52-4.65L33.52-4.65Q33.45-5.08 33.45-5.07L33.45-5.07L33.45-5.07Q33.31-5.52 32.98-5.77L32.98-5.77L32.98-5.77Q32.64-6.01 32.14-6.01L32.14-6.01ZM40.08 0.10L40.08 0.10Q39.08 0.10 38.33-0.18L38.33-0.18L38.33-0.18Q37.58-0.46 37.16-0.97L37.16-0.97L37.16-0.97Q36.75-1.48 36.75-2.13L36.75-2.13L36.75-2.28L36.75-2.28Q36.75-2.35 36.80-2.41L36.80-2.41L36.80-2.41Q36.86-2.46 36.93-2.46L36.93-2.46L38.59-2.46L38.59-2.46Q38.67-2.46 38.72-2.41L38.72-2.41L38.72-2.41Q38.77-2.35 38.77-2.28L38.77-2.28L38.77-2.27L38.77-2.27Q38.77-1.93 39.14-1.70L39.14-1.70L39.14-1.70Q39.51-1.47 40.06-1.47L40.06-1.47L40.06-1.47Q40.58-1.47 40.89-1.67L40.89-1.67L40.89-1.67Q41.20-1.88 41.20-2.17L41.20-2.17L41.20-2.17Q41.20-2.44 40.94-2.58L40.94-2.58L40.94-2.58Q40.66-2.71 40.05-2.86L40.05-2.86L40.05-2.86Q39.34-3.04 38.94-3.21L38.94-3.21L38.94-3.21Q37.98-3.54 37.41-4.02L37.41-4.02L37.41-4.02Q36.84-4.50 36.84-5.40L36.84-5.40L36.84-5.40Q36.84-6.51 37.70-7.16L37.70-7.16L37.70-7.16Q38.56-7.81 39.99-7.81L39.99-7.81L39.99-7.81Q40.95-7.81 41.67-7.51L41.67-7.51L41.67-7.51Q42.39-7.20 42.79-6.64L42.79-6.64L42.79-6.64Q43.19-6.09 43.19-5.38L43.19-5.38L43.19-5.38Q43.19-5.31 43.13-5.26L43.13-5.26L43.13-5.26Q43.08-5.21 43.01-5.21L43.01-5.21L41.40-5.21L41.40-5.21Q41.33-5.21 41.27-5.26L41.27-5.26L41.27-5.26Q41.22-5.31 41.22-5.38L41.22-5.38L41.22-5.38Q41.22-5.71 40.88-5.94L40.88-5.94L40.88-5.94Q40.55-6.17 39.99-6.17L39.99-6.17L39.99-6.17Q39.50-6.17 39.18-5.98L39.18-5.98L39.18-5.98Q38.87-5.80 38.87-5.49L38.87-5.49L38.87-5.49Q38.87-5.19 39.17-5.04L39.17-5.04L39.17-5.04Q39.48-4.89 40.20-4.72L40.20-4.72L40.20-4.72Q40.37-4.68 40.58-4.63L40.58-4.63L40.58-4.63Q40.79-4.58 41.02-4.50L41.02-4.50L41.02-4.50Q42.09-4.18 42.70-3.69L42.70-3.69L42.70-3.69Q43.32-3.19 43.32-2.25L43.32-2.25L43.32-2.25Q43.32-1.14 42.44-0.52L42.44-0.52L42.44-0.52Q41.56 0.10 40.08 0.10L40.08 0.10ZM48.96-6.19L48.96-6.19Q48.96-6.12 48.91-6.07L48.91-6.07L48.91-6.07Q48.86-6.01 48.78-6.01L48.78-6.01L47.34-6.01L47.34-6.01Q47.27-6.01 47.27-5.94L47.27-5.94L47.27-2.76L47.27-2.76Q47.27-2.27 47.47-2.02L47.47-2.02L47.47-2.02Q47.67-1.78 48.12-1.78L48.12-1.78L48.62-1.78L48.62-1.78Q48.69-1.78 48.74-1.73L48.74-1.73L48.74-1.73Q48.80-1.68 48.80-1.60L48.80-1.60L48.80-0.18L48.80-0.18Q48.80-0.01 48.62 0.01L48.62 0.01L48.62 0.01Q47.98 0.04 47.72 0.04L47.72 0.04L47.72 0.04Q46.47 0.04 45.86-0.37L45.86-0.37L45.86-0.37Q45.24-0.78 45.23-1.92L45.23-1.92L45.23-5.94L45.23-5.94Q45.23-6.01 45.15-6.01L45.15-6.01L44.30-6.01L44.30-6.01Q44.22-6.01 44.17-6.07L44.17-6.07L44.17-6.07Q44.12-6.12 44.12-6.19L44.12-6.19L44.12-7.53L44.12-7.53Q44.12-7.60 44.17-7.66L44.17-7.66L44.17-7.66Q44.22-7.71 44.30-7.71L44.30-7.71L45.15-7.71L45.15-7.71Q45.23-7.71 45.23-7.79L45.23-7.79L45.23-9.57L45.23-9.57Q45.23-9.64 45.28-9.70L45.28-9.70L45.28-9.70Q45.33-9.75 45.41-9.75L45.41-9.75L47.09-9.75L47.09-9.75Q47.16-9.75 47.21-9.70L47.21-9.70L47.21-9.70Q47.27-9.64 47.27-9.57L47.27-9.57L47.27-7.79L47.27-7.79Q47.27-7.71 47.34-7.71L47.34-7.71L48.78-7.71L48.78-7.71Q48.86-7.71 48.91-7.66L48.91-7.66L48.91-7.66Q48.96-7.60 48.96-7.53L48.96-7.53L48.96-6.19Z"/><path fill="#fff" transform="translate(30.15, 75.4)" d="M2.99 0.08L2.99 0.08Q2.21 0.08 1.63-0.17L1.63-0.17L1.63-0.17Q1.05-0.42 0.73-0.87L0.73-0.87L0.73-0.87Q0.42-1.32 0.42-1.93L0.42-1.93L0.42-2.18L0.42-2.18Q0.42-2.23 0.46-2.27L0.46-2.27L0.46-2.27Q0.49-2.30 0.54-2.30L0.54-2.30L1.43-2.30L1.43-2.30Q1.48-2.30 1.52-2.27L1.52-2.27L1.52-2.27Q1.55-2.23 1.55-2.18L1.55-2.18L1.55-1.99L1.55-1.99Q1.55-1.53 1.96-1.23L1.96-1.23L1.96-1.23Q2.37-0.92 3.08-0.92L3.08-0.92L3.08-0.92Q3.69-0.92 4-1.18L4-1.18L4-1.18Q4.31-1.44 4.31-1.85L4.31-1.85L4.31-1.85Q4.31-2.13 4.14-2.33L4.14-2.33L4.14-2.33Q3.97-2.52 3.66-2.68L3.66-2.68L3.66-2.68Q3.34-2.84 2.71-3.08L2.71-3.08L2.71-3.08Q2-3.34 1.56-3.57L1.56-3.57L1.56-3.57Q1.12-3.80 0.83-4.20L0.83-4.20L0.83-4.20Q0.53-4.59 0.53-5.18L0.53-5.18L0.53-5.18Q0.53-6.06 1.17-6.57L1.17-6.57L1.17-6.57Q1.81-7.08 2.88-7.08L2.88-7.08L2.88-7.08Q3.63-7.08 4.21-6.82L4.21-6.82L4.21-6.82Q4.78-6.56 5.10-6.09L5.10-6.09L5.10-6.09Q5.42-5.63 5.42-5.02L5.42-5.02L5.42-4.85L5.42-4.85Q5.42-4.80 5.38-4.76L5.38-4.76L5.38-4.76Q5.35-4.73 5.30-4.73L5.30-4.73L4.40-4.73L4.40-4.73Q4.35-4.73 4.32-4.76L4.32-4.76L4.32-4.76Q4.28-4.80 4.28-4.85L4.28-4.85L4.28-4.96L4.28-4.96Q4.28-5.43 3.90-5.75L3.90-5.75L3.90-5.75Q3.51-6.08 2.83-6.08L2.83-6.08L2.83-6.08Q2.28-6.08 1.98-5.85L1.98-5.85L1.98-5.85Q1.67-5.62 1.67-5.20L1.67-5.20L1.67-5.20Q1.67-4.90 1.83-4.71L1.83-4.71L1.83-4.71Q1.99-4.52 2.31-4.37L2.31-4.37L2.31-4.37Q2.63-4.21 3.30-3.97L3.30-3.97L3.30-3.97Q4.01-3.70 4.44-3.48L4.44-3.48L4.44-3.48Q4.86-3.26 5.17-2.87L5.17-2.87L5.17-2.87Q5.47-2.47 5.47-1.88L5.47-1.88L5.47-1.88Q5.47-0.98 4.80-0.45L4.80-0.45L4.80-0.45Q4.14 0.08 2.99 0.08L2.99 0.08ZM9.45-7.01L9.45-7.01Q10.08-7.01 10.56-6.75L10.56-6.75L10.56-6.75Q11.04-6.49 11.30-6.02L11.30-6.02L11.30-6.02Q11.57-5.54 11.57-4.92L11.57-4.92L11.57-4.92Q11.57-4.31 11.30-3.84L11.30-3.84L11.30-3.84Q11.03-3.37 10.54-3.12L10.54-3.12L10.54-3.12Q10.04-2.86 9.39-2.86L9.39-2.86L7.79-2.86L7.79-2.86Q7.74-2.86 7.74-2.81L7.74-2.81L7.74-0.12L7.74-0.12Q7.74-0.07 7.71-0.04L7.71-0.04L7.71-0.04Q7.67 0 7.62 0L7.62 0L6.70 0L6.70 0Q6.65 0 6.62-0.04L6.62-0.04L6.62-0.04Q6.58-0.07 6.58-0.12L6.58-0.12L6.58-6.89L6.58-6.89Q6.58-6.94 6.62-6.98L6.62-6.98L6.62-6.98Q6.65-7.01 6.70-7.01L6.70-7.01L9.45-7.01ZM9.28-3.80L9.28-3.80Q9.79-3.80 10.10-4.10L10.10-4.10L10.10-4.10Q10.41-4.40 10.41-4.89L10.41-4.89L10.41-4.89Q10.41-5.39 10.10-5.70L10.10-5.70L10.10-5.70Q9.79-6.01 9.28-6.01L9.28-6.01L7.79-6.01L7.79-6.01Q7.74-6.01 7.74-5.96L7.74-5.96L7.74-3.85L7.74-3.85Q7.74-3.80 7.79-3.80L7.79-3.80L9.28-3.80ZM16.52 0L16.52 0Q16.42 0 16.38-0.09L16.38-0.09L15.06-2.97L15.06-2.97Q15.04-3.01 15-3.01L15-3.01L13.80-3.01L13.80-3.01Q13.75-3.01 13.75-2.96L13.75-2.96L13.75-0.12L13.75-0.12Q13.75-0.07 13.71-0.04L13.71-0.04L13.71-0.04Q13.68 0 13.63 0L13.63 0L12.71 0L12.71 0Q12.66 0 12.63-0.04L12.63-0.04L12.63-0.04Q12.59-0.07 12.59-0.12L12.59-0.12L12.59-6.88L12.59-6.88Q12.59-6.93 12.63-6.96L12.63-6.96L12.63-6.96Q12.66-7 12.71-7L12.71-7L15.46-7L15.46-7Q16.07-7 16.54-6.75L16.54-6.75L16.54-6.75Q17.01-6.49 17.27-6.03L17.27-6.03L17.27-6.03Q17.53-5.56 17.53-4.96L17.53-4.96L17.53-4.96Q17.53-4.27 17.18-3.79L17.18-3.79L17.18-3.79Q16.82-3.30 16.19-3.11L16.19-3.11L16.19-3.11Q16.17-3.11 16.16-3.09L16.16-3.09L16.16-3.09Q16.15-3.07 16.16-3.05L16.16-3.05L17.57-0.14L17.57-0.14Q17.59-0.10 17.59-0.08L17.59-0.08L17.59-0.08Q17.59 0 17.48 0L17.48 0L16.52 0ZM13.80-6L13.80-6Q13.75-6 13.75-5.95L13.75-5.95L13.75-3.96L13.75-3.96Q13.75-3.91 13.80-3.91L13.80-3.91L15.30-3.91L15.30-3.91Q15.78-3.91 16.07-4.20L16.07-4.20L16.07-4.20Q16.37-4.48 16.37-4.95L16.37-4.95L16.37-4.95Q16.37-5.42 16.07-5.71L16.07-5.71L16.07-5.71Q15.78-6 15.30-6L15.30-6L13.80-6ZM18.84 0L18.84 0Q18.79 0 18.75-0.04L18.75-0.04L18.75-0.04Q18.72-0.07 18.72-0.12L18.72-0.12L18.72-6.88L18.72-6.88Q18.72-6.93 18.75-6.96L18.75-6.96L18.75-6.96Q18.79-7 18.84-7L18.84-7L19.76-7L19.76-7Q19.81-7 19.84-6.96L19.84-6.96L19.84-6.96Q19.88-6.93 19.88-6.88L19.88-6.88L19.88-0.12L19.88-0.12Q19.88-0.07 19.84-0.04L19.84-0.04L19.84-0.04Q19.81 0 19.76 0L19.76 0L18.84 0ZM25.41-6.88L25.41-6.88Q25.41-6.93 25.45-6.96L25.45-6.96L25.45-6.96Q25.48-7 25.53-7L25.53-7L26.45-7L26.45-7Q26.50-7 26.54-6.96L26.54-6.96L26.54-6.96Q26.57-6.93 26.57-6.88L26.57-6.88L26.57-0.12L26.57-0.12Q26.57-0.07 26.54-0.04L26.54-0.04L26.54-0.04Q26.50 0 26.45 0L26.45 0L25.56 0L25.56 0Q25.46 0 25.42-0.08L25.42-0.08L22.54-4.80L22.54-4.80Q22.52-4.83 22.50-4.83L22.50-4.83L22.50-4.83Q22.48-4.82 22.48-4.78L22.48-4.78L22.50-0.12L22.50-0.12Q22.50-0.07 22.46-0.04L22.46-0.04L22.46-0.04Q22.43 0 22.38 0L22.38 0L21.46 0L21.46 0Q21.41 0 21.38-0.04L21.38-0.04L21.38-0.04Q21.34-0.07 21.34-0.12L21.34-0.12L21.34-6.88L21.34-6.88Q21.34-6.93 21.38-6.96L21.38-6.96L21.38-6.96Q21.41-7 21.46-7L21.46-7L22.35-7L22.35-7Q22.45-7 22.49-6.92L22.49-6.92L25.36-2.20L25.36-2.20Q25.38-2.17 25.40-2.18L25.40-2.18L25.40-2.18Q25.42-2.18 25.42-2.22L25.42-2.22L25.41-6.88ZM30.37 0.08L30.37 0.08Q29.62 0.08 29.05-0.21L29.05-0.21L29.05-0.21Q28.48-0.51 28.17-1.05L28.17-1.05L28.17-1.05Q27.86-1.59 27.86-2.29L27.86-2.29L27.86-4.71L27.86-4.71Q27.86-5.42 28.17-5.96L28.17-5.96L28.17-5.96Q28.48-6.49 29.05-6.79L29.05-6.79L29.05-6.79Q29.62-7.08 30.37-7.08L30.37-7.08L30.37-7.08Q31.11-7.08 31.68-6.79L31.68-6.79L31.68-6.79Q32.24-6.50 32.55-6L32.55-6L32.55-6Q32.86-5.50 32.86-4.87L32.86-4.87L32.86-4.79L32.86-4.79Q32.86-4.74 32.83-4.71L32.83-4.71L32.83-4.71Q32.79-4.67 32.74-4.67L32.74-4.67L31.83-4.67L31.83-4.67Q31.78-4.67 31.75-4.71L31.75-4.71L31.75-4.71Q31.71-4.74 31.71-4.79L31.71-4.79L31.71-4.84L31.71-4.84Q31.71-5.38 31.34-5.73L31.34-5.73L31.34-5.73Q30.98-6.08 30.37-6.08L30.37-6.08L30.37-6.08Q29.76-6.08 29.39-5.71L29.39-5.71L29.39-5.71Q29.02-5.35 29.02-4.75L29.02-4.75L29.02-2.25L29.02-2.25Q29.02-1.65 29.41-1.28L29.41-1.28L29.41-1.28Q29.80-0.92 30.42-0.92L30.42-0.92L30.42-0.92Q31.02-0.92 31.37-1.24L31.37-1.24L31.37-1.24Q31.71-1.55 31.71-2.10L31.71-2.10L31.71-2.72L31.71-2.72Q31.71-2.77 31.66-2.77L31.66-2.77L30.43-2.77L30.43-2.77Q30.38-2.77 30.34-2.81L30.34-2.81L30.34-2.81Q30.31-2.84 30.31-2.89L30.31-2.89L30.31-3.63L30.31-3.63Q30.31-3.68 30.34-3.71L30.34-3.71L30.34-3.71Q30.38-3.75 30.43-3.75L30.43-3.75L32.74-3.75L32.74-3.75Q32.79-3.75 32.83-3.71L32.83-3.71L32.83-3.71Q32.86-3.68 32.86-3.63L32.86-3.63L32.86-2.35L32.86-2.35Q32.86-1.20 32.19-0.56L32.19-0.56L32.19-0.56Q31.51 0.08 30.37 0.08L30.37 0.08Z"/><path fill="#252530" transform="translate(30.36, 95.3)" d="M3.38-1.84L3.38-1.84Q3.35-1.81 3.36-1.78L3.36-1.78L3.36-1.78Q3.38-1.75 3.42-1.75L3.42-1.75L7.35-1.75L7.35-1.75Q7.42-1.75 7.47-1.70L7.47-1.70L7.47-1.70Q7.53-1.65 7.53-1.58L7.53-1.58L7.53-0.17L7.53-0.17Q7.53-0.10 7.47-0.05L7.47-0.05L7.47-0.05Q7.42 0 7.35 0L7.35 0L0.83 0L0.83 0Q0.75 0 0.70-0.05L0.70-0.05L0.70-0.05Q0.65-0.10 0.65-0.17L0.65-0.17L0.65-1.51L0.65-1.51Q0.65-1.64 0.74-1.73L0.74-1.73L0.74-1.73Q1.45-2.42 2.19-3.24L2.19-3.24L2.19-3.24Q2.93-4.06 3.12-4.26L3.12-4.26L3.12-4.26Q3.52-4.74 3.94-5.18L3.94-5.18L3.94-5.18Q5.26-6.64 5.26-7.35L5.26-7.35L5.26-7.35Q5.26-7.86 4.90-8.19L4.90-8.19L4.90-8.19Q4.54-8.51 3.96-8.51L3.96-8.51L3.96-8.51Q3.38-8.51 3.02-8.19L3.02-8.19L3.02-8.19Q2.65-7.86 2.65-7.32L2.65-7.32L2.65-6.96L2.65-6.96Q2.65-6.89 2.60-6.84L2.60-6.84L2.60-6.84Q2.55-6.79 2.48-6.79L2.48-6.79L0.77-6.79L0.77-6.79Q0.70-6.79 0.65-6.84L0.65-6.84L0.65-6.84Q0.59-6.89 0.59-6.96L0.59-6.96L0.59-7.64L0.59-7.64Q0.64-8.42 1.09-9.03L1.09-9.03L1.09-9.03Q1.54-9.63 2.28-9.95L2.28-9.95L2.28-9.95Q3.03-10.27 3.96-10.27L3.96-10.27L3.96-10.27Q4.99-10.27 5.75-9.88L5.75-9.88L5.75-9.88Q6.51-9.50 6.92-8.85L6.92-8.85L6.92-8.85Q7.34-8.19 7.34-7.40L7.34-7.40L7.34-7.40Q7.34-6.79 7.03-6.15L7.03-6.15L7.03-6.15Q6.73-5.51 6.12-4.77L6.12-4.77L6.12-4.77Q5.67-4.21 5.15-3.65L5.15-3.65L5.15-3.65Q4.63-3.10 3.60-2.06L3.60-2.06L3.38-1.84ZM12.24 0.16L12.24 0.16Q10.64 0.16 9.72-0.73L9.72-0.73L9.72-0.73Q8.79-1.62 8.79-3.16L8.79-3.16L8.79-6.99L8.79-6.99Q8.79-8.50 9.72-9.38L9.72-9.38L9.72-9.38Q10.64-10.27 12.24-10.27L12.24-10.27L12.24-10.27Q13.83-10.27 14.77-9.38L14.77-9.38L14.77-9.38Q15.70-8.50 15.70-6.99L15.70-6.99L15.70-3.16L15.70-3.16Q15.70-1.62 14.77-0.73L14.77-0.73L14.77-0.73Q13.83 0.16 12.24 0.16L12.24 0.16ZM12.24-1.59L12.24-1.59Q12.89-1.59 13.27-1.99L13.27-1.99L13.27-1.99Q13.66-2.39 13.66-3.06L13.66-3.06L13.66-7.05L13.66-7.05Q13.66-7.71 13.27-8.11L13.27-8.11L13.27-8.11Q12.89-8.51 12.24-8.51L12.24-8.51L12.24-8.51Q11.60-8.51 11.22-8.11L11.22-8.11L11.22-8.11Q10.83-7.71 10.83-7.05L10.83-7.05L10.83-3.06L10.83-3.06Q10.83-2.39 11.22-1.99L11.22-1.99L11.22-1.99Q11.60-1.59 12.24-1.59L12.24-1.59ZM19.76-1.84L19.76-1.84Q19.73-1.81 19.75-1.78L19.75-1.78L19.75-1.78Q19.76-1.75 19.81-1.75L19.81-1.75L23.74-1.75L23.74-1.75Q23.81-1.75 23.86-1.70L23.86-1.70L23.86-1.70Q23.91-1.65 23.91-1.58L23.91-1.58L23.91-0.17L23.91-0.17Q23.91-0.10 23.86-0.05L23.86-0.05L23.86-0.05Q23.81 0 23.74 0L23.74 0L17.21 0L17.21 0Q17.14 0 17.09-0.05L17.09-0.05L17.09-0.05Q17.04-0.10 17.04-0.17L17.04-0.17L17.04-1.51L17.04-1.51Q17.04-1.64 17.12-1.73L17.12-1.73L17.12-1.73Q17.84-2.42 18.57-3.24L18.57-3.24L18.57-3.24Q19.31-4.06 19.50-4.26L19.50-4.26L19.50-4.26Q19.91-4.74 20.33-5.18L20.33-5.18L20.33-5.18Q21.65-6.64 21.65-7.35L21.65-7.35L21.65-7.35Q21.65-7.86 21.29-8.19L21.29-8.19L21.29-8.19Q20.92-8.51 20.34-8.51L20.34-8.51L20.34-8.51Q19.76-8.51 19.40-8.19L19.40-8.19L19.40-8.19Q19.04-7.86 19.04-7.32L19.04-7.32L19.04-6.96L19.04-6.96Q19.04-6.89 18.99-6.84L18.99-6.84L18.99-6.84Q18.94-6.79 18.86-6.79L18.86-6.79L17.15-6.79L17.15-6.79Q17.08-6.79 17.03-6.84L17.03-6.84L17.03-6.84Q16.98-6.89 16.98-6.96L16.98-6.96L16.98-7.64L16.98-7.64Q17.02-8.42 17.47-9.03L17.47-9.03L17.47-9.03Q17.92-9.63 18.67-9.95L18.67-9.95L18.67-9.95Q19.42-10.27 20.34-10.27L20.34-10.27L20.34-10.27Q21.37-10.27 22.13-9.88L22.13-9.88L22.13-9.88Q22.90-9.50 23.31-8.85L23.31-8.85L23.31-8.85Q23.72-8.19 23.72-7.40L23.72-7.40L23.72-7.40Q23.72-6.79 23.42-6.15L23.42-6.15L23.42-6.15Q23.11-5.51 22.50-4.77L22.50-4.77L22.50-4.77Q22.05-4.21 21.53-3.65L21.53-3.65L21.53-3.65Q21.01-3.10 19.98-2.06L19.98-2.06L19.76-1.84ZM28.62 0.16L28.62 0.16Q27.03 0.16 26.10-0.73L26.10-0.73L26.10-0.73Q25.17-1.62 25.17-3.16L25.17-3.16L25.17-6.99L25.17-6.99Q25.17-8.50 26.10-9.38L26.10-9.38L26.10-9.38Q27.03-10.27 28.62-10.27L28.62-10.27L28.62-10.27Q30.22-10.27 31.15-9.38L31.15-9.38L31.15-9.38Q32.09-8.50 32.09-6.99L32.09-6.99L32.09-3.16L32.09-3.16Q32.09-1.62 31.15-0.73L31.15-0.73L31.15-0.73Q30.22 0.16 28.62 0.16L28.62 0.16ZM28.62-1.59L28.62-1.59Q29.28-1.59 29.66-1.99L29.66-1.99L29.66-1.99Q30.04-2.39 30.04-3.06L30.04-3.06L30.04-7.05L30.04-7.05Q30.04-7.71 29.66-8.11L29.66-8.11L29.66-8.11Q29.28-8.51 28.62-8.51L28.62-8.51L28.62-8.51Q27.99-8.51 27.60-8.11L27.60-8.11L27.60-8.11Q27.22-7.71 27.22-7.05L27.22-7.05L27.22-3.06L27.22-3.06Q27.22-2.39 27.60-1.99L27.60-1.99L27.60-1.99Q27.99-1.59 28.62-1.59L28.62-1.59Z"/></g>
</svg>
