<?xml version="1.0" encoding="UTF-8"?>
<svg width="470px" height="391px" viewBox="0 0 470 391" version="1.1" xmlns="http://www.w3.org/2000/svg" xmlns:xlink="http://www.w3.org/1999/xlink">
    <!-- Generator: Sketch 64 (93537) - https://sketch.com -->
    <title>Group 22</title>
    <desc>Created with Sketch.</desc>
    <defs>
        <polygon id="path-1" points="0.657605705 0.687560887 469.309904 0.687560887 469.309904 391 0.657605705 391"></polygon>
        <polygon id="path-3" points="0.4797 0.0293947896 1.4797 0.0293947896 1.4797 385.226298 0.4797 385.226298"></polygon>
        <polygon id="path-5" points="0.615604181 0.4328 462.352729 0.4328 462.352729 1.4328 0.615604181 1.4328"></polygon>
    </defs>
    <g id="Latest" stroke="none" stroke-width="1" fill="none" fill-rule="evenodd">
        <g id="Group-22" transform="translate(0.000000, -0.000000)">
            <g id="blocks-group">
                <g id="Group-21">
                    <g id="Group-3">
                        <mask id="mask-2" fill="white">
                            <use xlink:href="#path-1"></use>
                        </mask>
                        <g id="Clip-2"></g>
                        <path d="M463.044552,391.000158 L6.92374664,391.000158 C3.46262248,391.000158 0.657605705,388.195363 0.657605705,384.737063 L0.657605705,6.95065565 C0.657605705,3.49156694 3.46262248,0.687560887 6.92374664,0.687560887 L463.044552,0.687560887 C466.505676,0.687560887 469.309904,3.49156694 469.309904,6.95065565 L469.309904,384.737063 C469.309904,388.195363 466.505676,391.000158 463.044552,391.000158" id="Fill-1" fill="#4B36B6" mask="url(#mask-2)"></path>
                    </g>
                    <g id="blocks-group" transform="translate(39.000000, 33.000000)" fill="#6448F3">
                        <path d="M216.079324,148.576471 L195.135436,148.576471 C194.175262,148.576471 193.39738,147.798476 193.39738,146.838163 L193.39738,125.891248 C193.39738,124.930936 194.175262,124.152941 195.135436,124.152941 L216.079324,124.152941 C217.039497,124.152941 217.816594,124.930936 217.816594,125.891248 L217.816594,146.838163 C217.816594,147.798476 217.039497,148.576471 216.079324,148.576471" id="Fill-10"></path>
                        <path d="M118.401738,24.4235294 L97.458524,24.4235294 C96.4983812,24.4235294 95.720524,23.6455348 95.720524,22.6860081 L95.720524,1.73830712 C95.720524,0.778780451 96.4983812,0 97.458524,0 L118.401738,0 C119.361881,0 120.139738,0.778780451 120.139738,1.73830712 L120.139738,22.6860081 C120.139738,23.6455348 119.361881,24.4235294 118.401738,24.4235294" id="Fill-12"></path>
                        <path d="M343.262,98.7117647 L322.318786,98.7117647 C321.358643,98.7117647 320.580786,97.9337701 320.580786,96.9742434 L320.580786,76.0265424 C320.580786,75.0670157 321.358643,74.2882353 322.318786,74.2882353 L343.262,74.2882353 C344.222143,74.2882353 345,75.0670157 345,76.0265424 L345,96.9742434 C345,97.9337701 344.222143,98.7117647 343.262,98.7117647" id="Fill-14"></path>
                        <path d="M282.213965,44.7764706 L261.270751,44.7764706 C260.310608,44.7764706 259.532751,43.998476 259.532751,43.0389493 L259.532751,22.0912483 C259.532751,21.1317216 260.310608,20.3529412 261.270751,20.3529412 L282.213965,20.3529412 C283.174108,20.3529412 283.951965,21.1317216 283.951965,22.0912483 L283.951965,43.0389493 C283.951965,43.998476 283.174108,44.7764706 282.213965,44.7764706" id="Fill-16"></path>
                        <path d="M281.197228,148.576471 L260.252554,148.576471 C259.293166,148.576471 258.515284,147.798451 258.515284,146.838893 L258.515284,125.890518 C258.515284,124.930961 259.293166,124.152941 260.252554,124.152941 L281.197228,124.152941 C282.156616,124.152941 282.934498,124.930961 282.934498,125.890518 L282.934498,146.838893 C282.934498,147.798451 282.156616,148.576471 281.197228,148.576471" id="Fill-18"></path>
                        <path d="M175.379904,71.2352941 L154.43669,71.2352941 C153.476547,71.2352941 152.69869,70.4572995 152.69869,69.4977728 L152.69869,48.5500718 C152.69869,47.5905452 153.476547,46.8117647 154.43669,46.8117647 L175.379904,46.8117647 C176.340047,46.8117647 177.117904,47.5905452 177.117904,48.5500718 L177.117904,69.4977728 C177.117904,70.4572995 176.340047,71.2352941 175.379904,71.2352941" id="Fill-20"></path>
                        <path d="M198.781651,86.5 L177.838437,86.5 C176.878294,86.5 176.100437,85.7220054 176.100437,84.7616929 L176.100437,63.8147777 C176.100437,62.8544652 176.878294,62.0764706 177.838437,62.0764706 L198.781651,62.0764706 C199.741794,62.0764706 200.519651,62.8544652 200.519651,63.8147777 L200.519651,84.7616929 C200.519651,85.7220054 199.741794,86.5 198.781651,86.5" id="Fill-22"></path>
                        <path d="M253.724882,193.352941 L232.781668,193.352941 C231.821525,193.352941 231.043668,192.574947 231.043668,191.614634 L231.043668,170.667719 C231.043668,169.707406 231.821525,168.929412 232.781668,168.929412 L253.724882,168.929412 C254.685025,168.929412 255.462882,169.707406 255.462882,170.667719 L255.462882,191.614634 C255.462882,192.574947 254.685025,193.352941 253.724882,193.352941" id="Fill-24"></path>
                        <path d="M157.065493,157.735294 L136.122279,157.735294 C135.162137,157.735294 134.384279,156.957274 134.384279,155.997717 L134.384279,135.049342 C134.384279,134.089784 135.162137,133.311765 136.122279,133.311765 L157.065493,133.311765 C158.025636,133.311765 158.803493,134.089784 158.803493,135.049342 L158.803493,155.997717 C158.803493,156.957274 158.025636,157.735294 157.065493,157.735294" id="Fill-26"></path>
                        <path d="M23.7772839,167.911765 L2.83406985,167.911765 C1.873927,167.911765 1.09606987,167.13377 1.09606987,166.173458 L1.09606987,145.226542 C1.09606987,144.26623 1.873927,143.488235 2.83406985,143.488235 L23.7772839,143.488235 C24.7374267,143.488235 25.5152838,144.26623 25.5152838,145.226542 L25.5152838,166.173458 C25.5152838,167.13377 24.7374267,167.911765 23.7772839,167.911765" id="Fill-28"></path>
                        <path d="M82.7903843,111.941176 L61.8471703,111.941176 C60.8870274,111.941176 60.1091703,111.163182 60.1091703,110.202869 L60.1091703,89.2559542 C60.1091703,88.2956417 60.8870274,87.5176471 61.8471703,87.5176471 L82.7903843,87.5176471 C83.7505271,87.5176471 84.5283843,88.2956417 84.5283843,89.2559542 L84.5283843,110.202869 C84.5283843,111.163182 83.7505271,111.941176 82.7903843,111.941176" id="Fill-38"></path>
                        <path d="M22.7605464,109.905882 L1.81587278,109.905882 C0.856484782,109.905882 0.0786026201,109.127888 0.0786026201,108.168361 L0.0786026201,87.2206601 C0.0786026201,86.2611334 0.856484782,85.4823529 1.81587278,85.4823529 L22.7605464,85.4823529 C23.7199344,85.4823529 24.4978166,86.2611334 24.4978166,87.2206601 L24.4978166,108.168361 C24.4978166,109.127888 23.7199344,109.905882 22.7605464,109.905882" id="Fill-40"></path>
                        <path d="M68.5465726,178.088235 L47.601899,178.088235 C46.642511,178.088235 45.8646288,177.310241 45.8646288,176.349928 L45.8646288,155.403013 C45.8646288,154.4427 46.642511,153.664706 47.601899,153.664706 L68.5465726,153.664706 C69.5059606,153.664706 70.2838428,154.4427 70.2838428,155.403013 L70.2838428,176.349928 C70.2838428,177.310241 69.5059606,178.088235 68.5465726,178.088235" id="Fill-42"></path>
                        <path d="M74.6506463,271.711765 L53.7074323,271.711765 C52.7472894,271.711765 51.9694323,270.933745 51.9694323,269.974188 L51.9694323,249.025812 C51.9694323,248.066255 52.7472894,247.288235 53.7074323,247.288235 L74.6506463,247.288235 C75.6107892,247.288235 76.3886463,248.066255 76.3886463,249.025812 L76.3886463,269.974188 C76.3886463,270.933745 75.6107892,271.711765 74.6506463,271.711765" id="Fill-44"></path>
                        <path d="M170.292568,346 L149.349354,346 C148.389211,346 147.611354,345.222766 147.611354,344.262423 L147.611354,323.314834 C147.611354,322.35449 148.389211,321.576471 149.349354,321.576471 L170.292568,321.576471 C171.252711,321.576471 172.030568,322.35449 172.030568,323.314834 L172.030568,344.262423 C172.030568,345.222766 171.252711,346 170.292568,346" id="Fill-50"></path>
                        <path d="M224.218332,187.247059 L203.275118,187.247059 C202.314975,187.247059 201.537118,186.469039 201.537118,185.509482 L201.537118,164.561892 C201.537118,163.601549 202.314975,162.823529 203.275118,162.823529 L224.218332,162.823529 C225.178475,162.823529 225.956332,163.601549 225.956332,164.561892 L225.956332,185.509482 C225.956332,186.469039 225.178475,187.247059 224.218332,187.247059" id="Fill-52"></path>
                        <path d="M136.716148,134.329412 L115.772934,134.329412 C114.812792,134.329412 114.034934,133.551417 114.034934,132.591105 L114.034934,111.643404 C114.034934,110.683877 114.812792,109.905882 115.772934,109.905882 L136.716148,109.905882 C137.676291,109.905882 138.454148,110.683877 138.454148,111.643404 L138.454148,132.591105 C138.454148,133.551417 137.676291,134.329412 136.716148,134.329412" id="Fill-54"></path>
                    </g>
                </g>
                <path d="M337.742188,32 L337.742188,30.015625 L332.726562,30.015625 L332.726562,20.7265625 L330.367188,20.7265625 L330.367188,32 L337.742188,32 Z M343.015625,32.1796875 C345.125,32.1796875 346.617188,31.171875 346.953125,29.5703125 L344.835938,29.5703125 C344.59375,30.15625 343.976562,30.484375 343.078125,30.484375 C341.890625,30.484375 341.140625,29.6640625 341.109375,28.3515625 L341.109375,28.234375 L347.023438,28.234375 L347.023438,27.5546875 C347.023438,24.8359375 345.523438,23.2109375 342.984375,23.2109375 C340.421875,23.2109375 338.84375,24.9453125 338.84375,27.7421875 C338.84375,30.5234375 340.390625,32.1796875 343.015625,32.1796875 Z M344.789062,26.8203125 L341.117188,26.8203125 C341.195312,25.6640625 341.9375,24.90625 342.992188,24.90625 C344.054688,24.90625 344.742188,25.640625 344.789062,26.8203125 Z M351.242188,32.1328125 C352.359375,32.1328125 353.296875,31.65625 353.742188,30.859375 L353.882812,30.859375 L353.882812,32 L356.085938,32 L356.085938,26.125 C356.085938,24.2890625 354.796875,23.2109375 352.515625,23.2109375 C350.351562,23.2109375 348.890625,24.203125 348.742188,25.78125 L350.835938,25.78125 C351.023438,25.2421875 351.570312,24.953125 352.390625,24.953125 C353.328125,24.953125 353.84375,25.3828125 353.84375,26.125 L353.84375,26.8359375 L351.757812,26.9609375 C349.617188,27.0859375 348.421875,27.9921875 348.421875,29.546875 C348.421875,31.1171875 349.585938,32.1328125 351.242188,32.1328125 Z M351.992188,30.46875 C351.203125,30.46875 350.648438,30.0703125 350.648438,29.40625 C350.648438,28.7734375 351.125,28.40625 352.101562,28.34375 L353.84375,28.2265625 L353.84375,28.8671875 C353.84375,29.7734375 353.046875,30.46875 351.992188,30.46875 Z M361.40625,32.1328125 C362.601562,32.1328125 363.578125,31.578125 364.039062,30.6484375 L364.179688,30.6484375 L364.179688,32 L366.382812,32 L366.382812,20.109375 L364.109375,20.109375 L364.109375,24.7734375 L363.976562,24.7734375 C363.53125,23.8203125 362.570312,23.2578125 361.40625,23.2578125 C359.242188,23.2578125 357.898438,24.953125 357.898438,27.6875 C357.898438,30.4296875 359.234375,32.1328125 361.40625,32.1328125 Z M362.179688,30.296875 C360.960938,30.296875 360.234375,29.3203125 360.234375,27.6953125 C360.234375,26.078125 360.96875,25.1015625 362.179688,25.1015625 C363.390625,25.1015625 364.132812,26.09375 364.132812,27.703125 C364.132812,29.3125 363.398438,30.296875 362.179688,30.296875 Z M372.492188,32.1796875 C374.601562,32.1796875 376.09375,31.171875 376.429688,29.5703125 L374.3125,29.5703125 C374.070312,30.15625 373.453125,30.484375 372.554688,30.484375 C371.367188,30.484375 370.617188,29.6640625 370.585938,28.3515625 L370.585938,28.234375 L376.5,28.234375 L376.5,27.5546875 C376.5,24.8359375 375,23.2109375 372.460938,23.2109375 C369.898438,23.2109375 368.320312,24.9453125 368.320312,27.7421875 C368.320312,30.5234375 369.867188,32.1796875 372.492188,32.1796875 Z M374.265625,26.8203125 L370.59375,26.8203125 C370.671875,25.6640625 371.414062,24.90625 372.46875,24.90625 C373.53125,24.90625 374.21875,25.640625 374.265625,26.8203125 Z M380.632812,32 L380.632812,27.1875 C380.632812,25.9765625 381.484375,25.234375 382.726562,25.234375 C383.09375,25.234375 383.625,25.296875 383.804688,25.359375 L383.804688,23.359375 C383.609375,23.296875 383.226562,23.2578125 382.914062,23.2578125 C381.820312,23.2578125 380.929688,23.90625 380.703125,24.765625 L380.5625,24.765625 L380.5625,23.3984375 L378.359375,23.3984375 L378.359375,32 L380.632812,32 Z M388.523438,32.1796875 C390.78125,32.1796875 392.320312,31.0703125 392.320312,29.3671875 C392.320312,28.0859375 391.570312,27.3828125 389.898438,27.015625 L388.28125,26.6640625 C387.484375,26.484375 387.117188,26.2109375 387.117188,25.7734375 C387.117188,25.2109375 387.71875,24.828125 388.53125,24.828125 C389.375,24.828125 389.898438,25.1796875 390.015625,25.75 L392.117188,25.75 C391.992188,24.125 390.703125,23.2109375 388.515625,23.2109375 C386.367188,23.2109375 384.929688,24.296875 384.929688,25.90625 C384.929688,27.2265625 385.742188,28.015625 387.414062,28.3828125 L388.976562,28.734375 C389.734375,28.90625 390.0625,29.171875 390.0625,29.609375 C390.0625,30.1796875 389.453125,30.5703125 388.570312,30.5703125 C387.664062,30.5703125 387.109375,30.21875 386.9375,29.625 L384.71875,29.625 C384.875,31.25 386.25,32.1796875 388.523438,32.1796875 Z" id="Leaders" fill="#FFFFFF" fill-rule="nonzero"></path>
                <g id="Group-20" transform="translate(393.000000, 41.000000)">
                    <path d="M31.2758575,41 L9.72414245,41 C4.35348637,41 0,36.6465951 0,31.2760396 L0,9.72472804 C0,4.35417252 4.35348637,0 9.72414245,0 L31.2758575,0 C36.6465136,0 41,4.35417252 41,9.72472804 L41,31.2760396 C41,36.6465951 36.6465136,41 31.2758575,41" id="Fill-56" fill="#FFFFFF"></path>
                    <g id="Chargebee-logo-mark" transform="translate(10.000000, 8.000000)" fill="#FF6C36" fill-rule="nonzero">
                        <path d="M20.8043713,17.3998635 C20.5712095,17.2396871 20.2644176,17.2520084 20.0312558,17.4121847 C19.798094,17.5723611 19.6999206,17.8803927 19.7858223,18.1514604 C19.871724,18.4225281 20.1171575,18.6196683 20.399406,18.6319896 C20.6816545,18.6443108 20.9393597,18.4841345 21.0498048,18.225388 C21.1725215,17.9296777 21.0743481,17.5723611 20.8043713,17.3998635 C20.5098511,17.190402 21.1111632,17.6093249 20.8043713,17.3998635 Z" id="Path"></path>
                        <path d="M12.3277646,23.5952981 C12.4761233,23.5952981 12.6368454,23.5952981 12.7852041,23.583179 C13.0942849,23.5710599 13.4033657,23.5468217 13.7000833,23.5104644 C13.9473479,23.4862262 13.1931908,23.5710599 13.7000833,23.5104644 C14.0091641,23.4741071 14.2564287,23.7528463 14.1946125,24.0558237 C14.1575228,24.1891337 14.058617,24.2982055 13.9349847,24.358801 C13.848442,24.3951583 13.7618994,24.3951583 13.6753568,24.4072774 C13.576451,24.4193965 13.4651819,24.4315156 13.366276,24.4315156 C12.5503027,24.4921111 11.7343295,24.479992 10.9183562,24.3951583 C10.1765623,24.3103246 9.45949485,24.1770146 8.74242743,23.9588709 C8.05008646,23.7528463 7.38247196,23.4862262 6.73958392,23.1590107 C6.08433265,22.8317951 5.4785343,22.4439841 4.89746242,22.0076967 C4.22984792,21.5229329 3.62404957,20.9654545 3.08006738,20.3473807 C2.5360852,19.741426 2.05391917,19.0748758 1.64593253,18.3840874 C1.22558265,17.6690608 0.87941217,16.9176769 0.619784308,16.1299358 C0.347793214,15.3300755 0.174707973,14.5059771 0.0758021207,13.6697596 C-0.0231037316,12.821423 -0.0231037316,11.9609673 0.0634388891,11.1126306 C0.14998151,10.2764131 0.323066751,9.44019558 0.595057845,8.64033534 C0.854685707,7.85259419 1.18849296,7.10121032 1.60884283,6.37406465 C2.01682947,5.65903807 2.51135873,4.99248787 3.05534092,4.37441404 C3.59932311,3.76845931 4.20512145,3.21098096 4.86037272,2.71409808 C5.52798723,2.21721521 6.24505466,1.7809278 6.98684855,1.42947406 C7.7533689,1.06590122 8.55697895,0.787162045 9.38531546,0.581137437 C10.2260152,0.375112829 11.0914414,0.266040977 11.9568676,0.229683694 C12.8222938,0.205445504 13.7000833,0.266040977 14.5531462,0.411470112 C15.3814828,0.556899247 16.197456,0.787162045 16.9887029,1.09013941 C17.7675864,1.39311677 18.5093803,1.7809278 19.2017213,2.2293343 C19.8940623,2.6777408 20.5369503,3.19886187 21.1303854,3.78057841 C21.3776501,4.0229603 21.6001882,4.26534219 21.7609102,4.58043865 C21.8969058,4.84705873 21.9710852,5.1500361 21.9958116,5.44089437 C22.0329013,6.0468491 21.8227264,6.66492292 21.4023765,7.11332942 C20.9202105,7.64656958 20.1907798,7.93742785 19.4737124,7.88895147 C19.1275419,7.86471328 18.7813714,7.76776053 18.4722906,7.5980932 C18.3115686,7.51325954 18.1632099,7.40418769 18.0395775,7.28299674 C17.8912188,7.1496867 17.7552232,6.99213847 17.6068644,6.85882843 C17.0010661,6.30135008 16.3087251,5.85294358 15.554568,5.51360893 C14.7756844,5.17427429 13.9473479,4.95613058 13.1066482,4.88341602 C12.2412219,4.81070145 11.3634325,4.87129692 10.5227328,5.07732153 C9.70675948,5.28334614 8.9278759,5.62268078 8.21080847,6.07108728 C7.5184675,6.51949378 6.90030593,7.07697214 6.39341343,7.70716505 C5.87415771,8.34947707 5.46617107,9.07662274 5.18181674,9.8522448 C4.89746242,10.6399859 4.74910364,11.4762035 4.74910364,12.312421 C4.74910364,13.1607576 4.88509919,13.9969751 5.16945351,14.7968354 C5.44144461,15.5724574 5.84943125,16.287484 6.35632374,16.929796 C6.86321623,17.572108 7.48137781,18.1295864 8.17371877,18.5779929 C8.87842297,19.0385185 9.65730656,19.3778531 10.4856431,19.5838777 C11.3263428,19.8020215 12.2041323,19.8626169 13.0695585,19.7899024 C13.9102582,19.7171878 14.7385947,19.5111632 15.5174783,19.1718285 C15.6040209,19.1354712 15.6782003,19.0869949 15.7647429,19.0748758 C15.8389223,19.0627567 15.9131017,19.0627567 15.9872811,19.0869949 C16.1356399,19.1354712 16.246909,19.2445431 16.2839987,19.3899722 C16.3210884,19.5232823 16.2963619,19.6808305 16.197456,19.7899024 C16.1480031,19.8504978 16.0738237,19.8868551 15.9996443,19.9232124 C15.9007385,19.9595697 15.8141959,20.0080461 15.71529,20.0444033 C14.9240432,20.3716189 14.0957067,20.5776435 13.2426437,20.6503581 C12.3772175,20.7351917 11.4994281,20.6867154 10.6587283,20.517048 C10.7699974,20.638239 10.8689032,20.771549 10.9678091,20.9048591 C11.066715,21.0381691 11.1656208,21.1835982 11.2521634,21.3169083 C11.2645267,21.3411465 11.3016164,21.3896228 11.3016164,21.3896228 C11.3016164,21.3896228 11.3139796,21.3896228 11.338706,21.3896228 C11.388159,21.3896228 11.4252487,21.4017419 11.4747016,21.4017419 C11.5612442,21.413861 11.6477868,21.413861 11.7343295,21.4259801 C12.0928632,21.4502183 12.4513969,21.4502183 12.8099306,21.4380992 C13.5146348,21.4017419 14.219339,21.3047892 14.8993167,21.1108837 C15.554568,20.9290972 16.197456,20.6745963 16.8032544,20.3594998 C17.3966895,20.0444033 17.9530349,19.6808305 18.4599274,19.2445431 C18.5835597,19.1354712 18.707192,19.0263994 18.8308244,18.9173275 C18.9420934,18.8203748 19.0286361,18.6991838 19.1646316,18.6385884 C19.399533,18.5173974 19.6838873,18.5537547 19.881699,18.7113029 C20.091874,18.8688512 20.1784166,19.1354712 20.1166004,19.3899722 C20.0795107,19.5232823 20.0176946,19.6323541 19.9187887,19.7171878 C19.7951564,19.8262596 19.6838873,19.9474506 19.560255,20.0565224 C19.0657258,20.4928098 18.5341068,20.89274 17.9653981,21.2320746 C17.3843263,21.5835284 16.7785279,21.8743866 16.1356399,22.1046494 C15.4803886,22.3470313 14.8127741,22.5166986 14.1204331,22.6257705 C13.4157289,22.7348423 12.6986615,22.7833187 11.9815941,22.7590805 C12.0434102,22.9166288 12.0928632,23.074177 12.1423161,23.2317252 C12.1670426,23.3044398 12.1794058,23.3771544 12.2041323,23.4498689 C12.2041323,23.4741071 12.2288587,23.5347026 12.2288587,23.5347026 L12.3277646,23.5952981 Z" id="Path"></path>
                        <path d="M19.462049,21.4289039 C18.7593102,21.9016817 17.9938268,22.3069199 17.1906967,22.6221052 C16.7891317,22.7796978 16.3750178,22.9147772 15.9483549,23.0385999 C15.7350235,23.094883 15.5216921,23.1511661 15.3083606,23.1961926 C15.2205183,23.2187058 15.120127,23.2299624 15.0322847,23.2749889 C14.9569912,23.3087587 14.9067956,23.3650418 14.8691489,23.4325815 C14.7813065,23.5789175 14.8064043,23.7477668 14.9193445,23.8715895 C15.0448336,24.0179255 15.2330672,24.0404388 15.4213008,24.0066689 C15.8479637,23.916616 16.2746265,23.8040498 16.6887404,23.6689704 C17.5169683,23.4100683 18.3200984,23.0611132 19.0730329,22.6446184 C19.2612665,22.5433088 19.4495001,22.4307427 19.6251848,22.3181765 C19.7130271,22.2618934 19.8134184,22.2056104 19.9012608,22.1493273 C19.9765542,22.0930442 20.0643965,22.0480177 20.1271411,21.9692214 C20.2275323,21.8453987 20.2275323,21.6652928 20.13969,21.5302134 C20.0518476,21.395134 19.8761629,21.3163377 19.7130271,21.3275943 C19.6126359,21.3501075 19.5247935,21.3838774 19.462049,21.4289039 C18.1695115,22.2844067 19.6628315,21.2938245 19.462049,21.4289039 Z" id="Path"></path>
                        <path d="M20.8147667,20.1110526 C20.7078321,20.2297041 20.5890158,20.3483556 20.4701996,20.4670071 C20.3751466,20.5619283 20.268212,20.6449843 20.2206855,20.775501 C20.1493957,21.0246692 20.3157385,21.2857025 20.5652526,21.3212979 C20.7197137,21.3450282 20.8504116,21.2857025 20.9573462,21.1907813 C21.0761624,21.0839949 21.1949787,20.9653434 21.3019133,20.8466919 C21.3969663,20.7517707 21.5039009,20.6568495 21.5395458,20.5144677 C21.563309,20.4076813 21.5514274,20.2771647 21.4920193,20.1822435 C21.3494398,19.9449405 21.0048727,19.909345 20.8147667,20.1110526 C20.6603056,20.2771647 20.9811094,19.9330753 20.8147667,20.1110526 Z" id="Path"></path>
                        <path d="M18.0454001,17.8563525 C17.7504504,18.1267049 17.4426768,18.374528 17.1092554,18.5998217 C17.0194882,18.6561452 16.916897,18.7237333 16.8271297,18.7800567 C16.7501863,18.8251154 16.6860668,18.8927036 16.6475951,18.9715564 C16.5706517,19.1292619 16.6219473,19.3207616 16.7758341,19.4334085 C16.9553687,19.5685847 17.1861988,19.55732 17.3785573,19.4334085 C17.5580919,19.3207616 17.7376265,19.2081147 17.9043372,19.0954679 C18.058224,18.982821 18.2121107,18.8589095 18.3659975,18.734998 C18.4557648,18.6674098 18.5327082,18.588557 18.6224755,18.5097042 C18.6994189,18.4421161 18.7763623,18.374528 18.8276579,18.2844105 C18.9046013,18.1041756 18.8276579,17.8901465 18.6352994,17.7887644 C18.4429409,17.6986469 18.1992868,17.7211763 18.0454001,17.8563525 C17.5965636,18.2731458 18.2249346,17.6986469 18.0454001,17.8563525 Z" id="Path"></path>
                        <path d="M12.3439935,9.65306122 C11.7393722,9.65306122 11.1470902,9.83825485 10.6535218,10.1962959 C10.1722927,10.5419906 9.80211638,11.0234941 9.60468904,11.579075 C9.39492248,12.1470021 9.37024406,12.7890067 9.54299299,13.3816263 C9.70340271,13.9495534 10.0365614,14.4557494 10.4931121,14.8261366 C10.9496628,15.2088701 11.5296057,15.4434487 12.1218877,15.4804874 C12.7265089,15.5298724 13.3434694,15.3817175 13.8617162,15.0607152 C14.3676238,14.7520592 14.7624785,14.3075944 15.0092626,13.7643598 C15.2560468,13.2087789 15.3300821,12.5791206 15.20669,11.9741547 C15.0956371,11.3938813 14.7871569,10.8506467 14.3676238,10.4432207 C13.9357514,10.0357947 13.380487,9.7641774 12.8005442,9.66540747 C12.6401345,9.66540747 12.492064,9.65306122 12.3439935,9.65306122 Z" id="Path"></path>
                    </g>
                </g>
            </g>
            <g id="Group-6" transform="translate(235.000000, 3.000000)">
                <mask id="mask-4" fill="white">
                    <use xlink:href="#path-3"></use>
                </mask>
                <g id="Clip-5"></g>
                <line x1="0.9797" y1="0.0292400802" x2="0.9797" y2="385.226298" id="Stroke-4" stroke="#6448F3" stroke-width="3" mask="url(#mask-4)"></line>
            </g>
            <g id="Group-9" transform="translate(4.000000, 196.000000)">
                <mask id="mask-6" fill="white">
                    <use xlink:href="#path-5"></use>
                </mask>
                <g id="Clip-8"></g>
                <line x1="0.615604181" y1="0.9328" x2="462.352807" y2="0.9328" id="Stroke-7" stroke="#6448F3" stroke-width="3" mask="url(#mask-6)"></line>
            </g>
        </g>
    </g>
</svg>