<?xml version="1.0" encoding="UTF-8"?>
<svg width="51px" height="49px" viewBox="0 0 51 49" version="1.1" xmlns="http://www.w3.org/2000/svg" xmlns:xlink="http://www.w3.org/1999/xlink">
    <!-- Generator: Sketch 52.6 (67491) - http://www.bohemiancoding.com/sketch -->
    <title>Group 10</title>
    <desc>Created with Sketch.</desc>
    <g id="Page-1" stroke="none" stroke-width="1" fill="none" fill-rule="evenodd">
        <g id="Group-10">
            <path d="M45.5845,24.9623 C44.6885,24.9623 43.8515,25.2013 43.1345,25.5603 C42.1785,26.0973 41.1025,26.3963 39.9675,26.3963 L39.1305,26.3963 L39.1305,17.0143 C39.1305,15.2813 37.7565,13.9073 36.0235,13.9073 L26.4025,13.9073 L26.4025,13.2503 C26.4025,12.0553 26.7615,10.9203 27.2995,9.8443 C27.5985,9.2463 27.7775,8.5293 27.8365,7.8123 C27.9565,4.9443 25.5665,2.3153 22.6975,2.2553 C19.7105,2.1953 17.2605,4.5863 17.2605,7.5133 C17.2605,8.4103 17.4395,9.2463 17.8575,9.9633 C18.3955,10.9203 18.6945,11.9953 18.6945,13.1303 L18.6945,13.9673 L8.9545,13.9673 C7.2215,13.9673 5.8475,15.3413 5.8475,17.0743 L5.8475,43.5463 C5.8475,45.2793 7.2215,46.6533 8.9545,46.6533 L20.1885,46.6533 L24.8495,46.5933 L36.0835,46.5933 C37.8155,46.5933 39.1905,45.2193 39.1905,43.4863 L39.1905,34.1643 L39.8475,34.1643 C41.0425,34.1643 42.1785,34.5233 43.2535,35.0613 C43.8515,35.3593 44.5685,35.5393 45.2855,35.5983 C48.1535,35.7183 50.7825,33.3283 50.8425,30.4603 C50.9625,27.4123 48.5715,24.9623 45.5845,24.9623" id="Fill-153" fill="#E6DCFF"></path>
            <path d="M41.729,24.9623 C40.833,24.9623 39.996,25.2013 39.279,25.5603 C38.323,26.0973 37.248,26.3963 36.112,26.3963 L35.275,26.3963 L35.275,17.0143 C35.275,15.2813 33.901,13.9073 32.168,13.9073 L22.547,13.9073 L22.547,13.2503 C22.547,12.0553 22.906,10.9203 23.444,9.8443 C23.743,9.2463 23.922,8.5293 23.982,7.8123 C24.101,4.9443 21.711,2.3153 18.843,2.2553 C15.855,2.1953 13.405,4.5863 13.405,7.5133 C13.405,8.4103 13.584,9.2463 14.002,9.9633 C14.541,10.9203 14.839,11.9953 14.839,13.1303 L14.839,13.9673 L5.099,13.9673 C3.366,13.9673 1.992,15.3413 1.992,17.0743 L1.992,43.5463 C1.992,45.2793 3.366,46.6533 5.099,46.6533 L16.333,46.6533 L20.994,46.5933 L32.228,46.5933 C33.961,46.5933 35.335,45.2193 35.335,43.4863 L35.335,34.1643 L35.993,34.1643 C37.187,34.1643 38.323,34.5233 39.398,35.0613 C39.996,35.3593 40.713,35.5393 41.43,35.5983 C44.298,35.7183 46.928,33.3283 46.987,30.4603 C47.107,27.4123 44.717,24.9623 41.729,24.9623" id="Fill-154" fill="#FFFFFF"></path>
            <path d="M5.0991,15.4672 C4.1981,15.4672 3.4921,16.1732 3.4921,17.0742 L3.4921,43.5462 C3.4921,44.4472 4.1981,45.1532 5.0991,45.1532 L16.3331,45.1532 L20.9751,45.0932 L32.2281,45.0932 C33.1291,45.0932 33.8351,44.3872 33.8351,43.4862 L33.8351,34.1642 C33.8351,33.3362 34.5071,32.6642 35.3351,32.6642 L35.9931,32.6642 C37.3171,32.6642 38.6501,33.0092 40.0691,33.7192 C40.4731,33.9212 41.0001,34.0572 41.5541,34.1042 C42.4911,34.1322 43.5011,33.7462 44.2791,33.0152 C45.0271,32.3122 45.4681,31.3692 45.4881,30.4282 C45.5301,29.3442 45.1591,28.3532 44.4441,27.6092 C43.3281,26.4492 41.5351,26.1072 39.9511,26.9012 C38.8001,27.5502 37.4871,27.8962 36.1121,27.8962 L35.2751,27.8962 C34.4471,27.8962 33.7751,27.2252 33.7751,26.3962 L33.7751,17.0142 C33.7751,16.1132 33.0691,15.4072 32.1681,15.4072 L22.5471,15.4072 C21.7191,15.4072 21.0471,14.7362 21.0471,13.9072 L21.0471,13.2502 C21.0471,11.9272 21.3921,10.5932 22.1021,9.1742 C22.3041,8.7702 22.4411,8.2422 22.4871,7.6872 C22.5241,6.7572 22.1291,5.7412 21.3981,4.9642 C20.6951,4.2152 19.7521,3.7742 18.8111,3.7552 C17.7601,3.7272 16.7781,4.1252 16.0331,4.8552 C15.3061,5.5682 14.9051,6.5122 14.9051,7.5132 C14.9051,8.1902 15.0371,8.7602 15.2981,9.2082 C15.9831,10.4252 16.3391,11.7742 16.3391,13.1312 L16.3391,13.9672 C16.3391,14.7962 15.6681,15.4672 14.8391,15.4672 L5.0991,15.4672 Z M5.0991,48.1532 C2.5581,48.1532 0.4921,46.0862 0.4921,43.5462 L0.4921,17.0742 C0.4921,14.5342 2.5581,12.4672 5.0991,12.4672 L13.2951,12.4672 C13.2111,11.8522 13.0111,11.2592 12.6951,10.6992 C12.1751,9.8062 11.9051,8.7282 11.9051,7.5132 C11.9051,5.6992 12.6251,3.9952 13.9321,2.7132 C15.2581,1.4132 17.0201,0.7062 18.8721,0.7562 C20.6161,0.7922 22.3321,1.5762 23.5851,2.9092 C24.8641,4.2712 25.5551,6.0812 25.4801,7.8742 C25.3981,8.8762 25.1591,9.7682 24.7861,10.5152 C24.4501,11.1852 24.2311,11.8112 24.1241,12.4072 L32.1681,12.4072 C34.7081,12.4072 36.7751,14.4742 36.7751,17.0142 L36.7751,24.8522 C37.3911,24.7682 37.9831,24.5682 38.5441,24.2522 C41.4551,22.7902 44.5991,23.4422 46.6061,25.5302 C47.8921,26.8672 48.5601,28.6392 48.4861,30.5182 C48.4511,32.2332 47.6651,33.9502 46.3331,35.2022 C44.9711,36.4812 43.1581,37.1772 41.3681,37.0972 C40.3671,37.0152 39.4751,36.7762 38.7271,36.4032 C38.0571,36.0672 37.4321,35.8482 36.8351,35.7412 L36.8351,43.4862 C36.8351,46.0272 34.7681,48.0932 32.2281,48.0932 L20.9941,48.0932 L16.3521,48.1532 L5.0991,48.1532 Z" id="Fill-155" fill="#490098"></path>
            <path d="M19.3784,33.5912 C19.0664,33.9472 18.8884,34.3932 18.8884,34.8392 C18.8884,35.3152 19.0904,35.7902 19.4964,36.1572 C20.1834,36.7792 21.2534,36.7092 21.9084,36.0542 L26.7784,31.1832 C27.4534,30.5092 27.4534,29.4062 26.7784,28.7322 L21.9414,23.8942 C21.3804,23.3342 20.5044,23.1502 19.8114,23.5352 C18.7734,24.1142 18.6434,25.5002 19.4224,26.2792 L21.3404,28.1962 L11.8444,28.1962 C10.8834,28.1962 10.1054,28.9752 10.1054,29.9352 C10.1054,30.8952 10.8834,31.6742 11.8444,31.6742 L21.3404,31.6742 L19.3784,33.5912 Z" id="Fill-156" fill="#B65EFF"></path>
            <path d="M19.7427,33.9344 C19.5137,34.2014 19.3887,34.5224 19.3887,34.8394 C19.3887,35.1914 19.5457,35.5274 19.8317,35.7874 C20.3067,36.2144 21.0787,36.1754 21.5547,35.7004 L26.4257,30.8304 C26.9067,30.3494 26.9067,29.5664 26.4257,29.0854 L21.5887,24.2474 C21.1617,23.8214 20.5317,23.7084 20.0547,23.9724 C19.7087,24.1644 19.4887,24.4864 19.4337,24.8764 C19.3797,25.2654 19.5077,25.6574 19.7767,25.9264 L22.5477,28.6964 L11.8447,28.6964 C11.1607,28.6964 10.6057,29.2524 10.6057,29.9354 C10.6057,30.6184 11.1607,31.1744 11.8447,31.1744 L22.5677,31.1744 L19.7427,33.9344 Z M20.6297,37.0904 C20.1007,37.0904 19.5767,36.9044 19.1607,36.5284 C18.6627,36.0774 18.3887,35.4774 18.3887,34.8394 C18.3887,34.2744 18.6067,33.7144 19.0017,33.2624 L19.0287,33.2334 L20.1137,32.1744 L11.8447,32.1744 C10.6097,32.1744 9.6057,31.1694 9.6057,29.9354 C9.6057,28.7014 10.6097,27.6964 11.8447,27.6964 L20.1327,27.6964 L19.0697,26.6334 C18.5797,26.1434 18.3467,25.4354 18.4437,24.7384 C18.5407,24.0404 18.9507,23.4424 19.5687,23.0984 C20.4327,22.6184 21.5537,22.7994 22.2957,23.5404 L27.1327,28.3784 C28.0037,29.2484 28.0037,30.6664 27.1327,31.5374 L22.2627,36.4074 C21.8087,36.8604 21.2167,37.0904 20.6297,37.0904 Z" id="Fill-157" fill="#B65EFF"></path>
        </g>
    </g>
</svg>