<?xml version="1.0" encoding="UTF-8"?>
<svg width="51px" height="49px" viewBox="0 0 51 49" version="1.1" xmlns="http://www.w3.org/2000/svg" xmlns:xlink="http://www.w3.org/1999/xlink">
    <!-- Generator: Sketch 52.6 (67491) - http://www.bohemiancoding.com/sketch -->
    <title>Group 15</title>
    <desc>Created with Sketch.</desc>
    <g id="Page-1" stroke="none" stroke-width="1" fill="none" fill-rule="evenodd">
        <g id="Group-15">
            <path d="M45.2505,25.0106 C44.3545,25.0106 43.5175,25.2496 42.8005,25.6086 C41.8445,26.1456 40.7685,26.4446 39.6335,26.4446 L38.7965,26.4446 L38.7965,17.0636 C38.7965,15.3296 37.4225,13.9556 35.6895,13.9556 L26.0685,13.9556 L26.0685,13.2986 C26.0685,12.1036 26.4275,10.9676 26.9655,9.8926 C27.2645,9.2946 27.4435,8.5776 27.5025,7.8606 C27.6225,4.9926 25.2325,2.3636 22.3645,2.3036 C19.3765,2.2436 16.9265,4.6346 16.9265,7.5616 C16.9265,8.4586 17.1055,9.2946 17.5235,10.0116 C18.0615,10.9676 18.3605,12.0436 18.3605,13.1786 L18.3605,14.0156 L8.6205,14.0156 C6.8875,14.0156 5.5135,15.3896 5.5135,17.1226 L5.5135,43.5946 C5.5135,45.3266 6.8875,46.7016 8.6205,46.7016 L19.8545,46.7016 L24.5155,46.6416 L35.7495,46.6416 C37.4815,46.6416 38.8565,45.2676 38.8565,43.5346 L38.8565,34.2126 L39.5135,34.2126 C40.7085,34.2126 41.8445,34.5716 42.9195,35.1096 C43.5175,35.4076 44.2345,35.5866 44.9515,35.6476 C47.8195,35.7666 50.4495,33.3756 50.5085,30.5076 C50.6285,27.4606 48.2385,25.0106 45.2505,25.0106" id="Fill-186" fill="#E6DCFF"></path>
            <path d="M41.395,25.0106 C40.499,25.0106 39.662,25.2496 38.945,25.6086 C37.989,26.1456 36.914,26.4446 35.778,26.4446 L34.941,26.4446 L34.941,17.0636 C34.941,15.3296 33.567,13.9556 31.834,13.9556 L22.214,13.9556 L22.214,13.2986 C22.214,12.1036 22.572,10.9676 23.11,9.8926 C23.409,9.2946 23.588,8.5776 23.648,7.8606 C23.767,4.9926 21.377,2.3636 18.509,2.3036 C15.521,2.2436 13.071,4.6346 13.071,7.5616 C13.071,8.4586 13.25,9.2946 13.668,10.0116 C14.207,10.9676 14.505,12.0436 14.505,13.1786 L14.505,14.0156 L4.765,14.0156 C3.032,14.0156 1.658,15.3896 1.658,17.1226 L1.658,43.5946 C1.658,45.3266 3.032,46.7016 4.765,46.7016 L15.999,46.7016 L20.66,46.6416 L31.894,46.6416 C33.627,46.6416 35.001,45.2676 35.001,43.5346 L35.001,34.2126 L35.659,34.2126 C36.853,34.2126 37.989,34.5716 39.064,35.1096 C39.662,35.4076 40.379,35.5866 41.096,35.6476 C43.964,35.7666 46.594,33.3756 46.654,30.5076 C46.773,27.4606 44.383,25.0106 41.395,25.0106" id="Fill-187" fill="#FFFFFF"></path>
            <path d="M4.7651,15.5155 C3.8641,15.5155 3.1581,16.2215 3.1581,17.1225 L3.1581,43.5945 C3.1581,44.4955 3.8641,45.2025 4.7651,45.2025 L15.9991,45.2025 L20.6401,45.1415 L31.8941,45.1415 C32.7951,45.1415 33.5011,44.4355 33.5011,43.5355 L33.5011,34.2125 C33.5011,33.3845 34.1731,32.7125 35.0011,32.7125 L35.6591,32.7125 C36.9831,32.7125 38.3171,33.0575 39.7361,33.7675 C40.1381,33.9685 40.6661,34.1055 41.2231,34.1525 C42.1421,34.2025 43.1671,33.7935 43.9451,33.0645 C44.6931,32.3605 45.1341,31.4165 45.1541,30.4765 C45.1961,29.3925 44.8251,28.4015 44.1101,27.6585 C42.9951,26.4985 41.2051,26.1565 39.6161,26.9505 C38.4831,27.5885 37.1331,27.9445 35.7781,27.9445 L34.9411,27.9445 C34.1131,27.9445 33.4411,27.2725 33.4411,26.4445 L33.4411,17.0635 C33.4411,16.1615 32.7351,15.4555 31.8341,15.4555 L22.2141,15.4555 C21.3851,15.4555 20.7141,14.7845 20.7141,13.9555 L20.7141,13.2985 C20.7141,11.9745 21.0581,10.6405 21.7681,9.2215 C21.9701,8.8185 22.1071,8.2905 22.1531,7.7355 C22.1901,6.8055 21.7951,5.7895 21.0641,5.0125 C20.3611,4.2635 19.4181,3.8225 18.4771,3.8035 C17.4451,3.7885 16.4451,4.1735 15.6991,4.9035 C14.9721,5.6165 14.5711,6.5605 14.5711,7.5615 C14.5711,8.2385 14.7031,8.8085 14.9641,9.2555 C15.6491,10.4725 16.0051,11.8225 16.0051,13.1785 L16.0051,14.0155 C16.0051,14.8435 15.3341,15.5155 14.5051,15.5155 L4.7651,15.5155 Z M4.7651,48.2025 C2.2241,48.2025 0.1581,46.1355 0.1581,43.5945 L0.1581,17.1225 C0.1581,14.5815 2.2241,12.5155 4.7651,12.5155 L12.9611,12.5155 C12.8771,11.9005 12.6771,11.3075 12.3611,10.7465 C11.8411,9.8555 11.5711,8.7775 11.5711,7.5615 C11.5711,5.7475 12.2911,4.0425 13.5991,2.7605 C14.9251,1.4615 16.6651,0.7605 18.5391,0.8045 C20.2821,0.8405 21.9981,1.6245 23.2511,2.9575 C24.5301,4.3195 25.2211,6.1295 25.1461,7.9235 C25.0641,8.9245 24.8251,9.8165 24.4521,10.5635 C24.1161,11.2335 23.8971,11.8595 23.7901,12.4555 L31.8341,12.4555 C34.3741,12.4555 36.4411,14.5225 36.4411,17.0635 L36.4411,24.8995 C37.0571,24.8165 37.6491,24.6165 38.2101,24.3005 C41.1281,22.8365 44.2651,23.4915 46.2721,25.5785 C47.5581,26.9155 48.2261,28.6875 48.1531,30.5665 C48.1171,32.2815 47.3311,33.9975 45.9981,35.2505 C44.6371,36.5295 42.8321,37.2125 41.0341,37.1465 C40.0301,37.0625 39.1391,36.8245 38.3931,36.4515 C37.7231,36.1155 37.0981,35.8965 36.5011,35.7895 L36.5011,43.5355 C36.5011,46.0755 34.4341,48.1415 31.8941,48.1415 L20.6601,48.1415 L16.0181,48.2025 L4.7651,48.2025 Z" id="Fill-188" fill="#490098"></path>
            <polyline id="Fill-189" fill="#FFFFFF" points="13.1904 35.1825 7.7434 29.7355 13.1904 24.2885"></polyline>
            <path d="M13.1904,36.6825 C12.8064,36.6825 12.4224,36.5365 12.1294,36.2435 L6.6834,30.7955 C6.4014,30.5145 6.2434,30.1325 6.2434,29.7355 C6.2434,29.3375 6.4014,28.9555 6.6834,28.6745 L12.1294,23.2285 C12.7154,22.6425 13.6654,22.6425 14.2514,23.2285 C14.8364,23.8145 14.8364,24.7635 14.2514,25.3495 L9.8644,29.7355 L14.2514,34.1215 C14.8364,34.7075 14.8364,35.6575 14.2514,36.2435 C13.9584,36.5365 13.5744,36.6825 13.1904,36.6825" id="Fill-190" fill="#B65EFF"></path>
            <polyline id="Fill-191" fill="#FFFFFF" points="22.8281 35.1825 28.2751 29.7355 22.8281 24.2885"></polyline>
            <path d="M22.8281,36.6825 C22.4441,36.6825 22.0601,36.5365 21.7671,36.2435 C21.1821,35.6575 21.1821,34.7075 21.7671,34.1215 L26.1541,29.7355 L21.7671,25.3495 C21.1821,24.7635 21.1821,23.8145 21.7671,23.2285 C22.3521,22.6425 23.3031,22.6425 23.8891,23.2285 L29.3361,28.6745 C29.6171,28.9555 29.7751,29.3375 29.7751,29.7355 C29.7751,30.1325 29.6171,30.5145 29.3361,30.7955 L23.8891,36.2435 C23.5961,36.5365 23.2121,36.6825 22.8281,36.6825" id="Fill-192" fill="#B65EFF"></path>
            <path d="M17.2407,38.4432 L18.7637,21.6122" id="Fill-193" fill="#FFFFFF"></path>
            <path d="M17.2427,39.9432 C17.1977,39.9432 17.1517,39.9412 17.1057,39.9372 C16.2807,39.8622 15.6727,39.1322 15.7467,38.3082 L17.2697,21.4772 C17.3447,20.6522 18.0767,20.0472 18.8987,20.1182 C19.7237,20.1932 20.3317,20.9222 20.2577,21.7472 L18.7347,38.5782 C18.6637,39.3572 18.0097,39.9432 17.2427,39.9432" id="Fill-194" fill="#B65EFF"></path>
        </g>
    </g>
</svg>