<?xml version="1.0" encoding="UTF-8"?>
<svg width="43px" height="47px" viewBox="0 0 43 47" version="1.1" xmlns="http://www.w3.org/2000/svg" xmlns:xlink="http://www.w3.org/1999/xlink">
    <!-- Generator: Sketch 52.6 (67491) - http://www.bohemiancoding.com/sketch -->
    <title>Group 2</title>
    <desc>Created with Sketch.</desc>
    <defs>
        <polygon id="path-1" points="0.9546 0.047 41.0136 0.047 41.0136 43.6349 0.9546 43.6349"></polygon>
    </defs>
    <g id="Page-1" stroke="none" stroke-width="1" fill="none" fill-rule="evenodd">
        <g id="Group-2" transform="translate(0.000000, -1.000000)">
            <path d="M3.4873,42.4999 L3.4873,11.9119 C3.4873,9.1499 5.7263,6.9119 8.4873,6.9119 L35.5133,6.9119 C38.2753,6.9119 40.5133,9.1499 40.5133,11.9119 L40.5133,42.4999 C40.5133,45.2609 38.2753,47.4999 35.5133,47.4999 L8.4873,47.4999 C5.7263,47.4999 3.4873,45.2609 3.4873,42.4999" id="Fill-22" fill="#E6DCFF"></path>
            <path d="M3.4546,38.0878 L3.4546,7.4998 C3.4546,4.7378 5.6936,2.4998 8.4546,2.4998 L35.5136,2.4998 C38.2746,2.4998 40.5136,4.7378 40.5136,7.4998 L40.5136,38.0878 C40.5136,40.8498 38.2746,43.0878 35.5136,43.0878 L8.4546,43.0878 C5.6936,43.0878 3.4546,40.8498 3.4546,38.0878" id="Fill-24" fill="#FFFFFF"></path>
            <g id="Group-28" transform="translate(1.000000, 0.953000)">
                <mask id="mask-2" fill="white">
                    <use xlink:href="#path-1"></use>
                </mask>
                <g id="Clip-27"></g>
                <path d="M7.4546,3.0469 C5.5246,3.0469 3.9546,4.6169 3.9546,6.5469 L3.9546,37.1349 C3.9546,39.0649 5.5246,40.6349 7.4546,40.6349 L34.5136,40.6349 C36.4436,40.6349 38.0136,39.0649 38.0136,37.1349 L38.0136,6.5469 C38.0136,4.6169 36.4436,3.0469 34.5136,3.0469 L7.4546,3.0469 Z M34.5136,43.6349 L7.4546,43.6349 C3.8706,43.6349 0.9546,40.7189 0.9546,37.1349 L0.9546,6.5469 C0.9546,2.9629 3.8706,0.0469 7.4546,0.0469 L34.5136,0.0469 C38.0976,0.0469 41.0136,2.9629 41.0136,6.5469 L41.0136,37.1349 C41.0136,40.7189 38.0976,43.6349 34.5136,43.6349 Z" id="Fill-26" fill="#490098" mask="url(#mask-2)"></path>
            </g>
            <polygon id="Fill-29" fill="#490098" points="0.325 14.52 6.649 14.52 6.649 11.52 0.325 11.52"></polygon>
            <polygon id="Fill-31" fill="#490098" points="0.325 21.036 6.649 21.036 6.649 18.036 0.325 18.036"></polygon>
            <polygon id="Fill-32" fill="#490098" points="0.325 27.552 6.649 27.552 6.649 24.552 0.325 24.552"></polygon>
            <polygon id="Fill-33" fill="#490098" points="0.325 34.067 6.649 34.067 6.649 31.067 0.325 31.067"></polygon>
            <path d="M30.7847,22.7938 L13.1827,22.7938 C12.4877,22.7938 11.9227,22.2298 11.9227,21.5338 L11.9227,12.8898 C11.9227,12.1938 12.4877,11.6288 13.1827,11.6288 L30.7847,11.6288 C31.4807,11.6288 32.0457,12.1938 32.0457,12.8898 L32.0457,21.5338 C32.0457,22.2298 31.4807,22.7938 30.7847,22.7938" id="Fill-34" fill="#B65EFF"></path>
            <polygon id="Fill-35" fill="#490098" points="12.116 30.761 31.852 30.761 31.852 27.761 12.116 27.761"></polygon>
            <polygon id="Fill-36" fill="#490098" points="12.116 35.935 31.852 35.935 31.852 32.935 12.116 32.935"></polygon>
        </g>
    </g>
</svg>