<?xml version="1.0" encoding="UTF-8"?>
<svg width="40px" height="48px" viewBox="0 0 40 48" version="1.1" xmlns="http://www.w3.org/2000/svg" xmlns:xlink="http://www.w3.org/1999/xlink">
    <!-- Generator: Sketch 52.6 (67491) - http://www.bohemiancoding.com/sketch -->
    <title>Group 13</title>
    <desc>Created with Sketch.</desc>
    <g id="Page-1" stroke="none" stroke-width="1" fill="none" fill-rule="evenodd">
        <g id="Group-13">
            <path d="M1.6587,43.0018 L1.6587,13.2958 C1.6587,10.5348 3.8977,8.2958 6.6587,8.2958 L32.8797,8.2958 C35.6407,8.2958 37.8797,10.5348 37.8797,13.2958 L37.8797,43.0018 C37.8797,45.7638 35.6407,48.0018 32.8797,48.0018 L6.6587,48.0018 C3.8977,48.0018 1.6587,45.7638 1.6587,43.0018" id="Fill-52" fill="#E6DCFF"></path>
            <path d="M1.6265,38.6864 L1.6265,8.9804 C1.6265,6.2194 3.8655,3.9804 6.6265,3.9804 L32.8795,3.9804 C35.6415,3.9804 37.8795,6.2194 37.8795,8.9804 L37.8795,38.6864 C37.8795,41.4474 35.6415,43.6864 32.8795,43.6864 L6.6265,43.6864 C3.8655,43.6864 1.6265,41.4474 1.6265,38.6864" id="Fill-53" fill="#FFFFFF"></path>
            <path d="M6.6265,5.4803 C4.6965,5.4803 3.1265,7.0503 3.1265,8.9803 L3.1265,38.6863 C3.1265,40.6163 4.6965,42.1863 6.6265,42.1863 L32.8795,42.1863 C34.8095,42.1863 36.3795,40.6163 36.3795,38.6863 L36.3795,8.9803 C36.3795,7.0503 34.8095,5.4803 32.8795,5.4803 L6.6265,5.4803 Z M32.8795,45.1863 L6.6265,45.1863 C3.0425,45.1863 0.1265,42.2703 0.1265,38.6863 L0.1265,8.9803 C0.1265,5.3963 3.0425,2.4803 6.6265,2.4803 L32.8795,2.4803 C36.4635,2.4803 39.3795,5.3963 39.3795,8.9803 L39.3795,38.6863 C39.3795,42.2703 36.4635,45.1863 32.8795,45.1863 Z" id="Fill-54" fill="#490098"></path>
            <path d="M25.3828,7.6688 L14.1238,7.6688 C12.7428,7.6688 11.6238,6.5498 11.6238,5.1688 L11.6238,3.0018 C11.6238,1.6208 12.7428,0.5018 14.1238,0.5018 L25.3828,0.5018 C26.7638,0.5018 27.8828,1.6208 27.8828,3.0018 L27.8828,5.1688 C27.8828,6.5498 26.7638,7.6688 25.3828,7.6688" id="Fill-55" fill="#490098"></path>
            <path d="M14.2017,13.7372 L31.0697,13.7372" id="Fill-56" fill="#FFFFFF"></path>
            <polygon id="Fill-57" fill="#B65EFF" points="14.202 15.237 31.07 15.237 31.07 12.237 14.202 12.237"></polygon>
            <path d="M14.2017,20.496 L31.0697,20.496" id="Fill-58" fill="#FFFFFF"></path>
            <polygon id="Fill-59" fill="#B65EFF" points="14.202 21.996 31.07 21.996 31.07 18.996 14.202 18.996"></polygon>
            <path d="M14.2017,27.2557 L31.0697,27.2557" id="Fill-60" fill="#FFFFFF"></path>
            <polygon id="Fill-61" fill="#B65EFF" points="14.202 28.756 31.07 28.756 31.07 25.756 14.202 25.756"></polygon>
            <path d="M14.2017,34.0155 L31.0697,34.0155" id="Fill-62" fill="#FFFFFF"></path>
            <polygon id="Fill-63" fill="#B65EFF" points="14.202 35.516 31.07 35.516 31.07 32.516 14.202 32.516"></polygon>
            <path d="M11.5317,13.6503 C11.5317,14.5053 10.8387,15.1983 9.9847,15.1983 C9.1297,15.1983 8.4367,14.5053 8.4367,13.6503 C8.4367,12.7963 9.1297,12.1033 9.9847,12.1033 C10.8387,12.1033 11.5317,12.7963 11.5317,13.6503" id="Fill-64" fill="#B65EFF"></path>
            <path d="M11.5317,20.4393 C11.5317,21.2933 10.8387,21.9863 9.9847,21.9863 C9.1297,21.9863 8.4367,21.2933 8.4367,20.4393 C8.4367,19.5853 9.1297,18.8913 9.9847,18.8913 C10.8387,18.8913 11.5317,19.5853 11.5317,20.4393" id="Fill-65" fill="#B65EFF"></path>
            <path d="M11.5317,27.2274 C11.5317,28.0814 10.8387,28.7754 9.9847,28.7754 C9.1297,28.7754 8.4367,28.0814 8.4367,27.2274 C8.4367,26.3734 9.1297,25.6794 9.9847,25.6794 C10.8387,25.6794 11.5317,26.3734 11.5317,27.2274" id="Fill-66" fill="#B65EFF"></path>
            <path d="M11.5317,34.0155 C11.5317,34.8695 10.8387,35.5635 9.9847,35.5635 C9.1297,35.5635 8.4367,34.8695 8.4367,34.0155 C8.4367,33.1615 9.1297,32.4685 9.9847,32.4685 C10.8387,32.4685 11.5317,33.1615 11.5317,34.0155" id="Fill-67" fill="#B65EFF"></path>
        </g>
    </g>
</svg>