<?xml version="1.0" encoding="UTF-8"?>
<svg width="48px" height="49px" viewBox="0 0 48 49" version="1.1" xmlns="http://www.w3.org/2000/svg" xmlns:xlink="http://www.w3.org/1999/xlink">
    <!-- Generator: Sketch 52.6 (67491) - http://www.bohemiancoding.com/sketch -->
    <title>Group</title>
    <desc>Created with Sketch.</desc>
    <defs>
        <polygon id="path-1" points="0 0.897193136 17.4221299 0.897193136 17.4221299 20.6849 0 20.6849"></polygon>
    </defs>
    <g id="Page-1" stroke="none" stroke-width="1" fill="none" fill-rule="evenodd">
        <g id="Group">
            <path d="M46.7373,2.1312 C45.7963,1.1892 44.4993,0.7352 43.1733,0.8912 L34.1493,1.9402 C29.7873,2.4472 25.7833,4.4492 22.7413,7.5252 L16.3493,7.7812 C12.4173,7.9392 8.9643,10.2622 7.3363,13.8452 L4.4223,20.2552 C4.2373,20.6602 4.2423,21.1262 4.4363,21.5272 C4.6303,21.9282 4.9913,22.2222 5.4243,22.3302 L12.0593,23.9892 C12.1203,24.0882 12.1743,24.1912 12.2593,24.2762 L24.5913,36.6082 C24.6753,36.6912 24.7783,36.7362 24.8753,36.7972 L26.5373,43.4442 C26.6443,43.8762 26.9393,44.2372 27.3403,44.4312 C27.5463,44.5302 27.7693,44.5802 27.9923,44.5802 C28.2043,44.5802 28.4163,44.5352 28.6133,44.4462 L35.0233,41.5322 C38.6053,39.9032 40.9283,36.4502 41.0863,32.5182 L41.3423,26.1262 C44.4183,23.0842 46.4203,19.0802 46.9273,14.7182 L47.9773,5.6952 C48.1313,4.3722 47.6783,3.0732 46.7373,2.1312" id="Fill-1" fill="#E6DCFF"></path>
            <path d="M20.7813,8.7543 L13.2193,9.0573 C9.8773,9.1913 6.8953,11.1973 5.5103,14.2423 L2.5973,20.6523 L10.8713,22.7203" id="Fill-3" fill="#FFFFFF"></path>
            <path d="M10.5073,24.1757 L2.2333,22.1077 C1.8013,21.9997 1.4403,21.7047 1.2463,21.3037 C1.0523,20.9037 1.0473,20.4367 1.2313,20.0317 L4.1453,13.6217 C5.7733,10.0397 9.2273,7.7167 13.1593,7.5587 L20.7213,7.2557 L20.8413,10.2537 L13.2793,10.5567 C10.4863,10.6677 8.0333,12.3187 6.8763,14.8627 L4.7083,19.6337 L11.2353,21.2657 L10.5073,24.1757 Z" id="Fill-5" fill="#490098"></path>
            <path d="M36.7002,24.6727 L36.3972,32.2347 C36.2632,35.5777 34.2572,38.5597 31.2122,39.9437 L24.8022,42.8577 L22.7332,34.5837" id="Fill-7" fill="#FFFFFF"></path>
            <path d="M24.8022,44.3573 C24.5792,44.3573 24.3562,44.3073 24.1502,44.2083 C23.7492,44.0143 23.4552,43.6533 23.3472,43.2213 L21.2782,34.9473 L24.1882,34.2193 L25.8212,40.7463 L30.5912,38.5783 C33.1362,37.4213 34.7862,34.9683 34.8982,32.1753 L35.2012,24.6123 L38.1992,24.7323 L37.8962,32.2953 C37.7382,36.2273 35.4152,39.6813 31.8322,41.3093 L25.4232,44.2233 C25.2252,44.3123 25.0132,44.3573 24.8022,44.3573" id="Fill-9" fill="#490098"></path>
            <path d="M40.1553,2.1576 L31.1323,3.2066 C26.0823,3.7946 21.5293,6.5266 18.6353,10.7066 L10.1303,22.9916 L22.4623,35.3246 L34.7483,26.8186 C38.9283,23.9256 41.6603,19.3716 42.2473,14.3226 L43.2973,5.2996 C43.5083,3.4836 41.9703,1.9466 40.1553,2.1576" id="Fill-11" fill="#FFFFFF"></path>
            <path d="M12.0762,22.8168 L22.6382,33.3788 L33.8942,25.5858 C37.7192,22.9388 40.2202,18.7698 40.7582,14.1488 L41.8072,5.1258 C41.8542,4.7188 41.7152,4.3188 41.4252,4.0288 C41.1362,3.7398 40.7372,3.6038 40.3282,3.6478 L31.3052,4.6968 C26.6842,5.2338 22.5162,7.7358 19.8692,11.5598 L12.0762,22.8168 Z M22.4632,36.8238 C22.0762,36.8238 21.6922,36.6748 21.4022,36.3848 L9.0702,24.0528 C8.5572,23.5398 8.4842,22.7338 8.8972,22.1378 L17.4022,9.8528 C20.5402,5.3198 25.4812,2.3538 30.9592,1.7168 L39.9822,0.6678 C41.3062,0.5108 42.6042,0.9658 43.5462,1.9078 C44.4892,2.8498 44.9402,4.1488 44.7862,5.4728 L43.7372,14.4958 C43.1002,19.9728 40.1352,24.9138 35.6012,28.0518 L23.3162,36.5578 C23.0572,36.7358 22.7592,36.8238 22.4632,36.8238 Z" id="Fill-13" fill="#490098"></path>
            <path d="M13.73,32.4178 C16.908,35.5958 16.528,39.8838 13.356,43.0678 C10.828,45.6058 6.01,47.0138 2.647,47.1378 C2.647,47.1378 11.295,41.5948 7.831,37.4138 C4.367,33.2328 1.5,39.2538 1.5,39.2538 C1.5,39.2538 1.5,37.9308 1.815,36.1288 C2.795,30.5378 9.716,28.4038 13.73,32.4178" id="Fill-15" fill="#490098"></path>
            <g id="Group-19" transform="translate(0.000000, 27.953000)">
                <mask id="mask-2" fill="white">
                    <use xlink:href="#path-1"></use>
                </mask>
                <g id="Clip-18"></g>
                <path d="M5.3057,6.4839 C6.3097,6.4839 7.6477,6.8879 8.9867,8.5039 C9.9297,9.6419 10.3097,10.9989 10.0877,12.4289 C9.8527,13.9359 8.9667,15.3729 7.9117,16.6049 C9.6257,15.9899 11.2247,15.1299 12.2937,14.0569 C14.9937,11.3459 15.1407,7.9979 12.6697,5.5259 C11.1747,4.0309 9.0757,3.5199 7.0517,4.1599 C5.6407,4.6059 4.5247,5.5349 3.8657,6.7659 C4.1747,6.6429 4.5007,6.5549 4.8437,6.5119 C4.9887,6.4949 5.1427,6.4839 5.3057,6.4839 M2.6457,20.6849 C1.9927,20.6849 1.4127,20.2609 1.2157,19.6339 C1.0137,18.9889 1.2677,18.2889 1.8357,17.9229 C3.7107,16.7169 6.8037,14.0329 7.1237,11.9649 C7.2147,11.3789 7.0767,10.9009 6.6767,10.4179 C6.2957,9.9589 5.7307,9.4219 5.2147,9.4889 C4.3197,9.6009 3.2357,11.1439 2.8547,11.9459 C2.5527,12.5779 1.8497,12.9199 1.1697,12.7639 C0.4857,12.6089 -0.0003,12.0019 -0.0003,11.3009 C-0.0003,11.2409 0.0037,9.8249 0.3377,7.9169 C0.8927,4.7469 3.0657,2.2729 6.1477,1.2989 C9.2127,0.3329 12.5247,1.1379 14.7907,3.4039 C18.4327,7.0469 18.2807,12.2979 14.4187,16.1739 C11.5227,19.0819 6.3147,20.5499 2.7017,20.6839 C2.6827,20.6849 2.6647,20.6849 2.6457,20.6849" id="Fill-17" fill="#490098" mask="url(#mask-2)"></path>
            </g>
            <path d="M31.2515,21.7108 C29.1785,23.7838 25.8165,23.7838 23.7435,21.7108 C21.6695,19.6378 21.6695,16.2758 23.7435,14.2028 C25.8165,12.1298 29.1785,12.1298 31.2515,14.2028 C33.3245,16.2758 33.3245,19.6378 31.2515,21.7108" id="Fill-20" fill="#B65EFF"></path>
        </g>
    </g>
</svg>