<?xml version="1.0" encoding="UTF-8"?>
<svg width="49px" height="44px" viewBox="0 0 49 44" version="1.1" xmlns="http://www.w3.org/2000/svg" xmlns:xlink="http://www.w3.org/1999/xlink">
    <!-- Generator: Sketch 52.6 (67491) - http://www.bohemiancoding.com/sketch -->
    <title>Group 7</title>
    <desc>Created with Sketch.</desc>
    <g id="Page-1" stroke="none" stroke-width="1" fill="none" fill-rule="evenodd">
        <g id="Group-7">
            <path d="M6.5854,3.8339 C4.6554,3.8339 3.0854,5.4039 3.0854,7.3339 L3.0854,28.8339 C3.0854,30.7639 4.6554,32.3339 6.5854,32.3339 L41.5854,32.3339 C43.5154,32.3339 45.0854,30.7639 45.0854,28.8339 L45.0854,7.3339 C45.0854,5.4039 43.5154,3.8339 41.5854,3.8339 L6.5854,3.8339 Z M41.5854,35.3339 L6.5854,35.3339 C3.0014,35.3339 0.0854,32.4179 0.0854,28.8339 L0.0854,7.3339 C0.0854,3.7499 3.0014,0.8339 6.5854,0.8339 L41.5854,0.8339 C45.1694,0.8339 48.0854,3.7499 48.0854,7.3339 L48.0854,28.8339 C48.0854,32.4179 45.1694,35.3339 41.5854,35.3339 Z" id="Fill-68" fill="#490098"></path>
            <path d="M19.5317,40.4476 L28.6387,40.4476 C27.5317,38.9886 26.8527,37.2136 26.7367,35.3336 L21.4347,35.3336 C21.3187,37.2136 20.6387,38.9886 19.5317,40.4476 M32.8327,43.4476 L15.3387,43.4476 C14.6337,43.4476 14.0227,42.9566 13.8727,42.2676 C13.7227,41.5786 14.0727,40.8776 14.7137,40.5836 C16.9847,39.5436 18.4517,37.2566 18.4517,34.7576 L18.4517,33.8336 C18.4517,33.0056 19.1237,32.3336 19.9517,32.3336 L28.2187,32.3336 C29.0477,32.3336 29.7187,33.0056 29.7187,33.8336 L29.7187,34.7576 C29.7187,37.2566 31.1857,39.5436 33.4577,40.5836 C34.0987,40.8776 34.4487,41.5786 34.2977,42.2676 C34.1477,42.9566 33.5377,43.4476 32.8327,43.4476" id="Fill-69" fill="#490098"></path>
            <path d="M20.7842,25.3964 L20.7842,20.2874 C20.7842,19.5974 21.5322,19.1674 22.1282,19.5144 L26.4942,22.0574 C27.1422,22.4344 27.0662,23.3934 26.3672,23.6634 L25.8482,23.8644 C25.3202,24.0684 25.1132,24.7074 25.4202,25.1824 L26.4812,26.8264 C26.7402,27.2274 26.6382,27.7604 26.2492,28.0384 C25.8332,28.3354 25.2532,28.2234 24.9772,27.7934 L23.8642,26.0574 C23.5772,25.6114 22.9682,25.5104 22.5542,25.8414 L22.2352,26.0954 C21.6502,26.5624 20.7842,26.1454 20.7842,25.3964" id="Fill-70" fill="#B65EFF"></path>
            <path d="M41.2275,33.8339 L38.2275,33.8339 L38.2275,8.4069 L9.9435,8.4069 L9.9435,33.8339 L6.9435,33.8339 L6.9435,8.1499 C6.9435,6.6379 8.1735,5.4069 9.6855,5.4069 L38.4855,5.4069 C39.9975,5.4069 41.2275,6.6379 41.2275,8.1499 L41.2275,33.8339 Z" id="Fill-71" fill="#490098"></path>
            <path d="M14.4722,11.0043 C14.4722,11.6433 13.9542,12.1603 13.3152,12.1603 C12.6772,12.1603 12.1592,11.6433 12.1592,11.0043 C12.1592,10.3653 12.6772,9.8473 13.3152,9.8473 C13.9542,9.8473 14.4722,10.3653 14.4722,11.0043" id="Fill-72" fill="#490098"></path>
            <path d="M17.7476,11.0043 C17.7476,11.6433 17.2296,12.1603 16.5906,12.1603 C15.9526,12.1603 15.4346,11.6433 15.4346,11.0043 C15.4346,10.3653 15.9526,9.8473 16.5906,9.8473 C17.2296,9.8473 17.7476,10.3653 17.7476,11.0043" id="Fill-73" fill="#490098"></path>
            <polygon id="Fill-74" fill="#490098" points="8.444 16.24 39.728 16.24 39.728 13.24 8.444 13.24"></polygon>
        </g>
    </g>
</svg>