<?xml version="1.0" encoding="UTF-8"?>
<svg width="48px" height="42px" viewBox="0 0 48 42" version="1.1" xmlns="http://www.w3.org/2000/svg" xmlns:xlink="http://www.w3.org/1999/xlink">
    <!-- Generator: Sketch 52.6 (67491) - http://www.bohemiancoding.com/sketch -->
    <title>Group 8</title>
    <desc>Created with Sketch.</desc>
    <g id="Page-1" stroke="none" stroke-width="1" fill="none" fill-rule="evenodd">
        <g id="Group-8">
            <path d="M7.2515,38.8549 L7.2515,10.4269 C7.2515,8.7699 8.5945,7.4269 10.2515,7.4269 L44.2515,7.4269 C45.9085,7.4269 47.2515,8.7699 47.2515,10.4269 L47.2515,38.8549 C47.2515,40.5119 45.9085,41.8549 44.2515,41.8549 L10.2515,41.8549 C8.5945,41.8549 7.2515,40.5119 7.2515,38.8549" id="Fill-110" fill="#E6DCFF"></path>
            <path d="M2.2515,33.8549 L2.2515,5.4269 C2.2515,3.7699 3.5945,2.4269 5.2515,2.4269 L39.2515,2.4269 C40.9085,2.4269 42.2515,3.7699 42.2515,5.4269 L42.2515,33.8549 C42.2515,35.5119 40.9085,36.8549 39.2515,36.8549 L5.2515,36.8549 C3.5945,36.8549 2.2515,35.5119 2.2515,33.8549" id="Fill-111" fill="#FFFFFF"></path>
            <path d="M5.2515,3.9266 C4.4245,3.9266 3.7515,4.5996 3.7515,5.4266 L3.7515,33.8546 C3.7515,34.6816 4.4245,35.3546 5.2515,35.3546 L39.2515,35.3546 C40.0785,35.3546 40.7515,34.6816 40.7515,33.8546 L40.7515,5.4266 C40.7515,4.5996 40.0785,3.9266 39.2515,3.9266 L5.2515,3.9266 Z M39.2515,38.3546 L5.2515,38.3546 C2.7705,38.3546 0.7515,36.3366 0.7515,33.8546 L0.7515,5.4266 C0.7515,2.9456 2.7705,0.9266 5.2515,0.9266 L39.2515,0.9266 C41.7325,0.9266 43.7515,2.9456 43.7515,5.4266 L43.7515,33.8546 C43.7515,36.3366 41.7325,38.3546 39.2515,38.3546 Z" id="Fill-112" fill="#490098"></path>
            <path d="M8.8882,7.5931 C8.8882,8.3361 8.2852,8.9381 7.5432,8.9381 C6.8002,8.9381 6.1982,8.3361 6.1982,7.5931 C6.1982,6.8501 6.8002,6.2481 7.5432,6.2481 C8.2852,6.2481 8.8882,6.8501 8.8882,7.5931" id="Fill-113" fill="#490098"></path>
            <path d="M13.105,7.5931 C13.105,8.3361 12.502,8.9381 11.76,8.9381 C11.017,8.9381 10.415,8.3361 10.415,7.5931 C10.415,6.8501 11.017,6.2481 11.76,6.2481 C12.502,6.2481 13.105,6.8501 13.105,7.5931" id="Fill-114" fill="#490098"></path>
            <path d="M18.0464,26.3041 L18.0464,17.7901 C18.0464,16.6401 19.2924,15.9241 20.2854,16.5021 L27.5624,20.7391 C28.6414,21.3671 28.5144,22.9651 27.3504,23.4161 L26.4854,23.7501 C25.6054,24.0911 25.2594,25.1551 25.7714,25.9481 L27.5394,28.6861 C27.9704,29.3541 27.8004,30.2431 27.1534,30.7061 C26.4604,31.2011 25.4934,31.0151 25.0334,30.2981 L23.1784,27.4061 C22.7014,26.6621 21.6864,26.4941 20.9954,27.0451 L20.4644,27.4691 C19.4894,28.2471 18.0464,27.5521 18.0464,26.3041" id="Fill-115" fill="#B65EFF"></path>
            <polygon id="Fill-116" fill="#490098" points="2.251 13.751 42.251 13.751 42.251 10.751 2.251 10.751"></polygon>
        </g>
    </g>
</svg>