<?xml version="1.0" encoding="UTF-8"?>
<svg width="41px" height="47px" viewBox="0 0 41 47" version="1.1" xmlns="http://www.w3.org/2000/svg" xmlns:xlink="http://www.w3.org/1999/xlink">
    <!-- Generator: Sketch 52.6 (67491) - http://www.bohemiancoding.com/sketch -->
    <title>Group 18</title>
    <desc>Created with Sketch.</desc>
    <g id="Page-1" stroke="none" stroke-width="1" fill="none" fill-rule="evenodd">
        <g id="Group-18">
            <path d="M1.9229,41.5526 L1.9229,10.9636 C1.9229,8.2026 4.1609,5.9636 6.9229,5.9636 L33.9489,5.9636 C36.7109,5.9636 38.9489,8.2026 38.9489,10.9636 L38.9489,41.5526 C38.9489,44.3146 36.7109,46.5526 33.9489,46.5526 L6.9229,46.5526 C4.1609,46.5526 1.9229,44.3146 1.9229,41.5526" id="Fill-174" fill="#E6DCFF"></path>
            <path d="M33.9487,1.5526 L7.7307,1.5526 L7.7307,42.1406 L33.9487,42.1406 C36.7107,42.1406 38.9487,39.9026 38.9487,37.1406 L38.9487,6.5526 C38.9487,3.7906 36.7107,1.5526 33.9487,1.5526" id="Fill-175" fill="#FFFFFF"></path>
            <path d="M9.2305,40.6405 L33.9485,40.6405 C35.8785,40.6405 37.4485,39.0705 37.4485,37.1405 L37.4485,6.5525 C37.4485,4.6225 35.8785,3.0525 33.9485,3.0525 L9.2305,3.0525 L9.2305,40.6405 Z M33.9485,43.6405 L7.7305,43.6405 C6.9015,43.6405 6.2305,42.9685 6.2305,42.1405 L6.2305,1.5525 C6.2305,0.7245 6.9015,0.0525 7.7305,0.0525 L33.9485,0.0525 C37.5325,0.0525 40.4485,2.9685 40.4485,6.5525 L40.4485,37.1405 C40.4485,40.7245 37.5325,43.6405 33.9485,43.6405 Z" id="Fill-176" fill="#490098"></path>
            <path d="M6.8901,1.5526 C4.1281,1.5526 1.8901,3.7906 1.8901,6.5526 L1.8901,37.1406 C1.8901,39.9026 4.1281,42.1406 6.8901,42.1406 L7.7301,42.1406 L7.7301,1.5526 L6.8901,1.5526 Z" id="Fill-177" fill="#FFFFFF"></path>
            <path d="M6.2305,3.1151 C4.6145,3.4251 3.3905,4.8481 3.3905,6.5531 L3.3905,37.1401 C3.3905,38.8441 4.6145,40.2681 6.2305,40.5781 L6.2305,3.1151 Z M7.7305,43.6401 L6.8905,43.6401 C3.3065,43.6401 0.3905,40.7241 0.3905,37.1401 L0.3905,6.5531 C0.3905,2.9691 3.3065,0.0521 6.8905,0.0521 L7.7305,0.0521 C8.5595,0.0521 9.2305,0.7241 9.2305,1.5531 L9.2305,42.1401 C9.2305,42.9691 8.5595,43.6401 7.7305,43.6401 Z" id="Fill-178" fill="#490098"></path>
            <polygon id="Fill-179" fill="#B65EFF" points="13.155 12.996 33.999 12.996 33.999 9.996 13.155 9.996"></polygon>
            <polygon id="Fill-180" fill="#B65EFF" points="13.155 19.896 33.999 19.896 33.999 16.896 13.155 16.896"></polygon>
            <polygon id="Fill-181" fill="#B65EFF" points="13.155 26.797 33.999 26.797 33.999 23.797 13.155 23.797"></polygon>
            <polygon id="Fill-182" fill="#B65EFF" points="13.155 33.697 33.999 33.697 33.999 30.697 13.155 30.697"></polygon>
        </g>
    </g>
</svg>