<?xml version="1.0" encoding="UTF-8"?>
<svg width="49px" height="41px" viewBox="0 0 49 41" version="1.1" xmlns="http://www.w3.org/2000/svg" xmlns:xlink="http://www.w3.org/1999/xlink">
    <!-- Generator: Sketch 52.6 (67491) - http://www.bohemiancoding.com/sketch -->
    <title>Group 9</title>
    <desc>Created with Sketch.</desc>
    <g id="Page-1" stroke="none" stroke-width="1" fill="none" fill-rule="evenodd">
        <g id="Group-9">
            <path d="M9.0293,2.2797 L9.0293,34.2167 C9.0293,36.6537 34.2943,38.6277 34.2943,38.6277 C38.2123,38.6277 41.3893,35.4517 41.3893,31.5327 L41.3893,2.2797 L9.0293,2.2797 Z" id="Fill-117" fill="#E6DCFF"></path>
            <path d="M14.8936,2.2797 L14.8936,34.2167 C14.8936,36.6537 12.9186,38.6277 10.4836,38.6277 L40.1586,38.6277 C44.0766,38.6277 47.2536,35.4517 47.2536,31.5327 L47.2536,2.2797 L14.8936,2.2797 Z" id="Fill-118" fill="#FFFFFF"></path>
            <path d="M15.626,37.1278 L40.159,37.1278 C43.244,37.1278 45.753,34.6178 45.753,31.5328 L45.753,3.7798 L16.394,3.7798 L16.394,34.2168 C16.394,35.2748 16.114,36.2678 15.626,37.1278 M40.159,40.1278 L10.483,40.1278 C9.655,40.1278 8.983,39.4568 8.983,38.6278 C8.983,37.7988 9.655,37.1278 10.483,37.1278 C12.088,37.1278 13.394,35.8218 13.394,34.2168 L13.394,2.2798 C13.394,1.4508 14.065,0.7798 14.894,0.7798 L47.253,0.7798 C48.082,0.7798 48.753,1.4508 48.753,2.2798 L48.753,31.5328 C48.753,36.2728 44.898,40.1278 40.159,40.1278" id="Fill-119" fill="#490098"></path>
            <path d="M34.7979,9.3583 L42.4119,9.3583" id="Fill-120" fill="#FFFFFF"></path>
            <polygon id="Fill-121" fill="#B65EFF" points="34.798 10.858 42.412 10.858 42.412 7.858 34.798 7.858"></polygon>
            <path d="M21.2666,17.7924 L42.4126,17.7924" id="Fill-122" fill="#FFFFFF"></path>
            <polygon id="Fill-123" fill="#B65EFF" points="21.266 19.292 42.412 19.292 42.412 16.292 21.266 16.292"></polygon>
            <path d="M21.2666,24.4467 L32.5306,24.4467" id="Fill-124" fill="#FFFFFF"></path>
            <polygon id="Fill-125" fill="#B65EFF" points="21.266 25.947 32.53 25.947 32.53 22.947 21.266 22.947"></polygon>
            <path d="M35.6797,24.4467 L42.4117,24.4467" id="Fill-126" fill="#FFFFFF"></path>
            <polygon id="Fill-127" fill="#B65EFF" points="35.6797 25.9467 35.6797 22.9467 39.0467 24.4467"></polygon>
            <path d="M21.2666,30.4979 L32.5306,30.4979" id="Fill-128" fill="#FFFFFF"></path>
            <polygon id="Fill-129" fill="#B65EFF" points="21.266 31.998 32.53 31.998 32.53 28.998 21.266 28.998"></polygon>
            <path d="M35.6797,30.4979 L42.4117,30.4979" id="Fill-130" fill="#FFFFFF"></path>
            <polygon id="Fill-131" fill="#B65EFF" points="35.6797 31.9979 35.6797 28.9979 39.0467 30.4979"></polygon>
            <path d="M8.5737,16.5072 C8.5737,14.7932 7.1837,13.4032 5.4697,13.4032 L5.3577,13.4032 C3.6427,13.4032 2.2537,14.7932 2.2537,16.5072 L2.2537,31.5332 C2.2537,35.4512 5.4297,38.6282 9.3477,38.6282 L10.4837,38.6282 C12.9187,38.6282 14.8937,36.6532 14.8937,34.2172 L14.8937,32.1162 L8.5737,32.1162 L8.5737,16.5072 Z" id="Fill-132" fill="#FFFFFF"></path>
            <path d="M5.3574,14.9032 C4.4734,14.9032 3.7534,15.6232 3.7534,16.5072 L3.7534,31.5332 C3.7534,34.6182 6.2634,37.1282 9.3484,37.1282 L10.4834,37.1282 C12.0874,37.1282 13.3934,35.8222 13.3934,34.2172 L13.3934,33.6162 L8.5734,33.6162 C7.7454,33.6162 7.0734,32.9452 7.0734,32.1162 L7.0734,16.5072 C7.0734,15.6232 6.3544,14.9032 5.4694,14.9032 L5.3574,14.9032 Z M10.4834,40.1282 L9.3484,40.1282 C4.6084,40.1282 0.7534,36.2722 0.7534,31.5332 L0.7534,16.5072 C0.7534,13.9682 2.8184,11.9032 5.3574,11.9032 L5.4694,11.9032 C8.0084,11.9032 10.0734,13.9682 10.0734,16.5072 L10.0734,30.6162 L14.8934,30.6162 C15.7224,30.6162 16.3934,31.2882 16.3934,32.1162 L16.3934,34.2172 C16.3934,37.4762 13.7424,40.1282 10.4834,40.1282 Z" id="Fill-133" fill="#490098"></path>
            <path d="M5.4697,13.4032 C7.1837,13.4032 8.5737,14.7932 8.5737,16.5072 L8.5737,32.1162 L14.8937,32.1162 L14.8937,13.4032 L5.4697,13.4032 Z" id="Fill-134" fill="#FFFFFF"></path>
            <path d="M10.0737,30.6166 L13.3937,30.6166 L13.3937,14.9036 L9.7857,14.9036 C9.9717,15.4026 10.0737,15.9436 10.0737,16.5076 L10.0737,30.6166 Z M14.8937,33.6166 L8.5737,33.6166 C7.7447,33.6166 7.0737,32.9456 7.0737,32.1166 L7.0737,16.5076 C7.0737,15.6226 6.3537,14.9036 5.4697,14.9036 C4.6407,14.9036 3.9697,14.2316 3.9697,13.4036 C3.9697,12.5746 4.6407,11.9036 5.4697,11.9036 L14.8937,11.9036 C15.7217,11.9036 16.3937,12.5746 16.3937,13.4036 L16.3937,32.1166 C16.3937,32.9456 15.7217,33.6166 14.8937,33.6166 Z" id="Fill-135" fill="#490098"></path>
        </g>
    </g>
</svg>