<?xml version="1.0" encoding="UTF-8"?>
<svg width="48px" height="40px" viewBox="0 0 48 40" version="1.1" xmlns="http://www.w3.org/2000/svg" xmlns:xlink="http://www.w3.org/1999/xlink">
    <!-- Generator: Sketch 52.6 (67491) - http://www.bohemiancoding.com/sketch -->
    <title>Group 16</title>
    <desc>Created with Sketch.</desc>
    <g id="Page-1" stroke="none" stroke-width="1" fill="none" fill-rule="evenodd">
        <g id="Group-16">
            <path d="M10.2515,7.4843 L42.2515,7.4843 C45.0135,7.4843 47.2515,9.7233 47.2515,12.4843 L47.2515,34.5573 C47.2515,37.3183 45.0135,39.5573 42.2515,39.5573 L10.2515,39.5573 C7.4905,39.5573 5.2515,37.3183 5.2515,34.5573 L5.2515,12.4843 C5.2515,9.7233 7.4905,7.4843 10.2515,7.4843" id="Fill-158" fill="#E6DCFF"></path>
            <path d="M7.2515,4.4847 L39.2515,4.4847 C42.0135,4.4847 44.2515,6.7237 44.2515,9.4847 L44.2515,31.5577 C44.2515,34.3177 42.0135,36.5577 39.2515,36.5577 L7.2515,36.5577 C4.4905,36.5577 2.2515,34.3177 2.2515,31.5577 L2.2515,9.4847 C2.2515,6.7237 4.4905,4.4847 7.2515,4.4847" id="Fill-159" fill="#FFFFFF"></path>
            <path d="M7.2515,5.9852 C5.3215,5.9852 3.7515,7.5542 3.7515,9.4842 L3.7515,31.5572 C3.7515,33.4872 5.3215,35.0572 7.2515,35.0572 L39.2515,35.0572 C41.1815,35.0572 42.7515,33.4872 42.7515,31.5572 L42.7515,9.4842 C42.7515,7.5542 41.1815,5.9852 39.2515,5.9852 L7.2515,5.9852 Z M39.2515,38.0572 L7.2515,38.0572 C3.6675,38.0572 0.7515,35.1412 0.7515,31.5572 L0.7515,9.4842 C0.7515,5.9002 3.6675,2.9852 7.2515,2.9852 L39.2515,2.9852 C42.8355,2.9852 45.7515,5.9002 45.7515,9.4842 L45.7515,31.5572 C45.7515,35.1412 42.8355,38.0572 39.2515,38.0572 Z" id="Fill-160" fill="#490098"></path>
            <path d="M28.5713,8.0223 L17.9323,8.0223 C16.5133,8.0223 15.3603,6.8683 15.3603,5.4493 L15.3603,3.5193 C15.3603,2.1013 16.5133,0.9463 17.9323,0.9463 L28.5713,0.9463 C29.9893,0.9463 31.1433,2.1013 31.1433,3.5193 L31.1433,5.4493 C31.1433,6.8683 29.9893,8.0223 28.5713,8.0223" id="Fill-161" fill="#490098"></path>
            <path d="M19.2148,17.0409 C19.2148,19.4259 17.2818,21.3579 14.8978,21.3579 C12.5128,21.3579 10.5798,19.4259 10.5798,17.0409 C10.5798,14.6559 12.5128,12.7239 14.8978,12.7239 C17.2818,12.7239 19.2148,14.6559 19.2148,17.0409" id="Fill-162" fill="#B65EFF"></path>
            <path d="M14.8975,22.0458 C11.6905,22.0458 9.0455,24.4528 8.6705,27.5598 C8.6225,27.9618 8.9405,28.3178 9.3465,28.3178 L20.4495,28.3178 C20.8545,28.3178 21.1735,27.9618 21.1245,27.5598 C20.7505,24.4528 18.1055,22.0458 14.8975,22.0458" id="Fill-163" fill="#B65EFF"></path>
            <path d="M34.9243,16.3036 L25.1813,16.3036 C24.3533,16.3036 23.6813,15.6316 23.6813,14.8036 C23.6813,13.9756 24.3533,13.3036 25.1813,13.3036 L34.9243,13.3036 C35.7533,13.3036 36.4243,13.9756 36.4243,14.8036 C36.4243,15.6316 35.7533,16.3036 34.9243,16.3036" id="Fill-164" fill="#490098"></path>
            <path d="M38.3975,21.9647 L25.1815,21.9647 C24.3535,21.9647 23.6815,21.2927 23.6815,20.4647 C23.6815,19.6367 24.3535,18.9647 25.1815,18.9647 L38.3975,18.9647 C39.2265,18.9647 39.8975,19.6367 39.8975,20.4647 C39.8975,21.2927 39.2265,21.9647 38.3975,21.9647" id="Fill-165" fill="#490098"></path>
            <path d="M34.9243,27.6259 L25.1813,27.6259 C24.3533,27.6259 23.6813,26.9539 23.6813,26.1259 C23.6813,25.2979 24.3533,24.6259 25.1813,24.6259 L34.9243,24.6259 C35.7533,24.6259 36.4243,25.2979 36.4243,26.1259 C36.4243,26.9539 35.7533,27.6259 34.9243,27.6259" id="Fill-166" fill="#490098"></path>
        </g>
    </g>
</svg>