<?xml version="1.0" encoding="UTF-8"?>
<svg width="49px" height="38px" viewBox="0 0 49 38" version="1.1" xmlns="http://www.w3.org/2000/svg" xmlns:xlink="http://www.w3.org/1999/xlink">
    <!-- Generator: Sketch 52.6 (67491) - http://www.bohemiancoding.com/sketch -->
    <title>Group 14</title>
    <desc>Created with Sketch.</desc>
    <g id="Page-1" stroke="none" stroke-width="1" fill="none" fill-rule="evenodd">
        <g id="Group-14">
            <path d="M40.8896,11.1991 C39.3396,11.1991 38.0476,9.9071 38.0476,8.3571 C38.0476,6.8071 39.3396,5.5151 40.8896,5.5151 C42.4396,5.5151 43.7316,6.8071 43.7316,8.3571 C43.7316,9.9071 42.4396,11.1991 40.8896,11.1991 M47.8186,6.9771 L45.9656,6.7991 C45.9056,6.7991 45.8466,6.7391 45.8466,6.6781 C45.7856,6.4401 45.6666,6.2611 45.6066,6.0811 C45.5466,6.0211 45.6066,5.9621 45.6066,5.9021 L46.8026,4.4681 C46.9816,4.2281 46.9816,3.8701 46.7426,3.6901 L45.6066,2.5541 C45.3676,2.3161 45.0686,2.3161 44.8296,2.4951 L43.3956,3.6901 C43.3356,3.7501 43.2756,3.7501 43.2156,3.6901 C43.0366,3.5711 42.7976,3.5111 42.6186,3.4511 C42.5586,3.4511 42.4986,3.3911 42.4986,3.3321 L42.3196,1.4791 C42.2596,1.1801 42.0206,0.9411 41.7216,0.9411 L40.1076,0.9411 C39.8086,0.9411 39.5696,1.1801 39.5106,1.4791 L39.3306,3.3321 C39.3306,3.3911 39.2706,3.4511 39.2116,3.4511 C38.9726,3.5111 38.7926,3.6311 38.6136,3.6901 C38.5536,3.7501 38.4936,3.6901 38.4336,3.6901 L36.9996,2.4951 C36.7606,2.3161 36.4016,2.3161 36.2226,2.5541 L35.0866,3.6901 C34.8476,3.9291 34.8476,4.2281 35.0276,4.4681 L36.2226,5.9021 C36.2826,5.9621 36.2826,6.0211 36.2226,6.0811 C36.1026,6.2611 36.0436,6.5001 35.9836,6.6781 C35.9836,6.7391 35.9236,6.7991 35.8646,6.7991 L34.0116,6.9771 C33.7126,7.0381 33.4726,7.2761 33.4726,7.5751 L33.4726,9.1891 C33.4726,9.4881 33.7126,9.7271 34.0116,9.7871 L35.8646,9.9671 C35.9236,9.9671 35.9836,10.0261 35.9836,10.0861 C36.0436,10.3251 36.1626,10.5051 36.2226,10.6831 C36.2826,10.7431 36.2226,10.8031 36.2226,10.8631 L35.0276,12.2981 C34.8476,12.5371 34.8476,12.8951 35.0866,13.0741 L36.2226,14.2101 C36.4616,14.4491 36.7606,14.4491 36.9996,14.2701 L38.4336,13.0741 C38.4936,13.0141 38.5536,13.0141 38.6136,13.0741 C38.7926,13.1941 39.0326,13.2541 39.2116,13.3131 C39.2706,13.3131 39.3306,13.3731 39.3306,13.4331 L39.5106,15.2861 C39.5696,15.5851 39.8086,15.8241 40.1076,15.8241 L41.7216,15.8241 C42.0206,15.8241 42.2596,15.5851 42.3196,15.2861 L42.4986,13.4331 C42.4986,13.3731 42.5586,13.3131 42.6186,13.3131 C42.8576,13.2541 43.0366,13.1351 43.2156,13.0741 C43.2756,13.0141 43.3356,13.0741 43.3956,13.0741 L44.8296,14.2701 C45.0686,14.4491 45.4276,14.4491 45.6066,14.2101 L46.7426,13.0741 C46.9816,12.8361 46.9816,12.5371 46.8026,12.2981 L45.6066,10.8631 C45.5466,10.8031 45.5466,10.7431 45.6066,10.6831 C45.7266,10.5051 45.7856,10.2651 45.8466,10.0861 C45.8466,10.0261 45.9056,9.9671 45.9656,9.9671 L47.8186,9.7871 C48.1176,9.7271 48.3566,9.4881 48.3566,9.1891 L48.3566,7.5751 C48.3566,7.2761 48.1176,6.9771 47.8186,6.9771" id="Fill-183" fill="#B65EFF"></path>
            <path d="M18.5625,25.2216 C15.6485,25.2216 13.2205,22.7936 13.2205,19.8796 C13.2205,16.9656 15.6485,14.5376 18.5625,14.5376 C21.4765,14.5376 23.9045,16.9656 23.9045,19.8796 C23.9045,22.7936 21.4765,25.2216 18.5625,25.2216 M33.5805,16.8866 L29.5625,16.4976 C29.4335,16.4976 29.3045,16.3676 29.3045,16.2386 C29.1745,15.7206 28.9155,15.3316 28.7855,14.9436 C28.6565,14.8136 28.7855,14.6836 28.7855,14.5546 L31.3765,11.4446 C31.7655,10.9256 31.7655,10.1486 31.2475,9.7596 L28.7855,7.2976 C28.2675,6.7806 27.6195,6.7806 27.1015,7.1686 L23.9915,9.7596 C23.8615,9.8896 23.7325,9.8896 23.6025,9.7596 C23.2135,9.5006 22.6955,9.3706 22.3075,9.2426 C22.1775,9.2426 22.0475,9.1126 22.0475,8.9826 L21.6595,4.9656 C21.5295,4.3186 21.0115,3.7996 20.3635,3.7996 L16.8655,3.7996 C16.2175,3.7996 15.6985,4.3186 15.5695,4.9656 L15.1805,8.9826 C15.1805,9.1126 15.0505,9.2426 14.9215,9.2426 C14.4035,9.3706 14.0145,9.6306 13.6255,9.7596 C13.4965,9.8896 13.3665,9.7596 13.2365,9.7596 L10.1275,7.1686 C9.6085,6.7806 8.8315,6.7806 8.4425,7.2976 L5.9805,9.7596 C5.4625,10.2786 5.4625,10.9256 5.8515,11.4446 L8.4425,14.5546 C8.5725,14.6836 8.5725,14.8136 8.4425,14.9436 C8.1835,15.3316 8.0545,15.8496 7.9245,16.2386 C7.9245,16.3676 7.7945,16.4976 7.6655,16.4976 L3.6485,16.8866 C3.0005,17.0166 2.4825,17.5346 2.4825,18.1826 L2.4825,21.6806 C2.4825,22.3286 3.0005,22.8466 3.6485,22.9766 L7.6655,23.3656 C7.7945,23.3656 7.9245,23.4946 7.9245,23.6236 C8.0545,24.1426 8.3125,24.5316 8.4425,24.9196 C8.5725,25.0496 8.4425,25.1796 8.4425,25.3086 L5.8515,28.4186 C5.4625,28.9366 5.4625,29.7136 5.9805,30.1026 L8.4425,32.5646 C8.9605,33.0826 9.6085,33.0826 10.1275,32.6946 L13.2365,30.1026 C13.3665,29.9736 13.4965,29.9736 13.6255,30.1026 C14.0145,30.3626 14.5325,30.4926 14.9215,30.6206 C15.0505,30.6206 15.1805,30.7506 15.1805,30.8806 L15.5695,34.8976 C15.6985,35.5446 16.2175,36.0636 16.8655,36.0636 L20.3635,36.0636 C21.0115,36.0636 21.5295,35.5446 21.6595,34.8976 L22.0475,30.8806 C22.0475,30.7506 22.1775,30.6206 22.3075,30.6206 C22.8255,30.4926 23.2135,30.2326 23.6025,30.1026 C23.7325,29.9736 23.8615,30.1026 23.9915,30.1026 L27.1015,32.6946 C27.6195,33.0826 28.3965,33.0826 28.7855,32.5646 L31.2475,30.1026 C31.7665,29.5846 31.7665,28.9366 31.3765,28.4186 L28.7855,25.3086 C28.6565,25.1796 28.6565,25.0496 28.7855,24.9196 C29.0445,24.5316 29.1745,24.0126 29.3045,23.6236 C29.3045,23.4946 29.4335,23.3656 29.5625,23.3656 L33.5805,22.9766 C34.2275,22.8466 34.7465,22.3286 34.7465,21.6806 L34.7465,18.1826 C34.7465,17.5346 34.2275,16.8866 33.5805,16.8866" id="Fill-184" fill="#FFFFFF"></path>
            <path d="M18.5625,16.038 C16.4795,16.038 14.7205,17.798 14.7205,19.88 C14.7205,21.962 16.4795,23.722 18.5625,23.722 C20.6455,23.722 22.4045,21.962 22.4045,19.88 C22.4045,17.798 20.6455,16.038 18.5625,16.038 Z M18.5625,26.722 C14.7895,26.722 11.7205,23.652 11.7205,19.88 C11.7205,16.107 14.7895,13.038 18.5625,13.038 C22.3355,13.038 25.4045,16.107 25.4045,19.88 C25.4045,23.652 22.3355,26.722 18.5625,26.722 Z M17.0435,34.563 L20.1845,34.563 L20.5515,30.772 C20.6035,29.967 21.2265,29.287 22.0105,29.147 C22.1565,29.102 22.3115,29.03 22.4855,28.948 C22.6365,28.878 22.7815,28.811 22.9255,28.754 C23.2315,28.584 23.6805,28.459 24.2575,28.626 C24.5115,28.672 24.7515,28.783 24.9525,28.95 L27.8565,31.372 L30.0555,29.174 L27.6625,26.305 C27.3565,25.969 27.1885,25.55 27.1885,25.114 C27.1885,24.727 27.3215,24.351 27.5675,24.037 C27.6475,23.888 27.7295,23.628 27.7965,23.415 L27.8395,23.278 C27.9985,22.518 28.6665,21.919 29.4555,21.869 L33.2465,21.502 L33.2465,18.361 L29.4555,17.994 C28.6495,17.943 27.9715,17.32 27.8305,16.537 C27.7855,16.391 27.7135,16.236 27.6315,16.062 C27.5615,15.911 27.4945,15.765 27.4375,15.621 C27.2675,15.313 27.1405,14.863 27.3105,14.286 C27.3555,14.033 27.4665,13.794 27.6335,13.595 L30.0545,10.688 L27.8565,8.49 L24.9865,10.883 C24.3305,11.483 23.4035,11.513 22.7185,10.977 C22.5675,10.896 22.3065,10.815 22.0925,10.748 L21.9635,10.707 C21.2025,10.549 20.6025,9.881 20.5515,9.091 L20.1845,5.3 L17.0435,5.3 L16.6775,9.091 C16.6255,9.896 16.0015,10.576 15.2185,10.716 C15.0715,10.761 14.9175,10.832 14.7435,10.914 C14.5935,10.984 14.4475,11.051 14.3045,11.107 C13.9975,11.279 13.5465,11.406 12.9685,11.235 C12.7155,11.189 12.4765,11.079 12.2765,10.912 L9.3715,8.491 L7.1725,10.689 L9.5655,13.559 C9.8725,13.894 10.0405,14.313 10.0405,14.749 C10.0405,15.136 9.9065,15.512 9.6605,15.826 C9.5805,15.976 9.4985,16.235 9.4325,16.449 L9.3885,16.583 C9.2305,17.345 8.5625,17.944 7.7735,17.994 L3.9825,18.361 L3.9825,21.502 L7.7735,21.869 C8.5785,21.92 9.2575,22.543 9.3975,23.325 C9.4425,23.474 9.5155,23.628 9.5975,23.804 C9.6675,23.953 9.7335,24.099 9.7915,24.242 C9.9615,24.549 10.0885,25 9.9185,25.577 C9.8725,25.83 9.7615,26.069 9.5955,26.268 L7.1745,29.175 L9.3725,31.373 L12.2425,28.978 C12.8995,28.382 13.8265,28.351 14.5095,28.886 C14.6605,28.967 14.9215,29.048 15.1365,29.115 L15.2655,29.156 C16.0265,29.314 16.6265,29.982 16.6775,30.772 L17.0435,34.563 Z M20.3635,37.563 L16.8655,37.563 C15.5365,37.563 14.3735,36.565 14.0985,35.191 C14.0885,35.142 14.0815,35.092 14.0765,35.042 L13.7645,31.822 C13.7085,31.802 13.6515,31.78 13.5935,31.758 L11.0875,33.847 C9.8725,34.761 8.4065,34.65 7.3815,33.625 L4.9785,31.222 C4.4425,30.772 4.1165,30.112 4.0785,29.388 C4.0425,28.722 4.2465,28.058 4.6515,27.518 L6.8105,24.925 C6.7895,24.88 6.7685,24.832 6.7465,24.783 L3.5035,24.47 C3.4535,24.465 3.4035,24.457 3.3535,24.447 C1.9795,24.172 0.9825,23.009 0.9825,21.681 L0.9825,18.183 C0.9825,16.854 1.9795,15.691 3.3535,15.416 C3.4035,15.406 3.4535,15.398 3.5035,15.393 L6.7245,15.082 C6.7445,15.026 6.7655,14.97 6.7885,14.912 L4.6985,12.404 C3.7855,11.19 3.8945,9.726 4.9205,8.699 L7.3245,6.295 C8.2105,5.236 9.8425,5.081 11.0265,5.969 L13.6205,8.128 C13.6665,8.106 13.7135,8.086 13.7625,8.064 L14.0765,4.821 C14.0815,4.771 14.0885,4.722 14.0985,4.672 C14.3735,3.298 15.5365,2.3 16.8655,2.3 L20.3635,2.3 C21.6915,2.3 22.8555,3.298 23.1295,4.672 C23.1405,4.722 23.1475,4.771 23.1525,4.821 L23.4635,8.041 C23.5195,8.061 23.5765,8.083 23.6345,8.105 L26.1405,6.017 C27.3555,5.103 28.8205,5.212 29.8455,6.236 L32.2505,8.641 C33.3115,9.527 33.4655,11.159 32.5775,12.344 L30.4175,14.938 C30.4385,14.983 30.4605,15.031 30.4815,15.08 L33.6695,15.389 C35.0755,15.439 36.2465,16.698 36.2465,18.183 L36.2465,21.681 C36.2465,23.008 35.2495,24.172 33.8755,24.447 C33.8255,24.457 33.7745,24.465 33.7245,24.47 L30.5045,24.781 C30.4845,24.837 30.4625,24.893 30.4405,24.951 L32.5295,27.459 C33.4435,28.672 33.3355,30.138 32.3075,31.164 L29.9045,33.567 C29.4565,34.103 28.7955,34.43 28.0715,34.468 C27.4025,34.49 26.7405,34.3 26.2015,33.894 L23.6075,31.735 C23.5625,31.756 23.5155,31.777 23.4655,31.799 L23.1525,35.042 C23.1475,35.092 23.1405,35.142 23.1295,35.191 C22.8555,36.565 21.6915,37.563 20.3635,37.563 Z" id="Fill-185" fill="#490098"></path>
        </g>
    </g>
</svg>