<?xml version="1.0" encoding="UTF-8"?>
<svg width="48px" height="36px" viewBox="0 0 48 36" version="1.1" xmlns="http://www.w3.org/2000/svg" xmlns:xlink="http://www.w3.org/1999/xlink">
    <!-- Generator: Sketch 52.6 (67491) - http://www.bohemiancoding.com/sketch -->
    <title>Group 5</title>
    <desc>Created with Sketch.</desc>
    <g id="Page-1" stroke="none" stroke-width="1" fill="none" fill-rule="evenodd">
        <g id="Group-5">
            <path d="M44.2534,27.6429 L11.1334,27.6429 C9.4764,27.6429 8.1334,26.2999 8.1334,24.6429 L8.1334,3.2589 C8.1334,1.6019 9.4764,0.2589 11.1334,0.2589 L44.2534,0.2589 C45.9104,0.2589 47.2534,1.6019 47.2534,3.2589 L47.2534,24.6429 C47.2534,26.2999 45.9104,27.6429 44.2534,27.6429" id="Fill-75" fill="#E6DCFF"></path>
            <path d="M38.3735,34.0228 L5.2535,34.0228 C3.5965,34.0228 2.2535,32.6798 2.2535,31.0228 L2.2535,9.6388 C2.2535,7.9818 3.5965,6.6388 5.2535,6.6388 L38.3735,6.6388 C40.0305,6.6388 41.3735,7.9818 41.3735,9.6388 L41.3735,31.0228 C41.3735,32.6798 40.0305,34.0228 38.3735,34.0228" id="Fill-76" fill="#FFFFFF"></path>
            <path d="M5.2534,8.1385 C4.4264,8.1385 3.7534,8.8115 3.7534,9.6385 L3.7534,31.0225 C3.7534,31.8495 4.4264,32.5225 5.2534,32.5225 L38.3734,32.5225 C39.2004,32.5225 39.8734,31.8495 39.8734,31.0225 L39.8734,9.6385 C39.8734,8.8115 39.2004,8.1385 38.3734,8.1385 L5.2534,8.1385 Z M38.3734,35.5225 L5.2534,35.5225 C2.7724,35.5225 0.7534,33.5045 0.7534,31.0225 L0.7534,9.6385 C0.7534,7.1575 2.7724,5.1385 5.2534,5.1385 L38.3734,5.1385 C40.8554,5.1385 42.8734,7.1575 42.8734,9.6385 L42.8734,31.0225 C42.8734,33.5045 40.8554,35.5225 38.3734,35.5225 Z" id="Fill-77" fill="#490098"></path>
            <polygon id="Fill-78" fill="#490098" points="2.254 18.769 41.374 18.769 41.374 12.769 2.254 12.769"></polygon>
            <polygon id="Fill-79" fill="#B65EFF" points="26.262 29.143 36.097 29.143 36.097 26.143 26.262 26.143"></polygon>
            <polygon id="Fill-80" fill="#B65EFF" points="8.673 29.143 14.879 29.143 14.879 26.143 8.673 26.143"></polygon>
        </g>
    </g>
</svg>