<?xml version="1.0" encoding="UTF-8"?>
<svg width="49px" height="49px" viewBox="0 0 49 49" version="1.1" xmlns="http://www.w3.org/2000/svg" xmlns:xlink="http://www.w3.org/1999/xlink">
    <!-- Generator: Sketch 52.6 (67491) - http://www.bohemiancoding.com/sketch -->
    <title>Group 6</title>
    <desc>Created with Sketch.</desc>
    <g id="Page-1" stroke="none" stroke-width="1" fill="none" fill-rule="evenodd">
        <g id="Group-6">
            <path d="M16.9194,43.641 L16.9194,4.641 C16.9194,2.984 18.2624,1.641 19.9194,1.641 L43.9194,1.641 C45.5764,1.641 46.9194,2.984 46.9194,4.641 L46.9194,43.641 C46.9194,45.298 45.5764,46.641 43.9194,46.641 L19.9194,46.641 C18.2624,46.641 16.9194,45.298 16.9194,43.641" id="Fill-81" fill="#FFFFFF"></path>
            <path d="M19.9194,3.141 C19.0924,3.141 18.4194,3.814 18.4194,4.641 L18.4194,43.641 C18.4194,44.468 19.0924,45.141 19.9194,45.141 L43.9194,45.141 C44.7464,45.141 45.4194,44.468 45.4194,43.641 L45.4194,4.641 C45.4194,3.814 44.7464,3.141 43.9194,3.141 L19.9194,3.141 Z M43.9194,48.141 L19.9194,48.141 C17.4384,48.141 15.4194,46.122 15.4194,43.641 L15.4194,4.641 C15.4194,2.16 17.4384,0.141 19.9194,0.141 L43.9194,0.141 C46.4004,0.141 48.4194,2.16 48.4194,4.641 L48.4194,43.641 C48.4194,46.122 46.4004,48.141 43.9194,48.141 Z" id="Fill-82" fill="#490098"></path>
            <path d="M33.5435,40.9706 C33.5435,41.8316 32.8165,42.5296 31.9195,42.5296 C31.0225,42.5296 30.2955,41.8316 30.2955,40.9706 C30.2955,40.1096 31.0225,39.4116 31.9195,39.4116 C32.8165,39.4116 33.5435,40.1096 33.5435,40.9706" id="Fill-83" fill="#490098"></path>
            <path d="M39.0127,40.9706 L9.0127,40.9706 C7.3557,40.9706 6.0127,39.6276 6.0127,37.9706 L6.0127,18.6116 C6.0127,16.9546 7.3557,15.6116 9.0127,15.6116 L39.0127,15.6116 C40.6697,15.6116 42.0127,16.9546 42.0127,18.6116 L42.0127,37.9706 C42.0127,39.6276 40.6697,40.9706 39.0127,40.9706" id="Fill-84" fill="#E6DCFF"></path>
            <path d="M34.9194,37.3173 L4.9194,37.3173 C3.2624,37.3173 1.9194,35.9743 1.9194,34.3173 L1.9194,14.9583 C1.9194,13.3013 3.2624,11.9583 4.9194,11.9583 L34.9194,11.9583 C36.5764,11.9583 37.9194,13.3013 37.9194,14.9583 L37.9194,34.3173 C37.9194,35.9743 36.5764,37.3173 34.9194,37.3173" id="Fill-85" fill="#FFFFFF"></path>
            <path d="M4.9194,13.4584 C4.0924,13.4584 3.4194,14.1314 3.4194,14.9584 L3.4194,34.3174 C3.4194,35.1444 4.0924,35.8174 4.9194,35.8174 L34.9194,35.8174 C35.7464,35.8174 36.4194,35.1444 36.4194,34.3174 L36.4194,14.9584 C36.4194,14.1314 35.7464,13.4584 34.9194,13.4584 L4.9194,13.4584 Z M34.9194,38.8174 L4.9194,38.8174 C2.4384,38.8174 0.4194,36.7984 0.4194,34.3174 L0.4194,14.9584 C0.4194,12.4774 2.4384,10.4584 4.9194,10.4584 L34.9194,10.4584 C37.4004,10.4584 39.4194,12.4774 39.4194,14.9584 L39.4194,34.3174 C39.4194,36.7984 37.4004,38.8174 34.9194,38.8174 Z" id="Fill-86" fill="#490098"></path>
            <polygon id="Fill-87" fill="#490098" points="1.919 23.413 37.919 23.413 37.919 17.413 1.919 17.413"></polygon>
            <polygon id="Fill-88" fill="#B65EFF" points="24.012 31.91 33.063 31.91 33.063 28.91 24.012 28.91"></polygon>
            <path d="M29.0513,4.9051 L34.7873,4.9051" id="Fill-89" fill="#FFFFFF"></path>
            <path d="M34.7871,5.9051 L29.0511,5.9051 C28.4991,5.9051 28.0511,5.4571 28.0511,4.9051 C28.0511,4.3531 28.4991,3.9051 29.0511,3.9051 L34.7871,3.9051 C35.3391,3.9051 35.7871,4.3531 35.7871,4.9051 C35.7871,5.4571 35.3391,5.9051 34.7871,5.9051" id="Fill-90" fill="#490098"></path>
        </g>
    </g>
</svg>