<?xml version="1.0" encoding="UTF-8"?>
<svg width="40px" height="48px" viewBox="0 0 40 48" version="1.1" xmlns="http://www.w3.org/2000/svg" xmlns:xlink="http://www.w3.org/1999/xlink">
    <!-- Generator: Sketch 52.6 (67491) - http://www.bohemiancoding.com/sketch -->
    <title>Group 12</title>
    <desc>Created with Sketch.</desc>
    <g id="Page-1" stroke="none" stroke-width="1" fill="none" fill-rule="evenodd">
        <g id="Group-12">
            <path d="M1.6572,42.954 L1.6572,13.248 C1.6572,10.486 3.8952,8.248 6.6572,8.248 L32.8782,8.248 C35.6392,8.248 37.8782,10.486 37.8782,13.248 L37.8782,42.954 C37.8782,45.715 35.6392,47.954 32.8782,47.954 L6.6572,47.954 C3.8952,47.954 1.6572,45.715 1.6572,42.954" id="Fill-37" fill="#E6DCFF"></path>
            <path d="M1.625,38.6381 L1.625,8.9321 C1.625,6.1711 3.864,3.9321 6.625,3.9321 L32.878,3.9321 C35.64,3.9321 37.878,6.1711 37.878,8.9321 L37.878,38.6381 C37.878,41.3991 35.64,43.6381 32.878,43.6381 L6.625,43.6381 C3.864,43.6381 1.625,41.3991 1.625,38.6381" id="Fill-38" fill="#FFFFFF"></path>
            <path d="M6.625,5.432 C4.695,5.432 3.125,7.002 3.125,8.932 L3.125,38.638 C3.125,40.568 4.695,42.138 6.625,42.138 L32.878,42.138 C34.808,42.138 36.378,40.568 36.378,38.638 L36.378,8.932 C36.378,7.002 34.808,5.432 32.878,5.432 L6.625,5.432 Z M32.878,45.138 L6.625,45.138 C3.041,45.138 0.125,42.222 0.125,38.638 L0.125,8.932 C0.125,5.348 3.041,2.432 6.625,2.432 L32.878,2.432 C36.462,2.432 39.378,5.348 39.378,8.932 L39.378,38.638 C39.378,42.222 36.462,45.138 32.878,45.138 Z" id="Fill-39" fill="#490098"></path>
            <polygon id="Fill-40" fill="#490098" points="14.138 5.454 25.397 5.454 25.397 0.454 14.138 0.454"></polygon>
            <path d="M34.686,6.2748 L10.129,6.2748 C9.518,6.2748 9.022,6.7708 9.022,7.3828 L9.022,35.4448 C9.022,36.0568 9.518,36.5518 10.129,36.5518 L29.631,36.5518 L35.793,30.8368 L35.793,7.3828 C35.793,6.7708 35.297,6.2748 34.686,6.2748" id="Fill-41" fill="#E6DCFF"></path>
            <path d="M28.083,28.4994 L33.137,28.4994 L33.137,5.0454 C33.137,4.4334 32.642,3.9374 32.03,3.9374 L7.473,3.9374 C6.862,3.9374 6.366,4.4334 6.366,5.0454 L6.366,33.1074 C6.366,33.7194 6.862,34.2154 7.473,34.2154 L26.976,34.2154 L26.976,29.6064 C26.976,28.9954 27.472,28.4994 28.083,28.4994" id="Fill-42" fill="#FFFFFF"></path>
            <path d="M7.8657,32.7152 L25.4757,32.7152 L25.4757,29.6072 C25.4757,28.1692 26.6457,26.9992 28.0827,26.9992 L31.6367,26.9992 L31.6367,5.4382 L7.8657,5.4382 L7.8657,32.7152 Z M26.9757,35.7152 L7.4727,35.7152 C6.0357,35.7152 4.8657,34.5452 4.8657,33.1082 L4.8657,5.0452 C4.8657,3.6082 6.0357,2.4382 7.4727,2.4382 L32.0297,2.4382 C33.4677,2.4382 34.6367,3.6082 34.6367,5.0452 L34.6367,28.4992 C34.6367,29.3282 33.9657,29.9992 33.1367,29.9992 L28.4757,29.9992 L28.4757,34.2152 C28.4757,35.0442 27.8037,35.7152 26.9757,35.7152 Z" id="Fill-43" fill="#490098"></path>
            <path d="M33.1372,28.4994 L28.0832,28.4994 C27.4712,28.4994 26.9752,28.9954 26.9752,29.6064 L26.9752,34.2154 L33.1372,28.4994 Z" id="Fill-44" fill="#FFFFFF"></path>
            <path d="M28.4756,29.9994 L28.4756,30.7774 L29.3146,29.9994 L28.4756,29.9994 Z M26.9756,35.7154 C26.7726,35.7154 26.5686,35.6744 26.3756,35.5904 C25.8296,35.3514 25.4756,34.8114 25.4756,34.2154 L25.4756,29.6064 C25.4756,28.1694 26.6456,26.9994 28.0826,26.9994 L33.1376,26.9994 C33.7546,26.9994 34.3086,27.3774 34.5336,27.9514 C34.7586,28.5254 34.6096,29.1794 34.1576,29.5994 L27.9956,35.3144 C27.7126,35.5774 27.3466,35.7154 26.9756,35.7154 Z" id="Fill-45" fill="#490098"></path>
            <path d="M10.7217,12.079 L28.7817,12.079" id="Fill-46" fill="#FFFFFF"></path>
            <polygon id="Fill-47" fill="#B65EFF" points="10.722 13.579 28.782 13.579 28.782 10.579 10.722 10.579"></polygon>
            <path d="M10.7217,18.5594 L28.7817,18.5594" id="Fill-48" fill="#FFFFFF"></path>
            <polygon id="Fill-49" fill="#B65EFF" points="10.722 20.059 28.782 20.059 28.782 17.059 10.722 17.059"></polygon>
            <path d="M10.7217,25.3588 L20.9357,25.3588" id="Fill-50" fill="#FFFFFF"></path>
            <polygon id="Fill-51" fill="#B65EFF" points="10.722 26.859 20.936 26.859 20.936 23.859 10.722 23.859"></polygon>
        </g>
    </g>
</svg>