<?xml version="1.0" encoding="UTF-8"?>
<svg width="48px" height="39px" viewBox="0 0 48 39" version="1.1" xmlns="http://www.w3.org/2000/svg" xmlns:xlink="http://www.w3.org/1999/xlink">
    <!-- Generator: Sketch 52.6 (67491) - http://www.bohemiancoding.com/sketch -->
    <title>Group 11</title>
    <desc>Created with Sketch.</desc>
    <g id="Page-1" stroke="none" stroke-width="1" fill="none" fill-rule="evenodd">
        <g id="Group-11">
            <path d="M1.8115,36.8173 L1.8115,2.0903 L11.2015,2.0903 C13.0195,2.0903 14.4945,3.5643 14.4945,5.3833 L14.4945,6.3183 L39.8595,6.3183 L39.8595,36.8173 L1.8115,36.8173 Z" id="Fill-146" fill="#FFFFFF"></path>
            <path d="M3.3115,35.3173 L38.3595,35.3173 L38.3595,7.8183 L14.4945,7.8183 C13.6655,7.8183 12.9945,7.1473 12.9945,6.3183 L12.9945,5.3833 C12.9945,4.3943 12.1895,3.5903 11.2015,3.5903 L3.3115,3.5903 L3.3115,35.3173 Z M39.8595,38.3173 L1.8115,38.3173 C0.9825,38.3173 0.3115,37.6463 0.3115,36.8173 L0.3115,2.0903 C0.3115,1.2613 0.9825,0.5903 1.8115,0.5903 L11.2015,0.5903 C13.6535,0.5903 15.6805,2.4413 15.9605,4.8183 L39.8595,4.8183 C40.6885,4.8183 41.3595,5.4893 41.3595,6.3183 L41.3595,36.8173 C41.3595,37.6463 40.6885,38.3173 39.8595,38.3173 Z" id="Fill-147" fill="#490098"></path>
            <polygon id="Fill-148" fill="#B65EFF" points="13.6646 18.3798 18.5296 2.0898 46.3596 2.0898 40.8826 18.3798"></polygon>
            <path d="M2.3174,35.0292 L8.4734,13.2662 C8.6454,12.6612 9.1974,12.2432 9.8264,12.2432 L44.9534,12.2432 C45.8854,12.2432 46.5594,13.1342 46.3054,14.0312 L40.1494,35.7942 C39.9784,36.3992 39.4254,36.8172 38.7964,36.8172 L3.6704,36.8172 C2.7374,36.8172 2.0634,35.9262 2.3174,35.0292" id="Fill-149" fill="#FFFFFF"></path>
            <path d="M9.8975,13.7435 L3.7845,35.3545 L38.7255,35.3175 L44.8285,13.7435 L9.8975,13.7435 Z M38.7965,38.3175 L3.6695,38.3175 C2.7515,38.3175 1.9065,37.8965 1.3525,37.1645 C0.7985,36.4315 0.6245,35.5045 0.8745,34.6205 L7.0305,12.8585 C7.3825,11.6125 8.5325,10.7435 9.8265,10.7435 L44.9535,10.7435 C45.8715,10.7435 46.7165,11.1635 47.2705,11.8965 C47.8245,12.6295 47.9995,13.5565 47.7495,14.4405 L41.5925,36.2025 C41.2405,37.4485 40.0905,38.3175 38.7965,38.3175 Z" id="Fill-150" fill="#490098"></path>
            <polygon id="Fill-151" fill="#490098" points="15.6646 20.8656 37.0586 20.8656 35.0586 25.4266 13.6646 25.4266"></polygon>
            <path d="M3.2515,26.2206 L3.2515,6.2046 L8.3035,6.2046 C9.1565,6.2046 9.8485,6.8966 9.8485,7.7506 L9.8485,7.8706 C9.8485,8.5706 10.4155,9.1376 11.1145,9.1376 L16.3645,9.1376 L15.9625,10.6856 L9.8155,10.6856 C8.5815,10.6856 7.4955,11.5026 7.1535,12.6886 L3.2515,26.2206 Z" id="Fill-152" fill="#E6DCFF"></path>
        </g>
    </g>
</svg>