<?xml version="1.0" encoding="UTF-8"?>
<svg width="49px" height="48px" viewBox="0 0 49 48" version="1.1" xmlns="http://www.w3.org/2000/svg" xmlns:xlink="http://www.w3.org/1999/xlink">
    <!-- Generator: Sketch 52.6 (67491) - http://www.bohemiancoding.com/sketch -->
    <title>Group 3</title>
    <desc>Created with Sketch.</desc>
    <g id="Page-1" stroke="none" stroke-width="1" fill="none" fill-rule="evenodd">
        <g id="Group-3">
            <path d="M32.7983,3.41 L30.8113,3.41 L30.8113,0.305 L26.8113,0.305 L26.8113,3.41 L15.5723,3.41 L15.5723,0.305 L11.5723,0.305 L11.5723,3.41 L9.5853,3.41 C6.0013,3.41 3.0853,6.326 3.0853,9.91 L3.0853,33.123 C3.0853,36.707 6.0013,39.623 9.5853,39.623 L32.7983,39.623 C36.3823,39.623 39.2983,36.707 39.2983,33.123 L39.2983,9.91 C39.2983,6.326 36.3823,3.41 32.7983,3.41" id="Fill-136" fill="#E6DCFF"></path>
            <path d="M34.7988,9.91 C34.7988,7.149 32.5598,4.91 29.7988,4.91 L6.5858,4.91 C3.8238,4.91 1.5858,7.149 1.5858,9.91 L1.5858,12.743 L34.7988,12.743 L34.7988,9.91 Z" id="Fill-137" fill="#490098"></path>
            <path d="M3.0854,11.2435 L33.2984,11.2435 L33.2984,9.9105 C33.2984,7.9805 31.7284,6.4105 29.7984,6.4105 L6.5854,6.4105 C4.6554,6.4105 3.0854,7.9805 3.0854,9.9105 L3.0854,11.2435 Z M34.7984,14.2435 L1.5854,14.2435 C0.7564,14.2435 0.0854,13.5725 0.0854,12.7435 L0.0854,9.9105 C0.0854,6.3265 3.0014,3.4105 6.5854,3.4105 L29.7984,3.4105 C33.3824,3.4105 36.2984,6.3265 36.2984,9.9105 L36.2984,12.7435 C36.2984,13.5725 35.6274,14.2435 34.7984,14.2435 Z" id="Fill-138" fill="#490098"></path>
            <path d="M1.5854,12.7435 L1.5854,33.1235 C1.5854,35.8845 3.8244,38.1235 6.5854,38.1235 L29.7984,38.1235 C32.5604,38.1235 34.7984,35.8845 34.7984,33.1235 L34.7984,12.7435 L1.5854,12.7435 Z" id="Fill-139" fill="#FFFFFF"></path>
            <path d="M3.0854,14.2435 L3.0854,33.1235 C3.0854,35.0535 4.6554,36.6235 6.5854,36.6235 L29.7984,36.6235 C31.7284,36.6235 33.2984,35.0535 33.2984,33.1235 L33.2984,14.2435 L3.0854,14.2435 Z M29.7984,39.6235 L6.5854,39.6235 C3.0014,39.6235 0.0854,36.7075 0.0854,33.1235 L0.0854,12.7435 C0.0854,11.9145 0.7564,11.2435 1.5854,11.2435 L34.7984,11.2435 C35.6274,11.2435 36.2984,11.9145 36.2984,12.7435 L36.2984,33.1235 C36.2984,36.7075 33.3824,39.6235 29.7984,39.6235 Z" id="Fill-140" fill="#490098"></path>
            <path d="M46.5854,31.6659 C46.5854,39.4139 40.3044,45.6949 32.5564,45.6949 C24.8094,45.6949 18.5284,39.4139 18.5284,31.6659 C18.5284,23.9179 24.8094,17.6379 32.5564,17.6379 C40.3044,17.6379 46.5854,23.9179 46.5854,31.6659" id="Fill-141" fill="#B65EFF"></path>
            <path d="M32.5566,19.1376 C25.6486,19.1376 20.0286,24.7576 20.0286,31.6656 C20.0286,38.5746 25.6486,44.1946 32.5566,44.1946 C39.4646,44.1946 45.0856,38.5746 45.0856,31.6656 C45.0856,24.7576 39.4646,19.1376 32.5566,19.1376 M32.5566,47.1946 C23.9936,47.1946 17.0286,40.2286 17.0286,31.6656 C17.0286,23.1036 23.9936,16.1376 32.5566,16.1376 C41.1196,16.1376 48.0856,23.1036 48.0856,31.6656 C48.0856,40.2286 41.1196,47.1946 32.5566,47.1946" id="Fill-142" fill="#490098"></path>
            <path d="M31.8242,38.7601 L31.6162,37.2091 C31.6042,37.1321 31.6242,37.0541 31.6712,36.9931 C31.7182,36.9321 31.7882,36.8921 31.8652,36.8831 C34.2972,36.6391 36.4222,35.1351 37.4622,32.9241 C38.5022,30.7111 38.3042,28.1151 36.9402,26.0871 C36.5892,25.5621 35.8802,25.4221 35.3552,25.7721 C34.8302,26.1231 34.6892,26.8321 35.0402,27.3571 C35.9672,28.7341 36.0932,30.4991 35.3722,31.9941 C34.6512,33.4891 33.1912,34.4901 31.5372,34.6231 C31.3852,34.6361 31.2492,34.5281 31.2292,34.3771 L30.8582,31.6201 C30.8272,31.3911 30.6612,31.2041 30.4382,31.1451 C30.2152,31.0861 29.9782,31.1671 29.8382,31.3501 L26.7512,35.3981 C26.5592,35.6491 26.6082,36.0071 26.8582,36.1981 L30.9122,39.2911 C31.1052,39.4041 31.3402,39.4181 31.5462,39.3301 C31.5512,39.3241 31.5552,39.3181 31.5612,39.3101 C31.7472,39.1931 31.8502,38.9791 31.8242,38.7601" id="Fill-143" fill="#FFFFFF"></path>
            <polygon id="Fill-144" fill="#490098" points="23.812 9.235 27.812 9.235 27.812 0.305 23.812 0.305"></polygon>
            <polygon id="Fill-145" fill="#490098" points="8.573 9.235 12.573 9.235 12.573 0.305 8.573 0.305"></polygon>
        </g>
    </g>
</svg>