<?xml version="1.0" encoding="utf-8"?>
<!-- Generator: Adobe Illustrator 24.1.2, SVG Export Plug-In . SVG Version: 6.00 Build 0)  -->
<svg version="1.1" id="Layer_1" xmlns="http://www.w3.org/2000/svg" xmlns:xlink="http://www.w3.org/1999/xlink" x="0px" y="0px"
	 viewBox="0 0 1900 1889" style="enable-background:new 0 0 1900 1889;" xml:space="preserve">
<style type="text/css">
	.st0{fill:#4D2D28;}
</style>
<g>
	<path class="st0" d="M1456.5,1113.6c0-7.2-5.8-13-13-13h-390v3.4h390c5.3,0,9.6,4.3,9.6,9.6v229.3h3.4V1113.6z"/>
	<rect x="1022.3" y="1100.6" class="st0" width="19.3" height="3.4"/>
	<rect x="1453.1" y="1354.8" class="st0" width="3.4" height="19.3"/>
	<rect x="665.1" y="1536" class="st0" width="19.3" height="3.4"/>
	<rect x="1181.2" y="1581.1" class="st0" width="19.3" height="3.4"/>
	<path class="st0" d="M1169.2,1581.1H934.6v3.4H1081v11.8c0,0.9,0.8,1.7,1.7,1.7c0.9,0,1.7-0.8,1.7-1.7v-11.8h84.9V1581.1z"/>
	<path class="st0" d="M891.5,1215.4c-7.2,0-13,5.8-13,13v183.3c0,7.2,5.8,13,13,13h98.8c7.2,0,13-5.8,13-13v-183.3
		c0-7.2-5.8-13-13-13H891.5z M999.9,1228.4v183.3c0,5.3-4.3,9.6-9.6,9.6h-98.8c-5.3,0-9.6-4.3-9.6-9.6v-183.3c0-5.3,4.3-9.6,9.6-9.6
		h98.8C995.6,1218.8,999.9,1223.1,999.9,1228.4z"/>
	<path class="st0" d="M940.9,1295.3c0.1,0,0.2,0,0.3,0c7.5-0.1,14.4-3,19.7-8.4c5.2-5.3,8.1-12.4,8-19.8c-0.1-7.5-3-14.4-8.4-19.7
		c-5.3-5.2-12.2-8-19.6-8c-0.1,0-0.2,0-0.3,0c-15.4,0.1-27.8,12.8-27.7,28.2c0.1,7.5,3,14.4,8.4,19.7
		C926.6,1292.4,933.6,1295.3,940.9,1295.3z M940.7,1242.8c0.1,0,0.2,0,0.2,0c6.5,0,12.6,2.5,17.2,7c4.7,4.6,7.3,10.7,7.3,17.3
		c0.1,6.6-2.4,12.7-7,17.4c-4.6,4.7-10.7,7.3-17.3,7.3c-6.6,0.1-12.7-2.4-17.4-7c-4.7-4.6-7.3-10.7-7.3-17.3
		C916.3,1254.1,927.2,1242.9,940.7,1242.8z"/>
	<path class="st0" d="M928.9,1269.1H953c0.9,0,1.7-0.8,1.7-1.7c0-0.9-0.8-1.7-1.7-1.7h-24.1c-0.9,0-1.7,0.8-1.7,1.7
		C927.2,1268.3,927.9,1269.1,928.9,1269.1z"/>
	<path class="st0" d="M962.3,1309.3c0-0.9-0.8-1.7-1.7-1.7h-39.4c-0.9,0-1.7,0.8-1.7,1.7s0.8,1.7,1.7,1.7h39.4
		C961.6,1311,962.3,1310.2,962.3,1309.3z"/>
	<path class="st0" d="M932,1316.4c-0.9,0-1.7,0.8-1.7,1.7s0.8,1.7,1.7,1.7h17.7c0.9,0,1.7-0.8,1.7-1.7s-0.8-1.7-1.7-1.7H932z"/>
	<path class="st0" d="M902.3,1340.7h77.2c0.9,0,1.7-0.8,1.7-1.7c0-0.9-0.8-1.7-1.7-1.7h-77.2c-0.9,0-1.7,0.8-1.7,1.7
		C900.6,1340,901.4,1340.7,902.3,1340.7z"/>
	<path class="st0" d="M979.9,1352.6h-77.2c-0.9,0-1.7,0.8-1.7,1.7s0.8,1.7,1.7,1.7h77.2c0.9,0,1.7-0.8,1.7-1.7
		S980.8,1352.6,979.9,1352.6z"/>
	<path class="st0" d="M979.9,1367.9h-77.2c-0.9,0-1.7,0.8-1.7,1.7c0,0.9,0.8,1.7,1.7,1.7h77.2c0.9,0,1.7-0.8,1.7-1.7
		C981.6,1368.6,980.8,1367.9,979.9,1367.9z"/>
	<path class="st0" d="M969.4,1388h-56.3c-0.9,0-1.7,0.8-1.7,1.7v12.1c0,0.9,0.8,1.7,1.7,1.7h56.3c0.9,0,1.7-0.8,1.7-1.7v-12.1
		C971.1,1388.7,970.4,1388,969.4,1388z M967.7,1400h-52.9v-8.7h52.9V1400z"/>
	<path class="st0" d="M1261.2,1411.6c0,7.2,5.8,13,13,13h98.9c7.2,0,13-5.8,13-13v-183.3c0-7.2-5.8-13-13-13h-98.9
		c-7.2,0-13,5.8-13,13v20.2h3.4v-20.2c0-5.3,4.3-9.6,9.6-9.6h98.9c5.3,0,9.6,4.3,9.6,9.6v183.3c0,5.3-4.3,9.6-9.6,9.6h-98.9
		c-5.3,0-9.6-4.3-9.6-9.6v-119.9h-3.4V1411.6z"/>
	<rect x="1261.2" y="1260.5" class="st0" width="3.4" height="19.3"/>
	<path class="st0" d="M1343.2,1247.4c-5.3-5.2-12.2-8-19.6-8c-0.1,0-0.2,0-0.3,0c-15.4,0.1-27.8,12.8-27.7,28.2
		c0.1,7.5,3,14.4,8.4,19.7c5.3,5.2,12.2,8,19.6,8c0.1,0,0.2,0,0.3,0c7.5-0.1,14.4-3,19.7-8.4c5.2-5.3,8.1-12.4,8-19.8
		C1351.5,1259.6,1348.5,1252.7,1343.2,1247.4z M1341.2,1284.6c-4.6,4.7-10.7,7.3-17.3,7.3c-6.6,0.1-12.7-2.4-17.4-7
		c-4.7-4.6-7.3-10.7-7.3-17.3c-0.1-13.5,10.8-24.6,24.3-24.8c0.1,0,0.2,0,0.2,0c6.5,0,12.6,2.5,17.2,7c4.7,4.6,7.3,10.7,7.3,17.3
		C1348.2,1273.7,1345.7,1279.9,1341.2,1284.6z"/>
	<path class="st0" d="M1345,1309.3c0-0.9-0.8-1.7-1.7-1.7h-39.4c-0.9,0-1.7,0.8-1.7,1.7s0.8,1.7,1.7,1.7h39.4
		C1344.3,1311,1345,1310.2,1345,1309.3z"/>
	<path class="st0" d="M1314.7,1316.4c-0.9,0-1.7,0.8-1.7,1.7s0.8,1.7,1.7,1.7h17.7c0.9,0,1.7-0.8,1.7-1.7s-0.8-1.7-1.7-1.7H1314.7z"
		/>
	<path class="st0" d="M1283.3,1339c0,0.9,0.8,1.7,1.7,1.7h77.2c0.9,0,1.7-0.8,1.7-1.7c0-0.9-0.8-1.7-1.7-1.7H1285
		C1284.1,1337.3,1283.3,1338.1,1283.3,1339z"/>
	<path class="st0" d="M1362.6,1352.6h-77.2c-0.9,0-1.7,0.8-1.7,1.7s0.8,1.7,1.7,1.7h77.2c0.9,0,1.7-0.8,1.7-1.7
		S1363.5,1352.6,1362.6,1352.6z"/>
	<path class="st0" d="M1364.3,1369.6c0-0.9-0.8-1.7-1.7-1.7h-77.2c-0.9,0-1.7,0.8-1.7,1.7c0,0.9,0.8,1.7,1.7,1.7h77.2
		C1363.5,1371.3,1364.3,1370.5,1364.3,1369.6z"/>
	<path class="st0" d="M1295.9,1388c-0.9,0-1.7,0.8-1.7,1.7v12.1c0,0.9,0.8,1.7,1.7,1.7h56.3c0.9,0,1.7-0.8,1.7-1.7v-12.1
		c0-0.9-0.8-1.7-1.7-1.7H1295.9z M1350.4,1400h-52.9v-8.7h52.9V1400z"/>
	<path class="st0" d="M1336.3,1255.7c-0.1-0.2-0.2-0.4-0.4-0.6c-0.2-0.2-0.4-0.3-0.6-0.4c0,0,0,0,0,0c-0.2-0.1-0.4-0.1-0.6-0.1
		h-16.6c-0.2,0-0.4,0-0.6,0.1c0,0,0,0,0,0c-0.2,0.1-0.4,0.2-0.6,0.4l0,0l-5.5,5.5l0,0c-0.2,0.2-0.3,0.4-0.4,0.6c0,0,0,0,0,0
		c-0.1,0.2-0.1,0.4-0.1,0.6v16.6c0,0.9,0.8,1.7,1.7,1.7h16.6c0.2,0,0.4,0,0.6-0.1c0,0,0,0,0,0c0.2-0.1,0.4-0.2,0.6-0.4l0,0l5.5-5.5
		l0,0c0.2-0.2,0.3-0.4,0.4-0.6c0,0,0,0,0,0c0.1-0.2,0.1-0.4,0.1-0.6v-16.6C1336.4,1256.1,1336.3,1255.9,1336.3,1255.7
		C1336.3,1255.7,1336.3,1255.7,1336.3,1255.7z M1328.5,1260.1h-11.8l2.1-2.1h11.8L1328.5,1260.1z M1314.3,1263.5h13.2v13.2h-13.2
		V1263.5z M1330.9,1262.5l2.1-2.1v11.8l-2.1,2.1V1262.5z"/>
	<rect x="1088.6" y="1451.8" class="st0" width="19.3" height="3.4"/>
	<path class="st0" d="M1212.7,1442.2v-244.4c0-7.2-5.8-13-13-13h-134.9c-7.2,0-13,5.8-13,13v244.4c0,7.2,5.8,13,13,13h11.8v-3.4
		h-11.8c-5.3,0-9.6-4.3-9.6-9.6v-244.4c0-5.3,4.3-9.6,9.6-9.6h134.9c5.3,0,9.6,4.3,9.6,9.6v244.4c0,5.3-4.3,9.6-9.6,9.6h-79.9v3.4
		h79.9C1206.9,1455.2,1212.7,1449.3,1212.7,1442.2z"/>
	<path class="st0" d="M1157.3,1226.2c-6.8-6.7-15.8-10.3-25.3-10.2c-9.5,0.1-18.5,3.9-25.2,10.7c-6.7,6.8-10.3,15.8-10.2,25.3
		c0.2,19.6,16.2,35.4,35.7,35.4c0.1,0,0.2,0,0.3,0c19.7-0.2,35.6-16.3,35.4-36C1167.9,1241.9,1164.1,1232.9,1157.3,1226.2z
		 M1132.6,1284.1c-0.1,0-0.2,0-0.3,0c-17.7,0-32.2-14.3-32.3-32c-0.1-8.6,3.2-16.8,9.3-22.9c6.1-6.2,14.1-9.6,22.8-9.7
		c0.1,0,0.2,0,0.3,0c8.5,0,16.6,3.3,22.6,9.3c6.2,6.1,9.6,14.1,9.7,22.8C1164.8,1269.3,1150.4,1283.9,1132.6,1284.1z"/>
	<path class="st0" d="M1159.5,1306.1c0-0.9-0.8-1.7-1.7-1.7h-51.1c-0.9,0-1.7,0.8-1.7,1.7s0.8,1.7,1.7,1.7h51.1
		C1158.8,1307.8,1159.5,1307,1159.5,1306.1z"/>
	<path class="st0" d="M1120.7,1315.9c-0.9,0-1.7,0.8-1.7,1.7s0.8,1.7,1.7,1.7h22.9c0.9,0,1.7-0.8,1.7-1.7s-0.8-1.7-1.7-1.7H1120.7z"
		/>
	<path class="st0" d="M1080.5,1344.7c0,0.9,0.8,1.7,1.7,1.7h100.1c0.9,0,1.7-0.8,1.7-1.7c0-0.9-0.8-1.7-1.7-1.7h-100.1
		C1081.2,1343,1080.5,1343.7,1080.5,1344.7z"/>
	<path class="st0" d="M1082.7,1362.8c-0.9,0-1.7,0.8-1.7,1.7s0.8,1.7,1.7,1.7h100.1c0.9,0,1.7-0.8,1.7-1.7s-0.8-1.7-1.7-1.7H1082.7z
		"/>
	<path class="st0" d="M1082.7,1386h100.1c0.9,0,1.7-0.8,1.7-1.7s-0.8-1.7-1.7-1.7h-100.1c-0.9,0-1.7,0.8-1.7,1.7
		S1081.8,1386,1082.7,1386z"/>
	<path class="st0" d="M1170.9,1426v-15.6c0-0.9-0.8-1.7-1.7-1.7h-73c-0.9,0-1.7,0.8-1.7,1.7v15.6c0,0.9,0.8,1.7,1.7,1.7h73
		C1170.2,1427.7,1170.9,1426.9,1170.9,1426z M1167.5,1424.3h-69.6v-12.3h69.6V1424.3z"/>
	<path class="st0" d="M1145.6,1236.8H1119c-0.9,0-1.7,0.8-1.7,1.7v26.5c0,0.9,0.8,1.7,1.7,1.7h26.5c0.9,0,1.7-0.8,1.7-1.7v-26.5
		C1147.2,1237.5,1146.5,1236.8,1145.6,1236.8z M1143.9,1263.3h-23.1v-23.1h23.1V1263.3z"/>
	<rect x="296.9" y="1330.9" class="st0" width="19.3" height="3.4"/>
	<path class="st0" d="M519.3,1379.4c7.2,0,13-5.8,13-13v-59h-3.4v59c0,5.3-4.3,9.6-9.6,9.6H159.6c-5.3,0-9.6-4.3-9.6-9.6v-32.1h17.2
		v6.4c0,0.5,0.2,0.9,0.5,1.2l18.4,17.4c0.3,0.3,0.7,0.5,1.2,0.5h304.3c0.4,0,0.8-0.2,1.2-0.5l18.4-17.4c0.3-0.3,0.5-0.8,0.5-1.2
		v-109.6c0-0.5-0.2-0.9-0.5-1.2l-18.4-17.4c-0.3-0.3-0.7-0.5-1.2-0.5h-4.4v-16.3h32.1c5.3,0,9.6,4.3,9.6,9.6v59h3.4v-59
		c0-7.2-5.8-13-13-13h-32.1v-88.5c0-7.2-5.8-13-13-13h-36.2v3.4h36.2c5.3,0,9.6,4.3,9.6,9.6v161.1c0,5.3-4.3,9.6-9.6,9.6H148.3v3.4
		h258.5v16.9l-17.4,16.4H86.5l-17.4-16.4v-108.1l17.4-16.4h15v94.6c0,7.2,5.8,13,13,13h12.5l-7.9,7.9c-1.3,1.3-1.3,3.5,0,4.8
		c0.7,0.7,1.5,1,2.4,1s1.7-0.3,2.4-1l6.8-6.8l5.1-5.1c0.2-0.2,0.4-0.5,0.5-0.7c0.6-1,0.6-2.3,0-3.4c-0.1-0.2-0.3-0.5-0.5-0.7
		l-5.1-5.1l-6.8-6.8c-1.3-1.3-3.5-1.3-4.8,0c-1.3,1.3-1.3,3.5,0,4.8l7.9,7.9h-12.5c-5.3,0-9.6-4.3-9.6-9.6v-161.1
		c0-5.3,4.3-9.6,9.6-9.6h280.4v-3.4h-58.6v-20.5c0-0.9-0.8-1.7-1.7-1.7h-10.7v-20.5c0-0.9-0.8-1.7-1.7-1.7h-25.5V972h154.8v-3.4
		H295.1l-13.5-0.2c-0.9-0.1-1.7,0.7-1.7,1.7c0,0.9,0.7,1.7,1.7,1.7l11.9,0.2v74.5h-25.5c-0.9,0-1.7,0.8-1.7,1.7v20.5h-10.7
		c-0.9,0-1.7,0.8-1.7,1.7v20.5H114.5c-7.2,0-13,5.8-13,13v43.4H58.1c-7.2,0-13,5.8-13,13v161.1c0,7.2,5.8,13,13,13h88.5v32.1
		c0,7.2,5.8,13,13,13H519.3z M269.6,1049.8h51v18.8h-51V1049.8z M257.1,1072h75.8v18.8h-75.8V1072z M454.5,1285.9
		c0,12.3-10,22.2-22.2,22.2c-0.5,0-1,0-1.5,0v-30.1H453C454,1280.4,454.5,1283.1,454.5,1285.9z M58.1,1330.9c-5.3,0-9.6-4.3-9.6-9.6
		v-161.1c0-5.3,4.3-9.6,9.6-9.6h43.4v16.3H85.8c-0.4,0-0.8,0.2-1.2,0.5l-18.4,17.4c-0.3,0.3-0.5,0.8-0.5,1.2v109.6
		c0,0.5,0.2,0.9,0.5,1.2l18.4,17.4c0.3,0.3,0.7,0.5,1.2,0.5h304.3c0.4,0,0.8-0.2,1.2-0.5l18.4-17.4c0.3-0.3,0.5-0.8,0.5-1.2v-17.7
		h17.2v43.4c0,5.3-4.3,9.6-9.6,9.6h-89.7v3.4h89.7c7.2,0,13-5.8,13-13v-9.9c0.5,0,1,0,1.5,0c14.1,0,25.6-11.5,25.6-25.6
		c0-2.7-0.4-5.4-1.3-8h17.6c7.2,0,13-5.8,13-13v-49.5h3.7l17.4,16.4v108.1l-17.4,16.4H188l-17.4-16.4v-5.7H285v-3.4H58.1z"/>
	<rect x="528.9" y="1276.2" class="st0" width="3.4" height="19.3"/>
	<rect x="406.8" y="1090.8" class="st0" width="19.3" height="3.4"/>
	<path class="st0" d="M141.1,1111l-18.4,17.4c-0.3,0.3-0.5,0.8-0.5,1.2v109.6c0,0.5,0.2,0.9,0.5,1.2l18.4,17.4
		c0.3,0.3,0.7,0.5,1.2,0.5h304.3c0.4,0,0.8-0.2,1.2-0.5l18.4-17.4c0.3-0.3,0.5-0.8,0.5-1.2v-109.6c0-0.5-0.2-0.9-0.5-1.2l-18.4-17.4
		c-0.3-0.3-0.7-0.5-1.2-0.5H142.2C141.8,1110.5,141.4,1110.7,141.1,1111z M445.8,1113.9l17.4,16.4v108.1l-17.4,16.4H142.9
		l-17.4-16.4v-108.1l17.4-16.4H445.8z"/>
	<path class="st0" d="M285.3,1222.7h7.3v9c0,0.9,0.8,1.7,1.7,1.7s1.7-0.8,1.7-1.7v-9h7.3c6.1,0,11-5,11-11v-17.9c0-6.1-5-11-11-11
		H296v-33.2h7.3c4.2,0,7.7,3.4,7.7,7.7v4.7c0,0.9,0.8,1.7,1.7,1.7s1.7-0.8,1.7-1.7v-4.7c0-6.1-5-11-11-11H296v-9
		c0-0.9-0.8-1.7-1.7-1.7s-1.7,0.8-1.7,1.7v9h-7.3c-6.1,0-11,5-11,11v17.9c0,6.1,5,11,11,11h7.3v33.2h-7.3c-4.2,0-7.7-3.4-7.7-7.7
		v-5.2c0-0.9-0.8-1.7-1.7-1.7c-0.9,0-1.7,0.8-1.7,1.7v5.2C274.3,1217.7,279.3,1222.7,285.3,1222.7z M285.3,1182.7
		c-4.2,0-7.7-3.4-7.7-7.7v-17.9c0-4.2,3.4-7.7,7.7-7.7h7.3v33.2H285.3z M296,1186.1h7.3c4.2,0,7.7,3.4,7.7,7.7v17.9
		c0,4.2-3.4,7.7-7.7,7.7H296V1186.1z"/>
	<path class="st0" d="M201.5,1210c14.1,0,25.6-11.5,25.6-25.6c0-14.1-11.5-25.6-25.6-25.6s-25.6,11.5-25.6,25.6
		C175.9,1198.5,187.4,1210,201.5,1210z M201.5,1162.1c12.3,0,22.2,10,22.2,22.2c0,12.3-10,22.2-22.2,22.2c-12.3,0-22.2-10-22.2-22.2
		C179.3,1172.1,189.3,1162.1,201.5,1162.1z"/>
	<path class="st0" d="M387.2,1210c14.1,0,25.6-11.5,25.6-25.6c0-14.1-11.5-25.6-25.6-25.6c-14.1,0-25.6,11.5-25.6,25.6
		C361.6,1198.5,373,1210,387.2,1210z M387.2,1162.1c12.3,0,22.2,10,22.2,22.2c0,12.3-10,22.2-22.2,22.2s-22.2-10-22.2-22.2
		C364.9,1172.1,374.9,1162.1,387.2,1162.1z"/>
	<path class="st0" d="M339.3,735.6c32.5,0,59-26.5,59-59s-26.5-59-59-59s-59,26.5-59,59S306.7,735.6,339.3,735.6z M339.3,621
		c30.7,0,55.6,25,55.6,55.6c0,30.7-25,55.6-55.6,55.6s-55.6-25-55.6-55.6C283.6,645.9,308.6,621,339.3,621z"/>
	<path class="st0" d="M339.3,721.7c24.8,0,45.1-20.2,45.1-45.1s-20.2-45.1-45.1-45.1c-24.8,0-45.1,20.2-45.1,45.1
		S314.4,721.7,339.3,721.7z M339.3,634.9c23,0,41.7,18.7,41.7,41.7c0,23-18.7,41.7-41.7,41.7c-23,0-41.7-18.7-41.7-41.7
		C297.6,653.6,316.3,634.9,339.3,634.9z"/>
	<path class="st0" d="M333.9,700.4h3.7v4.8c0,0.9,0.8,1.7,1.7,1.7c0.9,0,1.7-0.8,1.7-1.7v-4.8h3.7c4.1,0,7.3-3.3,7.3-7.3v-10.8
		c0-4.1-3.3-7.3-7.3-7.3H341v-18.8h3.7c2.2,0,4,1.8,4,4v2.8c0,0.9,0.8,1.7,1.7,1.7c0.9,0,1.7-0.8,1.7-1.7v-2.8
		c0-4.1-3.3-7.3-7.3-7.3H341V648c0-0.9-0.8-1.7-1.7-1.7c-0.9,0-1.7,0.8-1.7,1.7v4.8h-3.7c-4.1,0-7.3,3.3-7.3,7.3v10.8
		c0,4.1,3.3,7.3,7.3,7.3h3.7v18.8h-3.7c-2.2,0-4-1.8-4-4V690c0-0.9-0.8-1.7-1.7-1.7c-0.9,0-1.7,0.8-1.7,1.7v3.1
		C326.5,697.1,329.8,700.4,333.9,700.4z M333.9,674.9c-2.2,0-4-1.8-4-4v-10.8c0-2.2,1.8-4,4-4h3.7v18.8H333.9z M341,678.3h3.7
		c2.2,0,4,1.8,4,4v10.8c0,2.2-1.8,4-4,4H341V678.3z"/>
	<path class="st0" d="M339.3,871c32.5,0,59-26.5,59-59c0-32.5-26.5-59-59-59s-59,26.5-59,59C280.3,844.5,306.7,871,339.3,871z
		 M339.3,756.3c30.7,0,55.6,25,55.6,55.6s-25,55.6-55.6,55.6s-55.6-25-55.6-55.6S308.6,756.3,339.3,756.3z"/>
	<path class="st0" d="M339.3,857c24.8,0,45.1-20.2,45.1-45s-20.2-45.1-45.1-45.1c-24.8,0-45.1,20.2-45.1,45.1S314.4,857,339.3,857z
		 M339.3,770.3c23,0,41.7,18.7,41.7,41.7s-18.7,41.7-41.7,41.7c-23,0-41.7-18.7-41.7-41.7S316.3,770.3,339.3,770.3z"/>
	<path class="st0" d="M333.9,835.8h3.7v4.8c0,0.9,0.8,1.7,1.7,1.7c0.9,0,1.7-0.8,1.7-1.7v-4.8h3.7c4.1,0,7.3-3.3,7.3-7.3v-10.8
		c0-4.1-3.3-7.3-7.3-7.3H341v-18.8h3.7c2.2,0,4,1.8,4,4v2.8c0,0.9,0.8,1.7,1.7,1.7c0.9,0,1.7-0.8,1.7-1.7v-2.8
		c0-4.1-3.3-7.3-7.3-7.3H341v-4.8c0-0.9-0.8-1.7-1.7-1.7c-0.9,0-1.7,0.8-1.7,1.7v4.8h-3.7c-4.1,0-7.3,3.3-7.3,7.3v10.8
		c0,4.1,3.3,7.3,7.3,7.3h3.7v18.8h-3.7c-2.2,0-4-1.8-4-4v-3.1c0-0.9-0.8-1.7-1.7-1.7c-0.9,0-1.7,0.8-1.7,1.7v3.1
		C326.5,832.5,329.8,835.8,333.9,835.8z M333.9,810.3c-2.2,0-4-1.8-4-4v-10.8c0-2.2,1.8-4,4-4h3.7v18.8H333.9z M341,813.6h3.7
		c2.2,0,4,1.8,4,4v10.8c0,2.2-1.8,4-4,4H341V813.6z"/>
	<path class="st0" d="M546.7,624.4h-91.3c-0.9,0-1.7,0.8-1.7,1.7c0,0.9,0.8,1.7,1.7,1.7h91.3c0.9,0,1.7-0.8,1.7-1.7
		C548.4,625.2,547.7,624.4,546.7,624.4z"/>
	<path class="st0" d="M546.7,650.2h-91.3c-0.9,0-1.7,0.8-1.7,1.7c0,0.9,0.8,1.7,1.7,1.7h91.3c0.9,0,1.7-0.8,1.7-1.7
		C548.4,651,547.7,650.2,546.7,650.2z"/>
	<path class="st0" d="M548.4,677.7c0-0.9-0.8-1.7-1.7-1.7h-91.3c-0.9,0-1.7,0.8-1.7,1.7s0.8,1.7,1.7,1.7h91.3
		C547.7,679.4,548.4,678.6,548.4,677.7z"/>
	<rect x="505.3" y="688.9" class="st0" width="19.3" height="3.4"/>
	<path class="st0" d="M574,701.8h-91.3c-0.9,0-1.7,0.8-1.7,1.7c0,0.9,0.8,1.7,1.7,1.7H574c0.9,0,1.7-0.8,1.7-1.7
		C575.7,702.5,574.9,701.8,574,701.8z"/>
	<path class="st0" d="M574,727.6h-91.3c-0.9,0-1.7,0.8-1.7,1.7c0,0.9,0.8,1.7,1.7,1.7H574c0.9,0,1.7-0.8,1.7-1.7
		C575.7,728.3,574.9,727.6,574,727.6z"/>
	<path class="st0" d="M574,753.3h-91.3c-0.9,0-1.7,0.8-1.7,1.7s0.8,1.7,1.7,1.7H574c0.9,0,1.7-0.8,1.7-1.7S574.9,753.3,574,753.3z"
		/>
	<path class="st0" d="M575.7,780.8c0-0.9-0.8-1.7-1.7-1.7h-91.3c-0.9,0-1.7,0.8-1.7,1.7c0,0.9,0.8,1.7,1.7,1.7H574
		C574.9,782.5,575.7,781.7,575.7,780.8z"/>
	<rect x="503.9" y="792" class="st0" width="19.3" height="3.4"/>
	<path class="st0" d="M546.7,804.9h-91.3c-0.9,0-1.7,0.8-1.7,1.7c0,0.9,0.8,1.7,1.7,1.7h91.3c0.9,0,1.7-0.8,1.7-1.7
		C548.4,805.7,547.7,804.9,546.7,804.9z"/>
	<path class="st0" d="M546.7,830.7h-91.3c-0.9,0-1.7,0.8-1.7,1.7c0,0.9,0.8,1.7,1.7,1.7h91.3c0.9,0,1.7-0.8,1.7-1.7
		C548.4,831.4,547.7,830.7,546.7,830.7z"/>
	<path class="st0" d="M449.4,872.7h103.4c4,0,7.3-3.3,7.3-7.3v-14.5c0-2.3-1-4.3-2.7-5.6c1.6-1.3,2.7-3.4,2.7-5.6v-14.5
		c0-2.3-1-4.3-2.7-5.6c1.6-1.3,2.7-3.4,2.7-5.6v-14.5c0-1.5-0.4-2.8-1.2-3.9H580c4,0,7.3-3.3,7.3-7.3v-14.5c0-2.3-1-4.3-2.7-5.6
		c1.6-1.3,2.7-3.4,2.7-5.6v-14.5c0-2.3-1-4.3-2.7-5.6c1.6-1.3,2.7-3.4,2.7-5.6V722c0-2.3-1-4.3-2.7-5.6c1.6-1.3,2.7-3.4,2.7-5.6
		v-14.5c0-4-3.3-7.3-7.3-7.3h-21.1c0.7-1.1,1.2-2.5,1.2-3.9v-14.5c0-2.3-1-4.3-2.7-5.6c1.6-1.3,2.7-3.4,2.7-5.6v-14.5
		c0-2.3-1-4.3-2.7-5.6c1.6-1.3,2.7-3.4,2.7-5.6v-14.5c0-4-3.3-7.3-7.3-7.3H449.4c-4,0-7.3,3.3-7.3,7.3v14.5c0,2.3,1,4.3,2.7,5.6
		c-1.6,1.3-2.7,3.4-2.7,5.6v14.5c0,2.3,1,4.3,2.7,5.6c-1.6,1.3-2.7,3.4-2.7,5.6v14.5c0,4,3.3,7.3,7.3,7.3h21.1
		c-0.7,1.1-1.2,2.5-1.2,3.9v14.5c0,2.3,1,4.3,2.7,5.6c-1.6,1.3-2.7,3.4-2.7,5.6v14.5c0,2.3,1,4.3,2.7,5.6c-1.6,1.3-2.7,3.4-2.7,5.6
		v14.5c0,2.3,1,4.3,2.7,5.6c-1.6,1.3-2.7,3.4-2.7,5.6v14.5c0,1.5,0.4,2.8,1.2,3.9h-21.1c-4,0-7.3,3.3-7.3,7.3v14.5
		c0,2.3,1,4.3,2.7,5.6c-1.6,1.3-2.7,3.4-2.7,5.6v14.5c0,2.3,1,4.3,2.7,5.6c-1.6,1.3-2.7,3.4-2.7,5.6v14.5
		C442.1,869.5,445.4,872.7,449.4,872.7z M445.4,633.4v-14.5c0-2.2,1.8-3.9,3.9-3.9h103.4c2.2,0,3.9,1.8,3.9,3.9v14.5
		c0,2.2-1.8,3.9-3.9,3.9H449.4C447.2,637.3,445.4,635.6,445.4,633.4z M445.4,659.2v-14.5c0-2.2,1.8-3.9,3.9-3.9h103.4
		c2.2,0,3.9,1.8,3.9,3.9v14.5c0,2.2-1.8,3.9-3.9,3.9H449.4C447.2,663.1,445.4,661.3,445.4,659.2z M472.7,710.7v-14.5
		c0-2.2,1.8-3.9,3.9-3.9h16.8v-3.4h-44c-2.2,0-3.9-1.8-3.9-3.9v-14.5c0-2.2,1.8-3.9,3.9-3.9h103.4c2.2,0,3.9,1.8,3.9,3.9v14.5
		c0,2.2-1.8,3.9-3.9,3.9h-16.2v3.4H580c2.2,0,3.9,1.8,3.9,3.9v14.5c0,2.2-1.8,3.9-3.9,3.9H476.6
		C474.5,714.7,472.7,712.9,472.7,710.7z M472.7,736.5V722c0-2.2,1.8-3.9,3.9-3.9H580c2.2,0,3.9,1.8,3.9,3.9v14.5
		c0,2.2-1.8,3.9-3.9,3.9H476.6C474.5,740.5,472.7,738.7,472.7,736.5z M472.7,762.3v-14.5c0-2.2,1.8-3.9,3.9-3.9H580
		c2.2,0,3.9,1.8,3.9,3.9v14.5c0,2.2-1.8,3.9-3.9,3.9H476.6C474.5,766.2,472.7,764.5,472.7,762.3z M445.4,813.8v-14.5
		c0-2.2,1.8-3.9,3.9-3.9H492V792h-15.4c-2.2,0-3.9-1.8-3.9-3.9v-14.5c0-2.2,1.8-3.9,3.9-3.9H580c2.2,0,3.9,1.8,3.9,3.9v14.5
		c0,2.2-1.8,3.9-3.9,3.9h-44.8v3.4h17.6c2.2,0,3.9,1.8,3.9,3.9v14.5c0,2.2-1.8,3.9-3.9,3.9H449.4C447.2,817.8,445.4,816,445.4,813.8
		z M445.4,839.6v-14.5c0-2.2,1.8-3.9,3.9-3.9h103.4c2.2,0,3.9,1.8,3.9,3.9v14.5c0,2.2-1.8,3.9-3.9,3.9H449.4
		C447.2,843.6,445.4,841.8,445.4,839.6z M552.8,847c2.2,0,3.9,1.8,3.9,3.9v14.5c0,2.2-1.8,3.9-3.9,3.9H449.4c-2.2,0-3.9-1.8-3.9-3.9
		v-14.5c0-2.2,1.8-3.9,3.9-3.9H552.8z"/>
	<path class="st0" d="M455.4,859.9h91.3c0.9,0,1.7-0.8,1.7-1.7c0-0.9-0.8-1.7-1.7-1.7h-91.3c-0.9,0-1.7,0.8-1.7,1.7
		C453.7,859.1,454.5,859.9,455.4,859.9z"/>
	<path class="st0" d="M722.5,806.6h-91.3c-0.9,0-1.7,0.8-1.7,1.7c0,0.9,0.8,1.7,1.7,1.7h91.3c0.9,0,1.7-0.8,1.7-1.7
		C724.2,807.4,723.5,806.6,722.5,806.6z"/>
	<path class="st0" d="M724.2,834.1c0-0.9-0.8-1.7-1.7-1.7h-91.3c-0.9,0-1.7,0.8-1.7,1.7c0,0.9,0.8,1.7,1.7,1.7h91.3
		C723.5,835.8,724.2,835,724.2,834.1z"/>
	<path class="st0" d="M625.2,874.5h103.4c4,0,7.3-3.3,7.3-7.3v-14.5c0-2.3-1-4.3-2.7-5.6c1.6-1.3,2.7-3.4,2.7-5.6v-14.5
		c0-2.3-1-4.3-2.7-5.6c1.6-1.3,2.7-3.4,2.7-5.6v-14.5c0-2.3-1-4.3-2.7-5.6c1.6-1.3,2.7-3.4,2.7-5.6v-14.5c0-2.3-1-4.3-2.7-5.6
		c1.6-1.3,2.7-3.4,2.7-5.6v-14.5c0-2.3-1-4.3-2.7-5.6c1.6-1.3,2.7-3.4,2.7-5.6v-14.5c0-4-3.3-7.3-7.3-7.3h-10.4v-20.5
		c0-0.9-0.8-1.7-1.7-1.7h-10.7v-20.5c0-0.9-0.8-1.7-1.7-1.7h-25.5v-58.2h71.7v-3.4h-71.7v-5.9c0-0.9-0.8-1.7-1.7-1.7
		c-0.9,0-1.7,0.8-1.7,1.7v6.8c0,0.1,0,0.3,0.1,0.4c0,0.1-0.1,0.3-0.1,0.4V672h-25.5c-0.9,0-1.7,0.8-1.7,1.7v20.5h-10.7
		c-0.9,0-1.7,0.8-1.7,1.7v20.5h-10.4c-4,0-7.3,3.3-7.3,7.3v14.5c0,2.3,1,4.3,2.7,5.6c-1.6,1.3-2.7,3.4-2.7,5.6V764
		c0,2.3,1,4.3,2.7,5.6c-1.6,1.3-2.7,3.4-2.7,5.6v14.5c0,2.3,1,4.3,2.7,5.6c-1.6,1.3-2.7,3.4-2.7,5.6v14.5c0,2.3,1,4.3,2.7,5.6
		c-1.6,1.3-2.7,3.4-2.7,5.6v14.5c0,2.3,1,4.3,2.7,5.6c-1.6,1.3-2.7,3.4-2.7,5.6v14.5C617.8,871.2,621.1,874.5,625.2,874.5z
		 M651.4,675.4h51v18.8h-51V675.4z M638.9,697.6h75.8v18.8h-75.8V697.6z M621.2,738.2v-14.5c0-2.2,1.8-3.9,3.9-3.9h103.4
		c2.2,0,3.9,1.8,3.9,3.9v14.5c0,2.2-1.8,3.9-3.9,3.9H625.2C623,742.2,621.2,740.4,621.2,738.2z M621.2,789.8v-14.5
		c0-2.2,1.8-3.9,3.9-3.9h48.5v-3.4h-48.5c-2.2,0-3.9-1.8-3.9-3.9v-14.5c0-2.2,1.8-3.9,3.9-3.9h103.4c2.2,0,3.9,1.8,3.9,3.9V764
		c0,2.2-1.8,3.9-3.9,3.9h-11.7v3.4h11.7c2.2,0,3.9,1.8,3.9,3.9v14.5c0,2.2-1.8,3.9-3.9,3.9H625.2C623,793.7,621.2,792,621.2,789.8z
		 M621.2,815.6v-14.5c0-2.2,1.8-3.9,3.9-3.9h103.4c2.2,0,3.9,1.8,3.9,3.9v14.5c0,2.2-1.8,3.9-3.9,3.9H625.2
		C623,819.5,621.2,817.7,621.2,815.6z M625.2,845.3c-2.2,0-3.9-1.8-3.9-3.9v-14.5c0-2.2,1.8-3.9,3.9-3.9h103.4
		c2.2,0,3.9,1.8,3.9,3.9v14.5c0,2.2-1.8,3.9-3.9,3.9h-54.2v3.4h54.2c2.2,0,3.9,1.8,3.9,3.9v14.5c0,2.2-1.8,3.9-3.9,3.9H625.2
		c-2.2,0-3.9-1.8-3.9-3.9v-14.5c0-2.2,1.8-3.9,3.9-3.9h6v-3.4H625.2z"/>
	<rect x="643.1" y="845.3" class="st0" width="19.3" height="3.4"/>
	<path class="st0" d="M629.5,859.9c0,0.9,0.8,1.7,1.7,1.7h91.3c0.9,0,1.7-0.8,1.7-1.7c0-0.9-0.8-1.7-1.7-1.7h-91.3
		C630.2,858.2,629.5,858.9,629.5,859.9z"/>
	<path class="st0" d="M722.5,729.3h-91.3c-0.9,0-1.7,0.8-1.7,1.7c0,0.9,0.8,1.7,1.7,1.7h91.3c0.9,0,1.7-0.8,1.7-1.7
		C724.2,730,723.5,729.3,722.5,729.3z"/>
	<path class="st0" d="M724.2,756.7c0-0.9-0.8-1.7-1.7-1.7h-91.3c-0.9,0-1.7,0.8-1.7,1.7c0,0.9,0.8,1.7,1.7,1.7h91.3
		C723.5,758.4,724.2,757.7,724.2,756.7z"/>
	<rect x="685.6" y="767.9" class="st0" width="19.3" height="3.4"/>
	<path class="st0" d="M722.5,780.8h-91.3c-0.9,0-1.7,0.8-1.7,1.7c0,0.9,0.8,1.7,1.7,1.7h91.3c0.9,0,1.7-0.8,1.7-1.7
		C724.2,781.6,723.5,780.8,722.5,780.8z"/>
	<path class="st0" d="M1349,926.5h-228.3V676.4h-3.4v251.8c0,0.9,0.8,1.7,1.7,1.7h230V926.5z"/>
	<rect x="1117.3" y="645.2" class="st0" width="3.4" height="19.3"/>
	<rect x="1360.9" y="926.5" class="st0" width="19.3" height="3.4"/>
	<rect x="1094.8" y="878.6" class="st0" width="3.4" height="19.3"/>
	<path class="st0" d="M1094.8,950.8c0,0.9,0.8,1.7,1.7,1.7H1349v-3.4h-250.9v-39.2h-3.4V950.8z"/>
	<rect x="1360.9" y="949.1" class="st0" width="19.3" height="3.4"/>
	<rect x="882.7" y="268.7" class="st0" width="19.3" height="3.4"/>
	<path class="st0" d="M873.2,349.5v204.5c0,0.9,0.8,1.7,1.7,1.7h29.4v-3.4h-27.7V350.8h357.6v28.6h3.4v-31.6c0-0.3-0.1-0.6-0.2-0.8
		l-42.1-74.8h23.8l42.3,75.5v204.7h-23.7V422.5h-3.4v129.8H925.6l7.9-7.9c1.3-1.3,1.3-3.5,0-4.8c-1.3-1.3-3.5-1.3-4.8,0l-6.8,6.8
		l-5.1,5.1c-0.2,0.2-0.4,0.5-0.5,0.7c-0.6,1-0.6,2.3,0,3.4c0.1,0.2,0.3,0.5,0.5,0.7l5.1,5.1l6.8,6.8c0.7,0.7,1.5,1,2.4,1
		s1.7-0.3,2.4-1c1.3-1.3,1.3-3.5,0-4.8l-7.9-7.9h146.6v417.6c0,0.9,0.8,1.7,1.7,1.7h376.4c0.9,0,1.7-0.8,1.7-1.7v-20.9h20.9
		c0.9,0,1.7-0.8,1.7-1.7v-20.9h20.9c0.9,0,1.7-0.8,1.7-1.7V805.3l7.9,7.9c0.7,0.7,1.5,1,2.4,1c0.9,0,1.7-0.3,2.4-1
		c1.3-1.3,1.3-3.5,0-4.8l-7.9-7.9l-4-4c-0.2-0.2-0.5-0.4-0.7-0.5c-1-0.6-2.3-0.6-3.4,0c-0.2,0.1-0.5,0.3-0.7,0.5l-4,4l-7.9,7.9
		c-1.3,1.3-1.3,3.5,0,4.8c1.3,1.3,3.5,1.3,4.8,0l7.9-7.9v121.2h-101.6v3.4h79v19.2h-79v3.4h56.4v19.2h-373V555.8h19.2v310.9h3.4
		V555.8h19.2v77.5h3.4v-77.5h142.2c0.9,0,1.7-0.8,1.7-1.7v-23.9h135.3c0.9,0,1.7-0.8,1.7-1.7c0-0.9-0.8-1.7-1.7-1.7h-135.3v-22.8
		h177.8c0.9,0,1.7-0.8,1.7-1.7s-0.8-1.7-1.7-1.7h-177.8v-46.2h229.1v328.3h3.4V635h20.5c0.9,0,1.7-0.8,1.7-1.7v-10.7h20.5
		c0.9,0,1.7-0.8,1.7-1.7v-25.5h89.1v34.2h3.4v-246c0-0.9-0.8-1.7-1.7-1.7s-1.7,0.8-1.7,1.7v11.8h-88.4v3.4h88.4V592h-89.1v-25.5
		c0-0.9-0.8-1.7-1.7-1.7h-20.5v-10.7c0-0.9-0.8-1.7-1.7-1.7h-20.5v-99.5c0-0.9-0.8-1.7-1.7-1.7h-230.8v-12.7h20
		c0.9,0,1.7-0.8,1.7-1.7V426h20.5c0.9,0,1.7-0.8,1.7-1.7v-25.5h212.2l-7.9,7.9c-1.3,1.3-1.3,3.5,0,4.8c0.7,0.7,1.5,1,2.4,1
		c0.9,0,1.7-0.3,2.4-1l6.8-6.8l5.1-5.1c0.2-0.2,0.4-0.4,0.5-0.7c0.3-0.5,0.5-1.1,0.5-1.7c0-0.6-0.2-1.2-0.5-1.7
		c-0.1-0.3-0.3-0.5-0.5-0.7l-5.1-5.1l-6.8-6.8c-1.3-1.3-3.5-1.3-4.8,0c-1.3,1.3-1.3,3.5,0,4.8l7.9,7.9h-212.2V370
		c0-0.9-0.8-1.7-1.7-1.7h-20.5v-10.7c0-0.9-0.8-1.7-1.7-1.7h-20v-8.6c0-0.3-0.1-0.6-0.2-0.8l-43-76.8c-0.3-0.5-0.9-0.9-1.5-0.9h-306
		v3.4h277.4l42.3,75.2H875.9L833,272.1h37.8v-3.4h-40.7c-0.6,0-1.2,0.3-1.5,0.8s-0.3,1.2,0,1.7L873.2,349.5z M1538.1,568.2v51h-18.8
		v-51H1538.1z M1515.9,555.8v75.8h-18.8v-75.8H1515.9z M1305.2,371.7v51h-18.8v-51H1305.2z M1283,359.3v75.8h-18.3v-75.8H1283z"/>
	<rect x="1234.2" y="391.3" class="st0" width="3.4" height="19.3"/>
	<path class="st0" d="M904.6,405.8h52.9c0.9,0,1.7-0.8,1.7-1.7v-24.2c0-0.9-0.8-1.7-1.7-1.7h-52.9c-0.9,0-1.7,0.8-1.7,1.7v24.2
		C902.9,405.1,903.7,405.8,904.6,405.8z M906.3,381.6h49.6v20.8h-49.6V381.6z"/>
	<path class="st0" d="M976.1,405.8h52.9c0.9,0,1.7-0.8,1.7-1.7v-24.2c0-0.9-0.8-1.7-1.7-1.7h-52.9c-0.9,0-1.7,0.8-1.7,1.7v24.2
		C974.4,405.1,975.1,405.8,976.1,405.8z M977.8,381.6h49.6v20.8h-49.6V381.6z"/>
	<path class="st0" d="M1047.5,405.8h52.9c0.9,0,1.7-0.8,1.7-1.7v-24.2c0-0.9-0.8-1.7-1.7-1.7h-52.9c-0.9,0-1.7,0.8-1.7,1.7v24.2
		C1045.9,405.1,1046.6,405.8,1047.5,405.8z M1049.2,381.6h49.6v20.8h-49.6V381.6z"/>
	<path class="st0" d="M902.9,442.4c0,0.9,0.8,1.7,1.7,1.7h52.9c0.9,0,1.7-0.8,1.7-1.7v-24.2c0-0.9-0.8-1.7-1.7-1.7h-52.9
		c-0.9,0-1.7,0.8-1.7,1.7V442.4z M906.3,419.9h49.6v20.8h-49.6V419.9z"/>
	<path class="st0" d="M974.4,442.4c0,0.9,0.8,1.7,1.7,1.7h52.9c0.9,0,1.7-0.8,1.7-1.7v-24.2c0-0.9-0.8-1.7-1.7-1.7h-52.9
		c-0.9,0-1.7,0.8-1.7,1.7V442.4z M977.8,419.9h49.6v20.8h-49.6V419.9z"/>
	<path class="st0" d="M1045.9,442.4c0,0.9,0.8,1.7,1.7,1.7h52.9c0.9,0,1.7-0.8,1.7-1.7v-24.2c0-0.9-0.8-1.7-1.7-1.7h-52.9
		c-0.9,0-1.7,0.8-1.7,1.7V442.4z M1049.2,419.9h49.6v20.8h-49.6V419.9z"/>
	<path class="st0" d="M902.9,480.7c0,0.9,0.8,1.7,1.7,1.7h52.9c0.9,0,1.7-0.8,1.7-1.7v-24.2c0-0.9-0.8-1.7-1.7-1.7h-52.9
		c-0.9,0-1.7,0.8-1.7,1.7V480.7z M906.3,458.1h49.6V479h-49.6V458.1z"/>
	<path class="st0" d="M974.4,480.7c0,0.9,0.8,1.7,1.7,1.7h52.9c0.9,0,1.7-0.8,1.7-1.7v-24.2c0-0.9-0.8-1.7-1.7-1.7h-52.9
		c-0.9,0-1.7,0.8-1.7,1.7V480.7z M977.8,458.1h49.6V479h-49.6V458.1z"/>
	<path class="st0" d="M1045.9,480.7c0,0.9,0.8,1.7,1.7,1.7h52.9c0.9,0,1.7-0.8,1.7-1.7v-24.2c0-0.9-0.8-1.7-1.7-1.7h-52.9
		c-0.9,0-1.7,0.8-1.7,1.7V480.7z M1049.2,458.1h49.6V479h-49.6V458.1z"/>
	<path class="st0" d="M902.9,518.9c0,0.9,0.8,1.7,1.7,1.7h52.9c0.9,0,1.7-0.8,1.7-1.7v-24.2c0-0.9-0.8-1.7-1.7-1.7h-52.9
		c-0.9,0-1.7,0.8-1.7,1.7V518.9z M906.3,496.4h49.6v20.8h-49.6V496.4z"/>
	<path class="st0" d="M974.4,518.9c0,0.9,0.8,1.7,1.7,1.7h52.9c0.9,0,1.7-0.8,1.7-1.7v-24.2c0-0.9-0.8-1.7-1.7-1.7h-52.9
		c-0.9,0-1.7,0.8-1.7,1.7V518.9z M977.8,496.4h49.6v20.8h-49.6V496.4z"/>
	<path class="st0" d="M1045.9,518.9c0,0.9,0.8,1.7,1.7,1.7h52.9c0.9,0,1.7-0.8,1.7-1.7v-24.2c0-0.9-0.8-1.7-1.7-1.7h-52.9
		c-0.9,0-1.7,0.8-1.7,1.7V518.9z M1049.2,496.4h49.6v20.8h-49.6V496.4z"/>
	<path class="st0" d="M1119,405.8h91.4c0.9,0,1.7-0.8,1.7-1.7v-24.2c0-0.9-0.8-1.7-1.7-1.7H1119c-0.9,0-1.7,0.8-1.7,1.7v24.2
		C1117.3,405.1,1118.1,405.8,1119,405.8z M1120.7,381.6h88v20.8h-88V381.6z"/>
	<path class="st0" d="M1117.3,442.4c0,0.9,0.8,1.7,1.7,1.7h91.4c0.9,0,1.7-0.8,1.7-1.7v-24.2c0-0.9-0.8-1.7-1.7-1.7H1119
		c-0.9,0-1.7,0.8-1.7,1.7V442.4z M1120.7,419.9h88v20.8h-88V419.9z"/>
	<path class="st0" d="M1117.3,480.7c0,0.9,0.8,1.7,1.7,1.7h91.4c0.9,0,1.7-0.8,1.7-1.7v-24.2c0-0.9-0.8-1.7-1.7-1.7H1119
		c-0.9,0-1.7,0.8-1.7,1.7V480.7z M1120.7,458.1h88V479h-88V458.1z"/>
	<path class="st0" d="M1117.3,518.9c0,0.9,0.8,1.7,1.7,1.7h91.4c0.9,0,1.7-0.8,1.7-1.7v-24.2c0-0.9-0.8-1.7-1.7-1.7H1119
		c-0.9,0-1.7,0.8-1.7,1.7V518.9z M1120.7,496.4h88v20.8h-88V496.4z"/>
	<path class="st0" d="M1442.7,576.9h-270.9c-0.9,0-1.7,0.8-1.7,1.7c0,0.9,0.8,1.7,1.7,1.7h270.9c0.9,0,1.7-0.8,1.7-1.7
		C1444.4,577.6,1443.6,576.9,1442.7,576.9z"/>
	<path class="st0" d="M1171.6,608.7h115.9c0.9,0,1.7-0.8,1.7-1.7c0-0.9-0.8-1.7-1.7-1.7h-115.9c-0.9,0-1.7,0.8-1.7,1.7
		C1169.9,607.9,1170.6,608.7,1171.6,608.7z"/>
	<path class="st0" d="M1171.6,639h91.3c0.9,0,1.7-0.8,1.7-1.7c0-0.9-0.8-1.7-1.7-1.7h-91.3c-0.9,0-1.7,0.8-1.7,1.7
		C1169.9,638.2,1170.6,639,1171.6,639z"/>
	<path class="st0" d="M1171.6,669.3h115.9c0.9,0,1.7-0.8,1.7-1.7c0-0.9-0.8-1.7-1.7-1.7h-115.9c-0.9,0-1.7,0.8-1.7,1.7
		C1169.9,668.6,1170.6,669.3,1171.6,669.3z"/>
	<path class="st0" d="M1171.6,699.7h75.8c0.9,0,1.7-0.8,1.7-1.7c0-0.9-0.8-1.7-1.7-1.7h-75.8c-0.9,0-1.7,0.8-1.7,1.7
		C1169.9,698.9,1170.6,699.7,1171.6,699.7z"/>
	<path class="st0" d="M1171.6,730h134.1c0.9,0,1.7-0.8,1.7-1.7s-0.8-1.7-1.7-1.7h-134.1c-0.9,0-1.7,0.8-1.7,1.7
		S1170.6,730,1171.6,730z"/>
	<path class="st0" d="M1384.5,608.7h57.9c0.9,0,1.7-0.8,1.7-1.7c0-0.9-0.8-1.7-1.7-1.7h-57.9c-0.9,0-1.7,0.8-1.7,1.7
		C1382.8,607.9,1383.6,608.7,1384.5,608.7z"/>
	<path class="st0" d="M1384.5,639h57.9c0.9,0,1.7-0.8,1.7-1.7c0-0.9-0.8-1.7-1.7-1.7h-57.9c-0.9,0-1.7,0.8-1.7,1.7
		C1382.8,638.2,1383.6,639,1384.5,639z"/>
	<path class="st0" d="M1384.5,669.3h57.9c0.9,0,1.7-0.8,1.7-1.7c0-0.9-0.8-1.7-1.7-1.7h-57.9c-0.9,0-1.7,0.8-1.7,1.7
		C1382.8,668.6,1383.6,669.3,1384.5,669.3z"/>
	<path class="st0" d="M1384.5,699.7h57.9c0.9,0,1.7-0.8,1.7-1.7c0-0.9-0.8-1.7-1.7-1.7h-57.9c-0.9,0-1.7,0.8-1.7,1.7
		C1382.8,698.9,1383.6,699.7,1384.5,699.7z"/>
	<path class="st0" d="M1384.5,730h57.9c0.9,0,1.7-0.8,1.7-1.7s-0.8-1.7-1.7-1.7h-57.9c-0.9,0-1.7,0.8-1.7,1.7S1383.6,730,1384.5,730
		z"/>
	<path class="st0" d="M1171.8,757c-0.9,0-1.7,0.8-1.7,1.7c0,0.9,0.8,1.7,1.7,1.7h99.3c0.9,0,1.7-0.8,1.7-1.7c0-0.9-0.8-1.7-1.7-1.7
		H1171.8z"/>
	<path class="st0" d="M1271.1,817.7h-99.3c-0.9,0-1.7,0.8-1.7,1.7c0,0.9,0.8,1.7,1.7,1.7h99.3c0.9,0,1.7-0.8,1.7-1.7
		C1272.8,818.4,1272,817.7,1271.1,817.7z"/>
	<path class="st0" d="M1443.8,817.7h-85.4c-0.9,0-1.7,0.8-1.7,1.7c0,0.9,0.8,1.7,1.7,1.7h85.4c0.9,0,1.7-0.8,1.7-1.7
		C1445.4,818.4,1444.7,817.7,1443.8,817.7z"/>
	<path class="st0" d="M1444.2,789c0-0.9-0.8-1.7-1.7-1.7h-270.7c-0.9,0-1.7,0.8-1.7,1.7c0,0.9,0.8,1.7,1.7,1.7h270.7
		C1443.4,790.7,1444.2,789.9,1444.2,789z"/>
	<path class="st0" d="M1308.8,858.7c0-0.9-0.8-1.7-1.7-1.7h-135.3c-0.9,0-1.7,0.8-1.7,1.7c0,0.9,0.8,1.7,1.7,1.7h135.3
		C1308.1,860.4,1308.8,859.6,1308.8,858.7z"/>
	<path class="st0" d="M1171.9,878.3c-0.9,0-1.7,0.8-1.7,1.7s0.8,1.7,1.7,1.7h87.3c0.9,0,1.7-0.8,1.7-1.7s-0.8-1.7-1.7-1.7H1171.9z"
		/>
	<path class="st0" d="M1384.7,760.4h57.9c0.9,0,1.7-0.8,1.7-1.7c0-0.9-0.8-1.7-1.7-1.7h-57.9c-0.9,0-1.7,0.8-1.7,1.7
		C1383,759.6,1383.8,760.4,1384.7,760.4z"/>
	<path class="st0" d="M1445.4,880v-21.3c0-0.9-0.8-1.7-1.7-1.7h-73.2c-0.9,0-1.7,0.8-1.7,1.7V880c0,0.9,0.8,1.7,1.7,1.7h73.2
		C1444.7,881.7,1445.4,881,1445.4,880z M1442.1,878.3h-69.8v-17.9h69.8V878.3z"/>
	<path class="st0" d="M628.5,1060.6h3.4v-90.2c0-0.9-0.8-1.7-1.7-1.7h-94.1c-0.1-0.3-0.3-0.5-0.5-0.7L523.7,956
		c-1.3-1.3-3.5-1.3-4.8,0c-1.3,1.3-1.3,3.5,0,4.8l7.9,7.9h-57.6v3.4h57.6l-7.9,7.9c-1.3,1.3-1.3,3.5,0,4.8c0.7,0.7,1.5,1,2.4,1
		s1.7-0.3,2.4-1l11.9-11.9c0.2-0.2,0.4-0.4,0.5-0.7h92.4V1060.6z"/>
	<path class="st0" d="M967.6,1040.7c0-0.9-0.8-1.7-1.7-1.7h-10.7v-20.5c0-0.9-0.8-1.7-1.7-1.7H928V902.3c0-0.9-0.8-1.7-1.7-1.7
		c-0.9,0-1.7,0.8-1.7,1.7v11.8h-95.4v-197h-3.4v198.6c0,0.9,0.8,1.7,1.7,1.7h97.1v99.3h-25.5c-0.9,0-1.7,0.8-1.7,1.7v20.5h-10.7
		c-0.9,0-1.7,0.8-1.7,1.7v20.5H780.4c-7.2,0-13,5.8-13,13v73.6h3.4v-73.6c0-5.3,4.3-9.6,9.6-9.6h432.2v-3.4H967.6V1040.7z
		 M900.8,1020.2h51v18.8h-51V1020.2z M888.4,1061.2v-18.8h75.8v18.8H888.4z"/>
	<path class="st0" d="M1541.5,1194.3v-25.5h89.1v11.8c0,0.9,0.8,1.7,1.7,1.7s1.7-0.8,1.7-1.7v-174.2h-3.4v159h-89.1V1140
		c0-0.9-0.8-1.7-1.7-1.7h-20.5v-10.7c0-0.9-0.8-1.7-1.7-1.7h-20.5v-51.7c0-7.2-5.8-13-13-13H1234l7.9-7.9c1.3-1.3,1.3-3.5,0-4.8
		c-1.3-1.3-3.5-1.3-4.8,0l-6.8,6.8l-5.1,5.1c-0.2,0.2-0.4,0.5-0.5,0.7c-0.6,1-0.6,2.3,0,3.4c0.1,0.2,0.3,0.5,0.5,0.7l5.1,5.1
		l6.8,6.8c0.7,0.7,1.5,1,2.4,1s1.7-0.3,2.4-1c1.3-1.3,1.3-3.5,0-4.8l-7.9-7.9h250.1c5.3,0,9.6,4.3,9.6,9.6V1536h-37.2v-149.9h-3.4
		V1536H811.4v-422.4c0-5.3,4.3-9.6,9.6-9.6h189.4v-3.4H821c-7.2,0-13,5.8-13,13V1536h-37.2v-366.9l7.9,7.9c0.7,0.7,1.5,1,2.4,1
		s1.7-0.3,2.4-1c1.3-1.3,1.3-3.5,0-4.8l-6.8-6.8l-5.1-5.1c-0.2-0.2-0.5-0.4-0.7-0.5c-1-0.6-2.3-0.6-3.4,0c-0.2,0.1-0.5,0.3-0.7,0.5
		l-5.1,5.1l-6.8,6.8c-1.3,1.3-1.3,3.5,0,4.8c1.3,1.3,3.5,1.3,4.8,0l7.9-7.9v69.6H747c-0.9,0-1.7,0.8-1.7,1.7v10.7h-20.5
		c-0.9,0-1.7,0.8-1.7,1.7v25.5h-91.2v-205.7h-3.4v221c0,0.9,0.8,1.7,1.7,1.7c0.9,0,1.7-0.8,1.7-1.7v-11.8h91.2v25.5
		c0,0.9,0.8,1.7,1.7,1.7h20.5v10.7c0,0.9,0.8,1.7,1.7,1.7h20.5V1536h-71.1v3.4h600.9c-2.6,2.4-4.3,5.8-4.3,9.6v22.6
		c0,3.8,1.7,7.2,4.3,9.6h-84.9v3.4h271.8c7.2,0,13-5.8,13-13v-86.1h11.8c0.9,0,1.7-0.8,1.7-1.7s-0.8-1.7-1.7-1.7h-11.8v-273.6h20.5
		c0.9,0,1.7-0.8,1.7-1.7V1196h20.5C1540.7,1196,1541.5,1195.3,1541.5,1194.3z M726.5,1305.4v-51h18.8v51H726.5z M748.6,1317.8V1242
		h18.8v75.8H748.6z M1493.7,1571.5c0,5.3-4.3,9.6-9.6,9.6H1306c-5.3,0-9.6-4.3-9.6-9.6v-22.6c0-5.3,4.3-9.6,9.6-9.6h187.8V1571.5z
		 M1515.9,1205.1h-18.8v-75.8h18.8V1205.1z M1538.1,1192.6h-18.8v-51h18.8V1192.6z"/>
	<path class="st0" d="M825.8,695.8l-7.9-7.9c-1.3-1.3-3.5-1.3-4.8,0c-1.3,1.3-1.3,3.5,0,4.8l6.8,6.8l5.1,5.1
		c0.2,0.2,0.5,0.4,0.7,0.5c0.5,0.3,1.1,0.5,1.7,0.5c0.6,0,1.2-0.2,1.7-0.5c0.2-0.1,0.5-0.3,0.7-0.5l5.1-5.1l6.8-6.8
		c1.3-1.3,1.3-3.5,0-4.8c-1.3-1.3-3.5-1.3-4.8,0l-7.8,7.8v-83.6c0-0.9-0.8-1.7-1.7-1.7h-34.1v3.4h32.4V695.8z"/>
	<rect x="762.2" y="610.4" class="st0" width="19.3" height="3.4"/>
	<rect x="1630.6" y="641.5" class="st0" width="3.4" height="19.3"/>
	<path class="st0" d="M881.1,300.1h291c0.9,0,1.7-0.8,1.7-1.7s-0.8-1.7-1.7-1.7h-291c-0.9,0-1.7,0.8-1.7,1.7
		S880.2,300.1,881.1,300.1z"/>
	<path class="st0" d="M893.8,320.6c-0.9,0-1.7,0.8-1.7,1.7c0,0.9,0.8,1.7,1.7,1.7H1017c0.9,0,1.7-0.8,1.7-1.7c0-0.9-0.8-1.7-1.7-1.7
		H893.8z"/>
	<path class="st0" d="M1038.9,320.6c-0.9,0-1.7,0.8-1.7,1.7c0,0.9,0.8,1.7,1.7,1.7h73.7c0.9,0,1.7-0.8,1.7-1.7
		c0-0.9-0.8-1.7-1.7-1.7H1038.9z"/>
	<path class="st0" d="M1641.8,977.2l-7.9,7.9V805.9h11.8c0.9,0,1.7-0.8,1.7-1.7s-0.8-1.7-1.7-1.7h-11.8V672.8h-3.4v312.3l-7.9-7.9
		c-1.3-1.3-3.5-1.3-4.8,0c-1.3,1.3-1.3,3.5,0,4.8l6.8,6.8l5.1,5.1c0.2,0.2,0.5,0.4,0.7,0.5c0.5,0.3,1.1,0.5,1.7,0.5
		c0.6,0,1.2-0.2,1.7-0.5c0.2-0.1,0.5-0.3,0.7-0.5l5.1-5.1l6.8-6.8c1.3-1.3,1.3-3.5,0-4.8C1645.3,975.9,1643.1,975.9,1641.8,977.2z"
		/>
	<path class="st0" d="M922.2,1580.4l-5.1-5.1l-6.8-6.8c-1.3-1.3-3.5-1.3-4.8,0c-1.3,1.3-1.3,3.5,0,4.8l7.9,7.9H579.7
		c-5.3,0-9.6-4.3-9.6-9.6v-22.6c0-5.3,4.3-9.6,9.6-9.6h73.5v-3.4h-73.5c-7.2,0-13,5.8-13,13v22.6c0,7.2,5.8,13,13,13h145.1v11.8
		c0,0.9,0.8,1.7,1.7,1.7c0.9,0,1.7-0.8,1.7-1.7v-11.8h185.1l-7.9,7.9c-1.3,1.3-1.3,3.5,0,4.8c0.7,0.7,1.5,1,2.4,1s1.7-0.3,2.4-1
		l6.8-6.8l5.1-5.1c0.2-0.2,0.4-0.5,0.5-0.7c0.6-1,0.6-2.3,0-3.4C922.5,1580.8,922.4,1580.6,922.2,1580.4z"/>
	<path class="st0" d="M678.5,501.7c0-0.9-0.8-1.7-1.7-1.7c-0.9,0-1.7,0.8-1.7,1.7v13.7c0,0.9,0.8,1.7,1.7,1.7c0.9,0,1.7-0.8,1.7-1.7
		V501.7z"/>
	<path class="st0" d="M678.5,433.2c0-0.9-0.8-1.7-1.7-1.7c-0.9,0-1.7,0.8-1.7,1.7v13.7c0,0.9,0.8,1.7,1.7,1.7c0.9,0,1.7-0.8,1.7-1.7
		V433.2z"/>
	<path class="st0" d="M678.5,467.4c0-0.9-0.8-1.7-1.7-1.7c-0.9,0-1.7,0.8-1.7,1.7v13.7c0,0.9,0.8,1.7,1.7,1.7c0.9,0,1.7-0.8,1.7-1.7
		V467.4z"/>
	<path class="st0" d="M676.8,568.6c-0.9,0-1.7,0.8-1.7,1.7V584c0,0.9,0.8,1.7,1.7,1.7c0.9,0,1.7-0.8,1.7-1.7v-13.7
		C678.5,569.4,677.8,568.6,676.8,568.6z"/>
	<path class="st0" d="M678.5,536c0-0.9-0.8-1.7-1.7-1.7c-0.9,0-1.7,0.8-1.7,1.7v13.7c0,0.9,0.8,1.7,1.7,1.7c0.9,0,1.7-0.8,1.7-1.7
		V536z"/>
	<path class="st0" d="M670.1,407.6L670.1,407.6l5.1,0v5.1c0,0.9,0.8,1.7,1.7,1.7c0.9,0,1.7-0.8,1.7-1.7v-6.8c0-0.5-0.2-0.9-0.5-1.2
		c-0.3-0.3-0.7-0.5-1.2-0.5l-6.8,0c-0.9,0-1.7,0.8-1.7,1.7C668.4,406.8,669.2,407.6,670.1,407.6z"/>
	<path class="st0" d="M597.8,408.1L597.8,408.1l14.5-0.1c0.9,0,1.7-0.8,1.7-1.7c0-0.9-0.8-1.7-1.7-1.7h0l-14.5,0.1
		c-0.9,0-1.7,0.8-1.7,1.7C596.1,407.3,596.8,408.1,597.8,408.1z"/>
	<path class="st0" d="M633.9,407.8L633.9,407.8l14.5-0.1c0.9,0,1.7-0.8,1.7-1.7c0-0.9-0.8-1.7-1.7-1.7h0l-14.5,0.1
		c-0.9,0-1.7,0.8-1.7,1.7C632.2,407.1,633,407.8,633.9,407.8z"/>
	<path class="st0" d="M569.3,408.3L569.3,408.3l6.8-0.1c0.9,0,1.7-0.8,1.7-1.7c0-0.9-0.8-1.7-1.7-1.7h0l-5.1,0v-5.1
		c0-0.9-0.8-1.7-1.7-1.7c-0.9,0-1.7,0.8-1.7,1.7v6.8c0,0.5,0.2,0.9,0.5,1.2C568.4,408.1,568.9,408.3,569.3,408.3z"/>
	<path class="st0" d="M569.3,288.7c0.9,0,1.7-0.8,1.7-1.7v-12.5c0-0.9-0.8-1.7-1.7-1.7c-0.9,0-1.7,0.8-1.7,1.7V287
		C567.6,288,568.4,288.7,569.3,288.7z"/>
	<path class="st0" d="M569.3,382.7c0.9,0,1.7-0.8,1.7-1.7v-12.5c0-0.9-0.8-1.7-1.7-1.7c-0.9,0-1.7,0.8-1.7,1.7V381
		C567.6,382,568.4,382.7,569.3,382.7z"/>
	<path class="st0" d="M569.3,320.1c0.9,0,1.7-0.8,1.7-1.7v-12.5c0-0.9-0.8-1.7-1.7-1.7c-0.9,0-1.7,0.8-1.7,1.7v12.5
		C567.6,319.3,568.4,320.1,569.3,320.1z"/>
	<path class="st0" d="M569.3,351.4c0.9,0,1.7-0.8,1.7-1.7v-12.5c0-0.9-0.8-1.7-1.7-1.7c-0.9,0-1.7,0.8-1.7,1.7v12.5
		C567.6,350.6,568.4,351.4,569.3,351.4z"/>
	<path class="st0" d="M569.3,257.4c0.9,0,1.7-0.8,1.7-1.7v-6.8c0-0.9-0.8-1.7-1.7-1.7c-0.9,0-1.7,0.8-1.7,1.7v6.8
		C567.6,256.6,568.4,257.4,569.3,257.4z"/>
	<path class="st0" d="M1672.1,1376h-13.5c-0.9,0-1.7,0.8-1.7,1.7s0.8,1.7,1.7,1.7h13.5c0.9,0,1.7-0.8,1.7-1.7S1673,1376,1672.1,1376
		z"/>
	<path class="st0" d="M1739.7,1376h-13.5c-0.9,0-1.7,0.8-1.7,1.7s0.8,1.7,1.7,1.7h13.5c0.9,0,1.7-0.8,1.7-1.7
		S1740.7,1376,1739.7,1376z"/>
	<path class="st0" d="M1633.9,1201c0-0.9-0.8-1.7-1.7-1.7s-1.7,0.8-1.7,1.7v13.5c0,0.9,0.8,1.7,1.7,1.7s1.7-0.8,1.7-1.7V1201z"/>
	<path class="st0" d="M1633.9,1234.8c0-0.9-0.8-1.7-1.7-1.7s-1.7,0.8-1.7,1.7v13.5c0,0.9,0.8,1.7,1.7,1.7s1.7-0.8,1.7-1.7V1234.8z"
		/>
	<path class="st0" d="M1633.9,1268.7c0-0.9-0.8-1.7-1.7-1.7s-1.7,0.8-1.7,1.7v13.5c0,0.9,0.8,1.7,1.7,1.7s1.7-0.8,1.7-1.7V1268.7z"
		/>
	<path class="st0" d="M1828.6,1376h-0.9c-0.9,0-1.7,0.8-1.7,1.7s0.8,1.7,1.7,1.7h0.9c0.9,0,1.7-0.8,1.7-1.7S1829.5,1376,1828.6,1376
		z"/>
	<path class="st0" d="M1638.2,1376h-4.3v-5.8c0-0.9-0.8-1.7-1.7-1.7s-1.7,0.8-1.7,1.7v7.5c0,0.9,0.8,1.7,1.7,1.7h6
		c0.9,0,1.7-0.8,1.7-1.7S1639.2,1376,1638.2,1376z"/>
	<path class="st0" d="M1633.9,1302.5c0-0.9-0.8-1.7-1.7-1.7s-1.7,0.8-1.7,1.7v13.5c0,0.9,0.8,1.7,1.7,1.7s1.7-0.8,1.7-1.7V1302.5z"
		/>
	<path class="st0" d="M1807.4,1376h-13.5c-0.9,0-1.7,0.8-1.7,1.7s0.8,1.7,1.7,1.7h13.5c0.9,0,1.7-0.8,1.7-1.7
		S1808.3,1376,1807.4,1376z"/>
	<path class="st0" d="M1705.9,1376h-13.5c-0.9,0-1.7,0.8-1.7,1.7s0.8,1.7,1.7,1.7h13.5c0.9,0,1.7-0.8,1.7-1.7
		S1706.8,1376,1705.9,1376z"/>
	<path class="st0" d="M1773.6,1376H1760c-0.9,0-1.7,0.8-1.7,1.7s0.8,1.7,1.7,1.7h13.5c0.9,0,1.7-0.8,1.7-1.7
		S1774.5,1376,1773.6,1376z"/>
	<path class="st0" d="M1632.2,1334.6c-0.9,0-1.7,0.8-1.7,1.7v13.5c0,0.9,0.8,1.7,1.7,1.7s1.7-0.8,1.7-1.7v-13.5
		C1633.9,1335.4,1633.2,1334.6,1632.2,1334.6z"/>
	<path class="st0" d="M100.4,777.6c0,0.9,0.8,1.7,1.7,1.7h0l13.5-0.1c0.9,0,1.7-0.8,1.7-1.7c0-0.9-0.8-1.6-1.7-1.7l-13.5,0.1
		C101.1,775.9,100.4,776.7,100.4,777.6z"/>
	<path class="st0" d="M100.4,625.3c0.9,0,1.7-0.8,1.7-1.7v-13.5c0-0.9-0.8-1.7-1.7-1.7s-1.7,0.8-1.7,1.7v13.5
		C98.7,624.6,99.5,625.3,100.4,625.3z"/>
	<path class="st0" d="M135.9,778.9L135.9,778.9l13.6-0.1c0.9,0,1.7-0.8,1.7-1.7c0-0.9-0.8-1.7-1.7-1.7h0l-13.5,0.1
		c-0.9,0-1.7,0.8-1.7,1.7C134.2,778.1,135,778.9,135.9,778.9z"/>
	<path class="st0" d="M100.4,659.2c0.9,0,1.7-0.8,1.7-1.7v-13.5c0-0.9-0.8-1.7-1.7-1.7s-1.7,0.8-1.7,1.7v13.5
		C98.7,658.4,99.5,659.2,100.4,659.2z"/>
	<path class="st0" d="M169.8,778.5L169.8,778.5l13.6-0.1c0.9,0,1.7-0.8,1.7-1.7c0-0.9-0.8-1.7-1.7-1.7l-13.5,0.1
		c-0.9,0-1.7,0.8-1.7,1.7C168.1,777.8,168.8,778.5,169.8,778.5z"/>
	<path class="st0" d="M211.7,803.8c0-0.9-0.8-1.7-1.7-1.7c-0.9,0-1.7,0.8-1.7,1.7v13.5c0,0.9,0.8,1.7,1.7,1.7c0.9,0,1.7-0.8,1.7-1.7
		V803.8z"/>
	<path class="st0" d="M211.7,837.6c0-0.9-0.8-1.7-1.7-1.7c-0.9,0-1.7,0.8-1.7,1.7v13.5c0,0.9,0.8,1.7,1.7,1.7c0.9,0,1.7-0.8,1.7-1.7
		V837.6z"/>
	<path class="st0" d="M100.4,693c0.9,0,1.7-0.8,1.7-1.7v-13.5c0-0.9-0.8-1.7-1.7-1.7s-1.7,0.8-1.7,1.7v13.5
		C98.7,692.2,99.5,693,100.4,693z"/>
	<path class="st0" d="M211.7,871.5c0-0.9-0.8-1.7-1.7-1.7c-0.9,0-1.7,0.8-1.7,1.7V885c0,0.9,0.8,1.7,1.7,1.7c0.9,0,1.7-0.8,1.7-1.7
		V871.5z"/>
	<path class="st0" d="M100.4,726.8c0.9,0,1.7-0.8,1.7-1.7v-13.5c0-0.9-0.8-1.7-1.7-1.7s-1.7,0.8-1.7,1.7v13.5
		C98.7,726.1,99.5,726.8,100.4,726.8z"/>
	<path class="st0" d="M247.6,971.4l13.5,0.2h0c0.9,0,1.7-0.7,1.7-1.7c0-0.9-0.7-1.7-1.7-1.7l-13.5-0.2h0c-0.9,0-1.7,0.7-1.7,1.7
		C246,970.6,246.7,971.3,247.6,971.4z"/>
	<path class="st0" d="M100.4,760.7c0.9,0,1.7-0.8,1.7-1.7v-13.5c0-0.9-0.8-1.7-1.7-1.7s-1.7,0.8-1.7,1.7V759
		C98.7,759.9,99.5,760.7,100.4,760.7z"/>
	<path class="st0" d="M210,937.4c-0.9,0-1.7,0.8-1.7,1.7v13.5c0,0.9,0.8,1.7,1.7,1.7c0.9,0,1.7-0.8,1.7-1.7v-13.5
		C211.7,938.2,210.9,937.4,210,937.4z"/>
	<path class="st0" d="M211.7,905.3c0-0.9-0.8-1.7-1.7-1.7c-0.9,0-1.7,0.8-1.7,1.7v13.5c0,0.9,0.8,1.7,1.7,1.7c0.9,0,1.7-0.8,1.7-1.7
		V905.3z"/>
	<path class="st0" d="M203.6,778.2L203.6,778.2l4.7-0.1v5.4c0,0.9,0.8,1.7,1.7,1.7c0.9,0,1.7-0.8,1.7-1.7v-7.1
		c0-0.5-0.2-0.9-0.5-1.2c-0.3-0.3-0.7-0.5-1.2-0.5l-6.4,0.1c-0.9,0-1.7,0.8-1.7,1.7C201.9,777.4,202.7,778.2,203.6,778.2z"/>
	<path class="st0" d="M213.8,970.9l13.5,0.2h0c0.9,0,1.7-0.7,1.7-1.7c0-0.9-0.7-1.7-1.7-1.7l-13.5-0.2h0c-0.9,0-1.7,0.7-1.7,1.7
		C212.1,970.1,212.9,970.9,213.8,970.9z"/>
	<path class="st0" d="M363.9,1451.8h-13.5c-0.9,0-1.7,0.8-1.7,1.7s0.8,1.7,1.7,1.7h13.5c0.9,0,1.7-0.8,1.7-1.7
		S364.8,1451.8,363.9,1451.8z"/>
	<path class="st0" d="M553.3,1451.8c-0.9,0-1.7,0.8-1.7,1.7s0.8,1.7,1.7,1.7h13.5c0.9,0,1.7-0.8,1.7-1.7s-0.8-1.7-1.7-1.7H553.3z"/>
	<path class="st0" d="M630.2,1447.4c-0.9,0-1.7,0.8-1.7,1.7v2.7H621c-0.9,0-1.7,0.8-1.7,1.7s0.8,1.7,1.7,1.7h9.2
		c0.9,0,1.7-0.8,1.7-1.7v-4.4C631.9,1448.2,631.1,1447.4,630.2,1447.4z"/>
	<path class="st0" d="M330,1451.8h-13.5c-0.9,0-1.7,0.8-1.7,1.7s0.8,1.7,1.7,1.7H330c0.9,0,1.7-0.8,1.7-1.7S331,1451.8,330,1451.8z"
		/>
	<path class="st0" d="M285.7,1475c-0.9,0-1.7,0.8-1.7,1.7v13.5c0,0.9,0.8,1.7,1.7,1.7c0.9,0,1.7-0.8,1.7-1.7v-13.5
		C287.3,1475.8,286.6,1475,285.7,1475z"/>
	<path class="st0" d="M285.7,1508.9c-0.9,0-1.7,0.8-1.7,1.7v13.5c0,0.9,0.8,1.7,1.7,1.7c0.9,0,1.7-0.8,1.7-1.7v-13.5
		C287.3,1509.6,286.6,1508.9,285.7,1508.9z"/>
	<path class="st0" d="M631.9,1415.3c0-0.9-0.8-1.7-1.7-1.7c-0.9,0-1.7,0.8-1.7,1.7v13.5c0,0.9,0.8,1.7,1.7,1.7
		c0.9,0,1.7-0.8,1.7-1.7V1415.3z"/>
	<path class="st0" d="M499.2,1451.8h-13.5c-0.9,0-1.7,0.8-1.7,1.7s0.8,1.7,1.7,1.7h13.5c0.9,0,1.7-0.8,1.7-1.7
		S500.1,1451.8,499.2,1451.8z"/>
	<path class="st0" d="M631.9,1381.4c0-0.9-0.8-1.7-1.7-1.7c-0.9,0-1.7,0.8-1.7,1.7v13.5c0,0.9,0.8,1.7,1.7,1.7
		c0.9,0,1.7-0.8,1.7-1.7V1381.4z"/>
	<path class="st0" d="M3.8,1633H1.7c-0.9,0-1.7,0.8-1.7,1.7s0.8,1.7,1.7,1.7h2.1c0.9,0,1.7-0.8,1.7-1.7S4.7,1633,3.8,1633z"/>
	<path class="st0" d="M533,1451.8h-13.5c-0.9,0-1.7,0.8-1.7,1.7s0.8,1.7,1.7,1.7H533c0.9,0,1.7-0.8,1.7-1.7S534,1451.8,533,1451.8z"
		/>
	<path class="st0" d="M465.4,1451.8h-13.5c-0.9,0-1.7,0.8-1.7,1.7s0.8,1.7,1.7,1.7h13.5c0.9,0,1.7-0.8,1.7-1.7
		S466.3,1451.8,465.4,1451.8z"/>
	<path class="st0" d="M397.7,1451.8h-13.5c-0.9,0-1.7,0.8-1.7,1.7s0.8,1.7,1.7,1.7h13.5c0.9,0,1.7-0.8,1.7-1.7
		S398.6,1451.8,397.7,1451.8z"/>
	<path class="st0" d="M431.5,1451.8H418c-0.9,0-1.7,0.8-1.7,1.7s0.8,1.7,1.7,1.7h13.5c0.9,0,1.7-0.8,1.7-1.7
		S432.5,1451.8,431.5,1451.8z"/>
	<path class="st0" d="M296.2,1451.8h-10.6c-0.9,0-1.7,0.8-1.7,1.7v3c0,0.9,0.8,1.7,1.7,1.7c0.9,0,1.7-0.8,1.7-1.7v-1.3h8.9
		c0.9,0,1.7-0.8,1.7-1.7S297.1,1451.8,296.2,1451.8z"/>
	<path class="st0" d="M587.2,1451.8c-0.9,0-1.7,0.8-1.7,1.7s0.8,1.7,1.7,1.7h13.5c0.9,0,1.7-0.8,1.7-1.7s-0.8-1.7-1.7-1.7H587.2z"/>
	<path class="st0" d="M139.1,1633h-13.5c-0.9,0-1.7,0.8-1.7,1.7s0.8,1.7,1.7,1.7h13.5c0.9,0,1.7-0.8,1.7-1.7S140.1,1633,139.1,1633z
		"/>
	<path class="st0" d="M173,1633h-13.5c-0.9,0-1.7,0.8-1.7,1.7s0.8,1.7,1.7,1.7H173c0.9,0,1.7-0.8,1.7-1.7S173.9,1633,173,1633z"/>
	<path class="st0" d="M71.5,1633H57.9c-0.9,0-1.7,0.8-1.7,1.7s0.8,1.7,1.7,1.7h13.5c0.9,0,1.7-0.8,1.7-1.7S72.4,1633,71.5,1633z"/>
	<path class="st0" d="M37.6,1633H24.1c-0.9,0-1.7,0.8-1.7,1.7s0.8,1.7,1.7,1.7h13.5c0.9,0,1.7-0.8,1.7-1.7S38.6,1633,37.6,1633z"/>
	<path class="st0" d="M105.3,1633H91.8c-0.9,0-1.7,0.8-1.7,1.7s0.8,1.7,1.7,1.7h13.5c0.9,0,1.7-0.8,1.7-1.7S106.2,1633,105.3,1633z"
		/>
	<path class="st0" d="M631.9,1347.6c0-0.9-0.8-1.7-1.7-1.7c-0.9,0-1.7,0.8-1.7,1.7v13.5c0,0.9,0.8,1.7,1.7,1.7
		c0.9,0,1.7-0.8,1.7-1.7V1347.6z"/>
	<path class="st0" d="M274.5,1633h-13.5c-0.9,0-1.7,0.8-1.7,1.7s0.8,1.7,1.7,1.7h13.5c0.9,0,1.7-0.8,1.7-1.7S275.4,1633,274.5,1633z
		"/>
	<path class="st0" d="M240.6,1633h-13.5c-0.9,0-1.7,0.8-1.7,1.7s0.8,1.7,1.7,1.7h13.5c0.9,0,1.7-0.8,1.7-1.7S241.6,1633,240.6,1633z
		"/>
	<path class="st0" d="M206.8,1633h-13.5c-0.9,0-1.7,0.8-1.7,1.7s0.8,1.7,1.7,1.7h13.5c0.9,0,1.7-0.8,1.7-1.7S207.7,1633,206.8,1633z
		"/>
	<path class="st0" d="M631.9,1313.8c0-0.9-0.8-1.7-1.7-1.7c-0.9,0-1.7,0.8-1.7,1.7v13.5c0,0.9,0.8,1.7,1.7,1.7
		c0.9,0,1.7-0.8,1.7-1.7V1313.8z"/>
	<path class="st0" d="M285.7,1542.7c-0.9,0-1.7,0.8-1.7,1.7v13.5c0,0.9,0.8,1.7,1.7,1.7c0.9,0,1.7-0.8,1.7-1.7v-13.5
		C287.3,1543.5,286.6,1542.7,285.7,1542.7z"/>
	<path class="st0" d="M285.7,1610.4c-0.9,0-1.7,0.8-1.7,1.7v13.5c0,0.9,0.8,1.7,1.7,1.7c0.9,0,1.7-0.8,1.7-1.7v-13.5
		C287.3,1611.1,286.6,1610.4,285.7,1610.4z"/>
	<path class="st0" d="M285.7,1576.5c-0.9,0-1.7,0.8-1.7,1.7v13.5c0,0.9,0.8,1.7,1.7,1.7c0.9,0,1.7-0.8,1.7-1.7v-13.5
		C287.3,1577.3,286.6,1576.5,285.7,1576.5z"/>
	<path class="st0" d="M1576.1,1739.6c-0.9,0-1.7,0.8-1.7,1.7v13.5c0,0.9,0.8,1.7,1.7,1.7s1.7-0.8,1.7-1.7v-13.5
		C1577.8,1740.4,1577.1,1739.6,1576.1,1739.6z"/>
	<path class="st0" d="M1576.1,1705.8c-0.9,0-1.7,0.8-1.7,1.7v13.5c0,0.9,0.8,1.7,1.7,1.7s1.7-0.8,1.7-1.7v-13.5
		C1577.8,1706.6,1577.1,1705.8,1576.1,1705.8z"/>
	<path class="st0" d="M1576.1,1773.5c-0.9,0-1.7,0.8-1.7,1.7v13.5c0,0.9,0.8,1.7,1.7,1.7s1.7-0.8,1.7-1.7v-13.5
		C1577.8,1774.2,1577.1,1773.5,1576.1,1773.5z"/>
	<path class="st0" d="M1542.8,1482h-13.5c-0.9,0-1.7,0.8-1.7,1.7s0.8,1.7,1.7,1.7h13.5c0.9,0,1.7-0.8,1.7-1.7
		S1543.7,1482,1542.8,1482z"/>
	<path class="st0" d="M1576.1,1807.3c-0.9,0-1.7,0.8-1.7,1.7v2.1c0,0.9,0.8,1.7,1.7,1.7s1.7-0.8,1.7-1.7v-2.1
		C1577.8,1808.1,1577.1,1807.3,1576.1,1807.3z"/>
	<path class="st0" d="M1576.1,1536.6c-0.9,0-1.7,0.8-1.7,1.7v13.5c0,0.9,0.8,1.7,1.7,1.7s1.7-0.8,1.7-1.7v-13.5
		C1577.8,1537.4,1577.1,1536.6,1576.1,1536.6z"/>
	<path class="st0" d="M1576.1,1482h-13c-0.9,0-1.7,0.8-1.7,1.7s0.8,1.7,1.7,1.7h11.9c0.3,0.3,0.7,0.5,1.2,0.5c0.9,0,1.7-0.8,1.7-1.7
		v-0.5C1577.8,1482.8,1577.1,1482,1576.1,1482z"/>
	<path class="st0" d="M1576.1,1672c-0.9,0-1.7,0.8-1.7,1.7v13.5c0,0.9,0.8,1.7,1.7,1.7s1.7-0.8,1.7-1.7v-13.5
		C1577.8,1672.7,1577.1,1672,1576.1,1672z"/>
	<path class="st0" d="M1576.1,1570.5c-0.9,0-1.7,0.8-1.7,1.7v13.5c0,0.9,0.8,1.7,1.7,1.7s1.7-0.8,1.7-1.7v-13.5
		C1577.8,1571.2,1577.1,1570.5,1576.1,1570.5z"/>
	<path class="st0" d="M1576.1,1638.1c-0.9,0-1.7,0.8-1.7,1.7v13.5c0,0.9,0.8,1.7,1.7,1.7s1.7-0.8,1.7-1.7v-13.5
		C1577.8,1638.9,1577.1,1638.1,1576.1,1638.1z"/>
	<path class="st0" d="M1576.1,1604.3c-0.9,0-1.7,0.8-1.7,1.7v13.5c0,0.9,0.8,1.7,1.7,1.7s1.7-0.8,1.7-1.7V1606
		C1577.8,1605.1,1577.1,1604.3,1576.1,1604.3z"/>
	<path class="st0" d="M1576.1,1502.8c-0.9,0-1.7,0.8-1.7,1.7v13.5c0,0.9,0.8,1.7,1.7,1.7s1.7-0.8,1.7-1.7v-13.5
		C1577.8,1503.6,1577.1,1502.8,1576.1,1502.8z"/>
	<path class="st0" d="M1209,1793.1c-0.9,0-1.7,0.8-1.7,1.7v13.5c0,0.9,0.8,1.7,1.7,1.7c0.9,0,1.7-0.8,1.7-1.7v-13.5
		C1210.7,1793.9,1209.9,1793.1,1209,1793.1z"/>
	<path class="st0" d="M1201.9,1644.6h-13.5c-0.9,0-1.7,0.8-1.7,1.7s0.8,1.7,1.7,1.7h13.5c0.9,0,1.7-0.8,1.7-1.7
		S1202.8,1644.6,1201.9,1644.6z"/>
	<path class="st0" d="M1168.1,1644.6h-13.5c-0.9,0-1.7,0.8-1.7,1.7s0.8,1.7,1.7,1.7h13.5c0.9,0,1.7-0.8,1.7-1.7
		S1169,1644.6,1168.1,1644.6z"/>
	<path class="st0" d="M1134.2,1644.6h-13.5c-0.9,0-1.7,0.8-1.7,1.7s0.8,1.7,1.7,1.7h13.5c0.9,0,1.7-0.8,1.7-1.7
		S1135.2,1644.6,1134.2,1644.6z"/>
	<path class="st0" d="M1209,1759.3c-0.9,0-1.7,0.8-1.7,1.7v13.5c0,0.9,0.8,1.7,1.7,1.7c0.9,0,1.7-0.8,1.7-1.7V1761
		C1210.7,1760,1209.9,1759.3,1209,1759.3z"/>
	<path class="st0" d="M1209,1657.8c-0.9,0-1.7,0.8-1.7,1.7v13.5c0,0.9,0.8,1.7,1.7,1.7c0.9,0,1.7-0.8,1.7-1.7v-13.5
		C1210.7,1658.5,1209.9,1657.8,1209,1657.8z"/>
	<path class="st0" d="M1100.4,1644.6h-13.5c-0.9,0-1.7,0.8-1.7,1.7s0.8,1.7,1.7,1.7h13.5c0.9,0,1.7-0.8,1.7-1.7
		S1101.3,1644.6,1100.4,1644.6z"/>
	<path class="st0" d="M1209,1725.4c-0.9,0-1.7,0.8-1.7,1.7v13.5c0,0.9,0.8,1.7,1.7,1.7c0.9,0,1.7-0.8,1.7-1.7v-13.5
		C1210.7,1726.2,1209.9,1725.4,1209,1725.4z"/>
	<path class="st0" d="M1209,1691.6c-0.9,0-1.7,0.8-1.7,1.7v13.5c0,0.9,0.8,1.7,1.7,1.7c0.9,0,1.7-0.8,1.7-1.7v-13.5
		C1210.7,1692.4,1209.9,1691.6,1209,1691.6z"/>
	<path class="st0" d="M1082.7,1614.9c-0.9,0-1.7,0.8-1.7,1.7v13.5c0,0.9,0.8,1.7,1.7,1.7c0.9,0,1.7-0.8,1.7-1.7v-13.5
		C1084.4,1615.7,1083.6,1614.9,1082.7,1614.9z"/>
	<path class="st0" d="M1002.5,621.6c0.9,0,1.7-0.8,1.7-1.7v-3.1c0-0.9-0.8-1.7-1.7-1.7c-0.9,0-1.7,0.8-1.7,1.7v3.1
		C1000.9,620.9,1001.6,621.6,1002.5,621.6z"/>
	<path class="st0" d="M1000.9,653.8c0,0.9,0.8,1.7,1.7,1.7c0.9,0,1.7-0.8,1.7-1.7v-13.5c0-0.9-0.8-1.7-1.7-1.7
		c-0.9,0-1.7,0.8-1.7,1.7V653.8z"/>
	<path class="st0" d="M972.4,780.9c0.9,0,1.7-0.8,1.7-1.7c0-0.9-0.8-1.7-1.7-1.7h-13.5c-0.9,0-1.7,0.8-1.7,1.7
		c0,0.9,0.8,1.7,1.7,1.7H972.4z"/>
	<path class="st0" d="M1000.9,687.6c0,0.9,0.8,1.7,1.7,1.7c0.9,0,1.7-0.8,1.7-1.7v-13.5c0-0.9-0.8-1.7-1.7-1.7
		c-0.9,0-1.7,0.8-1.7,1.7V687.6z"/>
	<path class="st0" d="M1000.9,721.4c0,0.9,0.8,1.7,1.7,1.7c0.9,0,1.7-0.8,1.7-1.7v-13.5c0-0.9-0.8-1.7-1.7-1.7
		c-0.9,0-1.7,0.8-1.7,1.7V721.4z"/>
	<path class="st0" d="M924.6,882c0,0.9,0.8,1.7,1.7,1.7c0.9,0,1.7-0.8,1.7-1.7v-13.5c0-0.9-0.8-1.7-1.7-1.7c-0.9,0-1.7,0.8-1.7,1.7
		V882z"/>
	<path class="st0" d="M1000.9,777.5h-8.2c-0.9,0-1.7,0.8-1.7,1.7c0,0.9,0.8,1.7,1.7,1.7h9.9c0.9,0,1.7-0.8,1.7-1.7v-3.7
		c0-0.9-0.8-1.7-1.7-1.7c-0.9,0-1.7,0.8-1.7,1.7V777.5z"/>
	<path class="st0" d="M924.6,814.3c0,0.9,0.8,1.7,1.7,1.7c0.9,0,1.7-0.8,1.7-1.7v-13.5c0-0.9-0.8-1.7-1.7-1.7
		c-0.9,0-1.7,0.8-1.7,1.7V814.3z"/>
	<path class="st0" d="M924.6,848.1c0,0.9,0.8,1.7,1.7,1.7c0.9,0,1.7-0.8,1.7-1.7v-13.5c0-0.9-0.8-1.7-1.7-1.7
		c-0.9,0-1.7,0.8-1.7,1.7V848.1z"/>
	<path class="st0" d="M926.3,782.2c0.8,0,1.4-0.5,1.6-1.3h10.6c0.9,0,1.7-0.8,1.7-1.7c0-0.9-0.8-1.7-1.7-1.7h-12.3
		c-0.9,0-1.7,0.8-1.7,1.7v1.3C924.6,781.4,925.3,782.2,926.3,782.2z"/>
	<path class="st0" d="M1000.9,755.3c0,0.9,0.8,1.7,1.7,1.7c0.9,0,1.7-0.8,1.7-1.7v-13.5c0-0.9-0.8-1.7-1.7-1.7
		c-0.9,0-1.7,0.8-1.7,1.7V755.3z"/>
	<path class="st0" d="M1472.9,152.2c0.9,0,1.7-0.8,1.7-1.7V137c0-0.9-0.8-1.7-1.7-1.7c-0.9,0-1.7,0.8-1.7,1.7v13.5
		C1471.2,151.5,1471.9,152.2,1472.9,152.2z"/>
	<path class="st0" d="M1472.9,118.4c0.9,0,1.7-0.8,1.7-1.7v-13.5c0-0.9-0.8-1.7-1.7-1.7c-0.9,0-1.7,0.8-1.7,1.7v13.5
		C1471.2,117.7,1471.9,118.4,1472.9,118.4z"/>
	<path class="st0" d="M1472.9,84.6c0.9,0,1.7-0.8,1.7-1.7V69.4c0-0.9-0.8-1.7-1.7-1.7c-0.9,0-1.7,0.8-1.7,1.7v13.5
		C1471.2,83.8,1471.9,84.6,1472.9,84.6z"/>
	<path class="st0" d="M1472.9,50.7c0.9,0,1.7-0.8,1.7-1.7V35.5c0-0.9-0.8-1.7-1.7-1.7c-0.9,0-1.7,0.8-1.7,1.7v13.5
		C1471.2,50,1471.9,50.7,1472.9,50.7z"/>
	<path class="st0" d="M1624.6,223.8h5.9v4.2c0,0.9,0.8,1.7,1.7,1.7s1.7-0.8,1.7-1.7v-5.9c0-0.9-0.8-1.7-1.7-1.7h-7.6
		c-0.9,0-1.7,0.8-1.7,1.7S1623.7,223.8,1624.6,223.8z"/>
	<path class="st0" d="M1472.9,16.9c0.9,0,1.7-0.8,1.7-1.7V1.7c0-0.9-0.8-1.7-1.7-1.7c-0.9,0-1.7,0.8-1.7,1.7v13.5
		C1471.2,16.2,1471.9,16.9,1472.9,16.9z"/>
	<path class="st0" d="M1472.9,186.1c0.9,0,1.7-0.8,1.7-1.7v-13.5c0-0.9-0.8-1.7-1.7-1.7c-0.9,0-1.7,0.8-1.7,1.7v13.5
		C1471.2,185.3,1471.9,186.1,1472.9,186.1z"/>
	<path class="st0" d="M1472.9,219.9c0.9,0,1.7-0.8,1.7-1.7v-13.5c0-0.9-0.8-1.7-1.7-1.7c-0.9,0-1.7,0.8-1.7,1.7v13.5
		C1471.2,219.2,1471.9,219.9,1472.9,219.9z"/>
	<path class="st0" d="M1557,223.8h13.5c0.9,0,1.7-0.8,1.7-1.7s-0.8-1.7-1.7-1.7H1557c-0.9,0-1.7,0.8-1.7,1.7S1556,223.8,1557,223.8z
		"/>
	<path class="st0" d="M1633.9,282.1c0-0.9-0.8-1.7-1.7-1.7s-1.7,0.8-1.7,1.7v13.5c0,0.9,0.8,1.7,1.7,1.7s1.7-0.8,1.7-1.7V282.1z"/>
	<path class="st0" d="M1489.3,223.8h13.5c0.9,0,1.7-0.8,1.7-1.7s-0.8-1.7-1.7-1.7h-13.5c-0.9,0-1.7,0.8-1.7,1.7
		S1488.4,223.8,1489.3,223.8z"/>
	<path class="st0" d="M1590.8,223.8h13.5c0.9,0,1.7-0.8,1.7-1.7s-0.8-1.7-1.7-1.7h-13.5c-0.9,0-1.7,0.8-1.7,1.7
		S1589.9,223.8,1590.8,223.8z"/>
	<path class="st0" d="M1633.9,316c0-0.9-0.8-1.7-1.7-1.7s-1.7,0.8-1.7,1.7v13.5c0,0.9,0.8,1.7,1.7,1.7s1.7-0.8,1.7-1.7V316z"/>
	<path class="st0" d="M1523.1,223.8h13.5c0.9,0,1.7-0.8,1.7-1.7s-0.8-1.7-1.7-1.7h-13.5c-0.9,0-1.7,0.8-1.7,1.7
		S1522.2,223.8,1523.1,223.8z"/>
	<path class="st0" d="M1633.9,248.3c0-0.9-0.8-1.7-1.7-1.7s-1.7,0.8-1.7,1.7v13.5c0,0.9,0.8,1.7,1.7,1.7s1.7-0.8,1.7-1.7V248.3z"/>
	<path class="st0" d="M1632.2,348.1c-0.9,0-1.7,0.8-1.7,1.7v13.5c0,0.9,0.8,1.7,1.7,1.7s1.7-0.8,1.7-1.7v-13.5
		C1633.9,348.9,1633.2,348.1,1632.2,348.1z"/>
	<path class="st0" d="M726.5,1682.6c-0.9,0-1.7,0.8-1.7,1.7v11.7c-0.4,0.3-0.6,0.8-0.6,1.3c0,0.9,0.8,1.7,1.7,1.7h0.6
		c0.9,0,1.7-0.8,1.7-1.7v-12.9C728.2,1683.3,727.4,1682.6,726.5,1682.6z"/>
	<path class="st0" d="M611.5,1736.7c-0.9,0-1.7,0.8-1.7,1.7v13.5c0,0.9,0.8,1.7,1.7,1.7c0.9,0,1.7-0.8,1.7-1.7v-13.5
		C613.2,1737.5,612.4,1736.7,611.5,1736.7z"/>
	<path class="st0" d="M671.8,1695.5h-13.5c-0.9,0-1.7,0.8-1.7,1.7s0.8,1.7,1.7,1.7h13.5c0.9,0,1.7-0.8,1.7-1.7
		S672.7,1695.5,671.8,1695.5z"/>
	<path class="st0" d="M637.9,1695.5h-13.5c-0.9,0-1.7,0.8-1.7,1.7s0.8,1.7,1.7,1.7h13.5c0.9,0,1.7-0.8,1.7-1.7
		S638.9,1695.5,637.9,1695.5z"/>
	<path class="st0" d="M726.5,1648.7c-0.9,0-1.7,0.8-1.7,1.7v13.5c0,0.9,0.8,1.7,1.7,1.7c0.9,0,1.7-0.8,1.7-1.7v-13.5
		C728.2,1649.5,727.4,1648.7,726.5,1648.7z"/>
	<path class="st0" d="M611.5,1702.9c-0.9,0-1.7,0.8-1.7,1.7v13.5c0,0.9,0.8,1.7,1.7,1.7c0.9,0,1.7-0.8,1.7-1.7v-13.5
		C613.2,1703.7,612.4,1702.9,611.5,1702.9z"/>
	<path class="st0" d="M611.5,1770.6c-0.9,0-1.7,0.8-1.7,1.7v13.5c0,0.9,0.8,1.7,1.7,1.7c0.9,0,1.7-0.8,1.7-1.7v-13.5
		C613.2,1771.3,612.4,1770.6,611.5,1770.6z"/>
	<path class="st0" d="M611.5,1872.1c-0.9,0-1.7,0.8-1.7,1.7v13.5c0,0.9,0.8,1.7,1.7,1.7c0.9,0,1.7-0.8,1.7-1.7v-13.5
		C613.2,1872.8,612.4,1872.1,611.5,1872.1z"/>
	<path class="st0" d="M726.5,1614.9c-0.9,0-1.7,0.8-1.7,1.7v13.5c0,0.9,0.8,1.7,1.7,1.7c0.9,0,1.7-0.8,1.7-1.7v-13.5
		C728.2,1615.7,727.4,1614.9,726.5,1614.9z"/>
	<path class="st0" d="M611.5,1804.4c-0.9,0-1.7,0.8-1.7,1.7v13.5c0,0.9,0.8,1.7,1.7,1.7c0.9,0,1.7-0.8,1.7-1.7v-13.5
		C613.2,1805.2,612.4,1804.4,611.5,1804.4z"/>
	<path class="st0" d="M611.5,1838.2c-0.9,0-1.7,0.8-1.7,1.7v13.5c0,0.9,0.8,1.7,1.7,1.7c0.9,0,1.7-0.8,1.7-1.7v-13.5
		C613.2,1839,612.4,1838.2,611.5,1838.2z"/>
	<path class="st0" d="M705.6,1695.5h-13.5c-0.9,0-1.7,0.8-1.7,1.7s0.8,1.7,1.7,1.7h13.5c0.9,0,1.7-0.8,1.7-1.7
		S706.5,1695.5,705.6,1695.5z"/>
	<path class="st0" d="M1715.8,771c-0.9,0-1.7,0.8-1.7,1.7v13.5c0,0.9,0.8,1.7,1.7,1.7s1.7-0.8,1.7-1.7v-13.5
		C1717.5,771.7,1716.7,771,1715.8,771z"/>
	<path class="st0" d="M1715.8,601.8c-0.9,0-1.7,0.8-1.7,1.7V617c0,0.9,0.8,1.7,1.7,1.7s1.7-0.8,1.7-1.7v-13.5
		C1717.5,602.6,1716.7,601.8,1715.8,601.8z"/>
	<path class="st0" d="M1715.8,737.1c-0.9,0-1.7,0.8-1.7,1.7v13.5c0,0.9,0.8,1.7,1.7,1.7s1.7-0.8,1.7-1.7v-13.5
		C1717.5,737.9,1716.7,737.1,1715.8,737.1z"/>
	<path class="st0" d="M1715.8,703.3c-0.9,0-1.7,0.8-1.7,1.7v13.5c0,0.9,0.8,1.7,1.7,1.7s1.7-0.8,1.7-1.7V705
		C1717.5,704.1,1716.7,703.3,1715.8,703.3z"/>
	<path class="st0" d="M1679.6,802.5h-13.5c-0.9,0-1.7,0.8-1.7,1.7s0.8,1.7,1.7,1.7h13.5c0.9,0,1.7-0.8,1.7-1.7
		S1680.5,802.5,1679.6,802.5z"/>
	<path class="st0" d="M1843.6,594.4h-13.5c-0.9,0-1.7,0.8-1.7,1.7c0,0.9,0.8,1.7,1.7,1.7h13.5c0.9,0,1.7-0.8,1.7-1.7
		C1845.3,595.1,1844.6,594.4,1843.6,594.4z"/>
	<path class="st0" d="M1713.4,802.5h-13.5c-0.9,0-1.7,0.8-1.7,1.7s0.8,1.7,1.7,1.7h13.5c0.9,0,1.7-0.8,1.7-1.7
		S1714.4,802.5,1713.4,802.5z"/>
	<path class="st0" d="M1762.4,597.7h13.5c0.9,0,1.7-0.8,1.7-1.7c0-0.9-0.8-1.7-1.7-1.7h-13.5c-0.9,0-1.7,0.8-1.7,1.7
		C1760.8,597,1761.5,597.7,1762.4,597.7z"/>
	<path class="st0" d="M1728.6,597.7h13.5c0.9,0,1.7-0.8,1.7-1.7c0-0.9-0.8-1.7-1.7-1.7h-13.5c-0.9,0-1.7,0.8-1.7,1.7
		C1726.9,597,1727.7,597.7,1728.6,597.7z"/>
	<path class="st0" d="M1715.8,669.5c-0.9,0-1.7,0.8-1.7,1.7v13.5c0,0.9,0.8,1.7,1.7,1.7s1.7-0.8,1.7-1.7v-13.5
		C1717.5,670.2,1716.7,669.5,1715.8,669.5z"/>
	<path class="st0" d="M1715.8,635.6c-0.9,0-1.7,0.8-1.7,1.7v13.5c0,0.9,0.8,1.7,1.7,1.7s1.7-0.8,1.7-1.7v-13.5
		C1717.5,636.4,1716.7,635.6,1715.8,635.6z"/>
	<path class="st0" d="M1874.5,594.4h-10.5c-0.9,0-1.7,0.8-1.7,1.7c0,0.9,0.8,1.7,1.7,1.7h10.5c0.9,0,1.7-0.8,1.7-1.7
		C1876.2,595.1,1875.4,594.4,1874.5,594.4z"/>
	<path class="st0" d="M1796.3,597.7h13.5c0.9,0,1.7-0.8,1.7-1.7c0-0.9-0.8-1.7-1.7-1.7h-13.5c-0.9,0-1.7,0.8-1.7,1.7
		C1794.6,597,1795.3,597.7,1796.3,597.7z"/>
	<path class="st0" d="M1823,1068c0.9,0,1.7-0.8,1.7-1.7v-13.5c0-0.9-0.8-1.7-1.7-1.7s-1.7,0.8-1.7,1.7v13.5
		C1821.3,1067.2,1822.1,1068,1823,1068z"/>
	<path class="st0" d="M1814.5,802.5H1801c-0.9,0-1.7,0.8-1.7,1.7s0.8,1.7,1.7,1.7h13.5c0.9,0,1.7-0.8,1.7-1.7
		S1815.4,802.5,1814.5,802.5z"/>
	<path class="st0" d="M1823,966.5c0.9,0,1.7-0.8,1.7-1.7v-13.5c0-0.9-0.8-1.7-1.7-1.7s-1.7,0.8-1.7,1.7v13.5
		C1821.3,965.7,1822.1,966.5,1823,966.5z"/>
	<path class="st0" d="M1823,932.7c0.9,0,1.7-0.8,1.7-1.7v-13.5c0-0.9-0.8-1.7-1.7-1.7s-1.7,0.8-1.7,1.7V931
		C1821.3,931.9,1822.1,932.7,1823,932.7z"/>
	<path class="st0" d="M1746.8,802.5h-13.5c-0.9,0-1.7,0.8-1.7,1.7s0.8,1.7,1.7,1.7h13.5c0.9,0,1.7-0.8,1.7-1.7
		S1747.8,802.5,1746.8,802.5z"/>
	<path class="st0" d="M1823,1034.2c0.9,0,1.7-0.8,1.7-1.7v-13.5c0-0.9-0.8-1.7-1.7-1.7s-1.7,0.8-1.7,1.7v13.5
		C1821.3,1033.4,1822.1,1034.2,1823,1034.2z"/>
	<path class="st0" d="M1823,1000.3c0.9,0,1.7-0.8,1.7-1.7v-13.5c0-0.9-0.8-1.7-1.7-1.7s-1.7,0.8-1.7,1.7v13.5
		C1821.3,999.6,1822.1,1000.3,1823,1000.3z"/>
	<path class="st0" d="M1823,898.8c0.9,0,1.7-0.8,1.7-1.7v-13.5c0-0.9-0.8-1.7-1.7-1.7s-1.7,0.8-1.7,1.7v13.5
		C1821.3,898.1,1822.1,898.8,1823,898.8z"/>
	<path class="st0" d="M1898.3,1090.8h-13.5c-0.9,0-1.7,0.8-1.7,1.7s0.8,1.7,1.7,1.7h13.5c0.9,0,1.7-0.8,1.7-1.7
		S1899.2,1090.8,1898.3,1090.8z"/>
	<path class="st0" d="M1780.7,802.5h-13.5c-0.9,0-1.7,0.8-1.7,1.7s0.8,1.7,1.7,1.7h13.5c0.9,0,1.7-0.8,1.7-1.7
		S1781.6,802.5,1780.7,802.5z"/>
	<path class="st0" d="M1864.5,1090.8h-13.5c-0.9,0-1.7,0.8-1.7,1.7s0.8,1.7,1.7,1.7h13.5c0.9,0,1.7-0.8,1.7-1.7
		S1865.4,1090.8,1864.5,1090.8z"/>
	<path class="st0" d="M1823,865c0.9,0,1.7-0.8,1.7-1.7v-13.5c0-0.9-0.8-1.7-1.7-1.7s-1.7,0.8-1.7,1.7v13.5
		C1821.3,864.2,1822.1,865,1823,865z"/>
	<path class="st0" d="M1823,831.2c0.9,0,1.7-0.8,1.7-1.7v-13.5c0-0.9-0.8-1.7-1.7-1.7s-1.7,0.8-1.7,1.7v13.5
		C1821.3,830.4,1822.1,831.2,1823,831.2z"/>
	<path class="st0" d="M1830.6,1090.8h-5.9v-4.2c0-0.9-0.8-1.7-1.7-1.7s-1.7,0.8-1.7,1.7v5.9c0,0.9,0.8,1.7,1.7,1.7h7.6
		c0.9,0,1.7-0.8,1.7-1.7S1831.6,1090.8,1830.6,1090.8z"/>
	<path class="st0" d="M418.7,1785.5h-13.5c-0.9,0-1.7,0.8-1.7,1.7c0,0.9,0.8,1.7,1.7,1.7h13.5c0.9,0,1.7-0.8,1.7-1.7
		C420.4,1786.3,419.7,1785.5,418.7,1785.5z"/>
	<path class="st0" d="M529.9,1693.6h-13.5c-0.9,0-1.7,0.8-1.7,1.7c0,0.9,0.8,1.7,1.7,1.7h13.5c0.9,0,1.7-0.8,1.7-1.7
		C531.6,1694.4,530.8,1693.6,529.9,1693.6z"/>
	<path class="st0" d="M496,1693.6h-13.5c-0.9,0-1.7,0.8-1.7,1.7c0,0.9,0.8,1.7,1.7,1.7H496c0.9,0,1.7-0.8,1.7-1.7
		C497.7,1694.4,497,1693.6,496,1693.6z"/>
	<path class="st0" d="M462.2,1693.6h-11.3c-0.9,0-1.7,0.8-1.7,1.7v2.3c0,0.9,0.8,1.7,1.7,1.7c0.9,0,1.7-0.8,1.7-1.7v-0.6h9.6
		c0.9,0,1.7-0.8,1.7-1.7C463.9,1694.4,463.1,1693.6,462.2,1693.6z"/>
	<path class="st0" d="M317.2,1785.5h-13.5c-0.9,0-1.7,0.8-1.7,1.7c0,0.9,0.8,1.7,1.7,1.7h13.5c0.9,0,1.7-0.8,1.7-1.7
		C318.9,1786.3,318.2,1785.5,317.2,1785.5z"/>
	<path class="st0" d="M563.7,1693.6h-13.5c-0.9,0-1.7,0.8-1.7,1.7c0,0.9,0.8,1.7,1.7,1.7h13.5c0.9,0,1.7-0.8,1.7-1.7
		C565.4,1694.4,564.6,1693.6,563.7,1693.6z"/>
	<path class="st0" d="M597.5,1693.6H584c-0.9,0-1.7,0.8-1.7,1.7c0,0.9,0.8,1.7,1.7,1.7h13.5c0.9,0,1.7-0.8,1.7-1.7
		C599.2,1694.4,598.5,1693.6,597.5,1693.6z"/>
	<path class="st0" d="M384.9,1785.5h-13.5c-0.9,0-1.7,0.8-1.7,1.7c0,0.9,0.8,1.7,1.7,1.7h13.5c0.9,0,1.7-0.8,1.7-1.7
		C386.6,1786.3,385.8,1785.5,384.9,1785.5z"/>
	<path class="st0" d="M450.9,1716.2c-0.9,0-1.7,0.8-1.7,1.7v13.5c0,0.9,0.8,1.7,1.7,1.7c0.9,0,1.7-0.8,1.7-1.7v-13.5
		C452.6,1717,451.9,1716.2,450.9,1716.2z"/>
	<path class="st0" d="M351.1,1785.5h-13.5c-0.9,0-1.7,0.8-1.7,1.7c0,0.9,0.8,1.7,1.7,1.7h13.5c0.9,0,1.7-0.8,1.7-1.7
		C352.8,1786.3,352,1785.5,351.1,1785.5z"/>
	<path class="st0" d="M450.9,1750c-0.9,0-1.7,0.8-1.7,1.7v13.5c0,0.9,0.8,1.7,1.7,1.7c0.9,0,1.7-0.8,1.7-1.7v-13.5
		C452.6,1750.8,451.9,1750,450.9,1750z"/>
	<path class="st0" d="M450.9,1783.9c-0.9,0-1.7,0.7-1.7,1.6H439c-0.9,0-1.7,0.8-1.7,1.7c0,0.9,0.8,1.7,1.7,1.7h11.9
		c0.9,0,1.7-0.8,1.7-1.7v-1.6C452.6,1784.6,451.9,1783.9,450.9,1783.9z"/>
</g>
</svg>
