<svg id="Layer_1" data-name="Layer 1" xmlns="http://www.w3.org/2000/svg" width="34.82" height="35" viewBox="0 0 34.82 35"><title>attract-high-value-customers</title><rect x="9.02" y="9.2" width="17.11" height="17.11" rx="2" style="fill:#8323ed"/><path d="M32,35H18.77a2.9,2.9,0,0,1-2.91-2.9V18.86A2.91,2.91,0,0,1,18.77,16H32a2.9,2.9,0,0,1,2.9,2.91V32.1A2.9,2.9,0,0,1,32,35ZM18.77,17.89a1,1,0,0,0-1,1V32.1a1,1,0,0,0,1,1H32a1,1,0,0,0,1-1V18.86a1,1,0,0,0-1-1Z" transform="translate(-0.09)" style="fill:#2edaff"/><path d="M7.23,8a1,1,0,0,1-.68-.28L2.11,3.31A1,1,0,0,1,3.48,1.94L7.92,6.38A1,1,0,0,1,7.23,8Z" transform="translate(-0.09)" style="fill:#2edaff"/><path d="M5.5,15.48a1,1,0,0,1-.69-.28L.37,10.76a1,1,0,0,1,0-1.37,1,1,0,0,1,1.37,0l4.44,4.44a1,1,0,0,1,0,1.37A.94.94,0,0,1,5.5,15.48Z" transform="translate(-0.09)" style="fill:#2edaff"/><path d="M15.14,6.38a1,1,0,0,1-.68-.29L10,1.65A1,1,0,0,1,10,.28a1,1,0,0,1,1.37,0l4.44,4.45a1,1,0,0,1,0,1.36A.94.94,0,0,1,15.14,6.38Z" transform="translate(-0.09)" style="fill:#2edaff"/></svg>