<svg xmlns="http://www.w3.org/2000/svg" width="42.5" height="37.26" viewBox="0 0 42.5 37.26"><title>customer-selfserve-portel</title><g id="Layer_2" data-name="Layer 2"><g id="Layer_1-2" data-name="Layer 1"><path d="M5.81,35.66c1.61-3,6.48-9.26,19.32-9.76,0,0,13.76.17,17.3,9.9a1.09,1.09,0,0,1-1,1.46H6.78A1.09,1.09,0,0,1,5.81,35.66Z" style="fill:#aa84f0"/><path d="M39,34.9a16.68,16.68,0,0,0-8.86-8.57l-4.49-1.86a9.25,9.25,0,0,0,1.74-4.36l.1-.79a1,1,0,0,0,1.3-.94V9.45a9.45,9.45,0,0,0-18.9,0v8.93a1,1,0,0,0,1,1,1,1,0,0,0,.17,0l.18,1.24A9.42,9.42,0,0,0,13,24.67L9,26.33A16.68,16.68,0,0,0,.09,34.9a1,1,0,0,0,.5,1.32,1,1,0,0,0,.41.09,1,1,0,0,0,.91-.59,14.72,14.72,0,0,1,7.8-7.55l4.69-1.93A7.38,7.38,0,0,0,24.31,26a1.15,1.15,0,0,0,.28.19l4.83,2a14.72,14.72,0,0,1,7.8,7.55,1,1,0,0,0,.91.59A1,1,0,0,0,39,34.9Zm-16-10.47a5.42,5.42,0,0,1-7.55.14,7.38,7.38,0,0,1-2.25-4.27L12.1,12.49c7.08.35,10.4-1.77,11.87-3.35a8.41,8.41,0,0,0,2.48,2.67l-1,8a7.35,7.35,0,0,1-2.08,4.26Z" style="fill:#28145a"/></g></g></svg>