<svg xmlns="http://www.w3.org/2000/svg" width="29.45" height="40.81" viewBox="0 0 29.45 40.81"><title>discount-management-tailor-made-for-subscription-businesses</title><g id="Layer_2" data-name="Layer 2"><g id="Layer_1-2" data-name="Layer 1"><path d="M29.08,27.51l-11.43,9.6a1,1,0,0,1-1.35,0L4.87,27.51a1.06,1.06,0,0,1-.38-.81V1.05a1,1,0,0,1,1-1H28.4a1,1,0,0,1,1.05,1.05V26.7A1.08,1.08,0,0,1,29.08,27.51Z" style="fill:#c2a9ff"/><path d="M24.8,2.88H1a1,1,0,0,0-1,1V29.81a1,1,0,0,0,.36.77l11.9,10a1,1,0,0,0,1.28,0l11.9-10a1,1,0,0,0,.36-.77V3.88A1,1,0,0,0,24.8,2.88Zm-1,26.47L12.9,38.51,2,29.35V4.88H23.8Z" style="fill:#28145a"/><path d="M6.6,24a1,1,0,0,1-.71-1.71l12.6-12.6a1,1,0,0,1,1.42,0,1,1,0,0,1,0,1.41L7.31,23.69A1,1,0,0,1,6.6,24Z" style="fill:#28145a"/><circle cx="8.67" cy="12.45" r="2.07" style="fill:#28145a"/><circle cx="17.13" cy="20.92" r="2.07" style="fill:#28145a"/></g></g></svg>