<?xml version="1.0" encoding="utf-8"?>
<!-- Generator: Adobe Illustrator 24.0.1, SVG Export Plug-In . SVG Version: 6.00 Build 0)  -->
<svg version="1.1" id="Layer_1" xmlns="http://www.w3.org/2000/svg" xmlns:xlink="http://www.w3.org/1999/xlink" x="0px" y="0px"
	 width="43.7px" height="31.2px" viewBox="0 0 43.7 31.2" style="enable-background:new 0 0 43.7 31.2;" xml:space="preserve">
<style type="text/css">
	.st0{fill:#C2A9FF;}
	.st1{fill:#28145A;}
</style>
<title>enable-a-frictionless-quote-to-cash-process</title>
<g>
	<g>
		<path class="st0" d="M15.7,7.5V5.1c0-0.3-0.3-0.6-0.7-0.3l-8.8,6c-0.2,0.1-0.2,0.6,0,0.7l8.8,6c0.2,0.2,0.7,0,0.7-0.3v-2.4
			c0-0.2,0.2-0.4,0.4-0.4h10.1c0.2,0,0.4-0.2,0.4-0.4V8.2c0-0.2-0.2-0.4-0.4-0.4H16.1C15.9,7.9,15.7,7.7,15.7,7.5z"/>
	</g>
	<g>
		<path class="st0" d="M30.5,28v2.4c0,0.3,0.3,0.6,0.7,0.3l8.8-6c0.2-0.1,0.2-0.6,0-0.7l-8.8-6c-0.2-0.2-0.7,0-0.7,0.3V21
			c0,0.2-0.2,0.4-0.4,0.4H20c-0.2,0-0.4,0.2-0.4,0.4v5.5c0,0.2,0.2,0.4,0.4,0.4h10.1C30.3,27.6,30.5,27.8,30.5,28z"/>
	</g>
	<g>
		<path class="st1" d="M24.5,11.1V4.9c0-0.6-0.4-1-1-1h-9.9V1.3c0-0.3-0.2-0.8-0.6-0.9c-0.3-0.2-0.8-0.1-1,0L2,7.2
			C1.8,7.4,1.6,7.7,1.6,8.1S1.8,8.7,2,8.8l10,6.7c0.2,0.1,0.3,0.2,0.6,0.2c0.1,0,0.3,0,0.4-0.1c0.3-0.2,0.6-0.6,0.6-0.9v-2.5h9.9
			C24,12.1,24.5,11.7,24.5,11.1z"/>
		<path class="st1" d="M41.7,20.2l-10-6.7c-0.3-0.2-0.7-0.2-1,0c-0.3,0.2-0.6,0.6-0.6,0.9v2.5h-9.9c-0.6,0-1,0.4-1,1v6.3
			c0,0.6,0.4,1,1,1h9.9v2.5c0,0.3,0.2,0.8,0.6,0.9c0.1,0.1,0.3,0.1,0.4,0.1c0.2,0,0.4-0.1,0.6-0.2l10-6.7c0.3-0.2,0.4-0.6,0.4-0.9
			C42.1,20.5,41.9,20.4,41.7,20.2z M32.1,25.8v-1.7c0-0.6-0.4-1-1-1h-9.9v-4.3h9.9c0.6,0,1-0.4,1-1v-1.7l7.2,4.8L32.1,25.8z"/>
	</g>
</g>
</svg>
