<svg id="Layer_1" data-name="Layer 1" xmlns="http://www.w3.org/2000/svg" width="35" height="17.83" viewBox="0 0 35 17.83"><title>handle-terminations-gracefully</title><rect x="17.17" width="17.83" height="17.83" rx="2" style="fill:#8323ed"/><path d="M10.67,14a7.49,7.49,0,0,1-3.75-1,5.3,5.3,0,0,0-5.33,0,1,1,0,0,1-1.43-.32,1,1,0,0,1,.31-1.42,7.43,7.43,0,0,1,7.47,0,5.91,5.91,0,0,0,5.63,0,1,1,0,1,1,1,1.77A8.13,8.13,0,0,1,10.67,14Z" transform="translate(0 -8.59)" style="fill:#2edaff"/><path d="M10.67,24.77a7.49,7.49,0,0,1-3.75-1,5.35,5.35,0,0,0-5.33,0,1.05,1.05,0,0,1-1.43-.31A1,1,0,0,1,.47,22a7.39,7.39,0,0,1,7.47,0,5.88,5.88,0,0,0,5.63,0,1,1,0,0,1,1.41.37,1,1,0,0,1-.36,1.41A8.31,8.31,0,0,1,10.67,24.77Z" transform="translate(0 -8.59)" style="fill:#2edaff"/><path d="M10.67,19.4a7.49,7.49,0,0,1-3.75-1,5.33,5.33,0,0,0-5.33,0,1,1,0,0,1-1.43-.32,1,1,0,0,1,.31-1.42,7.43,7.43,0,0,1,7.47,0,5.88,5.88,0,0,0,5.63,0,1,1,0,0,1,1,1.78A8.31,8.31,0,0,1,10.67,19.4Z" transform="translate(0 -8.59)" style="fill:#2edaff"/></svg>