<svg id="Layer_1" data-name="Layer 1" xmlns="http://www.w3.org/2000/svg" width="30" height="29.93" viewBox="0 0 30 29.93"><title>improve-customer-experience</title><rect y="14.17" width="15.76" height="15.76" rx="2" style="fill:#8323ed"/><path d="M29.63,27.07H10.83A2.87,2.87,0,0,1,8,24.2V5.4a2.86,2.86,0,0,1,2.86-2.86h18.8A2.87,2.87,0,0,1,32.5,5.4V24.2A2.88,2.88,0,0,1,29.63,27.07ZM10.83,4.45a1,1,0,0,0-.95,1V24.2a1,1,0,0,0,.95,1h18.8a1,1,0,0,0,1-1V5.4a1,1,0,0,0-1-1Z" transform="translate(-2.5 -2.54)" style="fill:#2edaff"/></svg>