<?xml version="1.0" encoding="UTF-8"?>
<svg width="16px" height="16px" viewBox="0 0 16 16" version="1.1" xmlns="http://www.w3.org/2000/svg" xmlns:xlink="http://www.w3.org/1999/xlink">
    <!-- Generator: Sketch 63.1 (92452) - https://sketch.com -->
    <title>Shape Copy</title>
    <desc>Created with Sketch.</desc>
    <g id="Page-1" stroke="none" stroke-width="1" fill="none" fill-rule="evenodd">
        <g id="Best-recurring-payments-backlog" transform="translate(-830.000000, -3876.000000)" fill="#000FF0" fill-rule="nonzero">
            <g id="Group-33" transform="translate(247.000000, 3765.000000)">
                <g id="Group-13" transform="translate(583.000000, 108.000000)">
                    <path d="M9.77777778,3 L9.77777778,4.77777778 L12.9688889,4.77777778 L4.23111111,13.5155556 L5.48444444,14.7688889 L14.2222222,6.03111111 L14.2222222,9.22222222 L16,9.22222222 L16,3 M14.2222222,17.2222222 L1.77777778,17.2222222 L1.77777778,4.77777778 L8,4.77777778 L8,3 L1.77777778,3 C0.791111111,3 0,3.8 0,4.77777778 L0,17.2222222 C0,18.2040618 0.795938223,19 1.77777778,19 L14.2222222,19 C15.2040618,19 16,18.2040618 16,17.2222222 L16,11 L14.2222222,11 L14.2222222,17.2222222 Z" id="Shape-Copy"></path>
                </g>
            </g>
        </g>
    </g>
</svg>