<svg xmlns="http://www.w3.org/2000/svg" width="43.97" height="35.37" viewBox="0 0 43.97 35.37"><title>recover-failed-payments-and-maximize-revenue-opportunities</title><g id="Layer_2" data-name="Layer 2"><g id="Layer_1-2" data-name="Layer 1"><rect x="5" width="35.09" height="24.06" rx="0.95" style="fill:#c2a9ff"/><path d="M37.09,19.56V5a2,2,0,0,0-2-1.95H2A2,2,0,0,0,0,5V27.1a2,2,0,0,0,2,2h26.3a7.94,7.94,0,1,0,8.84-9.5ZM35.09,5V9.06H2V5ZM2,14.06H35.09v5.48a7.94,7.94,0,0,0-7,7.53L2,27.1Z" style="fill:#28145a"/><path d="M39.67,28.79a.73.73,0,0,0-1,.26,3.17,3.17,0,0,1-5.41.07l.43-.18a.48.48,0,0,0,.31-.45.5.5,0,0,0-.29-.46l-1.64-.76a.51.51,0,0,0-.4,0,.53.53,0,0,0-.28.29l-.62,1.7a.51.51,0,0,0,.47.67.48.48,0,0,0,.2,0l.44-.18a.56.56,0,0,0,0,.12,4.67,4.67,0,0,0,8,0A.73.73,0,0,0,39.67,28.79Z" style="fill:#fff"/><path d="M41.17,25.37a.48.48,0,0,0-.53-.1l-.48.2h0A4.68,4.68,0,0,0,31.9,25a.76.76,0,0,0,.26,1,.75.75,0,0,0,1-.26,3.18,3.18,0,0,1,5.59.25l-.4.16a.5.5,0,0,0-.31.45.52.52,0,0,0,.29.47l1.64.75a.54.54,0,0,0,.21.05.41.41,0,0,0,.19,0,.5.5,0,0,0,.28-.29l.62-1.7A.49.49,0,0,0,41.17,25.37Z" style="fill:#fff"/></g></g></svg>