<svg id="Layer_1" data-name="Layer 1" xmlns="http://www.w3.org/2000/svg" width="28.87" height="30" viewBox="0 0 28.87 30"><title>reduce-spam</title><path d="M30,10V25.41H19.48V10H30m0-2H17.5V27.4H30a2,2,0,0,0,2-2V10a2,2,0,0,0-2-2Z" transform="translate(-3.06 -2.5)" style="fill:#2edaff"/><path d="M3.06,8H9.55a2,2,0,0,1,2,2V25.4a2,2,0,0,1-2,2H3.06a0,0,0,0,1,0,0V8A0,0,0,0,1,3.06,8Z" transform="translate(11.55 32.9) rotate(180)" style="fill:#8323ed"/><path d="M14.52,32.5a1,1,0,0,1-1-1v-28a1,1,0,0,1,2,0v28A1,1,0,0,1,14.52,32.5Z" transform="translate(-3.06 -2.5)" style="fill:#2edaff"/></svg>