<svg xmlns="http://www.w3.org/2000/svg" width="38.69" height="42.07" viewBox="0 0 38.69 42.07"><title>secure-smart-checkout</title><g id="Layer_2" data-name="Layer 2"><g id="Layer_1-2" data-name="Layer 1"><path d="M20,4.07h0a4,4,0,0,0-1.51.34L5.47,10v8.27a20,20,0,0,0,4,12A22.85,22.85,0,0,0,20,38a22.8,22.8,0,0,0,10.53-7.75,20,20,0,0,0,4-12V10l-13-5.57A3.91,3.91,0,0,0,20,4.07Z" style="fill:#c2a9ff"/><path d="M35.48,26.07V23.19a5.08,5.08,0,0,0-2.88-4.56A20.87,20.87,0,0,0,32.78,16V7.4A1.26,1.26,0,0,0,32,6.25L18.46.46A5.14,5.14,0,0,0,16.4,0h0a5.14,5.14,0,0,0-2.06.46L.76,6.25A1.26,1.26,0,0,0,0,7.4V16A22,22,0,0,0,4.43,29.22,25,25,0,0,0,16,37.72a1.36,1.36,0,0,0,.86,0,27.65,27.65,0,0,0,3-1.32v1.3a4.37,4.37,0,0,0,4.37,4.37H34.32a4.37,4.37,0,0,0,4.37-4.37V30.27A4.37,4.37,0,0,0,35.48,26.07Zm-7.93,7a1.7,1.7,0,0,1,3.4,0,1.68,1.68,0,0,1-.84,1.45v1.22a.86.86,0,1,1-1.72,0V34.52A1.68,1.68,0,0,1,27.55,33.07ZM33,25.89H25.52v-2.7a2.59,2.59,0,0,1,2.59-2.58h2.28a2.8,2.8,0,0,1,.59.07,2.61,2.61,0,0,1,2,2.51ZM16.4,2.5a3,3,0,0,1,1.08.25l12.8,5.48V16a18.53,18.53,0,0,1-.13,2.11h-2A5.09,5.09,0,0,0,23,23.19v2.88a4.37,4.37,0,0,0-3.21,4.2v3.27a23.54,23.54,0,0,1-3.42,1.67,22.45,22.45,0,0,1-9.95-7.48A19.51,19.51,0,0,1,2.5,16V8.23L15.3,2.75a3,3,0,0,1,1.08-.25v0Z" style="fill:#28145a"/></g></g></svg>