<svg xmlns="http://www.w3.org/2000/svg" width="37.79" height="36.79" viewBox="0 0 37.79 36.79"><title>sell-across-geographies
with-global-tax-support</title><g id="Layer_2" data-name="Layer 2"><g id="Layer_1-2" data-name="Layer 1"><circle cx="20.9" cy="16.9" r="16.9" style="fill:#c2a9ff"/><path d="M17.9,1A17.9,17.9,0,1,0,35.79,18.9,17.92,17.92,0,0,0,17.9,1ZM33.74,17.9H25.13C25,12.29,23.84,6.62,21.71,3.48A15.92,15.92,0,0,1,33.74,17.9ZM17.9,34.79c-2.39,0-5-6.31-5.23-14.89H23.13C22.93,28.48,20.28,34.79,17.9,34.79ZM12.67,17.9C12.86,9.31,15.51,3,17.9,3s5,6.31,5.23,14.9ZM14.08,3.48C12,6.62,10.79,12.29,10.66,17.9H2.05A15.92,15.92,0,0,1,14.08,3.48ZM2.05,19.9h8.61c.13,5.6,1.3,11.27,3.42,14.41A15.91,15.91,0,0,1,2.05,19.9ZM21.71,34.31C23.84,31.17,25,25.5,25.13,19.9h8.61A15.91,15.91,0,0,1,21.71,34.31Z" style="fill:#28145a"/></g></g></svg>