<svg id="Layer_1" data-name="Layer 1" xmlns="http://www.w3.org/2000/svg" width="34.99" height="18.25" viewBox="0 0 34.99 18.25"><title>send-customer-emails</title><path d="M30.1,26.63H15.84a1.63,1.63,0,0,1-1.64-2l2.51-14.26a2.5,2.5,0,0,1,2.35-2H33.32a1.63,1.63,0,0,1,1.64,2L32.45,24.63A2.49,2.49,0,0,1,30.1,26.63Z" transform="translate(0 -8.37)" style="fill:#8323ed"/><path d="M13.8,10.63h-6a1,1,0,1,1,0-2h6a1,1,0,0,1,0,2Z" transform="translate(0 -8.37)" style="fill:#2edaff"/><path d="M13.22,15.14H4.81a1,1,0,1,1,0-2h8.41a1,1,0,0,1,0,2Z" transform="translate(0 -8.37)" style="fill:#2edaff"/><path d="M12.45,19.64H1a1,1,0,0,1,0-2H12.45a1,1,0,0,1,0,2Z" transform="translate(0 -8.37)" style="fill:#2edaff"/></svg>