<svg xmlns="http://www.w3.org/2000/svg" width="40.24" height="35.77" viewBox="0 0 40.24 35.77"><title>untap-new-revenue-potential-with-flexible-plans-and-pricing</title><g id="Layer_2" data-name="Layer 2"><g id="Layer_1-2" data-name="Layer 1"><path d="M9.64,10.26,37.82.68a1,1,0,0,1,1.32.95V22.69a1,1,0,0,1-1,1H10a1,1,0,0,1-1-1V11.2A1,1,0,0,1,9.64,10.26Z" style="fill:#c2a9ff"/><path d="M39.24,30.57H5.18V1a1,1,0,0,0-2,0V30.57H1a1,1,0,0,0,0,2H3.18v2.2a1,1,0,0,0,2,0v-2.2H39.24a1,1,0,0,0,0-2Z" style="fill:#28145a"/><path d="M10,27.16H15a1,1,0,0,0,1-1V13.65a1,1,0,0,0-1-1H10a1,1,0,0,0-1,1V26.16A1,1,0,0,0,10,27.16Zm1-12.51H14V25.16H11Z" style="fill:#28145a"/><path d="M20.12,27.16h5.06a1,1,0,0,0,1-1V9.67a1,1,0,0,0-1-1H20.12a1,1,0,0,0-1,1V26.16A1,1,0,0,0,20.12,27.16Zm1-16.49h3.06V25.16H21.12Z" style="fill:#28145a"/><path d="M30.28,27.16h5.06a1,1,0,0,0,1-1V5.69a1,1,0,0,0-1-1H30.28a1,1,0,0,0-1,1V26.16A1,1,0,0,0,30.28,27.16Zm1-20.47h3.06V25.16H31.28Z" style="fill:#28145a"/></g></g></svg>