<?xml version="1.0" encoding="UTF-8"?>
<svg width="72px" height="72px" viewBox="0 0 72 72" version="1.1" xmlns="http://www.w3.org/2000/svg" xmlns:xlink="http://www.w3.org/1999/xlink">
    <!-- Generator: Sketch 53 (72520) - https://sketchapp.com -->
    <title>Group 22</title>
    <desc>Created with Sketch.</desc>
    <g id="Page-3" stroke="none" stroke-width="1" fill="none" fill-rule="evenodd">
        <g id="Version-20-Copy" transform="translate(-186.000000, -5157.000000)">
            <g id="Group-68" transform="translate(0.000000, 4310.000000)">
                <g id="Group-55" transform="translate(186.000000, 847.000000)">
                    <g id="Group-22">
                        <g id="Group-3" transform="translate(0.000000, -0.000267)" fill="#FF7846">
                            <path d="M35.9996,0 C27.0009333,0 11.6276,1.26666667 6.3996,6.39733333 C0.920933333,11.772 -0.0004,26.9013333 -0.0004,36 C-0.0004,45.0986667 0.920933333,60.228 6.3996,65.6026667 C11.6276,70.7333333 27.0009333,72 35.9996,72 C44.9996,72 60.3729333,70.7333333 65.6009333,65.6026667 C71.0782667,60.228 71.9996,45.0986667 71.9996,36 C71.9996,26.9013333 71.0782667,11.772 65.6009333,6.39733333 C60.3729333,1.26666667 44.9996,0 35.9996,0 Z" id="Fill-1"></path>
                        </g>
                        <path d="M36.0110667,54.6484 C31.0244,54.6484 26.3444,52.7044 22.8164,49.1764 C19.2884,45.6484 17.3630667,40.9857333 17.3630667,36.0004 C17.3630667,31.0137333 19.3070667,26.3337333 22.8350667,22.8057333 C26.3444,19.2777333 31.0244,17.3510667 36.0110667,17.3510667 C38.6017333,17.3510667 41.1230667,17.8737333 43.4977333,18.9177333 C45.7844,19.9257333 47.8177333,21.3470667 49.5284,23.1657333 C49.9790667,23.6337333 49.9604,24.3897333 49.4924,24.8404 C49.0244,25.2897333 48.2684,25.2724 47.8177333,24.8030667 C46.3070667,23.2204 44.5417333,21.9777333 42.5444,21.0964 C40.4750667,20.1950667 38.2777333,19.7284 36.0110667,19.7284 C27.0284,19.7284 19.7204,27.0364 19.7204,36.0177333 C19.7204,45.0004 27.0284,52.3070667 36.0110667,52.3070667 C38.2777333,52.3070667 40.4750667,51.8577333 42.5444,50.9404 C44.5417333,50.0577333 46.3070667,48.8164 47.8177333,47.2324 C48.2684,46.7644 49.0070667,46.7457333 49.4924,47.1950667 C49.9604,47.6457333 49.9790667,48.3844 49.5284,48.8697333 C47.8004,50.6870667 45.7657333,52.1097333 43.4817333,53.1190667 C41.1230667,54.1257333 38.6204,54.6484 36.0110667,54.6484" id="Fill-4" fill="#FEFEFE"></path>
                        <path d="M36.0110667,50.9218667 C27.7844,50.9218667 21.0897333,44.2258667 21.0897333,36.0005333 C21.0897333,27.7738667 27.7844,21.0778667 36.0110667,21.0778667 C38.0977333,21.0778667 40.0964,21.4925333 42.0044,22.3205333 C43.8217333,23.1125333 45.4604,24.2645333 46.8284,25.7045333 C47.1350667,26.0098667 47.1164,26.5138667 46.7924,26.8205333 C46.4857333,27.1258667 45.9830667,27.1085333 45.6764,26.7832 C43.1390667,24.1192 39.7017333,22.6445333 36.0110667,22.6445333 C28.6497333,22.6445333 22.6537333,28.6378667 22.6537333,36.0005333 C22.6537333,43.3618667 28.6497333,49.3552 36.0110667,49.3552 C37.9897333,49.3552 39.9164,48.9245333 41.6990667,48.0965333 C42.0937333,47.9152 42.5630667,48.0778667 42.7430667,48.4738667 C42.9230667,48.8698667 42.7604,49.3378667 42.3657333,49.5178667 C40.3670667,50.4538667 38.2244,50.9218667 36.0110667,50.9218667" id="Fill-6" fill="#FEFEFE"></path>
                        <path d="M51.166,44.8021333 C51.706,45.1621333 51.8513333,45.8994667 51.49,46.4408 C51.1313333,46.9808 50.3926667,47.1234667 49.8526667,46.7648 C49.3126667,46.4034667 49.1686667,45.6648 49.5273333,45.1261333 C49.8886667,44.5674667 50.6273333,44.4248 51.166,44.8021333" id="Fill-8" fill="#FEFEFE"></path>
                        <path d="M36.0110667,57.6002667 C30.2324,57.6002667 24.8150667,55.3509333 20.7284,51.2816 C16.6604,47.1949333 14.4110667,41.7776 14.4110667,36.0002667 C14.4110667,30.2216 16.6604,24.8029333 20.7284,20.7176 C24.8150667,16.6496 30.2324,14.4002667 36.0110667,14.4002667 C39.0164,14.4002667 41.9324,15.0122667 44.6684,16.2002667 C47.3150667,17.3509333 49.6724,19.0082667 51.6524,21.1136 C51.9590667,21.4189333 51.9404,21.9242667 51.6164,22.2309333 C51.3110667,22.5362667 50.8070667,22.5176 50.5004,22.1936 C48.6470667,20.2496 46.4684,18.7202667 44.0204,17.6389333 C41.4830667,16.5229333 38.7830667,15.9656 35.9924,15.9656 C30.6470667,15.9656 25.6057333,18.0536 21.8257333,21.8336 C18.0457333,25.6136 15.9590667,30.6536 15.9590667,36.0002667 C15.9590667,41.3469333 18.0457333,46.3856 21.8257333,50.1656 C25.6057333,53.9456 30.6470667,56.0336 35.9924,56.0336 C36.7844,56.0336 37.5764,55.9802667 38.3510667,55.8896 C38.7830667,55.8362667 39.1790667,56.1416 39.2137333,56.5736 C39.2684,57.0069333 38.9630667,57.4029333 38.5310667,57.4376 C37.7030667,57.5456 36.8564,57.6002667 36.0110667,57.6002667" id="Fill-10" fill="#FEFEFE"></path>
                        <path d="M40.7806667,57.0416 C40.4206667,57.0416 40.0966667,56.7909333 40.0246667,56.4296 C39.9166667,56.0149333 40.1873333,55.5829333 40.6193333,55.4936 C43.3006667,54.8629333 45.7846667,53.7122667 47.998,52.0376 C48.3406667,51.7869333 48.8446667,51.8576 49.0966667,52.2002667 C49.3486667,52.5416 49.2766667,53.0456 48.934,53.2976 C46.5406667,55.0789333 43.8593333,56.3402667 40.9606667,57.0229333 C40.9073333,57.0416 40.8526667,57.0416 40.7806667,57.0416" id="Fill-12" fill="#FEFEFE"></path>
                        <path d="M50.2662667,51.9478667 C50.0502667,51.9478667 49.8516,51.8585333 49.6902667,51.6958667 C49.3849333,51.3718667 49.4036,50.8852 49.7276,50.5798667 C50.0156,50.3092 50.3022667,50.0225333 50.5902667,49.7158667 C50.8969333,49.3918667 51.3822667,49.3918667 51.7062667,49.6798667 C52.0302667,49.9852 52.0302667,50.4718667 51.7422667,50.7958667 C51.4369333,51.1198667 51.1302667,51.4252 50.8062667,51.7318667 C50.6622667,51.8758667 50.4636,51.9478667 50.2662667,51.9478667" id="Fill-14" fill="#FEFEFE"></path>
                        <path d="M44.0749333,48.4024 C43.8229333,48.4024 43.5896,48.2944 43.4269333,48.0784 C43.1749333,47.7170667 43.2656,47.2317333 43.6056,46.9810667 C44.4896,46.3504 44.9216,45.9890667 45.6762667,45.1984 C45.9829333,44.8917333 46.4682667,44.8744 46.7922667,45.1610667 C47.0989333,45.4677333 47.1162667,45.9544 46.8282667,46.2770667 C45.9829333,47.1784 45.4256,47.6090667 44.5242667,48.2584 C44.3802667,48.3477333 44.2362667,48.4024 44.0749333,48.4024" id="Fill-16" fill="#FEFEFE"></path>
                        <path d="M51.6712,21.1133333 C50.6992,20.0866667 49.6192,19.152 48.4672,18.3426667 C47.3138667,17.5306667 46.0725333,16.8293333 44.7765333,16.2533333 C43.3912,15.6413333 41.9325333,15.1746667 40.4565333,14.8506667 C38.9632,14.544 37.4325333,14.4 35.9032,14.4 C34.5525333,14.4 33.2018667,14.544 31.8885333,14.796 C30.5925333,15.048 29.2965333,15.4253333 28.0725333,15.912 C26.8485333,16.3986667 25.6605333,16.992 24.5445333,17.6946667 C23.4112,18.4146667 22.3485333,19.224 21.3592,20.124 C20.3685333,21.0413333 19.4512,22.0493333 18.6418667,23.1306667 C17.8485333,24.192 17.1458667,25.344 16.5712,26.5306667 C15.9938667,27.72 15.5272,28.9626667 15.1845333,30.24 C14.8245333,31.5186667 14.5898667,32.8506667 14.4818667,34.164 C14.3565333,35.5853333 14.3738667,37.008 14.5365333,38.412 C14.6992,39.8693333 15.0045333,41.3093333 15.4725333,42.7133333 C15.9218667,44.1 16.5165333,45.432 17.2365333,46.692 C17.9752,47.988 18.8738667,49.2306667 19.8658667,50.3466667 C20.8005333,51.3893333 21.8258667,52.344 22.9418667,53.1906667 C24.0045333,54 25.1392,54.7013333 26.3258667,55.296 C27.5152,55.8893333 28.7565333,56.376 30.0165333,56.736 C31.2952,57.096 32.6085333,57.348 33.9405333,57.4746667 C34.5885333,57.528 35.2365333,57.564 35.9032,57.564 C35.7578667,56.412 35.4712,55.2773333 35.0378667,54.216 C34.6245333,53.172 34.0672,52.1826667 33.4005333,51.2813333 C32.7352,50.3813333 31.9605333,49.572 31.0965333,48.852 C30.2325333,48.132 29.2778667,47.5373333 28.2538667,47.0706667 C28.0005333,46.944 27.7485333,46.836 27.4778667,46.7466667 C27.4072,46.728 27.3525333,46.692 27.2805333,46.6746667 C27.2618667,46.656 27.2272,46.656 27.1912,46.6386667 C27.1538667,46.62 27.1365333,46.5666667 27.1365333,46.512 C27.0832,46.3506667 27.0112,46.2053333 26.9378667,46.0626667 C26.7765333,45.756 26.5792,45.4853333 26.3632,45.2346667 C26.1458667,44.9813333 25.9125333,44.748 25.7138667,44.496 C24.9045333,43.5066667 24.2205333,42.408 23.7165333,41.22 C23.2125333,40.0493333 22.8885333,38.7906667 22.7445333,37.5306667 C22.6192,36.36 22.6365333,35.172 22.7992,34.0013333 C22.9605333,32.94 23.2485333,31.896 23.6618667,30.9066667 C24.0592,29.9333333 24.5805333,29.016 25.1925333,28.1693333 C25.8045333,27.324 26.5072,26.5493333 27.2992,25.8653333 C28.0898667,25.2 28.9552,24.624 29.8912,24.1386667 C30.8258667,23.652 31.8352,23.2733333 32.8605333,23.0226667 C33.9218667,22.7693333 35.0378667,22.644 36.1365333,22.644 C37.3965333,22.6613333 38.6565333,22.8426667 39.8632,23.2013333 C41.0498667,23.5626667 42.1845333,24.084 43.2285333,24.7506667 C43.7512,25.092 44.2552,25.4706667 44.7405333,25.884 C44.9752,26.1 45.2085333,26.316 45.4418667,26.5306667 C45.6765333,26.7653333 45.8925333,27 46.1445333,27.216 C47.1352,28.008 48.4845333,28.2773333 49.7085333,27.972 C50.9152,27.6653333 51.9218667,26.82 52.4445333,25.6866667 C52.8952,24.696 52.9298667,23.5266667 52.5525333,22.5 C52.3365333,21.9773333 52.0485333,21.5106667 51.6712,21.1133333 C49.6725333,19.0266667 53.2365333,22.7693333 51.6712,21.1133333" id="Fill-18" fill="#FEFEFE"></path>
                        <path d="M41.1230667,36 C41.1230667,33.1746667 38.8364,30.888 36.0110667,30.888 C33.1844,30.888 30.8990667,33.1746667 30.8990667,36 C30.8990667,38.8253333 33.1844,41.112 36.0110667,41.112 C38.8364,41.112 41.1230667,38.8253333 41.1230667,36" id="Fill-20" fill="#FEFEFE"></path>
                    </g>
                </g>
            </g>
        </g>
    </g>
</svg>