<svg xmlns="http://www.w3.org/2000/svg" width="36" height="35"><title>support24</title><desc>Created with Sketch.</desc><g id="Page-1" fill="none" opacity=".4"><g fill-rule="nonzero"><g><g><g id="Page-1"><g><g><path fill="#fff" d="M13.75 9.4c2.07-2.43 5.14-3.98 8.58-3.98 6.2 0 11.26 5.05 11.26 11.26 0 3.24-1.38 6.15-3.57 8.2l1.52 1.53c2.58-2.44 4.2-5.9 4.2-9.72 0-7.4-6.02-13.42-13.42-13.42-3.83 0-7.28 1.62-9.72 4.2l.06.06c.54.54.9 1.2 1.1 1.88"/><path fill="#646464" d="M20.47 4.34c0-.06-.02-1.22-.02-1.22 0-.63.5-1.13 1.14-1.13h1.47c.63 0 1.13.5 1.13 1.12v1.04c0 .02 0 .03 0 .05-1.24-.13-2.5-.1-3.73.14"/><g fill="#fff"><g><path d="M21.45 3.12v.08c.58-.06 1.17-.08 1.76-.06v-.02c0-.08-.05-.14-.13-.14H21.6c-.1 0-.15.06-.15.14m-.98 2.2c-.2 0-.4-.05-.57-.17-.22-.15-.37-.4-.4-.65-.02-.1-.03-.14-.04-1.37 0-1.18.95-2.14 2.13-2.14h1.47c1.17 0 2.13.95 2.13 2.12v1.04c0 .04 0 .12-.02.17-.07.53-.55.94-1.1.87-1.15-.14-2.3-.1-3.42.12-.07 0-.13 0-.2 0"/></g></g><path fill="#fff" d="M23 16.68c0 .37-.3.67-.67.67-.37 0-.67-.3-.67-.67 0-.36.3-.66.67-.66.37 0 .66.3.66.66"/><path fill="#fff" d="M22.33 16.36c-.18 0-.33.14-.33.32 0 .2.15.33.33.33.18 0 .33-.13.33-.32 0-.18-.15-.32-.33-.32m0 1.98c-.92 0-1.66-.74-1.66-1.66 0-.9.74-1.65 1.66-1.65.9 0 1.66.74 1.66 1.65 0 .92-.76 1.66-1.67 1.66"/><path fill="#fff" d="M27.6 19.78c-.1 0-.24-.02-.36-.07l-5.28-2.1c-.38-.16-.63-.53-.63-.94v-7.6c0-.55.45-1 1-1s1 .45 1 1V16l4.65 1.87c.5.2.76.78.55 1.3-.15.38-.53.6-.92.6"/><g fill="#fff"><g><path d="M25.6 23.7c-.38-.37-.9-.58-1.5-.58s-1.2.24-1.62.66l-2.66 2.65-.72-.4c-1.57-.87-3.74-2.07-6.02-4.36-2.3-2.3-3.5-4.46-4.38-6.04l-.4-.7 2.67-2.66c.88-.88.9-2.28.07-3.13l-4.92-4.9c-.38-.4-.9-.6-1.5-.6s-1.2.24-1.62.66L1.8 5.5l-.12.2c-.45.57-.82 1.22-1.1 1.92C.33 8.3.18 8.94.1 9.58c-.64 5.26 1.8 10.1 8.38 16.68 7.8 7.8 14.33 8.42 16.14 8.42.3 0 .5-.02.56-.03.67-.08 1.3-.24 1.95-.5.7-.26 1.35-.63 1.92-1.07l.28-.22 1.13-1.1c.87-.9.9-2.3.06-3.14l-4.9-4.9z"/></g></g></g></g></g></g></g></g></g></svg>