<?xml version="1.0" encoding="UTF-8" standalone="no"?>
<svg xmlns="http://www.w3.org/2000/svg" height="34px" width="37px" version="1.1" xmlns:xlink="http://www.w3.org/1999/xlink" viewBox="0 0 37 34"><!-- Generator: Sketch 44 (41411) - http://www.bohemiancoding.com/sketch -->
 <title>pci</title>
 <desc>Created with Sketch.</desc>
 <defs>
  <polygon id="path-1" points="22.895 27 22.895 0.5457 0.1977 0.5457 0.1977 27"/>
 </defs>
 <g id="Page-1" opacity="0.4" fill-rule="evenodd" fill="none">
  <g id="Desktop-HD-Copy-31" transform="translate(-970 -1836)">
   <g id="Group-5" transform="translate(970 1835)">
    <g id="pci">
     <g id="Page-1">
      <g id="Desktop-HD-Copy-5">
       <g id="Page-1">
        <g id="Group-5" fill-rule="nonzero" fill="#fff" transform="translate(0 0.0344)">
         <g id="Fill-3-Clipped">
          <path id="Fill-3" d="m21.672 0.9656h-19.078c-1.4303 0-2.5943 1.163-2.5943 2.594v2.571 14.718c0 1.429 1.164 2.593 2.594 2.593h10.043c-0.149-0.659-0.258-1.326-0.329-2h-9.7143c-0.327 0-0.594-0.266-0.594-0.593v-13.718l20.265-0.0004v0.403l0.943-0.403 0.369-0.158c0.125-0.053 0.249-0.077 0.373-0.12 0.106-0.036 0.21-0.073 0.315-0.102v-0.62-2.571c0-1.431-1.163-2.594-2.593-2.594"/>
         </g>
        </g>
        <path id="Fill-6" fill-rule="nonzero" fill="#fff" d="m15.468 9.1045h-10.938c-0.2764 0-0.5004 0.224-0.5004 0.5s0.224 0.4995 0.5 0.4995h10.938c0.276 0 0.5-0.2235 0.5-0.4995s-0.224-0.5-0.5-0.5"/>
        <path id="Fill-8" fill-rule="nonzero" fill="#fff" d="m11.039 11.98c0-0.276-0.224-0.5-0.5-0.5h-3.0051c-0.276 0-0.5 0.224-0.5 0.5s0.224 0.5 0.5 0.5h3.0051c0.276 0 0.5-0.224 0.5-0.5"/>
        <path id="Fill-10" fill-rule="nonzero" fill="#fff" d="m4.5301 12.48h1.437c0.277 0 0.5-0.224 0.5-0.5s-0.223-0.5-0.5-0.5h-1.437c-0.276 0-0.5 0.224-0.5 0.5s0.224 0.5 0.5 0.5"/>
        <path id="Fill-12" fill-rule="nonzero" fill="#fff" d="m4.5301 14.854h4.32c0.277 0 0.5-0.224 0.5-0.5s-0.223-0.5-0.5-0.5h-4.32c-0.276 0-0.5 0.224-0.5 0.5s0.224 0.5 0.5 0.5"/>
        <path id="Fill-14" fill-rule="nonzero" fill="#fff" d="m10.539 14.854h1.659v-1h-1.659c-0.276 0-0.5 0.224-0.5 0.5s0.224 0.5 0.5 0.5"/>
        <path id="Fill-16" fill-rule="nonzero" fill="#fff" d="m4.8221 4.2812c0 0.454-0.369 0.822-0.823 0.822-0.455 0-0.823-0.368-0.823-0.822 0-0.455 0.368-0.823 0.823-0.823 0.454 0 0.823 0.368 0.823 0.823"/>
        <path id="Fill-18" fill-rule="nonzero" fill="#fff" d="m7.6131 4.2812c0 0.454-0.368 0.822-0.822 0.822-0.455 0-0.824-0.368-0.824-0.822 0-0.455 0.369-0.823 0.824-0.823 0.454 0 0.822 0.368 0.822 0.823"/>
        <g id="Group-22" transform="translate(14 8.0344)">
         <g id="Fill-20-Clipped">
          <mask id="mask-2" fill="white">
           <use xlink:href="#path-1"/>
          </mask>
          <path id="Combined-Shape" fill-rule="nonzero" fill="#fff" mask="url(#mask-2)" d="m11.543 0.5457h0.008c0.407 0.001 0.805 0.108 1.175 0.267l10.166 4.344v6.4443c0 3.359-1.086 6.592-3.14 9.352-2.034 2.734-4.875 4.827-8.209 6.047-3.3337-1.22-6.1747-3.313-8.2087-6.047-2.054-2.76-3.14-5.993-3.14-9.352l-0.00004-6.4443 10.165-4.344c0.37-0.159 0.769-0.266 1.176-0.267h0.008zm-0.296 3.0258l-8.0667 3.3214v4.9801c0 2.721 0.9112 5.338 2.6385 7.573 1.4025 1.817 3.2595 3.283 5.4282 4.297v-20.172z"/>
         </g>
        </g>
       </g>
      </g>
     </g>
    </g>
   </g>
  </g>
 </g>
</svg>
