<?xml version="1.0" encoding="UTF-8"?>
<svg width="50px" height="60px" viewBox="0 0 50 60" version="1.1" xmlns="http://www.w3.org/2000/svg" xmlns:xlink="http://www.w3.org/1999/xlink">
    <!-- Generator: Sketch 53 (72520) - https://sketchapp.com -->
    <title>Group 38</title>
    <desc>Created with Sketch.</desc>
    <defs>
        <path d="M24.6286595,0 L0,10.9090909 L0,27.2727273 C0,42.4090909 10.508228,56.5636364 24.6286595,60 C38.7490909,56.5636364 49.257319,42.4090909 49.257319,27.2727273 L49.257319,10.9090909 L24.6286595,0 L24.6286595,0 Z M24.6286595,16.3636364 C28.4597843,16.3636364 32.2909091,19.3636364 32.2909091,23.1818182 L32.2909091,27.2727273 C33.9328197,27.2727273 35.5747304,28.9090909 35.5747304,30.8181818 L35.5747304,40.3636364 C35.5747304,42 33.9328197,43.6363636 32.0172573,43.6363636 L16.9664099,43.6363636 C15.3244992,43.6363636 13.6825886,42 13.6825886,40.0909091 L13.6825886,30.5454545 C13.6825886,28.9090909 15.3244992,27.2727273 16.9664099,27.2727273 L16.9664099,23.1818182 C16.9664099,19.3636364 20.7975347,16.3636364 24.6286595,16.3636364 L24.6286595,16.3636364 Z M24.6286595,19.6363636 C22.4394453,19.6363636 20.5238829,21 20.5238829,23.1818182 L20.5238829,27.2727273 L28.7334361,27.2727273 L28.7334361,23.1818182 C28.7334361,21 26.8178737,19.6363636 24.6286595,19.6363636 Z" id="path-1"></path>
    </defs>
    <g id="Page-3" stroke="none" stroke-width="1" fill="none" fill-rule="evenodd">
        <g id="Version-20-Copy" transform="translate(-695.000000, -4310.000000)">
            <g id="Group-68" transform="translate(0.000000, 4310.000000)">
                <g id="Group-48" transform="translate(396.000000, 0.000000)">
                    <g id="Group-38" transform="translate(299.000000, 0.000000)">
                        <rect id="Rectangle" fill="#9146FC" x="9" y="14" width="31.0207156" height="31.1111111"></rect>
                        <g id="shield-lock">
                            <g id="Group-37">
                                <mask id="mask-2" fill="white">
                                    <use xlink:href="#path-1"></use>
                                </mask>
                                <use id="Mask" fill="#E8DBFC" fill-rule="nonzero" xlink:href="#path-1"></use>
                            </g>
                        </g>
                    </g>
                </g>
            </g>
        </g>
    </g>
</svg>