<svg xmlns="http://www.w3.org/2000/svg" viewBox="0 0 31.11 43"><defs><style>.cls-1{fill:#e67558;}.cls-1,.cls-2{stroke:#1f1b4e;stroke-linejoin:round;stroke-width:3px;}.cls-2{fill:#c7bddd;}</style></defs><g id="Layer_2" data-name="Layer 2"><g id="Layer_1-2" data-name="Layer 1"><path class="cls-1" d="M28.89,29.18,17.29,40.79a2.47,2.47,0,0,1-3.47,0L2.21,29.18a2.46,2.46,0,0,1,0-3.46L4.94,23a13.35,13.35,0,0,0,21.22,0l2.73,2.73A2.44,2.44,0,0,1,28.89,29.18Z"/><path class="cls-2" d="M28.92,14.87A13.22,13.22,0,0,1,26.16,23l-8.87-8.88a2.45,2.45,0,0,0-3.47,0L4.94,23a13.22,13.22,0,0,1-2.76-8.12,13.37,13.37,0,0,1,26.74,0Z"/></g></g></svg>