<?xml version="1.0" encoding="UTF-8"?>
<svg width="60px" height="55px" viewBox="0 0 60 55" version="1.1" xmlns="http://www.w3.org/2000/svg" xmlns:xlink="http://www.w3.org/1999/xlink">
    <!-- Generator: Sketch 53.1 (72631) - https://sketchapp.com -->
    <title>Group 21</title>
    <desc>Created with Sketch.</desc>
    <defs>
        <polygon id="path-1" points="0.000297113331 0 59.9998555 0 59.9998555 16.5548778 0.000297113331 16.5548778"></polygon>
    </defs>
    <g id="Page-1" stroke="none" stroke-width="1" fill="none" fill-rule="evenodd">
        <g id="Desktop-HD-Copy-4" transform="translate(-775.000000, -654.000000)">
            <g id="Group-20" transform="translate(762.000000, 654.000000)">
                <g id="Group-21" transform="translate(13.000000, 0.000000)">
                    <g id="Group-12">
                        <path d="M37.15776,22.0932556 L37.15776,43.6239222 L50.87976,43.6239222 L50.87976,17.2825889 L41.87976,17.2825889 C39.27216,17.2825889 37.15776,19.4361444 37.15776,22.0932556" id="Fill-1" fill="#FFE7AB"></path>
                        <path d="M17.98248,43.6242889 L31.70328,43.6242889 L31.70328,17.2829556 L22.70448,17.2829556 C20.09688,17.2829556 17.98248,19.4365111 17.98248,22.0936222 L17.98248,43.6242889 Z" id="Fill-3" fill="#FFE7AB"></path>
                        <path d="M56.976,49.5205333 L3.024,49.5205333 C1.518,49.5205333 0.2976,50.7476444 0.2976,52.2607556 C0.2976,53.7726444 1.518,54.9997556 3.024,54.9997556 L56.976,54.9997556 C58.482,54.9997556 59.7024,53.7726444 59.7024,52.2607556 C59.7024,50.7476444 58.482,49.5205333 56.976,49.5205333" id="Fill-5" fill="#F6A200"></path>
                        <path d="M10.8246,16.3462444 C9.3186,16.3462444 8.097,17.5733556 8.097,19.0864667 L8.097,40.5878 L6.3378,40.5878 C4.8306,40.5878 3.6102,41.8149111 3.6102,43.3280222 C3.6102,44.8399111 4.8306,46.0670222 6.3378,46.0670222 L53.6622,46.0670222 C55.1694,46.0670222 56.3898,44.8399111 56.3898,43.3280222 C56.3898,41.8149111 55.1694,40.5878 53.6622,40.5878 L51.903,40.5878 L51.903,19.0864667 C51.903,17.5733556 50.6814,16.3462444 49.1754,16.3462444 C47.6694,16.3462444 46.449,17.5733556 46.449,19.0864667 L46.449,40.5878 L32.727,40.5878 L32.727,19.0864667 C32.727,17.5733556 31.5066,16.3462444 29.9994,16.3462444 C28.4934,16.3462444 27.273,17.5733556 27.273,19.0864667 L27.273,40.5878 L13.551,40.5878 L13.551,19.0864667 C13.551,17.5733556 12.3306,16.3462444 10.8246,16.3462444" id="Fill-7" fill="#F6A200"></path>
                        <g id="Group-11">
                            <mask id="mask-2" fill="white">
                                <use xlink:href="#path-1"></use>
                            </mask>
                            <g id="Clip-10"></g>
                            <path d="M58.2774,11.2675444 L30.0006,-0.000122222222 L1.7226,11.2675444 C0.3234,11.8261 -0.3618,13.4186556 0.1926,14.8254333 C0.7494,16.2309889 2.3322,16.9154333 3.7338,16.3617667 L30.0006,5.89465556 L56.2662,16.3617667 C56.5962,16.4913222 56.9358,16.5548778 57.2706,16.5548778 C58.3566,16.5548778 59.3826,15.8997667 59.8074,14.8254333 C60.3618,13.4186556 59.6778,11.8261 58.2774,11.2675444" id="Fill-9" fill="#F6A200" mask="url(#mask-2)"></path>
                        </g>
                    </g>
                </g>
            </g>
        </g>
    </g>
</svg>