<?xml version="1.0" encoding="utf-8"?>
<!-- Generator: Adobe Illustrator 24.1.2, SVG Export Plug-In . SVG Version: 6.00 Build 0)  -->
<svg version="1.1" id="Layer_1" xmlns="http://www.w3.org/2000/svg" xmlns:xlink="http://www.w3.org/1999/xlink" x="0px" y="0px"
	 viewBox="0 0 50 48.1" style="enable-background:new 0 0 50 48.1;" xml:space="preserve">
<style type="text/css">
	.st0{fill:#B9EDDF;}
	.st1{fill:#24BA96;}
	.st2{fill-rule:evenodd;clip-rule:evenodd;fill:#FFFFFF;}
</style>
<g>
	<path class="st0" d="M42.7,37.8H8.9V18.7c0-2.8,2.2-5,5-5h33.9v19.1C47.7,35.6,45.5,37.8,42.7,37.8z"/>
	<path class="st1" d="M42.7,0H7.2C3.3,0,0,3.3,0,7.2v25.6c0,4,3.3,7.2,7.2,7.2h15.5v3.6h-6.1c-1.2,0-2.2,1-2.2,2.2s1,2.2,2.2,2.2
		h16.7c1.2,0,2.2-1,2.2-2.2s-1-2.2-2.2-2.2h-6.1v-3.6h15.5c4,0,7.2-3.3,7.2-7.2V7.2C50,3.3,46.7,0,42.7,0z M45.5,32.8
		c0,1.5-1.2,2.8-2.8,2.8H7.2c-1.5,0-2.8-1.2-2.8-2.8V11.1h41V32.8z"/>
	<path id="Fill-7_7_" class="st2" d="M38.7,4c-0.9,0-1.6,0.7-1.6,1.5c0,0.8,0.7,1.5,1.6,1.5c0.9,0,1.6-0.7,1.6-1.5
		C40.3,4.7,39.6,4,38.7,4"/>
	<path id="Fill-7_6_" class="st2" d="M33.9,4c-0.9,0-1.6,0.7-1.6,1.5c0,0.8,0.7,1.5,1.6,1.5c0.9,0,1.6-0.7,1.6-1.5
		C35.5,4.7,34.8,4,33.9,4"/>
	<path id="Fill-7_5_" class="st2" d="M43.6,4C42.7,4,42,4.7,42,5.5c0,0.8,0.7,1.5,1.6,1.5c0.9,0,1.6-0.7,1.6-1.5
		C45.2,4.7,44.5,4,43.6,4"/>
	<g>
		<path class="st1" d="M24.1,30.5c-2.7-0.4-4.2-2.1-4.6-4.3l2.3-1.2c0.3,1.7,1,2.8,2.4,3.1v-4.1C21.7,23.6,20,22.3,20,20
			c0-2.1,1.6-3.5,4.1-3.7v-1.7h2v1.8c1.9,0.3,3.3,1.5,4,3.4l-2,1.2c-0.4-1.1-1-1.9-1.9-2.3v3.5c2.8,0.6,4.2,1.9,4.2,4.2
			c0,2-1.6,3.8-4.2,4.2v1.8h-2V30.5z M24.1,21.6v-3.1c-0.9,0.2-1.6,0.6-1.6,1.5C22.5,20.7,23,21.2,24.1,21.6z M26.1,24.6v3.6
			c1-0.2,1.6-0.9,1.6-1.8S27.2,25,26.1,24.6z"/>
	</g>
</g>
</svg>
