<?xml version="1.0" encoding="UTF-8"?>
<svg width="50px" height="45px" viewBox="0 0 50 45" version="1.1" xmlns="http://www.w3.org/2000/svg" xmlns:xlink="http://www.w3.org/1999/xlink">
    <!-- Generator: Sketch 53.1 (72631) - https://sketchapp.com -->
    <title>Group 10</title>
    <desc>Created with Sketch.</desc>
    <defs>
        <polygon id="path-1" points="0.0001 0 50 0 50 45 0.0001 45"></polygon>
    </defs>
    <g id="Page-1" stroke="none" stroke-width="1" fill="none" fill-rule="evenodd">
        <g id="Desktop-HD-Copy-4" transform="translate(-954.000000, -651.000000)">
            <g id="Group-19" transform="translate(939.000000, 651.000000)">
                <g id="Group-10" transform="translate(15.000000, 0.000000)">
                    <polygon id="Fill-1" fill="#E6DCFF" points="33.8525 10.7614 33.8525 7.0254 17.4065 10.7614"></polygon>
                    <g id="Group-9">
                        <path d="M45.4551,38.2502 L45.4551,17.5982 L10.6501,17.5982 C9.3961,17.5982 8.3771,18.6062 8.3771,19.8482 L8.3771,19.8872 L8.3771,40.5002 L43.1821,40.5002 C44.4351,40.5002 45.4551,39.4912 45.4551,38.2502" id="Fill-2" fill="#F8D1CC"></path>
                        <g id="Group-6">
                            <mask id="mask-2" fill="white">
                                <use xlink:href="#path-1"></use>
                            </mask>
                            <g id="Clip-5"></g>
                            <path d="M45.4541,38.2502 C45.4541,39.4912 44.4351,40.5002 43.1821,40.5002 L6.8181,40.5002 C5.5641,40.5002 4.5461,39.4912 4.5461,38.2502 L4.5461,17.5512 L4.5461,17.5122 C4.5461,16.2712 5.5641,15.2622 6.8181,15.2622 L43.1821,15.2622 C44.4351,15.2622 45.4541,16.2712 45.4541,17.5122 L45.4541,38.2502 Z M6.5771,10.0162 L30.5221,4.5752 C31.3831,4.3792 32.2601,4.5712 32.9301,5.1002 C33.2741,5.3712 33.8521,5.9702 33.8521,6.9332 L33.8521,10.7622 L6.8181,10.7622 C6.1941,10.7622 5.5931,10.8522 5.0171,11.0082 C5.3791,10.5292 5.9201,10.1652 6.5771,10.0162 L6.5771,10.0162 Z M43.1821,10.7622 L38.3971,10.7622 L38.3971,6.9332 C38.3971,4.8512 37.4361,2.9002 35.7621,1.5802 C34.0021,0.1932 31.7241,-0.3128 29.5061,0.1892 L5.5601,5.6302 C2.2861,6.3732 0.0001,9.1462 0.0001,12.3742 L0.0001,17.5122 L0.0001,17.5512 L0.0001,38.2502 C0.0001,41.9722 3.0581,45.0002 6.8181,45.0002 L43.1821,45.0002 C46.9411,45.0002 50.0001,41.9722 50.0001,38.2502 L50.0001,17.5122 C50.0001,13.7892 46.9411,10.7622 43.1821,10.7622 L43.1821,10.7622 Z" id="Fill-4" fill="#FF6D34" mask="url(#mask-2)"></path>
                        </g>
                        <path d="M38.2227,19.6486 C36.7067,19.6486 35.4787,20.8096 35.4787,22.2426 C35.4787,23.6736 36.7067,24.8356 38.2227,24.8356 C39.7397,24.8356 40.9677,23.6736 40.9677,22.2426 C40.9677,20.8096 39.7397,19.6486 38.2227,19.6486" id="Fill-7" fill="#FF6D34"></path>
                    </g>
                </g>
            </g>
        </g>
    </g>
</svg>