<?xml version="1.0" encoding="UTF-8"?>
<svg width="50px" height="38px" viewBox="0 0 50 38" version="1.1" xmlns="http://www.w3.org/2000/svg" xmlns:xlink="http://www.w3.org/1999/xlink">
    <!-- Generator: Sketch 53.1 (72631) - https://sketchapp.com -->
    <title>Group 10</title>
    <desc>Created with Sketch.</desc>
    <defs>
        <polygon id="path-1" points="0 0.0002 49.9996 0.0002 49.9996 38 0 38"></polygon>
    </defs>
    <g id="Page-1" stroke="none" stroke-width="1" fill="none" fill-rule="evenodd">
        <g id="Desktop-HD-Copy-4" transform="translate(-419.000000, -655.000000)">
            <g id="Group-24" transform="translate(405.000000, 655.000000)">
                <g id="Group-10" transform="translate(14.000000, 0.000000)">
                    <g id="Group-3">
                        <mask id="mask-2" fill="white">
                            <use xlink:href="#path-1"></use>
                        </mask>
                        <g id="Clip-2"></g>
                        <path d="M43.1816,33.2502 L6.8186,33.2502 C5.5646,33.2502 4.5456,32.1852 4.5456,30.8752 L4.5456,18.4652 L45.4546,18.4652 L45.4546,30.8752 C45.4546,32.1852 44.4356,33.2502 43.1816,33.2502 M6.8186,4.7502 L43.1816,4.7502 C44.4356,4.7502 45.4546,5.8152 45.4546,7.1252 L45.4546,8.9652 L4.5456,8.9652 L4.5456,7.1252 C4.5456,5.8152 5.5646,4.7502 6.8186,4.7502 M43.1816,0.0002 L6.8186,0.0002 C3.0586,0.0002 -0.0004,3.1962 -0.0004,7.1252 L-0.0004,30.8752 C-0.0004,34.8042 3.0586,38.0002 6.8186,38.0002 L43.1816,38.0002 C46.9416,38.0002 49.9996,34.8042 49.9996,30.8752 L49.9996,7.1252 C49.9996,3.1962 46.9416,0.0002 43.1816,0.0002" id="Fill-1" fill="#5A27D2" mask="url(#mask-2)"></path>
                    </g>
                    <path d="M40.2466,23.9416 L30.3006,23.9416 C29.0456,23.9416 28.0286,25.0046 28.0286,26.3166 C28.0286,27.6296 29.0456,28.6916 30.3006,28.6916 L40.2466,28.6916 C41.5016,28.6916 42.5196,27.6296 42.5196,26.3166 C42.5196,25.0046 41.5016,23.9416 40.2466,23.9416" id="Fill-4" fill="#5A27D2"></path>
                    <path d="M30.3008,23.9426 L40.2468,23.9426 C41.5018,23.9426 42.5198,25.0046 42.5198,26.3176 C42.5198,27.6296 41.5018,28.6926 40.2468,28.6926 L30.3008,28.6926 C29.0458,28.6926 28.0288,27.6296 28.0288,26.3176 C28.0288,25.0046 29.0458,23.9426 30.3008,23.9426 L30.3008,23.9426 Z M43.1818,33.2506 C44.4348,33.2506 45.4548,32.1846 45.4548,30.8756 L45.4548,18.4646 L10.2738,18.4646 L10.2738,33.2506 L43.1818,33.2506 Z" id="Fill-6" fill="#E6DCFF"></path>
                    <path d="M12.7378,8.965 L45.4548,8.965 L45.4548,7.318 L17.0918,7.318 C15.4378,7.318 13.9198,7.937 12.7378,8.965" id="Fill-8" fill="#E6DCFF"></path>
                </g>
            </g>
        </g>
    </g>
</svg>