<?xml version="1.0" encoding="utf-8"?>
<!-- Generator: Adobe Illustrator 24.0.1, SVG Export Plug-In . SVG Version: 6.00 Build 0)  -->
<svg version="1.1" id="Layer_1" xmlns="http://www.w3.org/2000/svg" xmlns:xlink="http://www.w3.org/1999/xlink" x="0px" y="0px"
	 width="42.3px" height="34.7px" viewBox="0 0 42.3 34.7" style="enable-background:new 0 0 42.3 34.7;" xml:space="preserve">
<style type="text/css">
	.st0{fill:#C2A9FF;}
	.st1{fill:#28145A;}
</style>
<title>accounting-partners</title>
<g id="Layer_2_1_">
	<g id="Layer_1-2">
		<path class="st0" d="M5.4,9.5H41c0.7,0,1.3,0.6,1.3,1.3v22.6c0,0.7-0.6,1.3-1.3,1.3H5.4c-0.7,0-1.3-0.6-1.3-1.3V10.8
			C4.1,10.1,4.6,9.5,5.4,9.5z"/>
		<path class="st1" d="M39.1,5.6H26.4V1c0-0.5-0.4-1-1-1H14.7c-0.6,0-1,0.4-1,1v4.6H1c-0.5,0-1,0.5-0.9,1v24.8c0,0.6,0.4,1,1,1h38.1
			c0.6,0,1-0.4,1-1V6.6C40.1,6,39.7,5.6,39.1,5.6z M15.6,1.9h8.9v3.7h-8.9V1.9z M38.2,7.5V13H1.9V7.5H38.2z M18,14.9h4v1.5h-4V14.9z
			 M1.9,30.4V14.9h14.2v2.4c0,0.5,0.4,1,1,1H23c0.5,0,1-0.5,1-1v-2.4h14.2v15.5H1.9z"/>
	</g>
</g>
</svg>
