<svg id="Layer_1" data-name="Layer 1" xmlns="http://www.w3.org/2000/svg" width="35" height="35" viewBox="0 0 35 35"><title>adaptable-with-other-workflows</title><g id="Layer_2" data-name="Layer 2"><g id="Layer_1-2" data-name="Layer 1-2"><rect x="1" y="1" width="33" height="33" rx="3" style="fill:#fcfcfc"/><path d="M31,0H4A4,4,0,0,0,0,4V31a4,4,0,0,0,4,4H31a4,4,0,0,0,4-4V4A4,4,0,0,0,31,0Zm2,31a2,2,0,0,1-2,2H4a2,2,0,0,1-2-2V18.39H6.17a.32.32,0,0,1,.33.32.51.51,0,0,1,0,.13,2.74,2.74,0,0,0,.24,2.64,2.9,2.9,0,0,0,5.38-1.54,2.78,2.78,0,0,0-.23-1.1.33.33,0,0,1,.18-.43.31.31,0,0,1,.13,0h5.2s0,0,.06,0a1,1,0,0,0,1-1v-6.3a1,1,0,0,0-1-1,1.06,1.06,0,0,0-.57.2l-.11.08-.05.05a.77.77,0,0,0-.18.18,1.88,1.88,0,0,1-1.7.89,2.14,2.14,0,0,1-2-1.29A2.23,2.23,0,0,1,16.63,8a1,1,0,0,0,1.79-.8s0-.06,0-.09V2H31a2,2,0,0,1,2,2Z" style="fill:#020202"/></g></g></svg>