<svg id="Layer_1" data-name="Layer 1" xmlns="http://www.w3.org/2000/svg" width="35" height="34.86" viewBox="0 0 35 34.86"><title>automate-accounting-compliance</title><g id="Layer_2" data-name="Layer 2"><g id="Layer_1-2" data-name="Layer 1-2"><g id="Automate_Accounting_and_compliance" data-name="Automate Accounting and compliance"><path d="M25,23.43V17.22a3.3,3.3,0,0,0-2.4-3.15V11.45a4.19,4.19,0,0,0-4.17-4.17H16.54a4.19,4.19,0,0,0-4.17,4.17v2.62A3.3,3.3,0,0,0,10,17.22v6.21a3.31,3.31,0,0,0,3.29,3.29H21.7A3.31,3.31,0,0,0,25,23.43Zm-8.9-3.86a1.4,1.4,0,1,1,2.8,0,1.42,1.42,0,0,1-.7,1.22v1a.71.71,0,0,1-1.42,0v-1a1.39,1.39,0,0,1-.68-1.2ZM14.4,11.45a2.14,2.14,0,0,1,2.14-2.14h1.88a2.14,2.14,0,0,1,2.15,2.14v2.48H14.4Z" transform="translate(0)" style="fill:#231f20"/><path d="M24.78,6.73h4.3a1.21,1.21,0,0,0,1.21-1.21V1.22A1.22,1.22,0,0,0,29.08,0h-4.3a1.22,1.22,0,0,0-1.22,1.22v4.3A1.22,1.22,0,0,0,24.78,6.73ZM25.59,2h2.68V4.71H25.59Z" transform="translate(0)" style="fill:#231f20"/><path d="M5.92,6.73h4.3a1.22,1.22,0,0,0,1.22-1.21V1.22A1.22,1.22,0,0,0,10.22,0H5.92A1.21,1.21,0,0,0,4.71,1.22v4.3A1.21,1.21,0,0,0,5.92,6.73ZM6.73,2H9.41V4.71H6.73Z" transform="translate(0)" style="fill:#231f20"/><path d="M10.22,28.13H5.92a1.21,1.21,0,0,0-1.21,1.21v4.31a1.21,1.21,0,0,0,1.21,1.21h4.3a1.22,1.22,0,0,0,1.22-1.21v-4.3A1.22,1.22,0,0,0,10.22,28.13Zm-.81,4.71H6.73V30.16H9.41Z" transform="translate(0)" style="fill:#231f20"/><path d="M29.08,28.13h-4.3a1.22,1.22,0,0,0-1.22,1.21v4.31a1.22,1.22,0,0,0,1.22,1.21h4.3a1.21,1.21,0,0,0,1.21-1.21v-4.3A1.22,1.22,0,0,0,29.08,28.13Zm-.81,4.71H25.59V30.16h2.68Z" transform="translate(0)" style="fill:#231f20"/><path d="M33.78,14.06H29.49a1.22,1.22,0,0,0-1.22,1.22v4.3a1.22,1.22,0,0,0,1.21,1.22h4.3A1.22,1.22,0,0,0,35,19.58h0v-4.3A1.22,1.22,0,0,0,33.78,14.06ZM33,18.77H30.29V16.09H33Z" transform="translate(0)" style="fill:#231f20"/><path d="M6.73,19.58v-4.3a1.21,1.21,0,0,0-1.21-1.21H1.22A1.22,1.22,0,0,0,0,15.28v4.3A1.22,1.22,0,0,0,1.21,20.8H5.52a1.22,1.22,0,0,0,1.21-1.22Zm-2-.81H2V16.09H4.71Z" transform="translate(0)" style="fill:#231f20"/></g></g></g></svg>