<svg xmlns="http://www.w3.org/2000/svg" width="35.11" height="45" viewBox="0 0 35.11 45"><title>build-or-buy</title><g id="Layer_2" data-name="Layer 2"><g id="Layer_1-2" data-name="Layer 1"><rect x="4.09" y="4.05" width="31.02" height="40.95" rx="1.64" style="fill:#c2a9ff"/><path d="M12.62,15H27.13a1,1,0,0,0,1-1V8.7a1,1,0,0,0-1-1H12.62a1,1,0,0,0-1,1V14A1,1,0,0,0,12.62,15Zm1-5.26H26.11v3.21H13.65Z" style="fill:#28145a"/><path d="M12.62,22H27.13a1,1,0,1,0,0-2H12.62a1,1,0,0,0,0,2Z" style="fill:#28145a"/><path d="M27.13,24.72H12.62a1,1,0,1,0,0,2.05H27.13a1,1,0,0,0,0-2.05Z" style="fill:#28145a"/><path d="M31.76,0H1A1,1,0,0,0,0,1V41.65a1,1,0,0,0,1,1H31.76a1,1,0,0,0,1-1V1A1,1,0,0,0,31.76,0Zm-1,40.63H8.19V2.05H30.74Z" style="fill:#28145a"/></g></g></svg>