<svg id="Layer_1" data-name="Layer 1" xmlns="http://www.w3.org/2000/svg" width="32.27" height="35" viewBox="0 0 32.27 35"><title>close-book-faster</title><g id="Layer_2" data-name="Layer 2"><g id="Layer_1-2" data-name="Layer 1-2"><g id="Close_Book_faster" data-name="Close Book faster"><path d="M32.06,3.1a1,1,0,0,0-.67-.38L9.92,0A1,1,0,0,0,8.8.88L8.31,4.73H25.22a1,1,0,0,1,1,1h0V31.2a.43.43,0,0,1,0,.05,1,1,0,0,1-.28.66l-.29.29,2,.25h.12a1,1,0,0,0,1-.89l3.5-27.73A1,1,0,0,0,32.06,3.1Z" transform="translate(0 0)" style="fill:#020202"/><path d="M24.21,5.74H1a1,1,0,0,0-1,1V34a1,1,0,0,0,1,1h19.4a1,1,0,0,0,.38-.08.81.81,0,0,0,.29-.19l0,0L23.85,32l.9-.9.17-.17h0a1,1,0,0,0,.2-.29l0-.1a1.1,1.1,0,0,0,.06-.26s0,0,0-.06V6.75A1,1,0,0,0,24.21,5.74ZM2,7.76H23.2V29.18H20.41a1.06,1.06,0,0,0-1,1V33H2Z" transform="translate(0 0)" style="fill:#020202"/><path d="M6,23a1.16,1.16,0,0,0,.37.07H18.84a1,1,0,0,0,0-2H6.38l-.13,0a1,1,0,0,0-.88,1A1,1,0,0,0,6,23Z" transform="translate(0 0)" style="fill:#020202"/><path d="M6.38,19H18.84a1,1,0,0,0,1-1,1,1,0,0,0-1-1H6.38a1,1,0,0,0,0,2Z" transform="translate(0 0)" style="fill:#020202"/><path d="M6.38,14.86H18.84a1,1,0,0,0,1-1,1,1,0,0,0-1-1H6.38a1,1,0,1,0-.06,2Z" transform="translate(0 0)" style="fill:#020202"/><path d="M18.44,25.11H6.38a1,1,0,0,0-1,1,1,1,0,0,0,1,1H18.44a1,1,0,0,0,0-2Z" transform="translate(0 0)" style="fill:#020202"/></g></g></g></svg>