<svg xmlns="http://www.w3.org/2000/svg" width="42.26" height="45" viewBox="0 0 42.26 45"><title>dedicated-support</title><g id="Layer_2" data-name="Layer 2"><g id="Layer_1-2" data-name="Layer 1"><path d="M8.94,15.36h0a10.41,10.41,0,0,1,20.82,0h0V17a2.72,2.72,0,0,1,2.07-1V15c0-7.1-5.52-12.87-12.3-12.87S7.25,7.94,7.25,15V16a2.75,2.75,0,0,1,1.69,1Z" style="fill:none"/><path d="M3.92,44.58S7,34.14,24.25,33.46c0,0,15.35.19,18,11.54Z" style="fill:#c2a9ff"/><path d="M30.13,34l-3.42-1.41a10.36,10.36,0,0,0,3.05-7.34h0V23.66a2.77,2.77,0,0,0,2.14,1h1.3A2.8,2.8,0,0,0,36,21.89V18.73a2.81,2.81,0,0,0-2-2.67V15C34,6.75,27.52,0,19.54,0S5.07,6.75,5.07,15V16a2.79,2.79,0,0,0-2.35,2.75v3.16a2.79,2.79,0,0,0,2.8,2.79H6.81a2.76,2.76,0,0,0,2.13-1v1.56h0a10.43,10.43,0,0,0,3.17,7.45L9,34A16.74,16.74,0,0,0,.1,42.56,1.08,1.08,0,0,0,.64,44a1,1,0,0,0,.45.1,1.1,1.1,0,0,0,1-.64,13.18,13.18,0,0,1,1.19-2.11A14.46,14.46,0,0,1,9.78,36l1-.43,3.3-1.36a10.33,10.33,0,0,0,10.62-.1l3.53,1.46,1,.43a14.48,14.48,0,0,1,6.52,5.35A14,14,0,0,1,37,43.46a1.09,1.09,0,0,0,1,.64,1,1,0,0,0,.45-.1A1.09,1.09,0,0,0,39,42.56,16.72,16.72,0,0,0,30.13,34Zm-19-8.75V18.52A17.89,17.89,0,0,0,20,15.36a10.73,10.73,0,0,0,1.23-1.08A8.25,8.25,0,0,0,22,15.36a9.18,9.18,0,0,0,5.56,3.09v6.79a8.24,8.24,0,0,1-16.47,0ZM22.54,11.88a1.06,1.06,0,0,0-.95-.83,1.08,1.08,0,0,0-1.1.64s-1.07,2.24-5.13,3.67a20.26,20.26,0,0,1-4.24,1v-1h0a8.24,8.24,0,0,1,16.47,0h0v.88a7.75,7.75,0,0,1-2.23-.88A6.13,6.13,0,0,1,22.54,11.88ZM7.25,16V15c0-7.1,5.51-12.87,12.29-12.87S31.84,7.94,31.84,15v.9a2.72,2.72,0,0,0-2.07,1v-1.6h0a10.41,10.41,0,0,0-20.82,0h0v1.58A2.75,2.75,0,0,0,7.25,16Z" style="fill:#28145a"/><path d="M23.13,24.88a1.07,1.07,0,0,0-.8.36A1.09,1.09,0,0,0,22,26a2.76,2.76,0,1,1-5.52,0,1.09,1.09,0,0,0-.29-.72,1.06,1.06,0,0,0-1.59,0,1,1,0,0,0-.29.72,4.93,4.93,0,1,0,9.86,0,1,1,0,0,0-.29-.72A1.05,1.05,0,0,0,23.13,24.88Z" style="fill:#28145a"/></g></g></svg>