<svg xmlns="http://www.w3.org/2000/svg" width="42.28" height="33.04" viewBox="0 0 42.28 33.04"><title>digital-marketing-agencies</title><g id="Layer_2" data-name="Layer 2"><g id="Layer_1-2" data-name="Layer 1"><rect x="4.05" y="3.55" width="38.23" height="29.49" rx="1.3" style="fill:#c2a9ff"/><path d="M39,30.51H1a1,1,0,0,1-1-1V1A1,1,0,0,1,1,0H39a1,1,0,0,1,1,1V29.51A1,1,0,0,1,39,30.51Zm-37-2H38V2H2Z" style="fill:#28145a"/><path d="M39,7.32H1a1,1,0,0,1,0-2H39a1,1,0,0,1,0,2Z" style="fill:#28145a"/><path d="M34.21,25.82H25.15a1,1,0,0,1-1-1v-14a1,1,0,0,1,1-1h9.06a1,1,0,0,1,1,1v14A1,1,0,0,1,34.21,25.82Zm-8.06-2h7.06v-12H26.15Z" style="fill:#28145a"/><path d="M18.66,12.25H6.06a1,1,0,1,1,0-2h12.6a1,1,0,0,1,0,2Z" style="fill:#28145a"/><path d="M18.66,16.91H6.06a1,1,0,1,1,0-2h12.6a1,1,0,0,1,0,2Z" style="fill:#28145a"/><path d="M18.66,21.56H6.06a1,1,0,1,1,0-2h12.6a1,1,0,0,1,0,2Z" style="fill:#28145a"/><circle cx="5.2" cy="3.68" r="1" style="fill:#28145a"/><circle cx="8.55" cy="3.68" r="1" style="fill:#28145a"/><circle cx="11.9" cy="3.68" r="1" style="fill:#28145a"/></g></g></svg>