<svg id="Layer_1" data-name="Layer 1" xmlns="http://www.w3.org/2000/svg" width="32.19" height="35" viewBox="0 0 32.19 35"><title>enterprise-grade-security</title><g id="Layer_2" data-name="Layer 2"><g id="Layer_1-2" data-name="Layer 1-2"><path id="Enterprise_grade_security" data-name="Enterprise grade security" d="M29.52,21.69V19.3a4.24,4.24,0,0,0-2.4-3.8,16.12,16.12,0,0,0,.15-2.19V6.16a1.05,1.05,0,0,0-.63-1L15.36.38A4.44,4.44,0,0,0,13.64,0h0a4.39,4.39,0,0,0-1.71.38L.63,5.2a1,1,0,0,0-.63,1v7.15a18.34,18.34,0,0,0,3.69,11,20.8,20.8,0,0,0,9.59,7.07,1.08,1.08,0,0,0,.71,0,23,23,0,0,0,2.49-1.1v1.08A3.64,3.64,0,0,0,20.12,35h8.43a3.65,3.65,0,0,0,3.64-3.64V25.18A3.64,3.64,0,0,0,29.52,21.69ZM5.36,23.07a16.29,16.29,0,0,1-3.28-9.76V6.84L12.73,2.29a2.33,2.33,0,0,1,.9-.21v0a2.28,2.28,0,0,1,.9.21L25.19,6.84v6.47a14.55,14.55,0,0,1-.11,1.75h-1.7a4.25,4.25,0,0,0-4.23,4.24v2.39a3.65,3.65,0,0,0-2.67,3.49v2.73a19.71,19.71,0,0,1-2.85,1.38A18.62,18.62,0,0,1,5.36,23.07Zm19.69,5.65v1a.72.72,0,0,1-1.43.05V28.72a1.41,1.41,0,1,1,1.43,0Zm2.39-7.18H21.23V19.3a2.15,2.15,0,0,1,2.15-2.15h1.9a2.17,2.17,0,0,1,2.16,2.15Z" transform="translate(0)" style="fill:#231f20"/></g></g></svg>