<svg xmlns="http://www.w3.org/2000/svg" width="45" height="30.5" viewBox="0 0 45 30.5"><title>flexibility</title><g id="Layer_2" data-name="Layer 2"><g id="Layer_1-2" data-name="Layer 1"><path d="M13.45,8.12V7a.8.8,0,0,0-1.2-.69l-7.7,4.44a.8.8,0,0,0,0,1.38l7.7,4.45a.81.81,0,0,0,1.2-.7V14.84a.79.79,0,0,1,.79-.8H28.69a.8.8,0,0,0,.8-.8V9.72a.8.8,0,0,0-.8-.8H14.24A.79.79,0,0,1,13.45,8.12Z" style="fill:#c2a9ff"/><path d="M35.71,28.61V29.7a.79.79,0,0,0,1.19.69l7.7-4.45a.8.8,0,0,0,0-1.38l-7.7-4.44a.79.79,0,0,0-1.19.69V21.9a.79.79,0,0,1-.8.79H20.46a.8.8,0,0,0-.8.8V27a.8.8,0,0,0,.8.8H34.91A.8.8,0,0,1,35.71,28.61Z" style="fill:#c2a9ff"/><path d="M28.24,9.44V4.32a1,1,0,0,0-1-1.05h-15V1.05a1.05,1.05,0,0,0-.53-.91,1,1,0,0,0-1.05,0L.53,6A1,1,0,0,0,0,6.88a1.05,1.05,0,0,0,.53.91l10.09,5.83a1.05,1.05,0,0,0,1.05,0,1.05,1.05,0,0,0,.53-.91V10.49h15A1,1,0,0,0,28.24,9.44Z" style="fill:#28145a"/><path d="M44.16,19.89l-10.1-5.83a1.09,1.09,0,0,0-1.05,0,1.07,1.07,0,0,0-.52.92v2.21h-15a1.05,1.05,0,0,0-1,1.06v5.11a1,1,0,0,0,1,1.05h15v2.22a1.05,1.05,0,0,0,.52.91,1.1,1.1,0,0,0,.53.14,1.07,1.07,0,0,0,.52-.14l10.1-5.83a1,1,0,0,0,.52-.91A1.07,1.07,0,0,0,44.16,19.89Zm-9.57,4.92V23.36a1,1,0,0,0-1.05-1.05h-15v-3h15a1,1,0,0,0,1.05-1.05V16.8l6.94,4Z" style="fill:#28145a"/></g></g></svg>