<svg id="Layer_1" data-name="Layer 1" xmlns="http://www.w3.org/2000/svg" width="35" height="27.14" viewBox="0 0 35 27.14"><title>go-global-from-day</title><g id="Layer_2" data-name="Layer 2"><g id="Layer_1-2" data-name="Layer 1-2"><g id="Go_Global_from_Day_1" data-name="Go Global from Day 1"><path d="M33,0H8.38a2,2,0,0,0-2,2v3.8H26.62a3.06,3.06,0,0,1,3.06,3.06V20.29H33a2,2,0,0,0,2-2V2A2,2,0,0,0,33,0Z" style="fill:#231f20"/><path d="M27.75,7.2a2,2,0,0,0-1.13-.35H2a2,2,0,0,0-2,2V25.12a2,2,0,0,0,2,2H26.62a2,2,0,0,0,2-2V8.88A2,2,0,0,0,27.75,7.2Zm-1.18,8.49v9.38l-24.5.05,0-9.43ZM2,8.93H8.4l18.17,0v2.66H2Z" style="fill:#231f20"/></g></g></g></svg>