<svg xmlns="http://www.w3.org/2000/svg" width="41.12" height="45" viewBox="0 0 41.12 45"><title>Implementation-consulting-partners</title><g id="Layer_2" data-name="Layer 2"><g id="Layer_1-2" data-name="Layer 1"><path d="M22.72,2.83H26A15.15,15.15,0,0,1,41.12,18V38.72A2.31,2.31,0,0,1,38.81,41H9.89a2.31,2.31,0,0,1-2.31-2.31V18A15.15,15.15,0,0,1,22.72,2.83Z" style="fill:#c2a9ff"/><path d="M36.84,19.17V17a17,17,0,0,0-34,0v2.18A2.9,2.9,0,0,0,0,22.06v7A2.91,2.91,0,0,0,2.91,32H5.43a2.92,2.92,0,0,0,2.91-2.91v-7a2.91,2.91,0,0,0-2.91-2.9H5.1V17a14.77,14.77,0,1,1,29.53,0v2.18h-.47a2.9,2.9,0,0,0-2.9,2.9v7A2.91,2.91,0,0,0,34.16,32h.16v5.89a2.06,2.06,0,0,1-2.06,2.06h-6v-.35a2.92,2.92,0,0,0-2.91-2.91h-7a2.91,2.91,0,0,0-2.9,2.91v2.52A2.9,2.9,0,0,0,16.36,45h7a2.9,2.9,0,0,0,2.9-2.87h6a4.27,4.27,0,0,0,4.27-4.27V32h.16a2.92,2.92,0,0,0,2.91-2.91v-7A2.91,2.91,0,0,0,36.84,19.17ZM6.12,22.06v7a.69.69,0,0,1-.69.69H2.91a.69.69,0,0,1-.7-.69v-7a.69.69,0,0,1,.7-.69H5.43A.69.69,0,0,1,6.12,22.06Zm28.2,7.69h-.16a.69.69,0,0,1-.69-.69v-7a.69.69,0,0,1,.69-.69h2.53a.69.69,0,0,1,.69.69v7a.69.69,0,0,1-.69.69h-.16" style="fill:#28145a"/><path d="M15.28,28.5a.54.54,0,0,0,.22.55.53.53,0,0,0,.32.1.58.58,0,0,0,.26-.06l4-2.1,4,2.1a.57.57,0,0,0,.59,0,.58.58,0,0,0,.22-.55l-.76-4.44,3.22-3.14a.55.55,0,0,0,.14-.57A.57.57,0,0,0,27,20l-4.45-.64-2-4a.57.57,0,0,0-1,0l-2,4L13.12,20a.58.58,0,0,0-.45.38.57.57,0,0,0,.14.57L16,24.06Z" style="fill:#28145a"/></g></g></svg>