<svg id="Layer_1" data-name="Layer 1" xmlns="http://www.w3.org/2000/svg" width="35" height="30.83" viewBox="0 0 35 30.83"><title>leader-of-the-pack</title><g id="Layer_2" data-name="Layer 2"><g id="Layer_1-2" data-name="Layer 1-2"><path d="M21.57,7.94l-2.5-.36L18,5.31a.52.52,0,0,0-.72-.18.55.55,0,0,0-.19.18L15.93,7.58l-2.5.36a.51.51,0,0,0-.43.58.53.53,0,0,0,.14.29L15,10.57l-.42,2.49a.51.51,0,0,0,.42.59.48.48,0,0,0,.31-.05l2.24-1.18,2.24,1.18a.52.52,0,0,0,.74-.54l-.43-2.49,1.8-1.76a.5.5,0,0,0,0-.72A.51.51,0,0,0,21.57,7.94Z" transform="translate(0 0)"/><path d="M34,2.9h-5.5V1a1,1,0,0,0-1-1H7.54a1,1,0,0,0-1,1h0V2.9H1a1,1,0,0,0-1,1v.68c0,3.68.75,8.53,7,8.8a11,11,0,0,0,9.48,7.73V28.8H11.05a1,1,0,0,0,0,2H24a1,1,0,0,0,0-2H18.52V21.12A11,11,0,0,0,28,13.39c6.24-.27,7-5.12,7-8.8V3.91A1,1,0,0,0,34,2.9ZM2,4.93H6.52V10.2a10.88,10.88,0,0,0,.06,1.14C3.38,11.06,2.1,9.22,2,4.93ZM17.5,19.14A8.94,8.94,0,0,1,8.56,10.2V2H26.44V10.2A8.94,8.94,0,0,1,17.5,19.14Zm10.92-7.8a10.88,10.88,0,0,0,.06-1.14V4.93H33C32.9,9.22,31.62,11.06,28.42,11.34Z" transform="translate(0 0)"/></g></g></svg>