<svg id="Layer_1" data-name="Layer 1" xmlns="http://www.w3.org/2000/svg" width="33" height="35" viewBox="0 0 33 35"><title>level-up-your-billing-ops-efficiency</title><g id="Layer_2" data-name="Layer 2"><g id="Layer_1-2" data-name="Layer 1-2"><g id="Level_up_your_Billing_Ops_Efficiency" data-name="Level up your Billing Ops Efficiency"><path d="M26.75,17V7.36s0,0,0-.06a1.59,1.59,0,0,0-.06-.3.42.42,0,0,0,0-.1.9.9,0,0,0-.23-.32L19.75.3a1.32,1.32,0,0,0-.32-.2l-.1,0a.86.86,0,0,0-.27,0L19,0H2.19A2.19,2.19,0,0,0,0,2.19V30.76A2.19,2.19,0,0,0,2.19,33H18A9.23,9.23,0,0,0,29.57,18.59,9.35,9.35,0,0,0,26.75,17ZM2.17,2.19l0,0H17.92V7.36A1.08,1.08,0,0,0,19,8.45h5.58v8.13a7,7,0,0,0-.8,0A9.22,9.22,0,0,0,16,30.77H2.17ZM20.09,3.6l2.84,2.68H20.09Zm-1.1,25a1.34,1.34,0,0,1-.07-.18l-.58.24a.55.55,0,0,1-.71-.29.58.58,0,0,1,0-.39l.73-2a.53.53,0,0,1,.3-.32.52.52,0,0,1,.44,0l1.92.88a.55.55,0,0,1,.27.72.53.53,0,0,1-.29.28l-.58.24a3.77,3.77,0,0,0,6.34.16,1.53,1.53,0,0,0,.14-.21A.82.82,0,0,1,28,27.42a.81.81,0,0,1,.28,1.12h0a5.39,5.39,0,0,1-1.54,1.65,5.79,5.79,0,0,1-1.09.6,5.34,5.34,0,0,1-4.08,0A5.4,5.4,0,0,1,19,28.55Zm9.46-2.28-1.7-.78-.23-.11a.55.55,0,0,1-.27-.72.61.61,0,0,1,.29-.28l.21-.08.32-.14a4.37,4.37,0,0,0-.32-.55,3.79,3.79,0,0,0-6.36.22A.81.81,0,0,1,19,23a5.43,5.43,0,0,1,9.57.49.09.09,0,0,1,0,.05l.62-.26a.56.56,0,0,1,.59.11.54.54,0,0,1,.13.58l-.72,2a.57.57,0,0,1-.51.36.59.59,0,0,1-.23-.05Z" style="fill:#020202"/><path d="M6.57,13.06H20.46a1.09,1.09,0,1,0,0-2.17H6.57a1.09,1.09,0,0,0,0,2.17Z" style="fill:#020202"/><path d="M13.52,15.45H6.57a1.09,1.09,0,0,0,0,2.17h7a1.09,1.09,0,0,0,0-2.17Z" style="fill:#020202"/></g></g></g></svg>