<svg id="Layer_1" data-name="Layer 1" xmlns="http://www.w3.org/2000/svg" width="33" height="35" viewBox="0 0 33 35"><title>never-let-a-single-transaction-float</title><g id="Layer_2" data-name="Layer 2"><g id="Layer_1-2" data-name="Layer 1-2"><path d="M26.76,17V7.36s0,0,0-.06a1.07,1.07,0,0,0-.06-.3.42.42,0,0,0,0-.1.9.9,0,0,0-.23-.32L19.75.3a1.32,1.32,0,0,0-.32-.2l-.1,0a.75.75,0,0,0-.26,0L19,0H2.19A2.19,2.19,0,0,0,0,2.19V30.76A2.19,2.19,0,0,0,2.19,33H18A9.23,9.23,0,0,0,29.57,18.59,9.42,9.42,0,0,0,26.76,17ZM2.17,2.19l0,0H17.92V7.36A1.08,1.08,0,0,0,19,8.45h5.58v8.13a7.26,7.26,0,0,0-.8,0A9.22,9.22,0,0,0,16,30.77H2.17ZM22.93,6.28H20.09V3.6l.08.08ZM19,28.55a.64.64,0,0,1-.06-.18l-.58.24a.53.53,0,0,1-.71-.29.51.51,0,0,1,0-.4l.72-2a.57.57,0,0,1,.3-.31.52.52,0,0,1,.44,0l1.92.88a.54.54,0,0,1,.27.72.55.55,0,0,1-.28.28l-.59.24a3.77,3.77,0,0,0,3.23,1.81,3.57,3.57,0,0,0,.92-.12,3.85,3.85,0,0,0,1.1-.47,3.93,3.93,0,0,0,1.09-1.06,1.53,1.53,0,0,0,.14-.21.82.82,0,1,1,1.42.81l0,0a5.39,5.39,0,0,1-1.54,1.65,5.79,5.79,0,0,1-1.09.6,5.34,5.34,0,0,1-4.08,0A5.4,5.4,0,0,1,19,28.55Zm9.46-2.28-1.7-.79-.23-.1a.54.54,0,0,1-.26-.72.55.55,0,0,1,.28-.28l.21-.08.32-.14a4.37,4.37,0,0,0-.32-.55,3.75,3.75,0,0,0-2.18-1.51,3.59,3.59,0,0,0-.93-.12,3.76,3.76,0,0,0-3.25,1.85.81.81,0,0,1-1.12.28A.8.8,0,0,1,19,23a5.43,5.43,0,0,1,9.57.49.09.09,0,0,1,0,.05l.62-.26a.54.54,0,0,1,.71.29.55.55,0,0,1,0,.4l-.72,2a.55.55,0,0,1-.7.32Z"/><path d="M6.57,13.06H20.46a1.09,1.09,0,1,0,0-2.17H6.57a1.09,1.09,0,0,0,0,2.17Z"/><path d="M13.52,15.45H6.57a1.09,1.09,0,0,0,0,2.17h7a1.09,1.09,0,0,0,0-2.17Z"/></g></g></svg>