<svg id="Layer_1" data-name="Layer 1" xmlns="http://www.w3.org/2000/svg" width="32.19" height="35" viewBox="0 0 32.19 35"><title>on-par-with-the-latest-security-and-compliance-needs</title><g id="Layer_2" data-name="Layer 2"><g id="Layer_1-2" data-name="Layer 1-2"><path d="M29.51,21.69V19.3a4.22,4.22,0,0,0-2.39-3.8,16.12,16.12,0,0,0,.15-2.19V6.16a1.05,1.05,0,0,0-.63-1L15.36.38A4.44,4.44,0,0,0,13.64,0h0a4.39,4.39,0,0,0-1.71.38L.63,5.2a1.05,1.05,0,0,0-.63,1v7.15a18.34,18.34,0,0,0,3.69,11,20.8,20.8,0,0,0,9.59,7.07,1.08,1.08,0,0,0,.71,0,25.1,25.1,0,0,0,2.49-1.1v1.08A3.64,3.64,0,0,0,20.12,35h8.43a3.65,3.65,0,0,0,3.64-3.64V25.18A3.64,3.64,0,0,0,29.51,21.69Zm-6.59,5.82a1.41,1.41,0,1,1,2.82,0,1.39,1.39,0,0,1-.69,1.22v1a.71.71,0,0,1-.72.71.71.71,0,0,1-.71-.71h0v-1A1.4,1.4,0,0,1,22.92,27.51Zm4.52-6H21.23V19.3a2.15,2.15,0,0,1,2.15-2.15h1.9a2.17,2.17,0,0,1,2.16,2.15ZM13.64,2.08a2.33,2.33,0,0,1,.9.21L25.19,6.84v6.47a14.85,14.85,0,0,1-.11,1.76h-1.7a4.24,4.24,0,0,0-4.23,4.23v2.39a3.64,3.64,0,0,0-2.67,3.49V27.9a19.13,19.13,0,0,1-2.84,1.39,18.7,18.7,0,0,1-8.28-6.22,16.29,16.29,0,0,1-3.28-9.76V6.84L12.73,2.29a2.33,2.33,0,0,1,.9-.21v0Z"/></g></g></svg>