<svg id="Layer_1" data-name="Layer 1" xmlns="http://www.w3.org/2000/svg" width="33.09" height="34.98" viewBox="0 0 33.09 34.98"><title>reduce-revenue-leakage</title><g id="Layer_2" data-name="Layer 2"><g id="Layer_1-2" data-name="Layer 1-2"><g id="Reduce_Revenue_Leakage" data-name="Reduce Revenue Leakage"><path d="M30.48,22V19.68a4.13,4.13,0,0,0-3.59-4.08A13.52,13.52,0,1,0,11.47,26.91a12.91,12.91,0,0,0,2.06.16,13.2,13.2,0,0,0,4.23-.69v5.07A3.55,3.55,0,0,0,21.31,35h8.22a3.55,3.55,0,0,0,3.55-3.55v-6A3.54,3.54,0,0,0,30.48,22Zm-2-2.33v2.19H22.39V19.68a2.11,2.11,0,0,1,1.89-2.08l.21,0h2A2.1,2.1,0,0,1,28.45,19.68Zm-4.41,8a1.38,1.38,0,1,1,2.08,1.18v1a.7.7,0,0,1-.77.62.68.68,0,0,1-.62-.62v-1A1.37,1.37,0,0,1,24,27.69ZM13.53,25A11.57,11.57,0,1,1,25,13.41a11.91,11.91,0,0,1-.19,2.14h-.36a4.12,4.12,0,0,0-4.12,4.13V22A3.56,3.56,0,0,0,18,24.14,11.67,11.67,0,0,1,13.53,25Z" transform="translate(0 -0.02)"/><path d="M14.48,12.54V9.7a2.89,2.89,0,0,1,1.59,1.86l1.67-1a4.1,4.1,0,0,0-3.26-2.8V6.33H12.81V7.74c-2,.21-3.31,1.36-3.31,3,0,1.85,1.38,2.89,3.31,3.32v3.31a2.87,2.87,0,0,1-1.93-2.57L9,15.8a4.24,4.24,0,0,0,3.79,3.53v1.45h1.67V19.35A3.57,3.57,0,0,0,17.93,16C17.93,14.11,16.78,13.07,14.48,12.54Zm-1.67-.43c-.88-.34-1.29-.76-1.29-1.37S12,9.68,12.81,9.55Zm1.67,5.35V14.55c.87.32,1.33.77,1.33,1.48A1.52,1.52,0,0,1,14.48,17.46Z" transform="translate(0 -0.02)"/></g></g></g></svg>