<svg xmlns="http://www.w3.org/2000/svg" width="44.96" height="34.29" viewBox="0 0 44.96 34.29"><title>Rewarding Partnership Structure</title><g id="Layer_2" data-name="Layer 2"><g id="Layer_1-2" data-name="Layer 1"><path d="M39.63,10.51,32.06,2.94a.77.77,0,0,0-1.09,0L27.42,6.49a.33.33,0,0,0-.06.1l-.05,0L26,7.92a3.6,3.6,0,0,0-3.19-.07,3.22,3.22,0,0,0-2.27-.91,4.25,4.25,0,0,0-2.26.73L17.64,7a.66.66,0,0,0-.15-.22L13.94,3.26a.77.77,0,0,0-1.09,0L5.28,10.83a.78.78,0,0,0,0,1.1l3.55,3.54s.06,0,.09.06l0,.05,3,3a2.82,2.82,0,0,0,.4,3.47l6.37,6.37a2.81,2.81,0,0,0,2,.83,2.87,2.87,0,0,0,1.61-.51,3.19,3.19,0,0,0,3.82-.55l4-4a3.25,3.25,0,0,0,.95-2.3,3.2,3.2,0,0,0-.38-1.49l5.1-5.1a.74.74,0,0,0,.22-.14l3.54-3.55a.76.76,0,0,0,0-1.09Z" style="fill:#c2a9ff"/><path d="M44.67,10.07,34.89.29a1,1,0,0,0-1.42,0L28.89,4.87,28.81,5l-.07,0L27.06,6.73a4.62,4.62,0,0,0-4.12-.1A4.21,4.21,0,0,0,20,5.46a5.11,5.11,0,0,0-2.8,1.06l-.94-.94a.94.94,0,0,0-.2-.29L11.48.71a1,1,0,0,0-1.41,0L.29,10.48a1,1,0,0,0,0,1.42l4.58,4.58.12.08,0,.06,3.89,3.9A3.67,3.67,0,0,0,9.45,25l8.22,8.22a3.65,3.65,0,0,0,4.65.41,4.25,4.25,0,0,0,2,.52,4.2,4.2,0,0,0,3-1.22l5.21-5.22a4.16,4.16,0,0,0,1.23-3,4.12,4.12,0,0,0-.49-1.92l6.59-6.59a.83.83,0,0,0,.27-.19l4.59-4.58a1,1,0,0,0,.29-.7A1,1,0,0,0,44.67,10.07ZM22.75,31l-1.08,1.08h0a2.15,2.15,0,0,1-.72.44,2.07,2.07,0,0,1-2.11-.45L10.6,23.85A2,2,0,0,1,10,22.43a2.07,2.07,0,0,1,.13-.7,2.14,2.14,0,0,1,.45-.71h0l1.08-1.08a2,2,0,0,1,1.42-.59,2,2,0,0,1,1.43.59l.24.24,8,8a2,2,0,0,1,.59,1.43A2,2,0,0,1,22.75,31Zm8.58-4.43-5.22,5.21a2.56,2.56,0,0,1-2.48.65l.27-.28a3.62,3.62,0,0,0,1-2.18,3.45,3.45,0,0,0,0-1.11,3.57,3.57,0,0,0-1-1.86l-8-8-.24-.24a3.65,3.65,0,0,0-5.15,0l-.52.51L6.76,16.05l8.83-8.83,1,1h0a1,1,0,0,0,.17.1.47.47,0,0,0,.09.06.8.8,0,0,0,.3.06.81.81,0,0,0,.31-.06l.09-.06.18-.12h0a5.68,5.68,0,0,1,.84-.63A3,3,0,0,1,20,7.09a2.42,2.42,0,0,1,1.23.33l.21.13a6.22,6.22,0,0,0-.55.5L19.2,9.67,14.7,13.9a.81.81,0,0,0-.17,1,7.3,7.3,0,0,0,2.74,2.81,4.6,4.6,0,0,0,1,.38,3.85,3.85,0,0,0,.95.11,4.9,4.9,0,0,0,2.86-1l.09-.07,1.68-1.61,7.21,7.22.27.27a3.17,3.17,0,0,1,.28.34,2.22,2.22,0,0,1,.36.78,2.61,2.61,0,0,1,.11.68A2.58,2.58,0,0,1,31.33,26.57Zm.88-5L25,14.35l.72-.7a.81.81,0,0,0,0-1.15.92.92,0,0,0-.31-.2.82.82,0,0,0-.84.17l-.88.84-.47.45-.45.43-1.74,1.67a3,3,0,0,1-2.43.62l-.15-.05a4.64,4.64,0,0,1-2.21-1.8l4.05-3.8,1.71-1.61c2.29-2.27,4.13-1.16,4.53-.87l.06.05a.6.6,0,0,0,.11.06l.13.07h0l.16,0h.15l.15,0,.15,0a.6.6,0,0,0,.13-.09,1.05,1.05,0,0,0,.11-.07l1.57-1.58,8.83,8.83Z" style="fill:#28145a"/></g></g></svg>