<svg id="Layer_1" data-name="Layer 1" xmlns="http://www.w3.org/2000/svg" width="32.71" height="35" viewBox="0 0 32.71 35"><title>scales-with-growth</title><g id="Layer_2" data-name="Layer 2"><g id="Layer_1-2" data-name="Layer 1-2"><g id="Scales_with_Growth" data-name="Scales with Growth"><path d="M32.63,12.1a2.39,2.39,0,0,0-.24-1.83l-1.75-3a2.42,2.42,0,0,0-3.3-.88l-1.27.73a14.13,14.13,0,0,0-5.55-3.2V2.41A2.41,2.41,0,0,0,18.11,0H14.6a2.41,2.41,0,0,0-2.41,2.41V3.87a14.38,14.38,0,0,0-5.38,3L5.57,6.16A2.41,2.41,0,0,0,2.26,7L.46,10a2.41,2.41,0,0,0,.82,3.31h0L2.52,14a14.06,14.06,0,0,0,0,6.67l-1.26.72a2.42,2.42,0,0,0-.89,3.3h0l1.75,3a2.41,2.41,0,0,0,3.3.88l1.26-.73a14.27,14.27,0,0,0,5.55,3.21v1.46A2.41,2.41,0,0,0,14.6,35h3.5a2.41,2.41,0,0,0,2.41-2.42V31.13a14.21,14.21,0,0,0,5.39-3l1.24.75A2.41,2.41,0,0,0,30.46,28h0l1.8-3a2.42,2.42,0,0,0-.83-3.31L30.19,21a14.19,14.19,0,0,0,0-6.67l1.26-.72A2.42,2.42,0,0,0,32.63,12.1Zm-2-.53a.35.35,0,0,1-.17.24l-1.66.95a1.43,1.43,0,0,0-.66,1.61,12.18,12.18,0,0,1-.05,6.48,1.45,1.45,0,0,0,.64,1.62l1.63,1a.4.4,0,0,1,.13.53l-1.8,3a.41.41,0,0,1-.24.17.37.37,0,0,1-.29,0l-1.63-1a1.43,1.43,0,0,0-1.73.2,12.14,12.14,0,0,1-5.27,3,1.44,1.44,0,0,0-1.07,1.38v1.92a.38.38,0,0,1-.38.38H14.6a.38.38,0,0,1-.38-.38V30.67a1.43,1.43,0,0,0-1.06-1.38,12.1,12.1,0,0,1-5.42-3.13A1.45,1.45,0,0,0,6,25.93l-1.66,1a.38.38,0,0,1-.52-.14l-1.75-3a.38.38,0,0,1,.14-.52h0l1.65-1a1.42,1.42,0,0,0,.66-1.61,12.18,12.18,0,0,1,0-6.48A1.42,1.42,0,0,0,4,12.54l-1.62-1A.39.39,0,0,1,2.19,11L4,8a.38.38,0,0,1,.53-.14h0l1.63,1a1.42,1.42,0,0,0,1.72-.2,12.35,12.35,0,0,1,5.28-3,1.42,1.42,0,0,0,1.06-1.38V2.41A.38.38,0,0,1,14.6,2h3.5a.38.38,0,0,1,.39.38V4.33a1.42,1.42,0,0,0,1.06,1.38A12.1,12.1,0,0,1,25,8.84a1.45,1.45,0,0,0,1.73.23l1.65-1a.39.39,0,0,1,.53.14l1.75,3a.42.42,0,0,1,0,.29Z" transform="translate(0)" style="fill:#231f20"/><path d="M16.36,9.39a8.11,8.11,0,1,0,8.11,8.11A8.11,8.11,0,0,0,16.36,9.39ZM10.27,17.5a6.09,6.09,0,1,1,6.09,6.08h0A6.09,6.09,0,0,1,10.27,17.5Z" transform="translate(0)" style="fill:#231f20"/></g></g></g></svg>