<svg xmlns="http://www.w3.org/2000/svg" width="41.38" height="45" viewBox="0 0 41.38 45"><title>security-compliance</title><g id="Layer_2" data-name="Layer 2"><g id="Layer_1-2" data-name="Layer 1"><path d="M21.42,4.35h0a4.11,4.11,0,0,0-1.61.37l-13.94,6v8.84a21.41,21.41,0,0,0,4.3,12.83,24.44,24.44,0,0,0,11.27,8.3,24.47,24.47,0,0,0,11.26-8.3A21.35,21.35,0,0,0,37,19.52V10.68L23,4.72a4.07,4.07,0,0,0-1.61-.37Z" style="fill:#c2a9ff"/><path d="M38,27.89V24.81a5.42,5.42,0,0,0-3.08-4.88,22,22,0,0,0,.19-2.82V7.92a1.33,1.33,0,0,0-.81-1.23L19.74.49A5.63,5.63,0,0,0,17.54,0h0a5.63,5.63,0,0,0-2.2.49L.81,6.69A1.33,1.33,0,0,0,0,7.92v9.19A23.6,23.6,0,0,0,4.74,31.26a26.73,26.73,0,0,0,12.33,9.08,1.24,1.24,0,0,0,.46.08,1.21,1.21,0,0,0,.46-.08,27,27,0,0,0,3.2-1.41v1.39A4.69,4.69,0,0,0,25.87,45H36.71a4.68,4.68,0,0,0,4.67-4.68v-8A4.66,4.66,0,0,0,38,27.89Zm-8.48,7.48a1.82,1.82,0,1,1,2.73,1.56v1.29a.92.92,0,1,1-1.83,0V36.93A1.8,1.8,0,0,1,29.47,35.37Zm5.81-7.67h-8V24.81A2.77,2.77,0,0,1,30.06,22h2.45a2.59,2.59,0,0,1,.63.08,2.81,2.81,0,0,1,2.14,2.69Zm-17.74-25A3,3,0,0,1,18.69,3L32.39,8.8v8.31a21.25,21.25,0,0,1-.14,2.26H30.06a5.45,5.45,0,0,0-5.44,5.44v3.08a4.66,4.66,0,0,0-3.43,4.48v3.51a25.8,25.8,0,0,1-3.66,1.78,23.94,23.94,0,0,1-10.64-8A20.89,20.89,0,0,1,2.67,17.11V8.8L16.37,3a3,3,0,0,1,1.15-.28v0Z" style="fill:#28145a"/></g></g></svg>