<svg id="Layer_1" data-name="Layer 1" xmlns="http://www.w3.org/2000/svg" width="29.85" height="35" viewBox="0 0 29.85 35"><title>simplify-invoice-operations</title><g id="Layer_2" data-name="Layer 2"><g id="Layer_1-2" data-name="Layer 1-2"><g id="Simplify_Invoice_Operations" data-name="Simplify Invoice Operations"><path d="M29.53,5.92l-6-5.65A1,1,0,0,0,22.84,0H7.71a2,2,0,0,0-2,2V4.24H17.55a1,1,0,0,1,.69.27l3.85,3.63,2.78,2.61a1,1,0,0,1,.32.74V29.72h2.65a2,2,0,0,0,2-2v-21A1,1,0,0,0,29.53,5.92Z" style="fill:#020202"/><path d="M24.08,11.6a.3.3,0,0,1,0-.1,1,1,0,0,0-.21-.3L22.09,9.57l-2-1.91L18.54,6.22l-.71-.66a1,1,0,0,0-.3-.19l-.09,0a1,1,0,0,0-.25,0H2a2,2,0,0,0-2,2V33a2,2,0,0,0,2,2H22.14a2,2,0,0,0,2-2V11.94s0,0,0-.06A.87.87,0,0,0,24.08,11.6ZM22.13,27.7V33H2V7.31h14.1v4.63a1,1,0,0,0,1,1h5Zm-4-19.06,1.92,1.81.51.48H18.15Z" style="fill:#020202"/><path d="M5.71,17a1,1,0,0,0,.24.05h12.5a1,1,0,0,0,1-1,1,1,0,0,0-1-1H6l-.24.05A1,1,0,0,0,5,16.25,1,1,0,0,0,5.71,17Z" style="fill:#020202"/><path d="M12.2,20.11H6l-.24.05A1,1,0,0,0,5,21.34a1,1,0,0,0,.75.75,1,1,0,0,0,.24.05H12.2a1,1,0,0,0,0-2Z" style="fill:#020202"/><path d="M18.94,20.11H16a1,1,0,0,0-.06,2h3a1,1,0,0,0,1-1,1,1,0,0,0-1-1.05Z" style="fill:#020202"/><path d="M12.2,24.26H6a.69.69,0,0,0-.24,0A1,1,0,0,0,5,25.49a1,1,0,0,0,.75.74.69.69,0,0,0,.24.05H12.2a1,1,0,1,0,0-2Z" style="fill:#020202"/><path d="M18.94,24.26H16a1,1,0,1,0,0,2h2.9a1,1,0,0,0,0-2Z" style="fill:#020202"/></g></g></g></svg>