<svg xmlns="http://www.w3.org/2000/svg" viewBox="781 -155.7 1715.4 411.8" enable-background="new 781 -155.7 1715.4 411.8"><style type="text/css">.st0{opacity:0.96;fill:#EFD4C7;enable-background:new ;} .st1{opacity:0.96;fill:#D6BCB2;enable-background:new ;} .st2{fill:url(#SVGID_1_);} .st3{fill:none;} .st4{fill:#D1749E;} .st5{fill:#4BC6E7;} .st6{fill:#C15988;} .st7{fill:#F180AF;} .st8{fill:#85D3E0;} .st9{fill:#46B9D3;} .st10{fill:#98E6F9;} .st11{fill:#365257;}</style><path class="st0" d="M1245.2 19.2s9-13 10.4-20.6c1.4-7.6 1.2-11.9-2.6-19-1.4-2.7-5.4-6.5-12.2-8.3-4.5-1.2-9.4-1.4-13.6-3.5-6.1-3-11.8-6.1-12.4-6.4 0 0-11.5-10.7-25.8-12.2 0 0-38.3-59.9-111.9-65.8 0 0-97.2-15-161.5 87.2 0 0-13.1 24.2-29.3 54-16.7 31.3-38.1 48.2-50.5 56.1-47.2 18.9-59.5 56.9-53.3 74 6.6 18.3 24.1 31.9 37.9 43.6 13.5 11.5 27.6 19.3 42.8 28.5l1.1.7c70.5 37.2 157.2 35.6 220.9 8.7 29.2-12.3 54.1-29.9 71.6-51.5 14.7-18 22.6-37.6 24.9-58l.2-.3s15.1-10.3 24.8-22.4c10-12.5 14.3-28.1 14.3-28.1 5.8-7.3 10.3-14.4 13.9-21.2 0 0 10.8-21.2 10.3-35.5z"/><path class="st1" d="M1044.2 64.3c-12.8 8.3-34 20.6-49.8 23.4-5.8 1.1-11.7 1.9-17.6 2.6-8.6 1-17.2 1.7-25.8 2-8.5.3-17-.1-25.5.1-28 .7-72.8-9.1-100.2 1.3-23.9 9.1-48.2 47.6-30.9 62.3 22.8 19.4 67.4 8.9 81.4 5.1 132.8-40.5 191.8-114.3 191.8-114.3s-10.6 9.1-23.4 17.5z"/><linearGradient id="SVGID_1_" gradientUnits="userSpaceOnUse" x1="-488.13" y1="752.507" x2="-488.123" y2="752.519" gradientTransform="matrix(.87 -.494 -.494 -.87 1708.208 499.116)"><stop offset="0" stop-color="#F3F0EF"/><stop offset="1" stop-color="#EDDCD1"/></linearGradient><path class="st2" d="M911.9 85.2h-.2.2z"/><path class="st1" d="M1245.2 19.2c.4 10.8-6.7 27.8-6.7 27.8 1.5-3.8.9-10.1 1-14.2.2-12.8-2.4-25.5-6.4-37.5-3.7-11-8.1-23.1-16.3-31.6-.5-.5-2.8-3.4-3.6-3.4 0 0 23.1 12.5 32.1 59.2"/><path class="st1" d="M1211.2 97.8c3.7-6.6 8.4-13.8 9.9-22.6 2.2-13.5-.1-29.2-1.8-40.4-9.4-60.5-31.7-110.5-103.5-142.5-10.3-4.6-21.9-8-33.3-8.5l-1.1 4.6c9.3.4 19.4 3.1 28.2 6.1 17.9 6.2 37.7 18.5 51.5 31.4 20.1 18.8 33 45.3 40.8 73.8 8 29.4 10.5 61 9.9 88.7-.4 3.2-.5 6.4-.6 9.4z"/><path class="st3" d="M1071.1 43.7C1019-61 961.7-134.7 961.7-134.7c-7.2-7.9-11.4-7.3-11.4-7.3s-1.4.1-5 .7l-2.5.6c-34.6 10.7-55.3 30.2-64.1 38.9-2.5 2.5-3.8 4-3.8 4s-3.1 3-.9 13.5c0 0 .7 2.4 2.3 7.2 4.4 13.2 9.5 26.1 15 38.9 9.9 23.3 20.7 46.3 32.4 68.8 17.3 33.2 29 54.9 48.6 86.7m98.8-73.6C1019-61 961.7-134.7 961.7-134.7c-7.2-7.9-11.4-7.3-11.4-7.3s-1.4.1-5 .7l-2.5.6c-34.6 10.7-55.3 30.2-64.1 38.9-2.5 2.5-3.8 4-3.8 4s-3.1 3-.9 13.5c0 0 .7 2.4 2.3 7.2 4.4 13.2 9.5 26.1 15 38.9 9.9 23.3 20.7 46.3 32.4 68.8 17.3 33.2 29 54.9 48.6 86.7"/><path class="st1" d="M1081.2 39.1c22.4-22.9 28.8-53 28.8-53-7.7 14.1-22.5 27-30.8 33l2 20z"/><path class="st4" d="M899.6-19c-2.7-1-6.2-2.2-9.1-3.1C899-2.9 908 16 917.7 34.6c17.1 32.9 28.7 54.5 48 85.9l6.4-3.4C934.5 56.3 914.7 12.4 899.6-19z"/><path class="st5" d="M1023.2 83.6c26.6-20.1 48-39.8 48-39.8C1019-61 961.7-134.7 961.7-134.7c-7.2-7.9-11.4-7.3-11.4-7.3s-1.4.1-5 .7l-2.5.6c-34.6 10.7-55.3 30.2-64.1 38.9-2.5 2.5-3.8 4-3.8 4s-3.1 3-.9 13.5c0 0 .7 2.4 2.3 7.2 4.4 13.2 9.5 26.1 15 38.9 9.9 23.3 20.7 46.3 32.4 68.8 17.3 33.2 29 54.9 48.6 86.7-.1 0 32.2-18.8 50.9-33.7z"/><path class="st1" d="M1111-12.4c92.8 99 87.1 249.9-138.5 268.3 113 3.6 190.4-57.2 204.2-106.7C1196.1 79.5 1136 7.9 1111-12.4z"/><path class="st6" d="M864.2 58C846.1 78.7 828 84.2 828 84.2c-17.5-20.5-32.8-39.5-29.6-60.5 5-31.9 36.9-36.4 36.9-36.4C848.5-24 851.7-17 851.7-17c112.7 20.6 12.5 75 12.5 75z"/><path class="st7" d="M890.5-22.1c-12.6-4-26.7-7.2-39-9.7-20.1-4.2-37.4 10.7-49.9 37.3-4.9 10.4-6.4 19.7-4.8 30.2 1 6.9 6.4 15.9 11.8 23.7-9.7-15.1-14.5-29 1.4-26.5 0 0 50 9.6 138.8 96.8l16.8-9.1c-19.3-31.4-30.9-53-48-85.9C908 16 898.9-3 890.5-22.1z"/><path class="st8" d="M1116.2-107.8s-11.3-4.2-17.3-5.5c-6-1.3-16.6-2.9-16.6-2.9-6.8 24.7-10.7 69.9-1.1 155.3 0 0-40.2 35.5-90.5 66.9 0 0-18.6-132.5 27.7-224.5 0 0 10.6-23.6 29.8-32.4 0 0 54.7-19.1 66 24 3 11.6 3.3 19.6 3.3 19.6l-1.3-.5z"/><path class="st9" d="M999-81.5C970.5 6 985 109.3 985 109.3c14.1-8.8 27.4-17.9 39.2-26.5 26.2-19.8 47-39.1 47-39.1C1046-6.9 1019.6-50.2 999-81.5z"/><path class="st10" d="M1117.9-107.1s-.3-8.8-3.4-20.4c-11.3-43.1-66-24-66-24-19.2 8.8-29.8 32.4-29.8 32.4-46.3 92-27.7 224.5-27.7 224.5 50.3-31.4 90.3-66.9 90.3-66.9-19.3-170.8 13.6-186.4 23.7-180.1s11.7 34 11.7 34l1.2.5z"/><path class="st11" d="M1480.6 168.1c-69.9 0-115-46-115-117.2 0-33 11.4-63 32.1-84.3 22-22.6 52.9-34.5 89.5-34.5 31.4 0 56.9 7.4 75.9 22.1 19.5 15.1 27.4 34.1 30.6 47.4l.9 3.7h-43.1l-.8-1.9c-9.8-24-31.2-36.1-63.8-36.1-24 0-43.8 8.1-57.3 23.6-12.7 14.5-19.4 34.6-19.4 58.1 0 51.7 29.3 83.8 76.4 83.8 41.9 0 64.9-20.9 64.9-58.9V71h-67.2V35.4H1593v128h-32.9l-.5-2.3c-.9-4-1.9-13.6-2.4-22.3-16.6 20.4-40.1 29.3-76.6 29.3zm930.9-.3c-27.9 0-50.8-9.4-66.3-27-13.3-15.3-20.7-36.2-20.7-59.1 0-24.1 8.2-46 23-61.7 15.7-16.6 37.6-25.3 63.4-25.3 28.3 0 51.2 9.7 66.2 27.9 12.4 15.1 19.3 35.8 19.3 58.2v11.7h-130.8c2.8 25.7 21 42.2 47.1 42.2 20.1 0 32.7-6.6 41-21.5l.9-1.5h40.9l-1.4 4c-5.2 14.6-14.2 26.9-26 35.7-14.9 10.9-33.9 16.4-56.6 16.4zm42.7-104.7c-3.9-32.7-31.7-36.3-43.7-36.3-32.6 0-41.8 21.4-44.2 36.3h87.9zm-417.1 104.7c-26.6 0-49.2-9.1-65.2-26.2-14.7-15.7-22.8-37-22.8-60.2 0-23.4 8.4-45 23.5-60.7 16.4-17 39.2-26 66-26h.2c58 0 88.4 43.5 88.4 86.4 0 43.2-27.9 86.7-90.1 86.7zm.4-139.4c-21.6 0-46.9 13.9-46.9 53 0 34.6 24 52.7 47.7 52.7 34.7 0 47.1-27.1 47.1-52.4 0-26.5-14.7-53.3-47.7-53.3h-.2zm-198.6 139.4c-26.6 0-49.2-9.1-65.2-26.2-14.7-15.7-22.8-37-22.8-60.2 0-23.4 8.4-45 23.5-60.7 16.4-17 39.2-26 66-26h.2c58 0 88.4 43.5 88.4 86.4 0 43.2-27.9 86.7-90.1 86.7zm.4-139.4c-21.6 0-46.9 13.9-46.9 53 0 34.6 24 52.7 47.7 52.7 34.7 0 47.1-27.1 47.1-52.4 0-26.5-14.7-53.3-47.7-53.3h-.2zm-204 135.1V42.3h.1c0-13.3 0-26.9-.3-40.2L1635-1h39.6l.3 2.6c.4 3.7.9 13.4 1.1 23.4 12.3-19.2 33.1-30 58.6-30h1.8l2.9.1v38.7l-3-.1h-1.5c-37.3 0-58.6 22.9-58.6 62.7v67.1h-40.9zm569.9-.1L2133.8-1h44.4l.7 1.9c7.8 20.6 18.8 47.2 28.5 70.7 8.3 20 15.7 37.9 19.9 49.1 5.7-16.4 17.7-46.9 48-119.8l.8-1.8h42.1l-71.1 164.4h-41.9z"/></svg>