<?xml version="1.0" encoding="UTF-8"?>
<svg width="37px" height="31px" viewBox="0 0 37 31" version="1.1" xmlns="http://www.w3.org/2000/svg" xmlns:xlink="http://www.w3.org/1999/xlink">
    <!-- Generator: Sketch 53.2 (72643) - https://sketchapp.com -->
    <title>infrastructure-support</title>
    <desc>Created with Sketch.</desc>
    <defs>
        <polygon id="path-1" points="36.9221538 30.1538462 0 30.1538462 0 0.292307692 36.9221538 0.292307692"></polygon>
    </defs>
    <g id="Page-1" stroke="none" stroke-width="1" fill="none" fill-rule="evenodd">
        <g id="Package-Enterprise" transform="translate(-767.000000, -5677.000000)">
            <g id="Group-26" transform="translate(767.000000, 5677.000000)">
                <g id="infrastructure-support" transform="translate(0.000000, 0.000000)">
                    <g id="Group-3" transform="translate(0.000000, 0.323631)">
                        <g id="Fill-1-Clipped">
                            <g>
                                <mask id="mask-2" fill="white">
                                    <use xlink:href="#path-1"></use>
                                </mask>
                                <g id="path-1"></g>
                                <path d="M34.5701538,8.2352 C34.5701538,8.88504615 34.0421538,9.41304615 33.3923077,9.41304615 L3.53076923,9.41304615 C2.88092308,9.41304615 2.35476923,8.88504615 2.35476923,8.2352 L2.35476923,3.82104615 C2.35476923,3.17304615 2.88092308,2.64689231 3.53076923,2.64689231 L33.3923077,2.64689231 C34.0421538,2.64689231 34.5701538,3.17304615 34.5701538,3.82104615 L34.5701538,8.2352 Z M34.5701538,17.4290462 C34.5701538,18.0788923 34.0421538,18.6050462 33.3923077,18.6050462 L3.53076923,18.6050462 C2.88092308,18.6050462 2.35476923,18.0788923 2.35476923,17.4290462 L2.35476923,13.0167385 C2.35476923,12.3668923 2.88092308,11.8388923 3.53076923,11.8388923 L33.3923077,11.8388923 C34.0421538,11.8388923 34.5701538,12.3668923 34.5701538,13.0167385 L34.5701538,17.4290462 Z M34.5701538,26.6228923 C34.5701538,27.2727385 34.0421538,27.8007385 33.3923077,27.8007385 L3.53076923,27.8007385 C2.88092308,27.8007385 2.35476923,27.2727385 2.35476923,26.6228923 L2.35476923,22.2087385 C2.35476923,21.5625846 2.88092308,21.0345846 3.53076923,21.0345846 L33.3923077,21.0345846 C34.0421538,21.0345846 34.5701538,21.5625846 34.5701538,22.2087385 L34.5701538,26.6228923 Z M36.9221538,3.82104615 C36.9221538,1.8752 35.34,0.2912 33.3923077,0.2912 L3.53076923,0.2912 C1.58307692,0.2912 -0.000923076923,1.8752 -0.000923076923,3.82104615 L-0.000923076923,8.2352 C-0.000923076923,9.16012308 0.366461538,9.99643077 0.948,10.6259692 C0.366461538,11.2555077 -0.000923076923,12.0918154 -0.000923076923,13.0167385 L-0.000923076923,17.4290462 C-0.000923076923,18.3539692 0.366461538,19.1902769 0.948,19.8198154 C0.366461538,20.4493538 -0.000923076923,21.2856615 -0.000923076923,22.2087385 L-0.000923076923,26.6228923 C-0.000923076923,28.5705846 1.58307692,30.1545846 3.53076923,30.1545846 L33.3923077,30.1545846 C35.34,30.1545846 36.9221538,28.5705846 36.9221538,26.6228923 L36.9221538,22.2087385 C36.9221538,21.2856615 36.5584615,20.4493538 35.9750769,19.8198154 C36.5584615,19.1902769 36.9221538,18.3539692 36.9221538,17.4290462 L36.9221538,13.0167385 C36.9221538,12.0918154 36.5584615,11.2555077 35.9750769,10.6259692 C36.5584615,9.99643077 36.9221538,9.16012308 36.9221538,8.2352 L36.9221538,3.82104615 Z" id="Fill-1" fill="#4C4C51" fill-rule="nonzero" mask="url(#mask-2)"></path>
                            </g>
                        </g>
                    </g>
                    <path d="M29.2733538,3.92535385 C28.0161231,3.92535385 26.9933538,4.94812308 26.9933538,6.20535385 C26.9933538,7.46258462 28.0161231,8.48535385 29.2733538,8.48535385 C30.5324308,8.48535385 31.5533538,7.46258462 31.5533538,6.20535385 C31.5533538,4.94812308 30.5324308,3.92535385 29.2733538,3.92535385" id="Fill-4" fill="#4C4C51" fill-rule="nonzero"></path>
                    <path d="M29.2733538,13.1923077 C28.0161231,13.1923077 26.9933538,14.2169231 26.9933538,15.4723077 C26.9933538,16.7295385 28.0161231,17.7541538 29.2733538,17.7541538 C30.5324308,17.7541538 31.5533538,16.7295385 31.5533538,15.4723077 C31.5533538,14.2169231 30.5324308,13.1923077 29.2733538,13.1923077" id="Fill-6" fill="#4C4C51" fill-rule="nonzero"></path>
                    <path d="M29.2733538,22.4609231 C28.0161231,22.4609231 26.9933538,23.4836923 26.9933538,24.7390769 C26.9933538,25.9981538 28.0161231,27.0209231 29.2733538,27.0209231 C30.5324308,27.0209231 31.5533538,25.9981538 31.5533538,24.7390769 C31.5533538,23.4836923 30.5324308,22.4609231 29.2733538,22.4609231" id="Fill-8" fill="#4C4C51" fill-rule="nonzero"></path>
                    <polygon id="Fill-10" fill="#4C4C51" fill-rule="nonzero" points="7.79741538 6.35212308 7.79741538 7.52996923 23.5358769 7.52996923 23.5358769 6.35212308 23.5358769 5.17427692 7.79741538 5.17427692"></polygon>
                    <polygon id="Fill-12" fill="#4C4C51" fill-rule="nonzero" points="7.79741538 15.3249846 7.79741538 16.5028308 23.5358769 16.5028308 23.5358769 15.3249846 23.5358769 14.1489846 7.79741538 14.1489846"></polygon>
                    <polygon id="Fill-14" fill="#4C4C51" fill-rule="nonzero" points="7.79741538 24.2998769 7.79741538 25.4758769 23.5358769 25.4758769 23.5358769 24.2998769 23.5358769 23.1220308 7.79741538 23.1220308"></polygon>
                </g>
            </g>
        </g>
    </g>
</svg>