<?xml version="1.0" encoding="UTF-8"?>
<svg width="150px" height="33px" viewBox="0 0 150 33" version="1.1" xmlns="http://www.w3.org/2000/svg" xmlns:xlink="http://www.w3.org/1999/xlink">
    <!-- Generator: Sketch 45.2 (43514) - http://www.bohemiancoding.com/sketch -->
    <title>logo-fdesk-white</title>
    <desc>Created with Sketch.</desc>
    <defs></defs>
    <g id="Update---Enterprise" stroke="none" stroke-width="1" fill="none" fill-rule="evenodd">
        <g id="Enterprise_update_July" transform="translate(-1028.000000, -4376.000000)" fill-rule="nonzero">
            <g id="Group-12" transform="translate(150.000000, 3880.000000)">
                <g id="logo-fdesk-white" transform="translate(878.000000, 496.000000)">
                    <g id="Group" transform="translate(31.928255, 0.000000)" fill="#FFFFFF">
                        <path d="M7.85926273,0.818673201 C3.76589673,0.818673201 2.29228496,3.68402941 2.29228496,6.38565097 L2.29228496,8.02299737 L1.39174444,8.02299737 C0.736805881,8.02299737 0.24560196,8.5142013 0.24560196,9.16913986 C0.24560196,9.82407842 0.736805881,10.3152823 1.39174444,10.3152823 L2.29228496,10.3152823 L2.29228496,21.6129725 C2.29228496,22.2679111 2.78348888,22.759115 3.43842745,22.759115 C4.09336601,22.759115 4.58456993,22.2679111 4.58456993,21.6129725 L4.58456993,10.233415 L7.20432417,10.233415 C7.85926273,10.233415 8.35046665,9.7422111 8.35046665,9.08727254 C8.35046665,8.43233398 7.85926273,7.94113005 7.20432417,7.94113005 L4.58456993,7.94113005 L4.58456993,6.30378365 C4.58456993,4.83017189 5.15764117,3.02909085 7.77739541,3.02909085 C8.43233398,3.02909085 8.9235379,2.53788692 8.9235379,1.88294836 C8.9235379,1.2280098 8.5142013,0.818673201 7.85926273,0.818673201 Z M17.1102699,7.61366077 C15.3091889,7.61366077 13.8355771,8.35046665 13.0169039,9.57847646 L13.0169039,8.9235379 C13.0169039,8.26859933 12.5257,7.77739541 11.8707614,7.77739541 C11.2158229,7.77739541 10.7246189,8.26859933 10.7246189,8.9235379 L10.7246189,21.5311052 C10.7246189,22.1860438 11.2158229,22.6772477 11.8707614,22.6772477 C12.5257,22.6772477 13.0169039,22.1860438 13.0169039,21.5311052 L13.0169039,14.572383 C13.0169039,11.6251595 14.572383,9.90594574 17.1102699,9.90594574 C17.7652085,9.90594574 18.2564124,9.41474182 18.2564124,8.75980326 C18.2564124,8.10486469 17.7652085,7.61366077 17.1102699,7.61366077 Z M31.6826529,13.8355771 C31.6826529,13.1806385 31.6007856,11.3795575 30.5365104,9.90594574 C29.4722353,8.35046665 27.8348888,7.53179345 25.6244712,7.53179345 C21.4492379,7.53179345 19.0750856,10.3152823 19.0750856,15.1454542 C19.0750856,20.1393608 21.4492379,22.8409823 25.9519405,22.8409823 C28.9810313,22.8409823 30.6183777,21.3673706 30.945847,21.0399013 C31.1095817,20.8761666 31.3551836,20.6305647 31.3551836,20.2212281 C31.3551836,19.6481568 30.8639797,19.1569529 30.2909085,19.1569529 C29.9634392,19.1569529 29.7997045,19.2388202 29.6359699,19.4025549 C28.7354294,20.0574934 27.7530215,20.712432 26.0338078,20.712432 C23.3321862,20.712432 21.6129725,18.911351 21.5311052,16.0459947 L30.2909085,16.0459947 C31.6826529,15.9641274 31.6826529,14.6542503 31.6826529,13.8355771 L31.6826529,13.8355771 Z M25.6244712,9.7422111 C28.0804908,9.7422111 29.3085006,11.1339555 29.3903679,13.8355771 L21.4492379,13.8355771 C21.6948398,11.2158229 23.1684516,9.7422111 25.6244712,9.7422111 L25.6244712,9.7422111 Z M39.7056503,13.9993117 C37.9045692,13.4262405 36.4309575,12.8531693 36.4309575,11.5432921 C36.4309575,10.0696804 38.0683039,9.90594574 38.9688444,9.90594574 C40.6880581,9.90594574 41.5067313,10.479017 42.2435372,11.1339555 C42.4891392,11.3795575 42.7347411,11.4614248 43.0622104,11.4614248 C43.6352816,11.4614248 44.1264856,10.9702209 44.1264856,10.3971497 C44.1264856,10.0696804 43.9627509,9.82407842 43.8808836,9.66034378 C42.8984758,8.35046665 41.179262,7.61366077 39.0507117,7.61366077 C36.0216209,7.61366077 34.1386725,9.08727254 34.1386725,11.5432921 C34.1386725,14.4905157 36.7584267,15.3910562 39.0507117,16.2097294 C40.7699254,16.7828006 42.3254045,17.2740046 42.3254045,18.5838817 C42.3254045,20.3030954 40.3605888,20.6305647 39.2144464,20.6305647 C37.6589673,20.6305647 36.4309575,20.1393608 35.4485496,19.1569529 C35.1210803,18.8294836 34.8754784,18.8294836 34.6298764,18.8294836 C34.0568052,18.8294836 33.5656013,19.3206876 33.5656013,19.8937588 C33.5656013,20.1393608 33.6474686,20.3030954 33.8112032,20.6305647 C34.7117437,21.7767072 36.7584267,22.9228496 39.2963137,22.9228496 C42.7347411,22.9228496 44.7814241,21.2855032 44.7814241,18.665749 C44.5358222,15.6366581 41.9979352,14.8179849 39.7056503,13.9993117 Z M53.8686967,7.53179345 C52.2313503,7.53179345 50.7577385,8.18673201 49.9390653,9.25100718 L49.9390653,1.14614248 C49.9390653,0.491203921 49.4478614,0 48.7929228,0 C48.1379842,0 47.6467803,0.491203921 47.6467803,1.14614248 L47.6467803,21.5311052 C47.6467803,22.1860438 48.1379842,22.6772477 48.7929228,22.6772477 C49.4478614,22.6772477 49.9390653,22.1860438 49.9390653,21.5311052 L49.9390653,13.8355771 C49.9390653,11.0520882 51.2489424,9.66034378 53.8686967,9.66034378 C56.4065836,9.66034378 57.3889914,10.8064863 57.3889914,13.5899751 L57.3889914,21.4492379 C57.3889914,22.1041764 57.8801953,22.5953804 58.5351339,22.5953804 C59.1900725,22.5953804 59.6812764,22.1041764 59.6812764,21.4492379 L59.6812764,13.2625059 C59.7631437,9.49660914 57.7164607,7.53179345 53.8686967,7.53179345 Z M73.7624555,0 C73.1075169,0 72.616313,0.491203921 72.616313,1.14614248 L72.616313,9.16913986 C71.7976398,8.35046665 70.4058953,7.53179345 68.6048143,7.53179345 C64.3477136,7.53179345 62.137296,10.0696804 62.137296,15.1454542 C62.137296,20.1393608 64.429581,22.8409823 68.6866816,22.8409823 C72.616313,22.8409823 74.9904653,20.46683 74.9904653,16.5371987 L74.9904653,1.14614248 C74.9904653,0.491203921 74.417394,0 73.7624555,0 L73.7624555,0 Z M68.6866816,20.712432 C65.9031927,20.712432 64.5114483,18.911351 64.5114483,15.2273215 C64.5114483,11.6251595 65.9031927,9.7422111 68.6866816,9.7422111 C71.2245685,9.7422111 72.4525783,12.0344961 72.616313,12.280098 L72.616313,16.5371987 C72.616313,19.1569529 71.1427012,20.712432 68.6866816,20.712432 L68.6866816,20.712432 Z M90.3815214,13.8355771 C90.3815214,13.1806385 90.2996541,11.3795575 89.235379,9.90594574 C88.1711038,8.35046665 86.5337574,7.61366077 84.2414724,7.61366077 C80.0662391,7.61366077 77.6920868,10.3971497 77.6920868,15.2273215 C77.6920868,20.2212281 80.0662391,22.9228496 84.5689417,22.9228496 C87.5980326,22.9228496 89.235379,21.4492379 89.5628482,21.1217686 C89.7265829,20.958034 89.9721848,20.712432 89.9721848,20.3030954 C89.9721848,19.7300242 89.4809809,19.2388202 88.9079097,19.2388202 C88.6623077,19.2388202 88.4985731,19.3206876 88.2529711,19.4844222 C87.3524306,20.1393608 86.3700228,20.7942993 84.650809,20.7942993 C81.9491875,20.7942993 80.2299737,18.9932183 80.1481064,16.1278621 L88.989777,16.1278621 C90.3815214,15.9641274 90.3815214,14.6542503 90.3815214,13.8355771 L90.3815214,13.8355771 Z M84.2414724,9.7422111 C86.697492,9.7422111 87.9255018,11.1339555 88.0073692,13.8355771 L80.0662391,13.8355771 C80.3118411,11.2158229 81.7854528,9.7422111 84.2414724,9.7422111 Z M98.4045188,13.9993117 C96.6034378,13.4262405 95.129826,12.8531693 95.129826,11.5432921 C95.129826,10.0696804 96.7671724,9.90594574 97.6677129,9.90594574 C99.3869267,9.90594574 100.2056,10.479017 100.942406,11.1339555 C101.188008,11.3795575 101.43361,11.4614248 101.761079,11.4614248 C102.33415,11.4614248 102.825354,10.9702209 102.825354,10.3971497 C102.825354,10.0696804 102.661619,9.82407842 102.579752,9.66034378 C101.597344,8.35046665 99.8781306,7.61366077 97.7495803,7.61366077 C94.7204894,7.61366077 92.837541,9.08727254 92.837541,11.5432921 C92.837541,14.4905157 95.4572953,15.3910562 97.7495803,16.2097294 C99.468794,16.7828006 101.024273,17.2740046 101.024273,18.5838817 C101.024273,20.3030954 99.0594574,20.6305647 97.9133149,20.6305647 C96.3578358,20.6305647 95.129826,20.1393608 94.1474182,19.1569529 C93.8199489,18.8294836 93.5743469,18.8294836 93.328745,18.8294836 C92.7556737,18.8294836 92.2644698,19.3206876 92.2644698,19.8937588 C92.2644698,20.1393608 92.3463371,20.3030954 92.5100718,20.6305647 C93.4106123,21.7767072 95.4572953,22.9228496 97.9951822,22.9228496 C101.43361,22.9228496 103.480293,21.2855032 103.480293,18.665749 C103.234691,15.6366581 100.696804,14.8179849 98.4045188,13.9993117 L98.4045188,13.9993117 Z M117.561472,20.7942993 L112.158229,13.8355771 L117.070268,9.90594574 C117.479604,9.57847646 117.561472,9.16913986 117.561472,8.9235379 C117.561472,8.26859933 117.070268,7.77739541 116.415329,7.77739541 C116.251595,7.77739541 115.924125,7.77739541 115.596656,8.10486469 L108.556067,13.8355771 L108.556067,1.14614248 C108.556067,0.491203921 108.064863,0 107.409924,0 C106.754985,0 106.263782,0.491203921 106.263782,1.14614248 L106.263782,21.5311052 C106.263782,22.1860438 106.754985,22.6772477 107.409924,22.6772477 C108.064863,22.6772477 108.556067,22.1860438 108.556067,21.5311052 L108.556067,16.619066 L110.193413,15.3091889 L115.596656,22.1860438 C115.924125,22.513513 116.251595,22.759115 116.579064,22.759115 C117.234002,22.759115 117.725206,22.2679111 117.725206,21.6129725 C117.807074,21.3673706 117.807074,21.0399013 117.561472,20.7942993 L117.561472,20.7942993 Z" id="Shape"></path>
                    </g>
                    <path d="M27.9167562,8.35046665 L27.9167562,18.8294836 L27.9167562,8.35046665 Z M13.9174444,32.7469281 C6.22191633,32.7469281 0,26.5250117 0,18.8294836 C0,11.1339555 6.22191633,4.91203921 13.9174444,4.91203921 L24.3964614,4.91203921 C26.3612771,4.91203921 27.9167562,6.46751829 27.9167562,8.43233398 L27.9167562,18.8294836 C27.9167562,26.5250117 21.6948398,32.7469281 13.9174444,32.7469281 Z" id="Shape" fill="#25C16F"></path>
                    <path d="M13.9174444,11.0520882 C10.3152823,11.0520882 7.53179345,13.9174444 7.53179345,17.4377392 L7.53179345,21.6948398 C7.53179345,22.8409823 8.5142013,23.8233902 9.66034378,23.8233902 L11.4614248,23.8233902 L11.4614248,18.8294836 L9.00540522,18.8294836 L9.00540522,17.4377392 C9.00540522,14.6542503 11.2158229,12.4438327 13.9993117,12.4438327 C16.7828006,12.4438327 18.9932183,14.6542503 18.9932183,17.4377392 L18.9932183,18.8294836 L16.5371987,18.8294836 L16.5371987,23.8233902 L18.1745451,23.8233902 L18.1745451,23.9052575 C18.1745451,24.9695326 17.2740046,25.8700732 16.2097294,25.8700732 L14.2449137,25.8700732 C14.0811791,25.8700732 13.9174444,26.0338078 13.9174444,26.1975424 C13.9174444,26.3612771 14.0811791,26.5250117 14.2449137,26.5250117 L16.2097294,26.5250117 C17.6014738,26.5250117 18.7476163,25.3788692 18.7476163,23.9871248 L18.7476163,23.8233902 C19.6481568,23.5777882 20.3849627,22.759115 20.3849627,21.7767072 L20.3849627,17.5196065 C20.3849627,13.9174444 17.5196065,11.0520882 13.9174444,11.0520882 L13.9174444,11.0520882 Z" id="Shape" fill="#FFFFFF"></path>
                </g>
            </g>
        </g>
    </g>
</svg>