<?xml version="1.0" encoding="UTF-8"?>
<svg width="30px" height="25px" viewBox="0 0 30 25" version="1.1" xmlns="http://www.w3.org/2000/svg" xmlns:xlink="http://www.w3.org/1999/xlink">
    <!-- Generator: Sketch 44 (41411) - http://www.bohemiancoding.com/sketch -->
    <title>icons-support</title>
    <desc>Created with Sketch.</desc>
    <defs>
        <polygon id="path-1" points="29.99925 24.5 0 24.5 0 0.2375 29.99925 0.2375"></polygon>
    </defs>
    <g id="Update---Enterprise" stroke="none" stroke-width="1" fill="none" fill-rule="evenodd">
        <g id="Enterprise_update_security" transform="translate(-177.000000, -3468.000000)">
            <g id="icons-support" transform="translate(177.000000, 3468.000000)">
                <g id="Page-1">
                    <g id="Group-3" transform="translate(0.000000, 0.262950)">
                        <g id="Fill-1-Clipped" transform="translate(0.000000, 0.000000)">
                            <mask id="mask-2" fill="white">
                                <use xlink:href="#path-1"></use>
                            </mask>
                            <g id="path-9"></g>
                            <path d="M28.08825,6.6911 C28.08825,7.2191 27.65925,7.6481 27.13125,7.6481 L2.86875,7.6481 C2.34075,7.6481 1.91325,7.2191 1.91325,6.6911 L1.91325,3.1046 C1.91325,2.5781 2.34075,2.1506 2.86875,2.1506 L27.13125,2.1506 C27.65925,2.1506 28.08825,2.5781 28.08825,3.1046 L28.08825,6.6911 Z M28.08825,14.1611 C28.08825,14.6891 27.65925,15.1166 27.13125,15.1166 L2.86875,15.1166 C2.34075,15.1166 1.91325,14.6891 1.91325,14.1611 L1.91325,10.5761 C1.91325,10.0481 2.34075,9.6191 2.86875,9.6191 L27.13125,9.6191 C27.65925,9.6191 28.08825,10.0481 28.08825,10.5761 L28.08825,14.1611 Z M28.08825,21.6311 C28.08825,22.1591 27.65925,22.5881 27.13125,22.5881 L2.86875,22.5881 C2.34075,22.5881 1.91325,22.1591 1.91325,21.6311 L1.91325,18.0446 C1.91325,17.5196 2.34075,17.0906 2.86875,17.0906 L27.13125,17.0906 C27.65925,17.0906 28.08825,17.5196 28.08825,18.0446 L28.08825,21.6311 Z M29.99925,3.1046 C29.99925,1.5236 28.71375,0.2366 27.13125,0.2366 L2.86875,0.2366 C1.28625,0.2366 -0.00075,1.5236 -0.00075,3.1046 L-0.00075,6.6911 C-0.00075,7.4426 0.29775,8.1221 0.77025,8.6336 C0.29775,9.1451 -0.00075,9.8246 -0.00075,10.5761 L-0.00075,14.1611 C-0.00075,14.9126 0.29775,15.5921 0.77025,16.1036 C0.29775,16.6151 -0.00075,17.2946 -0.00075,18.0446 L-0.00075,21.6311 C-0.00075,23.2136 1.28625,24.5006 2.86875,24.5006 L27.13125,24.5006 C28.71375,24.5006 29.99925,23.2136 29.99925,21.6311 L29.99925,18.0446 C29.99925,17.2946 29.70375,16.6151 29.22975,16.1036 C29.70375,15.5921 29.99925,14.9126 29.99925,14.1611 L29.99925,10.5761 C29.99925,9.8246 29.70375,9.1451 29.22975,8.6336 C29.70375,8.1221 29.99925,7.4426 29.99925,6.6911 L29.99925,3.1046 Z" id="Fill-1" fill="#4C4C51" fill-rule="nonzero" mask="url(#mask-2)"></path>
                        </g>
                    </g>
                    <path d="M23.7846,3.18935 C22.7631,3.18935 21.9321,4.02035 21.9321,5.04185 C21.9321,6.06335 22.7631,6.89435 23.7846,6.89435 C24.8076,6.89435 25.6371,6.06335 25.6371,5.04185 C25.6371,4.02035 24.8076,3.18935 23.7846,3.18935" id="Fill-4" fill="#4C4C51" fill-rule="nonzero"></path>
                    <path d="M23.7846,10.71875 C22.7631,10.71875 21.9321,11.55125 21.9321,12.57125 C21.9321,13.59275 22.7631,14.42525 23.7846,14.42525 C24.8076,14.42525 25.6371,13.59275 25.6371,12.57125 C25.6371,11.55125 24.8076,10.71875 23.7846,10.71875" id="Fill-6" fill="#4C4C51" fill-rule="nonzero"></path>
                    <path d="M23.7846,18.2495 C22.7631,18.2495 21.9321,19.0805 21.9321,20.1005 C21.9321,21.1235 22.7631,21.9545 23.7846,21.9545 C24.8076,21.9545 25.6371,21.1235 25.6371,20.1005 C25.6371,19.0805 24.8076,18.2495 23.7846,18.2495" id="Fill-8" fill="#4C4C51" fill-rule="nonzero"></path>
                    <polygon id="Fill-10" fill="#4C4C51" fill-rule="nonzero" points="6.3354 5.1611 6.3354 6.1181 19.1229 6.1181 19.1229 5.1611 19.1229 4.2041 6.3354 4.2041"></polygon>
                    <polygon id="Fill-12" fill="#4C4C51" fill-rule="nonzero" points="6.3354 12.45155 6.3354 13.40855 19.1229 13.40855 19.1229 12.45155 19.1229 11.49605 6.3354 11.49605"></polygon>
                    <polygon id="Fill-14" fill="#4C4C51" fill-rule="nonzero" points="6.3354 19.74365 6.3354 20.69915 19.1229 20.69915 19.1229 19.74365 19.1229 18.78665 6.3354 18.78665"></polygon>
                </g>
            </g>
        </g>
    </g>
</svg>