<?xml version="1.0" encoding="UTF-8"?>
<svg width="48px" height="48px" viewBox="0 0 48 48" version="1.1" xmlns="http://www.w3.org/2000/svg" xmlns:xlink="http://www.w3.org/1999/xlink">
    <!-- Generator: Sketch 53.2 (72643) - https://sketchapp.com -->
    <title>Group 30</title>
    <desc>Created with Sketch.</desc>
    <defs>
        <polygon id="path-1" points="0.196939046 0.0686831461 20.1544679 0.0686831461 20.1544679 28.0449438 0.196939046 28.0449438"></polygon>
    </defs>
    <g id="Page-1" stroke="none" stroke-width="1" fill="none" fill-rule="evenodd">
        <g id="Package-Enterprise" transform="translate(-181.000000, -5981.000000)">
            <g id="Group-30" transform="translate(181.000000, 5981.000000)">
                <g id="Group-3" transform="translate(27.775281, 19.918382)">
                    <mask id="mask-2" fill="white">
                        <use xlink:href="#path-1"></use>
                    </mask>
                    <g id="Clip-2"></g>
                    <path d="M3.97043596,22.0435146 C4.75057079,22.8090876 5.51587416,23.5600989 6.23102022,24.2620315 C6.23102022,23.7510202 6.24908764,23.1054472 6.21726742,22.4620315 C6.21025618,22.3180315 6.03443596,22.0680539 5.92549213,22.0621213 C5.24459326,22.0251775 4.56045843,22.0435146 3.97043596,22.0435146 M8.21466067,26.0383011 C8.48755955,26.0560989 8.68414382,26.0798292 8.88072809,26.0798292 C11.7332225,26.0822562 14.5859865,26.0660764 17.4379416,26.0941213 C18.0349753,26.0997843 18.1981213,25.9137169 18.1965034,25.3266607 C18.1789753,17.8249079 18.178436,10.3234247 18.1973124,2.82167191 C18.1989303,2.23084045 18.0411775,2.06850337 17.4441438,2.07173933 C12.6152899,2.09681798 7.78643596,2.08522247 2.95758202,2.08737978 C2.72081798,2.08764944 2.48405393,2.11111011 2.23353708,2.12486292 L2.23353708,20.0534022 C3.84423371,20.0534022 5.41340225,20.0466607 6.98257079,20.0558292 C7.82041348,20.0606831 8.17286292,20.3945258 8.20684045,21.2267056 C8.23272809,21.8544809 8.21439101,22.4841438 8.21466067,23.1129978 C8.2152,24.0740764 8.21466067,25.0351551 8.21466067,26.0383011 M20.1539865,14.0822562 C20.1539865,18.2833348 20.1556045,22.4844135 20.1529079,26.6854921 C20.1523685,27.754436 19.8676045,28.035964 18.7908404,28.0373124 C14.9942562,28.0427056 11.1976719,28.0545708 7.40108764,28.0303011 C7.05780674,28.0281438 6.62823371,27.8752449 6.38715506,27.6403685 C4.42454831,25.7276494 2.48755955,23.7882337 0.572683146,21.8275146 C0.351289888,21.6007281 0.206480899,21.1954247 0.20567191,20.8726382 C0.189492135,14.4473798 0.199739326,8.02239101 0.205132584,1.59713258 C0.205941573,0.344817978 0.483424719,0.0703011236 1.76728989,0.0697617978 C7.38382921,0.0684134831 13.0000989,0.0681438202 18.6166382,0.0700314607 C19.8848629,0.0703011236 20.1539865,0.344548315 20.1539865,1.61358202 C20.1542562,5.76962697 20.1542562,9.92594157 20.1539865,14.0822562" id="Fill-1" fill="#4C4C51" mask="url(#mask-2)"></path>
                </g>
                <path d="M14.0061573,24.1925933 C14.7091685,23.4925483 15.4690787,22.7358742 16.164809,22.0428404 L14.0061573,22.0428404 L14.0061573,24.1925933 Z M17.9572584,2.07403146 C17.6894831,2.05542472 17.4497528,2.02441348 17.2097528,2.02441348 C12.4011236,2.02171685 7.59249438,2.03466067 2.78413483,2.00796404 C2.12238202,2.00445843 1.95977528,2.21317753 1.96166292,2.85066067 C1.98188764,10.3106157 1.97433708,17.7705708 1.97595506,25.2305258 C1.97595506,25.4678292 1.99564045,25.7048629 2.00642697,25.9478292 L11.9836854,25.9478292 C11.9836854,25.6711551 11.9836854,25.4308854 11.9839551,25.1906157 C11.9842247,23.8649528 11.9731685,22.5390202 11.9893483,21.213627 C11.9995955,20.3709303 12.3482697,20.0295371 13.1817978,20.0195596 C14.2151461,20.0076944 15.2490337,20.0163236 16.2826517,20.0163236 C16.8354607,20.0160539 17.3882697,20.0163236 17.9572584,20.0163236 L17.9572584,2.07403146 Z M0.000943820225,13.9707506 C0.000943820225,9.83789663 0.000134831461,5.70477303 0.00148314607,1.57164944 C0.00175280899,0.266211236 0.261977528,0.00355955056 1.58844944,0.0027505618 C7.18152809,-0.00075505618 12.7746067,-0.00075505618 18.3676854,0.0027505618 C19.7124944,0.00355955056 19.9667865,0.271604494 19.9667865,1.63744719 C19.9670562,7.76985169 19.9365843,13.9022562 19.9959101,20.0338517 C20.0061573,21.0836494 19.6987416,21.7985258 18.9625618,22.4996494 C17.2553258,24.1254472 15.6322247,25.839964 13.9314607,27.4733124 C13.6286292,27.764009 13.1170787,27.982436 12.6993708,27.9867506 C9.03842697,28.0253124 5.37694382,28.0077843 1.71546067,28.0058966 C1.51348315,28.005627 1.31096629,28.0018517 1.10952809,27.9859416 C0.314831461,27.9231101 0.0543370787,27.6531775 0.00849438202,26.8414921 C-0.00417977528,26.6176719 0.00121348315,26.3925034 0.000943820225,26.1678742 C0.000674157303,22.1021663 0.000943820225,18.0364584 0.000943820225,13.9707506 L0.000943820225,13.9707506 Z" id="Fill-4" fill="#4C4C51"></path>
                <path d="M26.4861034,8.01570337 L29.5063281,8.01570337 C32.5610697,8.01570337 35.6158112,8.01273708 38.6708225,8.01786067 C39.5760809,8.01947865 39.9514517,8.37354607 39.9557663,9.26882697 C39.9679011,11.784782 39.9665528,14.3004674 39.9557663,16.8161528 C39.9528,17.5437034 39.5323955,18.0153438 38.9507326,18.0126472 C38.371227,18.0099506 37.9570247,17.5361528 37.9527101,16.8075236 C37.9411146,14.8308944 37.9483955,12.8539955 37.9483955,10.8773663 L37.9483955,10.0934562 L26.3394067,10.0934562 C26.8776539,10.6357483 27.353609,11.1157483 27.8301034,11.595209 C28.1151371,11.8818607 28.4088,12.1606921 28.6849348,12.4557034 C29.1592719,12.9626697 29.1967551,13.5389393 28.7963056,13.9504449 C28.3732045,14.3856809 27.7785978,14.3606022 27.2546427,13.8455461 C26.2134742,12.8221753 25.1892944,11.7815461 24.1564854,10.7495461 C23.8388225,10.4318831 23.5063281,10.128782 23.198373,9.80222022 C22.7135191,9.28770337 22.6978787,8.75377079 23.1897438,8.25543371 C24.5466876,6.88069213 25.9138787,5.51619775 27.2918562,4.16248989 C27.7581034,3.70460225 28.4109573,3.69813034 28.8019685,4.09426517 C29.1921708,4.48986067 29.1603506,5.10523146 28.6803506,5.59089438 C27.9261034,6.35377079 27.1486652,7.09345618 26.3812045,7.84284944 C26.415991,7.9005573 26.4510472,7.95826517 26.4861034,8.01570337" id="Fill-6" fill="#4C4C51"></path>
                <path d="M21.4504719,40.9090517 C20.5748764,40.0633888 19.8276404,39.3579506 19.0992809,38.6333663 C18.5437753,38.080827 18.4876854,37.4597933 18.9221124,37.0404674 C19.3479101,36.6295011 19.9468315,36.6691416 20.4764494,37.1901303 C21.8212584,38.513636 23.1568989,39.8463101 24.4841798,41.1868045 C25.0186517,41.7264 25.0132584,42.2403775 24.4839101,42.7726921 C23.1531236,44.1102202 21.8169438,45.4423551 20.4764494,46.769636 C19.9573483,47.2836135 19.3382022,47.3453663 18.9302022,46.9484225 C18.4917303,46.5215461 18.5359551,45.8967371 19.0812135,45.3463551 C19.8165843,44.6034337 20.5729888,43.8812764 21.3204944,43.1507596 C21.2919101,43.0957483 21.2633258,43.0410067 21.2347416,42.9859955 L20.5276854,42.9859955 C16.8217079,42.9859955 13.1154607,42.9876135 9.40948315,42.9849169 C8.31653933,42.9841079 8.01694382,42.6810067 8.01559551,41.5778157 C8.01235955,39.1521978 8.01262921,36.7263101 8.01586517,34.3006921 C8.01694382,33.4776809 8.41092135,32.9790742 9.03465169,32.9898607 C9.65433708,33.0003775 10.0245843,33.4949393 10.0256629,34.3314337 C10.0283596,36.5073438 10.0264719,38.6829843 10.0264719,40.9090517 L21.4504719,40.9090517 Z" id="Fill-8" fill="#4C4C51"></path>
                <path d="M37.9604764,37.9818607 C36.3683865,37.9818607 34.7762966,37.985636 33.1844764,37.9805124 C32.4151281,37.9778157 31.9984989,37.6393888 31.9782742,37.0234787 C31.9572404,36.3757483 32.3895101,35.9804225 33.1769258,35.9785348 C36.360836,35.9712539 39.5450157,35.9715236 42.7291955,35.9782652 C43.5036674,35.9801528 43.9658697,36.3908494 43.9478022,37.0164674 C43.9305438,37.6110742 43.4796674,37.9778157 42.7364764,37.9802427 C41.1446562,37.9853663 39.5525663,37.9818607 37.9604764,37.9818607" id="Fill-18" fill="#4C4C51"></path>
                <path d="M37.9623101,25.9903011 C36.3707596,25.9903011 34.7789393,25.9938067 33.1871191,25.9886831 C32.4131865,25.9862562 31.9987146,25.6521438 31.9782202,25.0370427 C31.9566472,24.390391 32.3883775,23.9945258 33.1771416,23.9926382 C36.360782,23.984818 39.5438831,23.984818 42.7272539,23.9923685 C43.5098157,23.9942562 43.9647371,24.3990202 43.9474787,25.0270652 C43.9310292,25.6235596 43.4855461,25.9859865 42.7375011,25.9886831 C41.1456809,25.9940764 39.5538607,25.9903011 37.9623101,25.9903011" id="Fill-20" fill="#4C4C51"></path>
                <path d="M38.0161618,30.0023191 C39.5856,30.0023191 41.1550382,29.9990831 42.7242067,30.0036674 C43.4784539,30.0060944 43.9217798,30.3577348 43.9465888,30.9528809 C43.9727461,31.5814652 43.5151281,31.999982 42.7409258,32.0018697 C39.5575551,32.0096899 36.3739146,32.0094202 33.1902742,32.002409 C32.3961169,32.0005213 31.9643865,31.615173 31.9778697,30.9698697 C31.9905438,30.3504539 32.4050157,30.0066337 33.1735551,30.0039371 C34.7877573,29.9982742 36.4019596,30.0023191 38.0161618,30.0023191" id="Fill-22" fill="#4C4C51"></path>
                <path d="M9.99715955,6.0190382 C8.40453034,6.0190382 6.81190112,6.02281348 5.21927191,6.01742022 C4.44749663,6.01499326 3.96938427,5.61319551 3.98313708,4.99917303 C3.99635056,4.41454382 4.46745169,4.01355506 5.19176629,4.01220674 C8.37702472,4.00600449 11.5622831,4.00627416 14.7472719,4.01166742 C15.5368449,4.01301573 15.9817888,4.40079101 15.9696539,5.03908315 C15.9577888,5.67279101 15.5230921,6.01580225 14.7076315,6.01795955 C13.1376539,6.02173483 11.5674067,6.0190382 9.99715955,6.0190382" id="Fill-24" fill="#4C4C51"></path>
                <path d="M9.96213034,18.0129978 C8.39188315,18.0129978 6.82163596,18.0162337 5.25138876,18.0116494 C4.47260225,18.0092225 3.99125393,17.6260315 3.98316404,17.0198292 C3.97480449,16.412009 4.46073708,16.004009 5.2271191,16.0032 C8.38999551,15.9988854 11.5528719,15.9991551 14.716018,16.0026607 C15.5188045,16.0037393 15.963209,16.3642787 15.9704899,16.9955596 C15.9777708,17.6314247 15.5322876,18.0081438 14.7402876,18.0111101 C13.1476584,18.0170427 11.5547596,18.0129978 9.96213034,18.0129978" id="Fill-26" fill="#4C4C51"></path>
                <path d="M9.96412584,12.0088989 C8.3499236,12.0086292 6.7346427,12.0385618 5.12232809,11.9846292 C4.77985618,11.9730337 4.33949663,11.7303371 4.14533933,11.4531236 C3.9913618,11.2330787 4.0299236,10.7201798 4.1928,10.4796404 C4.35729438,10.2364045 4.77904719,10.0457528 5.09050787,10.0427865 C8.34102472,10.0120449 11.5920809,10.0193258 14.8428674,10.0271461 C15.5528899,10.0290337 15.9608899,10.4022472 15.9697888,10.9973933 C15.9789573,11.6146517 15.5577438,11.9994607 14.8067326,12.0053933 C13.1928,12.0175281 11.5783281,12.0088989 9.96412584,12.0088989" id="Fill-28" fill="#4C4C51"></path>
            </g>
        </g>
    </g>
</svg>