<?xml version="1.0" encoding="UTF-8"?>
<svg width="37px" height="40px" viewBox="0 0 37 40" version="1.1" xmlns="http://www.w3.org/2000/svg" xmlns:xlink="http://www.w3.org/1999/xlink">
    <!-- Generator: Sketch 53.2 (72643) - https://sketchapp.com -->
    <title>Group 12</title>
    <desc>Created with Sketch.</desc>
    <defs>
        <polygon id="path-1" points="2.53164557e-05 0.476455696 36.1062327 0.476455696 36.1062327 39.4936291 2.53164557e-05 39.4936291"></polygon>
    </defs>
    <g id="Page-1" stroke="none" stroke-width="1" fill="none" fill-rule="evenodd">
        <g id="Package-Enterprise" transform="translate(-181.000000, -5829.000000)">
            <g id="Group-27" transform="translate(181.000000, 5829.000000)">
                <g id="Group-12">
                    <g id="Group-3" transform="translate(0.000000, 0.030025)">
                        <mask id="mask-2" fill="white">
                            <use xlink:href="#path-1"></use>
                        </mask>
                        <g id="Clip-2"></g>
                        <path d="M24.1814177,6.00253165 C23.4117975,11.4263291 27.191038,13.1762025 30.5353418,12.3605063 C28.4690127,10.2926582 26.3474937,8.16962025 24.1814177,6.00253165 M21.063443,3.45113924 C16.6735696,3.45113924 12.503443,3.42987342 8.33331646,3.45772152 C4.83356962,3.48101266 3.09787342,5.2835443 3.09635443,8.82481013 C3.09432911,16.2906329 3.09432911,23.7559494 3.09635443,31.2222785 C3.09787342,34.7387342 4.86698734,36.5194937 8.37736709,36.5220253 C14.872557,36.5281013 21.3677468,36.5286076 27.863443,36.5220253 C31.3591392,36.5189873 33.1252152,34.7286076 33.1292658,31.1959494 C33.1343291,26.4298734 33.1317975,21.6637975 33.1277468,16.8977215 C33.1277468,16.4860759 33.0933165,16.0749367 33.068,15.5179747 C31.7424304,15.5179747 30.4897722,15.518481 29.2371139,15.5179747 C24.3216709,15.5159494 21.1520506,12.4146835 21.066481,7.50835443 C21.0442025,6.20911392 21.063443,4.90987342 21.063443,3.45113924 M18.066481,39.4860759 C14.7778734,39.4865823 11.4887595,39.4881013 8.2001519,39.4860759 C3.34394937,39.483038 0.152556962,36.5756962 0.0842025316,31.7402532 C-0.0276962025,23.8992405 -0.0287088608,16.0541772 0.0852151899,8.21265823 C0.154582278,3.46734177 3.38040506,0.504303797 8.12167089,0.492151899 C12.7176203,0.480506329 17.3145823,0.448607595 21.9090127,0.530632911 C22.6563544,0.544303797 23.5717975,0.919493671 24.1069873,1.43898734 C27.8583797,5.08050633 31.5540759,8.78025316 35.1996456,12.5281013 C35.6917975,13.0339241 36.0467342,13.9058228 36.0553418,14.6131646 C36.1226835,20.3888608 36.1120506,26.1660759 36.0867342,31.9427848 C36.068,36.2475949 32.8644557,39.4491139 28.5662278,39.4805063 C25.066481,39.5063291 21.5662278,39.4860759 18.066481,39.4860759" id="Fill-1" fill="#4C4C51" mask="url(#mask-2)"></path>
                    </g>
                    <path d="M18.0367595,30.5257215 C15.2124557,30.5257215 12.3886582,30.5105316 9.56486076,30.5338228 C8.50308861,30.5419241 7.70713924,30.2421772 7.62005063,29.0583797 C7.55068354,28.109519 8.27473418,27.5317975 9.51675949,27.5297722 C15.2489114,27.5191392 20.9815696,27.5196456 26.7137215,27.5292658 C27.9263797,27.5317975 28.6939747,28.1485063 28.6018228,29.0705316 C28.4858734,30.2300253 27.7076456,30.5474937 26.6352405,30.5363544 C23.7694177,30.5054684 20.9030886,30.5257215 18.0367595,30.5257215" id="Fill-4" fill="#4C4C51"></path>
                    <path d="M18.1118987,24.4928101 C15.2491139,24.4928101 12.3858228,24.4998987 9.52303797,24.4897722 C8.23848101,24.4852152 7.55341772,23.9611646 7.62075949,23.0021772 C7.69924051,21.8892658 8.44860759,21.5333165 9.45316456,21.5333165 C15.2217722,21.5338228 20.9898734,21.5363544 26.7579747,21.5307848 C27.7751899,21.5297722 28.5032911,21.9059747 28.5994937,22.9981266 C28.6820253,23.9358481 27.9620253,24.4852152 26.7007595,24.4897722 C23.8379747,24.4998987 20.9746835,24.4928101 18.1118987,24.4928101" id="Fill-6" fill="#4C4C51"></path>
                    <path d="M12.8268861,18.5810127 C11.6911899,18.5805063 10.554481,18.6124051 9.4203038,18.5703797 C8.44916456,18.5349367 7.67549367,18.1567089 7.61827848,17.0402532 C7.57068354,16.1151899 8.30131646,15.5526582 9.53574684,15.5455696 C11.7646076,15.5324051 13.994481,15.5551899 16.2233418,15.5359494 C17.2446076,15.5273418 17.9716962,15.8772152 18.0825823,16.9703797 C18.1777722,17.9101266 17.4739747,18.5232911 16.2334684,18.5713924 C15.0997975,18.6159494 13.9625823,18.5810127 12.8268861,18.5810127" id="Fill-8" fill="#4C4C51"></path>
                    <path d="M12.9329114,9.50911392 C14.0691139,9.50962025 15.2048101,9.50101266 16.3410127,9.5121519 C17.3744304,9.52126582 18.0944304,9.99974684 18.0736709,11.0772152 C18.0539241,12.0878481 17.34,12.54 16.3698734,12.5450633 C14.0559494,12.5577215 11.741519,12.5531646 9.42708861,12.5481013 C8.41443038,12.5455696 7.64379747,12.1313924 7.63417722,11.0407595 C7.62455696,9.95164557 8.37797468,9.51822785 9.39822785,9.51113924 C10.5764557,9.50303797 11.7546835,9.50911392 12.9329114,9.50911392" id="Fill-10" fill="#4C4C51"></path>
                </g>
            </g>
        </g>
    </g>
</svg>