<?xml version="1.0" encoding="UTF-8"?>
<svg width="37px" height="40px" viewBox="0 0 37 40" version="1.1" xmlns="http://www.w3.org/2000/svg" xmlns:xlink="http://www.w3.org/1999/xlink">
    <!-- Generator: Sketch 53.2 (72643) - https://sketchapp.com -->
    <title>Group 8</title>
    <desc>Created with Sketch.</desc>
    <defs>
        <polygon id="path-1" points="0 0.0484300969 36.4228657 0.0484300969 36.4228657 40 0 40"></polygon>
    </defs>
    <g id="Page-1" stroke="none" stroke-width="1" fill="none" fill-rule="evenodd">
        <g id="Package-Enterprise" transform="translate(-181.000000, -5678.000000)">
            <g id="Group-25" transform="translate(181.000000, 5677.000000)">
                <g id="Group-8" transform="translate(0.000000, 1.000000)">
                    <g id="Group-3">
                        <mask id="mask-2" fill="white">
                            <use xlink:href="#path-1"></use>
                        </mask>
                        <g id="Clip-2"></g>
                        <path d="M21.8598201,5.8388764 C22.2729699,6.42089888 22.3326601,6.96142322 21.9866618,7.50794007 C21.6163778,8.09280899 20.9046308,8.30149813 20.3182625,7.95138577 C18.8131334,7.05265918 17.3101988,6.14853933 15.8344759,5.20067416 C14.9280043,4.61850187 14.9675052,3.43213483 15.8820232,2.86 C17.2752332,1.98853933 18.6779527,1.13265918 20.0831592,0.281423221 C20.7065413,-0.0961048689 21.3568425,-0.00531835206 21.7764294,0.484719101 C22.1837272,0.960524345 22.2362487,1.68666667 21.8304139,2.16651685 C21.5897513,2.45116105 21.2520921,2.64966292 20.9202849,2.91722846 C21.298469,2.99602996 21.6593898,3.05985019 22.0150439,3.1470412 C28.5591661,4.75423221 33.0192522,8.80636704 35.3904742,15.2325843 C36.3932108,17.9501873 36.6231936,20.7934831 36.2627117,23.6755805 C35.6508873,28.5662172 33.4613692,32.5940824 29.7810594,35.7398502 C27.0715929,38.0558052 23.9361024,39.4496629 20.4110164,39.8617978 C15.3126256,40.4577528 10.7290628,39.1289139 6.74562048,35.834382 C3.20619707,32.9068914 0.997074871,29.1032959 0.267186747,24.4923596 C-0.616901033,18.907191 0.695551635,13.8746816 4.16665318,9.45191011 C4.55463941,8.95752809 5.09082702,8.77670412 5.62833133,8.94898876 C6.16276334,9.12037453 6.44760843,9.51468165 6.52222117,10.0670412 C6.57488898,10.4567041 6.45346041,10.7990262 6.20562909,11.1046442 C4.97012995,12.6282397 3.99636059,14.3179775 3.4252074,16.2062172 C1.69887349,21.9131835 2.58369277,27.1675655 6.36699742,31.7494382 C9.66166179,35.7397004 13.9839337,37.5638202 19.0671093,37.2968539 C23.6786153,37.0549064 27.4853279,35.041573 30.3843985,31.3480899 C32.8328666,28.228839 33.9647857,24.6379775 33.7744501,20.6310861 C33.5640714,16.1990262 31.8298373,12.4830712 28.6500181,9.49205993 C26.732617,7.68861423 24.4741919,6.49865169 21.8598201,5.8388764" id="Fill-1" fill="#4C4C51" mask="url(#mask-2)"></path>
                    </g>
                    <path d="M27.3743851,21.0599992 C27.3502246,15.9753743 23.2682831,11.9032536 18.2063691,11.9140108 C13.1096877,11.924768 9.02200065,16.0213503 9.05161196,21.1042069 C9.08004471,25.9890129 12.8669044,30.2151238 18.2315608,30.2415011 C23.3043765,30.2665522 27.3983983,26.1008584 27.3743851,21.0599992 M29.9999215,21.0853449 C29.976203,27.5567661 24.6754834,32.8684714 18.2212485,32.8571247 C11.7425584,32.8456307 6.42077205,27.6417923 6.42858001,21.0735562 C6.43653529,14.5010467 11.6790635,9.28615636 18.251891,9.28571429 C24.7360319,9.28527221 30.0234927,14.6488479 29.9999215,21.0853449" id="Fill-4" fill="#4C4C51"></path>
                    <path d="M17.1499922,18.1119228 C17.1499922,17.0757626 17.1306724,16.0389877 17.1556151,15.0034423 C17.1799811,13.9821897 17.9980447,13.3445409 18.8471066,13.6468439 C19.3714805,13.8334204 19.7157765,14.3530373 19.7180834,15.0043644 C19.724283,16.7185932 19.7271666,18.4328221 19.7144789,20.1470509 C19.7123163,20.425225 19.7854143,20.5779902 20.0194145,20.7124667 C20.9692565,21.2582105 21.9113129,21.8199378 22.8468812,22.3928843 C23.6276029,22.8711594 23.8013369,23.8269411 23.2508668,24.509313 C22.8709589,24.980211 22.2658456,25.1480376 21.7517083,24.8540337 C20.4307532,24.0986603 19.1220532,23.318697 17.8136416,22.5384262 C17.3080108,22.2368916 17.1460994,21.7312602 17.1469644,21.1438671 C17.1486946,20.133219 17.1475411,19.1225709 17.1475411,18.1119228 L17.1499922,18.1119228 Z" id="Fill-6" fill="#4C4C51"></path>
                </g>
            </g>
        </g>
    </g>
</svg>