<?xml version="1.0" encoding="UTF-8"?>
<svg width="39px" height="39px" viewBox="0 0 39 39" version="1.1" xmlns="http://www.w3.org/2000/svg" xmlns:xlink="http://www.w3.org/1999/xlink">
    <!-- Generator: Sketch 53.2 (72643) - https://sketchapp.com -->
    <title>role</title>
    <desc>Created with Sketch.</desc>
    <g id="Page-1" stroke="none" stroke-width="1" fill="none" fill-rule="evenodd">
        <g id="Package-Enterprise" transform="translate(-179.000000, -5981.000000)" fill="#4C4C51" fill-rule="nonzero">
            <g id="Group-30" transform="translate(179.000000, 5981.000000)">
                <g id="role" transform="translate(0.000000, 0.000000)">
                    <path d="M10.4579034,4.32995862 C11.7671448,3.00526897 13.510869,2.27147586 15.3685241,2.26182069 C17.2435586,2.25988966 18.9756966,2.97051034 20.2984552,4.28168276 C21.6212138,5.59285517 22.3550069,7.34044138 22.3646621,9.19809655 L22.3859034,13.6800276 C22.3955586,15.5376828 21.6791448,17.289131 20.3699034,18.6118897 C19.0625931,19.9346483 17.3169379,20.6665103 15.4592828,20.6761655 L15.4245241,20.6761655 C11.6010759,20.6761655 8.48245517,17.5749241 8.46121379,13.7495448 L8.44190345,9.26568276 C8.43224828,7.40802759 9.14673103,5.65464828 10.4579034,4.32995862 M15.4245241,22.9393379 L15.4689379,22.9393379 C17.9310069,22.9258207 20.2424552,21.9545103 21.9765241,20.2030621 C23.7105931,18.4516138 24.6606621,16.1305103 24.6490759,13.6684414 L24.6259034,9.18651034 C24.6143172,6.72444138 23.6430069,4.41106207 21.8915586,2.67506207 C20.1401103,0.937131034 17.8248,0.0140965517 15.3569379,0.000579310345 C12.894869,0.0121655172 10.5834207,0.985406897 8.84935172,2.73878621 C7.11528276,4.49216552 6.16714483,6.8152 6.17873103,9.27726897 L6.19997241,13.761131 C6.2270069,18.8300966 10.3594207,22.9393379 15.4245241,22.9393379" id="Fill-1"></path>
                    <g id="Group-5" transform="translate(0.000000, 8.889490)">
                        <path d="M34.5751724,25.2490759 C33.9688276,25.870869 33.2504828,26.3478345 32.4433103,26.6664552 C31.9682759,26.8537655 31.4855172,26.9696276 31.0008276,27.0333517 C30.6107586,27.0835586 30.2187586,27.0970759 29.8325517,27.0719724 C29.4251034,27.0488 29.0234483,26.9792828 28.6333793,26.8769379 C26.825931,26.3922483 25.2598621,25.0965241 24.5222069,23.2253517 C24.2383448,22.5070069 24.1070345,21.7539034 24.1031724,21.0046621 C24.1031724,20.5798345 24.137931,20.1550069 24.2267586,19.7379034 C24.305931,19.3594207 24.4256552,18.986731 24.5801379,18.6198345 C24.5897931,18.6005241 24.5917241,18.5754207 24.6013793,18.5522483 C25.2502069,17.0576276 26.4455172,15.902869 27.9633103,15.3061793 L28.673931,15.0242483 L28.6893793,12.4965241 L29.7804138,11.4035586 C30.0314483,11.1525241 30.1724138,10.8145931 30.1724138,10.4592828 C30.1724138,10.1020414 30.0314483,9.76411034 29.7804138,9.51307586 L28.952,8.6865931 L29.7842759,7.85624828 C30.3017931,7.33486897 30.2998621,6.48714483 29.7804138,5.96769655 L28.673931,4.86121379 L28.673931,4.19886897 L30.2631724,2.60769655 L31.8524138,4.19886897 L31.8524138,14.9894897 L32.5572414,15.2752828 C33.3103448,15.5823172 33.9862069,16.0303172 34.5655172,16.6038345 C36.9503448,18.9809379 36.958069,22.8545931 34.5751724,25.2490759 L34.5751724,25.2490759 Z M2.9622069,27.2554207 L2.95834483,27.2554207 C2.71310345,27.2554207 2.49682759,27.1299034 2.36358621,26.9078345 C2.23613793,26.6973517 2.22648276,26.490731 2.33268966,26.2918345 C4.94344828,21.4159724 9.99117241,18.3688 15.5042759,18.3436966 L15.5776552,18.3436966 C17.8137931,18.3436966 19.9726897,18.8476966 21.9288276,19.7630069 C21.7144828,21.1977655 21.8708966,22.6692138 22.4173793,24.0576276 C22.8982069,25.2761103 23.6377931,26.318869 24.5473103,27.1472828 L2.9622069,27.2554207 Z M36.1605517,15.0010759 L36.1605517,15.0010759 C35.5522759,14.3966621 34.8667586,13.8945931 34.1136552,13.5045241 L34.1136552,3.91886897 C34.1136552,3.49404138 33.937931,3.08273103 33.6444138,2.79114483 L31.2827586,0.429489655 C30.7382069,-0.115062069 29.7842759,-0.1112 29.2397241,0.43142069 L26.8915862,2.78342069 C26.5845517,3.08273103 26.4146207,3.48245517 26.4107586,3.91886897 L26.4107586,5.1025931 C26.4107586,5.5505931 26.5942069,5.98507586 26.9051034,6.29211034 L27.5268966,6.91390345 L27.0576552,7.38121379 C26.3393103,8.09955862 26.3393103,9.27169655 27.0576552,9.99197241 L27.5268966,10.4592828 L26.9186207,11.0656276 C26.601931,11.3823172 26.4281379,11.8052138 26.4281379,12.2474207 L26.4204138,13.5199724 C24.7095172,14.3831448 23.3635862,15.7985931 22.5718621,17.5674207 C20.4052414,16.6057655 18.032,16.0805241 15.5776552,16.0805241 L15.4926897,16.0805241 C9.14924138,16.1133517 3.34262069,19.6143172 0.337931034,25.2220414 C-0.142896552,26.1219034 -0.108137931,27.1878345 0.426758621,28.0799724 C0.973241379,28.9817655 1.91751724,29.5166621 2.95834483,29.5166621 L2.9737931,29.5166621 L28.1428966,29.3930759 C28.4325517,29.3930759 28.7086897,29.3409379 28.9771034,29.2617655 C29.3845517,29.3216276 29.7958621,29.3544552 30.2129655,29.3544552 C31.2325517,29.3544552 32.2675862,29.1671448 33.2736552,28.7693517 C34.3801379,28.334869 35.3630345,27.6821793 36.1856552,26.8363862 C39.4413793,23.5671448 39.4317241,18.2568 36.1605517,15.0010759 L36.1605517,15.0010759 Z" id="Fill-3"></path>
                    </g>
                    <path d="M30.2774621,27.8984276 C29.1149793,27.8984276 28.143669,28.6804966 27.8347034,29.7522207 C27.7690483,29.9800828 27.7207724,30.2176 27.7207724,30.4667034 C27.7227034,30.663669 27.7497379,30.8509793 27.7922207,31.0363586 C27.9679448,31.7913931 28.479669,32.4112552 29.1593931,32.7433931 C29.4973241,32.9094621 29.8738759,33.0098759 30.2736,33.0098759 L30.2813241,33.0098759 C30.331531,33.0098759 30.3798069,33.0002207 30.4280828,32.9963586 C31.7662897,32.9171862 32.8341517,31.8126345 32.8341517,30.4531862 C32.8341517,29.0454621 31.6871172,27.8984276 30.2774621,27.8984276" id="Fill-6"></path>
                </g>
            </g>
        </g>
    </g>
</svg>