<?xml version="1.0" encoding="UTF-8"?>
<svg width="40px" height="40px" viewBox="0 0 40 40" version="1.1" xmlns="http://www.w3.org/2000/svg" xmlns:xlink="http://www.w3.org/1999/xlink">
    <!-- Generator: Sketch 53.2 (72643) - https://sketchapp.com -->
    <title>security</title>
    <desc>Created with Sketch.</desc>
    <defs>
        <polygon id="path-1" points="39.9992 0.0002 0 0.0002 0 39.8656 39.9992 39.8656"></polygon>
    </defs>
    <g id="Page-1" stroke="none" stroke-width="1" fill="none" fill-rule="evenodd">
        <g id="Package-Enterprise" transform="translate(-764.000000, -5525.000000)">
            <g id="Group-22" transform="translate(764.000000, 5525.000000)">
                <g id="security">
                    <mask id="mask-2" fill="white">
                        <use xlink:href="#path-1"></use>
                    </mask>
                    <g id="path-1"></g>
                    <path d="M17.2432,2.3536 C17.6072,2.3536 18.0112,2.4496 18.4492,2.6356 L32.1172,8.4796 L32.1172,16.8196 C32.1172,17.0776 32.0972,17.3336 32.0872,17.5916 C32.0532,17.5916 32.0232,17.5816 31.9892,17.5816 L30.8572,17.5816 C27.5952,17.5816 24.9432,20.2336 24.9432,23.4956 L24.9432,25.6216 C23.7092,26.1716 22.8452,27.4056 22.8452,28.8396 L22.8452,34.3136 C21.1392,35.5476 19.2632,36.5756 17.2352,37.3556 C12.9072,35.6896 9.2232,32.9276 6.5632,29.3536 C3.8092,25.6516 2.3532,21.3176 2.3532,16.8196 L2.3532,8.4796 L16.0252,2.6376 C16.4592,2.4496 16.8672,2.3536 17.2232,2.3536 L17.2352,1.1756 L17.2432,2.3536 Z M35.5492,25.3116 L32.8312,25.3116 L31.5712,25.3116 L30.2812,25.3116 L27.2952,25.3116 L27.2952,23.4956 C27.2952,21.5316 28.8932,19.9356 30.8572,19.9356 L31.8752,19.9356 L31.9892,19.9356 C32.3572,19.9356 32.7032,20.0076 33.0372,20.1116 C33.4432,20.2356 33.8132,20.4276 34.1412,20.6776 C34.9912,21.3296 35.5492,22.3436 35.5492,23.4956 L35.5492,25.3116 Z M29.9872,32.2636 L29.9872,31.7876 C29.9872,31.1276 30.5252,30.5896 31.1852,30.5896 L31.6612,30.5896 C32.3212,30.5896 32.8592,31.1276 32.8592,31.7876 L32.8592,32.2636 C32.8592,32.7196 32.5952,33.0996 32.2212,33.3036 L32.2212,34.5976 C32.2212,34.9716 31.9172,35.2756 31.5432,35.2756 L31.3032,35.2756 C30.9292,35.2756 30.6232,34.9716 30.6232,34.5976 L30.6232,33.3036 C30.2512,33.0996 29.9872,32.7196 29.9872,32.2636 L29.9872,32.2636 Z M37.9032,25.6216 L37.9032,23.4956 C37.9032,21.1016 36.4672,19.0476 34.4192,18.1176 C34.4452,17.6856 34.4712,17.2556 34.4712,16.8196 L34.4712,6.9256 L19.3712,0.4716 C18.6452,0.1596 17.9312,0.0016 17.2472,-0.0004 L17.2212,-0.0004 C16.5412,0.0016 15.8292,0.1596 15.0992,0.4716 L-0.0008,6.9256 L-0.0008,16.8196 C-0.0008,21.8276 1.6172,26.6476 4.6752,30.7576 C7.6932,34.8136 11.8952,37.9116 16.8312,39.7196 L17.2352,39.8656 L17.6392,39.7196 C19.5312,39.0256 21.3112,38.1416 22.9612,37.0876 C23.3492,38.6196 24.7252,39.7616 26.3752,39.7616 L36.4692,39.7616 C38.4172,39.7616 39.9992,38.1776 39.9992,36.2316 L39.9992,28.8396 C39.9992,27.4056 39.1352,26.1716 37.9032,25.6216 L37.9032,25.6216 Z" id="Fill-1" fill="#4C4C51" fill-rule="nonzero" mask="url(#mask-2)"></path>
                </g>
            </g>
        </g>
    </g>
</svg>