<?xml version="1.0" encoding="UTF-8"?>
<svg width="27px" height="31px" viewBox="0 0 27 31" version="1.1" xmlns="http://www.w3.org/2000/svg" xmlns:xlink="http://www.w3.org/1999/xlink">
    <!-- Generator: Sketch 44 (41411) - http://www.bohemiancoding.com/sketch -->
    <title>Page-1</title>
    <desc>Created with Sketch.</desc>
    <defs>
        <polygon id="path-1" points="0 0.394266667 0 30.6662667 26.6662667 30.6662667 26.6662667 0.394266667"></polygon>
    </defs>
    <g id="Update---Enterprise" stroke="none" stroke-width="1" fill="none" fill-rule="evenodd">
        <g id="Enterprise_update_security" transform="translate(-179.000000, -3026.000000)">
            <g id="Page-1" transform="translate(179.000000, 3025.000000)">
                <g id="Group-3" transform="translate(0.000000, 0.939467)">
                    <g id="Fill-1-Clipped">
                        <mask id="mask-2" fill="white">
                            <use xlink:href="#path-1"></use>
                        </mask>
                        <g id="path-1"></g>
                        <path d="M24.9409333,19.0662667 C24.9409333,19.7116 24.4182667,20.2382667 23.7729333,20.2449333 C23.7689333,20.2449333 23.7649333,20.2462667 23.7609333,20.2462667 C23.7569333,20.2462667 23.7529333,20.2449333 23.7476,20.2449333 C23.1036,20.2382667 22.5809333,19.7116 22.5809333,19.0662667 L22.5809333,16.0809333 C22.5809333,15.6729333 22.7889333,15.3142667 23.1036,15.1009333 C23.2916,14.9756 23.5169333,14.9009333 23.7609333,14.9009333 C24.2342667,14.9009333 24.6409333,15.1822667 24.8289333,15.5862667 C24.8982667,15.7369333 24.9409333,15.9036 24.9409333,16.0809333 L24.9409333,19.0662667 Z M4.08493333,16.0809333 L4.08493333,19.0662667 C4.08493333,19.7156 3.5556,20.2462667 2.90626667,20.2462667 C2.2556,20.2462667 1.72493333,19.7156 1.72493333,19.0662667 L1.72493333,16.0809333 C1.72493333,15.8396 1.7996,15.6169333 1.92226667,15.4289333 C2.13426667,15.1116 2.4956,14.9009333 2.90626667,14.9009333 C3.18893333,14.9009333 3.44493333,15.0049333 3.64893333,15.1716 C3.91293333,15.3876 4.08493333,15.7116 4.08493333,16.0809333 L4.08493333,16.0809333 Z M24.8289333,13.3836 L24.8289333,11.8462667 C24.8289333,5.5316 19.6902667,0.394266667 13.3756,0.394266667 C7.06093333,0.394266667 1.92226667,5.5316 1.92226667,11.8462667 L1.92226667,13.3582667 C0.804933333,13.7622667 -0.0004,14.8249333 -0.0004,16.0809333 L-0.0004,19.0662667 C-0.0004,20.6676 1.3036,21.9716 2.90626667,21.9716 C4.5076,21.9716 5.8116,20.6676 5.8116,19.0662667 L5.8116,16.0809333 C5.8116,14.7369333 4.88893333,13.6142667 3.64893333,13.2836 L3.64893333,11.8462667 C3.64893333,6.48226667 8.01293333,2.1196 13.3756,2.1196 C18.7396,2.1196 23.1036,6.48226667 23.1036,11.8462667 L23.1036,13.2569333 C21.8182667,13.5569333 20.8556,14.7049333 20.8556,16.0809333 L20.8556,19.0662667 C20.8556,20.3662667 21.7182667,21.4556 22.8982667,21.8262667 L22.8982667,25.7809333 C22.8982667,26.4702667 22.3382667,27.0289333 21.6502667,27.0289333 L17.7649333,27.0289333 C17.7169333,25.8222667 16.7262667,24.8556 15.5089333,24.8556 L11.2422667,24.8556 C9.99426667,24.8556 8.97693333,25.8716 8.97693333,27.1209333 L8.97693333,28.4022667 C8.97693333,29.6502667 9.99426667,30.6662667 11.2422667,30.6662667 L15.5089333,30.6662667 C16.6369333,30.6662667 17.5676,29.8356 17.7382667,28.7556 L21.6502667,28.7556 C23.2902667,28.7556 24.6236,27.4209333 24.6236,25.7809333 L24.6236,21.8262667 C25.8022667,21.4556 26.6662667,20.3662667 26.6662667,19.0662667 L26.6662667,16.0809333 C26.6662667,14.8569333 25.9036,13.8116 24.8289333,13.3836 L24.8289333,13.3836 Z" id="Fill-1" fill="#4C4C51" fill-rule="nonzero" mask="url(#mask-2)"></path>
                    </g>
                </g>
                <path d="M10.2548,20.4653333 C10.2268,20.6266667 10.2934667,20.7906667 10.4254667,20.8866667 C10.5601333,20.984 10.7361333,20.996 10.8801333,20.92 L13.5121333,19.5373333 L16.1441333,20.92 C16.2068,20.952 16.2761333,20.9693333 16.3454667,20.9693333 C16.4348,20.9693333 16.5241333,20.9413333 16.5988,20.8866667 C16.7308,20.7906667 16.7974667,20.6266667 16.7694667,20.4653333 L16.2668,17.5346667 L18.3961333,15.4586667 C18.5148,15.344 18.5561333,15.172 18.5054667,15.0173333 C18.4548,14.86 18.3201333,14.7466667 18.1574667,14.7226667 L15.2148,14.296 L13.8988,11.6293333 C13.8268,11.4826667 13.6761333,11.388 13.5121333,11.388 C13.3481333,11.388 13.1988,11.4826667 13.1254667,11.6293333 L11.8094667,14.296 L8.8668,14.7226667 C8.70413333,14.7466667 8.56946667,14.86 8.5188,15.0173333 C8.46813333,15.172 8.5108,15.344 8.62813333,15.4586667 L10.7574667,17.5346667 L10.2548,20.4653333 Z" id="Fill-4" fill="#4C4C51" fill-rule="nonzero"></path>
            </g>
        </g>
    </g>
</svg>