<svg width="94" height="104" xmlns="http://www.w3.org/2000/svg"><g fill="none" fill-rule="evenodd"><path fill="#FFF" d="M6 28.7071908v53.9344199l1.37840126.7079579L46.5686298 103.401726 47.7387834 104l1.160237-.618217 37.752328-20.0521569L88 82.611697V0H6z"/><path fill="#F7F8F7" d="M6 82.6416107L88 0v82.6416107L47.7387834 104z"/><path d="M6 28.7071908v53.9344199l1.37840126.7079579L46.5686298 103.401726 47.7387834 104l1.160237-.618217 37.752328-20.0521569L88 82.611697V0H6v28.7071908zm2.52872173 52.3689358V2.52272291H85.4712783V81.0761266l-37.752328 20.0621284L8.52872173 81.0761266z" fill="#DCDEDC" fill-rule="nonzero"/><g fill="#FF492C" fill-rule="nonzero" opacity=".9"><path d="M23 82.95h8v-.9h-8zM63 82.95h8v-.9h-8z"/></g><path d="M40.147 86c.077 0 .132-.055.132-.132v-1.067c0-.077-.055-.132-.132-.132h-2.981c-.044 0-.066-.033-.033-.066.792-.803 1.518-1.529 2.079-2.222.583-.715.924-1.353.924-1.991 0-1.199-.968-2.178-2.563-2.178-1.408 0-2.486.77-2.552 1.991v.517c0 .077.055.132.132.132h1.298c.077 0 .132-.055.132-.132v-.275c0-.539.396-.902.99-.902s.99.363.99.88c0 .407-.407.99-1.001 1.65-.737.803-1.529 1.727-2.431 2.618-.044.044-.066.099-.066.165v1.012c0 .077.055.132.132.132h4.95zm3.707.121c1.617 0 2.629-.968 2.629-2.519v-2.904c0-1.529-1.012-2.486-2.629-2.486s-2.618.957-2.618 2.486v2.904c0 1.551 1.001 2.519 2.618 2.519zm0-1.331c-.649 0-1.067-.429-1.067-1.111v-3.025c0-.682.418-1.111 1.067-1.111.66 0 1.078.429 1.078 1.111v3.025c0 .682-.418 1.111-1.078 1.111zM52.577 86c.077 0 .132-.055.132-.132v-1.067c0-.077-.055-.132-.132-.132h-2.981c-.044 0-.066-.033-.033-.066.792-.803 1.518-1.529 2.079-2.222.583-.715.924-1.353.924-1.991 0-1.199-.968-2.178-2.563-2.178-1.408 0-2.486.77-2.552 1.991v.517c0 .077.055.132.132.132h1.298c.077 0 .132-.055.132-.132v-.275c0-.539.396-.902.99-.902s.99.363.99.88c0 .407-.407.99-1.001 1.65-.737.803-1.529 1.727-2.431 2.618-.044.044-.066.099-.066.165v1.012c0 .077.055.132.132.132h4.95zm3.707.121c1.617 0 2.629-.968 2.629-2.519v-2.904c0-1.529-1.012-2.486-2.629-2.486s-2.618.957-2.618 2.486v2.904c0 1.551 1.001 2.519 2.618 2.519zm0-1.331c-.649 0-1.067-.429-1.067-1.111v-3.025c0-.682.418-1.111 1.067-1.111.66 0 1.078.429 1.078 1.111v3.025c0 .682-.418 1.111-1.078 1.111z" fill="#0A0B09" fill-rule="nonzero"/><path fill="#FF492C" fill-rule="nonzero" opacity=".9" d="M90.7914289 47H3.2186928L0 60l3.2186928 13h87.5727361L94 60zM47.5 3.80157171c.3859129.00095231.770901.03712613 1.15.10805501L47.5 6.21807466c-1.2168664-.06597701-2.3711704.53423321-2.9998243 1.55983617-.6286538 1.02560297-.6286538 2.30855577 0 3.33415867.6286539 1.025603 1.7829579 1.6258132 2.9998243 1.5598362.7978821-.0033502 1.5693061-.281436 2.18-.7858546l1.27 2.1218074c-1.0041341.71182-2.2117077 1.0934739-3.45 1.0903733-2.1096655.0864799-4.0978681-.9698353-5.1789375-2.7515257-1.0810693-1.7816904-1.0810693-4.00209512 0-5.78378551C43.4021319 4.7812302 45.3903345 3.72491497 47.5 3.81139489v-.00982318zm4.06 4.83300589l1.48 2.4263261-1.48 2.416503-1.41-2.416503h-2.9l1.45-2.41650291 2.86-.00982319zm-2.41-.92337917c-.0159405-.37491394.0777531-.74647049.27-1.07072692.2352313-.33345393.5608748-.59548781.94-.75638507l.21-.09823182c.36-.17681729.46-.32416503.46-.5108055 0-.18664048-.2-.38310413-.52-.38310413-.3775597.00354547-.714582.23334229-.85.57956778l-.51-.49115914c.1153617-.23472557.3000593-.42985039.53-.55992141.2607507-.16763404.5687148-.25013916.88-.23575639.3352879-.00997705.6649196.08647498.94.27504912.248042.1875554.3923716.4783811.39.78585462 0 .52062868-.3.84479371-.88 1.12966601l-.32.15717092c-.34.16699411-.51.31434185-.56.57956778h1.75v.69744598h-2.7l-.03-.09823183zM47.0052383 20L57 14.6561886V0H37v14.6561886L47.0052383 20z"/><path d="M13.916 63c.063 0 .108-.045.108-.108v-2.574c0-.027.018-.045.045-.045h2.061c.063 0 .108-.045.108-.108v-.684c0-.063-.045-.108-.108-.108h-2.061c-.027 0-.045-.018-.045-.045v-1.683c0-.027.018-.045.045-.045h3.06c.063 0 .108-.045.108-.108v-.684c0-.063-.045-.108-.108-.108h-4.041c-.063 0-.108.045-.108.108v6.084c0 .063.045.108.108.108h.828zm4.626-5.229c.369 0 .639-.27.639-.639 0-.378-.27-.639-.639-.639s-.639.261-.639.639c0 .369.27.639.639.639zM18.938 63c.063 0 .108-.045.108-.108V58.5c0-.063-.045-.108-.108-.108h-.828c-.063 0-.108.045-.108.108v4.392c0 .063.045.108.108.108h.828zm2.241 0c.063 0 .108-.045.108-.108v-2.745c0-.549.351-.918.864-.918.522 0 .855.378.855.927v2.736c0 .063.045.108.108.108h.828c.063 0 .108-.045.108-.108V59.94c0-.999-.63-1.611-1.602-1.611-.477 0-.864.153-1.116.486-.018.036-.045.018-.045-.018v-.288c0-.063-.045-.108-.108-.108h-.828c-.063 0-.108.045-.108.108v4.383c0 .063.045.108.108.108h.828zm5.238.072c.558 0 .99-.171 1.278-.486.027-.027.054-.018.054.018v.288c0 .063.045.108.108.108h.828c.063 0 .108-.045.108-.108v-3.033c0-.882-.747-1.53-1.899-1.53-1.053 0-1.8.531-1.89 1.251-.009.045.036.081.099.09l.873.108c.063.009.108-.027.126-.09.072-.288.36-.459.819-.459.558 0 .828.279.828.738v.216c0 .027-.018.045-.045.045h-.963c-1.197 0-1.872.558-1.872 1.485 0 .945.711 1.359 1.548 1.359zm.261-.828c-.432 0-.756-.207-.756-.603 0-.45.405-.693 1.026-.693h.756c.027 0 .045.018.045.045v.423c0 .495-.504.828-1.071.828zm4.095.756c.063 0 .108-.045.108-.108v-2.745c0-.549.351-.918.864-.918.522 0 .855.378.855.927v2.736c0 .063.045.108.108.108h.828c.063 0 .108-.045.108-.108V59.94c0-.999-.63-1.611-1.602-1.611-.477 0-.864.153-1.116.486-.018.036-.045.018-.045-.018v-.288c0-.063-.045-.108-.108-.108h-.828c-.063 0-.108.045-.108.108v4.383c0 .063.045.108.108.108h.828zm5.841.072c.927 0 1.683-.477 1.917-1.251.027-.081.036-.153.045-.207.009-.072-.036-.117-.099-.126l-.81-.126c-.063-.009-.108.018-.126.09 0 .009 0 .018-.009.027 0 .009 0 .027-.009.045-.099.387-.45.648-.909.648-.477 0-.792-.27-.909-.684-.045-.171-.081-.432-.081-.801 0-.351.036-.63.09-.801.108-.396.432-.657.9-.657.459 0 .792.252.9.576.018.045.027.081.036.126.009.027.009.045.009.072.018.072.063.099.126.09l.81-.117c.063-.009.108-.054.099-.126-.009-.072-.027-.171-.063-.288-.216-.693-.954-1.233-1.917-1.233-.927 0-1.647.495-1.899 1.287-.09.261-.144.594-.144 1.062 0 .414.036.774.144 1.08.261.801.972 1.314 1.899 1.314zm4.788.009c.774.009 1.431-.297 1.809-.828.036-.054.027-.099-.027-.144l-.558-.459c-.054-.045-.108-.036-.153.027-.216.306-.531.504-.972.504-.576-.009-.918-.252-1.053-.657-.045-.099-.063-.234-.081-.405 0-.027.018-.045.045-.045h2.817c.063 0 .108-.036.108-.108.009-.288.009-.531-.027-.783-.135-1.134-.729-1.854-1.998-1.854-.945 0-1.638.531-1.881 1.359-.09.279-.117.612-.108.981 0 .477.063.882.207 1.215.297.738.936 1.179 1.872 1.197zm.837-2.781h-1.827c-.027 0-.045-.018-.036-.045.009-.153.027-.279.072-.396.117-.387.405-.63.864-.63.486 0 .81.261.918.684.027.081.045.207.054.342 0 .027-.018.045-.045.045zm4.842 2.7c.063 0 .108-.045.108-.108v-2.421c0-.027.018-.045.045-.045h1.44c1.179 0 1.962-.738 1.962-1.854 0-1.125-.765-1.881-1.908-1.881h-2.475c-.063 0-.108.045-.108.108v6.093c0 .063.045.108.108.108h.828zm1.494-3.42h-1.341c-.027 0-.045-.018-.045-.045v-1.899c0-.027.018-.045.045-.045h1.341c.612 0 1.017.405 1.017 1.008 0 .585-.405.981-1.017.981zM52.391 63c.063 0 .108-.045.108-.108v-2.547c0-.549.396-.882.882-.909.198-.027.378-.009.495.036.072.027.117.009.126-.063l.153-.81c.009-.054 0-.108-.054-.135-.117-.063-.27-.117-.504-.117-.477 0-.819.225-1.053.585-.018.036-.045.027-.045-.018v-.405c0-.063-.045-.108-.108-.108h-.828c-.063 0-.108.045-.108.108v4.383c0 .063.045.108.108.108h.828zm4.311.072c.927 0 1.638-.513 1.908-1.368.099-.297.153-.657.153-1.026 0-.36-.054-.738-.162-1.026-.279-.828-.972-1.323-1.89-1.323-.963 0-1.674.495-1.953 1.332-.09.279-.144.657-.144 1.026 0 .36.063.738.153 1.026.27.846.99 1.359 1.935 1.359zm0-.9c-.468 0-.81-.27-.945-.72-.054-.189-.09-.477-.09-.756 0-.297.036-.567.09-.756.144-.45.477-.711.927-.711.468 0 .801.261.936.711.063.189.09.459.09.756 0 .27-.027.549-.09.756-.144.45-.477.72-.918.72zm4.815.9c.432 0 .783-.171 1.035-.468.027-.036.054-.018.054.018v.27c0 .063.045.108.108.108h.828c.063 0 .108-.045.108-.108v-6.084c0-.063-.045-.108-.108-.108h-.828c-.063 0-.108.045-.108.108v1.953c0 .036-.027.045-.054.018-.252-.288-.594-.45-1.017-.45-.918 0-1.494.495-1.746 1.26-.108.324-.153.693-.153 1.098 0 .414.054.792.162 1.125.261.783.855 1.26 1.719 1.26zm.162-.9c-.342 0-.603-.153-.765-.432-.135-.252-.216-.603-.216-1.035 0-.477.099-.846.27-1.098.171-.252.405-.378.72-.378.297 0 .522.135.684.396.153.252.225.612.225 1.071 0 .441-.072.801-.207 1.044-.162.279-.396.432-.711.432zm4.662.891c.513 0 .873-.171 1.107-.477.027-.036.054-.018.054.018v.288c0 .063.045.108.108.108h.819c.063 0 .108-.045.108-.108v-4.383c0-.063-.045-.108-.108-.108h-.819c-.063 0-.108.045-.108.108v2.736c0 .558-.351.927-.891.927s-.837-.369-.837-.927v-2.736c0-.063-.045-.108-.108-.108h-.828c-.063 0-.108.045-.108.108v3.033c0 1.017.756 1.521 1.611 1.521zm5.229.009c.927 0 1.683-.477 1.917-1.251.027-.081.036-.153.045-.207.009-.072-.036-.117-.099-.126l-.81-.126c-.063-.009-.108.018-.126.09 0 .009 0 .018-.009.027 0 .009 0 .027-.009.045-.099.387-.45.648-.909.648-.477 0-.792-.27-.909-.684-.045-.171-.081-.432-.081-.801 0-.351.036-.63.09-.801.108-.396.432-.657.9-.657.459 0 .792.252.9.576.018.045.027.081.036.126.009.027.009.045.009.072.018.072.063.099.126.09l.81-.117c.063-.009.108-.054.099-.126-.009-.072-.027-.171-.063-.288-.216-.693-.954-1.233-1.917-1.233-.927 0-1.647.495-1.899 1.287-.09.261-.144.594-.144 1.062 0 .414.036.774.144 1.08.261.801.972 1.314 1.899 1.314zm4.653-.054c.153 0 .306-.009.468-.009.072-.009.108-.054.108-.117v-.675c0-.063-.045-.108-.108-.108h-.27c-.423 0-.621-.189-.621-.648v-2.169c0-.027.018-.045.045-.045h.918c.063 0 .108-.045.108-.108v-.63c0-.063-.045-.108-.108-.108h-.918c-.027 0-.045-.018-.045-.045v-1.053c0-.063-.045-.108-.108-.108h-.783c-.063 0-.108.045-.108.108v1.053c0 .027-.018.045-.045.045h-.513c-.063 0-.108.045-.108.108v.63c0 .063.045.108.108.108h.513c.027 0 .045.018.045.045v2.565c.009.954.558 1.161 1.422 1.161zm3.285.036c1.107 0 1.845-.504 1.845-1.368 0-.9-.837-1.179-1.575-1.395-.612-.171-1.116-.261-1.116-.63 0-.324.333-.495.792-.495.54 0 .855.252.855.549 0 .063.045.108.108.108h.765c.063 0 .108-.045.108-.108 0-.801-.72-1.368-1.827-1.368-1.062 0-1.8.522-1.8 1.377 0 .882.801 1.17 1.521 1.386.594.198 1.125.261 1.125.639 0 .297-.324.522-.81.522-.513 0-.873-.261-.873-.558v-.018c0-.063-.045-.108-.108-.108h-.792c-.063 0-.108.045-.108.108v.081c0 .729.738 1.278 1.89 1.278z" fill="#FFF" fill-rule="nonzero"/><path d="M24.61 40c.14 0 .24-.1.24-.24V28.54c0-.06.04-.1.1-.1h3.58c.14 0 .24-.1.24-.24v-1.96c0-.14-.1-.24-.24-.24H18.45c-.14 0-.24.1-.24.24v1.96c0 .14.1.24.24.24h3.48c.06 0 .1.04.1.1v11.22c0 .14.1.24.24.24h2.34zm8.64.16c2.26 0 3.92-1.28 4.5-3.34.18-.6.28-1.3.28-2.02 0-.74-.12-1.48-.32-2.1-.62-1.94-2.22-3.14-4.44-3.14-2.26 0-3.92 1.2-4.54 3.16-.18.6-.28 1.36-.28 2.12 0 .72.1 1.44.28 2.04.58 2.02 2.26 3.28 4.52 3.28zm0-2.42c-.92 0-1.56-.58-1.82-1.5-.1-.36-.14-.88-.14-1.4 0-.54.04-1.06.16-1.42.26-.88.86-1.44 1.78-1.44.9 0 1.52.54 1.8 1.44.1.36.16.88.16 1.42 0 .5-.06 1-.16 1.4-.26.92-.88 1.5-1.78 1.5zm9.26 5.98c.14 0 .24-.1.24-.24V39.2c0-.08.06-.12.12-.04.5.62 1.22 1 2.24 1 2.02 0 3.32-1.14 3.9-2.78.26-.76.38-1.6.38-2.5 0-.84-.1-1.66-.36-2.4-.58-1.82-1.98-2.92-3.84-2.92-1.04 0-1.8.42-2.32 1.1-.06.06-.12.04-.12-.04v-.66c0-.14-.1-.24-.24-.24h-2.34c-.14 0-.24.1-.24.24v13.52c0 .14.1.24.24.24h2.34zm2.06-5.98c-.6 0-1.06-.28-1.36-.8-.3-.5-.44-1.2-.44-2.08 0-.84.14-1.54.42-2.02.3-.56.76-.86 1.38-.86.68 0 1.18.3 1.48.86.28.5.42 1.18.42 2 0 .88-.18 1.62-.5 2.12s-.78.78-1.4.78zm15.06 2.4c2.1 0 3.74-1.1 4.34-2.78.22-.56.32-1.18.32-1.84 0-.6-.1-1.24-.3-1.9-.58-1.64-2.08-2.66-3.94-2.66-.74 0-1.46.18-2.08.58-.06.04-.12.04-.12-.06l.02-2.96c0-.08.04-.1.1-.1h5.58c.14 0 .24-.1.24-.24v-1.94c0-.14-.1-.24-.24-.24h-8.26c-.14 0-.24.1-.24.24v8.06c0 .14.1.24.24.24h2.46c.14 0 .22-.08.26-.2.22-.58.94-.94 1.68-.94s1.36.38 1.54 1.08c.14.36.18.7.18 1.04 0 .34-.06.76-.2 1.04-.26.74-.86 1.14-1.6 1.14-.72 0-1.28-.38-1.54-1.08-.04-.12-.1-.22-.12-.34-.04-.14-.12-.22-.26-.22h-2.42c-.16 0-.26.1-.24.26.06.36.16.74.3 1.1.64 1.66 2.26 2.72 4.3 2.72zm11 .08c2.94 0 4.78-1.76 4.78-4.58v-5.28c0-2.78-1.84-4.52-4.78-4.52-2.94 0-4.76 1.74-4.76 4.52v5.28c0 2.82 1.82 4.58 4.76 4.58zm0-2.42c-1.18 0-1.94-.78-1.94-2.02v-5.5c0-1.24.76-2.02 1.94-2.02 1.2 0 1.96.78 1.96 2.02v5.5c0 1.24-.76 2.02-1.96 2.02z" fill="#0A0B09" fill-rule="nonzero"/></g></svg>