<?xml version="1.0" encoding="UTF-8"?>
<svg width="42px" height="40px" viewBox="0 0 42 40" version="1.1" xmlns="http://www.w3.org/2000/svg" xmlns:xlink="http://www.w3.org/1999/xlink">
    <!-- Generator: Sketch 53.2 (72643) - https://sketchapp.com -->
    <title>two-factor</title>
    <desc>Created with Sketch.</desc>
    <defs>
        <polygon id="path-1" points="41.2796239 39.4969279 41.2796239 0 0.00112852665 0 0.00112852665 39.4969279"></polygon>
    </defs>
    <g id="Page-1" stroke="none" stroke-width="1" fill="none" fill-rule="evenodd">
        <g id="Package-Enterprise" transform="translate(-763.000000, -5981.000000)">
            <g id="Group-34" transform="translate(763.000000, 5981.000000)">
                <g id="two-factor" transform="translate(-0.000000, 0.000000)">
                    <path d="M16.7706583,4.00363636 L8.71297806,4.00363636 C8.08852665,4.00363636 7.58257054,4.50959248 7.58257054,5.13404389 C7.58257054,5.7584953 8.08852665,6.26445141 8.71297806,6.26445141 L16.7706583,6.26445141 C17.3951097,6.26445141 17.9029468,5.7584953 17.9029468,5.13404389 C17.9029468,4.50959248 17.3951097,4.00363636 16.7706583,4.00363636" id="Fill-1" fill="#4C4C51" fill-rule="nonzero"></path>
                    <g id="Group-5">
                        <g id="Fill-3-Clipped">
                            <g>
                                <mask id="mask-2" fill="white">
                                    <use xlink:href="#path-1"></use>
                                </mask>
                                <g id="path-1"></g>
                                <path d="M37.133417,19.3941066 C36.2870219,19.3941066 35.5986207,18.7038244 35.5986207,17.8574295 C35.5986207,17.0110345 36.2870219,16.3207524 37.133417,16.3207524 C37.9798119,16.3207524 38.6682131,17.0110345 38.6682131,17.8574295 C38.6682131,18.7038244 37.9798119,19.3941066 37.133417,19.3941066 L37.133417,19.3941066 Z M31.3835737,19.3941066 C30.5371786,19.3941066 29.8487774,18.7038244 29.8487774,17.8574295 C29.8487774,17.0110345 30.5371786,16.3207524 31.3835737,16.3207524 C32.2318495,16.3207524 32.9202508,17.0110345 32.9202508,17.8574295 C32.9202508,18.7038244 32.2318495,19.3941066 31.3835737,19.3941066 L31.3835737,19.3941066 Z M25.6356113,19.3941066 C25.5829468,19.3941066 25.5340439,19.3828214 25.4851411,19.3771786 C25.0130407,19.3301567 24.6011286,19.0743574 24.3528527,18.6981818 C24.1929781,18.4555486 24.0989342,18.1677743 24.0989342,17.8574295 C24.0989342,17.5489655 24.1929781,17.2593103 24.3528527,17.0166771 C24.6011286,16.6405015 25.0130407,16.3828214 25.4851411,16.3376803 C25.5340439,16.3320377 25.5829468,16.3207524 25.6356113,16.3207524 C26.4820062,16.3207524 27.1704076,17.0110345 27.1704076,17.8574295 C27.1704076,18.7038244 26.4820062,19.3941066 25.6356113,19.3941066 L25.6356113,19.3941066 Z M21.4205643,17.8574295 C21.4205643,18.7038244 20.732163,19.3941066 19.885768,19.3941066 C19.0393731,19.3941066 18.3509717,18.7038244 18.3509717,17.8574295 C18.3509717,17.0110345 19.0393731,16.3207524 19.885768,16.3207524 C20.732163,16.3207524 21.4205643,17.0110345 21.4205643,17.8574295 L21.4205643,17.8574295 Z M23.2224451,12.910721 L15.5503448,12.910721 C15.2381192,12.910721 14.9860815,13.1627586 14.9860815,13.4749843 L14.9860815,22.9470847 C14.9860815,23.2593103 15.2381192,23.511348 15.5503448,23.511348 L23.2224451,23.511348 L23.2224451,28.7439498 L2.26194357,28.7439498 L2.26194357,3.95774295 C2.26194357,3.0229467 3.02181818,2.2630721 3.9584953,2.2630721 L21.5258934,2.2630721 C22.4606897,2.2630721 23.2224451,3.0229467 23.2224451,3.95774295 L23.2224451,12.910721 Z M23.2224451,35.5395611 C23.2224451,36.4762382 22.4606897,37.2361128 21.5258934,37.2361128 L3.9584953,37.2361128 C3.02181818,37.2361128 2.26194357,36.4762382 2.26194357,35.5395611 L2.26194357,31.0047648 L23.2224451,31.0047648 L23.2224451,35.5395611 Z M40.7146081,12.910721 L25.4851411,12.910721 L25.4851411,3.95774295 C25.4851411,1.77592476 23.7077116,-0.00150470219 21.5258934,-0.00150470219 L3.9584953,-0.00150470219 C1.77479623,-0.00150470219 0.00112852665,1.77592476 0.00112852665,3.95774295 L0.00112852665,28.7439498 L0.00112852665,31.0047648 L0.00112852665,35.5395611 C0.00112852665,37.7213793 1.77479623,39.4969279 3.9584953,39.4969279 L21.5258934,39.4969279 C23.7077116,39.4969279 25.4851411,37.7213793 25.4851411,35.5395611 L25.4851411,31.0047648 L25.4851411,28.7439498 L25.4851411,23.511348 L40.7146081,23.511348 C41.0268338,23.511348 41.2807524,23.2593103 41.2807524,22.9470847 L41.2807524,13.4749843 C41.2807524,13.1627586 41.0268338,12.910721 40.7146081,12.910721 L40.7146081,12.910721 Z" id="Fill-3" fill="#4C4C51" fill-rule="nonzero" mask="url(#mask-2)"></path>
                            </g>
                        </g>
                    </g>
                    <path d="M12.9592477,35.4018808 C13.9015674,35.4018808 14.6689655,34.6344828 14.6689655,33.692163 C14.6689655,32.7479623 13.9015674,31.9805643 12.9592477,31.9805643 C12.015047,31.9805643 11.2495298,32.7479623 11.2495298,33.692163 C11.2495298,34.6344828 12.015047,35.4018808 12.9592477,35.4018808" id="Fill-6" fill="#4C4C51" fill-rule="nonzero"></path>
                </g>
            </g>
        </g>
    </g>
</svg>