<?xml version="1.0" encoding="UTF-8"?>
<svg width="24px" height="24px" viewBox="0 0 24 24" version="1.1" xmlns="http://www.w3.org/2000/svg" xmlns:xlink="http://www.w3.org/1999/xlink">
    <!-- Generator: Sketch 53.2 (72643) - https://sketchapp.com -->
    <title>close-circle</title>
    <desc>Created with Sketch.</desc>
    <g id="Page-1" stroke="none" stroke-width="1" fill="none" fill-rule="evenodd">
        <g id="expanded" transform="translate(-581.000000, -1052.000000)" fill="#ED6347" fill-rule="nonzero">
            <g id="close-circle" transform="translate(581.000000, 1052.000000)">
                <path d="M12,0 C18.636,0 24,5.364 24,12 C24,18.636 18.636,24 12,24 C5.364,24 0,18.636 0,12 C0,5.364 5.364,0 12,0 L12,0 Z M16.308,6 L12,10.308 L7.692,6 L6,7.692 L10.308,12 L6,16.308 L7.692,18 L12,13.692 L16.308,18 L18,16.308 L13.692,12 L18,7.692 L16.308,6 Z" id="Shape"></path>
            </g>
        </g>
    </g>
</svg>