<?xml version="1.0" encoding="UTF-8" standalone="no"?>
<svg xmlns="http://www.w3.org/2000/svg" height="50px" width="50px" version="1.1" xmlns:xlink="http://www.w3.org/1999/xlink" viewBox="0 0 50 50"><!-- Generator: Sketch 45.2 (43514) - http://www.bohemiancoding.com/sketch -->
 <title>Group 24</title>
 <desc>Created with Sketch.</desc>
 <g id="Mockups---Enterprise" fill-rule="evenodd" fill="none">
  <g id="Enterprise_Tab_Pricing-Copy-5" transform="translate(-304 -944)">
   <g id="Group-13" transform="translate(216 944)">
    <g id="Group-24" transform="translate(88)">
     <rect id="Rectangle-21-Copy" rx="2" height="12.5" width="12.5" y="0" x="37.5" fill="#FF8F19"/>
     <rect id="Rectangle-21-Copy-2" rx="2" height="12.5" width="12.5" y="37.5" x="37.5" fill="#FF8F19"/>
     <rect id="Rectangle-21-Copy-4" rx="2" height="12.5" width="12.5" y="0" x="0" fill="#FF8F19"/>
     <rect id="Rectangle-21-Copy-3" rx="2" height="12.5" width="12.5" y="37.5" x="0" fill="#FF8F19"/>
     <path id="Combined-Shape-Copy-3" stroke-linejoin="bevel" d="m38.5 23v9.75 0.25h-0.5v-0.25-9.75h-14.75-0.25v-0.5h0.25 14.75v-4.75-0.25h0.5v0.25 4.75h14.75 0.25v0.5h-0.25-14.75z" transform="translate(38.25 25.25) scale(-1) rotate(-90) translate(-38.25 -25.25)" stroke="#FFDFC9" stroke-linecap="round" stroke-width="2"/>
     <path id="Combined-Shape" stroke-linejoin="bevel" d="m25.25 9.75v9.75 0.25h-0.5v-0.25-9.75h-14.75-0.25v-0.5h0.25 14.75v-4.75-0.25h0.5v0.25 4.75h14.75 0.25v0.5h-0.25-14.75z" stroke="#FFDFC9" stroke-linecap="square" stroke-width="2"/>
     <path id="Combined-Shape-Copy" stroke-linejoin="bevel" d="m25.25 36.25v9.75 0.25h-0.5v-0.25-9.75h-14.75-0.25v-0.5h0.25 14.75v-4.75-0.25h0.5v0.25 4.75h14.75 0.25v0.5h-0.25-14.75z" transform="translate(25 38.5) scale(1 -1) translate(-25 -38.5)" stroke="#FFDFC9" stroke-linecap="square" stroke-width="2"/>
     <path id="Combined-Shape-Copy-2" stroke-linejoin="bevel" d="m12.5 23v9.75 0.25h-0.5v-0.25-9.75h-14.75-0.25v-0.5h0.25 14.75v-4.75-0.25h0.5v0.25 4.75h14.75 0.25v0.5h-0.25-14.75z" transform="translate(12.25 25.25) scale(1 -1) rotate(-90) translate(-12.25 -25.25)" stroke="#FFDFC9" stroke-linecap="square" stroke-width="2"/>
     <rect id="Rectangle-21" rx="2" height="31.393" width="31.393" y="9.8037" x="9.3037" fill="#FFDFC9"/>
     <circle id="Oval-4" cy="25.5" cx="25" r="4.5337" fill="#FF8F19"/>
    </g>
   </g>
  </g>
 </g>
</svg>
