<?xml version="1.0" encoding="UTF-8" standalone="no"?>
<svg xmlns="http://www.w3.org/2000/svg" height="29px" width="33px" version="1.1" xmlns:xlink="http://www.w3.org/1999/xlink" viewBox="0 0 33 29"><!-- Generator: Sketch 45.2 (43514) - http://www.bohemiancoding.com/sketch -->
 <title>left-quote copy</title>
 <desc>Created with Sketch.</desc>
 <g id="Mockups---Enterprise" fill-rule="evenodd" fill="none">
  <g id="Enterprise_Tab_Pricing-Copy-5" fill-rule="nonzero" fill="#B9AEFF" transform="translate(-1072 -602)">
   <g id="left-quote-copy" transform="translate(1088 616.5) scale(-1 1) translate(-17 -14.5)">
    <path id="Shape" d="m10.564 13.137c-0.8127-0.241-1.6256-0.363-2.4164-0.363-1.2212 0-2.2402 0.287-3.0303 0.638 0.7617-2.864 2.5916-7.8064 6.2367-8.363 0.338-0.0516 0.614-0.3023 0.706-0.6398l0.797-2.9269c0.067-0.2475 0.027-0.51248-0.11-0.72728-0.138-0.21481-0.358-0.35813-0.606-0.39298-0.269-0.0377-0.543-0.0569-0.815-0.0569-4.3754 0-8.7085 4.6909-10.537 11.408-1.0733 3.94-1.388 9.864 1.2559 13.593 1.4794 2.087 3.6378 3.201 6.4153 3.312 0.0114 0 0.0225 0.001 0.0339 0.001 3.4269 0 6.4659-2.371 7.3909-5.765 0.552-2.029 0.302-4.156-0.704-5.993-0.995-1.815-2.635-3.138-4.617-3.724z"/>
    <path id="Shape" d="m32.017 16.862c-0.996-1.816-2.635-3.139-4.617-3.725-0.813-0.241-1.626-0.363-2.416-0.363-1.222 0-2.241 0.287-3.031 0.638 0.762-2.864 2.591-7.8064 6.237-8.363 0.338-0.0516 0.614-0.3023 0.706-0.6398l0.797-2.9269c0.067-0.2475 0.027-0.51248-0.11-0.72728-0.137-0.21481-0.358-0.35813-0.606-0.39298-0.269-0.0377-0.543-0.0569-0.815-0.0569-4.375 0-8.709 4.6909-10.537 11.408-1.073 3.94-1.388 9.864 1.256 13.594 1.479 2.086 3.638 3.201 6.415 3.311 0.012 0.001 0.023 0.001 0.034 0.001 3.427 0 6.466-2.37 7.391-5.764 0.551-2.029 0.301-4.157-0.704-5.993z"/>
   </g>
  </g>
 </g>
</svg>
