<?xml version="1.0" encoding="UTF-8" standalone="no"?>
<svg xmlns="http://www.w3.org/2000/svg" height="57px" width="50px" version="1.1" xmlns:xlink="http://www.w3.org/1999/xlink" viewBox="0 0 50 57"><!-- Generator: Sketch 45.2 (43514) - http://www.bohemiancoding.com/sketch -->
 <title>Group 18 Copy</title>
 <desc>Created with Sketch.</desc>
 <g id="Mockups---Enterprise" fill-rule="evenodd" fill="none">
  <g id="Enterprise_Tab_Pricing-Copy-5" transform="translate(-591 -941)">
   <g id="Group-7" transform="translate(502 940)">
    <g id="Group-18-Copy" transform="translate(89 1)">
     <g id="shield" fill-rule="nonzero" transform="translate(.68375 .55792)">
      <path id="Shape" fill="#FFDFC9" d="m23.066 0l-23.066 10.252v15.377c0 14.224 9.8416 27.526 23.066 30.755 13.225-3.229 23.067-16.531 23.067-30.755v-15.377l-23.067-10.252z"/>
      <path id="Shape-Copy" fill="#FF8F19" d="m23.066 16.958l-9.191 4.085v6.128c0 5.668 3.922 10.968 9.191 12.255 5.27-1.287 9.191-6.587 9.191-12.255v-6.128l-9.191-4.085z"/>
     </g>
     <g id="lock" transform="translate(30 28.75)">
      <path id="Shape" fill-rule="nonzero" fill="#FF8F19" d="m20 11.25v12.5c0 1.381-1.119 2.5-2.5 2.5h-15c-1.3807 0-2.5-1.119-2.5-2.5v-12.5c0-1.3875 1.125-2.5 2.5-2.5h1.25v-2.5c0-3.4518 2.7982-6.25 6.25-6.25 1.658 1.3878e-16 3.247 0.65848 4.419 1.8306 1.173 1.1721 1.831 2.7618 1.831 4.4194v2.5h1.25c1.381 0 2.5 1.1193 2.5 2.5zm-10-8.75c-2.0711 0-3.75 1.6789-3.75 3.75v2.5h7.5v-2.5c0-2.0711-1.679-3.75-3.75-3.75z"/>
      <circle id="Oval-3" cy="17.5" cx="10" r="2.5" fill="#fff"/>
     </g>
    </g>
   </g>
  </g>
 </g>
</svg>
