<?xml version="1.0" encoding="UTF-8" standalone="no"?>
<svg xmlns="http://www.w3.org/2000/svg" height="52px" width="50px" version="1.1" xmlns:xlink="http://www.w3.org/1999/xlink" viewBox="0 0 50 52"><!-- Generator: Sketch 46.1 (44463) - http://www.bohemiancoding.com/sketch -->
 <title>Group 23</title>
 <desc>Created with Sketch.</desc>
 <g id="Mockups---Enterprise" fill-rule="evenodd" fill="none">
  <g id="Enterprise_Tab_Pricing-Copy-5" transform="translate(-925 -942)">
   <g id="Group-3" transform="translate(819 942)">
    <g id="Group-23" transform="translate(106)">
     <g id="Group-25" transform="translate(9.5217)">
      <circle id="Oval-5" cy="25.63" cx="20.239" r="20.239" fill="#FFDFC9"/>
      <path id="Fill-7" fill-rule="nonzero" fill="#FF911C" d="m17.076 7.3019c-0.017-0.1023-0.033-2.0947-0.033-2.0947 0-1.0737 0.873-1.9463 1.947-1.9463h2.544c1.076 0 1.947 0.8726 1.947 1.9463v1.7828c0 0.0324-0.009 0.0613-0.01 0.092-2.127-0.2471-4.285-0.1755-6.395 0.2199"/>
      <path id="Fill-9" fill-rule="nonzero" fill="#FFDFC9" d="m18.748 4.2167v0.1363c1.004-0.1005 2.018-0.1329 3.027-0.0971v-0.0392c0-0.133-0.109-0.242-0.242-0.242h-2.543c-0.135 0-0.242 0.109-0.242 0.242m-1.672 3.799c-0.35 0-0.692-0.1057-0.98-0.3085-0.377-0.2642-0.631-0.6698-0.704-1.1232-0.022-0.1449-0.038-0.2318-0.053-2.3537 0-2.0265 1.638-3.6644 3.651-3.6644l2.543 0.00005c2.013 0 3.65 1.6378 3.65 3.6508v1.7826c0 0.0784-0.008 0.2097-0.02 0.2881-0.128 0.9152-0.96 1.6123-1.888 1.4964-1.976-0.2284-3.958-0.1585-5.884 0.2028-0.106 0.0204-0.211 0.029-0.315 0.029"/>
      <path id="Fill-14" fill-rule="nonzero" fill="#FF911C" d="m20.69 24.519c-0.398 0-0.721 0.324-0.721 0.721 0 0.398 0.323 0.721 0.721 0.721 0.397 0 0.72-0.323 0.72-0.721 0-0.397-0.323-0.721-0.72-0.721m0 4.37c-2.011 0-3.647-1.636-3.647-3.649 0-2.012 1.636-3.648 3.647-3.648 2.01 0 3.646 1.636 3.646 3.648 0 2.013-1.636 3.649-3.646 3.649"/>
      <path id="Fill-16" fill-rule="nonzero" fill="#FF911C" d="m30.644 31.48c-0.242 0-0.487-0.043-0.726-0.134l-10.345-3.96c-0.737-0.281-1.219-0.961-1.219-1.718v-14.165c0-1.024 0.871-1.8508 1.945-1.8508 1.073 0 1.944 0.8268 1.944 1.8508v12.916l9.128 3.492c0.996 0.382 1.478 1.459 1.077 2.408-0.305 0.724-1.034 1.161-1.804 1.161"/>
      <path id="Fill-12" fill-rule="nonzero" fill="#fff" d="m21.641 25.26c0 0.513-0.416 0.929-0.93 0.929-0.513 0-0.929-0.416-0.929-0.929 0-0.514 0.416-0.93 0.929-0.93 0.514 0 0.93 0.416 0.93 0.93"/>
     </g>
     <path id="Fill-18" fill-rule="nonzero" fill="#FF911C" d="m31.812 37.939c-0.479-0.473-1.141-0.735-1.868-0.735-0.763 0-1.503 0.299-2.022 0.82l-3.303 3.3-0.891-0.494c-1.958-1.087-4.647-2.58-7.483-5.421-2.849-2.842-4.34-5.538-5.432-7.507l-0.486-0.867 3.306-3.302c1.091-1.095 1.128-2.84 0.082-3.891l-6.107-6.102c-0.4737-0.474-1.1349-0.74-1.8628-0.74-0.7636 0-1.5001 0.302-2.0232 0.825l-1.5001 1.505-0.1394 0.234c-0.5588 0.714-1.0128 1.521-1.357 2.395-0.31827 0.837-0.51442 1.63-0.60447 2.427-0.7883 6.539 2.228 12.542 10.41 20.725 9.698 9.699 17.803 10.455 20.059 10.455 0.383 0 0.618-0.026 0.683-0.029 0.834-0.102 1.63-0.303 2.432-0.612 0.866-0.341 1.671-0.794 2.387-1.35l0.339-0.269 1.401-1.378c1.092-1.09 1.128-2.832 0.078-3.882l-6.098-6.107z"/>
    </g>
   </g>
  </g>
 </g>
</svg>
