<?xml version="1.0" encoding="UTF-8" standalone="no"?>
<svg xmlns="http://www.w3.org/2000/svg" height="15px" width="15px" version="1.1" xmlns:xlink="http://www.w3.org/1999/xlink" viewBox="0 0 15 15"><!-- Generator: Sketch 45.2 (43514) - http://www.bohemiancoding.com/sketch -->
 <title>Shape</title>
 <desc>Created with Sketch.</desc>
 <g id="Mockups---Grow" fill-rule="evenodd" fill="none">
  <g id="pricing_July_draft_1-Copy-2" fill-rule="nonzero" fill="#50c850" transform="translate(-1014 -1003)">
   <g id="Group-17" transform="translate(104 959)">
    <g id="Group-4" transform="translate(0 33)">
     <g id="Group-16">
      <g id="check-circle-copy-2" transform="translate(910 11)">
       <path id="Shape" d="m7.5 3.3307e-16c1.9891-1.6654e-16 3.897 0.79018 5.303 2.1967 1.407 1.4065 2.197 3.3142 2.197 5.3033 0 4.142-3.358 7.5-7.5 7.5-1.9891 0-3.8968-0.79-5.3033-2.197-1.4065-1.406-2.1967-3.3139-2.1967-5.303-9.992e-16 -1.9891 0.79018-3.8968 2.1967-5.3033s3.3142-2.1967 5.3033-2.1967v3.3307e-16zm-0.75 10.875l5.25-5.25-1.058-1.0575-4.192 4.185-2.3175-2.31-1.0575 1.0575 3.375 3.375z"/>
      </g>
     </g>
    </g>
   </g>
  </g>
 </g>
</svg>
