<?xml version="1.0" encoding="UTF-8" standalone="no"?>
<svg width="204px" height="32px" viewBox="0 0 204 32" version="1.1" xmlns="http://www.w3.org/2000/svg" xmlns:xlink="http://www.w3.org/1999/xlink" xmlns:sketch="http://www.bohemiancoding.com/sketch/ns">
    <!-- Generator: Sketch 3.3.2 (12043) - http://www.bohemiancoding.com/sketch -->
    <title>Amazon_de__70091 + payments@2x</title>
    <desc>Created with Sketch.</desc>
    <defs></defs>
    <g id="Page-1" stroke="none" stroke-width="1" fill="none" fill-rule="evenodd" sketch:type="MSPage">
        <g id="Desktop-HD" sketch:type="MSArtboardGroup" transform="translate(-655.000000, -497.000000)">
            <g id="Group-Copy" sketch:type="MSLayerGroup" transform="translate(392.000000, 491.000000)">
                <g id="Amazon_de__70091-+-payments" transform="translate(263.615385, 6.000000)" sketch:type="MSShapeGroup">
                    <g id="Amazon_de__70091" transform="translate(0.000000, 3.573427)">
                        <path d="M57.4581226,21.7820441 C52.0993491,25.7362534 44.329419,27.8398198 37.6389699,27.8398198 C28.262574,27.8398198 19.8191528,24.3739645 13.428276,18.604099 C12.9275309,18.1514605 13.3743384,17.5319069 13.9778564,17.8832302 C20.8716649,21.8950215 29.3967214,24.3105514 38.2023991,24.3105514 C44.1420952,24.3105514 50.6714605,23.0780043 56.678943,20.5298171 C57.5856778,20.1456939 58.3451775,21.1267751 57.4581226,21.7820441" id="Fill-2" fill="#D0D0D0"></path>
                        <path d="M59.6885153,19.2353147 C59.0026331,18.3577353 55.157028,18.8198494 53.429567,19.0268531 C52.9069554,19.0895374 52.8253201,18.6325256 53.2969096,18.3008822 C56.3647929,16.1462937 61.3911942,16.7687628 61.9757612,17.4903604 C62.5639726,18.2170602 61.8212372,23.2565815 58.94578,25.6619069 C58.5040748,26.0321813 58.0835073,25.8353819 58.2795777,25.3462991 C58.9261001,23.7310866 60.3751264,20.1136229 59.6885153,19.2353147" id="Fill-3" fill="#D0D0D0"></path>
                        <path d="M53.5520199,3.07954545 L53.5520199,0.986183432 C53.5527488,0.667660032 53.7925524,0.454825175 54.0826493,0.455554061 L63.4656052,0.454825175 C63.7659064,0.454825175 64.0071678,0.673491124 64.0071678,0.983267886 L64.0071678,2.77924422 C64.0042523,3.08027434 63.7505998,3.47314416 63.3001479,4.09707101 L58.4399328,11.0367994 C60.2439268,10.9945239 62.1528806,11.2649408 63.7921463,12.1862534 C64.1616918,12.393986 64.2608203,12.702305 64.2899758,13.0033351 L64.2899758,15.2373722 C64.2899758,15.5456912 63.9532302,15.9013878 63.5997203,15.7162507 C60.7104142,14.2038112 56.877929,14.0376251 53.6839484,15.7352017 C53.3581361,15.9079478 53.0162883,15.5573534 53.0162883,15.2490344 L53.0162883,13.1257881 C53.0162883,12.7861269 53.0228483,12.2044755 53.3661538,11.6862372 L58.996802,3.60798817 L54.0935826,3.60653039 C53.7940102,3.60653039 53.5542066,3.39296665 53.5520199,3.07954545" id="Fill-4" fill="#BCBCBC"></path>
                        <path d="M19.3220522,16.1557692 L16.4677327,16.1564981 C16.1965869,16.1390048 15.9786498,15.9341877 15.9567832,15.6739753 L15.9589699,1.02189887 C15.9589699,0.728886498 16.2053335,0.494185046 16.5092792,0.494185046 L19.1682571,0.493456159 C19.4466918,0.508033889 19.669731,0.718682087 19.6872243,0.985454545 L19.6872243,2.89805272 L19.740433,2.89805272 C20.4336041,1.04813878 21.7397687,0.185137171 23.4985718,0.185137171 C25.2836148,0.185137171 26.4031845,1.04813878 27.2020441,2.89805272 C27.8952152,1.04813878 29.4674233,0.185137171 31.146049,0.185137171 C32.3457961,0.185137171 33.6512318,0.67859333 34.4508203,1.78868747 C35.3568263,3.02123453 35.1702313,4.809922 35.1702313,6.38285906 L35.1680446,15.6287843 C35.1680446,15.9217967 34.921681,16.1557692 34.6170065,16.1557692 L31.7663314,16.1564981 C31.479879,16.1375471 31.2539242,15.9108634 31.2539242,15.6302421 L31.2531953,7.86249866 C31.2531953,7.24586068 31.306404,5.70426573 31.1730178,5.11824099 C30.9601829,4.13132867 30.3202205,3.8543518 29.4943921,3.8543518 C28.8012211,3.8543518 28.0818101,4.31646584 27.7887977,5.05701452 C27.4957854,5.79683432 27.5220253,7.03011027 27.5220253,7.86249866 L27.5227542,15.6287843 C27.5227542,15.9217967 27.2756616,16.1557692 26.971716,16.1557692 L24.120312,16.1564981 C23.8338596,16.1375471 23.6079048,15.9108634 23.6079048,15.6302421 L23.6049892,7.86249866 C23.6049892,6.22833513 23.8710328,3.82373857 21.8461861,3.82373857 C19.7943706,3.82373857 19.8745481,6.16637977 19.8745481,7.86249866 L19.8730904,15.6287843 C19.8730904,15.9217967 19.6267267,16.1557692 19.3220522,16.1557692" id="Fill-5" fill="#BCBCBC"></path>
                        <path d="M72.084688,0.185137171 C76.3224341,0.185137171 78.6140533,3.82373857 78.6140533,8.4485234 C78.6140533,12.9195132 76.0826304,16.4648171 72.084688,16.4648171 C67.9278483,16.4648171 65.6624691,12.8269446 65.6624691,8.29399946 C65.6624691,3.73116998 67.9548171,0.185137171 72.084688,0.185137171 L72.084688,0.185137171 Z M72.1116568,3.17575847 C70.0066326,3.17575847 69.8732464,6.04319796 69.8732464,7.83188542 C69.8732464,9.619844 69.8462776,13.4435826 72.084688,13.4435826 C74.2968585,13.4435826 74.403276,10.3596638 74.403276,8.47913663 C74.403276,7.24586068 74.3500672,5.76622109 73.9768774,4.5941716 C73.6568962,3.57664605 73.0176627,3.17575847 72.1116568,3.17575847 L72.1116568,3.17575847 Z" id="Fill-6" fill="#BCBCBC"></path>
                        <path d="M84.1083997,16.1557692 L81.2650134,16.1564981 C80.9785611,16.1375471 80.7518774,15.9108634 80.7518774,15.6302421 L80.747504,0.972334588 C80.7715573,0.704833244 81.0077165,0.494185046 81.2963556,0.494185046 L83.9444002,0.493456159 C84.1936794,0.506576116 84.3984965,0.67640667 84.4517052,0.903819258 L84.4517052,3.14514524 L84.5049139,3.14514524 C85.3045024,1.14070737 86.4233432,0.185137171 88.3957101,0.185137171 C89.6749059,0.185137171 90.9271329,0.64725121 91.7267214,1.91186928 C92.4723722,3.08318989 92.4723722,5.05701452 92.4723722,6.47542765 L92.4723722,15.695113 C92.4403012,15.9545966 92.2077864,16.1557692 91.9257074,16.1557692 L89.064099,16.1564981 C88.7995132,16.1390048 88.5866783,15.945121 88.5553362,15.6943841 L88.5553362,7.73931684 C88.5553362,6.13576654 88.7419311,3.79239645 86.7702932,3.79239645 C86.0771221,3.79239645 85.4378886,4.25523938 85.1179075,4.96444594 C84.7177488,5.85806079 84.6645401,6.75240452 84.6645401,7.73931684 L84.6645401,15.6287843 C84.6594379,15.9217967 84.4130742,16.1557692 84.1083997,16.1557692" id="Fill-7" fill="#BCBCBC"></path>
                        <path d="M8.64750941,9.15918774 C8.64750941,10.2714685 8.67374933,11.1986122 8.11323561,12.1869822 C7.65913932,12.9909441 6.93827058,13.4851291 6.13722431,13.4851291 C5.04170791,13.4851291 4.40101668,12.6512829 4.40101668,11.4150914 C4.40101668,8.98352609 6.58184508,8.54109198 8.64750941,8.54109198 L8.64750941,9.15918774 L8.64750941,9.15918774 Z M11.5251533,16.1200538 C11.3363717,16.2891555 11.0637682,16.3008176 10.8509333,16.1863825 C9.90265196,15.3977273 9.73282141,15.0340129 9.21458311,14.2832598 C7.64747714,15.8802501 6.537383,16.3591286 4.5074341,16.3591286 C2.10429532,16.3591286 0.234701452,14.8758445 0.234701452,11.9092765 C0.234701452,9.59141743 1.489844,8.01556482 3.27926036,7.24367402 C4.82814416,6.56362292 6.99147929,6.43971221 8.64750941,6.25457504 L8.64750941,5.88357181 C8.64750941,5.2042496 8.70071813,4.40028779 8.29983055,3.81353416 C7.95288058,3.28800699 7.28522055,3.0715277 6.69773803,3.0715277 C5.6087816,3.0715277 4.64082033,3.62985476 4.40320334,4.78586875 C4.35363905,5.04316568 4.16631522,5.29754707 3.90683163,5.31066703 L1.13997848,5.01182356 C0.906734804,4.95861485 0.646522324,4.77129102 0.714308768,4.41486552 C1.34989779,1.05761431 4.38133674,0.0437331899 7.09789672,0.0437331899 C8.48715438,0.0437331899 10.3028107,0.414007531 11.3983271,1.46506186 C12.7868558,2.76247983 12.6534696,4.49358526 12.6534696,6.37848575 L12.6534696,10.8261512 C12.6534696,12.1636579 13.2088811,12.7504115 13.7307639,13.4712803 C13.9129855,13.7314927 13.9538031,14.0398117 13.7212883,14.2300511 C13.1381791,14.7184051 12.1024314,15.6185799 11.5324422,16.1266138 L11.5251533,16.1200538 L11.5251533,16.1200538 Z" id="Fill-8" fill="#BCBCBC"></path>
                        <path d="M46.0714578,9.15918774 C46.0714578,10.2714685 46.0976977,11.1986122 45.537184,12.1869822 C45.0830877,12.9909441 44.3622189,13.4851291 43.5611727,13.4851291 C42.4656563,13.4851291 41.824965,12.6512829 41.824965,11.4150914 C41.824965,8.98352609 44.0057934,8.54109198 46.0714578,8.54109198 L46.0714578,9.15918774 L46.0714578,9.15918774 Z M48.9498306,16.1200538 C48.7603201,16.2891555 48.4877165,16.3008176 48.2748817,16.1863825 C47.3266003,15.3977273 47.1567698,15.0340129 46.6385315,14.2832598 C45.0714255,15.8802501 43.9613314,16.3591286 41.9321114,16.3591286 C39.5282437,16.3591286 37.6586498,14.8758445 37.6586498,11.9092765 C37.6586498,9.59141743 38.9137924,8.01556482 40.7032087,7.24367402 C42.2520925,6.56362292 44.4154276,6.43971221 46.0714578,6.25457504 L46.0714578,5.88357181 C46.0714578,5.2042496 46.1246665,4.40028779 45.7245078,3.81353416 C45.3768289,3.28800699 44.7091689,3.0715277 44.1216864,3.0715277 C43.03273,3.0715277 42.0647687,3.62985476 41.8271517,4.78586875 C41.7775874,5.04316568 41.5902636,5.29754707 41.3315089,5.31066703 L38.5639268,5.01182356 C38.3306832,4.95861485 38.0704707,4.77129102 38.1382571,4.41486552 C38.7738462,1.05761431 41.8052851,0.0437331899 44.522574,0.0437331899 C45.9111027,0.0437331899 47.726759,0.414007531 48.8215465,1.46506186 C50.2108042,2.76247983 50.077418,4.49358526 50.077418,6.37848575 L50.077418,10.8261512 C50.077418,12.1636579 50.6328295,12.7504115 51.1547122,13.4712803 C51.3369338,13.7314927 51.3777515,14.0398117 51.1452367,14.2300511 C50.5621275,14.7184051 49.5263798,15.6185799 48.9563905,16.1266138 L48.9498306,16.1200538 L48.9498306,16.1200538 Z" id="Fill-9" fill="#BCBCBC"></path>
                    </g>
                    <path d="M95.112,4.224 L95.112,25.344 L97.448,25.344 L97.448,17.952 C98.248,19.232 99.08,20.32 101.416,20.32 C106.6,20.32 106.952,13.504 106.952,11.904 C106.952,7.04 104.808,3.904 101.416,3.904 C98.536,3.904 97.64,6.016 97.224,6.976 L97.224,4.224 L95.112,4.224 Z M97.448,10.944 C97.448,9.888 97.448,8.896 98.184,7.584 C98.984,6.144 99.976,5.856 100.904,5.856 C103.88,5.856 104.36,9.76 104.36,12.032 C104.36,13.376 104.2,15.456 103.432,16.8 C102.76,17.984 101.96,18.368 100.904,18.368 C99.816,18.368 98.952,17.856 98.312,16.992 C97.448,15.84 97.448,14.624 97.448,13.312 L97.448,10.944 Z M112.156,8.224 C112.348,7.552 112.828,5.728 115.292,5.728 C118.236,5.728 118.236,8.512 118.236,9.632 L118.236,10.304 C117.66,10.24 117.052,10.176 116.156,10.176 C113.564,10.176 111.612,10.784 110.428,12.192 C109.66,13.12 109.244,14.4 109.244,15.712 C109.244,18.624 111.132,20.448 113.884,20.448 C116.764,20.448 117.788,18.464 118.428,17.216 C118.428,18.336 118.46,18.848 118.62,20 L120.86,20 C120.604,18.752 120.572,18.112 120.572,14.944 L120.572,10.304 C120.572,8.512 120.572,6.592 119.612,5.44 C118.812,4.448 117.34,3.776 115.452,3.776 C113.884,3.776 112.86,4.224 112.412,4.448 C110.364,5.504 110.012,7.072 109.852,7.84 L112.156,8.224 Z M118.236,12.16 C118.332,13.856 118.332,15.04 117.564,16.48 C116.924,17.6 115.9,18.496 114.332,18.496 C112.508,18.496 111.708,17.408 111.708,15.776 C111.708,13.216 113.18,11.968 116.412,11.968 C117.148,11.968 117.532,12.032 118.236,12.16 L118.236,12.16 Z M121.552,4.224 L126,19.296 C124.976,23.008 124.592,23.744 122.832,23.744 C122.384,23.744 122.096,23.68 121.744,23.616 L121.744,25.536 C122.192,25.6 122.64,25.696 123.28,25.696 C125.904,25.696 126.672,23.936 127.408,21.6 L132.848,4.224 L130.608,4.224 L127.12,16.032 L123.888,4.224 L121.552,4.224 Z M134.756,20 L137.092,20 L137.092,10.848 C137.092,9.632 137.092,8.544 137.572,7.52 C137.892,6.88 138.532,5.728 140.196,5.728 C141.636,5.728 142.66,6.304 142.66,9.344 L142.66,20 L144.996,20 L144.996,10.688 C144.996,8.832 145.412,5.728 148.164,5.728 C150.564,5.728 150.564,8 150.564,10.4 L150.564,20 L152.9,20 L152.9,10.272 C152.9,8.608 152.9,6.592 152.228,5.536 C151.428,4.288 150.02,3.776 148.74,3.776 C145.828,3.776 144.996,5.984 144.58,6.976 C144.356,5.92 143.876,3.776 140.804,3.776 C138.276,3.776 137.54,5.312 136.932,6.624 L136.932,4.224 L134.756,4.224 L134.756,20 Z M167.768,12.416 C167.672,6.496 165.688,3.776 162.136,3.776 C158.808,3.776 155.992,6.432 155.992,12.352 C155.992,16.48 157.496,20.448 162.008,20.448 C164.28,20.448 166.552,19.52 167.544,15.84 L165.336,15.328 C164.984,16.544 164.376,18.496 162.136,18.496 C158.424,18.496 158.456,13.792 158.456,12.416 L167.768,12.416 Z M158.584,10.496 C158.776,8.256 159.48,5.728 161.88,5.728 C164.376,5.728 165.112,8.128 165.112,10.496 L158.584,10.496 Z M170.668,20 L173.004,20 L173.004,11.488 C173.004,7.04 174.508,5.728 176.396,5.728 C178.828,5.728 178.828,7.648 178.828,10.272 L178.828,20 L181.164,20 L181.164,9.952 C181.164,8.192 181.132,6.848 180.684,5.888 C180.108,4.608 178.7,3.776 176.908,3.776 C174.124,3.776 173.26,5.728 172.844,6.656 L172.844,4.224 L170.668,4.224 L170.668,20 Z M185.344,0.544 L185.344,4.224 L183.072,4.224 L183.072,6.144 L185.344,6.144 L185.344,14.08 C185.344,17.888 185.344,20.448 189.344,20.448 C190.272,20.448 190.944,20.32 191.52,20.224 L191.52,18.24 C191.104,18.336 190.688,18.4 190.112,18.4 C187.68,18.4 187.68,17.12 187.68,14.08 L187.68,6.144 L190.752,6.144 L190.752,4.224 L187.68,4.224 L187.68,0.32 L185.344,0.544 Z M202.1,7.776 C201.78,6.624 200.948,3.776 197.108,3.776 C193.492,3.776 191.956,6.592 191.956,8.48 C191.956,9.344 192.244,10.144 192.724,10.816 C193.492,11.936 194.58,12.352 197.268,13.184 C198.676,13.632 200.34,14.144 200.34,15.904 C200.34,17.024 199.476,18.496 197.204,18.496 C194.164,18.496 193.716,16.288 193.556,15.456 L191.38,15.936 C191.636,17.12 192.308,20.448 197.044,20.448 C201.044,20.448 202.772,17.888 202.772,15.616 C202.772,12.448 199.956,11.52 197.94,10.88 C195.348,10.112 194.26,9.76 194.26,8.16 C194.26,7.008 195.124,5.728 196.98,5.728 C199.156,5.728 199.796,7.616 200.052,8.288 L202.1,7.776 Z" id="payments" fill="#D0D0D0"></path>
                </g>
            </g>
        </g>
    </g>
</svg>