<?xml version="1.0" encoding="UTF-8" standalone="no"?>
<svg width="297px" height="180px" viewBox="0 0 297 180" version="1.1" xmlns="http://www.w3.org/2000/svg" xmlns:xlink="http://www.w3.org/1999/xlink" xmlns:sketch="http://www.bohemiancoding.com/sketch/ns">
    <!-- Generator: Sketch 3.4.4 (17249) - http://www.bohemiancoding.com/sketch -->
    <title>Page 1</title>
    <desc>Created with Sketch.</desc>
    <defs>
        <path id="path-1" d="M0,0.451139241 L296.493802,0.451139241 L296.493802,180 L0,180"></path>
        <path id="path-3" d="M0,0.451139241 L296.493802,0.451139241 L296.493802,180 L0,180 L0,0.451139241 Z"></path>
    </defs>
    <g id="option2" stroke="none" stroke-width="1" fill="none" fill-rule="evenodd" sketch:type="MSPage">
        <g id="howitworks5" sketch:type="MSArtboardGroup" transform="translate(-471.000000, -180.000000)">
            <g id="Page-1" sketch:type="MSLayerGroup" transform="translate(471.000000, 180.000000)">
                <g id="Group-3">
                    <mask id="mask-2" sketch:name="Clip 2" fill="white">
                        <use xlink:href="#path-1"></use>
                    </mask>
                    <g id="Clip-2"></g>
                    <path d="M273.763835,53.7641772 C255.209351,47.0494937 276.610912,41.7581013 287.285351,33.8001266 C297.960554,25.8413924 249.175441,26.1717722 235.508097,25.948481 C221.840752,25.7244304 307.47677,-4.11607595 148.595513,1.17075949 C78.9028219,3.48949367 46.4740866,0.450759494 34.9330789,0.450759494 C23.3920712,0.450759494 17.5833925,18.8434177 40.7829864,20.2211392 C43.0360635,20.3555696 45.017336,20.4687342 46.8420918,21.6117722 C44.808138,25.1381013 35.910354,25.8596203 31.9798758,26.9213924 C25.6512563,28.6317722 19.3234003,30.3413924 12.9947807,32.0510127 C8.7619581,33.1948101 4.4459144,34.6067089 1.76375244,38.3343038 C0.242104627,40.4494937 -0.464129306,43.2429114 0.328379692,45.7211392 C1.22777815,48.5343038 3.8305365,50.4725316 6.50964447,51.7439241 C17.6696676,57.0406329 29.0266728,49.4039241 40.0324697,53.4573418 C41.5495365,54.0155696 43.0597319,54.9186076 43.735426,56.3813924 C46.0198064,61.3264557 35.4476753,64.3416456 32.3852923,65.4748101 C23.3111406,68.8325316 12.4275031,69.5403797 5.54382185,77.1056962 C2.03861105,80.9578481 0.252793573,87.2996203 3.67783728,91.2231646 C4.87270874,92.5917722 6.54247481,93.4682278 8.25652365,94.0826582 C12.3328296,95.5439241 16.7488913,95.6624051 21.0298141,96.325443 C30.0879324,97.7297468 35.3293334,102.049747 31.4698604,111.238101 C29.6267807,115.624937 26.4437653,119.443671 22.451444,122.057848 C19.3997499,124.056076 -2.40188252,132.212278 9.57202751,136.111519 C11.5846033,136.766962 13.7552229,136.656076 15.8723977,136.62038 C22.9805468,136.501139 30.1039658,137.312278 37.00139,139.027215 C41.442647,140.131519 46.300773,142.15481 47.3459992,147.029241 C48.4568861,152.209747 42.1649144,158.512785 47.4254028,162.948228 C49.2532126,164.49 186.952796,163.846709 253.442621,162.028481 C259.121506,161.872785 272.029171,159.310253 268.424706,150.534304 C267.088588,147.279873 263.256601,145.978861 259.911724,144.843418 C256.567611,143.708734 252.808156,141.803165 252.28058,138.327722 C251.997323,136.461646 252.767691,134.594051 253.738858,132.973291 C257.143287,127.292278 262.824462,123.741646 269.36457,123.05962 C271.979544,122.786962 278.22876,123.722658 279.580148,120.577595 C281.717938,115.603671 263.84831,109.441139 263.826169,102.361139 C263.80021,94.2140506 283.727459,95.546962 292.978742,83.9548101 C302.230788,72.3626582 292.318318,60.4788608 273.763835,53.7641772" id="Fill-1" fill="#D9F6FF" sketch:type="MSShapeGroup" mask="url(#mask-2)"></path>
                </g>
                <path d="M122.053028,169.504329 L124.726028,173.925342 L141.271753,173.925342 L137.855108,169.504329 L122.053028,169.504329 Z" id="Fill-4" fill="#415572" sketch:type="MSShapeGroup"></path>
                <path d="M125.429742,172.685696 L138.742825,172.685696 L137.242555,170.74443 L124.255485,170.74443 L125.429742,172.685696 Z M141.271524,175.163924 L124.725035,175.163924 C124.288316,175.163924 123.883663,174.936835 123.658431,174.563924 L120.985431,170.14443 C120.753329,169.761646 120.747221,169.285443 120.968634,168.895063 C121.188521,168.505443 121.603863,168.266203 122.052799,168.266203 L137.855642,168.266203 C138.242735,168.266203 138.607686,168.445443 138.843606,168.75 L142.259488,173.169494 C142.548853,173.544684 142.599244,174.048228 142.390046,174.472025 C142.179321,174.895823 141.746419,175.163924 141.271524,175.163924 L141.271524,175.163924 Z" id="Fill-6" fill="#415572" sketch:type="MSShapeGroup"></path>
                <path d="M191.083539,169.504329 L193.756539,173.925342 L210.302264,173.925342 L206.885619,169.504329 L191.083539,169.504329 Z" id="Fill-8" fill="#415572" sketch:type="MSShapeGroup"></path>
                <path d="M194.460559,172.685696 L207.773641,172.685696 L206.271844,170.74443 L193.286302,170.74443 L194.460559,172.685696 Z M210.302341,175.163924 L193.755852,175.163924 C193.319132,175.163924 192.914479,174.936835 192.689248,174.563924 L190.016248,170.14443 C189.784145,169.761646 189.778037,169.285443 189.999451,168.895063 C190.219338,168.505443 190.63468,168.266203 191.083616,168.266203 L206.884932,168.266203 C207.272024,168.266203 207.636976,168.445443 207.872896,168.75 L211.290305,173.169494 C211.57967,173.542405 211.63006,174.048228 211.420862,174.472025 C211.210138,174.895823 210.777235,175.163924 210.302341,175.163924 L210.302341,175.163924 Z" id="Fill-10" fill="#415572" sketch:type="MSShapeGroup"></path>
                <path d="M200.692978,114.792608 L200.692978,171.715139" id="Fill-12" fill="#FFFFFF" sketch:type="MSShapeGroup"></path>
                <path d="M200.692902,173.574 C199.661419,173.574 198.824627,172.741595 198.824627,171.715519 L198.824627,114.793747 C198.824627,113.766911 199.661419,112.934506 200.692902,112.934506 C201.724385,112.934506 202.561177,113.766911 202.561177,114.793747 L202.561177,171.715519 C202.561177,172.741595 201.724385,173.574 200.692902,173.574" id="Fill-14" fill="#415572" sketch:type="MSShapeGroup"></path>
                <path d="M221.393191,96.0079747 L148.159404,96.0079747 L114.524345,96.0079747 L113.261523,96.0079747 L109.753258,112.211013 L224.901456,112.211013 L221.393191,96.0079747 Z" id="Fill-16" fill="#F9E2CA" sketch:type="MSShapeGroup"></path>
                <path d="M111.295825,110.971671 L223.358735,110.971671 L220.387972,97.2483797 L114.268116,97.2483797 L111.295825,110.971671 Z M224.900998,113.449899 L109.753563,113.449899 C109.37716,113.449899 109.020607,113.280532 108.783923,112.990405 C108.548003,112.697241 108.456383,112.315215 108.535787,111.949139 L112.044052,95.7476203 C112.167738,95.176481 112.675463,94.7701519 113.261828,94.7701519 L221.393496,94.7701519 C221.979861,94.7701519 222.487586,95.176481 222.611273,95.7476203 L226.118774,111.949139 C226.198178,112.315215 226.106558,112.697241 225.870638,112.990405 C225.63319,113.280532 225.276638,113.449899 224.900998,113.449899 L224.900998,113.449899 Z" id="Fill-18" fill="#415572" sketch:type="MSShapeGroup"></path>
                <path d="M131.662467,114.792608 L131.662467,171.715139" id="Fill-20" fill="#FFFFFF" sketch:type="MSShapeGroup"></path>
                <path d="M131.662161,173.574 C130.630678,173.574 129.793886,172.741595 129.793886,171.715519 L129.793886,114.793747 C129.793886,113.766911 130.630678,112.934506 131.662161,112.934506 C132.693645,112.934506 133.530437,113.766911 133.530437,114.793747 L133.530437,171.715519 C133.530437,172.741595 132.693645,173.574 131.662161,173.574" id="Fill-22" fill="#415572" sketch:type="MSShapeGroup"></path>
                <mask id="mask-4" sketch:name="Clip 25" fill="white">
                    <use xlink:href="#path-3"></use>
                </mask>
                <g id="Clip-25"></g>
                <path d="M109.753334,112.210633 L224.901532,112.210633 L224.901532,120.085823 L109.753334,120.085823 L109.753334,112.210633 Z" id="Fill-24" fill="#E2BF9F" sketch:type="MSShapeGroup" mask="url(#mask-4)"></path>
                <path d="M110.99936,118.847848 L223.655506,118.847848 L223.655506,113.450127 L110.99936,113.450127 L110.99936,118.847848 Z M224.900769,121.326076 L109.753334,121.326076 C109.064661,121.326076 108.507308,120.771646 108.507308,120.086582 L108.507308,112.210633 C108.507308,111.52557 109.064661,110.971899 109.753334,110.971899 L224.900769,110.971899 C225.589442,110.971899 226.146794,111.52557 226.146794,112.210633 L226.146794,120.086582 C226.146794,120.771646 225.589442,121.326076 224.900769,121.326076 L224.900769,121.326076 Z" id="Fill-26" fill="#415572" sketch:type="MSShapeGroup" mask="url(#mask-4)"></path>
                <path d="M222.13592,103.536987 C222.13592,103.536987 201.713162,110.414203 183.803833,105.725089 C165.892977,101.036734 168.407169,91.0357215 168.407169,91.0357215 C168.407169,91.0357215 177.833293,90.7228101 182.546354,84.4721772 C182.546354,84.4721772 201.713162,95.7248354 215.537786,84.4721772 C215.537786,84.4721772 221.822123,90.7228101 222.13592,103.536987" id="Fill-27" fill="#FFFFFF" sketch:type="MSShapeGroup" mask="url(#mask-4)"></path>
                <path d="M169.522408,92.1922025 C169.458275,94.5208101 170.578323,100.980304 184.121218,104.52638 C199.383506,108.524354 216.788928,103.85119 220.856071,102.636 C220.414771,93.5813165 216.892763,88.1357468 215.361953,86.1754937 C202.784118,95.4086582 186.901107,88.1699241 182.856868,86.0562532 C178.686652,90.7787848 172.101498,91.9210633 169.522408,92.1922025 M197.657241,108.613975 C193.044197,108.613975 188.19676,108.156759 183.485989,106.922582 C164.603966,101.979797 167.083038,91.1927089 167.199089,90.7354937 C167.332701,90.1977722 167.809886,89.8157468 168.364185,89.796 C168.451987,89.7937215 177.259678,89.4162532 181.550526,83.7284051 C181.931511,83.2225823 182.627056,83.0820759 183.179064,83.4041013 C183.364593,83.5149873 201.771722,94.0749873 214.748866,83.5127089 C215.242848,83.1063797 215.964352,83.1451139 216.417868,83.5954937 C216.689673,83.8635949 223.059521,90.3481519 223.381717,103.507139 C223.394696,104.049418 223.051886,104.536253 222.534999,104.710177 C221.908169,104.920557 210.736694,108.613975 197.657241,108.613975" id="Fill-28" fill="#415572" sketch:type="MSShapeGroup" mask="url(#mask-4)"></path>
                <path d="M213.888253,89.4835443 C213.888253,89.4835443 216.846801,94.3967089 216.223788,100.593418" id="Fill-29" fill="#FFFFFF" sketch:type="MSShapeGroup" mask="url(#mask-4)"></path>
                <path d="M216.224628,101.522658 C216.193324,101.522658 216.162784,101.52038 216.130717,101.518101 C215.617648,101.467215 215.242771,101.012278 215.293926,100.501139 C215.876473,94.7046835 213.114144,90.0064557 213.085895,89.9608861 C212.821725,89.5203797 212.966789,88.9492405 213.409617,88.6872152 C213.848628,88.4236709 214.422777,88.5664557 214.689237,89.006962 C214.815977,89.2173418 217.798957,94.2565823 217.153039,100.684937 C217.105702,101.164177 216.698759,101.522658 216.224628,101.522658" id="Fill-30" fill="#415572" sketch:type="MSShapeGroup" mask="url(#mask-4)"></path>
                <path d="M212.331026,98.0988608 L212.331026,100.593038" id="Fill-31" fill="#FFFFFF" sketch:type="MSShapeGroup" mask="url(#mask-4)"></path>
                <path d="M212.330415,101.522658 C211.814292,101.522658 211.395896,101.106456 211.395896,100.593038 L211.395896,98.0981013 C211.395896,97.5846835 211.814292,97.168481 212.330415,97.168481 C212.846539,97.168481 213.264935,97.5846835 213.264935,98.0981013 L213.264935,100.593038 C213.264935,101.106456 212.846539,101.522658 212.330415,101.522658" id="Fill-32" fill="#415572" sketch:type="MSShapeGroup" mask="url(#mask-4)"></path>
                <path d="M210.462446,91.3156709 L211.085459,93.1475696" id="Fill-33" fill="#FFFFFF" sketch:type="MSShapeGroup" mask="url(#mask-4)"></path>
                <path d="M211.084695,94.0776456 C210.695312,94.0776456 210.331888,93.8330886 210.19904,93.4457468 L209.576027,91.6138481 C209.411875,91.1270127 209.673754,90.5999241 210.162392,90.4351139 C210.654083,90.2657468 211.181659,90.5315696 211.347338,91.0184051 L211.970351,92.8503038 C212.134502,93.3371392 211.873387,93.8649873 211.383986,94.029038 C211.283968,94.0632152 211.183186,94.0776456 211.084695,94.0776456" id="Fill-34" fill="#415572" sketch:type="MSShapeGroup" mask="url(#mask-4)"></path>
                <path d="M205.012229,92.0703038 C205.012229,92.0703038 206.22237,95.9649873 206.569761,101.367266" id="Fill-35" fill="#FFFFFF" sketch:type="MSShapeGroup" mask="url(#mask-4)"></path>
                <path d="M206.567623,102.29719 C206.078222,102.29719 205.668224,101.919722 205.636921,101.426051 C205.300983,96.2098481 204.130543,92.383519 204.119091,92.3447848 C203.966392,91.8556709 204.242777,91.3354177 204.736759,91.1827595 C205.229214,91.0399747 205.752209,91.3088354 205.904908,91.7979494 C205.954535,91.9597215 207.151697,95.858962 207.500615,101.309848 C207.533446,101.820228 207.143299,102.263013 206.628703,102.294911 C206.608088,102.29719 206.588237,102.29719 206.567623,102.29719" id="Fill-36" fill="#415572" sketch:type="MSShapeGroup" mask="url(#mask-4)"></path>
                <path d="M189.907526,90.6793671 L188.817254,96.7188608" id="Fill-37" fill="#FFFFFF" sketch:type="MSShapeGroup" mask="url(#mask-4)"></path>
                <path d="M188.81817,97.6476456 C188.763198,97.6476456 188.707463,97.6430886 188.651728,97.6332152 C188.144003,97.5413165 187.805774,97.0597975 187.897394,96.5539747 L188.986903,90.5152405 C189.078522,90.0086582 189.568687,89.6797975 190.072594,89.7648608 C190.579556,89.8567595 190.917784,90.3382785 190.826928,90.8441013 L189.736656,96.8828354 C189.654962,97.3332152 189.262525,97.6476456 188.81817,97.6476456" id="Fill-38" fill="#415572" sketch:type="MSShapeGroup" mask="url(#mask-4)"></path>
                <path d="M186.326042,89.4835443 L185.391523,92.8496203" id="Fill-39" fill="#FFFFFF" sketch:type="MSShapeGroup" mask="url(#mask-4)"></path>
                <path d="M185.391141,93.7799241 C185.309447,93.7799241 185.225462,93.7700506 185.143005,93.7457468 C184.645205,93.610557 184.35355,93.0971392 184.490979,92.6034684 L185.425498,89.2366329 C185.562928,88.742962 186.075997,88.4406835 186.573797,88.5880253 C187.070833,88.7239747 187.363252,89.2366329 187.225822,89.7310633 L186.291303,93.0971392 C186.176779,93.5087848 185.801139,93.7799241 185.391141,93.7799241" id="Fill-40" fill="#415572" sketch:type="MSShapeGroup" mask="url(#mask-4)"></path>
                <path d="M99.4077324,176.877722 C99.3130589,176.877722 99.2168584,176.863291 99.1221848,176.83443 L79.6034059,170.587595 C79.1117144,170.42962 78.8422003,169.90481 79.000244,169.415696 C79.1582877,168.92962 79.6858635,168.663038 80.1752645,168.815696 L99.6932799,175.062532 C100.184971,175.219747 100.455249,175.745316 100.297205,176.233671 C100.168938,176.626329 99.8032234,176.877722 99.4077324,176.877722" id="Fill-41" fill="#D1D3D4" sketch:type="MSShapeGroup" mask="url(#mask-4)"></path>
                <path d="M83.4307357,179.423924 C83.3360622,179.423924 83.2398617,179.409494 83.1451882,179.380633 L63.6264093,173.133797 C63.1347177,172.975823 62.8652036,172.451013 63.0232473,171.961899 C63.181291,171.475823 63.7081033,171.209241 64.1982679,171.361899 L83.7162833,177.608734 C84.2079748,177.765949 84.4782524,178.291519 84.3202087,178.779873 C84.1919414,179.172532 83.8262267,179.423924 83.4307357,179.423924" id="Fill-42" fill="#D1D3D4" sketch:type="MSShapeGroup" mask="url(#mask-4)"></path>
                <path d="M58.0766321,175.948329 C57.9819586,175.948329 57.8857581,175.933899 57.7910846,175.905038 L38.2715422,169.658203 C37.7798506,169.500228 37.509573,168.975418 37.6676167,168.486304 C37.8256604,168.000228 38.3524728,167.738203 38.8426373,167.886304 L58.3621797,174.133139 C58.8538712,174.290354 59.1241488,174.815924 58.9661051,175.304278 C58.8378378,175.696937 58.4721231,175.948329 58.0766321,175.948329" id="Fill-43" fill="#D1D3D4" sketch:type="MSShapeGroup" mask="url(#mask-4)"></path>
                <path d="M48.3173954,180 C48.2227219,180 48.1265213,179.98557 48.0318478,179.956709 L41.1809969,177.766329 C40.6893054,177.608354 40.4197913,177.083544 40.577835,176.59443 C40.7358787,176.108354 41.262691,175.841772 41.7528555,175.99443 L48.6029429,178.18481 C49.0946344,178.342025 49.3649121,178.867595 49.2068684,179.353671 C49.080128,179.748608 48.7128864,180 48.3173954,180" id="Fill-44" fill="#D1D3D4" sketch:type="MSShapeGroup" mask="url(#mask-4)"></path>
                <path d="M35.9134843,176.030658 C35.8188108,176.030658 35.7226103,176.016228 35.6279368,175.987367 L28.5121527,173.709646 L29.0840113,171.937747 L36.1990319,174.215468 C36.6907234,174.372684 36.961001,174.898253 36.8029573,175.386608 C36.67469,175.779266 36.3089753,176.030658 35.9134843,176.030658" id="Fill-45" fill="#D1D3D4" sketch:type="MSShapeGroup" mask="url(#mask-4)"></path>
                <path d="M46.4994347,145.621443 L41.0534167,171.893089 L79.4748332,171.893089 L75.0412111,145.621443 L46.4994347,145.621443 Z" id="Fill-46" fill="#27AAE1" sketch:type="MSShapeGroup" mask="url(#mask-4)"></path>
                <path d="M42.5826231,170.655038 L78.0027362,170.655038 L73.9882735,146.860861 L47.5148082,146.860861 L42.5826231,170.655038 Z M79.4747568,173.133266 L41.0533404,173.133266 C40.6784638,173.133266 40.324965,172.966177 40.0875177,172.676051 C39.8515974,172.388203 39.7576874,172.007696 39.8332735,171.644658 L45.280055,145.372253 C45.3991604,144.795797 45.9084123,144.381873 46.5001219,144.381873 L75.0411347,144.381873 C75.6496411,144.381873 76.1688185,144.820101 76.2703635,145.415544 L80.7032221,171.688709 C80.7643018,172.049468 80.6619933,172.417063 80.426073,172.695038 C80.1886257,172.973772 79.8404715,173.133266 79.4747568,173.133266 L79.4747568,173.133266 Z" id="Fill-47" fill="#415572" sketch:type="MSShapeGroup" mask="url(#mask-4)"></path>
                <path d="M59.8994028,137.963772 L50.2785879,137.963772 C46.4397293,137.963772 42.733719,139.836684 40.8142897,143.143519 C39.9355057,144.65719 39.4613746,146.388835 40.0156728,148.178962 C41.2449015,152.154152 65.313354,151.09162 77.0246213,149.830861 C81.2207961,149.378962 80.8069812,142.873899 76.9795751,141.102759 C73.6362254,139.55643 68.3230558,138.281241 59.8994028,137.963772" id="Fill-48" fill="#27AAE1" sketch:type="MSShapeGroup" mask="url(#mask-4)"></path>
                <path d="M50.2785116,139.202582 C46.7397069,139.202582 43.5253882,140.950177 41.8930334,143.762582 C41.0531877,145.210177 40.8226118,146.572709 41.2066504,147.816759 C42.3152468,150.02157 59.9947635,150.415747 76.8909332,148.598278 C78.1682622,148.460051 78.5904756,147.513722 78.7179794,146.742076 C78.9821491,145.159291 78.2072005,143.036506 76.4542134,142.225367 C72.7115553,140.495241 67.1342159,139.478278 59.8756581,139.202582 L50.2785116,139.202582 Z M55.934491,152.214228 C55.4794473,152.214228 55.0266941,152.211949 54.5777584,152.207392 C41.6555861,152.083595 39.3635707,150.285114 38.8245424,148.545114 C38.2297789,146.618278 38.5351774,144.592709 39.7346298,142.523089 C41.8113393,138.945873 45.8517609,136.724354 50.2785116,136.724354 L59.8993265,136.724354 L59.9466632,136.724354 C67.5487943,137.012203 73.455964,138.105873 77.5047841,139.979544 C80.4381362,141.337519 81.5849075,144.684608 81.176437,147.146127 C80.8069049,149.368405 79.3043445,150.832709 77.1581568,151.062076 C72.0984679,151.606633 63.6740514,152.214228 55.934491,152.214228 L55.934491,152.214228 Z" id="Fill-49" fill="#415572" sketch:type="MSShapeGroup" mask="url(#mask-4)"></path>
                <path d="M71.2405272,83.8691392 C86.1172496,83.8691392 86.8181391,71.8509114 86.8181391,71.8509114 C83.4984578,75.4281266 77.7500954,76.7405316 71.2405272,76.7405316 C64.6515555,76.7405316 58.8413499,75.3962278 55.542283,71.7202785 C55.0902933,71.2167342 54.3817689,70.9858481 53.7534116,71.239519 C53.7534116,71.239519 58.0893062,83.8691392 71.2405272,83.8691392" id="Fill-50" fill="#FFFFFF" sketch:type="MSShapeGroup" mask="url(#mask-4)"></path>
                <path d="M56.7627316,74.4438228 C58.9875594,77.9147089 63.4456134,82.6296456 71.240909,82.6296456 C80.0119527,82.6296456 83.4232535,78.2655949 84.7456288,75.0681266 C81.4603049,77.0017975 76.9381172,77.9800253 71.240909,77.9800253 C64.9565722,77.9800253 60.1030272,76.7914177 56.7627316,74.4438228 M71.240909,85.1078734 C57.3597856,85.1078734 52.6215285,71.7742025 52.5757188,71.6390127 C52.3627033,71.0192658 52.6726828,70.3387595 53.2842432,70.0919241 C54.3638267,69.6514177 55.6472638,69.9757215 56.4710761,70.8954684 C59.2143177,73.9524304 64.1839141,75.5017975 71.240909,75.5017975 C78.2047573,75.5017975 83.1384694,73.9911646 85.9038524,71.0116709 C86.2619321,70.6243291 86.8238653,70.5058481 87.3056314,70.7116709 C87.7896879,70.9152152 88.0927959,71.4012911 88.062256,71.9245823 C88.0546211,72.0552152 87.1086494,85.1078734 71.240909,85.1078734" id="Fill-51" fill="#415572" sketch:type="MSShapeGroup" mask="url(#mask-4)"></path>
                <path d="M75.6346766,143.321696 L75.6346766,138.738152 L93.4462781,138.738152 L98.1165841,138.738152 L98.3883887,138.738152 C98.3883887,138.738152 99.1014941,164.25638 99.1014941,173.290557 L92.4606046,173.290557 C92.4606046,165.388025 92.7453887,153.517139 93.2187563,143.282203 L93.1744735,143.321696 L75.6346766,143.321696 Z" id="Fill-52" fill="#FFFFFF" sketch:type="MSShapeGroup" mask="url(#mask-4)"></path>
                <path d="M93.7093789,172.051595 L97.852109,172.051595 C97.8032452,163.529316 97.3092632,144.890582 97.1764149,139.977418 L76.8811604,139.977418 L76.8811604,142.082734 L93.0291039,142.082734 C93.2711321,142.044 93.5185049,142.080456 93.7406823,142.186785 C94.1888545,142.404759 94.486618,142.845266 94.4637131,143.341215 C94.0331013,152.640456 93.7376283,163.972101 93.7093789,172.051595 M99.1011887,174.529823 L92.4610627,174.529823 C91.7723892,174.529823 91.2158005,173.975392 91.2158005,173.291089 C91.2158005,165.494886 91.4937131,154.121468 91.915163,144.560962 L75.6351347,144.560962 C74.9464612,144.560962 74.389109,144.007291 74.389109,143.322228 L74.389109,138.737924 C74.389109,138.052861 74.9464612,137.49843 75.6351347,137.49843 L98.3880833,137.49843 C99.0622504,137.49843 99.6142581,138.033873 99.634109,138.703747 C99.640217,138.958177 100.347214,164.342734 100.347214,173.291089 C100.347214,173.975392 99.7898622,174.529823 99.1011887,174.529823" id="Fill-53" fill="#415572" sketch:type="MSShapeGroup" mask="url(#mask-4)"></path>
                <path d="M52.7663638,139.762253 L52.7663638,124.73643 L91.4718008,124.73643 L91.4718008,140.382" id="Fill-54" fill="#FFFFFF" sketch:type="MSShapeGroup" mask="url(#mask-4)"></path>
                <path d="M91.4709609,141.620582 C90.7822874,141.620582 90.2249352,141.066152 90.2249352,140.381089 L90.2249352,125.975772 L54.0123131,125.975772 L54.0123131,139.762101 C54.0123131,140.446405 53.4549609,141.000835 52.7662874,141.000835 C52.0776139,141.000835 51.5202617,140.446405 51.5202617,139.762101 L51.5202617,124.736278 C51.5202617,124.051215 52.0776139,123.496785 52.7662874,123.496785 L91.4709609,123.496785 C92.1596344,123.496785 92.7169866,124.051215 92.7169866,124.736278 L92.7169866,140.381089 C92.7169866,141.066152 92.1596344,141.620582 91.4709609,141.620582" id="Fill-55" fill="#415572" sketch:type="MSShapeGroup" mask="url(#mask-4)"></path>
                <path d="M70.5778889,138.738304 L75.2481949,138.738304 L75.5199995,138.738304 C75.5199995,138.738304 76.2331049,164.832987 76.2331049,173.867165 L69.5929789,173.867165 C69.5929789,165.963873 69.8769995,153.517291 70.3060843,143.321848 L57.2632797,143.321848 C54.7796267,143.321848 52.7662874,141.319063 52.7662874,138.84843 L52.7662874,138.738304" id="Fill-56" fill="#FFFFFF" sketch:type="MSShapeGroup" mask="url(#mask-4)"></path>
                <path d="M76.2336393,175.106051 L69.5927499,175.106051 C68.9040763,175.106051 68.3467242,174.55162 68.3467242,173.866557 C68.3467242,166.201747 68.6154748,154.339215 69.0071483,144.561494 L57.2638141,144.561494 C54.0975956,144.561494 51.5207961,141.998203 51.5207961,138.849342 C51.5207961,138.164278 52.0781483,137.554405 52.7660584,137.554405 C53.4547319,137.554405 54.0120841,138.052633 54.0120841,138.737696 C54.0120841,140.633392 55.4711252,142.082506 57.2638141,142.082506 L70.3050918,142.082506 C70.6448476,142.082506 70.9693334,142.220734 71.2044902,142.465291 C71.4388835,142.70757 71.5648604,143.03643 71.5495905,143.372886 C71.151809,152.848329 70.8685519,164.633392 70.8403026,172.627823 L74.9845596,172.627823 C74.9356959,164.05238 74.4394234,144.957949 74.3065751,139.97719 L70.5776599,139.97719 C69.8889864,139.97719 69.3323977,139.422759 69.3323977,138.737696 C69.3323977,138.052633 69.8889864,137.498962 70.5776599,137.498962 L75.5197704,137.498962 C76.194701,137.498962 76.7467087,138.033646 76.7650326,138.704278 C76.7711406,138.965544 77.479665,164.918962 77.479665,173.866557 C77.479665,174.55162 76.9223129,175.106051 76.2336393,175.106051" id="Fill-57" fill="#415572" sketch:type="MSShapeGroup" mask="url(#mask-4)"></path>
                <path d="M87.9819362,68.1338734 C84.85771,72.4941266 79.0872062,77.0662785 71.9859285,77.0662785 C64.8938129,77.0662785 58.6331445,72.4827342 55.5058643,68.1338734 L55.5051008,68.1338734 C37.5240031,83.7232405 46.5668514,135.150835 46.5668514,135.150835 L96.5537075,135.150835 C96.5537075,135.150835 103.156422,78.9923544 87.9819362,68.1338734" id="Fill-58" fill="#F06E46" sketch:type="MSShapeGroup" mask="url(#mask-4)"></path>
                <path d="M47.627653,133.911722 L95.4347275,133.911722 C96.2226555,126.261342 100.320339,80.932481 88.1960206,69.9031139 C84.7686864,74.1388101 78.9577172,78.3038734 71.9869974,78.3038734 C65.1811928,78.3038734 58.9426658,74.2793165 55.3572879,69.9707089 C40.7004524,84.6456456 46.5190566,126.783873 47.627653,133.911722 M96.5540129,136.389949 L46.5671568,136.389949 C45.9624679,136.389949 45.444054,135.957038 45.339455,135.363873 C44.9661054,133.236532 36.3866992,83.0651392 54.6861748,67.1993165 C54.952635,66.9699494 55.3015527,66.8636203 55.6497069,66.9015949 C55.9986247,66.9433671 56.3139486,67.129443 56.5185656,67.4127342 C59.5305578,71.5998228 65.4820103,75.8256456 71.9869974,75.8256456 C78.5874216,75.8256456 84.0532905,71.4813418 86.9675553,67.4150127 C87.1591928,67.1461519 87.4516118,66.9646329 87.7783882,66.9114684 C88.104401,66.8583038 88.4403393,66.9357722 88.70909,67.1271646 C104.299681,78.2826076 98.0649717,132.972987 97.7908766,135.294 C97.717581,135.918304 97.1861877,136.389949 96.5540129,136.389949" id="Fill-59" fill="#415572" sketch:type="MSShapeGroup" mask="url(#mask-4)"></path>
                <path d="M84.3547188,104.559722 C84.2233974,104.47162 84.0455028,104.473899 83.916472,104.567316 C83.7866776,104.660734 83.7286519,104.830101 83.7744617,104.983519 C83.8202715,105.136937 83.9622817,105.247823 84.1233794,105.254658 C84.2821866,105.262253 84.4318319,105.168076 84.4936751,105.022253 C84.5631532,104.856684 84.504364,104.659975 84.3547188,104.559722 C84.1798781,104.442 84.5295594,104.677443 84.3547188,104.559722" id="Fill-60" fill="#FFFFFF" sketch:type="MSShapeGroup" mask="url(#mask-4)"></path>
                <path d="M79.4594869,108.107316 C79.5465254,108.107316 79.633564,108.105797 79.7213661,108.102759 C79.8946797,108.096684 80.0687568,108.083772 80.2413069,108.064025 C80.3810267,108.047316 79.9565229,108.096684 80.2413069,108.064025 C80.4146206,108.043519 80.5596848,108.206051 80.5192195,108.375418 C80.5001321,108.452127 80.4443969,108.517443 80.3711013,108.548582 C80.3252915,108.568329 80.2749008,108.570608 80.226037,108.575924 C80.1680113,108.582 80.1092221,108.587316 80.0511964,108.591873 C79.5892812,108.629089 79.1227851,108.621494 78.6623969,108.570608 C78.2447645,108.525038 77.8317131,108.443013 77.4293506,108.322253 C77.0384406,108.205291 76.657456,108.051873 76.2940319,107.865797 C75.9260267,107.675924 75.578636,107.451114 75.2480422,107.202759 C74.8724021,106.920228 74.5265383,106.600481 74.2157954,106.248835 C73.9065794,105.900228 73.6324843,105.520481 73.399618,105.11719 C73.1614072,104.707063 72.9659522,104.271873 72.8178339,103.821494 C72.6658982,103.362 72.5620627,102.887316 72.5093815,102.405797 C72.4559368,101.916684 72.4536463,101.421494 72.504037,100.93162 C72.5529008,100.449342 72.6529188,99.9723797 72.8018005,99.5106076 C72.9476283,99.0587089 73.1400293,98.622 73.3751861,98.2088354 C73.6088159,97.7987089 73.884438,97.4128861 74.1959445,97.0582025 C74.5043969,96.706557 74.8487337,96.3852911 75.2213198,96.102 C75.5977234,95.8156709 76.0031398,95.5673165 76.4299342,95.3614937 C76.8636,95.1533924 77.3194072,94.9893418 77.7874303,94.8746582 C78.2638519,94.7569367 78.753253,94.6901013 79.2434175,94.6733924 C79.7358725,94.657443 80.229091,94.6923797 80.7139111,94.7782025 C81.1849882,94.8617468 81.6476668,94.9938987 82.0920216,95.1716203 C82.5310319,95.3478228 82.9517183,95.5673165 83.3456823,95.8270633 C83.7381193,96.0868101 84.1045974,96.3852911 84.4382452,96.7171899 C84.577965,96.8561772 84.7062324,96.9982025 84.7925075,97.177443 C84.8680936,97.3323797 84.9123763,97.5025063 84.9230653,97.6749114 C84.9444432,98.0257975 84.8222838,98.377443 84.587127,98.6402278 C84.3122684,98.9470633 83.9037979,99.1126329 83.49151,99.0830127 C83.2937645,99.0693418 83.099073,99.0108608 82.9265229,98.9136456 C82.8371938,98.8627595 82.7539728,98.802 82.6783866,98.7328861 C82.5928751,98.6538987 82.5149985,98.5673165 82.4302504,98.4883291 C82.0874406,98.1701013 81.6927131,97.9080759 81.2651553,97.7151646 C80.8269085,97.5169367 80.3550679,97.3931392 79.8755923,97.3498481 C79.3861913,97.3057975 78.8891553,97.3430127 78.4127337,97.4630127 C77.948528,97.5792152 77.5057003,97.7736456 77.1056283,98.0341519 C76.7124278,98.2901013 76.361983,98.6098481 76.0718545,98.9766835 C75.777145,99.3480759 75.5450422,99.7673165 75.387762,100.213139 C75.2266643,100.667316 75.1457337,101.148076 75.1442067,101.629595 C75.1426797,102.114911 75.2228468,102.600228 75.383181,103.058203 C75.5374072,103.500987 75.766456,103.917949 76.0558211,104.287063 C76.3444226,104.656937 76.6925769,104.977443 77.0850139,105.235671 C77.4850859,105.499215 77.9279136,105.696684 78.3928828,105.815924 C78.8693044,105.938203 79.3663404,105.978456 79.8565049,105.936684 C80.33369,105.895671 80.8040036,105.774911 81.2422504,105.580481 C81.2880602,105.560734 81.3331064,105.534152 81.3827337,105.524278 C81.424726,105.515924 81.4682452,105.518203 81.5087105,105.531114 C81.5904046,105.556937 81.6545383,105.623013 81.6774432,105.704278 C81.7003481,105.784025 81.6812607,105.872127 81.6270524,105.935924 C81.5965126,105.973139 81.5575743,105.995165 81.514055,106.014911 C81.4613738,106.039215 81.4086925,106.062 81.3552478,106.084785 C80.9101296,106.270861 80.436762,106.389342 79.9565229,106.43643 C79.4678853,106.484278 78.9716129,106.458456 78.4906103,106.358962 C78.55169,106.431873 78.6104792,106.506304 78.6662144,106.583013 C78.7234766,106.661241 78.7784483,106.740987 78.8303661,106.822253 C78.8372375,106.834405 78.8586154,106.867063 78.8586154,106.867063 C78.8586154,106.867063 78.8677774,106.867823 78.8830473,106.870101 C78.9074792,106.87238 78.9326746,106.875418 78.9571064,106.877696 C79.0067337,106.883013 79.0563609,106.88681 79.1067517,106.890608 C79.3090781,106.904278 79.5121681,106.907316 79.7152581,106.898203 C80.1153301,106.880734 80.5138751,106.818456 80.8994406,106.711367 C81.2735537,106.608076 81.6362144,106.463013 81.9782607,106.279975 C82.312672,106.101494 82.6279959,105.886557 82.9165974,105.640481 C82.9876026,105.579722 83.0578442,105.516684 83.1257954,105.452127 C83.1861116,105.395165 83.2403198,105.329848 83.3159059,105.291873 C83.4472272,105.225797 83.6098519,105.241747 83.7259033,105.332886 C83.8419548,105.424025 83.8953995,105.578203 83.8602787,105.720987 C83.8427183,105.794658 83.8030165,105.856937 83.7495717,105.910101 C83.6823841,105.976177 83.6144329,106.040734 83.5449548,106.103772 C83.2639882,106.356684 82.9601167,106.583772 82.6371578,106.780481 C82.3088545,106.980228 81.9622272,107.148835 81.6018571,107.283266 C81.2323249,107.420734 80.8482864,107.522506 80.4589033,107.585544 C80.0573044,107.650861 79.6495974,107.675165 79.242654,107.659215 C79.2754843,107.749595 79.3052607,107.839975 79.331983,107.931873 C79.344199,107.972886 79.3548879,108.013139 79.3655769,108.054152 C79.3693943,108.067063 79.3793198,108.106557 79.3793198,108.106557 L79.4594869,108.107316 Z" id="Fill-61" fill="#FFFFFF" sketch:type="MSShapeGroup" mask="url(#mask-4)"></path>
                <path d="M83.3667548,106.823772 C82.9735542,107.116177 82.5467599,107.365291 82.0970607,107.562 C81.8718293,107.660734 81.6412535,107.746557 81.4060967,107.818709 C81.2877548,107.855165 81.1686494,107.888582 81.048017,107.918203 C80.9960992,107.931114 80.941891,107.938709 80.8953177,107.96757 C80.8556159,107.991114 80.8235491,108.026051 80.8021712,108.067823 C80.7563614,108.155165 80.7678139,108.265291 80.8296571,108.342 C80.9006622,108.430101 81.0075517,108.449089 81.1129141,108.424025 C81.3511249,108.367823 81.5862817,108.298709 81.8176211,108.217443 C82.2818267,108.054911 82.7277085,107.842253 83.1468679,107.585544 C83.2507033,107.521747 83.3537753,107.454911 83.4545568,107.385038 C83.5057111,107.350101 83.5568653,107.314405 83.607256,107.27719 C83.6515388,107.245291 83.6988756,107.214911 83.7301789,107.169342 C83.7851506,107.089595 83.7882046,106.982506 83.7393409,106.898962 C83.6904771,106.815418 83.5950401,106.766051 83.4988396,106.774405 C83.4507393,106.778203 83.4049296,106.795671 83.3667548,106.823772 C82.6475414,107.359215 83.4797522,106.740228 83.3667548,106.823772" id="Fill-62" fill="#FFFFFF" sketch:type="MSShapeGroup" mask="url(#mask-4)"></path>
                <path d="M84.211945,106.073089 C84.1455208,106.143722 84.0775697,106.212076 84.007328,106.279671 C83.9500658,106.335114 83.8866956,106.384481 83.8630272,106.463468 C83.8202715,106.608532 83.917999,106.762709 84.0684077,106.786253 C84.1562098,106.799165 84.2340864,106.765747 84.2966931,106.706506 C84.3661712,106.64119 84.4341224,106.574354 84.50131,106.506 C84.5578087,106.447519 84.6234694,106.392076 84.6440838,106.310051 C84.6616442,106.244734 84.6509553,106.173342 84.615071,106.114861 C84.5287959,105.974354 84.3257059,105.953089 84.211945,106.073089 C84.1226159,106.168025 84.3081455,105.971316 84.211945,106.073089" id="Fill-63" fill="#FFFFFF" sketch:type="MSShapeGroup" mask="url(#mask-4)"></path>
                <path d="M82.619063,104.612051 C82.4602558,104.77838 82.2922866,104.931797 82.1075206,105.069266 C82.0563663,105.107241 82.0052121,105.143696 81.9532943,105.180911 C81.9105386,105.211291 81.8769447,105.249266 81.8570938,105.298633 C81.817392,105.398886 81.8464049,105.515848 81.928099,105.585722 C82.025063,105.667747 82.1563843,105.660152 82.2556388,105.588759 C82.3526028,105.520405 82.4488033,105.450532 82.5411864,105.376101 C82.6289884,105.306987 82.712973,105.233316 82.7939036,105.156608 C82.8404769,105.111797 82.8870501,105.066228 82.9320964,105.019899 C82.9748522,104.976608 83.019135,104.935595 83.0420398,104.877873 C83.0847956,104.766228 83.0412763,104.635595 82.9397314,104.571797 C82.8381864,104.508759 82.7015206,104.525468 82.619063,104.612051 C82.3739807,104.868 82.716027,104.510278 82.619063,104.612051" id="Fill-64" fill="#FFFFFF" sketch:type="MSShapeGroup" mask="url(#mask-4)"></path>
                <path d="M79.4846059,99.9943291 C79.1417961,99.9943291 78.8035674,100.101418 78.5248913,100.298886 C78.2523231,100.491797 78.0423617,100.765975 77.9278373,101.078127 C77.8087319,101.401671 77.7957524,101.761671 77.890426,102.09357 C77.9820455,102.413316 78.172156,102.701165 78.4294542,102.913063 C78.6905699,103.128 79.0173463,103.259392 79.3563386,103.285215 C79.7006753,103.311797 80.0488296,103.229772 80.3435391,103.052051 C80.6275596,102.880405 80.8566085,102.623696 80.9940378,102.322177 C81.1368116,102.008506 81.1772769,101.652304 81.1085622,101.314329 C81.042138,100.986228 80.8726419,100.68243 80.6298501,100.451544 C80.3862949,100.219139 80.0724979,100.064962 79.7388501,100.013316 C79.6548656,100.000405 79.569354,99.9943291 79.4846059,99.9943291" id="Fill-65" fill="#FFFFFF" sketch:type="MSShapeGroup" mask="url(#mask-4)"></path>
                <path d="M54.5577548,68.980557 C54.5577548,68.980557 51.0120787,71.6623291 49.1239527,75.7749873 C49.1239527,75.7749873 59.7075362,85.3354937 63.215801,86.0851139 C66.5232663,86.791443 68.7045748,82.1403038 72.4495234,82.7972658 C76.1608781,83.4473924 75.8562432,91.8367595 75.8562432,91.8367595 L79.8126802,91.8367595 C79.8126802,91.8367595 78.7644,85.3377722 80.2180967,83.4473924 C81.6832458,81.5441013 84.812053,83.259038 85.7618422,85.1767595 C85.7618422,85.1767595 90.7909913,78.0041013 91.3888087,73.6180253 C91.9866262,69.2319494 87.8645105,68.1337215 87.8645105,68.1337215 C87.8645105,68.1337215 82.3383254,77.432962 75.4508267,77.8096709 C64.3931121,78.4157468 62.2453974,76.6278987 54.5577548,68.980557" id="Fill-66" fill="#FFFFFF" sketch:type="MSShapeGroup" mask="url(#mask-4)"></path>
                <path d="M77.1022689,90.5971899 L78.3879964,90.5971899 C78.1352792,88.3513671 77.9184463,84.398962 79.2286057,82.6946582 C79.9669064,81.7361772 81.0671044,81.2812405 82.3245825,81.397443 C83.4881506,81.5113671 84.7311224,82.1501013 85.6816751,83.0455443 C87.1239193,80.797443 89.7556905,76.3726329 90.153472,73.4516203 C90.4527625,71.2612405 89.2349861,70.1721266 88.3516211,69.6784557 C86.691017,72.1445316 81.7084411,78.7080759 75.5180144,79.0475696 C64.4671712,79.6521266 61.7155311,77.800481 54.4951481,70.6680759 C53.514819,71.5657975 51.8549784,73.2701013 50.6608704,75.4817468 C54.7478653,79.1098481 61.2910272,84.4057975 63.4769167,84.8728861 C64.5671892,85.122 65.6322663,84.3647848 66.8676031,83.5057975 C68.372454,82.4554177 70.2384386,81.1506076 72.6663563,81.5766835 C76.4197033,82.2351646 77.0259193,87.9252911 77.1022689,90.5971899 M79.8126802,93.0754177 L75.8562432,93.0754177 C75.5180144,93.0754177 75.1950555,92.9379494 74.9598987,92.6979494 C74.7255054,92.4556709 74.5995285,92.1290886 74.6117445,91.7926329 C74.7155799,88.8427595 74.0307239,84.3306076 72.233454,84.0161772 C70.8141147,83.7738987 69.654364,84.5873165 68.2953409,85.5359241 C66.8019424,86.5749114 65.1062175,87.760481 62.9539219,87.2979494 C59.2265337,86.4997215 49.3949938,77.6941519 48.2871609,76.6923797 C47.885562,76.3293418 47.7649296,75.7506076 47.9916879,75.2592152 C49.9867033,70.9149114 53.6499578,68.1123797 53.8041841,67.9938987 C54.3004566,67.6187089 54.9990555,67.666557 55.4388293,68.1047848 C63.1058576,75.7293418 64.8748781,77.1427595 75.3821121,76.5738987 C81.5168036,76.237443 86.7406442,67.5890886 86.7933254,67.5025063 C87.0781095,67.0255443 87.6476776,66.8030127 88.1874694,66.9359241 C89.9793949,67.4151646 93.212801,69.460481 92.623382,73.7857975 C91.9919707,78.4133924 86.9948884,85.5822532 86.7834,85.8845316 C86.5306828,86.2452911 86.1107599,86.4511139 85.6671686,86.4123797 C85.2273949,86.3782025 84.8380118,86.1169367 84.6433203,85.7227595 C84.1982021,84.822 83.0010401,83.9554177 82.0817907,83.863519 C81.5878087,83.8278228 81.3495979,84.0207342 81.2068242,84.1999747 C80.5120427,85.1052911 80.5807573,88.7652911 81.0426725,91.6407342 C81.0999347,91.9984557 80.9976262,92.3637722 80.7601789,92.6402278 C80.5242586,92.9159241 80.1776314,93.0754177 79.8126802,93.0754177" id="Fill-67" fill="#415572" sketch:type="MSShapeGroup" mask="url(#mask-4)"></path>
                <path d="M70.9606296,77.905519 C70.9606296,77.905519 73.8199226,80.7991899 75.040753,85.6113418" id="Fill-68" fill="#FFFFFF" sketch:type="MSShapeGroup" mask="url(#mask-4)"></path>
                <path d="M75.0402185,86.8504557 C74.4828663,86.8504557 73.9759049,86.4752658 73.8331311,85.914 C72.7168997,81.5157722 70.0958175,78.7983038 70.0706221,78.7717215 C69.5911465,78.2826076 69.599545,77.4980506 70.0912365,77.0188101 C70.582928,76.5418481 71.3700925,76.549443 71.8495681,77.0362785 C71.975545,77.1638734 74.9600514,80.2284304 76.2495964,85.3086835 C76.4175656,85.9717215 76.0136761,86.6446329 75.347144,86.8117215 C75.2448355,86.8383038 75.141,86.8504557 75.0402185,86.8504557" id="Fill-69" fill="#415572" sketch:type="MSShapeGroup" mask="url(#mask-4)"></path>
                <path d="M79.5375925,89.4206582 C79.5375925,89.4206582 78.8993098,81.4429367 81.6830167,75.1642025" id="Fill-70" fill="#FFFFFF" sketch:type="MSShapeGroup" mask="url(#mask-4)"></path>
                <path d="M79.5366,90.6601519 C78.8929728,90.6601519 78.3478365,90.1687595 78.2959188,89.5201519 C78.2691964,89.1814177 77.665271,81.1550886 80.5436514,74.6644557 C80.8223275,74.0393924 81.5606283,73.7561013 82.1859316,74.032557 C82.8165794,74.3082532 83.1013635,75.0388861 82.8234509,75.6662278 C80.1962607,81.5887595 80.7734638,89.2467342 80.7795717,89.3219241 C80.8345434,90.0039494 80.3222375,90.6024304 79.636618,90.6555949 C79.6037877,90.6578734 79.5694303,90.6601519 79.5366,90.6601519" id="Fill-71" fill="#415572" sketch:type="MSShapeGroup" mask="url(#mask-4)"></path>
                <path d="M73.7144838,171.610253 C73.7144838,171.610253 79.4200905,172.036329 81.3738771,173.261392 C83.3276638,174.487215 69.7038386,173.472532 69.7038386,173.472532" id="Fill-72" fill="#FFFFFF" sketch:type="MSShapeGroup" mask="url(#mask-4)"></path>
                <path d="M78.1764316,175.122987 C76.2760897,175.122987 73.5488815,175.002228 69.6122954,174.709063 C68.9259123,174.655899 68.4113159,174.062734 68.4624702,173.380709 C68.5136244,172.695646 69.1129689,172.153367 69.7970614,172.235392 C70.768992,172.308304 71.7798609,172.37362 72.7800409,172.431342 C72.5654985,172.189823 72.4456296,171.865519 72.4723519,171.51919 C72.5227427,170.834127 73.1266681,170.338177 73.8077067,170.374633 C74.4230846,170.420203 79.8843725,170.862987 82.0374316,172.213367 C82.8093262,172.697924 82.9078172,173.399696 82.7436656,173.895646 C82.5306501,174.539696 82.3359586,175.122987 78.1764316,175.122987" id="Fill-73" fill="#415572" sketch:type="MSShapeGroup" mask="url(#mask-4)"></path>
                <path d="M96.464073,171.034025 C96.464073,171.034025 102.16968,171.460101 104.123466,172.685165 C106.077253,173.910987 92.4610627,172.896304 92.4610627,172.896304" id="Fill-74" fill="#FFFFFF" sketch:type="MSShapeGroup" mask="url(#mask-4)"></path>
                <path d="M100.928388,174.546987 C99.0295728,174.546987 96.303128,174.426228 92.3688324,174.133063 C91.6824494,174.079899 91.167853,173.486734 91.2190072,172.804709 C91.2701614,172.119646 91.8649249,171.581924 92.5535985,171.659392 C93.5217116,171.732304 94.531817,171.79762 95.5297064,171.853063 C95.315164,171.613823 95.1945316,171.289519 95.221254,170.94319 C95.2716447,170.258127 95.8793877,169.715848 96.5573722,169.798633 C97.1727501,169.844203 102.634038,170.286987 104.787097,171.637367 C105.558228,172.121924 105.657483,172.823696 105.492568,173.319646 C105.280316,173.963696 105.086388,174.546987 100.928388,174.546987" id="Fill-75" fill="#415572" sketch:type="MSShapeGroup" mask="url(#mask-4)"></path>
                <path d="M87.3505249,30.0387342 C91.1954915,33.7321519 93.4325352,39.0318987 93.0042139,44.7159494 L91.4879105,64.8394937 C90.7244144,74.9756962 81.9564247,80.0734177 71.7668051,79.3139241 C61.5771856,78.5544304 53.671183,72.2134177 54.4354427,62.0772152 L55.951746,41.9536709 C56.7098977,31.8888608 65.551183,24.2536709 75.6514735,24.8908861" id="Fill-76" fill="#FFFFFF" sketch:type="MSShapeGroup" mask="url(#mask-4)"></path>
                <path d="M73.7177668,80.6253418 C73.0428362,80.6253418 72.3610342,80.601038 71.6731242,80.5501519 C66.2660445,80.1461013 61.4613632,78.2147089 58.1409185,75.1144557 C54.5120213,71.7233165 52.80179,67.1853418 53.1934635,61.9866076 L54.7090033,41.8607848 C55.5167823,31.1412911 64.9535946,22.9942025 75.7295792,23.6526835 C76.4159622,23.6959747 76.9381936,24.2845823 76.8939108,24.9673671 C76.8503915,25.6516709 76.2311961,26.2061013 75.5715355,26.1263544 C66.1423581,25.5240759 57.8988902,32.6731899 57.1934198,42.0453418 L55.6778799,62.1704051 C55.3442321,66.5967342 56.7857129,70.4481266 59.8465689,73.3083797 C62.7531987,76.0220506 67.0196152,77.7157215 71.8601807,78.076481 C80.4731807,78.7326835 89.4854892,74.8478734 90.2459314,64.7481266 L91.7614712,44.6253418 C92.1462733,39.5131899 90.2230265,34.5202785 86.4857129,30.9286329 C85.9902039,30.4539494 85.9772244,29.6693924 86.453646,29.1757215 C86.9331216,28.6843291 87.7241036,28.6729367 88.2150316,29.1468608 C92.489083,33.2519241 94.6864249,38.9617975 94.2458877,44.8091392 L92.7303478,64.9319241 C92.3386743,70.1329367 89.9657283,74.3686329 85.8695715,77.1833165 C82.598754,79.4298987 78.342263,80.6253418 73.7177668,80.6253418" id="Fill-77" fill="#415572" sketch:type="MSShapeGroup" mask="url(#mask-4)"></path>
                <path d="M89.4227298,21.5482785 C86.5672542,23.8465063 81.4251077,25.1908101 75.619483,24.8801772" id="Fill-78" fill="#FFFFFF" sketch:type="MSShapeGroup" mask="url(#mask-4)"></path>
                <path d="M77.2823013,26.1650886 C76.7104427,26.1650886 76.1340031,26.1483797 75.552219,26.116481 C74.8650725,26.0800253 74.3382602,25.4967342 74.374908,24.8124304 C74.4123193,24.1273671 75.0047923,23.5342025 75.6858308,23.6428101 C80.995183,23.9139494 85.942638,22.7526835 88.6385429,20.5858481 C89.1752807,20.1529367 89.9586278,20.238 90.3907666,20.7704051 C90.8236689,21.3028101 90.7412113,22.0820506 90.2060005,22.5126835 C87.3138771,24.8390127 82.5695121,26.1650886 77.2823013,26.1650886" id="Fill-79" fill="#415572" sketch:type="MSShapeGroup" mask="url(#mask-4)"></path>
                <path d="M97.7668265,25.9102025 C94.9113509,28.2084304 89.7692044,29.5527342 83.9635797,29.2421013" id="Fill-80" fill="#FFFFFF" sketch:type="MSShapeGroup" mask="url(#mask-4)"></path>
                <path d="M85.626627,30.526557 C85.0547684,30.526557 84.4783288,30.5098481 83.8965447,30.4779494 C83.2093982,30.4414937 82.6825859,29.8582025 82.7192337,29.1738987 C82.7558815,28.4911139 83.344537,27.9511139 84.0301566,28.0042785 C89.3334008,28.2754177 94.2862003,27.1164304 96.9828686,24.9473165 C97.5196064,24.5144051 98.3029535,24.6017468 98.7350923,25.1318734 C99.1679946,25.6642785 99.085537,26.443519 98.5503262,26.8741519 C95.6582028,29.200481 90.9138378,30.526557 85.626627,30.526557" id="Fill-81" fill="#415572" sketch:type="MSShapeGroup" mask="url(#mask-4)"></path>
                <path d="M94.0634884,130.698911 L50.2334653,131.163722 C49.6211414,131.169797 49.1187609,130.681443 49.112653,130.07157 C49.1057815,129.461696 49.597473,128.961949 50.2105604,128.955873 L50.2334653,128.955873 L94.0634884,129.420684 C94.4185141,129.424481 94.7032982,129.713089 94.6994807,130.066253 C94.6956632,130.414861 94.4116427,130.695114 94.0634884,130.698911" id="Fill-82" fill="#415572" sketch:type="MSShapeGroup" mask="url(#mask-4)"></path>
                <path d="M55.1928308,52.0219747 C55.1928308,52.0219747 51.9838566,46.3121013 49.3452139,48.2753924 C45.9850674,50.7764051 50.9638257,55.9280506 54.8087923,57.1204557 L55.1928308,52.0219747 Z" id="Fill-83" fill="#FFFFFF" sketch:type="MSShapeGroup" mask="url(#mask-4)"></path>
                <path d="M50.5339774,49.1027848 C50.3782242,49.1027848 50.2423219,49.1559494 50.0911496,49.2675949 C49.5788437,49.6496203 49.4047666,50.0688608 49.5086021,50.6734177 C49.7689542,52.1817722 51.6471548,54.1708861 53.6971419,55.2964557 L53.9223733,52.3146835 C53.1298643,51.0220253 51.7349568,49.3397468 50.708818,49.1248101 C50.6469748,49.1103797 50.5897126,49.1027848 50.5339774,49.1027848 M54.8087923,58.3602532 C54.6851059,58.3602532 54.5598925,58.3412658 54.4377332,58.3048101 C51.3700057,57.3516456 47.5815378,54.1564557 47.0531985,51.0926582 C46.7905558,49.5721519 47.340273,48.2194937 48.6000416,47.283038 C49.3780442,46.7020253 50.2835506,46.4908861 51.2287589,46.6997468 C53.8758,47.2587342 56.0426021,50.9931646 56.2808129,51.416962 C56.3999183,51.6296203 56.453363,51.8718987 56.4358026,52.1134177 L56.0510005,57.2134177 C56.0227512,57.5908861 55.8234787,57.9349367 55.5081548,58.1475949 C55.3004838,58.2881013 55.056165,58.3602532 54.8087923,58.3602532" id="Fill-84" fill="#415572" sketch:type="MSShapeGroup" mask="url(#mask-4)"></path>
                <path d="M81.4086162,69.7184051 C81.4086162,69.7184051 79.7961123,72.9295443 74.509665,72.5695443 C68.6254003,72.1685316 67.0609967,67.8082785 67.0609967,67.8082785" id="Fill-85" fill="#FFFFFF" sketch:type="MSShapeGroup" mask="url(#mask-4)"></path>
                <path d="M75.3236283,73.8387342 C75.0350267,73.8387342 74.7357362,73.8288608 74.4242298,73.8075949 C67.8016643,73.3549367 65.9624021,68.4341772 65.8883429,68.2237975 C65.6554766,67.5797468 65.9937054,66.8703797 66.6426771,66.6402532 C67.2916488,66.4032911 68.0024638,66.7450633 68.2338031,67.3906329 C68.2857208,67.5288608 69.6493249,70.9974684 74.595253,71.3339241 C78.8990807,71.6073418 80.2466514,69.2521519 80.3031501,69.1503797 C80.6238185,68.5526582 81.3773892,68.3134177 81.9782607,68.6278481 C82.5814226,68.94 82.8272684,69.6683544 82.5233969,70.2736709 C82.4462838,70.4263291 80.6681013,73.8387342 75.3236283,73.8387342" id="Fill-86" fill="#415572" sketch:type="MSShapeGroup" mask="url(#mask-4)"></path>
                <path d="M113.775203,101.234658 C113.57593,101.234658 113.373604,101.186051 113.186547,101.087316 C101.757774,94.9711139 92.8347941,77.3797215 92.4614445,76.6338987 C92.1537555,76.0217468 92.4041823,75.2766835 93.0195602,74.9713671 C93.6326476,74.6637722 94.3831643,74.9159241 94.6900897,75.5257975 C94.7786553,75.7027595 103.637501,93.1627595 114.366149,98.9037722 C114.972365,99.2280759 115.199887,99.9807342 114.873874,100.583772 C114.648642,100.997696 114.219558,101.234658 113.775203,101.234658" id="Fill-87" fill="#415572" sketch:type="MSShapeGroup" mask="url(#mask-4)"></path>
                <path d="M111.623289,81.4027595 C120.197351,80.557443 134.398379,95.3387089 134.398379,95.3387089 C134.398379,95.3387089 111.742394,109.110608 102.01469,125.850608 L80.3031501,107.895418 C80.3031501,107.895418 103.049227,82.2480759 111.623289,81.4027595" id="Fill-88" fill="#FFFFFF" sketch:type="MSShapeGroup" mask="url(#mask-4)"></path>
                <path d="M82.0901129,107.762278 L101.69364,123.971392 C110.47919,109.863038 127.515843,98.2724051 132.425123,95.1136709 C127.853308,90.6235443 117.776686,81.9660759 111.74583,82.6367089 C105.392779,83.2610127 88.9501257,100.15519 82.0901129,107.762278 M102.015072,127.089114 C101.72647,127.089114 101.443977,126.98962 101.217982,126.802785 L79.5064419,108.849114 C79.2483802,108.633418 79.086519,108.323544 79.0605602,107.990127 C79.0353648,107.655949 79.1460717,107.326329 79.3690126,107.074937 C81.7297427,104.412152 102.692293,81.0364557 111.499984,80.1675949 C120.540542,79.3936709 134.702632,93.8597468 135.298159,94.4817722 C135.558511,94.7529114 135.681434,95.1281013 135.633334,95.4987342 C135.58447,95.8708861 135.369164,96.2005063 135.047732,96.3964557 C134.824028,96.5316456 112.546738,110.201772 103.093892,126.469367 C102.909889,126.786076 102.595329,127.006329 102.233432,127.069367 C102.160899,127.081519 102.087604,127.089114 102.015072,127.089114" id="Fill-89" fill="#415572" sketch:type="MSShapeGroup" mask="url(#mask-4)"></path>
                <path d="M126.49543,103.986532 C125.506703,103.986532 124.502705,103.700962 123.965204,103.519443 C123.313942,103.29919 122.966551,102.597418 123.186438,101.94881 C123.406325,101.302481 124.120957,100.961468 124.764585,101.171848 C125.380726,101.377671 126.054893,101.571342 126.573307,101.510582 C126.070926,99.7508354 123.211633,99.3247595 123.181857,99.3202025 C122.501582,99.2229873 122.026687,98.5986835 122.120597,97.9212152 C122.216798,97.2460253 122.831412,96.7493165 123.520849,96.865519 C123.730047,96.8928608 128.642381,97.6037468 129.105824,101.49843 C129.234091,102.570835 128.701934,103.173114 128.373631,103.437418 C127.864379,103.848304 127.184104,103.986532 126.49543,103.986532" id="Fill-90" fill="#415572" sketch:type="MSShapeGroup" mask="url(#mask-4)"></path>
                <path d="M108.792169,94.7747089 C108.535634,94.7747089 108.276046,94.694962 108.053868,94.5324304 L102.447516,90.4182532 C101.893981,90.0111646 101.776403,89.2372405 102.184873,88.6850886 C102.594107,88.1359747 103.37211,88.0197722 103.927171,88.4238228 L109.53276,92.538 C110.086295,92.9450886 110.204637,93.7197722 109.796166,94.2711646 C109.551084,94.6007848 109.173917,94.7747089 108.792169,94.7747089" id="Fill-91" fill="#E6E7E8" sketch:type="MSShapeGroup" mask="url(#mask-4)"></path>
                <path d="M101.611182,82.7713671 L111.477079,92.7944051 C111.881732,93.2060506 111.874861,93.8660506 111.461046,94.2693418 C111.054866,94.665038 110.406658,94.6642785 109.999714,94.2738987 L99.8559046,84.5295949 C99.3603956,84.0541519 99.3466527,83.2695949 99.8246013,82.777443 C100.30255,82.2852911 101.091241,82.2716203 101.58675,82.7470633 C101.593622,82.7538987 101.604311,82.7645316 101.611182,82.7713671" id="Fill-92" fill="#A7A9AC" sketch:type="MSShapeGroup" mask="url(#mask-4)"></path>
                <path d="M81.8967193,104.998253 C69.5899249,104.998253 61.0502206,94.4990127 60.6402231,93.9855949 C60.2126653,93.4509114 60.3027578,92.6716709 60.8410226,92.2455949 C61.3785239,91.8240759 62.161871,91.9091392 62.5901923,92.4438228 C62.6955548,92.5767342 73.3020432,105.576987 87.0686422,101.815215 C96.7604622,99.1676203 102.113334,91.0083797 102.166015,90.9286329 C102.22175,90.8412911 102.287411,90.7615443 102.362997,90.6939494 C103.915185,89.2440759 107.825048,87.2693924 111.508917,90.1417975 C112.048709,90.5655949 112.144146,91.3448354 111.718115,91.882557 C111.293611,92.4217975 110.512555,92.5114177 109.968946,92.0929367 C107.314269,90.0142025 104.756557,91.9114177 104.163321,92.4172405 C103.332637,93.6423038 97.7033799,101.478759 87.7275393,104.206861 C85.708092,104.759013 83.7588864,104.998253 81.8967193,104.998253" id="Fill-93" fill="#415572" sketch:type="MSShapeGroup" mask="url(#mask-4)"></path>
                <path d="M145.082668,104.257747 C145.082668,104.257747 165.505426,111.134962 183.414755,106.445848 C201.325611,101.757494 198.811418,91.756481 198.811418,91.756481 C198.811418,91.756481 189.385295,91.4435696 184.672233,85.1929367 C184.672233,85.1929367 165.505426,96.4455949 151.680801,85.1929367 C151.680801,85.1929367 145.396465,91.4435696 145.082668,104.257747" id="Fill-94" fill="#D1D3D4" sketch:type="MSShapeGroup" mask="url(#mask-4)"></path>
                <path d="M146.162022,99.5816203 C146.162022,99.5816203 166.58478,106.458835 184.49411,101.769722 C202.404966,97.0813671 199.890773,87.0803544 199.890773,87.0803544 C199.890773,87.0803544 190.464649,86.767443 185.751588,80.5168101 C185.751588,80.5168101 166.58478,91.7694684 152.760156,80.5168101 C152.760156,80.5168101 146.475819,86.767443 146.162022,99.5816203" id="Fill-95" fill="#FFFFFF" sketch:type="MSShapeGroup" mask="url(#mask-4)"></path>
                <path d="M147.442023,98.6811646 C151.509167,99.8963544 168.915352,104.569519 184.176877,100.571544 C197.709846,97.0277468 198.839057,90.5781266 198.77416,88.2373671 C196.194306,87.9662278 189.609915,86.8216709 185.441226,82.1014177 C181.400805,84.2120506 165.520849,91.4492658 152.940723,82.2252152 C151.410676,84.1976203 147.883324,89.6750886 147.442023,98.6811646 M170.641617,104.659139 C157.559111,104.659139 146.389926,100.965722 145.763095,100.755342 C145.246208,100.581418 144.903399,100.094582 144.916378,99.5523038 C145.238574,86.3933165 151.608422,79.9087595 151.880226,79.6406582 C152.331453,79.1902785 153.05372,79.1515443 153.549229,79.5578734 C166.526373,90.1201519 184.933502,79.5555949 185.118268,79.4492658 C185.664931,79.124962 186.366584,79.2700253 186.747568,79.7735696 C191.038417,85.4614177 199.846108,85.8388861 199.93391,85.8411646 C200.488208,85.8609114 200.965394,86.2429367 201.099005,86.7806582 C201.215057,87.2378734 203.694129,98.024962 184.812106,102.967747 C180.103625,104.199646 175.25237,104.659139 170.641617,104.659139" id="Fill-96" fill="#415572" sketch:type="MSShapeGroup" mask="url(#mask-4)"></path>
                <path d="M154.359298,95.8336709 C154.384494,95.7455696 154.402818,95.636962 154.42725,95.4805063 C154.493674,95.0658228 154.393656,94.6731646 153.963807,94.6063291 C153.553047,94.5417722 153.331633,94.8835443 153.259101,95.3407595 L153.210237,95.6536709 L154.359298,95.8336709 Z M152.550576,95.5518987 L152.597913,95.2511392 C152.673499,94.7696203 152.514692,94.4794937 152.212347,94.4308861 C151.903131,94.383038 151.703859,94.5926582 151.638962,95.0081013 C151.606895,95.2063291 151.600023,95.3232911 151.600787,95.4007595 L152.550576,95.5518987 Z M150.845689,96.2156962 C150.835,95.9665823 150.875466,95.4721519 150.947998,95.0149367 C151.037327,94.4551899 151.14498,94.1210127 151.367921,93.8559494 C151.563376,93.595443 151.874119,93.4351899 152.242887,93.4913924 C152.606311,93.5506329 152.910946,93.8126582 153.009437,94.2979747 L153.021653,94.2994937 C153.220926,93.8551899 153.626342,93.5658228 154.153154,93.6501266 C154.521923,93.7063291 154.786093,93.9205063 154.951771,94.2075949 C155.140355,94.5372152 155.19609,95.0513924 155.067059,95.8579747 C154.996054,96.3091139 154.913597,96.6425316 154.850226,96.843038 L150.845689,96.2156962 Z" id="Fill-97" fill="#415572" sketch:type="MSShapeGroup" mask="url(#mask-4)"></path>
                <path d="M151.706913,91.4306582 L155.71145,92.3853418 L155.492327,93.2898987 L151.489316,92.3321772 L151.706913,91.4306582 Z" id="Fill-98" fill="#415572" sketch:type="MSShapeGroup" mask="url(#mask-4)"></path>
                <path d="M151.947414,90.4203038 L152.238306,89.5408101 L155.39689,90.5752405 L155.908432,89.0319494 L156.649023,89.2742278 L155.846589,91.6977722 L151.947414,90.4203038 Z" id="Fill-99" fill="#415572" sketch:type="MSShapeGroup" mask="url(#mask-4)"></path>
                <path d="M153.146103,87.0299241 L153.592748,86.2111899 L156.532972,87.7932152 L157.313265,86.3570127 L158.002702,86.7284051 L156.776527,88.9863797 L153.146103,87.0299241 Z" id="Fill-100" fill="#415572" sketch:type="MSShapeGroup" mask="url(#mask-4)"></path>
                <path d="M161.728487,88.1350633 C161.728487,88.1350633 160.518346,92.0297468 160.170955,97.4320253" id="Fill-101" fill="#FFFFFF" sketch:type="MSShapeGroup" mask="url(#mask-4)"></path>
                <path d="M160.172024,98.3616456 C160.151409,98.3616456 160.131558,98.3616456 160.110944,98.3593671 C159.596348,98.3274684 159.204674,97.8846835 159.239031,97.3720253 C159.589476,91.9234177 160.785111,88.0241772 160.834738,87.8624051 C160.987438,87.3732911 161.517304,87.1097468 162.002887,87.2472152 C162.495342,87.3998734 162.773255,87.9201266 162.621319,88.4092405 C162.609103,88.4479747 161.439427,92.2743038 161.102725,97.4927848 C161.071422,97.9841772 160.659898,98.3616456 160.172024,98.3616456" id="Fill-102" fill="#415572" sketch:type="MSShapeGroup" mask="url(#mask-4)"></path>
                <path d="M165.688665,88.1350633 C165.688665,88.1350633 164.478524,92.0297468 164.131133,97.4320253" id="Fill-103" fill="#FFFFFF" sketch:type="MSShapeGroup" mask="url(#mask-4)"></path>
                <path d="M164.133118,98.3616456 C164.112504,98.3616456 164.092653,98.3616456 164.072038,98.3593671 C163.557442,98.3274684 163.167295,97.8846835 163.200126,97.3743038 C163.549043,91.9234177 164.746205,88.0241772 164.795833,87.8624051 C164.948532,87.3732911 165.479925,87.1097468 165.963982,87.2472152 C166.457964,87.3998734 166.734349,87.9201266 166.582414,88.4092405 C166.570198,88.4479747 165.399758,92.2743038 165.06382,97.4905063 C165.032516,97.9841772 164.622519,98.3616456 164.133118,98.3616456" id="Fill-104" fill="#415572" sketch:type="MSShapeGroup" mask="url(#mask-4)"></path>
                <path d="M169.276486,88.1350633 C169.276486,88.1350633 169.001628,89.0198734 168.676378,90.5320253" id="Fill-105" fill="#FFFFFF" sketch:type="MSShapeGroup" mask="url(#mask-4)"></path>
                <path d="M168.676913,91.4612658 C168.611252,91.4612658 168.545591,91.4536709 168.479931,91.4392405 C167.97526,91.3329114 167.653828,90.8392405 167.762244,90.3356962 C168.098946,88.7749367 168.38373,87.8597468 168.38373,87.8597468 C168.537956,87.3736709 169.061715,87.1093671 169.552643,87.2475949 C170.045861,87.4002532 170.321483,87.9205063 170.169548,88.4088608 C170.162676,88.4308861 169.900797,89.283038 169.58929,90.7253165 C169.49538,91.1635443 169.107524,91.4612658 168.676913,91.4612658" id="Fill-106" fill="#415572" sketch:type="MSShapeGroup" mask="url(#mask-4)"></path>
                <path d="M167.969762,94.7472152 C167.867454,95.5872152 167.780415,96.4872152 167.719336,97.4320253" id="Fill-107" fill="#FFFFFF" sketch:type="MSShapeGroup" mask="url(#mask-4)"></path>
                <path d="M167.72071,98.3616456 C167.700096,98.3616456 167.680245,98.3616456 167.65963,98.3593671 C167.145034,98.3274684 166.754887,97.8846835 166.787718,97.3720253 C166.849561,96.4082278 166.937363,95.4907595 167.042725,94.6340506 C167.106096,94.1282278 167.585571,93.7629114 168.083371,93.8259494 C168.595677,93.8889873 168.960628,94.3507595 168.897258,94.8618987 C168.796476,95.6844304 168.710965,96.5631646 168.651412,97.4927848 C168.620108,97.9841772 168.208584,98.3616456 167.72071,98.3616456" id="Fill-108" fill="#415572" sketch:type="MSShapeGroup" mask="url(#mask-4)"></path>
                <path d="M178.390416,86.724 L180.881704,96.6376709" id="Fill-109" fill="#FFFFFF" sketch:type="MSShapeGroup" mask="url(#mask-4)"></path>
                <path d="M180.880177,97.5678228 C180.461781,97.5678228 180.080796,97.2868101 179.975434,96.8637722 L177.483383,86.9501013 C177.358169,86.4511139 177.662041,85.9475696 178.163658,85.8222532 C178.662221,85.7151646 179.170709,86.0007342 179.295922,86.4997215 L181.787974,96.4133924 C181.913187,96.9116203 181.608552,97.4151646 181.107699,97.5412405 C181.032113,97.5579494 180.955763,97.5678228 180.880177,97.5678228" id="Fill-110" fill="#415572" sketch:type="MSShapeGroup" mask="url(#mask-4)"></path>
                <path d="M181.9719,85.5282532 L183.788257,91.6566076" id="Fill-111" fill="#FFFFFF" sketch:type="MSShapeGroup" mask="url(#mask-4)"></path>
                <path d="M183.788944,92.5867595 C183.385055,92.5867595 183.012469,92.3254937 182.8926,91.921443 L181.074716,85.7930886 C180.928888,85.2994177 181.212145,84.7837215 181.707654,84.6386582 C182.197819,84.490557 182.72234,84.7738481 182.868168,85.2652405 L184.685289,91.3935949 C184.83188,91.8872658 184.54786,92.402962 184.053114,92.5480253 C183.965312,92.5746076 183.876747,92.5867595 183.788944,92.5867595" id="Fill-112" fill="#415572" sketch:type="MSShapeGroup" mask="url(#mask-4)"></path>
            </g>
        </g>
    </g>
</svg>