<?xml version="1.0" encoding="UTF-8" standalone="no"?>
<svg width="43px" height="49px" viewBox="0 0 43 49" version="1.1" xmlns="http://www.w3.org/2000/svg" xmlns:xlink="http://www.w3.org/1999/xlink" xmlns:sketch="http://www.bohemiancoding.com/sketch/ns">
    <!-- Generator: Sketch 3.3.3 (12072) - http://www.bohemiancoding.com/sketch -->
    <title>layer1</title>
    <desc>Created with Sketch.</desc>
    <defs></defs>
    <g id="Page-1" stroke="none" stroke-width="1" fill="none" fill-rule="evenodd" sketch:type="MSPage">
        <g id="Desktop-HD-Copy" sketch:type="MSArtboardGroup" transform="translate(-701.000000, -129.000000)" fill="#FFFFFF">
            <g id="layer1" sketch:type="MSLayerGroup" transform="translate(701.000000, 129.000000)">
                <path d="M21.2583548,0.00344863174 L17.5453866,7.2899185 C17.1241249,8.08180185 16.3692767,8.00832191 15.6144225,7.56599363 L12.9262014,6.10148284 L14.92983,17.2932779 C15.3511075,19.337958 13.9994321,19.337958 13.3321402,18.4538715 L8.64101089,12.9280882 L7.87935524,15.7342288 C7.79156697,16.1027288 7.40542396,16.4897718 6.82601873,16.3976053 L0.893900485,15.0852961 L2.45199522,21.0455233 C2.78561809,22.371733 3.04569332,22.9208346 2.11527958,23.270621 L0.000934150338,24.316228 L10.212649,33.0437062 C10.6168045,33.3737275 10.8211356,33.9675587 10.6771331,34.5052373 L9.78337593,37.5912192 C13.2994631,37.1648174 16.4517468,36.7830927 19.9677441,36.3571705 C20.2802034,36.3531111 20.7982365,36.6325069 20.7960354,37.0111412 L20.3302539,48.3170568 L22.0397381,48.3170568 L21.7705947,37.035454 C21.7684701,36.6566718 22.238259,36.3531111 22.5507184,36.3571705 C26.0667157,36.7830927 29.2190017,37.1648174 32.735089,37.5912192 L31.841333,34.5052373 C31.6973305,33.9675587 31.9016604,33.3737275 32.3058159,33.0437062 L42.5175295,24.316228 L40.4031853,23.270621 C39.4727703,22.9208346 39.7328468,22.371733 40.0664684,21.0455233 L41.6245656,15.0852961 L35.6924449,16.3976053 C35.1130397,16.4897718 34.7268967,16.1027288 34.6391072,15.7342288 L33.8774516,12.9280882 L29.1863235,18.4538715 C28.5190304,19.337958 27.1673549,19.337958 27.5886324,17.2932779 L29.5922586,6.10148284 L26.9040412,7.56599363 C26.1491517,8.00832191 25.3943388,8.08180185 24.9730771,7.2899185" id="maple_leaf" sketch:type="MSShapeGroup"></path>
            </g>
        </g>
    </g>
</svg>