<?xml version="1.0" encoding="UTF-8" standalone="no"?>
<svg width="48px" height="48px" viewBox="0 0 48 48" version="1.1" xmlns="http://www.w3.org/2000/svg" xmlns:xlink="http://www.w3.org/1999/xlink" xmlns:sketch="http://www.bohemiancoding.com/sketch/ns">
    <!-- Generator: Sketch 3.3.3 (12072) - http://www.bohemiancoding.com/sketch -->
    <title>Group Copy</title>
    <desc>Created with Sketch.</desc>
    <defs></defs>
    <g id="Page-1" stroke="none" stroke-width="1" fill="none" fill-rule="evenodd" sketch:type="MSPage">
        <g id="Group-Copy" sketch:type="MSLayerGroup" transform="translate(-6.000000, -2.000000)">
            <g id="petal-link" transform="translate(18.306569, 0.000000)" sketch:type="MSShapeGroup">
                <g id="petal" transform="translate(9.105512, 13.820563) rotate(13.480000) translate(-9.105512, -13.820563) translate(2.864636, 1.213510)">
                    <path d="M10.8175182,24.9370277 C4.63670975,24.0140712 0.0629113642,18.7113699 0.0629113642,12.4685139 C0.0629113642,6.22565782 4.63670975,0.922956463 10.8175182,0 C9.06196734,1.4543898 8.33791437,4.15167292 10.5672157,6.22770819 C13.0124536,8.50483426 13.1068134,13.3173029 10.0109879,15.7893292 C7.59822301,17.7159296 6.40016789,22.4924812 10.8175182,24.9370277 L10.8175182,24.9370277 Z" id="Shape" fill="#FFFFFF"></path>
                    <g id="Group" transform="translate(4.160584, 8.312343)" fill="#DE2910">
                        <path d="M2.02229208,0.368137329 L3.77395203,3.79909071 L0.245836765,2.00698377 L4.20278723,1.47572033 L1.32842215,4.12742957 L2.02229208,0.368137329 L2.02229208,0.368137329 Z" id="star"></path>
                        <path d="M6.67137033,16.4267642 C1.41091753,14.7568455 -0.304580263,8.57134727 1.1956768,4.55637414 L0.852546642,4.43835675 C-0.62139292,8.16530069 0.770385927,14.9638065 6.58287501,16.7791422 L6.67137033,16.4267642 Z" id="Shape"></path>
                    </g>
                </g>
            </g>
            <g id="petal-link" transform="translate(40.956947, 21.315720) rotate(72.000000) translate(-40.956947, -21.315720) translate(31.873006, 7.531085)" sketch:type="MSShapeGroup">
                <g id="petal" transform="translate(9.105512, 13.820563) rotate(13.480000) translate(-9.105512, -13.820563) translate(2.864636, 1.213510)">
                    <path d="M10.8175182,24.9370277 C4.63670975,24.0140712 0.0629113642,18.7113699 0.0629113642,12.4685139 C0.0629113642,6.22565782 4.63670975,0.922956463 10.8175182,0 C9.06196734,1.4543898 8.33791437,4.15167292 10.5672157,6.22770819 C13.0124536,8.50483426 13.1068134,13.3173029 10.0109879,15.7893292 C7.59822301,17.7159296 6.40016789,22.4924812 10.8175182,24.9370277 L10.8175182,24.9370277 Z" id="Shape" fill="#FFFFFF"></path>
                    <g id="Group" transform="translate(4.160584, 8.312343)" fill="#DE2910">
                        <path d="M2.02229208,0.368137329 L3.77395203,3.79909071 L0.245836765,2.00698377 L4.20278723,1.47572033 L1.32842215,4.12742957 L2.02229208,0.368137329 L2.02229208,0.368137329 Z" id="star"></path>
                        <path d="M6.67137033,16.4267642 C1.41091753,14.7568455 -0.304580263,8.57134727 1.1956768,4.55637414 L0.852546642,4.43835675 C-0.62139292,8.16530069 0.770385927,14.9638065 6.58287501,16.7791422 L6.67137033,16.4267642 Z" id="Shape"></path>
                    </g>
                </g>
            </g>
            <g id="petal-link" transform="translate(16.028159, 24.346165) rotate(-72.000000) translate(-16.028159, -24.346165) translate(6.944218, 10.561530)" sketch:type="MSShapeGroup">
                <g id="petal" transform="translate(9.105512, 13.820563) rotate(13.480000) translate(-9.105512, -13.820563) translate(2.864636, 1.213510)">
                    <path d="M10.8175182,24.9370277 C4.63670975,24.0140712 0.0629113642,18.7113699 0.0629113642,12.4685139 C0.0629113642,6.22565782 4.63670975,0.922956463 10.8175182,0 C9.06196734,1.4543898 8.33791437,4.15167292 10.5672157,6.22770819 C13.0124536,8.50483426 13.1068134,13.3173029 10.0109879,15.7893292 C7.59822301,17.7159296 6.40016789,22.4924812 10.8175182,24.9370277 L10.8175182,24.9370277 Z" id="Shape" fill="#FFFFFF"></path>
                    <g id="Group" transform="translate(4.160584, 8.312343)" fill="#DE2910">
                        <path d="M2.02229208,0.368137329 L3.77395203,3.79909071 L0.245836765,2.00698377 L4.20278723,1.47572033 L1.32842215,4.12742957 L2.02229208,0.368137329 L2.02229208,0.368137329 Z" id="star"></path>
                        <path d="M6.67137033,16.4267642 C1.41091753,14.7568455 -0.304580263,8.57134727 1.1956768,4.55637414 L0.852546642,4.43835675 C-0.62139292,8.16530069 0.770385927,14.9638065 6.58287501,16.7791422 L6.67137033,16.4267642 Z" id="Shape"></path>
                    </g>
                </g>
            </g>
            <g id="petal-link" transform="translate(37.979114, 36.531717) rotate(144.000000) translate(-37.979114, -36.531717) translate(28.895173, 22.747082)" sketch:type="MSShapeGroup">
                <g id="petal" transform="translate(9.105512, 13.820563) rotate(13.480000) translate(-9.105512, -13.820563) translate(2.864636, 1.213510)">
                    <path d="M10.8175182,24.9370277 C4.63670975,24.0140712 0.0629113642,18.7113699 0.0629113642,12.4685139 C0.0629113642,6.22565782 4.63670975,0.922956463 10.8175182,0 C9.06196734,1.4543898 8.33791437,4.15167292 10.5672157,6.22770819 C13.0124536,8.50483426 13.1068134,13.3173029 10.0109879,15.7893292 C7.59822301,17.7159296 6.40016789,22.4924812 10.8175182,24.9370277 L10.8175182,24.9370277 Z" id="Shape" fill="#FFFFFF"></path>
                    <g id="Group" transform="translate(4.160584, 8.312343)" fill="#DE2910">
                        <path d="M2.02229208,0.368137329 L3.77395203,3.79909071 L0.245836765,2.00698377 L4.20278723,1.47572033 L1.32842215,4.12742957 L2.02229208,0.368137329 L2.02229208,0.368137329 Z" id="star"></path>
                        <path d="M6.67137033,16.4267642 C1.41091753,14.7568455 -0.304580263,8.57134727 1.1956768,4.55637414 L0.852546642,4.43835675 C-0.62139292,8.16530069 0.770385927,14.9638065 6.58287501,16.7791422 L6.67137033,16.4267642 Z" id="Shape"></path>
                    </g>
                </g>
            </g>
            <g id="petal-link" transform="translate(22.572276, 38.404635) rotate(216.000000) translate(-22.572276, -38.404635) translate(13.488334, 24.620000)" sketch:type="MSShapeGroup">
                <g id="petal" transform="translate(9.105512, 13.820563) rotate(13.480000) translate(-9.105512, -13.820563) translate(2.864636, 1.213510)">
                    <path d="M10.8175182,24.9370277 C4.63670975,24.0140712 0.0629113642,18.7113699 0.0629113642,12.4685139 C0.0629113642,6.22565782 4.63670975,0.922956463 10.8175182,0 C9.06196734,1.4543898 8.33791437,4.15167292 10.5672157,6.22770819 C13.0124536,8.50483426 13.1068134,13.3173029 10.0109879,15.7893292 C7.59822301,17.7159296 6.40016789,22.4924812 10.8175182,24.9370277 L10.8175182,24.9370277 Z" id="Shape" fill="#FFFFFF"></path>
                    <g id="Group" transform="translate(4.160584, 8.312343)" fill="#DE2910">
                        <path d="M2.02229208,0.368137329 L3.77395203,3.79909071 L0.245836765,2.00698377 L4.20278723,1.47572033 L1.32842215,4.12742957 L2.02229208,0.368137329 L2.02229208,0.368137329 Z" id="star"></path>
                        <path d="M6.67137033,16.4267642 C1.41091753,14.7568455 -0.304580263,8.57134727 1.1956768,4.55637414 L0.852546642,4.43835675 C-0.62139292,8.16530069 0.770385927,14.9638065 6.58287501,16.7791422 L6.67137033,16.4267642 Z" id="Shape"></path>
                    </g>
                </g>
            </g>
            <ellipse id="Oval" fill="#DE2910" sketch:type="MSShapeGroup" cx="28.9854015" cy="26.8765743" rx="0.554744526" ry="0.554156171"></ellipse>
        </g>
    </g>
</svg>