<?xml version="1.0" encoding="UTF-8" standalone="no"?>
<svg width="107px" height="28px" viewBox="0 0 107 28" version="1.1" xmlns="http://www.w3.org/2000/svg" xmlns:xlink="http://www.w3.org/1999/xlink" xmlns:sketch="http://www.bohemiancoding.com/sketch/ns">
    <!-- Generator: Sketch 3.3.2 (12043) - http://www.bohemiancoding.com/sketch -->
    <title>paypal_rgb@2x</title>
    <desc>Created with Sketch.</desc>
    <defs>
        <path id="path-1" d="M0,0.628587413 L105.65235,0.628587413 L105.65235,27.3820979 L0,27.3820979"></path>
        <path id="path-3" d="M0,0.628587413 L105.65235,0.628587413 L105.65235,27.3820979 L0,27.3820979"></path>
    </defs>
    <g id="Page-1" stroke="none" stroke-width="1" fill="none" fill-rule="evenodd" sketch:type="MSPage">
        <g id="Desktop-HD" sketch:type="MSArtboardGroup" transform="translate(-510.000000, -494.000000)">
            <g id="Group-Copy" sketch:type="MSLayerGroup" transform="translate(392.000000, 491.000000)">
                <g id="paypal_rgb" transform="translate(118.615385, 3.000000)">
                    <g id="Group-3">
                        <mask id="mask-2" sketch:name="Clip 2" fill="white">
                            <use xlink:href="#path-1"></use>
                        </mask>
                        <g id="Clip-2"></g>
                        <path d="M19.3357343,2.64925874 C18.0948671,1.23493706 15.8518182,0.628587413 12.9824056,0.628587413 L4.65436364,0.628587413 C4.06728671,0.628587413 3.56841958,1.05555245 3.4765035,1.63447552 L0.0088951049,23.6268811 C-0.060041958,24.0605175 0.275748252,24.4533846 0.715314685,24.4533846 L5.85668531,24.4533846 L7.14795804,16.2632168 L7.10793007,16.5196923 C7.19984615,15.9407692 7.69500699,15.5138042 8.28134266,15.5138042 L10.7245315,15.5138042 C15.5241818,15.5138042 19.2823636,13.5642937 20.3801678,7.9247972 C20.4127832,7.75801399 20.440951,7.59567832 20.4654126,7.43704895 C20.3267972,7.36366434 20.3267972,7.36366434 20.4654126,7.43704895 C20.7923077,5.35262937 20.4631888,3.93386014 19.3357343,2.64925874" id="Fill-1" fill="#A3A3A3" sketch:type="MSShapeGroup" mask="url(#mask-2)"></path>
                    </g>
                    <path d="M82.2782378,13.1143497 C81.9639441,15.178014 80.388028,15.178014 78.8632587,15.178014 L77.995986,15.178014 L78.6045594,11.324951 C78.6408811,11.0921958 78.8417622,10.920965 79.0774825,10.920965 L79.4755385,10.920965 C80.5133007,10.920965 81.4932448,10.920965 81.9987832,11.5117483 C82.3012168,11.8653287 82.3923916,12.3901399 82.2782378,13.1143497 M81.6148112,7.72984615 L75.8656084,7.72984615 C75.472,7.72984615 75.1376923,8.01597203 75.0761678,8.40439161 L72.7515804,23.1465455 C72.7056224,23.4371189 72.930965,23.7002657 73.2245035,23.7002657 L76.1747133,23.7002657 C76.4497203,23.7002657 76.683958,23.5001259 76.726951,23.2288252 L77.3866713,19.0488671 C77.4474545,18.6604476 77.7825035,18.3743217 78.1753706,18.3743217 L79.9944196,18.3743217 C83.7815105,18.3743217 85.9674825,16.5419301 86.5382517,12.909021 C86.7954685,11.3212448 86.5486294,10.072965 85.8051469,9.19902098 C84.9875385,8.23834965 83.5383776,7.72984615 81.6148112,7.72984615" id="Fill-4" fill="#D0D0D0" sketch:type="MSShapeGroup"></path>
                    <path d="M41.2718042,13.1143497 C40.9575105,15.178014 39.3815944,15.178014 37.8568252,15.178014 L36.9895524,15.178014 L37.5981259,11.324951 C37.6344476,11.0921958 37.8353287,10.920965 38.071049,10.920965 L38.4691049,10.920965 C39.5068671,10.920965 40.4868112,10.920965 40.9923497,11.5117483 C41.2947832,11.8653287 41.385958,12.3901399 41.2718042,13.1143497 M40.6083776,7.72984615 L34.8591748,7.72984615 C34.4655664,7.72984615 34.1312587,8.01597203 34.0697343,8.40439161 L31.7451469,23.1465455 C31.6991888,23.4371189 31.9237902,23.7002657 32.2180699,23.7002657 L34.9636923,23.7002657 C35.3565594,23.7002657 35.6908671,23.4141399 35.7523916,23.0264615 L36.3802378,19.0488671 C36.441021,18.6604476 36.7760699,18.3743217 37.1689371,18.3743217 L38.987986,18.3743217 C42.7750769,18.3743217 44.961049,16.5419301 45.5318182,12.909021 C45.789035,11.3212448 45.5421958,10.072965 44.7987133,9.19902098 C43.9811049,8.23834965 42.5319441,7.72984615 40.6083776,7.72984615" id="Fill-5" fill="#BDBCBC" sketch:type="MSShapeGroup"></path>
                    <path d="M53.9554825,18.4069371 C53.6893706,19.9798881 52.4410909,21.0361818 50.8481259,21.0361818 C50.0497902,21.0361818 49.4100839,20.778965 48.9994266,20.2926993 C48.5924755,19.8108811 48.439035,19.1237343 48.568014,18.3594965 C48.8155944,16.7998881 50.0846294,15.7102378 51.6531329,15.7102378 C52.4351608,15.7102378 53.0696783,15.9696783 53.4884895,16.4603916 C53.9102657,16.9548112 54.0763077,17.6456643 53.9554825,18.4069371 M57.7922378,13.0483776 L55.0392028,13.0483776 C54.8034825,13.0483776 54.6026014,13.2196084 54.5655385,13.4531049 L54.4447133,14.2225315 L54.2527273,13.9438182 C53.656014,13.0787692 52.3269371,12.7889371 51.0000839,12.7889371 C47.9586993,12.7889371 45.3605874,15.0942517 44.855049,18.3268811 C44.5919021,19.9398601 44.9654965,21.4809371 45.8802098,22.5565035 C46.7200559,23.5446014 47.9186713,23.956 49.3470769,23.956 C51.7991608,23.956 53.1586294,22.3815664 53.1586294,22.3815664 L53.0355804,23.1465455 C52.9896224,23.4371189 53.2142238,23.7002657 53.5092448,23.7002657 L55.988014,23.7002657 C56.3816224,23.7002657 56.7159301,23.4148811 56.7774545,23.0264615 L58.2659021,13.6020979 C58.3118601,13.3115245 58.0865175,13.0483776 57.7922378,13.0483776" id="Fill-6" fill="#BDBCBC" sketch:type="MSShapeGroup"></path>
                    <g id="Group-14">
                        <mask id="mask-4" sketch:name="Clip 8" fill="white">
                            <use xlink:href="#path-3"></use>
                        </mask>
                        <g id="Clip-8"></g>
                        <path d="M94.9619161,18.4069371 C94.6958042,19.9798881 93.4475245,21.0361818 91.8545594,21.0361818 C91.0562238,21.0361818 90.4165175,20.778965 90.0058601,20.2926993 C89.5981678,19.8108811 89.4454685,19.1237343 89.5744476,18.3594965 C89.822028,16.7998881 91.0910629,15.7102378 92.6595664,15.7102378 C93.4415944,15.7102378 94.0761119,15.9696783 94.4949231,16.4603916 C94.9166993,16.9548112 95.0827413,17.6456643 94.9619161,18.4069371 M98.7986713,13.0483776 L96.0456364,13.0483776 C95.8099161,13.0483776 95.609035,13.2196084 95.571972,13.4531049 L95.4511469,14.2225315 L95.2584196,13.9438182 C94.6624476,13.0787692 93.3333706,12.7889371 92.0065175,12.7889371 C88.9651329,12.7889371 86.367021,15.0942517 85.8614825,18.3268811 C85.5983357,19.9398601 85.9719301,21.4809371 86.8866434,22.5565035 C87.7264895,23.5446014 88.9251049,23.956 90.3535105,23.956 C92.8055944,23.956 94.1650629,22.3815664 94.1650629,22.3815664 L94.042014,23.1465455 C93.9960559,23.4371189 94.2206573,23.7002657 94.5156783,23.7002657 L96.9944476,23.7002657 C97.3880559,23.7002657 97.7223636,23.4148811 97.7838881,23.0264615 L99.2723357,13.6020979 C99.3182937,13.3115245 99.092951,13.0483776 98.7986713,13.0483776" id="Fill-7" fill="#D0D0D0" sketch:type="MSShapeGroup" mask="url(#mask-4)"></path>
                        <path d="M72.4550769,13.0483776 L69.687958,13.0483776 C69.4233287,13.0483776 69.1757483,13.1795804 69.0274965,13.398993 L65.210014,19.0206993 L63.5925874,13.6184056 C63.491035,13.2803916 63.1797063,13.0483776 62.8268671,13.0483776 L60.1071888,13.0483776 C59.7788112,13.0483776 59.5475385,13.3715664 59.6535385,13.6821538 L62.7001119,22.6261818 L59.8344056,26.6697483 C59.6098042,26.987007 59.8366294,27.4258322 60.2257902,27.4258322 L62.9899441,27.4258322 C63.2516084,27.4258322 63.496965,27.2975944 63.6466993,27.0826294 L72.8486853,13.8007552 C73.0688392,13.4827552 72.842014,13.0483776 72.4550769,13.0483776" id="Fill-9" fill="#BDBCBC" sketch:type="MSShapeGroup" mask="url(#mask-4)"></path>
                        <path d="M102.043161,8.13531469 L99.6837343,23.1472867 C99.6377762,23.4378601 99.8623776,23.701007 100.156657,23.701007 L102.530168,23.701007 C102.923035,23.701007 103.258084,23.4148811 103.318867,23.0264615 L105.645678,8.28430769 C105.691636,7.99373427 105.467035,7.73058741 105.172014,7.73058741 L102.516825,7.73058741 C102.280364,7.73058741 102.079483,7.90181818 102.043161,8.13531469" id="Fill-10" fill="#D0D0D0" sketch:type="MSShapeGroup" mask="url(#mask-4)"></path>
                        <path d="M19.3357343,2.64925874 C18.0948671,1.23493706 15.8518182,0.628587413 12.9824056,0.628587413 L4.65436364,0.628587413 C4.06728671,0.628587413 3.56841958,1.05555245 3.4765035,1.63447552 L0.0088951049,23.6268811 C-0.060041958,24.0605175 0.275748252,24.4533846 0.715314685,24.4533846 L5.85668531,24.4533846 L7.14795804,16.2632168 L7.10793007,16.5196923 C7.19984615,15.9407692 7.69500699,15.5138042 8.28134266,15.5138042 L10.7245315,15.5138042 C15.5241818,15.5138042 19.2823636,13.5642937 20.3801678,7.9247972 C20.4127832,7.75801399 20.440951,7.59567832 20.4654126,7.43704895 C20.3267972,7.36366434 20.3267972,7.36366434 20.4654126,7.43704895 C20.7923077,5.35262937 20.4631888,3.93386014 19.3357343,2.64925874" id="Fill-11" fill="#BDBCBC" sketch:type="MSShapeGroup" mask="url(#mask-4)"></path>
                        <path d="M8.53559441,7.46447552 C8.59044755,7.11608392 8.81430769,6.8306993 9.11525874,6.68615385 C9.25239161,6.62092308 9.40509091,6.5846014 9.5652028,6.5846014 L16.0942098,6.5846014 C16.8673427,6.5846014 17.5885874,6.63500699 18.2475664,6.74100699 C18.4365874,6.7713986 18.6196783,6.80623776 18.7975804,6.84626573 C18.9754825,6.88555245 19.1481958,6.93002797 19.3157203,6.97895105 C19.3994825,7.00341259 19.4817622,7.02861538 19.5625594,7.0553007 C19.8864895,7.16352448 20.1881818,7.28953846 20.4654126,7.43704895 C20.7923077,5.35188811 20.4631888,3.93386014 19.3357343,2.64925874 C18.0941259,1.23493706 15.8518182,0.628587413 12.9824056,0.628587413 L4.65362238,0.628587413 C4.06728671,0.628587413 3.56841958,1.05555245 3.4765035,1.63447552 L0.0088951049,23.6261399 C-0.060041958,24.0605175 0.275748252,24.4526434 0.714573427,24.4526434 L5.85668531,24.4526434 L8.53559441,7.46447552" id="Fill-12" fill="#BDBCBC" sketch:type="MSShapeGroup" mask="url(#mask-4)"></path>
                        <path d="M20.4654126,7.43704895 L20.4654126,7.43704895 C20.4402098,7.59641958 20.4127832,7.75801399 20.3801678,7.9247972 C19.2823636,13.5635524 15.5241818,15.5138042 10.7245315,15.5138042 L8.2806014,15.5138042 C7.69426573,15.5138042 7.1991049,15.9407692 7.10793007,16.5196923 L5.50162238,26.7031049 C5.44158042,27.0826294 5.73511888,27.4265734 6.11909091,27.4265734 L10.4532308,27.4265734 C10.9661818,27.4265734 11.4027832,27.052979 11.4828392,26.5466993 L11.5250909,26.3258042 L12.341958,21.1488531 L12.3945874,20.8627273 C12.4746434,20.3564476 12.9112448,19.9828531 13.4241958,19.9828531 L14.0727972,19.9828531 C18.2712867,19.9828531 21.5587692,18.2772168 22.5194406,13.3441399 C22.9204615,11.2826993 22.7129091,9.5614965 21.6521678,8.3525035 C21.3304615,7.98632168 20.9309231,7.68388811 20.4654126,7.43704895" id="Fill-13" fill="#D0D0D0" sketch:type="MSShapeGroup" mask="url(#mask-4)"></path>
                    </g>
                    <path d="M19.3164615,6.97895105 C19.1489371,6.93002797 18.9762238,6.88555245 18.7983217,6.84626573 C18.6204196,6.80697902 18.4365874,6.77213986 18.2483077,6.74174825 C17.5885874,6.63500699 16.8680839,6.5846014 16.0942098,6.5846014 L9.56594406,6.5846014 C9.40509091,6.5846014 9.25239161,6.62092308 9.116,6.6868951 C8.81430769,6.83144056 8.59118881,7.11608392 8.53633566,7.46521678 L7.1486993,16.2632168 L7.10867133,16.5196923 C7.19984615,15.9407692 7.69500699,15.5138042 8.28134266,15.5138042 L10.7252727,15.5138042 C15.5249231,15.5138042 19.2831049,13.5642937 20.3809091,7.9247972 C20.4135245,7.75801399 20.440951,7.59641958 20.4661538,7.43704895 C20.1881818,7.29027972 19.8872308,7.16352448 19.5633007,7.05604196 C19.4825035,7.02935664 19.4002238,7.00341259 19.3164615,6.97895105" id="Fill-15" fill="#AAAAAA" sketch:type="MSShapeGroup"></path>
                </g>
            </g>
        </g>
    </g>
</svg>