<?xml version="1.0" encoding="UTF-8"?>
<svg width="115px" height="50px" viewBox="0 0 115 50" version="1.1" xmlns="http://www.w3.org/2000/svg" xmlns:xlink="http://www.w3.org/1999/xlink">
    <!-- Generator: Sketch 46.2 (44496) - http://www.bohemiancoding.com/sketch -->
    <title>Artboard</title>
    <desc>Created with Sketch.</desc>
    <defs>
        <polygon id="path-1" points="8.0002 0.2 0.1002 0.2 0.1002 8.1999 8.0002 8.1999 8.0002 0.2"></polygon>
        <polygon id="path-3" points="0 47.8 112.6 47.8 112.6 1 0 1"></polygon>
    </defs>
    <g id="Page-1" stroke="none" stroke-width="1" fill="none" fill-rule="evenodd">
        <g id="Artboard">
            <g id="Page-1" transform="translate(1.000000, 1.000000)">
                <path d="M97.1998,22.2001 L105.1998,22.2001 C105.1998,18.7001 103.1998,17.2001 101.3008,17.2001 C99.3998,17.2001 97.1998,18.7001 97.1998,22.2001 Z M112.5998,25.2001 C112.5998,25.9001 112.5998,27.6001 112.4998,28.0001 L97.1998,28.0001 C97.5998,31.7001 100.3008,32.8001 103.3008,32.8001 C106.3998,32.8001 108.8998,32.2001 110.9998,31.1001 L110.9998,37.4001 C108.8008,38.6001 105.9998,39.4001 102.3008,39.4001 C94.5998,39.4001 89.3008,34.6001 89.3008,25.2001 C89.3008,17.2001 93.8998,10.9001 101.3008,10.9001 C108.6998,10.9001 112.5998,17.2001 112.5998,25.2001 Z" id="Fill-1" fill="#000000"></path>
                <path d="M75.4,32.3998 C73.6,32.3998 72.5,31.6998 71.7,30.8998 L71.7,19.2998 C72.5,18.3998 73.6,17.7998 75.4,17.7998 C78.2,17.7998 80.2,20.9998 80.2,25.0998 C80.2,29.2998 78.3,32.3998 75.4,32.3998 M77.3,10.7998 C74.2,10.7998 72.3,12.1998 71.2,13.1998 L70.8,11.2998 L63.9,11.2998 L63.9,47.7998 L71.7,46.0998 L71.7,37.1998 C72.8,38.0008 74.5,39.1998 77.2,39.1998 C82.8,39.1998 87.9,34.6998 87.9,24.7998 C87.9,15.7998 82.8,10.7998 77.3,10.7998" id="Fill-3" fill="#000000"></path>
                <g id="Group-7" transform="translate(53.000000, 0.800000)">
                    <mask id="mask-2" fill="white">
                        <use xlink:href="#path-1"></use>
                    </mask>
                    <g id="Clip-6"></g>
                    <polygon id="Fill-5" fill="#000000" mask="url(#mask-2)" points="0.1002 8.1999 8.0002 6.4999 8.0002 0.1999 0.1002 1.7999"></polygon>
                </g>
                <mask id="mask-4" fill="white">
                    <use xlink:href="#path-3"></use>
                </mask>
                <g id="Clip-9"></g>
                <polygon id="Fill-8" fill="#000000" mask="url(#mask-4)" points="53.1 38.8 61 38.8 61 11.4 53.1 11.4"></polygon>
                <path d="M44.6998,13.7001 L44.1998,11.4001 L37.3998,11.4001 L37.3998,38.8001 L45.1998,38.8001 L45.1998,20.2001 C46.9998,17.8001 50.1998,18.2001 51.0998,18.6001 L51.0998,11.4001 C50.1998,11.0001 46.4998,10.3001 44.6998,13.7001" id="Fill-10" fill="#000000" mask="url(#mask-4)"></path>
                <path d="M29.0001,4.6 L21.4001,6.2 L21.4001,31.3 C21.4001,35.9 24.9001,39.3 29.5001,39.3 C32.1001,39.3 33.9001,38.8 35.0001,38.3 L35.0001,31.9 C34.0001,32.3 29.1001,33.7 29.1001,29.1 L29.1001,18 L35.0001,18 L35.0001,11.4 L29.1001,11.4 L29.0001,4.6 Z" id="Fill-11" fill="#000000" mask="url(#mask-4)"></path>
                <path d="M7.9,19.3002 C7.9,18.1002 8.9,17.6002 10.6,17.6002 C13,17.6002 16,18.3002 18.4,19.6002 L18.4,12.2002 C15.8,11.2002 13.2,10.8002 10.6,10.8002 C4.2,10.8002 0,14.1002 0,19.7002 C0,28.3002 11.9,27.0002 11.9,30.6992 C11.9,32.1002 10.6,32.6002 8.9,32.6002 C6.3,32.6002 3,31.5002 0.4,30.1002 L0.4,37.5002 C3.3,38.8002 6.3,39.3002 8.9,39.3002 C15.4,39.3002 19.9,36.1002 19.9,30.5002 C19.8,21.2002 7.9,22.8002 7.9,19.3002" id="Fill-12" fill="#000000" mask="url(#mask-4)"></path>
            </g>
        </g>
    </g>
</svg>