<?xml version="1.0" encoding="UTF-8" standalone="no"?>
<svg width="80px" height="34px" viewBox="0 0 80 34" version="1.1" xmlns="http://www.w3.org/2000/svg" xmlns:xlink="http://www.w3.org/1999/xlink" xmlns:sketch="http://www.bohemiancoding.com/sketch/ns">
    <!-- Generator: Sketch 3.3.2 (12043) - http://www.bohemiancoding.com/sketch -->
    <title>Logo@2x</title>
    <desc>Created with Sketch.</desc>
    <defs>
        <path id="path-1" d="M0.010619469,0.118053097 L79.9438938,0.118053097 L79.9438938,33.2743363 L0.010619469,33.2743363 L0.010619469,0.118053097 Z"></path>
    </defs>
    <g id="Page-1" stroke="none" stroke-width="1" fill="none" fill-rule="evenodd" sketch:type="MSPage">
        <g id="Desktop-HD" sketch:type="MSArtboardGroup" transform="translate(-392.000000, -491.000000)">
            <g id="Group-Copy" sketch:type="MSLayerGroup" transform="translate(392.000000, 491.000000)">
                <g id="Logo">
                    <mask id="mask-2" sketch:name="Clip 2" fill="white">
                        <use xlink:href="#path-1"></use>
                    </mask>
                    <g id="Clip-2"></g>
                    <path d="M8.3539823,15.0325664 C6.63132743,14.3953982 5.68725664,13.899823 5.68725664,13.1210619 C5.68725664,12.460177 6.2300885,12.0826549 7.19769912,12.0826549 C8.96761062,12.0826549 10.7846018,12.7670796 12.0353982,13.380531 L12.7433628,9.01486726 C11.7522124,8.54283186 9.72265487,7.7640708 6.91451327,7.7640708 C4.93221239,7.7640708 3.28017699,8.28318584 2.10035398,9.25079646 C0.873097345,10.2654867 0.235929204,11.7286726 0.235929204,13.4985841 C0.235929204,16.7079646 2.19469027,18.0768142 5.38053097,19.2330973 C7.43362832,19.9646018 8.1180531,20.4838938 8.1180531,21.2861947 C8.1180531,22.0649558 7.45716814,22.5132743 6.25362832,22.5132743 C4.76690265,22.5132743 2.31274336,21.7817699 0.707964602,20.8378761 L0,25.2507965 C1.36867257,26.0295575 3.91734513,26.8318584 6.56053097,26.8318584 C8.66070796,26.8318584 10.4070796,26.3362832 11.5870796,25.3923894 C12.9084956,24.3539823 13.5929204,22.820177 13.5929204,20.8378761 C13.5929204,17.5575221 11.5870796,16.1888496 8.3539823,15.0325664 L8.3539823,15.0325664 Z M25.1180531,12.460177 L25.8260177,8.1180531 L22.0884956,8.1180531 L22.0884956,2.84690265 L17.0633628,3.67380531 L16.3376991,8.1180531 L14.5702655,8.40477876 L13.9086726,12.460177 L16.3304425,12.460177 L16.3304425,20.979469 C16.3304425,23.1976991 16.8968142,24.7316814 18.0530973,25.6755752 C19.020708,26.4543363 20.4129204,26.8318584 22.3716814,26.8318584 C23.8819469,26.8318584 24.8023009,26.5723894 25.439469,26.4070796 L25.439469,21.8053097 C25.0854867,21.899823 24.2831858,22.0649558 23.740354,22.0649558 C22.5840708,22.0649558 22.0884956,21.4750442 22.0884956,20.1299115 L22.0884956,12.460177 L25.1180531,12.460177 L25.1180531,12.460177 Z M36.3421239,7.86442478 C34.6902655,7.86442478 33.3686726,8.73168142 32.8495575,10.2892035 L32.4955752,8.1180531 L27.3746903,8.1180531 L27.3746903,26.4778761 L33.2270796,26.4778761 L33.2270796,14.560531 C33.9587611,13.6637168 34.9969912,13.339469 36.4129204,13.339469 C36.719823,13.339469 37.0500885,13.339469 37.4513274,13.4102655 L37.4513274,8.0060177 C37.0500885,7.91168142 36.6961062,7.86442478 36.3421239,7.86442478 L36.3421239,7.86442478 Z M41.8171681,6.30088496 C43.5162832,6.30088496 44.8849558,4.90867257 44.8849558,3.20955752 C44.8849558,1.48672566 43.5162832,0.118053097 41.8171681,0.118053097 C40.0943363,0.118053097 38.7256637,1.48672566 38.7256637,3.20955752 C38.7256637,4.90867257 40.0943363,6.30088496 41.8171681,6.30088496 L41.8171681,6.30088496 Z M38.8672566,8.1180531 L44.7433628,8.1180531 L44.7433628,26.4778761 L38.8672566,26.4778761 L38.8672566,8.1180531 Z M61.3952212,9.7699115 C60.3568142,8.42477876 58.9173451,7.7640708 57.0766372,7.7640708 C55.3775221,7.7640708 53.8907965,8.4720354 52.4984071,9.95876106 L52.1916814,8.1180531 L47.0470796,8.1180531 L47.0470796,33.2743363 L52.899646,32.3069027 L52.899646,26.4070796 C53.7962832,26.6902655 54.7166372,26.8318584 55.5426549,26.8318584 C57.0058407,26.8318584 59.1297345,26.4543363 60.7815929,24.660885 C62.3626549,22.9380531 63.1651327,20.2715044 63.1651327,16.7552212 C63.1651327,13.640177 62.5750442,11.280354 61.3952212,9.7699115 L61.3952212,9.7699115 Z M56.5338053,21.0973451 C56.0617699,21.9941593 55.3302655,22.4661947 54.480708,22.4661947 C53.8907965,22.4661947 53.3715044,22.3481416 52.899646,22.1122124 L52.899646,13.380531 C53.8907965,12.3423009 54.7874336,12.2242478 55.1178761,12.2242478 C56.6046018,12.2242478 57.3361062,13.8290265 57.3361062,16.9676106 C57.3361062,18.7610619 57.0766372,20.1534513 56.5338053,21.0973451 L56.5338053,21.0973451 Z M79.9438938,17.1327434 C79.9438938,14.2065487 79.3067257,11.8938053 78.0559292,10.2654867 C76.7815929,8.61362832 74.8700885,7.7640708 72.439469,7.7640708 C67.46,7.7640708 64.3686726,11.4454867 64.3686726,17.3451327 C64.3686726,20.6490265 65.1945133,23.1269027 66.8228319,24.7079646 C68.2860177,26.1238938 70.3863717,26.8318584 73.100177,26.8318584 C75.6015929,26.8318584 77.9143363,26.2419469 79.3775221,25.2743363 L78.740354,21.2626549 C77.300708,22.0414159 75.6253097,22.4661947 73.7373451,22.4661947 C72.6046018,22.4661947 71.8258407,22.2300885 71.259469,21.7345133 C70.6458407,21.2153982 70.2918584,20.3658407 70.1739823,19.1623009 L79.8730973,19.1623009 C79.8966372,18.879115 79.9438938,17.5575221 79.9438938,17.1327434 L79.9438938,17.1327434 Z M70.1267257,15.5752212 C70.2918584,12.9557522 70.999823,11.7286726 72.3449558,11.7286726 C73.6665487,11.7286726 74.3509735,12.979469 74.4453097,15.5752212 L70.1267257,15.5752212 L70.1267257,15.5752212 Z" id="Fill-1" fill="#D0D0D0" sketch:type="MSShapeGroup" mask="url(#mask-2)"></path>
                </g>
            </g>
        </g>
    </g>
</svg>