<svg width="626" height="276" viewBox="0 0 626 276" fill="none" xmlns="http://www.w3.org/2000/svg">
<path d="M35.6 86.2C50 86.2 65.9 79 69.6 58.1L45.7 54.1C44.2 61.7 39.5 64.2 35.5 64.2C29.6 64.2 25.1 58.6 25.1 49C25.1 39.2 29.6 33.7 35.5 33.7C39.5 33.7 44.2 36.2 45.7 43.7L69.6 39.8C66 18.9 50 11.7 35.6 11.7C17.5 11.7 0 23.3 0 49C0 75.4 17.5 86.2 35.6 86.2Z" fill="#E3E3E3"/>
<path d="M73.7578 85H96.9578V55C96.9578 47.7 99.1578 45.8 103.358 45.8C107.658 45.8 109.758 47.7 109.758 55V85H132.958V52.6C132.958 32.1 125.058 26.6 112.558 26.6C104.158 26.6 98.9578 31.1 96.9578 34.5V9.19998H73.7578V85Z" fill="#E3E3E3"/>
<path d="M161.061 86.3C167.261 86.3 173.261 83.1 175.261 78.7V84.9H198.461V27.8H175.261V34.5C173.261 29.9 167.361 26.6 161.061 26.6C146.661 26.6 137.461 38.2 137.461 56.4C137.461 74.5 146.761 86.3 161.061 86.3ZM168.361 67.3C164.161 67.3 160.561 63.6 160.561 56.3C160.561 49.2 164.161 45.4 168.361 45.4C172.661 45.4 176.061 49.2 176.061 56.3C176.061 63.6 172.661 67.3 168.361 67.3Z" fill="#E3E3E3"/>
<path d="M205.457 85H228.657V55C228.657 48.1 230.157 45.8 234.557 45.8C239.057 45.8 240.457 48 240.457 55V85H263.657V54C263.657 48 265.257 45.8 269.557 45.8C274.057 45.8 275.457 48 275.457 55V85H298.657V52.6C298.657 34.2 292.857 26.6 278.757 26.6C268.057 26.6 263.157 32.7 260.557 35.9C257.257 29.3 252.357 26.6 243.757 26.6C237.057 26.6 230.657 29.9 228.657 34.5V27.8H205.457V85Z" fill="#E3E3E3"/>
<path d="M305.145 103.5H328.345V78.2C329.845 81.5 334.645 85.8 342.545 85.8C355.045 85.8 366.145 76.9 366.145 56.3C366.145 35.9 355.045 26.9 342.545 26.9C334.745 26.9 329.845 30.9 328.345 34V27.8H305.145V103.5ZM335.245 67.3C331.045 67.3 327.445 63.6 327.445 56.3C327.445 49.2 331.045 45.4 335.245 45.4C339.545 45.4 342.945 49.2 342.945 56.3C342.945 63.6 339.545 67.3 335.245 67.3Z" fill="#E3E3E3"/>
<path d="M382.741 22.1C389.541 22.1 395.541 18.5 395.541 11.1C395.541 3.79998 389.541 0.0999756 382.741 0.0999756C375.241 0.0999756 369.941 3.79998 369.941 11.1C369.941 18.5 375.241 22.1 382.741 22.1ZM371.041 85H394.341V27.8H371.041V85Z" fill="#E3E3E3"/>
<path d="M429.997 86.3C445.797 86.3 460.897 77.2 460.897 56.4C460.897 35.8 445.797 26.7 430.197 26.7C414.597 26.7 399.297 35.8 399.297 56.4C399.297 77.2 414.497 86.3 429.997 86.3ZM430.097 67.3C425.897 67.3 422.297 63.6 422.297 56.3C422.297 49.2 425.897 45.4 430.097 45.4C434.397 45.4 437.797 49.2 437.797 56.3C437.797 63.6 434.397 67.3 430.097 67.3Z" fill="#E3E3E3"/>
<path d="M465.926 85H489.126V55C489.126 48.5 490.726 45.8 495.526 45.8C499.926 45.8 501.926 48.5 501.926 55V85H525.126V52.6C525.126 34.6 519.226 26.6 504.726 26.6C498.026 26.6 491.826 29.9 489.126 34.5V27.8H465.926V85Z" fill="#E3E3E3"/>
<path d="M555.129 86C572.429 86 583.429 78.5 583.429 66.2C583.429 45.1 551.429 51.5 551.429 43.5C551.429 41.5 553.129 40.3 556.029 40.3C559.129 40.3 560.929 42.3 561.429 45.5L582.029 43.7C580.429 32.9 569.629 26.8 555.129 26.8C539.029 26.8 529.029 33.9 528.629 45.2C527.829 66 560.029 61.8 560.029 69.8C560.029 71.6 558.029 72.8 555.229 72.8C551.729 72.8 549.029 70.6 548.129 67.5L527.329 68.9C528.729 78.8 538.129 86 555.129 86Z" fill="#E3E3E3"/>
<path d="M30.7 206.3C46.5 206.3 61.6 197.2 61.6 176.4C61.6 155.8 46.5 146.7 30.9 146.7C15.3 146.7 0 155.8 0 176.4C0 197.2 15.2 206.3 30.7 206.3ZM30.8 187.3C26.6 187.3 23 183.6 23 176.3C23 169.2 26.6 165.4 30.8 165.4C35.1 165.4 38.5 169.2 38.5 176.3C38.5 183.6 35.1 187.3 30.8 187.3Z" fill="#E3E3E3"/>
<path d="M68.0758 205H91.5758V164.8H104.876V147.7H91.5758V146.1C91.5758 142.2 93.7758 140.5 99.2758 140.5C100.876 140.5 102.576 140.5 104.676 140.8L107.576 125.7C104.876 125.1 98.8758 124.5 93.4758 124.5C76.6758 124.5 68.0758 131.8 68.0758 146.2V147.7H60.6758V164.8H68.0758V205Z" fill="#E3E3E3"/>
<path d="M163.08 206.2C177.48 206.2 193.38 199 197.08 178.1L173.18 174.1C171.68 181.7 166.98 184.2 162.98 184.2C157.08 184.2 152.58 178.6 152.58 169C152.58 159.2 157.08 153.7 162.98 153.7C166.98 153.7 171.68 156.2 173.18 163.7L197.08 159.8C193.48 138.9 177.48 131.7 163.08 131.7C144.98 131.7 127.48 143.3 127.48 169C127.48 195.4 144.98 206.2 163.08 206.2Z" fill="#E3E3E3"/>
<path d="M201.238 205H224.438V175C224.438 167.7 226.638 165.8 230.838 165.8C235.138 165.8 237.238 167.7 237.238 175V205H260.438V172.6C260.438 152.1 252.538 146.6 240.038 146.6C231.638 146.6 226.438 151.1 224.438 154.5V129.2H201.238V205Z" fill="#E3E3E3"/>
<path d="M288.541 206.3C294.741 206.3 300.741 203.1 302.741 198.7V204.9H325.941V147.8H302.741V154.5C300.741 149.9 294.841 146.6 288.541 146.6C274.141 146.6 264.941 158.2 264.941 176.4C264.941 194.5 274.241 206.3 288.541 206.3ZM295.841 187.3C291.641 187.3 288.041 183.6 288.041 176.3C288.041 169.2 291.641 165.4 295.841 165.4C300.141 165.4 303.541 169.2 303.541 176.3C303.541 183.6 300.141 187.3 295.841 187.3Z" fill="#E3E3E3"/>
<path d="M332.938 205H356.138V175C356.138 168.5 357.738 165.8 362.538 165.8C366.938 165.8 368.938 168.5 368.938 175V205H392.138V172.6C392.138 154.6 386.237 146.6 371.737 146.6C365.037 146.6 358.838 149.9 356.138 154.5V147.8H332.938V205Z" fill="#E3E3E3"/>
<path d="M427.141 224.9C448.341 224.9 457.641 216.2 457.641 194.5V147.8H434.441V153.7C432.441 149.8 426.541 147 420.241 147C405.741 147 396.641 157.1 396.641 173.2C396.641 189.2 405.841 199.3 420.241 199.3C426.441 199.3 432.441 196.6 434.441 193V199.3C434.441 205.6 432.141 208.5 427.341 208.5C423.141 208.5 420.241 206.2 419.641 202.4L397.541 206.9C400.341 218.4 410.441 224.9 427.141 224.9ZM427.441 183.2C423.241 183.2 419.641 179.9 419.641 173.2C419.641 166.7 423.241 163.3 427.441 163.3C431.741 163.3 435.141 166.7 435.141 173.2C435.141 179.9 431.741 183.2 427.441 183.2Z" fill="#E3E3E3"/>
<path d="M493.237 206.1C508.837 206.1 518.737 199.6 521.837 187.4L500.737 185.6C500.037 188.7 497.537 190.4 493.937 190.4C489.037 190.4 485.837 186.7 485.837 181H521.837C524.237 159.6 512.937 146.7 492.837 146.7C474.937 146.7 462.637 158.8 462.637 176.4C462.637 194.4 474.737 206.1 493.237 206.1ZM486.037 168.8C486.237 164.1 489.437 161.1 493.537 161.1C497.637 161.1 500.837 164.1 501.037 168.8H486.037Z" fill="#E3E3E3"/>
<path d="M370.912 241.848C370.826 241.438 370.534 241.044 370.245 240.703C367.65 238.305 364.668 237.556 361.351 237.826C351.451 238.631 338.914 245.494 336.508 247.985C335.258 249.286 335.374 251.364 335.631 252.595C335.81 253.52 336.235 254.894 337.24 255.699C340.87 258.638 350.79 258.093 355.336 258.819C348.308 262.207 344.028 262.19 343.17 263.825C342.841 264.269 342.771 264.692 342.869 265.258C343.113 266.334 347.401 268.385 350.045 268.17C352.48 267.972 361.191 263.455 362.848 262.016C363.722 261.215 363.949 260.153 363.769 259.228C363.268 256.921 360.501 254.329 359.404 254.314C355.276 254.232 348.317 253.337 343.82 251.929C347.72 249.212 358.015 244.932 363.509 244.485C365.272 244.342 365.793 244.978 367.192 244.864C368.488 244.758 371.258 243.542 370.912 241.848Z" fill="#FF8B02"/>
<path d="M398.516 237.83C398.204 236.551 397.707 234.296 394.39 234.566C392.887 234.688 389.689 235.783 389.802 237.808C390.26 246.014 385.217 258.424 381.423 259.88C381.217 259.271 381.046 258.45 380.866 257.525C380.186 254.294 379.961 248.312 381.425 243.863C381.555 243.539 381.53 243.228 381.509 242.969C381.073 240.814 376.968 239.739 375.672 239.844C370.697 240.249 371.604 252.696 372.203 255.569C373.409 261.418 375.699 265.197 383.111 264.595C383.992 264.523 384.817 264.404 385.43 264.25C393.613 262.228 400.077 245.477 398.516 237.83Z" fill="#FF8B02"/>
<path d="M446.723 250.605C446.197 247.987 441.686 238.702 439.568 237.675C438.804 237.267 438.022 237.279 437.452 237.325C435.431 237.489 433.2 238.923 431.958 240.328C431.005 241.449 428.475 245.62 426.098 248.474C424.304 243.09 422.966 236.259 422.064 234.142C421.467 232.573 419.892 231.814 418.337 231.94C416.471 232.092 414.802 233.376 413.767 234.764C412.312 236.761 403.789 255.14 403.526 257.039C403.539 257.195 403.56 257.454 403.568 257.558C403.915 259.251 405.943 259.817 407.291 259.707C408.12 259.64 409.866 259.289 410.546 258.034C411.717 255.747 414.181 250.121 416.642 245.747C417.286 247.886 418.911 255.684 420.088 256.684C421.321 257.731 423.221 257.994 424.672 257.876C425.812 257.784 427.19 257.411 428.091 256.294C429.364 254.625 433.569 248.597 435.78 246.278L436.223 247.233C437.04 248.941 437.716 252.12 438.757 254.018C439.553 255.466 441.268 255.379 441.579 255.354C443.03 255.236 446.406 253.761 446.768 251.802C446.838 251.379 446.8 250.912 446.723 250.605Z" fill="#FF8B02"/>
<path d="M493.806 246.777C493.28 244.159 488.769 234.874 486.651 233.846C485.887 233.439 485.106 233.45 484.536 233.497C482.514 233.661 480.283 235.095 479.041 236.5C478.089 237.621 475.558 241.792 473.182 244.646C471.388 239.261 470.05 232.431 469.147 230.313C468.55 228.745 466.975 227.986 465.42 228.112C463.555 228.264 461.885 229.547 460.85 230.936C459.395 232.932 450.873 251.311 450.61 253.211C450.622 253.366 450.643 253.626 450.652 253.729C450.998 255.423 453.027 255.988 454.374 255.879C455.204 255.811 456.949 255.461 457.629 254.205C458.8 251.919 461.264 246.293 463.726 241.919C464.369 244.058 465.994 251.856 467.171 252.856C468.404 253.903 470.304 254.166 471.755 254.048C472.895 253.955 474.274 253.582 475.174 252.466C476.447 250.797 480.652 244.768 482.864 242.45L483.307 243.405C484.124 245.112 484.8 248.292 485.841 250.19C486.637 251.638 488.351 251.551 488.662 251.526C490.114 251.408 493.489 249.933 493.851 247.973C493.921 247.55 493.884 247.084 493.806 246.777Z" fill="#FF8B02"/>
<path d="M508.353 235.473C508.186 234.704 507.959 233.836 507.597 233.239C506.448 231.298 503.572 231.218 502.536 231.303C501.551 231.383 500.125 231.812 499.687 232.839C499.067 234.193 499.789 242.43 500.636 246.43C500.823 247.459 501.128 248.634 501.549 249.33C502.324 250.519 504.484 252.691 506.09 252.561C506.816 252.502 507.369 252.248 507.758 251.903C509.082 250.857 509.238 239.94 508.353 235.473Z" fill="#FF8B02"/>
<path d="M538.33 218.271C537.902 216.219 535.533 215.316 533.875 215.451C527.448 215.973 523.041 216.958 519.783 217.953C516.676 218.884 514.662 219.778 512.873 220.237C511.033 220.699 507.315 220.532 507.91 223.353C508.414 225.712 512.488 227.05 514.406 226.894C516.017 226.815 517.542 226.326 518.964 225.845C519.04 228.709 519.16 233.394 519.345 238.231C519.602 245.88 519.926 254.357 520.349 256.358C520.879 259.027 523.753 260.359 526.085 260.169C527.381 260.064 528.63 259.388 528.801 258.279C528.862 257.752 528.759 255.204 528.614 252.138C528.453 248.864 527.129 224.242 527.476 223.379C527.519 223.272 527.951 223.445 528.357 223.308C530.401 222.776 535.485 221.789 537.128 220.821C537.876 220.395 538.591 219.554 538.33 218.271Z" fill="#FF8B02"/>
<path d="M561.946 222.82C561.591 221.023 556.239 213.58 553.982 212.773C553.283 212.516 552.549 212.472 551.978 212.518C550.113 212.67 547.363 214.145 547.714 215.891C548.129 217.787 552.467 223.017 555.012 224.166C555.983 224.557 558.176 225.214 559.679 225.091C561.026 224.982 562.215 224.207 561.946 222.82Z" fill="#FF8B02"/>
<path d="M592.973 223.636C592.435 220.863 586.319 219.43 584.453 219.581C580.462 219.906 564.275 227.431 565.216 231.945C565.57 233.742 568.225 234.309 569.624 234.195C570.246 234.145 571.43 233.944 572.148 233.155C574.356 230.785 578.783 228.129 581.999 226.615C580.89 228.375 579.3 230.643 577.464 233.088C576.291 234.697 570.806 241.664 570.587 242.83C570.557 243.093 570.582 243.404 570.607 243.715C571.108 246.022 574.232 247.229 576.668 247.031C577.342 246.976 592.122 243.322 593.23 242.189C593.567 241.848 593.936 241.244 593.765 240.423C593.487 238.933 587.738 237.522 587.116 237.573C586.39 237.632 582.402 238.634 581.586 238.857C583.612 236.188 593.564 226.406 592.973 223.636Z" fill="#FF8B02"/>
<path d="M623.606 226.78C622.674 222.369 619.975 218.05 614.377 218.505C613.755 218.555 613.142 218.71 612.589 218.963C611.89 218.707 610.983 218.468 610.05 218.544C602.535 219.155 597.717 229.198 598.923 235.048C599.359 237.203 600.38 238.842 601.31 240.019C603.115 242.324 608.021 244.273 611.234 244.011C616.313 243.598 620.839 239.578 622.543 236.153C624.199 232.784 624.128 229.346 623.606 226.78ZM615.616 227.325C616.407 231.278 613.747 237.703 608.927 238.095C607.372 238.221 607.389 236.498 607.157 235.578C606.815 233.936 606.871 232.054 607.681 230.475C608.587 228.784 611.213 224.501 614.064 224.269C615.463 224.155 615.449 226.556 615.616 227.325Z" fill="#FF8B02"/>
</svg>
