<svg width="146" height="25" viewBox="0 0 146 25" fill="none" xmlns="http://www.w3.org/2000/svg">
<path d="M22.0639 6.43202C22.0319 6.24002 21.9359 6.08002 21.8399 5.95202C20.5279 4.41602 18.8959 3.84002 17.0079 3.84002C11.0239 3.84002 3.15189 7.58402 1.64789 8.99202C1.00789 9.60002 0.911893 10.752 1.00789 11.552C1.07189 12.128 1.29589 12.864 1.71189 13.28C3.63189 15.264 9.67989 15.808 12.2399 16.48C12.5279 16.544 12.8479 16.608 13.0399 16.64C13.1039 16.672 13.1679 16.64 13.1999 16.672C13.0719 17.408 5.71189 18.56 5.07189 19.584C4.97589 19.744 4.87989 19.936 4.91189 20.128C5.00789 20.96 7.34389 21.888 8.55989 21.888C9.90389 21.888 15.3119 19.488 16.3359 18.656C16.8159 18.304 16.9439 17.824 16.8799 17.344C16.7519 16.096 15.2799 14.688 14.7359 14.368C13.6799 13.728 7.43989 12.448 5.77589 12.096C5.26389 12 4.84789 11.904 4.55989 11.808C6.22389 10.112 13.9679 7.20002 17.9039 7.20002C18.6719 7.20002 19.0879 7.32802 19.3119 7.45602C19.5679 7.61602 19.8879 7.64802 20.1119 7.64802C20.9119 7.64802 22.1279 7.00802 22.0639 6.43202Z" fill="#FF8B02"/>
<path d="M35.8589 2.56002C35.7629 1.24802 32.6589 0.416016 31.9229 0.416016C31.0269 0.416016 29.7789 0.640017 28.4029 0.928017C27.0909 1.21602 25.5229 1.56802 23.9229 1.79202C23.1229 1.92002 23.0269 2.59202 23.0589 2.97602C23.1229 3.45602 23.4109 3.84002 23.4749 4.25602C23.4429 4.51202 23.1549 6.62402 22.9309 9.44002C22.7069 12.384 22.5789 16.032 22.9629 19.04C23.1869 20.992 23.6989 22.88 24.6269 24.032C25.2029 24.768 26.0669 24.992 26.7069 24.992C27.5069 24.992 28.3389 24.608 29.1389 24.416C30.1949 24.128 35.0589 23.072 34.8989 21.696C34.8349 21.056 32.1149 20.128 31.0589 20.128C30.4189 20.128 29.3629 20.384 28.4989 20.608C27.9549 20.768 27.4429 20.928 26.9309 21.024C26.8669 20.896 26.8669 20.672 26.8349 20.352C26.8029 19.872 26.7389 19.296 26.6749 18.784C26.6429 18.496 26.6429 18.272 26.6109 18.112C27.9549 17.728 30.5469 16.8 31.8589 16.8C31.9549 16.8 32.0509 16.8 32.1469 16.8C33.0429 16.8 34.4509 16.032 34.5149 15.168C34.4509 14.496 32.4029 13.216 30.3549 13.248C28.8189 13.28 27.8909 13.728 26.5149 14.176C26.7389 11.936 27.1229 6.81602 27.3469 5.05602C27.7309 4.96002 28.2429 4.83202 28.8829 4.70402C29.5549 4.57602 31.2509 4.28802 32.8189 3.93602C34.4829 3.55202 35.8909 2.97602 35.8589 2.56002Z" fill="#FF8B02"/>
<path d="M57.5789 6.43202C57.5469 6.24002 57.4509 6.08002 57.3549 5.95202C56.0109 4.41602 54.4109 3.84002 52.4909 3.84002C46.5389 3.84002 38.6669 7.58402 37.1629 8.99202C36.5229 9.60002 36.4269 10.752 36.5229 11.552C36.5869 12.128 36.8109 12.864 37.2269 13.28C39.1469 15.264 44.5549 15.808 47.1149 16.48C47.4029 16.544 47.7229 16.608 47.9149 16.64C47.9789 16.672 48.0429 16.64 48.0749 16.672C47.9469 17.408 41.2269 18.56 40.5869 19.584C40.4909 19.744 40.3949 19.936 40.4269 20.128C40.5229 20.96 42.8589 21.888 44.0749 21.888C45.4189 21.888 50.8269 19.488 51.8509 18.656C52.3309 18.304 52.4269 17.824 52.3629 17.344C52.2349 16.096 50.7949 14.688 50.2509 14.368C49.1949 13.728 42.9549 12.448 41.2909 12.096C40.7789 12 40.3629 11.904 40.0749 11.808C41.7389 10.112 49.4509 7.20002 53.4189 7.20002C54.1869 7.20002 54.6029 7.32802 54.8269 7.45602C55.0829 7.61602 55.4029 7.64802 55.6269 7.64802C56.4269 7.64802 57.6429 7.00802 57.5789 6.43202Z" fill="#FF8B02"/>
<path d="M77.7114 6.43202C77.6794 6.24002 77.5834 6.08002 77.4874 5.95202C76.1434 4.41602 74.5434 3.84002 72.6234 3.84002C66.6714 3.84002 58.7994 7.58402 57.2954 8.99202C56.6554 9.60002 56.5594 10.752 56.6554 11.552C56.7194 12.128 56.9434 12.864 57.3594 13.28C59.2794 15.264 64.6874 15.808 67.2474 16.48C67.5354 16.544 67.8554 16.608 68.0474 16.64C68.1114 16.672 68.1754 16.64 68.2074 16.672C68.0794 17.408 61.3594 18.56 60.7194 19.584C60.6234 19.744 60.5274 19.936 60.5594 20.128C60.6554 20.96 62.9914 21.888 64.2074 21.888C65.5514 21.888 70.9594 19.488 71.9834 18.656C72.4634 18.304 72.5594 17.824 72.4954 17.344C72.3674 16.096 70.9274 14.688 70.3834 14.368C69.3274 13.728 63.0874 12.448 61.4234 12.096C60.9114 12 60.4954 11.904 60.2074 11.808C61.8714 10.112 69.5834 7.20002 73.5514 7.20002C74.3194 7.20002 74.7354 7.32802 74.9594 7.45602C75.2154 7.61602 75.5354 7.64802 75.7594 7.64802C76.5594 7.64802 77.7754 7.00802 77.7114 6.43202Z" fill="#FF8B02"/>
<path d="M82.9639 9.40802C82.8999 8.89602 82.8039 8.41602 82.6439 8.06402C82.1959 7.10402 80.8519 6.88002 80.2119 6.88002C79.8279 6.88002 79.0919 6.94402 78.8359 7.45602C78.4519 8.19202 78.5159 13.504 78.8359 16.256C78.9319 16.992 79.0599 17.664 79.2519 18.08C79.5719 18.752 80.5319 20.096 81.3319 20.096C81.6199 20.096 81.8759 20 82.0679 19.84C82.9639 19.168 83.3159 12.192 82.9639 9.40802Z" fill="#FF8B02"/>
<path d="M98.6541 11.968C98.6541 11.52 98.5901 11.072 98.5581 10.688C98.1421 7.26402 96.1581 6.33602 94.8141 6.27202C94.1421 5.66402 93.2781 5.60002 92.7021 5.60002C88.1581 5.60002 85.9821 10.944 86.3661 14.08C86.6861 16.64 88.9261 19.168 92.0621 19.168C95.4541 19.168 98.6861 15.232 98.6541 11.968ZM94.7821 9.44002C94.8781 10.304 94.3661 12.416 93.6941 13.504C93.1501 14.336 91.5501 15.36 90.4941 15.36C89.9501 15.36 89.7901 15.072 89.7261 14.56C89.4701 12.64 91.8701 9.28002 94.0781 9.28002C94.3021 9.28002 94.5581 9.31202 94.7821 9.40802V9.44002Z" fill="#FF8B02"/>
<path d="M121.071 6.88002C121.135 5.92002 121.135 5.12002 121.071 4.60802C120.879 3.32802 119.503 1.85602 118.063 1.85602C117.583 1.85602 117.071 2.08002 116.975 2.68802C116.655 4.64002 116.847 11.456 116.975 14.624C115.855 13.472 114.159 11.808 112.527 10.176C110.095 7.74402 107.599 5.28002 107.183 4.96002C106.831 4.73602 106.415 4.67202 106.159 4.67202C105.327 4.67202 104.239 5.18402 104.303 6.04802C104.527 8.28802 104.079 17.728 104.271 19.424C104.399 20.416 105.871 22.208 107.183 22.208C107.855 22.208 108.207 21.728 108.239 21.216C108.367 19.84 108.239 14.528 108.079 11.296C109.487 12.576 110.831 13.92 112.143 15.232C114.287 17.344 116.495 19.52 117.295 20.032C117.615 20.224 117.999 20.256 118.287 20.256C119.023 20.256 120.911 19.776 120.815 18.56C120.559 14.624 120.879 10.784 121.071 6.88002Z" fill="#FF8B02"/>
<path d="M145.835 6.43202C145.803 6.24002 145.707 6.08002 145.611 5.95202C144.267 4.41602 142.667 3.84002 140.747 3.84002C134.795 3.84002 126.923 7.58402 125.419 8.99202C124.779 9.60002 124.683 10.752 124.779 11.552C124.843 12.128 125.067 12.864 125.483 13.28C127.403 15.264 132.811 15.808 135.371 16.48C135.659 16.544 135.979 16.608 136.171 16.64C136.235 16.672 136.299 16.64 136.331 16.672C136.203 17.408 129.483 18.56 128.843 19.584C128.747 19.744 128.651 19.936 128.683 20.128C128.779 20.96 131.115 21.888 132.331 21.888C133.675 21.888 139.083 19.488 140.107 18.656C140.587 18.304 140.683 17.824 140.619 17.344C140.491 16.096 139.051 14.688 138.507 14.368C137.451 13.728 131.211 12.448 129.547 12.096C129.035 12 128.619 11.904 128.331 11.808C129.995 10.112 137.707 7.20002 141.675 7.20002C142.443 7.20002 142.859 7.32802 143.083 7.45602C143.339 7.61602 143.659 7.64802 143.883 7.64802C144.683 7.64802 145.899 7.00802 145.835 6.43202Z" fill="#FF8B02"/>
</svg>
