<svg width="258" height="170" viewBox="0 0 258 170" fill="none" xmlns="http://www.w3.org/2000/svg">
<g filter="url(#filter0_d)">
<path d="M86.5024 9.23999C86.5024 7.25999 84.7024 6.17999 83.6824 5.51999C82.1224 4.49999 76.6024 3.89999 70.9324 3.89999C69.4924 3.89999 65.2624 3.92999 65.2624 4.31999C65.2624 4.70999 66.4024 5.42999 66.9724 5.75999C66.7324 7.22999 66.5824 9.44999 66.5824 11.67C66.5824 14.91 66.8824 18.21 67.6024 18.93C67.5424 19.29 67.5124 19.59 67.5124 19.86C67.5124 20.82 67.8124 21.39 68.5024 21.39C68.6524 21.39 68.8324 21.36 69.0124 21.3C77.0524 18.93 86.5024 11.25 86.5024 9.23999ZM84.1324 8.00999C84.1324 8.06999 84.1324 8.09999 84.1324 8.15999C84.1324 10.32 75.3724 15.6 69.7324 17.88C69.1324 16.2 68.8924 12.96 68.8924 10.26C68.8924 5.15999 68.8924 5.63999 72.1624 5.63999C75.8524 5.63999 81.8824 6.26999 83.4424 7.07999C83.6824 7.22999 84.0724 7.52999 84.1324 8.00999Z" fill="#FF8B02"/>
<path d="M98.38 12.63C98.08 7.85999 96.25 7.43999 95.17 7.43999C94.69 6.83999 94.09 6.74999 93.52 6.74999C91.81 6.74999 88.21 8.81999 88.21 13.8C88.21 16.38 89.74 19.47 92.89 19.47C95.65 19.47 98.38 15.78 98.38 12.63ZM96.07 10.05C96.07 10.17 96.07 10.29 96.07 10.41C96.07 11.58 95.62 13.56 95.02 14.67C94.48 15.69 92.8 16.89 91.54 16.89C90.76 16.89 90.01 16.38 90.01 15.03C90.01 12.72 92.23 9.17999 94.63 9.17999C95.11 9.17999 95.98 9.23999 96.07 10.05Z" fill="#FF8B02"/>
<path d="M117.264 5.33999C117.264 4.16999 115.794 3.23999 115.194 3.23999C114.534 3.23999 114.624 4.91999 114.624 6.83999C114.624 10.98 114.954 17.07 114.954 17.07C113.634 15.81 105.234 6.71999 104.574 6.20999C104.454 6.11999 104.244 6.08999 104.034 6.08999C103.494 6.08999 102.924 6.32999 102.924 6.77999C102.924 7.40999 102.984 8.63999 102.984 10.11C102.984 12.48 102.954 15.48 102.954 17.64C102.954 19.14 102.954 20.28 103.074 20.4C103.404 21.36 104.424 22.32 104.994 22.32C105.444 22.32 105.414 21.84 105.414 20.67C105.414 18.03 105.234 12.72 105.084 10.5C106.914 11.94 113.454 19.32 114.864 20.25C114.984 20.34 115.164 20.37 115.374 20.37C116.154 20.37 117.144 19.86 117.144 19.32C117.054 18.06 117.024 16.77 117.024 15.51C117.024 11.82 117.294 8.30999 117.294 6.35999C117.294 5.93999 117.294 5.60999 117.264 5.33999Z" fill="#FF8B02"/>
<path d="M133.879 1.07999C133.849 0.689988 133.369 0.299988 132.799 0.299988C125.569 0.299988 122.809 1.82999 120.709 2.21999C119.839 2.36999 118.579 2.12999 118.579 2.72999C118.639 3.20999 119.899 4.07999 120.859 4.07999C121.939 4.07999 124.939 3.17999 124.939 3.23999C124.939 3.29999 124.369 16.53 124.369 22.05C124.369 23.34 124.399 24.3 124.459 24.36C124.759 25.35 125.629 25.65 126.229 25.65C126.559 25.65 126.799 25.56 126.829 25.44C126.979 24.72 127.099 4.07999 127.549 3.08999C127.819 2.48999 133.459 1.88999 133.789 1.43999C133.849 1.34999 133.879 1.25999 133.879 1.16999C133.879 1.13999 133.879 1.10999 133.879 1.07999Z" fill="#FF8B02"/>
<path d="M152.096 16.86C152.066 16.35 150.716 15.51 149.666 15.51C148.226 15.51 145.376 16.26 144.026 16.44C144.026 16.02 143.906 14.79 143.906 13.23C143.906 10.53 144.056 6.89999 144.506 4.79999C147.176 3.71999 150.926 4.01999 150.926 3.23999C150.776 2.60999 149.846 1.61999 147.866 1.61999C146.516 1.61999 144.266 1.97999 141.806 2.69999C141.416 2.81999 141.266 13.38 141.266 15.06C141.266 16.77 142.016 24.12 142.556 24.36C142.646 24.39 142.736 24.42 142.826 24.42C144.206 24.42 143.816 23.37 143.996 18.6C145.766 18.09 152.096 17.4 152.096 16.92C152.096 16.92 152.096 16.89 152.096 16.86Z" fill="#FF8B02"/>
<path d="M162.528 12.63C162.228 7.85999 160.398 7.43999 159.318 7.43999C158.838 6.83999 158.238 6.74999 157.668 6.74999C155.958 6.74999 152.358 8.81999 152.358 13.8C152.358 16.38 153.888 19.47 157.038 19.47C159.798 19.47 162.528 15.78 162.528 12.63ZM160.218 10.05C160.218 10.17 160.218 10.29 160.218 10.41C160.218 11.58 159.768 13.56 159.168 14.67C158.628 15.69 156.948 16.89 155.688 16.89C154.908 16.89 154.158 16.38 154.158 15.03C154.158 12.72 156.378 9.17999 158.778 9.17999C159.258 9.17999 160.128 9.23999 160.218 10.05Z" fill="#FF8B02"/>
<path d="M181.413 10.14C181.413 10.11 181.413 10.08 181.413 10.05C181.413 8.69999 179.403 7.22999 177.393 6.53999C176.403 6.20999 174.123 5.90999 171.363 5.90999C169.773 5.90999 168.033 5.99999 166.263 6.23999C165.903 6.29999 165.723 9.35999 165.723 12.18C165.723 16.02 166.533 19.95 167.343 21.18C167.643 21.66 168.183 21.84 168.633 21.84C169.083 21.84 169.563 21.63 169.563 21.3C169.563 20.82 168.753 18.63 168.753 17.55C168.753 17.46 168.753 17.37 168.783 17.28C171.363 18.3 174.243 21.27 175.833 21.27C176.583 21.27 177.273 20.91 177.273 20.58C177.273 20.49 177.213 20.4 177.093 20.34C174.963 18.96 172.563 17.58 171.153 16.62C176.193 15.24 181.323 12.06 181.413 10.14ZM178.563 8.99999C178.563 9.02999 178.563 9.05999 178.563 9.08999C178.563 11.07 170.463 15.03 168.603 15.36C168.423 14.82 168.453 13.8 168.453 13.05C168.453 11.04 168.723 8.87999 169.083 7.55999C169.983 7.46999 171.003 7.40999 172.023 7.40999C175.203 7.40999 178.323 7.85999 178.563 8.99999Z" fill="#FF8B02"/>
<path d="M198.588 14.49C198.468 13.38 195.258 11.64 194.628 11.64C191.568 11.64 187.878 13.65 187.878 14.37V14.4C187.998 14.67 188.508 14.79 189.228 14.79C190.758 14.79 193.188 14.34 194.388 14.34C194.718 14.34 195.018 14.37 195.018 14.46C195.018 15.03 190.458 17.73 187.008 17.73C185.868 17.73 184.428 17.46 184.428 16.26C184.428 13.62 189.828 7.52999 194.358 6.35999C195.048 6.17999 195.318 5.93999 195.318 5.63999C195.318 5.12999 193.698 4.22999 192.708 4.22999C192.588 4.22999 192.498 4.22999 192.408 4.25999C186.588 6.02999 182.748 12.3 182.748 15.39C182.748 15.78 182.838 16.2 183.018 16.5C184.878 19.71 187.038 19.86 187.668 19.98C187.788 20.01 187.968 20.01 188.208 20.01C189.948 20.01 194.808 19.23 198.468 14.88C198.558 14.79 198.588 14.7 198.588 14.61C198.588 14.58 198.588 14.52 198.588 14.49Z" fill="#FF8B02"/>
<path d="M211.689 3.29999V3.26999C211.599 2.63999 209.859 1.88999 208.749 1.88999C207.249 1.88999 204.369 2.75999 201.339 3.23999C201.129 3.26999 201.069 3.41999 201.069 3.62999C201.069 4.07999 201.459 4.85999 201.459 5.09999C201.459 5.30999 200.829 10.17 200.829 15.06C200.829 19.62 201.369 24.93 203.859 24.93C204.189 24.93 204.519 24.84 204.759 24.72C205.419 24.42 210.909 23.31 210.909 22.35C210.849 21.87 208.839 21.48 208.089 21.48C207.069 21.48 204.339 22.44 204.009 22.38C203.769 22.35 203.139 19.98 203.139 18.75C203.139 18.54 203.169 18.36 203.199 18.24C205.749 17.43 207.729 16.8 208.929 16.8C209.709 16.8 210.519 16.14 210.519 15.81C210.489 15.39 208.869 14.64 207.189 14.64C205.629 14.7 204.339 15.54 202.959 15.84C202.959 15.84 203.529 6.89999 203.799 5.27999C205.209 4.67999 211.689 3.89999 211.689 3.29999Z" fill="#FF8B02"/>
<path d="M225.451 1.07999C225.421 0.689988 224.941 0.299988 224.371 0.299988C217.141 0.299988 214.381 1.82999 212.281 2.21999C211.411 2.36999 210.151 2.12999 210.151 2.72999C210.211 3.20999 211.471 4.07999 212.431 4.07999C213.511 4.07999 216.511 3.17999 216.511 3.23999C216.511 3.29999 215.941 16.53 215.941 22.05C215.941 23.34 215.971 24.3 216.031 24.36C216.331 25.35 217.201 25.65 217.801 25.65C218.131 25.65 218.371 25.56 218.401 25.44C218.551 24.72 218.671 4.07999 219.121 3.08999C219.391 2.48999 225.031 1.88999 225.361 1.43999C225.421 1.34999 225.451 1.25999 225.451 1.16999C225.451 1.13999 225.451 1.10999 225.451 1.07999Z" fill="#FF8B02"/>
<path d="M245.198 1.07999C245.168 0.689988 244.688 0.299988 244.118 0.299988C236.888 0.299988 234.128 1.82999 232.028 2.21999C231.158 2.36999 229.898 2.12999 229.898 2.72999C229.958 3.20999 231.218 4.07999 232.178 4.07999C233.258 4.07999 236.258 3.17999 236.258 3.23999C236.258 3.29999 235.688 16.53 235.688 22.05C235.688 23.34 235.718 24.3 235.778 24.36C236.078 25.35 236.948 25.65 237.548 25.65C237.878 25.65 238.118 25.56 238.148 25.44C238.298 24.72 238.418 4.07999 238.868 3.08999C239.138 2.48999 244.778 1.88999 245.108 1.43999C245.168 1.34999 245.198 1.25999 245.198 1.16999C245.198 1.13999 245.198 1.10999 245.198 1.07999Z" fill="#FF8B02"/>
<path d="M253.221 12.63C252.921 7.85999 251.091 7.43999 250.011 7.43999C249.531 6.83999 248.931 6.74999 248.361 6.74999C246.651 6.74999 243.051 8.81999 243.051 13.8C243.051 16.38 244.581 19.47 247.731 19.47C250.491 19.47 253.221 15.78 253.221 12.63ZM250.911 10.05C250.911 10.17 250.911 10.29 250.911 10.41C250.911 11.58 250.461 13.56 249.861 14.67C249.321 15.69 247.641 16.89 246.381 16.89C245.601 16.89 244.851 16.38 244.851 15.03C244.851 12.72 247.071 9.17999 249.471 9.17999C249.951 9.17999 250.821 9.23999 250.911 10.05Z" fill="#FF8B02"/>
<path d="M78.4624 40.08C78.4324 39.69 77.9524 39.3 77.3824 39.3C70.1524 39.3 67.3924 40.83 65.2924 41.22C64.4224 41.37 63.1624 41.13 63.1624 41.73C63.2224 42.21 64.4824 43.08 65.4424 43.08C66.5224 43.08 69.5224 42.18 69.5224 42.24C69.5224 42.3 68.9524 55.53 68.9524 61.05C68.9524 62.34 68.9824 63.3 69.0424 63.36C69.3424 64.35 70.2124 64.65 70.8124 64.65C71.1424 64.65 71.3824 64.56 71.4124 64.44C71.5624 63.72 71.6824 43.08 72.1324 42.09C72.4024 41.49 78.0424 40.89 78.3724 40.44C78.4324 40.35 78.4624 40.26 78.4624 40.17C78.4624 40.14 78.4624 40.11 78.4624 40.08Z" fill="#FF8B02"/>
<path d="M91.9917 59.04C91.6317 56.25 87.8817 45.15 86.1117 43.02C85.9017 42.75 85.4216 42.6 84.8517 42.6C84.1917 42.6 83.3816 42.81 82.7216 43.26C82.0616 43.71 75.1016 60.51 75.1016 63.75C75.1316 63.9 75.2816 63.96 75.4616 63.96C75.9417 63.96 76.6916 63.66 76.7816 63.48C77.0516 63.27 78.8517 57.72 79.6017 56.22C79.6017 56.22 85.0317 55.56 88.0616 54.51C89.3216 58.44 88.8417 60 91.1517 60C91.6017 60 92.0217 59.82 92.0217 59.37C92.0217 59.28 91.9917 59.16 91.9917 59.04ZM87.4317 52.23C87.4317 52.23 84.7617 52.23 80.2316 54.24C81.6416 50.01 83.9216 44.82 84.3116 44.76C84.5516 44.76 87.4317 52.23 87.4317 52.23Z" fill="#FF8B02"/>
<path d="M109.434 53.49C109.314 52.38 106.104 50.64 105.474 50.64C102.414 50.64 98.7243 52.65 98.7243 53.37V53.4C98.8443 53.67 99.3543 53.79 100.074 53.79C101.604 53.79 104.034 53.34 105.234 53.34C105.564 53.34 105.864 53.37 105.864 53.46C105.864 54.03 101.304 56.73 97.8543 56.73C96.7143 56.73 95.2743 56.46 95.2743 55.26C95.2743 52.62 100.674 46.53 105.204 45.36C105.894 45.18 106.164 44.94 106.164 44.64C106.164 44.13 104.544 43.23 103.554 43.23C103.434 43.23 103.344 43.23 103.254 43.26C97.4343 45.03 93.5943 51.3 93.5943 54.39C93.5943 54.78 93.6843 55.2 93.8643 55.5C95.7243 58.71 97.8843 58.86 98.5143 58.98C98.6343 59.01 98.8143 59.01 99.0543 59.01C100.794 59.01 105.654 58.23 109.314 53.88C109.404 53.79 109.434 53.7 109.434 53.61C109.434 53.58 109.434 53.52 109.434 53.49Z" fill="#FF8B02"/>
<path d="M133.12 44.91C133.06 44.4 133.18 43.77 132.25 43.77C131.53 43.77 130.54 44.1 130.54 44.58C130.51 50.16 126.79 59.16 123.43 59.16C122.65 59.16 122.08 56.97 122.08 54.09C122.08 52.02 122.38 49.62 123.16 47.4C123.22 47.13 121.93 46.26 121.27 46.26C121.09 46.26 120.97 46.29 120.91 46.44C120.01 48.24 119.62 50.61 119.62 52.89C119.62 55.44 120.13 57.96 121 59.28C121.63 60.24 123.13 60.51 124.36 60.51C124.78 60.51 125.2 60.48 125.5 60.42C129.19 59.73 133.18 51 133.18 45.9C133.18 45.57 133.15 45.21 133.12 44.91Z" fill="#FF8B02"/>
<path d="M152.853 46.02C151.953 44.88 150.723 44.1 148.833 44.1C143.433 44.1 136.233 47.82 134.943 49.14C134.643 49.44 134.493 50.01 134.493 50.58C134.493 51.39 134.733 52.26 135.003 52.56C137.133 54.87 145.083 55.11 145.383 56.34C145.383 56.37 145.413 56.37 145.413 56.4C145.413 57.69 138.273 59.31 138.273 59.94C138.333 60.42 139.983 61.02 140.943 61.02C142.173 61.02 147.153 58.5 147.843 57.9C148.053 57.72 148.113 57.51 148.113 57.24C148.113 56.25 146.853 54.93 146.433 54.66C145.413 54 136.413 52.11 136.323 51.51V51.48C137.223 49.53 145.503 46.14 149.553 46.14C150.603 46.14 151.173 46.59 151.653 46.59C152.193 46.59 152.853 46.29 152.853 46.02Z" fill="#FF8B02"/>
<path fill-rule="evenodd" clip-rule="evenodd" d="M51.3151 21.5633L50.5771 22.238C50.1087 22.6663 49.6286 23.1124 49.138 23.5756L48.4108 24.2621L47.0378 22.8079L47.7649 22.1214C48.2631 21.651 48.751 21.1977 49.2276 20.762L49.9656 20.0872L51.3151 21.5633ZM47.0164 25.6177L46.3085 26.324C45.4063 27.2241 44.4792 28.1713 43.5329 29.1622L42.8423 29.8855L41.3958 28.5042L42.0864 27.781C43.0437 26.7785 43.9821 25.8199 44.8959 24.9081L45.6038 24.2018L47.0164 25.6177ZM41.5121 31.3104L40.8377 32.0487C39.9678 33.0012 39.0868 33.9859 38.1987 35.0008L37.5401 35.7534L36.035 34.4363L36.6936 33.6838C37.5911 32.6581 38.4815 31.6628 39.361 30.6999L40.0354 29.9616L41.5121 31.3104ZM36.2604 37.2472L35.6177 38.0133C34.7823 39.0094 33.944 40.0296 33.1059 41.0722L32.4794 41.8516L30.9206 40.5987L31.5471 39.8192C32.394 38.7656 33.2412 37.7346 34.0854 36.7281L34.7281 35.9619L36.2604 37.2472ZM31.2697 43.3896L30.6599 44.1822C29.8626 45.2184 29.0684 46.2735 28.28 47.3458L27.6877 48.1515L26.0763 46.9668L26.6686 46.1611C27.4658 45.0767 28.2688 44.0101 29.0747 42.9626L29.6846 42.17L31.2697 43.3896ZM26.5449 49.7429L25.971 50.5618C25.2177 51.6368 24.4725 52.7267 23.7379 53.8299L23.1837 54.6623L21.5189 53.5539L22.0731 52.7215C22.8168 51.6046 23.571 50.5017 24.3331 49.414L24.907 48.5951L26.5449 49.7429ZM22.1195 56.3042L21.5864 57.1503C20.8851 58.2634 20.1967 59.3881 19.5234 60.523L19.0133 61.383L17.2931 60.3627L17.8033 59.5026C18.486 58.3518 19.1838 57.2118 19.8943 56.0842L20.4274 55.2381L22.1195 56.3042ZM18.041 63.0756L17.5558 63.95C16.9161 65.1026 16.2941 66.2639 15.6921 67.4326L15.2341 68.3216L13.4562 67.4058L13.9141 66.5168C14.5259 65.329 15.1577 64.1494 15.807 62.9795L16.2923 62.1051L18.041 63.0756ZM14.3707 70.0675L13.943 70.9714C13.3785 72.1641 12.837 73.3629 12.3207 74.5663L11.9265 75.4853L10.0885 74.6968L10.4827 73.7778C11.009 72.551 11.5607 71.3299 12.1351 70.1159L12.5629 69.212L14.3707 70.0675ZM11.1965 77.2828L10.8396 78.217C10.3688 79.4494 9.92673 80.6849 9.516 81.9221L9.20094 82.8712L7.3028 82.241L7.61786 81.292C8.03833 80.0254 8.49039 78.762 8.97132 77.5032L9.32822 76.569L11.1965 77.2828ZM8.63632 84.7172L8.36827 85.6806C8.01469 86.9515 7.6968 88.2223 7.41728 89.4917L7.20222 90.4683L5.24902 90.0381L5.46408 89.0615C5.75178 87.7551 6.07857 86.4488 6.44146 85.1445L6.70951 84.1811L8.63632 84.7172ZM6.84405 92.3559L6.68861 93.3437C6.48434 94.6419 6.3234 95.9365 6.20865 97.226L6.12001 98.2221L4.12788 98.0448L4.21652 97.0487C4.33543 95.7125 4.50199 94.3733 4.71292 93.0328L4.86836 92.045L6.84405 92.3559ZM6.01948 100.124L6.00512 101.124C5.98636 102.43 6.01893 103.729 6.10585 105.02L6.17306 106.017L4.17758 106.152L4.11037 105.154C4.01965 103.807 3.98582 102.454 4.00533 101.095L4.01969 100.095L6.01948 100.124ZM6.38146 107.899L6.53646 108.886C6.63693 109.527 6.75198 110.165 6.88201 110.799C7.00967 111.423 7.14694 112.036 7.29345 112.64L7.52928 113.612L5.5857 114.083L5.34986 113.111C5.19765 112.484 5.05514 111.847 4.92268 111.201C4.78636 110.535 4.66583 109.867 4.56064 109.197L4.40563 108.209L6.38146 107.899ZM7.99977 115.281L8.30769 116.232C8.69956 117.443 9.13045 118.611 9.5967 119.739L9.97873 120.664L8.13042 121.428L7.7484 120.503C7.26201 119.327 6.81294 118.109 6.40486 116.848L6.09694 115.897L7.99977 115.281ZM10.7072 122.242L11.1634 123.131C11.7397 124.256 12.3528 125.336 12.9983 126.374L13.5263 127.223L11.8279 128.279L11.2998 127.43C10.6258 126.346 9.98548 125.218 9.38363 124.044L8.92745 123.154L10.7072 122.242ZM14.505 128.661L15.1011 129.464C15.8522 130.475 16.6348 131.443 17.4437 132.368L18.1018 133.121L16.596 134.437L15.9379 133.685C15.0951 132.72 14.279 131.712 13.4952 130.656L12.8991 129.853L14.505 128.661ZM19.2994 134.388L20.0129 135.089C20.9121 135.972 21.8345 136.812 22.7741 137.612L23.5355 138.26L22.2392 139.783L21.4777 139.135C20.5038 138.306 19.5463 137.434 18.6116 136.516L17.8981 135.815L19.2994 134.388ZM24.9097 139.351L25.712 139.948C26.729 140.705 27.758 141.42 28.792 142.098L29.6284 142.646L28.5322 144.319L27.6958 143.77C26.6309 143.073 25.5692 142.335 24.5184 141.553L23.716 140.956L24.9097 139.351ZM31.1268 143.569L31.991 144.072C33.0986 144.717 34.2034 145.323 35.2969 145.893L36.1835 146.355L35.2586 148.129L34.3719 147.666C33.2538 147.083 32.1217 146.463 30.9849 145.801L30.1207 145.298L31.1268 143.569ZM37.7783 147.145L38.6823 147.573C39.8615 148.13 41.015 148.65 42.1314 149.137L43.0479 149.537L42.2478 151.37L41.3313 150.97C40.2003 150.477 39.028 149.949 37.8272 149.381L36.9232 148.953L37.7783 147.145ZM44.7046 150.237L45.6281 150.621C46.1126 150.822 46.5879 151.018 47.0512 151.209C47.7852 151.512 48.489 151.803 49.1509 152.081L50.0729 152.468L49.2988 154.312L48.3768 153.925C47.7187 153.648 47.0259 153.362 46.2971 153.062C45.8332 152.87 45.3547 152.673 44.8613 152.468L43.9377 152.085L44.7046 150.237ZM51.7977 153.221L52.6921 153.668C53.355 154 53.9514 154.331 54.457 154.668L55.2891 155.223L54.1797 156.887L53.3476 156.332C52.936 156.058 52.4193 155.768 51.7974 155.457L50.903 155.009L51.7977 153.221Z" fill="#FF8B02"/>
<path d="M60.6452 157.638L50.8314 159.387L53.3675 150.846L60.6452 157.638Z" fill="#FF8B02"/>
</g>
<defs>
<filter id="filter0_d" x="0" y="0.299988" width="257.221" height="169.623" filterUnits="userSpaceOnUse" color-interpolation-filters="sRGB">
<feFlood flood-opacity="0" result="BackgroundImageFix"/>
<feColorMatrix in="SourceAlpha" type="matrix" values="0 0 0 0 0 0 0 0 0 0 0 0 0 0 0 0 0 0 127 0"/>
<feOffset dy="4"/>
<feGaussianBlur stdDeviation="2"/>
<feColorMatrix type="matrix" values="0 0 0 0 0 0 0 0 0 0 0 0 0 0 0 0 0 0 0.25 0"/>
<feBlend mode="normal" in2="BackgroundImageFix" result="effect1_dropShadow"/>
<feBlend mode="normal" in="SourceGraphic" in2="effect1_dropShadow" result="shape"/>
</filter>
</defs>
</svg>
