<svg id="Layer_1" data-name="Layer 1" xmlns="http://www.w3.org/2000/svg" viewBox="0 0 1440 721"><defs><style>.cls-1{fill:#f2dbce;}.cls-2{fill:#fff7e5;}.cls-3{fill:#9eb1c1;}.cls-4{fill:#fff;}.cls-5{fill:#4a5f8a;}.cls-6{fill:none;}.cls-7{fill:#f0c06e;}</style></defs><title>1Artboard 1 copy 42</title><circle class="cls-1" cx="463" cy="138" r="5"/><rect class="cls-2" width="1440" height="721"/><rect class="cls-2" width="1440" height="721"/><circle class="cls-3" cx="1292.02" cy="315.83" r="2.28"/><circle class="cls-3" cx="1292.02" cy="331.87" r="2.28"/><circle class="cls-3" cx="1292.02" cy="347.9" r="2.28"/><circle class="cls-3" cx="1292.02" cy="363.93" r="2.28"/><circle class="cls-3" cx="1292.02" cy="379.97" r="2.28"/><circle class="cls-3" cx="1292.02" cy="396" r="2.28"/><circle class="cls-3" cx="1292.02" cy="412.04" r="2.28"/><circle class="cls-3" cx="1292.02" cy="428.07" r="2.28"/><circle class="cls-3" cx="1292.02" cy="444.1" r="2.28"/><circle class="cls-3" cx="1307.42" cy="315.83" r="2.28"/><circle class="cls-3" cx="1307.42" cy="331.87" r="2.28"/><circle class="cls-3" cx="1307.42" cy="347.9" r="2.28"/><circle class="cls-3" cx="1307.42" cy="363.93" r="2.28"/><circle class="cls-3" cx="1307.42" cy="379.97" r="2.28"/><circle class="cls-3" cx="1307.42" cy="396" r="2.28"/><circle class="cls-3" cx="1307.42" cy="412.04" r="2.28"/><circle class="cls-3" cx="1307.42" cy="428.07" r="2.28"/><circle class="cls-3" cx="1307.42" cy="444.1" r="2.28"/><path class="cls-4" d="M1439,229.31c-.78,0-1.56,0-2.35,0a128.86,128.86,0,0,0,0,257.72c.79,0,1.57,0,2.35,0Z"/><circle class="cls-3" cx="1322.81" cy="315.83" r="2.28"/><circle class="cls-3" cx="1322.81" cy="331.87" r="2.28"/><circle class="cls-3" cx="1322.81" cy="347.9" r="2.28"/><circle class="cls-3" cx="1322.81" cy="363.93" r="2.28"/><circle class="cls-3" cx="1322.81" cy="379.97" r="2.28"/><circle class="cls-3" cx="1322.81" cy="396" r="2.28"/><circle class="cls-3" cx="1322.81" cy="412.04" r="2.28"/><circle class="cls-3" cx="1322.81" cy="428.07" r="2.28"/><circle class="cls-3" cx="1322.81" cy="444.1" r="2.28"/><circle class="cls-5" cx="32.28" cy="257.37" r="2.28"/><circle class="cls-5" cx="48.31" cy="257.37" r="2.28"/><circle class="cls-5" cx="64.35" cy="257.37" r="2.28"/><circle class="cls-5" cx="80.38" cy="257.37" r="2.28"/><circle class="cls-5" cx="96.42" cy="257.37" r="2.28"/><circle class="cls-5" cx="112.45" cy="257.37" r="2.28"/><circle class="cls-5" cx="128.48" cy="257.37" r="2.28"/><circle class="cls-5" cx="144.52" cy="257.37" r="2.28"/><circle class="cls-5" cx="160.55" cy="257.37" r="2.28"/><circle class="cls-5" cx="32.28" cy="241.97" r="2.28"/><circle class="cls-5" cx="48.31" cy="241.97" r="2.28"/><circle class="cls-5" cx="64.35" cy="241.97" r="2.28"/><circle class="cls-5" cx="80.38" cy="241.97" r="2.28"/><circle class="cls-5" cx="96.42" cy="241.97" r="2.28"/><circle class="cls-5" cx="112.45" cy="241.97" r="2.28"/><circle class="cls-5" cx="128.48" cy="241.97" r="2.28"/><circle class="cls-5" cx="144.52" cy="241.97" r="2.28"/><circle class="cls-5" cx="160.55" cy="241.97" r="2.28"/><circle class="cls-5" cx="32.28" cy="226.57" r="2.28"/><circle class="cls-5" cx="48.31" cy="226.57" r="2.28"/><circle class="cls-5" cx="64.35" cy="226.57" r="2.28"/><circle class="cls-5" cx="80.38" cy="226.57" r="2.28"/><circle class="cls-5" cx="96.42" cy="226.57" r="2.28"/><circle class="cls-5" cx="112.45" cy="226.57" r="2.28"/><circle class="cls-5" cx="128.48" cy="226.57" r="2.28"/><circle class="cls-5" cx="144.52" cy="226.57" r="2.28"/><circle class="cls-5" cx="160.55" cy="226.57" r="2.28"/><path class="cls-6" d="M1434,168.78c-16.34,10.67-33.73,22.65-40.08,41.1-3.31,9.6-3.22,20-3.09,30.14.05,4.36.17,8.95,2.4,12.69,2.74,4.6,8,6.91,13,8.93L1439,275c6.69-4.05,14-8.08,20.09-12.93,4.33-3.41,8.6-7.15,11.12-12,2.61-5.06,3.12-10.9,3.52-16.57q1.72-24,2-48.14c0-3.73,0-7.56-1.34-11-3.06-7.63-12.27-11.29-20.45-10.53S1440.93,164.29,1434,168.78Z"/><path class="cls-7" d="M59.06,366.11,52.34,484.93a97.43,97.43,0,0,0,29.2-9.23l5.67-100.39A93.17,93.17,0,0,0,59.06,366.11Z"/><path class="cls-7" d="M41,364.87a47.32,47.32,0,0,0-11.59,1.46L22.65,485.2a120.52,120.52,0,0,0,28.69-.14l6.73-119.12A100.22,100.22,0,0,0,41,364.87Z"/><path class="cls-7" d="M105.21,387.53a90.4,90.4,0,0,0-17-11.7l-5.61,99.36a150.26,150.26,0,0,0,23.48-15c2.12-1.62,4.26-3.28,6.32-5.08l3.16-55.87A62.3,62.3,0,0,0,105.21,387.53Z"/><path class="cls-7" d="M113.43,454.21a36.78,36.78,0,0,0,9.4-12.56c5.75-13.29,1.52-28.76-6.37-41Z"/><path class="cls-2" d="M115.53,399.27l-3.16,55.87,1.06-.93,3-53.55C116.15,400.19,115.85,399.73,115.53,399.27Z"/><path class="cls-2" d="M87.21,375.31,81.54,475.7l1-.51,5.61-99.36C87.86,375.66,87.54,375.47,87.21,375.31Z"/><path class="cls-2" d="M58.07,365.94,51.34,485.06l1-.13,6.72-118.82Z"/><path class="cls-2" d="M31.76,324.12l-1-.06-2.4,42.58,1-.31Z"/><path class="cls-2" d="M28.36,366.64,21.66,485.1l1,.1,6.72-118.87Z"/><path class="cls-6" d="M-12.34,479.08c-8.06-1.79-16.75-4.48-21.81-12.61-5.62-9-4.87-22.41-.6-32.55s11.39-17.79,18.36-25.17l27.81-29.48c3.73-3.95,7.52-7.95,12-10.48C28.85,365.69,35,365,41,364.87c22.59-.51,45.65,6.44,64.25,22.66,14,12.16,25.75,35.33,17.62,54.12-3.61,8.35-10.34,13.65-16.78,18.57C65.08,491.53,35.14,489.59-12.34,479.08Z"/><circle class="cls-1" cx="44" cy="520" r="5"/><polygon class="cls-1" points="1287 264 1270 264 1270 247 1287 264"/><polygon class="cls-1" points="160 345 160 366 139 366 160 345"/><rect class="cls-6" width="1438" height="732"/><path class="cls-7" d="M23.38,368.79c-4.44,2.53-8.23,6.53-12,10.48L0,391.38v90.29c7.61,1.49,14.78,2.68,21.66,3.43l6.7-118.46A25.92,25.92,0,0,0,23.38,368.79Z"/><path class="cls-1" d="M1.49,235.88,0,235.9V470l1.49,0a117.09,117.09,0,0,0,0-234.17Z"/><path class="cls-4" d="M1.49,269.28c-.5,0-1,0-1.49,0V436.61c.5,0,1,0,1.49,0a83.69,83.69,0,0,0,0-167.37Z"/><path class="cls-4" d="M1439,252.69,1421.85,268l1,.42L1439,254Z"/><path class="cls-1" d="M1439,254l-16.12,14.4L1439,275l0,0Z"/><path class="cls-1" d="M1439,222l-40.33,36a48.26,48.26,0,0,0,7.59,3.67l15.59,6.37L1439,252.69Z"/><path class="cls-1" d="M1439,189.89l-48.17,43c0,2.38,0,4.75,0,7.12.05,4.36.17,8.95,2.4,12.69a15.39,15.39,0,0,0,4.54,4.69L1439,220.62Z"/><path class="cls-1" d="M1439,166.17a28.48,28.48,0,0,0-5,2.61c-16.34,10.67-33.73,22.65-40.08,41.1-2.39,6.94-3,14.29-3.11,21.67l48.15-43Z"/><polygon class="cls-1" points="1439 301.02 1364 371.59 1439 473.69 1439 301.02"/><path class="cls-7" d="M1439,291.66a74.37,74.37,0,1,1,0-143.39V117.81a104,104,0,1,0,0,204.31Z"/><path class="cls-4" d="M1439,188.54l-48.15,43c0,.45,0,.9,0,1.35l48.17-43Z"/><path class="cls-4" d="M1439,220.62l-41.19,36.78c.28.2.57.39.86.57L1439,222Z"/></svg>