<?xml version="1.0" encoding="UTF-8"?>
<svg width="187px" height="135px" viewBox="0 0 187 135" version="1.1" xmlns="http://www.w3.org/2000/svg" xmlns:xlink="http://www.w3.org/1999/xlink">
    <!-- Generator: Sketch 58 (84663) - https://sketch.com -->
    <title>Group 23</title>
    <desc>Created with Sketch.</desc>
    <defs>
        <linearGradient x1="104.5825%" y1="66.2972842%" x2="2.79870829%" y2="31.2890673%" id="linearGradient-1">
            <stop stop-color="#FFFFFF" stop-opacity="0" offset="0%"></stop>
            <stop stop-color="#DCDCF0" offset="100%"></stop>
        </linearGradient>
        <linearGradient x1="104.566421%" y1="66.2922732%" x2="2.81365314%" y2="31.2948206%" id="linearGradient-2">
            <stop stop-color="#FFFFFF" stop-opacity="0" offset="0%"></stop>
            <stop stop-color="#DCDCF0" offset="100%"></stop>
        </linearGradient>
    </defs>
    <g id="Page-1" stroke="none" stroke-width="1" fill="none" fill-rule="evenodd">
        <g id="Desktop-HD-Copy-8" transform="translate(-1059.000000, -1709.000000)">
            <g id="Group-23" transform="translate(1059.000000, 1709.000000)">
                <rect id="Rectangle-Copy-8" fill-opacity="0.1" fill="#FFFFFF" x="2.84217094e-14" y="0" width="187" height="135"></rect>
                <g id="Asset-9texture" transform="translate(44.000000, 5.000000)">
                    <polyline id="Path" fill="url(#linearGradient-1)" fill-rule="nonzero" points="104.836364 83.7038961 79.3168831 69.0857143 54.1636364 83.7038961 86.9844156 103.075325"></polyline>
                    <g id="Group" transform="translate(28.831169, 10.129870)" fill-rule="nonzero">
                        <polygon id="Path" fill="#167AF4" points="50.6727273 15.187013 25.5116883 29.8051948 0.194805195 15.187013 25.3480519 0.568831169"></polygon>
                        <polygon id="Path" fill="#1F0256" points="50.6727273 15.187013 50.587013 59.2831169 25.4337662 73.9012987 25.5116883 29.8051948"></polygon>
                        <polygon id="Path" fill="#A0D0FF" points="25.5116883 29.8051948 25.4337662 73.9012987 0.116883117 59.2831169 0.194805195 15.187013"></polygon>
                    </g>
                    <rect id="Rectangle" fill="#A0D0FF" fill-rule="nonzero" x="6.28831169" y="30.038961" width="7.11428571" height="7.11428571"></rect>
                    <rect id="Rectangle" fill="#A0D0FF" fill-rule="nonzero" x="16.0675325" y="38.7818182" width="3.04675325" height="3.04675325" rx="1.5"></rect>
                    <rect id="Rectangle" fill="#A0D0FF" fill-rule="nonzero" x="83.3454545" y="39.7792208" width="7.11428571" height="7.11428571"></rect>
                    <g id="Group" transform="translate(0.000000, 42.857143)" fill-rule="nonzero">
                        <polygon id="Path" fill="#E8E8F9" points="50.5558442 15.1012987 25.3948052 29.7194805 0.0779220779 15.1012987 25.2311688 0.483116883"></polygon>
                        <polygon id="Path" fill="#8C8C96" points="50.5558442 15.1012987 50.4779221 42.8103896 25.3168831 57.4285714 25.3948052 29.7194805"></polygon>
                        <polygon id="Path" fill="#C5C5DC" points="25.3948052 29.7194805 25.3168831 57.4285714 0 42.8103896 0.0779220779 15.1012987"></polygon>
                    </g>
                    <g id="Group" transform="translate(47.532468, 0.000000)">
                        <polygon id="Path" fill="#A0D0FF" fill-rule="nonzero" points="5.36883117 27.0935065 7.28571429 28.2077922 7.28571429 25.4025974 5.36883117 25.0909091"></polygon>
                        <path d="M6.71688312,21.8727273 L4.80779221,20.7662338 C5.34545455,21.0779221 6.11688312,20.9844156 7.07532468,20.4311688 C9.09350649,19.2623377 9.73246753,17.7818182 9.73246753,16.5350649 C9.73246753,15.8415584 9.58441558,15.3896104 9.18701299,15.1636364 L11.1038961,16.2701299 C11.4935065,16.5038961 11.6415584,16.9558442 11.6415584,17.6415584 C11.6415584,18.8961039 11.0103896,20.3844156 8.99220779,21.5376623 C8.02597403,22.0987013 7.25454545,22.1844156 6.71688312,21.8727273 Z" id="Path" fill="#A0D0FF" fill-rule="nonzero"></path>
                        <path d="M3.56103896,25.8467532 L1.65194805,24.7324675 C0.787012987,24.2337662 0.280519481,23.212987 0.179220779,21.7714286 L2.08831169,22.8857143 C2.1974026,24.3272727 2.6961039,25.3402597 3.56103896,25.8467532 Z" id="Path" fill="#A0D0FF" fill-rule="nonzero"></path>
                        <polygon id="Path" fill="#A0D0FF" fill-rule="nonzero" points="2.08831169 22.8857143 0.179220779 21.7714286 4.03636364 19.5428571 5.95324675 20.6571429"></polygon>
                        <path d="M8.64935065,5.77402597 L10.5584416,6.88831169 C10.9176024,7.1668225 11.1527276,7.57549251 11.212987,8.02597403 L9.3038961,6.91168831 C9.24203358,6.46175313 9.00723344,6.05364813 8.64935065,5.77402597 L8.64935065,5.77402597 Z" id="Path"></path>
                        <path d="M6.76363636,11.8519481 L4.85454545,10.7376623 C5.32987013,11.0181818 6.26493506,10.9168831 7.97142857,10.4727273 C9.98961039,9.96623377 11.3844156,9.95064935 12.2805195,10.4727273 L14.1896104,11.587013 C13.2935065,11.0649351 11.8987013,11.0805195 9.88051948,11.587013 C8.17402597,12.0311688 7.23896104,12.1246753 6.76363636,11.8519481 Z" id="Path" fill="#A0D0FF" fill-rule="nonzero"></path>
                        <path d="M11.774026,1.83896104 L13.6831169,2.95324675 C12.9038961,2.51688312 11.8285714,2.49350649 10.2623377,3.12467532 L8.35324675,2.01038961 C9.91948052,1.37922078 11.0181818,1.4025974 11.774026,1.83896104 Z" id="Path" fill="#A0D0FF" fill-rule="nonzero"></path>
                        <polygon id="Path" fill="#A0D0FF" fill-rule="nonzero" points="7.02077922 2.98441558 5.11168831 1.87012987 8.34545455 0 10.2623377 1.11428571"></polygon>
                        <g transform="translate(0.000000, 1.558442)" fill="#A0D0FF" fill-rule="nonzero" id="Path">
                            <polygon points="5.36103896 23.0181818 5.36883117 25.5350649 7.28571429 26.6493506 7.27792208 24.1324675"></polygon>
                            <path d="M11.1038961,14.7038961 L9.18701299,13.5974026 C9.58441558,13.8233766 9.72467532,14.2753247 9.73246753,14.9688312 C9.73246753,15.1246753 9.73246753,15.2805195 9.73246753,15.4441558 C9.73246753,15.6077922 9.73246753,15.6467532 9.67792208,15.7480519 C9.66340451,15.8190811 9.64519805,15.889306 9.62337662,15.9584416 C9.60880378,16.0217756 9.59059174,16.0842169 9.56883117,16.1454545 C9.55535982,16.1989333 9.53710441,16.2510916 9.51428571,16.3012987 L9.45194805,16.4571429 L9.35064935,16.5974026 C9.29868969,16.6910606 9.24690257,16.7845458 9.19495088,16.8780589 C9.17104248,16.929966 9.14234688,16.9795311 9.10923659,17.0261108 C9.10923659,17.0806563 9.03910672,17.1352018 9.00014568,17.181955 C8.96304639,17.2422115 8.92136488,17.2995236 8.87547036,17.3533836 L8.70404178,17.5637732 C8.6183275,17.6650719 8.52482101,17.7585784 8.43131451,17.8598771 C8.0194944,18.2515465 7.56159059,18.5917036 7.06767815,18.8728641 C6.88615828,18.9819526 6.69589433,19.0757814 6.49884698,19.1533836 C6.36460848,19.2118086 6.22664348,19.2612677 6.08585997,19.3014355 C5.99396209,19.3270877 5.90015485,19.345328 5.80534049,19.355981 L5.58715867,19.355981 L5.40014568,19.355981 L5.23650932,19.355981 L5.08066516,19.3170199 L4.94819763,19.2702667 L4.8157301,19.207929 L4.8157301,19.207929 L6.72482101,20.3144225 L6.72482101,20.3144225 L6.85728854,20.3845524 L6.99754828,20.4313057 L7.14560023,20.4313057 L7.30923659,20.4313057 L7.49624958,20.4313057 L7.7222236,20.4313057 C7.81691999,20.4162988 7.91060344,20.3954802 8.00274308,20.368968 C8.14410818,20.3339233 8.28226137,20.2870034 8.4157301,20.2287083 C8.61066793,20.1434977 8.80058676,20.0472375 8.98456127,19.9403966 C9.47937723,19.6642709 9.93531423,19.3236283 10.3404054,18.9274096 C10.4417041,18.8339031 10.5274184,18.7326044 10.6131327,18.6390979 L10.7845613,18.4287083 L10.9170288,18.2572797 L11.0183275,18.1014355 L11.111834,17.9533836 L11.1897561,17.8131238 L11.2598859,17.6728641 C11.3016994,17.5742112 11.3433439,17.475463 11.3849312,17.3766933 L11.4472688,17.213057 C11.4472688,17.1585115 11.4472688,17.0961739 11.5018143,17.0338362 L11.5563597,16.8156544 C11.5563597,16.7143557 11.5563597,16.613057 11.603113,16.5117583 C11.6147172,16.3535292 11.6147172,16.1946627 11.603113,16.0364336 C11.6415584,15.3896104 11.4935065,14.9376623 11.1038961,14.7038961 Z"></path>
                            <path d="M2.08831169,21.3272727 L0.179220779,20.212987 C0.280519481,21.6545455 0.787012987,22.6753247 1.65194805,23.174026 L3.56103896,24.2883117 C2.6961039,23.7818182 2.1974026,22.7688312 2.08831169,21.3272727 Z"></path>
                            <path d="M10.5584416,5.32987013 L8.64935065,4.21558442 C9.00723344,4.49520657 9.24203358,4.90331157 9.3038961,5.35324675 L11.212987,6.46753247 C11.1527276,6.01705095 10.9176024,5.60838094 10.5584416,5.32987013 L10.5584416,5.32987013 Z"></path>
                            <path d="M12.2961039,8.90649351 L12.2961039,8.90649351 C12.2152547,8.8628674 12.1320051,8.82384418 12.0467532,8.78961039 C11.9536806,8.7477674 11.8572322,8.71388013 11.7584416,8.68831169 C11.6410756,8.65152678 11.5213104,8.62288728 11.4,8.6025974 L10.9090909,8.57142857 L10.2935065,8.57142857 C10.0051948,8.57142857 9.69350649,8.61818182 9.36623377,8.66493506 C9.03896104,8.71168831 8.47792208,8.82857143 7.97922078,8.95324675 C7.34025974,9.11948052 6.8025974,9.23636364 6.36623377,9.3038961 C6.16257889,9.33778608 5.95696388,9.35860785 5.75064935,9.36623377 L5.45454545,9.36623377 C5.38725486,9.37431694 5.31923864,9.37431694 5.25194805,9.36623377 L5.0961039,9.36623377 L4.97922078,9.32727273 L4.88571429,9.28051948 L4.88571429,9.28051948 L6.79480519,10.3948052 L6.79480519,10.3948052 C6.82067003,10.4149075 6.84961494,10.4306956 6.88051948,10.4415584 L7.00519481,10.4883117 L7.15324675,10.4883117 L7.36363636,10.4883117 L7.68311688,10.4883117 C7.87012987,10.4883117 8.07272727,10.4883117 8.2987013,10.425974 C8.74285714,10.3558442 9.27272727,10.238961 9.91168831,10.0753247 C10.4103896,9.95064935 10.8779221,9.84935065 11.2987013,9.78701299 C11.6053395,9.7350404 11.9151329,9.70380073 12.225974,9.69350649 C12.430872,9.67789703 12.6366605,9.67789703 12.8415584,9.69350649 C12.9931247,9.70305477 13.1440206,9.72126635 13.2935065,9.74805195 C13.4146393,9.76573809 13.5344052,9.79177413 13.6519481,9.82597403 L13.9402597,9.92727273 L14.1974026,10.0519481 L14.1974026,10.0519481 L12.2961039,8.90649351 Z"></path>
                            <path d="M11.1584416,1.26233766 C11.3607567,1.20572514 11.5663321,1.1614874 11.774026,1.12987013 L12.2337662,1.08311688 C12.3557194,1.07531318 12.4780468,1.07531318 12.6,1.08311688 L12.9116883,1.08311688 L13.1844156,1.14545455 L13.4337662,1.23116883 L13.6597403,1.34025974 L13.6597403,1.34025974 L11.774026,0.280519481 L11.774026,0.280519481 C11.701185,0.236933484 11.625716,0.197897814 11.5480519,0.163636364 L11.2987013,0.0779220779 L11.0025974,0 L10.6909091,0 C10.5662338,0 10.4493506,0 10.3168831,0 L9.86493506,0 C9.67012987,0 9.45974026,0.0779220779 9.24935065,0.132467532 C8.94571206,0.218578204 8.64662792,0.320006738 8.35324675,0.436363636 L10.2623377,1.55844156 C10.5533611,1.43786541 10.8528732,1.33889619 11.1584416,1.26233766 L11.1584416,1.26233766 Z"></path>
                            <path d="M5.8987013,4.47272727 C6.24958925,4.11800165 6.62170324,3.78492059 7.01298701,3.47532468 L7.01298701,1.42597403 L5.1038961,0.311688312 L5.1038961,2.33766234 C4.71428571,2.64935065 4.32467532,2.98441558 3.98181818,3.33506494 C3.63896104,3.68571429 3.4987013,3.83376623 3.27272727,4.11428571 C3.04675325,4.39480519 2.94545455,4.4961039 2.7974026,4.69090909 C2.64935065,4.88571429 2.54805195,5.02597403 2.42337662,5.18961039 L2.12727273,5.64155844 L1.87012987,6.06233766 L1.64415584,6.45974026 C1.58181818,6.59220779 1.51168831,6.71688312 1.44935065,6.84935065 C1.38701299,6.98181818 1.32467532,7.11428571 1.27012987,7.24675325 C1.2089606,7.37639547 1.15434625,7.50903034 1.10649351,7.64415584 C1.05194805,7.78441558 0.997402597,7.92467532 0.950649351,8.06493506 C0.903896104,8.20519481 0.857142857,8.36883117 0.818181818,8.52467532 C0.779220779,8.68051948 0.724675325,8.87532468 0.685714286,9.05454545 C0.646753247,9.23376623 0.6,9.4987013 0.568831169,9.72467532 C0.528661938,10.0608645 0.507848397,10.3990846 0.506493506,10.7376623 C0.506493506,12.2025974 0.849350649,13.2233766 1.74545455,13.7454545 L3.65454545,14.8597403 C2.75844156,14.3376623 2.42337662,13.3012987 2.41558442,11.8519481 C2.41566036,11.5104873 2.43909167,11.1694317 2.48571429,10.8311688 C2.48571429,10.612987 2.54805195,10.387013 2.59480519,10.161039 C2.64155844,9.93506494 2.68051948,9.81038961 2.72727273,9.63116883 C2.77402597,9.45194805 2.81298701,9.32727273 2.86753247,9.17922078 C2.92207792,9.03116883 2.96103896,8.8987013 3.01558442,8.75844156 L3.17922078,8.35324675 C3.24155844,8.22077922 3.2961039,8.08831169 3.35844156,7.96363636 C3.42077922,7.83896104 3.49090909,7.6987013 3.56103896,7.57402597 C3.63116883,7.44935065 3.70909091,7.3012987 3.77922078,7.16883117 L4.03636364,6.75584416 L4.34025974,6.3038961 C4.45714286,6.13246753 4.58181818,5.96883117 4.70649351,5.80519481 C4.83116883,5.64155844 5.01818182,5.41558442 5.18181818,5.22857143 C5.34545455,5.04155844 5.65714286,4.71428571 5.8987013,4.47272727 Z"></path>
                        </g>
                        <path d="M10.2623377,1.11428571 L10.2623377,3.11688312 C13.6597403,1.75324675 14.8753247,3.45194805 15.0779221,5.78961039 L11.1818182,8.01818182 C10.9792208,7.23896104 10.6207792,6.05454545 8.53246753,7.23896104 C7.21769559,7.90188899 6.36061924,9.22023905 6.28831169,10.6909091 C6.28831169,12.0623377 6.94285714,12.3038961 9.86493506,11.5558442 C13.9402597,10.5194805 15.4831169,11.5558442 15.4909091,14.8597403 C15.4909091,18.3896104 13.5038961,21.5298701 10.5116883,23.7662338 L10.5116883,26.2909091 L7.28571429,28.2077922 L7.28571429,25.7142857 C4.16883117,26.9844156 2.31428571,25.8155844 2.0961039,22.9090909 L5.99220779,20.6805195 C6.31168831,22.1142857 7.4025974,22.5038961 9.03116883,21.561039 C11.0493506,20.4 11.6805195,18.9116883 11.6805195,17.6649351 C11.6805195,16.1064935 10.9714286,15.787013 8.43896104,16.4181818 C3.82597403,17.5558442 2.47012987,16.4181818 2.46233766,13.4415584 C2.46233766,10.2545455 4.48051948,7.11428571 7.06753247,5.06493506 L7.06753247,2.98441558 L10.2623377,1.11428571 Z" id="Path" fill="#1F0256" fill-rule="nonzero"></path>
                        <polygon id="Path" fill="#A0D0FF" fill-rule="nonzero" points="5.11168831 1.87012987 5.11168831 3.91948052 7.02857143 5.03376623 7.02077922 2.98441558"></polygon>
                    </g>
                    <polyline id="Path" fill="url(#linearGradient-2)" fill-rule="nonzero" points="75.9974026 100.285714 50.4779221 85.6675325 25.3168831 100.285714 58.1376623 119.657143"></polyline>
                </g>
            </g>
        </g>
    </g>
</svg>