<?xml version="1.0" encoding="UTF-8"?>
<svg width="682px" height="338px" viewBox="0 0 682 338" version="1.1" xmlns="http://www.w3.org/2000/svg" xmlns:xlink="http://www.w3.org/1999/xlink">
    <!-- Generator: Sketch 53.2 (72643) - https://sketchapp.com -->
    <title>Group 24</title>
    <desc>Created with Sketch.</desc>
    <defs>
        <path d="M6,0 L197.051502,8.8817842e-16 C200.365211,-1.44363618e-14 203.051502,2.6862915 203.051502,6 L203.051502,253 L0,253 L-8.8817842e-16,6 C-1.29399067e-15,2.6862915 2.6862915,1.4968968e-15 6,8.8817842e-16 Z" id="path-1"></path>
        <filter x="-13.3%" y="-8.3%" width="126.6%" height="121.3%" filterUnits="objectBoundingBox" id="filter-2">
            <feOffset dx="0" dy="6" in="SourceAlpha" result="shadowOffsetOuter1"></feOffset>
            <feGaussianBlur stdDeviation="8" in="shadowOffsetOuter1" result="shadowBlurOuter1"></feGaussianBlur>
            <feColorMatrix values="0 0 0 0 0   0 0 0 0 0   0 0 0 0 0  0 0 0 0.2 0" type="matrix" in="shadowBlurOuter1"></feColorMatrix>
        </filter>
        <rect id="path-3" x="13.0300429" y="66.2360515" width="82.5236052" height="28.2317597"></rect>
        <mask id="mask-4" maskContentUnits="userSpaceOnUse" maskUnits="objectBoundingBox" x="0" y="0" width="82.5236052" height="28.2317597" fill="white">
            <use xlink:href="#path-3"></use>
        </mask>
        <rect id="path-5" x="45.6051502" y="13.0300429" width="114.012876" height="23.888412"></rect>
        <mask id="mask-6" maskContentUnits="userSpaceOnUse" maskUnits="objectBoundingBox" x="0" y="0" width="114.012876" height="23.888412" fill="white">
            <use xlink:href="#path-5"></use>
        </mask>
        <rect id="path-7" x="13.0300429" y="107.497854" width="169.390558" height="32.5751073"></rect>
        <mask id="mask-8" maskContentUnits="userSpaceOnUse" maskUnits="objectBoundingBox" x="0" y="0" width="169.390558" height="32.5751073" fill="white">
            <use xlink:href="#path-7"></use>
        </mask>
        <rect id="path-9" x="13.0300429" y="157.446352" width="115.098712" height="28.2317597"></rect>
        <mask id="mask-10" maskContentUnits="userSpaceOnUse" maskUnits="objectBoundingBox" x="0" y="0" width="115.098712" height="28.2317597" fill="white">
            <use xlink:href="#path-9"></use>
        </mask>
        <rect id="path-11" x="13.0300429" y="208.480687" width="178.077253" height="39.0901288"></rect>
        <mask id="mask-12" maskContentUnits="userSpaceOnUse" maskUnits="objectBoundingBox" x="0" y="0" width="178.077253" height="39.0901288" fill="white">
            <use xlink:href="#path-11"></use>
        </mask>
        <rect id="path-13" x="67" y="0" width="155" height="44" rx="5"></rect>
        <filter x="-17.1%" y="-48.9%" width="134.2%" height="220.5%" filterUnits="objectBoundingBox" id="filter-14">
            <feOffset dx="0" dy="5" in="SourceAlpha" result="shadowOffsetOuter1"></feOffset>
            <feGaussianBlur stdDeviation="8" in="shadowOffsetOuter1" result="shadowBlurOuter1"></feGaussianBlur>
            <feComposite in="shadowBlurOuter1" in2="SourceAlpha" operator="out" result="shadowBlurOuter1"></feComposite>
            <feColorMatrix values="0 0 0 0 0.0180310236   0 0 0 0 0.0180310236   0 0 0 0 0.0180310236  0 0 0 0.12 0" type="matrix" in="shadowBlurOuter1"></feColorMatrix>
        </filter>
        <rect id="path-15" x="153" y="0" width="153" height="44" rx="5"></rect>
        <filter x="-17.3%" y="-48.9%" width="134.6%" height="220.5%" filterUnits="objectBoundingBox" id="filter-16">
            <feOffset dx="0" dy="5" in="SourceAlpha" result="shadowOffsetOuter1"></feOffset>
            <feGaussianBlur stdDeviation="8" in="shadowOffsetOuter1" result="shadowBlurOuter1"></feGaussianBlur>
            <feComposite in="shadowBlurOuter1" in2="SourceAlpha" operator="out" result="shadowBlurOuter1"></feComposite>
            <feColorMatrix values="0 0 0 0 0.0180310236   0 0 0 0 0.0180310236   0 0 0 0 0.0180310236  0 0 0 0.12 0" type="matrix" in="shadowBlurOuter1"></feColorMatrix>
        </filter>
        <rect id="path-17" x="31" y="108" width="147" height="44" rx="5"></rect>
        <filter x="-18.0%" y="-48.9%" width="136.1%" height="220.5%" filterUnits="objectBoundingBox" id="filter-18">
            <feOffset dx="0" dy="5" in="SourceAlpha" result="shadowOffsetOuter1"></feOffset>
            <feGaussianBlur stdDeviation="8" in="shadowOffsetOuter1" result="shadowBlurOuter1"></feGaussianBlur>
            <feComposite in="shadowBlurOuter1" in2="SourceAlpha" operator="out" result="shadowBlurOuter1"></feComposite>
            <feColorMatrix values="0 0 0 0 0.0180310236   0 0 0 0 0.0180310236   0 0 0 0 0.0180310236  0 0 0 0.12 0" type="matrix" in="shadowBlurOuter1"></feColorMatrix>
        </filter>
        <rect id="path-19" x="0" y="200" width="161" height="44" rx="5"></rect>
        <filter x="-16.5%" y="-48.9%" width="132.9%" height="220.5%" filterUnits="objectBoundingBox" id="filter-20">
            <feOffset dx="0" dy="5" in="SourceAlpha" result="shadowOffsetOuter1"></feOffset>
            <feGaussianBlur stdDeviation="8" in="shadowOffsetOuter1" result="shadowBlurOuter1"></feGaussianBlur>
            <feComposite in="shadowBlurOuter1" in2="SourceAlpha" operator="out" result="shadowBlurOuter1"></feComposite>
            <feColorMatrix values="0 0 0 0 0.0180310236   0 0 0 0 0.0180310236   0 0 0 0 0.0180310236  0 0 0 0.12 0" type="matrix" in="shadowBlurOuter1"></feColorMatrix>
        </filter>
    </defs>
    <g id="Page-4" stroke="none" stroke-width="1" fill="none" fill-rule="evenodd">
        <g id="Subscriptions-version-2" transform="translate(-136.000000, -2804.000000)">
            <g id="Bitmap" transform="translate(80.000000, 2684.000000)">
                <g id="Group-24" transform="translate(72.000000, 120.000000)">
                    <g id="Group-21">
                        <g id="Group-18">
                            <g id="Group-17">
                                <g id="Bitmap" transform="translate(59.000000, 28.037383)"></g>
                                <g id="Group-35">
                                    <path d="M78,0 L578,0 C582.418278,-8.11624501e-16 586,3.581722 586,8 L586,342 C586,344.209139 584.209139,346 582,346 L74,346 C71.790861,346 70,344.209139 70,342 L70,8 C70,3.581722 73.581722,8.11624501e-16 78,0 Z" id="Rectangle" fill="#FFE8B2"></path>
                                    <rect id="Rectangle-Copy-6" fill="#FFDD8F" x="105.196262" y="296" width="445" height="41"></rect>
                                    <rect id="Rectangle" fill="#FFDD8F" x="104.747664" y="69" width="445" height="189"></rect>
                                    <g id="Group-38" transform="translate(225.000000, 95.000000)">
                                        <g id="Group-28">
                                            <g id="Rectangle">
                                                <use fill="black" fill-opacity="1" filter="url(#filter-2)" xlink:href="#path-1"></use>
                                                <use fill="#FFFFFF" fill-rule="evenodd" xlink:href="#path-1"></use>
                                            </g>
                                            <use id="Rectangle" stroke="#CCCCD2" mask="url(#mask-4)" stroke-width="2" stroke-linejoin="bevel" stroke-dasharray="2,2" xlink:href="#path-3"></use>
                                            <use id="Rectangle-Copy-12" stroke="#CCCCD2" mask="url(#mask-6)" stroke-width="2" stroke-linejoin="bevel" stroke-dasharray="2,2" xlink:href="#path-5"></use>
                                            <use id="Rectangle-Copy-9" stroke="#CCCCD2" mask="url(#mask-8)" stroke-width="2" stroke-linejoin="bevel" stroke-dasharray="2,2" xlink:href="#path-7"></use>
                                            <use id="Rectangle-Copy-10" stroke="#CCCCD2" mask="url(#mask-10)" stroke-width="2" stroke-linejoin="bevel" stroke-dasharray="2,2" xlink:href="#path-9"></use>
                                            <rect id="Rectangle" fill="#E0E0E4" x="21.7167382" y="169.390558" width="76.0085837" height="4.34334764" rx="2.17167382"></rect>
                                            <use id="Rectangle-Copy-11" stroke="#CCCCD2" mask="url(#mask-12)" stroke-width="2" stroke-linejoin="bevel" stroke-dasharray="2,2" xlink:href="#path-11"></use>
                                            <path d="M87.5245002,28.3506513 C85.7532875,28.2830266 84.3528546,26.8515151 84.3528546,25.1086201 C84.3528546,23.3657251 85.7532875,21.9342136 87.5245002,21.8665889 C88.4552118,21.8522612 89.3393293,22.2661406 89.9147758,22.9855416 L88.9705921,23.8162052 C88.6121002,23.3863146 88.0843895,23.1268733 87.5195308,23.1028118 C86.4467251,23.1764414 85.6147046,24.0536377 85.6147046,25.1110632 C85.6147046,26.1684887 86.4467251,27.045685 87.5195308,27.1193146 C88.1041414,27.0979673 88.6495043,26.8244851 89.0103472,26.3717174 L90.0042248,27.163291 C89.4187088,27.9266838 88.4967551,28.3681406 87.5245002,28.3506513 Z M97.3241335,25.1012907 C97.3786004,23.3750633 98.8358565,22.0134793 100.591946,22.0480171 C102.348036,22.082555 103.748753,23.5003481 103.732973,25.2273364 C103.717193,26.9543247 102.290796,28.3471431 100.534358,28.3506513 C98.7358339,28.3238596 97.2992494,26.8697616 97.3241335,25.1012907 Z M102.412787,25.1012907 C102.316096,24.0996654 101.427544,23.3548086 100.406409,23.419381 C99.3852738,23.4839533 98.6010764,24.3345879 98.6356671,25.3401401 C98.6702578,26.3456923 99.5111192,27.1422799 100.534358,27.1388597 C101.064499,27.1311896 101.567631,26.9075492 101.923718,26.5212948 C102.279805,26.1350403 102.456913,25.6208107 102.412787,25.1012907 Z M111.516706,28.2578124 L111.516706,21.944769 L113.479614,21.944769 C115.467369,21.944769 116.699778,22.8584989 116.699778,25.0231106 C116.699778,27.0899971 115.467369,28.2626987 113.718145,28.2626987 L111.506767,28.2626987 L111.516706,28.2578124 Z M115.412706,25.0084518 C115.412706,23.6109825 114.741839,23.1321293 113.479614,23.1321293 L112.803777,23.1321293 L112.803777,27.0753383 L113.693298,27.0753383 C114.821349,27.0753383 115.427614,26.2935373 115.427614,25.0084518 L115.412706,25.0084518 Z M127.533044,26.7626179 L125.659584,26.7626179 L125.222278,28.2626987 L123.875574,28.2626987 L125.893146,21.9496552 L127.309421,21.9496552 L129.322023,28.2626987 L127.96538,28.2626987 L127.533044,26.7626179 Z M125.952778,25.7511628 L127.23488,25.7511628 L127.046044,25.0719732 C126.877084,24.4514186 126.663401,23.7087076 126.58886,23.3031483 C126.472319,23.9002536 126.323019,24.4907242 126.141615,25.0719732 L125.952778,25.7511628 Z M139.568901,28.3506513 C137.797689,28.2830266 136.397256,26.8515151 136.397256,25.1086201 C136.397256,23.3657251 137.797689,21.9342136 139.568901,21.8665889 C140.499613,21.8522612 141.383731,22.2661406 141.959177,22.9855416 L141.014993,23.8162052 C140.656502,23.3863146 140.128791,23.1268733 139.563932,23.1028118 C138.491126,23.1764414 137.659106,24.0536377 137.659106,25.1110632 C137.659106,26.1684887 138.491126,27.045685 139.563932,27.1193146 C140.148543,27.0979673 140.693906,26.8244851 141.054749,26.3717174 L142.048626,27.163291 C141.46311,27.9266838 140.541156,28.3681406 139.568901,28.3506513 Z M151.048188,28.2578124 L151.048188,25.5948026 L149.284055,21.9398827 L150.71027,21.9398827 L151.485494,23.8455228 C151.56306,24.0259889 151.631066,24.2102848 151.689239,24.3976698 C151.744004,24.2091831 151.812084,24.0246856 151.892984,23.8455228 L152.757657,21.9398827 L154.188841,21.9398827 L152.325321,25.6045751 L152.325321,28.2578124 L151.058127,28.2578124 L151.048188,28.2578124 Z M52.0828244,23.2005369 L49.2005793,22.4382809 C49.8846638,19.9345474 51.5525051,17.8006913 53.8370184,16.5063655 L55.3278348,19.0472189 C53.728656,19.9535721 52.5613289,21.4476445 52.0828244,23.2005369 Z M57.0124574,18.3631429 L56.2422022,15.5291142 C57.0804759,15.3106225 57.9441515,15.2005679 58.8113759,15.2017258 L58.8113759,18.1334889 C58.2041527,18.1331271 57.5994541,18.2103243 57.0124574,18.3631429 Z M60.6202331,18.3680292 L61.3954577,15.5340004 C63.9376136,16.2095521 66.1046451,17.8467218 67.4233254,20.0879915 L64.8392436,21.5538685 C63.9176358,19.9843144 62.400247,18.8385109 60.6202331,18.3680292 Z M48.8626609,24.974248 L48.8676303,24.974248 L51.8492632,24.974248 C51.8482727,25.5713523 51.9267938,26.1660143 52.0828244,26.7430729 L49.2005793,27.5004427 C48.9763023,26.6764864 48.8626974,25.8272048 48.8626609,24.974248 Z M50.1944569,29.8605046 L52.7785387,28.3946276 C53.0846962,28.9101949 53.4571554,29.3848139 53.8867123,29.8067557 L51.7747224,31.8785285 C51.160693,31.2765164 50.6294271,30.5980815 50.1944569,29.8605046 Z M53.8370184,33.4372443 L55.3278348,30.9012772 C56.3851829,31.502006 57.5852436,31.8172306 58.8064065,31.8150072 L58.8064065,34.7467711 C57.0614243,34.7492287 55.3468796,34.2974176 53.8370184,33.4372443 Z M64.8342742,28.3946276 L67.4133866,29.8605046 C66.0925587,32.1009415 63.9236996,33.7363855 61.3805495,34.4096094 L60.6102944,31.5755806 C62.3913003,31.1074291 63.910518,29.9633517 64.8342742,28.3946276 Z M68.417203,27.5981678 L65.5250192,26.8359118 C65.8422588,25.6740094 65.8422588,24.4503919 65.5250192,23.2884895 L68.417203,22.5311198 C68.8702754,24.1907601 68.8702754,25.9385275 68.417203,27.5981678 Z" id="Combined-Shape" fill="#00000A"></path>
                                            <path d="M4.91166579,45.0622318 L197.881309,45.0622318" id="Line" stroke="#EFEFF1" stroke-linecap="square"></path>
                                            <path d="M28.2063104,88.0206545 L27.0356424,88.0206545 L27.0356424,86.9263345 C24.5076784,86.7736387 22.9467878,85.4333087 22.9383047,83.4312969 L25.0081813,83.4312969 C25.0845292,84.3814042 25.8564914,85.0600523 27.0356424,85.1872988 L27.0356424,81.5734979 L26.2212648,81.3783865 C24.2616685,80.8948498 23.2012808,79.7411481 23.2012808,78.0445279 C23.2012808,76.0425161 24.643408,74.7276355 27.0356424,74.524041 L27.0356424,73.3533731 L28.2063104,73.3533731 L28.2063104,74.524041 C30.4712983,74.7276355 31.9473578,76.0849316 31.9897733,77.9936293 L29.9623122,77.9936293 C29.9368629,77.1198699 29.2242825,76.4242556 28.2063104,76.288526 L28.2063104,79.7241819 L29.0461373,79.902327 C31.200845,80.4028299 32.2273002,81.4971499 32.2273002,83.2870842 C32.2273002,85.3908932 30.7597237,86.7057739 28.2063104,86.9178514 L28.2063104,88.0206545 Z M30.1574236,83.5076448 C30.1574236,82.5999531 29.5466403,82.0570346 28.2063104,81.7940585 L28.2063104,85.204265 C29.4448431,85.1279171 30.1574236,84.5086508 30.1574236,83.5076448 Z M25.2966068,77.8663828 C25.2966068,78.6807605 25.8989069,79.2406451 27.0356424,79.4781719 L27.0356424,76.2800429 C26.0261534,76.3394246 25.2966068,77.0011065 25.2966068,77.8663828 Z M39.7535072,86.8669528 L39.7535072,84.5849987 L33.7729211,84.5849987 L33.7729211,82.6338855 C34.8757242,80.6064244 36.5977937,77.883349 38.7609844,74.6258383 L41.8488331,74.6258383 L41.8488331,82.7356827 L43.5030378,82.7356827 L43.5030378,84.5849987 L41.8488331,84.5849987 L41.8488331,86.8669528 L39.7535072,86.8669528 Z M35.8003822,82.6593348 L35.8003822,82.7865813 L39.7874396,82.7865813 L39.7874396,76.4072894 L39.6686762,76.4072894 C38.4980083,78.137842 37.2255432,80.1483369 35.8003822,82.6593348 Z M49.3835233,87.1638613 C47.1439847,87.1638613 45.4388814,85.8404976 45.074108,83.8300027 L47.254265,83.8300027 C47.5342073,84.7546607 48.348585,85.3315115 49.4004895,85.3315115 C51.1904238,85.3315115 52.2508114,83.6603407 52.2508114,80.8609174 L52.1065987,80.8609174 C51.5297478,82.0231022 50.367563,82.6932672 48.9339189,82.6932672 C46.6010662,82.6932672 44.904446,80.9796808 44.904446,78.6213788 C44.904446,76.1103809 46.7876944,74.3204466 49.4513881,74.3204466 C51.2413224,74.3204466 52.6580002,75.1687567 53.480861,76.7381304 C54.0492288,77.7476194 54.3461373,79.0540169 54.3461373,80.6064244 C54.3461373,84.7292114 52.4968213,87.1638613 49.3835233,87.1638613 Z M49.4598712,80.9542315 C50.8595828,80.9542315 51.886038,79.9532256 51.886038,78.5874464 C51.886038,77.2047009 50.8341335,76.1443133 49.4683543,76.1443133 C48.1025751,76.1443133 47.0506705,77.1877347 47.0506705,78.5535139 C47.0506705,79.9532256 48.0516765,80.9542315 49.4598712,80.9542315 Z M56.8079331,87.0450979 C56.0105216,87.0450979 55.450637,86.468247 55.450637,85.704768 C55.450637,84.9328058 56.0105216,84.364438 56.8079331,84.364438 C57.6138277,84.364438 58.1652293,84.9328058 58.1652293,85.704768 C58.1652293,86.468247 57.6138277,87.0450979 56.8079331,87.0450979 Z M64.0287486,87.1723444 C61.0935957,87.1723444 59.35456,84.7970762 59.35456,80.7336709 C59.35456,76.6872318 61.119045,74.3204466 64.0287486,74.3204466 C66.929969,74.3204466 68.694454,76.6872318 68.694454,80.7506371 C68.694454,84.7970762 66.9554184,87.1723444 64.0287486,87.1723444 Z M64.0287486,85.3569608 C65.581156,85.3569608 66.4803647,83.7451717 66.4803647,80.7336709 C66.4803647,77.7391363 65.5641898,76.1443133 64.0287486,76.1443133 C62.4933073,76.1443133 61.5686493,77.7476194 61.5686493,80.7336709 C61.5686493,83.7451717 62.4763411,85.3569608 64.0287486,85.3569608 Z M74.9227467,87.1723444 C71.9875938,87.1723444 70.2485581,84.7970762 70.2485581,80.7336709 C70.2485581,76.6872318 72.0130431,74.3204466 74.9227467,74.3204466 C77.8239671,74.3204466 79.5884521,76.6872318 79.5884521,80.7506371 C79.5884521,84.7970762 77.8494164,87.1723444 74.9227467,87.1723444 Z M74.9227467,85.3569608 C76.4751541,85.3569608 77.3743628,83.7451717 77.3743628,80.7336709 C77.3743628,77.7391363 76.4581879,76.1443133 74.9227467,76.1443133 C73.3873054,76.1443133 72.4626474,77.7476194 72.4626474,80.7336709 C72.4626474,83.7451717 73.3703392,85.3569608 74.9227467,85.3569608 Z" id="$49.00" fill="#00000A" fill-rule="nonzero"></path>
                                            <g id="Group-27" transform="translate(21.716738, 117.270386)"></g>
                                            <g id="Group-26" transform="translate(22.802575, 213.909871)"></g>
                                        </g>
                                        <rect id="Rectangle" fill="#E0E0E4" x="21.7167382" y="117.270386" width="76.0085837" height="4.34334764" rx="2.17167382"></rect>
                                        <rect id="Rectangle-Copy-7" fill="#E0E0E4" x="21.7167382" y="125.957082" width="152.017167" height="4.34334764" rx="2.17167382"></rect>
                                        <rect id="Rectangle" fill="#0DDF8F" x="22.8025751" y="213.909871" width="158.532189" height="29.3175966" rx="2"></rect>
                                        <rect id="Rectangle" fill="#FFFFFF" opacity="0.649999976" x="33.6609442" y="232.369099" width="137.901288" height="4.34334764" rx="2.17167382"></rect>
                                        <rect id="Rectangle-Copy-8" fill="#FFFFFF" opacity="0.649999976" x="77.0944206" y="221.51073" width="51.0343348" height="4.34334764" rx="2.17167382"></rect>
                                    </g>
                                    <circle id="Oval" fill="#F5CF76" cx="89.7383178" cy="14.953271" r="3.73831776"></circle>
                                    <circle id="Oval-Copy" fill="#F5CF76" cx="104.691589" cy="14.953271" r="3.73831776"></circle>
                                    <circle id="Oval-Copy-2" fill="#F5CF76" cx="119.64486" cy="14.953271" r="3.73831776"></circle>
                                    <path d="M305.298786,43.5279877 C302.398883,43.4172697 300.106035,41.073539 300.106035,38.2199981 C300.106035,35.3664572 302.398883,33.0227265 305.298786,32.9120085 C306.822587,32.8885506 308.270101,33.5661713 309.212246,34.7440049 L307.666389,36.1040022 C307.079451,35.4001673 306.215461,34.975399 305.29065,34.9360045 C303.534208,35.056554 302.171989,36.4927366 302.171989,38.2239981 C302.171989,39.9552596 303.534208,41.3914422 305.29065,41.5119917 C306.247799,41.4770409 307.14069,41.0292843 307.731478,40.287994 L309.358696,41.5839915 C308.400064,42.8338503 306.890603,43.5566219 305.298786,43.5279877 Z M321.343157,38.2079981 C321.432333,35.3817461 323.818214,33.1525036 326.693358,33.2090505 C329.568502,33.2655973 331.861814,35.5868677 331.835979,38.4143655 C331.810144,41.2418632 329.474785,43.522244 326.599072,43.5279877 C323.654453,43.4841232 321.302416,41.1034129 321.343157,38.2079981 Z M329.674514,38.2079981 C329.516209,36.5680951 328.061434,35.3485843 326.389589,35.4543049 C324.717743,35.5600255 323.433822,36.95272 323.490455,38.5990523 C323.547089,40.2453847 324.923782,41.5495914 326.599072,41.5439916 C327.467041,41.5314338 328.29079,41.1652805 328.873791,40.5328884 C329.456791,39.9004964 329.746759,39.058578 329.674514,38.2079981 Z M344.579833,43.375988 L344.579833,33.0400082 L347.793589,33.0400082 C351.048025,33.0400082 353.065775,34.5360053 353.065775,38.0799984 C353.065775,41.4639917 351.048025,43.383988 348.184121,43.383988 L344.563561,43.383988 L344.579833,43.375988 Z M350.958528,38.0559984 C350.958528,35.7680029 349.860156,34.9840044 347.793589,34.9840044 L346.68708,34.9840044 L346.68708,41.4399918 L348.143441,41.4399918 C349.990333,41.4399918 350.982936,40.1599943 350.982936,38.0559984 L350.958528,38.0559984 Z M370.802453,40.9279928 L367.735147,40.9279928 L367.019171,43.383988 L364.814291,43.383988 L368.117543,33.0480082 L370.436329,33.0480082 L373.731446,43.383988 L371.510293,43.383988 L370.802453,40.9279928 Z M368.215177,39.271996 L370.314288,39.271996 L370.005117,38.1599982 C369.728489,37.1440002 369.378638,35.9280026 369.256596,35.2640039 C369.06579,36.2416097 368.82135,37.208353 368.524348,38.1599982 L368.215177,39.271996 Z M390.508065,43.5279877 C387.608162,43.4172697 385.315314,41.073539 385.315314,38.2199981 C385.315314,35.3664572 387.608162,33.0227265 390.508065,32.9120085 C392.031865,32.8885506 393.47938,33.5661713 394.421525,34.7440049 L392.875668,36.1040022 C392.28873,35.4001673 391.42474,34.975399 390.499929,34.9360045 C388.743487,35.056554 387.381268,36.4927366 387.381268,38.2239981 C387.381268,39.9552596 388.743487,41.3914422 390.499929,41.5119917 C391.457078,41.4770409 392.349969,41.0292843 392.940756,40.287994 L394.567975,41.5839915 C393.609343,42.8338503 392.099882,43.5566219 390.508065,43.5279877 Z M409.302435,43.375988 L409.302435,39.0159965 L406.414123,33.0320083 L408.749181,33.0320083 L410.018411,36.1520021 C410.145406,36.4474688 410.256748,36.7492059 410.351991,37.0560004 C410.441654,36.7474021 410.553118,36.4453351 410.68557,36.1520021 L412.10125,33.0320083 L414.444444,33.0320083 L411.39341,39.0319965 L411.39341,43.375988 L409.318707,43.375988 L409.302435,43.375988 Z M247.272187,35.0960042 L242.553254,33.8480067 C243.673266,29.7487891 246.403926,26.2551503 250.144227,24.1360257 L252.585054,28.2960175 C249.966811,29.7799371 248.055614,32.2260952 247.272187,35.0960042 Z M255.343189,27.1760197 L254.082095,22.5360288 C255.454552,22.1783051 256.868598,21.9981191 258.288454,22.0000148 L258.288454,26.8000204 C257.294283,26.7994281 256.304245,26.9258186 255.343189,27.1760197 Z M261.249991,27.1840197 L262.519221,22.5440288 C266.681345,23.6500704 270.2293,26.3305133 272.388299,30.0000142 L268.157532,32.4000095 C266.648637,29.8302698 264.164304,27.9543122 261.249991,27.1840197 Z M242,37.9999985 L242.008136,37.9999985 L246.889791,37.9999985 C246.888169,38.9776027 247.016727,39.9512083 247.272187,40.8959929 L242.553254,42.1359904 C242.186058,40.7869747 242.00006,39.3964952 242,37.9999985 Z M244.180472,45.9999829 L248.41124,43.5999876 C248.912493,44.444096 249.522299,45.2211621 250.225588,45.911983 L246.767749,49.3039764 C245.762435,48.3183369 244.892624,47.2075747 244.180472,45.9999829 Z M250.144227,51.8559714 L252.585054,47.7039795 C254.316189,48.687518 256.280979,49.203617 258.280318,49.1999766 L258.280318,53.9999837 C255.42336,54.0040073 252.616235,53.2642831 250.144227,51.8559714 Z M268.149396,43.5999876 L272.372027,45.9999829 C270.209512,49.6681203 266.658565,52.3457379 262.494813,53.4479683 L261.233719,48.8079774 C264.149656,48.0415001 266.636983,46.1683685 268.149396,43.5999876 Z M274.015517,42.2959901 L269.280312,41.0479926 C269.79971,39.1456772 269.79971,37.1423193 269.280312,35.2400039 L274.015517,34.0000064 C274.757306,36.7172392 274.757306,39.5787573 274.015517,42.2959901 Z" id="Combined-Shape" fill="#00000A"></path>
                                    <path d="M519,321 L519,86.7452081" id="Line-5" stroke="#00000A" stroke-linecap="square" stroke-dasharray="2,3"></path>
                                    <g id="Group-30" transform="translate(403.000000, 42.000000)">
                                        <path d="M0,78.3665024 L35.6590909,78.3665024" id="Line-2" stroke="#00000A" stroke-linecap="square" stroke-dasharray="2,3"></path>
                                        <path d="M36.375,77.1376731 L36.375,35" id="Line-3" stroke="#00000A" stroke-linecap="square" stroke-dasharray="2,3"></path>
                                        <path d="M36.5380435,35 L67.6054449,35" id="Line-4" stroke="#00000A" stroke-linecap="square" stroke-dasharray="2,3"></path>
                                        <g id="Rectangle">
                                            <use fill="black" fill-opacity="1" filter="url(#filter-14)" xlink:href="#path-13"></use>
                                            <rect stroke="#00000A" stroke-width="1" stroke-linejoin="square" fill="#FFFFFF" fill-rule="evenodd" x="67.5" y="0.5" width="154" height="43" rx="5"></rect>
                                        </g>
                                        <path d="M103.296,28 L103.296,16.8 L107.648,16.8 C109.872,16.8 111.2,17.872 111.2,19.52 C111.2,20.752 110.384,21.552 109.472,21.936 C110.704,22.4 111.664,23.184 111.664,24.672 C111.664,26.752 109.84,28 107.712,28 L103.296,28 Z M105.024,22.816 L105.024,26.496 L107.536,26.496 C109.008,26.496 109.904,25.904 109.904,24.656 C109.904,23.408 109.008,22.816 107.536,22.816 L105.024,22.816 Z M105.024,18.304 L105.024,21.312 L107.52,21.312 C108.768,21.312 109.536,20.864 109.536,19.808 C109.536,18.752 108.768,18.304 107.52,18.304 L105.024,18.304 Z M117.304,19.92 L117.032,21.472 C116.824,21.408 116.632,21.376 116.408,21.376 C115.256,21.376 114.424,22.416 114.424,23.824 L114.424,28 L112.792,28 L112.792,20.064 L114.424,20.064 L114.424,21.408 C114.856,20.48 115.624,19.84 116.712,19.84 C116.92,19.84 117.096,19.872 117.304,19.92 Z M124.8,28 L123.168,28 C122.976,27.776 122.752,27.344 122.72,26.608 C122.208,27.664 121.248,28.224 120.08,28.224 C118.48,28.224 117.376,27.216 117.376,25.776 C117.376,24.176 118.656,23.408 120.176,23.168 L122.688,22.768 L122.688,22.432 C122.688,21.52 122.112,21.056 121.024,21.056 C119.904,21.056 119.376,21.536 119.376,22.096 C119.376,22.176 119.376,22.208 119.408,22.336 L117.952,22.832 C117.856,22.608 117.824,22.4 117.824,22.192 C117.824,20.96 119.024,19.84 121.024,19.84 C123.184,19.84 124.32,20.8 124.32,22.528 L124.32,26.016 C124.32,26.928 124.448,27.408 124.8,28 Z M120.336,26.864 C121.76,26.864 122.688,25.712 122.688,24.192 L122.688,23.968 L120.544,24.336 C119.552,24.512 119.008,24.944 119.008,25.68 C119.008,26.4 119.536,26.864 120.336,26.864 Z M132.872,22.608 L132.872,28 L131.24,28 L131.24,23.088 C131.24,22 130.6,21.344 129.48,21.344 C128.344,21.344 127.4,22.304 127.4,23.808 L127.4,28 L125.768,28 L125.768,20.064 L127.4,20.064 L127.4,21.392 C127.96,20.464 128.952,19.84 130.104,19.84 C131.656,19.84 132.872,20.816 132.872,22.608 Z M142.048,16.8 L142.048,28 L140.416,28 L140.416,26.72 C139.904,27.616 139.008,28.224 137.792,28.224 C135.616,28.224 133.936,26.576 133.936,24.032 C133.936,21.488 135.792,19.84 137.76,19.84 C139.008,19.84 139.952,20.384 140.416,21.264 L140.416,16.8 L142.048,16.8 Z M138.064,26.72 C139.424,26.72 140.528,25.632 140.528,24.032 C140.528,22.432 139.424,21.344 138.064,21.344 C136.704,21.344 135.6,22.432 135.6,24.032 C135.6,25.632 136.704,26.72 138.064,26.72 Z M147.68,28 L147.68,16.8 L155.04,16.8 L155.04,18.336 L149.408,18.336 L149.408,21.44 L154.592,21.44 L154.592,22.976 L149.408,22.976 L149.408,26.464 L155.088,26.464 L155.088,28 L147.68,28 Z M157.704,21.984 C157.704,22.656 158.424,23.008 159.688,23.248 C161.48,23.6 162.36,24.32 162.36,25.648 C162.36,27.056 161.24,28.224 159.288,28.224 C157.416,28.224 156.264,27.12 155.784,25.872 L157.112,25.04 C157.496,26.08 158.232,26.832 159.304,26.832 C160.136,26.832 160.808,26.384 160.808,25.696 C160.808,25.024 160.216,24.72 158.936,24.464 C157.448,24.16 156.232,23.472 156.232,22.064 C156.232,20.64 157.576,19.84 159.064,19.84 C160.744,19.84 161.688,20.512 162.248,21.808 L161.048,22.512 C160.68,21.568 159.944,21.088 159.096,21.088 C158.344,21.088 157.704,21.424 157.704,21.984 Z M164.88,21.984 C164.88,22.656 165.6,23.008 166.864,23.248 C168.656,23.6 169.536,24.32 169.536,25.648 C169.536,27.056 168.416,28.224 166.464,28.224 C164.592,28.224 163.44,27.12 162.96,25.872 L164.288,25.04 C164.672,26.08 165.408,26.832 166.48,26.832 C167.312,26.832 167.984,26.384 167.984,25.696 C167.984,25.024 167.392,24.72 166.112,24.464 C164.624,24.16 163.408,23.472 163.408,22.064 C163.408,20.64 164.752,19.84 166.24,19.84 C167.92,19.84 168.864,20.512 169.424,21.808 L168.224,22.512 C167.856,21.568 167.12,21.088 166.272,21.088 C165.52,21.088 164.88,21.424 164.88,21.984 Z M178.04,24.384 L171.752,24.384 C171.816,25.792 172.76,26.8 174.168,26.8 C175.464,26.8 176.072,26.096 176.536,25.152 L177.8,25.904 C177.064,27.424 175.912,28.224 174.12,28.224 C171.944,28.224 170.12,26.512 170.12,24.032 C170.12,21.552 171.944,19.84 174.2,19.84 C176.504,19.84 178.04,21.488 178.04,23.808 L178.04,24.384 Z M174.168,21.152 C172.984,21.152 172.056,21.984 171.752,23.136 L176.488,23.136 C176.36,21.84 175.272,21.152 174.168,21.152 Z M186.32,22.608 L186.32,28 L184.688,28 L184.688,23.088 C184.688,22 184.048,21.344 182.928,21.344 C181.792,21.344 180.848,22.304 180.848,23.808 L180.848,28 L179.216,28 L179.216,20.064 L180.848,20.064 L180.848,21.392 C181.408,20.464 182.4,19.84 183.552,19.84 C185.104,19.84 186.32,20.816 186.32,22.608 Z M186.824,21.376 L186.824,20.064 L188.104,20.064 L188.104,17.92 L189.736,17.92 L189.736,20.064 L191.512,20.064 L191.512,21.376 L189.736,21.376 L189.736,25.584 C189.736,26.368 190.056,26.752 190.824,26.752 C191,26.752 191.256,26.704 191.416,26.656 L191.56,28.032 C191.256,28.144 190.84,28.224 190.376,28.224 C189.176,28.224 188.104,27.68 188.104,25.872 L188.104,21.376 L186.824,21.376 Z M192.592,28 L192.592,20.064 L194.224,20.064 L194.224,28 L192.592,28 Z M192.48,18.8 L192.48,16.96 L194.336,16.96 L194.336,18.8 L192.48,18.8 Z M202.76,28 L201.128,28 C200.936,27.776 200.712,27.344 200.68,26.608 C200.168,27.664 199.208,28.224 198.04,28.224 C196.44,28.224 195.336,27.216 195.336,25.776 C195.336,24.176 196.616,23.408 198.136,23.168 L200.648,22.768 L200.648,22.432 C200.648,21.52 200.072,21.056 198.984,21.056 C197.864,21.056 197.336,21.536 197.336,22.096 C197.336,22.176 197.336,22.208 197.368,22.336 L195.912,22.832 C195.816,22.608 195.784,22.4 195.784,22.192 C195.784,20.96 196.984,19.84 198.984,19.84 C201.144,19.84 202.28,20.8 202.28,22.528 L202.28,26.016 C202.28,26.928 202.408,27.408 202.76,28 Z M198.296,26.864 C199.72,26.864 200.648,25.712 200.648,24.192 L200.648,23.968 L198.504,24.336 C197.512,24.512 196.968,24.944 196.968,25.68 C196.968,26.4 197.496,26.864 198.296,26.864 Z M203.744,28 L203.744,16.8 L205.376,16.8 L205.376,28 L203.744,28 Z M208.344,21.984 C208.344,22.656 209.064,23.008 210.328,23.248 C212.12,23.6 213,24.32 213,25.648 C213,27.056 211.88,28.224 209.928,28.224 C208.056,28.224 206.904,27.12 206.424,25.872 L207.752,25.04 C208.136,26.08 208.872,26.832 209.944,26.832 C210.776,26.832 211.448,26.384 211.448,25.696 C211.448,25.024 210.856,24.72 209.576,24.464 C208.088,24.16 206.872,23.472 206.872,22.064 C206.872,20.64 208.216,19.84 209.704,19.84 C211.384,19.84 212.328,20.512 212.888,21.808 L211.688,22.512 C211.32,21.568 210.584,21.088 209.736,21.088 C208.984,21.088 208.344,21.424 208.344,21.984 Z" id="BrandEssentials" fill="#00001E" fill-rule="nonzero"></path>
                                        <g id="format-color-fill" transform="translate(75.000000, 18.000000)"></g>
                                    </g>
                                    <path d="M419,321.366502 L518.05303,321.366502" id="Line-2" stroke="#00000A" stroke-linecap="square" stroke-dasharray="2,3"></path>
                                    <g id="Group-29" transform="translate(344.000000, 140.000000)">
                                        <path d="M0,37.3665024 L95.0909091,37.3665024" id="Line-2" stroke="#00000A" stroke-linecap="square" stroke-dasharray="2,3"></path>
                                        <path d="M95.375,37.5296399 L95.375,14.5454545" id="Line-3" stroke="#00000A" stroke-linecap="square" stroke-dasharray="2,3"></path>
                                        <path d="M96.0271739,14 L155.337668,14" id="Line-4" stroke="#00000A" stroke-linecap="square" stroke-dasharray="2,3"></path>
                                        <g id="Rectangle-Copy-13">
                                            <use fill="black" fill-opacity="1" filter="url(#filter-16)" xlink:href="#path-15"></use>
                                            <rect stroke="#00000A" stroke-width="1" stroke-linejoin="square" fill="#FFFFFF" fill-rule="evenodd" x="153.5" y="0.5" width="152" height="43" rx="5"></rect>
                                        </g>
                                        <path d="M198.936,24.336 L200.264,25.28 C199.096,27.184 197.784,28.224 195.368,28.224 C192.184,28.224 189.816,25.824 189.816,22.4 C189.816,18.976 192.344,16.576 195.448,16.576 C197.736,16.576 199.464,17.776 200.232,19.472 L198.856,20.464 C198.056,18.912 196.952,18.144 195.416,18.144 C193.304,18.144 191.576,19.936 191.576,22.4 C191.576,24.832 193.192,26.656 195.4,26.656 C196.904,26.656 198.088,25.936 198.936,24.336 Z M209.232,24.032 C209.232,26.784 207.072,28.224 204.992,28.224 C202.912,28.224 200.752,26.784 200.752,24.032 C200.752,21.28 202.912,19.84 204.992,19.84 C207.072,19.84 209.232,21.28 209.232,24.032 Z M204.992,26.72 C206.384,26.72 207.568,25.648 207.568,24.032 C207.568,22.416 206.384,21.344 204.992,21.344 C203.6,21.344 202.416,22.416 202.416,24.032 C202.416,25.648 203.6,26.72 204.992,26.72 Z M217.48,22.608 L217.48,28 L215.848,28 L215.848,23.088 C215.848,22 215.208,21.344 214.088,21.344 C212.952,21.344 212.008,22.304 212.008,23.808 L212.008,28 L210.376,28 L210.376,20.064 L212.008,20.064 L212.008,21.392 C212.568,20.464 213.56,19.84 214.712,19.84 C216.264,19.84 217.48,20.816 217.48,22.608 Z M223.856,28 L223.856,21.376 L220.752,21.376 L220.752,28 L219.12,28 L219.12,21.376 L217.92,21.376 L217.92,20.064 L219.12,20.064 L219.12,18.672 C219.12,16.992 220.144,16 221.76,16 C222.064,16 222.368,16.048 222.656,16.144 L222.368,17.552 C222.176,17.488 222,17.472 221.824,17.472 C221.168,17.472 220.752,17.904 220.752,18.704 L220.752,20.064 L225.488,20.064 L225.488,28 L223.856,28 Z M223.744,18.8 L223.744,16.96 L225.6,16.96 L225.6,18.8 L223.744,18.8 Z M227.176,28.096 L228.76,28.544 C228.68,28.704 228.632,28.88 228.632,29.12 C228.632,29.712 229.4,30.144 230.616,30.144 C232.104,30.144 232.856,29.36 232.856,27.744 L232.856,26.496 C232.456,27.28 231.592,27.872 230.44,27.872 C228.36,27.872 226.616,26.272 226.616,23.856 C226.616,21.408 228.36,19.84 230.392,19.84 C231.496,19.84 232.408,20.4 232.856,21.152 L232.856,20.064 L234.488,20.064 L234.488,27.52 C234.488,30.064 233.016,31.488 230.616,31.488 C228.296,31.488 226.968,30.496 226.968,28.992 C226.968,28.624 227.048,28.336 227.176,28.096 Z M230.6,21.296 C229.288,21.296 228.248,22.224 228.248,23.856 C228.248,25.488 229.288,26.416 230.6,26.416 C231.912,26.416 232.952,25.488 232.952,23.856 C232.952,22.224 231.912,21.296 230.6,21.296 Z M236,25.168 L236,20.064 L237.632,20.064 L237.632,24.832 C237.632,26.064 238.272,26.72 239.392,26.72 C240.56,26.72 241.472,25.728 241.472,24.352 L241.472,20.064 L243.104,20.064 L243.104,28 L241.472,28 L241.472,26.72 C240.96,27.664 240.048,28.224 238.896,28.224 C237.344,28.224 236,27.264 236,25.168 Z M249.176,19.92 L248.904,21.472 C248.696,21.408 248.504,21.376 248.28,21.376 C247.128,21.376 246.296,22.416 246.296,23.824 L246.296,28 L244.664,28 L244.664,20.064 L246.296,20.064 L246.296,21.408 C246.728,20.48 247.496,19.84 248.584,19.84 C248.792,19.84 248.968,19.872 249.176,19.92 Z M257.04,24.384 L250.752,24.384 C250.816,25.792 251.76,26.8 253.168,26.8 C254.464,26.8 255.072,26.096 255.536,25.152 L256.8,25.904 C256.064,27.424 254.912,28.224 253.12,28.224 C250.944,28.224 249.12,26.512 249.12,24.032 C249.12,21.552 250.944,19.84 253.2,19.84 C255.504,19.84 257.04,21.488 257.04,23.808 L257.04,24.384 Z M253.168,21.152 C251.984,21.152 251.056,21.984 250.752,23.136 L255.488,23.136 C255.36,21.84 254.272,21.152 253.168,21.152 Z M262.208,28 L262.208,16.8 L267.104,16.8 C269.552,16.8 271.136,18.128 271.136,20.368 C271.136,22.608 269.552,23.936 267.104,23.936 L263.936,23.936 L263.936,28 L262.208,28 Z M263.936,18.336 L263.936,22.4 L267.04,22.4 C268.592,22.4 269.408,21.616 269.408,20.368 C269.408,19.12 268.592,18.336 267.04,18.336 L263.936,18.336 Z M272.168,28 L272.168,16.8 L273.8,16.8 L273.8,28 L272.168,28 Z M282.368,28 L280.736,28 C280.544,27.776 280.32,27.344 280.288,26.608 C279.776,27.664 278.816,28.224 277.648,28.224 C276.048,28.224 274.944,27.216 274.944,25.776 C274.944,24.176 276.224,23.408 277.744,23.168 L280.256,22.768 L280.256,22.432 C280.256,21.52 279.68,21.056 278.592,21.056 C277.472,21.056 276.944,21.536 276.944,22.096 C276.944,22.176 276.944,22.208 276.976,22.336 L275.52,22.832 C275.424,22.608 275.392,22.4 275.392,22.192 C275.392,20.96 276.592,19.84 278.592,19.84 C280.752,19.84 281.888,20.8 281.888,22.528 L281.888,26.016 C281.888,26.928 282.016,27.408 282.368,28 Z M277.904,26.864 C279.328,26.864 280.256,25.712 280.256,24.192 L280.256,23.968 L278.112,24.336 C277.12,24.512 276.576,24.944 276.576,25.68 C276.576,26.4 277.104,26.864 277.904,26.864 Z M290.44,22.608 L290.44,28 L288.808,28 L288.808,23.088 C288.808,22 288.168,21.344 287.048,21.344 C285.912,21.344 284.968,22.304 284.968,23.808 L284.968,28 L283.336,28 L283.336,20.064 L284.968,20.064 L284.968,21.392 C285.528,20.464 286.52,19.84 287.672,19.84 C289.224,19.84 290.44,20.816 290.44,22.608 Z M293.232,21.984 C293.232,22.656 293.952,23.008 295.216,23.248 C297.008,23.6 297.888,24.32 297.888,25.648 C297.888,27.056 296.768,28.224 294.816,28.224 C292.944,28.224 291.792,27.12 291.312,25.872 L292.64,25.04 C293.024,26.08 293.76,26.832 294.832,26.832 C295.664,26.832 296.336,26.384 296.336,25.696 C296.336,25.024 295.744,24.72 294.464,24.464 C292.976,24.16 291.76,23.472 291.76,22.064 C291.76,20.64 293.104,19.84 294.592,19.84 C296.272,19.84 297.216,20.512 297.776,21.808 L296.576,22.512 C296.208,21.568 295.472,21.088 294.624,21.088 C293.872,21.088 293.232,21.424 293.232,21.984 Z" id="ConfgurePlans" fill="#00001E" fill-rule="nonzero"></path>
                                        <path d="M171,25.5 C169.067003,25.5 167.5,23.9329966 167.5,22 C167.5,20.0670034 169.067003,18.5 171,18.5 C172.932997,18.5 174.5,20.0670034 174.5,22 C174.5,23.9329966 172.932997,25.5 171,25.5 L171,25.5 Z M178.43,22.97 C178.47,22.65 178.5,22.33 178.5,22 C178.5,21.67 178.47,21.34 178.43,21 L180.54,19.37 C180.73,19.22 180.78,18.95 180.66,18.73 L178.66,15.27 C178.54,15.05 178.27,14.96 178.05,15.05 L175.56,16.05 C175.04,15.66 174.5,15.32 173.87,15.07 L173.5,12.42 C173.46,12.18 173.25,12 173,12 L169,12 C168.75,12 168.54,12.18 168.5,12.42 L168.13,15.07 C167.5,15.32 166.96,15.66 166.44,16.05 L163.95,15.05 C163.73,14.96 163.46,15.05 163.34,15.27 L161.34,18.73 C161.21,18.95 161.27,19.22 161.46,19.37 L163.57,21 C163.53,21.34 163.5,21.67 163.5,22 C163.5,22.33 163.53,22.65 163.57,22.97 L161.46,24.63 C161.27,24.78 161.21,25.05 161.34,25.27 L163.34,28.73 C163.46,28.95 163.73,29.03 163.95,28.95 L166.44,27.94 C166.96,28.34 167.5,28.68 168.13,28.93 L168.5,31.58 C168.54,31.82 168.75,32 169,32 L173,32 C173.25,32 173.46,31.82 173.5,31.58 L173.87,28.93 C174.5,28.67 175.04,28.34 175.56,27.94 L178.05,28.95 C178.27,29.03 178.54,28.95 178.66,28.73 L180.66,25.27 C180.78,25.05 180.73,24.78 180.54,24.63 L178.43,22.97 Z" id="Shape" fill="#3367D6" fill-rule="nonzero"></path>
                                    </g>
                                    <path d="M201,224.366502 L236.659091,224.366502" id="Line-2" stroke="#00000A" stroke-linecap="square" stroke-dasharray="2,3"></path>
                                    <path d="M200.375,224.157756 L200.375,134.136364" id="Line-3" stroke="#00000A" stroke-linecap="square" stroke-dasharray="2,3"></path>
                                    <path d="M178.375,134 L200.028037,134" id="Line-4" stroke="#00000A" stroke-linecap="square" stroke-dasharray="2,3"></path>
                                    <path d="M495.0025,67.5 C495.0025,67.5 493.0025,69.67 493.0025,71 C493.0025,72.1045695 493.897931,73 495.0025,73 C496.107069,73 497.0025,72.1045695 497.0025,71 C497.0025,69.67 495.0025,67.5 495.0025,67.5 L495.0025,67.5 Z M481.2125,66 L486.0025,61.21 L490.7925,66 L481.2125,66 Z M492.5625,64.94 L483.6225,56 L482.2125,57.41 L484.5925,59.79 L479.4425,64.94 C478.8525,65.5 478.8525,66.47 479.4425,67.06 L484.9425,72.56 C485.2325,72.85 485.6225,73 486.0025,73 C486.3825,73 486.7725,72.85 487.0625,72.56 L492.5625,67.06 C493.1525,66.47 493.1525,65.5 492.5625,64.94 Z" id="Shape" fill="#FF7846" fill-rule="nonzero"></path>
                                    <g id="Rectangle-Copy-13">
                                        <use fill="black" fill-opacity="1" filter="url(#filter-18)" xlink:href="#path-17"></use>
                                        <rect stroke="#00000A" stroke-width="1" stroke-linejoin="square" fill="#FFFFFF" fill-rule="evenodd" x="31.5" y="108.5" width="146" height="43" rx="5"></rect>
                                    </g>
                                    <path d="M41,120 L57,120 C58.1045695,120 59,120.895431 59,122 L59,134 C59,135.104569 58.1045695,136 57,136 L53,136 L49,140 L45,136 L41,136 C39.8954305,136 39,135.104569 39,134 L39,122 C39,120.895431 39.8954305,120 41,120 L41,120 Z M55,132 L55,130 L49.5,130 L47.5,132 L55,132 L55,132 Z M43,132 L45.5,132 L52.35,125.12 C52.55,124.93 52.55,124.61 52.35,124.41 L50.59,122.65 C50.39,122.45 50.07,122.45 49.88,122.65 L43,129.53 L43,132 Z" id="Shape" fill="#FFB400" fill-rule="nonzero"></path>
                                    <path d="M76.936,132.336 L78.264,133.28 C77.096,135.184 75.784,136.224 73.368,136.224 C70.184,136.224 67.816,133.824 67.816,130.4 C67.816,126.976 70.344,124.576 73.448,124.576 C75.736,124.576 77.464,125.776 78.232,127.472 L76.856,128.464 C76.056,126.912 74.952,126.144 73.416,126.144 C71.304,126.144 69.576,127.936 69.576,130.4 C69.576,132.832 71.192,134.656 73.4,134.656 C74.904,134.656 76.088,133.936 76.936,132.336 Z M79.632,133.168 L79.632,128.064 L81.264,128.064 L81.264,132.832 C81.264,134.064 81.904,134.72 83.024,134.72 C84.192,134.72 85.104,133.728 85.104,132.352 L85.104,128.064 L86.736,128.064 L86.736,136 L85.104,136 L85.104,134.72 C84.592,135.664 83.68,136.224 82.528,136.224 C80.976,136.224 79.632,135.264 79.632,133.168 Z M89.624,129.984 C89.624,130.656 90.344,131.008 91.608,131.248 C93.4,131.6 94.28,132.32 94.28,133.648 C94.28,135.056 93.16,136.224 91.208,136.224 C89.336,136.224 88.184,135.12 87.704,133.872 L89.032,133.04 C89.416,134.08 90.152,134.832 91.224,134.832 C92.056,134.832 92.728,134.384 92.728,133.696 C92.728,133.024 92.136,132.72 90.856,132.464 C89.368,132.16 88.152,131.472 88.152,130.064 C88.152,128.64 89.496,127.84 90.984,127.84 C92.664,127.84 93.608,128.512 94.168,129.808 L92.968,130.512 C92.6,129.568 91.864,129.088 91.016,129.088 C90.264,129.088 89.624,129.424 89.624,129.984 Z M94.608,129.376 L94.608,128.064 L95.888,128.064 L95.888,125.92 L97.52,125.92 L97.52,128.064 L99.296,128.064 L99.296,129.376 L97.52,129.376 L97.52,133.584 C97.52,134.368 97.84,134.752 98.608,134.752 C98.784,134.752 99.04,134.704 99.2,134.656 L99.344,136.032 C99.04,136.144 98.624,136.224 98.16,136.224 C96.96,136.224 95.888,135.68 95.888,133.872 L95.888,129.376 L94.608,129.376 Z M108.12,132.032 C108.12,134.784 105.96,136.224 103.88,136.224 C101.8,136.224 99.64,134.784 99.64,132.032 C99.64,129.28 101.8,127.84 103.88,127.84 C105.96,127.84 108.12,129.28 108.12,132.032 Z M103.88,134.72 C105.272,134.72 106.456,133.648 106.456,132.032 C106.456,130.416 105.272,129.344 103.88,129.344 C102.488,129.344 101.304,130.416 101.304,132.032 C101.304,133.648 102.488,134.72 103.88,134.72 Z M120.384,130.192 L120.384,136 L118.752,136 L118.752,130.752 C118.752,129.84 118.32,129.28 117.376,129.28 C116.416,129.28 115.632,129.968 115.632,131.632 L115.632,136 L114,136 L114,130.8 C114,129.904 113.552,129.28 112.688,129.28 C111.728,129.28 110.896,130.048 110.896,131.632 L110.896,136 L109.264,136 L109.264,128.064 L110.896,128.064 L110.896,129.2 C111.376,128.368 112.272,127.84 113.232,127.84 C114.304,127.84 115.072,128.32 115.408,129.248 C115.968,128.304 116.864,127.84 117.936,127.84 C119.44,127.84 120.384,128.784 120.384,130.192 Z M126.016,136 L126.016,124.8 L127.744,124.8 L127.744,134.464 L133.36,134.464 L133.36,136 L126.016,136 Z M141.688,136 L140.056,136 C139.864,135.776 139.64,135.344 139.608,134.608 C139.096,135.664 138.136,136.224 136.968,136.224 C135.368,136.224 134.264,135.216 134.264,133.776 C134.264,132.176 135.544,131.408 137.064,131.168 L139.576,130.768 L139.576,130.432 C139.576,129.52 139,129.056 137.912,129.056 C136.792,129.056 136.264,129.536 136.264,130.096 C136.264,130.176 136.264,130.208 136.296,130.336 L134.84,130.832 C134.744,130.608 134.712,130.4 134.712,130.192 C134.712,128.96 135.912,127.84 137.912,127.84 C140.072,127.84 141.208,128.8 141.208,130.528 L141.208,134.016 C141.208,134.928 141.336,135.408 141.688,136 Z M137.224,134.864 C138.648,134.864 139.576,133.712 139.576,132.192 L139.576,131.968 L137.432,132.336 C136.44,132.512 135.896,132.944 135.896,133.68 C135.896,134.4 136.424,134.864 137.224,134.864 Z M142.672,136 L142.672,124.8 L144.304,124.8 L144.304,129.264 C144.88,128.4 145.92,127.84 147.072,127.84 C149.168,127.84 150.784,129.488 150.784,132.032 C150.784,134.576 149.104,136.224 146.992,136.224 C145.712,136.224 144.752,135.568 144.304,134.832 L144.304,136 L142.672,136 Z M146.656,134.72 C148.016,134.72 149.12,133.632 149.12,132.032 C149.12,130.432 148.016,129.344 146.656,129.344 C145.296,129.344 144.192,130.432 144.192,132.032 C144.192,133.632 145.296,134.72 146.656,134.72 Z M159.352,132.384 L153.064,132.384 C153.128,133.792 154.072,134.8 155.48,134.8 C156.776,134.8 157.384,134.096 157.848,133.152 L159.112,133.904 C158.376,135.424 157.224,136.224 155.432,136.224 C153.256,136.224 151.432,134.512 151.432,132.032 C151.432,129.552 153.256,127.84 155.512,127.84 C157.816,127.84 159.352,129.488 159.352,131.808 L159.352,132.384 Z M155.48,129.152 C154.296,129.152 153.368,129.984 153.064,131.136 L157.8,131.136 C157.672,129.84 156.584,129.152 155.48,129.152 Z M160.528,136 L160.528,124.8 L162.16,124.8 L162.16,136 L160.528,136 Z M165.128,129.984 C165.128,130.656 165.848,131.008 167.112,131.248 C168.904,131.6 169.784,132.32 169.784,133.648 C169.784,135.056 168.664,136.224 166.712,136.224 C164.84,136.224 163.688,135.12 163.208,133.872 L164.536,133.04 C164.92,134.08 165.656,134.832 166.728,134.832 C167.56,134.832 168.232,134.384 168.232,133.696 C168.232,133.024 167.64,132.72 166.36,132.464 C164.872,132.16 163.656,131.472 163.656,130.064 C163.656,128.64 165,127.84 166.488,127.84 C168.168,127.84 169.112,128.512 169.672,129.808 L168.472,130.512 C168.104,129.568 167.368,129.088 166.52,129.088 C165.768,129.088 165.128,129.424 165.128,129.984 Z" id="CustomLabels" fill="#00001E" fill-rule="nonzero"></path>
                                    <g id="Rectangle-Copy-13">
                                        <use fill="black" fill-opacity="1" filter="url(#filter-20)" xlink:href="#path-19"></use>
                                        <rect stroke="#00000A" stroke-width="1" stroke-linejoin="square" fill="#FFFFFF" fill-rule="evenodd" x="0.5" y="200.5" width="160" height="43" rx="5"></rect>
                                    </g>
                                    <path d="M10,214 C8.8954305,214 8,214.895431 8,216 L8,220 C9.11,220 10,220.9 10,222 C10,223.104569 9.1045695,224 8,224 L8,228 C8,229.104569 8.8954305,230 10,230 L26,230 C27.1045695,230 28,229.104569 28,228 L28,224 C26.8954305,224 26,223.104569 26,222 C26,220.89 26.9,220 28,220 L28,216 C28,214.89 27.1,214 26,214 L10,214 L10,214 Z M21.5,217 L23,218.5 L14.5,227 L13,225.5 L21.5,217 L21.5,217 Z M14.81,217.04 C15.79,217.04 16.58,217.83 16.58,218.81 C16.58,219.787544 15.787544,220.58 14.81,220.58 C13.83,220.58 13.04,219.79 13.04,218.81 C13.04,217.832456 13.832456,217.04 14.81,217.04 L14.81,217.04 Z M21.19,223.42 C22.17,223.42 22.96,224.21 22.96,225.19 C22.96,226.167544 22.167544,226.96 21.19,226.96 C20.21,226.96 19.42,226.17 19.42,225.19 C19.42,224.212456 20.212456,223.42 21.19,223.42 L21.19,223.42 Z" id="Shape" fill="#50B83C" fill-rule="nonzero"></path>
                                    <path d="M45.936,224.336 L47.264,225.28 C46.096,227.184 44.784,228.224 42.368,228.224 C39.184,228.224 36.816,225.824 36.816,222.4 C36.816,218.976 39.344,216.576 42.448,216.576 C44.736,216.576 46.464,217.776 47.232,219.472 L45.856,220.464 C45.056,218.912 43.952,218.144 42.416,218.144 C40.304,218.144 38.576,219.936 38.576,222.4 C38.576,224.832 40.192,226.656 42.4,226.656 C43.904,226.656 45.088,225.936 45.936,224.336 Z M56.232,224.032 C56.232,226.784 54.072,228.224 51.992,228.224 C49.912,228.224 47.752,226.784 47.752,224.032 C47.752,221.28 49.912,219.84 51.992,219.84 C54.072,219.84 56.232,221.28 56.232,224.032 Z M51.992,226.72 C53.384,226.72 54.568,225.648 54.568,224.032 C54.568,222.416 53.384,221.344 51.992,221.344 C50.6,221.344 49.416,222.416 49.416,224.032 C49.416,225.648 50.6,226.72 51.992,226.72 Z M57.248,225.168 L57.248,220.064 L58.88,220.064 L58.88,224.832 C58.88,226.064 59.52,226.72 60.64,226.72 C61.808,226.72 62.72,225.728 62.72,224.352 L62.72,220.064 L64.352,220.064 L64.352,228 L62.72,228 L62.72,226.72 C62.208,227.664 61.296,228.224 60.144,228.224 C58.592,228.224 57.248,227.264 57.248,225.168 Z M65.928,231.264 L65.928,220.064 L67.56,220.064 L67.56,221.28 C68.056,220.496 69.144,219.84 70.376,219.84 C72.36,219.84 74.04,221.408 74.04,224.032 C74.04,226.608 72.36,228.224 70.232,228.224 C69.096,228.224 68.072,227.712 67.56,226.912 L67.56,231.264 L65.928,231.264 Z M69.912,221.344 C68.552,221.344 67.448,222.432 67.448,224.032 C67.448,225.632 68.552,226.72 69.912,226.72 C71.272,226.72 72.376,225.632 72.376,224.032 C72.376,222.432 71.272,221.344 69.912,221.344 Z M83.168,224.032 C83.168,226.784 81.008,228.224 78.928,228.224 C76.848,228.224 74.688,226.784 74.688,224.032 C74.688,221.28 76.848,219.84 78.928,219.84 C81.008,219.84 83.168,221.28 83.168,224.032 Z M78.928,226.72 C80.32,226.72 81.504,225.648 81.504,224.032 C81.504,222.416 80.32,221.344 78.928,221.344 C77.536,221.344 76.352,222.416 76.352,224.032 C76.352,225.648 77.536,226.72 78.928,226.72 Z M91.416,222.608 L91.416,228 L89.784,228 L89.784,223.088 C89.784,222 89.144,221.344 88.024,221.344 C86.888,221.344 85.944,222.304 85.944,223.808 L85.944,228 L84.312,228 L84.312,220.064 L85.944,220.064 L85.944,221.392 C86.504,220.464 87.496,219.84 88.648,219.84 C90.2,219.84 91.416,220.816 91.416,222.608 Z M98.68,219.536 C98.68,220.544 99.64,221.12 101.608,221.504 C104.024,221.968 105.224,222.976 105.224,224.848 C105.224,226.656 103.656,228.224 101.128,228.224 C98.456,228.224 96.904,226.688 96.536,224.688 L98.056,223.904 C98.376,225.744 99.416,226.72 101.112,226.72 C102.6,226.72 103.496,225.904 103.496,224.912 C103.496,223.744 102.568,223.232 100.648,222.864 C98.568,222.464 97.048,221.456 97.048,219.568 C97.048,217.792 98.632,216.576 100.888,216.576 C102.904,216.576 104.408,217.584 105.032,219.36 L103.656,220.16 C103.208,218.816 102.264,218.08 100.872,218.08 C99.688,218.08 98.68,218.576 98.68,219.536 Z M114.112,224.384 L107.824,224.384 C107.888,225.792 108.832,226.8 110.24,226.8 C111.536,226.8 112.144,226.096 112.608,225.152 L113.872,225.904 C113.136,227.424 111.984,228.224 110.192,228.224 C108.016,228.224 106.192,226.512 106.192,224.032 C106.192,221.552 108.016,219.84 110.272,219.84 C112.576,219.84 114.112,221.488 114.112,223.808 L114.112,224.384 Z M110.24,221.152 C109.056,221.152 108.128,221.984 107.824,223.136 L112.56,223.136 C112.432,221.84 111.344,221.152 110.24,221.152 Z M114.408,221.376 L114.408,220.064 L115.688,220.064 L115.688,217.92 L117.32,217.92 L117.32,220.064 L119.096,220.064 L119.096,221.376 L117.32,221.376 L117.32,225.584 C117.32,226.368 117.64,226.752 118.408,226.752 C118.584,226.752 118.84,226.704 119,226.656 L119.144,228.032 C118.84,228.144 118.424,228.224 117.96,228.224 C116.76,228.224 115.688,227.68 115.688,225.872 L115.688,221.376 L114.408,221.376 Z M119.504,221.376 L119.504,220.064 L120.784,220.064 L120.784,217.92 L122.416,217.92 L122.416,220.064 L124.192,220.064 L124.192,221.376 L122.416,221.376 L122.416,225.584 C122.416,226.368 122.736,226.752 123.504,226.752 C123.68,226.752 123.936,226.704 124.096,226.656 L124.24,228.032 C123.936,228.144 123.52,228.224 123.056,228.224 C121.856,228.224 120.784,227.68 120.784,225.872 L120.784,221.376 L119.504,221.376 Z M125.272,228 L125.272,220.064 L126.904,220.064 L126.904,228 L125.272,228 Z M125.16,218.8 L125.16,216.96 L127.016,216.96 L127.016,218.8 L125.16,218.8 Z M135.632,222.608 L135.632,228 L134,228 L134,223.088 C134,222 133.36,221.344 132.24,221.344 C131.104,221.344 130.16,222.304 130.16,223.808 L130.16,228 L128.528,228 L128.528,220.064 L130.16,220.064 L130.16,221.392 C130.72,220.464 131.712,219.84 132.864,219.84 C134.416,219.84 135.632,220.816 135.632,222.608 Z M137.192,228.096 L138.776,228.544 C138.696,228.704 138.648,228.88 138.648,229.12 C138.648,229.712 139.416,230.144 140.632,230.144 C142.12,230.144 142.872,229.36 142.872,227.744 L142.872,226.496 C142.472,227.28 141.608,227.872 140.456,227.872 C138.376,227.872 136.632,226.272 136.632,223.856 C136.632,221.408 138.376,219.84 140.408,219.84 C141.512,219.84 142.424,220.4 142.872,221.152 L142.872,220.064 L144.504,220.064 L144.504,227.52 C144.504,230.064 143.032,231.488 140.632,231.488 C138.312,231.488 136.984,230.496 136.984,228.992 C136.984,228.624 137.064,228.336 137.192,228.096 Z M140.616,221.296 C139.304,221.296 138.264,222.224 138.264,223.856 C138.264,225.488 139.304,226.416 140.616,226.416 C141.928,226.416 142.968,225.488 142.968,223.856 C142.968,222.224 141.928,221.296 140.616,221.296 Z M147.52,221.984 C147.52,222.656 148.24,223.008 149.504,223.248 C151.296,223.6 152.176,224.32 152.176,225.648 C152.176,227.056 151.056,228.224 149.104,228.224 C147.232,228.224 146.08,227.12 145.6,225.872 L146.928,225.04 C147.312,226.08 148.048,226.832 149.12,226.832 C149.952,226.832 150.624,226.384 150.624,225.696 C150.624,225.024 150.032,224.72 148.752,224.464 C147.264,224.16 146.048,223.472 146.048,222.064 C146.048,220.64 147.392,219.84 148.88,219.84 C150.56,219.84 151.504,220.512 152.064,221.808 L150.864,222.512 C150.496,221.568 149.76,221.088 148.912,221.088 C148.16,221.088 147.52,221.424 147.52,221.984 Z" id="CouponSettings" fill="#00001E" fill-rule="nonzero"></path>
                                    <path d="M134.375,269.470845 L134.375,243.613636" id="Line-3" stroke="#00000A" stroke-linecap="square" stroke-dasharray="2,3"></path>
                                    <path d="M135,270.366502 L239.005682,270.366502" id="Line-2" stroke="#00000A" stroke-linecap="square" stroke-dasharray="2,3"></path>
                                </g>
                            </g>
                        </g>
                    </g>
                </g>
            </g>
        </g>
    </g>
</svg>