<?xml version="1.0" encoding="UTF-8"?>
<svg width="453px" height="370px" viewBox="0 0 453 370" version="1.1" xmlns="http://www.w3.org/2000/svg" xmlns:xlink="http://www.w3.org/1999/xlink">
    <!-- Generator: Sketch 53.2 (72643) - https://sketchapp.com -->
    <title>Group 33</title>
    <desc>Created with Sketch.</desc>
    <defs>
        <path d="M6,0 L197.051502,8.8817842e-16 C200.365211,2.79460044e-16 203.051502,2.6862915 203.051502,6 L203.051502,257 C203.051502,260.313708 200.365211,263 197.051502,263 L6,263 C2.6862915,263 -4.82366169e-16,260.313708 -8.8817842e-16,257 L-8.8817842e-16,6 C-1.29399067e-15,2.6862915 2.6862915,1.4968968e-15 6,8.8817842e-16 Z" id="path-1"></path>
        <filter x="-13.3%" y="-8.0%" width="126.6%" height="120.5%" filterUnits="objectBoundingBox" id="filter-2">
            <feOffset dx="0" dy="6" in="SourceAlpha" result="shadowOffsetOuter1"></feOffset>
            <feGaussianBlur stdDeviation="8" in="shadowOffsetOuter1" result="shadowBlurOuter1"></feGaussianBlur>
            <feComposite in="shadowBlurOuter1" in2="SourceAlpha" operator="out" result="shadowBlurOuter1"></feComposite>
            <feColorMatrix values="0 0 0 0 0   0 0 0 0 0   0 0 0 0 0  0 0 0 0.15 0" type="matrix" in="shadowBlurOuter1"></feColorMatrix>
        </filter>
        <rect id="path-3" x="13.0300429" y="66.2360515" width="82.5236052" height="28.2317597"></rect>
        <mask id="mask-4" maskContentUnits="userSpaceOnUse" maskUnits="objectBoundingBox" x="0" y="0" width="82.5236052" height="28.2317597" fill="white">
            <use xlink:href="#path-3"></use>
        </mask>
        <rect id="path-5" x="45.6051502" y="13.0300429" width="114.012876" height="23.888412"></rect>
        <mask id="mask-6" maskContentUnits="userSpaceOnUse" maskUnits="objectBoundingBox" x="0" y="0" width="114.012876" height="23.888412" fill="white">
            <use xlink:href="#path-5"></use>
        </mask>
        <rect id="path-7" x="13.0300429" y="107.497854" width="169.390558" height="32.5751073"></rect>
        <mask id="mask-8" maskContentUnits="userSpaceOnUse" maskUnits="objectBoundingBox" x="0" y="0" width="169.390558" height="32.5751073" fill="white">
            <use xlink:href="#path-7"></use>
        </mask>
        <rect id="path-9" x="13.0300429" y="157.446352" width="115.098712" height="28.2317597"></rect>
        <mask id="mask-10" maskContentUnits="userSpaceOnUse" maskUnits="objectBoundingBox" x="0" y="0" width="115.098712" height="28.2317597" fill="white">
            <use xlink:href="#path-9"></use>
        </mask>
        <rect id="path-11" x="13.0300429" y="208.480687" width="178.077253" height="39.0901288"></rect>
        <mask id="mask-12" maskContentUnits="userSpaceOnUse" maskUnits="objectBoundingBox" x="0" y="0" width="178.077253" height="39.0901288" fill="white">
            <use xlink:href="#path-11"></use>
        </mask>
        <rect id="path-13" x="0" y="0" width="155" height="44" rx="5"></rect>
        <filter x="-9.7%" y="-27.3%" width="119.4%" height="168.2%" filterUnits="objectBoundingBox" id="filter-14">
            <feOffset dx="0" dy="3" in="SourceAlpha" result="shadowOffsetOuter1"></feOffset>
            <feGaussianBlur stdDeviation="4.5" in="shadowOffsetOuter1" result="shadowBlurOuter1"></feGaussianBlur>
            <feColorMatrix values="0 0 0 0 0.0180310236   0 0 0 0 0.0180310236   0 0 0 0 0.0180310236  0 0 0 0.2 0" type="matrix" in="shadowBlurOuter1"></feColorMatrix>
        </filter>
        <rect id="path-15" x="0" y="0" width="153" height="44" rx="5"></rect>
        <filter x="-9.8%" y="-27.3%" width="119.6%" height="168.2%" filterUnits="objectBoundingBox" id="filter-16">
            <feOffset dx="0" dy="3" in="SourceAlpha" result="shadowOffsetOuter1"></feOffset>
            <feGaussianBlur stdDeviation="4.5" in="shadowOffsetOuter1" result="shadowBlurOuter1"></feGaussianBlur>
            <feColorMatrix values="0 0 0 0 0.0180310236   0 0 0 0 0.0180310236   0 0 0 0 0.0180310236  0 0 0 0.2 0" type="matrix" in="shadowBlurOuter1"></feColorMatrix>
        </filter>
        <rect id="path-17" x="0" y="0" width="147" height="44" rx="5"></rect>
        <filter x="-10.2%" y="-27.3%" width="120.4%" height="168.2%" filterUnits="objectBoundingBox" id="filter-18">
            <feOffset dx="0" dy="3" in="SourceAlpha" result="shadowOffsetOuter1"></feOffset>
            <feGaussianBlur stdDeviation="4.5" in="shadowOffsetOuter1" result="shadowBlurOuter1"></feGaussianBlur>
            <feColorMatrix values="0 0 0 0 0.0180310236   0 0 0 0 0.0180310236   0 0 0 0 0.0180310236  0 0 0 0.2 0" type="matrix" in="shadowBlurOuter1"></feColorMatrix>
        </filter>
        <rect id="path-19" x="0" y="184" width="161" height="44" rx="5"></rect>
        <filter x="-9.3%" y="-27.3%" width="118.6%" height="168.2%" filterUnits="objectBoundingBox" id="filter-20">
            <feOffset dx="0" dy="3" in="SourceAlpha" result="shadowOffsetOuter1"></feOffset>
            <feGaussianBlur stdDeviation="4.5" in="shadowOffsetOuter1" result="shadowBlurOuter1"></feGaussianBlur>
            <feColorMatrix values="0 0 0 0 0.0180310236   0 0 0 0 0.0180310236   0 0 0 0 0.0180310236  0 0 0 0.2 0" type="matrix" in="shadowBlurOuter1"></feColorMatrix>
        </filter>
    </defs>
    <g id="Page-4" stroke="none" stroke-width="1" fill="none" fill-rule="evenodd">
        <g id="Payments-version-2" transform="translate(-213.000000, -2306.000000)">
            <g id="Group-25" transform="translate(177.000000, 2312.000000)">
                <g id="Group-33" transform="translate(45.000000, 0.000000)">
                    <g id="Group-38" transform="translate(225.000000, 79.000000)">
                        <g id="Group-28">
                            <g id="Rectangle">
                                <use fill="black" fill-opacity="1" filter="url(#filter-2)" xlink:href="#path-1"></use>
                                <path stroke="#F5F5F6" stroke-width="1" d="M6,0.5 C2.96243388,0.5 0.5,2.96243388 0.5,6 L0.5,257 C0.5,260.037566 2.96243388,262.5 6,262.5 L197.051502,262.5 C200.089068,262.5 202.551502,260.037566 202.551502,257 L202.551502,6 C202.551502,2.96243388 200.089068,0.5 197.051502,0.5 L6,0.5 Z" stroke-linejoin="square" fill="#FFFFFF" fill-rule="evenodd"></path>
                            </g>
                            <use id="Rectangle" stroke="#CCCCD2" mask="url(#mask-4)" stroke-width="2" stroke-linejoin="bevel" stroke-dasharray="2,2" xlink:href="#path-3"></use>
                            <use id="Rectangle-Copy-12" stroke="#CCCCD2" mask="url(#mask-6)" stroke-width="2" stroke-linejoin="bevel" stroke-dasharray="2,2" xlink:href="#path-5"></use>
                            <use id="Rectangle-Copy-9" stroke="#CCCCD2" mask="url(#mask-8)" stroke-width="2" stroke-linejoin="bevel" stroke-dasharray="2,2" xlink:href="#path-7"></use>
                            <use id="Rectangle-Copy-10" stroke="#CCCCD2" mask="url(#mask-10)" stroke-width="2" stroke-linejoin="bevel" stroke-dasharray="2,2" xlink:href="#path-9"></use>
                            <rect id="Rectangle" fill="#E0E0E4" x="21.7167382" y="169.390558" width="76.0085837" height="4.34334764" rx="2.17167382"></rect>
                            <use id="Rectangle-Copy-11" stroke="#CCCCD2" mask="url(#mask-12)" stroke-width="2" stroke-linejoin="bevel" stroke-dasharray="2,2" xlink:href="#path-11"></use>
                            <path d="M87.5245002,28.3506513 C85.7532875,28.2830266 84.3528546,26.8515151 84.3528546,25.1086201 C84.3528546,23.3657251 85.7532875,21.9342136 87.5245002,21.8665889 C88.4552118,21.8522612 89.3393293,22.2661406 89.9147758,22.9855416 L88.9705921,23.8162052 C88.6121002,23.3863146 88.0843895,23.1268733 87.5195308,23.1028118 C86.4467251,23.1764414 85.6147046,24.0536377 85.6147046,25.1110632 C85.6147046,26.1684887 86.4467251,27.045685 87.5195308,27.1193146 C88.1041414,27.0979673 88.6495043,26.8244851 89.0103472,26.3717174 L90.0042248,27.163291 C89.4187088,27.9266838 88.4967551,28.3681406 87.5245002,28.3506513 Z M97.3241335,25.1012907 C97.3786004,23.3750633 98.8358565,22.0134793 100.591946,22.0480171 C102.348036,22.082555 103.748753,23.5003481 103.732973,25.2273364 C103.717193,26.9543247 102.290796,28.3471431 100.534358,28.3506513 C98.7358339,28.3238596 97.2992494,26.8697616 97.3241335,25.1012907 Z M102.412787,25.1012907 C102.316096,24.0996654 101.427544,23.3548086 100.406409,23.419381 C99.3852738,23.4839533 98.6010764,24.3345879 98.6356671,25.3401401 C98.6702578,26.3456923 99.5111192,27.1422799 100.534358,27.1388597 C101.064499,27.1311896 101.567631,26.9075492 101.923718,26.5212948 C102.279805,26.1350403 102.456913,25.6208107 102.412787,25.1012907 Z M111.516706,28.2578124 L111.516706,21.944769 L113.479614,21.944769 C115.467369,21.944769 116.699778,22.8584989 116.699778,25.0231106 C116.699778,27.0899971 115.467369,28.2626987 113.718145,28.2626987 L111.506767,28.2626987 L111.516706,28.2578124 Z M115.412706,25.0084518 C115.412706,23.6109825 114.741839,23.1321293 113.479614,23.1321293 L112.803777,23.1321293 L112.803777,27.0753383 L113.693298,27.0753383 C114.821349,27.0753383 115.427614,26.2935373 115.427614,25.0084518 L115.412706,25.0084518 Z M127.533044,26.7626179 L125.659584,26.7626179 L125.222278,28.2626987 L123.875574,28.2626987 L125.893146,21.9496552 L127.309421,21.9496552 L129.322023,28.2626987 L127.96538,28.2626987 L127.533044,26.7626179 Z M125.952778,25.7511628 L127.23488,25.7511628 L127.046044,25.0719732 C126.877084,24.4514186 126.663401,23.7087076 126.58886,23.3031483 C126.472319,23.9002536 126.323019,24.4907242 126.141615,25.0719732 L125.952778,25.7511628 Z M139.568901,28.3506513 C137.797689,28.2830266 136.397256,26.8515151 136.397256,25.1086201 C136.397256,23.3657251 137.797689,21.9342136 139.568901,21.8665889 C140.499613,21.8522612 141.383731,22.2661406 141.959177,22.9855416 L141.014993,23.8162052 C140.656502,23.3863146 140.128791,23.1268733 139.563932,23.1028118 C138.491126,23.1764414 137.659106,24.0536377 137.659106,25.1110632 C137.659106,26.1684887 138.491126,27.045685 139.563932,27.1193146 C140.148543,27.0979673 140.693906,26.8244851 141.054749,26.3717174 L142.048626,27.163291 C141.46311,27.9266838 140.541156,28.3681406 139.568901,28.3506513 Z M151.048188,28.2578124 L151.048188,25.5948026 L149.284055,21.9398827 L150.71027,21.9398827 L151.485494,23.8455228 C151.56306,24.0259889 151.631066,24.2102848 151.689239,24.3976698 C151.744004,24.2091831 151.812084,24.0246856 151.892984,23.8455228 L152.757657,21.9398827 L154.188841,21.9398827 L152.325321,25.6045751 L152.325321,28.2578124 L151.058127,28.2578124 L151.048188,28.2578124 Z M52.0828244,23.2005369 L49.2005793,22.4382809 C49.8846638,19.9345474 51.5525051,17.8006913 53.8370184,16.5063655 L55.3278348,19.0472189 C53.728656,19.9535721 52.5613289,21.4476445 52.0828244,23.2005369 Z M57.0124574,18.3631429 L56.2422022,15.5291142 C57.0804759,15.3106225 57.9441515,15.2005679 58.8113759,15.2017258 L58.8113759,18.1334889 C58.2041527,18.1331271 57.5994541,18.2103243 57.0124574,18.3631429 Z M60.6202331,18.3680292 L61.3954577,15.5340004 C63.9376136,16.2095521 66.1046451,17.8467218 67.4233254,20.0879915 L64.8392436,21.5538685 C63.9176358,19.9843144 62.400247,18.8385109 60.6202331,18.3680292 Z M48.8626609,24.974248 L48.8676303,24.974248 L51.8492632,24.974248 C51.8482727,25.5713523 51.9267938,26.1660143 52.0828244,26.7430729 L49.2005793,27.5004427 C48.9763023,26.6764864 48.8626974,25.8272048 48.8626609,24.974248 Z M50.1944569,29.8605046 L52.7785387,28.3946276 C53.0846962,28.9101949 53.4571554,29.3848139 53.8867123,29.8067557 L51.7747224,31.8785285 C51.160693,31.2765164 50.6294271,30.5980815 50.1944569,29.8605046 Z M53.8370184,33.4372443 L55.3278348,30.9012772 C56.3851829,31.502006 57.5852436,31.8172306 58.8064065,31.8150072 L58.8064065,34.7467711 C57.0614243,34.7492287 55.3468796,34.2974176 53.8370184,33.4372443 Z M64.8342742,28.3946276 L67.4133866,29.8605046 C66.0925587,32.1009415 63.9236996,33.7363855 61.3805495,34.4096094 L60.6102944,31.5755806 C62.3913003,31.1074291 63.910518,29.9633517 64.8342742,28.3946276 Z M68.417203,27.5981678 L65.5250192,26.8359118 C65.8422588,25.6740094 65.8422588,24.4503919 65.5250192,23.2884895 L68.417203,22.5311198 C68.8702754,24.1907601 68.8702754,25.9385275 68.417203,27.5981678 Z" id="Combined-Shape" fill="#00000A"></path>
                            <path d="M4.91166579,45.0622318 L197.881309,45.0622318" id="Line" stroke="#EFEFF1" stroke-linecap="square"></path>
                            <path d="M28.2063104,88.0206545 L27.0356424,88.0206545 L27.0356424,86.9263345 C24.5076784,86.7736387 22.9467878,85.4333087 22.9383047,83.4312969 L25.0081813,83.4312969 C25.0845292,84.3814042 25.8564914,85.0600523 27.0356424,85.1872988 L27.0356424,81.5734979 L26.2212648,81.3783865 C24.2616685,80.8948498 23.2012808,79.7411481 23.2012808,78.0445279 C23.2012808,76.0425161 24.643408,74.7276355 27.0356424,74.524041 L27.0356424,73.3533731 L28.2063104,73.3533731 L28.2063104,74.524041 C30.4712983,74.7276355 31.9473578,76.0849316 31.9897733,77.9936293 L29.9623122,77.9936293 C29.9368629,77.1198699 29.2242825,76.4242556 28.2063104,76.288526 L28.2063104,79.7241819 L29.0461373,79.902327 C31.200845,80.4028299 32.2273002,81.4971499 32.2273002,83.2870842 C32.2273002,85.3908932 30.7597237,86.7057739 28.2063104,86.9178514 L28.2063104,88.0206545 Z M30.1574236,83.5076448 C30.1574236,82.5999531 29.5466403,82.0570346 28.2063104,81.7940585 L28.2063104,85.204265 C29.4448431,85.1279171 30.1574236,84.5086508 30.1574236,83.5076448 Z M25.2966068,77.8663828 C25.2966068,78.6807605 25.8989069,79.2406451 27.0356424,79.4781719 L27.0356424,76.2800429 C26.0261534,76.3394246 25.2966068,77.0011065 25.2966068,77.8663828 Z M39.7535072,86.8669528 L39.7535072,84.5849987 L33.7729211,84.5849987 L33.7729211,82.6338855 C34.8757242,80.6064244 36.5977937,77.883349 38.7609844,74.6258383 L41.8488331,74.6258383 L41.8488331,82.7356827 L43.5030378,82.7356827 L43.5030378,84.5849987 L41.8488331,84.5849987 L41.8488331,86.8669528 L39.7535072,86.8669528 Z M35.8003822,82.6593348 L35.8003822,82.7865813 L39.7874396,82.7865813 L39.7874396,76.4072894 L39.6686762,76.4072894 C38.4980083,78.137842 37.2255432,80.1483369 35.8003822,82.6593348 Z M49.3835233,87.1638613 C47.1439847,87.1638613 45.4388814,85.8404976 45.074108,83.8300027 L47.254265,83.8300027 C47.5342073,84.7546607 48.348585,85.3315115 49.4004895,85.3315115 C51.1904238,85.3315115 52.2508114,83.6603407 52.2508114,80.8609174 L52.1065987,80.8609174 C51.5297478,82.0231022 50.367563,82.6932672 48.9339189,82.6932672 C46.6010662,82.6932672 44.904446,80.9796808 44.904446,78.6213788 C44.904446,76.1103809 46.7876944,74.3204466 49.4513881,74.3204466 C51.2413224,74.3204466 52.6580002,75.1687567 53.480861,76.7381304 C54.0492288,77.7476194 54.3461373,79.0540169 54.3461373,80.6064244 C54.3461373,84.7292114 52.4968213,87.1638613 49.3835233,87.1638613 Z M49.4598712,80.9542315 C50.8595828,80.9542315 51.886038,79.9532256 51.886038,78.5874464 C51.886038,77.2047009 50.8341335,76.1443133 49.4683543,76.1443133 C48.1025751,76.1443133 47.0506705,77.1877347 47.0506705,78.5535139 C47.0506705,79.9532256 48.0516765,80.9542315 49.4598712,80.9542315 Z M56.8079331,87.0450979 C56.0105216,87.0450979 55.450637,86.468247 55.450637,85.704768 C55.450637,84.9328058 56.0105216,84.364438 56.8079331,84.364438 C57.6138277,84.364438 58.1652293,84.9328058 58.1652293,85.704768 C58.1652293,86.468247 57.6138277,87.0450979 56.8079331,87.0450979 Z M64.0287486,87.1723444 C61.0935957,87.1723444 59.35456,84.7970762 59.35456,80.7336709 C59.35456,76.6872318 61.119045,74.3204466 64.0287486,74.3204466 C66.929969,74.3204466 68.694454,76.6872318 68.694454,80.7506371 C68.694454,84.7970762 66.9554184,87.1723444 64.0287486,87.1723444 Z M64.0287486,85.3569608 C65.581156,85.3569608 66.4803647,83.7451717 66.4803647,80.7336709 C66.4803647,77.7391363 65.5641898,76.1443133 64.0287486,76.1443133 C62.4933073,76.1443133 61.5686493,77.7476194 61.5686493,80.7336709 C61.5686493,83.7451717 62.4763411,85.3569608 64.0287486,85.3569608 Z M74.9227467,87.1723444 C71.9875938,87.1723444 70.2485581,84.7970762 70.2485581,80.7336709 C70.2485581,76.6872318 72.0130431,74.3204466 74.9227467,74.3204466 C77.8239671,74.3204466 79.5884521,76.6872318 79.5884521,80.7506371 C79.5884521,84.7970762 77.8494164,87.1723444 74.9227467,87.1723444 Z M74.9227467,85.3569608 C76.4751541,85.3569608 77.3743628,83.7451717 77.3743628,80.7336709 C77.3743628,77.7391363 76.4581879,76.1443133 74.9227467,76.1443133 C73.3873054,76.1443133 72.4626474,77.7476194 72.4626474,80.7336709 C72.4626474,83.7451717 73.3703392,85.3569608 74.9227467,85.3569608 Z" id="$49.00" fill="#00000A" fill-rule="nonzero"></path>
                            <g id="Group-27" transform="translate(21.716738, 117.270386)"></g>
                            <g id="Group-26" transform="translate(22.802575, 213.909871)"></g>
                        </g>
                        <rect id="Rectangle" fill="#E0E0E4" x="21.7167382" y="117.270386" width="76.0085837" height="4.34334764" rx="2.17167382"></rect>
                        <rect id="Rectangle-Copy-7" fill="#E0E0E4" x="21.7167382" y="125.957082" width="152.017167" height="4.34334764" rx="2.17167382"></rect>
                        <rect id="Rectangle" fill="#0DDF8F" x="22.8025751" y="213.909871" width="158.532189" height="29.3175966" rx="2"></rect>
                        <rect id="Rectangle" fill="#FFFFFF" opacity="0.649999976" x="34" y="232" width="137.901288" height="4.34334764" rx="2.17167382"></rect>
                        <rect id="Rectangle-Copy-8" fill="#FFFFFF" opacity="0.649999976" x="75.0944206" y="221.51073" width="51.0343348" height="4.34334764" rx="2.17167382"></rect>
                    </g>
                    <g id="Group-30">
                        <g id="Rectangle">
                            <use fill="black" fill-opacity="1" filter="url(#filter-14)" xlink:href="#path-13"></use>
                            <use fill="#FFFFFF" fill-rule="evenodd" xlink:href="#path-13"></use>
                        </g>
                        <path d="M36.296,28 L36.296,16.8 L40.648,16.8 C42.872,16.8 44.2,17.872 44.2,19.52 C44.2,20.752 43.384,21.552 42.472,21.936 C43.704,22.4 44.664,23.184 44.664,24.672 C44.664,26.752 42.84,28 40.712,28 L36.296,28 Z M38.024,22.816 L38.024,26.496 L40.536,26.496 C42.008,26.496 42.904,25.904 42.904,24.656 C42.904,23.408 42.008,22.816 40.536,22.816 L38.024,22.816 Z M38.024,18.304 L38.024,21.312 L40.52,21.312 C41.768,21.312 42.536,20.864 42.536,19.808 C42.536,18.752 41.768,18.304 40.52,18.304 L38.024,18.304 Z M50.304,19.92 L50.032,21.472 C49.824,21.408 49.632,21.376 49.408,21.376 C48.256,21.376 47.424,22.416 47.424,23.824 L47.424,28 L45.792,28 L45.792,20.064 L47.424,20.064 L47.424,21.408 C47.856,20.48 48.624,19.84 49.712,19.84 C49.92,19.84 50.096,19.872 50.304,19.92 Z M57.8,28 L56.168,28 C55.976,27.776 55.752,27.344 55.72,26.608 C55.208,27.664 54.248,28.224 53.08,28.224 C51.48,28.224 50.376,27.216 50.376,25.776 C50.376,24.176 51.656,23.408 53.176,23.168 L55.688,22.768 L55.688,22.432 C55.688,21.52 55.112,21.056 54.024,21.056 C52.904,21.056 52.376,21.536 52.376,22.096 C52.376,22.176 52.376,22.208 52.408,22.336 L50.952,22.832 C50.856,22.608 50.824,22.4 50.824,22.192 C50.824,20.96 52.024,19.84 54.024,19.84 C56.184,19.84 57.32,20.8 57.32,22.528 L57.32,26.016 C57.32,26.928 57.448,27.408 57.8,28 Z M53.336,26.864 C54.76,26.864 55.688,25.712 55.688,24.192 L55.688,23.968 L53.544,24.336 C52.552,24.512 52.008,24.944 52.008,25.68 C52.008,26.4 52.536,26.864 53.336,26.864 Z M65.872,22.608 L65.872,28 L64.24,28 L64.24,23.088 C64.24,22 63.6,21.344 62.48,21.344 C61.344,21.344 60.4,22.304 60.4,23.808 L60.4,28 L58.768,28 L58.768,20.064 L60.4,20.064 L60.4,21.392 C60.96,20.464 61.952,19.84 63.104,19.84 C64.656,19.84 65.872,20.816 65.872,22.608 Z M75.048,16.8 L75.048,28 L73.416,28 L73.416,26.72 C72.904,27.616 72.008,28.224 70.792,28.224 C68.616,28.224 66.936,26.576 66.936,24.032 C66.936,21.488 68.792,19.84 70.76,19.84 C72.008,19.84 72.952,20.384 73.416,21.264 L73.416,16.8 L75.048,16.8 Z M71.064,26.72 C72.424,26.72 73.528,25.632 73.528,24.032 C73.528,22.432 72.424,21.344 71.064,21.344 C69.704,21.344 68.6,22.432 68.6,24.032 C68.6,25.632 69.704,26.72 71.064,26.72 Z M80.68,28 L80.68,16.8 L88.04,16.8 L88.04,18.336 L82.408,18.336 L82.408,21.44 L87.592,21.44 L87.592,22.976 L82.408,22.976 L82.408,26.464 L88.088,26.464 L88.088,28 L80.68,28 Z M90.704,21.984 C90.704,22.656 91.424,23.008 92.688,23.248 C94.48,23.6 95.36,24.32 95.36,25.648 C95.36,27.056 94.24,28.224 92.288,28.224 C90.416,28.224 89.264,27.12 88.784,25.872 L90.112,25.04 C90.496,26.08 91.232,26.832 92.304,26.832 C93.136,26.832 93.808,26.384 93.808,25.696 C93.808,25.024 93.216,24.72 91.936,24.464 C90.448,24.16 89.232,23.472 89.232,22.064 C89.232,20.64 90.576,19.84 92.064,19.84 C93.744,19.84 94.688,20.512 95.248,21.808 L94.048,22.512 C93.68,21.568 92.944,21.088 92.096,21.088 C91.344,21.088 90.704,21.424 90.704,21.984 Z M97.88,21.984 C97.88,22.656 98.6,23.008 99.864,23.248 C101.656,23.6 102.536,24.32 102.536,25.648 C102.536,27.056 101.416,28.224 99.464,28.224 C97.592,28.224 96.44,27.12 95.96,25.872 L97.288,25.04 C97.672,26.08 98.408,26.832 99.48,26.832 C100.312,26.832 100.984,26.384 100.984,25.696 C100.984,25.024 100.392,24.72 99.112,24.464 C97.624,24.16 96.408,23.472 96.408,22.064 C96.408,20.64 97.752,19.84 99.24,19.84 C100.92,19.84 101.864,20.512 102.424,21.808 L101.224,22.512 C100.856,21.568 100.12,21.088 99.272,21.088 C98.52,21.088 97.88,21.424 97.88,21.984 Z M111.04,24.384 L104.752,24.384 C104.816,25.792 105.76,26.8 107.168,26.8 C108.464,26.8 109.072,26.096 109.536,25.152 L110.8,25.904 C110.064,27.424 108.912,28.224 107.12,28.224 C104.944,28.224 103.12,26.512 103.12,24.032 C103.12,21.552 104.944,19.84 107.2,19.84 C109.504,19.84 111.04,21.488 111.04,23.808 L111.04,24.384 Z M107.168,21.152 C105.984,21.152 105.056,21.984 104.752,23.136 L109.488,23.136 C109.36,21.84 108.272,21.152 107.168,21.152 Z M119.32,22.608 L119.32,28 L117.688,28 L117.688,23.088 C117.688,22 117.048,21.344 115.928,21.344 C114.792,21.344 113.848,22.304 113.848,23.808 L113.848,28 L112.216,28 L112.216,20.064 L113.848,20.064 L113.848,21.392 C114.408,20.464 115.4,19.84 116.552,19.84 C118.104,19.84 119.32,20.816 119.32,22.608 Z M119.824,21.376 L119.824,20.064 L121.104,20.064 L121.104,17.92 L122.736,17.92 L122.736,20.064 L124.512,20.064 L124.512,21.376 L122.736,21.376 L122.736,25.584 C122.736,26.368 123.056,26.752 123.824,26.752 C124,26.752 124.256,26.704 124.416,26.656 L124.56,28.032 C124.256,28.144 123.84,28.224 123.376,28.224 C122.176,28.224 121.104,27.68 121.104,25.872 L121.104,21.376 L119.824,21.376 Z M125.592,28 L125.592,20.064 L127.224,20.064 L127.224,28 L125.592,28 Z M125.48,18.8 L125.48,16.96 L127.336,16.96 L127.336,18.8 L125.48,18.8 Z M135.76,28 L134.128,28 C133.936,27.776 133.712,27.344 133.68,26.608 C133.168,27.664 132.208,28.224 131.04,28.224 C129.44,28.224 128.336,27.216 128.336,25.776 C128.336,24.176 129.616,23.408 131.136,23.168 L133.648,22.768 L133.648,22.432 C133.648,21.52 133.072,21.056 131.984,21.056 C130.864,21.056 130.336,21.536 130.336,22.096 C130.336,22.176 130.336,22.208 130.368,22.336 L128.912,22.832 C128.816,22.608 128.784,22.4 128.784,22.192 C128.784,20.96 129.984,19.84 131.984,19.84 C134.144,19.84 135.28,20.8 135.28,22.528 L135.28,26.016 C135.28,26.928 135.408,27.408 135.76,28 Z M131.296,26.864 C132.72,26.864 133.648,25.712 133.648,24.192 L133.648,23.968 L131.504,24.336 C130.512,24.512 129.968,24.944 129.968,25.68 C129.968,26.4 130.496,26.864 131.296,26.864 Z M136.744,28 L136.744,16.8 L138.376,16.8 L138.376,28 L136.744,28 Z M141.344,21.984 C141.344,22.656 142.064,23.008 143.328,23.248 C145.12,23.6 146,24.32 146,25.648 C146,27.056 144.88,28.224 142.928,28.224 C141.056,28.224 139.904,27.12 139.424,25.872 L140.752,25.04 C141.136,26.08 141.872,26.832 142.944,26.832 C143.776,26.832 144.448,26.384 144.448,25.696 C144.448,25.024 143.856,24.72 142.576,24.464 C141.088,24.16 139.872,23.472 139.872,22.064 C139.872,20.64 141.216,19.84 142.704,19.84 C144.384,19.84 145.328,20.512 145.888,21.808 L144.688,22.512 C144.32,21.568 143.584,21.088 142.736,21.088 C141.984,21.088 141.344,21.424 141.344,21.984 Z" id="BrandEssentials" fill="#00001E" fill-rule="nonzero"></path>
                        <g id="format-color-fill" transform="translate(8.000000, 18.000000)"></g>
                    </g>
                    <g id="Group-29" transform="translate(31.000000, 276.000000)">
                        <g id="Rectangle-Copy-13">
                            <use fill="black" fill-opacity="1" filter="url(#filter-16)" xlink:href="#path-15"></use>
                            <use fill="#FFFFFF" fill-rule="evenodd" xlink:href="#path-15"></use>
                        </g>
                        <path d="M45.936,24.336 L47.264,25.28 C46.096,27.184 44.784,28.224 42.368,28.224 C39.184,28.224 36.816,25.824 36.816,22.4 C36.816,18.976 39.344,16.576 42.448,16.576 C44.736,16.576 46.464,17.776 47.232,19.472 L45.856,20.464 C45.056,18.912 43.952,18.144 42.416,18.144 C40.304,18.144 38.576,19.936 38.576,22.4 C38.576,24.832 40.192,26.656 42.4,26.656 C43.904,26.656 45.088,25.936 45.936,24.336 Z M56.232,24.032 C56.232,26.784 54.072,28.224 51.992,28.224 C49.912,28.224 47.752,26.784 47.752,24.032 C47.752,21.28 49.912,19.84 51.992,19.84 C54.072,19.84 56.232,21.28 56.232,24.032 Z M51.992,26.72 C53.384,26.72 54.568,25.648 54.568,24.032 C54.568,22.416 53.384,21.344 51.992,21.344 C50.6,21.344 49.416,22.416 49.416,24.032 C49.416,25.648 50.6,26.72 51.992,26.72 Z M64.48,22.608 L64.48,28 L62.848,28 L62.848,23.088 C62.848,22 62.208,21.344 61.088,21.344 C59.952,21.344 59.008,22.304 59.008,23.808 L59.008,28 L57.376,28 L57.376,20.064 L59.008,20.064 L59.008,21.392 C59.568,20.464 60.56,19.84 61.712,19.84 C63.264,19.84 64.48,20.816 64.48,22.608 Z M70.856,28 L70.856,21.376 L67.752,21.376 L67.752,28 L66.12,28 L66.12,21.376 L64.92,21.376 L64.92,20.064 L66.12,20.064 L66.12,18.672 C66.12,16.992 67.144,16 68.76,16 C69.064,16 69.368,16.048 69.656,16.144 L69.368,17.552 C69.176,17.488 69,17.472 68.824,17.472 C68.168,17.472 67.752,17.904 67.752,18.704 L67.752,20.064 L72.488,20.064 L72.488,28 L70.856,28 Z M70.744,18.8 L70.744,16.96 L72.6,16.96 L72.6,18.8 L70.744,18.8 Z M74.176,28.096 L75.76,28.544 C75.68,28.704 75.632,28.88 75.632,29.12 C75.632,29.712 76.4,30.144 77.616,30.144 C79.104,30.144 79.856,29.36 79.856,27.744 L79.856,26.496 C79.456,27.28 78.592,27.872 77.44,27.872 C75.36,27.872 73.616,26.272 73.616,23.856 C73.616,21.408 75.36,19.84 77.392,19.84 C78.496,19.84 79.408,20.4 79.856,21.152 L79.856,20.064 L81.488,20.064 L81.488,27.52 C81.488,30.064 80.016,31.488 77.616,31.488 C75.296,31.488 73.968,30.496 73.968,28.992 C73.968,28.624 74.048,28.336 74.176,28.096 Z M77.6,21.296 C76.288,21.296 75.248,22.224 75.248,23.856 C75.248,25.488 76.288,26.416 77.6,26.416 C78.912,26.416 79.952,25.488 79.952,23.856 C79.952,22.224 78.912,21.296 77.6,21.296 Z M83,25.168 L83,20.064 L84.632,20.064 L84.632,24.832 C84.632,26.064 85.272,26.72 86.392,26.72 C87.56,26.72 88.472,25.728 88.472,24.352 L88.472,20.064 L90.104,20.064 L90.104,28 L88.472,28 L88.472,26.72 C87.96,27.664 87.048,28.224 85.896,28.224 C84.344,28.224 83,27.264 83,25.168 Z M96.176,19.92 L95.904,21.472 C95.696,21.408 95.504,21.376 95.28,21.376 C94.128,21.376 93.296,22.416 93.296,23.824 L93.296,28 L91.664,28 L91.664,20.064 L93.296,20.064 L93.296,21.408 C93.728,20.48 94.496,19.84 95.584,19.84 C95.792,19.84 95.968,19.872 96.176,19.92 Z M104.04,24.384 L97.752,24.384 C97.816,25.792 98.76,26.8 100.168,26.8 C101.464,26.8 102.072,26.096 102.536,25.152 L103.8,25.904 C103.064,27.424 101.912,28.224 100.12,28.224 C97.944,28.224 96.12,26.512 96.12,24.032 C96.12,21.552 97.944,19.84 100.2,19.84 C102.504,19.84 104.04,21.488 104.04,23.808 L104.04,24.384 Z M100.168,21.152 C98.984,21.152 98.056,21.984 97.752,23.136 L102.488,23.136 C102.36,21.84 101.272,21.152 100.168,21.152 Z M109.208,28 L109.208,16.8 L114.104,16.8 C116.552,16.8 118.136,18.128 118.136,20.368 C118.136,22.608 116.552,23.936 114.104,23.936 L110.936,23.936 L110.936,28 L109.208,28 Z M110.936,18.336 L110.936,22.4 L114.04,22.4 C115.592,22.4 116.408,21.616 116.408,20.368 C116.408,19.12 115.592,18.336 114.04,18.336 L110.936,18.336 Z M119.168,28 L119.168,16.8 L120.8,16.8 L120.8,28 L119.168,28 Z M129.368,28 L127.736,28 C127.544,27.776 127.32,27.344 127.288,26.608 C126.776,27.664 125.816,28.224 124.648,28.224 C123.048,28.224 121.944,27.216 121.944,25.776 C121.944,24.176 123.224,23.408 124.744,23.168 L127.256,22.768 L127.256,22.432 C127.256,21.52 126.68,21.056 125.592,21.056 C124.472,21.056 123.944,21.536 123.944,22.096 C123.944,22.176 123.944,22.208 123.976,22.336 L122.52,22.832 C122.424,22.608 122.392,22.4 122.392,22.192 C122.392,20.96 123.592,19.84 125.592,19.84 C127.752,19.84 128.888,20.8 128.888,22.528 L128.888,26.016 C128.888,26.928 129.016,27.408 129.368,28 Z M124.904,26.864 C126.328,26.864 127.256,25.712 127.256,24.192 L127.256,23.968 L125.112,24.336 C124.12,24.512 123.576,24.944 123.576,25.68 C123.576,26.4 124.104,26.864 124.904,26.864 Z M137.44,22.608 L137.44,28 L135.808,28 L135.808,23.088 C135.808,22 135.168,21.344 134.048,21.344 C132.912,21.344 131.968,22.304 131.968,23.808 L131.968,28 L130.336,28 L130.336,20.064 L131.968,20.064 L131.968,21.392 C132.528,20.464 133.52,19.84 134.672,19.84 C136.224,19.84 137.44,20.816 137.44,22.608 Z M140.232,21.984 C140.232,22.656 140.952,23.008 142.216,23.248 C144.008,23.6 144.888,24.32 144.888,25.648 C144.888,27.056 143.768,28.224 141.816,28.224 C139.944,28.224 138.792,27.12 138.312,25.872 L139.64,25.04 C140.024,26.08 140.76,26.832 141.832,26.832 C142.664,26.832 143.336,26.384 143.336,25.696 C143.336,25.024 142.744,24.72 141.464,24.464 C139.976,24.16 138.76,23.472 138.76,22.064 C138.76,20.64 140.104,19.84 141.592,19.84 C143.272,19.84 144.216,20.512 144.776,21.808 L143.576,22.512 C143.208,21.568 142.472,21.088 141.624,21.088 C140.872,21.088 140.232,21.424 140.232,21.984 Z" id="ConfgurePlans" fill="#00001E" fill-rule="nonzero"></path>
                        <path d="M18,25.5 C16.0670034,25.5 14.5,23.9329966 14.5,22 C14.5,20.0670034 16.0670034,18.5 18,18.5 C19.9329966,18.5 21.5,20.0670034 21.5,22 C21.5,23.9329966 19.9329966,25.5 18,25.5 L18,25.5 Z M25.43,22.97 C25.47,22.65 25.5,22.33 25.5,22 C25.5,21.67 25.47,21.34 25.43,21 L27.54,19.37 C27.73,19.22 27.78,18.95 27.66,18.73 L25.66,15.27 C25.54,15.05 25.27,14.96 25.05,15.05 L22.56,16.05 C22.04,15.66 21.5,15.32 20.87,15.07 L20.5,12.42 C20.46,12.18 20.25,12 20,12 L16,12 C15.75,12 15.54,12.18 15.5,12.42 L15.13,15.07 C14.5,15.32 13.96,15.66 13.44,16.05 L10.95,15.05 C10.73,14.96 10.46,15.05 10.34,15.27 L8.34,18.73 C8.21,18.95 8.27,19.22 8.46,19.37 L10.57,21 C10.53,21.34 10.5,21.67 10.5,22 C10.5,22.33 10.53,22.65 10.57,22.97 L8.46,24.63 C8.27,24.78 8.21,25.05 8.34,25.27 L10.34,28.73 C10.46,28.95 10.73,29.03 10.95,28.95 L13.44,27.94 C13.96,28.34 14.5,28.68 15.13,28.93 L15.5,31.58 C15.54,31.82 15.75,32 16,32 L20,32 C20.25,32 20.46,31.82 20.5,31.58 L20.87,28.93 C21.5,28.67 22.04,28.34 22.56,27.94 L25.05,28.95 C25.27,29.03 25.54,28.95 25.66,28.73 L27.66,25.27 C27.78,25.05 27.73,24.78 27.54,24.63 L25.43,22.97 Z" id="Shape" fill="#3367D6" fill-rule="nonzero"></path>
                    </g>
                    <path d="M201,208.366502 L236.659091,208.366502" id="Line-2" stroke="#00000A" stroke-linecap="square" stroke-dasharray="2,3"></path>
                    <path d="M200.375,208.157756 L200.375,118.136364" id="Line-3" stroke="#00000A" stroke-linecap="square" stroke-dasharray="2,3"></path>
                    <path d="M178.375,118 L200.028037,118" id="Line-4" stroke="#00000A" stroke-linecap="square" stroke-dasharray="2,3"></path>
                    <path d="M155.782609,31 L200.971556,31" id="Line-4-Copy" stroke="#00000A" stroke-linecap="square" stroke-dasharray="2,3"></path>
                    <path d="M203.157609,99 L269.999594,99" id="Line-4-Copy" stroke="#00000A" stroke-linecap="square" stroke-dasharray="2,3"></path>
                    <path d="M25.0025,25.5 C25.0025,25.5 23.0025,27.67 23.0025,29 C23.0025,30.1045695 23.8979305,31 25.0025,31 C26.1070695,31 27.0025,30.1045695 27.0025,29 C27.0025,27.67 25.0025,25.5 25.0025,25.5 L25.0025,25.5 Z M11.2125,24 L16.0025,19.21 L20.7925,24 L11.2125,24 Z M22.5625,22.94 L13.6225,14 L12.2125,15.41 L14.5925,17.79 L9.4425,22.94 C8.8525,23.5 8.8525,24.47 9.4425,25.06 L14.9425,30.56 C15.2325,30.85 15.6225,31 16.0025,31 C16.3825,31 16.7725,30.85 17.0625,30.56 L22.5625,25.06 C23.1525,24.47 23.1525,23.5 22.5625,22.94 Z" id="Shape" fill="#FF7846" fill-rule="nonzero"></path>
                    <g id="Group-23" transform="translate(31.000000, 92.000000)">
                        <g id="Rectangle-Copy-13">
                            <use fill="black" fill-opacity="1" filter="url(#filter-18)" xlink:href="#path-17"></use>
                            <use fill="#FFFFFF" fill-rule="evenodd" xlink:href="#path-17"></use>
                        </g>
                        <path d="M10,12 L26,12 C27.1045695,12 28,12.8954305 28,14 L28,26 C28,27.1045695 27.1045695,28 26,28 L22,28 L18,32 L14,28 L10,28 C8.8954305,28 8,27.1045695 8,26 L8,14 C8,12.8954305 8.8954305,12 10,12 L10,12 Z M24,24 L24,22 L18.5,22 L16.5,24 L24,24 L24,24 Z M12,24 L14.5,24 L21.35,17.12 C21.55,16.93 21.55,16.61 21.35,16.41 L19.59,14.65 C19.39,14.45 19.07,14.45 18.88,14.65 L12,21.53 L12,24 Z" id="Shape" fill="#FFB400" fill-rule="nonzero"></path>
                        <path d="M45.936,24.336 L47.264,25.28 C46.096,27.184 44.784,28.224 42.368,28.224 C39.184,28.224 36.816,25.824 36.816,22.4 C36.816,18.976 39.344,16.576 42.448,16.576 C44.736,16.576 46.464,17.776 47.232,19.472 L45.856,20.464 C45.056,18.912 43.952,18.144 42.416,18.144 C40.304,18.144 38.576,19.936 38.576,22.4 C38.576,24.832 40.192,26.656 42.4,26.656 C43.904,26.656 45.088,25.936 45.936,24.336 Z M48.632,25.168 L48.632,20.064 L50.264,20.064 L50.264,24.832 C50.264,26.064 50.904,26.72 52.024,26.72 C53.192,26.72 54.104,25.728 54.104,24.352 L54.104,20.064 L55.736,20.064 L55.736,28 L54.104,28 L54.104,26.72 C53.592,27.664 52.68,28.224 51.528,28.224 C49.976,28.224 48.632,27.264 48.632,25.168 Z M58.624,21.984 C58.624,22.656 59.344,23.008 60.608,23.248 C62.4,23.6 63.28,24.32 63.28,25.648 C63.28,27.056 62.16,28.224 60.208,28.224 C58.336,28.224 57.184,27.12 56.704,25.872 L58.032,25.04 C58.416,26.08 59.152,26.832 60.224,26.832 C61.056,26.832 61.728,26.384 61.728,25.696 C61.728,25.024 61.136,24.72 59.856,24.464 C58.368,24.16 57.152,23.472 57.152,22.064 C57.152,20.64 58.496,19.84 59.984,19.84 C61.664,19.84 62.608,20.512 63.168,21.808 L61.968,22.512 C61.6,21.568 60.864,21.088 60.016,21.088 C59.264,21.088 58.624,21.424 58.624,21.984 Z M63.608,21.376 L63.608,20.064 L64.888,20.064 L64.888,17.92 L66.52,17.92 L66.52,20.064 L68.296,20.064 L68.296,21.376 L66.52,21.376 L66.52,25.584 C66.52,26.368 66.84,26.752 67.608,26.752 C67.784,26.752 68.04,26.704 68.2,26.656 L68.344,28.032 C68.04,28.144 67.624,28.224 67.16,28.224 C65.96,28.224 64.888,27.68 64.888,25.872 L64.888,21.376 L63.608,21.376 Z M77.12,24.032 C77.12,26.784 74.96,28.224 72.88,28.224 C70.8,28.224 68.64,26.784 68.64,24.032 C68.64,21.28 70.8,19.84 72.88,19.84 C74.96,19.84 77.12,21.28 77.12,24.032 Z M72.88,26.72 C74.272,26.72 75.456,25.648 75.456,24.032 C75.456,22.416 74.272,21.344 72.88,21.344 C71.488,21.344 70.304,22.416 70.304,24.032 C70.304,25.648 71.488,26.72 72.88,26.72 Z M89.384,22.192 L89.384,28 L87.752,28 L87.752,22.752 C87.752,21.84 87.32,21.28 86.376,21.28 C85.416,21.28 84.632,21.968 84.632,23.632 L84.632,28 L83,28 L83,22.8 C83,21.904 82.552,21.28 81.688,21.28 C80.728,21.28 79.896,22.048 79.896,23.632 L79.896,28 L78.264,28 L78.264,20.064 L79.896,20.064 L79.896,21.2 C80.376,20.368 81.272,19.84 82.232,19.84 C83.304,19.84 84.072,20.32 84.408,21.248 C84.968,20.304 85.864,19.84 86.936,19.84 C88.44,19.84 89.384,20.784 89.384,22.192 Z M95.016,28 L95.016,16.8 L96.744,16.8 L96.744,26.464 L102.36,26.464 L102.36,28 L95.016,28 Z M110.688,28 L109.056,28 C108.864,27.776 108.64,27.344 108.608,26.608 C108.096,27.664 107.136,28.224 105.968,28.224 C104.368,28.224 103.264,27.216 103.264,25.776 C103.264,24.176 104.544,23.408 106.064,23.168 L108.576,22.768 L108.576,22.432 C108.576,21.52 108,21.056 106.912,21.056 C105.792,21.056 105.264,21.536 105.264,22.096 C105.264,22.176 105.264,22.208 105.296,22.336 L103.84,22.832 C103.744,22.608 103.712,22.4 103.712,22.192 C103.712,20.96 104.912,19.84 106.912,19.84 C109.072,19.84 110.208,20.8 110.208,22.528 L110.208,26.016 C110.208,26.928 110.336,27.408 110.688,28 Z M106.224,26.864 C107.648,26.864 108.576,25.712 108.576,24.192 L108.576,23.968 L106.432,24.336 C105.44,24.512 104.896,24.944 104.896,25.68 C104.896,26.4 105.424,26.864 106.224,26.864 Z M111.672,28 L111.672,16.8 L113.304,16.8 L113.304,21.264 C113.88,20.4 114.92,19.84 116.072,19.84 C118.168,19.84 119.784,21.488 119.784,24.032 C119.784,26.576 118.104,28.224 115.992,28.224 C114.712,28.224 113.752,27.568 113.304,26.832 L113.304,28 L111.672,28 Z M115.656,26.72 C117.016,26.72 118.12,25.632 118.12,24.032 C118.12,22.432 117.016,21.344 115.656,21.344 C114.296,21.344 113.192,22.432 113.192,24.032 C113.192,25.632 114.296,26.72 115.656,26.72 Z M128.352,24.384 L122.064,24.384 C122.128,25.792 123.072,26.8 124.48,26.8 C125.776,26.8 126.384,26.096 126.848,25.152 L128.112,25.904 C127.376,27.424 126.224,28.224 124.432,28.224 C122.256,28.224 120.432,26.512 120.432,24.032 C120.432,21.552 122.256,19.84 124.512,19.84 C126.816,19.84 128.352,21.488 128.352,23.808 L128.352,24.384 Z M124.48,21.152 C123.296,21.152 122.368,21.984 122.064,23.136 L126.8,23.136 C126.672,21.84 125.584,21.152 124.48,21.152 Z M129.528,28 L129.528,16.8 L131.16,16.8 L131.16,28 L129.528,28 Z M134.128,21.984 C134.128,22.656 134.848,23.008 136.112,23.248 C137.904,23.6 138.784,24.32 138.784,25.648 C138.784,27.056 137.664,28.224 135.712,28.224 C133.84,28.224 132.688,27.12 132.208,25.872 L133.536,25.04 C133.92,26.08 134.656,26.832 135.728,26.832 C136.56,26.832 137.232,26.384 137.232,25.696 C137.232,25.024 136.64,24.72 135.36,24.464 C133.872,24.16 132.656,23.472 132.656,22.064 C132.656,20.64 134,19.84 135.488,19.84 C137.168,19.84 138.112,20.512 138.672,21.808 L137.472,22.512 C137.104,21.568 136.368,21.088 135.52,21.088 C134.768,21.088 134.128,21.424 134.128,21.984 Z" id="CustomLabels" fill="#00001E" fill-rule="nonzero"></path>
                    </g>
                    <g id="Rectangle-Copy-13">
                        <use fill="black" fill-opacity="1" filter="url(#filter-20)" xlink:href="#path-19"></use>
                        <use fill="#FFFFFF" fill-rule="evenodd" xlink:href="#path-19"></use>
                    </g>
                    <path d="M10,198 C8.8954305,198 8,198.895431 8,200 L8,204 C9.11,204 10,204.9 10,206 C10,207.104569 9.1045695,208 8,208 L8,212 C8,213.104569 8.8954305,214 10,214 L26,214 C27.1045695,214 28,213.104569 28,212 L28,208 C26.8954305,208 26,207.104569 26,206 C26,204.89 26.9,204 28,204 L28,200 C28,198.89 27.1,198 26,198 L10,198 L10,198 Z M21.5,201 L23,202.5 L14.5,211 L13,209.5 L21.5,201 L21.5,201 Z M14.81,201.04 C15.79,201.04 16.58,201.83 16.58,202.81 C16.58,203.787544 15.787544,204.58 14.81,204.58 C13.83,204.58 13.04,203.79 13.04,202.81 C13.04,201.832456 13.832456,201.04 14.81,201.04 L14.81,201.04 Z M21.19,207.42 C22.17,207.42 22.96,208.21 22.96,209.19 C22.96,210.167544 22.167544,210.96 21.19,210.96 C20.21,210.96 19.42,210.17 19.42,209.19 C19.42,208.212456 20.212456,207.42 21.19,207.42 L21.19,207.42 Z" id="Shape" fill="#50B83C" fill-rule="nonzero"></path>
                    <path d="M45.936,208.336 L47.264,209.28 C46.096,211.184 44.784,212.224 42.368,212.224 C39.184,212.224 36.816,209.824 36.816,206.4 C36.816,202.976 39.344,200.576 42.448,200.576 C44.736,200.576 46.464,201.776 47.232,203.472 L45.856,204.464 C45.056,202.912 43.952,202.144 42.416,202.144 C40.304,202.144 38.576,203.936 38.576,206.4 C38.576,208.832 40.192,210.656 42.4,210.656 C43.904,210.656 45.088,209.936 45.936,208.336 Z M56.232,208.032 C56.232,210.784 54.072,212.224 51.992,212.224 C49.912,212.224 47.752,210.784 47.752,208.032 C47.752,205.28 49.912,203.84 51.992,203.84 C54.072,203.84 56.232,205.28 56.232,208.032 Z M51.992,210.72 C53.384,210.72 54.568,209.648 54.568,208.032 C54.568,206.416 53.384,205.344 51.992,205.344 C50.6,205.344 49.416,206.416 49.416,208.032 C49.416,209.648 50.6,210.72 51.992,210.72 Z M57.248,209.168 L57.248,204.064 L58.88,204.064 L58.88,208.832 C58.88,210.064 59.52,210.72 60.64,210.72 C61.808,210.72 62.72,209.728 62.72,208.352 L62.72,204.064 L64.352,204.064 L64.352,212 L62.72,212 L62.72,210.72 C62.208,211.664 61.296,212.224 60.144,212.224 C58.592,212.224 57.248,211.264 57.248,209.168 Z M65.928,215.264 L65.928,204.064 L67.56,204.064 L67.56,205.28 C68.056,204.496 69.144,203.84 70.376,203.84 C72.36,203.84 74.04,205.408 74.04,208.032 C74.04,210.608 72.36,212.224 70.232,212.224 C69.096,212.224 68.072,211.712 67.56,210.912 L67.56,215.264 L65.928,215.264 Z M69.912,205.344 C68.552,205.344 67.448,206.432 67.448,208.032 C67.448,209.632 68.552,210.72 69.912,210.72 C71.272,210.72 72.376,209.632 72.376,208.032 C72.376,206.432 71.272,205.344 69.912,205.344 Z M83.168,208.032 C83.168,210.784 81.008,212.224 78.928,212.224 C76.848,212.224 74.688,210.784 74.688,208.032 C74.688,205.28 76.848,203.84 78.928,203.84 C81.008,203.84 83.168,205.28 83.168,208.032 Z M78.928,210.72 C80.32,210.72 81.504,209.648 81.504,208.032 C81.504,206.416 80.32,205.344 78.928,205.344 C77.536,205.344 76.352,206.416 76.352,208.032 C76.352,209.648 77.536,210.72 78.928,210.72 Z M91.416,206.608 L91.416,212 L89.784,212 L89.784,207.088 C89.784,206 89.144,205.344 88.024,205.344 C86.888,205.344 85.944,206.304 85.944,207.808 L85.944,212 L84.312,212 L84.312,204.064 L85.944,204.064 L85.944,205.392 C86.504,204.464 87.496,203.84 88.648,203.84 C90.2,203.84 91.416,204.816 91.416,206.608 Z M98.68,203.536 C98.68,204.544 99.64,205.12 101.608,205.504 C104.024,205.968 105.224,206.976 105.224,208.848 C105.224,210.656 103.656,212.224 101.128,212.224 C98.456,212.224 96.904,210.688 96.536,208.688 L98.056,207.904 C98.376,209.744 99.416,210.72 101.112,210.72 C102.6,210.72 103.496,209.904 103.496,208.912 C103.496,207.744 102.568,207.232 100.648,206.864 C98.568,206.464 97.048,205.456 97.048,203.568 C97.048,201.792 98.632,200.576 100.888,200.576 C102.904,200.576 104.408,201.584 105.032,203.36 L103.656,204.16 C103.208,202.816 102.264,202.08 100.872,202.08 C99.688,202.08 98.68,202.576 98.68,203.536 Z M114.112,208.384 L107.824,208.384 C107.888,209.792 108.832,210.8 110.24,210.8 C111.536,210.8 112.144,210.096 112.608,209.152 L113.872,209.904 C113.136,211.424 111.984,212.224 110.192,212.224 C108.016,212.224 106.192,210.512 106.192,208.032 C106.192,205.552 108.016,203.84 110.272,203.84 C112.576,203.84 114.112,205.488 114.112,207.808 L114.112,208.384 Z M110.24,205.152 C109.056,205.152 108.128,205.984 107.824,207.136 L112.56,207.136 C112.432,205.84 111.344,205.152 110.24,205.152 Z M114.408,205.376 L114.408,204.064 L115.688,204.064 L115.688,201.92 L117.32,201.92 L117.32,204.064 L119.096,204.064 L119.096,205.376 L117.32,205.376 L117.32,209.584 C117.32,210.368 117.64,210.752 118.408,210.752 C118.584,210.752 118.84,210.704 119,210.656 L119.144,212.032 C118.84,212.144 118.424,212.224 117.96,212.224 C116.76,212.224 115.688,211.68 115.688,209.872 L115.688,205.376 L114.408,205.376 Z M119.504,205.376 L119.504,204.064 L120.784,204.064 L120.784,201.92 L122.416,201.92 L122.416,204.064 L124.192,204.064 L124.192,205.376 L122.416,205.376 L122.416,209.584 C122.416,210.368 122.736,210.752 123.504,210.752 C123.68,210.752 123.936,210.704 124.096,210.656 L124.24,212.032 C123.936,212.144 123.52,212.224 123.056,212.224 C121.856,212.224 120.784,211.68 120.784,209.872 L120.784,205.376 L119.504,205.376 Z M125.272,212 L125.272,204.064 L126.904,204.064 L126.904,212 L125.272,212 Z M125.16,202.8 L125.16,200.96 L127.016,200.96 L127.016,202.8 L125.16,202.8 Z M135.632,206.608 L135.632,212 L134,212 L134,207.088 C134,206 133.36,205.344 132.24,205.344 C131.104,205.344 130.16,206.304 130.16,207.808 L130.16,212 L128.528,212 L128.528,204.064 L130.16,204.064 L130.16,205.392 C130.72,204.464 131.712,203.84 132.864,203.84 C134.416,203.84 135.632,204.816 135.632,206.608 Z M137.192,212.096 L138.776,212.544 C138.696,212.704 138.648,212.88 138.648,213.12 C138.648,213.712 139.416,214.144 140.632,214.144 C142.12,214.144 142.872,213.36 142.872,211.744 L142.872,210.496 C142.472,211.28 141.608,211.872 140.456,211.872 C138.376,211.872 136.632,210.272 136.632,207.856 C136.632,205.408 138.376,203.84 140.408,203.84 C141.512,203.84 142.424,204.4 142.872,205.152 L142.872,204.064 L144.504,204.064 L144.504,211.52 C144.504,214.064 143.032,215.488 140.632,215.488 C138.312,215.488 136.984,214.496 136.984,212.992 C136.984,212.624 137.064,212.336 137.192,212.096 Z M140.616,205.296 C139.304,205.296 138.264,206.224 138.264,207.856 C138.264,209.488 139.304,210.416 140.616,210.416 C141.928,210.416 142.968,209.488 142.968,207.856 C142.968,206.224 141.928,205.296 140.616,205.296 Z M147.52,205.984 C147.52,206.656 148.24,207.008 149.504,207.248 C151.296,207.6 152.176,208.32 152.176,209.648 C152.176,211.056 151.056,212.224 149.104,212.224 C147.232,212.224 146.08,211.12 145.6,209.872 L146.928,209.04 C147.312,210.08 148.048,210.832 149.12,210.832 C149.952,210.832 150.624,210.384 150.624,209.696 C150.624,209.024 150.032,208.72 148.752,208.464 C147.264,208.16 146.048,207.472 146.048,206.064 C146.048,204.64 147.392,203.84 148.88,203.84 C150.56,203.84 151.504,204.512 152.064,205.808 L150.864,206.512 C150.496,205.568 149.76,205.088 148.912,205.088 C148.16,205.088 147.52,205.424 147.52,205.984 Z" id="CouponSettings" fill="#00001E" fill-rule="nonzero"></path>
                    <path d="M134.375,253.470845 L134.375,227.613636" id="Line-3" stroke="#00000A" stroke-linecap="square" stroke-dasharray="2,3"></path>
                    <path d="M135,254.366502 L239.005682,254.366502" id="Line-2" stroke="#00000A" stroke-linecap="square" stroke-dasharray="2,3"></path>
                    <path d="M200.375,98.608518 L200.375,30.6136364" id="Line-3" stroke="#00000A" stroke-linecap="square" stroke-dasharray="2,3"></path>
                    <path d="M185,298.366502 L238.488636,298.366502" id="Line-2" stroke="#00000A" stroke-linecap="square" stroke-dasharray="2,3"></path>
                    <text id="$49" font-family="BasisGrotesque-Bold, Basis Grotesque" font-size="16" font-weight="bold" letter-spacing="-0.600000024" fill="#FFFFFF">
                        <tspan x="368" y="308">$49</tspan>
                    </text>
                </g>
            </g>
        </g>
    </g>
</svg>