<svg xmlns="http://www.w3.org/2000/svg" xmlns:xlink="http://www.w3.org/1999/xlink" viewBox="0 0 1440 768"><defs><style>.a,.dv,.dw,.dx,.dy,.dz,.ea,.eb,.ec,.ed,.ee{fill:none;}.b{isolation:isolate;}.c{fill:#9eb3dd;opacity:0.1;mix-blend-mode:soft-light;}.d{fill:url(#a);}.e{fill:url(#b);}.f{fill:url(#c);}.g{fill:#1f1c5c;}.h{fill:#1a164c;}.i{fill:url(#d);}.dg,.dr,.ds,.dt,.dv,.dw,.dx,.dy,.dz,.ea,.eb,.ec,.ed,.ee,.ef,.j,.l,.m,.n,.o,.p{mix-blend-mode:multiply;}.j{fill:url(#e);}.k{fill:url(#f);}.l{fill:url(#g);}.m{fill:url(#h);}.n{fill:url(#i);}.o{fill:url(#j);}.p{fill:url(#k);}.q{fill:url(#l);}.r{fill:url(#m);}.s{fill:url(#n);}.t{fill:#64459d;}.u{fill:#704fa9;}.v{fill:url(#o);}.w{fill:#0d0d39;}.x{fill:url(#p);}.y{fill:url(#q);}.z{fill:url(#r);}.aa{fill:#0f0f43;}.ab{fill:#302763;}.ac,.dk,.ej{fill:#010418;}.ad{fill:#1c1851;}.ae{fill:url(#s);}.af{fill:#f15a78;}.ag{fill:#da516d;}.ah{fill:#fff;}.ai{fill:url(#t);}.aj{fill:url(#u);}.ak{fill:#c1272d;}.al{fill:#ed1c24;}.am{fill:#db1c29;}.an{fill:#aa1d28;}.ao{fill:#e6e6e6;}.ap{fill:url(#v);}.aq{fill:url(#w);}.ar{fill:url(#x);}.as{fill:url(#y);}.at{clip-path:url(#z);}.au{fill:#cc0;}.av{fill:#c7c700;}.aw{fill:#c2c200;}.ax{fill:#bdbd00;}.ay{fill:#b8b800;}.az{fill:#b3b300;}.ba{fill:#adad00;}.bb{fill:#a8a800;}.bc{fill:#a3a300;}.bd{fill:#9e9e00;}.be{clip-path:url(#aa);}.bf{fill:#858500;}.bg{fill:#8a8a00;}.bh{fill:#8f8f00;}.bi{fill:#949400;}.bj{fill:#990;}.bk{fill:#c5c500;}.bl{clip-path:url(#ab);}.bm{clip-path:url(#ac);}.bn{fill:#d1d100;}.bo{fill:#d6d600;}.bp{fill:#dbdb00;}.bq{fill:#e0e000;}.br{fill:#e6e600;}.bs{fill:#ebeb00;}.bt{fill:#f0f000;}.bu{fill:#f5f500;}.bv{fill:#fafa00;}.bw{fill:#ff0;}.bx{fill:#898900;}.by{clip-path:url(#ad);}.bz{clip-path:url(#ae);}.ca{clip-path:url(#af);}.cb{clip-path:url(#ag);}.cc{clip-path:url(#ah);}.cd{clip-path:url(#ai);}.ce{clip-path:url(#aj);}.cf{fill:#dcdc00;}.cg{clip-path:url(#ak);}.ch{fill:url(#al);}.ci{fill:url(#am);}.cj{fill:url(#an);}.ck{fill:url(#ao);}.cl{clip-path:url(#ap);}.cm{clip-path:url(#aq);}.cn{clip-path:url(#ar);}.co{clip-path:url(#as);}.cp{clip-path:url(#at);}.cq{clip-path:url(#au);}.cr{clip-path:url(#av);}.cs{clip-path:url(#aw);}.ct{clip-path:url(#ax);}.cu{clip-path:url(#ay);}.cv{clip-path:url(#az);}.cw{clip-path:url(#ba);}.cx{fill:url(#bb);}.cy{fill:url(#bc);}.cz{fill:url(#bd);}.da{fill:url(#be);}.db{fill:url(#bf);}.dc{fill:url(#bg);}.dd{fill:url(#bh);}.de{fill:url(#bi);}.df{fill:url(#bj);}.dg,.dk,.dl,.el{opacity:0.2;}.dg{fill:url(#bk);}.dh{fill:#441e52;}.di{fill:url(#bl);}.dj{fill:url(#bm);}.dm{fill:#0a0a26;}.dn{fill:url(#bn);}.do{fill:url(#bo);}.dp{fill:url(#bp);}.dq{fill:#373c69;}.dr{fill:url(#bq);}.ds{fill:url(#br);}.dt{fill:url(#bs);}.du{fill:#393b76;}.dv,.dw,.dx,.dy,.dz,.ea,.eb,.ec,.ed,.ee{stroke-miterlimit:10;stroke-width:3px;}.dv{stroke:url(#bt);}.dw{stroke:url(#bu);}.dx{stroke:url(#bv);}.dy{stroke:url(#bw);}.dz{stroke:url(#bx);}.ea{stroke:url(#by);}.eb{stroke:url(#bz);}.ec{stroke:url(#ca);}.ed{stroke:url(#cb);}.ee{stroke:url(#cc);}.ef{fill:url(#cd);}.eg,.eh,.ei{opacity:0.5;}.eg{fill:url(#ce);}.eh{fill:url(#cf);}.ei{fill:url(#cg);}.ej{opacity:0.3;}.ek{fill:#eb6f9b;}.el{fill:#09083a;}.em{fill:#0d0b13;}.en{fill:#171744;}.eo{fill:#d4664e;}</style><linearGradient id="a" x1="655.45" y1="308.71" x2="770.1" y2="868.18" gradientUnits="userSpaceOnUse"><stop offset="0" stop-color="#3b2f75"/><stop offset="1" stop-color="#010418"/></linearGradient><linearGradient id="b" x1="674.84" y1="400.54" x2="810.46" y2="1003.31" xlink:href="#a"/><linearGradient id="c" x1="1036.31" y1="444.58" x2="1077.57" y2="444.37" xlink:href="#a"/><linearGradient id="d" x1="938.88" y1="573" x2="938.88" y2="796.11" gradientUnits="userSpaceOnUse"><stop offset="0" stop-color="#16153b"/><stop offset="1" stop-color="#1a1a3d"/></linearGradient><linearGradient id="e" x1="1062.64" y1="440.31" x2="1091.39" y2="440.31" gradientUnits="userSpaceOnUse"><stop offset="0" stop-color="#919ddb"/><stop offset="1" stop-color="#45559b"/></linearGradient><linearGradient id="f" x1="1101.64" y1="444.19" x2="1046.47" y2="445.28" gradientUnits="userSpaceOnUse"><stop offset="0" stop-color="#9f8461" stop-opacity="0.6"/><stop offset="1" stop-color="#ff6fa2" stop-opacity="0"/></linearGradient><linearGradient id="g" x1="862.73" y1="595.69" x2="866.81" y2="818.58" gradientUnits="userSpaceOnUse"><stop offset="0" stop-color="#121233"/><stop offset="1" stop-color="#010418"/></linearGradient><linearGradient id="h" x1="961.41" y1="565.46" x2="966.19" y2="826.81" xlink:href="#g"/><linearGradient id="i" x1="1013.89" y1="574.99" x2="1018.45" y2="824.16" xlink:href="#g"/><linearGradient id="j" x1="1224.87" y1="568.32" x2="1229.59" y2="826.49" xlink:href="#g"/><linearGradient id="k" x1="776.44" y1="638.53" x2="779.5" y2="806.31" xlink:href="#g"/><linearGradient id="l" x1="133.76" y1="323.49" x2="151.42" y2="413.41" xlink:href="#f"/><linearGradient id="m" x1="1078.17" y1="308.54" x2="1090.21" y2="371.97" gradientUnits="userSpaceOnUse"><stop offset="0" stop-color="#9f8461" stop-opacity="0.6"/><stop offset="1" stop-color="#66447a" stop-opacity="0"/></linearGradient><linearGradient id="n" x1="243.83" y1="424.94" x2="286.83" y2="565.68" xlink:href="#m"/><linearGradient id="o" x1="1050.13" y1="437.18" x2="1059.9" y2="607.24" gradientUnits="userSpaceOnUse"><stop offset="0" stop-color="#131143"/><stop offset="1" stop-color="#090a30"/></linearGradient><linearGradient id="p" x1="853.81" y1="564.77" x2="884.75" y2="549.53" gradientTransform="translate(-21.51 37) rotate(-2.33)" gradientUnits="userSpaceOnUse"><stop offset="0" stop-color="#919ddb"/><stop offset="1" stop-color="#45559b" stop-opacity="0"/></linearGradient><linearGradient id="q" x1="836.86" y1="560.48" x2="867.8" y2="545.25" xlink:href="#p"/><linearGradient id="r" x1="818.76" y1="595.03" x2="867.27" y2="572.26" gradientTransform="translate(-21.51 37) rotate(-2.33)" gradientUnits="userSpaceOnUse"><stop offset="0" stop-color="#3b2a85"/><stop offset="1" stop-color="#64459d"/></linearGradient><linearGradient id="s" x1="828.14" y1="585.17" x2="828.14" y2="539.96" gradientTransform="translate(-21.51 37) rotate(-2.33)" xlink:href="#f"/><linearGradient id="t" x1="960.6" y1="540.34" x2="997.83" y2="529.02" gradientTransform="matrix(1, -0.1, 0.1, 1, -46.3, 93.18)" xlink:href="#r"/><linearGradient id="u" x1="975.47" y1="523.54" x2="974.81" y2="501.59" gradientTransform="matrix(1, -0.1, 0.1, 1, -46.3, 93.18)" xlink:href="#f"/><linearGradient id="v" x1="8750.1" y1="3158.29" x2="8767.29" y2="3150.23" gradientTransform="matrix(-0.99, 0.12, -0.12, -0.99, 10126.13, 2584.49)" xlink:href="#r"/><linearGradient id="w" x1="905.8" y1="585.87" x2="945.98" y2="566.08" gradientTransform="matrix(1, -0.02, 0.02, 1, -9.56, 17.15)" xlink:href="#r"/><linearGradient id="x" x1="935.83" y1="558.67" x2="966.21" y2="543.71" gradientTransform="matrix(1, -0.02, 0.02, 1, -9.56, 17.15)" xlink:href="#p"/><linearGradient id="y" x1="919.19" y1="554.46" x2="949.57" y2="539.5" gradientTransform="matrix(1, -0.02, 0.02, 1, -9.56, 17.15)" xlink:href="#p"/><clipPath id="z"><path class="a" d="M909.89,538.33,911,538a2.86,2.86,0,0,0-1.81,2.29l-1.07.31A2.9,2.9,0,0,1,909.89,538.33Z"/></clipPath><clipPath id="aa"><path class="a" d="M914.11,549.12l-1.07.3a2.82,2.82,0,0,1-2.71-1,9,9,0,0,1-2.26-7.83l1.07-.31a9,9,0,0,0,2.25,7.84A2.88,2.88,0,0,0,914.11,549.12Z"/></clipPath><clipPath id="ab"><path class="a" d="M901.61,542l.95-.57a2.87,2.87,0,0,1,2.92.23l-1,.57A2.9,2.9,0,0,0,901.61,542Z"/></clipPath><clipPath id="ac"><path class="a" d="M908.54,551.28l-.95.58a2.86,2.86,0,0,0,1.15-2.64,9,9,0,0,0-4.21-7l1-.57a9,9,0,0,1,4.2,7A2.86,2.86,0,0,1,908.54,551.28Z"/></clipPath><clipPath id="ad"><path class="a" d="M911.53,543.82l1.09.22a2.88,2.88,0,0,1,2,2.13l-1.09-.21A2.9,2.9,0,0,0,911.53,543.82Z"/></clipPath><clipPath id="ae"><path class="a" d="M910.41,555.35l-1.09-.21a2.87,2.87,0,0,0,2.62-1.18,9,9,0,0,0,1.59-8l1.09.21a9,9,0,0,1-1.59,8A2.85,2.85,0,0,1,910.41,555.35Z"/></clipPath><clipPath id="af"><path class="a" d="M924,546.29l1.08.22a2.86,2.86,0,0,1,2,2.13l-1.08-.21A2.91,2.91,0,0,0,924,546.29Z"/></clipPath><clipPath id="ag"><path class="a" d="M922.91,557.82l-1.09-.21a2.86,2.86,0,0,0,2.62-1.19,9,9,0,0,0,1.6-8l1.08.21a9,9,0,0,1-1.59,8A2.87,2.87,0,0,1,922.91,557.82Z"/></clipPath><clipPath id="ah"><path class="a" d="M920.59,544.26l1,.54a2.87,2.87,0,0,0-2.9.34l-1-.54A2.87,2.87,0,0,1,920.59,544.26Z"/></clipPath><clipPath id="ai"><path class="a" d="M916,554.88l-1-.54a2.87,2.87,0,0,1-1.24-2.6,9,9,0,0,1,4-7.14l1,.54a9,9,0,0,0-3.95,7.14A2.87,2.87,0,0,0,916,554.88Z"/></clipPath><clipPath id="aj"><path class="a" d="M921.45,555.45v1.11a2.83,2.83,0,0,1-1.63,2.37,8.94,8.94,0,0,1-8.15.15,2.89,2.89,0,0,1-1.75-2.34v-1.11a2.88,2.88,0,0,0,1.74,2.35,9,9,0,0,0,8.15-.15A2.87,2.87,0,0,0,921.45,555.45Z"/></clipPath><clipPath id="ak"><path class="a" d="M910.25,549.26l.79.77a2.87,2.87,0,0,1,.53,2.83,9,9,0,0,1-5.66,5.87,2.88,2.88,0,0,1-2.9-.42l-.79-.77a2.86,2.86,0,0,0,2.89.42,9,9,0,0,0,5.66-5.87A2.85,2.85,0,0,0,910.25,549.26Z"/></clipPath><linearGradient id="al" x1="909.87" y1="568.6" x2="909.39" y2="523.72" gradientTransform="matrix(1, -0.02, 0.02, 1, -9.56, 17.15)" xlink:href="#f"/><linearGradient id="am" x1="1018.62" y1="501.74" x2="1037.04" y2="492.66" gradientTransform="translate(-48.09 117.55) rotate(-6.47)" xlink:href="#r"/><linearGradient id="an" x1="1035.23" y1="489.14" x2="1050.94" y2="481.4" gradientTransform="translate(-48.09 117.55) rotate(-6.47)" xlink:href="#p"/><linearGradient id="ao" x1="1026.62" y1="486.96" x2="1042.33" y2="479.22" gradientTransform="translate(-48.09 117.55) rotate(-6.47)" xlink:href="#p"/><clipPath id="ap"><path class="a" d="M1021.07,477.72l.53-.21a1.51,1.51,0,0,0-.82,1.27l-.53.21A1.48,1.48,0,0,1,1021.07,477.72Z"/></clipPath><clipPath id="aq"><path class="a" d="M1023.77,483.07l-.53.21a1.49,1.49,0,0,1-1.45-.36,4.66,4.66,0,0,1-1.54-3.93l.53-.21a4.66,4.66,0,0,0,1.54,3.93A1.5,1.5,0,0,0,1023.77,483.07Z"/></clipPath><clipPath id="ar"><path class="a" d="M1017,480l.46-.34a1.5,1.5,0,0,1,1.51,0l-.46.34A1.5,1.5,0,0,0,1017,480Z"/></clipPath><clipPath id="as"><path class="a" d="M1021,484.46l-.46.34a1.5,1.5,0,0,0,.46-1.42,4.66,4.66,0,0,0-2.51-3.39l.46-.34a4.66,4.66,0,0,1,2.51,3.39A1.51,1.51,0,0,1,1021,484.46Z"/></clipPath><clipPath id="at"><path class="a" d="M1022.18,480.47l.57.06a1.48,1.48,0,0,1,1.14,1l-.57-.06A1.48,1.48,0,0,0,1022.18,480.47Z"/></clipPath><clipPath id="au"><path class="a" d="M1022.17,486.46l-.57-.06a1.48,1.48,0,0,0,1.29-.73,4.66,4.66,0,0,0,.43-4.2l.57.06a4.64,4.64,0,0,1-.43,4.19A1.49,1.49,0,0,1,1022.17,486.46Z"/></clipPath><clipPath id="av"><path class="a" d="M1028.74,481.13l.57.06a1.5,1.5,0,0,1,1.14,1l-.57-.06A1.5,1.5,0,0,0,1028.74,481.13Z"/></clipPath><clipPath id="aw"><path class="a" d="M1028.72,487.12l-.57-.06a1.48,1.48,0,0,0,1.3-.73,4.66,4.66,0,0,0,.43-4.2l.57.06a4.64,4.64,0,0,1-.43,4.19A1.49,1.49,0,0,1,1028.72,487.12Z"/></clipPath><clipPath id="ax"><path class="a" d="M1026.87,480.25l.53.23a1.5,1.5,0,0,0-1.48.32l-.53-.23A1.5,1.5,0,0,1,1026.87,480.25Z"/></clipPath><clipPath id="ay"><path class="a" d="M1025,486l-.53-.24a1.47,1.47,0,0,1-.76-1.27,4.64,4.64,0,0,1,1.68-3.87l.53.23a4.65,4.65,0,0,0-1.69,3.87A1.5,1.5,0,0,0,1025,486Z"/></clipPath><clipPath id="az"><path class="a" d="M1027.86,486l.06.57a1.46,1.46,0,0,1-.73,1.3,4.64,4.64,0,0,1-4.19.48,1.49,1.49,0,0,1-1-1.12l-.06-.57a1.49,1.49,0,0,0,1,1.12,4.62,4.62,0,0,0,4.19-.48A1.48,1.48,0,0,0,1027.86,486Z"/></clipPath><clipPath id="ba"><path class="a" d="M1021.79,483.33l.44.36a1.45,1.45,0,0,1,.41,1.43,4.63,4.63,0,0,1-2.62,3.3,1.48,1.48,0,0,1-1.51-.08l-.45-.35a1.51,1.51,0,0,0,1.51.07,4.67,4.67,0,0,0,2.63-3.3A1.49,1.49,0,0,0,1021.79,483.33Z"/></clipPath><linearGradient id="bb" x1="1021.8" y1="494.27" x2="1021.55" y2="471.06" gradientTransform="translate(-48.09 117.55) rotate(-6.47)" xlink:href="#f"/><linearGradient id="bc" x1="986.9" y1="649.49" x2="515.15" y2="701.61" xlink:href="#f"/><linearGradient id="bd" x1="1100.73" y1="637.35" x2="1140.73" y2="637.35" xlink:href="#f"/><linearGradient id="be" x1="1165.73" y1="593.35" x2="1197.73" y2="593.35" xlink:href="#f"/><linearGradient id="bf" x1="1222.73" y1="571.35" x2="1255.73" y2="571.35" xlink:href="#f"/><linearGradient id="bg" x1="1280.73" y1="463.35" x2="1439.73" y2="463.35" xlink:href="#f"/><linearGradient id="bh" x1="56.73" y1="449.35" x2="100.73" y2="449.35" xlink:href="#f"/><linearGradient id="bi" x1="222.58" y1="511.65" x2="228.73" y2="847.56" gradientUnits="userSpaceOnUse"><stop offset="0" stop-color="#4d1f54"/><stop offset="1" stop-color="#010418"/></linearGradient><linearGradient id="bj" x1="393.32" y1="428.25" x2="400.53" y2="822.88" xlink:href="#bi"/><linearGradient id="bk" x1="605.9" y1="428.21" x2="611.48" y2="733.3" xlink:href="#bi"/><linearGradient id="bl" x1="294.44" y1="652.81" x2="601.73" y2="652.81" xlink:href="#a"/><linearGradient id="bm" x1="601.73" y1="652.81" x2="747.99" y2="652.81" xlink:href="#a"/><linearGradient id="bn" x1="294.44" y1="568.36" x2="691.54" y2="568.36" gradientUnits="userSpaceOnUse"><stop offset="0" stop-color="#0a0a26"/><stop offset="1" stop-color="#45559b" stop-opacity="0.4"/></linearGradient><linearGradient id="bo" x1="784.17" y1="441.74" x2="742.55" y2="506.26" gradientUnits="userSpaceOnUse"><stop offset="0" stop-color="#9994b4"/><stop offset="1" stop-color="#45559b" stop-opacity="0.4"/></linearGradient><linearGradient id="bp" x1="573.13" y1="400.39" x2="573.13" y2="433.69" gradientUnits="userSpaceOnUse"><stop offset="0" stop-color="#fff" stop-opacity="0.6"/><stop offset="1" stop-color="#ff6fa2" stop-opacity="0"/></linearGradient><linearGradient id="bq" x1="402.4" y1="465.42" x2="501.56" y2="465.42" xlink:href="#bo"/><linearGradient id="br" x1="620.56" y1="505.21" x2="714.79" y2="505.21" xlink:href="#bo"/><linearGradient id="bs" x1="504.04" y1="484.21" x2="617.21" y2="484.21" xlink:href="#bo"/><linearGradient id="bt" x1="426.87" y1="450.71" x2="479.79" y2="450.71" xlink:href="#bo"/><linearGradient id="bu" x1="424.08" y1="467.79" x2="477" y2="467.79" xlink:href="#bo"/><linearGradient id="bv" x1="645.44" y1="485.08" x2="653.33" y2="485.08" xlink:href="#bo"/><linearGradient id="bw" x1="659.12" y1="489.88" x2="698.36" y2="489.88" xlink:href="#bo"/><linearGradient id="bx" x1="642.65" y1="502.22" x2="651.23" y2="502.22" xlink:href="#bo"/><linearGradient id="by" x1="658.1" y1="507.11" x2="695.57" y2="507.11" xlink:href="#bo"/><linearGradient id="bz" x1="639.84" y1="518.9" x2="647.14" y2="518.9" xlink:href="#bo"/><linearGradient id="ca" x1="652.85" y1="523.61" x2="691.79" y2="523.61" xlink:href="#bo"/><linearGradient id="cb" x1="636.08" y1="539.56" x2="689" y2="539.56" xlink:href="#bo"/><linearGradient id="cc" x1="446.23" y1="486.92" x2="474.21" y2="486.92" xlink:href="#bo"/><linearGradient id="cd" x1="504.04" y1="502.93" x2="616.98" y2="502.93" xlink:href="#bo"/><linearGradient id="ce" x1="505.64" y1="453.19" x2="406.43" y2="471.23" gradientUnits="userSpaceOnUse"><stop offset="0" stop-color="#b3b0d7" stop-opacity="0.6"/><stop offset="1" stop-color="#ff6fa2" stop-opacity="0"/></linearGradient><linearGradient id="cf" x1="631.39" y1="478.63" x2="525.25" y2="496.67" xlink:href="#bp"/><linearGradient id="cg" x1="728.15" y1="509.17" x2="610.9" y2="517.49" xlink:href="#bp"/></defs><title>dunning-banner-s</title><g class="b"><polygon class="c" points="0 -0.11 1440 130.72 1440 138.42 0 46.46 0 -0.11"/><polygon class="c" points="1440 238.28 420.34 134.67 1438.79 284 1440 238.28"/><polygon class="d" points="49.78 426.51 249.4 331.63 309.78 357.5 408.36 340.25 487.22 345.18 569.78 331.63 713.95 399.4 771.87 392 944.38 456.08 1125.52 295.89 1176.04 305.75 1220.4 346.41 1257.37 355.04 1344.86 409.26 1440 479.51 1440 767.89 0 767.89 0 516.53 49.78 426.51"/><polygon class="e" points="1440 434.53 1344.86 409.26 1257.37 355.04 1220.4 346.41 1176.04 305.75 1125.52 295.89 907.41 489.35 812.53 505.37 726.27 516.46 670.83 497.98 644.95 494.28 587.03 507.83 426.84 435.13 386.18 430.2 196.42 541.1 0 768 0 768 1440 767.89 1440 479.51 1440 479.49 1440 434.53"/><polygon class="f" points="1060.3 457.63 1051.22 439.23 1058.03 419.05 1069.73 420.14 1080.61 414.49 1094.8 418.65 1095.22 431.39 1101.76 430.2 1104.98 437.73 1091.36 474.15 1089.78 453.62 1068.26 449.58 1060.3 457.63"/><polygon class="g" points="1154.36 360.25 1176.31 357.65 1254.05 445.19 1227.58 475.35 1289.26 430.11 1326.48 417.12 1345.28 432.4 1368.36 432.4 1440 479.51 1440 434.53 1344.86 409.26 1257.37 355.04 1220.4 346.41 1176.04 305.75 1125.52 295.89 1163.96 339.93 1154.36 360.25"/><polygon class="g" points="713.95 399.4 569.78 331.63 539.76 336.55 663.29 432.4 694.74 421.3 741.07 451.08 772.16 478.31 897.14 488.63 781.95 464.23 764 434.9 800.14 431.39 925.01 473.76 944.38 456.08 771.87 392 713.95 399.4"/><polygon class="g" points="296.7 396.45 312.37 380.26 339.09 382.57 385.62 409.43 426.31 367.1 486.68 362.63 539.76 336.55 487.22 345.18 408.36 340.25 309.78 357.5 249.4 331.63 240.46 335.88 239.54 344.29 296.7 396.45"/><polygon class="h" points="587.03 507.83 644.95 494.28 670.83 497.98 726.27 516.46 812.53 505.37 907.41 489.35 599.68 464.23 426.31 409.43 386.18 430.2 426.84 435.13 587.03 507.83"/><polygon class="i" points="1255.73 578.85 1194.73 597.85 1082.73 603.85 1027.73 596.85 1005.73 585.85 1000.73 590.85 970.73 589.85 952.73 576.85 893.73 608.85 833.69 605.8 832.73 637.85 800.33 648.35 742.55 646.35 773.76 656.96 724.73 672.85 662.73 675.85 522.23 674.35 518.95 672.64 516.73 673.85 437.76 768 1440 768 1440 591.85 1255.73 578.85"/><polygon class="j" points="1068.26 449.58 1062.64 442.94 1066.22 429.83 1072.09 430.32 1078.49 427.01 1086.25 432.49 1085.85 436.92 1087.59 435.29 1091.39 440.74 1090.06 453.62 1068.26 449.58"/><polyline class="k" points="1042.8 465.82 1090.06 453.62 1091.39 440.74 1087.59 435.29 1085.85 436.92 1086.25 432.49 1078.49 427.01 1072.09 430.32 1042.28 424.89"/><polygon class="l" points="833.69 605.8 893.73 608.85 893.73 768 875.78 768 832.73 637.85 833.69 605.8"/><polygon class="m" points="970.73 589.85 970.73 768 960.5 768 952.73 576.85 970.73 589.85"/><polygon class="n" points="1005.73 585.85 1027.73 596.85 1027.73 768 1016.73 768 1000.73 590.85 1005.73 585.85"/><polygon class="o" points="1255.73 578.85 1255.73 768 1224.05 768 1194.73 597.85 1255.73 578.85"/><polygon class="p" points="773.76 656.96 742.55 646.35 800.33 648.35 812.83 768 798.26 768 773.76 656.96"/><polygon class="g" points="1059.09 354.81 1026.24 383.95 1018.31 431.39 1059.09 354.81"/><polygon class="h" points="1180.97 526.32 1132.84 394.01 1164.93 426.51 1199.86 479.11 1214.24 468.14 1227.58 475.35 1405.23 495.51 1362.11 506.6 1261.06 523.85 1180.97 526.32"/><polygon class="q" points="239.54 344.29 213.67 385.62 239.54 409.43 168.07 401.75 52.24 439.3 49.78 426.51 240.46 335.88 239.54 344.29"/><polygon class="r" points="1125.52 295.89 1112.77 331.63 1119.14 354.81 1043.06 385.62 1059.09 354.81 1125.52 295.89"/><polygon class="s" points="386.18 430.2 289.89 486.48 300.61 509.34 196.42 541.1 153.67 590.49 367.5 544.54 342.4 483.64 372.65 468.43 386.18 430.2"/><polygon class="g" points="515.79 511.7 578.45 521.3 639.64 516.45 750.32 535.42 907.41 489.35 812.53 505.37 726.27 516.46 670.83 497.98 644.95 494.28 587.03 507.83 426.84 435.13 386.18 430.2 505.42 538.25 515.79 511.7"/><polygon class="t" points="1439.73 563.85 1275.73 546.85 1240.73 555.85 1158.73 569.85 1093.73 571.85 1024.73 567.85 1001.73 563.85 980.73 549.85 985.73 542.85 1009.13 530.85 1013.57 521.85 1019.73 512.85 1041.73 499.21 1047.89 490.58 1076.71 475.8 1082.19 464.71 1089.78 453.62 1068.26 449.58 1059.1 458.84 1054.77 467.92 1022.67 487.97 996.92 508.57 941.23 539.35 855.23 573.35 728.23 597.35 578.23 620.35 446.49 634.21 444.73 633.85 70.7 767.89 437.76 767.89 516.73 673.85 518.95 672.64 522.23 674.35 662.73 675.85 724.73 672.85 773.76 656.96 742.55 646.35 800.33 648.35 832.73 637.85 833.69 605.8 893.73 608.85 952.73 576.85 970.73 589.85 1000.73 590.85 1005.73 585.85 1027.73 596.85 1082.73 603.85 1194.73 597.85 1255.73 578.85 1440 591.85 1439.73 563.85"/><polygon class="u" points="144.72 757.42 441.73 645.18 679.72 612.15 860.04 578.85 948.13 541.75 996.92 508.57 941.23 539.35 855.23 573.35 728.23 597.35 578.23 620.35 444.73 633.85 70.7 767.89 144.72 757.42"/><polygon class="v" points="1047.89 490.58 1041.73 499.21 1019.73 512.85 1013.57 521.85 1009.13 530.85 985.73 542.85 980.73 549.85 1001.73 563.85 1024.73 567.85 1093.73 571.85 1133.66 570.62 1122.65 522.94 1093.48 501.67 1067.66 495.85 1075.84 486.6 1083.58 492.24 1079.44 470.26 1076.71 475.8 1047.89 490.58"/><polygon class="w" points="1076.71 475.8 1047.89 490.58 1041.73 499.21 1067.6 516.46 1095.94 521.39 1122.65 522.94 1093.48 501.67 1089.78 453.62 1082.19 464.71 1076.71 475.8"/><polyline class="x" points="896.57 550.51 851.2 567.14 848.02 563.46 890.14 549.75"/><polyline class="y" points="879.46 546.91 834.09 563.54 830.91 559.86 873.03 546.15"/><polyline class="z" points="886 580 834.37 594.67 814.58 585.88 870 576"/><ellipse class="aa" cx="814.51" cy="586.29" rx="5.7" ry="3.95" transform="translate(-146.21 876.41) rotate(-52.55)"/><ellipse class="ab" cx="827.05" cy="580" rx="5.7" ry="3.95" transform="translate(-136.31 883.9) rotate(-52.55)"/><path class="ac" d="M811.26,588.81a7.56,7.56,0,0,1,4.48-6.68,4.29,4.29,0,0,1,2.24-.35,3.59,3.59,0,0,0-3.66-.23,7.54,7.54,0,0,0-4.48,6.68,3,3,0,0,0,2.61,3.15A3.32,3.32,0,0,1,811.26,588.81Z"/><path class="ac" d="M823.8,582.52a7.54,7.54,0,0,1,4.48-6.68,4.4,4.4,0,0,1,2.24-.35,3.61,3.61,0,0,0-3.67-.23,7.57,7.57,0,0,0-4.47,6.68,3,3,0,0,0,2.61,3.15A3.3,3.3,0,0,1,823.8,582.52Z"/><polygon class="ab" points="809.07 568.48 813.36 586.62 829.64 593.08 851.61 583.03 855.36 562.53 833.74 556.29 809.07 568.48"/><polygon class="ad" points="833.74 556.29 809.07 568.48 809.74 571.35 828.61 576.89 854.64 566.46 855.36 562.53 833.74 556.29"/><polygon class="ad" points="828.52 574.88 829.64 593.08 854.64 566.46 855.03 564.33 828.52 574.88"/><polygon class="ab" points="804.85 564.84 804.98 567.96 828.52 574.88 858.17 563 858.05 559.88 833.62 553.25 804.85 564.84"/><polygon class="t" points="804.85 564.84 828.4 571.77 858.05 559.88 833.62 553.25 804.85 564.84"/><polygon class="ad" points="811.97 564.5 833.76 555.71 850.69 560.31 828.28 569.29 811.97 564.5"/><polyline class="ae" points="803.26 524.44 812.84 564.74 828.05 569.3 849.55 560.77 851.14 528.49"/><polygon class="ad" points="842.47 563.6 833.99 561.3 820.12 566.89 828.28 569.29 842.47 563.6"/><ellipse class="ab" cx="835.27" cy="591.67" rx="5.7" ry="3.95" transform="translate(-142.34 895) rotate(-52.55)"/><ellipse class="ab" cx="847.81" cy="585.38" rx="5.7" ry="3.95" transform="translate(-132.44 902.49) rotate(-52.55)"/><path class="ac" d="M832,594.18a7.53,7.53,0,0,1,4.47-6.67,4.34,4.34,0,0,1,2.25-.36,3.63,3.63,0,0,0-3.67-.22,7.56,7.56,0,0,0-4.48,6.68,3,3,0,0,0,2.62,3.15A3.31,3.31,0,0,1,832,594.18Z"/><path class="ac" d="M844.56,587.9a7.56,7.56,0,0,1,4.48-6.68,4.4,4.4,0,0,1,2.24-.35,3.59,3.59,0,0,0-3.66-.23,7.56,7.56,0,0,0-4.48,6.68,3,3,0,0,0,2.62,3.15A3.33,3.33,0,0,1,844.56,587.9Z"/><polygon class="af" points="815.88 565.64 816.18 561.81 819.76 560.38 823.83 562.31 823.91 564.36 825.48 566.82 825.96 568.59 815.88 565.64"/><polygon class="af" points="837.93 554.64 835.61 556.42 836.24 559.07 833.89 560.3 834.5 561.78 840.51 564.4 850.69 560.31 843.48 556.53 842.17 557.29 837.93 554.64"/><polygon class="af" points="835.28 566.49 826.64 556.2 823.36 557.69 823.49 560.88 825.68 561.83 825.46 563.93 828.28 569.29 835.28 566.49"/><polygon class="af" points="835.28 566.49 825.07 554.33 825.51 550.74 830.38 551.96 832.93 554.85 833.87 553.69 835.96 554.47 840.51 564.4 835.28 566.49"/><polygon class="af" points="824.87 568.27 827.75 555.95 831.78 554.89 832.6 556.34 830.35 568.47 828.28 569.29 824.87 568.27"/><polygon class="ag" points="827.75 555.95 830.92 556.02 829.13 564.14 831.84 556.37 832.6 556.34 831.78 554.89 827.75 555.95"/><polygon class="ag" points="825.51 550.74 828.98 553.62 829.51 553.02 832.93 554.85 830.38 551.96 825.51 550.74"/><polygon class="ag" points="833.87 553.69 835.08 554.76 840.48 563.56 835.96 554.47 833.87 553.69"/><polygon class="ag" points="837.93 554.64 840.24 557.79 840.76 559.46 841.29 557.76 842.2 558.14 845.02 562.59 842.17 557.29 837.93 554.64"/><polygon class="ag" points="819.76 560.38 821.1 561.82 819.17 562.78 821.96 563.74 822.87 566.08 824.87 568.27 825.28 566.51 823.91 564.36 823.83 562.31 819.76 560.38"/><polygon class="ag" points="843.48 556.53 846.38 558.87 845.33 559.96 846.67 560.03 846.83 561.86 850.69 560.31 843.48 556.53"/><polygon class="ag" points="831.78 554.89 832.6 556.34 830.35 568.47 832.94 567.42 833.58 560.96 835.21 561.88 835.28 566.49 836.06 560.67 833.09 558.79 833.47 555.31 831.78 554.89"/><polygon class="ah" points="827.93 556.53 825.33 567.7 828.51 556.71 827.93 556.53"/><polygon class="ah" points="819.55 561.01 816.84 562 816.41 564.57 817.27 562.49 819.55 561.01"/><polygon class="ah" points="823.73 558.01 823.82 560.22 825.93 561.24 824.52 559.76 823.73 558.01"/><polygon class="ah" points="826.65 555.6 825.46 554.41 825.71 551.25 825.99 554.01 826.65 555.6"/><polygon class="ah" points="837.8 555.14 837.05 555.77 837.97 555.54 837.8 555.14"/><polygon class="ah" points="833.88 554.03 834.4 554.79 833.14 555.07 833.88 554.03"/><polygon class="ah" points="843.51 557.21 842.41 557.45 843.49 556.7 843.85 557.14 843.45 557.04 843.51 557.21"/><polyline class="ai" points="1010 520 979.15 539.59 963.62 533.7 997 517"/><ellipse class="aa" cx="963.58" cy="534.01" rx="4.37" ry="3.03" transform="translate(-20.49 1029.26) rotate(-55.71)"/><ellipse class="ab" cx="972.92" cy="528.67" rx="4.37" ry="3.03" transform="translate(-12 1034.64) rotate(-55.71)"/><path class="ac" d="M961.21,536.08a5.76,5.76,0,0,1,3.14-5.3,3.35,3.35,0,0,1,1.7-.37,2.77,2.77,0,0,0-2.81,0,5.81,5.81,0,0,0-3.15,5.31,2.34,2.34,0,0,0,2.14,2.3A2.54,2.54,0,0,1,961.21,536.08Z"/><path class="ac" d="M970.54,530.74a5.81,5.81,0,0,1,3.14-5.31,3.39,3.39,0,0,1,1.71-.36,2.79,2.79,0,0,0-2.82,0,5.78,5.78,0,0,0-3.14,5.3,2.32,2.32,0,0,0,2.13,2.31A2.57,2.57,0,0,1,970.54,530.74Z"/><polygon class="ab" points="958.66 520.61 962.72 534.31 975.46 538.57 991.86 529.95 993.86 514.1 977.05 510.23 958.66 520.61"/><polygon class="ad" points="977.05 510.23 958.66 520.61 959.3 522.77 973.98 526.23 993.48 517.13 993.86 514.1 977.05 510.23"/><polygon class="ad" points="973.83 524.69 975.46 538.57 993.48 517.13 993.68 515.49 973.83 524.69"/><polygon class="ab" points="955.28 518 955.51 520.38 973.83 524.69 996.03 514.34 995.8 511.96 976.82 507.91 955.28 518"/><polygon class="t" points="955.28 518 973.61 522.31 995.8 511.96 976.82 507.91 955.28 518"/><polygon class="ad" points="960.72 517.43 977.04 509.79 990.19 512.59 973.41 520.42 960.72 517.43"/><polyline class="aj" points="952.92 495.53 961.4 517.59 973.24 520.44 989.34 513 989.19 488.21"/><polygon class="ad" points="984.04 515.46 977.45 514.06 967.06 518.93 973.41 520.42 984.04 515.46"/><ellipse class="ab" cx="979.71" cy="537.25" rx="4.37" ry="3.03" transform="translate(-16.13 1043.99) rotate(-55.71)"/><ellipse class="ab" cx="989.04" cy="531.91" rx="4.37" ry="3.03" transform="translate(-7.64 1049.37) rotate(-55.71)"/><path class="ac" d="M977.33,539.32a5.79,5.79,0,0,1,3.15-5.3,3.35,3.35,0,0,1,1.7-.37,2.77,2.77,0,0,0-2.82,0,5.77,5.77,0,0,0-3.14,5.3,2.33,2.33,0,0,0,2.13,2.3A2.55,2.55,0,0,1,977.33,539.32Z"/><path class="ac" d="M986.67,534a5.78,5.78,0,0,1,3.14-5.31,3.35,3.35,0,0,1,1.71-.36,2.79,2.79,0,0,0-2.82,0,5.8,5.8,0,0,0-3.15,5.3,2.34,2.34,0,0,0,2.14,2.31A2.54,2.54,0,0,1,986.67,534Z"/><polygon class="ak" points="963.76 518.15 963.83 515.2 966.51 513.96 969.71 515.26 969.86 516.82 971.17 518.65 971.6 519.98 963.76 518.15"/><polygon class="ak" points="980.18 508.8 978.48 510.25 979.07 512.25 977.33 513.3 977.86 514.41 982.57 516.15 990.19 512.59 984.51 510 983.54 510.64 980.18 508.8"/><polygon class="al" points="978.65 517.98 971.6 510.46 969.15 511.74 969.39 514.18 971.11 514.82 971.02 516.43 973.41 520.42 978.65 517.98"/><polygon class="al" points="978.65 517.98 970.32 509.1 970.5 506.33 974.29 507.06 976.36 509.16 977.03 508.24 978.66 508.74 982.57 516.15 978.65 517.98"/><polygon class="al" points="970.75 519.78 972.45 510.23 975.48 509.25 976.17 510.32 974.96 519.7 973.41 520.42 970.75 519.78"/><polygon class="am" points="972.45 510.23 974.04 511.01 973.84 516.44 975.01 511.59 976.17 510.32 975.48 509.25 972.45 510.23"/><polygon class="am" points="970.5 506.33 973.28 508.38 973.67 507.91 976.36 509.16 974.29 507.06 970.5 506.33"/><polygon class="am" points="977.03 508.24 978 509 981.75 515.21 978.66 508.74 977.03 508.24"/><polygon class="an" points="980.18 508.8 982.09 511.11 982.55 512.36 982.97 511.88 983.68 512.14 985.95 514.58 983.54 510.64 980.18 508.8"/><polygon class="am" points="966.51 513.96 967.6 515 966.16 515.82 966.69 517.68 969.13 518.19 970.75 519.78 971 518.41 969.86 516.82 969.71 515.26 966.51 513.96"/><polygon class="an" points="984.51 510 986.18 511.74 986.07 512.55 986.83 513.16 987.3 513.94 990.19 512.59 984.51 510"/><polygon class="am" points="975.48 509.25 976.17 510.32 974.96 519.7 976.9 518.79 977.12 513.82 978.13 515.82 982.57 516.15 979.28 515.03 976.65 512.17 976.79 509.49 975.48 509.25"/><polygon class="ao" points="972.61 510.66 971.09 519.32 973.05 510.77 972.61 510.66"/><polygon class="am" points="966.38 514.44 964.35 515.32 964.13 517.3 964.7 515.68 966.38 514.44"/><polygon class="ao" points="969.45 511.97 969.62 513.66 971.27 514.35 970.13 513.28 969.45 511.97"/><polygon class="ao" points="971.58 510 970.63 509.14 970.68 506.71 971.01 508.82 971.58 510"/><polygon class="ao" points="980.1 509.18 979.56 509.7 980.25 509.48 980.1 509.18"/><polygon class="ao" points="977.05 508.5 977.49 509.05 976.53 509.32 977.05 508.5"/><polygon class="ao" points="984.56 510.52 983.73 510.75 984.52 510.14 984.82 510.46 984.51 510.4 984.56 510.52"/><polyline class="ap" points="1046.28 475.56 1060.29 466.73 1069.4 468.44 1055.2 477.74"/><ellipse class="aa" cx="1056.95" cy="468.31" rx="2.1" ry="1.45" transform="translate(44.68 1026.66) rotate(-52.78)"/><ellipse class="ab" cx="1061.56" cy="465.97" rx="2.1" ry="1.45" transform="translate(48.35 1029.4) rotate(-52.78)"/><path class="ac" d="M1055.76,469.24a2.78,2.78,0,0,1,1.64-2.47,1.69,1.69,0,0,1,.83-.13,1.33,1.33,0,0,0-1.35-.08,2.77,2.77,0,0,0-1.64,2.47,1.11,1.11,0,0,0,1,1.15A1.22,1.22,0,0,1,1055.76,469.24Z"/><path class="ac" d="M1060.37,466.9a2.78,2.78,0,0,1,1.64-2.46,1.46,1.46,0,0,1,.82-.13,1.3,1.3,0,0,0-1.35-.08,2.77,2.77,0,0,0-1.63,2.46,1.11,1.11,0,0,0,1,1.16A1.21,1.21,0,0,1,1060.37,466.9Z"/><polygon class="ab" points="1054.92 461.76 1056.53 468.43 1062.54 470.78 1070.61 467.05 1071.96 459.5 1063.99 457.23 1054.92 461.76"/><polygon class="ad" points="1063.99 457.23 1054.92 461.76 1055.18 462.81 1062.13 464.83 1071.7 460.94 1071.96 459.5 1063.99 457.23"/><polygon class="ad" points="1062.1 464.09 1062.54 470.78 1071.7 460.94 1071.84 460.16 1062.1 464.09"/><polygon class="ab" points="1053.37 460.42 1053.42 461.57 1062.1 464.09 1073 459.67 1072.95 458.52 1063.94 456.11 1053.37 460.42"/><polygon class="t" points="1053.37 460.42 1062.05 462.94 1072.95 458.52 1063.94 456.11 1053.37 460.42"/><polygon class="ad" points="1055.98 460.28 1064 457.02 1070.24 458.69 1062 462.03 1055.98 460.28"/><polygon class="ad" points="1067.22 459.91 1064.09 459.07 1058.99 461.15 1062 462.03 1067.22 459.91"/><ellipse class="ab" cx="1064.61" cy="470.26" rx="2.1" ry="1.45" transform="translate(46.15 1033.52) rotate(-52.78)"/><ellipse class="ab" cx="1069.22" cy="467.92" rx="2.1" ry="1.45" transform="translate(49.83 1036.27) rotate(-52.78)"/><path class="ac" d="M1063.42,471.19a2.77,2.77,0,0,1,1.63-2.47,1.69,1.69,0,0,1,.83-.13,1.32,1.32,0,0,0-1.35-.08,2.78,2.78,0,0,0-1.64,2.47,1.11,1.11,0,0,0,1,1.15A1.19,1.19,0,0,1,1063.42,471.19Z"/><path class="ac" d="M1068,468.86a2.8,2.8,0,0,1,1.64-2.47,1.59,1.59,0,0,1,.83-.13,1.32,1.32,0,0,0-1.35-.08,2.78,2.78,0,0,0-1.64,2.46,1.12,1.12,0,0,0,1,1.16A1.22,1.22,0,0,1,1068,468.86Z"/><polyline class="aq" points="963.96 570.51 919.05 585.84 896.45 577.98 949.61 560.73"/><polyline class="ar" points="978 543.61 933.1 558.94 930.06 555.26 971.7 542.72"/><polyline class="as" points="961.28 539.71 916.38 555.04 913.34 551.35 954.99 538.82"/><ellipse class="aa" cx="896.99" cy="577.13" rx="6.07" ry="4.21" transform="translate(-114.39 915.91) rotate(-51.28)"/><ellipse class="ab" cx="910.5" cy="570.73" rx="6.07" ry="4.21" transform="translate(-104.34 924.05) rotate(-51.28)"/><path class="ac" d="M893.47,579.74a8,8,0,0,1,4.93-7,4.65,4.65,0,0,1,2.4-.33,3.84,3.84,0,0,0-3.9-.32,8,8,0,0,0-4.93,7,3.22,3.22,0,0,0,2.71,3.41A3.51,3.51,0,0,1,893.47,579.74Z"/><path class="ac" d="M907,573.34a8,8,0,0,1,4.93-7,4.65,4.65,0,0,1,2.4-.33,3.86,3.86,0,0,0-3.91-.32,8,8,0,0,0-4.92,7,3.22,3.22,0,0,0,2.71,3.41A3.47,3.47,0,0,1,907,573.34Z"/><polygon class="ab" points="891.61 558.03 895.76 577.45 912.96 584.72 936.6 574.54 941.07 552.79 918.2 545.63 891.61 558.03"/><polygon class="ad" points="918.2 545.63 891.61 558.03 892.27 561.1 912.23 567.45 940.22 556.95 941.08 552.79 918.2 545.63"/><polygon class="ad" points="912.19 565.31 912.96 584.72 940.22 556.95 940.68 554.69 912.19 565.31"/><polygon class="ab" points="887.21 554.05 887.27 557.37 912.19 565.31 944.06 553.35 944 550.03 918.13 542.38 887.21 554.05"/><polygon class="t" points="887.21 554.05 912.13 561.99 944 550.03 918.13 542.38 887.21 554.05"/><polygon class="ad" points="894.8 553.85 918.23 545 936.16 550.31 912.07 559.35 894.8 553.85"/><polygon class="ad" points="927.32 553.62 918.34 550.97 903.42 556.6 912.07 559.35 927.32 553.62"/><ellipse class="ab" cx="918.98" cy="583.35" rx="6.07" ry="4.21" transform="translate(-111.01 935.4) rotate(-51.28)"/><ellipse class="ab" cx="932.49" cy="576.95" rx="6.07" ry="4.21" transform="translate(-100.96 943.54) rotate(-51.28)"/><path class="ac" d="M915.47,586a8,8,0,0,1,4.92-7,4.56,4.56,0,0,1,2.4-.32,3.82,3.82,0,0,0-3.9-.33,8,8,0,0,0-4.92,7,3.23,3.23,0,0,0,2.71,3.42A3.51,3.51,0,0,1,915.47,586Z"/><path class="ac" d="M929,579.56a8,8,0,0,1,4.92-7,4.54,4.54,0,0,1,2.4-.32,3.82,3.82,0,0,0-3.9-.33,8.05,8.05,0,0,0-4.93,7,3.24,3.24,0,0,0,2.71,3.42A3.54,3.54,0,0,1,929,579.56Z"/><g class="b"><g class="b"><g class="at"><g class="b"><path class="au" d="M909.14,540.32l-1.07.31a6.34,6.34,0,0,1,.19-.61l1.07-.31a4.86,4.86,0,0,0-.19.61"/><path class="av" d="M909.33,539.71l-1.07.31a5.12,5.12,0,0,1,.22-.47l1.06-.3a4.9,4.9,0,0,0-.21.46"/><path class="aw" d="M909.54,539.25l-1.06.3a3.21,3.21,0,0,1,.19-.31l1.07-.3c-.07.09-.13.2-.2.31"/><path class="ax" d="M909.74,538.94l-1.07.3a2.51,2.51,0,0,1,.19-.24l1.07-.3a1.55,1.55,0,0,0-.19.24"/><path class="ay" d="M909.93,538.7l-1.07.3c.06-.07.13-.13.19-.19l1.07-.31a1.8,1.8,0,0,0-.19.2"/><path class="az" d="M910.12,538.5l-1.07.31.19-.16,1.07-.3a1.39,1.39,0,0,0-.19.15"/><path class="ba" d="M910.31,538.35l-1.07.3.2-.13,1.07-.3a1.37,1.37,0,0,0-.2.13"/><path class="bb" d="M910.51,538.22l-1.07.3.21-.1,1.06-.31-.2.11"/><path class="bc" d="M910.71,538.11l-1.06.31.21-.08,1.07-.3-.22.07"/><path class="bd" d="M910.93,538l-1.07.3h0L911,538h0"/></g></g></g><g class="b"><g class="be"><g class="b"><path class="bf" d="M914.11,549.12l-1.07.3a2.82,2.82,0,0,1-2.71-1,6.1,6.1,0,0,1-.54-.59l1.06-.3a6.1,6.1,0,0,0,.54.59,2.88,2.88,0,0,0,2.72,1"/><path class="bg" d="M910.85,547.57l-1.06.3a5.74,5.74,0,0,1-.35-.47l1.07-.3c.11.16.22.32.34.47"/><path class="bh" d="M910.51,547.1l-1.07.3c-.08-.13-.17-.26-.25-.4l1.06-.31c.08.14.17.28.26.41"/><path class="bi" d="M910.25,546.69l-1.06.31-.22-.38,1.07-.31.21.38"/><path class="bj" d="M910,546.31l-1.07.31-.18-.37,1.07-.31.18.37"/><path class="bd" d="M909.86,545.94l-1.07.31-.16-.36,1.07-.31a3.92,3.92,0,0,0,.16.36"/><path class="bc" d="M909.7,545.58l-1.07.31c0-.12-.09-.25-.14-.37l1.07-.3c0,.12.09.24.14.36"/><path class="bb" d="M909.56,545.22l-1.07.3c0-.12-.09-.24-.13-.37l1.07-.3c0,.12.08.25.13.37"/><path class="ba" d="M909.43,544.85l-1.07.3c0-.12-.08-.25-.11-.37l1.06-.31.12.38"/><path class="az" d="M909.31,544.47l-1.06.31c0-.13-.07-.27-.11-.4l1.07-.3c0,.13.07.26.1.39"/><path class="ay" d="M909.21,544.08l-1.07.3-.09-.41,1.07-.31.09.42"/><path class="ax" d="M909.12,543.66l-1.07.31c0-.16,0-.31-.07-.46l1.06-.3c0,.15.05.3.08.45"/><path class="aw" d="M909,543.21l-1.06.3a4.88,4.88,0,0,1-.06-.52l1.06-.31.06.53"/><path class="av" d="M909,542.68l-1.06.31c0-.22,0-.44,0-.66L909,542c0,.21,0,.43,0,.65"/><path class="au" d="M909,542l-1.07.3a7.2,7.2,0,0,1,.19-1.7l1.07-.31A6.36,6.36,0,0,0,909,542"/></g></g></g><path class="bk" d="M909.14,540.32c.63-2.53,2.65-3.13,4.53-1.33a9,9,0,0,1,2.25,7.84c-.63,2.53-2.65,3.13-4.53,1.33A9,9,0,0,1,909.14,540.32Z"/></g><g class="b"><g class="b"><g class="bl"><g class="b"><path class="bf" d="M901.61,542l.95-.57a1.26,1.26,0,0,1,.33-.16l-.95.57a2.49,2.49,0,0,0-.33.16"/><path class="bg" d="M901.94,541.84l.95-.57a1.52,1.52,0,0,1,.28-.09l-.94.58-.29.08"/><path class="bh" d="M902.23,541.76l.94-.58.24,0-.95.58-.23,0"/><path class="bi" d="M902.46,541.72l.95-.58h.21l-1,.57-.21,0"/><path class="bj" d="M902.67,541.7l1-.57h.19l-.95.58h-.19"/><path class="bd" d="M902.86,541.71l.95-.58.18,0-.94.57h-.19"/><path class="bc" d="M903.05,541.72l.94-.57.18,0-.94.58-.18,0"/><path class="bb" d="M903.23,541.75l.94-.58.17,0-.94.57-.17,0"/><path class="ba" d="M903.4,541.78l.94-.57.17,0-1,.58-.16-.05"/><path class="az" d="M903.56,541.83l1-.58.17,0-.95.58-.17,0"/><path class="ay" d="M903.73,541.88l.95-.58.16.06-.94.58-.17-.06"/><path class="ax" d="M903.9,541.94l.94-.58.17.07-1,.57-.16-.06"/><path class="aw" d="M904.06,542l1-.57.17.07-.95.58-.17-.08"/><path class="av" d="M904.23,542.08l.95-.58.16.09-.94.57-.17-.08"/><path class="au" d="M904.4,542.16l.94-.57.14.07-1,.57-.13-.07"/></g></g></g><g class="b"><g class="bm"><g class="b"><path class="au" d="M904.53,542.23l1-.57,0,0-.95.57,0,0"/><path class="bn" d="M904.57,542.25l.95-.57.17.1-.94.58-.18-.11"/><path class="bo" d="M904.75,542.36l.94-.58.18.12-1,.57-.17-.11"/><path class="bp" d="M904.92,542.47l1-.57.18.12-.94.58-.19-.13"/><path class="bq" d="M905.11,542.6l.94-.58.19.14-.94.58-.19-.14"/><path class="br" d="M905.3,542.74l.94-.58a1.56,1.56,0,0,1,.2.16l-1,.57-.19-.15"/><path class="bs" d="M905.49,542.89l1-.57.22.18-.95.58-.22-.19"/><path class="bt" d="M905.71,543.08l.95-.58.23.22-.95.57a2.29,2.29,0,0,0-.23-.21"/><path class="bu" d="M905.94,543.29l.95-.57.27.26-.95.58-.27-.27"/><path class="bv" d="M906.21,543.56l.95-.58.34.39-1,.57c-.11-.13-.22-.26-.34-.38"/><path class="bw" d="M906.55,543.94l1-.57a9.31,9.31,0,0,1,1.17,1.72l-.95.57a9.65,9.65,0,0,0-1.17-1.72"/><path class="bv" d="M907.72,545.66l.95-.57c.08.15.16.3.23.46l-.95.58c-.07-.16-.15-.32-.23-.47"/><path class="bu" d="M908,546.13l.95-.58c.06.12.11.24.16.37l-.94.57c0-.12-.11-.24-.17-.36"/><path class="bt" d="M908.12,546.49l.94-.57c.05.1.09.21.13.31l-1,.58-.12-.32"/><path class="bs" d="M908.24,546.81l1-.58.1.27-.95.58c0-.09-.06-.18-.1-.27"/><path class="br" d="M908.34,547.08l.95-.58a2.58,2.58,0,0,0,.08.26l-1,.57a2.41,2.41,0,0,0-.08-.25"/><path class="bq" d="M908.42,547.33l1-.57c0,.08,0,.16.07.24l-1,.57a2.17,2.17,0,0,0-.07-.24"/><path class="bp" d="M908.49,547.57l1-.57.06.22-1,.58-.06-.23"/><path class="bo" d="M908.55,547.8l1-.58c0,.08,0,.15,0,.23l-.94.57c0-.07,0-.15-.05-.22"/><path class="bn" d="M908.6,548l.94-.57a1.18,1.18,0,0,1,0,.2l-.94.58c0-.07,0-.14,0-.21"/><path class="au" d="M908.64,548.23l.94-.58a1.55,1.55,0,0,1,0,.21l-1,.57,0-.2"/><path class="av" d="M908.67,548.43l1-.57a1.36,1.36,0,0,1,0,.2l-.94.58,0-.21"/><path class="aw" d="M908.7,548.64l.94-.58a1.36,1.36,0,0,1,0,.2l-.94.57a1.23,1.23,0,0,1,0-.19"/><path class="ax" d="M908.72,548.83l.94-.57c0,.07,0,.13,0,.2l-.95.57c0-.06,0-.13,0-.2"/><path class="ay" d="M908.73,549l.95-.57v.18h0l-.94.58h0a1.21,1.21,0,0,1,0-.19"/><path class="az" d="M908.74,549.23l.94-.58v.2l-.95.58a1.34,1.34,0,0,0,0-.2"/><path class="ba" d="M908.73,549.43l.95-.58a1.15,1.15,0,0,1,0,.19l-.94.58v-.19"/><path class="bb" d="M908.73,549.62l.94-.58c0,.07,0,.14,0,.2l-.95.58c0-.07,0-.13,0-.2"/><path class="bc" d="M908.71,549.82l.95-.58,0,.2-1,.57,0-.19"/><path class="bd" d="M908.68,550l1-.57a1.42,1.42,0,0,1,0,.2l-.94.57,0-.2"/><path class="bj" d="M908.65,550.21l.94-.57a1.6,1.6,0,0,1-.05.21l-.94.57c0-.07,0-.14,0-.21"/><path class="bi" d="M908.6,550.42l.94-.57-.06.21-1,.58c0-.07.05-.14.07-.22"/><path class="bh" d="M908.53,550.64l1-.58a2.44,2.44,0,0,1-.1.24l-.94.57.09-.23"/><path class="bg" d="M908.44,550.87l.94-.57a1.51,1.51,0,0,1-.15.28l-.94.57.15-.28"/><path class="bf" d="M908.29,551.15l.94-.57a1.93,1.93,0,0,1-.69.7l-.95.58a2.16,2.16,0,0,0,.7-.71"/></g></g></g><path class="bx" d="M904.53,542.23a9,9,0,0,1,4.21,7c0,2.59-1.78,3.67-4.06,2.41a9,9,0,0,1-4.21-7C900.43,542.05,902.25,541,904.53,542.23Z"/></g><g class="b"><g class="b"><g class="by"><g class="b"><path class="bf" d="M911.53,543.82l1.09.22a2,2,0,0,1,.35.1l-1.09-.21a2,2,0,0,0-.35-.11"/><path class="bg" d="M911.88,543.93l1.09.21.27.13-1.09-.21a1.66,1.66,0,0,0-.27-.13"/><path class="bh" d="M912.15,544.06l1.09.21.2.13-1.09-.21-.2-.13"/><path class="bi" d="M912.35,544.19l1.09.21.16.13-1.08-.21-.17-.13"/><path class="bj" d="M912.52,544.32l1.08.21.14.13-1.08-.21-.14-.13"/><path class="bd" d="M912.66,544.45l1.08.21.13.14-1.09-.22-.12-.13"/><path class="bc" d="M912.78,544.58l1.09.22a1.71,1.71,0,0,1,.11.14l-1.08-.21-.12-.15"/><path class="bb" d="M912.9,544.73l1.08.21a.71.71,0,0,1,.1.14l-1.08-.22a1.13,1.13,0,0,1-.1-.13"/><path class="ba" d="M913,544.86l1.08.22a.71.71,0,0,1,.1.14l-1.09-.21-.09-.15"/><path class="az" d="M913.09,545l1.09.21.09.15-1.09-.21-.09-.15"/><path class="ay" d="M913.18,545.16l1.09.21.08.16-1.09-.22a1.09,1.09,0,0,0-.08-.15"/><path class="ax" d="M913.26,545.31l1.09.22.08.16-1.09-.22c0-.05-.05-.1-.08-.16"/><path class="aw" d="M913.34,545.47l1.09.22s.05.11.07.17l-1.09-.22s0-.11-.07-.17"/><path class="av" d="M913.41,545.64l1.09.22a.87.87,0,0,1,.07.17l-1.09-.21a1.34,1.34,0,0,0-.07-.18"/><path class="au" d="M913.48,545.82l1.09.21,0,.14-1.09-.21a.58.58,0,0,0,0-.14"/></g></g></g><g class="b"><g class="bz"><g class="b"><path class="au" d="M913.53,546l1.09.21,0,.05-1.09-.22,0,0"/><path class="bn" d="M913.55,546l1.09.22.06.19-1.09-.21-.06-.2"/><path class="bo" d="M913.61,546.2l1.09.21c0,.07,0,.14,0,.2l-1.09-.21a1.46,1.46,0,0,0,0-.2"/><path class="bp" d="M913.66,546.4l1.09.21a2.25,2.25,0,0,1,0,.22l-1.08-.21-.06-.22"/><path class="bq" d="M913.72,546.62l1.08.21c0,.08,0,.15.05.23l-1.09-.21c0-.08,0-.16,0-.23"/><path class="br" d="M913.76,546.85l1.09.21c0,.08,0,.17,0,.25l-1.09-.21a1.87,1.87,0,0,0,0-.25"/><path class="bs" d="M913.8,547.1l1.09.21,0,.28-1.08-.21a2.36,2.36,0,0,0,0-.28"/><path class="bt" d="M913.84,547.38l1.08.21a1.66,1.66,0,0,1,0,.32l-1.08-.22,0-.31"/><path class="bu" d="M913.87,547.69l1.08.22c0,.12,0,.25,0,.37l-1.09-.21c0-.13,0-.25,0-.38"/><path class="bv" d="M913.88,548.07l1.09.21v.52l-1.09-.21a4.51,4.51,0,0,0,0-.52"/><path class="bw" d="M913.88,548.59l1.09.21a10.35,10.35,0,0,1-.3,2.06l-1.08-.22a9.56,9.56,0,0,0,.29-2"/><path class="bv" d="M913.59,550.64l1.08.22c0,.16-.09.33-.14.5l-1.08-.22c0-.16.09-.33.14-.5"/><path class="bu" d="M913.45,551.14l1.08.22-.12.38-1.09-.22c0-.12.09-.25.13-.38"/><path class="bt" d="M913.32,551.52l1.09.22-.12.31-1.09-.21.12-.32"/><path class="bs" d="M913.2,551.84l1.09.21c0,.09-.08.18-.11.27l-1.09-.21.11-.27"/><path class="br" d="M913.09,552.11l1.09.21-.12.24-1.08-.21.11-.24"/><path class="bq" d="M913,552.35l1.08.21a1.63,1.63,0,0,1-.11.23l-1.08-.21a2.4,2.4,0,0,1,.11-.23"/><path class="bp" d="M912.87,552.58l1.08.21a1.28,1.28,0,0,1-.11.2l-1.08-.21.11-.2"/><path class="bo" d="M912.76,552.78l1.08.21a1.28,1.28,0,0,1-.11.2l-1.08-.21a2,2,0,0,1,.11-.2"/><path class="bn" d="M912.65,553l1.08.21a1.74,1.74,0,0,1-.11.18l-1.08-.21a1.74,1.74,0,0,1,.11-.18"/><path class="au" d="M912.54,553.16l1.08.21-.11.18-1.09-.22.12-.17"/><path class="av" d="M912.42,553.33l1.09.22-.12.16-1.09-.21.12-.17"/><path class="aw" d="M912.3,553.5l1.09.21-.12.16-1.08-.21.11-.16"/><path class="ax" d="M912.19,553.66l1.08.21-.12.16-1.09-.21a1.83,1.83,0,0,1,.13-.16"/><path class="ay" d="M912.06,553.82l1.09.21-.12.14h0l-1.09-.21h0l.12-.14"/><path class="az" d="M911.93,554l1.09.21-.13.14-1.09-.21.13-.14"/><path class="ba" d="M911.8,554.11l1.09.21-.14.14-1.09-.21.14-.14"/><path class="bb" d="M911.66,554.25l1.09.21-.14.13-1.09-.21.14-.13"/><path class="bc" d="M911.52,554.38l1.09.21-.15.13-1.09-.21.15-.13"/><path class="bd" d="M911.37,554.51l1.09.21-.17.13-1.08-.22.16-.12"/><path class="bj" d="M911.21,554.63l1.08.22-.17.12-1.09-.22a.94.94,0,0,0,.18-.12"/><path class="bi" d="M911,554.75l1.09.22-.2.11-1.09-.21.2-.12"/><path class="bh" d="M910.83,554.87l1.09.21-.23.11-1.08-.21.22-.11"/><path class="bg" d="M910.61,555l1.08.21-.3.11-1.08-.21.3-.11"/><path class="bf" d="M910.31,555.09l1.08.21a2.05,2.05,0,0,1-1,.05l-1.09-.21a2.23,2.23,0,0,0,1,0"/></g></g></g><path class="bx" d="M913.53,546a9,9,0,0,1-1.59,8c-1.71,1.94-3.78,1.52-4.62-1a9,9,0,0,1,1.59-8C910.62,543.06,912.7,543.49,913.53,546Z"/></g><g class="b"><g class="b"><g class="ca"><g class="b"><path class="bf" d="M924,546.29l1.08.22a1.4,1.4,0,0,1,.35.1l-1.08-.21a2.79,2.79,0,0,0-.35-.11"/><path class="bg" d="M924.39,546.4l1.08.21.27.13-1.09-.21a1.58,1.58,0,0,0-.26-.13"/><path class="bh" d="M924.65,546.53l1.09.21.2.13-1.09-.21a.86.86,0,0,0-.2-.13"/><path class="bi" d="M924.85,546.66l1.09.21.16.13-1.08-.21-.17-.13"/><path class="bj" d="M925,546.79l1.08.21.14.13-1.08-.21-.14-.13"/><path class="bd" d="M925.16,546.92l1.08.21a.86.86,0,0,1,.13.14l-1.09-.22-.12-.13"/><path class="bc" d="M925.28,547.05l1.09.22a.76.76,0,0,1,.11.14l-1.08-.22-.12-.14"/><path class="bb" d="M925.4,547.19l1.08.22a1.71,1.71,0,0,1,.11.14l-1.09-.22-.1-.14"/><path class="ba" d="M925.5,547.33l1.09.22.09.14-1.08-.21-.1-.15"/><path class="az" d="M925.6,547.48l1.08.21.09.15-1.09-.21-.08-.15"/><path class="ay" d="M925.68,547.63l1.09.21a.8.8,0,0,1,.08.16l-1.08-.22-.09-.15"/><path class="ax" d="M925.77,547.78l1.08.22a.8.8,0,0,1,.08.16l-1.09-.22-.07-.16"/><path class="aw" d="M925.84,547.94l1.09.22a1.11,1.11,0,0,1,.07.16l-1.08-.21-.08-.17"/><path class="av" d="M925.92,548.11l1.08.21a1.34,1.34,0,0,1,.07.18l-1.08-.21a1.34,1.34,0,0,1-.07-.18"/><path class="au" d="M926,548.29l1.08.21a.78.78,0,0,1,0,.14l-1.08-.21a1.21,1.21,0,0,1,0-.14"/></g></g></g><g class="b"><g class="cb"><g class="b"><path class="au" d="M926,548.43l1.08.21,0,0-1.09-.21v0"/><path class="bn" d="M926.05,548.47l1.09.21.06.2-1.09-.21-.06-.2"/><path class="bo" d="M926.11,548.67l1.09.21a1.46,1.46,0,0,1,0,.2l-1.08-.21-.06-.2"/><path class="bp" d="M926.17,548.87l1.08.21a1.74,1.74,0,0,1,0,.22l-1.08-.21a2.25,2.25,0,0,1-.05-.22"/><path class="bq" d="M926.22,549.09l1.08.21a1.89,1.89,0,0,1,.05.23l-1.09-.21c0-.08,0-.16,0-.23"/><path class="br" d="M926.26,549.32l1.09.21a1.87,1.87,0,0,1,0,.25l-1.09-.22a2,2,0,0,0,0-.24"/><path class="bs" d="M926.3,549.56l1.09.22c0,.09,0,.18,0,.28l-1.09-.21a2.89,2.89,0,0,0,0-.29"/><path class="bt" d="M926.34,549.85l1.09.21c0,.1,0,.21,0,.31l-1.08-.21,0-.31"/><path class="bu" d="M926.37,550.16l1.08.21c0,.13,0,.26,0,.38l-1.09-.21c0-.13,0-.25,0-.38"/><path class="bv" d="M926.38,550.54l1.09.21c0,.17,0,.35,0,.52l-1.09-.21a4.51,4.51,0,0,0,0-.52"/><path class="bw" d="M926.38,551.06l1.09.21a10.25,10.25,0,0,1-.3,2.05l-1.08-.21a9.56,9.56,0,0,0,.29-2.05"/><path class="bv" d="M926.09,553.11l1.08.21a4.84,4.84,0,0,1-.14.51l-1.08-.22c0-.16.1-.33.14-.5"/><path class="bu" d="M926,553.61l1.08.22-.12.37-1.09-.21c0-.12.09-.25.13-.38"/><path class="bt" d="M925.82,554l1.09.21-.12.32-1.09-.21.12-.32"/><path class="bs" d="M925.7,554.31l1.09.21-.11.27-1.09-.22a2,2,0,0,0,.11-.26"/><path class="br" d="M925.59,554.57l1.09.22a2.56,2.56,0,0,0-.11.24l-1.09-.21a1.89,1.89,0,0,0,.11-.25"/><path class="bq" d="M925.48,554.82l1.09.21a2.4,2.4,0,0,0-.11.23l-1.09-.22.11-.22"/><path class="bp" d="M925.37,555l1.09.22-.11.2-1.09-.21.11-.21"/><path class="bo" d="M925.26,555.25l1.09.21-.12.2-1.08-.21.11-.2"/><path class="bn" d="M925.15,555.45l1.08.21a1.74,1.74,0,0,1-.11.18l-1.08-.21a1.74,1.74,0,0,1,.11-.18"/><path class="au" d="M925,555.63l1.08.21a1.74,1.74,0,0,1-.11.18l-1.09-.22.12-.17"/><path class="av" d="M924.92,555.8,926,556l-.12.16-1.08-.21.11-.17"/><path class="aw" d="M924.81,556l1.08.21-.12.16-1.08-.21.12-.16"/><path class="ax" d="M924.69,556.13l1.08.21-.12.16-1.09-.22.13-.15"/><path class="ay" d="M924.56,556.28l1.09.22-.12.14h0l-1.08-.22h0l.12-.14"/><path class="az" d="M924.44,556.43l1.08.22-.13.14-1.09-.21.14-.15"/><path class="ba" d="M924.3,556.58l1.09.21-.14.14-1.08-.21.13-.14"/><path class="bb" d="M924.17,556.72l1.08.21-.14.13-1.09-.21.15-.13"/><path class="bc" d="M924,556.85l1.09.21-.15.13-1.09-.21.15-.13"/><path class="bd" d="M923.87,557l1.09.21-.16.12-1.09-.21.16-.12"/><path class="bj" d="M923.71,557.1l1.09.21-.18.13-1.09-.22.18-.12"/><path class="bi" d="M923.53,557.22l1.09.22-.2.11-1.08-.21.19-.12"/><path class="bh" d="M923.34,557.34l1.08.21-.22.11-1.09-.21.23-.11"/><path class="bg" d="M923.11,557.45l1.09.21-.3.11-1.09-.22a1.76,1.76,0,0,0,.3-.1"/><path class="bf" d="M922.81,557.55l1.09.22a2.1,2.1,0,0,1-1,.05l-1.09-.21a2.1,2.1,0,0,0,1-.06"/></g></g></g><path class="bx" d="M926,548.43a9,9,0,0,1-1.6,8c-1.71,2-3.78,1.52-4.62-.95a9,9,0,0,1,1.59-8C923.13,545.53,925.2,546,926,548.43Z"/></g><g class="b"><g class="b"><g class="cc"><g class="b"><path class="au" d="M918.66,545.14l-1-.54a5.1,5.1,0,0,1,.57-.29l1,.54a5.1,5.1,0,0,0-.57.29"/><path class="av" d="M919.23,544.85l-1-.54.48-.18,1,.54a3.46,3.46,0,0,0-.47.18"/><path class="aw" d="M919.7,544.67l-1-.54.35-.08,1,.54a3,3,0,0,0-.36.08"/><path class="ax" d="M920.06,544.59l-1-.54.31,0,1,.54-.31,0"/><path class="ay" d="M920.37,544.55l-1-.54h.27l1,.54h-.27"/><path class="az" d="M920.64,544.55l-1-.54.25,0,1,.54-.24,0"/><path class="ba" d="M920.88,544.57l-1-.54.23.05,1,.54-.24,0"/><path class="bb" d="M921.12,544.62l-1-.54.21.07,1,.54-.21-.07"/><path class="bc" d="M921.33,544.69l-1-.54.21.1,1,.54-.21-.1"/><path class="bd" d="M921.54,544.79l-1-.54h0l1,.54h0"/></g></g></g><g class="b"><g class="cd"><g class="b"><path class="bf" d="M916,554.88l-1-.54a2.87,2.87,0,0,1-1.24-2.6,7.26,7.26,0,0,1,0-.8l1,.53a5.56,5.56,0,0,0,0,.81,2.87,2.87,0,0,0,1.24,2.6"/><path class="bg" d="M914.75,551.47l-1-.53a5.62,5.62,0,0,1,.09-.57l1,.54c0,.19-.06.38-.08.56"/><path class="bh" d="M914.83,550.91l-1-.54c0-.16.06-.32.1-.47l1,.53c0,.16-.07.32-.11.48"/><path class="bi" d="M914.94,550.43l-1-.53.12-.42,1,.53-.12.42"/><path class="bj" d="M915.06,550l-1-.53c0-.13.09-.26.13-.39l1,.54c0,.13-.09.26-.13.38"/><path class="bd" d="M915.19,549.63l-1-.54.15-.37,1,.54c-.06.12-.1.24-.15.37"/><path class="bc" d="M915.34,549.26l-1-.54.15-.36,1,.54c0,.12-.11.24-.15.36"/><path class="bb" d="M915.49,548.9l-1-.54.17-.35,1,.54c-.06.11-.11.23-.17.35"/><path class="ba" d="M915.66,548.55l-1-.54.19-.35,1,.54a3.9,3.9,0,0,0-.19.35"/><path class="az" d="M915.85,548.2l-1-.54.2-.35,1,.54a4,4,0,0,0-.2.35"/><path class="ay" d="M916.05,547.85l-1-.54.24-.36,1,.54-.23.36"/><path class="ax" d="M916.28,547.49l-1-.54c.08-.13.17-.25.26-.38l1,.54-.27.38"/><path class="aw" d="M916.55,547.11l-1-.54.33-.41,1,.54-.33.41"/><path class="av" d="M916.88,546.7l-1-.54c.14-.17.29-.33.44-.48l1,.54c-.15.15-.3.31-.44.48"/><path class="au" d="M917.32,546.22l-1-.54a7.06,7.06,0,0,1,1.34-1.08l1,.54a6.69,6.69,0,0,0-1.34,1.08"/></g></g></g><path class="bk" d="M918.66,545.14c2.23-1.35,4.09-.33,4.14,2.26a9,9,0,0,1-3.94,7.14c-2.24,1.35-4.09.33-4.15-2.26A9,9,0,0,1,918.66,545.14Z"/></g><g class="b"><g class="b"><g class="ce"><g class="b"><path class="bi" d="M921.45,555.45v0"/><path class="bj" d="M921.45,555.5v1.11a1.84,1.84,0,0,1,0,.33v-1.11a1.84,1.84,0,0,0,0-.33"/><path class="bd" d="M921.42,555.83v1.11c0,.11,0,.22-.08.33l0-1.11a2,2,0,0,0,.09-.33"/><path class="bc" d="M921.33,556.16l0,1.11a2.41,2.41,0,0,1-.15.33l0-1.11a2.41,2.41,0,0,0,.15-.33"/><path class="bb" d="M921.18,556.49l0,1.11c-.07.11-.14.23-.23.35v-1.11a3.37,3.37,0,0,0,.22-.35"/><path class="ba" d="M921,556.84V558a4.1,4.1,0,0,1-.35.39l0-1.11a4.26,4.26,0,0,0,.36-.39"/><path class="az" d="M920.6,557.23l0,1.11a4.25,4.25,0,0,1-.72.55l0-1.11a4.25,4.25,0,0,0,.72-.55"/><path class="ay" d="M919.88,557.78l0,1.11-.07,0a6.22,6.22,0,0,1-1.25.58l0-1.1a6.82,6.82,0,0,0,1.25-.58l.07-.05"/><path class="az" d="M918.56,558.41l0,1.1a7.58,7.58,0,0,1-1.09.29l0-1.1a9.15,9.15,0,0,0,1.09-.29"/><path class="ba" d="M917.47,558.7l0,1.1c-.24.05-.48.09-.73.12l0-1.11c.25,0,.49-.06.73-.11"/><path class="bb" d="M916.74,558.81l0,1.11c-.21,0-.43,0-.64.05l0-1.1c.22,0,.43,0,.64-.06"/><path class="bc" d="M916.1,558.87l0,1.1a5.82,5.82,0,0,1-.59,0l0-1.11h.59"/><path class="bd" d="M915.51,558.88l0,1.11-.57,0,0-1.11.57,0"/><path class="bj" d="M914.94,558.86l0,1.11-.56-.05,0-1.11.56.05"/><path class="bi" d="M914.38,558.81l0,1.11-.57-.09,0-1.11.57.09"/><path class="bh" d="M913.81,558.72l0,1.11-.61-.14v-1.11a5.27,5.27,0,0,0,.6.14"/><path class="bg" d="M913.21,558.58v1.11c-.24-.06-.47-.14-.7-.22l0-1.11a7.36,7.36,0,0,0,.71.22"/><path class="bf" d="M912.5,558.36l0,1.11a5.39,5.39,0,0,1-.84-.39,2.89,2.89,0,0,1-1.75-2.34v-1.11a2.88,2.88,0,0,0,1.74,2.35,7.14,7.14,0,0,0,.84.38"/></g></g></g><path class="cf" d="M919.7,553.1c2.28,1.27,2.34,3.38.11,4.73a9,9,0,0,1-8.15.15c-2.28-1.26-2.33-3.38-.11-4.73A9,9,0,0,1,919.7,553.1Z"/></g><g class="b"><g class="b"><g class="cg"><g class="b"><path class="bi" d="M910.25,549.26l.79.77,0,0-.8-.78,0,0"/><path class="bj" d="M910.28,549.29l.8.78a1.73,1.73,0,0,1,.21.25l-.8-.77a1.71,1.71,0,0,0-.21-.26"/><path class="bd" d="M910.49,549.55l.8.77a2.75,2.75,0,0,1,.17.29l-.8-.77a1.69,1.69,0,0,0-.17-.29"/><path class="bc" d="M910.66,549.84l.8.77a3.42,3.42,0,0,1,.13.34l-.8-.77a2,2,0,0,0-.13-.34"/><path class="bb" d="M910.79,550.18l.8.77a2.7,2.7,0,0,1,.08.41l-.79-.77a2.47,2.47,0,0,0-.09-.41"/><path class="ba" d="M910.88,550.59l.79.77a2.21,2.21,0,0,1,0,.52l-.79-.77a4.28,4.28,0,0,0,0-.52"/><path class="az" d="M910.91,551.11l.79.77a4.17,4.17,0,0,1-.11.9l-.8-.77a5.07,5.07,0,0,0,.12-.9"/><path class="ay" d="M910.79,552l.8.77,0,.08a6.6,6.6,0,0,1-.48,1.3l-.8-.77a6,6,0,0,0,.48-1.3l0-.08"/><path class="az" d="M910.29,553.39l.8.77a7.86,7.86,0,0,1-.56,1l-.8-.77a7.86,7.86,0,0,0,.56-1"/><path class="ba" d="M909.73,554.36l.8.77c-.14.21-.28.41-.44.61l-.79-.78a6.51,6.51,0,0,0,.43-.6"/><path class="bb" d="M909.3,555l.79.78c-.13.16-.27.33-.41.48l-.8-.77c.15-.16.28-.32.42-.49"/><path class="bc" d="M908.88,555.45l.8.77c-.13.15-.27.29-.41.43l-.79-.77c.14-.14.27-.28.4-.43"/><path class="bd" d="M908.48,555.88l.79.77-.42.39-.79-.77.42-.39"/><path class="bj" d="M908.06,556.27l.79.77-.43.36-.79-.77.43-.36"/><path class="bi" d="M907.63,556.63l.79.77c-.15.12-.31.23-.47.34l-.79-.77.47-.34"/><path class="bh" d="M907.16,557l.79.77a5.69,5.69,0,0,1-.52.33l-.8-.77a5.84,5.84,0,0,0,.53-.33"/><path class="bg" d="M906.63,557.3l.8.77a6.89,6.89,0,0,1-.66.34l-.79-.77a5.75,5.75,0,0,0,.65-.34"/><path class="bf" d="M906,557.64l.79.77a5.58,5.58,0,0,1-.86.32,2.88,2.88,0,0,1-2.9-.42l-.79-.77a2.86,2.86,0,0,0,2.89.42,6.11,6.11,0,0,0,.87-.32"/></g></g></g><path class="cf" d="M907.35,548.83c2.51-.72,4,.74,3.42,3.26a9,9,0,0,1-5.66,5.87c-2.5.72-4-.73-3.42-3.25A9,9,0,0,1,907.35,548.83Z"/></g><polyline class="ch" points="878.58 485.97 894.8 553.85 912.07 559.35 936.16 550.31 937.53 477.55"/><polygon class="t" points="894.8 553.85 912.07 559.35 936.16 550.31 944 550.03 912.13 562.22 887.21 554.05 894.8 553.85"/><polyline class="ci" points="1045 490 1028.11 501.74 1016.09 498.79 1039 487"/><polyline class="cj" points="1056.4 477.11 1034.03 487.2 1032.28 485.45 1053.11 476.96"/><polyline class="ck" points="1047.6 475.92 1025.23 486.01 1023.48 484.26 1044.31 475.77"/><ellipse class="aa" cx="1016.32" cy="498.33" rx="3.14" ry="2.18" transform="translate(41.82 1074.16) rotate(-56.7)"/><ellipse class="ab" cx="1022.97" cy="494.37" rx="3.14" ry="2.18" transform="matrix(0.55, -0.84, 0.84, 0.55, 48.12, 1077.93)"/><path class="ac" d="M1014.64,499.84a4.17,4.17,0,0,1,2.19-3.85,2.51,2.51,0,0,1,1.22-.28,2,2,0,0,0-2,0,4.16,4.16,0,0,0-2.2,3.85,1.68,1.68,0,0,0,1.57,1.63A1.81,1.81,0,0,1,1014.64,499.84Z"/><path class="ac" d="M1021.28,495.89a4.15,4.15,0,0,1,2.2-3.85,2.37,2.37,0,0,1,1.22-.29,2,2,0,0,0-2,0,4.14,4.14,0,0,0-2.19,3.85,1.66,1.66,0,0,0,1.56,1.62A1.81,1.81,0,0,1,1021.28,495.89Z"/><polygon class="ab" points="1012.62 488.76 1015.71 498.56 1024.91 501.46 1036.59 495.06 1037.83 483.64 1025.7 481.07 1012.62 488.76"/><polygon class="ad" points="1025.7 481.07 1012.62 488.76 1013.11 490.3 1023.7 492.6 1037.59 485.83 1037.83 483.64 1025.7 481.07"/><polygon class="ad" points="1023.57 491.5 1024.91 501.46 1037.59 485.83 1037.72 484.64 1023.57 491.5"/><polygon class="ab" points="1010.16 486.92 1010.35 488.63 1023.57 491.5 1039.4 483.78 1039.2 482.08 1025.51 479.4 1010.16 486.92"/><polygon class="t" points="1010.16 486.92 1023.38 489.79 1039.2 482.08 1025.51 479.4 1010.16 486.92"/><polygon class="ad" points="1014.06 486.45 1025.69 480.75 1035.18 482.6 1023.22 488.44 1014.06 486.45"/><polygon class="ad" points="1030.79 484.74 1026.04 483.81 1018.63 487.44 1023.22 488.44 1030.79 484.74"/><ellipse class="ab" cx="1027.95" cy="500.46" rx="3.14" ry="2.18" transform="translate(45.28 1084.84) rotate(-56.7)"/><ellipse class="ab" cx="1034.59" cy="496.5" rx="3.14" ry="2.18" transform="translate(51.58 1088.61) rotate(-56.7)"/><path class="ac" d="M1026.27,502a4.17,4.17,0,0,1,2.19-3.85,2.51,2.51,0,0,1,1.22-.28,2,2,0,0,0-2,0,4.16,4.16,0,0,0-2.2,3.85,1.68,1.68,0,0,0,1.57,1.63A1.81,1.81,0,0,1,1026.27,502Z"/><path class="ac" d="M1032.91,498a4.16,4.16,0,0,1,2.19-3.84,2.42,2.42,0,0,1,1.22-.29,2,2,0,0,0-2,0,4.17,4.17,0,0,0-2.19,3.85,1.67,1.67,0,0,0,1.56,1.63A1.81,1.81,0,0,1,1032.91,498Z"/><g class="b"><g class="b"><g class="cl"><g class="b"><path class="au" d="M1020.78,478.78l-.53.21a3,3,0,0,1,.06-.32l.54-.21a3,3,0,0,0-.07.32"/><path class="av" d="M1020.85,478.46l-.54.21.09-.25.54-.21a1.06,1.06,0,0,0-.09.25"/><path class="aw" d="M1020.94,478.21l-.54.21.09-.17.53-.21a.89.89,0,0,0-.08.17"/><path class="ax" d="M1021,478l-.53.21a.57.57,0,0,1,.08-.13l.54-.21-.09.13"/><path class="ay" d="M1021.11,477.91l-.54.21.09-.11.54-.21a.31.31,0,0,0-.09.11"/><path class="az" d="M1021.2,477.8l-.54.21.09-.09.54-.21a.38.38,0,0,0-.09.09"/><path class="ba" d="M1021.29,477.71l-.54.21.1-.08.53-.21-.09.08"/><path class="bb" d="M1021.38,477.63l-.53.21.1-.06.53-.21-.1.06"/><path class="bc" d="M1021.48,477.57l-.53.21.1,0,.54-.21-.11.05"/><path class="bd" d="M1021.59,477.52l-.54.21h0l.53-.21h0"/></g></g></g><g class="b"><g class="cm"><g class="b"><path class="bf" d="M1023.77,483.07l-.53.21a1.49,1.49,0,0,1-1.45-.36l-.31-.28.54-.21a4,4,0,0,0,.3.28,1.5,1.5,0,0,0,1.45.36"/><path class="bg" d="M1022,482.43l-.54.21-.2-.22.54-.21.2.22"/><path class="bh" d="M1021.82,482.21l-.54.21-.15-.2.53-.21.16.2"/><path class="bi" d="M1021.66,482l-.53.21L1021,482l.54-.21.12.19"/><path class="bj" d="M1021.54,481.82l-.54.21-.11-.18.54-.21a1.74,1.74,0,0,0,.11.18"/><path class="bd" d="M1021.43,481.64l-.54.21-.1-.18.54-.21a1.62,1.62,0,0,0,.1.18"/><path class="bc" d="M1021.33,481.46l-.54.21-.09-.18.53-.21a1.62,1.62,0,0,0,.1.18"/><path class="bb" d="M1021.23,481.28l-.53.21a1.42,1.42,0,0,1-.08-.18l.53-.21.08.18"/><path class="ba" d="M1021.15,481.1l-.53.21a1.54,1.54,0,0,1-.08-.19l.53-.21c0,.07,0,.13.08.19"/><path class="az" d="M1021.07,480.91l-.53.21a1.59,1.59,0,0,1-.07-.2l.53-.21c0,.07,0,.14.07.2"/><path class="ay" d="M1021,480.71l-.53.21a1.72,1.72,0,0,1-.07-.21l.53-.21c0,.07.05.14.07.21"/><path class="ax" d="M1020.93,480.5l-.53.21-.06-.23.53-.21.06.23"/><path class="aw" d="M1020.87,480.27l-.53.21-.06-.27.53-.2.06.26"/><path class="av" d="M1020.81,480l-.53.2c0-.11,0-.22,0-.33l.54-.21c0,.11,0,.22,0,.34"/><path class="au" d="M1020.77,479.67l-.54.21a3.29,3.29,0,0,1,0-.89l.53-.21a3.31,3.31,0,0,0,0,.89"/></g></g></g><path class="bk" d="M1020.78,478.78c.2-1.33,1.21-1.74,2.27-.9a4.64,4.64,0,0,1,1.54,3.92c-.2,1.34-1.21,1.74-2.27.91A4.66,4.66,0,0,1,1020.78,478.78Z"/></g><g class="b"><g class="b"><g class="cn"><g class="b"><path class="bf" d="M1017,480l.46-.34.16-.1-.46.35a.83.83,0,0,0-.16.09"/><path class="bg" d="M1017.15,479.92l.46-.35.14-.05-.46.34a.59.59,0,0,0-.14.06"/><path class="bh" d="M1017.29,479.86l.46-.34.12,0-.46.34-.12,0"/><path class="bi" d="M1017.41,479.83l.46-.34.11,0-.46.34-.11,0"/><path class="bj" d="M1017.52,479.81l.46-.34h.1l-.46.34h-.1"/><path class="bd" d="M1017.62,479.8l.46-.34h.09l-.46.34h-.09"/><path class="bc" d="M1017.71,479.8l.46-.34h.1l-.46.35h-.1"/><path class="bb" d="M1017.81,479.81l.46-.35h.08l-.46.35h-.08"/><path class="ba" d="M1017.89,479.82l.46-.35.09,0-.46.34h-.09"/><path class="az" d="M1018,479.83l.46-.34.09,0-.46.34-.09,0"/><path class="ay" d="M1018.07,479.85l.46-.34.09,0-.46.34-.09,0"/><path class="ax" d="M1018.16,479.87l.46-.34.09,0-.46.35-.09,0"/><path class="aw" d="M1018.25,479.9l.46-.35.09,0-.46.35-.09,0"/><path class="av" d="M1018.34,479.93l.46-.35.09,0-.46.34-.09,0"/><path class="au" d="M1018.43,480l.46-.34.07,0-.46.34-.07,0"/></g></g></g><g class="b"><g class="co"><g class="b"><path class="au" d="M1018.5,480l.46-.34h0l-.46.34h0"/><path class="bn" d="M1018.52,480l.46-.34.1,0-.46.35-.1-.05"/><path class="bo" d="M1018.62,480.05l.46-.35.09.05-.46.35-.09-.05"/><path class="bp" d="M1018.71,480.1l.46-.35.1.06-.45.34-.11,0"/><path class="bq" d="M1018.82,480.15l.45-.34.11.06-.46.34-.1-.06"/><path class="br" d="M1018.92,480.21l.46-.34.11.07-.46.34-.11-.07"/><path class="bs" d="M1019,480.28l.46-.34.12.09-.46.34-.12-.09"/><path class="bt" d="M1019.15,480.37l.46-.34.13.1-.46.34-.13-.1"/><path class="bu" d="M1019.28,480.47l.46-.34.15.12-.46.34-.15-.12"/><path class="bv" d="M1019.43,480.59l.46-.34.2.18-.46.34-.2-.18"/><path class="bw" d="M1019.63,480.77l.46-.34a5.47,5.47,0,0,1,.68.83l-.46.34a5.47,5.47,0,0,0-.68-.83"/><path class="bv" d="M1020.31,481.6l.46-.34a1.76,1.76,0,0,1,.14.23l-.46.34c0-.08-.09-.15-.14-.23"/><path class="bu" d="M1020.45,481.83l.46-.34a1.62,1.62,0,0,1,.1.18l-.45.34-.11-.18"/><path class="bt" d="M1020.56,482l.45-.34a1.09,1.09,0,0,1,.08.15l-.46.35c0-.06,0-.11-.07-.16"/><path class="bs" d="M1020.63,482.17l.46-.35.07.14-.46.34a.54.54,0,0,0-.07-.13"/><path class="br" d="M1020.7,482.3l.46-.34a.5.5,0,0,1,.05.13l-.46.34a.5.5,0,0,0,0-.13"/><path class="bq" d="M1020.75,482.43l.46-.34a.61.61,0,0,1,0,.12l-.46.34a.61.61,0,0,0,0-.12"/><path class="bp" d="M1020.8,482.55l.46-.34s0,.07,0,.11l-.46.34s0-.07,0-.11"/><path class="bo" d="M1020.84,482.66l.46-.34s0,.07,0,.11l-.46.34s0-.07,0-.11"/><path class="bn" d="M1020.88,482.77l.46-.34,0,.11-.46.34,0-.11"/><path class="au" d="M1020.91,482.88l.46-.34,0,.1-.46.34,0-.1"/><path class="av" d="M1020.94,483l.46-.34a.3.3,0,0,0,0,.1l-.46.35a.43.43,0,0,1,0-.11"/><path class="aw" d="M1021,483.09l.46-.35s0,.07,0,.1l-.46.35s0-.07,0-.1"/><path class="ax" d="M1021,483.19l.46-.35s0,.07,0,.11l-.46.34s0-.07,0-.1"/><path class="ay" d="M1021,483.29l.46-.34s0,.06,0,.09h0l-.46.34h0s0-.06,0-.09"/><path class="az" d="M1021,483.39l.46-.34a.34.34,0,0,0,0,.1l-.46.34a.34.34,0,0,1,0-.1"/><path class="ba" d="M1021,483.49l.46-.34v.1l-.46.34v-.1"/><path class="bb" d="M1021,483.59l.46-.34v.1l-.46.34v-.1"/><path class="bc" d="M1021,483.69l.46-.34v.1l-.46.34v-.1"/><path class="bd" d="M1021,483.79l.46-.34s0,.07,0,.11l-.46.34s0-.07,0-.11"/><path class="bj" d="M1021,483.9l.46-.34a.52.52,0,0,1,0,.11l-.46.34a.43.43,0,0,0,0-.11"/><path class="bi" d="M1021,484l.46-.34a.43.43,0,0,1,0,.11l-.46.34a.36.36,0,0,0,0-.11"/><path class="bh" d="M1021,484.12l.46-.34a.5.5,0,0,1,0,.13l-.46.34a.5.5,0,0,0,0-.13"/><path class="bg" d="M1020.93,484.25l.46-.34-.06.15-.46.34a.94.94,0,0,0,.06-.15"/><path class="bf" d="M1020.87,484.4l.46-.34a1.16,1.16,0,0,1-.32.4l-.46.34a1.07,1.07,0,0,0,.32-.4"/></g></g></g><path class="bx" d="M1018.5,480a4.66,4.66,0,0,1,2.51,3.39c.14,1.34-.74,2-2,1.44a4.63,4.63,0,0,1-2.5-3.39C1016.38,480.1,1017.26,479.45,1018.5,480Z"/></g><g class="b"><g class="b"><g class="cp"><g class="b"><path class="bf" d="M1022.18,480.47l.57.06a.58.58,0,0,1,.19,0l-.57-.05-.19,0"/><path class="bg" d="M1022.37,480.51l.57.05a.59.59,0,0,1,.14.06l-.57-.06-.14-.05"/><path class="bh" d="M1022.51,480.56l.57.06.11.05-.57-.05-.11-.06"/><path class="bi" d="M1022.62,480.62l.57.05.09.06-.57-.05-.09-.06"/><path class="bj" d="M1022.71,480.68l.57.05.08.06-.57-.05-.08-.06"/><path class="bd" d="M1022.79,480.74l.57.05a.23.23,0,0,1,.07.07l-.57-.06-.07-.06"/><path class="bc" d="M1022.86,480.8l.57.06.07.06-.57-.05a.23.23,0,0,0-.07-.07"/><path class="bb" d="M1022.93,480.87l.57.05.06.07-.57-.06-.06-.06"/><path class="ba" d="M1023,480.93l.57.06.06.07-.57-.06-.06-.07"/><path class="az" d="M1023.05,481l.57.06,0,.07-.57-.05a.35.35,0,0,1-.05-.08"/><path class="ay" d="M1023.1,481.08l.57.05a.35.35,0,0,0,.05.08l-.57-.06,0-.07"/><path class="ax" d="M1023.15,481.15l.57.06,0,.08-.57-.06a.35.35,0,0,1-.05-.08"/><path class="aw" d="M1023.2,481.23l.57.06a.59.59,0,0,1,0,.08l-.57-.06,0-.08"/><path class="av" d="M1023.24,481.31l.57.06.05.09-.57-.06,0-.09"/><path class="au" d="M1023.29,481.4l.57.06,0,.07-.57-.06,0-.07"/></g></g></g><g class="b"><g class="cq"><g class="b"><path class="au" d="M1023.32,481.47l.57.06v0l-.57-.06v0"/><path class="bn" d="M1023.33,481.49l.57.06a1,1,0,0,1,0,.1l-.57-.06,0-.1"/><path class="bo" d="M1023.37,481.59l.57.06,0,.1-.57-.06a.42.42,0,0,1,0-.1"/><path class="bp" d="M1023.41,481.69l.57.06,0,.11-.57-.06,0-.11"/><path class="bq" d="M1023.44,481.8l.57.06a.49.49,0,0,1,0,.11l-.57-.05a.56.56,0,0,0,0-.12"/><path class="br" d="M1023.48,481.92l.57.05,0,.13-.57-.06,0-.12"/><path class="bs" d="M1023.51,482l.57.06,0,.14-.57-.05,0-.15"/><path class="bt" d="M1023.54,482.19l.57.05a.5.5,0,0,1,0,.16l-.57,0a.41.41,0,0,0,0-.16"/><path class="bu" d="M1023.57,482.35l.57,0,0,.2-.57-.06,0-.19"/><path class="bv" d="M1023.6,482.54l.57.06a2.28,2.28,0,0,1,0,.26l-.57-.05a2.45,2.45,0,0,0,0-.27"/><path class="bw" d="M1023.62,482.81l.57.05a4.35,4.35,0,0,1,0,1.08l-.57-.06a4.29,4.29,0,0,0,0-1.07"/><path class="bv" d="M1023.57,483.88l.57.06c0,.09,0,.17,0,.26l-.57-.05c0-.09,0-.18,0-.27"/><path class="bu" d="M1023.53,484.15l.57.05c0,.07,0,.14,0,.2l-.57,0c0-.07,0-.14,0-.2"/><path class="bt" d="M1023.48,484.35l.57,0a.84.84,0,0,1,0,.17l-.57-.05a1.54,1.54,0,0,0,.05-.17"/><path class="bs" d="M1023.43,484.52l.57.05a.57.57,0,0,1,0,.14l-.57,0a1,1,0,0,0,0-.14"/><path class="br" d="M1023.39,484.66l.57,0a.78.78,0,0,1-.05.14l-.57-.06a.69.69,0,0,0,0-.13"/><path class="bq" d="M1023.34,484.79l.57.06s0,.08,0,.12l-.57-.06s0-.08,0-.12"/><path class="bp" d="M1023.3,484.91l.57.06a1.17,1.17,0,0,0,0,.11l-.57-.06,0-.11"/><path class="bo" d="M1023.25,485l.57.06-.05.1-.57-.05a.54.54,0,0,0,0-.11"/><path class="bn" d="M1023.2,485.13l.57.05a1,1,0,0,1,0,.1l-.57,0a1,1,0,0,1,0-.1"/><path class="au" d="M1023.16,485.23l.57,0-.05.1-.57-.06a.41.41,0,0,1,0-.09"/><path class="av" d="M1023.11,485.32l.57.06-.06.09-.57-.06.06-.09"/><path class="aw" d="M1023.05,485.41l.57.06a.41.41,0,0,1,0,.09l-.57-.06a.41.41,0,0,0,0-.09"/><path class="ax" d="M1023,485.5l.57.06-.06.08-.57-.05.06-.09"/><path class="ay" d="M1022.94,485.59l.57.05a.22.22,0,0,1,0,.08h0l-.57-.06h0l.05-.08"/><path class="az" d="M1022.89,485.67l.57.06-.07.08-.57-.06.07-.08"/><path class="ba" d="M1022.82,485.75l.57.06-.06.08-.57-.06.06-.08"/><path class="bb" d="M1022.76,485.83l.57.06-.07.07-.57,0,.07-.08"/><path class="bc" d="M1022.69,485.91l.57,0-.07.08-.57-.06.07-.07"/><path class="bd" d="M1022.62,486l.57.06-.08.07-.57-.06.08-.07"/><path class="bj" d="M1022.54,486.05l.57.06-.08.07-.57-.06a.27.27,0,0,0,.08-.07"/><path class="bi" d="M1022.46,486.12l.57.06-.1.07-.57-.06.1-.07"/><path class="bh" d="M1022.36,486.19l.57.06-.11.06-.57-.05.11-.07"/><path class="bg" d="M1022.25,486.26l.57.05-.15.07-.57-.05.15-.07"/><path class="bf" d="M1022.1,486.33l.57.05a1,1,0,0,1-.5.08l-.57-.06a1,1,0,0,0,.5-.07"/></g></g></g><path class="bx" d="M1023.32,481.47a4.66,4.66,0,0,1-.43,4.2,1.29,1.29,0,0,1-2.43-.27,4.64,4.64,0,0,1,.43-4.19A1.29,1.29,0,0,1,1023.32,481.47Z"/></g><g class="b"><g class="b"><g class="cr"><g class="b"><path class="bf" d="M1028.74,481.13l.57.06a.63.63,0,0,1,.19,0l-.57-.05-.19,0"/><path class="bg" d="M1028.93,481.17l.57.05.14.06-.57-.06-.14-.05"/><path class="bh" d="M1029.07,481.22l.57.06.11.05-.57-.05-.11-.06"/><path class="bi" d="M1029.18,481.28l.57.05.09.06-.57-.05-.09-.06"/><path class="bj" d="M1029.27,481.34l.57.05.08.06-.57-.05-.08-.06"/><path class="bd" d="M1029.35,481.4l.57.05.07.07-.57-.06-.07-.06"/><path class="bc" d="M1029.42,481.46l.57.06.07.06-.57-.05-.07-.07"/><path class="bb" d="M1029.49,481.53l.57.05.06.07-.57-.06-.06-.06"/><path class="ba" d="M1029.55,481.59l.57.06.05.07-.57-.06,0-.07"/><path class="az" d="M1029.6,481.66l.57.06.06.07-.57-.05-.06-.08"/><path class="ay" d="M1029.66,481.74l.57.05a.35.35,0,0,0,0,.08l-.57-.06,0-.07"/><path class="ax" d="M1029.71,481.81l.57.06,0,.08-.57-.06,0-.08"/><path class="aw" d="M1029.75,481.89l.57.06a.56.56,0,0,1,0,.08l-.57-.06a.56.56,0,0,1,0-.08"/><path class="av" d="M1029.8,482l.57.06,0,.09-.57-.06,0-.09"/><path class="au" d="M1029.84,482.06l.57.06a.43.43,0,0,1,0,.07l-.57-.06,0-.07"/></g></g></g><g class="b"><g class="cs"><g class="b"><path class="au" d="M1029.88,482.13l.57.06v0l-.57-.06v0"/><path class="bn" d="M1029.89,482.15l.57.06,0,.1-.57-.06a.42.42,0,0,1,0-.1"/><path class="bo" d="M1029.93,482.25l.57.06,0,.1-.57-.06,0-.1"/><path class="bp" d="M1030,482.35l.57.06a.36.36,0,0,1,0,.11l-.57-.06a.49.49,0,0,0,0-.11"/><path class="bq" d="M1030,482.46l.57.06s0,.07,0,.11l-.57-.05,0-.12"/><path class="br" d="M1030,482.58l.57.05,0,.13-.57-.06,0-.12"/><path class="bs" d="M1030.07,482.7l.57.06,0,.14-.57,0,0-.15"/><path class="bt" d="M1030.1,482.85l.57,0,0,.16-.57-.05,0-.16"/><path class="bu" d="M1030.13,483l.57.05,0,.2-.57-.06,0-.19"/><path class="bv" d="M1030.16,483.2l.57.06a2.28,2.28,0,0,1,0,.26l-.57,0a2.45,2.45,0,0,0,0-.27"/><path class="bw" d="M1030.18,483.47l.57,0a4.89,4.89,0,0,1,0,1.08l-.57-.06a4.83,4.83,0,0,0,0-1.07"/><path class="bv" d="M1030.13,484.54l.57.06a2.38,2.38,0,0,1,0,.26l-.57-.05a2.56,2.56,0,0,0,.05-.27"/><path class="bu" d="M1030.08,484.81l.57.05c0,.07,0,.14,0,.2L1030,485c0-.07,0-.14,0-.2"/><path class="bt" d="M1030,485l.57.05c0,.06,0,.12,0,.17l-.57-.05c0-.06,0-.12,0-.17"/><path class="bs" d="M1030,485.18l.57.05s0,.1,0,.14l-.57-.05c0-.05,0-.1,0-.14"/><path class="br" d="M1030,485.32l.57.05,0,.14-.57-.06s0-.09,0-.13"/><path class="bq" d="M1029.9,485.45l.57.06s0,.08,0,.12l-.57-.06s0-.08,0-.12"/><path class="bp" d="M1029.86,485.57l.57.06a1.17,1.17,0,0,0,0,.11l-.57-.06,0-.11"/><path class="bo" d="M1029.81,485.68l.57.06s0,.07-.05.1l-.57,0,0-.11"/><path class="bn" d="M1029.76,485.79l.57,0a.31.31,0,0,1,0,.1l-.57-.05,0-.1"/><path class="au" d="M1029.71,485.89l.57.05a.31.31,0,0,1,0,.1l-.57-.06a.41.41,0,0,0,0-.09"/><path class="av" d="M1029.66,486l.57.06a.41.41,0,0,1,0,.09l-.57-.06a.41.41,0,0,0,.05-.09"/><path class="aw" d="M1029.61,486.07l.57.06,0,.09-.57-.06,0-.09"/><path class="ax" d="M1029.56,486.16l.57.06-.06.08-.57-.05.06-.09"/><path class="ay" d="M1029.5,486.25l.57.05a.56.56,0,0,1,0,.08h0l-.57-.06h0a.56.56,0,0,1,0-.08"/><path class="az" d="M1029.44,486.33l.57.06-.06.08-.57-.06.06-.08"/><path class="ba" d="M1029.38,486.41l.57.06-.06.08-.57-.06.06-.08"/><path class="bb" d="M1029.32,486.49l.57.06-.07.07-.57-.05.07-.08"/><path class="bc" d="M1029.25,486.57l.57.05-.07.08-.57-.06.07-.07"/><path class="bd" d="M1029.18,486.64l.57.06-.08.07-.57-.06.08-.07"/><path class="bj" d="M1029.1,486.71l.57.06-.08.07-.57-.06.08-.07"/><path class="bi" d="M1029,486.78l.57.06-.1.07-.57-.06.1-.07"/><path class="bh" d="M1028.92,486.85l.57.06-.11.06-.57-.05.11-.07"/><path class="bg" d="M1028.81,486.92l.57.05-.15.07-.57-.05.15-.07"/><path class="bf" d="M1028.66,487l.57.05a1,1,0,0,1-.51.08l-.57-.06a1,1,0,0,0,.51-.07"/></g></g></g><path class="bx" d="M1029.88,482.13a4.66,4.66,0,0,1-.43,4.2,1.29,1.29,0,0,1-2.43-.27,4.64,4.64,0,0,1,.43-4.19C1028.24,480.78,1029.32,480.9,1029.88,482.13Z"/></g><g class="b"><g class="b"><g class="ct"><g class="b"><path class="au" d="M1025.92,480.8l-.53-.23.28-.18.52.23a2.11,2.11,0,0,0-.27.18"/><path class="av" d="M1026.19,480.62l-.52-.23a1.28,1.28,0,0,1,.24-.11l.52.23a1.28,1.28,0,0,0-.24.11"/><path class="aw" d="M1026.43,480.51l-.52-.23.18-.06.52.23-.18.06"/><path class="ax" d="M1026.61,480.45l-.52-.23.15,0,.53.23-.16,0"/><path class="ay" d="M1026.77,480.41l-.53-.23h.14l.53.23h-.14"/><path class="az" d="M1026.91,480.4l-.53-.23h.13l.53.23h-.13"/><path class="ba" d="M1027,480.4l-.53-.23h.12l.53.23H1027"/><path class="bb" d="M1027.16,480.41l-.53-.23.12,0,.52.23-.11,0"/><path class="bc" d="M1027.27,480.44l-.52-.23.11,0,.52.23-.11,0"/><path class="bd" d="M1027.38,480.48l-.52-.23h0l.53.23h0"/></g></g></g><g class="b"><g class="cu"><g class="b"><path class="bf" d="M1025,486l-.53-.24a1.47,1.47,0,0,1-.76-1.27,3,3,0,0,1,0-.42l.52.23c0,.14,0,.28,0,.42A1.5,1.5,0,0,0,1025,486"/><path class="bg" d="M1024.21,484.25l-.52-.23c0-.1,0-.2,0-.3l.52.23c0,.1,0,.2,0,.3"/><path class="bh" d="M1024.23,484l-.52-.23a1,1,0,0,1,0-.24l.52.23,0,.24"/><path class="bi" d="M1024.26,483.71l-.52-.23a1.85,1.85,0,0,1,0-.23l.52.23c0,.08,0,.15,0,.23"/><path class="bj" d="M1024.3,483.48l-.52-.23a1.94,1.94,0,0,1,.05-.2l.52.23c0,.07,0,.14,0,.2"/><path class="bd" d="M1024.35,483.28l-.52-.23a1.46,1.46,0,0,1,0-.2l.53.23-.06.2"/><path class="bc" d="M1024.41,483.08l-.53-.23a1.46,1.46,0,0,1,.07-.19l.52.23-.06.19"/><path class="bb" d="M1024.47,482.89l-.52-.23a1.46,1.46,0,0,1,.07-.19l.52.23-.07.19"/><path class="ba" d="M1024.54,482.7l-.52-.23.07-.19.53.23c0,.06,0,.13-.08.19"/><path class="az" d="M1024.62,482.51l-.53-.23.09-.19.53.23-.09.19"/><path class="ay" d="M1024.71,482.32l-.53-.23.1-.2.53.23-.1.2"/><path class="ax" d="M1024.81,482.12l-.53-.23.12-.2.53.23-.12.2"/><path class="aw" d="M1024.93,481.92l-.53-.23.15-.23.53.23-.15.23"/><path class="av" d="M1025.08,481.69l-.53-.23c.07-.09.13-.19.2-.27l.53.23a2.69,2.69,0,0,0-.2.27"/><path class="au" d="M1025.28,481.42l-.53-.23a3.73,3.73,0,0,1,.64-.62l.53.23a3.4,3.4,0,0,0-.64.62"/></g></g></g><path class="bk" d="M1025.92,480.8c1.08-.8,2.09-.37,2.24,1a4.64,4.64,0,0,1-1.68,3.87c-1.09.8-2.09.37-2.25-1A4.65,4.65,0,0,1,1025.92,480.8Z"/></g><g class="b"><g class="b"><g class="cv"><g class="b"><path class="bi" d="M1027.86,486l.06.57v0l-.06-.57v0"/><path class="bj" d="M1027.86,486l.06.57a.48.48,0,0,1,0,.17l-.06-.57V486"/><path class="bd" d="M1027.86,486.17l.06.57a.51.51,0,0,1,0,.17l-.06-.57,0-.17"/><path class="bc" d="M1027.83,486.34l.06.57a.64.64,0,0,1-.06.18l-.06-.57a.64.64,0,0,0,.06-.18"/><path class="bb" d="M1027.77,486.52l.06.57a.87.87,0,0,1-.1.19l-.06-.57a1.74,1.74,0,0,0,.1-.19"/><path class="ba" d="M1027.67,486.71l.06.57a1.53,1.53,0,0,1-.16.22l-.06-.57a1.53,1.53,0,0,0,.16-.22"/><path class="az" d="M1027.51,486.93l.06.57a2.65,2.65,0,0,1-.34.32l-.06-.57a2.61,2.61,0,0,0,.34-.32"/><path class="ay" d="M1027.17,487.25l.06.57,0,0a3.06,3.06,0,0,1-.61.36l-.07-.57a2.88,2.88,0,0,0,.62-.36l0,0"/><path class="az" d="M1026.51,487.63l.07.57a5.2,5.2,0,0,1-.55.21l-.06-.57a4.33,4.33,0,0,0,.54-.21"/><path class="ba" d="M1026,487.84l.06.57-.37.09-.06-.57.37-.09"/><path class="bb" d="M1025.6,487.93l.06.57-.33.06-.06-.57a1.91,1.91,0,0,0,.33-.06"/><path class="bc" d="M1025.27,488l.06.57-.3,0L1025,488l.3,0"/><path class="bd" d="M1025,488l.06.57h-.29l-.07-.57h.3"/><path class="bj" d="M1024.67,488l.07.57h-.29l-.07-.56h.29"/><path class="bi" d="M1024.38,488.05l.07.56h-.3l-.07-.57.3,0"/><path class="bh" d="M1024.08,488l.07.57-.32,0-.06-.57.31,0"/><path class="bg" d="M1023.77,488l.06.57-.37-.08-.07-.57.38.08"/><path class="bf" d="M1023.39,487.91l.07.57-.46-.16a1.49,1.49,0,0,1-1-1.12l-.06-.57a1.49,1.49,0,0,0,1,1.12c.14.06.3.11.45.16"/></g></g></g><path class="cf" d="M1026.84,484.85c1.24.54,1.37,1.62.29,2.42a4.62,4.62,0,0,1-4.19.48,1.29,1.29,0,0,1-.29-2.43A4.65,4.65,0,0,1,1026.84,484.85Z"/></g><g class="b"><g class="b"><g class="cw"><g class="b"><path class="bi" d="M1021.79,483.33l.44.36,0,0-.44-.36,0,0"/><path class="bj" d="M1021.81,483.35l.44.36a.49.49,0,0,1,.13.12l-.45-.36a.68.68,0,0,0-.12-.12"/><path class="bd" d="M1021.93,483.47l.45.36.1.14-.45-.36a.71.71,0,0,0-.1-.14"/><path class="bc" d="M1022,483.61l.45.36a.89.89,0,0,1,.08.17l-.45-.36a.89.89,0,0,0-.08-.17"/><path class="bb" d="M1022.11,483.78l.45.36a.66.66,0,0,1,.06.2l-.44-.36a1.18,1.18,0,0,0-.07-.2"/><path class="ba" d="M1022.18,484l.44.36a2.56,2.56,0,0,1,0,.27l-.45-.36a2.51,2.51,0,0,0,0-.27"/><path class="az" d="M1022.22,484.25l.45.36a2.54,2.54,0,0,1,0,.47l-.45-.36a2.54,2.54,0,0,0,0-.47"/><path class="ay" d="M1022.2,484.72l.45.36v0a2.93,2.93,0,0,1-.18.69l-.45-.36a3.55,3.55,0,0,0,.19-.69v0"/><path class="az" d="M1022,485.45l.45.36a5.05,5.05,0,0,1-.24.53l-.45-.36a2.79,2.79,0,0,0,.24-.53"/><path class="ba" d="M1021.77,486l.45.36c-.06.11-.13.22-.2.33l-.44-.36a2.59,2.59,0,0,0,.19-.33"/><path class="bb" d="M1021.58,486.31l.44.36a1.85,1.85,0,0,1-.19.27l-.44-.35c.06-.09.13-.18.19-.28"/><path class="bc" d="M1021.39,486.59l.44.35a2.5,2.5,0,0,1-.18.24l-.45-.35.19-.24"/><path class="bd" d="M1021.2,486.83l.45.35-.2.22-.45-.35.2-.22"/><path class="bj" d="M1021,487.05l.45.35a2.08,2.08,0,0,1-.21.21l-.44-.36a1.89,1.89,0,0,0,.2-.2"/><path class="bi" d="M1020.8,487.25l.44.36a2.09,2.09,0,0,1-.22.2l-.45-.36.23-.2"/><path class="bh" d="M1020.57,487.45l.45.36-.25.2-.45-.36a2.43,2.43,0,0,0,.25-.2"/><path class="bg" d="M1020.32,487.65l.45.36-.32.2-.45-.35.32-.21"/><path class="bf" d="M1020,487.86l.45.35-.43.21a1.48,1.48,0,0,1-1.51-.08l-.45-.35a1.51,1.51,0,0,0,1.51.07,2.76,2.76,0,0,0,.43-.2"/></g></g></g><path class="cf" d="M1020.28,483.25c1.25-.49,2.11.19,1.92,1.51a4.67,4.67,0,0,1-2.63,3.3c-1.25.5-2.12-.18-1.92-1.51A4.64,4.64,0,0,1,1020.28,483.25Z"/></g><polyline class="cx" points="1002.39 452.29 1014.06 486.45 1023.22 488.44 1035.18 482.6 1032.33 445.07"/><polygon class="t" points="1014.06 486.45 1023.22 488.44 1035.18 482.6 1039.2 482.08 1023.39 489.91 1010.16 486.92 1014.06 486.45"/><polygon class="ac" points="1440 281.85 1354.73 476.85 1388.73 468.85 1346.73 503.85 1280.73 644.85 1263.03 567.11 1269.79 571.09 1255.73 513.85 1237.67 565.85 1244.73 565.85 1222.73 628.85 1215.36 589.61 1205.73 577.85 1213.97 582.24 1197.73 495.85 1180.43 601.3 1190.73 595.85 1178.92 610.5 1165.73 690.85 1160.64 666.42 1146.73 648.85 1158.54 656.3 1140.73 570.85 1113.57 661.16 1125.73 656.85 1110.2 672.38 1100.73 703.85 1079.96 703.33 1071.73 649.85 1058.93 702.81 1019.73 701.85 945.92 703.54 938.73 656.85 927.6 702.92 810.73 681.85 729.73 693.85 662.73 675.85 549.73 655.85 445.73 634.85 445.73 768 1440 768 1440 281.85"/><polygon class="ac" points="113.81 453.43 100.73 364.85 81.84 437.41 88.57 434.97 78.83 448.96 56.73 533.85 30.14 416.48 13.78 384.85 24.41 391.17 -1.27 277.85 -1.27 768 154 768 114.88 460.66 103.89 450.38 113.81 453.43"/><polygon class="ac" points="147.92 529.43 161 440.85 179.89 513.41 173.16 510.97 182.9 524.96 205 609.85 220.59 539.48 236.96 507.85 226.32 514.17 252 400.85 314 768 121.73 768 146.85 536.66 157.84 526.38 147.92 529.43"/><polygon class="cy" points="460.26 662.37 709.06 706.53 772.85 747.58 734.14 707.33 810.23 692.55 913.7 700.41 810.73 681.85 729.73 693.85 662.73 675.85 445.73 634.85 460.26 662.37"/><polygon class="cz" points="1140.73 570.85 1124.7 646.35 1132.72 651 1115.58 675.32 1100.73 703.85 1110.2 672.38 1125.73 656.85 1113.57 661.16 1140.73 570.85"/><polygon class="da" points="1197.73 495.85 1192.9 585.85 1197.73 591.49 1184.65 618.85 1165.73 690.85 1178.92 610.5 1190.73 595.85 1180.43 601.3 1197.73 495.85"/><polygon class="db" points="1222.73 628.85 1244.73 565.85 1237.67 565.85 1255.73 513.85 1246.33 555.87 1252.41 562.82 1222.73 628.85"/><polygon class="dc" points="1280.73 644.85 1346.73 503.85 1388.73 468.85 1354.73 476.85 1439.73 281.85 1389.33 446.19 1417.92 457.67 1360.23 520.41 1280.73 644.85"/><polygon class="dd" points="100.73 364.85 94.12 424.89 99.55 435.76 84.78 453.13 56.73 533.85 78.83 448.96 88.57 434.97 81.84 437.41 100.73 364.85"/><polygon class="de" points="173 553 0 628 170 768 451.98 768 446 522 173 553"/><polygon class="df" points="792.24 535 422.73 444.67 350.19 476.15 0 628 412 734 792.24 535"/><polygon class="dg" points="422.73 444.67 425.17 628.29 538.57 666.08 792.24 535 422.73 444.67"/><polygon class="dh" points="425.46 458.88 774.72 544.05 792.24 535 422.73 444.67 350.19 476.15 0 628 24 635 425.46 458.88"/><polygon class="di" points="294.44 548.62 296.19 767.4 601.73 768 601.73 537.63 294.44 548.62"/><polygon class="dj" points="747.99 542.38 601.73 537.63 601.73 768 747.99 702.94 747.99 542.38"/><polygon class="dk" points="294.44 548.62 296.19 767.4 601.73 768 601.73 537.63 294.44 548.62"/><g class="dl"><polygon class="ac" points="747.99 542.38 601.73 537.63 601.73 768 747.99 702.94 747.99 542.38"/></g><polygon class="dm" points="400.64 403.74 392.6 406.93 377.11 513.59 294.44 548.62 601.18 623.13 747.99 542.92 753.66 462.64 400.64 403.74"/><polygon class="dn" points="294.44 548.62 601.18 623.13 691.54 573.76 377.11 513.59 294.44 548.62"/><polygon class="do" points="753.66 462.64 737.37 469.18 721.07 557.63 747.99 542.92 753.66 462.64"/><polygon class="dp" points="753.13 468.83 753.66 462.64 400.64 403.74 392.6 406.93 737.37 469.18 753.13 468.83"/><polygon class="dm" points="392.6 406.93 737.37 469.18 722.41 557.86 691.54 573.76 377.11 513.59 392.6 406.93"/><polygon class="dq" points="409.66 423.08 402.4 507.36 489.14 523 501.56 439.65 409.66 423.08"/><polygon class="dq" points="714.79 478.08 632.97 463.33 620.56 546.69 696.41 560.36 714.79 478.08"/><polygon class="dq" points="516.45 442.33 504.04 525.68 604.8 543.85 617.21 460.49 516.45 442.33"/><polygon class="dr" points="501.33 441.18 501.56 439.65 409.66 423.08 402.4 507.36 404.56 507.75 411.69 425.02 501.33 441.18"/><polygon class="ds" points="714.45 479.59 714.79 478.08 632.97 463.33 620.56 546.69 622.81 547.09 635 465.27 714.45 479.59"/><polygon class="dt" points="616.98 462.02 617.21 460.49 516.45 442.33 504.04 525.68 506.3 526.09 518.48 444.27 616.98 462.02"/><polygon class="du" points="513.22 585.15 591.32 604.01 638.68 577.89 555.3 562.62 513.22 585.15"/><line class="dv" x1="427.11" y1="446.42" x2="479.54" y2="454.99"/><line class="dw" x1="424.33" y1="463.51" x2="476.76" y2="472.08"/><path class="dx" d="M645.68,484.47l7.41,1.21"/><path class="dy" d="M659.36,486.71l38.75,6.34"/><path class="dz" d="M642.9,501.56l8.09,1.32"/><path class="ea" d="M658.34,504.08l37,6.05"/><path class="eb" d="M640.08,518.34l6.81,1.11"/><path class="ec" d="M653.09,520.47l38.45,6.29"/><line class="ed" x1="636.32" y1="535.27" x2="688.76" y2="543.84"/><line class="ee" x1="446.48" y1="484.67" x2="473.97" y2="489.17"/><polygon class="ef" points="504.04 525.68 542.33 505.21 555.59 513.59 577.02 511.85 616.98 462.02 604.8 543.85 504.04 525.68"/><polyline class="eg" points="392.6 406.93 501.56 439.65 489.14 523 374.78 537.63"/><polyline class="eh" points="515.16 429.8 617.21 460.34 604.8 543.7 485.65 571.98"/><polyline class="ei" points="620.56 448.38 714.79 478.08 696.41 560.36 624.85 584.93"/><polygon class="du" points="356.1 545.3 460.77 571.07 499.25 549.84 394.4 529.07 356.1 545.3"/><polygon class="ac" points="531.3 556.62 489.21 579.15 499.82 581.73 542.06 558.75 531.3 556.62"/><polygon class="ac" points="517.73 564.53 525 567 516 571 498 561 500 559 517.73 564.53"/><circle class="t" cx="499.5" cy="559.5" r="6.5"/><path class="ej" d="M501.1,553.21a6.49,6.49,0,0,1-5.6,9.79,6.56,6.56,0,0,1-1.6-.21,6.5,6.5,0,1,0,7.2-9.58Z"/><path class="ek" d="M334.55,463.5s-.75-8.61,0-10.87c2.13-6.39,17.63-.05,18.17-3.2,2.1-12.23,3.13-39.39,3.13-39.39l-17-3.2-26.62,6.39L304.74,458Z"/><path class="el" d="M334.55,452.63c2.13-6.39,17.63-.05,18.17-3.2,2.1-12.23,3.13-39.39,3.13-39.39l-17-3.2-15,3.6c-2,7-4.7,17.85-4.72,26.06,0,9.45-.91,19.14-1.42,23.86l16.86,3.14S333.8,454.89,334.55,452.63Z"/><path class="el" d="M334.55,452.63c1-3,4.93-3.19,8.88-2.89-.12,0-12.25-1.63-13.26-3.32a23.74,23.74,0,0,1-1.83-5.06l-1.16,18.39,7.2,1.36C334.22,458.38,334.06,454.12,334.55,452.63Z"/><polygon class="em" points="299.42 456.89 301.55 449.43 339.62 455.57 343.43 467.8 329.76 466.93 299.42 456.89"/><path class="ac" d="M378,623.14l-46.54,2.54v-.13h-38s-.61,45.15.49,73.91c.78,20.33-9.43,43.91-17.09,68.54h42.23a59.71,59.71,0,0,0,2.51-9.92,143.21,143.21,0,0,1,11.49-42,54.25,54.25,0,0,1,1.79,11c0,7.11-1.37,24.26-2.06,40.89h42.85Z"/><path class="en" d="M297.29,454.76s-16,30.87-18.1,43.65,9.58,73.47,10.64,87.31,1.07,41.53,3.2,46.85,12.78,8.52,30.88,8.52c30.87,0,50-7.45,57.49-8.52,0,0-3.19-59.63-5.32-74.53-1-6.74-2.8-19.14-4.52-30.7a92.63,92.63,0,0,0-21.76-47.2l-11-12.61-16-11.71Z"/><path class="ac" d="M376.08,558c-1-6.74-2.8-19.14-4.52-30.7a92.63,92.63,0,0,0-21.76-47.2l-11-12.61-16-11.71-25.55-1.06s-16,30.87-18.1,43.65,9.58,73.47,10.64,87.31,1.07,41.53,3.2,46.85,12.78,8.52,30.88,8.52c30.87,0,50-7.45,57.49-8.52C381.4,632.57,378.21,572.94,376.08,558ZM300,624c-4.84-4.74,12.16-39.18,12.85-46.24s-15,16.52-17,17.22-10.35-80.21-6.88-91.1c3.22-10.13,21.68-37.74,33.64-10.42a48.53,48.53,0,0,1,3.25,11.07c2,11.51,7.83,44.47,11,54.72,3.82,12.48-6,13.54-11.66,20.12s20.72,10.06,25.21,18S304.83,628.71,300,624Z"/><path class="en" d="M322.84,492.7s24.49,87.7,41.53,96.22S440.16,587,440.16,587L440,574,385.66,562.3c-4.87-14.62-13.31-45.68-18.81-64.08-5.36-18-12.53-24.38-22.24-29.78a11.26,11.26,0,0,0-16.35,7,35.25,35.25,0,0,0,0,17.2"/><path class="em" d="M362.24,393c-7.46,2.13-45.79-4.26-53.24,7.45s-2.13,36.21-2.13,41.53a36,36,0,0,1-.18,3.67c13.36,2.44,22.7-.73,20.14-12.15-1.56-7-2.92-14.95,2.4-14.95s6.39,9.59,6.39,9.59l5.32,1.06s-1.7-5.06,2.13-7.45c8.52-5.33-1.06-7.45,12.78-11.71S362.24,393,362.24,393Z"/><path class="eo" d="M284.55,492c2.28-9.16,12.57-27.05,18.45-37l-5.71-.23c-1.07,2.07-16.05,31.33-18.1,43.65-1.64,9.79,4.86,47.73,8.47,71.15C285.92,545.12,281.94,502.44,284.55,492Z"/><path class="eo" d="M300,454.87l1.56-5.44,4.49.73,9.65,1.55s-10.8.06-11.32.44A10.79,10.79,0,0,0,303,455Z"/><path class="el" d="M326.07,429.8s1.72,4.53,4.65,4.64l-4.65,1.16Z"/><path class="en" d="M345.05,564.69a3.16,3.16,0,0,1,1.77-4c8.13-3.39,32.08-13.26,34.58-12.82,3,.53,4.26,14.38,4.26,14.38s-22.45,16.81-29,18.6C351.7,582.27,347,570.31,345.05,564.69Z"/><path class="ek" d="M473,576.14l-11.28-3.82a8.2,8.2,0,0,0-4.83-.14l-15.07,4.19L382.45,564.7s-19.24,14.41-25.75,16.2h0c2.65,4,5.23,6.8,7.67,8,17,8.51,75.79-1.91,75.79-1.91l9.68,2a18.37,18.37,0,0,0,3.23.37c5.07.12,10.15-.45,14.31-3.33l6.66-4.61,5.32,1.07h0A14.22,14.22,0,0,0,473,576.14Z"/><path class="ac" d="M378.4,553.14l3.6-2c-.33-1-.68-2.11-1-3.2q-.89-2.79-1.82-5.74s-27.34,8.58-25.95,5.72,20.35-12.64,17.57-14.36-16.18,8.2-19.47,7-3.42-6.71-7.87-23.36-20.59-40-20.59-40V492.7s11.09,39.71,23.53,68.28a3.15,3.15,0,0,0-1.32,3.71c1.92,5.62,6.65,17.58,11.65,16.21h0c3.55-1,11.82-6.41,18.62-11.15,0,0-20,6-19.47,3.68s14.92-9,13.07-9-17.8,2.26-16.42,0S378.4,553.14,378.4,553.14Z"/><path class="el" d="M356.7,580.9c2.65,4,5.23,6.8,7.67,8,17,8.51,75.79-1.91,75.79-1.91l11.31,3.58a25.61,25.61,0,0,0,15.91-4.52l6.66-4.61,5.32,1.07-6.43-2.86s-10.4,6.77-16.13,7.3S444.31,584,444.31,584l-3.46,1.36c-16.3,2.08-62.45,1.22-67.65-4.39a24.42,24.42,0,0,1-4.47-6.78c-4.9,3.22-9.59,6-12,6.68Z"/><polygon class="ac" points="412 734 0 628 0 768 792.24 768 792.24 641.75 792.24 535 412 734"/><polygon class="dh" points="769.02 529.25 392.42 727.6 411.88 734.08 792.54 535 769.02 529.25"/><polygon class="dh" points="23.8 617.68 437.76 720.54 412 734 0 628 23.8 617.68"/></g></svg>