<?xml version="1.0" encoding="UTF-8"?>
<svg width="750px" height="72px" viewBox="0 0 750 72" version="1.1" xmlns="http://www.w3.org/2000/svg" xmlns:xlink="http://www.w3.org/1999/xlink">
    <!-- Generator: Sketch 53.2 (72643) - https://sketchapp.com -->
    <title>Group 13</title>
    <desc>Created with Sketch.</desc>
    <defs>
        <polygon id="path-1" points="0 35.7777778 140.695141 35.7777778 140.695141 0.14851153 0 0.14851153"></polygon>
    </defs>
    <g id="Page-4" stroke="none" stroke-width="1" fill="none" fill-rule="evenodd">
        <g id="Payments-version-2" transform="translate(-345.000000, -3445.000000)">
            <g id="Group-16" transform="translate(345.000000, 3445.000000)">
                <g id="Group-13">
                    <g id="quickbooks" transform="translate(195.494643, 6.000000)">
                        <g id="QuickBooks_Lockup">
                            <g id="Icon_2_">
                                <ellipse id="Circle_2_" fill="#00000A" cx="30.6045026" cy="30.2028344" rx="30.3546554" ry="30.0521822"></ellipse>
                                <path d="M8.67859768,30.2020397 C8.67859768,36.6564437 13.9636744,41.8888772 20.4831859,41.8888772 L22.1695556,41.8888772 L22.1695556,37.5480065 L20.4831859,37.5480065 C16.3917837,37.5480065 13.063159,34.2525503 13.063159,30.2020397 C13.063159,26.1512847 16.3917837,22.8559507 20.4831859,22.8559507 L24.5355992,22.8559507 C24.5355992,22.8559507 24.5355992,45.1323632 24.5355992,45.5619217 C24.5355992,47.9592731 26.4986698,49.9027925 28.9201605,49.9027925 L28.9201605,18.51508 C28.9201605,18.51508 24.3827412,18.51508 20.4831859,18.51508 C13.9636744,18.51508 8.67859768,23.7476357 8.67859768,30.2020397 Z M40.7256958,18.5168123 L39.0393261,18.5168123 L39.0393261,22.8576831 L40.7256958,22.8576831 C44.8170979,22.8576831 48.1457227,26.1531393 48.1457227,30.203772 C48.1457227,34.2544048 44.8170979,37.5497388 40.7256958,37.5497388 L36.6732724,37.5497388 C36.6732724,37.5497388 36.6732724,15.2733264 36.6732724,14.8437678 C36.6732724,12.4462742 34.7102119,10.5028971 32.2887212,10.5028971 L32.2887212,41.8906096 C32.2887212,41.8906096 36.8261304,41.8906096 40.7256958,41.8906096 C47.2451965,41.8906096 52.530284,36.6580538 52.530284,30.203772 C52.530284,23.7492458 47.2451965,18.5168123 40.7256958,18.5168123 Z" id="qb" fill="#FFFFFF" fill-rule="nonzero"></path>
                            </g>
                        </g>
                    </g>
                    <g id="Zendesk_logo_RGB" transform="translate(0.000000, 23.000000)" fill="#00000A">
                        <g id="Group">
                            <path d="M88.4366197,22.3014085 C90.6338028,22.3014085 92.2084507,21.3859155 93.1605634,20.4704225 L95.5042254,22.9971831 C93.9661972,24.6084507 91.8056338,25.7802817 88.4366197,25.7802817 C82.6873239,25.7802817 78.9887324,21.971831 78.9887324,16.8084507 C78.9887324,11.6816901 82.9070423,7.83661972 87.9239437,7.83661972 C93.6366197,7.83661972 96.8591549,12.1577465 96.5661972,18.2 L83.1267606,18.2 C83.6028169,20.7267606 85.3605634,22.3014085 88.4366197,22.3014085 L88.4366197,22.3014085 Z M92.5380282,15.343662 C92.171831,13 90.7802817,11.2788732 87.9971831,11.2788732 C85.3971831,11.2788732 83.6028169,12.743662 83.1267606,15.343662 L92.5380282,15.343662 Z" id="Shape" fill-rule="nonzero"></path>
                            <polygon id="Path" points="0 22.1183099 10.3633803 11.571831 0.256338028 11.571831 0.256338028 8.27605634 15.1605634 8.27605634 15.1605634 11.6450704 4.7971831 22.1915493 15.3070423 22.1915493 15.3070423 25.4873239 0 25.4873239"></polygon>
                            <path d="M26.9521127,22.3014085 C29.1492958,22.3014085 30.7239437,21.3859155 31.6760563,20.4704225 L34.0197183,22.9971831 C32.4816901,24.6084507 30.3211268,25.7802817 26.9521127,25.7802817 C21.2028169,25.7802817 17.5042254,21.971831 17.5042254,16.8084507 C17.5042254,11.6816901 21.4225352,7.83661972 26.4394366,7.83661972 C32.1521127,7.83661972 35.3746479,12.1577465 35.0816901,18.2 L21.6422535,18.2 C22.1183099,20.7267606 23.8760563,22.3014085 26.9521127,22.3014085 L26.9521127,22.3014085 Z M31.0535211,15.343662 C30.6873239,13 29.2957746,11.2788732 26.5126761,11.2788732 C23.9126761,11.2788732 22.1183099,12.743662 21.6422535,15.343662 L31.0535211,15.343662 Z" id="Shape" fill-rule="nonzero"></path>
                            <path d="M57.4929577,16.8450704 C57.4929577,11.3521127 61.5943662,7.90985915 66.1352113,7.90985915 C68.4056338,7.90985915 70.6028169,8.89859155 71.884507,10.5098592 L71.884507,0.366197183 L75.5464789,0.366197183 L75.5464789,25.4873239 L71.884507,25.4873239 L71.884507,23.0704225 C70.5661972,24.7549296 68.4056338,25.7802817 66.0985915,25.7802817 C61.7042254,25.7802817 57.4929577,22.3014085 57.4929577,16.8450704 M72.0676056,16.8084507 C72.0676056,13.7323944 69.7605634,11.2422535 66.6112676,11.2422535 C63.5352113,11.2422535 61.1549296,13.6957746 61.1549296,16.8084507 C61.1549296,19.9211268 63.5352113,22.4112676 66.6112676,22.4112676 C69.7605634,22.4112676 72.0676056,19.884507 72.0676056,16.8084507" id="Shape" fill-rule="nonzero"></path>
                            <path d="M98.9830986,21.7887324 L102.315493,20.0676056 C103.267606,21.6422535 104.769014,22.5943662 106.746479,22.5943662 C108.833803,22.5943662 109.895775,21.5323944 109.895775,20.3239437 C109.895775,18.9323944 107.88169,18.6394366 105.721127,18.2 C102.791549,17.5774648 99.7521127,16.6253521 99.7521127,13.0732394 C99.7521127,10.3633803 102.352113,7.83661972 106.416901,7.87323944 C109.639437,7.87323944 112.019718,9.15492958 113.374648,11.2056338 L110.298592,12.8901408 C109.492958,11.6816901 108.174648,10.9126761 106.416901,10.9126761 C104.439437,10.9126761 103.450704,11.8647887 103.450704,12.9633803 C103.450704,14.2084507 105.025352,14.5380282 107.515493,15.0873239 C110.335211,15.7098592 113.557746,16.6253521 113.557746,20.2140845 C113.557746,22.5943662 111.470423,25.7802817 106.56338,25.743662 C102.974648,25.7802817 100.447887,24.3521127 98.9830986,21.7887324" id="Path"></path>
                            <polygon id="Path" points="123.48169 17.7971831 120.588732 20.9830986 120.588732 25.4507042 116.926761 25.4507042 116.926761 0.329577465 120.588732 0.329577465 120.588732 16.771831 128.352113 8.23943662 132.819718 8.23943662 126.08169 15.6 133.002817 25.4507042 128.828169 25.4507042"></polygon>
                            <path d="M46.4338028,7.87323944 C42.0760563,7.87323944 38.4507042,10.6929577 38.4507042,15.3802817 L38.4507042,25.4507042 L42.1859155,25.4507042 L42.1859155,15.856338 C42.1859155,13.0366197 43.7971831,11.3521127 46.5802817,11.3521127 C49.3633803,11.3521127 50.7183099,13.0366197 50.7183099,15.856338 L50.7183099,25.4507042 L54.4535211,25.4507042 L54.4535211,15.3802817 C54.4169014,10.6929577 50.7915493,7.87323944 46.4338028,7.87323944" id="Path"></path>
                        </g>
                    </g>
                    <g id="Group-20" transform="translate(609.000000, 18.000000)">
                        <polygon id="Fill-1" fill="#00000A" points="47.3702199 26.8333333 44.1631944 26.8333333 44.1631944 12.2986111 48.3475495 12.2986111 53.2669939 20.6512681 53.2669939 12.2986111 56.4618056 12.2986111 56.4618056 26.8333333 53.0690852 26.8333333 47.3702199 16.935215"></polygon>
                        <polygon id="Fill-2" fill="#00000A" points="68.7604167 12.2986111 59.2569444 12.2986111 59.2569444 26.8333333 68.7604167 26.8333333 68.7604167 24.0394797 62.6261176 24.0394797 62.6261176 20.5034126 68.2980975 20.5023133 68.2980975 17.5904003 62.6445752 17.5904003 62.6445752 15.1538029 68.7604167 15.1538029"></polygon>
                        <g id="Group-19">
                            <path d="M70.60212,12.2386102 L82.1963983,12.2386102 L82.1963983,15.1609121 L78.1054857,15.1609121 L78.1054857,27.1149652 L74.7171762,27.1149652 L74.7185052,15.1647374 C74.7185052,15.1647374 71.1281862,15.1609121 70.60212,15.1609121 L70.60212,12.2386102 Z" id="Fill-3" fill="#00000A"></path>
                            <path d="M74.718483,15.1647149 C74.718483,15.1647149 70.76468,15.1608896 70.6020978,15.1608896" id="Fill-5" fill="#00000A"></path>
                            <path d="M84.3096783,23.7270347 C85.1285696,24.2198229 86.4480545,25.4846461 88.6869924,25.7222646 C91.3671614,26.0069117 92.4943829,24.5388977 92.6250688,23.2824001 C92.8184397,21.4217307 91.2225209,21.0229997 88.8590991,20.549788 C86.2447161,20.0261723 84.5655126,19.5300088 84.3214179,16.3354358 C84.1380146,13.9387747 86.1326363,11.7869326 90.0117933,11.9511954 C91.4971828,12.0139753 93.0674075,12.461985 93.8563961,12.9860507 L93.846207,15.3120563 C93.2696384,14.9421276 91.8487058,13.801514 89.2872617,13.6685287 C87.29264,13.5650207 86.2024093,14.8791227 86.1937707,15.9882338 C86.1733926,18.5167551 88.2278196,18.2325581 90.2233273,18.7543736 C92.9912109,19.4782548 94.4974216,20.1886349 94.4365087,23.0344309 C94.3795828,25.6840116 92.0945726,27.4071954 88.6666142,27.4071954 C87.0585128,27.4071954 85.3409896,26.8451017 84.3096783,26.2287789 L84.3096783,23.7270347 Z" id="Fill-7" fill="#00000A"></path>
                            <path d="M99.7129198,12.2386102 L99.7129198,21.0961979 C99.7129198,24.4176808 101.099077,25.8350658 102.961019,25.8350658 C105.009244,25.8350658 106.353758,24.3735774 106.353758,21.0961979 L106.353758,12.2386102 L108.17428,12.2386102 L108.17428,20.9634376 C108.17428,25.5472685 105.919615,27.4072629 102.898998,27.4072629 C100.044065,27.4072629 97.8923984,25.6800288 97.8923984,21.0295927 L97.8923984,12.2386102 L99.7129198,12.2386102 Z" id="Fill-9" fill="#00000A"></path>
                            <mask id="mask-2" fill="white">
                                <use xlink:href="#path-1"></use>
                            </mask>
                            <g id="Clip-12"></g>
                            <polygon id="Fill-11" fill="#00000A" mask="url(#mask-2)" points="113.453548 27.1150552 115.18857 27.1150552 115.18857 12.2387002 113.453548 12.2387002"></polygon>
                            <polygon id="Fill-13" fill="#00000A" mask="url(#mask-2)" points="118.218468 12.2386102 129.393887 12.2386102 129.393887 13.987221 124.665714 13.987221 124.665714 27.1149652 122.923826 27.1149652 122.923826 13.987221 118.218468 13.987221"></polygon>
                            <polygon id="Fill-14" fill="#00000A" mask="url(#mask-2)" points="140.695251 12.2386102 132.104534 12.2386102 132.104534 27.1149652 140.695251 27.1149652 140.695251 25.399207 133.771555 25.399207 133.771555 19.8581518 140.695251 19.8581518 140.695251 18.1142664 133.771555 18.1142664 133.771555 13.987221 140.695251 13.987221"></polygon>
                            <polygon id="Fill-15" fill="#00000A" mask="url(#mask-2)" points="0 0.148534032 22.7801077 0.148534032 22.7801077 19.9637975 13.9085267 8.53741034 0 8.53741034"></polygon>
                            <path d="M13.858556,16.0729304 C16.8162665,19.789544 19.6545876,23.6269919 22.5795159,27.376458 L36.5633531,27.376458 L36.5633531,35.7777103 L13.858556,35.7777103 L13.858556,16.0729304 Z" id="Fill-16" fill="#00000A" mask="url(#mask-2)"></path>
                            <polygon id="Fill-17" fill="#00000A" mask="url(#mask-2)" points="24.2083498 8.50561537 24.2083498 1.85027365 34.9593717 1.85027365 34.9593717 25.9084665 27.817275 25.9084665 27.817275 8.50561537"></polygon>
                            <path d="M8.83377066,9.96514619 L8.83377066,27.2264614 C9.96320717,27.2264614 11.1982999,27.2264614 12.3673852,27.2257863 L12.3673852,34.0233391 L1.69145246,34.0233391 L1.69145246,9.96514619 L8.83377066,9.96514619 Z" id="Fill-18" fill="#00000A" mask="url(#mask-2)"></path>
                        </g>
                    </g>
                    <g id="xero" transform="translate(482.838690, 4.000000)">
                        <g id="g10" transform="translate(32.333333, 32.333333) scale(-1, 1) rotate(-180.000000) translate(-32.333333, -32.333333) ">
                            <g id="g12" transform="translate(0.000000, 0.000000)">
                                <g id="g14-Clipped" transform="translate(0.000000, 0.000000)">
                                    <g id="g14" transform="translate(0.022672, 1.184002)">
                                        <path d="M31.3462368,0.0899010239 C48.658316,0.0899010239 62.692367,14.1239521 62.692367,31.4361379 C62.692367,48.7481103 48.658316,62.782268 31.3462368,62.782268 C14.0341577,62.782268 0,48.7481103 0,31.4361379 C0,14.1239521 14.0341577,0.0899010239 31.3462368,0.0899010239" id="path20" fill="#00000A"></path>
                                        <path d="M15.0049395,31.5266787 L20.3544236,36.8893868 C20.5317729,37.0701486 20.6307386,37.3094581 20.6307386,37.5632712 C20.6307386,38.0922262 20.2007494,38.5217889 19.6717944,38.5217889 C19.4141421,38.5217889 19.1725931,38.4207969 18.9904449,38.2364091 C18.9899116,38.2353427 13.6457597,32.8942834 13.6457597,32.8942834 L8.2771862,38.2444074 C8.09578449,38.4232497 7.85540856,38.5217889 7.60052903,38.5217889 C7.07221388,38.5217889 6.64211799,38.0924395 6.64211799,37.5640177 C6.64211799,37.3062588 6.74502961,37.0643899 6.92973728,36.882135 L12.2784749,31.5341438 L6.93251003,26.1781544 C6.74460303,25.9931268 6.64211799,25.7507246 6.64211799,25.4917926 C6.64211799,24.9629442 7.07221388,24.5339148 7.60052903,24.5339148 C7.85583514,24.5339148 8.09642436,24.6329872 8.2771862,24.8138557 L13.6374414,30.1668591 L18.9773276,24.8333716 C19.1667277,24.6375729 19.4110494,24.5332749 19.6717944,24.5332749 C20.2002162,24.5332749 20.6302054,24.9629442 20.6302054,25.4917926 C20.6302054,25.746992 20.5313463,25.9867281 20.3514376,26.1674899 L15.0049395,31.5266787 Z" id="path22" fill="#FFFFFF"></path>
                                        <path d="M46.8067601,31.5282784 C46.8067601,30.5678411 47.5877153,29.786566 48.5493256,29.786566 C49.5086965,29.786566 50.2899716,30.5678411 50.2899716,31.5282784 C50.2899716,32.488929 49.5086965,33.2700974 48.5493256,33.2700974 C47.5877153,33.2700974 46.8067601,32.488929 46.8067601,31.5282784" id="path24" fill="#FFFFFF"></path>
                                        <path d="M43.5033507,31.5274252 C43.5033507,34.3087048 45.7659131,36.5716938 48.5475127,36.5716938 C51.3277258,36.5716938 53.5908215,34.3087048 53.5908215,31.5274252 C53.5908215,28.7467855 51.3277258,26.4847563 48.5475127,26.4847563 C45.7659131,26.4847563 43.5033507,28.7467855 43.5033507,31.5274252 M41.5191296,31.5274252 C41.5191296,27.6526165 44.672064,24.5001086 48.5475127,24.5001086 C52.4228547,24.5001086 55.5773888,27.6526165 55.5773888,31.5274252 C55.5773888,35.4027672 52.4228547,38.5561283 48.5475127,38.5561283 C44.672064,38.5561283 41.5191296,35.4027672 41.5191296,31.5274252" id="path26" fill="#FFFFFF" fill-rule="nonzero"></path>
                                        <path d="M41.0202482,38.4359403 L40.7253771,38.4367935 C39.840124,38.4367935 38.9863308,38.1575991 38.2732014,37.6080618 C38.1792479,38.038051 37.7949023,38.3616094 37.337079,38.3616094 C36.8101502,38.3616094 36.387946,37.9394052 36.3866662,37.4114099 C36.3866662,37.4094903 36.3898656,25.5739086 36.3898656,25.5739086 C36.3912519,25.0468732 36.8211345,24.6184836 37.3483832,24.6184836 C37.8755253,24.6184836 38.3053013,25.0468732 38.3066876,25.5750817 C38.3066876,25.5774278 38.3071142,32.853652 38.3071142,32.853652 C38.3071142,35.2795932 38.5289341,36.2593331 40.6070021,36.5190116 C40.7990682,36.5428999 41.0079841,36.5391674 41.0088373,36.5391674 C41.5774639,36.5586833 41.9815386,36.9494275 41.9815386,37.4775293 C41.9815386,38.0059511 41.550163,38.4359403 41.0202482,38.4359403" id="path28" fill="#FFFFFF"></path>
                                        <path d="M22.6162395,32.6845143 C22.6162395,32.7107488 22.6182658,32.7380497 22.6195455,32.7650307 C23.1760147,34.9647797 25.1682342,36.5925961 27.5408534,36.5925961 C29.9421599,36.5925961 31.9526155,34.9247881 32.4806107,32.6845143 L22.6162395,32.6845143 Z M34.4433964,32.8654895 C34.0303636,34.8210234 32.9597629,36.4272977 31.3294937,37.4588666 C28.9464234,38.9718272 25.7995676,38.8881116 23.4977601,37.2512304 C21.6201831,35.9155124 20.5363586,33.7304802 20.5363586,31.4796487 C20.5363586,30.9152878 20.6043975,30.3455947 20.746021,29.7848597 C21.4549913,26.9959018 23.8525652,24.8846674 26.7110552,24.5347679 C27.5593028,24.4320696 28.3849419,24.4812325 29.2399081,24.7026258 C29.9745797,24.8813614 30.6854696,25.1793252 31.340478,25.5990766 C32.0203345,26.0361043 32.5883213,26.6124094 33.1383919,27.3022904 C33.1494829,27.3149811 33.1606805,27.3261787 33.1717715,27.3395092 C33.5535576,27.8130093 33.4827459,28.4863605 33.0632077,28.807786 C32.7093624,29.0789821 32.1153545,29.1889322 31.6479331,28.5903385 C31.5474744,28.4472221 31.4353913,28.2999465 31.3120041,28.1526709 C30.9403492,27.7419843 30.4792198,27.3440949 29.9266965,27.0354667 C29.2235915,26.659866 28.422374,26.4451913 27.5706071,26.4403923 C24.7827156,26.4714258 23.2908705,28.4174684 22.7602092,29.8065085 C22.6675354,30.0658671 22.5960838,30.3349303 22.546281,30.6119918 C22.5397757,30.6638209 22.5349767,30.713837 22.5330571,30.7599073 C23.1094688,30.7599073 32.5375587,30.7615069 32.5375587,30.7615069 C33.9091092,30.7903008 34.6473,31.7584165 34.4433964,32.8654895 L34.4433964,32.8654895 Z" id="path30" fill="#FFFFFF" fill-rule="nonzero"></path>
                                    </g>
                                </g>
                            </g>
                        </g>
                    </g>
                    <g id="salesforca-seeklogo.com" transform="translate(318.328175, 0.000000)" fill-rule="nonzero">
                        <path d="M42.6870548,63.9429154 C45.9913165,67.3858276 50.591596,69.521046 55.6793417,69.521046 C62.4425703,69.521046 68.3432459,65.749751 71.4855056,60.1511874 C74.2161919,61.3713122 77.238774,62.0499703 80.4189797,62.0499703 C92.6173101,62.0499703 102.506744,52.0744277 102.506744,39.7695553 C102.506744,27.4632237 92.6173101,17.4876809 80.4189797,17.4876809 C78.9303108,17.4876809 77.4752095,17.6365478 76.0682712,17.9211463 C73.3010979,12.9851865 68.0279985,9.65027568 61.9755367,9.65027568 C59.4418804,9.65027568 57.0454146,10.235527 54.9116556,11.2761359 C52.1065358,4.67782882 45.5709864,0.0512786117 37.9539626,0.0512786117 C30.0216913,0.0512786117 23.2613819,5.07042883 20.6664273,12.1094987 C19.5324117,11.8686846 18.3575306,11.7431694 17.1520005,11.7431694 C7.70770828,11.7431694 0.0512785204,19.478411 0.0512785204,29.0219479 C0.0512785204,35.4173873 3.49127184,41.0013559 8.60236925,43.9889108 C7.55008449,46.4101872 6.9648332,49.0824944 6.9648332,51.8919926 C6.9648332,62.8672788 15.8749559,71.7642664 26.864837,71.7642664 C33.3171961,71.7642664 39.0514913,68.6964402 42.6870548,63.9429154" id="Path" fill="#00000A" transform="translate(51.279011, 35.907773) scale(-1, 1) rotate(-180.000000) translate(-51.279011, -35.907773) "></path>
                        <path d="M14.8909743,30.1788769 C14.8267571,30.0110367 14.9143259,29.9760092 14.9347586,29.9468196 C15.1274099,29.8067096 15.3229802,29.7060055 15.5200099,29.5936256 C16.5649973,29.0390233 17.5516055,28.8770211 18.5834575,28.8770211 C20.6851081,28.8770211 21.9898828,29.9949824 21.9898828,31.7945207 L21.9898828,31.8295483 C21.9898828,33.493355 20.5172679,34.0975795 19.1351408,34.5339639 L18.9556248,34.5923431 C17.9135564,34.9309423 17.014517,35.2228382 17.014517,35.9087936 L17.014517,35.9452806 C17.014517,36.5319914 17.5399296,36.9639974 18.3543192,36.9639974 C19.2591965,36.9639974 20.3333735,36.6633445 21.0251668,36.2809609 C21.0251668,36.2809609 21.2280345,36.1496078 21.3024679,36.3466375 C21.3433334,36.45172 21.6936084,37.3945438 21.7300955,37.4967074 C21.7695014,37.6076278 21.6994464,37.6893587 21.6279319,37.7331431 C20.8383534,38.2133119 19.7466627,38.5416948 18.6170255,38.5416948 L18.4068605,38.5402353 C16.4832664,38.5402353 15.1405452,37.3784895 15.1405452,35.7132234 L15.1405452,35.6781959 C15.1405452,33.9224419 16.621917,33.3532449 18.009882,32.9562665 L18.2331824,32.8876709 C19.2446018,32.5768018 20.115911,32.309717 20.115911,31.597491 L20.115911,31.5624635 C20.115911,30.9115356 19.549633,30.4269884 18.6359988,30.4269884 C18.2813452,30.4269884 17.1502486,30.4342858 15.9286642,31.2063505 C15.7812568,31.2924598 15.6951475,31.3552174 15.5813081,31.4238129 C15.5214694,31.4617594 15.371143,31.527436 15.3054664,31.3289468 L14.8909743,30.1788769 L14.8909743,30.1788769 Z" id="Path" fill="#FFFFFF" transform="translate(18.428851, 33.709358) scale(-1, 1) rotate(-180.000000) translate(-18.428851, -33.709358) "></path>
                        <path d="M45.6582633,30.1788769 C45.5940464,30.0110367 45.6816149,29.9760092 45.702048,29.9468196 C45.8946992,29.8067096 46.0902694,29.7060055 46.287299,29.5936256 C47.3322863,29.0390233 48.3188945,28.8770211 49.3507468,28.8770211 C51.4523971,28.8770211 52.7571719,29.9949824 52.7571719,31.7945207 L52.7571719,31.8295483 C52.7571719,33.493355 51.2845573,34.0975795 49.9024301,34.5339639 L49.7229139,34.5923431 C48.6808454,34.9309423 47.7818061,35.2228382 47.7818061,35.9087936 L47.7818061,35.9452806 C47.7818061,36.5319914 48.3072189,36.9639974 49.1216085,36.9639974 C50.0264856,36.9639974 51.1006627,36.6633445 51.7924559,36.2809609 C51.7924559,36.2809609 51.9953237,36.1496078 52.0697572,36.3466375 C52.1106225,36.45172 52.4608974,37.3945438 52.4973845,37.4967074 C52.5367904,37.6076278 52.4667356,37.6893587 52.395221,37.7331431 C51.6056424,38.2133119 50.5139519,38.5416948 49.3843145,38.5416948 L49.1741495,38.5402353 C47.2505556,38.5402353 45.9078343,37.3784895 45.9078343,35.7132234 L45.9078343,35.6781959 C45.9078343,33.9224419 47.389206,33.3532449 48.777171,32.9562665 L49.0004715,32.8876709 C50.0118907,32.5768018 50.8846595,32.309717 50.8846595,31.597491 L50.8846595,31.5624635 C50.8846595,30.9115356 50.3169223,30.4269884 49.4032878,30.4269884 C49.0486345,30.4269884 47.9175377,30.4342858 46.6959534,31.2063505 C46.5485459,31.2924598 46.460977,31.3522984 46.3500569,31.4238129 C46.3121104,31.4486241 46.1340536,31.5172196 46.0727556,31.3289468 L45.6582633,30.1788769 L45.6582633,30.1788769 Z" id="Path" fill="#FFFFFF" transform="translate(49.196140, 33.709358) scale(-1, 1) rotate(-180.000000) translate(-49.196140, -33.709358) "></path>
                        <path d="M66.6622229,33.6973919 C66.6622229,32.6801346 66.4724905,31.8788804 66.0988636,31.3126023 C65.7296155,30.7521621 65.1706346,30.4792395 64.3912725,30.4792395 C63.610451,30.4792395 63.0543894,30.7507026 62.6909787,31.3126023 C62.32319,31.8774209 62.1363765,32.6801346 62.1363765,33.6973919 C62.1363765,34.7131896 62.32319,35.5129845 62.6909787,36.0734246 C63.0543894,36.6280268 63.610451,36.8980305 64.3912725,36.8980305 C65.1706346,36.8980305 65.7296155,36.6280268 66.1003231,36.0734246 C66.4724905,35.5129845 66.6622229,34.7131896 66.6622229,33.6973919 M68.4165172,35.5830394 C68.2442986,36.1653718 67.9757544,36.6791086 67.6181819,37.1067361 C67.2606093,37.5358231 66.8081706,37.8802603 66.2710822,38.1312908 C65.7354533,38.3808618 65.1020389,38.5078365 64.3912725,38.5078365 C63.6790467,38.5078365 63.0456323,38.3808618 62.5100034,38.1312908 C61.9729151,37.8802603 61.5204763,37.5358231 61.1614443,37.1067361 C60.8053312,36.6776491 60.536787,36.1639123 60.363109,35.5830394 C60.1923499,35.0036261 60.1062404,34.370212 60.1062404,33.6973919 C60.1062404,33.0245718 60.1923499,32.3896982 60.363109,31.8117443 C60.536787,31.2308714 60.8038718,30.7171346 61.1629038,30.2880476 C61.5204763,29.8589606 61.9743745,29.5159829 62.5100034,29.2722499 C63.0470918,29.0285167 63.6790467,28.904461 64.3912725,28.904461 C65.1020389,28.904461 65.7339938,29.0285167 66.2710822,29.2722499 C66.8067111,29.5159829 67.2606093,29.8589606 67.6181819,30.2880476 C67.9757544,30.7156751 68.2442986,31.229412 68.4165172,31.8117443 C68.5887357,32.3911577 68.6748452,33.0260313 68.6748452,33.6973919 C68.6748452,34.3687525 68.5887357,35.0036261 68.4165172,35.5830394" id="Shape" fill="#FFFFFF" transform="translate(64.390543, 33.706149) scale(-1, 1) rotate(-180.000000) translate(-64.390543, -33.706149) "></path>
                        <path d="M82.8226085,30.7374181 C82.7642294,30.9081772 82.5993081,30.8439601 82.5993081,30.8439601 C82.3438993,30.746175 82.0724362,30.6556873 81.7834594,30.6104434 C81.4901038,30.5651995 81.1675588,30.5418479 80.8216622,30.5418479 C79.972245,30.5418479 79.2979656,30.7943378 78.8148777,31.2934798 C78.3303307,31.7926219 78.0588672,32.599714 78.0617865,33.6914048 C78.0647054,34.6853103 78.3040598,35.4325639 78.7346064,36.0017609 C79.1622337,36.568039 79.8131619,36.8584754 80.6815519,36.8584754 C81.4054541,36.8584754 81.9571374,36.7752851 82.5350911,36.5928501 C82.5350911,36.5928501 82.6737416,36.5330114 82.7394183,36.7139869 C82.8926637,37.1401549 83.0065031,37.4451862 83.1699649,37.9136791 C83.2166681,38.0464917 83.1028287,38.1034114 83.0619633,38.1194657 C82.8342845,38.208494 82.2971962,38.3529825 81.8914606,38.4142806 C81.5119959,38.4726598 81.0683143,38.5033089 80.5750102,38.5033089 C79.8379729,38.5033089 79.1812069,38.3777936 78.6193075,38.1267631 C78.0588672,37.8771921 77.5830769,37.532755 77.2065311,37.103668 C76.8299857,36.674581 76.5439277,36.1608441 76.3527359,35.5799713 C76.1630036,35.0005579 76.0666776,34.3642248 76.0666776,33.6914048 C76.0666776,32.2363036 76.4592777,31.0599631 77.2342614,30.1988701 C78.0107046,29.3348582 79.1768286,28.8955549 80.6976063,28.8955549 C81.5966459,28.8955549 82.5190368,29.0779899 83.1816405,29.3392367 C83.1816405,29.3392367 83.3086154,29.4005348 83.2531551,29.5479423 L82.8226085,30.7374181 L82.8226085,30.7374181 Z" id="Path" fill="#FFFFFF" transform="translate(79.666927, 33.699432) scale(-1, 1) rotate(-180.000000) translate(-79.666927, -33.699432) "></path>
                        <path d="M85.8920268,34.6742351 C85.975217,35.2390538 86.1313812,35.7090062 86.3721954,36.0753355 C86.7356058,36.6313972 87.2902079,36.9364285 88.0695704,36.9364285 C88.8489325,36.9364285 89.3641287,36.6299378 89.7333769,36.0753355 C89.9785695,35.7090062 90.0851116,35.218621 90.1274364,34.6742351 L85.8920268,34.6742351 L85.8920268,34.6742351 Z M91.7985405,35.9162523 C91.6496736,36.4781519 91.2804254,37.0458895 91.0381517,37.3056768 C90.6557681,37.71725 90.2821412,38.0047675 89.9114336,38.1653103 C89.4268862,38.3725564 88.8460132,38.5097474 88.2096803,38.5097474 C87.4682647,38.5097474 86.7954444,38.3856917 86.2495993,38.1288233 C85.7022944,37.8719549 85.2425585,37.5216798 84.882067,37.0852954 C84.5215756,36.6503705 84.2501121,36.1322552 84.0778935,35.544085 C83.9042155,34.9588337 83.816647,34.3210411 83.816647,33.648221 C83.816647,32.9637251 83.9071344,32.3259326 84.0866506,31.7523571 C84.2676259,31.1744032 84.5566031,30.6650448 84.9477434,30.2432552 C85.3374246,29.8185467 85.8394854,29.4857853 86.4407911,29.2537281 C87.0377181,29.0231303 87.7630794,28.903453 88.5964422,28.9049125 C90.311331,28.9107504 91.2147486,29.293134 91.5869161,29.4989207 C91.6525925,29.5354076 91.7153504,29.5996247 91.6365381,29.7835192 L91.2483167,30.8708314 C91.1899376,31.0328337 91.0250163,30.972995 91.0250163,30.972995 C90.6003079,30.8153712 89.9960832,30.5322322 88.5876855,30.5351511 C87.6667537,30.5366106 86.9837173,30.8080738 86.55609,31.2327824 C86.1167867,31.6677073 85.9022429,32.3069593 85.8642965,33.2089177 L91.8029189,33.2030798 C91.8029189,33.2030798 91.9590831,33.2059987 91.9751374,33.3577846 C91.9809756,33.4220017 92.1794647,34.5779095 91.7985405,35.9162523 L91.7985405,35.9162523 Z" id="Shape" fill="#FFFFFF" transform="translate(87.924318, 33.707323) scale(-1, 1) rotate(-180.000000) translate(-87.924318, -33.707323) "></path>
                        <path d="M38.3322596,34.6742351 C38.4169094,35.2390538 38.5716143,35.7090062 38.8124284,36.0753355 C39.1758388,36.6313972 39.730441,36.9364285 40.5098032,36.9364285 C41.2891653,36.9364285 41.8043615,36.6299378 42.1750691,36.0753355 C42.4188022,35.7090062 42.5253444,35.218621 42.5676692,34.6742351 L38.3322596,34.6742351 L38.3322596,34.6742351 Z M44.2373139,35.9162523 C44.0884469,36.4781519 43.7206582,37.0458895 43.4783845,37.3056768 C43.0960009,37.71725 42.722374,38.0047675 42.3516664,38.1653103 C41.867119,38.3725564 41.2862464,38.5097474 40.6499131,38.5097474 C39.909957,38.5097474 39.2356775,38.3856917 38.6898321,38.1288233 C38.1425273,37.8719549 37.6827912,37.5216798 37.3222998,37.0852954 C36.9618083,36.6503705 36.6903451,36.1322552 36.5181265,35.544085 C36.3459079,34.9588337 36.2568797,34.3210411 36.2568797,33.648221 C36.2568797,32.9637251 36.3473674,32.3259326 36.5268834,31.7523571 C36.7078588,31.1744032 36.9968358,30.6650448 37.3879763,30.2432552 C37.7776574,29.8185467 38.2797183,29.4857853 38.8810239,29.2537281 C39.4779511,29.0231303 40.2033126,28.903453 41.0366754,28.9049125 C42.7515638,28.9107504 43.6549814,29.293134 44.0271488,29.4989207 C44.0928252,29.5354076 44.1555831,29.5996247 44.0767713,29.7835192 L43.690009,30.8708314 C43.6301704,31.0328337 43.465249,30.972995 43.465249,30.972995 C43.0405406,30.8153712 42.4377755,30.5322322 41.0264589,30.5351511 C40.1069869,30.5366106 39.4239503,30.8080738 38.9963228,31.2327824 C38.5570195,31.6677073 38.342476,32.3069593 38.3045295,33.2089177 L44.2431517,33.2030798 C44.2431517,33.2030798 44.3993163,33.2059987 44.4153702,33.3577846 C44.4212084,33.4220017 44.6196975,34.5779095 44.2373139,35.9162523 L44.2373139,35.9162523 Z" id="Shape" fill="#FFFFFF" transform="translate(40.364452, 33.707323) scale(-1, 1) rotate(-180.000000) translate(-40.364452, -33.707323) "></path>
                        <path d="M25.4959906,30.7749289 C25.2639333,30.9602828 25.2318248,31.0069862 25.1530129,31.1266635 C25.0362545,31.3090984 24.9764159,31.5688858 24.9764159,31.8987282 C24.9764159,32.4212219 25.1486344,32.7963081 25.5062069,33.0487981 C25.5018285,33.0473386 26.0170248,33.4939393 27.2283928,33.4778851 C28.0792694,33.4662092 28.8396582,33.340694 28.8396582,33.340694 L28.8396582,30.6406568 L28.8411177,30.6406568 C28.8411177,30.6406568 28.0865668,30.4786546 27.2371497,30.4275728 C26.0287006,30.3545988 25.4916121,30.7763884 25.4959906,30.7749289 M27.858888,34.947581 C27.6180739,34.9650947 27.3057452,34.9753111 26.9321185,34.9753111 C26.4227601,34.9753111 25.9309155,34.911094 25.46972,34.7870382 C25.0056054,34.6629825 24.5881943,34.4688717 24.2291623,34.2120033 C23.8686709,33.9536754 23.5782344,33.623833 23.3680694,33.2326925 C23.1579043,32.841552 23.0513623,32.3803564 23.0513623,31.8637007 C23.0513623,31.338288 23.1418501,30.8814709 23.3228255,30.5078441 C23.503801,30.1327579 23.7650478,29.8204293 24.0978092,29.5796151 C24.4276515,29.338801 24.8348463,29.162204 25.3077177,29.055662 C25.7732917,28.94912 26.3016233,28.8951192 26.8795772,28.8951192 C27.4881802,28.8951192 28.0953237,28.9447415 28.6834939,29.0454456 C29.2658263,29.1446902 29.9809712,29.2891787 30.1794605,29.3344226 C30.3764902,29.3811259 30.5954122,29.4409646 30.5954122,29.4409646 C30.7428196,29.4774516 30.7311438,29.6350754 30.7311438,29.6350754 L30.7282248,35.0657988 C30.7282248,36.2567341 30.4100582,37.1397193 29.7839415,37.6870241 C29.1607437,38.2328695 28.2427311,38.5087111 27.0561742,38.5087111 C26.611033,38.5087111 25.8944285,38.447413 25.4653415,38.3613036 C25.4653415,38.3613036 24.1678642,38.1102732 23.6336947,37.692862 C23.6336947,37.692862 23.5169363,37.619888 23.5811534,37.4564263 L24.0014835,36.3267892 C24.0540248,36.1808412 24.1955943,36.2304635 24.1955943,36.2304635 C24.1955943,36.2304635 24.2408381,36.2479772 24.2933794,36.2786264 C25.4361519,36.9003646 26.8810367,36.8813914 26.8810367,36.8813914 C27.5232077,36.8813914 28.0165118,36.7529572 28.3492731,36.4975483 C28.6732776,36.2494367 28.8381988,35.8743505 28.8381988,35.0833126 L28.8381988,34.8322821 C28.3273809,34.9052561 27.858888,34.947581 27.858888,34.947581" id="Shape" fill="#FFFFFF" transform="translate(26.891362, 33.701915) scale(-1, 1) rotate(-180.000000) translate(-26.891362, -33.701915) "></path>
                        <path d="M75.7563811,37.9220216 C75.8016252,38.0562937 75.706759,38.1205108 75.6673531,38.1351056 C75.5666487,38.1745116 75.061669,38.2810536 74.6719878,38.3058647 C73.9261938,38.3511086 73.5117016,38.2255934 73.140994,38.0592127 C72.7732049,37.892832 72.3645508,37.6242878 72.136872,37.3192565 L72.136872,38.0416989 C72.136872,38.142403 72.0653574,38.2226744 71.9661129,38.2226744 L70.4438758,38.2226744 C70.3446309,38.2226744 70.2731167,38.142403 70.2731167,38.0416989 L70.2731167,29.1841175 C70.2731167,29.0848729 70.3548474,29.003142 70.4540919,29.003142 L72.0142755,29.003142 C72.1135204,29.003142 72.1937917,29.0848729 72.1937917,29.1841175 L72.1937917,33.6092595 C72.1937917,34.2032677 72.2594681,34.7958164 72.3908213,35.1679837 C72.5192556,35.5357725 72.6943931,35.8305874 72.9103963,36.0422119 C73.1278585,36.252377 73.3745106,36.3997844 73.6445142,36.4829748 C73.9203561,36.5676246 74.2253873,36.5953547 74.4413901,36.5953547 C74.7522595,36.5953547 75.0937777,36.5150833 75.0937777,36.5150833 C75.2076171,36.501948 75.2718341,36.572003 75.3097805,36.675626 C75.4119439,36.9470892 75.7009212,37.7600194 75.7563811,37.9220216" id="Path" fill="#FFFFFF" transform="translate(73.020730, 33.659162) scale(-1, 1) rotate(-180.000000) translate(-73.020730, -33.659162) "></path>
                        <path d="M61.1116696,42.3699141 C60.9219373,42.4282933 60.7497187,42.4676992 60.5249588,42.510024 C60.29728,42.5508898 60.0258169,42.5713225 59.7178668,42.5713225 C58.6436897,42.5713225 57.7971914,42.2677507 57.2031833,41.6693639 C56.6120941,41.0738964 56.2107373,40.1675595 56.009329,38.9751647 L55.9363549,38.5738078 L54.5877958,38.5738078 C54.5877958,38.5738078 54.4243344,38.5796458 54.3893068,38.4015892 L54.1689252,37.1654101 C54.1528713,37.0486517 54.2039528,36.9742182 54.3615769,36.9742182 L55.6736489,36.9742182 L54.3426036,29.5425483 C54.2389804,28.9441617 54.1193032,28.4523171 53.9864905,28.0786903 C53.8565968,27.7109015 53.7296219,27.4350599 53.5719983,27.2336516 C53.4202124,27.0410004 53.2771832,26.8979714 53.0290717,26.814781 C52.8247449,26.7461855 52.588309,26.7140769 52.3299813,26.7140769 C52.1869521,26.7140769 51.9957603,26.7374286 51.8541906,26.7666182 C51.7140807,26.7943483 51.6396472,26.8249974 51.5331055,26.8702412 C51.5331055,26.8702412 51.3798601,26.9286204 51.3185617,26.7753751 C51.2703991,26.6484003 50.9201238,25.6866033 50.8777989,25.5683855 C50.8369336,25.4501676 50.8953127,25.3582204 50.9697462,25.3304903 C51.1448837,25.2691922 51.2747774,25.2283267 51.5126728,25.171407 C51.842515,25.0940546 52.1212757,25.0896762 52.3825223,25.0896762 C52.9283677,25.0896762 53.4275096,25.1670286 53.8405424,25.3158955 C54.2550347,25.4662219 54.6169856,25.7274687 54.9380711,26.0806628 C55.2839677,26.4630465 55.5014304,26.8629438 55.7086761,27.4102487 C55.9144628,27.9502561 56.0910601,28.6216167 56.23117,29.4038977 L57.5695125,36.9742182 L59.5252152,36.9742182 C59.5252152,36.9742182 59.6901365,36.9683803 59.7237046,37.1478963 L59.9455456,38.382616 C59.9601401,38.5008338 59.910518,38.5738078 59.7514345,38.5738078 L57.8526516,38.5738078 C57.8628682,38.6161327 57.9489772,39.2845744 58.1664399,39.91361 C58.2598466,40.1806949 58.4349841,40.3981572 58.5823916,40.5470242 C58.7283397,40.6929722 58.8961795,40.7965951 59.0800741,40.8564337 C59.268347,40.9177322 59.4828903,40.9469215 59.7178668,40.9469215 C59.8959232,40.9469215 60.0725201,40.9264888 60.2053327,40.8987589 C60.3892273,40.859353 60.4607418,40.8389199 60.5089045,40.8243254 C60.7030156,40.7659463 60.729286,40.822866 60.7672325,40.9162727 L61.2211307,42.162668 C61.2678338,42.2969401 61.152535,42.3538598 61.1116696,42.3699141" id="Path" fill="#FFFFFF" transform="translate(56.048209, 33.830499) scale(-1, 1) rotate(-180.000000) translate(-56.048209, -33.830499) "></path>
                        <path d="M34.5819813,25.4605254 C34.5819813,25.3612808 34.5104668,25.2810094 34.4112222,25.2810094 L32.8364438,25.2810094 C32.7371992,25.2810094 32.6671442,25.3612808 32.6671442,25.4605254 L32.6671442,38.1346459 C32.6671442,38.2338905 32.7371992,38.3141619 32.8364438,38.3141619 L34.4112222,38.3141619 C34.5104668,38.3141619 34.5819813,38.2338905 34.5819813,38.1346459 L34.5819813,25.4605254 L34.5819813,25.4605254 Z" id="Path" fill="#FFFFFF" transform="translate(33.624563, 31.797586) scale(-1, 1) rotate(-180.000000) translate(-33.624563, -31.797586) "></path>
                    </g>
                </g>
            </g>
        </g>
    </g>
</svg>