<svg xmlns="http://www.w3.org/2000/svg" xmlns:xlink="http://www.w3.org/1999/xlink" viewBox="0 0 1440 768"><defs><style>.a{fill:#411f38;}.b,.c{fill:#9eb3dd;}.b{opacity:0.08;isolation:isolate;}.d{fill:#240d2c;}.e{fill:url(#a);}.f{fill:url(#b);}.g{fill:#190521;}.h{fill:url(#c);}.i{fill:#160824;}.j{fill:#09021e;}.k{fill:#dae3d5;}.l{fill:#fcba6d;}.m{fill:#e2a863;}.n{fill:#cc9859;}.o{fill:#b5864f;}.p{fill:#b88851;}.q{fill:url(#d);}.r{fill:url(#e);}.s{fill:url(#f);}.t{fill:#f7eaa0;}.u{fill:url(#g);}.v{fill:url(#h);}.w{fill:#170824;}.x{opacity:0.4;}</style><linearGradient id="a" x1="869.56" y1="218.56" x2="962.21" y2="368.71" gradientTransform="translate(0 168)" gradientUnits="userSpaceOnUse"><stop offset="0" stop-color="#fff" stop-opacity="0.2"/><stop offset="1" stop-color="#4f4e90" stop-opacity="0"/></linearGradient><linearGradient id="b" x1="1036.35" y1="504.66" x2="1367.13" y2="504.66" gradientTransform="matrix(1, 0, 0, -1, 0, 768)" xlink:href="#a"/><linearGradient id="c" x1="1241.95" y1="241.13" x2="1257.52" y2="476.59" xlink:href="#a"/><linearGradient id="d" x1="397.3" y1="258.89" x2="390.57" y2="551.92" gradientTransform="translate(0 168)" gradientUnits="userSpaceOnUse"><stop offset="0" stop-color="#d84f7f"/><stop offset="0.33" stop-color="#d84f7f" stop-opacity="0.6"/><stop offset="1" stop-color="#ff6fa2" stop-opacity="0"/></linearGradient><linearGradient id="e" x1="347.87" y1="275.68" x2="341.87" y2="536.76" gradientTransform="translate(0 168)" gradientUnits="userSpaceOnUse"><stop offset="0" stop-color="#d84f7f"/><stop offset="0.33" stop-color="#9f8461" stop-opacity="0.6"/><stop offset="1" stop-color="#ff6fa2" stop-opacity="0"/></linearGradient><linearGradient id="f" x1="329.66" y1="341.88" x2="325.83" y2="508.27" xlink:href="#e"/><linearGradient id="g" x1="202.18" y1="211.22" x2="193.39" y2="593.33" xlink:href="#e"/><linearGradient id="h" x1="281.1" y1="213.03" x2="272.31" y2="595.15" xlink:href="#e"/></defs><title>moments-banner1-01</title><rect class="a" x="-10" y="-5.33" width="1460" height="778.67"/><polygon class="b" points="0 -0.11 1440 130.72 1440 138.42 0 46.46 0 -0.11"/><polygon class="b" points="1440 238.28 420.34 134.67 1438.79 284 1440 238.28"/><polygon class="b" points="1439.4 365.24 323.73 238.28 1438.19 386.67 1439.4 365.24"/><path class="b" d="M745,331.23l-167.52-8s27.65-9.38,55-3.51,53.11-2.39,66.46-.87C722,321.46,723.39,332.15,745,331.23Z"/><path class="b" d="M215.63,275,48.11,267s27.65-9.38,55-3.52,53.11-2.38,66.46-.87C192.61,265.2,194,275.88,215.63,275Z"/><path class="c" d="M252.47,194.81l286.35,35.43s-46.34-21.37-127.12-25.89c-34.46-1.92-40.31-29.32-78.06-35.18S252.47,194.81,252.47,194.81Z"/><polygon class="d" points="1413.02 150.41 1367.06 150.41 1151.25 319.41 1036.35 334.41 991.39 368.41 953.42 364.41 821.54 505.41 766.59 487.41 756.6 473.41 733.62 455.41 686.66 371.41 668.67 367.41 624.71 314.41 604.73 314.41 499.82 437.41 457 427 411.9 382.41 362.94 373.41 246 768 299 768 1440 768 1440 182.08 1413.02 150.41"/><polygon class="e" points="953.42 364.41 991.39 368.41 938.04 457.14 899.74 494.37 847.77 566.83 821.54 505.41 953.42 364.41"/><polygon class="f" points="1162.97 376.26 1231.57 286.56 1273.3 264.75 1310.37 216.02 1367.13 179.7 1367.06 150.41 1151.25 319.41 1036.35 334.41 1152.74 336.11 1162.97 376.26"/><polygon class="g" points="624.71 314.41 641 384 682 404 708 456 718.73 510.7 745 522 1017.65 716.48 822 505 766.59 487.41 756.6 473.41 733.62 455.41 686.66 371.41 668.67 367.41 624.71 314.41"/><polygon class="g" points="1413.02 150.41 1401.94 150.41 1389.52 168.4 1389.52 185.62 1411.41 202.83 1401.71 241.18 1405.24 268.21 1410.06 304.4 1382.16 358.45 1264.98 451.06 1166.96 435.02 1139.2 435.02 1083.97 408.52 1066.6 432.42 1043.25 432.01 991.39 368.41 991.39 368.41 991.39 368.41 953.42 364.41 957.93 411.56 979.19 404.79 986.16 421.05 1003.23 501.38 1028.31 460.7 1118.26 505.53 1078.37 453.37 1233.9 489.45 1270.43 537.12 1369.63 473.31 1440 534.82 1440 360.63 1425.21 328.21 1440 328.21 1440 182.08 1413.02 150.41"/><polygon class="g" points="870.96 611.85 847.92 665.68 922.06 648.29 1017.65 716.48 881.57 595.39 870.96 611.85"/><polygon class="h" points="1369.63 473.31 1334.04 537.12 1277.35 564.04 1233.26 629.82 1233.26 584.68 1133.52 636.12 1270.43 537.12 1369.63 473.31"/><polygon class="i" points="211.21 568.43 262.88 586.24 252.17 596.47 255.72 613.75 239.95 611.85 236.06 611.85 222.84 621.19 242.52 643.16 203.99 634.51 131.44 687.06 152.98 712.06 113.6 699.98 22.03 768 1440 768 1322.29 754.14 1196.71 707.01 1033.83 725.14 922.06 648.29 741.01 691.02 599.25 669.75 577.08 560.31 479.61 564.04 286.14 564.04 211.21 568.43"/><polygon class="i" points="246.86 172.24 238.11 230.25 278.91 252.42 291.17 288.37 542.23 296.02 569.66 262.21 559.36 234.13 587.79 229.5 593.94 184.17 518.55 136.88 321.21 134 246.86 172.24"/><polygon class="j" points="291.17 288.37 542.23 296.02 567.01 265.48 547.67 234.04 521.72 229.72 501.85 234.91 492.32 215.88 440.42 202.04 401.06 196.85 359.11 206.37 355.62 219.34 310.68 213.28 278.91 238.58 276.9 251.33 278.91 252.42 291.17 288.37"/><polygon class="j" points="593.94 184.17 518.55 136.88 512.21 136.88 578.85 184.17 572.7 229.5 544.26 234.13 554.56 262.21 527.5 295.57 542.23 296.02 569.66 262.21 559.36 234.13 587.79 229.5 593.94 184.17"/><polygon class="i" points="211.21 474.66 178.34 516.01 211.21 568.43 286.14 564.04 328.68 565.19 384.13 577.75 443.01 568.43 490.69 564.04 577.08 560.31 596.97 516.01 567.56 483.95 609.08 479.96 623.78 447.7 611.67 400.07 577.08 400.07 610.81 384.62 604.75 336.11 576.21 317.08 552.86 324 575.35 292.86 547.67 247.88 521.72 243.56 501.85 248.75 492.32 229.72 440.42 215.88 401.06 210.69 359.11 220.21 355.62 233.18 310.68 227.12 278.91 252.42 275.1 276.63 235.9 289.4 228.32 316.21 235.9 335.24 200.83 344.75 193.05 367.24 192.18 400.07 208.62 403.57 186.13 420.02 174.88 442.86 182.67 468.57 211.21 474.66"/><path class="k" d="M515.58,275.39h18.74a.25.25,0,0,0,0-.5H515.58a.25.25,0,0,0,0,.5Z"/><path class="k" d="M534.32,275.39a.25.25,0,1,0-.25-.25A.25.25,0,0,0,534.32,275.39Z"/><path class="k" d="M515.35,275.42a54,54,0,0,0,5.79,5.73c.24.2.6-.15.35-.36a54,54,0,0,1-5.79-5.73C515.49,274.82,515.14,275.17,515.35,275.42Z"/><path class="k" d="M518.62,284.81l8.88-11.4c.19-.25-.16-.6-.35-.35l-8.89,11.4C518.07,284.71,518.42,285.07,518.62,284.81Z"/><path class="k" d="M518.05,285.29h15.88a.25.25,0,0,0,0-.5H518.05a.25.25,0,0,0,0,.5Z"/><path class="k" d="M270.78,306.64a20.09,20.09,0,0,1-7.84,6.76c-2.81,1.35-8.79,3.33-10.83-.17s2.7-5,5.09-4a10.44,10.44,0,0,1,4.08,3.46c2.61,3.22,5.06,6.57,7.58,9.85.19.25.63,0,.43-.26L262.94,314c-1.39-1.81-2.79-3.84-4.84-4.95-2.47-1.35-7.26-.53-7,3.1s5.46,3.74,8.08,3.11a20.43,20.43,0,0,0,12-8.35c.19-.27-.25-.52-.43-.26Z"/><path class="k" d="M308,263.26l26.37-.5a.25.25,0,0,0,0-.5l-26.37.5a.25.25,0,0,0,0,.5Z"/><path class="k" d="M317.86,263.64l6.44,5c.25.19.5-.24.25-.43l-6.43-5C317.86,263,317.61,263.45,317.86,263.64Z"/><path class="k" d="M325.68,263l6.49,4.88c.26.2.51-.24.25-.43l-6.49-4.88C325.67,262.38,325.42,262.81,325.68,263Z"/><path class="k" d="M559,427.67a18.29,18.29,0,0,1-10.25,4.08.27.27,0,0,0-.24.28.29.29,0,0,0,.11.19l12.32,9.34c1.23.93,2.18,1.06.47,1.69a27.57,27.57,0,0,1-3.8.79L550,445.63c-.31.07-.18.55.14.48l13.28-2.78c.23,0,.21-.34.06-.45l-6.54-5-3.47-2.62c-1-.73-2.83-1.66-3.46-2.63s-.1-.5.81-.65a18.71,18.71,0,0,0,3.53-1,19.1,19.1,0,0,0,5-3c.25-.2-.1-.55-.35-.35Z"/><path class="k" d="M419.52,245.59l6-9.66c.94-1.51,1.78-3.22,2.86-4.62.83-1.08.7-1.25,1.53-.19a14.4,14.4,0,0,1,1.27,2.31,42.38,42.38,0,0,1,2.24,5.18c.83,2.32-.79,1.71-2.64,1.84a39,39,0,0,0-9.67,2c-.3.11-.17.59.13.49a38.67,38.67,0,0,1,13.11-2,.27.27,0,0,0,.25-.27.09.09,0,0,0,0,0,46.92,46.92,0,0,0-5.17-11.18.25.25,0,0,0-.34-.09.2.2,0,0,0-.09.09l-9.88,16a.25.25,0,0,0,.43.25Z"/><path class="k" d="M420.18,230.37l11.16,16.09c.19.26.62,0,.44-.25l-11.17-16.09C420.43,229.86,420,230.12,420.18,230.37Z"/><path class="k" d="M210.53,425.2l11.34,17.41c.18.27.61,0,.44-.25L211,425c-.17-.27-.6,0-.43.25Z"/><path class="k" d="M205.79,436.35l17.53-9c.29-.15,0-.58-.25-.43l-17.53,9c-.29.15,0,.58.25.44Z"/><path class="k" d="M569.35,362.28l-19.62-4.14c-.31-.07-.45.42-.13.48l19.62,4.15C569.54,362.83,569.67,362.35,569.35,362.28Z"/><path class="k" d="M565,351.44l-5.82,18.11c-.1.3.38.44.48.13l5.82-18.1c.1-.31-.38-.44-.48-.14Z"/><path class="k" d="M556.5,363.71l1.58-3.2a14.7,14.7,0,0,1,1.59-3.2c.86-.94,2.26-.5,3.37-.4l3.94.36a.25.25,0,0,0,0-.5l-4.73-.44c-.63-.05-1.82-.36-2.41,0-.84.49-1.27,2.08-1.66,2.87l-2.12,4.27c-.14.29.29.54.44.24Z"/><path class="k" d="M211.44,528.88c3.53-2.24,7-4.74,10.67-6.75,2.85-1.56,4.73.26,6.82,2l5.26,4.54c.24.21.6-.15.35-.36-2.25-1.94-4.47-3.93-6.76-5.83-1.12-.92-2.28-1.84-3.8-1.66-1.76.2-3.4,1.63-4.83,2.54l-8,5c-.27.17,0,.6.25.43Z"/><path class="k" d="M212.11,520.83l6.82,3.58c1.06.56,2.8,2,4.15,1.73s2.74-2.78,3.62-3.86l4.87-5.89c.2-.25-.15-.6-.36-.36l-3.65,4.43-1.82,2.21a12.45,12.45,0,0,1-1.82,2.21c-2.15,1.2-4.57-.81-6.44-1.8l-5.12-2.68c-.28-.15-.53.28-.25.43Z"/><path class="k" d="M207.79,373.09l9.51-12.54c.92-1.2,2.12-3.51,3.59-4a5.26,5.26,0,0,1,4,.67,11.28,11.28,0,0,1,1,1.28c1.67,2.16,3.33,4.32,5,6.47l2.36,3c.29.37,1.08,1.07,1.18,1.52.19.86.41.37-.42.74s-2.91.08-3.94.12q-2.22.09-4.44.24c-5.28.34-10.53.91-15.76,1.68-.32.05-.19.53.13.48a195.89,195.89,0,0,1,25.49-2,.26.26,0,0,0,.26-.24.27.27,0,0,0-.08-.19l-8.27-10.66c-1.39-1.79-3-4.89-5.68-4.06s-4.63,4.48-6.26,6.63l-8.07,10.64c-.19.25.24.5.43.25Z"/><path class="k" d="M219.53,380.55l18.79-30.84a.25.25,0,0,0-.43-.25L219.1,380.3C218.93,380.57,219.37,380.82,219.53,380.55Z"/><path class="l" d="M349.88,276.63s-5.59,29.08-45.85,38c0,0-4.47,29.08-7.83,35.79S275,367.21,275,367.21v21.25c0,5.59-6.71,20.13-6.71,20.13l4.47,20.13-4.47,45.85L286.14,564l42.54,1.15,55.45,12.56L443,568.43,479.6,564s10.07-45.85,11.18-53.68,10.07-26.84,10.07-26.84-3.36-4.47-3.36-16.77,3.36-45.86,3.36-45.86,2.23-11.18,0-26.84-4.47-34.66-4.47-34.66-7.83-47-8.95-55.92,1.12-13.42,1.12-13.42-8.95-15.66-32.43-17.89-30.2-6.71-30.2-6.71-21.25,4.47-34.67,6.71S349.88,276.63,349.88,276.63Z"/><path class="m" d="M500.86,394.05c-2.24-15.65-4.48-34.66-4.48-34.66s-7.82-47-8.94-55.92a38.84,38.84,0,0,1-.29-6.1L451.33,337,469,345.69l-7,38.93-44.13-12,8.19-107.06-.17-.1-2.75.57L410,373.78H405.8l-2.12-42.45h3l-5-7.4-3.65,7.4h3.17l1.8,42.41H392.83l-2.12-10.86,7.06-2.69L377.4,336l-16.49,31.9,6.68-1.94h0l2.17,12.79-16.22,2.92-2.37-47.42h3l-5-7.4-3.65,7.4h3.17l2,47.93-14,2.51-4.61-82.49a57.65,57.65,0,0,1-5.2,3.57L329,503l-60.7-28.47L279,527.83h0L286.14,564l42.54,1.15,55.45,12.56L443,568.43,479.6,564s10.07-45.85,11.18-53.68c.06-.36.13-.76.21-1.17A.33.33,0,0,1,491,509c.09-.41.19-.85.31-1.3v-.12c.25-1,.57-2,.93-3.14a221.69,221.69,0,0,1,8.54-20.9s-3.36-4.47-3.36-16.77,3.36-45.86,3.36-45.86S503.09,409.71,500.86,394.05Z"/><path class="n" d="M346.24,460.59l75.24,31.94,76-25.4v-.38c0-10.79,2.58-37.9,3.22-44.42l-44.89,18.5-37,35-33.74-15.24-40.32-30.85-28.07,11.09L296,427.64l-8.65-19.41-15.51-8.16c-1.74,4.57-3.56,8.52-3.56,8.52l38,59.85Z"/><path class="o" d="M497.51,467.13l-76,25.4-75.24-31.94-40,7.85-38-59.85,4.47,20.13-4.47,45.85L329,503l171.91-19.52h0S497.58,479.13,497.51,467.13Z"/><path class="n" d="M491.05,509c.09-.41.19-.85.31-1.3v-.12c.25-1,.57-2,.93-3.14a221.69,221.69,0,0,1,8.54-20.9L329,503l-60.7-28.47L279,527.83h0L286.14,564l42.54,1.15,55.45,12.56L443,568.43,479.6,564s10.07-45.85,11.18-53.68c.06-.36.13-.76.21-1.17A.31.31,0,0,1,491.05,509Z"/><path class="p" d="M452.81,517.26l-10.38-4.49L429,519.31,414.88,503l-23.76,27.29-36.05,10.19-76.16-12.65h0L286.14,564l42.54,1.15,55.45,12.56L443,568.43,479.6,564s10.07-45.85,11.18-53.68c.06-.36.13-.76.21-1.17A.33.33,0,0,1,491,509c.09-.41.19-.85.31-1.3v-.11c.25-1,.57-2,.93-3.15L479.2,492.53Z"/><polygon class="q" points="577.08 560.31 577.08 560.31 479.61 564.04 443.01 568.43 384.13 577.75 328.68 565.19 286.14 564.04 211.21 568.43 273.08 576.51 389.96 590.3 577.08 560.31"/><polygon class="r" points="349.88 611.85 431.15 615.58 436.4 603.09 319.28 590.3 262.88 586.24 252.17 596.47 278.91 603.37 349.88 611.85"/><polygon class="s" points="359.8 633.93 431.15 629.92 418.58 624.88 352.69 622.85 278.91 617.2 242.88 611.85 236.06 611.85 222.84 621.19 272.33 629.65 359.8 633.93"/><polygon class="j" points="559.59 292.86 537.1 324 557.15 318.06 575.35 292.86 547.67 247.88 521.72 243.56 515.58 245.16 531.91 247.88 559.59 292.86"/><polygon class="j" points="595.05 384.62 561.32 400.07 577.08 400.07 610.81 384.62 604.75 336.11 576.21 317.08 565.3 320.31 589 336.11 595.05 384.62"/><polygon class="j" points="623.78 447.7 611.67 400.07 595.91 400.07 608.02 447.7 593.32 479.96 551.8 483.95 581.21 516.01 561.32 560.31 577.08 560.31 596.97 516.01 567.56 483.95 609.08 479.96 623.78 447.7"/><path class="j" d="M551.8,526.16,511,489.52s-3.5-4.7-3.63-17.51l4.25,17.51,7.72-13.46L543,494.45l9.49-10.5L594,480s-26.31-10.49-28.46-11.58,5.37-8.57,5.37-8.57l-47.83-13.5-11.48-24.87s-3-8.05-5.43-25.07c-2-14.22-8.48-26.23-9.09-31.36.83,6.81,2.31,18.67,3.8,29.05,2.23,15.66,0,26.84,0,26.84s-3.36,33.55-3.36,45.86,3.36,16.77,3.36,16.77-8.95,19-10.07,26.84S479.61,564,479.61,564h11.08l70.63-3.73L515.58,535.1Z"/><path class="j" d="M506.77,396.36s63.54-59.7,63.54-55.58-29,42.24-29,42.24l36.37-13.57s-31.36,26.83-28.77,26.91,13,3.71,13,3.71l-55.17,8.52Z"/><path class="j" d="M497,293.76s5.76,13.68,9.16,14.95,34-3.42,33.47,0-8,20-8,20L552.86,324l-37.28,25.73-17.15,4.83Z"/><polygon class="j" points="246.86 172.24 251.37 215.01 268.25 216.45 298.28 196.85 276.9 229.5 287.45 231.78 278.91 238.58 278.91 252.42 238.11 230.25 246.86 172.24"/><polygon class="j" points="492.32 215.88 553.07 190.58 519.6 215.01 538.8 215.01 534.69 229.5 544.26 234.13 521.72 229.72 501.85 234.91 492.32 215.88"/><path class="j" d="M312.81,301.53l-2.23-2-12.69.38-16.53-8.45,10,13.45,4.07,10.32c-1.73,9.93-4.61,24.9-7,29.64-1.9,3.81-8.12,8.62-13.62,12.34l-14.61-1.94L243.31,346l11.15,12.69,10.89,10.76v16.72l-9,13.9-15,4.37H229.47l17.94,7.3,15.51,18.2-2.05,21-49.66,23.73,33.73-1.85,7.23,37.12,13.35,7.6-6.95,12.2L269.34,565l16.8-1h0l-17.89-89.47,4.47-45.85-4.47-20.13s6.75-14.5,6.75-20.09V367.21s17.89-10.06,21.24-16.77S304,314.65,304,314.65c40.26-8.94,45.85-38,45.85-38S343,291.28,312.81,301.53Z"/><polygon class="t" points="345.85 577.75 381.66 584.38 479.61 564.04 443.01 568.43 384.13 577.75 328.68 565.19 286.14 564.04 322.79 573.69 345.85 577.75"/><path class="t" d="M321.06,179.15c2.38,1,4.75,2.11,7.09,3.19,6.14,2.92,5,10.2-1,11.51-5.61,1.26-9.43-3.85-6.84-9.29l-.36-.16c-3.46,5.77.89,12.07,8,10.48,7.87-1.69,9.21-10.8,1.44-14.52q-3.61-1.68-7.31-3.3a3.55,3.55,0,0,1-2.14-2.54c-.49-2.1.84-4.12,3.34-4.66,2.12-.46,4.24.3,4.72,2.44l.33-.07c-.29-1.31-.59-2.61-.88-3.92l-1.38.29a17,17,0,0,0-3.1.32c-3.94.86-5.42,4.08-4.81,6.68A5.12,5.12,0,0,0,321.06,179.15Z"/><path class="t" d="M346.78,170.84v-.19c-1.82.23-2.79-.66-2.91-2s1.1-2.25,3.18-2.7l3.71-.77q1.44,9.7,2.87,19.42A2.13,2.13,0,0,1,351.8,187l-.42.07v.32q3.62-.56,7.25-1.05V186l-.42.06a2.13,2.13,0,0,1-2.41-1.74l-2.52-17.71c-.21-1.63.29-2.71,2.35-3.31a1,1,0,0,0-.11-.31c-3.25,1-6.86,1.57-8.83,2.09-3.17.83-4.19,2.27-4,3.8C342.89,170.63,344.74,171.71,346.78,170.84Z"/><path class="t" d="M385.6,184.09a13.26,13.26,0,0,0,7.64-2.8c1.56,5.87,7.19,8.94,14.65,6.39v-.33c-7.73,1.32-12.2-1.43-12.82-8.36-.07-1.67-.13-3.35-.2-5-.06-.94.55-1.5,1.66-1.54H397v-.33q-3.36.12-6.72.29v.33h.54c1.11,0,1.77.46,1.81,1.41l.27,5.79a11.54,11.54,0,0,1-7.39,3.25,10.76,10.76,0,0,1-11.54-9.9,1.77,1.77,0,0,1,0-.23,10.42,10.42,0,0,1,9-11.67,9.81,9.81,0,0,1,1.08-.08c4.66-.31,8,1.66,9.21,5.35h.29l-.9-4.59a15.39,15.39,0,0,0-8.68-1.73c-7.9.52-13.29,6-12.57,13C372.17,180.07,378.22,184.53,385.6,184.09Z"/><path class="t" d="M413,162.51q0,9-.08,18a2.06,2.06,0,0,1-2.08,2h-.62v.33h6.88v-.33h-.61a2.07,2.07,0,0,1-2.05-2q.06-8.19.13-16.36,9.17,9.63,17.44,19.64c2.84,3.4,6.06,6.54,11.48,5.31a1.62,1.62,0,0,0-.1-.34c-5.38.58-8.36-4.8-10.64-7.53l1-18.44A2.09,2.09,0,0,1,436,161h.65v-.33c-2.43-.15-4.85-.28-7.28-.38v.32H430a2.11,2.11,0,0,1,2.08,2.09q-.44,8.38-.86,16.77-8-9.57-16.83-18.81c-3.13-3.29-7-6.75-12.64-4.43l.15.32C407.29,155.06,410.92,160.16,413,162.51Z"/><path class="t" d="M453.55,164q-.66,6.42-1.33,12.85c-.51,5.07,2.84,8.8,8.34,9.5s9.42-2.13,10.21-7.2l1.62-10.76c.9-6,4.75-8.61,9.82-7.74a.76.76,0,0,1,.05-.33c-6-1.26-10.57,1.38-11.5,7.87q-.78,5.35-1.57,10.72a7.19,7.19,0,0,1-7.83,6.51c-.23,0-.45,0-.67-.09-4.23-.54-6.72-4-6.21-8.73l1.35-12.41a1.75,1.75,0,0,1,2-1.35l.57.06v-.32c-2.39-.28-4.77-.53-7.16-.76v.32l.58.06a1.73,1.73,0,0,1,1.73,1.75Z"/><path class="t" d="M498.39,168.77c-1.74-.18-5.47-.26-8.64-.55v.33h.43c1.53.15,2.09,1.11,1.88,2.17l-3.48,17.36a2.13,2.13,0,0,1-2.51,1.59l-.43-.08-.06.32q3.6.71,7.2,1.47l.06-.32-.42-.09a2.15,2.15,0,0,1-1.69-2.46q2-9.49,3.92-19c1.26.06,2.45.08,3.41.18,4.2.47,6.57,2.91,5.76,7.06-.58,3-2.49,5.18-5.15,5.06-1.75-.09-3.89-1.12-4-3.21h-.33c-.2,2.66,2,4,4.31,4.41,3.87.64,6.92-1.71,7.74-5.69C507.35,172.62,504.11,169.33,498.39,168.77Z"/><path class="j" d="M484.3,266.7a51.63,51.63,0,0,0-22-7c-25.54-2.43-32.83-7.3-32.83-7.3s-23.11,4.87-37.7,7.3c-10.06,1.68-26.18,9.09-35.22,13.52h0l-9.89-20.82,3.18,24.21s28-2.24,41.38-4.47,34.67-6.71,34.67-6.71,6.71,4.47,30.2,6.71S488.52,290,488.52,290s-2.24,4.47-1.12,13.42,9,55.92,9,55.92.25,2.16.67,5.61c-.12-1,.53-61.51-.69-71.24s1.22-14.59,1.22-14.59a34.5,34.5,0,0,0-6.73-7.68l13.43-14.3Z"/><polygon class="u" points="113.6 699.98 22.03 766.32 334.32 768 365.46 725.12 174.88 718.78 113.6 699.98"/><polygon class="v" points="187.3 696.84 385.99 696.84 417.46 653.51 372.09 655.26 286.17 652.96 203.99 634.51 131.44 687.06 131.44 687.06 187.3 696.84"/><path class="t" d="M339,288.27c-5.75,9.1-17.44,20.9-40.6,26.05,0,0-4.47,29.07-7.82,35.78s-21.25,16.78-21.25,16.78v21.25c0,5.59-6.71,20.13-6.71,20.13l4.47,20.13-4.47,45.85,17.89,89.46h0l5.58.16-17.85-89.29,4.47-45.85-4.47-20.13S275,394.05,275,388.46V367.21s17.89-10.06,21.24-16.77S304,314.65,304,314.65c40.26-8.94,45.85-38,45.85-38S347.43,281.87,339,288.27Z"/><path class="k" d="M527.43,510.32c.79-.89-.94-1.93-1.48-.12a13.44,13.44,0,0,0,.07,4c.07,1.61.17,3.23.31,4.84.26,3.08.65,6.15,1.13,9.21a.25.25,0,0,0,.33.16l.09,0a52.13,52.13,0,0,0,3.78-5.07c.21-.33,1.56-3.08,1.81-3.09s.58,1.5.72,1.92a31.7,31.7,0,0,0,5.32,9.81c.2.25.55-.11.35-.36a31.6,31.6,0,0,1-6-12.35.25.25,0,0,0-.31-.17.22.22,0,0,0-.14.11,52.9,52.9,0,0,1-3.23,5.36c-.41.58-1.7,2.89-2.28,2.72s-.59-3.16-.68-3.86c-.27-2.25-.47-4.5-.62-6.76-.13-2-.9-5.13.43-6.63-.21.24.14.59.35.35Z"/><path class="k" d="M527.2,509a26.2,26.2,0,0,0,10.62,1.23c.32,0,.32-.53,0-.5a25.86,25.86,0,0,1-10.48-1.21c-.31-.1-.44.38-.14.48Z"/><path class="w" d="M334.93,489.68s-11.41,7.61-12.45,9-8,32.17-8,32.17v21.79l6.07-1.38,1.54-22.14L327,515.69s3.67,18.27,3.73,23.8a54.11,54.11,0,0,0,0,8.82c.42,4.33,12.36,34.08,12.36,34.08l4.66,38.55h7l1.76-76.62-1.76-31.12L353.19,493l-10-3.81-.52-2.33,4.42-.55s-1.85-9.89-2.11-12,6.38-4.78-2-5.68c-2.67-.29-6.58-1.14-9.31.86s-2.68,7.82-1,10.74S334.8,486.78,334.93,489.68Z"/><polyline class="w" points="353.19 492.97 366.87 524.1 369.2 547.72 362.97 548.95 357.78 522.54 349.48 505.42"/><polygon class="w" points="364.1 548.44 363.29 552.17 364.98 553.34 365.49 550.89 366.79 552.56 365.04 556.51 368.61 556.07 370.04 550.44 368.61 547.54 364.1 548.44"/><polyline class="w" points="319.58 551.02 322.05 553.29 321.72 554.85 319.9 553.42 319.58 554.85 322.05 557.25 318.56 558.41 315.37 555.43 316.14 547.39"/><path class="w" d="M347.73,620.94V625h3.44c2.07,0,8.95-3.51,9.47-4.09s-6.46-1.23-6.46-1.23Z"/><polygon class="w" points="344.99 575.13 327.34 610.06 329.76 616.64 356.48 582.04 356.48 544.32 344.99 575.13"/><path class="w" d="M327.34,610.06l-3.11,1.56a69.12,69.12,0,0,1,1.56,7.27c.17,2.07.86,8,4.15,8.82,1.9,0-1.48-7.58,1.68-13.48Z"/><path class="k" d="M344.61,490.89l8.26,3.17c.3.11.43-.37.14-.48l-8.27-3.18c-.3-.11-.43.37-.13.49Z"/><path class="k" d="M353,514.91a56.55,56.55,0,0,1,.78,13.75.25.25,0,0,0,.5,0,57.15,57.15,0,0,0-.8-13.88C353.42,514.46,352.94,514.6,353,514.91Z"/><path class="w" d="M276.83,577.33s-7,12-6.42,22.9c.47,9,3.42,30.54,3,32.73s-7.18,13.36-10.17,21.34-5.76,17.7-5.76,17.7l5.19,6.78s18.94-34.09,21.93-41.47,3.24-23.88,3.24-23.88,1.55,23.28,1.75,25.07-2.39,8.58-2.79,16,.2,29.91.2,29.91a5.47,5.47,0,0,0,6.58-1.8s9-52.39,10.37-61.19,5.08-27.84-2.9-44.39c-1.39-4.59.5-23.19-1.09-26.78s-1.6-11-3.59-13.6-3.79-3.39-1.6-7.78a39.05,39.05,0,0,0,5.49.8c1.09-.1,1.09-5.89,1.89-5.79s2.09.1,2-.59-1.79-4-1.69-7.68-1.7-12.17-11.07-12c0,0-1.49-6-7.77-4.28s-4.39,9-.2,9.77a13,13,0,0,0-1.46,9c1.06,5,5.25,6.38,3.15,11.77,0,0-4.88,1.59-7.68,4.18s-4.28,5.66-3.59,14.21C274.48,556.24,277.84,571.79,276.83,577.33Z"/><path class="w" d="M257.48,672a42.59,42.59,0,0,0-3.54,5c-.59,1.35.9,5.08,1.05,7.78a43.64,43.64,0,0,0,1.65,9c.59,1.65,5.68,4.49,8.67,2.09,1.35-1.64-3.64-8.32-2.64-17.1Z"/><path class="w" d="M287,684.41s.15,5.08,0,6.43,4.48.45,6.58-.75,6.13-.45,8.22-2.84.08-4.34-4.63-3.22c-3.79.91-3.59-1.42-3.59-1.42"/><path class="w" d="M296.37,536.65s5.88,7,6.78,20c.71,10.22,5.8,21.45,7.91,25.73a21.93,21.93,0,0,1,1.51,4l5.53,20.94-5.44,2.24s-17.29-36.12-19.66-42.4-4.64-26.28-4.64-26.28"/><path class="w" d="M277.42,534.05c-6.88,4.69-7.47,10.09-9,16.51s-4.12,25.28-2.69,28.83c2.69,6.69,14.36-2.74,14.36-2.74"/><polyline class="w" points="312.66 609.53 313.24 615.4 315.38 616.66 315.38 612.94 317.14 614.02 317.14 620.81 319.53 620.81 321.04 613.89 318.1 607.29"/><path class="k" d="M294.07,536.14c4.71,4.09,6.41,10,7.09,16,0,.31.53.32.5,0-.7-6.13-2.43-12.15-7.23-16.32-.24-.21-.6.14-.36.35Z"/><path class="k" d="M303.32,564.33a49.06,49.06,0,0,0,4.06,13.5c.14.29.57,0,.43-.25a48.49,48.49,0,0,1-4-13.38C303.76,563.88,303.28,564,303.32,564.33Z"/><path class="k" d="M304.47,595.39c.91,13.53-1.93,26.82-4.83,40-.07.32.42.45.49.14C303,622.3,305.88,609,305,595.39c0-.32-.52-.33-.5,0Z"/><path class="w" d="M421.46,508.8l-.55-1.74-2.07-1.82-6.9-18.81-1.84-3.35-5-24.63a4.26,4.26,0,0,0-2.68-2.77l-5-1.68v-2.1l-2.3-.41v-2.81a.76.76,0,0,1,.76-.75h2.51a.55.55,0,0,0,.55-.55.34.34,0,0,0,0-.1l-1.59-8.94c1.06-1.27,1.7-3.12,0-4.38-2.65-2-3.21,1.08-6.16,2.36s-4.33,1.44-4.17,4l.59,9.27h0v.58l-1.73-.31-.48,2.6-5.78,1.83a17,17,0,0,0-3.47,4.3l-8.1,22.75a12.75,12.75,0,0,0-.34,7.34l5.07,20,.75-.43.7,2.26,6.26.53-1-2.47.78.06a5.1,5.1,0,0,0,.19.55l7.33,29.06L376.65,570l6.51,5.08,9.35-18.61,5.14,20.37.88-.6L404.6,575l-5.25-32.13,2.44-4.87-1.74-41.81h.34l.84-14.12,1.65,7.41,11.12,18h.08l1.45,4.67,5.79-1-1-2.47Zm-41.81-4a13.19,13.19,0,0,0,.21,1.88l-1.76-1.56L376.84,486l-1.35-1.87,2.74-6.63,1.16,18.68Z"/><path class="k" d="M396.8,434.42c1.27.76.77,2.31-.16,3.1-.25.21.11.56.35.35,1.2-1,1.6-3,.06-3.88a.25.25,0,0,0-.25.43Z"/><path class="k" d="M396.81,452.3v.93a2.94,2.94,0,0,1,0,.42c0,.08-.22,0-.38,0l-2-.15c-.32,0-.31.47,0,.5l1.39.1a2.88,2.88,0,0,0,1.17,0c.23-.09.25-.26.28-.49.05-.45,0-.93.06-1.39s-.48-.32-.5,0Z"/><g class="x"><path class="k" d="M397.18,468.22c1.13,4.24,2.7,8.63,3,13,0,.32.53.32.5,0-.29-4.46-1.87-8.86-3-13.17a.25.25,0,1,0-.48.14Z"/></g><path class="k" d="M403.07,457.84c2.1,4.67,2.95,9.55,3.83,14.55l1.14,6.48c.17,1,.14,2.84.65,3.69.2.34.65.48.84.85s.58,0,.43-.26c-1.89-3.64-2.11-8.22-2.82-12.28a54.73,54.73,0,0,0-3.64-13.28c-.13-.29-.56,0-.43.25Z"/><path class="k" d="M397.87,497.09c.73,13.35,1.78,26.73,3.17,40,0,.32.53.32.5,0-1.39-13.3-2.44-26.68-3.17-40a.25.25,0,0,0-.5,0Z"/><g class="x"><path class="k" d="M377.71,466a36,36,0,0,0,.59,5.18l.68,6.22,1.35,12.45a.26.26,0,0,0,.25.25q2.64.3,5.25.78c.31.06.45-.43.13-.48a32.06,32.06,0,0,1-3.53-.58c-1.44-.45-1.41-.42-1.81-1.89-.64-2.37-.56-5.21-.83-7.66L378.12,465a.25.25,0,0,0-.26-.23.27.27,0,0,0-.2.11c-.47.61-.37.41-.45,1.17A.25.25,0,0,0,377.71,466Z"/></g><g class="x"><path class="k" d="M385.64,490.87l-.4.4c-.23.22.13.58.35.35l.4-.4C386.22,491,385.87,490.64,385.64,490.87Z"/></g><path class="w" d="M397.28,575.42l1.05,4.09h2.38c2.08,0,9-3.51,9.47-4.09s-6.45-1.23-6.45-1.23Z"/><path class="w" d="M379.76,568.45,376.65,570a68.94,68.94,0,0,1,1.56,7.26c.17,2.08.86,8,4.15,8.82,1.9,0-1.48-7.57,1.68-13.47Z"/><circle class="k" cx="500.72" cy="600.91" r="1.82"/><circle class="k" cx="451.19" cy="599.09" r="1.29"/><circle class="k" cx="593.94" cy="262.21" r="1.29"/><circle class="k" cx="207.58" cy="322.38" r="1.29"/><circle class="k" cx="241.23" cy="594.29" r="1.29"/><circle class="k" cx="496.99" cy="210.69" r="1.82"/><circle class="k" cx="434.33" cy="372.96" r="1.82"/><circle class="k" cx="599.72" cy="288.37" r="1.82"/><circle class="k" cx="168.06" cy="425.07" r="1.82"/><path class="b" d="M1369.63,212l-167.52-8s27.65-9.38,55-3.52,53.11-2.38,66.46-.87C1346.61,202.2,1348,212.88,1369.63,212Z"/></svg>