<?xml version="1.0" encoding="UTF-8"?>
<svg width="348px" height="101px" viewBox="0 0 348 101" version="1.1" xmlns="http://www.w3.org/2000/svg" xmlns:xlink="http://www.w3.org/1999/xlink">
    <!-- Generator: Sketch 53.2 (72643) - https://sketchapp.com -->
    <title>Group 21</title>
    <desc>Created with Sketch.</desc>
    <defs>
        <linearGradient x1="50%" y1="35.6469117%" x2="37.0843855%" y2="70.3514537%" id="linearGradient-1">
            <stop stop-color="#A066F2" offset="0%"></stop>
            <stop stop-color="#FFFFFF" offset="100%"></stop>
        </linearGradient>
        <linearGradient x1="50%" y1="38.9622387%" x2="37.0843855%" y2="65.6506031%" id="linearGradient-2">
            <stop stop-color="#A066F2" offset="0%"></stop>
            <stop stop-color="#FFFFFF" offset="100%"></stop>
        </linearGradient>
        <linearGradient x1="50%" y1="37.3756107%" x2="37.3208756%" y2="59.4096523%" id="linearGradient-3">
            <stop stop-color="#A066F2" offset="0%"></stop>
            <stop stop-color="#FFFFFF" offset="100%"></stop>
        </linearGradient>
        <linearGradient x1="27.2883143%" y1="35.1370551%" x2="37.2811466%" y2="50%" id="linearGradient-4">
            <stop stop-color="#A066F2" offset="0%"></stop>
            <stop stop-color="#FFFFFF" offset="100%"></stop>
        </linearGradient>
        <linearGradient x1="50%" y1="32.8039687%" x2="31.9202878%" y2="63.8281489%" id="linearGradient-5">
            <stop stop-color="#A066F2" offset="0%"></stop>
            <stop stop-color="#FFFFFF" offset="100%"></stop>
        </linearGradient>
    </defs>
    <g id="Page-4" stroke="none" stroke-width="1" fill="none" fill-rule="evenodd">
        <g id="Subscriptions-version-2" transform="translate(-738.000000, -1313.000000)">
            <g id="Group-22" transform="translate(247.000000, 1174.000000)">
                <g id="Group-21" transform="translate(492.000000, 140.000000)">
                    <g id="Group-5" transform="translate(174.000000, 40.000000)">
                        <g id="Group" fill="url(#linearGradient-1)" stroke="#3A008C">
                            <polyline id="Path-19-Copy" points="-9.81546228e-13 15 -2.4873982e-12 0.123717544 2.98245614 3.37688225 4.38596491 6.72846471 7.71929825 3.37688225 11.754386 9.88635944 15.6140351 7.2547805 20.0787485 15.3249559 22.51986 11.816184 26.4912281 17.6056577 26.4912281 19.9482789"></polyline>
                        </g>
                        <path d="M38.3666667,11.1133333 L39.8333333,11.1133333 L39.8333333,12.4333333 L39.9133333,12.46 C40.1177788,12.5488893 40.342221,12.6222219 40.5866667,12.68 C40.8311123,12.7377781 41.0911097,12.7666667 41.3666667,12.7666667 C41.8644469,12.7666667 42.2511097,12.6666677 42.5266667,12.4666667 C42.8022236,12.2666657 42.94,11.9977795 42.94,11.66 C42.94,11.3577763 42.8266678,11.1133343 42.6,10.9266667 C42.3733322,10.7399991 42.093335,10.5755563 41.76,10.4333333 C41.426665,10.2911104 41.0622242,10.1488896 40.6666667,10.0066667 C40.2711091,9.86444373 39.9066683,9.68444553 39.5733333,9.46666667 C39.2399983,9.2488878 38.9600011,8.9755572 38.7333333,8.64666667 C38.5066655,8.31777613 38.3933333,7.89111373 38.3933333,7.36666667 C38.3933333,6.96666467 38.4711103,6.60000167 38.6266667,6.26666667 C38.782223,5.93333167 38.9999986,5.64666787 39.28,5.40666667 C39.5600014,5.16666547 39.8955536,4.98000067 40.2866667,4.84666667 C40.6777797,4.71333267 41.1133309,4.64666667 41.5933333,4.64666667 C42.1355583,4.64666667 42.6688863,4.69555507 43.1933333,4.79333333 C43.7177804,4.8911116 44.135554,5.0244436 44.4466667,5.19333333 L44.4466667,7.9 L42.98,7.9 L42.98,6.42 C42.9533332,6.42 42.9266668,6.4155556 42.9,6.40666667 C42.7044435,6.35333307 42.4933345,6.31111127 42.2666667,6.28 C42.0399989,6.24888873 41.8155567,6.23333333 41.5933333,6.23333333 C41.1666645,6.23333333 40.8311123,6.31777693 40.5866667,6.48666667 C40.342221,6.6555564 40.22,6.8822208 40.22,7.16666667 C40.22,7.46000147 40.3333322,7.69999907 40.56,7.88666667 C40.7866678,8.07333427 41.066665,8.24222147 41.4,8.39333333 C41.733335,8.5444452 42.0977758,8.6955548 42.4933333,8.84666667 C42.8888909,8.99777853 43.2533317,9.18222113 43.5866667,9.4 C43.9200017,9.61777887 44.1999989,9.89110947 44.4266667,10.22 C44.6533345,10.5488905 44.7666667,10.9622197 44.7666667,11.46 C44.7666667,11.9400024 44.6777787,12.3599982 44.5,12.72 C44.3222213,13.0800018 44.0733349,13.382221 43.7533333,13.6266667 C43.4333317,13.8711123 43.0555577,14.0533327 42.62,14.1733333 C42.1844423,14.2933339 41.7133359,14.3533333 41.2066667,14.3533333 C40.8688872,14.3533333 40.555557,14.3266669 40.2666667,14.2733333 C39.9777763,14.2199997 39.7111123,14.1533337 39.4666667,14.0733333 C39.222221,13.9933329 39.0066676,13.9088893 38.82,13.82 C38.6333324,13.7311107 38.4822228,13.6555559 38.3666667,13.5933333 L38.3666667,11.1133333 Z M47.0466667,8.96666667 L45.7266667,8.96666667 L45.7266667,7.5 L47.0466667,7.5 L47.0466667,5.98 L48.78,5.48666667 L48.78,7.5 L52.2733333,7.5 L52.2733333,8.96666667 L48.78,8.96666667 L48.78,10.8733333 C48.78,11.5577812 48.9088876,12.0533318 49.1666667,12.36 C49.4244457,12.6666682 49.7844421,12.82 50.2466667,12.82 C50.4866679,12.82 50.7044435,12.7911114 50.9,12.7333333 C51.0955565,12.6755553 51.2711103,12.6022227 51.4266667,12.5133333 C51.582223,12.424444 51.7244438,12.3266672 51.8533333,12.22 C51.9822229,12.1133328 52.0999995,12.015556 52.2066667,11.9266667 L53.0066667,13.1266667 C52.8555548,13.3044453 52.6666678,13.4666659 52.44,13.6133333 C52.2133322,13.7600007 51.9688902,13.8888883 51.7066667,14 C51.4444431,14.1111117 51.1711125,14.1977775 50.8866667,14.26 C50.6022208,14.3222225 50.3222236,14.3533333 50.0466667,14.3533333 C49.0511061,14.3533333 48.3022247,14.0755583 47.8,13.52 C47.2977753,12.9644417 47.0466667,12.0822283 47.0466667,10.8733333 L47.0466667,8.96666667 Z M54.7,7.95333333 C55.0555573,7.79333253 55.4666643,7.65555613 55.9333333,7.54 C56.4000023,7.42444387 56.9533301,7.36666667 57.5933333,7.36666667 C58.0555579,7.36666667 58.4488873,7.42222167 58.7733333,7.53333333 C59.0977794,7.644445 59.359999,7.8022212 59.56,8.00666667 C59.760001,8.21111213 59.904444,8.45555413 59.9933333,8.74 C60.0822227,9.02444587 60.1266667,9.34444267 60.1266667,9.7 C60.1266667,10.1533356 60.1111113,10.5399984 60.08,10.86 C60.0488887,11.1800016 60.0333333,11.4644432 60.0333333,11.7133333 C60.0333333,11.9000009 60.0422221,12.1088877 60.06,12.34 C60.0777779,12.4644451 60.0911111,12.5844439 60.1,12.7 L60.9666667,12.7 L60.9666667,14.1666667 L58.7533333,14.1666667 L58.58,13.26 L58.5133333,13.26 C58.3355547,13.5355569 58.0822239,13.7733323 57.7533333,13.9733333 C57.4244428,14.1733343 56.9800028,14.2733333 56.42,14.2733333 C55.75333,14.2733333 55.2244464,14.0955573 54.8333333,13.74 C54.4422203,13.3844427 54.2466667,12.9133363 54.2466667,12.3266667 C54.2466667,11.9533315 54.3155549,11.6311125 54.4533333,11.36 C54.5911118,11.0888875 54.7911098,10.8666675 55.0533333,10.6933333 C55.3155569,10.5199991 55.6311093,10.3911115 56,10.3066667 C56.3688907,10.2222218 56.7799977,10.18 57.2333333,10.18 C57.3933341,10.18 57.5622213,10.1888888 57.74,10.2066667 C57.9177787,10.2244445 58.1355543,10.2422221 58.3933333,10.26 C58.4111112,10.1711107 58.42,10.0822227 58.42,9.99333333 L58.42,9.74 C58.42,9.40222053 58.3222232,9.16000073 58.1266667,9.01333333 C57.9311101,8.86666593 57.6422241,8.79333333 57.26,8.79333333 C56.8066644,8.79333333 56.3977796,8.85111053 56.0333333,8.96666667 C55.6688871,9.0822228 55.3622235,9.1977772 55.1133333,9.31333333 L54.7,7.95333333 Z M56.98,12.8466667 C57.4066688,12.8466667 57.7266656,12.7688897 57.94,12.6133333 C58.1533344,12.457777 58.3088884,12.291112 58.4066667,12.1133333 L58.4066667,11.3133333 C58.3177773,11.2955555 58.1844453,11.2755557 58.0066667,11.2533333 C57.828888,11.231111 57.6377788,11.22 57.4333333,11.22 C57.2644436,11.22 57.0955564,11.2355554 56.9266667,11.2666667 C56.7577769,11.2977779 56.6066673,11.3466663 56.4733333,11.4133333 C56.3399993,11.4800003 56.2333337,11.5666661 56.1533333,11.6733333 C56.0733329,11.7800005 56.0333333,11.9088881 56.0333333,12.06 C56.0333333,12.3088901 56.1066659,12.5022215 56.2533333,12.64 C56.4000007,12.7777785 56.6422205,12.8466667 56.98,12.8466667 Z M62.2866667,12.7 L64.6333333,12.7 L64.6333333,8.96666667 L62.2866667,8.96666667 L62.2866667,7.5 L66.3666667,7.5 L66.3666667,12.7 L68.8333333,12.7 L68.8333333,14.1666667 L62.2866667,14.1666667 L62.2866667,12.7 Z M64.3133333,5.68666667 C64.3133333,5.41110973 64.4155545,5.17555653 64.62,4.98 C64.8244455,4.78444347 65.1088871,4.68666667 65.4733333,4.68666667 C65.8466685,4.68666667 66.1444433,4.78444347 66.3666667,4.98 C66.58889,5.17555653 66.7,5.41110973 66.7,5.68666667 C66.7,5.97111253 66.58889,6.20444353 66.3666667,6.38666667 C66.1444433,6.5688898 65.8466685,6.66 65.4733333,6.66 C65.1088871,6.66 64.8244455,6.5688898 64.62,6.38666667 C64.4155545,6.20444353 64.3133333,5.97111253 64.3133333,5.68666667 Z M70.02,12.7 L71.6733333,12.7 L71.6733333,8.96666667 L70.02,8.96666667 L70.02,7.5 L73.02,7.5 L73.22,8.38 L73.2733333,8.38 C73.5222235,8.0866652 73.8066651,7.8422232 74.1266667,7.64666667 C74.4466683,7.45111013 74.8199979,7.35333333 75.2466667,7.35333333 C75.7800027,7.35333333 76.1999985,7.54888693 76.5066667,7.94 C76.8133349,8.33111307 76.9666667,8.98443987 76.9666667,9.9 L75.4066667,9.9 C75.4066667,9.5799984 75.3600005,9.3466674 75.2666667,9.2 C75.1733329,9.0533326 75.0244455,8.98 74.82,8.98 C74.4644427,8.98 74.1777789,9.068888 73.96,9.24666667 C73.7422211,9.42444533 73.5577785,9.62888773 73.4066667,9.86 L73.4066667,12.7 L76.3,12.7 L76.3,14.1666667 L70.02,14.1666667 L70.02,12.7 Z M82.86,12.3266667 C82.86,12.148888 82.7511122,12.0066672 82.5333333,11.9 C82.3155545,11.7933328 82.0466683,11.695556 81.7266667,11.6066667 C81.4066651,11.5177773 81.0555575,11.4266671 80.6733333,11.3333333 C80.2911092,11.2399995 79.9400016,11.1111119 79.62,10.9466667 C79.2999984,10.7822214 79.0311122,10.5733346 78.8133333,10.32 C78.5955545,10.0666654 78.4866667,9.740002 78.4866667,9.34 C78.4866667,9.01110947 78.5599993,8.72222347 78.7066667,8.47333333 C78.8533341,8.2244432 79.0533321,8.0133342 79.3066667,7.84 C79.5600013,7.6666658 79.8622205,7.535556 80.2133333,7.44666667 C80.5644462,7.35777733 80.9444424,7.31333333 81.3533333,7.31333333 C81.7888911,7.31333333 82.1711095,7.34444413 82.5,7.40666667 C82.8288905,7.4688892 83.1155543,7.544444 83.36,7.63333333 C83.6044457,7.72222267 83.8133325,7.82222167 83.9866667,7.93333333 C84.1600009,8.044445 84.3088883,8.144444 84.4333333,8.23333333 L83.7,9.42 C83.566666,9.3399996 83.4133342,9.2577782 83.24,9.17333333 C83.0666658,9.08888847 82.8844454,9.01111147 82.6933333,8.94 C82.5022213,8.86888853 82.3022233,8.81111133 82.0933333,8.76666667 C81.8844434,8.722222 81.6777788,8.7 81.4733333,8.7 C81.0999981,8.7 80.7977789,8.7488884 80.5666667,8.84666667 C80.3355544,8.94444493 80.22,9.09555453 80.22,9.3 C80.22,9.4600008 80.3288878,9.5888884 80.5466667,9.68666667 C80.7644455,9.78444493 81.0333317,9.87555513 81.3533333,9.96 C81.6733349,10.0444449 82.0244425,10.1355551 82.4066667,10.2333333 C82.7888908,10.3311116 83.1399984,10.457777 83.46,10.6133333 C83.7800016,10.7688897 84.0488878,10.9711099 84.2666667,11.22 C84.4844455,11.4688901 84.5933333,11.7888869 84.5933333,12.18 C84.5933333,12.8555589 84.3466691,13.3866647 83.8533333,13.7733333 C83.3599975,14.1600019 82.6288937,14.3533333 81.66,14.3533333 C80.8955517,14.3533333 80.2355583,14.2400011 79.68,14.0133333 C79.1244417,13.7866655 78.6777795,13.5222237 78.34,13.22 L79.14,11.9666667 C79.2555561,12.0644449 79.4088879,12.1733327 79.6,12.2933333 C79.7911121,12.4133339 80.0066655,12.5222217 80.2466667,12.62 C80.4866679,12.7177783 80.7422209,12.7999997 81.0133333,12.8666667 C81.2844458,12.9333337 81.553332,12.9666667 81.82,12.9666667 C82.1044459,12.9666667 82.3488879,12.9177783 82.5533333,12.82 C82.7577788,12.7222217 82.86,12.5577789 82.86,12.3266667 Z M87.0466667,8.96666667 L85.7266667,8.96666667 L85.7266667,7.5 L87.0466667,7.5 L87.0466667,5.98 L88.78,5.48666667 L88.78,7.5 L92.2733333,7.5 L92.2733333,8.96666667 L88.78,8.96666667 L88.78,10.8733333 C88.78,11.5577812 88.9088876,12.0533318 89.1666667,12.36 C89.4244457,12.6666682 89.7844421,12.82 90.2466667,12.82 C90.4866679,12.82 90.7044435,12.7911114 90.9,12.7333333 C91.0955565,12.6755553 91.2711103,12.6022227 91.4266667,12.5133333 C91.582223,12.424444 91.7244438,12.3266672 91.8533333,12.22 C91.9822229,12.1133328 92.0999995,12.015556 92.2066667,11.9266667 L93.0066667,13.1266667 C92.8555548,13.3044453 92.6666678,13.4666659 92.44,13.6133333 C92.2133322,13.7600007 91.9688902,13.8888883 91.7066667,14 C91.4444431,14.1111117 91.1711125,14.1977775 90.8866667,14.26 C90.6022208,14.3222225 90.3222236,14.3533333 90.0466667,14.3533333 C89.0511061,14.3533333 88.3022247,14.0755583 87.8,13.52 C87.2977753,12.9644417 87.0466667,12.0822283 87.0466667,10.8733333 L87.0466667,8.96666667 Z M100.62,13.46 C100.504444,13.5666672 100.355556,13.6711106 100.173333,13.7733333 C99.9911102,13.8755561 99.777779,13.9711107 99.5333333,14.06 C99.2888877,14.1488893 99.0200015,14.2199997 98.7266667,14.2733333 C98.4333319,14.3266669 98.1222239,14.3533333 97.7933333,14.3533333 C97.2244416,14.3533333 96.7155578,14.2733341 96.2666667,14.1133333 C95.8177755,13.9533325 95.4377793,13.7200015 95.1266667,13.4133333 C94.815554,13.1066651 94.5777786,12.7377799 94.4133333,12.3066667 C94.2488881,11.8755534 94.1666667,11.3844472 94.1666667,10.8333333 C94.1666667,10.2466637 94.2599991,9.73333553 94.4466667,9.29333333 C94.6333343,8.85333113 94.8888873,8.48666813 95.2133333,8.19333333 C95.5377794,7.89999853 95.9177756,7.68000073 96.3533333,7.53333333 C96.7888911,7.38666593 97.2599975,7.31333333 97.7666667,7.31333333 C98.1044461,7.31333333 98.4533315,7.35777733 98.8133333,7.44666667 C99.1733351,7.535556 99.5044429,7.6888878 99.8066667,7.90666667 C100.10889,8.12444553 100.355555,8.41555373 100.546667,8.78 C100.737779,9.14444627 100.833333,9.60666387 100.833333,10.1666667 C100.833333,10.5488908 100.788889,10.96222 100.7,11.4066667 L95.9,11.4066667 C95.9088889,11.6911125 95.9688883,11.9311101 96.08,12.1266667 C96.1911117,12.3222232 96.3377769,12.4822216 96.52,12.6066667 C96.7022231,12.7311117 96.9111099,12.8222219 97.1466667,12.88 C97.3822234,12.9377781 97.633332,12.9666667 97.9,12.9666667 C98.433336,12.9666667 98.8711094,12.9044451 99.2133333,12.78 C99.5555573,12.6555549 99.8333323,12.5044453 100.046667,12.3266667 L100.62,13.46 Z M97.74,8.7 C97.5088877,8.7 97.2911121,8.7311108 97.0866667,8.79333333 C96.8822212,8.85555587 96.6977786,8.94666607 96.5333333,9.06666667 C96.3688881,9.18666727 96.2333339,9.33555467 96.1266667,9.51333333 C96.0199995,9.691112 95.9577779,9.89111 95.94,10.1133333 L99.22,10.1133333 C99.22,9.6777756 99.097779,9.3333346 98.8533333,9.08 C98.6088877,8.8266654 98.2377803,8.7 97.74,8.7 Z M101.5,7.5 L103.766667,7.5 L103.966667,8.3 L104.02,8.3 C104.482225,7.64221893 105.228884,7.31333333 106.26,7.31333333 C106.668891,7.31333333 107.044443,7.37777713 107.386667,7.50666667 C107.728891,7.6355562 108.022221,7.8377764 108.266667,8.11333333 C108.511112,8.38889027 108.699999,8.73555347 108.833333,9.15333333 C108.966667,9.5711132 109.033333,10.0733304 109.033333,10.66 C109.033333,11.2288917 108.957779,11.7422199 108.806667,12.2 C108.655555,12.6577801 108.437779,13.0466651 108.153333,13.3666667 C107.868887,13.6866683 107.522224,13.9311103 107.113333,14.1 C106.704442,14.2688897 106.23778,14.3533333 105.713333,14.3533333 C105.437776,14.3533333 105.166668,14.3333335 104.9,14.2933333 C104.633332,14.2533331 104.411112,14.1888893 104.233333,14.1 L104.233333,16.8333333 L102.5,16.8333333 L102.5,8.96666667 L101.5,8.96666667 L101.5,7.5 Z M105.74,8.78 C105.402221,8.78 105.093335,8.8644436 104.813333,9.03333333 C104.533332,9.20222307 104.340001,9.45555387 104.233333,9.79333333 L104.233333,12.5666667 C104.357778,12.6644449 104.537777,12.7422219 104.773333,12.8 C105.00889,12.8577781 105.246665,12.8866667 105.486667,12.8866667 C105.735557,12.8866667 105.966666,12.8444449 106.18,12.76 C106.393334,12.6755551 106.579999,12.5400009 106.74,12.3533333 C106.900001,12.1666657 107.024444,11.9311125 107.113333,11.6466667 C107.202223,11.3622208 107.246667,11.020002 107.246667,10.62 C107.246667,10.0333304 107.104446,9.5800016 106.82,9.26 C106.535554,8.9399984 106.175558,8.78 105.74,8.78 Z M118.473333,4.92666667 C118.846669,4.8555552 119.257776,4.8000002 119.706667,4.76 C120.155558,4.7199998 120.60222,4.7 121.046667,4.7 C121.508891,4.7 121.973331,4.7377774 122.44,4.81333333 C122.906669,4.88888927 123.326665,5.03999887 123.7,5.26666667 C124.073335,5.49333447 124.377777,5.80888687 124.613333,6.21333333 C124.84889,6.6177798 124.966667,7.1444412 124.966667,7.79333333 C124.966667,8.36222507 124.864445,8.84888687 124.66,9.25333333 C124.455555,9.6577798 124.184446,9.9911098 123.846667,10.2533333 C123.508887,10.5155569 123.124447,10.7066661 122.693333,10.8266667 C122.26222,10.9466673 121.815558,11.0066667 121.353333,11.0066667 L121.14,11.0066667 C121.042222,11.0066667 120.940001,11.0044445 120.833333,11 C120.726666,10.9955555 120.622223,10.9888889 120.52,10.98 C120.417777,10.9711111 120.344445,10.9622223 120.3,10.9533333 L120.3,14.1666667 L118.473333,14.1666667 L118.473333,4.92666667 Z M121.193333,6.27333333 C121.015555,6.27333333 120.846667,6.27999993 120.686667,6.29333333 C120.526666,6.30666673 120.397778,6.32222213 120.3,6.34 L120.3,9.36666667 C120.335556,9.3755556 120.388889,9.3844444 120.46,9.39333333 C120.531111,9.40222227 120.606666,9.40888887 120.686667,9.41333333 C120.766667,9.4177778 120.844444,9.42 120.92,9.42 L121.086667,9.42 C121.326668,9.42 121.564443,9.397778 121.8,9.35333333 C122.035557,9.30888867 122.246666,9.22666727 122.433333,9.10666667 C122.620001,8.98666607 122.768888,8.82000107 122.88,8.60666667 C122.991112,8.39333227 123.046667,8.11333507 123.046667,7.76666667 C123.046667,7.47333187 122.993334,7.23111207 122.886667,7.04 C122.779999,6.84888793 122.640001,6.69555613 122.466667,6.58 C122.293332,6.46444387 122.095557,6.38444467 121.873333,6.34 C121.65111,6.29555533 121.424446,6.27333333 121.193333,6.27333333 Z M126.02,12.7 L127.673333,12.7 L127.673333,8.96666667 L126.02,8.96666667 L126.02,7.5 L129.02,7.5 L129.22,8.38 L129.273333,8.38 C129.522223,8.0866652 129.806665,7.8422232 130.126667,7.64666667 C130.446668,7.45111013 130.819998,7.35333333 131.246667,7.35333333 C131.780003,7.35333333 132.199998,7.54888693 132.506667,7.94 C132.813335,8.33111307 132.966667,8.98443987 132.966667,9.9 L131.406667,9.9 C131.406667,9.5799984 131.36,9.3466674 131.266667,9.2 C131.173333,9.0533326 131.024445,8.98 130.82,8.98 C130.464443,8.98 130.177779,9.068888 129.96,9.24666667 C129.742221,9.42444533 129.557779,9.62888773 129.406667,9.86 L129.406667,12.7 L132.3,12.7 L132.3,14.1666667 L126.02,14.1666667 L126.02,12.7 Z M134.286667,12.7 L136.633333,12.7 L136.633333,8.96666667 L134.286667,8.96666667 L134.286667,7.5 L138.366667,7.5 L138.366667,12.7 L140.833333,12.7 L140.833333,14.1666667 L134.286667,14.1666667 L134.286667,12.7 Z M136.313333,5.68666667 C136.313333,5.41110973 136.415555,5.17555653 136.62,4.98 C136.824445,4.78444347 137.108887,4.68666667 137.473333,4.68666667 C137.846669,4.68666667 138.144443,4.78444347 138.366667,4.98 C138.58889,5.17555653 138.7,5.41110973 138.7,5.68666667 C138.7,5.97111253 138.58889,6.20444353 138.366667,6.38666667 C138.144443,6.5688898 137.846669,6.66 137.473333,6.66 C137.108887,6.66 136.824445,6.5688898 136.62,6.38666667 C136.415555,6.20444353 136.313333,5.97111253 136.313333,5.68666667 Z M148.78,13.5266667 C148.415554,13.8022236 147.988891,14.0088882 147.5,14.1466667 C147.011109,14.2844451 146.500003,14.3533333 145.966667,14.3533333 C145.388886,14.3533333 144.875558,14.2688897 144.426667,14.1 C143.977776,13.9311103 143.600002,13.6933349 143.293333,13.3866667 C142.986665,13.0799985 142.753334,12.7088911 142.593333,12.2733333 C142.433333,11.8377756 142.353333,11.3577804 142.353333,10.8333333 C142.353333,10.2733305 142.446666,9.77555773 142.633333,9.34 C142.820001,8.90444227 143.079998,8.53555707 143.413333,8.23333333 C143.746668,7.9311096 144.139998,7.702223 144.593333,7.54666667 C145.046669,7.39111033 145.539997,7.31333333 146.073333,7.31333333 C146.571114,7.31333333 147.037776,7.37111053 147.473333,7.48666667 C147.908891,7.6022228 148.242221,7.7133328 148.473333,7.82 L148.473333,10.1666667 L147.006667,10.1666667 L147.006667,8.94 C146.73111,8.87777747 146.455557,8.84666667 146.18,8.84666667 C145.93111,8.84666667 145.684446,8.88444407 145.44,8.96 C145.195554,9.03555593 144.977779,9.15555473 144.786667,9.32 C144.595555,9.48444527 144.440001,9.69110987 144.32,9.94 C144.199999,10.1888901 144.14,10.4866649 144.14,10.8333333 C144.14,11.1177792 144.188888,11.3799988 144.286667,11.62 C144.384445,11.8600012 144.522221,12.068888 144.7,12.2466667 C144.877779,12.4244453 145.097776,12.5644439 145.36,12.6666667 C145.622224,12.7688894 145.913332,12.82 146.233333,12.82 C146.740003,12.82 147.155554,12.7488896 147.48,12.6066667 C147.804446,12.4644437 148.046666,12.3400005 148.206667,12.2333333 L148.78,13.5266667 Z M150.286667,12.7 L152.633333,12.7 L152.633333,8.96666667 L150.286667,8.96666667 L150.286667,7.5 L154.366667,7.5 L154.366667,12.7 L156.833333,12.7 L156.833333,14.1666667 L150.286667,14.1666667 L150.286667,12.7 Z M152.313333,5.68666667 C152.313333,5.41110973 152.415555,5.17555653 152.62,4.98 C152.824445,4.78444347 153.108887,4.68666667 153.473333,4.68666667 C153.846669,4.68666667 154.144443,4.78444347 154.366667,4.98 C154.58889,5.17555653 154.7,5.41110973 154.7,5.68666667 C154.7,5.97111253 154.58889,6.20444353 154.366667,6.38666667 C154.144443,6.5688898 153.846669,6.66 153.473333,6.66 C153.108887,6.66 152.824445,6.5688898 152.62,6.38666667 C152.415555,6.20444353 152.313333,5.97111253 152.313333,5.68666667 Z M157.66,7.5 L159.993333,7.5 L160.193333,8.38 L160.246667,8.38 C160.451112,8.09555413 160.744443,7.84666773 161.126667,7.63333333 C161.508891,7.41999893 161.966664,7.31333333 162.5,7.31333333 C162.828891,7.31333333 163.137776,7.35777733 163.426667,7.44666667 C163.715557,7.535556 163.962221,7.6822212 164.166667,7.88666667 C164.371112,8.09111213 164.533333,8.36888713 164.653333,8.72 C164.773334,9.07111287 164.833333,9.50444187 164.833333,10.02 L164.833333,14.1666667 L163.1,14.1666667 L163.1,10.38 C163.1,9.83777507 162.977779,9.44666787 162.733333,9.20666667 C162.488888,8.96666547 162.180002,8.84666667 161.806667,8.84666667 C161.477776,8.84666667 161.177779,8.94222127 160.906667,9.13333333 C160.635554,9.3244454 160.451112,9.5622208 160.353333,9.84666667 L160.353333,14.1666667 L158.62,14.1666667 L158.62,8.96666667 L157.66,8.96666667 L157.66,7.5 Z M172.566667,14.1666667 C172.566667,14.6466691 172.484445,15.0644427 172.32,15.42 C172.155555,15.7755573 171.92889,16.0711099 171.64,16.3066667 C171.35111,16.5422234 171.008891,16.715555 170.613333,16.8266667 C170.217776,16.9377783 169.784447,16.9933333 169.313333,16.9933333 C168.993332,16.9933333 168.693335,16.9688891 168.413333,16.92 C168.133332,16.8711109 167.875557,16.8066671 167.64,16.7266667 C167.404443,16.6466663 167.197779,16.5600005 167.02,16.4666667 C166.842221,16.3733329 166.700001,16.2822227 166.593333,16.1933333 L167.26,14.9666667 C167.473334,15.1088896 167.728887,15.2444438 168.026667,15.3733333 C168.324446,15.5022229 168.699998,15.5666667 169.153333,15.5666667 C169.713336,15.5666667 170.139999,15.4377791 170.433333,15.18 C170.726668,14.9222209 170.873333,14.5533357 170.873333,14.0733333 L170.873333,13.6466667 L170.82,13.6466667 C170.659999,13.8600011 170.424446,14.0177773 170.113333,14.12 C169.802221,14.2222227 169.442224,14.2733333 169.033333,14.2733333 C168.606665,14.2733333 168.213335,14.2066673 167.853333,14.0733333 C167.493332,13.9399993 167.180001,13.7377791 166.913333,13.4666667 C166.646665,13.1955542 166.440001,12.8511132 166.293333,12.4333333 C166.146666,12.0155535 166.073333,11.5266695 166.073333,10.9666667 C166.073333,10.3799971 166.159999,9.86000227 166.333333,9.40666667 C166.506668,8.95333107 166.75111,8.57333487 167.066667,8.26666667 C167.382224,7.95999847 167.759998,7.72888967 168.2,7.57333333 C168.640002,7.417777 169.131108,7.34 169.673333,7.34 C169.957779,7.34 170.242221,7.351111 170.526667,7.37333333 C170.811113,7.39555567 171.079999,7.42444427 171.333333,7.46 C171.586668,7.49555573 171.819999,7.53777753 172.033333,7.58666667 C172.246668,7.6355558 172.424444,7.6866664 172.566667,7.74 L172.566667,14.1666667 Z M169.366667,12.8866667 C169.704446,12.8866667 170.008888,12.8111119 170.28,12.66 C170.551112,12.5088881 170.735555,12.2822237 170.833333,11.98 L170.833333,8.98 C170.708888,8.9266664 170.533334,8.8844446 170.306667,8.85333333 C170.079999,8.82222207 169.864445,8.80666667 169.66,8.80666667 C169.41111,8.80666667 169.177779,8.84666627 168.96,8.92666667 C168.742221,9.00666707 168.551112,9.13333247 168.386667,9.30666667 C168.222221,9.48000087 168.093334,9.69777647 168,9.96 C167.906666,10.2222235 167.86,10.5355537 167.86,10.9 C167.86,11.2200016 167.9,11.5044432 167.98,11.7533333 C168.06,12.0022235 168.17111,12.2111103 168.313333,12.38 C168.455556,12.5488897 168.615555,12.6755551 168.793333,12.76 C168.971112,12.8444449 169.162221,12.8866667 169.366667,12.8866667 Z" id="StairstepPricing" fill="#00000A" fill-rule="nonzero"></path>
                    </g>
                    <g id="Group-4-Copy-2" transform="translate(0.000000, 40.000000)">
                        <polyline id="Path-18" stroke="#3A008C" fill="url(#linearGradient-2)" points="-1.77635684e-13 14.5390545 0.162306819 -1.0658141e-14 26.6666667 17.5"></polyline>
                        <path d="M44.8066667,16.14 C44.5755544,16.3088897 44.3288902,16.4244441 44.0666667,16.4866667 C43.8044431,16.5488892 43.5488901,16.58 43.3,16.58 C42.8733312,16.58 42.5022238,16.513334 42.1866667,16.38 C41.8711095,16.246666 41.6022233,16.0644456 41.38,15.8333333 C41.1311099,15.5666653 40.9444451,15.2377797 40.82,14.8466667 C40.7577775,14.6599991 40.7133335,14.4688899 40.6866667,14.2733333 C40.3844429,14.2111108 40.1088901,14.1177784 39.86,13.9933333 C39.4155533,13.7533321 39.0533347,13.4200021 38.7733333,12.9933333 C38.4933319,12.5666645 38.2911117,12.0555585 38.1666667,11.46 C38.0422216,10.8644415 37.98,10.2111147 37.98,9.5 C37.98,8.74444067 38.0511104,8.06444747 38.1933333,7.46 C38.3355563,6.85555253 38.5533319,6.34666873 38.8466667,5.93333333 C39.1400015,5.51999793 39.5066645,5.20222333 39.9466667,4.98 C40.3866689,4.75777667 40.9044415,4.64666667 41.5,4.64666667 C42.1400032,4.64666667 42.68222,4.76666547 43.1266667,5.00666667 C43.5711133,5.24666787 43.9333319,5.57999787 44.2133333,6.00666667 C44.4933347,6.43333547 44.6977771,6.94444147 44.8266667,7.54 C44.9555562,8.13555853 45.02,8.78888533 45.02,9.5 C45.02,11.0200076 44.7266696,12.2111068 44.14,13.0733333 C43.7133312,13.7044476 43.122226,14.0999992 42.3666667,14.26 C42.4022224,14.4466676 42.4822216,14.6111104 42.6066667,14.7533333 C42.7044449,14.8777784 42.8333325,14.9688886 42.9933333,15.0266667 C43.1533341,15.0844447 43.3355545,15.1133333 43.54,15.1133333 C43.7266676,15.1133333 43.897777,15.0866669 44.0533333,15.0333333 C44.2088897,14.9799997 44.3355551,14.9177781 44.4333333,14.8466667 L44.8066667,16.14 Z M39.9,9.5 C39.9,9.9533356 39.9199998,10.3755536 39.96,10.7666667 C40.0000002,11.1577797 40.075555,11.4977763 40.1866667,11.7866667 C40.2977783,12.075557 40.4577767,12.3044436 40.6666667,12.4733333 C40.8755566,12.6422231 41.1533316,12.7266667 41.5,12.7266667 C41.8111127,12.7266667 42.0688879,12.6622229 42.2733333,12.5333333 C42.4777788,12.4044438 42.6422216,12.206668 42.7666667,11.94 C42.8911117,11.673332 42.9777775,11.3377798 43.0266667,10.9333333 C43.0755558,10.5288869 43.1,10.0511139 43.1,9.5 C43.1,9.06444227 43.0844446,8.65111307 43.0533333,8.26 C43.0222221,7.86888693 42.9511117,7.52666813 42.84,7.23333333 C42.7288883,6.93999853 42.5666677,6.70666753 42.3533333,6.53333333 C42.1399989,6.35999913 41.8555573,6.27333333 41.5,6.27333333 C40.8777747,6.27333333 40.4555567,6.54444173 40.2333333,7.08666667 C40.01111,7.6288916 39.9,8.433328 39.9,9.5 Z M49.9,7.5 L52.38,7.5 L52.38,12.7 L53.3933333,12.7 L53.3933333,14.1666667 L51.2866667,14.1666667 L50.98,13.18 L50.9266667,13.18 C50.7222212,13.5177795 50.4155576,13.7977767 50.0066667,14.02 C49.5977757,14.2422233 49.1444469,14.3533333 48.6466667,14.3533333 C48.3088872,14.3533333 48.0000014,14.3088893 47.72,14.22 C47.4399986,14.1311107 47.2022232,13.9844455 47.0066667,13.78 C46.8111101,13.5755545 46.6600005,13.3000017 46.5533333,12.9533333 C46.4466661,12.6066649 46.3933333,12.1711137 46.3933333,11.6466667 L46.3933333,8.96666667 L45.6333333,8.96666667 L45.6333333,7.5 L48.1266667,7.5 L48.1266667,11.2866667 C48.1266667,11.8288916 48.2133325,12.2199988 48.3866667,12.46 C48.5600009,12.7000012 48.8333315,12.82 49.2066667,12.82 C49.5355572,12.82 49.8311098,12.7222232 50.0933333,12.5266667 C50.3555569,12.3311101 50.5399995,12.0911125 50.6466667,11.8066667 L50.6466667,8.96666667 L49.9,8.96666667 L49.9,7.5 Z M54.7,7.95333333 C55.0555573,7.79333253 55.4666643,7.65555613 55.9333333,7.54 C56.4000023,7.42444387 56.9533301,7.36666667 57.5933333,7.36666667 C58.0555579,7.36666667 58.4488873,7.42222167 58.7733333,7.53333333 C59.0977794,7.644445 59.359999,7.8022212 59.56,8.00666667 C59.760001,8.21111213 59.904444,8.45555413 59.9933333,8.74 C60.0822227,9.02444587 60.1266667,9.34444267 60.1266667,9.7 C60.1266667,10.1533356 60.1111113,10.5399984 60.08,10.86 C60.0488887,11.1800016 60.0333333,11.4644432 60.0333333,11.7133333 C60.0333333,11.9000009 60.0422221,12.1088877 60.06,12.34 C60.0777779,12.4644451 60.0911111,12.5844439 60.1,12.7 L60.9666667,12.7 L60.9666667,14.1666667 L58.7533333,14.1666667 L58.58,13.26 L58.5133333,13.26 C58.3355547,13.5355569 58.0822239,13.7733323 57.7533333,13.9733333 C57.4244428,14.1733343 56.9800028,14.2733333 56.42,14.2733333 C55.75333,14.2733333 55.2244464,14.0955573 54.8333333,13.74 C54.4422203,13.3844427 54.2466667,12.9133363 54.2466667,12.3266667 C54.2466667,11.9533315 54.3155549,11.6311125 54.4533333,11.36 C54.5911118,11.0888875 54.7911098,10.8666675 55.0533333,10.6933333 C55.3155569,10.5199991 55.6311093,10.3911115 56,10.3066667 C56.3688907,10.2222218 56.7799977,10.18 57.2333333,10.18 C57.3933341,10.18 57.5622213,10.1888888 57.74,10.2066667 C57.9177787,10.2244445 58.1355543,10.2422221 58.3933333,10.26 C58.4111112,10.1711107 58.42,10.0822227 58.42,9.99333333 L58.42,9.74 C58.42,9.40222053 58.3222232,9.16000073 58.1266667,9.01333333 C57.9311101,8.86666593 57.6422241,8.79333333 57.26,8.79333333 C56.8066644,8.79333333 56.3977796,8.85111053 56.0333333,8.96666667 C55.6688871,9.0822228 55.3622235,9.1977772 55.1133333,9.31333333 L54.7,7.95333333 Z M56.98,12.8466667 C57.4066688,12.8466667 57.7266656,12.7688897 57.94,12.6133333 C58.1533344,12.457777 58.3088884,12.291112 58.4066667,12.1133333 L58.4066667,11.3133333 C58.3177773,11.2955555 58.1844453,11.2755557 58.0066667,11.2533333 C57.828888,11.231111 57.6377788,11.22 57.4333333,11.22 C57.2644436,11.22 57.0955564,11.2355554 56.9266667,11.2666667 C56.7577769,11.2977779 56.6066673,11.3466663 56.4733333,11.4133333 C56.3399993,11.4800003 56.2333337,11.5666661 56.1533333,11.6733333 C56.0733329,11.7800005 56.0333333,11.9088881 56.0333333,12.06 C56.0333333,12.3088901 56.1066659,12.5022215 56.2533333,12.64 C56.4000007,12.7777785 56.6422205,12.8466667 56.98,12.8466667 Z M61.66,7.5 L63.9933333,7.5 L64.1933333,8.38 L64.2466667,8.38 C64.4511121,8.09555413 64.7444425,7.84666773 65.1266667,7.63333333 C65.5088908,7.41999893 65.966664,7.31333333 66.5,7.31333333 C66.8288905,7.31333333 67.1377763,7.35777733 67.4266667,7.44666667 C67.715557,7.535556 67.9622212,7.6822212 68.1666667,7.88666667 C68.3711121,8.09111213 68.5333327,8.36888713 68.6533333,8.72 C68.7733339,9.07111287 68.8333333,9.50444187 68.8333333,10.02 L68.8333333,14.1666667 L67.1,14.1666667 L67.1,10.38 C67.1,9.83777507 66.977779,9.44666787 66.7333333,9.20666667 C66.4888877,8.96666547 66.1800019,8.84666667 65.8066667,8.84666667 C65.4777761,8.84666667 65.1777791,8.94222127 64.9066667,9.13333333 C64.6355542,9.3244454 64.4511116,9.5622208 64.3533333,9.84666667 L64.3533333,14.1666667 L62.62,14.1666667 L62.62,8.96666667 L61.66,8.96666667 L61.66,7.5 Z M71.0466667,8.96666667 L69.7266667,8.96666667 L69.7266667,7.5 L71.0466667,7.5 L71.0466667,5.98 L72.78,5.48666667 L72.78,7.5 L76.2733333,7.5 L76.2733333,8.96666667 L72.78,8.96666667 L72.78,10.8733333 C72.78,11.5577812 72.9088876,12.0533318 73.1666667,12.36 C73.4244457,12.6666682 73.7844421,12.82 74.2466667,12.82 C74.4866679,12.82 74.7044435,12.7911114 74.9,12.7333333 C75.0955565,12.6755553 75.2711103,12.6022227 75.4266667,12.5133333 C75.582223,12.424444 75.7244438,12.3266672 75.8533333,12.22 C75.9822229,12.1133328 76.0999995,12.015556 76.2066667,11.9266667 L77.0066667,13.1266667 C76.8555548,13.3044453 76.6666678,13.4666659 76.44,13.6133333 C76.2133322,13.7600007 75.9688902,13.8888883 75.7066667,14 C75.4444431,14.1111117 75.1711125,14.1977775 74.8866667,14.26 C74.6022208,14.3222225 74.3222236,14.3533333 74.0466667,14.3533333 C73.0511061,14.3533333 72.3022247,14.0755583 71.8,13.52 C71.2977753,12.9644417 71.0466667,12.0822283 71.0466667,10.8733333 L71.0466667,8.96666667 Z M78.2866667,12.7 L80.6333333,12.7 L80.6333333,8.96666667 L78.2866667,8.96666667 L78.2866667,7.5 L82.3666667,7.5 L82.3666667,12.7 L84.8333333,12.7 L84.8333333,14.1666667 L78.2866667,14.1666667 L78.2866667,12.7 Z M80.3133333,5.68666667 C80.3133333,5.41110973 80.4155545,5.17555653 80.62,4.98 C80.8244455,4.78444347 81.1088871,4.68666667 81.4733333,4.68666667 C81.8466685,4.68666667 82.1444433,4.78444347 82.3666667,4.98 C82.58889,5.17555653 82.7,5.41110973 82.7,5.68666667 C82.7,5.97111253 82.58889,6.20444353 82.3666667,6.38666667 C82.1444433,6.5688898 81.8466685,6.66 81.4733333,6.66 C81.1088871,6.66 80.8244455,6.5688898 80.62,6.38666667 C80.4155545,6.20444353 80.3133333,5.97111253 80.3133333,5.68666667 Z M87.0466667,8.96666667 L85.7266667,8.96666667 L85.7266667,7.5 L87.0466667,7.5 L87.0466667,5.98 L88.78,5.48666667 L88.78,7.5 L92.2733333,7.5 L92.2733333,8.96666667 L88.78,8.96666667 L88.78,10.8733333 C88.78,11.5577812 88.9088876,12.0533318 89.1666667,12.36 C89.4244457,12.6666682 89.7844421,12.82 90.2466667,12.82 C90.4866679,12.82 90.7044435,12.7911114 90.9,12.7333333 C91.0955565,12.6755553 91.2711103,12.6022227 91.4266667,12.5133333 C91.582223,12.424444 91.7244438,12.3266672 91.8533333,12.22 C91.9822229,12.1133328 92.0999995,12.015556 92.2066667,11.9266667 L93.0066667,13.1266667 C92.8555548,13.3044453 92.6666678,13.4666659 92.44,13.6133333 C92.2133322,13.7600007 91.9688902,13.8888883 91.7066667,14 C91.4444431,14.1111117 91.1711125,14.1977775 90.8866667,14.26 C90.6022208,14.3222225 90.3222236,14.3533333 90.0466667,14.3533333 C89.0511061,14.3533333 88.3022247,14.0755583 87.8,13.52 C87.2977753,12.9644417 87.0466667,12.0822283 87.0466667,10.8733333 L87.0466667,8.96666667 Z M97.5133333,12.2866667 L98.02,12.2866667 L99.3133333,7.5 L101.1,7.5 L99.2066667,13.5133333 C99.0377769,14.0111136 98.8733341,14.4666646 98.7133333,14.88 C98.5533325,15.2933354 98.3666677,15.6511096 98.1533333,15.9533333 C97.9399989,16.2555571 97.6888903,16.4888881 97.4,16.6533333 C97.1111097,16.8177786 96.7577799,16.9 96.34,16.9 C96.1355545,16.9 95.9422231,16.8733336 95.76,16.82 C95.5777769,16.7666664 95.4111119,16.7022226 95.26,16.6266667 C95.1088881,16.5511107 94.9755561,16.4711115 94.86,16.3866667 C94.7444439,16.3022218 94.6511115,16.2244448 94.58,16.1533333 L95.4733333,14.9666667 C95.5888895,15.0644449 95.7266659,15.1555551 95.8866667,15.24 C96.0466675,15.3244449 96.1977771,15.3666667 96.34,15.3666667 C96.606668,15.3666667 96.817777,15.2733343 96.9733333,15.0866667 C97.1288897,14.8999991 97.2777771,14.5933355 97.42,14.1666667 L96.4733333,14.1666667 L93.7,7.5 L95.58,7.5 L97.5133333,12.2866667 Z M116.606667,7.00666667 C116.606667,7.23777893 116.577778,7.46888773 116.52,7.7 C116.462222,7.93111227 116.366667,8.14222127 116.233333,8.33333333 C116.099999,8.5244454 115.926668,8.6933326 115.713333,8.84 C115.499999,8.9866674 115.242224,9.0955552 114.94,9.16666667 L114.94,9.24666667 C115.206668,9.29111133 115.459999,9.36666613 115.7,9.47333333 C115.940001,9.58000053 116.148888,9.72666573 116.326667,9.91333333 C116.504445,10.1000009 116.644444,10.3266653 116.746667,10.5933333 C116.848889,10.8600013 116.9,11.1755537 116.9,11.54 C116.9,12.0200024 116.797779,12.4355538 116.593333,12.7866667 C116.388888,13.1377795 116.115557,13.4244433 115.773333,13.6466667 C115.431109,13.86889 115.042224,14.0333328 114.606667,14.14 C114.171109,14.2466672 113.722225,14.3 113.26,14.3 L112.68,14.3 C112.444443,14.3 112.191112,14.2933334 111.92,14.28 C111.648888,14.2666666 111.373335,14.2466668 111.093333,14.22 C110.813332,14.1933332 110.557779,14.1533336 110.326667,14.1 L110.326667,4.9 C110.495556,4.8733332 110.688888,4.8466668 110.906667,4.82 C111.124446,4.7933332 111.357777,4.7711112 111.606667,4.75333333 C111.855557,4.73555547 112.11111,4.72222227 112.373333,4.71333333 C112.635557,4.7044444 112.895554,4.7 113.153333,4.7 C113.588891,4.7 114.013331,4.733333 114.426667,4.8 C114.840002,4.866667 115.208887,4.9844436 115.533333,5.15333333 C115.857779,5.32222307 116.117777,5.55777627 116.313333,5.86 C116.50889,6.16222373 116.606667,6.54444213 116.606667,7.00666667 Z M113.273333,12.7933333 C113.495557,12.7933333 113.71111,12.7666669 113.92,12.7133333 C114.12889,12.6599997 114.313333,12.5777783 114.473333,12.4666667 C114.633334,12.355555 114.762222,12.2155564 114.86,12.0466667 C114.957778,11.8777769 115.006667,11.6777789 115.006667,11.4466667 C115.006667,11.1533319 114.948889,10.9222231 114.833333,10.7533333 C114.717777,10.5844436 114.566668,10.4533338 114.38,10.36 C114.193332,10.2666662 113.984446,10.2066668 113.753333,10.18 C113.522221,10.1533332 113.291112,10.14 113.06,10.14 L112.086667,10.14 L112.086667,12.7133333 C112.131111,12.7311112 112.202222,12.7444444 112.3,12.7533333 C112.397778,12.7622223 112.502222,12.7688889 112.613333,12.7733333 C112.724445,12.7777778 112.839999,12.7822222 112.96,12.7866667 C113.080001,12.7911111 113.184444,12.7933333 113.273333,12.7933333 Z M112.673333,8.75333333 C112.797778,8.75333333 112.942221,8.74888893 113.106667,8.74 C113.271112,8.73111107 113.406666,8.71777787 113.513333,8.7 C113.851113,8.5933328 114.142221,8.4333344 114.386667,8.22 C114.631112,8.0066656 114.753333,7.7266684 114.753333,7.38 C114.753333,7.14888773 114.708889,6.95777853 114.62,6.80666667 C114.531111,6.6555548 114.413334,6.535556 114.266667,6.44666667 C114.119999,6.35777733 113.953334,6.29555573 113.766667,6.26 C113.579999,6.22444427 113.384445,6.20666667 113.18,6.20666667 C112.948888,6.20666667 112.735557,6.21111107 112.54,6.22 C112.344443,6.22888893 112.193334,6.24222213 112.086667,6.26 L112.086667,8.75333333 L112.673333,8.75333333 Z M118.7,7.95333333 C119.055557,7.79333253 119.466664,7.65555613 119.933333,7.54 C120.400002,7.42444387 120.95333,7.36666667 121.593333,7.36666667 C122.055558,7.36666667 122.448887,7.42222167 122.773333,7.53333333 C123.097779,7.644445 123.359999,7.8022212 123.56,8.00666667 C123.760001,8.21111213 123.904444,8.45555413 123.993333,8.74 C124.082223,9.02444587 124.126667,9.34444267 124.126667,9.7 C124.126667,10.1533356 124.111111,10.5399984 124.08,10.86 C124.048889,11.1800016 124.033333,11.4644432 124.033333,11.7133333 C124.033333,11.9000009 124.042222,12.1088877 124.06,12.34 C124.077778,12.4644451 124.091111,12.5844439 124.1,12.7 L124.966667,12.7 L124.966667,14.1666667 L122.753333,14.1666667 L122.58,13.26 L122.513333,13.26 C122.335555,13.5355569 122.082224,13.7733323 121.753333,13.9733333 C121.424443,14.1733343 120.980003,14.2733333 120.42,14.2733333 C119.75333,14.2733333 119.224446,14.0955573 118.833333,13.74 C118.44222,13.3844427 118.246667,12.9133363 118.246667,12.3266667 C118.246667,11.9533315 118.315555,11.6311125 118.453333,11.36 C118.591112,11.0888875 118.79111,10.8666675 119.053333,10.6933333 C119.315557,10.5199991 119.631109,10.3911115 120,10.3066667 C120.368891,10.2222218 120.779998,10.18 121.233333,10.18 C121.393334,10.18 121.562221,10.1888888 121.74,10.2066667 C121.917779,10.2244445 122.135554,10.2422221 122.393333,10.26 C122.411111,10.1711107 122.42,10.0822227 122.42,9.99333333 L122.42,9.74 C122.42,9.40222053 122.322223,9.16000073 122.126667,9.01333333 C121.93111,8.86666593 121.642224,8.79333333 121.26,8.79333333 C120.806664,8.79333333 120.39778,8.85111053 120.033333,8.96666667 C119.668887,9.0822228 119.362223,9.1977772 119.113333,9.31333333 L118.7,7.95333333 Z M120.98,12.8466667 C121.406669,12.8466667 121.726666,12.7688897 121.94,12.6133333 C122.153334,12.457777 122.308888,12.291112 122.406667,12.1133333 L122.406667,11.3133333 C122.317777,11.2955555 122.184445,11.2755557 122.006667,11.2533333 C121.828888,11.231111 121.637779,11.22 121.433333,11.22 C121.264444,11.22 121.095556,11.2355554 120.926667,11.2666667 C120.757777,11.2977779 120.606667,11.3466663 120.473333,11.4133333 C120.339999,11.4800003 120.233334,11.5666661 120.153333,11.6733333 C120.073333,11.7800005 120.033333,11.9088881 120.033333,12.06 C120.033333,12.3088901 120.106666,12.5022215 120.253333,12.64 C120.400001,12.7777785 120.642221,12.8466667 120.98,12.8466667 Z M130.86,12.3266667 C130.86,12.148888 130.751112,12.0066672 130.533333,11.9 C130.315554,11.7933328 130.046668,11.695556 129.726667,11.6066667 C129.406665,11.5177773 129.055557,11.4266671 128.673333,11.3333333 C128.291109,11.2399995 127.940002,11.1111119 127.62,10.9466667 C127.299998,10.7822214 127.031112,10.5733346 126.813333,10.32 C126.595554,10.0666654 126.486667,9.740002 126.486667,9.34 C126.486667,9.01110947 126.559999,8.72222347 126.706667,8.47333333 C126.853334,8.2244432 127.053332,8.0133342 127.306667,7.84 C127.560001,7.6666658 127.86222,7.535556 128.213333,7.44666667 C128.564446,7.35777733 128.944442,7.31333333 129.353333,7.31333333 C129.788891,7.31333333 130.171109,7.34444413 130.5,7.40666667 C130.828891,7.4688892 131.115554,7.544444 131.36,7.63333333 C131.604446,7.72222267 131.813332,7.82222167 131.986667,7.93333333 C132.160001,8.044445 132.308888,8.144444 132.433333,8.23333333 L131.7,9.42 C131.566666,9.3399996 131.413334,9.2577782 131.24,9.17333333 C131.066666,9.08888847 130.884445,9.01111147 130.693333,8.94 C130.502221,8.86888853 130.302223,8.81111133 130.093333,8.76666667 C129.884443,8.722222 129.677779,8.7 129.473333,8.7 C129.099998,8.7 128.797779,8.7488884 128.566667,8.84666667 C128.335554,8.94444493 128.22,9.09555453 128.22,9.3 C128.22,9.4600008 128.328888,9.5888884 128.546667,9.68666667 C128.764446,9.78444493 129.033332,9.87555513 129.353333,9.96 C129.673335,10.0444449 130.024443,10.1355551 130.406667,10.2333333 C130.788891,10.3311116 131.139998,10.457777 131.46,10.6133333 C131.780002,10.7688897 132.048888,10.9711099 132.266667,11.22 C132.484446,11.4688901 132.593333,11.7888869 132.593333,12.18 C132.593333,12.8555589 132.346669,13.3866647 131.853333,13.7733333 C131.359998,14.1600019 130.628894,14.3533333 129.66,14.3533333 C128.895552,14.3533333 128.235558,14.2400011 127.68,14.0133333 C127.124442,13.7866655 126.677779,13.5222237 126.34,13.22 L127.14,11.9666667 C127.255556,12.0644449 127.408888,12.1733327 127.6,12.2933333 C127.791112,12.4133339 128.006665,12.5222217 128.246667,12.62 C128.486668,12.7177783 128.742221,12.7999997 129.013333,12.8666667 C129.284446,12.9333337 129.553332,12.9666667 129.82,12.9666667 C130.104446,12.9666667 130.348888,12.9177783 130.553333,12.82 C130.757779,12.7222217 130.86,12.5577789 130.86,12.3266667 Z M140.62,13.46 C140.504444,13.5666672 140.355556,13.6711106 140.173333,13.7733333 C139.99111,13.8755561 139.777779,13.9711107 139.533333,14.06 C139.288888,14.1488893 139.020001,14.2199997 138.726667,14.2733333 C138.433332,14.3266669 138.122224,14.3533333 137.793333,14.3533333 C137.224442,14.3533333 136.715558,14.2733341 136.266667,14.1133333 C135.817776,13.9533325 135.437779,13.7200015 135.126667,13.4133333 C134.815554,13.1066651 134.577779,12.7377799 134.413333,12.3066667 C134.248888,11.8755534 134.166667,11.3844472 134.166667,10.8333333 C134.166667,10.2466637 134.259999,9.73333553 134.446667,9.29333333 C134.633334,8.85333113 134.888887,8.48666813 135.213333,8.19333333 C135.537779,7.89999853 135.917776,7.68000073 136.353333,7.53333333 C136.788891,7.38666593 137.259997,7.31333333 137.766667,7.31333333 C138.104446,7.31333333 138.453332,7.35777733 138.813333,7.44666667 C139.173335,7.535556 139.504443,7.6888878 139.806667,7.90666667 C140.10889,8.12444553 140.355555,8.41555373 140.546667,8.78 C140.737779,9.14444627 140.833333,9.60666387 140.833333,10.1666667 C140.833333,10.5488908 140.788889,10.96222 140.7,11.4066667 L135.9,11.4066667 C135.908889,11.6911125 135.968888,11.9311101 136.08,12.1266667 C136.191112,12.3222232 136.337777,12.4822216 136.52,12.6066667 C136.702223,12.7311117 136.91111,12.8222219 137.146667,12.88 C137.382223,12.9377781 137.633332,12.9666667 137.9,12.9666667 C138.433336,12.9666667 138.871109,12.9044451 139.213333,12.78 C139.555557,12.6555549 139.833332,12.5044453 140.046667,12.3266667 L140.62,13.46 Z M137.74,8.7 C137.508888,8.7 137.291112,8.7311108 137.086667,8.79333333 C136.882221,8.85555587 136.697779,8.94666607 136.533333,9.06666667 C136.368888,9.18666727 136.233334,9.33555467 136.126667,9.51333333 C136.019999,9.691112 135.957778,9.89111 135.94,10.1133333 L139.22,10.1133333 C139.22,9.6777756 139.097779,9.3333346 138.853333,9.08 C138.608888,8.8266654 138.23778,8.7 137.74,8.7 Z M145.58,4.83333333 L148.366667,4.83333333 L148.366667,10.5933333 C148.366667,11.2600033 148.402222,11.9177745 148.473333,12.5666667 C148.473333,12.6111113 148.477778,12.6555553 148.486667,12.7 L149.34,12.7 L149.34,14.1666667 L147.193333,14.1666667 L147.02,13.3133333 L146.966667,13.3133333 C146.877777,13.4733341 146.757779,13.6155549 146.606667,13.74 C146.455555,13.8644451 146.286668,13.9733329 146.1,14.0666667 C145.913332,14.1600005 145.70889,14.2311109 145.486667,14.28 C145.264443,14.3288891 145.042223,14.3533333 144.82,14.3533333 C144.40222,14.3533333 144.008891,14.2866673 143.64,14.1533333 C143.271109,14.0199993 142.94889,13.8133347 142.673333,13.5333333 C142.397776,13.2533319 142.180001,12.8977799 142.02,12.4666667 C141.859999,12.0355534 141.78,11.5266696 141.78,10.94 C141.78,10.3711083 141.866666,9.86444667 142.04,9.42 C142.213334,8.97555333 142.453332,8.60000153 142.76,8.29333333 C143.066668,7.98666513 143.428887,7.75111193 143.846667,7.58666667 C144.264447,7.4222214 144.72222,7.34 145.22,7.34 C145.495557,7.34 145.755554,7.3555554 146,7.38666667 C146.244446,7.41777793 146.455555,7.46888853 146.633333,7.54 L146.633333,6.3 L145.58,6.3 L145.58,4.83333333 Z M145.22,12.8866667 C145.557779,12.8866667 145.857776,12.8044453 146.12,12.64 C146.382224,12.4755547 146.553333,12.2377793 146.633333,11.9266667 L146.633333,9.1 C146.508888,9.00222173 146.337779,8.92888913 146.12,8.88 C145.902221,8.83111087 145.673335,8.80666667 145.433333,8.80666667 C145.193332,8.80666667 144.960001,8.84666627 144.733333,8.92666667 C144.506666,9.00666707 144.306668,9.13333247 144.133333,9.30666667 C143.959999,9.48000087 143.822223,9.70444307 143.72,9.98 C143.617777,10.2555569 143.566667,10.5933313 143.566667,10.9933333 C143.566667,11.5622251 143.708887,12.0199983 143.993333,12.3666667 C144.277779,12.7133351 144.686664,12.8866667 145.22,12.8866667 Z" id="QuantityBased" fill="#00000A" fill-rule="nonzero"></path>
                    </g>
                    <g id="Group-4" transform="translate(174.000000, 0.000000)">
                        <polyline id="Path-18" stroke="#3A008C" fill="url(#linearGradient-3)" points="-1.77635684e-13 14.5390545 0.162306819 -1.0658141e-14 5.48585897 0.285235188 10.316058 6.31250231 17.2707038 6.31250231 21.4434914 12.8924871 27.1972705 12.8924871 32.0225926 20.7795925"></polyline>
                        <path d="M41.58,11.6733333 L41.6466667,11.6733333 L43.4866667,4.83333333 L45.38,4.83333333 L42.58,14.1666667 L40.5,14.1666667 L37.62,4.83333333 L39.66,4.83333333 L41.58,11.6733333 Z M45.9666667,10.8333333 C45.9666667,10.2733305 46.0511103,9.77555773 46.22,9.34 C46.3888897,8.90444227 46.6288873,8.53555707 46.94,8.23333333 C47.2511127,7.9311096 47.6222201,7.702223 48.0533333,7.54666667 C48.4844466,7.39111033 48.966664,7.31333333 49.5,7.31333333 C50.0600028,7.31333333 50.5599978,7.39777693 51,7.56666667 C51.4400022,7.7355564 51.8111096,7.9733318 52.1133333,8.28 C52.4155571,8.5866682 52.6444437,8.9577756 52.8,9.39333333 C52.9555563,9.82889107 53.0333333,10.3088863 53.0333333,10.8333333 C53.0333333,11.3933361 52.9488897,11.8911089 52.78,12.3266667 C52.6111103,12.7622244 52.3711127,13.1311096 52.06,13.4333333 C51.7488873,13.7355571 51.3777799,13.9644437 50.9466667,14.12 C50.5155534,14.2755563 50.033336,14.3533333 49.5,14.3533333 C48.9399972,14.3533333 48.4400022,14.2688897 48,14.1 C47.5599978,13.9311103 47.1888904,13.6933349 46.8866667,13.3866667 C46.5844429,13.0799985 46.3555563,12.7088911 46.2,12.2733333 C46.0444437,11.8377756 45.9666667,11.3577804 45.9666667,10.8333333 Z M47.7533333,10.8333333 C47.7533333,11.1266681 47.7933329,11.3977765 47.8733333,11.6466667 C47.9533337,11.8955568 48.0688881,12.1133324 48.22,12.3 C48.3711119,12.4866676 48.5533323,12.6311106 48.7666667,12.7333333 C48.9800011,12.8355561 49.2244431,12.8866667 49.5,12.8866667 C50.0155581,12.8866667 50.4355539,12.7222239 50.76,12.3933333 C51.0844461,12.0644428 51.2466667,11.544448 51.2466667,10.8333333 C51.2466667,10.2199969 51.0955571,9.72444633 50.7933333,9.34666667 C50.4911096,8.968887 50.0600028,8.78 49.5,8.78 C49.2511099,8.78 49.0200011,8.8177774 48.8066667,8.89333333 C48.5933323,8.96888927 48.4088897,9.09111027 48.2533333,9.26 C48.097777,9.42888973 47.975556,9.64222093 47.8866667,9.9 C47.7977773,10.1577791 47.7533333,10.4688871 47.7533333,10.8333333 Z M54.66,4.83333333 L57.5,4.83333333 L57.5,10.9933333 C57.5,11.6777812 57.5844436,12.153332 57.7533333,12.42 C57.9222231,12.686668 58.1933315,12.82 58.5666667,12.82 C58.8422236,12.82 59.068888,12.7911114 59.2466667,12.7333333 C59.4244453,12.6755553 59.6022213,12.5933339 59.78,12.4866667 L60.4333333,13.6866667 C60.2822215,13.7844449 60.1311119,13.8755551 59.98,13.96 C59.8288881,14.0444449 59.6688897,14.1155553 59.5,14.1733333 C59.3311103,14.2311114 59.1466677,14.2755554 58.9466667,14.3066667 C58.7466657,14.3377779 58.5222235,14.3533333 58.2733333,14.3533333 C57.4377736,14.3533333 56.8111132,14.1400021 56.3933333,13.7133333 C55.9755535,13.2866645 55.7666667,12.6822261 55.7666667,11.9 L55.7666667,6.3 L54.66,6.3 L54.66,4.83333333 Z M65.9,7.5 L68.38,7.5 L68.38,12.7 L69.3933333,12.7 L69.3933333,14.1666667 L67.2866667,14.1666667 L66.98,13.18 L66.9266667,13.18 C66.7222212,13.5177795 66.4155576,13.7977767 66.0066667,14.02 C65.5977757,14.2422233 65.1444469,14.3533333 64.6466667,14.3533333 C64.3088872,14.3533333 64.0000014,14.3088893 63.72,14.22 C63.4399986,14.1311107 63.2022232,13.9844455 63.0066667,13.78 C62.8111101,13.5755545 62.6600005,13.3000017 62.5533333,12.9533333 C62.4466661,12.6066649 62.3933333,12.1711137 62.3933333,11.6466667 L62.3933333,8.96666667 L61.6333333,8.96666667 L61.6333333,7.5 L64.1266667,7.5 L64.1266667,11.2866667 C64.1266667,11.8288916 64.2133325,12.2199988 64.3866667,12.46 C64.5600009,12.7000012 64.8333315,12.82 65.2066667,12.82 C65.5355572,12.82 65.8311098,12.7222232 66.0933333,12.5266667 C66.3555569,12.3311101 66.5399995,12.0911125 66.6466667,11.8066667 L66.6466667,8.96666667 L65.9,8.96666667 L65.9,7.5 Z M72.7133333,14.1666667 L72.7133333,10.0866667 C72.7133333,9.81999867 72.6955557,9.60444527 72.66,9.44 C72.6244443,9.27555473 72.5777781,9.14666713 72.52,9.05333333 C72.4622219,8.95999953 72.3911115,8.89777793 72.3066667,8.86666667 C72.2222218,8.8355554 72.135556,8.82 72.0466667,8.82 C71.8955548,8.82 71.7555562,8.8688884 71.6266667,8.96666667 C71.4977771,9.06444493 71.4111113,9.18888813 71.3666667,9.34 L71.3666667,14.1666667 L69.7666667,14.1666667 L69.7666667,7.5 L71.0333333,7.5 L71.22,8.23333333 L71.26,8.23333333 C71.393334,7.97555427 71.5888876,7.76444527 71.8466667,7.6 C72.1044457,7.43555473 72.4066649,7.35333333 72.7533333,7.35333333 C73.0466681,7.35333333 73.3266653,7.42444373 73.5933333,7.56666667 C73.8600013,7.7088896 74.0422217,7.957776 74.14,8.31333333 C74.273334,8.00222067 74.4777764,7.76444527 74.7533333,7.6 C75.0288903,7.43555473 75.3266651,7.35333333 75.6466667,7.35333333 C75.8866679,7.35333333 76.1022213,7.38666633 76.2933333,7.45333333 C76.4844454,7.52000033 76.6511104,7.63777693 76.7933333,7.80666667 C76.9355563,7.9755564 77.0444441,8.204443 77.12,8.49333333 C77.1955559,8.78222367 77.2333333,9.15333107 77.2333333,9.60666667 L77.2333333,14.1666667 L75.6333333,14.1666667 L75.6333333,9.9 C75.6333333,9.499998 75.5688895,9.2200008 75.44,9.06 C75.3111105,8.8999992 75.1533343,8.82 74.9666667,8.82 C74.8066659,8.82 74.6688895,8.8577774 74.5533333,8.93333333 C74.4377772,9.00888927 74.357778,9.13111027 74.3133333,9.3 L74.3133333,14.1666667 L72.7133333,14.1666667 Z M84.62,13.46 C84.5044439,13.5666672 84.3555565,13.6711106 84.1733333,13.7733333 C83.9911102,13.8755561 83.777779,13.9711107 83.5333333,14.06 C83.2888877,14.1488893 83.0200015,14.2199997 82.7266667,14.2733333 C82.4333319,14.3266669 82.1222239,14.3533333 81.7933333,14.3533333 C81.2244416,14.3533333 80.7155578,14.2733341 80.2666667,14.1133333 C79.8177755,13.9533325 79.4377793,13.7200015 79.1266667,13.4133333 C78.815554,13.1066651 78.5777786,12.7377799 78.4133333,12.3066667 C78.2488881,11.8755534 78.1666667,11.3844472 78.1666667,10.8333333 C78.1666667,10.2466637 78.2599991,9.73333553 78.4466667,9.29333333 C78.6333343,8.85333113 78.8888873,8.48666813 79.2133333,8.19333333 C79.5377794,7.89999853 79.9177756,7.68000073 80.3533333,7.53333333 C80.7888911,7.38666593 81.2599975,7.31333333 81.7666667,7.31333333 C82.1044461,7.31333333 82.4533315,7.35777733 82.8133333,7.44666667 C83.1733351,7.535556 83.5044429,7.6888878 83.8066667,7.90666667 C84.1088904,8.12444553 84.3555546,8.41555373 84.5466667,8.78 C84.7377787,9.14444627 84.8333333,9.60666387 84.8333333,10.1666667 C84.8333333,10.5488908 84.7888893,10.96222 84.7,11.4066667 L79.9,11.4066667 C79.9088889,11.6911125 79.9688883,11.9311101 80.08,12.1266667 C80.1911117,12.3222232 80.3377769,12.4822216 80.52,12.6066667 C80.7022231,12.7311117 80.9111099,12.8222219 81.1466667,12.88 C81.3822234,12.9377781 81.633332,12.9666667 81.9,12.9666667 C82.433336,12.9666667 82.8711094,12.9044451 83.2133333,12.78 C83.5555573,12.6555549 83.8333323,12.5044453 84.0466667,12.3266667 L84.62,13.46 Z M81.74,8.7 C81.5088877,8.7 81.2911121,8.7311108 81.0866667,8.79333333 C80.8822212,8.85555587 80.6977786,8.94666607 80.5333333,9.06666667 C80.3688881,9.18666727 80.2333339,9.33555467 80.1266667,9.51333333 C80.0199995,9.691112 79.9577779,9.89111 79.94,10.1133333 L83.22,10.1133333 C83.22,9.6777756 83.097779,9.3333346 82.8533333,9.08 C82.6088877,8.8266654 82.2377803,8.7 81.74,8.7 Z M94.4733333,4.92666667 C94.8466685,4.8555552 95.2577755,4.8000002 95.7066667,4.76 C96.1555578,4.7199998 96.60222,4.7 97.0466667,4.7 C97.5088912,4.7 97.973331,4.7377774 98.44,4.81333333 C98.906669,4.88888927 99.3266648,5.03999887 99.7,5.26666667 C100.073335,5.49333447 100.377777,5.80888687 100.613333,6.21333333 C100.84889,6.6177798 100.966667,7.1444412 100.966667,7.79333333 C100.966667,8.36222507 100.864445,8.84888687 100.66,9.25333333 C100.455555,9.6577798 100.184446,9.9911098 99.8466667,10.2533333 C99.5088872,10.5155569 99.1244466,10.7066661 98.6933333,10.8266667 C98.2622201,10.9466673 97.8155579,11.0066667 97.3533333,11.0066667 L97.14,11.0066667 C97.0422217,11.0066667 96.9400005,11.0044445 96.8333333,11 C96.7266661,10.9955555 96.6222227,10.9888889 96.52,10.98 C96.4177773,10.9711111 96.3444447,10.9622223 96.3,10.9533333 L96.3,14.1666667 L94.4733333,14.1666667 L94.4733333,4.92666667 Z M97.1933333,6.27333333 C97.0155547,6.27333333 96.8466675,6.27999993 96.6866667,6.29333333 C96.5266659,6.30666673 96.3977783,6.32222213 96.3,6.34 L96.3,9.36666667 C96.3355557,9.3755556 96.3888885,9.3844444 96.46,9.39333333 C96.5311115,9.40222227 96.6066663,9.40888887 96.6866667,9.41333333 C96.7666671,9.4177778 96.8444441,9.42 96.92,9.42 L97.0866667,9.42 C97.3266679,9.42 97.5644433,9.397778 97.8,9.35333333 C98.0355567,9.30888867 98.2466657,9.22666727 98.4333333,9.10666667 C98.6200009,8.98666607 98.7688883,8.82000107 98.88,8.60666667 C98.9911117,8.39333227 99.0466667,8.11333507 99.0466667,7.76666667 C99.0466667,7.47333187 98.9933339,7.23111207 98.8866667,7.04 C98.7799995,6.84888793 98.6400009,6.69555613 98.4666667,6.58 C98.2933325,6.46444387 98.0955567,6.38444467 97.8733333,6.34 C97.65111,6.29555533 97.4244456,6.27333333 97.1933333,6.27333333 Z M102.02,12.7 L103.673333,12.7 L103.673333,8.96666667 L102.02,8.96666667 L102.02,7.5 L105.02,7.5 L105.22,8.38 L105.273333,8.38 C105.522223,8.0866652 105.806665,7.8422232 106.126667,7.64666667 C106.446668,7.45111013 106.819998,7.35333333 107.246667,7.35333333 C107.780003,7.35333333 108.199998,7.54888693 108.506667,7.94 C108.813335,8.33111307 108.966667,8.98443987 108.966667,9.9 L107.406667,9.9 C107.406667,9.5799984 107.36,9.3466674 107.266667,9.2 C107.173333,9.0533326 107.024445,8.98 106.82,8.98 C106.464443,8.98 106.177779,9.068888 105.96,9.24666667 C105.742221,9.42444533 105.557779,9.62888773 105.406667,9.86 L105.406667,12.7 L108.3,12.7 L108.3,14.1666667 L102.02,14.1666667 L102.02,12.7 Z M110.286667,12.7 L112.633333,12.7 L112.633333,8.96666667 L110.286667,8.96666667 L110.286667,7.5 L114.366667,7.5 L114.366667,12.7 L116.833333,12.7 L116.833333,14.1666667 L110.286667,14.1666667 L110.286667,12.7 Z M112.313333,5.68666667 C112.313333,5.41110973 112.415555,5.17555653 112.62,4.98 C112.824445,4.78444347 113.108887,4.68666667 113.473333,4.68666667 C113.846669,4.68666667 114.144443,4.78444347 114.366667,4.98 C114.58889,5.17555653 114.7,5.41110973 114.7,5.68666667 C114.7,5.97111253 114.58889,6.20444353 114.366667,6.38666667 C114.144443,6.5688898 113.846669,6.66 113.473333,6.66 C113.108887,6.66 112.824445,6.5688898 112.62,6.38666667 C112.415555,6.20444353 112.313333,5.97111253 112.313333,5.68666667 Z M124.78,13.5266667 C124.415554,13.8022236 123.988891,14.0088882 123.5,14.1466667 C123.011109,14.2844451 122.500003,14.3533333 121.966667,14.3533333 C121.388886,14.3533333 120.875558,14.2688897 120.426667,14.1 C119.977776,13.9311103 119.600002,13.6933349 119.293333,13.3866667 C118.986665,13.0799985 118.753334,12.7088911 118.593333,12.2733333 C118.433333,11.8377756 118.353333,11.3577804 118.353333,10.8333333 C118.353333,10.2733305 118.446666,9.77555773 118.633333,9.34 C118.820001,8.90444227 119.079998,8.53555707 119.413333,8.23333333 C119.746668,7.9311096 120.139998,7.702223 120.593333,7.54666667 C121.046669,7.39111033 121.539997,7.31333333 122.073333,7.31333333 C122.571114,7.31333333 123.037776,7.37111053 123.473333,7.48666667 C123.908891,7.6022228 124.242221,7.7133328 124.473333,7.82 L124.473333,10.1666667 L123.006667,10.1666667 L123.006667,8.94 C122.73111,8.87777747 122.455557,8.84666667 122.18,8.84666667 C121.93111,8.84666667 121.684446,8.88444407 121.44,8.96 C121.195554,9.03555593 120.977779,9.15555473 120.786667,9.32 C120.595555,9.48444527 120.440001,9.69110987 120.32,9.94 C120.199999,10.1888901 120.14,10.4866649 120.14,10.8333333 C120.14,11.1177792 120.188888,11.3799988 120.286667,11.62 C120.384445,11.8600012 120.522221,12.068888 120.7,12.2466667 C120.877779,12.4244453 121.097776,12.5644439 121.36,12.6666667 C121.622224,12.7688894 121.913332,12.82 122.233333,12.82 C122.740003,12.82 123.155554,12.7488896 123.48,12.6066667 C123.804446,12.4644437 124.046666,12.3400005 124.206667,12.2333333 L124.78,13.5266667 Z M126.286667,12.7 L128.633333,12.7 L128.633333,8.96666667 L126.286667,8.96666667 L126.286667,7.5 L130.366667,7.5 L130.366667,12.7 L132.833333,12.7 L132.833333,14.1666667 L126.286667,14.1666667 L126.286667,12.7 Z M128.313333,5.68666667 C128.313333,5.41110973 128.415555,5.17555653 128.62,4.98 C128.824445,4.78444347 129.108887,4.68666667 129.473333,4.68666667 C129.846669,4.68666667 130.144443,4.78444347 130.366667,4.98 C130.58889,5.17555653 130.7,5.41110973 130.7,5.68666667 C130.7,5.97111253 130.58889,6.20444353 130.366667,6.38666667 C130.144443,6.5688898 129.846669,6.66 129.473333,6.66 C129.108887,6.66 128.824445,6.5688898 128.62,6.38666667 C128.415555,6.20444353 128.313333,5.97111253 128.313333,5.68666667 Z M133.66,7.5 L135.993333,7.5 L136.193333,8.38 L136.246667,8.38 C136.451112,8.09555413 136.744443,7.84666773 137.126667,7.63333333 C137.508891,7.41999893 137.966664,7.31333333 138.5,7.31333333 C138.828891,7.31333333 139.137776,7.35777733 139.426667,7.44666667 C139.715557,7.535556 139.962221,7.6822212 140.166667,7.88666667 C140.371112,8.09111213 140.533333,8.36888713 140.653333,8.72 C140.773334,9.07111287 140.833333,9.50444187 140.833333,10.02 L140.833333,14.1666667 L139.1,14.1666667 L139.1,10.38 C139.1,9.83777507 138.977779,9.44666787 138.733333,9.20666667 C138.488888,8.96666547 138.180002,8.84666667 137.806667,8.84666667 C137.477776,8.84666667 137.177779,8.94222127 136.906667,9.13333333 C136.635554,9.3244454 136.451112,9.5622208 136.353333,9.84666667 L136.353333,14.1666667 L134.62,14.1666667 L134.62,8.96666667 L133.66,8.96666667 L133.66,7.5 Z M148.566667,14.1666667 C148.566667,14.6466691 148.484445,15.0644427 148.32,15.42 C148.155555,15.7755573 147.92889,16.0711099 147.64,16.3066667 C147.35111,16.5422234 147.008891,16.715555 146.613333,16.8266667 C146.217776,16.9377783 145.784447,16.9933333 145.313333,16.9933333 C144.993332,16.9933333 144.693335,16.9688891 144.413333,16.92 C144.133332,16.8711109 143.875557,16.8066671 143.64,16.7266667 C143.404443,16.6466663 143.197779,16.5600005 143.02,16.4666667 C142.842221,16.3733329 142.700001,16.2822227 142.593333,16.1933333 L143.26,14.9666667 C143.473334,15.1088896 143.728887,15.2444438 144.026667,15.3733333 C144.324446,15.5022229 144.699998,15.5666667 145.153333,15.5666667 C145.713336,15.5666667 146.139999,15.4377791 146.433333,15.18 C146.726668,14.9222209 146.873333,14.5533357 146.873333,14.0733333 L146.873333,13.6466667 L146.82,13.6466667 C146.659999,13.8600011 146.424446,14.0177773 146.113333,14.12 C145.802221,14.2222227 145.442224,14.2733333 145.033333,14.2733333 C144.606665,14.2733333 144.213335,14.2066673 143.853333,14.0733333 C143.493332,13.9399993 143.180001,13.7377791 142.913333,13.4666667 C142.646665,13.1955542 142.440001,12.8511132 142.293333,12.4333333 C142.146666,12.0155535 142.073333,11.5266695 142.073333,10.9666667 C142.073333,10.3799971 142.159999,9.86000227 142.333333,9.40666667 C142.506668,8.95333107 142.75111,8.57333487 143.066667,8.26666667 C143.382224,7.95999847 143.759998,7.72888967 144.2,7.57333333 C144.640002,7.417777 145.131108,7.34 145.673333,7.34 C145.957779,7.34 146.242221,7.351111 146.526667,7.37333333 C146.811113,7.39555567 147.079999,7.42444427 147.333333,7.46 C147.586668,7.49555573 147.819999,7.53777753 148.033333,7.58666667 C148.246668,7.6355558 148.424444,7.6866664 148.566667,7.74 L148.566667,14.1666667 Z M145.366667,12.8866667 C145.704446,12.8866667 146.008888,12.8111119 146.28,12.66 C146.551112,12.5088881 146.735555,12.2822237 146.833333,11.98 L146.833333,8.98 C146.708888,8.9266664 146.533334,8.8844446 146.306667,8.85333333 C146.079999,8.82222207 145.864445,8.80666667 145.66,8.80666667 C145.41111,8.80666667 145.177779,8.84666627 144.96,8.92666667 C144.742221,9.00666707 144.551112,9.13333247 144.386667,9.30666667 C144.222221,9.48000087 144.093334,9.69777647 144,9.96 C143.906666,10.2222235 143.86,10.5355537 143.86,10.9 C143.86,11.2200016 143.9,11.5044432 143.98,11.7533333 C144.06,12.0022235 144.17111,12.2111103 144.313333,12.38 C144.455556,12.5488897 144.615555,12.6755551 144.793333,12.76 C144.971112,12.8444449 145.162221,12.8866667 145.366667,12.8866667 Z" id="VolumePricing" fill="#00000A" fill-rule="nonzero"></path>
                    </g>
                    <g id="Group-4-Copy" transform="translate(0.000000, 2.000000)">
                        <polyline id="Path-18" stroke="#3A008C" fill="url(#linearGradient-4)" points="-2.27373675e-13 15.0390545 0.162306819 0.5 26.6666667 0.5"></polyline>
                        <path d="M38.62,2.83333333 L44.54,2.83333333 L44.54,4.46 L40.4466667,4.46 L40.4466667,6.76666667 L44.2466667,6.76666667 L44.2466667,8.39333333 L40.4466667,8.39333333 L40.4466667,12.1666667 L38.62,12.1666667 L38.62,2.83333333 Z M46.66,2.83333333 L49.5,2.83333333 L49.5,8.99333333 C49.5,9.6777812 49.5844436,10.153332 49.7533333,10.42 C49.9222231,10.686668 50.1933315,10.82 50.5666667,10.82 C50.8422236,10.82 51.068888,10.7911114 51.2466667,10.7333333 C51.4244453,10.6755553 51.6022213,10.5933339 51.78,10.4866667 L52.4333333,11.6866667 C52.2822215,11.7844449 52.1311119,11.8755551 51.98,11.96 C51.8288881,12.0444449 51.6688897,12.1155553 51.5,12.1733333 C51.3311103,12.2311114 51.1466677,12.2755554 50.9466667,12.3066667 C50.7466657,12.3377779 50.5222235,12.3533333 50.2733333,12.3533333 C49.4377736,12.3533333 48.8111132,12.1400021 48.3933333,11.7133333 C47.9755535,11.2866645 47.7666667,10.6822261 47.7666667,9.9 L47.7666667,4.3 L46.66,4.3 L46.66,2.83333333 Z M54.7,5.95333333 C55.0555573,5.79333253 55.4666643,5.65555613 55.9333333,5.54 C56.4000023,5.42444387 56.9533301,5.36666667 57.5933333,5.36666667 C58.0555579,5.36666667 58.4488873,5.42222167 58.7733333,5.53333333 C59.0977794,5.644445 59.359999,5.8022212 59.56,6.00666667 C59.760001,6.21111213 59.904444,6.45555413 59.9933333,6.74 C60.0822227,7.02444587 60.1266667,7.34444267 60.1266667,7.7 C60.1266667,8.1533356 60.1111113,8.5399984 60.08,8.86 C60.0488887,9.1800016 60.0333333,9.4644432 60.0333333,9.71333333 C60.0333333,9.90000093 60.0422221,10.1088877 60.06,10.34 C60.0777779,10.4644451 60.0911111,10.5844439 60.1,10.7 L60.9666667,10.7 L60.9666667,12.1666667 L58.7533333,12.1666667 L58.58,11.26 L58.5133333,11.26 C58.3355547,11.5355569 58.0822239,11.7733323 57.7533333,11.9733333 C57.4244428,12.1733343 56.9800028,12.2733333 56.42,12.2733333 C55.75333,12.2733333 55.2244464,12.0955573 54.8333333,11.74 C54.4422203,11.3844427 54.2466667,10.9133363 54.2466667,10.3266667 C54.2466667,9.95333147 54.3155549,9.63111247 54.4533333,9.36 C54.5911118,9.08888753 54.7911098,8.86666753 55.0533333,8.69333333 C55.3155569,8.51999913 55.6311093,8.39111153 56,8.30666667 C56.3688907,8.2222218 56.7799977,8.18 57.2333333,8.18 C57.3933341,8.18 57.5622213,8.1888888 57.74,8.20666667 C57.9177787,8.22444453 58.1355543,8.24222213 58.3933333,8.26 C58.4111112,8.17111067 58.42,8.08222267 58.42,7.99333333 L58.42,7.74 C58.42,7.40222053 58.3222232,7.16000073 58.1266667,7.01333333 C57.9311101,6.86666593 57.6422241,6.79333333 57.26,6.79333333 C56.8066644,6.79333333 56.3977796,6.85111053 56.0333333,6.96666667 C55.6688871,7.0822228 55.3622235,7.1977772 55.1133333,7.31333333 L54.7,5.95333333 Z M56.98,10.8466667 C57.4066688,10.8466667 57.7266656,10.7688897 57.94,10.6133333 C58.1533344,10.457777 58.3088884,10.291112 58.4066667,10.1133333 L58.4066667,9.31333333 C58.3177773,9.29555547 58.1844453,9.27555567 58.0066667,9.25333333 C57.828888,9.231111 57.6377788,9.22 57.4333333,9.22 C57.2644436,9.22 57.0955564,9.2355554 56.9266667,9.26666667 C56.7577769,9.29777793 56.6066673,9.34666633 56.4733333,9.41333333 C56.3399993,9.48000033 56.2333337,9.56666613 56.1533333,9.67333333 C56.0733329,9.78000053 56.0333333,9.90888813 56.0333333,10.06 C56.0333333,10.3088901 56.1066659,10.5022215 56.2533333,10.64 C56.4000007,10.7777785 56.6422205,10.8466667 56.98,10.8466667 Z M63.0466667,6.96666667 L61.7266667,6.96666667 L61.7266667,5.5 L63.0466667,5.5 L63.0466667,3.98 L64.78,3.48666667 L64.78,5.5 L68.2733333,5.5 L68.2733333,6.96666667 L64.78,6.96666667 L64.78,8.87333333 C64.78,9.5577812 64.9088876,10.0533318 65.1666667,10.36 C65.4244457,10.6666682 65.7844421,10.82 66.2466667,10.82 C66.4866679,10.82 66.7044435,10.7911114 66.9,10.7333333 C67.0955565,10.6755553 67.2711103,10.6022227 67.4266667,10.5133333 C67.582223,10.424444 67.7244438,10.3266672 67.8533333,10.22 C67.9822229,10.1133328 68.0999995,10.015556 68.2066667,9.92666667 L69.0066667,11.1266667 C68.8555548,11.3044453 68.6666678,11.4666659 68.44,11.6133333 C68.2133322,11.7600007 67.9688902,11.8888883 67.7066667,12 C67.4444431,12.1111117 67.1711125,12.1977775 66.8866667,12.26 C66.6022208,12.3222225 66.3222236,12.3533333 66.0466667,12.3533333 C65.0511061,12.3533333 64.3022247,12.0755583 63.8,11.52 C63.2977753,10.9644417 63.0466667,10.0822283 63.0466667,8.87333333 L63.0466667,6.96666667 Z M78.4733333,2.92666667 C78.8466685,2.8555552 79.2577755,2.8000002 79.7066667,2.76 C80.1555578,2.7199998 80.60222,2.7 81.0466667,2.7 C81.5088912,2.7 81.973331,2.7377774 82.44,2.81333333 C82.906669,2.88888927 83.3266648,3.03999887 83.7,3.26666667 C84.0733352,3.49333447 84.3777766,3.80888687 84.6133333,4.21333333 C84.8488901,4.6177798 84.9666667,5.1444412 84.9666667,5.79333333 C84.9666667,6.36222507 84.8644455,6.84888687 84.66,7.25333333 C84.4555545,7.6577798 84.1844461,7.9911098 83.8466667,8.25333333 C83.5088872,8.51555687 83.1244466,8.70666607 82.6933333,8.82666667 C82.2622201,8.94666727 81.8155579,9.00666667 81.3533333,9.00666667 L81.14,9.00666667 C81.0422217,9.00666667 80.9400005,9.00444447 80.8333333,9 C80.7266661,8.99555553 80.6222227,8.98888893 80.52,8.98 C80.4177773,8.97111107 80.3444447,8.96222227 80.3,8.95333333 L80.3,12.1666667 L78.4733333,12.1666667 L78.4733333,2.92666667 Z M81.1933333,4.27333333 C81.0155547,4.27333333 80.8466675,4.27999993 80.6866667,4.29333333 C80.5266659,4.30666673 80.3977783,4.32222213 80.3,4.34 L80.3,7.36666667 C80.3355557,7.3755556 80.3888885,7.3844444 80.46,7.39333333 C80.5311115,7.40222227 80.6066663,7.40888887 80.6866667,7.41333333 C80.7666671,7.4177778 80.8444441,7.42 80.92,7.42 L81.0866667,7.42 C81.3266679,7.42 81.5644433,7.397778 81.8,7.35333333 C82.0355567,7.30888867 82.2466657,7.22666727 82.4333333,7.10666667 C82.6200009,6.98666607 82.7688883,6.82000107 82.88,6.60666667 C82.9911117,6.39333227 83.0466667,6.11333507 83.0466667,5.76666667 C83.0466667,5.47333187 82.9933339,5.23111207 82.8866667,5.04 C82.7799995,4.84888793 82.6400009,4.69555613 82.4666667,4.58 C82.2933325,4.46444387 82.0955567,4.38444467 81.8733333,4.34 C81.65111,4.29555533 81.4244456,4.27333333 81.1933333,4.27333333 Z M86.02,10.7 L87.6733333,10.7 L87.6733333,6.96666667 L86.02,6.96666667 L86.02,5.5 L89.02,5.5 L89.22,6.38 L89.2733333,6.38 C89.5222235,6.0866652 89.8066651,5.8422232 90.1266667,5.64666667 C90.4466683,5.45111013 90.8199979,5.35333333 91.2466667,5.35333333 C91.7800027,5.35333333 92.1999985,5.54888693 92.5066667,5.94 C92.8133349,6.33111307 92.9666667,6.98443987 92.9666667,7.9 L91.4066667,7.9 C91.4066667,7.5799984 91.3600005,7.3466674 91.2666667,7.2 C91.1733329,7.0533326 91.0244455,6.98 90.82,6.98 C90.4644427,6.98 90.1777789,7.068888 89.96,7.24666667 C89.7422211,7.42444533 89.5577785,7.62888773 89.4066667,7.86 L89.4066667,10.7 L92.3,10.7 L92.3,12.1666667 L86.02,12.1666667 L86.02,10.7 Z M94.2866667,10.7 L96.6333333,10.7 L96.6333333,6.96666667 L94.2866667,6.96666667 L94.2866667,5.5 L98.3666667,5.5 L98.3666667,10.7 L100.833333,10.7 L100.833333,12.1666667 L94.2866667,12.1666667 L94.2866667,10.7 Z M96.3133333,3.68666667 C96.3133333,3.41110973 96.4155545,3.17555653 96.62,2.98 C96.8244455,2.78444347 97.1088871,2.68666667 97.4733333,2.68666667 C97.8466685,2.68666667 98.1444433,2.78444347 98.3666667,2.98 C98.58889,3.17555653 98.7,3.41110973 98.7,3.68666667 C98.7,3.97111253 98.58889,4.20444353 98.3666667,4.38666667 C98.1444433,4.5688898 97.8466685,4.66 97.4733333,4.66 C97.1088871,4.66 96.8244455,4.5688898 96.62,4.38666667 C96.4155545,4.20444353 96.3133333,3.97111253 96.3133333,3.68666667 Z M108.78,11.5266667 C108.415554,11.8022236 107.988891,12.0088882 107.5,12.1466667 C107.011109,12.2844451 106.500003,12.3533333 105.966667,12.3533333 C105.388886,12.3533333 104.875558,12.2688897 104.426667,12.1 C103.977776,11.9311103 103.600002,11.6933349 103.293333,11.3866667 C102.986665,11.0799985 102.753334,10.7088911 102.593333,10.2733333 C102.433333,9.8377756 102.353333,9.3577804 102.353333,8.83333333 C102.353333,8.27333053 102.446666,7.77555773 102.633333,7.34 C102.820001,6.90444227 103.079998,6.53555707 103.413333,6.23333333 C103.746668,5.9311096 104.139998,5.702223 104.593333,5.54666667 C105.046669,5.39111033 105.539997,5.31333333 106.073333,5.31333333 C106.571114,5.31333333 107.037776,5.37111053 107.473333,5.48666667 C107.908891,5.6022228 108.242221,5.7133328 108.473333,5.82 L108.473333,8.16666667 L107.006667,8.16666667 L107.006667,6.94 C106.73111,6.87777747 106.455557,6.84666667 106.18,6.84666667 C105.93111,6.84666667 105.684446,6.88444407 105.44,6.96 C105.195554,7.03555593 104.977779,7.15555473 104.786667,7.32 C104.595555,7.48444527 104.440001,7.69110987 104.32,7.94 C104.199999,8.18889013 104.14,8.48666493 104.14,8.83333333 C104.14,9.1177792 104.188888,9.3799988 104.286667,9.62 C104.384445,9.8600012 104.522221,10.068888 104.7,10.2466667 C104.877779,10.4244453 105.097776,10.5644439 105.36,10.6666667 C105.622224,10.7688894 105.913332,10.82 106.233333,10.82 C106.740003,10.82 107.155554,10.7488896 107.48,10.6066667 C107.804446,10.4644437 108.046666,10.3400005 108.206667,10.2333333 L108.78,11.5266667 Z M110.286667,10.7 L112.633333,10.7 L112.633333,6.96666667 L110.286667,6.96666667 L110.286667,5.5 L114.366667,5.5 L114.366667,10.7 L116.833333,10.7 L116.833333,12.1666667 L110.286667,12.1666667 L110.286667,10.7 Z M112.313333,3.68666667 C112.313333,3.41110973 112.415555,3.17555653 112.62,2.98 C112.824445,2.78444347 113.108887,2.68666667 113.473333,2.68666667 C113.846669,2.68666667 114.144443,2.78444347 114.366667,2.98 C114.58889,3.17555653 114.7,3.41110973 114.7,3.68666667 C114.7,3.97111253 114.58889,4.20444353 114.366667,4.38666667 C114.144443,4.5688898 113.846669,4.66 113.473333,4.66 C113.108887,4.66 112.824445,4.5688898 112.62,4.38666667 C112.415555,4.20444353 112.313333,3.97111253 112.313333,3.68666667 Z M117.66,5.5 L119.993333,5.5 L120.193333,6.38 L120.246667,6.38 C120.451112,6.09555413 120.744443,5.84666773 121.126667,5.63333333 C121.508891,5.41999893 121.966664,5.31333333 122.5,5.31333333 C122.828891,5.31333333 123.137776,5.35777733 123.426667,5.44666667 C123.715557,5.535556 123.962221,5.6822212 124.166667,5.88666667 C124.371112,6.09111213 124.533333,6.36888713 124.653333,6.72 C124.773334,7.07111287 124.833333,7.50444187 124.833333,8.02 L124.833333,12.1666667 L123.1,12.1666667 L123.1,8.38 C123.1,7.83777507 122.977779,7.44666787 122.733333,7.20666667 C122.488888,6.96666547 122.180002,6.84666667 121.806667,6.84666667 C121.477776,6.84666667 121.177779,6.94222127 120.906667,7.13333333 C120.635554,7.3244454 120.451112,7.5622208 120.353333,7.84666667 L120.353333,12.1666667 L118.62,12.1666667 L118.62,6.96666667 L117.66,6.96666667 L117.66,5.5 Z M132.566667,12.1666667 C132.566667,12.6466691 132.484445,13.0644427 132.32,13.42 C132.155555,13.7755573 131.92889,14.0711099 131.64,14.3066667 C131.35111,14.5422234 131.008891,14.715555 130.613333,14.8266667 C130.217776,14.9377783 129.784447,14.9933333 129.313333,14.9933333 C128.993332,14.9933333 128.693335,14.9688891 128.413333,14.92 C128.133332,14.8711109 127.875557,14.8066671 127.64,14.7266667 C127.404443,14.6466663 127.197779,14.5600005 127.02,14.4666667 C126.842221,14.3733329 126.700001,14.2822227 126.593333,14.1933333 L127.26,12.9666667 C127.473334,13.1088896 127.728887,13.2444438 128.026667,13.3733333 C128.324446,13.5022229 128.699998,13.5666667 129.153333,13.5666667 C129.713336,13.5666667 130.139999,13.4377791 130.433333,13.18 C130.726668,12.9222209 130.873333,12.5533357 130.873333,12.0733333 L130.873333,11.6466667 L130.82,11.6466667 C130.659999,11.8600011 130.424446,12.0177773 130.113333,12.12 C129.802221,12.2222227 129.442224,12.2733333 129.033333,12.2733333 C128.606665,12.2733333 128.213335,12.2066673 127.853333,12.0733333 C127.493332,11.9399993 127.180001,11.7377791 126.913333,11.4666667 C126.646665,11.1955542 126.440001,10.8511132 126.293333,10.4333333 C126.146666,10.0155535 126.073333,9.52666947 126.073333,8.96666667 C126.073333,8.37999707 126.159999,7.86000227 126.333333,7.40666667 C126.506668,6.95333107 126.75111,6.57333487 127.066667,6.26666667 C127.382224,5.95999847 127.759998,5.72888967 128.2,5.57333333 C128.640002,5.417777 129.131108,5.34 129.673333,5.34 C129.957779,5.34 130.242221,5.351111 130.526667,5.37333333 C130.811113,5.39555567 131.079999,5.42444427 131.333333,5.46 C131.586668,5.49555573 131.819999,5.53777753 132.033333,5.58666667 C132.246668,5.6355558 132.424444,5.6866664 132.566667,5.74 L132.566667,12.1666667 Z M129.366667,10.8866667 C129.704446,10.8866667 130.008888,10.8111119 130.28,10.66 C130.551112,10.5088881 130.735555,10.2822237 130.833333,9.98 L130.833333,6.98 C130.708888,6.9266664 130.533334,6.8844446 130.306667,6.85333333 C130.079999,6.82222207 129.864445,6.80666667 129.66,6.80666667 C129.41111,6.80666667 129.177779,6.84666627 128.96,6.92666667 C128.742221,7.00666707 128.551112,7.13333247 128.386667,7.30666667 C128.222221,7.48000087 128.093334,7.69777647 128,7.96 C127.906666,8.22222353 127.86,8.53555373 127.86,8.9 C127.86,9.2200016 127.9,9.5044432 127.98,9.75333333 C128.06,10.0022235 128.17111,10.2111103 128.313333,10.38 C128.455556,10.5488897 128.615555,10.6755551 128.793333,10.76 C128.971112,10.8444449 129.162221,10.8866667 129.366667,10.8866667 Z" id="FlatPricing" fill="#00000A" fill-rule="nonzero"></path>
                    </g>
                    <g id="Group-2" transform="translate(0.000000, 80.000000)">
                        <g id="Group-3" fill="url(#linearGradient-5)" stroke="#3A008C">
                            <polyline id="Path-20-Copy-2" points="1.58903194e-12 15 6.97623777e-14 1.77635684e-15 5.45454545 0.609625668 10.5454545 4.35583177 13.8181818 8.36363636 21.2727273 11.0909091 26.7272727 18.6631016 26.7272727 20"></polyline>
                        </g>
                        <path d="M39.0733333,12.7 L40.5933333,12.7 L40.5933333,6.3 L39.3133333,6.3 L39.3133333,7.91333333 L37.8466667,7.91333333 L37.8466667,4.83333333 L45.1533333,4.83333333 L45.1533333,7.91333333 L43.6866667,7.91333333 L43.6866667,6.3 L42.42,6.3 L42.42,12.7 L43.9266667,12.7 L43.9266667,14.1666667 L39.0733333,14.1666667 L39.0733333,12.7 Z M46.2866667,12.7 L48.6333333,12.7 L48.6333333,8.96666667 L46.2866667,8.96666667 L46.2866667,7.5 L50.3666667,7.5 L50.3666667,12.7 L52.8333333,12.7 L52.8333333,14.1666667 L46.2866667,14.1666667 L46.2866667,12.7 Z M48.3133333,5.68666667 C48.3133333,5.41110973 48.4155545,5.17555653 48.62,4.98 C48.8244455,4.78444347 49.1088871,4.68666667 49.4733333,4.68666667 C49.8466685,4.68666667 50.1444433,4.78444347 50.3666667,4.98 C50.58889,5.17555653 50.7,5.41110973 50.7,5.68666667 C50.7,5.97111253 50.58889,6.20444353 50.3666667,6.38666667 C50.1444433,6.5688898 49.8466685,6.66 49.4733333,6.66 C49.1088871,6.66 48.8244455,6.5688898 48.62,6.38666667 C48.4155545,6.20444353 48.3133333,5.97111253 48.3133333,5.68666667 Z M60.62,13.46 C60.5044439,13.5666672 60.3555565,13.6711106 60.1733333,13.7733333 C59.9911102,13.8755561 59.777779,13.9711107 59.5333333,14.06 C59.2888877,14.1488893 59.0200015,14.2199997 58.7266667,14.2733333 C58.4333319,14.3266669 58.1222239,14.3533333 57.7933333,14.3533333 C57.2244416,14.3533333 56.7155578,14.2733341 56.2666667,14.1133333 C55.8177755,13.9533325 55.4377793,13.7200015 55.1266667,13.4133333 C54.815554,13.1066651 54.5777786,12.7377799 54.4133333,12.3066667 C54.2488881,11.8755534 54.1666667,11.3844472 54.1666667,10.8333333 C54.1666667,10.2466637 54.2599991,9.73333553 54.4466667,9.29333333 C54.6333343,8.85333113 54.8888873,8.48666813 55.2133333,8.19333333 C55.5377794,7.89999853 55.9177756,7.68000073 56.3533333,7.53333333 C56.7888911,7.38666593 57.2599975,7.31333333 57.7666667,7.31333333 C58.1044461,7.31333333 58.4533315,7.35777733 58.8133333,7.44666667 C59.1733351,7.535556 59.5044429,7.6888878 59.8066667,7.90666667 C60.1088904,8.12444553 60.3555546,8.41555373 60.5466667,8.78 C60.7377787,9.14444627 60.8333333,9.60666387 60.8333333,10.1666667 C60.8333333,10.5488908 60.7888893,10.96222 60.7,11.4066667 L55.9,11.4066667 C55.9088889,11.6911125 55.9688883,11.9311101 56.08,12.1266667 C56.1911117,12.3222232 56.3377769,12.4822216 56.52,12.6066667 C56.7022231,12.7311117 56.9111099,12.8222219 57.1466667,12.88 C57.3822234,12.9377781 57.633332,12.9666667 57.9,12.9666667 C58.433336,12.9666667 58.8711094,12.9044451 59.2133333,12.78 C59.5555573,12.6555549 59.8333323,12.5044453 60.0466667,12.3266667 L60.62,13.46 Z M57.74,8.7 C57.5088877,8.7 57.2911121,8.7311108 57.0866667,8.79333333 C56.8822212,8.85555587 56.6977786,8.94666607 56.5333333,9.06666667 C56.3688881,9.18666727 56.2333339,9.33555467 56.1266667,9.51333333 C56.0199995,9.691112 55.9577779,9.89111 55.94,10.1133333 L59.22,10.1133333 C59.22,9.6777756 59.097779,9.3333346 58.8533333,9.08 C58.6088877,8.8266654 58.2377803,8.7 57.74,8.7 Z M62.02,12.7 L63.6733333,12.7 L63.6733333,8.96666667 L62.02,8.96666667 L62.02,7.5 L65.02,7.5 L65.22,8.38 L65.2733333,8.38 C65.5222235,8.0866652 65.8066651,7.8422232 66.1266667,7.64666667 C66.4466683,7.45111013 66.8199979,7.35333333 67.2466667,7.35333333 C67.7800027,7.35333333 68.1999985,7.54888693 68.5066667,7.94 C68.8133349,8.33111307 68.9666667,8.98443987 68.9666667,9.9 L67.4066667,9.9 C67.4066667,9.5799984 67.3600005,9.3466674 67.2666667,9.2 C67.1733329,9.0533326 67.0244455,8.98 66.82,8.98 C66.4644427,8.98 66.1777789,9.068888 65.96,9.24666667 C65.7422211,9.42444533 65.5577785,9.62888773 65.4066667,9.86 L65.4066667,12.7 L68.3,12.7 L68.3,14.1666667 L62.02,14.1666667 L62.02,12.7 Z M76.62,13.46 C76.5044439,13.5666672 76.3555565,13.6711106 76.1733333,13.7733333 C75.9911102,13.8755561 75.777779,13.9711107 75.5333333,14.06 C75.2888877,14.1488893 75.0200015,14.2199997 74.7266667,14.2733333 C74.4333319,14.3266669 74.1222239,14.3533333 73.7933333,14.3533333 C73.2244416,14.3533333 72.7155578,14.2733341 72.2666667,14.1133333 C71.8177755,13.9533325 71.4377793,13.7200015 71.1266667,13.4133333 C70.815554,13.1066651 70.5777786,12.7377799 70.4133333,12.3066667 C70.2488881,11.8755534 70.1666667,11.3844472 70.1666667,10.8333333 C70.1666667,10.2466637 70.2599991,9.73333553 70.4466667,9.29333333 C70.6333343,8.85333113 70.8888873,8.48666813 71.2133333,8.19333333 C71.5377794,7.89999853 71.9177756,7.68000073 72.3533333,7.53333333 C72.7888911,7.38666593 73.2599975,7.31333333 73.7666667,7.31333333 C74.1044461,7.31333333 74.4533315,7.35777733 74.8133333,7.44666667 C75.1733351,7.535556 75.5044429,7.6888878 75.8066667,7.90666667 C76.1088904,8.12444553 76.3555546,8.41555373 76.5466667,8.78 C76.7377787,9.14444627 76.8333333,9.60666387 76.8333333,10.1666667 C76.8333333,10.5488908 76.7888893,10.96222 76.7,11.4066667 L71.9,11.4066667 C71.9088889,11.6911125 71.9688883,11.9311101 72.08,12.1266667 C72.1911117,12.3222232 72.3377769,12.4822216 72.52,12.6066667 C72.7022231,12.7311117 72.9111099,12.8222219 73.1466667,12.88 C73.3822234,12.9377781 73.633332,12.9666667 73.9,12.9666667 C74.433336,12.9666667 74.8711094,12.9044451 75.2133333,12.78 C75.5555573,12.6555549 75.8333323,12.5044453 76.0466667,12.3266667 L76.62,13.46 Z M73.74,8.7 C73.5088877,8.7 73.2911121,8.7311108 73.0866667,8.79333333 C72.8822212,8.85555587 72.6977786,8.94666607 72.5333333,9.06666667 C72.3688881,9.18666727 72.2333339,9.33555467 72.1266667,9.51333333 C72.0199995,9.691112 71.9577779,9.89111 71.94,10.1133333 L75.22,10.1133333 C75.22,9.6777756 75.097779,9.3333346 74.8533333,9.08 C74.6088877,8.8266654 74.2377803,8.7 73.74,8.7 Z M81.58,4.83333333 L84.3666667,4.83333333 L84.3666667,10.5933333 C84.3666667,11.2600033 84.4022219,11.9177745 84.4733333,12.5666667 C84.4733333,12.6111113 84.4777777,12.6555553 84.4866667,12.7 L85.34,12.7 L85.34,14.1666667 L83.1933333,14.1666667 L83.02,13.3133333 L82.9666667,13.3133333 C82.8777773,13.4733341 82.7577785,13.6155549 82.6066667,13.74 C82.4555548,13.8644451 82.2866676,13.9733329 82.1,14.0666667 C81.9133324,14.1600005 81.70889,14.2311109 81.4866667,14.28 C81.2644433,14.3288891 81.0422233,14.3533333 80.82,14.3533333 C80.4022201,14.3533333 80.0088907,14.2866673 79.64,14.1533333 C79.2711093,14.0199993 78.9488903,13.8133347 78.6733333,13.5333333 C78.3977764,13.2533319 78.1800008,12.8977799 78.02,12.4666667 C77.8599992,12.0355534 77.78,11.5266696 77.78,10.94 C77.78,10.3711083 77.8666658,9.86444667 78.04,9.42 C78.2133342,8.97555333 78.4533318,8.60000153 78.76,8.29333333 C79.0666682,7.98666513 79.4288868,7.75111193 79.8466667,7.58666667 C80.2644465,7.4222214 80.7222197,7.34 81.22,7.34 C81.4955569,7.34 81.7555543,7.3555554 82,7.38666667 C82.2444457,7.41777793 82.4555547,7.46888853 82.6333333,7.54 L82.6333333,6.3 L81.58,6.3 L81.58,4.83333333 Z M81.22,12.8866667 C81.5577795,12.8866667 81.8577765,12.8044453 82.12,12.64 C82.3822235,12.4755547 82.5533329,12.2377793 82.6333333,11.9266667 L82.6333333,9.1 C82.5088883,9.00222173 82.3377789,8.92888913 82.12,8.88 C81.9022211,8.83111087 81.6733345,8.80666667 81.4333333,8.80666667 C81.1933321,8.80666667 80.9600011,8.84666627 80.7333333,8.92666667 C80.5066655,9.00666707 80.3066675,9.13333247 80.1333333,9.30666667 C79.9599991,9.48000087 79.8222227,9.70444307 79.72,9.98 C79.6177773,10.2555569 79.5666667,10.5933313 79.5666667,10.9933333 C79.5666667,11.5622251 79.7088875,12.0199983 79.9933333,12.3666667 C80.2777792,12.7133351 80.686664,12.8866667 81.22,12.8866667 Z M94.4733333,4.92666667 C94.8466685,4.8555552 95.2577755,4.8000002 95.7066667,4.76 C96.1555578,4.7199998 96.60222,4.7 97.0466667,4.7 C97.5088912,4.7 97.973331,4.7377774 98.44,4.81333333 C98.906669,4.88888927 99.3266648,5.03999887 99.7,5.26666667 C100.073335,5.49333447 100.377777,5.80888687 100.613333,6.21333333 C100.84889,6.6177798 100.966667,7.1444412 100.966667,7.79333333 C100.966667,8.36222507 100.864445,8.84888687 100.66,9.25333333 C100.455555,9.6577798 100.184446,9.9911098 99.8466667,10.2533333 C99.5088872,10.5155569 99.1244466,10.7066661 98.6933333,10.8266667 C98.2622201,10.9466673 97.8155579,11.0066667 97.3533333,11.0066667 L97.14,11.0066667 C97.0422217,11.0066667 96.9400005,11.0044445 96.8333333,11 C96.7266661,10.9955555 96.6222227,10.9888889 96.52,10.98 C96.4177773,10.9711111 96.3444447,10.9622223 96.3,10.9533333 L96.3,14.1666667 L94.4733333,14.1666667 L94.4733333,4.92666667 Z M97.1933333,6.27333333 C97.0155547,6.27333333 96.8466675,6.27999993 96.6866667,6.29333333 C96.5266659,6.30666673 96.3977783,6.32222213 96.3,6.34 L96.3,9.36666667 C96.3355557,9.3755556 96.3888885,9.3844444 96.46,9.39333333 C96.5311115,9.40222227 96.6066663,9.40888887 96.6866667,9.41333333 C96.7666671,9.4177778 96.8444441,9.42 96.92,9.42 L97.0866667,9.42 C97.3266679,9.42 97.5644433,9.397778 97.8,9.35333333 C98.0355567,9.30888867 98.2466657,9.22666727 98.4333333,9.10666667 C98.6200009,8.98666607 98.7688883,8.82000107 98.88,8.60666667 C98.9911117,8.39333227 99.0466667,8.11333507 99.0466667,7.76666667 C99.0466667,7.47333187 98.9933339,7.23111207 98.8866667,7.04 C98.7799995,6.84888793 98.6400009,6.69555613 98.4666667,6.58 C98.2933325,6.46444387 98.0955567,6.38444467 97.8733333,6.34 C97.65111,6.29555533 97.4244456,6.27333333 97.1933333,6.27333333 Z M102.02,12.7 L103.673333,12.7 L103.673333,8.96666667 L102.02,8.96666667 L102.02,7.5 L105.02,7.5 L105.22,8.38 L105.273333,8.38 C105.522223,8.0866652 105.806665,7.8422232 106.126667,7.64666667 C106.446668,7.45111013 106.819998,7.35333333 107.246667,7.35333333 C107.780003,7.35333333 108.199998,7.54888693 108.506667,7.94 C108.813335,8.33111307 108.966667,8.98443987 108.966667,9.9 L107.406667,9.9 C107.406667,9.5799984 107.36,9.3466674 107.266667,9.2 C107.173333,9.0533326 107.024445,8.98 106.82,8.98 C106.464443,8.98 106.177779,9.068888 105.96,9.24666667 C105.742221,9.42444533 105.557779,9.62888773 105.406667,9.86 L105.406667,12.7 L108.3,12.7 L108.3,14.1666667 L102.02,14.1666667 L102.02,12.7 Z M110.286667,12.7 L112.633333,12.7 L112.633333,8.96666667 L110.286667,8.96666667 L110.286667,7.5 L114.366667,7.5 L114.366667,12.7 L116.833333,12.7 L116.833333,14.1666667 L110.286667,14.1666667 L110.286667,12.7 Z M112.313333,5.68666667 C112.313333,5.41110973 112.415555,5.17555653 112.62,4.98 C112.824445,4.78444347 113.108887,4.68666667 113.473333,4.68666667 C113.846669,4.68666667 114.144443,4.78444347 114.366667,4.98 C114.58889,5.17555653 114.7,5.41110973 114.7,5.68666667 C114.7,5.97111253 114.58889,6.20444353 114.366667,6.38666667 C114.144443,6.5688898 113.846669,6.66 113.473333,6.66 C113.108887,6.66 112.824445,6.5688898 112.62,6.38666667 C112.415555,6.20444353 112.313333,5.97111253 112.313333,5.68666667 Z M124.78,13.5266667 C124.415554,13.8022236 123.988891,14.0088882 123.5,14.1466667 C123.011109,14.2844451 122.500003,14.3533333 121.966667,14.3533333 C121.388886,14.3533333 120.875558,14.2688897 120.426667,14.1 C119.977776,13.9311103 119.600002,13.6933349 119.293333,13.3866667 C118.986665,13.0799985 118.753334,12.7088911 118.593333,12.2733333 C118.433333,11.8377756 118.353333,11.3577804 118.353333,10.8333333 C118.353333,10.2733305 118.446666,9.77555773 118.633333,9.34 C118.820001,8.90444227 119.079998,8.53555707 119.413333,8.23333333 C119.746668,7.9311096 120.139998,7.702223 120.593333,7.54666667 C121.046669,7.39111033 121.539997,7.31333333 122.073333,7.31333333 C122.571114,7.31333333 123.037776,7.37111053 123.473333,7.48666667 C123.908891,7.6022228 124.242221,7.7133328 124.473333,7.82 L124.473333,10.1666667 L123.006667,10.1666667 L123.006667,8.94 C122.73111,8.87777747 122.455557,8.84666667 122.18,8.84666667 C121.93111,8.84666667 121.684446,8.88444407 121.44,8.96 C121.195554,9.03555593 120.977779,9.15555473 120.786667,9.32 C120.595555,9.48444527 120.440001,9.69110987 120.32,9.94 C120.199999,10.1888901 120.14,10.4866649 120.14,10.8333333 C120.14,11.1177792 120.188888,11.3799988 120.286667,11.62 C120.384445,11.8600012 120.522221,12.068888 120.7,12.2466667 C120.877779,12.4244453 121.097776,12.5644439 121.36,12.6666667 C121.622224,12.7688894 121.913332,12.82 122.233333,12.82 C122.740003,12.82 123.155554,12.7488896 123.48,12.6066667 C123.804446,12.4644437 124.046666,12.3400005 124.206667,12.2333333 L124.78,13.5266667 Z M126.286667,12.7 L128.633333,12.7 L128.633333,8.96666667 L126.286667,8.96666667 L126.286667,7.5 L130.366667,7.5 L130.366667,12.7 L132.833333,12.7 L132.833333,14.1666667 L126.286667,14.1666667 L126.286667,12.7 Z M128.313333,5.68666667 C128.313333,5.41110973 128.415555,5.17555653 128.62,4.98 C128.824445,4.78444347 129.108887,4.68666667 129.473333,4.68666667 C129.846669,4.68666667 130.144443,4.78444347 130.366667,4.98 C130.58889,5.17555653 130.7,5.41110973 130.7,5.68666667 C130.7,5.97111253 130.58889,6.20444353 130.366667,6.38666667 C130.144443,6.5688898 129.846669,6.66 129.473333,6.66 C129.108887,6.66 128.824445,6.5688898 128.62,6.38666667 C128.415555,6.20444353 128.313333,5.97111253 128.313333,5.68666667 Z M133.66,7.5 L135.993333,7.5 L136.193333,8.38 L136.246667,8.38 C136.451112,8.09555413 136.744443,7.84666773 137.126667,7.63333333 C137.508891,7.41999893 137.966664,7.31333333 138.5,7.31333333 C138.828891,7.31333333 139.137776,7.35777733 139.426667,7.44666667 C139.715557,7.535556 139.962221,7.6822212 140.166667,7.88666667 C140.371112,8.09111213 140.533333,8.36888713 140.653333,8.72 C140.773334,9.07111287 140.833333,9.50444187 140.833333,10.02 L140.833333,14.1666667 L139.1,14.1666667 L139.1,10.38 C139.1,9.83777507 138.977779,9.44666787 138.733333,9.20666667 C138.488888,8.96666547 138.180002,8.84666667 137.806667,8.84666667 C137.477776,8.84666667 137.177779,8.94222127 136.906667,9.13333333 C136.635554,9.3244454 136.451112,9.5622208 136.353333,9.84666667 L136.353333,14.1666667 L134.62,14.1666667 L134.62,8.96666667 L133.66,8.96666667 L133.66,7.5 Z M148.566667,14.1666667 C148.566667,14.6466691 148.484445,15.0644427 148.32,15.42 C148.155555,15.7755573 147.92889,16.0711099 147.64,16.3066667 C147.35111,16.5422234 147.008891,16.715555 146.613333,16.8266667 C146.217776,16.9377783 145.784447,16.9933333 145.313333,16.9933333 C144.993332,16.9933333 144.693335,16.9688891 144.413333,16.92 C144.133332,16.8711109 143.875557,16.8066671 143.64,16.7266667 C143.404443,16.6466663 143.197779,16.5600005 143.02,16.4666667 C142.842221,16.3733329 142.700001,16.2822227 142.593333,16.1933333 L143.26,14.9666667 C143.473334,15.1088896 143.728887,15.2444438 144.026667,15.3733333 C144.324446,15.5022229 144.699998,15.5666667 145.153333,15.5666667 C145.713336,15.5666667 146.139999,15.4377791 146.433333,15.18 C146.726668,14.9222209 146.873333,14.5533357 146.873333,14.0733333 L146.873333,13.6466667 L146.82,13.6466667 C146.659999,13.8600011 146.424446,14.0177773 146.113333,14.12 C145.802221,14.2222227 145.442224,14.2733333 145.033333,14.2733333 C144.606665,14.2733333 144.213335,14.2066673 143.853333,14.0733333 C143.493332,13.9399993 143.180001,13.7377791 142.913333,13.4666667 C142.646665,13.1955542 142.440001,12.8511132 142.293333,12.4333333 C142.146666,12.0155535 142.073333,11.5266695 142.073333,10.9666667 C142.073333,10.3799971 142.159999,9.86000227 142.333333,9.40666667 C142.506668,8.95333107 142.75111,8.57333487 143.066667,8.26666667 C143.382224,7.95999847 143.759998,7.72888967 144.2,7.57333333 C144.640002,7.417777 145.131108,7.34 145.673333,7.34 C145.957779,7.34 146.242221,7.351111 146.526667,7.37333333 C146.811113,7.39555567 147.079999,7.42444427 147.333333,7.46 C147.586668,7.49555573 147.819999,7.53777753 148.033333,7.58666667 C148.246668,7.6355558 148.424444,7.6866664 148.566667,7.74 L148.566667,14.1666667 Z M145.366667,12.8866667 C145.704446,12.8866667 146.008888,12.8111119 146.28,12.66 C146.551112,12.5088881 146.735555,12.2822237 146.833333,11.98 L146.833333,8.98 C146.708888,8.9266664 146.533334,8.8844446 146.306667,8.85333333 C146.079999,8.82222207 145.864445,8.80666667 145.66,8.80666667 C145.41111,8.80666667 145.177779,8.84666627 144.96,8.92666667 C144.742221,9.00666707 144.551112,9.13333247 144.386667,9.30666667 C144.222221,9.48000087 144.093334,9.69777647 144,9.96 C143.906666,10.2222235 143.86,10.5355537 143.86,10.9 C143.86,11.2200016 143.9,11.5044432 143.98,11.7533333 C144.06,12.0022235 144.17111,12.2111103 144.313333,12.38 C144.455556,12.5488897 144.615555,12.6755551 144.793333,12.76 C144.971112,12.8444449 145.162221,12.8866667 145.366667,12.8866667 Z" id="TieredPricing" fill="#00000A" fill-rule="nonzero"></path>
                    </g>
                </g>
            </g>
        </g>
    </g>
</svg>