<svg xmlns="http://www.w3.org/2000/svg" xmlns:xlink="http://www.w3.org/1999/xlink" viewBox="0 0 1440 768"><defs><style>.a{fill:url(#a);}.b{fill:url(#b);}.c{fill:url(#c);}.d,.o{fill:#fff;}.d{opacity:0.5;}.d,.da,.dd,.di,.dl,.dp,.dq{isolation:isolate;}.e{fill:url(#d);}.f{fill:url(#e);}.g{fill:url(#f);}.h{fill:url(#g);}.i{fill:url(#h);}.j{fill:url(#i);}.k{fill:url(#j);}.l{fill:url(#k);}.m{fill:url(#l);}.n{fill:url(#m);}.p{fill:#65469b;}.q{fill:url(#n);}.r{fill:url(#o);}.s{fill:url(#p);}.t{fill:url(#q);}.u{fill:#52489c;}.v{fill:url(#r);}.w{fill:url(#s);}.x{fill:url(#t);}.y{fill:url(#u);}.z{fill:url(#v);}.aa{fill:url(#w);}.ab{fill:url(#x);}.ac{fill:url(#y);}.ad{fill:url(#z);}.ae{fill:url(#aa);}.af{fill:url(#ab);}.ag{fill:url(#ac);}.ah{fill:url(#ad);}.ai{fill:url(#ae);}.aj{fill:url(#af);}.ak{fill:url(#ag);}.al{fill:#0e0f1d;}.am{fill:url(#ah);}.an{fill:#583f90;}.ao{fill:#170c47;}.ap{fill:url(#ai);}.aq{fill:url(#aj);}.ar{fill:url(#ak);}.as{fill:url(#al);}.at{fill:url(#am);}.au{fill:url(#an);}.av{fill:url(#ao);}.aw{fill:url(#ap);}.ax{fill:url(#aq);}.ay,.di,.dp,.dq{fill:#0c0f19;}.az{fill:url(#ar);}.ba{fill:url(#as);}.bb{fill:url(#at);}.bc{fill:url(#au);}.bd{fill:url(#av);}.be{fill:url(#aw);}.bf{fill:url(#ax);}.bg{fill:url(#ay);}.bh{fill:none;stroke:#0c0f19;stroke-miterlimit:10;stroke-width:2px;}.bi{fill:url(#az);}.bj{fill:url(#ba);}.bk{fill:url(#bb);}.bl{fill:url(#bc);}.bm{fill:url(#bd);}.bn{fill:url(#be);}.bo{fill:url(#bf);}.bp{fill:url(#bg);}.bq{fill:url(#bh);}.br{fill:url(#bi);}.bs{fill:url(#bj);}.bt{fill:url(#bk);}.bu{fill:url(#bl);}.bv{fill:url(#bm);}.bw{fill:url(#bn);}.bx{fill:url(#bo);}.by{fill:url(#bp);}.bz{fill:url(#bq);}.ca{fill:url(#br);}.cb{fill:url(#bs);}.cc{fill:url(#bt);}.cd{fill:url(#bu);}.ce{fill:url(#bv);}.cf{fill:url(#bw);}.cg{fill:url(#bx);}.ch{fill:url(#by);}.ci{fill:url(#bz);}.cj{fill:url(#ca);}.ck{fill:url(#cb);}.cl{fill:url(#cc);}.cm{fill:url(#cd);}.cn{fill:url(#ce);}.co{fill:url(#cf);}.cp{fill:url(#cg);}.cq{fill:url(#ch);}.cr{fill:url(#ci);}.cs{fill:#f1f1f2;}.ct{fill:#d0d2d3;}.cu{fill:url(#cj);}.cv{fill:#808184;}.cw{fill:url(#ck);}.cx{fill:url(#cl);}.cy{fill:#e96f9a;}.cz{fill:url(#cm);}.da,.dd{fill:#0f1039;}.da,.dl{opacity:0.2;}.db{fill:#100f15;}.dc{fill:#482d84;}.dd,.dp{opacity:0.4;}.de{fill:url(#cn);}.df{fill:url(#co);}.dg{fill:#1d1f35;}.dh,.di{opacity:0.6;}.dj{fill:url(#cp);}.dk{fill:#eb6f9b;}.dl{fill:#09083a;}.dm{fill:#fce8b2;}.dn{fill:url(#cq);}.do{fill:url(#cr);}.dq{opacity:0.3;}.dr{fill:url(#cs);}</style><linearGradient id="a" x1="719.99" y1="624.13" x2="719.99" y2="-2.55" gradientUnits="userSpaceOnUse"><stop offset="0" stop-color="#d3b1d3"/><stop offset="0.21" stop-color="#c4667b"/><stop offset="1" stop-color="#39227c"/></linearGradient><linearGradient id="b" x1="551.11" y1="560.19" x2="589.73" y2="684.88" gradientTransform="matrix(0.99, 0.16, -0.16, 0.99, 446.94, -366.65)" gradientUnits="userSpaceOnUse"><stop offset="0" stop-color="#fff" stop-opacity="0.2"/><stop offset="1" stop-color="#4f4f90" stop-opacity="0"/></linearGradient><linearGradient id="c" x1="531.23" y1="306.1" x2="593.64" y2="306.1" gradientTransform="matrix(1, 0, 0, 1, 0, 0)" xlink:href="#b"/><radialGradient id="d" cx="634.06" cy="149.23" r="8.26" gradientUnits="userSpaceOnUse"><stop offset="0" stop-color="#4f4f90" stop-opacity="0"/><stop offset="1" stop-color="#fff" stop-opacity="0.2"/></radialGradient><radialGradient id="e" cx="634.06" cy="149.23" r="4.32" gradientTransform="matrix(1, 0, 0, -1, 0, 768)" xlink:href="#d"/><radialGradient id="f" cx="823.96" cy="207.79" r="8.26" gradientTransform="matrix(1, 0, 0, -1, 0, 768)" xlink:href="#d"/><radialGradient id="g" cx="823.96" cy="207.79" r="4.32" gradientTransform="matrix(1, 0, 0, -1, 0, 768)" xlink:href="#d"/><radialGradient id="h" cx="1021" cy="130.79" r="8.26" gradientTransform="translate(707.34 -850.8) rotate(64.75)" xlink:href="#d"/><radialGradient id="i" cx="1021" cy="130.79" r="4.32" gradientTransform="matrix(1, 0, 0, -1, 0, 768)" xlink:href="#d"/><radialGradient id="j" cx="815.7" cy="117.38" r="8.26" gradientTransform="matrix(1, 0, 0, -1, 0, 768)" xlink:href="#d"/><radialGradient id="k" cx="815.7" cy="117.38" r="4.32" gradientTransform="matrix(1, 0, 0, -1, 0, 768)" xlink:href="#d"/><radialGradient id="l" cx="903.73" cy="53.79" r="8.26" gradientTransform="matrix(1, 0, 0, -1, 0, 768)" xlink:href="#d"/><radialGradient id="m" cx="903.73" cy="53.79" r="4.32" gradientTransform="matrix(1, 0, 0, -1, 0, 768)" xlink:href="#d"/><linearGradient id="n" x1="425.99" y1="55.78" x2="519.81" y2="369.85" gradientTransform="matrix(1, 0, 0, 1, 0, 0)" xlink:href="#b"/><linearGradient id="o" x1="1222.6" y1="46.12" x2="1217.9" y2="277.62" gradientTransform="matrix(1, 0, 0, 1, 0, 0)" xlink:href="#b"/><linearGradient id="p" x1="948.03" y1="139.08" x2="942.82" y2="395.8" gradientTransform="matrix(1, 0, 0, 1, 0, 0)" xlink:href="#b"/><linearGradient id="q" x1="572.93" y1="250.84" x2="546.87" y2="433.28" gradientTransform="matrix(1, 0, 0, 1, 0, 0)" xlink:href="#b"/><linearGradient id="r" x1="1202.96" y1="634.44" x2="1202.96" y2="718.92" gradientUnits="userSpaceOnUse"><stop offset="0" stop-color="#17182b"/><stop offset="1" stop-color="#52489c" stop-opacity="0"/></linearGradient><linearGradient id="s" x1="716.01" y1="486.8" x2="722.51" y2="712.88" gradientUnits="userSpaceOnUse"><stop offset="0" stop-color="#181a2c"/><stop offset="0.61" stop-color="#52489c" stop-opacity="0"/></linearGradient><linearGradient id="t" x1="733.45" y1="397.52" x2="716.61" y2="732.45" gradientUnits="userSpaceOnUse"><stop offset="0" stop-color="#f2994c"/><stop offset="1" stop-color="#f06f9f" stop-opacity="0"/></linearGradient><linearGradient id="u" x1="719.81" y1="99.93" x2="719.81" y2="481.34" gradientUnits="userSpaceOnUse"><stop offset="0" stop-color="#432e7b"/><stop offset="1" stop-color="#190d48"/></linearGradient><linearGradient id="v" x1="-0.01" y1="539.27" x2="1439.99" y2="539.27" gradientUnits="userSpaceOnUse"><stop offset="0" stop-color="#3b2f74"/><stop offset="1" stop-color="#0c0f19"/></linearGradient><linearGradient id="w" x1="1067.57" y1="640.5" x2="1439.99" y2="640.5" xlink:href="#v"/><linearGradient id="x" x1="744.89" y1="606.21" x2="745.41" y2="624.33" gradientUnits="userSpaceOnUse"><stop offset="0" stop-color="#9e8361" stop-opacity="0.6"/><stop offset="1" stop-color="#f06f9f" stop-opacity="0"/></linearGradient><linearGradient id="y" x1="664.02" y1="645.47" x2="665" y2="679.53" xlink:href="#x"/><linearGradient id="z" x1="878.29" y1="657.85" x2="878.29" y2="748.71" xlink:href="#x"/><linearGradient id="aa" x1="637.93" y1="424.93" x2="637.93" y2="690.74" xlink:href="#x"/><linearGradient id="ab" x1="701.18" y1="465.26" x2="701.18" y2="675.91" xlink:href="#x"/><linearGradient id="ac" x1="1156.04" y1="709.95" x2="1156.04" y2="763.89" xlink:href="#x"/><linearGradient id="ad" x1="517.66" y1="224.95" x2="513.75" y2="341.8" gradientTransform="matrix(1, 0, 0, 1, 0, 0)" xlink:href="#b"/><linearGradient id="ae" x1="1273.79" y1="637.2" x2="1314.12" y2="637.2" xlink:href="#x"/><linearGradient id="af" x1="1129.89" y1="618.61" x2="1214.14" y2="618.61" gradientTransform="matrix(1, 0, 0, 1, 0, 0)" xlink:href="#b"/><linearGradient id="ag" x1="1191.3" y1="641.43" x2="1253.78" y2="641.43" xlink:href="#x"/><linearGradient id="ah" x1="1254.21" y1="661.51" x2="1253.23" y2="809.13" xlink:href="#s"/><linearGradient id="ai" x1="193.58" y1="362.36" x2="203.47" y2="362.36" gradientUnits="userSpaceOnUse"><stop offset="0" stop-color="#7182bc"/><stop offset="1" stop-color="#3b2f74"/></linearGradient><linearGradient id="aj" x1="712.13" y1="559.1" x2="1129.13" y2="559.1" xlink:href="#v"/><linearGradient id="ak" x1="470.58" y1="409.24" x2="473.18" y2="611.23" xlink:href="#v"/><linearGradient id="al" x1="323.85" y1="467.51" x2="323.85" y2="185.84" gradientTransform="matrix(1, 0, 0, 1, 0, 0)" xlink:href="#b"/><linearGradient id="am" x1="511.38" y1="439.31" x2="511.38" y2="308.37" gradientTransform="matrix(1, 0, 0, 1, 0, 0)" xlink:href="#b"/><linearGradient id="an" x1="802.41" y1="350.81" x2="868.88" y2="506.22" gradientTransform="matrix(1, 0, 0, 1, 0, 0)" xlink:href="#b"/><linearGradient id="ao" x1="1182.23" y1="254.11" x2="1319.06" y2="414.4" gradientTransform="matrix(1, 0, 0, 1, 0, 0)" xlink:href="#b"/><linearGradient id="ap" x1="3695.75" y1="-232.55" x2="3729.6" y2="-123.26" gradientTransform="matrix(-0.99, 0.16, 0.16, 0.99, 4932.53, -366.65)" xlink:href="#b"/><linearGradient id="aq" x1="484.37" y1="11.49" x2="537.82" y2="184.06" gradientTransform="matrix(1, 0, 0, 1, 0, 0)" xlink:href="#b"/><linearGradient id="ar" x1="163.23" y1="549.96" x2="137.81" y2="617.07" gradientUnits="userSpaceOnUse"><stop offset="0" stop-color="#9e8361" stop-opacity="0.6"/><stop offset="1" stop-color="#66447a" stop-opacity="0"/></linearGradient><linearGradient id="as" x1="67.13" y1="543.72" x2="19.56" y2="625.17" xlink:href="#ar"/><linearGradient id="at" x1="125.59" y1="550.88" x2="88.45" y2="619.29" xlink:href="#ar"/><linearGradient id="au" x1="216.35" y1="563.9" x2="192.24" y2="627.1" xlink:href="#ar"/><linearGradient id="av" x1="313.13" y1="559.27" x2="307.91" y2="656.35" xlink:href="#ar"/><linearGradient id="aw" x1="374.95" y1="567.4" x2="384.72" y2="655.36" xlink:href="#ar"/><linearGradient id="ax" x1="274.46" y1="575.48" x2="246.44" y2="664.1" xlink:href="#ar"/><linearGradient id="ay" x1="438.9" y1="598.24" x2="440.86" y2="662.75" xlink:href="#ar"/><linearGradient id="az" x1="105.35" y1="510.55" x2="78.64" y2="531.07" xlink:href="#ar"/><linearGradient id="ba" x1="201.73" y1="512.89" x2="170.78" y2="529.83" xlink:href="#ar"/><linearGradient id="bb" x1="298.42" y1="517.47" x2="269.75" y2="537.99" xlink:href="#ar"/><linearGradient id="bc" x1="447.84" y1="591.41" x2="427.31" y2="618.77" xlink:href="#ar"/><linearGradient id="bd" x1="539.19" y1="673.6" x2="510.19" y2="717.91" xlink:href="#ar"/><linearGradient id="be" x1="421.38" y1="474.26" x2="366.65" y2="646.28" xlink:href="#ar"/><linearGradient id="bf" x1="274.48" y1="513.99" x2="210.33" y2="585.03" xlink:href="#ar"/><linearGradient id="bg" x1="188.64" y1="436.48" x2="124.49" y2="507.52" xlink:href="#ar"/><linearGradient id="bh" x1="196.47" y1="443.55" x2="132.32" y2="514.59" xlink:href="#ar"/><linearGradient id="bi" x1="171.07" y1="420.62" x2="106.92" y2="491.66" xlink:href="#ar"/><linearGradient id="bj" x1="150.84" y1="402.35" x2="86.69" y2="473.39" xlink:href="#ar"/><linearGradient id="bk" x1="200.03" y1="446.78" x2="135.89" y2="517.82" xlink:href="#ar"/><linearGradient id="bl" x1="169.49" y1="419.2" x2="105.35" y2="490.24" xlink:href="#ar"/><linearGradient id="bm" x1="207.7" y1="453.69" x2="143.56" y2="524.73" xlink:href="#ar"/><linearGradient id="bn" x1="204.26" y1="450.59" x2="140.11" y2="521.63" xlink:href="#ar"/><linearGradient id="bo" x1="133.22" y1="386.44" x2="69.07" y2="457.48" xlink:href="#ar"/><linearGradient id="bp" x1="139.98" y1="392.55" x2="75.83" y2="463.59" xlink:href="#ar"/><linearGradient id="bq" x1="142" y1="394.37" x2="77.86" y2="465.41" xlink:href="#ar"/><linearGradient id="br" x1="180.88" y1="429.48" x2="116.74" y2="500.52" xlink:href="#ar"/><linearGradient id="bs" x1="144.87" y1="509.65" x2="125.32" y2="527.57" xlink:href="#ar"/><linearGradient id="bt" x1="214.54" y1="459.87" x2="150.39" y2="530.91" xlink:href="#ar"/><linearGradient id="bu" x1="217.96" y1="462.96" x2="153.82" y2="534" xlink:href="#ar"/><linearGradient id="bv" x1="183.15" y1="431.53" x2="119.01" y2="502.57" xlink:href="#ar"/><linearGradient id="bw" x1="229.75" y1="473.6" x2="165.6" y2="544.64" xlink:href="#ar"/><linearGradient id="bx" x1="231.67" y1="475.34" x2="167.52" y2="546.38" xlink:href="#ar"/><linearGradient id="by" x1="216.5" y1="461.64" x2="152.36" y2="532.69" xlink:href="#ar"/><linearGradient id="bz" x1="170.5" y1="420.1" x2="106.36" y2="491.14" xlink:href="#ar"/><linearGradient id="ca" x1="238.12" y1="481.16" x2="173.97" y2="552.2" xlink:href="#ar"/><linearGradient id="cb" x1="193.33" y1="440.72" x2="129.18" y2="511.76" xlink:href="#ar"/><linearGradient id="cc" x1="172.55" y1="597.36" x2="166.69" y2="630.81" xlink:href="#ar"/><linearGradient id="cd" x1="65.43" y1="365.35" x2="-4.94" y2="365.35" xlink:href="#ar"/><linearGradient id="ce" x1="118.04" y1="163.78" x2="73.95" y2="161.59" xlink:href="#ar"/><linearGradient id="cf" x1="175.09" y1="244.87" x2="141.14" y2="243.18" xlink:href="#ar"/><linearGradient id="cg" x1="321.71" y1="180.59" x2="154.58" y2="121.95" gradientTransform="matrix(1, 0, 0, 1, 0, 0)" xlink:href="#b"/><linearGradient id="ch" x1="208.38" y1="65.44" x2="235.75" y2="58.6" gradientTransform="matrix(1, 0, 0, 1, 0, 0)" xlink:href="#b"/><linearGradient id="ci" x1="193.58" y1="221.58" x2="227.13" y2="221.58" gradientTransform="matrix(1, 0, 0, 1, 0, 0)" xlink:href="#b"/><linearGradient id="cj" x1="387.75" y1="403.3" x2="369.63" y2="482.92" gradientUnits="userSpaceOnUse"><stop offset="0" stop-color="#fff" stop-opacity="0.6"/><stop offset="1" stop-color="#fff"/></linearGradient><linearGradient id="ck" x1="309.97" y1="609.72" x2="301.56" y2="734.98" xlink:href="#ar"/><linearGradient id="cl" x1="361.48" y1="579.41" x2="351.83" y2="723.17" xlink:href="#ar"/><linearGradient id="cm" x1="353.58" y1="409.38" x2="333.79" y2="415.34" xlink:href="#ar"/><linearGradient id="cn" x1="376.83" y1="476.9" x2="412.09" y2="476.9" gradientTransform="matrix(1, 0, 0, 1, 0, 0)" xlink:href="#b"/><linearGradient id="co" x1="367.67" y1="416.05" x2="341.17" y2="505.97" gradientTransform="matrix(1, 0, 0, 1, 0, 0)" xlink:href="#b"/><linearGradient id="cp" x1="529.65" y1="568.16" x2="514.93" y2="665.27" gradientTransform="matrix(1, 0, 0, 1, 0, 0)" xlink:href="#b"/><linearGradient id="cq" x1="262.05" y1="525.72" x2="246.41" y2="545.7" xlink:href="#ar"/><linearGradient id="cr" x1="217.34" y1="678.08" x2="299.59" y2="678.08" xlink:href="#ar"/><linearGradient id="cs" x1="170.91" y1="532.06" x2="259.62" y2="532.06" xlink:href="#ar"/></defs><title>project-mango-banner3-01</title><rect class="a" x="-0.01" y="0.41" width="1440" height="768"/><path class="b" d="M799.71,344.34l225.61-.23s-12.64-16.91-72.91-5.65c-18.59,3.47-27.31-17.58-98.64-12C819.41,329.12,799.71,344.34,799.71,344.34Z"/><path class="c" d="M593.64,347.93a211.14,211.14,0,0,1-62.41-83.67"/><circle class="d" cx="746.37" cy="127.56" r="2.6"/><circle class="d" cx="1397.9" cy="72.4" r="2.6"/><circle class="d" cx="585.57" cy="44.58" r="2.6"/><circle class="d" cx="1100.51" cy="101.47" r="2.6"/><circle class="d" cx="883.77" cy="166.66" r="2.6"/><circle class="d" cx="530.66" cy="223.92" r="2.6"/><circle class="d" cx="813.1" cy="277.85" r="2.6"/><circle class="d" cx="634.06" cy="149.23" r="2.6"/><circle class="e" cx="634.06" cy="149.23" r="8.26"/><circle class="f" cx="634.06" cy="149.23" r="4.32"/><circle class="d" cx="823.96" cy="207.79" r="2.6"/><circle class="g" cx="823.96" cy="207.79" r="8.26"/><circle class="h" cx="823.96" cy="207.79" r="4.32"/><path class="d" d="M1021,128.19a2.6,2.6,0,1,1-2.6,2.6h0a2.59,2.59,0,0,1,2.58-2.6Z"/><circle class="i" cx="1020.99" cy="130.78" r="8.26" transform="translate(467.93 998.92) rotate(-64.8)"/><circle class="j" cx="1021" cy="130.79" r="4.32"/><circle class="d" cx="815.7" cy="117.38" r="2.6"/><circle class="k" cx="815.7" cy="117.38" r="8.26"/><circle class="l" cx="815.7" cy="117.38" r="4.32"/><circle class="d" cx="903.73" cy="53.79" r="2.6"/><circle class="m" cx="903.73" cy="53.79" r="8.26"/><circle class="n" cx="903.73" cy="53.79" r="4.32"/><path class="d" d="M823.85,208v-.17l-8.25-90.27L634.08,149.35v-.24l181.61-31.85,88.08-63.62h.07l117.47,77.13-.22.09Zm-8-90.53,8.24,90.17,196.66-76.85L903.75,54Z"/><circle class="o" cx="713.3" cy="220.15" r="1.17"/><circle class="o" cx="1081.66" cy="171.93" r="1.17"/><circle class="o" cx="396.18" cy="24.53" r="1.17"/><circle class="o" cx="815.7" cy="117.38" r="1.17"/><circle class="o" cx="1021" cy="130.79" r="1.17"/><circle class="o" cx="1295.87" cy="33.72" r="1.17"/><circle class="o" cx="1030.43" cy="63.22" r="1.17"/><path class="o" d="M512.53,97.69a1.17,1.17,0,1,1-1.12,1.22v0A1.17,1.17,0,0,1,512.53,97.69Z"/><polygon class="p" points="-0.01 129.29 76.5 113.48 141.48 47.8 327.66 24.53 497.66 111.75 497.66 172.16 501.69 234.18 519 246.48 591.95 313.44 605.56 404.29 651.8 527.92 670.92 532.56 773.42 445.28 869.49 385.69 884.52 283.71 902.33 258.79 936.47 181.17 1024.56 181.17 1041.47 202.88 1066.92 212.76 1077.75 203.81 1112.89 188.41 1154.84 111.75 1248.59 85.48 1299.18 85.48 1345.14 102.6 1385.12 111.75 1422.35 75.46 1439.99 75.46 1439.99 768.41 -0.01 768.41 -0.01 129.29"/><polygon class="q" points="327.66 24.53 497.66 111.75 501.69 234.18 519 246.48 591.95 313.44 595.86 339.56 569.76 307.72 546.74 335.95 516.43 293.41 497.66 348.99 454.43 239.56 386.01 202.99 376.24 117.93 327.66 24.53"/><polygon class="r" points="1154.84 111.75 1112.89 188.41 1077.75 203.81 1066.92 212.76 1119.69 243.36 1128.82 268.03 1141.85 264.39 1202.96 214.32 1222.54 149.85 1268.25 129.52 1287.15 228.29 1323.41 129.52 1373.62 109.12 1345.14 102.6 1299.18 85.48 1248.59 85.48 1154.84 111.75"/><polygon class="s" points="956.57 181.17 981.56 220.65 965.92 219.39 969.06 264.39 1018.05 311.9 939.99 366.25 869.49 385.69 884.52 283.71 902.33 258.79 936.47 181.17 956.57 181.17"/><polygon class="t" points="519 246.48 519 246.48 591.95 313.44 605.56 404.29 568.89 351.76 539.52 348.17 544.56 320.89 516.43 293.41 519 246.48"/><polygon class="u" points="1046.58 581.47 894.23 577.72 712.13 580.79 615.99 567.35 515.64 556.07 396.28 570.19 299.18 547.46 -0.01 566.92 -0.01 768.41 1439.99 768.41 1439.99 558.56 1326.87 567.35 1046.58 581.47"/><polyline class="v" points="1439.99 726.01 1439.99 693.58 1410.35 684.73 1322.2 684.73 1191.3 693.58 1134.47 684.73 1067.57 684.73 1019.35 687.47 965.92 720.65"/><polyline class="w" points="1439.99 707.24 1439.99 558.56 1326.87 567.35 1046.58 581.47 894.23 577.72 857.69 578.34 712.13 580.79 615.99 567.35 515.64 556.07 396.28 570.19 299.18 547.46 -0.01 566.92 -0.01 691.72"/><polygon class="x" points="-0.01 604.55 128.58 597.48 415.61 609.2 591.95 595.33 612.1 587.17 719.81 580.96 1163.54 580.96 1439.99 587.17 1439.99 604.55 1158.49 595.08 710.56 594.97 978.22 607.56 1232.43 620 1308.34 624.31 886.61 621.03 927.24 632.17 1273.05 641.76 1439.99 647.71 1439.99 662.74 919.26 647.71 731.52 659.29 794.05 675.05 893.99 675.05 1032.13 687.73 1192.18 695.95 1325.83 703.61 1439.99 707.23 1439.99 726.01 1219.14 716.71 1091.1 703.61 914.21 695.95 866.35 687.73 694.03 700.14 316.58 746.46 153.58 741.47 343.96 708.71 401 685.08 2.69 672.04 184.1 656.3 336.45 643.67 580.53 647.71 565.95 632.17 275.8 621.03 125.76 615.44 -0.01 624.31 -0.01 604.55"/><polygon class="y" points="-0.01 318.51 113.72 264.17 302 331.81 410.56 335.13 497.66 348.99 527.4 407.59 615.99 436.11 651.8 527.92 670.92 532.56 773.42 445.28 869.49 385.69 932.77 364.79 1105.51 362.7 1268.25 278.56 1372.51 278.56 1439.99 243.36 1439.99 558.56 837.01 562.06 713.11 564.86 375.49 538.28 -0.38 544.96 -0.01 318.51"/><polygon class="z" points="396.28 570.19 515.64 556.07 615.99 567.35 712.13 580.79 894.23 577.72 1046.58 581.47 1326.87 567.35 1439.99 558.56 1439.99 528.94 1319.9 541.35 1253.78 538.28 1128.16 541.51 1067.57 547.63 883.77 536.74 723.54 549.47 533.98 514.55 232.37 497.08 -0.01 520.67 -0.01 566.92 299.18 547.46 396.28 570.19"/><polygon class="aa" points="1439.99 609.15 1322.2 587.42 1314.12 594.59 1273.79 587.42 1177.71 593.68 1141.81 624.78 1129.89 645.92 1067.57 684.73 1134.47 684.73 1191.3 693.58 1322.2 684.73 1410.35 684.73 1439.99 693.58 1439.99 609.15"/><path class="ab" d="M624,621.37c.72.83,76.15-10,76.15-10l166.26,1.31-184.3,14.67Z"/><path class="ac" d="M549.51,673.29l134-21,96.78,26.24s-93.82-14.5-96.78-13.12S549.51,673.29,549.51,673.29Z"/><path class="ad" d="M804,720.89c4.94-.82,145.17-8.95,145.17-8.95l259.73,22.65L1440,746.46v9.87l-334.48-9.87s-188-21.2-190.93-19.35l-3,1.85L549.51,751.7H355.75l-39.17-5.24,394-31.18Z"/><polygon class="ae" points="738.49 583.17 635.57 596.17 601.03 604.02 430.85 614.06 564.55 616.85 573.67 619.37 509.63 622.4 593.65 629.88 605.81 641.67 591.04 652.24 352.24 653.66 273.45 663.71 474.88 665.36 434.61 678.48 503.31 678.48 372.23 713.04 561.94 693.58 659.02 678.48 789.34 683.09 719.81 657.94 719.81 648.94 885.12 644.79 1002.41 641.67 909.88 634.77 878.29 619.37 942.46 614.85 825.18 606.67 803.02 594.99 848.64 583.89 738.49 583.17"/><polygon class="af" points="738.49 590.66 661.63 604.02 703.98 604.02 606.25 619.37 664.89 632.72 624 634.77 667.47 641.67 534.5 670.98 637.93 678.12 530.27 693.58 667.47 687.47 712.45 678.48 770.45 677.23 706.59 648.06 726.14 644.79 703.98 640.5 830.39 634.77 866.35 626.88 827.13 626.88 764.58 627.16 872.09 614.06 775.66 604.02 803.02 594.99 738.49 590.66"/><polygon class="ag" points="872.09 751.7 951.26 742.06 1265.97 756.33 1439.99 756.33 1439.99 768.41 1012.83 755.24 872.09 751.7"/><polygon class="ah" points="501.69 234.18 497.66 348.99 527.4 407.59 513.71 342.91 519 246.48 501.69 234.18"/><polygon class="ai" points="1314.12 594.59 1308.34 684.73 1288.73 686.99 1273.79 587.42 1293.95 591.01 1295.02 627.35 1307.11 593.35 1314.12 594.59"/><polygon class="aj" points="1177.71 593.68 1141.81 624.78 1129.89 645.92 1156.04 634.22 1165.96 640.92 1177.71 608.92 1214.14 591.31 1177.71 593.68"/><polygon class="ak" points="1191.3 693.58 1219.55 619.37 1225.25 619.08 1225.25 656.33 1245.22 589.28 1253.78 589.28 1250.03 689.61 1222.54 691.47 1217.87 673.75 1209.64 692.34 1191.3 693.58"/><polygon class="al" points="1314.12 594.59 1308.34 684.73 1288.73 686.99 1273.79 587.42 1293.95 591.01 1295.02 627.35 1307.11 593.35 1314.12 594.59"/><polygon class="al" points="1191.3 693.58 1219.55 619.37 1225.25 619.08 1225.25 656.33 1245.22 589.28 1253.78 589.28 1250.03 689.61 1222.54 691.47 1217.87 673.75 1209.64 692.34 1191.3 693.58"/><polygon class="al" points="1361.02 594.58 1393.36 624.14 1399.87 653.12 1407.69 633.57 1410.35 684.73 1439.99 693.58 1421.38 673.32 1416.82 618.61 1406.27 602.93 1388.8 599.69 1400.51 608.92 1379.02 598.39 1361.02 594.58"/><polygon class="am" points="1067.57 684.73 1133.26 707.92 1154.01 736.3 1191.3 752.94 1255.66 755.86 1308.34 768.41 1439.99 768.41 1439.99 693.58 1410.35 684.73 1322.2 684.73 1288.73 686.99 1222.54 691.47 1191.3 693.58 1134.47 684.73 1067.57 684.73"/><polygon class="an" points="-0.01 219.39 41.17 186.96 47.86 243.36 51.75 177.33 78.46 153.88 84.77 265.38 84.77 265.38 92.15 129.52 155.76 60.83 226.18 56.27 232.24 223.92 232.24 223.92 237.08 56.27 303.1 41.28 303.1 317.42 322.79 32.22 329.15 136.55 338.72 39.33 430.99 93.28 449.87 204.88 462.9 153.88 480.49 239.56 497.66 348.99 501.69 234.18 497.66 111.75 327.66 24.53 141.48 47.8 76.5 113.48 -0.01 129.29 -0.01 219.39"/><path class="an" d="M936.47,181.17,950.28,219h0a63.43,63.43,0,0,0,15.65,67l11.72,11.33-44.87,67.45,33.15-67.45-41.7-38.51H902.34Z"/><polygon class="an" points="884.52 283.71 895.55 297.34 884.52 351.76 898.16 317.73 913.79 346.22 932.77 364.79 869.49 385.69 884.52 283.71"/><polygon class="an" points="1066.92 212.76 1119.69 243.36 1128.82 268.03 1216.78 305.18 1141.85 264.39 1141.85 232.2 1111.87 219.39 1133.38 196.43 1161.39 125.34 1194.63 111.79 1206.35 168.99 1204.4 111.79 1245.45 93.37 1287.15 99.44 1287.15 228.29 1299.53 101.47 1341.23 111.79 1385.12 111.75 1345.14 102.6 1299.18 85.48 1248.59 85.48 1154.84 111.75 1112.89 188.41 1077.75 203.81 1066.92 212.76"/><polygon class="an" points="1385.12 111.75 1359.64 243.36 1372.51 278.56 1356.84 278.17 1342.57 240.87 1373.62 109.12 1385.12 111.75"/><polygon class="ao" points="367.92 355.26 409.32 448.48 510.27 488.64 419.61 430.39 396.44 354.04 410.56 335.13 302 331.81 367.92 355.26"/><polygon class="ao" points="527.4 407.59 556.4 430.39 577.9 487.3 608.7 528.31 654.21 536.7 651.8 527.92 615.99 436.11 527.4 407.59"/><polygon class="ap" points="196.8 416.21 203.47 431.86 203.47 296.41 193.58 292.86 196.8 416.21"/><polygon class="aq" points="883.77 536.74 1067.57 547.63 1129.13 577.32 1046.58 581.47 712.13 580.79 883.77 536.74"/><polygon class="ar" points="533.98 514.55 712.13 580.79 515.64 556.07 396.28 570.19 299.18 547.46 232.37 497.08 533.98 514.55"/><polyline class="as" points="113.72 264.17 157.04 322.86 166.49 412.5 144.78 438.07 201.74 454.5 232.37 497.08 533.98 514.55 296.29 482.97 203.47 431.86 196.8 416.21 193.58 292.86 256.88 315.6 291.45 351.43 341.09 365.81 345.17 383.18 312 400.02 369.93 431.86 395.54 462.21 510.27 488.64 409.32 448.48 367.92 355.26 302 331.81"/><polygon class="at" points="461.76 344.78 487.66 370.56 528.1 461.18 532.89 431.43 560.99 444.37 556.4 430.39 527.4 407.59 497.66 348.99 461.76 344.78"/><polygon class="au" points="670.92 532.56 773.42 445.28 869.49 385.69 932.77 364.79 1018.05 365.81 901.13 401.04 878.29 428.17 794.05 505.02 794.05 469.13 670.92 532.56"/><polygon class="av" points="1268.25 278.56 1105.51 362.7 1181.9 378.82 1243.49 459.89 1314.12 482.97 1253.78 414.37 1253.78 351.22 1372.51 278.56 1268.25 278.56"/><polygon class="ao" points="869.49 385.69 854.91 408.78 862.2 424.42 866.35 497.08 872.09 529.04 869.49 385.69"/><polygon class="ao" points="932.77 364.79 1018.05 382.11 1050.63 435.04 1139.24 480.77 1156.04 514.53 1149.67 463.43 1055.84 422.01 1044.41 385.69 1105.52 382.47 1222.54 320.89 1260.44 322.86 1268.25 278.56 1105.51 362.7 932.77 364.79"/><polygon class="ao" points="1372.51 278.56 1327.96 363.76 1361.02 524.23 1342.57 486.97 1308.34 333.92 1333.83 277.85 1347.1 278.78 1333.83 311.9 1356.84 278.17 1372.51 278.56"/><polygon class="d" points="455.73 99.44 491.57 117.27 491.57 237.32 479.84 126.51 455.73 99.44"/><polygon class="d" points="530.66 266.4 588.17 318.86 595.86 365.81 581.61 322.18 556.73 317.02 558.03 307.72 530.66 266.4"/><polygon class="d" points="881.16 324.67 888.07 288.09 906.86 261.84 921.61 264.39 891.31 288.93 881.16 324.67"/><polygon class="d" points="912.92 245.34 938.51 186.76 983.73 186.76 948.33 195.33 948.33 209.92 939.99 198.97 912.92 245.34"/><path class="aw" d="M1338.86,68.8l-225.61-.23s37.41-13.31,84.48-5.15c18.64,3.23,18.59-12.48,89.92-6.92C1322,59.19,1338.86,68.8,1338.86,68.8Z"/><path class="ax" d="M563.26,104.07,455.73,81.15s13-12.5,35.84-7.62,28,18,45,19.25A44.27,44.27,0,0,1,563.26,104.07Z"/><path class="ay" d="M-.59,587.91S339.67,467.74,537.46,768.42H-.59Z"/><path class="az" d="M46.76,763.41,131.5,569.89c8.16-.42,16.37-.65,24.49-.69L118,763.41Z"/><path class="ba" d="M5,591.52c9.42-3,38.21-11.52,78.42-17.07L5,706.25Z"/><path class="bb" d="M5,763.41V725.8L96,572.85c8-.93,16.16-1.69,24.25-2.26L35.84,763.41Z"/><path class="bc" d="M128.21,763.41l38-194.17c4.76.07,9.51.2,14.21.39l7.92,193.78Z"/><path class="bd" d="M311.66,763.41l-81.48-189.2c10.64,1.53,21.18,3.42,31.46,5.64L384.31,763.41Z"/><path class="be" d="M396.35,763.41,275.89,583.17a430.06,430.06,0,0,1,53.15,17l168.5,163.24Z"/><path class="bf" d="M198.3,763.41l-7.89-193.26c9.48.58,19,1.43,28.24,2.54l82.13,190.72Z"/><path class="bg" d="M511.91,763.41,355.13,611.53c68.22,32.54,126.28,83.47,173,151.89H511.91Z"/><polygon class="ay" points="206.31 571.38 211.17 590.16 210.3 571.86 206.31 571.38"/><polygon class="ay" points="237.07 575.26 241.58 579.35 243.97 576.21 237.07 575.26"/><polygon class="ay" points="141.47 569.48 133.41 585.35 138.41 568.69 141.47 569.48"/><polygon class="ay" points="282.59 596.17 296.29 598.17 282.65 603.77 282.59 596.17"/><polygon class="ay" points="355.75 619.06 341.09 621.37 361.45 621.37 355.75 619.06"/><polyline class="ay" points="73.97 596.21 91.64 594.68 67.75 605.26"/><polygon class="ay" points="49.72 493.27 49.72 576.21 83.89 571.86 79.69 489.95 49.72 493.27"/><polygon class="ay" points="153.33 489.95 151.04 565.45 183.62 566.88 175.03 485.78 153.33 489.95"/><polygon class="ay" points="253.04 499.38 250.88 575.95 279.17 581.82 273.44 508.06 253.04 499.38"/><polygon class="ay" points="332.72 524.23 330.57 600.8 358.85 606.67 353.12 532.91 332.72 524.23"/><polygon class="ay" points="414.19 564.86 403.84 639.84 434.13 657.94 434.61 572.98 414.19 564.86"/><polygon class="ay" points="511.94 639.84 502.83 734.28 530.27 762.62 535.18 657.05 511.94 639.84"/><path class="ay" d="M189.3,349.78l10.33-13.44A7.5,7.5,0,0,1,210.15,335a7.92,7.92,0,0,1,1,1h0a7.5,7.5,0,0,1,1.31,7.88l-6.09,14.43Z"/><path class="ay" d="M226.06,360.39l-6.3-15.23a6.67,6.67,0,0,1,1.84-7.63h0a6.66,6.66,0,0,1,9.39.75l.11.13,12,14.79Z"/><path class="bh" d="M192.66,351.43s-52.95,68.19-168,90.57"/><path class="bh" d="M200.06,353.25S139.72,433.53,20.41,454.61"/><path class="bh" d="M204.32,355.26S166,430.41,22.65,462.26"/><path class="bh" d="M228,355.93S345.66,545.45,512,639.84"/><path class="bh" d="M234.41,354.46S327.64,495.67,434.61,573"/><path class="bh" d="M238,351.76s123.78,173,202.32,209.92"/><polygon class="bi" points="72.84 490.71 76.85 569.03 49.72 572.49 49.72 576.21 83.89 571.86 79.69 489.95 72.84 490.71"/><polygon class="bj" points="168.42 487.05 176.57 564.05 151.11 562.93 151.04 565.45 183.62 566.88 175.03 485.78 168.42 487.05"/><polygon class="bk" points="253.04 499.38 253.03 499.54 266.4 505.23 272.13 578.99 250.92 574.59 250.88 575.95 279.17 581.82 273.44 508.06 253.04 499.38"/><polygon class="bl" points="427.1 653.73 434.13 657.94 434.61 572.98 427.57 570.18 427.1 653.73"/><polygon class="bm" points="535.18 657.05 511.94 639.84 511.72 642.06 528.14 654.22 523.43 755.55 530.27 762.62 535.18 657.05"/><path class="ay" d="M-1.17,477s418.41-80,668.64,291.47H567s-77.46-322.93-567.6-267V477Z"/><path class="bn" d="M83.1,469.83c141.56,2.56,388,47.14,557.42,298.59h27C486.73,500.14,218.28,467.35,83.1,469.83Z"/><path class="ay" d="M258.61,513.22a6.28,6.28,0,0,0-7.47-4.8,6.35,6.35,0,0,0-2.67,1.3,1.67,1.67,0,0,1-1.06.28h-9.33l-1.32-1a2.77,2.77,0,0,0-2.88-.23,2.86,2.86,0,0,0-1.22,1.19h-.15l-.92-.91a7.61,7.61,0,0,0-5.46-2.26h-6.81A80.35,80.35,0,0,0,201.05,463l4.85-4.84a7.55,7.55,0,0,0,2.25-5.42V451.4l.1-.1a2.93,2.93,0,0,0,1.71,0,2.76,2.76,0,0,0,1.88-2.2l.25-1.62,6.58-6.55a1.68,1.68,0,0,1,1-.54,6.25,6.25,0,0,0,3.81-10.66,6.74,6.74,0,0,0-1-.84,6.32,6.32,0,0,0-6.93.06,6.23,6.23,0,0,0-2.73,4.61,1.77,1.77,0,0,1-.54,1l-6.59,6.56-1.61.26a2.72,2.72,0,0,0-2.2,1.87,2.83,2.83,0,0,0,0,1.68l-.1.11h-1.29a7.58,7.58,0,0,0-5.47,2.25l-4.84,4.82a81,81,0,0,0-44-18.22v-6.8a7.64,7.64,0,0,0-2.26-5.43l-.92-.92v-.15a2.71,2.71,0,0,0,1.19-1.2,2.75,2.75,0,0,0-.23-2.88l-1-1.32v-9.26a1.7,1.7,0,0,1,.33-1.09,6.26,6.26,0,0,0-4.88-10.25,7.18,7.18,0,0,0-1.31.13,6.25,6.25,0,0,0-3.52,10.11,1.74,1.74,0,0,1,.32,1.06v9.28l-1,1.33a2.75,2.75,0,0,0,.6,3.83,3.26,3.26,0,0,0,.4.24v.15l-.92.91a7.64,7.64,0,0,0-2.27,5.45v6.78a81,81,0,0,0-44,18.21l-4.84-4.83A7.81,7.81,0,0,0,76.41,445H75.06l-.1-.1a2.71,2.71,0,0,0,0-1.69,2.75,2.75,0,0,0-2.21-1.87l-1.62-.25-6.58-6.55a1.86,1.86,0,0,1-.54-1,6.21,6.21,0,0,0-1.81-3.81,6.3,6.3,0,0,0-8.89,0,7.29,7.29,0,0,0-.84,1,6.25,6.25,0,0,0,4.68,9.62,1.62,1.62,0,0,1,1,.53l6.59,6.57.26,1.62a2.74,2.74,0,0,0,1.87,2.19,2.9,2.9,0,0,0,1.7,0l.1.11v1.28a7.57,7.57,0,0,0,2.26,5.46L75.74,463a80.44,80.44,0,0,0-18.27,43.89H50.64a7.77,7.77,0,0,0-5.45,2.24l-.92.93h-.15a2.68,2.68,0,0,0-1.2-1.2,2.79,2.79,0,0,0-2.89.23l-1.33,1H29.41a1.81,1.81,0,0,1-1.1-.33,6.27,6.27,0,0,0-10.26,4.84,6.41,6.41,0,0,0,.14,1.31,6.28,6.28,0,0,0,10.12,3.51,1.64,1.64,0,0,1,1.1-.42h9.31l1.34,1a2.77,2.77,0,0,0,3.86-.64,3.48,3.48,0,0,0,.22-.36h.15l.91.9a7.65,7.65,0,0,0,5.47,2.26h6.74a80.29,80.29,0,0,0,18.27,43.89l-4.85,4.84a7.68,7.68,0,0,0-2.26,5.43v1.3l-.09.1a2.76,2.76,0,0,0-3.58,2.2l-.25,1.61-6.58,6.56a1.86,1.86,0,0,1-1,.54,6.26,6.26,0,0,0-3.82,10.67,6.58,6.58,0,0,0,1,.83,6.27,6.27,0,0,0,9.65-4.66,1.63,1.63,0,0,1,.54-1L71.1,588l1.62-.26a2.72,2.72,0,0,0,2.2-1.86,2.86,2.86,0,0,0,0-1.69l.11-.11h1.29a7.71,7.71,0,0,0,5.48-2.25L86.64,577a81,81,0,0,0,44,18.21V602a7.67,7.67,0,0,0,2.25,5.43l.94.93v.14a2.76,2.76,0,0,0-1.24,3.69,3.14,3.14,0,0,0,.24.39l1,1.32v9.26a1.79,1.79,0,0,1-.34,1.09,6.27,6.27,0,0,0,4.92,10.25,6.5,6.5,0,0,0,1.32-.14,6.25,6.25,0,0,0,3.52-10.11,1.67,1.67,0,0,1-.31-1.06v-9.28l.95-1.33a2.69,2.69,0,0,0,.23-2.86,2.81,2.81,0,0,0-1.18-1.21v-.15l.9-.92a7.55,7.55,0,0,0,2.28-5.45v-6.78a81,81,0,0,0,44-18.21l4.85,4.83a7.74,7.74,0,0,0,5.45,2.25h1.3l.1.1a2.9,2.9,0,0,0,0,1.7,2.78,2.78,0,0,0,2.21,1.87l1.61.25,6.59,6.56a1.68,1.68,0,0,1,.54,1,6.17,6.17,0,0,0,1.82,3.81,6.3,6.3,0,0,0,8.88,0,6.58,6.58,0,0,0,.83-1,6.24,6.24,0,0,0-4.67-9.62,1.71,1.71,0,0,1-1-.54L212,581.64l-.25-1.61a2.73,2.73,0,0,0-1.88-2.19,2.9,2.9,0,0,0-1.7,0l-.1-.1V576.4a7.58,7.58,0,0,0-2.25-5.45L201,566.13a80.44,80.44,0,0,0,18.28-43.9h6.82a7.69,7.69,0,0,0,5.45-2.24l.93-.92h.14a2.81,2.81,0,0,0,3.77,1.21,2.39,2.39,0,0,0,.34-.21l1.31-1h9.35a1.72,1.72,0,0,1,1.08.32,6.29,6.29,0,0,0,10.28-4.84A7.43,7.43,0,0,0,258.61,513.22ZM143.33,563l-.39-.34V547.85l.11-.08a7.71,7.71,0,0,0,3.07-6.15V534a4.06,4.06,0,0,0,.65-.27l5.41,5.4a7.78,7.78,0,0,0,6.5,2.18h.15l10.52,10.48,0,.51a7.7,7.7,0,0,0,2.23,6.15l3.83,3.81a60.34,60.34,0,0,1-29.26,12.12V569A7.49,7.49,0,0,0,143.33,563Zm-9.85-97,.41.34v14.83l-.12.07a7.77,7.77,0,0,0-3.07,6.15V495a3.81,3.81,0,0,0-.66.27l-5.4-5.39a7.75,7.75,0,0,0-6.5-2.18H118l-10.53-10.49v-.51a7.66,7.66,0,0,0-2.23-6.14l-3.82-3.81a60.23,60.23,0,0,1,29.3-12.05v5.43a7.65,7.65,0,0,0,2.77,5.92Zm-32.94,17.67.52-.05,10.52,10.48v.14a7.72,7.72,0,0,0,2.19,6.51l5.4,5.38c-.1.21-.19.44-.27.66h-7.65a7.79,7.79,0,0,0-6.15,3l-.08.13H90.11l-.33-.4a7.74,7.74,0,0,0-5.94-2.77H78.41a60,60,0,0,1,12.16-29.16l3.84,3.9a7.74,7.74,0,0,0,6.13,2.23ZM83.83,522.21a7.74,7.74,0,0,0,5.94-2.77l.34-.39H105l.07.1a7.77,7.77,0,0,0,6.18,3.06h7.62c.09.23.18.45.28.66l-5.4,5.4a7.73,7.73,0,0,0-2.19,6.49v.15L101,545.39h-.52a7.68,7.68,0,0,0-6.1,2.18l-3.82,3.81a59.85,59.85,0,0,1-12.18-29.17Zm21.44,36.21a7.66,7.66,0,0,0,2.23-6.14v-.52L118,541.28h.13a7.78,7.78,0,0,0,6.53-2.18l5.4-5.39a4.06,4.06,0,0,0,.65.27v7.63a7.74,7.74,0,0,0,3,6.12l.14.09v14.82l-.41.33a7.67,7.67,0,0,0-2.78,5.91v5.44a60.19,60.19,0,0,1-29.33-12.11Zm22.89-43.89a10.25,10.25,0,1,1,10.28,10.22h0A10.25,10.25,0,0,1,128.16,514.53Zm41.16-37.75.05.52-10.52,10.49h-.14a7.82,7.82,0,0,0-6.53,2.19l-5.4,5.38-.66-.27v-7.62a7.72,7.72,0,0,0-3.06-6.13l-.12-.08V466.4l.39-.33a7.63,7.63,0,0,0,2.79-5.91v-5.44a60.35,60.35,0,0,1,29.29,12.12l-3.83,3.81a7.65,7.65,0,0,0-2.26,6.13Zm7,68.56h-.51L165.25,534.9v-.13a7.73,7.73,0,0,0-2.19-6.52l-5.4-5.38q.15-.33.27-.66h7.65a7.73,7.73,0,0,0,6.14-3l.09-.12H186.7l.32.39a7.72,7.72,0,0,0,5.93,2.77h5.46a59.91,59.91,0,0,1-12.16,29.17l-3.84-3.85a7.63,7.63,0,0,0-6.12-2.23ZM193,506.85a7.72,7.72,0,0,0-5.93,2.77l-.33.4H171.83l-.08-.11a7.75,7.75,0,0,0-6.17-3.06H158c-.08-.22-.17-.45-.27-.66l5.4-5.39a7.73,7.73,0,0,0,2.19-6.49v-.15l10.53-10.48.51.05a7.68,7.68,0,0,0,6.16-2.22l3.82-3.81a60,60,0,0,1,12.12,29.16H193Z"/><path class="bo" d="M203.78,573.89a7.58,7.58,0,0,1,2.25,5.45v1.29l.1.1a2.9,2.9,0,0,1,1.7,0,2.73,2.73,0,0,1,1.88,2.19l.25,1.61,6.59,6.57a1.71,1.71,0,0,0,1,.54,6.25,6.25,0,0,1,5.66,6.77,6.48,6.48,0,0,1-.29,1.39,6.86,6.86,0,0,0,.59-.48,8,8,0,0,0,.83-1,6.24,6.24,0,0,0-4.67-9.62,1.71,1.71,0,0,1-1-.54l-6.59-6.57-.25-1.61a2.73,2.73,0,0,0-1.88-2.19,2.9,2.9,0,0,0-1.7,0l-.1-.1V576.4A7.58,7.58,0,0,0,205.9,571l-4.72-4.7c-.73,1-1.47,1.91-2.24,2.84Z"/><path class="bp" d="M144,490.39V498c.22.08.45.17.66.27l5.4-5.38a7.82,7.82,0,0,1,6.53-2.19h.14l10.52-10.49v-.8l-8.35,8.32h-.14a7.82,7.82,0,0,0-6.53,2.19l-5.4,5.38-.66-.27v-7.62a7.72,7.72,0,0,0-3.06-6.13l-.12-.08V467a7.37,7.37,0,0,1-1.73,2l-.39.33v14.83l.12.08A7.71,7.71,0,0,1,144,490.39Z"/><path class="bq" d="M169.88,473.15l3.38-3.37-.49-.37-1.22,1.22A7.6,7.6,0,0,0,169.88,473.15Z"/><path class="br" d="M103.16,473.61a7.66,7.66,0,0,1,2.23,6.14v.51l10.53,10.49h.15a7.75,7.75,0,0,1,6.5,2.18l5.4,5.39a6.5,6.5,0,0,1,.66-.27v-4.14L124.68,490a7.75,7.75,0,0,0-6.5-2.18H118L107.41,477.3v-.51a7.66,7.66,0,0,0-2.23-6.14l-3-3c-1,.68-2,1.39-3,2.14Z"/><path class="bs" d="M131.77,423.54c-.05,0-.09-.08-.15-.11-.13.25-.25.5-.36.76l.5-.5v-.15Z"/><path class="bt" d="M203.56,444.05l6.59-6.56a1.77,1.77,0,0,0,.54-1,1.17,1.17,0,0,1,.07-.49l-5.09,5.06-1.61.26a2.72,2.72,0,0,0-2.2,1.87,2.79,2.79,0,0,0-.12,1.15l.2-.06Z"/><path class="bu" d="M136.29,397.56a6.26,6.26,0,0,1,4.87,10.23,1.7,1.7,0,0,0-.33,1.09v9.26l1,1.32a2.75,2.75,0,0,1,.23,2.88,2.71,2.71,0,0,1-1.19,1.2v.15l.92.92A7.65,7.65,0,0,1,144,430v6.8A80.91,80.91,0,0,1,188,455l4.84-4.82a7.58,7.58,0,0,1,5.47-2.25h1.29l.1-.11a2.83,2.83,0,0,1,0-1.68,2.87,2.87,0,0,1,.75-1.16h0a7.58,7.58,0,0,0-5.47,2.25l-4.84,4.82a81,81,0,0,0-44-18.22v-6.8a7.64,7.64,0,0,0-2.26-5.43l-.92-.92v-.15a2.71,2.71,0,0,0,1.19-1.2,2.75,2.75,0,0,0-.23-2.88l-1-1.32v-9.26a1.7,1.7,0,0,1,.33-1.09,6.26,6.26,0,0,0-4.85-10.2,7.18,7.18,0,0,0-1.31.13,6.26,6.26,0,0,0-4.63,4.13A6.05,6.05,0,0,1,135,397.7,6.31,6.31,0,0,1,136.29,397.56Z"/><path class="bv" d="M209.84,451.32H210a2.76,2.76,0,0,0,1.88-2.2l.09-.61-2,2Z"/><path class="bw" d="M220.41,431.85a6.74,6.74,0,0,1,1,.84,6.25,6.25,0,0,1,1.49,6.42,6.42,6.42,0,0,0,.64-.53,6.28,6.28,0,0,0,0-8.86,6.74,6.74,0,0,0-1-.84,6.32,6.32,0,0,0-6.93.06,6.24,6.24,0,0,0-2.44,3.21l.32-.25A6.36,6.36,0,0,1,220.41,431.85Z"/><path class="bx" d="M60.1,432.69a6.21,6.21,0,0,1,1.81,3.81,1.86,1.86,0,0,0,.54,1L69,444.05l1.62.25a2.76,2.76,0,0,1,2.21,1.87,2.71,2.71,0,0,1,0,1.69l.1.1h1.32a7.78,7.78,0,0,1,5.45,2.25L84.57,455a81,81,0,0,1,44-18.21v-2.72a81,81,0,0,0-41.92,18l-4.84-4.83a7.8,7.8,0,0,0-5.4-2.24H75.07l-.1-.1a2.71,2.71,0,0,0,0-1.69,2.75,2.75,0,0,0-2.21-1.87l-1.62-.25-6.58-6.55a1.86,1.86,0,0,1-.54-1,6.21,6.21,0,0,0-1.81-3.81,6.3,6.3,0,0,0-8.89,0,7.29,7.29,0,0,0-.84,1,6.51,6.51,0,0,0-.69,1.46A6.29,6.29,0,0,1,60.1,432.69Z"/><path class="by" d="M73.53,465.8c-.82,1.09-1.62,2.2-2.39,3.33.81-1.09,1.65-2.16,2.51-3.21Z"/><path class="bz" d="M26.23,512.65a1.81,1.81,0,0,0,1.1.33h9.29L38,512a2.79,2.79,0,0,1,2.89-.23A2.68,2.68,0,0,1,42,513h.15l.92-.93a7.77,7.77,0,0,1,5.45-2.24h6.85c.09-1,.21-2,.34-3h-5A7.77,7.77,0,0,0,45.3,509l-.92.93h-.15a2.68,2.68,0,0,0-1.2-1.2,2.79,2.79,0,0,0-2.89.23l-1.33,1h-9.4a1.81,1.81,0,0,1-1.1-.33,6.27,6.27,0,0,0-9.9,2.89,6.25,6.25,0,0,1,3.83-1.31A6.32,6.32,0,0,1,26.23,512.65Z"/><path class="ca" d="M131.65,484.25l.12-.07v-.61a7.18,7.18,0,0,0-.5,1C131.41,484.47,131.52,484.35,131.65,484.25Z"/><path class="cb" d="M145.56,521.84a10.25,10.25,0,0,1-17.4-7.31,10.12,10.12,0,0,1,1-4.36,10.23,10.23,0,1,0,16.41,11.67Z"/><path class="cc" d="M99.34,565.19a60.18,60.18,0,0,0,29.25,12.13v-3.27A60.24,60.24,0,0,1,102,562.6Z"/><path class="cd" d="M187.05,509.62l-.33.4H171.83l-.08-.11a7.75,7.75,0,0,0-6.17-3.06H158v-.06l-2.37,2.36q.15.33.27.66h7.63a7.78,7.78,0,0,1,6.17,3.06l.08.11h14.89l.33-.4a7.72,7.72,0,0,1,5.93-2.77h5.45c-.13-1-.29-2-.47-3H193A7.68,7.68,0,0,0,187.05,509.62Z"/><path class="ce" d="M109.41,537.71v-.63l-8.32,8.3h-.52a7.69,7.69,0,0,0-6.16,2.18l-3.82,3.81a60,60,0,0,1-11.7-26.2H76.28a60,60,0,0,0,12.13,29.17l3.82-3.81a7.73,7.73,0,0,1,6.18-2.23l.52.05,10.52-10.48Z"/><path class="cf" d="M182.41,547.56a7.71,7.71,0,0,0-6.16-2.22h-.51L165.25,534.9v-.13a7.73,7.73,0,0,0-2.19-6.52L160,525.17h-4.15c-.08.22-.17.45-.27.66l5.4,5.38a7.73,7.73,0,0,1,2.19,6.52v.13l10.53,10.48h.51a7.68,7.68,0,0,1,6.16,2.22l3.82,3.81c.88-1.13,1.72-2.3,2.52-3.49-.13.18-.26.36-.4.53Z"/><path class="cg" d="M146.12,568.92a7.63,7.63,0,0,0-2.79-5.91l-.39-.34V548.44a7.71,7.71,0,0,1-2,2.29l-.11.08v14.82l.39.34a7.63,7.63,0,0,1,2.79,5.91v5.43a60.34,60.34,0,0,0,29.26-12.12l-.83-.83a60.3,60.3,0,0,1-26.31,10Z"/><path class="ch" d="M146.12,541.62v-3.46l-1.46-1.46a4.06,4.06,0,0,1-.65.27v7.61a7.6,7.6,0,0,1-.57,2.86A7.74,7.74,0,0,0,146.12,541.62Z"/><path class="ci" d="M87.66,512.58l.33.4h14.88l.08-.13a7.79,7.79,0,0,1,6.15-3h7.65a3.81,3.81,0,0,1,.27-.66l-2.31-2.3h-3.5a7.79,7.79,0,0,0-6.15,3L105,510H90.11l-.33-.4a7.74,7.74,0,0,0-5.94-2.77H78.41a59.69,59.69,0,0,1,9.64-25.65A59.78,59.78,0,0,0,76.3,509.81h5.45A7.71,7.71,0,0,1,87.66,512.58Z"/><path class="cj" d="M258.74,514.52a6.41,6.41,0,0,0-.14-1.31,6.28,6.28,0,0,0-7.47-4.8,6.35,6.35,0,0,0-2.67,1.3,1.71,1.71,0,0,1-1.05.29h-9.33l-1.32-1a2.77,2.77,0,0,0-2.88-.23,2.86,2.86,0,0,0-1.22,1.19h-.15l-.92-.91a7.61,7.61,0,0,0-5.46-2.26h-6.81a80.33,80.33,0,0,0-17.91-43.36l-2.49,2.49a80.56,80.56,0,0,1,18.28,43.89H224a7.61,7.61,0,0,1,5.46,2.26l.92.91h.15a2.8,2.8,0,0,1,1.22-1.19,2.77,2.77,0,0,1,2.88.23l1.32,1h9.33a1.63,1.63,0,0,0,1.05-.31,6.28,6.28,0,0,1,10.14,3.5,6.41,6.41,0,0,1,.14,1.31,6.17,6.17,0,0,1-.33,2A6.21,6.21,0,0,0,258.74,514.52Z"/><path class="ck" d="M112.08,530.77l4.94-4.93c-.09-.2-.17-.39-.25-.6l-3,3A7.45,7.45,0,0,0,112.08,530.77Z"/><polygon class="ay" points="102.65 699.48 174.19 699.48 151.97 528.78 122.17 528.78 102.65 699.48"/><path class="cl" d="M167.29,699.48h6.9L160.27,592.56q-3.3.91-6.69,1.56Z"/><polygon class="ay" points="20.39 99.44 26.98 627.16 -0.59 641.67 -0.59 101.47 20.39 99.44"/><polygon class="cm" points="19.04 631.25 26.98 627.16 20.39 99.44 -1.17 101.47 -1.17 107.07 12.48 105.79 19.04 631.25"/><path class="ay" d="M-.59,101.47,216,344.78s13.07.58,12.49-12.89L-.59,32.18Z"/><path class="bh" d="M69.5,153.88,70,198.17a13.69,13.69,0,0,0,4,9.49h0a13.63,13.63,0,0,0,19.29,0,10.73,10.73,0,0,0,.79-.86l17.31-20.51a11.23,11.23,0,0,1,15.71-2.35,12.19,12.19,0,0,1,1.56,1.4h0a11.23,11.23,0,0,1,.48,14.71l-7.92,9.74a11.64,11.64,0,0,0,1.68,16.38,11.51,11.51,0,0,0,3.32,1.89h0"/><path class="bh" d="M96.71,136.55a94.74,94.74,0,0,1-32.77,41.16"/><path class="bh" d="M100.41,141.17a94.74,94.74,0,0,1-32.77,41.16"/><path class="bh" d="M173.73,219A94.74,94.74,0,0,1,141,260.16"/><path class="bh" d="M170.27,216.39a94.74,94.74,0,0,1-32.77,41.16"/><path class="ay" d="M49.72,102.17s43.93,36.65,84.08,80.09c42.14,45.59,81.61,136.6,81.61,136.6S248.92,256.12,216,156c-1.65-32.65,9.43-111.16-4.44-156.45H-.59v65Z"/><path class="ay" d="M74.82,127.56s-10.13,22.59-27,32.15L80.22,196s27.16-11.52,28.83-26.3Z"/><path class="cn" d="M75.78,136.55s-7.47,16.65-19.87,23.7L79.76,187s20-8.49,21.25-19.39Z"/><path class="ay" d="M141.82,217s-7.8,17.4-20.76,24.75L146,269.66s20.91-8.87,22.2-20.25Z"/><path class="co" d="M142.55,223.92s-5.75,12.82-15.3,18.25l18.36,20.57S161,256.2,162,247.81Z"/><path class="cp" d="M198.41,8.05s17.12,79.68,1.41,107.08-50.28,20-50.28,20l11.77,6.07a98.85,98.85,0,0,1,53.27,78.87,181.56,181.56,0,0,1-2.32,51.4s-36.38-91.38-139.85-172C72.41,99.44,187.3,105.79,198.41,8.05Z"/><path class="cq" d="M198.41,8.05s26.89,67.17-6.82,121.47c0,0,24.79-33.47,23.84-65A205.48,205.48,0,0,0,205.6,8Z"/><path class="cr" d="M193.58,143.8s24.21,50.2,26.3,73.2c4.41,48.38-8.35,66.57-8.35,66.57l2.87,15.8S254,221.55,193.58,143.8Z"/><path class="cs" d="M330.83,429.83l24.78-3.43,3.24,4.19,4.48-4.19,47.26-.56,7.67,5.88,21.3-5-10,18.84s-31.8,66.63-35.24,95.67l-62.81-6.65-8.27-99.16Z"/><polygon class="ct" points="394.35 541.25 377.76 534.6 388.7 479.6 369.68 533.14 357.93 530.49 359.13 537.52 394.35 541.25"/><polygon class="cu" points="418.26 431.72 410.58 425.84 363.33 426.4 358.85 430.59 355.61 426.4 330.83 429.83 323.28 435.44 324.08 438.13 330.33 434.81 352.55 430.4 346.59 464.32 364.5 430.4 407.44 429.26 409.11 434.54 413.49 432.37 409.11 464.32 420.47 434.54 436.51 432.5 439.56 426.75 418.26 431.72"/><path class="cv" d="M387,458.8a3.64,3.64,0,0,1-2,2.35c-.32.15,0,.62.28.47a4.15,4.15,0,0,0,2.24-2.67.29.29,0,0,0-.27-.29A.29.29,0,0,0,387,458.8Z"/><path class="cv" d="M380.41,463.58a8.13,8.13,0,0,0-2.62,1.53c-.27.23.12.62.39.39a7.41,7.41,0,0,1,2.38-1.39C380.88,464,380.73,463.47,380.41,463.58Z"/><path class="cv" d="M370.41,469.81l-2,2a.28.28,0,0,0,.07.39.27.27,0,0,0,.32,0l2-2C371,470,370.6,469.56,370.41,469.81Z"/><path class="cv" d="M362.94,477.4c-.36.89-.72,1.79-1.09,2.68-.13.33.4.47.53.15.36-.89.72-1.79,1.09-2.68C363.6,477.22,363.07,477.08,362.94,477.4Z"/><path class="cv" d="M361.46,485.12a.28.28,0,0,0-.55,0,5.23,5.23,0,0,0,1,3.63c.21.28.68,0,.47-.28A4.83,4.83,0,0,1,361.46,485.12Z"/><path class="cv" d="M364.12,492.66c-.21-.28-.68,0-.47.28l1,1.44c.21.28.68,0,.47-.28Z"/><path class="cv" d="M372.48,499.41a9.91,9.91,0,0,1-2.46-1.86c-.25-.25-.63.13-.39.39a10.64,10.64,0,0,0,2.57,1.95C372.52,500.05,372.8,499.58,372.48,499.41Z"/><path class="cv" d="M379.56,506.69l-3.15-4.56c-.2-.29-.68,0-.47.28L379.1,507C379.29,507.26,379.76,507,379.56,506.69Z"/><path class="cv" d="M379.68,510.43a4,4,0,0,1-.4,2.77c-.16.31.31.59.47.28a4.71,4.71,0,0,0,.45-3.19C380.14,509.94,379.61,510.09,379.68,510.43Z"/><path class="cv" d="M351.89,515.36c-.31-.16-.59.31-.28.47l2.25,1.18c.31.16.59-.31.28-.47Z"/><path class="cv" d="M360.93,516.76h-.74a.28.28,0,0,0-.22.33.28.28,0,0,0,.22.22h.74a.28.28,0,0,0,.22-.33A.28.28,0,0,0,360.93,516.76Z"/><path class="cv" d="M368.11,517.25h-2a.28.28,0,0,0-.22.33.28.28,0,0,0,.22.22h2a.28.28,0,0,0,.22-.33A.28.28,0,0,0,368.11,517.25Z"/><path class="cv" d="M374.11,515.87a6.06,6.06,0,0,1-2.37,1.14c-.34.08-.2.61.15.53a6.57,6.57,0,0,0,2.61-1.28C374.78,516,374.41,515.65,374.11,515.87Z"/><path class="cv" d="M383.41,458.63H370.69a69.79,69.79,0,0,1,5.69-4.32c1.41-1,1.89-.68,2.87.65l2.58,3.5c.21.28.68,0,.47-.28l-4-5.44a.28.28,0,0,0-.38-.1,80.34,80.34,0,0,0-8.1,6h-.48a.28.28,0,0,0-.22.33.28.28,0,0,0,.22.22h.13a.29.29,0,0,0,.38.13l0,0,.12-.09h13.39a.28.28,0,1,0,0-.56Z"/><path class="cv" d="M400.76,458.63h-.15a.23.23,0,0,0-.05-.26,50.45,50.45,0,0,0-5.06-5.07.27.27,0,0,0-.39,0,16.44,16.44,0,0,0-2.81,4.78c-.12.33.41.47.53.15a15.93,15.93,0,0,1,1.25-2.6c.63-1,.95-2,2.06-1a49.21,49.21,0,0,1,3.91,4H391.6a.28.28,0,0,0-.22.33.28.28,0,0,0,.22.22h9.15a.29.29,0,0,0,.23-.32A.28.28,0,0,0,400.76,458.63Z"/><path class="cv" d="M389.79,444.69a18,18,0,0,0-1.8,4.15,8.64,8.64,0,0,0-1.69-3.9,8.47,8.47,0,0,0,2.26-2.68A4.21,4.21,0,0,0,389.79,444.69Z"/><path class="cv" d="M386.34,441.81c.33-.11.19-.64-.15-.53-3,1-4.81,4.89-2,7.24.27.22.66-.16.39-.39C382.1,446.06,383.66,442.72,386.34,441.81Z"/><path class="cv" d="M391.77,447.73a4.74,4.74,0,0,0,.07-5.58c-.2-.29-.68,0-.47.28a4.2,4.2,0,0,1-.07,5C391.09,447.74,391.56,448,391.77,447.73Z"/><path class="cv" d="M383.17,440.88a7.32,7.32,0,0,1,5.82-2.45.28.28,0,0,0,0-.55,7.88,7.88,0,0,0-6.21,2.61C382.54,440.75,382.93,441.14,383.17,440.88Z"/><path class="cv" d="M392.72,450.43a7.86,7.86,0,0,1-5.86,1.69.28.28,0,0,0,0,.55,8.37,8.37,0,0,0,6.25-1.85C393.41,450.6,393,450.22,392.72,450.43Z"/><path class="cv" d="M382.64,452.25c.31.17.59-.31.28-.47a7.54,7.54,0,0,1-3.3-10.14,3.72,3.72,0,0,1,.21-.39c.17-.31-.3-.59-.47-.28A8.08,8.08,0,0,0,382.24,452Z"/><path class="cv" d="M394.41,447.73c-.23.26.15.65.39.39,2.54-2.88,1.62-6.65-.53-9.46-.21-.28-.69,0-.47.28C395.76,441.51,396.78,445,394.41,447.73Z"/><path class="ay" d="M329.26,749.24V768a51.89,51.89,0,0,0,12.7,0c6.26-.89,34,1.79,42.92-1.79,0,0-.89-4.47-9.84-6.26s-21.46-5.37-22.35-11.62"/><path class="ay" d="M262,752.32l-1.76,16.1h17.25c4.6,0,16.1-8,19.54-10.35s-17.43-5.75-17.43-5.75"/><path class="ay" d="M328.68,619.81s-19.56,37.32-22.27,62.36c-1.07,9.94-22.35,71.54-22.35,71.54H261.74s-1.79-9.84,2.68-38.45S285,658,284.09,634.78s-.4-59.75-.4-59.75h30.72"/><path class="cw" d="M324.8,607.66c-3.22,10.57-17.37,56.9-20,63.09-3,7-4.66,24.46-7.34,31.28-2.09,5.34-11,37.78-14.8,51.68h1.43s21.32-61.59,22.32-71.54c2-19,13.84-45.18,19.37-56.61l1.46-10.18Z"/><path class="ay" d="M301.18,576.31s3.05,9.29,8.41,25.38,16.1,46.5,16.1,55.44-2.68,59.91-1.79,76,1.79,20.57,1.79,20.57h30.4l4.47-181.63Z"/><path class="cx" d="M355.41,575.16s1.57,62.14.94,67.34S355,753.7,355,753.7h1.17l4.47-180.63Z"/><path class="cy" d="M330.31,439.37s-2-7-1.79-9c.7-5.61,14.51-3,14.43-5.63-.29-10.42-3.92-33-3.92-33l-14.56.18-20.87,9.65,1.24,38.05Z"/><path class="cz" d="M343,424.79c-.29-10.42-3.92-33-3.92-33h-3.12c.11.66,3.63,22.66,3.92,32.93.08,2.68-13.73,0-14.43,5.63-.25,2,1.79,9,1.79,9l-22.34.3h0l25.47-.35s-2-7-1.79-9C329.21,424.8,343,427.47,343,424.79Z"/><path class="da" d="M328.51,430.42c.33-2.63,3.53-3.44,6.83-3.84-.1,0-10.35.68-11.47-.55a19.48,19.48,0,0,1-2.34-3.86l2.08,15.33,6.15-.07C329.19,435.21,328.35,431.73,328.51,430.42Z"/><path class="db" d="M344.5,383.84a5.35,5.35,0,0,0-7.76-4.43,15.37,15.37,0,0,1-3.77,1.38c-3.1.57-4.47.15-8.41.88-10.73,2-23.28,3.74-25.71,10-4.21,10.87,4.22,30.16,5.09,34.55a30.16,30.16,0,0,1,.46,3c11.4-.2,18.57-4.35,14.58-13.33-2.43-5.48-4.88-11.82-.49-12.7S327.1,410,327.1,410h2.79s-2.24-3.89.52-6.49c6.14-5.79-3.57-5.13,7.13-10.92C341.94,390.29,344.61,386.5,344.5,383.84Z"/><path class="da" d="M317.76,413s2.16,3.45,4.6,3.06l-3.64,1.72Z"/><path class="cy" d="M381.41,503.85l36.75-39.53.37-8.35,2.88-6.77,3.74-5.41,2.54.1L426.41,452l6.4-12.53,4.05,7.75v14.85L424.68,472s-7.07,16.06-15.58,33.32c-6.93,14.06-23.24,28.35-23.24,28.35-13.58-2.3-24.14-18.75-24.14-18.75"/><path class="dc" d="M335.41,479.6s18.6,38.63,27.69,39.11,19.7-16.36,19.7-16.36-7.76-7.68-14.39-26.83-11.25-29.42-13.66-31.81a10.66,10.66,0,0,0-5.19-3.07L332.48,437"/><path class="dc" d="M362.79,565.56c-1.76-11-4.49-30-4.14-39.91.47-13.19-3.77-59.78-5.44-77.49a9.44,9.44,0,0,0-7.43-8.33L332.48,437l-3-3.13-26.41-2.38L301.56,437S280,448.54,276,452s-6.42,62.88-6.42,62.88,10,3.76,16.15,1.58v11.27h0l-1,13-3.12,28.12a8.34,8.34,0,0,0,7.35,9.21,9.27,9.27,0,0,0,1.29,0c7-.34,17.54-1.54,33.91-1.55,14.21,0,24.57-.72,31.19-1.38a8.33,8.33,0,0,0,7.5-9.09C362.84,565.91,362.82,565.73,362.79,565.56Z"/><path class="dc" d="M269.6,514.93h0s-1.73.65-2.12,6.91a15.64,15.64,0,0,0,.48,5.45l3.75.51h14V516.51C279.57,518.68,269.6,514.93,269.6,514.93Z"/><path class="cy" d="M271.71,527.8s2.82,13.08,7.59,13.58a16.47,16.47,0,0,0,5.45-.65l1-13Z"/><path class="dc" d="M357.64,517.28s13.52-15.75,19.36-23.7a2.27,2.27,0,0,1,3.17-.49,2.17,2.17,0,0,1,.7.83l3.39,6.87s-15,24.74-16.53,25.69S357.64,517.28,357.64,517.28Z"/><path class="dd" d="M388.7,526.07c-4.66-.32-16.06-6.79-16.06-6.79-.35-.14-8.06-5.43-10.24-7.6L373,498.75,360,509.24c-12.2-13.13-24.71-33.72-24.71-33.72l-.19.3.26,3.78s8.22,17.06,16.4,28.65l-.07-.09c-.49,4.8,5.61,50.87,3.64,55.74s-41.29,8-40.74,2.35,20.78-17.54,20.78-17.54c-5.13-1.74-33.85,15.68-40,15.87s-6.41-7.7-4.4-21.16-6-50-6-50L281.33,515a27.34,27.34,0,0,1-11.74,0A26.9,26.9,0,0,0,281,517.24h0v10.13l-.08.51-2.06,13.49a3.1,3.1,0,0,0,.51.11,17.59,17.59,0,0,0,5.45-.65L281.65,569a8.34,8.34,0,0,0,7.35,9.21,9.27,9.27,0,0,0,1.29,0c7-.34,17.54-1.54,33.91-1.55,14.21,0,24.57-.72,31.19-1.38a8.33,8.33,0,0,0,7.47-9.11,4.1,4.1,0,0,0-.06-.49c-1.76-11-4.49-30-4.14-39.91.06-1.83,0-4.31-.06-7.25,0,0,7.6,9,9.14,8.08a11.41,11.41,0,0,0,1.76-2.27c4.27,4.17,10,8.39,16.39,9.47,0,0,16.31-14.29,23.24-28.35,2.65-5.38,5.16-10.64,7.36-15.34C408.26,507.94,388.7,526.07,388.7,526.07Z"/><path class="de" d="M379.88,491.37l-3.05,5.71s33.22-32.16,35.26-40.36Z"/><path class="df" d="M378.11,483.69a2.06,2.06,0,0,0-2.75-.95,2.09,2.09,0,0,0-.77.64l-.23.31a91.25,91.25,0,0,1-7.59-16.76c-6-17.41-10.25-26.81-12.45-29a9.76,9.76,0,0,0-4.73-2.8l-3.45-.73-6.35-1.34L334,431.84,331.26,429l-2.61-.14L332,434l2.15.29c4.85.69,16.32,2.45,17.14,3.79.14.23.64,1.26,1.39,2.87,4.75,10.18,19.82,43.73,20.79,45.87.84,1.87,2.34,5.25,2.53,5.89.27.89.78,4.39.78,4.39h0l3-5.71,1.32-1.42Z"/><path d="M504.67,529.66a12.75,12.75,0,0,0-8.11-8.76l-3.4-1.2.21,3.6a183.35,183.35,0,0,1,.1,19.19l-.18,3.6,3.4-1.2A12.67,12.67,0,0,0,504.67,529.66Zm-8.79,13a185.94,185.94,0,0,0-.1-19.47,10.33,10.33,0,0,1,.1,19.47Z"/><path class="cy" d="M495.16,515s-7.29-2.63-9.7,3.33c-3.43,8.48-9.73,7.4-10.32,13.82a77.85,77.85,0,0,0,0,7.79l-3.6,1.56s-1-8.17-4.52-8.17c-2.8,0-6.31,5.71-4.75,18.72a10.65,10.65,0,0,1-10.07,11.87l-10.06.49c3.12,8.81,0,18.13,0,18.13l13.34-4,26.38,1.84L480,571.24,491,568a1.44,1.44,0,0,0,1-1C498.8,546.08,495.16,515,495.16,515Z"/><path class="da" d="M467.1,554v8.74a15.84,15.84,0,0,0,3.11,9.43l.12.16-.93,7.23,12.46.87L480,571.24l11-3.29h0l-15.38-1.56a8.11,8.11,0,0,1-7.06-6.15Z"/><path class="da" d="M462.32,540.2a10.21,10.21,0,0,0,2.65,9.54l-3.17,7.16A24,24,0,0,1,462.32,540.2Z"/><path class="ay" d="M471.12,494.71h0c-13.19-2.24-31.19,1.2-36.7,13.77-5,14.92,2,39.95,7.66,55.89l9.18-.44a11.53,11.53,0,0,0,10.85-12.79c-1.3-12.38,2.12-17.85,4.85-17.85,3.5,0,4.52,8.17,4.52,8.17l3.6-1.56a77.65,77.65,0,0,1,0-7.78c.59-6.42,6.88-5.33,10.32-13.82a5.88,5.88,0,0,1,3.32-3.43,13.74,13.74,0,0,1-1.94,5.65s6.66-1,8.28-5.59S490.13,497,471.12,494.71Z"/><rect x="471.14" y="531.47" width="32.27" height="2.4" transform="translate(-76.54 81.8) rotate(-8.9)"/><path class="dg" d="M543.41,606.18a18.56,18.56,0,0,0-11.81-11.56l-43.88-14.27-3.18-6.14-41.37-5.56-6.62,13.58S397,603.06,391.31,606.75s-23.82,97.53-25.12,107.7,49.3,37.25,49.3,37.25l-.33,16.71H567l4.28-52.93Zm-15.9,152.88V673.33l8.43,42.87Z"/><g class="dh"><path class="ay" d="M527.49,673.33s-8.79,63.08-21.17,73.13-36.6-16.54-62-52.44c2.66,15.57,21.61,51.05,22.56,62.31s-31.23,10.25-35.34,0-21-117.35-21-117.35.49,51,1.54,60.5-10.89,25.69-25.38,19.63-4.94-40.63-4.94-40.63l-6.49,3.43S389,627.18,392.61,619s43.93-36.8,43.93-36.8S397,603,391.3,606.72s-23.82,97.53-25.12,107.7,49.3,37.25,49.3,37.25l-.33,16.71H527.49Z"/><path class="ay" d="M527.49,673.33l-9.07-47.2s-3.48,118.57-17.81,122.46,8.25,13,8.25,13l10.15-7.9Z"/></g><path class="di" d="M517.63,623.11S539.55,707,543,709.59s13.47,5.21,9.56,6.95-10.74-.43-12.1,6.52-10.21,45.35-10.21,45.35h-4.63l10.26-52.21Z"/><path class="dj" d="M478.3,581.82l-15.75,7,65.54,17.83,43.2,108.83L543.41,606.19a18.56,18.56,0,0,0-11.81-11.56l-43.88-14.27-3.18-6.14-14.3-1.92Z"/><path class="dk" d="M144.78,748.34,148,768.41h17.59s-3.81-10.51-8.45-24.4Z"/><polygon class="dk" points="299.56 724.76 313.29 768.41 275.36 768.41 266.79 736.99 299.56 724.76"/><path class="dk" d="M194.5,639.19s2.38-18.78-3.2-34.64-19.63-66.68-.6-79.75,60.16,3.09,64.7,15.87-1.67,21.54-.53,29.27,3.3,11.52,2.21,18.69c-.73,4.84-5.12,16.09-7.89,22.88a7.51,7.51,0,0,1-8,4.6,51.6,51.6,0,0,0-7.66-.38,3.21,3.21,0,0,0-3.17,3.25c0,.1,0,.2,0,.3l2.5,24.41"/><path class="dl" d="M229.16,605.63l1.25,13.65a3.21,3.21,0,0,1,2.87-3.53l.28,0a51.6,51.6,0,0,1,7.66.38C234.78,614.3,229.16,605.63,229.16,605.63Z"/><path class="dm" d="M299.56,724.76c-1-3.4-19.39-59.77-25.21-66.34S242,640.83,242,640.83l-4.63-12.05c-7.24-7-50.58-7.41-50.58-7.41l-4.56,11s-39.37,15.71-41.48,48.3c-2.12,29,4,67.66,4,67.66a41.85,41.85,0,0,0,15.62,5.48c3,8.74,5.13,14.61,5.13,14.61H275.41L266.79,737C288.58,736.31,299.56,724.76,299.56,724.76Z"/><path class="ay" d="M255.3,551.81c8.19-10.27,4.23-25.39-7.45-31.39-7.32-3.76-15.95-5.4-24.25-6.06-9.89-.78-20-.45-29.43,2.69s-18.07,9.35-22.66,18.14c-4.85,9.28-4.76,20.39-3,30.72,1.6,9.66,4.46,19.83.88,29-3.24,8.27-11.14,13.75-19.15,17.59a18.2,18.2,0,0,0,25.72,1c2.39-2.22,1.59,1.55-2,5.23,8.38,5.65,24.08,2.28,23.08,6.69h0c19.53,5.87,35.38-12.92,24.38-42.17-2.09-5.58-4.59-11.51-2.22-17,2.6-6,14.42-3.76,14.21,8.41,6.82-6.9,10.3-22.36,12.77-31.75a50.12,50.12,0,0,1,4,13.45A18.72,18.72,0,0,0,255.3,551.81Z"/><path class="dn" d="M251,522.39c5.69,7.27,6.4,17.73.25,25.44a20.49,20.49,0,0,1-2.35,2.49,49.26,49.26,0,0,1,1.28,6,19.19,19.19,0,0,0,5.14-4.53C262.7,542.53,260.17,529.28,251,522.39Z"/><path class="dl" d="M220.18,579.82s3.55,7.6,8.66,8.91l-8.66,5.95Z"/><path class="do" d="M217.34,638.88s44.55,16.27,47.68,19.06c2.59,2.3,19.21,55,25,73.39a37.33,37.33,0,0,0,9.57-6.56c-1-3.4-19.39-59.77-25.21-66.34s-32.31-17.59-32.31-17.59l-4.66-12.05c-1.72-1.66-5.49-2.95-10.24-3.95l5.16,14Z"/><path class="dp" d="M275.41,768.41h10.94l-9.87-32.5a59.59,59.59,0,0,1-9.67,1.09Z"/><path class="dq" d="M276.41,735.91l-.54-1.78c-13-1.52-30.3-46.66-30.3-46.66s16.45,64.85,14,70.91-50.21,5.08-47.48,2,23.33-14.28,15.83-12-45.49,13.81-50.7,10a25.65,25.65,0,0,1-3.81-4.38c-8.55-11.2-25.25-38.47-25.25-38.47h0l5.48,29.77-9.49-1.75h0l.08.09a51.73,51.73,0,0,1,5.2,7.1,46.09,46.09,0,0,0,11,3.07c3,8.74,5.13,14.61,5.13,14.61H275.41L266.81,737A59.54,59.54,0,0,0,276.41,735.91Z"/><path class="dp" d="M156,768.41h9.55s-2.13-5.86-5.13-14.61a45.49,45.49,0,0,1-11.08-3.13A50.48,50.48,0,0,1,156,768.41Z"/><path class="dr" d="M192.65,519.93c9.41-3.14,19.54-3.47,29.43-2.69,8.31.66,16.94,2.3,24.25,6.06,10,5.16,14.36,17.05,10.19,26.81,6.51-10.17,2.38-24-8.67-29.68-7.32-3.76-15.95-5.4-24.25-6.06-9.89-.78-20-.45-29.43,2.69s-18.07,9.35-22.66,18.14c-.21.4-.4.82-.6,1.23C175.69,528.5,183.84,522.87,192.65,519.93Z"/><circle class="o" cx="230.55" cy="587.25" r="4.61"/><path class="dl" d="M230.2,582.66a4.59,4.59,0,0,1-2.68,8.07,4.61,4.61,0,1,0,2.68-8.07Z"/><path class="dl" d="M223.84,566.25c-4.4,1.48-2,9-2,9s-.63-6.21,2.63-6.84,5,4.86,4.33,6-2.72,3.59-2,5.44,2.08,2.39,4.46,1.14S230,564.2,223.84,566.25Z"/></svg>