<?xml version="1.0" encoding="UTF-8" standalone="no"?>
<svg width="148px" height="72px" viewBox="0 0 148 72" version="1.1" xmlns="http://www.w3.org/2000/svg" xmlns:xlink="http://www.w3.org/1999/xlink" xmlns:sketch="http://www.bohemiancoding.com/sketch/ns">
    <!-- Generator: Sketch 3.4.2 (15855) - http://www.bohemiancoding.com/sketch -->
    <title>1588 Crucero Avenue + TAX REGN #231653279 + Line 2</title>
    <desc>Created with Sketch.</desc>
    <defs></defs>
    <g id="Page-1" stroke="none" stroke-width="1" fill="none" fill-rule="evenodd" sketch:type="MSPage">
        <g id="Inclusive-simple-Copy-4" sketch:type="MSArtboardGroup" transform="translate(-72.000000, -158.000000)">
            <g id="1588-Crucero-Avenue-+-TAX-REGN-#231653279-+-Line-2" sketch:type="MSLayerGroup" transform="translate(72.000000, 158.000000)">
                <path d="M4.15,10 L4.15,0.662 L3.422,0.662 L1.364,2.832 L1.854,3.35 L3.352,1.754 L3.352,10 L4.15,10 Z M9.498,10.168 C11.22,10.168 12.648,9.02 12.648,7.158 C12.648,5.212 11.234,4.176 9.666,4.176 C8.7,4.176 7.902,4.596 7.44,5.044 L7.44,1.39 L12.032,1.39 L12.032,0.662 L6.642,0.662 L6.642,5.562 L7.244,5.814 C7.93,5.184 8.658,4.904 9.512,4.904 C10.856,4.904 11.836,5.772 11.836,7.186 C11.836,8.46 10.856,9.44 9.498,9.44 C8.294,9.44 7.482,8.964 6.88,8.11 L6.348,8.642 C6.992,9.566 7.944,10.168 9.498,10.168 L9.498,10.168 Z M17.464,10.168 C19.256,10.168 20.642,9.174 20.642,7.662 C20.642,6.36 19.508,5.506 18.318,5.184 C19.424,4.89 20.488,4.176 20.488,2.93 C20.488,1.278 18.92,0.522 17.464,0.522 C15.994,0.522 14.44,1.278 14.44,2.93 C14.44,4.176 15.504,4.89 16.61,5.184 C15.42,5.506 14.286,6.36 14.286,7.662 C14.286,9.188 15.658,10.168 17.464,10.168 L17.464,10.168 Z M17.464,4.848 C16.904,4.736 15.252,4.316 15.252,3.014 C15.252,1.894 16.246,1.25 17.464,1.25 C18.682,1.25 19.676,1.894 19.676,3.014 C19.676,4.316 18.038,4.736 17.464,4.848 L17.464,4.848 Z M17.464,9.44 C16.218,9.44 15.098,8.74 15.098,7.606 C15.098,6.178 16.89,5.618 17.464,5.548 C18.024,5.618 19.83,6.178 19.83,7.606 C19.83,8.74 18.682,9.44 17.464,9.44 L17.464,9.44 Z M25.458,10.168 C27.25,10.168 28.636,9.174 28.636,7.662 C28.636,6.36 27.502,5.506 26.312,5.184 C27.418,4.89 28.482,4.176 28.482,2.93 C28.482,1.278 26.914,0.522 25.458,0.522 C23.988,0.522 22.434,1.278 22.434,2.93 C22.434,4.176 23.498,4.89 24.604,5.184 C23.414,5.506 22.28,6.36 22.28,7.662 C22.28,9.188 23.652,10.168 25.458,10.168 L25.458,10.168 Z M25.458,4.848 C24.898,4.736 23.246,4.316 23.246,3.014 C23.246,1.894 24.24,1.25 25.458,1.25 C26.676,1.25 27.67,1.894 27.67,3.014 C27.67,4.316 26.032,4.736 25.458,4.848 L25.458,4.848 Z M25.458,9.44 C24.212,9.44 23.092,8.74 23.092,7.606 C23.092,6.178 24.884,5.618 25.458,5.548 C26.018,5.618 27.824,6.178 27.824,7.606 C27.824,8.74 26.676,9.44 25.458,9.44 L25.458,9.44 Z M38.618,10.168 C40.102,10.168 41.194,9.524 42.034,8.502 L41.348,8.082 C40.76,8.894 39.738,9.44 38.618,9.44 C36.434,9.44 34.726,7.746 34.726,5.338 C34.726,2.902 36.434,1.236 38.618,1.236 C39.738,1.236 40.76,1.782 41.348,2.594 L42.02,2.16 C41.236,1.166 40.102,0.508 38.618,0.508 C35.972,0.508 33.886,2.468 33.886,5.338 C33.886,8.208 35.972,10.168 38.618,10.168 L38.618,10.168 Z M44.33,10 L44.33,5.072 C44.638,4.484 45.562,3.868 46.248,3.868 C46.388,3.868 46.486,3.868 46.612,3.896 L46.612,3.098 C45.674,3.098 44.904,3.644 44.33,4.4 L44.33,3.238 L43.602,3.238 L43.602,10 L44.33,10 Z M53.332,10 L53.332,3.238 L52.604,3.238 L52.604,8.39 C52.156,8.992 51.274,9.51 50.406,9.51 C49.426,9.51 48.768,9.146 48.768,7.83 L48.768,3.238 L48.04,3.238 L48.04,7.998 C48.04,9.524 48.796,10.168 50.168,10.168 C51.148,10.168 52.058,9.622 52.604,9.006 L52.604,10 L53.332,10 Z M58.498,10.168 C59.674,10.168 60.346,9.706 60.892,9.006 L60.388,8.558 C59.898,9.23 59.282,9.51 58.54,9.51 C56.958,9.51 55.992,8.236 55.992,6.612 C55.992,4.988 56.958,3.728 58.54,3.728 C59.282,3.728 59.898,3.994 60.388,4.666 L60.892,4.218 C60.346,3.532 59.674,3.07 58.498,3.07 C56.51,3.07 55.222,4.638 55.222,6.612 C55.222,8.586 56.51,10.168 58.498,10.168 L58.498,10.168 Z M65.512,10.168 C66.632,10.168 67.486,9.776 68.158,9.076 L67.78,8.6 C67.206,9.216 66.422,9.538 65.568,9.538 C63.972,9.538 62.992,8.32 62.922,6.85 L68.578,6.85 L68.578,6.654 C68.578,4.694 67.444,3.07 65.386,3.07 C63.51,3.07 62.138,4.652 62.138,6.612 C62.138,8.698 63.538,10.168 65.512,10.168 L65.512,10.168 Z M67.836,6.276 L62.922,6.276 C62.978,5.1 63.776,3.7 65.372,3.7 C67.066,3.7 67.822,5.128 67.836,6.276 L67.836,6.276 Z M71.182,10 L71.182,5.072 C71.49,4.484 72.414,3.868 73.1,3.868 C73.24,3.868 73.338,3.868 73.464,3.896 L73.464,3.098 C72.526,3.098 71.756,3.644 71.182,4.4 L71.182,3.238 L70.454,3.238 L70.454,10 L71.182,10 Z M77.748,10.168 C79.75,10.168 81.01,8.586 81.01,6.612 C81.01,4.638 79.75,3.07 77.748,3.07 C75.774,3.07 74.514,4.638 74.514,6.612 C74.514,8.586 75.774,10.168 77.748,10.168 L77.748,10.168 Z M77.748,9.51 C76.18,9.51 75.284,8.124 75.284,6.612 C75.284,5.114 76.18,3.728 77.748,3.728 C79.344,3.728 80.226,5.114 80.226,6.612 C80.226,8.124 79.344,9.51 77.748,9.51 L77.748,9.51 Z M94.226,10 L90.404,0.662 L89.41,0.662 L85.588,10 L86.512,10 L87.436,7.704 L92.378,7.704 L93.302,10 L94.226,10 Z M92.112,6.976 L87.702,6.976 L89.914,1.516 L92.112,6.976 Z M97.936,10 L100.792,3.238 L99.966,3.238 L97.53,9.146 L95.066,3.238 L94.254,3.238 L97.11,10 L97.936,10 Z M105.02,10.168 C106.14,10.168 106.994,9.776 107.666,9.076 L107.288,8.6 C106.714,9.216 105.93,9.538 105.076,9.538 C103.48,9.538 102.5,8.32 102.43,6.85 L108.086,6.85 L108.086,6.654 C108.086,4.694 106.952,3.07 104.894,3.07 C103.018,3.07 101.646,4.652 101.646,6.612 C101.646,8.698 103.046,10.168 105.02,10.168 L105.02,10.168 Z M107.344,6.276 L102.43,6.276 C102.486,5.1 103.284,3.7 104.88,3.7 C106.574,3.7 107.33,5.128 107.344,6.276 L107.344,6.276 Z M115.254,10 L115.254,5.268 C115.254,3.742 114.498,3.07 113.126,3.07 C112.146,3.07 111.18,3.672 110.69,4.26 L110.69,3.238 L109.962,3.238 L109.962,10 L110.69,10 L110.69,4.89 C111.124,4.274 112.02,3.728 112.888,3.728 C113.868,3.728 114.526,4.12 114.526,5.422 L114.526,10 L115.254,10 Z M122.814,10 L122.814,3.238 L122.086,3.238 L122.086,8.39 C121.638,8.992 120.756,9.51 119.888,9.51 C118.908,9.51 118.25,9.146 118.25,7.83 L118.25,3.238 L117.522,3.238 L117.522,7.998 C117.522,9.524 118.278,10.168 119.65,10.168 C120.63,10.168 121.54,9.622 122.086,9.006 L122.086,10 L122.814,10 Z M128.078,10.168 C129.198,10.168 130.052,9.776 130.724,9.076 L130.346,8.6 C129.772,9.216 128.988,9.538 128.134,9.538 C126.538,9.538 125.558,8.32 125.488,6.85 L131.144,6.85 L131.144,6.654 C131.144,4.694 130.01,3.07 127.952,3.07 C126.076,3.07 124.704,4.652 124.704,6.612 C124.704,8.698 126.104,10.168 128.078,10.168 L128.078,10.168 Z M130.402,6.276 L125.488,6.276 C125.544,5.1 126.342,3.7 127.938,3.7 C129.632,3.7 130.388,5.128 130.402,6.276 L130.402,6.276 Z M5.06,32.168 C7.58,32.168 8.378,30.726 8.378,29.522 C8.378,26.036 2.778,27.352 2.778,24.958 C2.778,23.95 3.716,23.236 4.962,23.236 C6.012,23.236 6.964,23.6 7.636,24.412 L8.168,23.824 C7.454,22.998 6.39,22.508 5.004,22.508 C3.31,22.508 1.938,23.474 1.938,25 C1.938,28.262 7.538,26.834 7.538,29.578 C7.538,30.376 6.992,31.44 5.088,31.44 C3.744,31.44 2.764,30.768 2.162,30.082 L1.644,30.684 C2.358,31.538 3.52,32.168 5.06,32.168 L5.06,32.168 Z M15.294,32 L15.294,27.24 C15.294,25.728 14.202,25.07 12.83,25.07 C11.71,25.07 10.926,25.448 10.226,26.204 L10.632,26.708 C11.248,26.008 11.906,25.714 12.76,25.714 C13.754,25.714 14.566,26.26 14.566,27.268 L14.566,28.64 C13.978,27.982 13.208,27.674 12.27,27.674 C11.094,27.674 9.904,28.444 9.904,29.914 C9.904,31.37 11.108,32.168 12.27,32.168 C13.208,32.168 13.964,31.86 14.566,31.202 L14.566,32 L15.294,32 Z M12.522,31.594 C11.416,31.594 10.674,30.88 10.674,29.928 C10.674,28.962 11.416,28.248 12.522,28.248 C13.334,28.248 14.09,28.556 14.566,29.186 L14.566,30.67 C14.09,31.286 13.334,31.594 12.522,31.594 L12.522,31.594 Z M22.854,32 L22.854,27.268 C22.854,25.742 22.098,25.07 20.726,25.07 C19.746,25.07 18.78,25.672 18.29,26.26 L18.29,25.238 L17.562,25.238 L17.562,32 L18.29,32 L18.29,26.89 C18.724,26.274 19.62,25.728 20.488,25.728 C21.468,25.728 22.126,26.12 22.126,27.422 L22.126,32 L22.854,32 Z M30.204,32.168 C31.758,32.168 33.032,31.244 33.032,29.298 L33.032,22.662 L32.234,22.662 L32.234,29.298 C32.234,30.558 31.436,31.44 30.162,31.44 C29.294,31.44 28.72,30.964 28.3,30.404 L27.81,31.02 C28.426,31.818 29.196,32.168 30.204,32.168 L30.204,32.168 Z M38.184,32.168 C40.186,32.168 41.446,30.586 41.446,28.612 C41.446,26.638 40.186,25.07 38.184,25.07 C36.21,25.07 34.95,26.638 34.95,28.612 C34.95,30.586 36.21,32.168 38.184,32.168 L38.184,32.168 Z M38.184,31.51 C36.616,31.51 35.72,30.124 35.72,28.612 C35.72,27.114 36.616,25.728 38.184,25.728 C39.78,25.728 40.662,27.114 40.662,28.612 C40.662,30.124 39.78,31.51 38.184,31.51 L38.184,31.51 Z M45.338,32.168 C47.032,32.168 47.872,31.272 47.872,30.18 C47.872,27.576 43.616,28.612 43.616,26.918 C43.616,26.218 44.246,25.686 45.296,25.686 C46.192,25.686 46.92,26.05 47.312,26.582 L47.718,26.064 C47.228,25.518 46.458,25.07 45.296,25.07 C43.77,25.07 42.888,25.91 42.888,26.946 C42.888,29.382 47.158,28.332 47.158,30.18 C47.158,30.964 46.486,31.552 45.352,31.552 C44.4,31.552 43.602,31.104 43.168,30.558 L42.734,31.09 C43.406,31.846 44.246,32.168 45.338,32.168 L45.338,32.168 Z M52.744,32.168 C53.864,32.168 54.718,31.776 55.39,31.076 L55.012,30.6 C54.438,31.216 53.654,31.538 52.8,31.538 C51.204,31.538 50.224,30.32 50.154,28.85 L55.81,28.85 L55.81,28.654 C55.81,26.694 54.676,25.07 52.618,25.07 C50.742,25.07 49.37,26.652 49.37,28.612 C49.37,30.698 50.77,32.168 52.744,32.168 L52.744,32.168 Z M55.068,28.276 L50.154,28.276 C50.21,27.1 51.008,25.7 52.604,25.7 C54.298,25.7 55.054,27.128 55.068,28.276 L55.068,28.276 Z M58.652,31.804 C58.652,31.23 58.316,30.908 57.938,30.908 C57.602,30.908 57.336,31.188 57.336,31.51 C57.336,31.846 57.574,32.098 57.91,32.098 C57.952,32.098 58.05,32.084 58.05,32.084 C58.022,32.518 57.686,33.064 57.238,33.372 L57.644,33.708 C58.19,33.33 58.652,32.588 58.652,31.804 L58.652,31.804 Z M68.662,32.168 C70.146,32.168 71.238,31.524 72.078,30.502 L71.392,30.082 C70.804,30.894 69.782,31.44 68.662,31.44 C66.478,31.44 64.77,29.746 64.77,27.338 C64.77,24.902 66.478,23.236 68.662,23.236 C69.782,23.236 70.804,23.782 71.392,24.594 L72.064,24.16 C71.28,23.166 70.146,22.508 68.662,22.508 C66.016,22.508 63.93,24.468 63.93,27.338 C63.93,30.208 66.016,32.168 68.662,32.168 L68.662,32.168 Z M81.332,32 L77.51,22.662 L76.516,22.662 L72.694,32 L73.618,32 L74.542,29.704 L79.484,29.704 L80.408,32 L81.332,32 Z M79.218,28.976 L74.808,28.976 L77.02,23.516 L79.218,28.976 Z M88.962,32.154 C91.538,32.154 92.532,29.732 92.532,27.338 C92.532,24.832 91.622,22.508 89.102,22.508 C87.114,22.508 85.966,23.964 85.966,25.49 C85.966,27.478 87.296,28.444 88.976,28.444 C90.25,28.444 91.328,27.534 91.72,26.89 L91.72,27.324 C91.72,29.284 91.02,31.426 88.962,31.426 C87.94,31.426 87.38,30.992 86.918,30.39 L86.442,30.964 C87.002,31.664 87.744,32.154 88.962,32.154 L88.962,32.154 Z M89.116,27.73 C87.786,27.73 86.778,27.002 86.778,25.476 C86.778,24.468 87.534,23.236 89.13,23.236 C90.894,23.236 91.552,24.86 91.664,26.134 C91.132,27.072 90.138,27.73 89.116,27.73 L89.116,27.73 Z M97.53,32.168 C99.252,32.168 100.68,31.02 100.68,29.158 C100.68,27.212 99.266,26.176 97.698,26.176 C96.732,26.176 95.934,26.596 95.472,27.044 L95.472,23.39 L100.064,23.39 L100.064,22.662 L94.674,22.662 L94.674,27.562 L95.276,27.814 C95.962,27.184 96.69,26.904 97.544,26.904 C98.888,26.904 99.868,27.772 99.868,29.186 C99.868,30.46 98.888,31.44 97.53,31.44 C96.326,31.44 95.514,30.964 94.912,30.11 L94.38,30.642 C95.024,31.566 95.976,32.168 97.53,32.168 L97.53,32.168 Z M104.642,32 L104.642,22.662 L103.914,22.662 L101.856,24.832 L102.346,25.35 L103.844,23.754 L103.844,32 L104.642,32 Z M112.748,32 L112.748,31.272 L107.834,31.272 C110.536,29.088 112.706,27.212 112.706,25.154 C112.706,23.306 111.138,22.522 109.766,22.522 C108.45,22.522 107.316,23.068 106.658,23.964 L107.204,24.468 C107.708,23.754 108.604,23.25 109.766,23.25 C110.788,23.25 111.894,23.81 111.894,25.154 C111.894,26.96 109.766,28.78 106.588,31.342 L106.588,32 L112.748,32 Z M120.896,32 L120.896,31.272 L115.982,31.272 C118.684,29.088 120.854,27.212 120.854,25.154 C120.854,23.306 119.286,22.522 117.914,22.522 C116.598,22.522 115.464,23.068 114.806,23.964 L115.352,24.468 C115.856,23.754 116.752,23.25 117.914,23.25 C118.936,23.25 120.042,23.81 120.042,25.154 C120.042,26.96 117.914,28.78 114.736,31.342 L114.736,32 L120.896,32 Z" id="1588-Crucero-Avenue" fill="#2F2F2F" sketch:type="MSShapeGroup"></path>
                <path d="M4.854,56.268 L4.854,47.658 L7.906,47.658 L7.906,46.93 L0.99,46.93 L0.99,47.658 L4.042,47.658 L4.042,56.268 L4.854,56.268 Z M16.278,56.268 L12.456,46.93 L11.462,46.93 L7.64,56.268 L8.564,56.268 L9.488,53.972 L14.43,53.972 L15.354,56.268 L16.278,56.268 Z M14.164,53.244 L9.754,53.244 L11.966,47.784 L14.164,53.244 Z M25.252,56.268 L21.5,51.466 L25.042,46.93 L24.034,46.93 L20.996,50.892 L17.972,46.93 L16.964,46.93 L20.506,51.48 L16.754,56.268 L17.748,56.268 L20.996,52.054 L24.258,56.268 L25.252,56.268 Z M36.746,56.268 L34.044,52.348 C35.444,52.292 36.634,51.354 36.634,49.66 C36.634,47.952 35.402,46.93 33.792,46.93 L30.306,46.93 L30.306,56.268 L31.104,56.268 L31.104,52.404 L33.162,52.404 L35.78,56.268 L36.746,56.268 Z M33.722,51.676 L31.104,51.676 L31.104,47.658 L33.722,47.658 C34.968,47.658 35.794,48.484 35.794,49.66 C35.794,50.836 34.968,51.676 33.722,51.676 L33.722,51.676 Z M44.544,56.268 L44.544,55.54 L39.42,55.54 L39.42,51.844 L44.446,51.844 L44.446,51.116 L39.42,51.116 L39.42,47.658 L44.544,47.658 L44.544,46.93 L38.622,46.93 L38.622,56.268 L44.544,56.268 Z M50.9,56.45 C52.37,56.45 53.616,55.82 54.442,54.896 L54.442,51.634 L50.116,51.634 L50.116,52.348 L53.644,52.348 L53.644,54.588 C53.14,55.106 52.146,55.722 50.9,55.722 C48.716,55.722 47.008,54.014 47.008,51.606 C47.008,49.17 48.716,47.504 50.9,47.504 C52.09,47.504 53.154,48.022 53.812,48.806 L54.414,48.372 C53.56,47.392 52.44,46.776 50.9,46.776 C48.268,46.776 46.168,48.722 46.168,51.606 C46.168,54.49 48.268,56.45 50.9,56.45 L50.9,56.45 Z M63.934,56.268 L63.934,46.93 L63.136,46.93 L63.136,54.84 L57.284,46.93 L56.472,46.93 L56.472,56.268 L57.27,56.268 L57.27,48.246 L63.15,56.268 L63.934,56.268 Z M73.23,56.268 L74.042,53.818 L75.54,53.818 L75.848,52.852 L74.364,52.852 L75.218,50.346 L76.674,50.346 L76.954,49.38 L75.526,49.38 L76.352,46.93 L75.232,46.93 L74.42,49.38 L73.006,49.38 L73.818,46.93 L72.698,46.93 L71.886,49.38 L70.43,49.38 L70.136,50.346 L71.564,50.346 L70.724,52.852 L69.296,52.852 L68.988,53.818 L70.402,53.818 L69.576,56.268 L70.696,56.268 L71.508,53.818 L72.936,53.818 L72.11,56.268 L73.23,56.268 Z M73.244,52.852 L71.844,52.852 L72.684,50.346 L74.098,50.346 L73.244,52.852 Z M84.682,56.268 L84.682,54.826 L80.552,54.826 C83.044,52.936 84.626,51.396 84.626,49.66 C84.626,47.798 83.058,46.79 81.252,46.79 C79.936,46.79 78.62,47.28 77.794,48.288 L78.746,49.352 C79.348,48.68 80.174,48.246 81.266,48.246 C82.12,48.246 82.974,48.68 82.974,49.66 C82.974,51.018 81.546,52.222 77.92,54.966 L77.92,56.268 L84.682,56.268 Z M89.414,56.436 C91.584,56.436 92.942,55.302 92.942,53.706 C92.942,52.264 91.668,51.536 90.772,51.438 C91.724,51.284 92.788,50.556 92.788,49.296 C92.788,47.742 91.444,46.79 89.428,46.79 C87.874,46.79 86.74,47.406 86.012,48.26 L86.852,49.282 C87.524,48.596 88.308,48.246 89.274,48.246 C90.31,48.246 91.164,48.694 91.164,49.548 C91.164,50.402 90.338,50.78 89.232,50.78 C88.868,50.78 88.322,50.78 88.168,50.766 L88.168,52.25 C88.308,52.236 88.84,52.222 89.232,52.222 C90.576,52.222 91.304,52.628 91.304,53.552 C91.304,54.406 90.59,54.98 89.358,54.98 C88.364,54.98 87.384,54.546 86.782,53.846 L85.886,54.924 C86.53,55.764 87.762,56.436 89.414,56.436 L89.414,56.436 Z M97.912,56.268 L97.912,46.93 L96.484,46.93 L93.796,49.646 L94.748,50.64 L96.274,49.044 L96.274,56.268 L97.912,56.268 Z M103.344,56.436 C105.43,56.436 106.788,55.022 106.788,53.3 C106.788,51.312 105.332,50.276 103.652,50.276 C102.56,50.276 101.58,50.962 101.146,51.592 L101.146,51.326 C101.146,49.688 102.042,48.246 103.61,48.246 C104.492,48.246 105.038,48.554 105.528,49.058 L106.284,47.826 C105.654,47.196 104.758,46.79 103.61,46.79 C100.908,46.79 99.494,48.918 99.494,51.606 C99.494,54.21 100.6,56.436 103.344,56.436 L103.344,56.436 Z M103.246,54.98 C101.818,54.98 101.258,53.79 101.174,52.782 C101.636,52.11 102.42,51.69 103.218,51.69 C104.226,51.69 105.122,52.208 105.122,53.356 C105.122,54.098 104.478,54.98 103.246,54.98 L103.246,54.98 Z M111.576,56.436 C113.662,56.436 115.146,55.204 115.146,53.272 C115.146,51.354 113.732,50.262 112.15,50.262 C111.254,50.262 110.498,50.626 110.036,51.06 L110.036,48.372 L114.516,48.372 L114.516,46.93 L108.398,46.93 L108.398,52.138 L109.56,52.474 C110.162,51.914 110.82,51.676 111.604,51.676 C112.752,51.676 113.48,52.334 113.48,53.328 C113.48,54.252 112.752,54.98 111.562,54.98 C110.526,54.98 109.672,54.588 109.056,53.86 L108.118,54.994 C108.874,55.876 109.98,56.436 111.576,56.436 L111.576,56.436 Z M119.584,56.436 C121.754,56.436 123.112,55.302 123.112,53.706 C123.112,52.264 121.838,51.536 120.942,51.438 C121.894,51.284 122.958,50.556 122.958,49.296 C122.958,47.742 121.614,46.79 119.598,46.79 C118.044,46.79 116.91,47.406 116.182,48.26 L117.022,49.282 C117.694,48.596 118.478,48.246 119.444,48.246 C120.48,48.246 121.334,48.694 121.334,49.548 C121.334,50.402 120.508,50.78 119.402,50.78 C119.038,50.78 118.492,50.78 118.338,50.766 L118.338,52.25 C118.478,52.236 119.01,52.222 119.402,52.222 C120.746,52.222 121.474,52.628 121.474,53.552 C121.474,54.406 120.76,54.98 119.528,54.98 C118.534,54.98 117.554,54.546 116.952,53.846 L116.056,54.924 C116.7,55.764 117.932,56.436 119.584,56.436 L119.584,56.436 Z M131.218,56.268 L131.218,54.826 L127.088,54.826 C129.58,52.936 131.162,51.396 131.162,49.66 C131.162,47.798 129.594,46.79 127.788,46.79 C126.472,46.79 125.156,47.28 124.33,48.288 L125.282,49.352 C125.884,48.68 126.71,48.246 127.802,48.246 C128.656,48.246 129.51,48.68 129.51,49.66 C129.51,51.018 128.082,52.222 124.456,54.966 L124.456,56.268 L131.218,56.268 Z M135.586,56.268 L139.198,48.064 L139.198,46.93 L132.464,46.93 L132.464,48.372 L137.308,48.372 L133.78,56.268 L135.586,56.268 Z M143.258,56.422 C145.96,56.422 147.374,54.294 147.374,51.592 C147.374,49.002 146.268,46.776 143.524,46.776 C141.438,46.776 140.08,48.176 140.08,49.912 C140.08,51.9 141.522,52.922 143.202,52.922 C144.308,52.922 145.288,52.25 145.708,51.62 C145.722,51.704 145.722,51.802 145.722,51.886 C145.722,53.412 144.952,54.966 143.258,54.966 C142.362,54.966 141.83,54.658 141.34,54.14 L140.57,55.386 C141.2,56.002 142.096,56.422 143.258,56.422 L143.258,56.422 Z M143.65,51.522 C142.628,51.522 141.732,51.004 141.732,49.856 C141.732,49.1 142.376,48.232 143.608,48.232 C145.05,48.232 145.596,49.408 145.694,50.416 C145.218,51.088 144.448,51.522 143.65,51.522 L143.65,51.522 Z" id="TAX-REGN-#231653279" fill="#2F2F2F" sketch:type="MSShapeGroup"></path>
                <path d="M72.2272727,71.5 L0.604292894,71.5" id="Line-2" stroke="#979797" stroke-linecap="square" opacity="0.5" sketch:type="MSShapeGroup"></path>
            </g>
        </g>
    </g>
</svg>