<?xml version="1.0" encoding="UTF-8" standalone="no"?>
<svg width="121px" height="69px" viewBox="0 0 174 73" version="1.1" xmlns="http://www.w3.org/2000/svg" xmlns:xlink="http://www.w3.org/1999/xlink">
    <!-- Generator: Sketch 41 (35326) - http://www.bohemiancoding.com/sketch -->
    <title>Group</title>
    <desc>Created with Sketch.</desc>
    <defs>
        <path d="M0,0 L194,0 L194,100 L0,100 L0,0 Z M30.0387097,12.3209169 L160.519355,12.3209169 L160.519355,90.5444126 L30.0387097,90.5444126 L30.0387097,12.3209169 Z" id="path-1"></path>
    </defs>
    <g id="Page-1" stroke="none" stroke-width="1" fill="none" fill-rule="evenodd">
        <g id="anatomy" transform="translate(-10.000000, -17.000000)">
            <g id="Page-1">
                <g id="logo-address">
                    <g id="Group">
                        <g>
                            <g id="Rectangle-2">
                                <g id="Clipped">
                                    <mask id="mask-2" fill="white">
                                        <use xlink:href="#path-1"></use>
                                    </mask>
                                    <g id="path-2"></g>
                                    <path d="M20.0258065,75.3581662 L173.974194,75.3581662 L173.974194,35.530086 L20.0258065,35.530086 L20.0258065,75.3581662 Z M10.3258065,26.6475645 L183.674194,26.6475645 L183.674194,84.2406877 L10.3258065,84.2406877 L10.3258065,26.6475645 Z" id="Shape" fill="#191919" mask="url(#mask-2)"></path>
                                </g>
                            </g>
                            <path d="M57.0485161,35.1862464 L50.3304839,17.765043 L44.2664194,17.765043 L37.5483871,35.1862464 L42.6017742,35.1862464 L43.6421774,32.1919771 L50.9547258,32.1919771 L51.995129,35.1862464 L57.0485161,35.1862464 Z M49.9143226,28.9527221 L44.6825806,28.9527221 L47.2687258,21.6031519 L49.9143226,28.9527221 Z M71.6407581,35.1862464 L71.6407581,27.5372493 C71.6407581,23.7808023 70.6895323,21.0587393 65.6955968,21.0587393 C62.8121935,21.0587393 61.0880968,22.0659026 60.3449516,23.2091691 L59.2450968,21.3037249 L57.1345645,21.3037249 L57.1345645,35.1862464 L61.7717903,35.1862464 L61.7717903,27.3739255 C61.7717903,25.5501433 62.4257581,24.5974212 64.4471129,24.5974212 C66.587371,24.5974212 66.9738065,25.495702 66.9738065,27.3739255 L66.9738065,35.1862464 L71.6407581,35.1862464 Z M87.3328548,35.1862464 L87.3328548,27.3194842 C87.3328548,23.726361 86.381629,21.0587393 79.9014032,21.0587393 C74.3724032,21.0587393 73.0644677,23.1002865 73.0644677,26.0673352 L77.5827903,26.0673352 C77.5827903,24.9512894 78.1178548,24.1346705 80.0203065,24.1346705 C82.0416613,24.1346705 82.695629,24.97851 82.695629,26.5845272 L78.712371,26.965616 C74.4615806,27.3739255 72.4699516,28.4899713 72.4699516,31.1575931 C72.4699516,34.0702006 75.2047258,35.4312321 78.7718226,35.4312321 C81.476871,35.4312321 83.1117903,34.5873926 84.1521935,33.008596 L85.2520484,35.1862464 L87.3328548,35.1862464 Z M82.695629,29.3610315 C82.6659032,31.0759312 81.8038548,32.4369628 79.7230484,32.4369628 C78.0286774,32.4369628 77.3152581,31.8381089 77.3152581,30.9942693 C77.3152581,30.3409742 77.8800484,29.8510029 79.7230484,29.6876791 L82.695629,29.3610315 Z M98.1796452,35.2951289 L98.1796452,31.8653295 C94.7017258,32.1919771 94.4341935,31.3209169 94.4341935,30.2593123 L94.4341935,24.7063037 L98.1796452,24.7063037 L98.1796452,21.3037249 L94.3152903,21.3037249 L94.3152903,17.765043 L89.7077903,17.765043 L89.7077903,21.3037249 L87.3297258,22.3925501 L87.3297258,24.7063037 L89.7077903,24.7063037 L89.7077903,30.6948424 C89.7077903,34.47851 91.3427097,35.7034384 98.1796452,35.2951289 Z M113.306952,28.217765 C113.306952,24.5974212 111.672032,21.0587393 105.697145,21.0587393 C99.6925323,21.0587393 98.0873387,24.5974212 98.0873387,28.217765 C98.0873387,31.8108883 99.6330806,35.4312321 105.667419,35.4312321 C111.672032,35.4312321 113.306952,31.8925501 113.306952,28.217765 Z M108.848081,28.217765 C108.848081,30.4498567 108.07521,31.8653295 105.667419,31.8653295 C103.348806,31.8653295 102.575935,30.4498567 102.575935,28.217765 C102.575935,26.012894 103.319081,24.5974212 105.697145,24.5974212 C108.164387,24.5974212 108.848081,26.0401146 108.848081,28.217765 Z M135.954887,35.1862464 L135.954887,26.8295129 C135.954887,23.6991404 135.241468,21.0587393 130.990677,21.0587393 C128.434258,21.0587393 127.126323,22.3653295 126.680435,23.0730659 C125.699484,21.5487106 124.153742,21.0587393 122.310742,21.0587393 C119.813774,21.0587393 118.35721,22.0659026 117.673516,23.1819484 L116.573661,21.3037249 L114.463129,21.3037249 L114.463129,35.1862464 L119.100355,35.1862464 L119.100355,26.747851 C119.100355,25.6045845 119.457065,24.6518625 121.032532,24.6518625 C122.637726,24.6518625 122.875532,25.6045845 122.875532,26.747851 L122.875532,35.1862464 L127.542484,35.1862464 L127.542484,26.747851 C127.542484,25.6045845 127.839742,24.6518625 129.41521,24.6518625 C130.990677,24.6518625 131.228484,25.6045845 131.228484,26.747851 L131.228484,35.1862464 L135.954887,35.1862464 Z M151.914516,21.3037249 L147.27729,21.3037249 L147.247565,29.0616046 C147.247565,31.0487106 146.7125,31.8925501 144.601968,31.8925501 C142.431984,31.8925501 142.075274,31.1303725 142.075274,29.1977077 L142.075274,21.3037249 L137.438048,21.3037249 L137.438048,29.034384 C137.438048,32.8180516 138.240645,35.4312321 143.294032,35.4312321 C145.404565,35.4312321 146.504419,34.777937 147.27729,33.7163324 L147.27729,35.5401146 C147.27729,36.7922636 146.890855,38.0716332 144.631694,38.0716332 C142.134726,38.0716332 141.986097,37.2550143 141.926645,36.4383954 L137.289419,36.4383954 C137.289419,39.2965616 138.686532,40.8753582 144.572242,40.8753582 C150.844387,40.8753582 151.914516,37.9355301 151.914516,35.213467 L151.914516,21.3037249 Z M79.100371,55.4383954 C79.100371,51.8180516 77.4654516,48.2793696 71.4905645,48.2793696 C65.4859516,48.2793696 63.8807581,51.8180516 63.8807581,55.4383954 C63.8807581,59.0315186 65.4265,62.6518625 71.4608387,62.6518625 C77.4654516,62.6518625 79.100371,59.1131805 79.100371,55.4383954 Z M74.6415,55.4383954 C74.6415,57.6704871 73.868629,59.0859599 71.4608387,59.0859599 C69.1422258,59.0859599 68.3693548,57.6704871 68.3693548,55.4383954 C68.3693548,53.2335244 69.1125,51.8180516 71.4905645,51.8180516 C73.9578065,51.8180516 74.6415,53.260745 74.6415,55.4383954 Z M89.3229194,51.9269341 L89.3229194,48.5243553 L85.8747258,48.5243553 L85.8747258,47.7893983 C85.8747258,46.782235 86.5584194,46.2922636 89.3229194,46.5644699 L89.3229194,43.1074499 C83.8830968,42.6991404 81.2375,43.6518625 81.2375,47.3266476 L81.2375,48.5243553 L78.9188871,49.6404011 L78.9188871,51.9269341 L81.2375,51.9269341 L81.2375,62.4068768 L85.8747258,62.4068768 L85.8747258,51.9269341 L89.3229194,51.9269341 Z M109.73829,62.4068768 L109.73829,54.5401146 C109.73829,50.9469914 108.787065,48.2793696 102.306839,48.2793696 C96.7778387,48.2793696 95.4699032,50.3209169 95.4699032,53.2879656 L99.9882258,53.2879656 C99.9882258,52.1719198 100.52329,51.3553009 102.425742,51.3553009 C104.447097,51.3553009 105.101065,52.1991404 105.101065,53.8051576 L101.117806,54.1862464 C96.8670161,54.5945559 94.8753871,55.7106017 94.8753871,58.3782235 C94.8753871,61.2908309 97.6101613,62.6518625 101.177258,62.6518625 C103.882306,62.6518625 105.517226,61.8080229 106.557629,60.2292264 L107.657484,62.4068768 L109.73829,62.4068768 Z M105.101065,56.5816619 C105.071339,58.2965616 104.20929,59.6575931 102.128484,59.6575931 C100.434113,59.6575931 99.7206935,59.0587393 99.7206935,58.2148997 C99.7206935,57.5616046 100.285484,57.0716332 102.128484,56.9083095 L105.101065,56.5816619 Z M125.638468,62.4068768 L125.638468,54.7578797 C125.638468,51.0014327 124.687242,48.2793696 119.693306,48.2793696 C116.809903,48.2793696 115.085806,49.286533 114.342661,50.4297994 L113.242806,48.5243553 L111.132274,48.5243553 L111.132274,62.4068768 L115.7695,62.4068768 L115.7695,54.5945559 C115.7695,52.7707736 116.423468,51.8180516 118.444823,51.8180516 C120.585081,51.8180516 120.971516,52.7163324 120.971516,54.5945559 L120.971516,62.4068768 L125.638468,62.4068768 Z M54.8754032,89.6275072 L54.8754032,72.2063037 L50.0598226,72.2063037 L50.0598226,89.6275072 L54.8754032,89.6275072 Z M71.5187258,89.6275072 L71.5187258,81.97851 C71.5187258,78.222063 70.5675,75.5 65.5735645,75.5 C62.6901613,75.5 60.9660645,76.5071633 60.2229194,77.6504298 L59.1230645,75.7449857 L57.0125323,75.7449857 L57.0125323,89.6275072 L61.6497581,89.6275072 L61.6497581,81.8151862 C61.6497581,79.991404 62.3037258,79.0386819 64.3250806,79.0386819 C66.4653387,79.0386819 66.8517742,79.9369628 66.8517742,81.8151862 L66.8517742,89.6275072 L71.5187258,89.6275072 Z M88.5187581,75.7449857 L83.1978387,75.7449857 L79.5118387,85.8166189 L75.9744677,75.7449857 L70.861629,75.7449857 L76.9256935,89.6275072 L82.1277097,89.6275072 L88.5187581,75.7449857 Z M102.635387,82.6590258 C102.635387,79.0386819 101.000468,75.5 95.0255806,75.5 C89.0209677,75.5 87.4157742,79.0386819 87.4157742,82.6590258 C87.4157742,86.252149 88.9615161,89.8724928 94.9958548,89.8724928 C101.000468,89.8724928 102.635387,86.3338109 102.635387,82.6590258 Z M98.1765161,82.6590258 C98.1765161,84.8911175 97.4036452,86.3065903 94.9958548,86.3065903 C92.6772419,86.3065903 91.904371,84.8911175 91.904371,82.6590258 C91.904371,80.4541547 92.6475161,79.0386819 95.0255806,79.0386819 C97.4928226,79.0386819 98.1765161,80.4813754 98.1765161,82.6590258 Z M108.339613,89.6275072 L108.339613,75.7449857 L103.672661,75.7449857 L103.672661,89.6275072 L108.339613,89.6275072 Z M109.023306,72.0702006 C109.023306,70.1375358 107.774823,69.7836676 106.021,69.7836676 C104.237452,69.7836676 102.929516,70.1375358 102.929516,72.0702006 C102.929516,73.9756447 104.237452,74.3567335 106.021,74.3567335 C107.774823,74.3567335 109.023306,73.9484241 109.023306,72.0702006 Z M119.483661,83.9111748 C119.305306,85.5444126 118.651339,86.3338109 116.86779,86.3338109 C114.430274,86.3338109 113.835758,84.9727794 113.835758,82.6590258 C113.835758,80.3452722 114.489726,79.0386819 116.86779,79.0386819 C118.591887,79.0386819 119.305306,79.6919771 119.483661,81.4885387 L124.150613,81.4885387 C124.150613,77.8137536 121.832,75.5 116.956968,75.5 C110.863177,75.5 109.228258,79.0386819 109.228258,82.6862464 C109.228258,86.3338109 110.833452,89.8724928 117.046145,89.8724928 C121.921177,89.8724928 124.150613,87.5859599 124.150613,83.9111748 L119.483661,83.9111748 Z M139.604903,85.4355301 L134.759597,85.4355301 C134.581242,86.2249284 133.867823,86.8782235 132.173452,86.8782235 C130.152097,86.8782235 129.200871,85.8982808 129.171145,84.0472779 L139.515726,84.0472779 C139.575177,83.6389685 139.575177,83.230659 139.575177,82.8223496 C139.575177,79.1747851 138.118613,75.5 132.292355,75.5 C126.049935,75.5 124.504194,79.0931232 124.504194,82.6862464 C124.504194,86.3338109 126.02021,89.8724928 132.381532,89.8724928 C136.989032,89.8724928 139.337371,87.9942693 139.604903,85.4355301 Z M134.759597,81.1618911 L129.200871,81.1618911 C129.3495,79.6919771 130.211548,78.6031519 132.054548,78.6031519 C134.016452,78.6031519 134.759597,79.7191977 134.759597,81.1618911 Z" id="Anatomy-of-an-Invoic" fill="#191919"></path>
                        </g>
                    </g>
                </g>
            </g>
        </g>
    </g>
</svg>