<?xml version="1.0" encoding="UTF-8" standalone="no"?>
<svg width="155px" height="174px" viewBox="0 0 155 174" version="1.1" xmlns="http://www.w3.org/2000/svg" xmlns:xlink="http://www.w3.org/1999/xlink" xmlns:sketch="http://www.bohemiancoding.com/sketch/ns">
    <!-- Generator: Sketch 3.4 (15575) - http://www.bohemiancoding.com/sketch -->
    <title>Group</title>
    <desc>Created with Sketch.</desc>
    <defs></defs>
    <g id="Page-1" stroke="none" stroke-width="1" fill="none" fill-rule="evenodd" sketch:type="MSPage">
        <g id="Inclusive-simple-Copy-4" sketch:type="MSArtboardGroup" transform="translate(-600.000000, -76.000000)">
            <g id="Group" sketch:type="MSLayerGroup" transform="translate(600.000000, 76.000000)">
                <path d="M1.96,52.368 L1.96,43.03 L1.162,43.03 L1.162,52.368 L1.96,52.368 Z M9.548,52.368 L9.548,47.636 C9.548,46.11 8.792,45.438 7.42,45.438 C6.44,45.438 5.474,46.04 4.984,46.628 L4.984,45.606 L4.256,45.606 L4.256,52.368 L4.984,52.368 L4.984,47.258 C5.418,46.642 6.314,46.096 7.182,46.096 C8.162,46.096 8.82,46.488 8.82,47.79 L8.82,52.368 L9.548,52.368 Z M14.462,52.368 L17.318,45.606 L16.492,45.606 L14.056,51.514 L11.592,45.606 L10.78,45.606 L13.636,52.368 L14.462,52.368 Z M21.406,52.536 C23.408,52.536 24.668,50.954 24.668,48.98 C24.668,47.006 23.408,45.438 21.406,45.438 C19.432,45.438 18.172,47.006 18.172,48.98 C18.172,50.954 19.432,52.536 21.406,52.536 L21.406,52.536 Z M21.406,51.878 C19.838,51.878 18.942,50.492 18.942,48.98 C18.942,47.482 19.838,46.096 21.406,46.096 C23.002,46.096 23.884,47.482 23.884,48.98 C23.884,50.492 23.002,51.878 21.406,51.878 L21.406,51.878 Z M26.908,44.542 C27.216,44.542 27.468,44.29 27.468,43.982 C27.468,43.674 27.216,43.436 26.908,43.436 C26.614,43.436 26.348,43.674 26.348,43.982 C26.348,44.29 26.614,44.542 26.908,44.542 L26.908,44.542 Z M27.272,52.368 L27.272,45.606 L26.544,45.606 L26.544,52.368 L27.272,52.368 Z M32.438,52.536 C33.614,52.536 34.286,52.074 34.832,51.374 L34.328,50.926 C33.838,51.598 33.222,51.878 32.48,51.878 C30.898,51.878 29.932,50.604 29.932,48.98 C29.932,47.356 30.898,46.096 32.48,46.096 C33.222,46.096 33.838,46.362 34.328,47.034 L34.832,46.586 C34.286,45.9 33.614,45.438 32.438,45.438 C30.45,45.438 29.162,47.006 29.162,48.98 C29.162,50.954 30.45,52.536 32.438,52.536 L32.438,52.536 Z M39.452,52.536 C40.572,52.536 41.426,52.144 42.098,51.444 L41.72,50.968 C41.146,51.584 40.362,51.906 39.508,51.906 C37.912,51.906 36.932,50.688 36.862,49.218 L42.518,49.218 L42.518,49.022 C42.518,47.062 41.384,45.438 39.326,45.438 C37.45,45.438 36.078,47.02 36.078,48.98 C36.078,51.066 37.478,52.536 39.452,52.536 L39.452,52.536 Z M41.776,48.644 L36.862,48.644 C36.918,47.468 37.716,46.068 39.312,46.068 C41.006,46.068 41.762,47.496 41.776,48.644 L41.776,48.644 Z M51.394,52.368 L52.206,49.918 L53.704,49.918 L54.012,48.952 L52.528,48.952 L53.382,46.446 L54.838,46.446 L55.118,45.48 L53.69,45.48 L54.516,43.03 L53.396,43.03 L52.584,45.48 L51.17,45.48 L51.982,43.03 L50.862,43.03 L50.05,45.48 L48.594,45.48 L48.3,46.446 L49.728,46.446 L48.888,48.952 L47.46,48.952 L47.152,49.918 L48.566,49.918 L47.74,52.368 L48.86,52.368 L49.672,49.918 L51.1,49.918 L50.274,52.368 L51.394,52.368 Z M51.408,48.952 L50.008,48.952 L50.848,46.446 L52.262,46.446 L51.408,48.952 Z M59.71,52.536 C62.328,52.536 63.434,50.044 63.434,47.706 C63.434,45.354 62.328,42.89 59.71,42.89 C57.078,42.89 55.972,45.354 55.972,47.706 C55.972,50.044 57.078,52.536 59.71,52.536 L59.71,52.536 Z M59.71,51.08 C58.184,51.08 57.638,49.484 57.638,47.706 C57.638,45.914 58.184,44.346 59.71,44.346 C61.236,44.346 61.768,45.914 61.768,47.706 C61.768,49.484 61.222,51.08 59.71,51.08 L59.71,51.08 Z M68.348,52.536 C70.966,52.536 72.072,50.044 72.072,47.706 C72.072,45.354 70.966,42.89 68.348,42.89 C65.716,42.89 64.61,45.354 64.61,47.706 C64.61,50.044 65.716,52.536 68.348,52.536 L68.348,52.536 Z M68.348,51.08 C66.822,51.08 66.276,49.484 66.276,47.706 C66.276,45.914 66.822,44.346 68.348,44.346 C69.874,44.346 70.406,45.914 70.406,47.706 C70.406,49.484 69.86,51.08 68.348,51.08 L68.348,51.08 Z M76.986,52.368 L76.986,43.03 L75.558,43.03 L72.87,45.746 L73.822,46.74 L75.348,45.144 L75.348,52.368 L76.986,52.368 Z M85.442,52.368 L85.442,50.926 L81.312,50.926 C83.804,49.036 85.386,47.496 85.386,45.76 C85.386,43.898 83.818,42.89 82.012,42.89 C80.696,42.89 79.38,43.38 78.554,44.388 L79.506,45.452 C80.108,44.78 80.934,44.346 82.026,44.346 C82.88,44.346 83.734,44.78 83.734,45.76 C83.734,47.118 82.306,48.322 78.68,51.066 L78.68,52.368 L85.442,52.368 Z M93.772,52.368 L93.772,50.926 L89.642,50.926 C92.134,49.036 93.716,47.496 93.716,45.76 C93.716,43.898 92.148,42.89 90.342,42.89 C89.026,42.89 87.71,43.38 86.884,44.388 L87.836,45.452 C88.438,44.78 89.264,44.346 90.356,44.346 C91.21,44.346 92.064,44.78 92.064,45.76 C92.064,47.118 90.636,48.322 87.01,51.066 L87.01,52.368 L93.772,52.368 Z M98.966,52.368 L98.966,43.03 L97.538,43.03 L94.85,45.746 L95.802,46.74 L97.328,45.144 L97.328,52.368 L98.966,52.368 Z M103.824,52.536 C105.994,52.536 107.352,51.402 107.352,49.806 C107.352,48.364 106.078,47.636 105.182,47.538 C106.134,47.384 107.198,46.656 107.198,45.396 C107.198,43.842 105.854,42.89 103.838,42.89 C102.284,42.89 101.15,43.506 100.422,44.36 L101.262,45.382 C101.934,44.696 102.718,44.346 103.684,44.346 C104.72,44.346 105.574,44.794 105.574,45.648 C105.574,46.502 104.748,46.88 103.642,46.88 C103.278,46.88 102.732,46.88 102.578,46.866 L102.578,48.35 C102.718,48.336 103.25,48.322 103.642,48.322 C104.986,48.322 105.714,48.728 105.714,49.652 C105.714,50.506 105,51.08 103.768,51.08 C102.774,51.08 101.794,50.646 101.192,49.946 L100.296,51.024 C100.94,51.864 102.172,52.536 103.824,52.536 L103.824,52.536 Z" id="Invoice-#0012213" fill="#2F2F2F" sketch:type="MSShapeGroup"></path>
                <path d="M1.96,77.368 L1.96,68.03 L1.162,68.03 L1.162,77.368 L1.96,77.368 Z M9.548,77.368 L9.548,72.636 C9.548,71.11 8.792,70.438 7.42,70.438 C6.44,70.438 5.474,71.04 4.984,71.628 L4.984,70.606 L4.256,70.606 L4.256,77.368 L4.984,77.368 L4.984,72.258 C5.418,71.642 6.314,71.096 7.182,71.096 C8.162,71.096 8.82,71.488 8.82,72.79 L8.82,77.368 L9.548,77.368 Z M14.462,77.368 L17.318,70.606 L16.492,70.606 L14.056,76.514 L11.592,70.606 L10.78,70.606 L13.636,77.368 L14.462,77.368 Z M21.406,77.536 C23.408,77.536 24.668,75.954 24.668,73.98 C24.668,72.006 23.408,70.438 21.406,70.438 C19.432,70.438 18.172,72.006 18.172,73.98 C18.172,75.954 19.432,77.536 21.406,77.536 L21.406,77.536 Z M21.406,76.878 C19.838,76.878 18.942,75.492 18.942,73.98 C18.942,72.482 19.838,71.096 21.406,71.096 C23.002,71.096 23.884,72.482 23.884,73.98 C23.884,75.492 23.002,76.878 21.406,76.878 L21.406,76.878 Z M26.908,69.542 C27.216,69.542 27.468,69.29 27.468,68.982 C27.468,68.674 27.216,68.436 26.908,68.436 C26.614,68.436 26.348,68.674 26.348,68.982 C26.348,69.29 26.614,69.542 26.908,69.542 L26.908,69.542 Z M27.272,77.368 L27.272,70.606 L26.544,70.606 L26.544,77.368 L27.272,77.368 Z M32.438,77.536 C33.614,77.536 34.286,77.074 34.832,76.374 L34.328,75.926 C33.838,76.598 33.222,76.878 32.48,76.878 C30.898,76.878 29.932,75.604 29.932,73.98 C29.932,72.356 30.898,71.096 32.48,71.096 C33.222,71.096 33.838,71.362 34.328,72.034 L34.832,71.586 C34.286,70.9 33.614,70.438 32.438,70.438 C30.45,70.438 29.162,72.006 29.162,73.98 C29.162,75.954 30.45,77.536 32.438,77.536 L32.438,77.536 Z M39.452,77.536 C40.572,77.536 41.426,77.144 42.098,76.444 L41.72,75.968 C41.146,76.584 40.362,76.906 39.508,76.906 C37.912,76.906 36.932,75.688 36.862,74.218 L42.518,74.218 L42.518,74.022 C42.518,72.062 41.384,70.438 39.326,70.438 C37.45,70.438 36.078,72.02 36.078,73.98 C36.078,76.066 37.478,77.536 39.452,77.536 L39.452,77.536 Z M41.776,73.644 L36.862,73.644 C36.918,72.468 37.716,71.068 39.312,71.068 C41.006,71.068 41.762,72.496 41.776,73.644 L41.776,73.644 Z M53.746,77.368 L53.746,68.03 L53.004,68.03 L53.004,71.698 C52.472,70.928 51.618,70.438 50.652,70.438 C48.86,70.438 47.642,71.852 47.642,73.994 C47.642,76.164 48.86,77.536 50.652,77.536 C51.66,77.536 52.528,76.99 53.004,76.29 L53.004,77.368 L53.746,77.368 Z M50.778,76.878 C49.28,76.878 48.412,75.632 48.412,73.994 C48.412,72.356 49.28,71.096 50.778,71.096 C51.73,71.096 52.612,71.67 53.004,72.328 L53.004,75.674 C52.612,76.318 51.73,76.878 50.778,76.878 L50.778,76.878 Z M61.04,77.368 L61.04,72.608 C61.04,71.096 59.948,70.438 58.576,70.438 C57.456,70.438 56.672,70.816 55.972,71.572 L56.378,72.076 C56.994,71.376 57.652,71.082 58.506,71.082 C59.5,71.082 60.312,71.628 60.312,72.636 L60.312,74.008 C59.724,73.35 58.954,73.042 58.016,73.042 C56.84,73.042 55.65,73.812 55.65,75.282 C55.65,76.738 56.854,77.536 58.016,77.536 C58.954,77.536 59.71,77.228 60.312,76.57 L60.312,77.368 L61.04,77.368 Z M58.268,76.962 C57.162,76.962 56.42,76.248 56.42,75.296 C56.42,74.33 57.162,73.616 58.268,73.616 C59.08,73.616 59.836,73.924 60.312,74.554 L60.312,76.038 C59.836,76.654 59.08,76.962 58.268,76.962 L58.268,76.962 Z M64.778,77.536 C65.338,77.536 65.66,77.368 65.926,77.116 L65.646,76.556 C65.492,76.724 65.212,76.878 64.89,76.878 C64.414,76.878 64.19,76.5 64.19,75.954 L64.19,71.25 L65.562,71.25 L65.562,70.606 L64.19,70.606 L64.19,68.758 L63.448,68.758 L63.448,70.606 L62.328,70.606 L62.328,71.25 L63.448,71.25 L63.448,76.066 C63.448,76.99 63.882,77.536 64.778,77.536 L64.778,77.536 Z M70.154,77.536 C71.274,77.536 72.128,77.144 72.8,76.444 L72.422,75.968 C71.848,76.584 71.064,76.906 70.21,76.906 C68.614,76.906 67.634,75.688 67.564,74.218 L73.22,74.218 L73.22,74.022 C73.22,72.062 72.086,70.438 70.028,70.438 C68.152,70.438 66.78,72.02 66.78,73.98 C66.78,76.066 68.18,77.536 70.154,77.536 L70.154,77.536 Z M72.478,73.644 L67.564,73.644 C67.62,72.468 68.418,71.068 70.014,71.068 C71.708,71.068 72.464,72.496 72.478,73.644 L72.478,73.644 Z M81.914,77.368 L81.914,68.03 L80.486,68.03 L77.798,70.746 L78.75,71.74 L80.276,70.144 L80.276,77.368 L81.914,77.368 Z M86.408,77.368 L90.02,69.164 L90.02,68.03 L83.286,68.03 L83.286,69.472 L88.13,69.472 L84.602,77.368 L86.408,77.368 Z M96.6,77.368 L96.6,73.322 L101.262,73.322 L101.262,71.88 L96.6,71.88 L96.6,69.472 L101.36,69.472 L101.36,68.03 L94.962,68.03 L94.962,77.368 L96.6,77.368 Z M105.938,77.536 C107.002,77.536 107.996,77.186 108.682,76.542 L108.01,75.576 C107.52,76.066 106.75,76.332 106.078,76.332 C104.804,76.332 104.048,75.478 103.936,74.47 L109.144,74.47 L109.144,74.106 C109.144,71.978 107.856,70.438 105.826,70.438 C103.824,70.438 102.396,72.02 102.396,73.98 C102.396,76.122 103.894,77.536 105.938,77.536 L105.938,77.536 Z M107.73,73.42 L103.922,73.42 C103.978,72.608 104.566,71.642 105.812,71.642 C107.142,71.642 107.688,72.622 107.73,73.42 L107.73,73.42 Z M112.07,75.338 L112.07,72.65 C112.406,72.146 113.12,71.74 113.82,71.74 C114.982,71.74 115.724,72.678 115.724,73.98 C115.724,75.296 114.982,76.234 113.82,76.234 C113.12,76.234 112.406,75.842 112.07,75.338 L112.07,75.338 Z M112.07,77.368 L112.07,76.444 C112.588,77.116 113.372,77.536 114.24,77.536 C115.976,77.536 117.25,76.22 117.25,73.98 C117.25,71.796 115.99,70.438 114.24,70.438 C113.4,70.438 112.616,70.816 112.07,71.544 L112.07,68.03 L110.6,68.03 L110.6,77.368 L112.07,77.368 Z M120.484,76.836 C120.484,76.024 119.98,75.562 119.406,75.562 C118.874,75.562 118.454,75.996 118.454,76.514 C118.454,77.032 118.818,77.41 119.28,77.41 C119.378,77.41 119.49,77.382 119.518,77.368 C119.434,77.844 118.958,78.418 118.51,78.684 L119.182,79.23 C119.952,78.684 120.484,77.802 120.484,76.836 L120.484,76.836 Z M132.216,77.368 L132.216,75.926 L128.086,75.926 C130.578,74.036 132.16,72.496 132.16,70.76 C132.16,68.898 130.592,67.89 128.786,67.89 C127.47,67.89 126.154,68.38 125.328,69.388 L126.28,70.452 C126.882,69.78 127.708,69.346 128.8,69.346 C129.654,69.346 130.508,69.78 130.508,70.76 C130.508,72.118 129.08,73.322 125.454,76.066 L125.454,77.368 L132.216,77.368 Z M137.41,77.536 C140.028,77.536 141.134,75.044 141.134,72.706 C141.134,70.354 140.028,67.89 137.41,67.89 C134.778,67.89 133.672,70.354 133.672,72.706 C133.672,75.044 134.778,77.536 137.41,77.536 L137.41,77.536 Z M137.41,76.08 C135.884,76.08 135.338,74.484 135.338,72.706 C135.338,70.914 135.884,69.346 137.41,69.346 C138.936,69.346 139.468,70.914 139.468,72.706 C139.468,74.484 138.922,76.08 137.41,76.08 L137.41,76.08 Z M146.048,77.368 L146.048,68.03 L144.62,68.03 L141.932,70.746 L142.884,71.74 L144.41,70.144 L144.41,77.368 L146.048,77.368 Z M151.298,77.536 C153.384,77.536 154.868,76.304 154.868,74.372 C154.868,72.454 153.454,71.362 151.872,71.362 C150.976,71.362 150.22,71.726 149.758,72.16 L149.758,69.472 L154.238,69.472 L154.238,68.03 L148.12,68.03 L148.12,73.238 L149.282,73.574 C149.884,73.014 150.542,72.776 151.326,72.776 C152.474,72.776 153.202,73.434 153.202,74.428 C153.202,75.352 152.474,76.08 151.284,76.08 C150.248,76.08 149.394,75.688 148.778,74.96 L147.84,76.094 C148.596,76.976 149.702,77.536 151.298,77.536 L151.298,77.536 Z" id="Invoice-date-17-Feb," fill="#2F2F2F" sketch:type="MSShapeGroup"></path>
                <path d="M4.512,17 L4.512,0.992 L1.704,0.992 L1.704,17 L4.512,17 Z M27.792,17 L27.792,0.992 L24.984,0.992 L24.984,12.08 L16.8,0.992 L13.92,0.992 L13.92,17 L16.728,17 L16.728,5.552 L25.08,17 L27.792,17 Z M45.336,17 L51.624,0.992 L48.432,0.992 L43.584,13.928 L38.736,0.992 L35.544,0.992 L41.832,17 L45.336,17 Z M66.36,17.288 C71.136,17.288 74.544,13.784 74.544,9.008 C74.544,4.232 71.136,0.728 66.36,0.728 C61.56,0.728 58.176,4.232 58.176,9.008 C58.176,13.784 61.56,17.288 66.36,17.288 L66.36,17.288 Z M66.36,14.792 C63.12,14.792 61.056,12.296 61.056,9.008 C61.056,5.696 63.12,3.224 66.36,3.224 C69.576,3.224 71.664,5.696 71.664,9.008 C71.664,12.296 69.576,14.792 66.36,14.792 L66.36,14.792 Z M86.04,17 L86.04,0.992 L83.232,0.992 L83.232,17 L86.04,17 Z M103.152,17.288 C106.368,17.288 108.36,15.584 109.584,13.664 L107.184,12.464 C106.416,13.784 104.856,14.792 103.152,14.792 C99.984,14.792 97.632,12.344 97.632,9.008 C97.632,5.624 99.984,3.224 103.152,3.224 C104.856,3.224 106.416,4.208 107.184,5.552 L109.56,4.304 C108.384,2.384 106.368,0.728 103.152,0.728 C98.424,0.728 94.752,4.064 94.752,9.008 C94.752,13.928 98.424,17.288 103.152,17.288 L103.152,17.288 Z M128.784,17 L128.784,14.528 L120.624,14.528 L120.624,10.064 L128.616,10.064 L128.616,7.592 L120.624,7.592 L120.624,3.464 L128.784,3.464 L128.784,0.992 L117.816,0.992 L117.816,17 L128.784,17 Z" id="INVOICE" fill="#2F2F2F" sketch:type="MSShapeGroup"></path>
                <path d="M1.96,102.368 L1.96,93.03 L1.162,93.03 L1.162,102.368 L1.96,102.368 Z M9.548,102.368 L9.548,97.636 C9.548,96.11 8.792,95.438 7.42,95.438 C6.44,95.438 5.474,96.04 4.984,96.628 L4.984,95.606 L4.256,95.606 L4.256,102.368 L4.984,102.368 L4.984,97.258 C5.418,96.642 6.314,96.096 7.182,96.096 C8.162,96.096 8.82,96.488 8.82,97.79 L8.82,102.368 L9.548,102.368 Z M14.462,102.368 L17.318,95.606 L16.492,95.606 L14.056,101.514 L11.592,95.606 L10.78,95.606 L13.636,102.368 L14.462,102.368 Z M21.406,102.536 C23.408,102.536 24.668,100.954 24.668,98.98 C24.668,97.006 23.408,95.438 21.406,95.438 C19.432,95.438 18.172,97.006 18.172,98.98 C18.172,100.954 19.432,102.536 21.406,102.536 L21.406,102.536 Z M21.406,101.878 C19.838,101.878 18.942,100.492 18.942,98.98 C18.942,97.482 19.838,96.096 21.406,96.096 C23.002,96.096 23.884,97.482 23.884,98.98 C23.884,100.492 23.002,101.878 21.406,101.878 L21.406,101.878 Z M26.908,94.542 C27.216,94.542 27.468,94.29 27.468,93.982 C27.468,93.674 27.216,93.436 26.908,93.436 C26.614,93.436 26.348,93.674 26.348,93.982 C26.348,94.29 26.614,94.542 26.908,94.542 L26.908,94.542 Z M27.272,102.368 L27.272,95.606 L26.544,95.606 L26.544,102.368 L27.272,102.368 Z M32.438,102.536 C33.614,102.536 34.286,102.074 34.832,101.374 L34.328,100.926 C33.838,101.598 33.222,101.878 32.48,101.878 C30.898,101.878 29.932,100.604 29.932,98.98 C29.932,97.356 30.898,96.096 32.48,96.096 C33.222,96.096 33.838,96.362 34.328,97.034 L34.832,96.586 C34.286,95.9 33.614,95.438 32.438,95.438 C30.45,95.438 29.162,97.006 29.162,98.98 C29.162,100.954 30.45,102.536 32.438,102.536 L32.438,102.536 Z M39.452,102.536 C40.572,102.536 41.426,102.144 42.098,101.444 L41.72,100.968 C41.146,101.584 40.362,101.906 39.508,101.906 C37.912,101.906 36.932,100.688 36.862,99.218 L42.518,99.218 L42.518,99.022 C42.518,97.062 41.384,95.438 39.326,95.438 C37.45,95.438 36.078,97.02 36.078,98.98 C36.078,101.066 37.478,102.536 39.452,102.536 L39.452,102.536 Z M41.776,98.644 L36.862,98.644 C36.918,97.468 37.716,96.068 39.312,96.068 C41.006,96.068 41.762,97.496 41.776,98.644 L41.776,98.644 Z M53.046,102.368 L53.046,97.608 C53.046,96.096 51.954,95.438 50.582,95.438 C49.462,95.438 48.678,95.816 47.978,96.572 L48.384,97.076 C49,96.376 49.658,96.082 50.512,96.082 C51.506,96.082 52.318,96.628 52.318,97.636 L52.318,99.008 C51.73,98.35 50.96,98.042 50.022,98.042 C48.846,98.042 47.656,98.812 47.656,100.282 C47.656,101.738 48.86,102.536 50.022,102.536 C50.96,102.536 51.716,102.228 52.318,101.57 L52.318,102.368 L53.046,102.368 Z M50.274,101.962 C49.168,101.962 48.426,101.248 48.426,100.296 C48.426,99.33 49.168,98.616 50.274,98.616 C51.086,98.616 51.842,98.924 52.318,99.554 L52.318,101.038 C51.842,101.654 51.086,101.962 50.274,101.962 L50.274,101.962 Z M64.092,102.368 L64.092,97.496 C64.092,96.138 63.49,95.438 62.244,95.438 C61.292,95.438 60.382,96.082 60.004,96.712 C59.836,96.054 59.276,95.438 58.226,95.438 C57.246,95.438 56.322,96.194 56.042,96.628 L56.042,95.606 L55.314,95.606 L55.314,102.368 L56.042,102.368 L56.042,97.258 C56.448,96.642 57.26,96.096 57.988,96.096 C58.94,96.096 59.332,96.684 59.332,97.636 L59.332,102.368 L60.074,102.368 L60.074,97.244 C60.452,96.628 61.278,96.096 62.006,96.096 C62.958,96.096 63.364,96.684 63.364,97.636 L63.364,102.368 L64.092,102.368 Z M69.216,102.536 C71.218,102.536 72.478,100.954 72.478,98.98 C72.478,97.006 71.218,95.438 69.216,95.438 C67.242,95.438 65.982,97.006 65.982,98.98 C65.982,100.954 67.242,102.536 69.216,102.536 L69.216,102.536 Z M69.216,101.878 C67.648,101.878 66.752,100.492 66.752,98.98 C66.752,97.482 67.648,96.096 69.216,96.096 C70.812,96.096 71.694,97.482 71.694,98.98 C71.694,100.492 70.812,101.878 69.216,101.878 L69.216,101.878 Z M79.646,102.368 L79.646,95.606 L78.918,95.606 L78.918,100.758 C78.47,101.36 77.588,101.878 76.72,101.878 C75.74,101.878 75.082,101.514 75.082,100.198 L75.082,95.606 L74.354,95.606 L74.354,100.366 C74.354,101.892 75.11,102.536 76.482,102.536 C77.462,102.536 78.372,101.99 78.918,101.374 L78.918,102.368 L79.646,102.368 Z M87.206,102.368 L87.206,97.636 C87.206,96.11 86.45,95.438 85.078,95.438 C84.098,95.438 83.132,96.04 82.642,96.628 L82.642,95.606 L81.914,95.606 L81.914,102.368 L82.642,102.368 L82.642,97.258 C83.076,96.642 83.972,96.096 84.84,96.096 C85.82,96.096 86.478,96.488 86.478,97.79 L86.478,102.368 L87.206,102.368 Z M90.944,102.536 C91.504,102.536 91.826,102.368 92.092,102.116 L91.812,101.556 C91.658,101.724 91.378,101.878 91.056,101.878 C90.58,101.878 90.356,101.5 90.356,100.954 L90.356,96.25 L91.728,96.25 L91.728,95.606 L90.356,95.606 L90.356,93.758 L89.614,93.758 L89.614,95.606 L88.494,95.606 L88.494,96.25 L89.614,96.25 L89.614,101.066 C89.614,101.99 90.048,102.536 90.944,102.536 L90.944,102.536 Z M99.582,103.768 L100.702,103.768 L100.702,102.508 C102.802,102.326 103.74,101.066 103.74,99.638 C103.74,97.762 102.158,97.216 100.702,96.838 L100.702,94.416 C101.388,94.556 102.06,94.878 102.592,95.41 L103.516,94.192 C102.788,93.492 101.836,93.044 100.702,92.918 L100.702,91.616 L99.582,91.616 L99.582,92.904 C97.776,93.058 96.628,94.192 96.628,95.62 C96.628,97.44 98.14,97.958 99.582,98.322 L99.582,101.038 C98.574,100.884 97.762,100.352 97.244,99.778 L96.32,101.052 C97.062,101.822 98.14,102.396 99.582,102.508 L99.582,103.768 Z M102.06,99.792 C102.06,100.338 101.668,100.912 100.702,101.052 L100.702,98.616 C101.472,98.854 102.06,99.162 102.06,99.792 L102.06,99.792 Z M98.308,95.494 C98.308,94.878 98.798,94.444 99.582,94.346 L99.582,96.544 C98.84,96.32 98.308,96.04 98.308,95.494 L98.308,95.494 Z M108.612,102.368 L108.612,93.03 L107.184,93.03 L104.496,95.746 L105.448,96.74 L106.974,95.144 L106.974,102.368 L108.612,102.368 Z M113.932,102.368 L113.932,93.03 L112.504,93.03 L109.816,95.746 L110.768,96.74 L112.294,95.144 L112.294,102.368 L113.932,102.368 Z M119.182,102.536 C121.268,102.536 122.752,101.304 122.752,99.372 C122.752,97.454 121.338,96.362 119.756,96.362 C118.86,96.362 118.104,96.726 117.642,97.16 L117.642,94.472 L122.122,94.472 L122.122,93.03 L116.004,93.03 L116.004,98.238 L117.166,98.574 C117.768,98.014 118.426,97.776 119.21,97.776 C120.358,97.776 121.086,98.434 121.086,99.428 C121.086,100.352 120.358,101.08 119.168,101.08 C118.132,101.08 117.278,100.688 116.662,99.96 L115.724,101.094 C116.48,101.976 117.586,102.536 119.182,102.536 L119.182,102.536 Z M125.048,102.522 C125.58,102.522 126.028,102.06 126.028,101.528 C126.028,101.01 125.58,100.562 125.048,100.562 C124.516,100.562 124.068,101.01 124.068,101.528 C124.068,102.06 124.516,102.522 125.048,102.522 L125.048,102.522 Z M131.026,102.536 C133.112,102.536 134.596,101.304 134.596,99.372 C134.596,97.454 133.182,96.362 131.6,96.362 C130.704,96.362 129.948,96.726 129.486,97.16 L129.486,94.472 L133.966,94.472 L133.966,93.03 L127.848,93.03 L127.848,98.238 L129.01,98.574 C129.612,98.014 130.27,97.776 131.054,97.776 C132.202,97.776 132.93,98.434 132.93,99.428 C132.93,100.352 132.202,101.08 131.012,101.08 C129.976,101.08 129.122,100.688 128.506,99.96 L127.568,101.094 C128.324,101.976 129.43,102.536 131.026,102.536 L131.026,102.536 Z M139.496,102.536 C142.114,102.536 143.22,100.044 143.22,97.706 C143.22,95.354 142.114,92.89 139.496,92.89 C136.864,92.89 135.758,95.354 135.758,97.706 C135.758,100.044 136.864,102.536 139.496,102.536 L139.496,102.536 Z M139.496,101.08 C137.97,101.08 137.424,99.484 137.424,97.706 C137.424,95.914 137.97,94.346 139.496,94.346 C141.022,94.346 141.554,95.914 141.554,97.706 C141.554,99.484 141.008,101.08 139.496,101.08 L139.496,101.08 Z" id="Invoice-amount-$115." fill="#2F2F2F" sketch:type="MSShapeGroup"></path>
                <path d="M5.544,128.168 C7.028,128.168 8.12,127.524 8.96,126.502 L8.274,126.082 C7.686,126.894 6.664,127.44 5.544,127.44 C3.36,127.44 1.652,125.746 1.652,123.338 C1.652,120.902 3.36,119.236 5.544,119.236 C6.664,119.236 7.686,119.782 8.274,120.594 L8.946,120.16 C8.162,119.166 7.028,118.508 5.544,118.508 C2.898,118.508 0.812,120.468 0.812,123.338 C0.812,126.208 2.898,128.168 5.544,128.168 L5.544,128.168 Z M15.82,128 L15.82,121.238 L15.092,121.238 L15.092,126.39 C14.644,126.992 13.762,127.51 12.894,127.51 C11.914,127.51 11.256,127.146 11.256,125.83 L11.256,121.238 L10.528,121.238 L10.528,125.998 C10.528,127.524 11.284,128.168 12.656,128.168 C13.636,128.168 14.546,127.622 15.092,127.006 L15.092,128 L15.82,128 Z M20.104,128.168 C21.798,128.168 22.638,127.272 22.638,126.18 C22.638,123.576 18.382,124.612 18.382,122.918 C18.382,122.218 19.012,121.686 20.062,121.686 C20.958,121.686 21.686,122.05 22.078,122.582 L22.484,122.064 C21.994,121.518 21.224,121.07 20.062,121.07 C18.536,121.07 17.654,121.91 17.654,122.946 C17.654,125.382 21.924,124.332 21.924,126.18 C21.924,126.964 21.252,127.552 20.118,127.552 C19.166,127.552 18.368,127.104 17.934,126.558 L17.5,127.09 C18.172,127.846 19.012,128.168 20.104,128.168 L20.104,128.168 Z M25.984,128.168 C26.544,128.168 26.866,128 27.132,127.748 L26.852,127.188 C26.698,127.356 26.418,127.51 26.096,127.51 C25.62,127.51 25.396,127.132 25.396,126.586 L25.396,121.882 L26.768,121.882 L26.768,121.238 L25.396,121.238 L25.396,119.39 L24.654,119.39 L24.654,121.238 L23.534,121.238 L23.534,121.882 L24.654,121.882 L24.654,126.698 C24.654,127.622 25.088,128.168 25.984,128.168 L25.984,128.168 Z M31.22,128.168 C33.222,128.168 34.482,126.586 34.482,124.612 C34.482,122.638 33.222,121.07 31.22,121.07 C29.246,121.07 27.986,122.638 27.986,124.612 C27.986,126.586 29.246,128.168 31.22,128.168 L31.22,128.168 Z M31.22,127.51 C29.652,127.51 28.756,126.124 28.756,124.612 C28.756,123.114 29.652,121.728 31.22,121.728 C32.816,121.728 33.698,123.114 33.698,124.612 C33.698,126.124 32.816,127.51 31.22,127.51 L31.22,127.51 Z M45.136,128 L45.136,123.128 C45.136,121.77 44.534,121.07 43.288,121.07 C42.336,121.07 41.426,121.714 41.048,122.344 C40.88,121.686 40.32,121.07 39.27,121.07 C38.29,121.07 37.366,121.826 37.086,122.26 L37.086,121.238 L36.358,121.238 L36.358,128 L37.086,128 L37.086,122.89 C37.492,122.274 38.304,121.728 39.032,121.728 C39.984,121.728 40.376,122.316 40.376,123.268 L40.376,128 L41.118,128 L41.118,122.876 C41.496,122.26 42.322,121.728 43.05,121.728 C44.002,121.728 44.408,122.316 44.408,123.268 L44.408,128 L45.136,128 Z M50.4,128.168 C51.52,128.168 52.374,127.776 53.046,127.076 L52.668,126.6 C52.094,127.216 51.31,127.538 50.456,127.538 C48.86,127.538 47.88,126.32 47.81,124.85 L53.466,124.85 L53.466,124.654 C53.466,122.694 52.332,121.07 50.274,121.07 C48.398,121.07 47.026,122.652 47.026,124.612 C47.026,126.698 48.426,128.168 50.4,128.168 L50.4,128.168 Z M52.724,124.276 L47.81,124.276 C47.866,123.1 48.664,121.7 50.26,121.7 C51.954,121.7 52.71,123.128 52.724,124.276 L52.724,124.276 Z M56.07,128 L56.07,123.072 C56.378,122.484 57.302,121.868 57.988,121.868 C58.128,121.868 58.226,121.868 58.352,121.896 L58.352,121.098 C57.414,121.098 56.644,121.644 56.07,122.4 L56.07,121.238 L55.342,121.238 L55.342,128 L56.07,128 Z M64.232,128 L64.232,124.122 L66.934,124.122 C68.712,124.122 69.748,122.862 69.748,121.392 C69.748,119.922 68.726,118.662 66.934,118.662 L63.434,118.662 L63.434,128 L64.232,128 Z M66.85,123.394 L64.232,123.394 L64.232,119.39 L66.85,119.39 C68.096,119.39 68.908,120.216 68.908,121.392 C68.908,122.554 68.096,123.394 66.85,123.394 L66.85,123.394 Z M75.614,128.168 C78.344,128.168 80.15,126.068 80.15,123.338 C80.15,120.608 78.344,118.508 75.614,118.508 C72.87,118.508 71.078,120.608 71.078,123.338 C71.078,126.068 72.87,128.168 75.614,128.168 L75.614,128.168 Z M75.614,127.44 C73.36,127.44 71.918,125.69 71.918,123.338 C71.918,120.972 73.36,119.236 75.614,119.236 C77.854,119.236 79.31,120.972 79.31,123.338 C79.31,125.69 77.854,127.44 75.614,127.44 L75.614,127.44 Z M92.722,128 L93.534,125.55 L95.032,125.55 L95.34,124.584 L93.856,124.584 L94.71,122.078 L96.166,122.078 L96.446,121.112 L95.018,121.112 L95.844,118.662 L94.724,118.662 L93.912,121.112 L92.498,121.112 L93.31,118.662 L92.19,118.662 L91.378,121.112 L89.922,121.112 L89.628,122.078 L91.056,122.078 L90.216,124.584 L88.788,124.584 L88.48,125.55 L89.894,125.55 L89.068,128 L90.188,128 L91,125.55 L92.428,125.55 L91.602,128 L92.722,128 Z M92.736,124.584 L91.336,124.584 L92.176,122.078 L93.59,122.078 L92.736,124.584 Z M101.038,128 L101.038,118.662 L99.61,118.662 L96.922,121.378 L97.874,122.372 L99.4,120.776 L99.4,128 L101.038,128 Z M109.494,128 L109.494,126.558 L105.364,126.558 C107.856,124.668 109.438,123.128 109.438,121.392 C109.438,119.53 107.87,118.522 106.064,118.522 C104.748,118.522 103.432,119.012 102.606,120.02 L103.558,121.084 C104.16,120.412 104.986,119.978 106.078,119.978 C106.932,119.978 107.786,120.412 107.786,121.392 C107.786,122.75 106.358,123.954 102.732,126.698 L102.732,128 L109.494,128 Z M114.534,128.168 C116.438,128.168 118.118,127.272 118.118,125.592 C118.118,124.416 117.152,123.562 116.018,123.184 C117.068,122.848 117.964,122.148 117.964,120.972 C117.964,119.236 116.186,118.522 114.534,118.522 C112.882,118.522 111.104,119.236 111.104,120.972 C111.104,122.148 112,122.848 113.05,123.184 C111.916,123.562 110.95,124.416 110.95,125.592 C110.95,127.272 112.616,128.168 114.534,128.168 L114.534,128.168 Z M114.534,122.526 C113.974,122.428 112.77,122.092 112.77,121.224 C112.77,120.426 113.526,119.978 114.534,119.978 C115.542,119.978 116.298,120.426 116.298,121.224 C116.298,122.092 115.108,122.428 114.534,122.526 L114.534,122.526 Z M114.534,126.712 C113.47,126.712 112.616,126.208 112.616,125.382 C112.616,124.416 113.946,123.996 114.534,123.912 C115.108,123.996 116.452,124.416 116.452,125.382 C116.452,126.208 115.57,126.712 114.534,126.712 L114.534,126.712 Z M122.206,128 L125.818,119.796 L125.818,118.662 L119.084,118.662 L119.084,120.104 L123.928,120.104 L120.4,128 L122.206,128 Z M130.592,128.168 C132.678,128.168 134.036,126.754 134.036,125.032 C134.036,123.044 132.58,122.008 130.9,122.008 C129.808,122.008 128.828,122.694 128.394,123.324 L128.394,123.058 C128.394,121.42 129.29,119.978 130.858,119.978 C131.74,119.978 132.286,120.286 132.776,120.79 L133.532,119.558 C132.902,118.928 132.006,118.522 130.858,118.522 C128.156,118.522 126.742,120.65 126.742,123.338 C126.742,125.942 127.848,128.168 130.592,128.168 L130.592,128.168 Z M130.494,126.712 C129.066,126.712 128.506,125.522 128.422,124.514 C128.884,123.842 129.668,123.422 130.466,123.422 C131.474,123.422 132.37,123.94 132.37,125.088 C132.37,125.83 131.726,126.712 130.494,126.712 L130.494,126.712 Z M141.05,128 L141.05,125.886 L142.296,125.886 L142.296,124.444 L141.05,124.444 L141.05,118.662 L138.796,118.662 L134.96,124.57 L134.96,125.886 L139.412,125.886 L139.412,128 L141.05,128 Z M139.412,124.444 L136.57,124.444 L139.412,120.132 L139.412,124.444 Z" id="Customer-PO--#128764" fill="#2F2F2F" sketch:type="MSShapeGroup"></path>
                <path d="M2.912,153 L2.912,149.668 L5.292,149.668 C7.308,149.668 8.428,148.296 8.428,146.672 C8.428,145.034 7.322,143.662 5.292,143.662 L0.924,143.662 L0.924,153 L2.912,153 Z M5.012,147.918 L2.912,147.918 L2.912,145.412 L5.012,145.412 C5.796,145.412 6.398,145.888 6.398,146.672 C6.398,147.442 5.796,147.918 5.012,147.918 L5.012,147.918 Z M17.346,153 L13.748,143.662 L11.256,143.662 L7.658,153 L9.912,153 L10.5,151.418 L14.504,151.418 L15.092,153 L17.346,153 Z M13.958,149.668 L11.046,149.668 L12.502,145.65 L13.958,149.668 Z M20.202,153 L20.202,143.662 L18.214,143.662 L18.214,153 L20.202,153 Z M25.746,153 C28.658,153 30.688,151.152 30.688,148.324 C30.688,145.524 28.658,143.662 25.732,143.662 L22.05,143.662 L22.05,153 L25.746,153 Z M25.732,151.25 L24.038,151.25 L24.038,145.412 L25.746,145.412 C27.65,145.412 28.658,146.686 28.658,148.324 C28.658,149.92 27.58,151.25 25.732,151.25 L25.732,151.25 Z" id="PAID" fill="#56BF75" sketch:type="MSShapeGroup"></path>
                <path d="M1.10494912,173.5 L58.4811783,173.5" id="Line-Copy" stroke="#979797" stroke-linecap="square" opacity="0.4" sketch:type="MSShapeGroup"></path>
            </g>
        </g>
    </g>
</svg>