<?xml version="1.0" encoding="UTF-8" standalone="no"?>
<svg width="720px" height="141px" viewBox="0 0 720 141" version="1.1" xmlns="http://www.w3.org/2000/svg" xmlns:xlink="http://www.w3.org/1999/xlink">
    <!-- Generator: Sketch 41 (35326) - http://www.bohemiancoding.com/sketch -->
    <title>new-01</title>
    <desc>Created with Sketch.</desc>
    <defs></defs>
    <g id="Page-1" stroke="none" stroke-width="1" fill="none" fill-rule="evenodd">
        <g id="new-01">
            <g id="Page-1">
                <g id="reference-invoice-new">
                    <g id="Group-3">
                        <path d="M12.6424615,75 L12.6424615,65.662 L10.5101538,65.662 L8.17107692,72.074 L5.81907692,65.662 L3.68676923,65.662 L3.68676923,75 L5.19876923,75 L5.19876923,67.79 L7.848,75 L8.49415385,75 L11.1304615,67.79 L11.1304615,75 L12.6424615,75 Z M14.1803077,77.646 C14.3612308,77.702 14.7489231,77.744 14.9427692,77.744 C15.912,77.73 16.6486154,77.366 17.0750769,76.218 L20.0861538,68.238 L18.6387692,68.238 L16.8166154,73.306 L14.9944615,68.238 L13.5341538,68.238 L16.1058462,75.084 L15.7956923,75.854 C15.6147692,76.302 15.3304615,76.442 14.8910769,76.442 C14.736,76.442 14.5163077,76.4 14.3741538,76.33 L14.1803077,77.646 Z M28.4861538,75 L25.1003077,65.662 L23.2135385,65.662 L19.8276923,75 L21.5464615,75 L22.1796923,73.194 L26.1341538,73.194 L26.7673846,75 L28.4861538,75 Z M25.7076923,71.752 L22.6061538,71.752 L24.1569231,67.3 L25.7076923,71.752 Z M36.0590769,75 L37.9975385,68.238 L36.576,68.238 L35.2578462,73.152 L33.7846154,68.238 L32.5827692,68.238 L31.0966154,73.152 L29.7784615,68.238 L28.3698462,68.238 L30.3083077,75 L31.7298462,75 L33.1772308,70.044 L34.6375385,75 L36.0590769,75 Z M41.8356923,75.168 C42.8178462,75.168 43.7353846,74.818 44.3686154,74.174 L43.7483077,73.208 C43.296,73.698 42.5852308,73.964 41.9649231,73.964 C40.7889231,73.964 40.0910769,73.11 39.9876923,72.102 L44.7950769,72.102 L44.7950769,71.738 C44.7950769,69.61 43.6061538,68.07 41.7323077,68.07 C39.8843077,68.07 38.5661538,69.652 38.5661538,71.612 C38.5661538,73.754 39.9489231,75.168 41.8356923,75.168 Z M43.4898462,71.052 L39.9747692,71.052 C40.0264615,70.24 40.5692308,69.274 41.7193846,69.274 C42.9470769,69.274 43.4510769,70.254 43.4898462,71.052 Z M48.2843077,75.168 C49.9643077,75.168 50.8818462,74.258 50.8818462,73.054 C50.8818462,70.366 47.1083077,71.262 47.1083077,70.072 C47.1083077,69.596 47.5476923,69.232 48.2584615,69.232 C49.0467692,69.232 49.7316923,69.596 50.1064615,70.044 L50.6750769,69.008 C50.1193846,68.476 49.3181538,68.07 48.2584615,68.07 C46.6818462,68.07 45.8030769,69.008 45.8030769,70.114 C45.8030769,72.718 49.5766154,71.766 49.5766154,73.096 C49.5766154,73.628 49.1501538,73.992 48.336,73.992 C47.5347692,73.992 46.6689231,73.544 46.2295385,73.054 L45.6092308,74.104 C46.2553846,74.79 47.2116923,75.168 48.2843077,75.168 Z M55.0689231,75.168 C57.0590769,75.168 58.2738462,73.544 58.2738462,71.612 C58.2738462,69.666 57.0590769,68.07 55.0689231,68.07 C53.0787692,68.07 51.864,69.666 51.864,71.612 C51.864,73.544 53.0787692,75.168 55.0689231,75.168 Z M55.0689231,73.866 C53.9187692,73.866 53.2726154,72.816 53.2726154,71.612 C53.2726154,70.422 53.9187692,69.372 55.0689231,69.372 C56.232,69.372 56.8652308,70.422 56.8652308,71.612 C56.8652308,72.816 56.232,73.866 55.0689231,73.866 Z M68.6769231,75 L68.6769231,70.114 C68.6769231,68.742 68.0178462,68.07 66.8806154,68.07 C65.9372308,68.07 65.1101538,68.7 64.7612308,69.302 C64.5544615,68.574 63.9858462,68.07 63.0553846,68.07 C62.0990769,68.07 61.2849231,68.742 61.0135385,69.148 L61.0135385,68.238 L59.6566154,68.238 L59.6566154,75 L61.0135385,75 L61.0135385,70.268 C61.2978462,69.834 61.8535385,69.372 62.4609231,69.372 C63.1975385,69.372 63.4818462,69.862 63.4818462,70.59 L63.4818462,75 L64.8387692,75 L64.8387692,70.268 C65.1101538,69.82 65.6787692,69.372 66.2861538,69.372 C67.0227692,69.372 67.32,69.862 67.32,70.59 L67.32,75 L68.6769231,75 Z M73.3292308,75.168 C74.3113846,75.168 75.2289231,74.818 75.8621538,74.174 L75.2418462,73.208 C74.7895385,73.698 74.0787692,73.964 73.4584615,73.964 C72.2824615,73.964 71.5846154,73.11 71.4812308,72.102 L76.2886154,72.102 L76.2886154,71.738 C76.2886154,69.61 75.0996923,68.07 73.2258462,68.07 C71.3778462,68.07 70.0596923,69.652 70.0596923,71.612 C70.0596923,73.754 71.4424615,75.168 73.3292308,75.168 Z M74.9833846,71.052 L71.4683077,71.052 C71.52,70.24 72.0627692,69.274 73.2129231,69.274 C74.4406154,69.274 74.9446154,70.254 74.9833846,71.052 Z M82.5175385,75 L82.5175385,71.5 L84.8049231,71.5 C86.6012308,71.5 87.6092308,70.17 87.6092308,68.588 C87.6092308,66.992 86.6141538,65.662 84.8049231,65.662 L81.0055385,65.662 L81.0055385,75 L82.5175385,75 Z M84.5981538,70.058 L82.5175385,70.058 L82.5175385,67.104 L84.5981538,67.104 C85.4510769,67.104 86.0584615,67.692 86.0584615,68.588 C86.0584615,69.47 85.4510769,70.058 84.5981538,70.058 Z M90.1938462,75 L90.1938462,65.662 L88.8369231,65.662 L88.8369231,75 L90.1938462,75 Z M97.1335385,75 L97.1335385,70.506 C97.1335385,68.7 95.9187692,68.07 94.5230769,68.07 C93.528,68.07 92.6233846,68.406 91.8996923,69.162 L92.4683077,70.184 C92.9981538,69.596 93.6184615,69.316 94.3163077,69.316 C95.1692308,69.316 95.7766154,69.792 95.7766154,70.576 L95.7766154,71.584 C95.3113846,71.01 94.6006154,70.716 93.7476923,70.716 C92.7267692,70.716 91.5895385,71.36 91.5895385,72.928 C91.5895385,74.412 92.7396923,75.168 93.7476923,75.168 C94.5747692,75.168 95.3113846,74.846 95.7766154,74.258 L95.7766154,75 L97.1335385,75 Z M94.2904615,74.16 C93.528,74.16 92.9464615,73.684 92.9464615,72.942 C92.9464615,72.214 93.528,71.724 94.2904615,71.724 C94.872,71.724 95.4535385,71.962 95.7766154,72.424 L95.7766154,73.46 C95.4535385,73.922 94.872,74.16 94.2904615,74.16 Z M104.473846,75 L104.473846,70.24 C104.473846,68.854 103.801846,68.07 102.457846,68.07 C101.475692,68.07 100.661538,68.616 100.248,69.148 L100.248,68.238 L98.8910769,68.238 L98.8910769,75 L100.248,75 L100.248,70.268 C100.571077,69.82 101.165538,69.372 101.850462,69.372 C102.612923,69.372 103.116923,69.708 103.116923,70.772 L103.116923,75 L104.473846,75 Z M112.563692,75.168 C114.876923,75.168 115.897846,73.824 115.897846,72.27 C115.897846,68.798 110.883692,69.876 110.883692,68.126 C110.883692,67.44 111.452308,66.964 112.331077,66.964 C113.235692,66.964 114.153231,67.3 114.838154,68.042 L115.691077,66.824 C114.902769,65.984 113.804308,65.508 112.473231,65.508 C110.573538,65.508 109.332923,66.698 109.332923,68.252 C109.332923,71.682 114.347077,70.464 114.347077,72.424 C114.347077,73.054 113.868923,73.712 112.628308,73.712 C111.426462,73.712 110.483077,73.096 109.901538,72.41 L109.048615,73.684 C109.824,74.552 110.974154,75.168 112.563692,75.168 Z M120.136615,75.168 C121.118769,75.168 122.036308,74.818 122.669538,74.174 L122.049231,73.208 C121.596923,73.698 120.886154,73.964 120.265846,73.964 C119.089846,73.964 118.392,73.11 118.288615,72.102 L123.096,72.102 L123.096,71.738 C123.096,69.61 121.907077,68.07 120.033231,68.07 C118.185231,68.07 116.867077,69.652 116.867077,71.612 C116.867077,73.754 118.249846,75.168 120.136615,75.168 Z M121.790769,71.052 L118.275692,71.052 C118.327385,70.24 118.870154,69.274 120.020308,69.274 C121.248,69.274 121.752,70.254 121.790769,71.052 Z M126.326769,75.168 C126.947077,75.168 127.347692,74.972 127.593231,74.734 L127.270154,73.614 C127.166769,73.74 126.934154,73.866 126.675692,73.866 C126.288,73.866 126.081231,73.516 126.081231,73.054 L126.081231,69.512 L127.347692,69.512 L127.347692,68.238 L126.081231,68.238 L126.081231,66.39 L124.724308,66.39 L124.724308,68.238 L123.690462,68.238 L123.690462,69.512 L124.724308,69.512 L124.724308,73.418 C124.724308,74.552 125.267077,75.168 126.326769,75.168 Z M134.132308,75 L134.132308,68.238 L132.775385,68.238 L132.775385,72.984 C132.465231,73.432 131.870769,73.866 131.185846,73.866 C130.410462,73.866 129.919385,73.53 129.919385,72.48 L129.919385,68.238 L128.562462,68.238 L128.562462,73.026 C128.562462,74.398 129.234462,75.168 130.578462,75.168 C131.560615,75.168 132.336,74.636 132.775385,74.104 L132.775385,75 L134.132308,75 Z M139.249846,75.168 C140.865231,75.168 142.015385,73.838 142.015385,71.612 C142.015385,69.386 140.865231,68.07 139.249846,68.07 C138.435692,68.07 137.712,68.49 137.246769,69.162 L137.246769,68.238 L135.889846,68.238 L135.889846,77.576 L137.246769,77.576 L137.246769,74.062 C137.763692,74.776 138.461538,75.168 139.249846,75.168 Z M138.849231,73.866 C138.216,73.866 137.544,73.446 137.246769,72.942 L137.246769,70.268 C137.556923,69.764 138.216,69.372 138.849231,69.372 C139.921846,69.372 140.619692,70.296 140.619692,71.612 C140.619692,72.928 139.921846,73.866 138.849231,73.866 Z M148.257231,75 L148.257231,70.954 L152.560615,70.954 L152.560615,69.512 L148.257231,69.512 L148.257231,67.104 L152.651077,67.104 L152.651077,65.662 L146.745231,65.662 L146.745231,75 L148.257231,75 Z M156.876923,75.168 C157.859077,75.168 158.776615,74.818 159.409846,74.174 L158.789538,73.208 C158.337231,73.698 157.626462,73.964 157.006154,73.964 C155.830154,73.964 155.132308,73.11 155.028923,72.102 L159.836308,72.102 L159.836308,71.738 C159.836308,69.61 158.647385,68.07 156.773538,68.07 C154.925538,68.07 153.607385,69.652 153.607385,71.612 C153.607385,73.754 154.990154,75.168 156.876923,75.168 Z M158.531077,71.052 L155.016,71.052 C155.067692,70.24 155.610462,69.274 156.760615,69.274 C157.988308,69.274 158.492308,70.254 158.531077,71.052 Z M164.075077,75.168 C165.057231,75.168 165.974769,74.818 166.608,74.174 L165.987692,73.208 C165.535385,73.698 164.824615,73.964 164.204308,73.964 C163.028308,73.964 162.330462,73.11 162.227077,72.102 L167.034462,72.102 L167.034462,71.738 C167.034462,69.61 165.845538,68.07 163.971692,68.07 C162.123692,68.07 160.805538,69.652 160.805538,71.612 C160.805538,73.754 162.188308,75.168 164.075077,75.168 Z M165.729231,71.052 L162.214154,71.052 C162.265846,70.24 162.808615,69.274 163.958769,69.274 C165.186462,69.274 165.690462,70.254 165.729231,71.052 Z" id="MyAwesome-Plan-Setup" fill="#2F2F2F"></path>
                        <path d="M12.6424615,114.268 L12.6424615,104.93 L10.5101538,104.93 L8.17107692,111.342 L5.81907692,104.93 L3.68676923,104.93 L3.68676923,114.268 L5.19876923,114.268 L5.19876923,107.058 L7.848,114.268 L8.49415385,114.268 L11.1304615,107.058 L11.1304615,114.268 L12.6424615,114.268 Z M14.1803077,116.914 C14.3612308,116.97 14.7489231,117.012 14.9427692,117.012 C15.912,116.998 16.6486154,116.634 17.0750769,115.486 L20.0861538,107.506 L18.6387692,107.506 L16.8166154,112.574 L14.9944615,107.506 L13.5341538,107.506 L16.1058462,114.352 L15.7956923,115.122 C15.6147692,115.57 15.3304615,115.71 14.8910769,115.71 C14.736,115.71 14.5163077,115.668 14.3741538,115.598 L14.1803077,116.914 Z M28.4861538,114.268 L25.1003077,104.93 L23.2135385,104.93 L19.8276923,114.268 L21.5464615,114.268 L22.1796923,112.462 L26.1341538,112.462 L26.7673846,114.268 L28.4861538,114.268 Z M25.7076923,111.02 L22.6061538,111.02 L24.1569231,106.568 L25.7076923,111.02 Z M36.0590769,114.268 L37.9975385,107.506 L36.576,107.506 L35.2578462,112.42 L33.7846154,107.506 L32.5827692,107.506 L31.0966154,112.42 L29.7784615,107.506 L28.3698462,107.506 L30.3083077,114.268 L31.7298462,114.268 L33.1772308,109.312 L34.6375385,114.268 L36.0590769,114.268 Z M41.8356923,114.436 C42.8178462,114.436 43.7353846,114.086 44.3686154,113.442 L43.7483077,112.476 C43.296,112.966 42.5852308,113.232 41.9649231,113.232 C40.7889231,113.232 40.0910769,112.378 39.9876923,111.37 L44.7950769,111.37 L44.7950769,111.006 C44.7950769,108.878 43.6061538,107.338 41.7323077,107.338 C39.8843077,107.338 38.5661538,108.92 38.5661538,110.88 C38.5661538,113.022 39.9489231,114.436 41.8356923,114.436 Z M43.4898462,110.32 L39.9747692,110.32 C40.0264615,109.508 40.5692308,108.542 41.7193846,108.542 C42.9470769,108.542 43.4510769,109.522 43.4898462,110.32 Z M48.2843077,114.436 C49.9643077,114.436 50.8818462,113.526 50.8818462,112.322 C50.8818462,109.634 47.1083077,110.53 47.1083077,109.34 C47.1083077,108.864 47.5476923,108.5 48.2584615,108.5 C49.0467692,108.5 49.7316923,108.864 50.1064615,109.312 L50.6750769,108.276 C50.1193846,107.744 49.3181538,107.338 48.2584615,107.338 C46.6818462,107.338 45.8030769,108.276 45.8030769,109.382 C45.8030769,111.986 49.5766154,111.034 49.5766154,112.364 C49.5766154,112.896 49.1501538,113.26 48.336,113.26 C47.5347692,113.26 46.6689231,112.812 46.2295385,112.322 L45.6092308,113.372 C46.2553846,114.058 47.2116923,114.436 48.2843077,114.436 Z M55.0689231,114.436 C57.0590769,114.436 58.2738462,112.812 58.2738462,110.88 C58.2738462,108.934 57.0590769,107.338 55.0689231,107.338 C53.0787692,107.338 51.864,108.934 51.864,110.88 C51.864,112.812 53.0787692,114.436 55.0689231,114.436 Z M55.0689231,113.134 C53.9187692,113.134 53.2726154,112.084 53.2726154,110.88 C53.2726154,109.69 53.9187692,108.64 55.0689231,108.64 C56.232,108.64 56.8652308,109.69 56.8652308,110.88 C56.8652308,112.084 56.232,113.134 55.0689231,113.134 Z M68.6769231,114.268 L68.6769231,109.382 C68.6769231,108.01 68.0178462,107.338 66.8806154,107.338 C65.9372308,107.338 65.1101538,107.968 64.7612308,108.57 C64.5544615,107.842 63.9858462,107.338 63.0553846,107.338 C62.0990769,107.338 61.2849231,108.01 61.0135385,108.416 L61.0135385,107.506 L59.6566154,107.506 L59.6566154,114.268 L61.0135385,114.268 L61.0135385,109.536 C61.2978462,109.102 61.8535385,108.64 62.4609231,108.64 C63.1975385,108.64 63.4818462,109.13 63.4818462,109.858 L63.4818462,114.268 L64.8387692,114.268 L64.8387692,109.536 C65.1101538,109.088 65.6787692,108.64 66.2861538,108.64 C67.0227692,108.64 67.32,109.13 67.32,109.858 L67.32,114.268 L68.6769231,114.268 Z M73.3292308,114.436 C74.3113846,114.436 75.2289231,114.086 75.8621538,113.442 L75.2418462,112.476 C74.7895385,112.966 74.0787692,113.232 73.4584615,113.232 C72.2824615,113.232 71.5846154,112.378 71.4812308,111.37 L76.2886154,111.37 L76.2886154,111.006 C76.2886154,108.878 75.0996923,107.338 73.2258462,107.338 C71.3778462,107.338 70.0596923,108.92 70.0596923,110.88 C70.0596923,113.022 71.4424615,114.436 73.3292308,114.436 Z M74.9833846,110.32 L71.4683077,110.32 C71.52,109.508 72.0627692,108.542 73.2129231,108.542 C74.4406154,108.542 74.9446154,109.522 74.9833846,110.32 Z M82.5175385,114.268 L82.5175385,110.768 L84.8049231,110.768 C86.6012308,110.768 87.6092308,109.438 87.6092308,107.856 C87.6092308,106.26 86.6141538,104.93 84.8049231,104.93 L81.0055385,104.93 L81.0055385,114.268 L82.5175385,114.268 Z M84.5981538,109.326 L82.5175385,109.326 L82.5175385,106.372 L84.5981538,106.372 C85.4510769,106.372 86.0584615,106.96 86.0584615,107.856 C86.0584615,108.738 85.4510769,109.326 84.5981538,109.326 Z M90.1938462,114.268 L90.1938462,104.93 L88.8369231,104.93 L88.8369231,114.268 L90.1938462,114.268 Z M97.1335385,114.268 L97.1335385,109.774 C97.1335385,107.968 95.9187692,107.338 94.5230769,107.338 C93.528,107.338 92.6233846,107.674 91.8996923,108.43 L92.4683077,109.452 C92.9981538,108.864 93.6184615,108.584 94.3163077,108.584 C95.1692308,108.584 95.7766154,109.06 95.7766154,109.844 L95.7766154,110.852 C95.3113846,110.278 94.6006154,109.984 93.7476923,109.984 C92.7267692,109.984 91.5895385,110.628 91.5895385,112.196 C91.5895385,113.68 92.7396923,114.436 93.7476923,114.436 C94.5747692,114.436 95.3113846,114.114 95.7766154,113.526 L95.7766154,114.268 L97.1335385,114.268 Z M94.2904615,113.428 C93.528,113.428 92.9464615,112.952 92.9464615,112.21 C92.9464615,111.482 93.528,110.992 94.2904615,110.992 C94.872,110.992 95.4535385,111.23 95.7766154,111.692 L95.7766154,112.728 C95.4535385,113.19 94.872,113.428 94.2904615,113.428 Z M104.473846,114.268 L104.473846,109.508 C104.473846,108.122 103.801846,107.338 102.457846,107.338 C101.475692,107.338 100.661538,107.884 100.248,108.416 L100.248,107.506 L98.8910769,107.506 L98.8910769,114.268 L100.248,114.268 L100.248,109.536 C100.571077,109.088 101.165538,108.64 101.850462,108.64 C102.612923,108.64 103.116923,108.976 103.116923,110.04 L103.116923,114.268 L104.473846,114.268 Z" id="MyAwesome-Plan" fill="#2F2F2F"></path>
                        <polygon id="1-copy" fill="#2F2F2F" points="109.713231 110.106 109.713231 104.506 108.808615 104.506 107.206154 106.228 107.813538 106.914 108.666462 105.948 108.666462 110.106"></polygon>
                        <path d="M470.924308,75 L470.924308,73.964 L466.698462,73.964 C469.102154,71.906 470.885538,70.17 470.885538,68.266 C470.885538,66.404 469.425231,65.522 467.990769,65.522 C466.776,65.522 465.651692,66.04 464.992615,66.992 L465.651692,67.734 C466.155692,67.034 466.956923,66.558 467.990769,66.558 C468.882462,66.558 469.8,67.062 469.8,68.266 C469.8,69.876 468.107077,71.43 465.005538,74.062 L465.005538,75 L470.924308,75 Z" id="2" fill="#2F2F2F"></path>
                        <polygon id="1-copy-2" fill="#2F2F2F" points="467.680615 114.268 467.680615 104.93 466.737231 104.93 464.579077 107.338 465.225231 108.052 466.608 106.456 466.608 114.268"></polygon>
                        <path d="M573.880615,76.4 L574.668923,76.4 L574.668923,75.154 C576.672,75 577.421538,73.684 577.421538,72.424 C577.421538,70.59 576,70.058 574.668923,69.652 L574.668923,66.6 C575.392615,66.712 576.064615,67.062 576.581538,67.678 L577.227692,66.824 C576.594462,66.11 575.741538,65.634 574.668923,65.536 L574.668923,64.248 L573.880615,64.248 L573.880615,65.522 C572.329846,65.648 571.205538,66.67 571.205538,68.112 C571.205538,69.834 572.562462,70.31 573.880615,70.702 L573.880615,74.104 C572.859692,73.978 572.071385,73.418 571.580308,72.788 L570.934154,73.684 C571.580308,74.482 572.575385,75.07 573.880615,75.154 L573.880615,76.4 Z M576.310154,72.508 C576.310154,73.18 575.896615,73.978 574.668923,74.118 L574.668923,70.926 C575.573538,71.22 576.310154,71.598 576.310154,72.508 Z M572.316923,68.042 C572.316923,67.23 572.963077,66.642 573.880615,66.572 L573.880615,69.428 C573.001846,69.148 572.316923,68.812 572.316923,68.042 Z M580.794462,75 L584.322462,66.46 L584.322462,65.662 L578.442462,65.662 L578.442462,66.698 L583.081846,66.698 L579.605538,75 L580.794462,75 Z M584.929846,75.14 C585.317538,75.14 585.640615,74.79 585.640615,74.37 C585.640615,73.95 585.317538,73.6 584.929846,73.6 C584.542154,73.6 584.219077,73.95 584.219077,74.37 C584.219077,74.79 584.542154,75.14 584.929846,75.14 Z M589.982769,75.168 C592.334769,75.168 593.278154,72.606 593.278154,70.338 C593.278154,68.056 592.334769,65.522 589.982769,65.522 C587.617846,65.522 586.687385,68.056 586.687385,70.338 C586.687385,72.606 587.617846,75.168 589.982769,75.168 Z M589.982769,74.132 C588.341538,74.132 587.785846,72.2 587.785846,70.338 C587.785846,68.476 588.341538,66.558 589.982769,66.558 C591.624,66.558 592.179692,68.476 592.179692,70.338 C592.179692,72.2 591.624,74.132 589.982769,74.132 Z M597.891692,75.168 C600.243692,75.168 601.187077,72.606 601.187077,70.338 C601.187077,68.056 600.243692,65.522 597.891692,65.522 C595.526769,65.522 594.596308,68.056 594.596308,70.338 C594.596308,72.606 595.526769,75.168 597.891692,75.168 Z M597.891692,74.132 C596.250462,74.132 595.694769,72.2 595.694769,70.338 C595.694769,68.476 596.250462,66.558 597.891692,66.558 C599.532923,66.558 600.088615,68.476 600.088615,70.338 C600.088615,72.2 599.532923,74.132 597.891692,74.132 Z" id="$7.00" fill="#2F2F2F"></path>
                        <path d="M564.834462,115.4 L565.622769,115.4 L565.622769,114.154 C567.625846,114 568.375385,112.684 568.375385,111.424 C568.375385,109.59 566.953846,109.058 565.622769,108.652 L565.622769,105.6 C566.346462,105.712 567.018462,106.062 567.535385,106.678 L568.181538,105.824 C567.548308,105.11 566.695385,104.634 565.622769,104.536 L565.622769,103.248 L564.834462,103.248 L564.834462,104.522 C563.283692,104.648 562.159385,105.67 562.159385,107.112 C562.159385,108.834 563.516308,109.31 564.834462,109.702 L564.834462,113.104 C563.813538,112.978 563.025231,112.418 562.534154,111.788 L561.888,112.684 C562.534154,113.482 563.529231,114.07 564.834462,114.154 L564.834462,115.4 Z M567.264,111.508 C567.264,112.18 566.850462,112.978 565.622769,113.118 L565.622769,109.926 C566.527385,110.22 567.264,110.598 567.264,111.508 Z M563.270769,107.042 C563.270769,106.23 563.916923,105.642 564.834462,105.572 L564.834462,108.428 C563.955692,108.148 563.270769,107.812 563.270769,107.042 Z M574.578462,114 L574.578462,111.634 L575.793231,111.634 L575.793231,110.612 L574.578462,110.612 L574.578462,104.662 L573.105231,104.662 L569.409231,110.668 L569.409231,111.634 L573.505846,111.634 L573.505846,114 L574.578462,114 Z M573.505846,110.612 L570.481846,110.612 L573.505846,105.74 L573.505846,110.612 Z M579.683077,114.154 C582.099692,114.154 583.198154,111.858 583.198154,109.338 C583.198154,106.79 582.267692,104.508 579.864,104.508 C577.977231,104.508 576.84,105.95 576.84,107.56 C576.84,109.548 578.119385,110.542 579.670154,110.542 C580.768615,110.542 581.724923,109.73 582.099692,109.086 C582.112615,109.212 582.112615,109.338 582.112615,109.45 C582.112615,111.228 581.427692,113.118 579.683077,113.118 C578.791385,113.118 578.274462,112.726 577.835077,112.166 L577.292308,113.034 C577.835077,113.692 578.584615,114.154 579.683077,114.154 Z M579.915692,109.534 C578.804308,109.534 577.925538,108.89 577.925538,107.518 C577.925538,106.622 578.584615,105.544 579.902769,105.544 C581.401846,105.544 581.970462,106.986 582.073846,108.134 C581.608615,108.96 580.768615,109.534 579.915692,109.534 Z M584.929846,114.14 C585.317538,114.14 585.640615,113.79 585.640615,113.37 C585.640615,112.95 585.317538,112.6 584.929846,112.6 C584.542154,112.6 584.219077,112.95 584.219077,113.37 C584.219077,113.79 584.542154,114.14 584.929846,114.14 Z M589.982769,114.168 C592.334769,114.168 593.278154,111.606 593.278154,109.338 C593.278154,107.056 592.334769,104.522 589.982769,104.522 C587.617846,104.522 586.687385,107.056 586.687385,109.338 C586.687385,111.606 587.617846,114.168 589.982769,114.168 Z M589.982769,113.132 C588.341538,113.132 587.785846,111.2 587.785846,109.338 C587.785846,107.476 588.341538,105.558 589.982769,105.558 C591.624,105.558 592.179692,107.476 592.179692,109.338 C592.179692,111.2 591.624,113.132 589.982769,113.132 Z M597.891692,114.168 C600.243692,114.168 601.187077,111.606 601.187077,109.338 C601.187077,107.056 600.243692,104.522 597.891692,104.522 C595.526769,104.522 594.596308,107.056 594.596308,109.338 C594.596308,111.606 595.526769,114.168 597.891692,114.168 Z M597.891692,113.132 C596.250462,113.132 595.694769,111.2 595.694769,109.338 C595.694769,107.476 596.250462,105.558 597.891692,105.558 C599.532923,105.558 600.088615,107.476 600.088615,109.338 C600.088615,111.2 599.532923,113.132 597.891692,113.132 Z" id="$49.00-copy" fill="#2F2F2F"></path>
                        <path d="M681.679385,76.4 L682.713231,76.4 L682.713231,75.14 C684.651692,74.958 685.517538,73.698 685.517538,72.27 C685.517538,70.394 684.057231,69.848 682.713231,69.47 L682.713231,67.048 C683.346462,67.188 683.966769,67.51 684.457846,68.042 L685.310769,66.824 C684.638769,66.124 683.76,65.676 682.713231,65.55 L682.713231,64.248 L681.679385,64.248 L681.679385,65.536 C680.012308,65.69 678.952615,66.824 678.952615,68.252 C678.952615,70.072 680.348308,70.59 681.679385,70.954 L681.679385,73.67 C680.748923,73.516 679.999385,72.984 679.521231,72.41 L678.668308,73.684 C679.353231,74.454 680.348308,75.028 681.679385,75.14 L681.679385,76.4 Z M683.966769,72.424 C683.966769,72.97 683.604923,73.544 682.713231,73.684 L682.713231,71.248 C683.424,71.486 683.966769,71.794 683.966769,72.424 Z M680.503385,68.126 C680.503385,67.51 680.955692,67.076 681.679385,66.978 L681.679385,69.176 C680.994462,68.952 680.503385,68.672 680.503385,68.126 Z M690.014769,75 L690.014769,65.662 L688.696615,65.662 L686.215385,68.378 L687.094154,69.372 L688.502769,67.776 L688.502769,75 L690.014769,75 Z M696.915692,75 L696.915692,72.886 L698.065846,72.886 L698.065846,71.444 L696.915692,71.444 L696.915692,65.662 L694.835077,65.662 L691.294154,71.57 L691.294154,72.886 L695.403692,72.886 L695.403692,75 L696.915692,75 Z M695.403692,71.444 L692.780308,71.444 L695.403692,67.132 L695.403692,71.444 Z M700.017231,75.154 C700.508308,75.154 700.921846,74.692 700.921846,74.16 C700.921846,73.642 700.508308,73.194 700.017231,73.194 C699.526154,73.194 699.112615,73.642 699.112615,74.16 C699.112615,74.692 699.526154,75.154 700.017231,75.154 Z M705.276923,75.168 C707.693538,75.168 708.714462,72.676 708.714462,70.338 C708.714462,67.986 707.693538,65.522 705.276923,65.522 C702.847385,65.522 701.826462,67.986 701.826462,70.338 C701.826462,72.676 702.847385,75.168 705.276923,75.168 Z M705.276923,73.712 C703.868308,73.712 703.364308,72.116 703.364308,70.338 C703.364308,68.546 703.868308,66.978 705.276923,66.978 C706.685538,66.978 707.176615,68.546 707.176615,70.338 C707.176615,72.116 706.672615,73.712 705.276923,73.712 Z M713.250462,75.168 C715.667077,75.168 716.688,72.676 716.688,70.338 C716.688,67.986 715.667077,65.522 713.250462,65.522 C710.820923,65.522 709.8,67.986 709.8,70.338 C709.8,72.676 710.820923,75.168 713.250462,75.168 Z M713.250462,73.712 C711.841846,73.712 711.337846,72.116 711.337846,70.338 C711.337846,68.546 711.841846,66.978 713.250462,66.978 C714.659077,66.978 715.150154,68.546 715.150154,70.338 C715.150154,72.116 714.646154,73.712 713.250462,73.712 Z" id="$14.00" fill="#2F2F2F"></path>
                        <path d="M679.146462,115.4 L680.180308,115.4 L680.180308,114.14 C682.118769,113.958 682.984615,112.698 682.984615,111.27 C682.984615,109.394 681.524308,108.848 680.180308,108.47 L680.180308,106.048 C680.813538,106.188 681.433846,106.51 681.924923,107.042 L682.777846,105.824 C682.105846,105.124 681.227077,104.676 680.180308,104.55 L680.180308,103.248 L679.146462,103.248 L679.146462,104.536 C677.479385,104.69 676.419692,105.824 676.419692,107.252 C676.419692,109.072 677.815385,109.59 679.146462,109.954 L679.146462,112.67 C678.216,112.516 677.466462,111.984 676.988308,111.41 L676.135385,112.684 C676.820308,113.454 677.815385,114.028 679.146462,114.14 L679.146462,115.4 Z M681.433846,111.424 C681.433846,111.97 681.072,112.544 680.180308,112.684 L680.180308,110.248 C680.891077,110.486 681.433846,110.794 681.433846,111.424 Z M677.970462,107.126 C677.970462,106.51 678.422769,106.076 679.146462,105.978 L679.146462,108.176 C678.461538,107.952 677.970462,107.672 677.970462,107.126 Z M689.472,114 L689.472,111.886 L690.622154,111.886 L690.622154,110.444 L689.472,110.444 L689.472,104.662 L687.391385,104.662 L683.850462,110.57 L683.850462,111.886 L687.96,111.886 L687.96,114 L689.472,114 Z M687.96,110.444 L685.336615,110.444 L687.96,106.132 L687.96,110.444 Z M694.421538,114.154 C696.915692,114.154 698.220923,112.026 698.220923,109.324 C698.220923,106.734 697.2,104.508 694.667077,104.508 C692.741538,104.508 691.488,105.908 691.488,107.644 C691.488,109.632 692.819077,110.654 694.369846,110.654 C695.390769,110.654 696.295385,109.982 696.683077,109.352 C696.696,109.436 696.696,109.534 696.696,109.618 C696.696,111.144 695.985231,112.698 694.421538,112.698 C693.594462,112.698 693.103385,112.39 692.651077,111.872 L691.940308,113.118 C692.521846,113.734 693.348923,114.154 694.421538,114.154 Z M694.783385,109.254 C693.84,109.254 693.012923,108.736 693.012923,107.588 C693.012923,106.832 693.607385,105.964 694.744615,105.964 C696.075692,105.964 696.579692,107.14 696.670154,108.148 C696.230769,108.82 695.52,109.254 694.783385,109.254 Z M700.017231,114.154 C700.508308,114.154 700.921846,113.692 700.921846,113.16 C700.921846,112.642 700.508308,112.194 700.017231,112.194 C699.526154,112.194 699.112615,112.642 699.112615,113.16 C699.112615,113.692 699.526154,114.154 700.017231,114.154 Z M705.276923,114.168 C707.693538,114.168 708.714462,111.676 708.714462,109.338 C708.714462,106.986 707.693538,104.522 705.276923,104.522 C702.847385,104.522 701.826462,106.986 701.826462,109.338 C701.826462,111.676 702.847385,114.168 705.276923,114.168 Z M705.276923,112.712 C703.868308,112.712 703.364308,111.116 703.364308,109.338 C703.364308,107.546 703.868308,105.978 705.276923,105.978 C706.685538,105.978 707.176615,107.546 707.176615,109.338 C707.176615,111.116 706.672615,112.712 705.276923,112.712 Z M713.250462,114.168 C715.667077,114.168 716.688,111.676 716.688,109.338 C716.688,106.986 715.667077,104.522 713.250462,104.522 C710.820923,104.522 709.8,106.986 709.8,109.338 C709.8,111.676 710.820923,114.168 713.250462,114.168 Z M713.250462,112.712 C711.841846,112.712 711.337846,111.116 711.337846,109.338 C711.337846,107.546 711.841846,105.978 713.250462,105.978 C714.659077,105.978 715.150154,107.546 715.150154,109.338 C715.150154,111.116 714.646154,112.712 713.250462,112.712 Z" id="$49.00-copy-3" fill="#2F2F2F"></path>
                        <path d="M5.72307692,21 C7.64307692,21 8.93538462,19.63 8.93538462,17.66 C8.93538462,15.71 7.64307692,14.33 5.71384615,14.33 L3.42461538,14.33 L3.42461538,21 L5.72307692,21 Z M5.71384615,19.97 L4.50461538,19.97 L4.50461538,15.36 L5.72307692,15.36 C7.08923077,15.36 7.82769231,16.38 7.82769231,17.66 C7.82769231,18.93 7.05230769,19.97 5.71384615,19.97 Z M14.1969231,21 L14.1969231,19.97 L11.0584615,19.97 L11.0584615,18.11 L14.1323077,18.11 L14.1323077,17.08 L11.0584615,17.08 L11.0584615,15.36 L14.1969231,15.36 L14.1969231,14.33 L9.97846154,14.33 L9.97846154,21 L14.1969231,21 Z M17.4184615,21.12 C19.0707692,21.12 19.8,20.16 19.8,19.05 C19.8,16.57 16.2184615,17.34 16.2184615,16.09 C16.2184615,15.6 16.6246154,15.26 17.2523077,15.26 C17.8984615,15.26 18.5538462,15.5 19.0430769,16.03 L19.6523077,15.16 C19.0892308,14.56 18.3046154,14.22 17.3538462,14.22 C15.9969231,14.22 15.1107692,15.07 15.1107692,16.18 C15.1107692,18.63 18.6923077,17.76 18.6923077,19.16 C18.6923077,19.61 18.3507692,20.08 17.4646154,20.08 C16.6061538,20.08 15.9323077,19.64 15.5169231,19.15 L14.9076923,20.06 C15.4615385,20.68 16.2830769,21.12 17.4184615,21.12 Z M23.7507692,21.12 C24.9876923,21.12 25.7538462,20.41 26.2246154,19.61 L25.3015385,19.11 C25.0061538,19.66 24.4061538,20.08 23.7507692,20.08 C22.5323077,20.08 21.6276923,19.06 21.6276923,17.67 C21.6276923,16.26 22.5323077,15.26 23.7507692,15.26 C24.4061538,15.26 25.0061538,15.67 25.3015385,16.23 L26.2153846,15.71 C25.7630769,14.91 24.9876923,14.22 23.7507692,14.22 C21.9323077,14.22 20.52,15.61 20.52,17.67 C20.52,19.72 21.9323077,21.12 23.7507692,21.12 Z M31.8553846,21 L30.3415385,18.38 C31.0892308,18.25 31.8092308,17.6 31.8092308,16.42 C31.8092308,15.18 31.0061538,14.33 29.7876923,14.33 L27.0830769,14.33 L27.0830769,21 L28.1630769,21 L28.1630769,18.51 L29.2430769,18.51 L30.6,21 L31.8553846,21 Z M29.6492308,17.48 L28.1630769,17.48 L28.1630769,15.36 L29.6492308,15.36 C30.2584615,15.36 30.7015385,15.77 30.7015385,16.41 C30.7015385,17.06 30.2584615,17.48 29.6492308,17.48 Z M33.9692308,21 L33.9692308,14.33 L32.8892308,14.33 L32.8892308,21 L33.9692308,21 Z M36.36,21 L36.36,18.5 L37.9938462,18.5 C39.2769231,18.5 39.9969231,17.55 39.9969231,16.42 C39.9969231,15.28 39.2861538,14.33 37.9938462,14.33 L35.28,14.33 L35.28,21 L36.36,21 Z M37.8461538,17.47 L36.36,17.47 L36.36,15.36 L37.8461538,15.36 C38.4553846,15.36 38.8892308,15.78 38.8892308,16.42 C38.8892308,17.05 38.4553846,17.47 37.8461538,17.47 Z M43.4492308,21 L43.4492308,15.36 L45.3138462,15.36 L45.3138462,14.33 L40.5046154,14.33 L40.5046154,15.36 L42.3692308,15.36 L42.3692308,21 L43.4492308,21 Z M47.3076923,21 L47.3076923,14.33 L46.2276923,14.33 L46.2276923,21 L47.3076923,21 Z M51.4984615,21.12 C53.3353846,21.12 54.6461538,19.66 54.6461538,17.67 C54.6461538,15.68 53.3353846,14.22 51.4984615,14.22 C49.6523077,14.22 48.3507692,15.68 48.3507692,17.67 C48.3507692,19.66 49.6523077,21.12 51.4984615,21.12 Z M51.4984615,20.08 C50.2523077,20.08 49.4584615,19.04 49.4584615,17.67 C49.4584615,16.29 50.2523077,15.26 51.4984615,15.26 C52.7353846,15.26 53.5384615,16.29 53.5384615,17.67 C53.5384615,19.04 52.7353846,20.08 51.4984615,20.08 Z M61.0153846,21 L61.0153846,14.33 L59.9353846,14.33 L59.9353846,18.95 L56.7876923,14.33 L55.68,14.33 L55.68,21 L56.76,21 L56.76,16.23 L59.9723077,21 L61.0153846,21 Z" id="DESCRIPTION" fill="#2F2F2F"></path>
                        <path d="M458.4,22.12 C460.190769,22.12 461.067692,21.01 461.067692,19.36 L461.067692,15.33 L459.969231,15.33 L459.969231,19.33 C459.969231,20.39 459.424615,21.08 458.4,21.08 C457.375385,21.08 456.830769,20.39 456.830769,19.33 L456.830769,15.33 L455.732308,15.33 L455.732308,19.36 C455.732308,21.01 456.618462,22.12 458.4,22.12 Z M467.713846,22 L467.713846,15.33 L466.633846,15.33 L466.633846,19.95 L463.486154,15.33 L462.378462,15.33 L462.378462,22 L463.458462,22 L463.458462,17.23 L466.670769,22 L467.713846,22 Z M470.104615,22 L470.104615,15.33 L469.024615,15.33 L469.024615,22 L470.104615,22 Z M473.963077,22 L473.963077,16.36 L475.827692,16.36 L475.827692,15.33 L471.018462,15.33 L471.018462,16.36 L472.883077,16.36 L472.883077,22 L473.963077,22 Z M478.809231,22.12 C480.461538,22.12 481.190769,21.16 481.190769,20.05 C481.190769,17.57 477.609231,18.34 477.609231,17.09 C477.609231,16.6 478.015385,16.26 478.643077,16.26 C479.289231,16.26 479.944615,16.5 480.433846,17.03 L481.043077,16.16 C480.48,15.56 479.695385,15.22 478.744615,15.22 C477.387692,15.22 476.501538,16.07 476.501538,17.18 C476.501538,19.63 480.083077,18.76 480.083077,20.16 C480.083077,20.61 479.741538,21.08 478.855385,21.08 C477.996923,21.08 477.323077,20.64 476.907692,20.15 L476.298462,21.06 C476.852308,21.68 477.673846,22.12 478.809231,22.12 Z" id="Units" fill="#2F2F2F"></path>
                        <path d="M557.169231,22.12 C558.96,22.12 559.836923,21.01 559.836923,19.36 L559.836923,15.33 L558.738462,15.33 L558.738462,19.33 C558.738462,20.39 558.193846,21.08 557.169231,21.08 C556.144615,21.08 555.6,20.39 555.6,19.33 L555.6,15.33 L554.501538,15.33 L554.501538,19.36 C554.501538,21.01 555.387692,22.12 557.169231,22.12 Z M566.483077,22 L566.483077,15.33 L565.403077,15.33 L565.403077,19.95 L562.255385,15.33 L561.147692,15.33 L561.147692,22 L562.227692,22 L562.227692,17.23 L565.44,22 L566.483077,22 Z M568.873846,22 L568.873846,15.33 L567.793846,15.33 L567.793846,22 L568.873846,22 Z M572.732308,22 L572.732308,16.36 L574.596923,16.36 L574.596923,15.33 L569.787692,15.33 L569.787692,16.36 L571.652308,16.36 L571.652308,22 L572.732308,22 Z M578.972308,22 L578.972308,19.5 L580.606154,19.5 C581.889231,19.5 582.609231,18.55 582.609231,17.42 C582.609231,16.28 581.898462,15.33 580.606154,15.33 L577.892308,15.33 L577.892308,22 L578.972308,22 Z M580.458462,18.47 L578.972308,18.47 L578.972308,16.36 L580.458462,16.36 C581.067692,16.36 581.501538,16.78 581.501538,17.42 C581.501538,18.05 581.067692,18.47 580.458462,18.47 Z M588.286154,22 L586.772308,19.38 C587.52,19.25 588.24,18.6 588.24,17.42 C588.24,16.18 587.436923,15.33 586.218462,15.33 L583.513846,15.33 L583.513846,22 L584.593846,22 L584.593846,19.51 L585.673846,19.51 L587.030769,22 L588.286154,22 Z M586.08,18.48 L584.593846,18.48 L584.593846,16.36 L586.08,16.36 C586.689231,16.36 587.132308,16.77 587.132308,17.41 C587.132308,18.06 586.689231,18.48 586.08,18.48 Z M590.4,22 L590.4,15.33 L589.32,15.33 L589.32,22 L590.4,22 Z M594.673846,22.12 C595.910769,22.12 596.676923,21.41 597.147692,20.61 L596.224615,20.11 C595.929231,20.66 595.329231,21.08 594.673846,21.08 C593.455385,21.08 592.550769,20.06 592.550769,18.67 C592.550769,17.26 593.455385,16.26 594.673846,16.26 C595.329231,16.26 595.929231,16.67 596.224615,17.23 L597.138462,16.71 C596.686154,15.91 595.910769,15.22 594.673846,15.22 C592.855385,15.22 591.443077,16.61 591.443077,18.67 C591.443077,20.72 592.855385,22.12 594.673846,22.12 Z M602.224615,22 L602.224615,20.97 L599.086154,20.97 L599.086154,19.11 L602.16,19.11 L602.16,18.08 L599.086154,18.08 L599.086154,16.36 L602.224615,16.36 L602.224615,15.33 L598.006154,15.33 L598.006154,22 L602.224615,22 Z" id="UNIT-PRICE" fill="#2F2F2F"></path>
                        <path d="M683.833846,22 L681.415385,15.33 L680.067692,15.33 L677.649231,22 L678.876923,22 L679.329231,20.71 L682.153846,20.71 L682.606154,22 L683.833846,22 Z M681.849231,19.68 L679.633846,19.68 L680.741538,16.5 L681.849231,19.68 Z M690.895385,22 L690.895385,15.33 L689.372308,15.33 L687.701538,19.91 L686.021538,15.33 L684.498462,15.33 L684.498462,22 L685.578462,22 L685.578462,16.85 L687.470769,22 L687.932308,22 L689.815385,16.85 L689.815385,22 L690.895385,22 Z M695.086154,22.12 C696.923077,22.12 698.233846,20.66 698.233846,18.67 C698.233846,16.68 696.923077,15.22 695.086154,15.22 C693.24,15.22 691.938462,16.68 691.938462,18.67 C691.938462,20.66 693.24,22.12 695.086154,22.12 Z M695.086154,21.08 C693.84,21.08 693.046154,20.04 693.046154,18.67 C693.046154,17.29 693.84,16.26 695.086154,16.26 C696.323077,16.26 697.126154,17.29 697.126154,18.67 C697.126154,20.04 696.323077,21.08 695.086154,21.08 Z M701.935385,22.12 C703.726154,22.12 704.603077,21.01 704.603077,19.36 L704.603077,15.33 L703.504615,15.33 L703.504615,19.33 C703.504615,20.39 702.96,21.08 701.935385,21.08 C700.910769,21.08 700.366154,20.39 700.366154,19.33 L700.366154,15.33 L699.267692,15.33 L699.267692,19.36 C699.267692,21.01 700.153846,22.12 701.935385,22.12 Z M711.249231,22 L711.249231,15.33 L710.169231,15.33 L710.169231,19.95 L707.021538,15.33 L705.913846,15.33 L705.913846,22 L706.993846,22 L706.993846,17.23 L710.206154,22 L711.249231,22 Z M715.107692,22 L715.107692,16.36 L716.972308,16.36 L716.972308,15.33 L712.163077,15.33 L712.163077,16.36 L714.027692,16.36 L714.027692,22 L715.107692,22 Z" id="AMOUNT" fill="#2F2F2F"></path>
                        <polygon id="Line-Copy-2" fill="#979797" opacity="0.200000003" points="2.74663403 1 719.881623 1 719.881623 0 2.74663403 0"></polygon>
                        <polygon id="Line-4" fill="#979797" opacity="0.200000003" points="2.74663403 40 719.881623 40 719.881623 39 2.74663403 39"></polygon>
                        <polygon id="Line-5" fill="#979797" opacity="0.200000003" points="0.900480181 141 718.035469 141 718.035469 140 0.900480181 140"></polygon>
                    </g>
                </g>
            </g>
        </g>
    </g>
</svg>