<?xml version="1.0" encoding="UTF-8" standalone="no"?>
<svg width="470px" height="70px" viewBox="0 0 470 70" version="1.1" xmlns="http://www.w3.org/2000/svg" xmlns:xlink="http://www.w3.org/1999/xlink">
    <!-- Generator: Sketch 41.2 (35397) - http://www.bohemiancoding.com/sketch -->
    <title>reference-invoice copy 2</title>
    <desc>Created with Sketch.</desc>
    <defs></defs>
    <g id="Page-1" stroke="none" stroke-width="1" fill="none" fill-rule="evenodd">
        <g id="reference-invoice-new" transform="translate(-50.000000, -248.000000)" fill="#2F2F2F">
            <g id="Group-3" transform="translate(50.000000, 40.000000)">
                <path d="M268,216.12 C269.79,216.12 270.58,215.16 270.58,214.05 C270.58,211.57 266.7,212.34 266.7,211.09 C266.7,210.6 267.14,210.26 267.82,210.26 C268.52,210.26 269.23,210.5 269.76,211.03 L270.42,210.16 C269.81,209.56 268.96,209.22 267.93,209.22 C266.46,209.22 265.5,210.07 265.5,211.18 C265.5,213.63 269.38,212.76 269.38,214.16 C269.38,214.61 269.01,215.08 268.05,215.08 C267.12,215.08 266.39,214.64 265.94,214.15 L265.28,215.06 C265.88,215.68 266.77,216.12 268,216.12 Z M277.46,216 L277.46,209.33 L276.29,209.33 L276.29,212.05 L272.82,212.05 L272.82,209.33 L271.65,209.33 L271.65,216 L272.82,216 L272.82,213.08 L276.29,213.08 L276.29,216 L277.46,216 Z M280.05,216 L280.05,209.33 L278.88,209.33 L278.88,216 L280.05,216 Z M282.64,216 L282.64,213.5 L284.41,213.5 C285.8,213.5 286.58,212.55 286.58,211.42 C286.58,210.28 285.81,209.33 284.41,209.33 L281.47,209.33 L281.47,216 L282.64,216 Z M284.25,212.47 L282.64,212.47 L282.64,210.36 L284.25,210.36 C284.91,210.36 285.38,210.78 285.38,211.42 C285.38,212.05 284.91,212.47 284.25,212.47 Z M288.73,216 L288.73,213.5 L290.5,213.5 C291.89,213.5 292.67,212.55 292.67,211.42 C292.67,210.28 291.9,209.33 290.5,209.33 L287.56,209.33 L287.56,216 L288.73,216 Z M290.34,212.47 L288.73,212.47 L288.73,210.36 L290.34,210.36 C291,210.36 291.47,210.78 291.47,211.42 C291.47,212.05 291,212.47 290.34,212.47 Z M298.22,216 L298.22,214.97 L294.82,214.97 L294.82,213.11 L298.15,213.11 L298.15,212.08 L294.82,212.08 L294.82,210.36 L298.22,210.36 L298.22,209.33 L293.65,209.33 L293.65,216 L298.22,216 Z M301.91,216 C303.99,216 305.39,214.63 305.39,212.66 C305.39,210.71 303.99,209.33 301.9,209.33 L299.42,209.33 L299.42,216 L301.91,216 Z M301.9,214.97 L300.59,214.97 L300.59,210.36 L301.91,210.36 C303.39,210.36 304.19,211.38 304.19,212.66 C304.19,213.93 303.35,214.97 301.9,214.97 Z M311.86,216 L311.86,210.36 L313.88,210.36 L313.88,209.33 L308.67,209.33 L308.67,210.36 L310.69,210.36 L310.69,216 L311.86,216 Z M317.74,216.12 C319.73,216.12 321.15,214.66 321.15,212.67 C321.15,210.68 319.73,209.22 317.74,209.22 C315.74,209.22 314.33,210.68 314.33,212.67 C314.33,214.66 315.74,216.12 317.74,216.12 Z M317.74,215.08 C316.39,215.08 315.53,214.04 315.53,212.67 C315.53,211.29 316.39,210.26 317.74,210.26 C319.08,210.26 319.95,211.29 319.95,212.67 C319.95,214.04 319.08,215.08 317.74,215.08 Z M267.59,235.168 C269.144,235.168 270.418,234.244 270.418,232.298 L270.418,225.662 L269.62,225.662 L269.62,232.298 C269.62,233.558 268.822,234.44 267.548,234.44 C266.68,234.44 266.106,233.964 265.686,233.404 L265.196,234.02 C265.812,234.818 266.582,235.168 267.59,235.168 Z M275.57,235.168 C277.572,235.168 278.832,233.586 278.832,231.612 C278.832,229.638 277.572,228.07 275.57,228.07 C273.596,228.07 272.336,229.638 272.336,231.612 C272.336,233.586 273.596,235.168 275.57,235.168 Z M275.57,234.51 C274.002,234.51 273.106,233.124 273.106,231.612 C273.106,230.114 274.002,228.728 275.57,228.728 C277.166,228.728 278.048,230.114 278.048,231.612 C278.048,233.124 277.166,234.51 275.57,234.51 Z M286,235 L286,230.268 C286,228.742 285.244,228.07 283.872,228.07 C282.892,228.07 281.926,228.672 281.436,229.26 L281.436,228.238 L280.708,228.238 L280.708,235 L281.436,235 L281.436,229.89 C281.87,229.274 282.766,228.728 283.634,228.728 C284.614,228.728 285.272,229.12 285.272,230.422 L285.272,235 L286,235 Z M293.294,235 L293.294,230.24 C293.294,228.728 292.202,228.07 290.83,228.07 C289.71,228.07 288.926,228.448 288.226,229.204 L288.632,229.708 C289.248,229.008 289.906,228.714 290.76,228.714 C291.754,228.714 292.566,229.26 292.566,230.268 L292.566,231.64 C291.978,230.982 291.208,230.674 290.27,230.674 C289.094,230.674 287.904,231.444 287.904,232.914 C287.904,234.37 289.108,235.168 290.27,235.168 C291.208,235.168 291.964,234.86 292.566,234.202 L292.566,235 L293.294,235 Z M290.522,234.594 C289.416,234.594 288.674,233.88 288.674,232.928 C288.674,231.962 289.416,231.248 290.522,231.248 C291.334,231.248 292.09,231.556 292.566,232.186 L292.566,233.67 C292.09,234.286 291.334,234.594 290.522,234.594 Z M297.032,235.168 C297.592,235.168 297.914,235 298.18,234.748 L297.9,234.188 C297.746,234.356 297.466,234.51 297.144,234.51 C296.668,234.51 296.444,234.132 296.444,233.586 L296.444,228.882 L297.816,228.882 L297.816,228.238 L296.444,228.238 L296.444,226.39 L295.702,226.39 L295.702,228.238 L294.582,228.238 L294.582,228.882 L295.702,228.882 L295.702,233.698 C295.702,234.622 296.136,235.168 297.032,235.168 Z M304.704,235 L304.704,230.24 C304.704,228.714 303.948,228.07 302.576,228.07 C301.596,228.07 300.63,228.672 300.14,229.26 L300.14,225.662 L299.412,225.662 L299.412,235 L300.14,235 L300.14,229.89 C300.574,229.274 301.47,228.728 302.338,228.728 C303.318,228.728 303.976,229.092 303.976,230.394 L303.976,235 L304.704,235 Z M311.998,235 L311.998,230.24 C311.998,228.728 310.906,228.07 309.534,228.07 C308.414,228.07 307.63,228.448 306.93,229.204 L307.336,229.708 C307.952,229.008 308.61,228.714 309.464,228.714 C310.458,228.714 311.27,229.26 311.27,230.268 L311.27,231.64 C310.682,230.982 309.912,230.674 308.974,230.674 C307.798,230.674 306.608,231.444 306.608,232.914 C306.608,234.37 307.812,235.168 308.974,235.168 C309.912,235.168 310.668,234.86 311.27,234.202 L311.27,235 L311.998,235 Z M309.226,234.594 C308.12,234.594 307.378,233.88 307.378,232.928 C307.378,231.962 308.12,231.248 309.226,231.248 C310.038,231.248 310.794,231.556 311.27,232.186 L311.27,233.67 C310.794,234.286 310.038,234.594 309.226,234.594 Z M319.558,235 L319.558,230.268 C319.558,228.742 318.802,228.07 317.43,228.07 C316.45,228.07 315.484,228.672 314.994,229.26 L314.994,228.238 L314.266,228.238 L314.266,235 L314.994,235 L314.994,229.89 C315.428,229.274 316.324,228.728 317.192,228.728 C318.172,228.728 318.83,229.12 318.83,230.422 L318.83,235 L319.558,235 Z M326.278,235 L326.278,225.662 L325.48,225.662 L325.48,235 L326.278,235 Z M331.22,235 L334.076,228.238 L333.25,228.238 L330.814,234.146 L328.35,228.238 L327.538,228.238 L330.394,235 L331.22,235 Z M338.304,235.168 C339.424,235.168 340.278,234.776 340.95,234.076 L340.572,233.6 C339.998,234.216 339.214,234.538 338.36,234.538 C336.764,234.538 335.784,233.32 335.714,231.85 L341.37,231.85 L341.37,231.654 C341.37,229.694 340.236,228.07 338.178,228.07 C336.302,228.07 334.93,229.652 334.93,231.612 C334.93,233.698 336.33,235.168 338.304,235.168 Z M340.628,231.276 L335.714,231.276 C335.77,230.1 336.568,228.7 338.164,228.7 C339.858,228.7 340.614,230.128 340.628,231.276 Z M344.212,234.804 C344.212,234.23 343.876,233.908 343.498,233.908 C343.162,233.908 342.896,234.188 342.896,234.51 C342.896,234.846 343.134,235.098 343.47,235.098 C343.512,235.098 343.61,235.084 343.61,235.084 C343.582,235.518 343.246,236.064 342.798,236.372 L343.204,236.708 C343.75,236.33 344.212,235.588 344.212,234.804 Z M268.15,255 L268.15,245.662 L267.422,245.662 L265.364,247.832 L265.854,248.35 L267.352,246.754 L267.352,255 L268.15,255 Z M273.498,255.168 C275.22,255.168 276.648,254.02 276.648,252.158 C276.648,250.212 275.234,249.176 273.666,249.176 C272.7,249.176 271.902,249.596 271.44,250.044 L271.44,246.39 L276.032,246.39 L276.032,245.662 L270.642,245.662 L270.642,250.562 L271.244,250.814 C271.93,250.184 272.658,249.904 273.512,249.904 C274.856,249.904 275.836,250.772 275.836,252.186 C275.836,253.46 274.856,254.44 273.498,254.44 C272.294,254.44 271.482,253.964 270.88,253.11 L270.348,253.642 C270.992,254.566 271.944,255.168 273.498,255.168 Z M281.464,255.168 C283.256,255.168 284.642,254.174 284.642,252.662 C284.642,251.36 283.508,250.506 282.318,250.184 C283.424,249.89 284.488,249.176 284.488,247.93 C284.488,246.278 282.92,245.522 281.464,245.522 C279.994,245.522 278.44,246.278 278.44,247.93 C278.44,249.176 279.504,249.89 280.61,250.184 C279.42,250.506 278.286,251.36 278.286,252.662 C278.286,254.188 279.658,255.168 281.464,255.168 Z M281.464,249.848 C280.904,249.736 279.252,249.316 279.252,248.014 C279.252,246.894 280.246,246.25 281.464,246.25 C282.682,246.25 283.676,246.894 283.676,248.014 C283.676,249.316 282.038,249.736 281.464,249.848 Z M281.464,254.44 C280.218,254.44 279.098,253.74 279.098,252.606 C279.098,251.178 280.89,250.618 281.464,250.548 C282.024,250.618 283.83,251.178 283.83,252.606 C283.83,253.74 282.682,254.44 281.464,254.44 Z M289.458,255.168 C291.25,255.168 292.636,254.174 292.636,252.662 C292.636,251.36 291.502,250.506 290.312,250.184 C291.418,249.89 292.482,249.176 292.482,247.93 C292.482,246.278 290.914,245.522 289.458,245.522 C287.988,245.522 286.434,246.278 286.434,247.93 C286.434,249.176 287.498,249.89 288.604,250.184 C287.414,250.506 286.28,251.36 286.28,252.662 C286.28,254.188 287.652,255.168 289.458,255.168 Z M289.458,249.848 C288.898,249.736 287.246,249.316 287.246,248.014 C287.246,246.894 288.24,246.25 289.458,246.25 C290.676,246.25 291.67,246.894 291.67,248.014 C291.67,249.316 290.032,249.736 289.458,249.848 Z M289.458,254.44 C288.212,254.44 287.092,253.74 287.092,252.606 C287.092,251.178 288.884,250.618 289.458,250.548 C290.018,250.618 291.824,251.178 291.824,252.606 C291.824,253.74 290.676,254.44 289.458,254.44 Z M302.618,255.168 C304.102,255.168 305.194,254.524 306.034,253.502 L305.348,253.082 C304.76,253.894 303.738,254.44 302.618,254.44 C300.434,254.44 298.726,252.746 298.726,250.338 C298.726,247.902 300.434,246.236 302.618,246.236 C303.738,246.236 304.76,246.782 305.348,247.594 L306.02,247.16 C305.236,246.166 304.102,245.508 302.618,245.508 C299.972,245.508 297.886,247.468 297.886,250.338 C297.886,253.208 299.972,255.168 302.618,255.168 Z M308.33,255 L308.33,250.072 C308.638,249.484 309.562,248.868 310.248,248.868 C310.388,248.868 310.486,248.868 310.612,248.896 L310.612,248.098 C309.674,248.098 308.904,248.644 308.33,249.4 L308.33,248.238 L307.602,248.238 L307.602,255 L308.33,255 Z M317.332,255 L317.332,248.238 L316.604,248.238 L316.604,253.39 C316.156,253.992 315.274,254.51 314.406,254.51 C313.426,254.51 312.768,254.146 312.768,252.83 L312.768,248.238 L312.04,248.238 L312.04,252.998 C312.04,254.524 312.796,255.168 314.168,255.168 C315.148,255.168 316.058,254.622 316.604,254.006 L316.604,255 L317.332,255 Z M322.498,255.168 C323.674,255.168 324.346,254.706 324.892,254.006 L324.388,253.558 C323.898,254.23 323.282,254.51 322.54,254.51 C320.958,254.51 319.992,253.236 319.992,251.612 C319.992,249.988 320.958,248.728 322.54,248.728 C323.282,248.728 323.898,248.994 324.388,249.666 L324.892,249.218 C324.346,248.532 323.674,248.07 322.498,248.07 C320.51,248.07 319.222,249.638 319.222,251.612 C319.222,253.586 320.51,255.168 322.498,255.168 Z M329.512,255.168 C330.632,255.168 331.486,254.776 332.158,254.076 L331.78,253.6 C331.206,254.216 330.422,254.538 329.568,254.538 C327.972,254.538 326.992,253.32 326.922,251.85 L332.578,251.85 L332.578,251.654 C332.578,249.694 331.444,248.07 329.386,248.07 C327.51,248.07 326.138,249.652 326.138,251.612 C326.138,253.698 327.538,255.168 329.512,255.168 Z M331.836,251.276 L326.922,251.276 C326.978,250.1 327.776,248.7 329.372,248.7 C331.066,248.7 331.822,250.128 331.836,251.276 Z M335.182,255 L335.182,250.072 C335.49,249.484 336.414,248.868 337.1,248.868 C337.24,248.868 337.338,248.868 337.464,248.896 L337.464,248.098 C336.526,248.098 335.756,248.644 335.182,249.4 L335.182,248.238 L334.454,248.238 L334.454,255 L335.182,255 Z M341.748,255.168 C343.75,255.168 345.01,253.586 345.01,251.612 C345.01,249.638 343.75,248.07 341.748,248.07 C339.774,248.07 338.514,249.638 338.514,251.612 C338.514,253.586 339.774,255.168 341.748,255.168 Z M341.748,254.51 C340.18,254.51 339.284,253.124 339.284,251.612 C339.284,250.114 340.18,248.728 341.748,248.728 C343.344,248.728 344.226,250.114 344.226,251.612 C344.226,253.124 343.344,254.51 341.748,254.51 Z M358.226,255 L354.404,245.662 L353.41,245.662 L349.588,255 L350.512,255 L351.436,252.704 L356.378,252.704 L357.302,255 L358.226,255 Z M356.112,251.976 L351.702,251.976 L353.914,246.516 L356.112,251.976 Z M361.936,255 L364.792,248.238 L363.966,248.238 L361.53,254.146 L359.066,248.238 L358.254,248.238 L361.11,255 L361.936,255 Z M369.02,255.168 C370.14,255.168 370.994,254.776 371.666,254.076 L371.288,253.6 C370.714,254.216 369.93,254.538 369.076,254.538 C367.48,254.538 366.5,253.32 366.43,251.85 L372.086,251.85 L372.086,251.654 C372.086,249.694 370.952,248.07 368.894,248.07 C367.018,248.07 365.646,249.652 365.646,251.612 C365.646,253.698 367.046,255.168 369.02,255.168 Z M371.344,251.276 L366.43,251.276 C366.486,250.1 367.284,248.7 368.88,248.7 C370.574,248.7 371.33,250.128 371.344,251.276 Z M379.254,255 L379.254,250.268 C379.254,248.742 378.498,248.07 377.126,248.07 C376.146,248.07 375.18,248.672 374.69,249.26 L374.69,248.238 L373.962,248.238 L373.962,255 L374.69,255 L374.69,249.89 C375.124,249.274 376.02,248.728 376.888,248.728 C377.868,248.728 378.526,249.12 378.526,250.422 L378.526,255 L379.254,255 Z M386.814,255 L386.814,248.238 L386.086,248.238 L386.086,253.39 C385.638,253.992 384.756,254.51 383.888,254.51 C382.908,254.51 382.25,254.146 382.25,252.83 L382.25,248.238 L381.522,248.238 L381.522,252.998 C381.522,254.524 382.278,255.168 383.65,255.168 C384.63,255.168 385.54,254.622 386.086,254.006 L386.086,255 L386.814,255 Z M392.078,255.168 C393.198,255.168 394.052,254.776 394.724,254.076 L394.346,253.6 C393.772,254.216 392.988,254.538 392.134,254.538 C390.538,254.538 389.558,253.32 389.488,251.85 L395.144,251.85 L395.144,251.654 C395.144,249.694 394.01,248.07 391.952,248.07 C390.076,248.07 388.704,249.652 388.704,251.612 C388.704,253.698 390.104,255.168 392.078,255.168 Z M394.402,251.276 L389.488,251.276 C389.544,250.1 390.342,248.7 391.938,248.7 C393.632,248.7 394.388,250.128 394.402,251.276 Z M397.986,254.804 C397.986,254.23 397.65,253.908 397.272,253.908 C396.936,253.908 396.67,254.188 396.67,254.51 C396.67,254.846 396.908,255.098 397.244,255.098 C397.286,255.098 397.384,255.084 397.384,255.084 C397.356,255.518 397.02,256.064 396.572,256.372 L396.978,256.708 C397.524,256.33 397.986,255.588 397.986,254.804 Z M269.06,275.168 C271.58,275.168 272.378,273.726 272.378,272.522 C272.378,269.036 266.778,270.352 266.778,267.958 C266.778,266.95 267.716,266.236 268.962,266.236 C270.012,266.236 270.964,266.6 271.636,267.412 L272.168,266.824 C271.454,265.998 270.39,265.508 269.004,265.508 C267.31,265.508 265.938,266.474 265.938,268 C265.938,271.262 271.538,269.834 271.538,272.578 C271.538,273.376 270.992,274.44 269.088,274.44 C267.744,274.44 266.764,273.768 266.162,273.082 L265.644,273.684 C266.358,274.538 267.52,275.168 269.06,275.168 Z M279.294,275 L279.294,270.24 C279.294,268.728 278.202,268.07 276.83,268.07 C275.71,268.07 274.926,268.448 274.226,269.204 L274.632,269.708 C275.248,269.008 275.906,268.714 276.76,268.714 C277.754,268.714 278.566,269.26 278.566,270.268 L278.566,271.64 C277.978,270.982 277.208,270.674 276.27,270.674 C275.094,270.674 273.904,271.444 273.904,272.914 C273.904,274.37 275.108,275.168 276.27,275.168 C277.208,275.168 277.964,274.86 278.566,274.202 L278.566,275 L279.294,275 Z M276.522,274.594 C275.416,274.594 274.674,273.88 274.674,272.928 C274.674,271.962 275.416,271.248 276.522,271.248 C277.334,271.248 278.09,271.556 278.566,272.186 L278.566,273.67 C278.09,274.286 277.334,274.594 276.522,274.594 Z M286.854,275 L286.854,270.268 C286.854,268.742 286.098,268.07 284.726,268.07 C283.746,268.07 282.78,268.672 282.29,269.26 L282.29,268.238 L281.562,268.238 L281.562,275 L282.29,275 L282.29,269.89 C282.724,269.274 283.62,268.728 284.488,268.728 C285.468,268.728 286.126,269.12 286.126,270.422 L286.126,275 L286.854,275 Z M294.204,275.168 C295.758,275.168 297.032,274.244 297.032,272.298 L297.032,265.662 L296.234,265.662 L296.234,272.298 C296.234,273.558 295.436,274.44 294.162,274.44 C293.294,274.44 292.72,273.964 292.3,273.404 L291.81,274.02 C292.426,274.818 293.196,275.168 294.204,275.168 Z M302.184,275.168 C304.186,275.168 305.446,273.586 305.446,271.612 C305.446,269.638 304.186,268.07 302.184,268.07 C300.21,268.07 298.95,269.638 298.95,271.612 C298.95,273.586 300.21,275.168 302.184,275.168 Z M302.184,274.51 C300.616,274.51 299.72,273.124 299.72,271.612 C299.72,270.114 300.616,268.728 302.184,268.728 C303.78,268.728 304.662,270.114 304.662,271.612 C304.662,273.124 303.78,274.51 302.184,274.51 Z M309.338,275.168 C311.032,275.168 311.872,274.272 311.872,273.18 C311.872,270.576 307.616,271.612 307.616,269.918 C307.616,269.218 308.246,268.686 309.296,268.686 C310.192,268.686 310.92,269.05 311.312,269.582 L311.718,269.064 C311.228,268.518 310.458,268.07 309.296,268.07 C307.77,268.07 306.888,268.91 306.888,269.946 C306.888,272.382 311.158,271.332 311.158,273.18 C311.158,273.964 310.486,274.552 309.352,274.552 C308.4,274.552 307.602,274.104 307.168,273.558 L306.734,274.09 C307.406,274.846 308.246,275.168 309.338,275.168 Z M316.744,275.168 C317.864,275.168 318.718,274.776 319.39,274.076 L319.012,273.6 C318.438,274.216 317.654,274.538 316.8,274.538 C315.204,274.538 314.224,273.32 314.154,271.85 L319.81,271.85 L319.81,271.654 C319.81,269.694 318.676,268.07 316.618,268.07 C314.742,268.07 313.37,269.652 313.37,271.612 C313.37,273.698 314.77,275.168 316.744,275.168 Z M319.068,271.276 L314.154,271.276 C314.21,270.1 315.008,268.7 316.604,268.7 C318.298,268.7 319.054,270.128 319.068,271.276 Z M322.652,274.804 C322.652,274.23 322.316,273.908 321.938,273.908 C321.602,273.908 321.336,274.188 321.336,274.51 C321.336,274.846 321.574,275.098 321.91,275.098 C321.952,275.098 322.05,275.084 322.05,275.084 C322.022,275.518 321.686,276.064 321.238,276.372 L321.644,276.708 C322.19,276.33 322.652,275.588 322.652,274.804 Z M332.662,275.168 C334.146,275.168 335.238,274.524 336.078,273.502 L335.392,273.082 C334.804,273.894 333.782,274.44 332.662,274.44 C330.478,274.44 328.77,272.746 328.77,270.338 C328.77,267.902 330.478,266.236 332.662,266.236 C333.782,266.236 334.804,266.782 335.392,267.594 L336.064,267.16 C335.28,266.166 334.146,265.508 332.662,265.508 C330.016,265.508 327.93,267.468 327.93,270.338 C327.93,273.208 330.016,275.168 332.662,275.168 Z M345.332,275 L341.51,265.662 L340.516,265.662 L336.694,275 L337.618,275 L338.542,272.704 L343.484,272.704 L344.408,275 L345.332,275 Z M343.218,271.976 L338.808,271.976 L341.02,266.516 L343.218,271.976 Z M352.962,275.154 C355.538,275.154 356.532,272.732 356.532,270.338 C356.532,267.832 355.622,265.508 353.102,265.508 C351.114,265.508 349.966,266.964 349.966,268.49 C349.966,270.478 351.296,271.444 352.976,271.444 C354.25,271.444 355.328,270.534 355.72,269.89 L355.72,270.324 C355.72,272.284 355.02,274.426 352.962,274.426 C351.94,274.426 351.38,273.992 350.918,273.39 L350.442,273.964 C351.002,274.664 351.744,275.154 352.962,275.154 Z M353.116,270.73 C351.786,270.73 350.778,270.002 350.778,268.476 C350.778,267.468 351.534,266.236 353.13,266.236 C354.894,266.236 355.552,267.86 355.664,269.134 C355.132,270.072 354.138,270.73 353.116,270.73 Z M361.53,275.168 C363.252,275.168 364.68,274.02 364.68,272.158 C364.68,270.212 363.266,269.176 361.698,269.176 C360.732,269.176 359.934,269.596 359.472,270.044 L359.472,266.39 L364.064,266.39 L364.064,265.662 L358.674,265.662 L358.674,270.562 L359.276,270.814 C359.962,270.184 360.69,269.904 361.544,269.904 C362.888,269.904 363.868,270.772 363.868,272.186 C363.868,273.46 362.888,274.44 361.53,274.44 C360.326,274.44 359.514,273.964 358.912,273.11 L358.38,273.642 C359.024,274.566 359.976,275.168 361.53,275.168 Z M368.642,275 L368.642,265.662 L367.914,265.662 L365.856,267.832 L366.346,268.35 L367.844,266.754 L367.844,275 L368.642,275 Z M376.748,275 L376.748,274.272 L371.834,274.272 C374.536,272.088 376.706,270.212 376.706,268.154 C376.706,266.306 375.138,265.522 373.766,265.522 C372.45,265.522 371.316,266.068 370.658,266.964 L371.204,267.468 C371.708,266.754 372.604,266.25 373.766,266.25 C374.788,266.25 375.894,266.81 375.894,268.154 C375.894,269.96 373.766,271.78 370.588,274.342 L370.588,275 L376.748,275 Z M384.896,275 L384.896,274.272 L379.982,274.272 C382.684,272.088 384.854,270.212 384.854,268.154 C384.854,266.306 383.286,265.522 381.914,265.522 C380.598,265.522 379.464,266.068 378.806,266.964 L379.352,267.468 C379.856,266.754 380.752,266.25 381.914,266.25 C382.936,266.25 384.042,266.81 384.042,268.154 C384.042,269.96 381.914,271.78 378.736,274.342 L378.736,275 L384.896,275 Z" id="SHIPPED-TO"></path>
                <path d="M6.58,217 C7.84,217 8.52,216.23 8.52,215.19 C8.52,214.38 7.95,213.67 7.23,213.56 C7.85,213.43 8.39,212.86 8.39,212.03 C8.39,211.09 7.72,210.33 6.49,210.33 L3.21,210.33 L3.21,217 L6.58,217 Z M6.26,213.08 L4.38,213.08 L4.38,211.36 L6.26,211.36 C6.85,211.36 7.19,211.73 7.19,212.22 C7.19,212.73 6.85,213.08 6.26,213.08 Z M6.31,215.97 L4.38,215.97 L4.38,214.11 L6.31,214.11 C6.97,214.11 7.32,214.54 7.32,215.04 C7.32,215.62 6.94,215.97 6.31,215.97 Z M10.87,217 L10.87,210.33 L9.7,210.33 L9.7,217 L10.87,217 Z M16.32,217 L16.32,215.97 L13.38,215.97 L13.38,210.33 L12.21,210.33 L12.21,217 L16.32,217 Z M21.38,217 L21.38,215.97 L18.44,215.97 L18.44,210.33 L17.27,210.33 L17.27,217 L21.38,217 Z M26.98,217 L26.98,215.97 L23.58,215.97 L23.58,214.11 L26.91,214.11 L26.91,213.08 L23.58,213.08 L23.58,211.36 L26.98,211.36 L26.98,210.33 L22.41,210.33 L22.41,217 L26.98,217 Z M30.67,217 C32.75,217 34.15,215.63 34.15,213.66 C34.15,211.71 32.75,210.33 30.66,210.33 L28.18,210.33 L28.18,217 L30.67,217 Z M30.66,215.97 L29.35,215.97 L29.35,211.36 L30.67,211.36 C32.15,211.36 32.95,212.38 32.95,213.66 C32.95,214.93 32.11,215.97 30.66,215.97 Z M40.62,217 L40.62,211.36 L42.64,211.36 L42.64,210.33 L37.43,210.33 L37.43,211.36 L39.45,211.36 L39.45,217 L40.62,217 Z M46.5,217.12 C48.49,217.12 49.91,215.66 49.91,213.67 C49.91,211.68 48.49,210.22 46.5,210.22 C44.5,210.22 43.09,211.68 43.09,213.67 C43.09,215.66 44.5,217.12 46.5,217.12 Z M46.5,216.08 C45.15,216.08 44.29,215.04 44.29,213.67 C44.29,212.29 45.15,211.26 46.5,211.26 C47.84,211.26 48.71,212.29 48.71,213.67 C48.71,215.04 47.84,216.08 46.5,216.08 Z M5.09,236.168 C6.644,236.168 7.918,235.244 7.918,233.298 L7.918,226.662 L7.12,226.662 L7.12,233.298 C7.12,234.558 6.322,235.44 5.048,235.44 C4.18,235.44 3.606,234.964 3.186,234.404 L2.696,235.02 C3.312,235.818 4.082,236.168 5.09,236.168 Z M13.07,236.168 C15.072,236.168 16.332,234.586 16.332,232.612 C16.332,230.638 15.072,229.07 13.07,229.07 C11.096,229.07 9.836,230.638 9.836,232.612 C9.836,234.586 11.096,236.168 13.07,236.168 Z M13.07,235.51 C11.502,235.51 10.606,234.124 10.606,232.612 C10.606,231.114 11.502,229.728 13.07,229.728 C14.666,229.728 15.548,231.114 15.548,232.612 C15.548,234.124 14.666,235.51 13.07,235.51 Z M23.5,236 L23.5,231.268 C23.5,229.742 22.744,229.07 21.372,229.07 C20.392,229.07 19.426,229.672 18.936,230.26 L18.936,229.238 L18.208,229.238 L18.208,236 L18.936,236 L18.936,230.89 C19.37,230.274 20.266,229.728 21.134,229.728 C22.114,229.728 22.772,230.12 22.772,231.422 L22.772,236 L23.5,236 Z M30.794,236 L30.794,231.24 C30.794,229.728 29.702,229.07 28.33,229.07 C27.21,229.07 26.426,229.448 25.726,230.204 L26.132,230.708 C26.748,230.008 27.406,229.714 28.26,229.714 C29.254,229.714 30.066,230.26 30.066,231.268 L30.066,232.64 C29.478,231.982 28.708,231.674 27.77,231.674 C26.594,231.674 25.404,232.444 25.404,233.914 C25.404,235.37 26.608,236.168 27.77,236.168 C28.708,236.168 29.464,235.86 30.066,235.202 L30.066,236 L30.794,236 Z M28.022,235.594 C26.916,235.594 26.174,234.88 26.174,233.928 C26.174,232.962 26.916,232.248 28.022,232.248 C28.834,232.248 29.59,232.556 30.066,233.186 L30.066,234.67 C29.59,235.286 28.834,235.594 28.022,235.594 Z M34.532,236.168 C35.092,236.168 35.414,236 35.68,235.748 L35.4,235.188 C35.246,235.356 34.966,235.51 34.644,235.51 C34.168,235.51 33.944,235.132 33.944,234.586 L33.944,229.882 L35.316,229.882 L35.316,229.238 L33.944,229.238 L33.944,227.39 L33.202,227.39 L33.202,229.238 L32.082,229.238 L32.082,229.882 L33.202,229.882 L33.202,234.698 C33.202,235.622 33.636,236.168 34.532,236.168 Z M42.204,236 L42.204,231.24 C42.204,229.714 41.448,229.07 40.076,229.07 C39.096,229.07 38.13,229.672 37.64,230.26 L37.64,226.662 L36.912,226.662 L36.912,236 L37.64,236 L37.64,230.89 C38.074,230.274 38.97,229.728 39.838,229.728 C40.818,229.728 41.476,230.092 41.476,231.394 L41.476,236 L42.204,236 Z M49.498,236 L49.498,231.24 C49.498,229.728 48.406,229.07 47.034,229.07 C45.914,229.07 45.13,229.448 44.43,230.204 L44.836,230.708 C45.452,230.008 46.11,229.714 46.964,229.714 C47.958,229.714 48.77,230.26 48.77,231.268 L48.77,232.64 C48.182,231.982 47.412,231.674 46.474,231.674 C45.298,231.674 44.108,232.444 44.108,233.914 C44.108,235.37 45.312,236.168 46.474,236.168 C47.412,236.168 48.168,235.86 48.77,235.202 L48.77,236 L49.498,236 Z M46.726,235.594 C45.62,235.594 44.878,234.88 44.878,233.928 C44.878,232.962 45.62,232.248 46.726,232.248 C47.538,232.248 48.294,232.556 48.77,233.186 L48.77,234.67 C48.294,235.286 47.538,235.594 46.726,235.594 Z M57.058,236 L57.058,231.268 C57.058,229.742 56.302,229.07 54.93,229.07 C53.95,229.07 52.984,229.672 52.494,230.26 L52.494,229.238 L51.766,229.238 L51.766,236 L52.494,236 L52.494,230.89 C52.928,230.274 53.824,229.728 54.692,229.728 C55.672,229.728 56.33,230.12 56.33,231.422 L56.33,236 L57.058,236 Z M63.778,236 L63.778,226.662 L62.98,226.662 L62.98,236 L63.778,236 Z M68.72,236 L71.576,229.238 L70.75,229.238 L68.314,235.146 L65.85,229.238 L65.038,229.238 L67.894,236 L68.72,236 Z M75.804,236.168 C76.924,236.168 77.778,235.776 78.45,235.076 L78.072,234.6 C77.498,235.216 76.714,235.538 75.86,235.538 C74.264,235.538 73.284,234.32 73.214,232.85 L78.87,232.85 L78.87,232.654 C78.87,230.694 77.736,229.07 75.678,229.07 C73.802,229.07 72.43,230.652 72.43,232.612 C72.43,234.698 73.83,236.168 75.804,236.168 Z M78.128,232.276 L73.214,232.276 C73.27,231.1 74.068,229.7 75.664,229.7 C77.358,229.7 78.114,231.128 78.128,232.276 Z M81.712,235.804 C81.712,235.23 81.376,234.908 80.998,234.908 C80.662,234.908 80.396,235.188 80.396,235.51 C80.396,235.846 80.634,236.098 80.97,236.098 C81.012,236.098 81.11,236.084 81.11,236.084 C81.082,236.518 80.746,237.064 80.298,237.372 L80.704,237.708 C81.25,237.33 81.712,236.588 81.712,235.804 Z M5.65,256 L5.65,246.662 L4.922,246.662 L2.864,248.832 L3.354,249.35 L4.852,247.754 L4.852,256 L5.65,256 Z M10.998,256.168 C12.72,256.168 14.148,255.02 14.148,253.158 C14.148,251.212 12.734,250.176 11.166,250.176 C10.2,250.176 9.402,250.596 8.94,251.044 L8.94,247.39 L13.532,247.39 L13.532,246.662 L8.142,246.662 L8.142,251.562 L8.744,251.814 C9.43,251.184 10.158,250.904 11.012,250.904 C12.356,250.904 13.336,251.772 13.336,253.186 C13.336,254.46 12.356,255.44 10.998,255.44 C9.794,255.44 8.982,254.964 8.38,254.11 L7.848,254.642 C8.492,255.566 9.444,256.168 10.998,256.168 Z M18.964,256.168 C20.756,256.168 22.142,255.174 22.142,253.662 C22.142,252.36 21.008,251.506 19.818,251.184 C20.924,250.89 21.988,250.176 21.988,248.93 C21.988,247.278 20.42,246.522 18.964,246.522 C17.494,246.522 15.94,247.278 15.94,248.93 C15.94,250.176 17.004,250.89 18.11,251.184 C16.92,251.506 15.786,252.36 15.786,253.662 C15.786,255.188 17.158,256.168 18.964,256.168 Z M18.964,250.848 C18.404,250.736 16.752,250.316 16.752,249.014 C16.752,247.894 17.746,247.25 18.964,247.25 C20.182,247.25 21.176,247.894 21.176,249.014 C21.176,250.316 19.538,250.736 18.964,250.848 Z M18.964,255.44 C17.718,255.44 16.598,254.74 16.598,253.606 C16.598,252.178 18.39,251.618 18.964,251.548 C19.524,251.618 21.33,252.178 21.33,253.606 C21.33,254.74 20.182,255.44 18.964,255.44 Z M26.958,256.168 C28.75,256.168 30.136,255.174 30.136,253.662 C30.136,252.36 29.002,251.506 27.812,251.184 C28.918,250.89 29.982,250.176 29.982,248.93 C29.982,247.278 28.414,246.522 26.958,246.522 C25.488,246.522 23.934,247.278 23.934,248.93 C23.934,250.176 24.998,250.89 26.104,251.184 C24.914,251.506 23.78,252.36 23.78,253.662 C23.78,255.188 25.152,256.168 26.958,256.168 Z M26.958,250.848 C26.398,250.736 24.746,250.316 24.746,249.014 C24.746,247.894 25.74,247.25 26.958,247.25 C28.176,247.25 29.17,247.894 29.17,249.014 C29.17,250.316 27.532,250.736 26.958,250.848 Z M26.958,255.44 C25.712,255.44 24.592,254.74 24.592,253.606 C24.592,252.178 26.384,251.618 26.958,251.548 C27.518,251.618 29.324,252.178 29.324,253.606 C29.324,254.74 28.176,255.44 26.958,255.44 Z M40.118,256.168 C41.602,256.168 42.694,255.524 43.534,254.502 L42.848,254.082 C42.26,254.894 41.238,255.44 40.118,255.44 C37.934,255.44 36.226,253.746 36.226,251.338 C36.226,248.902 37.934,247.236 40.118,247.236 C41.238,247.236 42.26,247.782 42.848,248.594 L43.52,248.16 C42.736,247.166 41.602,246.508 40.118,246.508 C37.472,246.508 35.386,248.468 35.386,251.338 C35.386,254.208 37.472,256.168 40.118,256.168 Z M45.83,256 L45.83,251.072 C46.138,250.484 47.062,249.868 47.748,249.868 C47.888,249.868 47.986,249.868 48.112,249.896 L48.112,249.098 C47.174,249.098 46.404,249.644 45.83,250.4 L45.83,249.238 L45.102,249.238 L45.102,256 L45.83,256 Z M54.832,256 L54.832,249.238 L54.104,249.238 L54.104,254.39 C53.656,254.992 52.774,255.51 51.906,255.51 C50.926,255.51 50.268,255.146 50.268,253.83 L50.268,249.238 L49.54,249.238 L49.54,253.998 C49.54,255.524 50.296,256.168 51.668,256.168 C52.648,256.168 53.558,255.622 54.104,255.006 L54.104,256 L54.832,256 Z M59.998,256.168 C61.174,256.168 61.846,255.706 62.392,255.006 L61.888,254.558 C61.398,255.23 60.782,255.51 60.04,255.51 C58.458,255.51 57.492,254.236 57.492,252.612 C57.492,250.988 58.458,249.728 60.04,249.728 C60.782,249.728 61.398,249.994 61.888,250.666 L62.392,250.218 C61.846,249.532 61.174,249.07 59.998,249.07 C58.01,249.07 56.722,250.638 56.722,252.612 C56.722,254.586 58.01,256.168 59.998,256.168 Z M67.012,256.168 C68.132,256.168 68.986,255.776 69.658,255.076 L69.28,254.6 C68.706,255.216 67.922,255.538 67.068,255.538 C65.472,255.538 64.492,254.32 64.422,252.85 L70.078,252.85 L70.078,252.654 C70.078,250.694 68.944,249.07 66.886,249.07 C65.01,249.07 63.638,250.652 63.638,252.612 C63.638,254.698 65.038,256.168 67.012,256.168 Z M69.336,252.276 L64.422,252.276 C64.478,251.1 65.276,249.7 66.872,249.7 C68.566,249.7 69.322,251.128 69.336,252.276 Z M72.682,256 L72.682,251.072 C72.99,250.484 73.914,249.868 74.6,249.868 C74.74,249.868 74.838,249.868 74.964,249.896 L74.964,249.098 C74.026,249.098 73.256,249.644 72.682,250.4 L72.682,249.238 L71.954,249.238 L71.954,256 L72.682,256 Z M79.248,256.168 C81.25,256.168 82.51,254.586 82.51,252.612 C82.51,250.638 81.25,249.07 79.248,249.07 C77.274,249.07 76.014,250.638 76.014,252.612 C76.014,254.586 77.274,256.168 79.248,256.168 Z M79.248,255.51 C77.68,255.51 76.784,254.124 76.784,252.612 C76.784,251.114 77.68,249.728 79.248,249.728 C80.844,249.728 81.726,251.114 81.726,252.612 C81.726,254.124 80.844,255.51 79.248,255.51 Z M95.726,256 L91.904,246.662 L90.91,246.662 L87.088,256 L88.012,256 L88.936,253.704 L93.878,253.704 L94.802,256 L95.726,256 Z M93.612,252.976 L89.202,252.976 L91.414,247.516 L93.612,252.976 Z M99.436,256 L102.292,249.238 L101.466,249.238 L99.03,255.146 L96.566,249.238 L95.754,249.238 L98.61,256 L99.436,256 Z M106.52,256.168 C107.64,256.168 108.494,255.776 109.166,255.076 L108.788,254.6 C108.214,255.216 107.43,255.538 106.576,255.538 C104.98,255.538 104,254.32 103.93,252.85 L109.586,252.85 L109.586,252.654 C109.586,250.694 108.452,249.07 106.394,249.07 C104.518,249.07 103.146,250.652 103.146,252.612 C103.146,254.698 104.546,256.168 106.52,256.168 Z M108.844,252.276 L103.93,252.276 C103.986,251.1 104.784,249.7 106.38,249.7 C108.074,249.7 108.83,251.128 108.844,252.276 Z M116.754,256 L116.754,251.268 C116.754,249.742 115.998,249.07 114.626,249.07 C113.646,249.07 112.68,249.672 112.19,250.26 L112.19,249.238 L111.462,249.238 L111.462,256 L112.19,256 L112.19,250.89 C112.624,250.274 113.52,249.728 114.388,249.728 C115.368,249.728 116.026,250.12 116.026,251.422 L116.026,256 L116.754,256 Z M124.314,256 L124.314,249.238 L123.586,249.238 L123.586,254.39 C123.138,254.992 122.256,255.51 121.388,255.51 C120.408,255.51 119.75,255.146 119.75,253.83 L119.75,249.238 L119.022,249.238 L119.022,253.998 C119.022,255.524 119.778,256.168 121.15,256.168 C122.13,256.168 123.04,255.622 123.586,255.006 L123.586,256 L124.314,256 Z M129.578,256.168 C130.698,256.168 131.552,255.776 132.224,255.076 L131.846,254.6 C131.272,255.216 130.488,255.538 129.634,255.538 C128.038,255.538 127.058,254.32 126.988,252.85 L132.644,252.85 L132.644,252.654 C132.644,250.694 131.51,249.07 129.452,249.07 C127.576,249.07 126.204,250.652 126.204,252.612 C126.204,254.698 127.604,256.168 129.578,256.168 Z M131.902,252.276 L126.988,252.276 C127.044,251.1 127.842,249.7 129.438,249.7 C131.132,249.7 131.888,251.128 131.902,252.276 Z M135.486,255.804 C135.486,255.23 135.15,254.908 134.772,254.908 C134.436,254.908 134.17,255.188 134.17,255.51 C134.17,255.846 134.408,256.098 134.744,256.098 C134.786,256.098 134.884,256.084 134.884,256.084 C134.856,256.518 134.52,257.064 134.072,257.372 L134.478,257.708 C135.024,257.33 135.486,256.588 135.486,255.804 Z M6.56,276.168 C9.08,276.168 9.878,274.726 9.878,273.522 C9.878,270.036 4.278,271.352 4.278,268.958 C4.278,267.95 5.216,267.236 6.462,267.236 C7.512,267.236 8.464,267.6 9.136,268.412 L9.668,267.824 C8.954,266.998 7.89,266.508 6.504,266.508 C4.81,266.508 3.438,267.474 3.438,269 C3.438,272.262 9.038,270.834 9.038,273.578 C9.038,274.376 8.492,275.44 6.588,275.44 C5.244,275.44 4.264,274.768 3.662,274.082 L3.144,274.684 C3.858,275.538 5.02,276.168 6.56,276.168 Z M16.794,276 L16.794,271.24 C16.794,269.728 15.702,269.07 14.33,269.07 C13.21,269.07 12.426,269.448 11.726,270.204 L12.132,270.708 C12.748,270.008 13.406,269.714 14.26,269.714 C15.254,269.714 16.066,270.26 16.066,271.268 L16.066,272.64 C15.478,271.982 14.708,271.674 13.77,271.674 C12.594,271.674 11.404,272.444 11.404,273.914 C11.404,275.37 12.608,276.168 13.77,276.168 C14.708,276.168 15.464,275.86 16.066,275.202 L16.066,276 L16.794,276 Z M14.022,275.594 C12.916,275.594 12.174,274.88 12.174,273.928 C12.174,272.962 12.916,272.248 14.022,272.248 C14.834,272.248 15.59,272.556 16.066,273.186 L16.066,274.67 C15.59,275.286 14.834,275.594 14.022,275.594 Z M24.354,276 L24.354,271.268 C24.354,269.742 23.598,269.07 22.226,269.07 C21.246,269.07 20.28,269.672 19.79,270.26 L19.79,269.238 L19.062,269.238 L19.062,276 L19.79,276 L19.79,270.89 C20.224,270.274 21.12,269.728 21.988,269.728 C22.968,269.728 23.626,270.12 23.626,271.422 L23.626,276 L24.354,276 Z M31.704,276.168 C33.258,276.168 34.532,275.244 34.532,273.298 L34.532,266.662 L33.734,266.662 L33.734,273.298 C33.734,274.558 32.936,275.44 31.662,275.44 C30.794,275.44 30.22,274.964 29.8,274.404 L29.31,275.02 C29.926,275.818 30.696,276.168 31.704,276.168 Z M39.684,276.168 C41.686,276.168 42.946,274.586 42.946,272.612 C42.946,270.638 41.686,269.07 39.684,269.07 C37.71,269.07 36.45,270.638 36.45,272.612 C36.45,274.586 37.71,276.168 39.684,276.168 Z M39.684,275.51 C38.116,275.51 37.22,274.124 37.22,272.612 C37.22,271.114 38.116,269.728 39.684,269.728 C41.28,269.728 42.162,271.114 42.162,272.612 C42.162,274.124 41.28,275.51 39.684,275.51 Z M46.838,276.168 C48.532,276.168 49.372,275.272 49.372,274.18 C49.372,271.576 45.116,272.612 45.116,270.918 C45.116,270.218 45.746,269.686 46.796,269.686 C47.692,269.686 48.42,270.05 48.812,270.582 L49.218,270.064 C48.728,269.518 47.958,269.07 46.796,269.07 C45.27,269.07 44.388,269.91 44.388,270.946 C44.388,273.382 48.658,272.332 48.658,274.18 C48.658,274.964 47.986,275.552 46.852,275.552 C45.9,275.552 45.102,275.104 44.668,274.558 L44.234,275.09 C44.906,275.846 45.746,276.168 46.838,276.168 Z M54.244,276.168 C55.364,276.168 56.218,275.776 56.89,275.076 L56.512,274.6 C55.938,275.216 55.154,275.538 54.3,275.538 C52.704,275.538 51.724,274.32 51.654,272.85 L57.31,272.85 L57.31,272.654 C57.31,270.694 56.176,269.07 54.118,269.07 C52.242,269.07 50.87,270.652 50.87,272.612 C50.87,274.698 52.27,276.168 54.244,276.168 Z M56.568,272.276 L51.654,272.276 C51.71,271.1 52.508,269.7 54.104,269.7 C55.798,269.7 56.554,271.128 56.568,272.276 Z M60.152,275.804 C60.152,275.23 59.816,274.908 59.438,274.908 C59.102,274.908 58.836,275.188 58.836,275.51 C58.836,275.846 59.074,276.098 59.41,276.098 C59.452,276.098 59.55,276.084 59.55,276.084 C59.522,276.518 59.186,277.064 58.738,277.372 L59.144,277.708 C59.69,277.33 60.152,276.588 60.152,275.804 Z M70.162,276.168 C71.646,276.168 72.738,275.524 73.578,274.502 L72.892,274.082 C72.304,274.894 71.282,275.44 70.162,275.44 C67.978,275.44 66.27,273.746 66.27,271.338 C66.27,268.902 67.978,267.236 70.162,267.236 C71.282,267.236 72.304,267.782 72.892,268.594 L73.564,268.16 C72.78,267.166 71.646,266.508 70.162,266.508 C67.516,266.508 65.43,268.468 65.43,271.338 C65.43,274.208 67.516,276.168 70.162,276.168 Z M82.832,276 L79.01,266.662 L78.016,266.662 L74.194,276 L75.118,276 L76.042,273.704 L80.984,273.704 L81.908,276 L82.832,276 Z M80.718,272.976 L76.308,272.976 L78.52,267.516 L80.718,272.976 Z M90.462,276.154 C93.038,276.154 94.032,273.732 94.032,271.338 C94.032,268.832 93.122,266.508 90.602,266.508 C88.614,266.508 87.466,267.964 87.466,269.49 C87.466,271.478 88.796,272.444 90.476,272.444 C91.75,272.444 92.828,271.534 93.22,270.89 L93.22,271.324 C93.22,273.284 92.52,275.426 90.462,275.426 C89.44,275.426 88.88,274.992 88.418,274.39 L87.942,274.964 C88.502,275.664 89.244,276.154 90.462,276.154 Z M90.616,271.73 C89.286,271.73 88.278,271.002 88.278,269.476 C88.278,268.468 89.034,267.236 90.63,267.236 C92.394,267.236 93.052,268.86 93.164,270.134 C92.632,271.072 91.638,271.73 90.616,271.73 Z M99.03,276.168 C100.752,276.168 102.18,275.02 102.18,273.158 C102.18,271.212 100.766,270.176 99.198,270.176 C98.232,270.176 97.434,270.596 96.972,271.044 L96.972,267.39 L101.564,267.39 L101.564,266.662 L96.174,266.662 L96.174,271.562 L96.776,271.814 C97.462,271.184 98.19,270.904 99.044,270.904 C100.388,270.904 101.368,271.772 101.368,273.186 C101.368,274.46 100.388,275.44 99.03,275.44 C97.826,275.44 97.014,274.964 96.412,274.11 L95.88,274.642 C96.524,275.566 97.476,276.168 99.03,276.168 Z M106.142,276 L106.142,266.662 L105.414,266.662 L103.356,268.832 L103.846,269.35 L105.344,267.754 L105.344,276 L106.142,276 Z M114.248,276 L114.248,275.272 L109.334,275.272 C112.036,273.088 114.206,271.212 114.206,269.154 C114.206,267.306 112.638,266.522 111.266,266.522 C109.95,266.522 108.816,267.068 108.158,267.964 L108.704,268.468 C109.208,267.754 110.104,267.25 111.266,267.25 C112.288,267.25 113.394,267.81 113.394,269.154 C113.394,270.96 111.266,272.78 108.088,275.342 L108.088,276 L114.248,276 Z M122.396,276 L122.396,275.272 L117.482,275.272 C120.184,273.088 122.354,271.212 122.354,269.154 C122.354,267.306 120.786,266.522 119.414,266.522 C118.098,266.522 116.964,267.068 116.306,267.964 L116.852,268.468 C117.356,267.754 118.252,267.25 119.414,267.25 C120.436,267.25 121.542,267.81 121.542,269.154 C121.542,270.96 119.414,272.78 116.236,275.342 L116.236,276 L122.396,276 Z" id="BILLED-TO"></path>
            </g>
        </g>
    </g>
</svg>