<?xml version="1.0" encoding="UTF-8" standalone="no"?>
<svg width="280px" height="190px" viewBox="0 0 280 190" version="1.1" xmlns="http://www.w3.org/2000/svg" xmlns:xlink="http://www.w3.org/1999/xlink">
    <!-- Generator: Sketch 41.2 (35397) - http://www.bohemiancoding.com/sketch -->
    <title>new-03</title>
    <desc>Created with Sketch.</desc>
    <defs></defs>
    <g id="Page-1" stroke="none" stroke-width="1" fill="none" fill-rule="evenodd">
        <g id="reference-invoice-new" transform="translate(-587.000000, -525.000000)">
            <g id="Group-3" transform="translate(10.000000, 65.000000)"></g>
            <path d="M673.776,542 L673.776,533.39 L676.828,533.39 L676.828,532.662 L669.912,532.662 L669.912,533.39 L672.964,533.39 L672.964,542 L673.776,542 Z M679.586,542.168 C681.588,542.168 682.848,540.586 682.848,538.612 C682.848,536.638 681.588,535.07 679.586,535.07 C677.612,535.07 676.352,536.638 676.352,538.612 C676.352,540.586 677.612,542.168 679.586,542.168 Z M679.586,541.51 C678.018,541.51 677.122,540.124 677.122,538.612 C677.122,537.114 678.018,535.728 679.586,535.728 C681.182,535.728 682.064,537.114 682.064,538.612 C682.064,540.124 681.182,541.51 679.586,541.51 Z M686.194,542.168 C686.754,542.168 687.076,542 687.342,541.748 L687.062,541.188 C686.908,541.356 686.628,541.51 686.306,541.51 C685.83,541.51 685.606,541.132 685.606,540.586 L685.606,535.882 L686.978,535.882 L686.978,535.238 L685.606,535.238 L685.606,533.39 L684.864,533.39 L684.864,535.238 L683.744,535.238 L683.744,535.882 L684.864,535.882 L684.864,540.698 C684.864,541.622 685.298,542.168 686.194,542.168 Z M693.6,542 L693.6,537.24 C693.6,535.728 692.508,535.07 691.136,535.07 C690.016,535.07 689.232,535.448 688.532,536.204 L688.938,536.708 C689.554,536.008 690.212,535.714 691.066,535.714 C692.06,535.714 692.872,536.26 692.872,537.268 L692.872,538.64 C692.284,537.982 691.514,537.674 690.576,537.674 C689.4,537.674 688.21,538.444 688.21,539.914 C688.21,541.37 689.414,542.168 690.576,542.168 C691.514,542.168 692.27,541.86 692.872,541.202 L692.872,542 L693.6,542 Z M690.828,541.594 C689.722,541.594 688.98,540.88 688.98,539.928 C688.98,538.962 689.722,538.248 690.828,538.248 C691.64,538.248 692.396,538.556 692.872,539.186 L692.872,540.67 C692.396,541.286 691.64,541.594 690.828,541.594 Z M696.596,542 L696.596,532.662 L695.868,532.662 L695.868,542 L696.596,542 Z M705.486,542.168 C706.606,542.168 707.46,541.776 708.132,541.076 L707.754,540.6 C707.18,541.216 706.396,541.538 705.542,541.538 C703.946,541.538 702.966,540.32 702.896,538.85 L708.552,538.85 L708.552,538.654 C708.552,536.694 707.418,535.07 705.36,535.07 C703.484,535.07 702.112,536.652 702.112,538.612 C702.112,540.698 703.512,542.168 705.486,542.168 Z M707.81,538.276 L702.896,538.276 C702.952,537.1 703.75,535.7 705.346,535.7 C707.04,535.7 707.796,537.128 707.81,538.276 Z M715.762,542 L713.088,538.528 L715.608,535.238 L714.74,535.238 L712.654,538.024 L710.554,535.238 L709.686,535.238 L712.206,538.528 L709.532,542 L710.4,542 L712.654,539.018 L714.894,542 L715.762,542 Z M719.486,542.168 C720.662,542.168 721.334,541.706 721.88,541.006 L721.376,540.558 C720.886,541.23 720.27,541.51 719.528,541.51 C717.946,541.51 716.98,540.236 716.98,538.612 C716.98,536.988 717.946,535.728 719.528,535.728 C720.27,535.728 720.886,535.994 721.376,536.666 L721.88,536.218 C721.334,535.532 720.662,535.07 719.486,535.07 C717.498,535.07 716.21,536.638 716.21,538.612 C716.21,540.586 717.498,542.168 719.486,542.168 Z M724.232,542 L724.232,532.662 L723.504,532.662 L723.504,542 L724.232,542 Z M726.906,542.126 C727.242,542.126 727.522,541.846 727.522,541.51 C727.522,541.188 727.242,540.908 726.906,540.908 C726.57,540.908 726.276,541.188 726.276,541.51 C726.276,541.846 726.57,542.126 726.906,542.126 Z M737.602,542.182 C739.072,542.182 740.318,541.552 741.144,540.628 L741.144,537.366 L736.818,537.366 L736.818,538.08 L740.346,538.08 L740.346,540.32 C739.842,540.838 738.848,541.454 737.602,541.454 C735.418,541.454 733.71,539.746 733.71,537.338 C733.71,534.902 735.418,533.236 737.602,533.236 C738.792,533.236 739.856,533.754 740.514,534.538 L741.116,534.104 C740.262,533.124 739.142,532.508 737.602,532.508 C734.97,532.508 732.87,534.454 732.87,537.338 C732.87,540.222 734.97,542.182 737.602,542.182 Z M746.072,542.168 C748.592,542.168 749.39,540.726 749.39,539.522 C749.39,536.036 743.79,537.352 743.79,534.958 C743.79,533.95 744.728,533.236 745.974,533.236 C747.024,533.236 747.976,533.6 748.648,534.412 L749.18,533.824 C748.466,532.998 747.402,532.508 746.016,532.508 C744.322,532.508 742.95,533.474 742.95,535 C742.95,538.262 748.55,536.834 748.55,539.578 C748.55,540.376 748.004,541.44 746.1,541.44 C744.756,541.44 743.776,540.768 743.174,540.082 L742.656,540.684 C743.37,541.538 744.532,542.168 746.072,542.168 Z M754.458,542 L754.458,533.39 L757.51,533.39 L757.51,532.662 L750.594,532.662 L750.594,533.39 L753.646,533.39 L753.646,542 L754.458,542 Z" id="Total-excl.-GST" fill="#2F2F2F"></path>
            <path d="M809.268,543.4 L809.912,543.4 L809.912,542.154 C812.124,542.014 812.852,540.67 812.852,539.522 C812.852,537.73 811.354,537.198 809.912,536.792 L809.912,533.264 C810.766,533.362 811.536,533.726 812.11,534.412 L812.642,533.824 C811.998,533.096 811.088,532.62 809.912,532.522 L809.912,531.248 L809.268,531.248 L809.268,532.522 C807.672,532.592 806.412,533.544 806.412,535 C806.412,536.652 807.84,537.1 809.268,537.506 L809.268,541.426 C808.078,541.342 807.196,540.726 806.636,540.082 L806.118,540.684 C806.79,541.496 807.854,542.084 809.268,542.154 L809.268,543.4 Z M812.012,539.578 C812.012,540.334 811.522,541.3 809.912,541.426 L809.912,537.688 C811.046,538.024 812.012,538.444 812.012,539.578 Z M807.252,534.958 C807.252,534.006 808.106,533.306 809.268,533.25 L809.268,536.61 C808.176,536.302 807.252,535.938 807.252,534.958 Z M817.864,542.168 C819.866,542.168 821,540.712 821,539.186 C821,537.198 819.67,536.232 817.99,536.232 C816.73,536.232 815.652,537.142 815.26,537.786 C815.246,537.646 815.246,537.492 815.246,537.352 C815.246,535.364 815.988,533.25 818.004,533.25 C819.026,533.25 819.6,533.684 820.062,534.286 L820.524,533.712 C819.964,533.012 819.222,532.522 818.004,532.522 C815.442,532.522 814.434,534.944 814.434,537.338 C814.434,539.844 815.344,542.168 817.864,542.168 Z M817.836,541.44 C816.086,541.44 815.414,539.816 815.302,538.542 C815.834,537.604 816.828,536.946 817.85,536.946 C819.194,536.946 820.188,537.674 820.188,539.2 C820.188,540.208 819.432,541.44 817.836,541.44 Z M825.424,542.168 C827.412,542.168 828.574,541.034 828.574,539.494 C828.574,537.954 827.244,537.254 826.432,537.17 C827.23,537.03 828.434,536.414 828.434,534.986 C828.434,533.404 827.048,532.522 825.424,532.522 C824.066,532.522 823.03,533.138 822.372,533.936 L822.876,534.44 C823.562,533.67 824.318,533.25 825.382,533.25 C826.586,533.25 827.622,533.894 827.622,535.056 C827.622,536.302 826.502,536.834 825.256,536.834 C824.878,536.834 824.528,536.834 824.388,536.82 L824.388,537.576 C824.528,537.562 824.878,537.548 825.256,537.548 C826.656,537.548 827.762,538.108 827.762,539.452 C827.762,540.684 826.852,541.44 825.41,541.44 C824.22,541.44 823.31,540.88 822.792,540.138 L822.246,540.614 C822.792,541.454 823.898,542.168 825.424,542.168 Z M830.954,542.126 C831.29,542.126 831.57,541.846 831.57,541.51 C831.57,541.188 831.29,540.908 830.954,540.908 C830.618,540.908 830.324,541.188 830.324,541.51 C830.324,541.846 830.618,542.126 830.954,542.126 Z M836.246,542.168 C838.738,542.168 839.69,539.55 839.69,537.338 C839.69,535.112 838.738,532.522 836.246,532.522 C833.726,532.522 832.788,535.112 832.788,537.338 C832.788,539.55 833.726,542.168 836.246,542.168 Z M836.246,541.44 C834.272,541.44 833.628,539.256 833.628,537.338 C833.628,535.406 834.272,533.25 836.246,533.25 C838.206,533.25 838.836,535.406 838.836,537.338 C838.836,539.256 838.192,541.44 836.246,541.44 Z M844.758,542.168 C847.25,542.168 848.202,539.55 848.202,537.338 C848.202,535.112 847.25,532.522 844.758,532.522 C842.238,532.522 841.3,535.112 841.3,537.338 C841.3,539.55 842.238,542.168 844.758,542.168 Z M844.758,541.44 C842.784,541.44 842.14,539.256 842.14,537.338 C842.14,535.406 842.784,533.25 844.758,533.25 C846.718,533.25 847.348,535.406 847.348,537.338 C847.348,539.256 846.704,541.44 844.758,541.44 Z" id="$63.00" fill="#2F2F2F"></path>
            <path d="M737.602,573.182 C739.072,573.182 740.318,572.552 741.144,571.628 L741.144,568.366 L736.818,568.366 L736.818,569.08 L740.346,569.08 L740.346,571.32 C739.842,571.838 738.848,572.454 737.602,572.454 C735.418,572.454 733.71,570.746 733.71,568.338 C733.71,565.902 735.418,564.236 737.602,564.236 C738.792,564.236 739.856,564.754 740.514,565.538 L741.116,565.104 C740.262,564.124 739.142,563.508 737.602,563.508 C734.97,563.508 732.87,565.454 732.87,568.338 C732.87,571.222 734.97,573.182 737.602,573.182 Z M746.072,573.168 C748.592,573.168 749.39,571.726 749.39,570.522 C749.39,567.036 743.79,568.352 743.79,565.958 C743.79,564.95 744.728,564.236 745.974,564.236 C747.024,564.236 747.976,564.6 748.648,565.412 L749.18,564.824 C748.466,563.998 747.402,563.508 746.016,563.508 C744.322,563.508 742.95,564.474 742.95,566 C742.95,569.262 748.55,567.834 748.55,570.578 C748.55,571.376 748.004,572.44 746.1,572.44 C744.756,572.44 743.776,571.768 743.174,571.082 L742.656,571.684 C743.37,572.538 744.532,573.168 746.072,573.168 Z M754.458,573 L754.458,564.39 L757.51,564.39 L757.51,563.662 L750.594,563.662 L750.594,564.39 L753.646,564.39 L753.646,573 L754.458,573 Z" id="GST" fill="#2F2F2F"></path>
            <path d="M817.85,574.4 L818.494,574.4 L818.494,573.154 C820.706,573.014 821.434,571.67 821.434,570.522 C821.434,568.73 819.936,568.198 818.494,567.792 L818.494,564.264 C819.348,564.362 820.118,564.726 820.692,565.412 L821.224,564.824 C820.58,564.096 819.67,563.62 818.494,563.522 L818.494,562.248 L817.85,562.248 L817.85,563.522 C816.254,563.592 814.994,564.544 814.994,566 C814.994,567.652 816.422,568.1 817.85,568.506 L817.85,572.426 C816.66,572.342 815.778,571.726 815.218,571.082 L814.7,571.684 C815.372,572.496 816.436,573.084 817.85,573.154 L817.85,574.4 Z M820.594,570.578 C820.594,571.334 820.104,572.3 818.494,572.426 L818.494,568.688 C819.628,569.024 820.594,569.444 820.594,570.578 Z M815.834,565.958 C815.834,565.006 816.688,564.306 817.85,564.25 L817.85,567.61 C816.758,567.302 815.834,566.938 815.834,565.958 Z M826.39,573.168 C828.112,573.168 829.54,572.02 829.54,570.158 C829.54,568.212 828.126,567.176 826.558,567.176 C825.592,567.176 824.794,567.596 824.332,568.044 L824.332,564.39 L828.924,564.39 L828.924,563.662 L823.534,563.662 L823.534,568.562 L824.136,568.814 C824.822,568.184 825.55,567.904 826.404,567.904 C827.748,567.904 828.728,568.772 828.728,570.186 C828.728,571.46 827.748,572.44 826.39,572.44 C825.186,572.44 824.374,571.964 823.772,571.11 L823.24,571.642 C823.884,572.566 824.836,573.168 826.39,573.168 Z M831.892,573.126 C832.228,573.126 832.508,572.846 832.508,572.51 C832.508,572.188 832.228,571.908 831.892,571.908 C831.556,571.908 831.262,572.188 831.262,572.51 C831.262,572.846 831.556,573.126 831.892,573.126 Z M837.184,573.168 C839.676,573.168 840.628,570.55 840.628,568.338 C840.628,566.112 839.676,563.522 837.184,563.522 C834.664,563.522 833.726,566.112 833.726,568.338 C833.726,570.55 834.664,573.168 837.184,573.168 Z M837.184,572.44 C835.21,572.44 834.566,570.256 834.566,568.338 C834.566,566.406 835.21,564.25 837.184,564.25 C839.144,564.25 839.774,566.406 839.774,568.338 C839.774,570.256 839.13,572.44 837.184,572.44 Z M847.138,573 L847.138,570.452 L848.51,570.452 L848.51,569.724 L847.138,569.724 L847.138,563.662 L846.06,563.662 L841.916,569.738 L841.916,570.452 L846.34,570.452 L846.34,573 L847.138,573 Z M846.34,569.724 L842.742,569.724 L846.34,564.46 L846.34,569.724 Z" id="$5.04" fill="#2F2F2F"></path>
            <path d="M701.398,643 L701.398,639.122 L704.1,639.122 C705.878,639.122 706.914,637.862 706.914,636.392 C706.914,634.922 705.892,633.662 704.1,633.662 L700.6,633.662 L700.6,643 L701.398,643 Z M704.016,638.394 L701.398,638.394 L701.398,634.39 L704.016,634.39 C705.262,634.39 706.074,635.216 706.074,636.392 C706.074,637.554 705.262,638.394 704.016,638.394 Z M713.312,643 L713.312,638.24 C713.312,636.728 712.22,636.07 710.848,636.07 C709.728,636.07 708.944,636.448 708.244,637.204 L708.65,637.708 C709.266,637.008 709.924,636.714 710.778,636.714 C711.772,636.714 712.584,637.26 712.584,638.268 L712.584,639.64 C711.996,638.982 711.226,638.674 710.288,638.674 C709.112,638.674 707.922,639.444 707.922,640.914 C707.922,642.37 709.126,643.168 710.288,643.168 C711.226,643.168 711.982,642.86 712.584,642.202 L712.584,643 L713.312,643 Z M710.54,642.594 C709.434,642.594 708.692,641.88 708.692,640.928 C708.692,639.962 709.434,639.248 710.54,639.248 C711.352,639.248 712.108,639.556 712.584,640.186 L712.584,641.67 C712.108,642.286 711.352,642.594 710.54,642.594 Z M715.132,645.646 C715.314,645.702 715.622,645.744 715.86,645.744 C716.644,645.744 717.218,645.338 717.582,644.484 L721.082,636.238 L720.256,636.238 L717.82,642.146 L715.356,636.238 L714.544,636.238 L717.414,643.056 L716.882,644.26 C716.602,644.904 716.294,645.086 715.846,645.086 C715.678,645.086 715.412,645.044 715.258,644.974 L715.132,645.646 Z M731.092,643 L731.092,638.128 C731.092,636.77 730.49,636.07 729.244,636.07 C728.292,636.07 727.382,636.714 727.004,637.344 C726.836,636.686 726.276,636.07 725.226,636.07 C724.246,636.07 723.322,636.826 723.042,637.26 L723.042,636.238 L722.314,636.238 L722.314,643 L723.042,643 L723.042,637.89 C723.448,637.274 724.26,636.728 724.988,636.728 C725.94,636.728 726.332,637.316 726.332,638.268 L726.332,643 L727.074,643 L727.074,637.876 C727.452,637.26 728.278,636.728 729.006,636.728 C729.958,636.728 730.364,637.316 730.364,638.268 L730.364,643 L731.092,643 Z M736.356,643.168 C737.476,643.168 738.33,642.776 739.002,642.076 L738.624,641.6 C738.05,642.216 737.266,642.538 736.412,642.538 C734.816,642.538 733.836,641.32 733.766,639.85 L739.422,639.85 L739.422,639.654 C739.422,637.694 738.288,636.07 736.23,636.07 C734.354,636.07 732.982,637.652 732.982,639.612 C732.982,641.698 734.382,643.168 736.356,643.168 Z M738.68,639.276 L733.766,639.276 C733.822,638.1 734.62,636.7 736.216,636.7 C737.91,636.7 738.666,638.128 738.68,639.276 Z M746.59,643 L746.59,638.268 C746.59,636.742 745.834,636.07 744.462,636.07 C743.482,636.07 742.516,636.672 742.026,637.26 L742.026,636.238 L741.298,636.238 L741.298,643 L742.026,643 L742.026,637.89 C742.46,637.274 743.356,636.728 744.224,636.728 C745.204,636.728 745.862,637.12 745.862,638.422 L745.862,643 L746.59,643 Z M750.328,643.168 C750.888,643.168 751.21,643 751.476,642.748 L751.196,642.188 C751.042,642.356 750.762,642.51 750.44,642.51 C749.964,642.51 749.74,642.132 749.74,641.586 L749.74,636.882 L751.112,636.882 L751.112,636.238 L749.74,636.238 L749.74,634.39 L748.998,634.39 L748.998,636.238 L747.878,636.238 L747.878,636.882 L748.998,636.882 L748.998,641.698 C748.998,642.622 749.432,643.168 750.328,643.168 Z M754.724,643.168 C756.418,643.168 757.258,642.272 757.258,641.18 C757.258,638.576 753.002,639.612 753.002,637.918 C753.002,637.218 753.632,636.686 754.682,636.686 C755.578,636.686 756.306,637.05 756.698,637.582 L757.104,637.064 C756.614,636.518 755.844,636.07 754.682,636.07 C753.156,636.07 752.274,636.91 752.274,637.946 C752.274,640.382 756.544,639.332 756.544,641.18 C756.544,641.964 755.872,642.552 754.738,642.552 C753.786,642.552 752.988,642.104 752.554,641.558 L752.12,642.09 C752.792,642.846 753.632,643.168 754.724,643.168 Z" id="Payments" fill="#2F2F2F"></path>
            <path d="M802.59,645.45 C801.708,643.672 801.106,642.02 801.106,639.598 C801.106,637.162 801.708,635.524 802.59,633.718 L802.156,633.41 C800.952,635.23 800.28,637.344 800.28,639.598 C800.28,641.852 800.952,643.966 802.156,645.786 L802.59,645.45 Z M806.65,644.4 L807.294,644.4 L807.294,643.154 C809.506,643.014 810.234,641.67 810.234,640.522 C810.234,638.73 808.736,638.198 807.294,637.792 L807.294,634.264 C808.148,634.362 808.918,634.726 809.492,635.412 L810.024,634.824 C809.38,634.096 808.47,633.62 807.294,633.522 L807.294,632.248 L806.65,632.248 L806.65,633.522 C805.054,633.592 803.794,634.544 803.794,636 C803.794,637.652 805.222,638.1 806.65,638.506 L806.65,642.426 C805.46,642.342 804.578,641.726 804.018,641.082 L803.5,641.684 C804.172,642.496 805.236,643.084 806.65,643.154 L806.65,644.4 Z M809.394,640.578 C809.394,641.334 808.904,642.3 807.294,642.426 L807.294,638.688 C808.428,639.024 809.394,639.444 809.394,640.578 Z M804.634,635.958 C804.634,635.006 805.488,634.306 806.65,634.25 L806.65,637.61 C805.558,637.302 804.634,636.938 804.634,635.958 Z M815.246,643.168 C817.248,643.168 818.382,641.712 818.382,640.186 C818.382,638.198 817.052,637.232 815.372,637.232 C814.112,637.232 813.034,638.142 812.642,638.786 C812.628,638.646 812.628,638.492 812.628,638.352 C812.628,636.364 813.37,634.25 815.386,634.25 C816.408,634.25 816.982,634.684 817.444,635.286 L817.906,634.712 C817.346,634.012 816.604,633.522 815.386,633.522 C812.824,633.522 811.816,635.944 811.816,638.338 C811.816,640.844 812.726,643.168 815.246,643.168 Z M815.218,642.44 C813.468,642.44 812.796,640.816 812.684,639.542 C813.216,638.604 814.21,637.946 815.232,637.946 C816.576,637.946 817.57,638.674 817.57,640.2 C817.57,641.208 816.814,642.44 815.218,642.44 Z M823.184,643.168 C824.976,643.168 826.362,642.174 826.362,640.662 C826.362,639.36 825.228,638.506 824.038,638.184 C825.144,637.89 826.208,637.176 826.208,635.93 C826.208,634.278 824.64,633.522 823.184,633.522 C821.714,633.522 820.16,634.278 820.16,635.93 C820.16,637.176 821.224,637.89 822.33,638.184 C821.14,638.506 820.006,639.36 820.006,640.662 C820.006,642.188 821.378,643.168 823.184,643.168 Z M823.184,637.848 C822.624,637.736 820.972,637.316 820.972,636.014 C820.972,634.894 821.966,634.25 823.184,634.25 C824.402,634.25 825.396,634.894 825.396,636.014 C825.396,637.316 823.758,637.736 823.184,637.848 Z M823.184,642.44 C821.938,642.44 820.818,641.74 820.818,640.606 C820.818,639.178 822.61,638.618 823.184,638.548 C823.744,638.618 825.55,639.178 825.55,640.606 C825.55,641.74 824.402,642.44 823.184,642.44 Z M828.714,643.126 C829.05,643.126 829.33,642.846 829.33,642.51 C829.33,642.188 829.05,641.908 828.714,641.908 C828.378,641.908 828.084,642.188 828.084,642.51 C828.084,642.846 828.378,643.126 828.714,643.126 Z M834.006,643.168 C836.498,643.168 837.45,640.55 837.45,638.338 C837.45,636.112 836.498,633.522 834.006,633.522 C831.486,633.522 830.548,636.112 830.548,638.338 C830.548,640.55 831.486,643.168 834.006,643.168 Z M834.006,642.44 C832.032,642.44 831.388,640.256 831.388,638.338 C831.388,636.406 832.032,634.25 834.006,634.25 C835.966,634.25 836.596,636.406 836.596,638.338 C836.596,640.256 835.952,642.44 834.006,642.44 Z M843.96,643 L843.96,640.452 L845.332,640.452 L845.332,639.724 L843.96,639.724 L843.96,633.662 L842.882,633.662 L838.738,639.738 L838.738,640.452 L843.162,640.452 L843.162,643 L843.96,643 Z M843.162,639.724 L839.564,639.724 L843.162,634.46 L843.162,639.724 Z M846.06,645.45 C846.942,643.672 847.544,642.02 847.544,639.598 C847.544,637.162 846.942,635.524 846.06,633.718 L846.494,633.41 C847.698,635.23 848.37,637.344 848.37,639.598 C848.37,641.852 847.698,643.966 846.494,645.786 L846.06,645.45 Z" id="($68.04)" fill="#2F2F2F"></path>
            <path d="M673.972,617 L673.972,609.104 L676.8,609.104 L676.8,607.662 L669.506,607.662 L669.506,609.104 L672.334,609.104 L672.334,617 L673.972,617 Z M679.74,617.168 C681.896,617.168 683.212,615.544 683.212,613.612 C683.212,611.666 681.896,610.07 679.74,610.07 C677.584,610.07 676.268,611.666 676.268,613.612 C676.268,615.544 677.584,617.168 679.74,617.168 Z M679.74,615.866 C678.494,615.866 677.794,614.816 677.794,613.612 C677.794,612.422 678.494,611.372 679.74,611.372 C681,611.372 681.686,612.422 681.686,613.612 C681.686,614.816 681,615.866 679.74,615.866 Z M686.754,617.168 C687.426,617.168 687.86,616.972 688.126,616.734 L687.776,615.614 C687.664,615.74 687.412,615.866 687.132,615.866 C686.712,615.866 686.488,615.516 686.488,615.054 L686.488,611.512 L687.86,611.512 L687.86,610.238 L686.488,610.238 L686.488,608.39 L685.018,608.39 L685.018,610.238 L683.898,610.238 L683.898,611.512 L685.018,611.512 L685.018,615.418 C685.018,616.552 685.606,617.168 686.754,617.168 Z M694.79,617 L694.79,612.506 C694.79,610.7 693.474,610.07 691.962,610.07 C690.884,610.07 689.904,610.406 689.12,611.162 L689.736,612.184 C690.31,611.596 690.982,611.316 691.738,611.316 C692.662,611.316 693.32,611.792 693.32,612.576 L693.32,613.584 C692.816,613.01 692.046,612.716 691.122,612.716 C690.016,612.716 688.784,613.36 688.784,614.928 C688.784,616.412 690.03,617.168 691.122,617.168 C692.018,617.168 692.816,616.846 693.32,616.258 L693.32,617 L694.79,617 Z M691.71,616.16 C690.884,616.16 690.254,615.684 690.254,614.942 C690.254,614.214 690.884,613.724 691.71,613.724 C692.34,613.724 692.97,613.962 693.32,614.424 L693.32,615.46 C692.97,615.922 692.34,616.16 691.71,616.16 Z M698.164,617 L698.164,607.662 L696.694,607.662 L696.694,617 L698.164,617 Z M705.36,617 L705.36,607.662 L703.722,607.662 L703.722,617 L705.36,617 Z M713.354,617 L713.354,612.24 C713.354,610.854 712.626,610.07 711.17,610.07 C710.106,610.07 709.224,610.616 708.776,611.148 L708.776,610.238 L707.306,610.238 L707.306,617 L708.776,617 L708.776,612.268 C709.126,611.82 709.77,611.372 710.512,611.372 C711.338,611.372 711.884,611.708 711.884,612.772 L711.884,617 L713.354,617 Z M718.338,617.168 C719.668,617.168 720.452,616.594 720.928,615.964 L719.962,615.054 C719.584,615.586 719.066,615.866 718.408,615.866 C717.19,615.866 716.364,614.928 716.364,613.612 C716.364,612.296 717.19,611.372 718.408,611.372 C719.066,611.372 719.584,611.624 719.962,612.156 L720.928,611.274 C720.452,610.63 719.668,610.07 718.338,610.07 C716.294,610.07 714.852,611.568 714.852,613.612 C714.852,615.656 716.294,617.168 718.338,617.168 Z M723.7,617 L723.7,607.662 L722.23,607.662 L722.23,617 L723.7,617 Z M726.374,617.154 C726.906,617.154 727.354,616.692 727.354,616.16 C727.354,615.642 726.906,615.194 726.374,615.194 C725.842,615.194 725.394,615.642 725.394,616.16 C725.394,616.692 725.842,617.154 726.374,617.154 Z M737.196,617.182 C738.806,617.182 740.122,616.496 741.032,615.474 L741.032,611.988 L736.608,611.988 L736.608,613.43 L739.408,613.43 L739.408,614.872 C738.988,615.278 738.148,615.712 737.196,615.712 C735.348,615.712 733.976,614.284 733.976,612.338 C733.976,610.364 735.348,608.964 737.196,608.964 C738.232,608.964 739.114,609.51 739.618,610.21 L740.948,609.44 C740.206,608.376 739.016,607.508 737.196,607.508 C734.48,607.508 732.296,609.398 732.296,612.338 C732.296,615.264 734.48,617.182 737.196,617.182 Z M745.946,617.168 C748.452,617.168 749.558,615.824 749.558,614.27 C749.558,610.798 744.126,611.876 744.126,610.126 C744.126,609.44 744.742,608.964 745.694,608.964 C746.674,608.964 747.668,609.3 748.41,610.042 L749.334,608.824 C748.48,607.984 747.29,607.508 745.848,607.508 C743.79,607.508 742.446,608.698 742.446,610.252 C742.446,613.682 747.878,612.464 747.878,614.424 C747.878,615.054 747.36,615.712 746.016,615.712 C744.714,615.712 743.692,615.096 743.062,614.41 L742.138,615.684 C742.978,616.552 744.224,617.168 745.946,617.168 Z M754.78,617 L754.78,609.104 L757.608,609.104 L757.608,607.662 L750.314,607.662 L750.314,609.104 L753.142,609.104 L753.142,617 L754.78,617 Z" id="Total-Incl.-GST" fill="#2F2F2F"></path>
            <path d="M807.686,618.4 L808.806,618.4 L808.806,617.14 C810.906,616.958 811.844,615.698 811.844,614.27 C811.844,612.394 810.262,611.848 808.806,611.47 L808.806,609.048 C809.492,609.188 810.164,609.51 810.696,610.042 L811.62,608.824 C810.892,608.124 809.94,607.676 808.806,607.55 L808.806,606.248 L807.686,606.248 L807.686,607.536 C805.88,607.69 804.732,608.824 804.732,610.252 C804.732,612.072 806.244,612.59 807.686,612.954 L807.686,615.67 C806.678,615.516 805.866,614.984 805.348,614.41 L804.424,615.684 C805.166,616.454 806.244,617.028 807.686,617.14 L807.686,618.4 Z M810.164,614.424 C810.164,614.97 809.772,615.544 808.806,615.684 L808.806,613.248 C809.576,613.486 810.164,613.794 810.164,614.424 Z M806.412,610.126 C806.412,609.51 806.902,609.076 807.686,608.978 L807.686,611.176 C806.944,610.952 806.412,610.672 806.412,610.126 Z M816.828,617.168 C818.914,617.168 820.272,615.754 820.272,614.032 C820.272,612.044 818.816,611.008 817.136,611.008 C816.044,611.008 815.064,611.694 814.63,612.324 L814.63,612.058 C814.63,610.42 815.526,608.978 817.094,608.978 C817.976,608.978 818.522,609.286 819.012,609.79 L819.768,608.558 C819.138,607.928 818.242,607.522 817.094,607.522 C814.392,607.522 812.978,609.65 812.978,612.338 C812.978,614.942 814.084,617.168 816.828,617.168 Z M816.73,615.712 C815.302,615.712 814.742,614.522 814.658,613.514 C815.12,612.842 815.904,612.422 816.702,612.422 C817.71,612.422 818.606,612.94 818.606,614.088 C818.606,614.83 817.962,615.712 816.73,615.712 Z M824.976,617.168 C826.88,617.168 828.56,616.272 828.56,614.592 C828.56,613.416 827.594,612.562 826.46,612.184 C827.51,611.848 828.406,611.148 828.406,609.972 C828.406,608.236 826.628,607.522 824.976,607.522 C823.324,607.522 821.546,608.236 821.546,609.972 C821.546,611.148 822.442,611.848 823.492,612.184 C822.358,612.562 821.392,613.416 821.392,614.592 C821.392,616.272 823.058,617.168 824.976,617.168 Z M824.976,611.526 C824.416,611.428 823.212,611.092 823.212,610.224 C823.212,609.426 823.968,608.978 824.976,608.978 C825.984,608.978 826.74,609.426 826.74,610.224 C826.74,611.092 825.55,611.428 824.976,611.526 Z M824.976,615.712 C823.912,615.712 823.058,615.208 823.058,614.382 C823.058,613.416 824.388,612.996 824.976,612.912 C825.55,612.996 826.894,613.416 826.894,614.382 C826.894,615.208 826.012,615.712 824.976,615.712 Z M830.87,617.154 C831.402,617.154 831.85,616.692 831.85,616.16 C831.85,615.642 831.402,615.194 830.87,615.194 C830.338,615.194 829.89,615.642 829.89,616.16 C829.89,616.692 830.338,617.154 830.87,617.154 Z M836.568,617.168 C839.186,617.168 840.292,614.676 840.292,612.338 C840.292,609.986 839.186,607.522 836.568,607.522 C833.936,607.522 832.83,609.986 832.83,612.338 C832.83,614.676 833.936,617.168 836.568,617.168 Z M836.568,615.712 C835.042,615.712 834.496,614.116 834.496,612.338 C834.496,610.546 835.042,608.978 836.568,608.978 C838.094,608.978 838.626,610.546 838.626,612.338 C838.626,614.116 838.08,615.712 836.568,615.712 Z M847.362,617 L847.362,614.886 L848.608,614.886 L848.608,613.444 L847.362,613.444 L847.362,607.662 L845.108,607.662 L841.272,613.57 L841.272,614.886 L845.724,614.886 L845.724,617 L847.362,617 Z M845.724,613.444 L842.882,613.444 L845.724,609.132 L845.724,613.444 Z" id="$68.04" fill="#2F2F2F"></path>
            <path d="M662.24,690 L656.78,676.66 L655.36,676.66 L649.9,690 L651.22,690 L652.54,686.72 L659.6,686.72 L660.92,690 L662.24,690 Z M659.22,685.68 L652.92,685.68 L656.08,677.88 L659.22,685.68 Z M676.7,690 L676.7,683.04 C676.7,681.1 675.84,680.1 674.06,680.1 C672.7,680.1 671.4,681.02 670.86,681.92 C670.62,680.98 669.82,680.1 668.32,680.1 C666.92,680.1 665.6,681.18 665.2,681.8 L665.2,680.34 L664.16,680.34 L664.16,690 L665.2,690 L665.2,682.7 C665.78,681.82 666.94,681.04 667.98,681.04 C669.34,681.04 669.9,681.88 669.9,683.24 L669.9,690 L670.96,690 L670.96,682.68 C671.5,681.8 672.68,681.04 673.72,681.04 C675.08,681.04 675.66,681.88 675.66,683.24 L675.66,690 L676.7,690 Z M684.02,690.24 C686.88,690.24 688.68,687.98 688.68,685.16 C688.68,682.34 686.88,680.1 684.02,680.1 C681.2,680.1 679.4,682.34 679.4,685.16 C679.4,687.98 681.2,690.24 684.02,690.24 Z M684.02,689.3 C681.78,689.3 680.5,687.32 680.5,685.16 C680.5,683.02 681.78,681.04 684.02,681.04 C686.3,681.04 687.56,683.02 687.56,685.16 C687.56,687.32 686.3,689.3 684.02,689.3 Z M698.92,690 L698.92,680.34 L697.88,680.34 L697.88,687.7 C697.24,688.56 695.98,689.3 694.74,689.3 C693.34,689.3 692.4,688.78 692.4,686.9 L692.4,680.34 L691.36,680.34 L691.36,687.14 C691.36,689.32 692.44,690.24 694.4,690.24 C695.8,690.24 697.1,689.46 697.88,688.58 L697.88,690 L698.92,690 Z M709.72,690 L709.72,683.24 C709.72,681.06 708.64,680.1 706.68,680.1 C705.28,680.1 703.9,680.96 703.2,681.8 L703.2,680.34 L702.16,680.34 L702.16,690 L703.2,690 L703.2,682.7 C703.82,681.82 705.1,681.04 706.34,681.04 C707.74,681.04 708.68,681.6 708.68,683.46 L708.68,690 L709.72,690 Z M715.06,690.24 C715.86,690.24 716.32,690 716.7,689.64 L716.3,688.84 C716.08,689.08 715.68,689.3 715.22,689.3 C714.54,689.3 714.22,688.76 714.22,687.98 L714.22,681.26 L716.18,681.26 L716.18,680.34 L714.22,680.34 L714.22,677.7 L713.16,677.7 L713.16,680.34 L711.56,680.34 L711.56,681.26 L713.16,681.26 L713.16,688.14 C713.16,689.46 713.78,690.24 715.06,690.24 Z M727.94,690 C732.08,690 734.68,687.04 734.68,683.34 C734.68,679.68 732.08,676.66 727.94,676.66 L723.68,676.66 L723.68,690 L727.94,690 Z M727.94,688.96 L724.82,688.96 L724.82,677.7 L727.94,677.7 C731.48,677.7 733.48,680.22 733.48,683.34 C733.48,686.46 731.46,688.96 727.94,688.96 Z M745.04,690 L745.04,680.34 L744,680.34 L744,687.7 C743.36,688.56 742.1,689.3 740.86,689.3 C739.46,689.3 738.52,688.78 738.52,686.9 L738.52,680.34 L737.48,680.34 L737.48,687.14 C737.48,689.32 738.56,690.24 740.52,690.24 C741.92,690.24 743.22,689.46 744,688.58 L744,690 L745.04,690 Z M752.56,690.24 C754.16,690.24 755.38,689.68 756.34,688.68 L755.8,688 C754.98,688.88 753.86,689.34 752.64,689.34 C750.36,689.34 748.96,687.6 748.86,685.5 L756.94,685.5 L756.94,685.22 C756.94,682.42 755.32,680.1 752.38,680.1 C749.7,680.1 747.74,682.36 747.74,685.16 C747.74,688.14 749.74,690.24 752.56,690.24 Z M755.88,684.68 L748.86,684.68 C748.94,683 750.08,681 752.36,681 C754.78,681 755.86,683.04 755.88,684.68 Z" id="Amount-Due" fill="#2F2F2F"></path>
            <path d="M801.34,692 L802.94,692 L802.94,690.2 C805.94,689.94 807.28,688.14 807.28,686.1 C807.28,683.42 805.02,682.64 802.94,682.1 L802.94,678.64 C803.92,678.84 804.88,679.3 805.64,680.06 L806.96,678.32 C805.92,677.32 804.56,676.68 802.94,676.5 L802.94,674.64 L801.34,674.64 L801.34,676.48 C798.76,676.7 797.12,678.32 797.12,680.36 C797.12,682.96 799.28,683.7 801.34,684.22 L801.34,688.1 C799.9,687.88 798.74,687.12 798,686.3 L796.68,688.12 C797.74,689.22 799.28,690.04 801.34,690.2 L801.34,692 Z M804.88,686.32 C804.88,687.1 804.32,687.92 802.94,688.12 L802.94,684.64 C804.04,684.98 804.88,685.42 804.88,686.32 Z M799.52,680.18 C799.52,679.3 800.22,678.68 801.34,678.54 L801.34,681.68 C800.28,681.36 799.52,680.96 799.52,680.18 Z M814.24,690.24 C817.98,690.24 819.56,686.68 819.56,683.34 C819.56,679.98 817.98,676.46 814.24,676.46 C810.48,676.46 808.9,679.98 808.9,683.34 C808.9,686.68 810.48,690.24 814.24,690.24 Z M814.24,688.16 C812.06,688.16 811.28,685.88 811.28,683.34 C811.28,680.78 812.06,678.54 814.24,678.54 C816.42,678.54 817.18,680.78 817.18,683.34 C817.18,685.88 816.4,688.16 814.24,688.16 Z M822.36,690.22 C823.12,690.22 823.76,689.56 823.76,688.8 C823.76,688.06 823.12,687.42 822.36,687.42 C821.6,687.42 820.96,688.06 820.96,688.8 C820.96,689.56 821.6,690.22 822.36,690.22 Z M830.5,690.24 C834.24,690.24 835.82,686.68 835.82,683.34 C835.82,679.98 834.24,676.46 830.5,676.46 C826.74,676.46 825.16,679.98 825.16,683.34 C825.16,686.68 826.74,690.24 830.5,690.24 Z M830.5,688.16 C828.32,688.16 827.54,685.88 827.54,683.34 C827.54,680.78 828.32,678.54 830.5,678.54 C832.68,678.54 833.44,680.78 833.44,683.34 C833.44,685.88 832.66,688.16 830.5,688.16 Z M842.84,690.24 C846.58,690.24 848.16,686.68 848.16,683.34 C848.16,679.98 846.58,676.46 842.84,676.46 C839.08,676.46 837.5,679.98 837.5,683.34 C837.5,686.68 839.08,690.24 842.84,690.24 Z M842.84,688.16 C840.66,688.16 839.88,685.88 839.88,683.34 C839.88,680.78 840.66,678.54 842.84,678.54 C845.02,678.54 845.78,680.78 845.78,683.34 C845.78,685.88 845,688.16 842.84,688.16 Z" id="$0.00" fill="#2F2F2F"></path>
            <polygon id="Line-5-Copy" fill="#979797" opacity="0.300000012" points="608.5 660 849.5 660 849.5 659 608.5 659"></polygon>
            <polygon id="Line-5-Copy-3" fill="#979797" opacity="0.300000012" points="608.5 705 849.5 705 849.5 704 608.5 704"></polygon>
            <polygon id="Line-5-Copy-2" fill="#979797" opacity="0.300000012" points="608.5 590 849.5 590 849.5 589 608.5 589"></polygon>
        </g>
    </g>
</svg>