<?xml version="1.0" encoding="UTF-8" standalone="no"?>
<svg width="286px" height="86px" viewBox="0 0 286 86" version="1.1" xmlns="http://www.w3.org/2000/svg" xmlns:xlink="http://www.w3.org/1999/xlink" xmlns:sketch="http://www.bohemiancoding.com/sketch/ns">
    <!-- Generator: Sketch 3.4.2 (15855) - http://www.bohemiancoding.com/sketch -->
    <title>Group</title>
    <desc>Created with Sketch.</desc>
    <defs></defs>
    <g id="Page-1" stroke="none" stroke-width="1" fill="none" fill-rule="evenodd" sketch:type="MSPage">
        <g id="Inclusive-simple-Copy-4" sketch:type="MSArtboardGroup" transform="translate(-70.000000, -980.000000)">
            <g id="Group" sketch:type="MSLayerGroup" transform="translate(71.000000, 980.500000)">
                <path d="M2.156,36.838 L2.156,31.238 L1.596,31.238 L0.238,32.624 L0.616,33.03 L1.512,32.064 L1.512,36.838 L2.156,36.838 Z M10.976,42.732 L10.976,34.122 L14.028,34.122 L14.028,33.394 L7.112,33.394 L7.112,34.122 L10.164,34.122 L10.164,42.732 L10.976,42.732 Z M20.944,42.732 L20.944,37.972 C20.944,36.446 20.188,35.802 18.816,35.802 C17.836,35.802 16.87,36.404 16.38,36.992 L16.38,33.394 L15.652,33.394 L15.652,42.732 L16.38,42.732 L16.38,37.622 C16.814,37.006 17.71,36.46 18.578,36.46 C19.558,36.46 20.216,36.824 20.216,38.126 L20.216,42.732 L20.944,42.732 Z M23.576,34.906 C23.884,34.906 24.136,34.654 24.136,34.346 C24.136,34.038 23.884,33.8 23.576,33.8 C23.282,33.8 23.016,34.038 23.016,34.346 C23.016,34.654 23.282,34.906 23.576,34.906 L23.576,34.906 Z M23.94,42.732 L23.94,35.97 L23.212,35.97 L23.212,42.732 L23.94,42.732 Z M28.224,42.9 C29.918,42.9 30.758,42.004 30.758,40.912 C30.758,38.308 26.502,39.344 26.502,37.65 C26.502,36.95 27.132,36.418 28.182,36.418 C29.078,36.418 29.806,36.782 30.198,37.314 L30.604,36.796 C30.114,36.25 29.344,35.802 28.182,35.802 C26.656,35.802 25.774,36.642 25.774,37.678 C25.774,40.114 30.044,39.064 30.044,40.912 C30.044,41.696 29.372,42.284 28.238,42.284 C27.286,42.284 26.488,41.836 26.054,41.29 L25.62,41.822 C26.292,42.578 27.132,42.9 28.224,42.9 L28.224,42.9 Z M36.624,34.906 C36.932,34.906 37.184,34.654 37.184,34.346 C37.184,34.038 36.932,33.8 36.624,33.8 C36.33,33.8 36.064,34.038 36.064,34.346 C36.064,34.654 36.33,34.906 36.624,34.906 L36.624,34.906 Z M36.988,42.732 L36.988,35.97 L36.26,35.97 L36.26,42.732 L36.988,42.732 Z M41.272,42.9 C42.966,42.9 43.806,42.004 43.806,40.912 C43.806,38.308 39.55,39.344 39.55,37.65 C39.55,36.95 40.18,36.418 41.23,36.418 C42.126,36.418 42.854,36.782 43.246,37.314 L43.652,36.796 C43.162,36.25 42.392,35.802 41.23,35.802 C39.704,35.802 38.822,36.642 38.822,37.678 C38.822,40.114 43.092,39.064 43.092,40.912 C43.092,41.696 42.42,42.284 41.286,42.284 C40.334,42.284 39.536,41.836 39.102,41.29 L38.668,41.822 C39.34,42.578 40.18,42.9 41.272,42.9 L41.272,42.9 Z M50.778,42.9 C51.338,42.9 51.66,42.732 51.926,42.48 L51.646,41.92 C51.492,42.088 51.212,42.242 50.89,42.242 C50.414,42.242 50.19,41.864 50.19,41.318 L50.19,36.614 L51.562,36.614 L51.562,35.97 L50.19,35.97 L50.19,34.122 L49.448,34.122 L49.448,35.97 L48.328,35.97 L48.328,36.614 L49.448,36.614 L49.448,41.43 C49.448,42.354 49.882,42.9 50.778,42.9 L50.778,42.9 Z M58.45,42.732 L58.45,37.972 C58.45,36.446 57.694,35.802 56.322,35.802 C55.342,35.802 54.376,36.404 53.886,36.992 L53.886,33.394 L53.158,33.394 L53.158,42.732 L53.886,42.732 L53.886,37.622 C54.32,37.006 55.216,36.46 56.084,36.46 C57.064,36.46 57.722,36.824 57.722,38.126 L57.722,42.732 L58.45,42.732 Z M63.714,42.9 C64.834,42.9 65.688,42.508 66.36,41.808 L65.982,41.332 C65.408,41.948 64.624,42.27 63.77,42.27 C62.174,42.27 61.194,41.052 61.124,39.582 L66.78,39.582 L66.78,39.386 C66.78,37.426 65.646,35.802 63.588,35.802 C61.712,35.802 60.34,37.384 60.34,39.344 C60.34,41.43 61.74,42.9 63.714,42.9 L63.714,42.9 Z M66.038,39.008 L61.124,39.008 C61.18,37.832 61.978,36.432 63.574,36.432 C65.268,36.432 66.024,37.86 66.038,39.008 L66.038,39.008 Z M72.646,34.906 C72.954,34.906 73.206,34.654 73.206,34.346 C73.206,34.038 72.954,33.8 72.646,33.8 C72.352,33.8 72.086,34.038 72.086,34.346 C72.086,34.654 72.352,34.906 72.646,34.906 L72.646,34.906 Z M73.01,42.732 L73.01,35.97 L72.282,35.97 L72.282,42.732 L73.01,42.732 Z M80.57,42.732 L80.57,38 C80.57,36.474 79.814,35.802 78.442,35.802 C77.462,35.802 76.496,36.404 76.006,36.992 L76.006,35.97 L75.278,35.97 L75.278,42.732 L76.006,42.732 L76.006,37.622 C76.44,37.006 77.336,36.46 78.204,36.46 C79.184,36.46 79.842,36.852 79.842,38.154 L79.842,42.732 L80.57,42.732 Z M85.484,42.732 L88.34,35.97 L87.514,35.97 L85.078,41.878 L82.614,35.97 L81.802,35.97 L84.658,42.732 L85.484,42.732 Z M92.428,42.9 C94.43,42.9 95.69,41.318 95.69,39.344 C95.69,37.37 94.43,35.802 92.428,35.802 C90.454,35.802 89.194,37.37 89.194,39.344 C89.194,41.318 90.454,42.9 92.428,42.9 L92.428,42.9 Z M92.428,42.242 C90.86,42.242 89.964,40.856 89.964,39.344 C89.964,37.846 90.86,36.46 92.428,36.46 C94.024,36.46 94.906,37.846 94.906,39.344 C94.906,40.856 94.024,42.242 92.428,42.242 L92.428,42.242 Z M97.93,34.906 C98.238,34.906 98.49,34.654 98.49,34.346 C98.49,34.038 98.238,33.8 97.93,33.8 C97.636,33.8 97.37,34.038 97.37,34.346 C97.37,34.654 97.636,34.906 97.93,34.906 L97.93,34.906 Z M98.294,42.732 L98.294,35.97 L97.566,35.97 L97.566,42.732 L98.294,42.732 Z M103.46,42.9 C104.636,42.9 105.308,42.438 105.854,41.738 L105.35,41.29 C104.86,41.962 104.244,42.242 103.502,42.242 C101.92,42.242 100.954,40.968 100.954,39.344 C100.954,37.72 101.92,36.46 103.502,36.46 C104.244,36.46 104.86,36.726 105.35,37.398 L105.854,36.95 C105.308,36.264 104.636,35.802 103.46,35.802 C101.472,35.802 100.184,37.37 100.184,39.344 C100.184,41.318 101.472,42.9 103.46,42.9 L103.46,42.9 Z M110.474,42.9 C111.594,42.9 112.448,42.508 113.12,41.808 L112.742,41.332 C112.168,41.948 111.384,42.27 110.53,42.27 C108.934,42.27 107.954,41.052 107.884,39.582 L113.54,39.582 L113.54,39.386 C113.54,37.426 112.406,35.802 110.348,35.802 C108.472,35.802 107.1,37.384 107.1,39.344 C107.1,41.43 108.5,42.9 110.474,42.9 L110.474,42.9 Z M112.798,39.008 L107.884,39.008 C107.94,37.832 108.738,36.432 110.334,36.432 C112.028,36.432 112.784,37.86 112.798,39.008 L112.798,39.008 Z M124.334,42.732 L124.334,38 C124.334,36.474 123.578,35.802 122.206,35.802 C121.226,35.802 120.26,36.404 119.77,36.992 L119.77,35.97 L119.042,35.97 L119.042,42.732 L119.77,42.732 L119.77,37.622 C120.204,37.006 121.1,36.46 121.968,36.46 C122.948,36.46 123.606,36.852 123.606,38.154 L123.606,42.732 L124.334,42.732 Z M129.458,42.9 C131.46,42.9 132.72,41.318 132.72,39.344 C132.72,37.37 131.46,35.802 129.458,35.802 C127.484,35.802 126.224,37.37 126.224,39.344 C126.224,41.318 127.484,42.9 129.458,42.9 L129.458,42.9 Z M129.458,42.242 C127.89,42.242 126.994,40.856 126.994,39.344 C126.994,37.846 127.89,36.46 129.458,36.46 C131.054,36.46 131.936,37.846 131.936,39.344 C131.936,40.856 131.054,42.242 129.458,42.242 L129.458,42.242 Z M136.066,42.9 C136.626,42.9 136.948,42.732 137.214,42.48 L136.934,41.92 C136.78,42.088 136.5,42.242 136.178,42.242 C135.702,42.242 135.478,41.864 135.478,41.318 L135.478,36.614 L136.85,36.614 L136.85,35.97 L135.478,35.97 L135.478,34.122 L134.736,34.122 L134.736,35.97 L133.616,35.97 L133.616,36.614 L134.736,36.614 L134.736,41.43 C134.736,42.354 135.17,42.9 136.066,42.9 L136.066,42.9 Z M141.442,42.9 C142.562,42.9 143.416,42.508 144.088,41.808 L143.71,41.332 C143.136,41.948 142.352,42.27 141.498,42.27 C139.902,42.27 138.922,41.052 138.852,39.582 L144.508,39.582 L144.508,39.386 C144.508,37.426 143.374,35.802 141.316,35.802 C139.44,35.802 138.068,37.384 138.068,39.344 C138.068,41.43 139.468,42.9 141.442,42.9 L141.442,42.9 Z M143.766,39.008 L138.852,39.008 C138.908,37.832 139.706,36.432 141.302,36.432 C142.996,36.432 143.752,37.86 143.766,39.008 L143.766,39.008 Z M148.4,42.9 C150.094,42.9 150.934,42.004 150.934,40.912 C150.934,38.308 146.678,39.344 146.678,37.65 C146.678,36.95 147.308,36.418 148.358,36.418 C149.254,36.418 149.982,36.782 150.374,37.314 L150.78,36.796 C150.29,36.25 149.52,35.802 148.358,35.802 C146.832,35.802 145.95,36.642 145.95,37.678 C145.95,40.114 150.22,39.064 150.22,40.912 C150.22,41.696 149.548,42.284 148.414,42.284 C147.462,42.284 146.664,41.836 146.23,41.29 L145.796,41.822 C146.468,42.578 147.308,42.9 148.4,42.9 L148.4,42.9 Z M157.416,42.732 L157.416,36.614 L158.788,36.614 L158.788,35.97 L157.416,35.97 L157.416,35.354 C157.416,34.444 157.808,33.912 158.578,33.912 C158.942,33.912 159.222,34.052 159.446,34.262 L159.796,33.73 C159.362,33.352 158.984,33.254 158.508,33.254 C157.374,33.254 156.674,34.038 156.674,35.354 L156.674,35.97 L155.554,35.97 L155.554,36.614 L156.674,36.614 L156.674,42.732 L157.416,42.732 Z M163.002,42.9 C165.004,42.9 166.264,41.318 166.264,39.344 C166.264,37.37 165.004,35.802 163.002,35.802 C161.028,35.802 159.768,37.37 159.768,39.344 C159.768,41.318 161.028,42.9 163.002,42.9 L163.002,42.9 Z M163.002,42.242 C161.434,42.242 160.538,40.856 160.538,39.344 C160.538,37.846 161.434,36.46 163.002,36.46 C164.598,36.46 165.48,37.846 165.48,39.344 C165.48,40.856 164.598,42.242 163.002,42.242 L163.002,42.242 Z M168.868,42.732 L168.868,37.804 C169.176,37.216 170.1,36.6 170.786,36.6 C170.926,36.6 171.024,36.6 171.15,36.628 L171.15,35.83 C170.212,35.83 169.442,36.376 168.868,37.132 L168.868,35.97 L168.14,35.97 L168.14,42.732 L168.868,42.732 Z M184.968,42.732 L184.968,33.394 L183.764,33.394 L180.6,41.164 L177.422,33.394 L176.232,33.394 L176.232,42.732 L177.03,42.732 L177.03,34.402 L180.446,42.732 L180.754,42.732 L184.156,34.402 L184.156,42.732 L184.968,42.732 Z M186.816,45.378 C186.998,45.434 187.306,45.476 187.544,45.476 C188.328,45.476 188.902,45.07 189.266,44.216 L192.766,35.97 L191.94,35.97 L189.504,41.878 L187.04,35.97 L186.228,35.97 L189.098,42.788 L188.566,43.992 C188.286,44.636 187.978,44.818 187.53,44.818 C187.362,44.818 187.096,44.776 186.942,44.706 L186.816,45.378 Z M201.432,42.732 L197.61,33.394 L196.616,33.394 L192.794,42.732 L193.718,42.732 L194.642,40.436 L199.584,40.436 L200.508,42.732 L201.432,42.732 Z M199.318,39.708 L194.908,39.708 L197.12,34.248 L199.318,39.708 Z M209.006,42.732 L211.204,35.97 L210.42,35.97 L208.628,41.71 L206.724,35.97 L206.094,35.97 L204.19,41.71 L202.398,35.97 L201.614,35.97 L203.812,42.732 L204.512,42.732 L206.416,36.95 L208.306,42.732 L209.006,42.732 Z M215.572,42.9 C216.692,42.9 217.546,42.508 218.218,41.808 L217.84,41.332 C217.266,41.948 216.482,42.27 215.628,42.27 C214.032,42.27 213.052,41.052 212.982,39.582 L218.638,39.582 L218.638,39.386 C218.638,37.426 217.504,35.802 215.446,35.802 C213.57,35.802 212.198,37.384 212.198,39.344 C212.198,41.43 213.598,42.9 215.572,42.9 L215.572,42.9 Z M217.896,39.008 L212.982,39.008 C213.038,37.832 213.836,36.432 215.432,36.432 C217.126,36.432 217.882,37.86 217.896,39.008 L217.896,39.008 Z M222.53,42.9 C224.224,42.9 225.064,42.004 225.064,40.912 C225.064,38.308 220.808,39.344 220.808,37.65 C220.808,36.95 221.438,36.418 222.488,36.418 C223.384,36.418 224.112,36.782 224.504,37.314 L224.91,36.796 C224.42,36.25 223.65,35.802 222.488,35.802 C220.962,35.802 220.08,36.642 220.08,37.678 C220.08,40.114 224.35,39.064 224.35,40.912 C224.35,41.696 223.678,42.284 222.544,42.284 C221.592,42.284 220.794,41.836 220.36,41.29 L219.926,41.822 C220.598,42.578 221.438,42.9 222.53,42.9 L222.53,42.9 Z M229.796,42.9 C231.798,42.9 233.058,41.318 233.058,39.344 C233.058,37.37 231.798,35.802 229.796,35.802 C227.822,35.802 226.562,37.37 226.562,39.344 C226.562,41.318 227.822,42.9 229.796,42.9 L229.796,42.9 Z M229.796,42.242 C228.228,42.242 227.332,40.856 227.332,39.344 C227.332,37.846 228.228,36.46 229.796,36.46 C231.392,36.46 232.274,37.846 232.274,39.344 C232.274,40.856 231.392,42.242 229.796,42.242 L229.796,42.242 Z M243.712,42.732 L243.712,37.86 C243.712,36.502 243.11,35.802 241.864,35.802 C240.912,35.802 240.002,36.446 239.624,37.076 C239.456,36.418 238.896,35.802 237.846,35.802 C236.866,35.802 235.942,36.558 235.662,36.992 L235.662,35.97 L234.934,35.97 L234.934,42.732 L235.662,42.732 L235.662,37.622 C236.068,37.006 236.88,36.46 237.608,36.46 C238.56,36.46 238.952,37.048 238.952,38 L238.952,42.732 L239.694,42.732 L239.694,37.608 C240.072,36.992 240.898,36.46 241.626,36.46 C242.578,36.46 242.984,37.048 242.984,38 L242.984,42.732 L243.712,42.732 Z M248.976,42.9 C250.096,42.9 250.95,42.508 251.622,41.808 L251.244,41.332 C250.67,41.948 249.886,42.27 249.032,42.27 C247.436,42.27 246.456,41.052 246.386,39.582 L252.042,39.582 L252.042,39.386 C252.042,37.426 250.908,35.802 248.85,35.802 C246.974,35.802 245.602,37.384 245.602,39.344 C245.602,41.43 247.002,42.9 248.976,42.9 L248.976,42.9 Z M251.3,39.008 L246.386,39.008 C246.442,37.832 247.24,36.432 248.836,36.432 C250.53,36.432 251.286,37.86 251.3,39.008 L251.3,39.008 Z M258.37,42.732 L258.37,38.854 L261.072,38.854 C262.85,38.854 263.886,37.594 263.886,36.124 C263.886,34.654 262.864,33.394 261.072,33.394 L257.572,33.394 L257.572,42.732 L258.37,42.732 Z M260.988,38.126 L258.37,38.126 L258.37,34.122 L260.988,34.122 C262.234,34.122 263.046,34.948 263.046,36.124 C263.046,37.286 262.234,38.126 260.988,38.126 L260.988,38.126 Z M266.266,42.732 L266.266,33.394 L265.538,33.394 L265.538,42.732 L266.266,42.732 Z M273.56,42.732 L273.56,37.972 C273.56,36.46 272.468,35.802 271.096,35.802 C269.976,35.802 269.192,36.18 268.492,36.936 L268.898,37.44 C269.514,36.74 270.172,36.446 271.026,36.446 C272.02,36.446 272.832,36.992 272.832,38 L272.832,39.372 C272.244,38.714 271.474,38.406 270.536,38.406 C269.36,38.406 268.17,39.176 268.17,40.646 C268.17,42.102 269.374,42.9 270.536,42.9 C271.474,42.9 272.23,42.592 272.832,41.934 L272.832,42.732 L273.56,42.732 Z M270.788,42.326 C269.682,42.326 268.94,41.612 268.94,40.66 C268.94,39.694 269.682,38.98 270.788,38.98 C271.6,38.98 272.356,39.288 272.832,39.918 L272.832,41.402 C272.356,42.018 271.6,42.326 270.788,42.326 L270.788,42.326 Z M281.12,42.732 L281.12,38 C281.12,36.474 280.364,35.802 278.992,35.802 C278.012,35.802 277.046,36.404 276.556,36.992 L276.556,35.97 L275.828,35.97 L275.828,42.732 L276.556,42.732 L276.556,37.622 C276.99,37.006 277.886,36.46 278.754,36.46 C279.734,36.46 280.392,36.852 280.392,38.154 L280.392,42.732 L281.12,42.732 Z M283.794,42.858 C284.13,42.858 284.41,42.578 284.41,42.242 C284.41,41.92 284.13,41.64 283.794,41.64 C283.458,41.64 283.164,41.92 283.164,42.242 C283.164,42.578 283.458,42.858 283.794,42.858 L283.794,42.858 Z" id="ยน-This-is-the-invoic" fill="#000000" sketch:type="MSShapeGroup"></path>
                <path d="M9.282,9.732 L9.282,0.394 L7.294,0.394 L7.294,6.26 L2.968,0.394 L0.924,0.394 L0.924,9.732 L2.912,9.732 L2.912,3.642 L7.364,9.732 L9.282,9.732 Z M15.568,9.9 C18.382,9.9 20.44,7.884 20.44,5.07 C20.44,2.256 18.382,0.24 15.568,0.24 C12.74,0.24 10.682,2.256 10.682,5.07 C10.682,7.884 12.74,9.9 15.568,9.9 L15.568,9.9 Z M15.568,8.136 C13.832,8.136 12.726,6.806 12.726,5.07 C12.726,3.32 13.832,2.004 15.568,2.004 C17.29,2.004 18.396,3.32 18.396,5.07 C18.396,6.806 17.29,8.136 15.568,8.136 L15.568,8.136 Z M25.662,9.732 L25.662,2.144 L28.378,2.144 L28.378,0.394 L20.93,0.394 L20.93,2.144 L23.66,2.144 L23.66,9.732 L25.662,9.732 Z M36.26,9.732 L36.26,7.982 L31.64,7.982 L31.64,5.854 L36.162,5.854 L36.162,4.104 L31.64,4.104 L31.64,2.144 L36.26,2.144 L36.26,0.394 L29.652,0.394 L29.652,9.732 L36.26,9.732 Z M41.146,9.9 C43.652,9.9 44.884,8.612 44.884,6.904 C44.884,3.418 39.522,4.412 39.522,2.942 C39.522,2.382 39.998,2.018 40.838,2.018 C41.79,2.018 42.798,2.34 43.554,3.04 L44.66,1.556 C43.736,0.702 42.504,0.254 41.02,0.254 C38.822,0.254 37.478,1.542 37.478,3.096 C37.478,6.61 42.854,5.476 42.854,7.1 C42.854,7.646 42.336,8.136 41.23,8.136 C39.942,8.136 38.92,7.548 38.262,6.862 L37.17,8.416 C38.052,9.298 39.34,9.9 41.146,9.9 L41.146,9.9 Z" id="NOTES" fill="#2F2F2F" sketch:type="MSShapeGroup"></path>
                <path d="M0.285801714,24.5 L84.4193878,24.5" id="Line-7" stroke="#979797" stroke-linecap="square" opacity="0.4" sketch:type="MSShapeGroup"></path>
                <path d="M5.354,82 L5.354,73.39 L8.406,73.39 L8.406,72.662 L1.49,72.662 L1.49,73.39 L4.542,73.39 L4.542,82 L5.354,82 Z M15.322,82 L15.322,77.24 C15.322,75.714 14.566,75.07 13.194,75.07 C12.214,75.07 11.248,75.672 10.758,76.26 L10.758,72.662 L10.03,72.662 L10.03,82 L10.758,82 L10.758,76.89 C11.192,76.274 12.088,75.728 12.956,75.728 C13.936,75.728 14.594,76.092 14.594,77.394 L14.594,82 L15.322,82 Z M22.616,82 L22.616,77.24 C22.616,75.728 21.524,75.07 20.152,75.07 C19.032,75.07 18.248,75.448 17.548,76.204 L17.954,76.708 C18.57,76.008 19.228,75.714 20.082,75.714 C21.076,75.714 21.888,76.26 21.888,77.268 L21.888,78.64 C21.3,77.982 20.53,77.674 19.592,77.674 C18.416,77.674 17.226,78.444 17.226,79.914 C17.226,81.37 18.43,82.168 19.592,82.168 C20.53,82.168 21.286,81.86 21.888,81.202 L21.888,82 L22.616,82 Z M19.844,81.594 C18.738,81.594 17.996,80.88 17.996,79.928 C17.996,78.962 18.738,78.248 19.844,78.248 C20.656,78.248 21.412,78.556 21.888,79.186 L21.888,80.67 C21.412,81.286 20.656,81.594 19.844,81.594 L19.844,81.594 Z M30.176,82 L30.176,77.268 C30.176,75.742 29.42,75.07 28.048,75.07 C27.068,75.07 26.102,75.672 25.612,76.26 L25.612,75.238 L24.884,75.238 L24.884,82 L25.612,82 L25.612,76.89 C26.046,76.274 26.942,75.728 27.81,75.728 C28.79,75.728 29.448,76.12 29.448,77.422 L29.448,82 L30.176,82 Z M38.114,82 L34.978,78.29 L38.128,75.238 L37.148,75.238 L33.172,79.102 L33.172,72.662 L32.444,72.662 L32.444,82 L33.172,82 L33.172,79.97 L34.432,78.78 L37.134,82 L38.114,82 Z M42.692,84.646 C42.874,84.702 43.182,84.744 43.42,84.744 C44.204,84.744 44.778,84.338 45.142,83.484 L48.642,75.238 L47.816,75.238 L45.38,81.146 L42.916,75.238 L42.104,75.238 L44.974,82.056 L44.442,83.26 C44.162,83.904 43.854,84.086 43.406,84.086 C43.238,84.086 42.972,84.044 42.818,83.974 L42.692,84.646 Z M52.73,82.168 C54.732,82.168 55.992,80.586 55.992,78.612 C55.992,76.638 54.732,75.07 52.73,75.07 C50.756,75.07 49.496,76.638 49.496,78.612 C49.496,80.586 50.756,82.168 52.73,82.168 L52.73,82.168 Z M52.73,81.51 C51.162,81.51 50.266,80.124 50.266,78.612 C50.266,77.114 51.162,75.728 52.73,75.728 C54.326,75.728 55.208,77.114 55.208,78.612 C55.208,80.124 54.326,81.51 52.73,81.51 L52.73,81.51 Z M63.16,82 L63.16,75.238 L62.432,75.238 L62.432,80.39 C61.984,80.992 61.102,81.51 60.234,81.51 C59.254,81.51 58.596,81.146 58.596,79.83 L58.596,75.238 L57.868,75.238 L57.868,79.998 C57.868,81.524 58.624,82.168 59.996,82.168 C60.976,82.168 61.886,81.622 62.432,81.006 L62.432,82 L63.16,82 Z M70.034,82 L70.034,75.882 L71.406,75.882 L71.406,75.238 L70.034,75.238 L70.034,74.622 C70.034,73.712 70.426,73.18 71.196,73.18 C71.56,73.18 71.84,73.32 72.064,73.53 L72.414,72.998 C71.98,72.62 71.602,72.522 71.126,72.522 C69.992,72.522 69.292,73.306 69.292,74.622 L69.292,75.238 L68.172,75.238 L68.172,75.882 L69.292,75.882 L69.292,82 L70.034,82 Z M75.62,82.168 C77.622,82.168 78.882,80.586 78.882,78.612 C78.882,76.638 77.622,75.07 75.62,75.07 C73.646,75.07 72.386,76.638 72.386,78.612 C72.386,80.586 73.646,82.168 75.62,82.168 L75.62,82.168 Z M75.62,81.51 C74.052,81.51 73.156,80.124 73.156,78.612 C73.156,77.114 74.052,75.728 75.62,75.728 C77.216,75.728 78.098,77.114 78.098,78.612 C78.098,80.124 77.216,81.51 75.62,81.51 L75.62,81.51 Z M81.486,82 L81.486,77.072 C81.794,76.484 82.718,75.868 83.404,75.868 C83.544,75.868 83.642,75.868 83.768,75.896 L83.768,75.098 C82.83,75.098 82.06,75.644 81.486,76.4 L81.486,75.238 L80.758,75.238 L80.758,82 L81.486,82 Z M88.374,84.646 C88.556,84.702 88.864,84.744 89.102,84.744 C89.886,84.744 90.46,84.338 90.824,83.484 L94.324,75.238 L93.498,75.238 L91.062,81.146 L88.598,75.238 L87.786,75.238 L90.656,82.056 L90.124,83.26 C89.844,83.904 89.536,84.086 89.088,84.086 C88.92,84.086 88.654,84.044 88.5,83.974 L88.374,84.646 Z M98.412,82.168 C100.414,82.168 101.674,80.586 101.674,78.612 C101.674,76.638 100.414,75.07 98.412,75.07 C96.438,75.07 95.178,76.638 95.178,78.612 C95.178,80.586 96.438,82.168 98.412,82.168 L98.412,82.168 Z M98.412,81.51 C96.844,81.51 95.948,80.124 95.948,78.612 C95.948,77.114 96.844,75.728 98.412,75.728 C100.008,75.728 100.89,77.114 100.89,78.612 C100.89,80.124 100.008,81.51 98.412,81.51 L98.412,81.51 Z M108.842,82 L108.842,75.238 L108.114,75.238 L108.114,80.39 C107.666,80.992 106.784,81.51 105.916,81.51 C104.936,81.51 104.278,81.146 104.278,79.83 L104.278,75.238 L103.55,75.238 L103.55,79.998 C103.55,81.524 104.306,82.168 105.678,82.168 C106.658,82.168 107.568,81.622 108.114,81.006 L108.114,82 L108.842,82 Z M111.838,82 L111.838,77.072 C112.146,76.484 113.07,75.868 113.756,75.868 C113.896,75.868 113.994,75.868 114.12,75.896 L114.12,75.098 C113.182,75.098 112.412,75.644 111.838,76.4 L111.838,75.238 L111.11,75.238 L111.11,82 L111.838,82 Z M119.902,80.306 L119.902,76.96 C120.294,76.316 121.19,75.728 122.128,75.728 C123.64,75.728 124.494,76.988 124.494,78.626 C124.494,80.264 123.64,81.51 122.128,81.51 C121.19,81.51 120.294,80.95 119.902,80.306 L119.902,80.306 Z M119.902,82 L119.902,80.922 C120.378,81.622 121.246,82.168 122.254,82.168 C124.046,82.168 125.278,80.796 125.278,78.626 C125.278,76.484 124.06,75.07 122.254,75.07 C121.302,75.07 120.448,75.56 119.902,76.33 L119.902,72.662 L119.174,72.662 L119.174,82 L119.902,82 Z M132.46,82 L132.46,75.238 L131.732,75.238 L131.732,80.39 C131.284,80.992 130.402,81.51 129.534,81.51 C128.554,81.51 127.896,81.146 127.896,79.83 L127.896,75.238 L127.168,75.238 L127.168,79.998 C127.168,81.524 127.924,82.168 129.296,82.168 C130.276,82.168 131.186,81.622 131.732,81.006 L131.732,82 L132.46,82 Z M136.744,82.168 C138.438,82.168 139.278,81.272 139.278,80.18 C139.278,77.576 135.022,78.612 135.022,76.918 C135.022,76.218 135.652,75.686 136.702,75.686 C137.598,75.686 138.326,76.05 138.718,76.582 L139.124,76.064 C138.634,75.518 137.864,75.07 136.702,75.07 C135.176,75.07 134.294,75.91 134.294,76.946 C134.294,79.382 138.564,78.332 138.564,80.18 C138.564,80.964 137.892,81.552 136.758,81.552 C135.806,81.552 135.008,81.104 134.574,80.558 L134.14,81.09 C134.812,81.846 135.652,82.168 136.744,82.168 L136.744,82.168 Z M141.518,74.174 C141.826,74.174 142.078,73.922 142.078,73.614 C142.078,73.306 141.826,73.068 141.518,73.068 C141.224,73.068 140.958,73.306 140.958,73.614 C140.958,73.922 141.224,74.174 141.518,74.174 L141.518,74.174 Z M141.882,82 L141.882,75.238 L141.154,75.238 L141.154,82 L141.882,82 Z M149.442,82 L149.442,77.268 C149.442,75.742 148.686,75.07 147.314,75.07 C146.334,75.07 145.368,75.672 144.878,76.26 L144.878,75.238 L144.15,75.238 L144.15,82 L144.878,82 L144.878,76.89 C145.312,76.274 146.208,75.728 147.076,75.728 C148.056,75.728 148.714,76.12 148.714,77.422 L148.714,82 L149.442,82 Z M154.706,82.168 C155.826,82.168 156.68,81.776 157.352,81.076 L156.974,80.6 C156.4,81.216 155.616,81.538 154.762,81.538 C153.166,81.538 152.186,80.32 152.116,78.85 L157.772,78.85 L157.772,78.654 C157.772,76.694 156.638,75.07 154.58,75.07 C152.704,75.07 151.332,76.652 151.332,78.612 C151.332,80.698 152.732,82.168 154.706,82.168 L154.706,82.168 Z M157.03,78.276 L152.116,78.276 C152.172,77.1 152.97,75.7 154.566,75.7 C156.26,75.7 157.016,77.128 157.03,78.276 L157.03,78.276 Z M161.664,82.168 C163.358,82.168 164.198,81.272 164.198,80.18 C164.198,77.576 159.942,78.612 159.942,76.918 C159.942,76.218 160.572,75.686 161.622,75.686 C162.518,75.686 163.246,76.05 163.638,76.582 L164.044,76.064 C163.554,75.518 162.784,75.07 161.622,75.07 C160.096,75.07 159.214,75.91 159.214,76.946 C159.214,79.382 163.484,78.332 163.484,80.18 C163.484,80.964 162.812,81.552 161.678,81.552 C160.726,81.552 159.928,81.104 159.494,80.558 L159.06,81.09 C159.732,81.846 160.572,82.168 161.664,82.168 L161.664,82.168 Z M168.09,82.168 C169.784,82.168 170.624,81.272 170.624,80.18 C170.624,77.576 166.368,78.612 166.368,76.918 C166.368,76.218 166.998,75.686 168.048,75.686 C168.944,75.686 169.672,76.05 170.064,76.582 L170.47,76.064 C169.98,75.518 169.21,75.07 168.048,75.07 C166.522,75.07 165.64,75.91 165.64,76.946 C165.64,79.382 169.91,78.332 169.91,80.18 C169.91,80.964 169.238,81.552 168.104,81.552 C167.152,81.552 166.354,81.104 165.92,80.558 L165.486,81.09 C166.158,81.846 166.998,82.168 168.09,82.168 L168.09,82.168 Z" id="Thank-you-for-your-b" fill="#000000" sketch:type="MSShapeGroup"></path>
            </g>
        </g>
    </g>
</svg>