<?xml version="1.0" encoding="UTF-8" standalone="no"?>
<svg width="481px" height="46px" viewBox="0 0 481 46" version="1.1" xmlns="http://www.w3.org/2000/svg" xmlns:xlink="http://www.w3.org/1999/xlink" xmlns:sketch="http://www.bohemiancoding.com/sketch/ns">
    <!-- Generator: Sketch 3.4.2 (15855) - http://www.bohemiancoding.com/sketch -->
    <title>$115.50 was paid suc + PAYMENT DETAILS + Line 10</title>
    <desc>Created with Sketch.</desc>
    <defs></defs>
    <g id="Page-1" stroke="none" stroke-width="1" fill="none" fill-rule="evenodd" sketch:type="MSPage">
        <g id="Inclusive-simple-Copy-4" sketch:type="MSArtboardGroup" transform="translate(-75.000000, -874.000000)">
            <g id="$115.50-was-paid-suc-+-PAYMENT-DETAILS-+-Line-10" sketch:type="MSLayerGroup" transform="translate(76.000000, 874.000000)">
                <path d="M3.766,44.132 L4.886,44.132 L4.886,42.872 C6.986,42.69 7.924,41.43 7.924,40.002 C7.924,38.126 6.342,37.58 4.886,37.202 L4.886,34.78 C5.572,34.92 6.244,35.242 6.776,35.774 L7.7,34.556 C6.972,33.856 6.02,33.408 4.886,33.282 L4.886,31.98 L3.766,31.98 L3.766,33.268 C1.96,33.422 0.812,34.556 0.812,35.984 C0.812,37.804 2.324,38.322 3.766,38.686 L3.766,41.402 C2.758,41.248 1.946,40.716 1.428,40.142 L0.504,41.416 C1.246,42.186 2.324,42.76 3.766,42.872 L3.766,44.132 Z M6.244,40.156 C6.244,40.702 5.852,41.276 4.886,41.416 L4.886,38.98 C5.656,39.218 6.244,39.526 6.244,40.156 L6.244,40.156 Z M2.492,35.858 C2.492,35.242 2.982,34.808 3.766,34.71 L3.766,36.908 C3.024,36.684 2.492,36.404 2.492,35.858 L2.492,35.858 Z M12.796,42.732 L12.796,33.394 L11.368,33.394 L8.68,36.11 L9.632,37.104 L11.158,35.508 L11.158,42.732 L12.796,42.732 Z M18.116,42.732 L18.116,33.394 L16.688,33.394 L14,36.11 L14.952,37.104 L16.478,35.508 L16.478,42.732 L18.116,42.732 Z M23.366,42.9 C25.452,42.9 26.936,41.668 26.936,39.736 C26.936,37.818 25.522,36.726 23.94,36.726 C23.044,36.726 22.288,37.09 21.826,37.524 L21.826,34.836 L26.306,34.836 L26.306,33.394 L20.188,33.394 L20.188,38.602 L21.35,38.938 C21.952,38.378 22.61,38.14 23.394,38.14 C24.542,38.14 25.27,38.798 25.27,39.792 C25.27,40.716 24.542,41.444 23.352,41.444 C22.316,41.444 21.462,41.052 20.846,40.324 L19.908,41.458 C20.664,42.34 21.77,42.9 23.366,42.9 L23.366,42.9 Z M29.232,42.886 C29.764,42.886 30.212,42.424 30.212,41.892 C30.212,41.374 29.764,40.926 29.232,40.926 C28.7,40.926 28.252,41.374 28.252,41.892 C28.252,42.424 28.7,42.886 29.232,42.886 L29.232,42.886 Z M35.21,42.9 C37.296,42.9 38.78,41.668 38.78,39.736 C38.78,37.818 37.366,36.726 35.784,36.726 C34.888,36.726 34.132,37.09 33.67,37.524 L33.67,34.836 L38.15,34.836 L38.15,33.394 L32.032,33.394 L32.032,38.602 L33.194,38.938 C33.796,38.378 34.454,38.14 35.238,38.14 C36.386,38.14 37.114,38.798 37.114,39.792 C37.114,40.716 36.386,41.444 35.196,41.444 C34.16,41.444 33.306,41.052 32.69,40.324 L31.752,41.458 C32.508,42.34 33.614,42.9 35.21,42.9 L35.21,42.9 Z M43.68,42.9 C46.298,42.9 47.404,40.408 47.404,38.07 C47.404,35.718 46.298,33.254 43.68,33.254 C41.048,33.254 39.942,35.718 39.942,38.07 C39.942,40.408 41.048,42.9 43.68,42.9 L43.68,42.9 Z M43.68,41.444 C42.154,41.444 41.608,39.848 41.608,38.07 C41.608,36.278 42.154,34.71 43.68,34.71 C45.206,34.71 45.738,36.278 45.738,38.07 C45.738,39.848 45.192,41.444 43.68,41.444 L43.68,41.444 Z M59.248,42.732 L61.446,35.97 L60.662,35.97 L58.87,41.71 L56.966,35.97 L56.336,35.97 L54.432,41.71 L52.64,35.97 L51.856,35.97 L54.054,42.732 L54.754,42.732 L56.658,36.95 L58.548,42.732 L59.248,42.732 Z M67.844,42.732 L67.844,37.972 C67.844,36.46 66.752,35.802 65.38,35.802 C64.26,35.802 63.476,36.18 62.776,36.936 L63.182,37.44 C63.798,36.74 64.456,36.446 65.31,36.446 C66.304,36.446 67.116,36.992 67.116,38 L67.116,39.372 C66.528,38.714 65.758,38.406 64.82,38.406 C63.644,38.406 62.454,39.176 62.454,40.646 C62.454,42.102 63.658,42.9 64.82,42.9 C65.758,42.9 66.514,42.592 67.116,41.934 L67.116,42.732 L67.844,42.732 Z M65.072,42.326 C63.966,42.326 63.224,41.612 63.224,40.66 C63.224,39.694 63.966,38.98 65.072,38.98 C65.884,38.98 66.64,39.288 67.116,39.918 L67.116,41.402 C66.64,42.018 65.884,42.326 65.072,42.326 L65.072,42.326 Z M72.128,42.9 C73.822,42.9 74.662,42.004 74.662,40.912 C74.662,38.308 70.406,39.344 70.406,37.65 C70.406,36.95 71.036,36.418 72.086,36.418 C72.982,36.418 73.71,36.782 74.102,37.314 L74.508,36.796 C74.018,36.25 73.248,35.802 72.086,35.802 C70.56,35.802 69.678,36.642 69.678,37.678 C69.678,40.114 73.948,39.064 73.948,40.912 C73.948,41.696 73.276,42.284 72.142,42.284 C71.19,42.284 70.392,41.836 69.958,41.29 L69.524,41.822 C70.196,42.578 71.036,42.9 72.128,42.9 L72.128,42.9 Z M83.244,42.9 C85.05,42.9 86.268,41.5 86.268,39.344 C86.268,37.174 85.05,35.802 83.244,35.802 C82.236,35.802 81.368,36.348 80.892,37.034 L80.892,35.97 L80.164,35.97 L80.164,45.308 L80.892,45.308 L80.892,41.64 C81.438,42.41 82.292,42.9 83.244,42.9 L83.244,42.9 Z M83.118,42.242 C82.18,42.242 81.284,41.654 80.892,41.01 L80.892,37.664 C81.284,37.02 82.18,36.46 83.118,36.46 C84.63,36.46 85.484,37.706 85.484,39.344 C85.484,40.982 84.63,42.242 83.118,42.242 L83.118,42.242 Z M93.128,42.732 L93.128,37.972 C93.128,36.46 92.036,35.802 90.664,35.802 C89.544,35.802 88.76,36.18 88.06,36.936 L88.466,37.44 C89.082,36.74 89.74,36.446 90.594,36.446 C91.588,36.446 92.4,36.992 92.4,38 L92.4,39.372 C91.812,38.714 91.042,38.406 90.104,38.406 C88.928,38.406 87.738,39.176 87.738,40.646 C87.738,42.102 88.942,42.9 90.104,42.9 C91.042,42.9 91.798,42.592 92.4,41.934 L92.4,42.732 L93.128,42.732 Z M90.356,42.326 C89.25,42.326 88.508,41.612 88.508,40.66 C88.508,39.694 89.25,38.98 90.356,38.98 C91.168,38.98 91.924,39.288 92.4,39.918 L92.4,41.402 C91.924,42.018 91.168,42.326 90.356,42.326 L90.356,42.326 Z M95.76,34.906 C96.068,34.906 96.32,34.654 96.32,34.346 C96.32,34.038 96.068,33.8 95.76,33.8 C95.466,33.8 95.2,34.038 95.2,34.346 C95.2,34.654 95.466,34.906 95.76,34.906 L95.76,34.906 Z M96.124,42.732 L96.124,35.97 L95.396,35.97 L95.396,42.732 L96.124,42.732 Z M104.118,42.732 L104.118,33.394 L103.376,33.394 L103.376,37.062 C102.844,36.292 101.99,35.802 101.024,35.802 C99.232,35.802 98.014,37.216 98.014,39.358 C98.014,41.528 99.232,42.9 101.024,42.9 C102.032,42.9 102.9,42.354 103.376,41.654 L103.376,42.732 L104.118,42.732 Z M101.15,42.242 C99.652,42.242 98.784,40.996 98.784,39.358 C98.784,37.72 99.652,36.46 101.15,36.46 C102.102,36.46 102.984,37.034 103.376,37.692 L103.376,41.038 C102.984,41.682 102.102,42.242 101.15,42.242 L101.15,42.242 Z M112.028,42.9 C113.722,42.9 114.562,42.004 114.562,40.912 C114.562,38.308 110.306,39.344 110.306,37.65 C110.306,36.95 110.936,36.418 111.986,36.418 C112.882,36.418 113.61,36.782 114.002,37.314 L114.408,36.796 C113.918,36.25 113.148,35.802 111.986,35.802 C110.46,35.802 109.578,36.642 109.578,37.678 C109.578,40.114 113.848,39.064 113.848,40.912 C113.848,41.696 113.176,42.284 112.042,42.284 C111.09,42.284 110.292,41.836 109.858,41.29 L109.424,41.822 C110.096,42.578 110.936,42.9 112.028,42.9 L112.028,42.9 Z M121.73,42.732 L121.73,35.97 L121.002,35.97 L121.002,41.122 C120.554,41.724 119.672,42.242 118.804,42.242 C117.824,42.242 117.166,41.878 117.166,40.562 L117.166,35.97 L116.438,35.97 L116.438,40.73 C116.438,42.256 117.194,42.9 118.566,42.9 C119.546,42.9 120.456,42.354 121.002,41.738 L121.002,42.732 L121.73,42.732 Z M126.896,42.9 C128.072,42.9 128.744,42.438 129.29,41.738 L128.786,41.29 C128.296,41.962 127.68,42.242 126.938,42.242 C125.356,42.242 124.39,40.968 124.39,39.344 C124.39,37.72 125.356,36.46 126.938,36.46 C127.68,36.46 128.296,36.726 128.786,37.398 L129.29,36.95 C128.744,36.264 128.072,35.802 126.896,35.802 C124.908,35.802 123.62,37.37 123.62,39.344 C123.62,41.318 124.908,42.9 126.896,42.9 L126.896,42.9 Z M133.812,42.9 C134.988,42.9 135.66,42.438 136.206,41.738 L135.702,41.29 C135.212,41.962 134.596,42.242 133.854,42.242 C132.272,42.242 131.306,40.968 131.306,39.344 C131.306,37.72 132.272,36.46 133.854,36.46 C134.596,36.46 135.212,36.726 135.702,37.398 L136.206,36.95 C135.66,36.264 134.988,35.802 133.812,35.802 C131.824,35.802 130.536,37.37 130.536,39.344 C130.536,41.318 131.824,42.9 133.812,42.9 L133.812,42.9 Z M140.826,42.9 C141.946,42.9 142.8,42.508 143.472,41.808 L143.094,41.332 C142.52,41.948 141.736,42.27 140.882,42.27 C139.286,42.27 138.306,41.052 138.236,39.582 L143.892,39.582 L143.892,39.386 C143.892,37.426 142.758,35.802 140.7,35.802 C138.824,35.802 137.452,37.384 137.452,39.344 C137.452,41.43 138.852,42.9 140.826,42.9 L140.826,42.9 Z M143.15,39.008 L138.236,39.008 C138.292,37.832 139.09,36.432 140.686,36.432 C142.38,36.432 143.136,37.86 143.15,39.008 L143.15,39.008 Z M147.784,42.9 C149.478,42.9 150.318,42.004 150.318,40.912 C150.318,38.308 146.062,39.344 146.062,37.65 C146.062,36.95 146.692,36.418 147.742,36.418 C148.638,36.418 149.366,36.782 149.758,37.314 L150.164,36.796 C149.674,36.25 148.904,35.802 147.742,35.802 C146.216,35.802 145.334,36.642 145.334,37.678 C145.334,40.114 149.604,39.064 149.604,40.912 C149.604,41.696 148.932,42.284 147.798,42.284 C146.846,42.284 146.048,41.836 145.614,41.29 L145.18,41.822 C145.852,42.578 146.692,42.9 147.784,42.9 L147.784,42.9 Z M154.21,42.9 C155.904,42.9 156.744,42.004 156.744,40.912 C156.744,38.308 152.488,39.344 152.488,37.65 C152.488,36.95 153.118,36.418 154.168,36.418 C155.064,36.418 155.792,36.782 156.184,37.314 L156.59,36.796 C156.1,36.25 155.33,35.802 154.168,35.802 C152.642,35.802 151.76,36.642 151.76,37.678 C151.76,40.114 156.03,39.064 156.03,40.912 C156.03,41.696 155.358,42.284 154.224,42.284 C153.272,42.284 152.474,41.836 152.04,41.29 L151.606,41.822 C152.278,42.578 153.118,42.9 154.21,42.9 L154.21,42.9 Z M159.6,42.732 L159.6,36.614 L160.972,36.614 L160.972,35.97 L159.6,35.97 L159.6,35.354 C159.6,34.444 159.992,33.912 160.762,33.912 C161.126,33.912 161.406,34.052 161.63,34.262 L161.98,33.73 C161.546,33.352 161.168,33.254 160.692,33.254 C159.558,33.254 158.858,34.038 158.858,35.354 L158.858,35.97 L157.738,35.97 L157.738,36.614 L158.858,36.614 L158.858,42.732 L159.6,42.732 Z M167.622,42.732 L167.622,35.97 L166.894,35.97 L166.894,41.122 C166.446,41.724 165.564,42.242 164.696,42.242 C163.716,42.242 163.058,41.878 163.058,40.562 L163.058,35.97 L162.33,35.97 L162.33,40.73 C162.33,42.256 163.086,42.9 164.458,42.9 C165.438,42.9 166.348,42.354 166.894,41.738 L166.894,42.732 L167.622,42.732 Z M170.618,42.732 L170.618,33.394 L169.89,33.394 L169.89,42.732 L170.618,42.732 Z M173.614,42.732 L173.614,33.394 L172.886,33.394 L172.886,42.732 L173.614,42.732 Z M175.434,45.378 C175.616,45.434 175.924,45.476 176.162,45.476 C176.946,45.476 177.52,45.07 177.884,44.216 L181.384,35.97 L180.558,35.97 L178.122,41.878 L175.658,35.97 L174.846,35.97 L177.716,42.788 L177.184,43.992 C176.904,44.636 176.596,44.818 176.148,44.818 C175.98,44.818 175.714,44.776 175.56,44.706 L175.434,45.378 Z M189.098,42.9 C191.1,42.9 192.36,41.318 192.36,39.344 C192.36,37.37 191.1,35.802 189.098,35.802 C187.124,35.802 185.864,37.37 185.864,39.344 C185.864,41.318 187.124,42.9 189.098,42.9 L189.098,42.9 Z M189.098,42.242 C187.53,42.242 186.634,40.856 186.634,39.344 C186.634,37.846 187.53,36.46 189.098,36.46 C190.694,36.46 191.576,37.846 191.576,39.344 C191.576,40.856 190.694,42.242 189.098,42.242 L189.098,42.242 Z M199.528,42.732 L199.528,38 C199.528,36.474 198.772,35.802 197.4,35.802 C196.42,35.802 195.454,36.404 194.964,36.992 L194.964,35.97 L194.236,35.97 L194.236,42.732 L194.964,42.732 L194.964,37.622 C195.398,37.006 196.294,36.46 197.162,36.46 C198.142,36.46 198.8,36.852 198.8,38.154 L198.8,42.732 L199.528,42.732 Z M208.614,42.732 L208.614,33.394 L207.186,33.394 L204.498,36.11 L205.45,37.104 L206.976,35.508 L206.976,42.732 L208.614,42.732 Z M213.108,42.732 L216.72,34.528 L216.72,33.394 L209.986,33.394 L209.986,34.836 L214.83,34.836 L211.302,42.732 L213.108,42.732 Z M223.3,42.732 L223.3,38.686 L227.962,38.686 L227.962,37.244 L223.3,37.244 L223.3,34.836 L228.06,34.836 L228.06,33.394 L221.662,33.394 L221.662,42.732 L223.3,42.732 Z M232.638,42.9 C233.702,42.9 234.696,42.55 235.382,41.906 L234.71,40.94 C234.22,41.43 233.45,41.696 232.778,41.696 C231.504,41.696 230.748,40.842 230.636,39.834 L235.844,39.834 L235.844,39.47 C235.844,37.342 234.556,35.802 232.526,35.802 C230.524,35.802 229.096,37.384 229.096,39.344 C229.096,41.486 230.594,42.9 232.638,42.9 L232.638,42.9 Z M234.43,38.784 L230.622,38.784 C230.678,37.972 231.266,37.006 232.512,37.006 C233.842,37.006 234.388,37.986 234.43,38.784 L234.43,38.784 Z M238.77,40.702 L238.77,38.014 C239.106,37.51 239.82,37.104 240.52,37.104 C241.682,37.104 242.424,38.042 242.424,39.344 C242.424,40.66 241.682,41.598 240.52,41.598 C239.82,41.598 239.106,41.206 238.77,40.702 L238.77,40.702 Z M238.77,42.732 L238.77,41.808 C239.288,42.48 240.072,42.9 240.94,42.9 C242.676,42.9 243.95,41.584 243.95,39.344 C243.95,37.16 242.69,35.802 240.94,35.802 C240.1,35.802 239.316,36.18 238.77,36.908 L238.77,33.394 L237.3,33.394 L237.3,42.732 L238.77,42.732 Z M247.184,42.2 C247.184,41.388 246.68,40.926 246.106,40.926 C245.574,40.926 245.154,41.36 245.154,41.878 C245.154,42.396 245.518,42.774 245.98,42.774 C246.078,42.774 246.19,42.746 246.218,42.732 C246.134,43.208 245.658,43.782 245.21,44.048 L245.882,44.594 C246.652,44.048 247.184,43.166 247.184,42.2 L247.184,42.2 Z M258.916,42.732 L258.916,41.29 L254.786,41.29 C257.278,39.4 258.86,37.86 258.86,36.124 C258.86,34.262 257.292,33.254 255.486,33.254 C254.17,33.254 252.854,33.744 252.028,34.752 L252.98,35.816 C253.582,35.144 254.408,34.71 255.5,34.71 C256.354,34.71 257.208,35.144 257.208,36.124 C257.208,37.482 255.78,38.686 252.154,41.43 L252.154,42.732 L258.916,42.732 Z M264.11,42.9 C266.728,42.9 267.834,40.408 267.834,38.07 C267.834,35.718 266.728,33.254 264.11,33.254 C261.478,33.254 260.372,35.718 260.372,38.07 C260.372,40.408 261.478,42.9 264.11,42.9 L264.11,42.9 Z M264.11,41.444 C262.584,41.444 262.038,39.848 262.038,38.07 C262.038,36.278 262.584,34.71 264.11,34.71 C265.636,34.71 266.168,36.278 266.168,38.07 C266.168,39.848 265.622,41.444 264.11,41.444 L264.11,41.444 Z M272.748,42.732 L272.748,33.394 L271.32,33.394 L268.632,36.11 L269.584,37.104 L271.11,35.508 L271.11,42.732 L272.748,42.732 Z M277.998,42.9 C280.084,42.9 281.568,41.668 281.568,39.736 C281.568,37.818 280.154,36.726 278.572,36.726 C277.676,36.726 276.92,37.09 276.458,37.524 L276.458,34.836 L280.938,34.836 L280.938,33.394 L274.82,33.394 L274.82,38.602 L275.982,38.938 C276.584,38.378 277.242,38.14 278.026,38.14 C279.174,38.14 279.902,38.798 279.902,39.792 C279.902,40.716 279.174,41.444 277.984,41.444 C276.948,41.444 276.094,41.052 275.478,40.324 L274.54,41.458 C275.296,42.34 276.402,42.9 277.998,42.9 L277.998,42.9 Z M290.08,42.9 C292.698,42.9 293.804,40.408 293.804,38.07 C293.804,35.718 292.698,33.254 290.08,33.254 C287.448,33.254 286.342,35.718 286.342,38.07 C286.342,40.408 287.448,42.9 290.08,42.9 L290.08,42.9 Z M290.08,41.444 C288.554,41.444 288.008,39.848 288.008,38.07 C288.008,36.278 288.554,34.71 290.08,34.71 C291.606,34.71 292.138,36.278 292.138,38.07 C292.138,39.848 291.592,41.444 290.08,41.444 L290.08,41.444 Z M298.116,42.886 C300.818,42.886 302.232,40.758 302.232,38.056 C302.232,35.466 301.126,33.24 298.382,33.24 C296.296,33.24 294.938,34.64 294.938,36.376 C294.938,38.364 296.38,39.386 298.06,39.386 C299.166,39.386 300.146,38.714 300.566,38.084 C300.58,38.168 300.58,38.266 300.58,38.35 C300.58,39.876 299.81,41.43 298.116,41.43 C297.22,41.43 296.688,41.122 296.198,40.604 L295.428,41.85 C296.058,42.466 296.954,42.886 298.116,42.886 L298.116,42.886 Z M298.508,37.986 C297.486,37.986 296.59,37.468 296.59,36.32 C296.59,35.564 297.234,34.696 298.466,34.696 C299.908,34.696 300.454,35.872 300.552,36.88 C300.076,37.552 299.306,37.986 298.508,37.986 L298.508,37.986 Z M304.178,42.886 C304.71,42.886 305.158,42.424 305.158,41.892 C305.158,41.374 304.71,40.926 304.178,40.926 C303.646,40.926 303.198,41.374 303.198,41.892 C303.198,42.424 303.646,42.886 304.178,42.886 L304.178,42.886 Z M309.764,42.9 C311.934,42.9 313.292,41.766 313.292,40.17 C313.292,38.728 312.018,38 311.122,37.902 C312.074,37.748 313.138,37.02 313.138,35.76 C313.138,34.206 311.794,33.254 309.778,33.254 C308.224,33.254 307.09,33.87 306.362,34.724 L307.202,35.746 C307.874,35.06 308.658,34.71 309.624,34.71 C310.66,34.71 311.514,35.158 311.514,36.012 C311.514,36.866 310.688,37.244 309.582,37.244 C309.218,37.244 308.672,37.244 308.518,37.23 L308.518,38.714 C308.658,38.7 309.19,38.686 309.582,38.686 C310.926,38.686 311.654,39.092 311.654,40.016 C311.654,40.87 310.94,41.444 309.708,41.444 C308.714,41.444 307.734,41.01 307.132,40.31 L306.236,41.388 C306.88,42.228 308.112,42.9 309.764,42.9 L309.764,42.9 Z M318.262,42.732 L318.262,33.394 L316.834,33.394 L314.146,36.11 L315.098,37.104 L316.624,35.508 L316.624,42.732 L318.262,42.732 Z M327.908,42.9 C330.624,42.9 331.954,41.346 331.954,39.036 L331.954,33.394 L330.288,33.394 L330.288,38.994 C330.288,40.478 329.462,41.444 327.908,41.444 C326.354,41.444 325.528,40.478 325.528,38.994 L325.528,33.394 L323.862,33.394 L323.862,39.036 C323.862,41.346 325.206,42.9 327.908,42.9 L327.908,42.9 Z M337.806,42.732 L337.806,34.836 L340.634,34.836 L340.634,33.394 L333.34,33.394 L333.34,34.836 L336.168,34.836 L336.168,42.732 L337.806,42.732 Z M346.164,42.9 C348.04,42.9 349.202,41.906 349.916,40.786 L348.516,40.086 C348.068,40.856 347.158,41.444 346.164,41.444 C344.316,41.444 342.944,40.016 342.944,38.07 C342.944,36.096 344.316,34.696 346.164,34.696 C347.158,34.696 348.068,35.27 348.516,36.054 L349.902,35.326 C349.216,34.206 348.04,33.24 346.164,33.24 C343.406,33.24 341.264,35.186 341.264,38.07 C341.264,40.94 343.406,42.9 346.164,42.9 L346.164,42.9 Z M357.63,42.732 L360.486,35.97 L359.66,35.97 L357.224,41.878 L354.76,35.97 L353.948,35.97 L356.804,42.732 L357.63,42.732 Z M362.082,34.906 C362.39,34.906 362.642,34.654 362.642,34.346 C362.642,34.038 362.39,33.8 362.082,33.8 C361.788,33.8 361.522,34.038 361.522,34.346 C361.522,34.654 361.788,34.906 362.082,34.906 L362.082,34.906 Z M362.446,42.732 L362.446,35.97 L361.718,35.97 L361.718,42.732 L362.446,42.732 Z M369.74,42.732 L369.74,37.972 C369.74,36.46 368.648,35.802 367.276,35.802 C366.156,35.802 365.372,36.18 364.672,36.936 L365.078,37.44 C365.694,36.74 366.352,36.446 367.206,36.446 C368.2,36.446 369.012,36.992 369.012,38 L369.012,39.372 C368.424,38.714 367.654,38.406 366.716,38.406 C365.54,38.406 364.35,39.176 364.35,40.646 C364.35,42.102 365.554,42.9 366.716,42.9 C367.654,42.9 368.41,42.592 369.012,41.934 L369.012,42.732 L369.74,42.732 Z M366.968,42.326 C365.862,42.326 365.12,41.612 365.12,40.66 C365.12,39.694 365.862,38.98 366.968,38.98 C367.78,38.98 368.536,39.288 369.012,39.918 L369.012,41.402 C368.536,42.018 367.78,42.326 366.968,42.326 L366.968,42.326 Z M378.532,42.9 C379.708,42.9 380.38,42.438 380.926,41.738 L380.422,41.29 C379.932,41.962 379.316,42.242 378.574,42.242 C376.992,42.242 376.026,40.968 376.026,39.344 C376.026,37.72 376.992,36.46 378.574,36.46 C379.316,36.46 379.932,36.726 380.422,37.398 L380.926,36.95 C380.38,36.264 379.708,35.802 378.532,35.802 C376.544,35.802 375.256,37.37 375.256,39.344 C375.256,41.318 376.544,42.9 378.532,42.9 L378.532,42.9 Z M387.576,42.732 L387.576,37.972 C387.576,36.46 386.484,35.802 385.112,35.802 C383.992,35.802 383.208,36.18 382.508,36.936 L382.914,37.44 C383.53,36.74 384.188,36.446 385.042,36.446 C386.036,36.446 386.848,36.992 386.848,38 L386.848,39.372 C386.26,38.714 385.49,38.406 384.552,38.406 C383.376,38.406 382.186,39.176 382.186,40.646 C382.186,42.102 383.39,42.9 384.552,42.9 C385.49,42.9 386.246,42.592 386.848,41.934 L386.848,42.732 L387.576,42.732 Z M384.804,42.326 C383.698,42.326 382.956,41.612 382.956,40.66 C382.956,39.694 383.698,38.98 384.804,38.98 C385.616,38.98 386.372,39.288 386.848,39.918 L386.848,41.402 C386.372,42.018 385.616,42.326 384.804,42.326 L384.804,42.326 Z M390.572,42.732 L390.572,37.804 C390.88,37.216 391.804,36.6 392.49,36.6 C392.63,36.6 392.728,36.6 392.854,36.628 L392.854,35.83 C391.916,35.83 391.146,36.376 390.572,37.132 L390.572,35.97 L389.844,35.97 L389.844,42.732 L390.572,42.732 Z M400.008,42.732 L400.008,33.394 L399.266,33.394 L399.266,37.062 C398.734,36.292 397.88,35.802 396.914,35.802 C395.122,35.802 393.904,37.216 393.904,39.358 C393.904,41.528 395.122,42.9 396.914,42.9 C397.922,42.9 398.79,42.354 399.266,41.654 L399.266,42.732 L400.008,42.732 Z M397.04,42.242 C395.542,42.242 394.674,40.996 394.674,39.358 C394.674,37.72 395.542,36.46 397.04,36.46 C397.992,36.46 398.874,37.034 399.266,37.692 L399.266,41.038 C398.874,41.682 397.992,42.242 397.04,42.242 L397.04,42.242 Z M408.828,42.9 C409.878,42.9 410.942,42.578 411.614,41.962 L410.816,40.786 C410.382,41.206 409.598,41.444 409.024,41.444 C407.876,41.444 407.204,40.758 407.078,39.932 L412.104,39.932 L412.104,39.512 C412.104,37.314 410.746,35.802 408.716,35.802 C406.672,35.802 405.216,37.384 405.216,39.344 C405.216,41.514 406.77,42.9 408.828,42.9 L408.828,42.9 Z M410.396,38.7 L407.064,38.7 C407.134,38.028 407.61,37.258 408.716,37.258 C409.892,37.258 410.34,38.056 410.396,38.7 L410.396,38.7 Z M419.748,42.732 L419.748,37.958 C419.748,36.642 419.034,35.802 417.536,35.802 C416.444,35.802 415.604,36.334 415.17,36.838 L415.17,35.97 L413.392,35.97 L413.392,42.732 L415.17,42.732 L415.17,38.168 C415.478,37.776 416.01,37.384 416.71,37.384 C417.466,37.384 417.956,37.706 417.956,38.644 L417.956,42.732 L419.748,42.732 Z M427.938,42.732 L427.938,33.394 L426.146,33.394 L426.146,36.838 C425.614,36.138 424.858,35.802 424.06,35.802 C422.338,35.802 421.064,37.146 421.064,39.344 C421.064,41.612 422.366,42.9 424.06,42.9 C424.886,42.9 425.614,42.536 426.146,41.864 L426.146,42.732 L427.938,42.732 Z M424.62,41.318 C423.598,41.318 422.898,40.52 422.898,39.344 C422.898,38.182 423.598,37.384 424.62,37.384 C425.208,37.384 425.852,37.706 426.146,38.154 L426.146,40.548 C425.852,40.996 425.208,41.318 424.62,41.318 L424.62,41.318 Z M430.584,35.242 C431.172,35.242 431.648,34.766 431.648,34.178 C431.648,33.59 431.172,33.128 430.584,33.128 C430.01,33.128 429.534,33.59 429.534,34.178 C429.534,34.766 430.01,35.242 430.584,35.242 L430.584,35.242 Z M431.48,42.732 L431.48,35.97 L429.702,35.97 L429.702,42.732 L431.48,42.732 Z M439.6,42.732 L439.6,37.958 C439.6,36.642 438.886,35.802 437.388,35.802 C436.296,35.802 435.456,36.334 435.022,36.838 L435.022,35.97 L433.244,35.97 L433.244,42.732 L435.022,42.732 L435.022,38.168 C435.33,37.776 435.862,37.384 436.562,37.384 C437.318,37.384 437.808,37.706 437.808,38.644 L437.808,42.732 L439.6,42.732 Z M444.122,45.476 C445.788,45.476 447.776,44.846 447.776,42.284 L447.776,35.97 L445.998,35.97 L445.998,36.838 C445.452,36.138 444.71,35.802 443.898,35.802 C442.19,35.802 440.916,37.034 440.916,39.246 C440.916,41.5 442.218,42.676 443.898,42.676 C444.738,42.676 445.466,42.298 445.998,41.626 L445.998,42.284 C445.998,43.656 444.976,44.02 444.122,44.02 C443.282,44.02 442.554,43.782 442.008,43.194 L441.21,44.468 C442.064,45.21 442.974,45.476 444.122,45.476 L444.122,45.476 Z M444.472,41.108 C443.45,41.108 442.75,40.408 442.75,39.246 C442.75,38.084 443.45,37.384 444.472,37.384 C445.046,37.384 445.69,37.706 445.998,38.14 L445.998,40.338 C445.69,40.772 445.046,41.108 444.472,41.108 L444.472,41.108 Z M457.086,42.732 L457.086,33.394 L455.35,33.394 L452.41,36.348 L453.544,37.538 L455.098,35.956 L455.098,42.732 L457.086,42.732 Z M465.696,42.732 L465.696,40.982 L461.888,40.982 C464.31,39.218 465.626,37.832 465.626,36.236 C465.626,34.374 464.058,33.254 462.056,33.254 C460.754,33.254 459.368,33.73 458.458,34.78 L459.592,36.096 C460.222,35.438 461.034,35.018 462.098,35.018 C462.868,35.018 463.61,35.41 463.61,36.236 C463.61,37.384 462.49,38.336 458.668,41.164 L458.668,42.732 L465.696,42.732 Z M474.096,42.732 L474.096,40.982 L470.288,40.982 C472.71,39.218 474.026,37.832 474.026,36.236 C474.026,34.374 472.458,33.254 470.456,33.254 C469.154,33.254 467.768,33.73 466.858,34.78 L467.992,36.096 C468.622,35.438 469.434,35.018 470.498,35.018 C471.268,35.018 472.01,35.41 472.01,36.236 C472.01,37.384 470.89,38.336 467.068,41.164 L467.068,42.732 L474.096,42.732 Z M479.64,42.732 L479.64,33.394 L477.904,33.394 L474.964,36.348 L476.098,37.538 L477.652,35.956 L477.652,42.732 L479.64,42.732 Z" id="$115.50-was-paid-suc" fill="#000000" sketch:type="MSShapeGroup"></path>
                <path d="M2.912,9.732 L2.912,6.4 L5.292,6.4 C7.308,6.4 8.428,5.028 8.428,3.404 C8.428,1.766 7.322,0.394 5.292,0.394 L0.924,0.394 L0.924,9.732 L2.912,9.732 Z M5.012,4.65 L2.912,4.65 L2.912,2.144 L5.012,2.144 C5.796,2.144 6.398,2.62 6.398,3.404 C6.398,4.174 5.796,4.65 5.012,4.65 L5.012,4.65 Z M17.346,9.732 L13.748,0.394 L11.256,0.394 L7.658,9.732 L9.912,9.732 L10.5,8.15 L14.504,8.15 L15.092,9.732 L17.346,9.732 Z M13.958,6.4 L11.046,6.4 L12.502,2.382 L13.958,6.4 Z M21.868,9.732 L21.868,5.91 L25.438,0.394 L23.184,0.394 L20.874,4.132 L18.564,0.394 L16.296,0.394 L19.88,5.91 L19.88,9.732 L21.868,9.732 Z M36.428,9.732 L36.428,0.394 L33.628,0.394 L31.36,6.232 L29.092,0.394 L26.306,0.394 L26.306,9.732 L28.294,9.732 L28.294,2.998 L30.926,9.732 L31.794,9.732 L34.426,2.998 L34.426,9.732 L36.428,9.732 Z M44.884,9.732 L44.884,7.982 L40.264,7.982 L40.264,5.854 L44.786,5.854 L44.786,4.104 L40.264,4.104 L40.264,2.144 L44.884,2.144 L44.884,0.394 L38.276,0.394 L38.276,9.732 L44.884,9.732 Z M54.796,9.732 L54.796,0.394 L52.808,0.394 L52.808,6.26 L48.482,0.394 L46.438,0.394 L46.438,9.732 L48.426,9.732 L48.426,3.642 L52.878,9.732 L54.796,9.732 Z M60.802,9.732 L60.802,2.144 L63.518,2.144 L63.518,0.394 L56.07,0.394 L56.07,2.144 L58.8,2.144 L58.8,9.732 L60.802,9.732 Z M72.086,9.732 C74.998,9.732 77.028,7.884 77.028,5.056 C77.028,2.256 74.998,0.394 72.072,0.394 L68.39,0.394 L68.39,9.732 L72.086,9.732 Z M72.072,7.982 L70.378,7.982 L70.378,2.144 L72.086,2.144 C73.99,2.144 74.998,3.418 74.998,5.056 C74.998,6.652 73.92,7.982 72.072,7.982 L72.072,7.982 Z M85.05,9.732 L85.05,7.982 L80.43,7.982 L80.43,5.854 L84.952,5.854 L84.952,4.104 L80.43,4.104 L80.43,2.144 L85.05,2.144 L85.05,0.394 L78.442,0.394 L78.442,9.732 L85.05,9.732 Z M90.762,9.732 L90.762,2.144 L93.478,2.144 L93.478,0.394 L86.03,0.394 L86.03,2.144 L88.76,2.144 L88.76,9.732 L90.762,9.732 Z M102.564,9.732 L98.966,0.394 L96.474,0.394 L92.876,9.732 L95.13,9.732 L95.718,8.15 L99.722,8.15 L100.31,9.732 L102.564,9.732 Z M99.176,6.4 L96.264,6.4 L97.72,2.382 L99.176,6.4 Z M105.42,9.732 L105.42,0.394 L103.432,0.394 L103.432,9.732 L105.42,9.732 Z M113.134,9.732 L113.134,7.982 L109.186,7.982 L109.186,0.394 L107.184,0.394 L107.184,9.732 L113.134,9.732 Z M117.81,9.9 C120.316,9.9 121.548,8.612 121.548,6.904 C121.548,3.418 116.186,4.412 116.186,2.942 C116.186,2.382 116.662,2.018 117.502,2.018 C118.454,2.018 119.462,2.34 120.218,3.04 L121.324,1.556 C120.4,0.702 119.168,0.254 117.684,0.254 C115.486,0.254 114.142,1.542 114.142,3.096 C114.142,6.61 119.518,5.476 119.518,7.1 C119.518,7.646 119,8.136 117.894,8.136 C116.606,8.136 115.584,7.548 114.926,6.862 L113.834,8.416 C114.716,9.298 116.004,9.9 117.81,9.9 L117.81,9.9 Z" id="PAYMENT-DETAILS" fill="#2F2F2F" sketch:type="MSShapeGroup"></path>
                <path d="M0.285801714,24.5 L84.4193878,24.5" id="Line-10" stroke="#979797" stroke-linecap="square" opacity="0.4" sketch:type="MSShapeGroup"></path>
            </g>
        </g>
    </g>
</svg>