<?xml version="1.0" encoding="utf-8"?>
<!-- Generator: Adobe Illustrator 22.0.1, SVG Export Plug-In . SVG Version: 6.00 Build 0)  -->
<svg version="1.1" id="Layer_1" xmlns="http://www.w3.org/2000/svg" xmlns:xlink="http://www.w3.org/1999/xlink" x="0px" y="0px"
	 viewBox="0 0 52 52" style="enable-background:new 0 0 52 52;" xml:space="preserve">
<style type="text/css">
	.st0{fill:#707076;stroke:#FBF9FF;stroke-width:0.788;}
	.st1{fill:none;}
</style>
<title>noun_61018_cc</title>
<desc>Created with Sketch.</desc>
<g id="Page-1">
	<g id="Recurring-payments-Version-2-Copy" transform="translate(-704.000000, -4824.000000)">
		<g id="noun_61018_cc" transform="translate(705.000000, 4825.000000)">
			<path id="Shape" class="st0" d="M41.7,17.1c0.1-0.2,0.1-0.3,0.1-0.5c0-9.5-7.5-17.1-16.8-17.1S8.2,7.2,8.2,16.6
				c0,0.2,0,0.3,0.1,0.5c-2.2,1.3-3.7,3.8-3.7,6.6v19c0,4.3,3.4,7.7,7.6,7.7h25.7c4.2,0,7.6-3.5,7.6-7.7v-19
				C45.4,21,43.9,18.5,41.7,17.1z M25,3.9c6.6,0,12.1,5.4,12.4,12.1H12.6C12.9,9.3,18.4,3.9,25,3.9z M41.1,42.8
				c0,1.9-1.4,3.3-3.3,3.3H12.1c-1.8,0-3.3-1.5-3.3-3.3v-19c0-1.9,1.4-3.3,3.3-3.3h25.7c1.8,0,3.3,1.5,3.3,3.3V42.8z"/>
			<path id="Shape_1_" class="st0" d="M28.5,30.7c0-2.4-1.9-4.3-4.2-4.3s-4.2,1.9-4.2,4.3c0,1.4,0.7,2.6,1.6,3.3l-0.8,7.3
				c0,0.1,0.1,0.3,0.1,0.5c0.1,0.1,0.3,0.2,0.4,0.2H27l0,0c0.3,0,0.6-0.3,0.6-0.6c0-0.1,0-0.1-0.1-0.2L26.8,34
				C27.9,33.2,28.5,32,28.5,30.7z"/>
		</g>
	</g>
</g>
<rect x="5.6" y="5.5" class="st1" width="40.9" height="41.1"/>
</svg>
