<?xml version="1.0" encoding="utf-8"?>
<!-- Generator: Adobe Illustrator 22.0.1, SVG Export Plug-In . SVG Version: 6.00 Build 0)  -->
<svg version="1.1" id="Layer_1" xmlns="http://www.w3.org/2000/svg" xmlns:xlink="http://www.w3.org/1999/xlink" x="0px" y="0px"
	 viewBox="0 0 52 52" style="enable-background:new 0 0 52 52;" xml:space="preserve">
<style type="text/css">
	.st0{fill:#707076;stroke:#707077;stroke-width:0.4485;}
	.st1{fill:none;}
</style>
<title>noun_101409_cc</title>
<desc>Created with Sketch.</desc>
<g id="Page-1">
	<g id="Recurring-payments-Version-2-Copy" transform="translate(-705.000000, -4461.000000)">
		<g id="noun_101409_cc" transform="translate(706.000000, 4462.000000)">
			<path id="Shape" class="st0" d="M31,26.5c4.2-2.6,6.9-7.9,6.9-12.7c0-6.9-5.5-14.5-13-14.5S12,6.9,12,13.8c0,4.8,2.7,10,6.9,12.7
				c-10,2.7-17.3,12-17.3,23c0,0.7,0.6,1.3,1.3,1.3h44c0.7,0,1.3-0.6,1.3-1.3C48.3,38.5,41,29.2,31,26.5z M14,13.9
				C14,7.1,19.5,2,24.3,2s10.3,5.1,10.3,11.8s-5.5,11.8-10.3,11.8S14,20.6,14,13.9z M4.4,48C5.1,37.1,14.1,28.5,25,28.5
				S44.9,37.1,45.6,48H4.4z"/>
		</g>
	</g>
</g>
<rect class="st1" width="52" height="52"/>
</svg>
