<?xml version="1.0" encoding="UTF-8"?>
<svg width="52px" height="52px" viewBox="0 0 52 52" version="1.1" xmlns="http://www.w3.org/2000/svg" xmlns:xlink="http://www.w3.org/1999/xlink">
    <!-- Generator: Sketch 49.3 (51167) - http://www.bohemiancoding.com/sketch -->
    <title>noun_804407_cc</title>
    <desc>Created with Sketch.</desc>
    <defs></defs>
    <g id="Page-1" stroke="none" stroke-width="1" fill="none" fill-rule="evenodd">
        <g id="Recurring-payments-Version-2-Copy" transform="translate(-704.000000, -4217.000000)" fill="#707076" fill-rule="nonzero">
            <g id="noun_804407_cc" transform="translate(704.000000, 4217.000000)">
                <path d="M50.819045,22.7137785 L45.4503394,17.3446592 C46.4817719,16.9330802 47.4279462,16.3131473 48.2356559,15.5053753 C51.4722642,12.2678765 51.4716232,7.0006904 48.2356559,3.76447381 C46.6676734,2.19637045 44.582372,1.33218266 42.3650165,1.33218266 C40.1470199,1.33218266 38.0623595,2.19637045 36.494377,3.76447381 C35.6841031,4.57481014 35.0642179,5.51849295 34.6539527,6.54744058 L29.2852471,1.17896242 C28.5243333,0.418631029 27.5102088,0 26.4300573,0 C25.3499058,0 24.3357814,0.41798994 23.5735855,1.17960351 L14.5310827,10.2240852 C13.9054282,10.850429 13.9054282,11.8646316 14.5310827,12.4903344 L15.6144394,13.5737745 C15.9926527,13.952017 16.534331,14.1174179 17.0593424,14.0129204 C18.3215491,13.7628957 19.6478597,14.161653 20.5606999,15.0739225 C22.0729121,16.5862511 22.0729121,19.0473913 20.5606999,20.560361 C19.8279918,21.2931256 18.8536118,21.6957294 17.8176921,21.6957294 C16.7817723,21.6957294 15.8073923,21.2924845 15.0753252,20.560361 C14.1579977,19.6423217 13.7611943,18.3338594 14.0137638,17.0587336 C14.1176122,16.5343229 13.9528651,15.9926028 13.5746518,15.6143604 L12.4906541,14.5309202 C11.8643585,13.9045764 10.849593,13.9045764 10.2245795,14.5309202 L1.1807947,23.5747608 C-0.393598234,25.1492751 -0.393598234,27.7110662 1.1807947,29.2868626 L6.5501413,34.6559819 C5.51806775,35.0675609 4.57253454,35.6874938 3.7648248,36.4952658 C0.527575483,39.7321235 0.527575483,44.9999507 3.7648248,48.2368084 C5.33344839,49.8042706 7.41810874,50.6678173 9.63546427,50.6678173 C11.8534608,50.6678173 13.9381212,49.8036295 15.5054627,48.2361673 C16.3157366,47.4251899 16.9362628,46.4815071 17.346528,45.4525594 L22.7139515,50.8197554 C23.4748654,51.581369 24.4889898,52 25.5697824,52 C26.6505749,52 27.6646993,51.581369 28.4262542,50.8197554 L37.469398,41.7752737 C37.7700455,41.474603 37.9386389,41.0675116 37.9386389,40.6418286 C37.9386389,40.2161456 37.7694045,39.8090541 37.469398,39.5083835 L36.3860413,38.4255844 C36.007828,38.0473419 35.4648676,37.8838643 34.9424204,37.9857974 C33.6789317,38.2377453 32.352621,37.8370648 31.4404218,36.9254364 C29.9282097,35.4131078 29.9282097,32.9519676 31.4404218,31.4383568 C32.1731299,30.7055923 33.1475099,30.3029885 34.1834297,30.3029885 C35.2193495,30.3029885 36.1937295,30.7062334 36.9257966,31.4383568 C37.843124,32.355755 38.2392864,33.6648585 37.9873579,34.9406253 C37.8835095,35.465036 38.0476156,36.0067561 38.4258289,36.3849985 L39.5091856,37.4684387 C39.8098331,37.7691094 40.2175342,37.9377158 40.6425434,37.9377158 C41.0675526,37.9377158 41.4752537,37.7684683 41.7759012,37.4684387 L50.8203271,28.4245981 C52.3934379,26.851366 52.3934379,24.2895749 50.819045,22.7137785 Z M48.5529705,26.1596311 L41.2322997,33.4802249 C41.0726809,31.872374 40.3656144,30.3472236 39.1918711,29.1733899 C37.8540217,27.8354374 36.0751372,27.0988263 34.1827887,27.0988263 C32.2904402,27.0988263 30.5115556,27.8354374 29.1730652,29.1733899 C26.4114672,31.9364829 26.4114672,36.4305158 29.1737063,39.1936088 C30.3448854,40.363596 31.8532512,41.0739225 33.4795684,41.2329125 L29.7814117,44.9313542 L28.8198525,45.8929875 L26.6345489,48.0784594 L25.6729897,48.7881448 C25.4390103,48.7958379 25.190287,48.7644245 24.980026,48.5547884 L23.4864041,47.0616925 L22.5254859,46.1000592 L17.459351,41.0335339 C17.1522931,40.7264523 16.7426689,40.5642568 16.3259932,40.5642568 C16.111886,40.5642568 15.8958557,40.6072098 15.6907231,40.69568 C15.088146,40.9559621 14.7048044,41.5585857 14.7240356,42.2144196 C14.7663442,43.6369958 14.2394097,44.9711017 13.2387471,45.9705592 C12.2765469,46.9334747 10.9963911,47.4636552 9.63482323,47.4636552 C8.27325539,47.4636552 6.99309957,46.9334747 6.03025829,45.9712003 C4.04303593,43.9831837 4.04303593,40.7501726 6.03025829,38.7627971 C6.98989438,37.8037282 8.26940916,37.275471 9.63354115,37.275471 L9.78739062,37.2780353 C10.4367636,37.3004734 11.0457511,36.9145379 11.3060131,36.3106322 C11.5662751,35.7080087 11.4322979,35.0072986 10.9675443,34.5425091 L3.44751027,27.0206135 C3.12763157,26.7007101 3.12763157,26.1609133 3.44686923,25.84101 L10.768181,18.5197751 C10.9277998,20.127626 11.6348664,21.6521353 12.8086096,22.8266101 C14.146459,24.1645626 15.9253435,24.9011737 17.8176921,24.9011737 C19.7100406,24.9011737 21.4889251,24.1645626 22.8267745,22.8266101 C25.5890135,20.0641582 25.5890135,15.5701253 22.8267745,12.8070323 C21.6555954,11.636404 20.1465884,10.9260775 18.5209124,10.7670875 L25.83966,3.44649374 C26.050562,3.23621659 26.2999263,3.20480324 26.4300573,3.20480324 C26.5601883,3.20480324 26.8095527,3.23621659 27.0191726,3.44521156 L34.5411297,10.9664661 C35.0058834,11.4318966 35.7078216,11.5652431 36.3097576,11.30432 C36.9129758,11.0440379 37.2956763,10.4414143 37.2764452,9.78493934 C37.2341365,8.36364533 37.761071,7.0295394 38.7610926,6.03008186 C39.7232928,5.06716639 41.0034486,4.5369859 42.3650165,4.5369859 C43.7265843,4.5369859 45.0060991,5.06716639 45.9689404,6.03008186 C47.9561627,8.01745734 47.9555217,11.2511096 45.9689404,13.2384851 C45.0099453,14.1969129 43.7310716,14.7251701 42.3675806,14.7251701 L42.2124491,14.7226058 C41.5387166,14.695039 40.9534476,15.0854621 40.6931855,15.6893678 C40.4322825,16.2926324 40.5669008,16.9933425 41.0310133,17.458132 L48.5516884,24.9793865 C48.8722081,25.299931 48.8722081,25.8397278 48.5529705,26.1596311 Z" id="Shape"></path>
            </g>
        </g>
    </g>
</svg>