<?xml version="1.0" encoding="utf-8"?>
<!-- Generator: Adobe Illustrator 22.0.1, SVG Export Plug-In . SVG Version: 6.00 Build 0)  -->
<svg version="1.1" id="Layer_1" xmlns="http://www.w3.org/2000/svg" xmlns:xlink="http://www.w3.org/1999/xlink" x="0px" y="0px"
	 viewBox="0 0 52 52" style="enable-background:new 0 0 52 52;" xml:space="preserve">
<style type="text/css">
	.st0{fill:#707076;}
	.st1{fill:none;}
</style>
<title>noun_1469238_cc</title>
<desc>Created with Sketch.</desc>
<g id="Page-1">
	<g id="Recurring-payments-Version-2-Copy" transform="translate(-703.000000, -4094.000000)">
		<g id="noun_1469238_cc" transform="translate(703.000000, 4094.000000)">
			<g id="Group">
				<path id="Shape" class="st0" d="M44.3,52H7.9c-4.3,0-7.8-3.5-7.8-7.8v-43C0.1,0.5,0.6,0,1.3,0h36.6c0.7,0,1.2,0.5,1.2,1.2v43
					c0,2.9,2.4,5.2,5.2,5.2c0.7,0,1.2,0.5,1.2,1.2C45.5,51.3,45,52,44.3,52z M2.5,2.4v41.8c0,2.9,2.4,5.2,5.2,5.2h30.9
					c-1.2-1.4-2.1-3.3-2.1-5.2V2.4H2.5z"/>
				<path id="Shape_1_" class="st0" d="M44.3,52c-4.3,0-7.8-3.5-7.8-7.8V11.8c0-0.7,0.5-1.2,1.2-1.2h13c0.7,0,1.2,0.5,1.2,1.2v32.4
					C52.1,48.5,48.6,52,44.3,52z M39.1,13v31.2c0,2.9,2.4,5.2,5.2,5.2c2.9,0,5.2-2.4,5.2-5.2V13H39.1z"/>
				<path id="Shape_2_" class="st0" d="M19,36.9H9.4c-0.7,0-1.2-0.5-1.2-1.2c0-0.7,0.5-1.2,1.2-1.2H19c0.7,0,1.2,0.5,1.2,1.2
					C20.2,36.4,19.7,36.9,19,36.9z"/>
				<path id="Shape_3_" class="st0" d="M29.7,43.2H9.4c-0.7,0-1.2-0.5-1.2-1.2s0.5-1.2,1.2-1.2h20.3c0.7,0,1.2,0.5,1.2,1.2
					S30.4,43.2,29.7,43.2z"/>
				<path id="Shape_4_" class="st0" d="M17.4,22c0-3.3-2.6-4.5-4.5-5.5c-1.6-0.9-2.3-1.2-2.3-1.9c0-1.7,1-2.1,1.4-2.1
					c1.7-0.5,3.1,1.2,3.1,1.4c0.3,0.5,1.2,0.7,1.7,0.3c0.5-0.3,0.7-1.2,0.3-1.7c0-0.2-1.2-1.7-3.1-2.3V8c0-0.7-0.5-1.2-1.2-1.2
					S11.5,7.3,11.5,8v1.9h-0.2c-1.9,0.7-3.1,2.3-3.1,4.7c0,2.3,2.1,3.3,3.6,4.2c1.9,1,3.1,1.7,3.1,3.3c0,1.9-1.6,2.6-2.6,2.6
					c-0.5,0-1.7-0.2-1.7-2.1c0-0.7-0.5-1.2-1.2-1.2c-0.7,0-1.2,0.5-1.2,1.2c0,1.7,0.7,2.8,1.4,3.3c0.5,0.5,1.2,0.9,2.1,1v1.9
					c0,0.7,0.5,1.2,1.2,1.2s1.2-0.5,1.2-1.2v-2.1C15.9,26.2,17.4,24.4,17.4,22z"/>
			</g>
		</g>
	</g>
</g>
<rect class="st1" width="52" height="52"/>
</svg>
