<?xml version="1.0" encoding="utf-8"?>
<!-- Generator: Adobe Illustrator 22.0.1, SVG Export Plug-In . SVG Version: 6.00 Build 0)  -->
<svg version="1.1" id="Layer_1" xmlns="http://www.w3.org/2000/svg" xmlns:xlink="http://www.w3.org/1999/xlink" x="0px" y="0px"
	 viewBox="0 0 53 53" style="enable-background:new 0 0 53 53;" xml:space="preserve">
<style type="text/css">
	.st0{fill:#707076;stroke:#FBF9FF;}
	.st1{fill:none;}
</style>
<title>noun_978470_cc</title>
<desc>Created with Sketch.</desc>
<g id="Page-1">
	<g id="Recurring-payments-Version-2-Copy" transform="translate(-698.000000, -4584.000000)">
		<g id="noun_978470_cc" transform="translate(699.000000, 4585.000000)">
			<g id="Group">
				<g id="Shape">
					<path class="st0" d="M16.7,41.4c0.8,1.7,3.2,1.7,4,0.1l13.8-26.1l5.4,10.3c0.7,1.4,2.6,1.6,3.7,0.5l7.3-7.9
						c0.8-0.9,0.8-2.3-0.1-3.2c-0.9-0.8-2.3-0.8-3.2,0.1l-5.2,5.6L36.5,9.5c-0.8-1.6-3.2-1.6-4,0l-13.7,26l-7.1-15.1
						c-0.6-1.3-2.2-1.7-3.4-0.9l-7.9,5.7c-1,0.7-1.3,2.1-0.5,3.2s2.1,1.3,3.2,0.5l5.7-4.1L16.7,41.4z"/>
				</g>
			</g>
		</g>
	</g>
</g>
<rect x="0.5" y="0.5" class="st1" width="52" height="52"/>
</svg>
