<?xml version="1.0" encoding="utf-8"?>
<!-- Generator: Adobe Illustrator 22.0.1, SVG Export Plug-In . SVG Version: 6.00 Build 0)  -->
<svg version="1.1" id="Layer_1" xmlns="http://www.w3.org/2000/svg" xmlns:xlink="http://www.w3.org/1999/xlink" x="0px" y="0px"
	 viewBox="0 0 52 52" style="enable-background:new 0 0 52 52;" xml:space="preserve">
<style type="text/css">
	.st0{fill:#707076;}
	.st1{fill:none;}
</style>
<title>noun_1370236_cc</title>
<desc>Created with Sketch.</desc>
<g id="Page-1">
	<g id="Recurring-payments-Version-2-Copy" transform="translate(-702.000000, -4709.000000)">
		<g id="noun_1370236_cc" transform="translate(702.000000, 4709.000000)">
			<g id="Group">
				<g id="Shape">
					<path class="st0" d="M48.6,8.4c1.6,0,2.9,1.3,2.9,2.8v29.5c0,1.6-1.3,2.8-2.9,2.8H3.4c-1.6,0-2.9-1.3-2.9-2.8V11.3
						c0-1.6,1.3-2.8,2.9-2.8H48.6z M23.7,28.9L4.1,13.6c-0.4-0.3-0.8-0.2-0.8,0.4v25.8c0,0.5,0.4,1,1,1h43.3c0.5,0,1-0.4,1-1V13.9
						c0-0.5-0.3-0.7-0.8-0.4L28.3,28.9C27,29.9,25,29.9,23.7,28.9z M45.2,11.3H6.8c-0.5,0-0.6,0.3-0.2,0.6l18.7,14.6
						c0.4,0.3,1.1,0.3,1.5,0l18.7-14.6C45.8,11.5,45.7,11.3,45.2,11.3z"/>
				</g>
			</g>
		</g>
	</g>
</g>
<rect class="st1" width="52" height="52"/>
</svg>
