<?xml version="1.0" encoding="utf-8"?>
<!-- Generator: Adobe Illustrator 22.0.1, SVG Export Plug-In . SVG Version: 6.00 Build 0)  -->
<svg version="1.1" id="Layer_1" xmlns="http://www.w3.org/2000/svg" xmlns:xlink="http://www.w3.org/1999/xlink" x="0px" y="0px"
	 viewBox="0 0 52 52" style="enable-background:new 0 0 52 52;" xml:space="preserve">
<style type="text/css">
	.st0{fill:#707076;}
	.st1{fill:none;}
</style>
<title>noun_719153_cc</title>
<desc>Created with Sketch.</desc>
<g id="Page-1">
	<g id="Recurring-payments-Version-2-Copy" transform="translate(-701.000000, -4956.000000)">
		<g id="noun_719153_cc" transform="translate(701.000000, 4956.000000)">
			<g id="Group">
				<path id="Shape" class="st0" d="M39.9,13.4c-0.7-0.7-1.7-0.7-2.4,0c-0.7,0.7-0.7,1.8,0,2.5L47.3,26L37.4,36
					c-0.7,0.7-0.7,1.8,0,2.5c0.3,0.4,0.8,0.5,1.2,0.5c0.4,0,0.9-0.2,1.2-0.5L51,27.2c0.3-0.4,0.5-0.8,0.5-1.2c0-0.4-0.2-0.9-0.5-1.2
					L39.9,13.4z"/>
				<path id="Shape_1_" class="st0" d="M14.6,13.4c-0.7-0.7-1.7-0.7-2.4,0L1,24.7c-0.3,0.4-0.5,0.8-0.5,1.2c0,0.4,0.2,0.9,0.5,1.2
					l11.1,11.4c0.3,0.4,0.8,0.5,1.2,0.5s0.9-0.2,1.2-0.5c0.7-0.7,0.7-1.8,0-2.5L4.7,26l9.9-10C15.3,15.3,15.3,14.1,14.6,13.4z"/>
				<path id="Shape_2_" class="st0" d="M32.8,13.2c-0.9-0.4-1.9-0.2-2.3,0.7L18.5,36.5c-0.4,0.9-0.2,1.9,0.7,2.4
					C19.5,39,19.8,39,20,39c0.6,0,1.2-0.4,1.6-1l12-22.6C34,14.7,33.6,13.6,32.8,13.2z"/>
			</g>
		</g>
	</g>
</g>
<rect class="st1" width="52" height="52"/>
</svg>
