<?xml version="1.0" encoding="utf-8"?>
<!-- Generator: Adobe Illustrator 22.0.1, SVG Export Plug-In . SVG Version: 6.00 Build 0)  -->
<svg version="1.1" id="Layer_1" xmlns="http://www.w3.org/2000/svg" xmlns:xlink="http://www.w3.org/1999/xlink" x="0px" y="0px"
	 viewBox="0 0 52 52" style="enable-background:new 0 0 52 52;" xml:space="preserve">
<style type="text/css">
	.st0{fill:#707076;}
	.st1{fill:none;}
</style>
<title>noun_610664_cc</title>
<desc>Created with Sketch.</desc>
<g id="Page-1">
	<g id="Recurring-payments-Version-2-Copy" transform="translate(-699.000000, -4344.000000)">
		<g id="noun_610664_cc" transform="translate(699.000000, 4344.000000)">
			<g id="Group">
				<g id="Shape">
					<path class="st0" d="M20.5,21.3c0,0.8,0.7,1.5,1.5,1.5h17c0.8,0,1.5-0.7,1.5-1.5c0-0.8-0.7-1.5-1.5-1.5H22
						C21.2,19.8,20.5,20.5,20.5,21.3z M38.9,33.4c-0.2,0-0.4,0-0.7,0c-0.2,0-0.4,0-0.7,0H23.8c-0.2,0-0.4,0-0.7,0
						c-0.2,0-0.4,0-0.7,0h-3.8L18,31.1h25.1c2.3,0,4.6-1.8,5.2-4l3-11.4c0.2-0.8-0.3-1.6-1.1-1.8c-0.8-0.2-1.6,0.3-1.8,1.1l-3,11.4
						c-0.2,0.9-1.3,1.8-2.3,1.8h-26l-4.6-16.6c-0.2-0.6-0.6-1-1.2-1.1l-9-1.5c-0.8-0.1-1.6,0.4-1.7,1.2s0.4,1.6,1.2,1.7l8.1,1.3
						l6.2,22.1c0.2,0.7,0.8,1.1,1.5,1.1h1.1c-0.2,0.6-0.4,1.2-0.4,1.9c0,2.7,2.2,4.9,4.9,4.9s4.9-2.2,4.9-4.9c0-0.7-0.1-1.3-0.4-1.9
						h6c-0.2,0.6-0.4,1.2-0.4,1.9c0,2.7,2.2,4.9,4.9,4.9s4.9-2.2,4.9-4.9c0-0.7-0.1-1.3-0.4-1.9h1.9c0.8,0,1.5-0.7,1.5-1.5
						c0-0.8-0.7-1.5-1.5-1.5c-0.1,0-0.2,0-0.4,0H38.9z M36.4,38.2c0-1,0.8-1.9,1.9-1.9c1,0,1.9,0.8,1.9,1.9c0,1-0.8,1.9-1.9,1.9
						C37.2,40.1,36.4,39.3,36.4,38.2z M21.3,38.2c0-1,0.8-1.9,1.9-1.9c1,0,1.9,0.8,1.9,1.9c0,1-0.8,1.9-1.9,1.9
						C22.1,40.1,21.3,39.3,21.3,38.2z"/>
				</g>
			</g>
		</g>
	</g>
</g>
<rect class="st1" width="52" height="52"/>
</svg>
