<?xml version="1.0" encoding="UTF-8"?>
<svg width="21px" height="25px" viewBox="0 0 21 25" version="1.1" xmlns="http://www.w3.org/2000/svg" xmlns:xlink="http://www.w3.org/1999/xlink">
    <title>calendar</title>
    <g id="Page-2" stroke="none" stroke-width="1" fill="none" fill-rule="evenodd">
        <g id="version-3" transform="translate(-974.000000, -42.000000)" fill="#6450F0" fill-rule="nonzero">
            <g id="Group" transform="translate(974.000000, 40.000000)">
                <g id="calendar" transform="translate(0.000000, 2.545455)">
                    <path d="M18.6666667,21.1545455 L2.33333333,21.1545455 L2.33333333,8.50454545 L18.6666667,8.50454545 M15.1666667,0.454545455 L15.1666667,2.75454545 L5.83333333,2.75454545 L5.83333333,0.454545455 L3.5,0.454545455 L3.5,2.75454545 L2.33333333,2.75454545 C1.03833333,2.75454545 0,3.77804545 0,5.05454545 L0,21.1545455 C0,22.4248004 1.04466892,23.4545455 2.33333333,23.4545455 L18.6666667,23.4545455 C19.9553311,23.4545455 21,22.4248004 21,21.1545455 L21,5.05454545 C21,3.77804545 19.95,2.75454545 18.6666667,2.75454545 L17.5,2.75454545 L17.5,0.454545455 M16.3333333,13.1045455 L10.5,13.1045455 L10.5,18.8545455 L16.3333333,18.8545455 L16.3333333,13.1045455 Z" id="Shape"></path>
                </g>
            </g>
        </g>
    </g>
</svg>