<?xml version="1.0" encoding="UTF-8"?>
<svg width="564px" height="158px" viewBox="0 0 564 158" version="1.1" xmlns="http://www.w3.org/2000/svg" xmlns:xlink="http://www.w3.org/1999/xlink">
    <!-- Generator: Sketch 49.3 (51167) - http://www.bohemiancoding.com/sketch -->
    <title>Group 2</title>
    <desc>Created with Sketch.</desc>
    <defs></defs>
    <g id="Insights" stroke="none" stroke-width="1" fill="none" fill-rule="evenodd">
        <g id="Desktop-HD" transform="translate(-388.000000, -685.000000)" fill="#2C2A4F">
            <g id="Group-2" transform="translate(382.000000, 659.000000)">
                <path d="M75.96,87.52 L82.44,92.2 C75.48,104.8 65.16,113.68 47.16,113.68 C23.88,113.68 6.84,94.96 6.84,70 C6.84,45.04 25.44,26.32 47.76,26.32 C64.08,26.32 76.2,34.6 82.44,47.8 L75.72,52.48 C69.12,39.64 59.4,34 47.52,34 C29.88,34 15.96,49.72 15.96,70 C15.96,90.28 28.8,106 47.4,106 C60.72,106 69,100.6 75.96,87.52 Z M141.52,71.8 L141.52,112 L133.36,112 L133.36,72.76 C133.36,63.28 126.88,58.24 118.12,58.24 C108.88,58.24 99.4,66.52 99.4,79 L99.4,112 L91.24,112 L91.24,28 L99.4,28 L99.4,63.52 C103.24,55.84 111.64,50.8 120.52,50.8 C132.28,50.8 141.52,57.64 141.52,71.8 Z M200.84,112 L192.68,112 C190.88,109.84 189.08,106.12 189.08,99.4 C185.12,108.64 176.96,113.68 167.96,113.68 C156.44,113.68 148.28,106 148.28,95.56 C148.28,84.16 157.16,78.16 168.44,76.36 L189.08,73 L189.08,70.6 C189.08,62.08 183.92,58 174.2,58 C163.4,58 159.32,63.04 159.32,67.96 C159.32,68.56 159.44,69.4 159.56,69.88 L152.6,72.16 C151.88,70.48 151.64,68.8 151.64,67.24 C151.64,58.24 160.88,50.8 174.2,50.8 C189.2,50.8 197.24,58.12 197.24,70.24 L197.24,97.12 C197.24,103.96 197.96,107.2 200.84,112 Z M169.04,106 C181.4,106 189.08,94.72 189.08,82.12 L189.08,79.84 L170.12,82.96 C160.88,84.52 156.68,88.72 156.68,95.08 C156.68,101.8 161.36,106 169.04,106 Z M236.64,51.4 L235.2,58.96 C233.52,58.36 232.44,58.24 230.52,58.24 C221.88,58.24 214.68,67.24 214.68,79.48 L214.68,112 L206.52,112 L206.52,52.48 L214.68,52.48 L214.68,63.28 C217.92,56.2 224.04,50.8 232.2,50.8 C233.52,50.8 235.44,51.04 236.64,51.4 Z M239.56,115.12 L247.48,117.28 C246.88,118.72 246.64,119.68 246.64,121.48 C246.64,127 252.28,130.72 263.8,130.72 C277,130.72 283.36,122.92 283.36,108.16 L283.36,99.04 C279.76,106.12 272.2,111.04 262.72,111.04 C247.12,111.04 234.88,99.52 234.88,80.92 C234.88,61.6 247.48,50.8 262.6,50.8 C271.6,50.8 279.52,54.88 283.36,62.44 L283.36,52.48 L291.52,52.48 L291.52,108.76 C291.52,126.88 281.68,138.16 263.68,138.16 C246.4,138.16 238.24,130.84 238.24,121 C238.24,118.48 238.84,116.44 239.56,115.12 Z M263.8,58 C251.92,58 243.28,66.64 243.28,80.92 C243.28,95.2 252.04,103.84 263.8,103.84 C275.56,103.84 284.32,95.2 284.32,80.92 C284.32,66.64 275.56,58 263.8,58 Z M355.64,83.44 L305.72,83.44 C306.2,96.16 313.88,106.48 326.72,106.48 C337.76,106.48 343.88,100.36 347.48,92.68 L353.48,96.28 C347.96,107.2 339.8,113.68 326.36,113.68 C310.16,113.68 297.08,100.6 297.08,82.24 C297.08,63.88 310.76,50.8 326.72,50.8 C345.08,50.8 355.64,63.16 355.64,80.56 L355.64,83.44 Z M326.72,58 C315.68,58 308,66.04 306.2,76.48 L346.76,76.48 C346.28,64.24 336.56,58 326.72,58 Z M362.4,112 L362.4,28 L370.56,28 L370.56,63.16 C375.24,55.72 383.88,50.8 392.76,50.8 C408.84,50.8 420.36,63.88 420.36,82.24 C420.36,100.6 408.12,113.68 391.8,113.68 C382.68,113.68 374.04,108.04 370.56,101.56 L370.56,112 L362.4,112 Z M390.96,106.24 C402.84,106.24 411.96,96.76 411.96,82.24 C411.96,67.72 402.84,58.24 390.96,58.24 C379.08,58.24 369.96,67.72 369.96,82.24 C369.96,96.76 379.08,106.24 390.96,106.24 Z M481.36,83.44 L431.44,83.44 C431.92,96.16 439.6,106.48 452.44,106.48 C463.48,106.48 469.6,100.36 473.2,92.68 L479.2,96.28 C473.68,107.2 465.52,113.68 452.08,113.68 C435.88,113.68 422.8,100.6 422.8,82.24 C422.8,63.88 436.48,50.8 452.44,50.8 C470.8,50.8 481.36,63.16 481.36,80.56 L481.36,83.44 Z M452.44,58 C441.4,58 433.72,66.04 431.92,76.48 L472.48,76.48 C472,64.24 462.28,58 452.44,58 Z M541.76,83.44 L491.84,83.44 C492.32,96.16 500,106.48 512.84,106.48 C523.88,106.48 530,100.36 533.6,92.68 L539.6,96.28 C534.08,107.2 525.92,113.68 512.48,113.68 C496.28,113.68 483.2,100.6 483.2,82.24 C483.2,63.88 496.88,50.8 512.84,50.8 C531.2,50.8 541.76,63.16 541.76,80.56 L541.76,83.44 Z M512.84,58 C501.8,58 494.12,66.04 492.32,76.48 L532.88,76.48 C532.4,64.24 522.68,58 512.84,58 Z" id="Chargebee" opacity="0.5"></path>
                <path d="M361.57,119 L373.45,119 L373.45,171.02 L405.04,171.02 L405.04,182 L361.57,182 L361.57,119 Z M430.37,119 L441.71,119 L467.18,182 L454.49,182 L448.19,165.53 L423.89,165.53 L417.59,182 L404.9,182 L430.37,119 Z M427.94,154.91 L444.14,154.91 L438.38,139.79 C438.139999,139.189997 437.900001,138.530004 437.66,137.81 C437.419999,137.149997 437.165001,136.415004 436.895,135.605 C436.624999,134.794996 436.340001,133.910005 436.04,132.95 C435.739999,133.910005 435.455001,134.794996 435.185,135.605 C434.914999,136.415004 434.660001,137.149997 434.42,137.81 C434.179999,138.530004 433.940001,139.189997 433.7,139.79 L427.94,154.91 Z M467.67,119 L493.59,119 C500.130033,119 505.124983,120.349986 508.575,123.05 C512.025017,125.750013 513.75,129.529976 513.75,134.39 C513.75,136.010008 513.510002,137.524993 513.03,138.935 C512.549998,140.345007 511.905004,141.604994 511.095,142.715 C510.284996,143.825006 509.355005,144.814996 508.305,145.685 C507.254995,146.555004 506.160006,147.259997 505.02,147.8 C506.640008,148.460003 508.139993,149.239995 509.52,150.14 C510.900007,151.040005 512.099995,152.104994 513.12,153.335 C514.140005,154.565006 514.934997,155.989992 515.505,157.61 C516.075003,159.230008 516.36,161.05999 516.36,163.1 C516.36,166.100015 515.760006,168.769988 514.56,171.11 C513.359994,173.450012 511.75501,175.429992 509.745,177.05 C507.73499,178.670008 505.380014,179.899996 502.68,180.74 C499.979986,181.580004 497.100015,182 494.04,182 L467.67,182 L467.67,119 Z M479.55,171.38 L493.32,171.38 C497.160019,171.38 499.979991,170.630008 501.78,169.13 C503.580009,167.629993 504.48,165.470014 504.48,162.65 C504.48,159.829986 503.580009,157.670007 501.78,156.17 C499.979991,154.669993 497.160019,153.92 493.32,153.92 L479.55,153.92 L479.55,171.38 Z M479.55,143.48 L492.69,143.48 C496.050017,143.48 498.479992,142.910006 499.98,141.77 C501.480007,140.629994 502.23,138.860012 502.23,136.46 C502.23,134.059988 501.480007,132.290006 499.98,131.15 C498.479992,130.009994 496.050017,129.44 492.69,129.44 L479.55,129.44 L479.55,143.48 Z M533.59,134.75 C533.59,137.210012 534.804988,139.189993 537.235,140.69 C539.665012,142.190008 543.519974,143.479995 548.8,144.56 C555.700035,146.000007 560.859983,148.249985 564.28,151.31 C567.700017,154.370015 569.41,158.569973 569.41,163.91 C569.41,166.490013 568.870005,168.949988 567.79,171.29 C566.709995,173.630012 565.16501,175.684991 563.155,177.455 C561.14499,179.225009 558.685015,180.634995 555.775,181.685 C552.864985,182.735005 549.580018,183.26 545.92,183.26 C542.01998,183.26 538.555015,182.750005 535.525,181.73 C532.494985,180.709995 529.885011,179.300009 527.695,177.5 C525.504989,175.699991 523.735007,173.570012 522.385,171.11 C521.034993,168.649988 520.060003,165.980014 519.46,163.1 L529.9,157.79 C530.740004,162.470023 532.404988,166.144987 534.895,168.815 C537.385012,171.485013 541.029976,172.82 545.83,172.82 C549.430018,172.82 552.27999,172.040008 554.38,170.48 C556.48001,168.919992 557.53,166.880013 557.53,164.36 C557.53,161.419985 556.210013,159.200007 553.57,157.7 C550.929987,156.199993 547.060026,154.940005 541.96,153.92 C539.079986,153.379997 536.440012,152.585005 534.04,151.535 C531.639988,150.484995 529.570009,149.180008 527.83,147.62 C526.089991,146.059992 524.725005,144.24501 523.735,142.175 C522.744995,140.10499 522.25,137.720013 522.25,135.02 C522.25,132.439987 522.789995,130.085011 523.87,127.955 C524.950005,125.824989 526.46499,123.995008 528.415,122.465 C530.36501,120.934992 532.689987,119.765004 535.39,118.955 C538.090013,118.144996 541.089984,117.74 544.39,117.74 C550.33003,117.74 555.30998,119.074987 559.33,121.745 C563.35002,124.415013 566.34999,128.479973 568.33,133.94 L558.97,139.34 C557.769994,135.739982 555.925012,132.98001 553.435,131.06 C550.944988,129.13999 547.840019,128.18 544.12,128.18 C542.739993,128.18 541.405006,128.314999 540.115,128.585 C538.824994,128.855001 537.700005,129.259997 536.74,129.8 C535.779995,130.340003 535.015003,131.014996 534.445,131.825 C533.874997,132.635004 533.59,133.609994 533.59,134.75 Z" id="LABS"></path>
            </g>
        </g>
    </g>
</svg>