<?xml version="1.0" encoding="UTF-8"?>
<svg width="60px" height="60px" viewBox="0 0 60 60" version="1.1" xmlns="http://www.w3.org/2000/svg" xmlns:xlink="http://www.w3.org/1999/xlink">
    <!-- Generator: Sketch 49.3 (51167) - http://www.bohemiancoding.com/sketch -->
    <title>idea</title>
    <desc>Created with Sketch.</desc>
    <defs></defs>
    <g id="idea" stroke="none" stroke-width="1" fill="none" fill-rule="evenodd">
        <g id="lightbulb-on-outline" transform="translate(3.000000, 3.000000)" fill="#4B4A50" fill-rule="nonzero" stroke="#FFFFFF">
            <path d="M47.5,25 L55,25 L55,30 L47.5,30 L47.5,25 Z M0,25 L7.5,25 L7.5,30 L0,30 L0,25 Z M30,0 L30,7.5 L25,7.5 L25,0 L30,0 Z M9.8,6.25 L15.125,11.6 L11.575,15.125 L6.25,9.825 L9.8,6.25 Z M39.875,11.575 L45.175,6.25 L48.75,9.825 L43.425,15.125 L39.875,11.575 Z M27.5,12.5 C35.7842712,12.5 42.5,19.2157288 42.5,27.5 C42.5,33.05 39.475,37.9 35,40.5 L35,45 C35,46.3807119 33.8807119,47.5 32.5,47.5 L22.5,47.5 C21.1192881,47.5 20,46.3807119 20,45 L20,40.5 C15.525,37.9 12.5,33.05 12.5,27.5 C12.5,19.2157288 19.2157288,12.5 27.5,12.5 Z M32.5,50 L32.5,52.5 C32.5,53.8807119 31.3807119,55 30,55 L25,55 C23.6192881,55 22.5,53.8807119 22.5,52.5 L22.5,50 L32.5,50 Z M25,42.5 L30,42.5 L30,37.175 C34.325,36.075 37.5,32.15 37.5,27.5 C37.5,21.9771525 33.0228475,17.5 27.5,17.5 C21.9771525,17.5 17.5,21.9771525 17.5,27.5 C17.5,32.15 20.675,36.075 25,37.175 L25,42.5 Z" id="Shape"></path>
        </g>
    </g>
</svg>