<?xml version="1.0" encoding="UTF-8"?>
<svg width="60px" height="60px" viewBox="0 0 60 60" version="1.1" xmlns="http://www.w3.org/2000/svg" xmlns:xlink="http://www.w3.org/1999/xlink">
    <!-- Generator: Sketch 49.3 (51167) - http://www.bohemiancoding.com/sketch -->
    <title>input</title>
    <desc>Created with Sketch.</desc>
    <defs></defs>
    <g id="input" stroke="none" stroke-width="1" fill="none" fill-rule="evenodd">
        <g id="comment-account-outline" transform="translate(5.000000, 5.000000)" fill="#4B4A50" fill-rule="nonzero" stroke="#FFFFFF">
            <path d="M17.85,51 C16.4416739,51 15.3,49.8583261 15.3,48.45 L15.3,40.8 L5.1,40.8 C2.28334778,40.8 0,38.5166522 0,35.7 L0,5.1 C0,2.2695 2.295,0 5.1,0 L45.9,0 C48.7166522,0 51,2.28334778 51,5.1 L51,35.7 C51,38.5166522 48.7166522,40.8 45.9,40.8 L30.345,40.8 L20.91,50.2605 C20.4,50.745 19.7625,51 19.125,51 L17.85,51 Z M20.4,35.7 L20.4,43.554 L28.254,35.7 L45.9,35.7 L45.9,5.1 L5.1,5.1 L5.1,35.7 L20.4,35.7 Z M35.7,30.6 L15.3,30.6 L15.3,28.05 C15.3,24.6585 22.1085,22.95 25.5,22.95 C28.8915,22.95 35.7,24.6585 35.7,28.05 L35.7,30.6 Z M25.5,10.2 C28.3166522,10.2 30.6,12.4833478 30.6,15.3 C30.6,18.1166522 28.3166522,20.4 25.5,20.4 C22.6833478,20.4 20.4,18.1166522 20.4,15.3 C20.4,12.4833478 22.6833478,10.2 25.5,10.2 Z" id="Shape"></path>
        </g>
    </g>
</svg>