<svg width="51" height="51" viewBox="0 0 51 51" fill="none" xmlns="http://www.w3.org/2000/svg">
<path d="M25.1962 50.684C39.0043 50.684 50.198 39.4903 50.198 25.6821C50.198 11.874 39.0043 0.680298 25.1962 0.680298C11.388 0.680298 0.194336 11.874 0.194336 25.6821C0.194336 39.4903 11.388 50.684 25.1962 50.684Z" fill="#DAC0FE"/>
<path d="M22.179 26.7598L0.410156 29.3462C2.02666 40.3384 10.7557 49.0675 21.8557 50.5762L24.4421 29.0229C24.6576 27.7297 23.4722 26.5443 22.179 26.7598Z" fill="white"/>
<path d="M41.5773 34.9501L44.7025 8.7628C44.8103 7.4696 43.7326 6.39192 42.4394 6.49969L16.2521 9.62491C14.5278 9.84045 13.8812 11.888 15.0667 13.0735L38.1287 36.1355C39.3142 37.3209 41.3617 36.5666 41.5773 34.9501Z" fill="url(#paint0_linear)"/>
<path d="M31.1241 45.2957L34.2494 19.1084C34.3571 17.8152 33.2795 16.7375 31.9863 16.8453L5.79898 20.0783C4.07472 20.2938 3.42812 22.3414 4.61355 23.5268L27.6756 46.5888C28.861 47.7743 31.0164 47.0199 31.1241 45.2957Z" fill="url(#paint1_linear)"/>
<defs>
<linearGradient id="paint0_linear" x1="23.186" y1="28.0695" x2="38.4422" y2="12.5749" gradientUnits="userSpaceOnUse">
<stop stop-color="#DAC0FF"/>
<stop offset="1" stop-color="#4D0EA6"/>
</linearGradient>
<linearGradient id="paint1_linear" x1="10.4412" y1="40.5277" x2="26.6508" y2="24.7948" gradientUnits="userSpaceOnUse">
<stop stop-color="#FFFBE7" stop-opacity="0"/>
<stop offset="1" stop-color="white"/>
</linearGradient>
</defs>
</svg>
