<svg width="57" height="48" viewBox="0 0 57 48" fill="none" xmlns="http://www.w3.org/2000/svg">
<path d="M24.4537 47.7C37.3691 47.7 47.8391 37.23 47.8391 24.3146C47.8391 11.3993 37.3691 0.92926 24.4537 0.92926C11.5383 0.92926 1.06836 11.3993 1.06836 24.3146C1.06836 37.23 11.5383 47.7 24.4537 47.7Z" fill="#DAC0FE"/>
<path d="M51.1802 35.7379C44.4986 42.4194 33.722 42.4194 27.0404 35.7379C20.3589 29.0564 20.3589 18.2797 27.0404 11.5982C33.722 4.91662 44.4986 4.91662 51.1802 11.5982C57.8617 18.2797 57.8617 29.0564 51.1802 35.7379Z" fill="url(#paint0_linear)"/>
<path d="M39.3261 27.6554L27.0407 39.9408C24.8853 42.0961 21.2213 42.0961 19.066 39.9408L6.78056 27.6554C4.62523 25.5001 4.62523 21.836 6.78056 19.6806L19.1737 7.50303C21.3291 5.3477 24.9931 5.3477 27.1484 7.50303L39.4338 19.7884C41.5892 21.9437 41.5892 25.5001 39.3261 27.6554Z" fill="url(#paint1_linear)"/>
<path d="M21.0055 20.7583L7.96577 7.71857C3.6551 11.9215 0.960938 17.8486 0.960938 24.4224C0.960938 30.7806 3.43957 36.4922 7.5347 40.6951L21.0055 27.2243C22.8376 25.3923 22.8376 22.4826 21.0055 20.7583Z" fill="white"/>
<defs>
<linearGradient id="paint0_linear" x1="22.1247" y1="23.7113" x2="56.2001" y2="23.7113" gradientUnits="userSpaceOnUse">
<stop stop-color="#DAC0FF"/>
<stop offset="1" stop-color="#4D0EA6"/>
</linearGradient>
<linearGradient id="paint1_linear" x1="-7.06744" y1="23.7113" x2="43.1007" y2="23.7113" gradientUnits="userSpaceOnUse">
<stop stop-color="#FFFBE7" stop-opacity="0"/>
<stop offset="1" stop-color="white"/>
</linearGradient>
</defs>
</svg>
