<?xml version="1.0" encoding="utf-8"?>
<!-- Generator: Adobe Illustrator 24.1.2, SVG Export Plug-In . SVG Version: 6.00 Build 0)  -->
<svg version="1.1" id="Layer_1" xmlns="http://www.w3.org/2000/svg" xmlns:xlink="http://www.w3.org/1999/xlink" x="0px" y="0px"
	 viewBox="0 0 31.5 34.2" style="enable-background:new 0 0 31.5 34.2;" xml:space="preserve">
<style type="text/css">
	.st0{fill:none;}
	.st1{fill:#020202;}
</style>
<g>
	<path class="st0" d="M18.4,20.3v-1.8c0-2.2,1.8-4.1,4.1-4.1h1.6c0.1-0.6,0.1-1.1,0.1-1.7V6.6L14,2.2C13.7,2.1,13.4,2,13.1,2l0-1
		l0,1c-0.3,0-0.5,0.1-0.9,0.2L2,6.6v6.2c0,3.4,1.1,6.6,3.2,9.4c2,2.7,4.7,4.7,8,6c0.8-0.3,1.5-0.7,2.2-1v-2.9
		C15.4,22.3,16.7,20.8,18.4,20.3z"/>
	<path class="st1" d="M25.6,5L14.8,0.4C14.2,0.1,13.7,0,13.1,0h0c0,0,0,0,0,0c-0.5,0-1.1,0.1-1.6,0.4L0.6,5C0.2,5.2,0,5.5,0,5.9v6.9
		c0,3.8,1.2,7.5,3.5,10.6c2.3,3.1,5.5,5.4,9.2,6.8c0.1,0,0.2,0.1,0.3,0.1s0.2,0,0.3-0.1c0.7-0.2,1.3-0.5,1.9-0.8v-2.2
		c-0.7,0.4-1.5,0.7-2.2,1c-3.2-1.3-6-3.3-8-6c-2.1-2.8-3.2-6-3.2-9.4V6.6l10.2-4.4C12.6,2.1,12.9,2,13.1,2c0.3,0,0.5,0.1,0.9,0.2
		l10.2,4.4v6.2c0,0.6,0,1.1-0.1,1.7h0.2c0.6,0,1.2,0.2,1.8,0.4c0.1-0.7,0.1-1.4,0.1-2.1V5.9C26.2,5.5,26,5.2,25.6,5z"/>
	<path class="st1" d="M28.4,20.3v-1.8c0-1.6-0.9-3-2.3-3.6c-0.5-0.3-1.1-0.4-1.8-0.4h-1.8c-2.2,0-4.1,1.8-4.1,4.1v1.8
		c-1.8,0.4-3.1,2-3.1,3.9v5.9c0,2.2,1.8,4,4,4h8.1c2.2,0,4-1.8,4-4v-5.9C31.5,22.3,30.2,20.8,28.4,20.3z M20.4,18.6
		c0-1.1,0.9-2.1,2.1-2.1h1.8c0.5,0,1,0.2,1.4,0.5c0.4,0.4,0.7,0.9,0.7,1.5v1.7h-6V18.6z M29.5,30.2c0,1.1-0.9,2-2,2h-8.1
		c-1.1,0-2-0.9-2-2v-5.9c0-1.1,0.9-2,2-2h8.1c1.1,0,2,0.9,2,2V30.2z"/>
	<path class="st1" d="M24.8,26.5c0-0.8-0.6-1.4-1.4-1.4s-1.4,0.6-1.4,1.4c0,0.5,0.3,0.9,0.7,1.2v1c0,0.4,0.3,0.7,0.7,0.7
		c0.4,0,0.7-0.3,0.7-0.7v-1C24.5,27.4,24.8,27,24.8,26.5z"/>
</g>
</svg>
