<?xml version="1.0" encoding="UTF-8"?>
<svg width="1440px" height="494px" viewBox="0 0 1440 494" version="1.1" xmlns="http://www.w3.org/2000/svg" xmlns:xlink="http://www.w3.org/1999/xlink">
    <!-- Generator: Sketch 52.4 (67378) - http://www.bohemiancoding.com/sketch -->
    <title>chargebee-icon-black</title>
    <desc>Created with Sketch.</desc>
    <defs>
        <polygon id="path-1" points="0 0.117757463 150.027177 0.117757463 150.027177 150.144146 0 150.144146"></polygon>
        <polygon id="path-3" points="0.069982363 0.000168556701 327.942538 0.000168556701 327.942538 327 0.069982363 327"></polygon>
        <polygon id="path-5" points="0 595 1724 595 1724 0 0 0"></polygon>
    </defs>
    <g id="Page-4" stroke="none" stroke-width="1" fill="none" fill-rule="evenodd">
        <g id="Subscription-Management" transform="translate(0.000000, -126.000000)">
            <g id="chargebee-icon-black" transform="translate(0.000000, -1.000000)">
                <g id="Group-345" transform="translate(-128.000000, 108.000000)">
                    <g id="Group-3">
                        <mask id="mask-2" fill="white">
                            <use xlink:href="#path-1"></use>
                        </mask>
                        <g id="Clip-2"></g>
                        <path d="M150.027177,75.1309515 C150.027177,116.560168 116.442072,150.144146 75.0139828,150.144146 C33.5847664,150.144146 -0.000338059701,116.560168 -0.000338059701,75.1309515 C-0.000338059701,33.7017351 33.5847664,0.117757463 75.0139828,0.117757463 C116.442072,0.117757463 150.027177,33.7017351 150.027177,75.1309515" id="Fill-1" fill="#D2E3FF" mask="url(#mask-2)"></path>
                    </g>
                    <path d="M1222,479 C1222,497.77791 1206.77791,513 1188,513 C1169.22209,513 1154,497.77791 1154,479 C1154,460.22209 1169.22209,445 1188,445 C1206.77791,445 1222,460.22209 1222,479" id="Fill-4" fill="#D2E3FF"></path>
                    <path d="M341,376.000561 C341,439.512406 289.289422,491 225.5,491 C161.710578,491 110,439.512406 110,376.000561 C110,312.487594 161.710578,261 225.5,261 C289.289422,261 341,312.487594 341,376.000561" id="Fill-6" fill="#D2E3FF"></path>
                    <g id="Group-10" transform="translate(1396.000000, 268.000000)">
                        <mask id="mask-4" fill="white">
                            <use xlink:href="#path-3"></use>
                        </mask>
                        <g id="Clip-9"></g>
                        <path d="M48.0856733,47.8879701 C112.106595,-15.962432 215.904968,-15.962432 279.927016,47.8879701 C343.947937,111.738372 343.947937,215.261403 279.927016,279.112929 C215.904968,342.963331 112.106595,342.963331 48.0856733,279.112929 C-15.9352479,215.261403 -15.9352479,111.738372 48.0856733,47.8879701" id="Fill-8" fill="#D2E3FF" mask="url(#mask-4)"></path>
                    </g>
                    <path d="M1382.42566,55.4251888 C1392.47563,45.3753489 1392.52285,29.1150475 1382.57744,19 L1346,55.5780894 C1356.11518,65.5233722 1372.37569,65.4750287 1382.42566,55.4251888" id="Fill-11" fill="#D2E3FF"></path>
                    <path d="M1509,145.5 C1509,146.880342 1507.88034,148 1506.5,148 C1505.11966,148 1504,146.880342 1504,145.5 C1504,144.119658 1505.11966,143 1506.5,143 C1507.88034,143 1509,144.119658 1509,145.5" id="Fill-13" fill="#98B0DD"></path>
                    <path d="M1532,145.5 C1532,146.880342 1530.88034,148 1529.5,148 C1528.11966,148 1527,146.880342 1527,145.5 C1527,144.119658 1528.11966,143 1529.5,143 C1530.88034,143 1532,144.119658 1532,145.5" id="Fill-15" fill="#98B0DD"></path>
                    <path d="M1555,145.5 C1555,146.880342 1553.88034,148 1552.5,148 C1551.11966,148 1550,146.880342 1550,145.5 C1550,144.119658 1551.11966,143 1552.5,143 C1553.88034,143 1555,144.119658 1555,145.5" id="Fill-17" fill="#98B0DD"></path>
                    <path d="M1509,166.5 C1509,167.880342 1507.88034,169 1506.5,169 C1505.11966,169 1504,167.880342 1504,166.5 C1504,165.119658 1505.11966,164 1506.5,164 C1507.88034,164 1509,165.119658 1509,166.5" id="Fill-31" fill="#98B0DD"></path>
                    <path d="M1532,166.5 C1532,167.880342 1530.88034,169 1529.5,169 C1528.11966,169 1527,167.880342 1527,166.5 C1527,165.119658 1528.11966,164 1529.5,164 C1530.88034,164 1532,165.119658 1532,166.5" id="Fill-33" fill="#98B0DD"></path>
                    <path d="M1555,166.5 C1555,167.880342 1553.88034,169 1552.5,169 C1551.11966,169 1550,167.880342 1550,166.5 C1550,165.119658 1551.11966,164 1552.5,164 C1553.88034,164 1555,165.119658 1555,166.5" id="Fill-35" fill="#98B0DD"></path>
                    <path d="M1509,187.5 C1509,188.880342 1507.88034,190 1506.5,190 C1505.11966,190 1504,188.880342 1504,187.5 C1504,186.119658 1505.11966,185 1506.5,185 C1507.88034,185 1509,186.119658 1509,187.5" id="Fill-49" fill="#98B0DD"></path>
                    <path d="M1532,187.5 C1532,188.880342 1530.88034,190 1529.5,190 C1528.11966,190 1527,188.880342 1527,187.5 C1527,186.119658 1528.11966,185 1529.5,185 C1530.88034,185 1532,186.119658 1532,187.5" id="Fill-51" fill="#98B0DD"></path>
                    <path d="M1555,187.5 C1555,188.880342 1553.88034,190 1552.5,190 C1551.11966,190 1550,188.880342 1550,187.5 C1550,186.119658 1551.11966,185 1552.5,185 C1553.88034,185 1555,186.119658 1555,187.5" id="Fill-53" fill="#98B0DD"></path>
                    <path d="M1509,209.500534 C1509,210.881171 1507.88034,212 1506.5,212 C1505.11966,212 1504,210.881171 1504,209.500534 C1504,208.119897 1505.11966,207 1506.5,207 C1507.88034,207 1509,208.119897 1509,209.500534" id="Fill-67" fill="#98B0DD"></path>
                    <path d="M1532,209.500534 C1532,210.881171 1530.88034,212 1529.5,212 C1528.11966,212 1527,210.881171 1527,209.500534 C1527,208.119897 1528.11966,207 1529.5,207 C1530.88034,207 1532,208.119897 1532,209.500534" id="Fill-69" fill="#98B0DD"></path>
                    <path d="M1555,209.500534 C1555,210.881171 1553.88034,212 1552.5,212 C1551.11966,212 1550,210.881171 1550,209.500534 C1550,208.119897 1551.11966,207 1552.5,207 C1553.88034,207 1555,208.119897 1555,209.500534" id="Fill-71" fill="#98B0DD"></path>
                    <path d="M1509,230.5 C1509,231.880342 1507.88034,233 1506.5,233 C1505.11966,233 1504,231.880342 1504,230.5 C1504,229.119658 1505.11966,228 1506.5,228 C1507.88034,228 1509,229.119658 1509,230.5" id="Fill-85" fill="#98B0DD"></path>
                    <path d="M1532,230.5 C1532,231.880342 1530.88034,233 1529.5,233 C1528.11966,233 1527,231.880342 1527,230.5 C1527,229.119658 1528.11966,228 1529.5,228 C1530.88034,228 1532,229.119658 1532,230.5" id="Fill-87" fill="#98B0DD"></path>
                    <path d="M1555,230.5 C1555,231.880342 1553.88034,233 1552.5,233 C1551.11966,233 1550,231.880342 1550,230.5 C1550,229.119658 1551.11966,228 1552.5,228 C1553.88034,228 1555,229.119658 1555,230.5" id="Fill-89" fill="#98B0DD"></path>
                    <path d="M1509,251.5 C1509,252.880342 1507.88034,254 1506.5,254 C1505.11966,254 1504,252.880342 1504,251.5 C1504,250.119658 1505.11966,249 1506.5,249 C1507.88034,249 1509,250.119658 1509,251.5" id="Fill-103" fill="#98B0DD"></path>
                    <path d="M1532,251.5 C1532,252.880342 1530.88034,254 1529.5,254 C1528.11966,254 1527,252.880342 1527,251.5 C1527,250.119658 1528.11966,249 1529.5,249 C1530.88034,249 1532,250.119658 1532,251.5" id="Fill-105" fill="#98B0DD"></path>
                    <path d="M1555,251.5 C1555,252.880342 1553.88034,254 1552.5,254 C1551.11966,254 1550,252.880342 1550,251.5 C1550,250.119658 1551.11966,249 1552.5,249 C1553.88034,249 1555,250.119658 1555,251.5" id="Fill-107" fill="#98B0DD"></path>
                    <path d="M1509,273.5 C1509,274.880342 1507.88034,276 1506.5,276 C1505.11966,276 1504,274.880342 1504,273.5 C1504,272.119658 1505.11966,271 1506.5,271 C1507.88034,271 1509,272.119658 1509,273.5" id="Fill-121" fill="#98B0DD"></path>
                    <path d="M1532,273.5 C1532,274.880342 1530.88034,276 1529.5,276 C1528.11966,276 1527,274.880342 1527,273.5 C1527,272.119658 1528.11966,271 1529.5,271 C1530.88034,271 1532,272.119658 1532,273.5" id="Fill-123" fill="#98B0DD"></path>
                    <path d="M1555,273.5 C1555,274.880342 1553.88034,276 1552.5,276 C1551.11966,276 1550,274.880342 1550,273.5 C1550,272.119658 1551.11966,271 1552.5,271 C1553.88034,271 1555,272.119658 1555,273.5" id="Fill-125" fill="#98B0DD"></path>
                    <path d="M1509,294.5 C1509,295.880342 1507.88034,297 1506.5,297 C1505.11966,297 1504,295.880342 1504,294.5 C1504,293.119658 1505.11966,292 1506.5,292 C1507.88034,292 1509,293.119658 1509,294.5" id="Fill-139" fill="#98B0DD"></path>
                    <path d="M1532,294.5 C1532,295.880342 1530.88034,297 1529.5,297 C1528.11966,297 1527,295.880342 1527,294.5 C1527,293.119658 1528.11966,292 1529.5,292 C1530.88034,292 1532,293.119658 1532,294.5" id="Fill-141" fill="#98B0DD"></path>
                    <path d="M1555,294.5 C1555,295.880342 1553.88034,297 1552.5,297 C1551.11966,297 1550,295.880342 1550,294.5 C1550,293.119658 1551.11966,292 1552.5,292 C1553.88034,292 1555,293.119658 1555,294.5" id="Fill-143" fill="#98B0DD"></path>
                    <path d="M1509,315.5 C1509,316.88141 1507.88034,318 1506.5,318 C1505.11966,318 1504,316.88141 1504,315.5 C1504,314.119658 1505.11966,313 1506.5,313 C1507.88034,313 1509,314.119658 1509,315.5" id="Fill-157" fill="#98B0DD"></path>
                    <path d="M1532,315.5 C1532,316.88141 1530.88034,318 1529.5,318 C1528.11966,318 1527,316.88141 1527,315.5 C1527,314.119658 1528.11966,313 1529.5,313 C1530.88034,313 1532,314.119658 1532,315.5" id="Fill-159" fill="#98B0DD"></path>
                    <path d="M1555,315.5 C1555,316.88141 1553.88034,318 1552.5,318 C1551.11966,318 1550,316.88141 1550,315.5 C1550,314.119658 1551.11966,313 1552.5,313 C1553.88034,313 1555,314.119658 1555,315.5" id="Fill-161" fill="#98B0DD"></path>
                    <path d="M1509,336.5 C1509,337.880342 1507.88034,339 1506.5,339 C1505.11966,339 1504,337.880342 1504,336.5 C1504,335.119658 1505.11966,334 1506.5,334 C1507.88034,334 1509,335.119658 1509,336.5" id="Fill-175" fill="#98B0DD"></path>
                    <path d="M1532,336.5 C1532,337.880342 1530.88034,339 1529.5,339 C1528.11966,339 1527,337.880342 1527,336.5 C1527,335.119658 1528.11966,334 1529.5,334 C1530.88034,334 1532,335.119658 1532,336.5" id="Fill-177" fill="#98B0DD"></path>
                    <path d="M1555,336.5 C1555,337.880342 1553.88034,339 1552.5,339 C1551.11966,339 1550,337.880342 1550,336.5 C1550,335.119658 1551.11966,334 1552.5,334 C1553.88034,334 1555,335.119658 1555,336.5" id="Fill-179" fill="#98B0DD"></path>
                    <path d="M1509,357.5 C1509,358.88141 1507.88034,360 1506.5,360 C1505.11966,360 1504,358.88141 1504,357.5 C1504,356.119658 1505.11966,355 1506.5,355 C1507.88034,355 1509,356.119658 1509,357.5" id="Fill-193" fill="#98B0DD"></path>
                    <path d="M1532,357.5 C1532,358.88141 1530.88034,360 1529.5,360 C1528.11966,360 1527,358.88141 1527,357.5 C1527,356.119658 1528.11966,355 1529.5,355 C1530.88034,355 1532,356.119658 1532,357.5" id="Fill-195" fill="#98B0DD"></path>
                    <path d="M1555,357.5 C1555,358.88141 1553.88034,360 1552.5,360 C1551.11966,360 1550,358.88141 1550,357.5 C1550,356.119658 1551.11966,355 1552.5,355 C1553.88034,355 1555,356.119658 1555,357.5" id="Fill-197" fill="#98B0DD"></path>
                    <path d="M1509,379.499466 C1509,380.881171 1507.88034,382 1506.5,382 C1505.11966,382 1504,380.881171 1504,379.499466 C1504,378.118829 1505.11966,377 1506.5,377 C1507.88034,377 1509,378.118829 1509,379.499466" id="Fill-211" fill="#98B0DD"></path>
                    <path d="M1532,379.499466 C1532,380.881171 1530.88034,382 1529.5,382 C1528.11966,382 1527,380.881171 1527,379.499466 C1527,378.118829 1528.11966,377 1529.5,377 C1530.88034,377 1532,378.118829 1532,379.499466" id="Fill-213" fill="#98B0DD"></path>
                    <path d="M1555,379.499466 C1555,380.881171 1553.88034,382 1552.5,382 C1551.11966,382 1550,380.881171 1550,379.499466 C1550,378.118829 1551.11966,377 1552.5,377 C1553.88034,377 1555,378.118829 1555,379.499466" id="Fill-215" fill="#98B0DD"></path>
                    <path d="M1509,400.5 C1509,401.880342 1507.88034,403 1506.5,403 C1505.11966,403 1504,401.880342 1504,400.5 C1504,399.11859 1505.11966,398 1506.5,398 C1507.88034,398 1509,399.11859 1509,400.5" id="Fill-229" fill="#98B0DD"></path>
                    <path d="M1532,400.5 C1532,401.880342 1530.88034,403 1529.5,403 C1528.11966,403 1527,401.880342 1527,400.5 C1527,399.11859 1528.11966,398 1529.5,398 C1530.88034,398 1532,399.11859 1532,400.5" id="Fill-231" fill="#98B0DD"></path>
                    <path d="M1555,400.5 C1555,401.880342 1553.88034,403 1552.5,403 C1551.11966,403 1550,401.880342 1550,400.5 C1550,399.11859 1551.11966,398 1552.5,398 C1553.88034,398 1555,399.11859 1555,400.5" id="Fill-233" fill="#98B0DD"></path>
                    <path d="M1509,421.5 C1509,422.880342 1507.88034,424 1506.5,424 C1505.11966,424 1504,422.880342 1504,421.5 C1504,420.11859 1505.11966,419 1506.5,419 C1507.88034,419 1509,420.11859 1509,421.5" id="Fill-247" fill="#98B0DD"></path>
                    <path d="M1532,421.5 C1532,422.880342 1530.88034,424 1529.5,424 C1528.11966,424 1527,422.880342 1527,421.5 C1527,420.11859 1528.11966,419 1529.5,419 C1530.88034,419 1532,420.11859 1532,421.5" id="Fill-249" fill="#98B0DD"></path>
                    <path d="M1555,421.5 C1555,422.880342 1553.88034,424 1552.5,424 C1551.11966,424 1550,422.880342 1550,421.5 C1550,420.11859 1551.11966,419 1552.5,419 C1553.88034,419 1555,420.11859 1555,421.5" id="Fill-251" fill="#98B0DD"></path>
                    <path d="M1509,443.5 C1509,444.880342 1507.88034,446 1506.5,446 C1505.11966,446 1504,444.880342 1504,443.5 C1504,442.119658 1505.11966,441 1506.5,441 C1507.88034,441 1509,442.119658 1509,443.5" id="Fill-265" fill="#98B0DD"></path>
                    <path d="M1532,443.5 C1532,444.880342 1530.88034,446 1529.5,446 C1528.11966,446 1527,444.880342 1527,443.5 C1527,442.119658 1528.11966,441 1529.5,441 C1530.88034,441 1532,442.119658 1532,443.5" id="Fill-267" fill="#98B0DD"></path>
                    <path d="M1555,443.5 C1555,444.880342 1553.88034,446 1552.5,446 C1551.11966,446 1550,444.880342 1550,443.5 C1550,442.119658 1551.11966,441 1552.5,441 C1553.88034,441 1555,442.119658 1555,443.5" id="Fill-269" fill="#98B0DD"></path>
                    <path d="M1509,464.5 C1509,465.880342 1507.88034,467 1506.5,467 C1505.11966,467 1504,465.880342 1504,464.5 C1504,463.119658 1505.11966,462 1506.5,462 C1507.88034,462 1509,463.119658 1509,464.5" id="Fill-283" fill="#98B0DD"></path>
                    <path d="M1532,464.5 C1532,465.880342 1530.88034,467 1529.5,467 C1528.11966,467 1527,465.880342 1527,464.5 C1527,463.119658 1528.11966,462 1529.5,462 C1530.88034,462 1532,463.119658 1532,464.5" id="Fill-285" fill="#98B0DD"></path>
                    <path d="M1555,464.5 C1555,465.880342 1553.88034,467 1552.5,467 C1551.11966,467 1550,465.880342 1550,464.5 C1550,463.119658 1551.11966,462 1552.5,462 C1553.88034,462 1555,463.119658 1555,464.5" id="Fill-287" fill="#98B0DD"></path>
                    <path d="M1509,485.5 C1509,486.880342 1507.88034,488 1506.5,488 C1505.11966,488 1504,486.880342 1504,485.5 C1504,484.119658 1505.11966,483 1506.5,483 C1507.88034,483 1509,484.119658 1509,485.5" id="Fill-301" fill="#98B0DD"></path>
                    <path d="M1532,485.5 C1532,486.880342 1530.88034,488 1529.5,488 C1528.11966,488 1527,486.880342 1527,485.5 C1527,484.119658 1528.11966,483 1529.5,483 C1530.88034,483 1532,484.119658 1532,485.5" id="Fill-303" fill="#98B0DD"></path>
                    <path d="M1555,485.5 C1555,486.880342 1553.88034,488 1552.5,488 C1551.11966,488 1550,486.880342 1550,485.5 C1550,484.119658 1551.11966,483 1552.5,483 C1553.88034,483 1555,484.119658 1555,485.5" id="Fill-305" fill="#98B0DD"></path>
                    <path d="M1509,507.5 C1509,508.880342 1507.88034,510 1506.5,510 C1505.11966,510 1504,508.880342 1504,507.5 C1504,506.119658 1505.11966,505 1506.5,505 C1507.88034,505 1509,506.119658 1509,507.5" id="Fill-319" fill="#98B0DD"></path>
                    <path d="M1532,507.5 C1532,508.880342 1530.88034,510 1529.5,510 C1528.11966,510 1527,508.880342 1527,507.5 C1527,506.119658 1528.11966,505 1529.5,505 C1530.88034,505 1532,506.119658 1532,507.5" id="Fill-321" fill="#98B0DD"></path>
                    <path d="M1555,507.5 C1555,508.880342 1553.88034,510 1552.5,510 C1551.11966,510 1550,508.880342 1550,507.5 C1550,506.119658 1551.11966,505 1552.5,505 C1553.88034,505 1555,506.119658 1555,507.5" id="Fill-323" fill="#98B0DD"></path>
                    <mask id="mask-6" fill="white">
                        <use xlink:href="#path-5"></use>
                    </mask>
                    <g id="Clip-338"></g>
                    <polygon id="Fill-337" fill="#98B0DD" mask="url(#mask-6)" points="44 552 223 552 223 373 44 373"></polygon>
                    <polygon id="Fill-339" fill="#FFFFFF" mask="url(#mask-6)" points="44 552 44 373 223 373"></polygon>
                    <polygon id="Fill-340" fill="#D2E3FF" mask="url(#mask-6)" points="311 150 279 118 311 118"></polygon>
                    <path d="M396.328721,477 C394.536092,477 392.851494,476.274854 391.584388,474.957895 L385.73162,468.873684 C384.677199,467.776608 383.275055,467.174269 381.784011,467.174269 C380.291842,467.174269 378.890824,467.776608 377.835277,468.873684 L371.981383,474.957895 C369.363898,477.676023 365.107953,477.673684 362.494969,474.957895 L356.6377,468.869006 C354.459088,466.604678 350.917718,466.605848 348.741357,468.869006 L342.882962,474.957895 C340.266602,477.676023 336.009532,477.673684 333.395423,474.957895 L327.542654,468.873684 C325.364042,466.609357 321.822673,466.610526 319.646312,468.873684 L313.793543,474.957895 C312.526437,476.274854 310.841839,477 309.049211,477 C307.258833,477 305.574235,476.274854 304.307129,474.957895 L298.448734,468.869006 C296.272373,466.607018 292.728753,466.607018 290.552391,468.869006 L284.693996,474.957895 C282.078762,477.673684 277.821691,477.676023 275.206457,474.957895 L269.353688,468.873684 C267.176202,466.609357 263.633707,466.610526 261.457346,468.873684 L255.604577,474.957895 C252.989343,477.673684 248.733398,477.676023 246.118163,474.957895 L240.259768,468.869006 C239.204222,467.77193 237.803203,467.169591 236.311034,467.169591 C234.819991,467.169591 233.417847,467.77193 232.363426,468.869006 L226.506156,474.957895 C223.890921,477.673684 219.633851,477.676023 217.018617,474.957895 L211.164723,468.873684 C210.110302,467.776608 208.708158,467.174269 207.217114,467.174269 C205.72607,467.174269 204.323927,467.776608 203.269505,468.873684 L197.415612,474.957895 C196.148506,476.274854 194.463908,477 192.671279,477 C190.880901,477 189.196303,476.274854 187.929198,474.957895 L185,471.912281 L185.795598,471.08538 L188.724796,474.130994 C189.779217,475.226901 191.180236,475.830409 192.671279,475.830409 C194.164574,475.830409 195.565592,475.226901 196.620013,474.130994 L202.473907,468.046784 C203.739888,466.729825 205.424486,466.004678 207.217114,466.004678 C209.008617,466.004678 210.693215,466.729825 211.960321,468.046784 L217.814215,474.130994 C219.990576,476.390643 223.534196,476.392982 225.710557,474.130994 L231.567827,468.042105 C232.834933,466.725146 234.519531,466 236.311034,466 C238.103663,466 239.788261,466.725146 241.055367,468.042105 L246.913762,474.130994 C249.088998,476.390643 252.633743,476.392982 254.808979,474.130994 L260.661747,468.046784 C263.276982,465.328655 267.532927,465.327485 270.149287,468.046784 L276.002055,474.130994 C277.057602,475.226901 278.45862,475.830409 279.949664,475.830409 C281.441833,475.830409 282.842851,475.226901 283.898398,474.130994 L289.756793,468.042105 C292.372027,465.322807 296.627973,465.325146 299.244332,468.042105 L305.102727,474.130994 C306.157149,475.226901 307.558167,475.830409 309.049211,475.830409 C310.542505,475.830409 311.943524,475.226901 312.997945,474.130994 L318.850713,468.046784 C321.465948,465.328655 325.721893,465.327485 328.338253,468.046784 L334.191021,474.130994 C335.246568,475.226901 336.647586,475.830409 338.13863,475.830409 C339.630799,475.830409 341.031817,475.226901 342.087364,474.130994 L347.945759,468.042105 C349.212865,466.725146 350.897463,466 352.690091,466 C354.480469,466 356.166192,466.725146 357.433298,468.042105 L363.290568,474.130994 C365.466929,476.392982 369.009424,476.391813 371.185785,474.130994 L377.039679,468.046784 C379.656039,465.327485 383.911984,465.328655 386.527218,468.046784 L392.379987,474.130994 C394.557473,476.392982 398.098843,476.391813 400.276329,474.130994 L403.204402,471.08538 L404,471.912281 L401.071928,474.957895 C399.804822,476.274854 398.120224,477 396.328721,477" id="Fill-341" fill="#98B0DD" mask="url(#mask-6)"></path>
                    <path d="M396.328721,459 C394.536092,459 392.851494,458.274777 391.584388,456.957678 L385.73162,450.87399 C384.677199,449.776797 383.275055,449.174394 381.784011,449.174394 C380.291842,449.174394 378.890824,449.776797 377.835277,450.87399 L371.981383,456.957678 C370.714278,458.274777 369.02968,459 367.237051,459 C365.446673,459 363.762075,458.274777 362.494969,456.957678 L356.6377,450.869311 C354.462464,448.608252 350.917718,448.605912 348.741357,450.869311 L342.882962,456.957678 C341.615856,458.274777 339.931258,459 338.13863,459 C336.347127,459 334.662529,458.274777 333.395423,456.957678 L327.542654,450.87399 C325.367418,448.612931 321.823798,448.610591 319.646312,450.87399 L313.793543,456.957678 C312.526437,458.274777 310.841839,459 309.049211,459 C307.258833,459 305.574235,458.274777 304.307129,456.957678 L298.448734,450.869311 C296.273498,448.608252 292.728753,448.605912 290.552391,450.869311 L284.693996,456.957678 C282.077637,459.676095 277.820566,459.673756 275.206457,456.957678 L269.353688,450.87399 C267.176202,448.610591 263.631456,448.612931 261.457346,450.87399 L255.604577,456.957678 C252.989343,459.673756 248.733398,459.676095 246.118163,456.957678 L240.259768,450.869311 C239.204222,449.772118 237.803203,449.169715 236.311034,449.169715 C234.819991,449.169715 233.417847,449.772118 232.363426,450.869311 L226.506156,456.957678 C223.890921,459.673756 219.633851,459.676095 217.018617,456.957678 L211.164723,450.87399 C210.110302,449.776797 208.708158,449.174394 207.217114,449.174394 C205.72607,449.174394 204.323927,449.776797 203.269505,450.87399 L197.415612,456.957678 C196.148506,458.274777 194.463908,459 192.671279,459 C190.880901,459 189.196303,458.274777 187.929198,456.957678 L185,453.912909 L185.795598,453.085921 L188.724796,456.130689 C189.779217,457.226712 191.180236,457.830285 192.671279,457.830285 C194.164574,457.830285 195.565592,457.226712 196.620013,456.130689 L202.473907,450.047001 C203.739888,448.729902 205.424486,448.004679 207.217114,448.004679 C209.008617,448.004679 210.693215,448.729902 211.960321,450.047001 L217.814215,456.130689 C218.869761,457.226712 220.27078,457.830285 221.762949,457.830285 C223.253993,457.830285 224.655011,457.226712 225.710557,456.130689 L231.567827,450.042322 C232.834933,448.725223 234.519531,448 236.311034,448 C238.103663,448 239.788261,448.725223 241.055367,450.042322 L246.913762,456.130689 C249.088998,458.391748 252.633743,458.391748 254.808979,456.130689 L260.661747,450.047001 C263.276982,447.327414 267.532927,447.327414 270.149287,450.047001 L276.002055,456.130689 C278.177291,458.390578 281.720911,458.392918 283.898398,456.130689 L289.756793,450.042322 C292.372027,447.322735 296.627973,447.323905 299.244332,450.042322 L305.102727,456.130689 C306.157149,457.226712 307.558167,457.830285 309.049211,457.830285 C310.542505,457.830285 311.943524,457.226712 312.997945,456.130689 L318.850713,450.047001 C321.468198,447.327414 325.724143,447.327414 328.338253,450.047001 L334.191021,456.130689 C335.246568,457.226712 336.647586,457.830285 338.13863,457.830285 C339.630799,457.830285 341.031817,457.226712 342.087364,456.130689 L347.945759,450.042322 C349.212865,448.725223 350.897463,448 352.690091,448 C354.480469,448 356.166192,448.725223 357.433298,450.042322 L363.290568,456.130689 C365.466929,458.391748 369.011675,458.390578 371.185785,456.130689 L377.039679,450.047001 C379.656039,447.327414 383.911984,447.327414 386.527218,450.047001 L392.379987,456.130689 C394.556348,458.390578 398.099968,458.392918 400.276329,456.130689 L403.204402,453.085921 L404,453.912909 L401.071928,456.957678 C399.804822,458.274777 398.120224,459 396.328721,459" id="Fill-342" fill="#98B0DD" mask="url(#mask-6)"></path>
                    <path d="M396.328721,441 C394.536092,441 392.851494,440.274651 391.584388,438.957325 L385.73162,432.872585 C384.677199,431.775203 383.275055,431.172696 381.784011,431.172696 C380.291842,431.172696 378.890824,431.775203 377.835277,432.872585 L371.981383,438.957325 C370.714278,440.274651 369.02968,441 367.237051,441 C365.446673,441 363.762075,440.274651 362.494969,438.957325 L356.6377,432.866736 C354.459088,430.601776 350.917718,430.602946 348.741357,432.866736 L342.882962,438.957325 C341.615856,440.274651 339.931258,441 338.13863,441 C336.347127,441 334.662529,440.274651 333.395423,438.957325 L327.542654,432.872585 C325.367418,430.611136 321.823798,430.608796 319.646312,432.872585 L313.793543,438.957325 C312.526437,440.274651 310.841839,441 309.049211,441 C307.258833,441 305.574235,440.274651 304.307129,438.957325 L298.448734,432.866736 C296.272373,430.604116 292.728753,430.604116 290.552391,432.866736 L284.693996,438.957325 C282.078762,441.675042 277.821691,441.676212 275.206457,438.957325 L269.353688,432.872585 C267.176202,430.608796 263.631456,430.609966 261.457346,432.872585 L255.604577,438.957325 C252.989343,441.675042 248.733398,441.676212 246.118163,438.957325 L240.259768,432.866736 C238.083407,430.605286 234.539787,430.602946 232.363426,432.866736 L226.506156,438.957325 C223.890921,441.675042 219.633851,441.676212 217.018617,438.957325 L211.164723,432.872585 C210.110302,431.775203 208.708158,431.172696 207.217114,431.172696 C205.72607,431.172696 204.323927,431.775203 203.269505,432.872585 L197.415612,438.957325 C196.148506,440.274651 194.463908,441 192.671279,441 C190.880901,441 189.196303,440.274651 187.929198,438.957325 L185,435.91203 L185.795598,435.084899 L188.724796,438.130193 C189.779217,439.226406 191.180236,439.830083 192.671279,439.830083 C194.164574,439.830083 195.565592,439.226406 196.620013,438.130193 L202.473907,432.045454 C203.739888,430.728127 205.424486,430.002779 207.217114,430.002779 C209.008617,430.002779 210.693215,430.728127 211.960321,432.045454 L217.814215,438.130193 C218.869761,439.226406 220.27078,439.830083 221.762949,439.830083 C223.253993,439.830083 224.655011,439.226406 225.710557,438.130193 L231.567827,432.039604 C234.180811,429.320717 238.436756,429.319547 241.055367,432.039604 L246.913762,438.130193 C249.088998,440.391643 252.633743,440.391643 254.808979,438.130193 L260.661747,432.045454 C263.276982,429.325397 267.532927,429.325397 270.149287,432.045454 L276.002055,438.130193 C278.177291,440.391643 281.720911,440.391643 283.898398,438.130193 L289.756793,432.039604 C292.372027,429.319547 296.627973,429.320717 299.244332,432.039604 L305.102727,438.130193 C306.157149,439.226406 307.558167,439.830083 309.049211,439.830083 C310.542505,439.830083 311.943524,439.226406 312.997945,438.130193 L318.850713,432.045454 C321.468198,429.325397 325.724143,429.325397 328.338253,432.045454 L334.191021,438.130193 C335.246568,439.226406 336.647586,439.830083 338.13863,439.830083 C339.630799,439.830083 341.031817,439.226406 342.087364,438.130193 L347.945759,432.039604 C350.558743,429.320717 354.814688,429.319547 357.433298,432.039604 L363.290568,438.130193 C365.466929,440.392813 369.009424,440.391643 371.185785,438.130193 L377.039679,432.045454 C379.656039,429.325397 383.911984,429.325397 386.527218,432.045454 L392.379987,438.130193 C394.556348,440.391643 398.099968,440.391643 400.276329,438.130193 L403.204402,435.084899 L404,435.91203 L401.071928,438.957325 C399.804822,440.274651 398.120224,441 396.328721,441" id="Fill-343" fill="#98B0DD" mask="url(#mask-6)"></path>
                    <path d="M396.328721,424 C394.536092,424 392.851494,423.27468 391.584388,421.957406 L385.73162,415.87174 C384.677199,414.774401 383.275055,414.171918 381.784011,414.171918 C380.291842,414.171918 378.890824,414.774401 377.835277,415.87174 L371.981383,421.957406 C370.714278,423.27468 369.02968,424 367.237051,424 C365.446673,424 363.762075,423.27468 362.494969,421.957406 L356.6377,415.86706 C354.459088,413.601021 350.917718,413.603361 348.741357,415.86706 L342.882962,421.957406 C341.615856,423.27468 339.931258,424 338.13863,424 C336.347127,424 334.662529,423.27468 333.395423,421.957406 L327.542654,415.87174 C325.364042,413.605701 321.822673,413.60804 319.646312,415.87174 L313.793543,421.957406 C312.526437,423.27468 310.841839,424 309.049211,424 C307.258833,424 305.574235,423.27468 304.307129,421.957406 L298.448734,415.86706 C296.272373,413.604531 292.728753,413.604531 290.552391,415.86706 L284.693996,421.957406 C282.078762,424.675015 277.821691,424.676185 275.206457,421.957406 L269.353688,415.87174 C267.176202,413.605701 263.633707,413.60804 261.457346,415.87174 L255.604577,421.957406 C252.989343,424.675015 248.733398,424.676185 246.118163,421.957406 L240.259768,415.86706 C238.083407,413.605701 234.539787,413.603361 232.363426,415.86706 L226.506156,421.957406 C223.890921,424.675015 219.633851,424.676185 217.018617,421.957406 L211.164723,415.87174 C210.110302,414.774401 208.708158,414.171918 207.217114,414.171918 C205.72607,414.171918 204.323927,414.774401 203.269505,415.87174 L197.415612,421.957406 C196.148506,423.27468 194.463908,424 192.671279,424 C190.880901,424 189.196303,423.27468 187.929198,421.957406 L185,418.911063 L185.795598,418.083965 L188.724796,421.130308 C189.779217,422.226476 191.180236,422.830129 192.671279,422.830129 C194.164574,422.830129 195.565592,422.226476 196.620013,421.130308 L202.473907,415.044641 C203.739888,413.727367 205.424486,413.002047 207.217114,413.002047 C209.008617,413.002047 210.693215,413.727367 211.960321,415.044641 L217.814215,421.130308 C218.869761,422.226476 220.27078,422.830129 221.762949,422.830129 C223.253993,422.830129 224.655011,422.226476 225.710557,421.130308 L231.567827,415.039962 C234.180811,412.321183 238.436756,412.318843 241.055367,415.039962 L246.913762,421.130308 C249.088998,423.391667 252.633743,423.391667 254.808979,421.130308 L260.661747,415.044641 C263.276982,412.325862 267.532927,412.323522 270.149287,415.044641 L276.002055,421.130308 C278.179542,423.392837 281.720911,423.391667 283.898398,421.130308 L289.756793,415.039962 C292.372027,412.318843 296.627973,412.321183 299.244332,415.039962 L305.102727,421.130308 C306.157149,422.226476 307.558167,422.830129 309.049211,422.830129 C310.542505,422.830129 311.943524,422.226476 312.997945,421.130308 L318.850713,415.044641 C321.465948,412.325862 325.721893,412.323522 328.338253,415.044641 L334.191021,421.130308 C335.246568,422.226476 336.647586,422.830129 338.13863,422.830129 C339.630799,422.830129 341.031817,422.226476 342.087364,421.130308 L347.945759,415.039962 C350.558743,412.321183 354.814688,412.318843 357.433298,415.039962 L363.290568,421.130308 C365.466929,423.392837 369.009424,423.391667 371.185785,421.130308 L377.039679,415.044641 C379.656039,412.323522 383.911984,412.325862 386.527218,415.044641 L392.379987,421.130308 C394.557473,423.392837 398.098843,423.391667 400.276329,421.130308 L403.204402,418.083965 L404,418.911063 L401.071928,421.957406 C399.804822,423.27468 398.120224,424 396.328721,424" id="Fill-344" fill="#98B0DD" mask="url(#mask-6)"></path>
                </g>
            </g>
        </g>
    </g>
</svg>