<?xml version="1.0" encoding="UTF-8"?>
<svg width="593px" height="100px" viewBox="0 0 593 100" version="1.1" xmlns="http://www.w3.org/2000/svg" xmlns:xlink="http://www.w3.org/1999/xlink">
    <!-- Generator: Sketch 55.1 (78136) - https://sketchapp.com -->
    <title>Logo Final</title>
    <desc>Created with Sketch.</desc>
    <g id="Logo-Final" stroke="none" stroke-width="1" fill="none" fill-rule="evenodd">
        <path d="M135.49,57.58 C137.356676,59.0733408 139.369989,60.286662 141.53,61.22 C143.690011,62.153338 145.72999,62.62 147.65,62.62 C149.73001,62.62 151.236662,62.3000032 152.17,61.66 C153.103338,61.0199968 153.57,60.1133392 153.57,58.94 C153.57,58.2999968 153.410002,57.7666688 153.09,57.34 C152.769998,56.9133312 152.303336,56.5133352 151.69,56.14 C151.076664,55.7666648 150.343338,55.4066684 149.49,55.06 C148.636662,54.7133316 147.65,54.3266688 146.53,53.9 L140.05,51.18 C138.663326,50.646664 137.330006,49.9400044 136.05,49.06 C134.769994,48.1799956 133.65,47.140006 132.69,45.94 C131.729995,44.739994 130.970003,43.3666744 130.41,41.82 C129.849997,40.2733256 129.57,38.566676 129.57,36.7 C129.57,34.4599888 130.049995,32.3666764 131.01,30.42 C131.970005,28.4733236 133.303325,26.766674 135.01,25.3 C136.716675,23.833326 138.756655,22.6733376 141.13,21.82 C143.503345,20.9666624 146.103319,20.54 148.93,20.54 C151.916682,20.54 154.943318,21.0999944 158.01,22.22 C161.076682,23.3400056 163.809988,25.099988 166.21,27.5 L159.33,36.14 C157.569991,34.9133272 155.876675,33.9800032 154.25,33.34 C152.623325,32.6999968 150.85001,32.38 148.93,32.38 C147.223325,32.38 145.890005,32.6733304 144.93,33.26 C143.969995,33.8466696 143.49,34.7266608 143.49,35.9 C143.49,37.1266728 144.169993,38.07333 145.53,38.74 C146.890007,39.40667 148.769988,40.1933288 151.17,41.1 L157.49,43.58 C160.74335,44.8600064 163.249991,46.6466552 165.01,48.94 C166.770009,51.2333448 167.65,54.1933152 167.65,57.82 C167.65,60.0066776 167.196671,62.1133232 166.29,64.14 C165.383329,66.1666768 164.063342,67.9399924 162.33,69.46 C160.596658,70.9800076 158.476679,72.1933288 155.97,73.1 C153.463321,74.0066712 150.58335,74.46 147.33,74.46 C144.023317,74.46 140.623351,73.860006 137.13,72.66 C133.636649,71.459994 130.476681,69.5800128 127.65,67.02 L135.49,57.58 Z M171.07,53.5 C171.07,50.1933168 171.656661,47.2333464 172.83,44.62 C174.003339,42.0066536 175.576657,39.8066756 177.55,38.02 C179.523343,36.2333244 181.80332,34.873338 184.39,33.94 C186.97668,33.006662 189.683319,32.54 192.51,32.54 C194.910012,32.54 197.10999,32.939996 199.11,33.74 C201.11001,34.54 202.803326,35.6333264 204.19,37.02 L197.95,45.5 C197.043329,44.7533296 196.230004,44.246668 195.51,43.98 C194.789996,43.713332 194.05667,43.58 193.31,43.58 C190.749987,43.58 188.750007,44.4733244 187.31,46.26 C185.869993,48.0466756 185.15,50.4599848 185.15,53.5 C185.15,56.5400152 185.883326,58.9533244 187.35,60.74 C188.816674,62.5266756 190.643322,63.42 192.83,63.42 C194.110006,63.42 195.269995,63.153336 196.31,62.62 C197.350005,62.086664 198.323329,61.5000032 199.23,60.86 L204.67,69.5 C202.643323,71.2600088 200.416679,72.5266628 197.99,73.3 C195.563321,74.0733372 193.31001,74.46 191.23,74.46 C188.403319,74.46 185.763346,73.993338 183.31,73.06 C180.856654,72.126662 178.723342,70.7666756 176.91,68.98 C175.096658,67.1933244 173.670005,64.9933464 172.63,62.38 C171.589995,59.7666536 171.07,56.8066832 171.07,53.5 Z M209.21,33.5 L220.41,33.5 L221.37,40.38 L221.69,40.38 C223.183341,37.6599864 224.956656,35.6733396 227.01,34.42 C229.063344,33.1666604 231.076657,32.54 233.05,32.54 C234.276673,32.54 235.26333,32.606666 236.01,32.74 C236.75667,32.873334 237.42333,33.073332 238.01,33.34 L235.77,45.18 C235.02333,45.0199992 234.31667,44.873334 233.65,44.74 C232.98333,44.606666 232.196671,44.54 231.29,44.54 C229.849993,44.54 228.343341,45.0333284 226.77,46.02 C225.196659,47.0066716 223.930005,48.7533208 222.97,51.26 L222.97,73.5 L209.21,73.5 L209.21,33.5 Z M238.07,53.5 C238.07,50.2466504 238.616661,47.3266796 239.71,44.74 C240.803339,42.1533204 242.243324,39.9533424 244.03,38.14 C245.816676,36.3266576 247.856655,34.9400048 250.15,33.98 C252.443345,33.0199952 254.816654,32.54 257.27,32.54 C260.203348,32.54 262.763322,33.0466616 264.95,34.06 C267.136678,35.0733384 268.949993,36.4599912 270.39,38.22 C271.830007,39.9800088 272.909996,42.0333216 273.63,44.38 C274.350004,46.7266784 274.71,49.23332 274.71,51.9 C274.71,53.1266728 274.643334,54.2199952 274.51,55.18 C274.376666,56.1400048 274.256667,56.8599976 274.15,57.34 L251.35,57.34 C251.990003,59.9000128 253.136658,61.6599952 254.79,62.62 C256.443342,63.5800048 258.389989,64.06 260.63,64.06 C262.016674,64.06 263.363327,63.860002 264.67,63.46 C265.976673,63.059998 267.349993,62.460004 268.79,61.66 L273.27,69.82 C271.083322,71.3666744 268.670013,72.5266628 266.03,73.3 C263.389987,74.0733372 260.950011,74.46 258.71,74.46 C255.776652,74.46 253.056679,73.993338 250.55,73.06 C248.043321,72.126662 245.870009,70.7666756 244.03,68.98 C242.189991,67.1933244 240.736672,64.9933464 239.67,62.38 C238.603328,59.7666536 238.07,56.8066832 238.07,53.5 Z M263.03,49.02 C263.03,47.3133248 262.643337,45.8733392 261.87,44.7 C261.096663,43.5266608 259.67001,42.94 257.59,42.94 C256.043326,42.94 254.696672,43.3933288 253.55,44.3 C252.403328,45.2066712 251.616669,46.7799888 251.19,49.02 L263.03,49.02 Z M278.45,53.5 C278.45,50.2466504 278.996661,47.3266796 280.09,44.74 C281.183339,42.1533204 282.623324,39.9533424 284.41,38.14 C286.196676,36.3266576 288.236655,34.9400048 290.53,33.98 C292.823345,33.0199952 295.196654,32.54 297.65,32.54 C300.583348,32.54 303.143322,33.0466616 305.33,34.06 C307.516678,35.0733384 309.329993,36.4599912 310.77,38.22 C312.210007,39.9800088 313.289996,42.0333216 314.01,44.38 C314.730004,46.7266784 315.09,49.23332 315.09,51.9 C315.09,53.1266728 315.023334,54.2199952 314.89,55.18 C314.756666,56.1400048 314.636667,56.8599976 314.53,57.34 L291.73,57.34 C292.370003,59.9000128 293.516658,61.6599952 295.17,62.62 C296.823342,63.5800048 298.769989,64.06 301.01,64.06 C302.396674,64.06 303.743327,63.860002 305.05,63.46 C306.356673,63.059998 307.729993,62.460004 309.17,61.66 L313.65,69.82 C311.463322,71.3666744 309.050013,72.5266628 306.41,73.3 C303.769987,74.0733372 301.330011,74.46 299.09,74.46 C296.156652,74.46 293.436679,73.993338 290.93,73.06 C288.423321,72.126662 286.250009,70.7666756 284.41,68.98 C282.569991,67.1933244 281.116672,64.9933464 280.05,62.38 C278.983328,59.7666536 278.45,56.8066832 278.45,53.5 Z M303.41,49.02 C303.41,47.3133248 303.023337,45.8733392 302.25,44.7 C301.476663,43.5266608 300.05001,42.94 297.97,42.94 C296.423326,42.94 295.076672,43.3933288 293.93,44.3 C292.783328,45.2066712 291.996669,46.7799888 291.57,49.02 L303.41,49.02 Z M320.91,33.5 L332.11,33.5 L333.07,38.3 L333.39,38.3 C334.990008,36.7533256 336.816656,35.4066724 338.87,34.26 C340.923344,33.1133276 343.309986,32.54 346.03,32.54 C350.403355,32.54 353.576657,34.0199852 355.55,36.98 C357.523343,39.9400148 358.51,43.8999752 358.51,48.86 L358.51,73.5 L344.75,73.5 L344.75,50.62 C344.75,48.0599872 344.430003,46.3533376 343.79,45.5 C343.149997,44.6466624 342.136674,44.22 340.75,44.22 C339.469994,44.22 338.403338,44.486664 337.55,45.02 C336.696662,45.553336 335.736672,46.2999952 334.67,47.26 L334.67,73.5 L320.91,73.5 L320.91,33.5 Z M363.69,53.5 C363.69,50.1933168 364.276661,47.2333464 365.45,44.62 C366.623339,42.0066536 368.196657,39.8066756 370.17,38.02 C372.143343,36.2333244 374.42332,34.873338 377.01,33.94 C379.59668,33.006662 382.303319,32.54 385.13,32.54 C387.530012,32.54 389.72999,32.939996 391.73,33.74 C393.73001,34.54 395.423326,35.6333264 396.81,37.02 L390.57,45.5 C389.663329,44.7533296 388.850004,44.246668 388.13,43.98 C387.409996,43.713332 386.67667,43.58 385.93,43.58 C383.369987,43.58 381.370007,44.4733244 379.93,46.26 C378.489993,48.0466756 377.77,50.4599848 377.77,53.5 C377.77,56.5400152 378.503326,58.9533244 379.97,60.74 C381.436674,62.5266756 383.263322,63.42 385.45,63.42 C386.730006,63.42 387.889995,63.153336 388.93,62.62 C389.970005,62.086664 390.943329,61.5000032 391.85,60.86 L397.29,69.5 C395.263323,71.2600088 393.036679,72.5266628 390.61,73.3 C388.183321,74.0733372 385.93001,74.46 383.85,74.46 C381.023319,74.46 378.383346,73.993338 375.93,73.06 C373.476654,72.126662 371.343342,70.7666756 369.53,68.98 C367.716658,67.1933244 366.290005,64.9933464 365.25,62.38 C364.209995,59.7666536 363.69,56.8066832 363.69,53.5 Z M399.75,62.14 C399.75,57.9799792 401.45665,54.7133452 404.87,52.34 C408.28335,49.9666548 413.829962,48.380004 421.51,47.58 C421.189998,44.8066528 419.32335,43.42 415.91,43.42 C414.469993,43.42 412.950008,43.6999972 411.35,44.26 C409.75,44.8200028 407.91001,45.6599944 405.83,46.78 L401.03,37.82 C403.856681,36.1133248 406.709986,34.8066712 409.59,33.9 C412.470014,32.9933288 415.483318,32.54 418.63,32.54 C423.803359,32.54 427.869985,34.0199852 430.83,36.98 C433.790015,39.9400148 435.27,44.6999672 435.27,51.26 L435.27,73.5 L424.07,73.5 L423.11,69.66 L422.79,69.66 C421.189992,71.1000072 419.496676,72.2599956 417.71,73.14 C415.923324,74.0200044 413.936678,74.46 411.75,74.46 C409.883324,74.46 408.203341,74.12667 406.71,73.46 C405.216659,72.79333 403.950005,71.9000056 402.91,70.78 C401.869995,69.6599944 401.083336,68.3533408 400.55,66.86 C400.016664,65.3666592 399.75,63.7933416 399.75,62.14 Z M412.87,61.02 C412.87,62.9400096 414.096654,63.9 416.55,63.9 C417.670006,63.9 418.589996,63.6466692 419.31,63.14 C420.030004,62.6333308 420.76333,61.980004 421.51,61.18 L421.51,55.74 C418.203317,56.2200024 415.936673,56.9399952 414.71,57.9 C413.483327,58.8600048 412.87,59.8999944 412.87,61.02 Z M445.57,60.38 C449.196685,63.04668 452.449986,64.38 455.33,64.38 C456.770007,64.38 457.796664,64.180002 458.41,63.78 C459.023336,63.379998 459.33,62.780004 459.33,61.98 C459.33,61.446664 459.116669,60.980002 458.69,60.58 C458.263331,60.179998 457.690004,59.8066684 456.97,59.46 C456.249996,59.1133316 455.436671,58.7800016 454.53,58.46 C453.623329,58.1399984 452.663338,57.7666688 451.65,57.34 C450.476661,56.8599976 449.290006,56.28667 448.09,55.62 C446.889994,54.95333 445.810005,54.1400048 444.85,53.18 C443.889995,52.2199952 443.103336,51.1133396 442.49,49.86 C441.876664,48.6066604 441.57,47.1533416 441.57,45.5 C441.57,43.5266568 441.956663,41.740008 442.73,40.14 C443.503337,38.54 444.583326,37.1800056 445.97,36.06 C447.356674,34.9399944 449.023324,34.0733364 450.97,33.46 C452.916676,32.8466636 455.063322,32.54 457.41,32.54 C460.716683,32.54 463.556655,33.0866612 465.93,34.18 C468.303345,35.2733388 470.369991,36.48666 472.13,37.82 L466.05,45.98 C464.609993,44.913328 463.196674,44.0866696 461.81,43.5 C460.423326,42.9133304 459.116673,42.62 457.89,42.62 C455.543322,42.62 454.37,43.3666592 454.37,44.86 C454.37,45.393336 454.569998,45.8466648 454.97,46.22 C455.370002,46.5933352 455.916663,46.9399984 456.61,47.26 C457.303337,47.5800016 458.103329,47.8866652 459.01,48.18 C459.916671,48.4733348 460.876662,48.8066648 461.89,49.18 C463.063339,49.6066688 464.263327,50.1399968 465.49,50.78 C466.716673,51.4200032 467.823328,52.206662 468.81,53.14 C469.796672,54.073338 470.596664,55.1933268 471.21,56.5 C471.823336,57.8066732 472.13,59.3666576 472.13,61.18 C472.13,63.046676 471.75667,64.7933252 471.01,66.42 C470.26333,68.0466748 469.170007,69.459994 467.73,70.66 C466.289993,71.860006 464.503344,72.79333 462.37,73.46 C460.236656,74.12667 457.783347,74.46 455.01,74.46 C452.449987,74.46 449.743348,73.9533384 446.89,72.94 C444.036652,71.9266616 441.57001,70.5666752 439.49,68.86 L445.57,60.38 Z M478.91,44.22 L473.63,44.22 L473.63,33.98 L479.71,33.5 L481.31,23.1 L492.67,23.1 L492.67,33.5 L501.79,33.5 L501.79,44.22 L492.67,44.22 L492.67,57.9 C492.67,60.1400112 493.149995,61.6733292 494.11,62.5 C495.070005,63.3266708 496.189994,63.74 497.47,63.74 C498.110003,63.74 498.736664,63.673334 499.35,63.54 C499.963336,63.406666 500.509998,63.2600008 500.99,63.1 L503.07,73.02 C502.003328,73.3400016 500.723341,73.6599984 499.23,73.98 C497.736659,74.3000016 495.870011,74.46 493.63,74.46 C491.016654,74.46 488.790009,74.0733372 486.95,73.3 C485.109991,72.5266628 483.590006,71.4200072 482.39,69.98 C481.189994,68.5399928 480.310003,66.82001 479.75,64.82 C479.189997,62.81999 478.91,60.5933456 478.91,58.14 L478.91,44.22 Z M514.33,28.54 C512.089989,28.54 510.250007,27.9000064 508.81,26.62 C507.369993,25.3399936 506.65,23.6866768 506.65,21.66 C506.65,19.6333232 507.369993,17.9800064 508.81,16.7 C510.250007,15.4199936 512.089989,14.78 514.33,14.78 C516.570011,14.78 518.409993,15.4199936 519.85,16.7 C521.290007,17.9800064 522.01,19.6333232 522.01,21.66 C522.01,23.6866768 521.290007,25.3399936 519.85,26.62 C518.409993,27.9000064 516.570011,28.54 514.33,28.54 Z M507.45,33.5 L521.21,33.5 L521.21,73.5 L507.45,73.5 L507.45,33.5 Z M553.11,28.38 C552.469997,28.113332 551.803337,27.913334 551.11,27.78 C550.416663,27.646666 549.750003,27.58 549.11,27.58 C547.829994,27.58 546.81667,27.9399964 546.07,28.66 C545.32333,29.3800036 544.95,30.673324 544.95,32.54 L544.95,33.5 L551.67,33.5 L551.67,44.22 L544.95,44.22 L544.95,73.5 L531.19,73.5 L531.19,44.22 L525.91,44.22 L525.91,33.98 L531.19,33.58 L531.19,33.02 C531.19,30.886656 531.456664,28.8466764 531.99,26.9 C532.523336,24.9533236 533.41666,23.2333408 534.67,21.74 C535.92334,20.2466592 537.54999,19.0600044 539.55,18.18 C541.55001,17.2999956 544.043318,16.86 547.03,16.86 C548.896676,16.86 550.549993,17.0199984 551.99,17.34 C553.430007,17.6600016 554.603329,17.9799984 555.51,18.3 L553.11,28.38 Z M558.13,77.34 C558.503335,77.4466672 558.916664,77.5533328 559.37,77.66 C559.823336,77.7666672 560.263331,77.82 560.69,77.82 C562.556676,77.82 563.956662,77.4600036 564.89,76.74 C565.823338,76.0199964 566.503331,75.0466728 566.93,73.82 L567.41,72.06 L552.21,33.5 L565.97,33.5 L570.77,48.86 C571.35667,50.726676 571.863331,52.5799908 572.29,54.42 C572.716669,56.2600092 573.169998,58.1933232 573.65,60.22 L573.97,60.22 C574.396669,58.2999904 574.809998,56.406676 575.21,54.54 C575.610002,52.673324 576.049998,50.7800096 576.53,48.86 L580.53,33.5 L593.65,33.5 L580.21,72.86 C579.143328,75.5800136 578.063339,77.9266568 576.97,79.9 C575.876661,81.8733432 574.610007,83.5 573.17,84.78 C571.729993,86.0600064 570.090009,87.0066636 568.25,87.62 C566.409991,88.2333364 564.263346,88.54 561.81,88.54 C560.423326,88.54 559.290004,88.473334 558.41,88.34 C557.529996,88.206666 556.636671,88.006668 555.73,87.74 L558.13,77.34 Z" id="Screencastify" fill="#4F4F4F" fill-rule="nonzero"></path>
        <g id="screencastify-logo" transform="translate(1.000000, 2.000000)" fill="#FF8282" fill-rule="nonzero">
            <g id="XMLID_254_">
                <path d="M5.11304348,24.8625 C2.59710145,24.8625 0,26.89375 0,29.4125 L0,62.075 C0,64.59375 2.59710145,66.3 5.11304348,66.3 L32.4637681,66.3 L32.4637681,24.8625 L5.11304348,24.8625 Z" id="XMLID_256_"></path>
                <path d="M109.484058,42.0875 L83.6753623,27.21875 L83.6753623,27.21875 L38.8753623,1.38125 C36.115942,-0.24375 32.4637681,1.7875 32.4637681,4.95625 L32.4637681,24.94375 L62.2492754,24.94375 C64.7652174,24.94375 66.5507246,26.975 66.5507246,29.49375 L66.5507246,37.05 L83.5942029,27.3 L83.5942029,64.1875 L66.5507246,54.4375 L66.5507246,62.2375 C66.5507246,64.75625 64.7652174,66.4625 62.2492754,66.4625 L32.4637681,66.4625 L32.4637681,86.53125 C32.4637681,89.7 36.115942,91.65 38.8753623,90.10625 L83.6753623,64.35 L83.6753623,64.35 L109.484058,49.48125 C112.243478,47.6125 112.243478,43.63125 109.484058,42.0875 Z" id="XMLID_255_"></path>
            </g>
        </g>
    </g>
</svg>