<svg xmlns="http://www.w3.org/2000/svg" width="27" height="27"><title>twilio grey</title><desc>Created with Sketch.</desc><g fill="none"><g fill="#9CA0A8" fill-rule="nonzero"><path d="M13.5 0C6.03 0 0 6.03 0 13.5S6.03 27 13.5 27 27 20.97 27 13.5 20.97 0 13.5 0zm0 23.4c-5.5 0-9.9-4.4-9.9-9.9S8 3.6 13.5 3.6s9.9 4.4 9.9 9.9-4.4 9.9-9.9 9.9zm6.12-13.23c0 1.53-1.26 2.8-2.8 2.8-1.52 0-2.78-1.27-2.78-2.8 0-1.53 1.26-2.8 2.8-2.8 1.52 0 2.78 1.27 2.78 2.8zm0 6.66c0 1.53-1.26 2.8-2.8 2.8-1.52 0-2.78-1.27-2.78-2.8 0-1.53 1.26-2.8 2.8-2.8 1.52 0 2.78 1.27 2.78 2.8zm-6.66 0c0 1.53-1.26 2.8-2.8 2.8-1.52 0-2.78-1.27-2.78-2.8 0-1.53 1.26-2.8 2.8-2.8 1.52 0 2.78 1.27 2.78 2.8zm0-6.66c0 1.53-1.26 2.8-2.8 2.8-1.52 0-2.78-1.27-2.78-2.8 0-1.53 1.26-2.8 2.8-2.8 1.52 0 2.78 1.27 2.78 2.8z"/></g></g></svg>