<?xml version="1.0" encoding="utf-8"?>
<!-- Generator: Adobe Illustrator 23.0.2, SVG Export Plug-In . SVG Version: 6.00 Build 0)  -->
<svg version="1.1" xmlns="http://www.w3.org/2000/svg" xmlns:xlink="http://www.w3.org/1999/xlink" x="0px" y="0px"
	 viewBox="0 0 1440 453.5" style="enable-background:new 0 0 1440 453.5;" xml:space="preserve">
<style type="text/css">
	.st0{fill:#EBEBEB;}
	.st1{fill:#DDDDDD;}
	.st2{fill:#FFFFFF;}
	.st3{fill:#E71423;}
	.st4{fill:#FC2B45;}
	.st5{fill:none;}
	.st6{fill:#333333;}
	.st7{fill:#FF1D37;}

	.plane, .plane-2 {
  -webkit-animation-timing-function: ease-in-out;
  -moz-animation-timing-function: ease-in-out;
  animation-timing-function: ease-in-out;

  -webkit-animation: paper-plane-soaring 4s forwards infinite;
  -moz-animation: paper-plane-soaring 4s forwards infinite;
  animation: paper-plane-soaring 4s forwards infinite;
}
.plane-2{
	animation: paper-plane-soaring 3s linear .3s infinite;
}
@-webkit-keyframes paper-plane-soaring {
  0% {
    -webkit-transform: translate(1px);
    -moz-transform: translate(1px);
    transform: translate(1px);
  }
  40% {
    -webkit-transform: translate(2px);
    -moz-transform: translate(2px);
    transform: translate(2px);
  }
  50% {
    -webkit-transform: translate(2.5px);
    -moz-transform: translate(2.5px);
    transform: translate(2.5px);
  }
  60% {
    -webkit-transform: translate(2.5px);
    -moz-transform: translate(2.5px);
    transform: translate(2.5px);
  }
  70% {
    -webkit-transform: translate(2px);
    -moz-transform: translate(2px);
    transform: translate(2px);
  }
  100% {
    -webkit-transform: translate(1px);
    -moz-transform: translate(1px);
    transform: translate(1px);
  }
}
</style>
<g id="moon">
	<circle class="st0" cx="389.6" cy="137.5" r="104.9"/>
	<g>
		<path class="st1" d="M317.1,88c0.3-0.7,0.6-1.4,1.3-2.2c0.2-0.2,0.3-0.2,0.4-0.3c-0.2,0.4-0.4,0.9-0.6,1.4
			C317.8,87.9,317.3,88.2,317.1,88z" />
		<path class="st1" d="M318.9,85.5c0.2-0.3,0.3-0.6,0.3-0.6c0,0.2-0.1,0.3-0.1,0.4C318.9,85.5,318.9,85.5,318.9,85.5
			C318.9,85.5,318.9,85.5,318.9,85.5z"/>
		<path class="st1" d="M390.9,237.8c15-0.2,30-3.8,43.3-10.5c0.4-0.2,0.9-0.3,0.9-0.2c0.1,0.1-0.2,0.4-0.6,0.6
			c-13.3,6.8-28.3,10.4-43.4,10.7c-0.5,0-0.9-0.1-1-0.2C390.1,237.9,390.4,237.8,390.9,237.8z"/>
		<path class="st1" d="M468.8,175.4c0-0.3,0.2-0.7,0.4-1c0.2-0.2,0.3-0.1,0.3,0.1c0,0.3-0.2,0.8-0.4,1
			C468.9,175.8,468.7,175.7,468.8,175.4z"/>
		<path class="st2" d="M292.9,125.2c0-0.2,0.1-0.5,0.1-0.7c-0.2-1.1-0.1-2.7,0.3-4.5c0.1-0.8,0.2-1.7,0.2-2.3c0-0.7,0-1.3,0-2
			c0-0.7,0.1-1.4,0.2-2.1c0.1-1.4,0.3-2.9,0.5-4.5c0.2-1.5,0.6-3.1,1-4.7c0.4-1.6,0.8-3.3,1.4-4.9c-0.4,1.3-0.6,2.7-0.9,4.1
			c0.5-2,1.1-3.9,2-5.9c0,0.3,0.1,0.6,0.1,0.9c0.2-0.8,0.5-1.7,0.8-2.6c0.3-0.9,0.6-1.8,1.1-2.7c0.8-1.8,1.8-3.5,2.8-5.1
			c1.1-1.6,2.2-3.1,3.3-4.3c0.6-0.6,1.1-1.2,1.6-1.7c0.5-0.5,1.1-0.9,1.6-1.3c2.1-1.4,3.3-1.4,3.6-0.3c0.2,0.5,0.1,1.3-0.2,2.4
			c-0.1,0.5-0.3,1.1-0.6,1.7c-0.2,0.6-0.5,1.4-0.8,2.1l-0.4,0.9c0.8-1.1,1.6-2.1,2.5-2.9c1.2-1.2,2.4-2,3.4-2.5
			c0.9-0.4,1,0.6,1.3,1.1c0.9,0.4-0.1,2.8-2,5.5c-0.5,0.8-1,1.5-1.5,2.1c-0.1,0.2-0.2,0.4-0.3,0.6c-0.6,1.1-1.2,2.1-1.6,3.2
			c-0.5,1.1-1,2.2-1.5,3.3c-0.5,1.1-1,2.2-1.3,3.3c-0.2,0.7-0.7,1.5-1,1.7c-0.3,0.2-0.4-0.2-0.2-0.9c0.3-0.9,0.5-1.8,0.8-2.7
			c0.3-0.9,0.6-1.7,0.9-2.6c0.3-0.8,0.5-1.5,0.8-2.3c-0.2,0.2-0.3,0.4-0.5,0.5c0.1-0.2,0.1-0.3,0.2-0.5c-0.3,0.2-0.5,0.5-0.8,0.9
			c-0.6,1.2-1.1,2.4-1.7,3.6c-1.2,3.1-2.4,6.2-3,9.3c-0.1,0.2,0.5,0,0.4,0.5c0,0.2,0,0.5-0.1,0.7c0.2-0.7,0.4-1.5,0.7-2.4
			c0.8-1.5,1.5-2.4,2-3.1c0.5-0.7,0.8-1.1,1-1.5l0,0c0,0,0,0,0.2-0.2c0.2-0.3,0.4-0.6,0.7-1c0,0,0,0,0,0c0.1-0.1,0.1-0.2,0.2-0.3
			c0.2-0.5,0.4-0.9,0.6-1.3c0.2-0.5,0.6-0.9,0.8-1.1c0-0.2,0-0.4,0.1-0.7c0.6-1.3,0.9-1.9,1.2-2.5c0.2-0.3,0.3-0.6,0.5-1
			c0.2-0.4,0.5-0.9,0.8-1.5c0,0,0.1,0.1,0.1,0.2c0.1-0.1,0.7-0.8,1.2-1.8c0.6-0.9,0.6-0.9,2-3.2c0,0,0,0-0.1,0.2
			c0,0.2-0.2,0.5-0.4,1.1c0,0,0,0,0-0.1c0-0.1,0.1-0.4,0.4-0.9c0,0,0,0,0.2,0.5c0,0,0,0-0.1-0.7c0,0,0,0,0.6-0.2c0,0,0,0,0.5-2.4
			c0.1-0.1,0.4-0.4,1.2-1.2c0,0,0.3-0.2,0.5-0.3c0.1,0.1,0.1,0.1,1-0.4c0,0,0.1,0.1,0.2,0.2c-0.1,0.3-0.1,0.3,0.2,0.6
			c0,0-0.1,0.3-0.2,0.8c-0.2,0.4-0.3,0.5-1,1.9c0.1-0.1,0.3-0.1,0.4-0.2c0.8,0.2,0.8,0.2,1,2.8c0,0-0.1,0.3-0.2,0.8
			c-0.2,0.5-0.4,1.1-0.7,2c-0.9,1.7-0.9,1.7-2,3.7c0,0-0.2,0.4-0.6,1.2c-0.1,0.7-0.1,0.9-0.1,1.4c0,0,0,0,0,0c0.2-0.4,0.5-0.7,0.7-1
			c0.7-0.7,1.2-0.6,1,0.2c1.6-0.3,2.1,0.8,2.3,2.5c0.5-0.2,1-0.1,1.3,0.1c1.7-0.8,3.1-1,4.2-0.7l0.9,0.4c0.5,0.8,0.4,2.2,0,4.1
			l-0.1,0.6l0.9,0c0.4,1.5,0.4,3.4,0.5,5.3c0.2,1.9,0.3,3.9,0.7,5.4c0.1,0.7,0.2,1.5,0.3,2.2c0.2,0.8,0.2,1.7,0.2,2.8
			c-0.1,1-0.1,2.2-0.3,3.4c-0.1,0.9-0.3,1.7-0.4,2.6c-0.1,0.5-0.2,1.1-0.3,1.6c1.5-2.5,3.4-3.4,4.8-2.6c0.6,0.4,1,1,1.3,1.8
			c0.4,0.8,0.6,1.9,0.7,3c0.1,1.1,0.3,2.4,0.2,3.8c-0.1,1.3-0.1,2.8-0.3,4.2c-0.2,3.9-0.2,7.7,0.5,11.5l0.2,1.4
			c0.1,0.5,0.2,0.9,0.3,1.4c0.2,0.9,0.4,1.9,0.6,2.8c0.3,0.9,0.5,1.8,0.8,2.8c0.1,0.5,0.2,0.9,0.4,1.4l0.5,1.4
			c0.3,0.9,0.6,1.8,1,2.7c0.4,0.9,0.8,1.8,1.2,2.7c0.4,0.9,0.8,1.8,1.3,2.6c0.4,0.9,0.9,1.7,1.4,2.6c2,3.4,4.3,6.6,6.9,9.7
			c2,2.2,4.1,4.3,6.3,6.2c2.2,1.9,4.6,3.6,7.1,5.1c2.5,1.5,5.1,2.8,7.9,3.9c1.4,0.6,2.8,1,4.2,1.4c1.5,0.4,2.9,0.8,4.4,1
			c11.3,3.1,23.2,3.3,35.1,0c5-1.4,9.5-2.8,13.9-4.6c4.4-1.7,8.7-3.8,12.8-6.8c0.2-0.2,0.4-0.1,0.3,0.1c-0.1,0.2-0.3,0.5-0.6,0.7
			c-6,5.3-12.9,9.3-20.1,12.4c-7.3,3-15,5-23,5.8c-0.9,0.1-1.8,0.2-2.7,0.3c-0.9,0-1.8,0.1-2.7,0.2c-0.2,0-0.4,0.1-0.6,0.1
			c-1.6,0.1-3.3,0.3-4.9,0.3l1.7,0.1c1.1,0,2.1,0.3,2.2,0.7c0,0.2-0.2,0.4-0.4,0.5c4.3,0.4,8.6,0.6,12.9,0.3
			c1.3-0.2,2.4-0.3,3.5-0.4c4.7-1.5,9.3-3.5,13.6-6l1-0.7c1.4-0.9,2.9-1.4,3.8-1.4c0.3,0,0.5,0.1,0.7,0.2c5.1-2.6,10-5.9,14.4-9.7
			c4.4-3.8,8.4-8.1,12-12.5c0.4-0.5,0.7-0.6,0.8-0.5c0.1-0.2,0.2-0.5,0.4-0.7c1-1,1.9-2.3,2.7-3.7c0.2-0.3,0.4-0.4,0.4-0.2
			c0,0.2-0.1,0.6-0.3,0.9c-0.2,0.4-0.4,0.7-0.7,1c-0.2,0.3-0.5,0.7-0.7,1c-0.5,0.6-1,1.2-1.5,1.8c-0.1,0.1-0.2,0.2-0.3,0.2
			c0,0.4-0.3,0.8-0.6,1.2c-3.3,4.9-7.3,9.2-11.6,13c-4.4,3.8-9.1,7-14.1,9.9c5.3-2.3,10.3-5.5,15.1-9.5c5.8-4.9,10.8-10.1,14.8-16.9
			c0.2-0.4,0.4-0.6,0.5-0.5c0.1,0.1,0,0.5-0.2,0.8c-4.1,7-9.3,12.7-15.1,17.3c-1.5,1.1-2.9,2.3-4.5,3.3c-0.8,0.5-1.5,1.1-2.3,1.6
			c-0.8,0.5-1.6,1-2.4,1.5c-1.6,1.1-3.3,1.9-4.9,2.9c-0.8,0.5-1.7,0.9-2.6,1.4c-0.9,0.4-1.7,1-2.6,1.4c-0.6,0.3-1.1,0.6-1.7,0.9
			c2.5-0.6,4.8-1.4,7.2-2.2c1.2-0.5,2.4-0.9,3.5-1.4c0.6-0.2,1.2-0.5,1.8-0.8l1.7-0.8c1.6-1.1,3-2.3,4.6-3.5
			c0.8-0.6,1.4-1.3,2.2-1.9c0.7-0.6,1.4-1.3,2.1-1.9l2-2l1-1l1-1.1l1.9-2.1c0.6-0.7,1.2-1.5,1.8-2.3c4.8-6,8.6-12.8,11.5-20
			c0.2-0.7,0.6-1.2,0.9-1.1c0.2,0.1,0.2,0.8-0.1,1.5c-2.4,8.5-6.5,16.7-11.7,24c0.5-0.4,0.9-0.9,1.4-1.3l1.2-1.5
			c3.4-4.8,6.3-9.9,8.6-15.2c0.4-1,0.9-1.9,1.4-2.5c0.4-0.6,0.9-1,1.2-0.9c0.3,0.1,0.5,0.6,0.5,1.3c0,0.7-0.3,1.7-0.6,2.7
			c0.2-0.3,0.3-0.6,0.5-0.9c0.2-0.3,0.4-0.5,0.4-0.4c0.1,0.2,0,0.6-0.2,0.9c-0.6,1.1-1.2,2.2-1.9,3.3c-4.5,10.6-11.7,20.1-20.3,27.6
			c9.8-7.6,17.9-18,23-29.8c-0.2,0.2-0.3,0.2-0.3-0.1c0-0.3,0.2-0.8,0.4-1c0.2-0.2,0.3-0.1,0.3,0.1c0,0,0,0,0,0
			c2.6-6.4,4.4-13.2,5.2-20.1c0.1-0.4,0.2-0.7,0.3-0.7c0.1,0,0.2,0.4,0.1,0.9c-1.3,11.5-5.5,22.7-11.6,32.3
			c-3.1,4.8-6.7,9.2-10.7,13.1c-4,3.9-8.4,7.4-13.1,10.3c-0.9,0.7-2,1.4-3,2l0,0c0,0.6-0.5,1.5-1.2,2.4c6.8-4,13.1-8.9,18.6-14.6
			c4.4-5,8.2-10.4,11.3-16.3c0.5-0.8,1-1.4,1.3-1.3c0.3,0.1,0.1,0.9-0.4,1.8c-0.8,1.4-1.5,2.9-2.4,4.3c1-0.9,1.9-1.5,2.4-1.3
			c0.5,0.2,0.6,1.1,0.3,2.2c4.3-6.1,7.9-12.8,10.8-19.6c0.2-0.4,0.3-0.6,0.4-0.4c0.1,0.2,0,0.6-0.2,1c-1.8,5.1-4,10-6.6,14.6
			c-2.7,4.6-5.7,8.9-9.1,13c-4.6,7-10,13.4-17.3,19c-10.7,8.1-22.8,12.6-35.1,14.4c-2.2,0.6-4.4,1-6.5,1.4c-2.2,0.3-4.4,0.6-6.6,0.8
			c0.6,0.2,1,0.5,1.1,0.8c0,0.1,0,0.2-0.1,0.3c1-0.1,2-0.2,2.9-0.3c1-0.1,2-0.2,3-0.4c2-0.4,3.9-0.6,5.9-1.1
			c18.3-3.9,34.8-12.5,48.1-24.9c6.6-6.2,12.3-13.4,17-21.2c4.6-7.9,8.1-16.5,10.4-25.5c0.5-2.3,1.3-3.9,1.9-3.6
			c0.5,0.4,0.7,2.7,0.1,5c-3.7,17.9-12.7,33.1-25.8,45.6c-4.7,4.4-9.4,8.2-14.5,11.5c-5.1,3.2-10.3,6.1-16.2,8.5
			c-6.9,2.8-13.7,4.9-20.7,6.3c-7,1.4-14,2.1-21.3,1.8c-1.4,0-2.9,0.1-4.3-0.1c-1.4-0.2-2.9-0.3-4.3-0.5
			c-11.3-1.3-22.1-4.3-32.2-9.1c11.7,6.5,24.7,10.6,38,12.2c1,0.1,1.6,0.3,1.5,0.6c-0.2,0.2-1.1,0.4-2,0.3
			c-18.8-1.7-36.9-8.7-51.7-20.2c-2.7-0.7-6.4-2.6-10.1-5.4c-3.8-2.8-7.6-6.5-10.7-10.5c-2.3-2.9-4-5.9-5.5-9
			c0.9,1.3,1.8,2.6,2.8,3.9c-2.6-4-4.1-7.7-5.3-11.5c-0.2-0.3-0.3-0.6-0.5-0.9c-1.2-1.9-2.5-4-3.5-6.2c-1-2.2-2.1-4.5-2.9-6.9
			c-0.8-2.4-1.7-4.8-2.2-7.3c-0.3-1.2-0.6-2.5-0.9-3.7c-0.3-1.2-0.5-2.5-0.8-3.7c0.3,0.2,0.6,0.4,0.9,0.5c-0.5-1.8-1.1-2.8-1.5-4.8
			c0.3,0.5,0.5,1,0.8,1.6l0-0.1c-0.2-0.5-0.4-1.1-0.5-1.6c-0.1-0.6-0.2-1.2-0.3-1.8c-0.2-1.2-0.3-2.6-0.4-3.9
			C292.5,140.4,291.8,132.9,292.9,125.2z"/>
	</g>
</g>
<g id="mountain">
	<path class="st3" d="M172.3,281.4c0,0,17.2-1.1,36.3-11.9c0,0,35,20.6,43.7,24c8.3,3.3,58.6-6,58.6-6l131.9,74.9l67.2-23.1
		l99.6,40.6l110.5-15c0,0,117.9,24.3,138.4,24.4s67.4,7.9,67.4,7.9s-114.5,9-131.9,4.1c-17.4-4.9-103.8-14.3-103.8-14.3
		s-127.7,3-145.1,2.5s-120.2-3.7-120.2-3.7l-85.9-2.5l-76.8-17l-48-30l-35.5-33.7L172.3,281.4z"/>
	<path class="st4" d="M722.4,370l7,6.1l-14.3,3.5l7.2,4.4c0,0-107.9,1.7-124.5,0.9c-16.5-0.9-82.1-37.8-82.1-37.8l3.2,10l7.6,6.5
		l-13,4.3l0.3,6.9c0,0-50.7,0.1-72.9-2.9c-22.1-3.1-122.5-70.6-122.5-70.6l0.9,14.2c0,0,2.1,3.4,5.2,8.1c3,4.8-0.4,1.5-9.5,10.3
		S297,345.2,297,345.2s-75.3-55.4-85-63.9l-17.8,9.7l8.7,4.4l-17.8,3.1l65.6,66.2l179,19.6l89.3,0.4l243.5,8.7l31.5,8L722.4,370z"/>
</g>
<g id="tree">
	<path d="M202.4,94.3c0,0,25.6-21.7,30.8-22.3c5.2-0.6,6.5,0.3,20.8,1.3c14.2,1,23.8-0.8,34.1,0.3c9.5,1,26.4,4.6,26.4,4.6
		s-20.6-7.8-25.6-7.6c-8.3,0.4-21.5-0.2-25.3-1c-3.8-0.8-14.4-3.4-17-4s-21,1.6-23.2,2.9c-2.1,1.3-13.3,5.8-13.3,5.8"/>
	<path d="M222.3,167.9c0,0-2.8-2.4-3.4-5.4s-0.6-5.1-2-9c-1.4-3.9-1.6-11.9-1.6-11.9s-1,8.6-0.4,10.8c0.5,2.1,1.8,7.5,2,9.5
		c0.2,2,0.6,6.2,1,7.5s4.1,2.7,4.5,5.1"/>
	<path d="M258.9,69.6c0,0,2.3-2.9,5.3-3.5c3-0.6,5.1-0.7,9-2.2c3.8-1.5,11.8-1.8,11.8-1.8s-8.7-0.8-10.8-0.2s-7.5,2-9.5,2.2
		c-2,0.3-6.2,0.7-7.5,1.2c-1.3,0.5-2.6,4.2-5,4.6"/>
	<path d="M182.1,108.1c18.1-37.6,35.1-43,57-62.4c21.9-19.4,89.4-38,102.4-38.1c13-0.1,52.5,6.6,70.1,5.2
		c17.5-1.4,33.4-2.5,44.9-1.8c11.5,0.6,38.4,5.9,38.4,5.9c-26.7,3.1-32-3.2-63.3-1.4c-31.3,1.7-50,5.2-63.5,1.5
		c-13.5-3.7-41.5-6.2-75.6,12.3c-34.1,18.5-79.5,42.8-102,88.3c-22.4,45.5-19.3,91.9-19.3,91.9s40.4-17.2,47-28.3
		c6.6-11.2,3.5-38.6,3.5-38.6c-0.1-10.1,1.5-18.8,3.8-24.3c2.4-5.5,7.5-26.6,7.5-26.6s0.3,11.8-2.7,29.3c-7.3,34,7.2,52.5-3.3,66.6
		c-10.4,14.1-41.6,19.1-47.4,50.4c-5.8,31.3,17,71.8,17,71.8l13.1-3.3c8.6,36.3,56.7,56.5,89.5,65.2l0,0l0,0l89.2,15.7l37.5-7
		c0,0,88.9-3.9,97-3.1s28.1,3.4,45.2,7c17.1,3.6,93.5,4.9,114.3,2.6c12-1.3,72,10.4,138.1,12l248.3-2.6c0,0-219.1,7.1-255.4,7.7
		c-50,0.8-146.7-10.4-173.7-9.8c-27,0.6-112.4-3-139.4-2.4c-27,0.6-109.7,15.4-203.3-9.6l0,0c-55.2-8.2-116.8-56.7-125.3-88
		c-8.5-31.3-13.5-67.3-14.3-102.5S164,145.7,182.1,108.1z"/>
	<polygon points="406.8,396.7 157.4,373.6 144.9,336.3 161.2,339.3 144.2,286.5 140.3,188.3 172.3,141.6 172.3,253.9 214.2,336.4
		262.2,366.4 372.8,383.2 433.5,385.8 424.8,385.9 	"/>
	<g>
		<polygon points="135.1,366.8 157.4,373.6 406.8,396.7 424.8,385.9 433.5,385.8 472.6,387.4 570.8,389.5 685.5,392 804.9,401.5
			1053.6,396.7 1245.6,384.9 1440,396.4 1440,453.5 0,453.5 0,383.2 		"/>
	</g>
</g>
<g id="samurai">
	<g>
		<g>
			<g>
				<polygon class="st5" points="418.7,249 418.2,250.8 413.8,249.7 411.1,244.7 402.8,241.9 388.5,233.7 396.9,229.1 				"/>
				<path d="M388.5,387.5l40.6,2.6c0,0-21.4-71.2-23.8-88.2c-2.4-17-17.7-55.8-17.7-55.8l5.8,2.5l2.7,6.7l13,5l8-1.8l16.9,7.7
					l5.8-12.7l-13.9-10.8L413.3,224c1-0.4,3.3-2.4,3.3-2.4c-5.1-4.9-22.8-37.5-25.9-39.5c-3-1.9-1-1-6.1-3.9
					c-5.1-2.9-10.2-9.8-11.2-9.8c-1,0-3.2-9.9-3.2-9.9l4.4,1.7c0.3,0.1,0.5-0.1,0.6-0.3l0.9-7.5c0,0,3.9,2,3.9,1
					c0-1-0.2-14.1-0.2-14.1l-28.4-0.7l-2.4,1.9l2.3,9.5l-0.3,4.1c-3,0.1-10.8,4.1-10.8,4.1s-5-0.9-9,0.2c-4,1.1-8.8,10.2-8.4,28.2
					c0.4,18,6.7,30.9,6.7,30.9s-5.8,10.1-2.7,13.1c3.1,2.9,9,1.8,9,1.8c-2.8,7.1,0.2,7,0.2,7s-6.2,38.1-17.6,66.4
					c-8.1,20.1-17.8,60.7-21.4,76.5L388.5,387.5z M388.5,233.7l8.4-4.7l21.8,19.9l-0.6,1.8l-4.4-1l-2.7-5l-8.3-2.8L388.5,233.7z"/>
			</g>
			<path d="M338.5,239.3c0,0-40.1,59.6-82.4,98.1c0,0,4.9,2,7.8,0.4c3-1.6,58.5-63.7,76.2-94.6" class="plane"/>
			<path d="M332,249.4c0,0-0.1,1.5,0.8,7.3c0,0.2,0,0.4-0.1,0.5l-1.5,1.8c-0.3,0.4-1,0.3-1.1-0.2c-0.5-1.8-1.3-5.3-0.9-6.7
				C329.6,250.1,332,249.4,332,249.4z"/>
			<path d="M321.9,269.6c0,0,0.2-1.5-0.6-7.3c0-0.2,0-0.4,0.2-0.5l1.6-1.8c0.3-0.4,1-0.2,1.1,0.3c0.4,1.8,1.1,5.4,0.7,6.8
				C324.3,269,321.9,269.6,321.9,269.6z"/>
			<path d="M335.9,248.4c0,0-3.7,16.3-11.3,27.9s-11.8,9.8-13.6,22.4c-1.8,12.6-8,15.5-8,15.5l-1-4.4c0,0,3-1.7,5-9.2
				c1.9-7.5,1.4-12,8.1-17.8s12.5-12.8,16.2-30.4" class="plane plane-2"/>
			<path d="M413.8,249.7c0,0,72.3,30,158.3,36.5c0,0-1.7,4.9-5,4.6c-70.5-5-140.3-29.8-173.6-42.2L413.8,249.7z"/>
			<path d="M367.6,117.6l38,26.1c0,0-12.8,6.7-35.2,4.9c-30.1-2.3-45.4-17.3-45.4-17.3L367.6,117.6z"/>
		</g>
		<g>
			<g>
				<path class="st6" d="M380,179c0,0,10,22,9.6,23.8c-0.4,1.8-2.4,6.6-2.7,9.2s0.1,6.7,0.1,6.7l-2.7,3.5c0,0-7.5-32.3-12.3-36.9
					c-4.9-4.6-6.7-6-6.7-6l-8.5-10.3c0,0,6.5,9.6,6.4,11.8s-0.8,6.5-0.8,6.5s-8.3-7.7-9.1-8.7c-0.8-1,1.4,5.3,2.7,8.5
					c1.3,3.2,1.4,6.7,2.2,8.6s-2.9-0.9-2.9-0.9s3.9,4.8,4.1,5.8c0.2,1-2.2,2.5-2.2,2.5s2.4,2.9,3.1,3.7c0.7,0.8,5.6,3,7.1,3.9
					c1.5,0.8,4.5,2.6,4.5,2.6l-4.8,4.5c0,0,1-4,0.5-4s-4.5,2.5-4.5,2.5l0-2.7c0,0-5.2,3.9-5.9,3.9s6.4-6.6,4.8-6.6
					c-1.5,0-8.4,5.2-8.9,4.5s4.9-4.8,4.9-6.8c0-2-8-2.7-8-2.7s-9.3-20.7-10.4-23.5s-1.3-7.2-2.5-10s1.1-5.7,10.7,5.6
					c-3-5.2-2.4-7.1,2.7-2.9c0,0-5.5-5.8-6.4-7c-0.8-1.1,2.8-2.5,7.8,1.7c5,4.2-4.3-4.8-7.2-7.1c-2.9-2.4-3.1-3.4-3.1-3.4l5-3.1
					c0,0,15.4,14.8,17.4,17c1.9,2.2,7.7,7.6,8.5,8.5c0.8,1,10.1,16.9,10.1,16.9s-3.1-11.9-4.1-14.4s-3.1-10.2-3.1-10.2L380,179z"/>
				<path class="st6" d="M413.3,219.8c0,0-5,0.5-6.5,3.6c0,0,2.2-4.3,3.3-5.2s-3.3,2-3.3,2s1.1-4.5,0.9-5c-0.2-0.5-3.6-0.5-4.5-3.2
					l-2.9,5.7c0,0,1.6-12.3,0.9-12.8c-0.7-0.4-3.8,6.6-4.5,7c-0.8,0.5-0.6-5.7-0.6-5.7l-5,7.1c0,0,1.7-7.5,1.4-9.3
					c-0.3-1.7-6-17.9-7.5-20.4c-1.5-2.5-3.5-5-3.5-5s7.8,4,8.7,5.5C391.1,185.7,413.3,219.8,413.3,219.8z"/>
				<path class="st6" d="M372.3,122.7l27.8,19.9c0,0-13.4,6.3-32.8,2.2c0,0,12.3-3.2,14.8-4.1l-12.8-2.5l11.4-3L372.3,122.7z"/>
				<polygon class="st6" points="412.1,249.1 410.2,245.8 398.1,241.7 404.4,247.6 404.3,248.8 408.7,258.7 415.6,257.7
					412.9,256.7 410.4,256.6 407.9,248.7 408.5,247.5 410.1,249.4 				"/>
				<polygon class="st6" points="427.7,251.3 422.5,248.1 422.9,245.8 412,225.7 424,243.7 437.3,253.9 436.1,257.1 429,250.5
					"/>
				<g>
					<path class="st6" d="M436.5,260.5l0.4-0.9c28.1,9.3,78.1,23.5,133.8,27.8c-0.3,0.6-0.7,1.3-1.3,2c-0.1,0-0.1,0-0.2,0
						c0.3-0.4,0.5-0.8,0.7-1.2C514.5,283.9,464.7,269.8,436.5,260.5z"/>
				</g>
				<polyline class="st6" points="433.2,254 433.3,260.5 435,260.5 437.3,253.9 				"/>
				<path class="st6" d="M380.3,252.7c0.3,8.2,1.2,16.7-0.6,35.5c-1.8,18.8-13.9,42-15.9,52c-2.1,10.1,1.3,20.9,1.3,20.9
					s-10.7-11.3-0.8-35.5c9.9-24.3,13.5-33.1,12-52c0,0-0.9,12.9-4.1,21.3s-5.8,15.4-5.8,15.4l0.3-8.1l-1.8,3.4
					c0,0-0.8-3.8,2.9-14.5c3.7-10.7,5.4-20.4,5.3-21.6c-0.1-1.2-4.3,15.6-6.8,19.6c-2.5,4.1-5.5,7.6-4.9,14.1s0.6,10.7,0.6,10.7
					s-3.3-10.4-2.6-14.9c0.7-4.5,4.1-9.6,6.6-18.4c2.4-8.8,7.1-32.5,7-32.9c-0.1-0.5,0.9,2.7,0.9,2.7l-0.2,5l1.2-4.3l1.7,0.9
					c0,0-1.3,9-1.2,13c0.1,4,2.8-9.1,2.9-12.7l0.4,0.1l0.2,6.4L380.3,252.7z"/>
				<polygon class="st6" points="377.1,151.7 379.3,152.7 379.1,148.8 378.8,151.4 				"/>
			</g>
			<defs>
        <linearGradient id="logo-gradient" x1="50%" y1="0%" x2="50%" y2="100%" >

            <stop offset="0%" stop-color="#e61523">
                <animate attributeName="stop-color" values="#e61523; #9a000a; #e61523" dur="4s" repeatCount="indefinite"></animate>
            </stop>

            <stop offset="100%" stop-color="#9a000a">
                <animate attributeName="stop-color" values="#9a000a; #e61523; #9a000a" dur="4s" repeatCount="indefinite"></animate>
            </stop>

        </linearGradient>

    </defs>
			<g>
				<polygon class="st7" points="411.5,249 409.7,246.1 399.1,242.5 408.9,246.5 				"/>
				<polygon class="st7" points="381.9,186.9 388.5,202.2 385.8,212.6 385.9,218 384.8,211.4 386.7,202.4 				"/>
				<polygon class="st7" points="351.3,182.3 356,191 356.9,194 352.5,192.4 358.2,200.1 355.8,203.1 356.1,199.8 350.9,191.7
					354.6,191.7 				"/>
				<polygon class="st7" points="385.2,182 389.2,184.4 401,202.5 388.9,185.3 				"/>
				<path class="st7" d="M385.7,134.2L397,142c0,0-6.4,3.1-13.9,3.2c0,0,7.7-1.3,11.9-3.4L385.7,134.2z"/>
				<path  fill="url('#logo-gradient')" d="M380,261c0,0,0.3,12.9-0.9,25.2c-1.2,12.3-6.2,26-6.2,26s5.5-18.6,5.6-29.1s0.3-19.2,0.3-19.2l0.6,4.4
					L380,261z"/>
				<path class="st7" d="M437,259.8l-0.2,0.5c0,0,38.7,12,52.9,14.7C489.7,274.9,446.9,263.8,437,259.8z"/>
				<polygon class="st7" points="346.7,157.4 343.6,159.2 346.3,159.1 349.7,164 348.4,159.8 360,170.5 				"/>
			</g>
		</g>
	</g>
</g>
</svg>
