<?xml version="1.0" encoding="UTF-8"?>
<svg width="698px" height="362px" viewBox="0 0 698 362" version="1.1" xmlns="http://www.w3.org/2000/svg" xmlns:xlink="http://www.w3.org/1999/xlink">
    <!-- Generator: Sketch 57.1 (83088) - https://sketch.com -->
    <title>Group 291</title>
    <desc>Created with Sketch.</desc>
    <defs>
        <polygon id="path-1" points="0.600176725 0.406 6.8016025 0.406 6.8016025 1.30132268 0.600176725 1.30132268"></polygon>
        <polygon id="path-3" points="0.1733 0.406 6.0483 0.406 6.0483 1.30315589 0.1733 1.30315589"></polygon>
        <polygon id="path-5" points="0.0376 0.406 1.1726 0.406 1.1726 1.09371548 0.0376 1.09371548"></polygon>
        <polygon id="path-7" points="0 362 698 362 698 0.406 0 0.406"></polygon>
    </defs>
    <g id="Page-1" stroke="none" stroke-width="1" fill="none" fill-rule="evenodd">
        <g id="version-2-copy-3" transform="translate(-371.000000, -133.000000)">
            <g id="Group-291" transform="translate(371.000000, 132.000000)">
                <polygon id="Fill-1" fill="#FF0000" points="49.096 267.863 648.903 267.863 648.903 8.863 49.096 8.863"></polygon>
                <g id="Group-290" transform="translate(0.000000, 0.594000)">
                    <path d="M651.4023,224.9496 C651.4593,228.8366 651.1483,232.2276 651.0083,230.7656 C651.3843,238.6826 650.9563,238.8526 651.6853,239.8796 C652.0443,244.9606 651.5483,250.3836 651.2523,244.6006 L651.6993,259.2536 L651.8123,250.4926 C652.4193,252.8796 651.6313,264.4926 652.3383,267.2686 L652.2793,251.4076 L652.4803,252.2006 C652.2633,248.5896 652.3543,241.5736 652.4383,239.1296 C652.5393,239.5136 652.7013,239.2676 652.7183,242.0666 C652.7653,222.9146 651.6583,236.9066 651.4563,221.0166 C651.4713,222.0116 651.4633,223.2466 651.4023,224.9496" id="Fill-2" fill="#FF2020"></path>
                    <path d="M652.8867,208.681 L652.1267,202 L652.3237,190.793 C652.0607,190.666 651.8487,182.503 651.6167,188.032 C651.6577,189.111 651.7367,191.248 651.7127,192.972 C651.1457,191.722 651.4297,178.069 650.8547,181.363 C651.0047,190.226 650.8807,191.587 651.3417,197.042 C651.2877,205.167 651.1577,211.084 650.9507,214.878 C651.0367,217.291 651.3847,217.629 651.4537,220.694 C651.4477,220.015 651.4417,219.394 651.4327,218.613 L652.2857,218.283 C652.1067,215.727 652.1917,213.31 652.1727,210.475 L653.1697,223.593 C653.9687,219.363 653.4997,206.473 653.8317,201.324 C653.1137,207.711 653.4747,196.237 652.8867,208.681" id="Fill-4" fill="#FF2020"></path>
                    <path d="M651.4541,220.6937 C651.4551,220.7787 651.4561,220.9187 651.4561,221.0167 C651.4561,220.9187 651.4551,220.7787 651.4541,220.6937" id="Fill-6" fill="#FF2020"></path>
                    <path d="M51.5098,176.2015 C51.5258,178.9895 51.7268,179.8125 51.8288,180.2155 L51.8128,148.8095 C51.5888,149.7945 51.3108,158.8395 51.1768,152.7945 C50.9288,155.4905 51.1408,163.7005 51.4438,164.8915 L51.1018,162.6155 C51.5398,169.8515 50.6798,174.7935 50.4218,170.0755 L50.4258,170.6855 L52.1108,190.7255 C52.2088,183.3685 51.5308,185.0585 51.5098,176.2015" id="Fill-8" fill="#FF2020"></path>
                    <path d="M603.0107,265.7132 C598.9417,265.7902 598.4417,265.8722 598.9037,265.9542 C600.3617,265.8922 601.7467,265.8192 603.0107,265.7132" id="Fill-10" fill="#FF2020"></path>
                    <path d="M52.5059,195.4105 L53.0329,201.6885 C52.8909,199.1745 52.7009,196.9665 52.5059,195.4105" id="Fill-12" fill="#FF2020"></path>
                    <path d="M44.4868,151.9212 C44.4588,151.9082 44.4338,151.8412 44.3968,152.0062 L44.6658,154.8252 L44.6658,154.7522 C44.5998,153.7142 44.5408,152.7822 44.4868,151.9212" id="Fill-14" fill="#FF2020"></path>
                    <path d="M119.7354,261.8793 C120.4104,261.8663 120.9904,261.8573 121.7964,261.8423 C121.0464,261.8563 120.3674,261.8673 119.7354,261.8793" id="Fill-16" fill="#FF2020"></path>
                    <path d="M41.4731,66.8461 L41.9801,80.8081 C41.7401,78.9471 41.8121,85.6831 41.5321,82.7411 C41.5711,83.8051 41.6661,88.7951 41.7891,87.4331 L41.7741,84.5851 C42.4731,91.9481 42.7421,87.4891 43.2751,99.6961 C43.6901,92.1181 43.3101,88.7951 42.9921,84.7811 C42.9551,83.4191 42.9251,82.2791 42.8941,81.1261 L41.9171,69.5161 L41.4731,66.8461 Z" id="Fill-18" fill="#FF2020"></path>
                    <path d="M408.4492,269.6839 L408.2962,269.7389 C408.4362,269.7199 408.4612,269.7019 408.4492,269.6839" id="Fill-20" fill="#FF2020"></path>
                    <path d="M407.6846,269.9632 L408.2956,269.7382 C407.5456,269.8502 404.6726,269.9582 407.6846,269.9632" id="Fill-22" fill="#FF2020"></path>
                    <path d="M52.0527,193.1048 C52.1827,193.2958 52.3417,194.1008 52.5057,195.4108 L52.1107,190.7258 C52.0947,191.3928 52.0737,192.2698 52.0527,193.1048" id="Fill-24" fill="#FF2020"></path>
                    <path d="M50.5254,182.4476 L50.4254,170.6856 L50.0634,166.3496 C50.2004,170.8516 50.2944,176.1166 50.5254,182.4476" id="Fill-26" fill="#FF2020"></path>
                    <path d="M101.1582,261.4671 C125.5222,261.3611 95.1722,262.2901 106.3662,262.4891 C113.1332,262.3921 115.5182,262.0021 119.7352,261.8791 C100.4112,262.2131 122.3552,260.5911 102.8662,260.7991 C105.6372,260.0911 116.9212,260.0291 123.5342,260.2201 C131.0192,260.9011 116.9942,260.7191 115.2982,261.3861 C123.1192,261.2761 121.7412,261.1521 125.0602,260.7721 C137.3402,260.9301 150.4682,259.9341 157.7992,260.8791 C166.6892,260.7291 166.1032,260.4031 171.2152,260.0431 C172.2322,259.3151 157.9952,259.6611 154.7022,259.0871 C155.3842,259.1491 156.7142,259.2721 156.3292,259.3741 L148.6442,259.2201 C155.9382,259.4751 147.6312,259.9491 143.7312,260.0061 C140.8962,260.0221 135.2592,260.0541 136.0342,259.8531 L140.3282,259.6961 C134.8002,259.4651 128.1332,260.2281 122.2962,259.8321 C121.9912,259.6681 124.1992,259.5911 124.5342,259.4901 C117.9942,259.9881 111.6862,259.9581 102.0052,260.3111 L107.6162,259.5881 C99.8732,260.3881 82.3382,260.1611 70.1842,259.7381 C71.5332,259.8621 73.9632,259.9471 72.5042,260.0871 C65.3652,260.2591 59.9742,259.7641 63.2802,259.3831 C61.7962,259.5121 59.6682,259.5621 57.2942,259.5691 C57.1432,259.5761 56.9752,259.5401 56.8682,259.4961 C56.8972,259.3881 56.9262,259.2751 56.9552,259.1631 L56.9722,259.0991 L56.9792,259.0701 L56.9862,258.3601 C56.9902,257.3751 56.9942,256.4011 56.9982,255.4451 C56.9992,251.6211 56.9302,248.0911 56.7082,245.3811 L53.0332,201.6891 C53.1252,203.3231 53.2002,205.0751 53.2312,206.8811 C52.5972,210.8521 52.6742,212.9921 52.0752,206.0321 C52.4112,212.8651 52.9212,210.2551 52.9482,220.5211 C52.6282,216.4941 51.8992,215.4771 51.8242,225.3111 C52.0332,233.3831 52.3672,240.5611 52.7552,247.3761 C52.9632,250.7831 53.1662,254.1011 53.3682,257.3951 C53.4212,258.1541 53.4742,259.2581 53.5272,259.4331 L53.6872,260.5021 C53.7942,261.1831 53.9012,261.8001 54.0072,262.3591 C54.7382,262.2511 55.4742,262.1431 56.2202,262.0321 C56.5402,261.9811 56.8622,261.9281 57.1862,261.8751 L57.3082,261.8561 L57.6432,261.8361 L58.3162,261.7981 C58.7652,261.7731 59.2162,261.7471 59.6692,261.7221 C63.2912,261.5231 67.0362,261.3381 70.9782,261.1801 C71.8252,261.6681 89.8522,261.5311 98.6152,261.6471 C95.2712,262.1711 88.7672,262.3211 82.0202,262.4281 C86.2552,262.4461 93.5452,262.4761 98.9532,262.4981 L101.1582,261.4671 Z" id="Fill-28" fill="#FF2020"></path>
                    <path d="M53.2539,260.6341 C53.2109,260.9541 53.1859,261.2851 53.1629,261.6281 C53.2039,261.4281 53.2349,261.1281 53.2539,260.6341" id="Fill-30" fill="#FF2020"></path>
                    <path d="M79.9648,262.4125 C79.8798,262.4315 79.9088,262.4455 79.8798,262.4655 C80.5878,262.4525 81.2948,262.4405 82.0208,262.4285 C81.2948,262.4225 80.4768,262.4165 79.9648,262.4125" id="Fill-32" fill="#FF2020"></path>
                    <path d="M50.9487,198.8656 C50.8317,197.4046 50.7457,196.3296 50.6297,194.8686 C50.6657,195.7666 50.7117,196.8946 50.7567,197.9796 C50.8227,199.0126 50.8887,199.5066 50.9487,198.8656" id="Fill-34" fill="#FF2020"></path>
                    <path d="M51.8086,193.9486 L52.0096,194.7276 C52.0266,194.1006 52.0376,193.6606 52.0526,193.1046 C51.9446,192.9346 51.8536,193.1166 51.8086,193.9486" id="Fill-36" fill="#FF2020"></path>
                    <path d="M194.2612,265.891 L196.5962,265.785 C195.1902,265.792 194.5842,265.835 194.2612,265.891" id="Fill-38" fill="#FF2020"></path>
                    <path d="M128.2983,262.2982 C119.8253,262.3462 127.2863,263.0272 115.2983,263.0312 L118.8173,263.0762 C110.2153,263.3882 95.1003,263.2452 84.8813,263.2712 C86.0343,262.9802 78.6833,262.9162 79.8793,262.4652 C72.8933,262.5712 65.9763,262.6712 62.3773,263.1382 C61.4943,263.1072 60.5173,263.0992 59.4753,263.1052 C58.5043,263.1102 57.0623,263.1302 56.7413,263.1522 C55.6003,263.1982 54.3153,263.2592 53.1103,263.2552 C53.1123,262.7082 53.1273,262.1592 53.1623,261.6282 C53.0353,262.2672 52.8263,261.5722 52.6733,261.2372 C52.5203,260.9022 52.4223,261.1062 52.5173,263.8482 C52.9303,263.8322 53.4193,263.8142 53.9753,263.7922 C53.3223,263.8302 53.6703,263.8922 53.0063,263.9312 C55.5553,264.1212 56.8943,264.0552 60.2663,263.9402 C63.1373,263.8242 65.8603,263.6612 69.5753,263.6562 C74.0163,263.9262 62.3093,264.0912 66.5023,264.1992 C75.7803,263.9482 95.6183,264.5252 95.0033,263.5102 C101.7553,263.4392 102.6883,263.6622 104.7013,263.8482 C115.3823,262.7672 144.3423,264.3112 144.245543,262.9302 C140.3453,262.9852 133.9913,262.9542 128.2683,263.2502 L128.2983,262.2982 Z" id="Fill-40" fill="#FF2020"></path>
                    <path d="M51.02,213.0951 C51.016,213.6161 51.01,214.3101 51.006,214.7421 C51.01,214.2561 51.015,213.6511 51.02,213.0951" id="Fill-42" fill="#FF2020"></path>
                    <path d="M55.2012,116.6673 L55.1172,123.1153 C55.2572,121.5843 55.2522,119.1813 55.2012,116.6673 M55.0232,106.1683 L55.9272,109.7123 C56.1422,129.8883 55.8892,137.1843 55.9252,154.8253 C55.8012,156.1723 55.7222,154.0313 55.6822,152.9463 C55.7872,165.3503 55.5982,183.9063 56.0132,192.9353 C56.0062,196.8813 55.7192,207.2403 55.4532,203.3203 C55.5332,205.2403 55.6102,207.4353 55.5822,209.6443 C55.2572,210.2293 55.4892,204.7023 55.2222,204.5753 C55.2012,206.3253 55.1382,207.0083 55.2402,207.4103 C54.9612,204.4643 54.1392,210.4663 54.1592,196.7283 C54.9182,191.4103 54.2472,206.2583 55.0842,203.1173 C55.0902,198.5603 54.7662,199.0893 54.6642,198.7003 C54.6822,192.8933 54.8932,193.0453 55.0842,193.3553 C54.8242,191.1293 55.1852,183.8263 54.7912,180.7533 C54.7262,169.4613 55.4202,181.3683 55.4102,173.9923 L54.5632,169.7403 L54.7222,157.4783 C54.4252,139.7263 53.2582,160.0173 52.7792,139.7263 C53.2212,142.3933 53.9642,134.2553 54.1412,124.8103 C54.1722,130.4613 54.7242,140.9043 54.4732,148.2003 C55.1372,137.9173 54.5532,162.3543 55.3132,157.0173 C54.9532,151.9353 54.9052,143.4603 55.0982,136.8523 L55.1772,139.0193 C55.2662,131.9913 54.3802,126.6713 54.7192,116.9733 C54.6912,112.1533 54.9312,113.0563 55.1292,113.9033 C55.0022,109.8273 54.8362,106.1813 55.0232,106.1683" id="Fill-44" fill="#FF2020"></path>
                    <path d="M652.7773,118.5111 C652.7553,119.1521 652.7283,119.8891 652.7083,120.4691 C652.7483,120.0401 652.7653,119.2991 652.7773,118.5111" id="Fill-46" fill="#FF2020"></path>
                    <path d="M186.9165,4.0702 L190.6515,4.0982 C189.1925,4.0692 187.9985,4.0652 186.9165,4.0702" id="Fill-48" fill="#FF2020"></path>
                    <path d="M270.729,1.2704 L276.184,1.0724 C274.031,1.0844 272.344,1.1644 270.729,1.2704" id="Fill-50" fill="#FF2020"></path>
                    <path d="M652.8359,73.9828 L652.8419,73.8008 C652.8259,73.4958 652.8139,73.2618 652.7969,72.9398 L652.8359,73.9828 Z" id="Fill-52" fill="#FF2020"></path>
                    <path d="M438.8281,3.2533 C439.6601,3.3253 440.5921,3.3903 441.8681,3.4403 C441.7161,3.3563 440.5801,3.2963 438.8281,3.2533" id="Fill-54" fill="#FF2020"></path>
                    <path d="M269.7256,1.307 C269.8646,1.314 269.9446,1.318 270.0556,1.323 C270.2676,1.307 270.4996,1.288 270.7286,1.27 L269.7256,1.307 Z" id="Fill-56" fill="#FF2020"></path>
                    <path d="M149.9985,1.598 C149.1965,1.626 148.4675,1.652 147.6075,1.682 C148.7345,1.666 149.4255,1.634 149.9985,1.598" id="Fill-58" fill="#FF2020"></path>
                    <path d="M155.2627,4.0009 C154.4017,4.0219 153.5797,4.0489 152.9397,4.0849 L155.2627,4.0009 Z" id="Fill-60" fill="#FF2020"></path>
                    <path d="M43.1812,31.2367 L43.3032,36.2627 C43.2892,33.7927 43.2422,32.3167 43.1812,31.2367" id="Fill-62" fill="#FF2020"></path>
                    <path d="M141.9565,3.4462 C141.6645,3.4852 141.3715,3.5232 141.1765,3.5612 C141.8715,3.5352 142.2035,3.4852 141.9565,3.4462" id="Fill-64" fill="#FF2020"></path>
                    <path d="M650.251,150.4584 C650.25,150.3444 650.249,150.2214 650.248,150.1524 L650.149,150.0254 L650.251,150.4584 Z" id="Fill-66" fill="#FF2020"></path>
                    <path d="M651.4854,162.683 C651.5074,164.124 651.5324,165.624 651.5554,167.1 C651.5604,165.459 651.5344,163.862 651.4854,162.683" id="Fill-68" fill="#FF2020"></path>
                    <path d="M511.8574,4.6171 C513.1894,4.7401 516.3124,4.8861 514.8534,5.0261 C517.4024,4.8491 517.2324,4.4201 511.8574,4.6171" id="Fill-70" fill="#FF2020"></path>
                    <path d="M644.9453,125.9505 C645.0603,126.7505 645.1483,127.7475 645.2343,128.7475 C645.1103,126.8865 645.0083,125.2545 644.9453,125.9505" id="Fill-72" fill="#FF2020"></path>
                    <path d="M645.2344,128.7474 C645.2984,129.6674 645.3674,130.6494 645.4244,131.4734 C645.3714,130.5154 645.3054,129.5944 645.2344,128.7474" id="Fill-74" fill="#FF2020"></path>
                    <path d="M477.9951,11.6512 C477.6651,11.5932 477.1511,11.5452 476.4561,11.5302 C476.6601,11.6452 477.2151,11.6702 477.9951,11.6512" id="Fill-76" fill="#FF2020"></path>
                    <path d="M651.4199,170.6693 C651.6209,171.4613 652.0609,190.6663 652.1639,174.5133 C652.7919,175.1363 652.4549,184.8763 652.6099,189.1843 C652.7579,186.0553 653.0139,190.7393 653.2389,189.7903 C653.1619,187.6523 652.9819,185.1143 653.0259,181.5833 C653.3149,179.9593 653.5089,185.3173 653.4019,189.5013 C653.7339,184.3473 653.8999,196.0423 654.1549,188.7463 C653.9339,173.1513 653.7039,162.1323 652.7859,151.1663 C652.9379,160.0543 653.1249,169.9993 652.8719,177.2893 L652.3269,174.2253 C652.8059,165.9843 652.4489,160.8983 652.4999,152.7933 L652.2109,170.9993 C651.7579,179.5273 651.6539,173.8223 651.5559,167.1003 C651.5489,168.7523 651.5159,170.2493 651.4199,170.6693" id="Fill-78" fill="#FF2020"></path>
                    <path d="M646.6465,158.4017 L646.6305,158.7077 C646.6505,158.9737 646.6625,159.3037 646.6855,159.4737 L646.6465,158.4017 Z" id="Fill-80" fill="#FF2020"></path>
                    <path d="M54.1899,30.308 L54.3959,31.872 C54.3029,30.567 54.2389,30.164 54.1899,30.308" id="Fill-82" fill="#FF2020"></path>
                    <path d="M649.2812,147.5414 L649.2812,147.5564 C649.2752,147.4324 649.2752,147.4024 649.2812,147.5414" id="Fill-84" fill="#FF2020"></path>
                    <path d="M65.9653,13.4042 C65.9093,13.4182 65.8543,13.4342 65.7573,13.4512 C65.8973,13.4342 65.8973,13.4182 65.9653,13.4042" id="Fill-86" fill="#FF2020"></path>
                    <path d="M76.3667,1.6742 C76.2937,1.6492 76.2727,1.6252 76.1047,1.6002 C75.2727,1.6312 75.6757,1.6562 76.3667,1.6742" id="Fill-88" fill="#FF2020"></path>
                    <path d="M65.9951,13.3534 C65.9951,13.3704 66.0191,13.3864 65.9651,13.4044 C65.9951,13.3864 66.0621,13.3694 65.9951,13.3534" id="Fill-90" fill="#FF2020"></path>
                    <path d="M255.1938,11.3563 C255.1938,11.3563 254.5968,11.2623 253.6548,11.1723 C253.2908,11.2233 253.6548,11.2823 255.1938,11.3563" id="Fill-92" fill="#FF2020"></path>
                    <path d="M217.8467,10.5511 C217.6087,10.5301 217.4697,10.5181 217.1647,10.4911 L217.8467,10.5511 Z" id="Fill-94" fill="#FF2020"></path>
                    <path d="M503.0254,2.1669 C501.1754,2.1589 499.7914,2.1729 498.6214,2.1959 C499.9674,2.2089 501.4264,2.2079 503.0254,2.1669" id="Fill-96" fill="#FF2020"></path>
                    <path d="M65.7568,13.451 C65.3658,13.508 64.8128,13.568 63.8958,13.641 C64.9038,13.563 65.4398,13.503 65.7568,13.451" id="Fill-98" fill="#FF2020"></path>
                    <path d="M312.1372,8.6083 C311.7392,8.6293 311.3662,8.6483 310.9892,8.6683 L311.6722,8.6953 L312.1372,8.6083 Z" id="Fill-100" fill="#FF2020"></path>
                    <path d="M331.6274,9.0082 C330.9624,9.0702 330.6574,9.1342 330.2834,9.1902 C337.2384,8.9642 350.0184,9.2092 351.5334,8.6312 C349.1714,8.6452 336.9334,8.3052 339.0204,7.9662 C334.1704,8.1112 327.0024,7.7052 324.3914,7.8002 C332.3514,8.1172 325.2524,8.2882 319.8774,8.4842 C314.9894,8.3152 320.7974,8.0182 316.5884,7.9112 L305.2794,7.9752 L315.1304,8.0512 L312.1374,8.6082 C312.5024,8.5892 312.7514,8.5752 313.1424,8.5552 C329.8084,8.2962 314.5574,9.3702 331.6274,9.0082" id="Fill-102" fill="#FF2020"></path>
                    <path d="M330.2837,9.1903 C329.2407,9.2253 328.3257,9.2683 327.6137,9.3273 C329.1867,9.3183 329.7957,9.2613 330.2837,9.1903" id="Fill-104" fill="#FF2020"></path>
                    <path d="M398.375,10.1083 C399.23,10.0823 400.158,10.0543 401.325,10.0203 C400.77,10.0363 399.481,10.0753 398.375,10.1083" id="Fill-106" fill="#FF2020"></path>
                    <path d="M50.1548,157.9906 C50.3188,157.6986 50.6558,147.9886 50.2288,148.1616 C50.1838,151.0446 50.1388,153.9466 50.0938,156.8636 L50.1548,157.9906 Z" id="Fill-108" fill="#FF2020"></path>
                    <path d="M583.8623,7.621 C582.7803,7.618 581.6953,7.614 580.6103,7.61 C580.3783,7.635 580.1523,7.658 579.9783,7.677 C580.6393,7.74 582.7803,7.661 583.8623,7.621" id="Fill-110" fill="#FF2020"></path>
                    <path d="M342.0205,7.765 C340.2405,7.83 339.4475,7.898 339.0205,7.966 C340.1725,7.932 341.2355,7.877 342.0205,7.765" id="Fill-112" fill="#FF2020"></path>
                    <path d="M584.4717,8.6381 C585.8497,8.7611 587.8797,8.9471 588.1677,9.1101 C590.9877,9.1141 592.9667,8.8891 595.8367,8.8091 C592.5967,8.8721 588.8497,8.8281 584.4717,8.6381" id="Fill-114" fill="#FF2020"></path>
                    <path d="M596.0693,8.8016 C595.9873,8.8036 595.9083,8.8066 595.8373,8.8096 C595.9163,8.8066 595.9873,8.8036 596.0693,8.8016" id="Fill-116" fill="#FF2020"></path>
                    <path d="M43.8267,62.2762 C43.8237,62.3732 43.8197,62.5002 43.8167,62.6202 C43.8167,62.4882 43.8177,62.3612 43.8187,62.2382 L43.8267,62.2762 Z M194.0557,7.4382 C190.4687,7.4932 186.8317,7.5492 183.1357,7.6062 C183.4967,7.6112 183.8317,7.6152 184.2077,7.6202 L173.4337,8.0132 C180.0557,8.2032 184.4167,8.7392 175.1507,8.9882 C175.9307,8.7872 173.2217,8.5402 176.4427,8.4222 C170.2337,8.1292 156.6097,7.8462 160.1617,8.5832 C172.0947,7.8872 162.9437,9.5202 172.3187,9.0042 C167.2867,9.4842 162.3027,9.2682 157.5507,9.4822 C162.4967,9.0802 156.3977,8.5722 148.9677,8.3812 C145.7327,8.4992 136.9807,8.3862 131.6057,8.5802 C133.5217,9.0312 128.8417,9.2882 137.5987,9.4022 C134.3867,9.5202 129.4137,9.6132 123.8447,9.3822 C126.0527,9.3052 129.9137,9.2492 129.6467,9.0872 C126.0527,8.6722 121.8447,8.6912 119.5217,8.5142 C117.6687,8.5382 115.7987,8.5622 113.9817,8.5862 C114.5227,8.6252 114.9937,8.6762 115.3287,8.7402 L109.1737,9.1382 C117.3717,8.9262 112.9637,9.3462 112.8577,9.6102 C113.0787,9.0832 107.5797,9.5412 104.7747,9.5592 L110.8697,10.1152 C107.9237,10.3952 100.4687,9.7132 102.0067,10.2652 C114.9397,10.4862 119.9097,10.3912 131.6057,10.2252 L126.8587,9.7932 C140.0537,9.4862 134.9957,10.5352 149.8027,10.5142 C155.9567,10.1192 172.0687,10.4862 172.3747,9.6952 C170.5167,9.9362 181.5937,10.3992 186.6667,10.0402 C192.2747,9.3172 209.2337,9.2192 204.0967,8.8892 C199.5137,8.8802 193.3477,9.2782 189.6627,8.8072 L198.5527,8.6562 L192.7187,8.2622 C195.7327,8.4032 195.4417,8.0182 194.0557,7.4382 L194.0557,7.4382 Z M230.9147,6.8302 C236.6967,7.9472 243.0717,8.9342 270.0557,8.7392 L267.9317,8.8162 C281.5297,9.5172 294.4457,7.8892 310.9897,8.6682 C302.9617,9.0882 303.3937,9.0502 294.5307,10.0132 L303.1437,9.6972 C300.7567,10.3052 309.3487,9.9912 315.6687,10.0202 L310.0907,10.7432 C306.2967,10.5352 296.4627,10.4602 296.7507,10.6242 C298.9037,10.5452 283.7677,9.7122 275.5457,9.9222 C276.3927,10.4122 293.7547,10.2132 286.0027,11.0142 C292.8337,10.6782 293.6817,11.1672 300.8247,10.9952 C293.9747,11.3302 299.1297,11.6632 294.0307,12.0202 L305.7417,11.8532 C306.0467,12.0162 288.6847,12.2152 298.2807,12.8182 C302.9737,12.5612 315.5037,12.8832 315.7277,12.3562 L316.0157,12.5182 C324.7937,12.6322 319.8767,11.7722 330.6577,12.0722 C330.7837,11.8072 328.7277,11.6242 324.8667,11.6782 C321.6027,11.7962 321.1027,12.1592 314.3807,12.2332 C311.3667,11.8202 322.4887,12.2842 317.8217,11.5862 C315.5037,11.2392 300.0747,11.8862 304.9917,11.1022 L313.7517,11.2152 C313.9777,10.6872 320.3237,10.7172 320.1447,10.2912 C325.5027,10.0972 330.5597,10.6922 336.0307,10.2332 C338.3037,9.8912 334.3357,9.2562 343.3897,9.5332 C350.4627,10.3142 371.3097,10.1622 379.1177,10.0502 L385.9517,9.7132 C385.3687,9.3892 372.8947,9.7572 377.2827,9.3372 L387.9387,9.2092 L387.1167,9.4122 C390.6477,9.4572 394.2587,9.2392 397.4797,9.1242 C394.1607,9.5042 386.4807,9.3512 388.0067,9.9012 C393.0087,10.0092 393.7707,10.2132 398.3747,10.1082 C397.3697,10.1472 396.5047,10.2012 396.6317,10.2782 C406.7587,10.5162 406.4117,9.6632 408.9507,9.4842 C419.1307,8.7682 398.6877,8.8192 399.9907,8.2532 L429.7147,7.9512 C427.1767,8.1292 424.6207,8.3072 425.5787,8.5332 C432.8687,8.7872 425.7437,8.9602 435.9807,8.9332 C435.2517,8.1812 448.8697,8.4642 456.1017,8.0302 C459.4807,8.3382 460.1747,8.4002 452.7867,8.4092 C453.6347,8.8972 463.5527,8.7092 467.0787,8.7542 C469.1227,8.6322 472.6077,8.5622 474.8157,8.4532 C471.8577,8.2092 473.1187,7.9042 479.5247,7.6952 L479.8977,7.5932 C469.3987,7.4602 453.0787,6.9262 446.4967,7.4262 L448.3587,7.1842 C436.2047,6.7622 421.9117,8.0612 416.3087,7.1392 C416.8257,6.7742 413.8677,7.0552 414.0787,6.5272 L405.1307,6.9402 L406.9927,6.7012 L391.7707,6.8202 L392.1737,6.7212 C384.9377,7.2132 379.2707,7.5992 374.7437,7.9072 C374.7267,8.1372 375.1977,8.2082 372.7847,8.3772 C370.3657,8.4912 368.5307,8.5082 366.8927,8.4782 C366.8807,8.4792 366.8807,8.4812 366.8807,8.4812 L366.8807,8.4782 C363.1467,8.4112 360.6587,8.0802 356.0587,7.9462 L370.2127,7.8892 C371.3657,7.4992 370.1617,7.0932 363.2267,6.8202 C366.0627,6.8052 367.2487,6.5012 363.7407,6.4562 C363.3547,6.5572 354.4647,6.7052 357.8527,7.0162 C344.4077,7.1592 322.6407,6.1332 302.2267,6.8762 C316.8927,6.4292 290.4727,6.3522 306.7547,6.1922 C295.3897,5.5672 296.9747,6.8072 285.3907,6.7092 C284.4037,6.4852 291.6987,6.7392 294.3607,6.2962 C275.0987,6.0452 261.8627,7.3052 243.2277,7.1152 L242.4307,6.6292 C238.9047,6.6902 234.9887,6.7592 230.9147,6.8302 L230.9147,6.8302 Z M543.7337,7.5242 C544.8187,7.4852 545.2077,7.3822 545.2077,7.3822 C521.6917,8.5372 502.3287,8.8722 489.6517,8.8272 C492.1107,9.2852 503.4827,9.6392 508.8827,9.8282 L504.0967,10.3502 L501.1087,9.9402 L492.8007,10.4142 C495.1237,10.7652 501.8327,10.6922 506.3177,10.9612 C506.7077,10.8622 521.0697,10.2532 525.0837,9.9322 L513.6097,9.5712 C516.7057,9.7172 531.9277,9.5972 537.9637,9.4632 C538.0817,9.2022 527.6807,8.7992 526.3717,9.3672 C525.1337,8.9792 537.1257,8.9752 529.5417,8.5592 C538.5287,8.1452 552.8267,8.4912 559.4577,8.6832 L560.5817,9.3352 C567.8597,9.5882 565.4977,8.5492 574.1467,8.9262 C563.5157,9.0532 575.9437,9.6412 567.4867,9.6902 C570.1877,9.9362 567.5417,10.3802 576.0167,10.3302 C583.0687,9.4672 584.9477,10.8722 591.6147,10.1102 C596.0697,10.3802 586.8207,10.6292 595.5867,10.7452 C605.6407,10.2912 605.0597,9.9662 605.6827,9.3382 C596.2817,9.1622 595.1187,10.1552 587.4297,10.0022 L602.7237,8.9262 C599.9047,8.7742 597.8197,8.7582 596.0697,8.8012 C599.1427,8.7392 601.7537,8.5802 603.9867,8.3592 C605.2597,8.2442 606.4337,8.1382 607.5177,8.0402 C598.8487,8.0352 591.1527,8.0202 589.7907,7.7522 L590.9877,7.4472 C587.9177,7.1682 582.9157,7.3872 580.6107,7.6102 C572.8497,7.6432 565.0957,8.0682 563.4017,7.6732 L566.3477,7.3942 C556.8017,7.4822 555.7377,7.5202 543.7337,7.5242 L543.7337,7.5242 Z M648.5397,24.1062 C648.4847,24.3432 648.3437,25.1612 648.1677,26.3112 L647.8577,20.4092 C647.8787,19.3272 647.9007,18.2662 647.9207,17.2242 C647.9537,16.2682 647.9867,15.3282 648.0177,14.4022 C648.0957,12.5272 648.1707,10.7112 648.2447,8.9272 C645.8247,8.8232 643.3207,8.7392 640.7837,8.7392 C638.1057,8.7392 635.4017,8.8222 632.6167,9.0512 C628.1817,8.8562 625.8087,8.4432 623.5407,8.1032 C625.7107,8.1282 627.7407,8.1612 629.4317,8.2132 C642.4227,7.6502 646.5297,7.9382 648.8947,8.2782 C648.7207,9.8872 648.5337,11.2312 648.4387,13.3832 C648.4227,13.9152 648.4067,14.5062 648.3867,15.1732 C648.3847,15.8522 648.3817,16.6082 648.3797,17.4602 C648.3917,19.2292 648.4417,21.3942 648.5397,24.1062 L648.5397,24.1062 Z M51.0997,36.4572 C50.5547,33.4012 50.5297,23.1652 49.9007,22.5382 C49.7387,21.8852 49.6777,24.0382 49.6247,26.4552 C49.6087,29.1502 49.5917,32.0282 49.5727,35.0812 C49.6647,35.1872 49.7497,35.7932 49.8317,36.8062 C49.9107,33.7922 50.0667,31.7782 50.4527,32.9992 C49.6107,40.7482 51.0527,39.9422 50.8377,48.3192 C51.2817,50.9842 51.2777,38.9972 51.0997,36.4572 L51.0997,36.4572 Z M49.6057,84.9322 L49.1517,83.1702 C49.1347,84.8052 49.1177,86.4752 49.0997,88.1842 C49.3057,87.6192 49.4847,87.0312 49.6057,84.9322 L49.6057,84.9322 Z M48.9977,100.0142 C48.9917,99.6822 48.9887,99.5642 48.9827,99.2502 C48.9637,101.0052 48.9447,102.7642 48.9247,104.6012 C48.9647,103.8872 48.9957,102.5312 48.9977,100.0142 L48.9977,100.0142 Z M101.8717,8.4852 C101.0357,8.4792 100.3247,8.4672 99.9517,8.4342 L101.8717,8.4852 Z M95.4237,9.1182 C102.8537,9.2562 101.1627,8.9812 102.3157,8.7332 C99.7017,8.7652 97.0897,8.7962 94.5087,8.8272 C95.4957,8.8892 95.9837,8.9772 95.4237,9.1182 L95.4237,9.1182 Z M86.1037,7.0352 C73.1157,6.9242 60.0217,6.8142 47.5347,6.7082 C47.5317,7.5092 47.5277,8.2492 47.5237,8.9862 C47.5597,8.2422 47.5957,7.5052 47.6297,6.8022 C50.8007,6.9522 53.8327,7.0962 56.6297,7.2282 C59.0217,7.3732 61.2127,7.5052 63.1197,7.6202 C66.8897,7.8682 69.5367,8.0882 70.4087,8.2722 C71.2797,8.4552 70.3747,8.6022 67.0407,8.7022 C63.7677,8.8032 57.6897,8.8572 49.6847,8.8572 C49.6837,9.1492 49.6837,9.5312 49.6837,9.9202 L49.7737,12.2762 C49.7967,11.3452 49.8227,10.2722 49.8517,9.0242 C52.1217,9.0632 54.6977,9.0812 57.5107,9.0812 C60.5867,9.0642 63.8447,9.0452 67.0247,9.0272 C70.2787,8.7832 77.1577,8.2662 83.1967,7.8132 C86.2147,7.5652 89.0217,7.3342 91.0617,7.1662 C93.1007,6.9872 94.3707,6.8592 94.3137,6.8232 C92.0087,6.4752 88.6467,6.8552 84.4537,6.7482 L86.1037,7.0352 Z M582.8177,266.5412 C582.2197,266.6012 581.7497,266.6712 581.4027,266.7592 C581.7617,266.6682 581.3597,266.6092 582.8177,266.5412 L582.8177,266.5412 Z M49.9727,163.7692 C50.0017,164.6042 50.0327,165.4652 50.0627,166.3502 L49.9487,165.0062 C49.9057,167.2402 49.8617,169.4612 49.8187,171.6872 C49.8387,172.4932 49.8607,173.3642 49.8867,174.4372 C49.8717,174.0052 49.8267,173.6702 49.7797,173.4632 C49.7627,174.1872 49.7457,174.8962 49.7297,175.6042 C50.1727,180.9222 50.4967,194.1602 50.7567,197.9802 C50.9467,203.0322 51.0547,209.2162 51.0197,213.0952 C51.0287,209.4992 50.9397,204.7272 50.6947,206.1602 C50.4397,213.4592 49.7047,217.0072 50.3357,229.6052 L50.3267,222.2172 L51.2777,238.8282 C50.8827,244.6492 50.8027,230.5362 50.4607,228.2312 C50.9297,241.1502 49.6767,251.8962 50.5007,257.8852 C50.2707,258.2752 49.9687,258.8402 49.7187,260.0602 C49.4687,261.3142 49.2697,263.4992 49.2457,267.1192 L50.5747,267.1192 C49.9687,267.0592 49.5737,267.0072 49.4037,266.9622 C49.5117,266.0952 49.5787,266.2602 49.6337,266.7322 C50.3217,266.6662 51.4177,266.6182 52.0027,266.5402 C52.5957,266.4612 52.6457,266.3532 51.4297,266.1662 C52.8067,266.0262 54.7597,266.0692 56.5317,266.1042 C57.3507,266.1202 58.4187,266.1342 59.1147,266.1202 C59.8407,266.1082 60.3407,266.0672 60.4617,265.9762 L59.6687,266.1792 C74.1447,266.9512 78.8827,265.7402 85.0767,265.3422 C102.4087,265.1432 110.3687,265.4582 124.5047,265.3762 C125.0597,265.7032 128.9097,266.6032 134.5797,266.5692 C137.2167,266.1262 150.0097,265.9222 151.3147,265.3552 C141.1757,265.1172 143.0197,265.8302 136.9497,265.9632 C131.8977,265.3682 136.4917,265.3742 129.5917,265.0202 C135.1617,265.2502 154.7557,264.7102 160.8547,265.2682 L158.7017,265.3462 C168.4387,265.6842 170.2997,267.0872 186.5207,266.2372 L194.2617,265.8912 C193.8877,265.9472 193.8467,266.0142 193.6467,266.0652 C206.3177,266.1232 202.8567,266.7682 216.8457,266.2592 C215.7637,266.2992 216.4427,266.3612 215.3457,266.4002 C223.3177,266.7172 231.3587,266.0772 237.3867,265.9442 C241.0647,266.4162 236.5127,266.4092 234.2367,266.7512 C248.2637,266.9342 263.3997,266.1232 272.1097,265.5472 L281.1517,265.8242 C275.7887,266.0202 269.2367,266.5182 270.8717,266.8042 C275.8447,266.7092 274.8827,266.4842 281.9137,266.5762 C280.7147,266.8792 277.7647,267.1602 274.4587,267.5412 C289.0007,268.0472 277.7087,266.4692 287.8867,267.3972 C292.4557,267.4022 295.1087,266.9602 295.6087,266.5962 L303.8877,267.0732 C304.8077,266.6092 315.0267,266.5822 321.7247,266.5122 C322.5427,266.3112 316.3317,266.0162 313.7937,266.1952 C314.2937,265.8302 321.4187,265.6572 326.0007,265.6652 C327.6797,266.6412 356.0017,265.5252 350.5847,266.6742 C371.1697,266.3572 400.0857,266.2582 413.6707,265.8512 C418.1507,266.1202 427.2817,266.1342 421.8087,266.5912 C438.3787,266.5962 446.9247,265.5952 463.3687,265.8612 C464.7307,265.9842 455.9357,265.8702 456.5207,266.1952 C467.2697,265.8042 476.0777,266.6092 492.7557,266.3482 C489.9507,266.3652 489.1327,266.5672 488.7427,266.6682 C488.4507,266.5062 495.5767,266.3322 499.8907,266.1752 C502.3157,266.2592 496.6607,266.2922 498.0227,266.4162 C530.2407,266.8912 554.7867,265.5652 586.8307,265.6092 C577.6797,265.5962 574.2217,266.2412 574.1237,266.5062 L583.0877,266.5182 C586.5427,266.1952 593.2747,266.1962 598.9037,265.9542 C599.5937,266.0762 602.3317,266.2072 599.5377,266.3592 C617.2487,267.0142 627.2017,265.1802 648.9037,265.5162 L622.6227,266.8182 L629.1247,267.2732 L617.5707,267.8652 C624.4717,268.2232 630.4737,267.3972 631.3037,267.8862 C629.8457,268.0252 626.3327,267.9812 626.2217,268.2442 C632.8477,268.4372 633.3687,268.0712 638.3497,267.9762 C625.2257,268.9722 599.4967,268.9572 585.6497,269.2012 C583.4697,269.2792 587.5137,268.9602 587.8997,268.8592 C582.2497,268.8922 578.8587,268.5822 571.7457,268.7552 C567.3287,269.1752 575.1157,269.0652 578.6207,269.1092 C578.1387,269.4752 576.3737,269.4522 572.4717,269.5072 C571.6217,269.0202 551.0397,269.3342 546.0087,268.7382 C525.1507,268.8922 549.3437,270.0022 528.9817,269.7902 L522.8987,269.2332 C511.0767,269.6642 495.7867,270.0472 482.4097,269.9282 L485.2297,269.9092 C487.1067,269.6712 484.0037,269.5242 482.6307,269.4002 C472.5217,269.1622 463.4377,269.8402 457.3127,269.2812 C445.7847,269.8742 426.5607,270.3152 413.3777,270.6212 C409.8227,269.8842 430.5757,269.9962 436.0597,269.5362 L424.0607,269.5382 C431.4777,269.5292 434.4067,269.2492 438.8527,268.8302 C428.3367,268.6922 424.8787,269.3382 414.9097,269.5252 C415.6837,269.3242 414.3537,269.2012 409.7547,269.1952 L408.4497,269.6842 C408.3647,269.6452 407.8557,269.6082 406.4347,269.5762 L388.6967,269.8742 C392.4597,270.0842 392.6427,270.5102 397.2247,270.5162 C395.5887,270.2312 399.4747,270.1742 404.0617,270.1822 C400.0437,270.5002 408.5347,270.4502 408.4367,270.7152 C399.2427,270.7012 387.9467,270.7682 381.9177,270.9002 L379.9597,270.4502 C371.1997,270.3372 361.9457,270.5882 356.0017,270.4572 L357.8757,270.2172 C347.3647,270.0802 337.0137,270.3702 327.6797,269.9312 C318.3047,270.4452 306.4987,270.8742 298.8347,271.4122 C294.7357,271.9932 271.3217,270.6832 260.7497,271.5002 C260.0377,271.4392 268.0107,271.0642 271.6187,270.8442 C264.5867,270.7532 258.9947,271.4762 256.7917,270.8642 C272.5717,271.0692 255.9447,270.3762 263.0527,270.2022 C255.6627,270.2142 247.8727,270.3242 244.2497,270.5422 C256.2067,270.5382 240.0007,271.3882 252.1077,271.1222 C242.7267,271.6362 229.9257,271.8422 218.7477,271.6432 C218.8597,271.3792 217.4807,271.2552 213.3137,271.1472 L209.9527,271.5292 C204.7227,271.4592 220.0657,271.0762 209.5377,270.9402 C198.7037,271.5952 176.9127,270.5682 172.1697,271.7792 C163.9127,271.3012 187.8827,271.2952 175.4377,270.7092 C182.6777,270.2722 192.6637,270.7732 195.0497,270.1682 C187.9537,270.3402 192.4607,269.6562 187.8827,269.6502 L179.9687,270.0242 L181.7187,270.0472 C168.4387,270.6172 147.3977,270.3442 130.4387,270.4412 C116.0737,271.0502 106.1847,271.9302 88.9547,271.8632 C94.0417,271.5062 74.6447,271.5202 85.4907,270.8642 C81.5047,270.7072 77.5437,270.7222 74.5597,270.8082 C71.5757,270.8962 69.5687,271.0552 69.4907,271.1872 C76.5067,271.2772 71.9577,271.2722 77.8657,271.4002 C73.8777,271.7222 64.6827,271.7072 60.9067,271.4982 C62.6567,271.5212 61.9917,271.4592 62.3767,271.3592 C58.1287,271.2522 57.3957,271.3312 56.0527,271.4542 C54.9587,271.5772 54.2937,271.7442 49.5487,271.8122 C48.8367,271.6932 47.1077,271.6302 44.7707,271.5952 C44.8197,268.2672 44.8107,263.8712 44.8107,259.4932 C44.8157,258.0072 44.8217,256.5282 44.8267,255.1572 C44.8397,253.8322 44.8627,252.6102 44.9057,251.5912 L44.2667,243.5752 C44.6867,247.9802 44.4207,235.8952 44.8067,234.6322 C44.5107,228.8842 43.9907,224.0652 44.1037,215.3122 C44.3227,218.9272 44.4207,207.3252 44.8467,207.1732 C45.2537,192.1852 43.6837,182.3512 44.2937,168.1552 C44.3937,168.5972 44.6737,171.4612 44.7817,167.3122 C44.6617,164.0442 44.7127,158.3212 44.6657,154.8252 L44.6777,154.9352 C44.6737,154.8672 44.6707,154.8252 44.6657,154.7522 C44.6427,153.0402 44.5897,151.9642 44.4867,151.9212 C44.0697,145.9362 43.6427,142.8512 43.2887,131.0712 C42.8017,131.9352 42.9907,141.8802 43.1477,146.1862 L43.6297,149.9082 C42.8927,153.4642 43.7567,160.5302 43.5087,163.2382 C42.6457,156.1722 42.8577,135.8222 42.3267,123.6152 C41.6477,131.0592 41.5407,147.2502 41.6237,161.3772 L41.9167,155.1552 L41.9257,162.5482 L42.4447,155.3932 C42.3537,162.3952 42.4867,168.4472 42.4567,174.7752 C42.4477,167.3672 43.1207,164.4802 43.0147,168.6732 C42.5357,176.9302 43.3267,177.2772 43.2977,183.5892 C43.3417,180.0742 43.3497,175.5052 43.6297,178.4512 C43.0437,190.8962 43.4247,194.2572 42.7987,205.5752 C43.6127,204.1732 42.8807,219.7152 43.5467,221.4112 L43.6147,216.1592 L44.1067,227.2992 C43.4437,237.5772 43.4307,218.1972 42.9617,233.8392 C42.9217,241.0562 43.1147,244.5702 43.3257,247.6992 C43.4307,249.2642 43.5417,250.7332 43.6287,252.5192 C43.6627,253.4122 43.6997,254.3852 43.7407,255.4882 C43.7517,256.0402 43.7647,256.6252 43.7777,257.2492 C43.7837,257.9092 43.7907,258.6112 43.7977,259.3602 C43.7477,258.8592 43.6877,258.2722 43.6207,257.6082 C43.5717,256.9842 43.5157,256.2912 43.4547,255.5352 C43.3487,254.0232 43.2527,252.2612 43.1717,250.3302 C43.0097,246.4692 42.9097,241.9312 42.9167,237.3532 L42.6837,242.8972 C42.4047,239.9642 42.4637,227.2992 42.4927,220.9792 C43.0457,231.4222 42.6617,216.0922 43.0947,211.3402 C42.6277,210.4662 42.7017,217.1722 42.3267,209.2552 C42.3357,216.6712 42.3747,217.7572 42.1997,227.1922 C42.4107,206.7962 40.5807,208.8522 40.9727,191.0492 C41.1837,199.2562 41.6457,188.1882 41.8717,187.1992 C41.8157,183.3392 41.7047,175.5052 41.5887,172.2842 L40.9147,175.2012 C40.6237,164.8272 42.0497,161.2252 41.3557,149.2552 C40.9517,147.7002 41.2187,159.7832 41.1407,157.6312 C40.7177,141.2522 41.8027,135.3522 42.3097,120.8082 C42.1077,119.9872 41.6807,120.1552 41.3247,115.0702 C41.7287,116.6672 41.9357,112.9032 42.2317,118.6262 C42.4027,113.7642 42.1057,108.0042 41.9487,103.7142 C41.7117,113.8362 41.3677,99.5732 41.1247,97.7082 C41.1937,92.4652 41.5287,99.3052 41.6457,102.5312 C41.7537,98.3232 42.3497,93.3212 41.7437,90.9302 C42.1697,90.7652 42.8647,102.6962 42.9747,110.5012 L43.0437,105.2402 C43.2607,108.8652 43.1997,109.5422 43.1337,114.7642 C43.4637,109.6532 43.8267,110.1562 44.1307,111.3482 C44.0687,112.0182 44.0297,110.9742 43.9687,111.6152 C43.8607,115.8202 43.9767,119.0462 44.2037,118.0702 C44.7757,121.8522 44.5607,112.2382 44.8467,109.3892 C44.8077,107.2362 44.7687,105.0842 44.7317,102.9722 L42.8947,81.1262 C42.6807,71.7922 43.1207,67.5962 43.3977,60.5852 L42.9067,58.6612 C42.9567,50.5402 43.1127,42.8762 43.7347,48.0812 C43.5707,48.3732 43.6097,49.4462 43.5857,51.2102 C43.6527,51.4432 43.7007,51.8492 43.7387,52.3622 C43.7747,52.5292 43.7947,52.6252 43.8247,52.7652 C43.6577,44.0672 43.5537,38.6362 43.5437,38.1362 C44.2567,52.9042 44.4357,38.8742 45.3067,41.3452 L45.0227,26.4292 C44.7467,35.4712 44.5977,26.5942 44.4787,23.3862 C44.6947,22.9962 44.7197,20.6272 44.6857,17.6502 C44.6397,13.2282 44.5837,7.9012 44.5407,3.7132 C45.7577,3.7132 46.8737,3.7142 47.8567,3.7152 L47.3367,3.8162 C49.2127,3.8412 51.4407,3.8722 53.8737,3.9052 C55.8177,3.9112 57.9257,3.9182 60.0797,3.9242 C63.5627,3.9172 67.1957,3.8722 70.2157,3.8052 C69.9417,3.6412 77.6897,2.8402 81.4107,2.3582 C71.0477,2.1742 77.1967,1.9782 76.3667,1.6742 C77.4397,1.7022 79.3677,1.7082 79.5927,1.6452 C81.0757,1.5062 77.5787,1.4602 77.2867,1.2972 C71.7777,1.4072 66.1907,1.5192 61.4177,1.6152 C58.3627,1.7082 55.5687,1.7932 53.1757,1.8652 C49.8807,1.9712 47.2317,2.1032 45.4307,2.2742 C48.4767,2.4292 50.8657,2.3552 53.4347,2.2682 C54.7067,2.2322 56.0017,2.1942 57.3797,2.1552 C58.1877,2.1322 59.0467,2.1332 59.9927,2.1852 C59.2217,2.2502 58.4177,2.3042 57.5807,2.3492 C57.2887,2.3592 56.9937,2.3702 56.6957,2.3812 C56.3297,2.3902 55.9607,2.4002 55.5877,2.4092 C54.8457,2.4252 54.0887,2.4412 53.3177,2.4572 C50.2397,2.5142 46.9467,2.5402 43.3787,2.5512 C43.3757,7.4532 43.3727,12.9342 43.3687,19.0252 L42.9587,22.0252 L43.1807,31.2362 C42.9647,27.3912 42.5357,29.7052 42.4527,20.0422 C42.0667,21.2752 42.5407,29.6262 42.4107,35.5432 L42.9557,38.5682 C42.6527,37.4032 42.5937,50.0692 42.1807,41.0702 L41.7347,26.4292 L41.3627,30.4992 L41.2577,18.1222 L41.5397,21.0422 C41.5217,19.8312 41.5057,18.7452 41.4907,17.7702 C41.4857,16.3412 41.4807,15.0742 41.4767,13.9472 C41.4777,10.9782 41.4997,8.7512 41.5347,7.0412 C41.6037,3.6192 41.7247,2.2602 41.8417,1.0142 C43.4037,1.1362 44.8277,1.2542 48.1887,1.2992 C49.8697,1.3212 52.0337,1.3262 54.9707,1.3042 C55.7017,1.2982 56.4807,1.2912 57.3117,1.2832 C57.7637,1.2732 58.2437,1.2622 58.7547,1.2512 C59.7757,1.2222 60.9187,1.1892 62.2017,1.1522 C68.4657,0.4932 75.2007,0.4222 87.4677,0.5832 C78.5927,0.7302 86.5567,1.0472 83.2157,1.4292 C92.2707,1.7042 95.3267,1.1612 100.0227,0.9032 C102.3277,1.2522 103.9687,1.5372 95.8817,1.4862 C94.8687,2.2152 106.5207,1.3592 107.2587,2.1112 C134.0517,2.0882 128.7287,-0.3148 160.0477,0.6242 L158.8737,0.9262 C178.7617,0.5492 190.2367,0.9112 208.6537,0.6722 L223.1547,1.4432 C219.9107,1.5612 211.1917,2.1372 215.2617,2.5082 C208.2077,1.7292 200.7227,2.0012 193.1217,1.5832 C192.3477,1.7862 195.4417,1.9322 196.7887,2.0572 C192.2027,2.0502 189.9017,1.7012 183.8437,1.8362 C184.1367,1.9962 190.7447,2.1902 185.7637,2.2852 L177.5237,1.8052 C166.4987,2.0342 172.0947,2.9532 159.1447,2.7332 C161.5527,2.3052 166.4697,1.6862 171.4837,1.5832 C165.5667,1.4912 179.3707,1.3252 173.9717,1.0692 C165.4467,1.7032 161.3317,1.2012 149.9987,1.5982 C151.3277,1.5092 151.6807,1.3852 154.4697,1.3462 L138.0237,1.0792 C142.0917,1.4492 124.4387,1.4862 125.9677,2.0372 C143.4947,2.2652 138.3457,1.9322 158.3187,2.2452 C152.6637,2.3702 145.3727,2.9302 141.9567,3.4462 C141.7827,3.4242 141.4947,3.4072 140.8797,3.3972 C137.8277,3.9422 140.9387,4.0882 140.8797,5.0412 C149.9987,4.3632 156.0927,4.9212 166.8467,4.5312 C168.8687,4.0092 160.6067,3.8662 155.2627,4.0012 L164.7357,3.6552 L162.8707,3.8952 L186.9167,4.0702 C182.3607,4.0982 180.8137,4.4012 178.4357,4.6292 C181.5377,4.6492 184.6107,4.7872 187.8787,4.9382 C187.1927,4.4402 187.6247,4.0882 190.6517,4.0982 C206.1217,4.2162 214.7227,4.6642 220.4317,5.2332 C221.0257,5.2212 221.6957,5.2082 222.2337,5.1972 C219.6397,4.6872 233.2207,4.2792 238.0137,3.7582 C237.7787,4.2862 245.9887,4.0752 250.4477,4.3442 C252.8207,3.7392 249.6537,2.9032 244.2247,2.4082 C233.7637,2.9612 238.3637,2.9662 233.4207,3.7522 L216.6387,4.2762 L220.3897,3.7932 C212.0147,3.5802 203.9697,4.2172 204.5837,3.5892 C209.0097,3.1702 216.3177,3.4242 220.7077,3.0042 L215.1677,2.7742 C224.9427,2.1562 220.1787,3.3692 232.0127,2.9382 C227.6597,2.4042 233.0847,2.9002 238.1547,2.5412 C234.0857,2.1692 217.3177,2.6942 220.8727,1.7862 C227.0277,1.3892 241.5797,2.8502 249.7227,1.9472 L249.3237,2.0502 C261.3367,2.1682 265.5587,1.6492 270.0557,1.3232 C275.1667,1.6172 282.2247,1.2032 287.7647,1.1702 L287.6287,1.4342 L295.4457,1.3232 C291.7227,1.8052 286.2847,1.3112 279.5717,1.3812 L280.4067,1.8722 C272.6667,1.2892 267.5037,2.1742 261.5017,2.5972 C270.2377,2.1722 286.1707,2.7172 288.2227,1.7582 L293.6277,2.2542 L296.2127,2.0752 C300.2397,2.4472 296.1277,3.0302 288.3207,3.1412 C286.9647,3.0172 286.2847,2.9562 286.6967,2.8532 C283.0737,3.0722 279.7447,3.4532 270.9757,3.3402 L275.6547,3.0802 C264.7357,3.0452 254.8087,3.2352 251.0707,3.7172 C266.8327,3.9222 282.3357,3.9652 297.1367,3.9432 C301.5027,2.8342 306.6817,2.2122 308.9077,1.1812 C318.8387,0.9912 332.3227,0.8492 340.9477,1.2262 L340.1557,1.4292 C344.3647,1.5352 348.2427,1.4792 351.4777,1.3622 C355.9237,1.6322 348.4337,1.9072 351.5337,2.0532 L365.7577,1.7082 C364.8807,2.1742 352.9097,2.1762 347.2257,2.2092 C348.2987,2.1702 350.4627,2.0922 349.7687,2.0302 C343.1557,1.8382 330.8397,2.6322 327.9487,1.9572 C324.7257,2.0752 334.4927,1.4602 323.5857,1.4242 C316.2837,1.1702 313.9047,1.7762 313.1427,1.9782 C313.0227,2.2432 324.6027,2.3402 320.5857,2.6592 C326.2697,2.6252 328.5337,2.2852 335.8037,2.5402 C330.1687,2.5712 322.5177,3.1082 319.5177,2.6972 C308.3787,3.1902 309.9757,4.4302 315.2277,4.4992 C313.9777,4.1102 335.5477,4.0202 320.9417,3.5132 C327.5027,3.0132 339.4907,3.0092 348.0727,2.6972 L347.6837,2.7972 L358.3407,2.6722 C356.8387,2.8112 353.6187,2.9292 353.5117,3.1922 L368.2717,2.4842 C359.9637,2.9602 373.4207,2.8142 377.2017,3.0242 C378.7827,2.6202 384.5477,2.3232 379.0167,2.0922 C372.7977,1.7992 375.3967,2.3112 369.7427,2.3422 L377.7487,1.7042 L378.4357,1.7672 L383.2547,1.2452 C394.1607,1.2822 378.4907,2.4572 392.4647,1.9472 L390.6477,1.2362 C406.8267,1.3412 427.6057,2.1412 439.0357,1.8132 C435.8837,2.2172 434.4937,2.8682 438.8277,3.2532 C433.8997,3.1312 423.9927,3.1562 416.9227,3.2232 C415.5637,3.0982 425.7567,2.3822 433.4377,2.5362 C429.7147,1.3722 414.1177,3.2392 413.2137,2.0592 C393.6447,1.6472 398.6167,3.1952 382.0047,2.5032 C381.7757,3.0302 377.2827,2.7602 376.4097,3.2252 C381.3267,4.0852 398.6167,3.1952 409.3947,3.4962 C408.3387,3.5352 406.2157,3.6132 405.8007,3.7132 C413.5057,3.8682 416.6907,3.7512 422.0747,3.5552 L421.3957,3.4932 C430.7997,2.9782 427.2147,3.8862 432.7497,4.1182 C434.8957,4.0402 442.5917,4.1922 441.3547,3.8052 L451.3787,4.3062 L450.8967,3.7172 C456.5507,3.6832 457.7887,4.0712 462.9117,3.7132 L463.1507,3.1872 L449.1087,3.0042 C456.2247,2.8322 451.0907,2.4992 458.9117,2.3892 C450.1757,2.9652 465.0917,2.6812 465.9517,3.1702 L471.7047,2.8732 L470.2347,3.0142 C474.7477,3.2852 475.6077,2.8182 480.8767,2.8872 C474.6627,2.5932 470.5937,2.2232 462.6767,2.5972 C468.4407,2.3012 479.8727,1.9732 482.6787,1.9562 C488.7317,1.7352 492.9567,2.1362 498.6207,2.1952 C487.7517,2.4072 502.4267,3.7932 480.6477,3.4142 C481.0507,3.3132 482.8147,3.3362 483.4967,3.3982 C480.5937,2.7252 470.4407,3.4402 465.7197,3.6972 C466.9357,4.0852 461.9977,4.1812 470.3687,4.3952 C467.6227,4.1472 477.4217,3.5312 485.3877,3.8492 L483.9847,4.6782 L495.5797,4.7762 L494.4947,4.8152 C498.8587,5.3492 506.8687,4.7122 514.8537,5.0262 C520.6197,4.7302 542.7377,4.9652 533.2207,4.0982 C540.3897,4.6172 546.6797,3.9562 554.4997,3.8442 L544.7507,3.5062 C556.2757,2.9122 552.9557,3.2962 562.1807,2.3522 C563.1137,2.5792 565.1687,2.7652 563.2947,3.0042 C578.7787,3.0472 600.8927,3.2822 609.9757,2.6032 C620.8917,2.6392 622.6037,3.6152 637.9177,3.2332 C639.5317,3.1742 638.9027,2.9802 639.1387,2.8312 C639.2557,2.7562 639.5897,2.6932 640.5287,2.6622 C640.8897,2.6582 641.3087,2.6522 641.7947,2.6472 C642.3277,2.6462 642.9347,2.6462 643.6257,2.6462 C644.9997,2.6592 646.7077,2.6752 648.8327,2.6952 C649.3787,2.7262 645.2097,2.8802 643.3707,3.0182 C641.5277,3.1552 641.8747,3.2772 650.9757,3.2452 C651.9577,3.2082 652.9637,3.1712 654.0417,3.1302 C654.1387,6.2032 654.1597,9.6392 654.1467,13.2262 C654.1327,14.7332 654.1187,16.2732 654.1047,17.8422 C654.0817,18.9802 654.0607,20.1392 654.0377,21.3122 C653.9477,26.0062 653.8717,30.9392 654.1277,35.7892 C653.8987,41.3112 653.9857,50.8952 653.4807,48.8992 C653.5957,40.1502 653.4907,27.7672 653.2477,25.8822 C653.5527,27.0902 653.5427,19.6592 653.7777,26.1062 C653.8647,23.0882 653.8957,21.0012 653.8947,19.4332 C653.8857,18.6492 653.8787,17.9952 653.8727,17.4202 C653.8537,16.7132 653.8367,16.1022 653.8207,15.5252 C653.7397,12.5162 653.6277,10.3132 653.6777,3.4952 C652.6307,3.4832 651.2037,3.4662 649.5807,3.4472 C648.9257,3.5402 650.8247,3.6652 653.4167,3.7552 C653.3097,6.9632 653.2497,11.0302 653.3477,13.1272 C653.1087,13.2012 652.9947,9.0002 652.9147,4.2572 C648.3257,4.3332 643.2017,4.3802 640.6307,4.4752 C639.7287,4.5232 639.2317,4.5832 639.3907,4.6642 C639.4707,4.7052 639.7147,4.7522 640.1537,4.8042 C640.4057,4.8312 640.5607,4.8592 641.0697,4.8892 C641.5187,4.9162 642.0417,4.9482 642.6437,4.9842 C646.2877,4.9972 649.4217,4.9452 652.3087,4.8632 C652.3887,7.5122 652.4977,9.8812 652.6077,12.1842 C652.7117,14.2562 652.8097,16.2072 652.9097,18.1962 C653.0757,21.2942 653.1277,24.5192 652.8397,28.8842 C652.6297,26.6812 652.6147,23.8592 652.5597,20.8862 C652.5327,19.3822 652.4957,17.9172 652.4207,16.3362 C652.3457,14.1922 652.2327,12.1172 652.0507,10.2792 L651.9127,16.5102 L651.7747,21.0242 L652.2727,27.5782 L652.1707,27.1882 C651.5397,43.1342 652.8807,41.9382 653.2257,56.2062 C653.7037,47.9402 654.4207,58.1172 654.7147,51.8992 C654.8027,61.4412 654.7107,68.4482 654.0217,68.5102 C653.4587,50.6612 653.2917,67.4982 652.6047,50.9962 C652.3577,53.7042 651.5957,47.0672 651.5187,56.9012 C652.0117,67.9812 652.0927,53.5862 652.3217,64.6372 C652.2597,65.2902 652.1977,65.9672 652.0957,65.5812 C652.4537,70.6632 651.9667,71.5122 652.3637,77.6622 L652.2247,76.2032 C651.8057,83.7872 652.6997,84.4992 652.2437,91.0272 C652.7547,88.4162 652.6627,95.4092 652.9827,99.4582 C653.1757,92.8412 653.9097,89.2592 653.8687,76.2032 C653.4647,74.6272 653.2397,75.5802 653.0437,70.2192 L653.0927,78.7052 C653.0267,76.8742 652.9227,75.4802 652.8417,73.8002 L653.0507,65.6492 C653.3407,75.9832 653.7737,71.2452 654.1947,75.6362 C654.0177,85.0932 654.3057,83.4402 654.1727,89.3862 C653.5797,88.7892 653.1597,107.6212 652.7777,118.5112 C652.7847,116.8192 652.7947,114.6372 652.8007,113.4592 C652.4247,105.5482 652.3057,118.9012 652.1417,119.1932 L652.4387,124.9572 C652.3987,123.8722 652.2597,122.3722 652.1757,124.8302 C652.2857,132.6342 652.8747,132.1812 652.9867,139.9722 C652.6597,140.5572 652.1617,133.9702 651.9917,138.8142 C651.7057,140.4842 650.9477,145.8042 651.2357,156.1542 C651.3617,156.8892 651.4317,159.5712 651.4857,162.6832 C651.4677,162.2502 651.4537,161.7072 651.4317,161.5132 L651.0757,168.3882 C650.5177,162.5302 651.3377,156.5402 650.7787,150.6522 L650.2477,150.1522 C650.2457,145.5702 650.0167,139.3492 649.7427,136.4872 C649.6517,143.4722 649.7907,144.9442 649.9017,152.7552 C649.5667,153.8492 649.3177,148.3472 649.2817,147.5562 L649.5827,148.7202 C650.0227,139.4032 649.0757,134.7912 649.1727,123.1952 C649.1957,121.4432 649.2347,122.5132 649.3347,122.9012 C648.8217,113.5142 649.5257,104.3022 648.8477,95.1762 L649.1267,98.1522 C648.8717,91.9402 648.3727,79.7912 647.8747,67.6512 L647.6677,67.5522 C647.5437,68.9012 647.5507,64.3432 647.6347,61.8992 L647.6377,61.9112 C647.3987,55.8232 647.1677,49.9742 646.9807,45.1902 C646.8537,46.7192 646.7457,48.6782 646.7167,50.9242 C646.9587,52.8272 646.7607,63.9842 647.3097,62.4532 C646.9787,67.6082 647.4537,75.9122 647.2457,79.6962 C647.5997,72.8002 647.7657,84.4992 648.0687,85.7072 C647.7217,88.0252 648.0957,95.9262 647.6277,95.0242 C647.5067,96.3852 647.9387,91.6382 647.6587,88.7042 C647.2227,81.4822 647.2757,101.9282 646.8617,92.9302 C647.1897,104.3752 647.0467,119.4552 647.4777,131.2612 L647.6677,124.6532 C647.5997,129.9002 647.7037,142.3192 647.4787,143.2482 C647.4367,139.3482 647.3887,134.7922 647.3357,129.8032 C646.8087,129.5622 647.3387,141.7892 647.0137,142.3452 L647.8867,156.8332 L647.9157,150.4872 C648.2357,154.4842 647.8497,167.7522 647.7757,177.5862 C647.0527,171.9432 647.7567,162.7502 647.4667,152.4042 C647.1937,144.8892 646.7707,157.0452 646.5977,149.9322 C646.4297,151.7762 646.4497,156.4182 646.6307,158.7072 L646.4997,161.5132 C645.8437,155.1672 645.9907,140.9422 645.4247,131.4732 C645.4957,132.3032 645.5707,133.0282 645.6467,133.2912 C645.9007,126.0012 645.8897,118.5962 645.7167,111.4882 C645.5087,115.2472 645.6507,116.7342 645.7257,118.8842 C645.5647,119.1512 645.4937,112.4412 645.3147,109.9022 C645.1227,116.5142 644.9267,111.1352 644.8187,115.3192 C644.6617,111.0122 644.7077,107.5242 644.7777,102.2762 C645.0257,99.5552 645.1187,104.5272 645.4427,103.9722 C645.2477,98.5672 646.0257,96.0972 645.6507,88.1872 C645.5137,98.7082 644.9427,85.4162 644.7247,81.7902 L644.7017,83.5542 C644.3217,80.2172 644.3057,77.3872 644.6547,75.0802 C644.8097,79.3872 644.7017,83.5542 645.0887,82.3292 C645.0737,79.4852 645.0567,76.6502 644.9397,73.4272 L645.2187,76.3562 L645.1377,62.2202 C644.7967,59.9822 644.3147,56.2442 643.8097,54.2862 C644.1187,50.8952 643.8627,46.1722 643.7437,42.9562 L643.8847,44.4522 C644.1767,38.2152 643.9337,24.3432 643.6307,23.1732 C643.9007,18.7182 645.5557,54.6632 645.2757,23.1732 C645.2747,20.1812 645.2137,18.2182 645.1187,16.8522 C645.1067,16.7022 645.0937,16.4712 645.0797,16.4142 C645.0667,16.3332 645.0527,16.2572 645.0397,16.1852 C645.0117,16.0412 644.9827,15.9172 644.9517,15.8082 C644.8887,15.5902 644.8207,15.4312 644.7497,15.3012 C644.4667,14.7942 644.1437,14.6562 643.9767,13.4422 C643.9767,13.4422 644.0757,13.5112 644.1377,13.1692 C644.1397,13.1172 644.1417,13.0672 644.1427,13.0302 C643.1237,13.0052 642.4787,13.0812 641.9257,13.1822 C641.6597,13.2342 641.4037,13.2852 641.1057,13.3442 C641.0357,13.3572 640.9637,13.3692 640.8877,13.3832 L640.7747,13.4022 C640.7387,13.4082 640.7137,13.4152 640.5797,13.4212 C640.1517,13.4412 639.6817,13.4622 639.1567,13.4862 C639.5487,13.5022 639.9627,13.5182 640.3917,13.5342 L640.7067,13.5452 L640.8247,13.5542 L641.0577,13.5692 C641.3707,13.5882 641.6847,13.5992 641.9847,13.6002 C642.5807,13.6022 643.1277,13.5692 643.4597,13.4992 C642.9817,13.7012 642.1017,13.6922 641.0667,13.6722 C639.7827,13.6692 638.4337,13.6642 637.1937,13.6602 C635.7297,13.6702 634.3937,13.7022 633.3907,13.7822 C638.6007,13.1602 623.2647,13.5452 627.3087,13.2252 C616.8897,12.8252 605.7497,13.3172 600.2777,13.7762 C593.2077,12.9952 587.8797,13.8802 576.4057,13.5182 C578.1687,13.5412 581.3687,13.4242 583.8357,13.5082 C590.3757,13.0132 571.9467,13.2482 582.0127,12.7962 C579.8607,12.8732 581.8607,13.0592 584.0687,12.9812 C587.9297,12.9252 591.5677,12.7082 590.5967,12.4822 L581.2457,12.0442 L584.5097,11.9242 L570.3187,11.3182 C569.9327,11.4172 571.2647,11.5412 571.9467,11.6032 C555.4877,11.3372 536.6667,11.6742 522.2467,11.5932 C519.5377,12.9912 486.7487,12.1922 475.0957,13.0502 C478.2187,12.6492 479.9267,11.9422 477.9947,11.6512 C480.5937,11.5922 485.9127,11.0272 491.8047,11.1452 C492.7447,11.3702 500.0237,11.6242 495.3387,11.8802 C511.6247,11.7212 493.1357,11.2682 497.9417,10.7482 C479.8977,10.8832 469.3137,11.7022 457.9247,12.0312 L457.6367,11.8662 L449.0347,12.1782 C456.0637,12.2712 455.7157,13.0632 446.6587,12.7862 L447.7587,12.7472 C442.5917,12.4142 431.8437,12.8052 423.7737,12.7542 L418.3007,13.2122 C410.2177,13.1602 409.8697,12.3072 407.2427,11.7972 C394.5737,11.7362 387.2567,12.4362 378.2577,12.8512 C374.1887,12.4792 355.2117,12.3912 365.2657,11.9402 C353.8387,12.2682 356.1447,14.2602 336.5447,13.1562 L341.6317,12.7972 C322.8907,12.8722 296.1657,13.5862 287.5317,13.2082 C294.4457,11.9202 264.1247,11.8972 260.7927,10.6332 C261.7217,10.9222 254.6817,11.0182 253.6557,11.1722 C252.1127,11.0242 249.5447,10.8802 246.8187,11.1412 C254.1257,11.3952 241.6807,12.4532 255.6527,11.9432 C248.5827,12.8092 239.4727,13.4862 223.9847,13.4432 L224.2187,12.9162 L236.4727,13.0762 C235.2347,12.6872 241.5417,12.7162 244.1277,12.5372 C221.3307,12.2402 247.1117,11.3032 223.8067,11.3722 C221.5557,11.7132 223.0137,11.5722 216.9557,11.7082 C219.8057,11.6902 220.3177,11.3272 215.7267,11.3202 L211.3187,11.7402 C203.1807,10.8622 224.7897,11.1692 217.8467,10.5512 C226.8457,10.1372 242.4307,9.9162 239.5287,9.2432 C224.8327,8.9992 226.3067,10.5032 210.9417,10.1972 L209.3067,9.9112 C203.9017,10.1062 203.0287,10.5702 200.0697,10.8502 C199.8027,10.6872 198.4297,10.5652 194.9587,10.5182 C185.8317,11.1952 179.7737,11.3282 171.3567,12.0682 C193.7627,11.5132 190.5127,12.5832 213.6387,12.0882 C210.0137,12.3072 193.7327,12.4672 192.7327,13.1952 L192.9487,12.6682 C185.4287,12.9422 177.9147,13.2132 168.4697,13.0402 L174.2357,12.7432 C161.7177,13.1102 153.4277,11.9422 143.5507,12.8202 C147.0377,12.8672 149.8697,12.8512 152.0247,12.7712 C145.5817,13.0062 137.4977,12.9532 130.4957,12.8632 L116.0077,13.7352 C116.1347,13.4732 106.9527,13.4572 111.3827,13.0402 C100.9517,12.6382 96.0347,13.4242 90.0067,13.5552 C79.3257,12.9952 99.2607,13.3052 100.3067,12.5772 C85.5897,12.3322 69.9917,12.5532 61.6877,13.0272 C64.6897,13.1342 66.1477,13.2252 65.9947,13.3532 C65.7717,13.2702 64.1777,13.2392 62.2267,13.2292 C60.4717,13.2272 58.3947,13.2262 56.9077,13.2252 C56.6217,13.3392 56.3677,13.4532 56.1447,13.5682 C54.0917,13.3362 53.8967,13.1342 55.8497,12.8762 C55.1567,12.8562 54.4507,12.9002 53.7867,12.9592 C53.8567,13.8912 53.9477,14.7922 53.9767,15.6192 L53.9867,16.2362 C53.9797,16.6262 53.9727,17.0142 53.9657,17.3992 C53.9397,18.3952 53.8887,19.3762 53.8017,20.3302 C53.7467,18.7932 53.6887,17.1682 53.6297,15.5262 C53.5987,14.6052 53.5897,13.6612 53.5877,12.7602 C54.8167,12.7622 55.9897,12.7642 57.0067,12.7662 C58.0037,12.7572 58.9237,12.7482 59.7447,12.7412 C60.6707,12.7252 61.4847,12.7012 62.1577,12.6642 C60.7327,12.6822 59.4157,12.6982 58.1887,12.7132 C57.4527,12.7132 56.7717,12.7122 56.1337,12.7122 C55.1537,12.6962 54.2807,12.6532 53.4237,12.5962 C53.3397,13.5112 53.2637,14.3442 53.1847,15.1972 C53.1637,15.4272 53.1417,15.6582 53.1197,15.8932 L53.0877,16.2552 L53.0727,16.4412 L53.0567,16.7802 C53.0197,17.7592 52.9817,18.7782 52.9407,19.8632 C52.8007,24.2052 52.7317,29.6242 52.8827,37.9162 C52.7187,38.2092 52.4007,34.1782 52.3957,38.7652 C52.5217,49.3902 53.1017,41.5412 53.4827,44.8592 C53.2697,36.6782 53.4787,32.8722 53.9107,28.1262 L54.1897,30.3082 C54.0457,30.6382 54.0367,35.7752 53.8977,37.2892 L54.4647,38.6122 C53.8377,38.0012 53.3597,46.2202 53.5937,52.6802 C54.0487,46.1522 54.0257,47.9162 54.7397,46.1402 C55.4167,55.2242 54.0747,56.3892 54.7917,66.5702 C54.5897,65.8082 54.4397,56.9182 54.2847,64.5992 C54.2577,70.9572 54.7467,70.1102 54.9027,74.3742 C54.3807,69.5712 53.9927,70.8042 53.3717,65.5992 C53.3057,54.3042 53.3787,61.0442 53.1507,50.0012 L52.7087,59.3472 C52.6237,49.7762 52.1107,52.3872 51.9107,51.5992 C51.3787,67.9432 52.7047,63.9172 52.5677,74.4332 C52.9257,79.5032 52.6427,64.5822 53.0177,72.5132 C52.9417,82.3462 53.3597,74.7562 53.5857,85.7932 L53.3467,83.9452 C53.0357,87.3192 53.4177,90.6542 53.4707,94.5592 C53.6297,98.8522 55.2877,89.6972 55.3227,107.3512 C55.1767,106.4862 55.0847,106.1692 55.0237,106.1692 L50.6337,88.9452 C50.6437,106.8342 50.5217,127.4472 50.2277,148.1612 C49.3687,153.0402 49.5197,133.3762 49.1337,134.6442 L49.3087,125.1952 C49.6727,125.7252 49.4217,144.9912 50.0647,136.4582 C49.8027,119.7752 50.2217,112.2042 49.4707,96.3772 C48.6107,101.2942 49.6237,117.2232 48.9587,127.5192 C49.0147,123.1952 48.9207,119.5462 48.7977,116.0032 C48.6847,125.6712 48.5637,136.0172 48.4357,147.0182 L48.6437,149.4882 C48.7407,142.0742 48.8137,136.9462 48.8457,136.2842 C48.7697,146.1142 49.2457,154.4052 49.8747,155.0582 L49.8977,153.3122 L50.0937,156.8632 C50.0537,159.1692 50.0137,161.4752 49.9727,163.7692 L49.9727,163.7692 Z" id="Fill-118" fill="#FF2020"></path>
                    <path d="M650.1816,155.681 C650.3616,158.237 650.3316,164.556 650.7186,163.319 C650.2916,163.471 650.6546,152.027 650.1816,155.681" id="Fill-120" fill="#FF2020"></path>
                    <path d="M649.7637,163.2386 C649.8667,163.6826 650.0297,163.3746 650.0437,166.2096 L649.9357,158.4016 L649.7637,163.2386 Z" id="Fill-122" fill="#FF2020"></path>
                    <path d="M646.8516,171.1605 C647.1696,175.1865 647.3496,177.7395 647.3206,184.0585 C646.2816,186.4315 647.0306,173.7115 646.0606,170.8465 C645.9626,182.4305 646.8716,185.9875 646.9586,195.5155 C647.3926,190.7935 647.6416,171.5085 646.8516,171.1605" id="Fill-124" fill="#FF2020"></path>
                    <polygon id="Fill-126" fill="#FF2020" points="645.5391 166.015 645.7731 172.457 645.8341 171.823 645.6001 165.374"></polygon>
                    <path d="M654.5684,26.4794 C654.8934,25.8994 654.5744,21.8854 654.4964,19.7324 C654.4744,21.4824 654.3894,23.9324 654.5684,26.4794" id="Fill-128" fill="#FF2020"></path>
                    <path d="M437.9619,273.2728 L487.1069,272.9588 C472.9669,273.0488 459.9109,273.1318 437.9619,273.2728" id="Fill-130" fill="#FF2020"></path>
                    <path d="M504.0371,4.7264 C517.2321,4.4204 523.0961,3.8594 536.5411,3.7174 C518.8611,3.0624 513.1891,4.7394 498.3451,4.0694 L504.0371,4.7264 Z" id="Fill-132" fill="#FF2020"></path>
                    <path d="M508.6924,2.1351 C510.8784,2.7471 498.5094,2.8521 500.4254,3.3001 C509.3194,3.1511 504.5674,2.7181 512.6384,2.7701 L508.6924,2.1351 Z" id="Fill-134" fill="#FF2020"></path>
                    <polygon id="Fill-136" fill="#FF2020" points="568.4883 12.2484 564.4863 12.5664 567.7073 12.4514"></polygon>
                    <polygon id="Fill-138" fill="#FF2020" points="448.5527 2.6781 450.0107 2.5401 443.3947 2.3461"></polygon>
                    <path d="M451.4697,2.3988 L450.0107,2.5398 L451.4697,2.3988 Z" id="Fill-140" fill="#FF2020"></path>
                    <polygon id="Fill-142" fill="#FF2020" points="563.3457 13.5614 569.2917 13.6924 572.2347 13.4114"></polygon>
                    <path d="M510.8574,10.2787 L516.1764,10.0827 C515.1214,10.1207 507.8434,9.8687 510.8574,10.2787" id="Fill-144" fill="#FF2020"></path>
                    <polygon id="Fill-146" fill="#FF2020" points="408.1445 2.4183 401.6715 2.6533 402.3335 2.7133 408.7855 2.4793"></polygon>
                    <path d="M469.2168,11.9652 C472.8928,12.4362 458.6038,12.0922 466.1638,12.5082 C472.8928,12.4362 470.1608,12.1902 469.2168,11.9652" id="Fill-148" fill="#FF2020"></path>
                    <path d="M391.1182,8.7758 C390.2442,8.7758 389.3242,8.7928 388.4392,8.8448 C389.4942,8.8178 390.3802,8.7948 391.1182,8.7758" id="Fill-150" fill="#FF2020"></path>
                    <path d="M391.1182,8.7758 C393.9352,8.7758 396.7552,8.9558 398.6872,8.8198 C395.1742,8.6068 393.8942,8.6868 391.1182,8.7758" id="Fill-152" fill="#FF2020"></path>
                    <path d="M358.8232,8.8856 L361.3792,8.9186 C358.7672,9.1516 360.0062,9.1166 362.3372,8.9296 C365.0462,8.9146 364.8922,8.7656 365.2162,8.6636 C365.7572,8.6046 366.2962,8.5456 366.8812,8.4806 C366.0462,8.5446 365.2962,8.6026 364.6602,8.6516 C360.4642,8.6466 357.9032,8.6706 358.8232,8.8856" id="Fill-154" fill="#FF2020"></path>
                    <path d="M238.8545,0.9598 C248.2935,1.1348 250.7355,1.2198 250.2235,1.5848 C259.1835,1.7008 257.7925,1.0728 263.1975,0.9258 C253.0585,0.9968 250.9855,0.8288 238.8545,0.9598" id="Fill-156" fill="#FF2020"></path>
                    <path d="M263.1978,0.9261 C264.3328,0.9171 265.4178,0.9081 266.7358,0.8971 C265.2618,0.8861 264.1678,0.9011 263.1978,0.9261" id="Fill-158" fill="#FF2020"></path>
                    <polygon id="Fill-160" fill="#FF2020" points="396.5693 12.8768 390.7033 13.4358 392.8553 13.3578"></polygon>
                    <g id="Group-164" transform="translate(224.000000, 0.000000)">
                        <mask id="mask-2" fill="white">
                            <use xlink:href="#path-1"></use>
                        </mask>
                        <g id="Clip-163"></g>
                        <path d="M0.8452,0.7758 C2.5952,0.7988 5.4012,0.7828 6.7792,0.9078 C7.2832,0.5418 -0.9018,0.7538 0.8452,0.7758" id="Fill-162" fill="#FF2020" mask="url(#mask-2)"></path>
                    </g>
                    <path d="M261.2515,7.9344 C262.2095,8.1584 268.2505,8.0244 270.7085,8.1104 C267.1825,8.0624 264.3075,7.3904 261.2515,7.9344" id="Fill-165" fill="#FF2020"></path>
                    <path d="M197.7642,2.2821 C199.5142,2.3051 202.2052,2.5511 201.0402,2.8531 C203.5842,2.6741 207.0252,2.0301 197.7642,2.2821" id="Fill-167" fill="#FF2020"></path>
                    <polygon id="Fill-169" fill="#FF2020" points="244.0005 7.869 245.3475 7.993 251.8085 7.758"></polygon>
                    <path d="M267.0415,13.2606 C274.3075,12.8246 255.5165,12.2096 268.0295,11.8406 C251.8885,11.3846 269.2675,12.4576 257.3605,12.3866 C264.3335,12.5336 267.7495,13.0846 267.0415,13.2606" id="Fill-171" fill="#FF2020"></path>
                    <path d="M257.3604,12.3871 C256.3464,12.3751 255.2494,12.3631 254.0584,12.3491 C255.3764,12.3651 256.4404,12.3761 257.3604,12.3871" id="Fill-173" fill="#FF2020"></path>
                    <path d="M155.1099,9.6293 C156.1659,9.5833 156.8859,9.5343 157.5509,9.4823 C156.7209,9.5183 155.9269,9.5633 155.1099,9.6293" id="Fill-175" fill="#FF2020"></path>
                    <path d="M219.3345,12.7469 L230.2245,12.0929 C222.9515,12.5279 204.6515,12.5009 205.7925,13.1529 C211.7175,13.2849 218.8465,13.1119 221.7755,12.8299 L219.3345,12.7469 Z" id="Fill-177" fill="#FF2020"></path>
                    <g id="Group-181" transform="translate(93.000000, 0.000000)">
                        <mask id="mask-4" fill="white">
                            <use xlink:href="#path-3"></use>
                        </mask>
                        <g id="Clip-180"></g>
                        <path d="M1.3433,0.9364 L6.0483,0.6784 L0.1733,0.6024 C1.8553,0.6994 -1.1877,1.1784 1.3433,0.9364" id="Fill-179" fill="#FF2020" mask="url(#mask-4)"></path>
                    </g>
                    <g id="Group-184" transform="translate(92.000000, 0.000000)">
                        <mask id="mask-6" fill="white">
                            <use xlink:href="#path-5"></use>
                        </mask>
                        <g id="Clip-183"></g>
                        <path d="M0.0376,0.5887 L1.1726,0.6027 C0.9226,0.5867 0.5616,0.5797 0.0376,0.5887" id="Fill-182" fill="#FF2020" mask="url(#mask-6)"></path>
                    </g>
                    <path d="M175.7061,9.3143 C179.2241,9.3593 182.0381,9.3423 185.2471,9.2263 C183.9161,9.1033 175.1501,8.9883 175.7061,9.3143" id="Fill-185" fill="#FF2020"></path>
                    <polygon id="Fill-187" fill="#FF2020" points="61.2134 1.8837 68.9794 1.7717 60.5054 1.8207"></polygon>
                    <polygon id="Fill-189" fill="#FF2020" points="41.6035 32.3895 41.4805 33.7285 41.7145 40.1675 41.8375 38.8065"></polygon>
                    <path d="M72.3701,13.5927 C77.6341,13.6617 81.7451,13.0767 80.3691,12.9537 L70.1621,12.9787 C72.7551,13.4907 72.9941,12.9637 78.9101,13.0937 L72.3701,13.5927 Z" id="Fill-191" fill="#FF2020"></path>
                    <path d="M83.1729,273.8041 C80.8919,274.1471 69.7279,273.9491 69.1429,273.6231 C70.6429,273.4831 76.6949,273.3481 72.8929,273.1411 L64.0609,273.9811 C52.3109,273.4571 72.9919,272.8761 78.7949,272.5801 C72.8089,272.5261 68.9299,272.6371 64.9549,272.7611 C62.9669,272.8171 60.9559,272.8731 58.6459,272.9381 C56.9759,272.9561 55.1979,272.9761 53.2629,272.9981 C50.9829,273.0051 48.5169,273.0121 45.8069,273.0211 C48.9689,273.0581 51.5489,273.1291 53.7909,273.2131 C54.9189,273.2621 55.9529,273.3061 56.9189,273.3471 L57.2809,273.3651 L57.4929,273.3821 C57.6279,273.3941 57.7609,273.4061 57.8919,273.4161 C58.1539,273.4401 58.4079,273.4631 58.6559,273.4851 C58.7229,273.5761 58.4979,273.6471 58.0369,273.7021 C57.9219,273.7131 57.7919,273.7261 57.6489,273.7411 C57.5769,273.7451 57.5019,273.7511 57.4229,273.7571 C57.3139,273.7621 57.2009,273.7671 57.0829,273.7731 C56.4689,273.7871 55.7639,273.8041 54.9779,273.8231 C51.8279,273.8771 47.3729,273.8841 42.4869,273.8781 C42.4929,268.3841 42.4989,262.2421 42.5049,256.9141 C42.4649,257.5891 42.4339,258.1311 42.4099,258.5551 C42.3679,259.1341 42.3389,259.5531 42.3189,259.8321 C42.2579,260.5751 42.1999,260.5741 42.1429,260.0251 C42.1109,259.6411 42.0499,258.8961 41.9709,257.9351 C41.9219,257.1721 41.8619,256.2401 41.7989,255.2561 C41.7809,254.5501 41.7469,254.0791 41.7079,253.7441 C41.6789,253.2861 41.6519,252.8541 41.6249,252.4091 L41.6249,253.4271 C41.5589,253.3541 41.4789,253.5791 41.3689,254.3121 C41.3999,255.5811 41.4089,256.7971 41.4039,257.9631 C41.3859,259.8691 41.3679,261.6971 41.3519,263.4511 C41.2749,267.7021 41.2049,271.6061 41.1389,275.2261 C44.0109,275.2821 46.7309,275.3241 49.3359,275.3251 C47.2219,275.0851 48.1419,274.9511 50.7469,274.8811 C52.0539,274.8461 53.7939,274.8261 55.8299,274.8181 C57.0979,274.8181 58.5539,274.8181 60.1059,274.8171 C65.2919,274.8451 71.7649,274.9551 74.6449,274.8081 L81.2949,274.7131 L83.7829,274.7101 C84.2829,274.8171 83.5759,274.9491 79.7819,275.1391 C82.9469,274.9501 93.5069,275.0161 92.5309,274.7071 L116.6299,274.6931 C117.3799,274.7331 118.1299,274.7821 118.6849,274.8501 C119.5199,274.7901 119.6589,274.7411 119.5499,274.6921 L224.5389,274.6291 C219.3599,274.5541 214.8789,274.3341 209.5379,274.2291 C217.5539,273.5901 200.7799,274.1141 203.1329,273.5101 C206.7359,273.2901 212.0079,273.3601 215.1489,273.5061 C216.3189,273.2011 211.8429,272.9321 212.3609,272.5681 C199.1189,272.1841 197.0929,273.6431 184.1479,273.4211 C184.6599,273.0561 188.6619,272.7371 180.1899,272.7851 L182.3419,272.7071 C168.7739,273.1161 171.7709,271.8811 163.2309,272.8831 L163.4539,272.3561 C157.2989,272.7521 145.3249,272.7551 138.5769,272.8281 L138.9799,272.7271 C120.0499,273.3301 128.3539,272.8551 107.0959,273.1081 L116.8799,272.4921 C109.5459,272.2381 107.8929,272.9071 102.6289,272.8381 C103.0059,272.7371 101.7849,272.3501 106.7569,272.2551 L80.9649,273.1931 C74.8099,273.5901 82.2149,273.5801 83.1729,273.8041" id="Fill-193" fill="#FF2020"></path>
                    <path d="M45.8066,273.0209 C45.0496,273.0139 44.2586,273.0059 43.3666,272.9989 C43.3666,271.3529 43.3656,269.4799 43.3646,267.3939 C43.3576,269.4889 43.3516,271.3799 43.3466,273.0189 C44.2846,273.0199 45.0506,273.0199 45.8066,273.0209" id="Fill-195" fill="#FF2020"></path>
                    <path d="M231.9136,274.6254 L224.5386,274.6294 C226.8236,274.6624 229.2056,274.6714 231.9136,274.6254" id="Fill-197" fill="#FF2020"></path>
                    <path d="M42.1938,231.7455 C41.9218,236.2185 41.8128,228.3955 41.6098,227.6165 L41.6188,243.6355 C41.8228,243.5635 42.0498,245.1485 42.2358,244.8255 L42.1938,231.7455 Z" id="Fill-199" fill="#FF2020"></path>
                    <path d="M41.2368,248.2718 C41.3778,248.8138 41.5048,250.5098 41.6248,252.4098 L41.6188,243.6348 C41.4668,243.6898 41.3288,244.6728 41.2368,248.2718" id="Fill-201" fill="#FF2020"></path>
                    <polygon id="Fill-203" fill="#FF2020" points="52.0771 246.5755 52.0961 249.4125 52.2521 253.7015"></polygon>
                    <path d="M72.7544,265.182 C69.3674,264.873 62.9414,265.108 60.7924,265.186 C68.1964,265.175 64.9884,265.292 72.7544,265.182" id="Fill-205" fill="#FF2020"></path>
                    <polygon id="Fill-207" fill="#FF2020" points="63.603 261.8812 70.74 261.7072 70.075 261.6472"></polygon>
                    <path d="M286.4282,272.5502 C287.5982,272.5382 288.7342,272.5282 289.9162,272.5162 C288.3192,272.5142 287.2752,272.5292 286.4282,272.5502" id="Fill-209" fill="#FF2020"></path>
                    <path d="M225.1792,273.0531 C242.2062,273.6451 214.0222,273.5451 219.3712,274.3031 L228.6372,274.0511 L227.8492,274.2551 L239.1502,274.1891 C236.8302,273.8401 235.0892,273.8191 235.5932,273.4531 C250.6782,273.5961 240.3492,273.8871 251.4162,274.3481 L268.2782,274.2821 L266.9132,274.3911 C268.3332,274.3831 268.9602,274.3371 269.4482,274.2781 L326.2722,274.0501 C336.6112,273.7591 320.5542,273.3921 328.1792,272.8551 C316.1972,272.8571 298.3902,272.4671 297.3732,273.1971 C297.7762,273.0961 298.5672,272.8951 296.1382,272.8081 L289.2092,273.4081 L295.8172,273.6001 C288.8482,274.1981 266.3462,274.0651 262.2762,273.6931 C275.0732,273.4901 268.6512,272.7701 286.4782,273.1601 C285.6782,272.9761 282.4142,272.6511 286.4282,272.5501 C265.5402,272.7621 246.8172,272.4301 225.1792,273.0531" id="Fill-211" fill="#FF2020"></path>
                    <path d="M434.7119,272.7015 L434.5469,272.7675 C434.9239,272.7325 435.0469,272.7065 434.7119,272.7015" id="Fill-213" fill="#FF2020"></path>
                    <path d="M427.7012,272.6117 L417.5202,273.3257 L433.3942,273.2677 L434.5472,272.7677 C433.1442,272.8947 427.5782,273.1487 425.4202,272.9527 L427.7012,272.6117 Z" id="Fill-215" fill="#FF2020"></path>
                    <path d="M405.6973,273.7582 C413.8953,273.5452 413.4513,272.9542 408.9783,272.6862 C416.5073,272.4122 412.9513,273.3202 418.1353,272.6972 C417.9653,272.2722 408.6863,272.5212 406.5543,272.6002 L405.6973,273.7582 Z" id="Fill-217" fill="#FF2020"></path>
                    <polygon id="Fill-219" fill="#FF2020" points="345.2119 273.4476 347.5179 273.2026 341.8369 273.1376"></polygon>
                    <path d="M347.5176,273.2025 L353.1556,273.2675 C352.7646,273.0875 352.3786,272.9095 351.4586,272.7855 L347.5176,273.2025 Z" id="Fill-221" fill="#FF2020"></path>
                    <path d="M367.9473,273.4388 C370.3353,273.4648 372.9753,273.4958 376.1873,273.5318 L367.9473,273.4388 Z" id="Fill-223" fill="#FF2020"></path>
                    <path d="M361.501,273.2884 L361.691,273.3654 L367.947,273.4384 C365.642,273.3854 363.574,273.3364 361.501,273.2884" id="Fill-225" fill="#FF2020"></path>
                    <path d="M353.1553,273.2679 C354.0703,273.6819 355.1423,274.1159 363.2943,273.9999 L361.6913,273.3659 L353.1553,273.2679 Z" id="Fill-227" fill="#FF2020"></path>
                    <polygon id="Fill-229" fill="#FF2020" points="115.5181 262.5033 121.9661 262.2703 121.2841 262.2063 114.8411 262.4413"></polygon>
                    <path d="M152.7178,262.8812 C154.3118,262.8082 155.5198,262.7332 156.6168,262.6532 C154.9388,262.6992 153.6028,262.7682 152.7178,262.8812" id="Fill-231" fill="#FF2020"></path>
                    <path d="M180.3716,260.0589 C187.9536,260.4749 169.9096,260.6089 183.9536,260.7919 C185.1916,261.1799 178.6076,261.6789 171.9966,261.4869 C172.5206,261.1219 178.4376,261.2519 174.3726,260.8809 C169.9826,261.3029 168.3116,261.0159 169.8416,261.5649 C162.4546,261.9069 161.6316,262.2969 156.6176,262.6539 C165.5476,262.4129 184.3006,262.9759 195.6346,262.2719 C201.8826,261.6119 198.0926,260.7099 198.1196,259.7579 C197.1776,259.5339 180.9806,259.4279 180.3716,260.0589" id="Fill-233" fill="#FF2020"></path>
                    <path d="M168.439,259.1078 C164.93,259.0608 163.857,259.0988 161.704,259.1778 C162.284,259.5038 165.604,259.1228 168.439,259.1078" id="Fill-235" fill="#FF2020"></path>
                    <path d="M249.0933,266.2836 C249.7633,266.1486 256.1133,265.9806 254.7483,265.7466 L245.1223,265.9166 C247.3813,265.9396 248.1783,266.1046 249.0933,266.2836" id="Fill-237" fill="#FF2020"></path>
                    <path d="M240.9004,265.9906 L245.1224,265.9166 C244.0674,265.9056 242.7614,265.9246 240.9004,265.9906" id="Fill-239" fill="#FF2020"></path>
                    <path d="M249.5518,266.3685 C249.3988,266.3405 249.2628,266.3145 249.0938,266.2835 C248.9578,266.3125 248.9838,266.3425 249.5518,266.3685" id="Fill-241" fill="#FF2020"></path>
                    <path d="M391.3076,273.6752 C391.1716,273.9372 395.4606,273.7812 397.6156,273.7032 C395.8636,273.6822 393.4056,273.5962 391.3076,273.6752" id="Fill-243" fill="#FF2020"></path>
                    <path d="M552.79,272.6468 L556.58,272.8548 C555.24,272.7308 554.554,272.6678 552.79,272.6468" id="Fill-245" fill="#FF2020"></path>
                    <path d="M611.1914,265.5023 C611.3004,265.4503 611.5814,265.4083 611.9594,265.3683 C611.5814,265.4003 611.3184,265.4443 611.1914,265.5023" id="Fill-247" fill="#FF2020"></path>
                    <path d="M611.959,265.3685 C614.548,265.1505 622.543,265.4895 625.416,265.1575 L625.052,265.2595 L630.4,265.0625 C625.387,265.0915 614.862,265.0515 611.959,265.3685" id="Fill-249" fill="#FF2020"></path>
                    <path d="M554.2236,332.6849 C528.5716,240.4569 502.7356,144.1709 517.4526,50.1459 C517.7696,48.1169 520.7446,48.2729 520.8396,50.3249 C525.7836,158.0009 553.1766,264.6109 600.8376,361.2959" id="Fill-251" fill="#000000"></path>
                    <path d="M555.1885,332.4837 C549.6615,312.6127 544.1745,292.7277 539.0835,272.7397 C533.9785,252.7007 529.2665,232.5537 525.3285,212.2517 C521.3975,191.9857 518.2465,171.5557 516.3015,151.0007 C514.3895,130.7817 513.6545,110.4367 514.5265,90.1417 C514.9625,80.0087 515.7985,69.8917 517.0795,59.8297 C517.4035,57.2827 517.7555,54.7387 518.1375,52.1987 C518.2345,51.5527 518.1855,49.5397 519.0905,49.4777 C520.1255,49.4057 519.8905,51.4157 519.9195,52.0307 C520.1575,56.9587 520.4415,61.8847 520.7725,66.8077 C522.0835,86.3097 524.1285,105.7617 526.8965,125.1107 C529.6465,144.3387 533.1065,163.4677 537.2635,182.4427 C541.4475,201.5367 546.3385,220.4747 551.9275,239.2057 C557.5145,257.9357 563.7985,276.4597 570.7645,294.7217 C577.7315,312.9847 585.3795,330.9867 593.6985,348.6737 C595.7175,352.9667 597.7775,357.2417 599.8745,361.4977 C600.2965,362.3577 602.2665,362.0397 601.8015,361.0957 C592.9565,343.1337 584.7965,324.8377 577.3565,306.2507 C569.9515,287.7517 563.2525,268.9697 557.2755,249.9627 C551.2685,230.8637 545.9885,211.5367 541.4505,192.0367 C536.8835,172.4177 533.0685,152.6247 530.0215,132.7137 C527.0075,113.0177 524.7425,93.2067 523.2385,73.3377 C522.8595,68.3237 522.5285,63.3057 522.2465,58.2847 C522.1075,55.8217 522.0055,53.3567 521.8665,50.8937 C521.7885,49.5147 521.3405,48.4087 519.8865,48.0437 C515.8525,47.0327 516.0575,52.6707 515.7095,55.1327 C514.9785,60.3087 514.3665,65.5017 513.8685,70.7047 C511.8875,91.3897 511.7175,112.2237 512.9205,132.9617 C514.1275,153.7747 516.7075,174.4937 520.1945,195.0437 C523.7105,215.7677 528.1405,236.3277 533.0825,256.7557 C538.0365,277.2347 543.5025,297.5857 549.1045,317.8957 C550.4835,322.8937 551.8705,327.8897 553.2595,332.8857 C553.5165,333.8097 555.4775,333.5257 555.1885,332.4837" id="Fill-253" fill="#000000"></path>
                    <path d="M143.7764,332.6849 C169.4284,240.4569 195.2644,144.1709 180.5474,50.1459 C180.2304,48.1169 177.2544,48.2729 177.1604,50.3249 C172.2164,158.0009 144.8224,264.6109 97.1624,361.2959" id="Fill-255" fill="#000000"></path>
                    <path d="M144.7407,332.8861 C150.4017,312.5311 156.0207,292.1601 161.2167,271.6811 C166.3997,251.2501 171.1667,230.7071 175.1107,209.9991 C179.0147,189.4991 182.1227,168.8341 183.9697,148.0421 C185.8087,127.3311 186.3917,106.4901 185.2577,85.7201 C184.6937,75.3901 183.7047,65.0821 182.2487,54.8391 C181.9027,52.4031 181.9537,46.7141 177.8667,48.1171 C176.4287,48.6111 176.1847,49.8061 176.1207,51.1781 C176.0047,53.6421 175.8777,56.1061 175.7377,58.5691 C174.6067,78.5571 172.7037,98.5011 170.0417,118.3441 C167.3637,138.3081 163.9157,158.1671 159.7107,177.8661 C155.5507,197.3541 150.6537,216.6841 145.0327,235.8011 C139.3867,255.0091 133.0087,274.0021 125.9137,292.7241 C118.8527,311.3561 111.0817,329.7191 102.6157,347.7571 C100.5187,352.2231 98.3777,356.6691 96.1977,361.0961 C95.7347,362.0361 97.7007,362.3611 98.1267,361.4971 C106.7617,343.9621 114.7447,326.1071 122.0417,307.9731 C129.3387,289.8401 135.9567,271.4341 141.8807,252.8071 C147.8057,234.1801 153.0387,215.3321 157.5657,196.3181 C162.0637,177.4201 165.8637,158.3581 168.9617,139.1811 C172.0777,119.8851 174.4767,100.4731 176.1437,80.9981 C176.9767,71.2611 177.6277,61.5081 178.0937,51.7461 C178.1217,51.1571 177.9267,49.4101 178.9087,49.4771 C179.8697,49.5431 179.8517,52.1211 179.9497,52.7851 C180.3127,55.2281 180.6487,57.6741 180.9577,60.1241 C181.6007,65.2071 182.1297,70.3051 182.5517,75.4121 C184.2207,95.6341 184.1917,115.9731 182.8797,136.2141 C181.5557,156.6321 178.9337,176.9521 175.4517,197.1101 C171.9137,217.5941 167.4777,237.9161 162.5627,258.1131 C157.6747,278.1921 152.3047,298.1511 146.8077,318.0721 C145.4817,322.8771 144.1477,327.6811 142.8117,332.4841 C142.5227,333.5231 144.4827,333.8131 144.7407,332.8861" id="Fill-257" fill="#000000"></path>
                    <path d="M0,158.7142 L3.709,183.4392 C3.709,183.4392 53.513,174.8952 135.217,167.4102 L129.487,143.2192 C80.85,148.0482 37.471,153.6562 0,158.7142" id="Fill-259" fill="#000000"></path>
                    <path d="M698,178.7845 C698,178.7845 695.718,157.3525 681.702,155.1985 C467.688,122.3125 282.013,128.6375 139.727,142.2225 L145.475,166.4915 C276.648,155.0075 483.28,147.0455 698,178.7845" id="Fill-261" fill="#000000"></path>
                    <polygon id="Fill-263" fill="#000000" points="134.8491 121.6263 150.0741 185.9113 139.5991 185.9113 124.3731 121.6263"></polygon>
                    <path d="M693.8564,172.9222 C693.1754,170.2212 692.0784,166.8272 690.3194,163.6572 C690.0144,163.6112 689.7114,163.5702 689.4074,163.5252 C690.1784,165.4642 690.8174,167.3602 691.2294,168.9952 C474.2734,137.1802 270.1004,145.0582 143.0304,156.1712 L143.4184,157.8102 C192.3454,154.2982 303.2854,146.9132 349.8674,148.5552 C349.8674,148.5552 209.4234,152.9822 143.6714,158.8792 L143.9944,160.2402 C270.9464,149.0532 475.9694,140.9702 693.8564,172.9222" id="Fill-265" fill="#333333"></path>
                    <path d="M349.8672,148.555 C303.2852,146.913 192.3452,154.298 143.4182,157.81 L143.6722,158.879 C209.4232,152.982 349.8672,148.555 349.8672,148.555" id="Fill-267" fill="#666666"></path>
                    <polygon id="Fill-269" fill="#FFFFFF" points="457.4404 222.015 457.4404 225.975 516.3364 225.975 516.3364 314.808 181.6644 314.808 181.6644 225.975 240.5594 225.975 240.5594 222.015 177.7034 222.015 177.7034 318.769 520.2964 318.769 520.2964 222.015"></polygon>
                    <polygon id="Fill-271" fill="#FFFFFF" points="268.0244 227.972 270.9684 220.681 273.9104 227.972 278.3564 227.972 283.3054 216.958 279.5874 216.958 276.2894 224.486 273.3394 216.958 269.0314 216.958 266.0814 224.486 262.7834 216.958 258.4874 216.958 263.5794 227.972"></polygon>
                    <mask id="mask-8" fill="white">
                        <use xlink:href="#path-7"></use>
                    </mask>
                    <g id="Clip-274"></g>
                    <polygon id="Fill-273" fill="#FFFFFF" mask="url(#mask-8)" points="293.163 227.972 297.205 227.972 297.205 216.958 293.163 216.958"></polygon>
                    <polygon id="Fill-275" fill="#FFFFFF" mask="url(#mask-8)" points="322.1704 225.3246 312.2204 225.3246 312.2204 223.7166 319.1514 223.7166 319.1514 221.2136 312.2204 221.2136 312.2204 219.6196 322.0404 219.6196 322.0404 216.9586 308.3534 216.9586 308.3534 227.9716 322.1704 227.9716"></polygon>
                    <polygon id="Fill-276" fill="#FFFFFF" mask="url(#mask-8)" points="345.1318 225.0629 336.7658 225.0629 336.7658 216.9589 332.8248 216.9589 332.8248 227.9719 345.1318 227.9719"></polygon>
                    <path d="M359.4209,225.3968 L359.4209,219.5178 L364.3069,219.5178 C365.9439,219.5178 366.8859,219.9258 367.3579,220.8418 C367.5539,221.2808 367.6519,221.7858 367.6669,222.3958 C367.6819,223.1048 367.5769,223.6678 367.3449,224.1168 C366.8579,224.9908 365.8759,225.3968 364.2489,225.3968 L359.4209,225.3968 Z M371.0279,225.1738 C371.4069,224.3908 371.6079,223.3868 371.6079,222.2688 C371.6079,221.2058 371.4029,220.2928 371.0039,219.5588 C370.0949,217.8328 368.0629,216.9588 364.9609,216.9588 L355.4959,216.9588 L355.4959,227.9718 L364.9609,227.9718 C368.0889,227.9718 370.1299,227.0308 371.0279,225.1738 L371.0279,225.1738 Z" id="Fill-277" fill="#FFFFFF" mask="url(#mask-8)"></path>
                    <polygon id="Fill-278" fill="#FFFFFF" mask="url(#mask-8)" points="381.971 227.972 386.013 227.972 386.013 216.958 381.971 216.958"></polygon>
                    <polygon id="Fill-279" fill="#FFFFFF" mask="url(#mask-8)" points="400.9424 221.2337 408.5764 227.9717 412.5334 227.9717 412.5334 216.9587 408.7964 216.9587 408.7964 223.5347 401.3354 216.9587 397.1624 216.9587 397.1624 227.9717 400.9424 227.9717"></polygon>
                    <path d="M430.5752,228.1459 C433.4852,228.1459 435.1862,227.3959 436.1022,226.7659 L436.3452,226.5999 L436.4252,227.9719 L439.6042,227.9719 L439.6042,221.5909 L430.8992,221.5909 L430.8992,223.7019 L436.2012,223.7019 L436.0992,223.9319 C435.9812,224.2049 435.6242,224.4889 435.3452,224.6359 C434.5372,225.1339 433.1552,225.4119 431.4612,225.4119 C429.5622,225.4119 428.2232,225.0179 427.4772,224.2439 C427.0412,223.7579 426.8212,223.1649 426.8212,222.4719 C426.8212,221.7549 427.0422,221.1559 427.4752,220.6899 C428.2172,219.9019 429.5572,219.5029 431.4612,219.5029 C433.7982,219.5029 434.8022,220.0589 435.0542,220.2299 C435.4312,220.4599 435.5992,220.6129 435.6742,220.7229 L439.4652,220.7229 C439.4132,220.4959 439.3332,220.2219 439.2022,219.9789 C438.1162,217.9089 435.3832,216.7689 431.5052,216.7689 C428.1852,216.7689 425.5562,217.6419 424.1012,219.2289 C423.2822,220.1329 422.8672,221.2239 422.8672,222.4719 C422.8672,223.8489 423.2732,225.0039 424.0752,225.9069 C425.3582,227.3509 427.6662,228.1459 430.5752,228.1459" id="Fill-280" fill="#FFFFFF" mask="url(#mask-8)"></path>
                    <polygon id="Fill-281" fill="#FFFFFF" mask="url(#mask-8)" points="232.0449 254.6244 232.0449 241.9774 202.9859 241.9774 202.9859 296.5354 216.8659 296.5354 216.8659 275.6834 230.7449 275.6834 230.7449 263.2394 216.8659 263.2394 216.8659 254.6244"></polygon>
                    <path d="M248.5195,254.2152 L251.8695,254.2152 C253.1685,254.2152 254.1935,255.1042 254.6035,256.1962 C254.8095,256.7442 255.0825,258.4532 255.0825,259.8202 C255.0825,260.9842 254.7405,262.6232 254.4675,263.3082 C254.1935,264.1282 253.0305,264.6072 252.0745,264.6072 C252.0745,264.6072 248.6555,264.6752 248.5195,264.6752 L248.5195,254.2152 Z M234.8445,296.5352 L248.3125,296.5352 L248.3125,275.7512 L251.1175,275.7512 L256.1765,296.5352 L270.4655,296.5352 L263.5615,272.3322 C264.9965,271.7172 266.3635,270.3502 267.4565,267.8892 C268.3465,265.7692 268.9625,262.8292 268.9625,258.4532 C268.9625,253.1202 267.8675,249.0862 265.9535,246.4882 C263.9025,243.5492 260.2105,241.9772 255.4925,241.9772 L234.8445,241.9772 L234.8445,296.5352 Z" id="Fill-282" fill="#FFFFFF" mask="url(#mask-8)"></path>
                    <polygon id="Fill-283" fill="#FFFFFF" mask="url(#mask-8)" points="302.1177 254.6244 302.1177 241.9774 273.0617 241.9774 273.0617 296.5354 302.2557 296.5354 302.2557 284.1604 286.8717 284.1604 286.8717 275.0664 301.2287 275.0664 301.2287 263.1034 286.8717 263.1034 286.8717 254.6244"></polygon>
                    <polygon id="Fill-284" fill="#FFFFFF" mask="url(#mask-8)" points="334.5234 284.1605 319.1394 284.1605 319.1394 275.0665 333.4974 275.0665 333.4974 263.1025 319.1394 263.1025 319.1394 254.6245 334.3864 254.6245 334.3864 241.9765 305.3294 241.9765 305.3294 296.5355 334.5234 296.5355"></polygon>
                    <polygon id="Fill-285" fill="#FFFFFF" mask="url(#mask-8)" points="385.3887 296.5355 385.3887 241.9765 367.3377 241.9765 361.6627 269.6655 356.1947 241.9765 337.5967 241.9765 337.5967 296.5355 350.2447 296.5355 350.2447 268.0945 355.8517 296.5355 367.4747 296.5355 372.6707 268.0945 372.6707 296.5355"></polygon>
                    <polygon id="Fill-286" fill="#FFFFFF" mask="url(#mask-8)" points="404.6514 297.2455 405.6034 242.6945 395.9144 242.5255 397.3784 297.1185"></polygon>
                    <polygon id="Fill-287" fill="#FFFFFF" mask="url(#mask-8)" points="391.9287 241.9769 389.4167 241.9769 389.4167 296.5359 396.3877 296.5359"></polygon>
                    <path d="M409.4316,242.7621 C409.4316,242.7621 408.7476,281.8641 408.7356,282.6161 C408.5486,293.2801 415.8506,298.0571 425.6246,298.2281 C435.8116,298.4051 442.4666,293.2551 442.6376,283.4121 C442.6506,282.7291 443.3376,243.3541 443.3376,243.3541 L429.4596,243.1121 C429.4596,243.1121 428.7816,282.0081 428.7606,283.1701 C428.7216,285.4251 427.6076,286.5691 425.6246,286.5341 C423.5756,286.4981 422.4996,285.3861 422.5416,282.9921 C422.5616,281.8311 423.2406,243.0031 423.2406,243.0031 L409.4316,242.7621 Z" id="Fill-288" fill="#FFFFFF" mask="url(#mask-8)"></path>
                    <polygon id="Fill-289" fill="#FFFFFF" mask="url(#mask-8)" points="459.4219 269.7552 464.5299 298.2912 476.1509 298.4932 481.8439 270.1472 481.3469 298.5842 494.0619 298.8062 495.0139 244.2552 476.9669 243.9412 470.8109 271.5262 465.8249 243.7462 447.2299 243.4212 446.2769 297.9722 458.9259 298.1922"></polygon>
                </g>
            </g>
        </g>
    </g>
</svg>