<?xml version="1.0" encoding="UTF-8"?>
<svg width="375px" height="298px" viewBox="0 0 375 298" version="1.1" xmlns="http://www.w3.org/2000/svg" xmlns:xlink="http://www.w3.org/1999/xlink">
    <!-- Generator: Sketch 58 (84663) - https://sketch.com -->
    <title>weilding-freemium-banner</title>
    <desc>Created with Sketch.</desc>
    <defs>
        <polygon id="path-1" points="0.0658721491 0.0935138539 191.374787 0.0935138539 191.374787 212.92329 0.0658721491 212.92329"></polygon>
    </defs>
    <g id="Page-1" stroke="none" stroke-width="1" fill="none" fill-rule="evenodd">
        <g id="iPhone-8" transform="translate(0.000000, -1601.000000)">
            <g id="weilding-freemium-banner" transform="translate(-347.000000, 1601.000000)">
                <polygon id="Fill-1" fill="#000000" fill-rule="nonzero" points="718.3741 139.609112 694.641533 186.336384 667.447767 203.309993 604.747233 212.855523 548.182567 215.218256 492.560267 216.438425 427.554533 217.827968 359.862233 223.206569 210.339867 220.334016 -1.8189894e-12 220.334016 -1.8189894e-12 298 816 298 816 212.855523 739.4303 203.555839 726.800433 207.431604 733.892267 186.253114 724.672033 187.983669 734.261733 158.090655 736.476833 102.456827 718.3741 76"></polygon>
                <g id="Group-75" transform="translate(210.000000, 0.000000)">
                    <path d="M508.337812,155.22971 C508.337812,155.22971 498.584539,154.61762 487.786496,148.505781 C487.786496,148.505781 467.96306,160.167242 463.001107,162.114597 C458.282915,163.966738 429.800297,158.725428 429.800297,158.725428 L355.055816,201.171083 L316.986589,188.098413 L260.499237,211.128892 L197.843032,202.640101 C197.843032,202.640101 131.03382,216.426877 119.397919,216.456914 C107.763151,216.487519 81.168263,220.949547 81.168263,220.949547 C81.168263,220.949547 146.074438,226.065038 155.966032,223.280025 C165.857625,220.495013 214.813897,215.159055 214.813897,215.159055 C214.813897,215.159055 287.216005,216.871776 297.046942,216.566864 C306.878445,216.261952 365.162826,214.442116 365.162826,214.442116 L413.862298,213.030907 L457.391204,203.373476 L484.596061,186.390793 L504.710876,167.314534 L508.337812,155.22971 Z" id="Fill-2" fill="#D3182E" fill-rule="nonzero"></path>
                    <path d="M196.474172,205.446366 L192.534315,208.901278 L200.660625,210.876404 L196.597186,213.352538 C196.597186,213.352538 257.790259,214.328482 267.147845,213.83881 C276.505432,213.348571 313.688616,192.410535 313.688616,192.410535 L311.847371,198.101278 L307.532235,201.778356 L314.89495,204.196115 L314.733954,208.131631 C314.733954,208.131631 343.497181,208.212676 356.04917,206.472752 C368.602293,204.731694 425.470592,166.471492 425.470592,166.471492 L424.970599,174.520485 C424.970599,174.520485 423.771068,176.429301 422.042633,179.132702 C420.314197,181.836102 422.284693,179.966392 427.455827,184.962865 C432.626394,189.960472 437.613289,191.372815 437.613289,191.372815 C437.613289,191.372815 480.302637,159.990699 485.81617,155.165384 L495.912409,160.661165 L490.987304,163.157702 L501.083543,164.941832 L463.900359,202.482827 L362.455548,213.588306 L311.847371,213.83881 L173.819141,218.759339 L155.966202,223.280309 L196.474172,205.446366 Z" id="Fill-4" fill="#E71324" fill-rule="nonzero"></path>
                    <path d="M447.266023,76.7855889 C446.559683,109.602717 419.376934,135.634141 386.551402,134.927403 C353.727004,134.221231 327.689365,107.044972 328.396272,74.2278433 C329.103179,41.4107149 356.285361,15.3792917 389.110326,16.085463 C421.93529,16.7927678 447.97293,43.9684605 447.266023,76.7855889" id="Fill-6" fill="#EBEBEB" fill-rule="nonzero"></path>
                    <path d="M392.210372,87.5539043 C392.024434,87.1605793 391.851533,86.7751889 391.464917,86.2979849 C391.334533,86.2118388 391.268208,86.168199 391.233628,86.145529 C391.327164,86.3580605 391.454146,86.6448363 391.580562,86.9310453 C391.82659,87.4938287 392.100396,87.6757557 392.210372,87.5539043" id="Fill-8" fill="#F2F2F2" fill-rule="nonzero"></path>
                    <path d="M391.233798,86.1453589 C391.146497,85.947563 391.088108,85.8160768 391.088108,85.8160768 C391.107382,85.9033564 391.126089,85.9872355 391.143663,86.0682809 C391.190714,86.1164547 391.192415,86.1175882 391.192415,86.1175882 C391.192415,86.1175882 391.194683,86.1192884 391.233798,86.1453589" id="Fill-10" fill="#F2F2F2" fill-rule="nonzero"></path>
                    <path d="M350.403609,172.438696 C341.883313,172.333848 333.370387,170.305447 325.838173,166.462878 C325.586476,166.334225 325.350084,166.275283 325.304733,166.334225 C325.263917,166.383533 325.432849,166.539389 325.669241,166.655006 C333.232067,170.532147 341.740458,172.575283 350.299302,172.701669 C350.58728,172.694301 350.823672,172.634225 350.861086,172.565649 C350.872991,172.491971 350.671179,172.438696 350.403609,172.438696" id="Fill-12" fill="#F2F2F2" fill-rule="nonzero"></path>
                    <path d="M306.228567,137.083715 C306.204758,136.923892 306.108387,136.661486 305.992176,136.522065 C305.893537,136.403615 305.813606,136.443287 305.832881,136.605378 C305.856123,136.794106 305.966099,137.052544 306.070406,137.168161 C306.195688,137.305882 306.260879,137.269043 306.228567,137.083715" id="Fill-14" fill="#F2F2F2" fill-rule="nonzero"></path>
                    <path d="M441.360205,68.5677048 C441.343765,68.4299844 441.319956,68.2911305 441.301816,68.1528433 C441.398186,67.5396191 441.370409,66.6220499 441.144221,65.5746947 C441.106807,65.1326292 441.032545,64.6219869 441.041615,64.2915713 C441.050118,63.9220499 441.065991,63.5377929 441.050685,63.1507023 C441.029144,62.7658786 441.000232,62.3702866 440.965085,61.9667602 C440.893658,61.1585738 440.794453,60.3141154 440.669171,59.4401859 C440.539921,58.5668232 440.311466,57.6866594 440.096616,56.7685234 C439.867027,55.8549214 439.647642,54.9027804 439.302976,53.9710423 C439.50422,54.7168861 439.658413,55.5114705 439.790498,56.2743169 C439.520093,55.1589516 439.158987,54.0877929 438.630082,52.9287879 C438.610808,53.0891783 438.588699,53.2767728 438.569992,53.4382967 C438.439608,52.9605259 438.284849,52.4663194 438.109681,51.9641783 C437.936214,51.4609038 437.745173,50.949128 437.49631,50.4583219 C437.018425,49.4642413 436.474215,48.471861 435.901093,47.5435234 C435.304729,46.6293547 434.632969,45.8064327 434.004293,45.0872262 C433.687403,44.7301733 433.373915,44.4025914 433.070632,44.1124151 C432.762812,43.8245058 432.440821,43.5893043 432.149442,43.3858408 C430.965784,42.5793547 430.277017,42.5816217 430.099015,43.1920121 C430.009447,43.4974907 430.046295,43.9542917 430.209558,44.5420121 C430.29119,44.8361557 430.404567,45.162604 430.549123,45.5202237 C430.689144,45.8806771 430.835967,46.2881708 431.02474,46.7183345 L431.231653,47.2193421 C430.769074,46.6066846 430.307629,46.0393673 429.821241,45.5865335 C429.113201,44.9234353 428.445976,44.4314957 427.869453,44.1940272 C427.345083,43.9865965 427.314471,44.5544806 427.108125,44.8440902 C426.624004,45.0430196 427.18182,46.4043547 428.21582,47.9538509 C428.48339,48.3840146 428.766833,48.7767728 429.046875,49.1253244 C429.109232,49.2426418 429.169889,49.3571254 429.232247,49.4744428 C429.544601,50.0780322 429.900605,50.6583849 430.166475,51.2880448 C430.445949,51.9075033 430.724857,52.5258282 431.002065,53.1390524 C431.276437,53.7511431 431.54174,54.3598332 431.738449,54.9866594 C431.862031,55.3828181 432.114295,55.8158156 432.308737,55.9660045 C432.489573,56.0872892 432.537192,55.8702237 432.40284,55.4593295 C432.255449,54.9503874 432.10976,54.4454126 431.964637,53.9438383 C431.790603,53.4518987 431.617703,52.9639264 431.446503,52.4770877 C431.291743,52.0401229 431.138117,51.6048584 430.983924,51.1707275 C431.075193,51.2716091 431.168162,51.3736242 431.258297,51.4733723 C431.216914,51.3764579 431.174965,51.2761431 431.133015,51.1775285 C431.279272,51.3095814 431.432898,51.4705385 431.593894,51.6621003 C431.911917,52.3382338 432.222003,53.0160675 432.530389,53.6836997 C433.191945,55.467264 433.880145,57.1924529 434.235015,58.9442791 C434.26506,59.0848332 433.976515,58.9397451 433.992955,59.2129189 C434.00486,59.348939 434.017331,59.4877929 434.029803,59.6323144 C433.921527,59.2078181 433.796246,58.7617854 433.648288,58.2862816 C433.191378,57.4627929 432.795692,56.9368484 432.536058,56.5389894 C432.269055,56.146798 432.10069,55.8985612 431.962369,55.6956645 L431.961803,55.6865965 C431.961803,55.6865965 431.958968,55.683196 431.875636,55.5675788 C431.748087,55.3805511 431.63641,55.2178937 431.475414,54.9826922 C431.475414,54.9826922 431.469746,54.9877929 431.458975,54.9928937 C431.425528,54.9469869 431.389815,54.8982463 431.352967,54.8472388 C431.250361,54.5910675 431.151723,54.3326292 431.02474,54.0860927 C430.892656,53.8032841 430.712386,53.5567476 430.578601,53.455866 C430.575199,53.3351481 430.568397,53.2076292 430.546288,53.0529063 C430.210125,52.3342665 430.042327,51.9749466 429.871694,51.6105259 C429.78496,51.4291657 429.698227,51.246672 429.588251,51.0165713 C429.46467,50.7949718 429.315579,50.5280322 429.116602,50.1726796 C429.116602,50.1726796 429.071251,50.2049844 429.033837,50.2905637 C428.994155,50.2389894 428.650055,49.8161934 428.331465,49.2704126 C427.979996,48.7722388 428.018544,48.749002 427.210731,47.4585108 L427.243611,47.5474907 C427.271955,47.639871 427.35302,47.808196 427.457327,48.1811179 L427.428982,48.1040398 C427.402906,48.024128 427.345083,47.869405 427.210731,47.5701607 L427.106424,47.849002 L427.152342,47.4545436 L426.81958,47.3542287 C426.81958,47.3542287 426.818446,47.3496947 426.528201,45.9792917 C426.45734,45.9078811 426.289542,45.7372892 425.867778,45.3099592 C425.867778,45.3099592 425.722656,45.2130448 425.59624,45.1597703 C425.531048,45.1954756 425.529914,45.1937753 425.025386,44.953473 C425.025386,44.953473 424.952824,44.9976796 424.913709,45.0934605 C424.942621,45.2691531 424.942621,45.2691531 424.787861,45.4442791 C424.787861,45.4442791 424.823574,45.6375411 424.915977,45.8857778 C425.029921,46.1017098 425.059966,46.1578181 425.480595,46.955803 C425.403499,46.9178307 425.326969,46.8849592 425.253841,46.8583219 C424.808835,46.978473 424.820173,46.9932086 424.674483,48.4463572 C424.674483,48.4463572 424.710764,48.6061809 424.798632,48.8765209 C424.884798,49.1485612 425.038991,49.5186494 425.211324,49.9845184 C425.744197,50.969531 425.744197,50.969531 426.358702,52.1069995 C426.358702,52.1069995 426.482283,52.3592035 426.694865,52.794468 C426.729445,53.1911934 426.731713,53.2813068 426.73398,53.5856519 C426.73398,53.5856519 426.735114,53.5873521 426.735114,53.5918861 C426.609265,53.3838887 426.468111,53.1894932 426.332625,53.0410045 C425.91483,52.6221758 425.657464,52.6907526 425.777644,53.1730574 C424.86269,52.9950977 424.603623,53.6054882 424.468704,54.5632967 C424.168821,54.4697829 423.919958,54.4952866 423.732319,54.6426418 C422.790155,54.1813068 421.982909,54.0634227 421.333258,54.2209793 L420.812856,54.4374781 C420.537917,54.9027804 420.586102,55.6916972 420.787913,56.7384856 L420.818525,57.0723018 L420.284519,57.0501985 C420.062866,57.9161934 420.033955,58.9924529 420.001642,60.0619113 C419.907539,61.1642413 419.820239,62.2524025 419.587249,63.1246317 C419.541331,63.5321254 419.4614,63.9481204 419.398476,64.3505133 C419.302105,64.7993798 419.273761,65.3338257 419.312876,65.9221128 C419.349157,66.5115335 419.368431,67.1825662 419.493146,67.8677678 C419.57421,68.3529063 419.679651,68.8295436 419.706295,69.3237501 C419.765251,69.6252615 419.824774,69.9250725 419.884297,70.2282841 C419.028299,68.8176418 417.941579,68.28773 417.175716,68.78307 C416.851457,68.992201 416.632639,69.3481204 416.432528,69.8219239 C416.227316,70.2979945 416.086161,70.8789139 416.020402,71.5244428 C415.986956,72.164871 415.87528,72.8965461 415.910993,73.6514579 C415.969949,74.405803 415.945573,75.2117224 416.070288,76.0267098 C416.185933,78.212667 416.164958,80.3980574 415.814056,82.5358408 L415.71315,83.3411934 C415.679704,83.6104 415.601474,83.8705385 415.550454,84.1363446 C415.437077,84.6645562 415.329935,85.1950348 415.22903,85.7277804 C415.073136,86.2469239 414.922344,86.767201 414.778355,87.2908786 C414.702959,87.5515839 414.646838,87.8185234 414.55897,88.076395 L414.273827,88.8420751 C414.078818,89.3521506 413.922924,89.8775285 413.71431,90.3847703 C413.484155,90.8846443 413.260801,91.3879189 413.04255,91.8957275 C412.843007,92.4131708 412.572602,92.8977426 412.320905,93.3942161 C412.083946,93.8997577 411.791433,94.369594 411.518761,94.8569995 C410.402562,96.7845184 409.098158,98.6219239 407.597044,100.358448 C406.473476,101.630803 405.284149,102.805677 404.026796,103.887604 C402.764341,104.965564 401.412318,105.913738 400.003606,106.776899 C398.597162,107.647428 397.09208,108.355299 395.532577,108.963423 C394.755943,109.28137 393.947564,109.516005 393.138617,109.772176 C392.314932,109.975073 391.488979,110.197806 390.636383,110.332692 C384.252113,112.106622 377.472724,112.192201 370.75059,110.33836 C367.924096,109.556244 365.369708,108.726521 362.880512,107.75341 C360.39415,106.771798 357.974681,105.594657 355.639111,103.891571 C355.503058,103.793523 355.431064,103.83603 355.446369,103.939178 C355.491153,104.074632 355.64478,104.248624 355.773463,104.330803 C359.194053,107.315312 363.085158,109.591382 367.186578,111.352843 C371.32768,113.054795 375.670593,114.164493 380.198311,114.631496 C380.717579,114.680803 381.232878,114.729544 381.743642,114.778284 C382.256674,114.803221 382.765738,114.834392 383.2714,114.871231 C383.383077,114.899002 383.504957,114.928473 383.638742,114.93074 C384.561066,115.008952 385.492459,115.094531 386.426687,115.097931 L385.453344,115.151773 C384.810496,115.147239 384.256648,115.31443 384.205061,115.566068 C384.20166,115.669216 384.291795,115.765564 384.444287,115.846042 C382.014614,116.081811 379.587208,116.166256 377.138261,116.037037 C376.423985,115.914619 375.751091,115.872113 375.16323,115.836408 C372.473923,114.961345 369.870216,113.844279 367.428638,112.430236 L366.835675,112.059581 C366.060175,111.556307 365.216082,111.251395 364.676974,111.279166 C364.507475,111.280866 364.383327,111.318838 364.299994,111.371546 C361.390736,109.900261 358.651543,108.012415 356.157811,105.86103 C353.661246,103.709078 351.409008,101.29812 349.367084,98.7823144 C349.168107,98.5216091 348.994073,98.421861 348.920378,98.5255763 C348.885231,98.4054252 348.814371,98.2614705 348.719701,98.1492539 C348.179458,97.5711683 347.638082,96.874065 347.169834,96.0806141 C347.047954,95.9179567 346.939112,95.8476796 346.92664,95.9576292 C346.90113,96.0755133 346.973692,96.2942791 347.079133,96.4433345 C347.206682,96.6428307 347.334231,96.8411934 347.46008,97.0372892 C347.596133,97.2282841 347.740689,97.4124781 347.880709,97.5938383 C348.163019,97.9559919 348.445328,98.3022766 348.728771,98.6224907 C348.791128,98.689934 348.850651,98.7245058 348.890333,98.719405 C348.914142,98.9211683 349.033189,99.1937753 349.223662,99.4210423 C351.100622,102.203221 353.349458,104.635148 355.814278,106.763863 C358.2825,108.894279 360.963304,110.726017 363.812473,112.367327 C360.835754,111.067768 357.981483,109.254732 355.249093,106.969594 C351.987231,104.187415 349.136929,101.231244 346.852378,97.3988761 C346.752039,97.1903118 346.62449,97.0814957 346.574604,97.1342035 C346.52982,97.1903118 346.552496,97.3926418 346.676077,97.5870373 C348.980468,101.555992 351.936212,104.756999 355.248526,107.396924 C356.099422,108.035652 356.903833,108.715186 357.798946,109.293838 C358.232614,109.595916 358.667982,109.898561 359.105051,110.20234 C359.556293,110.483448 360.009801,110.766256 360.465578,111.049632 C361.348219,111.652088 362.324964,112.130992 363.252389,112.704544 C363.722338,112.982251 364.224032,113.215186 364.708719,113.484392 C365.201343,113.738863 365.67526,114.038108 366.189992,114.272743 C366.506315,114.4354 366.822637,114.597491 367.133857,114.757881 C365.742719,114.432566 364.403168,113.975765 363.027902,113.538801 C362.359544,113.277528 361.691752,113.016823 361.025094,112.756685 C360.683829,112.631999 360.353334,112.489745 360.031343,112.331622 L359.049497,111.87312 C358.142479,111.276899 357.324463,110.56846 356.467898,109.904795 C356.031396,109.581181 355.651582,109.19409 355.24059,108.840438 C354.841502,108.474884 354.42314,108.128032 354.03539,107.748876 L352.88858,106.595539 L352.314324,106.017453 L351.775783,105.408196 L350.693031,104.190249 C350.346663,103.77142 350.018436,103.338989 349.678305,102.914493 C346.974826,99.5026544 344.808187,95.6668861 343.171588,91.6066846 C343.031,91.2037249 342.808781,90.9118484 342.684633,90.9611557 C342.558217,91.0098962 342.572389,91.3901859 342.714111,91.7965461 C344.089376,96.6275285 346.372793,101.251647 349.375021,105.395727 C349.091011,105.163926 348.852352,104.897554 348.588183,104.643649 L347.905652,103.813926 C345.989578,101.11846 344.350144,98.2246317 343.003789,95.1794806 C342.775901,94.6019617 342.495293,94.1026544 342.221487,93.753536 C341.968089,93.3976166 341.719226,93.1930196 341.524784,93.2270247 C341.342247,93.2802992 341.255513,93.55574 341.261182,93.967201 C341.275921,94.3746947 341.411974,94.9085738 341.628524,95.4860927 C341.532153,95.3098332 341.43635,95.1341406 341.339412,94.9573144 C341.247577,94.7759542 341.123429,94.669405 341.088282,94.7425159 C341.055402,94.8394302 341.112091,95.0961683 341.202226,95.2724277 C341.569001,95.9077552 341.888158,96.5447829 342.289513,97.1438383 C344.836532,103.158196 348.900537,108.511722 353.822808,112.798624 C348.259389,108.476584 343.655708,102.607881 340.778195,95.8850851 C340.8774,96.0041028 340.957898,95.9888005 340.936923,95.8017728 C340.917649,95.6419491 340.800871,95.3580071 340.701099,95.2361557 C340.586021,95.0956015 340.520829,95.1522766 340.539536,95.314934 C340.54067,95.321735 340.541237,95.3245688 340.542371,95.3313698 C339.041823,91.7075662 338.029932,87.8593295 337.566786,83.9379819 C337.537875,83.7095814 337.448307,83.5214202 337.375179,83.5344554 C337.301483,83.5486242 337.275407,83.7656897 337.315656,84.0201607 C338.070748,90.5593295 340.419356,96.860463 343.8938,102.316005 C345.643777,105.040942 347.71121,107.530677 349.979888,109.762541 C352.251967,111.991571 354.734928,113.967264 357.399292,115.585337 C357.937266,115.996231 358.512089,116.356685 359.088612,116.720539 L359.086344,116.725073 C359.103918,117.085526 359.341443,117.549695 359.749601,118.066571 C355.893076,115.809204 352.343236,113.035526 349.196452,109.809015 C346.707822,107.001332 344.557057,103.90234 342.788373,100.594783 C342.531573,100.119846 342.20278,99.780929 342.045185,99.8472388 C341.894394,99.9061809 342.004369,100.357881 342.272507,100.86739 C342.71978,101.683511 343.140409,102.515501 343.651173,103.29535 C343.059911,102.758637 342.566153,102.459959 342.269105,102.571609 C341.98056,102.677591 341.910833,103.172931 342.092804,103.846231 C339.633085,100.373183 337.589462,96.6156267 335.957964,92.7373521 C335.868396,92.5072514 335.768624,92.4007023 335.727808,92.5038509 C335.690394,92.6069995 335.713636,92.8654378 335.820777,93.087604 C336.828701,95.978599 338.116099,98.7358408 339.587168,101.367264 C341.092817,103.982818 342.830322,106.436282 344.718053,108.758826 C347.317792,112.708511 350.400517,116.345916 354.518377,119.534455 C360.555713,124.130803 367.442243,126.67438 374.388297,127.720035 C375.610503,128.053284 376.855952,128.266382 378.095164,128.501584 C379.344014,128.674443 380.590596,128.864871 381.843414,128.938549 C381.482308,129.064367 381.258388,129.225324 381.24535,129.414619 C381.241948,129.462226 381.265758,129.509833 381.291267,129.558574 C380.733452,129.527403 380.175636,129.471294 379.619521,129.399317 C379.062272,129.33244 378.503889,129.265564 377.944373,129.19812 C376.834977,128.999191 375.707441,128.861471 374.596344,128.593964 C364.228567,126.401773 354.872681,121.489745 347.325161,114.483007 C343.589949,110.949884 340.336591,106.903284 337.685265,102.454292 C335.049812,97.9979315 333.065712,93.1238761 331.779447,88.0078181 C331.472762,86.6969239 331.050432,85.7697199 330.719937,85.9833849 C330.413252,86.1885486 330.306111,87.4994428 330.660981,88.8335738 C332.778867,98.9699088 337.861567,107.566382 345.265664,114.665501 C347.923226,117.17734 350.594392,119.330992 353.467371,121.155362 C356.332979,122.982566 359.304595,124.616508 362.624846,125.984078 C366.517085,127.578347 370.407057,128.762289 374.355985,129.546105 C378.303212,130.331622 382.316197,130.707944 386.422152,130.574191 C387.229965,130.594027 388.044013,130.622365 388.855794,130.517516 C389.677212,130.418901 390.50033,130.356559 391.307009,130.213171 C397.687877,129.476395 403.858431,127.773309 409.578877,125.042138 C402.954815,128.732818 395.576227,131.049695 388.034376,131.970098 C387.490165,132.012037 387.134728,132.157125 387.196519,132.288612 C387.299125,132.417264 387.799685,132.503977 388.348431,132.449002 C398.97811,131.479292 409.281262,127.50807 417.643964,120.974569 C419.148479,120.572176 421.261263,119.524254 423.385952,117.914682 C425.523679,116.328347 427.705056,114.225702 429.424421,111.973435 C430.719189,110.329292 431.693665,108.638675 432.537759,106.884015 C432.006587,107.620224 431.527001,108.3604 430.961249,109.068272 C432.410776,106.824506 433.296252,104.707125 433.985019,102.574443 C434.083657,102.407818 434.182295,102.240627 434.280366,102.057566 C434.974235,100.963171 435.711186,99.8166343 436.261066,98.5391783 C436.833054,97.2736242 437.451526,95.9819995 437.877258,94.6030952 C438.335868,93.2366594 438.820556,91.8605889 439.14028,90.4442791 C439.318282,89.7403748 439.496851,89.0381708 439.673719,88.3410675 C439.860225,87.644531 439.95943,86.9349592 440.110221,86.2418232 C439.943557,86.3432715 439.766689,86.4509542 439.600591,86.5518358 C439.868728,85.5424529 440.234369,84.9751355 440.474162,83.8450348 C440.316001,84.1493798 440.16691,84.4361557 440.008749,84.7405008 L440.023488,84.6736242 C440.12496,84.3783471 440.233236,84.067201 440.310899,83.7396191 C440.382327,83.410337 440.446952,83.0674529 440.503073,82.7138005 C440.616451,82.005929 440.700917,81.2538509 440.758172,80.4864705 C441.565418,77.1579441 441.931626,72.9316846 441.360205,68.5677048" id="Fill-16" fill="#FFFFFF" fill-rule="nonzero"></path>
                    <path d="M377.661754,132.835296 L372.945263,134.429565 L371.437913,137.269553 L368.947016,137.848772 L368.621624,136.854691 L380.993343,125.54915 L385.769357,128.18454 L377.661754,132.835296 Z M425.504662,169.037626 C419.045563,153.025787 415.541641,131.408218 415.541641,131.408218 C415.541641,131.408218 417.241732,131.445623 415.627241,127.442097 C415.627241,127.442097 419.015518,128.081958 420.752457,126.419112 C422.489396,124.755699 419.210527,119.016215 419.210527,119.016215 C419.210527,119.016215 422.769437,111.723268 422.989389,101.524024 C423.209341,91.3253463 420.484887,86.1645151 418.229814,85.5490239 C415.975309,84.9335327 413.128974,85.4390743 413.128974,85.4390743 C413.128974,85.4390743 408.704996,83.153369 407.004338,83.1165302 L406.828604,80.8081549 L408.134142,75.4325252 L406.769081,74.3301952 L390.67859,74.7524244 C390.67859,74.7524244 390.604328,82.1502204 390.592423,82.716971 C390.579951,83.2837217 392.787405,82.1672229 392.787405,82.1672229 L393.301571,86.4167191 C393.320278,86.5731423 393.481841,86.6694899 393.628664,86.6116814 L396.114459,85.6402708 C396.114459,85.6402708 394.859374,91.2822733 394.292488,91.2698048 C393.725602,91.257903 390.806139,95.1628149 387.935995,96.8018577 C385.065852,98.4403338 386.211528,97.8979534 384.486494,98.9951826 C382.762027,100.091845 372.724744,118.583218 369.830224,121.354628 C369.830224,121.354628 371.121024,122.493797 371.715687,122.705195 L364.637549,133.27056 L356.752165,139.415838 L360.021963,146.641341 L369.579661,142.275661 L374.090939,143.271442 L381.47803,140.445623 L382.989915,136.671631 L386.264249,135.228117 C386.264249,135.228117 377.562549,157.235044 376.221864,166.843168 C374.881178,176.451291 364.490159,211.373898 364.490159,211.373898 C364.490159,211.373898 314.073022,209.155636 309.527163,209.624339 C304.980171,210.093608 293.609005,211.549591 283.924892,213.609162 C274.241346,215.667601 230.913118,216.406077 219.144565,215.084981 C212.337399,214.320435 178.300999,220.972953 140.858747,221.867853 L0.106064364,220.406203 C0.106064364,220.406203 124.282435,224.4375 144.899511,224.762815 C173.244943,225.209981 228.057713,218.881644 243.360233,219.210926 C258.662186,219.540208 307.088987,217.508407 322.391506,217.837689 C337.693459,218.166971 384.575495,226.545812 437.613346,212.381014 C437.613346,212.381014 431.964328,185.048898 425.504662,169.037626 Z" id="Fill-18" fill="#000000" fill-rule="nonzero"></path>
                    <path d="M414.127374,131.378577 C414.127374,131.378577 436.837393,165.139912 460.824038,186.973413 C460.824038,186.973413 458.066705,188.095579 456.382487,187.188778 C454.698836,186.281977 423.203785,151.08563 413.196547,133.600239" id="Fill-20" fill="#000000" fill-rule="nonzero"></path>
                    <path d="M417.821543,137.070453 C417.821543,137.070453 417.893538,137.898476 417.369735,141.199798 C417.353862,141.302947 417.382206,141.411196 417.448532,141.491108 L418.315868,142.519761 C418.50294,142.741927 418.861779,142.664282 418.936041,142.383741 C419.208146,141.348287 419.671859,139.369761 419.466079,138.564408 C419.182069,137.450176 417.821543,137.070453 417.821543,137.070453" id="Fill-22" fill="#000000" fill-rule="nonzero"></path>
                    <path d="M423.503101,148.505611 C423.503101,148.505611 423.408431,147.679855 423.840398,144.364931 C423.853437,144.262349 423.822258,144.154099 423.753098,144.077021 L422.857418,143.071606 C422.664677,142.855107 422.308105,142.942953 422.24178,143.225195 C421.998586,144.268016 421.590428,146.259011 421.817182,147.057563 C422.132371,148.16386 423.503101,148.505611 423.503101,148.505611" id="Fill-24" fill="#000000" fill-rule="nonzero"></path>
                    <path d="M415.562843,136.538558 C415.562843,136.538558 417.660888,145.796996 421.97659,152.351467 C426.29286,158.905938 428.666412,157.906757 429.706081,165.031946 C430.745749,172.158268 434.250238,173.792777 434.250238,173.792777 L434.817691,171.284339 C434.817691,171.284339 433.090957,170.32313 432.007638,166.096304 C430.924319,161.868911 431.214564,159.307764 427.418696,156.035913 C423.623394,152.764628 420.333755,148.765636 418.227774,138.810094" id="Fill-26" fill="#000000" fill-rule="nonzero"></path>
                    <path d="M371.43763,137.269666 C371.43763,137.269666 330.434768,154.244981 281.716588,157.957764 C281.716588,157.957764 282.655918,160.707639 284.563489,160.573319 C324.502306,157.758835 364.110062,143.711354 382.990199,136.671178 L371.43763,137.269666 Z" id="Fill-28" fill="#000000" fill-rule="nonzero"></path>
                    <g id="Group-32" transform="translate(325.392544, 0.000000)">
                        <g id="Fill-30-Clipped">
                            <mask id="mask-2" fill="white">
                                <use xlink:href="#path-1"></use>
                            </mask>
                            <g id="path-1"></g>
                            <path d="M110.915887,206.43818 C129.54206,201.521052 156.803039,190.074956 161.679392,169.506442 L169.120904,171.355183 C169.120904,171.355183 182.00112,148.436354 178.730188,130.684024 C175.458689,112.931694 157.801325,110.144414 151.877934,102.124893 C145.954542,94.1059383 154.180057,83.6635579 150.03272,64.3662657 C148.334329,54.4033564 148.477752,47.7372355 148.477752,47.7372355 C148.477752,47.7372355 151.390412,59.7160768 152.723727,62.8230038 C154.05761,65.9299307 154.945354,70.8323237 154.900003,76.5678401 C154.900003,76.5678401 153.131885,92.1183438 156.899976,98.4557494 C160.669201,104.793155 183.562324,114.518596 183.562324,114.518596 C183.562324,114.518596 185.325339,88.2168325 172.605552,62.4070088 C159.886898,36.5971851 134.145741,22.7962406 114.803025,12.3362909 C95.4608754,1.87634131 79.5716287,3.25581234 71.9385092,5.37035894 C64.3053897,7.48490554 53.6966857,5.49844458 35.9525882,4.51853275 C18.2084906,3.53805416 15.1756507,7.10178212 0.0658721491,5.33125315 C0.0658721491,5.33125315 15.2776901,2.36714736 21.8121846,2.01519521 C28.3472461,1.66324307 37.3488283,2.26229849 47.2823711,3.05574937 C57.2159138,3.8486335 79.6130114,0.0582052897 87.0012362,0.0931009425 C94.3900279,0.129049118 132.658799,10.6796788 145.071334,21.658772 C157.483302,32.6372985 167.140771,35.7396914 177.401407,57.0240113 C187.66261,78.308898 191.773667,84.4768451 191.344534,104.418533 C190.914835,124.361354 188.069067,144.802916 183.253371,162.51614 C178.438809,180.229931 143.491423,207.745674 112.220859,212.38056 C93.558973,215.14687 110.915887,206.43818 110.915887,206.43818" id="Fill-30" fill="#000000" fill-rule="nonzero" mask="url(#mask-2)"></path>
                        </g>
                    </g>
                    <path d="M397.586379,62.3711335 L376.052648,77.1406549 C376.052648,77.1406549 383.293483,80.9101134 395.993996,79.9370025 C413.036855,78.6312091 421.727784,70.1050126 421.727784,70.1050126 L397.586379,62.3711335 Z" id="Fill-33" fill="#000000" fill-rule="nonzero"></path>
                    <path d="M491.263717,49.1654471 C491.263717,49.1654471 476.752004,36.8465554 473.802496,36.5053715 C470.852988,36.1641877 470.089393,36.686165 462.02544,37.2517821 C453.96092,37.8173992 448.527885,36.8046159 442.686692,37.4365428 C437.327919,38.0151952 427.69766,40.054364 427.69766,40.054364 C427.69766,40.054364 439.368142,35.6138728 442.198603,35.7640617 C446.906591,36.0128652 454.383817,35.6563791 456.52778,35.2103463 C458.670609,34.7637469 464.694339,33.3003967 466.182415,32.9257746 C467.671057,32.5505856 478.108562,33.8291751 479.324532,34.5625504 C480.540502,35.2953589 486.889625,37.8332683 486.889625,37.8332683" id="Fill-35" fill="#000000" fill-rule="nonzero"></path>
                    <path d="M479.984104,90.8741562 C479.984104,90.8741562 481.589525,89.5332242 481.903013,87.826738 C482.216501,86.1202519 482.242578,84.9204408 483.028848,82.7208816 C483.815686,80.5213224 483.912624,75.9992191 483.912624,75.9992191 C483.912624,75.9992191 484.454,80.8976448 484.151283,82.0957557 C483.847999,83.292733 483.13599,86.3463854 483.019211,87.4872544 C482.901866,88.6281234 482.702322,91.0249118 482.437019,91.7582872 C482.171717,92.4910957 480.111653,93.2777456 479.902472,94.6583501" id="Fill-37" fill="#000000" fill-rule="nonzero"></path>
                    <path d="M459.218617,35.1820655 C459.218617,35.1820655 457.91478,33.5469899 456.215822,33.1939043 C454.516865,32.8408186 453.317335,32.7875441 451.135957,31.9510202 C448.955714,31.1144962 444.434798,30.912733 444.434798,30.912733 C444.434798,30.912733 449.346298,30.4848363 450.536759,30.8152519 C451.726653,31.1456675 454.764028,31.9283501 455.901768,32.0711713 C457.040075,32.2145592 459.432333,32.469597 460.159081,32.751272 C460.885829,33.0329471 461.625048,35.1106549 463.001447,35.3509572" id="Fill-39" fill="#000000" fill-rule="nonzero"></path>
                    <path d="M390.580008,97.2025504 C390.580008,97.2025504 384.920219,109.651795 385.14017,110.664578 C385.361256,111.677361 386.521105,114.4108 386.6804,115.892286 C386.839695,117.372639 386.598768,119.701984 386.598768,119.701984 L388.101016,121.694112 C388.101016,121.694112 392.333386,103.36313 395.089019,100.759477 C397.844085,98.1563917 398.860511,97.3805101 398.860511,97.3805101 L403.660902,91.5373111 C403.660902,91.5373111 399.999385,97.0019207 400.047571,98.2039987 C400.095756,99.4049433 400.503914,101.907147 400.503914,101.907147 C400.503914,101.907147 405.215303,97.56017 405.689787,96.9781171 C406.16427,96.3960642 404.917121,99.9705605 404.169965,101.801165 C403.422243,103.632336 403.37179,105.623331 402.938122,106.649717 C402.503888,107.675535 404.580391,106.13284 404.580391,106.13284 C404.580391,106.13284 402.385975,108.873079 402.281668,109.424528 C402.177361,109.976543 403.545824,110.837437 403.545824,110.837437 C403.545824,110.837437 402.190966,112.470246 401.778273,112.923079 C401.365014,113.375913 398.579903,114.630699 397.731841,115.109603 C396.884347,115.587941 395.189358,116.567286 395.189358,116.567286 L397.910411,119.130699 C397.910411,119.130699 397.364499,116.890901 397.642273,116.851228 C397.920048,116.810989 400.197795,118.277739 400.197795,118.277739 L400.184757,116.720875 C400.184757,116.720875 403.139367,118.911933 403.508976,118.917601 C403.878019,118.924402 399.895078,115.166278 400.772051,115.17478 C401.64959,115.183281 405.507249,118.128684 405.795794,117.718923 C406.083772,117.310296 403.039595,114.982084 403.016919,113.87352 C402.994811,112.764956 407.575816,112.337626 407.575816,112.337626 C407.575816,112.337626 412.862595,100.603054 413.496373,99.0473237 C414.130152,97.4910264 414.230491,94.9905227 414.911888,93.3701826 C415.593284,91.7509761 414.288313,90.153306 408.839972,96.5462531 C410.56614,93.5815806 410.173855,92.5155227 407.282169,94.8987091 C407.282169,94.8987091 410.424418,91.5939861 410.900036,90.9569584 C411.375653,90.3210642 409.313889,89.5406486 406.490796,91.948772 C403.668271,94.3568955 408.950515,89.253306 410.596185,87.903306 C412.241288,86.5538728 412.346162,85.9667191 412.346162,85.9667191 L409.503229,84.2369962 C409.503229,84.2369962 400.749375,92.6322733 399.661521,93.8553212 C398.5731,95.078369 395.322009,98.1478904 394.846959,98.691971 C394.372475,99.2354849 389.098168,108.286492 389.098168,108.286492 C389.098168,108.286492 390.858916,101.560863 391.397458,100.141719 C391.936566,98.7214421 393.138364,94.3840995 393.138364,94.3840995 L390.580008,97.2025504 Z" id="Fill-41" fill="#333333" fill-rule="nonzero"></path>
                    <path d="M371.705597,120.309767 C371.705597,120.309767 374.516784,120.581241 375.40226,122.341568 C375.40226,122.341568 374.161347,119.92211 373.557046,119.421669 C372.951612,118.920661 375.440808,120.581241 375.440808,120.581241 C375.440808,120.581241 374.817801,118.040497 374.947617,117.733885 C375.077434,117.427273 376.985006,117.468079 377.510509,115.940686 L379.164682,119.199503 C379.164682,119.199503 378.268435,112.201832 378.643147,111.96323 C379.017859,111.725762 380.769536,115.703218 381.199803,115.958256 C381.630636,116.21386 381.521227,112.70284 381.521227,112.70284 L384.32958,116.703533 C384.32958,116.703533 383.342065,112.4342 383.533105,111.453155 C383.724713,110.472676 386.913446,101.306618 387.756973,99.9090113 C388.600499,98.5114043 389.743341,97.0593892 389.743341,97.0593892 C389.743341,97.0593892 385.31993,99.3025882 384.808599,100.153848 C384.297835,101.00454 371.705597,120.309767 371.705597,120.309767" id="Fill-43" fill="#333333" fill-rule="nonzero"></path>
                    <path d="M394.929611,65.2580479 L379.164512,76.5573552 C379.164512,76.5573552 386.744911,80.1125819 397.754404,77.8206423 C397.754404,77.8206423 390.779439,76.0280101 389.368459,75.5117003 L396.628001,74.0982242 L390.170036,72.387204 L394.929611,65.2580479 Z" id="Fill-45" fill="#333333" fill-rule="nonzero"></path>
                    <polygon id="Fill-47" fill="#333333" fill-rule="nonzero" points="372.363808 136.93483 373.490777 135.053785 380.328556 132.707437 376.769646 136.060901 376.824067 136.741568 374.324666 142.377903 370.403516 141.774314 371.935809 141.238168 373.359827 141.145787 374.770239 136.697361 374.438611 136.01046 373.526491 137.063482"></polygon>
                    <polygon id="Fill-49" fill="#333333" fill-rule="nonzero" points="363.547201 138.165756 366.481402 136.316448 366.261451 135.059962 372.430304 123.650139 365.64071 133.858451 358.127771 139.641008 358.771186 141.449509 362.787006 137.715756"></polygon>
                    <path d="M358.539897,143.366713 L358.307474,142.85267 C342.368908,148.151222 314.046718,156.159408 282.43659,158.604937 C282.606656,158.939887 282.852117,159.353048 283.178077,159.718035 C283.219459,159.714635 283.260275,159.711234 283.301658,159.707834 C283.142363,159.476033 283.002342,159.245932 282.899169,159.043035 C314.360206,156.608841 342.560515,148.665831 358.539897,143.366713" id="Fill-51" fill="#333333" fill-rule="nonzero"></path>
                    <polyline id="Fill-53" fill="#333333" fill-rule="nonzero" points="360.435393 139.690031 360.356029 143.382412 359.382119 143.361442 358.128168 139.640724"></polyline>
                    <path d="M390.398435,138.948892 C390.254446,143.577544 389.739146,148.404559 390.734598,159.084975 C391.73005,169.76539 398.586535,182.868098 399.775862,188.580945 C400.965189,194.293791 399.047414,200.406196 399.047414,200.406196 C399.047414,200.406196 405.136903,194.013249 399.517929,180.26728 C393.899522,166.520743 391.864969,161.487431 392.699425,150.770176 C392.699425,150.770176 393.205654,158.068791 395.007784,162.855567 C396.809915,167.641209 398.280417,171.595995 398.280417,171.595995 L398.138129,166.994547 L399.167027,168.93 C399.167027,168.93 399.620535,166.759912 397.502649,160.69738 C395.38533,154.634849 394.464141,149.140768 394.496453,148.458967 C394.529333,147.776599 396.942566,157.272506 398.375654,159.573514 C399.809308,161.873955 401.502597,163.884786 401.180606,167.591335 C400.858047,171.298451 400.854646,173.644232 400.854646,173.644232 C400.854646,173.644232 402.7163,167.760793 402.333652,165.200214 C401.951571,162.640202 400.000349,159.754307 398.619982,154.763501 C397.239614,149.773829 394.596792,136.371877 394.643277,136.114005 C394.689761,135.8567 394.160857,137.616461 394.160857,137.616461 L394.248157,140.438312 L393.546352,138.021121 L392.604755,138.516461 C392.604755,138.516461 393.34114,143.622884 393.260642,145.89102 C393.17901,148.159156 391.66259,140.746058 391.63708,138.674584 L391.410893,138.719358 L391.278808,142.373766 L390.398435,138.948892 Z" id="Fill-55" fill="#333333" fill-rule="nonzero"></path>
                    <polygon id="Fill-57" fill="#333333" fill-rule="nonzero" points="392.221426 81.6904723 390.953869 82.2713917 391.096158 80.0916688 391.274727 81.5470844"></polygon>
                    <polygon id="Fill-59" fill="#FF1D37" fill-rule="nonzero" points="372.729733 136.875094 373.722917 135.217349 379.748348 133.150409 374.205337 135.451417"></polygon>
                    <polygon id="Fill-61" fill="#FF1D37" fill-rule="nonzero" points="389.51653 101.670642 385.759777 110.331159 387.281299 116.21233 387.214973 119.289219 387.864057 115.547531 386.797745 110.445642"></polygon>
                    <polygon id="Fill-63" fill="#FF1D37" fill-rule="nonzero" points="406.828717 99.0267506 404.185328 103.955781 403.65699 105.668501 406.179066 104.78437 402.930242 109.161952 404.283966 110.821965 404.13941 108.941486 407.07758 104.387645 405.004478 104.404647"></polygon>
                    <polygon id="Fill-65" fill="#FF1D37" fill-rule="nonzero" points="387.654253 98.8745214 385.356664 100.242091 378.66004 110.486108 385.565278 100.754433"></polygon>
                    <path d="M387.35471,71.8144458 L380.932459,76.2305668 C380.932459,76.2305668 384.570733,77.993728 388.792333,78.061738 C388.792333,78.061738 384.418808,77.3215617 382.01918,76.1614232 L387.35471,71.8144458 Z" id="Fill-67" fill="#FF1D37" fill-rule="nonzero"></path>
                    <path d="M390.584997,143.626285 C390.584997,143.626285 390.424568,150.943602 391.078188,157.897632 C391.73124,164.850529 394.578141,172.637116 394.578141,172.637116 C394.578141,172.637116 391.48011,162.105189 391.423421,156.132204 C391.367866,150.159219 391.227845,145.229055 391.227845,145.229055 L390.866172,147.717091 L390.584997,143.626285 Z" id="Fill-69" fill="#FF1D37" fill-rule="nonzero"></path>
                    <path d="M358.263086,142.990901 L358.373062,143.247072 C358.373062,143.247072 336.445346,150.033911 328.406336,151.559603 C328.406336,151.559603 352.638444,145.261304 358.263086,142.990901" id="Fill-71" fill="#FF1D37" fill-rule="nonzero"></path>
                    <polygon id="Fill-73" fill="#FF1D37" fill-rule="nonzero" points="409.488206 84.9244081 411.192265 85.9417254 409.71496 85.9099874 407.762038 88.6910327 408.50636 86.3016121 401.910074 92.3794458"></polygon>
                </g>
            </g>
        </g>
    </g>
</svg>