<?xml version="1.0" encoding="UTF-8"?>
<svg width="50px" height="50px" viewBox="0 0 50 50" version="1.1" xmlns="http://www.w3.org/2000/svg" xmlns:xlink="http://www.w3.org/1999/xlink">
    <!-- Generator: Sketch 51.2 (57519) - http://www.bohemiancoding.com/sketch -->
    <title>checkout</title>
    <desc>Created with Sketch.</desc>
    <defs></defs>
    <g id="Page-1" stroke="none" stroke-width="1" fill="none" fill-rule="evenodd">
        <g id="checkout">
            <rect id="Rectangle-5" fill-opacity="0.01" fill="#FFFFFF" x="0" y="0" width="50" height="50"></rect>
            <g id="shopping-cart-empty-1" transform="translate(5.000000, 6.000000)" fill="#5110B1" fill-rule="nonzero">
                <path d="M39.4383333,10.8208 L36.0183333,22.8624 C35.4253364,24.9507505 33.4497414,26.3997204 31.195,26.4 L13.2716667,26.4 C13.1465322,26.3999755 13.0280118,26.4539423 12.9488599,26.5469862 C12.869708,26.64003 12.8383064,26.762298 12.8633333,26.88 L13.1616667,28.248 C13.2855126,28.8020171 13.7947624,29.1983161 14.385,29.2 L33.3466667,29.2 C34.4972599,29.2 35.43,30.0954305 35.43,31.2 C35.43,32.3045695 34.4972599,33.2 33.3466667,33.2 C33.2070351,33.1999677 33.0774049,33.2695523 33.0043192,33.38377 C32.9312335,33.4979876 32.9251805,33.6404475 32.9883333,33.76 C33.5088911,34.7517285 33.4566325,35.9316444 32.8502647,36.8773744 C32.2438969,37.8231043 31.1701277,38.3994131 30.0133333,38.4 C28.8608123,38.3988642 27.7906722,37.8262593 27.1835001,36.8858276 C26.576328,35.945396 26.5182798,34.7705823 27.03,33.7792 C27.0939978,33.6552135 27.0866993,33.5082796 27.0107025,33.3907017 C26.9347057,33.2731238 26.8008059,33.2016037 26.6566667,33.2016 L16.7066667,33.2016 C16.5624115,33.2018308 16.4283737,33.2731163 16.3516667,33.3904 C16.275222,33.5080257 16.2682715,33.6554249 16.3333333,33.7792 C17.1037271,35.2687486 16.5571867,37.0765345 15.0758127,37.9386878 C13.5944388,38.800841 11.6720563,38.4299576 10.6526525,37.0853317 C9.63324878,35.7407058 9.85664828,33.8705767 11.1666667,32.7824 C11.262639,32.7036817 11.3160732,32.587309 11.311857,32.4661944 C11.3076409,32.3450798 11.2462327,32.2323915 11.145,32.16 C10.0897792,31.4046319 9.35695827,30.3064314 9.08333333,29.0704 L3.80666667,4.96 C3.68693672,4.40305249 3.1773732,4.0026315 2.585,4 C1.43440677,4 0.501666667,3.1045695 0.501666667,2 C0.501666667,0.8954305 1.43440677,6.03116967e-16 2.585,3.62376795e-16 C5.14101859,0.0109257457 7.34438378,1.72867674 7.88,4.128 L8.83333333,8.48 C8.87258379,8.66779978 9.04548965,8.80220434 9.245,8.8 L37.8333333,8.8 C38.3522252,8.80089435 38.8410801,9.03374711 39.1556991,9.42987306 C39.4703182,9.82599901 39.574803,10.3401997 39.4383333,10.8208 Z M26,13 C25.4477153,13 25,13.4477153 25,14 C25,14.5522847 25.4477153,15 26,15 L34,15 C34.5522847,15 35,14.5522847 35,14 C35,13.4477153 34.5522847,13 34,13 L26,13 Z M22,19 C21.4477153,19 21,19.4477153 21,20 C21,20.5522847 21.4477153,21 22,21 L32,21 C32.5522847,21 33,20.5522847 33,20 C33,19.4477153 32.5522847,19 32,19 L22,19 Z" id="Combined-Shape"></path>
            </g>
        </g>
    </g>
</svg>