<?xml version="1.0" encoding="UTF-8"?>
<svg width="50px" height="50px" viewBox="0 0 50 50" version="1.1" xmlns="http://www.w3.org/2000/svg" xmlns:xlink="http://www.w3.org/1999/xlink">
    <!-- Generator: Sketch 51.2 (57519) - http://www.bohemiancoding.com/sketch -->
    <title>cockpit</title>
    <desc>Created with Sketch.</desc>
    <defs></defs>
    <g id="Page-1" stroke="none" stroke-width="1" fill="none" fill-rule="evenodd">
        <g id="cockpit">
            <rect id="Rectangle-5" fill-opacity="0.01" fill="#FFFFFF" x="0" y="0" width="50" height="50"></rect>
            <g id="programming-monitor-type" transform="translate(6.000000, 5.000000)" fill="#5110B1" fill-rule="nonzero">
                <path d="M20.7368421,27.2125138 C20.7144986,27.1585969 20.7031787,27.1010044 20.7035088,27.0429231 L20.7035088,25.0078355 C20.7044619,24.7747228 20.8992055,24.5857146 21.1403509,24.5838589 C23.1333333,24.5702916 31.3157895,24.5126308 31.954386,24.5126308 C33.5746732,24.1812351 34.734621,22.7997807 34.7368421,21.1988298 L34.7368421,3.39181276 C34.7368421,1.5185663 33.1659114,1.14703264e-16 31.2280702,0 L6.66666667,0 C4.72882544,-1.14703264e-16 3.15789474,1.5185663 3.15789474,3.39181276 L3.15789474,21.1988298 C3.15873686,22.8145009 4.33839431,24.205327 5.97719298,24.5228063 C6.58245614,24.5228063 14.7649123,24.5753794 16.7578947,24.5872507 C16.9987535,24.5891134 17.1929902,24.7783897 17.1929825,25.0112273 L17.1929825,27.0564904 C17.1933693,27.1085996 17.1838548,27.1603346 17.1649123,27.209122 C17.0596491,27.4719875 16.6877193,28.4064319 16.2789474,29.3527476 C16.166323,29.6145273 16.1964925,29.9133973 16.3593445,30.1491919 C16.5221965,30.3849865 16.7961814,30.526504 17.0894737,30.5263149 L20.8631579,30.5263149 C21.1592815,30.52674 21.4356388,30.3827122 21.5980164,30.143332 C21.760394,29.9039519 21.786871,29.6015356 21.6684211,29.3391804 C21.245614,28.4013442 20.8491228,27.4736834 20.7368421,27.2125138 Z M30.3508772,3.39181276 C30.8353375,3.39181276 31.2280702,3.77145434 31.2280702,4.23976595 L31.2280702,17.807017 C31.2280702,18.2753286 30.8353375,18.6549702 30.3508772,18.6549702 L7.54385965,18.6549702 C7.05939934,18.6549702 6.66666667,18.2753286 6.66666667,17.807017 L6.66666667,4.23976595 C6.66666667,3.77145434 7.05939934,3.39181276 7.54385965,3.39181276 L30.3508772,3.39181276 Z" id="Shape"></path>
                <path d="M14.8464557,27.891934 C15.1528825,27.2962157 14.8625734,26.5907047 14.1978916,26.3157895 C11.4083021,26.4152004 8.62656019,26.6471052 5.8643865,27.0105267 C5.29915746,26.9942945 4.41508127,26.9959177 4.10348064,27.5932619 L0.407752307,33.2745243 C-0.0844476588,34.228381 -0.133013975,35.3184771 0.27276199,36.3044518 C0.678537955,37.2904265 1.50533207,38.0913072 2.57084036,38.5305037 L5.25024341,39.6375383 C6.62507434,40.2042002 8.22788421,40.1013144 9.49851936,39.3648377 C11.8826265,37.9786096 15.2522611,35.4707381 15.2522611,35.4707381 C15.720648,35.2327688 15.9154386,34.7179324 15.7051245,34.2738093 C15.4948104,33.8296862 14.9462451,33.5974523 14.4297804,33.733895 L12.2558226,34.6266648 C12.0838041,34.6976954 11.8806217,34.6653151 11.746489,34.5454945 C11.6123563,34.4256739 11.5756047,34.2437214 11.6543609,34.0893797 L14.8464557,27.891934 Z" id="Shape"></path>
                <path d="M34.8409618,27.59402 C34.5349646,26.9963214 33.645943,26.9946972 33.0810251,27.010939 C30.3203716,26.6473019 27.5401607,26.4152594 24.7521066,26.3157895 C24.0877905,26.5908678 23.7976412,27.2967975 24.1038995,27.8928694 L27.2869948,34.0939929 C27.3657077,34.2484263 27.3289763,34.4304867 27.1949174,34.5503784 C27.0608585,34.6702702 26.857788,34.7026697 26.6858642,34.6315969 L24.5131028,33.7382973 C23.9974853,33.6037676 23.4512198,33.8366327 23.2418681,34.2802063 C23.0325164,34.7237799 23.2263242,35.2377009 23.6928854,35.4761711 C23.6928854,35.4761711 27.0606655,37.9855309 29.4434605,39.3644607 C30.7133963,40.1013745 32.315324,40.2043214 33.6893983,39.6373232 L36.3709479,38.5377525 C37.4365423,38.0997312 38.2642928,37.2996684 38.6718395,36.3138242 C39.0793862,35.32798 39.033291,34.2372398 38.5437093,33.2819024 L34.8409618,27.59402 Z" id="Shape"></path>
            </g>
        </g>
    </g>
</svg>