<?xml version="1.0" encoding="UTF-8"?>
<svg width="50px" height="50px" viewBox="0 0 50 50" version="1.1" xmlns="http://www.w3.org/2000/svg" xmlns:xlink="http://www.w3.org/1999/xlink">
    <!-- Generator: Sketch 51.2 (57519) - http://www.bohemiancoding.com/sketch -->
    <title>recurring</title>
    <desc>Created with Sketch.</desc>
    <defs></defs>
    <g id="Page-1" stroke="none" stroke-width="1" fill="none" fill-rule="evenodd">
        <g id="recurring">
            <rect id="Rectangle-5" fill-opacity="0.01" fill="#FFFFFF" x="0" y="0" width="50" height="50"></rect>
            <g id="credit-card-sync" transform="translate(5.000000, 7.000000)" fill="#5110B1" fill-rule="nonzero">
                <path d="M28.3783333,4.875 C28.4034695,4.87501604 28.4241023,4.85512017 28.425,4.83 L28.425,4.32 C28.4351626,2.10921032 26.6540913,0.307264182 24.4433333,0.291666667 L3.98166667,0.291666667 C2.91905436,0.296510287 1.90203983,0.723971295 1.15504195,1.47972427 C0.408044081,2.23547724 -0.00753795447,3.25740339 -1.35525272e-20,4.32 L-1.35525272e-20,4.83333333 C3.02221356e-18,4.85818615 0.0201471863,4.87833333 0.045,4.87833333 L28.3783333,4.875 Z" id="Shape"></path>
                <path d="M28.0433333,11.1766667 C28.2590441,11.1584827 28.4248992,10.9781425 28.425,10.7616667 L28.425,7.42833333 C28.4241023,7.40321316 28.4034695,7.3833173 28.3783333,7.38333333 L0.045,7.38333333 C0.0230682906,7.38295455 0.00405876267,7.3984438 3.49926251e-17,7.42 L3.49926251e-17,17.0966667 C-0.00753795447,18.1592633 0.408044081,19.1811894 1.15504195,19.9369424 C1.90203983,20.6926954 2.91905436,21.1201564 3.98166667,21.125 L15.9816667,21.125 C16.1682117,21.124755 16.3320522,21.0010248 16.3833333,20.8216667 C17.8925208,15.4989261 22.5320307,11.661184 28.0433333,11.1766667 Z M5.555,14.0416667 L10.2766667,14.0416667 C10.9670226,14.0416667 11.5266667,14.6013107 11.5266667,15.2916667 C11.5266667,15.9820226 10.9670226,16.5416667 10.2766667,16.5416667 L5.555,16.5416667 C4.86464406,16.5416667 4.305,15.9820226 4.305,15.2916667 C4.305,14.6013107 4.86464406,14.0416667 5.555,14.0416667 Z" id="Shape"></path>
                <path d="M29.3533333,35.7083333 C33.7053004,35.7093921 37.5766237,32.9438742 38.9866667,28.8266667 C39.2849004,27.9554375 38.8203958,27.0074005 37.9491666,26.7091667 C37.0779375,26.410933 36.1299005,26.8754375 35.8316667,27.7466667 C35.0478616,30.0382303 33.1112035,31.7448301 30.7392467,32.2341511 C28.3672899,32.723472 25.91336,31.9226251 24.2866667,30.1283333 C24.1360402,29.9641623 24.1419258,29.710346 24.3,29.5533333 L27.185,26.6666667 C27.4227685,26.4281533 27.4935988,26.0699693 27.3645073,25.75891 C27.2354159,25.4478507 26.9317825,25.2450713 26.595,25.245 L19.1666667,25.245 C18.7064294,25.245 18.3333333,25.618096 18.3333333,26.0783333 L18.3333333,33.5066667 C18.333405,33.843878 18.5366944,34.1478093 18.8483322,34.2766245 C19.1599701,34.4054397 19.5185238,34.3337457 19.7566667,34.095 L21.3533333,32.4983333 C21.4320429,32.4178043 21.5398939,32.3724074 21.6525,32.3724074 C21.7651061,32.3724074 21.8729571,32.4178043 21.9516667,32.4983333 C23.8727855,34.5402256 26.5497694,35.7011964 29.3533333,35.7083333 Z" id="Shape"></path>
                <path d="M36.87,17.2166667 C36.7918103,17.2975263 36.6841474,17.343184 36.5716667,17.343184 C36.459186,17.343184 36.351523,17.2975263 36.2733333,17.2166667 C33.8244785,14.6339301 30.2033236,13.5198303 26.7261766,14.2793483 C23.2490297,15.0388663 20.4222299,17.5614016 19.2733333,20.93 C18.9750996,21.8012292 19.4396041,22.7492662 20.3108333,23.0475 C21.1820625,23.3457338 22.1300996,22.8812292 22.4283333,22.01 C23.2060144,19.7271204 25.1294786,18.0232328 27.4894967,17.5266029 C29.8495149,17.029973 32.2965553,17.8141544 33.9283333,19.59 C34.0802798,19.7544004 34.0758726,20.0092843 33.9183333,20.1683333 L31.15,22.9383333 C30.9124442,23.1766317 30.8415069,23.5344129 30.9701715,23.8453218 C31.098836,24.1562307 31.401854,24.3592566 31.7383333,24.36 L39.1666667,24.36 C39.626904,24.36 40,23.986904 40,23.5266667 L40,16.0983333 C39.9994539,15.8251739 39.8650696,15.5696254 39.6403241,15.4143649 C39.4155787,15.2591043 39.1290108,15.2238472 38.8733333,15.32 C38.7618706,15.3611395 38.6606556,15.4259626 38.5766667,15.51 L36.87,17.2166667 Z" id="Shape"></path>
            </g>
        </g>
    </g>
</svg>