<?xml version="1.0" encoding="UTF-8"?>
<svg width="50px" height="50px" viewBox="0 0 50 50" version="1.1" xmlns="http://www.w3.org/2000/svg" xmlns:xlink="http://www.w3.org/1999/xlink">
    <!-- Generator: Sketch 51.2 (57519) - http://www.bohemiancoding.com/sketch -->
    <title>revenue-recognition</title>
    <desc>Created with Sketch.</desc>
    <defs></defs>
    <g id="Page-1" stroke="none" stroke-width="1" fill="none" fill-rule="evenodd">
        <g id="revenue-recognition">
            <rect id="Rectangle-5" fill-opacity="0.01" fill="#FFFFFF" x="0" y="0" width="50" height="50"></rect>
            <g id="accounting-document" transform="translate(10.000000, 6.000000)" fill="#5110B1" fill-rule="nonzero">
                <path d="M30.3195426,9.26883333 L21.9262946,0.695083333 C21.4893881,0.251744917 20.8991226,0.00202864668 20.283295,0 L2.32499943,0 C1.0409377,-8.03170079e-17 0,1.06332372 0,2.375 L0,35.625 C0,36.9366763 1.0409377,38 2.32499943,38 L30.2249926,38 C30.6530132,38 30.9999924,37.6455588 30.9999924,37.2083333 L30.9999924,10.9471667 C31.0015744,10.3173699 30.7565728,9.71307195 30.3195426,9.26883333 Z M12.116347,17.7064167 L6.89284831,15.7114167 C5.43297202,15.0003006 4.5445234,13.4523764 4.64999886,11.80375 C4.63601739,9.7289101 6.17590378,7.98685609 8.19794799,7.79 C8.38666279,7.76023346 8.52570068,7.5939732 8.52499791,7.39891667 L8.52499791,6.33333333 C8.52499791,5.45888248 9.21895637,4.75 10.0749975,4.75 C10.9310387,4.75 11.6249971,5.45888248 11.6249971,6.33333333 L11.6249971,7.32291667 C11.6249971,7.54152938 11.7984868,7.71875 12.012497,7.71875 L13.9499966,7.71875 C14.8060377,7.71875 15.4999962,8.42763248 15.4999962,9.30208333 C15.4999962,10.1765342 14.8060377,10.8854167 13.9499966,10.8854167 L9.10624776,10.8854167 C7.7499981,10.8854167 7.7499981,11.57575 7.7499981,11.80375 C7.72538171,12.1513129 7.82629258,12.4960429 8.03364803,12.77275 L13.2571467,14.76775 C14.7197812,15.4799535 15.6087436,17.0319108 15.4999962,18.6833333 C15.5099494,20.7551443 13.9711136,22.4925761 11.9520471,22.6891667 C11.7633323,22.7189332 11.6242944,22.8851935 11.6249971,23.08025 L11.6249971,24.1458333 C11.6249971,25.0202842 10.9310387,25.7291667 10.0749975,25.7291667 C9.21895637,25.7291667 8.52499791,25.0202842 8.52499791,24.1458333 L8.52499791,23.15625 C8.52499791,22.9376373 8.35150829,22.7604167 8.137498,22.7604167 L6.19999848,22.7604167 C5.34395733,22.7604167 4.64999886,22.0515342 4.64999886,21.1770833 C4.64999886,20.3026325 5.34395733,19.59375 6.19999848,19.59375 L11.0437473,19.59375 C12.399997,19.59375 12.399997,18.9034167 12.399997,18.6754167 C12.4246133,18.3278537 12.3237025,17.9831237 12.116347,17.7064167 Z M25.5749937,23.3541667 C26.2170246,23.3541667 26.7374934,23.8858285 26.7374934,24.5416667 C26.7374934,25.1975048 26.2170246,25.7291667 25.5749937,25.7291667 L17.8249956,25.7291667 C17.1829648,25.7291667 16.6624959,25.1975048 16.6624959,24.5416667 C16.6624959,23.8858285 17.1829648,23.3541667 17.8249956,23.3541667 L25.5749937,23.3541667 Z M19.7624951,17.4166667 C19.7624951,16.7608285 20.282964,16.2291667 20.9249949,16.2291667 L25.5749937,16.2291667 C26.2170246,16.2291667 26.7374934,16.7608285 26.7374934,17.4166667 C26.7374934,18.0725048 26.2170246,18.6041667 25.5749937,18.6041667 L20.9249949,18.6041667 C20.282964,18.6041667 19.7624951,18.0725048 19.7624951,17.4166667 Z M25.5749937,30.4791667 C26.2170246,30.4791667 26.7374934,31.0108285 26.7374934,31.6666667 C26.7374934,32.3225048 26.2170246,32.8541667 25.5749937,32.8541667 L10.0749975,32.8541667 C9.43296666,32.8541667 8.91249781,32.3225048 8.91249781,31.6666667 C8.91249781,31.0108285 9.43296666,30.4791667 10.0749975,30.4791667 L25.5749937,30.4791667 Z" id="Shape"></path>
            </g>
        </g>
    </g>
</svg>