<?xml version="1.0" encoding="UTF-8"?>
<svg width="50px" height="50px" viewBox="0 0 50 50" version="1.1" xmlns="http://www.w3.org/2000/svg" xmlns:xlink="http://www.w3.org/1999/xlink">
    <!-- Generator: Sketch 51.2 (57519) - http://www.bohemiancoding.com/sketch -->
    <title>workflow</title>
    <desc>Created with Sketch.</desc>
    <defs></defs>
    <g id="Page-1" stroke="none" stroke-width="1" fill="none" fill-rule="evenodd">
        <g id="workflow">
            <rect id="Rectangle-5" fill-opacity="0.01" fill="#FFFFFF" x="0" y="0" width="50" height="50"></rect>
            <g id="module-three-2" transform="translate(5.000000, 5.000000)" fill="#5110B1" fill-rule="nonzero">
                <path d="M20.5,20.605 L12.1666667,17.8333333 C11.571214,17.6376902 10.928786,17.6376902 10.3333333,17.8333333 L2,20.61 C0.80739772,21.0037302 0.00135064614,22.1174186 3.23445037e-16,23.3733333 L3.23445037e-16,34.305 C-0.000607079426,35.5623107 0.805909854,36.6779925 2,37.0716667 L10.3333333,39.85 C10.9283854,40.0481296 11.5716146,40.0481296 12.1666667,39.85 L20.5,37.0733333 C21.6940272,36.6785845 22.5002859,35.5625879 22.5,34.305 L22.5,23.3733333 C22.474882,22.1241015 21.6781144,21.0212423 20.5,20.605 Z M11.1166667,20.2 C11.1595924,20.1853951 11.2046585,20.1780719 11.25,20.1783333 C11.2946553,20.1782023 11.3390645,20.184948 11.3816667,20.1983333 L16.1216667,21.7783333 C16.2913736,21.8353087 16.4057207,21.9943176 16.4057207,22.1733333 C16.4057207,22.3523491 16.2913736,22.5113579 16.1216667,22.5683333 C14.4333333,23.14 11.455,24.1516667 10.7883333,24.3816667 C10.7013992,24.4116357 10.6069341,24.4116357 10.52,24.3816667 L5.725,22.7833333 C5.55401061,22.7271318 5.43843746,22.5674888 5.43843746,22.3875 C5.43843746,22.2075112 5.55401061,22.0478682 5.725,21.9916667 L11.1166667,20.2 Z M19.715,34.7 L12.6316667,37.0616667 C12.5046645,37.1039669 12.3650727,37.0826731 12.2564584,37.0044312 C12.1478441,36.9261893 12.0834349,36.800528 12.0833333,36.6666667 L12.0833333,26.845 C12.0834694,26.6657336 12.1982526,26.5066481 12.3683333,26.45 L19.4516667,24.0883333 C19.5789157,24.0467296 19.7183904,24.0685422 19.8268612,24.1470105 C19.935332,24.2254788 19.9996946,24.3511228 20,24.485 L20,34.305 C19.9998639,34.4842664 19.8850807,34.6433519 19.715,34.7 Z" id="Shape"></path>
                <path d="M31.5283333,16.5666667 C32.6071682,16.2091655 33.3349176,15.1998584 33.3333333,14.0633333 L33.3333333,4.955 C33.3101231,3.82738422 32.5913604,2.83186804 31.5283333,2.455 L24.5816667,0.133333333 C24.0403802,-0.0447368548 23.4562865,-0.0447368548 22.915,0.133333333 L15.9716667,2.45166667 C14.8925081,2.80872653 14.1645614,3.81830718 14.1666667,4.955 L14.1666667,14.0633333 C14.1675567,15.1982963 14.8946419,16.2053396 15.9716667,16.5633333 L22.9166667,18.88 C23.4579532,19.0580702 24.0420468,19.0580702 24.5833333,18.88 L31.5283333,16.5666667 Z M25.13,16.0416667 C25.003207,16.0833049 24.8641412,16.0616888 24.7559695,15.9835281 C24.6477978,15.9053675 24.5836111,15.7801212 24.5833333,15.6466667 L24.5833333,8.07 C24.5834694,7.89073363 24.6982526,7.73164814 24.8683333,7.675 L30.2716667,5.875 C30.3992042,5.83164749 30.5398835,5.85343412 30.6483333,5.93333333 C30.7552006,6.01412316 30.8171152,6.14104798 30.815,6.275 L30.7366667,13.8983333 C30.7351788,14.0765389 30.6196393,14.2337263 30.45,14.2883333 L25.13,16.0416667 Z M23.7966667,2.50666667 L26.9633333,3.56166667 C27.1330403,3.61864207 27.2473874,3.77765092 27.2473874,3.95666667 C27.2473874,4.13568241 27.1330403,4.29469127 26.9633333,4.35166667 C25.7033333,4.78 23.8116667,5.42666667 23.2966667,5.60666667 C23.2091614,5.63663496 23.1141719,5.63663496 23.0266667,5.60666667 L19.9183333,4.57 C19.7486264,4.5130246 19.6342793,4.35401574 19.6342793,4.175 C19.6342793,3.99598426 19.7486264,3.8369754 19.9183333,3.78 L23.7966667,2.50666667 Z" id="Shape"></path>
                <path d="M38.385,21.14 L32.8333333,19.2866667 C32.3495442,19.1267184 31.8271224,19.1267184 31.3433333,19.2866667 L25.7866667,21.14 C24.8224158,21.4610475 24.1722855,22.3637077 24.1733333,23.38 L24.1733333,30.6666667 C24.1720043,31.6835692 24.8231007,32.5866378 25.7883333,32.9066667 L31.3333333,34.76 C31.8174983,34.9211504 32.340835,34.9211504 32.825,34.76 L38.38,32.91 C39.3477291,32.5904444 40.0010152,31.6857909 40,30.6666667 L40,23.38 C39.9799316,22.3701164 39.3368127,21.4781126 38.385,21.14 Z M32.0383333,21.6666667 L33.63,22.1966667 C33.7997069,22.2536421 33.914054,22.4126509 33.914054,22.5916667 C33.914054,22.7706824 33.7997069,22.9296913 33.63,22.9866667 C32.87,23.2483333 31.9633333,23.5633333 31.6216667,23.685 C31.5337425,23.7158729 31.4379242,23.7158729 31.35,23.685 L29.865,23.185 C29.6952931,23.1280246 29.580946,22.9690157 29.580946,22.79 C29.580946,22.6109843 29.6952931,22.4519754 29.865,22.395 L32.0383333,21.6666667 Z M33.4666667,31.9433333 C33.3394569,31.9862998 33.1993371,31.9653308 33.0902784,31.8870069 C32.9812197,31.8086829 32.9165885,31.6826033 32.9166667,31.5483333 L32.9166667,25.8416667 L36.9716667,24.4883333 C37.0978079,24.447068 37.2360469,24.4681072 37.3442004,24.5450309 C37.4523539,24.6219547 37.5175892,24.7456358 37.52,24.8783333 L37.59,30.2333333 C37.5933369,30.4143252 37.4785129,30.5764296 37.3066667,30.6333333 L33.4666667,31.9433333 Z" id="Shape"></path>
            </g>
        </g>
    </g>
</svg>