<?xml version="1.0" encoding="UTF-8"?>
<svg width="50px" height="44px" viewBox="0 0 50 44" version="1.1" xmlns="http://www.w3.org/2000/svg" xmlns:xlink="http://www.w3.org/1999/xlink">
    <!-- Generator: Sketch 45.2 (43514) - http://www.bohemiancoding.com/sketch -->
    <title>left-quote copy</title>
    <desc>Created with Sketch.</desc>
    <defs></defs>
    <g id="Mockups---Grow" stroke="none" stroke-width="1" fill="none" fill-rule="evenodd" fill-opacity="0.300000012">
        <g id="Grow_Tab_Pricing" transform="translate(-151.000000, -2995.000000)" fill-rule="nonzero" fill="#FF6C36">
            <g id="Group-12" transform="translate(133.000000, 2706.000000)">
                <g id="Group-11" transform="translate(18.000000, 189.000000)">
                    <g id="left-quote-copy" transform="translate(0.000000, 100.000000)">
                        <path d="M15.8916667,19.7616049 C14.66875,19.3999588 13.4458333,19.2164609 12.25625,19.2164609 C10.4192708,19.2164609 8.88645833,19.6476543 7.69791667,20.175679 C8.84375,15.8669547 11.5963542,8.43234568 17.0796875,7.59510288 C17.5875,7.51753086 18.0036458,7.14037037 18.1421875,6.6326749 L19.340625,2.22979424 C19.4416667,1.85744856 19.3817708,1.45888889 19.175,1.13576132 C18.9682292,0.812633745 18.6359375,0.597037037 18.2635417,0.544609053 C17.8588542,0.487901235 17.4463542,0.459012346 17.0375,0.459012346 C10.4557292,0.459012346 3.9375,7.51539095 1.18697917,17.6190123 C-0.427604167,23.5465844 -0.901041667,32.4582716 3.07604167,38.0675309 C5.3015625,41.2062551 8.5484375,42.8823457 12.7265625,43.0497942 C12.74375,43.0503292 12.7604167,43.0508642 12.7776042,43.0508642 C17.9328125,43.0508642 22.5041667,39.4846914 23.8947917,34.3793827 C24.7255208,31.3273251 24.35,28.1265432 22.8364583,25.3644444 C21.3390625,22.6333745 18.8729167,20.642716 15.8916667,19.7616049 Z" id="Shape"></path>
                        <path d="M48.1619792,25.3649794 C46.6645833,22.6333745 44.1984375,20.642716 41.2171875,19.7616049 C39.9942708,19.3999588 38.7713542,19.2164609 37.5822917,19.2164609 C35.7453125,19.2164609 34.2119792,19.6476543 33.0234375,20.175679 C34.1692708,15.8669547 36.921875,8.43234568 42.4057292,7.59510288 C42.9135417,7.51753086 43.3291667,7.14037037 43.4682292,6.6326749 L44.6666667,2.22979424 C44.7677083,1.85744856 44.7078125,1.45888889 44.5010417,1.13576132 C44.2947917,0.812633745 43.9625,0.597037037 43.5895833,0.544609053 C43.1854167,0.487901235 42.7729167,0.459012346 42.3635417,0.459012346 C35.7817708,0.459012346 29.2635417,7.51539095 26.5125,17.6190123 C24.8984375,23.5465844 24.425,32.4582716 28.4026042,38.0686008 C30.6276042,41.2067901 33.875,42.8834156 38.0526042,43.0503292 C38.0697917,43.0508642 38.0864583,43.0513992 38.1041667,43.0513992 C43.2588542,43.0513992 47.8307292,39.4852263 49.2213542,34.3799177 C50.0510417,31.3278601 49.675,28.1265432 48.1619792,25.3649794 Z" id="Shape"></path>
                    </g>
                </g>
            </g>
        </g>
    </g>
</svg>