<?xml version="1.0" encoding="UTF-8" standalone="no"?>
<svg width="48px" height="37px" viewBox="0 0 48 37" version="1.1" xmlns="http://www.w3.org/2000/svg" xmlns:xlink="http://www.w3.org/1999/xlink">
    <!-- Generator: Sketch 39.1 (31720) - http://www.bohemiancoding.com/sketch -->
    <title>“</title>
    <desc>Created with Sketch.</desc>
    <defs></defs>
    <g id="Page-2" stroke="none" stroke-width="1" fill="none" fill-rule="evenodd">
        <g id="freshdesk1" transform="translate(-756.000000, -3174.000000)" fill="#B4AAFA">
            <g id="Group-6" transform="translate(328.000000, 2119.000000)">
                <g id="Group-11" transform="translate(428.000000, 1050.000000)">
                    <path d="M45.6597235,5 L45.6597235,7.70862767 C41.8270883,9.1090136 38.8236741,11.3109032 36.6493907,14.3143625 C34.4751073,17.3178218 33.3879818,20.4410041 33.3879818,23.6840031 C33.3879818,24.3841961 33.498537,24.90012 33.7196505,25.2317903 C33.8670596,25.4529039 34.0328923,25.563459 34.2171536,25.563459 C34.4014149,25.563459 34.6778027,25.434478 35.0463253,25.1765122 C36.2255977,24.3289102 37.7180919,23.9051156 39.5238527,23.9051156 C41.6244316,23.9051156 43.4854429,24.7619178 45.1069424,26.4755479 C46.7284419,28.1891781 47.5391795,30.225235 47.5391795,32.5837797 C47.5391795,35.0528812 46.6086738,37.227132 44.7476346,39.1065974 C42.8865954,40.9860627 40.6294283,41.9257812 37.9760654,41.9257812 C34.8804755,41.9257812 32.2087266,40.6543973 29.9607387,38.1115913 C27.7127507,35.5687852 26.5887736,32.1600022 26.5887736,27.8851399 C26.5887736,22.9100846 28.1181195,18.4510279 31.1768572,14.5078359 C34.2355949,10.5646439 39.0631687,7.39539699 45.6597235,5 L45.6597235,5 Z M19.0709499,5 L19.0709499,7.70862767 C15.2383147,9.1090136 12.2349005,11.3109032 10.060617,14.3143625 C7.88633363,17.3178218 6.79920822,20.4410041 6.79920822,23.6840031 C6.79920822,24.3841961 6.90976335,24.90012 7.13087692,25.2317903 C7.27828596,25.4529039 7.44411865,25.563459 7.62837996,25.563459 C7.81264127,25.563459 8.08902908,25.434478 8.45755169,25.1765122 C9.63682406,24.3289102 11.1293183,23.9051156 12.9350791,23.9051156 C15.035658,23.9051156 16.8966692,24.7619178 18.5181687,26.4755479 C20.1396682,28.1891781 20.9504058,30.225235 20.9504058,32.5837797 C20.9504058,35.0528812 20.0199002,37.227132 18.158861,39.1065974 C16.2978218,40.9860627 14.0406546,41.9257812 11.3872918,41.9257812 C8.29170187,41.9257812 5.619953,40.6543973 3.37196505,38.1115913 C1.12397711,35.5687852 0,32.1600022 0,27.8851399 C0,22.9100846 1.52934591,18.4510279 4.5880836,14.5078359 C7.64682129,10.5646439 12.4743951,7.39539699 19.0709499,5 L19.0709499,5 Z" id="“"></path>
                </g>
            </g>
        </g>
    </g>
</svg>