<?xml version="1.0" encoding="UTF-8"?>
<svg width="174px" height="105px" viewBox="0 0 174 105" version="1.1" xmlns="http://www.w3.org/2000/svg" xmlns:xlink="http://www.w3.org/1999/xlink">
    <!-- Generator: Sketch 53.2 (72643) - https://sketchapp.com -->
    <title>Group</title>
    <desc>Created with Sketch.</desc>
    <g id="Page-1" stroke="none" stroke-width="1" fill="none" fill-rule="evenodd">
        <g id="Artboard" transform="translate(-632.000000, -802.000000)">
            <g id="Group" transform="translate(632.800000, 802.840000)">
                <path d="M9.09494702e-13,0.16 L10.4,0.16 L10.4,3.82 L8.92,3.82 L8.92,1.64 L6.02,1.64 L6.02,12.68 L8.22,12.68 L8.22,14.16 L2.16,14.16 L2.16,12.68 L4.36,12.68 L4.36,1.64 L1.48,1.64 L1.48,3.82 L9.09494702e-13,3.82 L9.09494702e-13,0.16 Z M11.72,14.16 L11.72,12.82 L14.42,12.82 L14.42,5.5 L11.72,5.5 L11.72,4.16 L15.46,4.16 L15.78,5.46 L15.88,5.46 C16.3333356,5.0466646 16.8399972,4.6933348 17.4,4.4 C17.9600028,4.1066652 18.6266628,3.96 19.4,3.96 C19.8533356,3.96 20.2166653,4.0466658 20.49,4.22 C20.7633347,4.3933342 20.9766659,4.646665 21.13,4.98 C21.2833341,5.313335 21.3866664,5.7166643 21.44,6.19 C21.4933336,6.6633357 21.52,7.199997 21.52,7.8 L20.12,7.82 C20.12,6.9666624 20.0366675,6.340002 19.87,5.94 C19.7033325,5.539998 19.4000022,5.34 18.96,5.34 C18.5466646,5.34 18.173335,5.3999994 17.84,5.52 C17.506665,5.6400006 17.2166679,5.7866658 16.97,5.96 C16.7233321,6.1333342 16.5133342,6.3066658 16.34,6.48 C16.1666658,6.6533342 16.0400004,6.7999994 15.96,6.92 L15.96,12.82 L19.8,12.82 L19.8,14.16 L11.72,14.16 Z M27.82,12.62 L28.58,12.62 L31.06,4.16 L32.68,4.16 L29.9,13.14 C29.7533326,13.606669 29.6033341,14.1366637 29.45,14.73 C29.2966659,15.3233363 29.0800014,15.8799974 28.8,16.4 C28.5199986,16.9200026 28.1400024,17.3599982 27.66,17.72 C27.1799976,18.0800018 26.5533372,18.26 25.78,18.26 C25.6066658,18.26 25.4233343,18.2400002 25.23,18.2 C25.0366657,18.1599998 24.8466676,18.1100003 24.66,18.05 C24.4733324,17.9899997 24.3000008,17.9200004 24.14,17.84 C23.9799992,17.7599996 23.8600004,17.6800004 23.78,17.6 L24.34,16.16 C24.4200004,16.226667 24.5299993,16.293333 24.67,16.36 C24.8100007,16.426667 24.9633325,16.4833331 25.13,16.53 C25.2966675,16.5766669 25.4599992,16.6166665 25.62,16.65 C25.7800008,16.6833335 25.9133328,16.7 26.02,16.7 C27.020005,16.7 27.6999982,15.8533418 28.06,14.16 L26.72,14.16 L22.52,4.16 L24.32,4.16 L27.82,12.62 Z M46.1,14.16 L46.1,12.82 L49.58,12.82 L49.58,5.5 L46.1,5.5 L46.1,4.16 L51.18,4.16 L51.18,12.82 L54.58,12.82 L54.58,14.16 L46.1,14.16 Z M49.04,1.32 C49.04,0.9599982 49.1599988,0.6500013 49.4,0.39 C49.6400012,0.1299987 49.9466648,0 50.32,0 C50.7066686,0 51.0299987,0.1299987 51.29,0.39 C51.5500013,0.6500013 51.68,0.9599982 51.68,1.32 C51.68,1.6666684 51.5500013,1.9599988 51.29,2.2 C51.0299987,2.4400012 50.7066686,2.56 50.32,2.56 C49.9466648,2.56 49.6400012,2.4400012 49.4,2.2 C49.1599988,1.9599988 49.04,1.6666684 49.04,1.32 Z M55.8199999,4.16 L58.1999999,4.16 L58.1999999,2.18 L59.7599999,1.74 L59.7599999,4.16 L65.0999999,4.16 L65.0999999,5.5 L59.7599999,5.5 L59.7599999,10.22 C59.7599999,11.1933382 59.9966642,11.913331 60.4699999,12.38 C60.9433356,12.846669 61.6199955,13.08 62.4999999,13.08 C63.1000029,13.08 63.623331,12.9666678 64.0699999,12.74 C64.5166688,12.5133322 64.9199981,12.266668 65.2799999,12 L65.7999999,13.18 C65.3333309,13.5533352 64.7766698,13.8533322 64.1299999,14.08 C63.48333,14.3066678 62.8200033,14.42 62.1399999,14.42 C61.6066639,14.42 61.1033356,14.3433341 60.6299999,14.19 C60.1566642,14.0366659 59.7400017,13.8000016 59.3799999,13.48 C59.0199981,13.1599984 58.7333343,12.7500025 58.5199999,12.25 C58.3066655,11.7499975 58.1999999,11.1533368 58.1999999,10.46 L58.1999999,5.5 L55.8199999,5.5 L55.8199999,4.16 Z M83.8199999,12.62 L84.5799999,12.62 L87.0599999,4.16 L88.6799999,4.16 L85.8999999,13.14 C85.7533325,13.606669 85.603334,14.1366637 85.4499999,14.73 C85.2966658,15.3233363 85.0800013,15.8799974 84.7999999,16.4 C84.5199985,16.9200026 84.1400023,17.3599982 83.6599999,17.72 C83.1799975,18.0800018 82.5533371,18.26 81.7799999,18.26 C81.6066657,18.26 81.4233342,18.2400002 81.2299999,18.2 C81.0366656,18.1599998 80.8466675,18.1100003 80.6599999,18.05 C80.4733323,17.9899997 80.3000007,17.9200004 80.1399999,17.84 C79.9799991,17.7599996 79.8600003,17.6800004 79.7799999,17.6 L80.3399999,16.16 C80.4200003,16.226667 80.5299992,16.293333 80.6699999,16.36 C80.8100006,16.426667 80.9633324,16.4833331 81.1299999,16.53 C81.2966674,16.5766669 81.4599991,16.6166665 81.6199999,16.65 C81.7800007,16.6833335 81.9133327,16.7 82.0199999,16.7 C83.0200049,16.7 83.6999981,15.8533418 84.0599999,14.16 L82.7199999,14.16 L78.5199999,4.16 L80.3199999,4.16 L83.8199999,12.62 Z M89.9399999,9.16 C89.9399999,7.5466586 90.3599957,6.2700047 91.1999999,5.33 C92.0400041,4.3899953 93.2399921,3.92 94.7999999,3.92 C95.6400041,3.92 96.3633302,4.0566653 96.9699999,4.33 C97.5766696,4.6033347 98.0799979,4.973331 98.4799999,5.44 C98.8800019,5.906669 99.1766656,6.4599968 99.3699999,7.1 C99.5633342,7.7400032 99.6599999,8.426663 99.6599999,9.16 C99.6599999,9.960004 99.5533343,10.6833301 99.3399999,11.33 C99.1266655,11.9766699 98.8133353,12.5266644 98.3999999,12.98 C97.9866645,13.4333356 97.4766696,13.7833321 96.8699999,14.03 C96.2633302,14.2766679 95.5733371,14.4 94.7999999,14.4 C93.9733291,14.4 93.2533363,14.2633347 92.6399999,13.99 C92.0266635,13.7166653 91.5200019,13.346669 91.1199999,12.88 C90.7199979,12.413331 90.4233342,11.8600032 90.2299999,11.22 C90.0366656,10.5799968 89.9399999,9.893337 89.9399999,9.16 Z M91.5999999,9.16 C91.5999999,9.626669 91.656666,10.093331 91.7699999,10.56 C91.8833338,11.026669 92.0666653,11.4466648 92.3199999,11.82 C92.5733345,12.1933352 92.9033312,12.4933322 93.3099999,12.72 C93.7166686,12.9466678 94.2133303,13.06 94.7999999,13.06 C95.8666719,13.06 96.6699972,12.7300033 97.2099999,12.07 C97.7500026,11.4099967 98.0199999,10.4400064 98.0199999,9.16 C98.0199999,8.6799976 97.9633338,8.2100023 97.8499999,7.75 C97.736666,7.2899977 97.5500012,6.8733352 97.2899999,6.5 C97.0299986,6.1266648 96.6966686,5.8266678 96.2899999,5.6 C95.8833312,5.3733322 95.3866695,5.26 94.7999999,5.26 C93.7333279,5.26 92.9333359,5.5866634 92.3999999,6.24 C91.8666639,6.8933366 91.5999999,7.8666602 91.5999999,9.16 Z M107.26,4.16 L110.1,4.16 L110.1,10.98 C110.1,11.6333366 110.139999,12.259997 110.22,12.86 L111.56,12.86 L111.56,14.16 L108.9,14.16 L108.84,12.46 L108.76,12.46 C108.413331,13.0333362 107.953336,13.4999982 107.38,13.86 C106.806664,14.2200018 106.113337,14.4 105.3,14.4 C104.686663,14.4 104.163335,14.3300007 103.73,14.19 C103.296664,14.0499993 102.940001,13.8066684 102.66,13.46 C102.379998,13.1133316 102.173334,12.6500029 102.04,12.07 C101.906666,11.4899971 101.84,10.766671 101.84,9.9 L101.84,5.5 L100.5,5.5 L100.5,4.16 L103.4,4.16 L103.4,9.58 C103.4,10.1266694 103.423333,10.6166645 103.47,11.05 C103.516667,11.4833355 103.613332,11.8499985 103.76,12.15 C103.906667,12.4500015 104.123332,12.6766659 104.41,12.83 C104.696668,12.9833341 105.079997,13.06 105.56,13.06 C106.253337,13.06 106.856664,12.8333356 107.37,12.38 C107.883336,11.9266644 108.273332,11.3600034 108.54,10.68 L108.54,5.5 L107.26,5.5 L107.26,4.16 Z M112.52,14.16 L112.52,12.82 L115.22,12.82 L115.22,5.5 L112.52,5.5 L112.52,4.16 L116.26,4.16 L116.58,5.46 L116.68,5.46 C117.133335,5.0466646 117.639997,4.6933348 118.2,4.4 C118.760003,4.1066652 119.426663,3.96 120.2,3.96 C120.653335,3.96 121.016665,4.0466658 121.29,4.22 C121.563335,4.3933342 121.776666,4.646665 121.93,4.98 C122.083334,5.313335 122.186666,5.7166643 122.24,6.19 C122.293333,6.6633357 122.32,7.199997 122.32,7.8 L120.92,7.82 C120.92,6.9666624 120.836667,6.340002 120.67,5.94 C120.503332,5.539998 120.200002,5.34 119.76,5.34 C119.346664,5.34 118.973335,5.3999994 118.64,5.52 C118.306665,5.6400006 118.016668,5.7866658 117.77,5.96 C117.523332,6.1333342 117.313334,6.3066658 117.14,6.48 C116.966666,6.6533342 116.84,6.7999994 116.76,6.92 L116.76,12.82 L120.6,12.82 L120.6,14.16 L112.52,14.16 Z M131.16,11.46 C131.16,11.0333312 130.993335,10.7033345 130.66,10.47 C130.326665,10.2366655 129.913336,10.0500007 129.42,9.91 C128.926664,9.7699993 128.390003,9.6400006 127.81,9.52 C127.229997,9.3999994 126.693336,9.240001 126.2,9.04 C125.706664,8.839999 125.293335,8.5700017 124.96,8.23 C124.626665,7.8899983 124.46,7.4133364 124.46,6.8 C124.46,6.2933308 124.569999,5.8600018 124.79,5.5 C125.010001,5.1399982 125.299998,4.8433345 125.66,4.61 C126.020002,4.3766655 126.439997,4.2033339 126.92,4.09 C127.400002,3.9766661 127.899997,3.92 128.42,3.92 C129.353338,3.92 130.156663,4.0366655 130.83,4.27 C131.503337,4.5033345 132.039998,4.7466654 132.44,5 L131.8,6.26 C131.359998,6.0199988 130.883336,5.7900011 130.37,5.57 C129.856664,5.3499989 129.213337,5.24 128.44,5.24 C128.146665,5.24 127.856668,5.2699997 127.57,5.33 C127.283332,5.3900003 127.023334,5.4799994 126.79,5.6 C126.556665,5.7200006 126.370001,5.8766657 126.23,6.07 C126.089999,6.2633343 126.02,6.4999986 126.02,6.78 C126.02,7.1266684 126.186665,7.3933324 126.52,7.58 C126.853335,7.7666676 127.266664,7.9233327 127.76,8.05 C128.253336,8.1766673 128.789997,8.2966661 129.37,8.41 C129.950003,8.5233339 130.486664,8.6866656 130.98,8.9 C131.473336,9.1133344 131.886665,9.3999982 132.22,9.76 C132.553335,10.1200018 132.72,10.6066636 132.72,11.22 C132.72,12.1400046 132.35667,12.899997 131.63,13.5 C130.90333,14.100003 129.81334,14.4 128.36,14.4 C127.919998,14.4 127.486669,14.3600004 127.06,14.28 C126.633331,14.1999996 126.233335,14.093334 125.86,13.96 C125.486665,13.826666 125.146668,13.6766675 124.84,13.51 C124.533332,13.3433325 124.280001,13.1733342 124.08,13 L124.88,11.7 C125.040001,11.8600008 125.253332,12.0233325 125.52,12.19 C125.786668,12.3566675 126.079998,12.506666 126.4,12.64 C126.720001,12.773334 127.063331,12.8799996 127.43,12.96 C127.796668,13.0400004 128.166665,13.08 128.54,13.08 C128.900002,13.08 129.236665,13.0500003 129.55,12.99 C129.863335,12.9299997 130.139999,12.8366673 130.38,12.71 C130.620001,12.5833327 130.809999,12.4166677 130.95,12.21 C131.090001,12.0033323 131.16,11.7533348 131.16,11.46 Z M144.18,12.9 C143.939999,13.1133344 143.656668,13.3133324 143.33,13.5 C143.003332,13.6866676 142.646668,13.846666 142.26,13.98 C141.873331,14.113334 141.470002,14.2166663 141.05,14.29 C140.629998,14.3633337 140.206669,14.4 139.78,14.4 C138.979996,14.4 138.273336,14.2766679 137.66,14.03 C137.046663,13.7833321 136.533335,13.4300023 136.12,12.97 C135.706664,12.5099977 135.393334,11.9600032 135.18,11.32 C134.966665,10.6799968 134.86,9.960004 134.86,9.16 C134.86,8.3199958 134.976665,7.5733366 135.21,6.92 C135.443334,6.2666634 135.779998,5.7200022 136.22,5.28 C136.660002,4.8399978 137.19333,4.5033345 137.82,4.27 C138.44667,4.0366655 139.146663,3.92 139.92,3.92 C140.480003,3.92 141.03333,3.9933326 141.58,4.14 C142.126669,4.2866674 142.609998,4.5633313 143.03,4.97 C143.450002,5.3766687 143.773332,5.9366631 144,6.65 C144.226668,7.3633369 144.306667,8.286661 144.24,9.42 L136.5,9.42 C136.5,10.620006 136.82333,11.5166637 137.47,12.11 C138.11667,12.7033363 138.979994,13 140.06,13 C140.420002,13 140.776665,12.9566671 141.13,12.87 C141.483335,12.7833329 141.819998,12.6800006 142.14,12.56 C142.460001,12.4399994 142.743332,12.3066674 142.99,12.16 C143.236668,12.0133326 143.426666,11.8800006 143.56,11.76 L144.18,12.9 Z M139.96,5.24 C139.519998,5.24 139.103335,5.2866662 138.71,5.38 C138.316665,5.4733338 137.970001,5.6299989 137.67,5.85 C137.369998,6.0700011 137.123334,6.3566649 136.93,6.71 C136.736666,7.0633351 136.613333,7.4999974 136.56,8.02 L142.78,8.02 C142.713333,7.1399956 142.430002,6.4566691 141.93,5.97 C141.429997,5.4833309 140.773337,5.24 139.96,5.24 Z M147.18,0.16 L150.5,0.16 L150.5,10.8 C150.5,11.6133374 150.636665,12.186665 150.91,12.52 C151.183335,12.853335 151.586664,13.02 152.12,13.02 C152.493335,13.02 152.849998,12.953334 153.19,12.82 C153.530002,12.686666 153.906664,12.4600016 154.32,12.14 L155.04,13.24 C154.826665,13.4266676 154.593334,13.5933326 154.34,13.74 C154.086665,13.8866674 153.826668,14.0099995 153.56,14.11 C153.293332,14.2100005 153.026668,14.2866664 152.76,14.34 C152.493332,14.3933336 152.246668,14.42 152.02,14.42 C151.526664,14.42 151.086668,14.3566673 150.7,14.23 C150.313331,14.1033327 149.990001,13.9000014 149.73,13.62 C149.469999,13.3399986 149.273334,12.9700023 149.14,12.51 C149.006666,12.0499977 148.94,11.4800034 148.94,10.8 L148.94,1.5 L147.18,1.5 L147.18,0.16 Z M157.76,14.16 L157.76,12.82 L160.14,12.82 L160.14,5.5 L157.76,5.5 L157.76,4.16 L160.14,4.16 L160.14,3.6 C160.14,2.3466604 160.466663,1.4400028 161.12,0.88 C161.773336,0.3199972 162.70666,0.04 163.92,0.04 C164.360002,0.04 164.753331,0.0666664 165.1,0.12 C165.446668,0.1733336 165.819998,0.2799992 166.22,0.44 L165.86,1.74 C165.513331,1.5933326 165.180001,1.4966669 164.86,1.45 C164.539998,1.4033331 164.246668,1.38 163.98,1.38 C163.099995,1.38 162.500001,1.5966645 162.18,2.03 C161.859998,2.4633355 161.7,3.1733284 161.7,4.16 L165.84,4.16 L165.84,5.5 L161.7,5.5 L161.7,12.82 L165.84,12.82 L165.84,14.16 L157.76,14.16 Z" id="Tryityourself" fill="#00000B" fill-rule="nonzero" transform="translate(83.110000, 9.130000) rotate(-360.000000) translate(-83.110000, -9.130000) "></path>
                <g id="Group-13-Copy" transform="translate(122.215372, 79.501978) scale(-1, 1) rotate(-30.000000) translate(-122.215372, -79.501978) translate(68.215372, 41.001978)">
                    <path d="M102,12.1846373 C90,79.5179706 58,82.851304 6,22.1846373" id="Path-3" stroke="#00000A" transform="translate(54.000000, 38.749741) rotate(-345.000000) translate(-54.000000, -38.749741) "></path>
                    <polygon id="Path-4" stroke="#7D699B" fill="#00000A" transform="translate(14.044245, 14.000000) rotate(-345.000000) translate(-14.044245, -14.000000) " points="11.0442451 11 11.0442451 17 17.0442451 11"></polygon>
                </g>
            </g>
        </g>
    </g>
</svg>