<?xml version="1.0" encoding="UTF-8"?>
<svg width="468px" height="347px" viewBox="0 0 468 347" version="1.1" xmlns="http://www.w3.org/2000/svg" xmlns:xlink="http://www.w3.org/1999/xlink">
    <!-- Generator: Sketch 63.1 (92452) - https://sketch.com -->
    <title>Group 8</title>
    <desc>Created with Sketch.</desc>
    <defs>
        <rect id="path-1" x="0" y="0" width="420" height="299" rx="15"></rect>
        <filter x="-8.8%" y="-11.7%" width="117.6%" height="124.7%" filterUnits="objectBoundingBox" id="filter-2">
            <feOffset dx="0" dy="2" in="SourceAlpha" result="shadowOffsetOuter1"></feOffset>
            <feGaussianBlur stdDeviation="12" in="shadowOffsetOuter1" result="shadowBlurOuter1"></feGaussianBlur>
            <feColorMatrix values="0 0 0 0 0.781221694   0 0 0 0 0.781221694   0 0 0 0 0.781221694  0 0 0 0.5 0" type="matrix" in="shadowBlurOuter1"></feColorMatrix>
        </filter>
    </defs>
    <g id="Email-Attachments-Page-Mockups" stroke="none" stroke-width="1" fill="none" fill-rule="evenodd">
        <g id="Group-8" transform="translate(24.000000, 22.000000)">
            <g id="Rectangle-Copy-23">
                <use fill="black" fill-opacity="1" filter="url(#filter-2)" xlink:href="#path-1"></use>
                <use fill="#FFFFFF" fill-rule="evenodd" xlink:href="#path-1"></use>
            </g>
            <path d="M403,24.5 C405.411073,24.5 407.365738,25.0857177 407.49337,26.1393403 L407.5,26.25 L407.5,75 L406.5,75 L406.5,26.25 C406.5,26.0027805 405.047618,25.5390224 403.229138,25.5023173 L403,25.5 L23,25.5 C21.1528976,25.5 19.6266318,25.9538693 19.5074859,26.2180163 L19.5,26.25 L19.5,75 L18.5,75 L18.5,26.25 C18.5,25.1642482 20.3742966,24.5423388 22.752263,24.5020845 L23,24.5 L403,24.5 Z" id="Path" fill="#F5F4F5" fill-rule="nonzero"></path>
            <path d="M44.890625,57.2050781 C46.8945312,57.2050781 48.1484375,56.1972656 48.1484375,54.5976562 C48.1484375,53.3320312 47.4335938,52.6347656 45.6992188,52.21875 L44.7675781,51.9902344 C43.6660156,51.7207031 43.2207031,51.3691406 43.2207031,50.7539062 C43.2207031,49.9628906 43.9121094,49.453125 44.9492188,49.453125 C45.9335938,49.453125 46.6132812,49.9453125 46.7363281,50.7480469 L48.0136719,50.7480469 C47.9375,49.3359375 46.6835938,48.3398438 44.9667969,48.3398438 C43.1210938,48.3398438 41.890625,49.3359375 41.890625,50.8242188 C41.890625,52.0546875 42.5878906,52.78125 44.1171875,53.1503906 L45.2070312,53.4140625 C46.3261719,53.6835938 46.8183594,54.09375 46.8183594,54.7558594 C46.8183594,55.5292969 46.0449219,56.0859375 44.9902344,56.0859375 C43.859375,56.0859375 43.0742188,55.5644531 42.9628906,54.7441406 L41.6621094,54.7441406 C41.7558594,56.2441406 43.015625,57.2050781 44.890625,57.2050781 Z M51.8632812,57.1230469 C52.8300781,57.1230469 53.4804688,56.7128906 53.7910156,55.9921875 L53.890625,55.9921875 L53.890625,57 L55.1035156,57 L55.1035156,50.6367188 L53.84375,50.6367188 L53.84375,54.3691406 C53.84375,55.3945312 53.2871094,56.015625 52.2675781,56.015625 C51.3417969,56.015625 50.9257812,55.5117188 50.9257812,54.4570312 L50.9257812,50.6367188 L49.6660156,50.6367188 L49.6660156,54.7675781 C49.6660156,56.2617188 50.4511719,57.1230469 51.8632812,57.1230469 Z M60.3125,57.1054688 C61.9238281,57.1054688 62.9492188,55.8222656 62.9492188,53.8183594 C62.9492188,51.796875 61.9296875,50.5253906 60.3125,50.5253906 C59.4394531,50.5253906 58.6894531,50.953125 58.3496094,51.6445312 L58.25,51.6445312 L58.25,48.140625 L56.9902344,48.140625 L56.9902344,57 L58.203125,57 L58.203125,55.9921875 L58.296875,55.9921875 C58.6777344,56.6953125 59.421875,57.1054688 60.3125,57.1054688 Z M59.9492188,56.0273438 C58.8886719,56.0273438 58.2324219,55.1835938 58.2265625,53.8183594 C58.2324219,52.453125 58.8945312,51.6035156 59.9492188,51.6035156 C61.015625,51.6035156 61.6542969,52.4414062 61.6542969,53.8183594 C61.6542969,55.1953125 61.015625,56.0273438 59.9492188,56.0273438 Z M65.1230469,49.5 C65.5566406,49.5 65.9199219,49.1425781 65.9199219,48.7089844 C65.9199219,48.2695312 65.5566406,47.9121094 65.1230469,47.9121094 C64.6835938,47.9121094 64.3261719,48.2695312 64.3261719,48.7089844 C64.3261719,49.1425781 64.6835938,49.5 65.1230469,49.5 Z M63.6816406,59.1796875 C65.0644531,59.1796875 65.7382812,58.5820312 65.7382812,57.2753906 L65.7382812,50.6367188 L64.484375,50.6367188 L64.484375,57.2695312 C64.484375,57.9082031 64.25,58.1660156 63.5761719,58.1660156 L63.4003906,58.1660156 L63.4003906,58.1660156 L63.4003906,59.1738281 C63.4296875,59.1738281 63.6347656,59.1796875 63.6816406,59.1796875 Z M70.2207031,57.1230469 C71.6796875,57.1230469 72.7109375,56.4199219 72.9863281,55.2949219 L71.7734375,55.2949219 C71.5390625,55.8105469 71.0175781,56.0917969 70.2558594,56.0917969 C69.2480469,56.0917969 68.5976562,55.3652344 68.5566406,54.2109375 L68.5566406,54.1523438 L73.0625,54.1523438 L73.0625,53.71875 C73.0625,51.7265625 71.9902344,50.5136719 70.2148438,50.5136719 C68.4160156,50.5136719 67.2734375,51.8085938 67.2734375,53.8300781 C67.2734375,55.8632812 68.3925781,57.1230469 70.2207031,57.1230469 Z M71.7792969,53.2441406 L68.5566406,53.2441406 C68.6269531,52.21875 69.2773438,51.5390625 70.2089844,51.5390625 C71.140625,51.5390625 71.75,52.2128906 71.7792969,53.2441406 Z M77.2519531,57.1230469 C78.828125,57.1230469 79.8125,56.2382812 79.9765625,54.984375 L78.7519531,54.984375 C78.5878906,55.6757812 78.0429688,56.0507812 77.2460938,56.0507812 C76.1972656,56.0507812 75.546875,55.2011719 75.546875,53.7949219 C75.546875,52.4179688 76.1914062,51.5859375 77.2460938,51.5859375 C78.0898438,51.5859375 78.6054688,52.0605469 78.7519531,52.6816406 L79.9765625,52.6816406 C79.8125,51.4453125 78.8457031,50.5136719 77.2460938,50.5136719 C75.3886719,50.5136719 74.2578125,51.7734375 74.2578125,53.7949219 C74.2578125,55.8574219 75.3945312,57.1230469 77.2519531,57.1230469 Z M83.9082031,57.0410156 C84.1542969,57.0410156 84.3886719,57.0117188 84.59375,56.9765625 L84.59375,55.9746094 C84.4179688,55.9921875 84.3066406,56.0039062 84.1132812,56.0039062 C83.4863281,56.0039062 83.2109375,55.7050781 83.2109375,55.0195312 L83.2109375,51.6621094 L84.59375,51.6621094 L84.59375,50.6542969 L83.2109375,50.6542969 L83.2109375,49.03125 L81.9511719,49.03125 L81.9511719,50.6542969 L80.9375,50.6542969 L80.9375,51.6621094 L81.9511719,51.6621094 L81.9511719,55.3242188 C81.9511719,56.5488281 82.5078125,57.0410156 83.9082031,57.0410156 Z M87.0546875,52.6875 C87.5527344,52.6875 87.9160156,52.3183594 87.9160156,51.84375 C87.9160156,51.3691406 87.5527344,51 87.0546875,51 C86.5625,51 86.1933594,51.3691406 86.1933594,51.84375 C86.1933594,52.3183594 86.5625,52.6875 87.0546875,52.6875 Z M87.0546875,57.0878906 C87.5527344,57.0878906 87.9160156,56.71875 87.9160156,56.2441406 C87.9160156,55.7695312 87.5527344,55.4003906 87.0546875,55.4003906 C86.5625,55.4003906 86.1933594,55.7695312 86.1933594,56.2441406 C86.1933594,56.71875 86.5625,57.0878906 87.0546875,57.0878906 Z" id="Subject:" fill="#65656A" fill-rule="nonzero"></path>
            <path d="M103.226562,57.9140625 L102.136719,56.4199219 C103.074219,55.7109375 103.601562,54.421875 103.601562,52.7753906 C103.601562,50.0449219 102.083984,48.3398438 99.6640625,48.3398438 C97.2382812,48.3398438 95.7148438,50.0390625 95.7148438,52.7753906 C95.7148438,55.5234375 97.2265625,57.2050781 99.6640625,57.2050781 C100.208984,57.2050781 100.71875,57.1230469 101.169922,56.9589844 L101.878906,57.9140625 L103.226562,57.9140625 Z M99.6699219,56.0625 C98.0527344,56.0625 97.0449219,54.8027344 97.0449219,52.7753906 C97.0449219,50.7480469 98.0585938,49.4824219 99.6640625,49.4824219 C101.263672,49.4824219 102.277344,50.7539062 102.277344,52.7753906 C102.277344,53.9414062 101.949219,54.8671875 101.369141,55.3710938 L100.677734,54.4511719 L99.3183594,54.4511719 L100.4375,55.9570312 C100.191406,56.0332031 99.9335938,56.0625 99.6699219,56.0625 Z M107.369141,57.1230469 C108.335938,57.1230469 108.986328,56.7128906 109.296875,55.9921875 L109.396484,55.9921875 L109.396484,57 L110.609375,57 L110.609375,50.6367188 L109.349609,50.6367188 L109.349609,54.3691406 C109.349609,55.3945312 108.792969,56.015625 107.773438,56.015625 C106.847656,56.015625 106.431641,55.5117188 106.431641,54.4570312 L106.431641,50.6367188 L105.171875,50.6367188 L105.171875,54.7675781 C105.171875,56.2617188 105.957031,57.1230469 107.369141,57.1230469 Z M115.132812,57.1230469 C116.996094,57.1230469 118.138672,55.875 118.138672,53.8183594 C118.138672,51.7617188 116.990234,50.5136719 115.132812,50.5136719 C113.269531,50.5136719 112.121094,51.7675781 112.121094,53.8183594 C112.121094,55.875 113.263672,57.1230469 115.132812,57.1230469 Z M115.132812,56.0507812 C114.037109,56.0507812 113.421875,55.2363281 113.421875,53.8183594 C113.421875,52.4003906 114.037109,51.5800781 115.132812,51.5800781 C116.222656,51.5800781 116.84375,52.4003906 116.84375,53.8183594 C116.84375,55.2304688 116.222656,56.0507812 115.132812,56.0507812 Z M122.052734,57.0410156 C122.298828,57.0410156 122.533203,57.0117188 122.738281,56.9765625 L122.738281,55.9746094 C122.5625,55.9921875 122.451172,56.0039062 122.257812,56.0039062 C121.630859,56.0039062 121.355469,55.7050781 121.355469,55.0195312 L121.355469,51.6621094 L122.738281,51.6621094 L122.738281,50.6542969 L121.355469,50.6542969 L121.355469,49.03125 L120.095703,49.03125 L120.095703,50.6542969 L119.082031,50.6542969 L119.082031,51.6621094 L120.095703,51.6621094 L120.095703,55.3242188 C120.095703,56.5488281 120.652344,57.0410156 122.052734,57.0410156 Z M126.78125,57.1230469 C128.240234,57.1230469 129.271484,56.4199219 129.546875,55.2949219 L128.333984,55.2949219 C128.099609,55.8105469 127.578125,56.0917969 126.816406,56.0917969 C125.808594,56.0917969 125.158203,55.3652344 125.117188,54.2109375 L125.117188,54.1523438 L129.623047,54.1523438 L129.623047,53.71875 C129.623047,51.7265625 128.550781,50.5136719 126.775391,50.5136719 C124.976562,50.5136719 123.833984,51.8085938 123.833984,53.8300781 C123.833984,55.8632812 124.953125,57.1230469 126.78125,57.1230469 Z M128.339844,53.2441406 L125.117188,53.2441406 C125.1875,52.21875 125.837891,51.5390625 126.769531,51.5390625 C127.701172,51.5390625 128.310547,52.2128906 128.339844,53.2441406 Z" id="Quote" fill="#202022" fill-rule="nonzero"></path>
            <path d="M19.5,70 L19.5,295 C19.5,296.868563 20.9642776,298.395126 22.8079648,298.494821 L23,298.5 L403,298.5 C404.868563,298.5 406.395126,297.035722 406.494821,295.192035 L406.5,295 L406.5,70 L407.5,70 L407.5,295 C407.5,297.414273 405.598763,299.384489 403.211836,299.495102 L403,299.5 L23,299.5 C20.5857267,299.5 18.6155109,297.598763 18.504898,295.211836 L18.5,295 L18.5,70 L19.5,70 Z" id="Path-Copy" fill="#F5F4F5" fill-rule="nonzero"></path>
            <path d="M19,112 L19,74 C19,71.790861 20.790861,70 23,70 L403,70 C405.209139,70 407,71.790861 407,74 L407,112 L407,112" id="Path-Copy" stroke="#F5F4F5" fill="#CBD8FF" transform="translate(213.000000, 91.000000) scale(-1, -1) translate(-213.000000, -91.000000) "></path>
            <path d="M44.3378906,97 L44.3378906,90.859375 L44.4316406,90.859375 L48.7734375,97 L49.9570312,97 L49.9570312,88.5449219 L48.6796875,88.5449219 L48.6796875,94.6972656 L48.5859375,94.6972656 L44.2441406,88.5449219 L43.0605469,88.5449219 L43.0605469,97 L44.3378906,97 Z M54.6269531,97.1230469 C56.4902344,97.1230469 57.6328125,95.875 57.6328125,93.8183594 C57.6328125,91.7617188 56.484375,90.5136719 54.6269531,90.5136719 C52.7636719,90.5136719 51.6152344,91.7675781 51.6152344,93.8183594 C51.6152344,95.875 52.7578125,97.1230469 54.6269531,97.1230469 Z M54.6269531,96.0507812 C53.53125,96.0507812 52.9160156,95.2363281 52.9160156,93.8183594 C52.9160156,92.4003906 53.53125,91.5800781 54.6269531,91.5800781 C55.7167969,91.5800781 56.3378906,92.4003906 56.3378906,93.8183594 C56.3378906,95.2304688 55.7167969,96.0507812 54.6269531,96.0507812 Z M61.546875,97.0410156 C61.7929688,97.0410156 62.0273438,97.0117188 62.2324219,96.9765625 L62.2324219,95.9746094 C62.0566406,95.9921875 61.9453125,96.0039062 61.7519531,96.0039062 C61.125,96.0039062 60.8496094,95.7050781 60.8496094,95.0195312 L60.8496094,91.6621094 L62.2324219,91.6621094 L62.2324219,90.6542969 L60.8496094,90.6542969 L60.8496094,89.03125 L59.5898438,89.03125 L59.5898438,90.6542969 L58.5761719,90.6542969 L58.5761719,91.6621094 L59.5898438,91.6621094 L59.5898438,95.3242188 C59.5898438,96.5488281 60.1464844,97.0410156 61.546875,97.0410156 Z M66.2753906,97.1230469 C67.734375,97.1230469 68.765625,96.4199219 69.0410156,95.2949219 L67.828125,95.2949219 C67.59375,95.8105469 67.0722656,96.0917969 66.3105469,96.0917969 C65.3027344,96.0917969 64.6523438,95.3652344 64.6113281,94.2109375 L64.6113281,94.1523438 L69.1171875,94.1523438 L69.1171875,93.71875 C69.1171875,91.7265625 68.0449219,90.5136719 66.2695312,90.5136719 C64.4707031,90.5136719 63.328125,91.8085938 63.328125,93.8300781 C63.328125,95.8632812 64.4472656,97.1230469 66.2753906,97.1230469 Z M67.8339844,93.2441406 L64.6113281,93.2441406 C64.6816406,92.21875 65.3320312,91.5390625 66.2636719,91.5390625 C67.1953125,91.5390625 67.8046875,92.2128906 67.8339844,93.2441406 Z M71.6074219,92.6875 C72.1054688,92.6875 72.46875,92.3183594 72.46875,91.84375 C72.46875,91.3691406 72.1054688,91 71.6074219,91 C71.1152344,91 70.7460938,91.3691406 70.7460938,91.84375 C70.7460938,92.3183594 71.1152344,92.6875 71.6074219,92.6875 Z M71.6074219,97.0878906 C72.1054688,97.0878906 72.46875,96.71875 72.46875,96.2441406 C72.46875,95.7695312 72.1054688,95.4003906 71.6074219,95.4003906 C71.1152344,95.4003906 70.7460938,95.7695312 70.7460938,96.2441406 C70.7460938,96.71875 71.1152344,97.0878906 71.6074219,97.0878906 Z" id="Note:" fill="#65656A" fill-rule="nonzero"></path>
            <path d="M90.5019531,97.8378906 L89.3769531,96.3320312 C90.2734375,95.5996094 90.7832031,94.3515625 90.7832031,92.7695312 C90.7832031,90.0273438 89.2070312,88.328125 86.7226562,88.328125 C84.2382812,88.328125 82.6503906,90.0273438 82.6503906,92.7695312 C82.6503906,95.5292969 84.2207031,97.2167969 86.7226562,97.2167969 C87.2617188,97.2167969 87.765625,97.1347656 88.2109375,96.9824219 L88.8554688,97.8378906 L90.5019531,97.8378906 Z M86.7285156,95.7753906 C85.3222656,95.7753906 84.4140625,94.6210938 84.4140625,92.7695312 C84.4140625,90.9296875 85.3222656,89.7636719 86.7226562,89.7636719 C88.1171875,89.7636719 89.0195312,90.9296875 89.0195312,92.7695312 C89.0195312,93.7246094 88.7792969,94.4921875 88.3457031,94.9609375 L87.7773438,94.2167969 L86.125,94.2167969 L87.25,95.7109375 C87.0800781,95.7578125 86.9101562,95.7753906 86.7285156,95.7753906 Z M94.4921875,97.1347656 C95.4707031,97.1347656 96.0742188,96.7128906 96.3789062,95.9628906 L96.484375,95.9628906 L96.484375,97 L98.1367188,97 L98.1367188,90.5488281 L96.4316406,90.5488281 L96.4316406,94.2753906 C96.4316406,95.1601562 95.9746094,95.7050781 95.125,95.7050781 C94.3398438,95.7050781 93.9355469,95.2421875 93.9355469,94.328125 L93.9355469,90.5488281 L92.2304688,90.5488281 L92.2304688,94.75 C92.2304688,96.25 93.0976562,97.1347656 94.4921875,97.1347656 Z M102.712891,97.1347656 C104.699219,97.1347656 105.894531,95.8808594 105.894531,93.7714844 C105.894531,91.6796875 104.681641,90.4082031 102.712891,90.4082031 C100.744141,90.4082031 99.53125,91.6855469 99.53125,93.7714844 C99.53125,95.875 100.726562,97.1347656 102.712891,97.1347656 Z M102.712891,95.7871094 C101.798828,95.7871094 101.283203,95.0488281 101.283203,93.7714844 C101.283203,92.5058594 101.804688,91.7617188 102.712891,91.7617188 C103.615234,91.7617188 104.142578,92.5058594 104.142578,93.7714844 C104.142578,95.0488281 103.621094,95.7871094 102.712891,95.7871094 Z M109.960938,97.0234375 C110.289062,97.0234375 110.605469,96.9882812 110.816406,96.9472656 L110.816406,95.6875 C110.652344,95.7050781 110.535156,95.7167969 110.3125,95.7167969 C109.732422,95.7167969 109.474609,95.4472656 109.474609,94.8671875 L109.474609,91.9023438 L110.816406,91.9023438 L110.816406,90.6074219 L109.474609,90.6074219 L109.474609,89.0078125 L107.769531,89.0078125 L107.769531,90.6074219 L106.761719,90.6074219 L106.761719,91.9023438 L107.769531,91.9023438 L107.769531,95.2597656 C107.769531,96.5136719 108.390625,97.0234375 109.960938,97.0234375 Z M115.005859,97.1347656 C116.587891,97.1347656 117.707031,96.3789062 117.958984,95.1777344 L116.371094,95.1777344 C116.189453,95.6171875 115.726562,95.8632812 115.052734,95.8632812 C114.162109,95.8632812 113.599609,95.2480469 113.576172,94.2636719 L113.576172,94.1757812 L118.011719,94.1757812 L118.011719,93.6660156 C118.011719,91.6269531 116.886719,90.4082031 114.982422,90.4082031 C113.060547,90.4082031 111.876953,91.7089844 111.876953,93.8066406 C111.876953,95.8925781 113.037109,97.1347656 115.005859,97.1347656 Z M116.335938,93.1152344 L113.582031,93.1152344 C113.640625,92.2480469 114.197266,91.6796875 114.988281,91.6796875 C115.785156,91.6796875 116.300781,92.2304688 116.335938,93.1152344 Z M125.3125,97.1347656 C126.894531,97.1347656 128.013672,96.3789062 128.265625,95.1777344 L126.677734,95.1777344 C126.496094,95.6171875 126.033203,95.8632812 125.359375,95.8632812 C124.46875,95.8632812 123.90625,95.2480469 123.882812,94.2636719 L123.882812,94.1757812 L128.318359,94.1757812 L128.318359,93.6660156 C128.318359,91.6269531 127.193359,90.4082031 125.289062,90.4082031 C123.367188,90.4082031 122.183594,91.7089844 122.183594,93.8066406 C122.183594,95.8925781 123.34375,97.1347656 125.3125,97.1347656 Z M126.642578,93.1152344 L123.888672,93.1152344 C123.947266,92.2480469 124.503906,91.6796875 125.294922,91.6796875 C126.091797,91.6796875 126.607422,92.2304688 126.642578,93.1152344 Z M132.027344,97.0996094 C132.923828,97.0996094 133.65625,96.6835938 134.001953,95.9863281 L134.107422,95.9863281 L134.107422,97 L135.759766,97 L135.759766,88.0820312 L134.054688,88.0820312 L134.054688,91.5800781 L133.955078,91.5800781 C133.621094,90.8652344 132.900391,90.4433594 132.027344,90.4433594 C130.404297,90.4433594 129.396484,91.7148438 129.396484,93.765625 C129.396484,95.8222656 130.398438,97.0996094 132.027344,97.0996094 Z M132.607422,95.7226562 C131.693359,95.7226562 131.148438,94.9902344 131.148438,93.7714844 C131.148438,92.5585938 131.699219,91.8261719 132.607422,91.8261719 C133.515625,91.8261719 134.072266,92.5703125 134.072266,93.7773438 C134.072266,94.984375 133.521484,95.7226562 132.607422,95.7226562 Z M138.396484,89.5585938 C138.923828,89.5585938 139.357422,89.1367188 139.357422,88.609375 C139.357422,88.0761719 138.923828,87.6542969 138.396484,87.6542969 C137.869141,87.6542969 137.429688,88.0761719 137.429688,88.609375 C137.429688,89.1367188 137.869141,89.5585938 138.396484,89.5585938 Z M139.246094,97 L139.246094,90.5488281 L137.541016,90.5488281 L137.541016,97 L139.246094,97 Z M143.646484,97.0234375 C143.974609,97.0234375 144.291016,96.9882812 144.501953,96.9472656 L144.501953,95.6875 C144.337891,95.7050781 144.220703,95.7167969 143.998047,95.7167969 C143.417969,95.7167969 143.160156,95.4472656 143.160156,94.8671875 L143.160156,91.9023438 L144.501953,91.9023438 L144.501953,90.6074219 L143.160156,90.6074219 L143.160156,89.0078125 L141.455078,89.0078125 L141.455078,90.6074219 L140.447266,90.6074219 L140.447266,91.9023438 L141.455078,91.9023438 L141.455078,95.2597656 C141.455078,96.5136719 142.076172,97.0234375 143.646484,97.0234375 Z M148.691406,97.1347656 C150.273438,97.1347656 151.392578,96.3789062 151.644531,95.1777344 L150.056641,95.1777344 C149.875,95.6171875 149.412109,95.8632812 148.738281,95.8632812 C147.847656,95.8632812 147.285156,95.2480469 147.261719,94.2636719 L147.261719,94.1757812 L151.697266,94.1757812 L151.697266,93.6660156 C151.697266,91.6269531 150.572266,90.4082031 148.667969,90.4082031 C146.746094,90.4082031 145.5625,91.7089844 145.5625,93.8066406 C145.5625,95.8925781 146.722656,97.1347656 148.691406,97.1347656 Z M150.021484,93.1152344 L147.267578,93.1152344 C147.326172,92.2480469 147.882812,91.6796875 148.673828,91.6796875 C149.470703,91.6796875 149.986328,92.2304688 150.021484,93.1152344 Z M155.40625,97.0996094 C156.302734,97.0996094 157.035156,96.6835938 157.380859,95.9863281 L157.486328,95.9863281 L157.486328,97 L159.138672,97 L159.138672,88.0820312 L157.433594,88.0820312 L157.433594,91.5800781 L157.333984,91.5800781 C157,90.8652344 156.279297,90.4433594 155.40625,90.4433594 C153.783203,90.4433594 152.775391,91.7148438 152.775391,93.765625 C152.775391,95.8222656 153.777344,97.0996094 155.40625,97.0996094 Z M155.986328,95.7226562 C155.072266,95.7226562 154.527344,94.9902344 154.527344,93.7714844 C154.527344,92.5585938 155.078125,91.8261719 155.986328,91.8261719 C156.894531,91.8261719 157.451172,92.5703125 157.451172,93.7773438 C157.451172,94.984375 156.900391,95.7226562 155.986328,95.7226562 Z M167.810547,97.0996094 C169.433594,97.0996094 170.429688,95.8398438 170.429688,93.7714844 C170.429688,91.6914062 169.445312,90.4433594 167.810547,90.4433594 C166.925781,90.4433594 166.199219,90.8710938 165.871094,91.5800781 L165.765625,91.5800781 L165.765625,88.0820312 L164.060547,88.0820312 L164.060547,97 L165.712891,97 L165.712891,95.9863281 L165.818359,95.9863281 C166.164062,96.6894531 166.896484,97.0996094 167.810547,97.0996094 Z M167.21875,95.7226562 C166.316406,95.7226562 165.753906,94.9785156 165.748047,93.7773438 C165.753906,92.5761719 166.322266,91.8261719 167.21875,91.8261719 C168.121094,91.8261719 168.677734,92.5703125 168.677734,93.7714844 C168.677734,94.984375 168.126953,95.7226562 167.21875,95.7226562 Z M173.587891,97.0996094 C174.425781,97.0996094 175.128906,96.7421875 175.462891,96.1445312 L175.568359,96.1445312 L175.568359,97 L177.220703,97 L177.220703,92.59375 C177.220703,91.2167969 176.253906,90.4082031 174.542969,90.4082031 C172.919922,90.4082031 171.824219,91.1523438 171.712891,92.3359375 L173.283203,92.3359375 C173.423828,91.9316406 173.833984,91.7148438 174.449219,91.7148438 C175.152344,91.7148438 175.539062,92.0371094 175.539062,92.59375 L175.539062,93.1269531 L173.974609,93.2207031 C172.369141,93.3144531 171.472656,93.9941406 171.472656,95.1601562 C171.472656,96.3378906 172.345703,97.0996094 173.587891,97.0996094 Z M174.150391,95.8515625 C173.558594,95.8515625 173.142578,95.5527344 173.142578,95.0546875 C173.142578,94.5800781 173.5,94.3046875 174.232422,94.2578125 L175.539062,94.1699219 L175.539062,94.6503906 C175.539062,95.3300781 174.941406,95.8515625 174.150391,95.8515625 Z M181.445312,97.1347656 C183.138672,97.1347656 184.292969,96.3027344 184.292969,95.0253906 C184.292969,94.0644531 183.730469,93.5371094 182.476562,93.2617188 L181.263672,92.9980469 C180.666016,92.8632812 180.390625,92.6582031 180.390625,92.3300781 C180.390625,91.9082031 180.841797,91.6210938 181.451172,91.6210938 C182.083984,91.6210938 182.476562,91.8847656 182.564453,92.3125 L184.140625,92.3125 C184.046875,91.09375 183.080078,90.4082031 181.439453,90.4082031 C179.828125,90.4082031 178.75,91.2226562 178.75,92.4296875 C178.75,93.4199219 179.359375,94.0117188 180.613281,94.2871094 L181.785156,94.5507812 C182.353516,94.6796875 182.599609,94.8789062 182.599609,95.2070312 C182.599609,95.6347656 182.142578,95.9277344 181.480469,95.9277344 C180.800781,95.9277344 180.384766,95.6640625 180.255859,95.21875 L178.591797,95.21875 C178.708984,96.4375 179.740234,97.1347656 181.445312,97.1347656 Z M188.505859,97.1347656 C190.087891,97.1347656 191.207031,96.3789062 191.458984,95.1777344 L189.871094,95.1777344 C189.689453,95.6171875 189.226562,95.8632812 188.552734,95.8632812 C187.662109,95.8632812 187.099609,95.2480469 187.076172,94.2636719 L187.076172,94.1757812 L191.511719,94.1757812 L191.511719,93.6660156 C191.511719,91.6269531 190.386719,90.4082031 188.482422,90.4082031 C186.560547,90.4082031 185.376953,91.7089844 185.376953,93.8066406 C185.376953,95.8925781 186.537109,97.1347656 188.505859,97.1347656 Z M189.835938,93.1152344 L187.082031,93.1152344 C187.140625,92.2480469 187.697266,91.6796875 188.488281,91.6796875 C189.285156,91.6796875 189.800781,92.2304688 189.835938,93.1152344 Z M195.220703,97.0996094 C196.117188,97.0996094 196.849609,96.6835938 197.195312,95.9863281 L197.300781,95.9863281 L197.300781,97 L198.953125,97 L198.953125,88.0820312 L197.248047,88.0820312 L197.248047,91.5800781 L197.148438,91.5800781 C196.814453,90.8652344 196.09375,90.4433594 195.220703,90.4433594 C193.597656,90.4433594 192.589844,91.7148438 192.589844,93.765625 C192.589844,95.8222656 193.591797,97.0996094 195.220703,97.0996094 Z M195.800781,95.7226562 C194.886719,95.7226562 194.341797,94.9902344 194.341797,93.7714844 C194.341797,92.5585938 194.892578,91.8261719 195.800781,91.8261719 C196.708984,91.8261719 197.265625,92.5703125 197.265625,93.7773438 C197.265625,94.984375 196.714844,95.7226562 195.800781,95.7226562 Z M206.681641,97.1347656 C208.667969,97.1347656 209.863281,95.8808594 209.863281,93.7714844 C209.863281,91.6796875 208.650391,90.4082031 206.681641,90.4082031 C204.712891,90.4082031 203.5,91.6855469 203.5,93.7714844 C203.5,95.875 204.695312,97.1347656 206.681641,97.1347656 Z M206.681641,95.7871094 C205.767578,95.7871094 205.251953,95.0488281 205.251953,93.7714844 C205.251953,92.5058594 205.773438,91.7617188 206.681641,91.7617188 C207.583984,91.7617188 208.111328,92.5058594 208.111328,93.7714844 C208.111328,95.0488281 207.589844,95.7871094 206.681641,95.7871094 Z M212.957031,97 L212.957031,93.2675781 C212.957031,92.3945312 213.443359,91.8320312 214.234375,91.8320312 C215.042969,91.8320312 215.423828,92.3066406 215.423828,93.2148438 L215.423828,97 L217.128906,97 L217.128906,92.828125 C217.128906,91.2871094 216.355469,90.4082031 214.919922,90.4082031 C213.964844,90.4082031 213.308594,90.859375 213.009766,91.5859375 L212.904297,91.5859375 L212.904297,90.5488281 L211.251953,90.5488281 L211.251953,97 L212.957031,97 Z M223.580078,97 L223.580078,93.109375 C223.580078,92.3710938 224.054688,91.8320312 224.722656,91.8320312 C225.390625,91.8320312 225.789062,92.2304688 225.789062,92.921875 L225.789062,97 L227.429688,97 L227.429688,93.0332031 C227.429688,92.3359375 227.875,91.8320312 228.566406,91.8320312 C229.287109,91.8320312 229.644531,92.21875 229.644531,92.9980469 L229.644531,97 L231.349609,97 L231.349609,92.5703125 C231.349609,91.2402344 230.546875,90.4082031 229.257812,90.4082031 C228.355469,90.4082031 227.611328,90.8828125 227.3125,91.5976562 L227.207031,91.5976562 C226.949219,90.859375 226.328125,90.4082031 225.419922,90.4082031 C224.570312,90.4082031 223.896484,90.859375 223.632812,91.5976562 L223.527344,91.5976562 L223.527344,90.5488281 L221.875,90.5488281 L221.875,97 L223.580078,97 Z M233.628906,99.34375 C235.240234,99.34375 236.03125,98.7695312 236.582031,97.1230469 L238.808594,90.5488281 L237.003906,90.5488281 L235.644531,95.4707031 L235.539062,95.4707031 L234.179688,90.5488281 L232.298828,90.5488281 L234.566406,97.0351562 L234.507812,97.28125 C234.367188,97.8027344 234.003906,98.0136719 233.365234,98.0136719 C233.294922,98.0136719 233.037109,98.0078125 232.978516,97.9960938 L232.978516,99.3261719 C233.048828,99.3378906 233.564453,99.34375 233.628906,99.34375 Z M245.927734,97.1347656 C247.609375,97.1347656 248.664062,96.2089844 248.804688,94.7910156 L247.210938,94.7910156 C247.082031,95.4355469 246.625,95.78125 245.927734,95.78125 C245.013672,95.78125 244.492188,95.0605469 244.492188,93.7597656 C244.492188,92.4765625 245.007812,91.7675781 245.927734,91.7675781 C246.654297,91.7675781 247.09375,92.1777344 247.210938,92.7988281 L248.804688,92.7988281 C248.664062,91.3574219 247.638672,90.4082031 245.927734,90.4082031 C243.90625,90.4082031 242.769531,91.6328125 242.769531,93.7597656 C242.769531,95.9101562 243.912109,97.1347656 245.927734,97.1347656 Z M253,97.1347656 C254.986328,97.1347656 256.181641,95.8808594 256.181641,93.7714844 C256.181641,91.6796875 254.96875,90.4082031 253,90.4082031 C251.03125,90.4082031 249.818359,91.6855469 249.818359,93.7714844 C249.818359,95.875 251.013672,97.1347656 253,97.1347656 Z M253,95.7871094 C252.085938,95.7871094 251.570312,95.0488281 251.570312,93.7714844 C251.570312,92.5058594 252.091797,91.7617188 253,91.7617188 C253.902344,91.7617188 254.429688,92.5058594 254.429688,93.7714844 C254.429688,95.0488281 253.908203,95.7871094 253,95.7871094 Z M259.275391,97 L259.275391,93.2675781 C259.275391,92.3945312 259.761719,91.8320312 260.552734,91.8320312 C261.361328,91.8320312 261.742188,92.3066406 261.742188,93.2148438 L261.742188,97 L263.447266,97 L263.447266,92.828125 C263.447266,91.2871094 262.673828,90.4082031 261.238281,90.4082031 C260.283203,90.4082031 259.626953,90.859375 259.328125,91.5859375 L259.222656,91.5859375 L259.222656,90.5488281 L257.570312,90.5488281 L257.570312,97 L259.275391,97 Z M268.533203,97 L270.765625,90.5488281 L268.966797,90.5488281 L267.642578,95.4003906 L267.537109,95.4003906 L266.201172,90.5488281 L264.367188,90.5488281 L266.611328,97 L268.533203,97 Z M274.46875,97.1347656 C276.050781,97.1347656 277.169922,96.3789062 277.421875,95.1777344 L275.833984,95.1777344 C275.652344,95.6171875 275.189453,95.8632812 274.515625,95.8632812 C273.625,95.8632812 273.0625,95.2480469 273.039062,94.2636719 L273.039062,94.1757812 L277.474609,94.1757812 L277.474609,93.6660156 C277.474609,91.6269531 276.349609,90.4082031 274.445312,90.4082031 C272.523438,90.4082031 271.339844,91.7089844 271.339844,93.8066406 C271.339844,95.8925781 272.5,97.1347656 274.46875,97.1347656 Z M275.798828,93.1152344 L273.044922,93.1152344 C273.103516,92.2480469 273.660156,91.6796875 274.451172,91.6796875 C275.248047,91.6796875 275.763672,92.2304688 275.798828,93.1152344 Z M280.574219,97 L280.574219,93.390625 C280.574219,92.4824219 281.212891,91.9257812 282.144531,91.9257812 C282.419922,91.9257812 282.818359,91.9726562 282.953125,92.0195312 L282.953125,90.5195312 C282.806641,90.4726562 282.519531,90.4433594 282.285156,90.4433594 C281.464844,90.4433594 280.796875,90.9296875 280.626953,91.5742188 L280.521484,91.5742188 L280.521484,90.5488281 L278.869141,90.5488281 L278.869141,97 L280.574219,97 Z M286.492188,97.1347656 C288.185547,97.1347656 289.339844,96.3027344 289.339844,95.0253906 C289.339844,94.0644531 288.777344,93.5371094 287.523438,93.2617188 L286.310547,92.9980469 C285.712891,92.8632812 285.4375,92.6582031 285.4375,92.3300781 C285.4375,91.9082031 285.888672,91.6210938 286.498047,91.6210938 C287.130859,91.6210938 287.523438,91.8847656 287.611328,92.3125 L289.1875,92.3125 C289.09375,91.09375 288.126953,90.4082031 286.486328,90.4082031 C284.875,90.4082031 283.796875,91.2226562 283.796875,92.4296875 C283.796875,93.4199219 284.40625,94.0117188 285.660156,94.2871094 L286.832031,94.5507812 C287.400391,94.6796875 287.646484,94.8789062 287.646484,95.2070312 C287.646484,95.6347656 287.189453,95.9277344 286.527344,95.9277344 C285.847656,95.9277344 285.431641,95.6640625 285.302734,95.21875 L283.638672,95.21875 C283.755859,96.4375 284.787109,97.1347656 286.492188,97.1347656 Z M292.509766,97.0996094 C293.347656,97.0996094 294.050781,96.7421875 294.384766,96.1445312 L294.490234,96.1445312 L294.490234,97 L296.142578,97 L296.142578,92.59375 C296.142578,91.2167969 295.175781,90.4082031 293.464844,90.4082031 C291.841797,90.4082031 290.746094,91.1523438 290.634766,92.3359375 L292.205078,92.3359375 C292.345703,91.9316406 292.755859,91.7148438 293.371094,91.7148438 C294.074219,91.7148438 294.460938,92.0371094 294.460938,92.59375 L294.460938,93.1269531 L292.896484,93.2207031 C291.291016,93.3144531 290.394531,93.9941406 290.394531,95.1601562 C290.394531,96.3378906 291.267578,97.0996094 292.509766,97.0996094 Z M293.072266,95.8515625 C292.480469,95.8515625 292.064453,95.5527344 292.064453,95.0546875 C292.064453,94.5800781 292.421875,94.3046875 293.154297,94.2578125 L294.460938,94.1699219 L294.460938,94.6503906 C294.460938,95.3300781 293.863281,95.8515625 293.072266,95.8515625 Z M300.496094,97.0234375 C300.824219,97.0234375 301.140625,96.9882812 301.351562,96.9472656 L301.351562,95.6875 C301.1875,95.7050781 301.070312,95.7167969 300.847656,95.7167969 C300.267578,95.7167969 300.009766,95.4472656 300.009766,94.8671875 L300.009766,91.9023438 L301.351562,91.9023438 L301.351562,90.6074219 L300.009766,90.6074219 L300.009766,89.0078125 L298.304688,89.0078125 L298.304688,90.6074219 L297.296875,90.6074219 L297.296875,91.9023438 L298.304688,91.9023438 L298.304688,95.2597656 C298.304688,96.5136719 298.925781,97.0234375 300.496094,97.0234375 Z M303.636719,89.5585938 C304.164062,89.5585938 304.597656,89.1367188 304.597656,88.609375 C304.597656,88.0761719 304.164062,87.6542969 303.636719,87.6542969 C303.109375,87.6542969 302.669922,88.0761719 302.669922,88.609375 C302.669922,89.1367188 303.109375,89.5585938 303.636719,89.5585938 Z M304.486328,97 L304.486328,90.5488281 L302.78125,90.5488281 L302.78125,97 L304.486328,97 Z M309.074219,97.1347656 C311.060547,97.1347656 312.255859,95.8808594 312.255859,93.7714844 C312.255859,91.6796875 311.042969,90.4082031 309.074219,90.4082031 C307.105469,90.4082031 305.892578,91.6855469 305.892578,93.7714844 C305.892578,95.875 307.087891,97.1347656 309.074219,97.1347656 Z M309.074219,95.7871094 C308.160156,95.7871094 307.644531,95.0488281 307.644531,93.7714844 C307.644531,92.5058594 308.166016,91.7617188 309.074219,91.7617188 C309.976562,91.7617188 310.503906,92.5058594 310.503906,93.7714844 C310.503906,95.0488281 309.982422,95.7871094 309.074219,95.7871094 Z M315.349609,97 L315.349609,93.2675781 C315.349609,92.3945312 315.835938,91.8320312 316.626953,91.8320312 C317.435547,91.8320312 317.816406,92.3066406 317.816406,93.2148438 L317.816406,97 L319.521484,97 L319.521484,92.828125 C319.521484,91.2871094 318.748047,90.4082031 317.3125,90.4082031 C316.357422,90.4082031 315.701172,90.859375 315.402344,91.5859375 L315.296875,91.5859375 L315.296875,90.5488281 L313.644531,90.5488281 L313.644531,97 L315.349609,97 Z M327.285156,97 L328.427734,92.5 L328.533203,92.5 L329.6875,97 L331.503906,97 L333.220703,90.5488281 L331.527344,90.5488281 L330.566406,95.21875 L330.460938,95.21875 L329.324219,90.5488281 L327.695312,90.5488281 L326.564453,95.21875 L326.458984,95.21875 L325.498047,90.5488281 L323.769531,90.5488281 L325.492188,97 L327.285156,97 Z M335.300781,89.5585938 C335.828125,89.5585938 336.261719,89.1367188 336.261719,88.609375 C336.261719,88.0761719 335.828125,87.6542969 335.300781,87.6542969 C334.773438,87.6542969 334.333984,88.0761719 334.333984,88.609375 C334.333984,89.1367188 334.773438,89.5585938 335.300781,89.5585938 Z M336.150391,97 L336.150391,90.5488281 L334.445312,90.5488281 L334.445312,97 L336.150391,97 Z M340.550781,97.0234375 C340.878906,97.0234375 341.195312,96.9882812 341.40625,96.9472656 L341.40625,95.6875 C341.242188,95.7050781 341.125,95.7167969 340.902344,95.7167969 C340.322266,95.7167969 340.064453,95.4472656 340.064453,94.8671875 L340.064453,91.9023438 L341.40625,91.9023438 L341.40625,90.6074219 L340.064453,90.6074219 L340.064453,89.0078125 L338.359375,89.0078125 L338.359375,90.6074219 L337.351562,90.6074219 L337.351562,91.9023438 L338.359375,91.9023438 L338.359375,95.2597656 C338.359375,96.5136719 338.980469,97.0234375 340.550781,97.0234375 Z M344.587891,97 L344.587891,93.2851562 C344.587891,92.4296875 345.080078,91.8496094 345.935547,91.8496094 C346.708984,91.8496094 347.125,92.3183594 347.125,93.2324219 L347.125,97 L348.830078,97 L348.830078,92.8457031 C348.830078,91.2988281 348.003906,90.4257812 346.615234,90.4257812 C345.666016,90.4257812 344.962891,90.8710938 344.664062,91.6035156 L344.558594,91.6035156 L344.558594,88.0820312 L342.882812,88.0820312 L342.882812,97 L344.587891,97 Z M359.347656,97 L359.347656,95.5410156 L355.515625,95.5410156 L355.515625,93.4023438 L359.130859,93.4023438 L359.130859,92.0429688 L355.515625,92.0429688 L355.515625,90.0039062 L359.347656,90.0039062 L359.347656,88.5449219 L353.746094,88.5449219 L353.746094,97 L359.347656,97 Z M363.355469,97.0996094 C364.251953,97.0996094 364.984375,96.6835938 365.330078,95.9863281 L365.435547,95.9863281 L365.435547,97 L367.087891,97 L367.087891,88.0820312 L365.382812,88.0820312 L365.382812,91.5800781 L365.283203,91.5800781 C364.949219,90.8652344 364.228516,90.4433594 363.355469,90.4433594 C361.732422,90.4433594 360.724609,91.7148438 360.724609,93.765625 C360.724609,95.8222656 361.726562,97.0996094 363.355469,97.0996094 Z M363.935547,95.7226562 C363.021484,95.7226562 362.476562,94.9902344 362.476562,93.7714844 C362.476562,92.5585938 363.027344,91.8261719 363.935547,91.8261719 C364.84375,91.8261719 365.400391,92.5703125 365.400391,93.7773438 C365.400391,94.984375 364.849609,95.7226562 363.935547,95.7226562 Z" id="QuoteeditedbasedonmyconversationwithEd" fill="#202022" fill-rule="nonzero"></path>
            <path d="M46.1923828,153 L46.1923828,147.65625 L51.9052734,147.65625 L51.9052734,153 L54.5595703,153 L54.5595703,140.317383 L51.9052734,140.317383 L51.9052734,145.467773 L46.1923828,145.467773 L46.1923828,140.317383 L43.5380859,140.317383 L43.5380859,153 L46.1923828,153 Z M61.5996094,153.202148 C63.9726562,153.202148 65.6513672,152.068359 66.0292969,150.266602 L63.6474609,150.266602 C63.375,150.925781 62.6806641,151.294922 61.6699219,151.294922 C60.3339844,151.294922 59.4902344,150.37207 59.4550781,148.895508 L59.4550781,148.763672 L66.1083984,148.763672 L66.1083984,147.999023 C66.1083984,144.94043 64.4208984,143.112305 61.5644531,143.112305 C58.6816406,143.112305 56.90625,145.063477 56.90625,148.209961 C56.90625,151.338867 58.6464844,153.202148 61.5996094,153.202148 Z M63.5947266,147.172852 L59.4638672,147.172852 C59.5517578,145.87207 60.3867188,145.019531 61.5732422,145.019531 C62.7685547,145.019531 63.5419922,145.845703 63.5947266,147.172852 Z M70.7578125,153 L70.7578125,147.585938 C70.7578125,146.223633 71.7158203,145.388672 73.1132812,145.388672 C73.5263672,145.388672 74.1240234,145.458984 74.3261719,145.529297 L74.3261719,143.279297 C74.1064453,143.208984 73.6757812,143.165039 73.3242188,143.165039 C72.09375,143.165039 71.0917969,143.894531 70.8369141,144.861328 L70.6787109,144.861328 L70.6787109,143.323242 L68.2001953,143.323242 L68.2001953,153 L70.7578125,153 Z M80.0302734,153.202148 C82.4033203,153.202148 84.0820312,152.068359 84.4599609,150.266602 L82.078125,150.266602 C81.8056641,150.925781 81.1113281,151.294922 80.1005859,151.294922 C78.7646484,151.294922 77.9208984,150.37207 77.8857422,148.895508 L77.8857422,148.763672 L84.5390625,148.763672 L84.5390625,147.999023 C84.5390625,144.94043 82.8515625,143.112305 79.9951172,143.112305 C77.1123047,143.112305 75.3369141,145.063477 75.3369141,148.209961 C75.3369141,151.338867 77.0771484,153.202148 80.0302734,153.202148 Z M82.0253906,147.172852 L77.8945312,147.172852 C77.9824219,145.87207 78.8173828,145.019531 80.0039062,145.019531 C81.1992188,145.019531 81.9726562,145.845703 82.0253906,147.172852 Z M88.1953125,145.625977 L89.9003906,140.317383 L87.3779297,140.317383 L86.4111328,145.625977 L88.1953125,145.625977 Z M95.1474609,153.202148 C97.6875,153.202148 99.4189453,151.954102 99.4189453,150.038086 C99.4189453,148.59668 98.5751953,147.805664 96.6943359,147.392578 L94.875,146.99707 C93.9785156,146.794922 93.5654297,146.487305 93.5654297,145.995117 C93.5654297,145.362305 94.2421875,144.931641 95.15625,144.931641 C96.1054688,144.931641 96.6943359,145.327148 96.8261719,145.96875 L99.1904297,145.96875 C99.0498047,144.140625 97.5996094,143.112305 95.1386719,143.112305 C92.7216797,143.112305 91.1044922,144.333984 91.1044922,146.144531 C91.1044922,147.629883 92.0185547,148.517578 93.8994141,148.930664 L95.6572266,149.326172 C96.5097656,149.519531 96.8789062,149.818359 96.8789062,150.310547 C96.8789062,150.952148 96.1933594,151.391602 95.2001953,151.391602 C94.1806641,151.391602 93.5566406,150.996094 93.3632812,150.328125 L90.8671875,150.328125 C91.0429688,152.15625 92.5898438,153.202148 95.1474609,153.202148 Z M110.176758,153.035156 C110.668945,153.035156 111.143555,152.982422 111.459961,152.920898 L111.459961,151.03125 C111.213867,151.057617 111.038086,151.075195 110.704102,151.075195 C109.833984,151.075195 109.447266,150.670898 109.447266,149.800781 L109.447266,145.353516 L111.459961,145.353516 L111.459961,143.411133 L109.447266,143.411133 L109.447266,141.011719 L106.889648,141.011719 L106.889648,143.411133 L105.37793,143.411133 L105.37793,145.353516 L106.889648,145.353516 L106.889648,150.389648 C106.889648,152.270508 107.821289,153.035156 110.176758,153.035156 Z M116.232422,153 L116.232422,147.427734 C116.232422,146.144531 116.970703,145.274414 118.253906,145.274414 C119.414062,145.274414 120.038086,145.977539 120.038086,147.348633 L120.038086,153 L122.595703,153 L122.595703,146.768555 C122.595703,144.448242 121.356445,143.138672 119.273438,143.138672 C117.849609,143.138672 116.794922,143.806641 116.34668,144.905273 L116.188477,144.905273 L116.188477,139.623047 L113.674805,139.623047 L113.674805,153 L116.232422,153 Z M129.292969,153.202148 C131.666016,153.202148 133.344727,152.068359 133.722656,150.266602 L131.34082,150.266602 C131.068359,150.925781 130.374023,151.294922 129.363281,151.294922 C128.027344,151.294922 127.183594,150.37207 127.148438,148.895508 L127.148438,148.763672 L133.801758,148.763672 L133.801758,147.999023 C133.801758,144.94043 132.114258,143.112305 129.257812,143.112305 C126.375,143.112305 124.599609,145.063477 124.599609,148.209961 C124.599609,151.338867 126.339844,153.202148 129.292969,153.202148 Z M131.288086,147.172852 L127.157227,147.172852 C127.245117,145.87207 128.080078,145.019531 129.266602,145.019531 C130.461914,145.019531 131.235352,145.845703 131.288086,147.172852 Z M152.003906,154.256836 L150.316406,151.998047 C151.661133,150.899414 152.425781,149.027344 152.425781,146.654297 C152.425781,142.541016 150.061523,139.992188 146.334961,139.992188 C142.608398,139.992188 140.226562,142.541016 140.226562,146.654297 C140.226562,150.793945 142.582031,153.325195 146.334961,153.325195 C147.143555,153.325195 147.899414,153.202148 148.567383,152.973633 L149.53418,154.256836 L152.003906,154.256836 Z M146.34375,151.163086 C144.234375,151.163086 142.87207,149.431641 142.87207,146.654297 C142.87207,143.894531 144.234375,142.145508 146.334961,142.145508 C148.426758,142.145508 149.780273,143.894531 149.780273,146.654297 C149.780273,148.086914 149.419922,149.238281 148.769531,149.941406 L147.916992,148.825195 L145.438477,148.825195 L147.125977,151.066406 C146.871094,151.136719 146.616211,151.163086 146.34375,151.163086 Z M157.989258,153.202148 C159.457031,153.202148 160.362305,152.569336 160.819336,151.444336 L160.977539,151.444336 L160.977539,153 L163.456055,153 L163.456055,143.323242 L160.898438,143.323242 L160.898438,148.913086 C160.898438,150.240234 160.212891,151.057617 158.938477,151.057617 C157.760742,151.057617 157.154297,150.363281 157.154297,148.992188 L157.154297,143.323242 L154.59668,143.323242 L154.59668,149.625 C154.59668,151.875 155.897461,153.202148 157.989258,153.202148 Z M170.320312,153.202148 C173.299805,153.202148 175.092773,151.321289 175.092773,148.157227 C175.092773,145.019531 173.273438,143.112305 170.320312,143.112305 C167.367188,143.112305 165.547852,145.02832 165.547852,148.157227 C165.547852,151.3125 167.34082,153.202148 170.320312,153.202148 Z M170.320312,151.180664 C168.949219,151.180664 168.175781,150.073242 168.175781,148.157227 C168.175781,146.258789 168.958008,145.142578 170.320312,145.142578 C171.673828,145.142578 172.464844,146.258789 172.464844,148.157227 C172.464844,150.073242 171.682617,151.180664 170.320312,151.180664 Z M181.192383,153.035156 C181.68457,153.035156 182.15918,152.982422 182.475586,152.920898 L182.475586,151.03125 C182.229492,151.057617 182.053711,151.075195 181.719727,151.075195 C180.849609,151.075195 180.462891,150.670898 180.462891,149.800781 L180.462891,145.353516 L182.475586,145.353516 L182.475586,143.411133 L180.462891,143.411133 L180.462891,141.011719 L177.905273,141.011719 L177.905273,143.411133 L176.393555,143.411133 L176.393555,145.353516 L177.905273,145.353516 L177.905273,150.389648 C177.905273,152.270508 178.836914,153.035156 181.192383,153.035156 Z M188.759766,153.202148 C191.132812,153.202148 192.811523,152.068359 193.189453,150.266602 L190.807617,150.266602 C190.535156,150.925781 189.84082,151.294922 188.830078,151.294922 C187.494141,151.294922 186.650391,150.37207 186.615234,148.895508 L186.615234,148.763672 L193.268555,148.763672 L193.268555,147.999023 C193.268555,144.94043 191.581055,143.112305 188.724609,143.112305 C185.841797,143.112305 184.066406,145.063477 184.066406,148.209961 C184.066406,151.338867 185.806641,153.202148 188.759766,153.202148 Z M190.754883,147.172852 L186.624023,147.172852 C186.711914,145.87207 187.546875,145.019531 188.733398,145.019531 C189.928711,145.019531 190.702148,145.845703 190.754883,147.172852 Z M201.205078,156.515625 C203.62207,156.515625 204.808594,155.654297 205.634766,153.18457 L208.974609,143.323242 L206.267578,143.323242 L204.228516,150.706055 L204.070312,150.706055 L202.03125,143.323242 L199.209961,143.323242 L202.611328,153.052734 L202.523438,153.421875 C202.3125,154.204102 201.767578,154.520508 200.80957,154.520508 C200.704102,154.520508 200.317383,154.511719 200.229492,154.494141 L200.229492,156.489258 C200.334961,156.506836 201.108398,156.515625 201.205078,156.515625 Z M214.652344,153.202148 C217.631836,153.202148 219.424805,151.321289 219.424805,148.157227 C219.424805,145.019531 217.605469,143.112305 214.652344,143.112305 C211.699219,143.112305 209.879883,145.02832 209.879883,148.157227 C209.879883,151.3125 211.672852,153.202148 214.652344,153.202148 Z M214.652344,151.180664 C213.28125,151.180664 212.507812,150.073242 212.507812,148.157227 C212.507812,146.258789 213.290039,145.142578 214.652344,145.142578 C216.005859,145.142578 216.796875,146.258789 216.796875,148.157227 C216.796875,150.073242 216.014648,151.180664 214.652344,151.180664 Z M224.8125,153.202148 C226.280273,153.202148 227.185547,152.569336 227.642578,151.444336 L227.800781,151.444336 L227.800781,153 L230.279297,153 L230.279297,143.323242 L227.72168,143.323242 L227.72168,148.913086 C227.72168,150.240234 227.036133,151.057617 225.761719,151.057617 C224.583984,151.057617 223.977539,150.363281 223.977539,148.992188 L223.977539,143.323242 L221.419922,143.323242 L221.419922,149.625 C221.419922,151.875 222.720703,153.202148 224.8125,153.202148 Z M240.043945,153 L240.043945,147.585938 C240.043945,146.223633 241.001953,145.388672 242.399414,145.388672 C242.8125,145.388672 243.410156,145.458984 243.612305,145.529297 L243.612305,143.279297 C243.392578,143.208984 242.961914,143.165039 242.610352,143.165039 C241.379883,143.165039 240.37793,143.894531 240.123047,144.861328 L239.964844,144.861328 L239.964844,143.323242 L237.486328,143.323242 L237.486328,153 L240.043945,153 Z M249.316406,153.202148 C251.689453,153.202148 253.368164,152.068359 253.746094,150.266602 L251.364258,150.266602 C251.091797,150.925781 250.397461,151.294922 249.386719,151.294922 C248.050781,151.294922 247.207031,150.37207 247.171875,148.895508 L247.171875,148.763672 L253.825195,148.763672 L253.825195,147.999023 C253.825195,144.94043 252.137695,143.112305 249.28125,143.112305 C246.398438,143.112305 244.623047,145.063477 244.623047,148.209961 C244.623047,151.338867 246.363281,153.202148 249.316406,153.202148 Z M251.311523,147.172852 L247.180664,147.172852 C247.268555,145.87207 248.103516,145.019531 249.290039,145.019531 C250.485352,145.019531 251.258789,145.845703 251.311523,147.172852 Z M264.987305,156.208008 L264.987305,143.323242 L262.5,143.323242 L262.5,144.914062 L262.341797,144.914062 C261.832031,143.841797 260.71582,143.165039 259.40625,143.165039 C256.962891,143.165039 255.442383,145.081055 255.442383,148.148438 C255.442383,151.242188 256.918945,153.149414 259.353516,153.149414 C260.724609,153.149414 261.744141,152.551758 262.262695,151.523438 L262.420898,151.523438 L262.420898,156.208008 L264.987305,156.208008 Z M260.241211,151.083984 C258.878906,151.083984 258.070312,149.994141 258.070312,148.157227 C258.070312,146.337891 258.887695,145.239258 260.25,145.239258 C261.603516,145.239258 262.456055,146.355469 262.456055,148.166016 C262.456055,149.976562 261.612305,151.083984 260.241211,151.083984 Z M270.858398,153.202148 C272.326172,153.202148 273.231445,152.569336 273.688477,151.444336 L273.84668,151.444336 L273.84668,153 L276.325195,153 L276.325195,143.323242 L273.767578,143.323242 L273.767578,148.913086 C273.767578,150.240234 273.082031,151.057617 271.807617,151.057617 C270.629883,151.057617 270.023438,150.363281 270.023438,148.992188 L270.023438,143.323242 L267.46582,143.323242 L267.46582,149.625 C267.46582,151.875 268.766602,153.202148 270.858398,153.202148 Z M283.110352,153.202148 C285.483398,153.202148 287.162109,152.068359 287.540039,150.266602 L285.158203,150.266602 C284.885742,150.925781 284.191406,151.294922 283.180664,151.294922 C281.844727,151.294922 281.000977,150.37207 280.96582,148.895508 L280.96582,148.763672 L287.619141,148.763672 L287.619141,147.999023 C287.619141,144.94043 285.931641,143.112305 283.075195,143.112305 C280.192383,143.112305 278.416992,145.063477 278.416992,148.209961 C278.416992,151.338867 280.157227,153.202148 283.110352,153.202148 Z M285.105469,147.172852 L280.974609,147.172852 C281.0625,145.87207 281.897461,145.019531 283.083984,145.019531 C284.279297,145.019531 285.052734,145.845703 285.105469,147.172852 Z M293.53418,153.202148 C296.074219,153.202148 297.805664,151.954102 297.805664,150.038086 C297.805664,148.59668 296.961914,147.805664 295.081055,147.392578 L293.261719,146.99707 C292.365234,146.794922 291.952148,146.487305 291.952148,145.995117 C291.952148,145.362305 292.628906,144.931641 293.542969,144.931641 C294.492188,144.931641 295.081055,145.327148 295.212891,145.96875 L297.577148,145.96875 C297.436523,144.140625 295.986328,143.112305 293.525391,143.112305 C291.108398,143.112305 289.491211,144.333984 289.491211,146.144531 C289.491211,147.629883 290.405273,148.517578 292.286133,148.930664 L294.043945,149.326172 C294.896484,149.519531 295.265625,149.818359 295.265625,150.310547 C295.265625,150.952148 294.580078,151.391602 293.586914,151.391602 C292.567383,151.391602 291.943359,150.996094 291.75,150.328125 L289.253906,150.328125 C289.429688,152.15625 290.976562,153.202148 293.53418,153.202148 Z M303.878906,153.035156 C304.371094,153.035156 304.845703,152.982422 305.162109,152.920898 L305.162109,151.03125 C304.916016,151.057617 304.740234,151.075195 304.40625,151.075195 C303.536133,151.075195 303.149414,150.670898 303.149414,149.800781 L303.149414,145.353516 L305.162109,145.353516 L305.162109,143.411133 L303.149414,143.411133 L303.149414,141.011719 L300.591797,141.011719 L300.591797,143.411133 L299.080078,143.411133 L299.080078,145.353516 L300.591797,145.353516 L300.591797,150.389648 C300.591797,152.270508 301.523438,153.035156 303.878906,153.035156 Z M311.446289,153.202148 C313.819336,153.202148 315.498047,152.068359 315.875977,150.266602 L313.494141,150.266602 C313.22168,150.925781 312.527344,151.294922 311.516602,151.294922 C310.180664,151.294922 309.336914,150.37207 309.301758,148.895508 L309.301758,148.763672 L315.955078,148.763672 L315.955078,147.999023 C315.955078,144.94043 314.267578,143.112305 311.411133,143.112305 C308.52832,143.112305 306.75293,145.063477 306.75293,148.209961 C306.75293,151.338867 308.493164,153.202148 311.446289,153.202148 Z M313.441406,147.172852 L309.310547,147.172852 C309.398438,145.87207 310.233398,145.019531 311.419922,145.019531 C312.615234,145.019531 313.388672,145.845703 313.441406,147.172852 Z M321.518555,153.149414 C322.863281,153.149414 323.961914,152.525391 324.480469,151.479492 L324.638672,151.479492 L324.638672,153 L327.117188,153 L327.117188,139.623047 L324.55957,139.623047 L324.55957,144.870117 L324.410156,144.870117 C323.90918,143.797852 322.828125,143.165039 321.518555,143.165039 C319.083984,143.165039 317.572266,145.072266 317.572266,148.148438 C317.572266,151.233398 319.075195,153.149414 321.518555,153.149414 Z M322.388672,151.083984 C321.017578,151.083984 320.200195,149.985352 320.200195,148.157227 C320.200195,146.337891 321.026367,145.239258 322.388672,145.239258 C323.750977,145.239258 324.585938,146.355469 324.585938,148.166016 C324.585938,149.976562 323.759766,151.083984 322.388672,151.083984 Z" id="HerestheQuoteyourequested" fill="#202022" fill-rule="nonzero" opacity="0.460542225"></path>
            <path d="M44.3730469,191 L44.3730469,187.255859 L48.7148438,187.255859 L48.7148438,191 L50.0214844,191 L50.0214844,182.544922 L48.7148438,182.544922 L48.7148438,186.119141 L44.3730469,186.119141 L44.3730469,182.544922 L43.0605469,182.544922 L43.0605469,191 L44.3730469,191 Z M52.6464844,183.5 C53.0859375,183.5 53.4433594,183.142578 53.4433594,182.708984 C53.4433594,182.269531 53.0859375,181.912109 52.6464844,181.912109 C52.2070312,181.912109 51.8496094,182.269531 51.8496094,182.708984 C51.8496094,183.142578 52.2070312,183.5 52.6464844,183.5 Z M53.2734375,191 L53.2734375,184.636719 L52.0195312,184.636719 L52.0195312,191 L53.2734375,191 Z M63.9199219,191 L63.9199219,189.869141 L59.8652344,189.869141 L59.8652344,187.238281 L63.703125,187.238281 L63.703125,186.148438 L59.8652344,186.148438 L59.8652344,183.675781 L63.9199219,183.675781 L63.9199219,182.544922 L58.5527344,182.544922 L58.5527344,191 L63.9199219,191 Z M66.9257812,191 L66.9257812,187.091797 C66.9257812,186.259766 67.5058594,185.609375 68.2734375,185.609375 C69.0234375,185.609375 69.5039062,186.060547 69.5039062,186.787109 L69.5039062,191 L70.7402344,191 L70.7402344,186.974609 C70.7402344,186.207031 71.2734375,185.609375 72.0878906,185.609375 C72.9140625,185.609375 73.3242188,186.037109 73.3242188,186.916016 L73.3242188,191 L74.5839844,191 L74.5839844,186.611328 C74.5839844,185.287109 73.8339844,184.513672 72.5449219,184.513672 C71.6601562,184.513672 70.9277344,184.964844 70.6054688,185.650391 L70.5058594,185.650391 C70.2246094,184.964844 69.6210938,184.513672 68.7480469,184.513672 C67.8984375,184.513672 67.2539062,184.935547 66.9726562,185.650391 L66.8789062,185.650391 L66.8789062,184.636719 L65.6660156,184.636719 L65.6660156,191 L66.9257812,191 Z M77.6132812,191 L77.6132812,187.091797 C77.6132812,186.259766 78.1933594,185.609375 78.9609375,185.609375 C79.7109375,185.609375 80.1914062,186.060547 80.1914062,186.787109 L80.1914062,191 L81.4277344,191 L81.4277344,186.974609 C81.4277344,186.207031 81.9609375,185.609375 82.7753906,185.609375 C83.6015625,185.609375 84.0117188,186.037109 84.0117188,186.916016 L84.0117188,191 L85.2714844,191 L85.2714844,186.611328 C85.2714844,185.287109 84.5214844,184.513672 83.2324219,184.513672 C82.3476562,184.513672 81.6152344,184.964844 81.2929688,185.650391 L81.1933594,185.650391 C80.9121094,184.964844 80.3085938,184.513672 79.4355469,184.513672 C78.5859375,184.513672 77.9414062,184.935547 77.6601562,185.650391 L77.5664062,185.650391 L77.5664062,184.636719 L76.3535156,184.636719 L76.3535156,191 L77.6132812,191 Z M88.8046875,191.105469 C89.6425781,191.105469 90.3398438,190.742188 90.7207031,190.097656 L90.8203125,190.097656 L90.8203125,191 L92.0332031,191 L92.0332031,186.646484 C92.0332031,185.310547 91.1308594,184.513672 89.53125,184.513672 C88.0839844,184.513672 87.0527344,185.210938 86.9238281,186.283203 L88.1425781,186.283203 C88.2832031,185.820312 88.7695312,185.556641 89.4726562,185.556641 C90.3339844,185.556641 90.7792969,185.949219 90.7792969,186.646484 L90.7792969,187.203125 L89.0507812,187.308594 C87.5332031,187.402344 86.6777344,188.064453 86.6777344,189.207031 C86.6777344,190.367188 87.5742188,191.105469 88.8046875,191.105469 Z M89.1269531,190.091797 C88.4414062,190.091797 87.9433594,189.746094 87.9433594,189.154297 C87.9433594,188.574219 88.3417969,188.263672 89.2207031,188.205078 L90.7792969,188.099609 L90.7792969,188.650391 C90.7792969,189.470703 90.0761719,190.091797 89.1269531,190.091797 Z M94.6347656,193.197266 L95.6074219,189.757812 L94.2890625,189.757812 L93.7441406,193.197266 L94.6347656,193.197266 Z M46.0429688,219 L47.8535156,212.677734 L47.9355469,212.677734 L49.7519531,219 L50.9882812,219 L53.2734375,210.544922 L51.9082031,210.544922 L50.3613281,217.119141 L50.2792969,217.119141 L48.5039062,210.544922 L47.2851562,210.544922 L45.5214844,217.119141 L45.4394531,217.119141 L43.8867188,210.544922 L42.5214844,210.544922 L44.8007812,219 L46.0429688,219 Z M56.7128906,219.123047 C58.171875,219.123047 59.203125,218.419922 59.4785156,217.294922 L58.265625,217.294922 C58.03125,217.810547 57.5097656,218.091797 56.7480469,218.091797 C55.7402344,218.091797 55.0898438,217.365234 55.0488281,216.210938 L55.0488281,216.152344 L59.5546875,216.152344 L59.5546875,215.71875 C59.5546875,213.726562 58.4824219,212.513672 56.7070312,212.513672 C54.9082031,212.513672 53.765625,213.808594 53.765625,215.830078 C53.765625,217.863281 54.8847656,219.123047 56.7128906,219.123047 Z M58.2714844,215.244141 L55.0488281,215.244141 C55.1191406,214.21875 55.7695312,213.539062 56.7011719,213.539062 C57.6328125,213.539062 58.2421875,214.212891 58.2714844,215.244141 Z M65.6660156,219 L65.6660156,215.273438 C65.6660156,214.277344 66.2402344,213.615234 67.2714844,213.615234 C68.1621094,213.615234 68.6367188,214.136719 68.6367188,215.185547 L68.6367188,219 L69.8964844,219 L69.8964844,214.886719 C69.8964844,213.380859 69.0585938,212.519531 67.6992188,212.519531 C66.7382812,212.519531 66.0644531,212.941406 65.7539062,213.650391 L65.6542969,213.650391 L65.6542969,210.140625 L64.40625,210.140625 L64.40625,219 L65.6660156,219 Z M73.4296875,219.105469 C74.2675781,219.105469 74.9648438,218.742188 75.3457031,218.097656 L75.4453125,218.097656 L75.4453125,219 L76.6582031,219 L76.6582031,214.646484 C76.6582031,213.310547 75.7558594,212.513672 74.15625,212.513672 C72.7089844,212.513672 71.6777344,213.210938 71.5488281,214.283203 L72.7675781,214.283203 C72.9082031,213.820312 73.3945312,213.556641 74.0976562,213.556641 C74.9589844,213.556641 75.4042969,213.949219 75.4042969,214.646484 L75.4042969,215.203125 L73.6757812,215.308594 C72.1582031,215.402344 71.3027344,216.064453 71.3027344,217.207031 C71.3027344,218.367188 72.1992188,219.105469 73.4296875,219.105469 Z M73.7519531,218.091797 C73.0664062,218.091797 72.5683594,217.746094 72.5683594,217.154297 C72.5683594,216.574219 72.9667969,216.263672 73.8457031,216.205078 L75.4042969,216.099609 L75.4042969,216.650391 C75.4042969,217.470703 74.7011719,218.091797 73.7519531,218.091797 Z M81.3457031,219 L83.6425781,212.636719 L82.3066406,212.636719 L80.7246094,217.710938 L80.625,217.710938 L79.0371094,212.636719 L77.6894531,212.636719 L79.9921875,219 L81.3457031,219 Z M87.3046875,219.123047 C88.7636719,219.123047 89.7949219,218.419922 90.0703125,217.294922 L88.8574219,217.294922 C88.6230469,217.810547 88.1015625,218.091797 87.3398438,218.091797 C86.3320312,218.091797 85.6816406,217.365234 85.640625,216.210938 L85.640625,216.152344 L90.1464844,216.152344 L90.1464844,215.71875 C90.1464844,213.726562 89.0742188,212.513672 87.2988281,212.513672 C85.5,212.513672 84.3574219,213.808594 84.3574219,215.830078 C84.3574219,217.863281 85.4765625,219.123047 87.3046875,219.123047 Z M88.8632812,215.244141 L85.640625,215.244141 C85.7109375,214.21875 86.3613281,213.539062 87.2929688,213.539062 C88.2246094,213.539062 88.8339844,214.212891 88.8632812,215.244141 Z M96.703125,219.105469 C97.5410156,219.105469 98.2382812,218.742188 98.6191406,218.097656 L98.71875,218.097656 L98.71875,219 L99.9316406,219 L99.9316406,214.646484 C99.9316406,213.310547 99.0292969,212.513672 97.4296875,212.513672 C95.9824219,212.513672 94.9511719,213.210938 94.8222656,214.283203 L96.0410156,214.283203 C96.1816406,213.820312 96.6679688,213.556641 97.3710938,213.556641 C98.2324219,213.556641 98.6777344,213.949219 98.6777344,214.646484 L98.6777344,215.203125 L96.9492188,215.308594 C95.4316406,215.402344 94.5761719,216.064453 94.5761719,217.207031 C94.5761719,218.367188 95.4726562,219.105469 96.703125,219.105469 Z M97.0253906,218.091797 C96.3398438,218.091797 95.8417969,217.746094 95.8417969,217.154297 C95.8417969,216.574219 96.2402344,216.263672 97.1191406,216.205078 L98.6777344,216.099609 L98.6777344,216.650391 C98.6777344,217.470703 97.9746094,218.091797 97.0253906,218.091797 Z M104.126953,219.041016 C104.373047,219.041016 104.607422,219.011719 104.8125,218.976562 L104.8125,217.974609 C104.636719,217.992188 104.525391,218.003906 104.332031,218.003906 C103.705078,218.003906 103.429688,217.705078 103.429688,217.019531 L103.429688,213.662109 L104.8125,213.662109 L104.8125,212.654297 L103.429688,212.654297 L103.429688,211.03125 L102.169922,211.03125 L102.169922,212.654297 L101.15625,212.654297 L101.15625,213.662109 L102.169922,213.662109 L102.169922,217.324219 C102.169922,218.548828 102.726562,219.041016 104.126953,219.041016 Z M108.720703,219.041016 C108.966797,219.041016 109.201172,219.011719 109.40625,218.976562 L109.40625,217.974609 C109.230469,217.992188 109.119141,218.003906 108.925781,218.003906 C108.298828,218.003906 108.023438,217.705078 108.023438,217.019531 L108.023438,213.662109 L109.40625,213.662109 L109.40625,212.654297 L108.023438,212.654297 L108.023438,211.03125 L106.763672,211.03125 L106.763672,212.654297 L105.75,212.654297 L105.75,213.662109 L106.763672,213.662109 L106.763672,217.324219 C106.763672,218.548828 107.320312,219.041016 108.720703,219.041016 Z M112.652344,219.105469 C113.490234,219.105469 114.1875,218.742188 114.568359,218.097656 L114.667969,218.097656 L114.667969,219 L115.880859,219 L115.880859,214.646484 C115.880859,213.310547 114.978516,212.513672 113.378906,212.513672 C111.931641,212.513672 110.900391,213.210938 110.771484,214.283203 L111.990234,214.283203 C112.130859,213.820312 112.617188,213.556641 113.320312,213.556641 C114.181641,213.556641 114.626953,213.949219 114.626953,214.646484 L114.626953,215.203125 L112.898438,215.308594 C111.380859,215.402344 110.525391,216.064453 110.525391,217.207031 C110.525391,218.367188 111.421875,219.105469 112.652344,219.105469 Z M112.974609,218.091797 C112.289062,218.091797 111.791016,217.746094 111.791016,217.154297 C111.791016,216.574219 112.189453,216.263672 113.068359,216.205078 L114.626953,216.099609 L114.626953,216.650391 C114.626953,217.470703 113.923828,218.091797 112.974609,218.091797 Z M120.351562,219.123047 C121.927734,219.123047 122.912109,218.238281 123.076172,216.984375 L121.851562,216.984375 C121.6875,217.675781 121.142578,218.050781 120.345703,218.050781 C119.296875,218.050781 118.646484,217.201172 118.646484,215.794922 C118.646484,214.417969 119.291016,213.585938 120.345703,213.585938 C121.189453,213.585938 121.705078,214.060547 121.851562,214.681641 L123.076172,214.681641 C122.912109,213.445312 121.945312,212.513672 120.345703,212.513672 C118.488281,212.513672 117.357422,213.773438 117.357422,215.794922 C117.357422,217.857422 118.494141,219.123047 120.351562,219.123047 Z M125.830078,219 L125.830078,215.273438 C125.830078,214.277344 126.404297,213.615234 127.435547,213.615234 C128.326172,213.615234 128.800781,214.136719 128.800781,215.185547 L128.800781,219 L130.060547,219 L130.060547,214.886719 C130.060547,213.380859 129.222656,212.519531 127.863281,212.519531 C126.902344,212.519531 126.228516,212.941406 125.917969,213.650391 L125.818359,213.650391 L125.818359,210.140625 L124.570312,210.140625 L124.570312,219 L125.830078,219 Z M134.460938,219.123047 C135.919922,219.123047 136.951172,218.419922 137.226562,217.294922 L136.013672,217.294922 C135.779297,217.810547 135.257812,218.091797 134.496094,218.091797 C133.488281,218.091797 132.837891,217.365234 132.796875,216.210938 L132.796875,216.152344 L137.302734,216.152344 L137.302734,215.71875 C137.302734,213.726562 136.230469,212.513672 134.455078,212.513672 C132.65625,212.513672 131.513672,213.808594 131.513672,215.830078 C131.513672,217.863281 132.632812,219.123047 134.460938,219.123047 Z M136.019531,215.244141 L132.796875,215.244141 C132.867188,214.21875 133.517578,213.539062 134.449219,213.539062 C135.380859,213.539062 135.990234,214.212891 136.019531,215.244141 Z M141.146484,219.105469 C142.025391,219.105469 142.769531,218.689453 143.150391,217.992188 L143.25,217.992188 L143.25,219 L144.457031,219 L144.457031,210.140625 L143.197266,210.140625 L143.197266,213.644531 L143.103516,213.644531 C142.757812,212.947266 142.019531,212.525391 141.146484,212.525391 C139.535156,212.525391 138.498047,213.808594 138.498047,215.8125 C138.498047,217.828125 139.523438,219.105469 141.146484,219.105469 Z M141.503906,218.027344 C140.4375,218.027344 139.798828,217.201172 139.798828,215.818359 C139.798828,214.441406 140.443359,213.603516 141.503906,213.603516 C142.558594,213.603516 143.220703,214.458984 143.220703,215.818359 C143.220703,217.189453 142.564453,218.027344 141.503906,218.027344 Z M152.027344,219.041016 C152.273438,219.041016 152.507812,219.011719 152.712891,218.976562 L152.712891,217.974609 C152.537109,217.992188 152.425781,218.003906 152.232422,218.003906 C151.605469,218.003906 151.330078,217.705078 151.330078,217.019531 L151.330078,213.662109 L152.712891,213.662109 L152.712891,212.654297 L151.330078,212.654297 L151.330078,211.03125 L150.070312,211.03125 L150.070312,212.654297 L149.056641,212.654297 L149.056641,213.662109 L150.070312,213.662109 L150.070312,217.324219 C150.070312,218.548828 150.626953,219.041016 152.027344,219.041016 Z M155.513672,219 L155.513672,215.273438 C155.513672,214.277344 156.087891,213.615234 157.119141,213.615234 C158.009766,213.615234 158.484375,214.136719 158.484375,215.185547 L158.484375,219 L159.744141,219 L159.744141,214.886719 C159.744141,213.380859 158.90625,212.519531 157.546875,212.519531 C156.585938,212.519531 155.912109,212.941406 155.601562,213.650391 L155.501953,213.650391 L155.501953,210.140625 L154.253906,210.140625 L154.253906,219 L155.513672,219 Z M164.144531,219.123047 C165.603516,219.123047 166.634766,218.419922 166.910156,217.294922 L165.697266,217.294922 C165.462891,217.810547 164.941406,218.091797 164.179688,218.091797 C163.171875,218.091797 162.521484,217.365234 162.480469,216.210938 L162.480469,216.152344 L166.986328,216.152344 L166.986328,215.71875 C166.986328,213.726562 165.914062,212.513672 164.138672,212.513672 C162.339844,212.513672 161.197266,213.808594 161.197266,215.830078 C161.197266,217.863281 162.316406,219.123047 164.144531,219.123047 Z M165.703125,215.244141 L162.480469,215.244141 C162.550781,214.21875 163.201172,213.539062 164.132812,213.539062 C165.064453,213.539062 165.673828,214.212891 165.703125,215.244141 Z M179.091797,219.914062 L178.001953,218.419922 C178.939453,217.710938 179.466797,216.421875 179.466797,214.775391 C179.466797,212.044922 177.949219,210.339844 175.529297,210.339844 C173.103516,210.339844 171.580078,212.039062 171.580078,214.775391 C171.580078,217.523438 173.091797,219.205078 175.529297,219.205078 C176.074219,219.205078 176.583984,219.123047 177.035156,218.958984 L177.744141,219.914062 L179.091797,219.914062 Z M175.535156,218.0625 C173.917969,218.0625 172.910156,216.802734 172.910156,214.775391 C172.910156,212.748047 173.923828,211.482422 175.529297,211.482422 C177.128906,211.482422 178.142578,212.753906 178.142578,214.775391 C178.142578,215.941406 177.814453,216.867188 177.234375,217.371094 L176.542969,216.451172 L175.183594,216.451172 L176.302734,217.957031 C176.056641,218.033203 175.798828,218.0625 175.535156,218.0625 Z M183.234375,219.123047 C184.201172,219.123047 184.851562,218.712891 185.162109,217.992188 L185.261719,217.992188 L185.261719,219 L186.474609,219 L186.474609,212.636719 L185.214844,212.636719 L185.214844,216.369141 C185.214844,217.394531 184.658203,218.015625 183.638672,218.015625 C182.712891,218.015625 182.296875,217.511719 182.296875,216.457031 L182.296875,212.636719 L181.037109,212.636719 L181.037109,216.767578 C181.037109,218.261719 181.822266,219.123047 183.234375,219.123047 Z M190.998047,219.123047 C192.861328,219.123047 194.003906,217.875 194.003906,215.818359 C194.003906,213.761719 192.855469,212.513672 190.998047,212.513672 C189.134766,212.513672 187.986328,213.767578 187.986328,215.818359 C187.986328,217.875 189.128906,219.123047 190.998047,219.123047 Z M190.998047,218.050781 C189.902344,218.050781 189.287109,217.236328 189.287109,215.818359 C189.287109,214.400391 189.902344,213.580078 190.998047,213.580078 C192.087891,213.580078 192.708984,214.400391 192.708984,215.818359 C192.708984,217.230469 192.087891,218.050781 190.998047,218.050781 Z M197.917969,219.041016 C198.164062,219.041016 198.398438,219.011719 198.603516,218.976562 L198.603516,217.974609 C198.427734,217.992188 198.316406,218.003906 198.123047,218.003906 C197.496094,218.003906 197.220703,217.705078 197.220703,217.019531 L197.220703,213.662109 L198.603516,213.662109 L198.603516,212.654297 L197.220703,212.654297 L197.220703,211.03125 L195.960938,211.03125 L195.960938,212.654297 L194.947266,212.654297 L194.947266,213.662109 L195.960938,213.662109 L195.960938,217.324219 C195.960938,218.548828 196.517578,219.041016 197.917969,219.041016 Z M202.646484,219.123047 C204.105469,219.123047 205.136719,218.419922 205.412109,217.294922 L204.199219,217.294922 C203.964844,217.810547 203.443359,218.091797 202.681641,218.091797 C201.673828,218.091797 201.023438,217.365234 200.982422,216.210938 L200.982422,216.152344 L205.488281,216.152344 L205.488281,215.71875 C205.488281,213.726562 204.416016,212.513672 202.640625,212.513672 C200.841797,212.513672 199.699219,213.808594 199.699219,215.830078 C199.699219,217.863281 200.818359,219.123047 202.646484,219.123047 Z M204.205078,215.244141 L200.982422,215.244141 C201.052734,214.21875 201.703125,213.539062 202.634766,213.539062 C203.566406,213.539062 204.175781,214.212891 204.205078,215.244141 Z M210.914062,221.308594 C212.214844,221.308594 212.818359,220.822266 213.363281,219.292969 L215.742188,212.636719 L214.40625,212.636719 L212.8125,217.734375 L212.712891,217.734375 L211.113281,212.636719 L209.742188,212.636719 L212.050781,219.017578 L211.957031,219.345703 C211.740234,220.019531 211.400391,220.271484 210.802734,220.271484 C210.685547,220.271484 210.492188,220.265625 210.392578,220.248047 L210.392578,221.279297 C210.509766,221.296875 210.808594,221.308594 210.914062,221.308594 Z M219.480469,219.123047 C221.34375,219.123047 222.486328,217.875 222.486328,215.818359 C222.486328,213.761719 221.337891,212.513672 219.480469,212.513672 C217.617188,212.513672 216.46875,213.767578 216.46875,215.818359 C216.46875,217.875 217.611328,219.123047 219.480469,219.123047 Z M219.480469,218.050781 C218.384766,218.050781 217.769531,217.236328 217.769531,215.818359 C217.769531,214.400391 218.384766,213.580078 219.480469,213.580078 C220.570312,213.580078 221.191406,214.400391 221.191406,215.818359 C221.191406,217.230469 220.570312,218.050781 219.480469,218.050781 Z M226.136719,219.123047 C227.103516,219.123047 227.753906,218.712891 228.064453,217.992188 L228.164062,217.992188 L228.164062,219 L229.376953,219 L229.376953,212.636719 L228.117188,212.636719 L228.117188,216.369141 C228.117188,217.394531 227.560547,218.015625 226.541016,218.015625 C225.615234,218.015625 225.199219,217.511719 225.199219,216.457031 L225.199219,212.636719 L223.939453,212.636719 L223.939453,216.767578 C223.939453,218.261719 224.724609,219.123047 226.136719,219.123047 Z M235.804688,219 L235.804688,215.273438 C235.804688,214.277344 236.378906,213.615234 237.410156,213.615234 C238.300781,213.615234 238.775391,214.136719 238.775391,215.185547 L238.775391,219 L240.035156,219 L240.035156,214.886719 C240.035156,213.380859 239.197266,212.519531 237.837891,212.519531 C236.876953,212.519531 236.203125,212.941406 235.892578,213.650391 L235.792969,213.650391 L235.792969,210.140625 L234.544922,210.140625 L234.544922,219 L235.804688,219 Z M243.568359,219.105469 C244.40625,219.105469 245.103516,218.742188 245.484375,218.097656 L245.583984,218.097656 L245.583984,219 L246.796875,219 L246.796875,214.646484 C246.796875,213.310547 245.894531,212.513672 244.294922,212.513672 C242.847656,212.513672 241.816406,213.210938 241.6875,214.283203 L242.90625,214.283203 C243.046875,213.820312 243.533203,213.556641 244.236328,213.556641 C245.097656,213.556641 245.542969,213.949219 245.542969,214.646484 L245.542969,215.203125 L243.814453,215.308594 C242.296875,215.402344 241.441406,216.064453 241.441406,217.207031 C241.441406,218.367188 242.337891,219.105469 243.568359,219.105469 Z M243.890625,218.091797 C243.205078,218.091797 242.707031,217.746094 242.707031,217.154297 C242.707031,216.574219 243.105469,216.263672 243.984375,216.205078 L245.542969,216.099609 L245.542969,216.650391 C245.542969,217.470703 244.839844,218.091797 243.890625,218.091797 Z M250.921875,219.105469 C251.800781,219.105469 252.544922,218.689453 252.925781,217.992188 L253.025391,217.992188 L253.025391,219 L254.232422,219 L254.232422,210.140625 L252.972656,210.140625 L252.972656,213.644531 L252.878906,213.644531 C252.533203,212.947266 251.794922,212.525391 250.921875,212.525391 C249.310547,212.525391 248.273438,213.808594 248.273438,215.8125 C248.273438,217.828125 249.298828,219.105469 250.921875,219.105469 Z M251.279297,218.027344 C250.212891,218.027344 249.574219,217.201172 249.574219,215.818359 C249.574219,214.441406 250.21875,213.603516 251.279297,213.603516 C252.333984,213.603516 252.996094,214.458984 252.996094,215.818359 C252.996094,217.189453 252.339844,218.027344 251.279297,218.027344 Z M260.660156,219 L260.660156,215.197266 C260.660156,214.300781 261.333984,213.685547 262.289062,213.685547 C262.511719,213.685547 262.886719,213.726562 262.992188,213.755859 L262.992188,212.572266 C262.857422,212.542969 262.617188,212.525391 262.429688,212.525391 C261.597656,212.525391 260.888672,212.976562 260.707031,213.603516 L260.613281,213.603516 L260.613281,212.636719 L259.400391,212.636719 L259.400391,219 L260.660156,219 Z M266.671875,219.123047 C268.130859,219.123047 269.162109,218.419922 269.4375,217.294922 L268.224609,217.294922 C267.990234,217.810547 267.46875,218.091797 266.707031,218.091797 C265.699219,218.091797 265.048828,217.365234 265.007812,216.210938 L265.007812,216.152344 L269.513672,216.152344 L269.513672,215.71875 C269.513672,213.726562 268.441406,212.513672 266.666016,212.513672 C264.867188,212.513672 263.724609,213.808594 263.724609,215.830078 C263.724609,217.863281 264.84375,219.123047 266.671875,219.123047 Z M268.230469,215.244141 L265.007812,215.244141 C265.078125,214.21875 265.728516,213.539062 266.660156,213.539062 C267.591797,213.539062 268.201172,214.212891 268.230469,215.244141 Z M276.667969,221.121094 L276.667969,212.636719 L275.449219,212.636719 L275.449219,213.691406 L275.349609,213.691406 C274.986328,212.982422 274.21875,212.525391 273.351562,212.525391 C271.740234,212.525391 270.708984,213.814453 270.708984,215.8125 C270.708984,217.833984 271.722656,219.105469 273.339844,219.105469 C274.242188,219.105469 274.916016,218.730469 275.302734,218.039062 L275.402344,218.039062 L275.402344,221.121094 L276.667969,221.121094 Z M273.697266,218.027344 C272.636719,218.027344 272.009766,217.207031 272.009766,215.818359 C272.009766,214.435547 272.642578,213.603516 273.703125,213.603516 C274.763672,213.603516 275.425781,214.458984 275.425781,215.818359 C275.425781,217.183594 274.769531,218.027344 273.697266,218.027344 Z M280.634766,219.123047 C281.601562,219.123047 282.251953,218.712891 282.5625,217.992188 L282.662109,217.992188 L282.662109,219 L283.875,219 L283.875,212.636719 L282.615234,212.636719 L282.615234,216.369141 C282.615234,217.394531 282.058594,218.015625 281.039062,218.015625 C280.113281,218.015625 279.697266,217.511719 279.697266,216.457031 L279.697266,212.636719 L278.4375,212.636719 L278.4375,216.767578 C278.4375,218.261719 279.222656,219.123047 280.634766,219.123047 Z M288.333984,219.123047 C289.792969,219.123047 290.824219,218.419922 291.099609,217.294922 L289.886719,217.294922 C289.652344,217.810547 289.130859,218.091797 288.369141,218.091797 C287.361328,218.091797 286.710938,217.365234 286.669922,216.210938 L286.669922,216.152344 L291.175781,216.152344 L291.175781,215.71875 C291.175781,213.726562 290.103516,212.513672 288.328125,212.513672 C286.529297,212.513672 285.386719,213.808594 285.386719,215.830078 C285.386719,217.863281 286.505859,219.123047 288.333984,219.123047 Z M289.892578,215.244141 L286.669922,215.244141 C286.740234,214.21875 287.390625,213.539062 288.322266,213.539062 C289.253906,213.539062 289.863281,214.212891 289.892578,215.244141 Z M294.996094,219.123047 C296.519531,219.123047 297.638672,218.320312 297.638672,217.136719 C297.638672,216.210938 297.070312,215.689453 295.857422,215.408203 L294.796875,215.162109 C294.105469,214.998047 293.783203,214.751953 293.783203,214.359375 C293.783203,213.84375 294.316406,213.498047 295.019531,213.498047 C295.734375,213.498047 296.191406,213.808594 296.308594,214.283203 L297.515625,214.283203 C297.392578,213.181641 296.455078,212.513672 295.019531,212.513672 C293.578125,212.513672 292.541016,213.310547 292.541016,214.417969 C292.541016,215.361328 293.103516,215.900391 294.316406,216.181641 L295.429688,216.445312 C296.068359,216.597656 296.367188,216.855469 296.367188,217.253906 C296.367188,217.775391 295.810547,218.138672 295.025391,218.138672 C294.263672,218.138672 293.794922,217.828125 293.636719,217.330078 L292.376953,217.330078 C292.488281,218.4375 293.478516,219.123047 294.996094,219.123047 Z M301.511719,219.041016 C301.757812,219.041016 301.992188,219.011719 302.197266,218.976562 L302.197266,217.974609 C302.021484,217.992188 301.910156,218.003906 301.716797,218.003906 C301.089844,218.003906 300.814453,217.705078 300.814453,217.019531 L300.814453,213.662109 L302.197266,213.662109 L302.197266,212.654297 L300.814453,212.654297 L300.814453,211.03125 L299.554688,211.03125 L299.554688,212.654297 L298.541016,212.654297 L298.541016,213.662109 L299.554688,213.662109 L299.554688,217.324219 C299.554688,218.548828 300.111328,219.041016 301.511719,219.041016 Z M306.240234,219.123047 C307.699219,219.123047 308.730469,218.419922 309.005859,217.294922 L307.792969,217.294922 C307.558594,217.810547 307.037109,218.091797 306.275391,218.091797 C305.267578,218.091797 304.617188,217.365234 304.576172,216.210938 L304.576172,216.152344 L309.082031,216.152344 L309.082031,215.71875 C309.082031,213.726562 308.009766,212.513672 306.234375,212.513672 C304.435547,212.513672 303.292969,213.808594 303.292969,215.830078 C303.292969,217.863281 304.412109,219.123047 306.240234,219.123047 Z M307.798828,215.244141 L304.576172,215.244141 C304.646484,214.21875 305.296875,213.539062 306.228516,213.539062 C307.160156,213.539062 307.769531,214.212891 307.798828,215.244141 Z M312.925781,219.105469 C313.804688,219.105469 314.548828,218.689453 314.929688,217.992188 L315.029297,217.992188 L315.029297,219 L316.236328,219 L316.236328,210.140625 L314.976562,210.140625 L314.976562,213.644531 L314.882812,213.644531 C314.537109,212.947266 313.798828,212.525391 312.925781,212.525391 C311.314453,212.525391 310.277344,213.808594 310.277344,215.8125 C310.277344,217.828125 311.302734,219.105469 312.925781,219.105469 Z M313.283203,218.027344 C312.216797,218.027344 311.578125,217.201172 311.578125,215.818359 C311.578125,214.441406 312.222656,213.603516 313.283203,213.603516 C314.337891,213.603516 315,214.458984 315,215.818359 C315,217.189453 314.34375,218.027344 313.283203,218.027344 Z M323.806641,219.041016 C324.052734,219.041016 324.287109,219.011719 324.492188,218.976562 L324.492188,217.974609 C324.316406,217.992188 324.205078,218.003906 324.011719,218.003906 C323.384766,218.003906 323.109375,217.705078 323.109375,217.019531 L323.109375,213.662109 L324.492188,213.662109 L324.492188,212.654297 L323.109375,212.654297 L323.109375,211.03125 L321.849609,211.03125 L321.849609,212.654297 L320.835938,212.654297 L320.835938,213.662109 L321.849609,213.662109 L321.849609,217.324219 C321.849609,218.548828 322.40625,219.041016 323.806641,219.041016 Z M328.599609,219.123047 C330.462891,219.123047 331.605469,217.875 331.605469,215.818359 C331.605469,213.761719 330.457031,212.513672 328.599609,212.513672 C326.736328,212.513672 325.587891,213.767578 325.587891,215.818359 C325.587891,217.875 326.730469,219.123047 328.599609,219.123047 Z M328.599609,218.050781 C327.503906,218.050781 326.888672,217.236328 326.888672,215.818359 C326.888672,214.400391 327.503906,213.580078 328.599609,213.580078 C329.689453,213.580078 330.310547,214.400391 330.310547,215.818359 C330.310547,217.230469 329.689453,218.050781 328.599609,218.050781 Z M338.800781,219.041016 C339.046875,219.041016 339.28125,219.011719 339.486328,218.976562 L339.486328,217.974609 C339.310547,217.992188 339.199219,218.003906 339.005859,218.003906 C338.378906,218.003906 338.103516,217.705078 338.103516,217.019531 L338.103516,213.662109 L339.486328,213.662109 L339.486328,212.654297 L338.103516,212.654297 L338.103516,211.03125 L336.84375,211.03125 L336.84375,212.654297 L335.830078,212.654297 L335.830078,213.662109 L336.84375,213.662109 L336.84375,217.324219 C336.84375,218.548828 337.400391,219.041016 338.800781,219.041016 Z M342.287109,219 L342.287109,215.273438 C342.287109,214.277344 342.861328,213.615234 343.892578,213.615234 C344.783203,213.615234 345.257812,214.136719 345.257812,215.185547 L345.257812,219 L346.517578,219 L346.517578,214.886719 C346.517578,213.380859 345.679688,212.519531 344.320312,212.519531 C343.359375,212.519531 342.685547,212.941406 342.375,213.650391 L342.275391,213.650391 L342.275391,210.140625 L341.027344,210.140625 L341.027344,219 L342.287109,219 Z M348.9375,211.5 C349.376953,211.5 349.734375,211.142578 349.734375,210.708984 C349.734375,210.269531 349.376953,209.912109 348.9375,209.912109 C348.498047,209.912109 348.140625,210.269531 348.140625,210.708984 C348.140625,211.142578 348.498047,211.5 348.9375,211.5 Z M349.564453,219 L349.564453,212.636719 L348.310547,212.636719 L348.310547,219 L349.564453,219 Z M353.724609,219.123047 C355.248047,219.123047 356.367188,218.320312 356.367188,217.136719 C356.367188,216.210938 355.798828,215.689453 354.585938,215.408203 L353.525391,215.162109 C352.833984,214.998047 352.511719,214.751953 352.511719,214.359375 C352.511719,213.84375 353.044922,213.498047 353.748047,213.498047 C354.462891,213.498047 354.919922,213.808594 355.037109,214.283203 L356.244141,214.283203 C356.121094,213.181641 355.183594,212.513672 353.748047,212.513672 C352.306641,212.513672 351.269531,213.310547 351.269531,214.417969 C351.269531,215.361328 351.832031,215.900391 353.044922,216.181641 L354.158203,216.445312 C354.796875,216.597656 355.095703,216.855469 355.095703,217.253906 C355.095703,217.775391 354.539062,218.138672 353.753906,218.138672 C352.992188,218.138672 352.523438,217.828125 352.365234,217.330078 L351.105469,217.330078 C351.216797,218.4375 352.207031,219.123047 353.724609,219.123047 Z M363.796875,219.123047 C365.255859,219.123047 366.287109,218.419922 366.5625,217.294922 L365.349609,217.294922 C365.115234,217.810547 364.59375,218.091797 363.832031,218.091797 C362.824219,218.091797 362.173828,217.365234 362.132812,216.210938 L362.132812,216.152344 L366.638672,216.152344 L366.638672,215.71875 C366.638672,213.726562 365.566406,212.513672 363.791016,212.513672 C361.992188,212.513672 360.849609,213.808594 360.849609,215.830078 C360.849609,217.863281 361.96875,219.123047 363.796875,219.123047 Z M365.355469,215.244141 L362.132812,215.244141 C362.203125,214.21875 362.853516,213.539062 363.785156,213.539062 C364.716797,213.539062 365.326172,214.212891 365.355469,215.244141 Z M369.410156,219 L369.410156,215.091797 C369.410156,214.259766 369.990234,213.609375 370.757812,213.609375 C371.507812,213.609375 371.988281,214.060547 371.988281,214.787109 L371.988281,219 L373.224609,219 L373.224609,214.974609 C373.224609,214.207031 373.757812,213.609375 374.572266,213.609375 C375.398438,213.609375 375.808594,214.037109 375.808594,214.916016 L375.808594,219 L377.068359,219 L377.068359,214.611328 C377.068359,213.287109 376.318359,212.513672 375.029297,212.513672 C374.144531,212.513672 373.412109,212.964844 373.089844,213.650391 L372.990234,213.650391 C372.708984,212.964844 372.105469,212.513672 371.232422,212.513672 C370.382812,212.513672 369.738281,212.935547 369.457031,213.650391 L369.363281,213.650391 L369.363281,212.636719 L368.150391,212.636719 L368.150391,219 L369.410156,219 Z M380.601562,219.105469 C381.439453,219.105469 382.136719,218.742188 382.517578,218.097656 L382.617188,218.097656 L382.617188,219 L383.830078,219 L383.830078,214.646484 C383.830078,213.310547 382.927734,212.513672 381.328125,212.513672 C379.880859,212.513672 378.849609,213.210938 378.720703,214.283203 L379.939453,214.283203 C380.080078,213.820312 380.566406,213.556641 381.269531,213.556641 C382.130859,213.556641 382.576172,213.949219 382.576172,214.646484 L382.576172,215.203125 L380.847656,215.308594 C379.330078,215.402344 378.474609,216.064453 378.474609,217.207031 C378.474609,218.367188 379.371094,219.105469 380.601562,219.105469 Z M380.923828,218.091797 C380.238281,218.091797 379.740234,217.746094 379.740234,217.154297 C379.740234,216.574219 380.138672,216.263672 381.017578,216.205078 L382.576172,216.099609 L382.576172,216.650391 C382.576172,217.470703 381.873047,218.091797 380.923828,218.091797 Z M386.273438,211.5 C386.712891,211.5 387.070312,211.142578 387.070312,210.708984 C387.070312,210.269531 386.712891,209.912109 386.273438,209.912109 C385.833984,209.912109 385.476562,210.269531 385.476562,210.708984 C385.476562,211.142578 385.833984,211.5 386.273438,211.5 Z M386.900391,219 L386.900391,212.636719 L385.646484,212.636719 L385.646484,219 L386.900391,219 Z M390.070312,219 L390.070312,210.140625 L388.810547,210.140625 L388.810547,219 L390.070312,219 Z M392.935547,219.087891 C393.433594,219.087891 393.796875,218.71875 393.796875,218.244141 C393.796875,217.769531 393.433594,217.400391 392.935547,217.400391 C392.443359,217.400391 392.074219,217.769531 392.074219,218.244141 C392.074219,218.71875 392.443359,219.087891 392.935547,219.087891 Z" id="HiEmma,WehaveattachedtheQuoteyouhadrequestedtothisemail." fill="#202022" fill-rule="nonzero" opacity="0.414643787"></path>
            <polygon id="Line-2" fill="#F6F6F6" fill-rule="nonzero" points="394.667476 232 394.667476 243 42.3325243 243 42.3325243 232"></polygon>
            <polygon id="Line-2-Copy" fill="#F6F6F6" fill-rule="nonzero" points="394.667476 250 394.667476 261 42.3325243 261 42.3325243 250"></polygon>
        </g>
    </g>
</svg>