<?xml version="1.0" encoding="UTF-8"?>
<svg width="468px" height="324px" viewBox="0 0 468 324" version="1.1" xmlns="http://www.w3.org/2000/svg" xmlns:xlink="http://www.w3.org/1999/xlink">
    <!-- Generator: Sketch 63.1 (92452) - https://sketch.com -->
    <title>Group 15</title>
    <desc>Created with Sketch.</desc>
    <defs>
        <rect id="path-1" x="0" y="0" width="420" height="276" rx="15"></rect>
        <filter x="-8.8%" y="-12.7%" width="117.6%" height="126.8%" filterUnits="objectBoundingBox" id="filter-2">
            <feOffset dx="0" dy="2" in="SourceAlpha" result="shadowOffsetOuter1"></feOffset>
            <feGaussianBlur stdDeviation="12" in="shadowOffsetOuter1" result="shadowBlurOuter1"></feGaussianBlur>
            <feColorMatrix values="0 0 0 0 0.781221694   0 0 0 0 0.781221694   0 0 0 0 0.781221694  0 0 0 0.5 0" type="matrix" in="shadowBlurOuter1"></feColorMatrix>
        </filter>
    </defs>
    <g id="Page-1" stroke="none" stroke-width="1" fill="none" fill-rule="evenodd">
        <g id="Group-15" transform="translate(24.000000, 22.000000)">
            <g id="Group-14">
                <g id="Rectangle-Copy-22">
                    <use fill="black" fill-opacity="1" filter="url(#filter-2)" xlink:href="#path-1"></use>
                    <use fill="#EAEAF4" fill-rule="evenodd" xlink:href="#path-1"></use>
                </g>
                <path d="M34,224 L34,83 C34,80.790861 35.790861,79 38,79 L381,79 C383.209139,79 385,80.790861 385,83 L385,224 L385,224" id="Path" stroke="#F5F4F5" fill="#F6F6F6"></path>
                <polyline id="Path-Copy" stroke="#F5F4F5" fill="#FFFFFF" transform="translate(209.500000, 197.000000) scale(-1, -1) translate(-209.500000, -197.000000) " points="34 276 34 118 385 118 385 276"></polyline>
                <path d="M112.517578,104 L112.517578,96.6757812 L115.171875,96.6757812 L115.171875,95.5449219 L108.544922,95.5449219 L108.544922,96.6757812 L111.205078,96.6757812 L111.205078,104 L112.517578,104 Z M117.949219,104 L117.949219,100.273438 C117.949219,99.2773438 118.523438,98.6152344 119.554688,98.6152344 C120.445312,98.6152344 120.919922,99.1367188 120.919922,100.185547 L120.919922,104 L122.179688,104 L122.179688,99.8867188 C122.179688,98.3808594 121.341797,97.5195312 119.982422,97.5195312 C119.021484,97.5195312 118.347656,97.9414062 118.037109,98.6503906 L117.9375,98.6503906 L117.9375,95.140625 L116.689453,95.140625 L116.689453,104 L117.949219,104 Z M125.712891,104.105469 C126.550781,104.105469 127.248047,103.742188 127.628906,103.097656 L127.728516,103.097656 L127.728516,104 L128.941406,104 L128.941406,99.6464844 C128.941406,98.3105469 128.039062,97.5136719 126.439453,97.5136719 C124.992188,97.5136719 123.960938,98.2109375 123.832031,99.2832031 L125.050781,99.2832031 C125.191406,98.8203125 125.677734,98.5566406 126.380859,98.5566406 C127.242188,98.5566406 127.6875,98.9492188 127.6875,99.6464844 L127.6875,100.203125 L125.958984,100.308594 C124.441406,100.402344 123.585938,101.064453 123.585938,102.207031 C123.585938,103.367188 124.482422,104.105469 125.712891,104.105469 Z M126.035156,103.091797 C125.349609,103.091797 124.851562,102.746094 124.851562,102.154297 C124.851562,101.574219 125.25,101.263672 126.128906,101.205078 L127.6875,101.099609 L127.6875,101.650391 C127.6875,102.470703 126.984375,103.091797 126.035156,103.091797 Z M131.994141,104 L131.994141,100.267578 C131.994141,99.2421875 132.585938,98.609375 133.517578,98.609375 C134.449219,98.609375 134.894531,99.125 134.894531,100.179688 L134.894531,104 L136.154297,104 L136.154297,99.8808594 C136.154297,98.3632812 135.369141,97.5136719 133.945312,97.5136719 C132.984375,97.5136719 132.351562,97.9414062 132.041016,98.6445312 L131.947266,98.6445312 L131.947266,97.6367188 L130.734375,97.6367188 L130.734375,104 L131.994141,104 Z M139.242188,104 L139.242188,101.685547 L139.798828,101.152344 L141.990234,104 L143.537109,104 L140.736328,100.361328 L143.361328,97.6367188 L141.873047,97.6367188 L139.341797,100.320312 L139.242188,100.320312 L139.242188,95.140625 L137.982422,95.140625 L137.982422,104 L139.242188,104 Z M146.753906,104.123047 C148.277344,104.123047 149.396484,103.320312 149.396484,102.136719 C149.396484,101.210938 148.828125,100.689453 147.615234,100.408203 L146.554688,100.162109 C145.863281,99.9980469 145.541016,99.7519531 145.541016,99.359375 C145.541016,98.84375 146.074219,98.4980469 146.777344,98.4980469 C147.492188,98.4980469 147.949219,98.8085938 148.066406,99.2832031 L149.273438,99.2832031 C149.150391,98.1816406 148.212891,97.5136719 146.777344,97.5136719 C145.335938,97.5136719 144.298828,98.3105469 144.298828,99.4179688 C144.298828,100.361328 144.861328,100.900391 146.074219,101.181641 L147.1875,101.445312 C147.826172,101.597656 148.125,101.855469 148.125,102.253906 C148.125,102.775391 147.568359,103.138672 146.783203,103.138672 C146.021484,103.138672 145.552734,102.828125 145.394531,102.330078 L144.134766,102.330078 C144.246094,103.4375 145.236328,104.123047 146.753906,104.123047 Z M155.90625,104 L155.90625,98.6621094 L157.3125,98.6621094 L157.3125,97.6542969 L155.888672,97.6542969 L155.888672,97.0273438 C155.888672,96.3828125 156.175781,96.0605469 156.878906,96.0605469 C157.078125,96.0605469 157.248047,96.0722656 157.365234,96.0898438 L157.365234,95.140625 C157.148438,95.1054688 156.902344,95.0820312 156.615234,95.0820312 C155.291016,95.0820312 154.646484,95.703125 154.646484,96.96875 L154.646484,97.6542969 L153.597656,97.6542969 L153.597656,98.6621094 L154.646484,98.6621094 L154.646484,104 L155.90625,104 Z M161.185547,104.123047 C163.048828,104.123047 164.191406,102.875 164.191406,100.818359 C164.191406,98.7617188 163.042969,97.5136719 161.185547,97.5136719 C159.322266,97.5136719 158.173828,98.7675781 158.173828,100.818359 C158.173828,102.875 159.316406,104.123047 161.185547,104.123047 Z M161.185547,103.050781 C160.089844,103.050781 159.474609,102.236328 159.474609,100.818359 C159.474609,99.4003906 160.089844,98.5800781 161.185547,98.5800781 C162.275391,98.5800781 162.896484,99.4003906 162.896484,100.818359 C162.896484,102.230469 162.275391,103.050781 161.185547,103.050781 Z M166.962891,104 L166.962891,100.197266 C166.962891,99.3007812 167.636719,98.6855469 168.591797,98.6855469 C168.814453,98.6855469 169.189453,98.7265625 169.294922,98.7558594 L169.294922,97.5722656 C169.160156,97.5429688 168.919922,97.5253906 168.732422,97.5253906 C167.900391,97.5253906 167.191406,97.9765625 167.009766,98.6035156 L166.916016,98.6035156 L166.916016,97.6367188 L165.703125,97.6367188 L165.703125,104 L166.962891,104 Z M176.765625,104.205078 C178.769531,104.205078 180.023438,103.197266 180.023438,101.597656 C180.023438,100.332031 179.308594,99.6347656 177.574219,99.21875 L176.642578,98.9902344 C175.541016,98.7207031 175.095703,98.3691406 175.095703,97.7539062 C175.095703,96.9628906 175.787109,96.453125 176.824219,96.453125 C177.808594,96.453125 178.488281,96.9453125 178.611328,97.7480469 L179.888672,97.7480469 C179.8125,96.3359375 178.558594,95.3398438 176.841797,95.3398438 C174.996094,95.3398438 173.765625,96.3359375 173.765625,97.8242188 C173.765625,99.0546875 174.462891,99.78125 175.992188,100.150391 L177.082031,100.414062 C178.201172,100.683594 178.693359,101.09375 178.693359,101.755859 C178.693359,102.529297 177.919922,103.085938 176.865234,103.085938 C175.734375,103.085938 174.949219,102.564453 174.837891,101.744141 L173.537109,101.744141 C173.630859,103.244141 174.890625,104.205078 176.765625,104.205078 Z M183.738281,104.123047 C184.705078,104.123047 185.355469,103.712891 185.666016,102.992188 L185.765625,102.992188 L185.765625,104 L186.978516,104 L186.978516,97.6367188 L185.71875,97.6367188 L185.71875,101.369141 C185.71875,102.394531 185.162109,103.015625 184.142578,103.015625 C183.216797,103.015625 182.800781,102.511719 182.800781,101.457031 L182.800781,97.6367188 L181.541016,97.6367188 L181.541016,101.767578 C181.541016,103.261719 182.326172,104.123047 183.738281,104.123047 Z M192.1875,104.105469 C193.798828,104.105469 194.824219,102.822266 194.824219,100.818359 C194.824219,98.796875 193.804688,97.5253906 192.1875,97.5253906 C191.314453,97.5253906 190.564453,97.953125 190.224609,98.6445312 L190.125,98.6445312 L190.125,95.140625 L188.865234,95.140625 L188.865234,104 L190.078125,104 L190.078125,102.992188 L190.171875,102.992188 C190.552734,103.695312 191.296875,104.105469 192.1875,104.105469 Z M191.824219,103.027344 C190.763672,103.027344 190.107422,102.183594 190.101562,100.818359 C190.107422,99.453125 190.769531,98.6035156 191.824219,98.6035156 C192.890625,98.6035156 193.529297,99.4414062 193.529297,100.818359 C193.529297,102.195312 192.890625,103.027344 191.824219,103.027344 Z M198.644531,104.123047 C200.167969,104.123047 201.287109,103.320312 201.287109,102.136719 C201.287109,101.210938 200.71875,100.689453 199.505859,100.408203 L198.445312,100.162109 C197.753906,99.9980469 197.431641,99.7519531 197.431641,99.359375 C197.431641,98.84375 197.964844,98.4980469 198.667969,98.4980469 C199.382812,98.4980469 199.839844,98.8085938 199.957031,99.2832031 L201.164062,99.2832031 C201.041016,98.1816406 200.103516,97.5136719 198.667969,97.5136719 C197.226562,97.5136719 196.189453,98.3105469 196.189453,99.4179688 C196.189453,100.361328 196.751953,100.900391 197.964844,101.181641 L199.078125,101.445312 C199.716797,101.597656 200.015625,101.855469 200.015625,102.253906 C200.015625,102.775391 199.458984,103.138672 198.673828,103.138672 C197.912109,103.138672 197.443359,102.828125 197.285156,102.330078 L196.025391,102.330078 C196.136719,103.4375 197.126953,104.123047 198.644531,104.123047 Z M205.482422,104.123047 C207.058594,104.123047 208.042969,103.238281 208.207031,101.984375 L206.982422,101.984375 C206.818359,102.675781 206.273438,103.050781 205.476562,103.050781 C204.427734,103.050781 203.777344,102.201172 203.777344,100.794922 C203.777344,99.4179688 204.421875,98.5859375 205.476562,98.5859375 C206.320312,98.5859375 206.835938,99.0605469 206.982422,99.6816406 L208.207031,99.6816406 C208.042969,98.4453125 207.076172,97.5136719 205.476562,97.5136719 C203.619141,97.5136719 202.488281,98.7734375 202.488281,100.794922 C202.488281,102.857422 203.625,104.123047 205.482422,104.123047 Z M210.902344,104 L210.902344,100.197266 C210.902344,99.3007812 211.576172,98.6855469 212.53125,98.6855469 C212.753906,98.6855469 213.128906,98.7265625 213.234375,98.7558594 L213.234375,97.5722656 C213.099609,97.5429688 212.859375,97.5253906 212.671875,97.5253906 C211.839844,97.5253906 211.130859,97.9765625 210.949219,98.6035156 L210.855469,98.6035156 L210.855469,97.6367188 L209.642578,97.6367188 L209.642578,104 L210.902344,104 Z M215.097656,96.5 C215.537109,96.5 215.894531,96.1425781 215.894531,95.7089844 C215.894531,95.2695312 215.537109,94.9121094 215.097656,94.9121094 C214.658203,94.9121094 214.300781,95.2695312 214.300781,95.7089844 C214.300781,96.1425781 214.658203,96.5 215.097656,96.5 Z M215.724609,104 L215.724609,97.6367188 L214.470703,97.6367188 L214.470703,104 L215.724609,104 Z M220.957031,104.105469 C222.568359,104.105469 223.59375,102.822266 223.59375,100.818359 C223.59375,98.796875 222.574219,97.5253906 220.957031,97.5253906 C220.083984,97.5253906 219.333984,97.953125 218.994141,98.6445312 L218.894531,98.6445312 L218.894531,95.140625 L217.634766,95.140625 L217.634766,104 L218.847656,104 L218.847656,102.992188 L218.941406,102.992188 C219.322266,103.695312 220.066406,104.105469 220.957031,104.105469 Z M220.59375,103.027344 C219.533203,103.027344 218.876953,102.183594 218.871094,100.818359 C218.876953,99.453125 219.539062,98.6035156 220.59375,98.6035156 C221.660156,98.6035156 222.298828,99.4414062 222.298828,100.818359 C222.298828,102.195312 221.660156,103.027344 220.59375,103.027344 Z M225.755859,96.5 C226.195312,96.5 226.552734,96.1425781 226.552734,95.7089844 C226.552734,95.2695312 226.195312,94.9121094 225.755859,94.9121094 C225.316406,94.9121094 224.958984,95.2695312 224.958984,95.7089844 C224.958984,96.1425781 225.316406,96.5 225.755859,96.5 Z M226.382812,104 L226.382812,97.6367188 L225.128906,97.6367188 L225.128906,104 L226.382812,104 Z M229.494141,104 L229.494141,100.267578 C229.494141,99.2421875 230.085938,98.609375 231.017578,98.609375 C231.949219,98.609375 232.394531,99.125 232.394531,100.179688 L232.394531,104 L233.654297,104 L233.654297,99.8808594 C233.654297,98.3632812 232.869141,97.5136719 231.445312,97.5136719 C230.484375,97.5136719 229.851562,97.9414062 229.541016,98.6445312 L229.447266,98.6445312 L229.447266,97.6367188 L228.234375,97.6367188 L228.234375,104 L229.494141,104 Z M238.113281,106.431641 C239.917969,106.431641 241.060547,105.511719 241.060547,104.064453 L241.060547,97.6367188 L239.853516,97.6367188 L239.853516,98.6503906 L239.753906,98.6503906 C239.396484,97.9589844 238.628906,97.5253906 237.75,97.5253906 C236.121094,97.5253906 235.101562,98.8085938 235.101562,100.736328 C235.101562,102.646484 236.109375,103.90625 237.738281,103.90625 C238.617188,103.90625 239.320312,103.525391 239.707031,102.833984 L239.800781,102.833984 L239.800781,104.058594 C239.800781,104.919922 239.179688,105.435547 238.130859,105.435547 C237.28125,105.435547 236.748047,105.130859 236.642578,104.650391 L235.353516,104.650391 C235.488281,105.722656 236.519531,106.431641 238.113281,106.431641 Z M238.095703,102.863281 C237.011719,102.863281 236.402344,102.037109 236.402344,100.736328 C236.402344,99.4355469 237.011719,98.6035156 238.095703,98.6035156 C239.167969,98.6035156 239.824219,99.4355469 239.824219,100.736328 C239.824219,102.037109 239.173828,102.863281 238.095703,102.863281 Z M244.529297,101.199219 L244.646484,95.5390625 L243.222656,95.5390625 L243.345703,101.199219 L244.529297,101.199219 Z M243.943359,104.128906 C244.482422,104.128906 244.839844,103.777344 244.839844,103.255859 C244.839844,102.728516 244.482422,102.376953 243.943359,102.376953 C243.398438,102.376953 243.035156,102.728516 243.035156,103.255859 C243.035156,103.777344 243.398438,104.128906 243.943359,104.128906 Z" id="ThanksforSubscribing!" fill="#202022" fill-rule="nonzero"></path>
                <path d="M43.6416016,40 L43.6416016,38.3037109 L37.5595703,38.3037109 L37.5595703,34.3574219 L43.3164062,34.3574219 L43.3164062,32.7226562 L37.5595703,32.7226562 L37.5595703,29.0136719 L43.6416016,29.0136719 L43.6416016,27.3173828 L35.5908203,27.3173828 L35.5908203,40 L43.6416016,40 Z M48.1503906,40 L48.1503906,34.4013672 C48.1503906,32.8632812 49.0380859,31.9140625 50.4355469,31.9140625 C51.8330078,31.9140625 52.5009766,32.6875 52.5009766,34.2695312 L52.5009766,40 L54.390625,40 L54.390625,33.8212891 C54.390625,31.5449219 53.2128906,30.2705078 51.0771484,30.2705078 C49.6357422,30.2705078 48.6865234,30.9121094 48.2207031,31.9667969 L48.0800781,31.9667969 L48.0800781,30.4550781 L46.2607422,30.4550781 L46.2607422,40 L48.1503906,40 Z M61.0791016,43.6474609 C63.7861328,43.6474609 65.5,42.2675781 65.5,40.0966797 L65.5,30.4550781 L63.6894531,30.4550781 L63.6894531,31.9755859 L63.5400391,31.9755859 C63.0039062,30.9384766 61.8525391,30.2880859 60.5341797,30.2880859 C58.0908203,30.2880859 56.5615234,32.2128906 56.5615234,35.1044922 C56.5615234,37.9697266 58.0732422,39.859375 60.5166016,39.859375 C61.8349609,39.859375 62.8896484,39.2880859 63.4697266,38.2509766 L63.6103516,38.2509766 L63.6103516,40.0878906 C63.6103516,41.3798828 62.6787109,42.1533203 61.1054688,42.1533203 C59.8310547,42.1533203 59.03125,41.6962891 58.8730469,40.9755859 L56.9394531,40.9755859 C57.1416016,42.5839844 58.6884766,43.6474609 61.0791016,43.6474609 Z M61.0527344,38.2949219 C59.4267578,38.2949219 58.5126953,37.0556641 58.5126953,35.1044922 C58.5126953,33.1533203 59.4267578,31.9052734 61.0527344,31.9052734 C62.6611328,31.9052734 63.6455078,33.1533203 63.6455078,35.1044922 C63.6455078,37.0556641 62.6699219,38.2949219 61.0527344,38.2949219 Z M70.2197266,40 L70.2197266,26.7109375 L68.3300781,26.7109375 L68.3300781,40 L70.2197266,40 Z M74.0253906,28.75 C74.6845703,28.75 75.2207031,28.2138672 75.2207031,27.5634766 C75.2207031,26.9042969 74.6845703,26.3681641 74.0253906,26.3681641 C73.3662109,26.3681641 72.8300781,26.9042969 72.8300781,27.5634766 C72.8300781,28.2138672 73.3662109,28.75 74.0253906,28.75 Z M74.9658203,40 L74.9658203,30.4550781 L73.0849609,30.4550781 L73.0849609,40 L74.9658203,40 Z M81.2060547,40.1845703 C83.4912109,40.1845703 85.1699219,38.9804688 85.1699219,37.2050781 C85.1699219,35.8164062 84.3173828,35.0341797 82.4980469,34.6123047 L80.9072266,34.2431641 C79.8701172,33.9970703 79.3867188,33.6279297 79.3867188,33.0390625 C79.3867188,32.265625 80.1865234,31.7470703 81.2412109,31.7470703 C82.3134766,31.7470703 82.9990234,32.2128906 83.1748047,32.9248047 L84.9853516,32.9248047 C84.8007812,31.2724609 83.3945312,30.2705078 81.2412109,30.2705078 C79.0791016,30.2705078 77.5234375,31.4658203 77.5234375,33.1269531 C77.5234375,34.5419922 78.3671875,35.3505859 80.1865234,35.7724609 L81.8564453,36.1679688 C82.8144531,36.3964844 83.2626953,36.7832031 83.2626953,37.3808594 C83.2626953,38.1630859 82.4277344,38.7080078 81.25,38.7080078 C80.1074219,38.7080078 79.4042969,38.2421875 79.1669922,37.4951172 L77.2773438,37.4951172 C77.4443359,39.15625 78.9296875,40.1845703 81.2060547,40.1845703 Z M89.4238281,40 L89.4238281,34.4101562 C89.4238281,32.9160156 90.2851562,31.9228516 91.8320312,31.9228516 C93.1679688,31.9228516 93.8798828,32.7050781 93.8798828,34.2783203 L93.8798828,40 L95.7695312,40 L95.7695312,33.8300781 C95.7695312,31.5712891 94.5126953,30.2792969 92.4736328,30.2792969 C91.0322266,30.2792969 90.0214844,30.9121094 89.5556641,31.9755859 L89.40625,31.9755859 L89.40625,26.7109375 L87.5341797,26.7109375 L87.5341797,40 L89.4238281,40 Z" id="English" fill="#202022" fill-rule="nonzero"></path>
                <path d="M134.55957,40 L134.55957,34.6914062 L140.008789,34.6914062 L140.008789,33.0302734 L134.55957,33.0302734 L134.55957,29.0136719 L140.509766,29.0136719 L140.509766,27.3173828 L132.59082,27.3173828 L132.59082,40 L134.55957,40 Z M144.728516,40 L144.728516,34.2958984 C144.728516,32.9511719 145.739258,32.0283203 147.171875,32.0283203 C147.505859,32.0283203 148.068359,32.0898438 148.226562,32.1337891 L148.226562,30.3583984 C148.024414,30.3144531 147.664062,30.2880859 147.382812,30.2880859 C146.134766,30.2880859 145.071289,30.9648438 144.798828,31.9052734 L144.658203,31.9052734 L144.658203,30.4550781 L142.838867,30.4550781 L142.838867,40 L144.728516,40 Z M153.746094,40.1845703 C155.93457,40.1845703 157.481445,39.1298828 157.894531,37.4423828 L156.075195,37.4423828 C155.723633,38.2158203 154.941406,38.6376953 153.798828,38.6376953 C152.287109,38.6376953 151.311523,37.5478516 151.25,35.8164062 L151.25,35.7285156 L158.008789,35.7285156 L158.008789,35.078125 C158.008789,32.0898438 156.400391,30.2705078 153.737305,30.2705078 C151.039062,30.2705078 149.325195,32.2128906 149.325195,35.2451172 C149.325195,38.2949219 151.003906,40.1845703 153.746094,40.1845703 Z M156.083984,34.3662109 L151.25,34.3662109 C151.355469,32.828125 152.331055,31.8085938 153.728516,31.8085938 C155.125977,31.8085938 156.040039,32.8193359 156.083984,34.3662109 Z M162.166016,40 L162.166016,34.4013672 C162.166016,32.8632812 163.053711,31.9140625 164.451172,31.9140625 C165.848633,31.9140625 166.516602,32.6875 166.516602,34.2695312 L166.516602,40 L168.40625,40 L168.40625,33.8212891 C168.40625,31.5449219 167.228516,30.2705078 165.092773,30.2705078 C163.651367,30.2705078 162.702148,30.9121094 162.236328,31.9667969 L162.095703,31.9667969 L162.095703,30.4550781 L160.276367,30.4550781 L160.276367,40 L162.166016,40 Z M175.077148,40.1845703 C177.441406,40.1845703 178.917969,38.8574219 179.164062,36.9765625 L177.327148,36.9765625 C177.081055,38.0136719 176.263672,38.5761719 175.068359,38.5761719 C173.495117,38.5761719 172.519531,37.3017578 172.519531,35.1923828 C172.519531,33.1269531 173.486328,31.8789062 175.068359,31.8789062 C176.333984,31.8789062 177.107422,32.5908203 177.327148,33.5224609 L179.164062,33.5224609 C178.917969,31.6679688 177.467773,30.2705078 175.068359,30.2705078 C172.282227,30.2705078 170.585938,32.1601562 170.585938,35.1923828 C170.585938,38.2861328 172.291016,40.1845703 175.077148,40.1845703 Z M183.294922,40 L183.294922,34.4101562 C183.294922,32.9160156 184.15625,31.9228516 185.703125,31.9228516 C187.039062,31.9228516 187.750977,32.7050781 187.750977,34.2783203 L187.750977,40 L189.640625,40 L189.640625,33.8300781 C189.640625,31.5712891 188.383789,30.2792969 186.344727,30.2792969 C184.90332,30.2792969 183.892578,30.9121094 183.426758,31.9755859 L183.277344,31.9755859 L183.277344,26.7109375 L181.405273,26.7109375 L181.405273,40 L183.294922,40 Z" id="French" fill="#65656A" fill-rule="nonzero"></path>
                <path d="M54.03125,104.216797 C56.1523438,104.216797 57.4589844,103.173828 57.4589844,101.486328 C57.4589844,100.179688 56.7265625,99.4472656 55.0273438,99.0839844 L54.0078125,98.8671875 C53.0175781,98.6503906 52.6132812,98.3398438 52.6132812,97.8066406 C52.6132812,97.1445312 53.1992188,96.7167969 54.0839844,96.7167969 C54.9394531,96.7167969 55.5605469,97.1679688 55.6425781,97.859375 L57.3066406,97.859375 C57.2539062,96.3652344 55.9355469,95.328125 54.0722656,95.328125 C52.1210938,95.328125 50.8378906,96.3710938 50.8378906,97.9472656 C50.8378906,99.2304688 51.59375,100.021484 53.1347656,100.349609 L54.2363281,100.589844 C55.2734375,100.818359 55.6953125,101.140625 55.6953125,101.697266 C55.6953125,102.353516 55.0449219,102.816406 54.125,102.816406 C53.1289062,102.816406 52.4375,102.365234 52.3554688,101.662109 L50.6445312,101.662109 C50.7089844,103.226562 52.015625,104.216797 54.03125,104.216797 Z M61.1621094,104.134766 C62.140625,104.134766 62.7441406,103.712891 63.0488281,102.962891 L63.1542969,102.962891 L63.1542969,104 L64.8066406,104 L64.8066406,97.5488281 L63.1015625,97.5488281 L63.1015625,101.275391 C63.1015625,102.160156 62.6445312,102.705078 61.7949219,102.705078 C61.0097656,102.705078 60.6054688,102.242188 60.6054688,101.328125 L60.6054688,97.5488281 L58.9003906,97.5488281 L58.9003906,101.75 C58.9003906,103.25 59.7675781,104.134766 61.1621094,104.134766 Z M70.3261719,104.099609 C71.9492188,104.099609 72.9453125,102.839844 72.9453125,100.771484 C72.9453125,98.6914062 71.9609375,97.4433594 70.3261719,97.4433594 C69.4414062,97.4433594 68.7148438,97.8710938 68.3867188,98.5800781 L68.28125,98.5800781 L68.28125,95.0820312 L66.5761719,95.0820312 L66.5761719,104 L68.2285156,104 L68.2285156,102.986328 L68.3339844,102.986328 C68.6796875,103.689453 69.4121094,104.099609 70.3261719,104.099609 Z M69.734375,102.722656 C68.8320312,102.722656 68.2695312,101.978516 68.2636719,100.777344 C68.2695312,99.5761719 68.8378906,98.8261719 69.734375,98.8261719 C70.6367188,98.8261719 71.1933594,99.5703125 71.1933594,100.771484 C71.1933594,101.984375 70.6425781,102.722656 69.734375,102.722656 Z M75.2070312,96.5585938 C75.734375,96.5585938 76.1679688,96.1367188 76.1679688,95.609375 C76.1679688,95.0761719 75.734375,94.6542969 75.2070312,94.6542969 C74.6796875,94.6542969 74.2402344,95.0761719 74.2402344,95.609375 C74.2402344,96.1367188 74.6796875,96.5585938 75.2070312,96.5585938 Z M73.765625,106.197266 C75.2597656,106.197266 76.0507812,105.529297 76.0507812,104.210938 L76.0507812,97.5488281 L74.3457031,97.5488281 L74.3457031,104.164062 C74.3457031,104.697266 74.1230469,104.919922 73.5253906,104.919922 C73.4726562,104.919922 73.34375,104.914062 73.3085938,104.908203 L73.3085938,106.179688 C73.3789062,106.185547 73.6425781,106.197266 73.765625,106.197266 Z M80.5859375,104.134766 C82.1679688,104.134766 83.2871094,103.378906 83.5390625,102.177734 L81.9511719,102.177734 C81.7695312,102.617188 81.3066406,102.863281 80.6328125,102.863281 C79.7421875,102.863281 79.1796875,102.248047 79.15625,101.263672 L79.15625,101.175781 L83.5917969,101.175781 L83.5917969,100.666016 C83.5917969,98.6269531 82.4667969,97.4082031 80.5625,97.4082031 C78.640625,97.4082031 77.4570312,98.7089844 77.4570312,100.806641 C77.4570312,102.892578 78.6171875,104.134766 80.5859375,104.134766 Z M81.9160156,100.115234 L79.1621094,100.115234 C79.2207031,99.2480469 79.7773438,98.6796875 80.5683594,98.6796875 C81.3652344,98.6796875 81.8808594,99.2304688 81.9160156,100.115234 Z M87.828125,104.134766 C89.5097656,104.134766 90.5644531,103.208984 90.7050781,101.791016 L89.1113281,101.791016 C88.9824219,102.435547 88.5253906,102.78125 87.828125,102.78125 C86.9140625,102.78125 86.3925781,102.060547 86.3925781,100.759766 C86.3925781,99.4765625 86.9082031,98.7675781 87.828125,98.7675781 C88.5546875,98.7675781 88.9941406,99.1777344 89.1113281,99.7988281 L90.7050781,99.7988281 C90.5644531,98.3574219 89.5390625,97.4082031 87.828125,97.4082031 C85.8066406,97.4082031 84.6699219,98.6328125 84.6699219,100.759766 C84.6699219,102.910156 85.8125,104.134766 87.828125,104.134766 Z M94.7714844,104.023438 C95.0996094,104.023438 95.4160156,103.988281 95.6269531,103.947266 L95.6269531,102.6875 C95.4628906,102.705078 95.3457031,102.716797 95.1230469,102.716797 C94.5429688,102.716797 94.2851562,102.447266 94.2851562,101.867188 L94.2851562,98.9023438 L95.6269531,98.9023438 L95.6269531,97.6074219 L94.2851562,97.6074219 L94.2851562,96.0078125 L92.5800781,96.0078125 L92.5800781,97.6074219 L91.5722656,97.6074219 L91.5722656,98.9023438 L92.5800781,98.9023438 L92.5800781,102.259766 C92.5800781,103.513672 93.2011719,104.023438 94.7714844,104.023438 Z M98.2753906,99.9863281 C98.9082031,99.9863281 99.3125,99.5644531 99.3125,98.9902344 C99.3125,98.4160156 98.9082031,98 98.2753906,98 C97.6484375,98 97.2382812,98.4160156 97.2382812,98.9902344 C97.2382812,99.5644531 97.6484375,99.9863281 98.2753906,99.9863281 Z M98.2753906,104.146484 C98.9082031,104.146484 99.3125,103.724609 99.3125,103.150391 C99.3125,102.576172 98.9082031,102.160156 98.2753906,102.160156 C97.6484375,102.160156 97.2382812,102.576172 97.2382812,103.150391 C97.2382812,103.724609 97.6484375,104.146484 98.2753906,104.146484 Z" id="Subject:" fill="#65656A" fill-rule="nonzero"></path>
                <path d="M230.93457,40.3076172 C234.256836,40.3076172 236.410156,38.2246094 236.410156,35.0078125 L236.410156,33.4345703 L231.207031,33.4345703 L231.207031,35.0253906 L234.476562,35.0253906 L234.476562,35.3066406 C234.458984,37.2490234 233.035156,38.5585938 230.960938,38.5585938 C228.579102,38.5585938 227.084961,36.6865234 227.084961,33.6455078 C227.084961,30.6484375 228.570312,28.7587891 230.916992,28.7587891 C232.648438,28.7587891 233.852539,29.6113281 234.344727,31.1845703 L236.322266,31.1845703 C235.891602,28.6269531 233.799805,27.0097656 230.916992,27.0097656 C227.366211,27.0097656 225.072266,29.6201172 225.072266,33.6542969 C225.072266,37.7412109 227.339844,40.3076172 230.93457,40.3076172 Z M242.84375,40.1845703 C245.032227,40.1845703 246.579102,39.1298828 246.992188,37.4423828 L245.172852,37.4423828 C244.821289,38.2158203 244.039062,38.6376953 242.896484,38.6376953 C241.384766,38.6376953 240.40918,37.5478516 240.347656,35.8164062 L240.347656,35.7285156 L247.106445,35.7285156 L247.106445,35.078125 C247.106445,32.0898438 245.498047,30.2705078 242.834961,30.2705078 C240.136719,30.2705078 238.422852,32.2128906 238.422852,35.2451172 C238.422852,38.2949219 240.101562,40.1845703 242.84375,40.1845703 Z M245.181641,34.3662109 L240.347656,34.3662109 C240.453125,32.828125 241.428711,31.8085938 242.826172,31.8085938 C244.223633,31.8085938 245.137695,32.8193359 245.181641,34.3662109 Z M251.263672,40 L251.263672,34.2958984 C251.263672,32.9511719 252.274414,32.0283203 253.707031,32.0283203 C254.041016,32.0283203 254.603516,32.0898438 254.761719,32.1337891 L254.761719,30.3583984 C254.55957,30.3144531 254.199219,30.2880859 253.917969,30.2880859 C252.669922,30.2880859 251.606445,30.9648438 251.333984,31.9052734 L251.193359,31.9052734 L251.193359,30.4550781 L249.374023,30.4550781 L249.374023,40 L251.263672,40 Z M258.611328,40 L258.611328,34.1376953 C258.611328,32.8896484 259.481445,31.9140625 260.632812,31.9140625 C261.757812,31.9140625 262.478516,32.5908203 262.478516,33.6806641 L262.478516,40 L264.333008,40 L264.333008,33.9619141 C264.333008,32.8105469 265.132812,31.9140625 266.354492,31.9140625 C267.59375,31.9140625 268.208984,32.5556641 268.208984,33.8740234 L268.208984,40 L270.098633,40 L270.098633,33.4169922 C270.098633,31.4306641 268.973633,30.2705078 267.040039,30.2705078 C265.712891,30.2705078 264.614258,30.9472656 264.130859,31.9755859 L263.981445,31.9755859 C263.55957,30.9472656 262.654297,30.2705078 261.344727,30.2705078 C260.070312,30.2705078 259.103516,30.9033203 258.681641,31.9755859 L258.541016,31.9755859 L258.541016,30.4550781 L256.72168,30.4550781 L256.72168,40 L258.611328,40 Z M275.398438,40.1582031 C276.655273,40.1582031 277.701172,39.6132812 278.272461,38.6464844 L278.421875,38.6464844 L278.421875,40 L280.241211,40 L280.241211,33.4697266 C280.241211,31.4658203 278.887695,30.2705078 276.488281,30.2705078 C274.317383,30.2705078 272.770508,31.3164062 272.577148,32.9248047 L274.405273,32.9248047 C274.616211,32.2304688 275.345703,31.8349609 276.400391,31.8349609 C277.692383,31.8349609 278.360352,32.4238281 278.360352,33.4697266 L278.360352,34.3046875 L275.767578,34.4628906 C273.491211,34.6035156 272.208008,35.5966797 272.208008,37.3105469 C272.208008,39.0507812 273.552734,40.1582031 275.398438,40.1582031 Z M275.881836,38.6376953 C274.853516,38.6376953 274.106445,38.1191406 274.106445,37.2314453 C274.106445,36.3613281 274.704102,35.8955078 276.022461,35.8076172 L278.360352,35.6494141 L278.360352,36.4755859 C278.360352,37.7060547 277.305664,38.6376953 275.881836,38.6376953 Z M284.820312,40 L284.820312,34.4013672 C284.820312,32.8632812 285.708008,31.9140625 287.105469,31.9140625 C288.50293,31.9140625 289.170898,32.6875 289.170898,34.2695312 L289.170898,40 L291.060547,40 L291.060547,33.8212891 C291.060547,31.5449219 289.882812,30.2705078 287.74707,30.2705078 C286.305664,30.2705078 285.356445,30.9121094 284.890625,31.9667969 L284.75,31.9667969 L284.75,30.4550781 L282.930664,30.4550781 L282.930664,40 L284.820312,40 Z" id="German" fill="#65656A" fill-rule="nonzero"></path>
                <path d="M333.169922,40 C336.949219,40 339.137695,37.6621094 339.137695,33.6279297 C339.137695,29.6376953 336.931641,27.3173828 333.169922,27.3173828 L328.59082,27.3173828 L328.59082,40 L333.169922,40 Z M332.950195,38.3037109 L330.55957,38.3037109 L330.55957,29.0136719 L332.950195,29.0136719 C335.578125,29.0136719 337.133789,30.7275391 337.133789,33.6542969 C337.133789,36.6074219 335.604492,38.3037109 332.950195,38.3037109 Z M344.789062,40.1845703 C346.239258,40.1845703 347.214844,39.5693359 347.680664,38.4882812 L347.830078,38.4882812 L347.830078,40 L349.649414,40 L349.649414,30.4550781 L347.759766,30.4550781 L347.759766,36.0537109 C347.759766,37.5917969 346.924805,38.5234375 345.395508,38.5234375 C344.006836,38.5234375 343.382812,37.7675781 343.382812,36.1855469 L343.382812,30.4550781 L341.493164,30.4550781 L341.493164,36.6513672 C341.493164,38.8925781 342.670898,40.1845703 344.789062,40.1845703 Z M355.995117,40.0615234 C356.364258,40.0615234 356.71582,40.0175781 357.023438,39.9648438 L357.023438,38.4619141 C356.759766,38.4882812 356.592773,38.5058594 356.302734,38.5058594 C355.362305,38.5058594 354.949219,38.0576172 354.949219,37.0292969 L354.949219,31.9931641 L357.023438,31.9931641 L357.023438,30.4814453 L354.949219,30.4814453 L354.949219,28.046875 L353.05957,28.046875 L353.05957,30.4814453 L351.539062,30.4814453 L351.539062,31.9931641 L353.05957,31.9931641 L353.05957,37.4863281 C353.05957,39.3232422 353.894531,40.0615234 355.995117,40.0615234 Z M363.158203,40.1845703 C365.522461,40.1845703 366.999023,38.8574219 367.245117,36.9765625 L365.408203,36.9765625 C365.162109,38.0136719 364.344727,38.5761719 363.149414,38.5761719 C361.576172,38.5761719 360.600586,37.3017578 360.600586,35.1923828 C360.600586,33.1269531 361.567383,31.8789062 363.149414,31.8789062 C364.415039,31.8789062 365.188477,32.5908203 365.408203,33.5224609 L367.245117,33.5224609 C366.999023,31.6679688 365.548828,30.2705078 363.149414,30.2705078 C360.363281,30.2705078 358.666992,32.1601562 358.666992,35.1923828 C358.666992,38.2861328 360.37207,40.1845703 363.158203,40.1845703 Z M371.375977,40 L371.375977,34.4101562 C371.375977,32.9160156 372.237305,31.9228516 373.78418,31.9228516 C375.120117,31.9228516 375.832031,32.7050781 375.832031,34.2783203 L375.832031,40 L377.72168,40 L377.72168,33.8300781 C377.72168,31.5712891 376.464844,30.2792969 374.425781,30.2792969 C372.984375,30.2792969 371.973633,30.9121094 371.507812,31.9755859 L371.358398,31.9755859 L371.358398,26.7109375 L369.486328,26.7109375 L369.486328,40 L371.375977,40 Z" id="Dutch" fill="#65656A" fill-rule="nonzero"></path>
                <line x1="34.5" y1="54.5" x2="385.5" y2="54.5" id="Line" stroke="#D9D9DC" stroke-linecap="square"></line>
                <rect id="Rectangle" fill="#202022" x="34" y="51" width="63" height="4"></rect>
                <line x1="56.1966019" y1="172" x2="341.803398" y2="172" id="Line-2-Copy" stroke="#F6F6F6" stroke-width="11" stroke-linecap="square"></line>
                <line x1="56.1966019" y1="144" x2="341.803398" y2="144" id="Line-2" stroke="#F6F6F6" stroke-width="11" stroke-linecap="square"></line>
            </g>
            <g id="logo-new" opacity="0.5992141" transform="translate(170.000000, 225.000000)" fill="#3F4450" fill-rule="nonzero">
                <path d="M36.7169123,17.7907368 L30.9592515,17.7907368 C30.8998363,17.7907368 30.852117,17.7425497 30.852117,17.6836023 L30.852117,13.6583392 C30.852117,13.5993918 30.8998363,13.5512047 30.9592515,13.5512047 L35.0055673,13.5512047 C35.4944561,13.5512047 35.9014737,13.1643041 35.9014737,12.675883 C35.9014737,12.1668772 35.4944561,11.7795088 35.0055673,11.7795088 L30.9592515,11.7795088 C30.8998363,11.7795088 30.852117,11.7317895 30.852117,11.6723743 L30.852117,7.41038596 C30.852117,7.35097076 30.8993684,7.30325146 30.9592515,7.30325146 L36.4731696,7.30325146 C36.9611228,7.30325146 37.3686082,6.91588304 37.3686082,6.40687719 C37.3686082,5.9179883 36.9611228,5.53108772 36.4731696,5.53108772 L29.9155088,5.53108772 C29.4060351,5.53108772 28.957848,5.97927485 28.957848,6.5088655 L28.957848,18.5851228 C28.957848,19.1142456 29.4060351,19.5624327 29.9155088,19.5624327 L36.7169123,19.5624327 C37.2053333,19.5624327 37.6128187,19.1750643 37.6128187,18.6866433 C37.6128187,18.1776374 37.2053333,17.7907368 36.7169123,17.7907368" id="Fill-1"></path>
                <path d="M44.5294035,9.84870175 C43.4903392,9.84870175 42.1261287,10.3371228 41.5563041,11.4772398 L41.5563041,10.8872982 C41.5563041,10.3778246 41.1483509,9.95022222 40.6192281,9.95022222 C40.1102222,9.95022222 39.7032047,10.3778246 39.7032047,10.8872982 L39.7032047,18.7272982 C39.7032047,19.2363041 40.1102222,19.6643743 40.6196959,19.6643743 C41.1483509,19.6643743 41.5563041,19.2363041 41.5563041,18.7272982 L41.5563041,14.4302222 C41.5563041,12.4147836 42.8999298,11.6610994 44.2440234,11.6610994 C45.5474152,11.6610994 46.3413333,12.5977076 46.3413333,14.1860117 L46.3413333,18.7272982 C46.3413333,19.2363041 46.7488187,19.6643743 47.2578246,19.6643743 C47.787883,19.6643743 48.1944327,19.2363041 48.1944327,18.7272982 L48.1944327,14.0639064 C48.1944327,11.3963041 46.8919766,9.84870175 44.5294035,9.84870175" id="Fill-3"></path>
                <path d="M58.2739181,9.99078363 C57.7854971,9.8485614 57.3373099,10.0927719 57.1333333,10.6022456 L54.5854971,17.1285614 C54.5499415,17.2193216 54.4217544,17.2197895 54.385731,17.1290292 L51.8182456,10.6022456 C51.6152047,10.0927719 51.1670175,9.8485614 50.6781287,9.99078363 C50.1691228,10.1128889 49.9239766,10.7037661 50.0872515,11.1519532 L53.2638596,18.7884444 C53.508538,19.338152 53.8959064,19.6642339 54.445614,19.6642339 L54.5471345,19.6642339 C55.0968421,19.6642339 55.4636257,19.338152 55.6877193,18.7884444 L58.8442105,11.1519532 C59.0065497,10.7037661 58.782924,10.1128889 58.2739181,9.99078363" id="Fill-5"></path>
                <path d="M65.0676023,9.84846784 C62.3588304,9.84846784 60.0987135,11.762386 60.0987135,14.776655 C60.0987135,17.790924 62.3588304,19.7656608 65.0676023,19.7656608 C67.7759064,19.7656608 70.0566082,17.790924 70.0566082,14.776655 C70.0566082,11.762386 67.7759064,9.84846784 65.0676023,9.84846784 M65.0676023,17.973848 C63.357193,17.973848 61.9316959,16.7111579 61.9316959,14.776655 C61.9316959,12.8627368 63.357193,11.6613333 65.0676023,11.6613333 C66.7780117,11.6613333 68.2030409,12.8627368 68.2030409,14.776655 C68.2030409,16.7111579 66.7780117,17.973848 65.0676023,17.973848" id="Fill-7"></path>
                <path d="M79.4325614,10.0111345 C78.9642573,9.82774269 78.4140819,10.0518363 78.2311579,10.5201404 L75.6828538,16.6955789 C75.6463626,16.784 75.5209825,16.784 75.4844912,16.6960468 L72.9567719,10.5818947 C72.7527953,10.0728889 72.2849591,9.84879532 71.7759532,9.99101754 C71.2870643,10.1337076 71.0629708,10.724117 71.2253099,11.1919532 L74.5483509,19.2359298 C74.5595789,19.2625965 74.5595789,19.2920702 74.5483509,19.3187368 L74.036538,20.5397895 C73.4667135,21.883883 73.0582924,22.6370994 71.8367719,22.6370994 L71.5518596,22.6370994 C71.1036725,22.6169825 70.696655,22.9636491 70.6760702,23.4319532 C70.6554854,23.8796725 71.0218012,24.2464561 71.4695205,24.2866901 C71.6940819,24.3077427 71.8367719,24.3077427 71.8784094,24.3077427 C73.8732632,24.3077427 74.7696374,23.4113684 75.7258947,21.2523041 L79.9219181,11.2130058 C80.1249591,10.7442339 79.9219181,10.1949942 79.4325614,10.0111345" id="Fill-9"></path>
                <path d="M7.64734503,7.30325146 L13.3324912,7.30325146 C13.8213801,7.30325146 14.2185731,6.90652632 14.2185731,6.41670175 C14.2185731,5.92781287 13.8213801,5.53061988 13.3324912,5.53061988 L7.64734503,5.53061988 C7.15845614,5.53061988 6.76126316,5.92781287 6.76126316,6.41670175 C6.76126316,6.90652632 7.15845614,7.30325146 7.64734503,7.30325146" id="Fill-12"></path>
                <path d="M18.9233684,-9.35672515e-05 L2.2482807,-9.35672515e-05 C1.00664327,-9.35672515e-05 -0.000140350877,1.00669006 -0.000140350877,2.24832749 L-0.000140350877,22.8509006 C-0.000140350877,24.0930058 1.00664327,25.0997895 2.2482807,25.0997895 L18.9233684,25.0997895 C20.1650058,25.0997895 21.1717895,24.0930058 21.1717895,22.8509006 L21.1717895,2.24832749 C21.1717895,1.00669006 20.1650058,-9.35672515e-05 18.9233684,-9.35672515e-05 L18.9233684,-9.35672515e-05 Z M19.3996257,22.3334737 C19.3996257,22.8822456 18.9542456,23.3276257 18.4054737,23.3276257 L2.76664327,23.3276257 C2.21740351,23.3276257 1.77249123,22.8822456 1.77249123,22.3334737 L1.77249123,2.76622222 C1.77249123,2.21745029 2.21740351,1.77207018 2.76664327,1.77207018 L18.4054737,1.77207018 C18.9542456,1.77207018 19.3996257,2.21745029 19.3996257,2.76622222 L19.3996257,22.3334737 Z" id="Fill-14"></path>
                <path d="M13.5012398,17.7966784 L8.53375439,17.7966784 L8.53375439,15.5164444 L11.3529357,15.5164444 C11.8418246,15.5164444 12.2385497,15.1201871 12.2385497,14.6303626 C12.2385497,14.1414737 11.8418246,13.7442807 11.3529357,13.7442807 L8.53375439,13.7442807 L8.53375439,11.6207719 L13.2865029,11.6207719 C13.7758596,11.6207719 14.1725848,11.2240468 14.1725848,10.7346901 C14.1725848,10.2453333 13.7758596,9.84907602 13.2865029,9.84907602 L7.64767251,9.84907602 C7.15831579,9.84907602 6.76159064,10.2453333 6.76159064,10.7346901 L6.76159064,18.6832281 C6.76159064,19.1716491 7.15831579,19.5688421 7.64767251,19.5688421 L13.5012398,19.5688421 C13.9905965,19.5688421 14.3873216,19.1716491 14.3873216,18.6832281 C14.3873216,18.1934035 13.9905965,17.7966784 13.5012398,17.7966784" id="Fill-17"></path>
            </g>
        </g>
    </g>
</svg>