<?xml version="1.0" encoding="UTF-8"?>
<svg width="468px" height="341px" viewBox="0 0 468 341" version="1.1" xmlns="http://www.w3.org/2000/svg" xmlns:xlink="http://www.w3.org/1999/xlink">
    <!-- Generator: Sketch 63.1 (92452) - https://sketch.com -->
    <title>Group 13</title>
    <desc>Created with Sketch.</desc>
    <defs>
        <rect id="path-1" x="0" y="0" width="420" height="293" rx="15"></rect>
        <filter x="-8.8%" y="-11.9%" width="117.6%" height="125.3%" filterUnits="objectBoundingBox" id="filter-2">
            <feOffset dx="0" dy="2" in="SourceAlpha" result="shadowOffsetOuter1"></feOffset>
            <feGaussianBlur stdDeviation="12" in="shadowOffsetOuter1" result="shadowBlurOuter1"></feGaussianBlur>
            <feColorMatrix values="0 0 0 0 0.781221694   0 0 0 0 0.781221694   0 0 0 0 0.781221694  0 0 0 0.5 0" type="matrix" in="shadowBlurOuter1"></feColorMatrix>
        </filter>
        <linearGradient x1="49.9989467%" y1="99.9549384%" x2="49.9989467%" y2="5.56815761%" id="linearGradient-3">
            <stop stop-color="#FFFFFF" stop-opacity="0" offset="0%"></stop>
            <stop stop-color="#FFFFFF" stop-opacity="0.0602100989" offset="0.0361900128%"></stop>
            <stop stop-color="#FFFFFF" offset="66.5191969%"></stop>
            <stop stop-color="#FFFFFF" stop-opacity="0.918259079" offset="100%"></stop>
        </linearGradient>
    </defs>
    <g id="Page-1" stroke="none" stroke-width="1" fill="none" fill-rule="evenodd">
        <g id="Group-13" transform="translate(24.000000, 22.000000)">
            <g id="Rectangle-Copy-22">
                <use fill="black" fill-opacity="1" filter="url(#filter-2)" xlink:href="#path-1"></use>
                <use fill="#FFFFFF" fill-rule="evenodd" xlink:href="#path-1"></use>
            </g>
            <path d="M30.34375,136 L31.3828125,132.953125 L35.6796875,132.953125 L36.7109375,136 L38.5703125,136 L34.5,124.726562 L32.6171875,124.726562 L28.546875,136 L30.34375,136 Z M35.234375,131.546875 L31.828125,131.546875 L33.46875,126.71875 L33.6015625,126.71875 L35.234375,131.546875 Z M43.4375,136.164062 C45.5390625,136.164062 46.8515625,134.984375 47.0703125,133.3125 L45.4375,133.3125 C45.21875,134.234375 44.4921875,134.734375 43.4296875,134.734375 C42.03125,134.734375 41.1640625,133.601562 41.1640625,131.726562 C41.1640625,129.890625 42.0234375,128.78125 43.4296875,128.78125 C44.5546875,128.78125 45.2421875,129.414062 45.4375,130.242188 L47.0703125,130.242188 C46.8515625,128.59375 45.5625,127.351562 43.4296875,127.351562 C40.953125,127.351562 39.4453125,129.03125 39.4453125,131.726562 C39.4453125,134.476562 40.9609375,136.164062 43.4375,136.164062 Z M52.3125,136.054688 C52.640625,136.054688 52.953125,136.015625 53.2265625,135.96875 L53.2265625,134.632812 C52.9921875,134.65625 52.84375,134.671875 52.5859375,134.671875 C51.75,134.671875 51.3828125,134.273438 51.3828125,133.359375 L51.3828125,128.882812 L53.2265625,128.882812 L53.2265625,127.539062 L51.3828125,127.539062 L51.3828125,125.375 L49.703125,125.375 L49.703125,127.539062 L48.3515625,127.539062 L48.3515625,128.882812 L49.703125,128.882812 L49.703125,133.765625 C49.703125,135.398438 50.4453125,136.054688 52.3125,136.054688 Z M56.0703125,126 C56.65625,126 57.1328125,125.523438 57.1328125,124.945312 C57.1328125,124.359375 56.65625,123.882812 56.0703125,123.882812 C55.484375,123.882812 55.0078125,124.359375 55.0078125,124.945312 C55.0078125,125.523438 55.484375,126 56.0703125,126 Z M56.90625,136 L56.90625,127.515625 L55.234375,127.515625 L55.234375,136 L56.90625,136 Z M63.515625,136 L66.578125,127.515625 L64.796875,127.515625 L62.6875,134.28125 L62.5546875,134.28125 L60.4375,127.515625 L58.640625,127.515625 L61.7109375,136 L63.515625,136 Z M71.4609375,136.164062 C73.40625,136.164062 74.78125,135.226562 75.1484375,133.726562 L73.53125,133.726562 C73.21875,134.414062 72.5234375,134.789062 71.5078125,134.789062 C70.1640625,134.789062 69.296875,133.820312 69.2421875,132.28125 L69.2421875,132.203125 L75.25,132.203125 L75.25,131.625 C75.25,128.96875 73.8203125,127.351562 71.453125,127.351562 C69.0546875,127.351562 67.53125,129.078125 67.53125,131.773438 C67.53125,134.484375 69.0234375,136.164062 71.4609375,136.164062 Z M73.5390625,130.992188 L69.2421875,130.992188 C69.3359375,129.625 70.203125,128.71875 71.4453125,128.71875 C72.6875,128.71875 73.5,129.617188 73.5390625,130.992188 Z M83.9921875,136.140625 C85.109375,136.140625 86.0390625,135.65625 86.546875,134.796875 L86.6796875,134.796875 L86.6796875,136 L88.296875,136 L88.296875,130.195312 C88.296875,128.414062 87.09375,127.351562 84.9609375,127.351562 C83.03125,127.351562 81.65625,128.28125 81.484375,129.710938 L83.109375,129.710938 C83.296875,129.09375 83.9453125,128.742188 84.8828125,128.742188 C86.03125,128.742188 86.625,129.265625 86.625,130.195312 L86.625,130.9375 L84.3203125,131.078125 C82.296875,131.203125 81.15625,132.085938 81.15625,133.609375 C81.15625,135.15625 82.3515625,136.140625 83.9921875,136.140625 Z M84.421875,134.789062 C83.5078125,134.789062 82.84375,134.328125 82.84375,133.539062 C82.84375,132.765625 83.375,132.351562 84.546875,132.273438 L86.625,132.132812 L86.625,132.867188 C86.625,133.960938 85.6875,134.789062 84.421875,134.789062 Z M92.3671875,136 L92.3671875,131.023438 C92.3671875,129.65625 93.15625,128.8125 94.3984375,128.8125 C95.640625,128.8125 96.234375,129.5 96.234375,130.90625 L96.234375,136 L97.9140625,136 L97.9140625,130.507812 C97.9140625,128.484375 96.8671875,127.351562 94.96875,127.351562 C93.6875,127.351562 92.84375,127.921875 92.4296875,128.859375 L92.3046875,128.859375 L92.3046875,127.515625 L90.6875,127.515625 L90.6875,136 L92.3671875,136 Z M103.382812,136.140625 C104.554688,136.140625 105.546875,135.585938 106.054688,134.65625 L106.1875,134.65625 L106.1875,136 L107.796875,136 L107.796875,124.1875 L106.117188,124.1875 L106.117188,128.859375 L105.992188,128.859375 C105.53125,127.929688 104.546875,127.367188 103.382812,127.367188 C101.234375,127.367188 99.8515625,129.078125 99.8515625,131.75 C99.8515625,134.4375 101.21875,136.140625 103.382812,136.140625 Z M103.859375,134.703125 C102.4375,134.703125 101.585938,133.601562 101.585938,131.757812 C101.585938,129.921875 102.445312,128.804688 103.859375,128.804688 C105.265625,128.804688 106.148438,129.945312 106.148438,131.757812 C106.148438,133.585938 105.273438,134.703125 103.859375,134.703125 Z M116.585938,136 L116.585938,127.8125 L116.710938,127.8125 L122.5,136 L124.078125,136 L124.078125,124.726562 L122.375,124.726562 L122.375,132.929688 L122.25,132.929688 L116.460938,124.726562 L114.882812,124.726562 L114.882812,136 L116.585938,136 Z M130.304688,136.164062 C132.789062,136.164062 134.3125,134.5 134.3125,131.757812 C134.3125,129.015625 132.78125,127.351562 130.304688,127.351562 C127.820312,127.351562 126.289062,129.023438 126.289062,131.757812 C126.289062,134.5 127.8125,136.164062 130.304688,136.164062 Z M130.304688,134.734375 C128.84375,134.734375 128.023438,133.648438 128.023438,131.757812 C128.023438,129.867188 128.84375,128.773438 130.304688,128.773438 C131.757812,128.773438 132.585938,129.867188 132.585938,131.757812 C132.585938,133.640625 131.757812,134.734375 130.304688,134.734375 Z M138.007812,136 L138.007812,131.023438 C138.007812,129.65625 138.796875,128.8125 140.039062,128.8125 C141.28125,128.8125 141.875,129.5 141.875,130.90625 L141.875,136 L143.554688,136 L143.554688,130.507812 C143.554688,128.484375 142.507812,127.351562 140.609375,127.351562 C139.328125,127.351562 138.484375,127.921875 138.070312,128.859375 L137.945312,128.859375 L137.945312,127.515625 L136.328125,127.515625 L136.328125,136 L138.007812,136 Z M152.234375,136 L152.234375,131.664062 L154.703125,131.664062 L157,136 L159.023438,136 L156.492188,131.390625 C157.867188,130.929688 158.679688,129.695312 158.679688,128.171875 C158.679688,126.070312 157.21875,124.726562 154.945312,124.726562 L150.484375,124.726562 L150.484375,136 L152.234375,136 Z M154.75,130.226562 L152.234375,130.226562 L152.234375,126.195312 L154.703125,126.195312 C156.054688,126.195312 156.882812,126.953125 156.882812,128.210938 C156.882812,129.5 156.101562,130.226562 154.75,130.226562 Z M164.234375,136.164062 C166.179688,136.164062 167.554688,135.226562 167.921875,133.726562 L166.304688,133.726562 C165.992188,134.414062 165.296875,134.789062 164.28125,134.789062 C162.9375,134.789062 162.070312,133.820312 162.015625,132.28125 L162.015625,132.203125 L168.023438,132.203125 L168.023438,131.625 C168.023438,128.96875 166.59375,127.351562 164.226562,127.351562 C161.828125,127.351562 160.304688,129.078125 160.304688,131.773438 C160.304688,134.484375 161.796875,136.164062 164.234375,136.164062 Z M166.3125,130.992188 L162.015625,130.992188 C162.109375,129.625 162.976562,128.71875 164.21875,128.71875 C165.460938,128.71875 166.273438,129.617188 166.3125,130.992188 Z M171.71875,136 L171.71875,131.023438 C171.71875,129.65625 172.507812,128.8125 173.75,128.8125 C174.992188,128.8125 175.585938,129.5 175.585938,130.90625 L175.585938,136 L177.265625,136 L177.265625,130.507812 C177.265625,128.484375 176.21875,127.351562 174.320312,127.351562 C173.039062,127.351562 172.195312,127.921875 171.78125,128.859375 L171.65625,128.859375 L171.65625,127.515625 L170.039062,127.515625 L170.039062,136 L171.71875,136 Z M183.132812,136.164062 C185.078125,136.164062 186.453125,135.226562 186.820312,133.726562 L185.203125,133.726562 C184.890625,134.414062 184.195312,134.789062 183.179688,134.789062 C181.835938,134.789062 180.96875,133.820312 180.914062,132.28125 L180.914062,132.203125 L186.921875,132.203125 L186.921875,131.625 C186.921875,128.96875 185.492188,127.351562 183.125,127.351562 C180.726562,127.351562 179.203125,129.078125 179.203125,131.773438 C179.203125,134.484375 180.695312,136.164062 183.132812,136.164062 Z M185.210938,130.992188 L180.914062,130.992188 C181.007812,129.625 181.875,128.71875 183.117188,128.71875 C184.359375,128.71875 185.171875,129.617188 185.210938,130.992188 Z M192.242188,136 L193.992188,129.671875 L194.125,129.671875 L195.882812,136 L197.625,136 L199.960938,127.515625 L198.28125,127.515625 L196.765625,134.0625 L196.632812,134.0625 L194.882812,127.515625 L193.273438,127.515625 L191.523438,134.0625 L191.398438,134.0625 L189.875,127.515625 L188.171875,127.515625 L190.515625,136 L192.242188,136 Z M202.5625,126 C203.148438,126 203.625,125.523438 203.625,124.945312 C203.625,124.359375 203.148438,123.882812 202.5625,123.882812 C201.976562,123.882812 201.5,124.359375 201.5,124.945312 C201.5,125.523438 201.976562,126 202.5625,126 Z M203.398438,136 L203.398438,127.515625 L201.726562,127.515625 L201.726562,136 L203.398438,136 Z M207.546875,136 L207.546875,131.023438 C207.546875,129.65625 208.335938,128.8125 209.578125,128.8125 C210.820312,128.8125 211.414062,129.5 211.414062,130.90625 L211.414062,136 L213.09375,136 L213.09375,130.507812 C213.09375,128.484375 212.046875,127.351562 210.148438,127.351562 C208.867188,127.351562 208.023438,127.921875 207.609375,128.859375 L207.484375,128.859375 L207.484375,127.515625 L205.867188,127.515625 L205.867188,136 L207.546875,136 Z M219.039062,139.242188 C221.445312,139.242188 222.96875,138.015625 222.96875,136.085938 L222.96875,127.515625 L221.359375,127.515625 L221.359375,128.867188 L221.226562,128.867188 C220.75,127.945312 219.726562,127.367188 218.554688,127.367188 C216.382812,127.367188 215.023438,129.078125 215.023438,131.648438 C215.023438,134.195312 216.367188,135.875 218.539062,135.875 C219.710938,135.875 220.648438,135.367188 221.164062,134.445312 L221.289062,134.445312 L221.289062,136.078125 C221.289062,137.226562 220.460938,137.914062 219.0625,137.914062 C217.929688,137.914062 217.21875,137.507812 217.078125,136.867188 L215.359375,136.867188 C215.539062,138.296875 216.914062,139.242188 219.039062,139.242188 Z M219.015625,134.484375 C217.570312,134.484375 216.757812,133.382812 216.757812,131.648438 C216.757812,129.914062 217.570312,128.804688 219.015625,128.804688 C220.445312,128.804688 221.320312,129.914062 221.320312,131.648438 C221.320312,133.382812 220.453125,134.484375 219.015625,134.484375 Z M30.34375,161 L31.3828125,157.953125 L35.6796875,157.953125 L36.7109375,161 L38.5703125,161 L34.5,149.726562 L32.6171875,149.726562 L28.546875,161 L30.34375,161 Z M35.234375,156.546875 L31.828125,156.546875 L33.46875,151.71875 L33.6015625,151.71875 L35.234375,156.546875 Z M42.09375,161 L42.09375,149.1875 L40.4140625,149.1875 L40.4140625,161 L42.09375,161 Z M46.3671875,161 L46.3671875,149.1875 L44.6875,149.1875 L44.6875,161 L46.3671875,161 Z M57.2265625,161.273438 C59.8984375,161.273438 61.5703125,159.929688 61.5703125,157.796875 C61.5703125,156.109375 60.6171875,155.179688 58.3046875,154.625 L57.0625,154.320312 C55.59375,153.960938 55,153.492188 55,152.671875 C55,151.617188 55.921875,150.9375 57.3046875,150.9375 C58.6171875,150.9375 59.5234375,151.59375 59.6875,152.664062 L61.390625,152.664062 C61.2890625,150.78125 59.6171875,149.453125 57.328125,149.453125 C54.8671875,149.453125 53.2265625,150.78125 53.2265625,152.765625 C53.2265625,154.40625 54.15625,155.375 56.1953125,155.867188 L57.6484375,156.21875 C59.140625,156.578125 59.796875,157.125 59.796875,158.007812 C59.796875,159.039062 58.765625,159.78125 57.359375,159.78125 C55.8515625,159.78125 54.8046875,159.085938 54.65625,157.992188 L52.921875,157.992188 C53.046875,159.992188 54.7265625,161.273438 57.2265625,161.273438 Z M66.5234375,161.164062 C67.8125,161.164062 68.6796875,160.617188 69.09375,159.65625 L69.2265625,159.65625 L69.2265625,161 L70.84375,161 L70.84375,152.515625 L69.1640625,152.515625 L69.1640625,157.492188 C69.1640625,158.859375 68.421875,159.6875 67.0625,159.6875 C65.828125,159.6875 65.2734375,159.015625 65.2734375,157.609375 L65.2734375,152.515625 L63.59375,152.515625 L63.59375,158.023438 C63.59375,160.015625 64.640625,161.164062 66.5234375,161.164062 Z M77.7890625,161.140625 C79.9375,161.140625 81.3046875,159.429688 81.3046875,156.757812 C81.3046875,154.0625 79.9453125,152.367188 77.7890625,152.367188 C76.625,152.367188 75.625,152.9375 75.171875,153.859375 L75.0390625,153.859375 L75.0390625,149.1875 L73.359375,149.1875 L73.359375,161 L74.9765625,161 L74.9765625,159.65625 L75.1015625,159.65625 C75.609375,160.59375 76.6015625,161.140625 77.7890625,161.140625 Z M77.3046875,159.703125 C75.890625,159.703125 75.015625,158.578125 75.0078125,156.757812 C75.015625,154.9375 75.8984375,153.804688 77.3046875,153.804688 C78.7265625,153.804688 79.578125,154.921875 79.578125,156.757812 C79.578125,158.59375 78.7265625,159.703125 77.3046875,159.703125 Z M86.3984375,161.164062 C88.4296875,161.164062 89.921875,160.09375 89.921875,158.515625 C89.921875,157.28125 89.1640625,156.585938 87.546875,156.210938 L86.1328125,155.882812 C85.2109375,155.664062 84.78125,155.335938 84.78125,154.8125 C84.78125,154.125 85.4921875,153.664062 86.4296875,153.664062 C87.3828125,153.664062 87.9921875,154.078125 88.1484375,154.710938 L89.7578125,154.710938 C89.59375,153.242188 88.34375,152.351562 86.4296875,152.351562 C84.5078125,152.351562 83.125,153.414062 83.125,154.890625 C83.125,156.148438 83.875,156.867188 85.4921875,157.242188 L86.9765625,157.59375 C87.828125,157.796875 88.2265625,158.140625 88.2265625,158.671875 C88.2265625,159.367188 87.484375,159.851562 86.4375,159.851562 C85.421875,159.851562 84.796875,159.4375 84.5859375,158.773438 L82.90625,158.773438 C83.0546875,160.25 84.375,161.164062 86.3984375,161.164062 Z M95.515625,161.164062 C97.6171875,161.164062 98.9296875,159.984375 99.1484375,158.3125 L97.515625,158.3125 C97.296875,159.234375 96.5703125,159.734375 95.5078125,159.734375 C94.109375,159.734375 93.2421875,158.601562 93.2421875,156.726562 C93.2421875,154.890625 94.1015625,153.78125 95.5078125,153.78125 C96.6328125,153.78125 97.3203125,154.414062 97.515625,155.242188 L99.1484375,155.242188 C98.9296875,153.59375 97.640625,152.351562 95.5078125,152.351562 C93.03125,152.351562 91.5234375,154.03125 91.5234375,156.726562 C91.5234375,159.476562 93.0390625,161.164062 95.515625,161.164062 Z M102.742188,161 L102.742188,155.929688 C102.742188,154.734375 103.640625,153.914062 104.914062,153.914062 C105.210938,153.914062 105.710938,153.96875 105.851562,154.007812 L105.851562,152.429688 C105.671875,152.390625 105.351562,152.367188 105.101562,152.367188 C103.992188,152.367188 103.046875,152.96875 102.804688,153.804688 L102.679688,153.804688 L102.679688,152.515625 L101.0625,152.515625 L101.0625,161 L102.742188,161 Z M108.335938,151 C108.921875,151 109.398438,150.523438 109.398438,149.945312 C109.398438,149.359375 108.921875,148.882812 108.335938,148.882812 C107.75,148.882812 107.273438,149.359375 107.273438,149.945312 C107.273438,150.523438 107.75,151 108.335938,151 Z M109.171875,161 L109.171875,152.515625 L107.5,152.515625 L107.5,161 L109.171875,161 Z M113.320312,163.828125 L113.320312,159.71875 L113.453125,159.71875 C113.898438,160.617188 114.859375,161.140625 116.070312,161.140625 C118.21875,161.140625 119.585938,159.4375 119.585938,156.757812 C119.585938,154.0625 118.21875,152.367188 116.054688,152.367188 C114.898438,152.367188 113.898438,152.953125 113.382812,153.921875 L113.257812,153.921875 L113.257812,152.515625 L111.640625,152.515625 L111.640625,163.828125 L113.320312,163.828125 Z M115.578125,159.703125 C114.171875,159.703125 113.289062,158.570312 113.289062,156.757812 C113.289062,154.9375 114.171875,153.804688 115.585938,153.804688 C117.007812,153.804688 117.859375,154.914062 117.859375,156.757812 C117.859375,158.601562 117.007812,159.703125 115.578125,159.703125 Z M124.804688,161.054688 C125.132812,161.054688 125.445312,161.015625 125.71875,160.96875 L125.71875,159.632812 C125.484375,159.65625 125.335938,159.671875 125.078125,159.671875 C124.242188,159.671875 123.875,159.273438 123.875,158.359375 L123.875,153.882812 L125.71875,153.882812 L125.71875,152.539062 L123.875,152.539062 L123.875,150.375 L122.195312,150.375 L122.195312,152.539062 L120.84375,152.539062 L120.84375,153.882812 L122.195312,153.882812 L122.195312,158.765625 C122.195312,160.398438 122.9375,161.054688 124.804688,161.054688 Z M128.5625,151 C129.148438,151 129.625,150.523438 129.625,149.945312 C129.625,149.359375 129.148438,148.882812 128.5625,148.882812 C127.976562,148.882812 127.5,149.359375 127.5,149.945312 C127.5,150.523438 127.976562,151 128.5625,151 Z M129.398438,161 L129.398438,152.515625 L127.726562,152.515625 L127.726562,161 L129.398438,161 Z M135.460938,161.164062 C137.945312,161.164062 139.46875,159.5 139.46875,156.757812 C139.46875,154.015625 137.9375,152.351562 135.460938,152.351562 C132.976562,152.351562 131.445312,154.023438 131.445312,156.757812 C131.445312,159.5 132.96875,161.164062 135.460938,161.164062 Z M135.460938,159.734375 C134,159.734375 133.179688,158.648438 133.179688,156.757812 C133.179688,154.867188 134,153.773438 135.460938,153.773438 C136.914062,153.773438 137.742188,154.867188 137.742188,156.757812 C137.742188,158.640625 136.914062,159.734375 135.460938,159.734375 Z M143.164062,161 L143.164062,156.023438 C143.164062,154.65625 143.953125,153.8125 145.195312,153.8125 C146.4375,153.8125 147.03125,154.5 147.03125,155.90625 L147.03125,161 L148.710938,161 L148.710938,155.507812 C148.710938,153.484375 147.664062,152.351562 145.765625,152.351562 C144.484375,152.351562 143.640625,152.921875 143.226562,153.859375 L143.101562,153.859375 L143.101562,152.515625 L141.484375,152.515625 L141.484375,161 L143.164062,161 Z M154.148438,161.164062 C156.179688,161.164062 157.671875,160.09375 157.671875,158.515625 C157.671875,157.28125 156.914062,156.585938 155.296875,156.210938 L153.882812,155.882812 C152.960938,155.664062 152.53125,155.335938 152.53125,154.8125 C152.53125,154.125 153.242188,153.664062 154.179688,153.664062 C155.132812,153.664062 155.742188,154.078125 155.898438,154.710938 L157.507812,154.710938 C157.34375,153.242188 156.09375,152.351562 154.179688,152.351562 C152.257812,152.351562 150.875,153.414062 150.875,154.890625 C150.875,156.148438 151.625,156.867188 153.242188,157.242188 L154.726562,157.59375 C155.578125,157.796875 155.976562,158.140625 155.976562,158.671875 C155.976562,159.367188 155.234375,159.851562 154.1875,159.851562 C153.171875,159.851562 152.546875,159.4375 152.335938,158.773438 L150.65625,158.773438 C150.804688,160.25 152.125,161.164062 154.148438,161.164062 Z M34.0390625,186.273438 C36.5546875,186.273438 38.40625,184.828125 38.71875,182.632812 L36.9765625,182.632812 C36.6640625,183.914062 35.53125,184.71875 34.0390625,184.71875 C32.0078125,184.71875 30.7421875,183.046875 30.7421875,180.367188 C30.7421875,177.6875 32.0078125,176.007812 34.03125,176.007812 C35.515625,176.007812 36.6484375,176.898438 36.9765625,178.296875 L38.71875,178.296875 C38.4375,176.039062 36.515625,174.453125 34.03125,174.453125 C30.8984375,174.453125 28.953125,176.71875 28.953125,180.367188 C28.953125,184.007812 30.90625,186.273438 34.0390625,186.273438 Z M43.171875,186.140625 C44.2890625,186.140625 45.21875,185.65625 45.7265625,184.796875 L45.859375,184.796875 L45.859375,186 L47.4765625,186 L47.4765625,180.195312 C47.4765625,178.414062 46.2734375,177.351562 44.140625,177.351562 C42.2109375,177.351562 40.8359375,178.28125 40.6640625,179.710938 L42.2890625,179.710938 C42.4765625,179.09375 43.125,178.742188 44.0625,178.742188 C45.2109375,178.742188 45.8046875,179.265625 45.8046875,180.195312 L45.8046875,180.9375 L43.5,181.078125 C41.4765625,181.203125 40.3359375,182.085938 40.3359375,183.609375 C40.3359375,185.15625 41.53125,186.140625 43.171875,186.140625 Z M43.6015625,184.789062 C42.6875,184.789062 42.0234375,184.328125 42.0234375,183.539062 C42.0234375,182.765625 42.5546875,182.351562 43.7265625,182.273438 L45.8046875,182.132812 L45.8046875,182.867188 C45.8046875,183.960938 44.8671875,184.789062 43.6015625,184.789062 Z M51.546875,186 L51.546875,181.023438 C51.546875,179.65625 52.3359375,178.8125 53.578125,178.8125 C54.8203125,178.8125 55.4140625,179.5 55.4140625,180.90625 L55.4140625,186 L57.09375,186 L57.09375,180.507812 C57.09375,178.484375 56.046875,177.351562 54.1484375,177.351562 C52.8671875,177.351562 52.0234375,177.921875 51.609375,178.859375 L51.484375,178.859375 L51.484375,177.515625 L49.8671875,177.515625 L49.8671875,186 L51.546875,186 Z M63.0234375,186.164062 C65.125,186.164062 66.4375,184.984375 66.65625,183.3125 L65.0234375,183.3125 C64.8046875,184.234375 64.078125,184.734375 63.015625,184.734375 C61.6171875,184.734375 60.75,183.601562 60.75,181.726562 C60.75,179.890625 61.609375,178.78125 63.015625,178.78125 C64.140625,178.78125 64.828125,179.414062 65.0234375,180.242188 L66.65625,180.242188 C66.4375,178.59375 65.1484375,177.351562 63.015625,177.351562 C60.5390625,177.351562 59.03125,179.03125 59.03125,181.726562 C59.03125,184.476562 60.546875,186.164062 63.0234375,186.164062 Z M72.078125,186.164062 C74.0234375,186.164062 75.3984375,185.226562 75.765625,183.726562 L74.1484375,183.726562 C73.8359375,184.414062 73.140625,184.789062 72.125,184.789062 C70.78125,184.789062 69.9140625,183.820312 69.859375,182.28125 L69.859375,182.203125 L75.8671875,182.203125 L75.8671875,181.625 C75.8671875,178.96875 74.4375,177.351562 72.0703125,177.351562 C69.671875,177.351562 68.1484375,179.078125 68.1484375,181.773438 C68.1484375,184.484375 69.640625,186.164062 72.078125,186.164062 Z M74.15625,180.992188 L69.859375,180.992188 C69.953125,179.625 70.8203125,178.71875 72.0625,178.71875 C73.3046875,178.71875 74.1171875,179.617188 74.15625,180.992188 Z M79.640625,186 L79.640625,174.1875 L77.9609375,174.1875 L77.9609375,186 L79.640625,186 Z M83.9140625,186 L83.9140625,174.1875 L82.234375,174.1875 L82.234375,186 L83.9140625,186 Z M89.9375,186.164062 C91.8828125,186.164062 93.2578125,185.226562 93.625,183.726562 L92.0078125,183.726562 C91.6953125,184.414062 91,184.789062 89.984375,184.789062 C88.640625,184.789062 87.7734375,183.820312 87.71875,182.28125 L87.71875,182.203125 L93.7265625,182.203125 L93.7265625,181.625 C93.7265625,178.96875 92.296875,177.351562 89.9296875,177.351562 C87.53125,177.351562 86.0078125,179.078125 86.0078125,181.773438 C86.0078125,184.484375 87.5,186.164062 89.9375,186.164062 Z M92.015625,180.992188 L87.71875,180.992188 C87.8125,179.625 88.6796875,178.71875 89.921875,178.71875 C91.1640625,178.71875 91.9765625,179.617188 92.015625,180.992188 Z M98.8515625,186.140625 C100.023438,186.140625 101.015625,185.585938 101.523438,184.65625 L101.65625,184.65625 L101.65625,186 L103.265625,186 L103.265625,174.1875 L101.585938,174.1875 L101.585938,178.859375 L101.460938,178.859375 C101,177.929688 100.015625,177.367188 98.8515625,177.367188 C96.703125,177.367188 95.3203125,179.078125 95.3203125,181.75 C95.3203125,184.4375 96.6875,186.140625 98.8515625,186.140625 Z M99.328125,184.703125 C97.90625,184.703125 97.0546875,183.601562 97.0546875,181.757812 C97.0546875,179.921875 97.9140625,178.804688 99.328125,178.804688 C100.734375,178.804688 101.617188,179.945312 101.617188,181.757812 C101.617188,183.585938 100.742188,184.703125 99.328125,184.703125 Z M111.023438,176 C111.609375,176 112.085938,175.523438 112.085938,174.945312 C112.085938,174.359375 111.609375,173.882812 111.023438,173.882812 C110.4375,173.882812 109.960938,174.359375 109.960938,174.945312 C109.960938,175.523438 110.4375,176 111.023438,176 Z M111.859375,186 L111.859375,177.515625 L110.1875,177.515625 L110.1875,186 L111.859375,186 Z M116.007812,186 L116.007812,181.023438 C116.007812,179.65625 116.796875,178.8125 118.039062,178.8125 C119.28125,178.8125 119.875,179.5 119.875,180.90625 L119.875,186 L121.554688,186 L121.554688,180.507812 C121.554688,178.484375 120.507812,177.351562 118.609375,177.351562 C117.328125,177.351562 116.484375,177.921875 116.070312,178.859375 L115.945312,178.859375 L115.945312,177.515625 L114.328125,177.515625 L114.328125,186 L116.007812,186 Z M130.234375,186 L130.234375,182.148438 L132.84375,182.148438 C135.054688,182.148438 136.617188,180.632812 136.617188,178.460938 C136.617188,176.242188 135.101562,174.726562 132.898438,174.726562 L128.484375,174.726562 L128.484375,186 L130.234375,186 Z M132.4375,180.679688 L130.234375,180.679688 L130.234375,176.203125 L132.4375,176.203125 C133.976562,176.203125 134.828125,177 134.828125,178.460938 C134.828125,179.875 133.945312,180.679688 132.4375,180.679688 Z M140.710938,186.140625 C141.828125,186.140625 142.757812,185.65625 143.265625,184.796875 L143.398438,184.796875 L143.398438,186 L145.015625,186 L145.015625,180.195312 C145.015625,178.414062 143.8125,177.351562 141.679688,177.351562 C139.75,177.351562 138.375,178.28125 138.203125,179.710938 L139.828125,179.710938 C140.015625,179.09375 140.664062,178.742188 141.601562,178.742188 C142.75,178.742188 143.34375,179.265625 143.34375,180.195312 L143.34375,180.9375 L141.039062,181.078125 C139.015625,181.203125 137.875,182.085938 137.875,183.609375 C137.875,185.15625 139.070312,186.140625 140.710938,186.140625 Z M141.140625,184.789062 C140.226562,184.789062 139.5625,184.328125 139.5625,183.539062 C139.5625,182.765625 140.09375,182.351562 141.265625,182.273438 L143.34375,182.132812 L143.34375,182.867188 C143.34375,183.960938 142.40625,184.789062 141.140625,184.789062 Z M150.484375,186.164062 C152.515625,186.164062 154.007812,185.09375 154.007812,183.515625 C154.007812,182.28125 153.25,181.585938 151.632812,181.210938 L150.21875,180.882812 C149.296875,180.664062 148.867188,180.335938 148.867188,179.8125 C148.867188,179.125 149.578125,178.664062 150.515625,178.664062 C151.46875,178.664062 152.078125,179.078125 152.234375,179.710938 L153.84375,179.710938 C153.679688,178.242188 152.429688,177.351562 150.515625,177.351562 C148.59375,177.351562 147.210938,178.414062 147.210938,179.890625 C147.210938,181.148438 147.960938,181.867188 149.578125,182.242188 L151.0625,182.59375 C151.914062,182.796875 152.3125,183.140625 152.3125,183.671875 C152.3125,184.367188 151.570312,184.851562 150.523438,184.851562 C149.507812,184.851562 148.882812,184.4375 148.671875,183.773438 L146.992188,183.773438 C147.140625,185.25 148.460938,186.164062 150.484375,186.164062 Z M159.171875,186.054688 C159.5,186.054688 159.8125,186.015625 160.085938,185.96875 L160.085938,184.632812 C159.851562,184.65625 159.703125,184.671875 159.445312,184.671875 C158.609375,184.671875 158.242188,184.273438 158.242188,183.359375 L158.242188,178.882812 L160.085938,178.882812 L160.085938,177.539062 L158.242188,177.539062 L158.242188,175.375 L156.5625,175.375 L156.5625,177.539062 L155.210938,177.539062 L155.210938,178.882812 L156.5625,178.882812 L156.5625,183.765625 C156.5625,185.398438 157.304688,186.054688 159.171875,186.054688 Z M170.890625,186 L170.890625,174.726562 L169.148438,174.726562 L166.179688,176.835938 L166.179688,178.554688 L169.007812,176.53125 L169.140625,176.53125 L169.140625,186 L170.890625,186 Z M178.101562,186.273438 C180.492188,186.273438 182.109375,184.671875 182.109375,182.328125 C182.109375,180.078125 180.546875,178.609375 178.640625,178.609375 C177.5,178.609375 176.664062,178.976562 176.148438,179.671875 L176.015625,179.671875 L176.34375,176.210938 L181.523438,176.210938 L181.523438,174.726562 L174.984375,174.726562 L174.351562,181.234375 L175.953125,181.234375 C176.367188,180.453125 177.15625,179.984375 178.15625,179.984375 C179.484375,179.984375 180.398438,180.9375 180.398438,182.359375 C180.398438,183.828125 179.476562,184.8125 178.109375,184.8125 C176.882812,184.8125 175.96875,184.070312 175.84375,182.945312 L174.171875,182.945312 C174.28125,184.90625 175.859375,186.273438 178.101562,186.273438 Z M192.960938,186 C196.320312,186 198.265625,183.921875 198.265625,180.335938 C198.265625,176.789062 196.304688,174.726562 192.960938,174.726562 L188.890625,174.726562 L188.890625,186 L192.960938,186 Z M192.765625,184.492188 L190.640625,184.492188 L190.640625,176.234375 L192.765625,176.234375 C195.101562,176.234375 196.484375,177.757812 196.484375,180.359375 C196.484375,182.984375 195.125,184.492188 192.765625,184.492188 Z M202.757812,186.140625 C203.875,186.140625 204.804688,185.65625 205.3125,184.796875 L205.445312,184.796875 L205.445312,186 L207.0625,186 L207.0625,180.195312 C207.0625,178.414062 205.859375,177.351562 203.726562,177.351562 C201.796875,177.351562 200.421875,178.28125 200.25,179.710938 L201.875,179.710938 C202.0625,179.09375 202.710938,178.742188 203.648438,178.742188 C204.796875,178.742188 205.390625,179.265625 205.390625,180.195312 L205.390625,180.9375 L203.085938,181.078125 C201.0625,181.203125 199.921875,182.085938 199.921875,183.609375 C199.921875,185.15625 201.117188,186.140625 202.757812,186.140625 Z M203.1875,184.789062 C202.273438,184.789062 201.609375,184.328125 201.609375,183.539062 C201.609375,182.765625 202.140625,182.351562 203.3125,182.273438 L205.390625,182.132812 L205.390625,182.867188 C205.390625,183.960938 204.453125,184.789062 203.1875,184.789062 Z M210.015625,189.078125 C211.75,189.078125 212.554688,188.429688 213.28125,186.390625 L216.453125,177.515625 L214.671875,177.515625 L212.546875,184.3125 L212.414062,184.3125 L210.28125,177.515625 L208.453125,177.515625 L211.53125,186.023438 L211.40625,186.460938 C211.117188,187.359375 210.664062,187.695312 209.867188,187.695312 C209.710938,187.695312 209.453125,187.6875 209.320312,187.664062 L209.320312,189.039062 C209.476562,189.0625 209.875,189.078125 210.015625,189.078125 Z M221.015625,186.164062 C223.046875,186.164062 224.539062,185.09375 224.539062,183.515625 C224.539062,182.28125 223.78125,181.585938 222.164062,181.210938 L220.75,180.882812 C219.828125,180.664062 219.398438,180.335938 219.398438,179.8125 C219.398438,179.125 220.109375,178.664062 221.046875,178.664062 C222,178.664062 222.609375,179.078125 222.765625,179.710938 L224.375,179.710938 C224.210938,178.242188 222.960938,177.351562 221.046875,177.351562 C219.125,177.351562 217.742188,178.414062 217.742188,179.890625 C217.742188,181.148438 218.492188,181.867188 220.109375,182.242188 L221.59375,182.59375 C222.445312,182.796875 222.84375,183.140625 222.84375,183.671875 C222.84375,184.367188 222.101562,184.851562 221.054688,184.851562 C220.039062,184.851562 219.414062,184.4375 219.203125,183.773438 L217.523438,183.773438 C217.671875,185.25 218.992188,186.164062 221.015625,186.164062 Z M34.0390625,211.273438 C36.5546875,211.273438 38.40625,209.828125 38.71875,207.632812 L36.9765625,207.632812 C36.6640625,208.914062 35.53125,209.71875 34.0390625,209.71875 C32.0078125,209.71875 30.7421875,208.046875 30.7421875,205.367188 C30.7421875,202.6875 32.0078125,201.007812 34.03125,201.007812 C35.515625,201.007812 36.6484375,201.898438 36.9765625,203.296875 L38.71875,203.296875 C38.4375,201.039062 36.515625,199.453125 34.03125,199.453125 C30.8984375,199.453125 28.953125,201.71875 28.953125,205.367188 C28.953125,209.007812 30.90625,211.273438 34.0390625,211.273438 Z M43.171875,211.140625 C44.2890625,211.140625 45.21875,210.65625 45.7265625,209.796875 L45.859375,209.796875 L45.859375,211 L47.4765625,211 L47.4765625,205.195312 C47.4765625,203.414062 46.2734375,202.351562 44.140625,202.351562 C42.2109375,202.351562 40.8359375,203.28125 40.6640625,204.710938 L42.2890625,204.710938 C42.4765625,204.09375 43.125,203.742188 44.0625,203.742188 C45.2109375,203.742188 45.8046875,204.265625 45.8046875,205.195312 L45.8046875,205.9375 L43.5,206.078125 C41.4765625,206.203125 40.3359375,207.085938 40.3359375,208.609375 C40.3359375,210.15625 41.53125,211.140625 43.171875,211.140625 Z M43.6015625,209.789062 C42.6875,209.789062 42.0234375,209.328125 42.0234375,208.539062 C42.0234375,207.765625 42.5546875,207.351562 43.7265625,207.273438 L45.8046875,207.132812 L45.8046875,207.867188 C45.8046875,208.960938 44.8671875,209.789062 43.6015625,209.789062 Z M51.546875,211 L51.546875,205.929688 C51.546875,204.734375 52.4453125,203.914062 53.71875,203.914062 C54.015625,203.914062 54.515625,203.96875 54.65625,204.007812 L54.65625,202.429688 C54.4765625,202.390625 54.15625,202.367188 53.90625,202.367188 C52.796875,202.367188 51.8515625,202.96875 51.609375,203.804688 L51.484375,203.804688 L51.484375,202.515625 L49.8671875,202.515625 L49.8671875,211 L51.546875,211 Z M59.1640625,211.140625 C60.3359375,211.140625 61.328125,210.585938 61.8359375,209.65625 L61.96875,209.65625 L61.96875,211 L63.578125,211 L63.578125,199.1875 L61.8984375,199.1875 L61.8984375,203.859375 L61.7734375,203.859375 C61.3125,202.929688 60.328125,202.367188 59.1640625,202.367188 C57.015625,202.367188 55.6328125,204.078125 55.6328125,206.75 C55.6328125,209.4375 57,211.140625 59.1640625,211.140625 Z M59.640625,209.703125 C58.21875,209.703125 57.3671875,208.601562 57.3671875,206.757812 C57.3671875,204.921875 58.2265625,203.804688 59.640625,203.804688 C61.046875,203.804688 61.9296875,204.945312 61.9296875,206.757812 C61.9296875,208.585938 61.0546875,209.703125 59.640625,209.703125 Z M77.8203125,211 L77.8203125,209.492188 L72.4140625,209.492188 L72.4140625,205.984375 L77.53125,205.984375 L77.53125,204.53125 L72.4140625,204.53125 L72.4140625,201.234375 L77.8203125,201.234375 L77.8203125,199.726562 L70.6640625,199.726562 L70.6640625,211 L77.8203125,211 Z M81.3359375,211.015625 L83.1953125,207.960938 L83.3203125,207.960938 L85.1796875,211.015625 L87.109375,211.015625 L84.2734375,206.726562 L87.078125,202.53125 L85.203125,202.53125 L83.390625,205.5625 L83.2578125,205.5625 L81.4296875,202.53125 L79.46875,202.53125 L82.3125,206.789062 L79.4921875,211.015625 L81.3359375,211.015625 Z M90.5390625,213.828125 L90.5390625,209.71875 L90.671875,209.71875 C91.1171875,210.617188 92.078125,211.140625 93.2890625,211.140625 C95.4375,211.140625 96.8046875,209.4375 96.8046875,206.757812 C96.8046875,204.0625 95.4375,202.367188 93.2734375,202.367188 C92.1171875,202.367188 91.1171875,202.953125 90.6015625,203.921875 L90.4765625,203.921875 L90.4765625,202.515625 L88.859375,202.515625 L88.859375,213.828125 L90.5390625,213.828125 Z M92.796875,209.703125 C91.390625,209.703125 90.5078125,208.570312 90.5078125,206.757812 C90.5078125,204.9375 91.390625,203.804688 92.8046875,203.804688 C94.2265625,203.804688 95.078125,204.914062 95.078125,206.757812 C95.078125,208.601562 94.2265625,209.703125 92.796875,209.703125 Z M99.6875,201 C100.273438,201 100.75,200.523438 100.75,199.945312 C100.75,199.359375 100.273438,198.882812 99.6875,198.882812 C99.1015625,198.882812 98.625,199.359375 98.625,199.945312 C98.625,200.523438 99.1015625,201 99.6875,201 Z M100.523438,211 L100.523438,202.515625 L98.8515625,202.515625 L98.8515625,211 L100.523438,211 Z M104.671875,211 L104.671875,205.929688 C104.671875,204.734375 105.570312,203.914062 106.84375,203.914062 C107.140625,203.914062 107.640625,203.96875 107.78125,204.007812 L107.78125,202.429688 C107.601562,202.390625 107.28125,202.367188 107.03125,202.367188 C105.921875,202.367188 104.976562,202.96875 104.734375,203.804688 L104.609375,203.804688 L104.609375,202.515625 L102.992188,202.515625 L102.992188,211 L104.671875,211 Z M112.6875,211.164062 C114.632812,211.164062 116.007812,210.226562 116.375,208.726562 L114.757812,208.726562 C114.445312,209.414062 113.75,209.789062 112.734375,209.789062 C111.390625,209.789062 110.523438,208.820312 110.46875,207.28125 L110.46875,207.203125 L116.476562,207.203125 L116.476562,206.625 C116.476562,203.96875 115.046875,202.351562 112.679688,202.351562 C110.28125,202.351562 108.757812,204.078125 108.757812,206.773438 C108.757812,209.484375 110.25,211.164062 112.6875,211.164062 Z M114.765625,205.992188 L110.46875,205.992188 C110.5625,204.625 111.429688,203.71875 112.671875,203.71875 C113.914062,203.71875 114.726562,204.617188 114.765625,205.992188 Z M121.601562,211.140625 C122.773438,211.140625 123.765625,210.585938 124.273438,209.65625 L124.40625,209.65625 L124.40625,211 L126.015625,211 L126.015625,199.1875 L124.335938,199.1875 L124.335938,203.859375 L124.210938,203.859375 C123.75,202.929688 122.765625,202.367188 121.601562,202.367188 C119.453125,202.367188 118.070312,204.078125 118.070312,206.75 C118.070312,209.4375 119.4375,211.140625 121.601562,211.140625 Z M122.078125,209.703125 C120.65625,209.703125 119.804688,208.601562 119.804688,206.757812 C119.804688,204.921875 120.664062,203.804688 122.078125,203.804688 C123.484375,203.804688 124.367188,204.945312 124.367188,206.757812 C124.367188,208.585938 123.492188,209.703125 122.078125,209.703125 Z M34.0390625,236.273438 C36.5546875,236.273438 38.40625,234.828125 38.71875,232.632812 L36.9765625,232.632812 C36.6640625,233.914062 35.53125,234.71875 34.0390625,234.71875 C32.0078125,234.71875 30.7421875,233.046875 30.7421875,230.367188 C30.7421875,227.6875 32.0078125,226.007812 34.03125,226.007812 C35.515625,226.007812 36.6484375,226.898438 36.9765625,228.296875 L38.71875,228.296875 C38.4375,226.039062 36.515625,224.453125 34.03125,224.453125 C30.8984375,224.453125 28.953125,226.71875 28.953125,230.367188 C28.953125,234.007812 30.90625,236.273438 34.0390625,236.273438 Z M43.171875,236.140625 C44.2890625,236.140625 45.21875,235.65625 45.7265625,234.796875 L45.859375,234.796875 L45.859375,236 L47.4765625,236 L47.4765625,230.195312 C47.4765625,228.414062 46.2734375,227.351562 44.140625,227.351562 C42.2109375,227.351562 40.8359375,228.28125 40.6640625,229.710938 L42.2890625,229.710938 C42.4765625,229.09375 43.125,228.742188 44.0625,228.742188 C45.2109375,228.742188 45.8046875,229.265625 45.8046875,230.195312 L45.8046875,230.9375 L43.5,231.078125 C41.4765625,231.203125 40.3359375,232.085938 40.3359375,233.609375 C40.3359375,235.15625 41.53125,236.140625 43.171875,236.140625 Z M43.6015625,234.789062 C42.6875,234.789062 42.0234375,234.328125 42.0234375,233.539062 C42.0234375,232.765625 42.5546875,232.351562 43.7265625,232.273438 L45.8046875,232.132812 L45.8046875,232.867188 C45.8046875,233.960938 44.8671875,234.789062 43.6015625,234.789062 Z M51.546875,236 L51.546875,230.929688 C51.546875,229.734375 52.4453125,228.914062 53.71875,228.914062 C54.015625,228.914062 54.515625,228.96875 54.65625,229.007812 L54.65625,227.429688 C54.4765625,227.390625 54.15625,227.367188 53.90625,227.367188 C52.796875,227.367188 51.8515625,227.96875 51.609375,228.804688 L51.484375,228.804688 L51.484375,227.515625 L49.8671875,227.515625 L49.8671875,236 L51.546875,236 Z M59.1640625,236.140625 C60.3359375,236.140625 61.328125,235.585938 61.8359375,234.65625 L61.96875,234.65625 L61.96875,236 L63.578125,236 L63.578125,224.1875 L61.8984375,224.1875 L61.8984375,228.859375 L61.7734375,228.859375 C61.3125,227.929688 60.328125,227.367188 59.1640625,227.367188 C57.015625,227.367188 55.6328125,229.078125 55.6328125,231.75 C55.6328125,234.4375 57,236.140625 59.1640625,236.140625 Z M59.640625,234.703125 C58.21875,234.703125 57.3671875,233.601562 57.3671875,231.757812 C57.3671875,229.921875 58.2265625,228.804688 59.640625,228.804688 C61.046875,228.804688 61.9296875,229.945312 61.9296875,231.757812 C61.9296875,233.585938 61.0546875,234.703125 59.640625,234.703125 Z M77.8203125,236 L77.8203125,234.492188 L72.4140625,234.492188 L72.4140625,230.984375 L77.53125,230.984375 L77.53125,229.53125 L72.4140625,229.53125 L72.4140625,226.234375 L77.8203125,226.234375 L77.8203125,224.726562 L70.6640625,224.726562 L70.6640625,236 L77.8203125,236 Z M81.3359375,236.015625 L83.1953125,232.960938 L83.3203125,232.960938 L85.1796875,236.015625 L87.109375,236.015625 L84.2734375,231.726562 L87.078125,227.53125 L85.203125,227.53125 L83.390625,230.5625 L83.2578125,230.5625 L81.4296875,227.53125 L79.46875,227.53125 L82.3125,231.789062 L79.4921875,236.015625 L81.3359375,236.015625 Z M90.5390625,238.828125 L90.5390625,234.71875 L90.671875,234.71875 C91.1171875,235.617188 92.078125,236.140625 93.2890625,236.140625 C95.4375,236.140625 96.8046875,234.4375 96.8046875,231.757812 C96.8046875,229.0625 95.4375,227.367188 93.2734375,227.367188 C92.1171875,227.367188 91.1171875,227.953125 90.6015625,228.921875 L90.4765625,228.921875 L90.4765625,227.515625 L88.859375,227.515625 L88.859375,238.828125 L90.5390625,238.828125 Z M92.796875,234.703125 C91.390625,234.703125 90.5078125,233.570312 90.5078125,231.757812 C90.5078125,229.9375 91.390625,228.804688 92.8046875,228.804688 C94.2265625,228.804688 95.078125,229.914062 95.078125,231.757812 C95.078125,233.601562 94.2265625,234.703125 92.796875,234.703125 Z M99.6875,226 C100.273438,226 100.75,225.523438 100.75,224.945312 C100.75,224.359375 100.273438,223.882812 99.6875,223.882812 C99.1015625,223.882812 98.625,224.359375 98.625,224.945312 C98.625,225.523438 99.1015625,226 99.6875,226 Z M100.523438,236 L100.523438,227.515625 L98.8515625,227.515625 L98.8515625,236 L100.523438,236 Z M104.671875,236 L104.671875,230.929688 C104.671875,229.734375 105.570312,228.914062 106.84375,228.914062 C107.140625,228.914062 107.640625,228.96875 107.78125,229.007812 L107.78125,227.429688 C107.601562,227.390625 107.28125,227.367188 107.03125,227.367188 C105.921875,227.367188 104.976562,227.96875 104.734375,228.804688 L104.609375,228.804688 L104.609375,227.515625 L102.992188,227.515625 L102.992188,236 L104.671875,236 Z M110.265625,226 C110.851562,226 111.328125,225.523438 111.328125,224.945312 C111.328125,224.359375 110.851562,223.882812 110.265625,223.882812 C109.679688,223.882812 109.203125,224.359375 109.203125,224.945312 C109.203125,225.523438 109.679688,226 110.265625,226 Z M111.101562,236 L111.101562,227.515625 L109.429688,227.515625 L109.429688,236 L111.101562,236 Z M115.25,236 L115.25,231.023438 C115.25,229.65625 116.039062,228.8125 117.28125,228.8125 C118.523438,228.8125 119.117188,229.5 119.117188,230.90625 L119.117188,236 L120.796875,236 L120.796875,230.507812 C120.796875,228.484375 119.75,227.351562 117.851562,227.351562 C116.570312,227.351562 115.726562,227.921875 115.3125,228.859375 L115.1875,228.859375 L115.1875,227.515625 L113.570312,227.515625 L113.570312,236 L115.25,236 Z M126.742188,239.242188 C129.148438,239.242188 130.671875,238.015625 130.671875,236.085938 L130.671875,227.515625 L129.0625,227.515625 L129.0625,228.867188 L128.929688,228.867188 C128.453125,227.945312 127.429688,227.367188 126.257812,227.367188 C124.085938,227.367188 122.726562,229.078125 122.726562,231.648438 C122.726562,234.195312 124.070312,235.875 126.242188,235.875 C127.414062,235.875 128.351562,235.367188 128.867188,234.445312 L128.992188,234.445312 L128.992188,236.078125 C128.992188,237.226562 128.164062,237.914062 126.765625,237.914062 C125.632812,237.914062 124.921875,237.507812 124.78125,236.867188 L123.0625,236.867188 C123.242188,238.296875 124.617188,239.242188 126.742188,239.242188 Z M126.71875,234.484375 C125.273438,234.484375 124.460938,233.382812 124.460938,231.648438 C124.460938,229.914062 125.273438,228.804688 126.71875,228.804688 C128.148438,228.804688 129.023438,229.914062 129.023438,231.648438 C129.023438,233.382812 128.15625,234.484375 126.71875,234.484375 Z M36.5703125,261 L36.5703125,259.492188 L31.1640625,259.492188 L31.1640625,255.984375 L36.28125,255.984375 L36.28125,254.53125 L31.1640625,254.53125 L31.1640625,251.234375 L36.5703125,251.234375 L36.5703125,249.726562 L29.4140625,249.726562 L29.4140625,261 L36.5703125,261 Z M40.578125,261 L40.578125,255.789062 C40.578125,254.679688 41.3515625,253.8125 42.375,253.8125 C43.375,253.8125 44.015625,254.414062 44.015625,255.382812 L44.015625,261 L45.6640625,261 L45.6640625,255.632812 C45.6640625,254.609375 46.375,253.8125 47.4609375,253.8125 C48.5625,253.8125 49.109375,254.382812 49.109375,255.554688 L49.109375,261 L50.7890625,261 L50.7890625,255.148438 C50.7890625,253.382812 49.7890625,252.351562 48.0703125,252.351562 C46.890625,252.351562 45.9140625,252.953125 45.484375,253.867188 L45.3515625,253.867188 C44.9765625,252.953125 44.171875,252.351562 43.0078125,252.351562 C41.875,252.351562 41.015625,252.914062 40.640625,253.867188 L40.515625,253.867188 L40.515625,252.515625 L38.8984375,252.515625 L38.8984375,261 L40.578125,261 Z M55.5,261.140625 C56.6171875,261.140625 57.546875,260.65625 58.0546875,259.796875 L58.1875,259.796875 L58.1875,261 L59.8046875,261 L59.8046875,255.195312 C59.8046875,253.414062 58.6015625,252.351562 56.46875,252.351562 C54.5390625,252.351562 53.1640625,253.28125 52.9921875,254.710938 L54.6171875,254.710938 C54.8046875,254.09375 55.453125,253.742188 56.390625,253.742188 C57.5390625,253.742188 58.1328125,254.265625 58.1328125,255.195312 L58.1328125,255.9375 L55.828125,256.078125 C53.8046875,256.203125 52.6640625,257.085938 52.6640625,258.609375 C52.6640625,260.15625 53.859375,261.140625 55.5,261.140625 Z M55.9296875,259.789062 C55.015625,259.789062 54.3515625,259.328125 54.3515625,258.539062 C54.3515625,257.765625 54.8828125,257.351562 56.0546875,257.273438 L58.1328125,257.132812 L58.1328125,257.867188 C58.1328125,258.960938 57.1953125,259.789062 55.9296875,259.789062 Z M63.0625,251 C63.6484375,251 64.125,250.523438 64.125,249.945312 C64.125,249.359375 63.6484375,248.882812 63.0625,248.882812 C62.4765625,248.882812 62,249.359375 62,249.945312 C62,250.523438 62.4765625,251 63.0625,251 Z M63.8984375,261 L63.8984375,252.515625 L62.2265625,252.515625 L62.2265625,261 L63.8984375,261 Z M68.125,261 L68.125,249.1875 L66.4453125,249.1875 L66.4453125,261 L68.125,261 Z M78.125,261.140625 C79.296875,261.140625 80.2890625,260.585938 80.796875,259.65625 L80.9296875,259.65625 L80.9296875,261 L82.5390625,261 L82.5390625,249.1875 L80.859375,249.1875 L80.859375,253.859375 L80.734375,253.859375 C80.2734375,252.929688 79.2890625,252.367188 78.125,252.367188 C75.9765625,252.367188 74.59375,254.078125 74.59375,256.75 C74.59375,259.4375 75.9609375,261.140625 78.125,261.140625 Z M78.6015625,259.703125 C77.1796875,259.703125 76.328125,258.601562 76.328125,256.757812 C76.328125,254.921875 77.1875,253.804688 78.6015625,253.804688 C80.0078125,253.804688 80.890625,254.945312 80.890625,256.757812 C80.890625,258.585938 80.015625,259.703125 78.6015625,259.703125 Z M88.6484375,261.164062 C91.1328125,261.164062 92.65625,259.5 92.65625,256.757812 C92.65625,254.015625 91.125,252.351562 88.6484375,252.351562 C86.1640625,252.351562 84.6328125,254.023438 84.6328125,256.757812 C84.6328125,259.5 86.15625,261.164062 88.6484375,261.164062 Z M88.6484375,259.734375 C87.1875,259.734375 86.3671875,258.648438 86.3671875,256.757812 C86.3671875,254.867188 87.1875,253.773438 88.6484375,253.773438 C90.1015625,253.773438 90.9296875,254.867188 90.9296875,256.757812 C90.9296875,258.640625 90.1015625,259.734375 88.6484375,259.734375 Z M98.1796875,261.164062 C100.125,261.164062 101.5,260.226562 101.867188,258.726562 L100.25,258.726562 C99.9375,259.414062 99.2421875,259.789062 98.2265625,259.789062 C96.8828125,259.789062 96.015625,258.820312 95.9609375,257.28125 L95.9609375,257.203125 L101.96875,257.203125 L101.96875,256.625 C101.96875,253.96875 100.539062,252.351562 98.171875,252.351562 C95.7734375,252.351562 94.25,254.078125 94.25,256.773438 C94.25,259.484375 95.7421875,261.164062 98.1796875,261.164062 Z M100.257812,255.992188 L95.9609375,255.992188 C96.0546875,254.625 96.921875,253.71875 98.1640625,253.71875 C99.40625,253.71875 100.21875,254.617188 100.257812,255.992188 Z M107.0625,261.164062 C109.09375,261.164062 110.585938,260.09375 110.585938,258.515625 C110.585938,257.28125 109.828125,256.585938 108.210938,256.210938 L106.796875,255.882812 C105.875,255.664062 105.445312,255.335938 105.445312,254.8125 C105.445312,254.125 106.15625,253.664062 107.09375,253.664062 C108.046875,253.664062 108.65625,254.078125 108.8125,254.710938 L110.421875,254.710938 C110.257812,253.242188 109.007812,252.351562 107.09375,252.351562 C105.171875,252.351562 103.789062,253.414062 103.789062,254.890625 C103.789062,256.148438 104.539062,256.867188 106.15625,257.242188 L107.640625,257.59375 C108.492188,257.796875 108.890625,258.140625 108.890625,258.671875 C108.890625,259.367188 108.148438,259.851562 107.101562,259.851562 C106.085938,259.851562 105.460938,259.4375 105.25,258.773438 L103.570312,258.773438 C103.71875,260.25 105.039062,261.164062 107.0625,261.164062 Z M118.664062,261 L118.664062,256.023438 C118.664062,254.65625 119.453125,253.8125 120.695312,253.8125 C121.9375,253.8125 122.53125,254.5 122.53125,255.90625 L122.53125,261 L124.210938,261 L124.210938,255.507812 C124.210938,253.484375 123.164062,252.351562 121.265625,252.351562 C119.984375,252.351562 119.140625,252.921875 118.726562,253.859375 L118.601562,253.859375 L118.601562,252.515625 L116.984375,252.515625 L116.984375,261 L118.664062,261 Z M130.164062,261.164062 C132.648438,261.164062 134.171875,259.5 134.171875,256.757812 C134.171875,254.015625 132.640625,252.351562 130.164062,252.351562 C127.679688,252.351562 126.148438,254.023438 126.148438,256.757812 C126.148438,259.5 127.671875,261.164062 130.164062,261.164062 Z M130.164062,259.734375 C128.703125,259.734375 127.882812,258.648438 127.882812,256.757812 C127.882812,254.867188 128.703125,253.773438 130.164062,253.773438 C131.617188,253.773438 132.445312,254.867188 132.445312,256.757812 C132.445312,258.640625 131.617188,259.734375 130.164062,259.734375 Z M139.390625,261.054688 C139.71875,261.054688 140.03125,261.015625 140.304688,260.96875 L140.304688,259.632812 C140.070312,259.65625 139.921875,259.671875 139.664062,259.671875 C138.828125,259.671875 138.460938,259.273438 138.460938,258.359375 L138.460938,253.882812 L140.304688,253.882812 L140.304688,252.539062 L138.460938,252.539062 L138.460938,250.375 L136.78125,250.375 L136.78125,252.539062 L135.429688,252.539062 L135.429688,253.882812 L136.78125,253.882812 L136.78125,258.765625 C136.78125,260.398438 137.523438,261.054688 139.390625,261.054688 Z M150.226562,261.164062 C152.328125,261.164062 153.640625,259.984375 153.859375,258.3125 L152.226562,258.3125 C152.007812,259.234375 151.28125,259.734375 150.21875,259.734375 C148.820312,259.734375 147.953125,258.601562 147.953125,256.726562 C147.953125,254.890625 148.8125,253.78125 150.21875,253.78125 C151.34375,253.78125 152.03125,254.414062 152.226562,255.242188 L153.859375,255.242188 C153.640625,253.59375 152.351562,252.351562 150.21875,252.351562 C147.742188,252.351562 146.234375,254.03125 146.234375,256.726562 C146.234375,259.476562 147.75,261.164062 150.226562,261.164062 Z M159.367188,261.164062 C161.851562,261.164062 163.375,259.5 163.375,256.757812 C163.375,254.015625 161.84375,252.351562 159.367188,252.351562 C156.882812,252.351562 155.351562,254.023438 155.351562,256.757812 C155.351562,259.5 156.875,261.164062 159.367188,261.164062 Z M159.367188,259.734375 C157.90625,259.734375 157.085938,258.648438 157.085938,256.757812 C157.085938,254.867188 157.90625,253.773438 159.367188,253.773438 C160.820312,253.773438 161.648438,254.867188 161.648438,256.757812 C161.648438,258.640625 160.820312,259.734375 159.367188,259.734375 Z M167.070312,261 L167.070312,256.023438 C167.070312,254.65625 167.859375,253.8125 169.101562,253.8125 C170.34375,253.8125 170.9375,254.5 170.9375,255.90625 L170.9375,261 L172.617188,261 L172.617188,255.507812 C172.617188,253.484375 171.570312,252.351562 169.671875,252.351562 C168.390625,252.351562 167.546875,252.921875 167.132812,253.859375 L167.007812,253.859375 L167.007812,252.515625 L165.390625,252.515625 L165.390625,261 L167.070312,261 Z M178.179688,261.054688 C178.507812,261.054688 178.820312,261.015625 179.09375,260.96875 L179.09375,259.632812 C178.859375,259.65625 178.710938,259.671875 178.453125,259.671875 C177.617188,259.671875 177.25,259.273438 177.25,258.359375 L177.25,253.882812 L179.09375,253.882812 L179.09375,252.539062 L177.25,252.539062 L177.25,250.375 L175.570312,250.375 L175.570312,252.539062 L174.21875,252.539062 L174.21875,253.882812 L175.570312,253.882812 L175.570312,258.765625 C175.570312,260.398438 176.3125,261.054688 178.179688,261.054688 Z M183.421875,261.140625 C184.539062,261.140625 185.46875,260.65625 185.976562,259.796875 L186.109375,259.796875 L186.109375,261 L187.726562,261 L187.726562,255.195312 C187.726562,253.414062 186.523438,252.351562 184.390625,252.351562 C182.460938,252.351562 181.085938,253.28125 180.914062,254.710938 L182.539062,254.710938 C182.726562,254.09375 183.375,253.742188 184.3125,253.742188 C185.460938,253.742188 186.054688,254.265625 186.054688,255.195312 L186.054688,255.9375 L183.75,256.078125 C181.726562,256.203125 180.585938,257.085938 180.585938,258.609375 C180.585938,260.15625 181.78125,261.140625 183.421875,261.140625 Z M183.851562,259.789062 C182.9375,259.789062 182.273438,259.328125 182.273438,258.539062 C182.273438,257.765625 182.804688,257.351562 183.976562,257.273438 L186.054688,257.132812 L186.054688,257.867188 C186.054688,258.960938 185.117188,259.789062 183.851562,259.789062 Z M190.984375,251 C191.570312,251 192.046875,250.523438 192.046875,249.945312 C192.046875,249.359375 191.570312,248.882812 190.984375,248.882812 C190.398438,248.882812 189.921875,249.359375 189.921875,249.945312 C189.921875,250.523438 190.398438,251 190.984375,251 Z M191.820312,261 L191.820312,252.515625 L190.148438,252.515625 L190.148438,261 L191.820312,261 Z M195.96875,261 L195.96875,256.023438 C195.96875,254.65625 196.757812,253.8125 198,253.8125 C199.242188,253.8125 199.835938,254.5 199.835938,255.90625 L199.835938,261 L201.515625,261 L201.515625,255.507812 C201.515625,253.484375 200.46875,252.351562 198.570312,252.351562 C197.289062,252.351562 196.445312,252.921875 196.03125,253.859375 L195.90625,253.859375 L195.90625,252.515625 L194.289062,252.515625 L194.289062,261 L195.96875,261 Z M31.1640625,286 L31.1640625,281.007812 L36.953125,281.007812 L36.953125,286 L38.6953125,286 L38.6953125,274.726562 L36.953125,274.726562 L36.953125,279.492188 L31.1640625,279.492188 L31.1640625,274.726562 L29.4140625,274.726562 L29.4140625,286 L31.1640625,286 Z M43.6796875,286.140625 C44.796875,286.140625 45.7265625,285.65625 46.234375,284.796875 L46.3671875,284.796875 L46.3671875,286 L47.984375,286 L47.984375,280.195312 C47.984375,278.414062 46.78125,277.351562 44.6484375,277.351562 C42.71875,277.351562 41.34375,278.28125 41.171875,279.710938 L42.796875,279.710938 C42.984375,279.09375 43.6328125,278.742188 44.5703125,278.742188 C45.71875,278.742188 46.3125,279.265625 46.3125,280.195312 L46.3125,280.9375 L44.0078125,281.078125 C41.984375,281.203125 40.84375,282.085938 40.84375,283.609375 C40.84375,285.15625 42.0390625,286.140625 43.6796875,286.140625 Z M44.109375,284.789062 C43.1953125,284.789062 42.53125,284.328125 42.53125,283.539062 C42.53125,282.765625 43.0625,282.351562 44.234375,282.273438 L46.3125,282.132812 L46.3125,282.867188 C46.3125,283.960938 45.375,284.789062 44.109375,284.789062 Z M53.453125,286.164062 C55.484375,286.164062 56.9765625,285.09375 56.9765625,283.515625 C56.9765625,282.28125 56.21875,281.585938 54.6015625,281.210938 L53.1875,280.882812 C52.265625,280.664062 51.8359375,280.335938 51.8359375,279.8125 C51.8359375,279.125 52.546875,278.664062 53.484375,278.664062 C54.4375,278.664062 55.046875,279.078125 55.203125,279.710938 L56.8125,279.710938 C56.6484375,278.242188 55.3984375,277.351562 53.484375,277.351562 C51.5625,277.351562 50.1796875,278.414062 50.1796875,279.890625 C50.1796875,281.148438 50.9296875,281.867188 52.546875,282.242188 L54.03125,282.59375 C54.8828125,282.796875 55.28125,283.140625 55.28125,283.671875 C55.28125,284.367188 54.5390625,284.851562 53.4921875,284.851562 C52.4765625,284.851562 51.8515625,284.4375 51.640625,283.773438 L49.9609375,283.773438 C50.109375,285.25 51.4296875,286.164062 53.453125,286.164062 Z M68.1171875,286.273438 C70.953125,286.273438 72.6875,284.554688 72.6875,282.117188 L72.6875,274.726562 L70.9375,274.726562 L70.9375,281.976562 C70.9375,283.585938 69.9140625,284.71875 68.1171875,284.71875 C66.328125,284.71875 65.3046875,283.585938 65.3046875,281.976562 L65.3046875,274.726562 L63.5546875,274.726562 L63.5546875,282.117188 C63.5546875,284.554688 65.296875,286.273438 68.1171875,286.273438 Z M76.984375,286 L76.984375,281.023438 C76.984375,279.65625 77.7734375,278.8125 79.015625,278.8125 C80.2578125,278.8125 80.8515625,279.5 80.8515625,280.90625 L80.8515625,286 L82.53125,286 L82.53125,280.507812 C82.53125,278.484375 81.484375,277.351562 79.5859375,277.351562 C78.3046875,277.351562 77.4609375,277.921875 77.046875,278.859375 L76.921875,278.859375 L76.921875,277.515625 L75.3046875,277.515625 L75.3046875,286 L76.984375,286 Z M86.5703125,288.828125 L86.5703125,284.71875 L86.703125,284.71875 C87.1484375,285.617188 88.109375,286.140625 89.3203125,286.140625 C91.46875,286.140625 92.8359375,284.4375 92.8359375,281.757812 C92.8359375,279.0625 91.46875,277.367188 89.3046875,277.367188 C88.1484375,277.367188 87.1484375,277.953125 86.6328125,278.921875 L86.5078125,278.921875 L86.5078125,277.515625 L84.890625,277.515625 L84.890625,288.828125 L86.5703125,288.828125 Z M88.828125,284.703125 C87.421875,284.703125 86.5390625,283.570312 86.5390625,281.757812 C86.5390625,279.9375 87.421875,278.804688 88.8359375,278.804688 C90.2578125,278.804688 91.109375,279.914062 91.109375,281.757812 C91.109375,283.601562 90.2578125,284.703125 88.828125,284.703125 Z M97.203125,286.140625 C98.3203125,286.140625 99.25,285.65625 99.7578125,284.796875 L99.890625,284.796875 L99.890625,286 L101.507812,286 L101.507812,280.195312 C101.507812,278.414062 100.304688,277.351562 98.171875,277.351562 C96.2421875,277.351562 94.8671875,278.28125 94.6953125,279.710938 L96.3203125,279.710938 C96.5078125,279.09375 97.15625,278.742188 98.09375,278.742188 C99.2421875,278.742188 99.8359375,279.265625 99.8359375,280.195312 L99.8359375,280.9375 L97.53125,281.078125 C95.5078125,281.203125 94.3671875,282.085938 94.3671875,283.609375 C94.3671875,285.15625 95.5625,286.140625 97.203125,286.140625 Z M97.6328125,284.789062 C96.71875,284.789062 96.0546875,284.328125 96.0546875,283.539062 C96.0546875,282.765625 96.5859375,282.351562 97.7578125,282.273438 L99.8359375,282.132812 L99.8359375,282.867188 C99.8359375,283.960938 98.8984375,284.789062 97.6328125,284.789062 Z M104.765625,276 C105.351562,276 105.828125,275.523438 105.828125,274.945312 C105.828125,274.359375 105.351562,273.882812 104.765625,273.882812 C104.179688,273.882812 103.703125,274.359375 103.703125,274.945312 C103.703125,275.523438 104.179688,276 104.765625,276 Z M105.601562,286 L105.601562,277.515625 L103.929688,277.515625 L103.929688,286 L105.601562,286 Z M111.179688,286.140625 C112.351562,286.140625 113.34375,285.585938 113.851562,284.65625 L113.984375,284.65625 L113.984375,286 L115.59375,286 L115.59375,274.1875 L113.914062,274.1875 L113.914062,278.859375 L113.789062,278.859375 C113.328125,277.929688 112.34375,277.367188 111.179688,277.367188 C109.03125,277.367188 107.648438,279.078125 107.648438,281.75 C107.648438,284.4375 109.015625,286.140625 111.179688,286.140625 Z M111.65625,284.703125 C110.234375,284.703125 109.382812,283.601562 109.382812,281.757812 C109.382812,279.921875 110.242188,278.804688 111.65625,278.804688 C113.0625,278.804688 113.945312,279.945312 113.945312,281.757812 C113.945312,283.585938 113.070312,284.703125 111.65625,284.703125 Z M124.429688,286 L124.429688,274.726562 L122.679688,274.726562 L122.679688,286 L124.429688,286 Z M128.734375,286 L128.734375,281.023438 C128.734375,279.65625 129.523438,278.8125 130.765625,278.8125 C132.007812,278.8125 132.601562,279.5 132.601562,280.90625 L132.601562,286 L134.28125,286 L134.28125,280.507812 C134.28125,278.484375 133.234375,277.351562 131.335938,277.351562 C130.054688,277.351562 129.210938,277.921875 128.796875,278.859375 L128.671875,278.859375 L128.671875,277.515625 L127.054688,277.515625 L127.054688,286 L128.734375,286 Z M140.5,286 L143.5625,277.515625 L141.78125,277.515625 L139.671875,284.28125 L139.539062,284.28125 L137.421875,277.515625 L135.625,277.515625 L138.695312,286 L140.5,286 Z M148.53125,286.164062 C151.015625,286.164062 152.539062,284.5 152.539062,281.757812 C152.539062,279.015625 151.007812,277.351562 148.53125,277.351562 C146.046875,277.351562 144.515625,279.023438 144.515625,281.757812 C144.515625,284.5 146.039062,286.164062 148.53125,286.164062 Z M148.53125,284.734375 C147.070312,284.734375 146.25,283.648438 146.25,281.757812 C146.25,279.867188 147.070312,278.773438 148.53125,278.773438 C149.984375,278.773438 150.8125,279.867188 150.8125,281.757812 C150.8125,283.640625 149.984375,284.734375 148.53125,284.734375 Z M155.421875,276 C156.007812,276 156.484375,275.523438 156.484375,274.945312 C156.484375,274.359375 156.007812,273.882812 155.421875,273.882812 C154.835938,273.882812 154.359375,274.359375 154.359375,274.945312 C154.359375,275.523438 154.835938,276 155.421875,276 Z M156.257812,286 L156.257812,277.515625 L154.585938,277.515625 L154.585938,286 L156.257812,286 Z M162.296875,286.164062 C164.398438,286.164062 165.710938,284.984375 165.929688,283.3125 L164.296875,283.3125 C164.078125,284.234375 163.351562,284.734375 162.289062,284.734375 C160.890625,284.734375 160.023438,283.601562 160.023438,281.726562 C160.023438,279.890625 160.882812,278.78125 162.289062,278.78125 C163.414062,278.78125 164.101562,279.414062 164.296875,280.242188 L165.929688,280.242188 C165.710938,278.59375 164.421875,277.351562 162.289062,277.351562 C159.8125,277.351562 158.304688,279.03125 158.304688,281.726562 C158.304688,284.476562 159.820312,286.164062 162.296875,286.164062 Z M171.351562,286.164062 C173.296875,286.164062 174.671875,285.226562 175.039062,283.726562 L173.421875,283.726562 C173.109375,284.414062 172.414062,284.789062 171.398438,284.789062 C170.054688,284.789062 169.1875,283.820312 169.132812,282.28125 L169.132812,282.203125 L175.140625,282.203125 L175.140625,281.625 C175.140625,278.96875 173.710938,277.351562 171.34375,277.351562 C168.945312,277.351562 167.421875,279.078125 167.421875,281.773438 C167.421875,284.484375 168.914062,286.164062 171.351562,286.164062 Z M173.429688,280.992188 L169.132812,280.992188 C169.226562,279.625 170.09375,278.71875 171.335938,278.71875 C172.578125,278.71875 173.390625,279.617188 173.429688,280.992188 Z M180.234375,286.164062 C182.265625,286.164062 183.757812,285.09375 183.757812,283.515625 C183.757812,282.28125 183,281.585938 181.382812,281.210938 L179.96875,280.882812 C179.046875,280.664062 178.617188,280.335938 178.617188,279.8125 C178.617188,279.125 179.328125,278.664062 180.265625,278.664062 C181.21875,278.664062 181.828125,279.078125 181.984375,279.710938 L183.59375,279.710938 C183.429688,278.242188 182.179688,277.351562 180.265625,277.351562 C178.34375,277.351562 176.960938,278.414062 176.960938,279.890625 C176.960938,281.148438 177.710938,281.867188 179.328125,282.242188 L180.8125,282.59375 C181.664062,282.796875 182.0625,283.140625 182.0625,283.671875 C182.0625,284.367188 181.320312,284.851562 180.273438,284.851562 C179.257812,284.851562 178.632812,284.4375 178.421875,283.773438 L176.742188,283.773438 C176.890625,285.25 178.210938,286.164062 180.234375,286.164062 Z" id="ActiveandNonRenewingAllSubscriptionsCancelledinPast15DaysCardExpiredCardExpiringEmaildoesnotcontainHasUnpaidInvoices" fill="#202022" fill-rule="nonzero"></path>
            <text id="Subject:" font-family="SFProText-Medium, SF Pro Text" font-size="16" font-weight="400" fill="#65656A">
                <tspan x="28" y="57">Subject:</tspan>
            </text>
            <text id="Thanks-for-Subscribi" font-family="SFProText-Medium, SF Pro Text" font-size="16" font-weight="400" fill="#202022">
                <tspan x="104" y="57">Thanks for Subscribing!</tspan>
            </text>
            <path d="M375,20 C377.209139,20 379,21.790861 379,24 L379,69 L28,69 L28,24 C28,21.790861 29.790861,20 32,20 L375,20 Z" id="Combined-Shape" stroke="#F5F4F5" fill="#F6F6F6"></path>
            <line x1="42.5" y1="30.5" x2="42.5" y2="61.5" id="Line-3" stroke="#979797" stroke-linecap="square"></line>
            <path d="M31.9990234,105 L31.9990234,96.4130859 L32.1396484,96.4130859 L35.3740234,104.375977 L37.140625,104.375977 L40.3662109,96.4130859 L40.5068359,96.4130859 L40.5068359,105 L42.9677734,105 L42.9677734,92.3173828 L39.8476562,92.3173828 L36.3320312,101.0625 L36.1738281,101.0625 L32.6669922,92.3173828 L29.5380859,92.3173828 L29.5380859,105 L31.9990234,105 Z M48.4433594,105.149414 C49.7001953,105.149414 50.7548828,104.613281 51.2558594,103.716797 L51.4140625,103.716797 L51.4140625,105 L53.8925781,105 L53.8925781,98.390625 C53.8925781,96.3251953 52.4423828,95.1123047 49.8759766,95.1123047 C47.4414062,95.1123047 45.7978516,96.2285156 45.6308594,98.0039062 L47.9863281,98.0039062 C48.1972656,97.3974609 48.8125,97.0722656 49.7353516,97.0722656 C50.7900391,97.0722656 51.3701172,97.5556641 51.3701172,98.390625 L51.3701172,99.1904297 L49.0234375,99.3310547 C46.6152344,99.4716797 45.2705078,100.491211 45.2705078,102.240234 C45.2705078,104.006836 46.5800781,105.149414 48.4433594,105.149414 Z M49.2871094,103.277344 C48.3994141,103.277344 47.7753906,102.829102 47.7753906,102.082031 C47.7753906,101.370117 48.3115234,100.957031 49.4101562,100.886719 L51.3701172,100.754883 L51.3701172,101.475586 C51.3701172,102.495117 50.4736328,103.277344 49.2871094,103.277344 Z M58.9638672,105 L58.9638672,99.4013672 C58.9638672,98.0917969 59.6933594,97.2480469 60.8798828,97.2480469 C62.0927734,97.2480469 62.6640625,97.9599609 62.6640625,99.3222656 L62.6640625,105 L65.2216797,105 L65.2216797,98.7421875 C65.2216797,96.4306641 64.0615234,95.1123047 61.9082031,95.1123047 C60.4755859,95.1123047 59.4912109,95.7890625 59.0429688,96.8789062 L58.8847656,96.8789062 L58.8847656,95.3232422 L56.40625,95.3232422 L56.40625,105 L58.9638672,105 Z M70.3544922,105.149414 C71.6113281,105.149414 72.6660156,104.613281 73.1669922,103.716797 L73.3251953,103.716797 L73.3251953,105 L75.8037109,105 L75.8037109,98.390625 C75.8037109,96.3251953 74.3535156,95.1123047 71.7871094,95.1123047 C69.3525391,95.1123047 67.7089844,96.2285156 67.5419922,98.0039062 L69.8974609,98.0039062 C70.1083984,97.3974609 70.7236328,97.0722656 71.6464844,97.0722656 C72.7011719,97.0722656 73.28125,97.5556641 73.28125,98.390625 L73.28125,99.1904297 L70.9345703,99.3310547 C68.5263672,99.4716797 67.1816406,100.491211 67.1816406,102.240234 C67.1816406,104.006836 68.4912109,105.149414 70.3544922,105.149414 Z M71.1982422,103.277344 C70.3105469,103.277344 69.6865234,102.829102 69.6865234,102.082031 C69.6865234,101.370117 70.2226562,100.957031 71.3212891,100.886719 L73.28125,100.754883 L73.28125,101.475586 C73.28125,102.495117 72.3847656,103.277344 71.1982422,103.277344 Z M82.5888672,108.665039 C85.515625,108.665039 87.3701172,107.241211 87.3701172,104.982422 L87.3701172,95.3232422 L84.8916016,95.3232422 L84.8916016,96.8701172 L84.7333984,96.8701172 C84.2148438,95.8154297 83.0986328,95.1650391 81.7890625,95.1650391 C79.328125,95.1650391 77.8164062,97.0810547 77.8164062,100.078125 C77.8164062,102.978516 79.3193359,104.859375 81.7363281,104.859375 C83.0986328,104.859375 84.1181641,104.305664 84.6542969,103.286133 L84.8125,103.286133 L84.8125,105.087891 C84.8125,106.204102 84.0126953,106.854492 82.6416016,106.854492 C81.5341797,106.854492 80.8134766,106.467773 80.6816406,105.852539 L78.1503906,105.852539 C78.3085938,107.548828 80.0136719,108.665039 82.5888672,108.665039 Z M82.6240234,102.899414 C81.2353516,102.899414 80.4443359,101.80957 80.4443359,100.069336 C80.4443359,98.3291016 81.2441406,97.2392578 82.6240234,97.2392578 C84.0039062,97.2392578 84.8388672,98.3291016 84.8388672,100.069336 C84.8388672,101.80957 84.0126953,102.899414 82.6240234,102.899414 Z M94.1552734,105.202148 C96.5283203,105.202148 98.2070312,104.068359 98.5849609,102.266602 L96.203125,102.266602 C95.9306641,102.925781 95.2363281,103.294922 94.2255859,103.294922 C92.8896484,103.294922 92.0458984,102.37207 92.0107422,100.895508 L92.0107422,100.763672 L98.6640625,100.763672 L98.6640625,99.9990234 C98.6640625,96.9404297 96.9765625,95.1123047 94.1201172,95.1123047 C91.2373047,95.1123047 89.4619141,97.0634766 89.4619141,100.209961 C89.4619141,103.338867 91.2021484,105.202148 94.1552734,105.202148 Z M96.1503906,99.1728516 L92.0195312,99.1728516 C92.1074219,97.8720703 92.9423828,97.0195312 94.1289062,97.0195312 C95.3242188,97.0195312 96.0976562,97.8457031 96.1503906,99.1728516 Z M110.160156,105.325195 C113.341797,105.325195 115.301758,103.760742 115.301758,101.229492 C115.301758,99.2695312 114.203125,98.1708984 111.654297,97.6259766 L110.125,97.3007812 C108.639648,96.9755859 108.033203,96.5097656 108.033203,95.7099609 C108.033203,94.7167969 108.912109,94.0751953 110.239258,94.0751953 C111.522461,94.0751953 112.454102,94.7519531 112.577148,95.7890625 L115.073242,95.7890625 C114.994141,93.5478516 113.016602,91.9921875 110.22168,91.9921875 C107.294922,91.9921875 105.370117,93.5566406 105.370117,95.9208984 C105.370117,97.8457031 106.503906,99.0322266 108.81543,99.5244141 L110.467773,99.8847656 C112.023438,100.227539 112.65625,100.710938 112.65625,101.545898 C112.65625,102.530273 111.680664,103.224609 110.300781,103.224609 C108.806641,103.224609 107.769531,102.547852 107.646484,101.493164 L105.080078,101.493164 C105.176758,103.839844 107.136719,105.325195 110.160156,105.325195 Z M120.856445,105.202148 C122.324219,105.202148 123.229492,104.569336 123.686523,103.444336 L123.844727,103.444336 L123.844727,105 L126.323242,105 L126.323242,95.3232422 L123.765625,95.3232422 L123.765625,100.913086 C123.765625,102.240234 123.080078,103.057617 121.805664,103.057617 C120.62793,103.057617 120.021484,102.363281 120.021484,100.992188 L120.021484,95.3232422 L117.463867,95.3232422 L117.463867,101.625 C117.463867,103.875 118.764648,105.202148 120.856445,105.202148 Z M134.602539,105.149414 C137.037109,105.149414 138.53125,103.259766 138.53125,100.157227 C138.53125,97.0371094 137.054688,95.1650391 134.602539,95.1650391 C133.275391,95.1650391 132.185547,95.8066406 131.693359,96.8701172 L131.535156,96.8701172 L131.535156,91.6230469 L128.977539,91.6230469 L128.977539,105 L131.456055,105 L131.456055,103.479492 L131.614258,103.479492 C132.132812,104.53418 133.231445,105.149414 134.602539,105.149414 Z M133.714844,103.083984 C132.361328,103.083984 131.517578,101.967773 131.508789,100.166016 C131.517578,98.3642578 132.370117,97.2392578 133.714844,97.2392578 C135.068359,97.2392578 135.90332,98.3554688 135.90332,100.157227 C135.90332,101.976562 135.077148,103.083984 133.714844,103.083984 Z M144.4375,105.202148 C146.977539,105.202148 148.708984,103.954102 148.708984,102.038086 C148.708984,100.59668 147.865234,99.8056641 145.984375,99.3925781 L144.165039,98.9970703 C143.268555,98.7949219 142.855469,98.4873047 142.855469,97.9951172 C142.855469,97.3623047 143.532227,96.9316406 144.446289,96.9316406 C145.395508,96.9316406 145.984375,97.3271484 146.116211,97.96875 L148.480469,97.96875 C148.339844,96.140625 146.889648,95.1123047 144.428711,95.1123047 C142.011719,95.1123047 140.394531,96.3339844 140.394531,98.1445312 C140.394531,99.6298828 141.308594,100.517578 143.189453,100.930664 L144.947266,101.326172 C145.799805,101.519531 146.168945,101.818359 146.168945,102.310547 C146.168945,102.952148 145.483398,103.391602 144.490234,103.391602 C143.470703,103.391602 142.84668,102.996094 142.65332,102.328125 L140.157227,102.328125 C140.333008,104.15625 141.879883,105.202148 144.4375,105.202148 Z M155.072266,105.202148 C157.594727,105.202148 159.176758,103.813477 159.387695,101.686523 L156.99707,101.686523 C156.803711,102.65332 156.118164,103.171875 155.072266,103.171875 C153.701172,103.171875 152.918945,102.09082 152.918945,100.139648 C152.918945,98.2148438 153.692383,97.1513672 155.072266,97.1513672 C156.162109,97.1513672 156.821289,97.7666016 156.99707,98.6982422 L159.387695,98.6982422 C159.176758,96.5361328 157.638672,95.1123047 155.072266,95.1123047 C152.040039,95.1123047 150.334961,96.9492188 150.334961,100.139648 C150.334961,103.365234 152.048828,105.202148 155.072266,105.202148 Z M163.94043,105 L163.94043,99.5859375 C163.94043,98.2236328 164.898438,97.3886719 166.295898,97.3886719 C166.708984,97.3886719 167.306641,97.4589844 167.508789,97.5292969 L167.508789,95.2792969 C167.289062,95.2089844 166.858398,95.1650391 166.506836,95.1650391 C165.276367,95.1650391 164.274414,95.8945312 164.019531,96.8613281 L163.861328,96.8613281 L163.861328,95.3232422 L161.382812,95.3232422 L161.382812,105 L163.94043,105 Z M170.514648,93.8378906 C171.305664,93.8378906 171.956055,93.2050781 171.956055,92.4140625 C171.956055,91.6142578 171.305664,90.9814453 170.514648,90.9814453 C169.723633,90.9814453 169.064453,91.6142578 169.064453,92.4140625 C169.064453,93.2050781 169.723633,93.8378906 170.514648,93.8378906 Z M171.789062,105 L171.789062,95.3232422 L169.231445,95.3232422 L169.231445,105 L171.789062,105 Z M176.930664,108.208008 L176.930664,103.523438 L177.088867,103.523438 C177.563477,104.542969 178.626953,105.149414 180.015625,105.149414 C182.441406,105.149414 183.926758,103.268555 183.926758,100.157227 C183.926758,97.0371094 182.423828,95.1650391 179.97168,95.1650391 C178.635742,95.1650391 177.537109,95.8242188 177.009766,96.9140625 L176.851562,96.9140625 L176.851562,95.3232422 L174.373047,95.3232422 L174.373047,108.208008 L176.930664,108.208008 Z M179.101562,103.083984 C177.748047,103.083984 176.904297,101.976562 176.904297,100.166016 C176.904297,98.3554688 177.748047,97.2392578 179.110352,97.2392578 C180.472656,97.2392578 181.298828,98.3378906 181.298828,100.157227 C181.298828,101.985352 180.481445,103.083984 179.101562,103.083984 Z M190.026367,105.035156 C190.518555,105.035156 190.993164,104.982422 191.30957,104.920898 L191.30957,103.03125 C191.063477,103.057617 190.887695,103.075195 190.553711,103.075195 C189.683594,103.075195 189.296875,102.670898 189.296875,101.800781 L189.296875,97.3535156 L191.30957,97.3535156 L191.30957,95.4111328 L189.296875,95.4111328 L189.296875,93.0117188 L186.739258,93.0117188 L186.739258,95.4111328 L185.227539,95.4111328 L185.227539,97.3535156 L186.739258,97.3535156 L186.739258,102.389648 C186.739258,104.270508 187.670898,105.035156 190.026367,105.035156 Z M194.737305,93.8378906 C195.52832,93.8378906 196.178711,93.2050781 196.178711,92.4140625 C196.178711,91.6142578 195.52832,90.9814453 194.737305,90.9814453 C193.946289,90.9814453 193.287109,91.6142578 193.287109,92.4140625 C193.287109,93.2050781 193.946289,93.8378906 194.737305,93.8378906 Z M196.011719,105 L196.011719,95.3232422 L193.454102,95.3232422 L193.454102,105 L196.011719,105 Z M202.893555,105.202148 C205.873047,105.202148 207.666016,103.321289 207.666016,100.157227 C207.666016,97.0195312 205.84668,95.1123047 202.893555,95.1123047 C199.94043,95.1123047 198.121094,97.0283203 198.121094,100.157227 C198.121094,103.3125 199.914062,105.202148 202.893555,105.202148 Z M202.893555,103.180664 C201.522461,103.180664 200.749023,102.073242 200.749023,100.157227 C200.749023,98.2587891 201.53125,97.1425781 202.893555,97.1425781 C204.24707,97.1425781 205.038086,98.2587891 205.038086,100.157227 C205.038086,102.073242 204.255859,103.180664 202.893555,103.180664 Z M212.306641,105 L212.306641,99.4013672 C212.306641,98.0917969 213.036133,97.2480469 214.222656,97.2480469 C215.435547,97.2480469 216.006836,97.9599609 216.006836,99.3222656 L216.006836,105 L218.564453,105 L218.564453,98.7421875 C218.564453,96.4306641 217.404297,95.1123047 215.250977,95.1123047 C213.818359,95.1123047 212.833984,95.7890625 212.385742,96.8789062 L212.227539,96.8789062 L212.227539,95.3232422 L209.749023,95.3232422 L209.749023,105 L212.306641,105 Z M224.866211,105.202148 C227.40625,105.202148 229.137695,103.954102 229.137695,102.038086 C229.137695,100.59668 228.293945,99.8056641 226.413086,99.3925781 L224.59375,98.9970703 C223.697266,98.7949219 223.28418,98.4873047 223.28418,97.9951172 C223.28418,97.3623047 223.960938,96.9316406 224.875,96.9316406 C225.824219,96.9316406 226.413086,97.3271484 226.544922,97.96875 L228.90918,97.96875 C228.768555,96.140625 227.318359,95.1123047 224.857422,95.1123047 C222.44043,95.1123047 220.823242,96.3339844 220.823242,98.1445312 C220.823242,99.6298828 221.737305,100.517578 223.618164,100.930664 L225.375977,101.326172 C226.228516,101.519531 226.597656,101.818359 226.597656,102.310547 C226.597656,102.952148 225.912109,103.391602 224.918945,103.391602 C223.899414,103.391602 223.275391,102.996094 223.082031,102.328125 L220.585938,102.328125 C220.761719,104.15625 222.308594,105.202148 224.866211,105.202148 Z" id="ManageSubscriptions" fill="#4472D8" fill-rule="nonzero"></path>
            <rect id="Rectangle" fill-opacity="0.8" fill="url(#linearGradient-3)" transform="translate(127.000000, 220.000000) scale(1, -1) translate(-127.000000, -220.000000) " x="15" y="147" width="224" height="146"></rect>
        </g>
    </g>
</svg>