<?xml version="1.0" encoding="UTF-8"?>
<svg width="601px" height="430px" viewBox="0 0 601 430" version="1.1" xmlns="http://www.w3.org/2000/svg" xmlns:xlink="http://www.w3.org/1999/xlink">
    <!-- Generator: Sketch 63.1 (92452) - https://sketch.com -->
    <title>Group 2 Copy</title>
    <desc>Created with Sketch.</desc>
    <defs>
        <rect id="path-1" x="0" y="0" width="553" height="382" rx="15"></rect>
        <filter x="-6.7%" y="-9.2%" width="113.4%" height="119.4%" filterUnits="objectBoundingBox" id="filter-2">
            <feOffset dx="0" dy="2" in="SourceAlpha" result="shadowOffsetOuter1"></feOffset>
            <feGaussianBlur stdDeviation="12" in="shadowOffsetOuter1" result="shadowBlurOuter1"></feGaussianBlur>
            <feColorMatrix values="0 0 0 0 0.781221694   0 0 0 0 0.781221694   0 0 0 0 0.781221694  0 0 0 0.5 0" type="matrix" in="shadowBlurOuter1"></feColorMatrix>
        </filter>
    </defs>
    <g id="Page-1" stroke="none" stroke-width="1" fill="none" fill-rule="evenodd">
        <g id="Group-2-Copy" transform="translate(24.000000, 22.000000)">
            <g id="Group">
                <g id="Rectangle-Copy-22">
                    <use fill="black" fill-opacity="1" filter="url(#filter-2)" xlink:href="#path-1"></use>
                    <use fill="#FFFFFF" fill-rule="evenodd" xlink:href="#path-1"></use>
                </g>
                <path d="M42.296875,51.2890625 C45.625,51.2890625 47.71875,49.0078125 47.71875,45.359375 C47.71875,41.7109375 45.6171875,39.4375 42.296875,39.4375 C38.9765625,39.4375 36.8671875,41.703125 36.8671875,45.359375 C36.8671875,49.0078125 38.9453125,51.2890625 42.296875,51.2890625 Z M42.296875,49.2890625 C40.4375,49.2890625 39.28125,47.75 39.28125,45.359375 C39.28125,42.9609375 40.4609375,41.4375 42.296875,41.4375 C44.125,41.4375 45.3046875,42.9609375 45.3046875,45.359375 C45.3046875,47.75 44.1328125,49.2890625 42.296875,49.2890625 Z M52,51 L52,46.0234375 C52,44.859375 52.6484375,44.109375 53.703125,44.109375 C54.78125,44.109375 55.2890625,44.7421875 55.2890625,45.953125 L55.2890625,51 L57.5625,51 L57.5625,45.4375 C57.5625,43.3828125 56.53125,42.2109375 54.6171875,42.2109375 C53.34375,42.2109375 52.46875,42.8125 52.0703125,43.78125 L51.9296875,43.78125 L51.9296875,42.3984375 L49.7265625,42.3984375 L49.7265625,51 L52,51 Z M68.90625,51.2890625 C71.625,51.2890625 73.609375,49.640625 73.8046875,47.234375 L71.5078125,47.234375 C71.28125,48.4765625 70.265625,49.2734375 68.9140625,49.2734375 C67.1328125,49.2734375 66.03125,47.7734375 66.03125,45.359375 C66.03125,42.9453125 67.1328125,41.4453125 68.90625,41.4453125 C70.25,41.4453125 71.2734375,42.3046875 71.5,43.609375 L73.796875,43.609375 C73.625,41.1875 71.578125,39.4375 68.90625,39.4375 C65.6328125,39.4375 63.6171875,41.6953125 63.6171875,45.359375 C63.6171875,49.0234375 65.640625,51.2890625 68.90625,51.2890625 Z M79.5703125,51.1796875 C82.21875,51.1796875 83.8125,49.5078125 83.8125,46.6953125 C83.8125,43.90625 82.1953125,42.2109375 79.5703125,42.2109375 C76.9453125,42.2109375 75.328125,43.9140625 75.328125,46.6953125 C75.328125,49.5 76.921875,51.1796875 79.5703125,51.1796875 Z M79.5703125,49.3828125 C78.3515625,49.3828125 77.6640625,48.3984375 77.6640625,46.6953125 C77.6640625,45.0078125 78.359375,44.015625 79.5703125,44.015625 C80.7734375,44.015625 81.4765625,45.0078125 81.4765625,46.6953125 C81.4765625,48.3984375 80.78125,49.3828125 79.5703125,49.3828125 Z M87.9375,51 L87.9375,46.0234375 C87.9375,44.859375 88.5859375,44.109375 89.640625,44.109375 C90.71875,44.109375 91.2265625,44.7421875 91.2265625,45.953125 L91.2265625,51 L93.5,51 L93.5,45.4375 C93.5,43.3828125 92.46875,42.2109375 90.5546875,42.2109375 C89.28125,42.2109375 88.40625,42.8125 88.0078125,43.78125 L87.8671875,43.78125 L87.8671875,42.3984375 L85.6640625,42.3984375 L85.6640625,51 L87.9375,51 Z M99.2734375,51.03125 C99.7109375,51.03125 100.132812,50.984375 100.414062,50.9296875 L100.414062,49.25 C100.195312,49.2734375 100.039062,49.2890625 99.7421875,49.2890625 C98.96875,49.2890625 98.625,48.9296875 98.625,48.15625 L98.625,44.203125 L100.414062,44.203125 L100.414062,42.4765625 L98.625,42.4765625 L98.625,40.34375 L96.3515625,40.34375 L96.3515625,42.4765625 L95.0078125,42.4765625 L95.0078125,44.203125 L96.3515625,44.203125 L96.3515625,48.6796875 C96.3515625,50.3515625 97.1796875,51.03125 99.2734375,51.03125 Z M104.578125,51 L104.578125,46.1875 C104.578125,44.9765625 105.429688,44.234375 106.671875,44.234375 C107.039062,44.234375 107.570312,44.296875 107.75,44.359375 L107.75,42.359375 C107.554688,42.296875 107.171875,42.2578125 106.859375,42.2578125 C105.765625,42.2578125 104.875,42.90625 104.648438,43.765625 L104.507812,43.765625 L104.507812,42.3984375 L102.304688,42.3984375 L102.304688,51 L104.578125,51 Z M111.46875,51.1328125 C112.585938,51.1328125 113.523438,50.65625 113.96875,49.859375 L114.109375,49.859375 L114.109375,51 L116.3125,51 L116.3125,45.125 C116.3125,43.2890625 115.023438,42.2109375 112.742188,42.2109375 C110.578125,42.2109375 109.117188,43.203125 108.96875,44.78125 L111.0625,44.78125 C111.25,44.2421875 111.796875,43.953125 112.617188,43.953125 C113.554688,43.953125 114.070312,44.3828125 114.070312,45.125 L114.070312,45.8359375 L111.984375,45.9609375 C109.84375,46.0859375 108.648438,46.9921875 108.648438,48.546875 C108.648438,50.1171875 109.8125,51.1328125 111.46875,51.1328125 Z M112.21875,49.46875 C111.429688,49.46875 110.875,49.0703125 110.875,48.40625 C110.875,47.7734375 111.351562,47.40625 112.328125,47.34375 L114.070312,47.2265625 L114.070312,47.8671875 C114.070312,48.7734375 113.273438,49.46875 112.21875,49.46875 Z M122.335938,51.1796875 C124.578125,51.1796875 125.984375,49.9453125 126.171875,48.0546875 L124.046875,48.0546875 C123.875,48.9140625 123.265625,49.375 122.335938,49.375 C121.117188,49.375 120.421875,48.4140625 120.421875,46.6796875 C120.421875,44.96875 121.109375,44.0234375 122.335938,44.0234375 C123.304688,44.0234375 123.890625,44.5703125 124.046875,45.3984375 L126.171875,45.3984375 C125.984375,43.4765625 124.617188,42.2109375 122.335938,42.2109375 C119.640625,42.2109375 118.125,43.84375 118.125,46.6796875 C118.125,49.546875 119.648438,51.1796875 122.335938,51.1796875 Z M131.59375,51.03125 C132.03125,51.03125 132.453125,50.984375 132.734375,50.9296875 L132.734375,49.25 C132.515625,49.2734375 132.359375,49.2890625 132.0625,49.2890625 C131.289062,49.2890625 130.945312,48.9296875 130.945312,48.15625 L130.945312,44.203125 L132.734375,44.203125 L132.734375,42.4765625 L130.945312,42.4765625 L130.945312,40.34375 L128.671875,40.34375 L128.671875,42.4765625 L127.328125,42.4765625 L127.328125,44.203125 L128.671875,44.203125 L128.671875,48.6796875 C128.671875,50.3515625 129.5,51.03125 131.59375,51.03125 Z M144.070312,51 L144.070312,41.671875 L147.453125,41.671875 L147.453125,39.7265625 L138.328125,39.7265625 L138.328125,41.671875 L141.710938,41.671875 L141.710938,51 L144.070312,51 Z M151.578125,51.1796875 C153.6875,51.1796875 155.179688,50.171875 155.515625,48.5703125 L153.398438,48.5703125 C153.15625,49.15625 152.539062,49.484375 151.640625,49.484375 C150.453125,49.484375 149.703125,48.6640625 149.671875,47.3515625 L149.671875,47.234375 L155.585938,47.234375 L155.585938,46.5546875 C155.585938,43.8359375 154.085938,42.2109375 151.546875,42.2109375 C148.984375,42.2109375 147.40625,43.9453125 147.40625,46.7421875 C147.40625,49.5234375 148.953125,51.1796875 151.578125,51.1796875 Z M153.351562,45.8203125 L149.679688,45.8203125 C149.757812,44.6640625 150.5,43.90625 151.554688,43.90625 C152.617188,43.90625 153.304688,44.640625 153.351562,45.8203125 Z M159.71875,51 L159.71875,46.1875 C159.71875,44.9765625 160.570312,44.234375 161.8125,44.234375 C162.179688,44.234375 162.710938,44.296875 162.890625,44.359375 L162.890625,42.359375 C162.695312,42.296875 162.3125,42.2578125 162,42.2578125 C160.90625,42.2578125 160.015625,42.90625 159.789062,43.765625 L159.648438,43.765625 L159.648438,42.3984375 L157.445312,42.3984375 L157.445312,51 L159.71875,51 Z M166.757812,51 L166.757812,45.8125 C166.757812,44.828125 167.390625,44.109375 168.28125,44.109375 C169.171875,44.109375 169.703125,44.640625 169.703125,45.5625 L169.703125,51 L171.890625,51 L171.890625,45.7109375 C171.890625,44.78125 172.484375,44.109375 173.40625,44.109375 C174.367188,44.109375 174.84375,44.625 174.84375,45.6640625 L174.84375,51 L177.117188,51 L177.117188,45.09375 C177.117188,43.3203125 176.046875,42.2109375 174.328125,42.2109375 C173.125,42.2109375 172.132812,42.84375 171.734375,43.796875 L171.59375,43.796875 C171.25,42.8125 170.421875,42.2109375 169.210938,42.2109375 C168.078125,42.2109375 167.179688,42.8125 166.828125,43.796875 L166.6875,43.796875 L166.6875,42.3984375 L164.484375,42.3984375 L164.484375,51 L166.757812,51 Z M187.195312,51.1796875 C189.304688,51.1796875 190.796875,50.171875 191.132812,48.5703125 L189.015625,48.5703125 C188.773438,49.15625 188.15625,49.484375 187.257812,49.484375 C186.070312,49.484375 185.320312,48.6640625 185.289062,47.3515625 L185.289062,47.234375 L191.203125,47.234375 L191.203125,46.5546875 C191.203125,43.8359375 189.703125,42.2109375 187.164062,42.2109375 C184.601562,42.2109375 183.023438,43.9453125 183.023438,46.7421875 C183.023438,49.5234375 184.570312,51.1796875 187.195312,51.1796875 Z M188.96875,45.8203125 L185.296875,45.8203125 C185.375,44.6640625 186.117188,43.90625 187.171875,43.90625 C188.234375,43.90625 188.921875,44.640625 188.96875,45.8203125 Z M195.335938,51 L195.335938,46.0234375 C195.335938,44.859375 195.984375,44.109375 197.039062,44.109375 C198.117188,44.109375 198.625,44.7421875 198.625,45.953125 L198.625,51 L200.898438,51 L200.898438,45.4375 C200.898438,43.3828125 199.867188,42.2109375 197.953125,42.2109375 C196.679688,42.2109375 195.804688,42.8125 195.40625,43.78125 L195.265625,43.78125 L195.265625,42.3984375 L193.0625,42.3984375 L193.0625,51 L195.335938,51 Z M206.1875,51.1328125 C207.382812,51.1328125 208.359375,50.578125 208.820312,49.6484375 L208.960938,49.6484375 L208.960938,51 L211.164062,51 L211.164062,39.109375 L208.890625,39.109375 L208.890625,43.7734375 L208.757812,43.7734375 C208.3125,42.8203125 207.351562,42.2578125 206.1875,42.2578125 C204.023438,42.2578125 202.679688,43.953125 202.679688,46.6875 C202.679688,49.4296875 204.015625,51.1328125 206.1875,51.1328125 Z M206.960938,49.296875 C205.742188,49.296875 205.015625,48.3203125 205.015625,46.6953125 C205.015625,45.078125 205.75,44.1015625 206.960938,44.1015625 C208.171875,44.1015625 208.914062,45.09375 208.914062,46.703125 C208.914062,48.3125 208.179688,49.296875 206.960938,49.296875 Z" id="OnContractTermend" fill="#202022" fill-rule="nonzero"></path>
                <path d="M39.625,210 L39.625,202.789062 L39.765625,202.789062 L44.96875,210 L46.921875,210 L46.921875,198.726562 L44.6640625,198.726562 L44.6640625,205.90625 L44.5234375,205.90625 L39.3359375,198.726562 L37.3671875,198.726562 L37.3671875,210 L39.625,210 Z M53.25,210.179688 C55.8984375,210.179688 57.4921875,208.507812 57.4921875,205.695312 C57.4921875,202.90625 55.875,201.210938 53.25,201.210938 C50.625,201.210938 49.0078125,202.914062 49.0078125,205.695312 C49.0078125,208.5 50.6015625,210.179688 53.25,210.179688 Z M53.25,208.382812 C52.03125,208.382812 51.34375,207.398438 51.34375,205.695312 C51.34375,204.007812 52.0390625,203.015625 53.25,203.015625 C54.453125,203.015625 55.15625,204.007812 55.15625,205.695312 C55.15625,207.398438 54.4609375,208.382812 53.25,208.382812 Z M60.75,210.195312 C61.59375,210.195312 62.1328125,209.632812 62.1328125,208.867188 C62.1328125,208.101562 61.59375,207.546875 60.75,207.546875 C59.9140625,207.546875 59.3671875,208.101562 59.3671875,208.867188 C59.3671875,209.632812 59.9140625,210.195312 60.75,210.195312 Z M72.6171875,210.179688 C75.265625,210.179688 76.859375,208.507812 76.859375,205.695312 C76.859375,202.90625 75.2421875,201.210938 72.6171875,201.210938 C69.9921875,201.210938 68.375,202.914062 68.375,205.695312 C68.375,208.5 69.96875,210.179688 72.6171875,210.179688 Z M72.6171875,208.382812 C71.3984375,208.382812 70.7109375,207.398438 70.7109375,205.695312 C70.7109375,204.007812 71.40625,203.015625 72.6171875,203.015625 C73.8203125,203.015625 74.5234375,204.007812 74.5234375,205.695312 C74.5234375,207.398438 73.828125,208.382812 72.6171875,208.382812 Z M81.6484375,210 L81.6484375,203.203125 L83.4296875,203.203125 L83.4296875,201.476562 L81.6015625,201.476562 L81.6015625,200.75 C81.6015625,200 81.9296875,199.632812 82.8203125,199.632812 C83.1171875,199.632812 83.3515625,199.65625 83.5,199.679688 L83.5,198.109375 C83.171875,198.0625 82.7890625,198.023438 82.328125,198.023438 C80.25,198.023438 79.375,198.882812 79.375,200.59375 L79.375,201.476562 L77.984375,201.476562 L77.984375,203.203125 L79.375,203.203125 L79.375,210 L81.6484375,210 Z M94.4453125,210.132812 C96.609375,210.132812 97.9375,208.453125 97.9375,205.695312 C97.9375,202.921875 96.625,201.257812 94.4453125,201.257812 C93.265625,201.257812 92.296875,201.828125 91.859375,202.773438 L91.71875,202.773438 L91.71875,198.109375 L89.4453125,198.109375 L89.4453125,210 L91.6484375,210 L91.6484375,208.648438 L91.7890625,208.648438 C92.25,209.585938 93.2265625,210.132812 94.4453125,210.132812 Z M93.65625,208.296875 C92.453125,208.296875 91.703125,207.304688 91.6953125,205.703125 C91.703125,204.101562 92.4609375,203.101562 93.65625,203.101562 C94.859375,203.101562 95.6015625,204.09375 95.6015625,205.695312 C95.6015625,207.3125 94.8671875,208.296875 93.65625,208.296875 Z M100.945312,200.078125 C101.648438,200.078125 102.226562,199.515625 102.226562,198.8125 C102.226562,198.101562 101.648438,197.539062 100.945312,197.539062 C100.242188,197.539062 99.65625,198.101562 99.65625,198.8125 C99.65625,199.515625 100.242188,200.078125 100.945312,200.078125 Z M102.078125,210 L102.078125,201.398438 L99.8046875,201.398438 L99.8046875,210 L102.078125,210 Z M106.726562,210 L106.726562,198.109375 L104.453125,198.109375 L104.453125,210 L106.726562,210 Z M111.4375,210 L111.4375,198.109375 L109.164062,198.109375 L109.164062,210 L111.4375,210 Z M114.953125,200.078125 C115.65625,200.078125 116.234375,199.515625 116.234375,198.8125 C116.234375,198.101562 115.65625,197.539062 114.953125,197.539062 C114.25,197.539062 113.664062,198.101562 113.664062,198.8125 C113.664062,199.515625 114.25,200.078125 114.953125,200.078125 Z M116.085938,210 L116.085938,201.398438 L113.8125,201.398438 L113.8125,210 L116.085938,210 Z M120.65625,210 L120.65625,205.023438 C120.65625,203.859375 121.304688,203.109375 122.359375,203.109375 C123.4375,203.109375 123.945312,203.742188 123.945312,204.953125 L123.945312,210 L126.21875,210 L126.21875,204.4375 C126.21875,202.382812 125.1875,201.210938 123.273438,201.210938 C122,201.210938 121.125,201.8125 120.726562,202.78125 L120.585938,202.78125 L120.585938,201.398438 L118.382812,201.398438 L118.382812,210 L120.65625,210 Z M132.21875,213.257812 C134.820312,213.257812 136.46875,211.992188 136.46875,209.984375 L136.46875,201.398438 L134.265625,201.398438 L134.265625,202.773438 L134.125,202.773438 C133.664062,201.835938 132.671875,201.257812 131.507812,201.257812 C129.320312,201.257812 127.976562,202.960938 127.976562,205.625 C127.976562,208.203125 129.3125,209.875 131.460938,209.875 C132.671875,209.875 133.578125,209.382812 134.054688,208.476562 L134.195312,208.476562 L134.195312,210.078125 C134.195312,211.070312 133.484375,211.648438 132.265625,211.648438 C131.28125,211.648438 130.640625,211.304688 130.523438,210.757812 L128.273438,210.757812 C128.414062,212.265625 129.929688,213.257812 132.21875,213.257812 Z M132.25,208.132812 C131.015625,208.132812 130.3125,207.164062 130.3125,205.617188 C130.3125,204.070312 131.023438,203.101562 132.25,203.101562 C133.476562,203.101562 134.21875,204.070312 134.21875,205.617188 C134.21875,207.164062 133.484375,208.132812 132.25,208.132812 Z M146.664062,210.179688 C148.90625,210.179688 150.3125,208.945312 150.5,207.054688 L148.375,207.054688 C148.203125,207.914062 147.59375,208.375 146.664062,208.375 C145.445312,208.375 144.75,207.414062 144.75,205.679688 C144.75,203.96875 145.4375,203.023438 146.664062,203.023438 C147.632812,203.023438 148.21875,203.570312 148.375,204.398438 L150.5,204.398438 C150.3125,202.476562 148.945312,201.210938 146.664062,201.210938 C143.96875,201.210938 142.453125,202.84375 142.453125,205.679688 C142.453125,208.546875 143.976562,210.179688 146.664062,210.179688 Z M153.34375,213.125 C155.492188,213.125 156.546875,212.359375 157.28125,210.164062 L160.25,201.398438 L157.84375,201.398438 L156.03125,207.960938 L155.890625,207.960938 L154.078125,201.398438 L151.570312,201.398438 L154.59375,210.046875 L154.515625,210.375 C154.328125,211.070312 153.84375,211.351562 152.992188,211.351562 C152.898438,211.351562 152.554688,211.34375 152.476562,211.328125 L152.476562,213.101562 C152.570312,213.117188 153.257812,213.125 153.34375,213.125 Z M165.265625,210.179688 C167.507812,210.179688 168.914062,208.945312 169.101562,207.054688 L166.976562,207.054688 C166.804688,207.914062 166.195312,208.375 165.265625,208.375 C164.046875,208.375 163.351562,207.414062 163.351562,205.679688 C163.351562,203.96875 164.039062,203.023438 165.265625,203.023438 C166.234375,203.023438 166.820312,203.570312 166.976562,204.398438 L169.101562,204.398438 C168.914062,202.476562 167.546875,201.210938 165.265625,201.210938 C162.570312,201.210938 161.054688,202.84375 161.054688,205.679688 C161.054688,208.546875 162.578125,210.179688 165.265625,210.179688 Z M173.226562,210 L173.226562,198.109375 L170.953125,198.109375 L170.953125,210 L173.226562,210 Z M179.335938,210.179688 C181.445312,210.179688 182.9375,209.171875 183.273438,207.570312 L181.15625,207.570312 C180.914062,208.15625 180.296875,208.484375 179.398438,208.484375 C178.210938,208.484375 177.460938,207.664062 177.429688,206.351562 L177.429688,206.234375 L183.34375,206.234375 L183.34375,205.554688 C183.34375,202.835938 181.84375,201.210938 179.304688,201.210938 C176.742188,201.210938 175.164062,202.945312 175.164062,205.742188 C175.164062,208.523438 176.710938,210.179688 179.335938,210.179688 Z M181.109375,204.820312 L177.4375,204.820312 C177.515625,203.664062 178.257812,202.90625 179.3125,202.90625 C180.375,202.90625 181.0625,203.640625 181.109375,204.820312 Z M188.601562,210.179688 C190.859375,210.179688 192.398438,209.070312 192.398438,207.367188 C192.398438,206.085938 191.648438,205.382812 189.976562,205.015625 L188.359375,204.664062 C187.5625,204.484375 187.195312,204.210938 187.195312,203.773438 C187.195312,203.210938 187.796875,202.828125 188.609375,202.828125 C189.453125,202.828125 189.976562,203.179688 190.09375,203.75 L192.195312,203.75 C192.070312,202.125 190.78125,201.210938 188.59375,201.210938 C186.445312,201.210938 185.007812,202.296875 185.007812,203.90625 C185.007812,205.226562 185.820312,206.015625 187.492188,206.382812 L189.054688,206.734375 C189.8125,206.90625 190.140625,207.171875 190.140625,207.609375 C190.140625,208.179688 189.53125,208.570312 188.648438,208.570312 C187.742188,208.570312 187.1875,208.21875 187.015625,207.625 L184.796875,207.625 C184.953125,209.25 186.328125,210.179688 188.601562,210.179688 Z M202.210938,210.179688 C204.859375,210.179688 206.453125,208.507812 206.453125,205.695312 C206.453125,202.90625 204.835938,201.210938 202.210938,201.210938 C199.585938,201.210938 197.96875,202.914062 197.96875,205.695312 C197.96875,208.5 199.5625,210.179688 202.210938,210.179688 Z M202.210938,208.382812 C200.992188,208.382812 200.304688,207.398438 200.304688,205.695312 C200.304688,204.007812 201,203.015625 202.210938,203.015625 C203.414062,203.015625 204.117188,204.007812 204.117188,205.695312 C204.117188,207.398438 203.421875,208.382812 202.210938,208.382812 Z M210.578125,210 L210.578125,205.023438 C210.578125,203.859375 211.226562,203.109375 212.28125,203.109375 C213.359375,203.109375 213.867188,203.742188 213.867188,204.953125 L213.867188,210 L216.140625,210 L216.140625,204.4375 C216.140625,202.382812 215.109375,201.210938 213.195312,201.210938 C211.921875,201.210938 211.046875,201.8125 210.648438,202.78125 L210.507812,202.78125 L210.507812,201.398438 L208.304688,201.398438 L208.304688,210 L210.578125,210 Z M225.054688,210 L225.054688,205.875 L226.984375,205.875 L229.085938,210 L231.757812,210 L229.382812,205.523438 C230.679688,205.015625 231.429688,203.765625 231.429688,202.320312 C231.429688,200.09375 229.90625,198.726562 227.429688,198.726562 L222.695312,198.726562 L222.695312,210 L225.054688,210 Z M227.125,204.117188 L225.054688,204.117188 L225.054688,200.570312 L227.101562,200.570312 C228.273438,200.570312 229.007812,201.257812 229.007812,202.351562 C229.007812,203.46875 228.3125,204.117188 227.125,204.117188 Z M237.054688,210.179688 C239.164062,210.179688 240.65625,209.171875 240.992188,207.570312 L238.875,207.570312 C238.632812,208.15625 238.015625,208.484375 237.117188,208.484375 C235.929688,208.484375 235.179688,207.664062 235.148438,206.351562 L235.148438,206.234375 L241.0625,206.234375 L241.0625,205.554688 C241.0625,202.835938 239.5625,201.210938 237.023438,201.210938 C234.460938,201.210938 232.882812,202.945312 232.882812,205.742188 C232.882812,208.523438 234.429688,210.179688 237.054688,210.179688 Z M238.828125,204.820312 L235.15625,204.820312 C235.234375,203.664062 235.976562,202.90625 237.03125,202.90625 C238.09375,202.90625 238.78125,203.640625 238.828125,204.820312 Z M245.195312,210 L245.195312,205.023438 C245.195312,203.859375 245.84375,203.109375 246.898438,203.109375 C247.976562,203.109375 248.484375,203.742188 248.484375,204.953125 L248.484375,210 L250.757812,210 L250.757812,204.4375 C250.757812,202.382812 249.726562,201.210938 247.8125,201.210938 C246.539062,201.210938 245.664062,201.8125 245.265625,202.78125 L245.125,202.78125 L245.125,201.398438 L242.921875,201.398438 L242.921875,210 L245.195312,210 Z M256.710938,210.179688 C258.820312,210.179688 260.3125,209.171875 260.648438,207.570312 L258.53125,207.570312 C258.289062,208.15625 257.671875,208.484375 256.773438,208.484375 C255.585938,208.484375 254.835938,207.664062 254.804688,206.351562 L254.804688,206.234375 L260.71875,206.234375 L260.71875,205.554688 C260.71875,202.835938 259.21875,201.210938 256.679688,201.210938 C254.117188,201.210938 252.539062,202.945312 252.539062,205.742188 C252.539062,208.523438 254.085938,210.179688 256.710938,210.179688 Z M258.484375,204.820312 L254.8125,204.820312 C254.890625,203.664062 255.632812,202.90625 256.6875,202.90625 C257.75,202.90625 258.4375,203.640625 258.484375,204.820312 Z M266.445312,210 L267.96875,204 L268.109375,204 L269.648438,210 L272.070312,210 L274.359375,201.398438 L272.101562,201.398438 L270.820312,207.625 L270.679688,207.625 L269.164062,201.398438 L266.992188,201.398438 L265.484375,207.625 L265.34375,207.625 L264.0625,201.398438 L261.757812,201.398438 L264.054688,210 L266.445312,210 Z M278.101562,210.132812 C279.21875,210.132812 280.15625,209.65625 280.601562,208.859375 L280.742188,208.859375 L280.742188,210 L282.945312,210 L282.945312,204.125 C282.945312,202.289062 281.65625,201.210938 279.375,201.210938 C277.210938,201.210938 275.75,202.203125 275.601562,203.78125 L277.695312,203.78125 C277.882812,203.242188 278.429688,202.953125 279.25,202.953125 C280.1875,202.953125 280.703125,203.382812 280.703125,204.125 L280.703125,204.835938 L278.617188,204.960938 C276.476562,205.085938 275.28125,205.992188 275.28125,207.546875 C275.28125,209.117188 276.445312,210.132812 278.101562,210.132812 Z M278.851562,208.46875 C278.0625,208.46875 277.507812,208.070312 277.507812,207.40625 C277.507812,206.773438 277.984375,206.40625 278.960938,206.34375 L280.703125,206.226562 L280.703125,206.867188 C280.703125,207.773438 279.90625,208.46875 278.851562,208.46875 Z M287.53125,210 L287.53125,198.109375 L285.257812,198.109375 L285.257812,210 L287.53125,210 Z" id="No.ofbillingcyclesonRenewal" fill="#202022" fill-rule="nonzero"></path>
                <path d="M42.15625,299.289062 C44.875,299.289062 46.859375,297.640625 47.0546875,295.234375 L44.7578125,295.234375 C44.53125,296.476562 43.515625,297.273438 42.1640625,297.273438 C40.3828125,297.273438 39.28125,295.773438 39.28125,293.359375 C39.28125,290.945312 40.3828125,289.445312 42.15625,289.445312 C43.5,289.445312 44.5234375,290.304688 44.75,291.609375 L47.046875,291.609375 C46.875,289.1875 44.828125,287.4375 42.15625,287.4375 C38.8828125,287.4375 36.8671875,289.695312 36.8671875,293.359375 C36.8671875,297.023438 38.890625,299.289062 42.15625,299.289062 Z M51.9375,299.179688 C53.2421875,299.179688 54.046875,298.617188 54.453125,297.617188 L54.59375,297.617188 L54.59375,299 L56.796875,299 L56.796875,290.398438 L54.5234375,290.398438 L54.5234375,295.367188 C54.5234375,296.546875 53.9140625,297.273438 52.78125,297.273438 C51.734375,297.273438 51.1953125,296.65625 51.1953125,295.4375 L51.1953125,290.398438 L48.921875,290.398438 L48.921875,296 C48.921875,298 50.078125,299.179688 51.9375,299.179688 Z M62.6484375,299.03125 C63.0859375,299.03125 63.5078125,298.984375 63.7890625,298.929688 L63.7890625,297.25 C63.5703125,297.273438 63.4140625,297.289062 63.1171875,297.289062 C62.34375,297.289062 62,296.929688 62,296.15625 L62,292.203125 L63.7890625,292.203125 L63.7890625,290.476562 L62,290.476562 L62,288.34375 L59.7265625,288.34375 L59.7265625,290.476562 L58.3828125,290.476562 L58.3828125,292.203125 L59.7265625,292.203125 L59.7265625,296.679688 C59.7265625,298.351562 60.5546875,299.03125 62.6484375,299.03125 Z M74.9609375,299.289062 C78.2890625,299.289062 80.3828125,297.007812 80.3828125,293.359375 C80.3828125,289.710938 78.28125,287.4375 74.9609375,287.4375 C71.640625,287.4375 69.53125,289.703125 69.53125,293.359375 C69.53125,297.007812 71.609375,299.289062 74.9609375,299.289062 Z M74.9609375,297.289062 C73.1015625,297.289062 71.9453125,295.75 71.9453125,293.359375 C71.9453125,290.960938 73.125,289.4375 74.9609375,289.4375 C76.7890625,289.4375 77.96875,290.960938 77.96875,293.359375 C77.96875,295.75 76.796875,297.289062 74.9609375,297.289062 Z M85.328125,299 L85.328125,292.203125 L87.109375,292.203125 L87.109375,290.476562 L85.28125,290.476562 L85.28125,289.75 C85.28125,289 85.609375,288.632812 86.5,288.632812 C86.796875,288.632812 87.03125,288.65625 87.1796875,288.679688 L87.1796875,287.109375 C86.8515625,287.0625 86.46875,287.023438 86.0078125,287.023438 C83.9296875,287.023438 83.0546875,287.882812 83.0546875,289.59375 L83.0546875,290.476562 L81.6640625,290.476562 L81.6640625,292.203125 L83.0546875,292.203125 L83.0546875,299 L85.328125,299 Z M91.9375,299 L91.9375,292.203125 L93.71875,292.203125 L93.71875,290.476562 L91.890625,290.476562 L91.890625,289.75 C91.890625,289 92.21875,288.632812 93.109375,288.632812 C93.40625,288.632812 93.640625,288.65625 93.7890625,288.679688 L93.7890625,287.109375 C93.4609375,287.0625 93.078125,287.023438 92.6171875,287.023438 C90.5390625,287.023438 89.6640625,287.882812 89.6640625,289.59375 L89.6640625,290.476562 L88.2734375,290.476562 L88.2734375,292.203125 L89.6640625,292.203125 L89.6640625,299 L91.9375,299 Z M102.742188,299.132812 C103.9375,299.132812 104.914062,298.578125 105.375,297.648438 L105.515625,297.648438 L105.515625,299 L107.71875,299 L107.71875,287.109375 L105.445312,287.109375 L105.445312,291.773438 L105.3125,291.773438 C104.867188,290.820312 103.90625,290.257812 102.742188,290.257812 C100.578125,290.257812 99.234375,291.953125 99.234375,294.6875 C99.234375,297.429688 100.570312,299.132812 102.742188,299.132812 Z M103.515625,297.296875 C102.296875,297.296875 101.570312,296.320312 101.570312,294.695312 C101.570312,293.078125 102.304688,292.101562 103.515625,292.101562 C104.726562,292.101562 105.46875,293.09375 105.46875,294.703125 C105.46875,296.3125 104.734375,297.296875 103.515625,297.296875 Z M112.4375,299.132812 C113.554688,299.132812 114.492188,298.65625 114.9375,297.859375 L115.078125,297.859375 L115.078125,299 L117.28125,299 L117.28125,293.125 C117.28125,291.289062 115.992188,290.210938 113.710938,290.210938 C111.546875,290.210938 110.085938,291.203125 109.9375,292.78125 L112.03125,292.78125 C112.21875,292.242188 112.765625,291.953125 113.585938,291.953125 C114.523438,291.953125 115.039062,292.382812 115.039062,293.125 L115.039062,293.835938 L112.953125,293.960938 C110.8125,294.085938 109.617188,294.992188 109.617188,296.546875 C109.617188,298.117188 110.78125,299.132812 112.4375,299.132812 Z M113.1875,297.46875 C112.398438,297.46875 111.84375,297.070312 111.84375,296.40625 C111.84375,295.773438 112.320312,295.40625 113.296875,295.34375 L115.039062,295.226562 L115.039062,295.867188 C115.039062,296.773438 114.242188,297.46875 113.1875,297.46875 Z M123.085938,299.03125 C123.523438,299.03125 123.945312,298.984375 124.226562,298.929688 L124.226562,297.25 C124.007812,297.273438 123.851562,297.289062 123.554688,297.289062 C122.78125,297.289062 122.4375,296.929688 122.4375,296.15625 L122.4375,292.203125 L124.226562,292.203125 L124.226562,290.476562 L122.4375,290.476562 L122.4375,288.34375 L120.164062,288.34375 L120.164062,290.476562 L118.820312,290.476562 L118.820312,292.203125 L120.164062,292.203125 L120.164062,296.679688 C120.164062,298.351562 120.992188,299.03125 123.085938,299.03125 Z M129.8125,299.179688 C131.921875,299.179688 133.414062,298.171875 133.75,296.570312 L131.632812,296.570312 C131.390625,297.15625 130.773438,297.484375 129.875,297.484375 C128.6875,297.484375 127.9375,296.664062 127.90625,295.351562 L127.90625,295.234375 L133.820312,295.234375 L133.820312,294.554688 C133.820312,291.835938 132.320312,290.210938 129.78125,290.210938 C127.21875,290.210938 125.640625,291.945312 125.640625,294.742188 C125.640625,297.523438 127.1875,299.179688 129.8125,299.179688 Z M131.585938,293.820312 L127.914062,293.820312 C127.992188,292.664062 128.734375,291.90625 129.789062,291.90625 C130.851562,291.90625 131.539062,292.640625 131.585938,293.820312 Z" id="CutOffdate" fill="#202022" fill-rule="nonzero"></path>
                <path d="M345,222 C347.209139,222 349,223.790861 349,226 L349,260 C349,262.209139 347.209139,264 345,264 L40,264 C37.790861,264 36,262.209139 36,260 L36,226 C36,223.790861 37.790861,222 40,222 L345,222 Z M345,223 L40,223 C38.4023191,223 37.0963391,224.24892 37.0050927,225.823727 L37,226 L37,260 C37,261.597681 38.24892,262.903661 39.8237272,262.994907 L40,263 L345,263 C346.597681,263 347.903661,261.75108 347.994907,260.176273 L348,260 L348,226 C348,224.402319 346.75108,223.096339 345.176273,223.005093 L345,223 Z" id="Rectangle-Copy" fill="#3C3C3C" fill-rule="nonzero"></path>
                <path d="M345,312 C347.209139,312 349,313.790861 349,316 L349,350 C349,352.209139 347.209139,354 345,354 L40,354 C37.790861,354 36,352.209139 36,350 L36,316 C36,313.790861 37.790861,312 40,312 L345,312 Z M345,313 L40,313 C38.4023191,313 37.0963391,314.24892 37.0050927,315.823727 L37,316 L37,350 C37,351.597681 38.24892,352.903661 39.8237272,352.994907 L40,353 L345,353 C346.597681,353 347.903661,351.75108 347.994907,350.176273 L348,350 L348,316 C348,314.402319 346.75108,313.096339 345.176273,313.005093 L345,313 Z" id="Rectangle-Copy-2" fill="#3C3C3C" fill-rule="nonzero"></path>
                <rect id="Rectangle" fill="#F1F1F1" x="36" y="63" width="472" height="114" rx="5"></rect>
                <path d="M504,62.5 C506.414273,62.5 508.384489,64.4012365 508.495102,66.7881643 L508.5,67 L508.5,105 L507.5,105 L507.5,67 C507.5,65.1314366 506.035722,63.6048736 504.192035,63.5051789 L504,63.5 L40,63.5 C38.1314366,63.5 36.6048736,64.9642776 36.5051789,66.8079648 L36.5,67 L36.5,105 L35.5,105 L35.5,67 C35.5,64.5857267 37.4012365,62.6155109 39.7881643,62.504898 L40,62.5 L504,62.5 Z" id="Path-Copy" fill="#F5F4F5" fill-rule="nonzero" transform="translate(272.000000, 83.750000) scale(-1, 1) translate(-272.000000, -83.750000) "></path>
                <path d="M36,105 L36,67 C36,64.790861 37.790861,63 40,63 L504,63 C506.209139,63 508,64.790861 508,67 L508,105 L508,105" id="Path-Copy-2" stroke="#F5F4F5" fill="#FFECE4" transform="translate(272.000000, 84.000000) scale(-1, 1) translate(-272.000000, -84.000000) "></path>
                <path d="M77.2294922,90.2324219 C79.328125,90.2324219 80.8867188,89.0634766 81.2148438,87.2519531 L79.9638672,87.2519531 C79.6494141,88.3935547 78.6035156,89.0976562 77.2294922,89.0976562 C75.3291016,89.0976562 74.1396484,87.5458984 74.1396484,85.0712891 C74.1396484,82.5966797 75.3291016,81.0380859 77.2226562,81.0380859 C78.5830078,81.0380859 79.6357422,81.8378906 79.9638672,83.109375 L81.2148438,83.109375 C80.9208984,81.2089844 79.3007812,79.9033203 77.2226562,79.9033203 C74.5429688,79.9033203 72.875,81.8857422 72.875,85.0712891 C72.875,88.25 74.5498047,90.2324219 77.2294922,90.2324219 Z M86.1572266,90.1298828 C88.2558594,90.1298828 89.5546875,88.6806641 89.5546875,86.3154297 C89.5546875,83.9433594 88.2558594,82.5009766 86.1572266,82.5009766 C84.0585938,82.5009766 82.7597656,83.9433594 82.7597656,86.3154297 C82.7597656,88.6806641 84.0585938,90.1298828 86.1572266,90.1298828 Z M86.1572266,89.0703125 C84.7626953,89.0703125 83.9765625,88.0585938 83.9765625,86.3154297 C83.9765625,84.5654297 84.7626953,83.5605469 86.1572266,83.5605469 C87.5517578,83.5605469 88.3378906,84.5654297 88.3378906,86.3154297 C88.3378906,88.0585938 87.5517578,89.0703125 86.1572266,89.0703125 Z M92.5761719,90 L92.5761719,85.6386719 C92.5761719,84.3466797 93.3349609,83.5605469 94.5107422,83.5605469 C95.6865234,83.5605469 96.2470703,84.1894531 96.2470703,85.515625 L96.2470703,90 L97.4228516,90 L97.4228516,85.2285156 C97.4228516,83.4785156 96.5,82.5009766 94.8457031,82.5009766 C93.7177734,82.5009766 93,82.9794922 92.6308594,83.7929688 L92.5214844,83.7929688 L92.5214844,82.6308594 L91.4003906,82.6308594 L91.4003906,90 L92.5761719,90 Z M102.1875,90.0546875 C102.419922,90.0546875 102.645508,90.0273438 102.87793,89.9863281 L102.87793,88.9951172 C102.65918,89.015625 102.542969,89.0224609 102.331055,89.0224609 C101.56543,89.0224609 101.237305,88.6533203 101.237305,87.7851562 L101.237305,83.6152344 L102.87793,83.6152344 L102.87793,82.6308594 L101.237305,82.6308594 L101.237305,80.7236328 L100.061523,80.7236328 L100.061523,82.6308594 L98.8720703,82.6308594 L98.8720703,83.6152344 L100.061523,83.6152344 L100.061523,88.0859375 C100.061523,89.4941406 100.669922,90.0546875 102.1875,90.0546875 Z M105.831055,90 L105.831055,85.4335938 C105.831055,84.3945312 106.644531,83.6425781 107.765625,83.6425781 C107.998047,83.6425781 108.421875,83.6835938 108.517578,83.7109375 L108.517578,82.5351562 C108.367188,82.5146484 108.121094,82.5009766 107.929688,82.5009766 C106.952148,82.5009766 106.104492,83.0068359 105.885742,83.7246094 L105.776367,83.7246094 L105.776367,82.6308594 L104.655273,82.6308594 L104.655273,90 L105.831055,90 Z M112.038086,90.1298828 C113.022461,90.1298828 113.829102,89.6992188 114.307617,88.9130859 L114.416992,88.9130859 L114.416992,90 L115.538086,90 L115.538086,84.9550781 C115.538086,83.4238281 114.533203,82.5009766 112.735352,82.5009766 C111.163086,82.5009766 110.000977,83.2802734 109.84375,84.4628906 L111.033203,84.4628906 C111.197266,83.8818359 111.8125,83.546875 112.694336,83.546875 C113.794922,83.546875 114.362305,84.0458984 114.362305,84.9550781 L114.362305,85.625 L112.236328,85.7548828 C110.520508,85.8574219 109.549805,86.6162109 109.549805,87.9355469 C109.549805,89.2822266 110.609375,90.1298828 112.038086,90.1298828 Z M112.256836,89.0976562 C111.402344,89.0976562 110.766602,88.6601562 110.766602,87.9082031 C110.766602,87.1699219 111.258789,86.7802734 112.379883,86.7050781 L114.362305,86.5751953 L114.362305,87.2519531 C114.362305,88.3046875 113.466797,89.0976562 112.256836,89.0976562 Z M120.726562,90.1298828 C122.49707,90.1298828 123.597656,89.1318359 123.80957,87.7783203 L122.620117,87.7783203 C122.401367,88.6123047 121.710938,89.0703125 120.719727,89.0703125 C119.407227,89.0703125 118.55957,87.9902344 118.55957,86.2880859 C118.55957,84.6201172 119.393555,83.5605469 120.719727,83.5605469 C121.779297,83.5605469 122.428711,84.1552734 122.620117,84.8867188 L123.80957,84.8867188 C123.604492,83.5742188 122.510742,82.5009766 120.719727,82.5009766 C118.655273,82.5009766 117.342773,83.9912109 117.342773,86.2880859 C117.342773,88.6328125 118.662109,90.1298828 120.726562,90.1298828 Z M128.300781,90.0546875 C128.533203,90.0546875 128.758789,90.0273438 128.991211,89.9863281 L128.991211,88.9951172 C128.772461,89.015625 128.65625,89.0224609 128.444336,89.0224609 C127.678711,89.0224609 127.350586,88.6533203 127.350586,87.7851562 L127.350586,83.6152344 L128.991211,83.6152344 L128.991211,82.6308594 L127.350586,82.6308594 L127.350586,80.7236328 L126.174805,80.7236328 L126.174805,82.6308594 L124.985352,82.6308594 L124.985352,83.6152344 L126.174805,83.6152344 L126.174805,88.0859375 C126.174805,89.4941406 126.783203,90.0546875 128.300781,90.0546875 Z M136.100586,90 L136.100586,86.0966797 L138.527344,86.0966797 L140.639648,90 L142.082031,90 L139.798828,85.9052734 C141.036133,85.515625 141.78125,84.4492188 141.78125,83.0751953 C141.78125,81.2978516 140.537109,80.1357422 138.636719,80.1357422 L134.870117,80.1357422 L134.870117,90 L136.100586,90 Z M138.527344,85.0029297 L136.100586,85.0029297 L136.100586,81.2294922 L138.472656,81.2294922 C139.744141,81.2294922 140.509766,81.9335938 140.509766,83.1162109 C140.509766,84.3261719 139.791992,85.0029297 138.527344,85.0029297 Z M146.614258,90.1298828 C148.227539,90.1298828 149.375977,89.3505859 149.717773,88.0927734 L148.541992,88.0927734 C148.234375,88.7421875 147.591797,89.0908203 146.641602,89.0908203 C145.390625,89.0908203 144.577148,88.1679688 144.515625,86.7119141 L144.515625,86.6572266 L149.813477,86.6572266 L149.813477,86.2060547 C149.813477,83.9160156 148.603516,82.5009766 146.614258,82.5009766 C144.59082,82.5009766 143.291992,84.0048828 143.291992,86.3222656 C143.291992,88.6533203 144.570312,90.1298828 146.614258,90.1298828 Z M148.576172,85.7070312 L144.515625,85.7070312 C144.604492,84.4013672 145.424805,83.5400391 146.600586,83.5400391 C147.769531,83.5400391 148.548828,84.4013672 148.576172,85.7070312 Z M152.834961,90 L152.834961,85.6386719 C152.834961,84.3466797 153.59375,83.5605469 154.769531,83.5605469 C155.945312,83.5605469 156.505859,84.1894531 156.505859,85.515625 L156.505859,90 L157.681641,90 L157.681641,85.2285156 C157.681641,83.4785156 156.758789,82.5009766 155.104492,82.5009766 C153.976562,82.5009766 153.258789,82.9794922 152.889648,83.7929688 L152.780273,83.7929688 L152.780273,82.6308594 L151.65918,82.6308594 L151.65918,90 L152.834961,90 Z M162.78125,90.1298828 C164.394531,90.1298828 165.542969,89.3505859 165.884766,88.0927734 L164.708984,88.0927734 C164.401367,88.7421875 163.758789,89.0908203 162.808594,89.0908203 C161.557617,89.0908203 160.744141,88.1679688 160.682617,86.7119141 L160.682617,86.6572266 L165.980469,86.6572266 L165.980469,86.2060547 C165.980469,83.9160156 164.770508,82.5009766 162.78125,82.5009766 C160.757812,82.5009766 159.458984,84.0048828 159.458984,86.3222656 C159.458984,88.6533203 160.737305,90.1298828 162.78125,90.1298828 Z M164.743164,85.7070312 L160.682617,85.7070312 C160.771484,84.4013672 161.591797,83.5400391 162.767578,83.5400391 C163.936523,83.5400391 164.71582,84.4013672 164.743164,85.7070312 Z M170.4375,90 L172.078125,84.2988281 L172.1875,84.2988281 L173.834961,90 L175.03125,90 L177.095703,82.6308594 L175.913086,82.6308594 L174.463867,88.5234375 L174.354492,88.5234375 L172.707031,82.6308594 L171.579102,82.6308594 L169.931641,88.5234375 L169.822266,88.5234375 L168.373047,82.6308594 L167.183594,82.6308594 L169.248047,90 L170.4375,90 Z M180.992188,90.1298828 C182.666992,90.1298828 183.945312,89.2207031 183.945312,87.9013672 C183.945312,86.8417969 183.275391,86.2402344 181.887695,85.9052734 L180.75293,85.6318359 C179.884766,85.4199219 179.474609,85.1054688 179.474609,84.5996094 C179.474609,83.9433594 180.158203,83.4990234 181.033203,83.4990234 C181.921875,83.4990234 182.496094,83.8886719 182.65332,84.4765625 L183.81543,84.4765625 C183.658203,83.2666016 182.584961,82.5009766 181.040039,82.5009766 C179.474609,82.5009766 178.291992,83.4238281 178.291992,84.6474609 C178.291992,85.7138672 178.920898,86.3085938 180.301758,86.6435547 L181.566406,86.9511719 C182.352539,87.1425781 182.735352,87.484375 182.735352,87.9902344 C182.735352,88.6669922 182.024414,89.1386719 181.033203,89.1386719 C180.089844,89.1386719 179.501953,88.7421875 179.303711,88.1201172 L178.09375,88.1201172 C178.223633,89.34375 179.351562,90.1298828 180.992188,90.1298828 Z" id="ContractRenews" fill="#202022" fill-rule="nonzero"></path>
                <path d="M75.4501953,127.232422 C77.7060547,127.232422 79.1347656,126.077148 79.1347656,124.265625 C79.1347656,122.816406 78.3144531,122.023438 76.2705078,121.510742 L75.2382812,121.237305 C73.8779297,120.888672 73.3378906,120.444336 73.3378906,119.671875 C73.3378906,118.673828 74.2060547,118.017578 75.5185547,118.017578 C76.7490234,118.017578 77.5830078,118.619141 77.7539062,119.630859 L78.9912109,119.630859 C78.8886719,118.038086 77.4667969,116.90332 75.5595703,116.90332 C73.4746094,116.90332 72.0732422,118.038086 72.0732422,119.712891 C72.0732422,121.114258 72.8457031,121.920898 74.6298828,122.37207 L75.8945312,122.700195 C77.2548828,123.041992 77.8701172,123.575195 77.8701172,124.416016 C77.8701172,125.393555 76.8925781,126.111328 75.5664062,126.111328 C74.1650391,126.111328 73.1806641,125.455078 73.0302734,124.422852 L71.7861328,124.422852 C71.9160156,126.125 73.3583984,127.232422 75.4501953,127.232422 Z M83.4755859,127.129883 C84.6035156,127.129883 85.3896484,126.665039 85.7587891,125.844727 L85.8681641,125.844727 L85.8681641,127 L86.9892578,127 L86.9892578,119.630859 L85.8134766,119.630859 L85.8134766,123.992188 C85.8134766,125.28418 85.1025391,126.056641 83.8037109,126.056641 C82.6279297,126.056641 82.1357422,125.441406 82.1357422,124.115234 L82.1357422,119.630859 L80.9599609,119.630859 L80.9599609,124.402344 C80.9599609,126.145508 81.8212891,127.129883 83.4755859,127.129883 Z M92.8681641,127.129883 C94.734375,127.129883 95.9580078,125.619141 95.9580078,123.31543 C95.9580078,120.998047 94.7412109,119.500977 92.8681641,119.500977 C91.8564453,119.500977 90.9609375,120 90.5576172,120.792969 L90.4482422,120.792969 L90.4482422,116.705078 L89.2724609,116.705078 L89.2724609,127 L90.3935547,127 L90.3935547,125.824219 L90.5029297,125.824219 C90.9677734,126.644531 91.8427734,127.129883 92.8681641,127.129883 Z M92.5947266,126.070312 C91.2548828,126.070312 90.4208984,125.017578 90.4208984,123.31543 C90.4208984,121.613281 91.2548828,120.560547 92.5947266,120.560547 C93.9414062,120.560547 94.7412109,121.592773 94.7412109,123.31543 C94.7412109,125.038086 93.9414062,126.070312 92.5947266,126.070312 Z M100.333008,127.129883 C102.007812,127.129883 103.286133,126.220703 103.286133,124.901367 C103.286133,123.841797 102.616211,123.240234 101.228516,122.905273 L100.09375,122.631836 C99.2255859,122.419922 98.8154297,122.105469 98.8154297,121.599609 C98.8154297,120.943359 99.4990234,120.499023 100.374023,120.499023 C101.262695,120.499023 101.836914,120.888672 101.994141,121.476562 L103.15625,121.476562 C102.999023,120.266602 101.925781,119.500977 100.380859,119.500977 C98.8154297,119.500977 97.6328125,120.423828 97.6328125,121.647461 C97.6328125,122.713867 98.2617188,123.308594 99.6425781,123.643555 L100.907227,123.951172 C101.693359,124.142578 102.076172,124.484375 102.076172,124.990234 C102.076172,125.666992 101.365234,126.138672 100.374023,126.138672 C99.4306641,126.138672 98.8427734,125.742188 98.6445312,125.120117 L97.4345703,125.120117 C97.5644531,126.34375 98.6923828,127.129883 100.333008,127.129883 Z M108.146484,127.129883 C109.916992,127.129883 111.017578,126.131836 111.229492,124.77832 L110.040039,124.77832 C109.821289,125.612305 109.130859,126.070312 108.139648,126.070312 C106.827148,126.070312 105.979492,124.990234 105.979492,123.288086 C105.979492,121.620117 106.813477,120.560547 108.139648,120.560547 C109.199219,120.560547 109.848633,121.155273 110.040039,121.886719 L111.229492,121.886719 C111.024414,120.574219 109.930664,119.500977 108.139648,119.500977 C106.075195,119.500977 104.762695,120.991211 104.762695,123.288086 C104.762695,125.632812 106.082031,127.129883 108.146484,127.129883 Z M114.141602,127 L114.141602,122.433594 C114.141602,121.394531 114.955078,120.642578 116.076172,120.642578 C116.308594,120.642578 116.732422,120.683594 116.828125,120.710938 L116.828125,119.535156 C116.677734,119.514648 116.431641,119.500977 116.240234,119.500977 C115.262695,119.500977 114.415039,120.006836 114.196289,120.724609 L114.086914,120.724609 L114.086914,119.630859 L112.96582,119.630859 L112.96582,127 L114.141602,127 Z M118.913086,118.208984 C119.364258,118.208984 119.733398,117.839844 119.733398,117.388672 C119.733398,116.9375 119.364258,116.568359 118.913086,116.568359 C118.461914,116.568359 118.092773,116.9375 118.092773,117.388672 C118.092773,117.839844 118.461914,118.208984 118.913086,118.208984 Z M119.500977,127 L119.500977,119.630859 L118.325195,119.630859 L118.325195,127 L119.500977,127 Z M122.918945,129.460938 L122.918945,125.892578 L123.02832,125.892578 C123.431641,126.671875 124.279297,127.129883 125.332031,127.129883 C127.205078,127.129883 128.428711,125.619141 128.428711,123.31543 C128.428711,120.998047 127.211914,119.500977 125.332031,119.500977 C124.327148,119.500977 123.445312,120.013672 122.973633,120.861328 L122.864258,120.861328 L122.864258,119.630859 L121.743164,119.630859 L121.743164,129.460938 L122.918945,129.460938 Z M125.051758,126.070312 C123.725586,126.070312 122.884766,125.003906 122.884766,123.31543 C122.884766,121.620117 123.725586,120.560547 125.058594,120.560547 C126.405273,120.560547 127.211914,121.592773 127.211914,123.31543 C127.211914,125.038086 126.405273,126.070312 125.051758,126.070312 Z M132.892578,127.054688 C133.125,127.054688 133.350586,127.027344 133.583008,126.986328 L133.583008,125.995117 C133.364258,126.015625 133.248047,126.022461 133.036133,126.022461 C132.270508,126.022461 131.942383,125.65332 131.942383,124.785156 L131.942383,120.615234 L133.583008,120.615234 L133.583008,119.630859 L131.942383,119.630859 L131.942383,117.723633 L130.766602,117.723633 L130.766602,119.630859 L129.577148,119.630859 L129.577148,120.615234 L130.766602,120.615234 L130.766602,125.085938 C130.766602,126.494141 131.375,127.054688 132.892578,127.054688 Z M135.975586,118.208984 C136.426758,118.208984 136.795898,117.839844 136.795898,117.388672 C136.795898,116.9375 136.426758,116.568359 135.975586,116.568359 C135.524414,116.568359 135.155273,116.9375 135.155273,117.388672 C135.155273,117.839844 135.524414,118.208984 135.975586,118.208984 Z M136.563477,127 L136.563477,119.630859 L135.387695,119.630859 L135.387695,127 L136.563477,127 Z M141.833984,127.129883 C143.932617,127.129883 145.231445,125.680664 145.231445,123.31543 C145.231445,120.943359 143.932617,119.500977 141.833984,119.500977 C139.735352,119.500977 138.436523,120.943359 138.436523,123.31543 C138.436523,125.680664 139.735352,127.129883 141.833984,127.129883 Z M141.833984,126.070312 C140.439453,126.070312 139.65332,125.058594 139.65332,123.31543 C139.65332,121.56543 140.439453,120.560547 141.833984,120.560547 C143.228516,120.560547 144.014648,121.56543 144.014648,123.31543 C144.014648,125.058594 143.228516,126.070312 141.833984,126.070312 Z M148.25293,127 L148.25293,122.638672 C148.25293,121.34668 149.011719,120.560547 150.1875,120.560547 C151.363281,120.560547 151.923828,121.189453 151.923828,122.515625 L151.923828,127 L153.099609,127 L153.099609,122.228516 C153.099609,120.478516 152.176758,119.500977 150.522461,119.500977 C149.394531,119.500977 148.676758,119.979492 148.307617,120.792969 L148.198242,120.792969 L148.198242,119.630859 L147.077148,119.630859 L147.077148,127 L148.25293,127 Z M160.373047,127 L160.373047,122.433594 C160.373047,121.394531 161.186523,120.642578 162.307617,120.642578 C162.540039,120.642578 162.963867,120.683594 163.05957,120.710938 L163.05957,119.535156 C162.90918,119.514648 162.663086,119.500977 162.47168,119.500977 C161.494141,119.500977 160.646484,120.006836 160.427734,120.724609 L160.318359,120.724609 L160.318359,119.630859 L159.197266,119.630859 L159.197266,127 L160.373047,127 Z M167.277344,127.129883 C168.890625,127.129883 170.039062,126.350586 170.380859,125.092773 L169.205078,125.092773 C168.897461,125.742188 168.254883,126.09082 167.304688,126.09082 C166.053711,126.09082 165.240234,125.167969 165.178711,123.711914 L165.178711,123.657227 L170.476562,123.657227 L170.476562,123.206055 C170.476562,120.916016 169.266602,119.500977 167.277344,119.500977 C165.253906,119.500977 163.955078,121.004883 163.955078,123.322266 C163.955078,125.65332 165.233398,127.129883 167.277344,127.129883 Z M169.239258,122.707031 L165.178711,122.707031 C165.267578,121.401367 166.087891,120.540039 167.263672,120.540039 C168.432617,120.540039 169.211914,121.401367 169.239258,122.707031 Z M173.498047,127 L173.498047,122.638672 C173.498047,121.34668 174.256836,120.560547 175.432617,120.560547 C176.608398,120.560547 177.168945,121.189453 177.168945,122.515625 L177.168945,127 L178.344727,127 L178.344727,122.228516 C178.344727,120.478516 177.421875,119.500977 175.767578,119.500977 C174.639648,119.500977 173.921875,119.979492 173.552734,120.792969 L173.443359,120.792969 L173.443359,119.630859 L172.322266,119.630859 L172.322266,127 L173.498047,127 Z M183.444336,127.129883 C185.057617,127.129883 186.206055,126.350586 186.547852,125.092773 L185.37207,125.092773 C185.064453,125.742188 184.421875,126.09082 183.47168,126.09082 C182.220703,126.09082 181.407227,125.167969 181.345703,123.711914 L181.345703,123.657227 L186.643555,123.657227 L186.643555,123.206055 C186.643555,120.916016 185.433594,119.500977 183.444336,119.500977 C181.420898,119.500977 180.12207,121.004883 180.12207,123.322266 C180.12207,125.65332 181.400391,127.129883 183.444336,127.129883 Z M185.40625,122.707031 L181.345703,122.707031 C181.43457,121.401367 182.254883,120.540039 183.430664,120.540039 C184.599609,120.540039 185.378906,121.401367 185.40625,122.707031 Z M191.100586,127 L192.741211,121.298828 L192.850586,121.298828 L194.498047,127 L195.694336,127 L197.758789,119.630859 L196.576172,119.630859 L195.126953,125.523438 L195.017578,125.523438 L193.370117,119.630859 L192.242188,119.630859 L190.594727,125.523438 L190.485352,125.523438 L189.036133,119.630859 L187.84668,119.630859 L189.911133,127 L191.100586,127 Z M201.655273,127.129883 C203.330078,127.129883 204.608398,126.220703 204.608398,124.901367 C204.608398,123.841797 203.938477,123.240234 202.550781,122.905273 L201.416016,122.631836 C200.547852,122.419922 200.137695,122.105469 200.137695,121.599609 C200.137695,120.943359 200.821289,120.499023 201.696289,120.499023 C202.584961,120.499023 203.15918,120.888672 203.316406,121.476562 L204.478516,121.476562 C204.321289,120.266602 203.248047,119.500977 201.703125,119.500977 C200.137695,119.500977 198.955078,120.423828 198.955078,121.647461 C198.955078,122.713867 199.583984,123.308594 200.964844,123.643555 L202.229492,123.951172 C203.015625,124.142578 203.398438,124.484375 203.398438,124.990234 C203.398438,125.666992 202.6875,126.138672 201.696289,126.138672 C200.75293,126.138672 200.165039,125.742188 199.966797,125.120117 L198.756836,125.120117 C198.886719,126.34375 200.014648,127.129883 201.655273,127.129883 Z M213.016602,127 L214.657227,121.298828 L214.766602,121.298828 L216.414062,127 L217.610352,127 L219.674805,119.630859 L218.492188,119.630859 L217.042969,125.523438 L216.933594,125.523438 L215.286133,119.630859 L214.158203,119.630859 L212.510742,125.523438 L212.401367,125.523438 L210.952148,119.630859 L209.762695,119.630859 L211.827148,127 L213.016602,127 Z M221.862305,118.208984 C222.313477,118.208984 222.682617,117.839844 222.682617,117.388672 C222.682617,116.9375 222.313477,116.568359 221.862305,116.568359 C221.411133,116.568359 221.041992,116.9375 221.041992,117.388672 C221.041992,117.839844 221.411133,118.208984 221.862305,118.208984 Z M222.450195,127 L222.450195,119.630859 L221.274414,119.630859 L221.274414,127 L222.450195,127 Z M227.310547,127.054688 C227.542969,127.054688 227.768555,127.027344 228.000977,126.986328 L228.000977,125.995117 C227.782227,126.015625 227.666016,126.022461 227.454102,126.022461 C226.688477,126.022461 226.360352,125.65332 226.360352,124.785156 L226.360352,120.615234 L228.000977,120.615234 L228.000977,119.630859 L226.360352,119.630859 L226.360352,117.723633 L225.18457,117.723633 L225.18457,119.630859 L223.995117,119.630859 L223.995117,120.615234 L225.18457,120.615234 L225.18457,125.085938 C225.18457,126.494141 225.792969,127.054688 227.310547,127.054688 Z M231.022461,127 L231.022461,122.638672 C231.022461,121.394531 231.74707,120.560547 233.066406,120.560547 C234.180664,120.560547 234.768555,121.209961 234.768555,122.515625 L234.768555,127 L235.944336,127 L235.944336,122.228516 C235.944336,120.499023 234.959961,119.500977 233.401367,119.500977 C232.273438,119.500977 231.500977,119.979492 231.131836,120.792969 L231.022461,120.792969 L231.022461,116.705078 L229.84668,116.705078 L229.84668,127 L231.022461,127 Z M241.119141,127.129883 C243.217773,127.129883 244.516602,125.680664 244.516602,123.31543 C244.516602,120.943359 243.217773,119.500977 241.119141,119.500977 C239.020508,119.500977 237.72168,120.943359 237.72168,123.31543 C237.72168,125.680664 239.020508,127.129883 241.119141,127.129883 Z M241.119141,126.070312 C239.724609,126.070312 238.938477,125.058594 238.938477,123.31543 C238.938477,121.56543 239.724609,120.560547 241.119141,120.560547 C242.513672,120.560547 243.299805,121.56543 243.299805,123.31543 C243.299805,125.058594 242.513672,126.070312 241.119141,126.070312 Z M248.80957,127.129883 C249.9375,127.129883 250.723633,126.665039 251.092773,125.844727 L251.202148,125.844727 L251.202148,127 L252.323242,127 L252.323242,119.630859 L251.147461,119.630859 L251.147461,123.992188 C251.147461,125.28418 250.436523,126.056641 249.137695,126.056641 C247.961914,126.056641 247.469727,125.441406 247.469727,124.115234 L247.469727,119.630859 L246.293945,119.630859 L246.293945,124.402344 C246.293945,126.145508 247.155273,127.129883 248.80957,127.129883 Z M257.15625,127.054688 C257.388672,127.054688 257.614258,127.027344 257.84668,126.986328 L257.84668,125.995117 C257.62793,126.015625 257.511719,126.022461 257.299805,126.022461 C256.53418,126.022461 256.206055,125.65332 256.206055,124.785156 L256.206055,120.615234 L257.84668,120.615234 L257.84668,119.630859 L256.206055,119.630859 L256.206055,117.723633 L255.030273,117.723633 L255.030273,119.630859 L253.84082,119.630859 L253.84082,120.615234 L255.030273,120.615234 L255.030273,125.085938 C255.030273,126.494141 255.638672,127.054688 257.15625,127.054688 Z M265.625977,127.129883 C266.610352,127.129883 267.416992,126.699219 267.895508,125.913086 L268.004883,125.913086 L268.004883,127 L269.125977,127 L269.125977,121.955078 C269.125977,120.423828 268.121094,119.500977 266.323242,119.500977 C264.750977,119.500977 263.588867,120.280273 263.431641,121.462891 L264.621094,121.462891 C264.785156,120.881836 265.400391,120.546875 266.282227,120.546875 C267.382812,120.546875 267.950195,121.045898 267.950195,121.955078 L267.950195,122.625 L265.824219,122.754883 C264.108398,122.857422 263.137695,123.616211 263.137695,124.935547 C263.137695,126.282227 264.197266,127.129883 265.625977,127.129883 Z M265.844727,126.097656 C264.990234,126.097656 264.354492,125.660156 264.354492,124.908203 C264.354492,124.169922 264.84668,123.780273 265.967773,123.705078 L267.950195,123.575195 L267.950195,124.251953 C267.950195,125.304688 267.054688,126.097656 265.844727,126.097656 Z M278.265625,127.129883 C280.036133,127.129883 281.136719,126.131836 281.348633,124.77832 L280.15918,124.77832 C279.94043,125.612305 279.25,126.070312 278.258789,126.070312 C276.946289,126.070312 276.098633,124.990234 276.098633,123.288086 C276.098633,121.620117 276.932617,120.560547 278.258789,120.560547 C279.318359,120.560547 279.967773,121.155273 280.15918,121.886719 L281.348633,121.886719 C281.143555,120.574219 280.049805,119.500977 278.258789,119.500977 C276.194336,119.500977 274.881836,120.991211 274.881836,123.288086 C274.881836,125.632812 276.201172,127.129883 278.265625,127.129883 Z M286.113281,127.129883 C288.211914,127.129883 289.510742,125.680664 289.510742,123.31543 C289.510742,120.943359 288.211914,119.500977 286.113281,119.500977 C284.014648,119.500977 282.71582,120.943359 282.71582,123.31543 C282.71582,125.680664 284.014648,127.129883 286.113281,127.129883 Z M286.113281,126.070312 C284.71875,126.070312 283.932617,125.058594 283.932617,123.31543 C283.932617,121.56543 284.71875,120.560547 286.113281,120.560547 C287.507812,120.560547 288.293945,121.56543 288.293945,123.31543 C288.293945,125.058594 287.507812,126.070312 286.113281,126.070312 Z M292.532227,127 L292.532227,122.638672 C292.532227,121.34668 293.291016,120.560547 294.466797,120.560547 C295.642578,120.560547 296.203125,121.189453 296.203125,122.515625 L296.203125,127 L297.378906,127 L297.378906,122.228516 C297.378906,120.478516 296.456055,119.500977 294.801758,119.500977 C293.673828,119.500977 292.956055,119.979492 292.586914,120.792969 L292.477539,120.792969 L292.477539,119.630859 L291.356445,119.630859 L291.356445,127 L292.532227,127 Z M302.143555,127.054688 C302.375977,127.054688 302.601562,127.027344 302.833984,126.986328 L302.833984,125.995117 C302.615234,126.015625 302.499023,126.022461 302.287109,126.022461 C301.521484,126.022461 301.193359,125.65332 301.193359,124.785156 L301.193359,120.615234 L302.833984,120.615234 L302.833984,119.630859 L301.193359,119.630859 L301.193359,117.723633 L300.017578,117.723633 L300.017578,119.630859 L298.828125,119.630859 L298.828125,120.615234 L300.017578,120.615234 L300.017578,125.085938 C300.017578,126.494141 300.625977,127.054688 302.143555,127.054688 Z M305.787109,127 L305.787109,122.433594 C305.787109,121.394531 306.600586,120.642578 307.72168,120.642578 C307.954102,120.642578 308.37793,120.683594 308.473633,120.710938 L308.473633,119.535156 C308.323242,119.514648 308.077148,119.500977 307.885742,119.500977 C306.908203,119.500977 306.060547,120.006836 305.841797,120.724609 L305.732422,120.724609 L305.732422,119.630859 L304.611328,119.630859 L304.611328,127 L305.787109,127 Z M311.994141,127.129883 C312.978516,127.129883 313.785156,126.699219 314.263672,125.913086 L314.373047,125.913086 L314.373047,127 L315.494141,127 L315.494141,121.955078 C315.494141,120.423828 314.489258,119.500977 312.691406,119.500977 C311.119141,119.500977 309.957031,120.280273 309.799805,121.462891 L310.989258,121.462891 C311.15332,120.881836 311.768555,120.546875 312.650391,120.546875 C313.750977,120.546875 314.318359,121.045898 314.318359,121.955078 L314.318359,122.625 L312.192383,122.754883 C310.476562,122.857422 309.505859,123.616211 309.505859,124.935547 C309.505859,126.282227 310.56543,127.129883 311.994141,127.129883 Z M312.212891,126.097656 C311.358398,126.097656 310.722656,125.660156 310.722656,124.908203 C310.722656,124.169922 311.214844,123.780273 312.335938,123.705078 L314.318359,123.575195 L314.318359,124.251953 C314.318359,125.304688 313.422852,126.097656 312.212891,126.097656 Z M320.682617,127.129883 C322.453125,127.129883 323.553711,126.131836 323.765625,124.77832 L322.576172,124.77832 C322.357422,125.612305 321.666992,126.070312 320.675781,126.070312 C319.363281,126.070312 318.515625,124.990234 318.515625,123.288086 C318.515625,121.620117 319.349609,120.560547 320.675781,120.560547 C321.735352,120.560547 322.384766,121.155273 322.576172,121.886719 L323.765625,121.886719 C323.560547,120.574219 322.466797,119.500977 320.675781,119.500977 C318.611328,119.500977 317.298828,120.991211 317.298828,123.288086 C317.298828,125.632812 318.618164,127.129883 320.682617,127.129883 Z M328.256836,127.054688 C328.489258,127.054688 328.714844,127.027344 328.947266,126.986328 L328.947266,125.995117 C328.728516,126.015625 328.612305,126.022461 328.400391,126.022461 C327.634766,126.022461 327.306641,125.65332 327.306641,124.785156 L327.306641,120.615234 L328.947266,120.615234 L328.947266,119.630859 L327.306641,119.630859 L327.306641,117.723633 L326.130859,117.723633 L326.130859,119.630859 L324.941406,119.630859 L324.941406,120.615234 L326.130859,120.615234 L326.130859,125.085938 C326.130859,126.494141 326.739258,127.054688 328.256836,127.054688 Z" id="Subscriptionrenewswithoutacontract" fill="#202022" fill-rule="nonzero"></path>
                <path d="M76.2294922,163.232422 C78.328125,163.232422 79.8867188,162.063477 80.2148438,160.251953 L78.9638672,160.251953 C78.6494141,161.393555 77.6035156,162.097656 76.2294922,162.097656 C74.3291016,162.097656 73.1396484,160.545898 73.1396484,158.071289 C73.1396484,155.59668 74.3291016,154.038086 76.2226562,154.038086 C77.5830078,154.038086 78.6357422,154.837891 78.9638672,156.109375 L80.2148438,156.109375 C79.9208984,154.208984 78.3007812,152.90332 76.2226562,152.90332 C73.5429688,152.90332 71.875,154.885742 71.875,158.071289 C71.875,161.25 73.5498047,163.232422 76.2294922,163.232422 Z M85.1572266,163.129883 C87.2558594,163.129883 88.5546875,161.680664 88.5546875,159.31543 C88.5546875,156.943359 87.2558594,155.500977 85.1572266,155.500977 C83.0585938,155.500977 81.7597656,156.943359 81.7597656,159.31543 C81.7597656,161.680664 83.0585938,163.129883 85.1572266,163.129883 Z M85.1572266,162.070312 C83.7626953,162.070312 82.9765625,161.058594 82.9765625,159.31543 C82.9765625,157.56543 83.7626953,156.560547 85.1572266,156.560547 C86.5517578,156.560547 87.3378906,157.56543 87.3378906,159.31543 C87.3378906,161.058594 86.5517578,162.070312 85.1572266,162.070312 Z M91.5761719,163 L91.5761719,158.638672 C91.5761719,157.34668 92.3349609,156.560547 93.5107422,156.560547 C94.6865234,156.560547 95.2470703,157.189453 95.2470703,158.515625 L95.2470703,163 L96.4228516,163 L96.4228516,158.228516 C96.4228516,156.478516 95.5,155.500977 93.8457031,155.500977 C92.7177734,155.500977 92,155.979492 91.6308594,156.792969 L91.5214844,156.792969 L91.5214844,155.630859 L90.4003906,155.630859 L90.4003906,163 L91.5761719,163 Z M101.1875,163.054688 C101.419922,163.054688 101.645508,163.027344 101.87793,162.986328 L101.87793,161.995117 C101.65918,162.015625 101.542969,162.022461 101.331055,162.022461 C100.56543,162.022461 100.237305,161.65332 100.237305,160.785156 L100.237305,156.615234 L101.87793,156.615234 L101.87793,155.630859 L100.237305,155.630859 L100.237305,153.723633 L99.0615234,153.723633 L99.0615234,155.630859 L97.8720703,155.630859 L97.8720703,156.615234 L99.0615234,156.615234 L99.0615234,161.085938 C99.0615234,162.494141 99.6699219,163.054688 101.1875,163.054688 Z M104.831055,163 L104.831055,158.433594 C104.831055,157.394531 105.644531,156.642578 106.765625,156.642578 C106.998047,156.642578 107.421875,156.683594 107.517578,156.710938 L107.517578,155.535156 C107.367188,155.514648 107.121094,155.500977 106.929688,155.500977 C105.952148,155.500977 105.104492,156.006836 104.885742,156.724609 L104.776367,156.724609 L104.776367,155.630859 L103.655273,155.630859 L103.655273,163 L104.831055,163 Z M111.038086,163.129883 C112.022461,163.129883 112.829102,162.699219 113.307617,161.913086 L113.416992,161.913086 L113.416992,163 L114.538086,163 L114.538086,157.955078 C114.538086,156.423828 113.533203,155.500977 111.735352,155.500977 C110.163086,155.500977 109.000977,156.280273 108.84375,157.462891 L110.033203,157.462891 C110.197266,156.881836 110.8125,156.546875 111.694336,156.546875 C112.794922,156.546875 113.362305,157.045898 113.362305,157.955078 L113.362305,158.625 L111.236328,158.754883 C109.520508,158.857422 108.549805,159.616211 108.549805,160.935547 C108.549805,162.282227 109.609375,163.129883 111.038086,163.129883 Z M111.256836,162.097656 C110.402344,162.097656 109.766602,161.660156 109.766602,160.908203 C109.766602,160.169922 110.258789,159.780273 111.379883,159.705078 L113.362305,159.575195 L113.362305,160.251953 C113.362305,161.304688 112.466797,162.097656 111.256836,162.097656 Z M119.726562,163.129883 C121.49707,163.129883 122.597656,162.131836 122.80957,160.77832 L121.620117,160.77832 C121.401367,161.612305 120.710938,162.070312 119.719727,162.070312 C118.407227,162.070312 117.55957,160.990234 117.55957,159.288086 C117.55957,157.620117 118.393555,156.560547 119.719727,156.560547 C120.779297,156.560547 121.428711,157.155273 121.620117,157.886719 L122.80957,157.886719 C122.604492,156.574219 121.510742,155.500977 119.719727,155.500977 C117.655273,155.500977 116.342773,156.991211 116.342773,159.288086 C116.342773,161.632812 117.662109,163.129883 119.726562,163.129883 Z M127.300781,163.054688 C127.533203,163.054688 127.758789,163.027344 127.991211,162.986328 L127.991211,161.995117 C127.772461,162.015625 127.65625,162.022461 127.444336,162.022461 C126.678711,162.022461 126.350586,161.65332 126.350586,160.785156 L126.350586,156.615234 L127.991211,156.615234 L127.991211,155.630859 L126.350586,155.630859 L126.350586,153.723633 L125.174805,153.723633 L125.174805,155.630859 L123.985352,155.630859 L123.985352,156.615234 L125.174805,156.615234 L125.174805,161.085938 C125.174805,162.494141 125.783203,163.054688 127.300781,163.054688 Z M135.770508,163.129883 C136.754883,163.129883 137.561523,162.699219 138.040039,161.913086 L138.149414,161.913086 L138.149414,163 L139.270508,163 L139.270508,157.955078 C139.270508,156.423828 138.265625,155.500977 136.467773,155.500977 C134.895508,155.500977 133.733398,156.280273 133.576172,157.462891 L134.765625,157.462891 C134.929688,156.881836 135.544922,156.546875 136.426758,156.546875 C137.527344,156.546875 138.094727,157.045898 138.094727,157.955078 L138.094727,158.625 L135.96875,158.754883 C134.25293,158.857422 133.282227,159.616211 133.282227,160.935547 C133.282227,162.282227 134.341797,163.129883 135.770508,163.129883 Z M135.989258,162.097656 C135.134766,162.097656 134.499023,161.660156 134.499023,160.908203 C134.499023,160.169922 134.991211,159.780273 136.112305,159.705078 L138.094727,159.575195 L138.094727,160.251953 C138.094727,161.304688 137.199219,162.097656 135.989258,162.097656 Z M142.620117,163 L142.620117,158.638672 C142.620117,157.34668 143.378906,156.560547 144.554688,156.560547 C145.730469,156.560547 146.291016,157.189453 146.291016,158.515625 L146.291016,163 L147.466797,163 L147.466797,158.228516 C147.466797,156.478516 146.543945,155.500977 144.889648,155.500977 C143.761719,155.500977 143.043945,155.979492 142.674805,156.792969 L142.56543,156.792969 L142.56543,155.630859 L141.444336,155.630859 L141.444336,163 L142.620117,163 Z M152.34082,163.129883 C153.359375,163.129883 154.234375,162.644531 154.699219,161.824219 L154.808594,161.824219 L154.808594,163 L155.929688,163 L155.929688,152.705078 L154.753906,152.705078 L154.753906,156.792969 L154.651367,156.792969 C154.234375,155.986328 153.366211,155.500977 152.34082,155.500977 C150.467773,155.500977 149.244141,157.004883 149.244141,159.31543 C149.244141,161.632812 150.454102,163.129883 152.34082,163.129883 Z M152.614258,162.070312 C151.267578,162.070312 150.460938,161.038086 150.460938,159.31543 C150.460938,157.599609 151.274414,156.560547 152.614258,156.560547 C153.947266,156.560547 154.78125,157.626953 154.78125,159.31543 C154.78125,161.017578 153.954102,162.070312 152.614258,162.070312 Z M165.506836,163.232422 C167.762695,163.232422 169.191406,162.077148 169.191406,160.265625 C169.191406,158.816406 168.371094,158.023438 166.327148,157.510742 L165.294922,157.237305 C163.93457,156.888672 163.394531,156.444336 163.394531,155.671875 C163.394531,154.673828 164.262695,154.017578 165.575195,154.017578 C166.805664,154.017578 167.639648,154.619141 167.810547,155.630859 L169.047852,155.630859 C168.945312,154.038086 167.523438,152.90332 165.616211,152.90332 C163.53125,152.90332 162.129883,154.038086 162.129883,155.712891 C162.129883,157.114258 162.902344,157.920898 164.686523,158.37207 L165.951172,158.700195 C167.311523,159.041992 167.926758,159.575195 167.926758,160.416016 C167.926758,161.393555 166.949219,162.111328 165.623047,162.111328 C164.22168,162.111328 163.237305,161.455078 163.086914,160.422852 L161.842773,160.422852 C161.972656,162.125 163.415039,163.232422 165.506836,163.232422 Z M173.532227,163.129883 C174.660156,163.129883 175.446289,162.665039 175.81543,161.844727 L175.924805,161.844727 L175.924805,163 L177.045898,163 L177.045898,155.630859 L175.870117,155.630859 L175.870117,159.992188 C175.870117,161.28418 175.15918,162.056641 173.860352,162.056641 C172.68457,162.056641 172.192383,161.441406 172.192383,160.115234 L172.192383,155.630859 L171.016602,155.630859 L171.016602,160.402344 C171.016602,162.145508 171.87793,163.129883 173.532227,163.129883 Z M182.924805,163.129883 C184.791016,163.129883 186.014648,161.619141 186.014648,159.31543 C186.014648,156.998047 184.797852,155.500977 182.924805,155.500977 C181.913086,155.500977 181.017578,156 180.614258,156.792969 L180.504883,156.792969 L180.504883,152.705078 L179.329102,152.705078 L179.329102,163 L180.450195,163 L180.450195,161.824219 L180.55957,161.824219 C181.024414,162.644531 181.899414,163.129883 182.924805,163.129883 Z M182.651367,162.070312 C181.311523,162.070312 180.477539,161.017578 180.477539,159.31543 C180.477539,157.613281 181.311523,156.560547 182.651367,156.560547 C183.998047,156.560547 184.797852,157.592773 184.797852,159.31543 C184.797852,161.038086 183.998047,162.070312 182.651367,162.070312 Z M190.389648,163.129883 C192.064453,163.129883 193.342773,162.220703 193.342773,160.901367 C193.342773,159.841797 192.672852,159.240234 191.285156,158.905273 L190.150391,158.631836 C189.282227,158.419922 188.87207,158.105469 188.87207,157.599609 C188.87207,156.943359 189.555664,156.499023 190.430664,156.499023 C191.319336,156.499023 191.893555,156.888672 192.050781,157.476562 L193.212891,157.476562 C193.055664,156.266602 191.982422,155.500977 190.4375,155.500977 C188.87207,155.500977 187.689453,156.423828 187.689453,157.647461 C187.689453,158.713867 188.318359,159.308594 189.699219,159.643555 L190.963867,159.951172 C191.75,160.142578 192.132812,160.484375 192.132812,160.990234 C192.132812,161.666992 191.421875,162.138672 190.430664,162.138672 C189.487305,162.138672 188.899414,161.742188 188.701172,161.120117 L187.491211,161.120117 C187.621094,162.34375 188.749023,163.129883 190.389648,163.129883 Z M198.203125,163.129883 C199.973633,163.129883 201.074219,162.131836 201.286133,160.77832 L200.09668,160.77832 C199.87793,161.612305 199.1875,162.070312 198.196289,162.070312 C196.883789,162.070312 196.036133,160.990234 196.036133,159.288086 C196.036133,157.620117 196.870117,156.560547 198.196289,156.560547 C199.255859,156.560547 199.905273,157.155273 200.09668,157.886719 L201.286133,157.886719 C201.081055,156.574219 199.987305,155.500977 198.196289,155.500977 C196.131836,155.500977 194.819336,156.991211 194.819336,159.288086 C194.819336,161.632812 196.138672,163.129883 198.203125,163.129883 Z M204.198242,163 L204.198242,158.433594 C204.198242,157.394531 205.011719,156.642578 206.132812,156.642578 C206.365234,156.642578 206.789062,156.683594 206.884766,156.710938 L206.884766,155.535156 C206.734375,155.514648 206.488281,155.500977 206.296875,155.500977 C205.319336,155.500977 204.47168,156.006836 204.25293,156.724609 L204.143555,156.724609 L204.143555,155.630859 L203.022461,155.630859 L203.022461,163 L204.198242,163 Z M208.969727,154.208984 C209.420898,154.208984 209.790039,153.839844 209.790039,153.388672 C209.790039,152.9375 209.420898,152.568359 208.969727,152.568359 C208.518555,152.568359 208.149414,152.9375 208.149414,153.388672 C208.149414,153.839844 208.518555,154.208984 208.969727,154.208984 Z M209.557617,163 L209.557617,155.630859 L208.381836,155.630859 L208.381836,163 L209.557617,163 Z M212.975586,165.460938 L212.975586,161.892578 L213.084961,161.892578 C213.488281,162.671875 214.335938,163.129883 215.388672,163.129883 C217.261719,163.129883 218.485352,161.619141 218.485352,159.31543 C218.485352,156.998047 217.268555,155.500977 215.388672,155.500977 C214.383789,155.500977 213.501953,156.013672 213.030273,156.861328 L212.920898,156.861328 L212.920898,155.630859 L211.799805,155.630859 L211.799805,165.460938 L212.975586,165.460938 Z M215.108398,162.070312 C213.782227,162.070312 212.941406,161.003906 212.941406,159.31543 C212.941406,157.620117 213.782227,156.560547 215.115234,156.560547 C216.461914,156.560547 217.268555,157.592773 217.268555,159.31543 C217.268555,161.038086 216.461914,162.070312 215.108398,162.070312 Z M222.949219,163.054688 C223.181641,163.054688 223.407227,163.027344 223.639648,162.986328 L223.639648,161.995117 C223.420898,162.015625 223.304688,162.022461 223.092773,162.022461 C222.327148,162.022461 221.999023,161.65332 221.999023,160.785156 L221.999023,156.615234 L223.639648,156.615234 L223.639648,155.630859 L221.999023,155.630859 L221.999023,153.723633 L220.823242,153.723633 L220.823242,155.630859 L219.633789,155.630859 L219.633789,156.615234 L220.823242,156.615234 L220.823242,161.085938 C220.823242,162.494141 221.431641,163.054688 222.949219,163.054688 Z M226.032227,154.208984 C226.483398,154.208984 226.852539,153.839844 226.852539,153.388672 C226.852539,152.9375 226.483398,152.568359 226.032227,152.568359 C225.581055,152.568359 225.211914,152.9375 225.211914,153.388672 C225.211914,153.839844 225.581055,154.208984 226.032227,154.208984 Z M226.620117,163 L226.620117,155.630859 L225.444336,155.630859 L225.444336,163 L226.620117,163 Z M231.890625,163.129883 C233.989258,163.129883 235.288086,161.680664 235.288086,159.31543 C235.288086,156.943359 233.989258,155.500977 231.890625,155.500977 C229.791992,155.500977 228.493164,156.943359 228.493164,159.31543 C228.493164,161.680664 229.791992,163.129883 231.890625,163.129883 Z M231.890625,162.070312 C230.496094,162.070312 229.709961,161.058594 229.709961,159.31543 C229.709961,157.56543 230.496094,156.560547 231.890625,156.560547 C233.285156,156.560547 234.071289,157.56543 234.071289,159.31543 C234.071289,161.058594 233.285156,162.070312 231.890625,162.070312 Z M238.30957,163 L238.30957,158.638672 C238.30957,157.34668 239.068359,156.560547 240.244141,156.560547 C241.419922,156.560547 241.980469,157.189453 241.980469,158.515625 L241.980469,163 L243.15625,163 L243.15625,158.228516 C243.15625,156.478516 242.233398,155.500977 240.579102,155.500977 C239.451172,155.500977 238.733398,155.979492 238.364258,156.792969 L238.254883,156.792969 L238.254883,155.630859 L237.133789,155.630859 L237.133789,163 L238.30957,163 Z M252.207031,163.129883 C253.820312,163.129883 254.96875,162.350586 255.310547,161.092773 L254.134766,161.092773 C253.827148,161.742188 253.18457,162.09082 252.234375,162.09082 C250.983398,162.09082 250.169922,161.167969 250.108398,159.711914 L250.108398,159.657227 L255.40625,159.657227 L255.40625,159.206055 C255.40625,156.916016 254.196289,155.500977 252.207031,155.500977 C250.183594,155.500977 248.884766,157.004883 248.884766,159.322266 C248.884766,161.65332 250.163086,163.129883 252.207031,163.129883 Z M254.168945,158.707031 L250.108398,158.707031 C250.197266,157.401367 251.017578,156.540039 252.193359,156.540039 C253.362305,156.540039 254.141602,157.401367 254.168945,158.707031 Z M258.427734,163 L258.427734,158.638672 C258.427734,157.34668 259.186523,156.560547 260.362305,156.560547 C261.538086,156.560547 262.098633,157.189453 262.098633,158.515625 L262.098633,163 L263.274414,163 L263.274414,158.228516 C263.274414,156.478516 262.351562,155.500977 260.697266,155.500977 C259.569336,155.500977 258.851562,155.979492 258.482422,156.792969 L258.373047,156.792969 L258.373047,155.630859 L257.251953,155.630859 L257.251953,163 L258.427734,163 Z M268.148438,163.129883 C269.166992,163.129883 270.041992,162.644531 270.506836,161.824219 L270.616211,161.824219 L270.616211,163 L271.737305,163 L271.737305,152.705078 L270.561523,152.705078 L270.561523,156.792969 L270.458984,156.792969 C270.041992,155.986328 269.173828,155.500977 268.148438,155.500977 C266.275391,155.500977 265.051758,157.004883 265.051758,159.31543 C265.051758,161.632812 266.261719,163.129883 268.148438,163.129883 Z M268.421875,162.070312 C267.075195,162.070312 266.268555,161.038086 266.268555,159.31543 C266.268555,157.599609 267.082031,156.560547 268.421875,156.560547 C269.754883,156.560547 270.588867,157.626953 270.588867,159.31543 C270.588867,161.017578 269.761719,162.070312 268.421875,162.070312 Z" id="ContractandSubscriptionend" fill="#202022" fill-rule="nonzero"></path>
                <path d="M52.3115234,91.9726562 C52.7080078,91.9726562 53.0087891,91.8222656 53.2207031,91.5078125 L58.1699219,83.9404297 C58.3203125,83.7080078 58.3886719,83.4960938 58.3886719,83.2910156 C58.3886719,82.7509766 57.9785156,82.3613281 57.4248047,82.3613281 C57.0488281,82.3613281 56.8164062,82.4980469 56.5839844,82.8603516 L52.2910156,89.6552734 L50.0966797,86.9140625 C49.8847656,86.6542969 49.6523438,86.5380859 49.3310547,86.5380859 C48.7705078,86.5380859 48.3671875,86.9345703 48.3671875,87.4814453 C48.3671875,87.7207031 48.4423828,87.9326172 48.6474609,88.171875 L51.4228516,91.5488281 C51.6621094,91.8359375 51.9423828,91.9726562 52.3115234,91.9726562 Z" id="" fill="#202022" fill-rule="nonzero"></path>
            </g>
        </g>
    </g>
</svg>