<?xml version="1.0" encoding="UTF-8"?>
<svg width="525px" height="380px" viewBox="0 0 525 380" version="1.1" xmlns="http://www.w3.org/2000/svg" xmlns:xlink="http://www.w3.org/1999/xlink">
    <!-- Generator: Sketch 63.1 (92452) - https://sketch.com -->
    <title>Group 16</title>
    <desc>Created with Sketch.</desc>
    <defs>
        <filter x="-7.6%" y="-10.3%" width="115.2%" height="121.9%" filterUnits="objectBoundingBox" id="filter-1">
            <feOffset dx="0" dy="2" in="SourceAlpha" result="shadowOffsetOuter1"></feOffset>
            <feGaussianBlur stdDeviation="2" in="shadowOffsetOuter1" result="shadowBlurOuter1"></feGaussianBlur>
            <feColorMatrix values="0 0 0 0 0.654891304   0 0 0 0 0.654891304   0 0 0 0 0.654891304  0 0 0 0.5 0" type="matrix" in="shadowBlurOuter1" result="shadowMatrixOuter1"></feColorMatrix>
            <feMerge>
                <feMergeNode in="shadowMatrixOuter1"></feMergeNode>
                <feMergeNode in="SourceGraphic"></feMergeNode>
            </feMerge>
        </filter>
        <rect id="path-2" x="0" y="0" width="420" height="299" rx="15"></rect>
        <filter x="-8.8%" y="-11.7%" width="117.6%" height="124.7%" filterUnits="objectBoundingBox" id="filter-3">
            <feOffset dx="0" dy="2" in="SourceAlpha" result="shadowOffsetOuter1"></feOffset>
            <feGaussianBlur stdDeviation="12" in="shadowOffsetOuter1" result="shadowBlurOuter1"></feGaussianBlur>
            <feColorMatrix values="0 0 0 0 0.781221694   0 0 0 0 0.781221694   0 0 0 0 0.781221694  0 0 0 0.5 0" type="matrix" in="shadowBlurOuter1"></feColorMatrix>
        </filter>
        <rect id="path-4" x="175" y="209" width="300" height="120" rx="15"></rect>
        <filter x="-12.3%" y="-29.2%" width="124.7%" height="161.7%" filterUnits="objectBoundingBox" id="filter-5">
            <feOffset dx="0" dy="2" in="SourceAlpha" result="shadowOffsetOuter1"></feOffset>
            <feGaussianBlur stdDeviation="12" in="shadowOffsetOuter1" result="shadowBlurOuter1"></feGaussianBlur>
            <feColorMatrix values="0 0 0 0 0.781221694   0 0 0 0 0.781221694   0 0 0 0 0.781221694  0 0 0 0.5 0" type="matrix" in="shadowBlurOuter1"></feColorMatrix>
        </filter>
        <polygon id="path-6" points="0.00113522459 0.66215812 48.6909177 0.66215812 48.6909177 36.9583697 0.00113522459 36.9583697"></polygon>
    </defs>
    <g id="Page-1" stroke="none" stroke-width="1" fill="none" fill-rule="evenodd">
        <g id="Group-16" filter="url(#filter-1)" transform="translate(25.000000, 22.000000)">
            <g id="Rectangle-Copy-23">
                <use fill="black" fill-opacity="1" filter="url(#filter-3)" xlink:href="#path-2"></use>
                <use fill="#FFFFFF" fill-rule="evenodd" xlink:href="#path-2"></use>
            </g>
            <path d="M19,75 L19,26.25 C19,25.5596441 20.790861,25 23,25 L403,25 C405.209139,25 407,25.5596441 407,26.25 L407,75 L407,75" id="Path" stroke="#F5F4F5" fill="#F6F6F6"></path>
            <text id="Subject:" font-family="SFProText-Medium, SF Pro Text" font-size="12" font-weight="400" fill="#65656A">
                <tspan x="51" y="57">Subject:</tspan>
            </text>
            <text id="Quote" font-family="SFProText-Medium, SF Pro Text" font-size="12" font-weight="400" fill="#202022">
                <tspan x="105" y="57">Quote</tspan>
            </text>
            <path d="M407,70 L407,295 C407,297.209139 405.209139,299 403,299 L23,299 C20.790861,299 19,297.209139 19,295 L19,70" id="Path-Copy" stroke="#F5F4F5" fill="#FFFFFF"></path>
            <path d="M55.1923828,113 L55.1923828,107.65625 L60.9052734,107.65625 L60.9052734,113 L63.5595703,113 L63.5595703,100.317383 L60.9052734,100.317383 L60.9052734,105.467773 L55.1923828,105.467773 L55.1923828,100.317383 L52.5380859,100.317383 L52.5380859,113 L55.1923828,113 Z M70.5996094,113.202148 C72.9726562,113.202148 74.6513672,112.068359 75.0292969,110.266602 L72.6474609,110.266602 C72.375,110.925781 71.6806641,111.294922 70.6699219,111.294922 C69.3339844,111.294922 68.4902344,110.37207 68.4550781,108.895508 L68.4550781,108.763672 L75.1083984,108.763672 L75.1083984,107.999023 C75.1083984,104.94043 73.4208984,103.112305 70.5644531,103.112305 C67.6816406,103.112305 65.90625,105.063477 65.90625,108.209961 C65.90625,111.338867 67.6464844,113.202148 70.5996094,113.202148 Z M72.5947266,107.172852 L68.4638672,107.172852 C68.5517578,105.87207 69.3867188,105.019531 70.5732422,105.019531 C71.7685547,105.019531 72.5419922,105.845703 72.5947266,107.172852 Z M79.7578125,113 L79.7578125,107.585938 C79.7578125,106.223633 80.7158203,105.388672 82.1132812,105.388672 C82.5263672,105.388672 83.1240234,105.458984 83.3261719,105.529297 L83.3261719,103.279297 C83.1064453,103.208984 82.6757812,103.165039 82.3242188,103.165039 C81.09375,103.165039 80.0917969,103.894531 79.8369141,104.861328 L79.6787109,104.861328 L79.6787109,103.323242 L77.2001953,103.323242 L77.2001953,113 L79.7578125,113 Z M89.0302734,113.202148 C91.4033203,113.202148 93.0820312,112.068359 93.4599609,110.266602 L91.078125,110.266602 C90.8056641,110.925781 90.1113281,111.294922 89.1005859,111.294922 C87.7646484,111.294922 86.9208984,110.37207 86.8857422,108.895508 L86.8857422,108.763672 L93.5390625,108.763672 L93.5390625,107.999023 C93.5390625,104.94043 91.8515625,103.112305 88.9951172,103.112305 C86.1123047,103.112305 84.3369141,105.063477 84.3369141,108.209961 C84.3369141,111.338867 86.0771484,113.202148 89.0302734,113.202148 Z M91.0253906,107.172852 L86.8945312,107.172852 C86.9824219,105.87207 87.8173828,105.019531 89.0039062,105.019531 C90.1992188,105.019531 90.9726562,105.845703 91.0253906,107.172852 Z M97.1953125,105.625977 L98.9003906,100.317383 L96.3779297,100.317383 L95.4111328,105.625977 L97.1953125,105.625977 Z M104.147461,113.202148 C106.6875,113.202148 108.418945,111.954102 108.418945,110.038086 C108.418945,108.59668 107.575195,107.805664 105.694336,107.392578 L103.875,106.99707 C102.978516,106.794922 102.56543,106.487305 102.56543,105.995117 C102.56543,105.362305 103.242188,104.931641 104.15625,104.931641 C105.105469,104.931641 105.694336,105.327148 105.826172,105.96875 L108.19043,105.96875 C108.049805,104.140625 106.599609,103.112305 104.138672,103.112305 C101.72168,103.112305 100.104492,104.333984 100.104492,106.144531 C100.104492,107.629883 101.018555,108.517578 102.899414,108.930664 L104.657227,109.326172 C105.509766,109.519531 105.878906,109.818359 105.878906,110.310547 C105.878906,110.952148 105.193359,111.391602 104.200195,111.391602 C103.180664,111.391602 102.556641,110.996094 102.363281,110.328125 L99.8671875,110.328125 C100.042969,112.15625 101.589844,113.202148 104.147461,113.202148 Z M119.176758,113.035156 C119.668945,113.035156 120.143555,112.982422 120.459961,112.920898 L120.459961,111.03125 C120.213867,111.057617 120.038086,111.075195 119.704102,111.075195 C118.833984,111.075195 118.447266,110.670898 118.447266,109.800781 L118.447266,105.353516 L120.459961,105.353516 L120.459961,103.411133 L118.447266,103.411133 L118.447266,101.011719 L115.889648,101.011719 L115.889648,103.411133 L114.37793,103.411133 L114.37793,105.353516 L115.889648,105.353516 L115.889648,110.389648 C115.889648,112.270508 116.821289,113.035156 119.176758,113.035156 Z M125.232422,113 L125.232422,107.427734 C125.232422,106.144531 125.970703,105.274414 127.253906,105.274414 C128.414062,105.274414 129.038086,105.977539 129.038086,107.348633 L129.038086,113 L131.595703,113 L131.595703,106.768555 C131.595703,104.448242 130.356445,103.138672 128.273438,103.138672 C126.849609,103.138672 125.794922,103.806641 125.34668,104.905273 L125.188477,104.905273 L125.188477,99.6230469 L122.674805,99.6230469 L122.674805,113 L125.232422,113 Z M138.292969,113.202148 C140.666016,113.202148 142.344727,112.068359 142.722656,110.266602 L140.34082,110.266602 C140.068359,110.925781 139.374023,111.294922 138.363281,111.294922 C137.027344,111.294922 136.183594,110.37207 136.148438,108.895508 L136.148438,108.763672 L142.801758,108.763672 L142.801758,107.999023 C142.801758,104.94043 141.114258,103.112305 138.257812,103.112305 C135.375,103.112305 133.599609,105.063477 133.599609,108.209961 C133.599609,111.338867 135.339844,113.202148 138.292969,113.202148 Z M140.288086,107.172852 L136.157227,107.172852 C136.245117,105.87207 137.080078,105.019531 138.266602,105.019531 C139.461914,105.019531 140.235352,105.845703 140.288086,107.172852 Z M161.003906,114.256836 L159.316406,111.998047 C160.661133,110.899414 161.425781,109.027344 161.425781,106.654297 C161.425781,102.541016 159.061523,99.9921875 155.334961,99.9921875 C151.608398,99.9921875 149.226562,102.541016 149.226562,106.654297 C149.226562,110.793945 151.582031,113.325195 155.334961,113.325195 C156.143555,113.325195 156.899414,113.202148 157.567383,112.973633 L158.53418,114.256836 L161.003906,114.256836 Z M155.34375,111.163086 C153.234375,111.163086 151.87207,109.431641 151.87207,106.654297 C151.87207,103.894531 153.234375,102.145508 155.334961,102.145508 C157.426758,102.145508 158.780273,103.894531 158.780273,106.654297 C158.780273,108.086914 158.419922,109.238281 157.769531,109.941406 L156.916992,108.825195 L154.438477,108.825195 L156.125977,111.066406 C155.871094,111.136719 155.616211,111.163086 155.34375,111.163086 Z M166.989258,113.202148 C168.457031,113.202148 169.362305,112.569336 169.819336,111.444336 L169.977539,111.444336 L169.977539,113 L172.456055,113 L172.456055,103.323242 L169.898438,103.323242 L169.898438,108.913086 C169.898438,110.240234 169.212891,111.057617 167.938477,111.057617 C166.760742,111.057617 166.154297,110.363281 166.154297,108.992188 L166.154297,103.323242 L163.59668,103.323242 L163.59668,109.625 C163.59668,111.875 164.897461,113.202148 166.989258,113.202148 Z M179.320312,113.202148 C182.299805,113.202148 184.092773,111.321289 184.092773,108.157227 C184.092773,105.019531 182.273438,103.112305 179.320312,103.112305 C176.367188,103.112305 174.547852,105.02832 174.547852,108.157227 C174.547852,111.3125 176.34082,113.202148 179.320312,113.202148 Z M179.320312,111.180664 C177.949219,111.180664 177.175781,110.073242 177.175781,108.157227 C177.175781,106.258789 177.958008,105.142578 179.320312,105.142578 C180.673828,105.142578 181.464844,106.258789 181.464844,108.157227 C181.464844,110.073242 180.682617,111.180664 179.320312,111.180664 Z M190.192383,113.035156 C190.68457,113.035156 191.15918,112.982422 191.475586,112.920898 L191.475586,111.03125 C191.229492,111.057617 191.053711,111.075195 190.719727,111.075195 C189.849609,111.075195 189.462891,110.670898 189.462891,109.800781 L189.462891,105.353516 L191.475586,105.353516 L191.475586,103.411133 L189.462891,103.411133 L189.462891,101.011719 L186.905273,101.011719 L186.905273,103.411133 L185.393555,103.411133 L185.393555,105.353516 L186.905273,105.353516 L186.905273,110.389648 C186.905273,112.270508 187.836914,113.035156 190.192383,113.035156 Z M197.759766,113.202148 C200.132812,113.202148 201.811523,112.068359 202.189453,110.266602 L199.807617,110.266602 C199.535156,110.925781 198.84082,111.294922 197.830078,111.294922 C196.494141,111.294922 195.650391,110.37207 195.615234,108.895508 L195.615234,108.763672 L202.268555,108.763672 L202.268555,107.999023 C202.268555,104.94043 200.581055,103.112305 197.724609,103.112305 C194.841797,103.112305 193.066406,105.063477 193.066406,108.209961 C193.066406,111.338867 194.806641,113.202148 197.759766,113.202148 Z M199.754883,107.172852 L195.624023,107.172852 C195.711914,105.87207 196.546875,105.019531 197.733398,105.019531 C198.928711,105.019531 199.702148,105.845703 199.754883,107.172852 Z M210.205078,116.515625 C212.62207,116.515625 213.808594,115.654297 214.634766,113.18457 L217.974609,103.323242 L215.267578,103.323242 L213.228516,110.706055 L213.070312,110.706055 L211.03125,103.323242 L208.209961,103.323242 L211.611328,113.052734 L211.523438,113.421875 C211.3125,114.204102 210.767578,114.520508 209.80957,114.520508 C209.704102,114.520508 209.317383,114.511719 209.229492,114.494141 L209.229492,116.489258 C209.334961,116.506836 210.108398,116.515625 210.205078,116.515625 Z M223.652344,113.202148 C226.631836,113.202148 228.424805,111.321289 228.424805,108.157227 C228.424805,105.019531 226.605469,103.112305 223.652344,103.112305 C220.699219,103.112305 218.879883,105.02832 218.879883,108.157227 C218.879883,111.3125 220.672852,113.202148 223.652344,113.202148 Z M223.652344,111.180664 C222.28125,111.180664 221.507812,110.073242 221.507812,108.157227 C221.507812,106.258789 222.290039,105.142578 223.652344,105.142578 C225.005859,105.142578 225.796875,106.258789 225.796875,108.157227 C225.796875,110.073242 225.014648,111.180664 223.652344,111.180664 Z M233.8125,113.202148 C235.280273,113.202148 236.185547,112.569336 236.642578,111.444336 L236.800781,111.444336 L236.800781,113 L239.279297,113 L239.279297,103.323242 L236.72168,103.323242 L236.72168,108.913086 C236.72168,110.240234 236.036133,111.057617 234.761719,111.057617 C233.583984,111.057617 232.977539,110.363281 232.977539,108.992188 L232.977539,103.323242 L230.419922,103.323242 L230.419922,109.625 C230.419922,111.875 231.720703,113.202148 233.8125,113.202148 Z M249.043945,113 L249.043945,107.585938 C249.043945,106.223633 250.001953,105.388672 251.399414,105.388672 C251.8125,105.388672 252.410156,105.458984 252.612305,105.529297 L252.612305,103.279297 C252.392578,103.208984 251.961914,103.165039 251.610352,103.165039 C250.379883,103.165039 249.37793,103.894531 249.123047,104.861328 L248.964844,104.861328 L248.964844,103.323242 L246.486328,103.323242 L246.486328,113 L249.043945,113 Z M258.316406,113.202148 C260.689453,113.202148 262.368164,112.068359 262.746094,110.266602 L260.364258,110.266602 C260.091797,110.925781 259.397461,111.294922 258.386719,111.294922 C257.050781,111.294922 256.207031,110.37207 256.171875,108.895508 L256.171875,108.763672 L262.825195,108.763672 L262.825195,107.999023 C262.825195,104.94043 261.137695,103.112305 258.28125,103.112305 C255.398438,103.112305 253.623047,105.063477 253.623047,108.209961 C253.623047,111.338867 255.363281,113.202148 258.316406,113.202148 Z M260.311523,107.172852 L256.180664,107.172852 C256.268555,105.87207 257.103516,105.019531 258.290039,105.019531 C259.485352,105.019531 260.258789,105.845703 260.311523,107.172852 Z M273.987305,116.208008 L273.987305,103.323242 L271.5,103.323242 L271.5,104.914062 L271.341797,104.914062 C270.832031,103.841797 269.71582,103.165039 268.40625,103.165039 C265.962891,103.165039 264.442383,105.081055 264.442383,108.148438 C264.442383,111.242188 265.918945,113.149414 268.353516,113.149414 C269.724609,113.149414 270.744141,112.551758 271.262695,111.523438 L271.420898,111.523438 L271.420898,116.208008 L273.987305,116.208008 Z M269.241211,111.083984 C267.878906,111.083984 267.070312,109.994141 267.070312,108.157227 C267.070312,106.337891 267.887695,105.239258 269.25,105.239258 C270.603516,105.239258 271.456055,106.355469 271.456055,108.166016 C271.456055,109.976562 270.612305,111.083984 269.241211,111.083984 Z M279.858398,113.202148 C281.326172,113.202148 282.231445,112.569336 282.688477,111.444336 L282.84668,111.444336 L282.84668,113 L285.325195,113 L285.325195,103.323242 L282.767578,103.323242 L282.767578,108.913086 C282.767578,110.240234 282.082031,111.057617 280.807617,111.057617 C279.629883,111.057617 279.023438,110.363281 279.023438,108.992188 L279.023438,103.323242 L276.46582,103.323242 L276.46582,109.625 C276.46582,111.875 277.766602,113.202148 279.858398,113.202148 Z M292.110352,113.202148 C294.483398,113.202148 296.162109,112.068359 296.540039,110.266602 L294.158203,110.266602 C293.885742,110.925781 293.191406,111.294922 292.180664,111.294922 C290.844727,111.294922 290.000977,110.37207 289.96582,108.895508 L289.96582,108.763672 L296.619141,108.763672 L296.619141,107.999023 C296.619141,104.94043 294.931641,103.112305 292.075195,103.112305 C289.192383,103.112305 287.416992,105.063477 287.416992,108.209961 C287.416992,111.338867 289.157227,113.202148 292.110352,113.202148 Z M294.105469,107.172852 L289.974609,107.172852 C290.0625,105.87207 290.897461,105.019531 292.083984,105.019531 C293.279297,105.019531 294.052734,105.845703 294.105469,107.172852 Z M302.53418,113.202148 C305.074219,113.202148 306.805664,111.954102 306.805664,110.038086 C306.805664,108.59668 305.961914,107.805664 304.081055,107.392578 L302.261719,106.99707 C301.365234,106.794922 300.952148,106.487305 300.952148,105.995117 C300.952148,105.362305 301.628906,104.931641 302.542969,104.931641 C303.492188,104.931641 304.081055,105.327148 304.212891,105.96875 L306.577148,105.96875 C306.436523,104.140625 304.986328,103.112305 302.525391,103.112305 C300.108398,103.112305 298.491211,104.333984 298.491211,106.144531 C298.491211,107.629883 299.405273,108.517578 301.286133,108.930664 L303.043945,109.326172 C303.896484,109.519531 304.265625,109.818359 304.265625,110.310547 C304.265625,110.952148 303.580078,111.391602 302.586914,111.391602 C301.567383,111.391602 300.943359,110.996094 300.75,110.328125 L298.253906,110.328125 C298.429688,112.15625 299.976562,113.202148 302.53418,113.202148 Z M312.878906,113.035156 C313.371094,113.035156 313.845703,112.982422 314.162109,112.920898 L314.162109,111.03125 C313.916016,111.057617 313.740234,111.075195 313.40625,111.075195 C312.536133,111.075195 312.149414,110.670898 312.149414,109.800781 L312.149414,105.353516 L314.162109,105.353516 L314.162109,103.411133 L312.149414,103.411133 L312.149414,101.011719 L309.591797,101.011719 L309.591797,103.411133 L308.080078,103.411133 L308.080078,105.353516 L309.591797,105.353516 L309.591797,110.389648 C309.591797,112.270508 310.523438,113.035156 312.878906,113.035156 Z M320.446289,113.202148 C322.819336,113.202148 324.498047,112.068359 324.875977,110.266602 L322.494141,110.266602 C322.22168,110.925781 321.527344,111.294922 320.516602,111.294922 C319.180664,111.294922 318.336914,110.37207 318.301758,108.895508 L318.301758,108.763672 L324.955078,108.763672 L324.955078,107.999023 C324.955078,104.94043 323.267578,103.112305 320.411133,103.112305 C317.52832,103.112305 315.75293,105.063477 315.75293,108.209961 C315.75293,111.338867 317.493164,113.202148 320.446289,113.202148 Z M322.441406,107.172852 L318.310547,107.172852 C318.398438,105.87207 319.233398,105.019531 320.419922,105.019531 C321.615234,105.019531 322.388672,105.845703 322.441406,107.172852 Z M330.518555,113.149414 C331.863281,113.149414 332.961914,112.525391 333.480469,111.479492 L333.638672,111.479492 L333.638672,113 L336.117188,113 L336.117188,99.6230469 L333.55957,99.6230469 L333.55957,104.870117 L333.410156,104.870117 C332.90918,103.797852 331.828125,103.165039 330.518555,103.165039 C328.083984,103.165039 326.572266,105.072266 326.572266,108.148438 C326.572266,111.233398 328.075195,113.149414 330.518555,113.149414 Z M331.388672,111.083984 C330.017578,111.083984 329.200195,109.985352 329.200195,108.157227 C329.200195,106.337891 330.026367,105.239258 331.388672,105.239258 C332.750977,105.239258 333.585938,106.355469 333.585938,108.166016 C333.585938,109.976562 332.759766,111.083984 331.388672,111.083984 Z" id="Here’stheQuoteyourequested" fill="#202022" fill-rule="nonzero" opacity="0.845052083"></path>
            <path d="M53.3730469,151 L53.3730469,147.255859 L57.7148438,147.255859 L57.7148438,151 L59.0214844,151 L59.0214844,142.544922 L57.7148438,142.544922 L57.7148438,146.119141 L53.3730469,146.119141 L53.3730469,142.544922 L52.0605469,142.544922 L52.0605469,151 L53.3730469,151 Z M61.6464844,143.5 C62.0859375,143.5 62.4433594,143.142578 62.4433594,142.708984 C62.4433594,142.269531 62.0859375,141.912109 61.6464844,141.912109 C61.2070312,141.912109 60.8496094,142.269531 60.8496094,142.708984 C60.8496094,143.142578 61.2070312,143.5 61.6464844,143.5 Z M62.2734375,151 L62.2734375,144.636719 L61.0195312,144.636719 L61.0195312,151 L62.2734375,151 Z M72.9199219,151 L72.9199219,149.869141 L68.8652344,149.869141 L68.8652344,147.238281 L72.703125,147.238281 L72.703125,146.148438 L68.8652344,146.148438 L68.8652344,143.675781 L72.9199219,143.675781 L72.9199219,142.544922 L67.5527344,142.544922 L67.5527344,151 L72.9199219,151 Z M75.9257812,151 L75.9257812,147.091797 C75.9257812,146.259766 76.5058594,145.609375 77.2734375,145.609375 C78.0234375,145.609375 78.5039062,146.060547 78.5039062,146.787109 L78.5039062,151 L79.7402344,151 L79.7402344,146.974609 C79.7402344,146.207031 80.2734375,145.609375 81.0878906,145.609375 C81.9140625,145.609375 82.3242188,146.037109 82.3242188,146.916016 L82.3242188,151 L83.5839844,151 L83.5839844,146.611328 C83.5839844,145.287109 82.8339844,144.513672 81.5449219,144.513672 C80.6601562,144.513672 79.9277344,144.964844 79.6054688,145.650391 L79.5058594,145.650391 C79.2246094,144.964844 78.6210938,144.513672 77.7480469,144.513672 C76.8984375,144.513672 76.2539062,144.935547 75.9726562,145.650391 L75.8789062,145.650391 L75.8789062,144.636719 L74.6660156,144.636719 L74.6660156,151 L75.9257812,151 Z M86.6132812,151 L86.6132812,147.091797 C86.6132812,146.259766 87.1933594,145.609375 87.9609375,145.609375 C88.7109375,145.609375 89.1914062,146.060547 89.1914062,146.787109 L89.1914062,151 L90.4277344,151 L90.4277344,146.974609 C90.4277344,146.207031 90.9609375,145.609375 91.7753906,145.609375 C92.6015625,145.609375 93.0117188,146.037109 93.0117188,146.916016 L93.0117188,151 L94.2714844,151 L94.2714844,146.611328 C94.2714844,145.287109 93.5214844,144.513672 92.2324219,144.513672 C91.3476562,144.513672 90.6152344,144.964844 90.2929688,145.650391 L90.1933594,145.650391 C89.9121094,144.964844 89.3085938,144.513672 88.4355469,144.513672 C87.5859375,144.513672 86.9414062,144.935547 86.6601562,145.650391 L86.5664062,145.650391 L86.5664062,144.636719 L85.3535156,144.636719 L85.3535156,151 L86.6132812,151 Z M97.8046875,151.105469 C98.6425781,151.105469 99.3398438,150.742188 99.7207031,150.097656 L99.8203125,150.097656 L99.8203125,151 L101.033203,151 L101.033203,146.646484 C101.033203,145.310547 100.130859,144.513672 98.53125,144.513672 C97.0839844,144.513672 96.0527344,145.210938 95.9238281,146.283203 L97.1425781,146.283203 C97.2832031,145.820312 97.7695312,145.556641 98.4726562,145.556641 C99.3339844,145.556641 99.7792969,145.949219 99.7792969,146.646484 L99.7792969,147.203125 L98.0507812,147.308594 C96.5332031,147.402344 95.6777344,148.064453 95.6777344,149.207031 C95.6777344,150.367188 96.5742188,151.105469 97.8046875,151.105469 Z M98.1269531,150.091797 C97.4414062,150.091797 96.9433594,149.746094 96.9433594,149.154297 C96.9433594,148.574219 97.3417969,148.263672 98.2207031,148.205078 L99.7792969,148.099609 L99.7792969,148.650391 C99.7792969,149.470703 99.0761719,150.091797 98.1269531,150.091797 Z M103.634766,153.197266 L104.607422,149.757812 L103.289062,149.757812 L102.744141,153.197266 L103.634766,153.197266 Z M55.0429688,179 L56.8535156,172.677734 L56.9355469,172.677734 L58.7519531,179 L59.9882812,179 L62.2734375,170.544922 L60.9082031,170.544922 L59.3613281,177.119141 L59.2792969,177.119141 L57.5039062,170.544922 L56.2851562,170.544922 L54.5214844,177.119141 L54.4394531,177.119141 L52.8867188,170.544922 L51.5214844,170.544922 L53.8007812,179 L55.0429688,179 Z M65.7128906,179.123047 C67.171875,179.123047 68.203125,178.419922 68.4785156,177.294922 L67.265625,177.294922 C67.03125,177.810547 66.5097656,178.091797 65.7480469,178.091797 C64.7402344,178.091797 64.0898438,177.365234 64.0488281,176.210938 L64.0488281,176.152344 L68.5546875,176.152344 L68.5546875,175.71875 C68.5546875,173.726562 67.4824219,172.513672 65.7070312,172.513672 C63.9082031,172.513672 62.765625,173.808594 62.765625,175.830078 C62.765625,177.863281 63.8847656,179.123047 65.7128906,179.123047 Z M67.2714844,175.244141 L64.0488281,175.244141 C64.1191406,174.21875 64.7695312,173.539062 65.7011719,173.539062 C66.6328125,173.539062 67.2421875,174.212891 67.2714844,175.244141 Z M74.6660156,179 L74.6660156,175.273438 C74.6660156,174.277344 75.2402344,173.615234 76.2714844,173.615234 C77.1621094,173.615234 77.6367188,174.136719 77.6367188,175.185547 L77.6367188,179 L78.8964844,179 L78.8964844,174.886719 C78.8964844,173.380859 78.0585938,172.519531 76.6992188,172.519531 C75.7382812,172.519531 75.0644531,172.941406 74.7539062,173.650391 L74.6542969,173.650391 L74.6542969,170.140625 L73.40625,170.140625 L73.40625,179 L74.6660156,179 Z M82.4296875,179.105469 C83.2675781,179.105469 83.9648438,178.742188 84.3457031,178.097656 L84.4453125,178.097656 L84.4453125,179 L85.6582031,179 L85.6582031,174.646484 C85.6582031,173.310547 84.7558594,172.513672 83.15625,172.513672 C81.7089844,172.513672 80.6777344,173.210938 80.5488281,174.283203 L81.7675781,174.283203 C81.9082031,173.820312 82.3945312,173.556641 83.0976562,173.556641 C83.9589844,173.556641 84.4042969,173.949219 84.4042969,174.646484 L84.4042969,175.203125 L82.6757812,175.308594 C81.1582031,175.402344 80.3027344,176.064453 80.3027344,177.207031 C80.3027344,178.367188 81.1992188,179.105469 82.4296875,179.105469 Z M82.7519531,178.091797 C82.0664062,178.091797 81.5683594,177.746094 81.5683594,177.154297 C81.5683594,176.574219 81.9667969,176.263672 82.8457031,176.205078 L84.4042969,176.099609 L84.4042969,176.650391 C84.4042969,177.470703 83.7011719,178.091797 82.7519531,178.091797 Z M90.3457031,179 L92.6425781,172.636719 L91.3066406,172.636719 L89.7246094,177.710938 L89.625,177.710938 L88.0371094,172.636719 L86.6894531,172.636719 L88.9921875,179 L90.3457031,179 Z M96.3046875,179.123047 C97.7636719,179.123047 98.7949219,178.419922 99.0703125,177.294922 L97.8574219,177.294922 C97.6230469,177.810547 97.1015625,178.091797 96.3398438,178.091797 C95.3320312,178.091797 94.6816406,177.365234 94.640625,176.210938 L94.640625,176.152344 L99.1464844,176.152344 L99.1464844,175.71875 C99.1464844,173.726562 98.0742188,172.513672 96.2988281,172.513672 C94.5,172.513672 93.3574219,173.808594 93.3574219,175.830078 C93.3574219,177.863281 94.4765625,179.123047 96.3046875,179.123047 Z M97.8632812,175.244141 L94.640625,175.244141 C94.7109375,174.21875 95.3613281,173.539062 96.2929688,173.539062 C97.2246094,173.539062 97.8339844,174.212891 97.8632812,175.244141 Z M105.703125,179.105469 C106.541016,179.105469 107.238281,178.742188 107.619141,178.097656 L107.71875,178.097656 L107.71875,179 L108.931641,179 L108.931641,174.646484 C108.931641,173.310547 108.029297,172.513672 106.429688,172.513672 C104.982422,172.513672 103.951172,173.210938 103.822266,174.283203 L105.041016,174.283203 C105.181641,173.820312 105.667969,173.556641 106.371094,173.556641 C107.232422,173.556641 107.677734,173.949219 107.677734,174.646484 L107.677734,175.203125 L105.949219,175.308594 C104.431641,175.402344 103.576172,176.064453 103.576172,177.207031 C103.576172,178.367188 104.472656,179.105469 105.703125,179.105469 Z M106.025391,178.091797 C105.339844,178.091797 104.841797,177.746094 104.841797,177.154297 C104.841797,176.574219 105.240234,176.263672 106.119141,176.205078 L107.677734,176.099609 L107.677734,176.650391 C107.677734,177.470703 106.974609,178.091797 106.025391,178.091797 Z M113.126953,179.041016 C113.373047,179.041016 113.607422,179.011719 113.8125,178.976562 L113.8125,177.974609 C113.636719,177.992188 113.525391,178.003906 113.332031,178.003906 C112.705078,178.003906 112.429688,177.705078 112.429688,177.019531 L112.429688,173.662109 L113.8125,173.662109 L113.8125,172.654297 L112.429688,172.654297 L112.429688,171.03125 L111.169922,171.03125 L111.169922,172.654297 L110.15625,172.654297 L110.15625,173.662109 L111.169922,173.662109 L111.169922,177.324219 C111.169922,178.548828 111.726562,179.041016 113.126953,179.041016 Z M117.720703,179.041016 C117.966797,179.041016 118.201172,179.011719 118.40625,178.976562 L118.40625,177.974609 C118.230469,177.992188 118.119141,178.003906 117.925781,178.003906 C117.298828,178.003906 117.023438,177.705078 117.023438,177.019531 L117.023438,173.662109 L118.40625,173.662109 L118.40625,172.654297 L117.023438,172.654297 L117.023438,171.03125 L115.763672,171.03125 L115.763672,172.654297 L114.75,172.654297 L114.75,173.662109 L115.763672,173.662109 L115.763672,177.324219 C115.763672,178.548828 116.320312,179.041016 117.720703,179.041016 Z M121.652344,179.105469 C122.490234,179.105469 123.1875,178.742188 123.568359,178.097656 L123.667969,178.097656 L123.667969,179 L124.880859,179 L124.880859,174.646484 C124.880859,173.310547 123.978516,172.513672 122.378906,172.513672 C120.931641,172.513672 119.900391,173.210938 119.771484,174.283203 L120.990234,174.283203 C121.130859,173.820312 121.617188,173.556641 122.320312,173.556641 C123.181641,173.556641 123.626953,173.949219 123.626953,174.646484 L123.626953,175.203125 L121.898438,175.308594 C120.380859,175.402344 119.525391,176.064453 119.525391,177.207031 C119.525391,178.367188 120.421875,179.105469 121.652344,179.105469 Z M121.974609,178.091797 C121.289062,178.091797 120.791016,177.746094 120.791016,177.154297 C120.791016,176.574219 121.189453,176.263672 122.068359,176.205078 L123.626953,176.099609 L123.626953,176.650391 C123.626953,177.470703 122.923828,178.091797 121.974609,178.091797 Z M129.351562,179.123047 C130.927734,179.123047 131.912109,178.238281 132.076172,176.984375 L130.851562,176.984375 C130.6875,177.675781 130.142578,178.050781 129.345703,178.050781 C128.296875,178.050781 127.646484,177.201172 127.646484,175.794922 C127.646484,174.417969 128.291016,173.585938 129.345703,173.585938 C130.189453,173.585938 130.705078,174.060547 130.851562,174.681641 L132.076172,174.681641 C131.912109,173.445312 130.945312,172.513672 129.345703,172.513672 C127.488281,172.513672 126.357422,173.773438 126.357422,175.794922 C126.357422,177.857422 127.494141,179.123047 129.351562,179.123047 Z M134.830078,179 L134.830078,175.273438 C134.830078,174.277344 135.404297,173.615234 136.435547,173.615234 C137.326172,173.615234 137.800781,174.136719 137.800781,175.185547 L137.800781,179 L139.060547,179 L139.060547,174.886719 C139.060547,173.380859 138.222656,172.519531 136.863281,172.519531 C135.902344,172.519531 135.228516,172.941406 134.917969,173.650391 L134.818359,173.650391 L134.818359,170.140625 L133.570312,170.140625 L133.570312,179 L134.830078,179 Z M143.460938,179.123047 C144.919922,179.123047 145.951172,178.419922 146.226562,177.294922 L145.013672,177.294922 C144.779297,177.810547 144.257812,178.091797 143.496094,178.091797 C142.488281,178.091797 141.837891,177.365234 141.796875,176.210938 L141.796875,176.152344 L146.302734,176.152344 L146.302734,175.71875 C146.302734,173.726562 145.230469,172.513672 143.455078,172.513672 C141.65625,172.513672 140.513672,173.808594 140.513672,175.830078 C140.513672,177.863281 141.632812,179.123047 143.460938,179.123047 Z M145.019531,175.244141 L141.796875,175.244141 C141.867188,174.21875 142.517578,173.539062 143.449219,173.539062 C144.380859,173.539062 144.990234,174.212891 145.019531,175.244141 Z M150.146484,179.105469 C151.025391,179.105469 151.769531,178.689453 152.150391,177.992188 L152.25,177.992188 L152.25,179 L153.457031,179 L153.457031,170.140625 L152.197266,170.140625 L152.197266,173.644531 L152.103516,173.644531 C151.757812,172.947266 151.019531,172.525391 150.146484,172.525391 C148.535156,172.525391 147.498047,173.808594 147.498047,175.8125 C147.498047,177.828125 148.523438,179.105469 150.146484,179.105469 Z M150.503906,178.027344 C149.4375,178.027344 148.798828,177.201172 148.798828,175.818359 C148.798828,174.441406 149.443359,173.603516 150.503906,173.603516 C151.558594,173.603516 152.220703,174.458984 152.220703,175.818359 C152.220703,177.189453 151.564453,178.027344 150.503906,178.027344 Z M161.027344,179.041016 C161.273438,179.041016 161.507812,179.011719 161.712891,178.976562 L161.712891,177.974609 C161.537109,177.992188 161.425781,178.003906 161.232422,178.003906 C160.605469,178.003906 160.330078,177.705078 160.330078,177.019531 L160.330078,173.662109 L161.712891,173.662109 L161.712891,172.654297 L160.330078,172.654297 L160.330078,171.03125 L159.070312,171.03125 L159.070312,172.654297 L158.056641,172.654297 L158.056641,173.662109 L159.070312,173.662109 L159.070312,177.324219 C159.070312,178.548828 159.626953,179.041016 161.027344,179.041016 Z M164.513672,179 L164.513672,175.273438 C164.513672,174.277344 165.087891,173.615234 166.119141,173.615234 C167.009766,173.615234 167.484375,174.136719 167.484375,175.185547 L167.484375,179 L168.744141,179 L168.744141,174.886719 C168.744141,173.380859 167.90625,172.519531 166.546875,172.519531 C165.585938,172.519531 164.912109,172.941406 164.601562,173.650391 L164.501953,173.650391 L164.501953,170.140625 L163.253906,170.140625 L163.253906,179 L164.513672,179 Z M173.144531,179.123047 C174.603516,179.123047 175.634766,178.419922 175.910156,177.294922 L174.697266,177.294922 C174.462891,177.810547 173.941406,178.091797 173.179688,178.091797 C172.171875,178.091797 171.521484,177.365234 171.480469,176.210938 L171.480469,176.152344 L175.986328,176.152344 L175.986328,175.71875 C175.986328,173.726562 174.914062,172.513672 173.138672,172.513672 C171.339844,172.513672 170.197266,173.808594 170.197266,175.830078 C170.197266,177.863281 171.316406,179.123047 173.144531,179.123047 Z M174.703125,175.244141 L171.480469,175.244141 C171.550781,174.21875 172.201172,173.539062 173.132812,173.539062 C174.064453,173.539062 174.673828,174.212891 174.703125,175.244141 Z M188.091797,179.914062 L187.001953,178.419922 C187.939453,177.710938 188.466797,176.421875 188.466797,174.775391 C188.466797,172.044922 186.949219,170.339844 184.529297,170.339844 C182.103516,170.339844 180.580078,172.039062 180.580078,174.775391 C180.580078,177.523438 182.091797,179.205078 184.529297,179.205078 C185.074219,179.205078 185.583984,179.123047 186.035156,178.958984 L186.744141,179.914062 L188.091797,179.914062 Z M184.535156,178.0625 C182.917969,178.0625 181.910156,176.802734 181.910156,174.775391 C181.910156,172.748047 182.923828,171.482422 184.529297,171.482422 C186.128906,171.482422 187.142578,172.753906 187.142578,174.775391 C187.142578,175.941406 186.814453,176.867188 186.234375,177.371094 L185.542969,176.451172 L184.183594,176.451172 L185.302734,177.957031 C185.056641,178.033203 184.798828,178.0625 184.535156,178.0625 Z M192.234375,179.123047 C193.201172,179.123047 193.851562,178.712891 194.162109,177.992188 L194.261719,177.992188 L194.261719,179 L195.474609,179 L195.474609,172.636719 L194.214844,172.636719 L194.214844,176.369141 C194.214844,177.394531 193.658203,178.015625 192.638672,178.015625 C191.712891,178.015625 191.296875,177.511719 191.296875,176.457031 L191.296875,172.636719 L190.037109,172.636719 L190.037109,176.767578 C190.037109,178.261719 190.822266,179.123047 192.234375,179.123047 Z M199.998047,179.123047 C201.861328,179.123047 203.003906,177.875 203.003906,175.818359 C203.003906,173.761719 201.855469,172.513672 199.998047,172.513672 C198.134766,172.513672 196.986328,173.767578 196.986328,175.818359 C196.986328,177.875 198.128906,179.123047 199.998047,179.123047 Z M199.998047,178.050781 C198.902344,178.050781 198.287109,177.236328 198.287109,175.818359 C198.287109,174.400391 198.902344,173.580078 199.998047,173.580078 C201.087891,173.580078 201.708984,174.400391 201.708984,175.818359 C201.708984,177.230469 201.087891,178.050781 199.998047,178.050781 Z M206.917969,179.041016 C207.164062,179.041016 207.398438,179.011719 207.603516,178.976562 L207.603516,177.974609 C207.427734,177.992188 207.316406,178.003906 207.123047,178.003906 C206.496094,178.003906 206.220703,177.705078 206.220703,177.019531 L206.220703,173.662109 L207.603516,173.662109 L207.603516,172.654297 L206.220703,172.654297 L206.220703,171.03125 L204.960938,171.03125 L204.960938,172.654297 L203.947266,172.654297 L203.947266,173.662109 L204.960938,173.662109 L204.960938,177.324219 C204.960938,178.548828 205.517578,179.041016 206.917969,179.041016 Z M211.646484,179.123047 C213.105469,179.123047 214.136719,178.419922 214.412109,177.294922 L213.199219,177.294922 C212.964844,177.810547 212.443359,178.091797 211.681641,178.091797 C210.673828,178.091797 210.023438,177.365234 209.982422,176.210938 L209.982422,176.152344 L214.488281,176.152344 L214.488281,175.71875 C214.488281,173.726562 213.416016,172.513672 211.640625,172.513672 C209.841797,172.513672 208.699219,173.808594 208.699219,175.830078 C208.699219,177.863281 209.818359,179.123047 211.646484,179.123047 Z M213.205078,175.244141 L209.982422,175.244141 C210.052734,174.21875 210.703125,173.539062 211.634766,173.539062 C212.566406,173.539062 213.175781,174.212891 213.205078,175.244141 Z M219.914062,181.308594 C221.214844,181.308594 221.818359,180.822266 222.363281,179.292969 L224.742188,172.636719 L223.40625,172.636719 L221.8125,177.734375 L221.712891,177.734375 L220.113281,172.636719 L218.742188,172.636719 L221.050781,179.017578 L220.957031,179.345703 C220.740234,180.019531 220.400391,180.271484 219.802734,180.271484 C219.685547,180.271484 219.492188,180.265625 219.392578,180.248047 L219.392578,181.279297 C219.509766,181.296875 219.808594,181.308594 219.914062,181.308594 Z M228.480469,179.123047 C230.34375,179.123047 231.486328,177.875 231.486328,175.818359 C231.486328,173.761719 230.337891,172.513672 228.480469,172.513672 C226.617188,172.513672 225.46875,173.767578 225.46875,175.818359 C225.46875,177.875 226.611328,179.123047 228.480469,179.123047 Z M228.480469,178.050781 C227.384766,178.050781 226.769531,177.236328 226.769531,175.818359 C226.769531,174.400391 227.384766,173.580078 228.480469,173.580078 C229.570312,173.580078 230.191406,174.400391 230.191406,175.818359 C230.191406,177.230469 229.570312,178.050781 228.480469,178.050781 Z M235.136719,179.123047 C236.103516,179.123047 236.753906,178.712891 237.064453,177.992188 L237.164062,177.992188 L237.164062,179 L238.376953,179 L238.376953,172.636719 L237.117188,172.636719 L237.117188,176.369141 C237.117188,177.394531 236.560547,178.015625 235.541016,178.015625 C234.615234,178.015625 234.199219,177.511719 234.199219,176.457031 L234.199219,172.636719 L232.939453,172.636719 L232.939453,176.767578 C232.939453,178.261719 233.724609,179.123047 235.136719,179.123047 Z M244.804688,179 L244.804688,175.273438 C244.804688,174.277344 245.378906,173.615234 246.410156,173.615234 C247.300781,173.615234 247.775391,174.136719 247.775391,175.185547 L247.775391,179 L249.035156,179 L249.035156,174.886719 C249.035156,173.380859 248.197266,172.519531 246.837891,172.519531 C245.876953,172.519531 245.203125,172.941406 244.892578,173.650391 L244.792969,173.650391 L244.792969,170.140625 L243.544922,170.140625 L243.544922,179 L244.804688,179 Z M252.568359,179.105469 C253.40625,179.105469 254.103516,178.742188 254.484375,178.097656 L254.583984,178.097656 L254.583984,179 L255.796875,179 L255.796875,174.646484 C255.796875,173.310547 254.894531,172.513672 253.294922,172.513672 C251.847656,172.513672 250.816406,173.210938 250.6875,174.283203 L251.90625,174.283203 C252.046875,173.820312 252.533203,173.556641 253.236328,173.556641 C254.097656,173.556641 254.542969,173.949219 254.542969,174.646484 L254.542969,175.203125 L252.814453,175.308594 C251.296875,175.402344 250.441406,176.064453 250.441406,177.207031 C250.441406,178.367188 251.337891,179.105469 252.568359,179.105469 Z M252.890625,178.091797 C252.205078,178.091797 251.707031,177.746094 251.707031,177.154297 C251.707031,176.574219 252.105469,176.263672 252.984375,176.205078 L254.542969,176.099609 L254.542969,176.650391 C254.542969,177.470703 253.839844,178.091797 252.890625,178.091797 Z M259.921875,179.105469 C260.800781,179.105469 261.544922,178.689453 261.925781,177.992188 L262.025391,177.992188 L262.025391,179 L263.232422,179 L263.232422,170.140625 L261.972656,170.140625 L261.972656,173.644531 L261.878906,173.644531 C261.533203,172.947266 260.794922,172.525391 259.921875,172.525391 C258.310547,172.525391 257.273438,173.808594 257.273438,175.8125 C257.273438,177.828125 258.298828,179.105469 259.921875,179.105469 Z M260.279297,178.027344 C259.212891,178.027344 258.574219,177.201172 258.574219,175.818359 C258.574219,174.441406 259.21875,173.603516 260.279297,173.603516 C261.333984,173.603516 261.996094,174.458984 261.996094,175.818359 C261.996094,177.189453 261.339844,178.027344 260.279297,178.027344 Z M269.660156,179 L269.660156,175.197266 C269.660156,174.300781 270.333984,173.685547 271.289062,173.685547 C271.511719,173.685547 271.886719,173.726562 271.992188,173.755859 L271.992188,172.572266 C271.857422,172.542969 271.617188,172.525391 271.429688,172.525391 C270.597656,172.525391 269.888672,172.976562 269.707031,173.603516 L269.613281,173.603516 L269.613281,172.636719 L268.400391,172.636719 L268.400391,179 L269.660156,179 Z M275.671875,179.123047 C277.130859,179.123047 278.162109,178.419922 278.4375,177.294922 L277.224609,177.294922 C276.990234,177.810547 276.46875,178.091797 275.707031,178.091797 C274.699219,178.091797 274.048828,177.365234 274.007812,176.210938 L274.007812,176.152344 L278.513672,176.152344 L278.513672,175.71875 C278.513672,173.726562 277.441406,172.513672 275.666016,172.513672 C273.867188,172.513672 272.724609,173.808594 272.724609,175.830078 C272.724609,177.863281 273.84375,179.123047 275.671875,179.123047 Z M277.230469,175.244141 L274.007812,175.244141 C274.078125,174.21875 274.728516,173.539062 275.660156,173.539062 C276.591797,173.539062 277.201172,174.212891 277.230469,175.244141 Z M285.667969,181.121094 L285.667969,172.636719 L284.449219,172.636719 L284.449219,173.691406 L284.349609,173.691406 C283.986328,172.982422 283.21875,172.525391 282.351562,172.525391 C280.740234,172.525391 279.708984,173.814453 279.708984,175.8125 C279.708984,177.833984 280.722656,179.105469 282.339844,179.105469 C283.242188,179.105469 283.916016,178.730469 284.302734,178.039062 L284.402344,178.039062 L284.402344,181.121094 L285.667969,181.121094 Z M282.697266,178.027344 C281.636719,178.027344 281.009766,177.207031 281.009766,175.818359 C281.009766,174.435547 281.642578,173.603516 282.703125,173.603516 C283.763672,173.603516 284.425781,174.458984 284.425781,175.818359 C284.425781,177.183594 283.769531,178.027344 282.697266,178.027344 Z M289.634766,179.123047 C290.601562,179.123047 291.251953,178.712891 291.5625,177.992188 L291.662109,177.992188 L291.662109,179 L292.875,179 L292.875,172.636719 L291.615234,172.636719 L291.615234,176.369141 C291.615234,177.394531 291.058594,178.015625 290.039062,178.015625 C289.113281,178.015625 288.697266,177.511719 288.697266,176.457031 L288.697266,172.636719 L287.4375,172.636719 L287.4375,176.767578 C287.4375,178.261719 288.222656,179.123047 289.634766,179.123047 Z M297.333984,179.123047 C298.792969,179.123047 299.824219,178.419922 300.099609,177.294922 L298.886719,177.294922 C298.652344,177.810547 298.130859,178.091797 297.369141,178.091797 C296.361328,178.091797 295.710938,177.365234 295.669922,176.210938 L295.669922,176.152344 L300.175781,176.152344 L300.175781,175.71875 C300.175781,173.726562 299.103516,172.513672 297.328125,172.513672 C295.529297,172.513672 294.386719,173.808594 294.386719,175.830078 C294.386719,177.863281 295.505859,179.123047 297.333984,179.123047 Z M298.892578,175.244141 L295.669922,175.244141 C295.740234,174.21875 296.390625,173.539062 297.322266,173.539062 C298.253906,173.539062 298.863281,174.212891 298.892578,175.244141 Z M303.996094,179.123047 C305.519531,179.123047 306.638672,178.320312 306.638672,177.136719 C306.638672,176.210938 306.070312,175.689453 304.857422,175.408203 L303.796875,175.162109 C303.105469,174.998047 302.783203,174.751953 302.783203,174.359375 C302.783203,173.84375 303.316406,173.498047 304.019531,173.498047 C304.734375,173.498047 305.191406,173.808594 305.308594,174.283203 L306.515625,174.283203 C306.392578,173.181641 305.455078,172.513672 304.019531,172.513672 C302.578125,172.513672 301.541016,173.310547 301.541016,174.417969 C301.541016,175.361328 302.103516,175.900391 303.316406,176.181641 L304.429688,176.445312 C305.068359,176.597656 305.367188,176.855469 305.367188,177.253906 C305.367188,177.775391 304.810547,178.138672 304.025391,178.138672 C303.263672,178.138672 302.794922,177.828125 302.636719,177.330078 L301.376953,177.330078 C301.488281,178.4375 302.478516,179.123047 303.996094,179.123047 Z M310.511719,179.041016 C310.757812,179.041016 310.992188,179.011719 311.197266,178.976562 L311.197266,177.974609 C311.021484,177.992188 310.910156,178.003906 310.716797,178.003906 C310.089844,178.003906 309.814453,177.705078 309.814453,177.019531 L309.814453,173.662109 L311.197266,173.662109 L311.197266,172.654297 L309.814453,172.654297 L309.814453,171.03125 L308.554688,171.03125 L308.554688,172.654297 L307.541016,172.654297 L307.541016,173.662109 L308.554688,173.662109 L308.554688,177.324219 C308.554688,178.548828 309.111328,179.041016 310.511719,179.041016 Z M315.240234,179.123047 C316.699219,179.123047 317.730469,178.419922 318.005859,177.294922 L316.792969,177.294922 C316.558594,177.810547 316.037109,178.091797 315.275391,178.091797 C314.267578,178.091797 313.617188,177.365234 313.576172,176.210938 L313.576172,176.152344 L318.082031,176.152344 L318.082031,175.71875 C318.082031,173.726562 317.009766,172.513672 315.234375,172.513672 C313.435547,172.513672 312.292969,173.808594 312.292969,175.830078 C312.292969,177.863281 313.412109,179.123047 315.240234,179.123047 Z M316.798828,175.244141 L313.576172,175.244141 C313.646484,174.21875 314.296875,173.539062 315.228516,173.539062 C316.160156,173.539062 316.769531,174.212891 316.798828,175.244141 Z M321.925781,179.105469 C322.804688,179.105469 323.548828,178.689453 323.929688,177.992188 L324.029297,177.992188 L324.029297,179 L325.236328,179 L325.236328,170.140625 L323.976562,170.140625 L323.976562,173.644531 L323.882812,173.644531 C323.537109,172.947266 322.798828,172.525391 321.925781,172.525391 C320.314453,172.525391 319.277344,173.808594 319.277344,175.8125 C319.277344,177.828125 320.302734,179.105469 321.925781,179.105469 Z M322.283203,178.027344 C321.216797,178.027344 320.578125,177.201172 320.578125,175.818359 C320.578125,174.441406 321.222656,173.603516 322.283203,173.603516 C323.337891,173.603516 324,174.458984 324,175.818359 C324,177.189453 323.34375,178.027344 322.283203,178.027344 Z M332.806641,179.041016 C333.052734,179.041016 333.287109,179.011719 333.492188,178.976562 L333.492188,177.974609 C333.316406,177.992188 333.205078,178.003906 333.011719,178.003906 C332.384766,178.003906 332.109375,177.705078 332.109375,177.019531 L332.109375,173.662109 L333.492188,173.662109 L333.492188,172.654297 L332.109375,172.654297 L332.109375,171.03125 L330.849609,171.03125 L330.849609,172.654297 L329.835938,172.654297 L329.835938,173.662109 L330.849609,173.662109 L330.849609,177.324219 C330.849609,178.548828 331.40625,179.041016 332.806641,179.041016 Z M337.599609,179.123047 C339.462891,179.123047 340.605469,177.875 340.605469,175.818359 C340.605469,173.761719 339.457031,172.513672 337.599609,172.513672 C335.736328,172.513672 334.587891,173.767578 334.587891,175.818359 C334.587891,177.875 335.730469,179.123047 337.599609,179.123047 Z M337.599609,178.050781 C336.503906,178.050781 335.888672,177.236328 335.888672,175.818359 C335.888672,174.400391 336.503906,173.580078 337.599609,173.580078 C338.689453,173.580078 339.310547,174.400391 339.310547,175.818359 C339.310547,177.230469 338.689453,178.050781 337.599609,178.050781 Z M347.800781,179.041016 C348.046875,179.041016 348.28125,179.011719 348.486328,178.976562 L348.486328,177.974609 C348.310547,177.992188 348.199219,178.003906 348.005859,178.003906 C347.378906,178.003906 347.103516,177.705078 347.103516,177.019531 L347.103516,173.662109 L348.486328,173.662109 L348.486328,172.654297 L347.103516,172.654297 L347.103516,171.03125 L345.84375,171.03125 L345.84375,172.654297 L344.830078,172.654297 L344.830078,173.662109 L345.84375,173.662109 L345.84375,177.324219 C345.84375,178.548828 346.400391,179.041016 347.800781,179.041016 Z M351.287109,179 L351.287109,175.273438 C351.287109,174.277344 351.861328,173.615234 352.892578,173.615234 C353.783203,173.615234 354.257812,174.136719 354.257812,175.185547 L354.257812,179 L355.517578,179 L355.517578,174.886719 C355.517578,173.380859 354.679688,172.519531 353.320312,172.519531 C352.359375,172.519531 351.685547,172.941406 351.375,173.650391 L351.275391,173.650391 L351.275391,170.140625 L350.027344,170.140625 L350.027344,179 L351.287109,179 Z M357.9375,171.5 C358.376953,171.5 358.734375,171.142578 358.734375,170.708984 C358.734375,170.269531 358.376953,169.912109 357.9375,169.912109 C357.498047,169.912109 357.140625,170.269531 357.140625,170.708984 C357.140625,171.142578 357.498047,171.5 357.9375,171.5 Z M358.564453,179 L358.564453,172.636719 L357.310547,172.636719 L357.310547,179 L358.564453,179 Z M362.724609,179.123047 C364.248047,179.123047 365.367188,178.320312 365.367188,177.136719 C365.367188,176.210938 364.798828,175.689453 363.585938,175.408203 L362.525391,175.162109 C361.833984,174.998047 361.511719,174.751953 361.511719,174.359375 C361.511719,173.84375 362.044922,173.498047 362.748047,173.498047 C363.462891,173.498047 363.919922,173.808594 364.037109,174.283203 L365.244141,174.283203 C365.121094,173.181641 364.183594,172.513672 362.748047,172.513672 C361.306641,172.513672 360.269531,173.310547 360.269531,174.417969 C360.269531,175.361328 360.832031,175.900391 362.044922,176.181641 L363.158203,176.445312 C363.796875,176.597656 364.095703,176.855469 364.095703,177.253906 C364.095703,177.775391 363.539062,178.138672 362.753906,178.138672 C361.992188,178.138672 361.523438,177.828125 361.365234,177.330078 L360.105469,177.330078 C360.216797,178.4375 361.207031,179.123047 362.724609,179.123047 Z M372.796875,179.123047 C374.255859,179.123047 375.287109,178.419922 375.5625,177.294922 L374.349609,177.294922 C374.115234,177.810547 373.59375,178.091797 372.832031,178.091797 C371.824219,178.091797 371.173828,177.365234 371.132812,176.210938 L371.132812,176.152344 L375.638672,176.152344 L375.638672,175.71875 C375.638672,173.726562 374.566406,172.513672 372.791016,172.513672 C370.992188,172.513672 369.849609,173.808594 369.849609,175.830078 C369.849609,177.863281 370.96875,179.123047 372.796875,179.123047 Z M374.355469,175.244141 L371.132812,175.244141 C371.203125,174.21875 371.853516,173.539062 372.785156,173.539062 C373.716797,173.539062 374.326172,174.212891 374.355469,175.244141 Z M378.410156,179 L378.410156,175.091797 C378.410156,174.259766 378.990234,173.609375 379.757812,173.609375 C380.507812,173.609375 380.988281,174.060547 380.988281,174.787109 L380.988281,179 L382.224609,179 L382.224609,174.974609 C382.224609,174.207031 382.757812,173.609375 383.572266,173.609375 C384.398438,173.609375 384.808594,174.037109 384.808594,174.916016 L384.808594,179 L386.068359,179 L386.068359,174.611328 C386.068359,173.287109 385.318359,172.513672 384.029297,172.513672 C383.144531,172.513672 382.412109,172.964844 382.089844,173.650391 L381.990234,173.650391 C381.708984,172.964844 381.105469,172.513672 380.232422,172.513672 C379.382812,172.513672 378.738281,172.935547 378.457031,173.650391 L378.363281,173.650391 L378.363281,172.636719 L377.150391,172.636719 L377.150391,179 L378.410156,179 Z M389.601562,179.105469 C390.439453,179.105469 391.136719,178.742188 391.517578,178.097656 L391.617188,178.097656 L391.617188,179 L392.830078,179 L392.830078,174.646484 C392.830078,173.310547 391.927734,172.513672 390.328125,172.513672 C388.880859,172.513672 387.849609,173.210938 387.720703,174.283203 L388.939453,174.283203 C389.080078,173.820312 389.566406,173.556641 390.269531,173.556641 C391.130859,173.556641 391.576172,173.949219 391.576172,174.646484 L391.576172,175.203125 L389.847656,175.308594 C388.330078,175.402344 387.474609,176.064453 387.474609,177.207031 C387.474609,178.367188 388.371094,179.105469 389.601562,179.105469 Z M389.923828,178.091797 C389.238281,178.091797 388.740234,177.746094 388.740234,177.154297 C388.740234,176.574219 389.138672,176.263672 390.017578,176.205078 L391.576172,176.099609 L391.576172,176.650391 C391.576172,177.470703 390.873047,178.091797 389.923828,178.091797 Z M395.273438,171.5 C395.712891,171.5 396.070312,171.142578 396.070312,170.708984 C396.070312,170.269531 395.712891,169.912109 395.273438,169.912109 C394.833984,169.912109 394.476562,170.269531 394.476562,170.708984 C394.476562,171.142578 394.833984,171.5 395.273438,171.5 Z M395.900391,179 L395.900391,172.636719 L394.646484,172.636719 L394.646484,179 L395.900391,179 Z M399.070312,179 L399.070312,170.140625 L397.810547,170.140625 L397.810547,179 L399.070312,179 Z M401.935547,179.087891 C402.433594,179.087891 402.796875,178.71875 402.796875,178.244141 C402.796875,177.769531 402.433594,177.400391 401.935547,177.400391 C401.443359,177.400391 401.074219,177.769531 401.074219,178.244141 C401.074219,178.71875 401.443359,179.087891 401.935547,179.087891 Z" id="HiEmma,WehaveattachedtheQuoteyouhadrequestedtothisemail." fill="#202022" fill-rule="nonzero" opacity="0.414643787"></path>
            <polygon id="Line-2" fill="#F6F6F6" fill-rule="nonzero" points="403.667476 192 403.667476 203 51.3325243 203 51.3325243 192"></polygon>
            <polygon id="Line-2-Copy" fill="#F6F6F6" fill-rule="nonzero" points="403.667476 210 403.667476 221 51.3325243 221 51.3325243 210"></polygon>
            <polygon id="Line-2-Copy-3" fill="#F6F6F6" fill-rule="nonzero" points="403.834951 227.5 403.834951 238.5 51.5 238.5 51.5 227.5"></polygon>
            <polygon id="Line-2-Copy-5" fill="#F6F6F6" fill-rule="nonzero" points="403.667476 263 403.667476 274 51.3325243 274 51.3325243 263"></polygon>
            <polygon id="Line-2-Copy-4" fill="#F6F6F6" fill-rule="nonzero" points="403.834951 245.5 403.834951 256.5 51.5 256.5 51.5 245.5"></polygon>
            <g id="Rectangle-Copy-24">
                <use fill="black" fill-opacity="1" filter="url(#filter-5)" xlink:href="#path-4"></use>
                <use fill="#FFFFFF" fill-rule="evenodd" xlink:href="#path-4"></use>
            </g>
            <g id="Group-11" transform="translate(212.000000, 244.000000)">
                <path d="M24.3250614,20 C24.1002152,20 23.8781448,19.9381488 23.6782815,19.8144463 L5.62673697,8.51628709 C5.02159523,8.13634378 4.81895603,7.30577003 5.17704448,6.66369529 C5.53513294,6.01572995 6.32348273,5.81250446 6.92029683,6.18655718 L24.3139579,17.0723748 L41.0608391,6.19539307 C41.6576532,5.81250446 42.4432271,6.00983936 42.8124191,6.64307821 C43.1788352,7.28220765 42.9928512,8.1127814 42.3904854,8.5045059 L24.9884966,19.8026651 C24.7858574,19.9352035 24.5554594,20 24.3250614,20" id="Fill-1" fill="#6200EA"></path>
                <g id="Group-5">
                    <mask id="mask-7" fill="white">
                        <use xlink:href="#path-6"></use>
                    </mask>
                    <g id="Clip-4"></g>
                    <path d="M45.4810702,0.661873932 L3.20530662,0.661873932 C1.43719433,0.661873932 0.00113522459,2.10270726 0.00113522459,3.87319872 L0.00113522459,33.7498868 C0.00113522459,35.5203782 1.43719433,36.9583697 3.20530662,36.9583697 L32.8006116,36.9583697 C32.8261541,36.4809338 32.8744012,36.0091816 32.9396766,35.5374295 C33.0077901,35.0599936 33.0929319,34.5882415 33.2092924,34.1164893 L3.20530662,34.1164893 C3.00380426,34.1164893 2.83919669,33.9516603 2.83919669,33.7498868 L2.83919669,3.87319872 C2.83919669,3.66858333 3.00380426,3.50375427 3.20530662,3.50375427 L45.4810702,3.50375427 C45.6854106,3.50375427 45.8528563,3.66858333 45.8528563,3.87319872 L45.8528563,13.2968739 C46.3126222,13.1945662 46.7922546,13.1604637 47.271887,13.1149936 C47.6096163,13.0865748 47.9359934,13.0126859 48.2822369,13.0126859 C48.4213019,13.0126859 48.5518527,13.0496303 48.6909177,13.0553141 L48.6909177,3.87319872 C48.6909177,2.10270726 47.2520206,0.661873932 45.4810702,0.661873932" id="Fill-3" fill="#6200EA" mask="url(#mask-7)"></path>
                </g>
                <path d="M41.8722,23.7762154 C41.8722,20.4143692 44.6358,17.6811385 48.035,17.6811385 C51.4342,17.6811385 54.1978,20.4143692 54.1978,23.7762154 L54.1978,25.3796 C52.347,24.4076 50.2722,23.8039077 48.035,23.8039077 C45.7978,23.8039077 43.723,24.4076 41.8722,25.3796 L41.8722,23.7762154 Z M48.035,47.2316 C42.2782,47.2316 37.591,42.5959077 37.591,36.9023692 C37.591,34.2992923 38.6018,31.9454462 40.2146,30.1260615 C40.3014,30.0263692 40.3798,29.9156 40.4722,29.8186769 C40.8978,29.3728308 41.371,28.9712923 41.8722,28.6057538 C43.6054,27.3429846 45.725,26.5731385 48.035,26.5731385 C50.345,26.5731385 52.4646,27.3429846 54.1978,28.6057538 C54.3658,28.7276 54.5198,28.8660615 54.6794,28.9989846 C54.7046,29.0211385 54.7298,29.0405231 54.7578,29.0599077 C57.0146,30.9568308 58.4818,33.7509846 58.4818,36.9023692 C58.4818,42.5959077 53.7946,47.2316 48.035,47.2316 L48.035,47.2316 Z M56.9978,27.3180615 L56.9978,23.7762154 C56.9978,18.8885231 52.977,14.9119077 48.035,14.9119077 C43.0958,14.9119077 39.0722,18.8885231 39.0722,23.7762154 L39.0722,27.3180615 C36.4542,29.7134462 34.791,33.1085231 34.791,36.9023692 C34.791,44.1245231 40.7326,50.0008308 48.035,50.0008308 C55.3402,50.0008308 61.2818,44.1245231 61.2818,36.9023692 C61.2818,33.1085231 59.6158,29.7134462 56.9978,27.3180615 L56.9978,27.3180615 Z" id="Fill-6" fill="#6200EA"></path>
                <path d="M48.5,36 C47.6719243,36 47,36.7183811 47,37.6037099 C47,38.1247892 47.2507886,38.5699831 47.612776,38.8608769 L47.612776,42 L49.387224,42 L49.387224,38.8608769 C49.7492114,38.5699831 50,38.1247892 50,37.6037099 C50,36.7183811 49.3280757,36 48.5,36" id="Fill-9" fill="#6200EA"></path>
            </g>
            <path d="M433.662621,251 C436.700187,251 439.162621,253.462434 439.162621,256.5 C439.162621,259.463479 436.818841,261.879539 433.883829,261.995633 L433.662621,262 L295.337379,262 C292.299813,262 289.837379,259.537566 289.837379,256.5 C289.837379,253.536521 292.181159,251.120461 295.116171,251.004367 L295.337379,251 L433.662621,251 Z" id="Line-2" fill="#F6F6F6" fill-rule="nonzero"></path>
            <path d="M295.374047,279.000129 L368.450329,279.500129 C371.487824,279.520912 373.933353,282.000129 373.912701,285.037631 C373.892294,288.001041 371.532038,290.401008 368.596299,290.497018 L368.375067,290.499871 L295.298784,289.999871 C292.261289,289.979088 289.815761,287.499864 289.836413,284.462369 C289.85682,281.498959 292.217076,279.098992 295.152815,279.002982 L295.374047,279.000129 Z" id="Line-2-Copy" fill="#F6F6F6" fill-rule="nonzero"></path>
        </g>
    </g>
</svg>