<svg width="367" height="268" viewBox="0 0 367 268" fill="none" xmlns="http://www.w3.org/2000/svg">
<g filter="url(#filter0_d)">
<rect x="9" y="6" width="349" height="250" fill="white"/>
</g>
<rect x="9" y="58" width="349" height="135" fill="#EBE3F7" fill-opacity="0.18"/>
<path d="M103 65L263 65" stroke="#6A7D54"/>
<path d="M64 70L64 176" stroke="#6A7D54" stroke-width="0.75"/>
<path d="M188 70L188 176" stroke="#6A7D54" stroke-width="0.75"/>
<path d="M301 70L301 176" stroke="#6A7D54" stroke-width="0.75"/>
<g filter="url(#filter1_d)">
<rect x="29" y="127.403" width="78.1299" height="21.974" rx="10.987" fill="white"/>
</g>
<path d="M49.6723 140.947H46.9692V139.255H49.5278V138.497H46.9692V136.904H49.6723V136.107H46.0942V141.744H49.6723V140.947ZM51.7895 141.744V137.74H51.852L54.7465 141.744H55.5356V136.107H54.684V140.111H54.6215L51.727 136.107H50.9379V141.744H51.7895ZM59.2582 141.744V136.904H61.0278V136.107H56.6098V136.904H58.3832V141.744H59.2582ZM65.6801 140.947H62.977V139.255H65.5356V138.497H62.977V136.904H65.6801V136.107H62.102V141.744H65.6801V140.947ZM67.8207 136.876H69.0551C69.7309 136.876 70.145 137.247 70.145 137.861C70.145 138.49 69.7543 138.849 69.0785 138.849H67.8207V136.876ZM67.8207 139.595H69.0551L70.2035 141.744H71.2153L69.9496 139.451C70.6371 139.216 71.0434 138.599 71.0434 137.841C71.0434 136.783 70.3129 136.107 69.1762 136.107H66.9457V141.744H67.8207V139.595ZM72.2895 136.107V141.744H73.1645V139.845H74.4692C75.5746 139.845 76.3559 139.087 76.3559 137.986C76.3559 136.869 75.5981 136.107 74.4965 136.107H72.2895ZM73.1645 136.88H74.266C75.0356 136.88 75.4614 137.271 75.4614 137.986C75.4614 138.685 75.02 139.076 74.266 139.076H73.1645V136.88ZM78.3598 136.876H79.5942C80.27 136.876 80.684 137.247 80.684 137.861C80.684 138.49 80.2934 138.849 79.6176 138.849H78.3598V136.876ZM78.3598 139.595H79.5942L80.7426 141.744H81.7543L80.4887 139.451C81.1762 139.216 81.5825 138.599 81.5825 137.841C81.5825 136.783 80.852 136.107 79.7153 136.107H77.4848V141.744H78.3598V139.595ZM83.7035 141.744V136.107H82.8285V141.744H83.7035ZM84.852 140.228C84.9145 141.236 85.7543 141.88 87.0043 141.88C88.3403 141.88 89.1762 141.204 89.1762 140.126C89.1762 139.279 88.6996 138.81 87.5434 138.54L86.9223 138.388C86.1879 138.216 85.891 137.986 85.891 137.583C85.891 137.076 86.352 136.744 87.0434 136.744C87.6996 136.744 88.1528 137.068 88.2348 137.587H89.0864C89.0356 136.638 88.1996 135.97 87.0551 135.97C85.8246 135.97 85.0043 136.638 85.0043 137.642C85.0043 138.47 85.4692 138.962 86.4887 139.201L87.2153 139.376C87.9614 139.552 88.2895 139.81 88.2895 140.24C88.2895 140.74 87.7739 141.103 87.0707 141.103C86.3168 141.103 85.7934 140.763 85.7192 140.228H84.852ZM93.9067 140.947H91.2035V139.255H93.7621V138.497H91.2035V136.904H93.9067V136.107H90.3285V141.744H93.9067V140.947Z" fill="#56565B"/>
<g filter="url(#filter2_d)">
<rect x="156" y="130" width="63" height="19" rx="9.5" fill="white"/>
</g>
<g filter="url(#filter3_d)">
<rect x="268" y="130" width="64" height="19" rx="9.5" fill="white"/>
</g>
<g filter="url(#filter4_d)">
<rect x="29" y="162.805" width="78.1299" height="23.1948" rx="11.5974" fill="white"/>
</g>
<path d="M46.6665 176.393C46.729 177.401 47.5688 178.046 48.8188 178.046C50.1548 178.046 50.9907 177.37 50.9907 176.292C50.9907 175.444 50.5141 174.975 49.3579 174.706L48.7368 174.554C48.0024 174.382 47.7055 174.151 47.7055 173.749C47.7055 173.241 48.1665 172.909 48.8579 172.909C49.5141 172.909 49.9673 173.233 50.0493 173.753H50.9008C50.8501 172.804 50.0141 172.136 48.8696 172.136C47.6391 172.136 46.8188 172.804 46.8188 173.807C46.8188 174.636 47.2837 175.128 48.3032 175.366L49.0298 175.542C49.7758 175.718 50.104 175.975 50.104 176.405C50.104 176.905 49.5883 177.268 48.8852 177.268C48.1313 177.268 47.6079 176.929 47.5337 176.393H46.6665ZM54.4477 177.909V173.069H56.2173V172.272H51.7993V173.069H53.5727V177.909H54.4477ZM60.2915 177.909H61.2212L59.186 172.272H58.2446L56.2094 177.909H57.1079L57.6274 176.413H59.7758L60.2915 177.909ZM58.6704 173.296H58.7368L59.5532 175.679H57.8501L58.6704 173.296ZM63.0571 177.909V173.905H63.1196L66.0141 177.909H66.8032V172.272H65.9516V176.276H65.8891L62.9946 172.272H62.2055V177.909H63.0571ZM68.2212 172.272V177.909H70.2563C71.936 177.909 72.9087 176.874 72.9087 175.073C72.9087 173.3 71.9282 172.272 70.2563 172.272H68.2212ZM69.0962 173.069H70.1587C71.3266 173.069 72.018 173.811 72.018 175.085C72.018 176.378 71.3383 177.112 70.1587 177.112H69.0962V173.069ZM77.479 177.909H78.4087L76.3735 172.272H75.4321L73.3969 177.909H74.2954L74.8149 176.413H76.9633L77.479 177.909ZM75.8579 173.296H75.9243L76.7407 175.679H75.0376L75.8579 173.296ZM80.268 173.042H81.5024C82.1782 173.042 82.5923 173.413 82.5923 174.026C82.5923 174.655 82.2016 175.015 81.5258 175.015H80.268V173.042ZM80.268 175.761H81.5024L82.6508 177.909H83.6626L82.3969 175.616C83.0844 175.382 83.4907 174.765 83.4907 174.007C83.4907 172.948 82.7602 172.272 81.6235 172.272H79.393V177.909H80.268V175.761ZM84.7368 172.272V177.909H86.7719C88.4516 177.909 89.4243 176.874 89.4243 175.073C89.4243 173.3 88.4438 172.272 86.7719 172.272H84.7368ZM85.6118 173.069H86.6743C87.8423 173.069 88.5337 173.811 88.5337 175.085C88.5337 176.378 87.854 177.112 86.6743 177.112H85.6118V173.069Z" fill="#56565B"/>
<g filter="url(#filter5_d)">
<rect x="156" y="165" width="63" height="21" rx="10.5" fill="white"/>
</g>
<g filter="url(#filter6_d)">
<rect x="268" y="165" width="64" height="21" rx="10.5" fill="white"/>
</g>
<g filter="url(#filter7_d)">
<rect x="30.2207" y="92" width="74.4675" height="21.974" rx="10.987" fill="white"/>
</g>
<path d="M61.6029 103.94V103.237H59.2904V103.971H60.7435V104.092C60.7357 104.928 60.1029 105.491 59.181 105.491C58.1224 105.491 57.4583 104.67 57.4583 103.342C57.4583 102.038 58.1185 101.213 59.1614 101.213C59.931 101.213 60.4661 101.584 60.6849 102.264H61.5638C61.3724 101.124 60.4427 100.397 59.1614 100.397C57.5833 100.397 56.5638 101.553 56.5638 103.35C56.5638 105.17 57.5716 106.307 59.1693 106.307C60.6458 106.307 61.6029 105.381 61.6029 103.94ZM65.2122 100.397C63.595 100.397 62.5794 101.53 62.5794 103.35C62.5794 105.167 63.5716 106.307 65.2122 106.307C66.8411 106.307 67.8411 105.163 67.8411 103.35C67.8411 101.534 66.8333 100.397 65.2122 100.397ZM65.2122 101.213C66.2786 101.213 66.9466 102.042 66.9466 103.35C66.9466 104.651 66.2825 105.491 65.2122 105.491C64.1263 105.491 63.4739 104.651 63.4739 103.35C63.4739 102.042 64.1458 101.213 65.2122 101.213ZM72.5443 105.366H69.9036V100.534H69.0286V106.17H72.5443V105.366ZM73.6536 100.534V106.17H75.6888C77.3685 106.17 78.3411 105.135 78.3411 103.334C78.3411 101.561 77.3607 100.534 75.6888 100.534H73.6536ZM74.5286 101.331H75.5911C76.7591 101.331 77.4505 102.073 77.4505 103.346C77.4505 104.639 76.7708 105.374 75.5911 105.374H74.5286V101.331Z" fill="#56565B"/>
<g filter="url(#filter8_d)">
<rect x="29" y="50" width="74.4675" height="25.974" rx="12.987" fill="#6A7D54"/>
</g>
<path d="M51.9023 62.3633V68H52.7773V66.1016H54.082C55.1875 66.1016 55.9688 65.3438 55.9688 64.2422C55.9688 63.125 55.2109 62.3633 54.1094 62.3633H51.9023ZM52.7773 63.1367H53.8789C54.6484 63.1367 55.0742 63.5273 55.0742 64.2422C55.0742 64.9414 54.6328 65.332 53.8789 65.332H52.7773V63.1367ZM60.6133 67.1953H57.9727V62.3633H57.0977V68H60.6133V67.1953ZM65.3711 68H66.3008L64.2656 62.3633H63.3242L61.2891 68H62.1875L62.707 66.5039H64.8555L65.3711 68ZM63.75 63.3867H63.8164L64.6328 65.7695H62.9297L63.75 63.3867ZM68.1367 68V63.9961H68.1992L71.0938 68H71.8828V62.3633H71.0312V66.3672H70.9688L68.0742 62.3633H67.2852V68H68.1367ZM73.0352 66.4844C73.0977 67.4922 73.9375 68.1367 75.1875 68.1367C76.5234 68.1367 77.3594 67.4609 77.3594 66.3828C77.3594 65.5352 76.8828 65.0664 75.7266 64.7969L75.1055 64.6445C74.3711 64.4727 74.0742 64.2422 74.0742 63.8398C74.0742 63.332 74.5352 63 75.2266 63C75.8828 63 76.3359 63.3242 76.418 63.8438H77.2695C77.2188 62.8945 76.3828 62.2266 75.2383 62.2266C74.0078 62.2266 73.1875 62.8945 73.1875 63.8984C73.1875 64.7266 73.6523 65.2188 74.6719 65.457L75.3984 65.6328C76.1445 65.8086 76.4727 66.0664 76.4727 66.4961C76.4727 66.9961 75.957 67.3594 75.2539 67.3594C74.5 67.3594 73.9766 67.0195 73.9023 66.4844H73.0352Z" fill="white"/>
<g filter="url(#filter9_d)">
<rect x="149" y="50" width="74" height="26" rx="13" fill="#6A7D54"/>
</g>
<g filter="url(#filter10_d)">
<rect x="263" y="50" width="74" height="26" rx="13" fill="#6A7D54"/>
</g>
<path d="M163.285 67.1367C164.543 67.1367 165.469 66.3945 165.625 65.2812H164.754C164.598 65.918 164.031 66.3203 163.285 66.3203C162.27 66.3203 161.637 65.4961 161.637 64.1836C161.637 62.8672 162.27 62.043 163.281 62.043C164.023 62.043 164.59 62.4883 164.754 63.1797H165.625C165.484 62.0312 164.523 61.2266 163.281 61.2266C161.715 61.2266 160.742 62.3555 160.742 64.1836C160.742 66.0078 161.719 67.1367 163.285 67.1367ZM167.645 61.3633H166.77V65.0586C166.77 66.2812 167.641 67.1367 169.051 67.1367C170.469 67.1367 171.336 66.2812 171.336 65.0586V61.3633H170.461V64.9805C170.461 65.7695 169.949 66.3164 169.051 66.3164C168.156 66.3164 167.645 65.7695 167.645 64.9805V61.3633ZM173.621 62.1328H174.855C175.531 62.1328 175.945 62.5039 175.945 63.1172C175.945 63.7461 175.555 64.1055 174.879 64.1055H173.621V62.1328ZM173.621 64.8516H174.855L176.004 67H177.016L175.75 64.707C176.438 64.4727 176.844 63.8555 176.844 63.0977C176.844 62.0391 176.113 61.3633 174.977 61.3633H172.746V67H173.621V64.8516ZM178.965 62.1328H180.199C180.875 62.1328 181.289 62.5039 181.289 63.1172C181.289 63.7461 180.898 64.1055 180.223 64.1055H178.965V62.1328ZM178.965 64.8516H180.199L181.348 67H182.359L181.094 64.707C181.781 64.4727 182.188 63.8555 182.188 63.0977C182.188 62.0391 181.457 61.3633 180.32 61.3633H178.09V67H178.965V64.8516ZM187.012 66.2031H184.309V64.5117H186.867V63.7539H184.309V62.1602H187.012V61.3633H183.434V67H187.012V66.2031ZM189.129 67V62.9961H189.191L192.086 67H192.875V61.3633H192.023V65.3672H191.961L189.066 61.3633H188.277V67H189.129ZM196.605 67.1367C197.863 67.1367 198.789 66.3945 198.945 65.2812H198.074C197.918 65.918 197.352 66.3203 196.605 66.3203C195.59 66.3203 194.957 65.4961 194.957 64.1836C194.957 62.8672 195.59 62.043 196.602 62.043C197.344 62.043 197.91 62.4883 198.074 63.1797H198.945C198.805 62.0312 197.844 61.2266 196.602 61.2266C195.035 61.2266 194.062 62.3555 194.062 64.1836C194.062 66.0078 195.039 67.1367 196.605 67.1367ZM200.973 67V61.3633H200.098V67H200.973ZM205.965 66.2031H203.262V64.5117H205.82V63.7539H203.262V62.1602H205.965V61.3633H202.387V67H205.965V66.2031ZM206.965 65.4844C207.027 66.4922 207.867 67.1367 209.117 67.1367C210.453 67.1367 211.289 66.4609 211.289 65.3828C211.289 64.5352 210.812 64.0664 209.656 63.7969L209.035 63.6445C208.301 63.4727 208.004 63.2422 208.004 62.8398C208.004 62.332 208.465 62 209.156 62C209.812 62 210.266 62.3242 210.348 62.8438H211.199C211.148 61.8945 210.312 61.2266 209.168 61.2266C207.938 61.2266 207.117 61.8945 207.117 62.8984C207.117 63.7266 207.582 64.2188 208.602 64.457L209.328 64.6328C210.074 64.8086 210.402 65.0664 210.402 65.4961C210.402 65.9961 209.887 66.3594 209.184 66.3594C208.43 66.3594 207.906 66.0195 207.832 65.4844H206.965Z" fill="white"/>
<path d="M288.41 61C289.613 61 290.336 60.3945 290.336 59.4023C290.336 58.668 289.828 58.125 289.066 58.0469V57.9805C289.621 57.8867 290.055 57.3594 290.055 56.7695C290.055 55.9023 289.418 55.3633 288.359 55.3633H286.094V61H288.41ZM286.969 56.1055H288.156C288.805 56.1055 289.184 56.4102 289.184 56.9297C289.184 57.4648 288.781 57.75 288.008 57.75H286.969V56.1055ZM286.969 60.2578V58.4414H288.184C289.008 58.4414 289.441 58.75 289.441 59.3398C289.441 59.9375 289.023 60.2578 288.234 60.2578H286.969ZM292.336 61V55.3633H291.461V61H292.336ZM297.266 60.1953H294.625V55.3633H293.75V61H297.266V60.1953ZM301.891 60.1953H299.25V55.3633H298.375V61H301.891V60.1953ZM303.875 61V55.3633H303V61H303.875ZM306.141 61V56.9961H306.203L309.098 61H309.887V55.3633H309.035V59.3672H308.973L306.078 55.3633H305.289V61H306.141ZM316.113 58.7695V58.0664H313.801V58.8008H315.254V58.9219C315.246 59.7578 314.613 60.3203 313.691 60.3203C312.633 60.3203 311.969 59.5 311.969 58.1719C311.969 56.8672 312.629 56.043 313.672 56.043C314.441 56.043 314.977 56.4141 315.195 57.0938H316.074C315.883 55.9531 314.953 55.2266 313.672 55.2266C312.094 55.2266 311.074 56.3828 311.074 58.1797C311.074 60 312.082 61.1367 313.68 61.1367C315.156 61.1367 316.113 60.2109 316.113 58.7695ZM278.102 71V68.6641H280.523V67.8906H278.102V66.1602H280.746V65.3633H277.227V71H278.102ZM282.758 66.1328H283.992C284.668 66.1328 285.082 66.5039 285.082 67.1172C285.082 67.7461 284.691 68.1055 284.016 68.1055H282.758V66.1328ZM282.758 68.8516H283.992L285.141 71H286.152L284.887 68.707C285.574 68.4727 285.98 67.8555 285.98 67.0977C285.98 66.0391 285.25 65.3633 284.113 65.3633H281.883V71H282.758V68.8516ZM290.805 70.2031H288.102V68.5117H290.66V67.7539H288.102V66.1602H290.805V65.3633H287.227V71H290.805V70.2031ZM294.473 71.1367C294.836 71.1367 295.176 71.082 295.477 70.9766L295.949 71.5977H296.848L296.121 70.6016C296.746 70.1289 297.098 69.2734 297.098 68.1836C297.098 66.3594 296.086 65.2266 294.473 65.2266C292.855 65.2266 291.84 66.3594 291.84 68.1836C291.84 70.0156 292.848 71.1367 294.473 71.1367ZM294.477 70.3398C293.398 70.3398 292.727 69.5117 292.727 68.1836C292.727 66.8555 293.402 66.0234 294.473 66.0234C295.539 66.0234 296.215 66.8594 296.215 68.1836C296.215 68.9336 295.996 69.5312 295.609 69.8633L295.148 69.2695H294.242L294.988 70.2734C294.824 70.3203 294.652 70.3398 294.477 70.3398ZM299.148 65.3633H298.273V69.0586C298.273 70.2812 299.145 71.1367 300.555 71.1367C301.973 71.1367 302.84 70.2812 302.84 69.0586V65.3633H301.965V68.9805C301.965 69.7695 301.453 70.3164 300.555 70.3164C299.66 70.3164 299.148 69.7695 299.148 68.9805V65.3633ZM307.828 70.2031H305.125V68.5117H307.684V67.7539H305.125V66.1602H307.828V65.3633H304.25V71H307.828V70.2031ZM309.945 71V66.9961H310.008L312.902 71H313.691V65.3633H312.84V69.3672H312.777L309.883 65.3633H309.094V71H309.945ZM317.422 71.1367C318.68 71.1367 319.605 70.3945 319.762 69.2812H318.891C318.734 69.918 318.168 70.3203 317.422 70.3203C316.406 70.3203 315.773 69.4961 315.773 68.1836C315.773 66.8672 316.406 66.043 317.418 66.043C318.16 66.043 318.727 66.4883 318.891 67.1797H319.762C319.621 66.0312 318.66 65.2266 317.418 65.2266C315.852 65.2266 314.879 66.3555 314.879 68.1836C314.879 70.0078 315.855 71.1367 317.422 71.1367ZM323.211 71V68.7266L325.199 65.3633H324.227L322.809 67.8047H322.742L321.324 65.3633H320.352L322.336 68.7266V71H323.211Z" fill="white"/>
<g filter="url(#filter11_d)">
<rect x="155.961" y="92" width="61.039" height="21.974" rx="10.987" fill="white"/>
</g>
<g filter="url(#filter12_d)">
<rect x="268.273" y="92" width="63.4805" height="21.974" rx="10.987" fill="white"/>
</g>
<path d="M158.769 36V26.1357H156.704V30.1143H152.261V26.1357H150.196V36H152.261V31.8779H156.704V36H158.769ZM167.416 34.2363H162.946V31.8369H167.163V30.2031H162.946V27.8994H167.416V26.1357H160.881V36H167.416V34.2363ZM175.763 34.2021H171.375V26.1357H169.31V36H175.763V34.2021ZM177.356 26.1357V36H179.421V32.9375H181.369C183.447 32.9375 184.889 31.5771 184.889 29.5469C184.889 27.4961 183.502 26.1357 181.472 26.1357H177.356ZM179.421 27.8311H180.925C182.114 27.8311 182.791 28.4326 182.791 29.5537C182.791 30.6611 182.1 31.2627 180.918 31.2627H179.421V27.8311ZM186.51 26.1357V36H190.393C193.346 36 195.021 34.2021 195.021 30.9961C195.021 27.9062 193.325 26.1357 190.393 26.1357H186.51ZM188.574 27.8994H190.065C191.856 27.8994 192.915 29.0342 192.915 31.0303C192.915 33.1152 191.89 34.2363 190.065 34.2363H188.574V27.8994ZM203.238 34.2363H198.767V31.8369H202.985V30.2031H198.767V27.8994H203.238V26.1357H196.703V36H203.238V34.2363ZM204.687 33.2588C204.762 35.0977 206.287 36.2529 208.638 36.2529C211.113 36.2529 212.637 35.0361 212.637 33.0469C212.637 31.5156 211.783 30.6611 209.8 30.2441L208.611 29.9912C207.456 29.7451 206.984 29.3965 206.984 28.7881C206.984 28.0361 207.668 27.5576 208.7 27.5576C209.698 27.5576 210.423 28.0771 210.518 28.8564H212.46C212.398 27.0996 210.86 25.8828 208.686 25.8828C206.41 25.8828 204.913 27.1064 204.913 28.9658C204.913 30.4697 205.795 31.4062 207.592 31.7822L208.878 32.0557C210.088 32.3154 210.58 32.6777 210.58 33.3066C210.58 34.0518 209.821 34.5713 208.748 34.5713C207.586 34.5713 206.779 34.0586 206.683 33.2588H204.687ZM216.377 36V33.0264L217.354 31.8711L220.219 36H222.693L218.845 30.4629L222.44 26.1357H220.144L216.5 30.5312H216.377V26.1357H214.312V36H216.377Z" fill="#666677"/>
<path d="M184.392 101.246H183.517V104.942C183.517 106.164 184.388 107.02 185.799 107.02C187.217 107.02 188.084 106.164 188.084 104.942V101.246H187.209V104.864C187.209 105.653 186.697 106.2 185.799 106.2C184.904 106.2 184.392 105.653 184.392 104.864V101.246ZM189.228 105.367C189.291 106.375 190.131 107.02 191.381 107.02C192.717 107.02 193.552 106.344 193.552 105.266C193.552 104.418 193.076 103.95 191.92 103.68L191.299 103.528C190.564 103.356 190.267 103.125 190.267 102.723C190.267 102.215 190.728 101.883 191.42 101.883C192.076 101.883 192.529 102.207 192.611 102.727H193.463C193.412 101.778 192.576 101.11 191.431 101.11C190.201 101.11 189.381 101.778 189.381 102.782C189.381 103.61 189.845 104.102 190.865 104.34L191.592 104.516C192.338 104.692 192.666 104.95 192.666 105.379C192.666 105.879 192.15 106.242 191.447 106.242C190.693 106.242 190.17 105.903 190.095 105.367H189.228ZM194.705 101.246V106.883H196.74C198.42 106.883 199.392 105.848 199.392 104.047C199.392 102.274 198.412 101.246 196.74 101.246H194.705ZM195.58 102.043H196.642C197.81 102.043 198.502 102.785 198.502 104.059C198.502 105.352 197.822 106.086 196.642 106.086H195.58V102.043Z" fill="#56565B"/>
<path d="M175.096 103.986C175.909 104.179 176.151 104.434 176.151 104.878C176.151 105.331 175.839 105.669 175.096 105.731V103.986ZM174.573 102.923C173.875 102.747 173.62 102.466 173.62 102.074C173.62 101.683 173.949 101.336 174.573 101.261V102.923ZM175.096 103.046V101.261C175.654 101.332 176.041 101.639 176.098 102.18H177.008C176.977 101.178 176.186 100.514 175.096 100.422V99.6838H174.573V100.422C173.47 100.514 172.688 101.165 172.688 102.154C172.688 103.059 173.29 103.56 174.406 103.823L174.573 103.863V105.726C173.875 105.652 173.545 105.287 173.466 104.786H172.552C172.583 105.841 173.461 106.473 174.573 106.561V107.295H175.096V106.561C176.208 106.478 177.078 105.858 177.078 104.781C177.078 103.837 176.45 103.362 175.294 103.09L175.096 103.046Z" fill="#56565B"/>
<path d="M290.375 100.246V105.883H292.41C294.09 105.883 295.062 104.848 295.062 103.047C295.062 101.274 294.082 100.246 292.41 100.246H290.375ZM291.25 101.043H292.312C293.48 101.043 294.172 101.785 294.172 103.059C294.172 104.352 293.492 105.086 292.312 105.086H291.25V101.043ZM299.633 105.883H300.562L298.527 100.246H297.586L295.551 105.883H296.449L296.969 104.387H299.117L299.633 105.883ZM298.012 101.27H298.078L298.894 103.653H297.191L298.012 101.27ZM302.422 105.883V100.246H301.547V105.883H302.422ZM307.351 105.078H304.711V100.246H303.836V105.883H307.351V105.078ZM310.141 105.883V103.61L312.129 100.246H311.156L309.738 102.688H309.672L308.254 100.246H307.281L309.266 103.61V105.883H310.141Z" fill="#56565B"/>
<path d="M287.908 142.506V136.87H286.884L285.087 141.182H285.021L283.228 136.87H282.205V142.506H283.017V138.436H283.072L284.724 142.374H285.388L287.041 138.436H287.095V142.506H287.908ZM291.724 136.733C290.107 136.733 289.091 137.866 289.091 139.686C289.091 141.503 290.084 142.643 291.724 142.643C293.353 142.643 294.353 141.499 294.353 139.686C294.353 137.87 293.345 136.733 291.724 136.733ZM291.724 137.549C292.791 137.549 293.459 138.378 293.459 139.686C293.459 140.987 292.794 141.827 291.724 141.827C290.638 141.827 289.986 140.987 289.986 139.686C289.986 138.378 290.658 137.549 291.724 137.549ZM296.392 142.506V138.503H296.455L299.349 142.506H300.138V136.87H299.287V140.874H299.224L296.33 136.87H295.541V142.506H296.392ZM303.861 142.506V137.667H305.63V136.87H301.212V137.667H302.986V142.506H303.861ZM311.345 142.506V136.87H310.474V139.237H307.58V136.87H306.705V142.506H307.58V140.034H310.474V142.506H311.345ZM316.275 141.702H313.634V136.87H312.759V142.506H316.275V141.702ZM319.064 142.506V140.233L321.052 136.87H320.08L318.662 139.311H318.595L317.177 136.87H316.205L318.189 140.233V142.506H319.064Z" fill="#56565B"/>
<path d="M288.84 178.13V175.856L290.828 172.493H289.856L288.438 174.934H288.371L286.953 172.493H285.981L287.965 175.856V178.13H288.84ZM295.395 177.333H292.692V175.641H295.25V174.884H292.692V173.29H295.395V172.493H291.817V178.13H295.395V177.333ZM300.309 178.13H301.238L299.203 172.493H298.262L296.227 178.13H297.125L297.645 176.634H299.793L300.309 178.13ZM298.688 173.516H298.754L299.571 175.899H297.867L298.688 173.516ZM303.098 173.263H304.332C305.008 173.263 305.422 173.634 305.422 174.247C305.422 174.876 305.031 175.235 304.356 175.235H303.098V173.263ZM303.098 175.981H304.332L305.481 178.13H306.492L305.227 175.837C305.914 175.602 306.321 174.985 306.321 174.227C306.321 173.169 305.59 172.493 304.453 172.493H302.223V178.13H303.098V175.981ZM311.082 177.325H308.442V172.493H307.567V178.13H311.082V177.325ZM313.871 178.13V175.856L315.86 172.493H314.887L313.469 174.934H313.403L311.985 172.493H311.012L312.996 175.856V178.13H313.871Z" fill="#56565B"/>
<path d="M173.822 141.394V141.337C174.296 141.077 174.67 140.572 174.67 139.917C174.67 139.741 174.644 139.574 174.604 139.407H176.441V138.761H174.402C174.279 138.419 174.165 138.08 174.165 137.729C174.165 137.078 174.692 136.678 175.606 136.678C176.107 136.678 176.625 136.779 176.854 136.902V136.05C176.577 135.918 176.059 135.817 175.509 135.817C174.05 135.817 173.18 136.529 173.18 137.663C173.18 138.036 173.303 138.401 173.431 138.761H172.42V139.407H173.642C173.69 139.588 173.721 139.772 173.721 139.957C173.721 140.664 173.185 141.275 172.433 141.433V142.255H177.162V141.394H173.822Z" fill="#56565B"/>
<path d="M188.334 140.276V139.573H186.021V140.307H187.474V140.428C187.467 141.264 186.834 141.827 185.912 141.827C184.853 141.827 184.189 141.007 184.189 139.678C184.189 138.374 184.849 137.549 185.892 137.549C186.662 137.549 187.197 137.921 187.416 138.6H188.295C188.103 137.46 187.174 136.733 185.892 136.733C184.314 136.733 183.295 137.889 183.295 139.686C183.295 141.507 184.302 142.643 185.9 142.643C187.377 142.643 188.334 141.717 188.334 140.276ZM191.857 142.507C193.06 142.507 193.783 141.901 193.783 140.909C193.783 140.174 193.275 139.632 192.513 139.553V139.487C193.068 139.393 193.502 138.866 193.502 138.276C193.502 137.409 192.865 136.87 191.806 136.87H189.541V142.507H191.857ZM190.416 137.612H191.603C192.252 137.612 192.631 137.917 192.631 138.436C192.631 138.971 192.228 139.257 191.455 139.257H190.416V137.612ZM190.416 141.764V139.948H191.631C192.455 139.948 192.888 140.257 192.888 140.846C192.888 141.444 192.47 141.764 191.681 141.764H190.416ZM194.908 136.87V142.507H195.783V140.608H197.088C198.193 140.608 198.974 139.85 198.974 138.749C198.974 137.632 198.217 136.87 197.115 136.87H194.908ZM195.783 137.643H196.885C197.654 137.643 198.08 138.034 198.08 138.749C198.08 139.448 197.638 139.839 196.885 139.839H195.783V137.643Z" fill="#56565B"/>
<path d="M176.365 175.62V175.105H173.887C173.878 174.987 173.869 174.868 173.869 174.741C173.869 174.613 173.878 174.495 173.887 174.376H176.365V173.857H173.997C174.291 172.939 175.073 172.46 176.058 172.46C176.361 172.46 176.721 172.495 176.91 172.539V171.66C176.73 171.603 176.348 171.559 176.049 171.559C174.542 171.559 173.315 172.35 172.973 173.857H172.067V174.376H172.894C172.885 174.495 172.88 174.618 172.88 174.741C172.88 174.864 172.885 174.987 172.894 175.105H172.067V175.62H172.973C173.311 177.122 174.537 177.918 176.049 177.918C176.361 177.918 176.726 177.883 176.915 177.83V176.947C176.739 176.999 176.37 177.021 176.053 177.021C175.064 177.021 174.287 176.542 173.997 175.62H176.365Z" fill="#56565B"/>
<path d="M188.103 177.333H185.4V175.642H187.959V174.884H185.4V173.29H188.103V172.493H184.525V178.13H188.103V177.333ZM190.236 172.493H189.361V176.188C189.361 177.411 190.232 178.267 191.642 178.267C193.06 178.267 193.927 177.411 193.927 176.188V172.493H193.052V176.11C193.052 176.899 192.541 177.446 191.642 177.446C190.748 177.446 190.236 176.899 190.236 176.11V172.493ZM196.213 173.263H197.447C198.123 173.263 198.537 173.634 198.537 174.247C198.537 174.876 198.146 175.235 197.47 175.235H196.213V173.263ZM196.213 175.981H197.447L198.595 178.13H199.607L198.342 175.837C199.029 175.602 199.435 174.985 199.435 174.227C199.435 173.169 198.705 172.493 197.568 172.493H195.338V178.13H196.213V175.981Z" fill="#56565B"/>
<line x1="104.892" y1="104.063" x2="156.165" y2="176.089" stroke="#6A7D54" stroke-width="0.5"/>
<line x1="104.83" y1="104.002" x2="156.103" y2="139.405" stroke="#6A7D54" stroke-width="0.5"/>
<line x1="106.983" y1="139.408" x2="155.814" y2="104.005" stroke="#6A7D54" stroke-width="0.5"/>
<line x1="106.923" y1="176.093" x2="155.754" y2="104.067" stroke="#6A7D54" stroke-width="0.5"/>
<line x1="106.98" y1="176.034" x2="155.811" y2="139.41" stroke="#6A7D54" stroke-width="0.5"/>
<line x1="107.28" y1="139.41" x2="156.111" y2="176.034" stroke="#6A7D54" stroke-width="0.5"/>
<line x1="107.13" y1="175.984" x2="155.961" y2="175.984" stroke="#6A7D54" stroke-width="0.5"/>
<line x1="104.688" y1="103.958" x2="155.961" y2="103.958" stroke="#6A7D54" stroke-width="0.5"/>
<line x1="107.13" y1="139.36" x2="155.961" y2="139.36" stroke="#6A7D54" stroke-width="0.5"/>
<line x1="217.204" y1="104.063" x2="268.476" y2="176.089" stroke="#6A7D54" stroke-width="0.5"/>
<line x1="217.142" y1="104.002" x2="268.415" y2="139.405" stroke="#6A7D54" stroke-width="0.5"/>
<line x1="219.295" y1="139.408" x2="268.126" y2="104.005" stroke="#6A7D54" stroke-width="0.5"/>
<line x1="219.235" y1="176.093" x2="268.066" y2="104.067" stroke="#6A7D54" stroke-width="0.5"/>
<line x1="219.292" y1="176.034" x2="268.123" y2="139.41" stroke="#6A7D54" stroke-width="0.5"/>
<line x1="219.592" y1="139.41" x2="268.423" y2="176.034" stroke="#6A7D54" stroke-width="0.5"/>
<line x1="219.442" y1="175.984" x2="268.273" y2="175.984" stroke="#6A7D54" stroke-width="0.5"/>
<line x1="217" y1="103.958" x2="268.273" y2="103.958" stroke="#6A7D54" stroke-width="0.5"/>
<line x1="219.442" y1="139.36" x2="268.273" y2="139.36" stroke="#6A7D54" stroke-width="0.5"/>
<g filter="url(#filter13_d)">
<rect x="129" y="206" width="118" height="17" rx="8.5" fill="#F9F8F8"/>
</g>
<g filter="url(#filter14_d)">
<rect x="137" y="227" width="112" height="17" rx="8.5" fill="#F9F8F8"/>
</g>
<g filter="url(#filter15_d)">
<rect x="257" y="227" width="98" height="17" rx="8.5" fill="#F9F8F8"/>
</g>
<g filter="url(#filter16_d)">
<rect x="257" y="206" width="99" height="17" rx="8.5" fill="#F9F8F8"/>
</g>
<g filter="url(#filter17_d)">
<rect x="30" y="206" width="88" height="17" rx="8.5" fill="#F9F8F8"/>
</g>
<g filter="url(#filter18_d)">
<rect x="29" y="227" width="100" height="17" rx="8.5" fill="#F9F8F8"/>
</g>
<path d="M141.75 216.303H139.384V214.823H141.623V214.16H139.384V212.765H141.75V212.068H138.619V217H141.75V216.303ZM143.602 217V213.497H143.657L146.189 217H146.88V212.068H146.135V215.571H146.08L143.547 212.068H142.857V217H143.602ZM150.137 217V212.765H151.686V212.068H147.82V212.765H149.372V217H150.137ZM155.756 216.303H153.391V214.823H155.63V214.16H153.391V212.765H155.756V212.068H152.625V217H155.756V216.303ZM157.629 212.741H158.709C159.301 212.741 159.663 213.066 159.663 213.603C159.663 214.153 159.321 214.467 158.73 214.467H157.629V212.741ZM157.629 215.12H158.709L159.714 217H160.6L159.492 214.994C160.094 214.789 160.449 214.249 160.449 213.585C160.449 212.659 159.81 212.068 158.815 212.068H156.864V217H157.629V215.12ZM161.54 212.068V217H162.305V215.339H163.447C164.414 215.339 165.098 214.676 165.098 213.712C165.098 212.734 164.435 212.068 163.471 212.068H161.54ZM162.305 212.745H163.269C163.942 212.745 164.315 213.086 164.315 213.712C164.315 214.324 163.929 214.666 163.269 214.666H162.305V212.745ZM166.851 212.741H167.931C168.522 212.741 168.885 213.066 168.885 213.603C168.885 214.153 168.543 214.467 167.952 214.467H166.851V212.741ZM166.851 215.12H167.931L168.936 217H169.821L168.714 214.994C169.315 214.789 169.671 214.249 169.671 213.585C169.671 212.659 169.032 212.068 168.037 212.068H166.085V217H166.851V215.12ZM171.527 217V212.068H170.761V217H171.527ZM172.532 215.674C172.586 216.556 173.321 217.12 174.415 217.12C175.584 217.12 176.315 216.528 176.315 215.585C176.315 214.843 175.898 214.433 174.887 214.197L174.343 214.064C173.701 213.914 173.441 213.712 173.441 213.36C173.441 212.916 173.844 212.625 174.449 212.625C175.023 212.625 175.42 212.909 175.492 213.363H176.237C176.192 212.533 175.461 211.948 174.459 211.948C173.383 211.948 172.665 212.533 172.665 213.411C172.665 214.136 173.072 214.566 173.964 214.775L174.6 214.929C175.252 215.083 175.54 215.308 175.54 215.684C175.54 216.122 175.088 216.439 174.473 216.439C173.813 216.439 173.355 216.142 173.291 215.674H172.532ZM180.455 216.303H178.089V214.823H180.328V214.16H178.089V212.765H180.455V212.068H177.324V217H180.455V216.303ZM185.646 215.373V214.652H183.404V215.373H185.646ZM192.934 215.048V214.433H190.91V215.076H192.182V215.182C192.175 215.913 191.621 216.405 190.814 216.405C189.888 216.405 189.307 215.688 189.307 214.525C189.307 213.384 189.885 212.663 190.797 212.663C191.471 212.663 191.939 212.987 192.13 213.582H192.899C192.732 212.584 191.918 211.948 190.797 211.948C189.417 211.948 188.524 212.96 188.524 214.532C188.524 216.125 189.406 217.12 190.804 217.12C192.096 217.12 192.934 216.31 192.934 215.048ZM196.017 217C197.069 217 197.702 216.47 197.702 215.602C197.702 214.959 197.257 214.484 196.591 214.416V214.358C197.076 214.276 197.456 213.814 197.456 213.298C197.456 212.54 196.898 212.068 195.972 212.068H193.99V217H196.017ZM194.755 212.717H195.794C196.362 212.717 196.693 212.984 196.693 213.438C196.693 213.907 196.341 214.156 195.665 214.156H194.755V212.717ZM194.755 216.351V214.761H195.818C196.54 214.761 196.919 215.031 196.919 215.547C196.919 216.07 196.553 216.351 195.863 216.351H194.755ZM198.686 212.068V217H199.452V215.339H200.593C201.561 215.339 202.244 214.676 202.244 213.712C202.244 212.734 201.581 212.068 200.617 212.068H198.686ZM199.452 212.745H200.416C201.089 212.745 201.461 213.086 201.461 213.712C201.461 214.324 201.075 214.666 200.416 214.666H199.452V212.745ZM207.316 215.373V214.652H205.074V215.373H207.316ZM212.522 217V215.011L214.262 212.068H213.411L212.17 214.204H212.112L210.871 212.068H210.02L211.756 215.011V217H212.522ZM218.257 216.303H215.892V214.823H218.131V214.16H215.892V212.765H218.257V212.068H215.126V217H218.257V216.303ZM222.557 217H223.371L221.59 212.068H220.766L218.985 217H219.771L220.226 215.691H222.106L222.557 217ZM221.139 212.963H221.197L221.911 215.048H220.421L221.139 212.963ZM224.998 212.741H226.078C226.669 212.741 227.031 213.066 227.031 213.603C227.031 214.153 226.689 214.467 226.098 214.467H224.998V212.741ZM224.998 215.12H226.078L227.083 217H227.968L226.86 214.994C227.462 214.789 227.817 214.249 227.817 213.585C227.817 212.659 227.178 212.068 226.184 212.068H224.232V217H224.998V215.12ZM231.984 216.296H229.673V212.068H228.908V217H231.984V216.296ZM234.424 217V215.011L236.164 212.068H235.313L234.072 214.204H234.014L232.773 212.068H231.922L233.659 215.011V217H234.424Z" fill="#666677"/>
<path d="M149.75 237.303H147.384V235.823H149.623V235.16H147.384V233.765H149.75V233.068H146.619V238H149.75V237.303ZM151.602 238V234.497H151.657L154.189 238H154.88V233.068H154.135V236.571H154.08L151.547 233.068H150.857V238H151.602ZM158.137 238V233.765H159.686V233.068H155.82V233.765H157.372V238H158.137ZM163.756 237.303H161.391V235.823H163.63V235.16H161.391V233.765H163.756V233.068H160.625V238H163.756V237.303ZM165.629 233.741H166.709C167.301 233.741 167.663 234.066 167.663 234.603C167.663 235.153 167.321 235.467 166.73 235.467H165.629V233.741ZM165.629 236.12H166.709L167.714 238H168.6L167.492 235.994C168.094 235.789 168.449 235.249 168.449 234.585C168.449 233.659 167.81 233.068 166.815 233.068H164.864V238H165.629V236.12ZM169.54 233.068V238H170.305V236.339H171.447C172.414 236.339 173.098 235.676 173.098 234.712C173.098 233.734 172.435 233.068 171.471 233.068H169.54ZM170.305 233.745H171.269C171.942 233.745 172.315 234.086 172.315 234.712C172.315 235.324 171.929 235.666 171.269 235.666H170.305V233.745ZM174.851 233.741H175.931C176.522 233.741 176.885 234.066 176.885 234.603C176.885 235.153 176.543 235.467 175.952 235.467H174.851V233.741ZM174.851 236.12H175.931L176.936 238H177.821L176.714 235.994C177.315 235.789 177.671 235.249 177.671 234.585C177.671 233.659 177.032 233.068 176.037 233.068H174.085V238H174.851V236.12ZM179.527 238V233.068H178.761V238H179.527ZM180.532 236.674C180.586 237.556 181.321 238.12 182.415 238.12C183.584 238.12 184.315 237.528 184.315 236.585C184.315 235.843 183.898 235.433 182.887 235.197L182.343 235.064C181.701 234.914 181.441 234.712 181.441 234.36C181.441 233.916 181.844 233.625 182.449 233.625C183.023 233.625 183.42 233.909 183.492 234.363H184.237C184.192 233.533 183.461 232.948 182.459 232.948C181.383 232.948 180.665 233.533 180.665 234.411C180.665 235.136 181.072 235.566 181.964 235.775L182.6 235.929C183.252 236.083 183.54 236.308 183.54 236.684C183.54 237.122 183.088 237.439 182.473 237.439C181.813 237.439 181.355 237.142 181.291 236.674H180.532ZM188.455 237.303H186.089V235.823H188.328V235.16H186.089V233.765H188.455V233.068H185.324V238H188.455V237.303ZM193.646 236.373V235.652H191.404V236.373H193.646ZM197.485 233.068H196.719V236.301C196.719 237.371 197.481 238.12 198.715 238.12C199.956 238.12 200.715 237.371 200.715 236.301V233.068H199.949V236.233C199.949 236.923 199.501 237.402 198.715 237.402C197.933 237.402 197.485 236.923 197.485 236.233V233.068ZM201.716 236.674C201.771 237.556 202.506 238.12 203.6 238.12C204.769 238.12 205.5 237.528 205.5 236.585C205.5 235.843 205.083 235.433 204.071 235.197L203.528 235.064C202.885 234.914 202.625 234.712 202.625 234.36C202.625 233.916 203.029 233.625 203.634 233.625C204.208 233.625 204.604 233.909 204.676 234.363H205.421C205.377 233.533 204.646 232.948 203.644 232.948C202.567 232.948 201.85 233.533 201.85 234.411C201.85 235.136 202.256 235.566 203.148 235.775L203.784 235.929C204.437 236.083 204.724 236.308 204.724 236.684C204.724 237.122 204.273 237.439 203.658 237.439C202.998 237.439 202.54 237.142 202.475 236.674H201.716ZM206.508 233.068V238H208.289C209.759 238 210.61 237.094 210.61 235.519C210.61 233.967 209.752 233.068 208.289 233.068H206.508ZM207.274 233.765H208.204C209.226 233.765 209.831 234.415 209.831 235.529C209.831 236.66 209.236 237.303 208.204 237.303H207.274V233.765ZM215.733 236.373V235.652H213.491V236.373H215.733ZM218.813 233.068V238H220.594C222.063 238 222.915 237.094 222.915 235.519C222.915 233.967 222.057 233.068 220.594 233.068H218.813ZM219.579 233.765H220.508C221.53 233.765 222.135 234.415 222.135 235.529C222.135 236.66 221.541 237.303 220.508 237.303H219.579V233.765ZM226.914 238H227.727L225.946 233.068H225.123L223.342 238H224.128L224.583 236.691H226.462L226.914 238ZM225.495 233.963H225.553L226.268 236.048H224.777L225.495 233.963ZM229.354 238V233.068H228.588V238H229.354ZM233.667 237.296H231.357V233.068H230.591V238H233.667V237.296ZM236.108 238V236.011L237.848 233.068H236.997L235.756 235.204H235.698L234.457 233.068H233.606L235.342 236.011V238H236.108Z" fill="#666677"/>
<path d="M271.75 237.303H269.384V235.823H271.623V235.16H269.384V233.765H271.75V233.068H268.619V238H271.75V237.303ZM273.602 238V234.497H273.657L276.189 238H276.88V233.068H276.135V236.571H276.08L273.547 233.068H272.857V238H273.602ZM280.137 238V233.765H281.686V233.068H277.82V233.765H279.372V238H280.137ZM285.756 237.303H283.391V235.823H285.63V235.16H283.391V233.765H285.756V233.068H282.625V238H285.756V237.303ZM287.629 233.741H288.709C289.301 233.741 289.663 234.066 289.663 234.603C289.663 235.153 289.321 235.467 288.73 235.467H287.629V233.741ZM287.629 236.12H288.709L289.714 238H290.6L289.492 235.994C290.094 235.789 290.449 235.249 290.449 234.585C290.449 233.659 289.81 233.068 288.815 233.068H286.864V238H287.629V236.12ZM291.54 233.068V238H292.305V236.339H293.447C294.414 236.339 295.098 235.676 295.098 234.712C295.098 233.734 294.435 233.068 293.471 233.068H291.54ZM292.305 233.745H293.269C293.942 233.745 294.315 234.086 294.315 234.712C294.315 235.324 293.929 235.666 293.269 235.666H292.305V233.745ZM296.851 233.741H297.931C298.522 233.741 298.885 234.066 298.885 234.603C298.885 235.153 298.543 235.467 297.952 235.467H296.851V233.741ZM296.851 236.12H297.931L298.936 238H299.821L298.714 235.994C299.315 235.789 299.671 235.249 299.671 234.585C299.671 233.659 299.032 233.068 298.037 233.068H296.085V238H296.851V236.12ZM301.527 238V233.068H300.761V238H301.527ZM302.532 236.674C302.586 237.556 303.321 238.12 304.415 238.12C305.584 238.12 306.315 237.528 306.315 236.585C306.315 235.843 305.898 235.433 304.887 235.197L304.343 235.064C303.701 234.914 303.441 234.712 303.441 234.36C303.441 233.916 303.844 233.625 304.449 233.625C305.023 233.625 305.42 233.909 305.492 234.363H306.237C306.192 233.533 305.461 232.948 304.459 232.948C303.383 232.948 302.665 233.533 302.665 234.411C302.665 235.136 303.072 235.566 303.964 235.775L304.6 235.929C305.252 236.083 305.54 236.308 305.54 236.684C305.54 237.122 305.088 237.439 304.473 237.439C303.813 237.439 303.355 237.142 303.291 236.674H302.532ZM310.455 237.303H308.089V235.823H310.328V235.16H308.089V233.765H310.455V233.068H307.324V238H310.455V237.303ZM315.646 236.373V235.652H313.404V236.373H315.646ZM319.485 233.068H318.719V236.301C318.719 237.371 319.481 238.12 320.715 238.12C321.956 238.12 322.715 237.371 322.715 236.301V233.068H321.949V236.233C321.949 236.923 321.501 237.402 320.715 237.402C319.933 237.402 319.485 236.923 319.485 236.233V233.068ZM323.716 236.674C323.771 237.556 324.506 238.12 325.6 238.12C326.769 238.12 327.5 237.528 327.5 236.585C327.5 235.843 327.083 235.433 326.071 235.197L325.528 235.064C324.885 234.914 324.625 234.712 324.625 234.36C324.625 233.916 325.029 233.625 325.634 233.625C326.208 233.625 326.604 233.909 326.676 234.363H327.421C327.377 233.533 326.646 232.948 325.644 232.948C324.567 232.948 323.85 233.533 323.85 234.411C323.85 235.136 324.256 235.566 325.148 235.775L325.784 235.929C326.437 236.083 326.724 236.308 326.724 236.684C326.724 237.122 326.273 237.439 325.658 237.439C324.998 237.439 324.54 237.142 324.475 236.674H323.716ZM328.508 233.068V238H330.289C331.759 238 332.61 237.094 332.61 235.519C332.61 233.967 331.752 233.068 330.289 233.068H328.508ZM329.274 233.765H330.204C331.226 233.765 331.831 234.415 331.831 235.529C331.831 236.66 331.236 237.303 330.204 237.303H329.274V233.765ZM337.733 236.373V235.652H335.491V236.373H337.733ZM340.813 233.068V238H342.594C344.063 238 344.915 237.094 344.915 235.519C344.915 233.967 344.057 233.068 342.594 233.068H340.813ZM341.579 233.765H342.508C343.53 233.765 344.135 234.415 344.135 235.529C344.135 236.66 343.541 237.303 342.508 237.303H341.579V233.765ZM348.914 238H349.727L347.946 233.068H347.123L345.342 238H346.128L346.583 236.691H348.462L348.914 238ZM347.495 233.963H347.553L348.268 236.048H346.777L347.495 233.963ZM351.354 238V233.068H350.588V238H351.354ZM355.667 237.296H353.357V233.068H352.591V238H355.667V237.296Z" fill="#666677"/>
<path d="M268.386 215.674C268.441 216.556 269.176 217.12 270.27 217.12C271.438 217.12 272.17 216.528 272.17 215.585C272.17 214.843 271.753 214.433 270.741 214.197L270.198 214.064C269.555 213.914 269.295 213.712 269.295 213.36C269.295 212.916 269.699 212.625 270.304 212.625C270.878 212.625 271.274 212.909 271.346 213.363H272.091C272.047 212.533 271.315 211.948 270.314 211.948C269.237 211.948 268.52 212.533 268.52 213.411C268.52 214.136 268.926 214.566 269.818 214.775L270.454 214.929C271.107 215.083 271.394 215.308 271.394 215.684C271.394 216.122 270.943 216.439 270.328 216.439C269.668 216.439 269.21 216.142 269.145 215.674H268.386ZM275.195 217V212.765H276.743V212.068H272.877V212.765H274.429V217H275.195ZM280.308 217H281.122L279.341 212.068H278.517L276.736 217H277.522L277.977 215.691H279.857L280.308 217ZM278.89 212.963H278.948L279.662 215.048H278.172L278.89 212.963ZM282.728 217V213.497H282.783L285.315 217H286.006V212.068H285.261V215.571H285.206L282.673 212.068H281.983V217H282.728ZM287.247 212.068V217H289.027C290.497 217 291.348 216.094 291.348 214.519C291.348 212.967 290.49 212.068 289.027 212.068H287.247ZM288.012 212.765H288.942C289.964 212.765 290.569 213.415 290.569 214.529C290.569 215.66 289.974 216.303 288.942 216.303H288.012V212.765ZM295.347 217H296.161L294.38 212.068H293.556L291.775 217H292.562L293.016 215.691H294.896L295.347 217ZM293.929 212.963H293.987L294.701 215.048H293.211L293.929 212.963ZM297.788 212.741H298.868C299.459 212.741 299.821 213.066 299.821 213.603C299.821 214.153 299.479 214.467 298.888 214.467H297.788V212.741ZM297.788 215.12H298.868L299.873 217H300.758L299.65 214.994C300.252 214.789 300.607 214.249 300.607 213.585C300.607 212.659 299.968 212.068 298.974 212.068H297.022V217H297.788V215.12ZM301.698 212.068V217H303.479C304.948 217 305.799 216.094 305.799 214.519C305.799 212.967 304.941 212.068 303.479 212.068H301.698ZM302.463 212.765H303.393C304.415 212.765 305.02 213.415 305.02 214.529C305.02 215.66 304.425 216.303 303.393 216.303H302.463V212.765ZM310.923 215.373V214.652H308.681V215.373H310.923ZM314.761 212.068H313.996V215.301C313.996 216.371 314.758 217.12 315.992 217.12C317.232 217.12 317.991 216.371 317.991 215.301V212.068H317.226V215.233C317.226 215.923 316.778 216.402 315.992 216.402C315.209 216.402 314.761 215.923 314.761 215.233V212.068ZM318.993 215.674C319.047 216.556 319.782 217.12 320.876 217.12C322.045 217.12 322.776 216.528 322.776 215.585C322.776 214.843 322.359 214.433 321.348 214.197L320.804 214.064C320.162 213.914 319.902 213.712 319.902 213.36C319.902 212.916 320.305 212.625 320.91 212.625C321.484 212.625 321.881 212.909 321.953 213.363H322.698C322.653 212.533 321.922 211.948 320.92 211.948C319.844 211.948 319.126 212.533 319.126 213.411C319.126 214.136 319.533 214.566 320.425 214.775L321.061 214.929C321.713 215.083 322 215.308 322 215.684C322 216.122 321.549 216.439 320.934 216.439C320.274 216.439 319.816 216.142 319.751 215.674H318.993ZM323.785 212.068V217H325.565C327.035 217 327.886 216.094 327.886 214.519C327.886 212.967 327.028 212.068 325.565 212.068H323.785ZM324.55 212.765H325.48C326.502 212.765 327.107 213.415 327.107 214.529C327.107 215.66 326.512 216.303 325.48 216.303H324.55V212.765ZM333.01 215.373V214.652H330.768V215.373H333.01ZM341.08 217V212.068H340.184L338.612 215.841H338.554L336.985 212.068H336.089V217H336.8V213.438H336.848L338.294 216.884H338.875L340.321 213.438H340.369V217H341.08ZM344.419 211.948C343.004 211.948 342.115 212.939 342.115 214.532C342.115 216.122 342.983 217.12 344.419 217.12C345.844 217.12 346.719 216.118 346.719 214.532C346.719 212.943 345.837 211.948 344.419 211.948ZM344.419 212.663C345.352 212.663 345.937 213.387 345.937 214.532C345.937 215.67 345.355 216.405 344.419 216.405C343.469 216.405 342.898 215.67 342.898 214.532C342.898 213.387 343.486 212.663 344.419 212.663ZM348.503 217V213.497H348.558L351.091 217H351.781V212.068H351.036V215.571H350.981L348.449 212.068H347.758V217H348.503ZM355.039 217V212.765H356.587V212.068H352.721V212.765H354.273V217H355.039Z" fill="#666677"/>
<path d="M43.8262 215.048V214.433H41.8027V215.076H43.0742V215.182C43.0674 215.913 42.5137 216.405 41.707 216.405C40.7808 216.405 40.1997 215.688 40.1997 214.525C40.1997 213.384 40.7773 212.663 41.6899 212.663C42.3633 212.663 42.8315 212.987 43.0229 213.582H43.792C43.6245 212.584 42.811 211.948 41.6899 211.948C40.3091 211.948 39.417 212.96 39.417 214.532C39.417 216.125 40.2988 217.12 41.6968 217.12C42.9888 217.12 43.8262 216.31 43.8262 215.048ZM46.9844 211.948C45.5693 211.948 44.6807 212.939 44.6807 214.532C44.6807 216.122 45.5488 217.12 46.9844 217.12C48.4097 217.12 49.2847 216.118 49.2847 214.532C49.2847 212.943 48.4028 211.948 46.9844 211.948ZM46.9844 212.663C47.9175 212.663 48.502 213.387 48.502 214.532C48.502 215.67 47.9209 216.405 46.9844 216.405C46.0342 216.405 45.4634 215.67 45.4634 214.532C45.4634 213.387 46.0513 212.663 46.9844 212.663ZM53.3999 216.296H51.0894V212.068H50.3237V217H53.3999V216.296ZM54.3706 212.068V217H56.1514C57.6211 217 58.4722 216.094 58.4722 214.519C58.4722 212.967 57.6143 212.068 56.1514 212.068H54.3706ZM55.1362 212.765H56.0659C57.0879 212.765 57.6929 213.415 57.6929 214.529C57.6929 215.66 57.0981 216.303 56.0659 216.303H55.1362V212.765ZM63.5957 215.373V214.652H61.3535V215.373H63.5957ZM67.4341 212.068H66.6685V215.301C66.6685 216.371 67.4307 217.12 68.6646 217.12C69.9053 217.12 70.6641 216.371 70.6641 215.301V212.068H69.8984V215.233C69.8984 215.923 69.4507 216.402 68.6646 216.402C67.8818 216.402 67.4341 215.923 67.4341 215.233V212.068ZM71.6655 215.674C71.7202 216.556 72.4551 217.12 73.5488 217.12C74.7178 217.12 75.4492 216.528 75.4492 215.585C75.4492 214.843 75.0322 214.433 74.0205 214.197L73.4771 214.064C72.8345 213.914 72.5747 213.712 72.5747 213.36C72.5747 212.916 72.978 212.625 73.583 212.625C74.1572 212.625 74.5537 212.909 74.6255 213.363H75.3706C75.3262 212.533 74.5947 211.948 73.5933 211.948C72.5166 211.948 71.7988 212.533 71.7988 213.411C71.7988 214.136 72.2056 214.566 73.0977 214.775L73.7334 214.929C74.3862 215.083 74.6733 215.308 74.6733 215.684C74.6733 216.122 74.2222 216.439 73.6069 216.439C72.9473 216.439 72.4893 216.142 72.4243 215.674H71.6655ZM76.4575 212.068V217H78.2383C79.708 217 80.5591 216.094 80.5591 214.519C80.5591 212.967 79.7012 212.068 78.2383 212.068H76.4575ZM77.2231 212.765H78.1528C79.1748 212.765 79.7798 213.415 79.7798 214.529C79.7798 215.66 79.1851 216.303 78.1528 216.303H77.2231V212.765ZM85.6826 215.373V214.652H83.4404V215.373H85.6826ZM88.7622 212.068V217H90.543C92.0127 217 92.8638 216.094 92.8638 214.519C92.8638 212.967 92.0059 212.068 90.543 212.068H88.7622ZM89.5278 212.765H90.4575C91.4795 212.765 92.0845 213.415 92.0845 214.529C92.0845 215.66 91.4897 216.303 90.4575 216.303H89.5278V212.765ZM96.8628 217H97.6763L95.8955 212.068H95.0718L93.291 217H94.0771L94.5317 215.691H96.4116L96.8628 217ZM95.4443 212.963H95.5024L96.2168 215.048H94.7266L95.4443 212.963ZM99.3032 217V212.068H98.5376V217H99.3032ZM103.617 216.296H101.306V212.068H100.541V217H103.617V216.296ZM106.057 217V215.011L107.797 212.068H106.946L105.705 214.204H105.647L104.406 212.068H103.555L105.292 215.011V217H106.057Z" fill="#666677"/>
<path d="M42.8262 236.048V235.433H40.8027V236.076H42.0742V236.182C42.0674 236.913 41.5137 237.405 40.707 237.405C39.7808 237.405 39.1997 236.688 39.1997 235.525C39.1997 234.384 39.7773 233.663 40.6899 233.663C41.3633 233.663 41.8315 233.987 42.0229 234.582H42.792C42.6245 233.584 41.811 232.948 40.6899 232.948C39.3091 232.948 38.417 233.96 38.417 235.532C38.417 237.125 39.2988 238.12 40.6968 238.12C41.9888 238.12 42.8262 237.31 42.8262 236.048ZM45.9844 232.948C44.5693 232.948 43.6807 233.939 43.6807 235.532C43.6807 237.122 44.5488 238.12 45.9844 238.12C47.4097 238.12 48.2847 237.118 48.2847 235.532C48.2847 233.943 47.4028 232.948 45.9844 232.948ZM45.9844 233.663C46.9175 233.663 47.502 234.387 47.502 235.532C47.502 236.67 46.9209 237.405 45.9844 237.405C45.0342 237.405 44.4634 236.67 44.4634 235.532C44.4634 234.387 45.0513 233.663 45.9844 233.663ZM52.3999 237.296H50.0894V233.068H49.3237V238H52.3999V237.296ZM53.3706 233.068V238H55.1514C56.6211 238 57.4722 237.094 57.4722 235.519C57.4722 233.967 56.6143 233.068 55.1514 233.068H53.3706ZM54.1362 233.765H55.0659C56.0879 233.765 56.6929 234.415 56.6929 235.529C56.6929 236.66 56.0981 237.303 55.0659 237.303H54.1362V233.765ZM62.5957 236.373V235.652H60.3535V236.373H62.5957ZM66.4341 233.068H65.6685V236.301C65.6685 237.371 66.4307 238.12 67.6646 238.12C68.9053 238.12 69.6641 237.371 69.6641 236.301V233.068H68.8984V236.233C68.8984 236.923 68.4507 237.402 67.6646 237.402C66.8818 237.402 66.4341 236.923 66.4341 236.233V233.068ZM70.6655 236.674C70.7202 237.556 71.4551 238.12 72.5488 238.12C73.7178 238.12 74.4492 237.528 74.4492 236.585C74.4492 235.843 74.0322 235.433 73.0205 235.197L72.4771 235.064C71.8345 234.914 71.5747 234.712 71.5747 234.36C71.5747 233.916 71.978 233.625 72.583 233.625C73.1572 233.625 73.5537 233.909 73.6255 234.363H74.3706C74.3262 233.533 73.5947 232.948 72.5933 232.948C71.5166 232.948 70.7988 233.533 70.7988 234.411C70.7988 235.136 71.2056 235.566 72.0977 235.775L72.7334 235.929C73.3862 236.083 73.6733 236.308 73.6733 236.684C73.6733 237.122 73.2222 237.439 72.6069 237.439C71.9473 237.439 71.4893 237.142 71.4243 236.674H70.6655ZM75.4575 233.068V238H77.2383C78.708 238 79.5591 237.094 79.5591 235.519C79.5591 233.967 78.7012 233.068 77.2383 233.068H75.4575ZM76.2231 233.765H77.1528C78.1748 233.765 78.7798 234.415 78.7798 235.529C78.7798 236.66 78.1851 237.303 77.1528 237.303H76.2231V233.765ZM84.6826 236.373V235.652H82.4404V236.373H84.6826ZM92.7524 238V233.068H91.8569L90.2847 236.841H90.2266L88.6577 233.068H87.7622V238H88.4731V234.438H88.521L89.9668 237.884H90.5479L91.9937 234.438H92.0415V238H92.7524ZM96.0918 232.948C94.6768 232.948 93.7881 233.939 93.7881 235.532C93.7881 237.122 94.6562 238.12 96.0918 238.12C97.5171 238.12 98.3921 237.118 98.3921 235.532C98.3921 233.943 97.5103 232.948 96.0918 232.948ZM96.0918 233.663C97.0249 233.663 97.6094 234.387 97.6094 235.532C97.6094 236.67 97.0283 237.405 96.0918 237.405C95.1416 237.405 94.5708 236.67 94.5708 235.532C94.5708 234.387 95.1587 233.663 96.0918 233.663ZM100.176 238V234.497H100.231L102.764 238H103.454V233.068H102.709V236.571H102.654L100.122 233.068H99.4312V238H100.176ZM106.711 238V233.765H108.26V233.068H104.394V233.765H105.946V238H106.711ZM113.26 238V233.068H112.498V235.139H109.965V233.068H109.2V238H109.965V235.836H112.498V238H113.26ZM117.574 237.296H115.263V233.068H114.498V238H117.574V237.296ZM120.014 238V236.011L121.754 233.068H120.903L119.662 235.204H119.604L118.363 233.068H117.512L119.249 236.011V238H120.014Z" fill="#666677"/>
<rect x="358" y="256" width="83" height="57" transform="rotate(-180 358 256)" fill="url(#paint0_linear)"/>
<rect x="9" y="202" width="77" height="54" fill="url(#paint1_linear)"/>
<circle cx="340" cy="224" r="1" fill="black"/>
<circle cx="348" cy="224" r="1" fill="black"/>
<circle cx="344" cy="224" r="1" fill="black"/>
<defs>
<filter id="filter0_d" x="0" y="0" width="367" height="268" filterUnits="userSpaceOnUse" color-interpolation-filters="sRGB">
<feFlood flood-opacity="0" result="BackgroundImageFix"/>
<feColorMatrix in="SourceAlpha" type="matrix" values="0 0 0 0 0 0 0 0 0 0 0 0 0 0 0 0 0 0 127 0"/>
<feMorphology radius="1" operator="dilate" in="SourceAlpha" result="effect1_dropShadow"/>
<feOffset dy="3"/>
<feGaussianBlur stdDeviation="4"/>
<feColorMatrix type="matrix" values="0 0 0 0 0.445833 0 0 0 0 0.442118 0 0 0 0 0.442118 0 0 0 0.25 0"/>
<feBlend mode="normal" in2="BackgroundImageFix" result="effect1_dropShadow"/>
<feBlend mode="normal" in="SourceGraphic" in2="effect1_dropShadow" result="shape"/>
</filter>
<filter id="filter1_d" x="20" y="121.403" width="96.1299" height="39.974" filterUnits="userSpaceOnUse" color-interpolation-filters="sRGB">
<feFlood flood-opacity="0" result="BackgroundImageFix"/>
<feColorMatrix in="SourceAlpha" type="matrix" values="0 0 0 0 0 0 0 0 0 0 0 0 0 0 0 0 0 0 127 0"/>
<feMorphology radius="1" operator="dilate" in="SourceAlpha" result="effect1_dropShadow"/>
<feOffset dy="3"/>
<feGaussianBlur stdDeviation="4"/>
<feColorMatrix type="matrix" values="0 0 0 0 0.445833 0 0 0 0 0.442118 0 0 0 0 0.442118 0 0 0 0.25 0"/>
<feBlend mode="normal" in2="BackgroundImageFix" result="effect1_dropShadow"/>
<feBlend mode="normal" in="SourceGraphic" in2="effect1_dropShadow" result="shape"/>
</filter>
<filter id="filter2_d" x="147" y="124" width="81" height="37" filterUnits="userSpaceOnUse" color-interpolation-filters="sRGB">
<feFlood flood-opacity="0" result="BackgroundImageFix"/>
<feColorMatrix in="SourceAlpha" type="matrix" values="0 0 0 0 0 0 0 0 0 0 0 0 0 0 0 0 0 0 127 0"/>
<feMorphology radius="1" operator="dilate" in="SourceAlpha" result="effect1_dropShadow"/>
<feOffset dy="3"/>
<feGaussianBlur stdDeviation="4"/>
<feColorMatrix type="matrix" values="0 0 0 0 0.445833 0 0 0 0 0.442118 0 0 0 0 0.442118 0 0 0 0.25 0"/>
<feBlend mode="normal" in2="BackgroundImageFix" result="effect1_dropShadow"/>
<feBlend mode="normal" in="SourceGraphic" in2="effect1_dropShadow" result="shape"/>
</filter>
<filter id="filter3_d" x="259" y="124" width="82" height="37" filterUnits="userSpaceOnUse" color-interpolation-filters="sRGB">
<feFlood flood-opacity="0" result="BackgroundImageFix"/>
<feColorMatrix in="SourceAlpha" type="matrix" values="0 0 0 0 0 0 0 0 0 0 0 0 0 0 0 0 0 0 127 0"/>
<feMorphology radius="1" operator="dilate" in="SourceAlpha" result="effect1_dropShadow"/>
<feOffset dy="3"/>
<feGaussianBlur stdDeviation="4"/>
<feColorMatrix type="matrix" values="0 0 0 0 0.445833 0 0 0 0 0.442118 0 0 0 0 0.442118 0 0 0 0.25 0"/>
<feBlend mode="normal" in2="BackgroundImageFix" result="effect1_dropShadow"/>
<feBlend mode="normal" in="SourceGraphic" in2="effect1_dropShadow" result="shape"/>
</filter>
<filter id="filter4_d" x="20" y="156.805" width="96.1299" height="41.1948" filterUnits="userSpaceOnUse" color-interpolation-filters="sRGB">
<feFlood flood-opacity="0" result="BackgroundImageFix"/>
<feColorMatrix in="SourceAlpha" type="matrix" values="0 0 0 0 0 0 0 0 0 0 0 0 0 0 0 0 0 0 127 0"/>
<feMorphology radius="1" operator="dilate" in="SourceAlpha" result="effect1_dropShadow"/>
<feOffset dy="3"/>
<feGaussianBlur stdDeviation="4"/>
<feColorMatrix type="matrix" values="0 0 0 0 0.445833 0 0 0 0 0.442118 0 0 0 0 0.442118 0 0 0 0.25 0"/>
<feBlend mode="normal" in2="BackgroundImageFix" result="effect1_dropShadow"/>
<feBlend mode="normal" in="SourceGraphic" in2="effect1_dropShadow" result="shape"/>
</filter>
<filter id="filter5_d" x="147" y="159" width="81" height="39" filterUnits="userSpaceOnUse" color-interpolation-filters="sRGB">
<feFlood flood-opacity="0" result="BackgroundImageFix"/>
<feColorMatrix in="SourceAlpha" type="matrix" values="0 0 0 0 0 0 0 0 0 0 0 0 0 0 0 0 0 0 127 0"/>
<feMorphology radius="1" operator="dilate" in="SourceAlpha" result="effect1_dropShadow"/>
<feOffset dy="3"/>
<feGaussianBlur stdDeviation="4"/>
<feColorMatrix type="matrix" values="0 0 0 0 0.445833 0 0 0 0 0.442118 0 0 0 0 0.442118 0 0 0 0.25 0"/>
<feBlend mode="normal" in2="BackgroundImageFix" result="effect1_dropShadow"/>
<feBlend mode="normal" in="SourceGraphic" in2="effect1_dropShadow" result="shape"/>
</filter>
<filter id="filter6_d" x="259" y="159" width="82" height="39" filterUnits="userSpaceOnUse" color-interpolation-filters="sRGB">
<feFlood flood-opacity="0" result="BackgroundImageFix"/>
<feColorMatrix in="SourceAlpha" type="matrix" values="0 0 0 0 0 0 0 0 0 0 0 0 0 0 0 0 0 0 127 0"/>
<feMorphology radius="1" operator="dilate" in="SourceAlpha" result="effect1_dropShadow"/>
<feOffset dy="3"/>
<feGaussianBlur stdDeviation="4"/>
<feColorMatrix type="matrix" values="0 0 0 0 0.445833 0 0 0 0 0.442118 0 0 0 0 0.442118 0 0 0 0.25 0"/>
<feBlend mode="normal" in2="BackgroundImageFix" result="effect1_dropShadow"/>
<feBlend mode="normal" in="SourceGraphic" in2="effect1_dropShadow" result="shape"/>
</filter>
<filter id="filter7_d" x="21.2207" y="86" width="92.4675" height="39.974" filterUnits="userSpaceOnUse" color-interpolation-filters="sRGB">
<feFlood flood-opacity="0" result="BackgroundImageFix"/>
<feColorMatrix in="SourceAlpha" type="matrix" values="0 0 0 0 0 0 0 0 0 0 0 0 0 0 0 0 0 0 127 0"/>
<feMorphology radius="1" operator="dilate" in="SourceAlpha" result="effect1_dropShadow"/>
<feOffset dy="3"/>
<feGaussianBlur stdDeviation="4"/>
<feColorMatrix type="matrix" values="0 0 0 0 0.445833 0 0 0 0 0.442118 0 0 0 0 0.442118 0 0 0 0.25 0"/>
<feBlend mode="normal" in2="BackgroundImageFix" result="effect1_dropShadow"/>
<feBlend mode="normal" in="SourceGraphic" in2="effect1_dropShadow" result="shape"/>
</filter>
<filter id="filter8_d" x="20" y="44" width="92.4675" height="43.974" filterUnits="userSpaceOnUse" color-interpolation-filters="sRGB">
<feFlood flood-opacity="0" result="BackgroundImageFix"/>
<feColorMatrix in="SourceAlpha" type="matrix" values="0 0 0 0 0 0 0 0 0 0 0 0 0 0 0 0 0 0 127 0"/>
<feMorphology radius="1" operator="dilate" in="SourceAlpha" result="effect1_dropShadow"/>
<feOffset dy="3"/>
<feGaussianBlur stdDeviation="4"/>
<feColorMatrix type="matrix" values="0 0 0 0 0.445833 0 0 0 0 0.442118 0 0 0 0 0.442118 0 0 0 0.25 0"/>
<feBlend mode="normal" in2="BackgroundImageFix" result="effect1_dropShadow"/>
<feBlend mode="normal" in="SourceGraphic" in2="effect1_dropShadow" result="shape"/>
</filter>
<filter id="filter9_d" x="140" y="44" width="92" height="44" filterUnits="userSpaceOnUse" color-interpolation-filters="sRGB">
<feFlood flood-opacity="0" result="BackgroundImageFix"/>
<feColorMatrix in="SourceAlpha" type="matrix" values="0 0 0 0 0 0 0 0 0 0 0 0 0 0 0 0 0 0 127 0"/>
<feMorphology radius="1" operator="dilate" in="SourceAlpha" result="effect1_dropShadow"/>
<feOffset dy="3"/>
<feGaussianBlur stdDeviation="4"/>
<feColorMatrix type="matrix" values="0 0 0 0 0.445833 0 0 0 0 0.442118 0 0 0 0 0.442118 0 0 0 0.25 0"/>
<feBlend mode="normal" in2="BackgroundImageFix" result="effect1_dropShadow"/>
<feBlend mode="normal" in="SourceGraphic" in2="effect1_dropShadow" result="shape"/>
</filter>
<filter id="filter10_d" x="254" y="44" width="92" height="44" filterUnits="userSpaceOnUse" color-interpolation-filters="sRGB">
<feFlood flood-opacity="0" result="BackgroundImageFix"/>
<feColorMatrix in="SourceAlpha" type="matrix" values="0 0 0 0 0 0 0 0 0 0 0 0 0 0 0 0 0 0 127 0"/>
<feMorphology radius="1" operator="dilate" in="SourceAlpha" result="effect1_dropShadow"/>
<feOffset dy="3"/>
<feGaussianBlur stdDeviation="4"/>
<feColorMatrix type="matrix" values="0 0 0 0 0.445833 0 0 0 0 0.442118 0 0 0 0 0.442118 0 0 0 0.25 0"/>
<feBlend mode="normal" in2="BackgroundImageFix" result="effect1_dropShadow"/>
<feBlend mode="normal" in="SourceGraphic" in2="effect1_dropShadow" result="shape"/>
</filter>
<filter id="filter11_d" x="146.961" y="86" width="79.039" height="39.974" filterUnits="userSpaceOnUse" color-interpolation-filters="sRGB">
<feFlood flood-opacity="0" result="BackgroundImageFix"/>
<feColorMatrix in="SourceAlpha" type="matrix" values="0 0 0 0 0 0 0 0 0 0 0 0 0 0 0 0 0 0 127 0"/>
<feMorphology radius="1" operator="dilate" in="SourceAlpha" result="effect1_dropShadow"/>
<feOffset dy="3"/>
<feGaussianBlur stdDeviation="4"/>
<feColorMatrix type="matrix" values="0 0 0 0 0.445833 0 0 0 0 0.442118 0 0 0 0 0.442118 0 0 0 0.25 0"/>
<feBlend mode="normal" in2="BackgroundImageFix" result="effect1_dropShadow"/>
<feBlend mode="normal" in="SourceGraphic" in2="effect1_dropShadow" result="shape"/>
</filter>
<filter id="filter12_d" x="259.273" y="86" width="81.4805" height="39.974" filterUnits="userSpaceOnUse" color-interpolation-filters="sRGB">
<feFlood flood-opacity="0" result="BackgroundImageFix"/>
<feColorMatrix in="SourceAlpha" type="matrix" values="0 0 0 0 0 0 0 0 0 0 0 0 0 0 0 0 0 0 127 0"/>
<feMorphology radius="1" operator="dilate" in="SourceAlpha" result="effect1_dropShadow"/>
<feOffset dy="3"/>
<feGaussianBlur stdDeviation="4"/>
<feColorMatrix type="matrix" values="0 0 0 0 0.445833 0 0 0 0 0.442118 0 0 0 0 0.442118 0 0 0 0.25 0"/>
<feBlend mode="normal" in2="BackgroundImageFix" result="effect1_dropShadow"/>
<feBlend mode="normal" in="SourceGraphic" in2="effect1_dropShadow" result="shape"/>
</filter>
<filter id="filter13_d" x="120" y="200" width="136" height="35" filterUnits="userSpaceOnUse" color-interpolation-filters="sRGB">
<feFlood flood-opacity="0" result="BackgroundImageFix"/>
<feColorMatrix in="SourceAlpha" type="matrix" values="0 0 0 0 0 0 0 0 0 0 0 0 0 0 0 0 0 0 127 0"/>
<feMorphology radius="1" operator="dilate" in="SourceAlpha" result="effect1_dropShadow"/>
<feOffset dy="3"/>
<feGaussianBlur stdDeviation="4"/>
<feColorMatrix type="matrix" values="0 0 0 0 0.445833 0 0 0 0 0.442118 0 0 0 0 0.442118 0 0 0 0.25 0"/>
<feBlend mode="normal" in2="BackgroundImageFix" result="effect1_dropShadow"/>
<feBlend mode="normal" in="SourceGraphic" in2="effect1_dropShadow" result="shape"/>
</filter>
<filter id="filter14_d" x="128" y="221" width="130" height="35" filterUnits="userSpaceOnUse" color-interpolation-filters="sRGB">
<feFlood flood-opacity="0" result="BackgroundImageFix"/>
<feColorMatrix in="SourceAlpha" type="matrix" values="0 0 0 0 0 0 0 0 0 0 0 0 0 0 0 0 0 0 127 0"/>
<feMorphology radius="1" operator="dilate" in="SourceAlpha" result="effect1_dropShadow"/>
<feOffset dy="3"/>
<feGaussianBlur stdDeviation="4"/>
<feColorMatrix type="matrix" values="0 0 0 0 0.445833 0 0 0 0 0.442118 0 0 0 0 0.442118 0 0 0 0.25 0"/>
<feBlend mode="normal" in2="BackgroundImageFix" result="effect1_dropShadow"/>
<feBlend mode="normal" in="SourceGraphic" in2="effect1_dropShadow" result="shape"/>
</filter>
<filter id="filter15_d" x="248" y="221" width="116" height="35" filterUnits="userSpaceOnUse" color-interpolation-filters="sRGB">
<feFlood flood-opacity="0" result="BackgroundImageFix"/>
<feColorMatrix in="SourceAlpha" type="matrix" values="0 0 0 0 0 0 0 0 0 0 0 0 0 0 0 0 0 0 127 0"/>
<feMorphology radius="1" operator="dilate" in="SourceAlpha" result="effect1_dropShadow"/>
<feOffset dy="3"/>
<feGaussianBlur stdDeviation="4"/>
<feColorMatrix type="matrix" values="0 0 0 0 0.445833 0 0 0 0 0.442118 0 0 0 0 0.442118 0 0 0 0.25 0"/>
<feBlend mode="normal" in2="BackgroundImageFix" result="effect1_dropShadow"/>
<feBlend mode="normal" in="SourceGraphic" in2="effect1_dropShadow" result="shape"/>
</filter>
<filter id="filter16_d" x="248" y="200" width="117" height="35" filterUnits="userSpaceOnUse" color-interpolation-filters="sRGB">
<feFlood flood-opacity="0" result="BackgroundImageFix"/>
<feColorMatrix in="SourceAlpha" type="matrix" values="0 0 0 0 0 0 0 0 0 0 0 0 0 0 0 0 0 0 127 0"/>
<feMorphology radius="1" operator="dilate" in="SourceAlpha" result="effect1_dropShadow"/>
<feOffset dy="3"/>
<feGaussianBlur stdDeviation="4"/>
<feColorMatrix type="matrix" values="0 0 0 0 0.445833 0 0 0 0 0.442118 0 0 0 0 0.442118 0 0 0 0.25 0"/>
<feBlend mode="normal" in2="BackgroundImageFix" result="effect1_dropShadow"/>
<feBlend mode="normal" in="SourceGraphic" in2="effect1_dropShadow" result="shape"/>
</filter>
<filter id="filter17_d" x="21" y="200" width="106" height="35" filterUnits="userSpaceOnUse" color-interpolation-filters="sRGB">
<feFlood flood-opacity="0" result="BackgroundImageFix"/>
<feColorMatrix in="SourceAlpha" type="matrix" values="0 0 0 0 0 0 0 0 0 0 0 0 0 0 0 0 0 0 127 0"/>
<feMorphology radius="1" operator="dilate" in="SourceAlpha" result="effect1_dropShadow"/>
<feOffset dy="3"/>
<feGaussianBlur stdDeviation="4"/>
<feColorMatrix type="matrix" values="0 0 0 0 0.445833 0 0 0 0 0.442118 0 0 0 0 0.442118 0 0 0 0.25 0"/>
<feBlend mode="normal" in2="BackgroundImageFix" result="effect1_dropShadow"/>
<feBlend mode="normal" in="SourceGraphic" in2="effect1_dropShadow" result="shape"/>
</filter>
<filter id="filter18_d" x="20" y="221" width="118" height="35" filterUnits="userSpaceOnUse" color-interpolation-filters="sRGB">
<feFlood flood-opacity="0" result="BackgroundImageFix"/>
<feColorMatrix in="SourceAlpha" type="matrix" values="0 0 0 0 0 0 0 0 0 0 0 0 0 0 0 0 0 0 127 0"/>
<feMorphology radius="1" operator="dilate" in="SourceAlpha" result="effect1_dropShadow"/>
<feOffset dy="3"/>
<feGaussianBlur stdDeviation="4"/>
<feColorMatrix type="matrix" values="0 0 0 0 0.445833 0 0 0 0 0.442118 0 0 0 0 0.442118 0 0 0 0.25 0"/>
<feBlend mode="normal" in2="BackgroundImageFix" result="effect1_dropShadow"/>
<feBlend mode="normal" in="SourceGraphic" in2="effect1_dropShadow" result="shape"/>
</filter>
<linearGradient id="paint0_linear" x1="360.905" y1="313" x2="429.76" y2="313" gradientUnits="userSpaceOnUse">
<stop offset="0.0463484" stop-color="white"/>
<stop offset="0.640625" stop-color="white" stop-opacity="0.57"/>
<stop offset="1" stop-color="white" stop-opacity="0"/>
</linearGradient>
<linearGradient id="paint1_linear" x1="11.695" y1="256" x2="75.5729" y2="256" gradientUnits="userSpaceOnUse">
<stop offset="0.0463484" stop-color="white"/>
<stop offset="0.654948" stop-color="white" stop-opacity="0.81"/>
<stop offset="1" stop-color="white" stop-opacity="0"/>
</linearGradient>
</defs>
</svg>
