<?xml version="1.0" encoding="utf-8"?>
<!-- Generator: Adobe Illustrator 23.0.3, SVG Export Plug-In . SVG Version: 6.00 Build 0)  -->
<svg version="1.1" id="Layer_1" xmlns="http://www.w3.org/2000/svg" xmlns:xlink="http://www.w3.org/1999/xlink" x="0px" y="0px"
	 viewBox="0 0 1440 250" style="enable-background:new 0 0 1440 250;" xml:space="preserve">
<style type="text/css">
	.st0{fill:#5D209D;}
	.st1{fill:#983CD9;}
	.st2{fill:#BE54F0;}
	.st3{fill:none;}
	.st4{fill:#FFFFFF;}
</style>
<title>Group 40</title>
<desc>Created with Sketch.</desc>
<g id="Clip-2">
</g>
<g id="Clip-5">
</g>
<g id="Clip-8">
</g>
<g id="Clip-28">
</g>
<g>
	<rect x="1295.55" y="107.1" class="st0" width="62.69" height="43.35"/>
	<rect x="1214.31" y="150.45" class="st0" width="81.24" height="99.55"/>
	<rect x="1295.55" y="150.45" class="st1" width="62.69" height="99.55"/>
	<rect x="1358.24" y="29.82" class="st0" width="81.76" height="77.28"/>
	<rect x="1358.24" y="107.1" class="st1" width="81.76" height="43.35"/>
	<rect x="1358.24" y="150.45" class="st2" width="81.76" height="99.55"/>
	<rect y="62.23" class="st0" width="111.3" height="120.08"/>
	<rect x="111.3" y="182.31" class="st0" width="47.27" height="67.69"/>
	<polygon class="st1" points="1.74,182.31 0,182.31 0,250 1.74,250 111.3,250 111.3,182.31 	"/>
</g>
<g>
	<g id="Clip-14">
	</g>
	<g id="Clip-17">
	</g>
	<g id="Clip-20">
	</g>
	<g id="Clip-23">
	</g>
	<g id="Clip-31">
	</g>
	<g id="Clip-34">
	</g>
	<g id="Clip-37">
	</g>
</g>
<g>
	<polygon class="st3" points="0,116.91 0,134.56 38.98,134.56 38.98,250 56.63,250 56.63,116.91 	"/>
	<rect y="135.56" class="st3" width="37.98" height="114.44"/>
	<polygon class="st3" points="0,0 0,97.26 76.28,97.26 76.28,250 1189.08,250 1439.08,0 	"/>
	<polygon class="st3" points="1440,50.23 1240.23,250 1263.69,250 1440,73.69 	"/>
	<polygon class="st3" points="1440,25.36 1215.36,250 1238.82,250 1440,48.82 	"/>
	<polygon class="st3" points="1440,0.5 1190.5,250 1213.95,250 1440,23.95 	"/>
	<polygon class="st3" points="1440,75.1 1265.1,250 1440,250 	"/>
	<polygon class="st3" points="0,98.26 0,115.91 57.63,115.91 57.63,250 75.28,250 75.28,98.26 	"/>
	<polygon class="st4" points="1440,0 1439.08,0 1189.08,250 1190.5,250 1440,0.5 	"/>
	<polygon class="st4" points="1440,23.95 1213.95,250 1215.36,250 1440,25.36 	"/>
	<polygon class="st4" points="1440,48.82 1238.82,250 1240.23,250 1440,50.23 	"/>
	<polygon class="st4" points="1440,73.69 1263.69,250 1265.1,250 1440,75.1 	"/>
	<polygon class="st4" points="0,134.56 0,135.56 37.98,135.56 37.98,250 38.98,250 38.98,134.56 	"/>
	<polygon class="st4" points="0,115.91 0,116.91 56.63,116.91 56.63,250 57.63,250 57.63,115.91 	"/>
	<polygon class="st4" points="0,97.26 0,98.26 75.28,98.26 75.28,250 76.28,250 76.28,97.26 	"/>
</g>
</svg>
