<?xml version="1.0" encoding="UTF-8"?>
<svg width="1440px" height="387px" viewBox="0 0 1440 387" version="1.1" xmlns="http://www.w3.org/2000/svg" xmlns:xlink="http://www.w3.org/1999/xlink">
    <!-- Generator: Sketch 52.6 (67491) - http://www.bohemiancoding.com/sketch -->
    <title>Group 207</title>
    <desc>Created with Sketch.</desc>
    <defs>
        <polygon id="path-1" points="0.802768732 0.236149451 246.952253 0.236149451 246.952253 204.514194 0.802768732 204.514194"></polygon>
        <polygon id="path-3" points="0.802768732 0.236149451 252.303438 0.236149451 252.303438 89.0063108 0.802768732 89.0063108"></polygon>
        <polygon id="path-5" points="0.024029794 0.471764142 272.455976 0.471764142 272.455976 99.7014852 0.024029794 99.7014852"></polygon>
        <polygon id="path-7" points="0.267660925 0.77090817 181.6691 0.77090817 181.6691 140.343148 0.267660925 140.343148"></polygon>
        <polygon id="path-9" points="0.802768732 0.236149451 115.315732 0.236149451 115.315732 289.006072 0.802768732 289.006072"></polygon>
        <polygon id="path-11" points="0.267660925 0.77090817 98.1922825 0.77090817 98.1922825 272.96331 0.267660925 272.96331"></polygon>
        <polygon id="path-13" points="0.802768732 0.236149451 82.1390483 0.236149451 82.1390483 255.851031 0.802768732 255.851031"></polygon>
        <polygon id="path-15" points="0.267660925 0.77090817 65.0155985 0.77090817 65.0155985 239.80827 0.267660925 239.80827"></polygon>
        <polygon id="path-17" points="0.802768732 0.236149451 48.9623643 0.236149451 48.9623643 222.695991 0.802768732 222.695991"></polygon>
        <polygon id="path-19" points="0.80266171 0.641763939 232.09857 0.641763939 232.09857 192.749502 0.80266171 192.749502"></polygon>
        <polygon id="path-21" points="0.80266171 0.50352881 186.217624 0.50352881 186.217624 368.150362 0.80266171 368.150362"></polygon>
        <polygon id="path-23" points="0.760762769 0.194170891 137.79026 0.194170891 137.79026 157.497192 0.760762769 157.497192"></polygon>
    </defs>
    <g id="Page-1" stroke="none" stroke-width="1" fill="none" fill-rule="evenodd">
        <g id="Package-SaaS-Finance-Ops" transform="translate(0.000000, -333.000000)">
            <g id="chargebee-icon-black" transform="translate(0.000000, -1.000000)">
                <g id="Group-207" transform="translate(-11.000000, 325.000000)">
                    <polygon id="Fill-1" fill="#BAD3E7" points="1349 111 1460.32394 222 1463 219.330663 1463 2.66826923 1460.32394 0"></polygon>
                    <g id="Group-206" transform="translate(0.000000, 33.000000)">
                        <g id="Group-4" transform="translate(1215.764937, 163.636168)">
                            <mask id="mask-2" fill="white">
                                <use xlink:href="#path-1"></use>
                            </mask>
                            <g id="Clip-3"></g>
                            <path d="M325.0781,162.268041 C325.0781,251.755635 252.486445,324.299933 162.940434,324.299933 C73.3944236,324.299933 0.802768732,251.755635 0.802768732,162.268041 C0.802768732,72.7804478 73.3944236,0.236149451 162.940434,0.236149451 C252.486445,0.236149451 325.0781,72.7804478 325.0781,162.268041" id="Fill-2" fill="#C483D9" mask="url(#mask-2)"></path>
                        </g>
                        <g id="Group-7" transform="translate(130.566305, 279.144052)">
                            <mask id="mask-4" fill="white">
                                <use xlink:href="#path-3"></use>
                            </mask>
                            <g id="Clip-6"></g>
                            <path d="M252.303438,125.904449 C252.303438,195.309713 196.003675,251.572748 126.553103,251.572748 C57.1025313,251.572748 0.802768732,195.309713 0.802768732,125.904449 C0.802768732,56.4991839 57.1025313,0.236149451 126.553103,0.236149451 C196.003675,0.236149451 252.303438,56.4991839 252.303438,125.904449" id="Fill-5" fill="#C483D9" mask="url(#mask-4)"></path>
                        </g>
                        <g id="Group-10" style="mix-blend-mode: multiply;" transform="translate(1091.564967, 268.448877)">
                            <mask id="mask-6" fill="white">
                                <use xlink:href="#path-5"></use>
                            </mask>
                            <g id="Clip-9"></g>
                            <polygon id="Fill-8" fill="#BAD3E7" mask="url(#mask-6)" points="136.240003 272.727054 0.024029794 136.599944 136.240003 0.471764142 272.455976 136.599944"></polygon>
                        </g>
                        <g id="Group-13" transform="translate(1281.048089, 227.807215)">
                            <mask id="mask-8" fill="white">
                                <use xlink:href="#path-7"></use>
                            </mask>
                            <g id="Clip-12"></g>
                            <path d="M195.046903,98.0969951 C195.046903,151.848803 151.444178,195.423082 97.6572817,195.423082 C43.8703854,195.423082 0.267660925,151.848803 0.267660925,98.0969951 C0.267660925,44.3451877 43.8703854,0.77090817 97.6572817,0.77090817 C151.444178,0.77090817 195.046903,44.3451877 195.046903,98.0969951" id="Fill-11" fill="#FFFFFF" mask="url(#mask-8)"></path>
                        </g>
                        <g id="Group-16" transform="translate(1347.401457, 79.144290)">
                            <mask id="mask-10" fill="white">
                                <use xlink:href="#path-9"></use>
                            </mask>
                            <g id="Clip-15"></g>
                            <path d="M115.315839,0.236149451 C52.0714477,0.236149451 0.802768732,51.4713824 0.802768732,114.674515 L0.802768732,379.91484" id="Stroke-14" stroke="#192125" mask="url(#mask-10)"></path>
                        </g>
                        <g id="Group-19" transform="translate(1364.524907, 95.187052)">
                            <mask id="mask-12" fill="white">
                                <use xlink:href="#path-11"></use>
                            </mask>
                            <g id="Clip-18"></g>
                            <path d="M0.267660925,363.872079 L0.267660925,98.6317538 C0.267660925,44.5847596 44.1101137,0.77090817 98.1923895,0.77090817" id="Stroke-17" stroke="#192125" mask="url(#mask-12)"></path>
                        </g>
                        <g id="Group-22" transform="translate(1380.578141, 112.299331)">
                            <mask id="mask-14" fill="white">
                                <use xlink:href="#path-13"></use>
                            </mask>
                            <g id="Clip-21"></g>
                            <path d="M0.802768732,346.7598 L0.802768732,81.5194748 C0.802768732,36.6275498 37.2179252,0.236149451 82.1391553,0.236149451" id="Stroke-20" stroke="#192125" mask="url(#mask-14)"></path>
                        </g>
                        <g id="Group-25" transform="translate(1397.701591, 128.342093)">
                            <mask id="mask-16" fill="white">
                                <use xlink:href="#path-15"></use>
                            </mask>
                            <g id="Clip-24"></g>
                            <path d="M0.267660925,330.717038 L0.267660925,65.4767132 C0.267660925,29.740927 29.2565912,0.77090817 65.0157055,0.77090817" id="Stroke-23" stroke="#192125" mask="url(#mask-16)"></path>
                        </g>
                        <g id="Group-28" transform="translate(1413.754825, 145.454372)">
                            <mask id="mask-18" fill="white">
                                <use xlink:href="#path-17"></use>
                            </mask>
                            <g id="Clip-27"></g>
                            <path d="M0.802768732,313.604759 L0.802768732,48.3644342 C0.802768732,21.7837173 22.3644027,0.236149451 48.9624713,0.236149451" id="Stroke-26" stroke="#192125" mask="url(#mask-18)"></path>
                        </g>
                        <g id="Group-31" style="mix-blend-mode: multiply;" transform="translate(0.000000, 175.400860)">
                            <mask id="mask-20" fill="white">
                                <use xlink:href="#path-19"></use>
                            </mask>
                            <g id="Clip-30"></g>
                            <path d="M-35.3170082,46.4927787 C25.8575865,-14.6419076 125.043029,-14.6419076 186.217624,46.4927787 C247.392218,107.627465 247.392218,206.748202 186.217624,267.882889 C125.043029,329.018644 25.8575865,329.018644 -35.3170082,267.882889 C-96.4916029,206.748202 -96.4916029,107.627465 -35.3170082,46.4927787" id="Fill-29" fill="#C483D9" mask="url(#mask-20)"></path>
                        </g>
                        <g id="Group-34">
                            <mask id="mask-22" fill="white">
                                <use xlink:href="#path-21"></use>
                            </mask>
                            <g id="Clip-33"></g>
                            <polygon id="Fill-32" fill="#BAD3E7" mask="url(#mask-22)" points="-256.85164 221.893639 -35.3170082 0.50352881 186.217624 221.893639 -35.3170082 443.283749"></polygon>
                        </g>
                        <g id="Group-37" style="mix-blend-mode: multiply;" transform="translate(1324.926929, 54.545389)">
                            <mask id="mask-24" fill="white">
                                <use xlink:href="#path-23"></use>
                            </mask>
                            <g id="Clip-36"></g>
                            <path d="M135.114828,23.2307744 C165.85035,53.9462457 165.85035,103.745117 135.114828,134.460588 C104.379306,165.176059 54.5479266,165.176059 23.8124044,134.460588 C-6.92311778,103.745117 -6.92311778,53.9462457 23.8124044,23.2307744 C54.5479266,-7.48469694 104.379306,-7.48469694 135.114828,23.2307744" id="Fill-35" fill="#BAD3E7" mask="url(#mask-24)"></path>
                        </g>
                        <path d="M58.7626497,204.901466 C58.7626497,205.834086 58.0060073,206.589165 57.0738495,206.589165 C56.1406215,206.589165 55.3839791,205.834086 55.3839791,204.901466 C55.3839791,203.968847 56.1406215,203.212698 57.0738495,203.212698 C58.0060073,203.212698 58.7626497,203.968847 58.7626497,204.901466" id="Fill-38" fill="#FFFFFF"></path>
                        <path d="M73.0622286,204.901466 C73.0622286,205.834086 72.3055862,206.589165 71.3723582,206.589165 C70.4391302,206.589165 69.6835579,205.834086 69.6835579,204.901466 C69.6835579,203.968847 70.4391302,203.212698 71.3723582,203.212698 C72.3055862,203.212698 73.0622286,203.968847 73.0622286,204.901466" id="Fill-40" fill="#FFFFFF"></path>
                        <path d="M87.3606303,204.901466 C87.3606303,205.834086 86.6039879,206.589165 85.6718301,206.589165 C84.738602,206.589165 83.9819596,205.834086 83.9819596,204.901466 C83.9819596,203.968847 84.738602,203.212698 85.6718301,203.212698 C86.6039879,203.212698 87.3606303,203.968847 87.3606303,204.901466" id="Fill-42" fill="#FFFFFF"></path>
                        <path d="M101.660209,204.901466 C101.660209,205.834086 100.903567,206.589165 99.9703387,206.589165 C99.0371107,206.589165 98.2815385,205.834086 98.2815385,204.901466 C98.2815385,203.968847 99.0371107,203.212698 99.9703387,203.212698 C100.903567,203.212698 101.660209,203.968847 101.660209,204.901466" id="Fill-44" fill="#FFFFFF"></path>
                        <path d="M115.958611,204.901466 C115.958611,205.834086 115.201968,206.589165 114.269811,206.589165 C113.336583,206.589165 112.57994,205.834086 112.57994,204.901466 C112.57994,203.968847 113.336583,203.212698 114.269811,203.212698 C115.201968,203.212698 115.958611,203.968847 115.958611,204.901466" id="Fill-46" fill="#FFFFFF"></path>
                        <path d="M130.258083,204.901466 C130.258083,205.834086 129.50144,206.589165 128.568212,206.589165 C127.634984,206.589165 126.879412,205.834086 126.879412,204.901466 C126.879412,203.968847 127.634984,203.212698 128.568212,203.212698 C129.50144,203.212698 130.258083,203.968847 130.258083,204.901466" id="Fill-48" fill="#FFFFFF"></path>
                        <path d="M144.556591,204.901466 C144.556591,205.834086 143.801019,206.589165 142.867791,206.589165 C141.934563,206.589165 141.177921,205.834086 141.177921,204.901466 C141.177921,203.968847 141.934563,203.212698 142.867791,203.212698 C143.801019,203.212698 144.556591,203.968847 144.556591,204.901466" id="Fill-50" fill="#FFFFFF"></path>
                        <path d="M158.856063,204.901466 C158.856063,205.834086 158.099421,206.589165 157.166193,206.589165 C156.234035,206.589165 155.477393,205.834086 155.477393,204.901466 C155.477393,203.968847 156.234035,203.212698 157.166193,203.212698 C158.099421,203.212698 158.856063,203.968847 158.856063,204.901466" id="Fill-52" fill="#FFFFFF"></path>
                        <path d="M173.154572,204.901466 C173.154572,205.834086 172.399,206.589165 171.465772,206.589165 C170.532544,206.589165 169.775901,205.834086 169.775901,204.901466 C169.775901,203.968847 170.532544,203.212698 171.465772,203.212698 C172.399,203.212698 173.154572,203.968847 173.154572,204.901466" id="Fill-54" fill="#FFFFFF"></path>
                        <path d="M187.454044,204.901466 C187.454044,205.834086 186.697401,206.589165 185.764173,206.589165 C184.832016,206.589165 184.075373,205.834086 184.075373,204.901466 C184.075373,203.968847 184.832016,203.212698 185.764173,203.212698 C186.697401,203.212698 187.454044,203.968847 187.454044,204.901466" id="Fill-56" fill="#FFFFFF"></path>
                        <path d="M201.753516,204.901466 C201.753516,205.834086 200.996873,206.589165 200.063645,206.589165 C199.130417,206.589165 198.373775,205.834086 198.373775,204.901466 C198.373775,203.968847 199.130417,203.212698 200.063645,203.212698 C200.996873,203.212698 201.753516,203.968847 201.753516,204.901466" id="Fill-58" fill="#FFFFFF"></path>
                        <path d="M216.052024,204.901466 C216.052024,205.834086 215.295382,206.589165 214.363224,206.589165 C213.429996,206.589165 212.673354,205.834086 212.673354,204.901466 C212.673354,203.968847 213.429996,203.212698 214.363224,203.212698 C215.295382,203.212698 216.052024,203.968847 216.052024,204.901466" id="Fill-60" fill="#FFFFFF"></path>
                        <path d="M230.351496,204.901466 C230.351496,205.834086 229.594854,206.589165 228.661626,206.589165 C227.728398,206.589165 226.972826,205.834086 226.972826,204.901466 C226.972826,203.968847 227.728398,203.212698 228.661626,203.212698 C229.594854,203.212698 230.351496,203.968847 230.351496,204.901466" id="Fill-62" fill="#FFFFFF"></path>
                        <path d="M244.650005,204.901466 C244.650005,205.834086 243.893363,206.589165 242.961205,206.589165 C242.027977,206.589165 241.271334,205.834086 241.271334,204.901466 C241.271334,203.968847 242.027977,203.212698 242.961205,203.212698 C243.893363,203.212698 244.650005,203.968847 244.650005,204.901466" id="Fill-64" fill="#FFFFFF"></path>
                        <path d="M258.949477,204.901466 C258.949477,205.834086 258.192834,206.589165 257.259606,206.589165 C256.326378,206.589165 255.570806,205.834086 255.570806,204.901466 C255.570806,203.968847 256.326378,203.212698 257.259606,203.212698 C258.192834,203.212698 258.949477,203.968847 258.949477,204.901466" id="Fill-66" fill="#FFFFFF"></path>
                        <path d="M273.247878,204.901466 C273.247878,205.834086 272.492306,206.589165 271.559078,206.589165 C270.62585,206.589165 269.869208,205.834086 269.869208,204.901466 C269.869208,203.968847 270.62585,203.212698 271.559078,203.212698 C272.492306,203.212698 273.247878,203.968847 273.247878,204.901466" id="Fill-68" fill="#FFFFFF"></path>
                        <path d="M287.547457,204.901466 C287.547457,205.834086 286.790815,206.589165 285.857587,206.589165 C284.925429,206.589165 284.168787,205.834086 284.168787,204.901466 C284.168787,203.968847 284.925429,203.212698 285.857587,203.212698 C286.790815,203.212698 287.547457,203.968847 287.547457,204.901466" id="Fill-70" fill="#FFFFFF"></path>
                        <path d="M301.845859,204.901466 C301.845859,205.834086 301.090287,206.589165 300.157059,206.589165 C299.223831,206.589165 298.467188,205.834086 298.467188,204.901466 C298.467188,203.968847 299.223831,203.212698 300.157059,203.212698 C301.090287,203.212698 301.845859,203.968847 301.845859,204.901466" id="Fill-72" fill="#FFFFFF"></path>
                        <path d="M316.145331,204.901466 C316.145331,205.834086 315.388688,206.589165 314.45546,206.589165 C313.523303,206.589165 312.76666,205.834086 312.76666,204.901466 C312.76666,203.968847 313.523303,203.212698 314.45546,203.212698 C315.388688,203.212698 316.145331,203.968847 316.145331,204.901466" id="Fill-74" fill="#FFFFFF"></path>
                        <path d="M330.44384,204.901466 C330.44384,205.834086 329.688267,206.589165 328.755039,206.589165 C327.821811,206.589165 327.065169,205.834086 327.065169,204.901466 C327.065169,203.968847 327.821811,203.212698 328.755039,203.212698 C329.688267,203.212698 330.44384,203.968847 330.44384,204.901466" id="Fill-76" fill="#FFFFFF"></path>
                        <path d="M344.743311,204.901466 C344.743311,205.834086 343.986669,206.589165 343.053441,206.589165 C342.121283,206.589165 341.364641,205.834086 341.364641,204.901466 C341.364641,203.968847 342.121283,203.212698 343.053441,203.212698 C343.986669,203.212698 344.743311,203.968847 344.743311,204.901466" id="Fill-78" fill="#FFFFFF"></path>
                        <path d="M58.7626497,220.8638 C58.7626497,221.79642 58.0060073,222.552568 57.0738495,222.552568 C56.1406215,222.552568 55.3839791,221.79642 55.3839791,220.8638 C55.3839791,219.932251 56.1406215,219.176102 57.0738495,219.176102 C58.0060073,219.176102 58.7626497,219.932251 58.7626497,220.8638" id="Fill-80" fill="#FFFFFF"></path>
                        <path d="M73.0622286,220.8638 C73.0622286,221.79642 72.3055862,222.552568 71.3723582,222.552568 C70.4391302,222.552568 69.6835579,221.79642 69.6835579,220.8638 C69.6835579,219.932251 70.4391302,219.176102 71.3723582,219.176102 C72.3055862,219.176102 73.0622286,219.932251 73.0622286,220.8638" id="Fill-82" fill="#FFFFFF"></path>
                        <path d="M87.3606303,220.8638 C87.3606303,221.79642 86.6039879,222.552568 85.6718301,222.552568 C84.738602,222.552568 83.9819596,221.79642 83.9819596,220.8638 C83.9819596,219.932251 84.738602,219.176102 85.6718301,219.176102 C86.6039879,219.176102 87.3606303,219.932251 87.3606303,220.8638" id="Fill-84" fill="#FFFFFF"></path>
                        <path d="M101.660209,220.8638 C101.660209,221.79642 100.903567,222.552568 99.9703387,222.552568 C99.0371107,222.552568 98.2815385,221.79642 98.2815385,220.8638 C98.2815385,219.932251 99.0371107,219.176102 99.9703387,219.176102 C100.903567,219.176102 101.660209,219.932251 101.660209,220.8638" id="Fill-86" fill="#FFFFFF"></path>
                        <path d="M115.958611,220.8638 C115.958611,221.79642 115.201968,222.552568 114.269811,222.552568 C113.336583,222.552568 112.57994,221.79642 112.57994,220.8638 C112.57994,219.932251 113.336583,219.176102 114.269811,219.176102 C115.201968,219.176102 115.958611,219.932251 115.958611,220.8638" id="Fill-88" fill="#FFFFFF"></path>
                        <path d="M130.258083,220.8638 C130.258083,221.79642 129.50144,222.552568 128.568212,222.552568 C127.634984,222.552568 126.879412,221.79642 126.879412,220.8638 C126.879412,219.932251 127.634984,219.176102 128.568212,219.176102 C129.50144,219.176102 130.258083,219.932251 130.258083,220.8638" id="Fill-90" fill="#FFFFFF"></path>
                        <path d="M144.556591,220.8638 C144.556591,221.79642 143.801019,222.552568 142.867791,222.552568 C141.934563,222.552568 141.177921,221.79642 141.177921,220.8638 C141.177921,219.932251 141.934563,219.176102 142.867791,219.176102 C143.801019,219.176102 144.556591,219.932251 144.556591,220.8638" id="Fill-92" fill="#FFFFFF"></path>
                        <path d="M158.856063,220.8638 C158.856063,221.79642 158.099421,222.552568 157.166193,222.552568 C156.234035,222.552568 155.477393,221.79642 155.477393,220.8638 C155.477393,219.932251 156.234035,219.176102 157.166193,219.176102 C158.099421,219.176102 158.856063,219.932251 158.856063,220.8638" id="Fill-94" fill="#FFFFFF"></path>
                        <path d="M173.154572,220.8638 C173.154572,221.79642 172.399,222.552568 171.465772,222.552568 C170.532544,222.552568 169.775901,221.79642 169.775901,220.8638 C169.775901,219.932251 170.532544,219.176102 171.465772,219.176102 C172.399,219.176102 173.154572,219.932251 173.154572,220.8638" id="Fill-96" fill="#FFFFFF"></path>
                        <path d="M187.454044,220.8638 C187.454044,221.79642 186.697401,222.552568 185.764173,222.552568 C184.832016,222.552568 184.075373,221.79642 184.075373,220.8638 C184.075373,219.932251 184.832016,219.176102 185.764173,219.176102 C186.697401,219.176102 187.454044,219.932251 187.454044,220.8638" id="Fill-98" fill="#FFFFFF"></path>
                        <path d="M201.753516,220.8638 C201.753516,221.79642 200.996873,222.552568 200.063645,222.552568 C199.130417,222.552568 198.373775,221.79642 198.373775,220.8638 C198.373775,219.932251 199.130417,219.176102 200.063645,219.176102 C200.996873,219.176102 201.753516,219.932251 201.753516,220.8638" id="Fill-100" fill="#FFFFFF"></path>
                        <path d="M216.052024,220.8638 C216.052024,221.79642 215.295382,222.552568 214.363224,222.552568 C213.429996,222.552568 212.673354,221.79642 212.673354,220.8638 C212.673354,219.932251 213.429996,219.176102 214.363224,219.176102 C215.295382,219.176102 216.052024,219.932251 216.052024,220.8638" id="Fill-102" fill="#FFFFFF"></path>
                        <path d="M230.351496,220.8638 C230.351496,221.79642 229.594854,222.552568 228.661626,222.552568 C227.728398,222.552568 226.972826,221.79642 226.972826,220.8638 C226.972826,219.932251 227.728398,219.176102 228.661626,219.176102 C229.594854,219.176102 230.351496,219.932251 230.351496,220.8638" id="Fill-104" fill="#FFFFFF"></path>
                        <path d="M244.650005,220.8638 C244.650005,221.79642 243.893363,222.552568 242.961205,222.552568 C242.027977,222.552568 241.271334,221.79642 241.271334,220.8638 C241.271334,219.932251 242.027977,219.176102 242.961205,219.176102 C243.893363,219.176102 244.650005,219.932251 244.650005,220.8638" id="Fill-106" fill="#FFFFFF"></path>
                        <path d="M258.949477,220.8638 C258.949477,221.79642 258.192834,222.552568 257.259606,222.552568 C256.326378,222.552568 255.570806,221.79642 255.570806,220.8638 C255.570806,219.932251 256.326378,219.176102 257.259606,219.176102 C258.192834,219.176102 258.949477,219.932251 258.949477,220.8638" id="Fill-108" fill="#FFFFFF"></path>
                        <path d="M273.247878,220.8638 C273.247878,221.79642 272.492306,222.552568 271.559078,222.552568 C270.62585,222.552568 269.869208,221.79642 269.869208,220.8638 C269.869208,219.932251 270.62585,219.176102 271.559078,219.176102 C272.492306,219.176102 273.247878,219.932251 273.247878,220.8638" id="Fill-110" fill="#FFFFFF"></path>
                        <path d="M287.547457,220.8638 C287.547457,221.79642 286.790815,222.552568 285.857587,222.552568 C284.925429,222.552568 284.168787,221.79642 284.168787,220.8638 C284.168787,219.932251 284.925429,219.176102 285.857587,219.176102 C286.790815,219.176102 287.547457,219.932251 287.547457,220.8638" id="Fill-112" fill="#FFFFFF"></path>
                        <path d="M301.845859,220.8638 C301.845859,221.79642 301.090287,222.552568 300.157059,222.552568 C299.223831,222.552568 298.467188,221.79642 298.467188,220.8638 C298.467188,219.932251 299.223831,219.176102 300.157059,219.176102 C301.090287,219.176102 301.845859,219.932251 301.845859,220.8638" id="Fill-114" fill="#FFFFFF"></path>
                        <path d="M316.145331,220.8638 C316.145331,221.79642 315.388688,222.552568 314.45546,222.552568 C313.523303,222.552568 312.76666,221.79642 312.76666,220.8638 C312.76666,219.932251 313.523303,219.176102 314.45546,219.176102 C315.388688,219.176102 316.145331,219.932251 316.145331,220.8638" id="Fill-116" fill="#FFFFFF"></path>
                        <path d="M330.44384,220.8638 C330.44384,221.79642 329.688267,222.552568 328.755039,222.552568 C327.821811,222.552568 327.065169,221.79642 327.065169,220.8638 C327.065169,219.932251 327.821811,219.176102 328.755039,219.176102 C329.688267,219.176102 330.44384,219.932251 330.44384,220.8638" id="Fill-118" fill="#FFFFFF"></path>
                        <path d="M344.743311,220.8638 C344.743311,221.79642 343.986669,222.552568 343.053441,222.552568 C342.121283,222.552568 341.364641,221.79642 341.364641,220.8638 C341.364641,219.932251 342.121283,219.176102 343.053441,219.176102 C343.986669,219.176102 344.743311,219.932251 344.743311,220.8638" id="Fill-120" fill="#FFFFFF"></path>
                        <path d="M58.7626497,236.827204 C58.7626497,237.758753 58.0060073,238.514902 57.0738495,238.514902 C56.1406215,238.514902 55.3839791,237.758753 55.3839791,236.827204 C55.3839791,235.894585 56.1406215,235.138436 57.0738495,235.138436 C58.0060073,235.138436 58.7626497,235.894585 58.7626497,236.827204" id="Fill-122" fill="#FFFFFF"></path>
                        <path d="M73.0622286,236.827204 C73.0622286,237.758753 72.3055862,238.514902 71.3723582,238.514902 C70.4391302,238.514902 69.6835579,237.758753 69.6835579,236.827204 C69.6835579,235.894585 70.4391302,235.138436 71.3723582,235.138436 C72.3055862,235.138436 73.0622286,235.894585 73.0622286,236.827204" id="Fill-124" fill="#FFFFFF"></path>
                        <path d="M87.3606303,236.827204 C87.3606303,237.758753 86.6039879,238.514902 85.6718301,238.514902 C84.738602,238.514902 83.9819596,237.758753 83.9819596,236.827204 C83.9819596,235.894585 84.738602,235.138436 85.6718301,235.138436 C86.6039879,235.138436 87.3606303,235.894585 87.3606303,236.827204" id="Fill-126" fill="#FFFFFF"></path>
                        <path d="M101.660209,236.827204 C101.660209,237.758753 100.903567,238.514902 99.9703387,238.514902 C99.0371107,238.514902 98.2815385,237.758753 98.2815385,236.827204 C98.2815385,235.894585 99.0371107,235.138436 99.9703387,235.138436 C100.903567,235.138436 101.660209,235.894585 101.660209,236.827204" id="Fill-128" fill="#FFFFFF"></path>
                        <path d="M115.958611,236.827204 C115.958611,237.758753 115.201968,238.514902 114.269811,238.514902 C113.336583,238.514902 112.57994,237.758753 112.57994,236.827204 C112.57994,235.894585 113.336583,235.138436 114.269811,235.138436 C115.201968,235.138436 115.958611,235.894585 115.958611,236.827204" id="Fill-130" fill="#FFFFFF"></path>
                        <path d="M130.258083,236.827204 C130.258083,237.758753 129.50144,238.514902 128.568212,238.514902 C127.634984,238.514902 126.879412,237.758753 126.879412,236.827204 C126.879412,235.894585 127.634984,235.138436 128.568212,235.138436 C129.50144,235.138436 130.258083,235.894585 130.258083,236.827204" id="Fill-132" fill="#FFFFFF"></path>
                        <path d="M144.556591,236.827204 C144.556591,237.758753 143.801019,238.514902 142.867791,238.514902 C141.934563,238.514902 141.177921,237.758753 141.177921,236.827204 C141.177921,235.894585 141.934563,235.138436 142.867791,235.138436 C143.801019,235.138436 144.556591,235.894585 144.556591,236.827204" id="Fill-134" fill="#FFFFFF"></path>
                        <path d="M158.856063,236.827204 C158.856063,237.758753 158.099421,238.514902 157.166193,238.514902 C156.234035,238.514902 155.477393,237.758753 155.477393,236.827204 C155.477393,235.894585 156.234035,235.138436 157.166193,235.138436 C158.099421,235.138436 158.856063,235.894585 158.856063,236.827204" id="Fill-136" fill="#FFFFFF"></path>
                        <path d="M173.154572,236.827204 C173.154572,237.758753 172.399,238.514902 171.465772,238.514902 C170.532544,238.514902 169.775901,237.758753 169.775901,236.827204 C169.775901,235.894585 170.532544,235.138436 171.465772,235.138436 C172.399,235.138436 173.154572,235.894585 173.154572,236.827204" id="Fill-138" fill="#FFFFFF"></path>
                        <path d="M187.454044,236.827204 C187.454044,237.758753 186.697401,238.514902 185.764173,238.514902 C184.832016,238.514902 184.075373,237.758753 184.075373,236.827204 C184.075373,235.894585 184.832016,235.138436 185.764173,235.138436 C186.697401,235.138436 187.454044,235.894585 187.454044,236.827204" id="Fill-140" fill="#FFFFFF"></path>
                        <path d="M201.753516,236.827204 C201.753516,237.758753 200.996873,238.514902 200.063645,238.514902 C199.130417,238.514902 198.373775,237.758753 198.373775,236.827204 C198.373775,235.894585 199.130417,235.138436 200.063645,235.138436 C200.996873,235.138436 201.753516,235.894585 201.753516,236.827204" id="Fill-142" fill="#FFFFFF"></path>
                        <path d="M216.052024,236.827204 C216.052024,237.758753 215.295382,238.514902 214.363224,238.514902 C213.429996,238.514902 212.673354,237.758753 212.673354,236.827204 C212.673354,235.894585 213.429996,235.138436 214.363224,235.138436 C215.295382,235.138436 216.052024,235.894585 216.052024,236.827204" id="Fill-144" fill="#FFFFFF"></path>
                        <path d="M230.351496,236.827204 C230.351496,237.758753 229.594854,238.514902 228.661626,238.514902 C227.728398,238.514902 226.972826,237.758753 226.972826,236.827204 C226.972826,235.894585 227.728398,235.138436 228.661626,235.138436 C229.594854,235.138436 230.351496,235.894585 230.351496,236.827204" id="Fill-146" fill="#FFFFFF"></path>
                        <path d="M244.650005,236.827204 C244.650005,237.758753 243.893363,238.514902 242.961205,238.514902 C242.027977,238.514902 241.271334,237.758753 241.271334,236.827204 C241.271334,235.894585 242.027977,235.138436 242.961205,235.138436 C243.893363,235.138436 244.650005,235.894585 244.650005,236.827204" id="Fill-148" fill="#FFFFFF"></path>
                        <path d="M258.949477,236.827204 C258.949477,237.758753 258.192834,238.514902 257.259606,238.514902 C256.326378,238.514902 255.570806,237.758753 255.570806,236.827204 C255.570806,235.894585 256.326378,235.138436 257.259606,235.138436 C258.192834,235.138436 258.949477,235.894585 258.949477,236.827204" id="Fill-150" fill="#FFFFFF"></path>
                        <path d="M273.247878,236.827204 C273.247878,237.758753 272.492306,238.514902 271.559078,238.514902 C270.62585,238.514902 269.869208,237.758753 269.869208,236.827204 C269.869208,235.894585 270.62585,235.138436 271.559078,235.138436 C272.492306,235.138436 273.247878,235.894585 273.247878,236.827204" id="Fill-152" fill="#FFFFFF"></path>
                        <path d="M287.547457,236.827204 C287.547457,237.758753 286.790815,238.514902 285.857587,238.514902 C284.925429,238.514902 284.168787,237.758753 284.168787,236.827204 C284.168787,235.894585 284.925429,235.138436 285.857587,235.138436 C286.790815,235.138436 287.547457,235.894585 287.547457,236.827204" id="Fill-154" fill="#FFFFFF"></path>
                        <path d="M301.845859,236.827204 C301.845859,237.758753 301.090287,238.514902 300.157059,238.514902 C299.223831,238.514902 298.467188,237.758753 298.467188,236.827204 C298.467188,235.894585 299.223831,235.138436 300.157059,235.138436 C301.090287,235.138436 301.845859,235.894585 301.845859,236.827204" id="Fill-156" fill="#FFFFFF"></path>
                        <path d="M316.145331,236.827204 C316.145331,237.758753 315.388688,238.514902 314.45546,238.514902 C313.523303,238.514902 312.76666,237.758753 312.76666,236.827204 C312.76666,235.894585 313.523303,235.138436 314.45546,235.138436 C315.388688,235.138436 316.145331,235.894585 316.145331,236.827204" id="Fill-158" fill="#FFFFFF"></path>
                        <path d="M330.44384,236.827204 C330.44384,237.758753 329.688267,238.514902 328.755039,238.514902 C327.821811,238.514902 327.065169,237.758753 327.065169,236.827204 C327.065169,235.894585 327.821811,235.138436 328.755039,235.138436 C329.688267,235.138436 330.44384,235.894585 330.44384,236.827204" id="Fill-160" fill="#FFFFFF"></path>
                        <path d="M344.743311,236.827204 C344.743311,237.758753 343.986669,238.514902 343.053441,238.514902 C342.121283,238.514902 341.364641,237.758753 341.364641,236.827204 C341.364641,235.894585 342.121283,235.138436 343.053441,235.138436 C343.986669,235.138436 344.743311,235.894585 344.743311,236.827204" id="Fill-162" fill="#FFFFFF"></path>
                        <path d="M58.7626497,252.789538 C58.7626497,253.722157 58.0060073,254.478306 57.0738495,254.478306 C56.1406215,254.478306 55.3839791,253.722157 55.3839791,252.789538 C55.3839791,251.856918 56.1406215,251.101839 57.0738495,251.101839 C58.0060073,251.101839 58.7626497,251.856918 58.7626497,252.789538" id="Fill-164" fill="#FFFFFF"></path>
                        <path d="M73.0622286,252.789538 C73.0622286,253.722157 72.3055862,254.478306 71.3723582,254.478306 C70.4391302,254.478306 69.6835579,253.722157 69.6835579,252.789538 C69.6835579,251.856918 70.4391302,251.101839 71.3723582,251.101839 C72.3055862,251.101839 73.0622286,251.856918 73.0622286,252.789538" id="Fill-166" fill="#FFFFFF"></path>
                        <path d="M87.3606303,252.789538 C87.3606303,253.722157 86.6039879,254.478306 85.6718301,254.478306 C84.738602,254.478306 83.9819596,253.722157 83.9819596,252.789538 C83.9819596,251.856918 84.738602,251.101839 85.6718301,251.101839 C86.6039879,251.101839 87.3606303,251.856918 87.3606303,252.789538" id="Fill-168" fill="#FFFFFF"></path>
                        <path d="M101.660209,252.789538 C101.660209,253.722157 100.903567,254.478306 99.9703387,254.478306 C99.0371107,254.478306 98.2815385,253.722157 98.2815385,252.789538 C98.2815385,251.856918 99.0371107,251.101839 99.9703387,251.101839 C100.903567,251.101839 101.660209,251.856918 101.660209,252.789538" id="Fill-170" fill="#FFFFFF"></path>
                        <path d="M115.958611,252.789538 C115.958611,253.722157 115.201968,254.478306 114.269811,254.478306 C113.336583,254.478306 112.57994,253.722157 112.57994,252.789538 C112.57994,251.856918 113.336583,251.101839 114.269811,251.101839 C115.201968,251.101839 115.958611,251.856918 115.958611,252.789538" id="Fill-172" fill="#FFFFFF"></path>
                        <path d="M130.258083,252.789538 C130.258083,253.722157 129.50144,254.478306 128.568212,254.478306 C127.634984,254.478306 126.879412,253.722157 126.879412,252.789538 C126.879412,251.856918 127.634984,251.101839 128.568212,251.101839 C129.50144,251.101839 130.258083,251.856918 130.258083,252.789538" id="Fill-174" fill="#FFFFFF"></path>
                        <path d="M144.556591,252.789538 C144.556591,253.722157 143.801019,254.478306 142.867791,254.478306 C141.934563,254.478306 141.177921,253.722157 141.177921,252.789538 C141.177921,251.856918 141.934563,251.101839 142.867791,251.101839 C143.801019,251.101839 144.556591,251.856918 144.556591,252.789538" id="Fill-176" fill="#FFFFFF"></path>
                        <path d="M158.856063,252.789538 C158.856063,253.722157 158.099421,254.478306 157.166193,254.478306 C156.234035,254.478306 155.477393,253.722157 155.477393,252.789538 C155.477393,251.856918 156.234035,251.101839 157.166193,251.101839 C158.099421,251.101839 158.856063,251.856918 158.856063,252.789538" id="Fill-178" fill="#FFFFFF"></path>
                        <path d="M173.154572,252.789538 C173.154572,253.722157 172.399,254.478306 171.465772,254.478306 C170.532544,254.478306 169.775901,253.722157 169.775901,252.789538 C169.775901,251.856918 170.532544,251.101839 171.465772,251.101839 C172.399,251.101839 173.154572,251.856918 173.154572,252.789538" id="Fill-180" fill="#FFFFFF"></path>
                        <path d="M187.454044,252.789538 C187.454044,253.722157 186.697401,254.478306 185.764173,254.478306 C184.832016,254.478306 184.075373,253.722157 184.075373,252.789538 C184.075373,251.856918 184.832016,251.101839 185.764173,251.101839 C186.697401,251.101839 187.454044,251.856918 187.454044,252.789538" id="Fill-182" fill="#FFFFFF"></path>
                        <path d="M201.753516,252.789538 C201.753516,253.722157 200.996873,254.478306 200.063645,254.478306 C199.130417,254.478306 198.373775,253.722157 198.373775,252.789538 C198.373775,251.856918 199.130417,251.101839 200.063645,251.101839 C200.996873,251.101839 201.753516,251.856918 201.753516,252.789538" id="Fill-184" fill="#FFFFFF"></path>
                        <path d="M216.052024,252.789538 C216.052024,253.722157 215.295382,254.478306 214.363224,254.478306 C213.429996,254.478306 212.673354,253.722157 212.673354,252.789538 C212.673354,251.856918 213.429996,251.101839 214.363224,251.101839 C215.295382,251.101839 216.052024,251.856918 216.052024,252.789538" id="Fill-186" fill="#FFFFFF"></path>
                        <path d="M230.351496,252.789538 C230.351496,253.722157 229.594854,254.478306 228.661626,254.478306 C227.728398,254.478306 226.972826,253.722157 226.972826,252.789538 C226.972826,251.856918 227.728398,251.101839 228.661626,251.101839 C229.594854,251.101839 230.351496,251.856918 230.351496,252.789538" id="Fill-188" fill="#FFFFFF"></path>
                        <path d="M244.650005,252.789538 C244.650005,253.722157 243.893363,254.478306 242.961205,254.478306 C242.027977,254.478306 241.271334,253.722157 241.271334,252.789538 C241.271334,251.856918 242.027977,251.101839 242.961205,251.101839 C243.893363,251.101839 244.650005,251.856918 244.650005,252.789538" id="Fill-190" fill="#FFFFFF"></path>
                        <path d="M258.949477,252.789538 C258.949477,253.722157 258.192834,254.478306 257.259606,254.478306 C256.326378,254.478306 255.570806,253.722157 255.570806,252.789538 C255.570806,251.856918 256.326378,251.101839 257.259606,251.101839 C258.192834,251.101839 258.949477,251.856918 258.949477,252.789538" id="Fill-192" fill="#FFFFFF"></path>
                        <path d="M273.247878,252.789538 C273.247878,253.722157 272.492306,254.478306 271.559078,254.478306 C270.62585,254.478306 269.869208,253.722157 269.869208,252.789538 C269.869208,251.856918 270.62585,251.101839 271.559078,251.101839 C272.492306,251.101839 273.247878,251.856918 273.247878,252.789538" id="Fill-194" fill="#FFFFFF"></path>
                        <path d="M287.547457,252.789538 C287.547457,253.722157 286.790815,254.478306 285.857587,254.478306 C284.925429,254.478306 284.168787,253.722157 284.168787,252.789538 C284.168787,251.856918 284.925429,251.101839 285.857587,251.101839 C286.790815,251.101839 287.547457,251.856918 287.547457,252.789538" id="Fill-196" fill="#FFFFFF"></path>
                        <path d="M301.845859,252.789538 C301.845859,253.722157 301.090287,254.478306 300.157059,254.478306 C299.223831,254.478306 298.467188,253.722157 298.467188,252.789538 C298.467188,251.856918 299.223831,251.101839 300.157059,251.101839 C301.090287,251.101839 301.845859,251.856918 301.845859,252.789538" id="Fill-198" fill="#FFFFFF"></path>
                        <path d="M316.145331,252.789538 C316.145331,253.722157 315.388688,254.478306 314.45546,254.478306 C313.523303,254.478306 312.76666,253.722157 312.76666,252.789538 C312.76666,251.856918 313.523303,251.101839 314.45546,251.101839 C315.388688,251.101839 316.145331,251.856918 316.145331,252.789538" id="Fill-200" fill="#FFFFFF"></path>
                        <path d="M330.44384,252.789538 C330.44384,253.722157 329.688267,254.478306 328.755039,254.478306 C327.821811,254.478306 327.065169,253.722157 327.065169,252.789538 C327.065169,251.856918 327.821811,251.101839 328.755039,251.101839 C329.688267,251.101839 330.44384,251.856918 330.44384,252.789538" id="Fill-202" fill="#FFFFFF"></path>
                        <path d="M344.743311,252.789538 C344.743311,253.722157 343.986669,254.478306 343.053441,254.478306 C342.121283,254.478306 341.364641,253.722157 341.364641,252.789538 C341.364641,251.856918 342.121283,251.101839 343.053441,251.101839 C343.986669,251.101839 344.743311,251.856918 344.743311,252.789538" id="Fill-204" fill="#FFFFFF"></path>
                    </g>
                </g>
            </g>
        </g>
    </g>
</svg>