<?xml version="1.0" encoding="UTF-8"?>
<svg width="1440px" height="396px" viewBox="0 0 1440 396" version="1.1" xmlns="http://www.w3.org/2000/svg" xmlns:xlink="http://www.w3.org/1999/xlink">
    <!-- Generator: Sketch 52.6 (67491) - http://www.bohemiancoding.com/sketch -->
    <title>Group 162</title>
    <desc>Created with Sketch.</desc>
    <defs>
        <polygon id="path-1" points="0.107510134 0.768153045 272.160624 0.768153045 272.160624 99.7116613 0.107510134 99.7116613"></polygon>
        <polygon id="path-3" points="0.267288727 0 287.220493 0 287.220493 206.355149 0.267288727 206.355149"></polygon>
        <polygon id="path-5" points="0.267288727 0 1.33601614 0 1.33601614 289.53707 0.267288727 289.53707"></polygon>
        <polygon id="path-7" points="0.801652436 0.53321744 1.87037985 0.53321744 1.87037985 288.470635 0.801652436 288.470635"></polygon>
        <polygon id="path-9" points="0.267288727 0.53321744 1.33601614 0.53321744 1.33601614 288.470635 0.267288727 288.470635"></polygon>
        <polygon id="path-11" points="0.801652436 0.53321744 1.87037985 0.53321744 1.87037985 288.470635 0.801652436 288.470635"></polygon>
        <polygon id="path-13" points="0.267288727 0.53321744 1.33601614 0.53321744 1.33601614 288.470635 0.267288727 288.470635"></polygon>
        <polygon id="path-15" points="0.231250308 0.804117172 236.184394 0.804117172 236.184394 39.9819596 0.231250308 39.9819596"></polygon>
        <polygon id="path-17" points="0.799620705 0.00965718102 231.219229 0.00965718102 231.219229 191.518713 0.799620705 191.518713"></polygon>
    </defs>
    <g id="Page-1" stroke="none" stroke-width="1" fill="none" fill-rule="evenodd">
        <g id="Package-Super-Scale" transform="translate(0.000000, -323.000000)">
            <g id="chargebee-icon-black">
                <g id="Group-162" transform="translate(-10.000000, 318.000000)">
                    <g id="Group-22" transform="translate(1072.000000, 111.000000)">
                        <g id="Group-3" transform="translate(0.000000, 189.825409)">
                            <mask id="mask-2" fill="white">
                                <use xlink:href="#path-1"></use>
                            </mask>
                            <g id="Clip-2"></g>
                            <polygon id="Fill-1" fill="#A3D5C2" mask="url(#mask-2)" points="136.134067 272.23875 0.107510134 136.503985 136.134067 0.768153045 272.160624 136.503985"></polygon>
                        </g>
                        <g id="Group-6" style="mix-blend-mode: multiply;" transform="translate(99.530046, 83.181921)">
                            <mask id="mask-4" fill="white">
                                <use xlink:href="#path-3"></use>
                            </mask>
                            <g id="Clip-5"></g>
                            <polygon id="Fill-4" fill="#B5E8D0" mask="url(#mask-4)" points="206.53168 411.643864 0.267288727 205.821932 206.53168 0 412.796072 205.821932"></polygon>
                        </g>
                        <g id="Group-9" transform="translate(271.595160, 0.000000)">
                            <mask id="mask-6" fill="white">
                                <use xlink:href="#path-5"></use>
                            </mask>
                            <g id="Clip-8"></g>
                            <path d="M0.801652436,380.184035 L0.801652436,0" id="Stroke-7" stroke="#192125" mask="url(#mask-6)"></path>
                        </g>
                        <g id="Group-12" transform="translate(287.626072, 1.066435)">
                            <mask id="mask-8" fill="white">
                                <use xlink:href="#path-7"></use>
                            </mask>
                            <g id="Clip-11"></g>
                            <path d="M1.33601614,379.1176 L1.33601614,0.53321744" id="Stroke-10" stroke="#192125" mask="url(#mask-8)"></path>
                        </g>
                        <g id="Group-15" transform="translate(304.725710, 1.066435)">
                            <mask id="mask-10" fill="white">
                                <use xlink:href="#path-9"></use>
                            </mask>
                            <g id="Clip-14"></g>
                            <path d="M0.801652436,379.1176 L0.801652436,0.53321744" id="Stroke-13" stroke="#192125" mask="url(#mask-10)"></path>
                        </g>
                        <g id="Group-18" transform="translate(320.756622, 1.066435)">
                            <mask id="mask-12" fill="white">
                                <use xlink:href="#path-11"></use>
                            </mask>
                            <g id="Clip-17"></g>
                            <path d="M1.33601614,379.1176 L1.33601614,0.53321744" id="Stroke-16" stroke="#192125" mask="url(#mask-12)"></path>
                        </g>
                        <g id="Group-21" transform="translate(337.856260, 1.066435)">
                            <mask id="mask-14" fill="white">
                                <use xlink:href="#path-13"></use>
                            </mask>
                            <g id="Clip-20"></g>
                            <path d="M0.801652436,379.1176 L0.801652436,0.53321744" id="Stroke-19" stroke="#192125" mask="url(#mask-14)"></path>
                        </g>
                    </g>
                    <polygon id="Fill-23" fill="#B5E8D0" points="1 401 39.975469 401 186 254.98629 1 70"></polygon>
                    <polygon id="Fill-24" fill="#00553D" points="115 401 316 401 215.499465 300"></polygon>
                    <g id="Group-31" style="mix-blend-mode: multiply;" transform="translate(0.000000, 209.000000)">
                        <g id="Group-27" transform="translate(215.364510, 151.536753)">
                            <mask id="mask-16" fill="white">
                                <use xlink:href="#path-15"></use>
                            </mask>
                            <g id="Clip-26"></g>
                            <polygon id="Fill-25" fill="#BAD3E7" mask="url(#mask-16)" points="0.231250308 118.782884 118.207289 0.804117172 236.184394 118.782884 118.207289 236.76165"></polygon>
                        </g>
                        <g id="Group-30">
                            <mask id="mask-18" fill="white">
                                <use xlink:href="#path-17"></use>
                            </mask>
                            <g id="Clip-29"></g>
                            <path d="M-35.1832044,45.7178331 C25.7596211,-15.2264015 124.569285,-15.2264015 185.51211,45.7178331 C246.454936,106.662068 246.454936,205.474016 185.51211,266.41825 C124.569285,327.363551 25.7596211,327.363551 -35.1832044,266.41825 C-96.1260299,205.474016 -96.1260299,106.662068 -35.1832044,45.7178331" id="Fill-28" fill="#BAD3E7" mask="url(#mask-18)"></path>
                        </g>
                    </g>
                    <polygon id="Fill-32" fill="#00553D" points="1344 111.499464 1455.25581 223 1459 219.247578 1459 3.75242189 1455.25581 0"></polygon>
                    <g id="Group-161" transform="translate(50.000000, 175.000000)" fill="#FFFFFF">
                        <path d="M1.77495896,214.233729 C2.69905247,214.233729 3.44722909,214.989249 3.44722909,215.921092 C3.44722909,216.852935 2.69905247,217.607386 1.77495896,217.607386 C0.850865455,217.607386 0.101629091,216.852935 0.101629091,215.921092 C0.101629091,214.989249 0.850865455,214.233729 1.77495896,214.233729" id="Fill-33"></path>
                        <path d="M1.77495896,199.956439 C2.69905247,199.956439 3.44722909,200.71089 3.44722909,201.642733 C3.44722909,202.574576 2.69905247,203.330096 1.77495896,203.330096 C0.850865455,203.330096 0.101629091,202.574576 0.101629091,201.642733 C0.101629091,200.71089 0.850865455,199.956439 1.77495896,199.956439" id="Fill-35"></path>
                        <path d="M1.77495896,185.678187 C2.69905247,185.678187 3.44722909,186.433707 3.44722909,187.36555 C3.44722909,188.296325 2.69905247,189.051844 1.77495896,189.051844 C0.850865455,189.051844 0.101629091,188.296325 0.101629091,187.36555 C0.101629091,186.433707 0.850865455,185.678187 1.77495896,185.678187" id="Fill-37"></path>
                        <path d="M1.77495896,171.401004 C2.69905247,171.401004 3.44722909,172.155455 3.44722909,173.087298 C3.44722909,174.019141 2.69905247,174.774661 1.77495896,174.774661 C0.850865455,174.774661 0.101629091,174.019141 0.101629091,173.087298 C0.101629091,172.155455 0.850865455,171.401004 1.77495896,171.401004" id="Fill-39"></path>
                        <path d="M1.77495896,157.122645 C2.69905247,157.122645 3.44722909,157.878165 3.44722909,158.810008 C3.44722909,159.740782 2.69905247,160.496302 1.77495896,160.496302 C0.850865455,160.496302 0.101629091,159.740782 0.101629091,158.810008 C0.101629091,157.878165 0.850865455,157.122645 1.77495896,157.122645" id="Fill-41"></path>
                        <path d="M1.77495896,142.844393 C2.69905247,142.844393 3.44722909,143.599913 3.44722909,144.531756 C3.44722909,145.463599 2.69905247,146.219119 1.77495896,146.219119 C0.850865455,146.219119 0.101629091,145.463599 0.101629091,144.531756 C0.101629091,143.599913 0.850865455,142.844393 1.77495896,142.844393" id="Fill-43"></path>
                        <path d="M1.77495896,128.567103 C2.69905247,128.567103 3.44722909,129.322623 3.44722909,130.253397 C3.44722909,131.18524 2.69905247,131.94076 1.77495896,131.94076 C0.850865455,131.94076 0.101629091,131.18524 0.101629091,130.253397 C0.101629091,129.322623 0.850865455,128.567103 1.77495896,128.567103" id="Fill-45"></path>
                        <path d="M1.77495896,114.288851 C2.69905247,114.288851 3.44722909,115.044371 3.44722909,115.976214 C3.44722909,116.908057 2.69905247,117.662508 1.77495896,117.662508 C0.850865455,117.662508 0.101629091,116.908057 0.101629091,115.976214 C0.101629091,115.044371 0.850865455,114.288851 1.77495896,114.288851" id="Fill-47"></path>
                        <path d="M1.77495896,100.011668 C2.69905247,100.011668 3.44722909,100.767187 3.44722909,101.697962 C3.44722909,102.629805 2.69905247,103.385325 1.77495896,103.385325 C0.850865455,103.385325 0.101629091,102.629805 0.101629091,101.697962 C0.101629091,100.767187 0.850865455,100.011668 1.77495896,100.011668" id="Fill-49"></path>
                        <path d="M1.77495896,85.7333088 C2.69905247,85.7333088 3.44722909,86.4888284 3.44722909,87.4206716 C3.44722909,88.3525147 2.69905247,89.1069657 1.77495896,89.1069657 C0.850865455,89.1069657 0.101629091,88.3525147 0.101629091,87.4206716 C0.101629091,86.4888284 0.850865455,85.7333088 1.77495896,85.7333088" id="Fill-51"></path>
                        <path d="M1.77495896,71.4561255 C2.69905247,71.4561255 3.44722909,72.2105765 3.44722909,73.1424196 C3.44722909,74.0742627 2.69905247,74.8297824 1.77495896,74.8297824 C0.850865455,74.8297824 0.101629091,74.0742627 0.101629091,73.1424196 C0.101629091,72.2105765 0.850865455,71.4561255 1.77495896,71.4561255" id="Fill-53"></path>
                        <path d="M1.77495896,57.1778735 C2.69905247,57.1778735 3.44722909,57.9333931 3.44722909,58.8652363 C3.44722909,59.7960108 2.69905247,60.5515304 1.77495896,60.5515304 C0.850865455,60.5515304 0.101629091,59.7960108 0.101629091,58.8652363 C0.101629091,57.9333931 0.850865455,57.1778735 1.77495896,57.1778735" id="Fill-55"></path>
                        <path d="M1.77495896,42.9005833 C2.69905247,42.9005833 3.44722909,43.6550343 3.44722909,44.5868775 C3.44722909,45.5187206 2.69905247,46.2742402 1.77495896,46.2742402 C0.850865455,46.2742402 0.101629091,45.5187206 0.101629091,44.5868775 C0.101629091,43.6550343 0.850865455,42.9005833 1.77495896,42.9005833" id="Fill-57"></path>
                        <path d="M1.77495896,28.6223314 C2.69905247,28.6223314 3.44722909,29.377851 3.44722909,30.3096941 C3.44722909,31.2404686 2.69905247,31.9959882 1.77495896,31.9959882 C0.850865455,31.9959882 0.101629091,31.2404686 0.101629091,30.3096941 C0.101629091,29.377851 0.850865455,28.6223314 1.77495896,28.6223314" id="Fill-59"></path>
                        <path d="M1.77495896,14.3450412 C2.69905247,14.3450412 3.44722909,15.0994922 3.44722909,16.0313353 C3.44722909,16.9631784 2.69905247,17.718698 1.77495896,17.718698 C0.850865455,17.718698 0.101629091,16.9631784 0.101629091,16.0313353 C0.101629091,15.0994922 0.850865455,14.3450412 1.77495896,14.3450412" id="Fill-61"></path>
                        <path d="M1.77495896,0.0667892157 C2.69905247,0.0667892157 3.44722909,0.822308824 3.44722909,1.75415196 C3.44722909,2.68492647 2.69905247,3.44044608 1.77495896,3.44044608 C0.850865455,3.44044608 0.101629091,2.68492647 0.101629091,1.75415196 C0.101629091,0.822308824 0.850865455,0.0667892157 1.77495896,0.0667892157" id="Fill-63"></path>
                        <path d="M17.5913704,214.233729 C18.5154639,214.233729 19.2647003,214.989249 19.2647003,215.921092 C19.2647003,216.852935 18.5154639,217.607386 17.5913704,217.607386 C16.6683366,217.607386 15.9191003,216.852935 15.9191003,215.921092 C15.9191003,214.989249 16.6683366,214.233729 17.5913704,214.233729" id="Fill-65"></path>
                        <path d="M17.5913704,199.956439 C18.5154639,199.956439 19.2647003,200.71089 19.2647003,201.642733 C19.2647003,202.574576 18.5154639,203.330096 17.5913704,203.330096 C16.6683366,203.330096 15.9191003,202.574576 15.9191003,201.642733 C15.9191003,200.71089 16.6683366,199.956439 17.5913704,199.956439" id="Fill-67"></path>
                        <path d="M17.5913704,185.678187 C18.5154639,185.678187 19.2647003,186.433707 19.2647003,187.36555 C19.2647003,188.296325 18.5154639,189.051844 17.5913704,189.051844 C16.6683366,189.051844 15.9191003,188.296325 15.9191003,187.36555 C15.9191003,186.433707 16.6683366,185.678187 17.5913704,185.678187" id="Fill-69"></path>
                        <path d="M17.5913704,171.401004 C18.5154639,171.401004 19.2647003,172.155455 19.2647003,173.087298 C19.2647003,174.019141 18.5154639,174.774661 17.5913704,174.774661 C16.6683366,174.774661 15.9191003,174.019141 15.9191003,173.087298 C15.9191003,172.155455 16.6683366,171.401004 17.5913704,171.401004" id="Fill-71"></path>
                        <path d="M17.5913704,157.122645 C18.5154639,157.122645 19.2647003,157.878165 19.2647003,158.810008 C19.2647003,159.740782 18.5154639,160.496302 17.5913704,160.496302 C16.6683366,160.496302 15.9191003,159.740782 15.9191003,158.810008 C15.9191003,157.878165 16.6683366,157.122645 17.5913704,157.122645" id="Fill-73"></path>
                        <path d="M17.5913704,142.844393 C18.5154639,142.844393 19.2647003,143.599913 19.2647003,144.531756 C19.2647003,145.463599 18.5154639,146.219119 17.5913704,146.219119 C16.6683366,146.219119 15.9191003,145.463599 15.9191003,144.531756 C15.9191003,143.599913 16.6683366,142.844393 17.5913704,142.844393" id="Fill-75"></path>
                        <path d="M17.5913704,128.567103 C18.5154639,128.567103 19.2647003,129.322623 19.2647003,130.253397 C19.2647003,131.18524 18.5154639,131.94076 17.5913704,131.94076 C16.6683366,131.94076 15.9191003,131.18524 15.9191003,130.253397 C15.9191003,129.322623 16.6683366,128.567103 17.5913704,128.567103" id="Fill-77"></path>
                        <path d="M17.5913704,114.288851 C18.5154639,114.288851 19.2647003,115.044371 19.2647003,115.976214 C19.2647003,116.908057 18.5154639,117.662508 17.5913704,117.662508 C16.6683366,117.662508 15.9191003,116.908057 15.9191003,115.976214 C15.9191003,115.044371 16.6683366,114.288851 17.5913704,114.288851" id="Fill-79"></path>
                        <path d="M17.5913704,100.011668 C18.5154639,100.011668 19.2647003,100.767187 19.2647003,101.697962 C19.2647003,102.629805 18.5154639,103.385325 17.5913704,103.385325 C16.6683366,103.385325 15.9191003,102.629805 15.9191003,101.697962 C15.9191003,100.767187 16.6683366,100.011668 17.5913704,100.011668" id="Fill-81"></path>
                        <path d="M17.5913704,85.7333088 C18.5154639,85.7333088 19.2647003,86.4888284 19.2647003,87.4206716 C19.2647003,88.3525147 18.5154639,89.1069657 17.5913704,89.1069657 C16.6683366,89.1069657 15.9191003,88.3525147 15.9191003,87.4206716 C15.9191003,86.4888284 16.6683366,85.7333088 17.5913704,85.7333088" id="Fill-83"></path>
                        <path d="M17.5913704,71.4561255 C18.5154639,71.4561255 19.2647003,72.2105765 19.2647003,73.1424196 C19.2647003,74.0742627 18.5154639,74.8297824 17.5913704,74.8297824 C16.6683366,74.8297824 15.9191003,74.0742627 15.9191003,73.1424196 C15.9191003,72.2105765 16.6683366,71.4561255 17.5913704,71.4561255" id="Fill-85"></path>
                        <path d="M17.5913704,57.1778735 C18.5154639,57.1778735 19.2647003,57.9333931 19.2647003,58.8652363 C19.2647003,59.7960108 18.5154639,60.5515304 17.5913704,60.5515304 C16.6683366,60.5515304 15.9191003,59.7960108 15.9191003,58.8652363 C15.9191003,57.9333931 16.6683366,57.1778735 17.5913704,57.1778735" id="Fill-87"></path>
                        <path d="M17.5913704,42.9005833 C18.5154639,42.9005833 19.2647003,43.6550343 19.2647003,44.5868775 C19.2647003,45.5187206 18.5154639,46.2742402 17.5913704,46.2742402 C16.6683366,46.2742402 15.9191003,45.5187206 15.9191003,44.5868775 C15.9191003,43.6550343 16.6683366,42.9005833 17.5913704,42.9005833" id="Fill-89"></path>
                        <path d="M17.5913704,28.6223314 C18.5154639,28.6223314 19.2647003,29.377851 19.2647003,30.3096941 C19.2647003,31.2404686 18.5154639,31.9959882 17.5913704,31.9959882 C16.6683366,31.9959882 15.9191003,31.2404686 15.9191003,30.3096941 C15.9191003,29.377851 16.6683366,28.6223314 17.5913704,28.6223314" id="Fill-91"></path>
                        <path d="M17.5913704,14.3450412 C18.5154639,14.3450412 19.2647003,15.0994922 19.2647003,16.0313353 C19.2647003,16.9631784 18.5154639,17.718698 17.5913704,17.718698 C16.6683366,17.718698 15.9191003,16.9631784 15.9191003,16.0313353 C15.9191003,15.0994922 16.6683366,14.3450412 17.5913704,14.3450412" id="Fill-93"></path>
                        <path d="M17.5913704,0.0667892157 C18.5154639,0.0667892157 19.2647003,0.822308824 19.2647003,1.75415196 C19.2647003,2.68492647 18.5154639,3.44044608 17.5913704,3.44044608 C16.6683366,3.44044608 15.9191003,2.68492647 15.9191003,1.75415196 C15.9191003,0.822308824 16.6683366,0.0667892157 17.5913704,0.0667892157" id="Fill-95"></path>
                        <path d="M33.4088416,214.233729 C34.3318753,214.233729 35.0811117,214.989249 35.0811117,215.921092 C35.0811117,216.852935 34.3318753,217.607386 33.4088416,217.607386 C32.4847481,217.607386 31.7355117,216.852935 31.7355117,215.921092 C31.7355117,214.989249 32.4847481,214.233729 33.4088416,214.233729" id="Fill-97"></path>
                        <path d="M33.4088416,199.956439 C34.3318753,199.956439 35.0811117,200.71089 35.0811117,201.642733 C35.0811117,202.574576 34.3318753,203.330096 33.4088416,203.330096 C32.4847481,203.330096 31.7355117,202.574576 31.7355117,201.642733 C31.7355117,200.71089 32.4847481,199.956439 33.4088416,199.956439" id="Fill-99"></path>
                        <path d="M33.4088416,185.678187 C34.3318753,185.678187 35.0811117,186.433707 35.0811117,187.36555 C35.0811117,188.296325 34.3318753,189.051844 33.4088416,189.051844 C32.4847481,189.051844 31.7355117,188.296325 31.7355117,187.36555 C31.7355117,186.433707 32.4847481,185.678187 33.4088416,185.678187" id="Fill-101"></path>
                        <path d="M33.4088416,171.401004 C34.3318753,171.401004 35.0811117,172.155455 35.0811117,173.087298 C35.0811117,174.019141 34.3318753,174.774661 33.4088416,174.774661 C32.4847481,174.774661 31.7355117,174.019141 31.7355117,173.087298 C31.7355117,172.155455 32.4847481,171.401004 33.4088416,171.401004" id="Fill-103"></path>
                        <path d="M33.4088416,157.122645 C34.3318753,157.122645 35.0811117,157.878165 35.0811117,158.810008 C35.0811117,159.740782 34.3318753,160.496302 33.4088416,160.496302 C32.4847481,160.496302 31.7355117,159.740782 31.7355117,158.810008 C31.7355117,157.878165 32.4847481,157.122645 33.4088416,157.122645" id="Fill-105"></path>
                        <path d="M33.4088416,142.844393 C34.3318753,142.844393 35.0811117,143.599913 35.0811117,144.531756 C35.0811117,145.463599 34.3318753,146.219119 33.4088416,146.219119 C32.4847481,146.219119 31.7355117,145.463599 31.7355117,144.531756 C31.7355117,143.599913 32.4847481,142.844393 33.4088416,142.844393" id="Fill-107"></path>
                        <path d="M33.4088416,128.567103 C34.3318753,128.567103 35.0811117,129.322623 35.0811117,130.253397 C35.0811117,131.18524 34.3318753,131.94076 33.4088416,131.94076 C32.4847481,131.94076 31.7355117,131.18524 31.7355117,130.253397 C31.7355117,129.322623 32.4847481,128.567103 33.4088416,128.567103" id="Fill-109"></path>
                        <path d="M33.4088416,114.288851 C34.3318753,114.288851 35.0811117,115.044371 35.0811117,115.976214 C35.0811117,116.908057 34.3318753,117.662508 33.4088416,117.662508 C32.4847481,117.662508 31.7355117,116.908057 31.7355117,115.976214 C31.7355117,115.044371 32.4847481,114.288851 33.4088416,114.288851" id="Fill-111"></path>
                        <path d="M33.4088416,100.011668 C34.3318753,100.011668 35.0811117,100.767187 35.0811117,101.697962 C35.0811117,102.629805 34.3318753,103.385325 33.4088416,103.385325 C32.4847481,103.385325 31.7355117,102.629805 31.7355117,101.697962 C31.7355117,100.767187 32.4847481,100.011668 33.4088416,100.011668" id="Fill-113"></path>
                        <path d="M33.4088416,85.7333088 C34.3318753,85.7333088 35.0811117,86.4888284 35.0811117,87.4206716 C35.0811117,88.3525147 34.3318753,89.1069657 33.4088416,89.1069657 C32.4847481,89.1069657 31.7355117,88.3525147 31.7355117,87.4206716 C31.7355117,86.4888284 32.4847481,85.7333088 33.4088416,85.7333088" id="Fill-115"></path>
                        <path d="M33.4088416,71.4561255 C34.3318753,71.4561255 35.0811117,72.2105765 35.0811117,73.1424196 C35.0811117,74.0742627 34.3318753,74.8297824 33.4088416,74.8297824 C32.4847481,74.8297824 31.7355117,74.0742627 31.7355117,73.1424196 C31.7355117,72.2105765 32.4847481,71.4561255 33.4088416,71.4561255" id="Fill-117"></path>
                        <path d="M33.4088416,57.1778735 C34.3318753,57.1778735 35.0811117,57.9333931 35.0811117,58.8652363 C35.0811117,59.7960108 34.3318753,60.5515304 33.4088416,60.5515304 C32.4847481,60.5515304 31.7355117,59.7960108 31.7355117,58.8652363 C31.7355117,57.9333931 32.4847481,57.1778735 33.4088416,57.1778735" id="Fill-119"></path>
                        <path d="M33.4088416,42.9005833 C34.3318753,42.9005833 35.0811117,43.6550343 35.0811117,44.5868775 C35.0811117,45.5187206 34.3318753,46.2742402 33.4088416,46.2742402 C32.4847481,46.2742402 31.7355117,45.5187206 31.7355117,44.5868775 C31.7355117,43.6550343 32.4847481,42.9005833 33.4088416,42.9005833" id="Fill-121"></path>
                        <path d="M33.4088416,28.6223314 C34.3318753,28.6223314 35.0811117,29.377851 35.0811117,30.3096941 C35.0811117,31.2404686 34.3318753,31.9959882 33.4088416,31.9959882 C32.4847481,31.9959882 31.7355117,31.2404686 31.7355117,30.3096941 C31.7355117,29.377851 32.4847481,28.6223314 33.4088416,28.6223314" id="Fill-123"></path>
                        <path d="M33.4088416,14.3450412 C34.3318753,14.3450412 35.0811117,15.0994922 35.0811117,16.0313353 C35.0811117,16.9631784 34.3318753,17.718698 33.4088416,17.718698 C32.4847481,17.718698 31.7355117,16.9631784 31.7355117,16.0313353 C31.7355117,15.0994922 32.4847481,14.3450412 33.4088416,14.3450412" id="Fill-125"></path>
                        <path d="M33.4088416,0.0667892157 C34.3318753,0.0667892157 35.0811117,0.822308824 35.0811117,1.75415196 C35.0811117,2.68492647 34.3318753,3.44044608 33.4088416,3.44044608 C32.4847481,3.44044608 31.7355117,2.68492647 31.7355117,1.75415196 C31.7355117,0.822308824 32.4847481,0.0667892157 33.4088416,0.0667892157" id="Fill-127"></path>
                        <path d="M49.225253,214.233729 C50.1493465,214.233729 50.8985829,214.989249 50.8985829,215.921092 C50.8985829,216.852935 50.1493465,217.607386 49.225253,217.607386 C48.3011595,217.607386 47.5529829,216.852935 47.5529829,215.921092 C47.5529829,214.989249 48.3011595,214.233729 49.225253,214.233729" id="Fill-129"></path>
                        <path d="M49.225253,199.956439 C50.1493465,199.956439 50.8985829,200.71089 50.8985829,201.642733 C50.8985829,202.574576 50.1493465,203.330096 49.225253,203.330096 C48.3011595,203.330096 47.5529829,202.574576 47.5529829,201.642733 C47.5529829,200.71089 48.3011595,199.956439 49.225253,199.956439" id="Fill-131"></path>
                        <path d="M49.225253,185.678187 C50.1493465,185.678187 50.8985829,186.433707 50.8985829,187.36555 C50.8985829,188.296325 50.1493465,189.051844 49.225253,189.051844 C48.3011595,189.051844 47.5529829,188.296325 47.5529829,187.36555 C47.5529829,186.433707 48.3011595,185.678187 49.225253,185.678187" id="Fill-133"></path>
                        <path d="M49.225253,171.401004 C50.1493465,171.401004 50.8985829,172.155455 50.8985829,173.087298 C50.8985829,174.019141 50.1493465,174.774661 49.225253,174.774661 C48.3011595,174.774661 47.5529829,174.019141 47.5529829,173.087298 C47.5529829,172.155455 48.3011595,171.401004 49.225253,171.401004" id="Fill-135"></path>
                        <path d="M49.225253,157.122645 C50.1493465,157.122645 50.8985829,157.878165 50.8985829,158.810008 C50.8985829,159.740782 50.1493465,160.496302 49.225253,160.496302 C48.3011595,160.496302 47.5529829,159.740782 47.5529829,158.810008 C47.5529829,157.878165 48.3011595,157.122645 49.225253,157.122645" id="Fill-137"></path>
                        <path d="M49.225253,142.844393 C50.1493465,142.844393 50.8985829,143.599913 50.8985829,144.531756 C50.8985829,145.463599 50.1493465,146.219119 49.225253,146.219119 C48.3011595,146.219119 47.5529829,145.463599 47.5529829,144.531756 C47.5529829,143.599913 48.3011595,142.844393 49.225253,142.844393" id="Fill-139"></path>
                        <path d="M49.225253,128.567103 C50.1493465,128.567103 50.8985829,129.322623 50.8985829,130.253397 C50.8985829,131.18524 50.1493465,131.94076 49.225253,131.94076 C48.3011595,131.94076 47.5529829,131.18524 47.5529829,130.253397 C47.5529829,129.322623 48.3011595,128.567103 49.225253,128.567103" id="Fill-141"></path>
                        <path d="M49.225253,114.288851 C50.1493465,114.288851 50.8985829,115.044371 50.8985829,115.976214 C50.8985829,116.908057 50.1493465,117.662508 49.225253,117.662508 C48.3011595,117.662508 47.5529829,116.908057 47.5529829,115.976214 C47.5529829,115.044371 48.3011595,114.288851 49.225253,114.288851" id="Fill-143"></path>
                        <path d="M49.225253,100.011668 C50.1493465,100.011668 50.8985829,100.767187 50.8985829,101.697962 C50.8985829,102.629805 50.1493465,103.385325 49.225253,103.385325 C48.3011595,103.385325 47.5529829,102.629805 47.5529829,101.697962 C47.5529829,100.767187 48.3011595,100.011668 49.225253,100.011668" id="Fill-145"></path>
                        <path d="M49.225253,85.7333088 C50.1493465,85.7333088 50.8985829,86.4888284 50.8985829,87.4206716 C50.8985829,88.3525147 50.1493465,89.1069657 49.225253,89.1069657 C48.3011595,89.1069657 47.5529829,88.3525147 47.5529829,87.4206716 C47.5529829,86.4888284 48.3011595,85.7333088 49.225253,85.7333088" id="Fill-147"></path>
                        <path d="M49.225253,71.4561255 C50.1493465,71.4561255 50.8985829,72.2105765 50.8985829,73.1424196 C50.8985829,74.0742627 50.1493465,74.8297824 49.225253,74.8297824 C48.3011595,74.8297824 47.5529829,74.0742627 47.5529829,73.1424196 C47.5529829,72.2105765 48.3011595,71.4561255 49.225253,71.4561255" id="Fill-149"></path>
                        <path d="M49.225253,57.1778735 C50.1493465,57.1778735 50.8985829,57.9333931 50.8985829,58.8652363 C50.8985829,59.7960108 50.1493465,60.5515304 49.225253,60.5515304 C48.3011595,60.5515304 47.5529829,59.7960108 47.5529829,58.8652363 C47.5529829,57.9333931 48.3011595,57.1778735 49.225253,57.1778735" id="Fill-151"></path>
                        <path d="M49.225253,42.9005833 C50.1493465,42.9005833 50.8985829,43.6550343 50.8985829,44.5868775 C50.8985829,45.5187206 50.1493465,46.2742402 49.225253,46.2742402 C48.3011595,46.2742402 47.5529829,45.5187206 47.5529829,44.5868775 C47.5529829,43.6550343 48.3011595,42.9005833 49.225253,42.9005833" id="Fill-153"></path>
                        <path d="M49.225253,28.6223314 C50.1493465,28.6223314 50.8985829,29.377851 50.8985829,30.3096941 C50.8985829,31.2404686 50.1493465,31.9959882 49.225253,31.9959882 C48.3011595,31.9959882 47.5529829,31.2404686 47.5529829,30.3096941 C47.5529829,29.377851 48.3011595,28.6223314 49.225253,28.6223314" id="Fill-155"></path>
                        <path d="M49.225253,14.3450412 C50.1493465,14.3450412 50.8985829,15.0994922 50.8985829,16.0313353 C50.8985829,16.9631784 50.1493465,17.718698 49.225253,17.718698 C48.3011595,17.718698 47.5529829,16.9631784 47.5529829,16.0313353 C47.5529829,15.0994922 48.3011595,14.3450412 49.225253,14.3450412" id="Fill-157"></path>
                        <path d="M49.225253,0.0667892157 C50.1493465,0.0667892157 50.8985829,0.822308824 50.8985829,1.75415196 C50.8985829,2.68492647 50.1493465,3.44044608 49.225253,3.44044608 C48.3011595,3.44044608 47.5529829,2.68492647 47.5529829,1.75415196 C47.5529829,0.822308824 48.3011595,0.0667892157 49.225253,0.0667892157" id="Fill-159"></path>
                    </g>
                </g>
            </g>
        </g>
    </g>
</svg>