<svg width="562" height="334" viewBox="0 0 562 334" fill="none" xmlns="http://www.w3.org/2000/svg">
<g filter="url(#filter0_d)">
<rect x="9" y="6" width="544" height="316" fill="white"/>
</g>
<path d="M69.7939 72.3298C72.624 72.3298 74.707 70.6599 75.0586 68.155H73.0986C72.7471 69.5876 71.4727 70.4929 69.7939 70.4929C67.5088 70.4929 66.085 68.6384 66.085 65.6853C66.085 62.7234 67.5088 60.8689 69.7852 60.8689C71.4551 60.8689 72.7295 61.8708 73.0986 63.4265H75.0586C74.7422 60.8425 72.5801 59.032 69.7852 59.032C66.2607 59.032 64.0723 61.572 64.0723 65.6853C64.0723 69.7898 66.2695 72.3298 69.7939 72.3298ZM77.0195 72.0222H78.9092V66.4324C78.9092 64.9822 79.7705 64.0066 81.3174 64.0066C82.6533 64.0066 83.3652 64.78 83.3652 66.3093V72.0222H85.2549V65.8435C85.2549 63.5671 83.998 62.2751 81.959 62.2751C80.5176 62.2751 79.5068 62.9167 79.041 63.989H78.8916V58.7156H77.0195V72.0222ZM91.4609 72.2068C94.2559 72.2068 95.9697 70.3347 95.9697 67.2322C95.9697 64.1472 94.2471 62.2664 91.4609 62.2664C88.666 62.2664 86.9434 64.1472 86.9434 67.2322C86.9434 70.3347 88.6572 72.2068 91.4609 72.2068ZM91.4609 70.5281C89.8174 70.5281 88.8945 69.324 88.8945 67.2322C88.8945 65.158 89.8174 63.9451 91.4609 63.9451C93.0957 63.9451 94.0273 65.158 94.0273 67.2322C94.0273 69.3152 93.0957 70.5281 91.4609 70.5281ZM101.789 72.2068C104.584 72.2068 106.298 70.3347 106.298 67.2322C106.298 64.1472 104.575 62.2664 101.789 62.2664C98.9941 62.2664 97.2715 64.1472 97.2715 67.2322C97.2715 70.3347 98.9854 72.2068 101.789 72.2068ZM101.789 70.5281C100.146 70.5281 99.2227 69.324 99.2227 67.2322C99.2227 65.158 100.146 63.9451 101.789 63.9451C103.424 63.9451 104.355 65.158 104.355 67.2322C104.355 69.3152 103.424 70.5281 101.789 70.5281ZM107.854 65.158C107.854 66.5818 108.698 67.3992 110.518 67.8298L112.188 68.2166C113.146 68.4451 113.594 68.8142 113.594 69.3855C113.594 70.1501 112.759 70.6775 111.581 70.6775C110.438 70.6775 109.735 70.2205 109.498 69.4822H107.608C107.775 71.1785 109.261 72.2068 111.537 72.2068C113.822 72.2068 115.501 71.0027 115.501 69.2009C115.501 67.7947 114.648 67.0125 112.829 66.5906L111.238 66.2214C110.201 65.9841 109.718 65.6238 109.718 65.0525C109.718 64.3054 110.518 63.8044 111.572 63.8044C112.645 63.8044 113.33 64.2527 113.506 64.9558H115.316C115.132 63.2683 113.726 62.2664 111.572 62.2664C109.41 62.2664 107.854 63.4617 107.854 65.158ZM121.206 63.8748C122.604 63.8748 123.518 64.8503 123.562 66.3533H118.728C118.833 64.8591 119.809 63.8748 121.206 63.8748ZM123.553 69.4382C123.201 70.1853 122.419 70.5984 121.276 70.5984C119.765 70.5984 118.789 69.5349 118.728 67.8562V67.7507H125.486V67.0916C125.486 64.0857 123.878 62.2664 121.215 62.2664C118.517 62.2664 116.803 64.2087 116.803 67.2673C116.803 70.3259 118.481 72.2068 121.224 72.2068C123.412 72.2068 124.959 71.1433 125.372 69.4382H123.553ZM131.764 72.0222H133.653V66.4324C133.653 64.9822 134.515 64.0066 136.062 64.0066C137.397 64.0066 138.109 64.78 138.109 66.3093V72.0222H139.999V65.8435C139.999 63.5671 138.742 62.2751 136.703 62.2751C135.262 62.2751 134.251 62.9167 133.785 63.989H133.636V58.7156H131.764V72.0222ZM146.205 72.2068C149 72.2068 150.714 70.3347 150.714 67.2322C150.714 64.1472 148.991 62.2664 146.205 62.2664C143.41 62.2664 141.688 64.1472 141.688 67.2322C141.688 70.3347 143.401 72.2068 146.205 72.2068ZM146.205 70.5281C144.562 70.5281 143.639 69.324 143.639 67.2322C143.639 65.158 144.562 63.9451 146.205 63.9451C147.84 63.9451 148.771 65.158 148.771 67.2322C148.771 69.3152 147.84 70.5281 146.205 70.5281ZM164.584 62.4509H162.694L160.989 69.7546H160.84L158.871 62.4509H157.061L155.092 69.7546H154.951L153.237 62.4509H151.321L153.958 72.0222H155.9L157.869 64.9734H158.019L159.996 72.0222H161.956L164.584 62.4509ZM171.406 75.4939C173.357 75.4939 174.263 74.7468 175.08 72.4177L178.648 62.4509H176.645L174.254 70.0535H174.104L171.705 62.4509H169.648L173.111 72.0574L172.971 72.5232C172.646 73.49 172.136 73.8591 171.239 73.8591C171.063 73.8591 170.773 73.8503 170.624 73.824V75.45C170.8 75.4763 171.248 75.4939 171.406 75.4939ZM183.756 72.2068C186.551 72.2068 188.265 70.3347 188.265 67.2322C188.265 64.1472 186.542 62.2664 183.756 62.2664C180.961 62.2664 179.238 64.1472 179.238 67.2322C179.238 70.3347 180.952 72.2068 183.756 72.2068ZM183.756 70.5281C182.112 70.5281 181.189 69.324 181.189 67.2322C181.189 65.158 182.112 63.9451 183.756 63.9451C185.391 63.9451 186.322 65.158 186.322 67.2322C186.322 69.3152 185.391 70.5281 183.756 70.5281ZM198.109 62.4509H196.22V68.0496C196.22 69.5525 195.385 70.4578 193.855 70.4578C192.467 70.4578 191.843 69.7195 191.843 68.1726V62.4509H189.953V68.6648C189.953 70.9148 191.131 72.2068 193.249 72.2068C194.699 72.2068 195.675 71.5916 196.141 70.5017H196.29V72.0222H198.109V62.4509ZM204.861 72.0222H206.751V66.4324C206.751 64.9822 207.612 64.0066 209.159 64.0066C210.495 64.0066 211.207 64.78 211.207 66.3093V72.0222H213.097V65.8435C213.097 63.5671 211.84 62.2751 209.801 62.2751C208.359 62.2751 207.349 62.9167 206.883 63.989H206.733V58.7156H204.861V72.0222ZM218.389 70.5896C217.36 70.5896 216.613 70.0886 216.613 69.2273C216.613 68.3835 217.211 67.9353 218.529 67.8474L220.867 67.698V68.4978C220.867 69.6843 219.812 70.5896 218.389 70.5896ZM217.905 72.1804C219.162 72.1804 220.208 71.6355 220.779 70.6775H220.929V72.0222H222.748V65.4832C222.748 63.4617 221.395 62.2664 218.995 62.2664C216.824 62.2664 215.277 63.321 215.084 64.9646H216.912C217.123 64.2878 217.853 63.9011 218.907 63.9011C220.199 63.9011 220.867 64.4724 220.867 65.4832V66.3093L218.274 66.4587C215.998 66.5994 214.715 67.5925 214.715 69.3152C214.715 71.0642 216.06 72.1804 217.905 72.1804ZM224.938 72.0222H226.827V66.4236C226.827 64.9294 227.715 63.9978 229.112 63.9978C230.51 63.9978 231.178 64.7625 231.178 66.3005V72.0222H233.067V65.8259C233.067 63.5496 231.89 62.2664 229.754 62.2664C228.312 62.2664 227.363 62.908 226.897 63.9714H226.757V62.4509H224.938V72.0222ZM238.729 72.1804C240.047 72.1804 241.163 71.5564 241.734 70.5105H241.884V72.0222H243.694V58.7156H241.805V63.9714H241.664C241.146 62.9167 240.038 62.2927 238.729 62.2927C236.312 62.2927 234.756 64.2087 234.756 67.2322C234.756 70.2644 236.294 72.1804 238.729 72.1804ZM239.265 63.989C240.847 63.989 241.84 65.2458 241.84 67.241C241.84 69.2449 240.855 70.4841 239.265 70.4841C237.665 70.4841 236.707 69.2625 236.707 67.2322C236.707 65.2195 237.674 63.989 239.265 63.989ZM246.121 72.0222H248.011V58.7156H246.121V72.0222ZM254.278 63.8748C255.676 63.8748 256.59 64.8503 256.634 66.3533H251.8C251.905 64.8591 252.881 63.8748 254.278 63.8748ZM256.625 69.4382C256.273 70.1853 255.491 70.5984 254.349 70.5984C252.837 70.5984 251.861 69.5349 251.8 67.8562V67.7507H258.559V67.0916C258.559 64.0857 256.95 62.2664 254.287 62.2664C251.589 62.2664 249.875 64.2087 249.875 67.2673C249.875 70.3259 251.554 72.2068 254.296 72.2068C256.484 72.2068 258.031 71.1433 258.444 69.4382H256.625ZM265.416 60.0691V62.4949H263.896V64.0857H265.416V69.491C265.416 71.3367 266.251 72.075 268.352 72.075C268.721 72.075 269.072 72.031 269.38 71.9783V70.405C269.116 70.4314 268.949 70.449 268.659 70.449C267.719 70.449 267.306 70.0095 267.306 69.0076V64.0857H269.38V62.4949H267.306V60.0691H265.416ZM271.191 72.0222H273.081V66.4324C273.081 64.9822 273.942 64.0066 275.489 64.0066C276.825 64.0066 277.537 64.78 277.537 66.3093V72.0222H279.427V65.8435C279.427 63.5671 278.17 62.2751 276.131 62.2751C274.689 62.2751 273.679 62.9167 273.213 63.989H273.063V58.7156H271.191V72.0222ZM285.519 63.8748C286.916 63.8748 287.83 64.8503 287.874 66.3533H283.04C283.146 64.8591 284.121 63.8748 285.519 63.8748ZM287.865 69.4382C287.514 70.1853 286.731 70.5984 285.589 70.5984C284.077 70.5984 283.102 69.5349 283.04 67.8562V67.7507H289.799V67.0916C289.799 64.0857 288.19 62.2664 285.527 62.2664C282.829 62.2664 281.115 64.2087 281.115 67.2673C281.115 70.3259 282.794 72.2068 285.536 72.2068C287.725 72.2068 289.271 71.1433 289.685 69.4382H287.865ZM299.117 70.5896C298.089 70.5896 297.342 70.0886 297.342 69.2273C297.342 68.3835 297.939 67.9353 299.258 67.8474L301.596 67.698V68.4978C301.596 69.6843 300.541 70.5896 299.117 70.5896ZM298.634 72.1804C299.891 72.1804 300.937 71.6355 301.508 70.6775H301.657V72.0222H303.477V65.4832C303.477 63.4617 302.123 62.2664 299.724 62.2664C297.553 62.2664 296.006 63.321 295.812 64.9646H297.641C297.852 64.2878 298.581 63.9011 299.636 63.9011C300.928 63.9011 301.596 64.4724 301.596 65.4832V66.3093L299.003 66.4587C296.727 66.5994 295.443 67.5925 295.443 69.3152C295.443 71.0642 296.788 72.1804 298.634 72.1804ZM306.343 72.0222H308.232V64.0857H310.342V62.4949H308.206V61.5808C308.206 60.6316 308.637 60.157 309.691 60.157C309.99 60.157 310.245 60.1746 310.421 60.2097V58.7244C310.096 58.6628 309.727 58.6277 309.296 58.6277C307.31 58.6277 306.343 59.5593 306.343 61.4666V62.4949H304.77V64.0857H306.343V72.0222ZM312.698 72.0222H314.588V64.0857H316.697V62.4949H314.562V61.5808C314.562 60.6316 314.992 60.157 316.047 60.157C316.346 60.157 316.601 60.1746 316.776 60.2097V58.7244C316.451 58.6628 316.082 58.6277 315.651 58.6277C313.665 58.6277 312.698 59.5593 312.698 61.4666V62.4949H311.125V64.0857H312.698V72.0222ZM321.901 63.8748C323.299 63.8748 324.213 64.8503 324.257 66.3533H319.423C319.528 64.8591 320.504 63.8748 321.901 63.8748ZM324.248 69.4382C323.896 70.1853 323.114 70.5984 321.972 70.5984C320.46 70.5984 319.484 69.5349 319.423 67.8562V67.7507H326.182V67.0916C326.182 64.0857 324.573 62.2664 321.91 62.2664C319.212 62.2664 317.498 64.2087 317.498 67.2673C317.498 70.3259 319.177 72.2068 321.919 72.2068C324.107 72.2068 325.654 71.1433 326.067 69.4382H324.248ZM336.053 65.5798C335.807 63.6638 334.356 62.2664 331.957 62.2664C329.171 62.2664 327.475 64.1384 327.475 67.2058C327.475 70.3259 329.18 72.2068 331.966 72.2068C334.33 72.2068 335.807 70.8708 336.053 68.946H334.216C333.97 69.9744 333.152 70.5193 331.957 70.5193C330.384 70.5193 329.408 69.28 329.408 67.2058C329.408 65.1667 330.375 63.9539 331.957 63.9539C333.223 63.9539 333.996 64.6482 334.216 65.5798H336.053ZM338.523 60.0691V62.4949H337.003V64.0857H338.523V69.491C338.523 71.3367 339.358 72.075 341.459 72.075C341.828 72.075 342.18 72.031 342.487 71.9783V70.405C342.224 70.4314 342.057 70.449 341.767 70.449C340.826 70.449 340.413 70.0095 340.413 69.0076V64.0857H342.487V62.4949H340.413V60.0691H338.523ZM348.034 63.8748C349.432 63.8748 350.346 64.8503 350.39 66.3533H345.556C345.661 64.8591 346.637 63.8748 348.034 63.8748ZM350.381 69.4382C350.029 70.1853 349.247 70.5984 348.104 70.5984C346.593 70.5984 345.617 69.5349 345.556 67.8562V67.7507H352.314V67.0916C352.314 64.0857 350.706 62.2664 348.043 62.2664C345.345 62.2664 343.631 64.2087 343.631 67.2673C343.631 70.3259 345.31 72.2068 348.052 72.2068C350.24 72.2068 351.787 71.1433 352.2 69.4382H350.381ZM357.58 72.1804C358.898 72.1804 360.015 71.5564 360.586 70.5105H360.735V72.0222H362.546V58.7156H360.656V63.9714H360.516C359.997 62.9167 358.89 62.2927 357.58 62.2927C355.163 62.2927 353.607 64.2087 353.607 67.2322C353.607 70.2644 355.146 72.1804 357.58 72.1804ZM358.116 63.989C359.698 63.989 360.691 65.2458 360.691 67.241C360.691 69.2449 359.707 70.4841 358.116 70.4841C356.517 70.4841 355.559 69.2625 355.559 67.2322C355.559 65.2195 356.525 63.989 358.116 63.989ZM369.087 65.158C369.087 66.5818 369.931 67.3992 371.75 67.8298L373.42 68.2166C374.378 68.4451 374.826 68.8142 374.826 69.3855C374.826 70.1501 373.991 70.6775 372.813 70.6775C371.671 70.6775 370.968 70.2205 370.73 69.4822H368.841C369.008 71.1785 370.493 72.2068 372.77 72.2068C375.055 72.2068 376.733 71.0027 376.733 69.2009C376.733 67.7947 375.881 67.0125 374.062 66.5906L372.471 66.2214C371.434 65.9841 370.95 65.6238 370.95 65.0525C370.95 64.3054 371.75 63.8044 372.805 63.8044C373.877 63.8044 374.562 64.2527 374.738 64.9558H376.549C376.364 63.2683 374.958 62.2664 372.805 62.2664C370.643 62.2664 369.087 63.4617 369.087 65.158ZM386.578 62.4509H384.688V68.0496C384.688 69.5525 383.854 70.4578 382.324 70.4578C380.936 70.4578 380.312 69.7195 380.312 68.1726V62.4509H378.422V68.6648C378.422 70.9148 379.6 72.2068 381.718 72.2068C383.168 72.2068 384.144 71.5916 384.609 70.5017H384.759V72.0222H386.578V62.4509ZM393.892 72.1804C396.309 72.1804 397.847 70.2644 397.847 67.2322C397.847 64.1912 396.317 62.2927 393.892 62.2927C392.582 62.2927 391.457 62.9255 390.947 63.9714H390.798V58.7156H388.908V72.0222H390.728V70.5105H390.868C391.439 71.5652 392.556 72.1804 393.892 72.1804ZM393.347 63.989C394.946 63.989 395.904 65.2195 395.904 67.2322C395.904 69.2625 394.946 70.4841 393.347 70.4841C391.756 70.4841 390.771 69.2449 390.763 67.241C390.771 65.2371 391.765 63.989 393.347 63.989ZM399.403 65.158C399.403 66.5818 400.247 67.3992 402.066 67.8298L403.736 68.2166C404.694 68.4451 405.143 68.8142 405.143 69.3855C405.143 70.1501 404.308 70.6775 403.13 70.6775C401.987 70.6775 401.284 70.2205 401.047 69.4822H399.157C399.324 71.1785 400.81 72.2068 403.086 72.2068C405.371 72.2068 407.05 71.0027 407.05 69.2009C407.05 67.7947 406.197 67.0125 404.378 66.5906L402.787 66.2214C401.75 65.9841 401.267 65.6238 401.267 65.0525C401.267 64.3054 402.066 63.8044 403.121 63.8044C404.193 63.8044 404.879 64.2527 405.055 64.9558H406.865C406.681 63.2683 405.274 62.2664 403.121 62.2664C400.959 62.2664 399.403 63.4617 399.403 65.158ZM416.93 65.5798C416.684 63.6638 415.233 62.2664 412.834 62.2664C410.048 62.2664 408.352 64.1384 408.352 67.2058C408.352 70.3259 410.057 72.2068 412.843 72.2068C415.207 72.2068 416.684 70.8708 416.93 68.946H415.093C414.847 69.9744 414.029 70.5193 412.834 70.5193C411.261 70.5193 410.285 69.28 410.285 67.2058C410.285 65.1667 411.252 63.9539 412.834 63.9539C414.1 63.9539 414.873 64.6482 415.093 65.5798H416.93ZM418.592 72.0222H420.481V66.3708C420.481 65.0261 421.492 64.1208 422.925 64.1208C423.259 64.1208 423.821 64.1824 423.979 64.2351V62.3718C423.777 62.3191 423.417 62.2927 423.136 62.2927C421.888 62.2927 420.824 62.9783 420.552 63.9187H420.411V62.4509H418.592V72.0222ZM425.334 72.0222H427.215V62.4509H425.334V72.0222ZM426.274 60.7898C426.934 60.7898 427.47 60.2361 427.47 59.5593C427.47 58.8738 426.934 58.3201 426.274 58.3201C425.615 58.3201 425.079 58.8738 425.079 59.5593C425.079 60.2361 425.615 60.7898 426.274 60.7898ZM434.458 62.2927C433.157 62.2927 432.032 62.9431 431.452 64.033H431.312V62.4509H429.492V75.2039H431.382V70.572H431.531C432.032 71.5828 433.113 72.1804 434.476 72.1804C436.893 72.1804 438.431 70.2732 438.431 67.2322C438.431 64.1912 436.893 62.2927 434.458 62.2927ZM433.922 70.4841C432.34 70.4841 431.347 69.2361 431.347 67.241C431.347 65.2371 432.34 63.989 433.931 63.989C435.53 63.989 436.488 65.2107 436.488 67.2322C436.488 69.2625 435.53 70.4841 433.922 70.4841ZM440.875 60.0691V62.4949H439.354V64.0857H440.875V69.491C440.875 71.3367 441.71 72.075 443.811 72.075C444.18 72.075 444.531 72.031 444.839 71.9783V70.405C444.575 70.4314 444.408 70.449 444.118 70.449C443.178 70.449 442.765 70.0095 442.765 69.0076V64.0857H444.839V62.4949H442.765V60.0691H440.875ZM446.598 72.0222H448.479V62.4509H446.598V72.0222ZM447.538 60.7898C448.197 60.7898 448.733 60.2361 448.733 59.5593C448.733 58.8738 448.197 58.3201 447.538 58.3201C446.879 58.3201 446.343 58.8738 446.343 59.5593C446.343 60.2361 446.879 60.7898 447.538 60.7898ZM454.799 72.2068C457.594 72.2068 459.308 70.3347 459.308 67.2322C459.308 64.1472 457.585 62.2664 454.799 62.2664C452.004 62.2664 450.281 64.1472 450.281 67.2322C450.281 70.3347 451.995 72.2068 454.799 72.2068ZM454.799 70.5281C453.155 70.5281 452.232 69.324 452.232 67.2322C452.232 65.158 453.155 63.9451 454.799 63.9451C456.434 63.9451 457.365 65.158 457.365 67.2322C457.365 69.3152 456.434 70.5281 454.799 70.5281ZM461.084 72.0222H462.974V66.4236C462.974 64.9294 463.861 63.9978 465.259 63.9978C466.656 63.9978 467.324 64.7625 467.324 66.3005V72.0222H469.214V65.8259C469.214 63.5496 468.036 62.2664 465.9 62.2664C464.459 62.2664 463.51 62.908 463.044 63.9714H462.903V62.4509H461.084V72.0222ZM471.157 65.158C471.157 66.5818 472.001 67.3992 473.82 67.8298L475.49 68.2166C476.448 68.4451 476.896 68.8142 476.896 69.3855C476.896 70.1501 476.062 70.6775 474.884 70.6775C473.741 70.6775 473.038 70.2205 472.801 69.4822H470.911C471.078 71.1785 472.563 72.2068 474.84 72.2068C477.125 72.2068 478.804 71.0027 478.804 69.2009C478.804 67.7947 477.951 67.0125 476.132 66.5906L474.541 66.2214C473.504 65.9841 473.021 65.6238 473.021 65.0525C473.021 64.3054 473.82 63.8044 474.875 63.8044C475.947 63.8044 476.633 64.2527 476.809 64.9558H478.619C478.435 63.2683 477.028 62.2664 474.875 62.2664C472.713 62.2664 471.157 63.4617 471.157 65.158Z" fill="#666677"/>
<path d="M69.0391 238.144C71.5547 238.144 73.4062 236.66 73.7188 234.433H71.9766C71.6641 235.707 70.5312 236.511 69.0391 236.511C67.0078 236.511 65.7422 234.863 65.7422 232.238C65.7422 229.605 67.0078 227.957 69.0312 227.957C70.5156 227.957 71.6484 228.847 71.9766 230.23H73.7188C73.4375 227.933 71.5156 226.324 69.0312 226.324C65.8984 226.324 63.9531 228.582 63.9531 232.238C63.9531 235.886 65.9062 238.144 69.0391 238.144ZM78.9219 238.035C81.4062 238.035 82.9297 236.371 82.9297 233.613C82.9297 230.871 81.3984 229.199 78.9219 229.199C76.4375 229.199 74.9062 230.871 74.9062 233.613C74.9062 236.371 76.4297 238.035 78.9219 238.035ZM78.9219 236.542C77.4609 236.542 76.6406 235.472 76.6406 233.613C76.6406 231.769 77.4609 230.691 78.9219 230.691C80.375 230.691 81.2031 231.769 81.2031 233.613C81.2031 235.464 80.375 236.542 78.9219 236.542ZM84.4531 237.871H86.1328V232.894C86.1328 231.566 86.9219 230.738 88.1641 230.738C89.4062 230.738 90 231.417 90 232.785V237.871H91.6797V232.363C91.6797 230.339 90.6328 229.199 88.7344 229.199C87.4531 229.199 86.6094 229.769 86.1953 230.714H86.0703V229.363H84.4531V237.871ZM94.1484 237.871H95.8281V230.816H97.7031V229.402H95.8047V228.589C95.8047 227.746 96.1875 227.324 97.125 227.324C97.3906 227.324 97.6172 227.339 97.7734 227.371V226.05C97.4844 225.996 97.1562 225.964 96.7734 225.964C95.0078 225.964 94.1484 226.792 94.1484 228.488V229.402H92.75V230.816H94.1484V237.871ZM99.1406 237.871H100.812V229.363H99.1406V237.871ZM99.9766 227.886C100.562 227.886 101.039 227.394 101.039 226.792C101.039 226.183 100.562 225.691 99.9766 225.691C99.3906 225.691 98.9141 226.183 98.9141 226.792C98.9141 227.394 99.3906 227.886 99.9766 227.886ZM106.344 236.292C104.898 236.292 104.086 235.207 104.086 233.511C104.086 231.816 104.898 230.73 106.344 230.73C107.773 230.73 108.648 231.816 108.648 233.511C108.648 235.214 107.781 236.292 106.344 236.292ZM106.367 241.121C108.773 241.121 110.297 239.886 110.297 237.941V229.363H108.688V230.722H108.555C108.078 229.8 107.055 229.222 105.883 229.222C103.711 229.222 102.352 230.925 102.352 233.519C102.352 236.066 103.695 237.746 105.867 237.746C107.039 237.746 107.977 237.238 108.492 236.316H108.617V237.949C108.617 239.074 107.789 239.738 106.391 239.738C105.258 239.738 104.547 239.339 104.406 238.722H102.688C102.867 240.167 104.242 241.121 106.367 241.121ZM119.406 229.363H117.727V234.339C117.727 235.675 116.984 236.48 115.625 236.48C114.391 236.48 113.836 235.824 113.836 234.449V229.363H112.156V234.886C112.156 236.886 113.203 238.035 115.086 238.035C116.375 238.035 117.242 237.488 117.656 236.519H117.789V237.871H119.406V229.363ZM121.344 237.871H123.023V232.847C123.023 231.652 123.922 230.847 125.195 230.847C125.492 230.847 125.992 230.902 126.133 230.949V229.292C125.953 229.246 125.633 229.222 125.383 229.222C124.273 229.222 123.328 229.832 123.086 230.667H122.961V229.363H121.344V237.871ZM130.523 230.628C131.766 230.628 132.578 231.496 132.617 232.832H128.32C128.414 231.503 129.281 230.628 130.523 230.628ZM132.609 235.574C132.297 236.238 131.602 236.605 130.586 236.605C129.242 236.605 128.375 235.66 128.32 234.167V234.074H134.328V233.488C134.328 230.816 132.898 229.199 130.531 229.199C128.133 229.199 126.609 230.925 126.609 233.644C126.609 236.363 128.102 238.035 130.539 238.035C132.484 238.035 133.859 237.089 134.227 235.574H132.609ZM150.797 229.363H149.117L147.602 235.855H147.469L145.719 229.363H144.109L142.359 235.855H142.234L140.711 229.363H139.008L141.352 237.871H143.078L144.828 231.605H144.961L146.719 237.871H148.461L150.797 229.363ZM152.109 237.871H153.789V232.902C153.789 231.613 154.555 230.746 155.93 230.746C157.117 230.746 157.75 231.433 157.75 232.792V237.871H159.43V232.378C159.43 230.355 158.312 229.207 156.5 229.207C155.219 229.207 154.32 229.777 153.906 230.73H153.773V226.042H152.109V237.871ZM164.078 236.597C163.164 236.597 162.5 236.152 162.5 235.386C162.5 234.636 163.031 234.238 164.203 234.16L166.281 234.027V234.738C166.281 235.792 165.344 236.597 164.078 236.597ZM163.648 238.011C164.766 238.011 165.695 237.527 166.203 236.675H166.336V237.871H167.953V232.058C167.953 230.261 166.75 229.199 164.617 229.199C162.688 229.199 161.312 230.136 161.141 231.597H162.766C162.953 230.996 163.602 230.652 164.539 230.652C165.688 230.652 166.281 231.16 166.281 232.058V232.792L163.977 232.925C161.953 233.05 160.812 233.933 160.812 235.464C160.812 237.019 162.008 238.011 163.648 238.011ZM170.438 227.246V229.402H169.086V230.816H170.438V235.621C170.438 237.261 171.18 237.917 173.047 237.917C173.375 237.917 173.688 237.878 173.961 237.832V236.433C173.727 236.457 173.578 236.472 173.32 236.472C172.484 236.472 172.117 236.082 172.117 235.191V230.816H173.961V229.402H172.117V227.246H170.438ZM179.391 237.871H181.07V232.902C181.07 231.613 181.836 230.746 183.211 230.746C184.398 230.746 185.031 231.433 185.031 232.792V237.871H186.711V232.378C186.711 230.355 185.594 229.207 183.781 229.207C182.5 229.207 181.602 229.777 181.188 230.73H181.055V226.042H179.391V237.871ZM191.359 236.597C190.445 236.597 189.781 236.152 189.781 235.386C189.781 234.636 190.312 234.238 191.484 234.16L193.562 234.027V234.738C193.562 235.792 192.625 236.597 191.359 236.597ZM190.93 238.011C192.047 238.011 192.977 237.527 193.484 236.675H193.617V237.871H195.234V232.058C195.234 230.261 194.031 229.199 191.898 229.199C189.969 229.199 188.594 230.136 188.422 231.597H190.047C190.234 230.996 190.883 230.652 191.82 230.652C192.969 230.652 193.562 231.16 193.562 232.058V232.792L191.258 232.925C189.234 233.05 188.094 233.933 188.094 235.464C188.094 237.019 189.289 238.011 190.93 238.011ZM201.539 229.222C200.383 229.222 199.383 229.8 198.867 230.769H198.742V229.363H197.125V240.699H198.805V236.582H198.938C199.383 237.48 200.344 238.011 201.555 238.011C203.703 238.011 205.07 236.316 205.07 233.613C205.07 230.91 203.703 229.222 201.539 229.222ZM201.062 236.503C199.656 236.503 198.773 235.394 198.773 233.621C198.773 231.839 199.656 230.73 201.07 230.73C202.492 230.73 203.344 231.816 203.344 233.613C203.344 235.417 202.492 236.503 201.062 236.503ZM211.008 229.222C209.852 229.222 208.852 229.8 208.336 230.769H208.211V229.363H206.594V240.699H208.273V236.582H208.406C208.852 237.48 209.812 238.011 211.023 238.011C213.172 238.011 214.539 236.316 214.539 233.613C214.539 230.91 213.172 229.222 211.008 229.222ZM210.531 236.503C209.125 236.503 208.242 235.394 208.242 233.621C208.242 231.839 209.125 230.73 210.539 230.73C211.961 230.73 212.812 231.816 212.812 233.613C212.812 235.417 211.961 236.503 210.531 236.503ZM219.555 230.628C220.797 230.628 221.609 231.496 221.648 232.832H217.352C217.445 231.503 218.312 230.628 219.555 230.628ZM221.641 235.574C221.328 236.238 220.633 236.605 219.617 236.605C218.273 236.605 217.406 235.66 217.352 234.167V234.074H223.359V233.488C223.359 230.816 221.93 229.199 219.562 229.199C217.164 229.199 215.641 230.925 215.641 233.644C215.641 236.363 217.133 238.035 219.57 238.035C221.516 238.035 222.891 237.089 223.258 235.574H221.641ZM224.875 237.871H226.555V232.894C226.555 231.566 227.344 230.738 228.586 230.738C229.828 230.738 230.422 231.417 230.422 232.785V237.871H232.102V232.363C232.102 230.339 231.055 229.199 229.156 229.199C227.875 229.199 227.031 229.769 226.617 230.714H226.492V229.363H224.875V237.871ZM233.773 231.769C233.773 233.035 234.523 233.761 236.141 234.144L237.625 234.488C238.477 234.691 238.875 235.019 238.875 235.527C238.875 236.207 238.133 236.675 237.086 236.675C236.07 236.675 235.445 236.269 235.234 235.613H233.555C233.703 237.121 235.023 238.035 237.047 238.035C239.078 238.035 240.57 236.964 240.57 235.363C240.57 234.113 239.812 233.417 238.195 233.042L236.781 232.714C235.859 232.503 235.43 232.183 235.43 231.675C235.43 231.011 236.141 230.566 237.078 230.566C238.031 230.566 238.641 230.964 238.797 231.589H240.406C240.242 230.089 238.992 229.199 237.078 229.199C235.156 229.199 233.773 230.261 233.773 231.769ZM246.562 227.246V229.402H245.211V230.816H246.562V235.621C246.562 237.261 247.305 237.917 249.172 237.917C249.5 237.917 249.812 237.878 250.086 237.832V236.433C249.852 236.457 249.703 236.472 249.445 236.472C248.609 236.472 248.242 236.082 248.242 235.191V230.816H250.086V229.402H248.242V227.246H246.562ZM255.062 238.035C257.547 238.035 259.07 236.371 259.07 233.613C259.07 230.871 257.539 229.199 255.062 229.199C252.578 229.199 251.047 230.871 251.047 233.613C251.047 236.371 252.57 238.035 255.062 238.035ZM255.062 236.542C253.602 236.542 252.781 235.472 252.781 233.613C252.781 231.769 253.602 230.691 255.062 230.691C256.516 230.691 257.344 231.769 257.344 233.613C257.344 235.464 256.516 236.542 255.062 236.542ZM268.062 238.035C270.547 238.035 272.07 236.371 272.07 233.613C272.07 230.871 270.539 229.199 268.062 229.199C265.578 229.199 264.047 230.871 264.047 233.613C264.047 236.371 265.57 238.035 268.062 238.035ZM268.062 236.542C266.602 236.542 265.781 235.472 265.781 233.613C265.781 231.769 266.602 230.691 268.062 230.691C269.516 230.691 270.344 231.769 270.344 233.613C270.344 235.464 269.516 236.542 268.062 236.542ZM274.188 227.246V229.402H272.836V230.816H274.188V235.621C274.188 237.261 274.93 237.917 276.797 237.917C277.125 237.917 277.438 237.878 277.711 237.832V236.433C277.477 236.457 277.328 236.472 277.07 236.472C276.234 236.472 275.867 236.082 275.867 235.191V230.816H277.711V229.402H275.867V227.246H274.188ZM279.266 237.871H280.945V232.902C280.945 231.613 281.711 230.746 283.086 230.746C284.273 230.746 284.906 231.433 284.906 232.792V237.871H286.586V232.378C286.586 230.355 285.469 229.207 283.656 229.207C282.375 229.207 281.477 229.777 281.062 230.73H280.93V226.042H279.266V237.871ZM291.945 230.628C293.188 230.628 294 231.496 294.039 232.832H289.742C289.836 231.503 290.703 230.628 291.945 230.628ZM294.031 235.574C293.719 236.238 293.023 236.605 292.008 236.605C290.664 236.605 289.797 235.66 289.742 234.167V234.074H295.75V233.488C295.75 230.816 294.32 229.199 291.953 229.199C289.555 229.199 288.031 230.925 288.031 233.644C288.031 236.363 289.523 238.035 291.961 238.035C293.906 238.035 295.281 237.089 295.648 235.574H294.031ZM297.266 237.871H298.945V232.847C298.945 231.652 299.844 230.847 301.117 230.847C301.414 230.847 301.914 230.902 302.055 230.949V229.292C301.875 229.246 301.555 229.222 301.305 229.222C300.195 229.222 299.25 229.832 299.008 230.667H298.883V229.363H297.266V237.871ZM64.0234 252.769C64.0234 254.035 64.7734 254.761 66.3906 255.144L67.875 255.488C68.7266 255.691 69.125 256.019 69.125 256.527C69.125 257.207 68.3828 257.675 67.3359 257.675C66.3203 257.675 65.6953 257.269 65.4844 256.613H63.8047C63.9531 258.121 65.2734 259.035 67.2969 259.035C69.3281 259.035 70.8203 257.964 70.8203 256.363C70.8203 255.113 70.0625 254.417 68.4453 254.042L67.0312 253.714C66.1094 253.503 65.6797 253.183 65.6797 252.675C65.6797 252.011 66.3906 251.566 67.3281 251.566C68.2812 251.566 68.8906 251.964 69.0469 252.589H70.6562C70.4922 251.089 69.2422 250.199 67.3281 250.199C65.4062 250.199 64.0234 251.261 64.0234 252.769ZM79.5156 250.363H77.8359V255.339C77.8359 256.675 77.0938 257.48 75.7344 257.48C74.5 257.48 73.9453 256.824 73.9453 255.449V250.363H72.2656V255.886C72.2656 257.886 73.3125 259.035 75.1953 259.035C76.4844 259.035 77.3516 258.488 77.7656 257.519H77.8984V258.871H79.5156V250.363ZM85.9609 259.011C88.1094 259.011 89.4766 257.308 89.4766 254.613C89.4766 251.91 88.1172 250.222 85.9609 250.222C84.7969 250.222 83.7969 250.785 83.3438 251.714H83.2109V247.042H81.5312V258.871H83.1484V257.527H83.2734C83.7812 258.464 84.7734 259.011 85.9609 259.011ZM85.4766 251.73C86.8984 251.73 87.75 252.824 87.75 254.613C87.75 256.417 86.8984 257.503 85.4766 257.503C84.0625 257.503 83.1875 256.402 83.1797 254.621C83.1875 252.839 84.0703 251.73 85.4766 251.73ZM90.8047 252.769C90.8047 254.035 91.5547 254.761 93.1719 255.144L94.6562 255.488C95.5078 255.691 95.9062 256.019 95.9062 256.527C95.9062 257.207 95.1641 257.675 94.1172 257.675C93.1016 257.675 92.4766 257.269 92.2656 256.613H90.5859C90.7344 258.121 92.0547 259.035 94.0781 259.035C96.1094 259.035 97.6016 257.964 97.6016 256.363C97.6016 255.113 96.8438 254.417 95.2266 254.042L93.8125 253.714C92.8906 253.503 92.4609 253.183 92.4609 252.675C92.4609 252.011 93.1719 251.566 94.1094 251.566C95.0625 251.566 95.6719 251.964 95.8281 252.589H97.4375C97.2734 251.089 96.0234 250.199 94.1094 250.199C92.1875 250.199 90.8047 251.261 90.8047 252.769ZM106.328 253.144C106.109 251.441 104.82 250.199 102.688 250.199C100.211 250.199 98.7031 251.863 98.7031 254.589C98.7031 257.363 100.219 259.035 102.695 259.035C104.797 259.035 106.109 257.847 106.328 256.136H104.695C104.477 257.05 103.75 257.535 102.688 257.535C101.289 257.535 100.422 256.433 100.422 254.589C100.422 252.777 101.281 251.699 102.688 251.699C103.812 251.699 104.5 252.316 104.695 253.144H106.328ZM107.75 258.871H109.43V253.847C109.43 252.652 110.328 251.847 111.602 251.847C111.898 251.847 112.398 251.902 112.539 251.949V250.292C112.359 250.246 112.039 250.222 111.789 250.222C110.68 250.222 109.734 250.832 109.492 251.667H109.367V250.363H107.75V258.871ZM113.688 258.871H115.359V250.363H113.688V258.871ZM114.523 248.886C115.109 248.886 115.586 248.394 115.586 247.792C115.586 247.183 115.109 246.691 114.523 246.691C113.938 246.691 113.461 247.183 113.461 247.792C113.461 248.394 113.938 248.886 114.523 248.886ZM121.742 250.222C120.586 250.222 119.586 250.8 119.07 251.769H118.945V250.363H117.328V261.699H119.008V257.582H119.141C119.586 258.48 120.547 259.011 121.758 259.011C123.906 259.011 125.273 257.316 125.273 254.613C125.273 251.91 123.906 250.222 121.742 250.222ZM121.266 257.503C119.859 257.503 118.977 256.394 118.977 254.621C118.977 252.839 119.859 251.73 121.273 251.73C122.695 251.73 123.547 252.816 123.547 254.613C123.547 256.417 122.695 257.503 121.266 257.503ZM127.391 248.246V250.402H126.039V251.816H127.391V256.621C127.391 258.261 128.133 258.917 130 258.917C130.328 258.917 130.641 258.878 130.914 258.832V257.433C130.68 257.457 130.531 257.472 130.273 257.472C129.438 257.472 129.07 257.082 129.07 256.191V251.816H130.914V250.402H129.07V248.246H127.391ZM132.422 258.871H134.094V250.363H132.422V258.871ZM133.258 248.886C133.844 248.886 134.32 248.394 134.32 247.792C134.32 247.183 133.844 246.691 133.258 246.691C132.672 246.691 132.195 247.183 132.195 247.792C132.195 248.394 132.672 248.886 133.258 248.886ZM139.656 259.035C142.141 259.035 143.664 257.371 143.664 254.613C143.664 251.871 142.133 250.199 139.656 250.199C137.172 250.199 135.641 251.871 135.641 254.613C135.641 257.371 137.164 259.035 139.656 259.035ZM139.656 257.542C138.195 257.542 137.375 256.472 137.375 254.613C137.375 252.769 138.195 251.691 139.656 251.691C141.109 251.691 141.938 252.769 141.938 254.613C141.938 256.464 141.109 257.542 139.656 257.542ZM145.188 258.871H146.867V253.894C146.867 252.566 147.656 251.738 148.898 251.738C150.141 251.738 150.734 252.417 150.734 253.785V258.871H152.414V253.363C152.414 251.339 151.367 250.199 149.469 250.199C148.188 250.199 147.344 250.769 146.93 251.714H146.805V250.363H145.188V258.871ZM154.086 252.769C154.086 254.035 154.836 254.761 156.453 255.144L157.938 255.488C158.789 255.691 159.188 256.019 159.188 256.527C159.188 257.207 158.445 257.675 157.398 257.675C156.383 257.675 155.758 257.269 155.547 256.613H153.867C154.016 258.121 155.336 259.035 157.359 259.035C159.391 259.035 160.883 257.964 160.883 256.363C160.883 255.113 160.125 254.417 158.508 254.042L157.094 253.714C156.172 253.503 155.742 253.183 155.742 252.675C155.742 252.011 156.453 251.566 157.391 251.566C158.344 251.566 158.953 251.964 159.109 252.589H160.719C160.555 251.089 159.305 250.199 157.391 250.199C155.469 250.199 154.086 251.261 154.086 252.769ZM169.062 257.597C168.148 257.597 167.484 257.152 167.484 256.386C167.484 255.636 168.016 255.238 169.188 255.16L171.266 255.027V255.738C171.266 256.792 170.328 257.597 169.062 257.597ZM168.633 259.011C169.75 259.011 170.68 258.527 171.188 257.675H171.32V258.871H172.938V253.058C172.938 251.261 171.734 250.199 169.602 250.199C167.672 250.199 166.297 251.136 166.125 252.597H167.75C167.938 251.996 168.586 251.652 169.523 251.652C170.672 251.652 171.266 252.16 171.266 253.058V253.792L168.961 253.925C166.938 254.05 165.797 254.933 165.797 256.464C165.797 258.019 166.992 259.011 168.633 259.011ZM174.633 252.769C174.633 254.035 175.383 254.761 177 255.144L178.484 255.488C179.336 255.691 179.734 256.019 179.734 256.527C179.734 257.207 178.992 257.675 177.945 257.675C176.93 257.675 176.305 257.269 176.094 256.613H174.414C174.562 258.121 175.883 259.035 177.906 259.035C179.938 259.035 181.43 257.964 181.43 256.363C181.43 255.113 180.672 254.417 179.055 254.042L177.641 253.714C176.719 253.503 176.289 253.183 176.289 252.675C176.289 252.011 177 251.566 177.938 251.566C178.891 251.566 179.5 251.964 179.656 252.589H181.266C181.102 251.089 179.852 250.199 177.938 250.199C176.016 250.199 174.633 251.261 174.633 252.769ZM182.602 252.769C182.602 254.035 183.352 254.761 184.969 255.144L186.453 255.488C187.305 255.691 187.703 256.019 187.703 256.527C187.703 257.207 186.961 257.675 185.914 257.675C184.898 257.675 184.273 257.269 184.062 256.613H182.383C182.531 258.121 183.852 259.035 185.875 259.035C187.906 259.035 189.398 257.964 189.398 256.363C189.398 255.113 188.641 254.417 187.023 254.042L185.609 253.714C184.688 253.503 184.258 253.183 184.258 252.675C184.258 252.011 184.969 251.566 185.906 251.566C186.859 251.566 187.469 251.964 187.625 252.589H189.234C189.07 251.089 187.82 250.199 185.906 250.199C183.984 250.199 182.602 251.261 182.602 252.769ZM194.516 259.035C197 259.035 198.523 257.371 198.523 254.613C198.523 251.871 196.992 250.199 194.516 250.199C192.031 250.199 190.5 251.871 190.5 254.613C190.5 257.371 192.023 259.035 194.516 259.035ZM194.516 257.542C193.055 257.542 192.234 256.472 192.234 254.613C192.234 252.769 193.055 251.691 194.516 251.691C195.969 251.691 196.797 252.769 196.797 254.613C196.797 256.464 195.969 257.542 194.516 257.542ZM207.25 253.144C207.031 251.441 205.742 250.199 203.609 250.199C201.133 250.199 199.625 251.863 199.625 254.589C199.625 257.363 201.141 259.035 203.617 259.035C205.719 259.035 207.031 257.847 207.25 256.136H205.617C205.398 257.05 204.672 257.535 203.609 257.535C202.211 257.535 201.344 256.433 201.344 254.589C201.344 252.777 202.203 251.699 203.609 251.699C204.734 251.699 205.422 252.316 205.617 253.144H207.25ZM208.703 258.871H210.375V250.363H208.703V258.871ZM209.539 248.886C210.125 248.886 210.602 248.394 210.602 247.792C210.602 247.183 210.125 246.691 209.539 246.691C208.953 246.691 208.477 247.183 208.477 247.792C208.477 248.394 208.953 248.886 209.539 248.886ZM215.125 257.597C214.211 257.597 213.547 257.152 213.547 256.386C213.547 255.636 214.078 255.238 215.25 255.16L217.328 255.027V255.738C217.328 256.792 216.391 257.597 215.125 257.597ZM214.695 259.011C215.812 259.011 216.742 258.527 217.25 257.675H217.383V258.871H219V253.058C219 251.261 217.797 250.199 215.664 250.199C213.734 250.199 212.359 251.136 212.188 252.597H213.812C214 251.996 214.648 251.652 215.586 251.652C216.734 251.652 217.328 252.16 217.328 253.058V253.792L215.023 253.925C213 254.05 211.859 254.933 211.859 256.464C211.859 258.019 213.055 259.011 214.695 259.011ZM221.484 248.246V250.402H220.133V251.816H221.484V256.621C221.484 258.261 222.227 258.917 224.094 258.917C224.422 258.917 224.734 258.878 225.008 258.832V257.433C224.773 257.457 224.625 257.472 224.367 257.472C223.531 257.472 223.164 257.082 223.164 256.191V251.816H225.008V250.402H223.164V248.246H221.484ZM229.883 251.628C231.125 251.628 231.938 252.496 231.977 253.832H227.68C227.773 252.503 228.641 251.628 229.883 251.628ZM231.969 256.574C231.656 257.238 230.961 257.605 229.945 257.605C228.602 257.605 227.734 256.66 227.68 255.167V255.074H233.688V254.488C233.688 251.816 232.258 250.199 229.891 250.199C227.492 250.199 225.969 251.925 225.969 254.644C225.969 257.363 227.461 259.035 229.898 259.035C231.844 259.035 233.219 258.089 233.586 256.574H231.969ZM238.312 259.011C239.484 259.011 240.477 258.457 240.984 257.527H241.117V258.871H242.727V247.042H241.047V251.714H240.922C240.461 250.777 239.477 250.222 238.312 250.222C236.164 250.222 234.781 251.925 234.781 254.613C234.781 257.308 236.148 259.011 238.312 259.011ZM238.789 251.73C240.195 251.73 241.078 252.847 241.078 254.621C241.078 256.402 240.203 257.503 238.789 257.503C237.367 257.503 236.516 256.417 236.516 254.613C236.516 252.824 237.375 251.73 238.789 251.73ZM259.703 250.363H258.023L256.508 256.855H256.375L254.625 250.363H253.016L251.266 256.855H251.141L249.617 250.363H247.914L250.258 258.871H251.984L253.734 252.605H253.867L255.625 258.871H257.367L259.703 250.363ZM260.969 258.871H262.641V250.363H260.969V258.871ZM261.805 248.886C262.391 248.886 262.867 248.394 262.867 247.792C262.867 247.183 262.391 246.691 261.805 246.691C261.219 246.691 260.742 247.183 260.742 247.792C260.742 248.394 261.219 248.886 261.805 248.886ZM265.203 248.246V250.402H263.852V251.816H265.203V256.621C265.203 258.261 265.945 258.917 267.812 258.917C268.141 258.917 268.453 258.878 268.727 258.832V257.433C268.492 257.457 268.344 257.472 268.086 257.472C267.25 257.472 266.883 257.082 266.883 256.191V251.816H268.727V250.402H266.883V248.246H265.203ZM270.281 258.871H271.961V253.902C271.961 252.613 272.727 251.746 274.102 251.746C275.289 251.746 275.922 252.433 275.922 253.792V258.871H277.602V253.378C277.602 251.355 276.484 250.207 274.672 250.207C273.391 250.207 272.492 250.777 272.078 251.73H271.945V247.042H270.281V258.871ZM283.938 248.246V250.402H282.586V251.816H283.938V256.621C283.938 258.261 284.68 258.917 286.547 258.917C286.875 258.917 287.188 258.878 287.461 258.832V257.433C287.227 257.457 287.078 257.472 286.82 257.472C285.984 257.472 285.617 257.082 285.617 256.191V251.816H287.461V250.402H285.617V248.246H283.938ZM289.016 258.871H290.695V253.902C290.695 252.613 291.461 251.746 292.836 251.746C294.023 251.746 294.656 252.433 294.656 253.792V258.871H296.336V253.378C296.336 251.355 295.219 250.207 293.406 250.207C292.125 250.207 291.227 250.777 290.812 251.73H290.68V247.042H289.016V258.871ZM301.695 251.628C302.938 251.628 303.75 252.496 303.789 253.832H299.492C299.586 252.503 300.453 251.628 301.695 251.628ZM303.781 256.574C303.469 257.238 302.773 257.605 301.758 257.605C300.414 257.605 299.547 256.66 299.492 255.167V255.074H305.5V254.488C305.5 251.816 304.07 250.199 301.703 250.199C299.305 250.199 297.781 251.925 297.781 254.644C297.781 257.363 299.273 259.035 301.711 259.035C303.656 259.035 305.031 258.089 305.398 256.574H303.781ZM71.4219 274.144C71.2031 272.441 69.9141 271.199 67.7812 271.199C65.3047 271.199 63.7969 272.863 63.7969 275.589C63.7969 278.363 65.3125 280.035 67.7891 280.035C69.8906 280.035 71.2031 278.847 71.4219 277.136H69.7891C69.5703 278.05 68.8438 278.535 67.7812 278.535C66.3828 278.535 65.5156 277.433 65.5156 275.589C65.5156 273.777 66.375 272.699 67.7812 272.699C68.9062 272.699 69.5938 273.316 69.7891 274.144H71.4219ZM80.0156 271.363H78.3359V276.339C78.3359 277.675 77.5938 278.48 76.2344 278.48C75 278.48 74.4453 277.824 74.4453 276.449V271.363H72.7656V276.886C72.7656 278.886 73.8125 280.035 75.6953 280.035C76.9844 280.035 77.8516 279.488 78.2656 278.519H78.3984V279.871H80.0156V271.363ZM81.7578 273.769C81.7578 275.035 82.5078 275.761 84.125 276.144L85.6094 276.488C86.4609 276.691 86.8594 277.019 86.8594 277.527C86.8594 278.207 86.1172 278.675 85.0703 278.675C84.0547 278.675 83.4297 278.269 83.2188 277.613H81.5391C81.6875 279.121 83.0078 280.035 85.0312 280.035C87.0625 280.035 88.5547 278.964 88.5547 277.363C88.5547 276.113 87.7969 275.417 86.1797 275.042L84.7656 274.714C83.8438 274.503 83.4141 274.183 83.4141 273.675C83.4141 273.011 84.125 272.566 85.0625 272.566C86.0156 272.566 86.625 272.964 86.7812 273.589H88.3906C88.2266 272.089 86.9766 271.199 85.0625 271.199C83.1406 271.199 81.7578 272.261 81.7578 273.769ZM90.6094 269.246V271.402H89.2578V272.816H90.6094V277.621C90.6094 279.261 91.3516 279.917 93.2188 279.917C93.5469 279.917 93.8594 279.878 94.1328 279.832V278.433C93.8984 278.457 93.75 278.472 93.4922 278.472C92.6562 278.472 92.2891 278.082 92.2891 277.191V272.816H94.1328V271.402H92.2891V269.246H90.6094ZM99.1094 280.035C101.594 280.035 103.117 278.371 103.117 275.613C103.117 272.871 101.586 271.199 99.1094 271.199C96.625 271.199 95.0938 272.871 95.0938 275.613C95.0938 278.371 96.6172 280.035 99.1094 280.035ZM99.1094 278.542C97.6484 278.542 96.8281 277.472 96.8281 275.613C96.8281 273.769 97.6484 272.691 99.1094 272.691C100.562 272.691 101.391 273.769 101.391 275.613C101.391 277.464 100.562 278.542 99.1094 278.542ZM104.641 279.871H106.32V274.667C106.32 273.574 107.094 272.738 108.117 272.738C109.117 272.738 109.758 273.324 109.758 274.285V279.871H111.406V274.519C111.406 273.519 112.117 272.738 113.203 272.738C114.305 272.738 114.852 273.3 114.852 274.449V279.871H116.531V274.011C116.531 272.238 115.531 271.199 113.812 271.199C112.633 271.199 111.656 271.8 111.227 272.73H111.094C110.719 271.8 109.914 271.199 108.75 271.199C107.617 271.199 106.758 271.769 106.383 272.73H106.258V271.363H104.641V279.871ZM121.883 272.628C123.125 272.628 123.938 273.496 123.977 274.832H119.68C119.773 273.503 120.641 272.628 121.883 272.628ZM123.969 277.574C123.656 278.238 122.961 278.605 121.945 278.605C120.602 278.605 119.734 277.66 119.68 276.167V276.074H125.688V275.488C125.688 272.816 124.258 271.199 121.891 271.199C119.492 271.199 117.969 272.925 117.969 275.644C117.969 278.363 119.461 280.035 121.898 280.035C123.844 280.035 125.219 279.089 125.586 277.574H123.969ZM127.203 279.871H128.883V274.847C128.883 273.652 129.781 272.847 131.055 272.847C131.352 272.847 131.852 272.902 131.992 272.949V271.292C131.812 271.246 131.492 271.222 131.242 271.222C130.133 271.222 129.188 271.832 128.945 272.667H128.82V271.363H127.203V279.871Z" fill="#666677"/>
<path d="M70.8047 126.046H70.9141L73.3359 134.32H74.9844L78.0312 123.046H76.2109L74.1484 131.679H74.0391L71.6719 123.046H70.0469L67.6953 131.679H67.5859L65.5156 123.046H63.6953L66.7344 134.32H68.3906L70.8047 126.046ZM79.5312 134.32H81.2109V129.351C81.2109 128.062 81.9766 127.195 83.3516 127.195C84.5391 127.195 85.1719 127.882 85.1719 129.241V134.32H86.8516V128.827C86.8516 126.804 85.7344 125.656 83.9219 125.656C82.6406 125.656 81.7422 126.226 81.3281 127.179H81.1953V122.491H79.5312V134.32ZM92.2109 127.077C93.4531 127.077 94.2656 127.945 94.3047 129.281H90.0078C90.1016 127.952 90.9688 127.077 92.2109 127.077ZM94.2969 132.023C93.9844 132.687 93.2891 133.054 92.2734 133.054C90.9297 133.054 90.0625 132.109 90.0078 130.616V130.523H96.0156V129.937C96.0156 127.265 94.5859 125.648 92.2188 125.648C89.8203 125.648 88.2969 127.374 88.2969 130.093C88.2969 132.812 89.7891 134.484 92.2266 134.484C94.1719 134.484 95.5469 133.538 95.9141 132.023H94.2969ZM97.5312 134.32H99.2109V129.343C99.2109 128.015 100 127.187 101.242 127.187C102.484 127.187 103.078 127.866 103.078 129.234V134.32H104.758V128.812C104.758 126.788 103.711 125.648 101.812 125.648C100.531 125.648 99.6875 126.218 99.2734 127.163H99.1484V125.812H97.5312V134.32ZM113.281 133.046C112.367 133.046 111.703 132.601 111.703 131.835C111.703 131.085 112.234 130.687 113.406 130.609L115.484 130.476V131.187C115.484 132.241 114.547 133.046 113.281 133.046ZM112.852 134.46C113.969 134.46 114.898 133.976 115.406 133.124H115.539V134.32H117.156V128.507C117.156 126.71 115.953 125.648 113.82 125.648C111.891 125.648 110.516 126.585 110.344 128.046H111.969C112.156 127.445 112.805 127.101 113.742 127.101C114.891 127.101 115.484 127.609 115.484 128.507V129.241L113.18 129.374C111.156 129.499 110.016 130.382 110.016 131.913C110.016 133.468 111.211 134.46 112.852 134.46ZM130.125 128.593C129.906 126.89 128.617 125.648 126.484 125.648C124.008 125.648 122.5 127.312 122.5 130.038C122.5 132.812 124.016 134.484 126.492 134.484C128.594 134.484 129.906 133.296 130.125 131.585H128.492C128.273 132.499 127.547 132.984 126.484 132.984C125.086 132.984 124.219 131.882 124.219 130.038C124.219 128.226 125.078 127.148 126.484 127.148C127.609 127.148 128.297 127.765 128.492 128.593H130.125ZM131.625 134.32H133.305V129.351C133.305 128.062 134.07 127.195 135.445 127.195C136.633 127.195 137.266 127.882 137.266 129.241V134.32H138.945V128.827C138.945 126.804 137.828 125.656 136.016 125.656C134.734 125.656 133.836 126.226 133.422 127.179H133.289V122.491H131.625V134.32ZM143.594 133.046C142.68 133.046 142.016 132.601 142.016 131.835C142.016 131.085 142.547 130.687 143.719 130.609L145.797 130.476V131.187C145.797 132.241 144.859 133.046 143.594 133.046ZM143.164 134.46C144.281 134.46 145.211 133.976 145.719 133.124H145.852V134.32H147.469V128.507C147.469 126.71 146.266 125.648 144.133 125.648C142.203 125.648 140.828 126.585 140.656 128.046H142.281C142.469 127.445 143.117 127.101 144.055 127.101C145.203 127.101 145.797 127.609 145.797 128.507V129.241L143.492 129.374C141.469 129.499 140.328 130.382 140.328 131.913C140.328 133.468 141.523 134.46 143.164 134.46ZM149.359 134.32H151.039V129.296C151.039 128.101 151.938 127.296 153.211 127.296C153.508 127.296 154.008 127.351 154.148 127.398V125.741C153.969 125.695 153.648 125.671 153.398 125.671C152.289 125.671 151.344 126.281 151.102 127.116H150.977V125.812H149.359V134.32ZM158.609 132.741C157.164 132.741 156.352 131.656 156.352 129.96C156.352 128.265 157.164 127.179 158.609 127.179C160.039 127.179 160.914 128.265 160.914 129.96C160.914 131.663 160.047 132.741 158.609 132.741ZM158.633 137.57C161.039 137.57 162.562 136.335 162.562 134.39V125.812H160.953V127.171H160.82C160.344 126.249 159.32 125.671 158.148 125.671C155.977 125.671 154.617 127.374 154.617 129.968C154.617 132.515 155.961 134.195 158.133 134.195C159.305 134.195 160.242 133.687 160.758 132.765H160.883V134.398C160.883 135.523 160.055 136.187 158.656 136.187C157.523 136.187 156.812 135.788 156.672 135.171H154.953C155.133 136.616 156.508 137.57 158.633 137.57ZM167.992 127.077C169.234 127.077 170.047 127.945 170.086 129.281H165.789C165.883 127.952 166.75 127.077 167.992 127.077ZM170.078 132.023C169.766 132.687 169.07 133.054 168.055 133.054C166.711 133.054 165.844 132.109 165.789 130.616V130.523H171.797V129.937C171.797 127.265 170.367 125.648 168 125.648C165.602 125.648 164.078 127.374 164.078 130.093C164.078 132.812 165.57 134.484 168.008 134.484C169.953 134.484 171.328 133.538 171.695 132.023H170.078ZM177.82 134.46C179.969 134.46 181.336 132.757 181.336 130.062C181.336 127.359 179.977 125.671 177.82 125.671C176.656 125.671 175.656 126.234 175.203 127.163H175.07V122.491H173.391V134.32H175.008V132.976H175.133C175.641 133.913 176.633 134.46 177.82 134.46ZM177.336 127.179C178.758 127.179 179.609 128.273 179.609 130.062C179.609 131.866 178.758 132.952 177.336 132.952C175.922 132.952 175.047 131.851 175.039 130.07C175.047 128.288 175.93 127.179 177.336 127.179ZM185.641 133.046C184.727 133.046 184.062 132.601 184.062 131.835C184.062 131.085 184.594 130.687 185.766 130.609L187.844 130.476V131.187C187.844 132.241 186.906 133.046 185.641 133.046ZM185.211 134.46C186.328 134.46 187.258 133.976 187.766 133.124H187.898V134.32H189.516V128.507C189.516 126.71 188.312 125.648 186.18 125.648C184.25 125.648 182.875 126.585 182.703 128.046H184.328C184.516 127.445 185.164 127.101 186.102 127.101C187.25 127.101 187.844 127.609 187.844 128.507V129.241L185.539 129.374C183.516 129.499 182.375 130.382 182.375 131.913C182.375 133.468 183.57 134.46 185.211 134.46ZM198.609 128.593C198.391 126.89 197.102 125.648 194.969 125.648C192.492 125.648 190.984 127.312 190.984 130.038C190.984 132.812 192.5 134.484 194.977 134.484C197.078 134.484 198.391 133.296 198.609 131.585H196.977C196.758 132.499 196.031 132.984 194.969 132.984C193.57 132.984 192.703 131.882 192.703 130.038C192.703 128.226 193.562 127.148 194.969 127.148C196.094 127.148 196.781 127.765 196.977 128.593H198.609ZM201.922 129.359H201.789V122.491H200.109V134.32H201.789V131.273L202.531 130.57L205.453 134.32H207.516L203.781 129.46L207.281 125.812H205.297L201.922 129.359ZM212.469 134.32H214.141V125.812H212.469V134.32ZM213.305 124.335C213.891 124.335 214.367 123.843 214.367 123.241C214.367 122.632 213.891 122.14 213.305 122.14C212.719 122.14 212.242 122.632 212.242 123.241C212.242 123.843 212.719 124.335 213.305 124.335ZM215.914 128.218C215.914 129.484 216.664 130.21 218.281 130.593L219.766 130.937C220.617 131.14 221.016 131.468 221.016 131.976C221.016 132.656 220.273 133.124 219.227 133.124C218.211 133.124 217.586 132.718 217.375 132.062H215.695C215.844 133.57 217.164 134.484 219.188 134.484C221.219 134.484 222.711 133.413 222.711 131.812C222.711 130.562 221.953 129.866 220.336 129.491L218.922 129.163C218 128.952 217.57 128.632 217.57 128.124C217.57 127.46 218.281 127.015 219.219 127.015C220.172 127.015 220.781 127.413 220.938 128.038H222.547C222.383 126.538 221.133 125.648 219.219 125.648C217.297 125.648 215.914 126.71 215.914 128.218ZM228.141 134.32H229.812V125.812H228.141V134.32ZM228.977 124.335C229.562 124.335 230.039 123.843 230.039 123.241C230.039 122.632 229.562 122.14 228.977 122.14C228.391 122.14 227.914 122.632 227.914 123.241C227.914 123.843 228.391 124.335 228.977 124.335ZM231.781 134.32H233.461V129.343C233.461 128.015 234.25 127.187 235.492 127.187C236.734 127.187 237.328 127.866 237.328 129.234V134.32H239.008V128.812C239.008 126.788 237.961 125.648 236.062 125.648C234.781 125.648 233.938 126.218 233.523 127.163H233.398V125.812H231.781V134.32ZM240.906 134.32H242.578V125.812H240.906V134.32ZM241.742 124.335C242.328 124.335 242.805 123.843 242.805 123.241C242.805 122.632 242.328 122.14 241.742 122.14C241.156 122.14 240.68 122.632 240.68 123.241C240.68 123.843 241.156 124.335 241.742 124.335ZM245.141 123.695V125.851H243.789V127.265H245.141V132.07C245.141 133.71 245.883 134.366 247.75 134.366C248.078 134.366 248.391 134.327 248.664 134.281V132.882C248.43 132.906 248.281 132.921 248.023 132.921C247.188 132.921 246.82 132.531 246.82 131.64V127.265H248.664V125.851H246.82V123.695H245.141ZM250.172 134.32H251.844V125.812H250.172V134.32ZM251.008 124.335C251.594 124.335 252.07 123.843 252.07 123.241C252.07 122.632 251.594 122.14 251.008 122.14C250.422 122.14 249.945 122.632 249.945 123.241C249.945 123.843 250.422 124.335 251.008 124.335ZM256.594 133.046C255.68 133.046 255.016 132.601 255.016 131.835C255.016 131.085 255.547 130.687 256.719 130.609L258.797 130.476V131.187C258.797 132.241 257.859 133.046 256.594 133.046ZM256.164 134.46C257.281 134.46 258.211 133.976 258.719 133.124H258.852V134.32H260.469V128.507C260.469 126.71 259.266 125.648 257.133 125.648C255.203 125.648 253.828 126.585 253.656 128.046H255.281C255.469 127.445 256.117 127.101 257.055 127.101C258.203 127.101 258.797 127.609 258.797 128.507V129.241L256.492 129.374C254.469 129.499 253.328 130.382 253.328 131.913C253.328 133.468 254.523 134.46 256.164 134.46ZM262.953 123.695V125.851H261.602V127.265H262.953V132.07C262.953 133.71 263.695 134.366 265.562 134.366C265.891 134.366 266.203 134.327 266.477 134.281V132.882C266.242 132.906 266.094 132.921 265.836 132.921C265 132.921 264.633 132.531 264.633 131.64V127.265H266.477V125.851H264.633V123.695H262.953ZM271.352 127.077C272.594 127.077 273.406 127.945 273.445 129.281H269.148C269.242 127.952 270.109 127.077 271.352 127.077ZM273.438 132.023C273.125 132.687 272.43 133.054 271.414 133.054C270.07 133.054 269.203 132.109 269.148 130.616V130.523H275.156V129.937C275.156 127.265 273.727 125.648 271.359 125.648C268.961 125.648 267.438 127.374 267.438 130.093C267.438 132.812 268.93 134.484 271.367 134.484C273.312 134.484 274.688 133.538 275.055 132.023H273.438ZM279.781 134.46C280.953 134.46 281.945 133.906 282.453 132.976H282.586V134.32H284.195V122.491H282.516V127.163H282.391C281.93 126.226 280.945 125.671 279.781 125.671C277.633 125.671 276.25 127.374 276.25 130.062C276.25 132.757 277.617 134.46 279.781 134.46ZM280.258 127.179C281.664 127.179 282.547 128.296 282.547 130.07C282.547 131.851 281.672 132.952 280.258 132.952C278.836 132.952 277.984 131.866 277.984 130.062C277.984 128.273 278.844 127.179 280.258 127.179Z" fill="#242438"/>
<path d="M339.945 134.442C342.461 134.442 344.312 132.958 344.625 130.731H342.883C342.57 132.004 341.438 132.809 339.945 132.809C337.914 132.809 336.648 131.161 336.648 128.536C336.648 125.903 337.914 124.254 339.938 124.254C341.422 124.254 342.555 125.145 342.883 126.528H344.625C344.344 124.231 342.422 122.622 339.938 122.622C336.805 122.622 334.859 124.879 334.859 128.536C334.859 132.184 336.812 134.442 339.945 134.442ZM349.016 132.895C348.102 132.895 347.438 132.45 347.438 131.684C347.438 130.934 347.969 130.536 349.141 130.458L351.219 130.325V131.036C351.219 132.09 350.281 132.895 349.016 132.895ZM348.586 134.309C349.703 134.309 350.633 133.825 351.141 132.973H351.273V134.168H352.891V128.356C352.891 126.559 351.688 125.497 349.555 125.497C347.625 125.497 346.25 126.434 346.078 127.895H347.703C347.891 127.293 348.539 126.95 349.477 126.95C350.625 126.95 351.219 127.458 351.219 128.356V129.09L348.914 129.223C346.891 129.348 345.75 130.231 345.75 131.762C345.75 133.317 346.945 134.309 348.586 134.309ZM354.781 134.168H356.461V129.192C356.461 127.864 357.25 127.036 358.492 127.036C359.734 127.036 360.328 127.715 360.328 129.083V134.168H362.008V128.661C362.008 126.637 360.961 125.497 359.062 125.497C357.781 125.497 356.938 126.067 356.523 127.012H356.398V125.661H354.781V134.168ZM371.078 128.442C370.859 126.739 369.57 125.497 367.438 125.497C364.961 125.497 363.453 127.161 363.453 129.887C363.453 132.661 364.969 134.333 367.445 134.333C369.547 134.333 370.859 133.145 371.078 131.434H369.445C369.227 132.348 368.5 132.833 367.438 132.833C366.039 132.833 365.172 131.731 365.172 129.887C365.172 128.075 366.031 126.997 367.438 126.997C368.562 126.997 369.25 127.614 369.445 128.442H371.078ZM375.992 126.926C377.234 126.926 378.047 127.793 378.086 129.129H373.789C373.883 127.801 374.75 126.926 375.992 126.926ZM378.078 131.872C377.766 132.536 377.07 132.903 376.055 132.903C374.711 132.903 373.844 131.958 373.789 130.465V130.372H379.797V129.786C379.797 127.114 378.367 125.497 376 125.497C373.602 125.497 372.078 127.223 372.078 129.942C372.078 132.661 373.57 134.333 376.008 134.333C377.953 134.333 379.328 133.387 379.695 131.872H378.078ZM381.391 134.168H383.07V122.34H381.391V134.168ZM390.914 134.168V122.895H389.164V134.168H390.914ZM393.047 134.168H394.727V128.965C394.727 127.872 395.5 127.036 396.523 127.036C397.523 127.036 398.164 127.622 398.164 128.583V134.168H399.812V128.817C399.812 127.817 400.523 127.036 401.609 127.036C402.711 127.036 403.258 127.598 403.258 128.747V134.168H404.938V128.309C404.938 126.536 403.938 125.497 402.219 125.497C401.039 125.497 400.062 126.098 399.633 127.028H399.5C399.125 126.098 398.32 125.497 397.156 125.497C396.023 125.497 395.164 126.067 394.789 127.028H394.664V125.661H393.047V134.168ZM406.797 134.168H408.477V128.965C408.477 127.872 409.25 127.036 410.273 127.036C411.273 127.036 411.914 127.622 411.914 128.583V134.168H413.562V128.817C413.562 127.817 414.273 127.036 415.359 127.036C416.461 127.036 417.008 127.598 417.008 128.747V134.168H418.688V128.309C418.688 126.536 417.688 125.497 415.969 125.497C414.789 125.497 413.812 126.098 413.383 127.028H413.25C412.875 126.098 412.07 125.497 410.906 125.497C409.773 125.497 408.914 126.067 408.539 127.028H408.414V125.661H406.797V134.168ZM424.039 126.926C425.281 126.926 426.094 127.793 426.133 129.129H421.836C421.93 127.801 422.797 126.926 424.039 126.926ZM426.125 131.872C425.812 132.536 425.117 132.903 424.102 132.903C422.758 132.903 421.891 131.958 421.836 130.465V130.372H427.844V129.786C427.844 127.114 426.414 125.497 424.047 125.497C421.648 125.497 420.125 127.223 420.125 129.942C420.125 132.661 421.617 134.333 424.055 134.333C426 134.333 427.375 133.387 427.742 131.872H426.125ZM432.469 134.309C433.641 134.309 434.633 133.754 435.141 132.825H435.273V134.168H436.883V122.34H435.203V127.012H435.078C434.617 126.075 433.633 125.52 432.469 125.52C430.32 125.52 428.938 127.223 428.938 129.911C428.938 132.606 430.305 134.309 432.469 134.309ZM432.945 127.028C434.352 127.028 435.234 128.145 435.234 129.918C435.234 131.7 434.359 132.801 432.945 132.801C431.523 132.801 430.672 131.715 430.672 129.911C430.672 128.122 431.531 127.028 432.945 127.028ZM438.938 134.168H440.609V125.661H438.938V134.168ZM439.773 124.184C440.359 124.184 440.836 123.692 440.836 123.09C440.836 122.481 440.359 121.989 439.773 121.989C439.188 121.989 438.711 122.481 438.711 123.09C438.711 123.692 439.188 124.184 439.773 124.184ZM445.359 132.895C444.445 132.895 443.781 132.45 443.781 131.684C443.781 130.934 444.312 130.536 445.484 130.458L447.562 130.325V131.036C447.562 132.09 446.625 132.895 445.359 132.895ZM444.93 134.309C446.047 134.309 446.977 133.825 447.484 132.973H447.617V134.168H449.234V128.356C449.234 126.559 448.031 125.497 445.898 125.497C443.969 125.497 442.594 126.434 442.422 127.895H444.047C444.234 127.293 444.883 126.95 445.82 126.95C446.969 126.95 447.562 127.458 447.562 128.356V129.09L445.258 129.223C443.234 129.348 442.094 130.231 442.094 131.762C442.094 133.317 443.289 134.309 444.93 134.309ZM451.719 123.543V125.7H450.367V127.114H451.719V131.918C451.719 133.559 452.461 134.215 454.328 134.215C454.656 134.215 454.969 134.176 455.242 134.129V132.731C455.008 132.754 454.859 132.77 454.602 132.77C453.766 132.77 453.398 132.379 453.398 131.489V127.114H455.242V125.7H453.398V123.543H451.719ZM460.117 126.926C461.359 126.926 462.172 127.793 462.211 129.129H457.914C458.008 127.801 458.875 126.926 460.117 126.926ZM462.203 131.872C461.891 132.536 461.195 132.903 460.18 132.903C458.836 132.903 457.969 131.958 457.914 130.465V130.372H463.922V129.786C463.922 127.114 462.492 125.497 460.125 125.497C457.727 125.497 456.203 127.223 456.203 129.942C456.203 132.661 457.695 134.333 460.133 134.333C462.078 134.333 463.453 133.387 463.82 131.872H462.203ZM465.516 134.168H467.195V122.34H465.516V134.168ZM470.062 137.254C471.797 137.254 472.602 136.59 473.328 134.52L476.5 125.661H474.719L472.594 132.418H472.461L470.328 125.661H468.5L471.578 134.2L471.453 134.614C471.164 135.473 470.711 135.801 469.914 135.801C469.758 135.801 469.5 135.793 469.367 135.77V137.215C469.523 137.239 469.922 137.254 470.062 137.254Z" fill="#3B67CE"/>
<path d="M70.8047 166.247H70.9141L73.3359 174.521H74.9844L78.0312 163.247H76.2109L74.1484 171.88H74.0391L71.6719 163.247H70.0469L67.6953 171.88H67.5859L65.5156 163.247H63.6953L66.7344 174.521H68.3906L70.8047 166.247ZM79.5312 174.521H81.2109V169.552C81.2109 168.263 81.9766 167.396 83.3516 167.396C84.5391 167.396 85.1719 168.083 85.1719 169.443V174.521H86.8516V169.028C86.8516 167.005 85.7344 165.857 83.9219 165.857C82.6406 165.857 81.7422 166.427 81.3281 167.38H81.1953V162.693H79.5312V174.521ZM92.2109 167.278C93.4531 167.278 94.2656 168.146 94.3047 169.482H90.0078C90.1016 168.153 90.9688 167.278 92.2109 167.278ZM94.2969 172.224C93.9844 172.888 93.2891 173.255 92.2734 173.255C90.9297 173.255 90.0625 172.31 90.0078 170.818V170.724H96.0156V170.138C96.0156 167.466 94.5859 165.849 92.2188 165.849C89.8203 165.849 88.2969 167.575 88.2969 170.294C88.2969 173.013 89.7891 174.685 92.2266 174.685C94.1719 174.685 95.5469 173.739 95.9141 172.224H94.2969ZM97.5312 174.521H99.2109V169.544C99.2109 168.216 100 167.388 101.242 167.388C102.484 167.388 103.078 168.068 103.078 169.435V174.521H104.758V169.013C104.758 166.989 103.711 165.849 101.812 165.849C100.531 165.849 99.6875 166.419 99.2734 167.364H99.1484V166.013H97.5312V174.521ZM113.281 173.247C112.367 173.247 111.703 172.802 111.703 172.036C111.703 171.286 112.234 170.888 113.406 170.81L115.484 170.677V171.388C115.484 172.443 114.547 173.247 113.281 173.247ZM112.852 174.661C113.969 174.661 114.898 174.177 115.406 173.325H115.539V174.521H117.156V168.708C117.156 166.911 115.953 165.849 113.82 165.849C111.891 165.849 110.516 166.786 110.344 168.247H111.969C112.156 167.646 112.805 167.302 113.742 167.302C114.891 167.302 115.484 167.81 115.484 168.708V169.443L113.18 169.575C111.156 169.7 110.016 170.583 110.016 172.114C110.016 173.669 111.211 174.661 112.852 174.661ZM130.125 168.794C129.906 167.091 128.617 165.849 126.484 165.849C124.008 165.849 122.5 167.513 122.5 170.239C122.5 173.013 124.016 174.685 126.492 174.685C128.594 174.685 129.906 173.497 130.125 171.786H128.492C128.273 172.7 127.547 173.185 126.484 173.185C125.086 173.185 124.219 172.083 124.219 170.239C124.219 168.427 125.078 167.349 126.484 167.349C127.609 167.349 128.297 167.966 128.492 168.794H130.125ZM131.625 174.521H133.305V169.552C133.305 168.263 134.07 167.396 135.445 167.396C136.633 167.396 137.266 168.083 137.266 169.443V174.521H138.945V169.028C138.945 167.005 137.828 165.857 136.016 165.857C134.734 165.857 133.836 166.427 133.422 167.38H133.289V162.693H131.625V174.521ZM143.594 173.247C142.68 173.247 142.016 172.802 142.016 172.036C142.016 171.286 142.547 170.888 143.719 170.81L145.797 170.677V171.388C145.797 172.443 144.859 173.247 143.594 173.247ZM143.164 174.661C144.281 174.661 145.211 174.177 145.719 173.325H145.852V174.521H147.469V168.708C147.469 166.911 146.266 165.849 144.133 165.849C142.203 165.849 140.828 166.786 140.656 168.247H142.281C142.469 167.646 143.117 167.302 144.055 167.302C145.203 167.302 145.797 167.81 145.797 168.708V169.443L143.492 169.575C141.469 169.7 140.328 170.583 140.328 172.114C140.328 173.669 141.523 174.661 143.164 174.661ZM149.359 174.521H151.039V169.497C151.039 168.302 151.938 167.497 153.211 167.497C153.508 167.497 154.008 167.552 154.148 167.599V165.943C153.969 165.896 153.648 165.872 153.398 165.872C152.289 165.872 151.344 166.482 151.102 167.318H150.977V166.013H149.359V174.521ZM158.609 172.943C157.164 172.943 156.352 171.857 156.352 170.161C156.352 168.466 157.164 167.38 158.609 167.38C160.039 167.38 160.914 168.466 160.914 170.161C160.914 171.864 160.047 172.943 158.609 172.943ZM158.633 177.771C161.039 177.771 162.562 176.536 162.562 174.591V166.013H160.953V167.372H160.82C160.344 166.45 159.32 165.872 158.148 165.872C155.977 165.872 154.617 167.575 154.617 170.169C154.617 172.716 155.961 174.396 158.133 174.396C159.305 174.396 160.242 173.888 160.758 172.966H160.883V174.599C160.883 175.724 160.055 176.388 158.656 176.388C157.523 176.388 156.812 175.989 156.672 175.372H154.953C155.133 176.818 156.508 177.771 158.633 177.771ZM167.992 167.278C169.234 167.278 170.047 168.146 170.086 169.482H165.789C165.883 168.153 166.75 167.278 167.992 167.278ZM170.078 172.224C169.766 172.888 169.07 173.255 168.055 173.255C166.711 173.255 165.844 172.31 165.789 170.818V170.724H171.797V170.138C171.797 167.466 170.367 165.849 168 165.849C165.602 165.849 164.078 167.575 164.078 170.294C164.078 173.013 165.57 174.685 168.008 174.685C169.953 174.685 171.328 173.739 171.695 172.224H170.078ZM177.82 174.661C179.969 174.661 181.336 172.958 181.336 170.263C181.336 167.56 179.977 165.872 177.82 165.872C176.656 165.872 175.656 166.435 175.203 167.364H175.07V162.693H173.391V174.521H175.008V173.177H175.133C175.641 174.114 176.633 174.661 177.82 174.661ZM177.336 167.38C178.758 167.38 179.609 168.474 179.609 170.263C179.609 172.068 178.758 173.153 177.336 173.153C175.922 173.153 175.047 172.052 175.039 170.271C175.047 168.489 175.93 167.38 177.336 167.38ZM185.641 173.247C184.727 173.247 184.062 172.802 184.062 172.036C184.062 171.286 184.594 170.888 185.766 170.81L187.844 170.677V171.388C187.844 172.443 186.906 173.247 185.641 173.247ZM185.211 174.661C186.328 174.661 187.258 174.177 187.766 173.325H187.898V174.521H189.516V168.708C189.516 166.911 188.312 165.849 186.18 165.849C184.25 165.849 182.875 166.786 182.703 168.247H184.328C184.516 167.646 185.164 167.302 186.102 167.302C187.25 167.302 187.844 167.81 187.844 168.708V169.443L185.539 169.575C183.516 169.7 182.375 170.583 182.375 172.114C182.375 173.669 183.57 174.661 185.211 174.661ZM198.609 168.794C198.391 167.091 197.102 165.849 194.969 165.849C192.492 165.849 190.984 167.513 190.984 170.239C190.984 173.013 192.5 174.685 194.977 174.685C197.078 174.685 198.391 173.497 198.609 171.786H196.977C196.758 172.7 196.031 173.185 194.969 173.185C193.57 173.185 192.703 172.083 192.703 170.239C192.703 168.427 193.562 167.349 194.969 167.349C196.094 167.349 196.781 167.966 196.977 168.794H198.609ZM201.922 169.56H201.789V162.693H200.109V174.521H201.789V171.474L202.531 170.771L205.453 174.521H207.516L203.781 169.661L207.281 166.013H205.297L201.922 169.56ZM212.469 174.521H214.141V166.013H212.469V174.521ZM213.305 164.536C213.891 164.536 214.367 164.044 214.367 163.443C214.367 162.833 213.891 162.341 213.305 162.341C212.719 162.341 212.242 162.833 212.242 163.443C212.242 164.044 212.719 164.536 213.305 164.536ZM215.914 168.419C215.914 169.685 216.664 170.411 218.281 170.794L219.766 171.138C220.617 171.341 221.016 171.669 221.016 172.177C221.016 172.857 220.273 173.325 219.227 173.325C218.211 173.325 217.586 172.919 217.375 172.263H215.695C215.844 173.771 217.164 174.685 219.188 174.685C221.219 174.685 222.711 173.614 222.711 172.013C222.711 170.763 221.953 170.068 220.336 169.693L218.922 169.364C218 169.153 217.57 168.833 217.57 168.325C217.57 167.661 218.281 167.216 219.219 167.216C220.172 167.216 220.781 167.614 220.938 168.239H222.547C222.383 166.739 221.133 165.849 219.219 165.849C217.297 165.849 215.914 166.911 215.914 168.419ZM228.188 174.521H229.867V162.693H228.188V174.521ZM235.484 174.685C237.969 174.685 239.492 173.021 239.492 170.263C239.492 167.521 237.961 165.849 235.484 165.849C233 165.849 231.469 167.521 231.469 170.263C231.469 173.021 232.992 174.685 235.484 174.685ZM235.484 173.193C234.023 173.193 233.203 172.122 233.203 170.263C233.203 168.419 234.023 167.341 235.484 167.341C236.938 167.341 237.766 168.419 237.766 170.263C237.766 172.114 236.938 173.193 235.484 173.193ZM240.82 168.419C240.82 169.685 241.57 170.411 243.188 170.794L244.672 171.138C245.523 171.341 245.922 171.669 245.922 172.177C245.922 172.857 245.18 173.325 244.133 173.325C243.117 173.325 242.492 172.919 242.281 172.263H240.602C240.75 173.771 242.07 174.685 244.094 174.685C246.125 174.685 247.617 173.614 247.617 172.013C247.617 170.763 246.859 170.068 245.242 169.693L243.828 169.364C242.906 169.153 242.477 168.833 242.477 168.325C242.477 167.661 243.188 167.216 244.125 167.216C245.078 167.216 245.688 167.614 245.844 168.239H247.453C247.289 166.739 246.039 165.849 244.125 165.849C242.203 165.849 240.82 166.911 240.82 168.419ZM249.672 163.896V166.052H248.32V167.466H249.672V172.271C249.672 173.911 250.414 174.568 252.281 174.568C252.609 174.568 252.922 174.528 253.195 174.482V173.083C252.961 173.107 252.812 173.122 252.555 173.122C251.719 173.122 251.352 172.732 251.352 171.841V167.466H253.195V166.052H251.352V163.896H249.672Z" fill="#242438"/>
<path d="M484 127.669L489 133.278L494 127.669" stroke="#3B67CE" stroke-width="2"/>
<path d="M398.367 163.247V174.521H402.438C405.797 174.521 407.742 172.45 407.742 168.849C407.742 165.302 405.781 163.247 402.438 163.247H398.367ZM400.117 164.841H402.242C404.578 164.841 405.961 166.325 405.961 168.872C405.961 171.458 404.602 172.927 402.242 172.927H400.117V164.841ZM413.016 174.685C415.5 174.685 417.023 173.021 417.023 170.263C417.023 167.521 415.492 165.849 413.016 165.849C410.531 165.849 409 167.521 409 170.263C409 173.021 410.523 174.685 413.016 174.685ZM413.016 173.193C411.555 173.193 410.734 172.122 410.734 170.263C410.734 168.419 411.555 167.341 413.016 167.341C414.469 167.341 415.297 168.419 415.297 170.263C415.297 172.114 414.469 173.193 413.016 173.193ZM422.422 174.521H424.102V169.544C424.102 168.216 424.891 167.388 426.133 167.388C427.375 167.388 427.969 168.068 427.969 169.435V174.521H429.648V169.013C429.648 166.989 428.602 165.849 426.703 165.849C425.422 165.849 424.578 166.419 424.164 167.364H424.039V166.013H422.422V174.521ZM435.109 174.685C437.594 174.685 439.117 173.021 439.117 170.263C439.117 167.521 437.586 165.849 435.109 165.849C432.625 165.849 431.094 167.521 431.094 170.263C431.094 173.021 432.617 174.685 435.109 174.685ZM435.109 173.193C433.648 173.193 432.828 172.122 432.828 170.263C432.828 168.419 433.648 167.341 435.109 167.341C436.562 167.341 437.391 168.419 437.391 170.263C437.391 172.114 436.562 173.193 435.109 173.193ZM441.234 163.896V166.052H439.883V167.466H441.234V172.271C441.234 173.911 441.977 174.568 443.844 174.568C444.172 174.568 444.484 174.528 444.758 174.482V173.083C444.523 173.107 444.375 173.122 444.117 173.122C443.281 173.122 442.914 172.732 442.914 171.841V167.466H444.758V166.052H442.914V163.896H441.234ZM446.312 174.521H447.992V169.552C447.992 168.263 448.758 167.396 450.133 167.396C451.32 167.396 451.953 168.083 451.953 169.443V174.521H453.633V169.028C453.633 167.005 452.516 165.857 450.703 165.857C449.422 165.857 448.523 166.427 448.109 167.38H447.977V162.693H446.312V174.521ZM455.531 174.521H457.203V166.013H455.531V174.521ZM456.367 164.536C456.953 164.536 457.43 164.044 457.43 163.443C457.43 162.833 456.953 162.341 456.367 162.341C455.781 162.341 455.305 162.833 455.305 163.443C455.305 164.044 455.781 164.536 456.367 164.536ZM459.172 174.521H460.852V169.544C460.852 168.216 461.641 167.388 462.883 167.388C464.125 167.388 464.719 168.068 464.719 169.435V174.521H466.398V169.013C466.398 166.989 465.352 165.849 463.453 165.849C462.172 165.849 461.328 166.419 460.914 167.364H460.789V166.013H459.172V174.521ZM471.828 172.943C470.383 172.943 469.57 171.857 469.57 170.161C469.57 168.466 470.383 167.38 471.828 167.38C473.258 167.38 474.133 168.466 474.133 170.161C474.133 171.864 473.266 172.943 471.828 172.943ZM471.852 177.771C474.258 177.771 475.781 176.536 475.781 174.591V166.013H474.172V167.372H474.039C473.562 166.45 472.539 165.872 471.367 165.872C469.195 165.872 467.836 167.575 467.836 170.169C467.836 172.716 469.18 174.396 471.352 174.396C472.523 174.396 473.461 173.888 473.977 172.966H474.102V174.599C474.102 175.724 473.273 176.388 471.875 176.388C470.742 176.388 470.031 175.989 469.891 175.372H468.172C468.352 176.818 469.727 177.771 471.852 177.771Z" fill="#3B67CE"/>
<path d="M484 167.87L489 173.479L494 167.87" stroke="#3B67CE" stroke-width="2"/>
<line x1="9" y1="202.672" x2="553" y2="202.672" stroke="#E0E0E0"/>
<rect x="467" y="228.415" width="29" height="15.8935" rx="7.94675" fill="#666777"/>
<ellipse cx="475.5" cy="236.362" rx="7.5" ry="7.01183" fill="white"/>
<defs>
<filter id="filter0_d" x="0" y="0" width="562" height="334" filterUnits="userSpaceOnUse" color-interpolation-filters="sRGB">
<feFlood flood-opacity="0" result="BackgroundImageFix"/>
<feColorMatrix in="SourceAlpha" type="matrix" values="0 0 0 0 0 0 0 0 0 0 0 0 0 0 0 0 0 0 127 0"/>
<feMorphology radius="1" operator="dilate" in="SourceAlpha" result="effect1_dropShadow"/>
<feOffset dy="3"/>
<feGaussianBlur stdDeviation="4"/>
<feColorMatrix type="matrix" values="0 0 0 0 0.445833 0 0 0 0 0.442118 0 0 0 0 0.442118 0 0 0 0.25 0"/>
<feBlend mode="normal" in2="BackgroundImageFix" result="effect1_dropShadow"/>
<feBlend mode="normal" in="SourceGraphic" in2="effect1_dropShadow" result="shape"/>
</filter>
</defs>
</svg>
