<svg width="562" height="283" viewBox="0 0 562 283" fill="none" xmlns="http://www.w3.org/2000/svg">
<g filter="url(#filter0_d)">
<rect x="9" y="6" width="544" height="264.108" fill="white"/>
</g>
<path d="M69.7939 72.7051C72.624 72.7051 74.707 71.0352 75.0586 68.5303H73.0986C72.7471 69.9629 71.4727 70.8682 69.7939 70.8682C67.5088 70.8682 66.085 69.0137 66.085 66.0605C66.085 63.0986 67.5088 61.2441 69.7852 61.2441C71.4551 61.2441 72.7295 62.2461 73.0986 63.8018H75.0586C74.7422 61.2178 72.5801 59.4072 69.7852 59.4072C66.2607 59.4072 64.0723 61.9473 64.0723 66.0605C64.0723 70.165 66.2695 72.7051 69.7939 72.7051ZM77.0195 72.3975H78.9092V66.8076C78.9092 65.3574 79.7705 64.3818 81.3174 64.3818C82.6533 64.3818 83.3652 65.1553 83.3652 66.6846V72.3975H85.2549V66.2188C85.2549 63.9424 83.998 62.6504 81.959 62.6504C80.5176 62.6504 79.5068 63.292 79.041 64.3643H78.8916V59.0908H77.0195V72.3975ZM91.4609 72.582C94.2559 72.582 95.9697 70.71 95.9697 67.6074C95.9697 64.5225 94.2471 62.6416 91.4609 62.6416C88.666 62.6416 86.9434 64.5225 86.9434 67.6074C86.9434 70.71 88.6572 72.582 91.4609 72.582ZM91.4609 70.9033C89.8174 70.9033 88.8945 69.6992 88.8945 67.6074C88.8945 65.5332 89.8174 64.3203 91.4609 64.3203C93.0957 64.3203 94.0273 65.5332 94.0273 67.6074C94.0273 69.6904 93.0957 70.9033 91.4609 70.9033ZM101.789 72.582C104.584 72.582 106.298 70.71 106.298 67.6074C106.298 64.5225 104.575 62.6416 101.789 62.6416C98.9941 62.6416 97.2715 64.5225 97.2715 67.6074C97.2715 70.71 98.9854 72.582 101.789 72.582ZM101.789 70.9033C100.146 70.9033 99.2227 69.6992 99.2227 67.6074C99.2227 65.5332 100.146 64.3203 101.789 64.3203C103.424 64.3203 104.355 65.5332 104.355 67.6074C104.355 69.6904 103.424 70.9033 101.789 70.9033ZM107.854 65.5332C107.854 66.957 108.698 67.7744 110.518 68.2051L112.188 68.5918C113.146 68.8203 113.594 69.1895 113.594 69.7607C113.594 70.5254 112.759 71.0527 111.581 71.0527C110.438 71.0527 109.735 70.5957 109.498 69.8574H107.608C107.775 71.5537 109.261 72.582 111.537 72.582C113.822 72.582 115.501 71.3779 115.501 69.5762C115.501 68.1699 114.648 67.3877 112.829 66.9658L111.238 66.5967C110.201 66.3594 109.718 65.999 109.718 65.4277C109.718 64.6807 110.518 64.1797 111.572 64.1797C112.645 64.1797 113.33 64.6279 113.506 65.3311H115.316C115.132 63.6436 113.726 62.6416 111.572 62.6416C109.41 62.6416 107.854 63.8369 107.854 65.5332ZM121.206 64.25C122.604 64.25 123.518 65.2256 123.562 66.7285H118.728C118.833 65.2344 119.809 64.25 121.206 64.25ZM123.553 69.8135C123.201 70.5605 122.419 70.9736 121.276 70.9736C119.765 70.9736 118.789 69.9102 118.728 68.2314V68.126H125.486V67.4668C125.486 64.4609 123.878 62.6416 121.215 62.6416C118.517 62.6416 116.803 64.584 116.803 67.6426C116.803 70.7012 118.481 72.582 121.224 72.582C123.412 72.582 124.959 71.5186 125.372 69.8135H123.553ZM131.764 72.3975H133.653V66.8076C133.653 65.3574 134.515 64.3818 136.062 64.3818C137.397 64.3818 138.109 65.1553 138.109 66.6846V72.3975H139.999V66.2188C139.999 63.9424 138.742 62.6504 136.703 62.6504C135.262 62.6504 134.251 63.292 133.785 64.3643H133.636V59.0908H131.764V72.3975ZM146.205 72.582C149 72.582 150.714 70.71 150.714 67.6074C150.714 64.5225 148.991 62.6416 146.205 62.6416C143.41 62.6416 141.688 64.5225 141.688 67.6074C141.688 70.71 143.401 72.582 146.205 72.582ZM146.205 70.9033C144.562 70.9033 143.639 69.6992 143.639 67.6074C143.639 65.5332 144.562 64.3203 146.205 64.3203C147.84 64.3203 148.771 65.5332 148.771 67.6074C148.771 69.6904 147.84 70.9033 146.205 70.9033ZM164.584 62.8262H162.694L160.989 70.1299H160.84L158.871 62.8262H157.061L155.092 70.1299H154.951L153.237 62.8262H151.321L153.958 72.3975H155.9L157.869 65.3486H158.019L159.996 72.3975H161.956L164.584 62.8262ZM171.406 75.8691C173.357 75.8691 174.263 75.1221 175.08 72.793L178.648 62.8262H176.645L174.254 70.4287H174.104L171.705 62.8262H169.648L173.111 72.4326L172.971 72.8984C172.646 73.8652 172.136 74.2344 171.239 74.2344C171.063 74.2344 170.773 74.2256 170.624 74.1992V75.8252C170.8 75.8516 171.248 75.8691 171.406 75.8691ZM183.756 72.582C186.551 72.582 188.265 70.71 188.265 67.6074C188.265 64.5225 186.542 62.6416 183.756 62.6416C180.961 62.6416 179.238 64.5225 179.238 67.6074C179.238 70.71 180.952 72.582 183.756 72.582ZM183.756 70.9033C182.112 70.9033 181.189 69.6992 181.189 67.6074C181.189 65.5332 182.112 64.3203 183.756 64.3203C185.391 64.3203 186.322 65.5332 186.322 67.6074C186.322 69.6904 185.391 70.9033 183.756 70.9033ZM198.109 62.8262H196.22V68.4248C196.22 69.9277 195.385 70.833 193.855 70.833C192.467 70.833 191.843 70.0947 191.843 68.5479V62.8262H189.953V69.04C189.953 71.29 191.131 72.582 193.249 72.582C194.699 72.582 195.675 71.9668 196.141 70.877H196.29V72.3975H198.109V62.8262ZM204.861 72.3975H206.751V66.8076C206.751 65.3574 207.612 64.3818 209.159 64.3818C210.495 64.3818 211.207 65.1553 211.207 66.6846V72.3975H213.097V66.2188C213.097 63.9424 211.84 62.6504 209.801 62.6504C208.359 62.6504 207.349 63.292 206.883 64.3643H206.733V59.0908H204.861V72.3975ZM218.389 70.9648C217.36 70.9648 216.613 70.4639 216.613 69.6025C216.613 68.7588 217.211 68.3105 218.529 68.2227L220.867 68.0732V68.873C220.867 70.0596 219.812 70.9648 218.389 70.9648ZM217.905 72.5557C219.162 72.5557 220.208 72.0107 220.779 71.0527H220.929V72.3975H222.748V65.8584C222.748 63.8369 221.395 62.6416 218.995 62.6416C216.824 62.6416 215.277 63.6963 215.084 65.3398H216.912C217.123 64.6631 217.853 64.2764 218.907 64.2764C220.199 64.2764 220.867 64.8477 220.867 65.8584V66.6846L218.274 66.834C215.998 66.9746 214.715 67.9678 214.715 69.6904C214.715 71.4395 216.06 72.5557 217.905 72.5557ZM224.938 72.3975H226.827V66.7988C226.827 65.3047 227.715 64.373 229.112 64.373C230.51 64.373 231.178 65.1377 231.178 66.6758V72.3975H233.067V66.2012C233.067 63.9248 231.89 62.6416 229.754 62.6416C228.312 62.6416 227.363 63.2832 226.897 64.3467H226.757V62.8262H224.938V72.3975ZM238.729 72.5557C240.047 72.5557 241.163 71.9316 241.734 70.8857H241.884V72.3975H243.694V59.0908H241.805V64.3467H241.664C241.146 63.292 240.038 62.668 238.729 62.668C236.312 62.668 234.756 64.584 234.756 67.6074C234.756 70.6396 236.294 72.5557 238.729 72.5557ZM239.265 64.3643C240.847 64.3643 241.84 65.6211 241.84 67.6162C241.84 69.6201 240.855 70.8594 239.265 70.8594C237.665 70.8594 236.707 69.6377 236.707 67.6074C236.707 65.5947 237.674 64.3643 239.265 64.3643ZM246.121 72.3975H248.011V59.0908H246.121V72.3975ZM254.278 64.25C255.676 64.25 256.59 65.2256 256.634 66.7285H251.8C251.905 65.2344 252.881 64.25 254.278 64.25ZM256.625 69.8135C256.273 70.5605 255.491 70.9736 254.349 70.9736C252.837 70.9736 251.861 69.9102 251.8 68.2314V68.126H258.559V67.4668C258.559 64.4609 256.95 62.6416 254.287 62.6416C251.589 62.6416 249.875 64.584 249.875 67.6426C249.875 70.7012 251.554 72.582 254.296 72.582C256.484 72.582 258.031 71.5186 258.444 69.8135H256.625ZM264.783 72.3975H266.664V62.8262H264.783V72.3975ZM265.724 61.165C266.383 61.165 266.919 60.6113 266.919 59.9346C266.919 59.249 266.383 58.6953 265.724 58.6953C265.064 58.6953 264.528 59.249 264.528 59.9346C264.528 60.6113 265.064 61.165 265.724 61.165ZM268.941 72.3975H270.831V66.7988C270.831 65.3047 271.719 64.373 273.116 64.373C274.514 64.373 275.182 65.1377 275.182 66.6758V72.3975H277.071V66.2012C277.071 63.9248 275.894 62.6416 273.758 62.6416C272.316 62.6416 271.367 63.2832 270.901 64.3467H270.761V62.8262H268.941V72.3975ZM287.021 62.8262H285.018L282.645 70.376H282.495L280.113 62.8262H278.092L281.546 72.3975H283.576L287.021 62.8262ZM292.111 72.582C294.906 72.582 296.62 70.71 296.62 67.6074C296.62 64.5225 294.897 62.6416 292.111 62.6416C289.316 62.6416 287.594 64.5225 287.594 67.6074C287.594 70.71 289.308 72.582 292.111 72.582ZM292.111 70.9033C290.468 70.9033 289.545 69.6992 289.545 67.6074C289.545 65.5332 290.468 64.3203 292.111 64.3203C293.746 64.3203 294.678 65.5332 294.678 67.6074C294.678 69.6904 293.746 70.9033 292.111 70.9033ZM298.432 72.3975H300.312V62.8262H298.432V72.3975ZM299.372 61.165C300.031 61.165 300.567 60.6113 300.567 59.9346C300.567 59.249 300.031 58.6953 299.372 58.6953C298.713 58.6953 298.177 59.249 298.177 59.9346C298.177 60.6113 298.713 61.165 299.372 61.165ZM310.693 65.9551C310.447 64.0391 308.997 62.6416 306.598 62.6416C303.812 62.6416 302.115 64.5137 302.115 67.5811C302.115 70.7012 303.82 72.582 306.606 72.582C308.971 72.582 310.447 71.2461 310.693 69.3213H308.856C308.61 70.3496 307.793 70.8945 306.598 70.8945C305.024 70.8945 304.049 69.6553 304.049 67.5811C304.049 65.542 305.016 64.3291 306.598 64.3291C307.863 64.3291 308.637 65.0234 308.856 65.9551H310.693ZM316.284 64.25C317.682 64.25 318.596 65.2256 318.64 66.7285H313.806C313.911 65.2344 314.887 64.25 316.284 64.25ZM318.631 69.8135C318.279 70.5605 317.497 70.9736 316.354 70.9736C314.843 70.9736 313.867 69.9102 313.806 68.2314V68.126H320.564V67.4668C320.564 64.4609 318.956 62.6416 316.293 62.6416C313.595 62.6416 311.881 64.584 311.881 67.6426C311.881 70.7012 313.56 72.582 316.302 72.582C318.49 72.582 320.037 71.5186 320.45 69.8135H318.631ZM322.112 65.5332C322.112 66.957 322.956 67.7744 324.775 68.2051L326.445 68.5918C327.403 68.8203 327.852 69.1895 327.852 69.7607C327.852 70.5254 327.017 71.0527 325.839 71.0527C324.696 71.0527 323.993 70.5957 323.756 69.8574H321.866C322.033 71.5537 323.519 72.582 325.795 72.582C328.08 72.582 329.759 71.3779 329.759 69.5762C329.759 68.1699 328.906 67.3877 327.087 66.9658L325.496 66.5967C324.459 66.3594 323.976 65.999 323.976 65.4277C323.976 64.6807 324.775 64.1797 325.83 64.1797C326.902 64.1797 327.588 64.6279 327.764 65.3311H329.574C329.39 63.6436 327.983 62.6416 325.83 62.6416C323.668 62.6416 322.112 63.8369 322.112 65.5332Z" fill="#666677"/>
<path d="M70.8047 132.418H70.9141L73.3359 140.691H74.9844L78.0312 129.418H76.2109L74.1484 138.051H74.0391L71.6719 129.418H70.0469L67.6953 138.051H67.5859L65.5156 129.418H63.6953L66.7344 140.691H68.3906L70.8047 132.418ZM79.5312 140.691H81.2109V135.723C81.2109 134.434 81.9766 133.566 83.3516 133.566C84.5391 133.566 85.1719 134.254 85.1719 135.613V140.691H86.8516V135.199C86.8516 133.176 85.7344 132.027 83.9219 132.027C82.6406 132.027 81.7422 132.598 81.3281 133.551H81.1953V128.863H79.5312V140.691ZM92.2109 133.449C93.4531 133.449 94.2656 134.316 94.3047 135.652H90.0078C90.1016 134.324 90.9688 133.449 92.2109 133.449ZM94.2969 138.395C93.9844 139.059 93.2891 139.426 92.2734 139.426C90.9297 139.426 90.0625 138.48 90.0078 136.988V136.895H96.0156V136.309C96.0156 133.637 94.5859 132.02 92.2188 132.02C89.8203 132.02 88.2969 133.746 88.2969 136.465C88.2969 139.184 89.7891 140.855 92.2266 140.855C94.1719 140.855 95.5469 139.91 95.9141 138.395H94.2969ZM97.5312 140.691H99.2109V135.715C99.2109 134.387 100 133.559 101.242 133.559C102.484 133.559 103.078 134.238 103.078 135.605V140.691H104.758V135.184C104.758 133.16 103.711 132.02 101.812 132.02C100.531 132.02 99.6875 132.59 99.2734 133.535H99.1484V132.184H97.5312V140.691ZM113.281 139.418C112.367 139.418 111.703 138.973 111.703 138.207C111.703 137.457 112.234 137.059 113.406 136.98L115.484 136.848V137.559C115.484 138.613 114.547 139.418 113.281 139.418ZM112.852 140.832C113.969 140.832 114.898 140.348 115.406 139.496H115.539V140.691H117.156V134.879C117.156 133.082 115.953 132.02 113.82 132.02C111.891 132.02 110.516 132.957 110.344 134.418H111.969C112.156 133.816 112.805 133.473 113.742 133.473C114.891 133.473 115.484 133.98 115.484 134.879V135.613L113.18 135.746C111.156 135.871 110.016 136.754 110.016 138.285C110.016 139.84 111.211 140.832 112.852 140.832ZM130.125 134.965C129.906 133.262 128.617 132.02 126.484 132.02C124.008 132.02 122.5 133.684 122.5 136.41C122.5 139.184 124.016 140.855 126.492 140.855C128.594 140.855 129.906 139.668 130.125 137.957H128.492C128.273 138.871 127.547 139.355 126.484 139.355C125.086 139.355 124.219 138.254 124.219 136.41C124.219 134.598 125.078 133.52 126.484 133.52C127.609 133.52 128.297 134.137 128.492 134.965H130.125ZM131.625 140.691H133.305V135.723C133.305 134.434 134.07 133.566 135.445 133.566C136.633 133.566 137.266 134.254 137.266 135.613V140.691H138.945V135.199C138.945 133.176 137.828 132.027 136.016 132.027C134.734 132.027 133.836 132.598 133.422 133.551H133.289V128.863H131.625V140.691ZM143.594 139.418C142.68 139.418 142.016 138.973 142.016 138.207C142.016 137.457 142.547 137.059 143.719 136.98L145.797 136.848V137.559C145.797 138.613 144.859 139.418 143.594 139.418ZM143.164 140.832C144.281 140.832 145.211 140.348 145.719 139.496H145.852V140.691H147.469V134.879C147.469 133.082 146.266 132.02 144.133 132.02C142.203 132.02 140.828 132.957 140.656 134.418H142.281C142.469 133.816 143.117 133.473 144.055 133.473C145.203 133.473 145.797 133.98 145.797 134.879V135.613L143.492 135.746C141.469 135.871 140.328 136.754 140.328 138.285C140.328 139.84 141.523 140.832 143.164 140.832ZM149.359 140.691H151.039V135.668C151.039 134.473 151.938 133.668 153.211 133.668C153.508 133.668 154.008 133.723 154.148 133.77V132.113C153.969 132.066 153.648 132.043 153.398 132.043C152.289 132.043 151.344 132.652 151.102 133.488H150.977V132.184H149.359V140.691ZM158.609 139.113C157.164 139.113 156.352 138.027 156.352 136.332C156.352 134.637 157.164 133.551 158.609 133.551C160.039 133.551 160.914 134.637 160.914 136.332C160.914 138.035 160.047 139.113 158.609 139.113ZM158.633 143.941C161.039 143.941 162.562 142.707 162.562 140.762V132.184H160.953V133.543H160.82C160.344 132.621 159.32 132.043 158.148 132.043C155.977 132.043 154.617 133.746 154.617 136.34C154.617 138.887 155.961 140.566 158.133 140.566C159.305 140.566 160.242 140.059 160.758 139.137H160.883V140.77C160.883 141.895 160.055 142.559 158.656 142.559C157.523 142.559 156.812 142.16 156.672 141.543H154.953C155.133 142.988 156.508 143.941 158.633 143.941ZM167.992 133.449C169.234 133.449 170.047 134.316 170.086 135.652H165.789C165.883 134.324 166.75 133.449 167.992 133.449ZM170.078 138.395C169.766 139.059 169.07 139.426 168.055 139.426C166.711 139.426 165.844 138.48 165.789 136.988V136.895H171.797V136.309C171.797 133.637 170.367 132.02 168 132.02C165.602 132.02 164.078 133.746 164.078 136.465C164.078 139.184 165.57 140.855 168.008 140.855C169.953 140.855 171.328 139.91 171.695 138.395H170.078ZM177.82 140.832C179.969 140.832 181.336 139.129 181.336 136.434C181.336 133.73 179.977 132.043 177.82 132.043C176.656 132.043 175.656 132.605 175.203 133.535H175.07V128.863H173.391V140.691H175.008V139.348H175.133C175.641 140.285 176.633 140.832 177.82 140.832ZM177.336 133.551C178.758 133.551 179.609 134.645 179.609 136.434C179.609 138.238 178.758 139.324 177.336 139.324C175.922 139.324 175.047 138.223 175.039 136.441C175.047 134.66 175.93 133.551 177.336 133.551ZM185.641 139.418C184.727 139.418 184.062 138.973 184.062 138.207C184.062 137.457 184.594 137.059 185.766 136.98L187.844 136.848V137.559C187.844 138.613 186.906 139.418 185.641 139.418ZM185.211 140.832C186.328 140.832 187.258 140.348 187.766 139.496H187.898V140.691H189.516V134.879C189.516 133.082 188.312 132.02 186.18 132.02C184.25 132.02 182.875 132.957 182.703 134.418H184.328C184.516 133.816 185.164 133.473 186.102 133.473C187.25 133.473 187.844 133.98 187.844 134.879V135.613L185.539 135.746C183.516 135.871 182.375 136.754 182.375 138.285C182.375 139.84 183.57 140.832 185.211 140.832ZM198.609 134.965C198.391 133.262 197.102 132.02 194.969 132.02C192.492 132.02 190.984 133.684 190.984 136.41C190.984 139.184 192.5 140.855 194.977 140.855C197.078 140.855 198.391 139.668 198.609 137.957H196.977C196.758 138.871 196.031 139.355 194.969 139.355C193.57 139.355 192.703 138.254 192.703 136.41C192.703 134.598 193.562 133.52 194.969 133.52C196.094 133.52 196.781 134.137 196.977 134.965H198.609ZM201.922 135.73H201.789V128.863H200.109V140.691H201.789V137.645L202.531 136.941L205.453 140.691H207.516L203.781 135.832L207.281 132.184H205.297L201.922 135.73ZM212.469 140.691H214.141V132.184H212.469V140.691ZM213.305 130.707C213.891 130.707 214.367 130.215 214.367 129.613C214.367 129.004 213.891 128.512 213.305 128.512C212.719 128.512 212.242 129.004 212.242 129.613C212.242 130.215 212.719 130.707 213.305 130.707ZM215.914 134.59C215.914 135.855 216.664 136.582 218.281 136.965L219.766 137.309C220.617 137.512 221.016 137.84 221.016 138.348C221.016 139.027 220.273 139.496 219.227 139.496C218.211 139.496 217.586 139.09 217.375 138.434H215.695C215.844 139.941 217.164 140.855 219.188 140.855C221.219 140.855 222.711 139.785 222.711 138.184C222.711 136.934 221.953 136.238 220.336 135.863L218.922 135.535C218 135.324 217.57 135.004 217.57 134.496C217.57 133.832 218.281 133.387 219.219 133.387C220.172 133.387 220.781 133.785 220.938 134.41H222.547C222.383 132.91 221.133 132.02 219.219 132.02C217.297 132.02 215.914 133.082 215.914 134.59ZM228.141 140.691H229.812V132.184H228.141V140.691ZM228.977 130.707C229.562 130.707 230.039 130.215 230.039 129.613C230.039 129.004 229.562 128.512 228.977 128.512C228.391 128.512 227.914 129.004 227.914 129.613C227.914 130.215 228.391 130.707 228.977 130.707ZM231.781 140.691H233.461V135.715C233.461 134.387 234.25 133.559 235.492 133.559C236.734 133.559 237.328 134.238 237.328 135.605V140.691H239.008V135.184C239.008 133.16 237.961 132.02 236.062 132.02C234.781 132.02 233.938 132.59 233.523 133.535H233.398V132.184H231.781V140.691ZM240.906 140.691H242.578V132.184H240.906V140.691ZM241.742 130.707C242.328 130.707 242.805 130.215 242.805 129.613C242.805 129.004 242.328 128.512 241.742 128.512C241.156 128.512 240.68 129.004 240.68 129.613C240.68 130.215 241.156 130.707 241.742 130.707ZM245.141 130.066V132.223H243.789V133.637H245.141V138.441C245.141 140.082 245.883 140.738 247.75 140.738C248.078 140.738 248.391 140.699 248.664 140.652V139.254C248.43 139.277 248.281 139.293 248.023 139.293C247.188 139.293 246.82 138.902 246.82 138.012V133.637H248.664V132.223H246.82V130.066H245.141ZM250.172 140.691H251.844V132.184H250.172V140.691ZM251.008 130.707C251.594 130.707 252.07 130.215 252.07 129.613C252.07 129.004 251.594 128.512 251.008 128.512C250.422 128.512 249.945 129.004 249.945 129.613C249.945 130.215 250.422 130.707 251.008 130.707ZM256.594 139.418C255.68 139.418 255.016 138.973 255.016 138.207C255.016 137.457 255.547 137.059 256.719 136.98L258.797 136.848V137.559C258.797 138.613 257.859 139.418 256.594 139.418ZM256.164 140.832C257.281 140.832 258.211 140.348 258.719 139.496H258.852V140.691H260.469V134.879C260.469 133.082 259.266 132.02 257.133 132.02C255.203 132.02 253.828 132.957 253.656 134.418H255.281C255.469 133.816 256.117 133.473 257.055 133.473C258.203 133.473 258.797 133.98 258.797 134.879V135.613L256.492 135.746C254.469 135.871 253.328 136.754 253.328 138.285C253.328 139.84 254.523 140.832 256.164 140.832ZM262.953 130.066V132.223H261.602V133.637H262.953V138.441C262.953 140.082 263.695 140.738 265.562 140.738C265.891 140.738 266.203 140.699 266.477 140.652V139.254C266.242 139.277 266.094 139.293 265.836 139.293C265 139.293 264.633 138.902 264.633 138.012V133.637H266.477V132.223H264.633V130.066H262.953ZM271.352 133.449C272.594 133.449 273.406 134.316 273.445 135.652H269.148C269.242 134.324 270.109 133.449 271.352 133.449ZM273.438 138.395C273.125 139.059 272.43 139.426 271.414 139.426C270.07 139.426 269.203 138.48 269.148 136.988V136.895H275.156V136.309C275.156 133.637 273.727 132.02 271.359 132.02C268.961 132.02 267.438 133.746 267.438 136.465C267.438 139.184 268.93 140.855 271.367 140.855C273.312 140.855 274.688 139.91 275.055 138.395H273.438ZM279.781 140.832C280.953 140.832 281.945 140.277 282.453 139.348H282.586V140.691H284.195V128.863H282.516V133.535H282.391C281.93 132.598 280.945 132.043 279.781 132.043C277.633 132.043 276.25 133.746 276.25 136.434C276.25 139.129 277.617 140.832 279.781 140.832ZM280.258 133.551C281.664 133.551 282.547 134.668 282.547 136.441C282.547 138.223 281.672 139.324 280.258 139.324C278.836 139.324 277.984 138.238 277.984 136.434C277.984 134.645 278.844 133.551 280.258 133.551Z" fill="#666677"/>
<path d="M321.242 141.194C323.758 141.194 325.609 139.71 325.922 137.483H324.18C323.867 138.757 322.734 139.562 321.242 139.562C319.211 139.562 317.945 137.913 317.945 135.288C317.945 132.655 319.211 131.007 321.234 131.007C322.719 131.007 323.852 131.897 324.18 133.28H325.922C325.641 130.983 323.719 129.374 321.234 129.374C318.102 129.374 316.156 131.632 316.156 135.288C316.156 138.937 318.109 141.194 321.242 141.194ZM327.531 140.921H329.211V135.897C329.211 134.702 330.109 133.897 331.383 133.897C331.68 133.897 332.18 133.952 332.32 133.999V132.343C332.141 132.296 331.82 132.272 331.57 132.272C330.461 132.272 329.516 132.882 329.273 133.718H329.148V132.413H327.531V140.921ZM336.711 133.679C337.953 133.679 338.766 134.546 338.805 135.882H334.508C334.602 134.554 335.469 133.679 336.711 133.679ZM338.797 138.624C338.484 139.288 337.789 139.655 336.773 139.655C335.43 139.655 334.562 138.71 334.508 137.218V137.124H340.516V136.538C340.516 133.866 339.086 132.249 336.719 132.249C334.32 132.249 332.797 133.976 332.797 136.694C332.797 139.413 334.289 141.085 336.727 141.085C338.672 141.085 340.047 140.14 340.414 138.624H338.797ZM344.812 139.647C343.898 139.647 343.234 139.202 343.234 138.437C343.234 137.687 343.766 137.288 344.938 137.21L347.016 137.077V137.788C347.016 138.843 346.078 139.647 344.812 139.647ZM344.383 141.062C345.5 141.062 346.43 140.577 346.938 139.726H347.07V140.921H348.688V135.108C348.688 133.312 347.484 132.249 345.352 132.249C343.422 132.249 342.047 133.187 341.875 134.647H343.5C343.688 134.046 344.336 133.702 345.273 133.702C346.422 133.702 347.016 134.21 347.016 135.108V135.843L344.711 135.976C342.688 136.101 341.547 136.983 341.547 138.515C341.547 140.069 342.742 141.062 344.383 141.062ZM351.172 130.296V132.452H349.82V133.866H351.172V138.671C351.172 140.312 351.914 140.968 353.781 140.968C354.109 140.968 354.422 140.929 354.695 140.882V139.483C354.461 139.507 354.312 139.522 354.055 139.522C353.219 139.522 352.852 139.132 352.852 138.241V133.866H354.695V132.452H352.852V130.296H351.172ZM359.57 133.679C360.812 133.679 361.625 134.546 361.664 135.882H357.367C357.461 134.554 358.328 133.679 359.57 133.679ZM361.656 138.624C361.344 139.288 360.648 139.655 359.633 139.655C358.289 139.655 357.422 138.71 357.367 137.218V137.124H363.375V136.538C363.375 133.866 361.945 132.249 359.578 132.249C357.18 132.249 355.656 133.976 355.656 136.694C355.656 139.413 357.148 141.085 359.586 141.085C361.531 141.085 362.906 140.14 363.273 138.624H361.656ZM368 141.062C369.172 141.062 370.164 140.507 370.672 139.577H370.805V140.921H372.414V129.093H370.734V133.765H370.609C370.148 132.827 369.164 132.272 368 132.272C365.852 132.272 364.469 133.976 364.469 136.663C364.469 139.358 365.836 141.062 368 141.062ZM368.477 133.78C369.883 133.78 370.766 134.897 370.766 136.671C370.766 138.452 369.891 139.554 368.477 139.554C367.055 139.554 366.203 138.468 366.203 136.663C366.203 134.874 367.062 133.78 368.477 133.78ZM385.516 135.194C385.297 133.491 384.008 132.249 381.875 132.249C379.398 132.249 377.891 133.913 377.891 136.64C377.891 139.413 379.406 141.085 381.883 141.085C383.984 141.085 385.297 139.897 385.516 138.187H383.883C383.664 139.101 382.938 139.585 381.875 139.585C380.477 139.585 379.609 138.483 379.609 136.64C379.609 134.827 380.469 133.749 381.875 133.749C383 133.749 383.688 134.366 383.883 135.194H385.516ZM386.938 140.921H388.617V135.897C388.617 134.702 389.516 133.897 390.789 133.897C391.086 133.897 391.586 133.952 391.727 133.999V132.343C391.547 132.296 391.227 132.272 390.977 132.272C389.867 132.272 388.922 132.882 388.68 133.718H388.555V132.413H386.938V140.921ZM396.117 133.679C397.359 133.679 398.172 134.546 398.211 135.882H393.914C394.008 134.554 394.875 133.679 396.117 133.679ZM398.203 138.624C397.891 139.288 397.195 139.655 396.18 139.655C394.836 139.655 393.969 138.71 393.914 137.218V137.124H399.922V136.538C399.922 133.866 398.492 132.249 396.125 132.249C393.727 132.249 392.203 133.976 392.203 136.694C392.203 139.413 393.695 141.085 396.133 141.085C398.078 141.085 399.453 140.14 399.82 138.624H398.203ZM404.547 141.062C405.719 141.062 406.711 140.507 407.219 139.577H407.352V140.921H408.961V129.093H407.281V133.765H407.156C406.695 132.827 405.711 132.272 404.547 132.272C402.398 132.272 401.016 133.976 401.016 136.663C401.016 139.358 402.383 141.062 404.547 141.062ZM405.023 133.78C406.43 133.78 407.312 134.897 407.312 136.671C407.312 138.452 406.438 139.554 405.023 139.554C403.602 139.554 402.75 138.468 402.75 136.663C402.75 134.874 403.609 133.78 405.023 133.78ZM411.016 140.921H412.688V132.413H411.016V140.921ZM411.852 130.937C412.438 130.937 412.914 130.444 412.914 129.843C412.914 129.233 412.438 128.741 411.852 128.741C411.266 128.741 410.789 129.233 410.789 129.843C410.789 130.444 411.266 130.937 411.852 130.937ZM415.25 130.296V132.452H413.898V133.866H415.25V138.671C415.25 140.312 415.992 140.968 417.859 140.968C418.188 140.968 418.5 140.929 418.773 140.882V139.483C418.539 139.507 418.391 139.522 418.133 139.522C417.297 139.522 416.93 139.132 416.93 138.241V133.866H418.773V132.452H416.93V130.296H415.25ZM424.125 140.921H425.805V135.944C425.805 134.616 426.594 133.788 427.836 133.788C429.078 133.788 429.672 134.468 429.672 135.835V140.921H431.352V135.413C431.352 133.39 430.305 132.249 428.406 132.249C427.125 132.249 426.281 132.819 425.867 133.765H425.742V132.413H424.125V140.921ZM436.812 141.085C439.297 141.085 440.82 139.421 440.82 136.663C440.82 133.921 439.289 132.249 436.812 132.249C434.328 132.249 432.797 133.921 432.797 136.663C432.797 139.421 434.32 141.085 436.812 141.085ZM436.812 139.593C435.352 139.593 434.531 138.522 434.531 136.663C434.531 134.819 435.352 133.741 436.812 133.741C438.266 133.741 439.094 134.819 439.094 136.663C439.094 138.515 438.266 139.593 436.812 139.593ZM442.938 130.296V132.452H441.586V133.866H442.938V138.671C442.938 140.312 443.68 140.968 445.547 140.968C445.875 140.968 446.188 140.929 446.461 140.882V139.483C446.227 139.507 446.078 139.522 445.82 139.522C444.984 139.522 444.617 139.132 444.617 138.241V133.866H446.461V132.452H444.617V130.296H442.938ZM451.336 133.679C452.578 133.679 453.391 134.546 453.43 135.882H449.133C449.227 134.554 450.094 133.679 451.336 133.679ZM453.422 138.624C453.109 139.288 452.414 139.655 451.398 139.655C450.055 139.655 449.188 138.71 449.133 137.218V137.124H455.141V136.538C455.141 133.866 453.711 132.249 451.344 132.249C448.945 132.249 447.422 133.976 447.422 136.694C447.422 139.413 448.914 141.085 451.352 141.085C453.297 141.085 454.672 140.14 455.039 138.624H453.422ZM463.312 139.647C462.398 139.647 461.734 139.202 461.734 138.437C461.734 137.687 462.266 137.288 463.438 137.21L465.516 137.077V137.788C465.516 138.843 464.578 139.647 463.312 139.647ZM462.883 141.062C464 141.062 464.93 140.577 465.438 139.726H465.57V140.921H467.188V135.108C467.188 133.312 465.984 132.249 463.852 132.249C461.922 132.249 460.547 133.187 460.375 134.647H462C462.188 134.046 462.836 133.702 463.773 133.702C464.922 133.702 465.516 134.21 465.516 135.108V135.843L463.211 135.976C461.188 136.101 460.047 136.983 460.047 138.515C460.047 140.069 461.242 141.062 462.883 141.062ZM469.078 140.921H470.758V135.944C470.758 134.616 471.547 133.788 472.789 133.788C474.031 133.788 474.625 134.468 474.625 135.835V140.921H476.305V135.413C476.305 133.39 475.258 132.249 473.359 132.249C472.078 132.249 471.234 132.819 470.82 133.765H470.695V132.413H469.078V140.921ZM481.281 141.062C482.453 141.062 483.445 140.507 483.953 139.577H484.086V140.921H485.695V129.093H484.016V133.765H483.891C483.43 132.827 482.445 132.272 481.281 132.272C479.133 132.272 477.75 133.976 477.75 136.663C477.75 139.358 479.117 141.062 481.281 141.062ZM481.758 133.78C483.164 133.78 484.047 134.897 484.047 136.671C484.047 138.452 483.172 139.554 481.758 139.554C480.336 139.554 479.484 138.468 479.484 136.663C479.484 134.874 480.344 133.78 481.758 133.78ZM389.047 161.921H390.727V156.897C390.727 155.702 391.625 154.897 392.898 154.897C393.195 154.897 393.695 154.952 393.836 154.999V153.343C393.656 153.296 393.336 153.272 393.086 153.272C391.977 153.272 391.031 153.882 390.789 154.718H390.664V153.413H389.047V161.921ZM398.227 154.679C399.469 154.679 400.281 155.546 400.32 156.882H396.023C396.117 155.554 396.984 154.679 398.227 154.679ZM400.312 159.624C400 160.288 399.305 160.655 398.289 160.655C396.945 160.655 396.078 159.71 396.023 158.218V158.124H402.031V157.538C402.031 154.866 400.602 153.249 398.234 153.249C395.836 153.249 394.312 154.976 394.312 157.694C394.312 160.413 395.805 162.085 398.242 162.085C400.188 162.085 401.562 161.14 401.93 159.624H400.312ZM410.75 156.194C410.531 154.491 409.242 153.249 407.109 153.249C404.633 153.249 403.125 154.913 403.125 157.64C403.125 160.413 404.641 162.085 407.117 162.085C409.219 162.085 410.531 160.897 410.75 159.187H409.117C408.898 160.101 408.172 160.585 407.109 160.585C405.711 160.585 404.844 159.483 404.844 157.64C404.844 155.827 405.703 154.749 407.109 154.749C408.234 154.749 408.922 155.366 409.117 156.194H410.75ZM415.766 162.085C418.25 162.085 419.773 160.421 419.773 157.663C419.773 154.921 418.242 153.249 415.766 153.249C413.281 153.249 411.75 154.921 411.75 157.663C411.75 160.421 413.273 162.085 415.766 162.085ZM415.766 160.593C414.305 160.593 413.484 159.522 413.484 157.663C413.484 155.819 414.305 154.741 415.766 154.741C417.219 154.741 418.047 155.819 418.047 157.663C418.047 159.515 417.219 160.593 415.766 160.593ZM421.297 161.921H422.977V156.897C422.977 155.702 423.875 154.897 425.148 154.897C425.445 154.897 425.945 154.952 426.086 154.999V153.343C425.906 153.296 425.586 153.272 425.336 153.272C424.227 153.272 423.281 153.882 423.039 154.718H422.914V153.413H421.297V161.921ZM430.094 162.062C431.266 162.062 432.258 161.507 432.766 160.577H432.898V161.921H434.508V150.093H432.828V154.765H432.703C432.242 153.827 431.258 153.272 430.094 153.272C427.945 153.272 426.562 154.976 426.562 157.663C426.562 160.358 427.93 162.062 430.094 162.062ZM430.57 154.78C431.977 154.78 432.859 155.897 432.859 157.671C432.859 159.452 431.984 160.554 430.57 160.554C429.148 160.554 428.297 159.468 428.297 157.663C428.297 155.874 429.156 154.78 430.57 154.78ZM440.406 161.921H442.086V156.897C442.086 155.702 442.984 154.897 444.258 154.897C444.555 154.897 445.055 154.952 445.195 154.999V153.343C445.016 153.296 444.695 153.272 444.445 153.272C443.336 153.272 442.391 153.882 442.148 154.718H442.023V153.413H440.406V161.921ZM449.586 154.679C450.828 154.679 451.641 155.546 451.68 156.882H447.383C447.477 155.554 448.344 154.679 449.586 154.679ZM451.672 159.624C451.359 160.288 450.664 160.655 449.648 160.655C448.305 160.655 447.438 159.71 447.383 158.218V158.124H453.391V157.538C453.391 154.866 451.961 153.249 449.594 153.249C447.195 153.249 445.672 154.976 445.672 157.694C445.672 160.413 447.164 162.085 449.602 162.085C451.547 162.085 452.922 161.14 453.289 159.624H451.672ZM455.508 161.921H457.188V154.866H459.062V153.452H457.164V152.64C457.164 151.796 457.547 151.374 458.484 151.374C458.75 151.374 458.977 151.39 459.133 151.421V150.101C458.844 150.046 458.516 150.015 458.133 150.015C456.367 150.015 455.508 150.843 455.508 152.538V153.452H454.109V154.866H455.508V161.921ZM467.641 153.413H465.961V158.39C465.961 159.726 465.219 160.53 463.859 160.53C462.625 160.53 462.07 159.874 462.07 158.499V153.413H460.391V158.937C460.391 160.937 461.438 162.085 463.32 162.085C464.609 162.085 465.477 161.538 465.891 160.569H466.023V161.921H467.641V153.413ZM469.578 161.921H471.258V156.944C471.258 155.616 472.047 154.788 473.289 154.788C474.531 154.788 475.125 155.468 475.125 156.835V161.921H476.805V156.413C476.805 154.39 475.758 153.249 473.859 153.249C472.578 153.249 471.734 153.819 471.32 154.765H471.195V153.413H469.578V161.921ZM481.781 162.062C482.953 162.062 483.945 161.507 484.453 160.577H484.586V161.921H486.195V150.093H484.516V154.765H484.391C483.93 153.827 482.945 153.272 481.781 153.272C479.633 153.272 478.25 154.976 478.25 157.663C478.25 160.358 479.617 162.062 481.781 162.062ZM482.258 154.78C483.664 154.78 484.547 155.897 484.547 157.671C484.547 159.452 483.672 160.554 482.258 160.554C480.836 160.554 479.984 159.468 479.984 157.663C479.984 155.874 480.844 154.78 482.258 154.78ZM367.242 178.21C367.242 181.054 367.977 183.39 369.5 185.327H370.984C369.852 183.89 368.977 180.89 368.977 178.202C368.977 175.53 369.859 172.53 370.984 171.093H369.5C367.977 173.03 367.242 175.366 367.242 178.21ZM374.461 173.187H376.93C378.281 173.187 379.109 173.929 379.109 175.155C379.109 176.413 378.328 177.132 376.977 177.132H374.461V173.187ZM374.461 178.624H376.93L379.227 182.921H381.25L378.719 178.335C380.094 177.866 380.906 176.632 380.906 175.116C380.906 172.999 379.445 171.647 377.172 171.647H372.711V182.921H374.461V178.624ZM385.945 175.679C387.188 175.679 388 176.546 388.039 177.882H383.742C383.836 176.554 384.703 175.679 385.945 175.679ZM388.031 180.624C387.719 181.288 387.023 181.655 386.008 181.655C384.664 181.655 383.797 180.71 383.742 179.218V179.124H389.75V178.538C389.75 175.866 388.32 174.249 385.953 174.249C383.555 174.249 382.031 175.976 382.031 178.694C382.031 181.413 383.523 183.085 385.961 183.085C387.906 183.085 389.281 182.14 389.648 180.624H388.031ZM398.469 177.194C398.25 175.491 396.961 174.249 394.828 174.249C392.352 174.249 390.844 175.913 390.844 178.64C390.844 181.413 392.359 183.085 394.836 183.085C396.938 183.085 398.25 181.897 398.469 180.187H396.836C396.617 181.101 395.891 181.585 394.828 181.585C393.43 181.585 392.562 180.483 392.562 178.64C392.562 176.827 393.422 175.749 394.828 175.749C395.953 175.749 396.641 176.366 396.836 177.194H398.469ZM403.484 183.085C405.969 183.085 407.492 181.421 407.492 178.663C407.492 175.921 405.961 174.249 403.484 174.249C401 174.249 399.469 175.921 399.469 178.663C399.469 181.421 400.992 183.085 403.484 183.085ZM403.484 181.593C402.023 181.593 401.203 180.522 401.203 178.663C401.203 176.819 402.023 175.741 403.484 175.741C404.938 175.741 405.766 176.819 405.766 178.663C405.766 180.515 404.938 181.593 403.484 181.593ZM409.016 182.921H410.695V177.718C410.695 176.624 411.469 175.788 412.492 175.788C413.492 175.788 414.133 176.374 414.133 177.335V182.921H415.781V177.569C415.781 176.569 416.492 175.788 417.578 175.788C418.68 175.788 419.227 176.351 419.227 177.499V182.921H420.906V177.062C420.906 175.288 419.906 174.249 418.188 174.249C417.008 174.249 416.031 174.851 415.602 175.78H415.469C415.094 174.851 414.289 174.249 413.125 174.249C411.992 174.249 411.133 174.819 410.758 175.78H410.633V174.413H409.016V182.921ZM422.766 182.921H424.445V177.718C424.445 176.624 425.219 175.788 426.242 175.788C427.242 175.788 427.883 176.374 427.883 177.335V182.921H429.531V177.569C429.531 176.569 430.242 175.788 431.328 175.788C432.43 175.788 432.977 176.351 432.977 177.499V182.921H434.656V177.062C434.656 175.288 433.656 174.249 431.938 174.249C430.758 174.249 429.781 174.851 429.352 175.78H429.219C428.844 174.851 428.039 174.249 426.875 174.249C425.742 174.249 424.883 174.819 424.508 175.78H424.383V174.413H422.766V182.921ZM440.008 175.679C441.25 175.679 442.062 176.546 442.102 177.882H437.805C437.898 176.554 438.766 175.679 440.008 175.679ZM442.094 180.624C441.781 181.288 441.086 181.655 440.07 181.655C438.727 181.655 437.859 180.71 437.805 179.218V179.124H443.812V178.538C443.812 175.866 442.383 174.249 440.016 174.249C437.617 174.249 436.094 175.976 436.094 178.694C436.094 181.413 437.586 183.085 440.023 183.085C441.969 183.085 443.344 182.14 443.711 180.624H442.094ZM445.328 182.921H447.008V177.944C447.008 176.616 447.797 175.788 449.039 175.788C450.281 175.788 450.875 176.468 450.875 177.835V182.921H452.555V177.413C452.555 175.39 451.508 174.249 449.609 174.249C448.328 174.249 447.484 174.819 447.07 175.765H446.945V174.413H445.328V182.921ZM457.531 183.062C458.703 183.062 459.695 182.507 460.203 181.577H460.336V182.921H461.945V171.093H460.266V175.765H460.141C459.68 174.827 458.695 174.272 457.531 174.272C455.383 174.272 454 175.976 454 178.663C454 181.358 455.367 183.062 457.531 183.062ZM458.008 175.78C459.414 175.78 460.297 176.897 460.297 178.671C460.297 180.452 459.422 181.554 458.008 181.554C456.586 181.554 455.734 180.468 455.734 178.663C455.734 176.874 456.594 175.78 458.008 175.78ZM467.461 175.679C468.703 175.679 469.516 176.546 469.555 177.882H465.258C465.352 176.554 466.219 175.679 467.461 175.679ZM469.547 180.624C469.234 181.288 468.539 181.655 467.523 181.655C466.18 181.655 465.312 180.71 465.258 179.218V179.124H471.266V178.538C471.266 175.866 469.836 174.249 467.469 174.249C465.07 174.249 463.547 175.976 463.547 178.694C463.547 181.413 465.039 183.085 467.477 183.085C469.422 183.085 470.797 182.14 471.164 180.624H469.547ZM475.891 183.062C477.062 183.062 478.055 182.507 478.562 181.577H478.695V182.921H480.305V171.093H478.625V175.765H478.5C478.039 174.827 477.055 174.272 475.891 174.272C473.742 174.272 472.359 175.976 472.359 178.663C472.359 181.358 473.727 183.062 475.891 183.062ZM476.367 175.78C477.773 175.78 478.656 176.897 478.656 178.671C478.656 180.452 477.781 181.554 476.367 181.554C474.945 181.554 474.094 180.468 474.094 178.663C474.094 176.874 474.953 175.78 476.367 175.78ZM485.648 178.218C485.648 175.374 484.914 173.038 483.398 171.093H481.914C483.039 172.538 483.922 175.53 483.922 178.218C483.922 180.897 483.039 183.897 481.914 185.327H483.398C484.914 183.397 485.648 181.062 485.648 178.218Z" fill="#3B67CE"/>
<path d="M70.8047 215.057H70.9141L73.3359 223.33H74.9844L78.0312 212.057H76.2109L74.1484 220.69H74.0391L71.6719 212.057H70.0469L67.6953 220.69H67.5859L65.5156 212.057H63.6953L66.7344 223.33H68.3906L70.8047 215.057ZM79.5312 223.33H81.2109V218.362C81.2109 217.073 81.9766 216.205 83.3516 216.205C84.5391 216.205 85.1719 216.893 85.1719 218.252V223.33H86.8516V217.838C86.8516 215.815 85.7344 214.666 83.9219 214.666C82.6406 214.666 81.7422 215.237 81.3281 216.19H81.1953V211.502H79.5312V223.33ZM92.2109 216.088C93.4531 216.088 94.2656 216.955 94.3047 218.291H90.0078C90.1016 216.963 90.9688 216.088 92.2109 216.088ZM94.2969 221.033C93.9844 221.698 93.2891 222.065 92.2734 222.065C90.9297 222.065 90.0625 221.119 90.0078 219.627V219.533H96.0156V218.948C96.0156 216.276 94.5859 214.658 92.2188 214.658C89.8203 214.658 88.2969 216.385 88.2969 219.104C88.2969 221.823 89.7891 223.494 92.2266 223.494C94.1719 223.494 95.5469 222.549 95.9141 221.033H94.2969ZM97.5312 223.33H99.2109V218.354C99.2109 217.026 100 216.198 101.242 216.198C102.484 216.198 103.078 216.877 103.078 218.244V223.33H104.758V217.823C104.758 215.799 103.711 214.658 101.812 214.658C100.531 214.658 99.6875 215.229 99.2734 216.174H99.1484V214.823H97.5312V223.33ZM113.281 222.057C112.367 222.057 111.703 221.612 111.703 220.846C111.703 220.096 112.234 219.698 113.406 219.619L115.484 219.487V220.198C115.484 221.252 114.547 222.057 113.281 222.057ZM112.852 223.471C113.969 223.471 114.898 222.987 115.406 222.135H115.539V223.33H117.156V217.518C117.156 215.721 115.953 214.658 113.82 214.658C111.891 214.658 110.516 215.596 110.344 217.057H111.969C112.156 216.455 112.805 216.112 113.742 216.112C114.891 216.112 115.484 216.619 115.484 217.518V218.252L113.18 218.385C111.156 218.51 110.016 219.393 110.016 220.924C110.016 222.479 111.211 223.471 112.852 223.471ZM130.125 217.604C129.906 215.901 128.617 214.658 126.484 214.658C124.008 214.658 122.5 216.323 122.5 219.049C122.5 221.823 124.016 223.494 126.492 223.494C128.594 223.494 129.906 222.307 130.125 220.596H128.492C128.273 221.51 127.547 221.994 126.484 221.994C125.086 221.994 124.219 220.893 124.219 219.049C124.219 217.237 125.078 216.158 126.484 216.158C127.609 216.158 128.297 216.776 128.492 217.604H130.125ZM131.625 223.33H133.305V218.362C133.305 217.073 134.07 216.205 135.445 216.205C136.633 216.205 137.266 216.893 137.266 218.252V223.33H138.945V217.838C138.945 215.815 137.828 214.666 136.016 214.666C134.734 214.666 133.836 215.237 133.422 216.19H133.289V211.502H131.625V223.33ZM143.594 222.057C142.68 222.057 142.016 221.612 142.016 220.846C142.016 220.096 142.547 219.698 143.719 219.619L145.797 219.487V220.198C145.797 221.252 144.859 222.057 143.594 222.057ZM143.164 223.471C144.281 223.471 145.211 222.987 145.719 222.135H145.852V223.33H147.469V217.518C147.469 215.721 146.266 214.658 144.133 214.658C142.203 214.658 140.828 215.596 140.656 217.057H142.281C142.469 216.455 143.117 216.112 144.055 216.112C145.203 216.112 145.797 216.619 145.797 217.518V218.252L143.492 218.385C141.469 218.51 140.328 219.393 140.328 220.924C140.328 222.479 141.523 223.471 143.164 223.471ZM149.359 223.33H151.039V218.307C151.039 217.112 151.938 216.307 153.211 216.307C153.508 216.307 154.008 216.362 154.148 216.408V214.752C153.969 214.705 153.648 214.682 153.398 214.682C152.289 214.682 151.344 215.291 151.102 216.127H150.977V214.823H149.359V223.33ZM158.609 221.752C157.164 221.752 156.352 220.666 156.352 218.971C156.352 217.276 157.164 216.19 158.609 216.19C160.039 216.19 160.914 217.276 160.914 218.971C160.914 220.674 160.047 221.752 158.609 221.752ZM158.633 226.58C161.039 226.58 162.562 225.346 162.562 223.401V214.823H160.953V216.182H160.82C160.344 215.26 159.32 214.682 158.148 214.682C155.977 214.682 154.617 216.385 154.617 218.979C154.617 221.526 155.961 223.205 158.133 223.205C159.305 223.205 160.242 222.698 160.758 221.776H160.883V223.408C160.883 224.533 160.055 225.198 158.656 225.198C157.523 225.198 156.812 224.799 156.672 224.182H154.953C155.133 225.627 156.508 226.58 158.633 226.58ZM167.992 216.088C169.234 216.088 170.047 216.955 170.086 218.291H165.789C165.883 216.963 166.75 216.088 167.992 216.088ZM170.078 221.033C169.766 221.698 169.07 222.065 168.055 222.065C166.711 222.065 165.844 221.119 165.789 219.627V219.533H171.797V218.948C171.797 216.276 170.367 214.658 168 214.658C165.602 214.658 164.078 216.385 164.078 219.104C164.078 221.823 165.57 223.494 168.008 223.494C169.953 223.494 171.328 222.549 171.695 221.033H170.078ZM177.82 223.471C179.969 223.471 181.336 221.768 181.336 219.073C181.336 216.369 179.977 214.682 177.82 214.682C176.656 214.682 175.656 215.244 175.203 216.174H175.07V211.502H173.391V223.33H175.008V221.987H175.133C175.641 222.924 176.633 223.471 177.82 223.471ZM177.336 216.19C178.758 216.19 179.609 217.283 179.609 219.073C179.609 220.877 178.758 221.963 177.336 221.963C175.922 221.963 175.047 220.862 175.039 219.08C175.047 217.299 175.93 216.19 177.336 216.19ZM185.641 222.057C184.727 222.057 184.062 221.612 184.062 220.846C184.062 220.096 184.594 219.698 185.766 219.619L187.844 219.487V220.198C187.844 221.252 186.906 222.057 185.641 222.057ZM185.211 223.471C186.328 223.471 187.258 222.987 187.766 222.135H187.898V223.33H189.516V217.518C189.516 215.721 188.312 214.658 186.18 214.658C184.25 214.658 182.875 215.596 182.703 217.057H184.328C184.516 216.455 185.164 216.112 186.102 216.112C187.25 216.112 187.844 216.619 187.844 217.518V218.252L185.539 218.385C183.516 218.51 182.375 219.393 182.375 220.924C182.375 222.479 183.57 223.471 185.211 223.471ZM198.609 217.604C198.391 215.901 197.102 214.658 194.969 214.658C192.492 214.658 190.984 216.323 190.984 219.049C190.984 221.823 192.5 223.494 194.977 223.494C197.078 223.494 198.391 222.307 198.609 220.596H196.977C196.758 221.51 196.031 221.994 194.969 221.994C193.57 221.994 192.703 220.893 192.703 219.049C192.703 217.237 193.562 216.158 194.969 216.158C196.094 216.158 196.781 216.776 196.977 217.604H198.609ZM201.922 218.369H201.789V211.502H200.109V223.33H201.789V220.283L202.531 219.58L205.453 223.33H207.516L203.781 218.471L207.281 214.823H205.297L201.922 218.369ZM212.469 223.33H214.141V214.823H212.469V223.33ZM213.305 213.346C213.891 213.346 214.367 212.854 214.367 212.252C214.367 211.643 213.891 211.151 213.305 211.151C212.719 211.151 212.242 211.643 212.242 212.252C212.242 212.854 212.719 213.346 213.305 213.346ZM215.914 217.229C215.914 218.494 216.664 219.221 218.281 219.604L219.766 219.948C220.617 220.151 221.016 220.479 221.016 220.987C221.016 221.666 220.273 222.135 219.227 222.135C218.211 222.135 217.586 221.729 217.375 221.073H215.695C215.844 222.58 217.164 223.494 219.188 223.494C221.219 223.494 222.711 222.424 222.711 220.823C222.711 219.573 221.953 218.877 220.336 218.502L218.922 218.174C218 217.963 217.57 217.643 217.57 217.135C217.57 216.471 218.281 216.026 219.219 216.026C220.172 216.026 220.781 216.424 220.938 217.049H222.547C222.383 215.549 221.133 214.658 219.219 214.658C217.297 214.658 215.914 215.721 215.914 217.229ZM228.188 223.33H229.867V211.502H228.188V223.33ZM235.484 223.494C237.969 223.494 239.492 221.83 239.492 219.073C239.492 216.33 237.961 214.658 235.484 214.658C233 214.658 231.469 216.33 231.469 219.073C231.469 221.83 232.992 223.494 235.484 223.494ZM235.484 222.002C234.023 222.002 233.203 220.932 233.203 219.073C233.203 217.229 234.023 216.151 235.484 216.151C236.938 216.151 237.766 217.229 237.766 219.073C237.766 220.924 236.938 222.002 235.484 222.002ZM240.82 217.229C240.82 218.494 241.57 219.221 243.188 219.604L244.672 219.948C245.523 220.151 245.922 220.479 245.922 220.987C245.922 221.666 245.18 222.135 244.133 222.135C243.117 222.135 242.492 221.729 242.281 221.073H240.602C240.75 222.58 242.07 223.494 244.094 223.494C246.125 223.494 247.617 222.424 247.617 220.823C247.617 219.573 246.859 218.877 245.242 218.502L243.828 218.174C242.906 217.963 242.477 217.643 242.477 217.135C242.477 216.471 243.188 216.026 244.125 216.026C245.078 216.026 245.688 216.424 245.844 217.049H247.453C247.289 215.549 246.039 214.658 244.125 214.658C242.203 214.658 240.82 215.721 240.82 217.229ZM249.672 212.705V214.862H248.32V216.276H249.672V221.08C249.672 222.721 250.414 223.377 252.281 223.377C252.609 223.377 252.922 223.338 253.195 223.291V221.893C252.961 221.916 252.812 221.932 252.555 221.932C251.719 221.932 251.352 221.541 251.352 220.651V216.276H253.195V214.862H251.352V212.705H249.672Z" fill="#666677"/>
<path d="M496 132.85L501 138.807L506 132.85" stroke="#3B67CE" stroke-width="2"/>
<path d="M404.367 212.057V223.33H408.438C411.797 223.33 413.742 221.26 413.742 217.658C413.742 214.112 411.781 212.057 408.438 212.057H404.367ZM406.117 213.651H408.242C410.578 213.651 411.961 215.135 411.961 217.682C411.961 220.268 410.602 221.737 408.242 221.737H406.117V213.651ZM419.016 223.494C421.5 223.494 423.023 221.83 423.023 219.073C423.023 216.33 421.492 214.658 419.016 214.658C416.531 214.658 415 216.33 415 219.073C415 221.83 416.523 223.494 419.016 223.494ZM419.016 222.002C417.555 222.002 416.734 220.932 416.734 219.073C416.734 217.229 417.555 216.151 419.016 216.151C420.469 216.151 421.297 217.229 421.297 219.073C421.297 220.924 420.469 222.002 419.016 222.002ZM428.422 223.33H430.102V218.354C430.102 217.026 430.891 216.198 432.133 216.198C433.375 216.198 433.969 216.877 433.969 218.244V223.33H435.648V217.823C435.648 215.799 434.602 214.658 432.703 214.658C431.422 214.658 430.578 215.229 430.164 216.174H430.039V214.823H428.422V223.33ZM441.109 223.494C443.594 223.494 445.117 221.83 445.117 219.073C445.117 216.33 443.586 214.658 441.109 214.658C438.625 214.658 437.094 216.33 437.094 219.073C437.094 221.83 438.617 223.494 441.109 223.494ZM441.109 222.002C439.648 222.002 438.828 220.932 438.828 219.073C438.828 217.229 439.648 216.151 441.109 216.151C442.562 216.151 443.391 217.229 443.391 219.073C443.391 220.924 442.562 222.002 441.109 222.002ZM447.234 212.705V214.862H445.883V216.276H447.234V221.08C447.234 222.721 447.977 223.377 449.844 223.377C450.172 223.377 450.484 223.338 450.758 223.291V221.893C450.523 221.916 450.375 221.932 450.117 221.932C449.281 221.932 448.914 221.541 448.914 220.651V216.276H450.758V214.862H448.914V212.705H447.234ZM452.312 223.33H453.992V218.362C453.992 217.073 454.758 216.205 456.133 216.205C457.32 216.205 457.953 216.893 457.953 218.252V223.33H459.633V217.838C459.633 215.815 458.516 214.666 456.703 214.666C455.422 214.666 454.523 215.237 454.109 216.19H453.977V211.502H452.312V223.33ZM461.531 223.33H463.203V214.823H461.531V223.33ZM462.367 213.346C462.953 213.346 463.43 212.854 463.43 212.252C463.43 211.643 462.953 211.151 462.367 211.151C461.781 211.151 461.305 211.643 461.305 212.252C461.305 212.854 461.781 213.346 462.367 213.346ZM465.172 223.33H466.852V218.354C466.852 217.026 467.641 216.198 468.883 216.198C470.125 216.198 470.719 216.877 470.719 218.244V223.33H472.398V217.823C472.398 215.799 471.352 214.658 469.453 214.658C468.172 214.658 467.328 215.229 466.914 216.174H466.789V214.823H465.172V223.33ZM477.828 221.752C476.383 221.752 475.57 220.666 475.57 218.971C475.57 217.276 476.383 216.19 477.828 216.19C479.258 216.19 480.133 217.276 480.133 218.971C480.133 220.674 479.266 221.752 477.828 221.752ZM477.852 226.58C480.258 226.58 481.781 225.346 481.781 223.401V214.823H480.172V216.182H480.039C479.562 215.26 478.539 214.682 477.367 214.682C475.195 214.682 473.836 216.385 473.836 218.979C473.836 221.526 475.18 223.205 477.352 223.205C478.523 223.205 479.461 222.698 479.977 221.776H480.102V223.408C480.102 224.533 479.273 225.198 477.875 225.198C476.742 225.198 476.031 224.799 475.891 224.182H474.172C474.352 225.627 475.727 226.58 477.852 226.58Z" fill="#3B67CE"/>
<path d="M496 215.259L501 221.217L506 215.259" stroke="#3B67CE" stroke-width="2"/>
<circle cx="265.5" cy="218.5" r="6.5" fill="#2D67BA"/>
<path d="M265.074 221.254H266.211V216.945H265.074V221.254ZM265.645 216.301C266 216.301 266.289 216.012 266.289 215.648C266.289 215.285 266 215 265.645 215C265.293 215 265 215.285 265 215.648C265 216.012 265.293 216.301 265.645 216.301Z" fill="white"/>
<defs>
<filter id="filter0_d" x="0" y="0" width="562" height="282.108" filterUnits="userSpaceOnUse" color-interpolation-filters="sRGB">
<feFlood flood-opacity="0" result="BackgroundImageFix"/>
<feColorMatrix in="SourceAlpha" type="matrix" values="0 0 0 0 0 0 0 0 0 0 0 0 0 0 0 0 0 0 127 0"/>
<feMorphology radius="1" operator="dilate" in="SourceAlpha" result="effect1_dropShadow"/>
<feOffset dy="3"/>
<feGaussianBlur stdDeviation="4"/>
<feColorMatrix type="matrix" values="0 0 0 0 0.445833 0 0 0 0 0.442118 0 0 0 0 0.442118 0 0 0 0.25 0"/>
<feBlend mode="normal" in2="BackgroundImageFix" result="effect1_dropShadow"/>
<feBlend mode="normal" in="SourceGraphic" in2="effect1_dropShadow" result="shape"/>
</filter>
</defs>
</svg>
