<svg xmlns="http://www.w3.org/2000/svg" viewBox="0 0 241 228"><defs><style>.cls-1,.cls-5{isolation:isolate;}.cls-2{fill:#f47749;}.cls-3,.cls-5{fill:#fff;}.cls-3{opacity:0.5;mix-blend-mode:overlay;}.cls-4{fill:#ee683f;}.cls-5{opacity:0.87;}.cls-6{fill:none;stroke:#372567;stroke-linecap:round;stroke-linejoin:round;stroke-width:2px;}.cls-7{fill:#372567;}</style></defs><g class="cls-1"><g id="Layer_2" data-name="Layer 2"><path class="cls-2" d="M119.74,213c48-34,51.5-34,64.5-58,10-20,5-46,8-63a183.46,183.46,0,0,1,7-28c-12-7-13-22-13-22s-34.5-3-66.5-31c-32,28-66.5,31-66.5,31s-1,15-13,22a183.46,183.46,0,0,1,7,28c3,17-2,43,8,63C68.24,179,71.74,179,119.74,213Z"/><path class="cls-3" d="M119.74,213c48-34,51.5-34,64.5-58,10-20,5-46,8-63a183.46,183.46,0,0,1,7-28c-12-7-13-22-13-22s-34.5-3-66.5-31c-32,28-66.5,31-66.5,31s-1,15-13,22a183.46,183.46,0,0,1,7,28c3,17-2,43,8,63C68.24,179,71.74,179,119.74,213Z"/><path class="cls-4" d="M119.74,204.28c43.85-31.07,47.05-31.07,58.93-53,9.13-18.28,4.57-42,7.31-57.56a168,168,0,0,1,6.39-25.58c-11-6.4-11.88-20.1-11.88-20.1S149,45.31,119.74,19.72C90.5,45.31,59,48.05,59,48.05s-.91,13.7-11.87,20.1A168,168,0,0,1,53.5,93.73c2.74,15.53-1.83,39.28,7.31,57.56C72.69,173.21,75.89,173.21,119.74,204.28Z"/><g id="logotype"><path class="cls-5" d="M160.55,74.22a.94.94,0,0,0-1.3.25,4,4,0,0,1-3.13,1.71,2,2,0,0,1-1.73-.72.39.39,0,0,1-.08-.1,0,0,0,0,0,0,0c4.64-2.65,4.59-4.92,4.38-5.76a2.29,2.29,0,0,0-2.31-1.68c-2.65,0-4.41,3-4.41,5.71a6.66,6.66,0,0,0,.08,1,7.08,7.08,0,0,1-3.67,1.56,2,2,0,0,1-1.65-.66,2.49,2.49,0,0,1-.31-.51c3.54-1,4.89-3.29,4.63-5.1a2.19,2.19,0,0,0-2.13-2c-2.47,0-4.26,2.6-4.54,5.15a2.76,2.76,0,0,1-1.27-.44,10.05,10.05,0,0,0,.1-1.19,4.35,4.35,0,0,0-.46-2.12,2.09,2.09,0,0,0-1.88-1.14,1.18,1.18,0,0,0-1,.63c-.45.84-.15,2.47.69,3.77a4.16,4.16,0,0,0,.54.71c-.46,1.48-1.43,2.88-2.65,2.88a1.79,1.79,0,0,1-1.33-.53,4.7,4.7,0,0,1-.91-2.68c3.46-4.33,5.17-8.58,4.2-10.59a1.8,1.8,0,0,0-1.68-1.07c-2.39,0-3.82,3.11-4.38,9.5,0,.38,0,.86,0,1.37-1.28,1.74-3.39,4-5.27,4a1.34,1.34,0,0,1-1.2-.56s0-.07-.08-.1,0,0,.08,0c4.66-3,4.58-5.27,4.35-6.09A2.08,2.08,0,0,0,130,67.88c-2.7,0-4.53,3.1-4.53,6a6.61,6.61,0,0,0,0,.76c-.87.61-1.55,1.17-2.24,1.71.1-.79.25-1.81.43-3.31h0c0-.31.08-.57.1-.69.16-1.1-1.65-1.33-1.86-.1s-.73,3.89-2.24,3.89c-.89,0-1.37-1-1.27-2.44.13-2.29,1.37-4.15,2.9-4.15a1,1,0,0,1,.79.56c.49.86,2,.12,1.66-.79a2.27,2.27,0,0,0-2.4-1.45c-3.56,0-4.68,3.61-4.84,6a6.21,6.21,0,0,0,0,1.14,2.54,2.54,0,0,1-1.68,1.12c-.56,0-.92-.63-.71-2.09s.35-2.54.43-3.2c.43-3-3.36-3-3.36-3s0-1.78-1.5-1.78a1.5,1.5,0,0,0-1.43,1.68,1.89,1.89,0,0,0,.84,1.53h0c-.18,1.58-.92,6.82-2.57,6.82-.74,0-.79-.79-.71-1.35.1-.76.22-2.09.28-2.42.15-1.09-1.66-1.32-1.86-.1s-.74,3.9-2.24,3.9c-.9,0-1.38-1.12-1.3-2.5.12-2.32,1.37-4.1,2.9-4.1a1,1,0,0,1,.79.56c.41.87,2,.26,1.65-.79-.12-.46-.63-1.45-2.39-1.45-3.56,0-4.69,3.62-4.84,6a9.54,9.54,0,0,0,0,1.07,2.47,2.47,0,0,1-1.7,1.2c-.54,0-1-.28-.84-1.48.05-.56.68-4.41.66-5.09-.08-1.17-.61-1.68-1.91-1.68a4.14,4.14,0,0,0-2.83,1.14s.64-4.84.77-5.78-1.76-1-1.86,0c0,.43-.56,4.25-1,7.82C89.12,73.45,87,77,83.87,77c-5.93,0-3.21-12.94,2.37-12.94,1.3,0,.71,2.09-.15,3.34-.61.91.94,1.93,1.81.48,2.39-4.05.38-5.55-1.53-5.55-8.25,0-11.31,16.45-2.73,16.45a7.16,7.16,0,0,0,6-3.31c-.13,1-.2,1.63-.23,1.76-.15,1,1.76.94,1.86.07.08-.53.36-2.8.59-4.56.12-1,1.35-2.82,2.72-2.82a.55.55,0,0,1,.51.61c0,.33-.64,4.63-.61,5.27.1,1.81,1.4,2.22,2.62,2.22a3.16,3.16,0,0,0,2.4-1.18,2.25,2.25,0,0,0,2,1.18,3,3,0,0,0,2.77-1.48,1.93,1.93,0,0,0,2,1.48c3.62,0,4.46-6.29,4.64-8.41.2,0,1.47.08,1.7.79s-.43,2.88-.48,5.15A2.12,2.12,0,0,0,114.43,78a4,4,0,0,0,2.7-1.12,2.26,2.26,0,0,0,2,1.12,3.41,3.41,0,0,0,2.14-.67c0,.21-.06.39-.08.59v0s-4.76,3.41-4.76,6.64a1.85,1.85,0,0,0,2.08,2.09c3,0,3.93-4,4.36-7.28a4,4,0,0,0,0-.44l1.32-1c.62-.49,1.23-.95,1.91-1.46l.11.16A3.24,3.24,0,0,0,129,78c2.17,0,4.18-1.65,5.6-3.28a5.32,5.32,0,0,0,1.12,2.16,3.61,3.61,0,0,0,2.7,1.15c2.07,0,3.49-1.66,4.26-3.57a5.36,5.36,0,0,0,1.85.46,4.27,4.27,0,0,0,.82,1.76A3.85,3.85,0,0,0,148.43,78a8.46,8.46,0,0,0,4.38-1.63l.15.23a3.93,3.93,0,0,0,3.18,1.4,6,6,0,0,0,4.71-2.55A1,1,0,0,0,160.55,74.22ZM118.73,84.91a.47.47,0,0,1-.48-.53c0-1.63,2.52-3.85,2.55-3.85C120.49,82.72,119.6,84.91,118.73,84.91ZM130,69.63c.23,0,.28.18.33.28.1.36-.25,1.71-3,3.59C127.49,71.72,128.59,69.63,130,69.63Zm8.66-6.44c.79,0,.15,2.7-2.37,6.47C136.87,64.64,137.68,63.19,138.65,63.19Zm10.08,6.44c.41,0,.43.41.46.56.1.77-.61,2.14-2.95,2.93C146.49,71.47,147.59,69.63,148.73,69.63Zm7.64,0c.28,0,.43.21.51.46.15.54-.56,1.89-3,3.41C153.88,71.72,155,69.63,156.37,69.63Z"/></g><polygon class="cls-3" points="219.79 109.72 22.79 149.72 22.79 125.72 219.79 85.72 219.79 109.72"/><polygon class="cls-3" points="219.79 123.72 22.79 163.72 22.79 154.72 219.79 114.72 219.79 123.72"/><path class="cls-6" d="M193.09,52.79c21.18-8.24,35.71-11,38.39-6.37,5.25,9.08-36.7,43.12-93.69,76S30.34,174.66,25.09,165.58c-2.45-4.24,5.37-13.91,20.19-26.36"/><path class="cls-6" d="M44.27,169.42c-8.83,2.06-14.59,1.91-16.18-.84"/><path class="cls-6" d="M232.35,57.46a99.72,99.72,0,0,1-13.56,14.26"/><path class="cls-6" d="M196.09,55.79C206,52,214.4,49.29,220.86,48"/><circle class="cls-7" cx="161.46" cy="107.73" r="6.17"/><path class="cls-6" d="M46.49,52.79c-21.19-8.24-35.71-11-38.4-6.37-5.25,9.08,36.7,43.12,93.7,76s107.45,52.21,112.69,43.13c2.51-4.34-5.75-14.38-21.27-27.26"/><path class="cls-6" d="M167.16,159.41c14.56,6.05,26.56,9.92,34.62,11.06"/><path class="cls-6" d="M44.49,55.79a159.25,159.25,0,0,0-24.23-7.66"/><circle class="cls-2" cx="206.46" cy="150.73" r="3.48"/><circle class="cls-2" cx="22.46" cy="67.73" r="4.21"/></g></g></svg>