<svg width="514" height="468" viewBox="0 0 514 468" fill="none" xmlns="http://www.w3.org/2000/svg">
<g filter="url(#filter0_d)">
<rect width="496" height="450" transform="translate(9 6)" fill="white"/>
<line x1="153.5" y1="115.5" x2="338.5" y2="115.5" stroke="#838383" stroke-linecap="round" stroke-linejoin="round" stroke-dasharray="2 2"/>
<g filter="url(#filter1_d)">
<circle cx="154" cy="86" r="20" fill="white"/>
</g>
<g filter="url(#filter2_d)">
<circle cx="218" cy="86" r="20" fill="white"/>
</g>
<g filter="url(#filter3_d)">
<circle cx="278" cy="86" r="20" fill="white"/>
</g>
<g filter="url(#filter4_d)">
<circle cx="339" cy="86" r="20" fill="white"/>
</g>
<g filter="url(#filter5_d)">
<rect x="205" y="147" width="90" height="34" fill="white"/>
</g>
<path d="M253.435 168C255.54 168 256.825 166.927 256.825 165.197C256.825 163.912 255.909 162.955 254.583 162.832V162.709C255.574 162.552 256.34 161.636 256.34 160.597C256.34 159.079 255.212 158.136 253.339 158.136H249.217V168H253.435ZM250.98 159.537H252.908C253.975 159.537 254.597 160.043 254.597 160.911C254.597 161.8 253.934 162.285 252.683 162.285H250.98V159.537ZM250.98 166.599V163.557H252.963C254.31 163.557 255.021 164.076 255.021 165.061C255.021 166.065 254.33 166.599 253.031 166.599H250.98ZM260.705 166.79C259.953 166.79 259.413 166.414 259.413 165.785C259.413 165.177 259.857 164.835 260.808 164.773L262.496 164.664V165.259C262.496 166.127 261.73 166.79 260.705 166.79ZM260.206 168.123C261.184 168.123 262.004 167.699 262.421 166.975H262.537V168H264.171V162.894C264.171 161.308 263.091 160.371 261.17 160.371C259.392 160.371 258.155 161.212 258.018 162.531H259.618C259.775 162.025 260.309 161.752 261.088 161.752C262.004 161.752 262.496 162.162 262.496 162.894V163.522L260.568 163.639C258.75 163.748 257.731 164.527 257.731 165.881C257.731 167.248 258.764 168.123 260.206 168.123ZM265.795 168H267.49V163.646C267.49 162.545 268.126 161.848 269.138 161.848C270.17 161.848 270.648 162.422 270.648 163.563V168H272.344V163.16C272.344 161.376 271.434 160.371 269.766 160.371C268.652 160.371 267.9 160.884 267.545 161.718H267.429V160.521H265.795V168ZM275.813 163.57H275.697V157.63H274.002V168H275.697V165.396L276.299 164.794L278.698 168H280.749L277.563 163.728L280.544 160.521H278.575L275.813 163.57Z" fill="#00000A" fill-opacity="0.67"/>
<path d="M219.332 48.2461C221.608 48.2461 223.276 46.8857 223.509 44.8691H221.772C221.533 45.9766 220.583 46.6738 219.332 46.6738C217.65 46.6738 216.604 45.293 216.604 43.0645C216.604 40.8428 217.65 39.4619 219.325 39.4619C220.569 39.4619 221.52 40.2275 221.766 41.4102H223.502C223.297 39.3525 221.567 37.8896 219.325 37.8896C216.529 37.8896 214.8 39.8652 214.8 43.0713C214.8 46.2637 216.536 48.2461 219.332 48.2461ZM231.381 40.5215H229.685V44.876C229.685 45.9834 229.084 46.6602 227.983 46.6602C226.972 46.6602 226.5 46.0996 226.5 44.958V40.5215H224.805V45.3818C224.805 47.1318 225.762 48.1504 227.395 48.1504C228.537 48.1504 229.268 47.665 229.631 46.8105H229.747V48H231.381V40.5215ZM232.868 42.6611C232.868 43.7891 233.545 44.4521 234.98 44.7803L236.306 45.0879C237.017 45.2451 237.339 45.5117 237.339 45.9355C237.339 46.4893 236.744 46.8652 235.889 46.8652C235.042 46.8652 234.515 46.5371 234.351 45.9834H232.677C232.806 47.3438 233.982 48.1504 235.848 48.1504C237.715 48.1504 239.034 47.1934 239.034 45.7578C239.034 44.6572 238.371 44.042 236.942 43.7207L235.623 43.4199C234.871 43.249 234.515 42.9893 234.515 42.5654C234.515 42.0254 235.097 41.6562 235.869 41.6562C236.662 41.6562 237.161 41.9912 237.284 42.5176H238.877C238.754 41.1572 237.639 40.3711 235.862 40.3711C234.098 40.3711 232.868 41.3076 232.868 42.6611ZM240.815 38.6895V40.5693H239.633V41.9229H240.815V46.0039C240.815 47.4531 241.499 48.0342 243.215 48.0342C243.543 48.0342 243.857 48 244.103 47.9521V46.626C243.898 46.6465 243.768 46.6602 243.529 46.6602C242.818 46.6602 242.504 46.332 242.504 45.5938V41.9229H244.103V40.5693H242.504V38.6895H240.815ZM248.537 48.1504C250.772 48.1504 252.132 46.6875 252.132 44.2607C252.132 41.8408 250.765 40.3711 248.537 40.3711C246.315 40.3711 244.941 41.8477 244.941 44.2607C244.941 46.6875 246.295 48.1504 248.537 48.1504ZM248.537 46.7285C247.354 46.7285 246.677 45.8262 246.677 44.2607C246.677 42.7021 247.354 41.793 248.537 41.793C249.713 41.793 250.389 42.7021 250.389 44.2607C250.389 45.8262 249.719 46.7285 248.537 46.7285ZM253.421 48H255.117V43.4541C255.117 42.5381 255.739 41.8477 256.58 41.8477C257.414 41.8477 257.933 42.3467 257.933 43.167V48H259.581V43.3447C259.581 42.4902 260.162 41.8477 261.044 41.8477C261.953 41.8477 262.411 42.3262 262.411 43.29V48H264.099V42.8594C264.099 41.3076 263.197 40.3711 261.7 40.3711C260.661 40.3711 259.799 40.9111 259.43 41.7314H259.314C259 40.8906 258.282 40.3711 257.25 40.3711C256.258 40.3711 255.493 40.877 255.171 41.7314H255.055V40.5215H253.421V48ZM268.827 41.7178C269.845 41.7178 270.515 42.4287 270.549 43.5361H267.029C267.104 42.4424 267.815 41.7178 268.827 41.7178ZM270.563 45.9424C270.317 46.4961 269.736 46.8037 268.895 46.8037C267.781 46.8037 267.063 46.0244 267.022 44.7803V44.6914H272.245V44.1445C272.245 41.7861 270.966 40.3711 268.834 40.3711C266.667 40.3711 265.32 41.8818 265.32 44.2881C265.32 46.6943 266.646 48.1504 268.847 48.1504C270.611 48.1504 271.862 47.3027 272.169 45.9424H270.563ZM273.527 48H275.222V43.6797C275.222 42.6338 275.988 41.9502 277.088 41.9502C277.375 41.9502 277.827 41.998 277.956 42.0459V40.4736C277.799 40.4258 277.498 40.3984 277.252 40.3984C276.289 40.3984 275.482 40.9453 275.277 41.6836H275.161V40.5215H273.527V48ZM278.596 42.6611C278.596 43.7891 279.273 44.4521 280.708 44.7803L282.035 45.0879C282.745 45.2451 283.067 45.5117 283.067 45.9355C283.067 46.4893 282.472 46.8652 281.618 46.8652C280.77 46.8652 280.244 46.5371 280.079 45.9834H278.405C278.535 47.3438 279.71 48.1504 281.577 48.1504C283.443 48.1504 284.762 47.1934 284.762 45.7578C284.762 44.6572 284.099 44.042 282.67 43.7207L281.351 43.4199C280.599 43.249 280.244 42.9893 280.244 42.5654C280.244 42.0254 280.825 41.6562 281.597 41.6562C282.39 41.6562 282.889 41.9912 283.012 42.5176H284.605C284.482 41.1572 283.368 40.3711 281.59 40.3711C279.827 40.3711 278.596 41.3076 278.596 42.6611Z" fill="#00000A" fill-opacity="0.67"/>
<circle cx="217.63" cy="78.556" r="4.55596" fill="#FE6B43"/>
<path fill-rule="evenodd" clip-rule="evenodd" d="M207 95.2611C207.391 89.3247 212.33 84.6306 218.365 84.6306C224.4 84.6306 229.339 89.3247 229.73 95.2611H207Z" fill="#FE6B43"/>
<circle cx="277.63" cy="78.556" r="4.55596" fill="#FE6B43"/>
<path fill-rule="evenodd" clip-rule="evenodd" d="M267 95.2611C267.391 89.3247 272.33 84.6306 278.365 84.6306C284.4 84.6306 289.339 89.3247 289.73 95.2611H267Z" fill="#FE6B43"/>
<circle cx="338.63" cy="78.556" r="4.55596" fill="#FE6B43"/>
<path fill-rule="evenodd" clip-rule="evenodd" d="M328 95.2611C328.391 89.3247 333.33 84.6306 339.365 84.6306C345.4 84.6306 350.339 89.3247 350.73 95.2611H328Z" fill="#FE6B43"/>
<circle cx="153.63" cy="78.556" r="4.55596" fill="#FE6B43"/>
<path fill-rule="evenodd" clip-rule="evenodd" d="M143 95.2611C143.391 89.3247 148.33 84.6306 154.365 84.6306C160.4 84.6306 165.339 89.3247 165.73 95.2611H143Z" fill="#FE6B43"/>
<path d="M250 116L250 148" stroke="#838383" stroke-linecap="round" stroke-linejoin="round" stroke-dasharray="2 2"/>
<path d="M250 181V283" stroke="#838383" stroke-linecap="round" stroke-linejoin="round" stroke-dasharray="2 2"/>
<g filter="url(#filter6_d)">
<rect x="167" y="215" width="167" height="34" fill="white"/>
</g>
<path d="M205.217 227.136V237H206.98V233.767H209.12C211.116 233.767 212.511 232.427 212.511 230.472C212.511 228.482 211.164 227.136 209.195 227.136H205.217ZM206.98 228.612H208.73C210.002 228.612 210.72 229.262 210.72 230.472C210.72 231.647 209.981 232.304 208.724 232.304H206.98V228.612ZM216.144 235.79C215.392 235.79 214.852 235.414 214.852 234.785C214.852 234.177 215.297 233.835 216.247 233.773L217.935 233.664V234.259C217.935 235.127 217.17 235.79 216.144 235.79ZM215.645 237.123C216.623 237.123 217.443 236.699 217.86 235.975H217.976V237H219.61V231.894C219.61 230.308 218.53 229.371 216.609 229.371C214.832 229.371 213.595 230.212 213.458 231.531H215.058C215.215 231.025 215.748 230.752 216.527 230.752C217.443 230.752 217.935 231.162 217.935 231.894V232.522L216.008 232.639C214.189 232.748 213.171 233.527 213.171 234.881C213.171 236.248 214.203 237.123 215.645 237.123ZM221.822 239.714C223.497 239.714 224.297 239.099 224.932 237.239L227.633 229.521H225.842L224.098 235.359H223.982L222.232 229.521H220.373L223.046 237.034L222.957 237.362C222.738 238.053 222.335 238.326 221.617 238.326C221.501 238.326 221.248 238.319 221.152 238.299V239.687C221.262 239.707 221.72 239.714 221.822 239.714ZM228.676 237H230.371V232.454C230.371 231.538 230.993 230.848 231.834 230.848C232.668 230.848 233.187 231.347 233.187 232.167V237H234.835V232.345C234.835 231.49 235.416 230.848 236.298 230.848C237.207 230.848 237.665 231.326 237.665 232.29V237H239.353V231.859C239.353 230.308 238.451 229.371 236.954 229.371C235.915 229.371 235.053 229.911 234.684 230.731H234.568C234.254 229.891 233.536 229.371 232.504 229.371C231.512 229.371 230.747 229.877 230.426 230.731H230.309V229.521H228.676V237ZM244.081 230.718C245.099 230.718 245.769 231.429 245.803 232.536H242.283C242.358 231.442 243.069 230.718 244.081 230.718ZM245.817 234.942C245.571 235.496 244.99 235.804 244.149 235.804C243.035 235.804 242.317 235.024 242.276 233.78V233.691H247.499V233.145C247.499 230.786 246.22 229.371 244.088 229.371C241.921 229.371 240.574 230.882 240.574 233.288C240.574 235.694 241.9 237.15 244.101 237.15C245.865 237.15 247.116 236.303 247.424 234.942H245.817ZM248.781 237H250.476V232.646C250.476 231.545 251.112 230.848 252.124 230.848C253.156 230.848 253.634 231.422 253.634 232.563V237H255.33V232.16C255.33 230.376 254.421 229.371 252.753 229.371C251.638 229.371 250.886 229.884 250.531 230.718H250.415V229.521H248.781V237ZM257.459 227.689V229.569H256.277V230.923H257.459V235.004C257.459 236.453 258.143 237.034 259.859 237.034C260.187 237.034 260.501 237 260.748 236.952V235.626C260.542 235.646 260.413 235.66 260.173 235.66C259.462 235.66 259.148 235.332 259.148 234.594V230.923H260.748V229.569H259.148V227.689H257.459ZM274.044 233.049V231.812H269.95V233.192H272.322L272.315 233.397C272.287 234.758 271.262 235.674 269.758 235.674C268.001 235.674 266.901 234.293 266.901 232.051C266.901 229.836 267.981 228.462 269.703 228.462C270.968 228.462 271.85 229.084 272.205 230.205H273.962C273.648 228.188 271.98 226.89 269.703 226.89C266.894 226.89 265.096 228.906 265.096 232.064C265.096 235.264 266.873 237.246 269.731 237.246C272.363 237.246 274.044 235.612 274.044 233.049ZM278.013 235.79C277.261 235.79 276.721 235.414 276.721 234.785C276.721 234.177 277.165 233.835 278.116 233.773L279.804 233.664V234.259C279.804 235.127 279.038 235.79 278.013 235.79ZM277.514 237.123C278.491 237.123 279.312 236.699 279.729 235.975H279.845V237H281.479V231.894C281.479 230.308 280.399 229.371 278.478 229.371C276.7 229.371 275.463 230.212 275.326 231.531H276.926C277.083 231.025 277.616 230.752 278.396 230.752C279.312 230.752 279.804 231.162 279.804 231.894V232.522L277.876 232.639C276.058 232.748 275.039 233.527 275.039 234.881C275.039 236.248 276.072 237.123 277.514 237.123ZM283.643 227.689V229.569H282.46V230.923H283.643V235.004C283.643 236.453 284.326 237.034 286.042 237.034C286.37 237.034 286.685 237 286.931 236.952V235.626C286.726 235.646 286.596 235.66 286.357 235.66C285.646 235.66 285.331 235.332 285.331 234.594V230.923H286.931V229.569H285.331V227.689H283.643ZM291.276 230.718C292.294 230.718 292.964 231.429 292.998 232.536H289.478C289.553 231.442 290.264 230.718 291.276 230.718ZM293.012 234.942C292.766 235.496 292.185 235.804 291.344 235.804C290.23 235.804 289.512 235.024 289.471 233.78V233.691H294.693V233.145C294.693 230.786 293.415 229.371 291.282 229.371C289.115 229.371 287.769 230.882 287.769 233.288C287.769 235.694 289.095 237.15 291.296 237.15C293.06 237.15 294.311 236.303 294.618 234.942H293.012ZM305.895 229.521H304.206L302.969 235.106H302.853L301.403 229.521H299.783L298.348 235.106H298.231L296.987 229.521H295.278L297.302 237H299.065L300.515 231.613H300.631L302.087 237H303.871L305.895 229.521ZM309.31 235.79C308.558 235.79 308.018 235.414 308.018 234.785C308.018 234.177 308.462 233.835 309.412 233.773L311.101 233.664V234.259C311.101 235.127 310.335 235.79 309.31 235.79ZM308.811 237.123C309.788 237.123 310.608 236.699 311.025 235.975H311.142V237H312.775V231.894C312.775 230.308 311.695 229.371 309.774 229.371C307.997 229.371 306.76 230.212 306.623 231.531H308.223C308.38 231.025 308.913 230.752 309.692 230.752C310.608 230.752 311.101 231.162 311.101 231.894V232.522L309.173 232.639C307.354 232.748 306.336 233.527 306.336 234.881C306.336 236.248 307.368 237.123 308.811 237.123ZM314.987 239.714C316.662 239.714 317.462 239.099 318.098 237.239L320.798 229.521H319.007L317.264 235.359H317.147L315.397 229.521H313.538L316.211 237.034L316.122 237.362C315.903 238.053 315.5 238.326 314.782 238.326C314.666 238.326 314.413 238.319 314.317 238.299V239.687C314.427 239.707 314.885 239.714 314.987 239.714Z" fill="#00000A" fill-opacity="0.67"/>
<path d="M246 134L250 137.5L253.5 134" stroke="#838383"/>
<path d="M246 265L250 268.5L253.5 265" stroke="#838383"/>
<path d="M190.5 312L187 316L190.5 319.5" stroke="#838383"/>
<path d="M322 312L325.5 316L322 319.5" stroke="#838383"/>
<path d="M246 195L250 198.5L253.5 195" stroke="#838383"/>
<line x1="156.5" y1="315.5" x2="358.5" y2="315.5" stroke="#838383" stroke-linecap="round" stroke-linejoin="round" stroke-dasharray="2 2"/>
<path d="M191 391L251 322" stroke="#838383" stroke-linecap="round" stroke-linejoin="round" stroke-dasharray="2 2"/>
<path d="M311 391L251 322" stroke="#838383" stroke-linecap="round" stroke-linejoin="round" stroke-dasharray="2 2"/>
<g filter="url(#filter7_d)">
<circle cx="251" cy="319" r="36" fill="white"/>
</g>
<path d="M215.609 357L215.666 362.315L220.609 362.59" stroke="#838383"/>
<path d="M286 357L285.942 362.315L281 362.59" stroke="#838383"/>
<path fill-rule="evenodd" clip-rule="evenodd" d="M232.169 161.695V168.219H236.327V160.237H233.6C232.809 160.237 232.169 160.89 232.169 161.695Z" fill="#FFE7AB"/>
<path fill-rule="evenodd" clip-rule="evenodd" d="M226.358 168.219H230.516V160.237H227.789C226.999 160.237 226.358 160.89 226.358 161.695V168.219Z" fill="#FFE7AB"/>
<path fill-rule="evenodd" clip-rule="evenodd" d="M238.174 170.006H221.825C221.369 170.006 220.999 170.378 220.999 170.836C220.999 171.294 221.369 171.666 221.825 171.666H238.174C238.631 171.666 239 171.294 239 170.836C239 170.378 238.631 170.006 238.174 170.006Z" fill="#F6A200"/>
<path fill-rule="evenodd" clip-rule="evenodd" d="M224.189 159.953C223.733 159.953 223.363 160.325 223.363 160.784V167.299H222.83C222.373 167.299 222.003 167.671 222.003 168.129C222.003 168.588 222.373 168.959 222.83 168.959H237.17C237.627 168.959 237.997 168.588 237.997 168.129C237.997 167.671 237.627 167.299 237.17 167.299H236.637V160.784C236.637 160.325 236.267 159.953 235.81 159.953C235.354 159.953 234.984 160.325 234.984 160.784V167.299H230.826V160.784C230.826 160.325 230.456 159.953 230 159.953C229.543 159.953 229.173 160.325 229.173 160.784V167.299H225.015V160.784C225.015 160.325 224.646 159.953 224.189 159.953Z" fill="#F6A200"/>
<mask id="mask0" mask-type="alpha" maskUnits="userSpaceOnUse" x="220" y="155" width="20" height="6">
<path d="M220.909 155H239.091V160.017H220.909V155Z" fill="white"/>
</mask>
<g mask="url(#mask0)">
<path fill-rule="evenodd" clip-rule="evenodd" d="M238.569 158.414L230 155L221.431 158.414C221.007 158.584 220.799 159.066 220.967 159.492C221.136 159.918 221.616 160.126 222.041 159.958L230 156.786L237.959 159.958C238.059 159.997 238.162 160.016 238.264 160.016C238.593 160.016 238.904 159.818 239.032 159.492C239.2 159.066 238.993 158.584 238.569 158.414Z" fill="#F6A200"/>
</g>
<path d="M193.482 237.824H181.666V231.147C181.666 230.168 182.435 229.399 183.414 229.399H195.265V236.076C195.23 237.055 194.461 237.824 193.482 237.824Z" fill="#B9EDDF"/>
<path d="M193.482 224.61H181.072C179.708 224.61 178.555 225.764 178.555 227.127V236.076C178.555 237.475 179.708 238.593 181.072 238.593H186.49V239.852H184.358C183.938 239.852 183.589 240.201 183.589 240.621C183.589 241.041 183.938 241.39 184.358 241.39H190.196C190.615 241.39 190.965 241.041 190.965 240.621C190.965 240.201 190.615 239.852 190.196 239.852H188.063V238.593H193.482C194.88 238.593 195.999 237.44 195.999 236.076V227.127C196.034 225.764 194.88 224.61 193.482 224.61ZM194.461 236.076C194.461 236.601 194.041 237.055 193.482 237.055H181.072C180.547 237.055 180.093 236.636 180.093 236.076V228.49H194.426V236.076H194.461Z" fill="#24BA96"/>
<path fill-rule="evenodd" clip-rule="evenodd" d="M192.084 226.008C191.769 226.008 191.524 226.253 191.524 226.533C191.524 226.812 191.769 227.057 192.084 227.057C192.398 227.057 192.643 226.812 192.643 226.533C192.643 226.253 192.398 226.008 192.084 226.008Z" fill="white"/>
<path fill-rule="evenodd" clip-rule="evenodd" d="M190.406 226.008C190.091 226.008 189.846 226.253 189.846 226.533C189.846 226.812 190.091 227.057 190.406 227.057C190.72 227.057 190.965 226.812 190.965 226.533C190.965 226.253 190.72 226.008 190.406 226.008Z" fill="white"/>
<path fill-rule="evenodd" clip-rule="evenodd" d="M193.797 226.008C193.482 226.008 193.237 226.253 193.237 226.533C193.237 226.812 193.482 227.057 193.797 227.057C194.111 227.057 194.356 226.812 194.356 226.533C194.356 226.253 194.111 226.008 193.797 226.008Z" fill="white"/>
<path d="M186.98 235.272C186.036 235.132 185.511 234.538 185.372 233.769L186.176 233.35C186.281 233.944 186.525 234.328 187.015 234.433V233C186.141 232.86 185.546 232.406 185.546 231.602C185.546 230.867 186.106 230.378 186.98 230.308V229.714H187.679V230.343C188.343 230.448 188.832 230.867 189.077 231.532L188.378 231.951C188.238 231.567 188.028 231.287 187.714 231.147V232.371C188.693 232.58 189.182 233.035 189.182 233.839C189.182 234.538 188.623 235.167 187.714 235.307V235.936H187.015V235.272H186.98ZM186.98 232.161V231.077C186.665 231.147 186.42 231.287 186.42 231.602C186.42 231.846 186.595 232.021 186.98 232.161ZM187.679 233.21V234.468C188.028 234.398 188.238 234.154 188.238 233.839C188.238 233.524 188.063 233.35 187.679 233.21Z" fill="#24BA96"/>
<g filter="url(#filter8_d)">
<rect x="36" y="299" width="120" height="34" fill="white"/>
</g>
<path d="M67.4277 320.158C68.8911 320.158 69.9634 319.284 70.1128 317.987H68.9966C68.8428 318.699 68.2319 319.147 67.4277 319.147C66.3467 319.147 65.6743 318.26 65.6743 316.827C65.6743 315.399 66.3467 314.511 67.4233 314.511C68.2231 314.511 68.834 315.003 68.9922 315.764H70.1084C69.9766 314.441 68.8647 313.5 67.4233 313.5C65.626 313.5 64.5142 314.771 64.5142 316.832C64.5142 318.884 65.6304 320.158 67.4277 320.158ZM75.1734 315.192H74.0835V317.992C74.0835 318.704 73.6968 319.139 72.9893 319.139C72.3389 319.139 72.0357 318.778 72.0357 318.044V315.192H70.9458V318.317C70.9458 319.442 71.5611 320.097 72.6113 320.097C73.3452 320.097 73.8154 319.785 74.0484 319.235H74.1231V320H75.1734V315.192ZM76.1294 316.568C76.1294 317.293 76.5645 317.719 77.4873 317.93L78.3399 318.128C78.7969 318.229 79.0035 318.4 79.0035 318.673C79.0035 319.029 78.6211 319.271 78.0718 319.271C77.5269 319.271 77.1885 319.06 77.083 318.704H76.0064C76.0899 319.578 76.8457 320.097 78.0454 320.097C79.2452 320.097 80.0933 319.481 80.0933 318.559C80.0933 317.851 79.667 317.456 78.7486 317.249L77.9004 317.056C77.417 316.946 77.1885 316.779 77.1885 316.506C77.1885 316.159 77.5621 315.922 78.0586 315.922C78.5684 315.922 78.8892 316.137 78.9683 316.476H79.9922C79.9131 315.601 79.1968 315.096 78.0542 315.096C76.9204 315.096 76.1294 315.698 76.1294 316.568ZM81.2383 314.015V315.223H80.4781V316.093H81.2383V318.717C81.2383 319.648 81.6778 320.022 82.7808 320.022C82.9918 320.022 83.1939 320 83.3521 319.969V319.117C83.2203 319.13 83.1368 319.139 82.983 319.139C82.5259 319.139 82.3238 318.928 82.3238 318.453V316.093H83.3521V315.223H82.3238V314.015H81.2383ZM86.2022 320.097C87.6392 320.097 88.5138 319.156 88.5138 317.596C88.5138 316.041 87.6348 315.096 86.2022 315.096C84.774 315.096 83.8907 316.045 83.8907 317.596C83.8907 319.156 84.7608 320.097 86.2022 320.097ZM86.2022 319.183C85.442 319.183 85.0069 318.603 85.0069 317.596C85.0069 316.594 85.442 316.01 86.2022 316.01C86.9581 316.01 87.3931 316.594 87.3931 317.596C87.3931 318.603 86.9625 319.183 86.2022 319.183ZM89.3424 320H90.4322V317.078C90.4322 316.489 90.8321 316.045 91.3727 316.045C91.9088 316.045 92.2428 316.366 92.2428 316.893V320H93.3019V317.007C93.3019 316.458 93.6754 316.045 94.2423 316.045C94.8268 316.045 95.1212 316.353 95.1212 316.972V320H96.2066V316.695C96.2066 315.698 95.6266 315.096 94.6642 315.096C93.9962 315.096 93.4425 315.443 93.2052 315.97H93.1305C92.9283 315.43 92.4669 315.096 91.8033 315.096C91.1661 315.096 90.6739 315.421 90.4674 315.97H90.3927V315.192H89.3424V320ZM99.2457 315.961C99.9005 315.961 100.331 316.418 100.353 317.13H98.09C98.1383 316.427 98.5953 315.961 99.2457 315.961ZM100.362 318.677C100.204 319.033 99.8302 319.231 99.2897 319.231C98.5734 319.231 98.1119 318.73 98.0856 317.93V317.873H101.443V317.521C101.443 316.005 100.621 315.096 99.2501 315.096C97.8571 315.096 96.9913 316.067 96.9913 317.614C96.9913 319.161 97.8439 320.097 99.2589 320.097C100.393 320.097 101.197 319.552 101.395 318.677H100.362ZM102.267 320H103.357V317.223C103.357 316.55 103.849 316.111 104.557 316.111C104.741 316.111 105.031 316.142 105.115 316.172V315.162C105.014 315.131 104.82 315.113 104.662 315.113C104.043 315.113 103.524 315.465 103.392 315.939H103.318V315.192H102.267V320ZM109.119 314.599H110.402C111.123 314.599 111.562 315.003 111.562 315.663C111.562 316.335 111.149 316.722 110.428 316.722H109.119V314.599ZM109.119 317.623H110.376L111.619 320H112.916L111.531 317.447C112.287 317.174 112.727 316.476 112.727 315.641C112.727 314.423 111.892 313.659 110.56 313.659H107.985V320H109.119V317.623ZM115.586 315.961C116.24 315.961 116.671 316.418 116.693 317.13H114.43C114.478 316.427 114.935 315.961 115.586 315.961ZM116.702 318.677C116.544 319.033 116.17 319.231 115.63 319.231C114.913 319.231 114.452 318.73 114.425 317.93V317.873H117.783V317.521C117.783 316.005 116.961 315.096 115.59 315.096C114.197 315.096 113.331 316.067 113.331 317.614C113.331 319.161 114.184 320.097 115.599 320.097C116.733 320.097 117.537 319.552 117.735 318.677H116.702ZM122.76 316.81C122.646 315.799 121.899 315.096 120.664 315.096C119.218 315.096 118.37 316.023 118.37 317.583C118.37 319.165 119.222 320.097 120.668 320.097C121.885 320.097 122.641 319.42 122.76 318.414H121.723C121.609 318.915 121.231 319.183 120.664 319.183C119.921 319.183 119.473 318.594 119.473 317.583C119.473 316.585 119.917 316.01 120.664 316.01C121.261 316.01 121.622 316.344 121.723 316.81H122.76ZM125.606 320.097C127.043 320.097 127.917 319.156 127.917 317.596C127.917 316.041 127.038 315.096 125.606 315.096C124.177 315.096 123.294 316.045 123.294 317.596C123.294 319.156 124.164 320.097 125.606 320.097ZM125.606 319.183C124.845 319.183 124.41 318.603 124.41 317.596C124.41 316.594 124.845 316.01 125.606 316.01C126.362 316.01 126.797 316.594 126.797 317.596C126.797 318.603 126.366 319.183 125.606 319.183ZM128.746 320H129.836V317.223C129.836 316.55 130.328 316.111 131.035 316.111C131.22 316.111 131.51 316.142 131.594 316.172V315.162C131.492 315.131 131.299 315.113 131.141 315.113C130.521 315.113 130.003 315.465 129.871 315.939H129.796V315.192H128.746V320ZM133.837 320.079C134.505 320.079 135.059 319.767 135.331 319.24H135.406V320H136.461V313.333H135.371V315.957H135.296C135.041 315.43 134.496 315.113 133.837 315.113C132.624 315.113 131.86 316.071 131.86 317.592C131.86 319.121 132.62 320.079 133.837 320.079ZM134.176 316.041C134.923 316.041 135.384 316.638 135.384 317.596C135.384 318.563 134.927 319.152 134.176 319.152C133.428 319.152 132.976 318.567 132.976 317.596C132.976 316.629 133.433 316.041 134.176 316.041ZM141.221 320H142.354V313.659H141.225L139.568 314.819V315.909L141.146 314.801H141.221V320Z" fill="#00000A" fill-opacity="0.67"/>
<path d="M56.6879 308H51.3334C50.5367 308 49.8889 308.649 49.8889 309.444V319.556C49.8889 320.352 50.5367 321 51.3334 321H58.5556C59.3522 321 60 320.352 60 319.556V311.312L56.6879 308ZM55.6667 312.333V308.722L59.2778 312.333H55.6667Z" fill="#F5A384"/>
<path d="M48.4444 310.889H47V322.444C47 323.241 47.6478 323.889 48.4444 323.889H57.1111V322.444H48.4444V310.889Z" fill="#EC7345"/>
<g filter="url(#filter9_d)">
<rect x="78" y="391" width="120" height="34" fill="white"/>
</g>
<path d="M109.428 412.158C110.891 412.158 111.963 411.284 112.113 409.987H110.997C110.843 410.699 110.232 411.147 109.428 411.147C108.347 411.147 107.674 410.26 107.674 408.827C107.674 407.399 108.347 406.511 109.423 406.511C110.223 406.511 110.834 407.003 110.992 407.764H112.108C111.977 406.441 110.865 405.5 109.423 405.5C107.626 405.5 106.514 406.771 106.514 408.832C106.514 410.884 107.63 412.158 109.428 412.158ZM117.173 407.192H116.084V409.992C116.084 410.704 115.697 411.139 114.989 411.139C114.339 411.139 114.036 410.778 114.036 410.044V407.192H112.946V410.317C112.946 411.442 113.561 412.097 114.611 412.097C115.345 412.097 115.815 411.785 116.048 411.235H116.123V412H117.173V407.192ZM118.129 408.568C118.129 409.293 118.564 409.719 119.487 409.93L120.34 410.128C120.797 410.229 121.003 410.4 121.003 410.673C121.003 411.029 120.621 411.271 120.072 411.271C119.527 411.271 119.189 411.06 119.083 410.704H118.006C118.09 411.578 118.846 412.097 120.045 412.097C121.245 412.097 122.093 411.481 122.093 410.559C122.093 409.851 121.667 409.456 120.749 409.249L119.9 409.056C119.417 408.946 119.189 408.779 119.189 408.506C119.189 408.159 119.562 407.922 120.059 407.922C120.568 407.922 120.889 408.137 120.968 408.476H121.992C121.913 407.601 121.197 407.096 120.054 407.096C118.92 407.096 118.129 407.698 118.129 408.568ZM123.238 406.015V407.223H122.478V408.093H123.238V410.717C123.238 411.648 123.678 412.022 124.781 412.022C124.992 412.022 125.194 412 125.352 411.969V411.117C125.22 411.13 125.137 411.139 124.983 411.139C124.526 411.139 124.324 410.928 124.324 410.453V408.093H125.352V407.223H124.324V406.015H123.238ZM128.202 412.097C129.639 412.097 130.514 411.156 130.514 409.596C130.514 408.041 129.635 407.096 128.202 407.096C126.774 407.096 125.891 408.045 125.891 409.596C125.891 411.156 126.761 412.097 128.202 412.097ZM128.202 411.183C127.442 411.183 127.007 410.603 127.007 409.596C127.007 408.594 127.442 408.01 128.202 408.01C128.958 408.01 129.393 408.594 129.393 409.596C129.393 410.603 128.962 411.183 128.202 411.183ZM131.342 412H132.432V409.078C132.432 408.489 132.832 408.045 133.373 408.045C133.909 408.045 134.243 408.366 134.243 408.893V412H135.302V409.007C135.302 408.458 135.675 408.045 136.242 408.045C136.827 408.045 137.121 408.353 137.121 408.972V412H138.207V408.695C138.207 407.698 137.627 407.096 136.664 407.096C135.996 407.096 135.442 407.443 135.205 407.97H135.13C134.928 407.43 134.467 407.096 133.803 407.096C133.166 407.096 132.674 407.421 132.467 407.97H132.393V407.192H131.342V412ZM141.246 407.961C141.901 407.961 142.331 408.418 142.353 409.13H140.09C140.138 408.427 140.595 407.961 141.246 407.961ZM142.362 410.677C142.204 411.033 141.83 411.231 141.29 411.231C140.573 411.231 140.112 410.73 140.086 409.93V409.873H143.443V409.521C143.443 408.005 142.621 407.096 141.25 407.096C139.857 407.096 138.991 408.067 138.991 409.614C138.991 411.161 139.844 412.097 141.259 412.097C142.393 412.097 143.197 411.552 143.395 410.677H142.362ZM144.267 412H145.357V409.223C145.357 408.55 145.849 408.111 146.557 408.111C146.741 408.111 147.031 408.142 147.115 408.172V407.162C147.014 407.131 146.82 407.113 146.662 407.113C146.043 407.113 145.524 407.465 145.392 407.939H145.318V407.192H144.267V412ZM151.119 406.599H152.402C153.123 406.599 153.562 407.003 153.562 407.663C153.562 408.335 153.149 408.722 152.428 408.722H151.119V406.599ZM151.119 409.623H152.376L153.619 412H154.916L153.531 409.447C154.287 409.174 154.727 408.476 154.727 407.641C154.727 406.423 153.892 405.659 152.56 405.659H149.985V412H151.119V409.623ZM157.586 407.961C158.24 407.961 158.671 408.418 158.693 409.13H156.43C156.478 408.427 156.935 407.961 157.586 407.961ZM158.702 410.677C158.544 411.033 158.17 411.231 157.63 411.231C156.913 411.231 156.452 410.73 156.425 409.93V409.873H159.783V409.521C159.783 408.005 158.961 407.096 157.59 407.096C156.197 407.096 155.331 408.067 155.331 409.614C155.331 411.161 156.184 412.097 157.599 412.097C158.733 412.097 159.537 411.552 159.735 410.677H158.702ZM164.76 408.81C164.646 407.799 163.899 407.096 162.664 407.096C161.218 407.096 160.37 408.023 160.37 409.583C160.37 411.165 161.222 412.097 162.668 412.097C163.885 412.097 164.641 411.42 164.76 410.414H163.723C163.609 410.915 163.231 411.183 162.664 411.183C161.921 411.183 161.473 410.594 161.473 409.583C161.473 408.585 161.917 408.01 162.664 408.01C163.261 408.01 163.622 408.344 163.723 408.81H164.76ZM167.606 412.097C169.043 412.097 169.917 411.156 169.917 409.596C169.917 408.041 169.038 407.096 167.606 407.096C166.177 407.096 165.294 408.045 165.294 409.596C165.294 411.156 166.164 412.097 167.606 412.097ZM167.606 411.183C166.845 411.183 166.41 410.603 166.41 409.596C166.41 408.594 166.845 408.01 167.606 408.01C168.362 408.01 168.797 408.594 168.797 409.596C168.797 410.603 168.366 411.183 167.606 411.183ZM170.746 412H171.836V409.223C171.836 408.55 172.328 408.111 173.035 408.111C173.22 408.111 173.51 408.142 173.594 408.172V407.162C173.492 407.131 173.299 407.113 173.141 407.113C172.521 407.113 172.003 407.465 171.871 407.939H171.796V407.192H170.746V412ZM175.837 412.079C176.505 412.079 177.059 411.767 177.331 411.24H177.406V412H178.461V405.333H177.371V407.957H177.296C177.041 407.43 176.496 407.113 175.837 407.113C174.624 407.113 173.86 408.071 173.86 409.592C173.86 411.121 174.62 412.079 175.837 412.079ZM176.176 408.041C176.923 408.041 177.384 408.638 177.384 409.596C177.384 410.563 176.927 411.152 176.176 411.152C175.428 411.152 174.976 410.567 174.976 409.596C174.976 408.629 175.433 408.041 176.176 408.041ZM181.63 407.544H182.693C182.693 406.885 183.133 406.432 183.823 406.432C184.486 406.432 184.882 406.867 184.882 407.434C184.882 407.909 184.688 408.212 183.888 409.012L181.691 411.213V412H186.095V411.038H183.229V410.963L184.592 409.636C185.681 408.581 186.002 408.062 186.002 407.324C186.002 406.27 185.145 405.5 183.884 405.5C182.561 405.5 181.63 406.34 181.63 407.544Z" fill="#00000A" fill-opacity="0.67"/>
<path d="M98.6879 400H93.3334C92.5367 400 91.8889 400.649 91.8889 401.444V411.556C91.8889 412.352 92.5367 413 93.3334 413H100.556C101.352 413 102 412.352 102 411.556V403.312L98.6879 400ZM97.6667 404.333V400.722L101.278 404.333H97.6667Z" fill="#F5A384"/>
<path d="M90.4444 402.889H89V414.444C89 415.241 89.6478 415.889 90.4444 415.889H99.1111V414.444H90.4444V402.889Z" fill="#EC7345"/>
<g filter="url(#filter10_d)">
<rect x="304" y="390" width="120" height="34" fill="white"/>
</g>
<path d="M335.428 411.158C336.891 411.158 337.963 410.284 338.113 408.987H336.997C336.843 409.699 336.232 410.147 335.428 410.147C334.347 410.147 333.674 409.26 333.674 407.827C333.674 406.399 334.347 405.511 335.423 405.511C336.223 405.511 336.834 406.003 336.992 406.764H338.108C337.977 405.441 336.865 404.5 335.423 404.5C333.626 404.5 332.514 405.771 332.514 407.832C332.514 409.884 333.63 411.158 335.428 411.158ZM343.173 406.192H342.084V408.992C342.084 409.704 341.697 410.139 340.989 410.139C340.339 410.139 340.036 409.778 340.036 409.044V406.192H338.946V409.317C338.946 410.442 339.561 411.097 340.611 411.097C341.345 411.097 341.815 410.785 342.048 410.235H342.123V411H343.173V406.192ZM344.129 407.568C344.129 408.293 344.564 408.719 345.487 408.93L346.34 409.128C346.797 409.229 347.003 409.4 347.003 409.673C347.003 410.029 346.621 410.271 346.072 410.271C345.527 410.271 345.189 410.06 345.083 409.704H344.006C344.09 410.578 344.846 411.097 346.045 411.097C347.245 411.097 348.093 410.481 348.093 409.559C348.093 408.851 347.667 408.456 346.749 408.249L345.9 408.056C345.417 407.946 345.189 407.779 345.189 407.506C345.189 407.159 345.562 406.922 346.059 406.922C346.568 406.922 346.889 407.137 346.968 407.476H347.992C347.913 406.601 347.197 406.096 346.054 406.096C344.92 406.096 344.129 406.698 344.129 407.568ZM349.238 405.015V406.223H348.478V407.093H349.238V409.717C349.238 410.648 349.678 411.022 350.781 411.022C350.992 411.022 351.194 411 351.352 410.969V410.117C351.22 410.13 351.137 410.139 350.983 410.139C350.526 410.139 350.324 409.928 350.324 409.453V407.093H351.352V406.223H350.324V405.015H349.238ZM354.202 411.097C355.639 411.097 356.514 410.156 356.514 408.596C356.514 407.041 355.635 406.096 354.202 406.096C352.774 406.096 351.891 407.045 351.891 408.596C351.891 410.156 352.761 411.097 354.202 411.097ZM354.202 410.183C353.442 410.183 353.007 409.603 353.007 408.596C353.007 407.594 353.442 407.01 354.202 407.01C354.958 407.01 355.393 407.594 355.393 408.596C355.393 409.603 354.962 410.183 354.202 410.183ZM357.342 411H358.432V408.078C358.432 407.489 358.832 407.045 359.373 407.045C359.909 407.045 360.243 407.366 360.243 407.893V411H361.302V408.007C361.302 407.458 361.675 407.045 362.242 407.045C362.827 407.045 363.121 407.353 363.121 407.972V411H364.207V407.695C364.207 406.698 363.627 406.096 362.664 406.096C361.996 406.096 361.442 406.443 361.205 406.97H361.13C360.928 406.43 360.467 406.096 359.803 406.096C359.166 406.096 358.674 406.421 358.467 406.97H358.393V406.192H357.342V411ZM367.246 406.961C367.901 406.961 368.331 407.418 368.353 408.13H366.09C366.138 407.427 366.595 406.961 367.246 406.961ZM368.362 409.677C368.204 410.033 367.83 410.231 367.29 410.231C366.573 410.231 366.112 409.73 366.086 408.93V408.873H369.443V408.521C369.443 407.005 368.621 406.096 367.25 406.096C365.857 406.096 364.991 407.067 364.991 408.614C364.991 410.161 365.844 411.097 367.259 411.097C368.393 411.097 369.197 410.552 369.395 409.677H368.362ZM370.267 411H371.357V408.223C371.357 407.55 371.849 407.111 372.557 407.111C372.741 407.111 373.031 407.142 373.115 407.172V406.162C373.014 406.131 372.82 406.113 372.662 406.113C372.043 406.113 371.524 406.465 371.392 406.939H371.318V406.192H370.267V411ZM377.119 405.599H378.402C379.123 405.599 379.562 406.003 379.562 406.663C379.562 407.335 379.149 407.722 378.428 407.722H377.119V405.599ZM377.119 408.623H378.376L379.619 411H380.916L379.531 408.447C380.287 408.174 380.727 407.476 380.727 406.641C380.727 405.423 379.892 404.659 378.56 404.659H375.985V411H377.119V408.623ZM383.586 406.961C384.24 406.961 384.671 407.418 384.693 408.13H382.43C382.478 407.427 382.935 406.961 383.586 406.961ZM384.702 409.677C384.544 410.033 384.17 410.231 383.63 410.231C382.913 410.231 382.452 409.73 382.425 408.93V408.873H385.783V408.521C385.783 407.005 384.961 406.096 383.59 406.096C382.197 406.096 381.331 407.067 381.331 408.614C381.331 410.161 382.184 411.097 383.599 411.097C384.733 411.097 385.537 410.552 385.735 409.677H384.702ZM390.76 407.81C390.646 406.799 389.899 406.096 388.664 406.096C387.218 406.096 386.37 407.023 386.37 408.583C386.37 410.165 387.222 411.097 388.668 411.097C389.885 411.097 390.641 410.42 390.76 409.414H389.723C389.609 409.915 389.231 410.183 388.664 410.183C387.921 410.183 387.473 409.594 387.473 408.583C387.473 407.585 387.917 407.01 388.664 407.01C389.261 407.01 389.622 407.344 389.723 407.81H390.76ZM393.606 411.097C395.043 411.097 395.917 410.156 395.917 408.596C395.917 407.041 395.038 406.096 393.606 406.096C392.177 406.096 391.294 407.045 391.294 408.596C391.294 410.156 392.164 411.097 393.606 411.097ZM393.606 410.183C392.845 410.183 392.41 409.603 392.41 408.596C392.41 407.594 392.845 407.01 393.606 407.01C394.362 407.01 394.797 407.594 394.797 408.596C394.797 409.603 394.366 410.183 393.606 410.183ZM396.746 411H397.836V408.223C397.836 407.55 398.328 407.111 399.035 407.111C399.22 407.111 399.51 407.142 399.594 407.172V406.162C399.492 406.131 399.299 406.113 399.141 406.113C398.521 406.113 398.003 406.465 397.871 406.939H397.796V406.192H396.746V411ZM401.837 411.079C402.505 411.079 403.059 410.767 403.331 410.24H403.406V411H404.461V404.333H403.371V406.957H403.296C403.041 406.43 402.496 406.113 401.837 406.113C400.624 406.113 399.86 407.071 399.86 408.592C399.86 410.121 400.62 411.079 401.837 411.079ZM402.176 407.041C402.923 407.041 403.384 407.638 403.384 408.596C403.384 409.563 402.927 410.152 402.176 410.152C401.428 410.152 400.976 409.567 400.976 408.596C400.976 407.629 401.433 407.041 402.176 407.041ZM409.15 408.179H409.946C410.728 408.179 411.202 408.565 411.202 409.189C411.202 409.796 410.688 410.205 409.959 410.205C409.225 410.205 408.728 409.831 408.68 409.247H407.595C407.647 410.402 408.592 411.158 409.972 411.158C411.343 411.158 412.363 410.367 412.363 409.273C412.363 408.412 411.822 407.854 410.961 407.722V407.647C411.633 407.471 412.112 406.961 412.117 406.197C412.121 405.283 411.361 404.5 410.012 404.5C408.636 404.5 407.775 405.278 407.718 406.399H408.781C408.829 405.775 409.26 405.423 409.95 405.423C410.622 405.423 411.022 405.832 411.022 406.351C411.022 406.917 410.574 407.313 409.924 407.313H409.15V408.179Z" fill="#00000A" fill-opacity="0.67"/>
<path d="M324.688 399H319.333C318.537 399 317.889 399.649 317.889 400.444V410.556C317.889 411.352 318.537 412 319.333 412H326.556C327.352 412 328 411.352 328 410.556V402.312L324.688 399ZM323.667 403.333V399.722L327.278 403.333H323.667Z" fill="#F5A384"/>
<path d="M316.444 401.889H315V413.444C315 414.241 315.648 414.889 316.444 414.889H325.111V413.444H316.444V401.889Z" fill="#EC7345"/>
<g filter="url(#filter11_d)">
<rect x="359" y="299" width="120" height="34" fill="white"/>
</g>
<path d="M390.428 320.158C391.891 320.158 392.963 319.284 393.113 317.987H391.997C391.843 318.699 391.232 319.147 390.428 319.147C389.347 319.147 388.674 318.26 388.674 316.827C388.674 315.399 389.347 314.511 390.423 314.511C391.223 314.511 391.834 315.003 391.992 315.764H393.108C392.977 314.441 391.865 313.5 390.423 313.5C388.626 313.5 387.514 314.771 387.514 316.832C387.514 318.884 388.63 320.158 390.428 320.158ZM398.083 315.192H396.994V317.992C396.994 318.704 396.607 319.139 395.899 319.139C395.249 319.139 394.946 318.778 394.946 318.044V315.192H393.856V318.317C393.856 319.442 394.471 320.097 395.521 320.097C396.255 320.097 396.725 319.785 396.958 319.235H397.033V320H398.083V315.192ZM398.949 316.568C398.949 317.293 399.384 317.719 400.307 317.93L401.16 318.128C401.617 318.229 401.823 318.4 401.823 318.673C401.823 319.029 401.441 319.271 400.892 319.271C400.347 319.271 400.009 319.06 399.903 318.704H398.826C398.91 319.578 399.666 320.097 400.865 320.097C402.065 320.097 402.913 319.481 402.913 318.559C402.913 317.851 402.487 317.456 401.569 317.249L400.72 317.056C400.237 316.946 400.009 316.779 400.009 316.506C400.009 316.159 400.382 315.922 400.879 315.922C401.388 315.922 401.709 316.137 401.788 316.476H402.812C402.733 315.601 402.017 315.096 400.874 315.096C399.74 315.096 398.949 315.698 398.949 316.568ZM403.968 314.015V315.223H403.208V316.093H403.968V318.717C403.968 319.648 404.408 320.022 405.511 320.022C405.722 320.022 405.924 320 406.082 319.969V319.117C405.95 319.13 405.867 319.139 405.713 319.139C405.256 319.139 405.054 318.928 405.054 318.453V316.093H406.082V315.223H405.054V314.015H403.968ZM408.842 320.097C410.279 320.097 411.154 319.156 411.154 317.596C411.154 316.041 410.275 315.096 408.842 315.096C407.414 315.096 406.531 316.045 406.531 317.596C406.531 319.156 407.401 320.097 408.842 320.097ZM408.842 319.183C408.082 319.183 407.647 318.603 407.647 317.596C407.647 316.594 408.082 316.01 408.842 316.01C409.598 316.01 410.033 316.594 410.033 317.596C410.033 318.603 409.602 319.183 408.842 319.183ZM411.892 320H412.982V317.078C412.982 316.489 413.382 316.045 413.923 316.045C414.459 316.045 414.793 316.366 414.793 316.893V320H415.852V317.007C415.852 316.458 416.225 316.045 416.792 316.045C417.377 316.045 417.671 316.353 417.671 316.972V320H418.757V316.695C418.757 315.698 418.177 315.096 417.214 315.096C416.546 315.096 415.992 315.443 415.755 315.97H415.68C415.478 315.43 415.017 315.096 414.353 315.096C413.716 315.096 413.224 315.421 413.017 315.97H412.943V315.192H411.892V320ZM421.706 315.961C422.361 315.961 422.791 316.418 422.813 317.13H420.55C420.598 316.427 421.055 315.961 421.706 315.961ZM422.822 318.677C422.664 319.033 422.29 319.231 421.75 319.231C421.033 319.231 420.572 318.73 420.546 317.93V317.873H423.903V317.521C423.903 316.005 423.081 315.096 421.71 315.096C420.317 315.096 419.451 316.067 419.451 317.614C419.451 319.161 420.304 320.097 421.719 320.097C422.853 320.097 423.657 319.552 423.855 318.677H422.822ZM424.637 320H425.727V317.223C425.727 316.55 426.219 316.111 426.927 316.111C427.111 316.111 427.401 316.142 427.485 316.172V315.162C427.384 315.131 427.19 315.113 427.032 315.113C426.413 315.113 425.894 315.465 425.762 315.939H425.688V315.192H424.637V320ZM431.309 314.599H432.592C433.313 314.599 433.752 315.003 433.752 315.663C433.752 316.335 433.339 316.722 432.618 316.722H431.309V314.599ZM431.309 317.623H432.566L433.809 320H435.106L433.721 317.447C434.477 317.174 434.917 316.476 434.917 315.641C434.917 314.423 434.082 313.659 432.75 313.659H430.175V320H431.309V317.623ZM437.686 315.961C438.34 315.961 438.771 316.418 438.793 317.13H436.53C436.578 316.427 437.035 315.961 437.686 315.961ZM438.802 318.677C438.644 319.033 438.27 319.231 437.73 319.231C437.013 319.231 436.552 318.73 436.525 317.93V317.873H439.883V317.521C439.883 316.005 439.061 315.096 437.69 315.096C436.297 315.096 435.431 316.067 435.431 317.614C435.431 319.161 436.284 320.097 437.699 320.097C438.833 320.097 439.637 319.552 439.835 318.677H438.802ZM444.77 316.81C444.656 315.799 443.909 315.096 442.674 315.096C441.228 315.096 440.38 316.023 440.38 317.583C440.38 319.165 441.232 320.097 442.678 320.097C443.895 320.097 444.651 319.42 444.77 318.414H443.733C443.619 318.915 443.241 319.183 442.674 319.183C441.931 319.183 441.483 318.594 441.483 317.583C441.483 316.585 441.927 316.01 442.674 316.01C443.271 316.01 443.632 316.344 443.733 316.81H444.77ZM447.526 320.097C448.963 320.097 449.837 319.156 449.837 317.596C449.837 316.041 448.958 315.096 447.526 315.096C446.097 315.096 445.214 316.045 445.214 317.596C445.214 319.156 446.084 320.097 447.526 320.097ZM447.526 319.183C446.765 319.183 446.33 318.603 446.33 317.596C446.33 316.594 446.765 316.01 447.526 316.01C448.282 316.01 448.717 316.594 448.717 317.596C448.717 318.603 448.286 319.183 447.526 319.183ZM450.576 320H451.666V317.223C451.666 316.55 452.158 316.111 452.865 316.111C453.05 316.111 453.34 316.142 453.424 316.172V315.162C453.322 315.131 453.129 315.113 452.971 315.113C452.351 315.113 451.833 315.465 451.701 315.939H451.626V315.192H450.576V320ZM455.577 320.079C456.245 320.079 456.799 319.767 457.071 319.24H457.146V320H458.201V313.333H457.111V315.957H457.036C456.781 315.43 456.236 315.113 455.577 315.113C454.364 315.113 453.6 316.071 453.6 317.592C453.6 319.121 454.36 320.079 455.577 320.079ZM455.916 316.041C456.663 316.041 457.124 316.638 457.124 317.596C457.124 318.563 456.667 319.152 455.916 319.152C455.168 319.152 454.716 318.567 454.716 317.596C454.716 316.629 455.173 316.041 455.916 316.041ZM464.191 320H465.277V318.792H466.134V317.833H465.277V313.659H463.677C462.816 314.968 461.915 316.414 461.093 317.847V318.792H464.191V320ZM462.143 317.798C462.763 316.73 463.497 315.566 464.147 314.582H464.209V317.86H462.143V317.798Z" fill="#00000A" fill-opacity="0.67"/>
<path d="M379.688 308H374.333C373.537 308 372.889 308.649 372.889 309.444V319.556C372.889 320.352 373.537 321 374.333 321H381.556C382.352 321 383 320.352 383 319.556V311.312L379.688 308ZM378.667 312.333V308.722L382.278 312.333H378.667Z" fill="#F5A384"/>
<path d="M371.444 310.889H370V322.444C370 323.241 370.648 323.889 371.444 323.889H380.111V322.444H371.444V310.889Z" fill="#EC7345"/>
<path d="M251.379 337.817C246.447 337.817 241.817 335.894 238.326 332.403C234.836 328.913 232.931 324.301 232.931 319.369C232.931 314.436 234.854 309.806 238.344 306.316C241.817 302.826 246.447 300.92 251.379 300.92C253.943 300.92 256.436 301.437 258.787 302.47C261.048 303.467 263.061 304.874 264.752 306.672C265.197 307.135 265.18 307.883 264.717 308.328C264.254 308.773 263.506 308.756 263.061 308.293C261.565 306.726 259.82 305.497 257.843 304.624C255.795 303.734 253.623 303.271 251.379 303.271C242.493 303.271 235.264 310.501 235.264 319.386C235.264 328.272 242.493 335.502 251.379 335.502C253.623 335.502 255.795 335.057 257.843 334.149C259.82 333.276 261.565 332.047 263.061 330.48C263.506 330.017 264.236 329.999 264.717 330.445C265.18 330.89 265.197 331.62 264.752 332.101C263.043 333.899 261.031 335.306 258.769 336.303C256.436 337.3 253.961 337.817 251.379 337.817Z" fill="#FF6C36"/>
<path d="M251.379 334.131C243.241 334.131 236.617 327.506 236.617 319.369C236.617 311.231 243.241 304.606 251.379 304.606C253.445 304.606 255.421 305.016 257.309 305.835C259.107 306.619 260.728 307.758 262.081 309.183C262.384 309.486 262.366 309.984 262.046 310.287C261.743 310.59 261.244 310.572 260.942 310.251C258.431 307.616 255.03 306.156 251.379 306.156C244.096 306.156 238.166 312.085 238.166 319.369C238.166 326.652 244.096 332.581 251.379 332.581C253.338 332.581 255.243 332.154 257.006 331.335C257.398 331.157 257.861 331.317 258.039 331.709C258.217 332.101 258.057 332.564 257.665 332.742C255.689 333.668 253.569 334.131 251.379 334.131Z" fill="#FF6C36"/>
<path d="M266.373 328.076C266.907 328.432 267.049 329.163 266.693 329.697C266.337 330.231 265.607 330.373 265.073 330.017C264.539 329.661 264.396 328.931 264.752 328.397C265.109 327.845 265.839 327.702 266.373 328.076Z" fill="#FF6C36"/>
<path d="M251.379 340.737C245.663 340.737 240.303 338.511 236.261 334.487C232.236 330.445 230.01 325.085 230.01 319.369C230.01 313.652 232.236 308.293 236.261 304.25C240.303 300.226 245.663 298 251.379 298C254.353 298 257.238 298.605 259.944 299.781C262.562 300.92 264.895 302.559 266.853 304.642C267.156 304.945 267.138 305.443 266.818 305.746C266.515 306.049 266.017 306.031 265.714 305.71C263.88 303.787 261.725 302.274 259.303 301.205C256.792 300.101 254.121 299.549 251.361 299.549C246.073 299.549 241.087 301.615 237.347 305.354C233.608 309.094 231.542 314.08 231.542 319.369C231.542 324.657 233.608 329.643 237.347 333.383C241.087 337.122 246.073 339.188 251.361 339.188C252.145 339.188 252.928 339.135 253.694 339.045C254.121 338.992 254.513 339.295 254.549 339.722C254.602 340.15 254.299 340.541 253.872 340.577C253.053 340.684 252.216 340.737 251.379 340.737Z" fill="#FF6C36"/>
<path d="M256.098 340.185C255.742 340.185 255.421 339.936 255.35 339.58C255.243 339.17 255.51 338.743 255.938 338.654C258.591 338.03 261.049 336.891 263.239 335.235C263.577 334.985 264.076 335.057 264.325 335.395C264.574 335.733 264.503 336.232 264.165 336.481C261.796 338.244 259.143 339.491 256.276 340.167C256.223 340.185 256.169 340.185 256.098 340.185Z" fill="#FF6C36"/>
<path d="M265.482 335.146C265.269 335.146 265.073 335.057 264.913 334.896C264.61 334.576 264.628 334.095 264.948 333.792C265.233 333.525 265.518 333.24 265.803 332.938C266.106 332.617 266.587 332.617 266.907 332.902C267.228 333.205 267.228 333.686 266.943 334.006C266.64 334.327 266.337 334.629 266.017 334.932C265.874 335.074 265.678 335.146 265.482 335.146Z" fill="#FF6C36"/>
<path d="M259.357 331.638C259.107 331.638 258.876 331.531 258.716 331.317C258.466 330.961 258.555 330.48 258.894 330.231C259.766 329.608 260.194 329.252 260.942 328.468C261.244 328.165 261.725 328.147 262.046 328.432C262.348 328.735 262.366 329.216 262.081 329.536C261.244 330.427 260.692 330.854 259.802 331.495C259.659 331.584 259.517 331.638 259.357 331.638Z" fill="#FF6C36"/>
<path d="M266.871 304.642C265.91 303.627 264.841 302.701 263.702 301.9C262.562 301.098 261.333 300.404 260.051 299.834C258.68 299.229 257.238 298.766 255.778 298.445C254.3 298.142 252.786 298 251.272 298C249.937 298 248.601 298.142 247.301 298.392C246.019 298.641 244.737 299.015 243.526 299.496C242.315 299.977 241.14 300.564 240.036 301.259C238.914 301.971 237.864 302.772 236.884 303.663C235.905 304.571 234.997 305.568 234.195 306.636C233.412 307.687 232.717 308.827 232.147 310.002C231.578 311.177 231.115 312.406 230.776 313.67C230.42 314.935 230.189 316.252 230.082 317.552C229.957 318.959 229.975 320.366 230.135 321.755C230.295 323.197 230.598 324.622 231.061 326.011C231.506 327.382 232.094 328.7 232.806 329.946C233.536 331.228 234.427 332.457 235.406 333.561C236.332 334.594 237.347 335.537 238.451 336.374C239.502 337.176 240.624 337.87 241.799 338.458C242.974 339.045 244.203 339.526 245.449 339.882C246.714 340.239 248.014 340.488 249.331 340.613C249.972 340.666 250.613 340.702 251.272 340.702C251.13 339.562 250.845 338.44 250.418 337.389C250.008 336.357 249.456 335.377 248.797 334.487C248.138 333.596 247.373 332.795 246.518 332.083C245.663 331.371 244.719 330.783 243.704 330.32C243.455 330.195 243.206 330.088 242.939 329.999C242.867 329.982 242.814 329.946 242.743 329.928C242.725 329.91 242.689 329.91 242.654 329.893C242.618 329.875 242.6 329.821 242.6 329.768C242.547 329.608 242.476 329.465 242.404 329.323C242.244 329.02 242.048 328.753 241.835 328.504C241.621 328.254 241.389 328.023 241.193 327.774C240.392 326.794 239.715 325.708 239.217 324.533C238.718 323.375 238.398 322.129 238.255 320.882C238.131 319.725 238.148 318.549 238.309 317.392C238.469 316.341 238.754 315.309 239.163 314.329C239.555 313.368 240.072 312.459 240.677 311.622C241.283 310.786 241.977 310.02 242.76 309.343C243.544 308.684 244.399 308.114 245.325 307.634C246.251 307.153 247.248 306.779 248.263 306.53C249.314 306.28 250.418 306.156 251.504 306.156C252.75 306.173 253.997 306.352 255.19 306.708C256.365 307.064 257.487 307.58 258.52 308.239C259.036 308.577 259.535 308.951 260.016 309.361C260.247 309.575 260.479 309.788 260.71 310.002C260.942 310.234 261.155 310.465 261.405 310.679C262.384 311.462 263.72 311.729 264.93 311.427C266.123 311.124 267.121 310.287 267.637 309.165C268.082 308.186 268.118 307.028 267.744 306.013C267.53 305.497 267.245 305.034 266.871 304.642C268.421 306.28 264.895 302.576 266.871 304.642Z" fill="#FF6C36"/>
<path d="M256.436 319.369C256.436 316.573 254.175 314.311 251.379 314.311C248.584 314.311 246.322 316.573 246.322 319.369C246.322 322.164 248.584 324.426 251.379 324.426C254.175 324.426 256.436 322.164 256.436 319.369Z" fill="#FF6C36"/>
</g>
<defs>
<filter id="filter0_d" x="0" y="0" width="514" height="468" filterUnits="userSpaceOnUse" color-interpolation-filters="sRGB">
<feFlood flood-opacity="0" result="BackgroundImageFix"/>
<feColorMatrix in="SourceAlpha" type="matrix" values="0 0 0 0 0 0 0 0 0 0 0 0 0 0 0 0 0 0 127 0"/>
<feMorphology radius="1" operator="dilate" in="SourceAlpha" result="effect1_dropShadow"/>
<feOffset dy="3"/>
<feGaussianBlur stdDeviation="4"/>
<feColorMatrix type="matrix" values="0 0 0 0 0.445833 0 0 0 0 0.442118 0 0 0 0 0.442118 0 0 0 0.25 0"/>
<feBlend mode="normal" in2="BackgroundImageFix" result="effect1_dropShadow"/>
<feBlend mode="normal" in="SourceGraphic" in2="effect1_dropShadow" result="shape"/>
</filter>
<filter id="filter1_d" x="128" y="61" width="56" height="56" filterUnits="userSpaceOnUse" color-interpolation-filters="sRGB">
<feFlood flood-opacity="0" result="BackgroundImageFix"/>
<feColorMatrix in="SourceAlpha" type="matrix" values="0 0 0 0 0 0 0 0 0 0 0 0 0 0 0 0 0 0 127 0"/>
<feMorphology radius="2" operator="erode" in="SourceAlpha" result="effect1_dropShadow"/>
<feOffset dx="2" dy="3"/>
<feGaussianBlur stdDeviation="5"/>
<feColorMatrix type="matrix" values="0 0 0 0 0.550036 0 0 0 0 0.550036 0 0 0 0 0.550036 0 0 0 0.42 0"/>
<feBlend mode="normal" in2="BackgroundImageFix" result="effect1_dropShadow"/>
<feBlend mode="normal" in="SourceGraphic" in2="effect1_dropShadow" result="shape"/>
</filter>
<filter id="filter2_d" x="192" y="61" width="56" height="56" filterUnits="userSpaceOnUse" color-interpolation-filters="sRGB">
<feFlood flood-opacity="0" result="BackgroundImageFix"/>
<feColorMatrix in="SourceAlpha" type="matrix" values="0 0 0 0 0 0 0 0 0 0 0 0 0 0 0 0 0 0 127 0"/>
<feMorphology radius="2" operator="erode" in="SourceAlpha" result="effect1_dropShadow"/>
<feOffset dx="2" dy="3"/>
<feGaussianBlur stdDeviation="5"/>
<feColorMatrix type="matrix" values="0 0 0 0 0.550036 0 0 0 0 0.550036 0 0 0 0 0.550036 0 0 0 0.42 0"/>
<feBlend mode="normal" in2="BackgroundImageFix" result="effect1_dropShadow"/>
<feBlend mode="normal" in="SourceGraphic" in2="effect1_dropShadow" result="shape"/>
</filter>
<filter id="filter3_d" x="252" y="61" width="56" height="56" filterUnits="userSpaceOnUse" color-interpolation-filters="sRGB">
<feFlood flood-opacity="0" result="BackgroundImageFix"/>
<feColorMatrix in="SourceAlpha" type="matrix" values="0 0 0 0 0 0 0 0 0 0 0 0 0 0 0 0 0 0 127 0"/>
<feMorphology radius="2" operator="erode" in="SourceAlpha" result="effect1_dropShadow"/>
<feOffset dx="2" dy="3"/>
<feGaussianBlur stdDeviation="5"/>
<feColorMatrix type="matrix" values="0 0 0 0 0.550036 0 0 0 0 0.550036 0 0 0 0 0.550036 0 0 0 0.42 0"/>
<feBlend mode="normal" in2="BackgroundImageFix" result="effect1_dropShadow"/>
<feBlend mode="normal" in="SourceGraphic" in2="effect1_dropShadow" result="shape"/>
</filter>
<filter id="filter4_d" x="313" y="61" width="56" height="56" filterUnits="userSpaceOnUse" color-interpolation-filters="sRGB">
<feFlood flood-opacity="0" result="BackgroundImageFix"/>
<feColorMatrix in="SourceAlpha" type="matrix" values="0 0 0 0 0 0 0 0 0 0 0 0 0 0 0 0 0 0 127 0"/>
<feMorphology radius="2" operator="erode" in="SourceAlpha" result="effect1_dropShadow"/>
<feOffset dx="2" dy="3"/>
<feGaussianBlur stdDeviation="5"/>
<feColorMatrix type="matrix" values="0 0 0 0 0.550036 0 0 0 0 0.550036 0 0 0 0 0.550036 0 0 0 0.42 0"/>
<feBlend mode="normal" in2="BackgroundImageFix" result="effect1_dropShadow"/>
<feBlend mode="normal" in="SourceGraphic" in2="effect1_dropShadow" result="shape"/>
</filter>
<filter id="filter5_d" x="199" y="142" width="106" height="50" filterUnits="userSpaceOnUse" color-interpolation-filters="sRGB">
<feFlood flood-opacity="0" result="BackgroundImageFix"/>
<feColorMatrix in="SourceAlpha" type="matrix" values="0 0 0 0 0 0 0 0 0 0 0 0 0 0 0 0 0 0 127 0"/>
<feMorphology radius="2" operator="erode" in="SourceAlpha" result="effect1_dropShadow"/>
<feOffset dx="2" dy="3"/>
<feGaussianBlur stdDeviation="5"/>
<feColorMatrix type="matrix" values="0 0 0 0 0.550036 0 0 0 0 0.550036 0 0 0 0 0.550036 0 0 0 0.42 0"/>
<feBlend mode="normal" in2="BackgroundImageFix" result="effect1_dropShadow"/>
<feBlend mode="normal" in="SourceGraphic" in2="effect1_dropShadow" result="shape"/>
</filter>
<filter id="filter6_d" x="161" y="210" width="183" height="50" filterUnits="userSpaceOnUse" color-interpolation-filters="sRGB">
<feFlood flood-opacity="0" result="BackgroundImageFix"/>
<feColorMatrix in="SourceAlpha" type="matrix" values="0 0 0 0 0 0 0 0 0 0 0 0 0 0 0 0 0 0 127 0"/>
<feMorphology radius="2" operator="erode" in="SourceAlpha" result="effect1_dropShadow"/>
<feOffset dx="2" dy="3"/>
<feGaussianBlur stdDeviation="5"/>
<feColorMatrix type="matrix" values="0 0 0 0 0.550036 0 0 0 0 0.550036 0 0 0 0 0.550036 0 0 0 0.42 0"/>
<feBlend mode="normal" in2="BackgroundImageFix" result="effect1_dropShadow"/>
<feBlend mode="normal" in="SourceGraphic" in2="effect1_dropShadow" result="shape"/>
</filter>
<filter id="filter7_d" x="209" y="278" width="88" height="88" filterUnits="userSpaceOnUse" color-interpolation-filters="sRGB">
<feFlood flood-opacity="0" result="BackgroundImageFix"/>
<feColorMatrix in="SourceAlpha" type="matrix" values="0 0 0 0 0 0 0 0 0 0 0 0 0 0 0 0 0 0 127 0"/>
<feMorphology radius="2" operator="erode" in="SourceAlpha" result="effect1_dropShadow"/>
<feOffset dx="2" dy="3"/>
<feGaussianBlur stdDeviation="5"/>
<feColorMatrix type="matrix" values="0 0 0 0 0.550036 0 0 0 0 0.550036 0 0 0 0 0.550036 0 0 0 0.42 0"/>
<feBlend mode="normal" in2="BackgroundImageFix" result="effect1_dropShadow"/>
<feBlend mode="normal" in="SourceGraphic" in2="effect1_dropShadow" result="shape"/>
</filter>
<filter id="filter8_d" x="30" y="294" width="136" height="50" filterUnits="userSpaceOnUse" color-interpolation-filters="sRGB">
<feFlood flood-opacity="0" result="BackgroundImageFix"/>
<feColorMatrix in="SourceAlpha" type="matrix" values="0 0 0 0 0 0 0 0 0 0 0 0 0 0 0 0 0 0 127 0"/>
<feMorphology radius="2" operator="erode" in="SourceAlpha" result="effect1_dropShadow"/>
<feOffset dx="2" dy="3"/>
<feGaussianBlur stdDeviation="5"/>
<feColorMatrix type="matrix" values="0 0 0 0 0.550036 0 0 0 0 0.550036 0 0 0 0 0.550036 0 0 0 0.42 0"/>
<feBlend mode="normal" in2="BackgroundImageFix" result="effect1_dropShadow"/>
<feBlend mode="normal" in="SourceGraphic" in2="effect1_dropShadow" result="shape"/>
</filter>
<filter id="filter9_d" x="72" y="386" width="136" height="50" filterUnits="userSpaceOnUse" color-interpolation-filters="sRGB">
<feFlood flood-opacity="0" result="BackgroundImageFix"/>
<feColorMatrix in="SourceAlpha" type="matrix" values="0 0 0 0 0 0 0 0 0 0 0 0 0 0 0 0 0 0 127 0"/>
<feMorphology radius="2" operator="erode" in="SourceAlpha" result="effect1_dropShadow"/>
<feOffset dx="2" dy="3"/>
<feGaussianBlur stdDeviation="5"/>
<feColorMatrix type="matrix" values="0 0 0 0 0.550036 0 0 0 0 0.550036 0 0 0 0 0.550036 0 0 0 0.42 0"/>
<feBlend mode="normal" in2="BackgroundImageFix" result="effect1_dropShadow"/>
<feBlend mode="normal" in="SourceGraphic" in2="effect1_dropShadow" result="shape"/>
</filter>
<filter id="filter10_d" x="298" y="385" width="136" height="50" filterUnits="userSpaceOnUse" color-interpolation-filters="sRGB">
<feFlood flood-opacity="0" result="BackgroundImageFix"/>
<feColorMatrix in="SourceAlpha" type="matrix" values="0 0 0 0 0 0 0 0 0 0 0 0 0 0 0 0 0 0 127 0"/>
<feMorphology radius="2" operator="erode" in="SourceAlpha" result="effect1_dropShadow"/>
<feOffset dx="2" dy="3"/>
<feGaussianBlur stdDeviation="5"/>
<feColorMatrix type="matrix" values="0 0 0 0 0.550036 0 0 0 0 0.550036 0 0 0 0 0.550036 0 0 0 0.42 0"/>
<feBlend mode="normal" in2="BackgroundImageFix" result="effect1_dropShadow"/>
<feBlend mode="normal" in="SourceGraphic" in2="effect1_dropShadow" result="shape"/>
</filter>
<filter id="filter11_d" x="353" y="294" width="136" height="50" filterUnits="userSpaceOnUse" color-interpolation-filters="sRGB">
<feFlood flood-opacity="0" result="BackgroundImageFix"/>
<feColorMatrix in="SourceAlpha" type="matrix" values="0 0 0 0 0 0 0 0 0 0 0 0 0 0 0 0 0 0 127 0"/>
<feMorphology radius="2" operator="erode" in="SourceAlpha" result="effect1_dropShadow"/>
<feOffset dx="2" dy="3"/>
<feGaussianBlur stdDeviation="5"/>
<feColorMatrix type="matrix" values="0 0 0 0 0.550036 0 0 0 0 0.550036 0 0 0 0 0.550036 0 0 0 0.42 0"/>
<feBlend mode="normal" in2="BackgroundImageFix" result="effect1_dropShadow"/>
<feBlend mode="normal" in="SourceGraphic" in2="effect1_dropShadow" result="shape"/>
</filter>
</defs>
</svg>
