          <svg id="neon-glow" version="1.1" xmlns="http://www.w3.org/2000/svg" xmlns:xlink="http://www.w3.org/1999/xlink" x="0px" y="0px" viewbox="0 0 790 118.7" style="enable-background:new 0 0 790 118.7;" xml:space="preserve" width="800" height="120">
            <style type="text/css">
              #neon-glow .bg {
                fill: #130A2A; }

              #neon-glow .st1 {
                fill: url(#stroke_31_);
              }

              #neon-glow .st2 {
                fill: url(#stroke_32_); }

              #neon-glow .st3 {
                fill: url(#stroke_33_); }

              #neon-glow .st4 {
                fill: url(#stroke_34_); }

              #neon-glow .st5 {
                fill: url(#stroke_35_); }

              #neon-glow .st6 {
                fill: url(#stroke_36_); }

              #neon-glow .st7 {
                fill: url(#stroke_37_); }

              #neon-glow .st8 {
                fill: url(#stroke_38_); }

              #neon-glow .st9 {
                fill: url(#stroke_39_); }

              #neon-glow .st10 {
                fill: url(#stroke_40_); }

              #neon-glow .st11 {
                fill: url(#stroke_41_); }

              #neon-glow .stroke {
                fill: #FF0000; }

              #neon-glow .yd-txt__machine {
                -webkit-transform: translate(10px, 0);
                        transform: translate(10px, 0); }

              #neon-glow .yd-flickr__txt path.stroke {
                fill: #FC0205;
                opacity: 0.18;
                -webkit-animation: neonGlow 1.8s forwards 0.68s;
                        animation: neonGlow 1.8s forwards 0.68s; }

              #neon-glow .yd-txt__chargebee g:nth-child(7) path.stroke,
              #neon-glow .yd-txt__chargebee g:nth-child(8) path.stroke,
              #neon-glow .yd-txt__chargebee g:nth-child(9) path.stroke,
              #neon-glow .yd-txt__machine g:nth-child(1) path.stroke,
              #neon-glow .yd-txt__machine g:nth-child(4) path.stroke {
                -webkit-animation: neonGlow2 2.2s forwards;
                        animation: neonGlow2 2.2s forwards; }

              #neon-glow .yd-txt__chargebee g:nth-child(7) path.bg,
              #neon-glow .yd-txt__chargebee g:nth-child(7) path.shadow,
              #neon-glow .yd-txt__chargebee g:nth-child(8) path.bg,
              #neon-glow .yd-txt__chargebee g:nth-child(8) path.shadow,
              #neon-glow .yd-txt__chargebee g:nth-child(9) path.bg,
              #neon-glow .yd-txt__chargebee g:nth-child(9) path.shadow,
              #neon-glow .yd-txt__machine g:nth-child(1) path.bg,
              #neon-glow .yd-txt__machine g:nth-child(1) path.shadow,
              #neon-glow .yd-txt__machine g:nth-child(4) path.bg,
              #neon-glow .yd-txt__machine g:nth-child(4) path.shadow {
                -webkit-animation: shadowFlickr2 2.2s forwards;
                        animation: shadowFlickr2 2.2s forwards; }

              #neon-glow .yd-txt__chargebee g:nth-child(7) path.stroke,
              #neon-glow .yd-txt__chargebee g:nth-child(8) path.stroke,
              #neon-glow .yd-txt__chargebee g:nth-child(9) path.stroke,
              #neon-glow .yd-txt__chargebee g:nth-child(7) path.bg,
              #neon-glow .yd-txt__chargebee g:nth-child(7) path.shadow,
              #neon-glow .yd-txt__chargebee g:nth-child(8) path.bg,
              #neon-glow .yd-txt__chargebee g:nth-child(8) path.shadow,
              #neon-glow .yd-txt__chargebee g:nth-child(9) path.bg,
              #neon-glow .yd-txt__chargebee g:nth-child(9) path.shadow {
                -webkit-animation-delay: 0.38s;
                        animation-delay: 0.38s; }

              #neon-glow .yd-txt__machine g:nth-child(4) path.stroke {
                -webkit-animation: neonGlow3 2.8s forwards;
                        animation: neonGlow3 2.8s forwards; }

              #neon-glow .yd-txt__machine g:nth-child(4) path.bg,
              #neon-glow .yd-txt__machine g:nth-child(4) path.shadow {
                -webkit-animation: shadowFlickr3 2.8s forwards;
                        animation: shadowFlickr3 2.8s forwards; }

              #neon-glow .yd-txt__machine g:nth-child(4) path.stroke,
              #neon-glow .yd-txt__machine g:nth-child(4) path.bg,
              #neon-glow .yd-txt__machine g:nth-child(4) path.shadow {
                -webkit-animation-delay: 0.27s;
                        animation-delay: 0.27s; }

              #neon-glow .yd-flickr__txt path.bg,
              #neon-glow .yd-flickr__txt path.shadow {
                opacity: 0.18;
                -webkit-animation: shadowFlickr 1.8s forwards;
                        animation: shadowFlickr 1.8s forwards; }

              #neon-glow .yd-txt__chargebee path.stroke,
              #neon-glow .yd-txt__chargebee path.bg,
              #neon-glow .yd-txt__chargebee path.shadow {
                -webkit-animation-delay: 0.32s;
                        animation-delay: 0.32s; }

              #neon-glow .yd-txt__time path.stroke,
              #neon-glow .yd-txt__time path.bg,
              #neon-glow .yd-txt__time path.shadow {
                -webkit-animation-delay: 0.48s;
                        animation-delay: 0.48s; }

              #neon-glow .yd-txt__machine path.stroke,
              #neon-glow .yd-txt__machine path.bg,

              #neon-glow .yd-txt__machine path.shadow {
                -webkit-animation-delay: 0.56s;
                        animation-delay: 0.56s; }

              @-webkit-keyframes neonGlow {
                0%, 98.6% {
                  opacity: 0.1;
                  fill: #4F0207; }
                28.8%, 44% {
                  opacity: 0.28;
                  fill: #FC0205; }
                56%, 100% {
                  opacity: 1; }
                56% {
                  fill: #FC0205; } }

              @keyframes neonGlow {
                0%, 98.6% {
                  opacity: 0.1;
                  fill: #4F0207; }
                28.8%, 44% {
                  opacity: 0.28;
                  fill: #FC0205; }
                56%, 100% {
                  opacity: 1; }
                56% {
                  fill: #FC0205; } }

              @-webkit-keyframes shadowFlickr {
                0%, 98.6% {
                  opacity: 0.1; }
                28.8%, 44% {
                  opacity: 0.28; }
                56%, 100% {
                  opacity: 1; } }

              @keyframes shadowFlickr {
                0%, 98.6% {
                  opacity: 0.1; }
                28.8%, 44% {
                  opacity: 0.28; }
                56%, 100% {
                  opacity: 1; } }

              @-webkit-keyframes neonGlow2 {
                8%, 18%, 72%, 100% {
                  opacity: 1;
                  fill: #FC0205; }
                14%, 68%, 74% {
                  opacity: 0.01;
                  fill: #4F0207; }
                62%, 84% {
                  opacity: 0.28;
                  fill: #B2040D; } }

              @keyframes neonGlow2 {
                8%, 18%, 72%, 100% {
                  opacity: 1;
                  fill: #FC0205; }
                14%, 68%, 74% {
                  opacity: 0.01;
                  fill: #4F0207; }
                62%, 84% {
                  opacity: 0.28;
                  fill: #B2040D; } }

              @-webkit-keyframes shadowFlickr2 {
                8%, 18%, 72%, 100% {
                  opacity: 1; }
                14%, 68%, 74% {
                  opacity: 0.01; }
                62%, 84% {
                  opacity: 0.28; } }

              @keyframes shadowFlickr2 {
                8%, 18%, 72%, 100% {
                  opacity: 1; }
                14%, 68%, 74% {
                  opacity: 0.01; }
                62%, 84% {
                  opacity: 0.28; } }

              @-webkit-keyframes neonGlow3 {
                18%, 72%, 100% {
                  opacity: 1;
                  fill: #FC0205; }
                14%, 68%, 74%, 88%, 95% {
                  opacity: 0.01;
                  fill: #4F0207; }
                62%, 84%, 92% {
                  opacity: 0.28;
                  fill: #B2040D; } }

              @keyframes neonGlow3 {
                18%, 72%, 100% {
                  opacity: 1;
                  fill: #FC0205; }
                14%, 68%, 74%, 88%, 95% {
                  opacity: 0.01;
                  fill: #4F0207; }
                62%, 84%, 92% {
                  opacity: 0.28;
                  fill: #B2040D; } }

              @-webkit-keyframes shadowFlickr3 {
                18%, 72%, 100% {
                  opacity: 1; }
                14%, 68%, 74%, 88%, 95% {
                  opacity: 0.01; }
                62%, 84%, 92% {
                  opacity: 0.28; } }

              @keyframes shadowFlickr3 {
                18%, 72%, 100% {
                  opacity: 1; }
                14%, 68%, 74%, 88%, 95% {
                  opacity: 0.01; }
                62%, 84%, 92% {
                  opacity: 0.28; } }

            </style>
            <defs>
              <linearGradient id="stroke_31_" gradientTransform="rotate(90)">
                <stop offset="0" style="stop-color:#805ff1;"></stop>
                <stop offset="100%" style="stop-color:#af3b97;"></stop>
              </linearGradient>
            </defs>
            <g class="yd-txt__introducing">
              <path id="shadow" d="M7.8,5.8h6.5v42H7.8V5.8z"></path>
              <path class="st0" d="M2.8,1.8h6.5v42H2.8V1.8z"></path>
              
              <path class="st1" id="stroke_20_" d="M10.3,44.8H1.8v-44h8.5V44.8z M3.8,42.8h4.5v-40H3.8V42.8z"></path>
              <path id="shadow_1_" d="M23.4,5.8H30l18.8,29.3c0.7,1,1.3,2.1,1.8,3.2V5.8h6.2v42h-6.6L31.4,18.6c-0.7-1-1.3-2.1-1.8-3.2v32.5h-6.2    V5.8z"></path>
              
              <path class="st0" d="M18.4,1.8H25l18.8,29.3c0.7,1,1.3,2.1,1.8,3.2V1.8h6.2v42h-6.6L26.4,14.6c-0.7-1-1.3-2.1-1.8-3.2v32.5h-6.2    V1.8z"></path>
              <path class="st1" id="stroke_21_" d="M52.9,44.8h-8.1L25.6,15.2v29.7h-8.2v-44h8.1l19.1,29.7V0.8h8.2L52.9,44.8z M45.8,42.8h5v-40    h-4.2v36.6l-1.9-4.8c-0.5-1-1.1-2-1.7-3L24.5,2.8h-5v40h4.2V6.2l1.9,4.8c0.5,1,1.1,2,1.7,3L45.8,42.8z"></path>
              <path id="shadow_2_" d="M62.8,5.8h32.4v5.9h-13v36.1h-6.5V11.7h-13L62.8,5.8z"></path>
              <path class="st0" d="M57.8,1.8h32.4v5.9h-13v36.1h-6.5V7.7h-13L57.8,1.8z"></path>
              
              <path class="st1" id="stroke_22_" d="M78.3,44.8h-8.5V8.7h-13V0.8h34.4v7.9h-13L78.3,44.8z M71.8,42.8h4.5V6.7h13V2.8H58.9v3.9h13    L71.8,42.8z"></path>
              <path id="shadow_3_" d="M115.9,30.1h-8.3v17.7h-6.5v-42h17.4c8.8,0,14.2,5,14.2,11.9c0,6-3.8,10.3-10,11.9l10.5,18.2h-7.5    L115.9,30.1z M107.6,24.5h10.4c5.3,0,8.2-2.2,8.2-6.5s-2.8-6.5-8.2-6.5h-10.4V24.5z"></path>
              <path class="st0" d="M110.9,26.1h-8.3v17.7h-6.5v-42h17.4c8.8,0,14.2,5,14.2,11.9c0,6-3.8,10.3-10,11.9l10.5,18.2h-7.5L110.9,26.1z    M102.6,20.5h10.4c5.3,0,8.2-2.2,8.2-6.5s-2.8-6.5-8.2-6.5h-10.4V20.5z"></path>
              
              <path class="st1" id="stroke_23_" d="M129.9,44.8h-9.8l-9.8-17.7h-6.7v17.7h-8.5v-44h18.4c9.1,0,15.2,5.2,15.2,12.9    c0,5.9-3.5,10.5-9.5,12.5L129.9,44.8z M121.3,42.8h5.2L116.3,25l1.3-0.3c5.9-1.5,9.2-5.5,9.2-10.9c0-6.6-5.2-10.9-13.2-10.9H97.2    v40h4.5V25.1h9.9L121.3,42.8z M113.1,21.5h-11.4v-15h11.4c8,0,9.2,4.7,9.2,7.5S121.1,21.5,113.1,21.5z M103.6,19.5h9.4    c4.8,0,7.2-1.8,7.2-5.5s-2.4-5.5-7.2-5.5h-9.4V19.5z"></path>
              <path id="shadow_4_" d="M158.8,48.7c-11.8,0-20.9-9.1-20.9-21.8S147,5,158.8,5s20.9,9.1,20.9,21.8S170.6,48.7,158.8,48.7z    M173.2,26.8c0-9.7-6.2-16-14.3-16s-14.3,6.3-14.3,16s6.2,16,14.3,16S173.2,36.5,173.2,26.8z"></path>
              <path class="st0" d="M153.8,44.7c-11.8,0-20.9-9.1-20.9-21.8S142,1,153.8,1s20.9,9.1,20.9,21.8S165.6,44.7,153.8,44.7z M168.2,22.8    c0-9.7-6.2-16-14.3-16s-14.3,6.3-14.3,16s6.2,16,14.3,16S168.2,32.5,168.2,22.8z"></path>
              
              <path class="st1" id="stroke_24_" d="M153.8,45.7c-12.5,0-21.9-9.8-21.9-22.8S141.3,0,153.8,0s21.9,9.8,21.9,22.8    S166.3,45.7,153.8,45.7z M153.8,2c-11.5,0-19.9,8.8-19.9,20.8s8.4,20.8,19.9,20.8s19.9-8.8,19.9-20.8S165.4,2,153.8,2z M153.8,39.8    c-9,0-15.3-7-15.3-17s6.3-17,15.3-17s15.3,7,15.3,17S162.9,39.8,153.8,39.8L153.8,39.8z M153.8,7.9c-7.9,0-13.3,6.1-13.3,15    s5.5,15,13.3,15s13.3-6.1,13.3-15S161.7,7.8,153.8,7.9L153.8,7.9z"></path>
              <path id="shadow_5_" d="M186.9,5.8H199c12.8,0,22.1,7.3,22.1,21s-9.4,21-22.1,21h-12.1V5.8z M214.5,26.8c0-10.3-6.3-15.1-15.4-15.1    h-5.8V42h5.8C208.3,42,214.5,37.1,214.5,26.8z"></path>
              <path class="st0" d="M181.9,1.8H194c12.8,0,22.1,7.3,22.1,21s-9.4,21-22.1,21h-12.1V1.8z M209.5,22.8c0-10.3-6.3-15.1-15.4-15.1    h-5.8V38h5.8C203.3,38,209.5,33.1,209.5,22.8z"></path>
              
              <path class="st1" id="stroke_25_" d="M194,44.8h-13.1v-44H194c14.3,0,23.1,8.4,23.1,22S208.3,44.8,194,44.8z M182.9,42.8H194    c13,0,21.1-7.7,21.1-20s-8.1-20-21.1-20h-11.1V42.8z M194.1,39h-6.8V6.7h6.8c10.3,0,16.4,6,16.4,16.1S204.4,39,194.1,39z M189.4,37    h4.8c9.3,0,14.4-5,14.4-14.1s-5.1-14.1-14.4-14.1h-4.8V37z"></path>
              <path id="shadow_6_" d="M260.7,32.9c0,10.1-6.9,15.8-16.4,15.8s-16.4-5.6-16.4-15.8V5.8h6.5v26.9c0,5.9,3.7,10.1,9.9,10.1    s9.9-4.2,9.9-10.1V5.8h6.5V32.9z"></path>
              <path class="st0" d="M255.7,28.9c0,10.1-6.9,15.8-16.4,15.8s-16.4-5.6-16.4-15.8V1.8h6.5v26.9c0,5.9,3.7,10.1,9.9,10.1    s9.9-4.2,9.9-10.1V1.8h6.5V28.9z"></path>
              
              <path class="st1" id="stroke_26_" d="M239.3,45.7c-10.6,0-17.4-6.6-17.4-16.8V0.8h8.5v27.9c0,5.6,3.4,9.1,8.9,9.1s8.9-3.5,8.9-9.1    V0.8h8.5v28.1C256.7,39.1,249.9,45.7,239.3,45.7z M223.9,2.8v26.1c0,9.1,5.9,14.8,15.4,14.8s15.4-5.7,15.4-14.8V2.8h-4.5v25.9    c0,6.6-4.4,11.1-10.9,11.1s-10.9-4.5-10.9-11.1V2.8H223.9z"></path>
              <path id="shadow_7_" d="M306.7,37.6c-4.4,7.1-9.3,11-18.4,11c-11.9,0-20.8-9-20.8-21.8S277,5,288.6,5c8.6,0,15.1,4.5,17.9,10.9    l-5.2,3.7c-3-5.8-7.1-8.7-12.9-8.7c-7.9,0-14.4,6.7-14.4,16s6.1,16,14.3,16c5.6,0,10.1-2.7,13.3-8.7L306.7,37.6z"></path>
              <path class="st0" d="M301.7,33.6c-4.4,7.1-9.3,11-18.4,11c-11.9,0-20.8-9-20.8-21.8S272,1,283.6,1c8.6,0,15.1,4.5,17.9,10.9    l-5.2,3.7c-3-5.8-7.1-8.7-12.9-8.7c-7.9,0-14.4,6.7-14.4,16s6.1,16,14.3,16c5.6,0,10.1-2.7,13.3-8.7L301.7,33.6z"></path>
              
              <path class="st1" id="stroke_27_" d="M283.3,45.7c-12.6,0-21.8-9.6-21.8-22.8c0-13,9.5-22.8,22.1-22.8c8.6,0,15.6,4.3,18.8,11.5    l0.3,0.8l-6.8,4.9l-0.5-1c-2.9-5.6-6.7-8.2-12-8.2c-7.5,0-13.4,6.6-13.4,15c0,8.7,5.6,15,13.3,15c5.4,0,9.5-2.7,12.4-8.2l0.5-1    l6.7,4.7l-0.5,0.8C297.5,42.3,291.9,45.7,283.3,45.7z M283.6,2c-11.5,0-20.1,9-20.1,20.8c0,12.1,8.3,20.8,19.8,20.8    c8.8,0,13.2-3.9,17-9.8l-3.3-2.4c-3.2,5.5-7.8,8.2-13.6,8.2c-8.7,0-15.3-7.3-15.3-17c0-9.5,6.8-17,15.4-17c5.7,0,10.1,2.7,13.2,8.2    l3.6-2.6C297.2,5.5,291,2,283.6,2z"></path>
              <path id="shadow_8_" d="M313.4,5.8h6.5v42h-6.5V5.8z"></path>
              <path class="st0" d="M308.4,1.8h6.5v42h-6.5V1.8z"></path>
              
              <path class="st1" id="stroke_28_" d="M315.9,44.8h-8.5v-44h8.5V44.8z M309.4,42.8h4.5v-40h-4.5V42.8z"></path>
              <path id="shadow_9_" d="M329,5.8h6.6l18.8,29.3c0.7,1,1.3,2.1,1.8,3.2V5.8h6.2v42h-6.6L337,18.6c-0.7-1-1.3-2.1-1.8-3.2v32.5H329    L329,5.8z"></path>
              <path class="st0" d="M324,1.8h6.6l18.8,29.3c0.7,1,1.3,2.1,1.8,3.2V1.8h6.2v42h-6.6L332,14.6c-0.7-1-1.3-2.1-1.8-3.2v32.5H324    L324,1.8z"></path>
              
              <path class="st1" id="stroke_29_" d="M358.5,44.8h-8.1l-19.1-29.7v29.7H323v-44h8.2l19.1,29.7V0.8h8.2L358.5,44.8z M351.4,42.8h5    v-40h-4.2v36.6l-1.9-4.8c-0.5-1-1.1-2-1.7-3L330,2.8h-5v40h4.2V6.2l1.9,4.8c0.5,1,1.1,2,1.7,3L351.4,42.8z"></path>
              <path id="shadow_10_" d="M403.1,41.4c-2.7,4.4-6.6,7.3-13.1,7.3c-11.8,0-20.5-9.2-20.5-21.8S379.2,5,390.8,5    c8,0,14.8,4.1,17.9,10.3l-4.9,3.4c-3.1-5.5-7.6-7.9-13.1-7.9c-7.9,0-14.5,6.3-14.5,16.1c0,9.5,5.7,16,14,16    c7.6,0,11.5-4.9,12.4-11.4h-14.2v-5.3H409v21.7h-4.3L403.1,41.4z"></path>
              <path class="st0" id="bg_17_" d="M398.1,37.4c-2.7,4.4-6.6,7.3-13.1,7.3c-11.8,0-20.5-9.2-20.5-21.8S374.2,1,385.8,1    c8,0,14.8,4.1,17.9,10.3l-4.9,3.4c-3.1-5.5-7.6-7.9-13.1-7.9c-7.9,0-14.5,6.3-14.5,16.1c0,9.5,5.7,16,14,16    c7.6,0,11.5-4.9,12.4-11.4h-14.2v-5.3H404v21.7h-4.3L398.1,37.4z"></path>
              
              <path class="st1" id="stroke_30_" d="M385,45.7c-12.4,0-21.5-9.6-21.5-22.8C363.6,10,373.3,0,385.8,0c8.2,0,15.4,4.1,18.8,10.8    l0.4,0.8l-6.5,4.5l-0.5-1c-2.8-5-6.8-7.4-12.2-7.4c-7.8,0-13.5,6.3-13.5,15.1c0,9,5.2,15,13,15s10.4-5.5,11.2-9.4h-14v-7.3H405    v23.8h-6.1l-1.2-5.1C394.6,43.7,390.4,45.7,385,45.7z M385.8,2c-11.3,0-20.2,9.1-20.2,20.8c0,12.1,8.2,20.8,19.5,20.8    c5.1,0.3,9.8-2.4,12.2-6.8l1.3-2.1l2,8.1h2.5V23.1h-18.7v3.3h14.3l-0.2,1.1c-1.1,7.8-5.9,12.3-13.3,12.3c-8.8,0-15-7-15-17    s6.5-17.1,15.5-17.1c5.5-0.1,10.6,2.7,13.4,7.5l3.3-2.3C399.2,5.4,392.9,2,385.8,2L385.8,2z"></path>
            </g>
            <g class="yd-flickr__txt yd-txt__chargebee">
              <g class="yd-txt__c">
                <path class="shadow" d="M45.2,107.6c-4.4,7.1-9.3,11-18.4,11c-11.9,0-20.8-9-20.8-21.8S15.5,75,27.1,75c8.6,0,15.1,4.5,17.9,10.9      l-5.2,3.7c-3-5.8-7.1-8.7-12.9-8.7c-7.9,0-14.4,6.7-14.4,16s6.1,16,14.3,16c5.6,0,10.1-2.7,13.3-8.7L45.2,107.6z"></path>
                <path class="bg" d="M40.2,103.6c-4.4,7.1-9.3,11-18.4,11c-11.9,0-20.8-9-20.8-21.8S10.5,71,22.1,71c8.6,0,15.1,4.5,17.9,10.9      l-5.2,3.7c-3-5.8-7.1-8.7-12.9-8.7c-7.9,0-14.4,6.7-14.4,16s6.1,16,14.3,16c5.6,0,10.1-2.7,13.3-8.7L40.2,103.6z"></path>
                <path class="stroke" id="stroke_1_" d="M21.8,115.7C9.2,115.7,0,106.1,0,92.8C0,79.8,9.5,70,22.1,70c8.6,0,15.6,4.3,18.9,11.5      l0.3,0.8l-6.8,4.9l-0.5-1c-2.9-5.6-6.7-8.2-12-8.2c-7.5,0-13.4,6.6-13.4,15c0,8.7,5.6,15,13.3,15c5.4,0,9.5-2.7,12.4-8.2l0.5-1      l6.7,4.7l-0.5,0.8C36,112.3,30.5,115.7,21.8,115.7z M22.1,72C10.6,72,2,81,2,92.8c0,12.1,8.3,20.8,19.8,20.8      c8.8,0,13.2-3.9,17-9.8l-3.3-2.4c-3.2,5.5-7.8,8.2-13.6,8.2c-8.7,0-15.3-7.3-15.3-17c0-9.5,6.8-17,15.4-17      c5.7,0,10.1,2.7,13.2,8.2l3.6-2.6C35.7,75.5,29.6,72,22.1,72z"></path>
              </g>
              <g class="yd-txt__h">
                <path class="shadow" d="M51.9,75.8h6.5v17.6h19.6V75.8h6.5v42h-6.5V99.4H58.4v18.5h-6.5L51.9,75.8z"></path>
                <path class="bg" d="M46.9,71.8h6.5v17.6h19.6V71.8h6.5v42h-6.5V95.4H53.4v18.5h-6.5L46.9,71.8z"></path>
                <path class="stroke" id="stroke_2_" d="M80.4,114.8h-8.5V96.4H54.4v18.5h-8.5v-44h8.5v17.6h17.6V70.8h8.5V114.8z M73.9,112.8h4.5      v-40h-4.5v17.6H52.4V72.8h-4.5v40h4.5V94.4h21.6V112.8z"></path>
              </g>
              <g class="yd-txt__a">
                <path class="shadow" d="M105.4,75.8h6.5l16.8,42h-6.8l-4.5-11.7H100l-4.5,11.7h-6.8L105.4,75.8z M107.2,87.2l-5.1,13.3h13.1      l-5.1-13.3c-0.8-2.2-1.4-4-1.4-4S108.1,85.1,107.2,87.2z"></path>
                <path class="bg" d="M100.4,71.8h6.5l16.8,42h-6.8l-4.5-11.7H95l-4.5,11.7h-6.8L100.4,71.8z M102.2,83.2l-5.1,13.3h13.1l-5.1-13.3      c-0.8-2.2-1.4-4-1.4-4S103.1,81.1,102.2,83.2z"></path>
                <path class="stroke" id="stroke_3_" d="M125.2,114.8h-9l-4.5-11.7h-16l-4.5,11.7h-9l17.6-44h7.8L125.2,114.8z M117.5,112.8h4.7      l-16-40h-5.1l-16,40h4.7l4.5-11.7H113L117.5,112.8z M111.6,97.5h-16l5.7-14.7c0.8-2.1,1.4-4,1.4-4l1-3l1,3c0,0,0.6,1.9,1.4,4      L111.6,97.5z M98.5,95.5h10.2l-4.6-11.9c-0.2-0.5-0.4-0.9-0.5-1.3c-0.2,0.4-0.3,0.9-0.5,1.3L98.5,95.5z"></path>
              </g>
              <g class="yd-txt__r">
                <path class="shadow" d="M147.7,100.1h-8.3v17.7h-6.5v-42h17.3c8.8,0,14.2,5,14.2,11.9c0,6-3.8,10.3-10,11.9l10.5,18.2h-7.5      L147.7,100.1z M139.4,94.5h10.4c5.3,0,8.2-2.2,8.2-6.5s-2.8-6.5-8.2-6.5h-10.4V94.5z"></path>
                <path class="bg" id="bg_16_" d="M142.7,96.1h-8.3v17.7h-6.5v-42h17.3c8.8,0,14.2,5,14.2,11.9c0,6-3.8,10.3-10,11.9l10.5,18.2      h-7.5L142.7,96.1z M134.4,90.5h10.4c5.3,0,8.2-2.2,8.2-6.5s-2.8-6.5-8.2-6.5h-10.4V90.5z"></path>
                <path class="stroke" id="stroke_4_" d="M161.7,114.8h-9.8l-9.8-17.7h-6.7v17.7h-8.5v-44h18.3c9.1,0,15.2,5.2,15.2,12.9      c0,5.9-3.5,10.5-9.5,12.5L161.7,114.8z M153,112.8h5.2L148,95l1.3-0.3c5.9-1.5,9.2-5.5,9.2-10.9c0-6.6-5.2-10.9-13.2-10.9h-16.3      v40h4.5V95.1h9.9L153,112.8z M144.8,91.5h-11.4v-15h11.4c8,0,9.2,4.7,9.2,7.5S152.8,91.5,144.8,91.5z M135.4,89.5h9.4      c4.8,0,7.2-1.8,7.2-5.5s-2.4-5.5-7.2-5.5h-9.4V89.5z"></path>
              </g>
              <g class="yd-txt__g">
                <path class="shadow" d="M203.2,111.4c-2.7,4.4-6.6,7.3-13.1,7.3c-11.8,0-20.5-9.2-20.5-21.8S179.2,75,190.8,75      c8,0,14.8,4.1,17.9,10.3l-4.9,3.4c-3.1-5.5-7.6-7.9-13.1-7.9c-7.9,0-14.5,6.3-14.5,16.1c0,9.5,5.7,16,14,16      c7.6,0,11.5-4.9,12.4-11.4h-14.2v-5.3H209v21.7h-4.3L203.2,111.4z"></path>
                <path class="bg" id="bg_15_" d="M198.2,107.4c-2.7,4.4-6.6,7.3-13.1,7.3c-11.8,0-20.5-9.2-20.5-21.8S174.2,71,185.8,71      c8,0,14.8,4.1,17.9,10.3l-4.9,3.4c-3.1-5.5-7.6-7.9-13.1-7.9c-7.9,0-14.5,6.3-14.5,16.1c0,9.5,5.7,16,14,16      c7.6,0,11.5-4.9,12.4-11.4h-14.2v-5.3H204v21.7h-4.3L198.2,107.4z"></path>
                <path class="stroke" id="stroke_5_" d="M185.1,115.7c-12.4,0-21.5-9.6-21.5-22.8c0-12.8,9.7-22.8,22.2-22.8      c8.2,0,15.4,4.1,18.8,10.8l0.4,0.8l-6.5,4.5l-0.5-1c-2.8-5-6.8-7.4-12.2-7.4c-7.8,0-13.5,6.3-13.5,15.1c0,9,5.2,15,13,15      s10.4-5.5,11.2-9.4h-14v-7.3H205v23.8h-6.1l-1.2-5.1C194.6,113.7,190.5,115.7,185.1,115.7z M185.8,72c-11.3,0-20.2,9.1-20.2,20.8      c0,12.1,8.2,20.8,19.5,20.8c5,0.3,9.8-2.4,12.2-6.8l1.3-2.1l2,8.1h2.5V93.1h-18.6v3.3h14.3l-0.2,1.1c-1,7.8-5.9,12.3-13.3,12.3      c-8.8,0-15-7-15-17s6.5-17.1,15.5-17.1c5.5-0.1,10.6,2.7,13.4,7.5l3.3-2.3C199.2,75.4,192.9,72,185.8,72z"></path>
              </g>
              <g class="yd-txt__e">
                <path class="shadow" d="M217,75.8h27.6v5.8h-21.1v11.6H243V99h-19.4v13.1h21.3v5.8H217V75.8z"></path>
                <path class="bg" id="bg_14_" d="M212,71.8h27.6v5.8h-21.1v11.6H238V95h-19.4v13.1h21.3v5.8H212V71.8z"></path>
                <path class="stroke" id="stroke_6_" d="M240.8,114.8H211v-44h29.6v7.8h-21.1v9.6H239V96h-19.4v11.1h21.3L240.8,114.8z M213,112.8      h25.8v-3.8h-21.3V94H237v-3.8h-19.4V76.6h21.1v-3.8H213L213,112.8z"></path>
              </g>
              <g class="yd-txt__b">
                <path class="shadow" d="M252.4,75.8h16.3c8.3,0,13.3,4,13.3,10.2c0,4.6-3.1,7.6-6.5,9.1c4.6,1.7,8.2,4.7,8.2,10.3      c0,7.8-6.8,12.5-14.8,12.5h-16.6V75.8z M258.8,92.8h9.4c4.7,0,7.6-1.7,7.6-5.6s-2.9-5.6-7.6-5.6h-9.4V92.8z M258.8,112.2h9.4      c5.5,0,8.9-2.2,8.9-6.9s-3.4-6.9-8.9-6.9h-9.4V112.2z"></path>
                <path class="bg" id="bg_13_" d="M247.4,71.8h16.3c8.3,0,13.3,4,13.3,10.2c0,4.6-3.1,7.6-6.5,9.1c4.6,1.7,8.2,4.7,8.2,10.3      c0,7.8-6.8,12.5-14.8,12.5h-16.6V71.8z M253.8,88.8h9.4c4.7,0,7.6-1.7,7.6-5.6s-2.9-5.6-7.6-5.6h-9.4V88.8z M253.8,108.2h9.4      c5.5,0,8.9-2.2,8.9-6.9s-3.4-6.9-8.9-6.9h-9.4V108.2z"></path>
                <path class="stroke" id="stroke_7_" d="M263.9,114.8h-17.6v-44h17.3c8.8,0,14.3,4.3,14.3,11.2c0,3.7-2,7.1-5.2,9      c4.6,2.3,6.9,5.7,6.9,10.3C279.7,109.2,273.1,114.8,263.9,114.8z M248.4,112.8h15.6c9.5,0,13.8-6,13.8-11.5c0-4.4-2.4-7.4-7.6-9.3      l-2.3-0.9l2.3-1c1.8-0.7,5.9-3,5.9-8.1c0-5.7-4.7-9.2-12.3-9.2h-15.3V112.8z M263.3,109.2h-10.4V93.4h10.4c6.4,0,9.9,2.8,9.9,7.9      S269.6,109.2,263.3,109.2z M254.8,107.2h8.4c5.2,0,7.9-2,7.9-5.9s-2.7-5.9-7.9-5.9h-8.4V107.2z M263.2,89.8h-10.4V76.5h10.4      c7.5,0,8.6,4.2,8.6,6.6S270.7,89.8,263.2,89.8L263.2,89.8z M254.8,87.8h8.4c6.6,0,6.6-3.5,6.6-4.6s0-4.6-6.6-4.6h-8.4V87.8z"></path>
              </g>
              <g class="yd-txt__e">
                <path class="shadow" d="M290.7,75.8h27.6v5.8h-21.1v11.6h19.4V99h-19.4v13.1h21.3v5.8h-27.8V75.8z"></path>
                <path class="bg" id="bg_12_" d="M285.7,71.8h27.6v5.8h-21.1v11.6h19.4V95h-19.4v13.1h21.3v5.8h-27.8V71.8z"></path>
                <path class="stroke" id="stroke_8_" d="M314.5,114.8h-29.8v-44h29.6v7.8h-21.1v9.6h19.4V96h-19.4v11.1h21.3V114.8z M286.7,112.8      h25.8v-3.8h-21.3V94h19.4v-3.8h-19.5V76.6h21.1v-3.8h-25.6L286.7,112.8z"></path>
              </g>
              <g class="yd-txt__e">
                <path class="shadow" d="M326,75.8h27.6v5.8h-21.1v11.6H352V99h-19.4v13.1h21.3v5.8H326V75.8z"></path>
                <path class="bg" id="bg_11_" d="M321,71.8h27.6v5.8h-21.1v11.6H347V95h-19.4v13.1h21.3v5.8H321V71.8z"></path>
                <path class="stroke" id="stroke" d="M349.8,114.8H320v-44h29.6v7.8h-21.1v9.6H348V96h-19.4v11.1h21.3L349.8,114.8z M322,112.8h25.8      v-3.8h-21.3V94H346v-3.8h-19.4V76.6h21.1v-3.8H322L322,112.8z"></path>
              </g>
            </g>
            <g class="yd-flickr__txt yd-txt__time">
              <g class="yd-txt__t">
                <path class="shadow" d="M375.2,75.8h32.4v5.9h-13v36.1h-6.5V81.7h-13L375.2,75.8z"></path>
                <path class="bg" id="bg_10_" d="M370.2,71.8h32.4v5.9h-13v36.1h-6.5V77.7h-13L370.2,71.8z"></path>
                <path class="stroke" id="stroke_9_" d="M390.6,114.8h-8.5V78.7h-13v-7.9h34.4v7.9h-13L390.6,114.8z M384.1,112.8h4.5V76.7h13v-3.9      h-30.4v3.9h13L384.1,112.8z"></path>
              </g>
              <g class="yd-txt__i">
                <path class="shadow" d="M413.5,75.8h6.5v42h-6.5V75.8z"></path>
                <path class="bg" id="bg_9_" d="M408.5,71.8h6.5v42h-6.5V71.8z"></path>
                <path class="stroke" id="stroke_10_" d="M416,114.8h-8.5v-44h8.5L416,114.8z M409.5,112.8h4.5v-40h-4.5V112.8z"></path>
              </g>
              <g class="yd-txt__m">
                <path class="shadow" d="M429.1,75.8h6.9l14.2,35.6l14.2-35.6h6.9v42h-6.2V88.7c-0.4,1.1-2.2,5.9-2.2,5.9l-9.6,23.2h-6.2      l-9.6-23.2c0,0-1.8-4.9-2.2-5.9v29.1h-6.2L429.1,75.8z"></path>
                <path class="bg" id="bg_8_" d="M424.1,71.8h6.9l14.2,35.6l14.2-35.6h6.9v42h-6.2V84.7c-0.4,1.1-2.2,5.9-2.2,5.9l-9.6,23.2h-6.2      l-9.6-23.2c0,0-1.8-4.9-2.2-5.9v29.1h-6.2L424.1,71.8z"></path>
                <path class="stroke" id="stroke_11_" d="M467.4,114.8h-8.2V90.4l-0.2,0.6l-9.9,23.8h-7.6l-9.9-23.8l-0.2-0.6v24.4h-8.2v-44h8.6      l13.5,33.9l13.6-33.9h8.6L467.4,114.8z M461.1,112.8h4.2v-40h-5.2l-14.9,37.3l-14.9-37.3h-5.2v40h4.2V78.6l2,5.9      c0.3,1,2.1,5.9,2.2,5.9l9.3,22.5h4.9l9.3-22.5c0,0,1.8-4.8,2.1-5.9l2-5.9L461.1,112.8z"></path>
              </g>
              <g class="yd-txt__e">
                <path class="shadow" d="M480.5,75.8h27.6v5.8H487v11.6h19.4V99H487v13.1h21.3v5.8h-27.8V75.8z"></path>
                <path class="bg" id="bg_7_" d="M475.5,71.8h27.6v5.8H482v11.6h19.4V95H482v13.1h21.3v5.8h-27.8V71.8z"></path>
                <path class="stroke" id="stroke_12_" d="M504.3,114.8h-29.8v-44h29.6v7.8H483v9.6h19.4V96H483v11.1h21.3V114.8z M476.5,112.8h25.8      v-3.8H481V94h19.4v-3.8H481V76.6h21.1v-3.8h-25.6V112.8z"></path>
              </g>
            </g>
            <g class="yd-flickr__txt yd-txt__machine">
              <g class="yd-txt__m">
                <path class="shadow" d="M515.8,75.8h6.9l14.2,35.6l14.2-35.6h6.9v42h-6.2V88.7c-0.4,1.1-2.2,5.9-2.2,5.9l-9.6,23.2h-6.2      l-9.6-23.2c0,0-1.8-4.9-2.2-5.9v29.1h-6.2L515.8,75.8z"></path>
                <path class="bg" id="bg_6_" d="M510.8,71.8h6.9l14.2,35.6l14.2-35.6h6.9v42h-6.2V84.7c-0.4,1.1-2.2,5.9-2.2,5.9l-9.6,23.2h-6.2      l-9.6-23.2c0,0-1.8-4.9-2.2-5.9v29.1h-6.2L510.8,71.8z"></path>
                <path class="stroke" id="stroke_13_" d="M554,114.8h-8.2V90.4l-0.2,0.6l-9.9,23.8h-7.6l-9.9-23.8l-0.2-0.6v24.4h-8.2v-44h8.6      l13.5,33.9l13.6-33.9h8.6L554,114.8z M547.8,112.8h4.2v-40h-5.2l-14.9,37.3L517,72.8h-5.2v40h4.2V78.6l2,5.9      c0.3,1,2.1,5.9,2.2,5.9l9.3,22.5h4.9l9.3-22.5c0,0,1.8-4.8,2.1-5.9l2-5.9L547.8,112.8z"></path>
              </g>
              <g class="yd-txt__a">
                <path class="shadow" d="M579.1,75.8h6.5l16.8,42h-6.8l-4.5-11.7h-17.4l-4.5,11.7h-6.8L579.1,75.8z M580.9,87.2l-5.1,13.3h13.1      l-5.1-13.3c-0.8-2.2-1.4-4-1.4-4S581.7,85.1,580.9,87.2z"></path>
                <path class="bg" id="bg_5_" d="M574.1,71.8h6.5l16.8,42h-6.8l-4.5-11.7h-17.4l-4.5,11.7h-6.8L574.1,71.8z M575.9,83.2l-5.1,13.3      h13.1l-5.1-13.3c-0.8-2.2-1.4-4-1.4-4S576.7,81.1,575.9,83.2z"></path>
                <path class="stroke" id="stroke_14_" d="M598.8,114.8h-9l-4.5-11.7h-16l-4.5,11.7h-9l17.6-44h7.8L598.8,114.8z M591.2,112.8h4.7      l-16-40h-5.1l-16,40h4.7l4.5-11.7h18.8L591.2,112.8z M585.3,97.5h-16l5.6-14.7c0.8-2.1,1.4-4,1.4-4l1-3l1,3c0,0,0.6,1.9,1.4,4      L585.3,97.5z M572.2,95.5h10.2l-4.6-11.9c-0.2-0.5-0.3-0.9-0.5-1.3c-0.2,0.4-0.3,0.9-0.5,1.3L572.2,95.5z"></path>
              </g>
              <g class="yd-txt__c">
                <path class="shadow" d="M642.4,107.6c-4.4,7.1-9.3,11-18.4,11c-11.9,0-20.8-9-20.8-21.8S612.7,75,624.4,75      c8.6,0,15.1,4.5,17.9,10.9l-5.2,3.7c-3-5.8-7.1-8.7-12.9-8.7c-7.9,0-14.4,6.7-14.4,16s6.1,16,14.3,16c5.6,0,10.1-2.7,13.3-8.7      L642.4,107.6z"></path>
                <path class="bg" id="bg_4_" d="M637.4,103.6c-4.4,7.1-9.3,11-18.4,11c-11.9,0-20.8-9-20.8-21.8S607.7,71,619.4,71      c8.6,0,15.1,4.5,17.9,10.9l-5.2,3.7c-3-5.8-7.1-8.7-12.9-8.7c-7.9,0-14.4,6.7-14.4,16s6.1,16,14.3,16c5.6,0,10.1-2.7,13.3-8.7      L637.4,103.6z"></path>
                <path class="stroke" id="stroke_15_" d="M619.1,115.7c-12.6,0-21.8-9.6-21.8-22.8c0-13,9.5-22.8,22.1-22.8c8.6,0,15.6,4.3,18.8,11.5      l0.3,0.8l-6.8,4.9l-0.5-1c-2.9-5.6-6.7-8.2-12-8.2c-7.5,0-13.4,6.6-13.4,15c0,8.7,5.6,15,13.3,15c5.4,0,9.5-2.7,12.4-8.2l0.5-1      l6.7,4.7l-0.5,0.8C633.2,112.3,627.7,115.7,619.1,115.7z M619.4,72c-11.5,0-20.1,9-20.1,20.8c0,12.1,8.3,20.8,19.8,20.8      c8.8,0,13.2-3.9,17-9.8l-3.3-2.4c-3.2,5.5-7.8,8.2-13.6,8.2c-8.8,0-15.3-7.3-15.3-17c0-9.5,6.8-17,15.4-17      c5.7,0,10.1,2.7,13.2,8.2l3.6-2.6C633,75.5,626.8,72,619.4,72z"></path>
              </g>
              <g class="yd-txt__h">
                <path class="shadow" d="M649.1,75.8h6.5v17.6h19.6V75.8h6.5v42h-6.5V99.4h-19.6v18.5h-6.5L649.1,75.8z"></path>
                <path class="bg" id="bg_3_" d="M644.1,71.8h6.5v17.6h19.6V71.8h6.5v42h-6.5V95.4h-19.6v18.5h-6.5V71.8z"></path>
                <path class="stroke" id="stroke_16_" d="M677.7,114.8h-8.5V96.4h-17.6v18.5h-8.5v-44h8.5v17.6h17.6V70.8h8.5V114.8z M671.2,112.8      h4.5v-40h-4.5v17.6h-21.6V72.8h-4.5v40h4.5V94.4h21.6L671.2,112.8z"></path>
              </g>
              <g class="yd-txt__i">
                <path class="shadow" d="M690.8,75.8h6.5v42h-6.5V75.8z"></path>
                <path class="bg" id="bg_2_" d="M685.8,71.8h6.5v42h-6.5V71.8z"></path>
                <path class="stroke" id="stroke_17_" d="M693.3,114.8h-8.5v-44h8.5V114.8z M686.8,112.8h4.5v-40h-4.5V112.8z"></path>
              </g>
              <g class="yd-txt__n">
                <path class="shadow" d="M706.4,75.8h6.6l18.8,29.3c0.7,1,1.3,2.1,1.8,3.2V75.8h6.2v42h-6.6l-18.8-29.3c-0.7-1-1.3-2.1-1.8-3.2      v32.5h-6.2V75.8z"></path>
                <path class="bg" id="bg_1_" d="M701.4,71.8h6.6l18.8,29.3c0.7,1,1.3,2.1,1.8,3.2V71.8h6.2v42h-6.6l-18.8-29.3      c-0.7-1-1.3-2.1-1.8-3.2v32.5h-6.2V71.8z"></path>
                <path class="stroke" id="stroke_18_" d="M735.8,114.8h-8.2l-19.1-29.7v29.7h-8.2v-44h8.1l19.1,29.7V70.8h8.2L735.8,114.8z      M728.8,112.8h5.1v-40h-4.2v36.6l-1.9-4.8c-0.5-1-1.1-2-1.7-3l-18.5-28.8h-5.1v40h4.2V76.2l1.9,4.8c0.5,1,1.1,2,1.7,3L728.8,112.8      z"></path>
              </g>
              <g class="yd-txt__e">
                <path class="shadow" d="M749,75.8h27.6v5.8h-21.1v11.6h19.4V99h-19.4v13.1h21.3v5.8H749V75.8z"></path>
                <path class="bg" id="bg" d="M744,71.8h27.6v5.8h-21.1v11.6h19.4V95h-19.4v13.1h21.3v5.8H744V71.8z"></path>
                <path class="stroke" id="stroke_19_" d="M772.8,114.8H743v-44h29.6v7.8h-21.1v9.6h19.4V96h-19.4v11.1h21.3V114.8z M745,112.8h25.8      v-3.8h-21.3V94h19.4v-3.8h-19.4V76.6h21.1v-3.8H745V112.8z"></path>
              </g>
            </g>
          </svg>