<?xml version="1.0" encoding="UTF-8"?>
<svg width="18px" height="27px" viewBox="0 0 18 27" version="1.1" xmlns="http://www.w3.org/2000/svg" xmlns:xlink="http://www.w3.org/1999/xlink">
    <!-- Generator: Sketch 43.2 (39069) - http://www.bohemiancoding.com/sketch -->
    <title></title>
    <desc>Created with Sketch.</desc>
    <defs></defs>
    <g id="Page-1" stroke="none" stroke-width="1" fill="none" fill-rule="evenodd">
        <g id="512" transform="translate(-185.000000, -285.000000)" fill="#000000">
            <path d="M197.321429,292.928571 C197.321429,293.073661 197.268416,293.199218 197.162388,293.305246 C197.056361,293.411273 196.930804,293.464286 196.785714,293.464286 C196.640624,293.464286 196.515067,293.411273 196.40904,293.305246 C196.303013,293.199218 196.25,293.073661 196.25,292.928571 C196.25,292.415176 195.948664,292.018975 195.345982,291.739955 C194.743301,291.460936 194.151789,291.321429 193.571429,291.321429 C193.426339,291.321429 193.300782,291.268416 193.194754,291.162388 C193.088727,291.056361 193.035714,290.930804 193.035714,290.785714 C193.035714,290.640624 193.088727,290.515067 193.194754,290.40904 C193.300782,290.303013 193.426339,290.25 193.571429,290.25 C194.129467,290.25 194.684707,290.339285 195.237165,290.517857 C195.789623,290.696429 196.27511,290.997766 196.693638,291.421875 C197.112167,291.845984 197.321429,292.348211 197.321429,292.928571 Z M200,292.928571 C200,292.124996 199.80748,291.377236 199.422433,290.685268 C199.037386,289.9933 198.535159,289.4269 197.915737,288.986049 C197.296314,288.545199 196.609937,288.19922 195.856585,287.948103 C195.103233,287.696985 194.341522,287.571429 193.571429,287.571429 C192.801335,287.571429 192.039624,287.696985 191.286272,287.948103 C190.53292,288.19922 189.846543,288.545199 189.227121,288.986049 C188.607698,289.4269 188.105471,289.9933 187.720424,290.685268 C187.335378,291.377236 187.142857,292.124996 187.142857,292.928571 C187.142857,294.055809 187.522318,295.060263 188.28125,295.941964 C188.392858,296.064733 188.563057,296.248883 188.791853,296.49442 C189.020648,296.739957 189.190848,296.924107 189.302455,297.046875 C190.731034,298.754473 191.517856,300.417403 191.662946,302.035714 L195.479911,302.035714 C195.625001,300.417403 196.411823,298.754473 197.840402,297.046875 C197.952009,296.924107 198.122209,296.739957 198.351004,296.49442 C198.5798,296.248883 198.749999,296.064733 198.861607,295.941964 C199.62054,295.060263 200,294.055809 200,292.928571 Z M202.142857,292.928571 C202.142857,294.658491 201.568086,296.154012 200.418527,297.415179 C199.916292,297.962056 199.50056,298.447543 199.171317,298.871652 C198.842074,299.295761 198.510046,299.82868 198.175223,300.470424 C197.8404,301.112168 197.65067,301.712051 197.606027,302.270089 C198.130583,302.582591 198.392857,303.040176 198.392857,303.642857 C198.392857,304.055806 198.25335,304.412945 197.97433,304.714286 C198.25335,305.015627 198.392857,305.372766 198.392857,305.785714 C198.392857,306.366074 198.141744,306.818079 197.639509,307.141741 C197.784599,307.398439 197.857143,307.660713 197.857143,307.928571 C197.857143,308.441967 197.681363,308.838168 197.329799,309.117188 C196.978235,309.396207 196.545761,309.535714 196.032366,309.535714 C195.809151,310.026788 195.474333,310.417409 195.027902,310.707589 C194.581471,310.997769 194.095985,311.142857 193.571429,311.142857 C193.046872,311.142857 192.561386,310.997769 192.114955,310.707589 C191.668525,310.417409 191.333706,310.026788 191.110491,309.535714 C190.597096,309.535714 190.164622,309.396207 189.813058,309.117188 C189.461494,308.838168 189.285714,308.441967 189.285714,307.928571 C189.285714,307.660713 189.358258,307.398439 189.503348,307.141741 C189.001114,306.818079 188.75,306.366074 188.75,305.785714 C188.75,305.372766 188.889508,305.015627 189.168527,304.714286 C188.889508,304.412945 188.75,304.055806 188.75,303.642857 C188.75,303.040176 189.012274,302.582591 189.53683,302.270089 C189.492187,301.712051 189.302457,301.112168 188.967634,300.470424 C188.632811,299.82868 188.300783,299.295761 187.97154,298.871652 C187.642297,298.447543 187.226565,297.962056 186.72433,297.415179 C185.574771,296.154012 185,294.658491 185,292.928571 C185,291.823655 185.248323,290.79409 185.744978,289.839844 C186.241632,288.885598 186.894527,288.093195 187.703683,287.462612 C188.512839,286.832028 189.428008,286.335381 190.449219,285.972656 C191.470429,285.609931 192.511155,285.428571 193.571429,285.428571 C194.631702,285.428571 195.672428,285.609931 196.693638,285.972656 C197.714849,286.335381 198.630018,286.832028 199.439174,287.462612 C200.24833,288.093195 200.901225,288.885598 201.397879,289.839844 C201.894534,290.79409 202.142857,291.823655 202.142857,292.928571 Z" id=""></path>
        </g>
    </g>
</svg>