<svg xmlns="http://www.w3.org/2000/svg" viewBox="0 0 40.19 33.12"><defs><style>.cls-1{fill:#ffc9cd;}.cls-2,.cls-3{fill:#120d2f;}.cls-2{fill-rule:evenodd;}.cls-4{fill:#c9d9f2;}</style></defs><title>Asset 4texture</title><g id="Layer_2" data-name="Layer 2"><g id="Layer_1-2" data-name="Layer 1"><rect class="cls-1" x="21.1" width="19.09" height="19.09" rx="1.05"/><polygon class="cls-2" points="18.1 26.24 18.15 24.74 15.82 24.74 15.24 26.24 18.1 26.24"/><rect class="cls-3" x="20.23" y="24.74" width="2.67" height="1.5"/><path class="cls-2" d="M28,26.2l-.92-1.46H24.74l.41,1.5C26.1,26.24,27.06,26.24,28,26.2Z"/><polygon class="cls-2" points="10.34 17.86 11.84 17.86 11.84 15.21 10.34 15.17 10.34 17.86"/><path class="cls-2" d="M10.37,22.94l1.47-.87V19.74l-1.5.36C10.34,21.05,10.33,22,10.37,22.94Z"/><path class="cls-2" d="M13,26.18l1-1.44a3.43,3.43,0,0,1-1.15-.09,1.46,1.46,0,0,1-.83-.77l-1.35,1.2a1.93,1.93,0,0,0,1,.93A4.43,4.43,0,0,0,13,26.18Z"/><polygon class="cls-2" points="15.84 7.37 16.32 8.87 18.68 8.87 18.68 7.37 15.84 7.37"/><path class="cls-2" d="M11,8,12.26,9.3c.58-.62,1.47-.39,2.21-.43L13.6,7.4l-1.38.06A1.87,1.87,0,0,0,11,8Z"/><path class="cls-2" d="M10.34,12.87l1.5.47V11l-1.45-1C10.35,11,10.33,11.91,10.34,12.87Z"/><path class="cls-2" d="M30.53,8.26,29.21,9.5a1.61,1.61,0,0,1,.26,1.11v1.16L31,11,30.9,9.57A2.13,2.13,0,0,0,30.53,8.26Z"/><path class="cls-2" d="M25.79,7.37l-.53,1.5h2.32l1-1.43C27.68,7.39,26.74,7.36,25.79,7.37Z"/><polygon class="cls-2" points="20.83 7.37 20.83 8.87 23.43 8.87 23.54 7.37 20.83 7.37"/><path class="cls-2" d="M30.93,23.25l-1.46-.92c0,.39,0,.77,0,1.16a1.49,1.49,0,0,1-.59,1l1.25,1.31a2,2,0,0,0,.73-1.15C30.91,24.16,30.9,23.71,30.93,23.25Z"/><polygon class="cls-2" points="30.97 18.15 29.47 18.15 29.47 20.48 30.97 21.01 30.97 18.15"/><polygon class="cls-2" points="30.97 13.24 29.47 13.64 29.47 16.05 30.97 16.05 30.97 13.24"/><path class="cls-4" d="M.49,18.47H20.88a.49.49,0,0,1,.4.78L11.14,32.92a.5.5,0,0,1-.79,0L.1,19.25A.49.49,0,0,1,.49,18.47Z"/></g></g></svg>