<svg xmlns="http://www.w3.org/2000/svg" viewBox="0 0 44.66 37.45"><defs><style>.cls-1{fill:#c9d9f2;}.cls-2{fill:#2505fe;}.cls-3{fill:none;}.cls-4,.cls-5{fill:#231f20;}.cls-5,.cls-7{fill-rule:evenodd;}.cls-6,.cls-7{fill:#120d2f;}</style></defs><title>Asset 7texture</title><g id="Layer_2" data-name="Layer 2"><g id="Layer_1-2" data-name="Layer 1"><rect class="cls-1" x="1.99" y="2.26" width="19.38" height="19.38" rx="0.81"/><path class="cls-2" d="M35.84,28.23V15.87a.26.26,0,0,1,.42-.21l8.29,6.15a.26.26,0,0,1,0,.42l-8.29,6.21A.26.26,0,0,1,35.84,28.23Z"/><path class="cls-3" d="M24.67,22.45H17.11v15H29a15,15,0,0,0,3.12-.22,10.65,10.65,0,0,0,2.52-.93Z"/><rect class="cls-4" x="18.06" y="28.98" width="2.4" height="1.5"/><polygon class="cls-5" points="24.78 30.48 24.76 28.98 22.37 28.98 22.37 30.48 24.78 30.48"/><path class="cls-5" d="M29.36,30.44,28.5,29H26.41l.4,1.5C27.66,30.48,28.52,30.48,29.36,30.44Z"/><path class="cls-3" d="M17.11,22.45H15L.07,28.92a10,10,0,0,0,.74,2.74A9.52,9.52,0,0,0,2.17,33.9a9.76,9.76,0,0,0,2.07,1.9,9.89,9.89,0,0,0,2.33,1.14,9.62,9.62,0,0,0,2.94.5h7.6Z"/><path class="cls-5" d="M7.46,29.35l1.32-1.21a3.51,3.51,0,0,1-.31-2L7,26.94A4.35,4.35,0,0,0,7.46,29.35Z"/><path class="cls-5" d="M11.61,30.48l.63-1.5c-.69,0-1.39,0-2.09,0l-1,1.41C9.92,30.44,10.76,30.46,11.61,30.48Z"/><polygon class="cls-5" points="16.13 30.48 16.13 28.98 13.89 28.98 13.64 30.48 16.13 30.48"/><path class="cls-3" d="M15,22.45V15L0,10.52v15.2c0,1.07,0,2.17.06,3.2Z"/><polygon class="cls-5" points="6.97 16.12 8.47 16.12 8.47 13.88 6.97 13.63 6.97 16.12"/><rect class="cls-4" x="6.97" y="18.03" width="1.5" height="2.4"/><polygon class="cls-5" points="6.97 24.88 8.47 24.43 8.47 22.32 6.97 22.32 6.97 24.88"/><path class="cls-3" d="M15,15h1.1V0H10.72A15,15,0,0,0,7.6.22a10.57,10.57,0,0,0-2.53.93A9.87,9.87,0,0,0,2.89,2.76,9.41,9.41,0,0,0,1.23,4.94a9.86,9.86,0,0,0-1,2.49A11.88,11.88,0,0,0,0,10.52Z"/><polygon class="cls-5" points="12.58 6.97 13.03 8.47 15.14 8.47 15.14 6.97 12.58 6.97"/><path class="cls-5" d="M8.14,7.44l1.2,1.32a3.69,3.69,0,0,1,2-.29L10.55,7A4.43,4.43,0,0,0,8.14,7.44Z"/><path class="cls-5" d="M7,11.56l1.49.64c0-.7,0-1.4,0-2.09L7.08,9.05C7,9.87,7,10.7,7,11.56Z"/><path class="cls-3" d="M16.1,15h8.57L33.1.51A9.62,9.62,0,0,0,30.16,0H16.1Z"/><polygon class="cls-5" points="25.75 6.97 25.55 8.47 27.64 8.47 28.32 6.98 25.75 6.97"/><rect class="cls-4" x="21.37" y="6.97" width="2.4" height="1.5"/><rect class="cls-4" x="17.08" y="6.97" width="2.4" height="1.5"/><path class="cls-3" d="M24.67,15v3.22h15V11.73c0-1.07,0-2.17-.07-3.2a10,10,0,0,0-.73-2.74,10.25,10.25,0,0,0-1.36-2.24,9.81,9.81,0,0,0-2.08-1.9A9.7,9.7,0,0,0,33.1.51Z"/><polygon class="cls-5" points="32.7 14.85 31.2 14.88 31.2 17.26 32.7 17.26 32.7 14.85"/><path class="cls-5" d="M32.66,10.26l-1.46.87v2.09l1.5-.41C32.7,12,32.7,11.1,32.66,10.26Z"/><path class="cls-5" d="M30.34,7.05l-1,1.42a1.87,1.87,0,0,1,1.69,1l1.35-1.16A2.4,2.4,0,0,0,30.34,7.05Z"/><path class="cls-3" d="M24.67,18.22v4.23L34.6,36.3a9.91,9.91,0,0,0,2.19-1.61,9.7,9.7,0,0,0,1.66-2.18,9.86,9.86,0,0,0,1-2.49,12.81,12.81,0,0,0,.26-3.09V18.22Z"/><path class="cls-5" d="M32.62,28.12l-1.42-1a1.87,1.87,0,0,1-1,1.68l1.16,1.35A2.38,2.38,0,0,0,32.62,28.12Z"/><polygon class="cls-5" points="32.7 23.57 31.2 23.36 31.2 25.45 32.69 26.13 32.7 23.57"/><rect class="cls-4" x="31.2" y="19.2" width="1.5" height="2.4"/><rect class="cls-6" x="18.06" y="28.98" width="2.4" height="1.5"/><polygon class="cls-7" points="24.78 30.48 24.76 28.98 22.37 28.98 22.37 30.48 24.78 30.48"/><path class="cls-7" d="M29.36,30.44,28.5,29H26.41l.4,1.5C27.66,30.48,28.52,30.48,29.36,30.44Z"/><path class="cls-7" d="M7.46,29.35l1.32-1.21a3.51,3.51,0,0,1-.31-2L7,26.94A4.35,4.35,0,0,0,7.46,29.35Z"/><path class="cls-7" d="M11.61,30.48l.63-1.5c-.69,0-1.39,0-2.09,0l-1,1.41C9.92,30.44,10.76,30.46,11.61,30.48Z"/><polygon class="cls-7" points="16.13 30.48 16.13 28.98 13.89 28.98 13.64 30.48 16.13 30.48"/><polygon class="cls-7" points="6.97 16.12 8.47 16.12 8.47 13.88 6.97 13.63 6.97 16.12"/><rect class="cls-6" x="6.97" y="18.03" width="1.5" height="2.4"/><polygon class="cls-7" points="6.97 24.88 8.47 24.43 8.47 22.32 6.97 22.32 6.97 24.88"/><polygon class="cls-7" points="12.58 6.97 13.03 8.47 15.14 8.47 15.14 6.97 12.58 6.97"/><path class="cls-7" d="M8.14,7.44l1.2,1.32a3.69,3.69,0,0,1,2-.29L10.55,7A4.43,4.43,0,0,0,8.14,7.44Z"/><path class="cls-7" d="M7,11.56l1.49.64c0-.7,0-1.4,0-2.09L7.08,9.05C7,9.87,7,10.7,7,11.56Z"/><polygon class="cls-7" points="25.75 6.97 25.55 8.47 27.64 8.47 28.32 6.98 25.75 6.97"/><rect class="cls-6" x="21.37" y="6.97" width="2.4" height="1.5"/><rect class="cls-6" x="17.08" y="6.97" width="2.4" height="1.5"/><polygon class="cls-7" points="32.7 14.85 31.2 14.88 31.2 17.26 32.7 17.26 32.7 14.85"/><path class="cls-7" d="M32.66,10.26l-1.46.87v2.09l1.5-.41C32.7,12,32.7,11.1,32.66,10.26Z"/><path class="cls-7" d="M30.34,7.05l-1,1.42a1.87,1.87,0,0,1,1.69,1l1.35-1.16A2.4,2.4,0,0,0,30.34,7.05Z"/><path class="cls-7" d="M32.62,28.12l-1.42-1a1.87,1.87,0,0,1-1,1.68l1.16,1.35A2.38,2.38,0,0,0,32.62,28.12Z"/><polygon class="cls-7" points="32.7 23.57 31.2 23.36 31.2 25.45 32.69 26.13 32.7 23.57"/><rect class="cls-6" x="31.2" y="19.2" width="1.5" height="2.4"/></g></g></svg>