<svg xmlns="http://www.w3.org/2000/svg" viewBox="0 0 37.74 30.79"><defs><style>.cls-1{fill:none;}.cls-2{fill:#ffc9cd;}.cls-3,.cls-4{fill:#120d2f;}.cls-3{fill-rule:evenodd;}.cls-5{fill:#c9d9f2;}.cls-6{fill:#2505fe;}</style></defs><title>Asset 5texture</title><g id="Layer_2" data-name="Layer 2"><g id="Layer_1-2" data-name="Layer 1"><line class="cls-1" y1="23.76" x2="14.23" y2="23.76"/><rect class="cls-2" x="1.79" width="22.89" height="22.89" rx="0.87"/><polygon class="cls-3" points="18.01 27.64 18.01 26.14 15.59 26.14 15.58 27.64 18.01 27.64"/><polygon class="cls-3" points="22.39 27.64 22.33 26.14 19.94 26.14 19.94 27.64 22.39 27.64"/><path class="cls-3" d="M27,27.6l-.91-1.46H24l.45,1.5C25.31,27.65,26.18,27.64,27,27.6Z"/><polygon class="cls-3" points="7.63 23.33 9.13 22.64 9.13 20.52 7.63 20.73 7.63 23.33"/><path class="cls-3" d="M9,27.38,10.12,26a1.65,1.65,0,0,1-1-1.7l-1.42,1A2.14,2.14,0,0,0,9,27.38Z"/><path class="cls-3" d="M13.48,27.64l.41-1.5H11.77l-.87,1.47C11.74,27.64,12.61,27.65,13.48,27.64Z"/><path class="cls-3" d="M7.69,9.68l1.44,1a2.49,2.49,0,0,1,.12-1.05,1.57,1.57,0,0,1,.68-.78L8.72,7.51a2,2,0,0,0-.83.94A3.24,3.24,0,0,0,7.69,9.68Z"/><polygon class="cls-3" points="7.63 14.3 9.13 14.46 9.13 12.34 7.63 11.7 7.63 14.3"/><rect class="cls-4" x="7.63" y="16.27" width="1.5" height="2.43"/><polygon class="cls-3" points="19.69 7.12 19.69 8.62 22.11 8.62 22.13 7.12 19.69 7.12"/><polygon class="cls-3" points="15.31 7.12 15.38 8.62 17.76 8.62 17.76 7.12 15.31 7.12"/><path class="cls-3" d="M10.69,7.17l.9,1.45h2.12l-.45-1.5C12.39,7.12,11.53,7.13,10.69,7.17Z"/><polygon class="cls-3" points="30.07 11.44 28.58 12.13 28.58 14.24 30.08 14.03 30.07 11.44"/><path class="cls-3" d="M28.75,7.39,27.58,8.74a1.66,1.66,0,0,1,1,1.71l1.42-1A2.12,2.12,0,0,0,28.75,7.39Z"/><path class="cls-3" d="M24.22,7.12l-.4,1.5h2.11l.87-1.46C26,7.12,25.09,7.12,24.22,7.12Z"/><path class="cls-3" d="M30,25.09l-1.43-1a2.8,2.8,0,0,1-.12,1,1.69,1.69,0,0,1-.68.79L29,27.26a2.19,2.19,0,0,0,.83-1A3.18,3.18,0,0,0,30,25.09Z"/><polygon class="cls-3" points="30.08 20.46 28.58 20.31 28.58 22.42 30.07 23.07 30.08 20.46"/><rect class="cls-4" x="28.58" y="16.07" width="1.5" height="2.43"/><path class="cls-5" d="M16.22,11.24a.24.24,0,0,0-.33.08A12.91,12.91,0,0,0,37.7,25.11a.24.24,0,0,0-.07-.33Z"/><path class="cls-6" d="M24.59,16.54,16.2,11.23a.22.22,0,0,0-.3.07,12.92,12.92,0,0,0-.84,11.46.21.21,0,0,0,.2.13h8.66a.76.76,0,0,0,.77-.76V16.71A.19.19,0,0,0,24.59,16.54Z"/></g></g></svg>