<svg id="Layer_1" data-name="Layer 1" xmlns="http://www.w3.org/2000/svg" viewBox="0 0 1422.8 442.47"><defs><style>.cls-1{fill:#e6e6e6;}.cls-1,.cls-37,.cls-43,.cls-45{fill-rule:evenodd;}.cls-2{fill:#dfe1e8;}.cls-3{fill:#fff;}.cls-4{fill:#d7d9e3;}.cls-5{fill:#f5f6f9;}.cls-6{fill:#e6edf5;}.cls-7{opacity:0.74;}.cls-8{fill:#d7d8e2;}.cls-9{fill:#dfe1e9;}.cls-10{fill:#d7d9e2;}.cls-11{fill:#e0eef1;}.cls-12{fill:#e7e8ee;}.cls-13{opacity:0.4;}.cls-14{opacity:0.8;}.cls-15{fill:#edf2f8;}.cls-16{fill:#fbfcfd;}.cls-17{fill:#f8fafc;}.cls-18{fill:#f3f7fa;}.cls-19{fill:#f5f8fb;}.cls-20{fill:#f7f9fc;}.cls-21{fill:#f9fbfd;}.cls-22{fill:#f1f5fa;}.cls-23{fill:#dee4ea;}.cls-24{fill:#eb6f9b;}.cls-25{fill:#694e97;}.cls-26,.cls-30,.cls-41,.cls-42{fill:#09083a;}.cls-27{fill:#a3add0;}.cls-28{fill:#c9d1f1;}.cls-29{fill:#d982a1;}.cls-30,.cls-36,.cls-42{opacity:0.2;}.cls-30{isolation:isolate;}.cls-31,.cls-46{fill:none;}.cls-31{stroke:#6d0ef0;stroke-miterlimit:10;}.cls-32{fill:#d1d2da;}.cls-33{fill:#ffd209;}.cls-34{fill:#ebecf1;}.cls-35{fill:#694f97;}.cls-38{fill:#dfe0e9;}.cls-39,.cls-45{fill:#bbbdc8;}.cls-40,.cls-43{fill:#c6d4e0;}.cls-41{stroke:#09083a;stroke-linejoin:round;stroke-width:0.5px;}.cls-44{fill:#e0e1e5;}</style></defs><title>home-page-5</title><path class="cls-1" d="M255.54,109.7c.05.44-2.35.33-2.17.8-4.57,0-9.46-.08-14.3,0-2.68,0-5.22.23-7.75.23-3,0-7.38-.17-11.29-.11-.9,0-1.84.12-2.74.13-6.95.11-16.91.08-25.57,0l-2.51,0c-.75,0-1.58-.1-2.27-.1-2.48,0-5.06.12-7.51.1l-8.53-.07c-3.88,0-7.82,0-11.54,0-2,0-3.83-.18-5.78-.2s-3.93,0-5.76,0-3.63-.11-5.54-.14c-11.51-.22-22.73,0-33.58.08-1.91,0-3.87.15-5.75.15a23.11,23.11,0,0,1-4.29-.27c-.34-.37.32-.51.68-.72,5.79-.07,13.12-.14,21.53-.25,2,0,4.19,0,5.51,0a13,13,0,0,0,2.74-.13c2.53.32,6.12.08,9,.12s5.79.21,8.8.25c6.39.08,13.17.17,19.83.18,1.58,0,3.15,0,4.76,0s3.37.14,5,.15c1,0,2-.08,3-.08s1.7.1,2.52.11c2.81,0,5.53-.07,8.26-.05,1.51,0,3,.08,4.52.09s3.11,0,4.53.09c2.82-.24,5.76,0,8.77,0,.72,0,1.25-.12,2-.13,1.2,0,2.52.1,3.78.09,3.05,0,7.9-.27,11.53,0a44,44,0,0,1,6.27.09,39.46,39.46,0,0,1,4.23-.33c1.87,0,3.77.1,5.78.09a33.67,33.67,0,0,1,4.25,0C248.91,109.53,254.12,109.16,255.54,109.7Z" transform="translate(-9.26 -6.89)"/><path class="cls-2" d="M138.81,72.71l8.09-8.35h27.56L172.83,66H157.16l-6.27,6.08" transform="translate(-9.26 -6.89)"/><polygon class="cls-3" points="162.72 63.48 133.04 62.23 126.12 69.37 126.12 102.62 157.01 103.92 157.01 69.37 162.72 63.48"/><polygon class="cls-2" points="162.72 63.48 157.01 69.37 157.01 103.92 170.8 103.4 170.8 63.82 162.72 63.48"/><polygon class="cls-2" points="138.75 82.68 138.75 81.22 143.28 81.49 143.28 82.95 138.75 82.68"/><polygon class="cls-2" points="138.75 93.32 138.75 91.87 143.28 92.14 143.28 93.59 138.75 93.32"/><rect class="cls-2" x="150.7" y="76.95" width="0.31" height="29.98" transform="translate(43.36 231.89) rotate(-87.58)"/><polygon class="cls-2" points="139.64 70.36 139.56 70.36 126.7 69.97 126.7 69.66 139.5 70.05 140.76 68.53 140.83 68.53 156.55 69.2 156.54 69.52 140.9 68.85 139.64 70.36"/><polygon class="cls-2" points="133.79 63.67 129.03 68.47 137.61 68.77 141.61 63.97 133.79 63.67"/><path class="cls-2" d="M124.88,76.27v9.08H122l.23,1.27,2.65.27v22.29l10.48.32V76.27C135.62,76,124.88,76.27,124.88,76.27Z" transform="translate(-9.26 -6.89)"/><path class="cls-2" d="M121.61,108.07a25.36,25.36,0,0,1-2.71-.77h0v-.11l2-19.1-2.66-19.18h-9a34.62,34.62,0,0,0-.27,4.55c.08,1.77,1.15,33.87,1.15,33.87v1.77h12.75A1.47,1.47,0,0,0,121.61,108.07Zm-6.27,0a25.17,25.17,0,0,1-2.66-.77h.66l.58-33.08h.75l2,14.1-.34,19h.08v1.38A1.48,1.48,0,0,0,115.34,108.07Zm3.36-.76" transform="translate(-9.26 -6.89)"/><path class="cls-4" d="M117.52,53.85H121a2.66,2.66,0,0,1,2.66,2.31l.89,7.3,1.87-2,1.33.44-2,4a1.91,1.91,0,0,1-1.71,1.06h0a1.9,1.9,0,0,1-1.87-1.48L120.14,56" transform="translate(-9.26 -6.89)"/><polygon class="cls-2" points="115.98 46.47 112.17 53.41 118.07 56.58 121.88 49.64 115.98 46.47"/><path class="cls-4" d="M127.38,61.9l.76.38a.23.23,0,0,0,.31-.09h0l.88-1.64-1.15-.62a.24.24,0,0,0-.32.1h0l-.56,1.59A.25.25,0,0,0,127.38,61.9Z" transform="translate(-9.26 -6.89)"/><polyline class="cls-4" points="119.53 53.86 120.03 52.93 120.17 53.08 120.08 53.65"/><path class="cls-4" d="M117.71,53.85h-2V52.43a.47.47,0,0,1,.38-.48h.14a.62.62,0,0,0,.52-.63V48.59a1.44,1.44,0,0,0,.78-.59.89.89,0,0,0-.1-1.2,1.37,1.37,0,0,1-.63.43,2.46,2.46,0,0,0-2.75-.62,2.41,2.41,0,0,0-1.27,3.16.33.33,0,0,0,0,.06,5.89,5.89,0,0,1,.42,2h0v2h-4.37a2.66,2.66,0,0,0-2.66,2.51l-.46,9.89a5.88,5.88,0,0,0,.89,3.32l4.6,7.51a5.46,5.46,0,0,0,.2.77c-.18-.11-.39-.17-.49-.07l.88.94h1.61l-1-3-2.13-5.11h4.16l-.1-1.4h2.44l.06,1.47h1.78l.08-.94a1.07,1.07,0,0,0,1.06-1l.88-14.84Z" transform="translate(-9.26 -6.89)"/><rect class="cls-4" x="154.84" y="7.64" width="18.3" height="18.3"/><rect class="cls-5" x="156.11" y="8.9" width="15.78" height="15.78"/><rect class="cls-4" x="176.66" width="33.75" height="15.28"/><rect class="cls-5" x="177.72" y="1.05" width="31.64" height="13.17"/><polygon class="cls-4" points="119.81 32.69 150.83 33.25 150.83 32.09 119.81 31.52 119.81 32.69"/><polygon class="cls-4" points="129.17 31.85 125.5 31.79 125.5 23.29 129.17 23.36 129.17 31.85"/><polygon class="cls-4" points="143.38 30.34 140.36 32.35 135.58 25.23 138.61 23.23 143.38 30.34"/><polygon class="cls-4" points="135.94 31.97 132.28 31.9 132.28 19.91 135.94 19.98 135.94 31.97"/><polygon class="cls-4" points="132.44 31.91 128.77 31.84 128.77 24.83 132.44 24.9 132.44 31.91"/><polygon class="cls-6" points="129.17 30.84 128.85 30.83 128.85 25.37 129.17 25.38 129.17 30.84"/><polygon class="cls-6" points="132.59 30.9 132.28 30.89 132.28 25.44 132.59 25.45 132.59 30.9"/><g class="cls-7"><rect class="cls-8" x="257.95" y="64.6" width="1.91" height="100.32"/><rect class="cls-8" x="307.22" y="64.6" width="1.91" height="100.32"/><rect class="cls-8" x="259.86" y="120.92" width="47.36" height="1.91"/><rect class="cls-8" x="259.86" y="149.1" width="47.36" height="1.91"/><rect class="cls-8" x="259.86" y="92.74" width="47.36" height="1.91"/><rect class="cls-8" x="259.86" y="64.57" width="47.36" height="1.91"/><rect class="cls-8" x="263.56" y="102.74" width="5.5" height="18.19"/><rect class="cls-9" x="285.88" y="107.24" width="5.5" height="13.69"/><rect class="cls-8" x="280.38" y="102.74" width="5.5" height="18.19"/><path class="cls-8" d="M274,84.21V99.64h17.62V84.21Zm11.33,4.37h-5a.66.66,0,1,1,0-1.31h5a.66.66,0,1,1,0,1.31Z" transform="translate(-9.26 -6.89)"/><rect class="cls-8" x="291.38" y="105.5" width="5.5" height="15.42"/><rect class="cls-8" x="262.11" y="130.91" width="5.5" height="18.19"/><rect class="cls-8" x="273.11" y="130.91" width="5.5" height="18.19"/><rect class="cls-9" x="267.61" y="126.21" width="5.5" height="22.89"/><rect class="cls-8" x="298.54" y="82.45" width="5.5" height="18.19" transform="translate(14.25 232.97) rotate(-45)"/><rect class="cls-8" x="280.71" y="74.1" width="4.17" height="20.23" transform="translate(357.75 -205.48) rotate(90)"/><path class="cls-8" d="M294.59,140.57V156H312.2V140.57Zm11.33,4.37h-5.05a.66.66,0,0,1-.65-.66.65.65,0,0,1,.65-.65h5.05a.65.65,0,0,1,.65.65A.66.66,0,0,1,305.92,144.94Z" transform="translate(-9.26 -6.89)"/><rect class="cls-8" x="301.31" y="130.46" width="4.17" height="20.23" transform="translate(434.7 -169.71) rotate(90)"/><rect class="cls-9" x="315.18" y="146.2" width="37.13" height="13.5"/><polygon class="cls-10" points="317.94 164.92 319.53 164.92 320.11 159.71 317.36 159.71 317.94 164.92"/><polygon class="cls-10" points="348.19 164.92 349.78 164.92 350.36 159.71 347.61 159.71 348.19 164.92"/><rect class="cls-9" x="315.18" y="132.7" width="37.13" height="13.5"/><path class="cls-3" d="M343,160.89a1,1,0,1,1,1-1A1,1,0,0,1,343,160.89Z" transform="translate(-9.26 -6.89)"/><path class="cls-3" d="M343,147.39a1,1,0,1,1,1-1A1,1,0,0,1,343,147.39Z" transform="translate(-9.26 -6.89)"/></g><path class="cls-9" d="M342.25,133.44s.32-4.91.9-6.19.88-3-.3-5.75c-1.39-3.25.7-4.46.7-4.46s-.37,1.12,1.13,3.34c1,1.51.83,2.26.7,4.06s.64,3.23.24,5.12-2.69,2.74-2.54,4Z" transform="translate(-9.26 -6.89)"/><path class="cls-9" d="M344,133.41s-.51-7.16-1.35-9.16-2.45-4.61-2.71-6.07.52-3.08-.39-4.83a29.32,29.32,0,0,1-1.48-3.41,26.59,26.59,0,0,1,.65,5c-.07,1.87-.44,4.51.65,6.12s1.09,4.58,1.22,6.19,2.25,5.1,2.38,6.13Z" transform="translate(-9.26 -6.89)"/><path class="cls-9" d="M342.33,133.41s-.64-5.55-1.93-7.22-3.87-2.32-4.26-4.52-3.16-3.49-3.16-3.49a25.17,25.17,0,0,0,2.06,5.75c1.17,1.87,3,2.39,3.69,3.87s.44,2.39,1,3.87a2.54,2.54,0,0,0,1.61,1.74Z" transform="translate(-9.26 -6.89)"/><path class="cls-8" d="M338.86,139.57h6.5a.41.41,0,0,0,.41-.37l.9-7.72a.41.41,0,0,0-.41-.46H338a.41.41,0,0,0-.41.46l.89,7.72A.43.43,0,0,0,338.86,139.57Z" transform="translate(-9.26 -6.89)"/><path class="cls-1" d="M1026.06,111.16c1.42,0,16.9-.18,18.35-.23,8.2-.26,16.69-.52,25.41-.41,1.44,0,2.74.11,4.18.11s2.9-.1,4.36-.09,2.91.15,4.38.17l8.73,0h6.46c1.85,0,3.8-.16,5.68-.16.52,0,1.15.08,1.72.09l1.9,0c6.55,0,14.09-.07,19.35-.25.68,0,1.39-.13,2.07-.16,3-.1,6.26,0,8.55,0,1.91,0,3.83-.26,5.86-.32l5.49-.1,2.7,0a17.59,17.59,0,0,1,2.54.07c0-.24.38-.29.81-.27s.87.11.94-.11a4.57,4.57,0,0,0-3.21-.77c-1.43.06-2.93.22-4,.3a20.78,20.78,0,0,0-3.22.09c-1.52,0-3-.07-4.37,0a21.81,21.81,0,0,0-3.19.37,25.16,25.16,0,0,0-4.75,0c-2.75-.23-6.42.07-8.73.11-1,0-2-.09-2.85-.06-.56,0-1,.14-1.51.15a65.9,65.9,0,0,0-6.63.12,29.92,29.92,0,0,0-3.43-.06l-3.42-.06c-2.07,0-4.13.13-6.25.12-.62,0-1.27-.09-1.91-.09s-1.51.1-2.27.1c-1.25,0-2.57-.11-3.81-.11l-3.6.06c-5,0-10.17,0-15,0-2.29,0-4.47-.17-6.66-.18a51.76,51.76,0,0,1-6.85,0,7.15,7.15,0,0,1-2.07.17l-4.17.08c-6.37.21-25.91.35-30.3.53-.26.22-.75.37-.49.74A13.45,13.45,0,0,0,1026.06,111.16Z" transform="translate(-9.26 -6.89)"/><path class="cls-1" d="M1106.68,252.78c1.41,0,16.9-.19,18.34-.24,8.21-.25,16.7-.52,25.41-.4,1.44,0,2.75.11,4.19.1s2.9-.09,4.36-.08,2.9.15,4.38.16l8.73,0h6.46c1.85,0,3.8-.17,5.68-.16.52,0,1.15.08,1.71.08l1.91,0c6.55,0,14.08-.07,19.34-.24.68,0,1.39-.14,2.08-.16,3-.1,29,0,31.27,0,1.92,0,9.54-.38,11.35-.41l2.7,0a17.81,17.81,0,0,1,2.55.06c0-.24.37-.28.81-.26s.87.1.94-.11a4.54,4.54,0,0,0-3.22-.78c-1.42.06-2.93.23-4,.31a19.46,19.46,0,0,0-3.21.09c-1.53,0-3-.08-4.38,0a23.28,23.28,0,0,0-3.19.37,25.16,25.16,0,0,0-4.75,0c-2.75-.23-29.15.07-31.45.12-1,0-2-.1-2.86-.07-.56,0-1,.14-1.5.15a66.1,66.1,0,0,0-6.64.12,29.78,29.78,0,0,0-3.42,0l-3.42-.06c-2.07,0-4.13.13-6.26.11-.61,0-1.26-.09-1.91-.08s-1.51.09-2.27.1c-1.25,0-2.56-.12-3.8-.12l-3.6.07c-5,.05-10.18,0-15,0-2.28,0-4.46-.16-6.66-.17a55.24,55.24,0,0,1-6.84-.05,7.6,7.6,0,0,1-2.07.16l-4.18.09c-6.36.2-25.91.34-30.29.52-.27.22-.76.38-.49.74A13.38,13.38,0,0,0,1106.68,252.78Z" transform="translate(-9.26 -6.89)"/><path class="cls-1" d="M1302.69,146.5c-2.22-.06-4.93.26-6.85-.05a7.15,7.15,0,0,1-2.07.17l-4.17.08c-6.37.21-25.91.35-30.3.53-.26.22-.75.37-.49.74a13.45,13.45,0,0,0,3.25.19c1.42,0,16.9-.23,18.35-.23,3.59,0,9.59.07,10.59.07s4-.33,4.88-.22a24.59,24.59,0,0,0,4,0c2.17-.11,4.29.1,6.25,0S1307.65,146.64,1302.69,146.5Z" transform="translate(-9.26 -6.89)"/><path class="cls-1" d="M1432,360.32c-1.83-1.95-5-4.8-7.2-6.74-3.23-2.85-6.69-5.76-10-8.65q-17.2-15.1-35.06-30.85a9.17,9.17,0,0,0,2.66-.23c-.85,0-1.88-.08-3-.11q-11.09-9.83-22.34-19.94c-3.24-2.93-6.14-5.64-9.41-8.54s-6.63-5.8-9.93-8.76-6.47-6-9.81-9c-6.36-5.71-13.14-11.69-19.8-17.63l-14.61-13.06c-1.51-1.34-3.06-2.7-4.63-4.06,25.58,0,50.87.05,75.06,0-1.53-.47,19-.35,18.51-.79-12-.55-56.4-.18-81.19-.06-4.35-.07-8.82-.08-13.4-.07-2.46-2.14-4.94-4.28-7.33-6.42-1.18-1.06-2.55-2.39-3.83-3.54-1.45-1.31-3-2.69-4.29-3.86-14.85-13.23-31.94-28.43-44-39-1.56-1.36-3.25-2.71-4.81-4.08l-3.51-3.1c8.89,0,17.35,0,24.31-.07,1.8,0,3.67-.13,5.48-.14,7.81-.06,16.53.11,22.57.11,5,0,10.11-.2,15.48-.23,9.66,0,19.45,0,28.57,0-.36-.47,4.45-.35,4.34-.79-2.83-.55-13.24-.18-19-.07-2.67-.16-5.53,0-8.51,0-4,0-7.81-.13-11.54-.09-3.31,0-6.23.18-8.45.33-3.46-.18-9.37-.21-12.55-.08-7.25-.27-17,0-23,0-2.53,0-5.16-.12-7.55-.1-1.47,0-2.53.13-4,.13-2.42,0-4.8,0-7.17,0-5.36-4.78-10.71-9.66-14.74-13.23-4.35-3.86-8.84-7.57-13.47-11.64-8.33-7.34-16.7-14.87-24.54-21.82,0,.63-4.07-3.13-4.27-2.72,2.07,2.57,11.27,10.23,16.35,14.58,2.18,2.16,4.76,4.21,7.33,6.47,3.47,3.05,6.63,6.05,9.87,8.87,2.88,2.5,5.47,4.61,7.49,6.2,2.85,2.77,7.91,7.3,10.73,9.63,1.23,1.17,2.57,2.39,4,3.65-3.08,0-6.1,0-9.07.1-2.83-.14-6-.08-9-.09s-6-.08-9.05-.09c-5.45,0-10.9.09-16.52,0-1.62,0-3.33-.1-5-.11-1.94,0-4,.09-6,.08-3.3,0-6.78-.14-10-.15s-6.34,0-9.51,0c-13.3,0-26.87-.1-39.62-.18-6,0-11.79-.21-17.59-.25s-13,.21-18.07-.12a49.09,49.09,0,0,1-5.48.13c-2.63,0-7,0-11,0l-16.92.11c-.59-.63-1.16-1.24-1.71-1.81-3.74-3.92-7.63-7.7-11.62-11.84-7.18-7.46-14.36-15.1-21.11-22.16-.08.6-3.55-3.21-3.79-2.82,1.69,2.57,9.67,10.38,14.05,14.81,1.86,2.18,4.1,4.27,6.32,6.57,3,3.11,5.68,6.14,8.48,9,2.47,2.54,4.73,4.7,6.48,6.32l1.71,1.92-24.92.14c-.72.21-2,.35-1.35.72,2.32.25,6,.28,8.57.28,3.75,0,7.68-.14,11.49-.16l7.07,0c2.28,2.47,4.93,5.24,6.66,6.92,5.17,5.8,12.53,13.14,17.05,17.85,1.88,1.95,3.73,4.07,5.51,5.91,1.1,1.13,2,1.87,3,3,4.46,4.64,8.65,9.33,13,13.54,2,2.3,4.39,4.72,6.62,7.07,2,2.11,3.92,4.19,5.88,6.28-23.09,0-46.9.11-64,.13-10.75,0-22-.12-32.13-.1-6.29,0-10.78.13-16.93.13-13.39,0-26.62,0-39.64-.05-5.53-9.43-11.07-18.81-15.39-26-.82-1.36-1.75-2.72-2.57-4.08-3.53-5.88-7.28-12.58-10-17.14-2.25-3.83-4.69-7.56-7.1-11.61-4.35-7.29-8.64-14.74-12.72-21.64-.24.51-2.29-3.2-2.62-2.89.79,2.42,5.76,10.11,8.45,14.46,1,2.1,2.48,4.18,3.82,6.43,1.8,3,3.37,6,5.07,8.78,1.51,2.48,2.93,4.62,4,6.23,1.39,2.7,4,7.19,5.53,9.54,3,5.62,7.55,12.84,10.29,17.44,1.13,1.9,2.2,4,3.28,5.76.67,1.11,1.24,1.85,1.88,2.94,2.39,4,4.59,8,7,11.77-11.51,0-22.85,0-34,.12-12.08-.15-25.63-.09-38.5-.1-13.06,0-25.65-.08-38.52-.09-23.25,0-46.45.09-70.38.05-5.77,0-11.79-.07-17.84-.09-.24-8.64-.5-17.21-.77-23.84-.06-1.27-.2-2.59-.25-3.86-.23-5.51-.23-11.67-.36-15.93-.11-3.56-.41-7.13-.55-10.91-.24-6.82-.36-13.73-.56-20.16-.46.27-.44-3.13-.88-3-.49,2,.1,9.34.33,13.44-.11,1.89.13,3.9.2,6,.11,2.83,0,5.51.16,8.14.1,2.34.31,4.39.5,5.95a86.08,86.08,0,0,0,.18,8.86c-.12,5.12.34,12,.49,16.26.06,1.78,0,3.63.06,5.32,0,1,.18,1.78.21,2.8.12,3.74.09,7.41.33,10.95h-2.7c-8.26,0-17,.08-25.54.07-14.07,0-28.88-.13-42.84-.15-13.65,0-27,0-40.52,0-41.39,0-83.37-.05-124.18-.11l.29-.52c1.68-3.12,3.3-6.48,5-9.65.47-.87,1.12-1.9,1.64-2.84l1.75-3.19c5.94-11,12.75-23.75,17.39-32.68.6-1.16,1.14-2.41,1.75-3.57,2.61-5,5.73-10.52,7.79-14.37,1.72-3.23,3.27-6.56,5.08-10,3.25-6.19,6.66-12.41,9.77-18.24-.54,0,1.2-3,.78-3.15-1.45,1.55-4.67,8.38-6.55,12.15-1.06,1.63-1.88,3.54-2.88,5.45-1.36,2.58-2.78,4.93-4,7.34-1.1,2.13-2,4.06-2.6,5.55-1.33,2.13-3.37,5.89-4.35,8-2.7,4.51-5.78,10.83-7.84,14.74-.85,1.61-1.86,3.24-2.66,4.77-.49.95-.75,1.68-1.24,2.6-2,3.85-4.21,7.51-5.93,11.23-1.09,1.75-2.12,3.81-3.16,5.74s-2.12,3.81-3.16,5.73c-1.88,3.48-3.64,7-5.59,10.58-.56,1-1.23,2.09-1.81,3.17l-.6,1.19-43.5-.07c-25.69,0-50.23-.21-74.93-.24-10.86,0-22.79,0-34.57,0l1-1.4c2.76-3.76,5.54-7.83,8.36-11.65.78-1.06,1.79-2.3,2.64-3.44,1-1.3,2-2.67,2.86-3.85,9.78-13.33,21-28.68,28.73-39.47l0,0c7.07,0,14,.11,19.33.11,6.36,0,12.71-.2,19.45-.23,12.14,0,24.44,0,35.89,0-.45-.47,5.6-.35,5.46-.79-3.55-.55-16.63-.18-23.94-.07-3.35-.16-6.94,0-10.69,0-5,0-9.8-.13-14.5-.09-4.15,0-7.82.18-10.61.33-4.34-.18-11.76-.21-15.76-.08-1.3,0-2.66-.07-4.05-.09.79-1.15,1.58-2.33,2.38-3.45,4.35-6.07,9.4-12.7,12.79-17.36,2.85-3.9,5.53-7.93,8.53-12.08,5.41-7.49,11-15,16.11-22-.58,0,2.22-3.64,1.81-3.82-2,1.86-7.6,10.12-10.78,14.68-1.63,2-3.1,4.27-4.77,6.58-2.25,3.11-4.49,6-6.57,8.86-1.83,2.58-3.35,4.91-4.49,6.71-2.09,2.56-5.44,7.11-7.13,9.64-2.85,3.62-6.13,8.21-9,12.27-8.17-.09-17.48.09-23.76.11-3.17,0-6.47-.12-9.47-.1-1.85,0-3.18.13-5,.13-7.55,0-14.92-.18-22,.05-3.57-.14-7.56-.08-11.35-.09s-7.57-.08-11.36-.09c-6.86,0-13.7.09-20.75,0-2,0-4.19-.1-6.33-.11-2.44,0-5,.09-7.53.08-4.15,0-8.52-.14-12.63-.15s-8,0-11.95,0c-15.28,0-30.84-.08-45.64-.16l1.53-1.62c1.33-1.42,2.66-3,4-4.39,5.82-6.17,12.48-12.89,17-17.61,3.79-4,7.43-8.08,11.44-12.3,7.21-7.6,14.6-15.22,21.43-22.37-.61,0,3.09-3.73,2.69-3.95-2.52,1.84-10.05,10.25-14.33,14.89-2.12,2-4.13,4.34-6.36,6.69-3,3.16-5.94,6-8.71,9-2.45,2.62-4.54,5-6.1,6.85-2.71,2.58-7.16,7.19-9.46,9.77-4.55,4.45-10.06,10.4-14.41,15l-2.85,0c-7.57,0-14.81-.21-22.09-.25s-16.36.21-22.7-.12c-1.27.16-4.09.14-6.88.13-3.31,0-8.86,0-13.84,0-21.13.12-39.53.18-54.06.25-.9.21-2.54.35-1.7.72,2.91.25,7.56.28,10.77.28,4.71,0,9.64-.14,14.44-.16,27.24-.12,55.42-.29,84.31-.08,4.72,0,9,.13,13.72.14l-2,2.09c-1.89,2-4,4-5.72,5.85-1.1,1.16-1.81,2.07-2.89,3.21-4.49,4.72-9,9.18-13.09,13.77-2.24,2.12-4.57,4.66-6.84,7s-4.58,4.66-6.85,7c-4.1,4.27-8.1,8.61-12.34,13-1.23,1.26-2.57,2.54-3.85,3.87s-2.67,2.89-4,4.33l-91.6.11c-3.05.21-8.62.36-5.76.73,9.88.25,25.65.27,36.53.27,16,0,32.7-.13,49-.16h11c-2.34,2.42-4.84,4.87-7.14,7.26s-4.73,5-7.11,7.48c-10,10.42-20.2,21-29.82,30.93-4.55,4.7-9,9.1-13.36,13.62S76,302.3,72,306a57.43,57.43,0,0,1-4,4.38l-3,3.18-49,.06c-3.13.21-8.86.35-5.92.72,10.16.25,26.35.28,37.53.28l16.39,0c-1.37,1.44-2.84,3-4.23,4.47C47.25,332.34,36.32,343.87,27.7,353c-.39.71-1.26,1.84-.49,1.56,1.92-1.64,4.71-4.52,6.62-6.53,2.8-2.94,5.66-6.11,8.5-9.11q11.33-12,23-24.3c10.83,0,21.8-.1,32.57-.11q92.24-.12,188.36-.18c-1.22,1.68-2.59,3.57-3.87,5.36-9.37,13.06-17.56,24.41-24,33.38-.24.67-.86,1.77-.18,1.47,1.51-1.65,3.62-4.49,5.05-6.46,2.1-2.9,4.21-6,6.34-9q8.79-12.19,17.87-24.78,51.63,0,104.24.1c16.62,0,31.73.14,48.38.15l16.82,0-9.71,18.55c-.06.55-.38,1.46.18,1.2a49,49,0,0,0,3.16-5.35c1.27-2.4,2.5-5,3.78-7.42,1.21-2.3,2.43-4.65,3.65-7,10.75,0,21.76,0,32.52,0,17.12,0,33.54.18,50.63.21,32.53,0,67,0,100.93,0l74.63.06c7.71,0,15.58,0,23.51,0,0,1.66,0,3.32.05,5,.08,4.13.47,9.18.25,12.75a26.33,26.33,0,0,1,.25,3.86c0,1.86.15,5,.26,7.77.47,11.87.84,22.2,1.14,30.36.23.5.4,1.42.76.93a46.7,46.7,0,0,0,.09-6.06c-.08-2.64-.29-5.41-.39-8.1-.56-15-1.18-30.56-1.46-46.5,13.74,0,27.65-.09,41.23-.07,6,0,13.31.09,19.83.11,7.43,0,15.29,0,22,0,52.92,0,111.37.06,162.54,0,2.27,4,4.41,7.86,6.64,11.71,2.58,4.45,6,9.75,8,13.74a38,38,0,0,1,2.56,4.08c1.17,2,3.15,5.33,4.94,8.32,7.61,12.67,14.2,23.73,19.42,32.45.5.44,1.2,1.36,1.22.66a69.91,69.91,0,0,0-3.59-6.63c-1.68-2.84-3.54-5.74-5.26-8.62-9.78-16.36-19.93-33.25-30-50.77-1-1.7-1.88-3.31-2.8-4.94,21.67,0,42,0,60-.06,7.88,0,16.09-.13,24-.14,34.17-.06,72.32.11,98.72.11,4.18,4.38,9.22,9.38,12.51,13.28a58.53,58.53,0,0,1,4.15,4.15c2,2,5.22,5.46,8.18,8.51,12.53,13,23.42,24.26,32,33.18.68.41,1.76,1.32,1.53.54-1.54-2-4.26-4.85-6.15-6.83-2.78-2.9-5.78-5.85-8.62-8.8-13.74-14.25-27.92-28.89-42.25-44,21.7,0,43.44-.2,66.46-.23,42.3,0,85.13,0,125,0-1.1-.33,8.9-.37,14.83-.52l.65.62c1,.65,2.89,2.39,4.8,4.08,2.26,2,6.06,5.37,9.5,8.38,14.54,12.74,27.18,23.86,37.17,32.63C1431.12,360.22,1432.34,361.11,1432,360.32ZM1091.68,230c-12.78-13.44-27.48-28.88-37.84-39.57-1.34-1.39-2.81-2.77-4.15-4.15-4.78-4.93-9.87-10.42-14-14.83,19.1-.11,38.75-.22,58.83,0,3.8,0,7.26.14,11.06.15s7.66-.07,11.52,0,7.66.18,11.56.21c7.43.05,15.3,0,23.06.05l17,.07c4.89,0,10-.14,15-.11,1.38,0,3,.09,4.53.11,1.7,0,3.5,0,5,0,8.22,0,17,0,25.5,0,5.16,4.63,10.87,9.5,14.79,13,2.17,1.92,4.35,4,6.42,5.82,1.27,1.12,2.26,1.84,3.5,2.94,5.18,4.57,10.09,9.19,15.11,13.32,2.34,2.28,5.12,4.65,7.71,7s5.12,4.65,7.71,7c4.11,3.66,8.27,7.26,12.48,11-7,0-14.17.08-21.54.09-17.12,0-33.25-.13-49.18-.08-14.1,0-26.52.17-36,.32-14.71-.18-39.89-.21-53.45-.08-10.11-.09-21.35-.12-32.79-.12Zm-943.15-1.69c3.68-3.81,7.43-8,11.18-11.84,1-1.07,2.34-2.32,3.47-3.47,1.28-1.32,2.65-2.71,3.8-3.91,12-12.52,25.69-26.78,35.85-37.53,4.31,0,8.91,0,13.37,0,4.91,0,9.62.18,14.53.21,9.33.05,19.22,0,29,.05l21.42.07c6.14,0,12.62-.14,18.86-.11,1.72,0,3.82.09,5.69.11,2.13,0,4.39,0,6.31,0,21.74,0,46.73.08,64.19,0,2.26,0,4.62-.13,6.88-.14,2.57,0,5.22,0,7.86,0-1.22,1.72-2.36,3.33-3.34,4.69-1.41,2-3,3.91-4.32,5.76-.82,1.15-1.32,2-2.13,3.15-3.37,4.64-6.84,9.06-9.82,13.56-1.72,2.1-3.46,4.6-5.17,6.92s-3.45,4.6-5.16,6.93c-3.09,4.2-6.07,8.47-9.26,12.78-.92,1.25-2,2.51-2.92,3.82-.52.72-1,1.48-1.58,2.24-14.84,0-29.39,0-41.19-.17-4.31.16-13.88.14-23.34.14-11.23,0-30,0-46.94,0-32.13,0-62.4.1-90.46.13Zm128,84.91c-4.43.16-14.27.13-24,.13-11.54,0-30.86,0-48.23,0l-138.06.19Q79.19,300,92.58,286.22c2.87-3,5.53-5.59,8.39-8.56s5.7-6.05,8.6-9.05,5.87-5.89,8.82-8.93c5.6-5.79,11.48-12,17.32-18l8.65-9q98.85-.14,202.19-.16c-.36.51-.71,1-1.08,1.52-1.86,2.54-3.93,5.15-5.78,7.67s-3.54,4.92-5.33,7.36c-7.49,10.27-15.2,20.69-22.45,30.48-3.42,4.64-6.8,9-10.09,13.44s-7.17,10.17-10.27,13.87a47.26,47.26,0,0,1-3,4.31L287,313.34C283.34,313.31,279.84,313.28,276.57,313.23Zm156.05.37c-26.39,0-51.6-.21-77-.25-21.4,0-46.82.13-67.48,0q9.38-12.93,19.14-26.12c2.17-2.91,4.2-5.52,6.35-8.45s4.26-5.95,6.45-8.91,4.46-5.81,6.67-8.81c4.23-5.71,8.63-11.8,13-17.77l7.93-10.79q34.95,0,70.34.09c16.19,0,30.9.14,47.1.15,11.46,0,23.65,0,35.8,0-.3.61-.61,1.23-.93,1.83-1.13,2.11-2.44,4.27-3.56,6.36s-2.14,4.06-3.22,6.09c-4.54,8.5-9.24,17.13-13.67,25.24-2.09,3.84-4.2,7.44-6.21,11.13s-4.26,8.42-6.27,11.49a26.37,26.37,0,0,1-1.75,3.56c-.89,1.69-2.39,4.51-3.72,7.06q-2.2,4.25-4.27,8.18Zm307.33.33c-7.1,0-14.58-.1-22-.11-8.49,0-17.48.09-26.24.08-14.46,0-29.67-.14-44-.15-14,0-27.75,0-41.63,0-49.33,0-99.47-.07-147.6-.14,6-11.46,12.15-23.19,18.68-35.06,1.33-2.41,2.59-4.57,3.9-7s2.56-4.93,3.89-7.37,2.77-4.82,4.13-7.3c2.57-4.73,5.23-9.77,7.9-14.72,1.72-3.17,3.42-6.33,5.13-9.49h12.16c16.66,0,32.65.18,49.28.21,31.66.05,65.18,0,98.24.05l72.65.07h4l0,.39c-.09,2,0,4.25.09,6.38s0,4.25.1,6.38c.09,3.85.31,7.69.39,11.66,0,1.14,0,2.35,0,3.55,0,1.37.16,2.82.2,4.23.06,2.33,0,4.79.06,7.1s.16,4.47.23,6.71c.27,9.38.46,18.95.64,27.95,0,2.23,0,4.4.06,6.55Zm245.55-.05c-6.46,0-11.08.13-17.39.13-26.3,0-52-.19-76.72.05-12.42-.14-26.33-.08-39.55-.09-13.42,0-26.35-.08-39.58-.09-23.51,0-47,.08-71.15.05,0-2.67,0-5.1-.08-7.78s-.22-5.4-.27-8.12,0-5.41,0-8.16c-.1-5.25-.3-10.8-.43-16.28-.09-4-.19-8-.28-12-.08-3.44-.34-7.08-.42-10.58,0-1,0-2.15,0-3.2s0-2.47-.06-3.55c-.09-3.62-.19-7.41-.3-11.2,19.36,0,39.56-.13,59.1-.11,5.85,0,12.95.09,19.3.11,7.24,0,14.89,0,21.41,0,32.24,0,66.6,0,100,0,.11.16.2.33.31.49,1.14,2.22,2.61,4.6,4,6.89s2.62,4.6,3.95,6.89c2.42,4.14,4.94,8.21,7.42,12.48.71,1.24,1.4,2.58,2.15,3.87.87,1.47,1.86,3,2.75,4.5,1.46,2.5,2.9,5.2,4.35,7.68s2.86,4.79,4.27,7.19c5.93,10.07,11.9,20.39,17.52,30.09.13.23.26.46.4.69Zm133.86.09c-31.72-.27-74.18,0-100.85,0-10.45,0-21.3-.11-31.3-.1-.46-.81-.93-1.63-1.42-2.47-1.63-2.78-3.47-5.77-5.16-8.7s-3.27-5.89-5-8.86c-3.27-5.65-6.81-11.59-10.24-17.48l-7.55-12.95c-2.16-3.7-4.59-7.53-6.79-11.3-.6-1.05-1.27-2.35-1.93-3.49s-1.52-2.66-2.2-3.82l-6.85-11.7c42.61,0,83.62,0,116.67-.07,7.66,0,15.66-.12,23.34-.14H1093c4,4.22,8.08,8.34,12.19,12.7,1.19,1.26,2.39,2.65,3.65,4,1.43,1.5,3,3,4.49,4.59,2.44,2.56,4.92,5.35,7.33,7.9s4.72,4.89,7.06,7.35c9.84,10.3,19.81,20.88,29.19,30.82,4.42,4.69,8.56,9.27,12.81,13.78C1154.41,313.87,1132,313.85,1119.36,314Zm179.66-.19c-11.66-.16-24.19,0-37.23,0-17.59,0-34.17-.13-50.53-.09-14.48,0-27.24.18-37,.33l-3.14,0q-3.35-3.52-6.7-7.1c-2.79-3-5.27-5.72-8.07-8.67s-5.72-5.9-8.55-8.9-5.54-6.06-8.41-9.1c-5.46-5.8-11.31-11.87-17-17.91l-12.56-13.26c-3.6-3.79-7.53-7.68-11.18-11.55-1-1.07-2.19-2.42-3.28-3.59l-1-1c29.27,0,59.79.13,81.86.12,21.55,0,43.11-.2,66-.22,15.09,0,30.25,0,45.32,0l.77.69c1.39,1.25,2.8,2.62,4.26,3.92,1.67,1.48,3.49,3,5.21,4.52,2.84,2.52,5.74,5.27,8.55,7.78s5.47,4.81,8.2,7.23c11.43,10.15,23,20.56,34,30.35,5.16,4.63,10,9.15,15,13.6,4.6,4.13,10.29,8.91,14.39,12.84C1361.21,313.37,1322,313.68,1299,313.78Z" transform="translate(-9.26 -6.89)"/><path class="cls-11" d="M131,111.45l8.36.13c-.77-.08-1.52-.17-2.19-.23A42.53,42.53,0,0,0,131,111.45Z" transform="translate(-9.26 -6.89)"/><path class="cls-11" d="M143.54,111.62l2.78,0C145.42,111.61,144.48,111.59,143.54,111.62Z" transform="translate(-9.26 -6.89)"/><path class="cls-11" d="M199,110.61c-.18-.35-.9-.61-2.32-.61-5.61-.18-28.7-.18-33.46-.15-1.79.08-3.56.12-5.3.09l2.71-.09-6.58.05h-1.43c-.85,0-1.72,0-2.59,0h0l-1.63,0-2.06,0c-.2,0-1.57,0-2.66,0h-.41l-.67,0H142c-2.48,0-4.84-.09-7.14-.15-.89,0-1.78,0-2.69,0h.1l-.7,0-.77,0c-1.91-.12-4.82-.08-4.86-.11h-2.59s0,0,0,0c-1.81.14-3.64.24-5.54.21l-1.61.12c-1,.08-1.4.22-1.5.36.06,0-.28.21-.4.25.46.36.57.61.23.63l5,.11.87-.07.46,0q.84.06,1.68.06h0l3,.06,5.71.11a42.53,42.53,0,0,1,6.17-.1c.67.06,1.42.14,2.18.23l6.59.08c.95,0,1.88,0,2.79,0,8.67.08,35.76.12,45,.12.54,0,3.4-.07,3.94-.19l1-.09v-.27a.36.36,0,0,0,.07-.1A.57.57,0,0,0,199,111,.42.42,0,0,0,199,110.61Z" transform="translate(-9.26 -6.89)"/><path class="cls-11" d="M115.27,109.76c2.07,0,4.06-.08,6-.24C119.33,109.55,117.33,109.62,115.27,109.76Z" transform="translate(-9.26 -6.89)"/><path class="cls-8" d="M1288.33,116.93l.34-16.63a1.66,1.66,0,0,1,1.66-1.62h0a1.65,1.65,0,0,1,1.64,1.82l-1.72,16.8Z" transform="translate(-9.26 -6.89)"/><path class="cls-8" d="M1289.51,116.21l-3.67-11.58a1.64,1.64,0,0,0-2-1.1h0a1.64,1.64,0,0,0-1.06,2.34l5.39,10.67Z" transform="translate(-9.26 -6.89)"/><path class="cls-8" d="M1289.66,118.37h-2.76l6.79-12.86a1.59,1.59,0,0,1,2.2-.63h0a1.59,1.59,0,0,1,.56,2.18Z" transform="translate(-9.26 -6.89)"/><rect class="cls-2" x="1096.12" y="37.34" width="1.39" height="72.65" transform="translate(2184.35 140.43) rotate(-180)"/><rect class="cls-2" x="1060.43" y="37.34" width="1.39" height="72.65" transform="translate(2112.99 140.43) rotate(-180)"/><rect class="cls-2" x="1052.56" y="71.24" width="34.3" height="1.39"/><rect class="cls-2" x="1052.56" y="91.64" width="34.3" height="1.39"/><rect class="cls-2" x="1052.56" y="50.83" width="34.3" height="1.39"/><rect class="cls-2" x="1052.56" y="30.42" width="34.3" height="1.39"/><rect class="cls-2" x="1089.45" y="64.96" width="3.98" height="13.17" transform="translate(2173.63 136.19) rotate(-180)"/><rect class="cls-10" x="1073.29" y="68.22" width="3.98" height="9.91" transform="translate(2141.3 139.45) rotate(-180)"/><rect class="cls-2" x="1077.27" y="64.96" width="3.98" height="13.17" transform="translate(2149.27 136.19) rotate(-180)"/><path class="cls-2" d="M1079.83,46.55V57.72h12.76V46.55Zm4.08,2.69a.49.49,0,0,1,.48-.48H1088a.48.48,0,0,1,.47.48.47.47,0,0,1-.47.47h-3.65A.48.48,0,0,1,1083.91,49.24Z" transform="translate(-9.26 -6.89)"/><rect class="cls-2" x="1069.31" y="66.96" width="3.98" height="11.17" transform="translate(2133.33 138.19) rotate(-180)"/><rect class="cls-10" x="1090.51" y="85.36" width="3.98" height="13.17" transform="translate(2175.73 177.01) rotate(-180)"/><rect class="cls-2" x="1082.54" y="85.36" width="3.98" height="13.17" transform="translate(2159.79 177.01) rotate(-180)"/><rect class="cls-10" x="1086.52" y="81.96" width="3.98" height="16.58" transform="translate(2167.76 173.6) rotate(-180)"/><rect class="cls-2" x="1070.83" y="45.27" width="3.98" height="13.17" transform="translate(1785.49 840.24) rotate(-135)"/><rect class="cls-2" x="1084.7" y="39.23" width="3.02" height="14.65" transform="translate(1123.5 -1046.55) rotate(90)"/><path class="cls-2" d="M1064.92,87.37V98.53h12.76V87.37Zm4.08,2.68a.47.47,0,0,1,.47-.47h3.65a.47.47,0,0,1,.48.47.48.48,0,0,1-.48.48h-3.65A.48.48,0,0,1,1069,90.05Z" transform="translate(-9.26 -6.89)"/><rect class="cls-2" x="1069.79" y="80.04" width="3.02" height="14.65" transform="translate(1149.4 -990.82) rotate(90)"/><rect class="cls-12" x="1261.13" y="124.85" width="30.24" height="11"/><polygon class="cls-8" points="1289.12 140.09 1287.82 140.09 1287.35 135.84 1289.59 135.84 1289.12 140.09"/><polygon class="cls-8" points="1264.48 140.09 1263.19 140.09 1262.72 135.84 1264.96 135.84 1264.48 140.09"/><rect class="cls-12" x="1261.13" y="113.85" width="30.24" height="11"/><g class="cls-13"><g class="cls-14"><g class="cls-14"><path class="cls-15" d="M1288.11,129.42c.1.54.22.19.36,0l-.08,0Z" transform="translate(-9.26 -6.89)"/><path class="cls-15" d="M1288.39,129.36l.08,0,0-.06Z" transform="translate(-9.26 -6.89)"/><path class="cls-15" d="M1288.07,129.15l0,.27.28-.06A1.26,1.26,0,0,1,1288.07,129.15Z" transform="translate(-9.26 -6.89)"/><path class="cls-15" d="M1288.52,129.33l.15,0C1288.62,129.25,1288.57,129.28,1288.52,129.33Z" transform="translate(-9.26 -6.89)"/><path class="cls-16" d="M1291.58,124.51l-3.39,0a8.62,8.62,0,0,0,1,.67C1290.06,125.72,1290.84,125,1291.58,124.51Z" transform="translate(-9.26 -6.89)"/><path class="cls-17" d="M1286.53,124.59h-1.12A1.66,1.66,0,0,0,1286.53,124.59Z" transform="translate(-9.26 -6.89)"/><path class="cls-16" d="M1291.55,124.66c-.74.53-1.52,1.22-2.42.7a8.39,8.39,0,0,1-1-.66h-2.67a1.66,1.66,0,0,1-1.12,0c-3.48,0-7-.14-10.65-.4-.22,0-1.37.15-1.63.55l-.41.28,0,.2a2.58,2.58,0,0,0,1,.07c.22,0,.46-.18.68-.16a6.51,6.51,0,0,0,3-.06c.33-.2.86.66,1.19.46,1.32-.2,2.43.65,3.65.4,1-.24,1.63-.7,2.63-.55.22,0,.53-.25.75-.27,1.44.11,2.89.17,4.37.4.33,0,.78.76,1.09.5a4.75,4.75,0,0,1,1.19-1c.1,0,.32.6.53.56.87,0,1.49-.72,2.16-.89l-.16-.14C1293,124.63,1292.31,124.65,1291.55,124.66Z" transform="translate(-9.26 -6.89)"/><path class="cls-16" d="M1295.76,124.1a1.5,1.5,0,0,1-.16.36,1.46,1.46,0,0,0,1.72-.92A7.27,7.27,0,0,1,1295.76,124.1Z" transform="translate(-9.26 -6.89)"/><path class="cls-16" d="M1294.79,124.44l0,0c-.35,0-.71.08-1.07.11l.16.14a1,1,0,0,1,.64,0l.2.06.16-.26.06,0c.25.22.47.12.63-.13l-.19,0A1,1,0,0,0,1294.79,124.44Z" transform="translate(-9.26 -6.89)"/><path class="cls-18" d="M1296.35,130c-1.12-.31-1.37.84-2.38.63a3.57,3.57,0,0,0-1.86.2,11.37,11.37,0,0,0,4.33-.47A.73.73,0,0,1,1296.35,130Z" transform="translate(-9.26 -6.89)"/><path class="cls-19" d="M1298.66,125.8a.89.89,0,0,1-.67.88c-.8.22-1.61-.12-2.15.09-1.55.37-3.14,2.37-5,1.14-1.66-1-3.22,0-4.94.17-.34,0-.76.5-1.1.52-1.15.09-2.18.14-3.21.18-.81,0-.94-1-1.85-.81-.11,0-.34-.43-.45-.42a24.63,24.63,0,0,1-7.87-.73,12.87,12.87,0,0,0-.12,1.33c1.81.06,3.63.84,5.34,1.07,2.31.49,4.62,0,6.95.32a12,12,0,0,0,3.39,0l0-.27a1.46,1.46,0,0,0,.32.21l.14,0s.09-.07.14,0l-.14,0-.06.07c.9.33,1.71-.87,2.25-.57,1.92,1,3.86-.77,5.58-.62a3.65,3.65,0,0,0,3.69-2.45Z" transform="translate(-9.26 -6.89)"/><path class="cls-20" d="M1297.38,124.27l-.28-.21c0,1.47-1.47,2.11-2.72,2.28-.11,0-.43-.32-.69-.47-.57-.09-.67,1-1.16.9-4.16-1-7.85.66-11.85,1-.23,0,0-1.07-.37-1.27-.89-.2-1.67,0-2.44-.63-.11-.21-.45.41-.79.62-1.25.61-2.32-.51-3.56-.16-.68.27-1.32-.06-2,.07l-.08.45a24.63,24.63,0,0,0,7.87.73c.11,0,.34.42.45.42.7-.17.83.83,1.85.81s2.05-.09,3.21-.18c.34,0,.76-.49,1.1-.52,1.72-.15,3.28-1.21,4.94-.17,1.83,1.23,3.42-.77,5-1.14.54-.21,1.35.13,2.15-.09a.89.89,0,0,0,.67-.88,4,4,0,0,1-1.46-1.4Z" transform="translate(-9.26 -6.89)"/><path class="cls-21" d="M1298.83,125.15c-1.58-1.31-2.23-1.66-1.21-.88l-.18.14a3.92,3.92,0,0,0,1.5,1.34A2,2,0,0,0,1298.83,125.15Z" transform="translate(-9.26 -6.89)"/><path class="cls-21" d="M1296.93,123.94l-.29.11a1.64,1.64,0,0,1-1.89.75c-.2.23-.42.32-.67.08l-.17-.16c-.67.17-1.29.9-2.16.89-.21,0-.43-.58-.53-.56a4.75,4.75,0,0,0-1.19,1c-.31.26-.76-.54-1.09-.5-1.48-.23-2.93-.29-4.37-.4-.22,0-.53.26-.75.27-1-.15-1.64.31-2.63.55-1.22.25-2.33-.6-3.65-.4-.33.2-.86-.66-1.19-.46a6.51,6.51,0,0,1-3,.06c-.22,0-.46.18-.68.16a2.58,2.58,0,0,1-1-.07l-.07.72-.06.34c.67-.13,1.31.2,2-.07,1.24-.35,2.31.77,3.56.16.34-.21.68-.83.79-.62.77.65,1.55.43,2.44.63.34.2.14,1.27.37,1.27,4-.31,7.69-2,11.85-1,.49.12.59-1,1.16-.9.26.15.58.51.69.47,1.25-.17,2.71-.81,2.72-2.28Z" transform="translate(-9.26 -6.89)"/><path class="cls-18" d="M1284.34,130.79c.51,0,1.05,0,1.6,0h.23A5.6,5.6,0,0,0,1284.34,130.79Z" transform="translate(-9.26 -6.89)"/><path class="cls-18" d="M1287.07,130.75c.6,0,1.27,0,1.63,0a2.07,2.07,0,0,0-1.33-.44S1287.19,130.73,1287.07,130.75Z" transform="translate(-9.26 -6.89)"/><path class="cls-22" d="M1297.49,129.88a6.42,6.42,0,0,0,2.6-2.46A12.58,12.58,0,0,0,1297.49,129.88Z" transform="translate(-9.26 -6.89)"/><path class="cls-18" d="M1298.89,125.88a3.65,3.65,0,0,1-3.69,2.45c-1.72-.15-3.66,1.64-5.58.62-.54-.3-1.35.9-2.25.57-.14.21-.27.56-.36,0a12,12,0,0,1-3.39,0c-2.33-.29-4.64.17-6.95-.32-1.71-.23-3.53-1-5.34-1.07,0,1.22.18,2.15.79,2.21a16,16,0,0,0,6.51.8,5.12,5.12,0,0,1,2.29-.32,9.24,9.24,0,0,0-1.17.31c.94-.06,1.88-.16,2.85-.24l-.09,0,.71,0a5.61,5.61,0,0,1,1.83,0l.9,0c.12,0,1.21-.3,1.63,0h.25c1.08,0,2.13.08,3.16.14a3.08,3.08,0,0,1,1.79-.15,5.93,5.93,0,0,0,3.38-.48,9.52,9.52,0,0,1,2.7-2.1,5.18,5.18,0,0,0,.53-.84,1.38,1.38,0,0,0-.14-1.49A1.49,1.49,0,0,1,1298.89,125.88Z" transform="translate(-9.26 -6.89)"/></g></g></g><g class="cls-13"><g class="cls-14"><g class="cls-14"><path class="cls-15" d="M1288.39,139c.06.55.19.2.32,0l-.07,0Z" transform="translate(-9.26 -6.89)"/><path class="cls-15" d="M1288.64,139l.07,0,.06-.06Z" transform="translate(-9.26 -6.89)"/><path class="cls-15" d="M1288.36,138.77l0,.27.25,0A1.14,1.14,0,0,1,1288.36,138.77Z" transform="translate(-9.26 -6.89)"/><path class="cls-15" d="M1288.77,139l.13,0S1288.81,138.93,1288.77,139Z" transform="translate(-9.26 -6.89)"/><path class="cls-16" d="M1291.91,134.44l-3.18-.25c.31.27.61.55.87.73C1290.4,135.5,1291.16,134.89,1291.91,134.44Z" transform="translate(-9.26 -6.89)"/><path class="cls-17" d="M1287.17,134.13l-1.06,0A1.55,1.55,0,0,0,1287.17,134.13Z" transform="translate(-9.26 -6.89)"/><path class="cls-16" d="M1291.87,134.59c-.75.45-1.51,1.06-2.31.48a8.63,8.63,0,0,1-.87-.74l-2.5-.16a1.47,1.47,0,0,1-1-.06c-3.26-.17-6.54-.25-9.92-.41-.2,0-1.24.18-1.46.59l-.37.3,0,.2a2.32,2.32,0,0,0,1,0c.2,0,.41-.19.61-.18a5.76,5.76,0,0,0,2.72-.12c.31-.21.81.65,1.11.44,1.22-.21,2.26.64,3.39.4.92-.23,1.52-.67,2.45-.49.21,0,.51-.23.71-.24a30.9,30.9,0,0,1,4.06.66c.31,0,.67.81,1,.58a4.31,4.31,0,0,1,1.18-.94c.1,0,.25.62.46.61.81.11,1.49-.54,2.21-.59l-.13-.17Z" transform="translate(-9.26 -6.89)"/><path class="cls-16" d="M1296.31,134.83a2.69,2.69,0,0,1-.3.29,2.18,2.18,0,0,0,2.22-.1Z" transform="translate(-9.26 -6.89)"/><path class="cls-16" d="M1295.17,134.87l0,0-1.13-.12.13.17a1.08,1.08,0,0,1,.66.15l.18.1a2.19,2.19,0,0,0,.23-.21l0,.07c.2.27.44.24.7.05l-.19-.1A1.13,1.13,0,0,0,1295.17,134.87Z" transform="translate(-9.26 -6.89)"/><path class="cls-18" d="M1295.38,140.62c-.79-.57-1.13.53-1.9.16a2.44,2.44,0,0,0-1.6,0,13.18,13.18,0,0,0,3.52.23A.87.87,0,0,1,1295.38,140.62Z" transform="translate(-9.26 -6.89)"/><path class="cls-19" d="M1298.14,137.64a.7.7,0,0,1-.81.44c-.65-.15-1.24-.73-1.76-.69-1.47-.08-3,1.75-4.59.37-1.44-1.19-2.94-.25-4.51-.18-.31,0-.71.46-1,.47l-2.93.09c-.73,0-.85-1.06-1.68-.83-.11,0-.32-.42-.42-.42a22.71,22.71,0,0,1-7.21-.59,12.86,12.86,0,0,0-.1,1.33c1.65,0,3.34.74,4.9,1,2.11.46,4.21,0,6.32.36a11.28,11.28,0,0,0,3.07.16l0-.28a1.1,1.1,0,0,0,.27.23l.13,0c0-.05.09-.07.13,0l-.13,0a.18.18,0,0,0,0,.07c.79.37,1.58-.75,2.06-.41,1.66,1.18,3.55-.46,5,.06a3.31,3.31,0,0,0,3.53-.91Z" transform="translate(-9.26 -6.89)"/><path class="cls-20" d="M1297.85,135.67l-.15-.31c-.81,1.24-2.14,1.32-3.35,1.29-.1,0-.34-.4-.57-.6-.53-.17-.76.92-1.19.74-3.75-1.43-7.28,0-10.93.29-.21,0,0-1.06-.33-1.27-.83-.2-1.55,0-2.26-.63-.1-.21-.41.43-.72.64-1.15.62-2.14-.47-3.27-.1-.62.3-1.2,0-1.82.13l-.06.45a22.71,22.71,0,0,0,7.21.59c.1,0,.31.42.42.42.64-.17.76.84,1.68.83l2.93-.09c.32,0,.72-.46,1-.47,1.57-.07,3.07-1,4.51.18,1.57,1.38,3.12-.45,4.59-.37.52,0,1.11.54,1.76.69a.7.7,0,0,0,.81-.44,5.21,5.21,0,0,1-.53-1.94Z" transform="translate(-9.26 -6.89)"/><path class="cls-21" d="M1298.55,137.21c-.5-2-1-2.61-.49-1.41l-.24,0a5.15,5.15,0,0,0,.54,1.94A2.35,2.35,0,0,0,1298.55,137.21Z" transform="translate(-9.26 -6.89)"/><path class="cls-21" d="M1297.6,135.16l-.35,0a2.18,2.18,0,0,1-2.22.08c-.26.19-.5.22-.7-.06l-.14-.19c-.72,0-1.4.7-2.21.59-.21,0-.36-.62-.46-.61a4.31,4.31,0,0,0-1.18.94c-.3.23-.66-.6-1-.58a30.9,30.9,0,0,0-4.06-.66c-.2,0-.5.23-.71.24-.93-.18-1.53.26-2.45.49-1.13.24-2.17-.61-3.39-.4-.3.21-.8-.65-1.11-.44a5.76,5.76,0,0,1-2.72.12c-.2,0-.41.19-.61.18a2.32,2.32,0,0,1-1,0l0,.72-.06.34c.62-.15,1.2.17,1.82-.13,1.13-.37,2.12.72,3.27.1.31-.21.62-.85.72-.64.71.64,1.43.43,2.26.63.31.21.12,1.28.33,1.27,3.65-.26,7.18-1.72,10.93-.29.43.18.66-.91,1.19-.74.23.2.47.6.57.6,1.21,0,2.54-.05,3.35-1.29Z" transform="translate(-9.26 -6.89)"/><path class="cls-18" d="M1284.94,140.22c.46,0,.94,0,1.43,0h.21A4.32,4.32,0,0,0,1284.94,140.22Z" transform="translate(-9.26 -6.89)"/><path class="cls-18" d="M1287.39,140.31l1.46.08a1.71,1.71,0,0,0-1.17-.52S1287.5,140.29,1287.39,140.31Z" transform="translate(-9.26 -6.89)"/><path class="cls-22" d="M1296.2,140.86a6.12,6.12,0,0,0,2.27-1.08A3.41,3.41,0,0,0,1296.2,140.86Z" transform="translate(-9.26 -6.89)"/><path class="cls-18" d="M1298.27,137.84a3.31,3.31,0,0,1-3.53.91c-1.41-.52-3.3,1.12-5-.06-.48-.34-1.27.78-2.06.41-.14.2-.27.54-.33,0a11.28,11.28,0,0,1-3.07-.16c-2.11-.36-4.21.1-6.32-.36-1.56-.21-3.25-.93-4.9-1,0,1.22.19,2.15.75,2.19a14,14,0,0,0,5.94.68,4.09,4.09,0,0,1,2.07-.31,5.22,5.22,0,0,0-1,.31l2.56-.21-.08,0,.64,0a4.38,4.38,0,0,1,1.65.05l.81,0c.1,0,1.09-.23,1.46.1h.21c1,.07,1.91.23,2.82.38a2.41,2.41,0,0,1,1.59,0c.77.38,1.89.13,1.92.23a7,7,0,0,0,.8-.13,3.43,3.43,0,0,1,2.27-1.07,6.22,6.22,0,0,0,.59-.48,1.63,1.63,0,0,0,.44-1.32A1.7,1.7,0,0,1,1298.27,137.84Z" transform="translate(-9.26 -6.89)"/></g></g></g><path class="cls-3" d="M1285.51,138.08a.85.85,0,1,0-.84-.84A.85.85,0,0,0,1285.51,138.08Z" transform="translate(-9.26 -6.89)"/><path class="cls-3" d="M1285.51,127.09a.85.85,0,1,0-.84-.85A.85.85,0,0,0,1285.51,127.09Z" transform="translate(-9.26 -6.89)"/><path class="cls-12" d="M1289.51,120.74a5.78,5.78,0,0,0,5.78-5.78h-11.56A5.78,5.78,0,0,0,1289.51,120.74Z" transform="translate(-9.26 -6.89)"/><path class="cls-2" d="M1040.36,59.05h3.23a2.44,2.44,0,0,1,2.41,2.12l.84,6.73,1.72-1.82,1.22.41-1.8,3.63a1.73,1.73,0,0,1-1.56,1h0a1.74,1.74,0,0,1-1.7-1.36L1042.79,61" transform="translate(-9.26 -6.89)"/><path class="cls-2" d="M1033.17,59.05h10.1l-.16,6.29a1.79,1.79,0,0,1-1.79,1.74h-.11l-.19,6h-8.3l-.33-13.27A.77.77,0,0,1,1033.17,59.05Z" transform="translate(-9.26 -6.89)"/><polygon class="cls-10" points="1029.77 100.54 1027.45 100.54 1027.47 101.75 1029.77 101.55 1029.77 100.54"/><path class="cls-10" d="M1042.68,110.05a1.35,1.35,0,0,0-1.16-.9,25,25,0,0,1-2.49-.71l-2.3.2v1.41Z" transform="translate(-9.26 -6.89)"/><path class="cls-10" d="M1032.72,73.12a9.16,9.16,0,0,0,0,4.49c.61,2.83,4.25,10.86,4.25,10.86l-.33,19.17h2.36l2.83-19.44L1041,73.12Z" transform="translate(-9.26 -6.89)"/><polygon class="cls-10" points="1031.76 66.22 1029.68 69.26 1032.62 81.31 1031.76 66.22"/><polygon class="cls-10" points="1022.46 97.27 1020.64 96.16 1019.62 97.33 1021.39 98.81 1022.46 97.27"/><path class="cls-10" d="M1032.09,109.43a1.37,1.37,0,0,0-.18-1.47,23,23,0,0,1-1.26-2.26l-1.77-1.48-1,1Z" transform="translate(-9.26 -6.89)"/><path class="cls-10" d="M1036.6,87.52l-7.2,16.07,1.95,1.18,5.54-8.74.13-7.56Z" transform="translate(-9.26 -6.89)"/><path class="cls-2" d="M1033.07,59.05h-.66a2.43,2.43,0,0,0-2.43,2.31l-.44,9.55a2.65,2.65,0,0,0,.79,2l6.64,6.61a5.9,5.9,0,0,0,.61,1.82h1.47l-.86-2.81L1032.37,71Z" transform="translate(-9.26 -6.89)"/><path class="cls-10" d="M1049.57,63.24l-1.45,2.65a.16.16,0,0,0,0,.22l1.55.85a.16.16,0,0,0,.21-.08l1.45-2.65a.16.16,0,0,0,0-.22l-1.55-.85A.16.16,0,0,0,1049.57,63.24Z" transform="translate(-9.26 -6.89)"/><path class="cls-2" d="M1049.45,66.45l.69.36a.22.22,0,0,0,.29-.09l.8-1.51-1-.6a.22.22,0,0,0-.31.12l-.52,1.46A.21.21,0,0,0,1049.45,66.45Z" transform="translate(-9.26 -6.89)"/><polyline class="cls-2" points="1041.46 58.5 1041.93 57.65 1042.05 57.78 1041.97 58.32"/><path class="cls-2" d="M1036.79,80.51l.79.86h1.47l-1.39-.49S1037,80.3,1036.79,80.51Z" transform="translate(-9.26 -6.89)"/><path class="cls-10" d="M1036,55.35a3.07,3.07,0,0,1-2.81.37c-1.44-.64-3.37-.74-4.83,1.72l.86,2.28a5.3,5.3,0,0,1,3.69-1.57c2.1.1,2.79-.84,3.49-2.46" transform="translate(-9.26 -6.89)"/><rect class="cls-2" x="1035.64" y="55.13" width="1.11" height="1.11" rx="0.56" transform="translate(2063.13 104.49) rotate(-180)"/><path class="cls-2" d="M1039.57,53.48a1.62,1.62,0,0,0-1.69-1h-.08a1.54,1.54,0,0,0-1.38,1.53v3.73a1.33,1.33,0,0,1-1.33,1.34h-.27l3.08,3.33,2.64-3.33H1040a1.34,1.34,0,0,1-1.33-1.3h0a.46.46,0,0,1,.35-.45l.13,0a.61.61,0,0,0,.48-.59V54A1.47,1.47,0,0,0,1039.57,53.48Z" transform="translate(-9.26 -6.89)"/><path class="cls-10" d="M1039.45,53.32a2.46,2.46,0,0,1-1,1.25,2.09,2.09,0,0,0-1,1.11s-.46-.51-.72-.19.39.72.44.87-.69.85-.69.85a5.1,5.1,0,0,0-.4-1.86,2.22,2.22,0,0,1,1.15-3,2,2,0,0,1,2.65.76c.36.54-.17,2.12-.17,2.12l0-1.43A.86.86,0,0,0,1039.45,53.32Z" transform="translate(-9.26 -6.89)"/><path class="cls-23" d="M1094.13,135.06c-1.46,1.18-1.27,2.87-.85,4.54a11.62,11.62,0,0,1,0,4.36,2.62,2.62,0,0,0,.61,2.16c.4.49,1.19-.12.78-.62-.88-1.08.06-3.39-.13-4.7-.23-1.56-1.45-3.65.16-5,.5-.41-.12-1.2-.62-.79Z" transform="translate(-9.26 -6.89)"/><path class="cls-23" d="M1091.12,134.21a5.18,5.18,0,0,0-.83,2.56c-.06,1.52.53,2.49-.25,4.06-.27.55-.58.72-.48,1.39a4.2,4.2,0,0,0,1.29,2c.44.47,1.23-.14.79-.62s-1.12-1.2-.8-2.14c.17-.5.68-.83.83-1.39a2.73,2.73,0,0,0,0-1.36c-.31-1.46-.54-2.48.27-3.87.33-.54-.47-1.16-.79-.6Z" transform="translate(-9.26 -6.89)"/><path class="cls-23" d="M1256.62,147.25c1.18,2.64-.76,5.32,0,8,.53,1.89,1.67,2.86,1.64,5a14.26,14.26,0,0,0,.21,3.8c.15.62,1.14.47,1-.16-.4-1.61-.08-3.15-.2-4.77s-.93-2.3-1.49-3.68c-1.16-2.81,1.07-5.77-.21-8.65a.5.5,0,0,0-.92.41Z" transform="translate(-9.26 -6.89)"/><path class="cls-23" d="M1259.93,151.82c-2.08,3.22,1.43,6.19.58,9.48-.16.61.77,1,.93.37a5.94,5.94,0,0,0-.1-3.34c-.56-1.9-1.85-4-.61-5.91.35-.54-.45-1.14-.8-.6Z" transform="translate(-9.26 -6.89)"/><path class="cls-23" d="M1147.58,131.78a3.86,3.86,0,0,0,1.86,3.13c2.08,1.51,3.67,2.79,3.55,5.61,0,.64,1,.64,1,0a6.45,6.45,0,0,0-1.29-4.28c-1.19-1.53-4.07-2.25-4.12-4.46a.5.5,0,0,0-1,0Z" transform="translate(-9.26 -6.89)"/><path class="cls-23" d="M1151.3,132.05a10.81,10.81,0,0,1,3.77,4.61c.26.59,1.12.08.87-.5a11.94,11.94,0,0,0-4.14-5c-.53-.37-1,.5-.5.87Z" transform="translate(-9.26 -6.89)"/><path class="cls-23" d="M1120.45,110.87l3.14,3.14a.5.5,0,0,0,.7-.71l-3.13-3.13a.5.5,0,0,0-.71.7Z" transform="translate(-9.26 -6.89)"/><path class="cls-23" d="M1124.45,107.49a14.84,14.84,0,0,0,1.66,3.78c.34.55,1.2,0,.87-.5a13.64,13.64,0,0,1-1.56-3.54.5.5,0,0,0-1,.26Z" transform="translate(-9.26 -6.89)"/><path class="cls-23" d="M1251.41,182.06c-2.16,3.24,3.36,5.55,2.07,8.57-.25.59.63,1.08.88.49a3.63,3.63,0,0,0-.3-3.35c-.81-1.52-3-3.38-1.77-5.22.36-.54-.52-1-.88-.49Z" transform="translate(-9.26 -6.89)"/><path class="cls-23" d="M1254.29,184.94c1,2.11,2.22,3.66,1.7,6.14-.13.63.84.88,1,.25.57-2.76-.67-4.54-1.81-6.92-.28-.58-1.13,0-.86.53Z" transform="translate(-9.26 -6.89)"/><path class="cls-9" d="M1215.56,247.94l-2.75-2.25H1200.5l-2.74,2.25a2.94,2.94,0,0,1-1.86.66h-9.3a2.92,2.92,0,0,0-2.92,2.92h46a2.92,2.92,0,0,0-2.92-2.92h-9.3A2.89,2.89,0,0,1,1215.56,247.94Z" transform="translate(-9.26 -6.89)"/><path class="cls-24" d="M1173.22,123.4a16.36,16.36,0,0,0,3.29-1.16c1.32-.78,3.6-4.43,4.76-5.19l-1.73-2.33a2.37,2.37,0,0,0-2.43.4c-.56.44-2.49,2.47-3,2.77s-1.65.22-1.52-.33.88-.7,1.4-1.8a1,1,0,0,0-.59-1.49c-.07.84-1.87,1.87-3,2.48s-.74,3.45-.74,3.45" transform="translate(-9.26 -6.89)"/><path class="cls-25" d="M1134.34,107.48h6a7.88,7.88,0,0,1,7,4.17l10.77,20.2,11.11-12,4.91,3.77-11.9,18a6.22,6.22,0,0,1-10.47-.16l-12.06-19.49" transform="translate(-9.26 -6.89)"/><path class="cls-26" d="M1162.19,141.57s-7.4.92-7.88-1.47-1.47-7.22-4.49-9.12-3.46-11.3-3.46-11.3l-3.55,7.34,8.91,14.39A6.22,6.22,0,0,0,1162.19,141.57Z" transform="translate(-9.26 -6.89)"/><path class="cls-26" d="M1147.86,251.52s-.58-2.54-4.15-3.23a82.71,82.71,0,0,1-8.89-2.54l-8.22-.19v6Z" transform="translate(-9.26 -6.89)"/><path class="cls-27" d="M1144.49,159.41l5.63,44.81-13.2,42.1h-11.56s6.68-31.85,9.18-43.23l-7.77-41Z" transform="translate(-9.26 -6.89)"/><path class="cls-26" d="M1135.23,251.52s-.58-2.54-4.16-3.23a84,84,0,0,1-8.89-2.54l-8.21-.19v6Z" transform="translate(-9.26 -6.89)"/><path class="cls-28" d="M1144.49,159.41l-13.09,11.72-7.32,75.19h-11.37s1.22-48,1.26-51.64-2.35-27.69-2.5-36.7Z" transform="translate(-9.26 -6.89)"/><path class="cls-25" d="M1144.49,160.07l2.06-44.32a7.88,7.88,0,0,0-7.84-8.24l-22.53-.1a7.88,7.88,0,0,0-7.9,8.44l3.19,44.22Z" transform="translate(-9.26 -6.89)"/><path class="cls-24" d="M1134.09,103.94a3,3,0,0,0,3.5-2.9l.27-7.49a5.4,5.4,0,0,0-6.69-5,5.94,5.94,0,0,0-4.4,4.66l-2.85,14.25,5.62,2.76a2.67,2.67,0,0,0,3.72-1.55l.39-1.17.24-3.57Z" transform="translate(-9.26 -6.89)"/><polygon class="cls-26" points="1124.63 97.02 1124.39 100.59 1121.66 96.51 1124.63 97.02"/><path class="cls-26" d="M1125.22,93.3c-.27-3.34,1.45-6.43,4-6.72s7.34,2,10.31,1.62,1.6,6.6-3.21,5.49a46.18,46.18,0,0,1-5.46-1.41,3.26,3.26,0,0,1-.66,2.65,3.1,3.1,0,0,0-.32,2.38l-1.1-.38s.29-2.76-1.11-2.57c-1.15.15-1.4,1.62,0,4.19a6.65,6.65,0,0,1-2.84,4.12A68.6,68.6,0,0,0,1125.22,93.3Z" transform="translate(-9.26 -6.89)"/><path class="cls-26" d="M1117.81,152.87c.61-5.29-.9-6.79-2.08-11.7s-.78-20.39-.78-20.39l-5.27,14.49,1,14.38,4.46,10.42h3.48A18.91,18.91,0,0,1,1117.81,152.87Z" transform="translate(-9.26 -6.89)"/><path class="cls-3" d="M1087.69,156.61l34-17.73a1,1,0,0,1,1.31.41l12.64,24.17a1,1,0,0,1-.41,1.31l-34,17.73a1,1,0,0,1-1.31-.42l-12.63-24.16A1,1,0,0,1,1087.69,156.61Z" transform="translate(-9.26 -6.89)"/><path class="cls-24" d="M1117.51,165.51l4.08,5.51a.54.54,0,0,1,.1.44l-.59,2.59a.54.54,0,0,1-.36.4c-1.07.33-4.65,1.44-5,1.48l-1.18-.37.92-.49-.81-2.25a9.4,9.4,0,0,1-2.2-3.35Z" transform="translate(-9.26 -6.89)"/><path class="cls-25" d="M1121.74,107.43l-8.75,0a7.43,7.43,0,0,0-7,5l-8.65,25.14a9.28,9.28,0,0,0,.6,7.4l13.58,25.3,6-4.73-10.18-23.77,7.62-21" transform="translate(-9.26 -6.89)"/><path class="cls-26" d="M1129.84,96c0,.41.12,2.46.2,3.69a.62.62,0,0,0,.9.51l1.91-1a.63.63,0,0,1,.38-.06l4.4.79v3.15a1.09,1.09,0,0,1-1.23,1.08l-6.7-.9a1,1,0,0,1-.89-1V96.93" transform="translate(-9.26 -6.89)"/><polygon class="cls-24" points="1232.76 230.84 1239.75 230.31 1238.98 240.74 1232.63 240.17 1232.76 230.84"/><polygon class="cls-24" points="1221.74 230.84 1228.73 230.31 1230.62 240.74 1224.26 240.17 1221.74 230.84"/><path class="cls-26" d="M1223.44,251.52s.45-2,3.22-2.5a65.58,65.58,0,0,0,6.87-2l6.36.57v3.89Z" transform="translate(-9.26 -6.89)"/><path class="cls-27" d="M1224.11,159.41s-4.29,31.37-6.75,41.12c1.52,3.15,16.17,46.53,16.17,46.53l6.35.57s-1.52-34.21-10.09-49.22c0,0,9.06-20.51,14.44-38.73Z" transform="translate(-9.26 -6.89)"/><path class="cls-28" d="M1229.34,161.1s11.29,70.91,12.55,86l6.36.57s3.2-25.06.55-42.78c-3.82-25.48,4.88-34.22-.34-45.17" transform="translate(-9.26 -6.89)"/><path class="cls-26" d="M1227.16,100.62s-1.92,2-.86,6.43c.72,3,2.37,5.83.59,8.32,0,0,5,1.39,5.41-3s-3.28-11.28-3.28-11.28" transform="translate(-9.26 -6.89)"/><path class="cls-29" d="M1230.31,117.23l-8.89,28.37a4.25,4.25,0,0,1-3.79,3l-21.53,1.26-.19-5.8,18.58-3.23,4.75-20.05a5,5,0,0,1,4.88-3.86h1.44" transform="translate(-9.26 -6.89)"/><path class="cls-30" d="M1221.42,145.6l7.55-24.09-5.57-1.14-3.47,13.18a3.73,3.73,0,0,0,1,3.58h0a1.79,1.79,0,0,1,.27,2.18l-5.41,9.09.26.26,1.62-.09A4.25,4.25,0,0,0,1221.42,145.6Z" transform="translate(-9.26 -6.89)"/><path class="cls-26" d="M1253.22,120.31l-6.24-3.66h-3.85l-1.19,0-1,0h0l-17.56.24-2.88,15.56a6.85,6.85,0,0,0,4.29,7.65l.37.14-1.4,21,25-.8,4.75-34.31C1253.62,125.73,1253.22,120.31,1253.22,120.31Z" transform="translate(-9.26 -6.89)"/><path class="cls-29" d="M1234.93,101.11a2.86,2.86,0,0,1,2.73,2.67l.9,12.89,2.68,0-7.45,5.39L1229,116.8l2.35,0-.08-2.55-1-.08a1.75,1.75,0,0,1-1.6-1.56l-1.16-11Z" transform="translate(-9.26 -6.89)"/><path class="cls-26" d="M1227.16,100.62s-.41,2.76,3.2,4.45a7.33,7.33,0,0,1,4.24,4.49s.39-1.74,1.47-2,2.11,1.33.09,2.73c0,0,1.12,3.06,2.22,3.8a11.38,11.38,0,0,1,1.18-4.52c1.4-2.75,1.56-6.71,0-8.63S1233.65,96.39,1227.16,100.62Z" transform="translate(-9.26 -6.89)"/><circle class="cls-3" cx="1226.94" cy="103.72" r="0.63"/><path class="cls-31" d="M1239.05,119.68" transform="translate(-9.26 -6.89)"/><path class="cls-29" d="M1229.34,150.79l-.16.27a3.57,3.57,0,0,1-2.49,1.65l-2.44.38a1.42,1.42,0,0,0-1,.66h0a1.41,1.41,0,0,1-1.58.63l-3.19-.87a1.41,1.41,0,0,1-.87-2l.54-1a1.42,1.42,0,0,1,.92-.7l9.93-2.28" transform="translate(-9.26 -6.89)"/><path class="cls-29" d="M1246.88,143.41,1229,147.5l-.44,4.33L1248,150.5a6.75,6.75,0,0,0,6.29-6.5l.71-19.63a7.41,7.41,0,0,0-7.36-7.68l-.66,0Z" transform="translate(-9.26 -6.89)"/><path class="cls-26" d="M1231.8,251.52s.45-2,3.22-2.5a64.9,64.9,0,0,0,6.87-2l6.36.57v3.89Z" transform="translate(-9.26 -6.89)"/><path class="cls-32" d="M1175,130l5.53,27.29a.33.33,0,0,0,.33.27h36.55l-5.52-27.24a.91.91,0,0,0-.89-.72h-35.67A.33.33,0,0,0,1175,130Z" transform="translate(-9.26 -6.89)"/><ellipse class="cls-3" cx="1195.45" cy="143.41" rx="1.65" ry="2.13" transform="translate(595.53 1185.7) rotate(-67.46)"/><path class="cls-32" d="M1215.9,155.12h21.81a2.87,2.87,0,0,1,2.87,2.86H1215.9" transform="translate(-9.26 -6.89)"/><path class="cls-9" d="M1251.73,159.37h0a1.78,1.78,0,0,1-1.78,1.78h-17.33A18.83,18.83,0,0,0,1213.79,180v71.56h-14.44V180a18.83,18.83,0,0,0-18.83-18.83h-18.34a1.78,1.78,0,0,1-1.78-1.78h0a1.78,1.78,0,0,1,1.78-1.77H1250A1.78,1.78,0,0,1,1251.73,159.37Z" transform="translate(-9.26 -6.89)"/><polygon class="cls-26" points="1222.03 107.33 1222.1 109.88 1224.01 107.33 1222.03 107.33"/><path class="cls-32" d="M1176.1,147.43l-.18-.6a.45.45,0,0,0-.43-.34h-2.82l-.35-3a.46.46,0,0,0-.43-.41l-4.22-.21,0,.86,3.48.18a.44.44,0,0,1,.43.4l.26,2.2h-4a.47.47,0,0,0-.44.34l-.17.6a.46.46,0,0,0,.44.58h.19a.45.45,0,0,1,.45.43l.6,9.16h5.52l.61-9.16a.45.45,0,0,1,.45-.43h.19A.46.46,0,0,0,1176.1,147.43Z" transform="translate(-9.26 -6.89)"/><polygon class="cls-2" points="1166.17 143.59 1165.89 147.88 1158.88 147.88 1158.6 143.59 1166.17 143.59"/><path class="cls-32" d="M1212.05,161.1l10.83,2.78a18.77,18.77,0,0,1,9.74-2.73h13.21l.2-.05Z" transform="translate(-9.26 -6.89)"/><path class="cls-33" d="M1100.49,188a27.65,27.65,0,0,0,13.38,4.49c0-.59-.08-1.27-.13-2a25.46,25.46,0,0,1-12.1-4.11c-3.26-2.28-5.28-5.27-5.68-8.43a5.18,5.18,0,0,1,.3-2.8,3.32,3.32,0,0,1,.66-1c1.48-1.52,4.75-2.05,9.47-1.55a28.47,28.47,0,0,0,5.94,0,16.52,16.52,0,0,0,1.83-.28,10,10,0,0,1-1.26-1.77c-.24,0-.47.07-.71.09a26.28,26.28,0,0,1-5.59-.05c-5.5-.58-9.13.12-11.11,2.14a3.65,3.65,0,0,0-.31.36,6.47,6.47,0,0,0-1.21,5.12C1094.45,181.88,1096.76,185.36,1100.49,188Z" transform="translate(-9.26 -6.89)"/><path class="cls-33" d="M1133.15,236.82c2.09,1.39,4.09,2.73,5.23,4.85a8.21,8.21,0,0,1,.95,3.91,3.68,3.68,0,0,1-.32,1.5l1.93.53a5.46,5.46,0,0,0,.39-2.06,9.92,9.92,0,0,0-2.18-6.33,20.61,20.61,0,0,0-4.89-4.06c-2.38-1.58-4.5-3-5.4-5.45a8,8,0,0,1-.45-2.56,8.26,8.26,0,0,1,2.11-5.29c.26-1.25.53-2.49.79-3.72-2.92,2.65-5,5.56-4.9,9a9,9,0,0,0,1.83,5.49A19,19,0,0,0,1133.15,236.82Z" transform="translate(-9.26 -6.89)"/><path class="cls-33" d="M1148.94,194.8l.24.3a7.38,7.38,0,0,1,.72,7.35l.22,1.77-.85,2.72a14.27,14.27,0,0,0,1.7-2.2,9.51,9.51,0,0,0-.17-10.81,10.94,10.94,0,0,0-2.26-2.3c-3.73-2.87-9.63-3.92-16.73-3-.71.1-1.42.21-2.15.35l-.2,2.08c.93-.19,1.84-.34,2.72-.46C1139.93,189.6,1146,191.08,1148.94,194.8Z" transform="translate(-9.26 -6.89)"/><path class="cls-33" d="M1102.45,153.43a54.57,54.57,0,0,0,8.79,3.43l.46.15c1,.33,1.94.62,2.54.84l.16.07c.17.06.33.14.48.21a9,9,0,0,1,2.72,1.94,6.44,6.44,0,0,1,1.92,5.89,4.87,4.87,0,0,1-.62,1.42l1.25,1.69a6.71,6.71,0,0,0,1.31-2.63,8.05,8.05,0,0,0-1.32-6.37,11,11,0,0,0-1.5-1.78,11.15,11.15,0,0,0-3.49-2.23c-.49-.19-1.16-.42-2-.68l-.87-.28-1.22-.39c-3.44-1.12-9-3.07-10.22-5a1.34,1.34,0,0,1-.27-.72c0-.5.49-1.88,5.42-3.74.84-.31,1.64-.64,2.42-1,.63-.26,1.24-.54,1.84-.81,8.19-3.81,13.2-8.65,14.89-14.42,2.33-7.92-2.49-14.53-2.69-14.81a12.94,12.94,0,0,1-2.17-4,3.39,3.39,0,0,1,.09-2.42,2.55,2.55,0,0,1,.24-.39h0a6.11,6.11,0,0,1,3.66-1.85l.41-2.09c-1.92.27-4.92,1.07-6.1,3.43a4.29,4.29,0,0,0-.19.5h0a6.69,6.69,0,0,0,.68,5.19,19.1,19.1,0,0,0,1.77,2.86c.05.06,4.43,6.07,2.39,13-1.49,5.05-5.9,9.35-13.14,12.85-.79.38-1.61.75-2.47,1.12s-1.52.63-2.33.93c-3.27,1.23-5.29,2.49-6.18,3.86a3.05,3.05,0,0,0-.54,1.8,3.17,3.17,0,0,0,.5,1.59A8.65,8.65,0,0,0,1102.45,153.43Z" transform="translate(-9.26 -6.89)"/><path class="cls-33" d="M1392.49,268.76c-4.49,7.72-23,13.78-45.8,6.73a115.41,115.41,0,0,0-23.11-4.26,6.37,6.37,0,0,0-2.16-2.14c-5-3.3-29-4.09-56.81-5l-9.45-.31c3.72-3.33,6.37-7.27,7-11.94.93-7.1-5.21-11.83-12.83-15.67,0,.75-.1,1.47-.15,2.17,6.61,3.43,11.74,7.56,11,13.24-.62,4.79-3.71,8.78-7.94,12.09-32-1.14-66.63-3-72.55-9.39-1.25-1.35-1-2.1-1-2.35.69-2.58,7.86-4.81,14.79-7,1.93-.6,3.91-1.22,5.87-1.87,5.68-1.9,11.14-4.12,14.44-7.14a11.47,11.47,0,0,0,1.88-2.18c1.33-2.06,1.65-3.85,1-5.48a7.18,7.18,0,0,0-2.84-3.07v2.52a4.14,4.14,0,0,1,1,1.33c.27.62.47,1.67-.79,3.62-.06.09-.14.18-.2.28-2.43,3.41-8.22,5.9-14.44,8-2.14.73-4.34,1.41-6.46,2.07-8.47,2.64-15.16,4.72-16.13,8.36-.37,1.38.12,2.8,1.45,4.23,6.32,6.83,37.66,8.71,71.35,9.94-9.36,6.14-22.29,9.54-28,11-4.75,1.25-10.62,2.53-16.83,3.88-18.1,3.95-38.6,8.42-45.07,14.92-1.53,1.53-1.4,2.89-1,3.75,3.49,8,51.41,10.57,94.73,8.94,13.19-.5,24.3,3.91,28.95,11.5,3.12,5.08,3,11.19-.35,17.2-5.46,9.83-33.45,41.94-164.11,42.62-32.84.17-60.64,4.74-80.37,13.21-10.77,4.62-18.79,10.33-23.4,16.49l-.42.05c-23.67,2.93-56.09,6.95-115,8.62-60.54,1.71-71.12-7.7-72.92-10.63a4.27,4.27,0,0,1,0-4.56c5.08-9.35,40.84-23.24,104.44-24.85,56.87-1.43,107.73-18.45,115.22-32.7a7.38,7.38,0,0,0-.21-7.84c-4-6.21-21.5-14.78-86.88-14.73a8.29,8.29,0,0,0,2.44-5.94c-.55-12.26-34.26-21.29-73.64-19.74-49.59,2-79.85,11.39-84.11,19.69a4.32,4.32,0,0,0,.2,4.58c4.65,7.05,31.54,9.58,71.93,6.77,31.3-2.17,56.81-3.17,77.61-3.33-4,2.53-10.46,5.32-20.88,8.09-21.81,5.79-54.56,9.83-97.33,12-100.91,5.1-144.84,12.08-176.92,17.17-25.29,4-42,6.67-72.76,5.7a237,237,0,0,1-33.85-3.34l.85,2.05a233.55,233.55,0,0,0,32.93,3.29c31,1,47.74-1.69,73.15-5.72,32-5.09,75.9-12.06,176.7-17.15,64.64-3.27,107.88-11.28,121.51-22.1h2.66c66.75,0,81.58,9,84.72,13.81a5.37,5.37,0,0,1,.11,5.82c-7.08,13.48-58.2,30.24-113.5,31.63-60.64,1.54-100,14.49-106.14,25.9a6.24,6.24,0,0,0,0,6.56c5.25,8.55,32.47,12.77,74.67,11.58,57.89-1.64,90.25-5.55,113.84-8.47a19.58,19.58,0,0,0-3,8.9c-.68,10.75,9.58,23.71,40.44,27.8a147.92,147.92,0,0,0,19.32,1.35c27.25,0,43-9,44.48-19.34,1.09-7.74-6.53-18.1-31.59-21.85-26.35-3.93-41.67-2.33-65.5.6,12.4-14.67,46.84-27.08,101.08-27.36,49.2-.26,89.22-5.08,119-14.33,30.57-9.51,42.37-21.19,46.89-29.32,3.71-6.66,3.82-13.49.31-19.21-5-8.21-16.83-13-30.74-12.46-52.64,2-90.49-2.41-92.82-7.74-.08-.18-.28-.65.6-1.54,6.06-6.08,27.14-10.68,44.08-14.37,6.24-1.36,12.13-2.65,16.92-3.91,6.22-1.64,20.92-5.52,30.7-12.85l11.74.39c26.34.88,51.23,1.7,55.76,4.69.12.08.23.15.33.23-3.15-.22-6.35-.35-9.55-.37-4.65,0-19.94.14-22.16,3.88a2.3,2.3,0,0,0,.63,3c3.63,3.53,21.67,2.26,29.3-.43,3-1.06,4.66-2.32,5-3.83a113.18,113.18,0,0,1,22.22,4.17,69.6,69.6,0,0,0,20.47,3.2c14.84,0,26.2-5.39,28.56-12.88A2.25,2.25,0,0,0,1392.49,268.76Zm-436.9,53.72c-21.45.09-47.9,1.09-80.5,3.36-46.7,3.25-66.84-.91-70.12-5.88a2.34,2.34,0,0,1-.09-2.57c3.34-6.5,31.11-16.57,82.41-18.6,3-.12,5.89-.17,8.75-.17,36,0,62.41,9,62.81,18C958.92,318.05,958.31,320.1,955.59,322.48ZM1082,410.15c23.62,3.53,30.87,12.76,29.91,19.59-1.66,11.8-25.15,21.12-61.56,16.29-24.3-3.23-39.49-13.31-38.71-25.69a18.65,18.65,0,0,1,3.46-9.34C1039.92,407.93,1055.24,406.14,1082,410.15Zm236.17-135c-8.11,2.85-24.67,3.38-27.25.87-.15-.14-.38-.4-.3-.53,1-1.76,9-2.95,19.32-2.95,3.7,0,7.71.15,11.84.48C1321.44,273.63,1320.36,274.41,1318.2,275.18Z" transform="translate(-9.26 -6.89)"/><path class="cls-33" d="M1227,227.86a76.86,76.86,0,0,0,11.68,5.7l.45.19,1.23.53c-.1-.75-.2-1.52-.31-2.31l-.14-.06-1.51-.64c-5.28-2.25-10.14-4.44-12.59-6.88a6,6,0,0,1-1.43-2.06,3.37,3.37,0,0,1-.05-2.24c-.3-.89-.61-1.78-.91-2.65a5.84,5.84,0,0,0-.91,5.6C1223.19,224.85,1224.8,226.41,1227,227.86Z" transform="translate(-9.26 -6.89)"/><path class="cls-33" d="M1248.19,199.92c-1.93,2.11-6.35,4.65-10.36,7l-1.3.75-2.47,1.44c.19.66.38,1.32.56,2l2.22-1.3,2-1.14a67,67,0,0,0,9.63-6.2c1.56-1.34,2.57-2.67,2.71-4,.28-2.47-1.15-4.53-3.37-6.53,0,.93,0,1.89,0,2.89a4.55,4.55,0,0,1,1.34,3.42A3.4,3.4,0,0,1,1248.19,199.92Z" transform="translate(-9.26 -6.89)"/><path class="cls-33" d="M1232.56,181.61c-.23-1.46-.45-2.88-.66-4.24-.24-.38-.49-.75-.72-1.15a7.87,7.87,0,0,1-.52-6.76c1-2.83,3.32-5.63,6.07-8.6l.32-.33.88-.94.91-1a88.85,88.85,0,0,0,6.32-7.14,14.5,14.5,0,0,1,4.38,2.72,1.3,1.3,0,0,1,.1.15.86.86,0,0,1,.16.56,2.76,2.76,0,0,1-.4,1.17l-.53,3.8c.82-.76,2.84-2.84,2.93-4.88a2.87,2.87,0,0,0-.82-2.19,8.79,8.79,0,0,0-1-.89,15.51,15.51,0,0,0-2.24-1.41l-4.61.32c-1.74,2.21-3.76,4.34-5.73,6.41-.73.77-1.46,1.54-2.17,2.31-.37.39-.73.79-1.08,1.18l-.19.21a35.37,35.37,0,0,0-3.84,5c-2.14,3.55-2.89,7.2-.68,11.21A26.21,26.21,0,0,0,1232.56,181.61Z" transform="translate(-9.26 -6.89)"/><path class="cls-33" d="M1154.19,154.52c1.4,10.41.42,24.46-.14,30.58-.57,6.35,2,13.71,7,19.69,4.29,5.18,12.47,12,27.07,14.85,4.3.85,8,1.67,11.22,2.46V220c-3.11-.76-6.7-1.53-10.83-2.35-25.33-5-33.36-22.54-32.47-32.4.56-6.25,1.57-20.63.08-31.31,3.17-1.21,5.29-3.76,5.27-6.48,0-1.28-.1-2.92-.25-4.71-.36-4.31-1-9.5-1.44-12.7l-.3-2.2a1.46,1.46,0,0,0-2.23-1,6.76,6.76,0,0,0-1.26,1l1,1.91c.22-.26.43-.49.62-.68.09.66.2,1.5.33,2.45.45,3.49,1.06,8.52,1.35,12.45.1,1.35.17,2.58.17,3.56,0,1.75-1.44,3.48-3.59,4.44-.14-.78-.3-1.54-.47-2.26a48.15,48.15,0,0,1-1.06-6,6,6,0,0,1-2.18-1.78,48.86,48.86,0,0,0,1.29,8.21c.19.76.35,1.56.5,2.39a10.13,10.13,0,0,1-8.92-2.89l-.12,2.53A11.82,11.82,0,0,0,1154.19,154.52Z" transform="translate(-9.26 -6.89)"/><path class="cls-33" d="M1246.42,149.72c1.65-2.45.94-4.34.37-5.24a5.17,5.17,0,0,0-.73-.88,7.78,7.78,0,0,0-6.2-2,4,4,0,0,0-3.49,2.73,3,3,0,0,0-.06,1.47l2-.46a.94.94,0,0,1,0-.47,2.06,2.06,0,0,1,1.86-1.29,5.06,5.06,0,0,1,.68-.05,6.1,6.1,0,0,1,2.63.63,4,4,0,0,1,1.63,1.35,2.65,2.65,0,0,1-.33,3.06l-.27.41-1.24,1.65h0l-.14.17,2.63-.18Z" transform="translate(-9.26 -6.89)"/><path class="cls-32" d="M547.07,394.07s.11-58.67-41.6-85.53a132.91,132.91,0,0,1,6.33,28.7c1.79,19.66,8.24,27.36,11.08,30.63s1.87,5.92-.31,10.77,3.7,15.43,3.7,15.43Z" transform="translate(-9.26 -6.89)"/><path class="cls-34" d="M539.83,394.07s-11.64-14.95-4.8-24.51c8.53-11.92-3.5-30.35,4.8-41.5s6.76-23.31,16.65-29.45,3.7,23.77,4.67,32.6,4.51,21.13,0,27.41c-6.84,9.53,8.39,22.8-1.9,35.45Z" transform="translate(-9.26 -6.89)"/><path class="cls-34" d="M210.9,372.49l-25.09-92.27a29.13,29.13,0,0,0-28.13-21.5H99.25a29.15,29.15,0,0,0-28.46,35.46L93,394.07" transform="translate(-9.26 -6.89)"/><path class="cls-35" d="M167.82,284.07l.43-.93a15.59,15.59,0,0,1,16.16-9l36.73,4.7a15.6,15.6,0,0,1,11,6.76h0Z" transform="translate(-9.26 -6.89)"/><path class="cls-35" d="M93,394.07l23-81.81a38.69,38.69,0,0,1,37.23-28.19h95.44a38.68,38.68,0,0,1,38.67,38.67v71.33Z" transform="translate(-9.26 -6.89)"/><path class="cls-29" d="M259.66,275.73s-15-5.44-15-10.72c0-8.51,0-9-.4-12s3.26-4,4.74,4.16c.13,2.56,4.22,2.25,4.77.74s.62-9-6.12-15.62c-3.25-3.22-4.45-5.16-4.82-6.3a1.15,1.15,0,0,1,1.14-1.51c2.23.11,7.52.4,8.67.83,1.47.54,12.33,7.48,14.82,11.7s4,15.55,4,15.55" transform="translate(-9.26 -6.89)"/><g class="cls-36"><path class="cls-26" d="M250.16,259.88c1.68,1.48,3.86,1.07,5.91,2a7,7,0,0,1,2,1.38,12.88,12.88,0,0,1,3,4.23,10,10,0,0,0-.7-4.85,6.33,6.33,0,0,0-3.42-3.4,8,8,0,0,0-4.76-.25,2.69,2.69,0,0,1-2.71-.59A1.68,1.68,0,0,0,250.16,259.88Z" transform="translate(-9.26 -6.89)"/></g><polygon class="cls-3" points="188.87 277.89 193.7 362.8 198.27 362.8 214.4 277.89 188.87 277.89"/><path class="cls-29" d="M223.51,285.4l2.28-9,4.91,1.38a5.56,5.56,0,0,0,7-4.24l5.16-25.13a15.92,15.92,0,0,0-12.43-17.83h0a15.92,15.92,0,0,0-18.48,10.7l-13.78,43.54,4,5.13A12.15,12.15,0,0,0,223.51,285.4Z" transform="translate(-9.26 -6.89)"/><path class="cls-29" d="M243.71,243.66s-.83,17.06-1.15,21.8l-6.78-.41" transform="translate(-9.26 -6.89)"/><path class="cls-26" d="M203.33,268.28s1.89-3.51-1.64-13.36c-1.83-5.09.92-9.1.65-13.62S201.22,231,206.13,228s4.28.11,13.83-6.09c6.72-4.37,14.8,3.67,19.37,6.12,8.18,4.37,9.1,2.43,13.43,4.88s2.58,16.1-9.48,14c-6.66-1.17-11.05-8.36-15.08-7.46s-.14,6.4-4.07,9.91c-3.07,2.74-7.82.38-9,5,0,0-.23-5.59-2.88-5.71-3.75-.17-5,3.82-1.33,8.39C214.66,261.7,203.33,268.28,203.33,268.28Z" transform="translate(-9.26 -6.89)"/><path class="cls-26" d="M217.44,273.31l3.77,16.76a12.24,12.24,0,0,0,2.3-4.67l2.28-9Z" transform="translate(-9.26 -6.89)"/><path d="M202.9,369.69h-64l14.21-48.47s2.5,13.2,1.57,16.55c-4.57,16.5-3,28.23,6.74,28.23C165.76,366,202.9,369.69,202.9,369.69Z" transform="translate(-9.26 -6.89)"/><path class="cls-29" d="M245,381.64c-.25-1-3.69-3.65-7.39-6l.84.16c3.75.7,4.08-1.91,4.08-1.91a33.78,33.78,0,0,0-8.76-4.08c-5.64-.41-10.33.72-15.9,1a12.89,12.89,0,0,1-1.39,0,35.32,35.32,0,0,0-9.73,1.13l-.21.38a57.48,57.48,0,0,0-5.14,14.17c6.86,2.74,18.77,1.31,18.77,1.31,1.07,1,2.19,1.87,3.34,2.73a8.17,8.17,0,0,0,6.33,1.52c1.23-.23,2-.74,1.36-1.67-1.52-2.06-13.21-8.89-13.21-8.89L225.5,383l5.63,3.52c3.12,1.95,7.73,1.06,7.45.4a40.23,40.23,0,0,0-4.88-4.62c-1.59-1.46-11-5-11-5s7.41.27,8.2.35,6.8,4.21,8.49,4.81S245.51,383.53,245,381.64Z" transform="translate(-9.26 -6.89)"/><path class="cls-37" d="M207.43,369.64c.2.09,0,.38.23.46-.28.59-.61,1.21-.88,1.85-.14.36-.2.73-.34,1.07s-.5.94-.68,1.47c0,.12,0,.27-.09.39-.34.94-.87,2.26-1.33,3.42l-.15.33c0,.1-.12.19-.16.29-.13.33-.18.7-.31,1l-.43,1.14-.54,1.57c-.09.26-.25.5-.34.76s-.15.55-.22.8-.19.49-.29.75a23.63,23.63,0,0,0-1,4.7c0,.27,0,.56-.06.82a1,1,0,0,1-.23.59c-.19,0-.25-.08-.35-.15.11-.83.24-1.89.45-3.09a7.27,7.27,0,0,1,.15-.78c0-.16.09-.31,0-.4a3.86,3.86,0,0,0,.38-1.26c.14-.4.33-.78.47-1.19l.93-2.71.2-.66c.08-.22.23-.44.31-.66s.06-.29.1-.42.13-.22.18-.33c.15-.37.23-.76.38-1.12l.27-.6a2,2,0,0,1,.28-.59,4.48,4.48,0,0,1,.43-1.19,2.5,2.5,0,0,0,.05-.29c0-.16.18-.31.25-.48a6.18,6.18,0,0,1,.63-1.54,1.79,1.79,0,0,1,.39-.81,1.91,1.91,0,0,1,.1-.63c.09-.25.27-.47.38-.74s.09-.42.24-.57C206.94,370.47,207.09,369.71,207.43,369.64Z" transform="translate(-9.26 -6.89)"/><polyline class="cls-35" points="312.73 331.25 263.58 253.29 242.44 272.37 275.06 341.74"/><path class="cls-37" d="M254.29,285.05c.2-.11.51.69.69.53.7,1.47,1.4,3.07,2.16,4.62.41.87.89,1.64,1.28,2.46s1,2.42,1.66,3.66c.14.29.33.57.48.86,1.1,2.22,2.6,5.44,3.89,8.24.12.25.24.55.36.82s.2.54.3.76c.37.81.83,1.61,1.19,2.4l1.26,2.77c.58,1.26,1.19,2.52,1.73,3.73.28.64.5,1.28.78,1.91s.62,1.26.9,1.86.5,1.19.77,1.81c1.65,3.76,3.43,7.35,5.13,10.82.3.62.66,1.22.95,1.83a6.08,6.08,0,0,1,.52,1.44c-.11.19-.28,0-.43-.06-.91-1.86-2.05-4.21-3.38-6.9l-.85-1.77a3.35,3.35,0,0,0-.48-.86,23.81,23.81,0,0,0-1.31-2.94c-.43-1-.79-1.91-1.23-2.9-.93-2.07-1.92-4.28-2.92-6.43-.25-.51-.5-1-.74-1.53s-.45-1.12-.7-1.66c-.15-.32-.34-.63-.49-.95s-.21-.57-.33-.83c-.41-.92-.87-1.78-1.28-2.66-.22-.49-.41-1-.64-1.48a11.9,11.9,0,0,1-.65-1.48,29.46,29.46,0,0,1-1.35-2.82c-.11-.23-.25-.38-.36-.61s-.34-.84-.53-1.24a37.09,37.09,0,0,1-1.76-3.72,11.09,11.09,0,0,1-.91-2,9.79,9.79,0,0,1-.79-1.3c-.3-.59-.53-1.24-.84-1.88a9,9,0,0,1-.66-1.37C255.22,287.23,254.26,285.62,254.29,285.05Z" transform="translate(-9.26 -6.89)"/><path class="cls-37" d="M138.9,369.58c0,.22-.24.16-.22.39-.45,0-.94,0-1.43,0-.27,0-.52.13-.77.13s-.74-.06-1.13,0c-.09,0-.18.08-.27.09-.69.09-1.68.14-2.54.2h-.26l-.23,0c-.25,0-.49.12-.74.13l-.85.07-1.14.12c-.2,0-.4,0-.59,0s-.39.08-.57.1a5.24,5.24,0,0,1-.56,0,15.8,15.8,0,0,0-3.28.72c-.18.06-.35.17-.53.22a.55.55,0,0,1-.45,0,.53.53,0,0,1,0-.36c.56-.2,1.27-.41,2.09-.64.19-.06.41-.11.54-.14s.23,0,.26-.12c.28.11.62-.07.91-.1s.6,0,.9,0c.64-.07,1.33-.12,2-.21.16,0,.31-.05.47-.07s.35,0,.51,0,.2-.06.3-.07a2.06,2.06,0,0,1,.26,0c.28,0,.55-.09.82-.11s.31,0,.46,0a1.19,1.19,0,0,1,.46,0,2.1,2.1,0,0,1,.87-.09c.08,0,.13-.07.2-.08s.25,0,.38,0a3,3,0,0,1,1.16-.07,1,1,0,0,1,.63,0,1,1,0,0,1,.42-.18,5.78,5.78,0,0,1,.58,0c.15,0,.29-.09.43,0C138.23,369.5,138.76,369.3,138.9,369.58Z" transform="translate(-9.26 -6.89)"/><polyline points="241.74 382.47 247.75 317.55 252.71 382.47 238.59 382.47"/><path class="cls-38" d="M277.33,394.07h-87.9a11.58,11.58,0,0,1,9.33-4.72h88Z" transform="translate(-9.26 -6.89)"/><polygon class="cls-38" points="361.57 387.18 248.59 387.18 277.81 297.58 390.79 297.58 361.57 387.18"/><ellipse class="cls-3" cx="330.62" cy="355.78" rx="6.54" ry="5.09" transform="translate(-120.38 147) rotate(-22.54)"/><path class="cls-3" d="M313.32,326.14a2.35,2.35,0,0,1,.49.16,1.65,1.65,0,0,1,.31.2l.08-.3h3.13l.63-.3.93-5-5.05,2.41Z" transform="translate(-9.26 -6.89)"/><path class="cls-3" d="M311.75,326.2l0,.11,0,0a2.72,2.72,0,0,1,.81-.17l.1-.52.43-2.32-.3-.19-3.8-2.43-.94,5,.78.5Z" transform="translate(-9.26 -6.89)"/><polygon class="cls-3" points="305.34 315.27 309.35 313.36 305.29 310.76 300.24 313.18 304.3 315.77 305.34 315.27"/><path class="cls-3" d="M307,323.67l.11,2.53h.3a.34.34,0,0,1-.14-.35L308,322Z" transform="translate(-9.26 -6.89)"/><polygon class="cls-3" points="286.65 314.33 286.2 316.12 285.81 316.12 286.26 314.33 284.96 314.33 283.7 319.34 285 319.34 285.53 317.23 285.92 317.23 285.39 319.34 286.69 319.34 287.96 314.33 286.65 314.33"/><path class="cls-3" d="M298.11,321.22l-1.93,5h1.35l.31-.9h.46l-.16.9h1.33l.52-5Zm.38,3.22H298q.22-.66.78-2.1Q298.61,323.59,298.49,324.44Z" transform="translate(-9.26 -6.89)"/><path class="cls-3" d="M302.17,326.09a1.61,1.61,0,0,0,.63-.57,4.56,4.56,0,0,0,.39-1.1l.05-.2h-1.3l-.16.63a2,2,0,0,1-.18.52.24.24,0,0,1-.21.12c-.11,0-.16,0-.17-.12a1.39,1.39,0,0,1,.08-.47l.58-2.33a2.1,2.1,0,0,1,.17-.49.26.26,0,0,1,.23-.12c.1,0,.15,0,.16.1a1.34,1.34,0,0,1-.07.47l-.22.87h1.3l.12-.47a3.38,3.38,0,0,0,.14-1,.75.75,0,0,0-.35-.55,1.52,1.52,0,0,0-.89-.22,2,2,0,0,0-.79.14,2,2,0,0,0-.61.39,1.58,1.58,0,0,0-.35.53,7.26,7.26,0,0,0-.24.81l-.37,1.46a3.56,3.56,0,0,0-.16,1.1.71.71,0,0,0,.35.58,1.7,1.7,0,0,0,.89.2A2,2,0,0,0,302.17,326.09Z" transform="translate(-9.26 -6.89)"/><polygon class="cls-3" points="295.24 319.34 295.78 317.19 295.77 319.34 297.11 319.34 296.99 316.59 298.3 314.33 297.08 314.33 296.01 316.27 296.5 314.33 295.2 314.33 293.94 319.34 295.24 319.34"/><path class="cls-3" d="M302.39,327l-1.93,5h1.34l.31-.9h.46l-.15.9h1.33l.52-5Zm.37,3.22h-.44c.14-.45.4-1.15.78-2.11C303,328.9,302.84,329.6,302.76,330.17Z" transform="translate(-9.26 -6.89)"/><polygon class="cls-3" points="298.24 320.06 295.4 320.06 295.14 321.06 295.91 321.06 294.9 325.06 296.2 325.06 297.21 321.06 297.99 321.06 298.24 320.06"/><polygon class="cls-3" points="301.42 320.49 301.53 320.06 300.74 320.06 300.23 320.06 300.1 320.56 299.78 321.85 299.39 321.85 299.77 320.35 299.84 320.06 299.31 320.06 298.54 320.06 297.27 325.06 298.57 325.06 299.11 322.96 299.5 322.96 298.96 325.06 300.27 325.06 301.22 321.28 301.42 320.49"/><path class="cls-3" d="M313.77,329q0-.19.09-.36c.07-.32.12-.57.14-.72a.75.75,0,0,0,0-.15,1,1,0,0,0-.08-.42.86.86,0,0,0-.42-.4,1.35,1.35,0,0,0-.32-.09,1.4,1.4,0,0,0-.37,0,1.64,1.64,0,0,0-.38,0,1.59,1.59,0,0,0-.39.1,1.7,1.7,0,0,0-.61.4,1.41,1.41,0,0,0-.24.32,1.49,1.49,0,0,0-.13.25c0,.12-.09.29-.15.49s-.1.36-.15.58l-.22.86c-.13.51-.21.88-.24,1.08a1.08,1.08,0,0,0,.09.57.86.86,0,0,0,.42.4,1.6,1.6,0,0,0,.69.13,2.11,2.11,0,0,0,.77-.14,1.7,1.7,0,0,0,.61-.4,1.6,1.6,0,0,0,.37-.57c.07-.21.18-.57.3-1.07Zm-1.69,1.51a2.75,2.75,0,0,1-.17.56.22.22,0,0,1-.2.12c-.09,0-.14,0-.14-.1a1.88,1.88,0,0,1,.1-.54l.36-1.42.23-.92a1.24,1.24,0,0,1,.17-.46.25.25,0,0,1,.18-.08c.08,0,.12,0,.13.1a1.86,1.86,0,0,1-.07.44l-.28,1.09Z" transform="translate(-9.26 -6.89)"/><polygon class="cls-3" points="307.33 320.06 307.21 320.52 306.76 322.31 306.65 320.79 306.6 320.06 306.5 320.06 305.51 320.06 305.38 320.59 305.15 321.51 304.25 325.06 305.34 325.06 305.91 322.79 306.01 325.06 307.16 325.06 308.42 320.06 308.18 320.06 307.33 320.06"/><path class="cls-3" d="M364.48,377.15a1.75,1.75,0,0,0-.4,0l-.89.15-.21-1.25.88-.15a2.4,2.4,0,0,0,2-2.77,2.41,2.41,0,0,0-2.38-2l-.4,0-.89.15-.14-.88a2.41,2.41,0,0,0-2.38-2,2.69,2.69,0,0,0-.4,0,2.42,2.42,0,0,0-2,2.78l.15.88-1.24.22-.15-.89a2.4,2.4,0,0,0-2.37-2,2.83,2.83,0,0,0-.41,0,2.41,2.41,0,0,0-2,2.78l.15.89-.89.15a2.35,2.35,0,0,0-1.56,1,2.41,2.41,0,0,0,2,3.8,2.69,2.69,0,0,0,.4,0l.89-.15.21,1.24-.89.15a2.41,2.41,0,0,0,.4,4.79,1.9,1.9,0,0,0,.41,0l.88-.15.15.89a2.41,2.41,0,0,0,2.38,2,2.69,2.69,0,0,0,.4,0,2.42,2.42,0,0,0,2-2.78l-.15-.89,1.24-.21.15.89a2.4,2.4,0,0,0,2.37,2,1.75,1.75,0,0,0,.4,0,2.34,2.34,0,0,0,1.57-1,2.37,2.37,0,0,0,.41-1.79l-.15-.89.89-.15a2.41,2.41,0,0,0-.4-4.79Zm.21,3.69-2,.33.33,2a1.29,1.29,0,1,1-2.55.43l-.34-2-3.44.58.34,2a1.3,1.3,0,0,1-2.56.44l-.33-2-2,.33a1.29,1.29,0,0,1-.43-2.55l2-.33-.59-3.45-2,.34a1.29,1.29,0,0,1-.43-2.55l2-.34-.33-2a1.29,1.29,0,0,1,2.55-.43l.34,2,3.44-.58-.34-2a1.3,1.3,0,0,1,2.56-.43l.33,2,2-.34a1.3,1.3,0,0,1,1.49,1.06h0a1.29,1.29,0,0,1-1.06,1.49l-2,.34.58,3.44,2-.33a1.29,1.29,0,1,1,.43,2.55Z" transform="translate(-9.26 -6.89)"/><rect class="cls-3" x="355.96" y="375.88" width="3.49" height="3.49" transform="translate(-67.17 57.97) rotate(-9.59)"/><path class="cls-3" d="M285.16,369a.62.62,0,0,0-.62,0l-9.2,4.82a.66.66,0,0,0-.32.44l-.33,1.85h17.75l.31-1.75a.61.61,0,0,0-.27-.62Z" transform="translate(-9.26 -6.89)"/><path class="cls-3" d="M273.33,383.77a.64.64,0,0,0,.27.63l7.32,4.7a.6.6,0,0,0,.62,0l9.2-4.81a.61.61,0,0,0,.32-.44l.33-1.86H273.64Z" transform="translate(-9.26 -6.89)"/><rect class="cls-3" x="267.75" y="371.79" width="11.95" height="1"/><path class="cls-3" d="M363.26,338.14a3,3,0,0,0,2.13,3.3,5.3,5.3,0,0,0,5.15-1.16Z" transform="translate(-9.26 -6.89)"/><path class="cls-39" d="M377,346l-3.75.47a8.33,8.33,0,0,0,.16-1,8,8,0,0,0-8.08-9,10.28,10.28,0,0,0-10,9,8.87,8.87,0,0,0,.06,2.31.86.86,0,0,1-.75,1l-3.82.48a.83.83,0,0,0-.73.83v2.51a.84.84,0,0,0,.92.84l6.92-.67a.86.86,0,0,1,.58.16,8.17,8.17,0,0,0,4.9,1.57,10,10,0,0,0,6.76-2.75.88.88,0,0,1,.48-.22l5.82-.56a.86.86,0,0,0,.74-.67l.7-3.29A.85.85,0,0,0,377,346Zm-11.59-4.55a3,3,0,0,1-2.13-3.3l7.28,2.14A5.3,5.3,0,0,1,365.39,341.44Z" transform="translate(-9.26 -6.89)"/><path class="cls-39" d="M319.74,320.21a.28.28,0,0,0,0-.09s0-.05-.06-.07l-.05-.07h0l-4.78-3a.34.34,0,0,0-.35,0l-5.87,2.8,0,0a.69.69,0,0,0-.13.11l0,.06a.47.47,0,0,0-.05.1l-.09.49h-4.4l-.06.27,0,0a2.26,2.26,0,0,0-1.32-.36,2.86,2.86,0,0,0-1.06.2,2.38,2.38,0,0,0-.64.37l.05-.46h-7.17L292,327h8.14v-.11a2.45,2.45,0,0,0,1,.22l.35,0-2.17,5.64h10.74l.08-.3a1.73,1.73,0,0,0,1.31.4,2.8,2.8,0,0,0,1.05-.19l0,0,0,.11H317l1.63-6.45,0-.06,1.09-5.86v0h0A.29.29,0,0,0,319.74,320.21Zm-5.18-2.55,4.06,2.59-4,1.92-1.05.49-4.05-2.59Zm-1.76,5.43.3.19-.43,2.32-.1.52a2.72,2.72,0,0,0-.81.17l0,0,0-.11h-2.91l-.78-.5.94-5Zm-5.38,3.11h-.3l-.11-2.53,1-1.72-.72,3.9A.34.34,0,0,0,307.42,326.2Zm-2.95-5h1.3l-.49,1.95,1.07-1.95h1.22l-1.32,2.26.13,2.75H305l0-2.15-.55,2.15h-1.3Zm-9.82,5,.54-2.11h-.39l-.53,2.11H293l1.27-5h1.3l-.45,1.79h.39l.45-1.79h1.3l-1.26,5Zm3.49,0,.16-.9h-.46l-.31.9h-1.35l1.93-5H300l-.52,5Zm3.05.1a1.7,1.7,0,0,1-.89-.2.71.71,0,0,1-.35-.58,3.56,3.56,0,0,1,.16-1.1l.37-1.46a7.26,7.26,0,0,1,.24-.81,1.58,1.58,0,0,1,.35-.53,2,2,0,0,1,.61-.39,2,2,0,0,1,.79-.14,1.52,1.52,0,0,1,.89.22.75.75,0,0,1,.35.55,3.38,3.38,0,0,1-.14,1l-.12.47h-1.3l.22-.87a1.34,1.34,0,0,0,.07-.47c0-.07-.06-.1-.16-.1a.26.26,0,0,0-.23.12,2.1,2.1,0,0,0-.17.49l-.58,2.33a1.39,1.39,0,0,0-.08.47c0,.08.06.12.17.12a.24.24,0,0,0,.21-.12,2,2,0,0,0,.18-.52l.16-.63h1.3l-.05.2a4.56,4.56,0,0,1-.39,1.1,1.61,1.61,0,0,1-.63.57A2,2,0,0,1,301.19,326.33Zm1.23,5.62.15-.9h-.46l-.31.9h-1.34l1.93-5h1.88l-.52,5Zm3.05,0h-1.3l1-4h-.77l.25-1h2.85l-.26,1h-.77Zm4.06,0h-1.3l.53-2.1h-.39l-.53,2.1h-1.3l1.26-5h1.3l-.07.29-.38,1.5H309l.33-1.29.12-.5h1.31l-.11.43-.2.79Zm3.35-.43a1.7,1.7,0,0,1-.61.4,2.11,2.11,0,0,1-.77.14,1.6,1.6,0,0,1-.69-.13.86.86,0,0,1-.42-.4,1.08,1.08,0,0,1-.09-.57c0-.2.11-.57.24-1.08l.22-.86c.05-.22.1-.41.15-.58s.11-.37.15-.49a1.49,1.49,0,0,1,.13-.25,1.41,1.41,0,0,1,.24-.32,1.7,1.7,0,0,1,.61-.4,1.59,1.59,0,0,1,.39-.1,1.64,1.64,0,0,1,.38,0,1.4,1.4,0,0,1,.37,0,1.35,1.35,0,0,1,.32.09.86.86,0,0,1,.42.4,1,1,0,0,1,.08.42.75.75,0,0,1,0,.15c0,.15-.07.4-.14.72q0,.16-.09.36l-.22.86c-.12.5-.23.86-.3,1.07A1.6,1.6,0,0,1,312.88,331.52Zm3.54.43h-1.14l-.1-2.27L314.6,332h-1.09l.9-3.55.23-.91.14-.54h1.09l.05.73.11,1.52.45-1.79.12-.46h1.08ZM318,325.9l-.63.3H314.2l-.08.3a1.65,1.65,0,0,0-.31-.2,2.35,2.35,0,0,0-.49-.16l.52-2.81,5.05-2.41Z" transform="translate(-9.26 -6.89)"/><path class="cls-40" d="M298.49,324.44q.12-.85.33-2.1-.56,1.44-.78,2.1Z" transform="translate(-9.26 -6.89)"/><path class="cls-40" d="M302.76,330.17c.08-.57.19-1.27.34-2.11-.38,1-.64,1.66-.78,2.11Z" transform="translate(-9.26 -6.89)"/><path class="cls-40" d="M312.43,327.77a1.24,1.24,0,0,0-.17.46l-.23.92-.36,1.42a1.88,1.88,0,0,0-.1.54c0,.07.05.1.14.1a.22.22,0,0,0,.2-.12,2.75,2.75,0,0,0,.17-.56l.31-1.21.28-1.09a1.86,1.86,0,0,0,.07-.44c0-.07-.05-.1-.13-.1A.25.25,0,0,0,312.43,327.77Z" transform="translate(-9.26 -6.89)"/><path class="cls-39" d="M364.26,378.29l-2,.33-.58-3.44,2-.34a1.29,1.29,0,0,0,1.06-1.49h0a1.3,1.3,0,0,0-1.49-1.06l-2,.34-.33-2a1.3,1.3,0,0,0-2.56.43l.34,2-3.44.58-.34-2a1.29,1.29,0,0,0-2.55.43l.33,2-2,.34a1.29,1.29,0,0,0,.43,2.55l2-.34.59,3.45-2,.33a1.29,1.29,0,0,0,.43,2.55l2-.33.33,2a1.3,1.3,0,0,0,2.56-.44l-.34-2,3.44-.58.34,2a1.29,1.29,0,1,0,2.55-.43l-.33-2,2-.33a1.29,1.29,0,1,0-.43-2.55Zm-8,1.34-.58-3.44,3.44-.58.58,3.44Z" transform="translate(-9.26 -6.89)"/><path class="cls-39" d="M293.05,376.08h-19a.74.74,0,0,0-.69.59l-.85,4.76a.48.48,0,0,0,.49.59h19a.72.72,0,0,0,.69-.59l.85-4.76A.48.48,0,0,0,293.05,376.08Zm-4.09,3.6H277v-1H289Z" transform="translate(-9.26 -6.89)"/><path class="cls-41" d="M240.8,250.13s-.46,2-1.71,2c-2.23,0-6.54-1-8.8-.71a6.38,6.38,0,0,1,4.43-1.3A22.48,22.48,0,0,0,240.8,250.13Z" transform="translate(-9.26 -6.89)"/><path d="M167.82,284.07s-2.6,13.49,8.8,20.4l-2.08-.76a18,18,0,0,1-11.6-19.64h4.88Z" transform="translate(-9.26 -6.89)"/><path class="cls-35" d="M427.18,374.36v9.79h-7.55a2.24,2.24,0,0,1-2.25-2.24v-5.3a2.25,2.25,0,0,1,2.25-2.25h7.55m4-4H419.63a6.25,6.25,0,0,0-6.25,6.25v5.3a6.24,6.24,0,0,0,6.25,6.24h11.55V370.36Z" transform="translate(-9.26 -6.89)"/><path class="cls-35" d="M411.61,360h27.13a0,0,0,0,1,0,0v20.89a6.24,6.24,0,0,1-6.24,6.24H417.86a6.24,6.24,0,0,1-6.24-6.24V360A0,0,0,0,1,411.61,360Z"/><polygon class="cls-42" points="411.61 367.47 411.61 363.47 410.36 367.47 411.61 367.47"/><polygon class="cls-42" points="411.61 381.26 411.61 377.26 410.99 377.26 410.36 381.26 411.61 381.26"/><path class="cls-43" d="M549.43,394.06c-.22.05-.21-1.44-.44-1.32-.08-2.82-.19-5.85-.23-8.84,0-1.66-.11-3.23-.11-4.8,0-.93,0-2.07,0-3.29s.11-2.48.13-3.69c0-.56,0-1.15,0-1.7,0-1.08.05-2.27.08-3.54s.15-2.6.22-4,.17-2.78.25-4.18.23-2.78.35-4.11c0-.47.09-1,.14-1.55s.12-1,.17-1.39c.12-1.54.24-3.13.4-4.63.19-1.76.39-3.5.59-5.25.3-2.38.61-4.8.9-7.08.2-1.19.4-2.34.61-3.53s.33-2.41.48-3.53.41-2.21.62-3.37c1.22-7,2.41-13.85,3.77-20.42.24-1.16.45-2.36.7-3.49a17.4,17.4,0,0,1,.75-2.56c.23-.15.21.26.25.5-.81,3.48-1.74,7.91-2.67,13-.23,1.21-.48,2.55-.62,3.35a8,8,0,0,0-.24,1.68c-.43,1.51-.71,3.71-1,5.49s-.65,3.52-1,5.35c-.62,3.89-1.26,8-1.75,12.12-.11,1-.23,1.94-.34,2.92l-.4,3.09c-.05.61-.1,1.25-.15,1.85s-.15,1.05-.22,1.54c-.21,1.72-.27,3.41-.42,5.09-.09.93-.18,1.84-.28,2.78s-.14,1.92-.25,2.79c0,1.75-.18,3.56-.28,5.41,0,.45,0,.78,0,1.23,0,.74-.14,1.55-.15,2.33,0,1.89,0,4.89-.21,7.12,0,1,0,2.82-.06,3.88.07.69.14,1.59.16,2.62s-.07,2.32,0,3.57a23.84,23.84,0,0,1,.1,2.62C549.39,390,549.68,393.18,549.43,394.06Z" transform="translate(-9.26 -6.89)"/><path class="cls-43" d="M559.24,365.07c.18.13-.23.53,0,.65-.67.83-1.43,1.7-2.14,2.6-.39.49-.68,1-1.06,1.48s-1.16,1.3-1.72,2c-.13.17-.23.38-.36.54-1,1.31-2.48,3.12-3.79,4.69l-.39.44c-.11.13-.27.26-.37.38l-.28.34-.28.36-.26-.39c-.25-.37-.52-.74-.74-1.11l-1-1.73L545.39,373c-.23-.4-.4-.81-.63-1.21s-.51-.78-.73-1.15-.4-.75-.62-1.14c-1.34-2.37-2.81-4.57-4.2-6.71-.25-.37-.55-.74-.78-1.11a2.7,2.7,0,0,1-.42-.93c.12-.16.26-.07.39-.06l2.78,4.25.7,1.1c.14.22.26.45.4.51a10.22,10.22,0,0,0,1.06,1.84c.35.59.63,1.21,1,1.83.76,1.3,1.56,2.68,2.38,4l.6.94c.2.33.36.72.56,1.05s.29.38.41.58.17.37.27.53.24.41.37.6h-.13c.26-.33.51-.66.77-1l.71-.79a5.48,5.48,0,0,1,.71-.8,12.62,12.62,0,0,1,1.28-1.62c.11-.13.14-.26.25-.4s.41-.43.59-.66a18.21,18.21,0,0,1,1.71-2.11,6.34,6.34,0,0,0,1.47-2c.26-.35.6-.65.89-1a3.59,3.59,0,0,1,.63-.79C558.19,366.22,558.82,365.15,559.24,365.07Z" transform="translate(-9.26 -6.89)"/><path class="cls-43" d="M561.06,331.13c.18.14-.21.5,0,.63-.66.75-1.39,1.54-2.08,2.35-.37.46-.66.94-1,1.36s-1.13,1.17-1.67,1.84c-.12.15-.22.34-.34.5-1,1.18-2.41,2.82-3.68,4.24l-.38.41c-.11.11-.27.22-.37.34s-.33.39-.49.6l-.26.34-.3-.36c-.18-.23-.37-.45-.53-.69l-1.07-1.54-1.46-2.07c-.24-.35-.42-.73-.66-1.09s-.53-.68-.76-1-.42-.68-.65-1c-1.4-2.11-2.91-4.06-4.36-6-.25-.33-.55-.65-.8-1a2.34,2.34,0,0,1-.44-.84c.11-.17.25-.1.38-.1l2.87,3.77.73,1c.14.2.27.4.4.45a9.56,9.56,0,0,0,1.12,1.64c.35.53.66,1.1,1,1.64.79,1.17,1.62,2.4,2.48,3.59l.62.84c.21.29.38.64.59.94s.29.34.41.51.19.33.29.48l.16.23h-.11c.34-.39.64-.8,1-1.17l.69-.72a4.72,4.72,0,0,1,.69-.72,10,10,0,0,1,1.24-1.47c.11-.12.14-.25.24-.37s.4-.39.58-.6a14.89,14.89,0,0,1,1.66-1.91,4.11,4.11,0,0,1,.94-1,3.45,3.45,0,0,1,.49-.8c.25-.33.58-.59.86-.93a3.32,3.32,0,0,1,.61-.72C560,332.18,560.65,331.19,561.06,331.13Z" transform="translate(-9.26 -6.89)"/><path class="cls-44" d="M55.44,394.07a9.61,9.61,0,0,0,7.35-15.8l-9.45,15.57A9.72,9.72,0,0,0,55.44,394.07Z" transform="translate(-9.26 -6.89)"/><path class="cls-44" d="M55.44,374.84a9.61,9.61,0,0,0-5.63,17.4l9.93-16.37A9.54,9.54,0,0,0,55.44,374.84Z" transform="translate(-9.26 -6.89)"/><path class="cls-3" d="M59.74,375.87l-9.93,16.37a9.69,9.69,0,0,0,3.53,1.6l9.45-15.57A9.53,9.53,0,0,0,59.74,375.87Z" transform="translate(-9.26 -6.89)"/><path class="cls-44" d="M77.75,393.86a9.62,9.62,0,0,0,9.43-15.53Z" transform="translate(-9.26 -6.89)"/><path class="cls-3" d="M84.14,375.9,74.2,392.29a9.56,9.56,0,0,0,3.55,1.57l9.43-15.53A9.72,9.72,0,0,0,84.14,375.9Z" transform="translate(-9.26 -6.89)"/><path class="cls-44" d="M79.76,374.84a9.61,9.61,0,0,0-5.56,17.45l9.94-16.39A9.6,9.6,0,0,0,79.76,374.84Z" transform="translate(-9.26 -6.89)"/><path class="cls-45" d="M63,384.46c-.22,0-.21-.91-.44-.82a9.26,9.26,0,0,0-1.91-4.91,9.85,9.85,0,0,0-2.16-1.89,8.76,8.76,0,0,0-3.84-1.56,5.83,5.83,0,0,0-1,0,9.39,9.39,0,0,0-8,4.1c-.15.25-.34.52-.5.79s-.3.5-.41.74a9.7,9.7,0,0,0-.61,2.7,9.15,9.15,0,0,0,.2,3.13,9.25,9.25,0,0,0,1.93,3.78,7.78,7.78,0,0,0,3.4,2.6,10.37,10.37,0,0,0,2,.66,9.12,9.12,0,0,0,6.26-1,8.86,8.86,0,0,0,4.6-6.69c.1-.47.15-1.15.29-1.59.19-.13.25.12.35.27a10,10,0,0,1-3.57,7.45,9.72,9.72,0,0,1-1.85,1.19,8.75,8.75,0,0,0-1,.49,16.29,16.29,0,0,1-3.56.54,9.57,9.57,0,0,1-3.38-.78,10.11,10.11,0,0,1-5.43-5.29,8.15,8.15,0,0,1-.74-3.72c0-.39,0-.79,0-1.17s.15-.65.2-1a9.93,9.93,0,0,1,1.13-3,9.54,9.54,0,0,1,1.06-1.4A6.17,6.17,0,0,1,47.28,377a7.37,7.37,0,0,1,2.94-1.63,6.3,6.3,0,0,1,.72-.28,9.74,9.74,0,0,1,1.45-.2,8.11,8.11,0,0,1,4.38.6,5.1,5.1,0,0,1,2.11,1.17c.19.1.42.22.65.37a8.44,8.44,0,0,1,.71.57,9.55,9.55,0,0,1,1.36,1.8,5,5,0,0,1,.76,1.47,9.17,9.17,0,0,1,.67,2A3.48,3.48,0,0,1,63,384.46Z" transform="translate(-9.26 -6.89)"/><path class="cls-45" d="M87.36,384.46c-.22,0-.21-.91-.44-.82a9.16,9.16,0,0,0-1.9-4.91,10.32,10.32,0,0,0-2.16-1.89A8.75,8.75,0,0,0,79,375.28a5.69,5.69,0,0,0-1,0,9.42,9.42,0,0,0-8,4.1c-.14.25-.34.52-.49.79s-.3.5-.41.74a10.09,10.09,0,0,0-.62,2.7,9.41,9.41,0,0,0,.21,3.13,9.25,9.25,0,0,0,1.93,3.78A8.8,8.8,0,0,0,72.09,392,9,9,0,0,0,74,393.09a10.46,10.46,0,0,0,2,.66,9.09,9.09,0,0,0,6.25-1,8.94,8.94,0,0,0,4.61-6.69,16,16,0,0,1,.29-1.59c.19-.13.25.12.35.27a10,10,0,0,1-3.58,7.45A9.68,9.68,0,0,1,82,393.4a7.94,7.94,0,0,0-1,.49,16.39,16.39,0,0,1-3.56.54,9.62,9.62,0,0,1-3.39-.78,10.09,10.09,0,0,1-5.42-5.29,9.94,9.94,0,0,1-.59-1.77,10.62,10.62,0,0,1-.16-1.95c0-.39,0-.79,0-1.17s.14-.65.19-1a10.23,10.23,0,0,1,1.14-3,8.89,8.89,0,0,1,1.06-1.4A5.93,5.93,0,0,1,71.61,377a7.31,7.31,0,0,1,2.94-1.63,6.3,6.3,0,0,1,.72-.28,9.74,9.74,0,0,1,1.45-.2,8.11,8.11,0,0,1,4.38.6,5.68,5.68,0,0,1,1.1.45,6.3,6.3,0,0,1,1,.72c.19.1.41.22.65.37s.46.35.71.57a9.11,9.11,0,0,1,1.35,1.8,5.07,5.07,0,0,1,.77,1.47,9.18,9.18,0,0,1,.66,2A3.35,3.35,0,0,1,87.36,384.46Z" transform="translate(-9.26 -6.89)"/><line class="cls-3" x1="53.65" y1="377.56" x2="58.75" y2="377.56"/><path class="cls-45" d="M68,384.34c0,.22-.07.16-.07.4a3.46,3.46,0,0,0-.46,0c-.09,0-.17.11-.25.11s-.24-.08-.37-.05-.06.06-.09.06a2.83,2.83,0,0,1-.83,0l-.08,0s0,0-.07,0-.17.06-.25,0l-.27,0c-.13,0-.26,0-.38,0s-.12-.09-.19-.1-.12,0-.18,0-.12-.05-.18-.07a2.35,2.35,0,0,0-1.09,0c-.06,0-.13.08-.19.08s-.1,0-.14-.14a1.78,1.78,0,0,1,0-.36l.7-.12a.65.65,0,0,1,.18,0s.07,0,.09-.07c.08.16.2,0,.29.06s.19.11.29.13a4.69,4.69,0,0,0,.64.09l.16,0s.11.07.16.08.07,0,.1,0,0,.05.08.05.18,0,.27,0,.1,0,.14,0,.11,0,.15.05c.09-.12.19,0,.29,0s0-.06.06-.06.08.05.12,0,.26-.13.38,0a.12.12,0,0,1,.2,0c0-.07.08-.14.14-.16s.12.05.19,0,.09-.09.13,0S68,384.07,68,384.34Z" transform="translate(-9.26 -6.89)"/><path class="cls-45" d="M64.33,393.76c-.22,0-.16-.12-.39-.12,0-.25.05-.51.07-.77s-.08-.3-.05-.43.15-.38.18-.59c0-.05,0-.12,0-.17a3.74,3.74,0,0,1,.5-1.31.44.44,0,0,1,.08-.11s.08-.06.1-.09.09-.27.17-.38a3.37,3.37,0,0,1,.29-.37,4.72,4.72,0,0,1,.41-.48c.07-.07.2-.09.28-.16s.13-.17.2-.24.19-.09.27-.15c.53-.33,1-.73,1.44-1.06.09-.06.16-.16.25-.2a.2.2,0,0,1,.26,0,1.11,1.11,0,0,1,.12.35,5.85,5.85,0,0,0-.89.62,1.46,1.46,0,0,1-.22.17s-.1,0-.07.13c-.19-.05-.26.15-.38.23s-.28.11-.41.2a4.81,4.81,0,0,0-.74.69,1.48,1.48,0,0,1-.13.21c-.05.06-.15.1-.21.17s0,.11,0,.15-.09.05-.12.08a2.76,2.76,0,0,0-.18.39c0,.06-.11.11-.15.18s0,.16-.14.2c.06.18-.1.28-.14.43s0,.08,0,.12-.1.11-.11.17,0,.43-.15.58a.28.28,0,0,1-.1.31.46.46,0,0,1,.12.24c0,.09-.07.18-.07.28s.07.16,0,.22S64.6,393.69,64.33,393.76Z" transform="translate(-9.26 -6.89)"/><path class="cls-45" d="M27,393.76c-.22,0-.15-.34-.38-.32a7.67,7.67,0,0,1,.41-2.08,5.67,5.67,0,0,1,.36-1.1,10.44,10.44,0,0,1,1-1.37c.08-.1.14-.24.23-.34A6.33,6.33,0,0,1,30,387.37a12,12,0,0,1,1.79-.84l.33-.12c.11,0,.23-.05.32-.08.33-.13.64-.35,1-.48l1.13-.46c.51-.21,1-.45,1.52-.64.26-.1.54-.13.8-.23s.51-.25.75-.35.5-.16.75-.25a45.15,45.15,0,0,0,4.39-2c.24-.12.48-.29.72-.4a1.1,1.1,0,0,1,.62-.12c.12.15.06.25,0,.37l-2.77,1.35c-.25.13-.54.25-.71.33s-.3.12-.34.22a3.85,3.85,0,0,0-1.21.46c-.38.15-.8.24-1.2.39-.85.33-1.76.67-2.63,1.05l-.62.29c-.22.09-.47.13-.69.22s-.25.15-.38.2-.24.06-.35.1c-.38.14-.71.35-1.07.5l-.61.21a2,2,0,0,1-.61.22c-.32.28-.72.4-1.07.65-.09.06-.11.15-.19.22s-.31.18-.44.31c-.33.29-.68.88-1.08,1.22a2.51,2.51,0,0,1-.49.74,2.47,2.47,0,0,1-.11.61c-.09.25-.23.48-.31.75a1.71,1.71,0,0,1-.12.58C27.09,392.85,27.25,393.56,27,393.76Z" transform="translate(-9.26 -6.89)"/><path class="cls-23" d="M184.66,212.17c1.93-.29,2.67,2.33,3.4,3.61a7.49,7.49,0,0,0,1.81,2.15c1.81,1.45,4.37,2,5.55,4.13a1,1,0,0,0,1.73-1c-1.55-2.8-4.93-3.14-6.84-5.51s-2.4-5.86-6.18-5.3c-1.27.19-.73,2.12.53,1.93Z" transform="translate(-9.26 -6.89)"/><path class="cls-23" d="M194.17,204.39c1.7,1.59,1.1,4.37,2,6.38.82,1.82,3.68,3.64,3.39,5.76-.17,1.26,1.76,1.8,1.93.53.39-2.87-1.66-4.13-3.06-6.35-1.55-2.45-.59-5.62-2.85-7.73-.94-.88-2.35.53-1.41,1.41Z" transform="translate(-9.26 -6.89)"/><path class="cls-23" d="M179.67,221.58c1.7,1.51,3.05,3.62,5.16,4.61,2.53,1.19,7-.68,8.72,1.82.73,1.05,2.46.05,1.72-1-1.37-2-3.43-2.3-5.71-2.25s-3.89-.05-5.62-1.68c-1-.94-1.83-2-2.85-2.91s-2.38.56-1.42,1.42Z" transform="translate(-9.26 -6.89)"/><path class="cls-23" d="M272,238.87a10.91,10.91,0,0,1,3.14,5.34c.45,1.92.12,3.84.37,5.77a6.09,6.09,0,0,0,1.07,2.9c1.17,1.62,3.94,2.44,4,4.73a1,1,0,0,0,2,0,5,5,0,0,0-1.91-3.76,18.81,18.81,0,0,1-2.24-1.83c-1.09-1.36-1-2.86-1-4.47a13.49,13.49,0,0,0-4-10.09c-.92-.91-2.34.51-1.41,1.41Z" transform="translate(-9.26 -6.89)"/><path class="cls-23" d="M281,242.63a8.63,8.63,0,0,0,2.94,7.55c3,2.87,3.74,5.67,4.09,9.71.12,1.27,2.12,1.28,2,0-.24-2.75-.5-5.63-1.95-8-2-3.35-5.61-4.64-5.08-9.21.14-1.27-1.86-1.26-2,0Z" transform="translate(-9.26 -6.89)"/><path class="cls-23" d="M126.48,269.86a9.6,9.6,0,0,0-10.59,5.26c-1.33,2.92-1.5,5.72-4.54,7.5-2.53,1.49-5.58,1.95-8.45,2.31-1.26.16-1.27,2.16,0,2,4.27-.54,9.22-1.3,12.13-4.82,1.66-2,1.72-4.52,2.93-6.7a7.61,7.61,0,0,1,8-3.62c1.26.24,1.8-1.69.53-1.93Z" transform="translate(-9.26 -6.89)"/><path class="cls-23" d="M111.63,272.72A11.54,11.54,0,0,1,103.4,278c-1.26.16-1.27,2.16,0,2a13.64,13.64,0,0,0,9.95-6.25c.7-1.08-1-2.09-1.72-1Z" transform="translate(-9.26 -6.89)"/><path class="cls-37" d="M153.59,319.2c.21,0-.07.8.17.81-.43,1.46-.93,3-1.36,4.59-.24.86-.39,1.71-.62,2.52-.29,1-.78,2.35-1.12,3.61-.08.3-.12.61-.2.91-.6,2.25-1.55,5.44-2.39,8.22-.07.24-.17.53-.26.8s-.19.49-.26.71c-.25.8-.42,1.65-.66,2.43l-.84,2.74c-.38,1.24-.73,2.51-1.11,3.7-.2.62-.45,1.2-.64,1.83s-.35,1.27-.53,1.86-.39,1.15-.59,1.75c-1.19,3.68-2.16,7.31-3.13,10.81-.17.62-.29,1.27-.46,1.87a5.3,5.3,0,0,1-.54,1.34c-.21.06-.22-.17-.28-.32.51-1.87,1.17-4.23,1.91-6.95.17-.65.37-1.36.5-1.78a3.07,3.07,0,0,0,.19-.9,19.63,19.63,0,0,0,.91-2.89c.3-.93.65-1.83.95-2.79.64-2,1.33-4.21,2-6.35.15-.51.28-1,.43-1.53s.39-1.07.55-1.6c.1-.32.15-.66.24-1s.21-.53.29-.79c.28-.9.49-1.79.76-2.67.14-.48.32-.94.47-1.44a12.77,12.77,0,0,1,.47-1.44,24,24,0,0,1,.8-2.82c.07-.24.06-.42.12-.66.11-.39.29-.79.41-1.2a33.13,33.13,0,0,1,1.08-3.71,9.71,9.71,0,0,1,.63-2,8.37,8.37,0,0,1,.24-1.4c.16-.61.41-1.2.59-1.84a7,7,0,0,1,.39-1.38C152.88,321.3,153.19,319.57,153.59,319.2Z" transform="translate(-9.26 -6.89)"/><path class="cls-1" d="M671.57,393.84c.23.44-9.93.32-9.17.79-19.25,0-39.91-.07-60.31,0-11.33,0-22,.22-32.69.22-12.73,0-31.15-.17-47.64-.11-3.81,0-7.77.12-11.57.14-29.33.11-71.34.08-107.87,0-3.23,0-7,0-10.61,0-3.15,0-6.66-.1-9.56-.11-10.49,0-21.38.13-31.69.11l-36-.07c-16.39,0-33,0-48.69,0-8.24,0-16.16-.18-24.41-.21s-16.56.05-24.31,0c-8,0-15.32-.11-23.34-.15-48.57-.21-95.91,0-141.7.08-8.06,0-16.35.15-24.26.16-5.39,0-13.21,0-18.1-.28-1.42-.37,1.34-.51,2.85-.72,24.42-.06,55.35-.13,90.85-.25,8.38,0,17.7,0,23.26,0,4.69,0,9.44,0,11.57-.14,10.64.33,25.78.09,38.14.13s24.4.2,37.13.24c26.93.09,55.56.18,83.64.18,6.7,0,13.31,0,20.08,0,6.92,0,14.26.15,21.23.15,4.22,0,8.56-.08,12.65-.07,3.6,0,7.21.09,10.63.1,11.86,0,23.36-.07,34.88-.05,6.37,0,12.61.08,19.08.09s13.09,0,19.08.1c11.93-.24,24.32,0,37-.06,3,0,5.28-.12,8.39-.13,5.05,0,10.6.11,15.92.1,12.87,0,33.35-.28,48.65,0,6.72-.13,19.2-.1,26.49.08,4.69-.15,10.85-.29,17.83-.32,7.89-.05,15.89.1,24.37.08,6.29,0,12.33-.19,18,0C643.62,393.66,665.6,393.29,671.57,393.84Z" transform="translate(-9.26 -6.89)"/><path class="cls-33" d="M124.54,296.81c2.31,9.54,11.39,15.93,18.79,21.13,3.51,2.46,6.72,4.73,8.71,6.93,1.38,1.52,2.18,3,2.07,4.53-.22,3.18-2.34,5.57-5.6,7.52l-.8,2.71c4.8-2.4,8.07-5.5,8.4-10.09.17-2.46-1.19-4.69-3.42-6.87a67.46,67.46,0,0,0-8.21-6.37c-7.84-5.51-16.69-11.75-18.25-21.25,0-.2-.08-.39-.1-.58-.54-4.16,2-7.19,4.31-9,9.32-7.46,25.77-6.7,38-2.75a15,15,0,0,1,1-1.79c-17.78-6-33-2.9-40.3,3-3.77,3-5.56,6.86-5,10.82A19.8,19.8,0,0,0,124.54,296.81Z" transform="translate(-9.26 -6.89)"/><path class="cls-33" d="M183.16,365.3a77.58,77.58,0,0,0-11.11,4.39c-2.39,1.08-5,2.3-7.84,3.62C141.44,383.9,107,399.91,97,388.54a18.27,18.27,0,0,1-1.8-2.42A14.39,14.39,0,0,1,93,376.61c.75-6.49,5.48-12.6,9.66-16.83l1.08-3.84C99,360.21,92,367.85,91,376.38a16.53,16.53,0,0,0,3.51,12.24c.32.42.65.83,1,1.24a13.62,13.62,0,0,0,8.56,4.21,26.64,26.64,0,0,0,4,.29,39.37,39.37,0,0,0,4.62-.29c15.49-1.79,36.65-11.63,52.38-18.95,4.45-2.07,8.56-4,12-5.43a50.06,50.06,0,0,1,6.63-2.45c5.5-1.37,8.75.51,10.55,2.45h2.51C194.84,367,190.81,363.4,183.16,365.3Z" transform="translate(-9.26 -6.89)"/><path class="cls-46" d="M382.91,301.84a14,14,0,0,0-6.37,2.63h13A7.27,7.27,0,0,0,382.91,301.84Z" transform="translate(-9.26 -6.89)"/><path class="cls-33" d="M307.91,301c-2.64-1-6.8-2.2-11.61-3.63h0c-8.62-2.56-20.31-6-30.2-10.1a28.76,28.76,0,0,0,.86-5.52,42.33,42.33,0,0,0-1.05-13q-.25-.93-.54-1.77c-3-8.75-9.2-10.12-10.82-10.33l-.59,0a7.66,7.66,0,0,0-4.78,1.35,2.34,2.34,0,0,0,2.12,1.11,5.79,5.79,0,0,1,1.84-.46l.42,0a4.56,4.56,0,0,1,.73.05c5,.63,7.9,4.61,9.42,9.84.2.69.38,1.41.53,2.14a43.49,43.49,0,0,1,.72,11.05,26.23,26.23,0,0,1-.72,4.83A62,62,0,0,1,252,279.8a16.3,16.3,0,0,1-4.43-4.57,12.09,12.09,0,0,1-1.79-7.6,4.26,4.26,0,0,1-1.12-2.62v-1c-.2.5-.37,1-.52,1.53a13.52,13.52,0,0,0,1.7,10.69c1.45,2.5,4.21,4.87,7.81,7.1.81.5,1.66,1,2.54,1.47,2.3,1.26,4.84,2.47,7.53,3.63a42.43,42.43,0,0,1-3.72,8.39,90.31,90.31,0,0,1-13.38,17.25c.66-10.57-.62-20-6.15-25.25a20.07,20.07,0,0,0-7.79-4.75,14.4,14.4,0,0,0-2.25-.51c.16.17.33.33.48.51a2.48,2.48,0,0,1,.65,1.55,26.32,26.32,0,0,1,7.54,4.66c3.23,3,6.77,9,5.28,26.09-9,9-19.39,17.34-27.85,24.12-7.34,5.87-13.13,10.51-15.21,13.42a23.67,23.67,0,0,0-4.17,15.78h2a21.88,21.88,0,0,1,3.77-14.62c1.92-2.68,7.62-7.24,14.83-13,8-6.38,17.63-14.12,26.28-22.56-.59,5.17-1.6,11.25-3.16,18.44-2.79,12.84-1.21,23.79,4.46,30.82,4.13,5.12,18.09,8.3,18.09,8.3l.65-2s-13.27-2.72-17.18-7.57c-5.28-6.55-6.73-16.91-4.07-29.15a182.57,182.57,0,0,0,3.53-21.17A99.64,99.64,0,0,0,261,299a46.73,46.73,0,0,0,4.55-9.79c1.9.78,3.87,1.53,5.87,2.26,8.25,3,17.05,5.65,24.33,7.81l2.17.64c3.85,1.15,7.14,2.15,9.32,2.95,1.52.55,2.93,1.07,4.23,1.6h4.68A56.29,56.29,0,0,0,307.91,301Z" transform="translate(-9.26 -6.89)"/><path class="cls-33" d="M391.57,303.82a9.35,9.35,0,0,0-8.87-4c-3.08.33-6.27,1.92-9.45,4.62h3.29a14,14,0,0,1,6.37-2.63,7.27,7.27,0,0,1,6.61,2.63H392A6.21,6.21,0,0,0,391.57,303.82Z" transform="translate(-9.26 -6.89)"/><path class="cls-37" d="M188.43,369.81c0-.22.28-.16.26-.4.56,0,1.15,0,1.74,0,.33,0,.64-.11.95-.11s.89.08,1.37.05c.11,0,.22-.06.33-.07.85-.05,2.06,0,3.12,0l.3,0a2.74,2.74,0,0,0,.28.05c.3,0,.62-.06.91-.05l1,0c.47,0,1,0,1.41,0,.23,0,.46.09.7.1s.48,0,.7,0,.44.06.68.08a34.54,34.54,0,0,0,4.08,0c.24,0,.48-.08.7-.08a.79.79,0,0,1,.53.14c0,.18,0,.25-.09.36-.7,0-1.59.06-2.62.12-.24,0-.51,0-.67,0s-.27,0-.33.07c-.31-.17-.75-.05-1.1-.06s-.71-.11-1.07-.13c-.78,0-1.61-.09-2.42-.09l-.58,0c-.2,0-.41-.08-.61-.08s-.25,0-.36,0-.21-.05-.31-.05c-.34,0-.68,0-1,0s-.36,0-.55,0a1.69,1.69,0,0,1-.55-.05,3.47,3.47,0,0,1-1.07,0c-.08,0-.15.06-.24.06s-.3-.05-.46-.05a4.36,4.36,0,0,1-1.4,0,1.36,1.36,0,0,1-.77,0,1.39,1.39,0,0,1-.51.16c-.23,0-.46-.05-.7,0s-.36.09-.52,0C189.23,369.9,188.6,370.08,188.43,369.81Z" transform="translate(-9.26 -6.89)"/><path class="cls-33" d="M420.88,369.82c8,.16,17,3.46,23.52,5.84,1.35.5,2.54.94,3.61,1.3a1.22,1.22,0,0,0,.67-1.06,1,1,0,0,0-.67-1l-2.92-1.06c-6.67-2.45-15.84-5.81-24.21-6-6.68-.14-12.85,1.74-16.85,7.73-7.16,10.72-14.29,15.9-20.07,14.59-4.06-.93-7.21-5.24-8-11l-.06-.49-1.24,3.82c1.51,5,4.8,8.69,8.88,9.62a10.83,10.83,0,0,0,2.28.25c4.74,0,11.54-3.17,19.9-15.68C409.21,371.38,414.77,369.7,420.88,369.82Z" transform="translate(-9.26 -6.89)"/><path class="cls-33" d="M536.75,389.28c-15,1.23-26.74-.5-39.06-2.34-14.24-2.12-29-4.31-49.68-1.79h-.12c-19.63,2.4-25.06-1-26.56-3.26a4.65,4.65,0,0,1-.45-.89,5.1,5.1,0,0,1,0-3.22V376.5h0V375a6.51,6.51,0,0,0-1.23,8,5.34,5.34,0,0,0,1.23,1.38c4,3.56,13.09,4.5,27.13,2.8h.12c20.52-2.51,35.13-.33,49.26,1.77,9.52,1.42,18.68,2.79,29.29,2.79,3.54,0,7.25-.16,11.19-.51C537.52,390.62,537.14,390,536.75,389.28Z" transform="translate(-9.26 -6.89)"/></svg>