<svg xmlns="http://www.w3.org/2000/svg" viewBox="0 0 570.12 288.58"><defs><style>.cls-1,.cls-12{isolation:isolate;}.cls-2{opacity:0.6;}.cls-3,.cls-4{fill:#e6e6e6;}.cls-19,.cls-24,.cls-3{fill-rule:evenodd;}.cls-5{fill:#dee4ea;}.cls-6{fill:#e7ecf1;}.cls-7{fill:#bdbdc6;}.cls-8{fill:#ffe8b2;}.cls-10,.cls-12,.cls-16,.cls-22,.cls-9{fill:#09083a;}.cls-12,.cls-18,.cls-22,.cls-9{opacity:0.2;}.cls-9{mix-blend-mode:multiply;}.cls-11,.cls-24{fill:#dde2e9;}.cls-13{fill:#fff;}.cls-14{fill:#eb6f9b;}.cls-15{fill:#84a3e6;}.cls-16{opacity:0.7;}.cls-17{fill:#7365c2;}.cls-20,.cls-26{fill:none;}.cls-20{stroke:#000;stroke-miterlimit:10;stroke-width:0.5px;}.cls-21{fill:#cecedc;}.cls-23{fill:#d5e2ef;}.cls-25{fill:#fbbd44;}</style></defs><title>banner-final1</title><g class="cls-1"><g id="Layer_1" data-name="Layer 1"><g class="cls-2"><path class="cls-3" d="M298,73.2c.22.09-1.82,2.41-1.49,2.38-3.78,4.47-7.86,9.23-11.85,14-2.21,2.63-4.23,5.17-6.33,7.65-2.49,3-6.17,7.16-9.39,11-.74.89-1.47,1.84-2.21,2.73-5.72,6.83-14,16.56-21.16,25-.63.75-1.39,1.62-2.09,2.44s-1.35,1.52-1.92,2.19c-2.07,2.42-4.15,5-6.18,7.37l-7.09,8.32c-3.22,3.79-6.47,7.65-9.57,11.27-1.62,1.9-3.24,3.69-4.87,5.59s-3.23,3.85-4.75,5.65-3.05,3.51-4.64,5.36c-9.61,11.19-18.83,22.21-27.77,32.86-1.57,1.88-3.15,3.84-4.7,5.68-1,1.25-2.6,3.05-3.66,4.1-.41.21.07-.47.29-.89,4.77-5.68,10.81-12.87,17.73-21.14,1.63-2,3.46-4.11,4.55-5.4.92-1.09,1.86-2.18,2.22-2.72,2.21-2.37,5.09-6,7.53-8.8s4.86-5.59,7.38-8.53c5.31-6.21,11-12.82,16.48-19.32,1.31-1.56,2.59-3.1,3.93-4.67s2.85-3.25,4.22-4.87c.83-1,1.65-2,2.45-3s1.45-1.63,2.13-2.43c2.34-2.73,4.55-5.43,6.82-8.09,1.25-1.48,2.51-2.9,3.78-4.4s2.55-3.05,3.78-4.39c2.25-2.84,4.75-5.65,7.24-8.59.59-.71,1-1.26,1.59-2,1-1.17,2.12-2.42,3.16-3.66,2.52-3,6.44-7.81,9.54-11.27,1.28-1.6,3.73-4.48,5.23-6.12.87-1.13,2-2.6,3.38-4.23,1.53-1.85,3.15-3.65,4.81-5.62,1.23-1.47,2.35-2.92,3.52-4.18C292.41,79.62,296.58,74.41,298,73.2Z"/><path class="cls-3" d="M323,73.26c.22,0-.24,2.35,0,2.21-.75,4.52-1.61,9.35-2.39,14.14-.43,2.66-.76,5.18-1.18,7.68-.5,3-1.31,7.29-1.93,11.16-.14.89-.24,1.83-.39,2.72-1.1,6.89-2.77,16.73-4.23,25.29-.13.76-.29,1.65-.44,2.49s-.31,1.55-.43,2.23c-.43,2.46-.78,5-1.2,7.44-.48,2.81-1,5.61-1.45,8.43-.66,3.84-1.3,7.73-1.95,11.41-.33,1.93-.72,3.77-1.06,5.7s-.63,3.89-.94,5.71-.66,3.58-1,5.45c-2,11.37-3.8,22.49-5.55,33.23-.3,1.89-.57,3.84-.88,5.7-.21,1.26-.53,3.09-.85,4.22-.23.3-.2-.36-.24-.73.93-5.73,2.12-13,3.46-21.32.31-2,.68-4.15.9-5.45.18-1.1.38-2.21.39-2.73.58-2.46,1.06-6,1.56-8.93s1.07-5.7,1.59-8.68c1.1-6.31,2.27-13,3.38-19.59.27-1.57.51-3.13.78-4.71s.63-3.33.91-5c.17-1,.3-2,.46-3s.33-1.68.47-2.48c.49-2.78.89-5.48,1.35-8.18.26-1.5.54-2.95.8-4.47s.49-3.07.8-4.46c.35-2.82.94-5.71,1.43-8.68.12-.72.15-1.25.27-2,.18-1.18.47-2.47.67-3.72.5-3,1.18-7.84,1.91-11.41.21-1.58.71-4.51,1.09-6.2.11-1.11.28-2.57.54-4.21.29-1.85.68-3.71,1-5.7.25-1.48.4-2.91.7-4.22C321.76,79.8,322.44,74.61,323,73.26Z"/><path class="cls-3" d="M369.15,73.32c.18-.13,1.06,2.27,1.21,2,1.76,4.51,3.61,9.37,5.49,14.14,1,2.65,2.12,5.12,3.09,7.62,1.17,3,2.77,7.34,4.31,11.19.35.89.76,1.8,1.12,2.69,2.73,6.85,6.55,16.71,9.87,25.28l.95,2.49c.28.74.56,1.58.82,2.27.95,2.46,2,5,2.94,7.4l3.26,8.46c1.48,3.84,3,7.73,4.43,11.42.74,1.93,1.39,3.82,2.13,5.76s1.53,3.87,2.24,5.69,1.35,3.61,2.06,5.5c4.34,11.42,8.75,22.49,13,33.2.74,1.89,1.56,3.81,2.29,5.66.49,1.26,1.19,3.1,1.52,4.29,0,.4-.36-.22-.6-.54-2.26-5.71-5.11-12.95-8.41-21.25-.78-2-1.64-4.14-2.14-5.44-.43-1.1-.85-2.22-1.12-2.69-.82-2.56-2.32-6.06-3.43-9s-2.13-5.76-3.28-8.75c-2.42-6.33-5-13.06-7.56-19.64-.61-1.57-1.23-3.12-1.84-4.71s-1.24-3.36-1.87-5c-.39-1-.82-2-1.2-2.95s-.61-1.71-.92-2.51c-1.06-2.79-2.16-5.46-3.21-8.17-.58-1.5-1.11-3-1.7-4.49s-1.22-3.06-1.7-4.49c-1.2-2.75-2.24-5.69-3.4-8.66-.28-.72-.54-1.22-.83-2-.47-1.18-.92-2.5-1.41-3.75-1.19-3-3.18-7.76-4.45-11.4-.67-1.55-1.8-4.48-2.38-6.22-.5-1.08-1.13-2.49-1.78-4.12-.74-1.85-1.41-3.75-2.19-5.73-.58-1.48-1.22-2.86-1.65-4.21C371.62,79.9,369.44,74.82,369.15,73.32Z"/><path class="cls-3" d="M532.45,226.87c-.12.2-2.16-2.2-2.18-1.87-3.95-4.46-8.16-9.29-12.35-14-2.34-2.63-4.6-5-6.79-7.51-2.61-3-6.32-7.29-9.73-11.09-.78-.88-1.63-1.77-2.42-2.64-6.05-6.77-14.66-16.53-22.13-25l-2.16-2.48c-.63-.73-1.32-1.58-1.92-2.25-2.14-2.44-4.43-4.92-6.53-7.32l-7.36-8.37c-3.34-3.81-6.76-7.66-10-11.31-1.68-1.92-3.24-3.81-4.93-5.74s-3.41-3.82-5-5.62-3.1-3.6-4.73-5.47c-9.88-11.34-19.65-22.26-29.08-32.85-1.66-1.86-3.41-3.74-5-5.57-1.1-1.25-2.69-3.08-3.6-4.29-.16-.46.46.14.85.42,5,5.64,11.4,12.8,18.72,21,1.73,1.94,3.64,4.1,4.78,5.39,1,1.09,1.93,2.2,2.43,2.64,2.05,2.58,5.25,6,7.77,8.89s4.92,5.73,7.52,8.69c5.49,6.28,11.32,13,17.08,19.47,1.37,1.55,2.74,3.08,4.12,4.65s2.87,3.35,4.3,5c.86,1,1.79,2,2.62,2.91s1.45,1.71,2.14,2.51c2.42,2.76,4.82,5.39,7.17,8.07,1.31,1.48,2.56,3,3.88,4.46s2.7,3,3.88,4.46c2.53,2.69,5,5.63,7.6,8.56.63.71,1.13,1.19,1.77,1.91,1,1.16,2.13,2.49,3.23,3.72,2.65,3,6.94,7.65,10,11.29,1.42,1.51,4,4.42,5.4,6.17,1,1,2.33,2.42,3.78,4,1.63,1.82,3.21,3.72,5,5.68,1.29,1.46,2.6,2.8,3.69,4.16C526.78,220.32,531.43,225.3,532.45,226.87Z"/><path class="cls-3" d="M275.89,70.75c.21.12-3,2.49-2.65,2.49-6.05,4.58-12.58,9.45-19,14.3-3.56,2.7-6.87,5.32-10.23,7.85-4,3-9.86,7.33-15,11.27-1.19.9-2.41,1.89-3.6,2.79-9.2,7-22.44,17-33.95,25.62-1,.77-2.22,1.66-3.36,2.5s-2.12,1.54-3,2.23c-3.31,2.48-6.69,5.12-9.94,7.56l-11.36,8.51c-5.16,3.88-10.38,7.83-15.34,11.54-2.6,1.94-5.14,3.76-7.75,5.71s-5.2,3.95-7.64,5.78-4.86,3.59-7.39,5.48C110.26,195.83,95.41,207.13,81,218.05c-2.53,1.92-5.1,3.94-7.59,5.82-1.69,1.28-4.16,3.12-5.78,4.18-.56.19.27-.52.68-1,7.67-5.82,17.39-13.19,28.53-21.66l7.31-5.54c1.48-1.11,3-2.23,3.6-2.8,3.45-2.39,8.15-6.08,12-9s7.74-5.71,11.76-8.71c8.5-6.36,17.55-13.12,26.39-19.78,2.11-1.59,4.18-3.18,6.31-4.78s4.53-3.33,6.73-5c1.33-1,2.67-2.06,4-3,1.13-.85,2.3-1.67,3.38-2.48,3.74-2.8,7.33-5.57,11-8.3,2-1.51,4-3,6-4.49s4.1-3.13,6-4.49c3.69-2.93,7.65-5.79,11.64-8.81,1-.72,1.62-1.3,2.6-2,1.58-1.2,3.37-2.47,5-3.74,4-3.06,10.42-8,15.31-11.55,2.08-1.64,6-4.59,8.37-6.25,1.43-1.18,3.33-2.69,5.51-4.37,2.48-1.88,5-3.72,7.7-5.74,2-1.5,3.83-3,5.65-4.28C267,77.31,273.85,72,275.89,70.75Z"/><rect class="cls-4" x="129.03" y="168.11" width="366.84" height="0.3"/><rect class="cls-4" x="173.81" y="125.43" width="303.97" height="0.3"/><rect class="cls-4" x="222.96" y="88.14" width="210.81" height="0.3"/><rect class="cls-4" x="268.46" y="62.59" width="38.96" height="0.3"/><rect class="cls-4" x="420.43" y="62.59" width="40.96" height="0.3"/></g><path class="cls-5" d="M462.27,95.37l.34-16.63a1.65,1.65,0,0,1,1.66-1.62h0A1.65,1.65,0,0,1,465.91,79l-1.73,16.8Z"/><path class="cls-5" d="M463.45,94.65l-3.67-11.57a1.63,1.63,0,0,0-2-1.1h0a1.65,1.65,0,0,0-1.07,2.34L462.14,95Z"/><path class="cls-5" d="M463.6,96.81h-2.76L467.63,84a1.58,1.58,0,0,1,2.2-.62h0a1.59,1.59,0,0,1,.56,2.18Z"/><path class="cls-6" d="M395.21,122.65l-2-1.65h-9l-2,1.65a2.11,2.11,0,0,1-1.34.48h-6.77a2.12,2.12,0,0,0-2.13,2.12h33.44a2.12,2.12,0,0,0-2.13-2.12h-6.76A2.12,2.12,0,0,1,395.21,122.65Z"/><path class="cls-7" d="M364.4,32a11.66,11.66,0,0,0,2.39-.85c1-.57,2.62-3.23,3.47-3.78L369,25.7a1.75,1.75,0,0,0-1.77.29c-.41.32-1.81,1.79-2.21,2s-1.21.16-1.11-.25.64-.51,1-1.31a.75.75,0,0,0-.43-1.08c-.05.61-1.36,1.37-2.16,1.81s-.54,2.51-.54,2.51"/><path class="cls-8" d="M336.11,20.43h4.37a5.74,5.74,0,0,1,5.06,3l7.83,14.69,8.09-8.75L365,32.16l-8.66,13.08a4.52,4.52,0,0,1-7.62-.12L340,30.94"/><path class="cls-9" d="M356.37,45.24s-5.38.67-5.73-1.07-1.07-5.26-3.27-6.64-2.52-8.22-2.52-8.22l-2.58,5.34,6.48,10.47A4.52,4.52,0,0,0,356.37,45.24Z"/><path class="cls-10" d="M345.94,125.25a3.53,3.53,0,0,0-3-2.35,60.43,60.43,0,0,1-6.47-1.85l-6-.14v4.34Z"/><path class="cls-11" d="M343.49,58.22l4.1,32.61L338,121.47h-8.41s4.86-23.19,6.68-31.47L330.6,60.18Z"/><path class="cls-10" d="M336.75,125.25a3.53,3.53,0,0,0-3-2.35,60.43,60.43,0,0,1-6.47-1.85l-6-.14v4.34Z"/><path class="cls-11" d="M343.49,58.22,334,66.75l-5.33,54.72h-8.27s.88-34.95.91-37.58-1.71-20.16-1.82-26.71Z"/><path class="cls-8" d="M343.49,58.7,345,26.45a5.73,5.73,0,0,0-5.71-6l-16.39-.07a5.73,5.73,0,0,0-5.75,6.14l2.32,32.18Z"/><path class="cls-7" d="M335.92,17.85a2.21,2.21,0,0,0,2.55-2.1l.19-5.45a3.92,3.92,0,0,0-4.86-3.66A4.31,4.31,0,0,0,330.6,10L328.52,20.4l4.09,2a2,2,0,0,0,2.71-1.13l.28-.85.18-2.6Z"/><polygon class="cls-12" points="335.78 17.83 335.61 20.43 333.62 17.46 335.78 17.83"/><path class="cls-10" d="M329.47,10.11c-.2-2.43,1-4.68,2.93-4.89s5.34,1.47,7.5,1.18,1.17,4.8-2.33,4a32.22,32.22,0,0,1-4-1,2.42,2.42,0,0,1-.49,1.93,2.29,2.29,0,0,0-.23,1.73l-.8-.28s.21-2-.81-1.87c-.84.11-1,1.18,0,3a4.9,4.9,0,0,1-2.07,3A49.5,49.5,0,0,0,329.47,10.11Z"/><path class="cls-9" d="M324.08,53.46c.44-3.85-.66-4.94-1.52-8.51S322,30.11,322,30.11l-3.83,10.54.76,10.47,3.24,7.58h2.53A13.65,13.65,0,0,1,324.08,53.46Z"/><path class="cls-13" d="M302.16,56.18l24.76-12.9a.72.72,0,0,1,1,.3l9.19,17.58a.71.71,0,0,1-.3,1L312,75a.71.71,0,0,1-1-.3l-9.19-17.58A.7.7,0,0,1,302.16,56.18Z"/><path class="cls-7" d="M323.86,62.66l3,4a.41.41,0,0,1,.07.32l-.43,1.88a.38.38,0,0,1-.27.29c-.77.24-3.38,1-3.63,1.08L321.7,70l.68-.35L321.79,68a6.83,6.83,0,0,1-1.61-2.44Z"/><path class="cls-8" d="M326.94,20.39l-6.38,0A5.38,5.38,0,0,0,315.44,24l-6.3,18.3a6.74,6.74,0,0,0,.44,5.38l9.88,18.41,4.4-3.44-7.41-17.3L322,30.11"/><path class="cls-10" d="M332.83,12.06c0,.3.09,1.79.15,2.69a.45.45,0,0,0,.65.37l1.39-.7a.38.38,0,0,1,.28,0l3.2.57v2.29a.8.8,0,0,1-.9.79l-4.87-.66a.74.74,0,0,1-.65-.74V12.75"/><polygon class="cls-14" points="414.47 115.22 419.56 114.83 419 122.42 414.37 122 414.47 115.22"/><polygon class="cls-14" points="406.45 115.22 411.54 114.83 412.91 122.42 408.29 122 406.45 115.22"/><path class="cls-10" d="M401,125.25a2.72,2.72,0,0,1,2.33-1.82,45.47,45.47,0,0,0,5-1.43l4.62.42v2.83Z"/><path class="cls-15" d="M401.43,58.22s-3.12,22.83-4.91,29.93c1.1,2.29,11.76,33.85,11.76,33.85l4.63.42s-1.11-24.9-7.34-35.82a278.75,278.75,0,0,0,10.5-28.19Z"/><path class="cls-15" d="M405.24,59.45s8.21,51.6,9.13,62.55l4.63.42s2.33-18.24.39-31.14c-2.77-18.54,3.56-24.9-.24-32.87"/><path class="cls-10" d="M403.65,15.44s-1.4,1.45-.63,4.68c.53,2.2,1.73,4.24.43,6.05,0,0,3.65,1,3.94-2.16S405,15.79,405,15.79"/><path class="cls-7" d="M405.94,27.52l-6.47,20.65a3.09,3.09,0,0,1-2.76,2.16l-15.66.92L380.91,47l13.52-2.35,3.45-14.59a3.65,3.65,0,0,1,3.56-2.81h1.05"/><path class="cls-12" d="M399.47,48.17,405,30.64l-4-.83-2.53,9.59a2.71,2.71,0,0,0,.7,2.61h0a1.3,1.3,0,0,1,.2,1.58l-3.94,6.61.19.2,1.17-.07A3.09,3.09,0,0,0,399.47,48.17Z"/><path class="cls-10" d="M422.62,29.76l-4.55-2.66h-4.41l-12.77.17-2.1,11.33a5,5,0,0,0,3.12,5.57l.27.1-1,15.31L419.39,59l3.46-25C422.9,33.71,422.62,29.76,422.62,29.76Z"/><path class="cls-7" d="M409.31,15.79a2.09,2.09,0,0,1,2,1.95l.66,9.38,1.95,0L408.47,31,405,27.21l1.71,0,0-1.85-.77-.06a1.27,1.27,0,0,1-1.16-1.14l-.85-8Z"/><path class="cls-10" d="M403.65,15.44s-.3,2,2.33,3.24a5.3,5.3,0,0,1,3.08,3.26s.29-1.26,1.08-1.48,1.53,1,.06,2c0,0,.82,2.22,1.61,2.76a8.29,8.29,0,0,1,.87-3.29c1-2,1.13-4.88,0-6.28S408.37,12.36,403.65,15.44Z"/><circle class="cls-13" cx="410.23" cy="22.71" r="0.46"/><path class="cls-7" d="M405.24,52l-.12.19a2.56,2.56,0,0,1-1.81,1.2l-1.78.28a1,1,0,0,0-.72.48h0a1,1,0,0,1-1.15.46l-2.32-.64a1,1,0,0,1-.63-1.47l.39-.73a1,1,0,0,1,.67-.51L405,49.55"/><path class="cls-7" d="M418,46.58l-13,3-.32,3.15,14.13-1A4.92,4.92,0,0,0,423.4,47l.51-14.29a5.4,5.4,0,0,0-5.36-5.59l-.48,0Z"/><path class="cls-16" d="M404.86,56a8.76,8.76,0,0,1-.37,3.5l14.9-.47,1.07-7.26-16,1.72A13.28,13.28,0,0,0,404.86,56Z"/><path class="cls-10" d="M407,125.25a2.75,2.75,0,0,1,2.34-1.82,45.93,45.93,0,0,0,5-1.43l4.63.42v2.83Z"/><path class="cls-11" d="M365.65,36.85l4,19.85a.24.24,0,0,0,.24.2h26.6l-4-19.82a.65.65,0,0,0-.64-.53h-26A.26.26,0,0,0,365.65,36.85Z"/><ellipse class="cls-6" cx="380.58" cy="46.58" rx="1.2" ry="1.55" transform="translate(191.69 380.23) rotate(-67.46)"/><path class="cls-11" d="M395.46,55.1h15.87a2.08,2.08,0,0,1,2.08,2.08h-18"/><path class="cls-6" d="M421.53,58.19h0a1.29,1.29,0,0,1-1.29,1.29H407.62a13.7,13.7,0,0,0-13.7,13.71v52.07H383.41V73.19a13.7,13.7,0,0,0-13.7-13.71H356.36a1.29,1.29,0,0,1-1.29-1.29h0a1.29,1.29,0,0,1,1.29-1.29h63.88A1.29,1.29,0,0,1,421.53,58.19Z"/><polygon class="cls-12" points="406.66 25.34 406.71 27.19 408.1 25.34 406.66 25.34"/><path class="cls-11" d="M366.49,49.5l-.12-.44a.34.34,0,0,0-.32-.24H364l-.26-2.2a.34.34,0,0,0-.31-.3l-3.07-.15,0,.62,2.54.13a.34.34,0,0,1,.31.3l.18,1.6h-2.89a.33.33,0,0,0-.32.24l-.12.44a.32.32,0,0,0,.32.42h.13a.34.34,0,0,1,.33.31l.44,6.67h4l.43-6.67a.35.35,0,0,1,.34-.31h.13A.33.33,0,0,0,366.49,49.5Z"/><polygon class="cls-6" points="366.01 51.72 365.81 54.85 360.71 54.85 360.5 51.72 366.01 51.72"/><path class="cls-5" d="M392.65,59.45l7.89,2a13.58,13.58,0,0,1,7.08-2h9.62l.14,0Z"/><rect class="cls-6" x="263.63" y="36.37" width="0.99" height="52.07" transform="translate(528.25 124.8) rotate(-180)"/><rect class="cls-6" x="238.06" y="36.37" width="0.99" height="52.07" transform="translate(477.11 124.8) rotate(-180)"/><rect class="cls-6" x="239.05" y="65.6" width="24.58" height="0.99"/><rect class="cls-6" x="239.05" y="80.23" width="24.58" height="0.99"/><rect class="cls-6" x="239.05" y="50.98" width="24.58" height="0.99"/><rect class="cls-6" x="239.05" y="36.35" width="24.58" height="0.99"/><rect class="cls-6" x="258.86" y="56.16" width="2.86" height="9.44" transform="translate(520.57 121.76) rotate(-180)"/><rect class="cls-6" x="247.27" y="58.5" width="2.86" height="7.1" transform="translate(497.4 124.1) rotate(-180)"/><rect class="cls-6" x="250.13" y="56.16" width="2.86" height="9.44" transform="translate(503.11 121.76) rotate(-180)"/><path class="cls-6" d="M252,43v8h9.14V43Zm2.92,1.93a.34.34,0,0,1,.34-.34h2.62a.34.34,0,0,1,.34.34.34.34,0,0,1-.34.34h-2.62A.35.35,0,0,1,254.88,44.9Z"/><rect class="cls-6" x="244.42" y="57.6" width="2.86" height="8" transform="translate(491.69 123.2) rotate(-180)"/><rect class="cls-6" x="259.61" y="70.79" width="2.86" height="9.44" transform="translate(522.07 151.01) rotate(-180)"/><rect class="cls-6" x="253.9" y="70.79" width="2.86" height="9.44" transform="translate(510.65 151.01) rotate(-180)"/><rect class="cls-6" x="256.75" y="68.35" width="2.86" height="11.88" transform="translate(516.36 148.57) rotate(-180)"/><rect class="cls-6" x="245.51" y="42.05" width="2.86" height="9.44" transform="translate(388.47 254.46) rotate(-135)"/><rect class="cls-6" x="255.45" y="37.72" width="2.17" height="10.5" transform="translate(299.5 -213.56) rotate(90)"/><path class="cls-6" d="M241.27,72.22v8h9.15v-8Zm2.93,1.93a.34.34,0,0,1,.34-.34h2.61a.34.34,0,0,1,.34.34.34.34,0,0,1-.34.34h-2.61A.34.34,0,0,1,244.2,74.15Z"/><rect class="cls-6" x="244.76" y="66.97" width="2.17" height="10.5" transform="translate(318.07 -173.62) rotate(90)"/><rect class="cls-6" x="444.33" y="110.18" width="30.24" height="11"/><polygon class="cls-6" points="472.32 125.43 471.03 125.43 470.55 121.18 472.79 121.18 472.32 125.43"/><polygon class="cls-6" points="447.69 125.43 446.39 125.43 445.92 121.18 448.16 121.18 447.69 125.43"/><rect class="cls-6" x="444.33" y="99.19" width="30.24" height="11"/><path class="cls-13" d="M459.45,116.53a.85.85,0,1,0-.85-.85A.85.85,0,0,0,459.45,116.53Z"/><path class="cls-13" d="M459.45,105.53a.85.85,0,1,0-.85-.85A.85.85,0,0,0,459.45,105.53Z"/><path class="cls-6" d="M463.45,99.19a5.78,5.78,0,0,0,5.78-5.79H457.67A5.78,5.78,0,0,0,463.45,99.19Z"/><path class="cls-6" d="M457.26,29.31H433.07V62.67h.7V52.14h23.49V62.67h.7V29.31ZM446.82,47.7V51h-.19V47.69h.19Zm-2.06,3.24h-.19V47.66h.19Zm-2.21.5H441l1.56-4Zm14.71,0h-8.43v-7l-2.2,0v3l-1.87,0v-.89l-2.21,0V47l-1.86-.77-1.86,4.75,1.24.51h-6.3V40.38h23.49ZM441,35.89h.1v3.28h-.19V35.88Zm2.2,3.28H443V35.88h.19Zm-4.35-3.32H439v3.28h-.19Zm18.41,3.83H445.31v-5l-2.2,0v-2l-2.11,0v-1.1l-2.2,0v3.21l-2,0v5.09h-3.06V30h23.49Z"/><path class="cls-6" d="M287.6,11.74h3.23a2.44,2.44,0,0,1,2.41,2.12l.84,6.73,1.72-1.82,1.22.41-1.8,3.63a1.73,1.73,0,0,1-1.56,1h0a1.74,1.74,0,0,1-1.7-1.36L290,13.71"/><path class="cls-6" d="M280.41,11.74h10.1L290.35,18a1.79,1.79,0,0,1-1.78,1.74h-.12l-.19,6H280l-.33-13.27A.78.78,0,0,1,280.41,11.74Z"/><polygon class="cls-5" points="286.27 60.13 283.96 60.13 283.98 61.33 286.27 61.13 286.27 60.13"/><path class="cls-5" d="M289.92,62.74a1.35,1.35,0,0,0-1.16-.9,24.42,24.42,0,0,1-2.48-.71l-2.3.2v1.41Z"/><path class="cls-5" d="M280,25.81A9.16,9.16,0,0,0,280,30.3c.61,2.83,4.25,10.86,4.25,10.86l-.33,19.17h2.36l2.83-19.44-.86-15.08Z"/><polygon class="cls-5" points="288.26 25.81 286.19 28.84 289.12 40.89 288.26 25.81"/><polygon class="cls-5" points="278.97 56.85 277.14 55.74 276.12 56.91 277.89 58.4 278.97 56.85"/><path class="cls-5" d="M279.33,62.12a1.37,1.37,0,0,0-.18-1.47,23,23,0,0,1-1.26-2.26l-1.77-1.48-1,1Z"/><path class="cls-5" d="M283.84,40.21l-7.2,16.07,1.95,1.18,5.54-8.74.13-7.56Z"/><path class="cls-6" d="M280.32,11.74h-.67a2.43,2.43,0,0,0-2.43,2.31l-.44,9.55a2.69,2.69,0,0,0,.79,2l6.64,6.6a5.9,5.9,0,0,0,.61,1.82h1.47l-.86-2.81-5.82-7.57Z"/><path class="cls-5" d="M296.81,15.93l-1.45,2.65a.16.16,0,0,0,0,.22l1.55.85a.16.16,0,0,0,.21-.08l1.46-2.65a.17.17,0,0,0-.05-.22L297,15.85A.16.16,0,0,0,296.81,15.93Z"/><path class="cls-6" d="M296.7,19.14l.69.36a.21.21,0,0,0,.28-.09l.81-1.51-1.06-.6a.21.21,0,0,0-.3.12l-.53,1.46A.22.22,0,0,0,296.7,19.14Z"/><polyline class="cls-6" points="297.97 18.09 298.43 17.23 298.55 17.37 298.47 17.9"/><path class="cls-6" d="M284,33.2l.79.86h1.47l-1.38-.49S284.26,33,284,33.2Z"/><path class="cls-5" d="M283.26,8a3.07,3.07,0,0,1-2.81.37c-1.44-.64-3.36-.74-4.83,1.72l.86,2.28a5.35,5.35,0,0,1,3.69-1.57c2.1.1,2.79-.84,3.5-2.46"/><rect class="cls-6" x="282.88" y="7.82" width="1.11" height="1.11" rx="0.56" transform="translate(566.88 16.76) rotate(180)"/><path class="cls-5" d="M286.81,6.17a1.62,1.62,0,0,0-1.69-1h-.07a1.54,1.54,0,0,0-1.39,1.53V10.4a1.33,1.33,0,0,1-1.33,1.34h-.27l3.08,3.33,2.64-3.33h-.53a1.34,1.34,0,0,1-1.33-1.3h0a.47.47,0,0,1,.36-.45l.12,0a.61.61,0,0,0,.48-.59l0-2.7A1.76,1.76,0,0,0,286.81,6.17Z"/><path class="cls-5" d="M286.69,6a2.46,2.46,0,0,1-1,1.25,2.07,2.07,0,0,0-1.05,1.12s-.46-.52-.72-.2.39.72.44.87-.69.85-.69.85a5.1,5.1,0,0,0-.4-1.86,2.22,2.22,0,0,1,1.16-3,2,2,0,0,1,2.64.76c.37.54-.16,2.12-.16,2.12l0-1.43A.86.86,0,0,0,286.69,6Z"/><path class="cls-5" d="M306.68,38.29c-1.21.73-1.28,2-1.13,3.31a8.19,8.19,0,0,1-.38,3.11,2,2,0,0,0,.24,1.72c.34.55,1.2,0,.86-.5-.49-.81.39-2.43.38-3.34,0-1.08-.67-2.7.53-3.44a.5.5,0,0,0-.5-.86Z"/><path class="cls-5" d="M304.56,37.4a4.25,4.25,0,0,0-.85,1.63c-.21.88.22,2-.31,2.79s-1.54,1.37-1,2.65c.25.59,1.11.08.87-.51s1.22-1.69,1.42-2.37a2.46,2.46,0,0,0,0-.9,3.1,3.1,0,0,1,.55-2.58c.39-.5-.31-1.21-.71-.71Z"/><path class="cls-5" d="M426.89,36.39c.37,2.06-1.38,3.71-1.22,5.74.1,1.15.6,2.07.45,3.26a27.42,27.42,0,0,0-.5,3.23.5.5,0,0,0,1,0c0-1.23.49-2.35.59-3.55s-.64-2.5-.46-3.81c.25-1.85,1.46-3.19,1.1-5.14-.11-.63-1.08-.36-1,.27Z"/><path class="cls-5" d="M429.48,39.55c-2,2,.06,4.66-1,6.86-.29.58.58,1.08.86.51a4.78,4.78,0,0,0,.4-2.89c-.14-1.27-.55-2.75.49-3.77.46-.45-.25-1.16-.71-.71Z"/><path class="cls-5" d="M350.39,89.47a3.06,3.06,0,0,0-.55,2.83c.4,1.88.63,3.37-.84,4.89-.45.46.32,1.1.76.64a5,5,0,0,0,1.47-3c.13-1.5-1.16-3.4-.08-4.67a.5.5,0,0,0-.76-.64Z"/><path class="cls-5" d="M352.33,91.52a8.38,8.38,0,0,1-.16,4.47c-.19.61.71,1,.91.43a9.35,9.35,0,0,0,.24-5c-.14-.62-1.14-.53-1,.1Z"/><path class="cls-5" d="M308,76.44a5.63,5.63,0,0,0,5.39,2.83c.64,0,.64-1,0-1a4.66,4.66,0,0,1-4.53-2.34.5.5,0,0,0-.86.51Z"/><path class="cls-5" d="M307.73,79.28a4,4,0,0,0,3.71,1.94c.63,0,.64-1,0-1a3,3,0,0,1-2.85-1.44.5.5,0,0,0-.86.5Z"/><path class="cls-5" d="M324.77,3.14l2.28,2.28a.5.5,0,0,0,.71-.71l-2.28-2.28a.5.5,0,0,0-.71.71Z"/><path class="cls-5" d="M327.65.62a10.6,10.6,0,0,0,1.22,2.78c.33.55,1.2.05.86-.5A10.19,10.19,0,0,1,328.61.35a.5.5,0,0,0-1,.27Z"/><path class="cls-5" d="M421.58,79.36a2.44,2.44,0,0,0-.76,2.32c.15,1.2,1.4,3,.48,4.08-.41.5.3,1.21.7.71a2.76,2.76,0,0,0,.51-2.53c-.25-1.16-1.39-2.89-.22-3.88.49-.41-.22-1.12-.71-.7Z"/><path class="cls-5" d="M423.3,82.1a15.56,15.56,0,0,1,.71,4.74.5.5,0,0,0,1,0,16.29,16.29,0,0,0-.75-5c-.19-.61-1.15-.35-1,.26Z"/><path class="cls-11" d="M525.38,288.28s.1-50.42-35.75-73.51a114.46,114.46,0,0,1,5.43,24.67c1.54,16.89,7.09,23.51,9.53,26.32s1.61,5.09-.27,9.26,3.18,13.26,3.18,13.26Z"/><path class="cls-6" d="M519.15,288.28s-10-12.85-4.12-21.06c7.33-10.25-3-26.09,4.12-35.67s5.81-20,14.31-25.31,3.18,20.42,4,28,3.88,18.17,0,23.56c-5.88,8.19,7.22,19.6-1.63,30.47Z"/><path class="cls-17" d="M158.22,178.28l.43-.93a15.58,15.58,0,0,1,16.15-9l36.73,4.7a15.58,15.58,0,0,1,11,6.76h0Z"/><path class="cls-17" d="M83.36,288.28l23-81.8a38.66,38.66,0,0,1,37.22-28.2h95.44A38.67,38.67,0,0,1,277.72,217v71.32Z"/><path class="cls-7" d="M250.8,171.54s-15-5.44-15-10.72c0-8.51-1.55-10.5-2-13.52s4.86-2.53,6.34,5.66c.14,2.55,4.23,2.25,4.78.74s.61-9-6.13-15.62c-3.25-3.22-4.45-5.16-4.82-6.31a1.14,1.14,0,0,1,1.14-1.5c2.23.11,7.52.4,8.68.82,1.47.55,12.33,7.49,14.81,11.71s4,15.54,4,15.54"/><g class="cls-18"><path class="cls-10" d="M241.3,155.69c1.68,1.48,3.86,1.07,5.91,2a7.3,7.3,0,0,1,2,1.39,12.85,12.85,0,0,1,3,4.23,10,10,0,0,0-.7-4.85,6.3,6.3,0,0,0-3.42-3.4,8,8,0,0,0-4.76-.25,2.7,2.7,0,0,1-2.7-.59A1.65,1.65,0,0,0,241.3,155.69Z"/></g><polygon class="cls-13" points="188.53 179 193.36 263.9 197.93 263.9 214.06 179 188.53 179"/><path class="cls-7" d="M213.91,179.61l2.27-9,4.91,1.39a5.58,5.58,0,0,0,7-4.25l5.16-25.13a15.93,15.93,0,0,0-12.43-17.83h0a15.93,15.93,0,0,0-18.49,10.7L188.53,179l4,5.12A12.16,12.16,0,0,0,213.91,179.61Z"/><path class="cls-7" d="M234.1,137.87s-.83,17.06-1.15,21.8l-6.77-.41"/><path class="cls-10" d="M193.72,162.49s1.89-3.5-1.64-13.35c-1.82-5.1.93-9.1.66-13.63s-1.13-10.32,3.79-13.31,4.28.1,13.83-6.1c6.72-4.36,14.79,3.67,19.36,6.12,8.18,4.37,9.1,2.43,13.44,4.89s2.58,16.09-9.48,14c-6.66-1.17-11.05-8.35-15.09-7.46s-.13,6.4-4.07,9.91c-3.06,2.74-7.81.38-9,5,0,0-.24-5.59-2.88-5.71-3.75-.17-5,3.83-1.33,8.39C205.06,155.92,193.72,162.49,193.72,162.49Z"/><path class="cls-10" d="M207.83,167.52l3.78,16.76a12.27,12.27,0,0,0,2.3-4.66l2.27-9.05Z"/><path d="M193.3,263.9h-64l14.21-48.46s2.5,13.19,1.57,16.54c-4.57,16.5,5.43,17.59,4.78,20.2s-7.82,8,1.95,8C156.16,260.21,193.3,263.9,193.3,263.9Z"/><path class="cls-7" d="M235.43,275.85c-.25-1-3.69-3.65-7.4-6l.84.17c3.76.7,4.08-1.91,4.08-1.91A32.94,32.94,0,0,0,224.2,264c-5.65-.42-10.33.71-15.91,1a12.71,12.71,0,0,1-1.38,0,35.06,35.06,0,0,0-9.73,1.14l-.22.37a57.89,57.89,0,0,0-5.14,14.17c6.87,2.74,18.78,1.31,18.78,1.31,1.07,1,2.18,1.87,3.34,2.73a8.17,8.17,0,0,0,6.33,1.53c1.22-.24,2-.75,1.36-1.68-1.53-2.06-13.21-8.89-13.21-8.89l7.48,1.46,5.63,3.53c3.11,1.94,7.73,1.05,7.45.4a41.06,41.06,0,0,0-4.88-4.63c-1.6-1.46-11-5-11-5s7.4.27,8.2.35,6.8,4.21,8.48,4.81S235.9,277.75,235.43,275.85Z"/><polyline class="cls-17" points="312.39 232.35 263.24 154.4 242.1 173.47 274.72 242.85"/><path class="cls-19" d="M244.69,179.26c.19-.11.5.69.69.54.69,1.47,1.4,3.06,2.15,4.62.42.86.9,1.63,1.28,2.45.46,1,1,2.42,1.67,3.67.14.28.33.56.47.85,1.11,2.22,2.6,5.44,3.9,8.25.11.24.24.54.36.82s.2.53.3.75c.36.81.82,1.61,1.18,2.4l1.27,2.77c.57,1.26,1.18,2.52,1.73,3.74.28.63.5,1.27.78,1.91s.62,1.25.89,1.85.5,1.19.78,1.82c1.65,3.75,3.43,7.34,5.13,10.82.3.61.65,1.22.94,1.82a5.7,5.7,0,0,1,.53,1.44c-.12.19-.28,0-.43-.06-.91-1.86-2.05-4.21-3.38-6.9-.32-.63-.65-1.35-.85-1.77a3.35,3.35,0,0,0-.48-.86,23.93,23.93,0,0,0-1.32-2.94c-.42-.94-.78-1.91-1.22-2.89-.93-2.08-1.92-4.29-2.93-6.44-.24-.51-.49-1-.73-1.53s-.45-1.12-.7-1.65c-.15-.33-.34-.64-.49-1s-.22-.57-.33-.83c-.41-.92-.88-1.77-1.28-2.66-.23-.49-.42-1-.65-1.48a13.5,13.5,0,0,1-.64-1.48,29.49,29.49,0,0,1-1.36-2.82c-.11-.23-.24-.37-.36-.61s-.33-.83-.53-1.24a39.47,39.47,0,0,1-1.75-3.72,11.5,11.5,0,0,1-.92-2,9.86,9.86,0,0,1-.78-1.3c-.31-.59-.53-1.23-.84-1.88a8.15,8.15,0,0,1-.66-1.37C245.62,181.44,244.66,179.84,244.69,179.26Z"/><path class="cls-20" d="M191,285.29c1.24-8.42,7-21.38,7-21.38H166.64"/><path class="cls-20" d="M163.11,263.91H121.77a16.94,16.94,0,0,0-8,2"/><polyline points="241.4 283.57 247.41 218.65 252.37 283.57 238.26 283.57"/><path class="cls-6" d="M277.72,288.28h-87.9a11.62,11.62,0,0,1,9.34-4.72h88Z"/><polygon class="cls-6" points="361.23 288.28 248.26 288.28 277.47 198.68 390.45 198.68 361.23 288.28"/><ellipse class="cls-13" cx="321.01" cy="249.99" rx="6.54" ry="5.09" transform="translate(-71.3 142.13) rotate(-22.54)"/><path class="cls-13" d="M303.72,220.36a2,2,0,0,1,.49.15,1.3,1.3,0,0,1,.31.21l.07-.31h3.13l.64-.3.93-5-5.05,2.42Z"/><path class="cls-13" d="M302.15,220.41l0,.11,0,0a2.65,2.65,0,0,1,.81-.17l.1-.52.43-2.31-.3-.2-3.81-2.43-.94,5,.78.5Z"/><polygon class="cls-13" points="305 216.38 309.01 214.46 304.95 211.87 299.9 214.28 303.96 216.88 305 216.38"/><path class="cls-13" d="M297.4,217.88l.12,2.53h.29a.34.34,0,0,1-.14-.34l.73-3.9Z"/><polygon class="cls-13" points="286.32 215.43 285.86 217.22 285.47 217.22 285.93 215.43 284.62 215.43 283.36 220.44 284.66 220.44 285.19 218.34 285.58 218.34 285.05 220.44 286.35 220.44 287.62 215.43 286.32 215.43"/><path class="cls-13" d="M288.51,215.43l-1.93,5h1.35l.3-.9h.47l-.16.9h1.33l.52-5Zm.38,3.22h-.45q.22-.66.78-2.1C289.08,217.38,289,218.09,288.89,218.65Z"/><path class="cls-13" d="M292.57,220.3a1.61,1.61,0,0,0,.63-.57,4.4,4.4,0,0,0,.39-1.1l.05-.2h-1.3l-.16.63a2.15,2.15,0,0,1-.18.53.25.25,0,0,1-.22.11c-.1,0-.15,0-.16-.11a1.59,1.59,0,0,1,.07-.48l.59-2.33a1.84,1.84,0,0,1,.17-.49.24.24,0,0,1,.23-.11c.1,0,.15,0,.16.09a1.46,1.46,0,0,1-.08.47l-.22.87h1.3l.12-.47a3.41,3.41,0,0,0,.15-1,.75.75,0,0,0-.35-.56,1.56,1.56,0,0,0-.9-.22,2.21,2.21,0,0,0-.78.14,1.75,1.75,0,0,0-.61.4,1.58,1.58,0,0,0-.36.52,7.26,7.26,0,0,0-.24.81l-.37,1.46a3.81,3.81,0,0,0-.15,1.1.7.7,0,0,0,.34.58,1.63,1.63,0,0,0,.89.2A2,2,0,0,0,292.57,220.3Z"/><polygon class="cls-13" points="294.9 220.44 295.44 218.29 295.43 220.44 296.77 220.44 296.65 217.69 297.96 215.43 296.74 215.43 295.67 217.38 296.16 215.43 294.86 215.43 293.6 220.44 294.9 220.44"/><path class="cls-13" d="M292.78,221.16l-1.93,5h1.35l.31-.9H293l-.16.9h1.33l.52-5Zm.38,3.22h-.45c.15-.44.41-1.15.78-2.1Q293.28,223.53,293.16,224.38Z"/><polygon class="cls-13" points="297.9 221.16 295.06 221.16 294.8 222.16 295.57 222.16 294.56 226.17 295.87 226.17 296.88 222.16 297.65 222.16 297.9 221.16"/><polygon class="cls-13" points="301.08 221.59 301.19 221.16 300.4 221.16 299.89 221.16 299.76 221.66 299.44 222.95 299.05 222.95 299.43 221.45 299.5 221.16 298.97 221.16 298.2 221.16 296.94 226.17 298.24 226.17 298.77 224.06 299.16 224.06 298.63 226.17 299.93 226.17 300.88 222.38 301.08 221.59"/><path class="cls-13" d="M304.17,223.23c0-.12.06-.24.08-.35a7.3,7.3,0,0,0,.15-.73.75.75,0,0,0,0-.15.86.86,0,0,0-.09-.42.78.78,0,0,0-.41-.39,1.09,1.09,0,0,0-.32-.1,2.1,2.1,0,0,0-.37,0,2.33,2.33,0,0,0-.38,0,1.66,1.66,0,0,0-1,.5,1.59,1.59,0,0,0-.25.33,1.92,1.92,0,0,0-.12.25c0,.11-.09.28-.15.48s-.1.36-.16.58l-.21.86q-.19.78-.24,1.08a1,1,0,0,0,.09.58.82.82,0,0,0,.41.39,1.6,1.6,0,0,0,.69.13,2.21,2.21,0,0,0,.78-.14,1.66,1.66,0,0,0,1-1c.08-.21.18-.57.31-1.07Zm-1.69,1.52a2.38,2.38,0,0,1-.18.56.22.22,0,0,1-.2.11c-.08,0-.13,0-.14-.1a3.16,3.16,0,0,1,.1-.54l.36-1.42.23-.91a1.37,1.37,0,0,1,.18-.47.23.23,0,0,1,.17-.08c.08,0,.13,0,.14.1a1.69,1.69,0,0,1-.08.45l-.27,1.08Z"/><polygon class="cls-13" points="306.99 221.16 306.88 221.62 306.42 223.41 306.31 221.89 306.26 221.16 306.16 221.16 305.17 221.16 305.04 221.7 304.81 222.61 303.91 226.17 305 226.17 305.57 223.89 305.68 226.17 306.82 226.17 308.08 221.16 307.85 221.16 306.99 221.16"/><path class="cls-13" d="M354.87,271.36a2.85,2.85,0,0,0-.4,0l-.89.15-.21-1.24.89-.15a2.41,2.41,0,0,0-.4-4.79,2.69,2.69,0,0,0-.4,0l-.89.15-.15-.88a2.39,2.39,0,0,0-2.37-2,2.83,2.83,0,0,0-.41,0,2.41,2.41,0,0,0-2,2.78l.15.89-1.24.21-.15-.89a2.41,2.41,0,0,0-2.38-2,1.81,1.81,0,0,0-.4,0,2.39,2.39,0,0,0-2,2.77l.15.89-.89.15a2.36,2.36,0,0,0-1.56,1,2.41,2.41,0,0,0,2,3.81,2.85,2.85,0,0,0,.4,0l.89-.15.21,1.24-.89.15a2.42,2.42,0,0,0-1.56,1,2.41,2.41,0,0,0,2,3.81,2.69,2.69,0,0,0,.4,0l.89-.15.15.88a2.4,2.4,0,0,0,2.37,2,2.83,2.83,0,0,0,.41,0,2.41,2.41,0,0,0,2-2.78l-.15-.89,1.24-.21.16.89a2.4,2.4,0,0,0,2.37,2,2.69,2.69,0,0,0,.4,0,2.42,2.42,0,0,0,2-2.78l-.15-.89.88-.15a2.41,2.41,0,0,0-.4-4.79Zm.22,3.69-2,.34.34,2a1.3,1.3,0,1,1-2.56.43l-.33-2-3.44.58.33,2a1.29,1.29,0,1,1-2.55.43l-.34-2-2,.34a1.3,1.3,0,0,1-.43-2.56l2-.33-.58-3.44-2,.33a1.29,1.29,0,0,1-.43-2.55l2-.34-.34-2a1.3,1.3,0,1,1,2.56-.43l.33,2,3.44-.58-.33-2a1.29,1.29,0,0,1,2.55-.43l.34,2,2-.34a1.3,1.3,0,0,1,1.5,1.06h0a1.3,1.3,0,0,1-1.06,1.5l-2,.33.58,3.44,2-.33a1.29,1.29,0,0,1,.43,2.55Z"/><rect class="cls-13" x="346.36" y="270.09" width="3.49" height="3.49" transform="translate(-40.42 61.79) rotate(-9.59)"/><path class="cls-13" d="M275.55,263.21a.58.58,0,0,0-.61,0l-9.2,4.81a.61.61,0,0,0-.32.44l-.33,1.86h17.75l.31-1.75a.63.63,0,0,0-.28-.63Z"/><path class="cls-13" d="M263.73,278a.61.61,0,0,0,.27.62l7.32,4.71a.6.6,0,0,0,.62,0l9.19-4.81a.61.61,0,0,0,.32-.44l.33-1.85H264Z"/><rect class="cls-13" x="267.41" y="272.89" width="11.95" height="1"/><path class="cls-13" d="M353.65,232.35a3,3,0,0,0,2.14,3.3,5.27,5.27,0,0,0,5.15-1.16Z"/><path class="cls-21" d="M367.38,240.2l-3.76.47a8.35,8.35,0,0,0,.17-1,8,8,0,0,0-8.08-9,10.27,10.27,0,0,0-10,9,8.45,8.45,0,0,0,.06,2.31.87.87,0,0,1-.75,1l-3.82.47a.84.84,0,0,0-.74.84v2.5a.84.84,0,0,0,.93.84l6.92-.67a.83.83,0,0,1,.57.16,8.22,8.22,0,0,0,4.91,1.57,10,10,0,0,0,6.76-2.75.85.85,0,0,1,.48-.22l5.81-.56a.86.86,0,0,0,.75-.67l.69-3.29A.84.84,0,0,0,367.38,240.2Zm-11.59-4.55a3,3,0,0,1-2.14-3.3l7.29,2.14A5.27,5.27,0,0,1,355.79,235.65Z"/><path class="cls-21" d="M310.14,214.43a.34.34,0,0,0,0-.1l-.06-.07-.05-.07h0l-4.78-3.06a.38.38,0,0,0-.36,0l-5.87,2.8,0,0a.58.58,0,0,0-.12.1l0,.06s0,.07,0,.11l-.09.48h-4.4l-.07.27,0,0a2.24,2.24,0,0,0-1.32-.36,2.89,2.89,0,0,0-1.06.2,2.61,2.61,0,0,0-.63.37l.05-.46H284l-1.64,6.5h8.14v-.11a2.52,2.52,0,0,0,1,.21l.36,0-2.17,5.64h10.74l.07-.3a3.37,3.37,0,0,0,.31.21,2.44,2.44,0,0,0,1,.2,3,3,0,0,0,1.05-.19l0,0,0,.1h4.45l1.63-6.44a.15.15,0,0,1,0-.07l1.09-5.86h0v0S310.14,214.46,310.14,214.43ZM305,211.87l4.05,2.59-4,1.92-1,.5-4.06-2.6Zm-1.76,5.43.3.2-.43,2.31-.1.52a2.65,2.65,0,0,0-.81.17l0,0,0-.11h-2.92l-.78-.5.94-5Zm-5.39,3.11h-.29l-.12-2.53,1-1.71-.73,3.9A.34.34,0,0,0,297.81,220.41Zm-2.95-5h1.3l-.49,1.95,1.07-1.95H298l-1.32,2.26.12,2.75h-1.34v-2.15l-.54,2.15h-1.3Zm-9.81,5,.53-2.1h-.39l-.53,2.1h-1.3l1.26-5h1.31l-.46,1.79h.39l.46-1.79h1.3l-1.27,5Zm3.49,0,.16-.9h-.47l-.3.9h-1.35l1.93-5h1.88l-.52,5Zm3,.1a1.63,1.63,0,0,1-.89-.2.7.7,0,0,1-.34-.58,3.81,3.81,0,0,1,.15-1.1l.37-1.46a7.26,7.26,0,0,1,.24-.81,1.58,1.58,0,0,1,.36-.52,1.75,1.75,0,0,1,.61-.4,2.21,2.21,0,0,1,.78-.14,1.56,1.56,0,0,1,.9.22.75.75,0,0,1,.35.56,3.41,3.41,0,0,1-.15,1l-.12.47h-1.3l.22-.87a1.46,1.46,0,0,0,.08-.47c0-.06-.06-.09-.16-.09a.24.24,0,0,0-.23.11,1.84,1.84,0,0,0-.17.49l-.59,2.33a1.59,1.59,0,0,0-.07.48c0,.07.06.11.16.11a.25.25,0,0,0,.22-.11,2.15,2.15,0,0,0,.18-.53l.16-.63h1.3l-.05.2a4.4,4.4,0,0,1-.39,1.1,1.61,1.61,0,0,1-.63.57A2,2,0,0,1,291.58,220.54Zm1.23,5.63.16-.9h-.46l-.31.9h-1.35l1.93-5h1.88l-.52,5Zm3.05,0h-1.3l1-4h-.77l.26-1h2.84l-.25,1h-.77Zm4.07,0h-1.3l.53-2.11h-.39l-.53,2.11h-1.31l1.27-5h1.3l-.07.29-.38,1.5h.39l.32-1.29.13-.5h1.3l-.11.43-.2.79Zm3.35-.44a1.58,1.58,0,0,1-.61.4,2.21,2.21,0,0,1-.78.14,1.6,1.6,0,0,1-.69-.13.82.82,0,0,1-.41-.39,1,1,0,0,1-.09-.58q0-.3.24-1.08l.21-.86c.06-.22.11-.41.16-.58s.11-.37.15-.48a1.92,1.92,0,0,1,.12-.25,1.59,1.59,0,0,1,.25-.33,1.66,1.66,0,0,1,1-.5,2.33,2.33,0,0,1,.38,0,2.1,2.1,0,0,1,.37,0,1.09,1.09,0,0,1,.32.1.78.78,0,0,1,.41.39.86.86,0,0,1,.09.42.75.75,0,0,1,0,.15,7.3,7.3,0,0,1-.15.73c0,.11-.05.23-.08.35l-.22.86c-.13.5-.23.86-.31,1.07A1.57,1.57,0,0,1,303.28,225.73Zm3.54.44h-1.14l-.11-2.28-.57,2.28h-1.09l.9-3.56.23-.91.13-.54h1.09l.05.73.11,1.52.46-1.79.11-.46h1.09Zm1.54-6.06-.64.3h-3.13l-.07.31a1.3,1.3,0,0,0-.31-.21,2,2,0,0,0-.49-.15l.52-2.81,5.05-2.42Z"/><path class="cls-21" d="M288.89,218.65c.07-.56.19-1.27.33-2.1q-.56,1.44-.78,2.1Z"/><path class="cls-21" d="M293.16,224.38q.12-.85.33-2.1c-.37.95-.63,1.66-.78,2.1Z"/><path class="cls-21" d="M302.83,222a1.37,1.37,0,0,0-.18.47l-.23.91-.36,1.42a3.16,3.16,0,0,0-.1.54c0,.07.06.1.14.1a.22.22,0,0,0,.2-.11,2.38,2.38,0,0,0,.18-.56l.31-1.22.27-1.08a1.69,1.69,0,0,0,.08-.45c0-.07-.06-.1-.14-.1A.23.23,0,0,0,302.83,222Z"/><path class="cls-21" d="M354.66,272.5l-2,.33-.58-3.44,2-.33a1.3,1.3,0,0,0,1.06-1.5h0a1.3,1.3,0,0,0-1.5-1.06l-2,.34-.34-2a1.29,1.29,0,0,0-2.55.43l.33,2-3.44.58-.33-2a1.3,1.3,0,1,0-2.56.43l.34,2-2,.34a1.29,1.29,0,0,0,.43,2.55l2-.33.58,3.44-2,.33a1.3,1.3,0,0,0,.43,2.56l2-.34.34,2a1.29,1.29,0,1,0,2.55-.43l-.33-2,3.44-.58.33,2a1.3,1.3,0,1,0,2.56-.43l-.34-2,2-.34a1.29,1.29,0,0,0-.43-2.55Zm-8,1.35-.59-3.44,3.45-.59.58,3.45Z"/><path class="cls-21" d="M283.45,270.3h-19a.74.74,0,0,0-.7.59l-.84,4.76a.48.48,0,0,0,.49.59h19a.74.74,0,0,0,.69-.59l.84-4.76A.48.48,0,0,0,283.45,270.3Zm-4.09,3.59H267.41v-1h11.95Z"/><path class="cls-10" d="M231.2,144.35s-.46,2-1.71,2c-2.24,0-6.55-1-8.8-.7a6.42,6.42,0,0,1,4.43-1.31A23,23,0,0,0,231.2,144.35Z"/><path d="M158.22,178.28s-2.61,13.49,8.8,20.4l-2.08-.75a18,18,0,0,1-11.61-19.65h4.89Z"/><path class="cls-11" d="M417.57,246.08v9.79H410a2.25,2.25,0,0,1-2.24-2.24v-5.31a2.25,2.25,0,0,1,2.24-2.24h7.55m4-4H410a6.25,6.25,0,0,0-6.24,6.24v5.31a6.24,6.24,0,0,0,6.24,6.24h11.55V242.08Z"/><path class="cls-11" d="M411.27,238.65h27.13a0,0,0,0,1,0,0v20.89a6.24,6.24,0,0,1-6.24,6.24H417.52a6.24,6.24,0,0,1-6.24-6.24V238.65A0,0,0,0,1,411.27,238.65Z"/><polygon class="cls-22" points="411.27 246.08 411.27 242.08 410.02 246.08 411.27 246.08"/><polygon class="cls-22" points="411.27 259.87 411.27 255.87 410.65 255.87 410.02 259.87 411.27 259.87"/><path class="cls-23" d="M444.65,265.79H387.71a11.25,11.25,0,1,0,0,22.49h56.94C438.44,288.28,438.44,265.79,444.65,265.79Z"/><path class="cls-6" d="M493.15,265.79H436.21a11.25,11.25,0,1,0,0,22.49h56.94C486.94,288.28,486.94,265.79,493.15,265.79Z"/><path class="cls-21" d="M386.73,277A11.25,11.25,0,0,1,398,265.79h-5.37a11.25,11.25,0,1,0,0,22.49H398A11.25,11.25,0,0,1,386.73,277Z"/><path class="cls-21" d="M413.91,277a11.24,11.24,0,0,1,11.24-11.25h-5.37a11.25,11.25,0,1,0,0,22.49h5.37A11.24,11.24,0,0,1,413.91,277Z"/><path class="cls-24" d="M527.41,288.28c-.19,0-.18-1.25-.38-1.14-.07-2.43-.16-5-.2-7.6,0-1.43-.09-2.78-.09-4.12,0-.8,0-1.79,0-2.83s.09-2.14.11-3.18c0-.47,0-1,0-1.46,0-.92,0-1.95.08-3s.12-2.23.19-3.41.14-2.39.21-3.59.2-2.39.3-3.54c0-.4.08-.88.12-1.33s.1-.84.15-1.19c.1-1.32.2-2.69.34-4,.17-1.51.33-3,.5-4.51.26-2.05.53-4.13.78-6.09.18-1,.35-2,.52-3s.29-2.06.42-3l.53-2.89c1-6,2.07-11.91,3.24-17.56.2-1,.39-2,.61-3a13.28,13.28,0,0,1,.64-2.19c.2-.14.17.22.22.42-.7,3-1.5,6.8-2.31,11.2l-.53,2.88a7,7,0,0,0-.2,1.44c-.37,1.29-.61,3.19-.88,4.72s-.55,3-.84,4.59c-.53,3.35-1.09,6.91-1.5,10.43-.1.83-.2,1.66-.3,2.51s-.23,1.78-.34,2.65c-.05.53-.09,1.07-.13,1.59s-.13.9-.19,1.32c-.18,1.48-.23,2.93-.36,4.38-.08.8-.16,1.58-.24,2.39s-.12,1.64-.22,2.39c0,1.51-.16,3.06-.24,4.66,0,.38,0,.66,0,1.05,0,.64-.12,1.33-.13,2,0,1.62,0,4.19-.19,6.12a31.06,31.06,0,0,1,0,3.33,21.75,21.75,0,0,1,.14,2.25c0,1-.06,2,0,3.07a22.1,22.1,0,0,1,.08,2.26A29.28,29.28,0,0,1,527.41,288.28Z"/><path class="cls-24" d="M535.84,263.36c.15.11-.19.45,0,.55-.58.72-1.24,1.47-1.84,2.24-.34.43-.59.88-.92,1.28s-1,1.11-1.48,1.74c-.11.14-.19.32-.3.47-.85,1.12-2.14,2.67-3.26,4l-.33.38c-.1.11-.24.22-.33.33s-.15.19-.23.29l-.25.31-.22-.34c-.21-.32-.45-.63-.64-.95l-.88-1.49-1.21-2c-.2-.34-.35-.7-.55-1s-.43-.67-.62-1-.35-.65-.54-1c-1.15-2-2.41-3.92-3.61-5.77-.21-.32-.47-.63-.67-.95a2.4,2.4,0,0,1-.36-.8c.1-.14.23-.06.34-.05l2.39,3.65c.21.34.45.72.6.94s.23.39.34.44a8.68,8.68,0,0,0,.92,1.59c.29.51.54,1,.84,1.57.65,1.12,1.34,2.3,2.05,3.45l.52.81c.17.29.31.62.48.9s.25.33.35.5.15.32.23.46.21.35.32.51h-.11c.22-.29.43-.57.66-.84l.61-.69a5,5,0,0,1,.61-.68,10.16,10.16,0,0,1,1.1-1.39c.09-.12.12-.23.21-.35s.36-.37.52-.57a14.26,14.26,0,0,1,1.47-1.81,4.15,4.15,0,0,1,.83-1,3.56,3.56,0,0,1,.43-.76c.22-.3.51-.56.76-.88a3,3,0,0,1,.54-.67C534.93,264.35,535.48,263.43,535.84,263.36Z"/><path class="cls-24" d="M537.41,234.19c.15.12-.19.43,0,.53-.57.65-1.2,1.33-1.79,2-.32.39-.57.81-.89,1.17s-1,1-1.43,1.57c-.11.14-.19.3-.3.43-.82,1-2.07,2.43-3.16,3.65l-.32.35-.32.29c-.15.17-.29.34-.43.52l-.22.29-.25-.31c-.16-.19-.32-.39-.46-.59l-.92-1.32L525.65,241c-.2-.31-.36-.63-.57-.94s-.44-.59-.64-.87-.37-.59-.57-.88c-1.19-1.82-2.5-3.49-3.74-5.13-.22-.28-.48-.55-.69-.84a2,2,0,0,1-.38-.72c.09-.15.22-.08.33-.08l2.47,3.23.62.84c.12.17.24.35.35.38a8.07,8.07,0,0,0,1,1.42c.3.45.56.94.88,1.41.68,1,1.4,2.06,2.13,3.08l.54.72c.18.25.32.55.5.81s.26.29.36.44.16.28.25.41l.13.2h-.09c.29-.33.55-.68.85-1l.59-.62a3.79,3.79,0,0,1,.59-.61,9,9,0,0,1,1.07-1.27c.09-.1.11-.21.2-.32s.35-.33.5-.51a12.32,12.32,0,0,1,1.43-1.64,3.29,3.29,0,0,1,.8-.87,3.68,3.68,0,0,1,.42-.7c.22-.28.5-.51.75-.8a2.84,2.84,0,0,1,.52-.61C536.53,235.08,537.06,234.24,537.41,234.19Z"/><path d="M54.36,288.33a7.84,7.84,0,0,1,4.37-7.07l.2.46a7.31,7.31,0,0,0-4.07,6.58Z"/><path d="M43.7,288.53a9.87,9.87,0,1,1,9.86-9.86A9.88,9.88,0,0,1,43.7,288.53Zm0-19.23a9.37,9.37,0,1,0,9.36,9.37A9.38,9.38,0,0,0,43.7,269.3Z"/><path d="M68,288.53a9.87,9.87,0,1,1,9.86-9.86A9.88,9.88,0,0,1,68,288.53Zm0-19.23a9.37,9.37,0,1,0,9.36,9.37A9.38,9.38,0,0,0,68,269.3Z"/><rect x="53.31" y="278.42" width="5.1" height="0.5"/><path d="M17.5,288.22H17a7.7,7.7,0,0,1,4.4-7l13.06-5.7.19.46-13,5.7A7.2,7.2,0,0,0,17.5,288.22Z"/><path class="cls-5" d="M175.06,106.38c1.93-.28,2.66,2.34,3.4,3.61a7.33,7.33,0,0,0,1.81,2.15c1.8,1.45,4.37,2,5.55,4.13.62,1.13,2.35.12,1.73-1-1.56-2.8-4.94-3.14-6.84-5.51s-2.4-5.86-6.18-5.29c-1.27.18-.73,2.11.53,1.92Z"/><path class="cls-5" d="M184.57,98.6c1.7,1.59,1.09,4.37,2,6.39.82,1.81,3.67,3.63,3.39,5.75-.17,1.26,1.76,1.8,1.93.53.38-2.86-1.67-4.13-3.06-6.35-1.55-2.45-.59-5.62-2.85-7.73-.94-.88-2.36.53-1.41,1.41Z"/><path class="cls-5" d="M170.07,115.79c1.7,1.51,3.05,3.62,5.16,4.61,2.53,1.19,7-.68,8.71,1.82.74,1,2.47,0,1.73-1-1.37-2-3.43-2.29-5.71-2.24s-3.89-.06-5.62-1.69c-1-.93-1.84-2-2.86-2.9s-2.38.55-1.41,1.41Z"/><path class="cls-5" d="M262.41,133.08a10.76,10.76,0,0,1,3.14,5.34c.45,1.92.12,3.84.37,5.77a6.23,6.23,0,0,0,1.07,2.9c1.17,1.62,3.95,2.45,4,4.74,0,1.28,2,1.29,2,0a5,5,0,0,0-1.9-3.77,18.92,18.92,0,0,1-2.24-1.82c-1.1-1.37-1-2.86-1-4.48a13.48,13.48,0,0,0-4-10.09c-.92-.9-2.34.51-1.42,1.41Z"/><path class="cls-5" d="M271.37,136.84a8.66,8.66,0,0,0,2.94,7.55c3,2.87,3.75,5.67,4.1,9.71.11,1.28,2.11,1.29,2,0-.24-2.74-.5-5.63-2-8-2-3.34-5.61-4.64-5.09-9.21.15-1.27-1.85-1.26-2,0Z"/><path class="cls-10" d="M220.72,177.67s5.62,7.63-2.08,22.92a21,21,0,0,0,6.45-15.85A9.09,9.09,0,0,0,220.72,177.67Z"/><line class="cls-20" y1="288.58" x2="570.12" y2="288.58"/><path class="cls-25" d="M313.12,54.29l-2.77-5.17a2.61,2.61,0,0,0-.53,1.58C309.86,52.14,311.16,53.29,313.12,54.29Z"/><path class="cls-25" d="M316.57,45.65l.79,1.83c6.84-2.89,11-6.67,12.34-11.26,1.73-5.89-1.86-10.8-2-11a8.32,8.32,0,0,1-1.61-3.14,2,2,0,0,1,.12-1.27,2,2,0,0,1,.3-.41,4.45,4.45,0,0,1,2.24-1.05l.42-2.11c-1.46.19-3.81.79-4.75,2.67a4.68,4.68,0,0,0-.18.48,5.28,5.28,0,0,0,.63,4.09,13.85,13.85,0,0,0,1.22,1.93c0,.05,3.15,4.35,1.69,9.28C326.59,39.66,322.82,43,316.57,45.65Z"/><path class="cls-25" d="M412,47.94a.46.46,0,0,1,0-.2,1.22,1.22,0,0,1,1.12-.75,3.59,3.59,0,0,1,.47,0,4.36,4.36,0,0,1,1.47.28,2.91,2.91,0,0,1,1.39,1c.13.2.51.82-.23,1.93L414.93,52l0,0c-1.22,1.54-2.63,3-4,4.46l-.42.44h2.76c1.24-1.32,2.49-2.68,3.59-4.11a9.83,9.83,0,0,1,2.91,1.84.38.38,0,0,1,.12.31,4,4,0,0,1-1.19,2h1.57a1.26,1.26,0,0,1,.76.28,4.25,4.25,0,0,0,.85-2.15,2.34,2.34,0,0,0-.67-1.79,8.57,8.57,0,0,0-2.1-1.54l-.27,0-.56,0h0l-.61,0h0a3.83,3.83,0,0,0,.56-4.61,3.47,3.47,0,0,0-.44-.57A5.86,5.86,0,0,0,412.85,45a3.13,3.13,0,0,0-2.76,2.19,2.47,2.47,0,0,0,0,1.2Z"/><path class="cls-25" d="M407.65,74.87a41.57,41.57,0,0,0,6.66,5.73,22.71,22.71,0,0,1,4.41,3.8,2.84,2.84,0,0,1,.69,2,1.94,1.94,0,0,1-.49.94c.08.81.17,1.64.28,2.51a5.39,5.39,0,0,0,2.2-3.23c.22-2-1-3.58-2.73-5.14-.93-.82-2-1.63-3.18-2.49-3-2.21-6.38-4.72-8.5-8.39-.05-.09-.12-.18-.17-.28a5.36,5.36,0,0,1-.52-4.14c.61-2.35,2.48-4.21,4.82-6.71h-2.51a26.75,26.75,0,0,0-2.87,3.15c-1.7,2.72-2.38,5.57-.67,8.67A19.57,19.57,0,0,0,407.65,74.87Z"/><path class="cls-25" d="M350.32,55c1,7.51.26,17.52-.14,21.91-.42,4.69,1.51,10.12,5.16,14.53,3.15,3.8,9.15,8.77,19.85,10.89,8.32,1.66,18,3.91,19.2,6.69.17.4.3,1.07-.55,2.38l.08,2.56c2.07-1.5,2.86-4.44,2.31-5.72-1.27-3-6.86-5.13-20.65-7.87-18.26-3.62-24.05-16.2-23.41-23.28.41-4.51,1.13-14.85.09-22.63,2.3-1,3.82-2.86,3.81-4.9a30.23,30.23,0,0,0-.28-3.6,4.52,4.52,0,0,1-1.88,1.13,24,24,0,0,1,.16,2.49,3.46,3.46,0,0,1-2.14,2.83c-.08-.45-.18-.89-.28-1.31a39.88,39.88,0,0,1-.78-4.16c-.72-5.53.81-8.9,1.79-10.09l.15.28,0,0,.53,1,.95-1c-.05-.22-.11-.51-.17-.81a1.51,1.51,0,0,0-2.27-1h0c-1.3.88-3.52,3.33-3.18,9.68a36.35,36.35,0,0,0,1,6.52c.11.47.21,1,.3,1.46a7.09,7.09,0,0,1-6.15-2.23l-.12,2.53A8.91,8.91,0,0,0,350.32,55Z"/><path class="cls-25" d="M331.7,81.74a29.26,29.26,0,0,1,2.88-.52c5.68-.77,10.1.34,12.1,3.13a2,2,0,0,1,.12.19,5.07,5.07,0,0,1,.55,4.42l.24,1.87-.81,2.56a11.52,11.52,0,0,0,1.66-2,7.21,7.21,0,0,0-.13-8.17,8.45,8.45,0,0,0-1.92-1.9c-2.79-2-7.07-2.73-12.18-2-1,.13-1.94.31-3,.54-7.49,1.71-14.34.9-18.79-2.2a8.89,8.89,0,0,1-4-6,2.94,2.94,0,0,1,.63-2.56c1-1,3.32-1.4,6.66-1,9.14,1,10.94-3.3,11.27-4.64.75-3-1.34-6.5-4.76-7.87-.41-.16-1-.35-1.68-.57l1.07,2.49c2.39,1,3.93,3.45,3.43,5.47-.63,2.5-4,3.67-9.11,3.13-4.09-.43-6.81.1-8.31,1.63a4.84,4.84,0,0,0-1.18,4.22,10.83,10.83,0,0,0,4.85,7.33C316.23,82.66,323.65,83.57,331.7,81.74Z"/><path class="cls-25" d="M477.36,182.27c-4.2-6.74-21.68-10.13-48.46-9.53h0c-15.19-.34-15.2-4.11-15.22-8.48,0-5.06,0-10.79-19.42-11.43-7.51-.25-15.75-.76-23.9-1.55,5.5-1.82,11.95-2.87,18-3.87,4.28-.7,8.32-1.36,11.67-2.24,6.86-1.81,27.72-7.3,29.34-19.67.7-5.36-3.91-8.89-9.59-11.73-2.17-1.09-4.51-2.09-6.76-3l0,0c-5-2.13-10.17-4.33-11.11-6.8-1-2.73,4.07-6,8.86-8.77-.1-.71-.21-1.42-.32-2.13-6.12,3.53-12.08,7.19-10.41,11.61,1.24,3.28,6.34,5.44,12.24,7.95l1.05.45c2.15.91,4.34,1.87,6.33,2.92,4.67,2.44,8.28,5.35,7.77,9.3-1.45,11-21.33,16.27-27.87,18-3.26.85-7.25,1.51-11.48,2.2-7.57,1.24-15.72,2.57-22.11,5.38-17.15-1.9-33.22-5.11-40.25-9.91-1.67-1.14-2.49-2.23-2.46-3.24.08-2.34,4.55-5,8.5-7.31,5-3,9.79-5.78,9.74-9.46A7.52,7.52,0,0,0,339.7,116a15.84,15.84,0,0,0-3.51-2.86c-1.83-1.22-3.44-2.31-3.95-4.32a5.57,5.57,0,0,1-.18-1.28,5.42,5.42,0,0,1,1.13-3.22c.27-1.27.54-2.53.8-3.78-2.31,2-4,4.29-3.93,7a6.81,6.81,0,0,0,1.53,4.35,14.77,14.77,0,0,0,3.5,2.89c1.62,1.08,3.08,2.07,3.83,3.69a5.84,5.84,0,0,1,.55,2.46c0,2.52-4.63,5.28-8.75,7.71-4.82,2.84-9.38,5.53-9.49,9-.06,1.76,1,3.38,3.33,4.95,7.5,5.13,23.33,8.14,38.16,9.9a16.47,16.47,0,0,0-7.27,7.94,6.24,6.24,0,0,0,.65,6.2c7,9.81,43.32,9.51,64.35,8.46,2.94-.15,5.72-.25,8.36-.32h0c37.74-.91,45.35,6.24,46.81,8.59a3.74,3.74,0,0,1,0,4.11c-2.74,4.93-15.06,10.18-32.49,10.18h-5.14c-16.63-.06-33.61-.11-49.08,5.58l-.76,2.34c15.25-6,32.23-6,49.83-5.92h5.15c16.23,0,30.63-4.71,34.24-11.21A5.74,5.74,0,0,0,477.36,182.27ZM357.73,165.44a4.19,4.19,0,0,1-.43-4.29c1.5-3.74,4.76-6.35,9-8.28,12.59,1.35,23.9,1.82,27.92,1.95,17.46.58,17.48,4.89,17.49,9.45,0,3.95.58,7.14,5.71,8.93C370.11,175.28,359.91,168.5,357.73,165.44Z"/><path class="cls-26" d="M416.16,50.32l.08-.12c.74-1.11.36-1.73.23-1.93A3.55,3.55,0,0,0,413.61,47a3.59,3.59,0,0,0-.47,0,1.22,1.22,0,0,0-1.12.75c-.22.75,2,1.67,3.74,2.41Z"/><path class="cls-26" d="M351.93,52.39a3.46,3.46,0,0,0,2.14-2.83,84.09,84.09,0,0,0-1.71-12c-1.18,1.33-2.8,4.83-.71,13.53C351.75,51.5,351.85,51.94,351.93,52.39Z"/><rect class="cls-13" x="449.61" y="110.06" width="22.31" height="0.25"/><path class="cls-25" d="M114.93,191c2.32,9.54,11.4,15.93,18.8,21.13a58.33,58.33,0,0,1,8.53,6.74c.15.16.29.31.42.47a6,6,0,0,1,1.83,4.25c-.22,3-2.12,5.32-5.09,7.21l-.69.42-.29.88c-.1.46-.27,1.09-.47,1.8l.61-.31c4.54-2.37,7.61-5.41,7.92-9.86.17-2.35-1.07-4.48-3.11-6.56-.15-.16-.31-.31-.47-.46a69.52,69.52,0,0,0-8-6.22c-7.84-5.51-16.69-11.75-18.25-21.25,0-.2-.08-.38-.11-.58-.54-4.15,2-7.19,4.32-9,9.32-7.46,25.77-6.7,38-2.75a17.15,17.15,0,0,1,1-1.78c-17.77-6-32.95-2.91-40.29,3-3.77,3-5.57,6.86-5,10.82A20.1,20.1,0,0,0,114.93,191Z"/><path class="cls-25" d="M367.82,198.68c3.8-2.72,7.15-3.8,9.41-3.42a3.36,3.36,0,0,1,2.93,3.42h2v-.14a5.37,5.37,0,0,0-4.6-5.26c-3.53-.58-8.23,1.38-13.06,5.4h3.32Z"/><path class="cls-25" d="M314.88,227c.1,7.62,5.39,14.64,12.05,16,11.46,2.32,19.07-12,21.82-18.24,5.85-13.36,13-21.79,19.07-26.1H364.5c-.44.37-.87.74-1.31,1.14-4.31,3.92-10.64,11.29-16.28,24.16-5.38,12.29-12.5,18.53-19.58,17.08-5.77-1.17-10.36-7.34-10.45-14.06-.24-18.46-3.81-24.63-10.36-28.32h-4.67C310.56,202.22,314.62,206.38,314.88,227Z"/><path class="cls-25" d="M405.91,248.91a2.07,2.07,0,0,1,1.87.7s1.77-1.43.34-2.46a3.49,3.49,0,0,0-2.29-.24,10.5,10.5,0,0,0-2,.4c-5,1.51-12.14,7.14-15.45,18.73-4.35,15.27-11.21,20.19-16.19,19.74-3.76-.36-6.64-3.63-7.48-8.28l-1.1,3.36c1.59,3.89,4.68,6.55,8.39,6.91.22,0,.47,0,.76,0,3.49,0,12.09-2.1,17.55-21.21,2.94-10.31,9-15.53,13.43-17.14A9.38,9.38,0,0,1,405.91,248.91Z"/><path class="cls-25" d="M507.08,285.49c-19.68,3.17-23-6.48-25.65-14.24-.87-2.5-1.61-4.67-2.84-6.11-3.28-3.84-10.62-3.24-26.91-.34-8.07,1.45-14.9,1.74-19,1-2-.37-3.32-1-3.89-1.83s-.35-2,.61-3.53,3.29-3.34,5.55-5.13c1.26-1,2.45-1.94,3.47-2.85,1.79-1.6,3-3.1,3.07-4.58a2.68,2.68,0,0,0-1-2.11,5.13,5.13,0,0,0-2.07-1c-4-1-10.2,1.72-16.84,4.86l-1.37.65-2.63,1.24c-2.2,1-4.36,2-6.3,2.69a22.18,22.18,0,0,1-3,.89,11.48,11.48,0,0,1-1.3.2c-2,.16-2.79-.18-2.86-.43a28.36,28.36,0,0,1-.34-3.43c-.2.24-2.34,2.63-1.43,4.36a3.14,3.14,0,0,0,2.54,1.46,10.32,10.32,0,0,0,2.25,0,18,18,0,0,0,4.13-1c.35-.11.7-.24,1.05-.37,1.65-.61,3.41-1.38,5.25-2.23,1.14-.52,2.31-1.07,3.49-1.63l.51-.25c6.46-3.06,13.56-6.36,16.84-5a2.63,2.63,0,0,1,.76.45.69.69,0,0,1,.31.55,3.45,3.45,0,0,1-1.07,1.82,42.31,42.31,0,0,1-4.71,4.08c-2.51,2-4.88,3.85-6,5.64-1.42,2.25-1.62,4.17-.58,5.7a4.17,4.17,0,0,0,.65.75c4.33,4,18.23,2.06,24.26,1,14.89-2.65,22.43-3.38,25-.33,1,1.15,1.67,3.15,2.46,5.46,2.28,6.62,5.56,16.19,20.62,16.19a44.81,44.81,0,0,0,7.25-.63c26.79-4.32,39.55-3.89,49.8-1.63h0a7.43,7.43,0,0,0-4.72-3C542.78,281.16,531.64,281.53,507.08,285.49Z"/><path class="cls-25" d="M173.55,259.51a76.11,76.11,0,0,0-10.71,4.22c-.13,0-.26.12-.39.18s-.53.23-.8.36c-2.17,1-4.53,2.08-7.05,3.25-22.77,10.6-57.18,26.6-67.2,15.23a18.05,18.05,0,0,1-1.81-2.41,14.35,14.35,0,0,1-2.23-9.52c.75-6.48,5.48-12.59,9.65-16.83l1.08-3.84c-4.73,4.27-11.73,11.91-12.72,20.44a16.58,16.58,0,0,0,3.52,12.24c.32.42.64.84,1,1.25a13.64,13.64,0,0,0,8.55,4.2,26.78,26.78,0,0,0,4,.29,39.5,39.5,0,0,0,4.62-.29c15.48-1.78,36.65-11.63,52.38-18.94,4.2-2,8.1-3.77,11.38-5.19l.58-.24.59-.26a46.13,46.13,0,0,1,6-2.2c5.44-1.35,8.67.47,10.48,2.38l.06.08h2.52l-.06-.09C185.16,261.16,181.13,257.63,173.55,259.51Z"/><polygon class="cls-25" points="220.79 177.77 220.79 177.77 220.79 177.77 220.79 177.77"/><path class="cls-25" d="M298.31,195.2c-2.64-1-6.8-2.2-11.62-3.63h0c-8.62-2.55-20.32-6-30.2-10.1a28.66,28.66,0,0,0,.86-5.51,48.81,48.81,0,0,0-.53-11.18,25.34,25.34,0,0,0-.94-3.73c-2.16-6.39-6.22-8.53-9.91-9l-.86-.06a10.36,10.36,0,0,0-5,1,1.85,1.85,0,0,0,1.27,1.61,8.3,8.3,0,0,1,3.28-.68h.07a7.89,7.89,0,0,1,1,.06c4.18.53,7,3.43,8.53,8.49a27.65,27.65,0,0,1,.85,4.19,50.25,50.25,0,0,1,.26,9.13,26.23,26.23,0,0,1-.72,4.83A62.12,62.12,0,0,1,242.35,174a16.11,16.11,0,0,1-4.42-4.57,12.24,12.24,0,0,1-1.84-7.24,3.48,3.48,0,0,1-.33-1.38c0-1.4,0-2.62-.12-3.7a10.47,10.47,0,0,0-1.14,2.63,13.52,13.52,0,0,0,1.7,10.69c1.45,2.5,4.21,4.87,7.81,7.1.81.5,1.65,1,2.54,1.48,2.29,1.25,4.83,2.46,7.53,3.62a42.76,42.76,0,0,1-3.72,8.39A90,90,0,0,1,237,208.28c.66-10.57-.62-20-6.16-25.24a19.92,19.92,0,0,0-7.79-4.76,16,16,0,0,0-2.09-.48,9.82,9.82,0,0,1,2.84,2.89,19.16,19.16,0,0,1,5.67,3.8c3.24,3,6.78,9,5.29,26.09-9,9-19.4,17.35-27.85,24.12-7.34,5.87-13.13,10.51-15.21,13.42a23.66,23.66,0,0,0-4.18,15.7.28.28,0,0,0,0,.09h2s0-.07,0-.1a21.82,21.82,0,0,1,3.77-14.53c1.91-2.68,7.61-7.24,14.83-13,8-6.38,17.63-14.12,26.28-22.56a185.85,185.85,0,0,1-3.17,18.44c-2.79,12.85-1.2,23.79,4.47,30.83,4.13,5.12,10.36,8,18.09,8.29l.64-2c-7.49-.18-13.27-2.72-17.17-7.57-5.29-6.55-6.73-16.9-4.07-29.15a182.57,182.57,0,0,0,3.53-21.17,99.72,99.72,0,0,0,14.64-18.18,46.73,46.73,0,0,0,4.55-9.79c1.9.78,3.87,1.53,5.87,2.27,8.24,3,17.05,5.65,24.33,7.8l2.16.65c3.86,1.14,7.15,2.14,9.33,2.94,1.52.55,2.92,1.07,4.23,1.6h4.67A56.14,56.14,0,0,0,298.31,195.2Z"/></g></g></svg>