<?xml version="1.0" encoding="utf-8"?>
<!-- Generator: Adobe Illustrator 23.0.2, SVG Export Plug-In . SVG Version: 6.00 Build 0)  -->
<svg version="1.1" id="Layer_1" xmlns="http://www.w3.org/2000/svg" xmlns:xlink="http://www.w3.org/1999/xlink" x="0px" y="0px"
	 viewBox="0 0 1060 710.9" style="enable-background:new 0 0 1060 710.9;" xml:space="preserve">
<style type="text/css">
	.st0{clip-path:url(#SVGID_2_);}
	.st1{fill:#ECF1F8;}
	.st2{fill:#FFFFFF;}
	.st3{fill:#E0E5EB;}
	.st4{fill:#BED7ED;}
	.st5{fill:#9BB9DB;}
	.st6{fill:#ADC7E0;}
	.st7{fill:#ECF0F8;}
	.st8{fill:none;stroke:#FFFFFF;stroke-width:0.5;stroke-miterlimit:10;}
	.st9{fill:#CAD8EF;}
	.st10{fill:#A0BCDA;}
	.st11{opacity:0.3;fill:#B9C9E8;}
	.st12{fill:none;stroke:#FFFFFF;stroke-width:0.25;stroke-miterlimit:10;}
	.st13{opacity:0.3;fill:#ECF1F8;enable-background:new    ;}
	.st14{opacity:0.6;fill:#ECF1F8;}
	.st15{fill:#B0CBE6;}
	.st16{fill:none;stroke:#9BB9DB;stroke-width:0.5;stroke-miterlimit:10;}
	.st17{fill:#B4CCE1;}
	.st18{fill:#E3F3FF;}
	.st19{fill:url(#SVGID_3_);}
	.st20{fill:url(#SVGID_4_);}
	.st21{fill:none;stroke:#09083A;stroke-miterlimit:10;}
	.st22{fill:#BDBDC6;}
	.st23{fill:#09083A;}
	.st24{fill:#3F3F51;}
	.st25{fill:#DCE2EA;}
	.st26{opacity:0.2;fill:#09083A;}
	.st27{fill:#7FA3EC;}
	.st28{fill:#EB6F9B;}
	.st29{opacity:0.4;fill:#09083A;}
	.st30{fill:#FCE8B2;}
	.st31{opacity:0.1;fill:#09083A;}
	.st32{fill:none;stroke:#09083A;stroke-width:0.5;stroke-linejoin:round;stroke-miterlimit:10;}
	.st33{fill:#717FAB;}
	.st34{fill:#FFFFFF;stroke:#57E4FF;stroke-width:0.5;stroke-miterlimit:10;}
	.st35{fill:url(#SVGID_5_);}
	.st36{fill:#E6EDF5;}
	.st37{fill:#7762C8;}
	.st38{fill:#02070F;}
	.st39{fill:none;stroke:#000000;stroke-width:2;stroke-miterlimit:10;}
	.st40{fill:url(#SVGID_6_);}
</style>
<g>
	<defs>
		<path id="SVGID_1_" d="M201.8,689.3L201.8,689.3C83.7,662.4,0,557.4,0,436.2L0,0h1060v659.2l-596.5,48.9
			C375.8,715.2,287.6,708.9,201.8,689.3z"/>
	</defs>
	<clipPath id="SVGID_2_">
		<use xlink:href="#SVGID_1_"  style="overflow:visible;"/>
	</clipPath>
	<g class="st0">
		<g>
			<g>
				<g>
					<polygon class="st1" points="153,536 126.5,494.5 62.8,466.8 66,538.1 					"/>
					<polygon class="st1" points="21.4,477.6 29.4,539 61.7,538.2 57.5,464.6 					"/>
					<polygon class="st2" points="62.8,466.8 57.5,464.6 61.7,538.2 66,538.1 					"/>
					<polygon class="st3" points="41.1,538.8 39.3,530.3 47,529.4 47,538.7 					"/>
					<polygon class="st2" points="126.5,494.5 123.3,493.1 118.6,536.8 120.7,536.8 					"/>
				</g>
				<g>
					<path class="st4" d="M872.3,401.1c-3-4.7-9.3-7.6-16.3-7.3c-20.4,1-45.4,7.3-46.4,7.5l0.3,1.4c7.1-1.7,27-6.1,43.8-6.9
						c6.9-0.3,13.3,2.5,16.3,7.3c2.1,3.4,2.2,7.2,0.2,10.8c-0.6,1-1.4,2.2-2.6,3.4c2.5-1.9,4-3.8,4.9-5.4
						C874.5,408.4,874.4,404.5,872.3,401.1z"/>
					<path class="st5" d="M864.3,413.5c-5.8,4.3-19.6,9.9-52.1,10.2l0,2C848.3,425,860.4,417.7,864.3,413.5z"/>
					<path class="st5" d="M812.3,425.7c-0.8,0-1.5,0-2.3,0l0,5c37-0.4,51.8-7.5,57.6-13.4c-7.1,5.4-22.4,11.1-55.3,11.4L812.3,425.7
						z"/>
					<path class="st6" d="M870,403.1c-3-4.7-9.3-7.6-16.3-7.3c-16.8,0.8-36.7,5.2-43.8,6.9l0.9,3.5c0.3-0.1,25.6-6.4,45.4-7.4
						c5.1-0.3,9.8,1.7,11.8,4.9c1.1,1.8,1.2,3.8,0.1,5.8c-0.5,0.9-1.6,2.3-3.8,4c-4,4.2-16,11.5-52,12.1l0,3
						c32.9-0.3,48.2-6,55.3-11.4c1.2-1.2,2-2.4,2.6-3.4C872.2,410.4,872.1,406.5,870,403.1z"/>
				</g>
				<polygon class="st6" points="823.5,399.4 821.3,400.7 821.3,427.3 823.5,427.3 				"/>
				<polygon class="st4" points="825.7,400.7 823.4,399.4 823.4,427.3 825.7,427.3 				"/>
				<polygon class="st6" points="858.4,397.3 856.1,398.6 856.1,425.2 858.4,425.2 				"/>
				<polygon class="st4" points="860.5,398.6 858.3,397.3 858.3,425.2 860.5,425.2 				"/>
				<g>
					<polygon class="st1" points="811.6,417.5 811.6,500.8 846.6,502.9 846.6,402.7 					"/>
					<polygon class="st4" points="870,420.4 846.6,402.7 846.6,502.9 870,504.4 					"/>
					<polygon class="st7" points="849.9,408.8 849.9,418.6 868.5,431 868.5,422.8 					"/>
					<polygon class="st7" points="849.9,423.2 849.9,433 868.5,445.5 868.5,437.2 					"/>
					<polygon class="st7" points="849.9,437.7 849.9,447.5 868.5,459.9 868.5,451.7 					"/>
					<polygon class="st7" points="849.9,452.2 849.9,462 868.5,474.4 868.5,466.2 					"/>
				</g>
				<g>
					<polygon class="st1" points="758.2,377.9 758.2,456.7 793.2,458.9 793.2,366.3 					"/>
					<polygon class="st4" points="816.6,376.3 793.2,366.3 793.2,458.9 816.6,460.3 					"/>
					<polygon class="st7" points="796.4,422.9 813.5,428 813.5,425.4 796.4,420.2 					"/>
					<polygon class="st7" points="796.4,434 813.5,439.2 813.5,436.5 796.4,431.3 					"/>
					<polygon class="st7" points="813.5,391.9 796.4,386.7 796.4,389.4 813.5,394.6 					"/>
					<polygon class="st7" points="796.4,411.7 813.5,416.9 813.5,414.2 796.4,409 					"/>
					<polygon class="st7" points="796.4,400.6 813.5,405.7 813.5,403.1 796.4,397.9 					"/>
				</g>
				<path class="st4" d="M15.2,178.2c0,0,307.3-112.9,546.1,52.1s-23.9,171.2-23.9,171.2L15.2,178.2z"/>
				<path class="st6" d="M531.8,264.5C361,146.5,155.3,170.6,51.9,194l485.4,207.5c0,0,57.7-1.4,94.4-19.8
					C634.9,356.4,610.8,319.1,531.8,264.5z"/>
				<path class="st1" d="M561.2,230.3c-238.8-165-546.1-52.1-546.1-52.1l7.8,3.3c89-23.9,320.2-66.9,508.8,63.4
					c112.7,77.9,113.7,120.4,83.3,143.5C667.5,370.8,704,329,561.2,230.3z"/>
				<g>
					<path class="st8" d="M389.4,197.2c0,0,28.1-9.2,42-30.1"/>
					<path class="st8" d="M415.1,222.9c0,0,45.4-4.9,66.6-36.9"/>
					<path class="st8" d="M453,249.2c0,0,60.1-1.1,75.1-44.8"/>
					<path class="st8" d="M490.5,274.1c0,0,53.5,2.3,79.8-37.4"/>
					<path class="st8" d="M526.2,300.9c0,0,53.6-1.8,75.8-40.2"/>
					<path class="st8" d="M558.3,325.5c0,0,54,6.3,75.5-37.2"/>
					<path class="st8" d="M580,345.2c0,0,42.9,10.5,72.3-32.7"/>
					<path class="st8" d="M605.3,365.8c0,0,37.1,7.1,56.8-26.1"/>
				</g>
				<polygon class="st1" points="0.5,539.9 932.5,500.4 932.5,702.9 0.5,879.9 				"/>
				<g>
					<g>
						<g>
							<path class="st9" d="M13.4,540.9c22.8,17.8,48.8,31.8,74,45.8c37.6,20.9,75.9,40.7,114.3,60.2
								c40.7,20.6,81.7,40.8,122.7,60.7c33.5,16.2,67,32.3,100.7,48.1c10.9,5.1,21.7,10.2,32.6,15.3c3.3,1.6,6.7,3.1,10,4.7
								c1.6,0.7,3.5,2.1,5.2,2.4c0.2,0,0.5,0.2,0.7,0.3c0.3,0.2,0.7-0.4,0.3-0.5c-12.9-6-25.8-12.1-38.7-18.1
								c-31.9-15-63.8-30.2-95.6-45.6c-40.7-19.6-81.2-39.5-121.6-59.8c-39.2-19.7-78.3-39.7-116.8-60.8
								c-27.5-15-55.4-30.1-80.9-48.4c-2.2-1.6-4.3-3.1-6.4-4.8C13.5,540.2,13.1,540.6,13.4,540.9L13.4,540.9z"/>
						</g>
					</g>
					<g>
						<g>
							<path class="st9" d="M16.4,540.9c20,6.7,40,13.4,60.1,20c47.7,15.9,95.5,31.8,143.2,47.8c57.9,19.3,115.7,38.6,173.6,57.9
								c50,16.7,100,33.4,150,50c16.5,5.5,33,11,49.5,16.5c5.1,1.7,10.2,3.4,15.2,5.1c2.5,0.8,5.4,2.3,8,2.7c0.3,0,0.7,0.2,1,0.3
								c0.4,0.1,0.5-0.5,0.2-0.6c-20-6.7-40-13.4-60.1-20c-47.7-15.9-95.5-31.8-143.2-47.8C356,653.6,298.2,634.3,240.3,615
								c-50-16.7-100-33.4-150-50c-16.5-5.5-33-11-49.5-16.5c-5.1-1.7-10.2-3.4-15.2-5.1c-2.5-0.8-5.4-2.3-8-2.7
								c-0.3,0-0.7-0.2-1-0.3C16.2,540.2,16,540.8,16.4,540.9L16.4,540.9z"/>
						</g>
					</g>
					<g>
						<g>
							<path class="st9" d="M20.1,540.9c15.6,1.6,31.3,3.3,46.9,4.9c37,3.9,74,7.9,110.9,12.1c42.8,4.8,85.6,9.7,128.3,15
								c33.3,4.1,66.5,8.4,99.6,13.7c18.9,3,37.9,5.5,56.8,8.1c31.6,4.3,63.2,8.5,94.8,12.7c37.7,5,75.4,9.9,113.2,14.9
								c37.1,4.8,74.2,9.7,111.3,14.5c29.3,3.8,58.7,7.6,88,11.3c15,1.9,29.9,3.9,44.9,5.8c0.7,0.1,1.3,0.2,2,0.3
								c0.4,0,0.4-0.6,0-0.6c-10.3-1.3-20.6-2.6-30.9-4c-26.5-3.4-53.1-6.8-79.6-10.3c-35.7-4.6-71.4-9.2-107.1-13.9
								c-38.3-5-76.7-10-115-15c-34-4.5-68.1-9-102.1-13.6c-22.6-3.1-45.1-6.1-67.6-9.4c-26.3-3.9-52.5-7.9-78.9-11.3
								c-42.1-5.4-84.2-10.4-126.3-15.2c-39.7-4.5-79.4-8.9-119.1-13.1c-22.3-2.4-44.6-4.8-67-7.1c-1-0.1-2.1-0.2-3.1-0.3
								C19.7,540.3,19.7,540.9,20.1,540.9L20.1,540.9z"/>
						</g>
					</g>
					<g>
						<g>
							<path class="st9" d="M15.5,737.6c8.2-2.1,16.4-4.2,24.6-6.4c22.2-5.8,44.4-11.5,66.6-17.3c32.8-8.5,65.6-17,98.5-25.5
								c40.2-10.4,80.4-20.8,120.6-31.2c44-11.4,88.1-22.8,132.1-34.2c44.3-11.5,88.6-22.9,132.8-34.4
								c41.3-10.7,82.6-21.4,123.9-32.1c35-9.1,70-18.1,105-27.2c25.1-6.5,50.2-13,75.3-19.5c11.8-3,24.2-5.3,35.7-9.2
								c0.5-0.2,1-0.3,1.5-0.4c0.4-0.1,0.2-0.7-0.2-0.6c-8.2,2.1-16.4,4.2-24.6,6.4c-22.2,5.8-44.4,11.5-66.6,17.3
								c-32.8,8.5-65.6,17-98.5,25.5c-40.2,10.4-80.4,20.8-120.6,31.2c-44,11.4-88.1,22.8-132.1,34.2
								c-44.3,11.5-88.6,22.9-132.8,34.4c-41.3,10.7-82.6,21.4-123.9,32.1c-35,9.1-70,18.1-105,27.2c-25.1,6.5-50.2,13-75.3,19.5
								c-11.8,3-24.2,5.3-35.7,9.2c-0.5,0.2-1,0.3-1.5,0.4C15,737.1,15.1,737.7,15.5,737.6L15.5,737.6z"/>
						</g>
					</g>
					<g>
						<g>
							<path class="st9" d="M29,886.4c7.8-3.2,15.6-6.4,23.4-9.5c21.2-8.6,42.5-17.3,63.7-25.9c31.4-12.8,62.8-25.6,94.3-38.3
								c38.3-15.6,76.7-31.2,115-46.8c41.8-17,83.7-34,125.5-51.1c42.4-17.2,84.8-34.5,127.1-51.7c39.5-16.1,79-32.2,118.5-48.2
								c33.4-13.6,66.8-27.2,100.2-40.8c24-9.8,48-19.5,72-29.3c11.2-4.6,23.1-8.5,34-13.8c0.5-0.2,1-0.4,1.5-0.6
								c0.4-0.1,0.2-0.7-0.2-0.6c-7.8,3.2-15.6,6.4-23.4,9.5c-21.2,8.6-42.5,17.3-63.7,25.9c-31.4,12.8-62.8,25.6-94.3,38.3
								c-38.3,15.6-76.7,31.2-115,46.8c-41.8,17-83.7,34-125.5,51.1c-42.4,17.2-84.8,34.5-127.1,51.7c-39.5,16.1-79,32.2-118.5,48.2
								c-33.4,13.6-66.8,27.2-100.2,40.8c-24,9.8-48,19.5-72,29.3c-11.2,4.6-23.1,8.5-34,13.8c-0.5,0.2-1,0.4-1.5,0.6
								C28.5,886,28.7,886.6,29,886.4L29,886.4z"/>
						</g>
					</g>
					<g>
						<g>
							<path class="st9" d="M281.2,1047c5.7-4.2,11.4-8.5,17.1-12.7c15.4-11.4,30.9-22.9,46.3-34.3c22.9-17,45.8-34,68.7-51
								c27.8-20.6,55.7-41.3,83.5-61.9c30.6-22.7,61.2-45.4,91.9-68.1c30.8-22.8,61.6-45.6,92.3-68.4c28.8-21.4,57.6-42.7,86.5-64.1
								c24.3-18,48.5-36,72.8-53.9c17.5-13,35-26,52.6-39c5.4-4,10.9-8,16.3-12.1c2.7-2,6.1-3.9,8.5-6.3c0.3-0.3,0.7-0.5,1.1-0.8
								c0.3-0.2,0-0.7-0.3-0.5c-5.7,4.2-11.4,8.5-17.1,12.7c-15.4,11.4-30.9,22.9-46.3,34.3c-22.9,17-45.8,34-68.7,51
								c-27.8,20.6-55.7,41.3-83.5,61.9c-30.6,22.7-61.2,45.4-91.9,68.1c-30.8,22.8-61.6,45.6-92.3,68.4
								c-28.8,21.4-57.6,42.7-86.5,64.1c-24.3,18-48.5,36-72.8,53.9c-17.5,13-35,26-52.6,39c-5.4,4-10.9,8-16.3,12.1
								c-2.7,2-6.1,3.9-8.5,6.3c-0.3,0.3-0.7,0.5-1.1,0.8C280.6,1046.7,280.9,1047.2,281.2,1047L281.2,1047z"/>
						</g>
					</g>
					<g>
						<g>
							<path class="st9" d="M4.9,631.7c37-9,74.1-17.9,111.1-26.9c59-14.3,117.9-28.6,176.9-42.8c13.4-3.3,26.9-6.5,40.3-9.8
								c0.4-0.1,0.2-0.7-0.2-0.6c-37,9-74.1,17.9-111.1,26.9C163,592.8,104,607.1,45,621.4c-13.4,3.3-26.9,6.5-40.3,9.8
								C4.3,631.2,4.5,631.8,4.9,631.7L4.9,631.7z"/>
						</g>
					</g>
				</g>
				<polygon class="st6" points="670.4,449.7 904.5,464.4 904.5,477.4 919.5,477.4 919.5,485.4 931.5,485.4 932.5,500.4 740,543.4 
					661.5,544.4 				"/>
				<polygon class="st10" points="817.4,526.1 817.4,499.8 838.6,497 838.6,521.4 				"/>
				<polygon class="st4" points="661.5,544.4 670.4,449.7 738.9,454.7 740,543.4 				"/>
				<polygon class="st11" points="672.4,450.6 689.1,451.6 661.5,544.4 				"/>
				<g>
					<polygon class="st6" points="768.3,415.1 747.1,389.8 733.5,454.7 758.2,456.7 					"/>
					<polygon class="st1" points="667,401.5 677,408.9 670.4,449.7 701.5,452.2 693.5,381.1 					"/>
					<polyline class="st12" points="677.3,409.1 695.8,401.5 743,409.1 764,430.7 					"/>
					<polyline class="st12" points="761.4,443.5 738.9,430.7 698.8,428.5 673.3,443.5 					"/>
					<polygon class="st4" points="693.5,381.1 701.5,452.2 733.5,454.7 747.1,389.8 					"/>
					<polygon class="st6" points="677.3,409.1 672.4,450.6 688.6,452.4 695,423.3 					"/>
				</g>
				<g>
					<polygon class="st1" points="677,408.9 152,16 18,254 28,315 99.8,230.3 420.9,406.5 663.4,525.5 					"/>
					<polygon class="st4" points="420.9,406.5 420.9,406.5 420.9,544.1 661.5,544.4 663.4,525.5 					"/>
					<path class="st6" d="M589.6,489.3l-4.4-2.1l-82.2-40.3l-4.4-2.1l-77.9-38.2l0,0v137.6l77.9,0.1l4.4,0l82.2,0.1l4.4,0l71.9,0.1
						l1.9-18.9L589.6,489.3z M424.9,540.1V412.9l73.9,36.3v91L424.9,540.1z M503.1,540.2v-88.9l82.2,40.3v48.7L503.1,540.2z
						 M657.9,540.4l-68.2-0.1v-46.5l69.5,34.1L657.9,540.4z"/>
					<polygon class="st11" points="174.3,271 169.1,60.5 676.2,418.1 661.5,544.4 420.9,544.1 420.9,406.5 					"/>
					<polygon class="st13" points="251.2,325.1 251.2,177.6 661.5,455.8 649.7,518.8 					"/>
					<polygon class="st14" points="174.3,271 355.6,192 390,216.2 210.4,292.4 					"/>
					<polygon class="st14" points="218.3,300.9 400.4,223.6 413.9,233 235.4,310.2 					"/>
					<polygon class="st11" points="150.6,280.8 139.1,71.6 27.4,260.7 37.8,335 					"/>
					<polygon class="st14" points="375.1,385.3 473.6,328.4 494.1,342.3 394.8,396.2 					"/>
					<polygon class="st14" points="408.2,401.5 415.1,404.8 504.6,349.4 498.4,345.3 					"/>
					<polygon class="st14" points="55.1,327.1 89,156.4 110,120.3 79.5,317.1 					"/>
					<polygon class="st14" points="100.8,307.5 127.5,91.2 139.1,71.6 110,302.4 					"/>
				</g>
				<g>
					<polyline class="st8" points="161.9,265.2 152,16 677.3,409.1 662.2,537 					"/>
					<line class="st8" x1="270" y1="323.7" x2="265.9" y2="110.7"/>
					<line class="st8" x1="351.4" y1="366.1" x2="355.9" y2="177.6"/>
					<line class="st8" x1="420.9" y1="406.5" x2="424.1" y2="228.4"/>
					<line class="st8" x1="467.4" y1="428.5" x2="469.7" y2="262.4"/>
					<line class="st8" x1="503.3" y1="446.9" x2="506.4" y2="289.5"/>
					<line class="st8" x1="541.7" y1="465.8" x2="542" y2="316"/>
					<line class="st8" x1="588" y1="488.5" x2="589.2" y2="351.1"/>
					<line class="st8" x1="637.1" y1="512.9" x2="644.8" y2="390.3"/>
					<line class="st8" x1="157.3" y1="117.9" x2="665.9" y2="458.8"/>
					<line class="st8" x1="159.9" y1="216.9" x2="662.9" y2="499.9"/>
					<line class="st8" x1="420.9" y1="406.5" x2="660" y2="523.8"/>
					<line class="st8" x1="109.6" y1="233" x2="95.2" y2="120.3"/>
					<line class="st8" x1="65.8" y1="270.5" x2="50.9" y2="202.9"/>
					<line class="st8" x1="22" y1="279" x2="157.3" y2="117.9"/>
					<line class="st8" x1="159.9" y1="216.9" x2="27.4" y2="311"/>
				</g>
				<g>
					<polygon class="st4" points="0,361.9 248,430.9 248,543.9 420.9,544.1 420.9,406.5 101.7,238.2 					"/>
					<polygon class="st6" points="279.4,544.1 272.9,455.6 389.3,422.9 386.8,544.1 					"/>
					<polygon class="st9" points="28,315 0,347.9 0,361.9 101.7,238.2 420.9,406.5 99.8,230.3 					"/>
					<polygon class="st15" points="248,430.9 248,543.9 420.9,406.5 					"/>
					<line class="st16" x1="22.8" y1="365.8" x2="124.2" y2="254"/>
					<line class="st16" x1="57.5" y1="377.6" x2="180.2" y2="292.4"/>
					<line class="st16" x1="105.6" y1="389.4" x2="251.2" y2="325.1"/>
					<line class="st16" x1="170.8" y1="409.5" x2="317.4" y2="362.6"/>
					<line class="st16" x1="79.5" y1="265.2" x2="384.7" y2="404.8"/>
					<line class="st16" x1="58.2" y1="295.3" x2="336.4" y2="415.6"/>
					<line class="st16" x1="37.8" y1="317.4" x2="283.4" y2="424.4"/>
					<line class="st16" x1="24.8" y1="339.7" x2="253.4" y2="428.1"/>
					<line class="st16" x1="226.9" y1="425" x2="374.3" y2="392.7"/>
				</g>
				<path class="st4" d="M99.5,379.9c0,0,3.8-4.1,10.9-4.1l22,166.2c0,0-7.9,1.3-13.5-0.9L99.5,379.9z"/>
				<path class="st4" d="M190.3,370.4c0,0,3.8-1.4,10.9-1.4l14.5,166.3c0,0-7.9,1.3-13.5-0.9L190.3,370.4z"/>
				<path class="st17" d="M201.2,369c-7.1,0-10.9,1.4-10.9,1.4l5.2,71.8l9.9-24.7L201.2,369z"/>
				<path class="st4" d="M197.7,362.2c0,0,4.9-2.4,10.9,0l14.5,192.7c0,0-7.9,1.3-13.5-0.9L197.7,362.2z"/>
				<path class="st4" d="M311.6,387.7c0,0,9.5-2.4,14.7,1.7L333,550c0,0-7.9,1.3-13.5-0.9L311.6,387.7z"/>
				<polygon class="st6" points="445.8,540.1 440.8,463.6 483.8,474.2 481.2,541.3 				"/>
				<path class="st17" d="M110.4,375.8c-7.1,0-10.9,4.1-10.9,4.1l4.4,36.5l8.8-23.8L110.4,375.8z"/>
				<path class="st17" d="M208.7,362.2c-6-2.4-10.9,0-10.9,0l3.2,51.3l9.6-26.1L208.7,362.2z"/>
				<path class="st17" d="M326.3,389.4c-5.2-4.1-14.7-1.7-14.7-1.7l1.8,36.3l13.3-25.3L326.3,389.4z"/>
				<g>
					<polyline class="st12" points="670.4,479 738.9,481.6 902.9,477.4 					"/>
					<polyline class="st12" points="665.3,508.3 740,509.9 904.1,488.5 					"/>
					<path class="st12" d="M689.1,451.6c0,29.1,0,63.1,0,92.2"/>
					<path class="st12" d="M718.7,453.5c0,30.2,0,59.7,0,89.8"/>
					<path class="st12" d="M738.9,455c0,26,1.1,62.4,1.1,88.4"/>
					<path class="st12" d="M764,455.7c0,23.9,0,56.8,0,80.7"/>
					<path class="st12" d="M784.3,457.4c0,21.3-0.3,54.6-0.3,76"/>
					<path class="st12" d="M807.7,458.3c0,23.4,0.3,46.7,0.3,70.1"/>
					<path class="st12" d="M846.7,461c0,17.2,0,40.6,0,57.8"/>
					<path class="st12" d="M865.4,462.1c0,16.1,0,36.6,0,52.7"/>
					<path class="st12" d="M887.3,463.4c0,14,0,32.5,0,46.5"/>
					<line class="st12" x1="689.1" y1="451.6" x2="894.6" y2="463.8"/>
				</g>
				<path class="st18" d="M358.9,88.9c8.4,1.9,263.9,86.2,274.1,88.2c10.2,2-29-18.5-44-31s-7.9-40.9-30.7-45.4
					s-32.1,17.3-32.1,17.3L358.9,88.9z"/>
				<path class="st18" d="M700.8,305.1c10,2.1,76.5,12.2,79.1,13.3s-2.2-11.3-11.5-11.3c-9.3,0-14.3-19.5-21.2-17.6
					s-6.3,11-16.7,11.4C719.9,301.3,700.8,305.1,700.8,305.1z"/>
			</g>
			<g id="qYYFkF.tif_3_">
				<linearGradient id="SVGID_3_" gradientUnits="userSpaceOnUse" x1="520.8061" y1="638.8199" x2="583.4755" y2="664.3199">
					<stop  offset="0" style="stop-color:#B0CAE5"/>
					<stop  offset="1" style="stop-color:#FFFFFF;stop-opacity:0"/>
				</linearGradient>
				<polyline class="st19" points="630,668 541,646.1 506.9,648.4 599.5,683 				"/>
				<linearGradient id="SVGID_4_" gradientUnits="userSpaceOnUse" x1="636.8416" y1="600.26" x2="681.3023" y2="614.5273">
					<stop  offset="0" style="stop-color:#B0CAE5"/>
					<stop  offset="1" style="stop-color:#FFFFFF;stop-opacity:0"/>
				</linearGradient>
				<polyline class="st20" points="741.4,617.7 650.9,601.2 620.8,602.3 708.4,639.4 				"/>
				<g>
					<polyline class="st21" points="616,550.2 616,548.1 609,546.7 609,549 					"/>
					<g>
						<polygon class="st22" points="618.5,595.6 621.9,597.3 621.1,599.7 617.7,597.7 						"/>
						<path class="st23" d="M610.9,597.5c0,0,0.8-1,2.5-0.5c1.7,0.4,4.4,0.8,4.4,0.8l3.3,2l-0.3,2.5L610.9,597.5z"/>
					</g>
					<polyline class="st22" points="616.4,544.2 614.9,548.9 610.3,548.1 611,546.1 610.2,546.2 610.6,544.8 613.5,542.3 					"/>
					<g>
						<path class="st23" d="M631.8,491.5c1.1,0.6,0.8,2.3,0.8,2.3s1.1-1.3,1.5-0.7c0.4,0.6-0.6,2.5-0.5,3.5c0.1,1.1,1,3.3,3.5,2l0,0
							l0.4-6.9c0.1-1.1-0.6-2.1-1.6-2.5l-7.9-3.1c0,0-1.6,2.8,1.5,3C629.5,489.2,630.8,490.9,631.8,491.5z"/>
						<path class="st22" d="M637.1,498.7c-2.4,1.3-3.4-0.9-3.5-2c-0.1-1.1,0.9-2.9,0.5-3.5c-0.4-0.6-1.5,0.7-1.5,0.7
							s0.3-1.7-0.8-2.3c-1.1-0.6-2.3-2.3-2.3-2.3l-1.4,8.1c0,0.3,0.2,0.5,0.4,0.5h2c0.3,0,0.6,0.3,0.6,0.6v3h5.8L637.1,498.7
							L637.1,498.7z"/>
					</g>
					<path class="st24" d="M629.3,502.6V501l9.2-1.6l0.4,2.1l4.6,1.5c1.3,0.4,2.2,1.7,2.1,3.1l-1.9,30.2h-16l-3.6-28.9
						c-0.2-1.6,0.7-3.1,2.3-3.6L629.3,502.6z"/>
					<path class="st24" d="M629.3,502.6l-3.9,1.4c-1,0.4-1.8,1.2-2.1,2.2l-4,19.6l-1.5,2.7l-5.6,15.1l3.9,1.6l8.8-14.3l4.9-21.8"/>
					<polyline class="st22" points="648.8,544 647.7,547.6 642.7,548 643.5,546 642.6,546.1 643,544.7 645.9,542.1 					"/>
					<path class="st24" d="M638.8,502.7l5.4,1.7c0.9,0.3,1.6,1,1.9,1.9l6.4,18.1c0.7,1.9,0.8,3.9,0.3,5.8l-4,15.9l-4.2-2.5l1-15.6
						l1.1-1.5l-6.1-14.8"/>
					<path class="st25" d="M643.6,536.2l-0.2,6.8c0,1.2-0.3,2.4-0.7,3.5L622,598.9l-5.4-3.3l18.1-59.4H643.6z"/>
					<g>
						<polygon class="st22" points="648.1,597.7 651.9,597.7 652.6,599.8 648.7,599.5 						"/>
						<path class="st23" d="M642.4,602.3c0,0,0.3-1.2,2-1.6c1.7-0.3,4.3-1.2,4.3-1.2l3.9,0.4l0.8,2.4H642.4z"/>
					</g>
					<polygon class="st25" points="627.7,536.2 625.8,569.4 646.5,598.9 653.8,599.1 635.8,566.7 637.6,536.2 					"/>
					<path class="st26" d="M635.4,499.9l1.6-0.3l0.1-0.9c-2.4,1.3-3.4-0.9-3.5-2c-0.1-1.1,0.9-2.9,0.5-3.5c-0.4-0.6-1.5,0.7-1.5,0.7
						s0.3-1.7-0.8-2.3c-0.3-0.2-0.6-0.4-0.9-0.7c-0.4,0.8-0.8,1.6-0.8,1.8c0,0.5,0.5,0.9,0.1,1.7c-0.2,0.5-0.6,2.4-0.8,3.5h1
						c0.3,0,0.6,0.3,0.6,0.6v2.2L635.4,499.9L635.4,499.9z"/>
					<path class="st26" d="M646.9,518.9c-0.2-1.7-1.2-4.8-1.7-7.1c-0.3-1.4,0.1-3.4,0.2-4.4c0.2-2.2-1.2-4.3-3.3-4.9l-3.2-1
						l-0.4-2.1l-1.4,0.2l-1.6,0.3l-0.1,1.5l-0.1,1l-1.2,0.6h3c0,0,1.1,0.4,2.3,1.3c1.2,1,2.5,2.5,2.7,4.7c0.1,1.2-0.1,2.6-0.4,4.1
						c-0.8,3.9-2.3,8.5-1.6,11.9c1,4.7-5.1,2.7-6,4.4c-1,1.6,6.1,0.8,6.6,3.2s-13,3.6-13,3.6h16l0.9-14.8l2.2,5.3l-1.1,1.5l-1,15.6
						l1.9,1.1c0,0,0.2-7.3,0.2-9.8c-0.1-2.5,0-5.3,1.2-5.2c1.2,0.1,0.1-3.6,0.9-3.8S647.3,521.6,646.9,518.9z"/>
					<path class="st26" d="M627.2,511.8l-2.3,2.5c0,0-0.1,1.5-0.9,4.5c-0.8,3-1.4,7.6-1.5,9.8c-0.1,1.5-5.8,9.5-8.4,15.7l2,0.8
						l8.8-14.3l4.9-21.8L627.2,511.8z"/>
					<line class="st12" x1="637.3" y1="540.8" x2="636" y2="562"/>
					<path class="st23" d="M623.4,566.6v-15.3c0-0.2-0.1-0.4-0.3-0.4l-21-4.1c-0.2,0-0.5,0.1-0.5,0.4v15.9c0,0.2,0.1,0.4,0.3,0.4
						l21,3.4C623.2,567.1,623.4,566.9,623.4,566.6z"/>
					<path class="st23" d="M629.5,489.2c0,0-1.2,0.1-1.8-1c-0.6-1.2,0.3-2.4,0.9-2.6c0.6-0.2,1.6,1.3,2.6,1.3s2.9,0.2,4.3,1.2
						c1.6,1.1,1.9,0.4,2,3.7c0.1,3.2-1,4.5-1,4.5l-1.1-6.4l-2.6-0.2L629.5,489.2z"/>
				</g>
				<g>
					<path class="st23" d="M540.3,645.4c0,0,7.7,3.8,8.2,5.1c0,0-1.8,1.2-7.2,0.7c-1.8-0.2-4.1-1.5-4.1-1.5h-1.8v-4.2L540.3,645.4z"
						/>
					<path class="st23" d="M507.1,640.9v1.4c0,0,3.2,5,4.5,7.1c0.2,0.3-0.1,0.8-0.5,0.7c-1.6-0.2-4.9-0.9-7.3-3.4
						c-1.9-2.1-1.7-4.2-1.7-4.2l0.4-1.8L507.1,640.9z"/>
					<path class="st27" d="M531.2,556.9c0,0,2.6,29.4,1.4,36.8s-25.5,48.3-25.5,48.3h-4.9c0,0,5.2-29.2,19.4-44.6l-2.3-39.8
						L531.2,556.9z"/>
					<path class="st26" d="M531.2,597.7l-7.2-37.7l4-1.3c0,0-1.3,5.9-1.3,8.2s1.5,6,1.6,8.2C528.5,577.5,531.2,597.7,531.2,597.7z"
						/>
					<path class="st27" d="M510.2,559.2c0,0-1.5,8.3,2.6,20.6c2.5,7.7,10,21.7,10,21.7s1.5,25.9,11.9,44.1l5.8-0.3l-16.5-87
						L510.2,559.2z"/>
					<g>
						<path class="st28" d="M531.7,509.6l7.1,27.1c0.5,1.7,2,3,3.8,3l0,0c2.9,0,4.8-3,3.6-5.6l-11-24.5l0.8-7l-2.1-0.9L531.7,509.6z
							"/>
						<path class="st2" d="M530.1,498.7l3.6,0.5c0.5,0.1,0.9,0.6,0.8,1.1l-2.1,10.2c-0.1,0.5-0.5,0.8-1,0.8l-3.6-0.3
							c-0.6-0.1-1-0.6-0.9-1.1l2.2-10.4C529.1,498.9,529.6,498.6,530.1,498.7z"/>
						<path class="st23" d="M521.8,506.7l-1.2,13.6l9,2c0,0,1.8-2.2,1.6-3.6c-0.2-1.4-2-1.8-1.8-2.3c0.2-0.5,0.8-2,0.2-3.3
							c-1.2-2.6,0.7-11.2,0.7-11.2c0.8-5.3-1-7.7-3.6-8.7"/>
						<path class="st28" d="M528.4,516h1.7c1.6,0,3,0.8,3.8,2.1l9.7,15.6l-4.4,3.9l-9.5-10.2"/>
						<polygon class="st26" points="528.4,516 536,528.6 533.9,518.2 539.2,537.7 530.7,528.5 						"/>
						<path class="st23" d="M515.7,522.5h-11c0,0,2.2-3.5,3.6-5.1c1.5-1.6,0-3.9,1.8-7.3c1.8-3.4,2.5-2.8,2.6-5.5
							c0-2.7,0.1-7.6,3-10.3c1.8-1.6,5.5-3,9.7-1.6"/>
						<path class="st28" d="M516.4,499.3c-0.5,6.6-1.2,16.8-1.2,16.8l6.1,4.7l2.7-4.7c-1.1,0-1.9-0.9-1.8-2c0.1-0.9,0.9-1.5,1.8-1.6
							l0.2,0c2-0.2,3.6-1.6,3.9-3.5l1.6-8.2c0.7-3.5-2-6.8-5.6-6.8h-2.1C519.1,494,516.6,496.3,516.4,499.3z"/>
						<path class="st29" d="M518.7,510.8l2.7,10l2.7-4.7c-1.1,0-1.9-0.9-1.8-2c0.1-0.9,0.9-1.5,1.8-1.6h-1.3
							C521.2,512.5,519.7,511.9,518.7,510.8z"/>
						<path class="st29" d="M527.5,495h-0.4c0,0-0.8,8.6-0.8,10.4c0,3.4-0.5,7-3.6,7.1h1.3l0.2,0c2-0.2,3.6-1.6,3.9-3.5l1.6-8.2
							C530.3,498.5,529.3,496.2,527.5,495z"/>
						<path class="st30" d="M507.3,516c0,0-1.6,11.4-0.2,18.6c0.7,4,4.9,12.5,3.1,24.6c0,0,13.2,4,21-2.4c0,0-1.9-14.7,1-20
							c3.2-5.8,2.4-7.6,1.8-9.1c-0.8-2-5.6-11.7-5.6-11.7H507.3z"/>
						<path class="st31" d="M522.2,558.5c-2.9-0.9-5.1-3.5-6.3-6.3c-0.9-1.9-1.3-4.1-1.2-6.2c0.2-2.1,1-4.2,2.6-5.7
							c1.1-1.1,2.6-1.8,3.7-2.8c0.2-0.2,0.4-0.3,0.4-0.6c0.1-0.5-0.4-1-0.9-1c-0.5,0-1,0.2-1.5,0.4c-2.7,0.9-6-0.5-7.1-3.2
							c-0.7-1.8-0.5-3.8-0.1-5.6c0.4-1.9,1.1-3.7,1.3-5.6c0.1-1.3-0.6-3.8-1.5-5.8h-4.2c0,0-1.6,11.4-0.2,18.6
							c0.7,4,4.9,12.5,3.1,24.6c0,0,11.6,3.5,19.5-1.3C527,558.4,524.1,559.1,522.2,558.5z"/>
						<path class="st23" d="M526.3,494.4c-0.6-0.2-1.3-0.4-2.1-0.4h-2.1c-3,0-5.5,2.3-5.7,5.3c-0.1,1.6-0.2,3.5-0.4,5.4l0,0
							C523.9,502.6,526.3,494.4,526.3,494.4z"/>
						<path class="st23" d="M526.3,494.4c-0.4,5,2.9,9.7,2.9,9.7l0,0l0.6-3.2C530.4,498,528.8,495.3,526.3,494.4z"/>
						<path class="st23" d="M527.6,495.8c0,0-2,7.6-11.6,8.9c0,0-1.2-5.5,1.1-9.5c2.6-4.6,14.1-3.7,12.8,4.4"/>
						<path class="st28" d="M518.4,504.7c0,0-0.8-4.5-2.9-3.3c-1.7,1-0.3,3.6,1.5,4.9"/>
						<circle class="st2" cx="516.7" cy="506" r="1"/>
						<path class="st28" d="M510.9,516h-3.4c-2.2,0-4.2,1.5-4.9,3.6l-17.3,62.1l5.6-3.7l10.2-24.9l1.4-7.6l4.6-10.9
							C515.1,521.3,510.9,516,510.9,516z"/>
						<path class="st26" d="M510.9,516h-1.5c0,0,4.2,5.3-3.8,18.6l-4.6,10.9l-1.4,7.6L489.4,578l-3.8,2.5l-0.3,1.2l5.6-3.7
							l10.2-24.9l1.4-7.6l4.6-10.9C515.1,521.3,510.9,516,510.9,516z"/>
						<path class="st28" d="M487.3,576.8c0,0-1.6,1.1-2.2,1.9c-0.8,1-1.5,4.6-2.1,5.5l2.1,1.3c0.8,0.1,1.5-0.6,1.8-1.1
							c0.3-0.5,1.2-2.7,1.5-3.1s1.2-0.7,1.3-0.2s-0.5,0.8-0.5,1.8c-0.1,1,0.9,1,0.9,1c-0.2-0.7,0.9-2,1.6-2.9
							c0.7-0.8-0.4-3.7-0.4-3.7"/>
						<path class="st26" d="M491.5,581.1c0.6-0.7-0.2-3.3-0.4-3.7l-1.4-0.2c0,0.1,1.1,2.3,0.9,3c-0.1,0.8-1.4,3.2-0.7,3.8
							C489.7,583.3,490.8,582,491.5,581.1z"/>
					</g>
					<path class="st32" d="M515,515.9c0,0,0.8,4.5,7,16.6c3.3,6.5,4.3,12.6,4.3,12.6s1.6-18.2-2.2-29.2"/>
					<path class="st2" d="M524,544.6l4.2-1c0.2,0,0.4,0.1,0.4,0.3v7.6c0,0.2-0.1,0.3-0.3,0.3l-4.2,0.8c-0.2,0-0.4-0.1-0.4-0.3v-7.4
						C523.8,544.8,523.9,544.7,524,544.6z"/>
					<path class="st28" d="M536,502.6l-3.8-1.7c-0.3-0.1-0.6,0-0.6,0.3l-0.9,4.7c0,0.2,0.1,0.4,0.3,0.5l2,1l-0.5,2.3l1.6,1.1l1-7.7"
						/>
				</g>
				<g>
					<g>
						<polygon class="st22" points="204.8,531.3 205.3,541.2 201.5,557.8 201.5,533.1 						"/>
						<path class="st22" d="M193.9,505.4l-0.2-4.8c-0.1-2.2-0.4-3.3-1.8-4.4c0,0-3.9-2.5-7.3,0.1c-2,1.5-1.2,5.9-1.2,5.9
							s-0.4-1.1-1.5-0.5c-0.9,0.5-0.5,2.5,1.6,3.1l0.2,3.5l1,2.1c0.5,1,1.5,1.7,2.7,1.7h3.5h1.1c1.2,0,2.2-1,2.1-2.2L193.9,505.4z"
							/>
						<path class="st22" d="M187.4,511.9h3.5v2.3l-0.3,0.8c-0.7,1.8-2.9,2.5-4.5,1.3l-2.2-1.6l-0.2-6.5l1,2.1
							C185.3,511.2,186.3,511.9,187.4,511.9z"/>
						<path class="st33" d="M178.6,516.7l5.4-2l2.2,1.6c1.6,1.2,3.8,0.5,4.5-1.3l0.3-0.8l7.8,2.1c2.9,0.8,5.1,3.2,5.4,6.2l0.7,8.8
							l-3.3,1.8v24.7c0,0-11.4,2.4-22.9-2.5l-4.7-30.6C173.4,521.3,175.3,517.9,178.6,516.7z"/>
						<path class="st33" d="M184,513.9l-4.5,2c-3.7,1.6-6,5.3-6,9.3c0,2-0.1,4.3-0.5,6.6l7.7,1.2l1.7-6.9l1.6-11.4h0L184,513.9z"/>
						<path class="st27" d="M194.3,542.4c-0.1,0-0.2-0.1-0.2-0.2c0-0.1-1-5.8-4.1-12c-5.9-11.5-6.8-16.2-6.8-16.3
							c0-0.1,0-0.1,0.1-0.2c0-0.1,0.1-0.1,0.2-0.1h0.6v0.5h-0.2c0.3,1.2,1.7,6.1,6.7,15.9c2,4,3.2,7.8,3.7,10.1
							c0.1-5-0.1-17.7-2.9-26h-0.4v-0.5h0.6c0.1,0,0.2,0.1,0.2,0.2c3.6,10.4,2.9,28.2,2.9,28.4C194.6,542.3,194.5,542.4,194.3,542.4
							C194.4,542.4,194.3,542.4,194.3,542.4z"/>
						<polygon class="st34" points="192.2,543.2 196.4,542.2 196.4,549.2 192.2,550 						"/>
						<path class="st29" d="M175.6,535.8l5.1-2.8l2.7-9.2v9.2l7.5,0.8c0,0-2.4,1.7-3.6,2.5c-1.2,0.8-3.6,3.9-3.6,3.9
							c0.1,0,1.5,13.7,1.9,17.3c-2.3-0.5-4.7-1.2-7.1-2.2L175.6,535.8z"/>
						<polygon class="st29" points="201.5,533.1 201.5,523.8 204.1,531.7 						"/>
						<path class="st23" d="M179.9,588.9l-1.3-33.7c11.5,4.9,22.9,2.5,22.9,2.5l-2.1,43.9l-2.2,26.8h-6.5l0.4-33.4v-19.3l-4.3,24.3
							l-5.6,28.4h-5.6l2-30.8L179.9,588.9z"/>
						<path class="st4" d="M195.2,535.3l0.2-0.6c0.1-0.2,0.2-0.3,0.4-0.3h2.7l0.3-2.9c0-0.2,0.2-0.4,0.4-0.4l4-0.2l0,0.8l-3.3,0.2
							c-0.2,0-0.4,0.2-0.4,0.4l-0.2,2.1h3.8c0.2,0,0.4,0.1,0.4,0.3l0.2,0.6c0.1,0.3-0.1,0.6-0.4,0.6h-0.2c-0.2,0-0.4,0.2-0.4,0.4
							l-0.6,8.7h-5.3l-0.6-8.7c0-0.2-0.2-0.4-0.4-0.4h-0.2C195.3,535.9,195.1,535.6,195.2,535.3z"/>
						<polygon class="st2" points="195.8,538.3 196.1,542.4 202.8,542.4 203,538.3 						"/>
						<path class="st22" d="M180.7,533l-1.6,6.5c7.2,1.6,13.8,0.3,13.8,0.3l3.3-3.2l0.2,2.4l5.7-0.3l-1.6,5.3l-6.1,0
							c-11.6,4.4-23.3,1-23.3,1c-0.1-2.1,0.8-7.7,1.9-13.3L180.7,533z"/>
						<path class="st23" d="M196.8,628.4c0,0,6.8,4.3,7.3,5.6c0,0-5.9,0.4-7.6,0c-1.7-0.4-3.9-1.4-3.9-1.4h-1.7v-4.2H196.8z"/>
						<path class="st23" d="M180.6,628.4v1.4c0,0,3.2,5.1,4.5,7.1c0.2,0.3-0.1,0.8-0.5,0.7c-1.6-0.2-4.9-0.9-7.3-3.5
							c-1.9-2.1-1.6-4.1-1.6-4.1l0.1-2.2L180.6,628.4z"/>
					</g>
					<g>
						<path class="st23" d="M183.4,502.1c0.8,0,1.4,0.5,1.6,1.3l0.8,3.7l1.2-0.9c0.6-0.6,1.3-0.9,2.1-0.9h4.8l0.2,4.3
							c0,1.2-0.9,2.2-2.1,2.2h-1.1h-3.5c-1.1,0-2.2-0.7-2.7-1.7l-0.6-1.3c-0.2-0.5-0.4-1.1-0.4-1.7L183.4,502.1L183.4,502.1z"/>
					</g>
					
						<linearGradient id="SVGID_5_" gradientUnits="userSpaceOnUse" x1="-4786.6245" y1="619.936" x2="-4807.7725" y2="657.4255" gradientTransform="matrix(-1 0 0 1 -4587.9194 0)">
						<stop  offset="0" style="stop-color:#B0CAE5"/>
						<stop  offset="1" style="stop-color:#FFFFFF;stop-opacity:0"/>
					</linearGradient>
					<polyline class="st35" points="217.5,679.1 175.9,631.5 197.6,631.4 254.7,667.2 					"/>
				</g>
				<polygon class="st28" points="366.9,655.9 400.2,627.1 374.8,622.3 350.9,644.5 				"/>
				<polygon class="st26" points="366.9,655.9 400.2,627.1 374.8,622.3 350.9,644.5 				"/>
				<g>
					<path class="st23" d="M377.3,566.9h77.6c1.3,0,2.1,1.2,1.7,2.4l-19.1,56.6c-0.3,0.7-1,1.2-1.7,1.2h-76.7
						c-1.2,0-2.1-1.2-1.7-2.4l18.2-56.6C375.8,567.4,376.5,566.9,377.3,566.9z"/>
					<polygon class="st2" points="361,623.9 378.3,570.1 452.9,570.1 434.7,623.9 					"/>
					<polygon class="st1" points="374.1,606.2 383.1,578.2 413.7,578.2 404.2,606.2 					"/>
					<g>
						<polygon class="st23" points="379.2,603.1 383.2,603.1 386.5,592.5 382.6,592.5 						"/>
						<polygon class="st23" points="391.8,589 390.7,592.5 387.3,603.1 391.3,603.1 394.6,592.5 395.8,589 						"/>
						<polygon class="st23" points="401.1,585.3 399.9,589 398.7,592.5 395.4,603.1 399.3,603.1 402.7,592.5 403.9,589 405.1,585.3 
													"/>
					</g>
					<polygon class="st1" points="420.6,578.2 418.7,584.1 441.7,584.1 443.7,578.2 					"/>
					<polygon class="st1" points="417.5,587.4 415.6,593.3 431.2,593.3 433.2,587.4 					"/>
					<polygon class="st1" points="414.4,603.2 412.5,609.2 428.1,609.2 430.1,603.2 					"/>
					<polygon class="st1" points="379.6,611 377.7,616.9 393.3,616.9 395.3,611 					"/>
					<path class="st36" d="M381.6,574.2h0.5c0.3,0,0.6-0.2,0.7-0.5l0.2-0.5c0.2-0.5-0.2-1-0.7-1h-0.5c-0.3,0-0.6,0.2-0.8,0.5
						l-0.2,0.5C380.7,573.6,381.1,574.2,381.6,574.2z"/>
					<path class="st36" d="M385.1,574.2h0.5c0.3,0,0.6-0.2,0.7-0.5l0.2-0.5c0.2-0.5-0.2-1-0.7-1h-0.5c-0.3,0-0.6,0.2-0.8,0.5
						l-0.2,0.5C384.2,573.6,384.5,574.2,385.1,574.2z"/>
				</g>
				<g>
					<path d="M368.8,501.2c3.5,1.8,5.9,5.4,5.9,9.6c0,5.7-4.5,10.4-10.1,10.8c0.7-3.6,0.4-6.8,0.9-11.7
						C365.8,507.1,367.3,504.3,368.8,501.2 M367.9,498.5l-0.9,1.8l-0.5,1c-1.4,2.8-2.7,5.5-3,8.4c-0.2,2.2-0.3,4.1-0.4,5.8
						c-0.1,2.1-0.1,3.9-0.5,5.7l-0.5,2.6l2.6-0.2c6.7-0.4,12-6.1,12-12.8c0-4.8-2.7-9.2-6.9-11.4L367.9,498.5L367.9,498.5z"/>
				</g>
				<path class="st28" d="M299.8,554.4c0,0,6.1-15.1,5-29.6c-1.1-14.5-1.7-60,17.1-66.7c18.8-6.7,49.5,15.9,50.5,27.5
					c1,11.7-6.2,17.6-6.9,24.3c-0.8,6.7,0.2,10.3-2.3,16.1c-1.7,3.9-7.8,12.3-11.6,17.3c-1.8,2.4-5,3.2-7.7,2.1
					c-2-0.8-4.4-1.5-6.3-2c-1.6-0.4-3.2,0.7-3.4,2.3l-3.3,20.9"/>
				<path class="st26" d="M334.2,545.7c0.3-1.6,1.8-2.7,3.4-2.3c1.9,0.5,4.3,1.2,6.3,2c2.7,1.2,5.9,0.3,7.7-2.1
					c3.8-5.1,10-13.5,11.6-17.3c2.5-5.7,1.5-9.4,2.3-16.1c0.8-6.7,7.9-12.6,6.9-24.3c-0.4-4.4-5-10.3-11.6-15.7l-22,11.5l-10.9,51.1
					c1,12.7-6.5,21.2-6.1,30.4c0,0.1,0,0.1,0,0.2l9,3.6L334.2,545.7z"/>
				<g>
					<path class="st37" d="M369.7,677c-3.4-21.8-3.4-29.7-3.4-29.7s13.4-11.3,8.5-24.9s-31.5-44.2-34.7-52.9
						c-1.4-3.9-2.2-7.3-2.7-9.9c-0.6-3.4-2.8-6.4-5.8-8.1c-11.1-6.1-39.2-22.7-41.8,1.3c0,0-25.9,28.4-15.9,74.8
						c3.9,18.1,18.2,50.7,23.3,85.3h84.7C377.8,704.3,371.8,690.5,369.7,677z"/>
					<path class="st37" d="M287.2,666c5.3,21.6,11.7,47,14.3,82.2c0,0,60.4,13.3,92.9-4.6c0,0-23.7-54.9-26-98.2"/>
					<path class="st38" d="M368.4,645.3L368.4,645.3c0.2-0.2,0.4-0.4,0.6-0.7l-58.6-41.4c0,0,10.5,32.8,13,53.5
						c0.1,1.2,0.3,2.3,0.3,3.4c1.7,20.3,10.9,13,13.9,44.6c0.3,2.9,0.6,5.6,1.1,8.2c4.1,24.6,14.8,38.2,16,39.8
						c14.1-0.6,28.5-3.1,39.6-9.2C394.4,743.5,370.7,688.6,368.4,645.3z"/>
				</g>
				<path class="st23" d="M304.6,520.6c0,0,1.9,12.3,13.4,13.8c13.4,1.8,27.9-15.9,25.9-28.7c-2.9-18.1,9.9-19.1,12.9-12.3
					c3,6.8-4.1,14.6-4.1,14.6c8.4-1.8,14.6-16.8,17.3-17.7s-2.1,6-2.1,6c11.6-4.3,16-18,8.9-23.6c-7.1-5.6-13.3-17.6-28.3-21.3
					c-15-3.7-28.2,2.1-28.2,2.1s-6.6-12.4-22.3-7.8c-15.7,4.6-18.8,17.9-15.3,30.2c3.4,12.3-1.3,17.3-1.3,17.3s7.6,2.5,12.3-3.7
					c0,0-5.3,5-2.2,19.1c3.1,14.1,3.4,23.5-1.5,28.2C289.9,537,300.5,538.1,304.6,520.6z"/>
				<path class="st38" d="M376.7,472.9c-7.1-5.6-13.3-17.6-28.3-21.3c-0.4-0.1-0.7-0.2-1.1-0.3c-2.4,3.5-4.3,7.1-4.9,10.3
					c-1.8,10.1-8.5,13.4-15.4,21.7c-11.4,13.6-1.4,29,0.9,49.2c9.6-4.8,17.4-17.2,15.9-26.7c-2.9-18.1,9.9-19.1,12.9-12.3
					c3,6.8-4.1,14.6-4.1,14.6c8.4-1.8,14.6-16.8,17.3-17.7s-2.1,6-2.1,6C379.4,492.2,383.8,478.6,376.7,472.9z"/>
				<path class="st38" d="M293.2,490.2c0.2-0.3,0.4-0.5,0.4-0.5c4.2-6.3,13.7-6,21.9-16.4c9.2-11.7,4.7-19.6,4.7-19.6
					s-6.1-11.3-20.4-8.3c0.1,0.1,7.3,8.5,2.2,16.1c-5.1,7.6-8,10.7-8.7,15.8c0,0,3.2-4.8,6.5-4.7c0,0-3.8,16-18.5,20.8
					C281.3,493.5,288.5,495.9,293.2,490.2z"/>
				<line class="st39" x1="358" y1="500.7" x2="375.1" y2="512.5"/>
				<g>
					<path class="st37" d="M360.3,621.3l-16.6-33.5c-3.8-7.6-12.3-11.7-20.6-9.7h0c-11.2,2.6-17.2,14.7-12.7,25.2
						c5.1,11.8,12.3,26.8,20.4,41.2C339.8,628.9,353.3,623.2,360.3,621.3z"/>
					<path class="st28" d="M435.8,612.6c-1.3-1.9-13.4-12.2-13-13.9c0.4-1.7,1.4-17.4-0.1-16.5c-1.5,1-7.6,28.1-7.6,28.1
						s0,0-1.4-5.2c-1.4-5.2-6.5-4.2-6.5-4.2s3.2,5.2,3.2,13.6c0,8.5,4.5,19.2,4.5,19.2c-7.2,9.5-32.6,32-32.6,32l-22.1-44.5
						c-7,2-20.5,7.7-29.5,23.2c16.5,29.5,36.9,56.9,51.4,51.4c30.4-11.4,45-57.1,47.2-61.1C431.5,630.7,437.2,614.4,435.8,612.6z"/>
					<path class="st26" d="M435.8,612.6c-1.3-1.9-13.4-12.2-13-13.9c0.4-1.7,1.4-17.4-0.1-16.5c-1.5,1-7.6,28.1-7.6,28.1
						s0,0-1.4-5.2c-1.4-5.2-6.5-4.2-6.5-4.2s3.2,5.2,3.2,13.6c0,8.5,4.5,19.2,4.5,19.2c-7.2,9.5-32.6,32-32.6,32l-22.1-44.5
						c-7,2-20.5,7.7-29.5,23.2c0.1,0.2,0.3,0.5,0.4,0.7c2.9-3.7,7-7.6,11.8-8.2c9.7-1.3,34.3,42.8,34.3,54.1c0,2-0.6,3.7-1.6,5.3
						c2.3,0.5,4.4,0.4,6.5-0.4c30.4-11.4,45-57.1,47.2-61.1C431.5,630.7,437.2,614.4,435.8,612.6z"/>
				</g>
				<path class="st38" d="M370.8,642.4c3.4-4.6,7-11.9,4.1-20c-4.9-13.6-31.5-44.2-34.7-52.9c-1.4-3.9-2.2-7.3-2.7-9.9
					c-0.6-3.4-2.8-6.4-5.8-8.1c-1.8-1-4-2.1-6.5-3.3c0,0,2.2,3.8,1.1,7.6c-1,3.3-9,1.5-11.1,1c2,0.5,9.5,2.8,11.4,6.8
					c2.2,4.6,25.5,60.8,25.5,60.8h0c3.1-1.5,5.9-2.5,8.1-3.1L370.8,642.4z"/>
				<circle class="st2" cx="344.5" cy="510.9" r="4"/>
				<path class="st26" d="M345.2,507c0.4,0.6,0.7,1.4,0.7,2.2c0,2.2-1.8,4-4,4c-0.2,0-0.5,0-0.7-0.1c0.7,1.1,1.9,1.8,3.3,1.8
					c2.2,0,4-1.8,4-4C348.5,509,347,507.4,345.2,507z"/>
				<path class="st26" d="M351.5,504.7c0,0,3.4-11.1,0-11.6s-4.3,3.8-4.3,3.8s1.8-1.7,2.9-1.5c1.1,0.3,0.9,5.3,0.9,5.3
					s-1.8-0.7-3.8,2.4C346.2,504.8,347.2,507.7,351.5,504.7z"/>
				<path class="st26" d="M336.2,534l-2,11.7c0.3-1.6,1.8-2.7,3.4-2.3c1.9,0.5,4.3,1.2,6.3,2C338.9,542.5,336.2,534,336.2,534z"/>
			</g>
		</g>
		<path class="st26" d="M521,598.2l1.8,3.4c0,0,0.5,6.9,1.4,10.4l-1.6,2.9L521,598.2z"/>
		<linearGradient id="SVGID_6_" gradientUnits="userSpaceOnUse" x1="932.8241" y1="435.4718" x2="759.6489" y2="435.4718">
			<stop  offset="0" style="stop-color:#FFFFFF"/>
			<stop  offset="1" style="stop-color:#FFFFFF;stop-opacity:0"/>
		</linearGradient>
		<rect x="738.9" y="168" class="st40" width="193.6" height="534.9"/>
	</g>
</g>
</svg>
