<?xml version="1.0" encoding="utf-8"?>
<!-- Generator: Adobe Illustrator 24.1.2, SVG Export Plug-In . SVG Version: 6.00 Build 0)  -->
<svg version="1.1" id="Layer_1" xmlns="http://www.w3.org/2000/svg" xmlns:xlink="http://www.w3.org/1999/xlink" x="0px" y="0px"
	 viewBox="0 0 29.7 32" style="enable-background:new 0 0 29.7 32;" xml:space="preserve">
<path d="M28.7,0h-9.2c-0.6,0-1,0.4-1,1v7.1h-8.3c-0.6,0-1,0.4-1,1v7.1H1c-0.6,0-1,0.4-1,1V31c0,0.6,0.4,1,1,1h18.5c0,0,0,0,0,0
	c0,0,0,0,0,0h9.2c0.6,0,1-0.4,1-1V1C29.7,0.4,29.3,0,28.7,0z M2,18.2h7.2V30H2V18.2z M18.5,30h-7.2V10.1h7.2V30z M27.7,30h-7.2V2
	h7.2V30z"/>
</svg>
