<?xml version="1.0" encoding="utf-8"?>
<!-- Generator: Adobe Illustrator 24.1.2, SVG Export Plug-In . SVG Version: 6.00 Build 0)  -->
<svg version="1.1" id="Layer_1" xmlns="http://www.w3.org/2000/svg" xmlns:xlink="http://www.w3.org/1999/xlink" x="0px" y="0px"
	 viewBox="0 0 22.8 33.4" style="enable-background:new 0 0 22.8 33.4;" xml:space="preserve">
<style type="text/css">
	.st0{fill:#020202;}
</style>
<g>
	<path class="st0" d="M11.4,33.4c-0.2,0-0.5-0.1-0.6-0.2L0.4,24.4C0.1,24.2,0,24,0,23.7V1c0-0.6,0.4-1,1-1h20.8c0.6,0,1,0.4,1,1
		v22.7c0,0.3-0.1,0.6-0.4,0.8L12,33.2C11.9,33.3,11.6,33.4,11.4,33.4z M2,23.2l9.4,7.9l9.4-7.9V2H2V23.2z M21.8,23.7L21.8,23.7
		L21.8,23.7z"/>
	<g>
		<path class="st0" d="M5.9,18.7c-0.3,0-0.5-0.1-0.7-0.3c-0.4-0.4-0.4-1,0-1.4l11-11c0.4-0.4,1-0.4,1.4,0s0.4,1,0,1.4l-11,11
			C6.4,18.6,6.1,18.7,5.9,18.7z"/>
		<circle class="st0" cx="7.7" cy="8.5" r="1.8"/>
		<circle class="st0" cx="15.1" cy="15.9" r="1.8"/>
	</g>
</g>
</svg>
