<?xml version="1.0" encoding="utf-8"?>
<!-- Generator: Adobe Illustrator 24.1.2, SVG Export Plug-In . SVG Version: 6.00 Build 0)  -->
<svg version="1.1" id="Layer_1" xmlns="http://www.w3.org/2000/svg" xmlns:xlink="http://www.w3.org/1999/xlink" x="0px" y="0px"
	 viewBox="0 0 23.4 29.1" style="enable-background:new 0 0 23.4 29.1;" xml:space="preserve">
<g>
	<path d="M1,5C0.4,5,0,5.4,0,6v22.1c0,0.6,0.4,1,1,1s1-0.4,1-1V6C2,5.4,1.6,5,1,5z"/>
	<path d="M8.1,0c-0.6,0-1,0.4-1,1v22.1c0,0.6,0.4,1,1,1s1-0.4,1-1V1C9.1,0.4,8.7,0,8.1,0z"/>
	<path d="M15.3,5c-0.6,0-1,0.4-1,1v22.1c0,0.6,0.4,1,1,1s1-0.4,1-1V6C16.3,5.4,15.8,5,15.3,5z"/>
	<path d="M22.4,0c-0.6,0-1,0.4-1,1v22.1c0,0.6,0.4,1,1,1s1-0.4,1-1V1C23.4,0.4,23,0,22.4,0z"/>
</g>
</svg>
