<svg xmlns="http://www.w3.org/2000/svg" xmlns:xlink="http://www.w3.org/1999/xlink" width="594.56" height="455.72" viewBox="0 0 594.56 455.72"><defs><style>.cls-1{isolation:isolate;}.cls-14,.cls-2{mix-blend-mode:multiply;}.cls-14,.cls-28,.cls-3{fill:#e8eff9;}.cls-4{fill:#ffc000;}.cls-5{fill:url(#linear-gradient);}.cls-6{fill:url(#linear-gradient-2);}.cls-7{fill:url(#linear-gradient-3);}.cls-8{fill:#5681f9;}.cls-9{fill:url(#linear-gradient-4);}.cls-10{fill:url(#linear-gradient-5);}.cls-11{fill:url(#linear-gradient-6);}.cls-12{fill:url(#linear-gradient-7);}.cls-13{fill:url(#linear-gradient-8);}.cls-15,.cls-29{fill:#fff;}.cls-16{fill:#001788;}.cls-17{opacity:0.61;}.cls-18{fill:#fff7e6;}.cls-18,.cls-20,.cls-22,.cls-24,.cls-27,.cls-28,.cls-29{fill-rule:evenodd;}.cls-19{fill:#474758;}.cls-20{fill:#ffb400;}.cls-21{fill:#b3b0b4;}.cls-22{fill:#e0e0e4;}.cls-23{fill:#00001e;}.cls-24{fill:#fcfbff;}.cls-25,.cls-27{fill:#d9d9f6;}.cls-26{fill:#c7c7e4;}.cls-30{fill:url(#linear-gradient-9);}.cls-31{fill:#fffdfe;}.cls-32{fill:#a066f2;}.cls-33{fill:#602cc4;}.cls-34{fill:#8548e5;}.cls-35{fill:#f4c464;}.cls-36{fill:#e8ad43;}.cls-37{fill:#fe8c00;}</style><linearGradient id="linear-gradient" x1="178.38" y1="128.46" x2="534.31" y2="128.46" gradientUnits="userSpaceOnUse"><stop offset="0" stop-color="#fff"/><stop offset="0.1" stop-color="#e7edff"/><stop offset="0.25" stop-color="#c9d6ff"/><stop offset="0.41" stop-color="#b2c4ff"/><stop offset="0.58" stop-color="#a1b7ff"/><stop offset="0.76" stop-color="#97afff"/><stop offset="1" stop-color="#94adff"/></linearGradient><linearGradient id="linear-gradient-2" x1="304.44" y1="41.14" x2="515.86" y2="41.14" gradientUnits="userSpaceOnUse"><stop offset="0" stop-color="#fff"/><stop offset="1" stop-color="#94adff"/></linearGradient><linearGradient id="linear-gradient-3" x1="54.69" y1="50.74" x2="113.87" y2="50.74" gradientTransform="translate(86.08 -47.62) rotate(60)" xlink:href="#linear-gradient-2"/><linearGradient id="linear-gradient-4" x1="0" y1="274.12" x2="150.53" y2="274.12" gradientTransform="translate(271.89 68.82) rotate(59.12)" xlink:href="#linear-gradient"/><linearGradient id="linear-gradient-5" x1="14.89" y1="163.78" x2="87.94" y2="163.78" xlink:href="#linear-gradient"/><linearGradient id="linear-gradient-6" x1="170.94" y1="279.11" x2="256.79" y2="279.11" gradientUnits="userSpaceOnUse"><stop offset="0" stop-color="#fff"/><stop offset="0.04" stop-color="#eaefff"/><stop offset="0.11" stop-color="#cfdaff"/><stop offset="0.19" stop-color="#b9caff"/><stop offset="0.28" stop-color="#a8bdff"/><stop offset="0.4" stop-color="#9db4ff"/><stop offset="0.56" stop-color="#96aeff"/><stop offset="1" stop-color="#94adff"/></linearGradient><linearGradient id="linear-gradient-7" x1="3842.63" y1="-150.28" x2="3666.61" y2="133.89" gradientTransform="matrix(-1, 0, 0, 1, 3692.85, 0)" xlink:href="#linear-gradient-2"/><linearGradient id="linear-gradient-8" x1="3708.06" y1="-247.93" x2="3532.05" y2="36.24" gradientTransform="matrix(-1, 0, 0, 1, 3692.85, 0)" xlink:href="#linear-gradient-2"/><linearGradient id="linear-gradient-9" x1="244.12" y1="407.21" x2="309.49" y2="407.21" gradientTransform="translate(-211.37 15.11) rotate(-8.2)" xlink:href="#linear-gradient"/></defs><title>subscription-billing-banner1</title><g class="cls-1"><g id="Layer_1" data-name="Layer 1"><g class="cls-2"><ellipse class="cls-3" cx="128.58" cy="179.23" rx="15.82" ry="28.2" transform="translate(-54.24 302.65) rotate(-88.37)"/></g><g class="cls-2"><ellipse class="cls-3" cx="512.58" cy="164.23" rx="15.82" ry="28.2" transform="translate(333.8 671.92) rotate(-88.37)"/></g><g class="cls-2"><ellipse class="cls-3" cx="151.58" cy="387.23" rx="15.82" ry="28.2" transform="translate(-239.81 527.71) rotate(-88.37)"/></g><path class="cls-4" d="M189.34,155.26s1,5,4,6,9-11,9-11-2,13,0,14,7-1,7-1-5,3-4,4,16,0,16,0-16.55,3-16.78,5.48.78,9.52.78,9.52-5-6-7-5-5,10-5,10,1-14-2-15-13,2-13,2,10.32-6.24,11-9S189.34,155.26,189.34,155.26Z"/><path class="cls-5" d="M480.51,200.53a6,6,0,0,1-3-.8L235,59.78a3,3,0,0,0-3,0L179.89,90.12l-1.51-2.59L230.57,57.2a6,6,0,0,1,6,0L479,197.13a2.94,2.94,0,0,0,3.1-.1L530,165.47a3,3,0,0,0,1.33-2.46V80.93h3V163a5.92,5.92,0,0,1-2.68,5l-47.85,31.57A5.89,5.89,0,0,1,480.51,200.53Z"/><path class="cls-6" d="M514.35,82.28,418.47,26.74a15.49,15.49,0,0,0-15.56.05l-16,9.4a18.32,18.32,0,0,1-17.93.42L304.44,2.66,305.84,0l64.52,34a15.37,15.37,0,0,0,15-.35l16-9.41A18.46,18.46,0,0,1,420,24.15l95.89,55.54Z"/><rect class="cls-7" x="82.78" y="17.43" width="3" height="66.61" transform="translate(-1.8 98.36) rotate(-60)"/><path class="cls-8" d="M404.1,215.8l-1.51-2.6,86-50a13.39,13.39,0,0,0,6.64-11.55V112.05h3v39.64a16.4,16.4,0,0,1-8.13,14.14Z"/><path class="cls-8" d="M302.12,232.52l-103.41-59.7a1.5,1.5,0,0,1,1.5-2.6l103.41,59.71Z"/><path class="cls-8" d="M192.28,168.88a1.53,1.53,0,0,1-.75-.2l-8.67-5a14.36,14.36,0,0,1-7.17-12.41V123.52a1.5,1.5,0,1,1,3,0v27.74a11.35,11.35,0,0,0,5.67,9.81l8.67,5a1.5,1.5,0,0,1-.75,2.8Z"/><rect class="cls-9" x="73.76" y="187.32" width="3" height="173.6" transform="matrix(0.51, -0.86, 0.86, 0.51, -198.62, 198.01)"/><path class="cls-10" d="M16.4,213.14l-1.51-2.6,68.16-39.61a3.78,3.78,0,0,0,1.89-3.27V114.43h3v53.23a6.82,6.82,0,0,1-3.38,5.87Z"/><path class="cls-11" d="M172.48,298.73l-1.54-2.57,60.23-36a4.58,4.58,0,0,1,4.15-.27l21.47,9.36-1.2,2.75-21.47-9.36a1.56,1.56,0,0,0-1.41.09Z"/><path class="cls-12" d="M171.71,325.93l-71.44-39.88a2.88,2.88,0,0,0-2.4-.18h0a2.86,2.86,0,0,0-.4,5.17l67.94,38.53"/><path class="cls-13" d="M306.28,228.29l-71.44-39.88a2.84,2.84,0,0,0-2.4-.18h0a2.86,2.86,0,0,0-.41,5.16l68,38.53"/><polygon class="cls-14" points="240.26 301.01 405.02 206.38 504.13 264.28 339.92 360.35 240.26 301.01"/><path class="cls-15" d="M400.33,198.49a1.06,1.06,0,0,1-.53-.92V64L246.56,143.26V286.8l93,55.39,153.26-89.66Z"/><polygon class="cls-14" points="257.88 283.56 395.6 204.46 478.45 252.86 341.19 333.16 257.88 283.56"/><polygon class="cls-14" points="444.35 246 384.32 210.93 272.69 275.05 333.16 311.06 444.35 246"/><path class="cls-16" d="M495.94,252.25a.14.14,0,0,1,0-.06,1.63,1.63,0,0,0-.09-.19.18.18,0,0,0-.05-.07l-.11-.15-.08-.06a.71.71,0,0,0-.14-.1L401.92,197V62.28h0a.29.29,0,0,0,0-.09.57.57,0,0,0,0-.18s0-.07,0-.11a.61.61,0,0,0-.07-.14.39.39,0,0,0-.08-.1l-.1-.12-.1-.08s0,0-.07-.05l-.06,0-.06,0-9.51-4.22a1.1,1.1,0,0,0-.92,0L239.74,135.34a.86.86,0,0,0-.22.15h0a1.06,1.06,0,0,0-.17.2.3.3,0,0,0,0,.08,1.3,1.3,0,0,0-.08.17s0,.07,0,.11l0,.11v154.4s0,.06,0,.09,0,0,0,0a.43.43,0,0,0,0,.05,1.15,1.15,0,0,0,.14.38v0a.92.92,0,0,0,.3.29s0,0,0,0L339,351.24h0a1.08,1.08,0,0,0,.53.14,1.13,1.13,0,0,0,.53-.14l155.35-90.63a1,1,0,0,0,.53-.91v-7.18A1.26,1.26,0,0,0,495.94,252.25ZM399.8,197.57a1.06,1.06,0,0,0,.53.92l92.5,54L339.57,342.19l-93-55.39V143.26L399.8,64Z"/><path class="cls-3" d="M391.47,74.93,258.85,143.5a4.41,4.41,0,0,0-2.39,3.92V277.24l141.45-82.37v-116A4.41,4.41,0,0,0,391.47,74.93Z"/><path class="cls-16" d="M408.1,70.47,273,140.3a3.21,3.21,0,0,0-1.73,2.84v12.13L412.76,82.14V73.32A3.2,3.2,0,0,0,408.1,70.47Z"/><path class="cls-16" d="M270.68,156.3V143.14a3.82,3.82,0,0,1,2.07-3.39L407.81,69.92a3.83,3.83,0,0,1,5.58,3.39v9.21ZM409.57,70.74a2.64,2.64,0,0,0-1.19.29L273.32,140.86a2.57,2.57,0,0,0-1.39,2.28v11.1L412.14,81.76V73.31a2.59,2.59,0,0,0-2.57-2.57Z"/><path class="cls-15" d="M271.31,155.27V271.1a1.49,1.49,0,0,0,2.24,1.29L412,191.76a1.49,1.49,0,0,0,.74-1.29V82.14Z"/><path class="cls-16" d="M272.8,273.22a2.2,2.2,0,0,1-1.05-.28,2.11,2.11,0,0,1-1.07-1.84V154.89L413.39,81.11V190.47a2.13,2.13,0,0,1-1.06,1.83L273.87,272.93A2.18,2.18,0,0,1,272.8,273.22Zm-.87-117.57V271.1a.87.87,0,0,0,.44.75.85.85,0,0,0,.87,0l138.47-80.63a.87.87,0,0,0,.43-.75V83.17Z"/><g id="Group-24"><g class="cls-17"><polygon class="cls-18" points="292.13 185.11 402.49 123.23 402.08 134.46 291.72 196.34 292.13 185.11"/></g><path class="cls-19" d="M299.61,188.41a2.09,2.09,0,0,0,1-1.5l-.47.27a1.16,1.16,0,0,1-.54.76c-.36.2-.58,0-.56-.55a1.44,1.44,0,0,1,.62-1.21c.27-.15.47-.07.51.2l.47-.26c0-.54-.42-.71-1-.41a2.3,2.3,0,0,0-1.13,1.95C298.55,188.5,298.94,188.78,299.61,188.41Zm1.39-.85.47-.26,0-1.08a.82.82,0,0,1,.44-.68.53.53,0,0,1,.22-.09V185l-.18.08a1,1,0,0,0-.46.6h0v-.31l-.45.25Zm2.2-2.8c.21-.12.35,0,.35.22l-.75.41A.81.81,0,0,1,303.2,184.76Zm.33.84a.73.73,0,0,1-.36.4c-.24.14-.39,0-.39-.25v0l1.2-.68v-.16c0-.62-.27-.82-.78-.53a1.8,1.8,0,0,0-.88,1.51c0,.64.28.84.81.54a1.65,1.65,0,0,0,.82-1Zm1.43-.23a1.26,1.26,0,0,0,.55-.63l0,0V185l.44-.25.1-2.71-.46.25,0,1.07h0c-.09-.16-.28-.18-.51-.05a1.69,1.69,0,0,0-.76,1.41C304.26,185.39,304.52,185.62,305,185.37Zm.22-1.67c.24-.14.39,0,.37.35a.92.92,0,0,1-.42.8c-.24.14-.38,0-.37-.35A.91.91,0,0,1,305.18,183.7Zm1.28.81.46-.26.07-2-.46.26Zm.31-2.39a.56.56,0,0,0,.27-.44c0-.17-.1-.23-.25-.15a.59.59,0,0,0-.27.44C306.51,182.14,306.63,182.2,306.77,182.12Zm.84-.64,0,.49-.27.15,0,.41.27-.15,0,1c0,.38.15.44.57.2a1.67,1.67,0,0,0,.24-.15V183l-.05,0-.09.05c-.15.09-.22,0-.22-.12l0-.88.36-.21,0-.41-.37.21,0-.49Zm2.14,1.72.94-3.72-.43.24-.94,3.72Zm1.23-3.75-.09,2.57.9-.51a2.19,2.19,0,0,0,1.13-1.9c0-.81-.35-1-1-.66Zm.47.19.34-.19c.42-.23.65-.08.64.44a1.38,1.38,0,0,1-.7,1.21l-.34.19Zm2.64-1c.22-.12.35,0,.35.22l-.74.41A.82.82,0,0,1,314.09,178.65Zm.34.84a.71.71,0,0,1-.37.4c-.24.14-.38,0-.38-.25v0l1.21-.68v-.16c0-.62-.27-.82-.78-.53a1.78,1.78,0,0,0-.88,1.51c0,.64.27.84.81.54a1.65,1.65,0,0,0,.82-1.05Zm1.83-.45a1.65,1.65,0,0,0,.75-1.41c0-.64-.23-.87-.67-.62a1.3,1.3,0,0,0-.54.64l0,0,0-1.06-.46.26-.1,2.71.45-.26V179l0,0C315.82,179.16,316,179.18,316.26,179Zm-.1-1.5c.25-.14.39,0,.38.35a.93.93,0,0,1-.42.8c-.25.14-.39,0-.38-.35A1,1,0,0,1,316.16,177.54Zm1.19.85.47-.25.07-2-.46.26Zm.32-2.38a.58.58,0,0,0,.27-.44c0-.17-.1-.23-.25-.15a.57.57,0,0,0-.27.44C317.41,176,317.53,176.09,317.67,176Zm.83-.64v.49l-.28.15v.41l.27-.16,0,1c0,.38.14.44.57.2a1.53,1.53,0,0,0,.23-.15l0-.39-.05,0-.09,0c-.16.09-.22.05-.22-.12l0-.88.37-.21v-.41l-.36.21,0-.49Zm3,.77a2,2,0,0,0,1-1.49l-.46.26a1.13,1.13,0,0,1-.55.76c-.36.2-.57,0-.55-.55a1.4,1.4,0,0,1,.61-1.2c.28-.15.48-.08.51.19l.47-.26c0-.54-.42-.71-1-.4a2.3,2.3,0,0,0-1.12,2C320.43,176.23,320.82,176.52,321.48,176.14Zm2-1.56c-.16.09-.27.07-.26-.08s.1-.27.3-.4l.36-.22V174A.75.75,0,0,1,323.52,174.58Zm-.16.48a1.22,1.22,0,0,0,.51-.57l0,0v.26l.45-.25.05-1.34c0-.42-.24-.52-.7-.26a1.47,1.47,0,0,0-.79,1l.43-.24a.64.64,0,0,1,.32-.36c.19-.1.29-.07.28.09v.16l-.43.27a1.3,1.3,0,0,0-.7,1C322.79,175.15,323,175.25,323.36,175.06Zm1.44-.84.46-.26,0-1.08a.87.87,0,0,1,.44-.69,1.13,1.13,0,0,1,.22-.09l0-.47a.67.67,0,0,0-.18.08,1,1,0,0,0-.47.6h0l0-.31-.45.25Zm2-1.09a1.33,1.33,0,0,0,.55-.64l0,0v.31l.45-.25.1-2.71-.46.26,0,1.06,0,0c-.08-.17-.27-.19-.51-.06a1.69,1.69,0,0,0-.75,1.42C326.1,173.14,326.36,173.38,326.8,173.13Zm.21-1.68c.25-.14.39,0,.38.36a.92.92,0,0,1-.42.8c-.25.14-.39,0-.37-.36A.94.94,0,0,1,327,171.45Z"/><polygon class="cls-20" points="297.44 192.54 328.07 175.36 328.05 175.96 297.41 193.14 297.44 192.54"/><g class="cls-1"><g class="cls-1"><path class="cls-21" d="M390.27,136.37v-.07a.54.54,0,0,1,.3-.45c.19-.11.28,0,.27.13v.07a.54.54,0,0,1-.3.45C390.35,136.61,390.26,136.54,390.27,136.37Zm1-.53v-.08a.58.58,0,0,1,.3-.45c.2-.11.28,0,.28.13v.08a.54.54,0,0,1-.29.45C391.3,136.08,391.22,136,391.22,135.84Zm1-.54v-.07a.54.54,0,0,1,.3-.45c.19-.11.28,0,.27.13V135a.52.52,0,0,1-.3.45C392.26,135.54,392.17,135.47,392.18,135.3Z"/></g></g></g><path class="cls-22" d="M295.94,160.21l25.49-14.29c.3-.17.53,0,.52.3h0a1.2,1.2,0,0,1-.56.91L295.9,161.42c-.3.17-.53,0-.52-.3h0A1.2,1.2,0,0,1,295.94,160.21Z"/><g id="Rectangle-Copy"><path class="cls-22" d="M295.81,163.85l41.76-23.41c.3-.17.53,0,.52.3h0a1.23,1.23,0,0,1-.57.91l-41.75,23.42c-.3.16-.54,0-.52-.31h0A1.21,1.21,0,0,1,295.81,163.85Z"/></g><g id="Rectangle-Copy-2" data-name="Rectangle-Copy"><path class="cls-22" d="M295.81,174.85l41.76-23.41c.3-.17.53,0,.52.3h0a1.23,1.23,0,0,1-.57.91l-41.75,23.42c-.3.16-.54,0-.52-.31h0A1.21,1.21,0,0,1,295.81,174.85Z"/></g><g class="cls-1"><g class="cls-1"><path class="cls-23" d="M376.5,122l0-.67a1.33,1.33,0,0,1-1.4,0l.61-.93a.94.94,0,0,0,.9,0l.05-1.31c-1,.32-1.35.06-1.32-.65a2.74,2.74,0,0,1,1.33-2.1l0-.69.74-.41,0,.68a1.08,1.08,0,0,1,1.16,0l-.61.93a.68.68,0,0,0-.66-.06l0,1.21c.91-.28,1.33-.11,1.3.63a3,3,0,0,1-1.32,2.19l0,.7Zm.22-3.76,0-1.08a1.11,1.11,0,0,0-.49.82C376.25,118.29,376.39,118.35,376.72,118.27Zm.54.74,0,1.15a1.23,1.23,0,0,0,.47-.85C377.7,119.1,377.63,118.92,377.26,119Z"/><path class="cls-23" d="M381.08,118.88l0-1-2,1.12,0-.93,1.89-4.17,1.15-.65-.12,3.27.58-.33,0,.85-.58.32,0,1Zm-1.15-1.14,1.21-.68.08-2.14-.06,0Z"/><path class="cls-23" d="M384.87,116.75l-1.35.76a9.85,9.85,0,0,0,2.05-3.65h-.06a2.34,2.34,0,0,1-1,1.33c-.75.42-1.3.12-1.27-.84a3.48,3.48,0,0,1,1.77-2.74c1.08-.6,1.68-.16,1.63,1.06A7.83,7.83,0,0,1,384.87,116.75Zm.74-3.76v-.13c0-.49-.23-.63-.66-.38a1.37,1.37,0,0,0-.72,1.15v.14c0,.49.23.62.66.38A1.37,1.37,0,0,0,385.61,113Z"/><path class="cls-23" d="M388.85,114.52l-1.34.75a9.77,9.77,0,0,0,2-3.64h-.06a2.37,2.37,0,0,1-1,1.33c-.74.42-1.3.12-1.27-.84a3.48,3.48,0,0,1,1.77-2.74c1.08-.61,1.68-.16,1.64,1.06A8,8,0,0,1,388.85,114.52Zm.74-3.76v-.13c0-.5-.24-.63-.67-.39a1.35,1.35,0,0,0-.71,1.16v.13c0,.5.23.63.66.39A1.38,1.38,0,0,0,389.59,110.76Z"/></g></g><g id="Group-22"><g id="Group-19"><path class="cls-24" d="M311.45,194.19l70.23-39.38c.45-.25.8,0,.78.46L382.1,165a1.78,1.78,0,0,1-.84,1.37L311,205.73c-.45.25-.8.05-.78-.46l.35-9.71A1.84,1.84,0,0,1,311.45,194.19Z"/><path class="cls-25" d="M381.25,166.5,311,205.88c-.52.29-.92.05-.9-.53l.35-9.72a2.15,2.15,0,0,1,1-1.59l70.22-39.37c.53-.3.93-.06.91.52l-.35,9.72A2.13,2.13,0,0,1,381.25,166.5Zm-69.8,27.84a1.5,1.5,0,0,0-.71,1.15l-.36,9.71c0,.42.28.59.66.38l70.22-39.38a1.49,1.49,0,0,0,.71-1.14l.36-9.72c0-.42-.28-.59-.66-.38Z"/><g id="Rectangle-Copy-3"><path class="cls-24" d="M311,207.24l55.86-31.32c.45-.25.8,0,.78.46l-.35,9.71a1.82,1.82,0,0,1-.85,1.37l-55.86,31.32c-.45.25-.79.05-.78-.46l.36-9.71A1.87,1.87,0,0,1,311,207.24Z"/><path class="cls-25" d="M366.4,187.61l-55.85,31.32c-.52.29-.93,0-.91-.53l.36-9.71a2.1,2.1,0,0,1,1-1.59l55.86-31.32c.52-.3.93-.06.9.53l-.35,9.71A2.1,2.1,0,0,1,366.4,187.61ZM311,207.39a1.54,1.54,0,0,0-.71,1.15l-.35,9.71c0,.42.27.59.65.38l55.86-31.32a1.51,1.51,0,0,0,.7-1.14l.36-9.72c0-.42-.28-.59-.65-.38Z"/></g><g id="Rectangle-Copy-13"><path class="cls-24" d="M369.81,174.25l11.39-6.38c.45-.26.8-.05.78.45l-.35,9.71a1.82,1.82,0,0,1-.85,1.37l-11.39,6.39c-.45.25-.8.05-.78-.46l.36-9.71A1.82,1.82,0,0,1,369.81,174.25Z"/><path class="cls-25" d="M380.78,179.55l-11.39,6.39c-.52.29-.93.05-.91-.53l.35-9.72a2.18,2.18,0,0,1,1-1.59l11.39-6.38c.52-.29.93-.06.9.53l-.35,9.71A2.12,2.12,0,0,1,380.78,179.55Zm-11-5.15a1.49,1.49,0,0,0-.71,1.14l-.36,9.72c0,.42.28.59.66.38l11.39-6.39a1.51,1.51,0,0,0,.7-1.14l.36-9.71c0-.42-.28-.6-.65-.38Z"/></g><g id="Card-Number" class="cls-1"><g class="cls-1"><path class="cls-26" d="M321.17,194.36a2.2,2.2,0,0,1,1.05-1.9c.42-.24.68-.2.83.12l-.44.49c-.05-.18-.16-.26-.41-.12a1,1,0,0,0-.5.89l0,.41c0,.4.17.51.46.35a1.08,1.08,0,0,0,.47-.64l.39,0a2,2,0,0,1-.88,1.09C321.51,195.43,321.14,195.22,321.17,194.36Z"/><path class="cls-26" d="M324.6,193.66c-.17.09-.29,0-.31-.16l0,0a1,1,0,0,1-.52.66c-.34.19-.52.07-.51-.27a1.29,1.29,0,0,1,.76-1l.27-.15v-.12c0-.19-.07-.26-.27-.15a.93.93,0,0,0-.37.43l-.28-.12a1.57,1.57,0,0,1,.7-.75c.48-.27.72-.16.71.29l0,.84.15-.09v.42Zm-.35-.37v-.23l-.24.13a.52.52,0,0,0-.29.38v.05c0,.14.07.16.22.08A.54.54,0,0,0,324.25,193.29Z"/><path class="cls-26" d="M325.23,193.3l.07-1.91.48-.27v.42h0a1,1,0,0,1,.45-.66l.09-.05,0,.5-.12.07c-.28.16-.42.3-.43.53l0,1.11Z"/><path class="cls-26" d="M327.63,191.64h0a1.06,1.06,0,0,1-.47.63c-.43.24-.64,0-.62-.64a1.5,1.5,0,0,1,.69-1.36c.23-.13.41-.08.45.1h0l0-1.1.48-.27-.1,2.7-.48.27Zm0-.35,0-.56c0-.18-.12-.21-.3-.11a.74.74,0,0,0-.33.58v.33c0,.24.12.32.3.22A.58.58,0,0,0,327.64,191.29Z"/><path class="cls-26" d="M330.16,189.36,330,189h0l-.06,1.71-.47.27.09-2.55.54-.3.58.85.2.39h0l.06-1.72.47-.26-.09,2.54-.54.31Z"/><path class="cls-26" d="M332.81,188.74h0a1,1,0,0,1-.49.63c-.35.2-.52,0-.5-.45l0-1.21.48-.27,0,1.16c0,.23.05.33.23.23a.6.6,0,0,0,.31-.45l.05-1.24.48-.27-.07,1.91-.48.27Z"/><path class="cls-26" d="M333.77,188.52l.07-1.92.48-.27v.33h0a1.08,1.08,0,0,1,.47-.63c.23-.13.4-.09.46.12h0a1.2,1.2,0,0,1,.54-.68c.33-.19.5,0,.48.47l0,1.2-.48.27,0-1.16c0-.25-.06-.32-.22-.23a.57.57,0,0,0-.3.44l0,1.24-.48.27,0-1.16c0-.25-.07-.32-.22-.23a.59.59,0,0,0-.3.44l0,1.24Z"/><path class="cls-26" d="M336.81,184.17l.49-.27,0,1.1h0a1.08,1.08,0,0,1,.47-.62c.44-.24.65,0,.63.63a1.55,1.55,0,0,1-.7,1.37c-.22.13-.4.08-.44-.11h0v.32l-.48.27Zm1.05,1.28v-.33c0-.24-.12-.32-.3-.22a.61.61,0,0,0-.33.46l0,.56c0,.18.13.21.31.1A.71.71,0,0,0,337.86,185.45Z"/><path class="cls-26" d="M338.66,184.84a1.69,1.69,0,0,1,.84-1.45c.56-.32.78,0,.76.53v.16l-1.1.61v0c0,.26.11.35.37.2a1.16,1.16,0,0,0,.42-.46l.23.2a1.94,1.94,0,0,1-.73.72C338.92,185.67,338.64,185.45,338.66,184.84Zm.51-.49v0l.59-.34v0c0-.23-.08-.34-.28-.23A.66.66,0,0,0,339.17,184.35Z"/><path class="cls-26" d="M340.6,184.69l.07-1.92.48-.27v.42h0a1,1,0,0,1,.45-.66l.09-.05,0,.5-.12.07c-.28.16-.42.31-.43.53l0,1.12Z"/></g></g><g id="Expiry-Date" class="cls-1"><g class="cls-1"><path class="cls-26" d="M312.32,213.63l.09-2.54,1.54-.87v.49l-1.06.59v.52l.9-.5,0,.48-.9.51,0,.55,1.05-.59,0,.49Z"/><path class="cls-26" d="M314.14,212.61l.6-1.29-.53-.63.55-.31.3.43h0l.33-.78.51-.28-.6,1.28.53.63-.54.31-.31-.44h0l-.34.8Z"/><path class="cls-26" d="M316.23,209.56l.49-.27,0,.32h0a1,1,0,0,1,.47-.62c.44-.25.65,0,.62.63a1.52,1.52,0,0,1-.69,1.37c-.22.12-.4.07-.45-.11h0l0,1.05-.48.27Zm1.08.5v-.34c0-.24-.12-.32-.3-.22a.65.65,0,0,0-.33.46l0,.57c0,.17.12.2.31.1A.71.71,0,0,0,317.31,210.06Z"/><path class="cls-26" d="M318.23,208v-.08a.52.52,0,0,1,.29-.42c.2-.11.28,0,.27.1v.08a.51.51,0,0,1-.29.43C318.3,208.2,318.22,208.13,318.23,208Zm0,.45.48-.27-.07,1.91-.48.27Z"/><path class="cls-26" d="M319.15,209.8l.07-1.92.48-.27V208h0a1,1,0,0,1,.46-.66l.08-.05,0,.5-.12.07c-.28.16-.42.3-.43.53l0,1.12Z"/><path class="cls-26" d="M321.64,206.53l.45-.26-.74,2.58a1.1,1.1,0,0,1-.54.73l-.3.17,0-.42.32-.18.07-.25-.53-1.67.48-.27.22.75.1.48h0l.15-.62Z"/><path class="cls-26" d="M323.23,205l.86-.48c.6-.34,1-.14,1,.71a2.11,2.11,0,0,1-1.05,1.83l-.85.48Zm.78,1.57a1,1,0,0,0,.5-.85v-.39c0-.41-.16-.48-.45-.32l-.36.2-.06,1.56Z"/><path class="cls-26" d="M326.68,205.57c-.17.1-.29,0-.31-.15h0a1,1,0,0,1-.52.66c-.34.19-.52.07-.51-.26a1.3,1.3,0,0,1,.76-1l.27-.15v-.12c0-.18-.07-.25-.27-.14a1,1,0,0,0-.38.43l-.27-.12a1.53,1.53,0,0,1,.7-.75c.48-.27.72-.17.7.29l0,.83L327,205v.41Zm-.35-.37V205l-.24.13a.51.51,0,0,0-.29.37v.06c0,.14.07.16.22.08A.54.54,0,0,0,326.33,205.2Z"/><path class="cls-26" d="M327.89,204.9c-.33.18-.5.09-.49-.28l0-.93-.24.13,0-.42.12-.06a.34.34,0,0,0,.18-.3v-.32l.43-.24,0,.52.34-.19,0,.42-.33.19,0,1.07.31-.17,0,.42Z"/><path class="cls-26" d="M328.49,203.62a1.7,1.7,0,0,1,.84-1.45c.56-.31.77,0,.75.54v.16l-1.1.61v0c0,.25.11.34.36.2a1.15,1.15,0,0,0,.43-.47l.23.21a1.92,1.92,0,0,1-.73.71C328.75,204.46,328.47,204.23,328.49,203.62Zm.5-.49v0l.6-.33v0c0-.24-.08-.34-.27-.23A.68.68,0,0,0,329,203.13Z"/></g></g><g id="CVV" class="cls-1"><g class="cls-1"><path class="cls-26" d="M372.2,178.82a2.19,2.19,0,0,1,1.05-1.89c.42-.24.68-.2.83.12l-.44.48c-.05-.17-.16-.25-.41-.11a1,1,0,0,0-.5.89l0,.41c0,.4.17.51.46.35a1.08,1.08,0,0,0,.47-.64l.39,0a2,2,0,0,1-.87,1.09C372.54,179.9,372.17,179.68,372.2,178.82Z"/><path class="cls-26" d="M374.92,178.52l-.64-2.13.51-.28.29,1,.15.7h0l.2-.89.38-1.41.49-.27-.83,3Z"/><path class="cls-26" d="M377.09,177.31l-.64-2.14.51-.28.29,1,.15.7h0l.2-.9.38-1.41.49-.27-.83,3Z"/></g></g></g><g id="Fill-1-Copy"><path class="cls-27" d="M313.73,197.38l4.33-2.44,0-.6-4.34,2.43Zm-.12,3L318,198l.07-1.82-4.34,2.43Zm4.5-6.68-4.34,2.43a1.21,1.21,0,0,0-.56.91l-.14,3.65c0,.33.22.47.52.3l4.34-2.43a1.25,1.25,0,0,0,.57-.91l.13-3.65c0-.33-.22-.47-.52-.3Z"/></g></g><g id="Group-23"><g class="cls-2"><path class="cls-28" d="M324.5,222.43l42.3-23.72c.6-.34,1.06-.07,1,.6l-.35,9.41a2.44,2.44,0,0,1-1.13,1.83l-42.29,23.71c-.6.34-1.07.07-1.05-.6l.35-9.41A2.4,2.4,0,0,1,324.5,222.43Z"/></g><path class="cls-29" d="M330,224.55l30.91-17.34c.3-.17.53,0,.52.31h0a1.22,1.22,0,0,1-.57.91L330,225.76c-.3.17-.53,0-.52-.3h0A1.22,1.22,0,0,1,330,224.55Z"/></g><ellipse class="cls-15" cx="278.48" cy="144.98" rx="2.44" ry="1.37" transform="translate(6.6 301.98) rotate(-57.51)"/><ellipse class="cls-15" cx="284.42" cy="142.04" rx="2.44" ry="1.37" transform="translate(11.82 305.63) rotate(-57.51)"/><path class="cls-30" d="M94.07,422.08h0a1.28,1.28,0,0,1,.19-1.79l53.87-43.56a5.49,5.49,0,0,0,2-5.05L144.83,335l2.52-.36,5.28,36.66a8.07,8.07,0,0,1-2.9,7.39L95.86,422.27A1.27,1.27,0,0,1,94.07,422.08Z"/><g class="cls-1"><path class="cls-16" d="M170.49,324.81c1.44.47,1.7,1.66.58,2.67l-19.74,17.79a5.21,5.21,0,0,1-4.63,1l-25.37-8.31c-1.44-.47-1.7-1.67-.57-2.68l19.73-17.78a5.21,5.21,0,0,1,4.63-1Z"/><path class="cls-16" d="M171.75,326.3v0a1.35,1.35,0,0,1-.09.33l0,.07a1.76,1.76,0,0,1-.2.34,1.86,1.86,0,0,1-.19.22l-.17.18-19.74,17.79a3.87,3.87,0,0,1-.59.42l-.23.13-.31.15-.38.15-.1,0a4.77,4.77,0,0,1-.54.15l-.09,0-.55.08h-.08a4.87,4.87,0,0,1-.54,0h-.1a3.71,3.71,0,0,1-.48-.05h-.09a3.39,3.39,0,0,1-.55-.13l-25.37-8.31a2.28,2.28,0,0,1-.86-.48,1.22,1.22,0,0,1-.39-.67l4.15,20a1.64,1.64,0,0,0,1.24,1.14l25.38,8.32a4.21,4.21,0,0,0,.51.12h.12a3,3,0,0,0,.31,0h.36l.33,0h.33l.32,0,.11,0,.09,0,.14,0,.36-.1,0,0,.09,0a2.15,2.15,0,0,0,.27-.1l.12,0,.31-.15.16-.08.07-.05a3.59,3.59,0,0,0,.58-.42l19.74-17.78,0,0,.14-.16.2-.22,0,0a1.74,1.74,0,0,0,.15-.26l0-.06s0,0,0-.06a.49.49,0,0,0,0-.11.65.65,0,0,0,0-.2v0a.06.06,0,0,0,0,0s0-.08,0-.13a1.37,1.37,0,0,0,0-.19v0l-4.14-20A1,1,0,0,1,171.75,326.3Z"/></g><g class="cls-1"><path class="cls-16" d="M158.83,122.06c1.3.93,1.18,2.23-.28,2.89l-25.61,11.68a5.53,5.53,0,0,1-5-.49l-23-16.49c-1.3-.94-1.18-2.23.28-2.89l25.61-11.68a5.53,5.53,0,0,1,5,.49Z"/><path class="cls-16" d="M159.63,124s0,0,0,0a1.49,1.49,0,0,1-.2.31l0,.05a1.67,1.67,0,0,1-.31.28l-.27.17-.24.13-25.61,11.68a4,4,0,0,1-.72.23l-.28.06-.36.05a3.11,3.11,0,0,1-.43,0H131q-.3,0-.6,0h-.09a5.4,5.4,0,0,1-.58-.09l-.09,0c-.19,0-.37-.09-.56-.15l-.09,0c-.17-.06-.32-.13-.48-.2l-.08,0a4.27,4.27,0,0,1-.51-.3l-23-16.49a2.5,2.5,0,0,1-.71-.76,1.31,1.31,0,0,1-.18-.8l-2.2,21.54a1.77,1.77,0,0,0,.9,1.56l23,16.49c.15.1.32.2.49.29h0a.2.2,0,0,0,.08,0l.3.14.17.06.1,0,.09,0,.34.1.13,0,.09,0,.12,0,.34.05h.21l.16,0h.85l.13,0,.36,0,.19,0,.08,0a3.9,3.9,0,0,0,.73-.23l25.61-11.68,0,0c.07,0,.12-.08.18-.11l.27-.16,0,0,.24-.21,0-.05.05-.06.07-.09a2,2,0,0,0,.12-.19,0,0,0,0,1,0,0s0,0,0,0a.61.61,0,0,0,0-.12,1.94,1.94,0,0,0,.05-.2v0l2.19-21.55A1.19,1.19,0,0,1,159.63,124Z"/></g><line class="cls-16" x1="130.46" y1="135.38" x2="128.17" y2="158.5"/><line class="cls-16" x1="129.38" y1="148.83" x2="158.46" y2="136.19"/><line class="cls-16" x1="102.71" y1="130.67" x2="128.74" y2="148.77"/><g class="cls-1"><path class="cls-16" d="M541.2,97.52c1.39.8,1.39,2.1,0,2.9l-24.33,14.15a5.53,5.53,0,0,1-5,0l-24.5-14.15c-1.39-.8-1.4-2.1,0-2.9l24.34-14.14a5.53,5.53,0,0,1,5,0Z"/><path class="cls-16" d="M542.18,99.34s0,0,0,0a1.48,1.48,0,0,1-.17.33.21.21,0,0,1,0,.06,1.6,1.6,0,0,1-.28.31,1.64,1.64,0,0,1-.25.19l-.22.15-24.33,14.15a4.34,4.34,0,0,1-.7.3l-.27.08-.36.09-.42.08H515l-.6,0h-.09l-.59,0h-.09l-.57-.09-.1,0a4,4,0,0,1-.49-.15l-.09,0a3.22,3.22,0,0,1-.53-.25l-24.5-14.15a2.45,2.45,0,0,1-.79-.68,1.37,1.37,0,0,1-.26-.77l-.06,21.65a1.79,1.79,0,0,0,1,1.46l24.5,14.14c.16.09.33.17.51.25h0l.09,0,.31.1.18,0,.1,0,.09,0c.12,0,.23.05.35.06l.13,0h.22l.34,0h.37l.39,0h.15l.3,0,.13,0,.36-.09.19-.05.07,0a4.48,4.48,0,0,0,.7-.31l24.34-14.14,0,0c.07,0,.12-.09.18-.13a1.64,1.64,0,0,0,.25-.19h0a1.6,1.6,0,0,0,.22-.24l0-.06,0,0a.86.86,0,0,1,.07-.1c0-.07.07-.14.09-.2v0s0,0,0,0,0-.09,0-.13a1.49,1.49,0,0,0,0-.21v0L542.24,99A1.13,1.13,0,0,1,542.18,99.34Z"/></g><g class="cls-1"><path class="cls-31" d="M208.37,297.17c1.15.38,1.35,1.33.46,2.13L153.5,349.16a4.15,4.15,0,0,1-3.69.78l-71.12-23.3a1.16,1.16,0,0,1-.46-2.14l55.33-49.86a4.15,4.15,0,0,1,3.69-.77Z"/><path class="cls-8" d="M150.83,350.93a4.13,4.13,0,0,1-1.28-.19l-71.12-23.3a2,2,0,0,1-.77-3.57L133,274a5,5,0,0,1,4.53-.95l71.12,23.3h0a2.18,2.18,0,0,1,1.56,1.54,2.13,2.13,0,0,1-.8,2l-55.33,49.86A5,5,0,0,1,150.83,350.93Zm-14.61-76.37a3.34,3.34,0,0,0-2.09.71L78.8,325.13c-.22.2-.29.36-.27.42s.1.17.43.28l71.12,23.3a3.34,3.34,0,0,0,2.86-.6l55.33-49.86c.22-.19.28-.36.27-.41s-.14-.19-.43-.28h0L137,274.67A2.65,2.65,0,0,0,136.22,274.56Z"/><path class="cls-31" d="M209.37,298.08a.88.88,0,0,1,0,.28v0a.92.92,0,0,1-.08.27s0,0,0,0a1.82,1.82,0,0,1-.15.27l-.16.18a.92.92,0,0,1-.14.14L153.5,349.16a2.74,2.74,0,0,1-.46.34l-.19.1-.24.12-.31.12-.07,0a3.6,3.6,0,0,1-.44.12l-.07,0a3.11,3.11,0,0,1-.44.06h-.06l-.44,0h-.08a2.43,2.43,0,0,1-.38,0h-.07a3.13,3.13,0,0,1-.44-.1l-71.12-23.3a1.38,1.38,0,0,1-1-.92L78.8,331a1.34,1.34,0,0,0,1,.92l71.12,23.3a2.73,2.73,0,0,0,.41.1h.09l.25,0h.81l.26,0,.08,0,.07,0,.12,0,.29-.08h0l.07,0,.22-.08.09,0,.25-.12.13-.06,0,0a3.28,3.28,0,0,0,.47-.33l55.33-49.86,0,0a.6.6,0,0,0,.11-.12,1.29,1.29,0,0,0,.16-.18h0a2.39,2.39,0,0,0,.13-.21l0-.05,0,0,0-.08a.94.94,0,0,0,0-.16v-.06a.31.31,0,0,0,0-.1.77.77,0,0,0,0-.15v0h0Z"/><path class="cls-8" d="M151.94,356.26h-.33l-.31,0-.13,0h0a3.4,3.4,0,0,1-.51-.12l-71.12-23.3A2.16,2.16,0,0,1,78,331.22l-1.1-5.32h0l1.67-.34h0s.1.17.43.28l71.12,23.3a1.63,1.63,0,0,0,.3.07l.35,0,.42,0a3.34,3.34,0,0,0,.4-.05l.42-.11.3-.12.19-.09.14-.08a1.65,1.65,0,0,0,.33-.24l55.35-49.87.16-.18a.75.75,0,0,0,.07-.12l0-.1,1.66-.35h0l1.1,5.32a1.55,1.55,0,0,1,0,.34v0l0,.25c0,.1,0,.19-.07.29l-.09.22s0,0,0,.08-.12.21-.2.32l-.06.08-.14.16a2,2,0,0,1-.19.2l-55.37,49.9a4.53,4.53,0,0,1-.59.43l-.08.05-.13.06a3.29,3.29,0,0,1-.33.16l-.11.05-.2.08-.14,0a3.46,3.46,0,0,1-.38.11l-.1,0-.24-.82.13.84-.11,0-.3.05-.32,0h-.33Zm.22-1.7.16.83-.06-.84.16.83-.06-.84.23,0,.28.81-.18-.83.31.8-.2-.82.25-.07.35.77-.23-.82.2-.08.19-.09.09,0,.06,0a3.88,3.88,0,0,0,.33-.23L209.37,304l.2-.22,0-.08,0-.08-.68-3.29-54.89,49.46a3,3,0,0,1-.6.43,1.71,1.71,0,0,1-.23.13l-.29.14a3,3,0,0,1-.38.15l-.08,0a5,5,0,0,1-.52.14l-.1,0-.5.08h-.69a3.73,3.73,0,0,1-.48,0l-.1,0a2.74,2.74,0,0,1-.55-.13L79,327.61l.68,3.26s.1.18.43.28l71.12,23.3a1.37,1.37,0,0,0,.29.07l.26,0h.43Z"/></g><g class="cls-1"><path class="cls-31" d="M592.64,73.43a1.36,1.36,0,0,1,0,2.57l-75.92,44.12a4.89,4.89,0,0,1-4.44,0L435.88,76a1.37,1.37,0,0,1,0-2.58l75.92-44.12a4.88,4.88,0,0,1,4.45,0Z"/><path class="cls-8" d="M514.52,121.65a5.6,5.6,0,0,1-2.73-.66L435.38,76.87A2.56,2.56,0,0,1,434,74.71a2.52,2.52,0,0,1,1.41-2.14l75.92-44.12a5.93,5.93,0,0,1,5.45,0l76.41,44.11a2.57,2.57,0,0,1,1.42,2.16,2.54,2.54,0,0,1-1.41,2.15L517.24,121A5.53,5.53,0,0,1,514.52,121.65ZM514,29.78a3.5,3.5,0,0,0-1.72.4L436.37,74.3c-.31.17-.42.34-.42.41s.08.23.43.43l76.41,44.12a3.92,3.92,0,0,0,3.44,0l75.92-44.12c.3-.18.41-.35.41-.42s-.11-.24-.42-.42L515.73,30.18A3.65,3.65,0,0,0,514,29.78Z"/><path class="cls-31" d="M593.56,74.73a1.25,1.25,0,0,1,0,.32,0,0,0,0,0,0,0,2.1,2.1,0,0,1-.15.3l0,.05a1.94,1.94,0,0,1-.24.27l-.23.17-.19.13-75.92,44.12a2.82,2.82,0,0,1-.61.27l-.24.08-.31.07-.39.07h-.09a4.58,4.58,0,0,1-.53,0h-.08a4.41,4.41,0,0,1-.52,0h-.08a4.5,4.5,0,0,1-.51-.08l-.09,0-.43-.14-.08,0a3.54,3.54,0,0,1-.48-.23L435.88,76a1.58,1.58,0,0,1-.93-1.3l0,6.41a1.58,1.58,0,0,0,.94,1.3l76.4,44.11a4.91,4.91,0,0,0,.46.22h0l.08,0,.28.1.15,0,.09,0,.08,0,.32.05h.19l.11,0h.63l.35,0h.13l.27,0,.12,0,.31-.08.17,0,.07,0a3.14,3.14,0,0,0,.62-.27l75.91-44.12,0,0,.16-.12.22-.16h0a1.8,1.8,0,0,0,.19-.21s0,0,0,0l0,0,.06-.09a1.42,1.42,0,0,0,.08-.18,0,0,0,0,0,0,0s0,0,0,0a.53.53,0,0,0,0-.12.55.55,0,0,0,0-.18v0h0Z"/><path class="cls-8" d="M514.33,128.06l-.36,0-.37,0-.37-.06-.1,0,.16-1-.26,1-.2,0-.34-.12-.16-.06a4,4,0,0,1-.56-.26l-76.4-44.12a2.54,2.54,0,0,1-1.44-2.16l0-6.41h2c0,.05.08.23.43.43l76.41,44.12a2.07,2.07,0,0,0,.34.15l.39.13a4.74,4.74,0,0,0,1.46.09l.38-.07a.84.84,0,0,0,.24-.06l.19,0a2.53,2.53,0,0,0,.44-.19l75.93-44.13.24-.18a.35.35,0,0,0,.1-.11h0l.06-.12h2l0,6.54a1.48,1.48,0,0,1,0,.28l-.11.36a1.23,1.23,0,0,1-.14.29l-.19.29a2.56,2.56,0,0,1-.31.34l-.1.08-.19.15-.28.19-76,44.15a4.9,4.9,0,0,1-.79.35,1.63,1.63,0,0,1-.28.08,3.89,3.89,0,0,1-.4.1l-.14,0-.28,0-.16,0-.45,0h-.39Zm-.22-2a1.42,1.42,0,0,0,.28,0l.13,1v-1l.17,1,0-1,.29,0,.22,1-.12-1,.29,0,.26-.07.11,0,.07,0a3.63,3.63,0,0,0,.44-.19l75.92-44.12.28-.21.07-.07.07-.21V77.21L517.24,121a4.66,4.66,0,0,1-.8.35l-.29.09c-.12,0-.25.07-.38.09l-.46.08-.13,0a5.93,5.93,0,0,1-.61,0h-.11l-.61,0h-.1c-.2,0-.4-.06-.6-.11l-.1,0a4.26,4.26,0,0,1-.54-.17l-.1,0a3.92,3.92,0,0,1-.62-.29L436,77.2l0,3.92c0,.07.12.25.44.43l76.4,44.11a3.18,3.18,0,0,0,.32.16l.29.1.26.06.24,0,0,1,.13-1v1Z"/></g><g class="cls-1"><path class="cls-31" d="M212.39,103.15a1.36,1.36,0,0,1-.24,2.56l-79.89,36.43a4.9,4.9,0,0,1-4.43-.44L56.14,90.28a1.36,1.36,0,0,1,.24-2.57l79.89-36.42a4.9,4.9,0,0,1,4.43.44Z"/><path class="cls-8" d="M130.53,143.48a5.86,5.86,0,0,1-3.28-1L55.56,91.09A2.35,2.35,0,0,1,56,86.8l79.89-36.42a5.92,5.92,0,0,1,5.43.54L213,102.34a2.56,2.56,0,0,1,1.21,2.29,2.52,2.52,0,0,1-1.62,2l-79.89,36.43A5.15,5.15,0,0,1,130.53,143.48ZM138,52a3.19,3.19,0,0,0-1.31.25L56.79,88.62c-.31.15-.44.31-.45.38s.06.23.39.47l71.69,51.42a3.9,3.9,0,0,0,3.42.34l79.89-36.42c.32-.15.45-.31.46-.38s-.09-.26-.39-.47L140.11,52.54A3.82,3.82,0,0,0,138,52Z"/><path class="cls-31" d="M213.18,104.53a1.16,1.16,0,0,1-.08.32l0,0a1.17,1.17,0,0,1-.17.28.1.1,0,0,0,0,0,2.35,2.35,0,0,1-.28.25l-.23.14a1.39,1.39,0,0,1-.21.11l-79.89,36.43a3.3,3.3,0,0,1-.65.21l-.24.05-.32,0-.39,0h-.09a4.71,4.71,0,0,1-.53,0H130l-.52-.08-.08,0a4.5,4.5,0,0,1-.49-.14l-.09,0-.42-.17-.07,0a5.11,5.11,0,0,1-.46-.28L56.14,90.28a1.58,1.58,0,0,1-.79-1.39l-.65,6.38a1.55,1.55,0,0,0,.79,1.38l71.7,51.43a4.28,4.28,0,0,0,.42.26h0l.07,0,.27.13.15.05.09,0,.08,0,.3.08.12,0h.07l.11,0,.31,0h1.08l.11,0,.32,0,.17,0,.08,0a4.36,4.36,0,0,0,.64-.21l79.89-36.43,0,0,.17-.1.23-.14h0l.22-.19,0,0,0,0,.06-.08a1.4,1.4,0,0,0,.1-.16,0,0,0,0,0,0,0l0,0s0-.07,0-.11a.85.85,0,0,0,0-.17v0h0Z"/><path class="cls-8" d="M129.85,149.85h-.51l0-1-.18,1-.13,0-.35-.05-.36-.08-.37-.1-.1,0,.27-1-.37.93-.18-.06-.31-.14-.12-.06a3.28,3.28,0,0,1-.59-.35L54.91,97.47a2.59,2.59,0,0,1-1.21-2.3l.65-6.37h0l2,.21s.06.23.39.47l71.69,51.42a3.37,3.37,0,0,0,.32.19,3.21,3.21,0,0,0,.38.16,3.4,3.4,0,0,0,.46.13,2.65,2.65,0,0,0,.48.08,3.27,3.27,0,0,0,.51,0l.37,0,.26,0,.19,0a2.38,2.38,0,0,0,.45-.15l79.91-36.43.25-.15a.43.43,0,0,0,.12-.11l.06-.09h0v0l2,.2h0l-.65,6.38a2.55,2.55,0,0,1-.08.4l-.13.32a2.38,2.38,0,0,1-.18.3l-.18.22s0,0-.06.07a3.18,3.18,0,0,1-.33.3l-.11.06-.21.13a2.6,2.6,0,0,1-.29.17L132,149.43a5.63,5.63,0,0,1-.82.27l-.1,0-.18,0-.42.06-.14,0h-.51Zm-.25-2h.28l.13,1,0-1,.31,0,.25,0,.11,0h.06a4.35,4.35,0,0,0,.47-.15l79.89-36.43.3-.18.08-.06.08-.13.4-3.9-79.27,36.14a3.75,3.75,0,0,1-.82.27,1.59,1.59,0,0,1-.3.06,2.57,2.57,0,0,1-.4.06,3.44,3.44,0,0,1-.46,0h-.1c-.22,0-.43,0-.64,0h-.1c-.2,0-.41-.05-.61-.09a6.12,6.12,0,0,1-.68-.19l-.11,0-.52-.22-.09,0a4.83,4.83,0,0,1-.59-.35L56.09,91.47l-.4,3.9c0,.07.09.26.39.47l71.69,51.43.3.18-.36.93.46-.88.18.08.25.08.24.07-.12,1,.28-1,.33.06h.16l0,1Z"/></g><polygon class="cls-8" points="434.44 75.98 513.44 119.98 513.44 125.98 434.44 81.98 434.44 75.98"/><polygon class="cls-8" points="77.84 327.13 151.09 349.88 152.14 354.86 78.89 332.11 77.84 327.13"/><polygon class="cls-8" points="55.45 90.81 129.73 142.38 129.14 148.35 54.85 96.78 55.45 90.81"/><path class="cls-32" d="M515,60.52c3-.83,6.22-1.4,6.23,3,0,3.58-2,7.57-6.19,10.47v3l-2.7,1.56V75.61c-3,1.45-5.13,1.37-6.7.47l2.18-4.78a5.11,5.11,0,0,0,4.51.17V66.35c-2.92.87-6.1,1.4-6.12-3,0-3.32,2.28-7.46,6.08-10.07v-3l2.7-1.56v3.11c2.3-1.07,4.23-1.15,5.77-.43L518.52,56A4.94,4.94,0,0,0,515,56Zm-.23,9.64a5.08,5.08,0,0,0,2.34-3.71c0-1.21-1-1.19-2.35-.86v4.57m-2.22-8.91V57.11a4.44,4.44,0,0,0-2.2,3.46c0,1,.91,1,2.21.68"/><path class="cls-8" d="M212.36,289.81a12.77,12.77,0,0,1,5.75,6.6c.19.5,1,.28.82-.23a13.69,13.69,0,0,0-6.14-7.1c-.47-.27-.9.47-.43.73Z"/><path class="cls-8" d="M212.11,293.87A5.24,5.24,0,0,1,215,298a.43.43,0,0,0,.42.42.42.42,0,0,0,.43-.42,6.1,6.1,0,0,0-3.29-4.85c-.49-.24-.92.49-.43.73Z"/><path class="cls-8" d="M75.57,303.33a21.55,21.55,0,0,0-4.5,13.95c0,.54.87.55.85,0a20.66,20.66,0,0,1,4.25-13.35c.33-.43-.27-1-.6-.6Z"/><path class="cls-8" d="M75.26,311.17a16.47,16.47,0,0,0-.71,7.24c.07.54.92.54.85,0a15.87,15.87,0,0,1,.68-7c.18-.52-.64-.75-.82-.23Z"/><path class="cls-14" d="M141.34,312.26c-6.54-1-22,5-20,9s29.41-4.76,29.41-4.76Z"/><g class="cls-1"><polygon class="cls-33" points="141.75 285.22 130.4 297.21 135.18 313.11 146.53 301.11 141.75 285.22"/><polygon class="cls-34" points="135.18 313.11 150.67 316.71 162.02 304.71 146.53 301.11 135.18 313.11"/><polygon class="cls-32" points="146.53 301.11 162.02 304.71 157.24 288.82 141.75 285.22 146.53 301.11"/></g><path class="cls-8" d="M220.48,106.93a8.11,8.11,0,0,1-4.19,4.48.5.5,0,0,0,.51.87,9.11,9.11,0,0,0,4.64-5.08.5.5,0,1,0-1-.27Z"/><path class="cls-8" d="M223.89,107.91a10.72,10.72,0,0,1-6.34,7.37c-.59.24-.33,1.2.27,1a11.81,11.81,0,0,0,7-8.07.5.5,0,0,0-1-.27Z"/><path class="cls-8" d="M428.48,72.8a8.1,8.1,0,0,1,3-5.32.5.5,0,0,0-.69-.73,9.13,9.13,0,0,0-3.35,6,.5.5,0,1,0,1,0Z"/><path class="cls-8" d="M424.93,72.63A10.76,10.76,0,0,1,429.41,64c.52-.36,0-1.25-.48-.88a11.79,11.79,0,0,0-5,9.47c0,.65,1,.69,1,0Z"/><path class="cls-8" d="M47.65,89.67a10.46,10.46,0,0,1,3.76-7c.5-.41-.21-1.11-.71-.7a11.44,11.44,0,0,0-4.05,7.65c-.07.64.93.64,1,0Z"/><path class="cls-8" d="M43.12,89.56a13.85,13.85,0,0,1,5.54-11.22c.51-.38,0-1.25-.51-.86a14.89,14.89,0,0,0-6,12.08.5.5,0,0,0,1,0Z"/><polygon class="cls-14" points="123.63 93.24 101.88 82.78 137.35 79.02 123.63 93.24"/><polygon class="cls-35" points="137.35 79.02 110.57 68.15 135.4 58.73 137.35 79.02"/><polygon class="cls-36" points="110.57 68.15 123.63 93.24 137.35 79.02 110.57 68.15"/><path class="cls-14" d="M327.36,203.55,356,186.87a1.21,1.21,0,0,0,.43-1.66L341.67,160.9a1.2,1.2,0,0,0-2.16.24l-13.89,41A1.2,1.2,0,0,0,327.36,203.55Z"/><path class="cls-37" d="M334.14,205.6,367.53,187a1.37,1.37,0,0,0,.52-1.9l-16.48-28.35a1.39,1.39,0,0,0-2.5.22l-16.9,46.95A1.38,1.38,0,0,0,334.14,205.6Z"/><polygon class="cls-15" points="351.57 183.72 350.9 184.22 349.65 169.73 351.86 168.55 351.57 183.72"/><ellipse class="cls-15" cx="351.5" cy="187.38" rx="2.04" ry="1.15" transform="translate(0.96 376.55) rotate(-56.42)"/></g></g></svg>