<?xml version="1.0" encoding="UTF-8"?>
<svg width="24px" height="23px" viewBox="0 0 24 23" version="1.1" xmlns="http://www.w3.org/2000/svg" xmlns:xlink="http://www.w3.org/1999/xlink">
    <!-- Generator: Sketch 57.1 (83088) - https://sketch.com -->
    <title>linkedin-icon-1-logo-svg-vector</title>
    <desc>Created with Sketch.</desc>
    <g id="Page-1" stroke="none" stroke-width="1" fill="none" fill-rule="evenodd">
        <g id="version-2-copy-3" transform="translate(-885.000000, -2063.000000)" fill="#FFFFFF" fill-rule="nonzero">
            <g id="linkedin-icon-1-logo-svg-vector" transform="translate(885.000000, 2063.000000)">
                <path d="M0,2.67171717 C0,1.89729091 0.270277992,1.25840202 0.810810811,0.755050505 C1.35134363,0.251675758 2.05406178,0 2.91891892,0 C3.76834749,0 4.45559073,0.24779596 4.98069498,0.743434343 C5.5212278,1.25454545 5.79150579,1.92052323 5.79150579,2.74141414 C5.79150579,3.48484848 5.52896525,4.10436162 5.003861,4.6 C4.46332819,5.11111111 3.75289575,5.36666667 2.87258687,5.36666667 L2.84942085,5.36666667 C2,5.36666667 1.31274903,5.11111111 0.787644788,4.6 C0.262540541,4.08888889 0,3.4461202 0,2.67171717 Z M0.301158301,23 L0.301158301,7.48080808 L5.44401544,7.48080808 L5.44401544,23 L0.301158301,23 Z M8.29343629,23 L13.4362934,23 L13.4362934,14.3343434 C13.4362934,13.7922404 13.4980772,13.3740586 13.6216216,13.079798 C13.8378301,12.5531909 14.1660232,12.107897 14.6061776,11.7439394 C15.046332,11.3799586 15.5984479,11.1979798 16.2625483,11.1979798 C17.9922857,11.1979798 18.8571429,12.3673323 18.8571429,14.7060606 L18.8571429,23 L24,23 L24,14.1020202 C24,11.8097566 23.4594672,10.0712121 22.3783784,8.88636364 C21.2972896,7.70151515 19.8687336,7.10909091 18.0926641,7.10909091 C16.1003861,7.10909091 14.5482625,7.96868687 13.4362934,9.68787879 L13.4362934,9.73434343 L13.4131274,9.73434343 L13.4362934,9.68787879 L13.4362934,7.48080808 L8.29343629,7.48080808 C8.3243166,7.97642323 8.33976834,9.51749293 8.33976834,12.1040404 C8.33976834,14.6905646 8.3243166,18.3225434 8.29343629,23 Z" id="Shape"></path>
            </g>
        </g>
    </g>
</svg>