<?xml version="1.0" encoding="UTF-8"?>
<svg width="119px" height="86px" viewBox="0 0 119 86" version="1.1" xmlns="http://www.w3.org/2000/svg" xmlns:xlink="http://www.w3.org/1999/xlink">
    <!-- Generator: Sketch 50.2 (55047) - http://www.bohemiancoding.com/sketch -->
    <title>Group 17</title>
    <desc>Created with Sketch.</desc>
    <defs></defs>
    <g id="Revamp" stroke="none" stroke-width="1" fill="none" fill-rule="evenodd">
        <g id="careers-engineering-final" transform="translate(-210.000000, -1813.000000)" fill="#130D23" fill-rule="nonzero">
            <g id="Group-24" transform="translate(208.000000, 1813.000000)">
                <g id="Group-23">
                    <g id="Group-17">
                        <path d="M61,34 C51.6111593,34 44,26.3888407 44,17 C44,7.61115925 51.6111593,0 61,0 C70.3888407,0 78,7.61115925 78,17 C78,26.3888407 70.3888407,34 61,34 Z M61,30 C68.1797017,30 74,24.1797017 74,17 C74,9.82029825 68.1797017,4 61,4 C53.8202983,4 48,9.82029825 48,17 C48,24.1797017 53.8202983,30 61,30 Z" id="Oval" transform="translate(61.000000, 17.000000) rotate(-270.000000) translate(-61.000000, -17.000000) "></path>
                        <g id="Group-15" transform="translate(12.000000, 52.000000)">
                            <path d="M36,4 L36,30 L62,30 L62,4 L36,4 Z M66,0 L66,34 L32,34 L32,0 L66,0 Z" id="Rectangle-12" transform="translate(49.000000, 17.000000) rotate(-270.000000) translate(-49.000000, -17.000000) "></path>
                            <path d="M4,9 L4,25 L20,25 L20,9 L4,9 Z M24,5 L24,29 L0,29 L0,5 L24,5 Z" id="Rectangle-12-Copy-2" transform="translate(12.000000, 17.000000) rotate(-270.000000) translate(-12.000000, -17.000000) "></path>
                            <path d="M78,10 L78,26 L94,26 L94,10 L78,10 Z M98,6 L98,30 L74,30 L74,6 L98,6 Z" id="Rectangle-12-Copy" transform="translate(86.000000, 18.000000) rotate(-270.000000) translate(-86.000000, -18.000000) "></path>
                        </g>
                        <g id="Group-16" transform="translate(0.000000, 22.000000)">
                            <path d="M102.488897,-3.81412267 C103.231911,-4.6314379 104.496807,-4.69167108 105.314123,-3.94865723 C106.131438,-3.20564338 106.191671,-1.94074673 105.448657,-1.12343149 C99.4991421,5.4210351 99.4991421,10.8178267 105.306707,16.0446346 C112.823048,22.8093423 112.823048,31.0301972 105.50522,39.8115917 C104.798091,40.6601455 103.536962,40.7747936 102.688408,40.0676655 C101.839854,39.3605373 101.725206,38.0994079 102.432335,37.2508541 C108.447839,30.0322486 108.447839,24.2531035 102.630848,19.0178112 C95.1050787,12.2446192 95.1050787,4.30807741 102.488897,-3.81412267 Z" id="Path-3" transform="translate(103.968838, 18.031241) rotate(-585.000000) translate(-103.968838, -18.031241) "></path>
                            <path d="M17.4888969,-3.81412267 C18.2319108,-4.6314379 19.4968074,-4.69167108 20.3141227,-3.94865723 C21.1314379,-3.20564338 21.1916711,-1.94074673 20.4486572,-1.12343149 C14.4991421,5.4210351 14.4991421,10.8178267 20.3067065,16.0446346 C27.8230484,22.8093423 27.8230484,31.0301972 20.5052196,39.8115917 C19.7980915,40.6601455 18.5369621,40.7747936 17.6884083,40.0676655 C16.8398545,39.3605373 16.7252064,38.0994079 17.4323345,37.2508541 C23.4478391,30.0322486 23.4478391,24.2531035 17.6308476,19.0178112 C10.1050787,12.2446192 10.1050787,4.30807741 17.4888969,-3.81412267 Z" id="Path-3-Copy" transform="translate(18.968838, 18.031241) scale(-1, 1) rotate(-585.000000) translate(-18.968838, -18.031241) "></path>
                        </g>
                    </g>
                </g>
            </g>
        </g>
    </g>
</svg>