<?xml version="1.0" encoding="UTF-8"?>
<svg width="20px" height="20px" viewBox="0 0 20 20" version="1.1" xmlns="http://www.w3.org/2000/svg" xmlns:xlink="http://www.w3.org/1999/xlink">
    <!-- Generator: Sketch 63.1 (92452) - https://sketch.com -->
    <title>facebook</title>
    <desc>Created with Sketch.</desc>
    <g id="Iteration-3" stroke="none" stroke-width="1" fill="none" fill-rule="evenodd">
        <g id="Home-march-q1-final-5-Copy" transform="translate(-1028.000000, -6540.000000)" fill="#000000" fill-rule="nonzero">
            <g id="facebook" transform="translate(1028.000000, 6540.000000)">
                <path d="M10,0.04 C4.5,0.04 -4.88498131e-13,4.53 -4.88498131e-13,10.06 C-4.88498131e-13,15.06 3.66,19.21 8.44,19.96 L8.44,12.96 L5.9,12.96 L5.9,10.06 L8.44,10.06 L8.44,7.85 C8.44,5.34 9.93,3.96 12.22,3.96 C13.31,3.96 14.45,4.15 14.45,4.15 L14.45,6.62 L13.19,6.62 C11.95,6.62 11.56,7.39 11.56,8.18 L11.56,10.06 L14.34,10.06 L13.89,12.96 L11.56,12.96 L11.56,19.96 C16.4287521,19.1910733 20.0110537,14.9890844 20.0000255,10.06 C20.0000255,4.53 15.5,0.04 10,0.04 Z" id="Path"></path>
            </g>
        </g>
    </g>
</svg>