<?xml version="1.0" encoding="UTF-8" standalone="no"?>
<svg width="355px" height="290px" viewBox="0 0 355 290" version="1.1" xmlns="http://www.w3.org/2000/svg" xmlns:xlink="http://www.w3.org/1999/xlink" xmlns:sketch="http://www.bohemiancoding.com/sketch/ns">
    <!-- Generator: Sketch 3.4.4 (17249) - http://www.bohemiancoding.com/sketch -->
    <title>Page 1</title>
    <desc>Created with Sketch.</desc>
    <defs>
        <path id="path-1" d="M0,0.45 L330.741,0.45 L330.741,290 L0,290"></path>
        <path id="path-3" d="M0,0.45 L330.741,0.45 L330.741,290 L0,290"></path>
        <path id="path-5" d="M24,0.45 L354.741,0.45 L354.741,290 L24,290 L24,0.45 Z"></path>
    </defs>
    <g id="option2" stroke="none" stroke-width="1" fill="none" fill-rule="evenodd" sketch:type="MSPage">
        <g id="howitworks1" sketch:type="MSArtboardGroup" transform="translate(-245.000000, -380.000000)">
            <g id="Page-1" sketch:type="MSLayerGroup" transform="translate(245.000000, 380.000000)">
                <g id="Group-3" transform="translate(24.000000, 0.000000)">
                    <mask id="mask-2" sketch:name="Clip 2" fill="white">
                        <use xlink:href="#path-1"></use>
                    </mask>
                    <g id="Clip-2"></g>
                    <path d="M77.0894,40.2943 C76.1944,29.9113 73.3974,20.6543 65.8134,13.0703 C59.1354,6.3933 48.1794,1.3643 38.5894,1.7943 C28.6324,2.2403 18.3054,5.5113 11.3654,13.0703 C4.7994,20.2233 -0.7786,30.2303 0.0894,40.2943 C5.6884,105.2253 7.8014,170.4223 6.4174,235.5793 C5.9894,255.7273 24.4314,274.9973 44.9174,274.0793 C66.1424,273.1293 82.9584,257.1673 83.4174,235.5793 C84.8014,170.4223 82.6884,105.2253 77.0894,40.2943" id="Fill-1" fill="#E1F8FF" sketch:type="MSShapeGroup" mask="url(#mask-2)"></path>
                </g>
                <path d="M248.899362,129.311 C249.340736,109.166 220.05864,89.889 186.8815,90.811 C157.696055,91.623 133.261017,103.522 126.642019,120.54 C123.194793,120.493 119.739512,120.601 116.318059,120.869 C105.361033,109.225 85.0884405,100.827 62.8312766,101.446 C29.0371795,102.385 1.05504201,118.36 0.813413974,139.946 C0.632998373,156.183 1.49319418,172.418 3.54058908,188.607 C4.52320976,196.376 5.76356701,204.133 7.26488254,211.87 C8.4633576,218.049 9.00621526,224.423 11.6673454,230.409 C18.0865969,244.857 36.3069617,255.207 59.0216079,259.491 C72.2982631,261.995 86.9135376,260.823 99.4024853,257.551 C103.814613,256.395 108.336279,254.889 112.559937,253.069 C120.689915,259.819 132.223627,264.9 145.662978,267.197 C165.168804,270.532 192.612917,267.68 206.003942,257.296 C221.129857,245.566 231.371664,234.875 239.448484,220.56 C245.339376,210.123 247.547856,198.883 249.352012,187.953 C252.570498,168.457 248.470875,148.844 248.899362,129.311" id="Fill-4" opacity="0.5" fill="#E1F8FF" sketch:type="MSShapeGroup"></path>
                <g id="Group-8" transform="translate(24.000000, 0.000000)">
                    <mask id="mask-4" sketch:name="Clip 7" fill="white">
                        <use xlink:href="#path-3"></use>
                    </mask>
                    <g id="Clip-7"></g>
                    <path d="M329.2684,165.2046 C335.2874,145.9816 322.1674,122.3526 302.3784,117.8456 C297.6014,116.7576 292.8774,116.5026 288.3504,116.9886 C287.4834,90.9966 286.9624,64.9916 286.7944,38.9826 C286.6644,18.8486 269.1794,-0.4524 248.2944,0.4826 C227.5464,1.4116 209.6554,17.4016 209.7944,38.9826 C210.2524,109.8986 213.3094,180.7816 218.9574,251.4746 C219.7844,261.8216 222.6944,271.1586 230.2344,278.6976 C236.9114,285.3756 247.8674,290.4036 257.4574,289.9746 C272.6274,289.2946 285.9824,280.7086 292.2194,267.8176 C299.0914,266.2226 305.5924,263.0406 310.4404,257.7606 C317.0794,250.5276 322.4104,240.6846 321.7164,230.5366 C320.8914,218.4606 321.1164,206.4006 322.3714,194.3826 C323.9814,184.5026 326.2724,174.7746 329.2684,165.2046" id="Fill-6" opacity="0.5" fill="#E1F8FF" sketch:type="MSShapeGroup" mask="url(#mask-4)"></path>
                </g>
                <path d="M162.8847,104.9327 L193.0767,104.9327 L188.6427,97.9347 C188.0477,96.9967 187.0157,96.4287 185.9057,96.4287 L170.1167,96.4287 C169.0137,96.4287 167.9857,96.9897 167.3897,97.9177 L162.8847,104.9327 Z" id="Fill-9" fill="#27AAE1" sketch:type="MSShapeGroup"></path>
                <path d="M165.8849,103.2936 L190.0969,103.2936 L187.2579,98.8126 C186.9639,98.3466 186.4579,98.0676 185.9059,98.0676 L170.1169,98.0676 C169.5689,98.0676 169.0639,98.3436 168.7679,98.8046 L165.8849,103.2936 Z M193.0759,106.5716 L162.8839,106.5716 C162.2849,106.5716 161.7329,106.2446 161.4449,105.7186 C161.1589,105.1916 161.1809,104.5516 161.5039,104.0476 L166.0099,97.0326 C166.9139,95.6276 168.4489,94.7906 170.1169,94.7906 L185.9059,94.7906 C187.5879,94.7906 189.1279,95.6386 190.0269,97.0576 L194.4599,104.0556 C194.7809,104.5596 194.7999,105.1996 194.5119,105.7236 C194.2239,106.2466 193.6729,106.5716 193.0759,106.5716 L193.0759,106.5716 Z" id="Fill-11" fill="#415572" sketch:type="MSShapeGroup"></path>
                <path d="M162.8847,104.9327 L177.9837,120.4177 L193.0767,104.9327 L162.8847,104.9327 Z" id="Fill-13" fill="#53D2F9" sketch:type="MSShapeGroup"></path>
                <path d="M166.7716,106.5715 L177.9846,118.0695 L189.1896,106.5715 L166.7716,106.5715 Z M177.9846,122.0565 C177.5426,122.0565 177.1206,121.8785 176.8116,121.5615 L161.7106,106.0765 C161.2496,105.6045 161.1166,104.9035 161.3726,104.2955 C161.6296,103.6885 162.2246,103.2935 162.8836,103.2935 L193.0756,103.2935 C193.7356,103.2935 194.3296,103.6885 194.5866,104.2955 C194.8426,104.9025 194.7096,105.6045 194.2496,106.0765 L179.1576,121.5615 C178.8506,121.8775 178.4266,122.0565 177.9846,122.0565 L177.9846,122.0565 Z" id="Fill-15" fill="#415572" sketch:type="MSShapeGroup"></path>
                <path d="M177.9799,106.1617 C177.6889,106.1617 177.3959,106.0577 177.1639,105.8507 L167.9319,97.6577 C167.4249,97.2087 167.3779,96.4307 167.8299,95.9237 C168.2779,95.4127 169.0559,95.3697 169.5649,95.8207 L177.9989,103.3067 L186.7299,95.9267 C187.2499,95.4927 188.0259,95.5547 188.4629,96.0717 C188.8999,96.5907 188.8359,97.3667 188.3179,97.8057 L178.7739,105.8717 C178.5429,106.0657 178.2619,106.1617 177.9799,106.1617" id="Fill-17" fill="#415572" sketch:type="MSShapeGroup"></path>
                <path d="M177.9799,120.4895 C177.3009,120.4895 176.7509,119.9385 176.7509,119.2605 L176.7509,104.9325 C176.7509,104.2535 177.3009,103.7035 177.9799,103.7035 C178.6589,103.7035 179.2089,104.2535 179.2089,104.9325 L179.2089,119.2605 C179.2089,119.9385 178.6589,120.4895 177.9799,120.4895" id="Fill-19" fill="#415572" sketch:type="MSShapeGroup"></path>
                <path d="M195.0026,84.0916 L188.1426,90.1066" id="Fill-21" fill="#EDEBF4" sketch:type="MSShapeGroup"></path>
                <path d="M188.1432,91.746 C187.6882,91.746 187.2342,91.557 186.9112,91.187 C186.3142,90.507 186.3822,89.472 187.0632,88.875 L193.9222,82.86 C194.6012,82.266 195.6402,82.332 196.2352,83.012 C196.8322,83.692 196.7632,84.728 196.0832,85.325 L189.2232,91.339 C188.9132,91.612 188.5272,91.746 188.1432,91.746" id="Fill-23" fill="#415572" sketch:type="MSShapeGroup"></path>
                <path d="M178.0593,76.3995 L178.2133,84.8865" id="Fill-25" fill="#EDEBF4" sketch:type="MSShapeGroup"></path>
                <path d="M178.2136,86.5251 C177.3226,86.5251 176.5906,85.8111 176.5746,84.9161 L176.4206,76.4311 C176.4046,75.5251 177.1256,74.7771 178.0296,74.7611 C179.0246,74.7291 179.6826,75.4651 179.6986,76.3701 L179.8526,84.8561 C179.8686,85.7621 179.1486,86.5091 178.2436,86.5251 L178.2136,86.5251 Z" id="Fill-27" fill="#415572" sketch:type="MSShapeGroup"></path>
                <path d="M160.6755,84.6859 L166.9155,89.5129" id="Fill-29" fill="#EDEBF4" sketch:type="MSShapeGroup"></path>
                <path d="M166.914,91.1522 C166.563,91.1522 166.211,91.0402 165.912,90.8092 L159.672,85.9822 C158.956,85.4292 158.825,84.3992 159.379,83.6822 C159.936,82.9702 160.963,82.8412 161.679,83.3902 L167.919,88.2172 C168.635,88.7702 168.766,89.8002 168.212,90.5172 C167.889,90.9332 167.404,91.1522 166.914,91.1522" id="Fill-31" fill="#415572" sketch:type="MSShapeGroup"></path>
                <path d="M30.5603,244.3176 C30.0403,244.3176 29.5583,243.9866 29.3903,243.4646 C29.1823,242.8176 29.5373,242.1266 30.1843,241.9186 L55.8643,233.6566 C56.5033,233.4506 57.2003,233.8026 57.4103,234.4506 C57.6183,235.0966 57.2633,235.7886 56.6163,235.9966 L30.9363,244.2586 C30.8113,244.2986 30.6853,244.3176 30.5603,244.3176" id="Fill-33" fill="#D1D3D4" sketch:type="MSShapeGroup"></path>
                <path d="M51.5798,247.6851 C51.0598,247.6851 50.5778,247.3541 50.4098,246.8321 C50.2018,246.1851 50.5568,245.4941 51.2038,245.2861 L76.8838,237.0241 C77.5238,236.8161 78.2198,237.1711 78.4298,237.8181 C78.6378,238.4641 78.2828,239.1561 77.6358,239.3641 L51.9558,247.6261 C51.8308,247.6661 51.7048,247.6851 51.5798,247.6851" id="Fill-35" fill="#D1D3D4" sketch:type="MSShapeGroup"></path>
                <path d="M84.936,243.0884 C84.416,243.0884 83.934,242.7574 83.766,242.2354 C83.558,241.5884 83.913,240.8974 84.56,240.6894 L110.24,232.4254 C110.882,232.2174 111.578,232.5734 111.786,233.2194 C111.994,233.8664 111.639,234.5574 110.992,234.7654 L85.312,243.0294 C85.187,243.0694 85.061,243.0884 84.936,243.0884" id="Fill-37" fill="#D1D3D4" sketch:type="MSShapeGroup"></path>
                <path d="M97.7769,248.4485 C97.2569,248.4485 96.7749,248.1175 96.6069,247.5955 C96.3989,246.9505 96.7539,246.2575 97.4009,246.0495 L106.4119,243.1495 C107.0539,242.9425 107.7499,243.2945 107.9579,243.9435 C108.1659,244.5885 107.8109,245.2815 107.1639,245.4895 L98.1529,248.3895 C98.0279,248.4295 97.9019,248.4485 97.7769,248.4485" id="Fill-39" fill="#D1D3D4" sketch:type="MSShapeGroup"></path>
                <path d="M114.0956,243.1973 C113.5756,243.1973 113.0936,242.8663 112.9256,242.3443 C112.7176,241.6973 113.0726,241.0063 113.7196,240.7983 L123.0796,237.7873 C123.7246,237.5763 124.4156,237.9333 124.6256,238.5813 C124.8336,239.2283 124.4786,239.9193 123.8316,240.1273 L114.4716,243.1383 C114.3466,243.1783 114.2206,243.1973 114.0956,243.1973" id="Fill-41" fill="#D1D3D4" sketch:type="MSShapeGroup"></path>
                <path d="M217.6069,244.3176 C217.0869,244.3176 216.6049,243.9866 216.4369,243.4646 C216.2289,242.8176 216.5839,242.1266 217.2309,241.9186 L242.9109,233.6566 C243.5539,233.4506 244.2489,233.8026 244.4569,234.4506 C244.6649,235.0966 244.3099,235.7886 243.6629,235.9966 L217.9829,244.2586 C217.8579,244.2986 217.7319,244.3176 217.6069,244.3176" id="Fill-43" fill="#D1D3D4" sketch:type="MSShapeGroup"></path>
                <path d="M238.628,247.6851 C238.108,247.6851 237.626,247.3541 237.458,246.8321 C237.25,246.1851 237.605,245.4941 238.252,245.2861 L263.93,237.0241 C264.575,236.8161 265.267,237.1711 265.477,237.8181 C265.685,238.4641 265.329,239.1561 264.683,239.3641 L239.004,247.6261 C238.879,247.6661 238.753,247.6851 238.628,247.6851" id="Fill-45" fill="#D1D3D4" sketch:type="MSShapeGroup"></path>
                <path d="M271.9842,243.0884 C271.4642,243.0884 270.9822,242.7574 270.8142,242.2354 C270.6062,241.5884 270.9612,240.8974 271.6082,240.6894 L297.2882,232.4254 C297.9332,232.2174 298.6242,232.5734 298.8342,233.2194 C299.0422,233.8664 298.6872,234.5574 298.0402,234.7654 L272.3602,243.0294 C272.2352,243.0694 272.1092,243.0884 271.9842,243.0884" id="Fill-47" fill="#D1D3D4" sketch:type="MSShapeGroup"></path>
                <path d="M284.8235,248.4485 C284.3035,248.4485 283.8215,248.1175 283.6535,247.5955 C283.4455,246.9485 283.8005,246.2575 284.4475,246.0495 L293.4595,243.1495 C294.1045,242.9425 294.7965,243.2945 295.0055,243.9435 C295.2145,244.5885 294.8585,245.2815 294.2125,245.4895 L285.1995,248.3895 C285.0745,248.4295 284.9485,248.4485 284.8235,248.4485" id="Fill-49" fill="#D1D3D4" sketch:type="MSShapeGroup"></path>
                <path d="M301.1422,243.1973 C300.6222,243.1973 300.1402,242.8663 299.9722,242.3443 C299.7642,241.6973 300.1192,241.0063 300.7662,240.7983 L310.1272,237.7873 C310.7672,237.5763 311.4652,237.9333 311.6732,238.5813 C311.8812,239.2283 311.5262,239.9193 310.8792,240.1273 L301.5182,243.1383 C301.3932,243.1783 301.2672,243.1973 301.1422,243.1973" id="Fill-51" fill="#D1D3D4" sketch:type="MSShapeGroup"></path>
                <path d="M219.9052,119.3755 C211.9342,119.3755 202.6482,116.7535 192.9782,108.6425 C191.8672,108.1515 185.3242,105.5265 180.9052,109.6925 C180.2462,110.3155 179.2102,110.2835 178.5892,109.6235 C177.9682,108.9655 177.9992,107.9285 178.6582,107.3075 C185.1522,101.1875 194.2102,105.5905 194.5952,105.7795 C194.7112,105.8385 194.8222,105.9105 194.9232,105.9955 C220.0492,127.2245 241.6252,108.8855 242.5332,108.0965 C243.2162,107.4965 244.2472,107.5685 244.8462,108.2505 C245.4412,108.9305 245.3742,109.9645 244.6952,110.5595 C244.5382,110.6975 234.3992,119.3755 219.9052,119.3755" id="Fill-53" fill="#415572" sketch:type="MSShapeGroup"></path>
                <path d="M284.8506,241.2436 C284.8506,217.3096 282.8916,169.2736 280.4756,169.2736 C278.0586,169.2736 276.0996,217.3096 276.0996,241.2436" id="Fill-55" fill="#415572" sketch:type="MSShapeGroup"></path>
                <path d="M284.8506,242.8819 C283.9446,242.8819 283.2116,242.1489 283.2116,241.2429 C283.2116,220.6129 281.9196,189.8009 280.4746,176.5709 C279.0296,189.8009 277.7376,220.6129 277.7376,241.2429 C277.7376,242.1489 277.0046,242.8819 276.0986,242.8819 C275.1936,242.8819 274.4606,242.1489 274.4606,241.2429 C274.4606,228.8469 274.9756,210.7439 275.7436,196.1969 C277.2516,167.6339 278.6036,167.6339 280.4746,167.6339 C282.3456,167.6339 283.6986,167.6339 285.2056,196.1969 C285.9746,210.7439 286.4896,228.8469 286.4896,241.2429 C286.4896,242.1489 285.7566,242.8819 284.8506,242.8819" id="Fill-57" fill="#415572" sketch:type="MSShapeGroup"></path>
                <path d="M254.8613,241.2436 C254.8613,217.3096 252.9023,169.2736 250.4863,169.2736 C248.0693,169.2736 246.1103,217.3096 246.1103,241.2436" id="Fill-59" fill="#415572" sketch:type="MSShapeGroup"></path>
                <path d="M254.8619,242.8819 C253.9559,242.8819 253.2229,242.1489 253.2229,241.2429 C253.2229,220.6129 251.9309,189.8009 250.4859,176.5709 C249.0409,189.8009 247.7489,220.6129 247.7489,241.2429 C247.7489,242.1489 247.0159,242.8819 246.1099,242.8819 C245.2049,242.8819 244.4709,242.1489 244.4709,241.2429 C244.4709,228.8469 244.9869,210.7439 245.7549,196.1969 C247.2629,167.6339 248.6149,167.6339 250.4859,167.6339 C252.3569,167.6339 253.7099,167.6339 255.2169,196.1969 C255.9859,210.7439 256.5009,228.8469 256.5009,241.2429 C256.5009,242.1489 255.7679,242.8819 254.8619,242.8819" id="Fill-61" fill="#415572" sketch:type="MSShapeGroup"></path>
                <path d="M239.6035,54.5862 L239.6035,77.9962 C239.6035,91.4102 250.5795,102.3862 263.9935,102.3862 C277.4085,102.3862 288.3835,91.4102 288.3835,77.9962 L288.3835,54.5862 C288.3835,41.1712 277.4085,30.1962 263.9935,30.1962 C259.3335,30.1962 254.9685,31.5202 251.2545,33.8112" id="Fill-63" fill="#FFFFFF" sketch:type="MSShapeGroup"></path>
                <path d="M263.9944,104.0251 C249.6424,104.0251 237.9654,92.3481 237.9654,77.9961 L237.9654,54.5871 C237.9654,53.6811 238.6984,52.9481 239.6044,52.9481 C240.5104,52.9481 241.2434,53.6811 241.2434,54.5871 L241.2434,77.9961 C241.2434,90.5411 251.4494,100.7471 263.9944,100.7471 C276.5394,100.7471 286.7454,90.5411 286.7454,77.9961 L286.7454,54.5871 C286.7454,42.0421 276.5394,31.8361 263.9944,31.8361 C259.7964,31.8361 255.6894,33.0011 252.1154,35.2061 C251.3394,35.6801 250.3324,35.4371 249.8584,34.6721 C249.3854,33.9001 249.6234,32.8901 250.3934,32.4151 C254.4854,29.8931 259.1884,28.5581 263.9944,28.5581 C278.3464,28.5581 290.0234,40.2351 290.0234,54.5871 L290.0234,77.9961 C290.0234,92.3481 278.3464,104.0251 263.9944,104.0251" id="Fill-65" fill="#415572" sketch:type="MSShapeGroup"></path>
                <path d="M258.6551,56.69 C251.7841,56.69 248.9081,54.02 247.7891,52.386 C241.5981,52.783 236.8771,51.533 233.7251,48.659 C230.0241,45.285 229.9801,40.935 229.9801,40.751 C229.9801,40.218 230.2401,39.718 230.6751,39.411 C231.1121,39.107 231.6691,39.033 232.1701,39.208 C239.9831,41.997 248.6311,33.652 248.7171,33.569 C249.3661,32.937 250.4031,32.951 251.0351,33.595 C251.6671,34.241 251.6561,35.28 251.0091,35.912 C250.6351,36.28 242.5061,44.12 233.7211,42.938 C234.0941,43.96 234.7661,45.187 235.9771,46.277 C238.6051,48.639 242.8391,49.573 248.5641,49.036 C249.2921,48.953 250.0521,49.443 250.2801,50.184 C250.2811,50.182 251.8741,54.145 261.1281,53.292 C267.5151,52.706 269.5781,47.654 269.6631,47.439 C269.9931,46.602 270.9371,46.178 271.7821,46.508 C272.6231,46.834 273.0441,47.772 272.7231,48.615 C272.6111,48.907 269.9001,55.779 261.4291,56.557 C260.4381,56.648 259.5161,56.69 258.6551,56.69" id="Fill-67" fill="#415572" sketch:type="MSShapeGroup"></path>
                <path d="M251.1936,85.0654 C252.4816,89.2624 256.8976,92.3394 262.0206,92.3394 C267.1446,92.3394 271.5596,89.2624 272.8486,85.0654 L251.1936,85.0654 Z M262.0206,95.6174 C254.5116,95.6174 248.1686,90.3244 247.5816,83.5694 C247.5416,83.1114 247.6946,82.6584 248.0056,82.3194 C248.3156,81.9794 248.7546,81.7874 249.2136,81.7874 L274.8286,81.7874 C275.2876,81.7874 275.7266,81.9794 276.0366,82.3194 C276.3476,82.6584 276.5006,83.1114 276.4606,83.5694 C275.8736,90.3244 269.5306,95.6174 262.0206,95.6174 L262.0206,95.6174 Z" id="Fill-69" fill="#415572" sketch:type="MSShapeGroup"></path>
                <path d="M242.9145,90.5529 C247.0315,96.3289 254.6355,102.3859 263.9935,102.3859 C273.3405,102.3859 281.5905,96.3129 285.7125,90.5529 C310.0355,107.9749 301.7975,158.8089 298.5465,174.5989 C297.9765,177.3669 295.5455,179.3339 292.7195,179.3339 L237.0095,179.3339 C233.9275,179.3339 231.3555,177.0049 231.0825,173.9349 C229.5385,156.5699 226.1935,102.5809 242.9145,90.5529" id="Fill-71" fill="#A9DFF4" sketch:type="MSShapeGroup"></path>
                <path d="M242.6325,92.8935 C227.9735,106.2945 231.3055,157.9335 232.7155,173.7895 C232.9125,176.0155 234.7595,177.6945 237.0095,177.6945 L292.7185,177.6945 C294.7565,177.6945 296.5325,176.2545 296.9405,174.2685 C299.9835,159.4855 308.0215,110.5995 286.0195,92.8455 C281.3115,98.6075 273.0325,104.0255 263.9945,104.0255 C254.8045,104.0255 247.1455,98.5065 242.6325,92.8935 M292.7185,180.9725 L237.0095,180.9725 C233.0485,180.9725 229.7995,178.0105 229.4505,174.0795 C227.5445,152.6425 224.9455,101.4595 241.9575,89.2235 C242.3125,88.9695 242.7625,88.8695 243.1815,88.9375 C243.6125,89.0075 243.9965,89.2475 244.2495,89.6025 C248.0885,94.9905 255.2925,100.7475 263.9945,100.7475 C272.5665,100.7475 280.4095,95.1485 284.3785,89.5995 C284.6315,89.2455 285.0155,89.0075 285.4445,88.9375 C285.8675,88.8655 286.3115,88.9655 286.6655,89.2215 C311.8385,107.2515 303.3525,159.3815 300.1515,174.9295 C299.4315,178.4315 296.3035,180.9725 292.7185,180.9725" id="Fill-73" fill="#415572" sketch:type="MSShapeGroup"></path>
                <path d="M266.9388,110.4296 L260.8188,105.6116 C259.1898,104.3296 257.7838,103.7886 256.0198,104.8776 L251.9998,107.2476 C249.8778,108.5586 247.1348,108.0726 245.5538,106.1436 C243.3078,103.4026 240.7658,99.2136 241.4608,94.8546 C241.5518,94.2836 241.8698,93.7626 242.2878,93.3626 L243.9058,91.8136 C248.1848,97.1766 255.3168,102.3856 263.9938,102.3856 C272.9578,102.3856 280.8728,96.8006 285.1448,91.2616 L285.7128,92.5576 C285.7128,92.5576 282.7848,107.1456 269.3808,110.9466 C268.5438,111.1836 267.6228,110.9676 266.9388,110.4296" id="Fill-75" fill="#FFFFFF" sketch:type="MSShapeGroup"></path>
                <path d="M243.7816,94.2011 L243.4196,94.5471 C243.2356,94.7231 243.1076,94.9361 243.0786,95.1131 C242.4816,98.8661 244.7836,102.6181 246.8206,105.1051 C247.8996,106.4191 249.7166,106.7311 251.1396,105.8531 L255.1886,103.4661 C255.6606,103.1751 256.1166,102.9701 256.5586,102.8371 C250.5646,100.8821 246.2176,96.9251 243.7816,94.2011 L243.7816,94.2011 Z M267.9526,109.1421 C268.2406,109.3661 268.6166,109.4571 268.9306,109.3691 C276.9666,107.0911 280.9776,100.4911 282.7936,96.1781 C278.1956,100.3361 271.5246,104.0251 263.9926,104.0251 C263.0386,104.0251 262.1126,103.9691 261.2146,103.8631 C261.4286,104.0121 261.6356,104.1671 261.8326,104.3231 L267.9526,109.1421 Z M268.6776,112.6821 C267.7026,112.6821 266.7266,112.3491 265.9266,111.7191 L259.8056,106.8991 C258.3146,105.7261 257.7236,105.7531 256.8816,106.2721 L252.8326,108.6601 C250.0686,110.3691 246.3826,109.7371 244.2856,107.1831 C241.8226,104.1751 239.0526,99.5511 239.8426,94.5981 C239.9836,93.7111 240.4496,92.8531 241.1536,92.1801 L242.7736,90.6291 C243.1046,90.3101 243.5596,90.1581 244.0166,90.1771 C244.4766,90.2091 244.9006,90.4321 245.1886,90.7901 C247.5746,93.7851 254.1886,100.7471 263.9926,100.7471 C272.6756,100.7471 280.1146,95.0971 283.8476,90.2611 C284.1996,89.8001 284.7516,89.5441 285.3456,89.6351 C285.9196,89.7051 286.4146,90.0731 286.6466,90.6031 L287.2146,91.8991 C287.3486,92.2081 287.3856,92.5491 287.3206,92.8811 C287.1926,93.5161 284.0316,108.4971 269.8266,112.5221 C269.4526,112.6291 269.0646,112.6821 268.6776,112.6821 L268.6776,112.6821 Z" id="Fill-77" fill="#415572" sketch:type="MSShapeGroup"></path>
                <path d="M315.3596,166.685 C314.8396,166.685 314.3276,166.437 314.0086,165.976 C309.5896,159.568 310.7856,152.146 310.8386,151.834 C315.4686,123.999 300.5566,103.201 300.4056,102.994 C299.8716,102.265 300.0296,101.239 300.7596,100.704 C301.4896,100.171 302.5126,100.326 303.0496,101.056 C303.6996,101.944 318.9366,123.129 314.0716,152.376 C314.0596,152.442 313.0616,158.828 316.7076,164.116 C317.2206,164.86 317.0336,165.882 316.2876,166.395 C316.0046,166.591 315.6796,166.685 315.3596,166.685" id="Fill-79" fill="#415572" sketch:type="MSShapeGroup"></path>
                <path d="M279.5654,239.3018 C279.5654,239.3018 272.0464,239.8658 269.4714,241.4898 C266.8974,243.1128 280.4474,241.7688 280.4474,241.7688" id="Fill-81" fill="#415572" sketch:type="MSShapeGroup"></path>
                <path d="M272.109,243.9495 C268.125,243.9495 267.877,243.2245 267.604,242.4255 C267.492,242.0995 267.231,240.9645 268.597,240.1035 C271.435,238.3145 278.631,237.7285 279.443,237.6675 C280.353,237.6215 281.133,238.2775 281.2,239.1785 C281.229,239.5545 281.128,239.9095 280.934,240.2025 C281.544,240.3935 282.011,240.9305 282.079,241.6065 C282.168,242.5075 281.51,243.3095 280.609,243.3985 C276.688,243.7875 273.983,243.9495 272.109,243.9495" id="Fill-83" fill="#415572" sketch:type="MSShapeGroup"></path>
                <path d="M249.586,238.5384 C249.586,238.5384 242.067,239.1024 239.492,240.7264 C236.918,242.3494 250.468,241.0054 250.468,241.0054" id="Fill-85" fill="#415572" sketch:type="MSShapeGroup"></path>
                <path d="M242.1331,243.186 C238.1461,243.186 237.8981,242.461 237.6241,241.662 C237.5121,241.334 237.2511,240.201 238.6181,239.34 C241.4561,237.551 248.6521,236.965 249.4631,236.904 C250.3851,236.834 251.1551,237.512 251.2211,238.415 C251.2491,238.791 251.1471,239.148 250.9551,239.441 C251.5631,239.631 252.0311,240.169 252.0981,240.844 C252.1871,241.746 251.5301,242.547 250.6281,242.637 C246.7091,243.026 244.0071,243.186 242.1331,243.186" id="Fill-87" fill="#415572" sketch:type="MSShapeGroup"></path>
                <path d="M254.0284,106.052 L255.7934,111.042 L259.3814,111.042 L262.0214,107.336 L258.0244,104.307 L254.0284,106.052 Z" id="Fill-89" fill="#00A79D" sketch:type="MSShapeGroup"></path>
                <path d="M256.9522,109.4028 L258.5352,109.4028 L259.7632,107.6808 L257.8002,106.1938 L256.0812,106.9428 L256.9522,109.4028 Z M259.3802,112.6808 L255.7932,112.6808 C255.0992,112.6808 254.4792,112.2438 254.2492,111.5878 L252.4832,106.5968 C252.1952,105.7868 252.5842,104.8928 253.3722,104.5498 L257.3682,102.8058 C257.9122,102.5658 258.5412,102.6438 259.0152,103.0008 L263.0122,106.0308 C263.7172,106.5668 263.8692,107.5658 263.3562,108.2868 L260.7152,111.9928 C260.4082,112.4248 259.9102,112.6808 259.3802,112.6808 L259.3802,112.6808 Z" id="Fill-91" fill="#415572" sketch:type="MSShapeGroup"></path>
                <path d="M255.793,111.0422 C255.793,111.0422 251.853,133.2542 269.863,134.2392 L276.617,129.3142 L273.1,121.8572 C273.1,121.8572 261.984,123.5842 259.381,111.0422 L255.793,111.0422 Z" id="Fill-93" fill="#00A79D" sketch:type="MSShapeGroup"></path>
                <path d="M257.2355,112.6806 C256.9285,115.7516 256.6405,123.3546 260.4905,128.2026 C262.5315,130.7716 265.5195,132.2356 269.3805,132.5636 L274.5575,128.7886 L272.0895,123.5596 C268.9845,123.5866 260.8045,122.7256 258.0865,112.6806 L257.2355,112.6806 Z M269.8635,135.8786 C269.8335,135.8786 269.8045,135.8766 269.7735,135.8756 C264.6525,135.5946 260.6635,133.6966 257.9155,130.2306 C252.1055,122.9016 254.0925,111.2486 254.1805,110.7556 C254.3175,109.9726 254.9975,109.4026 255.7935,109.4026 L259.3805,109.4026 C260.1565,109.4026 260.8275,109.9486 260.9855,110.7086 C263.2305,121.5236 272.4655,120.2946 272.8545,120.2386 C273.5625,120.1226 274.2725,120.5056 274.5815,121.1586 L278.0995,128.6156 C278.4355,129.3256 278.2185,130.1756 277.5825,130.6386 L270.8285,135.5626 C270.5485,135.7676 270.2095,135.8786 269.8635,135.8786 L269.8635,135.8786 Z" id="Fill-95" fill="#415572" sketch:type="MSShapeGroup"></path>
                <path d="M288.384,67.8912 C288.384,67.8912 292.678,62.3842 295.536,64.4082 C300.453,67.8912 288.384,77.1102 288.384,77.1102 L288.384,67.8912 Z" id="Fill-97" fill="#FFFFFF" sketch:type="MSShapeGroup"></path>
                <path d="M290.0235,68.4794 L290.0235,73.5834 C292.6215,71.1874 295.1055,68.2694 295.0745,66.5714 C295.0685,66.2784 294.9835,66.0274 294.5885,65.7474 C293.6645,65.0944 291.4365,66.8374 290.0235,68.4794 M288.3845,78.7494 C288.1365,78.7494 287.8885,78.6934 287.6575,78.5804 C287.0995,78.3034 286.7455,77.7354 286.7455,77.1114 L286.7455,67.8924 C286.7455,67.5274 286.8675,67.1714 287.0915,66.8834 C287.6325,66.1924 292.4655,60.2194 296.4835,63.0724 C297.6805,63.9194 298.3265,65.1104 298.3505,66.5124 C298.4375,71.2514 290.8925,77.2564 289.3805,78.4134 C289.0885,78.6364 288.7365,78.7494 288.3845,78.7494" id="Fill-99" fill="#415572" sketch:type="MSShapeGroup"></path>
                <path d="M158.9291,119.2507 C153.7911,119.2527 149.2721,115.8047 147.5571,114.3167 C113.7961,123.3547 100.4461,94.8607 100.3151,94.5707 C99.9421,93.7467 100.3071,92.7767 101.1301,92.4037 C101.9641,92.0307 102.9271,92.3937 103.3001,93.2157 C103.8011,94.3097 115.8911,119.9137 147.5481,110.9187 C148.1191,110.7557 148.7311,110.9167 149.1501,111.3317 C149.2221,111.4037 156.5631,118.5497 162.8211,114.9117 C163.6021,114.4557 164.6081,114.7197 165.0621,115.5037 C165.5171,116.2867 165.2531,117.2897 164.4701,117.7447 C162.6121,118.8267 160.7311,119.2507 158.9291,119.2507" id="Fill-101" fill="#415572" sketch:type="MSShapeGroup"></path>
                <path d="M70.9995,171.4153 C70.9995,194.6473 69.0975,241.2743 66.7525,241.2743 C64.4065,241.2743 62.5055,194.6473 62.5055,171.4153" id="Fill-103" fill="#415572" sketch:type="MSShapeGroup"></path>
                <path d="M66.7526,242.914 C64.9106,242.914 63.5786,242.914 62.1126,215.144 C61.3666,201.022 60.8656,183.45 60.8656,171.416 C60.8656,170.51 61.5986,169.777 62.5046,169.777 C63.4106,169.777 64.1436,170.51 64.1436,171.416 C64.1436,191.198 65.3696,220.672 66.7526,233.741 C68.1356,220.672 69.3596,191.198 69.3596,171.416 C69.3596,170.51 70.0926,169.777 70.9986,169.777 C71.9046,169.777 72.6376,170.51 72.6376,171.416 C72.6376,183.449 72.1366,201.021 71.3906,215.144 C69.9266,242.914 68.5946,242.914 66.7526,242.914" id="Fill-105" fill="#415572" sketch:type="MSShapeGroup"></path>
                <path d="M100.1092,171.4153 C100.1092,194.6473 98.2072,241.2743 95.8622,241.2743 C93.5162,241.2743 91.6152,194.6473 91.6152,171.4153" id="Fill-107" fill="#415572" sketch:type="MSShapeGroup"></path>
                <path d="M95.8627,242.914 C94.0207,242.914 92.6887,242.914 91.2227,215.144 C90.4767,201.022 89.9757,183.45 89.9757,171.416 C89.9757,170.51 90.7087,169.777 91.6147,169.777 C92.5207,169.777 93.2537,170.51 93.2537,171.416 C93.2537,191.198 94.4797,220.672 95.8627,233.741 C97.2457,220.672 98.4697,191.198 98.4697,171.416 C98.4697,170.51 99.2027,169.777 100.1087,169.777 C101.0147,169.777 101.7477,170.51 101.7477,171.416 C101.7477,183.449 101.2467,201.021 100.5007,215.144 C99.0367,242.914 97.7047,242.914 95.8627,242.914" id="Fill-109" fill="#415572" sketch:type="MSShapeGroup"></path>
                <path d="M60.966,87.8468 C60.966,87.8468 55.029,90.4638 53.689,99.4378 C52.337,108.4888 56.383,115.1988 56.35,128.5288 C56.316,142.2548 47.199,153.5228 49.893,181.1808 L111.27,181.1808 C111.27,181.1808 110.578,153.4788 104.989,136.7238 C93.124,101.1518 113.928,114.9398 98.195,87.0988 L60.966,87.8468 Z" id="Fill-111" fill="#FBB040" sketch:type="MSShapeGroup"></path>
                <path d="M51.3893,179.5418 L109.5713,179.5418 C109.3133,173.3178 108.0983,151.2258 103.4343,137.2418 C97.3623,119.0358 99.6413,113.2068 101.4743,108.5238 C103.0873,104.3978 104.2633,101.3918 97.2453,88.7578 L61.3763,89.4778 C60.3043,90.0778 56.3473,92.7348 55.3103,99.6798 C54.6433,104.1418 55.3893,108.1078 56.2533,112.6998 C57.0743,117.0688 58.0063,122.0208 57.9893,128.5318 C57.9753,133.8988 56.6713,138.7478 55.1613,144.3658 C52.7543,153.3158 50.0353,163.4258 51.3893,179.5418 M111.2693,182.8198 L49.8933,182.8198 C49.0493,182.8198 48.3433,182.1798 48.2623,181.3388 C46.5493,163.7638 49.5693,152.5368 51.9963,143.5148 C53.4463,138.1188 54.6993,133.4618 54.7123,128.5238 C54.7263,122.3218 53.8273,117.5318 53.0313,113.3048 C52.1123,108.4218 51.3203,104.2038 52.0683,99.1958 C53.5243,89.4408 60.0293,86.4688 60.3053,86.3478 C60.5043,86.2598 60.7173,86.2128 60.9333,86.2078 L98.1613,85.4608 C98.7983,85.4868 99.3243,85.7678 99.6203,86.2928 C107.5333,100.2928 106.6393,104.3148 104.5263,109.7178 C102.8873,113.9078 100.8463,119.1258 106.5433,136.2048 C112.1463,153.0008 112.8793,179.9978 112.9083,181.1388 C112.9193,181.5808 112.7513,182.0078 112.4423,182.3248 C112.1333,182.6418 111.7113,182.8198 111.2693,182.8198" id="Fill-113" fill="#415572" sketch:type="MSShapeGroup"></path>
                <path d="M60.966,87.8468 C60.966,87.8468 57.666,93.0158 61.669,96.7398 C65.672,100.4628 69.769,97.7998 69.769,97.7998 C69.769,97.7998 71.613,101.2818 76.939,102.1018 C82.266,102.9208 85.166,99.4378 85.166,99.4378 C85.166,99.4378 90.291,101.9928 94.763,99.2338 C101.653,94.9818 96.948,87.0988 96.948,87.0988" id="Fill-115" fill="#FFFFFF" sketch:type="MSShapeGroup"></path>
                <path d="M78.5516,103.8666 C77.9626,103.8666 77.3416,103.8216 76.6906,103.7206 C72.7286,103.1116 70.4126,101.1766 69.2556,99.8556 C67.0856,100.6436 63.6586,100.8276 60.5536,97.9396 C56.5946,94.2586 58.1886,89.1516 59.5856,86.9656 C60.0726,86.2006 61.0816,85.9776 61.8486,86.4656 C62.6106,86.9526 62.8346,87.9626 62.3516,88.7256 C62.2266,88.9246 59.8606,92.8216 62.7846,95.5396 C65.7176,98.2646 68.5726,96.6136 68.8896,96.4176 C69.2736,96.1746 69.7486,96.1026 70.1886,96.2206 C70.6276,96.3396 71.0056,96.6306 71.2176,97.0326 C71.2726,97.1296 72.8166,99.8096 77.1896,100.4816 C81.4806,101.1346 83.8176,98.4916 83.9166,98.3786 C84.3996,97.8146 85.2226,97.6426 85.8916,97.9686 C85.9366,97.9866 90.2866,100.0686 93.9016,97.8386 C99.3546,94.4746 95.6996,88.2056 95.5406,87.9396 C95.0766,87.1626 95.3316,86.1566 96.1076,85.6926 C96.8826,85.2266 97.8906,85.4796 98.3546,86.2596 C100.2686,89.4656 102.1606,96.5936 95.6246,100.6276 C91.7156,103.0406 87.4836,102.0456 85.5316,101.3536 C84.3356,102.3576 81.9686,103.8666 78.5516,103.8666" id="Fill-117" fill="#415572" sketch:type="MSShapeGroup"></path>
                <path d="M67.6355,239.3894 C67.6355,239.3894 74.9335,239.9374 77.4325,241.5124 C79.9325,243.0884 64.0015,241.7844 64.0015,241.7844" id="Fill-119" fill="#415572" sketch:type="MSShapeGroup"></path>
                <path d="M73.9581,243.9591 C71.7351,243.9591 68.5261,243.7991 63.8671,243.4181 C62.9661,243.3431 62.2931,242.5521 62.3671,241.6491 C62.4421,240.7481 63.2141,240.0891 64.1361,240.1501 C64.8371,240.2071 65.5571,240.2621 66.2821,240.3131 C66.0801,240.0151 65.9731,239.6521 66.0021,239.2661 C66.0691,238.3621 66.8491,237.6631 67.7591,237.7551 C68.5471,237.8151 75.5431,238.3831 78.3071,240.1271 C79.3361,240.7761 79.4671,241.7121 79.2481,242.3731 C78.9631,243.2261 78.7161,243.9591 73.9581,243.9591" id="Fill-121" fill="#415572" sketch:type="MSShapeGroup"></path>
                <path d="M96.7355,239.3894 C96.7355,239.3894 104.0335,239.9374 106.5325,241.5124 C109.0325,243.0884 93.8095,241.7844 93.8095,241.7844" id="Fill-123" fill="#415572" sketch:type="MSShapeGroup"></path>
                <path d="M103.2058,243.9479 C101.0868,243.9479 98.0488,243.7929 93.6698,243.4169 C92.7668,243.3399 92.0978,242.5459 92.1768,241.6449 C92.2518,240.7419 93.0408,240.0349 93.9488,240.1519 C94.4078,240.1899 94.8768,240.2279 95.3488,240.2649 C95.1678,239.9769 95.0738,239.6309 95.1008,239.2669 C95.1678,238.3619 95.9588,237.6629 96.8578,237.7559 C97.6458,237.8149 104.6428,238.3829 107.4068,240.1279 C108.4478,240.7819 108.5798,241.7249 108.3578,242.3879 C108.0828,243.2049 107.8308,243.9479 103.2058,243.9479" id="Fill-125" fill="#415572" sketch:type="MSShapeGroup"></path>
                <path d="M58.9042,146.4783 C60.1432,146.2213 61.1992,145.3053 61.5492,144.0003 C62.0452,142.1543 60.9502,140.2563 59.1042,139.7613 C58.9342,139.7163 58.7642,139.6973 58.5942,139.6783 C58.6622,139.5213 58.7322,139.3653 58.7772,139.1953 C59.2732,137.3493 58.1782,135.4523 56.3322,134.9563 C56.3052,134.9493 56.2782,134.9503 56.2512,134.9433 C55.6682,137.1433 55.2082,139.3293 54.8472,141.4033 C54.8312,141.4963 54.8142,141.5903 54.7982,141.6823 C54.4902,143.4883 54.2552,145.1963 54.0772,146.7443 C54.0722,146.7823 54.0692,146.8193 54.0642,146.8573 C53.8902,148.3903 52.9482,149.8313 52.8672,150.9623 C53.3152,151.6763 54.8372,152.1573 55.7152,152.3933 C57.5612,152.8883 59.4582,151.7943 59.9542,149.9483 C60.3042,148.6423 59.8482,147.3213 58.9042,146.4783" id="Fill-127" fill="#415572" sketch:type="MSShapeGroup"></path>
                <path d="M104.4439,153.0044 C103.3279,153.6004 102.5729,154.7764 102.6049,156.1284 C102.6499,158.0384 104.2359,159.5504 106.1459,159.5044 C106.3229,159.5004 106.4909,159.4704 106.6589,159.4404 C106.6379,159.6104 106.6159,159.7804 106.6199,159.9564 C106.6649,161.8664 108.2509,163.3784 110.1609,163.3324 C110.1889,163.3324 110.2149,163.3234 110.2429,163.3224 C110.1819,161.0474 110.0059,158.8204 109.7669,156.7284 C109.7569,156.6354 109.7469,156.5404 109.7359,156.4474 C109.5219,154.6284 109.2659,152.9224 108.9999,151.3874 C108.9939,151.3494 108.9869,151.3134 108.9799,151.2754 C108.7149,149.7554 108.4459,148.4134 108.2049,147.3064 C107.5739,146.7474 106.7439,146.4084 105.8349,146.4304 C103.9249,146.4754 102.4129,148.0614 102.4579,149.9714 C102.4899,151.3224 103.3009,152.4624 104.4439,153.0044" id="Fill-129" fill="#415572" sketch:type="MSShapeGroup"></path>
                <mask id="mask-6" sketch:name="Clip 132" fill="white">
                    <use xlink:href="#path-5"></use>
                </mask>
                <g id="Clip-132"></g>
                <path d="M61.669,242.291 L71,242.291 L71,206.439 L61.669,206.439 L61.669,242.291 Z" id="Fill-131" fill="#FBB040" sketch:type="MSShapeGroup" mask="url(#mask-6)"></path>
                <path d="M63.308,240.652 L69.36,240.652 L69.36,208.077 L63.308,208.077 L63.308,240.652 Z M70.999,243.93 L61.669,243.93 C60.764,243.93 60.03,243.197 60.03,242.291 L60.03,206.438 C60.03,205.532 60.764,204.799 61.669,204.799 L70.999,204.799 C71.905,204.799 72.638,205.532 72.638,206.438 L72.638,242.291 C72.638,243.197 71.905,243.93 70.999,243.93 L70.999,243.93 Z" id="Fill-133" fill="#415572" sketch:type="MSShapeGroup" mask="url(#mask-6)"></path>
                <path d="M91.197,242.291 L100.528,242.291 L100.528,206.439 L91.197,206.439 L91.197,242.291 Z" id="Fill-134" fill="#FBB040" sketch:type="MSShapeGroup" mask="url(#mask-6)"></path>
                <path d="M92.836,240.652 L98.889,240.652 L98.889,208.077 L92.836,208.077 L92.836,240.652 Z M100.528,243.93 L91.197,243.93 C90.291,243.93 89.558,243.197 89.558,242.291 L89.558,206.438 C89.558,205.532 90.291,204.799 91.197,204.799 L100.528,204.799 C101.434,204.799 102.167,205.532 102.167,206.438 L102.167,242.291 C102.167,243.197 101.434,243.93 100.528,243.93 L100.528,243.93 Z" id="Fill-135" fill="#415572" sketch:type="MSShapeGroup" mask="url(#mask-6)"></path>
                <path d="M98.636,30.7781 C98.636,30.7781 108.401,33.6741 109.755,42.6971 C111.108,51.7201 112.011,73.2631 117.537,76.1961 C117.537,76.1961 112.583,79.6191 102.258,78.0201" id="Fill-136" fill="#FFFFFF" sketch:type="MSShapeGroup" mask="url(#mask-6)"></path>
                <path d="M107.5352,80.0831 C105.8832,80.0831 104.0412,79.9551 102.0072,79.6401 C101.1122,79.5001 100.5012,78.6631 100.6382,77.7691 C100.7782,76.8771 101.6102,76.2591 102.5092,76.4001 C108.4422,77.3191 112.4762,76.4771 114.6602,75.7181 C111.5222,71.4021 110.2432,61.8151 108.9802,50.0611 C108.6862,47.3221 108.4202,44.8481 108.1342,42.9401 C106.9492,35.0401 98.2582,32.3751 98.1702,32.3491 C97.3032,32.0921 96.8072,31.1791 97.0642,30.3121 C97.3222,29.4451 98.2302,28.9501 99.1022,29.2061 C99.5422,29.3371 109.8852,32.5131 111.3762,42.4531 C111.6682,44.3981 111.9402,46.9191 112.2392,49.7101 C113.1692,58.3641 114.7262,72.8491 118.3052,74.7471 C118.8112,75.0161 119.1392,75.5281 119.1722,76.0991 C119.2062,76.6711 118.9392,77.2181 118.4682,77.5431 C118.2862,77.6691 114.6922,80.0831 107.5352,80.0831" id="Fill-137" fill="#415572" sketch:type="MSShapeGroup" mask="url(#mask-6)"></path>
                <path d="M78.5918,94.7887 L78.5918,94.7887 C64.7658,94.7887 53.4528,83.4757 53.4528,69.6497 L53.4528,45.8757 C53.4528,32.0487 64.7658,20.7367 78.5918,20.7367 L78.5918,20.7367 C92.4178,20.7367 103.7308,32.0487 103.7308,45.8757 L103.7308,69.6497 C103.7308,83.4757 92.4178,94.7887 78.5918,94.7887" id="Fill-138" fill="#FFFFFF" sketch:type="MSShapeGroup" mask="url(#mask-6)"></path>
                <path d="M78.049,22.3751 C65.391,22.3751 55.091,32.6741 55.091,45.3331 L55.091,70.1921 C55.091,82.8501 65.391,93.1491 78.049,93.1491 L79.134,93.1491 C91.793,93.1491 102.092,82.8501 102.092,70.1921 L102.092,45.3331 C102.092,32.6741 91.793,22.3751 79.134,22.3751 L78.049,22.3751 Z M79.134,96.4271 L78.049,96.4271 C63.582,96.4271 51.813,84.6591 51.813,70.1921 L51.813,45.3331 C51.813,30.8661 63.582,19.0971 78.049,19.0971 L79.134,19.0971 C93.601,19.0971 105.37,30.8661 105.37,45.3331 L105.37,70.1921 C105.37,84.6591 93.601,96.4271 79.134,96.4271 L79.134,96.4271 Z" id="Fill-139" fill="#415572" sketch:type="MSShapeGroup" mask="url(#mask-6)"></path>
                <path d="M80.5794,81.8836 C77.0774,81.8836 73.7384,80.7906 71.0674,78.7466 C70.5284,78.3336 70.4244,77.5626 70.8374,77.0246 C71.2464,76.4866 72.0184,76.3776 72.5594,76.7936 C75.0754,78.7176 78.3304,79.6316 81.6674,79.3836 C84.2034,79.1936 86.5894,78.3496 88.5674,76.9426 C89.1194,76.5456 89.8884,76.6786 90.2814,77.2326 C90.6754,77.7866 90.5454,78.5526 89.9924,78.9466 C87.6484,80.6126 84.8334,81.6116 81.8534,81.8356 C81.4264,81.8676 81.0024,81.8836 80.5794,81.8836" id="Fill-140" fill="#415572" sketch:type="MSShapeGroup" mask="url(#mask-6)"></path>
                <path d="M67.5708,47.9593 C94.1898,48.2493 98.6358,30.7783 98.6358,30.7783 C98.6358,30.7783 90.3548,17.6573 72.5078,18.7143 C49.4118,20.7363 42.0868,39.6593 40.7338,55.7403 C39.3798,71.8213 34.1838,77.2403 34.1838,77.2403 C46.3658,85.6703 56.2918,77.2043 56.2918,77.2043 C56.2918,77.2043 51.8578,57.1093 58.8118,47.9293" id="Fill-141" fill="#FFFFFF" sketch:type="MSShapeGroup" mask="url(#mask-6)"></path>
                <path d="M45.2322,82.5927 C41.6852,82.5927 37.5862,81.5877 33.2512,78.5887 C32.8572,78.3147 32.6012,77.8827 32.5532,77.4057 C32.5052,76.9267 32.6682,76.4527 33.0012,76.1057 C33.0392,76.0647 37.8262,70.7407 39.1002,55.6017 C40.2272,42.2037 46.0502,19.3857 72.3652,17.0827 C91.0392,15.9247 99.6622,29.3337 100.0222,29.9027 C100.2622,30.2837 100.3362,30.7457 100.2242,31.1827 C100.1762,31.3697 95.0962,49.8467 67.5532,49.5987 C66.6472,49.5887 65.9222,48.8457 65.9312,47.9417 C65.9412,47.0357 66.7542,46.2657 67.5882,46.3207 C89.7552,46.6227 95.7072,34.1697 96.8312,31.0497 C94.9952,28.5597 87.2522,19.4737 72.6052,20.3507 C48.7282,22.4407 43.4072,43.5067 42.3652,55.8767 C41.3642,67.8037 38.2622,74.1307 36.5412,76.8037 C45.1012,81.8277 52.2202,78.0167 54.4782,76.5057 C53.6462,72.1187 51.0422,55.4717 57.5062,46.9397 C58.0492,46.2177 59.0782,46.0757 59.8012,46.6227 C60.5232,47.1687 60.6662,48.1977 60.1182,48.9177 C53.6952,57.3977 57.8492,76.6577 57.8922,76.8517 C58.0222,77.4437 57.8152,78.0597 57.3542,78.4517 C57.2822,78.5147 52.3782,82.5927 45.2322,82.5927" id="Fill-142" fill="#415572" sketch:type="MSShapeGroup" mask="url(#mask-6)"></path>
                <path d="M100.2579,30.5423 C100.2579,30.5423 100.3049,31.0303 100.3889,31.8853 C100.4599,32.7293 100.4889,33.9243 100.4529,35.3613 C100.3849,36.7973 100.2629,38.4763 99.8779,40.2553 C99.7189,41.1493 99.4589,42.0583 99.1579,42.9743 C98.9049,43.9003 98.4239,44.7883 98.0539,45.6963 C97.5119,46.5373 97.1109,47.4593 96.4449,48.2043 C95.8239,48.9783 95.2139,49.7383 94.4499,50.3163 C94.0889,50.6223 93.7339,50.9223 93.3869,51.2163 C92.9949,51.4463 92.6119,51.6713 92.2399,51.8903 C91.5069,52.3623 90.7779,52.7133 90.0599,52.9233 C89.3559,53.1573 88.7239,53.4473 88.1389,53.5593 C87.5529,53.6623 87.0419,53.7533 86.6219,53.8273 C85.7809,53.9723 85.3009,54.0543 85.3009,54.0543 C84.6229,54.1713 83.9779,53.7163 83.8619,53.0383 C83.7469,52.3743 84.1809,51.7423 84.8359,51.6063 L85.0319,51.5663 C85.0319,51.5663 85.4479,51.4803 86.1759,51.3313 C86.5399,51.2583 86.9809,51.1693 87.4879,51.0683 C87.9919,50.9623 88.5019,50.6913 89.0899,50.4853 C89.6939,50.3013 90.2849,49.9923 90.8639,49.5873 C91.1639,49.4043 91.4719,49.2163 91.7869,49.0233 C92.0589,48.7763 92.3369,48.5233 92.6199,48.2673 C93.2269,47.7983 93.6979,47.1553 94.1879,46.5173 C94.7199,45.9133 95.0209,45.1103 95.4609,44.4183 C95.7449,43.6273 96.1409,42.8923 96.3349,42.0743 C96.5739,41.2763 96.7819,40.4833 96.8989,39.6843 C97.1999,38.1103 97.2689,36.5893 97.2969,35.2943 C97.3009,32.6553 97.0139,31.0143 97.0139,31.0143 L97.0089,30.9833 C96.8529,30.0913 97.4499,29.2413 98.3429,29.0853 C99.2349,28.9293 100.0849,29.5263 100.2409,30.4183 C100.2479,30.4583 100.2539,30.5023 100.2579,30.5423" id="Fill-143" fill="#415572" sketch:type="MSShapeGroup" mask="url(#mask-6)"></path>
                <path d="M39.6672,164.0473 C39.3922,164.0473 39.1122,163.9783 38.8562,163.8313 C38.0702,163.3813 37.7962,162.3793 38.2462,161.5953 C41.3322,156.2013 39.8482,150.1233 39.8332,150.0623 C32.7352,122.1513 45.7522,100.3983 46.3092,99.4863 C46.7812,98.7133 47.7902,98.4763 48.5612,98.9423 C49.3342,99.4143 49.5772,100.4203 49.1072,101.1933 C48.9772,101.4063 36.2642,122.7253 43.0092,149.2533 C43.0862,149.5463 44.8532,156.6453 41.0912,163.2213 C40.7892,163.7513 40.2352,164.0473 39.6672,164.0473" id="Fill-144" fill="#415572" sketch:type="MSShapeGroup" mask="url(#mask-6)"></path>
                <path d="M56.2916,73.8557 C56.2916,73.8557 61.7546,84.6927 57.7506,87.0147 C53.6726,89.3797 52.4426,81.7377 56.2916,73.8557" id="Fill-145" fill="#FFFFFF" sketch:type="MSShapeGroup" mask="url(#mask-6)"></path>
                <path d="M56.3621,78.1624 C55.2001,82.0944 55.5491,85.1004 56.2691,85.7714 C56.3911,85.8814 56.7731,85.6884 56.9301,85.5964 C58.0991,84.9194 57.6141,81.6384 56.3621,78.1624 M56.3561,89.0954 C55.2021,89.0954 54.4061,88.5144 54.0351,88.1684 C51.4661,85.7764 51.8021,79.3134 54.8191,73.1364 C55.0931,72.5764 55.6591,72.2194 56.2801,72.2164 C57.0491,72.2084 57.4741,72.5624 57.7541,73.1174 C58.7841,75.1584 63.6571,85.4844 58.5741,88.4324 C57.7341,88.9194 56.9891,89.0954 56.3561,89.0954" id="Fill-146" fill="#415572" sketch:type="MSShapeGroup" mask="url(#mask-6)"></path>
                <path d="M104.6898,73.8557 C104.6898,73.8557 110.1528,84.6927 106.1488,87.0147 C102.0708,89.3797 100.8408,81.7377 104.6898,73.8557" id="Fill-147" fill="#FFFFFF" sketch:type="MSShapeGroup" mask="url(#mask-6)"></path>
                <path d="M104.7599,78.1624 C103.5999,82.0944 103.9489,85.1004 104.6689,85.7714 C104.7969,85.8924 105.2049,85.6674 105.3269,85.5964 C106.4969,84.9194 106.0119,81.6384 104.7599,78.1624 M104.7539,89.0954 C103.6009,89.0954 102.8059,88.5164 102.4339,88.1704 C99.8659,85.7774 100.2019,79.3144 103.2169,73.1364 C103.4889,72.5764 104.0559,72.2214 104.6779,72.2164 L104.6899,72.2164 C105.3069,72.2164 105.8739,72.5654 106.1519,73.1174 C107.1819,75.1584 112.0549,85.4844 106.9719,88.4324 C106.1319,88.9194 105.3869,89.0954 104.7539,89.0954" id="Fill-148" fill="#415572" sketch:type="MSShapeGroup" mask="url(#mask-6)"></path>
            </g>
        </g>
    </g>
</svg>