<?xml version="1.0" encoding="UTF-8" standalone="no"?>
<svg width="187px" height="252px" viewBox="0 0 187 252" version="1.1" xmlns="http://www.w3.org/2000/svg" xmlns:xlink="http://www.w3.org/1999/xlink" xmlns:sketch="http://www.bohemiancoding.com/sketch/ns">
    <!-- Generator: Sketch 3.4.4 (17249) - http://www.bohemiancoding.com/sketch -->
    <title>Page 1</title>
    <desc>Created with Sketch.</desc>
    <defs>
        <path id="path-1" d="M0,0.512590909 L186.736942,0.512590909 L186.736942,252 L0,252 L0,0.512590909 Z"></path>
    </defs>
    <g id="option2" stroke="none" stroke-width="1" fill="none" fill-rule="evenodd" sketch:type="MSPage">
        <g id="howitworks7" sketch:type="MSArtboardGroup" transform="translate(-647.000000, -299.000000)">
            <g id="Page-1" sketch:type="MSLayerGroup" transform="translate(647.000000, 299.000000)">
                <path d="M163.852259,178.399162 C163.852259,191.704762 164.939376,218.409316 166.280972,218.409316 C167.622568,218.409316 168.709684,191.704762 168.709684,178.399162" id="Fill-1" fill="#415572" sketch:type="MSShapeGroup"></path>
                <path d="M166.281715,219.348761 C165.227195,219.348761 164.466043,219.348761 163.627688,203.442979 C163.201076,195.35607 162.915143,185.291534 162.915143,178.399906 C162.915143,177.881015 163.334321,177.461206 163.852431,177.461206 C164.370541,177.461206 164.789718,177.881015 164.789718,178.399906 C164.789718,189.729597 165.490825,206.607297 166.281715,214.092843 C167.072605,206.607297 167.771997,189.729597 167.771997,178.399906 C167.771997,177.881015 168.191174,177.461206 168.709284,177.461206 C169.226822,177.461206 169.646,177.881015 169.646,178.399906 C169.646,185.289815 169.360639,195.354352 168.934027,203.442979 C168.095672,219.348761 167.33452,219.348761 166.281715,219.348761" id="Fill-3" fill="#415572" sketch:type="MSShapeGroup"></path>
                <path d="M166.711529,219.266632 C166.711529,219.266632 165.011945,223.097032 165.129178,224.784859 C165.24641,226.473259 168.709627,218.439614 168.709627,218.439614" id="Fill-5" fill="#415572" sketch:type="MSShapeGroup"></path>
                <path d="M165.342655,225.972524 C165.251157,225.972524 165.164805,225.957633 165.075594,225.941596 C164.679863,225.873442 164.242386,225.552715 164.193206,224.848833 C164.06282,222.982315 165.67205,219.299105 165.855046,218.885024 C166.06778,218.410233 166.618487,218.199469 167.092563,218.408515 C167.282994,218.494424 167.431108,218.633596 167.526609,218.804269 C167.636407,218.555133 167.74449,218.309433 167.848569,218.067169 C168.051582,217.59066 168.606291,217.369015 169.080368,217.57806 C169.556731,217.783096 169.774612,218.335205 169.569313,218.811715 C166.796337,225.244587 165.979713,225.972524 165.342655,225.972524" id="Fill-7" fill="#415572" sketch:type="MSShapeGroup"></path>
                <mask id="mask-2" sketch:name="Clip 10" fill="white">
                    <use xlink:href="#path-1"></use>
                </mask>
                <g id="Clip-10"></g>
                <path d="M168.949067,218.991436 L163.612991,218.991436 L163.612991,198.458018 L168.949067,198.458018 L168.949067,218.991436 Z" id="Fill-9" fill="#FBB040" sketch:type="MSShapeGroup" mask="url(#mask-2)"></path>
                <path d="M164.550278,218.052736 L168.01178,218.052736 L168.01178,199.396718 L164.550278,199.396718 L164.550278,218.052736 Z M168.949067,219.930136 L163.612991,219.930136 C163.094881,219.930136 162.675703,219.510327 162.675703,218.991436 L162.675703,198.458018 C162.675703,197.939127 163.094881,197.519318 163.612991,197.519318 L168.949067,197.519318 C169.466606,197.519318 169.886355,197.939127 169.886355,198.458018 L169.886355,218.991436 C169.886355,219.510327 169.466606,219.930136 168.949067,219.930136 L168.949067,219.930136 Z" id="Fill-11" fill="#415572" sketch:type="MSShapeGroup" mask="url(#mask-2)"></path>
                <path d="M152.302236,178.399162 C152.302236,191.704762 153.389924,218.409316 154.730948,218.409316 C156.072545,218.409316 157.159661,191.704762 157.159661,178.399162" id="Fill-12" fill="#415572" sketch:type="MSShapeGroup" mask="url(#mask-2)"></path>
                <path d="M154.730948,219.348761 C153.676428,219.348761 152.915276,219.348761 152.076921,203.442979 C151.650309,195.35607 151.364376,185.291534 151.364376,178.399906 C151.364376,177.881015 151.783554,177.461206 152.301664,177.461206 C152.819774,177.461206 153.238951,177.881015 153.238951,178.399906 C153.238951,189.731888 153.940058,206.613025 154.730948,214.097997 C155.521838,206.613025 156.222945,189.731888 156.222945,178.399906 C156.222945,177.881015 156.642123,177.461206 157.160233,177.461206 C157.678343,177.461206 158.09752,177.881015 158.09752,178.399906 C158.09752,185.291534 157.811587,195.35607 157.384976,203.442979 C156.546621,219.348761 155.785468,219.348761 154.730948,219.348761" id="Fill-13" fill="#415572" sketch:type="MSShapeGroup" mask="url(#mask-2)"></path>
                <path d="M172.018898,130.537203 C172.018898,130.537203 175.414063,132.03603 176.180363,137.175685 C176.953525,142.359439 174.639757,146.202439 174.658629,153.836894 C174.678072,161.698148 179.89177,168.151639 178.351164,183.99213 L143.251779,183.99213 C143.251779,183.99213 143.64751,168.126439 146.843666,158.530394 C153.628849,138.157339 141.731761,146.054103 150.72892,130.108803 L172.018898,130.537203 Z" id="Fill-14" fill="#FBB040" sketch:type="MSShapeGroup" mask="url(#mask-2)"></path>
                <path d="M144.223607,183.052915 L177.493595,183.052915 C178.270188,173.823987 176.715858,168.032569 175.339378,162.90666 C174.475289,159.690796 173.728433,156.911924 173.720998,153.839242 C173.711849,150.108496 174.244827,147.272351 174.714901,144.769533 C175.209564,142.138996 175.635604,139.869278 175.255313,137.315487 C174.660002,133.335605 172.397702,131.815587 171.784662,131.472524 L151.272992,131.058442 C147.258497,138.296569 147.932154,140.015896 148.855145,142.378969 C149.902231,145.061051 151.205512,148.399478 147.732573,158.827696 C145.065393,166.835569 144.370005,179.487115 144.223607,183.052915 M178.350821,184.930315 L143.251436,184.930315 C142.999243,184.930315 142.757344,184.827796 142.579494,184.646242 C142.403931,184.466405 142.309002,184.220705 142.314148,183.96756 C142.330732,183.315224 142.74991,167.851015 145.9535,158.233778 C149.211989,148.451024 148.045956,145.464824 147.108668,143.062805 C145.900317,139.96836 145.389641,137.665424 149.913096,129.646669 C150.081225,129.345987 150.398038,129.195933 150.747448,129.17016 L172.036855,129.599133 C172.161521,129.600851 172.283901,129.628342 172.395986,129.678169 C172.554965,129.747469 176.27495,131.449042 177.107586,137.036569 C177.535913,139.904215 177.081852,142.320551 176.556879,145.116033 C176.102818,147.538096 175.586424,150.280887 175.595573,153.835233 C175.603008,156.662215 176.318411,159.329978 177.147616,162.419269 C178.535534,167.586987 180.263711,174.016424 179.284106,184.083251 C179.236641,184.563769 178.834047,184.930315 178.350821,184.930315" id="Fill-15" fill="#415572" sketch:type="MSShapeGroup" mask="url(#mask-2)"></path>
                <path d="M172.018898,130.537203 C172.018898,130.537203 173.906054,133.49763 171.616877,135.630466 C169.327699,137.76273 166.984767,136.237557 166.984767,136.237557 C166.984767,136.237557 165.930247,138.231794 162.884491,138.70143 C159.838164,139.170494 158.179754,137.175685 158.179754,137.175685 C158.179754,137.175685 155.248944,138.639003 152.691562,137.058848 C148.751409,134.623612 151.442036,130.108803 151.442036,130.108803" id="Fill-16" fill="#FFFFFF" sketch:type="MSShapeGroup" mask="url(#mask-2)"></path>
                <path d="M161.961615,139.711606 C160.008694,139.711606 158.655661,138.847934 157.971138,138.274061 C156.852569,138.666379 154.43415,139.236815 152.1993,137.858261 C148.461587,135.547879 149.542985,131.463761 150.63582,129.62817 C150.89945,129.183161 151.465025,129.038261 151.919086,129.302288 C152.362282,129.566315 152.510395,130.141906 152.24848,130.587488 C152.023737,130.970643 150.140013,134.37837 153.184052,136.259206 C155.276508,137.55357 157.736673,136.347406 157.762407,136.336525 C158.144985,136.14237 158.622493,136.239161 158.899276,136.574779 C158.950172,136.63377 160.288337,138.149779 162.741639,137.77407 C165.252701,137.386906 166.148242,135.814197 166.155676,135.797588 C166.279771,135.564488 166.49422,135.394388 166.748701,135.327952 C167.006612,135.263806 167.273673,135.306188 167.495557,135.451088 C167.669404,135.561052 169.305511,136.504906 170.978789,134.943079 C172.676086,133.362925 171.288169,131.137306 171.228123,131.043952 C170.949624,130.605815 171.077722,130.026215 171.513483,129.745579 C171.952676,129.47067 172.531404,129.597243 172.809331,130.031943 C173.607655,131.283925 174.519208,134.209988 172.256909,136.318197 C170.477263,137.971661 168.52034,137.859979 167.277676,137.416115 C166.6166,138.171543 165.291587,139.280915 163.027,139.629134 C162.653572,139.685834 162.298444,139.711606 161.961615,139.711606" id="Fill-17" fill="#415572" sketch:type="MSShapeGroup" mask="url(#mask-2)"></path>
                <path d="M155.161506,219.266632 C155.161506,219.266632 153.461922,223.097032 153.579154,224.784859 C153.696387,226.473259 157.159604,218.439614 157.159604,218.439614" id="Fill-18" fill="#415572" sketch:type="MSShapeGroup" mask="url(#mask-2)"></path>
                <path d="M153.793718,225.972524 C153.70222,225.972524 153.61644,225.957633 153.526657,225.941596 C153.130926,225.873442 152.693449,225.552715 152.644269,224.848833 C152.513883,222.982315 154.121397,219.299105 154.304394,218.885024 C154.51484,218.410233 155.067834,218.199469 155.541911,218.408515 C155.732342,218.494424 155.882171,218.635887 155.977672,218.804269 C156.08747,218.556851 156.195553,218.309433 156.299632,218.067169 C156.503217,217.59066 157.057354,217.369015 157.531431,217.57806 C158.007794,217.783096 158.225675,218.335205 158.020376,218.811715 C155.2474,225.244587 154.430776,225.972524 153.793718,225.972524" id="Fill-19" fill="#415572" sketch:type="MSShapeGroup" mask="url(#mask-2)"></path>
                <path d="M173.19797,164.117062 C172.489429,163.969871 171.885539,163.445253 171.685386,162.697844 C171.401741,161.640589 172.027934,160.553553 173.083597,160.270053 C173.180814,160.24428 173.278031,160.233398 173.375249,160.222516 C173.336362,160.132598 173.296331,160.043253 173.270597,159.945889 C172.986952,158.888635 173.613145,157.802171 174.668808,157.518098 C174.684249,157.514089 174.699689,157.514662 174.715129,157.510653 C175.048527,158.770653 175.311585,160.022635 175.518028,161.210471 C175.527178,161.263735 175.5369,161.317571 175.54605,161.370262 C175.722184,162.404607 175.856573,163.382825 175.958365,164.269407 C175.961224,164.291171 175.96294,164.312362 175.965799,164.334125 C176.065304,165.212116 176.604001,166.037416 176.650322,166.685171 C176.394126,167.094098 175.523747,167.36958 175.021649,167.504744 C173.965986,167.788244 172.881157,167.16168 172.597512,166.104425 C172.397359,165.356444 172.658129,164.599871 173.19797,164.117062" id="Fill-20" fill="#415572" sketch:type="MSShapeGroup" mask="url(#mask-2)"></path>
                <path d="M147.15539,167.854795 C147.793591,168.19614 148.22535,168.869667 148.20705,169.643995 C148.181316,170.737904 147.274338,171.603867 146.182075,171.577522 C146.080854,171.575231 145.984781,171.558049 145.888708,171.540867 C145.900717,171.638231 145.913298,171.735595 145.91101,171.836395 C145.885276,172.930304 144.978298,173.796267 143.886035,173.769922 C143.870023,173.769922 143.855154,173.764767 143.839142,173.764195 C143.874026,172.46124 143.974674,171.185776 144.11135,169.987631 C144.117069,169.934367 144.122787,169.879958 144.129078,169.826695 C144.251457,168.784904 144.397854,167.807831 144.549971,166.928695 C144.553402,166.906931 144.557405,166.886313 144.561408,166.864549 C144.712952,165.994004 144.866784,165.225404 145.004604,164.591395 C145.365451,164.27124 145.840099,164.077085 146.359925,164.089685 C147.452188,164.115458 148.316848,165.023804 148.291114,166.117713 C148.272815,166.891467 147.809032,167.544376 147.15539,167.854795" id="Fill-21" fill="#415572" sketch:type="MSShapeGroup" mask="url(#mask-2)"></path>
                <path d="M157.399101,218.991436 L152.063024,218.991436 L152.063024,198.458018 L157.399101,198.458018 L157.399101,218.991436 Z" id="Fill-22" fill="#FBB040" sketch:type="MSShapeGroup" mask="url(#mask-2)"></path>
                <path d="M153.000884,218.052736 L156.462385,218.052736 L156.462385,199.396718 L153.000884,199.396718 L153.000884,218.052736 Z M157.399673,219.930136 L152.063596,219.930136 C151.546058,219.930136 151.126881,219.510327 151.126881,218.991436 L151.126881,198.458018 C151.126881,197.939127 151.546058,197.519318 152.063596,197.519318 L157.399673,197.519318 C157.917783,197.519318 158.33696,197.939127 158.33696,198.458018 L158.33696,218.991436 C158.33696,219.510327 157.917783,219.930136 157.399673,219.930136 L157.399673,219.930136 Z" id="Fill-23" fill="#415572" sketch:type="MSShapeGroup" mask="url(#mask-2)"></path>
                <path d="M157.720775,94.8044618 C157.720775,94.8044618 151.897469,94.6744527 149.583702,99.3587891 C147.269934,104.042553 143.014683,115.632835 139.492564,116.265125 C139.492564,116.265125 141.592454,118.998753 147.493534,119.933444" id="Fill-24" fill="#FFFFFF" sketch:type="MSShapeGroup" mask="url(#mask-2)"></path>
                <path d="M147.494792,120.872545 C147.445611,120.872545 147.395859,120.869108 147.346679,120.861663 C141.148229,119.878863 138.845327,116.961963 138.750397,116.837681 C138.550816,116.57709 138.501064,116.232308 138.618296,115.926472 C138.737244,115.621781 139.006593,115.400135 139.328553,115.341717 C141.608009,114.93279 144.987162,107.305781 147.005847,102.74859 C147.656058,101.280117 148.245079,99.9525355 148.743174,98.9422445 C151.291406,93.7871264 157.471556,93.8695991 157.740333,93.8661627 C158.258443,93.8770445 158.666755,94.3060173 158.65589,94.82319 C158.644452,95.3380718 158.210978,95.7578809 157.702018,95.7435627 C157.637969,95.7321082 152.442572,95.6845718 150.423887,99.77499 C149.934942,100.764663 149.358501,102.06819 148.719156,103.509172 C145.977061,109.698635 143.606679,114.705417 141.14251,116.509508 C142.198746,117.303308 144.247168,118.468808 147.639474,119.006026 C148.15015,119.086781 148.499559,119.569017 148.418926,120.080463 C148.345728,120.542654 147.947137,120.872545 147.494792,120.872545" id="Fill-25" fill="#415572" sketch:type="MSShapeGroup" mask="url(#mask-2)"></path>
                <path d="M157.155086,133.124498 L158.119251,133.427471 C165.48545,135.795125 173.073532,131.582716 175.437052,124.205416 L179.780942,110.648389 C182.144462,103.271089 178.051621,95.2981527 170.685422,92.9310709 L170.094113,92.7409255 C162.727915,90.3738436 154.766976,94.4728527 152.403456,101.850153 L148.059566,115.40718 C145.696046,122.78448 149.788887,130.757416 157.155086,133.124498" id="Fill-26" fill="#FFFFFF" sketch:type="MSShapeGroup" mask="url(#mask-2)"></path>
                <path d="M157.438331,132.229898 L158.399637,132.53058 C161.699872,133.594135 165.181389,133.276844 168.209417,131.645144 C171.218572,130.020889 173.468291,127.278098 174.542826,123.919625 L178.886716,110.362025 C179.956105,107.032762 179.657591,103.472689 178.048361,100.339298 C176.44142,97.20648 173.724487,94.8926618 170.400233,93.8256709 L169.807209,93.6332345 C166.48467,92.5662436 162.929955,92.8652073 159.801851,94.4762891 C156.673175,96.0862255 154.362839,98.80668 153.297453,102.135944 L148.953563,115.693544 C147.884747,119.022807 148.183261,122.58288 149.791918,125.716271 C151.399432,128.847371 154.115793,131.161189 157.438331,132.229898 M162.294612,135.027671 C160.804903,135.027671 159.30204,134.792853 157.831774,134.31978 L156.874472,134.020816 C156.872756,134.019098 156.87104,134.019098 156.868753,134.019098 C153.066991,132.796325 149.962334,130.152616 148.124358,126.574216 C146.286383,122.995244 145.947839,118.927162 147.168771,115.119671 L151.510946,101.564362 C152.731878,97.7562982 155.371609,94.6469618 158.944624,92.8062164 C162.516496,90.9677618 166.576169,90.6246982 170.380218,91.8457527 L170.973242,92.0381891 C174.77386,93.2592436 177.878517,95.9029527 179.715921,99.4813527 C181.553897,103.060325 181.892441,107.128407 180.671508,110.935898 L176.329334,124.49178 C175.103254,128.31588 172.536722,131.443544 169.098667,133.296889 C166.970184,134.446353 164.644979,135.027671 162.294612,135.027671" id="Fill-27" fill="#415572" sketch:type="MSShapeGroup" mask="url(#mask-2)"></path>
                <path d="M162.184928,126.940819 C161.963617,126.940819 161.745736,126.836583 161.610204,126.641855 C161.05721,125.853783 160.277757,125.220919 159.356482,124.814283 C158.135549,124.275346 156.808821,124.190583 155.617054,124.573737 C155.25106,124.698592 154.851898,124.491265 154.73295,124.121283 C154.611714,123.750728 154.815298,123.354974 155.184724,123.235846 C156.702454,122.740437 158.388314,122.846965 159.924344,123.527365 C161.079513,124.037092 162.060262,124.834328 162.759653,125.831446 C162.983253,126.150455 162.906051,126.588592 162.589237,126.812528 C162.466858,126.898437 162.325607,126.940819 162.184928,126.940819" id="Fill-28" fill="#415572" sketch:type="MSShapeGroup" mask="url(#mask-2)"></path>
                <path d="M171.634319,109.610206 C157.089493,105.110288 157.720832,94.8046336 157.720832,94.8046336 C157.720832,94.8046336 164.5226,89.0985518 174.055597,92.7977973 C186.279221,97.9426064 186.960884,109.543197 184.887872,118.549334 C182.815432,127.556043 184.697441,131.420234 184.697441,131.420234 C176.591248,133.886397 172.665964,127.532561 172.665964,127.532561 C172.665964,127.532561 178.591634,117.34947 176.408823,111.126215" id="Fill-29" fill="#FFFFFF" sketch:type="MSShapeGroup" mask="url(#mask-2)"></path>
                <path d="M181.100064,132.924731 C174.978817,132.924731 171.90504,128.084613 171.870156,128.026195 C171.687159,127.732958 171.682012,127.360685 171.857575,127.060004 C171.91419,126.96264 177.537914,117.176449 175.524376,111.438295 C175.352245,110.948613 175.60844,110.413685 176.097385,110.241295 C176.589761,110.067185 177.122168,110.328922 177.292584,110.815167 C179.324422,116.602576 174.991398,125.232431 173.774468,127.472367 C174.738633,128.711749 177.918777,132.020967 183.491034,130.770704 C183.020388,129.012431 182.436514,125.019376 183.97426,118.339085 C185.570336,111.410804 186.355508,98.9917855 173.693835,93.6625582 C165.875291,90.6248127 160.08744,94.2329945 158.655489,95.2684855 C158.721826,97.1584855 159.746609,104.95044 171.910758,108.713831 C172.40485,108.866176 172.683349,109.392513 172.529517,109.887349 C172.375685,110.382185 171.846709,110.662822 171.357765,110.50704 C156.283391,105.843322 156.777483,94.85784 156.784917,94.7478764 C156.801502,94.4895764 156.92045,94.2513218 157.117743,94.0858036 C157.412826,93.8366673 164.456492,88.0675855 174.394942,91.9226127 C188.347315,97.7947855 187.528976,111.25674 185.800798,118.760613 C183.849593,127.23984 185.526303,130.979749 185.542887,131.016404 C185.658404,131.263822 185.661835,131.551331 185.552037,131.80104 C185.440523,132.048458 185.229505,132.240895 184.969878,132.319931 C183.567664,132.744895 182.276963,132.924731 181.100064,132.924731" id="Fill-30" fill="#415572" sketch:type="MSShapeGroup" mask="url(#mask-2)"></path>
                <path d="M158.562676,95.2168255 C158.562676,95.2168255 158.11948,96.0615982 157.660844,97.5014345 C157.449825,98.2127618 157.221651,99.0546709 157.110137,99.9653073 C157.034651,100.421198 157.009489,100.890835 156.999767,101.367344 C156.962596,101.847289 157.04952,102.317498 157.066104,102.798589 C157.185052,103.252762 157.208498,103.743589 157.392639,104.165689 C157.547614,104.599816 157.692296,105.032798 157.941058,105.394762 C158.050284,105.584335 158.157223,105.770471 158.262446,105.953171 C158.400266,106.112962 158.535226,106.269889 158.666183,106.422235 C158.91037,106.744107 159.179146,107.016153 159.475373,107.222335 C159.75959,107.43768 159.98948,107.674216 160.245676,107.820262 C160.504159,107.964016 160.728902,108.090016 160.914186,108.193107 C161.284755,108.402153 161.496345,108.521853 161.496345,108.521853 L161.594706,108.577407 C161.937254,108.770989 162.058489,109.206262 161.865198,109.549325 C161.675911,109.885516 161.253874,110.008653 160.914758,109.83168 C160.914758,109.83168 160.667712,109.702816 160.235382,109.476589 C160.019217,109.362616 159.756731,109.223444 159.455929,109.064225 C159.156844,108.901571 158.864049,108.632389 158.520929,108.381535 C158.166945,108.141562 157.83126,107.822553 157.515018,107.437107 C157.350321,107.252689 157.181049,107.062544 157.007773,106.868962 C156.869954,106.647889 156.729275,106.421662 156.585737,106.191998 C156.271211,105.74298 156.07163,105.221798 155.868617,104.69088 C155.63644,104.16798 155.579254,103.595253 155.43114,103.041998 C155.38825,102.481871 155.281312,101.913725 155.30533,101.36448 C155.301899,100.811798 155.318483,100.270571 155.388822,99.7556891 C155.489471,98.7179073 155.716501,97.7803527 155.930379,96.98598 C156.161984,96.1961891 156.386728,95.54958 156.573156,95.1017073 C156.76759,94.6498255 156.878532,94.3920982 156.878532,94.3920982 C157.083831,93.9155891 157.636254,93.6962345 158.112046,93.9018436 C158.587838,94.1074527 158.806862,94.6601345 158.601562,95.1366436 C158.592413,95.1578345 158.582691,95.1790255 158.571825,95.1990709 L158.562676,95.2168255 Z" id="Fill-31" fill="#415572" sketch:type="MSShapeGroup" mask="url(#mask-2)"></path>
                <path d="M155.790844,140.971091 C155.726795,140.971091 155.66103,140.965364 155.595266,140.951045 C154.998238,140.824473 140.840565,137.698527 132.015538,123.772664 C131.995523,123.741736 130.049465,120.734918 126.595397,119.902745 C126.092156,119.7819 125.782776,119.273891 125.90344,118.769891 C126.025819,118.267609 126.523914,117.959482 127.03459,118.076891 C131.246951,119.094055 133.505819,122.621482 133.599033,122.769818 C142.004883,136.031891 155.844027,139.084527 155.982991,139.113736 C156.48852,139.220264 156.812195,139.719109 156.7064,140.226545 C156.612614,140.668691 156.222602,140.971091 155.790844,140.971091" id="Fill-32" fill="#415572" sketch:type="MSShapeGroup" mask="url(#mask-2)"></path>
                <path d="M147.359317,131.047388 C147.209488,131.047388 147.055656,131.010734 146.914406,130.933988 C146.442045,130.676834 135.365583,124.467897 131.942396,106.068461 C131.164659,105.148088 128.51006,101.551361 130.616812,97.5290973 C130.856996,97.0709155 131.428289,96.8945155 131.881779,97.1350609 C132.339843,97.3750336 132.517121,97.9414609 132.275794,98.4013609 C130.512733,101.767852 133.373776,104.868025 133.496727,104.998034 C133.620821,105.129761 133.707173,105.296997 133.739769,105.476261 C136.938213,123.134588 147.701864,129.22497 147.809375,129.283961 C148.263436,129.533097 148.430421,130.102961 148.182803,130.557706 C148.012959,130.869843 147.692714,131.047388 147.359317,131.047388" id="Fill-33" fill="#415572" sketch:type="MSShapeGroup" mask="url(#mask-2)"></path>
                <path d="M173.251154,125.706248 C173.251154,125.706248 168.382863,130.660339 170.157362,132.627085 C171.965028,134.630485 173.969989,130.678094 173.251154,125.706248" id="Fill-34" fill="#FFFFFF" sketch:type="MSShapeGroup" mask="url(#mask-2)"></path>
                <path d="M172.459864,128.046297 C171.173166,129.723815 170.336527,131.427106 170.852922,131.998688 C170.922117,132.074288 171.09768,132.246679 171.182316,132.207734 C171.691276,131.967761 172.404965,130.391043 172.459864,128.046297 M171.13428,134.098306 C170.653341,134.098306 170.056313,133.914461 169.461573,133.258115 C167.209567,130.759879 171.667258,125.982188 172.582243,125.048643 C172.833292,124.793779 173.203289,124.702143 173.541833,124.814397 C173.880377,124.926079 174.127423,125.219315 174.178891,125.573261 C174.74275,129.467234 173.796313,133.051361 171.978353,133.907588 C171.80279,133.990061 171.502561,134.098306 171.13428,134.098306" id="Fill-35" fill="#415572" sketch:type="MSShapeGroup" mask="url(#mask-2)"></path>
                <path d="M146.897478,117.236929 C146.897478,117.236929 142.029188,122.19102 143.803686,124.157765 C145.611353,126.161165 147.616313,122.208775 146.897478,117.236929" id="Fill-36" fill="#FFFFFF" sketch:type="MSShapeGroup" mask="url(#mask-2)"></path>
                <path d="M146.107217,119.576405 C144.818233,121.253924 143.983881,122.954924 144.499704,123.528796 C144.555175,123.587787 144.735884,123.776787 144.827383,123.740133 C145.336343,123.499587 146.052318,121.922869 146.107217,119.576405 M144.781633,125.628415 C144.300694,125.628415 143.701951,125.444569 143.108927,124.786505 C140.855205,122.289987 145.312896,117.510005 146.229597,116.578751 C146.480646,116.323887 146.846639,116.228815 147.190902,116.346224 C147.527731,116.456187 147.774777,116.749424 147.826245,117.103369 C148.387817,121.000778 147.441951,124.583187 145.623991,125.439415 C145.448428,125.521887 145.148199,125.628415 144.781633,125.628415" id="Fill-37" fill="#415572" sketch:type="MSShapeGroup" mask="url(#mask-2)"></path>
                <path d="M172.536722,118.870576 C172.309692,119.429558 172.172444,120.115113 172.417774,120.751413 C172.450943,120.729649 172.489257,120.694713 172.527572,120.638013 C172.718004,120.363104 172.780337,119.776058 172.536722,118.870576 M172.337141,122.188958 C171.866496,122.188958 171.438169,121.955858 171.231725,121.541776 C170.100004,119.275495 172.055212,116.886649 172.139276,116.785849 C172.294823,116.600858 172.538438,116.51094 172.772903,116.538431 C173.012514,116.571649 173.217814,116.723995 173.318462,116.943922 C175.079236,120.798949 173.362496,121.860785 172.999933,122.034895 C172.782053,122.139131 172.555022,122.188958 172.337141,122.188958" id="Fill-38" fill="#415572" sketch:type="MSShapeGroup" mask="url(#mask-2)"></path>
                <path d="M134.803554,115.860265 C134.593107,115.860265 134.382661,115.790392 134.206526,115.645492 C133.807936,115.315601 133.750749,114.725692 134.080716,114.32421 C134.971682,113.242328 135.329098,112.186219 135.169547,111.099183 C134.861884,108.966919 132.619599,107.399365 132.597869,107.383328 C132.378272,107.234419 132.231875,106.999601 132.192988,106.737865 C129.83919,90.1682918 132.603015,77.0270645 132.632752,76.8970555 C132.740263,76.3907645 133.253226,76.0666009 133.745602,76.1782827 C134.25056,76.2865282 134.573092,76.7870918 134.463294,77.29281 C134.43756,77.4193827 131.786963,90.0508827 133.994364,106.088965 C134.790972,106.717819 136.679844,108.438865 137.025823,110.829428 C137.260287,112.44681 136.754758,114.025246 135.526391,115.519492 C135.341679,115.742855 135.072902,115.860265 134.803554,115.860265" id="Fill-39" fill="#415572" sketch:type="MSShapeGroup" mask="url(#mask-2)"></path>
                <path d="M86.0500229,63.4830955 C86.0500229,63.4830955 83.0688884,65.7780136 81.5877569,69.5127682 C80.1066254,73.24695 83.0162768,84.6035591 82.6502829,90.7712591 C82.2837171,96.9395318 81.5877569,122.252932 81.5877569,122.252932 L86.5841453,122.252932 C86.5841453,122.252932 86.5006529,92.3720318 86.5841453,86.6224227 C86.6676376,80.8733864 87.6049251,78.4278409 87.6049251,78.4278409 C87.6049251,78.4278409 95.2805031,93.71565 99.4677018,95.6251227" id="Fill-40" fill="#FFFFFF" sketch:type="MSShapeGroup" mask="url(#mask-2)"></path>
                <path d="M86.5832303,123.191689 L81.5874138,123.191689 C81.3352211,123.191689 81.0916064,123.089171 80.9160437,122.907616 C80.7399092,122.726062 80.6432639,122.480362 80.6506982,122.227216 C80.6575606,121.974644 81.3512333,96.8267618 81.713796,90.7163345 C81.8676278,88.1298982 81.4135667,84.4999527 80.974374,80.9891345 C80.3647654,76.1123618 79.7883251,71.5053436 80.7164627,69.1657527 C82.2742242,65.2368436 85.3497165,62.8394073 85.47953,62.7386073 C85.8912731,62.4213164 86.4791508,62.5020709 86.7919612,62.9104255 C87.1087746,63.3193527 87.0315728,63.9098345 86.6232609,64.2254073 C86.5940957,64.2471709 83.8211202,66.4252527 82.4589367,69.8587527 C81.7086492,71.7510436 82.2816584,76.3288527 82.8340804,80.7560345 C83.2847104,84.3510436 83.749637,88.0674709 83.5849398,90.8280164 C83.2646951,96.2253982 82.6825361,116.621362 82.5504352,121.314289 L85.6442272,121.314289 C85.6310743,116.186662 85.572744,91.7231891 85.6459428,86.60988 C85.7322945,80.7594709 86.6895972,78.1965164 86.7296278,78.09228 C86.8634443,77.7440618 87.1871202,77.5092436 87.5588327,77.4909164 C87.9248266,77.4284891 88.2748083,77.6741891 88.4412211,78.0063709 C90.5353924,82.1769709 96.669793,93.3176618 99.8567991,94.7700982 C100.326872,94.9842982 100.535603,95.5415618 100.321726,96.0129164 C100.107276,96.4877073 99.5542823,96.6933164 99.0802058,96.4785436 C95.5952578,94.8909436 90.3340957,85.6127618 87.948845,81.1283073 C87.7475483,82.4026255 87.5554015,84.2193164 87.5205177,86.6373709 C87.4398847,92.31138 87.5205177,121.952307 87.5205177,122.251271 C87.5205177,122.500407 87.4233006,122.738662 87.2477379,122.91678 C87.0698878,123.092607 86.8319917,123.191689 86.5832303,123.191689" id="Fill-41" fill="#415572" sketch:type="MSShapeGroup" mask="url(#mask-2)"></path>
                <path d="M124.149128,66.0534955 C128.720621,76.2852682 137.232838,73.0493591 137.232838,73.0493591 C133.743315,71.8729773 131.070988,68.3249318 129.070602,63.8479227 C127.045627,59.3165045 126.188401,54.9047864 127.712422,51.4976318 C127.920581,51.0320045 127.862823,50.4730227 127.494541,50.1190773 C127.494541,50.1190773 120.107755,57.0084136 124.149128,66.0534955" id="Fill-42" fill="#FFFFFF" sketch:type="MSShapeGroup" mask="url(#mask-2)"></path>
                <path d="M126.207329,53.1776127 C124.49402,55.7829491 122.60858,60.3074945 125.004696,65.66994 C127.681027,71.6572309 131.708103,72.6932945 134.355268,72.6050945 C132.019198,70.9424673 129.961626,68.1389673 128.215721,64.2306764 C126.283959,59.9077309 125.612589,56.2027582 126.207329,53.1776127 M134.140819,74.4515673 C130.964678,74.4515673 126.293109,73.14804 123.294819,66.4362491 C119.028131,56.8900309 126.776907,49.5052855 126.855253,49.4319764 C127.217816,49.0929218 127.785106,49.0986491 128.144238,49.4434309 C128.777293,50.0516673 128.947709,51.0327491 128.566846,51.8832491 C127.300164,54.7136673 127.757657,58.6116491 129.925027,63.4643673 C132.066663,68.2546582 134.625761,71.1807218 137.530837,72.1595127 C137.906553,72.2860855 138.162748,72.6343036 138.170183,73.0306309 C138.177045,73.4263855 137.935718,73.7860582 137.565721,73.9269491 C137.529121,73.9395491 136.126907,74.4515673 134.140819,74.4515673" id="Fill-43" fill="#415572" sketch:type="MSShapeGroup" mask="url(#mask-2)"></path>
                <path d="M98.7092367,121.696985 C98.7092367,108.01224 99.8278055,80.8019673 101.207145,80.8019673 C102.587056,80.8019673 103.705053,108.01224 103.705053,121.696985" id="Fill-44" fill="#FFFFFF" sketch:type="MSShapeGroup" mask="url(#mask-2)"></path>
                <path d="M103.706197,122.636201 C103.188087,122.636201 102.768909,122.216392 102.768909,121.697501 C102.768909,109.67481 102.040353,92.28051 101.207717,84.8665555 C100.374509,92.28051 99.6459523,109.67481 99.6459523,121.697501 C99.6459523,122.216392 99.2267749,122.636201 98.7086648,122.636201 C98.1905547,122.636201 97.7713774,122.216392 97.7713774,121.697501 C97.7713774,114.622601 98.0664599,104.323246 98.503937,96.0679555 C99.3657382,79.86321 100.138328,79.86321 101.207717,79.86321 C102.276533,79.86321 103.049124,79.86321 103.911497,96.0679555 C104.348974,104.323246 104.643484,114.622601 104.643484,121.697501 C104.643484,122.216392 104.224307,122.636201 103.706197,122.636201" id="Fill-45" fill="#415572" sketch:type="MSShapeGroup" mask="url(#mask-2)"></path>
                <path d="M81.1645193,64.9493918 C81.1645193,64.9493918 89.1506202,94.8234191 103.080691,98.2322918 C103.080691,98.2322918 106.28714,95.8978555 109.03095,94.7644282 C111.774761,93.6304282 123.84684,89.3137827 131.721999,82.9891555 C139.596587,76.6645282 140.740317,70.5426464 140.740317,70.5426464 L129.301293,49.9731464 C129.301293,49.9731464 114.440226,40.1079191 81.1645193,64.9493918" id="Fill-46" fill="#F06E46" sketch:type="MSShapeGroup" mask="url(#mask-2)"></path>
                <path d="M82.2430003,65.31777 C83.4547832,69.5015427 90.9748138,93.7909064 102.895349,97.2135245 C103.832636,96.55947 106.378581,94.8430064 108.674049,93.8974336 C108.994866,93.7634155 109.443208,93.5875882 109.996202,93.3710973 C114.270324,91.6918609 124.281401,87.7612336 131.135208,82.2573245 C137.620734,77.0472245 139.383795,71.9614064 139.742355,70.6767791 L128.606991,50.6548064 C127.796086,50.2132336 124.186471,48.5082245 117.56141,49.1004245 C110.601808,49.71267 98.8476853,53.03277 82.2430003,65.31777 M103.080061,99.1716791 C103.005147,99.1716791 102.931948,99.1625155 102.857034,99.1441882 C88.5529636,95.6425336 80.5920248,66.4340155 80.2586272,65.1911973 C80.1596945,64.8212155 80.2969422,64.4266064 80.6046058,64.1957973 C114.023279,39.2443609 129.18915,48.7722518 129.818774,49.1903427 C129.943441,49.2728155 130.045805,49.3844973 130.119003,49.5162245 L141.5586,70.0862973 C141.664395,70.2770155 141.700994,70.5003791 141.660964,70.7151518 C141.611211,70.9791791 140.361113,77.2528336 132.306961,83.7206427 C125.231841,89.4038155 115.033765,93.4077518 110.680725,95.1184882 C110.140312,95.33097 109.702835,95.5033609 109.388309,95.6316518 C106.783462,96.7078064 103.66222,98.9700791 103.63134,98.9918427 C103.470074,99.1092518 103.276211,99.1716791 103.080061,99.1716791" id="Fill-47" fill="#415572" sketch:type="MSShapeGroup" mask="url(#mask-2)"></path>
                <path d="M112.74596,80.6867918 C112.766547,80.56881 112.709932,80.4473918 112.606425,80.3878282 C112.501773,80.3271191 112.366813,80.3402918 112.275315,80.4187555 C112.183244,80.4977918 112.150648,80.6300918 112.194682,80.7423464 C112.238715,80.8540282 112.349657,80.92791 112.469177,80.9256191 C112.604709,80.9221827 112.722513,80.8202373 112.74596,80.6867918 C112.773409,80.5298645 112.71851,80.8437191 112.74596,80.6867918" id="Fill-48" fill="#FFFFFF" sketch:type="MSShapeGroup" mask="url(#mask-2)"></path>
                <path d="M108.792597,78.4174745 C108.819475,78.4776109 108.846924,78.5371745 108.876089,78.5961655 C108.933848,78.7135745 108.996181,78.8292655 109.063089,78.9420927 C109.116845,79.0325836 108.952719,78.7559564 109.063089,78.9420927 C109.129998,79.05492 109.062517,79.2049745 108.933276,79.2290291 C108.874374,79.2399109 108.81204,79.2221564 108.768007,79.18092 C108.740557,79.15572 108.723401,79.1213564 108.705102,79.0892836 C108.682799,79.0514836 108.661068,79.0131109 108.639909,78.9741655 C108.472352,78.6683291 108.334533,78.3447382 108.227594,78.0125564 C108.130949,77.7113018 108.060609,77.4014564 108.020007,77.0881745 C107.98112,76.7823382 107.969683,76.4730655 107.986839,76.1660836 C108.004566,75.8539473 108.052603,75.5452473 108.122943,75.2411291 C108.202432,74.8957745 108.317377,74.5584382 108.463774,74.2359927 C108.610172,73.9152655 108.788022,73.6094291 108.994465,73.3242109 C109.204912,73.0338382 109.445095,72.7652291 109.709869,72.5235382 C109.980933,72.2766927 110.27716,72.0584836 110.592829,71.8734927 C110.914218,71.6850655 111.25505,71.5310018 111.608462,71.4135927 C111.956728,71.2984745 112.317004,71.2194382 112.681282,71.1787745 C113.038126,71.1392564 113.398973,71.1363927 113.756389,71.1707564 C114.110946,71.2045473 114.462071,71.27442 114.802903,71.3786564 C115.140303,71.48232 115.467982,71.6197745 115.777933,71.7881564 C116.091316,71.9582564 116.387542,72.1604291 116.660322,72.3906655 C116.937676,72.6243382 117.191013,72.88722 117.41404,73.1730109 C117.641643,73.4645291 117.838365,73.7806745 118.000202,74.1128564 C118.162612,74.4461836 118.290138,74.7966927 118.379921,75.1563655 C118.466845,75.5063018 118.517741,75.8659745 118.531465,76.22622 C118.54519,76.5824564 118.522316,76.9398382 118.463985,77.29092 C118.406227,77.6414291 118.312441,77.9856382 118.186059,78.31782 C118.132875,78.4569927 118.073973,78.5892927 117.977328,78.7038382 C117.893264,78.8040655 117.789184,78.8871109 117.673667,78.9472473 C117.437487,79.0709564 117.157273,79.0955836 116.903936,79.0154018 C116.60771,78.9209018 116.368098,78.6912382 116.261731,78.3991473 C116.210264,78.2582564 116.19082,78.1064836 116.205117,77.9575745 C116.212551,77.8802564 116.228563,77.8040836 116.253725,77.7307745 C116.281747,77.6477291 116.317774,77.5675473 116.345796,77.4845018 C116.460169,77.1506018 116.520215,76.7978018 116.52193,76.4444291 C116.524218,76.08132 116.464172,75.7187836 116.346939,75.37572 C116.226848,75.0252109 116.048426,74.69532 115.81968,74.4043745 C115.596652,74.1214473 115.32616,73.87632 115.023071,73.6821655 C114.725701,73.4908745 114.39745,73.3494109 114.054903,73.2629291 C113.708352,73.1753018 113.347505,73.1449473 112.991233,73.1747291 C112.628098,73.2045109 112.271254,73.2972927 111.938429,73.4456291 C111.602744,73.5945382 111.292793,73.7995745 111.025731,74.0515745 C110.767248,74.2949836 110.549939,74.5813473 110.383527,74.8946291 C110.217686,75.2073382 110.103313,75.5463927 110.045554,75.8957564 C109.98608,76.2525655 109.98608,76.6185382 110.046698,76.9753473 C110.108459,77.3401745 110.233698,77.6952655 110.413264,78.0188564 C110.588254,78.3344291 110.815857,78.6207927 111.084634,78.8619109 C111.112655,78.8871109 111.14468,78.91002 111.166982,78.9409473 C111.185282,78.9672927 111.197291,78.99822 111.200722,79.02972 C111.208157,79.0938655 111.182423,79.1580109 111.133242,79.1992473 C111.084634,79.2399109 111.018297,79.2536564 110.95768,79.2364745 C110.922796,79.2267382 110.895918,79.2066927 110.868469,79.1832109 C110.835872,79.1545745 110.803276,79.1253655 110.771251,79.0955836 C110.505906,78.84702 110.278875,78.5583655 110.098738,78.24222 C109.915741,77.92092 109.781352,77.5715564 109.701863,77.2101655 C109.67041,77.2748836 109.63667,77.3384564 109.601215,77.4003109 C109.565187,77.4638836 109.5263,77.5263109 109.48627,77.58702 C109.480551,77.5956109 109.463967,77.6202382 109.463967,77.6202382 C109.463967,77.6202382 109.466254,77.6271109 109.469686,77.6379927 C109.475404,77.6557473 109.481123,77.6740745 109.486842,77.6918291 C109.498851,77.7273382 109.511432,77.7628473 109.524013,77.7983564 C109.576624,77.9421109 109.637242,78.0824291 109.705866,78.2193109 C109.840826,78.4890655 110.006667,78.7433564 110.198814,78.9758836 C110.385242,79.2015382 110.596832,79.4054291 110.827866,79.58412 C111.054325,79.7593745 111.299655,79.9094291 111.558138,80.0319927 C111.621615,80.0623473 111.686808,80.0909836 111.752001,80.1179018 C111.809759,80.1413836 111.872092,80.1585655 111.921273,80.1986564 C112.007053,80.2685291 112.045939,80.3859382 112.019062,80.4936109 C111.991612,80.6012836 111.901829,80.6854745 111.792031,80.7060927 C111.735988,80.7164018 111.680517,80.7083836 111.627906,80.6883382 C111.561569,80.6625655 111.496377,80.6356473 111.431184,80.6070109 C111.170413,80.4924655 110.919936,80.3538655 110.6849,80.1923564 C110.446432,80.0285564 110.223404,79.84242 110.01982,79.6362382 C109.811089,79.4243291 109.623517,79.1918018 109.459964,78.9432382 C109.291835,78.6872291 109.149441,78.4140382 109.035068,78.1299655 C108.983028,78.1803655 108.929845,78.2290473 108.874374,78.2754382 C108.850355,78.2960564 108.825193,78.3166745 108.800603,78.33672 C108.792597,78.34302 108.768579,78.36192 108.768579,78.36192 L108.792597,78.4174745 Z" id="Fill-49" fill="#FFFFFF" sketch:type="MSShapeGroup" mask="url(#mask-2)"></path>
                <path d="M110.879391,80.7076964 C110.556287,80.52786 110.25377,80.3113691 109.979275,80.0633782 C109.842027,79.9385236 109.711642,79.8062236 109.589835,79.6670509 C109.528073,79.5971782 109.468599,79.5250145 109.411413,79.4517055 C109.386822,79.4196327 109.36452,79.3852691 109.33078,79.3617873 C109.301614,79.3423145 109.267874,79.3302873 109.232419,79.3285691 C109.158076,79.32456 109.085449,79.3657964 109.051709,79.4328055 C109.012822,79.5089782 109.032266,79.5880145 109.082018,79.6527327 C109.194104,79.7993509 109.314195,79.9396691 109.44115,80.0736873 C109.696202,80.3422964 109.979847,80.5834145 110.285795,80.7918873 C110.362425,80.8440055 110.439627,80.8938327 110.518544,80.9419418 C110.559146,80.9665691 110.599177,80.9900509 110.640351,81.0135327 C110.675807,81.0341509 110.711263,81.05706 110.752437,81.0645055 C110.824492,81.0776782 110.899406,81.0467509 110.942296,80.9871873 C110.984614,80.9276236 110.989189,80.8474418 110.954306,80.7827236 C110.936578,80.7512236 110.910844,80.7254509 110.879391,80.7076964 C110.288654,80.3783782 110.972033,80.7592418 110.879391,80.7076964" id="Fill-50" fill="#FFFFFF" sketch:type="MSShapeGroup" mask="url(#mask-2)"></path>
                <path d="M111.657357,81.0567736 C111.588161,81.0327191 111.520109,81.0069464 111.452057,80.9800282 C111.396014,80.9576918 111.342259,80.9290555 111.280498,80.9376464 C111.167268,80.95311 111.090638,81.0682282 111.120947,81.1787645 C111.138675,81.24291 111.18614,81.2858645 111.246186,81.3110645 C111.312522,81.3385555 111.380002,81.3649009 111.447482,81.3895282 C111.505241,81.4107191 111.563571,81.43821 111.626476,81.4273282 C111.677372,81.4187373 111.723121,81.3895282 111.752287,81.3471464 C111.823198,81.2446282 111.775161,81.0974373 111.657357,81.0567736 C111.564143,81.0247009 111.757433,81.09171 111.657357,81.0567736" id="Fill-51" fill="#FFFFFF" sketch:type="MSShapeGroup" mask="url(#mask-2)"></path>
                <path d="M112.176496,79.5092645 C112.012943,79.4514191 111.855108,79.3832645 111.703564,79.2985009 C111.661817,79.2755918 111.620643,79.2515373 111.579469,79.2274827 C111.545157,79.2074373 111.507986,79.1959827 111.468527,79.1977009 C111.387322,79.2011373 111.315267,79.2572645 111.292392,79.3357282 C111.264943,79.4273645 111.310692,79.5149918 111.390753,79.5619555 C111.467955,79.6072009 111.545729,79.6513009 111.625218,79.6925373 C111.700132,79.73091 111.776762,79.7658464 111.854536,79.7979191 C111.899713,79.8162464 111.945463,79.8340009 111.991212,79.85061 C112.034102,79.8666464 112.07642,79.8849736 112.122741,79.88211 C112.213668,79.8775282 112.289726,79.8070827 112.302307,79.7171645 C112.31546,79.6278191 112.261704,79.5390464 112.176496,79.5092645 C111.924304,79.4199191 112.276573,79.5447736 112.176496,79.5092645" id="Fill-52" fill="#FFFFFF" sketch:type="MSShapeGroup" mask="url(#mask-2)"></path>
                <path d="M114.401167,75.9247936 C114.295944,75.6894027 114.118094,75.4895209 113.895638,75.3589391 C113.679473,75.2312209 113.425565,75.1710845 113.174516,75.1894118 C112.914317,75.2077391 112.662124,75.3102573 112.461972,75.4780664 C112.269825,75.6395755 112.129146,75.8595027 112.062238,76.1017664 C111.993614,76.3486118 112.003335,76.6137845 112.089687,76.8549027 C112.177183,77.0994573 112.340736,77.3136573 112.554614,77.4614209 C112.760485,77.60403 113.008103,77.6819209 113.258008,77.6830664 C113.518207,77.6847845 113.77669,77.6017391 113.988852,77.4499664 C114.194724,77.3027755 114.352559,77.0925845 114.437767,76.8537573 C114.522975,76.6143573 114.533268,76.3509027 114.465788,76.1057755 C114.449204,76.0439209 114.427473,75.9832118 114.401167,75.9247936" id="Fill-53" fill="#FFFFFF" sketch:type="MSShapeGroup" mask="url(#mask-2)"></path>
                <path d="M129.301064,49.9733755 C129.301064,49.9733755 126.360532,48.3640118 122.940777,48.3382391 C122.940777,48.3382391 119.593076,58.5751664 120.153505,61.2200209 C120.681908,63.7131027 124.563159,63.7743845 125.260835,66.5532573 C125.95222,69.30693 120.066581,71.6929118 120.066581,71.6929118 L121.282367,74.4145118 C121.282367,74.4145118 125.447263,71.6826027 127.198887,72.09783 C128.963664,72.5164936 128.740636,75.1991482 127.708419,76.4454027 C127.708419,76.4454027 134.205382,77.6847845 137.416979,76.7392118 C140.628575,75.7936391 140.120758,72.6190118 140.120758,72.6190118 C140.120758,72.6190118 132.002557,71.6952027 129.625884,67.0744391 C125.809826,59.6564755 126.383979,57.62673 129.301064,49.9733755" id="Fill-54" fill="#FFFFFF" sketch:type="MSShapeGroup" mask="url(#mask-2)"></path>
                <path d="M129.154495,75.7328155 C131.149734,76.02777 135.012113,76.4659064 137.153749,75.8393427 C138.761263,75.36627 139.136406,74.1853064 139.206174,73.43217 C136.99477,73.05417 130.928422,71.6572882 128.791932,67.5050155 C124.975302,60.0836155 125.411064,57.6231791 128.116559,50.4514882 C127.197572,50.0534427 125.509997,49.4411973 123.615406,49.3037427 C122.367024,53.2383791 120.721195,59.3762973 121.070605,61.0257518 C121.244452,61.8453245 122.085094,62.3498973 123.056694,62.9329336 C124.243315,63.6442609 125.720443,64.5296973 126.170501,66.3240518 C126.869893,69.1092245 123.126461,71.2890245 121.30507,72.1670155 L121.700229,73.0524518 C123.175642,72.1819064 125.833672,70.8027791 127.415452,71.1842155 C128.303559,71.3932609 128.958917,72.0077973 129.260862,72.9115609 C129.540504,73.74717 129.482174,74.7998427 129.154495,75.7328155 M134.192058,78.0317427 C131.061666,78.0317427 127.728263,77.4046064 127.532685,77.3679518 C127.206721,77.3055245 126.937945,77.0764336 126.825859,76.7631518 C126.714345,76.4515882 126.774963,76.10337 126.987125,75.8462155 C127.472067,75.2614609 127.704816,74.1669791 127.482932,73.5071973 C127.362269,73.1440882 127.151822,73.0507336 126.983694,73.01007 C126.132186,72.8033155 123.633706,73.9945882 121.797446,75.1996064 C121.566984,75.3496609 121.285055,75.3954791 121.019709,75.3147245 C120.756079,75.2379791 120.539914,75.0489791 120.4284,74.7975518 L119.212614,72.0770973 C119.108535,71.84457 119.102816,71.5805427 119.198318,71.3440064 C119.293247,71.10747 119.480247,70.9201882 119.716428,70.8251155 C121.78315,69.9814882 124.688226,68.1155427 124.351397,66.7828064 C124.091198,65.7410155 123.164776,65.1860427 122.094244,64.5440155 C120.915058,63.8366973 119.580896,63.03717 119.236633,61.4146336 C118.641893,58.6042609 121.700229,49.1187518 122.050211,48.0460336 C122.176593,47.6594427 122.536868,47.3988518 122.941749,47.3988518 L122.949183,47.3988518 C126.562229,47.4263427 129.621137,49.0780882 129.751523,49.1496791 C130.16155,49.3753336 130.344547,49.8684518 130.175847,50.3083064 C127.269055,57.94047 126.835009,59.5996609 130.457776,66.6453518 C132.581113,70.7718518 140.150896,71.6796245 140.227526,71.6864973 C140.644987,71.7346064 140.980101,72.0553336 141.047581,72.4711336 C141.267177,73.8519791 140.848,76.7064518 137.681009,77.6394245 C136.701975,77.9292245 135.464458,78.0317427 134.192058,78.0317427" id="Fill-55" fill="#415572" sketch:type="MSShapeGroup" mask="url(#mask-2)"></path>
                <path d="M128.180151,64.0160182 C128.180151,64.0160182 127.061582,66.8773636 124.114187,69.2066455" id="Fill-56" fill="#FFFFFF" sketch:type="MSShapeGroup" mask="url(#mask-2)"></path>
                <path d="M124.114988,70.1448873 C123.838777,70.1448873 123.56371,70.0223236 123.378997,69.7875055 C123.058753,69.3802964 123.12852,68.7898145 123.534545,68.4690873 C126.251477,66.3242236 127.298563,63.70056 127.307713,63.6730691 C127.495857,63.1914055 128.037985,62.9525782 128.522927,63.1415782 C129.004438,63.3305782 129.242334,63.8752418 129.053618,64.3591964 C129.004438,64.4851964 127.806951,67.4845691 124.695431,69.9432873 C124.5233,70.0790236 124.318,70.1448873 124.114988,70.1448873" id="Fill-57" fill="#415572" sketch:type="MSShapeGroup" mask="url(#mask-2)"></path>
                <path d="M122.866263,73.4774155 C122.866263,73.4774155 128.177749,70.5702518 133.367428,70.5427609" id="Fill-58" fill="#FFFFFF" sketch:type="MSShapeGroup" mask="url(#mask-2)"></path>
                <path d="M122.868379,74.4165164 C122.534981,74.4165164 122.214736,74.2406891 122.044892,73.9268345 C121.795559,73.4720891 121.961972,72.9022255 122.416033,72.6548073 C122.641348,72.5299527 127.99744,69.6336709 133.360966,69.6038891 L133.366684,69.6038891 C133.883079,69.6038891 134.299969,70.0202618 134.303972,70.5374345 C134.305687,71.0563255 133.888226,71.4795709 133.371831,71.4812891 C128.4881,71.5070618 123.366473,74.2733345 123.315006,74.3008255 C123.174327,74.3798618 123.018207,74.4165164 122.868379,74.4165164" id="Fill-59" fill="#415572" sketch:type="MSShapeGroup" mask="url(#mask-2)"></path>
                <path d="M130.769043,103.529446 C130.664963,103.529446 130.558596,103.511119 130.453945,103.474465 C126.558969,102.081019 125.947645,98.9608009 126.194691,97.1183373 C113.151584,82.7068009 116.382624,67.07421 116.527306,66.4104191 C116.637104,65.9047009 117.136914,65.5856918 117.642443,65.6956555 C118.147401,65.8056191 118.467645,66.3061827 118.357847,66.8119009 C118.324679,66.9659645 115.163407,82.4301736 127.891416,96.19281 C128.107581,96.4270555 128.18993,96.7552282 128.111012,97.0650736 C128.030379,97.3972555 127.417339,100.394337 131.084141,101.707028 C131.572514,101.881137 131.825278,102.418355 131.651431,102.906319 C131.514183,103.291192 131.153336,103.529446 130.769043,103.529446" id="Fill-60" fill="#415572" sketch:type="MSShapeGroup" mask="url(#mask-2)"></path>
                <path d="M84.6053193,120.842362 C84.6053193,120.842362 88.8977413,121.164807 90.3680073,122.093198 C91.8377015,123.021589 81.5875853,122.252989 81.5875853,122.252989" id="Fill-61" fill="#FFFFFF" sketch:type="MSShapeGroup" mask="url(#mask-2)"></path>
                <path d="M87.9615976,123.503367 C86.5319339,123.503367 84.4800807,123.411731 81.5178177,123.190085 C81.0019951,123.149422 80.6136985,122.700404 80.6520135,122.183231 C80.6926159,121.666631 81.1352398,121.272022 81.6573529,121.316122 C82.3893407,121.371104 83.1493498,121.420931 83.9030685,121.464458 C83.7423743,121.281185 83.6525914,121.035485 83.6708911,120.773749 C83.7109217,120.254858 84.1707015,119.860822 84.6756587,119.90664 C85.1388697,119.941004 89.2465792,120.274904 90.866674,121.299513 C91.4471174,121.66434 91.5220318,122.198122 91.3973651,122.573831 C91.2383865,123.061795 91.091989,123.503367 87.9615976,123.503367" id="Fill-62" fill="#415572" sketch:type="MSShapeGroup" mask="url(#mask-2)"></path>
                <path d="M101.721023,120.405944 C101.721023,120.405944 106.013445,120.728389 107.483711,121.65678 C108.953406,122.585171 98.709008,121.816571 98.709008,121.816571" id="Fill-63" fill="#FFFFFF" sketch:type="MSShapeGroup" mask="url(#mask-2)"></path>
                <path d="M105.080904,123.067006 C103.651241,123.067006 101.599387,122.97537 98.6394119,122.753725 C98.1230174,122.713061 97.7347208,122.264043 97.7736076,121.74687 C97.8136382,121.23027 98.2619807,120.83967 98.7783752,120.879761 C99.5086474,120.934743 100.268657,120.98457 101.02066,121.026379 C100.857678,120.844825 100.767895,120.597406 100.786195,120.335097 C100.826797,119.818497 101.276855,119.429615 101.791534,119.467988 C102.254745,119.502925 106.362455,119.838543 107.984265,120.863152 C108.564709,121.23027 108.639623,121.761761 108.514956,122.13747 C108.35369,122.625434 108.20958,123.067006 105.080904,123.067006" id="Fill-64" fill="#415572" sketch:type="MSShapeGroup" mask="url(#mask-2)"></path>
                <path d="M159.510142,42.2060482 C160.690472,46.0559209 160.22383,50.3845936 157.862026,53.9967845 L149.500781,66.7840664 C145.288992,73.2249573 137.650586,73.40823 131.219387,69.1906664 C124.788188,64.97253 121.902555,57.8873209 126.114344,51.44643 L134.476161,38.6585755 C138.657641,32.26293 147.272794,30.4244755 153.690268,34.5286391" id="Fill-65" fill="#FFFFFF" sketch:type="MSShapeGroup" mask="url(#mask-2)"></path>
                <path d="M139.914487,72.9608155 C136.94193,72.9608155 133.764074,71.9797336 130.705165,69.9746155 C127.292844,67.7375427 124.834395,64.7055245 123.783878,61.4404064 C122.633857,57.8705973 123.168551,54.2372155 125.330202,50.9320064 L133.692591,38.1447245 C138.147994,31.3298427 147.348165,29.3590882 154.196254,33.7370155 C154.632016,34.0176518 154.760113,34.5972518 154.482187,35.0353882 C154.200257,35.4752427 153.621529,35.59437 153.185768,35.3211791 C147.198337,31.4896336 139.155049,33.2164064 135.259502,39.17277 L126.897685,51.9600518 C125.057994,54.7744336 124.598214,57.85227 125.56867,60.8648155 C126.487658,63.7227245 128.676759,66.40137 131.731664,68.40477 C134.788857,70.4087427 138.117113,71.3514518 141.09882,71.05077 C144.243508,70.7369155 146.878092,69.0834518 148.717783,66.26907 L157.0796,53.4817882 C159.202936,50.2349973 159.763364,46.2236155 158.61563,42.48027 C158.463514,41.9854336 158.739725,41.4608155 159.236104,41.30847 C159.731912,41.15097 160.25574,41.4333245 160.405569,41.9304518 C161.718,46.2092973 161.077511,50.7945518 158.646511,54.5104064 L150.284694,67.2994064 C147.844545,71.0324427 144.082814,72.9608155 139.914487,72.9608155" id="Fill-66" fill="#415572" sketch:type="MSShapeGroup" mask="url(#mask-2)"></path>
                <path d="M163.981215,37.3329982 C161.259707,37.8158073 157.38246,36.8324345 153.67334,34.5100255" id="Fill-67" fill="#FFFFFF" sketch:type="MSShapeGroup" mask="url(#mask-2)"></path>
                <path d="M162.525417,38.3919709 C159.72442,38.3919709 156.352702,37.2940527 153.176561,35.3043982 C152.737368,35.0294891 152.603552,34.4504618 152.878619,34.0123255 C153.15483,33.57018 153.735273,33.4401709 154.168747,33.7133618 C157.553619,35.8324527 161.254732,36.8667982 163.816117,36.4086164 C164.330224,36.3238527 164.811735,36.6560345 164.903234,37.16748 C164.994732,37.6789255 164.654472,38.1663164 164.145512,38.2562345 C163.63312,38.3478709 163.090992,38.3919709 162.525417,38.3919709" id="Fill-68" fill="#415572" sketch:type="MSShapeGroup" mask="url(#mask-2)"></path>
                <path d="M167.879336,43.2662236 C165.157828,43.7490327 161.28058,42.76566 157.571461,40.4432509" id="Fill-69" fill="#FFFFFF" sketch:type="MSShapeGroup" mask="url(#mask-2)"></path>
                <path d="M166.42634,44.3263991 C163.623628,44.3263991 160.250193,43.2284809 157.075768,41.2388264 C156.636576,40.9639173 156.502759,40.38489 156.777254,39.9467536 C157.054037,39.5046082 157.636196,39.3745991 158.067955,39.64779 C161.451111,41.7651627 165.148793,42.8012264 167.71704,42.3424718 C168.211132,42.2382355 168.710943,42.5921809 168.802441,43.1036264 C168.892224,43.6133536 168.55368,44.1007445 168.043004,44.1906627 C167.531756,44.2822991 166.990199,44.3263991 166.42634,44.3263991" id="Fill-70" fill="#415572" sketch:type="MSShapeGroup" mask="url(#mask-2)"></path>
                <path d="M133.300234,60.5098391 C133.729133,62.2904482 134.879154,63.9799936 136.637069,65.1334664 C138.064445,66.0693027 139.654231,66.4959845 141.165671,66.4536027" id="Fill-71" fill="#FFFFFF" sketch:type="MSShapeGroup" mask="url(#mask-2)"></path>
                <path d="M140.957912,67.3967127 C139.266334,67.3967127 137.60049,66.8869855 136.123362,65.9173582 C134.219622,64.6705309 132.894609,62.8263491 132.38908,60.7290218 C132.268417,60.2250218 132.577796,59.7170127 133.081038,59.5961673 C133.589998,59.4804764 134.089808,59.7886036 134.212187,60.2891673 C134.603915,61.9208673 135.64757,63.3618491 137.150432,64.3480855 C138.37308,65.1510491 139.744414,65.5393582 141.140909,65.5158764 C141.66245,65.5668491 142.089062,65.9099127 142.103931,66.4288036 C142.118227,66.9459764 141.710487,67.3783855 141.192377,67.3932764 C141.11346,67.3949945 141.03683,67.3967127 140.957912,67.3967127" id="Fill-72" fill="#415572" sketch:type="MSShapeGroup" mask="url(#mask-2)"></path>
                <path d="M86.6293798,66.3465027 C86.6293798,66.3465027 87.1572116,68.2336391 88.2191657,71.0325573 C89.2862667,73.8142936 90.9046459,77.4619936 92.9239028,80.8760209 C93.4237131,81.7311027 93.9807101,82.5489573 94.4976765,83.3754027 C95.0729731,84.1577482 95.6168171,84.9481118 96.1846795,85.6766209 C96.7851382,86.3764936 97.3306979,87.0883936 97.9094257,87.7023573 C98.5035939,88.3008573 99.0651657,88.8661391 99.5832758,89.3884664 C100.14542,89.8592482 100.66067,90.2905118 101.117019,90.6730936 C101.560787,91.0757209 102.029144,91.3042391 102.372835,91.5562391 C103.083092,92.0270209 103.489117,92.2962027 103.489117,92.2962027 L103.558313,92.3414482 C103.859114,92.54133 103.942034,92.9468209 103.743025,93.2486482 C103.546303,93.5458936 103.147713,93.6300845 102.848056,93.4399391 C102.848056,93.4399391 102.410007,93.1621664 101.644279,92.6759209 C101.274282,92.4164755 100.767609,92.1724936 100.292389,91.7589845 C99.8028722,91.36323 99.2504502,90.91593 98.647704,90.4285391 C98.0792697,89.9062118 97.4942514,89.3077118 96.8594807,88.6908845 C96.2424379,88.0580209 95.6619945,87.3306573 95.0237927,86.6095936 C94.4193309,85.8627573 93.8423187,85.0563573 93.2321382,84.2533936 C92.6831474,83.4114845 92.0924104,82.5741573 91.5617193,81.7024664 C89.4200832,78.2220027 87.7004838,74.5181755 86.5567529,71.6866118 C85.4244593,68.85963 84.830863,66.8757027 84.830863,66.8757027 C84.6787468,66.3802936 84.9561015,65.8551027 85.4507651,65.7021845 C85.9454287,65.5498391 86.4704012,65.8281845 86.6225174,66.3235936 C86.6236612,66.32703 86.6282361,66.3424936 86.6293798,66.3465027" id="Fill-73" fill="#415572" sketch:type="MSShapeGroup" mask="url(#mask-2)"></path>
                <path d="M130.292393,45.0565118 C130.292393,45.0565118 130.268946,40.1018482 127.812784,40.4414755 C124.685252,40.8738845 126.078317,46.1046027 128.174203,48.29643 L130.292393,45.0565118 Z" id="Fill-74" fill="#FFFFFF" sketch:type="MSShapeGroup" mask="url(#mask-2)"></path>
                <path d="M128.04885,41.3637382 C128.013967,41.3637382 127.979083,41.3654564 127.940768,41.3711836 C127.464976,41.4370473 127.195627,41.6535382 127.044083,42.0916745 C126.66322,43.1861564 127.172181,45.1878382 128.109468,46.6803655 L129.348701,44.7863564 C129.298948,43.64262 128.997003,42.0183655 128.402263,41.5011927 C128.292465,41.40612 128.184383,41.3637382 128.04885,41.3637382 M128.173517,49.2341564 C127.919037,49.2341564 127.673707,49.12992 127.495857,48.9443564 C125.824866,47.1952473 124.499282,43.6976018 125.273587,41.4737018 C125.656165,40.3700564 126.51282,39.67362 127.684572,39.5121109 C128.402263,39.4187564 129.083355,39.6094745 129.63063,40.0842655 C131.168376,41.4204382 131.228422,44.6838382 131.230138,45.0521018 C131.230138,45.2359473 131.177526,45.4169291 131.076306,45.5709927 L128.956973,48.8109109 C128.801425,49.0491655 128.542942,49.2049473 128.259297,49.23072 C128.230132,49.2324382 128.202682,49.2341564 128.173517,49.2341564" id="Fill-75" fill="#415572" sketch:type="MSShapeGroup" mask="url(#mask-2)"></path>
                <path d="M4.65875902,123.108873 C4.65875902,123.108873 74.341707,133.483255 86.0500801,136.266136 C97.7578813,139.048445 99.467759,144.4968 99.467759,144.4968 C99.467759,144.4968 106.875704,152.775573 107.627707,153.108327 C108.380282,153.441082 107.500181,175.482491 107.627707,177.602727 C107.755233,179.723536 100.282667,186.496609 101.207374,188.428991 C102.13208,190.361373 101.207374,197.244982 101.207374,197.244982 C101.207374,197.244982 94.2649272,205.964182 94.4496398,208.488191 C94.6337804,211.0122 90.763967,225.215836 90.5123462,228.439145 C90.2601535,231.662455 85.7304073,242.926282 85.7304073,242.926282 L89.7025847,248.782418 L94.4496398,240.110182 C94.4496398,240.110182 96.7531138,240.1875 101.207374,229.659055 C105.661634,219.130036 114.200728,199.313673 114.200728,199.313673 L112.753909,195.367582 C112.753909,195.367582 125.260034,180.348382 125.250313,177.846136 C125.241163,175.343891 124.908337,162.9495 123.985918,158.508 C123.063499,154.067073 129.857261,139.207664 129.846967,130.993036 L129.836673,122.778409 L4.65875902,123.108873 Z" id="Fill-76" fill="#F1F2F2" sketch:type="MSShapeGroup" mask="url(#mask-2)"></path>
                <path d="M88.386322,252 C88.2307746,252 88.0712242,251.961627 87.9271141,251.879155 C87.4764841,251.626009 87.315218,251.052136 87.5696982,250.6014 C88.1535728,249.559609 93.3524015,240.373064 95.7816859,238.437245 C97.4200804,237.022036 105.873395,216.431918 110.817744,203.785527 L113.177261,199.248382 L111.87398,195.690027 C111.755031,195.363573 111.826515,194.997027 112.059264,194.738155 C115.308031,191.141427 123.844267,181.072882 124.321775,177.714409 C124.499625,176.467582 124.202827,174.2202 123.858564,171.616582 C123.036793,165.391036 121.91079,156.865991 125.010301,149.3289 C128.673099,140.419555 128.914426,127.276036 128.909279,123.717682 L0.937230275,123.717682 C0.419120183,123.717682 -5.71865443e-05,123.297873 -5.71865443e-05,122.778982 C-5.71865443e-05,122.260091 0.419120183,121.840282 0.937230275,121.840282 L129.837417,121.840282 C130.346377,121.840282 130.761551,122.245773 130.774704,122.7555 C130.791288,123.428455 131.140698,139.345118 126.741909,150.044236 C123.835117,157.116845 124.922233,165.354382 125.716554,171.369164 C126.093986,174.223636 126.392499,176.478464 126.17805,177.980155 C125.575876,182.204018 116.11379,193.017109 113.829187,195.574336 L115.081001,198.9918 C115.170784,199.239218 115.1542,199.514127 115.03182,199.748945 L112.521903,204.563291 C110.381983,210.0483 99.3804352,237.971618 96.9494352,239.907436 C95.1337624,241.354145 90.7424076,248.7807 89.2029459,251.521773 C89.0308144,251.827609 88.7122853,252 88.386322,252" id="Fill-77" fill="#415572" sketch:type="MSShapeGroup" mask="url(#mask-2)"></path>
                <path d="M28.5913278,122.253734 C28.5913278,108.546079 29.7116122,81.0345518 31.0932391,81.0345518 C32.4754379,81.0345518 33.5957223,108.546079 33.5957223,122.253734" id="Fill-78" fill="#415572" sketch:type="MSShapeGroup" mask="url(#mask-2)"></path>
                <path d="M33.5961226,123.191689 C33.0780125,123.191689 32.6588352,122.77188 32.6588352,122.252989 C32.6588352,110.437625 31.9211287,92.7918982 31.0936394,85.2147164 C30.2661502,92.7918982 29.5284437,110.437625 29.5284437,122.252989 C29.5284437,122.77188 29.1092664,123.191689 28.5911563,123.191689 C28.073618,123.191689 27.6538688,122.77188 27.6538688,122.252989 C27.6538688,115.152889 27.9489514,104.78538 28.388144,96.4544891 C29.2505171,80.0962527 30.0231073,80.0962527 31.0936394,80.0962527 C32.1647434,80.0962527 32.9373336,80.0962527 33.7991349,96.4544891 C34.2388994,104.78538 34.5334101,115.152889 34.5334101,122.252989 C34.5334101,122.77188 34.1142327,123.191689 33.5961226,123.191689" id="Fill-79" fill="#415572" sketch:type="MSShapeGroup" mask="url(#mask-2)"></path>
                <path d="M45.7411722,122.253734 C45.7411722,108.546079 46.8614566,81.0345518 48.2430835,81.0345518 C49.6252823,81.0345518 50.7455667,108.546079 50.7455667,122.253734" id="Fill-80" fill="#415572" sketch:type="MSShapeGroup" mask="url(#mask-2)"></path>
                <path d="M50.7447089,123.191689 C50.2265988,123.191689 49.8074214,122.77188 49.8074214,122.252989 C49.8074214,110.441062 49.069715,92.7993436 48.2439413,85.2181527 C47.4170239,92.7993436 46.6793174,110.439344 46.6793174,122.252989 C46.6793174,122.77188 46.2601401,123.191689 45.74203,123.191689 C45.2239199,123.191689 44.8047425,122.77188 44.8047425,122.252989 C44.8047425,115.152889 45.0992532,104.78538 45.5384459,96.4544891 C46.400819,80.0962527 47.1734092,80.0962527 48.2439413,80.0962527 C49.3133297,80.0962527 50.0859199,80.0962527 50.9477211,96.4544891 C51.3874856,104.787098 51.6819963,115.154607 51.6819963,122.252989 C51.6819963,122.77188 51.262819,123.191689 50.7447089,123.191689" id="Fill-81" fill="#415572" sketch:type="MSShapeGroup" mask="url(#mask-2)"></path>
                <path d="M55.9946624,16.1754218 L55.2718245,29.5629218 C54.8577939,37.2346036 48.2516043,43.1720673 40.5914667,42.7574127 C32.9313291,42.3427582 27.0028,35.7266127 27.4168306,28.0549309 L28.1396685,14.6668582 C28.5536991,6.99517636 35.1598887,1.05771273 42.8200263,1.47294 C45.4809162,1.61669455 47.9330752,2.50900364 49.982641,3.93394909" id="Fill-82" fill="#FFFFFF" sketch:type="MSShapeGroup" mask="url(#mask-2)"></path>
                <path d="M41.355822,43.7158718 C41.0847578,43.7158718 40.811978,43.7084264 40.5391982,43.6941082 C32.3437945,43.2502445 26.0378343,36.2119991 26.48103,28.0025264 L27.2038679,14.6155991 C27.41603,10.6557627 29.1682257,7.00577182 32.1350636,4.33800818 C35.1047609,1.67253545 38.9099535,0.315744545 42.8712654,0.535671818 C45.6173633,0.684580909 48.2605254,1.59349909 50.5176783,3.16334455 C50.9425743,3.46001727 51.0483694,4.04477182 50.7521431,4.47030818 C50.4570606,4.89527182 49.8714703,4.99836273 49.4488618,4.70684455 C47.4770697,3.33344455 45.1673052,2.53964455 42.7689015,2.40963545 C39.3331339,2.22636273 35.9831462,3.40503545 33.3874489,5.73546273 C30.7934673,8.06703545 29.2614398,11.2571264 29.0744398,14.71869 L28.3516018,28.1050445 C27.9655927,35.2790264 33.4789474,41.4318355 40.6421339,41.8201445 C44.0979168,42.0051355 47.4296049,40.8247445 50.0235865,38.4943173 C52.6175682,36.1627445 54.1495957,32.9726536 54.3360239,29.5116627 L55.0594336,16.1247355 C55.0868832,15.6075627 55.4951951,15.1728627 56.0459015,15.2392991 C56.562296,15.26679 56.9591706,15.7083627 56.9300055,16.2272536 L56.2071676,29.6141809 C55.9950055,33.5740173 54.2428098,37.2240082 51.2754,39.8917718 C48.5115743,42.3739718 45.0169046,43.7158718 41.355822,43.7158718" id="Fill-83" fill="#415572" sketch:type="MSShapeGroup" mask="url(#mask-2)"></path>
                <path d="M45.0223945,16.6892727 C44.5608991,16.6892727 44.0685229,16.6726636 43.541263,16.6360091 C38.679263,16.2952364 37.3176514,11.9041364 37.2610367,11.7174273 C37.1146391,11.2203 37.3965688,10.6979727 37.8923761,10.5496364 C38.3864679,10.4064545 38.908581,10.6853727 39.0584098,11.1819273 C39.0990122,11.3142273 40.1255107,14.5152 43.6733639,14.7626182 C49.0277401,15.1440545 50.0548104,13.2758182 50.0639602,13.2552 C50.2486728,12.9035455 50.6604159,12.6687273 51.0504281,12.7237091 C54.3014832,13.2076636 56.7473517,12.8044636 58.3211254,11.5358727 C59.0479664,10.9494 59.4688593,10.269 59.712474,9.69512727 C54.6674771,10.1057727 50.2595382,5.36473636 50.0582416,5.14309091 C49.7088318,4.76165455 49.7339939,4.16945455 50.1148563,3.8178 C50.4957187,3.46900909 51.0870275,3.49478182 51.4387248,3.87278182 C51.484474,3.92375455 56.1943578,8.95287273 60.7138104,7.60868182 C61.0083211,7.52620909 61.3251346,7.5852 61.561315,7.77190909 C61.8014985,7.96090909 61.9330275,8.25414545 61.9164434,8.56055455 C61.9112966,8.66479091 61.7517462,11.151 59.5351957,12.9676909 C57.6406055,14.5186364 54.892792,15.0890727 51.3540887,14.6595273 C50.6587003,15.4590545 48.9505382,16.6892727 45.0223945,16.6892727" id="Fill-84" fill="#415572" sketch:type="MSShapeGroup" mask="url(#mask-2)"></path>
                <path d="M52.9935125,36.6421173 C50.4641517,39.8184627 45.9349774,43.0469264 40.5914667,42.7576991 C35.2536746,42.4684718 30.730219,38.74059 28.5542709,35.3185445 C14.1272495,44.53029 17.2622159,73.85679 18.6312618,82.9872082 C18.8708734,84.5879809 20.1981731,85.7878445 21.8125492,85.8748991 L53.624852,87.5976627 C55.384482,87.6933082 56.9250875,86.4407536 57.1755645,84.6939355 C58.5937908,74.8103809 62.1702373,44.0383173 52.9935125,36.6421173" id="Fill-85" fill="#A9DFF4" sketch:type="MSShapeGroup" mask="url(#mask-2)"></path>
                <path d="M28.3076254,36.6209836 C15.193607,46.0956109 18.2759618,74.2989927 19.5575122,82.8480927 C19.7296437,83.9975564 20.7000994,84.8755473 21.86213,84.9379745 L53.6755765,86.6613109 C54.9365398,86.7271745 56.065974,85.8268473 56.2472554,84.5599745 C57.5431024,75.5366564 61.0417752,46.1082109 53.082552,37.9886564 C50.3290199,41.05962 45.7580994,43.9667836 40.5392554,43.6941655 C35.3793135,43.4152473 30.8175428,40.0619291 28.3076254,36.6209836 M53.8162554,88.5421473 C53.7356223,88.5421473 53.6549893,88.5404291 53.5726407,88.5347018 L21.7614817,86.8113655 C19.7147752,86.70312 18.0089006,85.1521745 17.7052401,83.1264382 C16.3562095,74.1357655 13.1177355,44.0624291 28.0514297,34.5270927 C28.2618761,34.3936473 28.5146407,34.3495473 28.7576835,34.4028109 C28.9995826,34.4577927 29.2117446,34.6044109 29.3455612,34.8151745 C31.441448,38.11122 35.7470229,41.5561745 40.6416193,41.8202018 C45.5974052,42.0916745 49.9024083,39.0207109 52.2624969,36.0579927 C52.4180443,35.86212 52.6450749,35.7372655 52.8921208,35.7097745 C53.1374511,35.6840018 53.3879281,35.7555927 53.5817905,35.9113745 C62.9197813,43.4370109 59.8534388,72.6272018 58.1035306,84.8280109 C57.7941514,86.9837564 55.9727599,88.5421473 53.8162554,88.5421473" id="Fill-86" fill="#415572" sketch:type="MSShapeGroup" mask="url(#mask-2)"></path>
                <path d="M38.6612492,47.2666091 L42.304604,44.7007909 C43.2744878,44.0175273 44.0939709,43.7517818 45.0678578,44.4293182 L47.2901269,45.9086727 C48.4613073,46.7236636 50.0430872,46.5306545 51.0049648,45.4768364 C52.3722951,43.9785818 53.9535031,41.6613273 53.6910168,39.1476273 C53.6567049,38.8177364 53.4908639,38.5101818 53.2649771,38.2684909 L52.3883073,37.3320818 C49.7794572,40.2673091 45.5465092,43.0255636 40.5912951,42.7575273 C35.4725275,42.4803273 31.1257783,39.0411 28.8571881,35.7416182 L28.4923379,36.4649727 C28.4923379,36.4649727 29.7144144,44.8983818 37.2510291,47.4865364 C37.7216743,47.6486182 38.254081,47.5535455 38.6612492,47.2666091" id="Fill-87" fill="#FFFFFF" sketch:type="MSShapeGroup" mask="url(#mask-2)"></path>
                <path d="M44.8192107,43.2465791 C45.0719752,43.3382155 45.3333177,43.4722336 45.6026664,43.6572245 L47.8083514,45.1274155 C48.5975257,45.6737973 49.6663422,45.5489427 50.3125502,44.8433427 C51.55407,43.4831155 52.9854492,41.4098427 52.7601343,39.2443609 C52.7492688,39.1435609 52.6835043,39.0187064 52.582856,38.9110336 L52.3867061,38.7019882 C50.9095777,40.1847791 48.3047306,42.3136064 44.8192107,43.2465791 M30.0467826,38.6263882 C30.9509018,41.1492518 33.0376388,45.0466609 37.5536602,46.5998973 C37.7349416,46.6600336 37.9528223,46.6182245 38.1209508,46.4990973 L41.7643055,43.9321336 C41.8832535,43.8496609 42.0056327,43.7671882 42.1337306,43.6881518 C41.6121893,43.7196518 41.086645,43.7270973 40.5393697,43.6938791 C36.2377979,43.4613518 32.5435471,41.1458155 30.0467826,38.6263882 M37.7292229,48.5047882 C37.4661648,48.5047882 37.2002474,48.4624064 36.9480547,48.3759245 C28.9590945,45.6319882 27.6174982,36.9671973 27.5643147,36.5989336 C27.5368651,36.4099336 27.5683177,36.2140609 27.6558131,36.0433882 L28.0200914,35.3194609 C28.1687765,35.0222155 28.4632872,34.8263427 28.7926817,34.8040064 C29.1260792,34.7788064 29.4406052,34.9345882 29.6293208,35.2094973 C31.6096908,38.0914609 35.6830884,41.5507336 40.6417336,41.8204882 C46.2763239,42.1120064 50.2342046,38.3463245 51.6890303,36.7088973 C51.8634492,36.5107336 52.1139263,36.3973336 52.3758407,36.3938973 L52.3849905,36.3938973 C52.6469049,36.3938973 52.8956664,36.50157 53.0729446,36.69057 L53.9501862,37.6275518 C54.3304768,38.0347609 54.5706602,38.5387609 54.6238437,39.0484882 C54.9217856,41.9081155 53.1958957,44.4659155 51.6964645,46.1084973 C50.4206327,47.5111064 48.2955807,47.7510791 46.756119,46.6783609 L44.5498621,45.2098882 C44.0666358,44.8765609 43.7280914,44.8450609 42.8439875,45.4687609 L39.2012046,48.0351518 L39.199489,48.0351518 C38.7620119,48.3432791 38.2439018,48.5047882 37.7292229,48.5047882" id="Fill-88" fill="#415572" sketch:type="MSShapeGroup" mask="url(#mask-2)"></path>
                <path d="M12.2061248,74.0883436 C11.7943817,74.0883436 11.4169505,73.8151527 11.3020055,73.3970618 C11.1647578,72.8987891 11.4592685,72.3816164 11.9590789,72.2441618 C13.0570606,71.94348 13.7696049,71.4320345 14.1338832,70.6823345 C14.8218373,69.2688436 14.0658312,67.4280982 14.0583969,67.4097709 C10.747296,62.3039073 9.65274557,57.10068 10.8771095,52.0904618 C13.059348,43.1696618 21.7597089,38.1279436 22.1297058,37.91718 C22.583767,37.6623164 23.1510575,37.8198164 23.4072532,38.2694073 C23.6634489,38.7184255 23.5061859,39.2922982 23.055556,39.54888 C22.9732073,39.5964164 14.6754398,44.4182073 12.6950697,52.5486436 C11.6022349,57.0348164 12.6161523,61.7391982 15.7082287,66.5334982 C15.8288924,66.7809164 16.8811248,69.3014891 15.8271768,71.4904527 C15.222715,72.7424345 14.0881339,73.6061073 12.4531706,74.0551255 C12.370822,74.0774618 12.2867578,74.0883436 12.2061248,74.0883436" id="Fill-89" fill="#415572" sketch:type="MSShapeGroup" mask="url(#mask-2)"></path>
                <path d="M64.455526,76.9189336 C64.3400092,76.9189336 64.2250642,76.8988882 64.111263,76.85307 C62.5352018,76.22937 61.4989817,75.2488609 61.0323394,73.93617 C60.2214343,71.6464064 61.5395841,69.2558427 61.5961988,69.1550427 C65.2790122,64.5863973 66.7933119,60.0137427 66.1837034,55.4307791 C65.0817187,47.1205064 57.3638226,41.4590973 57.2854771,41.4023973 C56.8662997,41.0999973 56.7707982,40.5129518 57.0750306,40.0914245 C57.3769755,39.6733336 57.9608502,39.5725336 58.3834587,39.8806609 C58.7277217,40.1280791 66.8333425,46.0787155 68.0416942,55.1850791 C68.7204985,60.2960973 67.0729541,65.3486973 63.1448104,70.2014155 C63.1631101,70.2014155 62.2898716,71.8846609 62.802263,73.3147609 C63.0841927,74.1011155 63.7378349,74.6875882 64.799789,75.1073973 C65.2812997,75.2981155 65.5174801,75.8427791 65.3270489,76.3250155 C65.182367,76.6932791 64.8289541,76.9189336 64.455526,76.9189336" id="Fill-90" fill="#415572" sketch:type="MSShapeGroup" mask="url(#mask-2)"></path>
                <path d="M31.6137511,121.141612 C31.6137511,121.141612 35.9136073,121.46463 37.3861609,122.394739 C38.8581425,123.324275 31.1093657,122.55453 31.1093657,122.55453" id="Fill-91" fill="#415572" sketch:type="MSShapeGroup" mask="url(#mask-2)"></path>
                <path d="M35.8787807,123.802159 C34.8059612,123.802159 33.2613526,123.710523 31.0167807,123.488877 C30.5026737,123.437332 30.1269581,122.977432 30.178426,122.460259 C30.2150254,122.075386 30.4820865,121.767259 30.8303526,121.657295 C30.7205544,121.490632 30.6633679,121.286741 30.6782364,121.072541 C30.718267,120.555368 31.1671813,120.153886 31.683004,120.205432 C32.1479306,120.239795 36.2630743,120.575414 37.8848847,121.600595 C38.6666248,122.093714 38.5185116,122.742614 38.4544627,122.929323 C38.2971997,123.388077 38.1542333,123.802159 35.8787807,123.802159" id="Fill-92" fill="#415572" sketch:type="MSShapeGroup" mask="url(#mask-2)"></path>
                <path d="M48.7579339,120.704449 C48.7579339,120.704449 53.0577902,121.027467 54.5303437,121.957576 C56.0023254,122.887113 48.2535486,122.117367 48.2535486,122.117367" id="Fill-93" fill="#415572" sketch:type="MSShapeGroup" mask="url(#mask-2)"></path>
                <path d="M53.0218771,123.365855 C51.9490575,123.365855 50.4044489,123.274219 48.1598771,123.052574 C47.64577,123.001028 47.2700544,122.541128 47.3215223,122.023955 C47.3581217,121.636792 47.6274703,121.329237 47.9751645,121.220992 C47.8653664,121.052037 47.8087517,120.848719 47.8230483,120.633946 C47.8636508,120.115628 48.3119933,119.72331 48.8278159,119.766837 C49.2933144,119.803492 53.4078862,120.13911 55.0302685,121.164292 C55.8114367,121.65741 55.6633235,122.30631 55.597559,122.493019 C55.4420116,122.951774 55.2990453,123.365855 53.0218771,123.365855" id="Fill-94" fill="#415572" sketch:type="MSShapeGroup" mask="url(#mask-2)"></path>
                <path d="M46.1686416,45.1622945 L45.0071829,47.9617855 L42.958189,47.8506764 L41.5651248,45.6496855 L43.9406538,44.0403218 L46.1686416,45.1622945 Z" id="Fill-95" fill="#00A79D" sketch:type="MSShapeGroup" mask="url(#mask-2)"></path>
                <path d="M43.4901954,46.9388373 L44.3966021,46.9880918 L44.9690394,45.6078191 L44.0100211,45.1255827 L42.8439875,45.9176645 L43.4901954,46.9388373 Z M45.0079263,48.9004282 C44.9913422,48.9004282 44.9747581,48.9004282 44.9564584,48.89871 L42.9063208,48.7870282 C42.6043758,48.7704191 42.327593,48.60891 42.1668988,48.3523282 L40.7738346,46.1524827 C40.5010547,45.72351 40.6200028,45.1570827 41.0391801,44.8724373 L43.415281,43.2630736 C43.6972107,43.0740736 44.0574859,43.0483009 44.3617183,43.2023645 L46.5891343,44.3243373 C47.0288988,44.5442645 47.2227612,45.0671645 47.0340456,45.52191 L45.8737306,48.3214009 C45.727333,48.6730555 45.3847856,48.9004282 45.0079263,48.9004282 L45.0079263,48.9004282 Z" id="Fill-96" fill="#415572" sketch:type="MSShapeGroup" mask="url(#mask-2)"></path>
                <path d="M45.0069541,47.9615564 C45.0069541,47.9615564 46.5710061,60.7860655 36.2562691,60.7923655 L32.5517248,57.76722 L34.790578,53.6115109 C34.790578,53.6115109 41.0845291,54.9425291 42.9579602,47.8504473 L45.0069541,47.9615564 Z" id="Fill-97" fill="#00A79D" sketch:type="MSShapeGroup" mask="url(#mask-2)"></path>
                <path d="M33.7443502,57.5317145 L36.5836621,59.8489691 C38.8002125,59.7813873 40.5541239,59.0351236 41.7985031,57.6250691 C44.1511575,54.9613145 44.216922,50.6166055 44.1345734,48.8548964 L43.6456284,48.8274055 C41.7824908,54.4905327 37.1177844,54.7488327 35.3129771,54.6165327 L33.7443502,57.5317145 Z M36.2559832,61.7320964 C36.039818,61.7320964 35.8310872,61.6564964 35.6629587,61.52076 L31.9578425,58.4961873 C31.6101483,58.2121145 31.5129312,57.7184236 31.7250933,57.3226691 L33.9639465,53.1663873 C34.1618119,52.7998418 34.5678364,52.6074055 34.9835826,52.6933145 C35.2014633,52.7374145 40.4368914,53.7293782 42.0512676,47.6097873 C42.1650688,47.1808145 42.4978945,46.8600873 43.0085703,46.9133509 L45.058708,47.0250327 C45.5127691,47.0490873 45.8827661,47.3973055 45.9376651,47.8480418 C45.9725489,48.1321145 46.7468547,54.8587964 43.2030046,58.8701782 C41.5262951,60.7676236 39.1902248,61.7298055 36.2559832,61.7320964 L36.2559832,61.7320964 Z" id="Fill-98" fill="#415572" sketch:type="MSShapeGroup" mask="url(#mask-2)"></path>
                <path d="M27.728726,22.2761127 C27.728726,22.2761127 25.446411,18.9938127 23.7519737,20.0630945 C20.8371755,21.9026945 27.443937,27.5480673 27.443937,27.5480673 L27.728726,22.2761127 Z" id="Fill-99" fill="#FFFFFF" sketch:type="MSShapeGroup" mask="url(#mask-2)"></path>
                <path d="M24.501918,20.7903436 C24.408704,20.7903436 24.3240679,20.8103891 24.2508691,20.8562073 C24.0169761,21.0051164 23.9597896,21.1460073 23.9489242,21.3143891 C23.877441,22.2863073 25.2064563,24.0314073 26.6161046,25.4815527 L26.775655,22.5594982 C26.1180098,21.7067073 25.1149578,20.7903436 24.501918,20.7903436 M27.4435939,28.4866527 C27.2239976,28.4866527 27.0078324,28.4093345 26.8357009,28.2627164 C26.006496,27.55368 21.8844899,23.88708 22.0783523,21.1792255 C22.1366826,20.37798 22.5415633,19.7159073 23.2518202,19.2686073 C25.6422177,17.7726436 28.212181,21.32928 28.4981138,21.7382073 C28.6170618,21.9105982 28.675392,22.1179255 28.6645266,22.3263982 L28.3791657,27.5994982 C28.3608661,27.9551618 28.1412697,28.2701618 27.8135908,28.4116255 C27.6946428,28.46088 27.5682606,28.4866527 27.4435939,28.4866527" id="Fill-100" fill="#415572" sketch:type="MSShapeGroup" mask="url(#mask-2)"></path>
                <path d="M37.7295089,36.9344945 C37.4733131,36.9344945 37.2171174,36.8302582 37.031833,36.6229309 C36.6858544,36.2357673 36.7190226,35.6435673 37.1033162,35.29764 C38.2550532,34.2632945 39.6990135,33.5576945 41.2790777,33.2552945 C43.3823988,32.8572491 45.4965853,33.2129127 47.2356281,34.2558491 C47.6805394,34.5215945 47.8252214,35.0994764 47.5575884,35.5427673 C47.2905272,35.9866309 46.7117994,36.1332491 46.2726067,35.8657855 C44.9270073,35.0588127 43.2817505,34.7856218 41.6284875,35.0994764 C40.3858239,35.3377309 39.2523865,35.8892673 38.3557015,36.6945218 C38.1761358,36.8554582 37.9531083,36.9344945 37.7295089,36.9344945" id="Fill-101" fill="#415572" sketch:type="MSShapeGroup" mask="url(#mask-2)"></path>
                <path d="M31.8131606,18.9130582 C31.58613,19.47204 31.4488823,20.1575945 31.6942125,20.7938945 C31.7273807,20.7721309 31.7656957,20.7371945 31.8040107,20.6804945 C31.9944419,20.4032945 32.0567752,19.81854 31.8131606,18.9130582 M31.6135795,22.23144 C31.1429343,22.23144 30.7128914,21.99834 30.5058761,21.58254 C29.3764419,19.3179764 31.3316498,16.9291309 31.4157141,16.8283309 C31.5712615,16.64334 31.8131606,16.5517036 32.049341,16.5809127 C32.2889526,16.6141309 32.4942523,16.7664764 32.5949006,16.9864036 C34.3556743,20.8437218 32.6366468,21.9049855 32.274656,22.0773764 C32.0567752,22.1816127 31.8314602,22.23144 31.6135795,22.23144" id="Fill-102" fill="#415572" sketch:type="MSShapeGroup" mask="url(#mask-2)"></path>
            </g>
        </g>
    </g>
</svg>