<?xml version="1.0" encoding="UTF-8" standalone="no"?>
<svg width="203px" height="140px" viewBox="0 0 203 140" version="1.1" xmlns="http://www.w3.org/2000/svg" xmlns:xlink="http://www.w3.org/1999/xlink" xmlns:sketch="http://www.bohemiancoding.com/sketch/ns">
    <!-- Generator: Sketch 3.4.4 (17249) - http://www.bohemiancoding.com/sketch -->
    <title>Page 1</title>
    <desc>Created with Sketch.</desc>
    <defs>
        <path id="path-1" d="M0,0.340604027 L202.150134,0.340604027 L202.150134,140 L0,140 L0,0.340604027 Z"></path>
    </defs>
    <g id="option2" stroke="none" stroke-width="1" fill="none" fill-rule="evenodd" sketch:type="MSPage">
        <g id="howitworks6" sketch:type="MSArtboardGroup" transform="translate(-697.000000, -379.000000)">
            <g id="Page-1" sketch:type="MSLayerGroup" transform="translate(697.000000, 379.000000)">
                <path d="M2.98665101,138.058557 C2.7423557,138.058557 2.51591275,137.902114 2.43698658,137.658758 C2.33926846,137.354799 2.50604698,137.028289 2.81000671,136.93057 L14.8744362,133.049094 C15.1765168,132.954664 15.5030268,133.120034 15.600745,133.422114 C15.6984631,133.726074 15.5316846,134.052114 15.2277248,134.150302 L3.1632953,138.031309 C3.10457047,138.049631 3.04537584,138.058557 2.98665101,138.058557" id="Fill-1" fill="#D1D3D4" sketch:type="MSShapeGroup"></path>
                <path d="M12.8615839,139.640604 C12.6172886,139.640604 12.3908456,139.484161 12.3119195,139.240805 C12.2142013,138.936846 12.3809799,138.610336 12.6849396,138.512617 L24.7493691,134.631141 C25.0514497,134.536711 25.3779597,134.702081 25.4756779,135.004161 C25.573396,135.308121 25.4066174,135.634161 25.1026577,135.732349 L13.0382282,139.613356 C12.9795034,139.631678 12.9203087,139.640604 12.8615839,139.640604" id="Fill-3" fill="#D1D3D4" sketch:type="MSShapeGroup"></path>
                <path d="M28.5322819,137.481081 C28.2879866,137.481081 28.0615436,137.324638 27.9826174,137.081282 C27.8848993,136.777322 28.0516779,136.450812 28.3556376,136.353094 L40.4200671,132.471617 C40.7240268,132.375779 41.0477181,132.542557 41.1463758,132.844638 C41.244094,133.148597 41.0773154,133.475107 40.7733557,133.572826 L28.7089262,137.453832 C28.6502013,137.472154 28.5910067,137.481081 28.5322819,137.481081" id="Fill-5" fill="#D1D3D4" sketch:type="MSShapeGroup"></path>
                <path d="M34.5649195,140 C34.3206242,140 34.0941812,139.843557 34.015255,139.600201 C33.9175369,139.296242 34.0843154,138.971611 34.3873356,138.873423 L38.6216309,137.509597 C38.924651,137.414698 39.2492819,137.580537 39.3479396,137.882617 C39.4456577,138.186577 39.2788792,138.512617 38.9749195,138.610336 L34.7425034,139.971342 C34.6828389,139.991074 34.6236443,140 34.5649195,140" id="Fill-7" fill="#D1D3D4" sketch:type="MSShapeGroup"></path>
                <path d="M42.2314698,137.533698 C41.9871745,137.533698 41.7607315,137.377255 41.6818054,137.133899 C41.5840872,136.82994 41.7508658,136.50343 42.0548255,136.405711 L46.4521409,134.990678 C46.7528121,134.897658 47.0807315,135.061617 47.1784497,135.363698 C47.2761678,135.667658 47.1089195,135.993698 46.8054295,136.091416 L42.4081141,137.50645 C42.3493893,137.524772 42.2901946,137.533698 42.2314698,137.533698" id="Fill-9" fill="#D1D3D4" sketch:type="MSShapeGroup"></path>
                <path d="M24.3997919,74.797396 C33.5946913,74.797396 34.0278456,67.3299463 34.0278456,67.3299463 C31.9762349,69.5525638 28.4231477,70.3681342 24.3997919,70.3681342 C20.3271074,70.3681342 16.7364362,69.533302 14.6970403,67.2486711 C14.4179799,66.936255 13.9796577,66.7924966 13.591604,66.9498792 C13.591604,66.9498792 16.2713356,74.797396 24.3997919,74.797396" id="Fill-11" fill="#FFFFFF" sketch:type="MSShapeGroup"></path>
                <path d="M15.4512081,68.9408859 C16.8263087,71.0972617 19.5816779,74.0269262 24.3999329,74.0269262 C29.7819463,74.0269262 31.9007383,71.3246443 32.7304027,69.3392752 C30.7018121,70.5349128 27.9112081,71.1381342 24.3999329,71.1381342 C20.5151678,71.1381342 17.5159732,70.3996107 15.4512081,68.9408859 M24.3999329,75.5669262 C15.8204698,75.5669262 12.891745,67.2820268 12.8630872,67.1979329 C12.7315436,66.8131678 12.9232215,66.390349 13.3014094,66.2371946 C13.9675839,65.9647114 14.7624832,66.1648456 15.2712752,66.7361208 C16.9663087,68.6355168 20.0378523,69.5981342 24.3999329,69.5981342 C28.7037584,69.5981342 31.7536913,68.6594765 33.4628188,66.8084698 C33.6836242,66.5679329 34.0312752,66.4941745 34.3286577,66.6219597 C34.6279195,66.7483356 34.8153691,67.0504161 34.7965772,67.3755168 C34.7918792,67.4567919 34.2079195,75.5669262 24.3999329,75.5669262" id="Fill-13" fill="#415572" sketch:type="MSShapeGroup"></path>
                <path d="M15.0785168,135.697161 C15.0785168,124.471792 15.997443,101.942128 17.1305973,101.942128 C18.2642215,101.942128 19.1826779,124.471792 19.1826779,135.697161" id="Fill-15" fill="#FFFFFF" sketch:type="MSShapeGroup"></path>
                <path d="M19.1829597,136.46749 C18.7573221,136.46749 18.4129597,136.123128 18.4129597,135.69749 C18.4129597,126.028094 17.8083289,111.587893 17.1308792,105.377154 C16.4534295,111.587893 15.8483289,126.028094 15.8483289,135.69749 C15.8483289,136.123128 15.5039664,136.46749 15.0783289,136.46749 C14.6526913,136.46749 14.3083289,136.123128 14.3083289,135.69749 C14.3083289,129.882322 14.5502752,121.391651 14.9106107,114.570174 C15.6181275,101.172456 16.2528255,101.172456 17.1308792,101.172456 C18.0094027,101.172456 18.6436309,101.172456 19.3506779,114.570174 C19.7110134,121.39306 19.9529597,129.883732 19.9529597,135.69749 C19.9529597,136.123128 19.6085973,136.46749 19.1829597,136.46749" id="Fill-17" fill="#415572" sketch:type="MSShapeGroup"></path>
                <path d="M29.1440537,135.487443 C29.1440537,124.262074 30.0629799,101.94194 31.1961342,101.94194 C32.3297584,101.94194 33.2482148,124.262074 33.2482148,135.487443" id="Fill-19" fill="#FFFFFF" sketch:type="MSShapeGroup"></path>
                <path d="M33.2483087,136.256973 C32.8226711,136.256973 32.4783087,135.912611 32.4783087,135.486973 C32.4783087,125.627779 31.8807248,111.362342 31.1962282,105.279389 C30.5122013,111.362342 29.9141477,125.627779 29.9141477,135.486973 C29.9141477,135.912611 29.5697852,136.256973 29.1441477,136.256973 C28.7189799,136.256973 28.3746174,135.912611 28.3746174,135.486973 C28.3746174,129.68543 28.6165638,121.23657 28.9768993,114.464893 C29.6834765,101.172409 30.3181745,101.172409 31.1962282,101.172409 C32.0747517,101.172409 32.7089799,101.172409 33.4160268,114.464893 C33.7763624,121.23657 34.0183087,129.68543 34.0183087,135.486973 C34.0183087,135.912611 33.6739463,136.256973 33.2483087,136.256973" id="Fill-21" fill="#415572" sketch:type="MSShapeGroup"></path>
                <path d="M34.7472483,65.020604 C32.8163758,67.7299329 29.2496644,70.5703356 24.8608054,70.5703356 C20.4771141,70.5703356 16.6078523,67.7224161 14.6746309,65.0210738 L14.6741611,65.020604 C1.09885906,74.7449664 9.14979866,106.660268 9.14979866,106.660268 L40.0451678,106.660268 C40.0451678,106.660268 44.1263087,71.7673826 34.7472483,65.020604" id="Fill-23" fill="#F06E46" sketch:type="MSShapeGroup"></path>
                <path d="M9.75992617,105.890034 L39.3530134,105.890034 C39.8401946,101.136611 42.373349,72.972651 34.8791208,66.119698 C32.7626779,68.7529195 29.1715369,71.3410403 24.8606644,71.3410403 C20.6212013,71.3410403 16.7383154,68.7994295 14.5302617,66.0971477 C3.29878523,75.1637919 8.78603356,101.622383 9.75992617,105.890034 M40.0450268,107.430034 L9.15012752,107.430034 C8.79730872,107.430034 8.4900604,107.190906 8.40361745,106.847953 C8.0695906,105.52453 0.382744966,74.309698 14.226302,64.3945973 C14.3930805,64.2743289 14.6021409,64.225 14.7999262,64.2607047 C15.0014698,64.2940604 15.1818725,64.4068121 15.3007315,64.5721812 C17.1625436,67.1753356 20.8401275,69.8010403 24.8606644,69.8010403 C28.9422752,69.8010403 32.3196577,67.1001678 34.1199262,64.5735906 C34.2387852,64.4068121 34.4191879,64.2940604 34.6212013,64.2607047 C34.820396,64.225 35.0308658,64.2757383 35.1967047,64.3945973 C44.8332148,71.3260067 40.9785168,105.306544 40.8093893,106.748826 C40.7642886,107.136879 40.4358993,107.430034 40.0450268,107.430034" id="Fill-25" fill="#415572" sketch:type="MSShapeGroup"></path>
                <path id="Fill-27" fill="#FFFFFF" sketch:type="MSShapeGroup" d="M31.5301611,88.2509732 C31.4488859,88.1960067 31.338953,88.1978859 31.259557,88.2556711 C31.1787517,88.3139262 31.1435168,88.4191611 31.1717047,88.5140604 C31.1998926,88.6094295 31.287745,88.6784899 31.3868725,88.6831879 C31.4850604,88.6874161 31.5776107,88.6286913 31.6161342,88.5384899 C31.6593557,88.435604 31.6222416,88.3134564 31.5301611,88.2509732 C31.4221074,88.1781544 31.6382148,88.3237919 31.5301611,88.2509732"></path>
                <path d="M28.5044698,90.4552215 C28.5584966,90.4552215 28.6120537,90.4542819 28.6660805,90.4524027 C28.7736644,90.4486443 28.8807785,90.4406577 28.9878926,90.4279732 C29.0738658,90.4181074 28.8117181,90.4486443 28.9878926,90.4279732 C29.0950067,90.4157584 29.1847383,90.5167651 29.1593691,90.6215302 C29.1476242,90.6694497 29.1133289,90.7103221 29.0677584,90.7295839 C29.0395705,90.7417987 29.0085638,90.7432081 28.9780268,90.7460268 C28.9423221,90.7497852 28.9061477,90.7535436 28.8699732,90.7563624 C28.5848054,90.7793826 28.296349,90.7746846 28.011651,90.7432081 C27.7537315,90.7150201 27.4981611,90.6638121 27.2496376,90.5891141 C27.0076913,90.5162953 26.7727919,90.4209262 26.5482282,90.3048859 C26.3203758,90.1874362 26.1056779,90.047906 25.9013154,89.8933423 C25.6692349,89.7176376 25.4554765,89.5189128 25.2633289,89.3004564 C25.0721208,89.0838792 24.9029933,88.8480403 24.7587651,88.5976376 C24.6117181,88.3425369 24.4909799,88.0724027 24.3993691,87.7924027 C24.3054094,87.5067651 24.2415168,87.2117315 24.2091007,86.9129396 C24.175745,86.6089799 24.1748054,86.3012617 24.2053423,85.9968322 C24.2358792,85.6971007 24.2974228,85.4006577 24.3895034,85.1140805 C24.4797047,84.8331409 24.5985638,84.5615973 24.7442013,84.3050872 C24.8884295,84.0504564 25.0584966,83.8103893 25.2511141,83.5900537 C25.4418523,83.3715973 25.6546711,83.1724027 25.8848725,82.9957584 C26.1174228,82.8181745 26.3682953,82.6636107 26.6318523,82.5362953 C26.9001074,82.4066309 27.1815168,82.3046846 27.4709128,82.2332752 C27.7654765,82.1599866 28.067557,82.1186443 28.371047,82.1083087 C28.6750067,82.098443 28.9803758,82.1200537 29.2796376,82.1736107 C29.5709128,82.2252886 29.8570201,82.3075034 30.1318523,82.417906 C30.4029262,82.5273691 30.6627248,82.6640805 30.9065503,82.8252215 C31.1489664,82.9863624 31.3758792,83.1719329 31.581651,83.3781745 C31.668094,83.4646174 31.7470201,83.5529396 31.801047,83.6638121 C31.847557,83.7605906 31.8748054,83.8662953 31.8813826,83.9729396 C31.8945369,84.191396 31.8193691,84.4098523 31.6737315,84.5733423 C31.5036644,84.7636107 31.2513826,84.8664966 30.9967517,84.8481745 C30.8741342,84.8397181 30.7538658,84.8035436 30.6472215,84.7429396 C30.5917852,84.7114631 30.5405772,84.6734094 30.4940671,84.6301879 C30.4409799,84.5813289 30.3930604,84.5277718 30.340443,84.478443 C30.1285638,84.2811275 29.8847383,84.1181074 29.6207114,83.9983087 C29.3496376,83.8752215 29.0578926,83.7981745 28.7614497,83.771396 C28.4588993,83.7441477 28.1521208,83.7671678 27.857557,83.841396 C27.5709799,83.913745 27.2966174,84.0344832 27.0495034,84.1965638 C26.8066174,84.3558255 26.5900403,84.5540805 26.4105772,84.7824027 C26.2287651,85.012604 26.0850067,85.2733423 25.9877584,85.5500537 C25.8886309,85.8324027 25.8378926,86.1311946 25.8374228,86.4304564 C25.8364832,86.7320671 25.8858121,87.0332081 25.9849396,87.317906 C26.0803087,87.5932081 26.2217181,87.8520671 26.4007114,88.0817987 C26.5792349,88.3110604 26.7944027,88.510255 27.0368188,88.6709262 C27.2839329,88.8348859 27.5578255,88.9575034 27.8453423,89.0317315 C28.1394362,89.1078389 28.4471544,89.1327383 28.7497047,89.1064295 C29.0452081,89.0810604 29.3355436,89.0058926 29.6061477,88.8856242 C29.6348054,88.8729396 29.6625235,88.8564966 29.6935302,88.8503893 C29.7188993,88.8452215 29.7461477,88.8466309 29.771047,88.8546174 C29.8213154,88.8705906 29.8607785,88.9114631 29.8753423,88.9622013 C29.8894362,89.012 29.8776913,89.0664966 29.8443356,89.1059597 C29.8250738,89.1289799 29.8011141,89.142604 29.7743356,89.1548188 C29.7419195,89.1703221 29.7090336,89.1844161 29.6761477,89.1985101 C29.4008456,89.3140805 29.1086309,89.3878389 28.8117181,89.4169664 C28.5096376,89.4465638 28.2028591,89.4305906 27.9054765,89.369047 C27.9435302,89.4141477 27.9797047,89.4606577 28.0144698,89.5081074 C28.0497047,89.5564966 28.0835302,89.6062953 28.1154765,89.6570336 C28.1201745,89.6640805 28.1328591,89.6847517 28.1328591,89.6847517 C28.1328591,89.6847517 28.1389664,89.6852215 28.1478926,89.6861611 C28.163396,89.6880403 28.1788993,89.6899195 28.1939329,89.6913289 C28.2249396,89.6946174 28.2554765,89.6969664 28.2860134,89.6993154 C28.4114497,89.7077718 28.5373557,89.709651 28.6627919,89.7040134 C28.909906,89.6932081 29.1560805,89.6542148 29.3947383,89.5879732 C29.6258792,89.5236107 29.8495034,89.4334094 30.0609128,89.3197181 C30.268094,89.2088456 30.4625906,89.0754228 30.6411141,88.9222685 C30.6852752,88.8846846 30.7284966,88.8456913 30.7703087,88.8057584 C30.8074228,88.7705235 30.8417181,88.729651 30.8877584,88.7061611 C30.9690336,88.6648188 31.0700403,88.6746846 31.1414497,88.7315302 C31.2128591,88.7883758 31.2462148,88.883745 31.224604,88.9725369 C31.2133289,89.0181074 31.1888993,89.0571007 31.1560134,89.0899866 C31.1146711,89.1308591 31.0723893,89.1712617 31.0296376,89.210255 C30.8558121,89.3671678 30.6678926,89.5085772 30.4682282,89.6307248 C30.265745,89.7547517 30.051047,89.8599866 29.8288322,89.9431409 C29.6000403,90.0286443 29.3627919,90.0915973 29.122255,90.1310604 C28.8737315,90.1714631 28.6219195,90.1864966 28.3705772,90.1771007 C28.3907785,90.2330067 28.4091007,90.2893826 28.4255436,90.3462282 C28.4330604,90.3715973 28.4401074,90.3969664 28.4466846,90.4223356 C28.4485638,90.4303221 28.4546711,90.4547517 28.4546711,90.4547517 L28.5044698,90.4552215 Z" id="Fill-29" fill="#FFFFFF" sketch:type="MSShapeGroup"></path>
                <path d="M30.9195168,89.6576913 C30.6761611,89.8395034 30.4130738,89.9940671 30.134953,90.1166846 C29.9958926,90.1777584 29.8530738,90.2313154 29.7074362,90.2759463 C29.6346174,90.2984966 29.5608591,90.3191678 29.4866309,90.3374899 C29.4542148,90.3454765 29.4208591,90.3506443 29.3922013,90.3680268 C29.3677718,90.3830604 29.3475705,90.4046711 29.3344161,90.4305101 C29.3062282,90.4850067 29.3128054,90.5531275 29.3517987,90.601047 C29.3954899,90.6555436 29.4612617,90.6677584 29.5265638,90.652255 C29.6736107,90.6170201 29.8192483,90.5742685 29.9620671,90.5235302 C30.2486443,90.4225235 30.5244161,90.2905101 30.7832752,90.1307785 C30.8481074,90.0913154 30.9115302,90.0495034 30.9740134,90.0067517 C31.0054899,89.9846711 31.0369664,89.9621208 31.0679732,89.9395705 C31.0956913,89.9193691 31.1248188,89.901047 31.1440805,89.8723893 C31.177906,89.8225906 31.180255,89.756349 31.1497181,89.7042013 C31.119651,89.6525235 31.0609262,89.6219866 31.0007919,89.6266846 C30.9716644,89.6290336 30.9430067,89.6398389 30.9195168,89.6576913 C30.4746174,89.9903087 30.989047,89.6055436 30.9195168,89.6576913" id="Fill-31" fill="#FFFFFF" sketch:type="MSShapeGroup"></path>
                <path id="Fill-33" fill="#FFFFFF" sketch:type="MSShapeGroup" d="M31.4418859,89.1912752 C31.4005436,89.2349664 31.3587315,89.2777181 31.3155101,89.3195302 C31.2802752,89.3542953 31.2408121,89.3843624 31.2262483,89.4341611 C31.1999396,89.5238926 31.2600738,89.6197315 31.353094,89.6342953 C31.4075906,89.6427517 31.4555101,89.6216107 31.4940336,89.5849664 C31.537255,89.544094 31.5795369,89.5027517 31.6208792,89.46 C31.6561141,89.4238255 31.696047,89.3895302 31.7092013,89.3387919 C31.7195369,89.2979195 31.7129597,89.2532886 31.691349,89.2175839 C31.6377919,89.1297315 31.5118859,89.1165772 31.4418859,89.1912752 C31.3864497,89.25 31.5015503,89.1278523 31.4418859,89.1912752"></path>
                <path d="M30.4573758,88.2835302 C30.3591879,88.3868859 30.2553624,88.482255 30.1412013,88.5677584 C30.1097248,88.5912483 30.0777785,88.6137987 30.046302,88.6368188 C30.0195235,88.6556107 29.9983826,88.6795705 29.9861678,88.7101074 C29.9617383,88.7721208 29.9795906,88.8449396 30.0303289,88.8881611 C30.0904631,88.9393691 30.1712685,88.9346711 30.2328121,88.8905101 C30.2929463,88.8477584 30.3521409,88.8045369 30.4094564,88.7584966 C30.4634832,88.7152752 30.5151611,88.6692349 30.5654295,88.6217852 C30.594557,88.5940671 30.622745,88.5654094 30.6509329,88.5367517 C30.6772416,88.5099732 30.7049597,88.484604 30.7185839,88.4488993 C30.7453624,88.3793691 30.7181141,88.298094 30.6551611,88.2586309 C30.5926779,88.2191678 30.5085839,88.2299732 30.4573758,88.2835302 C30.3061007,88.4427919 30.5175101,88.2205772 30.4573758,88.2835302" id="Fill-35" fill="#FFFFFF" sketch:type="MSShapeGroup"></path>
                <path d="M28.5200201,85.4143758 C28.3081409,85.4143758 28.0990805,85.4806174 27.9266644,85.6037047 C27.7584765,85.7235034 27.6283423,85.8935705 27.5578725,86.0875973 C27.4841141,86.2891409 27.4761275,86.5127651 27.5348523,86.7185369 C27.5912282,86.9172617 27.7086779,87.096255 27.8674698,87.2277987 C28.0295503,87.3616913 28.231094,87.4434362 28.4406242,87.4594094 C28.653443,87.4753826 28.8686107,87.4246443 29.0508926,87.3142416 C29.2265973,87.2071275 29.3680067,87.0478658 29.4530403,86.8608859 C29.5413624,86.6659195 29.5662617,86.4441745 29.5235101,86.2346443 C29.4826376,86.0307517 29.3778725,85.8418926 29.2280067,85.698604 C29.0772013,85.5543758 28.8831745,85.4580671 28.6769329,85.4261208 C28.625255,85.4181342 28.5726376,85.4143758 28.5200201,85.4143758" id="Fill-37" fill="#FFFFFF" sketch:type="MSShapeGroup"></path>
                <path d="M14.088651,65.5466846 C14.088651,65.5466846 11.8970403,67.2125906 10.7300604,69.7678255 C10.7300604,69.7678255 17.2715369,75.7084295 19.4401275,76.174 C21.4842215,76.6132617 22.8325436,73.7235302 25.1472416,74.1313154 C27.4407987,74.5353423 27.2528792,79.7482282 27.2528792,79.7482282 L29.6981812,79.7482282 C29.6981812,79.7482282 29.0498591,75.7098389 29.9485839,74.5353423 C30.8543557,73.3523893 32.788047,74.4183624 33.3748255,75.6097718 C33.3748255,75.6097718 36.4830134,71.1532617 36.852745,68.4284295 C37.2220067,65.7031275 34.6747584,65.0205101 34.6747584,65.0205101 C34.6747584,65.0205101 31.2593221,70.798094 27.0020067,71.0325235 C20.1673758,71.4088322 18.8401946,70.2982282 14.088651,65.5466846" id="Fill-39" fill="#FFFFFF" sketch:type="MSShapeGroup"></path>
                <path d="M28.0225034,78.9774765 L28.8174027,78.9774765 C28.6609597,77.5817047 28.5270671,75.1246577 29.3374698,74.0676107 C29.7941141,73.471906 30.4654564,73.1787517 31.2518993,73.2628456 C31.9702215,73.3337852 32.7383423,73.7307651 33.3255906,74.2870067 C34.2177383,72.8884161 35.8437114,70.1396242 36.0898859,68.3243221 C36.2749866,66.9633154 35.5218993,66.2868054 34.9755235,65.9800268 C33.9490134,67.5120403 30.8694832,71.5908322 27.0443826,71.801302 C20.2064631,72.1757315 18.5090805,71.0251946 14.0488121,66.5949933 C13.4427718,67.1526443 12.4181409,68.2115705 11.6796174,69.5862013 C14.2061946,71.8402953 18.2506913,75.1307651 19.6018322,75.4211007 C20.2741141,75.5770738 20.9332416,75.1049262 21.697604,74.5712349 C22.6273356,73.9186846 23.7778725,73.1064027 25.2812282,73.3727785 C27.6006242,73.7815034 27.9750537,77.3172081 28.0225034,78.9774765 M29.6978054,80.5174765 L27.2525034,80.5174765 C27.043443,80.5174765 26.8433087,80.4315034 26.6986107,80.2825772 C26.553443,80.1322416 26.4759262,79.9292886 26.483443,79.7202282 C26.5473356,77.8870738 26.124047,75.084255 25.013443,74.888349 C24.157,74.741302 23.4222349,75.2435168 22.5803557,75.8331141 C21.6553221,76.479557 20.6062617,77.2133826 19.2786107,76.927745 C16.9737785,76.4316376 10.8974027,70.9603624 10.2124362,70.3378792 C9.96438255,70.1123758 9.89015436,69.7529799 10.0296846,69.4476107 C11.262906,66.7481477 13.5268658,65.0070738 13.6227047,64.9333154 C13.929953,64.7017047 14.3631074,64.7317718 14.6332416,65.0023758 C19.3711611,69.7407651 20.4672013,70.6178792 26.9598188,70.2641208 C30.7618993,70.053651 33.9800201,64.6819732 34.0124362,64.6279463 C34.1876711,64.330094 34.5386107,64.190094 34.874047,64.2760671 C35.9813624,64.5739195 37.9803557,65.8447248 37.6162617,68.5319732 C37.2253893,71.4071409 34.1378725,75.8631812 34.0063289,76.0511007 C33.8508255,76.2751946 33.5835101,76.3982819 33.3161946,76.3790201 C33.044651,76.3578792 32.8041141,76.1953289 32.6838456,75.950094 C32.4085436,75.3910336 31.6686107,74.8507651 31.1006242,74.7953289 C30.7886779,74.7666711 30.6472685,74.8902282 30.5603557,75.0029799 C30.1300201,75.5653289 30.172302,77.8405638 30.4579396,79.6257987 C30.4931745,79.8480134 30.4302215,80.075396 30.2836443,80.2468725 C30.1375369,80.418349 29.9233087,80.5174765 29.6978054,80.5174765" id="Fill-41" fill="#415572" sketch:type="MSShapeGroup"></path>
                <path d="M24.2268591,71.092047 C24.2268591,71.092047 25.9942416,72.8899664 26.7487383,75.8802349" id="Fill-43" fill="#FFFFFF" sketch:type="MSShapeGroup"></path>
                <path d="M26.7479866,76.6495302 C26.4036242,76.6495302 26.0902685,76.4165101 26.0019463,76.0674497 C25.3118121,73.3351007 23.6924161,71.6461745 23.676443,71.6297315 C23.38,71.3257718 23.3856376,70.8385906 23.6891275,70.5407383 C23.9921477,70.2447651 24.4788591,70.2489933 24.7757718,70.5515436 C24.8537584,70.6314094 26.6981879,72.5350336 27.4954362,75.6916107 C27.5992617,76.1036242 27.3493289,76.521745 26.9373154,76.6255705 C26.8743624,76.6420134 26.8104698,76.6495302 26.7479866,76.6495302" id="Fill-45" fill="#415572" sketch:type="MSShapeGroup"></path>
                <path d="M29.5279732,78.2467047 C29.5279732,78.2467047 29.1338121,73.2898591 30.8542148,69.3891208" id="Fill-47" fill="#FFFFFF" sketch:type="MSShapeGroup"></path>
                <path d="M29.5270805,79.0165638 C29.1291611,79.0165638 28.7923154,78.7111946 28.7598993,78.3081074 C28.7434564,78.0976376 28.3713758,73.1111946 30.1495638,69.0775034 C30.3219799,68.6899195 30.7776846,68.5123356 31.1647987,68.6852215 C31.5542617,68.856698 31.7299664,69.3109933 31.5589597,69.7004564 C29.9353356,73.3803893 30.2919128,78.1385101 30.2956711,78.1850201 C30.3294966,78.6092483 30.0128523,78.9803893 29.5886242,79.013745 C29.5684228,79.0151544 29.5472819,79.0165638 29.5270805,79.0165638" id="Fill-49" fill="#415572" sketch:type="MSShapeGroup"></path>
                <path d="M0.769295302,100.728919 C0.618959732,100.728919 0.466275168,100.685228 0.333322148,100.592208 C-0.017147651,100.351671 -0.105,99.8715369 0.136006711,99.5215369 C1.85828859,97.0250268 1.37768456,94.0502617 1.37251678,94.0201946 C-0.909765101,80.299255 6.23634228,70.3620738 6.54171141,69.9453624 C6.79352349,69.6024094 7.27412752,69.5272416 7.61755034,69.7799933 C7.96050336,70.0313356 8.03520134,70.5124094 7.78385906,70.8553624 C7.71338926,70.9530805 0.719026846,80.7084497 2.89137584,93.7646242 C2.91580537,93.9088523 3.47768456,97.3891208 1.40399329,100.396772 C1.25412752,100.613349 1.0135906,100.728919 0.769295302,100.728919" id="Fill-51" fill="#415572" sketch:type="MSShapeGroup"></path>
                <path d="M17.5574094,134.786409 C17.5574094,134.786409 21.0837181,135.050906 22.2915705,135.81245 C23.498953,136.573993 15.0782819,135.943523 15.0782819,135.943523" id="Fill-53" fill="#FFFFFF" sketch:type="MSShapeGroup"></path>
                <path d="M20.3131074,136.969799 C19.1386107,136.969799 17.4529732,136.894631 15.0212953,136.712819 C14.5970671,136.679463 14.2790134,136.311141 14.3104899,135.886913 C14.3414966,135.463154 14.7159262,135.141342 15.1354564,135.175638 C15.7363289,135.220738 16.3616309,135.261611 16.9812953,135.297315 C16.8483423,135.14698 16.7731745,134.944027 16.7896174,134.728859 C16.8206242,134.305101 17.1964631,133.981879 17.6150537,134.017584 C17.9955906,134.046242 21.371094,134.321544 22.7020336,135.160604 C23.1788792,135.461275 23.2394832,135.899128 23.1380067,136.207315 C23.0055235,136.607584 22.8861946,136.969799 20.3131074,136.969799" id="Fill-55" fill="#415572" sketch:type="MSShapeGroup"></path>
                <path d="M31.6182483,134.428376 C31.6182483,134.428376 35.144557,134.692872 36.3524094,135.454416 C37.5597919,136.21596 29.1438188,135.58549 29.1438188,135.58549" id="Fill-57" fill="#FFFFFF" sketch:type="MSShapeGroup"></path>
                <path d="M34.3807114,136.610356 C33.2071544,136.610356 31.5205772,136.535188 29.0865503,136.353376 C28.6623221,136.32002 28.3452081,135.951698 28.3766846,135.52747 C28.4081611,135.103711 28.7783624,134.769685 29.2021208,134.816195 C29.8006443,134.861295 30.4240671,134.902168 31.0409128,134.937872 C30.9084295,134.787537 30.8337315,134.585993 30.8506443,134.371295 C30.8811812,133.947067 31.2588993,133.626664 31.6760805,133.66002 C32.0566174,133.688208 35.4321208,133.96351 36.7625906,134.80257 C37.2403758,135.103711 37.3009799,135.541094 37.1990336,135.849282 C37.0665503,136.24955 36.9472215,136.610356 34.3807114,136.610356" id="Fill-59" fill="#415572" sketch:type="MSShapeGroup"></path>
                <path d="M32.2777987,40.681698 C34.8189396,42.7925034 36.4439732,45.9730403 36.4439732,49.5143826 L36.4439732,62.0528389 C36.4439732,68.3683423 31.2766577,71.9322349 24.9611544,71.9322349 C18.645651,71.9322349 13.4783356,68.3683423 13.4783356,62.0528389 L13.4783356,49.5143826 C13.4783356,43.2435101 18.573302,38.1043826 24.8277315,38.0325034" id="Fill-61" fill="#FFFFFF" sketch:type="MSShapeGroup"></path>
                <path d="M24.9614362,72.701953 C17.7467383,72.701953 12.7081477,68.3229597 12.7081477,62.0534966 L12.7081477,49.5145705 C12.7081477,42.8359128 18.1408993,37.3392685 24.8186174,37.2626913 L24.8275436,37.2626913 C25.2484832,37.2626913 25.5923758,37.6009463 25.5975436,38.0237651 C25.6022416,38.4489329 25.2616376,38.7979933 24.8364698,38.8026913 C18.9978121,38.8703423 14.2481477,43.6749732 14.2481477,49.5145705 L14.2481477,62.0534966 C14.2481477,68.3455101 19.6287517,71.161953 24.9614362,71.161953 C30.2931812,71.161953 35.6737852,68.3455101 35.6737852,62.0534966 L35.6737852,49.5145705 C35.6737852,46.3293356 34.2564027,43.3259128 31.7857315,41.2747718 C31.4587517,41.0027584 31.413651,40.518396 31.6851946,40.1904765 C31.9572081,39.8644362 32.4420403,39.8193356 32.7694899,40.0899396 C35.5943893,42.4342349 37.2137852,45.8703423 37.2137852,49.5145705 L37.2137852,62.0534966 C37.2137852,68.3229597 32.1751946,72.701953 24.9614362,72.701953" id="Fill-63" fill="#415572" sketch:type="MSShapeGroup"></path>
                <path d="M33.1606443,35.3253826 C31.5074228,36.8813557 28.4006443,37.951557 24.8076242,38.0271946" id="Fill-65" fill="#FFFFFF" sketch:type="MSShapeGroup"></path>
                <path d="M24.808047,38.7980403 C24.3899262,38.7980403 24.0469732,38.4640134 24.038047,38.0444832 C24.0291208,37.6188456 24.366906,37.2669664 24.791604,37.2580403 C28.0689195,37.1889799 31.0737517,36.2324698 32.6325436,34.7648188 C32.9421409,34.4730738 33.4288523,34.486698 33.7205973,34.7977047 C34.0123423,35.1077718 33.9977785,35.594953 33.6881812,35.886698 C31.8362349,37.6310604 28.522745,38.7181745 24.8244899,38.7980403 L24.808047,38.7980403 Z" id="Fill-67" fill="#415572" sketch:type="MSShapeGroup"></path>
                <path d="M38.5060604,37.6425235 C36.8528389,39.1984966 33.7460604,40.268698 30.1530403,40.3443356" id="Fill-69" fill="#FFFFFF" sketch:type="MSShapeGroup"></path>
                <path d="M30.1534161,41.1139597 C29.7352953,41.1139597 29.3923423,40.7799329 29.3834161,40.3604027 C29.3744899,39.9347651 29.7122752,39.5828859 30.137443,39.5739597 C33.4128792,39.5063087 36.4177114,38.5512081 37.9779128,37.0821477 C38.2875101,36.7918121 38.7742215,36.8054362 39.0664362,37.1150336 C39.3577114,37.4251007 39.3431477,37.9122819 39.0335503,38.2040268 C37.1787852,39.9483893 33.8657651,41.0359732 30.1693893,41.1139597 L30.1534161,41.1139597 Z" id="Fill-71" fill="#415572" sketch:type="MSShapeGroup"></path>
                <path d="M19.3617181,62.4159933 C19.6017852,65.1807584 22.1837987,67.3653221 25.3685638,67.3653221 C28.5528591,67.3653221 31.1348725,65.1807584 31.3749396,62.4159933 L19.3617181,62.4159933 Z" id="Fill-73" fill="#FFFFFF" sketch:type="MSShapeGroup"></path>
                <path d="M20.2920604,63.1857114 C20.8966913,65.1527584 22.9666242,66.5950403 25.3682349,66.5950403 C27.7698456,66.5950403 29.8397785,65.1527584 30.4444094,63.1857114 L20.2920604,63.1857114 Z M25.3682349,68.1350403 C21.844745,68.1350403 18.8695101,65.6521544 18.5951477,62.481953 C18.5763557,62.2667852 18.6482349,62.054906 18.7943423,61.8956443 C18.9399799,61.7359128 19.1462215,61.6457114 19.3618591,61.6457114 L31.3750805,61.6457114 C31.5911879,61.6457114 31.7969597,61.7359128 31.9430671,61.8956443 C32.0887047,62.054906 32.1610537,62.2667852 32.1422617,62.481953 C31.8664899,65.6521544 28.8907852,68.1350403 25.3682349,68.1350403 L25.3682349,68.1350403 Z" id="Fill-75" fill="#415572" sketch:type="MSShapeGroup"></path>
                <path d="M38.5060604,103.894094 L11.4160604,104.18302 C11.0374027,104.186779 10.7268658,103.883289 10.7231074,103.504161 C10.7188792,103.125503 11.0228389,102.814966 11.4014966,102.811208 L11.4160604,102.811208 L38.5060604,103.099664 C38.7254564,103.102013 38.9011611,103.281946 38.8988121,103.501342 C38.8964631,103.71745 38.7212282,103.891745 38.5060604,103.894094" id="Fill-77" fill="#415572" sketch:type="MSShapeGroup"></path>
                <path d="M13.4783826,55.7877919 C13.4783826,55.7877919 11.2355638,52.3981946 9.70026174,53.736651 C7.74542953,55.4410805 11.0532819,58.4036309 13.4783826,58.9645705 L13.4783826,55.7877919 Z" id="Fill-79" fill="#FFFFFF" sketch:type="MSShapeGroup"></path>
                <path d="M10.5050738,54.1942819 C10.3946711,54.1942819 10.3044698,54.2318658 10.2067517,54.3173691 C9.90795973,54.5776376 9.82010738,54.8454228 9.91265772,55.2151544 C10.1428591,56.1373691 11.3929933,57.2832081 12.7079597,57.8845503 L12.7079597,56.0288456 C12.1601745,55.264953 11.2224564,54.2858926 10.5811812,54.2003893 C10.5548725,54.1956913 10.5290336,54.1942819 10.5050738,54.1942819 M13.4779597,59.7346174 C13.4201745,59.7346174 13.3623893,59.7285101 13.304604,59.7148859 C11.3690336,59.266698 8.88708725,57.4622013 8.41869799,55.5881745 C8.18614765,54.6589128 8.46191946,53.7958926 9.19433557,53.1564966 C9.64863087,52.7609262 10.1959463,52.5927383 10.7883624,52.6740134 C12.4458121,52.8981074 13.9543356,55.1117987 14.1201745,55.3640805 C14.2037987,55.489047 14.2479597,55.6379732 14.2479597,55.7883087 L14.2479597,58.9646174 C14.2479597,59.199047 14.1413154,59.4217315 13.9571544,59.5673691 C13.8195034,59.6758926 13.6503758,59.7346174 13.4779597,59.7346174" id="Fill-81" fill="#415572" sketch:type="MSShapeGroup"></path>
                <path d="M46.9895906,100.728919 C46.7452953,100.728919 46.5047584,100.613349 46.3548926,100.396772 C44.2812013,97.3891208 44.8430805,93.9088523 44.8675101,93.7618054 C47.044557,80.6797919 40.0473758,70.9530805 39.9754966,70.8567718 C39.7246242,70.5138188 39.7983826,70.0313356 40.1413356,69.7799933 C40.4838188,69.5272416 40.9658322,69.601 41.2181141,69.9453624 C41.5230134,70.3620738 48.668651,80.299255 46.3863691,94.0173758 C46.3812013,94.047443 45.9128121,97.0428792 47.6228792,99.5215369 C47.8638859,99.8715369 47.7760336,100.351671 47.4255638,100.592208 C47.2926107,100.685228 47.1399262,100.728919 46.9895906,100.728919" id="Fill-83" fill="#415572" sketch:type="MSShapeGroup"></path>
                <path d="M151.186423,131.841711 C150.942128,131.841711 150.715685,131.685268 150.636758,131.441913 C150.53904,131.137953 150.705819,130.811443 151.009779,130.713725 L163.074208,126.832248 C163.378168,126.739228 163.701859,126.903188 163.800517,127.205268 C163.898235,127.509228 163.731456,127.835268 163.427497,127.933456 L151.363067,131.814463 C151.304342,131.832785 151.245148,131.841711 151.186423,131.841711" id="Fill-85" fill="#D1D3D4" sketch:type="MSShapeGroup"></path>
                <path d="M161.061356,133.423758 C160.81706,133.423758 160.590617,133.267315 160.511691,133.02396 C160.413973,132.72 160.580752,132.39349 160.884711,132.295772 L172.949141,128.414295 C173.253101,128.319866 173.576792,128.485235 173.67545,128.787315 C173.773168,129.091275 173.606389,129.417315 173.30243,129.515503 L161.238,133.39651 C161.179275,133.414832 161.120081,133.423758 161.061356,133.423758" id="Fill-87" fill="#D1D3D4" sketch:type="MSShapeGroup"></path>
                <path d="M176.732805,131.264235 C176.48851,131.264235 176.262067,131.107792 176.183141,130.864436 C176.085423,130.560477 176.252201,130.233966 176.556161,130.136248 L188.619651,126.254772 C188.920792,126.160342 189.247772,126.325711 189.34643,126.627792 C189.444148,126.931752 189.276899,127.258262 188.973409,127.35598 L176.90945,131.236987 C176.850725,131.255309 176.79153,131.264235 176.732805,131.264235" id="Fill-89" fill="#D1D3D4" sketch:type="MSShapeGroup"></path>
                <path d="M182.764644,133.781651 C182.520349,133.781651 182.292966,133.625208 182.21498,133.379973 C182.117262,133.077893 182.28404,132.751383 182.588,132.653664 L186.821826,131.292658 C187.122027,131.199638 187.449946,131.363597 187.548134,131.665678 C187.646322,131.969638 187.479074,132.295678 187.175584,132.393396 L182.941289,133.754403 C182.882564,133.772725 182.823369,133.781651 182.764644,133.781651" id="Fill-91" fill="#D1D3D4" sketch:type="MSShapeGroup"></path>
                <path d="M190.431195,131.315349 C190.186899,131.315349 189.960456,131.158906 189.88153,130.91555 C189.783812,130.611591 189.950591,130.285081 190.25455,130.187362 L194.652336,128.772329 C194.953946,128.67743 195.280926,128.843268 195.378644,129.145349 C195.476362,129.449309 195.309584,129.775349 195.005624,129.873067 L190.607839,131.288101 C190.549114,131.306423 190.489919,131.315349 190.431195,131.315349" id="Fill-93" fill="#D1D3D4" sketch:type="MSShapeGroup"></path>
                <path d="M56.081745,130.822107 C55.8374497,130.822107 55.6110067,130.665664 55.5320805,130.422309 C55.4343624,130.118349 55.6011409,129.791839 55.9051007,129.694121 L67.9695302,125.812644 C68.2711409,125.718215 68.5981208,125.883584 68.6958389,126.185664 C68.793557,126.489624 68.6267785,126.815664 68.3228188,126.913852 L56.2583893,130.794859 C56.1996644,130.813181 56.1404698,130.822107 56.081745,130.822107" id="Fill-95" fill="#D1D3D4" sketch:type="MSShapeGroup"></path>
                <path d="M65.9574295,132.404154 C65.7131342,132.404154 65.4866913,132.247711 65.4077651,132.004356 C65.310047,131.700396 65.4768255,131.373886 65.7807852,131.276168 L77.8442752,127.394691 C78.1468255,127.303081 78.4728658,127.465631 78.5710537,127.767711 C78.6687718,128.071671 78.5015235,128.397711 78.1980336,128.495899 L66.1340738,132.376906 C66.075349,132.395228 66.0161544,132.404154 65.9574295,132.404154" id="Fill-97" fill="#D1D3D4" sketch:type="MSShapeGroup"></path>
                <path d="M81.6281275,130.244631 C81.3838322,130.244631 81.1573893,130.088188 81.0784631,129.844832 C80.980745,129.540872 81.1475235,129.214362 81.4514832,129.116644 L93.5159128,125.235168 C93.8179933,125.142148 94.1445034,125.306107 94.2422215,125.608188 C94.3399396,125.912148 94.1731611,126.238658 93.8692013,126.336376 L81.8047718,130.217383 C81.746047,130.235705 81.6868523,130.244631 81.6281275,130.244631" id="Fill-99" fill="#D1D3D4" sketch:type="MSShapeGroup"></path>
                <path d="M87.6600134,132.76355 C87.4157181,132.76355 87.1892752,132.607107 87.110349,132.363752 C87.0126309,132.059792 87.1794094,131.735161 87.4833691,131.635564 L91.7171946,130.273148 C92.019745,130.176839 92.3457852,130.344087 92.4435034,130.646168 C92.5416913,130.950128 92.374443,131.276168 92.070953,131.373886 L87.8366577,132.736302 C87.7779329,132.754624 87.7187383,132.76355 87.6600134,132.76355" id="Fill-101" fill="#D1D3D4" sketch:type="MSShapeGroup"></path>
                <path d="M95.3265638,130.297248 C95.0822685,130.297248 94.8558255,130.140805 94.7768993,129.89745 C94.6791812,129.59349 94.8459597,129.26698 95.1499195,129.169262 L99.5477047,127.754228 C99.8516644,127.659329 100.175826,127.825168 100.274013,128.127248 C100.371732,128.431208 100.204953,128.757248 99.9009933,128.854966 L95.5032081,130.27 C95.4444832,130.288322 95.3852886,130.297248 95.3265638,130.297248" id="Fill-103" fill="#D1D3D4" sketch:type="MSShapeGroup"></path>
                <path d="M67.1778725,128.49402 C67.1778725,117.249859 68.0982081,94.6826107 69.2332416,94.6826107 C70.368745,94.6826107 71.2890805,117.249859 71.2890805,128.49402" id="Fill-105" fill="#415572" sketch:type="MSShapeGroup"></path>
                <path d="M71.2892685,129.264114 C70.8636309,129.264114 70.5192685,128.919752 70.5192685,128.494114 C70.5192685,118.802168 69.9122886,104.326262 69.2334295,98.1108255 C68.5545705,104.326262 67.9475906,118.802168 67.9475906,128.494114 C67.9475906,128.919752 67.6032282,129.264114 67.1775906,129.264114 C66.7524228,129.264114 66.4080604,128.919752 66.4080604,128.494114 C66.4080604,122.67002 66.6500067,114.165725 67.0108121,107.330624 C67.7192685,93.9122349 68.3544362,93.9122349 69.2334295,93.9122349 C70.1124228,93.9122349 70.7480604,93.9122349 71.456047,107.330624 C71.8173221,114.165725 72.0592685,122.67002 72.0592685,128.494114 C72.0592685,128.919752 71.714906,129.264114 71.2892685,129.264114" id="Fill-107" fill="#415572" sketch:type="MSShapeGroup"></path>
                <path d="M81.2668523,128.49402 C81.2668523,117.249859 82.1871879,94.6826107 83.3222215,94.6826107 C84.4577248,94.6826107 85.3780604,117.249859 85.3780604,128.49402" id="Fill-109" fill="#415572" sketch:type="MSShapeGroup"></path>
                <path d="M85.3779195,129.264114 C84.9522819,129.264114 84.6079195,128.919752 84.6079195,128.494114 C84.6079195,118.802168 84.0009396,104.327671 83.3220805,98.1122349 C82.6432215,104.327671 82.0371812,118.802168 82.0371812,128.494114 C82.0371812,128.919752 81.6928188,129.264114 81.2671812,129.264114 C80.8415436,129.264114 80.4971812,128.919752 80.4971812,128.494114 C80.4971812,122.67002 80.7391275,114.164315 81.1004027,107.330624 C81.8079195,93.9122349 82.4430872,93.9122349 83.3220805,93.9122349 C84.2010738,93.9122349 84.8367114,93.9122349 85.544698,107.330624 C85.9059732,114.165725 86.1479195,122.67002 86.1479195,128.494114 C86.1479195,128.919752 85.803557,129.264114 85.3779195,129.264114" id="Fill-111" fill="#415572" sketch:type="MSShapeGroup"></path>
                <path d="M88.4348993,40.8026242 L88.4348993,51.8006107 C88.4348993,58.1024899 83.2783893,63.259 76.9765101,63.259 C70.6741611,63.259 65.5181208,58.1024899 65.5181208,51.8006107 L65.5181208,40.8026242 C65.5181208,34.5002752 70.6741611,29.3442349 76.9765101,29.3442349 C79.1657718,29.3442349 81.216443,29.9662483 82.9612752,31.042557" id="Fill-113" fill="#FFFFFF" sketch:type="MSShapeGroup"></path>
                <path d="M76.9767919,64.0293758 C70.2342416,64.0293758 64.7484027,58.5435369 64.7484027,51.800047 L64.7484027,40.8025302 C64.7484027,34.0595101 70.2342416,28.5736711 76.9767919,28.5736711 C79.2341745,28.5736711 81.4431678,29.2003826 83.3660537,30.387094 C83.7273289,30.6111879 83.8396107,31.084745 83.6159866,31.4474295 C83.3928322,31.8082349 82.9183356,31.9181678 82.5565906,31.698302 C80.8775302,30.6609866 78.9475973,30.1132013 76.9767919,30.1132013 C71.0831678,30.1132013 66.2884027,34.9093758 66.2884027,40.8025302 L66.2884027,51.800047 C66.2884027,57.6936711 71.0831678,62.4893758 76.9767919,62.4893758 C82.8704161,62.4893758 87.6651812,57.6936711 87.6651812,51.800047 L87.6651812,40.8025302 C87.6651812,40.3768926 88.0095436,40.0325302 88.4351812,40.0325302 C88.8608188,40.0325302 89.2051812,40.3768926 89.2051812,40.8025302 L89.2051812,51.800047 C89.2051812,58.5435369 83.7193423,64.0293758 76.9767919,64.0293758" id="Fill-115" fill="#415572" sketch:type="MSShapeGroup"></path>
                <path d="M78.5415034,41.7350336 C78.4423758,41.7350336 78.3413691,41.7336242 78.2398926,41.7322148 C74.2367383,41.6687919 72.9241208,38.133557 72.8696242,37.9827517 C72.7263356,37.582953 72.9344564,37.1408725 73.334255,36.9980537 C73.7368725,36.8552349 74.1756644,37.0624161 74.3194228,37.4626846 C74.3584161,37.5693289 75.3435839,40.1457047 78.2638523,40.1922148 C82.7057987,40.2838255 83.4335168,38.6912081 83.440094,38.6747651 C83.5772752,38.3755034 83.9094228,38.166443 84.2251275,38.1951007 C86.933047,38.4445638 88.9268725,38.0024832 90.1591544,36.880604 C90.7111678,36.3769799 91.0202953,35.8071141 91.1945906,35.3302685 C87.0735168,35.8728859 83.2531141,32.202349 83.0764698,32.0294631 C82.7725101,31.7316107 82.7673423,31.2458389 83.064255,30.9418792 C83.3611678,30.6365101 83.8492886,30.6322819 84.1523087,30.928255 C84.1927114,30.9677181 88.265396,34.8820805 91.9270067,33.5765101 C92.1623758,33.4924161 92.4264027,33.5285906 92.6302953,33.6714094 C92.8346577,33.8156376 92.9563356,34.0505369 92.9563356,34.3014094 C92.9563356,34.3873826 92.9361342,36.4324161 91.1969396,38.0175168 C89.7114362,39.3724161 87.4714362,39.960604 84.5605638,39.7665772 C83.9770738,40.5154362 82.4304966,41.7350336 78.5415034,41.7350336" id="Fill-117" fill="#415572" sketch:type="MSShapeGroup"></path>
                <path d="M86.879443,57.6997315 C84.9452819,60.4132886 81.3729329,63.2588591 76.976557,63.2588591 C72.585349,63.2588591 68.7095101,60.4057718 66.773,57.6997315 C55.3460872,65.8845638 59.2162886,89.7663087 60.743604,97.1844295 C61.0113893,98.4848322 62.1534698,99.4089262 63.4811208,99.4089262 L89.653604,99.4089262 C91.1015235,99.4089262 92.3098456,98.3147651 92.4381007,96.8724832 C93.1634698,88.7144295 94.7349463,63.3504698 86.879443,57.6997315" id="Fill-119" fill="#A9DFF4" sketch:type="MSShapeGroup"></path>
                <path d="M66.6289128,58.7764631 C56.2924027,67.1182081 60.0686443,90.0847852 61.4977718,97.029349 C61.6927383,97.9769329 62.5083087,98.6384094 63.4812617,98.6384094 L89.6542148,98.6384094 C90.7112617,98.6384094 91.5780403,97.850557 91.6715302,96.805255 C92.3330067,89.3551879 93.8969664,65.0938456 87.0120671,58.7990134 C84.891396,61.4369329 81.2936779,64.0292819 76.976698,64.0292819 C72.7301879,64.0292819 68.8397852,61.483443 66.6289128,58.7764631 M89.6542148,100.178409 L63.4812617,100.178409 C61.7965638,100.178409 60.3279732,98.984651 59.9897181,97.3394161 C58.4858926,90.0349866 54.4991812,65.5453221 66.324953,57.0739128 C66.4922013,56.9555235 66.7012617,56.9057248 66.899047,56.9404899 C67.1005906,56.9733758 67.2809933,57.0861275 67.3998523,57.2514966 C69.2644832,59.859349 72.9486443,62.4892819 76.976698,62.4892819 C81.0648859,62.4892819 84.4483758,59.7841812 86.2524027,57.252906 C86.3712617,57.0861275 86.5516644,56.9733758 86.7541477,56.9404899 C86.9547517,56.9071342 87.1628725,56.9555235 87.3291812,57.0739128 C95.319047,62.8233087 94.1003893,86.8694832 93.2054228,96.940557 C93.0405235,98.7873356 91.5141477,100.178409 89.6542148,100.178409" id="Fill-121" fill="#415572" sketch:type="MSShapeGroup"></path>
                <path d="M75.5928591,67.0377785 L78.4680268,64.7742886 C79.2333289,64.1720067 79.8938658,63.9178456 80.7225906,64.4294564 L82.6111812,65.5428792 C83.608094,66.1587852 84.8967517,65.9304631 85.6395034,65.0242215 C86.6946711,63.7365034 87.8888993,61.7685168 87.5623893,59.7206644 C87.5196376,59.4524094 87.3702416,59.2076443 87.1738658,59.0197248 L86.4137315,58.2920067 C84.4034631,60.8115369 81.0528591,63.2587181 76.9764161,63.2587181 C72.7651409,63.2587181 69.0466846,60.6348926 67.0397047,58.0326779 L66.7728591,58.6415369 C66.7728591,58.6415369 68.1484295,65.4949597 74.4456107,67.2806644 C74.8388322,67.3920067 75.2715168,67.2905302 75.5928591,67.0377785" id="Fill-123" fill="#FFFFFF" sketch:type="MSShapeGroup"></path>
                <path d="M80.4656577,63.4729463 C80.6784765,63.5344899 80.8988121,63.6336174 81.1266644,63.7736174 L83.0021007,64.8790537 C83.6762617,65.2938859 84.5472685,65.1421409 85.0438456,64.5361007 C86.0012953,63.3677114 87.0832416,61.6036174 86.8018322,59.8428121 C86.7886779,59.7582483 86.7290134,59.6591208 86.6421007,59.5764362 L86.4720336,59.4138859 C85.3266644,60.6940872 83.2839799,62.5540201 80.4656577,63.4729463 M68.1447181,60.3436174 C68.9988121,62.3689195 70.8827047,65.4700604 74.6556577,66.5393221 C74.8012953,66.5783154 74.9812282,66.5379128 75.1165302,66.4340872 L77.9912282,64.1691879 C78.0842483,64.0954295 78.180557,64.0235503 78.2815638,63.9526107 C77.8596846,64.0024094 77.4251208,64.0291879 76.9769329,64.0291879 C73.4384094,64.0291879 70.3048523,62.2970403 68.1447181,60.3436174 M74.7749866,68.0957651 C74.5941141,68.0957651 74.4127718,68.0718054 74.2361275,68.0220067 C67.5626376,66.1287181 66.0785436,59.0906644 66.0184094,58.7928121 C65.9874027,58.6382483 66.0047852,58.4771074 66.0677383,58.3328792 L66.3341141,57.7240201 C66.4431074,57.4740872 66.6756577,57.3012013 66.9453221,57.2683154 C67.2154564,57.227443 67.482302,57.346302 67.6490805,57.5614698 C69.4018993,59.8352953 72.8967315,62.4896577 76.9769329,62.4896577 C81.5823691,62.4896577 84.6891477,59.2184497 85.8119664,57.8123423 C85.9463289,57.642745 86.1455235,57.5389195 86.3616309,57.5238859 C86.5800872,57.5088523 86.7900872,57.5868389 86.9455906,57.7357651 L87.7066644,58.4634832 C88.0388121,58.7824765 88.2577383,59.1855638 88.3230403,59.600396 C88.6937114,61.9254295 87.3923691,64.0987181 86.235255,65.5123423 C85.2477383,66.7150268 83.517,67.0053624 82.2057919,66.1963691 L80.3317651,65.0923423 C79.9211611,64.8400604 79.6430403,64.829255 78.9439799,65.3798591 L76.0692819,67.6428792 L76.0683423,67.6428792 C75.6925034,67.9393221 75.2344497,68.0957651 74.7749866,68.0957651" id="Fill-125" fill="#415572" sketch:type="MSShapeGroup"></path>
                <path d="M69.6608993,127.581718 C69.6608993,127.581718 73.1933154,127.846685 74.4025772,128.609638 C75.6123087,129.372121 69.2465369,128.740711 69.2465369,128.740711" id="Fill-127" fill="#415572" sketch:type="MSShapeGroup"></path>
                <path d="M73.1645638,129.764919 C72.2832215,129.764919 71.0142953,129.689752 69.1712752,129.50606 C68.7479866,129.465658 68.4388591,129.088409 68.4806711,128.664181 C68.5126174,128.348477 68.7320134,128.094315 69.017651,128.005523 C68.9274497,127.868812 68.8795302,127.700154 68.8931544,127.52398 C68.9246309,127.100221 69.2751007,126.779819 69.7185906,126.812705 C70.0991275,126.841362 73.4802685,127.116664 74.8144966,127.959013 C75.4557718,128.36351 75.3331544,128.895792 75.2805369,129.048946 C75.1518121,129.425255 75.0343624,129.764919 73.1645638,129.764919" id="Fill-129" fill="#415572" sketch:type="MSShapeGroup"></path>
                <path d="M83.7451812,127.223121 C83.7451812,127.223121 87.2775973,127.488087 88.4868591,128.25104 C89.6965906,129.013523 83.3308188,128.382114 83.3308188,128.382114" id="Fill-131" fill="#415572" sketch:type="MSShapeGroup"></path>
                <path d="M87.2487047,129.405477 C86.3673624,129.405477 85.0984362,129.330309 83.2554161,129.148497 C82.8321275,129.106215 82.523,128.728966 82.5648121,128.304738 C82.5967584,127.989034 82.8161544,127.736282 83.1017919,127.646081 C83.0115906,127.509369 82.9641409,127.342121 82.9777651,127.166416 C83.0087718,126.742188 83.3695772,126.41004 83.8032013,126.455141 C84.1837383,126.483329 87.5644094,126.758631 88.897698,127.59957 C89.5399128,128.004067 89.4172953,128.536349 89.3646779,128.689503 C89.235953,129.065812 89.1185034,129.405477 87.2487047,129.405477" id="Fill-133" fill="#415572" sketch:type="MSShapeGroup"></path>
                <path d="M81.6581477,64.9811879 L80.828953,67.3254832 L79.1433154,67.3254832 L77.903047,65.5844094 L79.7808322,64.1613893 L81.6581477,64.9811879 Z" id="Fill-135" fill="#00A79D" sketch:type="MSShapeGroup"></path>
                <path d="M79.5408121,66.5558121 L80.2845034,66.5558121 L80.693698,65.401047 L79.8861141,65.0472886 L78.9638993,65.7468188 L79.5408121,66.5558121 Z M80.829,68.0958121 L79.1438322,68.0958121 C78.8948389,68.0958121 78.6608792,67.9755436 78.516651,67.7725906 L77.2759128,66.031047 C77.034906,65.6927919 77.1063154,65.2220537 77.4384631,64.9707114 L79.3157785,63.5481611 C79.5384631,63.3795034 79.8339664,63.3452081 80.0890671,63.4565503 L81.9663826,64.2758792 C82.3365839,64.4370201 82.5193356,64.8579597 82.3840336,65.2384966 L81.5543691,67.5827919 C81.4463154,67.8895705 81.1550403,68.0958121 80.829,68.0958121 L80.829,68.0958121 Z" id="Fill-137" fill="#415572" sketch:type="MSShapeGroup"></path>
                <path d="M65.5179329,47.0532953 C65.5179329,47.0532953 63.5006174,44.4661141 62.1579329,45.4169866 C59.8479329,47.0532953 65.5179329,51.3843691 65.5179329,51.3843691 L65.5179329,47.0532953 Z" id="Fill-139" fill="#FFFFFF" sketch:type="MSShapeGroup"></path>
                <path d="M62.8339732,45.9773624 C62.7461208,45.9773624 62.6676644,45.9985034 62.603302,46.0450134 C62.4172617,46.1760872 62.3773289,46.2944765 62.3745101,46.4316577 C62.3604161,47.2298456 63.527396,48.6016577 64.7484027,49.7263557 L64.7484027,47.3280336 C64.1827651,46.6721946 63.3413557,45.9773624 62.8339732,45.9773624 M65.5184027,52.1538054 C65.3530336,52.1538054 65.1876644,52.0993087 65.0504832,51.9954832 C64.3401477,51.4528658 60.7945772,48.6303154 60.8354497,46.4044094 C60.8467248,45.7457517 61.1502148,45.1862215 61.7130336,44.7878322 C63.6030336,43.4507852 65.8731007,46.2554832 66.1249128,46.5787047 C66.2310872,46.7140067 66.2884027,46.881255 66.2884027,47.0527315 L66.2884027,51.3838054 C66.2884027,51.6769597 66.122094,51.944745 65.8594765,52.0739396 C65.7514228,52.1279664 65.6349128,52.1538054 65.5184027,52.1538054" id="Fill-141" fill="#415572" sketch:type="MSShapeGroup"></path>
                <path d="M78.3317383,58.3628993 C76.5775101,58.3628993 74.9247584,57.7521611 73.6779128,56.6424966 C73.3607987,56.3610872 73.3321409,55.873906 73.6149597,55.5567919 C73.8968389,55.2363893 74.3858993,55.2110201 74.7020738,55.4933691 C76.393349,56.9990738 79.2483154,57.2288054 81.2177114,56.0392752 C81.5822752,55.8184698 82.0558322,55.9373289 82.2747584,56.2995436 C82.495094,56.6636376 82.3785839,57.1371946 82.0144899,57.3570604 C80.9264362,58.0157181 79.6537517,58.3628993 78.3317383,58.3628993" id="Fill-143" fill="#415572" sketch:type="MSShapeGroup"></path>
                <path d="M108.893362,86.4334631 C108.167993,86.4334631 107.512154,86.2408456 106.933832,85.8560805 C105.803966,85.1039329 105.322423,83.818094 105.144369,83.1744698 C93.3045034,76.724604 90.2587987,64.4985638 90.1338322,63.9766174 C90.0351745,63.5631946 90.2893356,63.1478926 90.7032282,63.0487651 C91.1133624,62.955745 91.5328926,63.2052081 91.6315503,63.6172215 C91.6611477,63.7407785 94.7106107,75.9109128 106.173698,81.9807114 C106.385577,82.0920537 106.533094,82.2964161 106.573027,82.5327248 C106.574436,82.5444698 106.831416,83.9444698 107.793094,84.5777584 C108.284973,84.9023893 108.887255,84.9733289 109.630946,84.8018523 C110.044369,84.6980268 110.458732,84.9597047 110.55645,85.3745369 C110.653698,85.7884295 110.397188,86.2032617 109.982826,86.2995705 C109.604638,86.3897718 109.240544,86.4334631 108.893362,86.4334631" id="Fill-145" fill="#415572" sketch:type="MSShapeGroup"></path>
                <path d="M93.3850738,86.1221745 C91.0060134,86.1221745 89.3278926,84.7762013 88.7359463,84.2213691 C68.7554094,82.6813691 67.3906443,68.7725101 67.3784295,68.6325101 C67.344604,68.2082819 67.6588993,67.8385503 68.0817181,67.8023758 C68.5003087,67.7633826 68.8761477,68.0804966 68.9132617,68.5047248 C68.9588322,69.0294899 70.2442013,81.3743893 89.1315168,82.7053289 C89.3307114,82.7203624 89.5162819,82.8105638 89.6501745,82.9594899 C89.7286309,83.0454631 91.6660805,85.1144564 94.5346711,84.4468725 C94.9452752,84.343047 95.3624564,84.6047248 95.4601745,85.0200268 C95.5574228,85.4334497 95.3009128,85.8482819 94.8865503,85.9445906 C94.3603758,86.069557 93.8586309,86.1221745 93.3850738,86.1221745" id="Fill-147" fill="#415572" sketch:type="MSShapeGroup"></path>
                <path d="M80.8291409,67.3255772 C80.8291409,67.3255772 82.6801477,77.760745 74.2190738,78.2234966 L71.0460537,75.9097383 L72.6983356,72.4064497 C72.6983356,72.4064497 77.9206174,73.2177919 79.1435034,67.3255772 L80.8291409,67.3255772 Z" id="Fill-149" fill="#00A79D" sketch:type="MSShapeGroup"></path>
                <path d="M72.0133691,75.663 L74.4459866,77.4360201 C76.2617584,77.282396 77.6669262,76.5922617 78.6248456,75.3834698 C80.4368591,73.0974295 80.2977987,69.5363557 80.1521611,68.0954832 L79.7514228,68.0954832 C78.4745101,72.8117919 74.6212215,73.2266242 73.1728322,73.205953 L72.0133691,75.663 Z M74.218604,78.9938725 C74.0565235,78.9938725 73.8967919,78.9426644 73.7652483,78.8468255 L70.5922282,76.5321275 C70.293906,76.3141409 70.1914899,75.9157517 70.3493423,75.5817248 L72.002094,72.0779664 C72.1472617,71.7678993 72.485047,71.593604 72.816255,71.6448121 C72.9985369,71.677698 77.3352483,72.2508523 78.3894765,67.1695101 C78.4641745,66.8115235 78.7789396,66.555953 79.1439732,66.555953 L80.8286711,66.555953 C81.2026309,66.555953 81.522094,66.8232685 81.5869262,67.1920604 C81.6282685,67.4217919 82.5612886,72.8972953 79.8317584,76.3413893 C78.5407517,77.968302 76.6671946,78.8618591 74.2608859,78.9924631 C74.2467919,78.9938725 74.2331678,78.9938725 74.218604,78.9938725 L74.218604,78.9938725 Z" id="Fill-151" fill="#415572" sketch:type="MSShapeGroup"></path>
                <path d="M99.1545302,61.4758322 C99.7554027,62.4384497 102.552584,64.1602617 106.115067,65.8383826 C103.970436,63.0501275 101.284597,60.510396 99.4058725,61.3508658 C99.2987584,61.3978456 99.2170134,61.4396577 99.1545302,61.4758322 M110.198557,70.7905302 C110.013926,70.7905302 109.827886,70.7576443 109.648423,70.6881141 C104.581644,68.751604 96.0693624,64.9678456 95.9829195,61.4006644 C95.9655369,60.6936174 96.226745,59.3824094 98.1665436,58.5297248 C104.385738,55.8124094 110.834664,67.2022081 111.549698,68.5124765 C111.859765,69.0790537 111.783188,69.7771745 111.35802,70.2643557 C111.060168,70.6054295 110.63406,70.7905302 110.198557,70.7905302" id="Fill-153" fill="#415572" sketch:type="MSShapeGroup"></path>
                <path d="M119.174342,61.191604 C117.376423,61.191604 115.107295,63.4156309 113.245483,65.8369732 C116.806557,64.1588523 119.603738,62.4384497 120.204611,61.4758322 C120.142128,61.4396577 120.059913,61.3978456 119.953268,61.3508658 C119.706624,61.2414027 119.445886,61.191604 119.174342,61.191604 M109.160114,70.7905302 C108.725081,70.7905302 108.298503,70.6054295 108.000651,70.2643557 C107.575953,69.7771745 107.499376,69.0790537 107.808973,68.5124765 C108.524007,67.2022081 114.969644,55.7973758 121.192597,58.5297248 C123.132396,59.3824094 123.393134,60.6936174 123.376221,61.4006644 C123.289779,64.9678456 114.777027,68.751604 109.710718,70.6881141 C109.530785,70.7576443 109.345215,70.7905302 109.160114,70.7905302" id="Fill-155" fill="#415572" sketch:type="MSShapeGroup"></path>
                <path d="M96.0617987,80.6710537 L123.552067,80.6710537 L119.514617,74.2991745 C118.973879,73.4455503 118.033342,72.928302 117.022805,72.928302 L102.646497,72.928302 C101.642067,72.928302 100.706698,73.4389732 100.164081,74.2841409 L96.0617987,80.6710537 Z" id="Fill-157" fill="#F15A29" sketch:type="MSShapeGroup"></path>
                <path d="M97.4717584,79.9008188 L122.152631,79.9008188 L118.86451,74.710953 C118.462362,74.076255 117.773638,73.6975973 117.022899,73.6975973 L102.646591,73.6975973 C101.90055,73.6975973 101.214644,74.0720268 100.812497,74.6992081 L97.4717584,79.9008188 Z M123.552161,81.4408188 L96.0618926,81.4408188 C95.7800134,81.4408188 95.5211544,81.2871946 95.3858523,81.0391409 C95.2514899,80.7924966 95.2618255,80.4918255 95.4135705,80.2541074 L99.5163221,73.8676644 C100.203638,72.7965235 101.373436,72.1575973 102.646591,72.1575973 L117.022899,72.1575973 C118.30451,72.1575973 119.479007,72.8040403 120.165383,73.8869262 L124.202362,80.2588054 C124.352698,80.4965235 124.361624,80.7957852 124.226322,81.0424295 C124.09102,81.2871946 123.832631,81.4408188 123.552161,81.4408188 L123.552161,81.4408188 Z" id="Fill-159" fill="#415572" sketch:type="MSShapeGroup"></path>
                <path d="M96.0617987,80.6710537 L109.810456,94.770651 L123.552067,80.6710537 L96.0617987,80.6710537 Z" id="Fill-161" fill="#FBB040" sketch:type="MSShapeGroup"></path>
                <path d="M97.8883289,81.4407248 L109.80994,93.6681745 L121.726383,81.4407248 L97.8883289,81.4407248 Z M109.80994,95.5407919 C109.602289,95.5407919 109.404034,95.4562282 109.258866,95.3077718 L95.5106779,81.2077047 C95.2941007,80.9864295 95.2316174,80.6571007 95.3518859,80.3714631 C95.4726242,80.0858255 95.7521544,79.9007248 96.0617517,79.9007248 L123.55202,79.9007248 C123.861617,79.9007248 124.141617,80.0858255 124.261886,80.3714631 C124.382154,80.6571007 124.319671,80.9864295 124.103094,81.2077047 L110.361013,95.3077718 C110.216785,95.4562282 110.017591,95.5407919 109.80994,95.5407919 L109.80994,95.5407919 Z" id="Fill-163" fill="#415572" sketch:type="MSShapeGroup"></path>
                <path d="M109.806933,81.2482483 C109.670221,81.2482483 109.53257,81.2003289 109.423577,81.1021409 L101.01794,73.6417383 C100.779282,73.4298591 100.757671,73.0657651 100.96955,72.8266376 C101.17955,72.5875101 101.546463,72.5668389 101.784651,72.7787181 L109.815859,79.9069732 L118.123779,72.8853624 C118.368074,72.6795906 118.732168,72.7096577 118.938409,72.9530134 C119.143711,73.1968389 119.113174,73.5604631 118.869819,73.7667047 L110.179953,81.1115369 C110.07143,81.2031477 109.939416,81.2482483 109.806933,81.2482483" id="Fill-165" fill="#415572" sketch:type="MSShapeGroup"></path>
                <path d="M109.806933,94.2939933 C109.48794,94.2939933 109.22955,94.0351342 109.22955,93.7166107 L109.22955,80.6707718 C109.22955,80.3517785 109.48794,80.0933893 109.806933,80.0933893 C110.125926,80.0933893 110.384315,80.3517785 110.384315,80.6707718 L110.384315,93.7166107 C110.384315,94.0351342 110.125926,94.2939933 109.806933,94.2939933" id="Fill-167" fill="#415572" sketch:type="MSShapeGroup"></path>
                <path d="M109.80698,96.9627785 C108.588792,96.9627785 93.9597315,83.9329128 93.9597315,82.298953 C93.9597315,80.6654631 100.372953,70.212443 101.400872,69.4076779 C102.429262,68.602443 116.727584,69.1859329 118.496846,69.4076779 C120.266577,69.628953 125.913087,79.8010336 126.426107,81.2597584 C126.939597,82.7184832 109.80698,96.9627785 109.80698,96.9627785" id="Fill-169" fill="#27AAE1" sketch:type="MSShapeGroup"></path>
                <path d="M106.936886,69.7664631 C104.375074,69.7664631 102.282591,69.8444497 101.812792,70.0535101 C100.777826,70.9320336 94.7925906,80.9157248 94.7296376,82.3025705 C95.2694362,83.9478054 107.233799,94.6714295 109.666886,96.0775369 C117.09957,89.8818322 124.886013,82.8677383 125.635342,81.3460604 C124.776081,79.2300872 119.723396,70.6012953 118.373664,70.1648523 C116.946416,69.9891477 111.270779,69.7664631 106.936886,69.7664631 M109.806886,97.7331074 C108.690174,97.7331074 103.752591,93.3978054 100.908899,90.8139128 C93.1896376,83.7988792 93.1896376,82.6708926 93.1896376,82.2992819 C93.1896376,80.371698 99.8109799,69.6748523 100.926282,68.8010268 C102.390644,67.6551879 117.958362,68.5633087 118.592121,68.6431745 C121.055745,68.9527718 126.836148,80.1053221 127.152792,81.0045168 C127.341651,81.5414966 127.843396,82.968745 110.299235,97.5559933 C110.161114,97.6701544 109.986819,97.7331074 109.806886,97.7331074" id="Fill-171" fill="#415572" sketch:type="MSShapeGroup"></path>
                <path d="M109.093591,70.4574899 C109.093591,70.4574899 108.69802,70.723396 108.065671,71.2594362 C107.443188,71.7790336 106.646409,72.5349396 105.906946,73.3476913 C104.400302,74.9586309 103.275134,76.8721208 103.275134,76.8721208 C102.999832,77.3395705 102.39755,77.4960134 101.929631,77.2207114 C101.496946,76.9660805 101.333456,76.4248725 101.529362,75.975745 C101.529362,75.975745 102.499966,73.7432617 103.93849,71.7729262 C104.641779,70.7807114 105.419295,69.8397047 106.052114,69.1650738 C106.666611,68.4965503 107.178691,68.0450738 107.178691,68.0450738 L107.211107,68.0168859 C107.850973,67.4531275 108.826745,67.5146711 109.390973,68.1545369 C109.954732,68.7944027 109.893188,69.7706443 109.253322,70.3344027 C109.204463,70.3776242 109.146208,70.4217852 109.093591,70.4574899" id="Fill-173" fill="#415572" sketch:type="MSShapeGroup"></path>
                <path d="M113.118685,69.0131409 C113.118685,69.0131409 113.384591,69.4087114 113.920631,70.0410604 C114.439758,70.6635436 115.195664,71.4603221 116.008886,72.1997852 C117.619826,73.7064295 119.533315,74.8315973 119.533315,74.8315973 C120.000765,75.1068993 120.157208,75.7091812 119.881906,76.1771007 C119.627275,76.610255 119.086067,76.7732752 118.63694,76.5773691 C118.63694,76.5773691 116.404456,75.6067651 114.434121,74.1682416 C113.441906,73.464953 112.500899,72.6874362 111.826268,72.0546174 C111.157745,71.4401208 110.706268,70.9280403 110.706268,70.9280403 L110.678081,70.8956242 C110.114322,70.2557584 110.175866,69.2799866 110.815732,68.7157584 C111.455597,68.152 112.431369,68.2135436 112.995597,68.8534094 C113.038819,68.9022685 113.08298,68.9605235 113.118685,69.0131409" id="Fill-175" fill="#415572" sketch:type="MSShapeGroup"></path>
                <path d="M107.53104,68.9972617 L107.968893,95.8072617 L109.807215,96.9629664 L112.063658,95.0645101 L112.063658,69.059745 L107.53104,68.9972617 Z" id="Fill-177" fill="#00A79D" sketch:type="MSShapeGroup"></path>
                <path d="M108.731705,95.3767383 L109.740832,96.0128456 L111.293517,94.7058658 L111.293517,69.8192215 L108.313584,69.7769396 L108.731705,95.3767383 Z M109.807074,97.7332483 C109.664725,97.7332483 109.522846,97.694255 109.39694,97.6143893 L107.558617,96.4582148 C107.338282,96.3196242 107.20298,96.0790872 107.198752,95.8188188 L106.760899,69.008349 C106.758081,68.8011678 106.838416,68.5996242 106.985933,68.4521074 C107.13251,68.3045906 107.376805,68.243047 107.541235,68.226604 L112.073852,68.289557 C112.495262,68.2956644 112.833517,68.6386174 112.833517,69.059557 L112.833517,95.0638523 C112.833517,95.2912349 112.73345,95.5059329 112.559154,95.6534497 L110.302242,97.5528456 C110.160362,97.6717047 109.984188,97.7332483 109.807074,97.7332483 L109.807074,97.7332483 Z" id="Fill-179" fill="#415572" sketch:type="MSShapeGroup"></path>
                <g id="Group-183">
                    <mask id="mask-2" sketch:name="Clip 182" fill="white">
                        <use xlink:href="#path-1"></use>
                    </mask>
                    <g id="Clip-182"></g>
                    <path d="M154.021141,1.88046309 C152.393289,1.88046309 151.068926,3.2052953 151.068926,4.83267785 L151.068926,8.16777852 C151.068926,9.79516107 152.393289,11.1199933 154.021141,11.1199933 L156.94,11.1199933 C157.148121,11.1199933 157.347785,11.2040872 157.492953,11.3544228 L159.064899,12.975698 L160.506242,11.3741544 C160.652349,11.2134832 160.86047,11.1199933 161.078456,11.1199933 L164.15,11.1199933 C165.778322,11.1199933 167.102215,9.79516107 167.102215,8.16777852 L167.102215,4.83267785 C167.102215,3.2052953 165.778322,1.88046309 164.15,1.88046309 L154.021141,1.88046309 Z M159.085101,14.8736846 C158.87698,14.8736846 158.677785,14.7895906 158.532617,14.6387852 L156.61396,12.6599933 L154.021141,12.6599933 C151.544362,12.6599933 149.529396,10.6450268 149.529396,8.16777852 L149.529396,4.83267785 C149.529396,2.35589933 151.544362,0.340463087 154.021141,0.340463087 L164.15,0.340463087 C166.627248,0.340463087 168.642215,2.35589933 168.642215,4.83267785 L168.642215,8.16777852 C168.642215,10.6450268 166.627248,12.6599933 164.15,12.6599933 L161.421409,12.6599933 L159.657315,14.6195235 C159.514497,14.7773758 159.312483,14.8689866 159.099664,14.8736846 L159.085101,14.8736846 Z" id="Fill-181" fill="#415572" sketch:type="MSShapeGroup" mask="url(#mask-2)"></path>
                </g>
                <path d="M158.091007,4.63949664 C158.091007,5.13560403 157.688859,5.53775168 157.192752,5.53775168 C156.696644,5.53775168 156.294497,5.13560403 156.294497,4.63949664 C156.294497,4.14338926 156.696644,3.74124161 157.192752,3.74124161 C157.688859,3.74124161 158.091007,4.14338926 158.091007,4.63949664" id="Fill-184" fill="#415572" sketch:type="MSShapeGroup"></path>
                <path d="M161.876691,4.63949664 C161.876691,5.13560403 161.474544,5.53775168 160.978436,5.53775168 C160.482329,5.53775168 160.080181,5.13560403 160.080181,4.63949664 C160.080181,4.14338926 160.482329,3.74124161 160.978436,3.74124161 C161.474544,3.74124161 161.876691,4.14338926 161.876691,4.63949664" id="Fill-186" fill="#415572" sketch:type="MSShapeGroup"></path>
                <path d="M159.117658,9.7003557 C160.554302,9.7003557 161.726919,8.56955034 161.793631,7.14934899 C161.796919,7.08028859 161.738664,7.02156376 161.669134,7.02156376 L156.566181,7.02156376 C156.496651,7.02156376 156.438396,7.08028859 156.441685,7.14934899 C156.508396,8.56955034 157.681013,9.7003557 159.117658,9.7003557" id="Fill-188" fill="#415572" sketch:type="MSShapeGroup"></path>
                <path d="M170.856047,95.9680738 C169.137523,106.746195 169.021953,115.112839 170.110477,115.286664 C171.19853,115.46002 172.770007,108.589215 174.48853,97.811094" id="Fill-190" fill="#415572" sketch:type="MSShapeGroup"></path>
                <path d="M170.18057,116.061973 C170.117617,116.061973 170.054195,116.055866 169.988893,116.04694 C169.219832,115.923852 168.482718,115.32345 168.660772,109.580631 C168.779161,105.786067 169.287953,100.909557 170.095537,95.8460671 C170.161779,95.4265369 170.556409,95.1498255 170.976879,95.2066711 C171.397349,95.2743221 171.682987,95.6684832 171.615805,96.0894228 C170.156611,105.24345 170.000168,111.600295 170.312114,113.860497 C170.890906,112.463315 171.994933,108.559289 173.72802,97.689557 C173.795201,97.2700268 174.195,96.991906 174.609362,97.0506309 C175.029832,97.1182819 175.31547,97.5119732 175.248289,97.9333826 C174.356611,103.527745 173.537282,107.869154 172.810973,110.839221 C171.873725,114.672309 171.188289,116.061973 170.18057,116.061973" id="Fill-192" fill="#415572" sketch:type="MSShapeGroup"></path>
                <path d="M161.993906,96.0371812 C162.720685,106.927584 165.070148,128.724362 166.169946,128.651074 C167.269275,128.577785 166.702228,106.661678 165.97545,95.7712752" id="Fill-194" fill="#415572" sketch:type="MSShapeGroup"></path>
                <path d="M166.053342,129.42657 C165.272067,129.42657 164.631262,128.670195 163.178174,116.54798 C162.387034,109.952007 161.602,101.73053 161.225221,96.0882483 C161.197503,95.6640201 161.517906,95.2971074 161.942604,95.2684497 C162.365893,95.2458993 162.734215,95.5601946 162.762403,95.9858322 C163.381128,105.258248 164.877436,119.033685 165.934483,125.118047 C166.173611,118.947711 165.82643,105.094758 165.207235,95.8218725 C165.179517,95.3976443 165.500859,95.0307315 165.924617,95.0025436 C166.342268,94.9663691 166.716698,95.2942886 166.744416,95.7194564 C166.99106,99.416302 168.399517,127.318114 166.82945,129.110866 C166.694617,129.26402 166.424013,129.40543 166.220121,129.419054 C166.163745,129.421872 166.108309,129.42657 166.053342,129.42657" id="Fill-196" fill="#415572" sketch:type="MSShapeGroup"></path>
                <path d="M178.263785,56.7052617 C178.263785,56.7052617 181.05298,57.9347248 181.68251,62.150698 C182.317678,66.4028456 180.416872,69.5551946 180.432376,75.8176107 C180.448349,82.2660671 184.731503,87.5597584 183.465866,100.55345 L154.631034,100.55345 C154.631034,100.55345 154.956134,87.5390872 157.581839,79.6676107 C163.156,62.9559329 153.382309,69.4335168 160.773651,56.3538523 L178.263785,56.7052617 Z" id="Fill-198" fill="#FBB040" sketch:type="MSShapeGroup"></path>
                <path d="M155.428752,99.7829799 L182.763047,99.7829799 C183.399154,92.2126443 182.121772,87.4634497 180.990966,83.2587517 C180.281101,80.6194228 179.668483,78.3413691 179.662376,75.8194899 C179.654859,72.7592215 180.092242,70.4327785 180.477946,68.3797584 C180.884322,66.2219732 181.234322,64.3601611 180.920966,62.2653289 C180.432846,58.996 178.563047,57.747745 178.072107,57.472443 L161.21996,57.1327785 C157.922913,63.070094 158.475396,64.4804295 159.233651,66.4188188 C160.094322,68.6188859 161.164993,71.3573423 158.311436,79.9114362 C156.120295,86.4801611 155.54996,96.8580134 155.428752,99.7829799 M183.466336,101.32298 L154.631034,101.32298 C154.423383,101.32298 154.225128,101.238886 154.07996,101.08996 C153.934792,100.942443 153.855866,100.740899 153.861034,100.533248 C153.874658,99.9981477 154.21902,87.3131141 156.851302,79.424255 C159.527275,71.3996242 158.569356,68.950094 157.799356,66.9797584 C156.807141,64.4414362 156.386671,62.5523758 160.103248,55.9747248 C160.243248,55.7280805 160.49647,55.5702282 160.790094,55.5838523 L178.279289,55.9357315 C178.380765,55.9371409 178.480832,55.9596913 178.574322,56.0005638 C178.703517,56.0574094 181.759557,57.4531812 182.444523,62.0365369 C182.795463,64.3888188 182.423383,66.3694899 181.991638,68.6639866 C181.618148,70.6493557 181.194859,72.9006309 181.202376,75.8162013 C181.208013,78.1351275 181.796201,80.3248591 182.478349,82.858953 C183.618081,87.0965369 185.036872,92.371906 184.232577,100.628148 C184.194054,101.022309 183.862376,101.32298 183.466336,101.32298" id="Fill-200" fill="#415572" sketch:type="MSShapeGroup"></path>
                <path d="M156.125792,62.8007114 C155.98955,62.8007114 155.85143,62.7645369 155.726463,62.6879597 C155.43049,62.5089664 148.469953,58.1266846 143.662034,42.4837987 C142.856799,42.1784295 141.106799,41.3454765 140.232503,39.5982953 C139.539081,38.2128591 139.549886,36.5948725 140.26398,34.7870872 C140.421362,34.3919866 140.87143,34.1960805 141.262772,34.3544027 C141.658342,34.5103758 141.852369,34.9571544 141.695926,35.3527248 C141.149081,36.7362819 141.120423,37.9319195 141.609483,38.9091007 C142.438678,40.5637315 144.464919,41.1321879 144.485591,41.1378255 C144.741631,41.2073557 144.943174,41.4042013 145.019752,41.6583624 C149.663242,57.0517852 156.458879,61.331651 156.52653,61.3734631 C156.889685,61.5947383 157.005725,62.0682953 156.78445,62.4309799 C156.639282,62.6701074 156.38606,62.8007114 156.125792,62.8007114" id="Fill-202" fill="#415572" sketch:type="MSShapeGroup"></path>
                <path d="M183.700812,63.8940268 C183.457926,63.8940268 183.218799,63.7784564 183.069403,63.564698 C182.825577,63.2156376 182.911081,62.7359732 183.259201,62.4926174 C183.347523,62.430604 192.112557,56.1761745 196.856114,41.804094 C196.936919,41.5593289 197.135174,41.3709396 197.382758,41.3018792 C197.40296,41.297651 199.447523,40.7108725 200.265443,39.0642282 C200.749805,38.0884564 200.718799,36.8956376 200.174772,35.5167785 C200.018329,35.1212081 200.212356,34.6744295 200.607456,34.5179866 C200.997859,34.3587248 201.449805,34.5555705 201.606248,34.9511409 C202.320342,36.7589262 202.331148,38.3769128 201.637725,39.7618792 C200.758732,41.517047 198.995577,42.3514094 198.19645,42.6525503 C193.257456,57.2816107 184.513094,63.497047 184.140074,63.755906 C184.006181,63.8489262 183.852557,63.8940268 183.700812,63.8940268" id="Fill-204" fill="#415572" sketch:type="MSShapeGroup"></path>
                <path d="M178.263785,56.7052617 C178.263785,56.7052617 179.814121,59.133651 177.933517,60.8831812 C176.052913,62.6322416 174.128148,61.3811678 174.128148,61.3811678 C174.128148,61.3811678 173.261839,63.0170067 170.759691,63.4022416 C168.257074,63.7870067 166.894658,62.150698 166.894658,62.150698 C166.894658,62.150698 164.48694,63.3510336 162.386,62.0548591 C159.149087,60.0572752 161.35949,56.3538523 161.35949,56.3538523" id="Fill-206" fill="#FFFFFF" sketch:type="MSShapeGroup"></path>
                <path d="M170.002376,64.2308725 C168.397074,64.2308725 167.28506,63.5224161 166.723181,63.0516779 C165.806134,63.3767785 163.817946,63.8414094 161.981503,62.710604 C158.910899,60.8154362 159.799758,57.465302 160.698953,55.9595973 C160.91694,55.5945638 161.386268,55.4785235 161.751772,55.6922819 C162.116805,55.9088591 162.237544,56.3810067 162.022376,56.7465101 C161.837275,57.0608054 160.289758,59.8561074 162.790966,61.3989262 C164.50949,62.4606711 166.532443,61.4726846 166.551235,61.462349 C166.871638,61.3012081 167.257812,61.3838926 167.486604,61.6577852 C167.527946,61.7057047 168.627745,62.9511409 170.642242,62.6415436 C172.704658,62.3239597 173.440832,61.0338926 173.447879,61.0202685 C173.549356,60.8290604 173.726,60.6895302 173.93506,60.6350336 C174.143181,60.5810067 174.365866,60.6171812 174.547678,60.7360403 C174.690497,60.8248322 176.032711,61.6004698 177.409691,60.3193289 C178.803584,59.0231544 177.663852,57.1975168 177.614993,57.1209396 C177.386201,56.7615436 177.490497,56.2861074 177.849423,56.055906 C178.207879,55.8275839 178.683785,55.9342282 178.912577,56.2908054 C179.568416,57.3191946 180.317275,59.7179866 178.457812,61.4473154 C176.999557,62.8022148 175.390497,62.7134228 174.369624,62.3479195 C173.826067,62.9675839 172.738013,63.8775839 170.876671,64.1632215 C170.570832,64.2097315 170.279087,64.2308725 170.002376,64.2308725" id="Fill-208" fill="#415572" sketch:type="MSShapeGroup"></path>
                <path d="M183.976114,110.266067 C183.976114,110.266067 185.167993,113.491235 186.20343,114.415799 C187.238396,115.340362 184.587322,108.314993 184.587322,108.314993" id="Fill-210" fill="#415572" sketch:type="MSShapeGroup"></path>
                <path d="M186.355081,115.26947 C186.148369,115.26947 185.917698,115.192893 185.690315,114.98994 C184.545886,113.967188 183.382664,110.881081 183.254409,110.533899 C183.105953,110.134101 183.309846,109.69155 183.709174,109.544503 C183.879242,109.479671 184.057765,109.48249 184.217966,109.535577 C184.101456,109.215174 183.983537,108.896181 183.867027,108.586584 C183.716691,108.187725 183.917295,107.744235 184.315215,107.593899 C184.715013,107.444973 185.157094,107.645107 185.307899,108.042087 C187.742396,114.494772 187.317698,114.786517 186.826758,115.123362 C186.700383,115.209336 186.536893,115.26947 186.355081,115.26947" id="Fill-212" fill="#415572" sketch:type="MSShapeGroup"></path>
                <path d="M165.701416,127.79496 C165.701416,127.79496 162.297725,128.279792 161.175376,129.096772 C160.053027,129.913752 167.147926,128.826168 167.147926,128.826168" id="Fill-214" fill="#415572" sketch:type="MSShapeGroup"></path>
                <path d="M161.911034,130.167913 C160.596067,130.167913 160.477208,129.878987 160.347074,129.563282 C160.222107,129.259792 160.254523,128.814423 160.721503,128.474758 C161.963651,127.570866 165.224523,127.085094 165.592376,127.032477 C166.015664,126.979859 166.403718,127.264087 166.463852,127.686436 C166.487812,127.856503 166.453987,128.021872 166.378349,128.161872 C166.598685,128.130396 166.817141,128.09845 167.031369,128.065564 C167.452779,127.995094 167.84506,128.289658 167.908953,128.709188 C167.973785,129.130128 167.684859,129.522879 167.264859,129.587242 C164.505262,130.01006 162.882577,130.167913 161.911034,130.167913" id="Fill-216" fill="#415572" sketch:type="MSShapeGroup"></path>
                <path d="M179.232416,84.2502617 C178.650336,84.1295235 178.154228,83.6991879 177.989799,83.0861007 C177.756779,82.2188523 178.271208,81.3271745 179.138456,81.0946242 C179.218322,81.0734832 179.298188,81.064557 179.378054,81.0556309 C179.346107,80.9818725 179.313221,80.9085839 179.292081,80.8287181 C179.05906,79.9614698 179.57349,79.0702617 180.440738,78.8372416 C180.453423,78.833953 180.466107,78.8344228 180.478792,78.8311342 C180.752685,79.8646913 180.968792,80.8916711 181.138389,81.8660336 C181.145906,81.9097248 181.153893,81.9538859 181.161409,81.9971074 C181.306107,82.8455638 181.41651,83.6479799 181.500134,84.3752282 C181.502483,84.3930805 181.503893,84.4104631 181.506242,84.4283154 C181.587987,85.1485168 182.030537,85.8254966 182.068591,86.3568389 C181.858121,86.6922752 181.143087,86.9182483 180.730604,87.0291208 C179.863356,87.2616711 178.972148,86.7477114 178.739128,85.8804631 C178.574698,85.266906 178.788926,84.646302 179.232416,84.2502617" id="Fill-218" fill="#415572" sketch:type="MSShapeGroup"></path>
                <path d="M157.837926,87.3162617 C158.362221,87.5962617 158.716919,88.148745 158.701886,88.7839128 C158.680275,89.6812282 157.935644,90.3915638 157.038329,90.369953 C156.955174,90.3680738 156.876248,90.3539799 156.797322,90.3398859 C156.807188,90.4197517 156.817523,90.4996174 156.815644,90.582302 C156.794503,91.4796174 156.049403,92.189953 155.152087,92.1683423 C155.138933,92.1683423 155.126718,92.1641141 155.113564,92.1636443 C155.142221,91.0948523 155.224906,90.0486107 155.337188,89.0657919 C155.341886,89.0221007 155.346584,88.9774698 155.351752,88.9337785 C155.452289,88.0792148 155.572557,87.2777383 155.697523,86.5565973 C155.700342,86.538745 155.703631,86.5218322 155.706919,86.5039799 C155.831416,85.7898859 155.957792,85.1594161 156.071013,84.639349 C156.367456,84.3767315 156.757389,84.2174698 157.184436,84.2278054 C158.081752,84.2489463 158.792087,84.994047 158.770946,85.8913624 C158.755443,86.5260604 158.374906,87.0616309 157.837926,87.3162617" id="Fill-220" fill="#415572" sketch:type="MSShapeGroup"></path>
                <path d="M168.322799,111.837121 L184.51394,107.19598 L185.721792,111.409604 L169.530651,116.051215 L168.322799,111.837121 Z" id="Fill-222" fill="#FBB040" sketch:type="MSShapeGroup"></path>
                <path d="M169.275268,112.36555 L170.058893,115.099309 L184.770168,110.881456 L183.986544,108.147228 L169.275268,112.36555 Z M169.530369,116.821591 C169.195403,116.821591 168.888154,116.601725 168.790906,116.26347 L167.582584,112.049846 C167.526208,111.854409 167.550168,111.64394 167.648826,111.464946 C167.747953,111.285953 167.914262,111.15347 168.110638,111.098034 L184.302248,106.455483 C184.498624,106.401456 184.708154,106.424007 184.888087,106.521725 C185.066141,106.620852 185.198624,106.786221 185.25406,106.983537 L186.461913,111.197161 C186.578893,111.605886 186.343054,112.031523 185.933859,112.148973 L169.743188,116.791523 C169.672248,116.812195 169.600839,116.821591 169.530369,116.821591 L169.530369,116.821591 Z" id="Fill-224" fill="#415572" sketch:type="MSShapeGroup"></path>
                <path d="M167.267161,112.175846 L168.38857,128.981953 L164.014745,129.273698 L162.893336,112.467591 L167.267161,112.175846 Z" id="Fill-226" fill="#FBB040" sketch:type="MSShapeGroup"></path>
                <path d="M163.712617,113.185161 L164.732081,128.453617 L167.569195,128.264289 L166.549732,112.995832 L163.712617,113.185161 Z M164.014228,130.042946 C163.612081,130.042946 163.273356,129.73194 163.246577,129.324154 L162.124698,112.518987 C162.111074,112.316034 162.178725,112.11449 162.313087,111.960866 C162.447919,111.807711 162.638188,111.712812 162.842081,111.699188 L167.215906,111.407443 C167.636846,111.365631 168.007047,111.699188 168.035235,112.124826 L169.157114,128.930463 C169.170738,129.133416 169.103087,129.33496 168.968725,129.488114 C168.833893,129.641738 168.643624,129.736168 168.439732,129.749792 L164.065906,130.041537 C164.048523,130.042946 164.031611,130.042946 164.014228,130.042946 L164.014228,130.042946 Z" id="Fill-228" fill="#415572" sketch:type="MSShapeGroup"></path>
                <path d="M160.56647,29.8944631 C160.56647,29.8944631 155.978886,31.255 155.342779,35.4939933 C154.707141,39.7329866 154.282913,49.8538591 151.686805,51.2317785 C151.686805,51.2317785 154.014188,52.8398993 158.864859,52.0886913" id="Fill-230" fill="#FFFFFF" sketch:type="MSShapeGroup"></path>
                <path d="M156.386671,53.0573691 C153.023383,53.0573691 151.334456,51.9251544 151.248953,51.8650201 C151.027678,51.7128054 150.902242,51.4558255 150.917745,51.1866309 C150.933718,50.9188456 151.087812,50.6783087 151.32553,50.5519329 C153.00694,49.660255 153.738416,42.8538121 154.176268,38.7877047 C154.316738,37.4760268 154.444523,36.292604 154.581235,35.3797852 C155.281235,30.7104564 160.140832,29.2169664 160.347544,29.1554228 C160.758148,29.0379732 161.181436,29.2667651 161.303584,29.6726711 C161.425262,30.0804564 161.193651,30.5089128 160.786805,30.632 C160.746403,30.6442148 156.657275,31.9178389 156.104792,35.6085772 C155.96996,36.5044832 155.845463,37.6658255 155.706872,38.9530738 C155.113047,44.4750872 154.513114,48.9804564 153.037477,51.0076376 C154.063987,51.3623356 155.958215,51.757906 158.74694,51.3280403 C159.170228,51.2646174 159.56204,51.5521342 159.625933,51.9716644 C159.690765,52.3911946 159.402779,52.7853557 158.983248,52.8497181 C158.027208,52.9972349 157.162779,53.0573691 156.386671,53.0573691" id="Fill-232" fill="#415572" sketch:type="MSShapeGroup"></path>
                <path d="M169.983255,59.966557 L169.983255,59.966557 C176.478691,59.966557 181.793523,54.6517248 181.793523,48.1562886 L181.793523,36.9872953 C181.793523,30.4918591 176.478691,25.1770268 169.983255,25.1770268 L169.983255,25.1770268 C163.487819,25.1770268 158.172987,30.4918591 158.172987,36.9872953 L158.172987,48.1562886 C158.172987,54.6517248 163.487819,59.966557 169.983255,59.966557" id="Fill-234" fill="#FFFFFF" sketch:type="MSShapeGroup"></path>
                <path d="M169.727919,25.9462752 C163.781208,25.9462752 158.943221,30.7842617 158.943221,36.7319128 L158.943221,48.412047 C158.943221,54.3582886 163.781208,59.1958054 169.727919,59.1958054 L170.238591,59.1958054 C176.185302,59.1958054 181.023289,54.3582886 181.023289,48.412047 L181.023289,36.7319128 C181.023289,30.7842617 176.185302,25.9462752 170.238591,25.9462752 L169.727919,25.9462752 Z M170.238591,60.7358054 L169.727919,60.7358054 C162.932282,60.7358054 157.403221,55.2076846 157.403221,48.412047 L157.403221,36.7319128 C157.403221,29.9358054 162.932282,24.4062752 169.727919,24.4062752 L170.238591,24.4062752 C177.034228,24.4062752 182.563289,29.9358054 182.563289,36.7319128 L182.563289,48.412047 C182.563289,55.2076846 177.034228,60.7358054 170.238591,60.7358054 L170.238591,60.7358054 Z" id="Fill-236" fill="#415572" sketch:type="MSShapeGroup"></path>
                <path d="M175.160906,37.9662148 C162.655336,38.1024564 160.566611,29.894604 160.566611,29.894604 C160.566611,29.894604 164.457013,23.7303758 172.84151,24.226953 C183.69198,25.1768859 187.133255,34.0668859 187.768893,41.6217181 C188.405,49.1765503 190.846074,51.7223893 190.846074,51.7223893 C185.122987,55.6827919 180.459765,51.7054765 180.459765,51.7054765 C180.459765,51.7054765 182.542852,42.2648725 179.275872,37.9521208" id="Fill-238" fill="#FFFFFF" sketch:type="MSShapeGroup"></path>
                <path d="M185.655034,54.2363758 C182.297852,54.2363758 179.99443,52.3205369 179.960134,52.2918792 C179.744027,52.1067785 179.647248,51.8183221 179.708322,51.5402013 C179.728523,51.4481208 181.675369,42.3936913 178.662081,38.415906 C178.405101,38.077651 178.471812,37.5951678 178.811007,37.3377181 C179.150201,37.0793289 179.632215,37.1469799 179.889195,37.4866443 C182.927852,41.4973154 181.701678,49.3246309 181.311275,51.3804698 C182.37443,52.1039597 185.690268,53.9009396 189.738523,51.517651 C188.93047,50.2618792 187.473154,47.2899329 187.001946,41.6871141 C186.512886,35.8747651 184.014497,25.9779866 172.774564,24.9942282 C165.953557,24.5808054 162.277852,28.8742953 161.416242,30.0248322 C161.943356,31.4891946 164.704362,37.2808725 175.152215,37.1963087 C175.561409,37.1300671 175.926913,37.5331544 175.930671,37.9573826 C175.934899,38.3830201 175.594295,38.7320805 175.168658,38.7363087 C162.168389,38.8838255 159.842416,30.1704698 159.820805,30.0830872 C159.768188,29.8787248 159.802483,29.6621477 159.915235,29.4831544 C160.085302,29.2153691 164.17443,22.9383893 172.887315,23.4589262 C185.272148,24.5418121 188.006376,35.2626174 188.535839,41.5574497 C189.134832,48.6692617 191.383289,51.17 191.405839,51.1939597 C191.557584,51.3579195 191.632752,51.5820134 191.608792,51.8032886 C191.584832,52.0255034 191.467383,52.2289262 191.283691,52.355302 C189.247584,53.7642282 187.321409,54.2363758 185.655034,54.2363758" id="Fill-240" fill="#415572" sketch:type="MSShapeGroup"></path>
                <path d="M161.328389,30.0052416 C161.328389,30.0052416 161.193557,30.7761812 161.195436,32.0159799 C161.208591,32.6243691 161.241477,33.3394027 161.382416,34.0788658 C161.437383,34.4537651 161.53557,34.8267852 161.647383,35.2016846 C161.738523,35.5859799 161.924564,35.9312819 162.057987,36.3028926 C162.264698,36.6275235 162.406577,37.0047718 162.65604,37.2885302 C162.886242,37.5887315 163.107517,37.8903423 163.393154,38.1106779 C163.525638,38.2314161 163.656242,38.3498054 163.784497,38.4663154 C163.932013,38.5565168 164.076711,38.6448389 164.217651,38.7312819 C164.489664,38.9210805 164.767785,39.0662483 165.051074,39.1531611 C165.327785,39.2499396 165.566913,39.3767852 165.803691,39.4265839 C166.041879,39.4745034 166.24953,39.5158456 166.420067,39.5501409 C166.762081,39.6206107 166.957517,39.6610134 166.957517,39.6610134 L167.048658,39.6793356 C167.365302,39.7446376 167.569195,40.0542349 167.503893,40.3708792 C167.44,40.6809463 167.141208,40.8824899 166.831611,40.8298725 C166.831611,40.8298725 166.605638,40.7908792 166.211007,40.7232282 C166.013221,40.6879933 165.773154,40.6457114 165.497852,40.5968523 C165.22302,40.5447047 164.926107,40.4079933 164.595369,40.2985302 C164.258054,40.1994027 163.91557,40.0345034 163.571678,39.8132282 C163.396443,39.7103423 163.21651,39.6046376 163.032349,39.4965839 C162.869329,39.3579933 162.70255,39.2170537 162.532953,39.0732953 C162.174497,38.8022215 161.88745,38.4451745 161.595705,38.0815503 C161.282819,37.7310805 161.09443,37.298396 160.839799,36.9032953 C160.665973,36.4762483 160.44,36.0595369 160.321141,35.6245034 C160.179732,35.193698 160.057584,34.766651 159.983356,34.3471208 C159.802013,33.5108792 159.744698,32.7220872 159.712752,32.0479262 C159.696309,31.3728255 159.709463,30.8109463 159.743289,30.4144362 C159.782282,30.0132282 159.804362,29.7834966 159.804362,29.7834966 C159.845705,29.3602081 160.222483,29.0501409 160.646242,29.0910134 C161.07,29.1323557 161.380067,29.5091342 161.338725,29.9328926 C161.336846,29.9516846 161.334497,29.9704765 161.331208,29.9892685 L161.328389,30.0052416 Z" id="Fill-242" fill="#415572" sketch:type="MSShapeGroup"></path>
                <path d="M180.459812,50.1322617 C180.459812,50.1322617 177.893302,55.2234698 179.774376,56.3143423 C181.690215,57.4254161 182.268067,53.8352148 180.459812,50.1322617" id="Fill-244" fill="#FFFFFF" sketch:type="MSShapeGroup"></path>
                <path d="M180.427725,52.1580805 C179.840477,53.7911007 179.613564,55.3311007 180.160879,55.6486846 C180.218664,55.6829799 180.409872,55.7839866 180.470007,55.7313691 C180.808262,55.4151946 180.972221,54.0048591 180.427725,52.1580805 M180.430074,57.2920403 C180.132221,57.2920403 179.782691,57.2093557 179.387591,56.9810336 C176.999604,55.5941879 179.289403,50.7444564 179.772826,49.7851275 C179.90343,49.5262685 180.169805,49.3623087 180.460141,49.3623087 L180.465309,49.3623087 C180.757993,49.3641879 181.023899,49.5323758 181.151685,49.7940537 C182.569067,52.6964698 182.726919,55.7341879 181.519537,56.8574765 C181.345242,57.0200268 180.971282,57.2920403 180.430074,57.2920403" id="Fill-246" fill="#415572" sketch:type="MSShapeGroup"></path>
                <path d="M157.72245,50.1322617 C157.72245,50.1322617 155.15594,55.2234698 157.037013,56.3143423 C158.952852,57.4254161 159.530705,53.8352148 157.72245,50.1322617" id="Fill-248" fill="#FFFFFF" sketch:type="MSShapeGroup"></path>
                <path d="M157.689752,52.1580805 C157.103443,53.7911007 156.87606,55.3311007 157.423376,55.6486846 C157.480691,55.6815705 157.673779,55.7821074 157.732503,55.7313691 C158.070758,55.4151946 158.234718,54.0048591 157.689752,52.1580805 M157.69257,57.2920403 C157.395188,57.2920403 157.045188,57.2093557 156.650557,56.9810336 C154.26257,55.5941879 156.55143,50.7444564 157.034852,49.7865369 C157.165456,49.5262685 157.431832,49.3623087 157.722168,49.3623087 L157.726396,49.3623087 C158.019081,49.3641879 158.285456,49.5323758 158.413711,49.7940537 C159.831094,52.6964698 159.989886,55.7327785 158.782503,56.8574765 C158.607738,57.0200268 158.234248,57.2920403 157.69257,57.2920403" id="Fill-250" fill="#415572" sketch:type="MSShapeGroup"></path>
                <path d="M164.778074,50.9024027 C165.341362,52.5100537 167.067872,53.6756242 169.064987,53.6756242 C171.061631,53.6756242 172.788141,52.5100537 173.35143,50.9024027 L164.778074,50.9024027 Z M169.064987,55.2156242 C165.943644,55.2156242 163.307134,53.0122685 163.063779,50.1986443 C163.044987,49.9834765 163.116866,49.7715973 163.262973,49.6123356 C163.408611,49.452604 163.614852,49.3624027 163.83049,49.3624027 L174.299013,49.3624027 C174.514651,49.3624027 174.720893,49.452604 174.86653,49.6123356 C175.012638,49.7715973 175.084517,49.9834765 175.065725,50.1986443 C174.822369,53.0122685 172.185859,55.2156242 169.064987,55.2156242 L169.064987,55.2156242 Z" id="Fill-252" fill="#415572" sketch:type="MSShapeGroup"></path>
            </g>
        </g>
    </g>
</svg>