<?xml version="1.0" encoding="UTF-8" standalone="no"?>
<svg width="501px" height="156px" viewBox="0 0 501 156" version="1.1" xmlns="http://www.w3.org/2000/svg" xmlns:xlink="http://www.w3.org/1999/xlink" xmlns:sketch="http://www.bohemiancoding.com/sketch/ns">
    <!-- Generator: Sketch 3.4.4 (17249) - http://www.bohemiancoding.com/sketch -->
    <title>Page 1 + Page 1</title>
    <desc>Created with Sketch.</desc>
    <defs>
        <path id="path-1" d="M0,0.3848 L243.998568,0.3848 L243.998568,156 L0,156 L0,0.3848 Z"></path>
        <path id="path-3" d="M0,0.413895954 L182.451075,0.413895954 L182.451075,119.34 L0,119.34 L0,0.413895954 Z"></path>
        <path id="path-5" d="M0,0.413895954 L182.451075,0.413895954 L182.451075,119.34 L0,119.34 L0,0.413895954 Z"></path>
        <path id="path-7" d="M0,0.413895954 L182.451075,0.413895954 L182.451075,119.34 L0,119.34 L0,0.413895954 Z"></path>
        <path id="path-9" d="M0,0.413895954 L182.451075,0.413895954 L182.451075,119.34 L0,119.34 L0,0.413895954 Z"></path>
        <path id="path-11" d="M0,0.413895954 L182.451075,0.413895954 L182.451075,119.34 L0,119.34"></path>
        <path id="path-13" d="M0,0.413895954 L182.451075,0.413895954 L182.451075,119.34 L0,119.34 L0,0.413895954 Z"></path>
    </defs>
    <g id="option2" stroke="none" stroke-width="1" fill="none" fill-rule="evenodd" sketch:type="MSPage">
        <g id="howitworks2" sketch:type="MSArtboardGroup" transform="translate(-142.000000, -451.000000)">
            <g id="Page-1-+-Page-1" sketch:type="MSLayerGroup" transform="translate(142.000000, 451.000000)">
                <g id="Page-1">
                    <path d="M4.40506091,153.135909 C4.0446607,153.135909 3.71059743,152.906416 3.59416043,152.544496 C3.45000035,152.095909 3.6960428,151.616816 4.14446384,151.472603 L21.9426898,145.744283 C22.3897246,145.600069 22.8700272,145.846203 23.0141873,146.294789 C23.1583474,146.742683 22.9123049,147.222469 22.4638839,147.366683 L4.66565799,153.095003 C4.57902332,153.122736 4.49169558,153.135909 4.40506091,153.135909" id="Fill-1" fill="#D1D3D4" sketch:type="MSShapeGroup"></path>
                    <path d="M18.9742395,155.470709 C18.6138393,155.470709 18.279776,155.241216 18.1633391,154.879296 C18.019179,154.430709 18.2652214,153.951616 18.7136425,153.807403 L36.5104822,148.079083 C36.9575171,147.933483 37.4371266,148.181003 37.5826729,148.629589 C37.7268329,149.077483 37.4800974,149.557269 37.0323694,149.701483 L19.2348366,155.429803 C19.1482019,155.457536 19.0608742,155.470709 18.9742395,155.470709" id="Fill-3" fill="#D1D3D4" sketch:type="MSShapeGroup"></path>
                    <path d="M42.0926657,152.283664 C41.7322655,152.283664 41.3982022,152.054171 41.2817652,151.692251 C41.1376051,151.243664 41.3836476,150.764571 41.8320686,150.620357 L59.6302945,144.892037 C60.0787155,144.745744 60.5562458,144.993957 60.7017921,145.442544 C60.8459522,145.890437 60.5999097,146.370224 60.1514887,146.514437 L42.3532628,152.242757 C42.2666281,152.270491 42.1793003,152.283664 42.0926657,152.283664" id="Fill-5" fill="#D1D3D4" sketch:type="MSShapeGroup"></path>
                    <path d="M50.9912935,156 C50.6308933,156 50.29683,155.770507 50.180393,155.408587 C50.0362329,154.96 50.2822754,154.480907 50.7306964,154.336693 L56.9767093,152.326027 C57.4237442,152.181813 57.9033537,152.427947 58.0482069,152.876533 C58.19306,153.323733 57.9463245,153.804213 57.4985966,153.948427 L51.2518906,155.959093 C51.1652559,155.986827 51.0779281,156 50.9912935,156" id="Fill-7" fill="#D1D3D4" sketch:type="MSShapeGroup"></path>
                    <path d="M62.3014839,152.360208 C61.9410836,152.360208 61.6070204,152.130715 61.4905834,151.768795 C61.3464233,151.321595 61.5924657,150.841115 62.0408868,150.696901 L68.5287837,148.608581 C68.9723532,148.460901 69.4554281,148.709115 69.6002813,149.159088 C69.7444413,149.606981 69.4983989,150.086768 69.0499779,150.230981 L62.5620809,152.319301 C62.4754463,152.347035 62.3881185,152.360208 62.3014839,152.360208" id="Fill-9" fill="#D1D3D4" sketch:type="MSShapeGroup"></path>
                    <path d="M151.520982,60.9844213 L145.459328,62.7857013" id="Fill-11" fill="#EDEBF4" sketch:type="MSShapeGroup"></path>
                    <path d="M145.459467,63.9215893 C144.969461,63.9215893 144.517575,63.6019627 144.369949,63.1090027 C144.191828,62.506496 144.534208,61.874176 145.1358,61.695296 L151.196761,59.8947093 C151.806669,59.7123627 152.430438,60.0611093 152.609946,60.6601493 C152.788759,61.262656 152.445686,61.894976 151.844788,62.073856 L145.783134,63.875136 C145.675014,63.9070293 145.566201,63.9215893 145.459467,63.9215893" id="Fill-13" fill="#415572" sketch:type="MSShapeGroup"></path>
                    <path d="M143.080271,51.230192 L140.719649,56.6208587" id="Fill-15" fill="#EDEBF4" sketch:type="MSShapeGroup"></path>
                    <path d="M140.718402,57.7573013 C140.566618,57.7573013 140.412062,57.727488 140.263743,57.6616213 C139.689182,57.4099413 139.427199,56.739488 139.678786,56.1647147 L142.039407,50.774048 C142.288915,50.197888 142.954962,49.931648 143.535761,50.189568 C144.110322,50.441248 144.372306,51.1117013 144.120719,51.6864747 L141.760097,57.0771413 C141.573659,57.502848 141.156427,57.7573013 140.718402,57.7573013" id="Fill-17" fill="#415572" sketch:type="MSShapeGroup"></path>
                    <path d="M129.734374,51.413024 L132.265492,56.261504" id="Fill-19" fill="#EDEBF4" sketch:type="MSShapeGroup"></path>
                    <path d="M132.266809,57.3977387 C131.8572,57.3977387 131.461453,57.175872 131.258381,56.7876053 L128.727263,51.9391253 C128.437557,51.383072 128.653104,50.696672 129.208259,50.405472 C129.763414,50.1156587 130.44956,50.3298987 130.741346,50.8873387 L133.273157,55.7351253 C133.56217,56.2911787 133.347317,56.978272 132.791468,57.2687787 C132.623744,57.356832 132.444237,57.3977387 132.266809,57.3977387" id="Fill-21" fill="#415572" sketch:type="MSShapeGroup"></path>
                    <path d="M105.060335,145.7508 L107.497195,149.80472 L122.584103,149.80472 L119.46872,145.7508 L105.060335,145.7508 Z" id="Fill-23" fill="#415572" sketch:type="MSShapeGroup"></path>
                    <path d="M108.140094,148.668277 L120.277957,148.668277 L118.909823,146.887104 L107.069983,146.887104 L108.140094,148.668277 Z M122.583826,150.941024 L107.497611,150.941024 C107.099785,150.941024 106.730375,150.732331 106.523838,150.390517 L104.086978,146.336597 C103.876282,145.985077 103.870738,145.547584 104.072423,145.191904 C104.273415,144.835531 104.651143,144.614357 105.060751,144.614357 L119.469136,144.614357 C119.821912,144.614357 120.154589,144.778677 120.370137,145.058784 L123.484826,149.112011 C123.748889,149.455211 123.793939,149.919051 123.603342,150.307317 C123.41136,150.694891 123.016306,150.941024 122.583826,150.941024 L122.583826,150.941024 Z" id="Fill-25" fill="#415572" sketch:type="MSShapeGroup"></path>
                    <path d="M227.385643,78.010816 L239.834005,88.0731627 L239.834005,104.526656 L227.385643,104.526656 L227.385643,78.010816 Z" id="Fill-27" fill="#E6E7E8" sketch:type="MSShapeGroup"></path>
                    <path d="M228.238059,103.674965 L238.981451,103.674965 L238.981451,88.479872 L228.238059,79.795872 L228.238059,103.674965 Z M239.833243,105.379179 L227.386267,105.379179 C226.915667,105.379179 226.534475,104.997845 226.534475,104.527072 L226.534475,78.011232 C226.534475,77.682592 226.722992,77.3844587 227.018936,77.2423253 C227.314187,77.102272 227.665577,77.1410987 227.922016,77.3490987 L240.368992,87.4100587 C240.568598,87.570912 240.685035,87.8156587 240.685035,88.0728853 L240.685035,104.527072 C240.685035,104.997845 240.303842,105.379179 239.833243,105.379179 L239.833243,105.379179 Z" id="Fill-29" fill="#415572" sketch:type="MSShapeGroup"></path>
                    <path d="M160.248975,96.2063787 L160.248975,148.401899" id="Fill-31" fill="#FFFFFF" sketch:type="MSShapeGroup"></path>
                    <path d="M160.24939,150.106459 C159.308884,150.106459 158.545806,149.343099 158.545806,148.402245 L158.545806,96.2067253 C158.545806,95.265872 159.308884,94.502512 160.24939,94.502512 C161.189896,94.502512 161.952975,95.265872 161.952975,96.2067253 L161.952975,148.402245 C161.952975,149.343099 161.189896,150.106459 160.24939,150.106459" id="Fill-33" fill="#415572" sketch:type="MSShapeGroup"></path>
                    <path d="M209.258829,96.2063787 L209.258829,148.401899" id="Fill-35" fill="#FFFFFF" sketch:type="MSShapeGroup"></path>
                    <path d="M209.258344,150.106459 C208.317838,150.106459 207.55476,149.343099 207.55476,148.402245 L207.55476,96.2067253 C207.55476,95.265872 208.317838,94.502512 209.258344,94.502512 C210.19885,94.502512 210.961928,95.265872 210.961928,96.2067253 L210.961928,148.402245 C210.961928,149.343099 210.19885,150.106459 209.258344,150.106459" id="Fill-37" fill="#415572" sketch:type="MSShapeGroup"></path>
                    <path d="M186.157938,78.981552 L121.321247,78.981552" id="Fill-39" fill="#FFFFFF" sketch:type="MSShapeGroup"></path>
                    <path d="M186.157661,79.8333813 L121.321662,79.8333813 C120.851063,79.8333813 120.46987,79.4513547 120.46987,78.9812747 C120.46987,78.5105013 120.851063,78.129168 121.321662,78.129168 L186.157661,78.129168 C186.62826,78.129168 187.009453,78.5105013 187.009453,78.9812747 C187.009453,79.4513547 186.62826,79.8333813 186.157661,79.8333813" id="Fill-41" fill="#415572" sketch:type="MSShapeGroup"></path>
                    <path d="M86.3017123,93.8390613 L89.5002642,78.9816213 L108.939004,78.9816213" id="Fill-43" fill="#FFFFFF" sketch:type="MSShapeGroup"></path>
                    <path d="M86.3028905,94.69096 C86.2432859,94.69096 86.1829881,94.6854133 86.1219973,94.67224 C85.6631801,94.5724 85.3700084,94.1196533 85.4684254,93.65928 L88.6676704,78.8011467 C88.7522258,78.4094133 89.0994576,78.1286133 89.5007493,78.1286133 L108.938796,78.1286133 C109.409396,78.1286133 109.790588,78.51064 109.790588,78.9814133 C109.790588,79.4514933 109.409396,79.83352 108.938796,79.83352 L90.1889751,79.83352 L87.1345833,94.0184267 C87.0486417,94.4177867 86.6958654,94.69096 86.3028905,94.69096" id="Fill-45" fill="#415572" sketch:type="MSShapeGroup"></path>
                    <path d="M113.822358,96.2063787 L113.822358,148.401899" id="Fill-47" fill="#FFFFFF" sketch:type="MSShapeGroup"></path>
                    <path d="M113.822912,150.106459 C112.882406,150.106459 112.119328,149.343099 112.119328,148.402245 L112.119328,96.2067253 C112.119328,95.265872 112.882406,94.502512 113.822912,94.502512 C114.763418,94.502512 115.526496,95.265872 115.526496,96.2067253 L115.526496,148.402245 C115.526496,149.343099 114.763418,150.106459 113.822912,150.106459" id="Fill-49" fill="#415572" sketch:type="MSShapeGroup"></path>
                    <path d="M188.197179,93.8390613 L86.301643,93.8390613 L86.301643,104.526795 L188.197179,104.526795" id="Fill-51" fill="#65778C" sketch:type="MSShapeGroup"></path>
                    <path d="M188.197665,105.379456 L86.3021281,105.379456 C85.8315286,105.379456 85.449643,104.997429 85.449643,104.527349 L85.449643,93.8389227 C85.449643,93.3681493 85.8315286,92.986816 86.3021281,92.986816 L188.197665,92.986816 C188.668264,92.986816 189.049457,93.3681493 189.049457,93.8389227 C189.049457,94.3090027 188.668264,94.6910293 188.197665,94.6910293 L87.1539202,94.6910293 L87.1539202,103.675243 L188.197665,103.675243 C188.668264,103.675243 189.049457,104.056576 189.049457,104.527349 C189.049457,104.997429 188.668264,105.379456 188.197665,105.379456" id="Fill-53" fill="#415572" sketch:type="MSShapeGroup"></path>
                    <path d="M115.829302,78.981552 L114.648991,88.7256587" id="Fill-55" fill="#FFFFFF" sketch:type="MSShapeGroup"></path>
                    <path d="M114.650447,89.5775573 C114.615793,89.5775573 114.581832,89.5754773 114.547178,89.570624 C114.080044,89.514464 113.747367,89.090144 113.804199,88.6235307 L114.98451,78.879424 C115.040649,78.4107307 115.474515,78.072384 115.931947,78.1354773 C116.398388,78.1923307 116.731758,78.6159573 116.674925,79.083264 L115.494615,88.8273707 C115.442634,89.2600107 115.075303,89.5775573 114.650447,89.5775573" id="Fill-57" fill="#415572" sketch:type="MSShapeGroup"></path>
                    <path d="M143.212649,78.981552 L142.032338,88.7256587" id="Fill-59" fill="#FFFFFF" sketch:type="MSShapeGroup"></path>
                    <path d="M142.032892,89.5775573 C141.998238,89.5775573 141.964278,89.5754773 141.929624,89.570624 C141.461797,89.514464 141.129813,89.090144 141.186645,88.6235307 L142.367649,78.879424 C142.424481,78.4107307 142.851417,78.072384 143.315085,78.1354773 C143.783606,78.1923307 144.114897,78.6159573 144.058757,79.083264 L142.877061,88.8273707 C142.82508,89.2600107 142.457749,89.5775573 142.032892,89.5775573" id="Fill-61" fill="#415572" sketch:type="MSShapeGroup"></path>
                    <path d="M170.595995,78.981552 L169.415685,88.7256587" id="Fill-63" fill="#FFFFFF" sketch:type="MSShapeGroup"></path>
                    <path d="M169.416447,89.5775573 C169.381793,89.5775573 169.347832,89.5754773 169.313179,89.570624 C168.846044,89.514464 168.513367,89.090144 168.5702,88.6235307 L169.75051,78.879424 C169.805957,78.4107307 170.242595,78.072384 170.697947,78.1354773 C171.164388,78.1923307 171.497758,78.6159573 171.440926,79.083264 L170.260615,88.8273707 C170.208634,89.2600107 169.841303,89.5775573 169.416447,89.5775573" id="Fill-65" fill="#415572" sketch:type="MSShapeGroup"></path>
                    <path d="M177.406104,58.15992 L177.406104,78.9814133 L188.197318,78.9814133 L188.197318,66.20536 L177.406104,58.15992 Z" id="Fill-67" fill="#A7A9AC" sketch:type="MSShapeGroup"></path>
                    <path d="M178.25852,78.1288907 L187.345457,78.1288907 L187.345457,66.6327307 L178.25852,59.8581707 L178.25852,78.1288907 Z M188.197942,79.833104 L177.406728,79.833104 C176.936128,79.833104 176.554936,79.4517707 176.554936,78.9809973 L176.554936,58.1601973 C176.554936,57.8384907 176.736522,57.5431307 177.024842,57.3989173 C177.309004,57.254704 177.657622,57.2831307 177.915446,57.4765707 L188.706661,65.5220107 C188.922208,65.682864 189.049734,65.9359307 189.049734,66.2056373 L189.049734,78.9809973 C189.049734,79.4517707 188.667848,79.833104 188.197942,79.833104 L188.197942,79.833104 Z" id="Fill-69" fill="#415572" sketch:type="MSShapeGroup"></path>
                    <path d="M188.197179,108.611221 L188.197179,66.2048747 L177.405965,58.160128 L216.027007,58.160128 L227.385851,66.2048747 L227.385851,108.611221 L188.197179,108.611221 Z" id="Fill-71" fill="#E6E7E8" sketch:type="MSShapeGroup"></path>
                    <path d="M189.049526,107.758629 L226.53392,107.758629 L226.53392,66.6460427 L215.756568,59.0124427 L179.975757,59.0124427 L188.706453,65.521456 C188.922,65.6830027 189.049526,65.935376 189.049526,66.2050827 L189.049526,107.758629 Z M227.386406,109.462843 L188.197734,109.462843 C187.727134,109.462843 187.345942,109.081509 187.345942,108.610736 L187.345942,66.6328693 L176.897108,58.8439627 C176.603243,58.624176 176.482648,58.2400693 176.597699,57.8913227 C176.713442,57.5432693 177.039189,57.307536 177.40652,57.307536 L216.026868,57.307536 C216.203603,57.307536 216.375486,57.3623093 216.519646,57.4642293 L227.87849,65.5096693 C228.103741,65.669136 228.238198,65.929136 228.238198,66.2050827 L228.238198,108.610736 C228.238198,109.081509 227.856312,109.462843 227.386406,109.462843 L227.386406,109.462843 Z" id="Fill-73" fill="#415572" sketch:type="MSShapeGroup"></path>
                    <path d="M196.7221,62.8308373 L196.7221,45.8850773 L192.409773,42.670784 L207.842526,42.670784 L212.382182,45.8850773 L212.382182,62.8308373 L196.7221,62.8308373 Z" id="Fill-75" fill="#E6E7E8" sketch:type="MSShapeGroup"></path>
                    <path d="M197.574308,61.978592 L211.530113,61.978592 L211.530113,46.326592 L207.571948,43.5220587 L194.977347,43.5220587 L197.231235,45.2026987 C197.446782,45.363552 197.574308,45.6159253 197.574308,45.885632 L197.574308,61.978592 Z M212.381905,63.6828053 L196.722516,63.6828053 C196.251916,63.6828053 195.870724,63.301472 195.870724,62.8306987 L195.870724,46.3134187 L191.900084,43.3535787 C191.606219,43.133792 191.485623,42.7496853 191.600674,42.401632 C191.716418,42.0528853 192.042165,41.8178453 192.409496,41.8178453 L207.842942,41.8178453 C208.018983,41.8178453 208.190866,41.8719253 208.33572,41.9745387 L212.874683,45.1902187 C213.099933,45.3496853 213.233697,45.6096853 213.233697,45.885632 L213.233697,62.8306987 C213.233697,63.301472 212.852505,63.6828053 212.381905,63.6828053 L212.381905,63.6828053 Z" id="Fill-77" fill="#415572" sketch:type="MSShapeGroup"></path>
                    <path d="M182.801642,78.981552 L182.801642,62.1827787 L188.197249,66.2054987 L188.197249,93.838992 L185.073549,93.838992 L182.801642,78.981552 Z" id="Fill-79" fill="#415572" sketch:type="MSShapeGroup"></path>
                    <path d="M193.687322,66.6786293 L227.385435,66.6786293" id="Fill-81" fill="#FFFFFF" sketch:type="MSShapeGroup"></path>
                    <path d="M227.386128,67.5314293 L193.687322,67.5314293 C193.217416,67.5314293 192.83553,67.1494027 192.83553,66.6793227 C192.83553,66.2085493 193.217416,65.827216 193.687322,65.827216 L227.386128,65.827216 C227.856728,65.827216 228.23792,66.2085493 228.23792,66.6793227 C228.23792,67.1494027 227.856728,67.5314293 227.386128,67.5314293" id="Fill-83" fill="#415572" sketch:type="MSShapeGroup"></path>
                    <mask id="mask-2" sketch:name="Clip 86" fill="white">
                        <use xlink:href="#path-1"></use>
                    </mask>
                    <g id="Clip-86"></g>
                    <path d="M186.157799,104.526933 L188.196833,104.526933 L188.196833,93.8392 L186.157799,93.8392 L186.157799,104.526933 Z" id="Fill-85" fill="#415572" sketch:type="MSShapeGroup" mask="url(#mask-2)"></path>
                    <path d="M192.409981,42.6705067 L192.409981,58.1602667 L196.722308,58.1602667 L196.722308,45.8854933 L192.409981,42.6705067 Z" id="Fill-87" fill="#A7A9AC" sketch:type="MSShapeGroup" mask="url(#mask-2)"></path>
                    <path d="M193.261495,57.3078827 L195.870239,57.3078827 L195.870239,46.3130027 L193.261495,44.3675093 L193.261495,57.3078827 Z M196.722724,59.012096 L192.409703,59.012096 C191.939104,59.012096 191.557911,58.6307627 191.557911,58.1599893 L191.557911,42.6702293 C191.557911,42.3485227 191.739498,42.0531627 192.027818,41.9089493 C192.313366,41.7633493 192.660597,41.7931627 192.918422,41.9866027 L197.231442,45.2022827 C197.44699,45.363136 197.574516,45.6162027 197.574516,45.8859093 L197.574516,58.1599893 C197.574516,58.6307627 197.19263,59.012096 196.722724,59.012096 L196.722724,59.012096 Z" id="Fill-88" fill="#415572" sketch:type="MSShapeGroup" mask="url(#mask-2)"></path>
                    <path d="M209.02249,46.2673813 L200.077634,46.2673813" id="Fill-89" fill="#E0C4A9" sketch:type="MSShapeGroup" mask="url(#mask-2)"></path>
                    <path d="M209.022074,47.1198347 L200.077218,47.1198347 C199.606618,47.1198347 199.224733,46.737808 199.224733,46.267728 C199.224733,45.7969547 199.606618,45.4156213 200.077218,45.4156213 L209.022074,45.4156213 C209.492674,45.4156213 209.873866,45.7969547 209.873866,46.267728 C209.873866,46.737808 209.492674,47.1198347 209.022074,47.1198347" id="Fill-90" fill="#415572" sketch:type="MSShapeGroup" mask="url(#mask-2)"></path>
                    <path d="M116.760313,99.1454187 C116.760313,100.768512 115.444852,102.084459 113.822358,102.084459 C112.199864,102.084459 110.884403,100.768512 110.884403,99.1454187 C110.884403,97.5223253 112.199864,96.2063787 113.822358,96.2063787 C115.444852,96.2063787 116.760313,97.5223253 116.760313,99.1454187" id="Fill-91" fill="#FFFFFF" sketch:type="MSShapeGroup" mask="url(#mask-2)"></path>
                    <path d="M113.822912,97.3430987 C112.829039,97.3430987 112.020218,98.1522187 112.020218,99.145072 C112.020218,100.139312 112.829039,100.948432 113.822912,100.948432 C114.815399,100.948432 115.62422,100.139312 115.62422,99.145072 C115.62422,98.1522187 114.815399,97.3430987 113.822912,97.3430987 M113.822912,103.221179 C111.576649,103.221179 109.748311,101.392165 109.748311,99.145072 C109.748311,96.8979787 111.576649,95.070352 113.822912,95.070352 C116.069176,95.070352 117.896128,96.8979787 117.896128,99.145072 C117.896128,101.392165 116.069176,103.221179 113.822912,103.221179" id="Fill-92" fill="#415572" sketch:type="MSShapeGroup" mask="url(#mask-2)"></path>
                    <path d="M163.186929,99.1454187 C163.186929,100.768512 161.871469,102.084459 160.248975,102.084459 C158.626481,102.084459 157.31102,100.768512 157.31102,99.1454187 C157.31102,97.5223253 158.626481,96.2063787 160.248975,96.2063787 C161.871469,96.2063787 163.186929,97.5223253 163.186929,99.1454187" id="Fill-93" fill="#FFFFFF" sketch:type="MSShapeGroup" mask="url(#mask-2)"></path>
                    <path d="M160.24939,97.3430987 C159.255518,97.3430987 158.446696,98.1522187 158.446696,99.145072 C158.446696,100.139312 159.255518,100.948432 160.24939,100.948432 C161.241877,100.948432 162.050698,100.139312 162.050698,99.145072 C162.050698,98.1522187 161.241877,97.3430987 160.24939,97.3430987 M160.24939,103.221179 C158.003127,103.221179 156.174789,101.392165 156.174789,99.145072 C156.174789,96.8979787 158.003127,95.070352 160.24939,95.070352 C162.495654,95.070352 164.322606,96.8979787 164.322606,99.145072 C164.322606,101.392165 162.495654,103.221179 160.24939,103.221179" id="Fill-94" fill="#415572" sketch:type="MSShapeGroup" mask="url(#mask-2)"></path>
                    <path d="M239.833728,76.203296 L233.609893,83.042336" id="Fill-95" fill="#65778C" sketch:type="MSShapeGroup" mask="url(#mask-2)"></path>
                    <path d="M233.6092,83.8937493 C233.404049,83.8937493 233.198899,83.820256 233.036025,83.6718827 C232.687408,83.354336 232.66315,82.8163093 232.979193,82.4675627 L239.203028,75.6299093 C239.520457,75.2811627 240.061057,75.2582827 240.406903,75.573056 C240.754828,75.8906027 240.779778,76.4286293 240.463735,76.777376 L234.239208,83.6150293 C234.07079,83.799456 233.839995,83.8937493 233.6092,83.8937493" id="Fill-96" fill="#415572" sketch:type="MSShapeGroup" mask="url(#mask-2)"></path>
                    <path d="M238.603169,75.2908693 C238.603169,76.5458027 239.620607,77.563616 240.875077,77.563616 C242.129547,77.563616 243.146984,76.5458027 243.146984,75.2908693 C243.146984,74.035936 242.129547,73.0181227 240.875077,73.0181227 C239.620607,73.0181227 238.603169,74.035936 238.603169,75.2908693" id="Fill-97" fill="#FBB040" sketch:type="MSShapeGroup" mask="url(#mask-2)"></path>
                    <path d="M240.874938,73.869952 C240.091761,73.869952 239.454823,74.5071253 239.454823,75.290592 C239.454823,76.0740587 240.091761,76.7105387 240.874938,76.7105387 C241.658115,76.7105387 242.295053,76.0740587 242.295053,75.290592 C242.295053,74.5071253 241.658115,73.869952 240.874938,73.869952 M240.874938,78.4154453 C239.151948,78.4154453 237.751238,77.0135253 237.751238,75.290592 C237.751238,73.5669653 239.151948,72.1657387 240.874938,72.1657387 C242.597928,72.1657387 243.998638,73.5669653 243.998638,75.290592 C243.998638,77.0135253 242.597928,78.4154453 240.874938,78.4154453" id="Fill-98" fill="#415572" sketch:type="MSShapeGroup" mask="url(#mask-2)"></path>
                    <path d="M236.721741,89.589552 L230.46256,89.589552" id="Fill-99" fill="#E6E7E8" sketch:type="MSShapeGroup" mask="url(#mask-2)"></path>
                    <path d="M236.721811,90.4420053 L230.461936,90.4420053 C229.99203,90.4420053 229.610144,90.0599787 229.610144,89.5898987 C229.610144,89.1191253 229.99203,88.737792 230.461936,88.737792 L236.721811,88.737792 C237.19241,88.737792 237.573603,89.1191253 237.573603,89.5898987 C237.573603,90.0599787 237.19241,90.4420053 236.721811,90.4420053" id="Fill-100" fill="#415572" sketch:type="MSShapeGroup" mask="url(#mask-2)"></path>
                    <path d="M236.721741,92.998464 L230.46256,92.998464" id="Fill-101" fill="#E6E7E8" sketch:type="MSShapeGroup" mask="url(#mask-2)"></path>
                    <path d="M236.721811,93.8509173 L230.461936,93.8509173 C229.99203,93.8509173 229.610144,93.4688907 229.610144,92.9988107 C229.610144,92.5280373 229.99203,92.146704 230.461936,92.146704 L236.721811,92.146704 C237.19241,92.146704 237.573603,92.5280373 237.573603,92.9988107 C237.573603,93.4688907 237.19241,93.8509173 236.721811,93.8509173" id="Fill-102" fill="#415572" sketch:type="MSShapeGroup" mask="url(#mask-2)"></path>
                    <path d="M233.609686,96.691504 L230.462421,96.691504" id="Fill-103" fill="#E6E7E8" sketch:type="MSShapeGroup" mask="url(#mask-2)"></path>
                    <path d="M233.6092,97.5439573 L230.461936,97.5439573 C229.99203,97.5439573 229.610144,97.1619307 229.610144,96.6918507 C229.610144,96.2210773 229.99203,95.839744 230.461936,95.839744 L233.6092,95.839744 C234.0798,95.839744 234.460992,96.2210773 234.460992,96.6918507 C234.460992,97.1619307 234.0798,97.5439573 233.6092,97.5439573" id="Fill-104" fill="#415572" sketch:type="MSShapeGroup" mask="url(#mask-2)"></path>
                    <path d="M151.769589,145.7508 L154.206449,149.80472 L169.293357,149.80472 L166.177974,145.7508 L151.769589,145.7508 Z" id="Fill-105" fill="#415572" sketch:type="MSShapeGroup" mask="url(#mask-2)"></path>
                    <path d="M154.849486,148.668277 L166.98735,148.668277 L165.619215,146.887104 L153.779375,146.887104 L154.849486,148.668277 Z M169.293218,150.941024 L154.207004,150.941024 C153.809177,150.941024 153.439767,150.732331 153.23323,150.390517 L150.79637,146.336597 C150.585675,145.985077 150.58013,145.547584 150.781815,145.191904 C150.982808,144.835531 151.360535,144.614357 151.770144,144.614357 L166.178528,144.614357 C166.531305,144.614357 166.863982,144.778677 167.079529,145.058784 L170.194218,149.112011 C170.458281,149.455211 170.503331,149.919051 170.312735,150.307317 C170.120752,150.694891 169.725698,150.941024 169.293218,150.941024 L169.293218,150.941024 Z" id="Fill-106" fill="#415572" sketch:type="MSShapeGroup" mask="url(#mask-2)"></path>
                    <path d="M200.496807,145.7508 L202.933667,149.80472 L218.020574,149.80472 L214.905192,145.7508 L200.496807,145.7508 Z" id="Fill-107" fill="#415572" sketch:type="MSShapeGroup" mask="url(#mask-2)"></path>
                    <path d="M203.576635,148.668277 L215.714498,148.668277 L214.346363,146.887104 L202.506523,146.887104 L203.576635,148.668277 Z M218.020366,150.941024 L202.934152,150.941024 C202.536326,150.941024 202.166915,150.732331 201.960378,150.390517 L199.523519,146.336597 C199.312823,145.985077 199.307278,145.547584 199.508964,145.191904 C199.709956,144.835531 200.087683,144.614357 200.497292,144.614357 L214.905677,144.614357 C215.258453,144.614357 215.59113,144.778677 215.806677,145.058784 L218.921367,149.112011 C219.185429,149.455211 219.230479,149.919051 219.039883,150.307317 C218.847901,150.694891 218.452847,150.941024 218.020366,150.941024 L218.020366,150.941024 Z" id="Fill-108" fill="#415572" sketch:type="MSShapeGroup" mask="url(#mask-2)"></path>
                    <path d="M222.258465,76.72288 C222.258465,78.32448 220.960331,79.6224 219.360016,79.6224 C217.759007,79.6224 216.460873,78.32448 216.460873,76.72288 C216.460873,75.12128 217.759007,73.82336 219.360016,73.82336 C220.960331,73.82336 222.258465,75.12128 222.258465,76.72288" id="Fill-109" fill="#E6E7E8" sketch:type="MSShapeGroup" mask="url(#mask-2)"></path>
                    <path d="M219.359392,74.6756053 C218.231062,74.6756053 217.312734,75.594272 217.312734,76.7230187 C217.312734,77.8517653 218.231062,78.770432 219.359392,78.770432 C220.487722,78.770432 221.406049,77.8517653 221.406049,76.7230187 C221.406049,75.594272 220.487722,74.6756053 219.359392,74.6756053 M219.359392,80.4746453 C217.291942,80.4746453 215.60915,78.791232 215.60915,76.7230187 C215.60915,74.6548053 217.291942,72.971392 219.359392,72.971392 C221.426841,72.971392 223.109633,74.6548053 223.109633,76.7230187 C223.109633,78.791232 221.426841,80.4746453 219.359392,80.4746453" id="Fill-110" fill="#415572" sketch:type="MSShapeGroup" mask="url(#mask-2)"></path>
                    <path d="M222.258465,86.703552 C222.258465,88.305152 220.960331,89.603072 219.360016,89.603072 C217.759007,89.603072 216.460873,88.305152 216.460873,86.703552 C216.460873,85.101952 217.759007,83.804032 219.360016,83.804032 C220.960331,83.804032 222.258465,85.101952 222.258465,86.703552" id="Fill-111" fill="#E6E7E8" sketch:type="MSShapeGroup" mask="url(#mask-2)"></path>
                    <path d="M219.359392,84.6560693 C218.231062,84.6560693 217.312734,85.574736 217.312734,86.7034827 C217.312734,87.8322293 218.231062,88.750896 219.359392,88.750896 C220.487722,88.750896 221.406049,87.8322293 221.406049,86.7034827 C221.406049,85.574736 220.487722,84.6560693 219.359392,84.6560693 M219.359392,90.4551093 C217.291942,90.4551093 215.60915,88.771696 215.60915,86.7034827 C215.60915,84.6352693 217.291942,82.951856 219.359392,82.951856 C221.426841,82.951856 223.109633,84.6352693 223.109633,86.7034827 C223.109633,88.771696 221.426841,90.4551093 219.359392,90.4551093" id="Fill-112" fill="#415572" sketch:type="MSShapeGroup" mask="url(#mask-2)"></path>
                    <path d="M138.681448,79.8152853 L112.415203,79.5511253 L112.582928,62.8306987 L138.849865,63.0948587 L138.681448,79.8152853 Z" id="Fill-113" fill="#F9F9EB" sketch:type="MSShapeGroup" mask="url(#mask-2)"></path>
                    <path d="M113.276005,78.7070613 L137.838666,78.9545813 L137.98837,63.938368 L113.42571,63.6922347 L113.276005,78.7070613 Z M138.681448,80.667808 L138.673131,80.667808 L112.406193,80.4029547 C111.936286,80.3981013 111.558559,80.0119147 111.563411,79.5418347 L111.730442,62.8221013 C111.733215,62.596768 111.825394,62.380448 111.986188,62.222368 C112.147675,62.064288 112.399955,61.9866347 112.591244,61.9783147 L138.858182,62.2424747 C139.328782,62.247328 139.705816,62.6335147 139.700964,63.1035947 L139.533933,79.8247147 C139.53116,80.050048 139.439674,80.266368 139.27888,80.4237547 C139.118779,80.580448 138.904618,80.667808 138.681448,80.667808 L138.681448,80.667808 Z" id="Fill-114" fill="#415572" sketch:type="MSShapeGroup" mask="url(#mask-2)"></path>
                    <path d="M112.546402,66.497392 L138.812647,66.761552 L138.772449,70.7586187 L112.506204,70.4944587 L112.546402,66.497392 Z" id="Fill-115" fill="#415572" sketch:type="MSShapeGroup" mask="url(#mask-2)"></path>
                    <path d="M113.367006,69.6509493 L137.929667,69.8970827 L137.951845,67.6049227 L113.389184,67.358096 L113.367006,69.6509493 Z M138.772449,71.6103093 L138.764132,71.6103093 L112.497194,71.3468427 C112.027287,71.3419893 111.64956,70.9558027 111.654412,70.4857227 L111.693917,66.488656 C111.69669,66.2633227 111.788176,66.0470027 111.949663,65.8889227 C112.112536,65.7301493 112.324618,65.683696 112.554719,65.6448693 L138.821657,65.9090293 C139.291564,65.9131893 139.669291,66.299376 139.664439,66.7701493 L139.624934,70.767216 C139.622161,70.9925493 139.530675,71.2088693 139.369881,71.366256 C139.20978,71.5229493 138.99562,71.6103093 138.772449,71.6103093 L138.772449,71.6103093 Z" id="Fill-116" fill="#415572" sketch:type="MSShapeGroup" mask="url(#mask-2)"></path>
                    <path d="M119.718297,73.4441067 L132.638645,73.5744533" id="Fill-117" fill="#FFFFFF" sketch:type="MSShapeGroup" mask="url(#mask-2)"></path>
                    <path d="M132.638437,74.4258667 L132.629427,74.4258667 L119.709772,74.2962133 C119.239173,74.29136 118.862139,73.9051733 118.86699,73.4350933 C118.871149,72.9677867 119.251648,72.5913067 119.718782,72.5913067 L119.727792,72.5913067 L132.647447,72.7216533 C133.117353,72.7258133 133.495081,73.112 133.490229,73.5827733 C133.486071,74.0493867 133.105571,74.4258667 132.638437,74.4258667" id="Fill-118" fill="#415572" sketch:type="MSShapeGroup" mask="url(#mask-2)"></path>
                    <path d="M126.790458,76.203296 C129.794256,76.2338027 132.611615,76.261536 132.611615,76.261536" id="Fill-119" fill="#FFFFFF" sketch:type="MSShapeGroup" mask="url(#mask-2)"></path>
                    <path d="M132.611823,77.1146827 L132.602813,77.1146827 L126.781656,77.0557493 C126.311057,77.0515893 125.934023,76.6654027 125.938181,76.1946293 C125.943033,75.7273227 126.323532,75.351536 126.790666,75.351536 L126.798983,75.351536 L132.620833,75.4104693 C133.090739,75.4146293 133.468466,75.800816 133.463615,76.2715893 C133.459456,76.7382027 133.078957,77.1146827 132.611823,77.1146827" id="Fill-120" fill="#415572" sketch:type="MSShapeGroup" mask="url(#mask-2)"></path>
                    <path d="M105.991416,65.337584 L97.0458664,65.337584 C96.7325955,65.337584 96.4782361,65.0831307 96.4782361,64.769744 C96.4782361,64.455664 96.7325955,64.2012107 97.0458664,64.2012107 L105.991416,64.2012107 C106.30538,64.2012107 106.559046,64.455664 106.559046,64.769744 C106.559046,65.0831307 106.30538,65.337584 105.991416,65.337584" id="Fill-121" fill="#A7A9AC" sketch:type="MSShapeGroup" mask="url(#mask-2)"></path>
                    <path d="M108.192213,69.669808 L99.2473573,69.669808 C98.9333932,69.669808 98.6790338,69.4153547 98.6790338,69.101968 C98.6790338,68.787888 98.9333932,68.5334347 99.2473573,68.5334347 L108.192213,68.5334347 C108.506177,68.5334347 108.759844,68.787888 108.759844,69.101968 C108.759844,69.4153547 108.506177,69.669808 108.192213,69.669808" id="Fill-122" fill="#A7A9AC" sketch:type="MSShapeGroup" mask="url(#mask-2)"></path>
                    <path d="M105.707462,73.6824053 L96.7626057,73.6824053 C96.4486417,73.6824053 96.1942823,73.427952 96.1942823,73.1145653 C96.1942823,72.8004853 96.4486417,72.546032 96.7626057,72.546032 L105.707462,72.546032 C106.021426,72.546032 106.275092,72.8004853 106.275092,73.1145653 C106.275092,73.427952 106.021426,73.6824053 105.707462,73.6824053" id="Fill-123" fill="#A7A9AC" sketch:type="MSShapeGroup" mask="url(#mask-2)"></path>
                    <path d="M35.995803,59.7737227 C49.5607126,59.7737227 50.1997299,48.7531893 50.1997299,48.7531893 C47.1730611,52.0333493 41.9313173,53.236976 35.995803,53.236976 C29.9875156,53.236976 24.6903255,52.0049227 21.6816768,48.6332427 C21.2699889,48.172176 20.6233477,47.960016 20.0508659,48.1922827 C20.0508659,48.1922827 24.004179,59.7737227 35.995803,59.7737227" id="Fill-124" fill="#FFFFFF" sketch:type="MSShapeGroup" mask="url(#mask-2)"></path>
                    <path d="M22.7924026,51.1291733 C24.8210399,54.31296 28.8866316,58.63728 35.9962188,58.63728 C43.9943313,58.63728 47.1041693,54.6346667 48.3101238,51.7039467 C45.3139505,53.4774933 41.1908334,54.3725867 35.9962188,54.3725867 C30.2658554,54.3725867 25.8398636,53.28336 22.7924026,51.1291733 M35.9962188,60.9100267 C23.3392406,60.9100267 19.0185965,48.6830933 18.9763188,48.5603733 C18.7822571,47.98976 19.0650327,47.3671467 19.6229599,47.14112 C20.6112882,46.74176 21.7777373,47.0343467 22.5297263,47.8767467 C25.0296562,50.6785067 29.5609958,52.09984 35.9962188,52.09984 C42.3455003,52.09984 46.8449583,50.7152533 49.3663737,47.9821333 C49.6914269,47.6313067 50.2070765,47.52176 50.6444083,47.7082667 C51.0858985,47.8954667 51.3617433,48.3405867 51.3340202,48.8189867 C51.3270894,48.9396267 50.4642082,60.9100267 35.9962188,60.9100267" id="Fill-125" fill="#415572" sketch:type="MSShapeGroup" mask="url(#mask-2)"></path>
                    <path d="M22.2443863,149.650176 C22.2443863,133.083669 23.6000456,99.834176 25.2717481,99.834176 C26.9441437,99.834176 28.2991099,133.083669 28.2991099,149.650176" id="Fill-126" fill="#FFFFFF" sketch:type="MSShapeGroup" mask="url(#mask-2)"></path>
                    <path d="M28.2999416,150.786688 C27.6720135,150.786688 27.1639878,150.278475 27.1639878,149.650315 C27.1639878,135.380128 26.2713042,114.070528 25.2718867,104.903275 C24.2724692,114.070528 23.3804787,135.380128 23.3804787,149.650315 C23.3804787,150.278475 22.872453,150.786688 22.2445249,150.786688 C21.6165969,150.786688 21.1085712,150.278475 21.1085712,149.650315 C21.1085712,141.070315 21.465506,128.539701 21.9970963,118.470421 C23.0394846,98.6979413 23.9758321,98.6979413 25.2718867,98.6979413 C26.5672483,98.6979413 27.5035957,98.6979413 28.5473702,118.470421 C29.0789605,128.538315 29.4358953,141.068928 29.4358953,149.650315 C29.4358953,150.278475 28.9278697,150.786688 28.2999416,150.786688" id="Fill-127" fill="#415572" sketch:type="MSShapeGroup" mask="url(#mask-2)"></path>
                    <path d="M42.9947751,149.340672 C42.9947751,132.774165 44.3504344,99.8338987 46.0221369,99.8338987 C47.6945325,99.8338987 49.0494987,132.774165 49.0494987,149.340672" id="Fill-128" fill="#FFFFFF" sketch:type="MSShapeGroup" mask="url(#mask-2)"></path>
                    <path d="M49.0500532,150.477115 C48.4221251,150.477115 47.9140994,149.968901 47.9140994,149.340741 C47.9140994,134.788368 47.0325051,113.731835 46.0219983,104.756635 C45.0121846,113.733221 44.1305903,134.788368 44.1305903,149.340741 C44.1305903,149.968901 43.6225646,150.477115 42.9946365,150.477115 C42.3667085,150.477115 41.8586828,149.968901 41.8586828,149.340741 C41.8586828,140.778768 42.2156176,128.309861 42.7472079,118.314768 C43.7895962,98.698288 44.7259437,98.698288 46.0219983,98.698288 C47.3173598,98.698288 48.2544004,98.698288 49.2974818,118.314768 C49.8290721,128.309168 50.1860069,140.777381 50.1860069,149.340741 C50.1860069,149.968901 49.6779812,150.477115 49.0500532,150.477115" id="Fill-129" fill="#415572" sketch:type="MSShapeGroup" mask="url(#mask-2)"></path>
                    <path d="M51.2609699,45.3451093 C48.412422,49.3435627 43.1505789,53.535456 36.6758505,53.535456 C30.2087459,53.535456 24.500561,49.3324693 21.6485477,45.3451093 L21.6478547,45.3451093 C1.62069204,59.696416 13.4979583,106.797323 13.4979583,106.797323 L59.076803,106.797323 C59.076803,106.797323 65.0975657,55.3020693 51.2609699,45.3451093" id="Fill-130" fill="#F06E46" sketch:type="MSShapeGroup" mask="url(#mask-2)"></path>
                    <path d="M14.3973647,105.661296 L58.0563852,105.661296 C58.7751064,98.6447627 62.5107932,57.0815093 51.4562098,46.967856 C48.3311241,50.8526027 43.0332409,54.672176 36.6763356,54.672176 C30.4233919,54.672176 24.6937216,50.9226293 21.4355651,46.934576 C4.87448219,60.3103627 12.9620016,99.363056 14.3973647,105.661296 M59.076595,107.934043 L13.4977504,107.934043 C12.9772493,107.934043 12.5239767,107.579749 12.3964505,107.075003 C11.9036725,105.121883 0.564927334,59.054736 20.986451,44.421936 C21.2324934,44.2458293 21.5429921,44.1778827 21.8326984,44.224336 C22.1300286,44.2735627 22.3961703,44.438576 22.5715188,44.684016 C25.3195704,48.5243893 30.747059,52.3994293 36.6763356,52.3994293 C42.6950192,52.3994293 47.6789383,48.4148427 50.3355037,44.686096 C50.5108523,44.4399627 50.776994,44.2735627 51.0757103,44.224336 C51.3737335,44.1792693 51.6800737,44.2465227 51.924037,44.4233227 C66.1397461,54.6520693 60.4544328,104.800176 60.2049249,106.929403 C60.1383895,107.502096 59.6539284,107.934043 59.076595,107.934043" id="Fill-131" fill="#415572" sketch:type="MSShapeGroup" mask="url(#mask-2)"></path>
                    <path d="M20.7840724,46.1214347 C20.7840724,46.1214347 17.5508666,48.5799947 15.8292625,52.3510347 C15.8292625,52.3510347 25.4796713,61.1182347 28.6789163,61.805328 C31.6944958,62.4535947 33.6836277,58.1889013 37.0984197,58.7907147 C40.4820233,59.3869813 40.2047923,67.080208 40.2047923,67.080208 L43.8122598,67.080208 C43.8122598,67.080208 42.8558131,61.1203147 44.1816701,59.3869813 C45.5179232,57.641168 48.3706295,59.2143413 49.2362831,60.9726347 C49.2362831,60.9726347 53.8216827,54.3956747 54.3671346,50.3743413 C54.9118933,46.3523147 51.154028,45.3449013 51.154028,45.3449013 C51.154028,45.3449013 46.1153558,53.8715147 39.834689,54.217488 C29.7518,54.772848 27.7938565,53.133808 20.7840724,46.1214347" id="Fill-132" fill="#FFFFFF" sketch:type="MSShapeGroup" mask="url(#mask-2)"></path>
                    <path d="M41.3406075,65.943488 L42.5132943,65.943488 C42.2824996,63.8835947 42.0849725,60.258848 43.2805309,58.6960747 C43.9542021,57.8183147 44.957085,57.394688 46.104128,57.509088 C47.1631501,57.613088 48.2970247,58.197568 49.1640644,59.021248 C50.4788321,56.9585813 52.8782658,52.9005013 53.2407453,50.222848 C53.5138177,48.2128747 52.4035079,47.213088 51.5988451,46.7603413 C50.083778,49.0219947 45.5406561,55.042208 39.8962343,55.3514347 C29.8050283,55.9088747 27.3085638,54.2088213 20.7271014,47.6679147 C19.8330317,48.490208 18.3200438,50.0550613 17.2305263,52.0837547 C20.9578962,55.410368 26.9245989,60.2664747 28.9178893,60.6949547 C29.9082968,60.907808 30.8848428,60.227648 32.0083212,59.439328 C33.3806143,58.478368 35.0841984,57.2733547 37.2965012,57.6720213 C40.718224,58.2752213 41.2706066,63.4946347 41.3406075,65.943488 M43.8121212,68.2162347 L40.2046537,68.2162347 C39.8962343,68.2162347 39.6009834,68.0907413 39.3875155,67.8688747 C39.1733546,67.647008 39.0589969,67.347488 39.0700861,67.039648 C39.1643446,64.335648 38.539882,60.198528 36.9014471,59.9087147 C35.6123233,59.6903147 34.5505288,60.4349547 33.3106135,61.3016213 C31.9487165,62.2570347 30.4017679,63.3365547 28.4410521,62.9163947 C25.0408147,62.1863147 16.0765525,54.1110613 15.0660458,53.1923947 C14.7001009,52.8589013 14.5905947,52.3285013 14.7964387,51.8792213 C16.6157667,47.8946347 19.9557063,45.324448 20.0970941,45.2169813 C20.5496736,44.873088 21.1886909,44.9160747 21.5879035,45.3175147 C28.5782814,52.3097813 30.1945378,53.6083947 39.7721735,53.0835413 C45.3819414,52.775008 50.1295211,44.8474347 50.1773435,44.7677013 C50.4358613,44.3288213 50.9522039,44.111808 51.4484473,44.2477013 C53.0820306,44.6851947 56.0310746,46.5606613 55.4925535,50.5279147 C54.9172993,54.7725013 50.361009,61.3459947 50.1683335,61.623328 C49.9389249,61.9533547 49.5556531,62.132928 49.1502028,62.105888 C48.7496042,62.0760747 48.3947486,61.835488 48.2173208,61.4749547 C47.8111774,60.6491947 46.7195806,59.853248 45.8809571,59.770048 C45.4283776,59.7312213 45.2128305,59.911488 45.0846112,60.077888 C44.4497524,60.9064213 44.5121293,64.2642347 44.9335204,66.900288 C44.9855012,67.2282347 44.8926288,67.563808 44.6763887,67.8168747 C44.4608416,68.0699413 44.1447983,68.2162347 43.8121212,68.2162347" id="Fill-133" fill="#415572" sketch:type="MSShapeGroup" mask="url(#mask-2)"></path>
                    <path d="M35.7406119,54.3054027 C35.7406119,54.3054027 38.3479688,56.9587893 39.461051,61.371856" id="Fill-134" fill="#FFFFFF" sketch:type="MSShapeGroup" mask="url(#mask-2)"></path>
                    <path d="M39.460358,62.5078827 C38.9523323,62.5078827 38.4900497,62.1646827 38.3597512,61.6502293 C37.3339967,57.5817493 34.9546622,55.1259627 34.9310976,55.101696 C34.4909935,54.6538027 34.4972312,53.9341227 34.9442661,53.4952427 C35.3926871,53.0535893 36.1114083,53.0598293 36.5508193,53.508416 C36.6658702,53.6262827 39.3868918,56.4342827 40.563044,61.0927893 C40.7162141,61.7022293 40.3474969,62.319296 39.7396681,62.473216 C39.6467958,62.4967893 39.5525372,62.5078827 39.460358,62.5078827" id="Fill-135" fill="#415572" sketch:type="MSShapeGroup" mask="url(#mask-2)"></path>
                    <path d="M43.5611579,64.8642453 C43.5611579,64.8642453 42.979666,57.5488853 45.5177152,51.7921387" id="Fill-136" fill="#FFFFFF" sketch:type="MSShapeGroup" mask="url(#mask-2)"></path>
                    <path d="M43.5602569,66.000064 C42.9732204,66.000064 42.476284,65.548704 42.4284616,64.953824 C42.4042039,64.643904 41.8539005,57.284864 44.4785844,51.3332907 C44.7336369,50.7605973 45.4038426,50.499904 45.9763245,50.751584 C46.5508856,51.0046507 46.8100965,51.6764907 46.5578164,52.2498773 C44.161155,57.682144 44.6885868,64.7028373 44.6941314,64.7735573 C44.744033,65.398944 44.2768989,65.9466773 43.6510501,65.9965973 C43.6212477,65.9986773 43.5900593,66.000064 43.5602569,66.000064" id="Fill-137" fill="#415572" sketch:type="MSShapeGroup" mask="url(#mask-2)"></path>
                    <path d="M1.13491413,98.0433653 C0.913129386,98.0433653 0.687879253,97.978192 0.491738368,97.8422987 C-0.0252973227,97.4866187 -0.154902784,96.778032 0.200645888,96.262192 C2.74146739,92.5778187 2.03244928,88.1862453 2.02482543,88.141872 C-1.34214426,67.893072 9.19956198,53.2283787 9.65006225,52.6140853 C10.0201655,52.1093387 10.7298767,52.0004853 11.2372093,52.370032 C11.7431558,52.740272 11.852662,53.451632 11.4825587,53.9577653 C11.377904,54.100592 1.06075486,68.4955787 4.26554445,87.765392 C4.30158447,87.9782453 5.13050496,93.1165387 2.07126161,97.551792 C1.85016994,97.8714187 1.49531435,98.0433653 1.13491413,98.0433653" id="Fill-138" fill="#415572" sketch:type="MSShapeGroup" mask="url(#mask-2)"></path>
                    <path d="M94.2219921,78.1544053 C94.1533775,78.1544053 94.0819905,78.147472 94.0112966,78.1342987 C89.5839186,77.3057653 86.7402223,74.2114187 85.8537764,73.1152587 C67.0346476,69.463472 56.3182859,54.011152 55.8677856,53.3504053 C55.5136231,52.8324853 55.6480801,52.1252853 56.1658088,51.7716853 C56.6842307,51.4222453 57.3897834,51.5532853 57.744639,52.0698187 C57.8499868,52.2258187 68.5635762,67.6400053 86.6930931,70.9617653 C86.9848786,71.0144587 87.2447826,71.1808587 87.4166658,71.4221387 C87.4423097,71.4588853 90.0642212,75.0829387 94.4306084,75.9017653 C95.0460611,76.0168587 95.4535906,76.6110453 95.3371536,77.228112 C95.2345781,77.7737653 94.7577409,78.1544053 94.2219921,78.1544053" id="Fill-139" fill="#415572" sketch:type="MSShapeGroup" mask="url(#mask-2)"></path>
                    <path d="M25.9014089,148.30608 C25.9014089,148.30608 31.1036473,148.696427 32.8855491,149.82032 C34.6667579,150.944213 22.2447329,150.01376 22.2447329,150.01376" id="Fill-140" fill="#FFFFFF" sketch:type="MSShapeGroup" mask="url(#mask-2)"></path>
                    <path d="M29.972753,151.526891 C28.2386736,151.526891 25.7505259,151.415957 22.1589992,151.146251 C21.5345365,151.099797 21.0653232,150.553451 21.1117593,149.928757 C21.1575024,149.301984 21.691172,148.815957 22.3288031,148.880437 C23.215249,148.946997 24.1370419,149.006624 25.0498247,149.057931 C24.8543769,148.836757 24.7448707,148.539317 24.7691284,148.222464 C24.8148715,147.594997 25.3506203,147.128384 25.9861722,147.173451 C26.5475649,147.215744 31.5280186,147.619957 33.4915067,148.858944 C34.1949802,149.303371 34.2843871,149.947477 34.1346824,150.402997 C33.9406208,150.993024 33.763193,151.526891 29.972753,151.526891" id="Fill-141" fill="#415572" sketch:type="MSShapeGroup" mask="url(#mask-2)"></path>
                    <path d="M46.6448669,147.777691 C46.6448669,147.777691 51.8471054,148.168037 53.6290072,149.291931 C55.4102159,150.415824 42.9944286,149.485371 42.9944286,149.485371" id="Fill-142" fill="#FFFFFF" sketch:type="MSShapeGroup" mask="url(#mask-2)"></path>
                    <path d="M50.7184289,150.99864 C48.9857356,150.99864 46.4989741,150.887707 42.9088335,150.618 C42.2843709,150.571547 41.8151575,150.0252 41.8622868,149.399813 C41.9073368,148.773733 42.437541,148.293253 43.0800236,148.352187 C43.9630042,148.418747 44.8834109,148.478373 45.7941145,148.52968 C45.5979736,148.307813 45.4884674,148.010373 45.5127251,147.69144 C45.5591613,147.064667 46.0969893,146.582107 46.730462,146.644507 C47.2918546,146.686107 52.2716152,147.091707 54.2351033,148.330693 C54.9378837,148.77512 55.0279838,149.419227 54.8782791,149.874747 C54.6842174,150.464773 54.5074827,150.99864 50.7184289,150.99864" id="Fill-143" fill="#415572" sketch:type="MSShapeGroup" mask="url(#mask-2)"></path>
                    <path d="M47.6178782,9.42552 C51.3667335,12.5406667 53.764088,17.2345333 53.764088,22.46088 L53.764088,40.9652533 C53.764088,50.2857333 46.1409304,55.54536 36.8238918,55.54536 C27.5068532,55.54536 19.8836956,50.2857333 19.8836956,40.9652533 L19.8836956,22.46088 C19.8836956,13.2062667 27.4001193,5.62189333 36.6270578,5.51581333" id="Fill-144" fill="#FFFFFF" sketch:type="MSShapeGroup" mask="url(#mask-2)"></path>
                    <path d="M36.8236146,56.6809013 C26.1814121,56.6809013 18.7481577,50.2183413 18.7481577,40.965808 L18.7481577,22.4607413 C18.7481577,12.6043147 26.7622109,4.49370133 36.6143052,4.37930133 L36.6274737,4.37930133 C37.248471,4.37930133 37.7551105,4.879888 37.7634274,5.50250133 C37.7696651,6.129968 37.267184,6.643728 36.6406421,6.652048 C28.027077,6.751888 21.0200652,13.842608 21.0200652,22.4607413 L21.0200652,40.965808 C21.0200652,50.2516213 28.9578799,54.4081547 36.8236146,54.4081547 C44.6893492,54.4081547 52.6271639,50.2516213 52.6271639,40.965808 L52.6271639,22.4607413 C52.6271639,17.7606347 50.5361496,13.328848 46.8926421,10.300368 C46.4102602,9.898928 46.3437248,9.18271467 46.7436304,8.70015467 C47.1456153,8.21898133 47.8594849,8.15103467 48.3432529,8.55178133 C52.5100338,12.0135947 54.8990714,17.0839413 54.8990714,22.4607413 L54.8990714,40.965808 C54.8990714,50.2183413 47.465817,56.6809013 36.8236146,56.6809013" id="Fill-145" fill="#415572" sketch:type="MSShapeGroup" mask="url(#mask-2)"></path>
                    <path d="M48.9203091,1.52061867 C46.48137,3.81693867 41.8980496,5.396352 36.5973941,5.50797867" id="Fill-146" fill="#FFFFFF" sketch:type="MSShapeGroup" mask="url(#mask-2)"></path>
                    <path d="M36.5973248,6.64407467 C35.980486,6.64407467 35.4745395,6.15111467 35.4613711,5.53127467 C35.4482026,4.903808 35.9465252,4.38450133 36.5737602,4.371328 C41.4058953,4.27079467 45.838818,2.861248 48.1412209,0.692501333 C48.5972658,0.264714667 49.3152939,0.284128 49.7477741,0.741728 C50.176789,1.19863467 50.1559967,1.91762133 49.6992587,2.34818133 C46.9622963,4.92391467 42.0740219,6.52967467 36.6208894,6.64407467 L36.5973248,6.64407467 Z" id="Fill-147" fill="#415572" sketch:type="MSShapeGroup" mask="url(#mask-2)"></path>
                    <path d="M56.8062123,4.94027733 C54.3672732,7.23659733 49.7839528,8.81601067 44.4832973,8.92763733" id="Fill-148" fill="#FFFFFF" sketch:type="MSShapeGroup" mask="url(#mask-2)"></path>
                    <path d="M44.4831587,10.0641493 C43.8663199,10.0641493 43.3603734,9.57118933 43.347205,8.95204267 C43.3340365,8.32388267 43.8323591,7.804576 44.458901,7.79140267 C49.2931154,7.68948267 53.7253449,6.279936 56.0270548,4.112576 C56.4844858,3.68340267 57.2011278,3.70420267 57.633608,4.16180267 C58.0626229,4.61870933 58.0418306,5.337696 57.5850926,5.768256 C54.8495164,8.343296 49.9605489,9.949056 44.5074164,10.0641493 L44.4831587,10.0641493 Z" id="Fill-149" fill="#415572" sketch:type="MSShapeGroup" mask="url(#mask-2)"></path>
                    <path d="M28.5632417,41.5011307 C28.9174042,45.5813973 32.7265572,48.8053973 37.4249285,48.8053973 C42.1226066,48.8053973 45.9317596,45.5813973 46.2859222,41.5011307 L28.5632417,41.5011307 Z" id="Fill-150" fill="#FFFFFF" sketch:type="MSShapeGroup" mask="url(#mask-2)"></path>
                    <path d="M29.9361586,42.6378507 C30.8281491,45.5408373 33.8818478,47.6693707 37.4248591,47.6693707 C40.9678705,47.6693707 44.0215692,45.5408373 44.9135597,42.6378507 L29.9361586,42.6378507 Z M37.4248591,49.9421173 C32.2281653,49.9421173 27.8382135,46.2778507 27.4313771,41.600624 C27.403654,41.2830773 27.5103879,40.9689973 27.7252419,40.7339573 C27.9407889,40.498224 28.2443568,40.365104 28.5631724,40.365104 L46.2858528,40.365104 C46.6039753,40.365104 46.9082363,40.498224 47.1230903,40.7339573 C47.3386373,40.9676107 47.4446781,41.2830773 47.4169551,41.600624 C47.0115048,46.2778507 42.6229391,49.9421173 37.4248591,49.9421173 L37.4248591,49.9421173 Z" id="Fill-151" fill="#415572" sketch:type="MSShapeGroup" mask="url(#mask-2)"></path>
                    <path d="M56.8062123,102.715045 L16.841294,103.141445 C16.2826737,103.146992 15.8245496,102.698405 15.819005,102.139579 C15.8127673,101.580752 16.2611883,101.122459 16.8198086,101.116912 L16.841294,101.116912 L56.8062123,101.542619 C57.1298794,101.546085 57.3890903,101.811632 57.385625,102.135419 C57.3821596,102.454352 57.1236417,102.711579 56.8062123,102.715045" id="Fill-152" fill="#415572" sketch:type="MSShapeGroup" mask="url(#mask-2)"></path>
                    <path d="M19.8838342,31.7192373 C19.8838342,31.7192373 16.575083,26.7168373 14.3101063,28.692144 C11.4262115,31.2075573 16.306169,35.5797173 19.8838342,36.4075573 L19.8838342,31.7192373 Z" id="Fill-153" fill="#FFFFFF" sketch:type="MSShapeGroup" mask="url(#mask-2)"></path>
                    <path d="M15.4966547,29.367104 C15.3337815,29.367104 15.2007107,29.4239573 15.0565506,29.5487573 C14.6157534,29.932864 14.486148,30.3294507 14.6226842,30.875104 C14.9629852,32.235424 16.8065709,33.924384 18.7478805,34.814624 L18.7478805,32.0738773 C17.9390592,30.9472107 16.5549838,29.502304 15.6089332,29.3747307 C15.5701209,29.369184 15.5320017,29.367104 15.4966547,29.367104 M19.8838342,37.543584 C19.7985857,37.543584 19.7133372,37.533184 19.6273956,37.514464 C16.7726101,36.853024 13.1096964,34.190624 12.4186983,31.4256107 C12.075625,30.0541973 12.4824614,28.7791573 13.5629689,27.8355307 C14.2345609,27.251744 15.0440752,27.0069973 15.9145803,27.1234773 C18.3611433,27.4541973 20.5859216,30.721184 20.8312709,31.0928107 C20.9539456,31.2793173 21.019788,31.4963307 21.019788,31.719584 L21.019788,36.4072107 C21.019788,36.753184 20.8624594,37.0804373 20.5907731,37.2967573 C20.3877014,37.4576107 20.1381936,37.543584 19.8838342,37.543584" id="Fill-154" fill="#415572" sketch:type="MSShapeGroup" mask="url(#mask-2)"></path>
                    <path d="M47.1573283,79.6930507 C47.0374259,79.6119307 46.8752458,79.614704 46.7581157,79.699984 C46.6389064,79.7859573 46.5869256,79.941264 46.6285103,80.0813173 C46.6700949,80.222064 46.7997004,80.323984 46.9459397,80.3309173 C47.0907929,80.3371573 47.2273291,80.2504907 47.2841614,80.1173707 C47.3479246,79.9655307 47.2931714,79.785264 47.1573283,79.6930507 C46.9979205,79.585584 47.3167361,79.8005173 47.1573283,79.6930507" id="Fill-155" fill="#FFFFFF" sketch:type="MSShapeGroup" mask="url(#mask-2)"></path>
                    <path d="M42.6937023,82.946032 C42.7734062,82.946032 42.852417,82.9446453 42.9321209,82.941872 C43.0908356,82.9363253 43.2488573,82.9245387 43.4068789,82.9058187 C43.5337121,82.8912587 43.1469749,82.9363253 43.4068789,82.9058187 C43.5649005,82.887792 43.6972783,83.0368587 43.6598521,83.191472 C43.6425252,83.262192 43.5919306,83.322512 43.5247021,83.3509387 C43.4831174,83.3689653 43.4373743,83.3710453 43.3923243,83.3752053 C43.3396504,83.380752 43.2862835,83.3862987 43.2329165,83.3904587 C42.8122186,83.424432 42.3866691,83.4174987 41.9666642,83.3710453 C41.5861648,83.3294453 41.2091307,83.253872 40.8424928,83.143632 C40.485558,83.0361653 40.1390193,82.8954187 39.8077283,82.7241653 C39.4715858,82.550832 39.1548495,82.344912 38.8533608,82.1168053 C38.5109806,81.8574987 38.1956304,81.5642187 37.9121618,81.2418187 C37.6300793,80.922192 37.3805715,80.5741387 37.1677968,80.204592 C36.9508636,79.828112 36.7727427,79.4294453 36.6375926,79.0162187 C36.4989771,78.594672 36.4047186,78.1592587 36.3568963,77.7182987 C36.3076878,77.269712 36.3063016,76.8155787 36.3513517,76.3662987 C36.3964017,75.923952 36.4871948,75.4864587 36.623038,75.0635253 C36.7561088,74.648912 36.9314574,74.2481653 37.1463114,73.8696053 C37.3590861,73.4938187 37.6099801,73.1395253 37.8941418,72.814352 C38.1755312,72.491952 38.4894952,72.1979787 38.8291031,71.9372853 C39.1721764,71.6752053 39.5422797,71.4470987 39.9310961,71.2592053 C40.3268432,71.0678453 40.7419966,70.917392 41.1689322,70.8120053 C41.6034917,70.7038453 42.0491404,70.642832 42.4968684,70.6275787 C42.9452894,70.6130187 43.3957897,70.644912 43.8372799,70.723952 C44.2669879,70.8002187 44.689072,70.921552 45.0945222,71.0844853 C45.4944278,71.246032 45.8776996,71.447792 46.2374067,71.6856053 C46.5950346,71.9234187 46.929791,72.1972853 47.2333589,72.5016587 C47.3608851,72.629232 47.4773221,72.7595787 47.557026,72.9232053 C47.6256406,73.066032 47.6658391,73.222032 47.6755422,73.3794187 C47.6949484,73.7018187 47.584056,74.0242187 47.369202,74.2654987 C47.118308,74.5462987 46.7461255,74.6981387 46.3704776,74.6710987 C46.1895844,74.6586187 46.0121566,74.605232 45.8548281,74.515792 C45.7730449,74.4693387 45.6974995,74.4131787 45.6288848,74.349392 C45.5505671,74.2772853 45.4798732,74.1982453 45.4022486,74.1254453 C45.0896707,73.8342453 44.7299635,73.5936587 44.3404541,73.4168587 C43.9405485,73.2352053 43.5101474,73.1214987 43.0728156,73.0819787 C42.6264738,73.0417653 42.1738943,73.0757387 41.7393348,73.1852853 C41.3165577,73.2920587 40.9118005,73.4702453 40.5472418,73.7094453 C40.1889209,73.9444853 39.8694122,74.237072 39.6046567,74.574032 C39.3364357,74.9137653 39.1243541,75.2985653 38.9808871,75.7069387 C38.8346477,76.123632 38.7597954,76.564592 38.7591023,77.0062453 C38.7577162,77.4513653 38.8304893,77.895792 38.9767286,78.315952 C39.1174233,78.7222453 39.3260396,79.104272 39.590102,79.443312 C39.8534714,79.7816587 40.1709008,80.075632 40.5285287,80.312752 C40.8930874,80.5547253 41.2971515,80.7356853 41.7213148,80.845232 C42.1551812,80.957552 42.6091469,80.9942987 43.0554887,80.955472 C43.4914343,80.918032 43.9197561,80.8070987 44.3189687,80.6296053 C44.3612464,80.6108853 44.402138,80.5866187 44.4478811,80.5776053 C44.4853072,80.5699787 44.5255057,80.5720587 44.5622388,80.5838453 C44.6363981,80.6074187 44.6946166,80.6677387 44.716102,80.7426187 C44.7368943,80.816112 44.7195674,80.8965387 44.6703589,80.9547787 C44.6419427,80.988752 44.6065958,81.0088587 44.5670904,81.0268853 C44.519268,81.0497653 44.4707526,81.0705653 44.4222372,81.0913653 C44.0160939,81.2619253 43.5849998,81.3707787 43.1469749,81.4137653 C42.7013262,81.4574453 42.2487467,81.433872 41.8100287,81.3430453 C41.866168,81.4096053 41.919535,81.4782453 41.9708227,81.548272 C42.0228035,81.6196853 42.072705,81.6931787 42.1198343,81.7680587 C42.1267651,81.7784587 42.1454782,81.8089653 42.1454782,81.8089653 C42.1454782,81.8089653 42.1544882,81.8096587 42.1676566,81.8110453 C42.1905282,81.8138187 42.2133997,81.816592 42.2355782,81.818672 C42.2813213,81.8235253 42.3263714,81.826992 42.3714214,81.8304587 C42.556473,81.8429387 42.7422178,81.845712 42.9272694,81.837392 C43.2918281,81.8214453 43.6550006,81.7638987 44.0070839,81.6661387 C44.3480779,81.571152 44.6779827,81.438032 44.9898675,81.2702453 C45.2955146,81.1066187 45.5824487,80.909712 45.845818,80.6836853 C45.9109673,80.6282187 45.9747304,80.570672 46.0364143,80.5117387 C46.0911674,80.4597387 46.1417621,80.3994187 46.2096836,80.364752 C46.329586,80.3037387 46.4785977,80.3182987 46.5839454,80.402192 C46.6892932,80.4860853 46.7385017,80.626832 46.7066201,80.757872 C46.6899862,80.8251253 46.6539462,80.882672 46.6054308,80.9312053 C46.54444,80.9915253 46.482063,81.051152 46.418993,81.1086987 C46.1625544,81.340272 45.8853235,81.5489653 45.5907656,81.729232 C45.2920493,81.912272 44.9753129,82.0675787 44.6474873,82.1902987 C44.3099587,82.3164853 43.9599546,82.409392 43.605099,82.467632 C43.2384611,82.5272587 42.8669717,82.5494453 42.4961753,82.5355787 C42.5259776,82.6180853 42.5530076,82.7012853 42.5772653,82.7851787 C42.5883546,82.8226187 42.5987507,82.8600587 42.6084538,82.8974987 C42.6112261,82.9092853 42.6202361,82.9453387 42.6202361,82.9453387 L42.6937023,82.946032 Z" id="Fill-156" fill="#FFFFFF" sketch:type="MSShapeGroup" mask="url(#mask-2)"></path>
                    <path d="M46.2564664,81.7690987 C45.8974523,82.0374187 45.509329,82.2655253 45.0990272,82.4464853 C44.8938763,82.5366187 44.6831808,82.6156587 44.4683268,82.6815253 C44.3608999,82.7148053 44.2520867,82.745312 44.1425805,82.772352 C44.0947582,82.7841387 44.0455497,82.7917653 44.003272,82.8174187 C43.9672319,82.8396053 43.9374296,82.8714987 43.9180234,82.909632 C43.8764388,82.9900587 43.8861419,83.090592 43.9436673,83.161312 C44.0081235,83.2417387 44.1051543,83.2597653 44.2014921,83.2368853 C44.4184253,83.1848853 44.6332793,83.121792 44.8439748,83.046912 C45.2667519,82.8978453 45.6735883,82.7030187 46.0554739,82.4672853 C46.1511186,82.4090453 46.2446841,82.3473387 46.3368633,82.2842453 C46.3832995,82.2516587 46.4297357,82.2183787 46.4754788,82.1850987 C46.5163704,82.1552853 46.5593412,82.1282453 46.5877573,82.085952 C46.6376589,82.0124587 46.6411243,81.9146987 46.5960743,81.8377387 C46.5517173,81.761472 46.4650826,81.7164053 46.3763687,81.7233387 C46.333398,81.7268053 46.2911202,81.742752 46.2564664,81.7690987 C45.6001221,82.2599787 46.3590418,81.6921387 46.2564664,81.7690987" id="Fill-157" fill="#FFFFFF" sketch:type="MSShapeGroup" mask="url(#mask-2)"></path>
                    <path d="M47.0271684,81.0807573 C46.9661776,81.1452373 46.9044937,81.2083307 46.8407306,81.2700373 C46.7887498,81.321344 46.7305313,81.3657173 46.7090459,81.4392107 C46.6702335,81.5716373 46.7589474,81.7130773 46.8961767,81.7345707 C46.9765737,81.7470507 47.0472676,81.7158507 47.1040999,81.6617707 C47.1678631,81.6014507 47.23024,81.5404373 47.2912308,81.477344 C47.3432116,81.4239573 47.4021232,81.373344 47.4215294,81.298464 C47.4367771,81.238144 47.427074,81.1722773 47.3951924,81.119584 C47.3161816,80.9899307 47.1304369,80.9705173 47.0271684,81.0807573 C46.9453852,81.167424 47.1151892,80.9871573 47.0271684,81.0807573" id="Fill-158" fill="#FFFFFF" sketch:type="MSShapeGroup" mask="url(#mask-2)"></path>
                    <path d="M45.5747555,79.7410293 C45.4299023,79.8935627 45.2767323,80.0343093 45.1083145,80.160496 C45.0618783,80.1951627 45.014749,80.2284427 44.9683128,80.262416 C44.9288074,80.2901493 44.8976189,80.3255093 44.8795989,80.370576 C44.8435589,80.462096 44.8698959,80.5695627 44.9447482,80.6333493 C45.0334621,80.7089227 45.1526714,80.7019893 45.2434645,80.636816 C45.3321784,80.5737227 45.4195062,80.509936 45.5040616,80.4419893 C45.5837655,80.3782027 45.660004,80.310256 45.7341633,80.2402293 C45.7771341,80.1993227 45.8187187,80.1570293 45.8603034,80.114736 C45.8991157,80.075216 45.9400073,80.037776 45.9601065,79.9850827 C45.9996119,79.8824693 45.9594134,79.7625227 45.8665411,79.7042827 C45.7743618,79.6460427 45.6503009,79.6619893 45.5747555,79.7410293 C45.3515846,79.9760693 45.6634694,79.6481227 45.5747555,79.7410293" id="Fill-159" fill="#FFFFFF" sketch:type="MSShapeGroup" mask="url(#mask-2)"></path>
                    <path d="M42.7166432,75.506704 C42.4040653,75.506704 42.0956459,75.604464 41.8412865,75.7861173 C41.5931648,75.9629173 41.4011824,76.213904 41.2972208,76.5002507 C41.1884077,76.7976907 41.1766254,77.1277173 41.26326,77.4313973 C41.3464293,77.7246773 41.5196986,77.9888373 41.7539588,78.1829707 C41.9930705,78.3805707 42.2904006,78.5012107 42.5995131,78.524784 C42.9134772,78.5483573 43.2309066,78.4734773 43.4998206,78.310544 C43.7590315,78.152464 43.9676478,77.917424 44.0930948,77.6414773 C44.2233933,77.353744 44.2601264,77.0264907 44.1970564,76.717264 C44.1367587,76.4163573 43.9822024,76.1376373 43.7611107,75.9261707 C43.5386329,75.7133173 43.252392,75.571184 42.948131,75.5240373 C42.8718925,75.5122507 42.7942679,75.506704 42.7166432,75.506704" id="Fill-160" fill="#FFFFFF" sketch:type="MSShapeGroup" mask="url(#mask-2)"></path>
                </g>
                <g id="Page-1" transform="translate(317.897356, 31.980000)">
                    <path d="M142.574636,114.175613 L145.004028,118.209029 L160.044701,118.209029 L156.938865,114.175613 L142.574636,114.175613 Z" id="Fill-1" fill="#415572" sketch:type="MSShapeGroup"></path>
                    <g id="Group-99">
                        <g id="Group-4">
                            <mask id="mask-4" sketch:name="Clip 3" fill="white">
                                <use xlink:href="#path-3"></use>
                            </mask>
                            <g id="Clip-3"></g>
                            <path d="M145.644196,117.078886 L157.746935,117.078886 L156.38092,115.306032 L144.577364,115.306032 L145.644196,117.078886 Z M160.045046,119.340138 L145.003682,119.340138 C144.607075,119.340138 144.238797,119.1325 144.032893,118.792416 L141.603501,114.75831 C141.393451,114.407878 141.387923,113.973287 141.588991,113.618716 C141.789367,113.264145 142.165937,113.044781 142.57429,113.044781 L156.939902,113.044781 C157.291597,113.044781 157.623255,113.208269 157.83745,113.48627 L160.942595,117.520375 C161.205848,117.86184 161.251451,118.323334 161.061439,118.709636 C160.870044,119.09525 160.476201,119.340138 160.045046,119.340138 L160.045046,119.340138 Z" id="Fill-2" fill="#415572" sketch:type="MSShapeGroup" mask="url(#mask-4)"></path>
                        </g>
                        <path d="M19.5508712,114.175613 L21.9802632,118.209029 L37.0209363,118.209029 L33.9151008,114.175613 L19.5508712,114.175613 Z" id="Fill-5" fill="#415572" sketch:type="MSShapeGroup"></path>
                        <g id="Group-9">
                            <mask id="mask-6" sketch:name="Clip 8" fill="white">
                                <use xlink:href="#path-5"></use>
                            </mask>
                            <g id="Clip-8"></g>
                            <path d="M22.6209843,117.078886 L34.7223417,117.078886 L33.3577088,115.306032 L21.5541523,115.306032 L22.6209843,117.078886 Z M37.0218345,119.340138 L21.9804705,119.340138 C21.5838633,119.340138 21.2155851,119.1325 21.009681,118.792416 L18.580289,114.75831 C18.3702391,114.407878 18.3647115,113.973287 18.5657789,113.618716 C18.7661554,113.264145 19.142725,113.044781 19.5510785,113.044781 L33.9153081,113.044781 C34.2670034,113.044781 34.598661,113.208269 34.8135475,113.48627 L37.9193829,117.520375 C38.1826362,117.86184 38.2282391,118.323334 38.0382269,118.708257 C37.8468328,119.09525 37.4529894,119.340138 37.0218345,119.340138 L37.0218345,119.340138 Z" id="Fill-7" fill="#415572" sketch:type="MSShapeGroup" mask="url(#mask-6)"></path>
                        </g>
                        <path d="M60.5588157,114.175613 L62.9882077,118.209029 L78.0288808,118.209029 L74.9230453,114.175613 L60.5588157,114.175613 Z" id="Fill-10" fill="#415572" sketch:type="MSShapeGroup"></path>
                        <g id="Group-14">
                            <mask id="mask-8" sketch:name="Clip 13" fill="white">
                                <use xlink:href="#path-7"></use>
                            </mask>
                            <g id="Clip-13"></g>
                            <path d="M63.6291361,117.078886 L75.7304935,117.078886 L74.3651696,115.306032 L62.5623041,115.306032 L63.6291361,117.078886 Z M78.0286044,119.340138 L62.9886223,119.340138 C62.5920151,119.340138 62.2237369,119.1325 62.0178328,118.792416 L59.5884407,114.75831 C59.3783909,114.407878 59.3728633,113.973287 59.5739307,113.618716 C59.7743072,113.264145 60.1508768,113.044781 60.5592302,113.044781 L74.9234599,113.044781 C75.2751552,113.044781 75.6068128,113.208269 75.8216993,113.48627 L78.9268438,117.520375 C79.190097,117.86184 79.235009,118.323334 79.0449968,118.709636 C78.8536027,119.09525 78.4597593,119.340138 78.0286044,119.340138 L78.0286044,119.340138 Z" id="Fill-12" fill="#415572" sketch:type="MSShapeGroup" mask="url(#mask-8)"></path>
                        </g>
                        <path d="M101.566691,114.175613 L103.996083,118.209029 L119.036756,118.209029 L115.930921,114.175613 L101.566691,114.175613 Z" id="Fill-15" fill="#415572" sketch:type="MSShapeGroup"></path>
                        <g id="Group-19">
                            <mask id="mask-10" sketch:name="Clip 18" fill="white">
                                <use xlink:href="#path-9"></use>
                            </mask>
                            <g id="Clip-18"></g>
                            <path d="M104.637219,117.078886 L116.738576,117.078886 L115.373252,115.306032 L103.569005,115.306032 L104.637219,117.078886 Z M119.036687,119.340138 L103.996705,119.340138 C103.600098,119.340138 103.23182,119.1325 103.027297,118.792416 L100.596523,114.75831 C100.385092,114.409258 100.379564,113.973287 100.580632,113.618716 C100.781008,113.264145 101.158269,113.044781 101.565931,113.044781 L115.931543,113.044781 C116.283238,113.044781 116.614895,113.208269 116.829782,113.48627 L119.934926,117.520375 C120.19818,117.86184 120.243092,118.323334 120.053079,118.709636 C119.861685,119.09525 119.467842,119.340138 119.036687,119.340138 L119.036687,119.340138 Z" id="Fill-17" fill="#415572" sketch:type="MSShapeGroup" mask="url(#mask-10)"></path>
                        </g>
                        <path d="M69.2939864,64.260658 L69.2939864,116.192183" id="Fill-20" fill="#FFFFFF" sketch:type="MSShapeGroup"></path>
                        <path d="M69.2945392,117.888122 C68.3569154,117.888122 67.5961758,117.128623 67.5961758,116.192528 L67.5961758,64.2610029 C67.5961758,63.3249082 68.3569154,62.5654091 69.2945392,62.5654091 C70.2321629,62.5654091 70.9929026,63.3249082 70.9929026,64.2610029 L70.9929026,116.192528 C70.9929026,117.128623 70.2321629,117.888122 69.2945392,117.888122" id="Fill-22" fill="#415572" sketch:type="MSShapeGroup"></path>
                        <path d="M110.301931,64.260658 L110.301931,116.192183" id="Fill-24" fill="#FFFFFF" sketch:type="MSShapeGroup"></path>
                        <path d="M110.301516,117.888122 C109.363893,117.888122 108.603153,117.128623 108.603153,116.192528 L108.603153,64.2610029 C108.603153,63.3249082 109.363893,62.5654091 110.301516,62.5654091 C111.23914,62.5654091 111.99988,63.3249082 111.99988,64.2610029 L111.99988,116.192528 C111.99988,117.128623 111.23914,117.888122 110.301516,117.888122" id="Fill-26" fill="#415572" sketch:type="MSShapeGroup"></path>
                        <path d="M151.309806,64.260658 L151.309806,116.192183" id="Fill-28" fill="#FFFFFF" sketch:type="MSShapeGroup"></path>
                        <path d="M151.309599,117.888122 C150.371975,117.888122 149.611236,117.128623 149.611236,116.192528 L149.611236,64.2610029 C149.611236,63.3249082 150.371975,62.5654091 151.309599,62.5654091 C152.247223,62.5654091 153.007962,63.3249082 153.007962,64.2610029 L153.007962,116.192528 C153.007962,117.128623 152.247223,117.888122 151.309599,117.888122" id="Fill-30" fill="#415572" sketch:type="MSShapeGroup"></path>
                        <path d="M100.399947,47.1229511 L35.7619501,47.1229511 L5.1865724,47.1229511 L4.03889885,47.1229511 L0.849458077,61.9052451 L101.566967,61.9052451 L100.399947,47.1229511 Z" id="Fill-32" fill="#FFFFFF" sketch:type="MSShapeGroup"></path>
                        <g id="Group-36">
                            <mask id="mask-12" sketch:name="Clip 35" fill="white">
                                <use xlink:href="#path-11"></use>
                            </mask>
                            <g id="Clip-35"></g>
                            <path d="M0.850701793,62.752904 C0.791279803,62.752904 0.731166859,62.7473854 0.670362963,62.7342787 C0.21295183,62.6349437 -0.0793214472,62.1844869 0.0187939317,61.726442 L3.2082347,46.9434582 C3.29253101,46.5537062 3.63869865,46.2743264 4.03876066,46.2743264 L100.399809,46.2743264 C100.868275,46.2743264 101.248991,46.6544209 101.248991,47.1228131 C101.248991,47.5905156 100.868275,47.97061 100.399809,47.97061 L4.72487736,47.97061 L1.67984584,62.0837722 C1.59416762,62.4811123 1.24247236,62.752904 0.850701793,62.752904" id="Fill-34" fill="#415572" sketch:type="MSShapeGroup" mask="url(#mask-12)"></path>
                        </g>
                        <path d="M28.286111,64.260658 L28.286111,116.192183" id="Fill-37" fill="#FFFFFF" sketch:type="MSShapeGroup"></path>
                        <path d="M28.2863874,117.888122 C27.3487636,117.888122 26.588024,117.128623 26.588024,116.192528 L26.588024,64.2610029 C26.588024,63.3249082 27.3487636,62.5654091 28.2863874,62.5654091 C29.2240111,62.5654091 29.9847508,63.3249082 29.9847508,64.2610029 L29.9847508,116.192528 C29.9847508,117.128623 29.2240111,117.888122 28.2863874,117.888122" id="Fill-39" fill="#415572" sketch:type="MSShapeGroup"></path>
                        <path d="M102.432939,61.9053141 L0.849665363,61.9053141 L0.849665363,72.538991 L102.432939,72.538991" id="Fill-41" fill="#65778C" sketch:type="MSShapeGroup"></path>
                        <path d="M102.433216,73.3873397 L0.849941744,73.3873397 C0.380784404,73.3873397 6.90953373e-05,73.0072452 6.90953373e-05,72.5395428 L6.90953373e-05,61.9051761 C6.90953373e-05,61.4367839 0.380784404,61.0573792 0.849941744,61.0573792 L102.433216,61.0573792 C102.902373,61.0573792 103.282397,61.4367839 103.282397,61.9051761 C103.282397,62.3728785 102.902373,62.752973 102.433216,62.752973 L1.69912344,62.752973 L1.69912344,71.6917459 L102.433216,71.6917459 C102.902373,71.6917459 103.282397,72.0711506 103.282397,72.5395428 C103.282397,73.0072452 102.902373,73.3873397 102.433216,73.3873397" id="Fill-43" fill="#415572" sketch:type="MSShapeGroup"></path>
                        <path d="M30.2868356,47.1229511 L29.110142,56.817774" id="Fill-45" fill="#FFFFFF" sketch:type="MSShapeGroup"></path>
                        <path d="M29.1113857,57.6653639 C29.076838,57.6653639 29.0429813,57.6632945 29.0084337,57.6584657 C28.5427311,57.6025897 28.2110735,57.1804158 28.2677316,56.7161625 L29.4444252,47.0213397 C29.4997015,46.5550169 29.9239469,46.2183815 30.3889585,46.2811557 C30.8539701,46.3377215 31.1863187,46.7592055 31.1296605,47.2241487 L29.9529669,56.9189716 C29.9011454,57.3494234 29.5349401,57.6653639 29.1113857,57.6653639" id="Fill-47" fill="#415572" sketch:type="MSShapeGroup"></path>
                        <path d="M57.5862652,47.1229511 L56.4095716,56.817774" id="Fill-49" fill="#FFFFFF" sketch:type="MSShapeGroup"></path>
                        <path d="M56.4110226,57.6653639 C56.3764749,57.6653639 56.3426182,57.6632945 56.3080705,57.6584657 C55.8423679,57.6025897 55.5107103,57.1804158 55.5673685,56.7161625 L56.7440621,47.0213397 C56.8000293,46.5550169 57.2318752,46.2183815 57.6885954,46.2811557 C58.153607,46.3377215 58.4859555,46.7592055 58.4292974,47.2241487 L57.2526038,56.9189716 C57.2007823,57.3494234 56.834577,57.6653639 56.4110226,57.6653639" id="Fill-51" fill="#415572" sketch:type="MSShapeGroup"></path>
                        <path d="M84.8856947,47.1229511 L83.7090011,56.817774" id="Fill-53" fill="#FFFFFF" sketch:type="MSShapeGroup"></path>
                        <path d="M83.709623,57.6653639 C83.6750753,57.6653639 83.6412186,57.6632945 83.6066709,57.6584657 C83.1402774,57.6025897 82.8093108,57.1804158 82.8659689,56.7161625 L84.0433535,47.0213397 C84.1000117,46.5550169 84.524948,46.2183815 84.9878867,46.2811557 C85.4549712,46.3377215 85.7852469,46.7592055 85.7292797,47.2241487 L84.5512042,56.9189716 C84.4993827,57.3494234 84.1331774,57.6653639 83.709623,57.6653639" id="Fill-55" fill="#415572" sketch:type="MSShapeGroup"></path>
                        <path d="M92.9903014,12.5491184 L92.9903014,47.123227 L102.43287,47.123227 L102.43287,20.5538661 L92.9903014,12.5491184 Z" id="Fill-57" fill="#E6E7E8" sketch:type="MSShapeGroup"></path>
                        <path d="M93.839414,46.2746714 L101.583619,46.2746714 L101.583619,20.9463085 L93.839414,14.3826085 L93.839414,46.2746714 Z M102.433492,47.9702651 L92.9902323,47.9702651 C92.521075,47.9702651 92.1410506,47.5908605 92.1410506,47.1224682 L92.1410506,12.5497392 C92.1410506,12.2193123 92.3331357,11.9192377 92.6330094,11.7798927 C92.9349561,11.6398579 93.2866513,11.6881458 93.5395403,11.9040615 L102.9828,19.9081194 C103.172812,20.0681592 103.282674,20.3054596 103.282674,20.554487 L103.282674,47.1224682 C103.282674,47.5908605 102.901958,47.9702651 102.433492,47.9702651 L102.433492,47.9702651 Z" id="Fill-59" fill="#415572" sketch:type="MSShapeGroup"></path>
                        <path d="M97.0540055,47.1229511 L97.0540055,16.5512163 L102.433078,20.5535902 L102.433078,61.9052451 L99.3189507,61.9052451 L97.0540055,47.1229511 Z" id="Fill-61" fill="#415572" sketch:type="MSShapeGroup"></path>
                        <path d="M102.432939,76.6027594 L102.432939,20.5536592 L92.9903705,12.5489114 L153.168264,12.5489114 L164.492298,20.5536592 L164.492298,76.6027594 L102.432939,76.6027594 Z" id="Fill-63" fill="#F1F2F2" sketch:type="MSShapeGroup"></path>
                        <path d="M103.282536,75.7544796 L163.643531,75.7544796 L163.643531,20.9925958 L152.898515,13.3976051 L95.3027151,13.3976051 L102.982662,19.9081884 C103.173365,20.0682282 103.282536,20.3055285 103.282536,20.5538661 L103.282536,75.7544796 Z M164.492713,77.4500734 L102.433354,77.4500734 C101.964197,77.4500734 101.584172,77.0706688 101.584172,76.6022765 L101.584172,20.9463774 L92.4407862,13.1954859 C92.1685506,12.9657736 92.0697442,12.5918876 92.1927339,12.2573217 C92.3157236,11.9234457 92.6342532,11.7020113 92.9900941,11.7020113 L153.168678,11.7020113 C153.34418,11.7020113 153.515537,11.7558178 153.659946,11.8572223 L164.983981,19.86197 C165.208541,20.0206302 165.341895,20.2793151 165.341895,20.5538661 L165.341895,76.6022765 C165.341895,77.0706688 164.96187,77.4500734 164.492713,77.4500734 L164.492713,77.4500734 Z" id="Fill-65" fill="#415572" sketch:type="MSShapeGroup"></path>
                        <path d="M107.906326,21.0247417 L164.492644,21.0247417" id="Fill-67" fill="#FFFFFF" sketch:type="MSShapeGroup"></path>
                        <path d="M164.492782,21.8724007 L107.906465,21.8724007 C107.437307,21.8724007 107.056592,21.4923062 107.056592,21.0246038 C107.056592,20.5562115 107.437307,20.1768069 107.906465,20.1768069 L164.492782,20.1768069 C164.961939,20.1768069 165.341964,20.5562115 165.341964,21.0246038 C165.341964,21.4923062 164.961939,21.8724007 164.492782,21.8724007" id="Fill-69" fill="#415572" sketch:type="MSShapeGroup"></path>
                        <mask id="mask-14" sketch:name="Clip 72" fill="white">
                            <use xlink:href="#path-13"></use>
                        </mask>
                        <g id="Clip-72"></g>
                        <path d="M100.399671,72.5394049 L102.432456,72.5394049 L102.432456,61.905728 L100.399671,61.905728 L100.399671,72.5394049 Z" id="Fill-71" fill="#415572" sketch:type="MSShapeGroup" mask="url(#mask-14)"></path>
                        <path d="M31.2150623,67.1848329 C31.2150623,68.7997169 29.9036328,70.1090078 28.286111,70.1090078 C26.6685891,70.1090078 25.3571596,68.7997169 25.3571596,67.1848329 C25.3571596,65.5699489 26.6685891,64.260658 28.286111,64.260658 C29.9036328,64.260658 31.2150623,65.5699489 31.2150623,67.1848329" id="Fill-73" fill="#FFFFFF" sketch:type="MSShapeGroup" mask="url(#mask-14)"></path>
                        <path d="M28.2863874,65.3916977 C27.2955602,65.3916977 26.4892177,66.1967253 26.4892177,67.184557 C26.4892177,68.1737683 27.2955602,68.9787959 28.2863874,68.9787959 C29.2758326,68.9787959 30.0821752,68.1737683 30.0821752,67.184557 C30.0821752,66.1967253 29.2758326,65.3916977 28.2863874,65.3916977 M28.2863874,71.2400475 C26.0470075,71.2400475 24.2242725,69.4202849 24.2242725,67.184557 C24.2242725,64.948829 26.0470075,63.1304461 28.2863874,63.1304461 C30.5257673,63.1304461 32.3471203,64.948829 32.3471203,67.184557 C32.3471203,69.4202849 30.5257673,71.2400475 28.2863874,71.2400475" id="Fill-74" fill="#415572" sketch:type="MSShapeGroup" mask="url(#mask-14)"></path>
                        <path d="M77.4993341,67.1848329 C77.4993341,68.7997169 76.1879046,70.1090078 74.5703827,70.1090078 C72.9528609,70.1090078 71.6414314,68.7997169 71.6414314,67.1848329 C71.6414314,65.5699489 72.9528609,64.260658 74.5703827,64.260658 C76.1879046,64.260658 77.4993341,65.5699489 77.4993341,67.1848329" id="Fill-75" fill="#FFFFFF" sketch:type="MSShapeGroup" mask="url(#mask-14)"></path>
                        <path d="M74.5706591,65.3916977 C73.579832,65.3916977 72.7734894,66.1967253 72.7734894,67.184557 C72.7734894,68.1737683 73.579832,68.9787959 74.5706591,68.9787959 C75.5601043,68.9787959 76.3664469,68.1737683 76.3664469,67.184557 C76.3664469,66.1967253 75.5601043,65.3916977 74.5706591,65.3916977 M74.5706591,71.2400475 C72.3312792,71.2400475 70.5085442,69.4202849 70.5085442,67.184557 C70.5085442,64.948829 72.3312792,63.1304461 74.5706591,63.1304461 C76.810039,63.1304461 78.6313921,64.948829 78.6313921,67.184557 C78.6313921,69.4202849 76.810039,71.2400475 74.5706591,71.2400475" id="Fill-76" fill="#415572" sketch:type="MSShapeGroup" mask="url(#mask-14)"></path>
                        <path d="M181.318879,24.2674786 L172.813243,23.54592" id="Fill-77" fill="#EDEBF4" sketch:type="MSShapeGroup" mask="url(#mask-14)"></path>
                        <path d="M181.319777,25.3977594 C181.287993,25.3977594 181.255518,25.3963798 181.222352,25.3936205 L172.717407,24.671372 C172.094858,24.6182554 171.632611,24.0719127 171.685123,23.4489993 C171.737635,22.8274656 172.263451,22.3418277 172.909492,22.4190882 L181.415128,23.1413367 C182.037677,23.1937635 182.499925,23.740796 182.446722,24.3630196 C182.396973,24.9528213 181.90156,25.3977594 181.319777,25.3977594" id="Fill-78" fill="#415572" sketch:type="MSShapeGroup" mask="url(#mask-14)"></path>
                        <path d="M175.513696,7.88106184 L169.892099,13.4810741" id="Fill-79" fill="#EDEBF4" sketch:type="MSShapeGroup" mask="url(#mask-14)"></path>
                        <path d="M169.891684,14.6120448 C169.602175,14.6120448 169.311284,14.5016725 169.090179,14.2795484 C168.648659,13.8380594 168.648659,13.1227092 169.092251,12.6812202 L174.714539,7.07982825 C175.156749,6.64040872 175.873268,6.63833924 176.315478,7.08258756 C176.756997,7.52407658 176.756997,8.23942675 176.313405,8.68091577 L170.691118,14.2816178 C170.470012,14.5016725 170.181194,14.6120448 169.891684,14.6120448" id="Fill-80" fill="#415572" sketch:type="MSShapeGroup" mask="url(#mask-14)"></path>
                        <path d="M158.649942,1.54659121 L159.443157,8.8725496" id="Fill-81" fill="#EDEBF4" sketch:type="MSShapeGroup" mask="url(#mask-14)"></path>
                        <path d="M159.442258,10.0036583 C158.871531,10.0036583 158.380954,9.57389629 158.317386,8.99444195 L157.524863,1.66779375 C157.457149,1.04763964 157.90696,0.489569931 158.528818,0.422656751 C159.158277,0.343326694 159.708966,0.804820682 159.775989,1.42497479 L160.569203,8.75162299 C160.636917,9.37246692 160.186415,9.92984681 159.565248,9.99675999 C159.523791,10.0015888 159.482334,10.0036583 159.442258,10.0036583" id="Fill-82" fill="#415572" sketch:type="MSShapeGroup" mask="url(#mask-14)"></path>
                        <path d="M109.12731,29.8360347 L109.12731,69.0906168" id="Fill-83" fill="#F9E9D4" sketch:type="MSShapeGroup" mask="url(#mask-14)"></path>
                        <path d="M109.127103,69.9382757 C108.657946,69.9382757 108.277921,69.5581813 108.277921,69.0904789 L108.277921,29.8358968 C108.277921,29.3681943 108.657946,28.9880999 109.127103,28.9880999 C109.59626,28.9880999 109.976285,29.3681943 109.976285,29.8358968 L109.976285,69.0904789 C109.976285,69.5581813 109.59626,69.9382757 109.127103,69.9382757" id="Fill-84" fill="#415572" sketch:type="MSShapeGroup" mask="url(#mask-14)"></path>
                        <path d="M109.127103,36.1069034 L107.003803,36.1069034 L107.003803,40.0637487 L109.127103,40.0637487 L109.127103,36.1069034 Z" id="Fill-85" fill="#65778C" sketch:type="MSShapeGroup" mask="url(#mask-14)"></path>
                        <path d="M107.852985,39.2166416 L108.277921,39.2166416 L108.277921,36.9553901 L107.852985,36.9553901 L107.852985,39.2166416 Z M109.127103,40.9122354 L107.003803,40.9122354 C106.534646,40.9122354 106.154621,40.5321409 106.154621,40.0644385 L106.154621,36.1069034 C106.154621,35.6392009 106.534646,35.2591065 107.003803,35.2591065 L109.127103,35.2591065 C109.59626,35.2591065 109.976285,35.6392009 109.976285,36.1069034 L109.976285,40.0644385 C109.976285,40.5321409 109.59626,40.9122354 109.127103,40.9122354 L109.127103,40.9122354 Z" id="Fill-86" fill="#415572" sketch:type="MSShapeGroup" mask="url(#mask-14)"></path>
                        <path d="M109.127103,57.4687634 L107.003803,57.4687634 L107.003803,61.4256087 L109.127103,61.4256087 L109.127103,57.4687634 Z" id="Fill-87" fill="#65778C" sketch:type="MSShapeGroup" mask="url(#mask-14)"></path>
                        <path d="M107.852985,60.5778118 L108.277921,60.5778118 L108.277921,58.3165602 L107.852985,58.3165602 L107.852985,60.5778118 Z M109.127103,62.2740954 L107.003803,62.2740954 C106.534646,62.2740954 106.154621,61.8940009 106.154621,61.4256087 L106.154621,57.4687634 C106.154621,57.0010609 106.534646,56.6209665 107.003803,56.6209665 L109.127103,56.6209665 C109.59626,56.6209665 109.976285,57.0010609 109.976285,57.4687634 L109.976285,61.4256087 C109.976285,61.8940009 109.59626,62.2740954 109.127103,62.2740954 L109.127103,62.2740954 Z" id="Fill-88" fill="#415572" sketch:type="MSShapeGroup" mask="url(#mask-14)"></path>
                        <path d="M151.931872,47.5540927 C151.931872,56.065863 145.020265,62.9661984 136.494591,62.9661984 C127.968227,62.9661984 121.057311,56.065863 121.057311,47.5540927 C121.057311,39.0423224 127.968227,32.1419871 136.494591,32.1419871 C145.020265,32.1419871 151.931872,39.0423224 151.931872,47.5540927" id="Fill-89" fill="#E6E7E8" sketch:type="MSShapeGroup" mask="url(#mask-14)"></path>
                        <path d="M136.494177,33.8372359 C128.919255,33.8372359 122.755951,39.9904891 122.755951,47.5544376 C122.755951,55.1170065 128.919255,61.2702597 136.494177,61.2702597 C144.070481,61.2702597 150.233785,55.1170065 150.233785,47.5544376 C150.233785,39.9904891 144.070481,33.8372359 136.494177,33.8372359 M136.494177,64.6621371 C127.045389,64.6621371 119.358533,56.9871264 119.358533,47.5544376 C119.358533,38.1196794 127.045389,30.4453586 136.494177,30.4453586 C145.943655,30.4453586 153.630511,38.1196794 153.630511,47.5544376 C153.630511,56.9871264 145.943655,64.6621371 136.494177,64.6621371" id="Fill-90" fill="#415572" sketch:type="MSShapeGroup" mask="url(#mask-14)"></path>
                        <path d="M125.578495,36.6560053 L147.410549,58.4524561" id="Fill-91" fill="#E6E7E8" sketch:type="MSShapeGroup" mask="url(#mask-14)"></path>
                        <path d="M147.410342,60.1484637 C146.975732,60.1484637 146.541123,59.9829053 146.209465,59.6517886 L124.377411,37.8553378 C123.713405,37.1924145 123.713405,36.1197341 124.377411,35.4568108 C125.040726,34.7945772 126.11585,34.7945772 126.779165,35.4568108 L148.611219,57.2532615 C149.274534,57.9161849 149.274534,58.9888652 148.611219,59.6517886 C148.279561,59.9829053 147.844952,60.1484637 147.410342,60.1484637" id="Fill-92" fill="#415572" sketch:type="MSShapeGroup" mask="url(#mask-14)"></path>
                        <path d="M147.410342,36.6560053 L125.578288,58.4524561" id="Fill-93" fill="#E6E7E8" sketch:type="MSShapeGroup" mask="url(#mask-14)"></path>
                        <path d="M125.578081,60.1484637 C125.143471,60.1484637 124.708861,59.9829053 124.377204,59.6517886 C123.713889,58.9888652 123.713889,57.9161849 124.377204,57.2532615 L146.209258,35.4568108 C146.872573,34.7945772 147.947696,34.7945772 148.611012,35.4568108 C149.275018,36.1197341 149.275018,37.1924145 148.611012,37.8553378 L126.778958,59.6517886 C126.4473,59.9829053 126.012691,60.1484637 125.578081,60.1484637" id="Fill-94" fill="#415572" sketch:type="MSShapeGroup" mask="url(#mask-14)"></path>
                        <path d="M136.494246,56.1825817 C131.72874,56.1825817 127.851801,52.3119647 127.851801,47.5542307 C127.851801,42.7958069 131.72874,38.9245001 136.494246,38.9245001 C141.260442,38.9245001 145.138073,42.7958069 145.138073,47.5542307 C145.138073,52.3119647 141.260442,56.1825817 136.494246,56.1825817" id="Fill-95" fill="#E6E7E8" sketch:type="MSShapeGroup" mask="url(#mask-14)"></path>
                        <path d="M136.494177,39.7727798 C132.196447,39.7727798 128.700914,43.2639922 128.700914,47.5540237 C128.700914,51.8447451 132.196447,55.3345778 136.494177,55.3345778 C140.791907,55.3345778 144.288131,51.8447451 144.288131,47.5540237 C144.288131,43.2639922 140.791907,39.7727798 136.494177,39.7727798 M136.494177,57.0308614 C131.260205,57.0308614 127.00255,52.78015 127.00255,47.5540237 C127.00255,42.3285873 131.260205,38.0771861 136.494177,38.0771861 C141.728149,38.0771861 145.987185,42.3285873 145.987185,47.5540237 C145.987185,52.78015 141.728149,57.0308614 136.494177,57.0308614" id="Fill-96" fill="#415572" sketch:type="MSShapeGroup" mask="url(#mask-14)"></path>
                        <path d="M136.494384,51.6602855 C134.225984,51.6602855 132.38183,49.8184485 132.38183,47.5544376 C132.38183,45.2897369 134.225984,43.4472101 136.494384,43.4472101 C138.762784,43.4472101 140.60832,45.2897369 140.60832,47.5544376 C140.60832,49.8184485 138.762784,51.6602855 136.494384,51.6602855" id="Fill-97" fill="#E6E7E8" sketch:type="MSShapeGroup" mask="url(#mask-14)"></path>
                        <path d="M136.494177,44.295076 C134.694934,44.295076 133.230804,45.7568185 133.230804,47.5545066 C133.230804,49.3508151 134.694934,50.8125576 136.494177,50.8125576 C138.294801,50.8125576 139.758931,49.3508151 139.758931,47.5545066 C139.758931,45.7568185 138.294801,44.295076 136.494177,44.295076 M136.494177,52.5081514 C133.758001,52.5081514 131.532441,50.2855301 131.532441,47.5545066 C131.532441,44.8214137 133.758001,42.5994822 136.494177,42.5994822 C139.231043,42.5994822 141.457295,44.8214137 141.457295,47.5545066 C141.457295,50.2855301 139.231043,52.5081514 136.494177,52.5081514" id="Fill-98" fill="#415572" sketch:type="MSShapeGroup" mask="url(#mask-14)"></path>
                    </g>
                </g>
            </g>
        </g>
    </g>
</svg>