<?xml version="1.0" encoding="utf-8"?>
<!-- Generator: Adobe Illustrator 19.1.0, SVG Export Plug-In . SVG Version: 6.00 Build 0)  -->
<svg version="1.2" baseProfile="tiny" id="Layer_1" xmlns="http://www.w3.org/2000/svg" xmlns:xlink="http://www.w3.org/1999/xlink"
	 x="0px" y="0px" viewBox="0 0 80 120" xml:space="preserve">
<g>
	<g>
		<g>
			<path fill="#415572" d="M61.2,76.9c0,0,1.1,3.1,2.1,3.9c1,0.9-1.2-4.6-1.2-4.6"/>
			<path fill="#415572" d="M63.5,81.7c-0.2,0-0.4-0.1-0.6-0.3c-1.1-1-2.2-3.9-2.3-4.2c-0.1-0.4,0.1-0.8,0.4-0.9
				c0.2-0.1,0.3-0.1,0.5,0c0-0.3,0.2-0.5,0.5-0.6c0.4-0.1,0.8,0,0.9,0.4c1.9,4.9,1.5,5.2,1.1,5.5C63.8,81.6,63.7,81.7,63.5,81.7z"/>
		</g>
		<g>
			<polyline fill="#415572" points="62.4,79.7 40.1,84.1 40.2,72.3 41.8,72.3 42.6,80.4 60.8,75.5 			"/>
			<path fill="#415572" d="M40.1,84.8c-0.2,0-0.3-0.1-0.5-0.2c-0.2-0.1-0.3-0.3-0.3-0.5l0.1-11.8c0-0.4,0.3-0.7,0.7-0.7h1.6
				c0.4,0,0.7,0.3,0.7,0.6l0.7,7.2l17.4-4.6c0.4-0.1,0.8,0.1,0.9,0.5s-0.1,0.8-0.5,0.9l-18.2,4.8c-0.2,0-0.4,0-0.6-0.1
				c-0.2-0.1-0.3-0.3-0.3-0.5L41.1,73h-0.2l-0.1,10.2L62.3,79c0.4-0.1,0.8,0.2,0.8,0.6c0.1,0.4-0.2,0.8-0.6,0.8l-22.2,4.4
				C40.2,84.8,40.2,84.8,40.1,84.8z"/>
		</g>
		<g>
			<path fill="#415572" d="M44.2,90c0,0-1,3.1-0.7,4.4c0.2,1.3,1.9-4.4,1.9-4.4"/>
			<path fill="#415572" d="M43.7,95.3c0,0-0.1,0-0.1,0c-0.1,0-0.6-0.1-0.8-0.8c-0.3-1.4,0.7-4.4,0.8-4.7c0.1-0.4,0.5-0.6,0.9-0.5
				c0.2,0,0.3,0.1,0.4,0.3c0.2-0.2,0.5-0.3,0.7-0.2c0.4,0.1,0.6,0.5,0.5,0.9C44.7,95,44.2,95.3,43.7,95.3z"/>
		</g>
		<g>
			<polyline fill="#415572" points="43.5,92.9 23.1,82.9 30.4,73.6 31.6,74.5 27.3,81.4 44.7,88.7 			"/>
			<path fill="#415572" d="M43.5,93.7c-0.1,0-0.2,0-0.3-0.1l-20.3-10c-0.2-0.1-0.3-0.3-0.4-0.5c0-0.2,0-0.4,0.1-0.6l7.2-9.3
				c0.2-0.3,0.7-0.4,1-0.1l1.2,1c0.3,0.2,0.4,0.6,0.2,0.9l-3.9,6.2L45,88c0.4,0.2,0.5,0.6,0.4,0.9c-0.2,0.4-0.6,0.5-0.9,0.4
				l-17.4-7.2c-0.2-0.1-0.3-0.2-0.4-0.4c-0.1-0.2,0-0.4,0.1-0.6l4-6.3l-0.2-0.1l-6.3,8.1l19.6,9.6c0.4,0.2,0.5,0.6,0.3,0.9
				C44,93.5,43.8,93.7,43.5,93.7z"/>
		</g>
		<g>
			<path fill="#A9DFF4" d="M31,36.9c1.5,2.6,4.4,5.4,8.3,5.8c3.9,0.4,7.6-1.8,9.5-4c9.4,8.2,3.9,29.1,1.9,35.5
				c-0.3,1.1-1.4,1.8-2.6,1.7L25,73.6c-1.3-0.1-2.3-1.2-2.2-2.5C22.8,63.8,23.6,41.2,31,36.9z"/>
			<path fill="#415572" d="M48.4,76.6c-0.1,0-0.2,0-0.3,0l-23.2-2.3c-1.7-0.2-2.9-1.5-2.9-3.2c0.1-9,1.1-30.4,8.7-34.8
				c0.2-0.1,0.4-0.1,0.5-0.1c0.2,0,0.3,0.2,0.4,0.3c1.4,2.4,4.1,5.1,7.7,5.4c3.6,0.3,7-1.7,8.9-3.8c0.1-0.1,0.3-0.2,0.5-0.2
				c0.2,0,0.4,0.1,0.5,0.2c9.8,8.5,4.1,29.9,2.1,36.2C51,75.7,49.8,76.6,48.4,76.6z M30.8,37.9c-6.6,5-7.3,26.6-7.4,33.2
				c0,0.9,0.7,1.7,1.6,1.8l23.2,2.3c0.9,0.1,1.6-0.4,1.9-1.2c1.9-6,7.2-26-1.2-34.3c-2.2,2.2-5.9,4.1-9.6,3.7
				C35.4,43,32.5,40.4,30.8,37.9z"/>
		</g>
		<g>
			<path fill="#FFFFFF" d="M40.2,46.1l-2.4-2.3c-0.6-0.6-1.2-0.9-2-0.5l-1.8,0.8c-0.9,0.5-2.1,0.1-2.6-0.7c-0.8-1.2-1.7-3.1-1.2-4.9
				c0.1-0.2,0.2-0.4,0.4-0.6l0.7-0.6c1.6,2.4,4.3,4.9,7.9,5.2c3.7,0.4,7.3-1.6,9.3-3.8l0.2,0.6c0,0-1.8,6-7.5,7
				C40.9,46.5,40.5,46.4,40.2,46.1z"/>
			<path fill="#415572" d="M41,47.2c-0.5,0-0.9-0.2-1.3-0.5c0,0,0,0,0,0l-2.4-2.3c-0.6-0.6-0.8-0.5-1.2-0.4l-1.8,0.8
				c-1.2,0.6-2.7,0.2-3.5-1c-0.9-1.4-1.9-3.4-1.3-5.4c0.1-0.4,0.3-0.7,0.7-1l0.7-0.6c0.2-0.1,0.4-0.2,0.6-0.1c0.2,0,0.4,0.1,0.5,0.3
				c0.9,1.3,3.3,4.5,7.4,4.9c3.6,0.4,6.9-1.7,8.7-3.6c0.2-0.2,0.4-0.3,0.7-0.2c0.2,0.1,0.4,0.2,0.5,0.5l0.2,0.6c0,0.1,0,0.3,0,0.4
				c-0.1,0.3-2,6.4-8.1,7.5C41.3,47.1,41.2,47.2,41,47.2z M40.7,45.6c0.1,0.1,0.2,0.2,0.4,0.1c3.4-0.6,5.3-3.1,6.2-4.8
				c-2.1,1.5-5,2.8-8.1,2.4c-0.4,0-0.7-0.1-1.1-0.2c0.1,0.1,0.1,0.1,0.2,0.2L40.7,45.6z M31.3,38.5l-0.1,0.1
				C31,38.6,31,38.7,31,38.8c-0.4,1.5,0.4,3.2,1.1,4.3c0.4,0.6,1.1,0.8,1.7,0.5l1.8-0.8c0.2-0.1,0.4-0.2,0.5-0.2
				C33.8,41.5,32.2,39.7,31.3,38.5z"/>
		</g>
		<g>
			<polygon fill="#00A79D" points="35,43.8 35.6,45.9 37.1,46.1 38.3,44.6 36.8,43.2 			"/>
			<path fill="#415572" d="M37.1,46.8C37,46.8,37,46.8,37.1,46.8l-1.6-0.1c-0.3,0-0.5-0.2-0.6-0.5l-0.5-2.1
				c-0.1-0.4,0.1-0.7,0.5-0.8l1.7-0.6c0.2-0.1,0.5,0,0.7,0.2l1.5,1.4c0.3,0.3,0.3,0.7,0.1,1l-1.2,1.4C37.5,46.7,37.3,46.8,37.1,46.8
				z M36.1,45.3l0.6,0.1l0.6-0.6L36.6,44l-0.7,0.2L36.1,45.3z"/>
		</g>
		<g>
			<path fill="#00A79D" d="M35.6,45.9c0,0-2.5,9.1,4.9,10.2l3-1.8l-1-2.7c-0.1-0.3-0.4-0.5-0.7-0.6c-1.3-0.1-4.3-0.8-4.7-5
				L35.6,45.9z"/>
			<path fill="#415572" d="M40.5,56.9c0,0-0.1,0-0.1,0c-2.1-0.3-3.7-1.3-4.7-2.8c-2.1-3.3-0.8-8.1-0.8-8.3c0.1-0.3,0.4-0.5,0.7-0.5
				l1.5,0.1c0.3,0,0.6,0.3,0.6,0.6c0.4,3.5,2.7,4.3,4.1,4.4c0.6,0.1,1.1,0.5,1.3,1l1,2.7c0.1,0.3,0,0.7-0.3,0.8l-3,1.8
				C40.7,56.8,40.6,56.9,40.5,56.9z M36.1,46.7c-0.3,1.3-0.7,4.4,0.7,6.6c0.7,1.1,1.9,1.9,3.5,2.2l2.3-1.3l-0.8-2.1
				c0-0.1-0.1-0.1-0.1-0.1c-1.1-0.1-4.5-0.8-5.3-5.1L36.1,46.7z"/>
		</g>
		<path fill="#415572" d="M25.1,39.6c-0.2,0-0.4-0.1-0.5-0.3c-0.2-0.2-4.9-6-10-19c-0.7-0.7-4-3.8-2.4-7.3c0.2-0.4,0.6-0.5,0.9-0.4
			c0.4,0.2,0.5,0.6,0.4,0.9c-1.3,2.8,2.1,5.7,2.1,5.7c0.1,0.1,0.2,0.2,0.2,0.3c5.1,12.9,9.8,18.8,9.9,18.8c0.2,0.3,0.2,0.7-0.1,1
			C25.4,39.5,25.2,39.6,25.1,39.6z"/>
		<path fill="#415572" d="M54.2,40.2c-0.2,0-0.4-0.1-0.5-0.2c-0.3-0.3-0.3-0.7,0-1c0,0,4.4-4.4,12.1-17.5c0.1-0.1,0.1-0.2,0.2-0.2
			c0,0,3.7-2.4,2.8-5.4c-0.1-0.4,0.1-0.8,0.5-0.9c0.4-0.1,0.8,0.1,0.9,0.5c1.2,3.7-2.4,6.4-3.2,6.9C59.1,35.5,54.8,39.8,54.6,40
			C54.5,40.1,54.3,40.2,54.2,40.2z"/>
		<g>
			<path fill="#FFFFFF" d="M29.5,22.7l-0.6,10.1c-0.4,5.8,4.1,10.8,9.9,11.1c5.8,0.4,10.8-4.1,11.1-9.9l0.6-10.1
				c0.4-5.8-4.1-10.8-9.9-11.1c-2-0.1-3.9,0.3-5.6,1.2"/>
			<path fill="#415572" d="M39.4,44.6c-0.2,0-0.5,0-0.7,0c-6.2-0.4-10.9-5.7-10.5-11.9l0.6-10.1c0-0.4,0.4-0.7,0.7-0.7
				c0.4,0,0.7,0.4,0.7,0.7l-0.6,10.1c-0.3,5.4,3.8,10.1,9.2,10.4c5.4,0.3,10.1-3.8,10.4-9.2l0.6-10.1c0.2-2.6-0.7-5.1-2.5-7.1
				c-1.7-2-4.1-3.1-6.7-3.3c-1.8-0.1-3.6,0.3-5.2,1.1c-0.3,0.2-0.8,0.1-1-0.3c-0.2-0.3-0.1-0.8,0.3-1c1.8-1,3.9-1.4,6-1.3
				c3,0.2,5.7,1.5,7.7,3.8c2,2.3,3,5.1,2.8,8.1l-0.6,10.1C50.2,40,45.3,44.6,39.4,44.6z"/>
		</g>
		<path fill="#415572" d="M39.1,24.1c-0.1,0-0.2,0-0.3,0c-3.8-0.2-5.2-1.4-5.7-2.2c-2.7,0.1-4.7-0.6-6-2c-1.5-1.6-1.4-3.4-1.4-3.5
			c0-0.2,0.1-0.4,0.3-0.6c0.2-0.1,0.4-0.1,0.6,0c3.3,1.4,7.2-2,7.3-2c0.3-0.3,0.7-0.2,1,0.1c0.3,0.3,0.2,0.7-0.1,1
			c-0.2,0.1-3.9,3.3-7.6,2.6c0.1,0.4,0.4,1,0.9,1.5c1.1,1.1,2.9,1.6,5.3,1.5c0.3,0,0.6,0.2,0.7,0.5l0,0c0,0,0.6,1.5,4.7,1.7
			c2.7,0.1,3.8-2.3,3.8-2.3c0.2-0.4,0.6-0.5,0.9-0.4c0.4,0.2,0.5,0.6,0.4,0.9C43.9,21.1,42.5,24.1,39.1,24.1z"/>
		<g>
			<g>
				<path fill="#415572" d="M38.8,40.6c-0.2,0-0.3,0-0.5,0c-3.6-0.2-6.5-2.9-6.6-6.2c0-0.2,0.1-0.3,0.2-0.5c0.1-0.1,0.3-0.2,0.5-0.2
					L45,34.6c0.2,0,0.3,0.1,0.4,0.2c0.1,0.1,0.2,0.3,0.1,0.5C45.2,38.3,42.2,40.6,38.8,40.6z M33.1,35.1c0.4,2.3,2.6,4.1,5.3,4.3
					c2.7,0.2,5.1-1.4,5.8-3.6L33.1,35.1z"/>
			</g>
		</g>
		<g>
			<path fill="#FFFFFF" d="M50.1,29.7c0,0,2-2.3,3.2-1.3c2,1.6-3.4,5.3-3.4,5.3L50.1,29.7z"/>
			<path fill="#415572" d="M49.9,34.3c-0.1,0-0.2,0-0.4-0.1c-0.2-0.1-0.4-0.4-0.4-0.7l0.2-4c0-0.2,0.1-0.3,0.2-0.4
				c0.3-0.3,2.5-2.7,4.1-1.4c0.5,0.4,0.7,0.9,0.7,1.5c-0.1,2-3.5,4.4-4.2,4.9C50.2,34.3,50,34.3,49.9,34.3z M50.8,30l-0.1,2.2
				c1.2-1,2.3-2.2,2.4-2.9c0-0.1,0-0.2-0.2-0.4C52.5,28.6,51.4,29.3,50.8,30z"/>
		</g>
	</g>
	<ellipse fill="#D1D3D4" cx="40.7" cy="111.7" rx="19.8" ry="2"/>
</g>
</svg>
