<?xml version="1.0" encoding="UTF-8" standalone="no"?>
<svg width="274px" height="200px" viewBox="0 0 274 200" version="1.1" xmlns="http://www.w3.org/2000/svg" xmlns:xlink="http://www.w3.org/1999/xlink" xmlns:sketch="http://www.bohemiancoding.com/sketch/ns">
    <!-- Generator: Sketch 3.4.4 (17249) - http://www.bohemiancoding.com/sketch -->
    <title>Page 1</title>
    <desc>Created with Sketch.</desc>
    <defs>
        <path id="path-1" d="M0,0.585714286 L273.510629,0.585714286 L273.510629,200 L0,200"></path>
        <path id="path-3" d="M0,0.585714286 L273.510629,0.585714286 L273.510629,200 L0,200"></path>
        <path id="path-5" d="M0,0.585714286 L273.510629,0.585714286 L273.510629,200 L0,200 L0,0.585714286 Z"></path>
    </defs>
    <g id="option2" stroke="none" stroke-width="1" fill="none" fill-rule="evenodd" sketch:type="MSPage">
        <g id="howitworks5" sketch:type="MSArtboardGroup" transform="translate(-116.000000, -360.000000)">
            <g id="Page-1" sketch:type="MSLayerGroup" transform="translate(116.000000, 360.000000)">
                <g id="Group-3">
                    <mask id="mask-2" sketch:name="Clip 2" fill="white">
                        <use xlink:href="#path-1"></use>
                    </mask>
                    <g id="Clip-2"></g>
                    <path d="M252.542988,90.7405952 C235.426962,84.5453571 255.16932,79.6632143 265.016569,72.3197619 C274.863818,64.9769048 229.860814,65.2816667 217.252626,65.0757143 C204.645036,64.8691667 283.642586,37.3364286 137.077115,42.2138095 C72.7870231,44.3536905 42.8713681,41.550119 32.2254511,41.550119 C21.5789358,41.550119 16.2203812,58.5203571 37.6216956,59.7911905 C39.7000275,59.915 41.5276913,60.0197619 43.211176,61.0745238 C41.3344555,64.3280952 33.1270188,64.9941667 29.5004074,65.9739286 C23.6632502,67.5513095 17.8254948,69.1286905 11.9877393,70.7066667 C8.08234192,71.7620238 4.10156463,73.0644048 1.62718908,76.5042857 C0.2236869,78.4554762 -0.42840917,81.0328571 0.302656332,83.3191667 C1.13243362,85.915 3.53382227,87.7036905 6.0046083,88.8763095 C16.2999489,93.7632143 26.7765603,86.717381 36.9289183,90.4572619 C38.3294293,90.9727381 39.7221629,91.8054762 40.3455428,93.1554762 C42.4525908,97.7179762 32.6998659,100.500119 29.874914,101.545952 C21.5041541,104.644167 11.4642677,105.297143 5.11440742,112.2775 C1.88084847,115.831667 0.233258952,121.682857 3.3926345,125.3025 C4.49521528,126.565595 6.03511921,127.374524 7.61630262,127.941786 C11.3769227,129.289405 15.4504293,129.398929 19.3994991,130.010833 C27.7559009,131.306071 32.5909838,135.292381 29.0301803,143.770357 C27.3305428,147.817381 24.3943157,151.34119 20.7114686,153.753095 C17.8960886,155.596548 -2.2153917,163.122738 8.83015852,166.720357 C10.6871367,167.325119 12.6888921,167.222738 14.6421891,167.19 C21.1996432,167.079286 27.7708572,167.828095 34.1332808,169.410238 C38.2301192,170.429286 42.7116345,172.296548 43.6760188,176.793571 C44.7008266,181.573333 38.8965734,187.389405 43.7490057,191.481667 C45.4354817,192.904286 172.461403,192.310238 233.79732,190.632857 C239.035626,190.489405 250.942661,188.125119 247.618167,180.0275 C246.385167,177.024524 242.850089,175.824524 239.764897,174.776905 C236.679106,173.729881 233.21163,171.972143 232.724652,168.764405 C232.463814,167.043571 233.17394,165.320357 234.070124,163.824524 C237.210953,158.582857 242.451652,155.306667 248.484438,154.6775 C250.897193,154.425714 256.661364,155.289405 257.908722,152.387619 C259.880565,147.797738 243.396294,142.112024 243.375355,135.579286 C243.352023,128.062619 261.733953,129.292381 270.268634,118.596548 C278.803316,107.900714 269.659613,96.9358333 252.542988,90.7405952" id="Fill-1" fill="#D9F6FF" sketch:type="MSShapeGroup" mask="url(#mask-2)"></path>
                </g>
                <path d="M137.491046,197.541131 C137.180553,197.541131 136.891597,197.344107 136.789893,197.033393 C136.66785,196.648274 136.88023,196.236964 137.264907,196.113155 L152.629247,191.195298 C153.016317,191.072679 153.42971,191.282798 153.555941,191.667917 C153.680378,192.05244 153.466203,192.464345 153.080928,192.588155 L137.717186,197.506012 C137.642404,197.529821 137.565828,197.541131 137.491046,197.541131" id="Fill-4" fill="#D1D3D4" sketch:type="MSShapeGroup"></path>
                <path d="M150.066928,199.545595 C149.756435,199.545595 149.467479,199.348571 149.365776,199.037857 C149.243732,198.652738 149.456112,198.241429 149.840789,198.117619 L165.203334,193.199762 C165.589806,193.075952 166.003797,193.286667 166.130029,193.672381 C166.252671,194.056905 166.040291,194.46881 165.655016,194.592619 L150.293068,199.510476 C150.218286,199.534286 150.14171,199.545595 150.066928,199.545595" id="Fill-6" fill="#D1D3D4" sketch:type="MSShapeGroup"></path>
                <path d="M170.023341,196.809464 C169.712848,196.809464 169.423892,196.61244 169.322189,196.301726 C169.200145,195.916607 169.412525,195.505298 169.797202,195.381488 L185.159748,190.463631 C185.546219,190.341012 185.96021,190.551131 186.086442,190.93625 C186.209084,191.320774 185.996704,191.732679 185.611429,191.856488 L170.249481,196.774345 C170.1747,196.798155 170.098123,196.809464 170.023341,196.809464" id="Fill-8" fill="#D1D3D4" sketch:type="MSShapeGroup"></path>
                <path d="M177.704495,200 C177.394001,200 177.105045,199.802976 177.003342,199.492262 C176.881298,199.107143 177.093678,198.695833 177.478355,198.572024 L182.869215,196.845833 C183.256285,196.72381 183.669678,196.933333 183.79591,197.318452 C183.920945,197.702381 183.707966,198.114881 183.321495,198.23869 L177.930634,199.964881 C177.855853,199.98869 177.779276,200 177.704495,200" id="Fill-10" fill="#D1D3D4" sketch:type="MSShapeGroup"></path>
                <path d="M187.46727,196.874226 C187.156777,196.874226 186.867821,196.677202 186.766117,196.366488 C186.644074,195.981369 186.856454,195.57006 187.241131,195.44625 L192.840781,193.653988 L193.292462,195.046845 L187.69341,196.839107 C187.618628,196.862917 187.542052,196.874226 187.46727,196.874226" id="Fill-12" fill="#D1D3D4" sketch:type="MSShapeGroup"></path>
                <path d="M138.722371,118.37125 C134.436485,118.37125 129.511066,117.103988 124.212336,113.443869 C122.506118,114.105179 117.190039,115.737321 113.999555,111.956964 C113.650773,111.544464 113.704616,110.928988 114.120402,110.583155 C114.53559,110.235536 115.154183,110.288512 115.500572,110.703393 C118.300397,114.019464 123.863555,111.479583 123.919192,111.452798 C124.237463,111.302202 124.616157,111.336726 124.905712,111.543274 C140.905397,122.958155 152.897384,111.054583 153.399319,110.542083 C153.782201,110.156964 154.399,110.150417 154.785472,110.524226 C155.172541,110.899226 155.182114,111.515893 154.804616,111.901607 C154.712485,111.995655 148.329721,118.37125 138.722371,118.37125" id="Fill-14" fill="#415572" sketch:type="MSShapeGroup"></path>
                <path d="M178.937435,194.590298 C178.937435,180.343869 177.765457,151.751012 176.320077,151.751012 C174.874099,151.751012 173.702121,180.343869 173.702121,194.590298" id="Fill-16" fill="#415572" sketch:type="MSShapeGroup"></path>
                <path d="M178.937794,195.56619 C178.395776,195.56619 177.957257,195.129881 177.957257,194.590595 C177.957257,182.310833 177.18551,163.970357 176.319838,156.095357 C175.454165,163.970357 174.682418,182.310833 174.682418,194.590595 C174.682418,195.129881 174.243899,195.56619 173.701881,195.56619 C173.160462,195.56619 172.721344,195.129881 172.721344,194.590595 C172.721344,187.212024 173.030043,176.436429 173.489501,167.77631 C174.391667,150.775714 175.199907,150.775714 176.319838,150.775714 C177.440366,150.775714 178.248606,150.775714 179.150174,167.77631 C179.610231,176.436429 179.918331,187.212024 179.918331,194.590595 C179.918331,195.129881 179.479811,195.56619 178.937794,195.56619" id="Fill-18" fill="#415572" sketch:type="MSShapeGroup"></path>
                <path d="M160.996238,194.590298 C160.996238,180.343869 159.82426,151.751012 158.37888,151.751012 C156.932902,151.751012 155.760924,180.343869 155.760924,194.590298" id="Fill-20" fill="#415572" sketch:type="MSShapeGroup"></path>
                <path d="M160.995939,195.56619 C160.453921,195.56619 160.015402,195.129881 160.015402,194.590595 C160.015402,182.310833 159.243655,163.970357 158.377983,156.095357 C157.51231,163.970357 156.740563,182.310833 156.740563,194.590595 C156.740563,195.129881 156.302044,195.56619 155.760026,195.56619 C155.218607,195.56619 154.779489,195.129881 154.779489,194.590595 C154.779489,187.212024 155.088188,176.436429 155.547646,167.77631 C156.449812,150.775714 157.258052,150.775714 158.377983,150.775714 C159.498511,150.775714 160.306751,150.775714 161.208319,167.77631 C161.668376,176.436429 161.976476,187.212024 161.976476,194.590595 C161.976476,195.129881 161.537956,195.56619 160.995939,195.56619" id="Fill-22" fill="#415572" sketch:type="MSShapeGroup"></path>
                <path d="M151.868209,83.4847619 L151.868209,97.4192857 C151.868209,105.40381 158.434637,111.937143 166.459607,111.937143 C174.485174,111.937143 181.051004,105.40381 181.051004,97.4192857 L181.051004,83.4847619 C181.051004,75.4996429 174.485174,68.9669048 166.459607,68.9669048 C163.671746,68.9669048 161.060371,69.755 158.838458,71.1186905" id="Fill-24" fill="#FFFFFF" sketch:type="MSShapeGroup"></path>
                <path d="M166.459547,112.912321 C157.874612,112.912321 150.888809,105.961726 150.888809,97.418869 L150.888809,83.4849405 C150.888809,82.9456548 151.327328,82.5093452 151.868748,82.5093452 C152.410765,82.5093452 152.849285,82.9456548 152.849285,83.4849405 L152.849285,97.418869 C152.849285,104.886131 158.954459,110.961131 166.459547,110.961131 C173.964634,110.961131 180.071603,104.886131 180.071603,97.418869 L180.071603,83.4849405 C180.071603,76.0176786 173.964634,69.9426786 166.459547,69.9426786 C163.948678,69.9426786 161.49225,70.636131 159.352896,71.9498214 C158.893438,72.2307738 158.288005,72.0908929 158.002638,71.631369 C157.719665,71.1724405 157.863245,70.57125 158.322704,70.2885119 C160.771953,68.786131 163.58494,67.9914881 166.459547,67.9914881 C175.046276,67.9914881 182.032678,74.9420833 182.032678,83.4849405 L182.032678,97.418869 C182.032678,105.961726 175.046276,112.912321 166.459547,112.912321" id="Fill-26" fill="#415572" sketch:type="MSShapeGroup"></path>
                <path d="M164.467902,84.6652976 C159.515561,84.6652976 157.544915,83.12125 156.801884,82.1730357 C153.092714,82.4266071 150.243234,81.6748214 148.350959,79.9569643 C146.135627,77.9480357 146.1105,75.35875 146.1105,75.2492262 C146.1105,74.9319643 146.265448,74.6343452 146.526286,74.4516071 C146.788321,74.268869 147.123343,74.223631 147.420675,74.3307738 C152.070299,75.9807738 157.26912,71.023631 157.321168,70.9742262 C157.711828,70.5998214 158.332216,70.6075595 158.707321,70.9914881 C159.086614,71.3772024 159.078836,71.993869 158.692365,72.3700595 C158.46802,72.5879167 153.636526,77.2474405 148.347369,76.5510119 C148.571116,77.1593452 148.97374,77.8908929 149.699421,78.5397024 C151.269836,79.9444643 153.795662,80.5051786 157.229037,80.1819643 C157.702255,80.1283929 158.092915,80.4069643 158.242478,80.8260119 C158.246068,80.8272024 159.284037,82.8283929 164.820273,82.711131 C168.539015,82.6533929 169.793552,79.3885119 169.845002,79.2492262 C170.031059,78.7444643 170.594015,78.4873214 171.101334,78.6682738 C171.606858,78.8522024 171.871286,79.406369 171.689417,79.9123214 C171.620618,80.1027976 169.9485,84.5825595 164.850784,84.6623214 C164.720963,84.6641071 164.592338,84.6652976 164.467902,84.6652976" id="Fill-28" fill="#415572" sketch:type="MSShapeGroup"></path>
                <path d="M158.803281,101.626845 C159.573233,104.12506 162.213923,105.956607 165.279971,105.956607 C168.346019,105.956607 170.986709,104.12506 171.756661,101.626845 L158.803281,101.626845 Z M165.279971,107.907798 C160.787089,107.907798 156.99177,104.757202 156.641193,100.736369 C156.61846,100.46375 156.709993,100.194107 156.896049,99.9923214 C157.081508,99.7899405 157.344141,99.6756548 157.618141,99.6756548 L172.9418,99.6756548 C173.2158,99.6756548 173.477835,99.7899405 173.663892,99.9923214 C173.849351,100.194107 173.941482,100.46375 173.918748,100.736369 C173.568172,104.757202 169.772255,107.907798 165.279971,107.907798 L165.279971,107.907798 Z" id="Fill-30" fill="#415572" sketch:type="MSShapeGroup"></path>
                <path d="M153.849026,104.893512 C156.312034,108.331607 160.861152,111.936964 166.459607,111.936964 C172.05148,111.936964 176.987069,108.322083 179.453069,104.893512 C194.004384,115.26375 189.075973,145.522083 187.131052,154.920893 C186.790048,156.568512 185.335694,157.739345 183.64503,157.739345 L150.31634,157.739345 C148.472524,157.739345 146.933816,156.353036 146.770493,154.525655 C145.84679,144.189345 143.845633,112.053036 153.849026,104.893512" id="Fill-32" fill="#A9DFF4" sketch:type="MSShapeGroup"></path>
                <path d="M153.680617,106.286429 C144.907831,114.265 146.903604,145.000714 147.74774,154.43881 C147.866792,155.76381 148.969373,156.763214 150.316041,156.763214 L183.644731,156.763214 C184.883714,156.763214 185.921683,155.925119 186.170556,154.724524 C187.992238,145.924524 192.802792,116.828095 179.637032,106.257857 C176.819858,109.687619 171.865722,112.912619 166.459307,112.912619 C160.963155,112.912619 156.380534,109.6275 153.680617,106.286429 M183.644731,158.714405 L150.316041,158.714405 C147.946958,158.714405 146.003233,156.95131 145.794443,154.611429 C144.652976,141.851905 143.096321,111.387024 153.276797,104.101905 C153.489176,103.950714 153.753604,103.89119 154.010255,103.931667 C154.266307,103.973333 154.496635,104.11619 154.647993,104.3275 C156.944089,107.534643 161.254504,110.961429 166.459307,110.961429 C171.588133,110.961429 176.279635,107.62869 178.656495,104.325714 C178.807853,104.115 179.03519,103.973333 179.29184,103.931667 C179.548491,103.89119 179.812919,103.949524 180.023504,104.100119 C195.086923,114.834643 190.006556,145.86381 188.089753,155.117976 C187.65901,157.201905 185.789469,158.714405 183.644731,158.714405" id="Fill-34" fill="#415572" sketch:type="MSShapeGroup"></path>
                <path d="M168.221642,116.724881 L164.560332,113.857024 C163.585777,113.093929 162.744633,112.771905 161.689314,113.420119 L159.284336,114.830833 C158.014843,115.61119 156.373834,115.321905 155.427996,114.17369 C154.084319,112.542143 152.563559,110.04869 152.979345,107.454048 C153.033786,107.114167 153.224031,106.804048 153.4741,106.565952 L154.442074,105.643929 C157.002,108.83619 161.268742,111.936786 166.459786,111.936786 C171.822528,111.936786 176.557703,108.612381 179.113441,105.315357 L179.453249,106.086786 C179.453249,106.086786 177.701563,114.770119 169.682576,117.032619 C169.181838,117.17369 168.630847,117.045119 168.221642,116.724881" id="Fill-36" fill="#FFFFFF" sketch:type="MSShapeGroup"></path>
                <path d="M154.36807,107.064762 L154.151503,107.270714 C154.040826,107.376071 153.964249,107.502262 153.948695,107.605833 C153.590341,109.841548 154.96752,112.074881 156.185564,113.555238 C156.830481,114.336786 157.91631,114.526071 158.768821,114.001071 L161.191149,112.579643 C161.474721,112.406429 161.746328,112.284405 162.012551,112.205238 C158.424228,111.041548 155.825415,108.68619 154.36807,107.064762 L154.36807,107.064762 Z M168.82845,115.958214 C169.000747,116.094524 169.222699,116.144524 169.416533,116.094524 C174.21931,114.738571 176.618904,110.810595 177.706529,108.243333 C174.954564,110.717143 170.965411,112.912381 166.459367,112.912381 C165.888634,112.912381 165.333455,112.879048 164.795625,112.815952 C164.923651,112.905833 165.048088,112.998095 165.16714,113.091548 L168.82845,115.958214 Z M169.265175,118.065357 C168.678887,118.065357 168.094992,117.867143 167.616389,117.492143 L167.613996,117.492143 L163.952686,114.624286 C163.060092,113.921905 162.704131,113.943333 162.20459,114.249881 L159.781664,115.67131 C158.131083,116.687976 155.921136,116.313571 154.668992,114.792143 C153.196092,113.001667 151.539529,110.249286 152.010952,107.301071 C152.092913,106.777857 152.372896,106.266548 152.794066,105.862381 L153.765031,104.938571 C153.964249,104.74869 154.235856,104.66 154.508062,104.669524 C154.783856,104.688571 155.038114,104.82131 155.208616,105.035595 C156.637245,106.817143 160.591699,110.96119 166.459367,110.96119 C171.652804,110.96119 176.105603,107.599286 178.338284,104.719524 C178.548869,104.446905 178.893463,104.307619 179.234468,104.3475 C179.577267,104.389762 179.874,104.60881 180.012197,104.924881 L180.350808,105.695714 C180.431572,105.878452 180.454306,106.082619 180.414223,106.279048 C180.337647,106.657024 178.445372,115.573095 169.950773,117.97131 C169.726428,118.03381 169.494904,118.065357 169.265175,118.065357 L169.265175,118.065357 Z" id="Fill-38" fill="#415572" sketch:type="MSShapeGroup"></path>
                <path d="M197.187869,150.209881 C196.877376,150.209881 196.57107,150.062262 196.379629,149.787857 C193.737144,145.973571 194.453253,141.556905 194.483764,141.370595 C197.260856,124.766429 188.334917,112.421786 188.244581,112.299762 C187.925114,111.864643 188.019039,111.254524 188.455166,110.935476 C188.890096,110.616429 189.506895,110.70869 189.826362,111.145 C190.215227,111.673571 199.329017,124.284286 196.417917,141.69381 C196.412533,141.733095 195.814878,145.533095 197.996109,148.680714 C198.302415,149.123571 198.189345,149.731905 197.744843,150.037262 C197.574939,150.153929 197.381105,150.209881 197.187869,150.209881" id="Fill-40" fill="#415572" sketch:type="MSShapeGroup"></path>
                <path d="M175.775487,193.434464 C175.775487,193.434464 171.277221,193.770179 169.737317,194.736845 C168.196814,195.702917 176.303146,194.902917 176.303146,194.902917" id="Fill-42" fill="#415572" sketch:type="MSShapeGroup"></path>
                <path d="M171.315987,196.200714 C168.931948,196.200714 168.782385,195.769167 168.61966,195.293571 C168.550861,195.098333 168.395315,194.423929 169.213127,193.911429 C170.912166,192.846548 175.216599,192.497738 175.703577,192.461429 C176.231834,192.421548 176.712232,192.823333 176.754708,193.360833 C176.769664,193.584643 176.710437,193.797143 176.593778,193.971548 C176.95931,194.084643 177.239293,194.404881 177.277581,194.806667 C177.330826,195.343571 176.938372,195.820357 176.398149,195.873929 C174.054193,196.105476 172.43831,196.200714 171.315987,196.200714" id="Fill-44" fill="#415572" sketch:type="MSShapeGroup"></path>
                <path d="M157.840213,192.980119 C157.840213,192.980119 153.341946,193.315833 151.802042,194.2825 C150.26154,195.248571 158.367872,194.448571 158.367872,194.448571" id="Fill-46" fill="#415572" sketch:type="MSShapeGroup"></path>
                <path d="M153.379935,195.74625 C150.997691,195.74744 150.848128,195.315893 150.685403,194.839107 C150.618398,194.64506 150.461656,193.970655 151.27887,193.456964 C152.976114,192.392083 157.280547,192.043274 157.767525,192.006964 C158.295783,191.973631 158.77618,192.368274 158.818656,192.906369 C158.833612,193.130179 158.774385,193.342679 158.657726,193.517083 C159.023259,193.629583 159.305036,193.950417 159.343324,194.352202 C159.397167,194.889107 159.004114,195.365893 158.466285,195.419464 C156.120534,195.651012 154.502259,195.74625 153.379935,195.74625" id="Fill-48" fill="#415572" sketch:type="MSShapeGroup"></path>
                <path d="M160.497953,114.119167 L161.55387,117.089405 L163.700403,117.089405 L165.279791,114.883452 L162.888573,113.080476 L160.497953,114.119167 Z" id="Fill-50" fill="#00A79D" sketch:type="MSShapeGroup"></path>
                <path d="M162.246468,116.114345 L163.194699,116.114345 L163.929952,115.089345 L162.753786,114.203036 L161.725389,114.65006 L162.246468,116.114345 Z M163.700223,118.065536 L161.553092,118.065536 C161.137904,118.065536 160.768184,117.804226 160.628193,117.41494 L159.572874,114.444107 C159.402372,113.961964 159.634494,113.430417 160.105319,113.225655 L162.495341,112.186369 C162.824979,112.044702 163.200083,112.089345 163.479468,112.30244 L165.871883,114.106012 C166.294848,114.424464 166.386979,115.019702 166.07828,115.449464 L164.498293,117.656012 C164.314629,117.913155 164.017896,118.065536 163.700223,118.065536 L163.700223,118.065536 Z" id="Fill-52" fill="#415572" sketch:type="MSShapeGroup"></path>
                <path d="M161.553631,117.089524 C161.553631,117.089524 159.196513,130.310952 169.971054,130.897262 L174.011657,127.965714 L171.9076,123.527024 C171.9076,123.527024 165.257417,124.555 163.700163,117.089524 L161.553631,117.089524 Z" id="Fill-54" fill="#00A79D" sketch:type="MSShapeGroup"></path>
                <path d="M162.41691,118.065417 C162.233246,119.893393 162.060949,124.418988 164.364224,127.304702 C165.584063,128.832679 167.37284,129.704107 169.682696,129.89994 L172.779255,127.652321 L171.304561,124.539821 C169.456556,124.554107 164.550281,124.043393 162.926024,118.065417 L162.41691,118.065417 Z M169.971652,131.87256 C169.954303,131.87256 169.935159,131.871964 169.91781,131.870774 C166.854155,131.704702 164.465928,130.574345 162.823124,128.511845 C159.347272,124.149345 160.5366,117.213036 160.58805,116.919583 C160.670609,116.453512 161.078019,116.114226 161.553032,116.114226 L163.700163,116.114226 C164.165604,116.114226 164.565836,116.439226 164.659163,116.891607 C166.004037,123.326131 171.5307,122.59756 171.76043,122.563036 C172.179805,122.494583 172.610548,122.721964 172.794211,123.110655 L174.898866,127.549345 C175.099879,127.97256 174.970059,128.478512 174.590766,128.753512 L170.550163,131.68506 C170.381456,131.807083 170.178648,131.87256 169.971652,131.87256 L169.971652,131.87256 Z" id="Fill-56" fill="#415572" sketch:type="MSShapeGroup"></path>
                <path d="M181.051243,91.4043452 C181.051243,91.4043452 183.620143,88.126369 185.329951,89.331131 C188.271562,91.4043452 181.051243,96.8918452 181.051243,96.8918452 L181.051243,91.4043452 Z" id="Fill-58" fill="#FFFFFF" sketch:type="MSShapeGroup"></path>
                <path d="M182.032438,91.7542262 L182.032438,94.7923214 C183.587299,93.366131 185.07336,91.6292262 185.054216,90.6185119 C185.050626,90.4441071 185.000971,90.2947024 184.763465,90.1280357 C184.21367,89.7381548 182.878967,90.7768452 182.032438,91.7542262 M181.051901,97.8673214 C180.904731,97.8673214 180.755168,97.8339881 180.616971,97.7667262 C180.281949,97.6018452 180.071364,97.26375 180.071364,96.8923214 L180.071364,91.4048214 C180.071364,91.1875595 180.144351,90.9756548 180.27836,90.8042262 C180.60022,90.3947024 183.489783,86.8375595 185.897155,88.5351786 C186.613264,89.0399405 186.999735,89.748869 187.01529,90.5833929 C187.064945,93.4042262 182.553517,96.978631 181.647762,97.6673214 C181.473072,97.8000595 181.262486,97.8673214 181.051901,97.8673214" id="Fill-60" fill="#415572" sketch:type="MSShapeGroup"></path>
                <path d="M124.334859,113.311548 C123.792841,113.311548 123.354321,112.875238 123.354321,112.335952 L123.354321,108.934167 C123.354321,108.394881 123.792841,107.958571 124.334859,107.958571 C124.876876,107.958571 125.315396,108.394881 125.315396,108.934167 L125.315396,112.335952 C125.315396,112.875238 124.876876,113.311548 124.334859,113.311548" id="Fill-62" fill="#415572" sketch:type="MSShapeGroup"></path>
                <path d="M212.324215,196.74375 C212.013722,196.74375 211.724766,196.546726 211.623062,196.236012 C211.501019,195.850893 211.713399,195.439583 212.098076,195.315774 L227.460621,190.397917 C227.847093,190.277083 228.261084,190.485417 228.387316,190.870536 C228.509958,191.25506 228.297578,191.666964 227.912303,191.790774 L212.550355,196.708631 C212.475573,196.73244 212.398997,196.74375 212.324215,196.74375" id="Fill-64" fill="#D1D3D4" sketch:type="MSShapeGroup"></path>
                <path d="M224.900097,198.748155 C224.589604,198.748155 224.300648,198.551131 224.198945,198.240417 C224.076901,197.855298 224.289281,197.443988 224.673958,197.320179 L240.036503,192.402321 C240.42118,192.280298 240.836966,192.489821 240.963198,192.87494 C241.08584,193.259464 240.87346,193.671369 240.488185,193.795179 L225.126237,198.713036 C225.051455,198.736845 224.974879,198.748155 224.900097,198.748155" id="Fill-66" fill="#D1D3D4" sketch:type="MSShapeGroup"></path>
                <path d="M244.854656,196.012083 C244.544162,196.012083 244.255206,195.81506 244.153503,195.504345 C244.031459,195.119226 244.243839,194.707917 244.628516,194.584107 L259.992857,189.66625 C260.377534,189.546012 260.79332,189.75375 260.919551,190.138869 C261.043988,190.523393 260.829813,190.935298 260.444538,191.059107 L245.080796,195.976964 C245.006014,196.000774 244.929438,196.012083 244.854656,196.012083" id="Fill-68" fill="#D1D3D4" sketch:type="MSShapeGroup"></path>
                <path d="M252.537664,199.202619 C252.22717,199.202619 251.938214,199.005595 251.836511,198.694881 C251.712074,198.310952 251.925052,197.898452 252.311524,197.774643 L257.702384,196.048452 C258.087659,195.929405 258.502847,196.134762 258.629079,196.521071 C258.751721,196.905595 258.539341,197.3175 258.154664,197.44131 L252.763803,199.1675 C252.689022,199.19131 252.612445,199.202619 252.537664,199.202619" id="Fill-70" fill="#D1D3D4" sketch:type="MSShapeGroup"></path>
                <path d="M262.300439,196.077798 C261.989946,196.077798 261.70099,195.880774 261.599286,195.57006 C261.47485,195.186131 261.687828,194.773631 262.0743,194.649821 L267.67395,192.856964 C268.06102,192.737917 268.476208,192.943274 268.600645,193.329583 C268.723286,193.714107 268.510907,194.126012 268.125631,194.249821 L262.526579,196.042679 C262.451797,196.066488 262.375221,196.077798 262.300439,196.077798" id="Fill-72" fill="#D1D3D4" sketch:type="MSShapeGroup"></path>
                <path d="M41.701783,192.953929 C41.3912895,192.953929 41.1023332,192.756905 41.0006301,192.44619 C40.8785865,192.061071 41.0909664,191.649762 41.4756432,191.525952 L56.8399838,186.608095 C57.2246607,186.487262 57.6404467,186.695595 57.7666782,187.080714 C57.8911148,187.465238 57.6769402,187.877143 57.2916651,188.000952 L41.9279227,192.91881 C41.853141,192.942619 41.7765646,192.953929 41.701783,192.953929" id="Fill-74" fill="#D1D3D4" sketch:type="MSShapeGroup"></path>
                <path d="M54.2777249,194.958393 C53.9672314,194.958393 53.6782751,194.761369 53.5765721,194.450655 C53.4545284,194.065536 53.6669083,193.654226 54.0515852,193.530417 L69.414131,188.61256 C69.7988079,188.48994 70.2145939,188.70006 70.3408253,189.085179 C70.4634672,189.469702 70.2510873,189.881607 69.8658122,190.005417 L54.5038646,194.923274 C54.429083,194.947083 54.3525066,194.958393 54.2777249,194.958393" id="Fill-76" fill="#D1D3D4" sketch:type="MSShapeGroup"></path>
                <path d="M74.2322236,192.222321 C73.9217301,192.222321 73.6327738,192.025298 73.5310707,191.714583 C73.4066341,191.329464 73.621407,190.918155 74.0060838,190.794345 L89.3704245,185.876488 C89.7551013,185.755655 90.1708873,185.963988 90.2971188,186.349107 C90.4197607,186.733631 90.2073808,187.145536 89.8221057,187.269345 L74.4583633,192.187202 C74.3835817,192.211012 74.3070052,192.222321 74.2322236,192.222321" id="Fill-78" fill="#D1D3D4" sketch:type="MSShapeGroup"></path>
                <path d="M81.9152913,195.412798 C81.6047978,195.412798 81.3158415,195.215774 81.2141384,194.90506 C81.0897017,194.521131 81.3026799,194.108631 81.6891515,193.984821 L87.0800118,192.258631 C87.4652869,192.138393 87.8804747,192.34494 88.0067061,192.73125 C88.129348,193.115774 87.9169681,193.527679 87.5322913,193.651488 L82.141431,195.377679 C82.0666493,195.401488 81.9900729,195.412798 81.9152913,195.412798" id="Fill-80" fill="#D1D3D4" sketch:type="MSShapeGroup"></path>
                <path d="M91.6780668,192.287083 C91.3675734,192.287083 91.078617,192.09006 90.976914,191.779345 C90.8548703,191.394226 91.0672502,190.982917 91.4519271,190.859107 L97.0515777,189.066845 L97.503259,190.459702 L91.9042066,192.251964 C91.8294249,192.275774 91.7528485,192.287083 91.6780668,192.287083" id="Fill-82" fill="#D1D3D4" sketch:type="MSShapeGroup"></path>
                <path d="M68.9704066,112.800536 C80.6794197,112.800536 81.2310092,103.339226 81.2310092,103.339226 C78.6184371,106.155298 74.0938476,107.188631 68.9704066,107.188631 C63.7841489,107.188631 59.2116991,106.130893 56.6146817,103.23625 C56.2593192,102.840417 55.7011489,102.658274 55.2069917,102.857679 C55.2069917,102.857679 58.6194284,112.800536 68.9704066,112.800536" id="Fill-84" fill="#FFFFFF" sketch:type="MSShapeGroup"></path>
                <path d="M57.5735022,105.379464 C59.3239913,108.112798 62.8321485,111.825298 68.9696288,111.825298 C75.8752664,111.825298 78.5602271,108.388988 79.5999913,105.871726 C77.0149389,107.395536 73.4547336,108.163988 68.9696288,108.163988 C64.0232707,108.163988 60.2028253,107.228869 57.5735022,105.379464 M68.9696288,113.776488 C58.0443275,113.776488 54.3142183,103.278869 54.2777249,103.172917 C54.1114105,102.683631 54.3560961,102.147917 54.8388865,101.953869 C55.6890044,101.614583 56.6982576,101.865179 57.3473624,102.588393 C59.5058603,104.99256 63.4160437,106.212798 68.9696288,106.212798 C74.4508253,106.212798 78.3340873,105.024107 80.5117293,102.677679 C80.7929083,102.374702 81.2392052,102.28125 81.6149083,102.44256 C81.9959956,102.603274 82.2352969,102.985417 82.2101703,103.396131 C82.2041878,103.499702 81.4611572,113.776488 68.9696288,113.776488" id="Fill-86" fill="#415572" sketch:type="MSShapeGroup"></path>
                <path d="M57.1004035,189.960952 C57.1004035,175.738333 58.2705869,147.193095 59.7135738,147.193095 C61.157159,147.193095 62.3267441,175.738333 62.3267441,189.960952" id="Fill-88" fill="#FFFFFF" sketch:type="MSShapeGroup"></path>
                <path d="M62.3265646,190.93619 C61.7845472,190.93619 61.3460275,190.499881 61.3460275,189.960595 C61.3460275,177.71119 60.5760755,159.417738 59.7145908,151.54631 C58.8507131,159.417738 58.0807611,177.71 58.0807611,189.960595 C58.0807611,190.499881 57.6422415,190.93619 57.100224,190.93619 C56.5588048,190.93619 56.1202852,190.499881 56.1202852,189.960595 C56.1202852,182.593333 56.4283856,171.835595 56.8860493,163.192143 C57.7882153,146.217143 58.5958572,146.217143 59.7145908,146.217143 C60.8327262,146.217143 61.6409664,146.217143 62.5413376,163.192143 C62.9990013,171.837976 63.3071017,182.595714 63.3071017,189.960595 C63.3071017,190.499881 62.8685821,190.93619 62.3265646,190.93619" id="Fill-90" fill="#415572" sketch:type="MSShapeGroup"></path>
                <path d="M75.0118074,189.695238 C75.0118074,175.472619 76.1819908,147.192857 77.6249777,147.192857 C79.0685629,147.192857 80.238148,175.472619 80.238148,189.695238" id="Fill-92" fill="#FFFFFF" sketch:type="MSShapeGroup"></path>
                <path d="M80.2377293,190.670357 C79.6957118,190.670357 79.2571921,190.234048 79.2571921,189.694762 C79.2571921,177.2025 78.4968122,159.128095 77.6257555,151.420952 C76.7541004,159.128095 75.9919258,177.2025 75.9919258,189.694762 C75.9919258,190.234048 75.5534061,190.670357 75.0113886,190.670357 C74.4699694,190.670357 74.0314498,190.234048 74.0314498,189.694762 C74.0314498,182.342976 74.3395502,171.63881 74.797214,163.058452 C75.6993799,146.217381 76.5070218,146.217381 77.6257555,146.217381 C78.7438908,146.217381 79.552131,146.217381 80.4525022,163.058452 C80.9101659,171.640595 81.2182664,182.344762 81.2182664,189.694762 C81.2182664,190.234048 80.7797467,190.670357 80.2377293,190.670357" id="Fill-94" fill="#415572" sketch:type="MSShapeGroup"></path>
                <path d="M82.1470546,100.413333 C79.6882336,103.846071 75.1462948,107.444881 69.5574127,107.444881 C63.9751114,107.444881 59.0478974,103.836548 56.5860852,100.413333 L56.5854869,100.413333 C39.2983603,112.734167 49.5506266,153.171071 49.5506266,153.171071 L88.8935568,153.171071 C88.8935568,153.171071 94.090583,108.961548 82.1470546,100.413333" id="Fill-96" fill="#F06E46" sketch:type="MSShapeGroup"></path>
                <path d="M50.3270397,152.195298 L88.0128083,152.195298 C88.6331969,146.171488 91.8577821,110.48994 82.3156424,101.806012 C79.6193148,105.141131 75.0444721,108.420298 69.5578913,108.420298 C64.1592537,108.420298 59.2146904,105.20125 56.4017035,101.77744 C42.0998607,113.265536 49.0880572,146.78875 50.3270397,152.195298 M88.8934371,154.146488 L49.5517035,154.146488 C49.1012188,154.146488 48.7105594,153.842321 48.6016773,153.408988 C48.1745245,151.732202 38.3871009,112.183393 56.0146336,99.6202976 C56.2252188,99.4691071 56.4896467,99.4107738 56.7462974,99.4506548 C57.002948,99.4929167 57.2308825,99.6345833 57.3822406,99.8452976 C59.7549131,103.142321 64.438638,106.469107 69.5578913,106.469107 C74.7531227,106.469107 79.0539655,103.048274 81.3482668,99.8470833 C81.4996249,99.6357738 81.7293541,99.4929167 81.9860048,99.4506548 C82.2468432,99.4072024 82.5070834,99.4708929 82.7194633,99.6214881 C94.9908345,108.404226 90.0827646,151.456012 89.86859,153.283988 C89.8087646,153.775655 89.3917821,154.146488 88.8934371,154.146488" id="Fill-98" fill="#415572" sketch:type="MSShapeGroup"></path>
                <path d="M55.8398838,101.079821 C55.8398838,101.079821 53.0490323,103.190536 51.5629712,106.428036 C51.5629712,106.428036 59.8930498,113.954821 62.6545869,114.544702 C65.2575869,115.10125 66.9745738,111.43994 69.9221677,111.956607 C72.8428402,112.468512 72.6035389,119.073274 72.6035389,119.073274 L75.7174472,119.073274 C75.7174472,119.073274 74.8918576,113.956607 76.0363162,112.468512 C77.1897485,110.969702 79.652159,112.320298 80.3993773,113.829821 C80.3993773,113.829821 84.357421,108.183393 84.8282463,104.731012 C85.2984734,101.278036 82.0547441,100.413155 82.0547441,100.413155 C82.0547441,100.413155 77.7054428,107.733393 72.2840716,108.030417 C63.580683,108.507202 61.8906175,107.10006 55.8398838,101.079821" id="Fill-100" fill="#FFFFFF" sketch:type="MSShapeGroup"></path>
                <path d="M73.583059,118.097798 L74.5959017,118.097798 C74.3966834,116.329345 74.2267795,113.21625 75.2569716,111.875774 C75.8372773,111.122202 76.698762,110.75256 77.6924607,110.855536 C78.6077882,110.944821 79.5865306,111.447202 80.3355437,112.15375 C81.4710284,110.382917 83.5427795,106.898988 83.8568624,104.598988 C84.0925742,102.874583 83.132976,102.01625 82.4378057,101.62756 C81.1318188,103.570417 77.2102686,108.737679 72.3380939,109.004345 C63.6269279,109.480536 61.4684301,108.022202 55.7904083,102.407917 C55.0186616,103.113869 53.7126747,104.457321 52.7728188,106.198988 C55.9896266,109.05494 61.1393908,113.222798 62.8611638,113.591845 C63.7035044,113.775179 64.5536223,113.19125 65.5287751,112.513869 C66.7139148,111.687083 68.1939934,110.656131 70.0922511,110.996607 C73.0452293,111.513869 73.5238319,115.995417 73.583059,118.097798 M75.7164301,120.048988 L72.6025218,120.048988 C72.3362991,120.048988 72.0814432,119.94125 71.8977795,119.750774 C71.712321,119.560298 71.6124127,119.303155 71.6219847,119.038869 C71.7045437,116.71625 71.1661157,113.16506 69.7512467,112.916845 C68.6540502,112.731131 67.7213734,113.36744 66.652893,114.112679 C65.4749323,114.932321 64.1360415,115.860893 62.4489672,115.498988 C59.5133384,114.871012 51.7767271,107.939464 50.9056703,107.150774 C50.5891943,106.865655 50.4958668,106.409107 50.6717533,106.023393 C52.2403734,102.60256 55.1239541,100.396012 55.2465961,100.30375 C55.6354607,100.008512 56.1870502,100.043631 56.5334389,100.39006 C62.5638319,106.393036 63.9619498,107.50494 72.2310066,107.057321 C77.0607052,106.79244 81.170107,99.9847024 81.2107882,99.9156548 C81.4345349,99.5394643 81.8808319,99.3549405 82.3097795,99.4710119 C83.7192642,99.8472024 86.2642336,101.457321 85.7987926,104.862083 C85.3028406,108.506131 81.3693253,114.149583 81.2030109,114.388274 C81.0037926,114.672202 80.664583,114.831726 80.3241769,114.80256 C79.9789847,114.776964 79.672679,114.569821 79.5195262,114.260298 C79.167155,113.551369 78.2249061,112.868631 77.5010197,112.797202 C77.102583,112.75256 76.9249017,112.919226 76.8154214,113.060893 C76.2680197,113.774583 76.3194694,116.657321 76.6856004,118.919226 C76.7292729,119.200774 76.649107,119.488869 76.4630502,119.706131 C76.2757969,119.923988 76.0035917,120.048988 75.7164301,120.048988" id="Fill-102" fill="#415572" sketch:type="MSShapeGroup"></path>
                <path d="M68.7501297,108.105893 C68.7501297,108.105893 71.0007585,110.383869 71.9615533,114.17256" id="Fill-104" fill="#FFFFFF" sketch:type="MSShapeGroup"></path>
                <path d="M71.9610148,115.147321 C71.5224952,115.147321 71.1222638,114.852679 71.0109886,114.411012 C70.1243773,110.919345 68.0717703,108.811012 68.0508314,108.790179 C67.6715389,108.40506 67.6751284,107.787798 68.0621983,107.410417 C68.4486699,107.034226 69.0690585,107.036012 69.4483511,107.421726 C69.5482594,107.522917 71.8976,109.934226 72.911041,113.93244 C73.0450498,114.455655 72.726779,114.985417 72.2003162,115.11756 C72.1201502,115.137798 72.039386,115.147321 71.9610148,115.147321" id="Fill-106" fill="#415572" sketch:type="MSShapeGroup"></path>
                <path d="M75.5007,117.170893 C75.5007,117.170893 74.9987655,110.890536 77.189569,105.948274" id="Fill-108" fill="#FFFFFF" sketch:type="MSShapeGroup"></path>
                <path d="M75.4980677,118.146369 C74.9925437,118.146369 74.5635961,117.758869 74.5235131,117.248155 C74.5001812,116.981488 74.0275611,110.664226 76.292548,105.554702 C76.5109105,105.06125 77.0858319,104.839226 77.5853734,105.055298 C78.0795306,105.27256 78.3056703,105.849345 78.0855131,106.341607 C76.0191463,111.005298 76.4726223,117.033869 76.47681,117.093393 C76.5204825,117.630893 76.1166616,118.100536 75.5782336,118.143393 C75.5519105,118.145179 75.5249891,118.146369 75.4980677,118.146369" id="Fill-110" fill="#415572" sketch:type="MSShapeGroup"></path>
                <path d="M90.0196489,103.752321 C89.8892297,103.752321 89.7570157,103.726726 89.6307843,103.67256 C89.1348323,103.458869 88.9051031,102.884464 89.119876,102.389821 C89.1982472,102.21006 96.8618716,84.1975595 90.4791074,69.7070833 C90.3780026,69.4749405 90.3702253,69.208869 90.4599633,68.9719643 C90.4737231,68.9356548 91.7988541,65.3279167 90.27271,61.8267262 C90.0579371,61.3320833 90.2858716,60.7576786 90.7818236,60.5433929 C91.2855528,60.3291071 91.8562865,60.5564881 92.0722559,61.051131 C93.6181424,64.6017262 92.781186,68.113631 92.4246271,69.2707738 C98.8881555,84.4755357 91.2508541,102.402321 90.9194218,103.163631 C90.75909,103.532083 90.3989415,103.752321 90.0196489,103.752321" id="Fill-112" fill="#415572" sketch:type="MSShapeGroup"></path>
                <path d="M45.694645,103.752321 C45.3153524,103.752321 44.9552039,103.532083 44.7948721,103.163631 C44.4634397,102.402321 36.8165664,84.4541071 43.3010336,69.2433929 C42.9139638,67.7267262 41.7629245,61.9505357 46.2306799,60.51125 C46.7535533,60.3439881 47.2991603,60.6273214 47.4660729,61.1380357 C47.6323873,61.6505357 47.3512083,62.201131 46.8361122,62.3666071 C43.6151166,63.4052976 45.2579201,68.9773214 45.2752694,69.033869 C45.3422738,69.2558929 45.3291122,69.4945833 45.2351865,69.7070833 C38.8524223,84.1975595 46.5160467,102.21006 46.5944179,102.389821 C46.8091908,102.884464 46.5794616,103.458869 46.0835096,103.67256 C45.9572782,103.726726 45.8250642,103.752321 45.694645,103.752321" id="Fill-114" fill="#415572" sketch:type="MSShapeGroup"></path>
                <path d="M60.2570869,188.807024 C60.2570869,188.807024 64.747576,189.142143 66.2856852,190.107024 C67.8231961,191.071905 57.1001044,190.273095 57.1001044,190.273095" id="Fill-116" fill="#FFFFFF" sketch:type="MSShapeGroup"></path>
                <path d="M63.7685345,191.57256 C62.2729013,191.57256 60.1263686,191.476131 57.0274166,191.245774 C56.4877921,191.205893 56.0815782,190.738036 56.1216611,190.200536 C56.1641371,189.663631 56.6295782,189.26125 57.1733904,189.300536 C57.9373598,189.357679 58.7342332,189.408869 59.5209362,189.452917 C59.3522288,189.26244 59.2589013,189.007083 59.2780454,188.733274 C59.3199231,188.196369 59.7835694,187.793988 60.3291764,187.834464 C60.8137616,187.870179 65.1128096,188.218393 66.8076611,189.282083 C67.4148882,189.66244 67.4932594,190.216012 67.3628402,190.607679 C67.194731,191.113631 67.0433729,191.57256 63.7685345,191.57256" id="Fill-118" fill="#415572" sketch:type="MSShapeGroup"></path>
                <path d="M78.1625083,188.353393 C78.1625083,188.353393 82.6529974,188.688512 84.1911066,189.653393 C85.7286175,190.618274 75.0115083,189.819464 75.0115083,189.819464" id="Fill-120" fill="#FFFFFF" sketch:type="MSShapeGroup"></path>
                <path d="M81.6740157,191.119107 C80.1801773,191.119107 78.0336445,191.022679 74.9388803,190.792321 C74.3986576,190.75244 73.9930419,190.284583 74.0331249,189.747083 C74.0750026,189.208988 74.5464262,188.792917 75.0842559,188.847083 C75.8464306,188.903036 76.6415092,188.955417 77.4264175,188.999464 C77.25771,188.808988 77.1643825,188.553631 77.1835266,188.279821 C77.2254044,187.741726 77.7004175,187.346488 78.2346576,187.381012 C78.7192428,187.416726 83.0182908,187.76494 84.7131424,188.828036 C85.3203694,189.208988 85.3987406,189.76256 85.2683214,190.153036 C85.1002122,190.660179 84.9488541,191.119107 81.6740157,191.119107" id="Fill-122" fill="#415572" sketch:type="MSShapeGroup"></path>
                <path d="M86.9336192,149.666369 L52.4365406,150.03244 C51.9543485,150.037202 51.5589031,149.652083 51.554117,149.172321 C51.5487328,148.69256 51.9358026,148.299107 52.4179948,148.294345 C52.4227808,148.29375 52.4317546,148.294345 52.4365406,148.294345 L86.9336192,148.659821 C87.2130035,148.662798 87.4367502,148.890774 87.433759,149.16875 C87.4307677,149.44256 87.2076192,149.663393 86.9336192,149.666369" id="Fill-124" fill="#415572" sketch:type="MSShapeGroup"></path>
                <path d="M46.5326782,66.2191667 L94.0112546,64.5013095 C94.0112546,64.5013095 94.0112546,34.5947619 86.9333201,13.6203571 C86.9333201,13.6203571 55.8426956,15.750119 38.423355,17.7661905 C38.423355,17.7661905 46.5326782,50.4471429 46.5326782,66.2191667" id="Fill-126" fill="#FFFFFF" sketch:type="MSShapeGroup"></path>
                <path d="M39.6393048,18.6100595 C41.0260559,24.3439881 47.2191738,50.6773214 47.5045406,65.2076786 L93.022641,63.5606548 C92.9478594,58.3957738 92.2700384,33.1023214 86.2432349,14.6469643 C81.4787459,14.9802976 55.4631039,16.8314881 39.6393048,18.6100595 M46.5335755,67.1951786 C46.2805144,67.1951786 46.0352306,67.0969643 45.8533616,66.921369 C45.6619205,66.7374405 45.5530384,66.4844643 45.5530384,66.2195833 C45.5530384,50.7481548 37.5519991,18.326131 37.4712349,18.0005357 C37.4042306,17.7291071 37.4580734,17.4410119 37.6172087,17.2106548 C37.7781389,16.9808929 38.0306017,16.8302976 38.3105843,16.7981548 C55.5528419,14.801131 86.5555231,12.6689881 86.8672131,12.6469643 C87.3673528,12.6416071 87.7233135,12.8910119 87.8633048,13.3100595 C94.9107284,34.1939881 94.9926891,64.1999405 94.9926891,64.5005357 C94.9926891,65.0255357 94.5757066,65.4564881 94.0486454,65.4755357 L46.5694707,67.1939881 C46.5563092,67.1951786 46.5449424,67.1951786 46.5335755,67.1951786" id="Fill-128" fill="#415572" sketch:type="MSShapeGroup"></path>
                <path d="M99.1126201,9.93422619 L93.8802969,11.4806548" id="Fill-130" fill="#EDEBF4" sketch:type="MSShapeGroup"></path>
                <path d="M93.8802969,12.4566667 C93.4573319,12.4566667 93.0666725,12.1834524 92.9398428,11.7590476 C92.78669,11.2429762 93.0816288,10.700119 93.6009127,10.5453571 L98.8326376,8.99833333 C99.3573057,8.84952381 99.8975284,9.13940476 100.052476,9.65607143 C100.205629,10.1721429 99.91069,10.715 99.3920044,10.8697619 L94.1596812,12.4167857 C94.0663537,12.4435714 93.9724279,12.4566667 93.8802969,12.4566667" id="Fill-132" fill="#415572" sketch:type="MSShapeGroup"></path>
                <path d="M91.8267328,1.56 L89.7890821,6.18797619" id="Fill-134" fill="#EDEBF4" sketch:type="MSShapeGroup"></path>
                <g id="Group-138">
                    <mask id="mask-4" sketch:name="Clip 137" fill="white">
                        <use xlink:href="#path-3"></use>
                    </mask>
                    <g id="Clip-137"></g>
                    <path d="M89.7879454,7.1635119 C89.6557314,7.1635119 89.5217227,7.13672619 89.3936965,7.08136905 C88.8977445,6.86529762 88.6733996,6.28970238 88.8899672,5.79625 L90.9294127,1.16827381 C91.1477751,0.673630952 91.7298755,0.453988095 92.2216397,0.666488095 C92.71819,0.882559524 92.9419367,1.45815476 92.725369,1.95160714 L90.6859236,6.57958333 C90.5249934,6.94505952 90.1654432,7.1635119 89.7879454,7.1635119" id="Fill-136" fill="#415572" sketch:type="MSShapeGroup" mask="url(#mask-4)"></path>
                </g>
                <path d="M80.3067677,1.71702381 L82.4915886,5.87952381" id="Fill-139" fill="#EDEBF4" sketch:type="MSShapeGroup"></path>
                <path d="M82.4917083,6.85488095 C82.1393371,6.85488095 81.7983328,6.66440476 81.6224463,6.33107143 L79.4370271,2.16857143 C79.186359,1.69119048 79.3724157,1.10190476 79.8528131,0.851904762 C80.3332105,0.6025 80.9230882,0.78702381 81.1761493,1.26559524 L83.3609703,5.4275 C83.6122367,5.90488095 83.4261799,6.4947619 82.9457825,6.74416667 C82.7998087,6.8197619 82.6448611,6.85488095 82.4917083,6.85488095" id="Fill-141" fill="#415572" sketch:type="MSShapeGroup"></path>
                <path d="M79.0023961,69.5757738 C82.238348,72.2501786 84.3077061,76.2799405 84.3077061,80.7668452 L84.3077061,96.6531548 C84.3077061,104.65494 77.7275183,109.170417 69.6851996,109.170417 C61.6428808,109.170417 55.062693,104.65494 55.062693,96.6531548 L55.062693,80.7668452 C55.062693,72.8216071 61.5507498,66.3102976 69.5152956,66.2192262" id="Fill-143" fill="#FFFFFF" sketch:type="MSShapeGroup"></path>
                <path d="M69.6859773,110.145774 C60.4997983,110.145774 54.0823354,104.59756 54.0823354,96.6529167 L54.0823354,80.7672024 C54.0823354,72.3052976 61.0011345,65.3422024 69.5041083,65.2439881 C70.0957808,65.2600595 70.4900297,65.6695833 70.4960122,66.2082738 C70.5019948,66.7469643 70.0688594,67.1880357 69.5268419,67.1951786 C62.0929467,67.2808929 56.0434096,73.3683929 56.0434096,80.7672024 L56.0434096,96.6529167 C56.0434096,104.626131 62.8952044,108.194583 69.6859773,108.194583 C76.4749555,108.194583 83.3267502,104.626131 83.3267502,96.6529167 L83.3267502,80.7672024 C83.3267502,76.7314881 81.5224183,72.926131 78.3762044,70.3267262 C77.9586236,69.9814881 77.9011913,69.3672024 78.2481782,68.9529167 C78.5945668,68.53625 79.2131607,68.4832738 79.6289467,68.8249405 C83.2250472,71.796369 85.2878245,76.1493452 85.2878245,80.7672024 L85.2878245,96.6529167 C85.2878245,104.59756 78.8721563,110.145774 69.6859773,110.145774" id="Fill-145" fill="#415572" sketch:type="MSShapeGroup"></path>
                <path d="M62.5547384,97.1132143 C62.8604459,100.61619 66.1484459,103.384048 70.2040048,103.384048 C74.2589655,103.384048 77.5469655,100.61619 77.8526729,97.1132143 L62.5547384,97.1132143 Z" id="Fill-147" fill="#FFFFFF" sketch:type="MSShapeGroup"></path>
                <path d="M63.7398183,98.0885714 C64.5097703,100.582024 67.1444777,102.40881 70.2027485,102.40881 C73.2610192,102.40881 75.8981197,100.582024 76.6680716,98.0885714 L63.7398183,98.0885714 Z M70.2027485,104.36 C65.7182419,104.36 61.9283074,101.214167 61.577731,97.1980952 C61.5526044,96.9254762 61.6465301,96.6558333 61.8325869,96.4540476 C62.0180454,96.2516667 62.2788838,96.137381 62.5546786,96.137381 L77.8532114,96.137381 C78.1290061,96.137381 78.3898445,96.2516667 78.5753031,96.4540476 C78.7613598,96.6558333 78.8552856,96.9254762 78.830159,97.1980952 C78.4795825,101.214167 74.689648,104.36 70.2027485,104.36 L70.2027485,104.36 Z" id="Fill-149" fill="#415572" sketch:type="MSShapeGroup"></path>
                <path d="M55.0628127,88.7152976 C55.0628127,88.7152976 52.2067515,84.4206548 50.2516598,86.1164881 C47.7623279,88.2760119 51.9746293,92.0295833 55.0628127,92.7402976 L55.0628127,88.7152976 Z" id="Fill-151" fill="#FFFFFF" sketch:type="MSShapeGroup"></path>
                <path d="M51.2768865,86.6954762 C51.1351004,86.6954762 51.0202358,86.7442857 50.8957991,86.8514286 C50.5165066,87.1811905 50.4058297,87.5216667 50.5224891,87.990119 C50.8156332,89.1591667 52.4069869,90.6091667 54.0820961,91.3734524 L54.0820961,89.0192857 C53.385131,88.0520238 52.1904192,86.8115476 51.372607,86.7020238 C51.3403013,86.6972619 51.3073974,86.6954762 51.2768865,86.6954762 M55.0626332,93.7157143 C54.9902445,93.7157143 54.9154629,93.707381 54.842476,93.6913095 C52.3782707,93.1240476 49.2165022,90.8377381 48.6206419,88.4639286 C48.3239083,87.2853571 48.6744847,86.1907143 49.6089563,85.3805952 C50.1850742,84.8794048 50.8957991,84.6692857 51.6370349,84.7692857 C53.7494672,85.0538095 55.6680655,87.8579762 55.8804454,88.1770238 C55.985738,88.3371429 56.0431703,88.5234524 56.0431703,88.715119 L56.0431703,92.740119 C56.0431703,93.0377381 55.9073668,93.3186905 55.674048,93.5044048 C55.4975633,93.6425 55.2833886,93.7157143 55.0626332,93.7157143" id="Fill-153" fill="#415572" sketch:type="MSShapeGroup"></path>
                <path d="M80.1266336,62.7892857 C78.0213803,64.7607143 74.0651314,66.1166667 69.4896904,66.2125" id="Fill-155" fill="#FFFFFF" sketch:type="MSShapeGroup"></path>
                <path d="M69.4906476,67.1883333 C68.9582022,67.1883333 68.5214773,66.765119 68.5101105,66.2335714 C68.4987437,65.6942857 68.9276913,65.2484524 69.4697087,65.2371429 C73.6425253,65.1496429 77.468355,63.9395238 79.4545559,62.0788095 C79.8488048,61.7085714 80.4691934,61.7264286 80.8407087,62.119881 C81.212224,62.5127381 81.1930799,63.13 80.798831,63.4984524 C78.4393201,65.7097619 74.2186432,67.0895238 69.5115865,67.1883333 L69.4906476,67.1883333 Z" id="Fill-157" fill="#415572" sketch:type="MSShapeGroup"></path>
                <path d="M86.9336192,65.725119 C84.8283659,67.6965476 80.872117,69.0525 76.296676,69.1483333" id="Fill-159" fill="#FFFFFF" sketch:type="MSShapeGroup"></path>
                <path d="M76.2966162,70.1244643 C75.7641707,70.1244643 75.3274459,69.70125 75.316079,69.1697024 C75.3047122,68.6304167 75.7336598,68.1845833 76.2756773,68.1732738 C80.4484939,68.0857738 84.2743236,66.8756548 86.2623192,65.0143452 C86.6547734,64.6464881 87.275162,64.66375 87.6490703,65.0560119 C88.0205856,65.448869 88.0014415,66.066131 87.6065943,66.4357738 C85.2452886,68.6458929 81.0246118,70.0256548 76.317555,70.1244643 L76.2966162,70.1244643 Z" id="Fill-161" fill="#415572" sketch:type="MSShapeGroup"></path>
                <path d="M67.8635782,48.0771429 L66.0383074,38.6229762 L62.6934734,39.184881 L64.3811459,48.6045238 L67.8635782,48.0771429 Z" id="Fill-163" fill="#F06E46" sketch:type="MSShapeGroup"></path>
                <path d="M63.5483175,39.7834524 L64.978741,47.7733333 L66.9972476,47.4685714 L65.4519594,39.4632143 L63.5483175,39.7834524 Z M64.381086,49.3358333 C64.0311079,49.3358333 63.7206144,49.0864286 63.6571996,48.7328571 L61.9701253,39.3138095 C61.9360249,39.1215476 61.9796974,38.9233333 62.0927672,38.7638095 C62.2058371,38.6042857 62.3781341,38.4965476 62.5713699,38.4638095 L65.9150074,37.9019048 C66.3212214,37.8257143 66.6849594,38.0941667 66.759741,38.4852381 L68.5850118,47.9394048 C68.6233,48.1346429 68.5790293,48.337619 68.4641646,48.4995238 C68.3475052,48.662619 68.1710205,48.7709524 67.9741952,48.8007143 L64.4923611,49.3275 C64.4540729,49.3328571 64.4175795,49.3358333 64.381086,49.3358333 L64.381086,49.3358333 Z" id="Fill-165" fill="#415572" sketch:type="MSShapeGroup"></path>
                <path d="M68.0160729,48.02125 L67.8784747,46.5635119 C67.8784747,46.5635119 72.638776,46.1218452 74.9330773,45.9379167 C76.0895009,45.84625 76.6051952,45.6164881 76.8325314,45.4414881 C77.0126057,45.3033929 77.1238808,45.1289881 77.0915751,44.7260119 C77.0167934,43.7885119 76.5477629,42.9176786 76.5435751,42.9093452 C76.4059769,42.6569643 76.4287105,42.34625 76.6028022,42.1176786 C77.2327629,41.2885119 76.1834266,39.6480357 75.7664441,39.1391071 C75.5995314,38.9373214 75.5552607,38.6629167 75.6455969,38.418869 C75.8484048,37.8819643 75.9596799,37.1766071 75.8717367,36.9968452 C75.655169,36.8825595 74.3090991,36.7331548 73.0431952,36.7331548 C73.0336231,36.7331548 73.0162738,36.73375 73.0180686,36.7331548 C72.8038939,36.7331548 72.598693,36.6385119 72.4587017,36.4754167 C72.3193087,36.3129167 72.2576886,36.09625 72.2923873,35.8849405 C72.4090467,35.1522024 72.4742563,33.0557738 71.3866319,32.156369 C71.05161,31.8801786 70.3678066,31.9468452 69.8180118,32.08375 C70.6914616,36.9539881 66.7423917,39.286131 66.700514,39.3099405 C66.3559201,39.5135119 65.9018459,39.393869 65.699038,39.043869 C65.4938371,38.6956548 65.6128895,38.248631 65.9634659,38.043869 C66.1010642,37.9629167 69.3453917,36.0081548 68.2458022,31.7760119 C68.1560642,31.4248214 68.3361384,31.0599405 68.672955,30.918869 C68.9122563,30.8194643 71.042038,29.9706548 72.324693,31.0301786 C73.7072563,32.1706548 73.8568197,34.15875 73.8185314,35.28375 C74.8068459,35.3200595 76.1493262,35.4450595 76.7409987,35.8343452 C77.6353873,36.4242262 77.384121,37.7855357 77.1543917,38.5480357 C77.6718808,39.2897024 78.7475402,41.1123214 78.021859,42.6004167 C78.215693,43.0367262 78.4914878,43.7897024 78.5584921,44.6099405 C78.6254965,45.4557738 78.3497017,46.1242262 77.7329026,46.5980357 C77.1543917,47.043869 76.302479,47.2974405 75.0521297,47.3974405 C72.7614179,47.5789881 68.0160729,48.02125 68.0160729,48.02125" id="Fill-167" fill="#415572" sketch:type="MSShapeGroup"></path>
                <path d="M78.6864585,129.08881 C78.5829607,129.019167 78.4429694,129.021548 78.3418646,129.094762 C78.2389651,129.168571 78.1940961,129.301905 78.2299913,129.422143 C78.2658865,129.542976 78.3777598,129.630476 78.5039913,129.636429 C78.6290262,129.641786 78.7468821,129.567381 78.7959389,129.453095 C78.8509782,129.322738 78.8037162,129.167976 78.6864585,129.08881 C78.5488603,128.996548 78.8240568,129.181071 78.6864585,129.08881" id="Fill-169" fill="#FFFFFF" sketch:type="MSShapeGroup"></path>
                <path d="M74.8335279,131.881548 C74.9023271,131.881548 74.9705279,131.880357 75.0393271,131.877976 C75.1763271,131.873214 75.3127288,131.863095 75.4491306,131.847024 C75.5586109,131.834524 75.2247856,131.873214 75.4491306,131.847024 C75.5855323,131.831548 75.6997987,131.959524 75.667493,132.092262 C75.6525367,132.152976 75.6088642,132.204762 75.5508336,132.229167 C75.5149384,132.244643 75.4754537,132.246429 75.4365672,132.25 C75.3911,132.254762 75.3450345,132.259524 75.298969,132.263095 C74.9358293,132.292262 74.5685017,132.28631 74.2059603,132.246429 C73.8775192,132.210714 73.5520694,132.145833 73.2355934,132.05119 C72.927493,131.958929 72.6283664,131.838095 72.3424013,131.691071 C72.0522485,131.542262 71.7788467,131.365476 71.5186066,131.169643 C71.2230694,130.947024 70.9508642,130.695238 70.7061786,130.418452 C70.4626895,130.144048 70.2473183,129.845238 70.0636546,129.527976 C69.8764013,129.204762 69.7226502,128.8625 69.6059908,128.507738 C69.4863402,128.145833 69.4049777,127.772024 69.3636983,127.393452 C69.3212223,127.008333 69.3200258,126.618452 69.3589122,126.232738 C69.3977987,125.852976 69.4761699,125.477381 69.5934275,125.114286 C69.7082921,124.758333 69.8596502,124.414286 70.0451087,124.089286 C70.2287725,123.766667 70.4453402,123.4625 70.690624,123.183333 C70.9335148,122.906548 71.2045236,122.654167 71.4976677,122.430357 C71.7938031,122.205357 72.1132703,122.009524 72.4488904,121.848214 C72.790493,121.683929 73.1488467,121.554762 73.5173707,121.464286 C73.8924755,121.371429 74.2771524,121.319048 74.663624,121.306548 C75.0506939,121.293452 75.4395585,121.320833 75.8206459,121.38869 C76.1915629,121.454167 76.5558991,121.558333 76.9058773,121.698214 C77.2510694,121.836905 77.5819035,122.010119 77.8923969,122.214286 C78.2010956,122.418452 78.490052,122.653571 78.7520869,122.914881 C78.8621655,123.024405 78.9626721,123.13631 79.0314712,123.276786 C79.0906983,123.399405 79.1253969,123.533333 79.1337725,123.668452 C79.1505236,123.945238 79.0548031,124.222024 78.8693445,124.429167 C78.6527769,124.670238 78.3315148,124.800595 78.0072616,124.777381 C77.8511175,124.766667 77.6979646,124.720833 77.5621611,124.644048 C77.4915672,124.604167 77.4263576,124.555952 77.3671306,124.50119 C77.2995279,124.439286 77.2385061,124.371429 77.1715017,124.308929 C76.9016895,124.058929 76.5911961,123.852381 76.2549777,123.700595 C75.9097856,123.544643 75.5382703,123.447024 75.1607725,123.413095 C74.7754974,123.378571 74.384838,123.407738 74.0097332,123.501786 C73.6447987,123.593452 73.2954188,123.746429 72.9807376,123.951786 C72.6714406,124.153571 72.3956459,124.404762 72.1671131,124.694048 C71.9355891,124.985714 71.7525236,125.316071 71.6286852,125.666667 C71.5024537,126.024405 71.4378424,126.402976 71.4372441,126.782143 C71.4360476,127.164286 71.4988642,127.545833 71.6250956,127.906548 C71.746541,128.255357 71.9266153,128.583333 72.1545498,128.874405 C72.381886,129.164881 72.655886,129.417262 72.9645847,129.620833 C73.2792659,129.828571 73.6280476,129.983929 73.9941786,130.077976 C74.3686852,130.174405 74.760541,130.205952 75.1458162,130.172619 C75.5221175,130.140476 75.891838,130.045238 76.2364319,129.892857 C76.2729253,129.876786 76.3082223,129.855952 76.347707,129.848214 C76.3800127,129.841667 76.4147114,129.843452 76.4464188,129.853571 C76.5104319,129.87381 76.5606852,129.925595 76.579231,129.989881 C76.5971786,130.052976 76.5822223,130.122024 76.5397463,130.172024 C76.5152179,130.20119 76.484707,130.218452 76.4506066,130.233929 C76.4093271,130.253571 76.3674493,130.271429 76.3255716,130.289286 C75.9749952,130.435714 75.6028817,130.529167 75.2247856,130.566071 C74.8401087,130.603571 74.4494493,130.583333 74.070755,130.505357 C74.1192135,130.5625 74.165279,130.621429 74.2095498,130.681548 C74.2544188,130.742857 74.297493,130.805952 74.3381742,130.870238 C74.3441568,130.879167 74.3603096,130.905357 74.3603096,130.905357 C74.3603096,130.905357 74.3680869,130.905952 74.3794537,130.907143 C74.3991961,130.909524 74.4189384,130.911905 74.4380825,130.91369 C74.4775672,130.917857 74.5164537,130.920833 74.5553402,130.92381 C74.7150738,130.934524 74.8754057,130.936905 75.0351393,130.929762 C75.3498205,130.916071 75.6633052,130.866667 75.9672179,130.782738 C76.2615585,130.70119 76.5463271,130.586905 76.815541,130.442857 C77.0793707,130.302381 77.3270476,130.133333 77.5543838,129.939286 C77.6106197,129.891667 77.665659,129.842262 77.7189035,129.791667 C77.7661655,129.747024 77.809838,129.695238 77.8684668,129.665476 C77.9719646,129.613095 78.1005891,129.625595 78.1915236,129.697619 C78.2824581,129.769643 78.3249341,129.890476 78.2974144,130.002976 C78.2830563,130.060714 78.2519472,130.110119 78.2100694,130.151786 C78.1574231,130.203571 78.1035803,130.254762 78.0491393,130.304167 C77.8277856,130.502976 77.5884843,130.682143 77.3342266,130.836905 C77.0763795,130.994048 76.8029777,131.127381 76.5200039,131.232738 C76.2286546,131.341071 75.9265367,131.420833 75.620231,131.470833 C75.303755,131.522024 74.9830913,131.541071 74.6630258,131.529167 C74.6887507,131.6 74.7120825,131.671429 74.7330214,131.743452 C74.7425934,131.775595 74.7515672,131.807738 74.7599428,131.839881 C74.7623358,131.85 74.7701131,131.880952 74.7701131,131.880952 L74.8335279,131.881548 Z" id="Fill-171" fill="#FFFFFF" sketch:type="MSShapeGroup"></path>
                <path d="M77.9088489,130.871131 C77.5989537,131.101488 77.2639319,131.297321 76.9097659,131.452679 C76.732683,131.53006 76.550814,131.597917 76.3653555,131.654464 C76.2726262,131.683036 76.1787004,131.709226 76.0841764,131.73244 C76.0428969,131.74256 76.000421,131.749107 75.9639275,131.771131 C75.9328183,131.790179 75.9070934,131.81756 75.8903424,131.850298 C75.8544472,131.919345 75.8628227,132.005655 75.9124777,132.066369 C75.9681153,132.135417 76.0518707,132.150893 76.1350279,132.13125 C76.3222812,132.086607 76.5077397,132.03244 76.6896087,131.968155 C77.0545432,131.840179 77.4057179,131.672917 77.7353555,131.470536 C77.8179144,131.420536 77.8986786,131.36756 77.9782463,131.313393 C78.0183293,131.285417 78.0584122,131.256845 78.0984952,131.228274 C78.1331939,131.202679 78.1702856,131.179464 78.194814,131.143155 C78.2378882,131.08006 78.2408795,130.996131 78.201993,130.93006 C78.1637048,130.864583 78.0889231,130.825893 78.0123467,130.831845 C77.975255,130.834821 77.9387616,130.848512 77.9088489,130.871131 C77.3429013,131.29256 77.9973904,130.80506 77.9088489,130.871131" id="Fill-173" fill="#FFFFFF" sketch:type="MSShapeGroup"></path>
                <path d="M78.5740467,130.280119 C78.5214004,130.335476 78.4681559,130.389643 78.4131166,130.442619 C78.3682476,130.486667 78.3179943,130.524762 78.2994485,130.587857 C78.2659463,130.701548 78.3425227,130.822976 78.4609769,130.841429 C78.5303742,130.852143 78.5913961,130.825357 78.6404528,130.778929 C78.6954921,130.727143 78.7493349,130.674762 78.8019812,130.620595 C78.8468502,130.574762 78.8977017,130.53131 78.9144528,130.467024 C78.9276144,130.415238 78.9192389,130.35869 78.8917192,130.313452 C78.8235183,130.202143 78.6631865,130.185476 78.5740467,130.280119 C78.5034528,130.354524 78.6500249,130.199762 78.5740467,130.280119" id="Fill-175" fill="#FFFFFF" sketch:type="MSShapeGroup"></path>
                <path d="M77.3203472,129.13 C77.1953122,129.260952 77.0630983,129.381786 76.9177227,129.490119 C76.8776397,129.519881 76.8369585,129.548452 76.7968755,129.577619 C76.7627751,129.601429 76.7358537,129.631786 76.7202991,129.670476 C76.68919,129.749048 76.7119236,129.84131 76.7765349,129.896071 C76.8531114,129.960952 76.9560109,129.955 77.0343821,129.899048 C77.1109585,129.844881 77.1863384,129.790119 77.2593253,129.731786 C77.3281245,129.677024 77.3939323,129.61869 77.4579454,129.558571 C77.4950371,129.523452 77.5309323,129.487143 77.5668275,129.450833 C77.6003297,129.416905 77.6356266,129.384762 77.652976,129.339524 C77.6870764,129.251429 77.6523777,129.148452 77.5722118,129.098452 C77.4926441,129.048452 77.3855568,129.062143 77.3203472,129.13 C77.1277096,129.331786 77.3969236,129.050238 77.3203472,129.13" id="Fill-177" fill="#FFFFFF" sketch:type="MSShapeGroup"></path>
                <path d="M74.8532703,125.494762 C74.5834581,125.494762 74.3172354,125.57869 74.0976764,125.734643 C73.8835017,125.886429 73.7177856,126.101905 73.6280476,126.347738 C73.5341218,126.603095 73.5239515,126.886429 73.5987332,127.147143 C73.6705236,127.398929 73.8200869,127.625714 74.0222965,127.792381 C74.2286939,127.962024 74.4853445,128.065595 74.7521655,128.085833 C75.0231742,128.106071 75.2971742,128.041786 75.5292965,127.901905 C75.7530432,127.76619 75.9331175,127.564405 76.0414013,127.3275 C76.1538729,127.080476 76.1855803,126.799524 76.1311393,126.534048 C76.0790913,126.275714 75.9456808,126.036429 75.754838,125.854881 C75.5627987,125.672143 75.3157201,125.550119 75.0536852,125.510238 C74.987279,125.499524 74.9202747,125.494762 74.8532703,125.494762" id="Fill-179" fill="#FFFFFF" sketch:type="MSShapeGroup"></path>
                <path d="M53.4225218,20.8609524 L53.8730066,25.627619 L52.997762,25.707381 L52.5472773,20.9407143 L53.4225218,20.8609524 Z" id="Fill-181" fill="#415572" sketch:type="MSShapeGroup"></path>
                <path d="M54.868859,25.5333333 L54.4183742,20.7666667 L55.4138677,20.6720238 L56.8413,22.6 C57.212217,23.1017857 57.5424528,23.625 57.8116668,24.125 L57.8254266,24.1214286 C57.7087672,23.4892857 57.6286013,22.8803571 57.5604004,22.1488095 L57.4012651,20.4869048 L58.213693,20.4089286 L58.6641777,25.1755952 L57.7620118,25.2619048 L56.3118459,23.2839286 C55.9594747,22.7928571 55.5825751,22.2315476 55.2972083,21.7184524 L55.2768677,21.7285714 C55.3689987,22.3404762 55.4371996,22.9690476 55.5125795,23.7535714 L55.6741079,25.4589286 L54.868859,25.5333333 Z" id="Fill-183" fill="#415572" sketch:type="MSShapeGroup"></path>
                <path d="M60.7555515,24.9825 L58.7543943,20.3592857 L59.7068135,20.2711905 L60.5677,22.3741667 C60.8070013,22.9563095 61.0169882,23.5009524 61.1994555,24.0717857 L61.2144118,24.0688095 C61.29039,23.492619 61.4034598,22.8944048 61.5410581,22.2991667 L62.032224,20.0521429 L62.9607131,19.9664286 L61.7576258,24.8884524 L60.7555515,24.9825 Z" id="Fill-185" fill="#415572" sketch:type="MSShapeGroup"></path>
                <path d="M64.3383707,22.265119 C64.4305017,23.232381 64.9916633,23.9561905 65.8304144,23.8788095 C66.6757463,23.7984524 67.0795672,22.9764286 66.9850432,21.9794048 C66.901886,21.0782143 66.3718336,20.2788095 65.4977856,20.3585714 C64.6309166,20.4389286 64.2450432,21.2811905 64.3383707,22.265119 M67.9045585,21.8603571 C68.0565148,23.4555952 67.1705017,24.4615476 65.8471655,24.5859524 C64.4975061,24.7103571 63.5462834,23.7633333 63.4146677,22.3639286 C63.2752747,20.8978571 64.1032572,19.7817857 65.4529166,19.6544048 C66.8528293,19.5246429 67.7765323,20.5008333 67.9045585,21.8603571" id="Fill-187" fill="#415572" sketch:type="MSShapeGroup"></path>
                <path d="M69.2986083,19.3709524 L69.749093,24.137619 L68.8738485,24.2209524 L68.4233638,19.4542857 L69.2986083,19.3709524 Z" id="Fill-189" fill="#415572" sketch:type="MSShapeGroup"></path>
                <path d="M74.1653389,23.5826786 C73.96971,23.7082738 73.5246096,23.8558929 72.9484917,23.9118452 C71.4283301,24.0529167 70.4142908,23.1945833 70.2778891,21.7451786 C70.128924,20.176131 71.132793,19.1231548 72.5955223,18.9874405 C73.1722384,18.9320833 73.5975965,19.0130357 73.7842515,19.0892262 L73.6574218,19.8035119 C73.419317,19.7231548 73.0998498,19.6672024 72.7008148,19.7064881 C71.7268585,19.7945833 71.0819415,20.4689881 71.1908236,21.6160119 C71.2895354,22.6630357 71.9697493,23.2731548 73.0208803,23.1767262 C73.3780376,23.1433929 73.7387843,23.0374405 73.957745,22.9154167 L74.1653389,23.5826786 Z" id="Fill-191" fill="#415572" sketch:type="MSShapeGroup"></path>
                <path d="M77.3933341,21.2900595 L75.5890022,21.4591071 L75.7212162,22.8585119 L77.7373297,22.6704167 L77.8043341,23.3847024 L74.9141725,23.656131 L74.4636878,18.8894643 L77.2497533,18.6293452 L77.3167576,19.3442262 L75.4053384,19.5210119 L75.5225961,20.7543452 L77.3263297,20.5852976 L77.3933341,21.2900595 Z" id="Fill-193" fill="#415572" sketch:type="MSShapeGroup"></path>
                <path d="M62.1543275,55.7986905 C62.3176507,55.8278571 62.5306288,55.8219048 62.795655,55.8004762 C63.7726026,55.7213095 64.3277817,55.1975 64.2595808,54.3635714 C64.1949694,53.5713095 63.608083,53.1933333 62.705917,53.2659524 C62.3451703,53.295119 62.0927074,53.3480952 61.9575022,53.3909524 L62.1543275,55.7986905 Z M60.5881004,52.587381 C61.0481572,52.4653571 61.690083,52.3492857 62.5719083,52.2778571 C63.5267205,52.2004762 64.2440262,52.3445238 64.7316026,52.6879762 C65.1844803,53.0022619 65.5063406,53.5397619 65.5607817,54.2046429 C65.615821,54.8802381 65.4501048,55.4570238 65.077393,55.870119 C64.5993886,56.4296429 63.8025153,56.7391667 62.8788122,56.8141667 C62.6347249,56.8338095 62.4109782,56.8409524 62.238083,56.8236905 L62.4576419,59.5058333 L61.1630218,59.6105952 L60.5881004,52.587381 Z" id="Fill-195" fill="#415572" sketch:type="MSShapeGroup"></path>
                <path d="M69.581283,55.9094643 L68.8753441,54.2017262 C68.7024489,53.7802976 68.5457066,53.3035119 68.4057153,52.9005357 L68.3841782,52.9023214 C68.3117895,53.3225595 68.2465799,53.8273214 68.1532524,54.2600595 L67.7452437,56.0582738 L69.581283,55.9094643 Z M67.6130297,57.0576786 L67.1631432,59.1249405 L65.8146803,59.233869 L67.5250865,51.9297024 L69.1912218,51.7945833 L72.0981345,58.7249405 L70.6970253,58.838631 L69.8845974,56.8731548 L67.6130297,57.0576786 Z" id="Fill-197" fill="#415572" sketch:type="MSShapeGroup"></path>
                <path d="M73.8231978,51.4194048 L74.4058965,58.5378571 L73.0999096,58.6438095 L72.5172109,51.5253571 L73.8231978,51.4194048 Z" id="Fill-199" fill="#415572" sketch:type="MSShapeGroup"></path>
                <path d="M77.1283079,57.3184524 C77.3107751,57.335119 77.5871681,57.3125 77.8527926,57.2910714 C79.5518319,57.1642857 80.4833122,56.1535714 80.3355437,54.347619 C80.218286,52.772619 79.2317664,51.9488095 77.5967402,52.0815476 C77.1827489,52.114881 76.88781,52.1708333 76.7119236,52.227381 L77.1283079,57.3184524 Z M75.328762,51.3934524 C75.8941114,51.2517857 76.6227838,51.139881 77.3969236,51.0767857 C78.7352162,50.9684524 79.6804563,51.1684524 80.3834039,51.6642857 C81.1198537,52.1684524 81.6128144,52.9785714 81.7127227,54.1934524 C81.8162205,55.460119 81.4584651,56.4464286 80.8291026,57.1136905 C80.1716223,57.8154762 79.0624607,58.235119 77.6721201,58.347619 C76.9069541,58.4095238 76.3308362,58.4142857 75.9018886,58.3952381 L75.328762,51.3934524 Z" id="Fill-201" fill="#415572" sketch:type="MSShapeGroup"></path>
                <path d="M211.508377,112.396964 C207.573067,112.396964 203.087962,111.33744 198.179893,108.423155 C196.51974,109.19875 191.328098,111.189821 187.88874,107.639226 C187.511242,107.251726 187.522609,106.634464 187.913268,106.26006 C188.303928,105.885655 188.924316,105.89875 189.298224,106.284464 C192.318207,109.395179 197.695307,106.485655 197.750945,106.457083 C198.06084,106.285655 198.438338,106.293393 198.741054,106.479702 C215.528041,116.793393 226.983395,103.664821 227.098259,103.532083 C227.448836,103.120774 228.065635,103.071369 228.481421,103.417202 C228.894814,103.764821 228.946264,104.380298 228.596286,104.791607 C228.505949,104.89756 221.966443,112.396964 211.508377,112.396964" id="Fill-203" fill="#415572" sketch:type="MSShapeGroup"></path>
                <path d="M244.387779,151.701964 C244.387779,165.530536 245.525657,193.284702 246.928561,193.284702 C248.332063,193.284702 249.469342,165.530536 249.469342,151.701964" id="Fill-205" fill="#415572" sketch:type="MSShapeGroup"></path>
                <path d="M246.928561,194.26006 C245.825382,194.26006 245.029107,194.26006 244.152067,177.730298 C243.70577,169.325536 243.406644,158.864821 243.406644,151.701726 C243.406644,151.16244 243.845163,150.726131 244.387181,150.726131 C244.929198,150.726131 245.367718,151.16244 245.367718,151.701726 C245.367718,163.477917 246.101176,181.02375 246.928561,188.802917 C247.755945,181.02375 248.489403,163.477917 248.489403,151.701726 C248.489403,151.16244 248.927923,150.726131 249.469941,150.726131 C250.011958,150.726131 250.450478,151.16244 250.450478,151.701726 C250.450478,158.864821 250.151351,169.325536 249.705054,177.730298 C248.828015,194.26006 248.03174,194.26006 246.928561,194.26006" id="Fill-207" fill="#415572" sketch:type="MSShapeGroup"></path>
                <path d="M226.972806,151.701964 C226.972806,165.530536 228.110683,193.284702 229.513587,193.284702 C230.91709,193.284702 232.054369,165.530536 232.054369,151.701964" id="Fill-209" fill="#415572" sketch:type="MSShapeGroup"></path>
                <path d="M229.513408,194.26006 C228.410229,194.26006 227.613954,194.26006 226.736914,177.730298 C226.290617,169.325536 225.991491,158.864821 225.991491,151.701726 C225.991491,151.16244 226.43001,150.726131 226.972028,150.726131 C227.514045,150.726131 227.952565,151.16244 227.952565,151.701726 C227.952565,163.477917 228.686024,181.02375 229.513408,188.802917 C230.340792,181.02375 231.074251,163.477917 231.074251,151.701726 C231.074251,151.16244 231.51277,150.726131 232.054788,150.726131 C232.596805,150.726131 233.035325,151.16244 233.035325,151.701726 C233.035325,158.864821 232.736198,169.325536 232.289901,177.730298 C231.412862,194.26006 230.616587,194.26006 229.513408,194.26006" id="Fill-211" fill="#415572" sketch:type="MSShapeGroup"></path>
                <path d="M250.390353,101.95881 C250.390353,101.95881 253.942183,103.516548 254.743842,108.858214 C255.552681,114.245714 253.132148,118.239762 253.15189,126.174286 C253.172231,134.344524 258.626506,141.051667 257.014812,157.514762 L220.295821,157.514762 C220.295821,157.514762 220.709812,141.025476 224.053449,131.052262 C231.151724,109.878452 218.705663,118.085595 228.117982,101.513571 L250.390353,101.95881 Z" id="Fill-213" fill="#FBB040" sketch:type="MSShapeGroup"></path>
                <path d="M221.31333,156.539524 L256.118509,156.539524 C256.930937,146.947857 255.30309,140.930595 253.863094,135.603214 C252.960928,132.259167 252.179609,129.371667 252.171832,126.176429 C252.16226,122.299048 252.719832,119.350833 253.209801,116.749048 C253.726692,114.01631 254.172989,111.656786 253.774552,109.002619 C253.152369,104.86869 250.787474,103.287143 250.145548,102.929405 L228.686203,102.500238 C224.486465,110.021667 225.191207,111.810357 226.15619,114.26631 C227.253985,117.054405 228.617404,120.524048 224.984212,131.360952 C222.193959,139.683571 221.466483,152.834762 221.31333,156.539524 M257.01529,158.490714 L220.296299,158.490714 C220.032469,158.490714 219.779408,158.384762 219.593352,158.196071 C219.409688,158.007381 219.310378,157.753214 219.315762,157.490119 C219.333111,156.810952 219.771631,140.740119 223.123046,130.74369 C226.531893,120.577619 225.312055,117.471667 224.329723,114.977024 C223.065614,111.760357 222.531373,109.36631 227.263557,101.033571 C227.439443,100.721667 227.79002,100.564524 228.136408,100.537738 L250.409976,100.982976 C250.540395,100.985952 250.668421,101.013333 250.787474,101.065714 C250.951993,101.138333 254.841238,102.907976 255.712893,108.714524 C256.160985,111.69369 255.685972,114.203214 255.13857,117.109167 C254.661164,119.625833 254.123334,122.478214 254.132906,126.171667 C254.140683,129.111548 254.889098,131.884762 255.756566,135.096667 C257.208526,140.466905 259.016448,147.149643 257.99164,157.609167 C257.941985,158.109762 257.520814,158.490714 257.01529,158.490714" id="Fill-215" fill="#415572" sketch:type="MSShapeGroup"></path>
                <path d="M250.390353,101.95881 C250.390353,101.95881 252.364589,105.035595 249.969781,107.252262 C247.574973,109.468333 245.12393,107.883214 245.12393,107.883214 C245.12393,107.883214 244.020751,109.955833 240.834454,110.443929 C237.647559,110.931429 235.912624,108.858214 235.912624,108.858214 C235.912624,108.858214 232.846576,110.379048 230.171187,108.736786 C226.049222,106.205833 228.864004,101.513571 228.864004,101.513571" id="Fill-217" fill="#FFFFFF" sketch:type="MSShapeGroup"></path>
                <path d="M239.86983,111.494762 C237.826795,111.494762 236.411328,110.596548 235.695219,109.998929 C234.525035,110.409643 231.995022,111.0025 229.657048,109.566786 C225.744472,107.165595 226.876367,102.921548 228.021424,101.013214 C228.299014,100.550119 228.900856,100.401905 229.363904,100.67631 C229.827551,100.949524 229.982498,101.547738 229.706703,102.010833 C229.473385,102.407857 227.502738,105.95131 230.687241,107.906667 C232.874455,109.249524 235.449935,107.998333 235.476856,107.985833 C235.877088,107.787024 236.379022,107.885238 236.666184,108.234643 C236.719428,108.294762 238.115752,109.867381 240.685848,109.479881 C243.312778,109.078095 244.249642,107.442976 244.25742,107.426905 C244.387241,107.184643 244.611586,107.007857 244.877808,106.93881 C245.149415,106.869762 245.429398,106.914405 245.659127,107.065 C245.839201,107.178095 247.549009,108.155476 249.301293,106.537024 C251.059559,104.911429 249.624948,102.57869 249.561533,102.479286 C249.276166,102.023929 249.412568,101.422738 249.867839,101.135238 C250.320118,100.850714 250.923158,100.979881 251.218097,101.433452 C252.053258,102.734643 253.005079,105.775119 250.637791,107.96619 C248.782607,109.684643 246.731197,109.573929 245.431193,109.107262 C244.739612,109.893571 243.353459,111.045357 240.984376,111.407857 C240.593717,111.467976 240.222201,111.494762 239.86983,111.494762" id="Fill-219" fill="#415572" sketch:type="MSShapeGroup"></path>
                <path d="M246.400303,192.162798 C246.400303,192.162798 242.034251,192.488988 240.539216,193.426488 C239.043583,194.364583 248.574355,193.588393 248.574355,193.588393" id="Fill-221" fill="#415572" sketch:type="MSShapeGroup"></path>
                <path d="M242.682997,194.876488 C239.768307,194.876488 239.618743,194.430655 239.454224,193.937798 C239.32201,193.545536 239.398586,192.988393 240.015385,192.601488 C241.670154,191.563988 245.854337,191.225893 246.327555,191.190774 C246.854018,191.159226 247.33621,191.551488 247.378686,192.090179 C247.396036,192.319345 247.330826,192.536012 247.209979,192.712798 C247.643114,192.68244 248.073857,192.650298 248.493232,192.615774 C249.0179,192.58244 249.506075,192.972321 249.550346,193.508631 C249.594018,194.045536 249.193787,194.516369 248.654162,194.561012 C245.913564,194.784226 244.009922,194.876488 242.682997,194.876488" id="Fill-223" fill="#415572" sketch:type="MSShapeGroup"></path>
                <path d="M228.991133,192.162798 C228.991133,192.162798 224.62508,192.488988 223.130045,193.426488 C221.634412,194.364583 230.741622,193.588393 230.741622,193.588393" id="Fill-225" fill="#415572" sketch:type="MSShapeGroup"></path>
                <path d="M225.122289,194.876488 C222.352974,194.876488 222.204009,194.434226 222.038891,193.946726 C221.906677,193.552083 221.985647,192.991964 222.60783,192.601488 C224.260804,191.563988 228.444987,191.225893 228.917607,191.190774 C229.450053,191.159226 229.926861,191.551488 229.969337,192.090179 C229.984293,192.306845 229.929254,192.512798 229.819773,192.684226 C230.103345,192.662202 230.38273,192.639583 230.65673,192.616964 C231.177808,192.55506 231.669572,192.96756 231.717433,193.505655 C231.763498,194.041964 231.363267,194.514583 230.825437,194.560417 C228.205686,194.784226 226.389987,194.876488 225.122289,194.876488" id="Fill-227" fill="#415572" sketch:type="MSShapeGroup"></path>
                <path d="M251.623832,136.858512 C250.882596,136.705536 250.250841,136.160298 250.041452,135.383512 C249.744718,134.284702 250.399806,133.15494 251.504181,132.860298 C251.605884,132.833512 251.707587,132.822202 251.80929,132.810893 C251.768609,132.71744 251.726731,132.624583 251.69981,132.523393 C251.403076,131.424583 252.058164,130.295417 253.162539,130.000179 C253.178692,129.996012 253.194845,129.996607 253.210998,129.99244 C253.559779,131.301964 253.834976,132.603155 254.050945,133.837679 C254.060517,133.893036 254.070688,133.948988 254.08026,134.00375 C254.264522,135.07875 254.405111,136.095417 254.5116,137.016845 C254.514592,137.039464 254.516386,137.061488 254.519378,137.084107 C254.623474,137.996607 255.187028,138.854345 255.235487,139.52756 C254.967469,139.95256 254.056928,140.238869 253.531662,140.379345 C252.427286,140.673988 251.2924,140.022798 250.995666,138.923988 C250.786277,138.146607 251.059081,137.360298 251.623832,136.858512" id="Fill-229" fill="#415572" sketch:type="MSShapeGroup"></path>
                <path d="M224.379557,140.743095 C225.047208,141.097857 225.498889,141.797857 225.479745,142.602619 C225.452225,143.739524 224.503994,144.639524 223.36133,144.612143 C223.255439,144.609762 223.154933,144.591905 223.054426,144.574048 C223.06699,144.675238 223.080151,144.776429 223.077758,144.88119 C223.050837,146.018095 222.102007,146.918095 220.959343,146.890714 C220.942592,146.890714 220.927038,146.885357 220.910286,146.884762 C220.94678,145.530595 221.052072,144.205 221.195055,142.959762 C221.201038,142.904405 221.20702,142.847857 221.213601,142.7925 C221.341627,141.709762 221.49478,140.694286 221.653915,139.780595 C221.657505,139.757976 221.661693,139.736548 221.66588,139.713929 C221.824417,138.809167 221.985348,138.010357 222.129527,137.351429 C222.507024,137.01869 223.003575,136.816905 223.547387,136.83 C224.690051,136.856786 225.59461,137.800833 225.567688,138.937738 C225.548544,139.741905 225.063361,140.420476 224.379557,140.743095" id="Fill-231" fill="#415572" sketch:type="MSShapeGroup"></path>
                <mask id="mask-6" sketch:name="Clip 234" fill="white">
                    <use xlink:href="#path-5"></use>
                </mask>
                <g id="Clip-234"></g>
                <path d="M249.969961,193.889881 L244.387659,193.889881 L244.387659,172.549405 L249.969961,172.549405 L249.969961,193.889881 Z" id="Fill-233" fill="#FBB040" sketch:type="MSShapeGroup" mask="url(#mask-6)"></path>
                <path d="M245.367598,192.91369 L248.988825,192.91369 L248.988825,173.524405 L245.367598,173.524405 L245.367598,192.91369 Z M249.969362,194.864881 L244.387061,194.864881 C243.845642,194.864881 243.407122,194.428571 243.407122,193.889286 L243.407122,172.549405 C243.407122,172.010119 243.845642,171.57381 244.387061,171.57381 L249.969362,171.57381 C250.51138,171.57381 250.9499,172.010119 250.9499,172.549405 L250.9499,193.889286 C250.9499,194.428571 250.51138,194.864881 249.969362,194.864881 L249.969362,194.864881 Z" id="Fill-235" fill="#415572" sketch:type="MSShapeGroup" mask="url(#mask-6)"></path>
                <path d="M232.304738,193.889881 L226.722437,193.889881 L226.722437,172.549405 L232.304738,172.549405 L232.304738,193.889881 Z" id="Fill-236" fill="#FBB040" sketch:type="MSShapeGroup" mask="url(#mask-6)"></path>
                <path d="M227.703572,192.91369 L231.324799,192.91369 L231.324799,173.524405 L227.703572,173.524405 L227.703572,192.91369 Z M232.305336,194.864881 L226.723035,194.864881 C226.181017,194.864881 225.742498,194.428571 225.742498,193.889286 L225.742498,172.549405 C225.742498,172.010119 226.181017,171.57381 226.723035,171.57381 L232.305336,171.57381 C232.847354,171.57381 233.285873,172.010119 233.285873,172.549405 L233.285873,193.889286 C233.285873,194.428571 232.847354,194.864881 232.305336,194.864881 L232.305336,194.864881 Z" id="Fill-237" fill="#415572" sketch:type="MSShapeGroup" mask="url(#mask-6)"></path>
                <path d="M227.854152,67.9893452 C227.854152,67.9893452 222.012209,69.7131548 221.202174,75.0839881 C220.392738,80.4548214 219.852515,93.2780357 216.546567,95.023869 C216.546567,95.023869 219.510314,97.061369 225.687279,96.1095833" id="Fill-238" fill="#FFFFFF" sketch:type="MSShapeGroup" mask="url(#mask-6)"></path>
                <path d="M222.529339,97.3378571 C218.247641,97.3378571 216.098715,95.9009524 215.989833,95.8259524 C215.708055,95.6325 215.547125,95.3069048 215.568064,94.9664286 C215.587208,94.6265476 215.784632,94.3217857 216.087348,94.1616667 C218.228497,93.0319048 219.15878,84.409881 219.716352,79.2580952 C219.896427,77.597381 220.059152,76.0967857 220.233243,74.9390476 C221.125837,69.022381 227.312972,67.1319048 227.575606,67.0539286 C228.103863,66.9015476 228.639898,67.1961905 228.793649,67.7104762 C228.948597,68.2259524 228.653658,68.7688095 228.136767,68.9241667 C228.082924,68.9402381 222.878121,70.5533333 222.170986,75.2289286 C222.001082,76.3646429 221.841946,77.8366667 221.665462,79.4664286 C220.909269,86.4640476 220.1453,92.1711905 218.266785,94.7396429 C219.570379,95.1914286 221.979545,95.692619 225.537955,95.1455952 C226.060828,95.0735714 226.57413,95.4295238 226.65609,95.9604762 C226.738649,96.492619 226.372518,96.9908333 225.836483,97.0741667 C224.620833,97.2616667 223.517654,97.3378571 222.529339,97.3378571" id="Fill-239" fill="#415572" sketch:type="MSShapeGroup" mask="url(#mask-6)"></path>
                <path d="M239.845661,106.090893 L239.845661,106.090893 C248.11711,106.090893 254.88515,99.3569643 254.88515,91.1272024 L254.88515,76.9760119 C254.88515,68.7456548 248.11711,62.0123214 239.845661,62.0123214 L239.845661,62.0123214 C231.574211,62.0123214 224.806172,68.7456548 224.806172,76.9760119 L224.806172,91.1272024 C224.806172,99.3569643 231.574211,106.090893 239.845661,106.090893" id="Fill-240" fill="#FFFFFF" sketch:type="MSShapeGroup" mask="url(#mask-6)"></path>
                <path d="M239.521288,62.9879167 C231.947401,62.9879167 225.786589,69.1182738 225.786589,76.6533929 L225.786589,91.4504167 C225.786589,98.9849405 231.947401,105.115298 239.521288,105.115298 L240.170393,105.115298 C247.744279,105.115298 253.905091,98.9849405 253.905091,91.4504167 L253.905091,76.6533929 C253.905091,69.1182738 247.744279,62.9879167 240.170393,62.9879167 L239.521288,62.9879167 Z M240.170393,107.066488 L239.521288,107.066488 C230.867554,107.066488 223.825515,100.061726 223.825515,91.4504167 L223.825515,76.6533929 C223.825515,68.0420833 230.867554,61.0367262 239.521288,61.0367262 L240.170393,61.0367262 C248.824724,61.0367262 255.866166,68.0420833 255.866166,76.6533929 L255.866166,91.4504167 C255.866166,100.061726 248.824724,107.066488 240.170393,107.066488 L240.170393,107.066488 Z" id="Fill-241" fill="#415572" sketch:type="MSShapeGroup" mask="url(#mask-6)"></path>
                <path d="M246.43901,78.2163095 C230.514106,78.3889286 227.854272,67.9895238 227.854272,67.9895238 C227.854272,67.9895238 232.808407,60.1794048 243.485434,60.8085714 C257.302691,62.0121429 261.684897,73.2758333 262.494333,82.8478571 C263.304368,92.419881 266.412892,95.6454762 266.412892,95.6454762 C259.124971,100.663333 253.186709,95.6240476 253.186709,95.6240476 C253.186709,95.6240476 255.839364,83.6627381 251.67911,78.1984524" id="Fill-242" fill="#FFFFFF" sketch:type="MSShapeGroup" mask="url(#mask-6)"></path>
                <path d="M259.80327,98.8307143 C255.526956,98.8319048 252.593122,96.4033333 252.551244,96.3658333 C252.275449,96.1325 252.151013,95.7658333 252.229384,95.4146429 C252.25451,95.2991667 254.73427,83.8259524 250.89827,78.7872619 C250.571026,78.3575 250.655379,77.7461905 251.087917,77.4211905 C251.515069,77.0979762 252.131869,77.1771429 252.460908,77.609881 C256.329214,82.6914286 254.766576,92.6075 254.270624,95.2122619 C255.624471,96.130119 259.847541,98.4075 265.00269,95.384881 C263.972497,93.795 262.11851,90.030119 261.517266,82.9295238 C260.89269,75.5664286 257.711777,63.0271429 243.399166,61.780119 C234.743637,61.2682143 230.035982,66.697381 228.936991,68.1563095 C229.609428,70.0122619 233.213305,77.3658333 246.426925,77.2408333 C246.957576,77.2152381 247.412847,77.6670238 247.418829,78.2063095 C247.424812,78.7444048 246.989882,79.1866667 246.449659,79.1920238 C246.317445,79.1932143 246.183436,79.1938095 246.053615,79.1938095 C229.896589,79.1938095 226.934039,68.3408333 226.905323,68.2307143 C226.838318,67.9705952 226.881991,67.695 227.025572,67.4682143 C227.242139,67.1295238 232.384126,59.1902381 243.542746,59.8342857 C259.313301,61.2080952 262.796331,74.7914286 263.470563,82.7658333 C264.232738,91.7759524 267.097772,94.945 267.126489,94.9759524 C267.31793,95.1830952 267.415445,95.4670238 267.383139,95.7479762 C267.35203,96.0289286 267.203065,96.2860714 266.969148,96.447381 C264.378113,98.2325 261.925275,98.8307143 259.80327,98.8307143" id="Fill-243" fill="#415572" sketch:type="MSShapeGroup" mask="url(#mask-6)"></path>
                <path d="M228.824459,68.1297024 C228.824459,68.1297024 228.652761,69.1064881 228.655154,70.6773214 C228.671905,71.4481548 228.713783,72.3541071 228.893259,73.2910119 C228.963254,73.7660119 229.088289,74.238631 229.230673,74.713631 C229.346734,75.2005357 229.583643,75.6380357 229.753547,76.108869 C230.016778,76.5201786 230.196852,76.9981548 230.515123,77.3576786 C230.808267,77.7380357 231.090045,78.1201786 231.453783,78.3993452 C231.62249,78.5523214 231.788804,78.7029167 231.951529,78.8499405 C232.139979,78.9642262 232.324241,79.076131 232.503717,79.1856548 C232.850106,79.426131 233.204272,79.6100595 233.565018,79.7201786 C233.91739,79.8427976 234.2219,80.0041071 234.52342,80.0666071 C234.826734,80.1273214 235.090564,80.1797024 235.308328,80.2231548 C235.743857,80.3124405 235.99273,80.363631 235.99273,80.363631 L236.108791,80.3868452 C236.512014,80.4695833 236.771656,80.8618452 236.688499,81.2630357 C236.607136,81.6558929 236.226647,81.9118452 235.8318,81.8445833 C235.8318,81.8445833 235.544638,81.7951786 235.041507,81.7094643 C234.790241,81.6648214 234.484534,81.61125 234.133957,81.5493452 C233.783979,81.4832738 233.405883,81.3100595 232.984713,81.171369 C232.555167,81.0457738 232.11904,80.8374405 231.681119,80.5564881 C231.45797,80.426131 231.228839,80.2922024 230.994324,80.1552976 C230.78673,79.9802976 230.57435,79.801131 230.358381,79.6195833 C229.901914,79.2755357 229.536381,78.8231548 229.164866,78.3624405 C228.766429,77.9183929 228.526529,77.3701786 228.202276,76.8695833 C227.980922,76.3285119 227.693162,75.8005357 227.541804,75.2493452 C227.36173,74.7035119 227.206184,74.1624405 227.11166,73.6308929 C226.880734,72.571369 226.807748,71.5719643 226.767066,70.7177976 C226.745529,69.8624405 226.762879,69.151131 226.805953,68.6481548 C226.855608,68.1398214 226.883726,67.84875 226.883726,67.84875 C226.936372,67.3124405 227.416171,66.9195833 227.955796,66.971369 C228.49542,67.02375 228.890267,67.501131 228.837621,68.0380357 C228.835228,68.0618452 228.832237,68.0856548 228.828049,68.1094643 L228.824459,68.1297024 Z" id="Fill-244" fill="#415572" sketch:type="MSShapeGroup" mask="url(#mask-6)"></path>
                <path d="M263.131533,147.315655 C262.792323,147.315655 262.461489,147.139464 262.281415,146.823988 C260.031384,142.909702 261.088498,138.685298 261.133965,138.507321 C265.176961,122.684702 257.562393,110.030536 257.484022,109.90494 C257.202843,109.445417 257.348218,108.844226 257.809472,108.563274 C258.265341,108.285298 258.872568,108.426369 259.157934,108.887083 C259.491162,109.430536 267.279223,122.37756 263.034017,138.99125 C263.024445,139.028155 262.137834,142.645417 263.981651,145.856131 C264.252061,146.323988 264.089336,146.919226 263.617913,147.187083 C263.46476,147.274583 263.298445,147.315655 263.131533,147.315655" id="Fill-245" fill="#415572" sketch:type="MSShapeGroup" mask="url(#mask-6)"></path>
                <path d="M253.186828,93.6307738 C253.186828,93.6307738 249.918571,100.081369 252.313977,101.463512 C254.753654,102.87125 255.489505,98.3224405 253.186828,93.6307738" id="Fill-246" fill="#FFFFFF" sketch:type="MSShapeGroup" mask="url(#mask-6)"></path>
                <path d="M253.144711,96.1965476 C252.398091,98.2655952 252.108537,100.216786 252.805502,100.619167 C252.878489,100.660833 253.123772,100.795357 253.200349,100.722738 C253.631091,100.324524 253.839882,98.5364286 253.144711,96.1965476 M253.148301,102.70131 C252.769607,102.70131 252.325104,102.596548 251.821375,102.307262 C248.780454,100.553095 251.695144,94.4066667 252.311943,93.1917857 C252.478257,92.8632143 252.817467,92.6554762 253.186589,92.6554762 L253.192572,92.6554762 C253.565882,92.6584524 253.905091,92.8697619 254.067816,93.2030952 C255.87155,96.879881 256.072563,100.72631 254.535052,102.150714 C254.3131,102.356667 253.838087,102.70131 253.148301,102.70131" id="Fill-247" fill="#415572" sketch:type="MSShapeGroup" mask="url(#mask-6)"></path>
                <path d="M224.232507,93.6307738 C224.232507,93.6307738 220.964249,100.081369 223.359655,101.463512 C225.799332,102.87125 226.535183,98.3224405 224.232507,93.6307738" id="Fill-248" fill="#FFFFFF" sketch:type="MSShapeGroup" mask="url(#mask-6)"></path>
                <path d="M224.191586,96.1965476 C223.442573,98.2655952 223.153617,100.216786 223.850582,100.619167 C223.942713,100.672143 224.174237,100.79119 224.245429,100.722738 C224.676171,100.323333 224.884962,98.5352381 224.191586,96.1965476 M224.193381,102.70131 C223.814088,102.70131 223.370184,102.596548 222.866455,102.307262 C219.827328,100.553095 222.742018,94.4066667 223.356424,93.1917857 C223.523337,92.8632143 223.861948,92.6554762 224.231669,92.6554762 L224.237652,92.6554762 C224.610962,92.6572619 224.950171,92.8697619 225.112896,93.2025 C226.918424,96.8786905 227.119438,100.725714 225.581927,102.150119 C225.359975,102.356667 224.884962,102.70131 224.193381,102.70131" id="Fill-249" fill="#415572" sketch:type="MSShapeGroup" mask="url(#mask-6)"></path>
                <path d="M198.225838,108.285179 C197.683821,108.285179 197.245301,107.848869 197.245301,107.309583 L197.245301,104.161964 C197.245301,103.622679 197.683821,103.186369 198.225838,103.186369 C198.767856,103.186369 199.206376,103.622679 199.206376,104.161964 L199.206376,107.309583 C199.206376,107.848869 198.767856,108.285179 198.225838,108.285179" id="Fill-250" fill="#415572" sketch:type="MSShapeGroup" mask="url(#mask-6)"></path>
                <path d="M233.217074,94.6065476 C233.933183,96.6434524 236.133559,98.1202381 238.676734,98.1202381 C241.219908,98.1202381 243.418489,96.6434524 244.134598,94.6065476 L233.217074,94.6065476 Z M238.676734,100.071429 C234.701341,100.071429 231.343943,97.2797619 231.034048,93.7160714 C231.010716,93.4434524 231.102847,93.172619 231.288904,92.9720238 C231.474362,92.7696429 231.736996,92.6553571 232.010397,92.6553571 L245.341275,92.6553571 C245.614677,92.6553571 245.87731,92.7696429 246.062769,92.9720238 C246.248825,93.172619 246.340956,93.4434524 246.317624,93.7160714 C246.007729,97.2797619 242.650332,100.071429 238.676734,100.071429 L238.676734,100.071429 Z" id="Fill-251" fill="#415572" sketch:type="MSShapeGroup" mask="url(#mask-6)"></path>
            </g>
        </g>
    </g>
</svg>