<?xml version="1.0" encoding="UTF-8" standalone="no"?>
<svg width="324px" height="180px" viewBox="0 0 324 180" version="1.1" xmlns="http://www.w3.org/2000/svg" xmlns:xlink="http://www.w3.org/1999/xlink" xmlns:sketch="http://www.bohemiancoding.com/sketch/ns">
    <!-- Generator: Sketch 3.4.4 (17249) - http://www.bohemiancoding.com/sketch -->
    <title>Page 1</title>
    <desc>Created with Sketch.</desc>
    <defs>
        <path id="path-1" d="M0,0.378 L323.901153,0.378 L323.901153,180 L0,180 L0,0.378 Z"></path>
        <path id="path-3" d="M0,0.378 L323.901153,0.378 L323.901153,180 L0,180 L0,0.378 Z"></path>
    </defs>
    <g id="option2" stroke="none" stroke-width="1" fill="none" fill-rule="evenodd" sketch:type="MSPage">
        <g id="howitworks2" sketch:type="MSArtboardGroup" transform="translate(-142.000000, -168.000000)">
            <g id="Page-1" sketch:type="MSLayerGroup" transform="translate(142.000000, 168.000000)">
                <path d="M8.02845327,176.767122 C7.62129588,176.767122 7.24238063,176.508078 7.10901501,176.099557 C6.94897627,175.593209 7.22747506,175.052426 7.7319109,174.889643 L27.8771797,168.42373 C28.3816155,168.264861 28.9268455,168.538774 29.0923758,169.045122 C29.253199,169.550687 28.9747002,170.092252 28.4694799,170.255035 L8.32499564,176.720948 C8.22693269,176.752252 8.12651622,176.767122 8.02845327,176.767122" id="Fill-1" fill="#D1D3D4" sketch:type="MSShapeGroup"></path>
                <path d="M24.5195826,179.402557 C24.1124252,179.402557 23.7335099,179.143513 23.6001443,178.734991 C23.4401056,178.228643 23.7186044,177.687861 24.2230402,177.525078 L44.368309,171.059165 C44.8782363,170.897948 45.4203283,171.174209 45.5835051,171.680557 C45.7443283,172.186122 45.4658295,172.727687 44.9606092,172.89047 L24.8161249,179.356383 C24.718062,179.387687 24.6176455,179.402557 24.5195826,179.402557" id="Fill-3" fill="#D1D3D4" sketch:type="MSShapeGroup"></path>
                <path d="M50.6863874,175.805139 C50.27923,175.805139 49.9003148,175.546096 49.7669492,175.137574 C49.6037724,174.631226 49.8854092,174.090443 50.389845,173.927661 L70.5374673,167.461748 C71.0473947,167.302878 71.5894867,167.576791 71.7526634,168.083139 C71.9134867,168.588704 71.6349879,169.13027 71.1297676,169.293052 L50.9829298,175.758965 C50.8848668,175.79027 50.7844504,175.805139 50.6863874,175.805139" id="Fill-5" fill="#D1D3D4" sketch:type="MSShapeGroup"></path>
                <path d="M60.7588649,180 C60.3517075,180 59.9727923,179.740957 59.8394266,179.332435 C59.6793879,178.826087 59.9578867,178.285304 60.4623225,178.122522 L67.5338383,175.852957 C68.0367051,175.69487 68.5835041,175.968 68.7498189,176.474348 C68.9098576,176.979913 68.6313588,177.521478 68.126923,177.684261 L61.0554073,179.953826 C60.9573443,179.98513 60.8569278,180 60.7588649,180" id="Fill-7" fill="#D1D3D4" sketch:type="MSShapeGroup"></path>
                <path d="M73.5609443,175.891539 C73.1537869,175.891539 72.7748717,175.632496 72.6415061,175.223974 C72.4814673,174.717626 72.7576126,174.176843 73.2644019,174.014061 L80.6097094,171.656843 C81.1149298,171.498757 81.6593753,171.771887 81.8256901,172.278235 C81.9857288,172.7838 81.70723,173.325365 81.2027942,173.488148 L73.8574867,175.845365 C73.7594237,175.87667 73.6590073,175.891539 73.5609443,175.891539" id="Fill-9" fill="#D1D3D4" sketch:type="MSShapeGroup"></path>
                <path d="M244.333264,176.767122 C243.926107,176.767122 243.547191,176.508078 243.413826,176.099557 C243.253787,175.593209 243.532286,175.052426 244.036722,174.889643 L264.184344,168.42373 C264.68878,168.264861 265.23401,168.538774 265.39954,169.045122 C265.562717,169.550687 265.281864,170.092252 264.776644,170.255035 L244.629806,176.720948 C244.531743,176.752252 244.431327,176.767122 244.333264,176.767122" id="Fill-11" fill="#D1D3D4" sketch:type="MSShapeGroup"></path>
                <path d="M260.824315,179.402557 C260.417157,179.402557 260.038242,179.143513 259.904877,178.734991 C259.744838,178.228643 260.023337,177.687861 260.527772,177.525078 L280.673041,171.059165 C281.177477,170.897948 281.722707,171.174209 281.888237,171.680557 C282.049061,172.186122 281.770562,172.727687 281.265341,172.89047 L261.120857,179.356383 C261.022794,179.387687 260.922378,179.402557 260.824315,179.402557" id="Fill-13" fill="#D1D3D4" sketch:type="MSShapeGroup"></path>
                <path d="M286.99363,175.805139 C286.586473,175.805139 286.207557,175.546096 286.074192,175.137574 C285.914153,174.631226 286.192652,174.090443 286.697088,173.927661 L306.842356,167.461748 C307.349146,167.302878 307.894376,167.576791 308.057553,168.083139 C308.218376,168.588704 307.939877,169.13027 307.434657,169.293052 L287.290172,175.758965 C287.192109,175.79027 287.091693,175.805139 286.99363,175.805139" id="Fill-15" fill="#D1D3D4" sketch:type="MSShapeGroup"></path>
                <path d="M297.066108,180 C296.65895,180 296.280035,179.740957 296.146669,179.332435 C295.986631,178.826087 296.265129,178.285304 296.769565,178.122522 L303.838727,175.852957 C304.346301,175.69487 304.890747,175.968 305.053923,176.474348 C305.217885,176.97913 304.938601,177.521478 304.431812,177.684261 L297.36265,179.953826 C297.264587,179.98513 297.16417,180 297.066108,180" id="Fill-17" fill="#D1D3D4" sketch:type="MSShapeGroup"></path>
                <path d="M309.868265,175.891539 C309.461108,175.891539 309.082193,175.632496 308.948827,175.223974 C308.78565,174.719191 309.064934,174.176843 309.571723,174.014061 L316.914677,171.656843 C317.424604,171.498757 317.964343,171.771887 318.129873,172.278235 C318.290696,172.7838 318.012198,173.325365 317.506977,173.488148 L310.164808,175.845365 C310.066745,175.87667 309.966328,175.891539 309.868265,175.891539" id="Fill-19" fill="#D1D3D4" sketch:type="MSShapeGroup"></path>
                <path d="M298.682891,175.861957 C298.682891,157.131 297.146048,119.537609 295.250688,119.537609 C293.354542,119.537609 291.8177,157.131 291.8177,175.861957" id="Fill-21" fill="#415572" sketch:type="MSShapeGroup"></path>
                <path d="M298.683362,177.144104 C297.972601,177.144104 297.39756,176.570452 297.39756,175.861409 C297.39756,159.716191 296.385551,135.602452 295.250374,125.248539 C294.115197,135.602452 293.103187,159.716191 293.103187,175.861409 C293.103187,176.570452 292.528146,177.144104 291.817386,177.144104 C291.10741,177.144104 290.531585,176.570452 290.531585,175.861409 C290.531585,166.160191 290.936388,151.992626 291.538887,140.608017 C292.721919,118.254365 293.781783,118.254365 295.250374,118.254365 C296.719749,118.254365 297.779614,118.254365 298.961861,140.608017 C299.565144,151.992626 299.969163,166.160191 299.969163,175.861409 C299.969163,176.570452 299.394122,177.144104 298.683362,177.144104" id="Fill-23" fill="#415572" sketch:type="MSShapeGroup"></path>
                <path d="M275.156176,175.861957 C275.156176,157.131 273.619334,119.537609 271.723973,119.537609 C269.827828,119.537609 268.290985,157.131 268.290985,175.861957" id="Fill-25" fill="#415572" sketch:type="MSShapeGroup"></path>
                <path d="M275.155784,177.144104 C274.445024,177.144104 273.869983,176.570452 273.869983,175.861409 C273.869983,159.716191 272.857973,135.602452 271.722796,125.248539 C270.587619,135.602452 269.57561,159.716191 269.57561,175.861409 C269.57561,176.570452 269.000569,177.144104 268.289808,177.144104 C267.579832,177.144104 267.004007,176.570452 267.004007,175.861409 C267.004007,166.160191 267.408811,151.992626 268.011309,140.608017 C269.194341,118.254365 270.254205,118.254365 271.722796,118.254365 C273.192171,118.254365 274.252036,118.254365 275.434283,140.608017 C276.037566,151.992626 276.441585,166.160191 276.441585,175.861409 C276.441585,176.570452 275.866544,177.144104 275.155784,177.144104" id="Fill-27" fill="#415572" sketch:type="MSShapeGroup"></path>
                <path d="M263.186377,29.7822522 L263.186377,48.1031217 C263.186377,58.6010348 271.797089,67.1909478 282.32042,67.1909478 C292.844537,67.1909478 301.454464,58.6010348 301.454464,48.1031217 L301.454464,29.7822522 C301.454464,19.2835565 292.844537,10.6944261 282.32042,10.6944261 C278.664633,10.6944261 275.240275,11.7306 272.326629,13.5235565" id="Fill-29" fill="#FFFFFF" sketch:type="MSShapeGroup"></path>
                <path d="M282.320263,68.4735652 C271.062636,68.4735652 261.901987,59.3350435 261.901987,48.1030435 L261.901987,29.7829565 C261.901987,29.073913 262.477029,28.5002609 263.187004,28.5002609 C263.897765,28.5002609 264.472806,29.073913 264.472806,29.7829565 L264.472806,48.1030435 C264.472806,57.9208696 272.478665,65.9081739 282.320263,65.9081739 C292.161862,65.9081739 300.170075,57.9208696 300.170075,48.1030435 L300.170075,29.7829565 C300.170075,19.9651304 292.161862,11.9778261 282.320263,11.9778261 C279.03084,11.9778261 275.80653,12.8895652 273.001145,14.6152174 C272.398646,14.9838261 271.607082,14.8006957 271.23052,14.1957391 C270.85945,13.5931304 271.047731,12.8026957 271.65023,12.4309565 C274.864341,10.4556522 278.553077,9.41243478 282.320263,9.41243478 C293.580244,9.41243478 302.741677,18.5509565 302.741677,29.7829565 L302.741677,48.1030435 C302.741677,59.3350435 293.580244,68.4735652 282.320263,68.4735652" id="Fill-31" fill="#415572" sketch:type="MSShapeGroup"></path>
                <path d="M279.70363,31.3335391 C273.211862,31.3335391 270.630846,29.3034522 269.656492,28.0567565 C264.779233,28.3815391 261.052841,27.4001478 258.574594,25.1431043 C255.668792,22.5018 255.635843,19.0982348 255.635843,18.9542348 C255.635843,18.5371043 255.839814,18.1465826 256.181073,17.9063217 C256.527824,17.6676261 256.962439,17.6104957 257.353906,17.7466696 C263.488724,19.9340609 270.269189,13.3992783 270.336657,13.3343217 C270.848938,12.8389304 271.660114,12.8506696 272.155136,13.353887 C272.652511,13.8602348 272.642313,14.6733652 272.134739,15.1679739 C271.841335,15.4559739 265.502545,21.5869304 258.569102,20.6665826 C258.863291,21.4656261 259.390477,22.4266696 260.34208,23.279713 C262.401402,25.1266696 265.719068,25.863887 270.216628,25.4389304 C270.836385,25.3700609 271.348666,25.7347565 271.544792,26.285713 C271.549499,26.285713 272.912967,28.9074522 280.17041,28.7642348 C285.047669,28.6883217 286.691988,24.3964957 286.76024,24.2141478 C287.003436,23.5528435 287.739301,23.2116261 288.407698,23.4495391 C289.072957,23.6913652 289.417354,24.4207565 289.17808,25.0859739 C289.087862,25.3364087 286.895959,31.2247565 280.211204,31.3296261 C280.040182,31.3319739 279.86916,31.3335391 279.70363,31.3335391" id="Fill-33" fill="#415572" sketch:type="MSShapeGroup"></path>
                <path d="M272.2805,53.6355391 C273.290156,56.9201478 276.752955,59.3282348 280.773536,59.3282348 C284.794117,59.3282348 288.256916,56.9201478 289.266572,53.6355391 L272.2805,53.6355391 Z M280.773536,61.8936261 C274.881914,61.8936261 269.905023,57.7512783 269.445304,52.4647565 C269.415492,52.1063217 269.535522,51.7518 269.779502,51.4864957 C270.022698,51.2204087 270.367095,51.0701478 270.726398,51.0701478 L290.820674,51.0701478 C291.179977,51.0701478 291.523589,51.2204087 291.76757,51.4864957 C292.010766,51.7518 292.13158,52.1063217 292.101769,52.4647565 C291.642049,57.7512783 286.664374,61.8936261 280.773536,61.8936261 L280.773536,61.8936261 Z" id="Fill-35" fill="#415572" sketch:type="MSShapeGroup"></path>
                <path d="M265.783868,57.9301043 C269.01367,62.4504522 274.979035,67.190713 282.32042,67.190713 C289.653176,67.190713 296.125331,62.4379304 299.359055,57.9301043 C318.440537,71.564713 311.977796,111.347843 309.427374,123.705235 C308.980207,125.871496 307.073079,127.410887 304.856072,127.410887 L261.151374,127.410887 C258.733534,127.410887 256.715791,125.588191 256.501621,123.185583 C255.290348,109.595583 252.666183,67.3433217 265.783868,57.9301043" id="Fill-37" fill="#A9DFF4" sketch:type="MSShapeGroup"></path>
                <path d="M265.563031,59.7618783 C254.059069,70.2519652 256.676173,110.662748 257.783108,123.071791 C257.939224,124.813878 259.385064,126.127878 261.150982,126.127878 L304.855679,126.127878 C306.452929,126.127878 307.846992,125.000922 308.167854,123.446661 C310.556667,111.877357 316.864861,73.620313 299.60029,59.724313 C295.906062,64.2337043 289.409587,68.4738783 282.320028,68.4738783 C275.112793,68.4738783 269.103495,64.1546609 265.563031,59.7618783 M304.855679,128.69327 L261.150982,128.69327 C258.044348,128.69327 255.495495,126.375183 255.221704,123.298748 C253.724871,106.522748 251.683592,66.4680522 265.033491,56.8897043 C265.311989,56.6917043 265.655602,56.610313 265.995292,56.6658783 C266.33106,56.7206609 266.633093,56.908487 266.831573,57.186313 C269.842498,61.4030087 275.494846,65.908487 282.320028,65.908487 C289.045578,65.908487 295.197655,61.5266609 298.314488,57.1839652 C298.512968,56.9069217 298.811079,56.7206609 299.147631,56.6658783 C299.48183,56.6095304 299.830934,56.6877913 300.107079,56.8873565 C319.857742,71.0001391 313.198091,111.795965 310.684541,123.964748 C310.119699,126.704661 307.668125,128.69327 304.855679,128.69327" id="Fill-39" fill="#415572" sketch:type="MSShapeGroup"></path>
                <path d="M284.631019,73.4857826 L279.829857,69.7151739 C278.5519,68.7118696 277.448888,68.2884783 276.065024,69.1407391 L272.911319,70.9955217 C271.246602,72.0215217 269.094709,71.6411739 267.854409,70.1315217 C266.092414,67.9863913 264.098205,64.7080435 264.643435,61.2966522 C264.714825,60.8497826 264.964297,60.4420435 265.29222,60.129 L266.561547,58.9167391 C269.918438,63.1138696 275.513518,67.1904783 282.320656,67.1904783 C289.352946,67.1904783 295.562292,62.8196087 298.913692,58.4847391 L299.35929,59.499 C299.35929,59.499 297.062263,70.9156957 286.546777,73.8903913 C285.890147,74.0758696 285.167619,73.9068261 284.631019,73.4857826" id="Fill-41" fill="#FFFFFF" sketch:type="MSShapeGroup"></path>
                <path d="M266.464504,60.7852174 L266.180513,61.056 C266.03538,61.1945217 265.934964,61.3604348 265.914567,61.4966087 C265.444649,64.4353043 267.250576,67.3724348 268.847826,69.3187826 C269.694305,70.3471304 271.117395,70.5913043 272.235312,69.9041739 L275.411768,68.036087 C275.781269,67.8083478 276.140571,67.647913 276.486538,67.5438261 C271.783438,66.0138261 268.375554,62.9170435 266.464504,60.7852174 L266.464504,60.7852174 Z M285.426741,72.4781739 C285.652678,72.6558261 285.946082,72.7223478 286.19477,72.6558261 C292.495903,70.8738261 295.642547,65.7093913 297.068775,62.3332174 C293.460058,65.5873043 288.228988,68.4735652 282.320107,68.4735652 C281.57169,68.4735652 280.843671,68.4297391 280.138402,68.3467826 C280.306286,68.4633913 280.469462,68.5846957 280.625579,68.7067826 L285.426741,72.4781739 Z M285.997075,75.2486087 C285.230615,75.2486087 284.464939,74.988 283.837337,74.4949565 L283.834199,74.4949565 L279.033036,70.7227826 C277.865695,69.8024348 277.398131,69.8274783 276.740717,70.232087 L273.563477,72.1009565 C271.396678,73.4384348 268.501075,72.9438261 266.859109,70.9450435 C264.927661,68.5901739 262.75537,64.9713913 263.373559,61.095913 C263.481036,60.408 263.848184,59.7357391 264.400475,59.2043478 L265.673724,57.9897391 C265.934964,57.7416522 266.284068,57.6148696 266.648077,57.636 C267.009734,57.6610435 267.343148,57.8355652 267.566731,58.1173043 C269.440126,60.4596522 274.625695,65.9081739 282.320107,65.9081739 C289.133521,65.9081739 294.969443,61.4864348 297.897211,57.7017391 C298.173356,57.3417391 298.62523,57.164087 299.072397,57.2118261 C299.521918,57.2666087 299.911031,57.5546087 300.092252,57.9709565 L300.536281,58.9852174 C300.642189,59.2254783 300.672,59.493913 300.619438,59.7521739 C300.519022,60.2491304 298.037637,71.9733913 286.89847,75.1233913 C286.601927,75.2071304 286.300678,75.2486087 285.997075,75.2486087 L285.997075,75.2486087 Z" id="Fill-43" fill="#415572" sketch:type="MSShapeGroup"></path>
                <path d="M322.615116,117.51167 C322.207958,117.51167 321.806292,117.317583 321.555251,116.9568 C318.090099,111.941843 319.02915,106.133322 319.069159,105.889148 C322.70298,84.1052348 311.006031,67.8285391 310.887571,67.6665391 C310.468646,67.0960174 310.594167,66.2930609 311.166854,65.8743652 C311.73405,65.4556696 312.542874,65.5785391 312.961799,66.1498435 C313.471726,66.8448 325.422854,83.4251478 321.60546,106.313322 C321.598399,106.364974 320.81468,111.362713 323.67498,115.501148 C324.076646,116.083409 323.928375,116.883235 323.345489,117.284713 C323.12269,117.438104 322.86851,117.51167 322.615116,117.51167" id="Fill-45" fill="#415572" sketch:type="MSShapeGroup"></path>
                <path d="M244.752581,117.51167 C244.499186,117.51167 244.245007,117.438104 244.021424,117.284713 C243.439322,116.883235 243.291051,116.083409 243.692717,115.501148 C246.553017,111.362713 245.769298,106.364974 245.762237,106.314887 C241.944843,83.4243652 253.898324,66.8448 254.408252,66.1498435 C254.827177,65.5801043 255.633646,65.4595826 256.203981,65.8743652 C256.775884,66.2930609 256.902189,67.0960174 256.482479,67.6665391 C256.364019,67.8285391 244.664717,84.1052348 248.298538,105.893061 C248.338547,106.133322 249.277598,111.941843 245.812446,116.9568 C245.561404,117.317583 245.159738,117.51167 244.752581,117.51167" id="Fill-47" fill="#415572" sketch:type="MSShapeGroup"></path>
                <path d="M294.536554,174.342287 C294.536554,174.342287 288.637871,174.783678 286.617774,176.054635 C284.598462,177.324809 295.228486,176.272983 295.228486,176.272983" id="Fill-49" fill="#415572" sketch:type="MSShapeGroup"></path>
                <path d="M288.686197,177.979617 C285.562303,177.979617 285.366177,177.412226 285.152792,176.786922 C285.062574,176.531791 284.859388,175.64353 285.93102,174.969704 C288.15901,173.569617 293.804298,173.111009 294.4421,173.06327 C295.149722,173.010835 295.765557,173.539096 295.820473,174.245791 C295.84087,174.540052 295.762419,174.819443 295.611795,175.047183 C296.089557,175.196661 296.455921,175.616922 296.506129,176.145965 C296.576734,176.851096 296.061315,177.478748 295.356046,177.5484 C292.27687,177.852835 290.157925,177.979617 288.686197,177.979617" id="Fill-51" fill="#415572" sketch:type="MSShapeGroup"></path>
                <path d="M271.017606,173.744843 C271.017606,173.744843 265.118923,174.186235 263.098826,175.457191 C261.079514,176.727365 271.709538,175.675539 271.709538,175.675539" id="Fill-53" fill="#415572" sketch:type="MSShapeGroup"></path>
                <path d="M265.171249,177.382096 C262.045002,177.382096 261.848877,176.814704 261.635492,176.1894 C261.545274,175.932704 261.341303,175.046009 262.413719,174.372183 C264.638571,172.972096 270.28386,172.513487 270.921661,172.465748 C271.630068,172.421922 272.245119,172.940791 272.300818,173.64827 C272.320431,173.94253 272.242765,174.221922 272.089787,174.451226 C272.569119,174.599139 272.93862,175.020965 272.988828,175.549226 C273.058649,176.255139 272.544015,176.882009 271.835608,176.952443 C268.761923,177.256878 266.642978,177.382096 265.171249,177.382096" id="Fill-55" fill="#415572" sketch:type="MSShapeGroup"></path>
                <path d="M274.502685,70.059913 L275.887334,73.9651304 L278.702133,73.9651304 L280.773222,71.0647826 L277.637561,68.6942609 L274.502685,70.059913 Z" id="Fill-57" fill="#00A79D" sketch:type="MSShapeGroup"></path>
                <path d="M276.795632,72.6822 L278.03907,72.6822 L279.000087,71.3345478 L277.460891,70.1708087 L276.112329,70.7569826 L276.795632,72.6822 Z M278.701976,75.2475913 L275.886392,75.2475913 C275.341947,75.2475913 274.857123,74.9040261 274.67355,74.3922 L273.289685,70.4862 C273.066102,69.852287 273.370489,69.1526348 273.987893,68.8842 L277.121985,67.5193304 C277.551893,67.3299391 278.043777,67.3925478 278.412494,67.6719391 L281.549724,70.0432435 C282.104368,70.4611565 282.225182,71.2445478 281.820378,71.8088087 L279.748504,74.7091565 C279.507661,75.0472435 279.118547,75.2475913 278.701976,75.2475913 L278.701976,75.2475913 Z" id="Fill-59" fill="#415572" sketch:type="MSShapeGroup"></path>
                <path d="M275.887098,73.9652087 C275.887098,73.9652087 272.796154,91.348513 286.925064,92.1193826 L292.223602,88.2650348 L289.464503,82.4291217 C289.464503,82.4291217 280.74396,83.780687 278.701897,73.9652087 L275.887098,73.9652087 Z" id="Fill-61" fill="#00A79D" sketch:type="MSShapeGroup"></path>
                <path d="M277.019137,75.2474348 C276.778294,77.6508261 276.552357,83.601 279.572696,87.395087 C281.172299,89.4056087 283.517965,90.5513478 286.546934,90.8080435 L290.607524,87.8536957 L288.673723,83.7614348 C286.192338,83.7825652 279.816677,83.1087391 277.68675,75.2474348 L277.019137,75.2474348 Z M286.925849,93.4023913 C286.903098,93.4023913 286.877994,93.4008261 286.855244,93.4000435 C282.8378,93.1801304 279.706062,91.6939565 277.551815,88.9822174 C272.993849,83.2464783 274.553442,74.1267391 274.620909,73.740913 C274.729171,73.1281304 275.263418,72.6820435 275.886314,72.6820435 L278.701897,72.6820435 C279.312241,72.6820435 279.837074,73.1093478 279.959457,73.7041304 C281.732435,82.229087 288.96242,81.2124783 289.266023,81.1623913 C289.838711,81.0794348 290.386294,81.369 290.627137,81.8823913 L293.387021,87.7183043 C293.650614,88.2739565 293.480377,88.9391739 292.983001,89.3015217 L287.684464,93.155087 C287.463234,93.3155217 287.197287,93.4023913 286.925849,93.4023913 L286.925849,93.4023913 Z" id="Fill-63" fill="#415572" sketch:type="MSShapeGroup"></path>
                <path d="M301.454778,40.1948609 C301.454778,40.1948609 304.823436,35.8850348 307.065548,37.4690348 C310.922952,40.1948609 301.454778,47.4097304 301.454778,47.4097304 L301.454778,40.1948609 Z" id="Fill-65" fill="#FFFFFF" sketch:type="MSShapeGroup"></path>
                <path d="M302.741442,40.6551913 L302.741442,44.6496261 C304.780367,42.7744957 306.729074,40.4908435 306.70397,39.1619739 C306.699263,38.9326696 306.634149,38.7362348 306.322701,38.5171043 C305.601742,38.0099739 303.851515,39.3685826 302.741442,40.6551913 M301.455641,48.6925826 C301.262653,48.6925826 301.066527,48.6487565 300.885307,48.5603217 C300.445985,48.3435391 300.169839,47.8990174 300.169839,47.4106696 L300.169839,40.1958 C300.169839,39.9101478 300.265549,39.6315391 300.441277,39.407713 C300.86334,38.8661478 304.652493,34.1884957 307.809336,36.4228435 C308.748386,37.0864957 309.255176,38.0185826 309.275573,39.1158 C309.340687,42.8245826 303.424745,47.5241478 302.237006,48.4296261 C302.007931,48.6041478 301.731786,48.6925826 301.455641,48.6925826" id="Fill-67" fill="#415572" sketch:type="MSShapeGroup"></path>
                <path d="M128.257636,85.8153913 C126.858866,85.8169565 125.362033,85.496087 123.858139,84.6391304 C123.239951,84.2885217 123.026566,83.5043478 123.378023,82.8892174 C123.732619,82.2709565 124.523399,82.0627826 125.133742,82.4118261 C129.395166,84.8371304 133.907631,81.1393043 133.955486,81.1009565 C134.246537,80.859913 134.630943,80.7597391 134.998091,80.8215652 C160.187718,85.1666087 169.983815,69.7828696 170.081878,69.6286957 C170.45844,69.0206087 171.254711,68.8366957 171.849365,69.2076522 C172.455001,69.5786087 172.643282,70.3690435 172.271428,70.9708696 C171.844658,71.6650435 161.584135,87.7758261 135.113413,83.4417391 C134.051195,84.1969565 131.406633,85.8153913 128.257636,85.8153913" id="Fill-69" fill="#415572" sketch:type="MSShapeGroup"></path>
                <path d="M193.54544,74.3191043 C178.191135,74.3191043 177.467823,61.8795391 177.467823,61.8795391 C180.89375,65.5820609 186.826951,66.9406696 193.54544,66.9406696 C200.346302,66.9406696 206.342263,65.5499739 209.747794,61.7441478 C210.213789,61.223713 210.945731,60.9842348 211.593731,61.2464087 C211.593731,61.2464087 207.118922,74.3191043 193.54544,74.3191043" id="Fill-71" fill="#FFFFFF" sketch:type="MSShapeGroup"></path>
                <path d="M179.634465,65.2268348 C181.020683,68.5349217 184.558794,73.036487 193.546852,73.036487 C201.464063,73.036487 206.084789,68.1952696 208.42261,64.6109217 C204.974717,67.0104 199.989981,68.2226609 193.546852,68.2226609 C187.680334,68.2226609 183.021952,67.2170087 179.634465,65.2268348 M193.546852,75.6018783 C177.165632,75.6018783 176.191278,62.0901391 176.184218,61.9539652 C176.151269,61.4139652 176.46507,60.9115304 176.964799,60.6986609 C177.462174,60.490487 178.045061,60.6125739 178.411424,61.0109217 C181.263879,64.0944 186.356877,65.6580522 193.546852,65.6580522 C200.831753,65.6580522 205.959269,64.0529217 208.789758,60.8904 C209.638591,59.9395304 210.964402,59.6131826 212.076828,60.0561391 C212.709923,60.3120522 213.030785,61.0156174 212.812692,61.660487 C212.764838,61.7997913 207.872673,75.6018783 193.546852,75.6018783" id="Fill-73" fill="#415572" sketch:type="MSShapeGroup"></path>
                <path d="M209.110855,175.768278 C209.110855,157.068626 207.576366,119.537843 205.684143,119.537843 C203.791136,119.537843 202.257431,157.068626 202.257431,175.768278" id="Fill-75" fill="#FFFFFF" sketch:type="MSShapeGroup"></path>
                <path d="M209.111012,177.051443 C208.400252,177.051443 207.825211,176.477791 207.825211,175.768748 C207.825211,159.661878 206.815554,135.609965 205.683516,125.26153 C204.553046,135.61153 203.54339,159.661878 203.54339,175.768748 C203.54339,176.477791 202.968349,177.051443 202.257588,177.051443 C201.547613,177.051443 200.972571,176.477791 200.972571,175.768748 C200.972571,166.08553 201.376591,151.939878 201.976736,140.572487 C203.15663,118.254835 204.216494,118.254835 205.683516,118.254835 C207.149753,118.254835 208.209617,118.254835 209.392649,140.572487 C209.992794,151.938313 210.396814,166.0824 210.396814,175.768748 C210.396814,176.477791 209.821772,177.051443 209.111012,177.051443" id="Fill-77" fill="#415572" sketch:type="MSShapeGroup"></path>
                <path d="M185.623209,175.418922 C185.623209,156.71927 184.08872,119.53753 182.196497,119.53753 C180.30349,119.53753 178.769785,156.71927 178.769785,175.418922" id="Fill-79" fill="#FFFFFF" sketch:type="MSShapeGroup"></path>
                <path d="M185.623679,176.702009 C184.912919,176.702009 184.337878,176.128357 184.337878,175.419313 C184.337878,158.994704 183.33842,135.229226 182.196183,125.096009 C181.053161,135.229226 180.056057,158.994704 180.056057,175.419313 C180.056057,176.128357 179.481016,176.702009 178.770256,176.702009 C178.06028,176.702009 177.485239,176.128357 177.485239,175.419313 C177.485239,165.754878 177.889258,151.680443 178.489403,140.397574 C179.669297,118.254443 180.729161,118.254443 182.196183,118.254443 C183.66242,118.254443 184.722285,118.254443 185.905316,140.397574 C186.505462,151.678096 186.909481,165.753313 186.909481,175.419313 C186.909481,176.128357 186.33444,176.702009 185.623679,176.702009" id="Fill-81" fill="#415572" sketch:type="MSShapeGroup"></path>
                <path d="M176.266591,58.0325478 C179.490901,62.5458522 185.446068,67.2775043 192.775685,67.2775043 C200.095889,67.2775043 206.557061,62.5333304 209.785293,58.0333304 L209.786077,58.0325478 C232.455094,74.2317652 219.011056,127.397504 219.011056,127.397504 L167.419743,127.397504 C167.419743,127.397504 160.60476,69.2715913 176.266591,58.0325478" id="Fill-83" fill="#F06E46" sketch:type="MSShapeGroup"></path>
                <path d="M168.575082,126.115591 L217.993319,126.115591 C219.618026,119.006374 228.773968,74.9243739 210.027469,59.8270696 C206.338733,64.3278522 199.854811,68.5602 192.77545,68.5602 C185.580767,68.5602 179.581668,64.2488087 176.04591,59.8630696 C163.527585,71.2828957 167.761552,118.195591 168.575082,126.115591 M219.010036,128.680983 L167.420292,128.680983 C166.766801,128.680983 166.219217,128.193417 166.141552,127.546983 C165.860699,125.143591 159.423847,68.538287 175.51637,56.9908957 C175.794869,56.792113 176.138481,56.7130696 176.478171,56.7670696 C176.814723,56.8218522 177.115973,57.0096783 177.314452,57.288287 C180.322239,61.4963739 185.96282,65.9948087 192.77545,65.9948087 C199.488447,65.9948087 205.630326,61.6208087 208.741668,57.2867217 C208.940147,57.0096783 209.239043,56.8234174 209.575595,56.7678522 C209.912147,56.7169826 210.258898,56.7905478 210.535043,56.9908957 C233.650443,73.5078522 220.815963,125.506722 220.255828,127.71133 C220.112263,128.28107 219.599983,128.680983 219.010036,128.680983" id="Fill-85" fill="#415572" sketch:type="MSShapeGroup"></path>
                <path d="M210.763804,58.908913 C210.763804,58.908913 214.423514,61.6840435 216.372221,65.9414348 C216.372221,65.9414348 205.448792,75.8367391 201.827523,76.6123043 C198.414148,77.3440435 196.162623,72.5302174 192.297373,73.2095217 C188.467427,73.8825652 188.781228,82.5663913 188.781228,82.5663913 L184.697887,82.5663913 C184.697887,82.5663913 185.780502,75.839087 184.279746,73.8825652 C182.767223,71.9119565 179.538206,73.6876957 178.558361,75.6723913 C178.558361,75.6723913 173.368085,68.2485652 172.750681,63.7094348 C172.134061,59.1695217 176.38764,58.0323913 176.38764,58.0323913 C176.38764,58.0323913 182.090981,67.656913 189.200153,68.0474348 C200.613112,68.6743043 202.829335,66.8242174 210.763804,58.908913" id="Fill-87" fill="#FFFFFF" sketch:type="MSShapeGroup"></path>
                <path d="M186.166085,81.2836174 L187.497388,81.2836174 C187.575054,78.5194435 188.200303,72.6279652 192.074967,71.9470957 C194.556352,71.5033565 196.501921,72.856487 198.05916,73.9419652 C199.330056,74.8302261 200.422085,75.5956174 201.559615,75.3592696 C203.815063,74.8756174 210.567286,69.3942261 214.786347,65.6377043 C213.550754,63.3384 211.840536,61.578313 210.830879,60.6540522 C203.380448,68.0379652 200.537407,69.9569217 189.129155,69.3277043 C182.740942,68.9770957 177.597737,62.1817043 175.885165,59.6288348 C174.975925,60.1390957 173.715228,61.2676174 174.024323,63.5356174 C174.436187,66.5611826 177.150569,71.1417913 178.640342,73.468487 C179.621756,72.5395304 180.907557,71.8790087 182.107848,71.7616174 C183.421107,71.6489217 184.541378,72.1122261 185.302347,73.1045739 C186.653262,74.8670087 186.427325,78.958487 186.166085,81.2836174 M188.782405,83.8490087 L184.69671,83.8490087 C184.320148,83.8490087 183.963984,83.6838783 183.717649,83.3982261 C183.474453,83.1125739 183.368545,82.7337913 183.426599,82.3636174 C183.903577,79.3881391 183.976536,75.5979652 183.25793,74.6627478 C183.115151,74.4749217 182.87117,74.2690957 182.358889,74.3152696 C181.40964,74.4068348 180.171693,75.3060522 179.70962,76.2397043 C179.508787,76.6466609 179.107122,76.9174435 178.652894,76.9510957 C178.243383,76.9808348 177.763267,76.7781391 177.502027,76.4064 C177.283935,76.0925739 172.125824,68.6742261 171.477824,63.8807478 C170.86748,59.4050087 174.205543,57.2880522 176.053833,56.7934435 C176.610831,56.6439652 177.200778,56.8850087 177.494967,57.3780522 C177.547528,57.4688348 182.936284,66.4195304 189.269582,66.7677913 C200.123189,67.3586609 201.944022,65.8936174 209.854172,58.0017913 C210.309185,57.5470957 211.03485,57.5009217 211.54164,57.888313 C211.702463,58.0096174 215.484555,60.9107478 217.540739,65.4084 C217.772168,65.9155304 217.649,66.5157913 217.234783,66.8906609 C216.092545,67.9276174 205.944206,77.0426609 202.099354,77.8667478 C199.865088,78.3386609 198.126628,77.1217043 196.585078,76.0440522 C195.181601,75.0642261 193.95856,74.2307478 192.522134,74.4717913 C190.665998,74.7989217 189.960729,79.4671826 190.068206,82.5201391 C190.080758,82.8684 189.950531,83.206487 189.70655,83.4569217 C189.465708,83.7073565 189.131509,83.8490087 188.782405,83.8490087" id="Fill-89" fill="#415572" sketch:type="MSShapeGroup"></path>
                <path d="M193.834294,68.1465913 C193.834294,68.1465913 190.882992,71.1416348 189.623079,76.1229391" id="Fill-91" fill="#FFFFFF" sketch:type="MSShapeGroup"></path>
                <path d="M189.62402,77.4056348 C189.52125,77.4056348 189.415342,77.393113 189.310219,77.3665043 C188.622209,77.1943304 188.2025,76.4962435 188.378229,75.8098957 C189.70404,70.5499826 192.787923,67.3804174 192.918936,67.2473739 C193.416311,66.7402435 194.226703,66.7386783 194.734277,67.2309391 C195.238713,67.7255478 195.248911,68.537113 194.754674,69.0434609 C194.726432,69.0724174 192.019894,71.8827652 190.869812,76.4359826 C190.723894,77.0182435 190.199062,77.4056348 189.62402,77.4056348" id="Fill-93" fill="#415572" sketch:type="MSShapeGroup"></path>
                <path d="M184.982034,80.0650957 C184.982034,80.0650957 185.640232,71.8077913 182.76738,65.3097913" id="Fill-95" fill="#FFFFFF" sketch:type="MSShapeGroup"></path>
                <path d="M184.983289,81.3474783 C184.947986,81.3474783 184.912684,81.345913 184.880519,81.3435652 C184.172112,81.2872174 183.642572,80.6697391 183.699841,79.9630435 C183.705333,79.8847826 184.295279,71.942087 181.593449,65.8267826 C181.304752,65.1795652 181.600509,64.4212174 182.248509,64.1355652 C182.901216,63.8514783 183.657478,64.1418261 183.943822,64.7921739 C186.914737,71.510087 186.291841,79.8166957 186.261246,80.1665217 C186.208684,80.838 185.646195,81.3474783 184.983289,81.3474783" id="Fill-97" fill="#415572" sketch:type="MSShapeGroup"></path>
                <path d="M233.005188,117.516678 C232.598031,117.516678 232.196365,117.324157 231.947677,116.961809 C228.482525,111.953896 229.421576,106.155548 229.461585,105.911374 C233.095406,84.1180696 221.411009,67.9157217 221.292549,67.7560696 C220.873624,67.1847652 220.996791,66.3818087 221.569479,65.9623304 C222.136675,65.5459826 222.947852,65.6649391 223.367561,66.2378087 C223.876704,66.9312 235.807435,83.4833739 231.997886,106.33633 C231.990825,106.3872 231.207106,111.375548 234.062699,115.505374 C234.466719,116.088417 234.320801,116.888243 233.735561,117.289722 C233.512762,117.443113 233.258583,117.516678 233.005188,117.516678" id="Fill-99" fill="#415572" sketch:type="MSShapeGroup"></path>
                <path d="M204.971422,174.251113 C204.971422,174.251113 199.082938,174.691722 197.065979,175.96033 C195.049804,177.228939 209.110463,176.178678 209.110463,176.178678" id="Fill-101" fill="#FFFFFF" sketch:type="MSShapeGroup"></path>
                <path d="M200.367013,177.886878 C196.07264,177.886878 195.874161,177.283487 195.653715,176.61827 C195.482693,176.103313 195.585463,175.375487 196.381735,174.8754 C198.604233,173.476878 204.241677,173.019052 204.877124,172.972096 C205.577686,172.904009 206.200582,173.446357 206.255497,174.153835 C206.280601,174.513835 206.158219,174.849574 205.936989,175.100009 C206.968611,175.042096 208.01357,174.974791 209.015381,174.899661 C209.711236,174.831574 210.338839,175.375487 210.394538,176.082965 C210.4471,176.789661 209.914422,177.404791 209.2068,177.457226 C205.146209,177.760096 202.328272,177.886878 200.367013,177.886878" id="Fill-103" fill="#415572" sketch:type="MSShapeGroup"></path>
                <path d="M181.491542,173.654687 C181.491542,173.654687 175.603058,174.095296 173.586099,175.363904 C171.569924,176.632513 185.623523,175.582252 185.623523,175.582252" id="Fill-105" fill="#FFFFFF" sketch:type="MSShapeGroup"></path>
                <path d="M176.884701,177.290687 C172.592682,177.290687 172.394987,176.687296 172.173757,176.022078 C172.002735,175.507122 172.105505,174.779296 172.901776,174.279209 C175.124275,172.880687 180.761718,172.422861 181.397166,172.375904 C182.082822,172.314078 182.720624,172.85173 182.776323,173.557643 C182.801428,173.917643 182.678261,174.253383 182.457031,174.503817 C183.486299,174.445904 184.528905,174.377035 185.528362,174.30347 C186.218725,174.243209 186.85182,174.780861 186.906735,175.486774 C186.959297,176.19347 186.427403,176.8086 185.718997,176.861035 C181.658406,177.163904 178.84596,177.290687 176.884701,177.290687" id="Fill-107" fill="#415572" sketch:type="MSShapeGroup"></path>
                <path d="M180.390256,17.4878609 C176.146876,21.0041217 173.433277,26.3023826 173.433277,32.201687 L173.433277,53.0887304 C173.433277,63.6093391 182.062033,69.5462087 192.608115,69.5462087 C203.154198,69.5462087 211.782953,63.6093391 211.782953,53.0887304 L211.782953,32.201687 C211.782953,21.7554261 203.275011,13.1944696 192.830914,13.0747304" id="Fill-109" fill="#FFFFFF" sketch:type="MSShapeGroup"></path>
                <path d="M192.607331,70.8283565 C180.561277,70.8283565 172.148261,63.5336609 172.148261,53.0897478 L172.148261,32.2019217 C172.148261,26.1304435 174.853229,20.4072261 179.56888,16.5004435 C180.111757,16.0512261 180.925287,16.1224435 181.379515,16.6687043 C181.834527,17.2134 181.759215,18.0210522 181.211631,18.4749652 C177.085926,21.8926174 174.719863,26.8958348 174.719863,32.2019217 L174.719863,53.0897478 C174.719863,63.5712261 183.704784,68.2629652 192.607331,68.2629652 C201.512231,68.2629652 210.497152,63.5712261 210.497152,53.0897478 L210.497152,32.2019217 C210.497152,22.4740957 202.564251,14.4703565 192.816009,14.3576609 C192.105248,14.3482696 191.537268,13.7683565 191.545113,13.0600957 C191.552958,12.3518348 192.230769,11.7382696 192.84582,11.7922696 C203.99597,11.9214 213.068754,21.0763565 213.068754,32.2019217 L213.068754,53.0897478 C213.068754,63.5336609 204.653384,70.8283565 192.607331,70.8283565" id="Fill-111" fill="#415572" sketch:type="MSShapeGroup"></path>
                <path d="M178.915938,8.56510435 C181.676606,11.1571043 186.864529,12.939887 192.864413,13.065887" id="Fill-113" fill="#FFFFFF" sketch:type="MSShapeGroup"></path>
                <path d="M192.863471,14.3486609 L192.836014,14.3486609 C186.663539,14.2195304 181.131219,12.4070087 178.034784,9.49961739 C177.517796,9.01361739 177.492692,8.20205217 177.979868,7.68631304 C178.469399,7.1697913 179.280575,7.14631304 179.797563,7.63074783 C182.404469,10.0787478 187.419016,11.6697913 192.890929,11.7832696 C193.599336,11.7981391 194.164178,12.384313 194.149273,13.0925739 C194.134367,13.7922261 193.561679,14.3486609 192.863471,14.3486609" id="Fill-115" fill="#415572" sketch:type="MSShapeGroup"></path>
                <path d="M169.989856,12.425087 C172.750524,15.017087 177.938446,16.7998696 183.93833,16.9258696" id="Fill-117" fill="#FFFFFF" sketch:type="MSShapeGroup"></path>
                <path d="M183.938644,18.209113 L183.911186,18.209113 C177.738712,18.0792 172.204039,16.265113 169.107603,13.359287 C168.589831,12.873287 168.564726,12.0617217 169.051903,11.5452 C169.53908,11.0278957 170.353395,11.0052 170.870383,11.4904174 C173.477288,13.9376348 178.494189,15.5286783 183.966102,15.6437217 C184.676862,15.6585913 185.239351,16.2447652 185.224446,16.9538087 C185.20954,17.6526783 184.636852,18.209113 183.938644,18.209113" id="Fill-119" fill="#415572" sketch:type="MSShapeGroup"></path>
                <path d="M201.958379,53.693687 C201.557497,58.2993391 197.245865,61.9384696 191.927715,61.9384696 C186.61035,61.9384696 182.298718,58.2993391 181.897836,53.693687 L201.958379,53.693687 Z" id="Fill-121" fill="#FFFFFF" sketch:type="MSShapeGroup"></path>
                <path d="M183.451467,54.9758348 C184.461123,58.2541826 187.919215,60.6560087 191.929598,60.6560087 C195.939981,60.6560087 199.394935,58.2541826 200.404591,54.9758348 L183.451467,54.9758348 Z M191.929598,63.2214 C186.045821,63.2214 181.07599,59.085313 180.616271,53.8050522 C180.583322,53.4466174 180.706489,53.0920957 180.95047,52.8267913 C181.193666,52.5607043 181.535709,52.4104435 181.897366,52.4104435 L201.958692,52.4104435 C202.320349,52.4104435 202.662392,52.5607043 202.905588,52.8267913 C203.149569,53.0920957 203.272736,53.4466174 203.239787,53.8050522 C202.780068,59.085313 197.810237,63.2214 191.929598,63.2214 L191.929598,63.2214 Z" id="Fill-123" fill="#415572" sketch:type="MSShapeGroup"></path>
                <path d="M169.989777,121.466348 L215.22661,120.985043 C215.85892,120.978783 216.377477,121.48513 216.383753,122.115913 C216.390814,122.746696 215.88324,123.264 215.25093,123.270261 L215.22661,123.270261 L169.989777,122.789739 C169.623414,122.785826 169.33001,122.486087 169.333932,122.120609 C169.337855,121.760609 169.630475,121.470261 169.989777,121.466348" id="Fill-125" fill="#415572" sketch:type="MSShapeGroup"></path>
                <path d="M211.782796,42.6521739 C211.782796,42.6521739 215.528016,37.0056522 218.091774,39.2353043 C221.356094,42.0746087 215.832404,47.0097391 211.782796,47.9441739 L211.782796,42.6521739 Z" id="Fill-127" fill="#FFFFFF" sketch:type="MSShapeGroup"></path>
                <path d="M213.068676,43.0513043 L213.068676,46.1465217 C215.266071,45.1416522 217.35285,43.2352174 217.737257,41.6997391 C217.890235,41.0838261 217.744318,40.6361739 217.247727,40.2026087 C217.049247,40.0304348 216.873519,39.974087 216.619339,40.0061739 C215.550061,40.1493913 213.982623,41.7795652 213.068676,43.0513043 M211.782875,49.2268696 C211.494177,49.2268696 211.21254,49.1298261 210.981896,48.9474783 C210.675155,48.704087 210.497073,48.3346957 210.497073,47.9441739 L210.497073,42.6513913 C210.497073,42.4001739 210.572385,42.1544348 210.710458,41.943913 C210.989741,41.5244348 213.505645,37.8383478 216.275727,37.4634783 C217.254787,37.335913 218.178933,37.6098261 218.937548,38.2687826 C220.160589,39.333913 220.619523,40.7731304 220.23041,42.3226957 C219.449829,45.4421739 215.303727,48.4489565 212.071572,49.194 C211.976647,49.2151304 211.878584,49.2268696 211.782875,49.2268696" id="Fill-129" fill="#415572" sketch:type="MSShapeGroup"></path>
                <path d="M192.484321,95.7345652 C192.348601,95.643 192.165028,95.6461304 192.032446,95.7423913 C191.897512,95.8394348 191.838674,96.0147391 191.885744,96.1728261 C191.932815,96.3316957 192.079517,96.4467391 192.245047,96.4537826 C192.409008,96.4616087 192.563555,96.3637826 192.627885,96.2135217 C192.700059,96.0421304 192.638083,95.8378696 192.484321,95.7345652 C192.303885,95.6132609 192.664756,95.8558696 192.484321,95.7345652" id="Fill-131" fill="#FFFFFF" sketch:type="MSShapeGroup"></path>
                <path d="M187.431882,99.4064087 C187.5221,99.4064087 187.611533,99.4048435 187.701751,99.401713 C187.881402,99.3954522 188.060269,99.3821478 188.239136,99.3610174 C188.3827,99.3445826 187.944947,99.3954522 188.239136,99.3610174 C188.418003,99.3406696 188.567843,99.5089304 188.52548,99.6834522 C188.505867,99.7632783 188.448599,99.8313652 188.372502,99.8634522 C188.325431,99.8838 188.273654,99.8861478 188.222662,99.8908435 C188.163039,99.897887 188.102632,99.9033652 188.042226,99.9080609 C187.566032,99.9464087 187.084347,99.9385826 186.608938,99.8861478 C186.178245,99.8391913 185.751475,99.753887 185.336473,99.6294522 C184.932453,99.5081478 184.540201,99.3492783 184.165209,99.1559739 C183.784724,98.9603217 183.426206,98.727887 183.084947,98.4704087 C182.697402,98.177713 182.340453,97.8466696 182.019591,97.4835391 C181.700298,97.1219739 181.417877,96.7291043 181.177034,96.3119739 C180.931485,95.8870174 180.729867,95.4370174 180.576889,94.9705826 C180.419988,94.4947565 180.313296,94.0032783 180.259165,93.5055391 C180.203465,92.9991913 180.201112,92.4865826 180.252889,91.9794522 C180.303882,91.4801478 180.406652,90.9863217 180.560415,90.5089304 C180.711039,90.0409304 180.909519,89.5885826 181.152715,89.1612783 C181.393557,88.7371043 181.677548,88.3371913 181.999194,87.9701478 C182.317703,87.6062348 182.673083,87.2744087 183.05749,86.9801478 C183.445819,86.6843217 183.864744,86.4268435 184.30485,86.2147565 C184.752802,85.9987565 185.22272,85.8289304 185.705974,85.7099739 C186.197858,85.587887 186.702293,85.5190174 187.209083,85.5025826 C187.716657,85.4853652 188.226584,85.5213652 188.726313,85.6105826 C189.212705,85.6966696 189.690468,85.8336261 190.149402,86.0175391 C190.602061,86.199887 191.035892,86.4276261 191.443049,86.6960609 C191.847853,86.9644957 192.226768,87.2736261 192.570381,87.6171913 C192.714729,87.7611913 192.846526,87.9083217 192.936744,88.0930174 C193.01441,88.2542348 193.059911,88.4303217 193.070894,88.6079739 C193.09286,88.971887 192.967339,89.3358 192.724143,89.6081478 C192.440153,89.9251043 192.018875,90.0964957 191.593674,90.0659739 C191.388918,90.051887 191.188085,89.9916261 191.010003,89.8906696 C190.917431,89.8382348 190.831921,89.7748435 190.754255,89.7028435 C190.665606,89.6214522 190.585586,89.5322348 190.497722,89.4500609 C190.143911,89.1213652 189.736754,88.8498 189.295862,88.6502348 C188.843204,88.4451913 188.356027,88.3168435 187.861005,88.2722348 C187.355785,88.2268435 186.843504,88.2651913 186.35162,88.3888435 C185.873073,88.5093652 185.414923,88.7104957 185.002274,88.9804957 C184.596686,89.2458 184.23503,89.5760609 183.935349,89.9564087 C183.631746,90.339887 183.391688,90.7742348 183.229296,91.2351913 C183.063766,91.7055391 182.979039,92.2032783 182.978255,92.7018 C182.976686,93.2042348 183.059059,93.705887 183.224589,94.1801478 C183.383843,94.6387565 183.619979,95.0699739 183.918875,95.4526696 C184.216986,95.8345826 184.576289,96.1664087 184.981092,96.4340609 C185.393741,96.7071913 185.851107,96.9114522 186.331223,97.0351043 C186.822323,97.161887 187.336172,97.2033652 187.841393,97.1595391 C188.334846,97.1172783 188.819669,96.9928435 189.271543,96.791713 C189.319398,96.7705826 189.365683,96.7431913 189.417461,96.7330174 C189.459824,96.7244087 189.505325,96.7267565 189.546904,96.7400609 C189.630846,96.7666696 189.696744,96.8347565 189.721063,96.9192783 C189.744599,97.0022348 189.724986,97.0930174 189.669286,97.1587565 C189.637122,97.1971043 189.597112,97.2198 189.552395,97.2401478 C189.498264,97.2659739 189.443349,97.2894522 189.388434,97.3129304 C188.928715,97.5054522 188.440754,97.6283217 187.944947,97.6768435 C187.440511,97.7261478 186.928231,97.6995391 186.43164,97.5970174 C186.495185,97.6721478 186.555591,97.7496261 186.613645,97.8286696 C186.672482,97.9092783 186.728967,97.9922348 186.782313,98.0767565 C186.790158,98.0884957 186.811339,98.1229304 186.811339,98.1229304 C186.811339,98.1229304 186.821538,98.123713 186.836444,98.1252783 C186.862332,98.1284087 186.888221,98.1315391 186.913325,98.133887 C186.965102,98.1393652 187.016095,98.1432783 187.067088,98.1471913 C187.27655,98.1612783 187.486797,98.1644087 187.69626,98.1550174 C188.108908,98.1370174 188.519988,98.0720609 188.918516,97.961713 C189.304492,97.8544957 189.677916,97.7042348 190.030942,97.5148435 C190.376908,97.3301478 190.701693,97.107887 190.999804,96.8527565 C191.073548,96.7901478 191.145722,96.7251913 191.215543,96.6586696 C191.277519,96.5999739 191.334787,96.531887 191.411669,96.4927565 C191.547388,96.423887 191.716056,96.4403217 191.835301,96.5350174 C191.954545,96.629713 192.010245,96.7885826 191.974158,96.9364957 C191.95533,97.0124087 191.914536,97.0773652 191.85962,97.1321478 C191.790584,97.2002348 191.719979,97.2675391 191.648589,97.3324957 C191.358323,97.593887 191.044521,97.8294522 190.711107,98.0329304 C190.372986,98.2395391 190.014468,98.4148435 189.643398,98.5533652 C189.261344,98.6958 188.86517,98.8006696 188.463504,98.8664087 C188.048502,98.933713 187.628008,98.9587565 187.208298,98.9431043 C187.242032,99.0362348 187.272628,99.1301478 187.300085,99.2248435 C187.312637,99.2671043 187.324405,99.3093652 187.335388,99.3516261 C187.338526,99.3649304 187.348724,99.4056261 187.348724,99.4056261 L187.431882,99.4064087 Z" id="Fill-133" fill="#FFFFFF" sketch:type="MSShapeGroup"></path>
                <path d="M191.464623,98.0779304 C191.05825,98.3808 190.618928,98.6382783 190.154502,98.8425391 C189.922289,98.9442783 189.6838,99.0334957 189.440603,99.1078435 C189.319005,99.1454087 189.195838,99.1798435 189.071887,99.2103652 C189.017756,99.2236696 188.962056,99.2322783 188.914201,99.2612348 C188.873407,99.2862783 188.839674,99.3222783 188.817708,99.3653217 C188.770637,99.4561043 188.78162,99.5695826 188.846734,99.6494087 C188.919693,99.7401913 189.029523,99.7605391 189.138569,99.734713 C189.384119,99.6760174 189.627315,99.6048 189.865804,99.5202783 C190.344352,99.3520174 190.804855,99.1321043 191.237117,98.8660174 C191.345378,98.8002783 191.451286,98.7306261 191.555625,98.6594087 C191.608187,98.6226261 191.660749,98.5850609 191.71331,98.5474957 C191.758812,98.5138435 191.807451,98.4833217 191.839615,98.4355826 C191.8961,98.3526261 191.900022,98.2422783 191.84903,98.1554087 C191.798821,98.0693217 191.700758,98.0184522 191.600342,98.0262783 C191.551703,98.0301913 191.503848,98.0481913 191.464623,98.0779304 C190.721698,98.6320174 191.580729,97.9910609 191.464623,98.0779304" id="Fill-135" fill="#FFFFFF" sketch:type="MSShapeGroup"></path>
                <path d="M192.336991,97.3009565 C192.267954,97.3737391 192.198134,97.4449565 192.125959,97.5146087 C192.067122,97.5725217 192.001223,97.6226087 191.976904,97.7055652 C191.932971,97.8550435 192.033388,98.0146957 192.18872,98.0389565 C192.279722,98.0530435 192.359741,98.0178261 192.424071,97.9567826 C192.496245,97.8886957 192.56685,97.8198261 192.635887,97.7486087 C192.694724,97.6883478 192.761407,97.6312174 192.783373,97.5466957 C192.800632,97.4786087 192.789649,97.4042609 192.753562,97.3447826 C192.664129,97.1984348 192.453882,97.1765217 192.336991,97.3009565 C192.244419,97.3987826 192.436623,97.1953043 192.336991,97.3009565" id="Fill-137" fill="#FFFFFF" sketch:type="MSShapeGroup"></path>
                <path d="M190.692985,95.7887217 C190.529024,95.9608957 190.355648,96.1197652 190.165014,96.2622 C190.112452,96.3013304 190.059106,96.3396783 190.00576,96.3772435 C189.961828,96.4085478 189.926525,96.4484609 189.906128,96.4993304 C189.865334,96.6026348 189.895145,96.7239391 189.979871,96.7959391 C190.080288,96.8812435 190.215222,96.8734174 190.317992,96.7998522 C190.418409,96.7286348 190.517256,96.6566348 190.612966,96.5799391 C190.703184,96.5079391 190.789479,96.4312435 190.873421,96.3522 C190.92206,96.3060261 190.96913,96.258287 191.0162,96.2105478 C191.060133,96.1659391 191.106418,96.1236783 191.129169,96.0642 C191.173886,95.9483739 191.128385,95.8129826 191.023261,95.7472435 C190.918922,95.6815043 190.778496,95.6995043 190.692985,95.7887217 C190.440375,96.0540261 190.793401,95.6838522 190.692985,95.7887217" id="Fill-139" fill="#FFFFFF" sketch:type="MSShapeGroup"></path>
                <path d="M187.457849,91.0092522 C187.104038,91.0092522 186.754934,91.1196 186.467021,91.3246435 C186.186169,91.5242087 185.968861,91.807513 185.851185,92.1307304 C185.728018,92.4664696 185.714682,92.8389913 185.812745,93.1817739 C185.906885,93.5128174 186.103011,93.8109913 186.368173,94.0301217 C186.638827,94.2531652 186.975379,94.3893391 187.325268,94.4159478 C187.680648,94.4425565 188.039951,94.3580348 188.344338,94.1741217 C188.637742,93.995687 188.873878,93.7303826 189.015873,93.4189043 C189.16336,93.0941217 189.204938,92.7247304 189.133549,92.375687 C189.065297,92.0360348 188.890353,91.7214261 188.640096,91.4827304 C188.38827,91.2424696 188.06427,91.0820348 187.719873,91.0296 C187.633578,91.015513 187.545713,91.0092522 187.457849,91.0092522" id="Fill-141" fill="#FFFFFF" sketch:type="MSShapeGroup"></path>
                <path d="M137.497912,72.3618783 L110.361931,84.4852696 L102.629079,67.2592696 L129.76506,55.1366609 L137.497912,72.3618783 Z" id="Fill-143" fill="#F9F9EB" sketch:type="MSShapeGroup"></path>
                <path d="M103.901387,67.7445652 L110.847382,83.2136087 L136.22529,71.8767391 L129.279295,56.4076957 L103.901387,67.7445652 Z M110.362559,85.4471739 C109.993842,85.4471739 109.642385,85.2358696 109.483915,84.8782174 L101.749493,67.653 C101.643585,67.4197826 101.636525,67.1560435 101.726743,66.9165652 C101.816961,66.6786522 102.000535,66.4853478 102.234317,66.3820435 L129.370297,54.2578696 C129.851983,54.0363913 130.427024,54.257087 130.643547,54.743087 L138.377968,71.9683043 C138.483092,72.2015217 138.490937,72.4652609 138.400719,72.7047391 C138.309716,72.9426522 138.126927,73.1359565 137.893145,73.2392609 L110.757164,85.3634348 C110.62929,85.4205652 110.495924,85.4471739 110.362559,85.4471739 L110.362559,85.4471739 Z" id="Fill-145" fill="#415572" sketch:type="MSShapeGroup"></path>
                <path d="M104.324862,71.0368435 L131.460843,58.9134522 L133.309133,63.0315391 L106.173153,75.1541478 L104.324862,71.0368435 Z" id="Fill-147" fill="#415572" sketch:type="MSShapeGroup"></path>
                <path d="M105.598974,71.5210435 L106.661192,73.8837391 L132.036747,62.546087 L130.974529,60.1849565 L105.598974,71.5210435 Z M106.174015,76.1165217 C106.058693,76.1165217 105.940233,76.0953913 105.829618,76.053913 C105.591129,75.9623478 105.398141,75.7807826 105.295371,75.5483478 L103.447081,71.4294783 C103.228204,70.9450435 103.447081,70.3753043 103.931904,70.1585217 L131.067885,58.035913 C131.54957,57.8175652 132.124611,58.0335652 132.341134,58.5203478 L134.189425,62.6376522 C134.407517,63.1228696 134.191778,63.6926087 133.704601,63.9093913 L106.568621,76.0327826 C106.4431,76.0891304 106.309735,76.1165217 106.174015,76.1165217 L106.174015,76.1165217 Z" id="Fill-149" fill="#415572" sketch:type="MSShapeGroup"></path>
                <path d="M114.984697,74.7763826 L128.332242,68.8129043" id="Fill-151" fill="#FFFFFF" sketch:type="MSShapeGroup"></path>
                <path d="M114.985874,75.7384435 C114.616373,75.7384435 114.264915,75.5271391 114.10723,75.169487 C113.888354,74.6850522 114.104092,74.115313 114.591269,73.8985304 L127.938814,67.9350522 C128.420499,67.7159217 128.99554,67.933487 129.212063,68.419487 C129.430155,68.9047043 129.214416,69.4744435 128.72724,69.6912261 L115.380479,75.6547043 C115.251821,75.7118348 115.11924,75.7384435 114.985874,75.7384435" id="Fill-153" fill="#415572" sketch:type="MSShapeGroup"></path>
                <path d="M123.561911,74.2688609 C126.664623,72.8828609 129.575916,71.5821652 129.575916,71.5821652" id="Fill-155" fill="#FFFFFF" sketch:type="MSShapeGroup"></path>
                <path d="M123.561676,75.2311565 C123.192174,75.2311565 122.840717,75.0198522 122.683031,74.6622 C122.464155,74.1777652 122.679893,73.6080261 123.16707,73.3912435 L129.18186,70.7045478 C129.663545,70.4854174 130.23937,70.7029826 130.455109,71.1889826 C130.673201,71.6742 130.455109,72.2439391 129.970286,72.4607217 L123.956281,75.1474174 C123.827622,75.2045478 123.695041,75.2311565 123.561676,75.2311565" id="Fill-157" fill="#415572" sketch:type="MSShapeGroup"></path>
                <path d="M141.797462,46.9926783 L136.415768,51.7000696" id="Fill-159" fill="#EDEBF4" sketch:type="MSShapeGroup"></path>
                <path d="M136.416552,52.983 C136.059603,52.983 135.703438,52.835087 135.450044,52.5455217 C134.982479,52.0133478 135.035041,51.2033478 135.567719,50.7361304 L140.949414,46.0287391 C141.486799,45.5638696 142.297976,45.6139565 142.764755,46.1476957 C143.23232,46.6798696 143.178973,47.4906522 142.64708,47.9578696 L137.265385,52.6644783 C137.019051,52.8781304 136.717801,52.983 136.416552,52.983" id="Fill-161" fill="#415572" sketch:type="MSShapeGroup"></path>
                <path d="M128.505382,40.9727739 L128.626196,47.6147739" id="Fill-163" fill="#EDEBF4" sketch:type="MSShapeGroup"></path>
                <path d="M128.626745,48.8970783 C127.926183,48.8970783 127.353495,48.3382957 127.340943,47.6378609 L127.22013,40.9974261 C127.207578,40.2883826 127.773205,39.7029913 128.483965,39.6904696 C129.222183,39.7194261 129.779181,40.2414261 129.791733,40.949687 L129.912546,47.5909043 C129.925098,48.2999478 129.360256,48.8845565 128.649495,48.8970783 L128.626745,48.8970783 Z" id="Fill-165" fill="#415572" sketch:type="MSShapeGroup"></path>
                <path d="M114.867649,47.4577826 L119.762952,51.2354348" id="Fill-167" fill="#EDEBF4" sketch:type="MSShapeGroup"></path>
                <path d="M119.762246,52.518287 C119.486101,52.518287 119.209955,52.4306348 118.976173,52.2498522 L114.081655,48.4722 C113.519166,48.0394174 113.416396,47.2333304 113.851011,46.6722 C114.28798,46.1126348 115.096803,46.0148087 115.6538,46.4436783 L120.548319,50.2213304 C121.110808,50.654113 121.213578,51.4602 120.778963,52.0213304 C120.525568,52.3468957 120.146653,52.518287 119.762246,52.518287" id="Fill-169" fill="#415572" sketch:type="MSShapeGroup"></path>
                <path d="M9.65810266,123.066078 L7.40265472,99.5455565 L2.26886295,103.521209 C1.58085327,104.054165 1.21449007,104.900948 1.29764746,105.76573 L2.47675642,118.065991 C2.5591293,118.925296 3.07454818,119.683643 3.84336174,120.078861 L9.65810266,123.066078 Z" id="Fill-171" fill="#27AAE1" sketch:type="MSShapeGroup"></path>
                <g id="Group-175">
                    <mask id="mask-2" sketch:name="Clip 174" fill="white">
                        <use xlink:href="#path-1"></use>
                    </mask>
                    <g id="Clip-174"></g>
                    <path d="M6.34592833,101.988548 L3.05885811,104.535157 C2.71759903,104.799678 2.53637869,105.213678 2.57874189,105.642548 L3.75706634,117.945157 C3.79707603,118.370896 4.0504707,118.742635 4.43252397,118.939852 L8.1542092,120.850983 L6.34592833,101.988548 Z M9.65810266,124.348461 C9.45726973,124.348461 9.25408329,124.300722 9.07050944,124.205243 L3.25498402,121.219591 C2.08921162,120.620896 1.32118257,119.488461 1.19566199,118.18933 L0.0173375303,105.886722 C-0.108183051,104.577417 0.439400484,103.31507 1.48200581,102.5082 L6.61501308,98.5317652 C6.98372978,98.2445478 7.4834586,98.1819391 7.91258208,98.3674174 C8.34249007,98.5528957 8.63903245,98.9575043 8.68374915,99.4231565 L10.9391971,122.944461 C10.9839138,123.410113 10.7681753,123.864809 10.3790615,124.127765 C10.163323,124.274113 9.91149734,124.348461 9.65810266,124.348461 L9.65810266,124.348461 Z" id="Fill-173" fill="#415572" sketch:type="MSShapeGroup" mask="url(#mask-2)"></path>
                </g>
                <path d="M9.65810266,123.066078 L20.6231099,110.149122 L7.40265472,99.5455565 L9.65810266,123.066078 Z" id="Fill-176" fill="#53D2F9" sketch:type="MSShapeGroup"></path>
                <path d="M8.97268184,102.450757 L10.6475971,119.915452 L18.7891758,110.324583 L8.97268184,102.450757 Z M9.65833801,124.348148 C9.53046392,124.348148 9.39945182,124.329365 9.27393123,124.289452 C8.77969395,124.135278 8.42745182,123.70093 8.37724358,123.186757 L6.12258015,99.6662348 C6.07472542,99.1536261 6.33831864,98.6605826 6.79333075,98.4164087 C7.24520484,98.1706696 7.80769395,98.2231043 8.20935981,98.5455391 L21.428246,109.149887 C21.6973308,109.365887 21.8699215,109.682843 21.9028707,110.026409 C21.9358199,110.370757 21.8275584,110.714322 21.6039748,110.978061 L10.6397521,123.895017 C10.3918489,124.18693 10.0301927,124.348148 9.65833801,124.348148 L9.65833801,124.348148 Z" id="Fill-178" fill="#415572" sketch:type="MSShapeGroup"></path>
                <path d="M2.82272252,120.070722 C2.6242431,120.070722 2.42576368,120.010461 2.25552639,119.885243 C1.82326489,119.5722 1.73069346,118.971157 2.04449492,118.541504 L7.25987506,111.411939 L0.844204358,105.158896 C0.46215109,104.787939 0.454306053,104.17907 0.826160775,103.798722 C1.20272252,103.419939 1.81541985,103.412896 2.18962809,103.783852 L9.20387506,110.617591 C9.54748765,110.950983 9.59298886,111.485504 9.30899855,111.872896 L3.60095012,119.676287 C3.41266925,119.934548 3.11926489,120.070722 2.82272252,120.070722" id="Fill-180" fill="#415572" sketch:type="MSShapeGroup"></path>
                <path d="M8.53069249,112.267174 C8.03880872,112.267174 7.61909927,111.89387 7.57124455,111.396913 C7.52103632,110.86787 7.90779661,110.398304 8.43812107,110.346652 L19.6251429,109.279957 C20.1805714,109.222043 20.626954,109.618043 20.6771622,110.146304 C20.7273705,110.675348 20.3406102,111.144913 19.8110702,111.196565 L8.62326392,112.263261 C8.59109927,112.265609 8.56050363,112.267174 8.53069249,112.267174" id="Fill-182" fill="#415572" sketch:type="MSShapeGroup"></path>
                <path d="M89.6754334,82.3294957 C74.2764116,82.3294957 65.6782518,70.2898435 65.5676368,70.1309739 C65.1636174,69.5479304 65.3095351,68.7512348 65.8916368,68.3474087 C66.4690315,67.9451478 67.2731477,68.0852348 67.6795206,68.666713 C68.2223971,69.4391478 81.169845,87.4446261 104.326039,76.0662783 C104.433516,75.9989739 109.117002,73.3099304 115.598571,76.8105391 C116.221467,77.1478435 116.455249,77.9257565 116.115559,78.5494957 C115.779792,79.1740174 114.996073,79.3986261 114.373177,79.0652348 C109.235462,76.290887 105.687153,78.2434957 105.538881,78.3272348 C99.6574576,81.2181913 94.3510751,82.3294957 89.6754334,82.3294957" id="Fill-184" fill="#415572" sketch:type="MSShapeGroup"></path>
                <path d="M39.96034,121.213722 C39.96034,139.395287 38.468214,175.885983 36.628553,175.885983 C34.7881075,175.885983 33.2967661,139.395287 33.2967661,121.213722" id="Fill-186" fill="#415572" sketch:type="MSShapeGroup"></path>
                <path d="M36.6286315,177.169226 C35.1820068,177.169226 34.1378324,177.169226 32.9877501,155.436183 C32.4025104,144.384183 32.0102586,130.632183 32.0102586,121.21427 C32.0102586,120.505226 32.5852998,119.931574 33.29606,119.931574 C34.0068203,119.931574 34.5818615,120.505226 34.5818615,121.21427 C34.5818615,136.6974 35.543663,159.766357 36.6286315,169.99427 C37.7136,159.766357 38.6754015,136.6974 38.6754015,121.21427 C38.6754015,120.505226 39.2504426,119.931574 39.9612029,119.931574 C40.6719632,119.931574 41.2470044,120.505226 41.2470044,121.21427 C41.2470044,130.632183 40.8547525,144.384183 40.2695128,155.436183 C39.1194305,177.169226 38.0752562,177.169226 36.6286315,177.169226" id="Fill-188" fill="#415572" sketch:type="MSShapeGroup"></path>
                <path d="M62.7970053,121.213722 C62.7970053,139.395287 61.3048794,175.885983 59.4652184,175.885983 C57.6247729,175.885983 56.1334315,139.395287 56.1334315,121.213722" id="Fill-190" fill="#415572" sketch:type="MSShapeGroup"></path>
                <path d="M59.4655322,177.169226 C58.0189075,177.169226 56.9747332,177.169226 55.8246508,155.436183 C55.2394111,144.384183 54.8471593,130.632183 54.8471593,121.21427 C54.8471593,120.505226 55.4222005,119.931574 56.1329608,119.931574 C56.8437211,119.931574 57.4187622,120.505226 57.4187622,121.21427 C57.4187622,136.6974 58.3805637,159.766357 59.4655322,169.99427 C60.5505007,159.766357 61.5123022,136.6974 61.5123022,121.21427 C61.5123022,120.505226 62.0873433,119.931574 62.7981036,119.931574 C63.5088639,119.931574 64.0839051,120.505226 64.0839051,121.21427 C64.0839051,130.632183 63.6916533,144.384183 63.1064136,155.436183 C61.9563312,177.169226 60.9121569,177.169226 59.4655322,177.169226" id="Fill-192" fill="#415572" sketch:type="MSShapeGroup"></path>
                <path d="M32.0890228,55.812287 C32.0890228,55.812287 27.4314247,57.8603739 26.3801898,64.8835043 C25.3195409,71.9668957 28.4936426,77.2182 28.467754,87.6503739 C28.4410809,98.3924609 21.2887613,107.210896 23.402214,128.856287 L71.5526935,128.856287 C71.5526935,128.856287 71.0098169,107.176461 66.6252262,94.0638522 C57.3170906,66.2248957 73.6379041,77.0155043 61.2953085,55.2268957 L32.0890228,55.812287 Z" id="Fill-194" fill="#FBB040" sketch:type="MSShapeGroup"></path>
                <path d="M24.577322,127.573591 L70.2181743,127.573591 C70.0173414,122.702635 69.063385,105.413243 65.40446,94.4692435 C60.640954,80.2210696 62.4288378,75.6592435 63.8676174,71.994287 C65.1330218,68.7652435 66.0548136,66.4127217 60.5475981,56.5252435 L32.4098063,57.0887217 C31.5688184,57.558287 28.466891,59.6376783 27.6510073,65.0728957 C27.1285278,68.5625478 27.7137676,71.6648087 28.3915787,75.2577652 C29.0348717,78.6785478 29.7652446,82.5548087 29.7526925,87.654287 C29.7424939,91.8537652 28.7179322,95.6502 27.5356852,100.046896 C25.647385,107.051243 23.5127506,114.962635 24.577322,127.573591 M71.5518305,130.138983 L23.4021356,130.138983 C22.73923,130.138983 22.1869395,129.638113 22.1210412,128.979939 C20.7779709,115.227939 23.1487409,106.441591 25.0519467,99.3808957 C26.189477,95.1579391 27.1716755,91.5117652 27.1810896,87.6480261 C27.1936416,82.7903739 26.4883729,79.040113 25.8631235,75.7320261 C25.1445182,71.912113 24.5224068,68.6126348 25.11,64.694113 C26.2522373,57.0597652 31.3522954,54.7338522 31.5688184,54.6391565 C31.7241501,54.570287 31.8928184,54.5335043 32.0630557,54.5295913 L61.2685569,53.9449826 C61.6929734,53.9183739 62.1825036,54.1852435 62.4139322,54.596113 C68.6217094,65.5526348 67.9211477,68.700287 66.261138,72.9287217 C64.9753366,76.2094174 63.3757337,80.2915043 67.8458354,93.6576783 C72.2398402,106.802374 72.8148814,127.930461 72.837632,128.823417 C72.845477,129.16933 72.7144649,129.503504 72.4736223,129.751591 C72.2296416,129.999678 71.8985811,130.138983 71.5518305,130.138983" id="Fill-196" fill="#415572" sketch:type="MSShapeGroup"></path>
                <path d="M32.0890228,55.812287 C32.0890228,55.812287 29.5001608,59.8575913 32.6405288,62.7720261 C35.7808969,65.6856783 38.9950082,63.6015913 38.9950082,63.6015913 C38.9950082,63.6015913 40.4416329,66.3266348 44.6198993,66.9683739 C48.7989501,67.6093304 51.0740107,64.8835043 51.0740107,64.8835043 C51.0740107,64.8835043 55.0945918,66.8830696 58.602892,64.7238522 C64.008122,61.3962 60.3170324,55.2268957 60.3170324,55.2268957" id="Fill-198" fill="#FFFFFF" sketch:type="MSShapeGroup"></path>
                <path d="M45.8849898,68.3495217 C45.4229172,68.3495217 44.9357404,68.3143043 44.4234596,68.2352609 C41.3168252,67.7586522 39.4991303,66.2443043 38.5922441,65.2104783 C36.8922247,65.8232609 34.2029462,65.9743043 31.764709,63.711 C28.6604281,60.8302174 29.9085734,56.8334348 31.0037404,55.1226522 C31.3905007,54.5208261 32.1836339,54.354913 32.7814257,54.7313478 C33.3768639,55.1124783 33.5525927,55.902913 33.172893,56.5000435 C33.077968,56.6542174 31.2218324,59.7040435 33.5172901,61.8327391 C35.8103942,63.963 38.0572126,62.6716957 38.3035467,62.5198696 C38.6024426,62.3312609 38.9766508,62.274913 39.3234015,62.3656957 C39.667014,62.4588261 39.9635564,62.6865652 40.1314402,63.0011739 C40.1745879,63.077087 41.385077,65.1744783 44.8149269,65.7003913 C48.1780939,66.2114348 50.016186,64.1422174 50.0914983,64.0545652 C50.4782586,63.6123913 51.1231206,63.4785652 51.6432465,63.7336957 C51.6761956,63.7501304 55.0864329,65.3787391 57.9263361,63.6319565 C62.1022489,61.0618696 59.5180939,56.4037826 59.2121375,55.8817826 C58.8504814,55.272913 59.0536678,54.4863913 59.6616581,54.1263913 C60.276709,53.7648261 61.0604281,53.9651739 61.4220843,54.5701304 C62.9236242,57.0791739 64.4079051,62.6591739 59.2772513,65.8154348 C56.2082731,67.6991739 52.8913918,66.9228261 51.3592562,66.3828261 C50.4202053,67.1685652 48.5640697,68.3495217 45.8849898,68.3495217" id="Fill-200" fill="#415572" sketch:type="MSShapeGroup"></path>
                <path d="M37.3212697,174.410843 C37.3212697,174.410843 43.0465772,174.839713 45.0070518,176.072322 C46.9683109,177.305713 34.4703835,176.285191 34.4703835,176.285191" id="Fill-202" fill="#415572" sketch:type="MSShapeGroup"></path>
                <path d="M42.1985288,177.978365 C40.4561462,177.978365 37.9622092,177.857061 34.3660446,177.563583 C33.6576378,177.504887 33.1328048,176.885843 33.1908581,176.17993 C33.2489114,175.4748 33.8992649,174.966104 34.577076,175.006017 C35.1270131,175.051409 35.6918557,175.09367 36.2598363,175.1328 C36.1013666,174.901148 36.0158557,174.616278 36.0386063,174.314974 C36.0935215,173.606713 36.7093569,173.060452 37.4169792,173.132452 C38.0375215,173.178626 43.52434,173.623148 45.694277,174.9888 C46.4999622,175.49593 46.6035167,176.228452 46.4324949,176.745757 C46.2136184,177.392191 46.018277,177.978365 42.1985288,177.978365" id="Fill-204" fill="#415572" sketch:type="MSShapeGroup"></path>
                <path d="M60.1503254,174.410843 C60.1503254,174.410843 65.8756329,174.839713 67.8361075,176.072322 C69.7973666,177.305713 57.8548678,176.285191 57.8548678,176.285191" id="Fill-206" fill="#415572" sketch:type="MSShapeGroup"></path>
                <path d="M65.2262993,177.978365 C63.5639361,177.978365 61.180614,177.857061 57.7452726,177.5628 C57.0400039,177.502539 56.5151709,176.881148 56.5755777,176.176017 C56.6352,175.469322 57.278493,174.952017 57.9665027,175.007583 C58.3258053,175.037322 58.6921685,175.067061 59.0640232,175.096017 C58.9204591,174.870626 58.8475002,174.599843 58.8678973,174.314974 C58.9228126,173.608278 59.5331564,173.060452 60.2462702,173.132452 C60.8668126,173.178626 66.353631,173.623148 68.5212145,174.9888 C69.3370983,175.500626 69.4398683,176.238626 69.266493,176.756713 C69.0507545,177.396887 68.8546286,177.978365 65.2262993,177.978365" id="Fill-208" fill="#415572" sketch:type="MSShapeGroup"></path>
                <path d="M30.4715332,101.697809 C31.4435332,101.496678 32.271969,100.779809 32.5465453,99.7585043 C32.9356591,98.3138087 32.0766276,96.8284174 30.6284339,96.4410261 C30.4950683,96.4058087 30.3617027,96.3909391 30.228337,96.3760696 C30.2816833,96.2532 30.3365985,96.131113 30.3719012,95.9980696 C30.761015,94.5533739 29.9019835,93.0687652 28.4537898,92.6805913 C28.4326082,92.675113 28.4114266,92.6758957 28.390245,92.6704174 C27.9328794,94.3921565 27.5720077,96.1029391 27.2888019,97.7260696 C27.2762499,97.7988522 27.2629133,97.8724174 27.2503613,97.9444174 C27.0087341,99.3578087 26.8243758,100.694504 26.6847341,101.905983 C26.6808116,101.935722 26.6784581,101.964678 26.6745356,101.994417 C26.538032,103.194157 25.7990295,104.321896 25.7354847,105.207026 C26.0869424,105.765809 27.2809569,106.142243 27.9697511,106.326939 C29.4179448,106.71433 30.9061482,105.858157 31.295262,104.413461 C31.5698383,103.391374 31.2121046,102.357548 30.4715332,101.697809" id="Fill-210" fill="#415572" sketch:type="MSShapeGroup"></path>
                <path d="M66.1975932,106.805191 C65.3220872,107.271626 64.7297869,108.191974 64.754891,109.250061 C64.7909782,110.744843 66.0344165,111.928148 67.5328184,111.892148 C67.6716755,111.889017 67.8034722,111.865539 67.9352688,111.842061 C67.9187942,111.975104 67.9015351,112.108148 67.9046731,112.245887 C67.9399758,113.74067 69.1841985,114.923974 70.6826005,114.887974 C70.7045666,114.887974 70.7249637,114.88093 70.7469298,114.880148 C70.6990751,113.099713 70.5610024,111.356843 70.3735061,109.719626 C70.365661,109.646843 70.357816,109.572496 70.3491864,109.499713 C70.1813027,108.076148 69.9804697,106.741017 69.7717918,105.539713 C69.7670847,105.509974 69.7615932,105.4818 69.7561017,105.452061 C69.5482082,104.262496 69.3371768,103.212235 69.1481114,102.345887 C68.6530896,101.908409 68.0019516,101.643104 67.2888378,101.660322 C65.7904358,101.695539 64.6042663,102.936757 64.639569,104.431539 C64.6654576,105.488843 65.3009056,106.381017 66.1975932,106.805191" id="Fill-212" fill="#415572" sketch:type="MSShapeGroup"></path>
                <mask id="mask-4" sketch:name="Clip 215" fill="white">
                    <use xlink:href="#path-3"></use>
                </mask>
                <g id="Clip-215"></g>
                <path d="M32.6400581,176.681739 L39.9602615,176.681739 L39.9602615,148.623652 L32.6400581,148.623652 L32.6400581,176.681739 Z" id="Fill-214" fill="#FBB040" sketch:type="MSShapeGroup" mask="url(#mask-4)"></path>
                <path d="M33.9266441,175.399043 L38.6752446,175.399043 L38.6752446,149.905565 L33.9266441,149.905565 L33.9266441,175.399043 Z M39.961046,177.964435 L32.6408426,177.964435 C31.9300823,177.964435 31.3550412,177.390783 31.3550412,176.681739 L31.3550412,148.62287 C31.3550412,147.913826 31.9300823,147.340174 32.6408426,147.340174 L39.961046,147.340174 C40.6718063,147.340174 41.2468475,147.913826 41.2468475,148.62287 L41.2468475,176.681739 C41.2468475,177.390783 40.6718063,177.964435 39.961046,177.964435 L39.961046,177.964435 Z" id="Fill-216" fill="#415572" sketch:type="MSShapeGroup" mask="url(#mask-4)"></path>
                <path d="M55.8048814,176.681739 L63.1250847,176.681739 L63.1250847,148.623652 L55.8048814,148.623652 L55.8048814,176.681739 Z" id="Fill-217" fill="#FBB040" sketch:type="MSShapeGroup" mask="url(#mask-4)"></path>
                <path d="M57.0898983,175.399043 L61.8384988,175.399043 L61.8384988,149.905565 L57.0898983,149.905565 L57.0898983,175.399043 Z M63.1243002,177.964435 L55.8040969,177.964435 C55.0933366,177.964435 54.5182954,177.390783 54.5182954,176.681739 L54.5182954,148.62287 C54.5182954,147.913826 55.0933366,147.340174 55.8040969,147.340174 L63.1243002,147.340174 C63.8350605,147.340174 64.4101017,147.913826 64.4101017,148.62287 L64.4101017,176.681739 C64.4101017,177.390783 63.8350605,177.964435 63.1243002,177.964435 L63.1243002,177.964435 Z" id="Fill-218" fill="#415572" sketch:type="MSShapeGroup" mask="url(#mask-4)"></path>
                <path d="M61.6412746,11.1498261 C61.6412746,11.1498261 69.3019525,13.4162609 70.3641705,20.4777391 C71.4256039,27.5392174 72.1340107,44.3989565 76.4691777,46.6943478 C76.4691777,46.6943478 72.5827467,49.3732174 64.4827467,48.1218261" id="Fill-219" fill="#FFFFFF" sketch:type="MSShapeGroup" mask="url(#mask-4)"></path>
                <path d="M68.6239061,49.7363478 C67.3279061,49.7363478 65.8812814,49.6361739 64.28717,49.3896522 C63.5842547,49.280087 63.1041385,48.6250435 63.2124,47.9253913 C63.319877,47.2273043 63.9906276,46.7467826 64.6786373,46.854 C69.3417269,47.5732174 72.4985695,46.9142609 74.2134944,46.3202609 C71.750153,42.9425217 70.7483419,35.438087 69.7567293,26.2393043 C69.5253007,24.0965217 69.3166228,22.1611304 69.0938237,20.667913 C68.1618334,14.4853043 61.3437123,12.3996522 61.2738915,12.3793043 C60.5929424,12.1781739 60.2061821,11.4636522 60.407015,10.7851304 C60.6078479,10.1066087 61.3186082,9.71921739 62.0066179,9.91956522 C62.351015,10.022087 70.4643516,12.5076522 71.634831,20.2867826 C71.8631215,21.8089565 72.0765065,23.781913 72.3126421,25.9653913 C73.0437995,32.7388696 74.2637027,44.0749565 77.0714412,45.5603478 C77.4684,45.7708696 77.7272862,46.1715652 77.7523903,46.6184348 C77.7798479,47.066087 77.5688165,47.4941739 77.1993153,47.7485217 C77.0565356,47.8471304 74.2385985,49.7363478 68.6239061,49.7363478" id="Fill-220" fill="#415572" sketch:type="MSShapeGroup" mask="url(#mask-4)"></path>
                <path d="M45.9165269,61.2450783 L45.9165269,61.2450783 C35.0699797,61.2450783 26.1948901,52.3914261 26.1948901,41.5710783 L26.1948901,22.9653391 C26.1948901,12.1449913 35.0699797,3.29133913 45.9165269,3.29133913 L45.9165269,3.29133913 C56.7630741,3.29133913 65.6381637,12.1449913 65.6381637,22.9653391 L65.6381637,41.5710783 C65.6381637,52.3914261 56.7630741,61.2450783 45.9165269,61.2450783" id="Fill-221" fill="#FFFFFF" sketch:type="MSShapeGroup" mask="url(#mask-4)"></path>
                <path d="M45.4906983,4.57356522 C35.5588823,4.57356522 27.4800639,12.6336522 27.4800639,22.5406957 L27.4800639,41.9955652 C27.4800639,51.9018261 35.5588823,59.961913 45.4906983,59.961913 L46.3418847,59.961913 C56.2737007,59.961913 64.3525191,51.9018261 64.3525191,41.9955652 L64.3525191,22.5406957 C64.3525191,12.6336522 56.2737007,4.57356522 46.3418847,4.57356522 L45.4906983,4.57356522 Z M46.3418847,62.5273043 L45.4906983,62.5273043 C34.1428533,62.5273043 24.908461,53.3175652 24.908461,41.9955652 L24.908461,22.5406957 C24.908461,11.2186957 34.1428533,2.00817391 45.4906983,2.00817391 L46.3418847,2.00817391 C57.6905143,2.00817391 66.924122,11.2186957 66.924122,22.5406957 L66.924122,41.9955652 C66.924122,53.3175652 57.6905143,62.5273043 46.3418847,62.5273043 L46.3418847,62.5273043 Z" id="Fill-222" fill="#415572" sketch:type="MSShapeGroup" mask="url(#mask-4)"></path>
                <path d="M47.4770615,51.1454348 C44.7297298,51.1454348 42.1102722,50.2900435 40.0140785,48.6903913 C39.589662,48.3671739 39.5088581,47.7637826 39.8328581,47.3427391 C40.1592116,46.917 40.7695554,46.8403043 41.1837734,47.1619565 C43.159938,48.6676957 45.7017298,49.383 48.3306015,49.188913 C50.3169646,49.0402174 52.1903593,48.3796957 53.7452455,47.2785652 C54.1767225,46.971 54.7800058,47.0711739 55.0883157,47.5055217 C55.3974102,47.939087 55.2946402,48.5401304 54.8600252,48.846913 C53.0219332,50.1507391 50.8119864,50.9325652 48.4765191,51.1078696 C48.1423206,51.132913 47.8089065,51.1454348 47.4770615,51.1454348" id="Fill-223" fill="#415572" sketch:type="MSShapeGroup" mask="url(#mask-4)"></path>
                <path d="M37.2705123,24.5959826 C58.1532145,24.8229391 61.6411177,11.1499826 61.6411177,11.1499826 C61.6411177,11.1499826 55.1446431,0.881373913 41.1436068,1.7085913 C23.0247109,3.29102609 17.2782218,18.1003304 16.2167884,30.6854609 C15.1545705,43.2705913 11.0782896,47.5115478 11.0782896,47.5115478 C20.6351128,54.1089391 28.4220959,47.4833739 28.4220959,47.4833739 C28.4220959,47.4833739 24.9436068,31.7568522 30.399045,24.5725043" id="Fill-224" fill="#FFFFFF" sketch:type="MSShapeGroup" mask="url(#mask-4)"></path>
                <path d="M19.7457995,51.7003826 C16.9631651,51.7003826 13.7490538,50.9138609 10.349015,48.5668174 C10.0375671,48.3523826 9.83908765,48.0142957 9.80143148,47.6409913 C9.7637753,47.2661217 9.89164939,46.8951652 10.1505356,46.6236 C10.1803467,46.591513 13.9373346,42.4249043 14.9367923,30.5769913 C15.8185743,20.0931652 20.383601,2.23403478 41.0309521,0.431686957 C55.6211506,-0.454226087 62.4463322,10.0194261 62.727969,10.4647304 C62.9162499,10.7629043 62.9735186,11.1244696 62.8856542,11.4664696 C62.8479981,11.6128174 58.9058673,26.027687 37.2567051,25.8789913 C36.5482983,25.8711652 35.9779642,25.289687 35.9858092,24.5822087 C35.9936542,23.8786435 36.5686954,23.3136 37.2716107,23.3136 C37.4324339,23.3222087 37.6183613,23.3159478 37.7885985,23.3159478 C54.8272329,23.3159478 59.3498964,13.7798609 60.2238334,11.3623826 C58.7850538,9.41368696 52.672986,2.32246957 41.2192329,2.98925217 C22.4852862,4.62646957 18.3140804,21.1113391 17.4981966,30.7922087 C16.7097705,40.1263826 14.2785937,45.0779478 12.9276785,47.1698609 C19.6532281,51.1040348 25.2302644,48.1207304 27.0008891,46.9366435 C26.3473976,43.5033391 24.3037656,30.4752522 29.3740126,23.7980348 C29.8054896,23.2290783 30.6143128,23.1257739 31.1744484,23.5499478 C31.7416446,23.9772522 31.8522596,24.7809913 31.4231361,25.3460348 C26.3928988,31.9723826 29.6446663,47.0571652 29.6776155,47.2089913 C29.7803855,47.6707304 29.6172087,48.1528174 29.2555525,48.4596 C29.2006373,48.5089043 25.351078,51.7003826 19.7457995,51.7003826" id="Fill-225" fill="#415572" sketch:type="MSShapeGroup" mask="url(#mask-4)"></path>
                <path d="M62.913661,10.965287 C62.913661,10.965287 62.9513172,11.3472 63.016431,12.0163304 C63.0721308,12.6768522 63.0948814,13.6120696 63.0666392,14.7366783 C63.013293,15.8605043 62.9175835,17.1745043 62.6155496,18.5667652 C62.4908136,19.2664174 62.2868426,19.9778087 62.050707,20.6946783 C61.8522276,21.4193739 61.4748814,22.1143304 61.184615,22.8249391 C60.759414,23.483113 60.4448281,24.2046783 59.9223487,24.7877217 C59.4351719,25.3934609 58.9566247,25.9882435 58.3572639,26.4405913 C58.0740581,26.6800696 57.7955593,26.9148522 57.5233366,27.1449391 C57.2158111,27.3249391 56.9153462,27.5010261 56.6235109,27.6724174 C56.0484697,28.0418087 55.4765666,28.3165043 54.913293,28.4808522 C54.3610024,28.6639826 53.8651961,28.8909391 53.4062615,28.9785913 C52.9465424,29.0592 52.545661,29.1304174 52.2161695,29.1883304 C51.5564019,29.3018087 51.1798402,29.3659826 51.1798402,29.3659826 C50.6479467,29.4575478 50.1419419,29.1014609 50.0509395,28.5708522 C49.9607215,28.0512 50.3011961,27.5565913 50.815046,27.4501565 L50.9688087,27.4188522 C50.9688087,27.4188522 51.2951622,27.3515478 51.8662809,27.2349391 C52.1518402,27.1778087 52.4978063,27.1081565 52.8955496,27.029113 C53.2909395,26.9461565 53.6910363,26.7340696 54.1523245,26.5728522 C54.6261646,26.4288522 55.0898063,26.1870261 55.5440339,25.8700696 C55.779385,25.7268522 56.0210121,25.5797217 56.2681308,25.4286783 C56.4815157,25.2353739 56.6996077,25.0373739 56.9216223,24.8370261 C57.397816,24.4699826 57.7673172,23.9667652 58.151724,23.4674609 C58.5690799,22.9939826 58.8052155,22.3663304 59.1503971,21.8247652 C59.3731961,21.2057217 59.6838596,20.6305043 59.8360533,19.9903304 C60.0235496,19.3658087 60.1867264,18.7452 60.2785133,18.1198957 C60.5146489,16.8880696 60.5687797,15.6977217 60.5907458,14.6842435 C60.5938838,12.6189391 60.3687312,11.3346783 60.3687312,11.3346783 L60.3648087,11.3104174 C60.2424262,10.6123304 60.7107748,9.94711304 61.4113366,9.82502609 C62.1111138,9.70293913 62.7779419,10.1701565 62.9003245,10.8682435 C62.905816,10.8995478 62.910523,10.9339826 62.913661,10.965287" id="Fill-226" fill="#415572" sketch:type="MSShapeGroup" mask="url(#mask-4)"></path>
                <path d="M15.381292,115.447461 C15.1632,115.447461 14.9443235,115.393461 14.7434906,115.278417 C14.1253017,114.926243 13.9119167,114.143635 14.2665123,113.528504 C16.6843525,109.307113 15.5217182,104.550417 15.5091661,104.502678 C9.94232833,82.659287 20.1526431,65.6352 20.5896116,64.9214609 C20.9614663,64.3165043 21.7545995,64.1310261 22.3547448,64.4957217 C22.9627351,64.8635478 23.1533695,65.6524174 22.7846528,66.2573739 C22.6842363,66.4240696 12.7092726,83.1085043 18.0007496,103.87033 C18.0603719,104.098852 19.4465898,109.654591 16.4960717,114.801026 C16.2599361,115.215809 15.8261056,115.447461 15.381292,115.447461" id="Fill-227" fill="#415572" sketch:type="MSShapeGroup" mask="url(#mask-4)"></path>
                <path d="M28.421939,44.8627304 C28.421939,44.8627304 32.7076823,53.3438609 29.5665298,55.1610783 C26.367324,57.0119478 25.4023845,51.0312522 28.421939,44.8627304" id="Fill-228" fill="#FFFFFF" sketch:type="MSShapeGroup" mask="url(#mask-4)"></path>
                <path d="M28.4772465,48.2331913 C27.5656533,51.3104087 27.839445,53.6629304 28.4042877,54.1880609 C28.5047041,54.2843217 28.8287041,54.1074522 28.92206,54.0511043 C29.8383603,53.5212783 29.459445,50.9535391 28.4772465,48.2331913 M28.4725395,56.7894522 C27.5680068,56.7894522 26.9427574,56.3363217 26.6517065,56.0655391 C24.6378857,54.1927565 24.9014789,49.1347565 27.2667574,44.2998 C27.4801424,43.8615391 27.9249559,43.583713 28.4144862,43.5798 L28.4223312,43.5798 C28.90637,43.5798 29.3511835,43.8529304 29.5692755,44.2849304 C30.3780988,45.8822348 34.2002005,53.9634522 30.2125685,56.2705826 C29.5520165,56.651713 28.9691303,56.7894522 28.4725395,56.7894522" id="Fill-229" fill="#415572" sketch:type="MSShapeGroup" mask="url(#mask-4)"></path>
                <path d="M66.3904242,44.8627304 C66.3904242,44.8627304 70.6761676,53.3438609 67.535015,55.1610783 C64.3358092,57.0119478 63.3708697,51.0312522 66.3904242,44.8627304" id="Fill-230" fill="#FFFFFF" sketch:type="MSShapeGroup" mask="url(#mask-4)"></path>
                <path d="M66.4442412,48.2357739 C65.5350015,51.3122087 65.8087932,53.6631652 66.3712823,54.1882957 C66.4716988,54.2845565 66.7956988,54.107687 66.8890547,54.0513391 C67.8030015,53.5230783 67.4233017,50.957687 66.4442412,48.2357739 M66.4395341,56.789687 C65.5350015,56.789687 64.9097521,56.3357739 64.6187012,56.0642087 C62.6048804,54.1914261 62.8684736,49.1342087 65.2361056,44.3000348 C65.4526286,43.8594261 65.8566479,43.6825565 66.3916794,43.5800348 C66.8765027,43.5800348 67.3205317,43.8531652 67.5394082,44.2851652 C68.3450935,45.8824696 72.1671952,53.963687 68.1795632,56.2708174 C67.5190111,56.6519478 66.9361249,56.789687 66.4395341,56.789687" id="Fill-231" fill="#415572" sketch:type="MSShapeGroup" mask="url(#mask-4)"></path>
            </g>
        </g>
    </g>
</svg>