<svg width="507" height="397" viewBox="0 0 507 397" fill="none" xmlns="http://www.w3.org/2000/svg">
<path d="M281.887 396.585L267.012 395.695C266.758 395.695 266.503 395.44 266.376 395.186L262.435 380.821C262.435 380.694 262.435 380.439 262.562 380.312C262.689 380.185 262.816 380.058 262.943 380.058L273.114 378.659L269.046 377.134C268.919 377.134 268.792 377.007 268.537 377.134L258.875 377.77C258.621 377.77 258.494 377.642 258.367 377.515L245.653 362.896C245.526 362.768 245.526 362.641 245.526 362.514L244.763 344.843L212.216 326.664C212.089 326.537 211.962 326.537 211.962 326.41L207.004 314.714L200.901 315.095C200.52 315.095 200.266 314.841 200.266 314.587L198.994 308.23L188.951 308.866L186.789 319.418L196.452 326.918L196.579 327.045L214.632 349.674L230.142 355.268C230.27 355.268 230.27 355.395 230.397 355.395L237.135 362.768C237.389 363.023 237.389 363.404 237.135 363.658L234.465 366.837C234.338 366.964 234.211 367.091 233.957 367.091C233.702 367.091 233.575 366.964 233.448 366.837L230.397 362.514L222.896 363.023L226.201 371.667C226.328 371.922 226.201 372.049 226.074 372.303L216.285 386.541L210.309 394.551C210.182 394.678 210.055 394.805 209.801 394.805L197.341 395.059C197.214 395.059 197.087 395.059 196.96 394.932L191.875 390.482C190.603 389.338 190.095 387.558 190.603 385.906C191.112 384.253 192.637 383.109 194.29 382.982L211.326 381.838L214.886 371.795L203.571 360.226L177.89 341.284C177.763 341.284 177.763 341.157 177.763 341.029L166.956 321.96L156.15 318.909L140.385 330.859C140.258 330.986 140.131 330.986 140.003 330.986L136.952 331.241C136.825 331.241 136.698 331.241 136.571 331.113L128.561 325.011L112.034 328.952L111.779 339.123C111.779 339.377 111.652 339.631 111.271 339.758L91.1833 345.987L76.9442 353.615L78.9783 369.125C78.9783 369.379 78.8512 369.633 78.5969 369.76L55.3311 382.982C55.204 383.109 55.0769 383.109 54.9497 383.109L38.0407 380.185L22.403 383.109C22.1487 383.109 21.7673 382.982 21.6402 382.728L17.0633 370.777L0.662851 367.091C0.40858 366.964 0.154297 366.709 0.154297 366.455L1.67992 345.86C1.67992 345.733 1.80707 345.479 1.93421 345.352L15.5377 335.563L18.5889 317.638C19.2246 313.824 21.3859 310.519 24.6915 308.484C27.8698 306.45 31.811 305.815 35.498 306.832L61.5608 313.824C68.2989 315.604 75.2914 312.171 77.9612 305.688L85.4622 287.763L63.4678 265.261C63.3407 265.134 63.2135 264.879 63.3406 264.752C63.3406 264.498 63.4678 264.371 63.7221 264.244L83.0467 254.709C87.115 252.675 91.819 252.421 96.1416 253.692L104.278 256.362L139.876 226.995C140.003 226.868 140.003 226.868 140.131 226.868L163.905 222.164L164.668 201.315V201.188L168.609 185.805C168.609 185.678 168.736 185.424 168.99 185.424C169.117 185.297 169.372 185.297 169.499 185.424L181.577 191.908C181.704 192.035 181.831 192.162 181.831 192.289C181.831 192.416 181.831 192.67 181.704 192.797L173.949 204.747L180.051 216.189L205.351 220.893L248.069 205.383L248.323 178.432C248.323 178.178 248.45 178.051 248.577 177.923C248.704 177.796 248.959 177.796 249.213 177.923L261.164 183.263L256.968 161.651C256.968 161.27 257.095 161.015 257.477 160.888L277.055 155.676L282.777 143.344L256.968 154.405C256.841 154.532 256.587 154.532 256.46 154.405L243.237 148.557C243.11 148.43 242.856 148.302 242.856 148.048L238.533 125.801C238.533 125.674 238.533 125.546 238.661 125.419L253.79 98.0866L242.093 94.527L222.006 135.462L231.287 157.583C231.414 157.837 231.287 158.091 231.16 158.218L219.59 171.058L215.395 194.959C215.395 195.213 215.268 195.34 215.013 195.467L195.689 205.129C195.562 205.256 195.307 205.256 195.18 205.129C195.053 205.002 194.926 204.875 194.799 204.62L186.026 160.634L171.533 174.237C171.406 174.364 171.152 174.491 171.024 174.364L166.066 173.474C160.599 172.584 156.404 167.753 156.277 162.287L155.26 135.717C155.26 135.462 155.387 135.335 155.514 135.208L192.765 111.181L232.431 44.184C232.558 44.0569 232.685 43.9298 232.812 43.9298L253.663 36.8106C258.748 35.0308 264.342 37.4462 266.757 42.2771C268.41 45.5825 271.462 47.8708 275.021 48.5064L310.874 54.99C314.433 55.6256 317.23 57.9139 318.629 61.2193C320.027 64.5246 319.646 68.2114 317.612 71.1353L313.035 77.8731C312.908 78.1274 312.653 78.1274 312.399 78.1274L299.558 76.729C297.397 76.4747 295.999 77.746 295.49 79.0173C294.854 80.2886 294.854 82.1955 296.38 83.5939L311.255 97.9595L326.638 89.569L349.141 48.125L381.942 0.960308C382.069 0.706051 382.324 0.706055 382.578 0.706055L398.47 3.75713C403.81 4.77416 407.624 9.47792 407.624 14.8173V45.5825L447.163 102.282C447.163 102.282 447.163 102.409 447.29 102.409L462.292 139.912L471.573 131.14C471.7 131.013 471.954 130.886 472.081 131.013C472.336 131.013 472.463 131.14 472.59 131.394L481.617 152.371L502.594 148.43C502.848 148.43 503.102 148.557 503.23 148.811L506.916 155.676C507.044 155.93 507.044 156.311 506.789 156.439L476.15 180.847C476.023 180.847 476.023 180.974 475.895 180.974L446.654 188.221L436.992 208.688C436.865 208.816 436.738 209.07 436.483 209.07L427.711 210.595L432.288 229.538L454.918 243.267C455.172 243.395 455.299 243.776 455.172 244.03L447.29 268.693L489.372 293.992C489.626 294.119 489.626 294.373 489.626 294.5L489.245 317.765C489.245 318.019 488.99 318.273 488.736 318.401L481.998 320.053C481.744 320.18 481.362 320.053 481.235 319.672L476.15 309.756L458.986 324.884C458.859 325.011 458.478 325.138 458.351 325.011L388.68 293.483C381.688 290.305 377.62 282.805 378.764 275.177L380.671 262.718L352.065 280.135L357.914 283.567C360.075 284.839 361.346 287.127 361.473 289.669C361.601 292.212 360.202 294.5 358.041 295.772L351.175 299.967C350.921 300.094 350.54 300.094 350.413 299.84L337.953 285.856L334.139 280.262L320.027 287.635L310.365 328.062L323.206 341.665C323.333 341.792 323.46 342.046 323.333 342.174C323.333 342.428 323.206 342.555 322.951 342.682L305.025 351.327C305.025 351.327 304.898 351.327 304.771 351.327L271.97 355.649L289.769 376.244C290.023 376.498 290.023 376.753 289.769 377.007L281.76 387.431L282.395 395.949C282.395 396.076 282.395 396.33 282.268 396.457C282.268 396.585 282.014 396.585 281.887 396.585ZM267.647 394.551L281.251 395.313L280.742 387.304C280.742 387.177 280.742 387.05 280.87 386.923L288.752 376.625L270.572 355.522C270.444 355.395 270.317 355.141 270.444 354.886C270.572 354.632 270.699 354.505 270.953 354.505L304.771 350.056L321.934 341.792L309.475 328.571C309.348 328.444 309.221 328.189 309.348 327.935L319.137 287C319.137 286.873 319.264 286.618 319.519 286.618L334.394 278.864C334.648 278.736 335.029 278.863 335.156 279.118L339.225 285.093L351.303 298.696L357.659 294.755C359.439 293.61 360.456 291.831 360.456 289.669C360.456 287.635 359.312 285.728 357.532 284.711L350.794 280.77C350.54 280.643 350.54 280.389 350.54 280.262C350.54 280.008 350.667 279.881 350.794 279.753L381.434 261.193C381.688 261.066 381.942 261.066 382.069 261.193C382.324 261.32 382.324 261.574 382.324 261.828L380.162 275.558C379.018 282.55 382.832 289.542 389.316 292.466L458.605 323.74L476.023 308.357C476.15 308.23 476.404 308.23 476.531 308.23C476.785 308.23 476.912 308.357 477.04 308.612L482.379 318.782L488.228 317.383L488.609 295.009L446.654 269.837C446.4 269.71 446.273 269.329 446.4 269.075L454.282 244.412L431.907 230.809C431.779 230.682 431.652 230.555 431.652 230.427L426.821 210.468C426.821 210.341 426.821 210.087 426.948 209.96C427.075 209.833 427.203 209.706 427.33 209.706L436.356 208.053L445.891 187.585C446.019 187.458 446.146 187.331 446.273 187.204L475.641 179.957L505.264 156.057L502.085 150.082L481.108 154.023C480.854 154.023 480.472 153.896 480.345 153.642L471.573 133.047L462.292 141.946C462.165 142.073 461.911 142.2 461.656 142.073C461.402 142.073 461.275 141.946 461.148 141.692L445.891 103.426L406.225 46.5995C406.098 46.4724 406.098 46.3452 406.098 46.2181V15.1987C406.098 10.3678 402.665 6.2997 397.961 5.28267L382.451 2.23159L349.904 49.0149L327.401 90.586C327.401 90.7131 327.274 90.8403 327.147 90.8403L311.255 99.6121C311.001 99.7393 310.746 99.7393 310.492 99.485L295.363 84.7381C293.71 83.0854 293.329 80.7971 294.219 78.6359C295.109 76.4747 297.27 75.3306 299.558 75.5848L312.018 76.8561L316.34 70.4997C318.12 67.9571 318.375 64.6518 317.23 61.7278C315.959 58.8038 313.416 56.7698 310.365 56.2613L274.513 49.7777C270.572 49.0149 267.139 46.4724 265.359 42.7856C263.325 38.5904 258.367 36.4292 253.917 38.0819L233.321 45.2011L193.655 112.198C193.655 112.325 193.527 112.325 193.4 112.452L156.277 136.352L157.294 162.541C157.421 167.499 161.235 171.694 166.066 172.584L170.643 173.347L185.772 159.108C185.899 158.981 186.154 158.854 186.408 158.981C186.662 159.108 186.789 159.235 186.789 159.49L195.689 203.73L213.996 194.577L218.192 170.804C218.192 170.677 218.319 170.55 218.319 170.55L229.761 157.837L220.48 135.844C220.353 135.717 220.353 135.462 220.48 135.335L240.949 93.6371C241.076 93.3828 241.458 93.2557 241.712 93.2557L254.68 97.1967C254.807 97.1967 255.061 97.3238 255.061 97.5781C255.188 97.7052 255.061 97.9595 255.061 98.0866L239.55 125.928L243.873 147.667L256.587 153.26L283.667 141.692C283.921 141.565 284.175 141.692 284.429 141.819C284.556 141.946 284.684 142.327 284.556 142.582L277.945 156.693C277.818 156.82 277.691 156.947 277.564 157.074L258.239 162.159L262.562 184.407C262.562 184.661 262.562 184.915 262.308 185.043C262.053 185.17 261.926 185.17 261.672 185.17L249.467 179.703L249.213 206.146C249.213 206.4 249.086 206.654 248.831 206.782L205.605 222.546C205.478 222.546 205.351 222.546 205.224 222.546L179.415 217.715C179.288 217.715 179.034 217.588 179.034 217.333L172.55 205.256C172.423 205.002 172.423 204.748 172.55 204.62L180.178 192.925L169.372 187.204L165.685 201.696L165.176 222.8C165.176 223.054 164.922 223.308 164.668 223.435L140.639 228.139L104.914 257.633C104.787 257.76 104.533 257.76 104.278 257.76L95.7602 255.09C91.6919 253.819 87.4964 254.073 83.6823 255.98L65.1206 265.134L86.6065 287.254C86.7336 287.381 86.8607 287.763 86.7336 287.89L79.1055 306.196C76.1813 313.188 68.5532 317.002 61.1793 314.968L35.1166 307.976C31.811 307.086 28.2513 307.595 25.3271 309.502C22.403 311.408 20.3688 314.332 19.8603 317.765L16.8091 335.944C16.8091 336.071 16.6819 336.199 16.5548 336.326L3.07842 346.115L1.67992 365.82L17.9533 369.506C18.2075 369.506 18.3347 369.761 18.4618 369.888L22.9116 381.711L38.0407 378.914C38.1678 378.914 38.1678 378.914 38.295 378.914L55.0768 381.838L77.9612 368.998L75.9271 353.488C75.9271 353.234 76.0542 352.98 76.3085 352.852L91.0562 344.97L110.762 338.741L111.016 328.571C111.016 328.317 111.271 328.062 111.525 327.935L128.815 323.867C128.943 323.867 129.197 323.867 129.324 323.994L137.334 330.096L139.876 329.969L155.768 318.019C155.895 317.892 156.15 317.892 156.277 317.892L167.592 321.07C167.719 321.07 167.846 321.197 167.973 321.324L178.907 340.521L204.715 359.336L216.285 371.159C216.412 371.286 216.539 371.54 216.412 371.795L212.598 382.601C212.471 382.855 212.343 382.982 212.089 382.982L194.672 384.253C193.146 384.38 192.383 385.397 192.002 386.287C191.748 387.177 191.748 388.576 192.892 389.465L197.85 393.788L209.674 393.534L215.395 385.779L224.93 371.795L221.37 362.641C221.243 362.514 221.37 362.26 221.37 362.133C221.37 362.006 221.624 361.878 221.879 361.878L230.651 361.243C230.905 361.243 231.032 361.37 231.16 361.497L233.957 365.438L235.736 363.404L229.507 356.539L213.869 350.945C213.742 350.945 213.615 350.818 213.615 350.691L195.562 327.935L185.645 320.307C185.391 320.18 185.391 319.926 185.391 319.672L187.806 308.23C187.806 307.976 188.061 307.722 188.442 307.722L199.503 307.086C199.757 307.086 200.138 307.34 200.138 307.595L201.41 313.951L207.385 313.57C207.639 313.57 207.894 313.697 208.021 313.951L213.106 325.774L245.907 344.08C246.162 344.208 246.162 344.335 246.289 344.589L247.051 362.387L259.384 376.625L268.665 375.99C269.046 375.99 269.3 375.99 269.682 376.117L276.293 378.532C276.547 378.66 276.801 378.914 276.674 379.168C276.547 379.422 276.42 379.676 276.166 379.676L264.088 381.329L267.647 394.551Z" fill="#89C0E5"/>
<path d="M48.2115 85.2469C48.0844 85.2469 47.9572 85.2469 47.8301 85.1198L35.3708 73.4239C35.1165 73.1697 35.1165 72.9154 35.2437 72.6611L41.3462 62.4909L42.2361 60.5839C43.1261 58.677 44.7788 57.2786 46.9401 56.7701C48.9743 56.2615 51.1356 56.7701 52.7884 58.0413L56.8567 61.0924L80.3768 65.2877C80.5039 65.2877 80.7582 65.4148 80.8853 65.542C81.0124 65.6691 81.0124 65.9233 80.8853 66.0505L76.817 76.2208C75.0371 80.6703 70.7145 83.7213 66.0105 84.1027L48.2115 85.2469ZM36.515 72.7883L48.4658 83.9756L65.7562 82.8314C70.0788 82.5772 73.8929 79.7804 75.5456 75.8394L79.3597 66.4318L56.4753 62.3637C56.3482 62.3637 56.221 62.3637 56.221 62.2366L52.0256 59.0584C50.6271 58.0414 48.8472 57.66 47.1944 58.0413C45.5416 58.4227 44.1431 59.5669 43.3803 61.0924L42.4904 62.9994L36.515 72.7883Z" fill="#89C0E5"/>
<path d="M44.2705 222.417C44.0163 222.417 43.762 222.29 43.762 222.036L42.2364 218.985C40.3293 215.044 41.3464 210.213 44.7791 207.416L48.3389 204.492L48.466 194.068C48.466 193.94 48.5931 193.686 48.7203 193.559C48.8474 193.432 48.9745 193.432 49.2288 193.432L54.9499 193.94L65.7564 185.55C65.8836 185.423 66.1378 185.423 66.265 185.423L73.2574 186.948C73.5117 186.948 73.6388 187.203 73.766 187.457C73.766 187.711 73.7659 187.965 73.5117 188.093L70.079 190.635C68.6805 191.652 67.9177 193.305 68.0449 194.957C68.172 196.737 69.0619 198.263 70.5876 199.153L74.5288 201.441C74.783 201.568 74.9102 201.95 74.783 202.204L66.7735 219.112C66.6464 219.366 66.5192 219.493 66.265 219.493L44.2705 222.417C44.3977 222.417 44.3977 222.417 44.2705 222.417ZM49.7374 194.83L49.6102 204.746C49.6102 204.874 49.4831 205.128 49.3559 205.255L45.5419 208.306C42.6178 210.721 41.6007 214.917 43.3806 218.349L44.6519 221.019L65.6293 218.349L73.1303 202.331L69.6976 200.297C67.7906 199.153 66.6464 197.246 66.6464 195.085C66.5192 192.923 67.5363 190.889 69.1891 189.618L71.4775 187.965L66.265 186.821L55.4584 195.212C55.3313 195.339 55.2042 195.339 54.9499 195.339L49.7374 194.83Z" fill="#89C0E5"/>
<path opacity="0.87" d="M280.234 252.675C279.726 252.293 279.09 252.42 278.709 252.929C278.709 253.056 277.31 254.963 275.022 254.963C274.132 254.963 273.369 254.709 272.987 254.073C272.987 254.073 272.987 253.946 272.86 253.946C278.327 250.768 278.327 248.098 278.073 247.081C277.691 245.81 276.674 245.047 275.276 245.047C272.098 245.047 270.063 248.607 270.063 251.785C270.063 252.166 270.063 252.548 270.19 253.056C269.046 253.819 267.393 254.963 265.868 254.963C264.978 254.963 264.342 254.709 263.961 254.2C263.834 254.073 263.707 253.819 263.579 253.565C267.775 252.293 269.428 249.624 269.046 247.462C268.919 246.064 267.775 245.047 266.504 245.047C263.579 245.047 261.418 248.098 261.164 251.149C260.528 251.149 260.147 250.895 259.638 250.641C259.638 250.132 259.765 249.624 259.765 249.242C259.765 248.225 259.638 247.335 259.257 246.7C258.748 245.81 257.985 245.301 256.968 245.301C256.46 245.301 255.951 245.556 255.697 246.064C255.188 247.081 255.57 248.988 256.46 250.514C256.587 250.768 256.841 251.149 257.095 251.403C256.587 253.183 255.443 254.836 253.917 254.836C253.281 254.836 252.773 254.582 252.391 254.2C251.756 253.565 251.374 252.42 251.247 251.022C255.316 245.937 257.35 240.852 256.206 238.436C255.824 237.674 255.061 237.165 254.171 237.165C251.374 237.165 249.594 240.852 248.959 248.48C248.959 248.988 248.959 249.497 248.959 250.132C247.433 252.166 244.89 254.836 242.729 254.836C242.094 254.836 241.585 254.582 241.331 254.2C241.331 254.2 241.331 254.073 241.204 254.073C241.204 254.073 241.204 254.073 241.331 254.073C246.925 250.514 246.798 247.844 246.543 246.827C246.289 245.81 245.272 245.047 244.001 245.047C240.822 245.047 238.661 248.734 238.661 252.166C238.661 252.42 238.661 252.802 238.661 253.056C237.644 253.819 236.754 254.455 235.991 255.09C236.118 254.2 236.245 252.929 236.5 251.149C236.5 250.768 236.627 250.514 236.627 250.386C236.754 249.115 234.72 248.861 234.465 250.259C234.211 251.785 233.575 254.836 231.796 254.836C230.778 254.836 230.143 253.692 230.27 251.912C230.397 249.242 231.923 246.954 233.703 246.954C234.338 246.954 234.593 247.59 234.593 247.59C235.228 248.607 237.008 247.717 236.5 246.7C236.372 246.191 235.737 244.92 233.703 244.92C229.507 244.92 228.109 249.242 227.981 252.039C227.981 252.548 227.981 252.929 227.981 253.438C227.346 254.2 226.71 254.709 225.947 254.709C225.312 254.709 224.803 253.946 225.057 252.166C225.312 250.514 225.439 249.115 225.566 248.352C226.074 244.793 221.625 244.793 221.625 244.793C221.625 244.793 221.625 242.632 219.845 242.632C218.955 242.632 218.192 243.267 218.192 244.666C218.192 245.937 219.209 246.445 219.209 246.445C218.955 248.352 218.065 254.582 216.158 254.582C215.268 254.582 215.268 253.692 215.268 252.929C215.395 252.039 215.522 250.386 215.649 250.005C215.776 248.734 213.742 248.479 213.488 249.878C213.234 251.403 212.598 254.455 210.818 254.455C209.801 254.455 209.165 253.183 209.293 251.531C209.42 248.734 210.945 246.7 212.725 246.7C213.361 246.7 213.615 247.335 213.615 247.335C214.124 248.352 215.904 247.59 215.522 246.445C215.395 245.937 214.759 244.666 212.725 244.666C208.53 244.666 207.131 248.988 207.004 251.785C207.004 252.293 207.004 252.675 207.004 253.056C206.368 253.819 205.733 254.455 204.97 254.455C204.334 254.455 203.826 254.073 203.953 252.675C203.953 252.039 204.716 247.462 204.716 246.573C204.589 245.174 203.953 244.539 202.427 244.539C200.774 244.539 199.63 245.428 199.122 245.937C199.122 245.937 199.884 240.216 200.012 239.072C200.139 237.928 197.977 237.928 197.85 239.072C197.85 239.58 197.215 244.157 196.579 248.352C195.308 251.149 192.765 255.344 189.078 255.344C182.086 255.344 185.264 239.962 191.875 239.962C193.401 239.962 192.765 242.504 191.748 243.903C190.985 245.047 192.892 246.191 193.909 244.539C196.706 239.708 194.418 237.928 192.129 237.928C182.34 237.928 178.653 257.506 188.951 257.506C192.256 257.506 194.545 255.599 196.07 253.565C195.943 254.709 195.816 255.472 195.816 255.599C195.689 256.87 197.85 256.743 197.977 255.726C198.105 255.09 198.359 252.42 198.613 250.259C198.74 249.115 200.266 246.954 201.792 246.954C202.173 246.954 202.427 247.335 202.427 247.717C202.427 248.098 201.664 253.183 201.664 253.946C201.792 256.107 203.317 256.616 204.716 256.616C205.86 256.616 206.75 256.107 207.513 255.217C208.021 256.107 208.784 256.616 209.928 256.616C212.344 256.616 213.234 254.836 213.234 254.836C213.234 254.836 213.488 256.616 215.649 256.616C219.972 256.616 220.989 249.115 221.116 246.7C221.37 246.7 222.896 246.827 223.15 247.59C223.405 248.352 222.642 251.022 222.515 253.692C222.515 255.09 223.023 256.616 225.184 256.616C226.583 256.616 227.6 255.98 228.363 255.344C228.871 256.107 229.634 256.616 230.778 256.616C232.05 256.616 232.813 256.234 233.321 255.853C233.321 256.107 233.321 256.361 233.194 256.489C233.194 256.489 227.6 260.557 227.6 264.371C227.6 265.896 228.236 266.913 230.143 266.913C233.703 266.913 234.847 262.209 235.355 258.268C235.355 258.141 235.355 257.887 235.355 257.76C235.864 257.378 236.372 256.997 236.881 256.489C237.644 255.853 238.279 255.344 239.169 254.709L239.297 254.836C240.059 255.853 241.204 256.361 242.475 256.361C245.018 256.361 247.433 254.455 249.086 252.42C249.34 253.31 249.722 254.327 250.357 254.963C251.12 255.853 252.264 256.361 253.536 256.361C255.951 256.361 257.731 254.455 258.621 252.166C259.257 252.42 260.02 252.675 260.782 252.675C260.91 253.438 261.291 254.2 261.8 254.709C262.435 255.472 263.579 256.361 265.486 256.361C267.393 256.361 269.428 255.344 270.699 254.455C270.699 254.582 270.826 254.582 270.826 254.709C271.462 255.472 272.606 256.361 274.64 256.361C278.2 256.361 280.107 253.438 280.234 253.31C280.87 253.692 280.743 253.056 280.234 252.675ZM230.524 265.388C230.143 265.388 229.888 265.133 229.888 264.752C229.888 262.845 232.94 260.175 232.94 260.175C232.685 262.718 231.541 265.388 230.524 265.388ZM243.873 247.208C244.128 247.208 244.255 247.462 244.255 247.59C244.382 247.971 244.001 249.624 240.695 251.912C240.949 249.751 242.221 247.208 243.873 247.208ZM254.171 239.581C255.061 239.581 254.299 242.759 251.374 247.208C252.137 241.36 253.027 239.581 254.171 239.581ZM266.122 247.208C266.631 247.208 266.631 247.717 266.631 247.844C266.758 248.734 265.868 250.386 263.071 251.276C263.579 249.369 264.851 247.208 266.122 247.208ZM275.276 247.208C275.657 247.208 275.784 247.462 275.912 247.717C276.039 248.352 275.276 250.005 272.225 251.785C272.352 249.751 273.496 247.208 275.276 247.208Z" fill="white"/>
</svg>
