<svg xmlns="http://www.w3.org/2000/svg" xmlns:xlink="http://www.w3.org/1999/xlink" viewBox="0 0 94 122">
  <g id="container">
    <path fill="#fff" d="M8.1 89.9L47.6 110l38-20.1V11.3H8.1z"/>
    <path fill="#f2f3f2" d="M86.4 11.6L7.3 91.3l41 20.3 38.1-19.5z"/>
    <path d="M5.5 37.5v54.1l1.4.7 39.5 20.1 1.2.6 1.2-.6 38.1-20.1 1.4-.7V8.7H5.5v28.8zm2.6 52.6V11.3h77.6v78.8l-38.1 20.1L8.1 90.1z" fill="#dcdedc"/>
    <path id="logo" d="M46.9 12.6c.4 0 .8 0 1.2.1L46.9 15c-1.8-.1-3.4 1.3-3.5 3.1-.1 1.8 1.3 3.4 3.1 3.5h.4c.8 0 1.6-.3 2.2-.8l1.3 2.2c-1 .7-2.2 1.1-3.5 1.1-3.2.1-5.9-2.3-6-5.5-.1-3.2 2.3-5.9 5.5-6h.5zm4.1 4.9l1.5 2.5-1.5 2.4-1.4-2.4h-2.9l1.5-2.5H51zm-2.4-.9c0-.4.1-.8.3-1.1.2-.3.6-.6.9-.8l.2-.1c.4-.2.5-.3.5-.5s-.3-.4-.5-.4c-.4 0-.7.2-.9.6l-.5-.5c.1-.2.3-.4.5-.6.3-.2.6-.2.9-.2.3 0 .7.1.9.3.2.2.4.5.4.8 0 .5-.3.9-.9 1.1l-.3.2c-.3.2-.5.3-.6.6h1.8v.7l-2.7-.1zm-1.7 12.5l9.5-5.4v-15H37.3v14.9l9.6 5.5z" fill="#ff492c"/>
    <path id="banner" d="M90.2 64.5H3.6l-3.2 7 3.2 7h86.6l3.1-7z" fill="#23cca2"/>
  <path fill="#252530" transform="translate(13.24, 60)" d="M5.34 0L5.34 0Q5.22 0 5.17-0.11L5.17-0.11L3.67-3.43L3.67-3.43Q3.65-3.48 3.60-3.48L3.60-3.48L2.48-3.48L2.48-3.48Q2.42-3.48 2.42-3.42L2.42-3.42L2.42-0.14L2.42-0.14Q2.42-0.08 2.38-0.04L2.38-0.04L2.38-0.04Q2.34 0 2.28 0L2.28 0L0.88 0L0.88 0Q0.82 0 0.77-0.04L0.77-0.04L0.77-0.04Q0.73-0.08 0.73-0.14L0.73-0.14L0.73-8.26L0.73-8.26Q0.73-8.32 0.77-8.36L0.77-8.36L0.77-8.36Q0.82-8.40 0.88-8.40L0.88-8.40L4.31-8.40L4.31-8.40Q5.08-8.40 5.66-8.09L5.66-8.09L5.66-8.09Q6.24-7.78 6.56-7.20L6.56-7.20L6.56-7.20Q6.88-6.62 6.88-5.87L6.88-5.87L6.88-5.87Q6.88-5.05 6.47-4.47L6.47-4.47L6.47-4.47Q6.06-3.89 5.33-3.65L5.33-3.65L5.33-3.65Q5.27-3.62 5.29-3.56L5.29-3.56L6.92-0.17L6.92-0.17Q6.95-0.12 6.95-0.10L6.95-0.10L6.95-0.10Q6.95 0 6.82 0L6.82 0L5.34 0ZM2.48-6.95L2.48-6.95Q2.42-6.95 2.42-6.89L2.42-6.89L2.42-4.84L2.42-4.84Q2.42-4.78 2.48-4.78L2.48-4.78L4.06-4.78L4.06-4.78Q4.56-4.78 4.88-5.08L4.88-5.08L4.88-5.08Q5.20-5.38 5.20-5.86L5.20-5.86L5.20-5.86Q5.20-6.34 4.88-6.64L4.88-6.64L4.88-6.64Q4.56-6.95 4.06-6.95L4.06-6.95L2.48-6.95ZM13.45-3.72L13.45-3.72Q13.52-3.26 13.50-2.70L13.50-2.70L13.50-2.70Q13.49-2.56 13.34-2.56L13.34-2.56L9.64-2.56L9.64-2.56Q9.56-2.56 9.59-2.50L9.59-2.50L9.59-2.50Q9.62-2.26 9.72-2.02L9.72-2.02L9.72-2.02Q10.03-1.34 10.99-1.34L10.99-1.34L10.99-1.34Q11.76-1.36 12.20-1.97L12.20-1.97L12.20-1.97Q12.25-2.04 12.31-2.04L12.31-2.04L12.31-2.04Q12.35-2.04 12.40-1.99L12.40-1.99L13.26-1.14L13.26-1.14Q13.32-1.08 13.32-1.03L13.32-1.03L13.32-1.03Q13.32-1.01 13.27-0.94L13.27-0.94L13.27-0.94Q12.88-0.44 12.25-0.17L12.25-0.17L12.25-0.17Q11.63 0.10 10.88 0.10L10.88 0.10L10.88 0.10Q9.85 0.10 9.14-0.37L9.14-0.37L9.14-0.37Q8.42-0.84 8.11-1.68L8.11-1.68L8.11-1.68Q7.86-2.28 7.86-3.25L7.86-3.25L7.86-3.25Q7.86-3.91 8.04-4.42L8.04-4.42L8.04-4.42Q8.32-5.27 9.01-5.77L9.01-5.77L9.01-5.77Q9.70-6.28 10.64-6.28L10.64-6.28L10.64-6.28Q11.84-6.28 12.57-5.58L12.57-5.58L12.57-5.58Q13.30-4.88 13.45-3.72L13.45-3.72ZM10.66-4.81L10.66-4.81Q9.90-4.81 9.66-4.10L9.66-4.10L9.66-4.10Q9.61-3.95 9.58-3.72L9.58-3.72L9.58-3.72Q9.58-3.66 9.64-3.66L9.64-3.66L11.71-3.66L11.71-3.66Q11.78-3.66 11.76-3.72L11.76-3.72L11.76-3.72Q11.70-4.07 11.70-4.06L11.70-4.06L11.70-4.06Q11.59-4.42 11.32-4.61L11.32-4.61L11.32-4.61Q11.05-4.81 10.66-4.81L10.66-4.81ZM14.69 0L14.69 0Q14.63 0 14.59-0.04L14.59-0.04L14.59-0.04Q14.54-0.08 14.54-0.14L14.54-0.14L14.54-8.26L14.54-8.26Q14.54-8.32 14.59-8.36L14.59-8.36L14.59-8.36Q14.63-8.40 14.69-8.40L14.69-8.40L16.09-8.40L16.09-8.40Q16.15-8.40 16.19-8.36L16.19-8.36L16.19-8.36Q16.24-8.32 16.24-8.26L16.24-8.26L16.24-0.14L16.24-0.14Q16.24-0.08 16.19-0.04L16.19-0.04L16.19-0.04Q16.15 0 16.09 0L16.09 0L14.69 0ZM19.93-6.26L19.93-6.26Q20.71-6.26 21.32-5.99L21.32-5.99L21.32-5.99Q21.94-5.72 22.28-5.26L22.28-5.26L22.28-5.26Q22.62-4.79 22.62-4.21L22.62-4.21L22.62-0.14L22.62-0.14Q22.62-0.08 22.58-0.04L22.58-0.04L22.58-0.04Q22.54 0 22.48 0L22.48 0L21.07 0L21.07 0Q21.01 0 20.97-0.04L20.97-0.04L20.97-0.04Q20.93-0.08 20.93-0.14L20.93-0.14L20.93-0.54L20.93-0.54Q20.93-0.58 20.90-0.59L20.90-0.59L20.90-0.59Q20.88-0.60 20.86-0.56L20.86-0.56L20.86-0.56Q20.35 0.10 19.24 0.10L19.24 0.10L19.24 0.10Q18.30 0.10 17.72-0.36L17.72-0.36L17.72-0.36Q17.15-0.82 17.15-1.70L17.15-1.70L17.15-1.70Q17.15-2.63 17.80-3.14L17.80-3.14L17.80-3.14Q18.44-3.65 19.64-3.65L19.64-3.65L20.87-3.65L20.87-3.65Q20.93-3.65 20.93-3.71L20.93-3.71L20.93-3.97L20.93-3.97Q20.93-4.37 20.69-4.59L20.69-4.59L20.69-4.59Q20.45-4.81 19.97-4.81L19.97-4.81L19.97-4.81Q19.60-4.81 19.35-4.68L19.35-4.68L19.35-4.68Q19.10-4.55 19.03-4.31L19.03-4.31L19.03-4.31Q19.00-4.18 18.88-4.19L18.88-4.19L17.42-4.38L17.42-4.38Q17.28-4.40 17.29-4.49L17.29-4.49L17.29-4.49Q17.34-4.99 17.69-5.40L17.69-5.40L17.69-5.40Q18.05-5.81 18.63-6.04L18.63-6.04L18.63-6.04Q19.21-6.26 19.93-6.26L19.93-6.26ZM19.69-1.16L19.69-1.16Q20.21-1.16 20.57-1.44L20.57-1.44L20.57-1.44Q20.93-1.72 20.93-2.15L20.93-2.15L20.93-2.58L20.93-2.58Q20.93-2.64 20.87-2.64L20.87-2.64L20.00-2.64L20.00-2.64Q19.46-2.64 19.16-2.44L19.16-2.44L19.16-2.44Q18.85-2.23 18.85-1.86L18.85-1.86L18.85-1.86Q18.85-1.54 19.08-1.35L19.08-1.35L19.08-1.35Q19.31-1.16 19.69-1.16L19.69-1.16ZM27.35-4.96L27.35-4.96Q27.35-4.90 27.31-4.85L27.31-4.85L27.31-4.85Q27.26-4.81 27.20-4.81L27.20-4.81L26.05-4.81L26.05-4.81Q25.99-4.81 25.99-4.75L25.99-4.75L25.99-2.21L25.99-2.21Q25.99-1.81 26.15-1.62L26.15-1.62L26.15-1.62Q26.32-1.43 26.68-1.43L26.68-1.43L27.07-1.43L27.07-1.43Q27.13-1.43 27.17-1.39L27.17-1.39L27.17-1.39Q27.22-1.34 27.22-1.28L27.22-1.28L27.22-0.14L27.22-0.14Q27.22-0.01 27.07 0.01L27.07 0.01L27.07 0.01Q26.57 0.04 26.35 0.04L26.35 0.04L26.35 0.04Q25.36 0.04 24.86-0.29L24.86-0.29L24.86-0.29Q24.37-0.62 24.36-1.54L24.36-1.54L24.36-4.75L24.36-4.75Q24.36-4.81 24.30-4.81L24.30-4.81L23.62-4.81L23.62-4.81Q23.56-4.81 23.51-4.85L23.51-4.85L23.51-4.85Q23.47-4.90 23.47-4.96L23.47-4.96L23.47-6.02L23.47-6.02Q23.47-6.08 23.51-6.13L23.51-6.13L23.51-6.13Q23.56-6.17 23.62-6.17L23.62-6.17L24.30-6.17L24.30-6.17Q24.36-6.17 24.36-6.23L24.36-6.23L24.36-7.66L24.36-7.66Q24.36-7.72 24.40-7.76L24.40-7.76L24.40-7.76Q24.44-7.80 24.50-7.80L24.50-7.80L25.85-7.80L25.85-7.80Q25.91-7.80 25.95-7.76L25.95-7.76L25.95-7.76Q25.99-7.72 25.99-7.66L25.99-7.66L25.99-6.23L25.99-6.23Q25.99-6.17 26.05-6.17L26.05-6.17L27.20-6.17L27.20-6.17Q27.26-6.17 27.31-6.13L27.31-6.13L27.31-6.13Q27.35-6.08 27.35-6.02L27.35-6.02L27.35-4.96ZM29.28-6.86L29.28-6.86Q28.87-6.86 28.60-7.13L28.60-7.13L28.60-7.13Q28.33-7.40 28.33-7.81L28.33-7.81L28.33-7.81Q28.33-8.23 28.60-8.50L28.60-8.50L28.60-8.50Q28.86-8.76 29.28-8.76L29.28-8.76L29.28-8.76Q29.70-8.76 29.96-8.50L29.96-8.50L29.96-8.50Q30.23-8.23 30.23-7.81L30.23-7.81L30.23-7.81Q30.23-7.40 29.96-7.13L29.96-7.13L29.96-7.13Q29.69-6.86 29.28-6.86L29.28-6.86ZM28.56 0L28.56 0Q28.50 0 28.46-0.04L28.46-0.04L28.46-0.04Q28.42-0.08 28.42-0.14L28.42-0.14L28.42-6.04L28.42-6.04Q28.42-6.10 28.46-6.14L28.46-6.14L28.46-6.14Q28.50-6.18 28.56-6.18L28.56-6.18L29.96-6.18L29.96-6.18Q30.02-6.18 30.07-6.14L30.07-6.14L30.07-6.14Q30.11-6.10 30.11-6.04L30.11-6.04L30.11-0.14L30.11-0.14Q30.11-0.08 30.07-0.04L30.07-0.04L30.07-0.04Q30.02 0 29.96 0L29.96 0L28.56 0ZM34.15 0.10L34.15 0.10Q33.14 0.10 32.42-0.43L32.42-0.43L32.42-0.43Q31.70-0.96 31.44-1.87L31.44-1.87L31.44-1.87Q31.27-2.44 31.27-3.10L31.27-3.10L31.27-3.10Q31.27-3.80 31.44-4.37L31.44-4.37L31.44-4.37Q31.72-5.26 32.44-5.76L32.44-5.76L32.44-5.76Q33.16-6.26 34.16-6.26L34.16-6.26L34.16-6.26Q35.15-6.26 35.84-5.77L35.84-5.77L35.84-5.77Q36.54-5.27 36.83-4.38L36.83-4.38L36.83-4.38Q37.02-3.78 37.02-3.12L37.02-3.12L37.02-3.12Q37.02-2.47 36.85-1.91L36.85-1.91L36.85-1.91Q36.59-0.97 35.87-0.44L35.87-0.44L35.87-0.44Q35.16 0.10 34.15 0.10L34.15 0.10ZM34.15-1.36L34.15-1.36Q34.55-1.36 34.82-1.60L34.82-1.60L34.82-1.60Q35.10-1.84 35.22-2.26L35.22-2.26L35.22-2.26Q35.32-2.64 35.32-3.10L35.32-3.10L35.32-3.10Q35.32-3.60 35.22-3.95L35.22-3.95L35.22-3.95Q35.09-4.36 34.81-4.58L34.81-4.58L34.81-4.58Q34.54-4.81 34.14-4.81L34.14-4.81L34.14-4.81Q33.73-4.81 33.46-4.58L33.46-4.58L33.46-4.58Q33.19-4.36 33.07-3.95L33.07-3.95L33.07-3.95Q32.98-3.66 32.98-3.10L32.98-3.10L32.98-3.10Q32.98-2.56 33.06-2.26L33.06-2.26L33.06-2.26Q33.18-1.84 33.46-1.60L33.46-1.60L33.46-1.60Q33.74-1.36 34.15-1.36L34.15-1.36ZM41.33-6.26L41.33-6.26Q42.29-6.26 42.88-5.68L42.88-5.68L42.88-5.68Q43.46-5.09 43.46-4.08L43.46-4.08L43.46-0.14L43.46-0.14Q43.46-0.08 43.42-0.04L43.42-0.04L43.42-0.04Q43.38 0 43.32 0L43.32 0L41.92 0L41.92 0Q41.86 0 41.81-0.04L41.81-0.04L41.81-0.04Q41.77-0.08 41.77-0.14L41.77-0.14L41.77-3.73L41.77-3.73Q41.77-4.21 41.50-4.51L41.50-4.51L41.50-4.51Q41.23-4.81 40.79-4.81L40.79-4.81L40.79-4.81Q40.34-4.81 40.07-4.51L40.07-4.51L40.07-4.51Q39.80-4.21 39.80-3.73L39.80-3.73L39.80-0.14L39.80-0.14Q39.80-0.08 39.76-0.04L39.76-0.04L39.76-0.04Q39.72 0 39.66 0L39.66 0L38.26 0L38.26 0Q38.20 0 38.15-0.04L38.15-0.04L38.15-0.04Q38.11-0.08 38.11-0.14L38.11-0.14L38.11-6.02L38.11-6.02Q38.11-6.08 38.15-6.13L38.15-6.13L38.15-6.13Q38.20-6.17 38.26-6.17L38.26-6.17L39.66-6.17L39.66-6.17Q39.72-6.17 39.76-6.13L39.76-6.13L39.76-6.13Q39.80-6.08 39.80-6.02L39.80-6.02L39.80-5.60L39.80-5.60Q39.80-5.57 39.83-5.56L39.83-5.56L39.83-5.56Q39.85-5.54 39.86-5.57L39.86-5.57L39.86-5.57Q40.36-6.26 41.33-6.26L41.33-6.26ZM47.14 0.08L47.14 0.08Q46.33 0.08 45.73-0.14L45.73-0.14L45.73-0.14Q45.13-0.37 44.80-0.78L44.80-0.78L44.80-0.78Q44.47-1.19 44.47-1.70L44.47-1.70L44.47-1.82L44.47-1.82Q44.47-1.88 44.51-1.93L44.51-1.93L44.51-1.93Q44.56-1.97 44.62-1.97L44.62-1.97L45.95-1.97L45.95-1.97Q46.01-1.97 46.05-1.93L46.05-1.93L46.05-1.93Q46.09-1.88 46.09-1.82L46.09-1.82L46.09-1.81L46.09-1.81Q46.09-1.55 46.39-1.36L46.39-1.36L46.39-1.36Q46.68-1.18 47.12-1.18L47.12-1.18L47.12-1.18Q47.53-1.18 47.78-1.34L47.78-1.34L47.78-1.34Q48.04-1.50 48.04-1.74L48.04-1.74L48.04-1.74Q48.04-1.96 47.82-2.06L47.82-2.06L47.82-2.06Q47.60-2.17 47.11-2.29L47.11-2.29L47.11-2.29Q46.55-2.44 46.22-2.57L46.22-2.57L46.22-2.57Q45.46-2.83 45.00-3.22L45.00-3.22L45.00-3.22Q44.54-3.60 44.54-4.32L44.54-4.32L44.54-4.32Q44.54-5.21 45.23-5.73L45.23-5.73L45.23-5.73Q45.92-6.25 47.06-6.25L47.06-6.25L47.06-6.25Q47.83-6.25 48.41-6.01L48.41-6.01L48.41-6.01Q48.98-5.76 49.30-5.32L49.30-5.32L49.30-5.32Q49.62-4.87 49.62-4.31L49.62-4.31L49.62-4.31Q49.62-4.25 49.58-4.21L49.58-4.21L49.58-4.21Q49.54-4.16 49.48-4.16L49.48-4.16L48.19-4.16L48.19-4.16Q48.13-4.16 48.09-4.21L48.09-4.21L48.09-4.21Q48.05-4.25 48.05-4.31L48.05-4.31L48.05-4.31Q48.05-4.57 47.78-4.75L47.78-4.75L47.78-4.75Q47.51-4.93 47.06-4.93L47.06-4.93L47.06-4.93Q46.67-4.93 46.42-4.79L46.42-4.79L46.42-4.79Q46.16-4.64 46.16-4.39L46.16-4.39L46.16-4.39Q46.16-4.15 46.41-4.03L46.41-4.03L46.41-4.03Q46.66-3.91 47.23-3.78L47.23-3.78L47.23-3.78Q47.36-3.74 47.53-3.70L47.53-3.70L47.53-3.70Q47.70-3.66 47.89-3.60L47.89-3.60L47.89-3.60Q48.74-3.35 49.24-2.95L49.24-2.95L49.24-2.95Q49.73-2.56 49.73-1.80L49.73-1.80L49.73-1.80Q49.73-0.91 49.03-0.41L49.03-0.41L49.03-0.41Q48.32 0.08 47.14 0.08L47.14 0.08ZM53.92-6.26L53.92-6.26Q54.88-6.26 55.46-5.68L55.46-5.68L55.46-5.68Q56.05-5.09 56.05-4.08L56.05-4.08L56.05-0.14L56.05-0.14Q56.05-0.08 56.01-0.04L56.01-0.04L56.01-0.04Q55.97 0 55.91 0L55.91 0L54.50 0L54.50 0Q54.44 0 54.40-0.04L54.40-0.04L54.40-0.04Q54.36-0.08 54.36-0.14L54.36-0.14L54.36-3.73L54.36-3.73Q54.36-4.21 54.09-4.51L54.09-4.51L54.09-4.51Q53.82-4.81 53.38-4.81L53.38-4.81L53.38-4.81Q52.93-4.81 52.66-4.51L52.66-4.51L52.66-4.51Q52.39-4.21 52.39-3.73L52.39-3.73L52.39-0.14L52.39-0.14Q52.39-0.08 52.35-0.04L52.35-0.04L52.35-0.04Q52.31 0 52.25 0L52.25 0L50.84 0L50.84 0Q50.78 0 50.74-0.04L50.74-0.04L50.74-0.04Q50.70-0.08 50.70-0.14L50.70-0.14L50.70-8.26L50.70-8.26Q50.70-8.32 50.74-8.36L50.74-8.36L50.74-8.36Q50.78-8.40 50.84-8.40L50.84-8.40L52.25-8.40L52.25-8.40Q52.31-8.40 52.35-8.36L52.35-8.36L52.35-8.36Q52.39-8.32 52.39-8.26L52.39-8.26L52.39-5.60L52.39-5.60Q52.39-5.57 52.42-5.56L52.42-5.56L52.42-5.56Q52.44-5.54 52.45-5.57L52.45-5.57L52.45-5.57Q52.94-6.26 53.92-6.26L53.92-6.26ZM58.18-6.86L58.18-6.86Q57.77-6.86 57.50-7.13L57.50-7.13L57.50-7.13Q57.23-7.40 57.23-7.81L57.23-7.81L57.23-7.81Q57.23-8.23 57.49-8.50L57.49-8.50L57.49-8.50Q57.76-8.76 58.18-8.76L58.18-8.76L58.18-8.76Q58.60-8.76 58.86-8.50L58.86-8.50L58.86-8.50Q59.12-8.23 59.12-7.81L59.12-7.81L59.12-7.81Q59.12-7.40 58.85-7.13L58.85-7.13L58.85-7.13Q58.58-6.86 58.18-6.86L58.18-6.86ZM57.46 0L57.46 0Q57.40 0 57.35-0.04L57.35-0.04L57.35-0.04Q57.31-0.08 57.31-0.14L57.31-0.14L57.31-6.04L57.31-6.04Q57.31-6.10 57.35-6.14L57.35-6.14L57.35-6.14Q57.40-6.18 57.46-6.18L57.46-6.18L58.86-6.18L58.86-6.18Q58.92-6.18 58.96-6.14L58.96-6.14L58.96-6.14Q59.00-6.10 59.00-6.04L59.00-6.04L59.00-0.14L59.00-0.14Q59.00-0.08 58.96-0.04L58.96-0.04L58.96-0.04Q58.92 0 58.86 0L58.86 0L57.46 0ZM65.83-4.51L65.83-4.51Q66.05-3.90 66.05-3.07L66.05-3.07L66.05-3.07Q66.05-2.24 65.82-1.57L65.82-1.57L65.82-1.57Q65.54-0.80 64.95-0.35L64.95-0.35L64.95-0.35Q64.36 0.10 63.48 0.10L63.48 0.10L63.48 0.10Q62.62 0.10 62.14-0.50L62.14-0.50L62.14-0.50Q62.11-0.54 62.09-0.53L62.09-0.53L62.09-0.53Q62.06-0.52 62.06-0.48L62.06-0.48L62.06 2.09L62.06 2.09Q62.06 2.15 62.02 2.19L62.02 2.19L62.02 2.19Q61.98 2.23 61.92 2.23L61.92 2.23L60.52 2.23L60.52 2.23Q60.46 2.23 60.41 2.19L60.41 2.19L60.41 2.19Q60.37 2.15 60.37 2.09L60.37 2.09L60.37-6.02L60.37-6.02Q60.37-6.08 60.41-6.13L60.41-6.13L60.41-6.13Q60.46-6.17 60.52-6.17L60.52-6.17L61.92-6.17L61.92-6.17Q61.98-6.17 62.02-6.13L62.02-6.13L62.02-6.13Q62.06-6.08 62.06-6.02L62.06-6.02L62.06-5.63L62.06-5.63Q62.06-5.59 62.09-5.59L62.09-5.59L62.09-5.59Q62.11-5.58 62.14-5.60L62.14-5.60L62.14-5.60Q62.64-6.26 63.53-6.26L63.53-6.26L63.53-6.26Q64.36-6.26 64.96-5.80L64.96-5.80L64.96-5.80Q65.57-5.34 65.83-4.51L65.83-4.51ZM64.00-1.82L64.00-1.82Q64.30-2.29 64.30-3.10L64.30-3.10L64.30-3.10Q64.30-3.85 64.04-4.30L64.04-4.30L64.04-4.30Q63.77-4.81 63.16-4.81L63.16-4.81L63.16-4.81Q62.60-4.81 62.33-4.30L62.33-4.30L62.33-4.30Q62.08-3.86 62.08-3.08L62.08-3.08L62.08-3.08Q62.08-2.28 62.34-1.84L62.34-1.84L62.34-1.84Q62.62-1.36 63.16-1.36L63.16-1.36L63.16-1.36Q63.70-1.36 64.00-1.82L64.00-1.82Z"/><path fill="#252530" transform="translate(34.18, 48)" d="M5.71-4.38L5.71-4.38Q5.64-4.34 5.71-4.31L5.71-4.31L5.71-4.31Q6.85-3.72 6.85-2.35L6.85-2.35L6.85-2.35Q6.85-1.19 6.06-0.59L6.06-0.59L6.06-0.59Q5.27 0 3.98 0L3.98 0L0.88 0L0.88 0Q0.82 0 0.77-0.04L0.77-0.04L0.77-0.04Q0.73-0.08 0.73-0.14L0.73-0.14L0.73-8.26L0.73-8.26Q0.73-8.32 0.77-8.36L0.77-8.36L0.77-8.36Q0.82-8.40 0.88-8.40L0.88-8.40L3.89-8.40L3.89-8.40Q6.73-8.40 6.73-6.10L6.73-6.10L6.73-6.10Q6.73-4.90 5.71-4.38L5.71-4.38ZM2.48-6.95L2.48-6.95Q2.42-6.95 2.42-6.89L2.42-6.89L2.42-5.02L2.42-5.02Q2.42-4.96 2.48-4.96L2.48-4.96L3.89-4.96L3.89-4.96Q4.45-4.96 4.76-5.22L4.76-5.22L4.76-5.22Q5.08-5.48 5.08-5.94L5.08-5.94L5.08-5.94Q5.08-6.41 4.76-6.68L4.76-6.68L4.76-6.68Q4.45-6.95 3.89-6.95L3.89-6.95L2.48-6.95ZM3.98-1.46L3.98-1.46Q4.54-1.46 4.85-1.75L4.85-1.75L4.85-1.75Q5.16-2.03 5.16-2.52L5.16-2.52L5.16-2.52Q5.16-3.01 4.85-3.29L4.85-3.29L4.85-3.29Q4.54-3.58 3.97-3.58L3.97-3.58L2.48-3.58L2.48-3.58Q2.42-3.58 2.42-3.52L2.42-3.52L2.42-1.52L2.42-1.52Q2.42-1.46 2.48-1.46L2.48-1.46L3.98-1.46ZM13.52-3.72L13.52-3.72Q13.60-3.26 13.57-2.70L13.57-2.70L13.57-2.70Q13.56-2.56 13.42-2.56L13.42-2.56L9.71-2.56L9.71-2.56Q9.64-2.56 9.66-2.50L9.66-2.50L9.66-2.50Q9.70-2.26 9.79-2.02L9.79-2.02L9.79-2.02Q10.10-1.34 11.06-1.34L11.06-1.34L11.06-1.34Q11.83-1.36 12.28-1.97L12.28-1.97L12.28-1.97Q12.32-2.04 12.38-2.04L12.38-2.04L12.38-2.04Q12.42-2.04 12.47-1.99L12.47-1.99L13.33-1.14L13.33-1.14Q13.39-1.08 13.39-1.03L13.39-1.03L13.39-1.03Q13.39-1.01 13.34-0.94L13.34-0.94L13.34-0.94Q12.95-0.44 12.32-0.17L12.32-0.17L12.32-0.17Q11.70 0.10 10.96 0.10L10.96 0.10L10.96 0.10Q9.92 0.10 9.21-0.37L9.21-0.37L9.21-0.37Q8.50-0.84 8.18-1.68L8.18-1.68L8.18-1.68Q7.93-2.28 7.93-3.25L7.93-3.25L7.93-3.25Q7.93-3.91 8.11-4.42L8.11-4.42L8.11-4.42Q8.39-5.27 9.08-5.77L9.08-5.77L9.08-5.77Q9.77-6.28 10.72-6.28L10.72-6.28L10.72-6.28Q11.92-6.28 12.64-5.58L12.64-5.58L12.64-5.58Q13.37-4.88 13.52-3.72L13.52-3.72ZM10.73-4.81L10.73-4.81Q9.97-4.81 9.73-4.10L9.73-4.10L9.73-4.10Q9.68-3.95 9.65-3.72L9.65-3.72L9.65-3.72Q9.65-3.66 9.71-3.66L9.71-3.66L11.78-3.66L11.78-3.66Q11.86-3.66 11.83-3.72L11.83-3.72L11.83-3.72Q11.77-4.07 11.77-4.06L11.77-4.06L11.77-4.06Q11.66-4.42 11.39-4.61L11.39-4.61L11.39-4.61Q11.12-4.81 10.73-4.81L10.73-4.81ZM17.08 0.08L17.08 0.08Q16.27 0.08 15.67-0.14L15.67-0.14L15.67-0.14Q15.07-0.37 14.74-0.78L14.74-0.78L14.74-0.78Q14.41-1.19 14.41-1.70L14.41-1.70L14.41-1.82L14.41-1.82Q14.41-1.88 14.45-1.93L14.45-1.93L14.45-1.93Q14.50-1.97 14.56-1.97L14.56-1.97L15.89-1.97L15.89-1.97Q15.95-1.97 15.99-1.93L15.99-1.93L15.99-1.93Q16.03-1.88 16.03-1.82L16.03-1.82L16.03-1.81L16.03-1.81Q16.03-1.55 16.33-1.36L16.33-1.36L16.33-1.36Q16.62-1.18 17.06-1.18L17.06-1.18L17.06-1.18Q17.47-1.18 17.72-1.34L17.72-1.34L17.72-1.34Q17.98-1.50 17.98-1.74L17.98-1.74L17.98-1.74Q17.98-1.96 17.76-2.06L17.76-2.06L17.76-2.06Q17.54-2.17 17.05-2.29L17.05-2.29L17.05-2.29Q16.49-2.44 16.16-2.57L16.16-2.57L16.16-2.57Q15.40-2.83 14.94-3.22L14.94-3.22L14.94-3.22Q14.48-3.60 14.48-4.32L14.48-4.32L14.48-4.32Q14.48-5.21 15.17-5.73L15.17-5.73L15.17-5.73Q15.86-6.25 17.00-6.25L17.00-6.25L17.00-6.25Q17.77-6.25 18.35-6.01L18.35-6.01L18.35-6.01Q18.92-5.76 19.24-5.32L19.24-5.32L19.24-5.32Q19.56-4.87 19.56-4.31L19.56-4.31L19.56-4.31Q19.56-4.25 19.52-4.21L19.52-4.21L19.52-4.21Q19.48-4.16 19.42-4.16L19.42-4.16L18.13-4.16L18.13-4.16Q18.07-4.16 18.03-4.21L18.03-4.21L18.03-4.21Q17.99-4.25 17.99-4.31L17.99-4.31L17.99-4.31Q17.99-4.57 17.72-4.75L17.72-4.75L17.72-4.75Q17.45-4.93 17.00-4.93L17.00-4.93L17.00-4.93Q16.61-4.93 16.36-4.79L16.36-4.79L16.36-4.79Q16.10-4.64 16.10-4.39L16.10-4.39L16.10-4.39Q16.10-4.15 16.35-4.03L16.35-4.03L16.35-4.03Q16.60-3.91 17.17-3.78L17.17-3.78L17.17-3.78Q17.30-3.74 17.47-3.70L17.47-3.70L17.47-3.70Q17.64-3.66 17.83-3.60L17.83-3.60L17.83-3.60Q18.68-3.35 19.18-2.95L19.18-2.95L19.18-2.95Q19.67-2.56 19.67-1.80L19.67-1.80L19.67-1.80Q19.67-0.91 18.97-0.41L18.97-0.41L18.97-0.41Q18.26 0.08 17.08 0.08L17.08 0.08ZM24.18-4.96L24.18-4.96Q24.18-4.90 24.14-4.85L24.14-4.85L24.14-4.85Q24.10-4.81 24.04-4.81L24.04-4.81L22.88-4.81L22.88-4.81Q22.82-4.81 22.82-4.75L22.82-4.75L22.82-2.21L22.82-2.21Q22.82-1.81 22.99-1.62L22.99-1.62L22.99-1.62Q23.15-1.43 23.51-1.43L23.51-1.43L23.90-1.43L23.90-1.43Q23.96-1.43 24.01-1.39L24.01-1.39L24.01-1.39Q24.05-1.34 24.05-1.28L24.05-1.28L24.05-0.14L24.05-0.14Q24.05-0.01 23.90 0.01L23.90 0.01L23.90 0.01Q23.40 0.04 23.18 0.04L23.18 0.04L23.18 0.04Q22.19 0.04 21.70-0.29L21.70-0.29L21.70-0.29Q21.20-0.62 21.19-1.54L21.19-1.54L21.19-4.75L21.19-4.75Q21.19-4.81 21.13-4.81L21.13-4.81L20.45-4.81L20.45-4.81Q20.39-4.81 20.35-4.85L20.35-4.85L20.35-4.85Q20.30-4.90 20.30-4.96L20.30-4.96L20.30-6.02L20.30-6.02Q20.30-6.08 20.35-6.13L20.35-6.13L20.35-6.13Q20.39-6.17 20.45-6.17L20.45-6.17L21.13-6.17L21.13-6.17Q21.19-6.17 21.19-6.23L21.19-6.23L21.19-7.66L21.19-7.66Q21.19-7.72 21.23-7.76L21.23-7.76L21.23-7.76Q21.28-7.80 21.34-7.80L21.34-7.80L22.68-7.80L22.68-7.80Q22.74-7.80 22.78-7.76L22.78-7.76L22.78-7.76Q22.82-7.72 22.82-7.66L22.82-7.66L22.82-6.23L22.82-6.23Q22.82-6.17 22.88-6.17L22.88-6.17L24.04-6.17L24.04-6.17Q24.10-6.17 24.14-6.13L24.14-6.13L24.14-6.13Q24.18-6.08 24.18-6.02L24.18-6.02L24.18-4.96Z"/><path fill="#242530" transform="translate(28.98, 75.4)" d="M2.22 0L2.22 0Q2.11 0 2.08-0.10L2.08-0.10L0.26-6.87L0.25-6.91L0.25-6.91Q0.25-7 0.36-7L0.36-7L1.34-7L1.34-7Q1.45-7 1.48-6.90L1.48-6.90L2.62-2.34L2.62-2.34Q2.63-2.31 2.65-2.31L2.65-2.31L2.65-2.31Q2.67-2.31 2.68-2.34L2.68-2.34L3.77-6.90L3.77-6.90Q3.80-7 3.90-7L3.90-7L4.86-7L4.86-7Q4.97-7 5-6.90L5-6.90L6.16-2.33L6.16-2.33Q6.17-2.30 6.19-2.30L6.19-2.30L6.19-2.30Q6.21-2.30 6.22-2.33L6.22-2.33L7.34-6.90L7.34-6.90Q7.37-7 7.48-7L7.48-7L8.41-7L8.41-7Q8.55-7 8.52-6.87L8.52-6.87L6.79-0.10L6.79-0.10Q6.76 0 6.65 0L6.65 0L5.72 0L5.72 0Q5.61 0 5.58-0.10L5.58-0.10L4.41-4.87L4.41-4.87Q4.40-4.90 4.38-4.91L4.38-4.91L4.38-4.91Q4.36-4.91 4.35-4.87L4.35-4.87L3.23-0.10L3.23-0.10Q3.20 0 3.10 0L3.10 0L2.22 0ZM9.63 0L9.63 0Q9.58 0 9.54-0.04L9.54-0.04L9.54-0.04Q9.51-0.07 9.51-0.12L9.51-0.12L9.51-6.88L9.51-6.88Q9.51-6.93 9.54-6.96L9.54-6.96L9.54-6.96Q9.58-7 9.63-7L9.63-7L10.55-7L10.55-7Q10.60-7 10.63-6.96L10.63-6.96L10.63-6.96Q10.67-6.93 10.67-6.88L10.67-6.88L10.67-0.12L10.67-0.12Q10.67-0.07 10.63-0.04L10.63-0.04L10.63-0.04Q10.60 0 10.55 0L10.55 0L9.63 0ZM16.20-6.88L16.20-6.88Q16.20-6.93 16.23-6.96L16.23-6.96L16.23-6.96Q16.27-7 16.32-7L16.32-7L17.24-7L17.24-7Q17.29-7 17.32-6.96L17.32-6.96L17.32-6.96Q17.36-6.93 17.36-6.88L17.36-6.88L17.36-0.12L17.36-0.12Q17.36-0.07 17.32-0.04L17.32-0.04L17.32-0.04Q17.29 0 17.24 0L17.24 0L16.35 0L16.35 0Q16.25 0 16.21-0.08L16.21-0.08L13.33-4.80L13.33-4.80Q13.31-4.83 13.29-4.83L13.29-4.83L13.29-4.83Q13.27-4.82 13.27-4.78L13.27-4.78L13.29-0.12L13.29-0.12Q13.29-0.07 13.25-0.04L13.25-0.04L13.25-0.04Q13.22 0 13.17 0L13.17 0L12.25 0L12.25 0Q12.20 0 12.16-0.04L12.16-0.04L12.16-0.04Q12.13-0.07 12.13-0.12L12.13-0.12L12.13-6.88L12.13-6.88Q12.13-6.93 12.16-6.96L12.16-6.96L12.16-6.96Q12.20-7 12.25-7L12.25-7L13.14-7L13.14-7Q13.24-7 13.28-6.92L13.28-6.92L16.15-2.20L16.15-2.20Q16.17-2.17 16.19-2.18L16.19-2.18L16.19-2.18Q16.21-2.18 16.21-2.22L16.21-2.22L16.20-6.88ZM23.42-7L23.42-7Q23.47-7 23.50-6.96L23.50-6.96L23.50-6.96Q23.54-6.93 23.54-6.88L23.54-6.88L23.54-6.11L23.54-6.11Q23.54-6.06 23.50-6.03L23.50-6.03L23.50-6.03Q23.47-5.99 23.42-5.99L23.42-5.99L21.58-5.99L21.58-5.99Q21.53-5.99 21.53-5.94L21.53-5.94L21.53-0.12L21.53-0.12Q21.53-0.07 21.50-0.04L21.50-0.04L21.50-0.04Q21.46 0 21.41 0L21.41 0L20.49 0L20.49 0Q20.44 0 20.41-0.04L20.41-0.04L20.41-0.04Q20.37-0.07 20.37-0.12L20.37-0.12L20.37-5.94L20.37-5.94Q20.37-5.99 20.32-5.99L20.32-5.99L18.55-5.99L18.55-5.99Q18.50-5.99 18.46-6.03L18.46-6.03L18.46-6.03Q18.43-6.06 18.43-6.11L18.43-6.11L18.43-6.88L18.43-6.88Q18.43-6.93 18.46-6.96L18.46-6.96L18.46-6.96Q18.50-7 18.55-7L18.55-7L23.42-7ZM29.35-6.12L29.35-6.12Q29.35-6.07 29.31-6.04L29.31-6.04L29.31-6.04Q29.28-6 29.23-6L29.23-6L25.82-6L25.82-6Q25.77-6 25.77-5.95L25.77-5.95L25.77-4.08L25.77-4.08Q25.77-4.03 25.82-4.03L25.82-4.03L28.11-4.03L28.11-4.03Q28.16-4.03 28.20-4.00L28.20-4.00L28.20-4.00Q28.23-3.96 28.23-3.91L28.23-3.91L28.23-3.15L28.23-3.15Q28.23-3.10 28.20-3.06L28.20-3.06L28.20-3.06Q28.16-3.03 28.11-3.03L28.11-3.03L25.82-3.03L25.82-3.03Q25.77-3.03 25.77-2.98L25.77-2.98L25.77-1.05L25.77-1.05Q25.77-1 25.82-1L25.82-1L29.23-1L29.23-1Q29.28-1 29.31-0.96L29.31-0.96L29.31-0.96Q29.35-0.93 29.35-0.88L29.35-0.88L29.35-0.12L29.35-0.12Q29.35-0.07 29.31-0.04L29.31-0.04L29.31-0.04Q29.28 0 29.23 0L29.23 0L24.73 0L24.73 0Q24.68 0 24.64-0.04L24.64-0.04L24.64-0.04Q24.61-0.07 24.61-0.12L24.61-0.12L24.61-6.88L24.61-6.88Q24.61-6.93 24.64-6.96L24.64-6.96L24.64-6.96Q24.68-7 24.73-7L24.73-7L29.23-7L29.23-7Q29.28-7 29.31-6.96L29.31-6.96L29.31-6.96Q29.35-6.93 29.35-6.88L29.35-6.88L29.35-6.12ZM34.46 0L34.46 0Q34.36 0 34.32-0.09L34.32-0.09L33-2.97L33-2.97Q32.98-3.01 32.94-3.01L32.94-3.01L31.74-3.01L31.74-3.01Q31.69-3.01 31.69-2.96L31.69-2.96L31.69-0.12L31.69-0.12Q31.69-0.07 31.65-0.04L31.65-0.04L31.65-0.04Q31.62 0 31.57 0L31.57 0L30.65 0L30.65 0Q30.60 0 30.56-0.04L30.56-0.04L30.56-0.04Q30.53-0.07 30.53-0.12L30.53-0.12L30.53-6.88L30.53-6.88Q30.53-6.93 30.56-6.96L30.56-6.96L30.56-6.96Q30.60-7 30.65-7L30.65-7L33.40-7L33.40-7Q34.01-7 34.48-6.75L34.48-6.75L34.48-6.75Q34.95-6.49 35.21-6.03L35.21-6.03L35.21-6.03Q35.47-5.56 35.47-4.96L35.47-4.96L35.47-4.96Q35.47-4.27 35.11-3.79L35.11-3.79L35.11-3.79Q34.76-3.30 34.13-3.11L34.13-3.11L34.13-3.11Q34.11-3.11 34.10-3.09L34.10-3.09L34.10-3.09Q34.09-3.07 34.10-3.05L34.10-3.05L35.51-0.14L35.51-0.14Q35.53-0.10 35.53-0.08L35.53-0.08L35.53-0.08Q35.53 0 35.42 0L35.42 0L34.46 0ZM31.74-6L31.74-6Q31.69-6 31.69-5.95L31.69-5.95L31.69-3.96L31.69-3.96Q31.69-3.91 31.74-3.91L31.74-3.91L33.24-3.91L33.24-3.91Q33.72-3.91 34.02-4.20L34.02-4.20L34.02-4.20Q34.31-4.48 34.31-4.95L34.31-4.95L34.31-4.95Q34.31-5.42 34.02-5.71L34.02-5.71L34.02-5.71Q33.72-6 33.24-6L33.24-6L31.74-6Z"/><path fill="#252530" transform="translate(30.36, 95.3)" d="M3.38-1.84L3.38-1.84Q3.35-1.81 3.36-1.78L3.36-1.78L3.36-1.78Q3.38-1.75 3.42-1.75L3.42-1.75L7.35-1.75L7.35-1.75Q7.42-1.75 7.47-1.70L7.47-1.70L7.47-1.70Q7.53-1.65 7.53-1.58L7.53-1.58L7.53-0.17L7.53-0.17Q7.53-0.10 7.47-0.05L7.47-0.05L7.47-0.05Q7.42 0 7.35 0L7.35 0L0.83 0L0.83 0Q0.75 0 0.70-0.05L0.70-0.05L0.70-0.05Q0.65-0.10 0.65-0.17L0.65-0.17L0.65-1.51L0.65-1.51Q0.65-1.64 0.74-1.73L0.74-1.73L0.74-1.73Q1.45-2.42 2.19-3.24L2.19-3.24L2.19-3.24Q2.93-4.06 3.12-4.26L3.12-4.26L3.12-4.26Q3.52-4.74 3.94-5.18L3.94-5.18L3.94-5.18Q5.26-6.64 5.26-7.35L5.26-7.35L5.26-7.35Q5.26-7.86 4.90-8.19L4.90-8.19L4.90-8.19Q4.54-8.51 3.96-8.51L3.96-8.51L3.96-8.51Q3.38-8.51 3.02-8.19L3.02-8.19L3.02-8.19Q2.65-7.86 2.65-7.32L2.65-7.32L2.65-6.96L2.65-6.96Q2.65-6.89 2.60-6.84L2.60-6.84L2.60-6.84Q2.55-6.79 2.48-6.79L2.48-6.79L0.77-6.79L0.77-6.79Q0.70-6.79 0.65-6.84L0.65-6.84L0.65-6.84Q0.59-6.89 0.59-6.96L0.59-6.96L0.59-7.64L0.59-7.64Q0.64-8.42 1.09-9.03L1.09-9.03L1.09-9.03Q1.54-9.63 2.28-9.95L2.28-9.95L2.28-9.95Q3.03-10.27 3.96-10.27L3.96-10.27L3.96-10.27Q4.99-10.27 5.75-9.88L5.75-9.88L5.75-9.88Q6.51-9.50 6.92-8.85L6.92-8.85L6.92-8.85Q7.34-8.19 7.34-7.40L7.34-7.40L7.34-7.40Q7.34-6.79 7.03-6.15L7.03-6.15L7.03-6.15Q6.73-5.51 6.12-4.77L6.12-4.77L6.12-4.77Q5.67-4.21 5.15-3.65L5.15-3.65L5.15-3.65Q4.63-3.10 3.60-2.06L3.60-2.06L3.38-1.84ZM12.24 0.16L12.24 0.16Q10.64 0.16 9.72-0.73L9.72-0.73L9.72-0.73Q8.79-1.62 8.79-3.16L8.79-3.16L8.79-6.99L8.79-6.99Q8.79-8.50 9.72-9.38L9.72-9.38L9.72-9.38Q10.64-10.27 12.24-10.27L12.24-10.27L12.24-10.27Q13.83-10.27 14.77-9.38L14.77-9.38L14.77-9.38Q15.70-8.50 15.70-6.99L15.70-6.99L15.70-3.16L15.70-3.16Q15.70-1.62 14.77-0.73L14.77-0.73L14.77-0.73Q13.83 0.16 12.24 0.16L12.24 0.16ZM12.24-1.59L12.24-1.59Q12.89-1.59 13.27-1.99L13.27-1.99L13.27-1.99Q13.66-2.39 13.66-3.06L13.66-3.06L13.66-7.05L13.66-7.05Q13.66-7.71 13.27-8.11L13.27-8.11L13.27-8.11Q12.89-8.51 12.24-8.51L12.24-8.51L12.24-8.51Q11.60-8.51 11.22-8.11L11.22-8.11L11.22-8.11Q10.83-7.71 10.83-7.05L10.83-7.05L10.83-3.06L10.83-3.06Q10.83-2.39 11.22-1.99L11.22-1.99L11.22-1.99Q11.60-1.59 12.24-1.59L12.24-1.59ZM19.76-1.84L19.76-1.84Q19.73-1.81 19.75-1.78L19.75-1.78L19.75-1.78Q19.76-1.75 19.81-1.75L19.81-1.75L23.74-1.75L23.74-1.75Q23.81-1.75 23.86-1.70L23.86-1.70L23.86-1.70Q23.91-1.65 23.91-1.58L23.91-1.58L23.91-0.17L23.91-0.17Q23.91-0.10 23.86-0.05L23.86-0.05L23.86-0.05Q23.81 0 23.74 0L23.74 0L17.21 0L17.21 0Q17.14 0 17.09-0.05L17.09-0.05L17.09-0.05Q17.04-0.10 17.04-0.17L17.04-0.17L17.04-1.51L17.04-1.51Q17.04-1.64 17.12-1.73L17.12-1.73L17.12-1.73Q17.84-2.42 18.57-3.24L18.57-3.24L18.57-3.24Q19.31-4.06 19.50-4.26L19.50-4.26L19.50-4.26Q19.91-4.74 20.33-5.18L20.33-5.18L20.33-5.18Q21.65-6.64 21.65-7.35L21.65-7.35L21.65-7.35Q21.65-7.86 21.29-8.19L21.29-8.19L21.29-8.19Q20.92-8.51 20.34-8.51L20.34-8.51L20.34-8.51Q19.76-8.51 19.40-8.19L19.40-8.19L19.40-8.19Q19.04-7.86 19.04-7.32L19.04-7.32L19.04-6.96L19.04-6.96Q19.04-6.89 18.99-6.84L18.99-6.84L18.99-6.84Q18.94-6.79 18.86-6.79L18.86-6.79L17.15-6.79L17.15-6.79Q17.08-6.79 17.03-6.84L17.03-6.84L17.03-6.84Q16.98-6.89 16.98-6.96L16.98-6.96L16.98-7.64L16.98-7.64Q17.02-8.42 17.47-9.03L17.47-9.03L17.47-9.03Q17.92-9.63 18.67-9.95L18.67-9.95L18.67-9.95Q19.42-10.27 20.34-10.27L20.34-10.27L20.34-10.27Q21.37-10.27 22.13-9.88L22.13-9.88L22.13-9.88Q22.90-9.50 23.31-8.85L23.31-8.85L23.31-8.85Q23.72-8.19 23.72-7.40L23.72-7.40L23.72-7.40Q23.72-6.79 23.42-6.15L23.42-6.15L23.42-6.15Q23.11-5.51 22.50-4.77L22.50-4.77L22.50-4.77Q22.05-4.21 21.53-3.65L21.53-3.65L21.53-3.65Q21.01-3.10 19.98-2.06L19.98-2.06L19.76-1.84ZM28.62 0.16L28.62 0.16Q27.03 0.16 26.10-0.73L26.10-0.73L26.10-0.73Q25.17-1.62 25.17-3.16L25.17-3.16L25.17-6.99L25.17-6.99Q25.17-8.50 26.10-9.38L26.10-9.38L26.10-9.38Q27.03-10.27 28.62-10.27L28.62-10.27L28.62-10.27Q30.22-10.27 31.15-9.38L31.15-9.38L31.15-9.38Q32.09-8.50 32.09-6.99L32.09-6.99L32.09-3.16L32.09-3.16Q32.09-1.62 31.15-0.73L31.15-0.73L31.15-0.73Q30.22 0.16 28.62 0.16L28.62 0.16ZM28.62-1.59L28.62-1.59Q29.28-1.59 29.66-1.99L29.66-1.99L29.66-1.99Q30.04-2.39 30.04-3.06L30.04-3.06L30.04-7.05L30.04-7.05Q30.04-7.71 29.66-8.11L29.66-8.11L29.66-8.11Q29.28-8.51 28.62-8.51L28.62-8.51L28.62-8.51Q27.99-8.51 27.60-8.11L27.60-8.11L27.60-8.11Q27.22-7.71 27.22-7.05L27.22-7.05L27.22-3.06L27.22-3.06Q27.22-2.39 27.60-1.99L27.60-1.99L27.60-1.99Q27.99-1.59 28.62-1.59L28.62-1.59Z"/></g>
</svg>
