<svg xmlns="http://www.w3.org/2000/svg" xmlns:xlink="http://www.w3.org/1999/xlink" viewBox="0 0 94 122">
  <g id="container">
    <path fill="#fff" d="M8.1 89.9L47.6 110l38-20.1V11.3H8.1z"/>
    <path fill="#f2f3f2" d="M86.4 11.6L7.3 91.3l41 20.3 38.1-19.5z"/>
    <path d="M5.5 37.5v54.1l1.4.7 39.5 20.1 1.2.6 1.2-.6 38.1-20.1 1.4-.7V8.7H5.5v28.8zm2.6 52.6V11.3h77.6v78.8l-38.1 20.1L8.1 90.1z" fill="#dcdedc"/>
    <path id="logo" d="M46.9 12.6c.4 0 .8 0 1.2.1L46.9 15c-1.8-.1-3.4 1.3-3.5 3.1-.1 1.8 1.3 3.4 3.1 3.5h.4c.8 0 1.6-.3 2.2-.8l1.3 2.2c-1 .7-2.2 1.1-3.5 1.1-3.2.1-5.9-2.3-6-5.5-.1-3.2 2.3-5.9 5.5-6h.5zm4.1 4.9l1.5 2.5-1.5 2.4-1.4-2.4h-2.9l1.5-2.5H51zm-2.4-.9c0-.4.1-.8.3-1.1.2-.3.6-.6.9-.8l.2-.1c.4-.2.5-.3.5-.5s-.3-.4-.5-.4c-.4 0-.7.2-.9.6l-.5-.5c.1-.2.3-.4.5-.6.3-.2.6-.2.9-.2.3 0 .7.1.9.3.2.2.4.5.4.8 0 .5-.3.9-.9 1.1l-.3.2c-.3.2-.5.3-.6.6h1.8v.7l-2.7-.1zm-1.7 12.5l9.5-5.4v-15H37.3v14.9l9.6 5.5z" fill="#ff492c"/>
    <path id="banner" d="M90.2 64.5H3.6l-3.2 7 3.2 7h86.6l3.1-7z" fill="#ffd200"/>
  <path fill="#252530" transform="translate(24.20, 60)" d="M8.16-10.50L8.16-10.50Q8.23-10.50 8.29-10.45L8.29-10.45L8.29-10.45Q8.34-10.39 8.34-10.32L8.34-10.32L8.34-8.85L8.34-8.85Q8.34-8.78 8.29-8.72L8.29-8.72L8.29-8.72Q8.23-8.67 8.16-8.67L8.16-8.67L5.47-8.67L5.47-8.67Q5.40-8.67 5.40-8.59L5.40-8.59L5.40-0.18L5.40-0.18Q5.40-0.10 5.35-0.05L5.35-0.05L5.35-0.05Q5.29 0 5.22 0L5.22 0L3.46 0L3.46 0Q3.39 0 3.34-0.05L3.34-0.05L3.34-0.05Q3.28-0.10 3.28-0.18L3.28-0.18L3.28-8.59L3.28-8.59Q3.28-8.67 3.21-8.67L3.21-8.67L0.60-8.67L0.60-8.67Q0.53-8.67 0.47-8.72L0.47-8.72L0.47-8.72Q0.42-8.78 0.42-8.85L0.42-8.85L0.42-10.32L0.42-10.32Q0.42-10.39 0.47-10.45L0.47-10.45L0.47-10.45Q0.53-10.50 0.60-10.50L0.60-10.50L8.16-10.50ZM12.96 0.12L12.96 0.12Q11.70 0.12 10.80-0.54L10.80-0.54L10.80-0.54Q9.90-1.20 9.57-2.34L9.57-2.34L9.57-2.34Q9.36-3.04 9.36-3.87L9.36-3.87L9.36-3.87Q9.36-4.75 9.57-5.46L9.57-5.46L9.57-5.46Q9.92-6.57 10.82-7.20L10.82-7.20L10.82-7.20Q11.71-7.83 12.98-7.83L12.98-7.83L12.98-7.83Q14.21-7.83 15.07-7.21L15.07-7.21L15.07-7.21Q15.95-6.58 16.30-5.47L16.30-5.47L16.30-5.47Q16.55-4.72 16.55-3.90L16.55-3.90L16.55-3.90Q16.55-3.09 16.34-2.38L16.34-2.38L16.34-2.38Q16.00-1.21 15.11-0.55L15.11-0.55L15.11-0.55Q14.22 0.12 12.96 0.12L12.96 0.12ZM12.96-1.69L12.96-1.69Q13.46-1.69 13.80-1.99L13.80-1.99L13.80-1.99Q14.14-2.29 14.29-2.82L14.29-2.82L14.29-2.82Q14.41-3.30 14.41-3.87L14.41-3.87L14.41-3.87Q14.41-4.50 14.29-4.93L14.29-4.93L14.29-4.93Q14.13-5.44 13.79-5.73L13.79-5.73L13.79-5.73Q13.44-6.01 12.95-6.01L12.95-6.01L12.95-6.01Q12.44-6.01 12.10-5.73L12.10-5.73L12.10-5.73Q11.76-5.44 11.61-4.93L11.61-4.93L11.61-4.93Q11.49-4.58 11.49-3.87L11.49-3.87L11.49-3.87Q11.49-3.19 11.60-2.82L11.60-2.82L11.60-2.82Q11.75-2.29 12.10-1.99L12.10-1.99L12.10-1.99Q12.45-1.69 12.96-1.69L12.96-1.69ZM24.86 0.12L24.86 0.12Q23.70 0.12 22.82-0.33L22.82-0.33L22.82-0.33Q21.95-0.78 21.46-1.60L21.46-1.60L21.46-1.60Q20.97-2.42 20.97-3.48L20.97-3.48L20.97-10.32L20.97-10.32Q20.97-10.39 21.02-10.45L21.02-10.45L21.02-10.45Q21.08-10.50 21.15-10.50L21.15-10.50L22.91-10.50L22.91-10.50Q22.98-10.50 23.03-10.45L23.03-10.45L23.03-10.45Q23.09-10.39 23.09-10.32L23.09-10.32L23.09-3.46L23.09-3.46Q23.09-2.67 23.57-2.18L23.57-2.18L23.57-2.18Q24.06-1.69 24.86-1.69L24.86-1.69L24.86-1.69Q25.65-1.69 26.14-2.18L26.14-2.18L26.14-2.18Q26.63-2.67 26.63-3.46L26.63-3.46L26.63-10.32L26.63-10.32Q26.63-10.39 26.68-10.45L26.68-10.45L26.68-10.45Q26.73-10.50 26.81-10.50L26.81-10.50L28.56-10.50L28.56-10.50Q28.64-10.50 28.69-10.45L28.69-10.45L28.69-10.45Q28.74-10.39 28.74-10.32L28.74-10.32L28.74-3.48L28.74-3.48Q28.74-2.42 28.25-1.60L28.25-1.60L28.25-1.60Q27.77-0.78 26.89-0.33L26.89-0.33L26.89-0.33Q26.01 0.12 24.86 0.12L24.86 0.12ZM33.42 0.10L33.42 0.10Q32.42 0.10 31.67-0.18L31.67-0.18L31.67-0.18Q30.92-0.46 30.50-0.97L30.50-0.97L30.50-0.97Q30.09-1.48 30.09-2.13L30.09-2.13L30.09-2.28L30.09-2.28Q30.09-2.35 30.14-2.41L30.14-2.41L30.14-2.41Q30.20-2.46 30.27-2.46L30.27-2.46L31.94-2.46L31.94-2.46Q32.01-2.46 32.06-2.41L32.06-2.41L32.06-2.41Q32.12-2.35 32.12-2.28L32.12-2.28L32.12-2.27L32.12-2.27Q32.12-1.93 32.48-1.70L32.48-1.70L32.48-1.70Q32.85-1.47 33.41-1.47L33.41-1.47L33.41-1.47Q33.92-1.47 34.23-1.67L34.23-1.67L34.23-1.67Q34.55-1.88 34.55-2.17L34.55-2.17L34.55-2.17Q34.55-2.44 34.28-2.58L34.28-2.58L34.28-2.58Q34.01-2.71 33.39-2.86L33.39-2.86L33.39-2.86Q32.69-3.04 32.28-3.21L32.28-3.21L32.28-3.21Q31.32-3.54 30.75-4.02L30.75-4.02L30.75-4.02Q30.18-4.50 30.18-5.40L30.18-5.40L30.18-5.40Q30.18-6.51 31.04-7.16L31.04-7.16L31.04-7.16Q31.91-7.81 33.33-7.81L33.33-7.81L33.33-7.81Q34.29-7.81 35.01-7.51L35.01-7.51L35.01-7.51Q35.73-7.20 36.13-6.64L36.13-6.64L36.13-6.64Q36.53-6.09 36.53-5.38L36.53-5.38L36.53-5.38Q36.53-5.31 36.47-5.26L36.47-5.26L36.47-5.26Q36.42-5.21 36.35-5.21L36.35-5.21L34.74-5.21L34.74-5.21Q34.67-5.21 34.61-5.26L34.61-5.26L34.61-5.26Q34.56-5.31 34.56-5.38L34.56-5.38L34.56-5.38Q34.56-5.71 34.22-5.94L34.22-5.94L34.22-5.94Q33.89-6.17 33.33-6.17L33.33-6.17L33.33-6.17Q32.84-6.17 32.52-5.98L32.52-5.98L32.52-5.98Q32.21-5.80 32.21-5.49L32.21-5.49L32.21-5.49Q32.21-5.19 32.51-5.04L32.51-5.04L32.51-5.04Q32.82-4.89 33.54-4.72L33.54-4.72L33.54-4.72Q33.71-4.68 33.92-4.63L33.92-4.63L33.92-4.63Q34.13-4.58 34.37-4.50L34.37-4.50L34.37-4.50Q35.43-4.18 36.05-3.69L36.05-3.69L36.05-3.69Q36.66-3.19 36.66-2.25L36.66-2.25L36.66-2.25Q36.66-1.14 35.78-0.52L35.78-0.52L35.78-0.52Q34.91 0.10 33.42 0.10L33.42 0.10ZM44.70-4.65L44.70-4.65Q44.79-4.08 44.76-3.38L44.76-3.38L44.76-3.38Q44.75-3.19 44.57-3.19L44.57-3.19L39.93-3.19L39.93-3.19Q39.84-3.19 39.87-3.12L39.87-3.12L39.87-3.12Q39.92-2.82 40.04-2.52L40.04-2.52L40.04-2.52Q40.43-1.68 41.63-1.68L41.63-1.68L41.63-1.68Q42.59-1.69 43.14-2.46L43.14-2.46L43.14-2.46Q43.20-2.55 43.28-2.55L43.28-2.55L43.28-2.55Q43.32-2.55 43.38-2.49L43.38-2.49L44.46-1.43L44.46-1.43Q44.54-1.35 44.54-1.29L44.54-1.29L44.54-1.29Q44.54-1.26 44.48-1.17L44.48-1.17L44.48-1.17Q43.98-0.55 43.20-0.22L43.20-0.22L43.20-0.22Q42.42 0.12 41.49 0.12L41.49 0.12L41.49 0.12Q40.20 0.12 39.31-0.46L39.31-0.46L39.31-0.46Q38.42-1.05 38.03-2.10L38.03-2.10L38.03-2.10Q37.71-2.85 37.71-4.06L37.71-4.06L37.71-4.06Q37.71-4.89 37.94-5.52L37.94-5.52L37.94-5.52Q38.28-6.58 39.14-7.21L39.14-7.21L39.14-7.21Q40.01-7.84 41.19-7.84L41.19-7.84L41.19-7.84Q42.69-7.84 43.60-6.97L43.60-6.97L43.60-6.97Q44.51-6.10 44.70-4.65L44.70-4.65ZM41.21-6.01L41.21-6.01Q40.26-6.01 39.96-5.13L39.96-5.13L39.96-5.13Q39.90-4.93 39.86-4.65L39.86-4.65L39.86-4.65Q39.86-4.58 39.93-4.58L39.93-4.58L42.53-4.58L42.53-4.58Q42.62-4.58 42.59-4.65L42.59-4.65L42.59-4.65Q42.51-5.08 42.51-5.07L42.51-5.07L42.51-5.07Q42.38-5.52 42.04-5.77L42.04-5.77L42.04-5.77Q41.70-6.01 41.21-6.01L41.21-6.01Z"/><path fill="#252530" transform="translate(21.61, 45)" d="M8.21-8.87L8.21-8.87Q8.21-8.79 8.15-8.74L8.15-8.74L8.15-8.74Q8.10-8.69 8.03-8.69L8.03-8.69L3.10-8.69L3.10-8.69Q3.03-8.69 3.03-8.61L3.03-8.61L3.03-6.29L3.03-6.29Q3.03-6.21 3.10-6.21L3.10-6.21L6.33-6.21L6.33-6.21Q6.40-6.21 6.46-6.16L6.46-6.16L6.46-6.16Q6.51-6.10 6.51-6.03L6.51-6.03L6.51-4.58L6.51-4.58Q6.51-4.50 6.46-4.45L6.46-4.45L6.46-4.45Q6.40-4.39 6.33-4.39L6.33-4.39L3.10-4.39L3.10-4.39Q3.03-4.39 3.03-4.32L3.03-4.32L3.03-1.89L3.03-1.89Q3.03-1.81 3.10-1.81L3.10-1.81L8.03-1.81L8.03-1.81Q8.10-1.81 8.15-1.76L8.15-1.76L8.15-1.76Q8.21-1.71 8.21-1.64L8.21-1.64L8.21-0.18L8.21-0.18Q8.21-0.10 8.15-0.05L8.15-0.05L8.15-0.05Q8.10 0 8.03 0L8.03 0L1.09 0L1.09 0Q1.02 0 0.97-0.05L0.97-0.05L0.97-0.05Q0.91-0.10 0.91-0.18L0.91-0.18L0.91-10.32L0.91-10.32Q0.91-10.39 0.97-10.45L0.97-10.45L0.97-10.45Q1.02-10.50 1.09-10.50L1.09-10.50L8.03-10.50L8.03-10.50Q8.10-10.50 8.15-10.45L8.15-10.45L8.15-10.45Q8.21-10.39 8.21-10.32L8.21-10.32L8.21-8.87ZM12.62-7.83L12.62-7.83Q13.59-7.83 14.36-7.49L14.36-7.49L14.36-7.49Q15.12-7.15 15.55-6.57L15.55-6.57L15.55-6.57Q15.97-5.98 15.97-5.26L15.97-5.26L15.97-0.18L15.97-0.18Q15.97-0.10 15.92-0.05L15.92-0.05L15.92-0.05Q15.87 0 15.79 0L15.79 0L14.04 0L14.04 0Q13.96 0 13.91-0.05L13.91-0.05L13.91-0.05Q13.86-0.10 13.86-0.18L13.86-0.18L13.86-0.67L13.86-0.67Q13.86-0.72 13.83-0.73L13.83-0.73L13.83-0.73Q13.80-0.75 13.77-0.70L13.77-0.70L13.77-0.70Q13.14 0.12 11.74 0.12L11.74 0.12L11.74 0.12Q10.57 0.12 9.86-0.45L9.86-0.45L9.86-0.45Q9.13-1.02 9.13-2.13L9.13-2.13L9.13-2.13Q9.13-3.28 9.95-3.92L9.95-3.92L9.95-3.92Q10.75-4.56 12.25-4.56L12.25-4.56L13.79-4.56L13.79-4.56Q13.86-4.56 13.86-4.63L13.86-4.63L13.86-4.96L13.86-4.96Q13.86-5.46 13.56-5.74L13.56-5.74L13.56-5.74Q13.26-6.01 12.66-6.01L12.66-6.01L12.66-6.01Q12.20-6.01 11.89-5.85L11.89-5.85L11.89-5.85Q11.58-5.68 11.49-5.38L11.49-5.38L11.49-5.38Q11.45-5.22 11.29-5.23L11.29-5.23L9.48-5.47L9.48-5.47Q9.30-5.50 9.31-5.61L9.31-5.61L9.31-5.61Q9.38-6.24 9.82-6.75L9.82-6.75L9.82-6.75Q10.26-7.26 10.99-7.54L10.99-7.54L10.99-7.54Q11.71-7.83 12.62-7.83L12.62-7.83ZM12.31-1.45L12.31-1.45Q12.96-1.45 13.41-1.80L13.41-1.80L13.41-1.80Q13.86-2.15 13.86-2.69L13.86-2.69L13.86-3.23L13.86-3.23Q13.86-3.30 13.79-3.30L13.79-3.30L12.71-3.30L12.71-3.30Q12.03-3.30 11.65-3.04L11.65-3.04L11.65-3.04Q11.27-2.79 11.27-2.32L11.27-2.32L11.27-2.32Q11.27-1.92 11.55-1.69L11.55-1.69L11.55-1.69Q11.83-1.45 12.31-1.45L12.31-1.45ZM20.54 0.10L20.54 0.10Q19.53 0.10 18.78-0.18L18.78-0.18L18.78-0.18Q18.03-0.46 17.62-0.97L17.62-0.97L17.62-0.97Q17.20-1.48 17.20-2.13L17.20-2.13L17.20-2.28L17.20-2.28Q17.20-2.35 17.26-2.41L17.26-2.41L17.26-2.41Q17.31-2.46 17.38-2.46L17.38-2.46L19.05-2.46L19.05-2.46Q19.13-2.46 19.18-2.41L19.18-2.41L19.18-2.41Q19.23-2.35 19.23-2.28L19.23-2.28L19.23-2.27L19.23-2.27Q19.23-1.93 19.60-1.70L19.60-1.70L19.60-1.70Q19.96-1.47 20.52-1.47L20.52-1.47L20.52-1.47Q21.03-1.47 21.34-1.67L21.34-1.67L21.34-1.67Q21.66-1.88 21.66-2.17L21.66-2.17L21.66-2.17Q21.66-2.44 21.39-2.58L21.39-2.58L21.39-2.58Q21.12-2.71 20.50-2.86L20.50-2.86L20.50-2.86Q19.80-3.04 19.39-3.21L19.39-3.21L19.39-3.21Q18.43-3.54 17.86-4.02L17.86-4.02L17.86-4.02Q17.29-4.50 17.29-5.40L17.29-5.40L17.29-5.40Q17.29-6.51 18.16-7.16L18.16-7.16L18.16-7.16Q19.02-7.81 20.45-7.81L20.45-7.81L20.45-7.81Q21.41-7.81 22.13-7.51L22.13-7.51L22.13-7.51Q22.84-7.20 23.24-6.64L23.24-6.64L23.24-6.64Q23.64-6.09 23.64-5.38L23.64-5.38L23.64-5.38Q23.64-5.31 23.59-5.26L23.59-5.26L23.59-5.26Q23.54-5.21 23.46-5.21L23.46-5.21L21.86-5.21L21.86-5.21Q21.78-5.21 21.73-5.26L21.73-5.26L21.73-5.26Q21.68-5.31 21.68-5.38L21.68-5.38L21.68-5.38Q21.68-5.71 21.34-5.94L21.34-5.94L21.34-5.94Q21-6.17 20.45-6.17L20.45-6.17L20.45-6.17Q19.95-6.17 19.63-5.98L19.63-5.98L19.63-5.98Q19.32-5.80 19.32-5.49L19.32-5.49L19.32-5.49Q19.32-5.19 19.63-5.04L19.63-5.04L19.63-5.04Q19.93-4.89 20.66-4.72L20.66-4.72L20.66-4.72Q20.82-4.68 21.03-4.63L21.03-4.63L21.03-4.63Q21.24-4.58 21.48-4.50L21.48-4.50L21.48-4.50Q22.55-4.18 23.16-3.69L23.16-3.69L23.16-3.69Q23.77-3.19 23.77-2.25L23.77-2.25L23.77-2.25Q23.77-1.14 22.90-0.52L22.90-0.52L22.90-0.52Q22.02 0.10 20.54 0.10L20.54 0.10ZM26.13-8.58L26.13-8.58Q25.62-8.58 25.28-8.92L25.28-8.92L25.28-8.92Q24.95-9.25 24.95-9.76L24.95-9.76L24.95-9.76Q24.95-10.29 25.28-10.62L25.28-10.62L25.28-10.62Q25.61-10.95 26.13-10.95L26.13-10.95L26.13-10.95Q26.66-10.95 26.98-10.62L26.98-10.62L26.98-10.62Q27.32-10.29 27.32-9.76L27.32-9.76L27.32-9.76Q27.32-9.25 26.98-8.92L26.98-8.92L26.98-8.92Q26.64-8.58 26.13-8.58L26.13-8.58ZM25.23 0L25.23 0Q25.16 0 25.10-0.05L25.10-0.05L25.10-0.05Q25.05-0.10 25.05-0.18L25.05-0.18L25.05-7.54L25.05-7.54Q25.05-7.62 25.10-7.67L25.10-7.67L25.10-7.67Q25.16-7.72 25.23-7.72L25.23-7.72L26.98-7.72L26.98-7.72Q27.06-7.72 27.11-7.67L27.11-7.67L27.11-7.67Q27.16-7.62 27.16-7.54L27.16-7.54L27.16-0.18L27.16-0.18Q27.16-0.10 27.11-0.05L27.11-0.05L27.11-0.05Q27.06 0 26.98 0L26.98 0L25.23 0ZM35.64-4.65L35.64-4.65Q35.73-4.08 35.70-3.38L35.70-3.38L35.70-3.38Q35.69-3.19 35.51-3.19L35.51-3.19L30.87-3.19L30.87-3.19Q30.78-3.19 30.81-3.12L30.81-3.12L30.81-3.12Q30.86-2.82 30.98-2.52L30.98-2.52L30.98-2.52Q31.37-1.68 32.56-1.68L32.56-1.68L32.56-1.68Q33.52-1.69 34.08-2.46L34.08-2.46L34.08-2.46Q34.14-2.55 34.22-2.55L34.22-2.55L34.22-2.55Q34.26-2.55 34.32-2.49L34.32-2.49L35.40-1.43L35.40-1.43Q35.48-1.35 35.48-1.29L35.48-1.29L35.48-1.29Q35.48-1.26 35.41-1.17L35.41-1.17L35.41-1.17Q34.92-0.55 34.14-0.22L34.14-0.22L34.14-0.22Q33.36 0.12 32.43 0.12L32.43 0.12L32.43 0.12Q31.14 0.12 30.25-0.46L30.25-0.46L30.25-0.46Q29.36-1.05 28.96-2.10L28.96-2.10L28.96-2.10Q28.65-2.85 28.65-4.06L28.65-4.06L28.65-4.06Q28.65-4.89 28.88-5.52L28.88-5.52L28.88-5.52Q29.22-6.58 30.08-7.21L30.08-7.21L30.08-7.21Q30.95-7.84 32.13-7.84L32.13-7.84L32.13-7.84Q33.63-7.84 34.54-6.97L34.54-6.97L34.54-6.97Q35.45-6.10 35.64-4.65L35.64-4.65ZM32.14-6.01L32.14-6.01Q31.20-6.01 30.90-5.13L30.90-5.13L30.90-5.13Q30.84-4.93 30.80-4.65L30.80-4.65L30.80-4.65Q30.80-4.58 30.87-4.58L30.87-4.58L33.47-4.58L33.47-4.58Q33.55-4.58 33.52-4.65L33.52-4.65L33.52-4.65Q33.45-5.08 33.45-5.07L33.45-5.07L33.45-5.07Q33.31-5.52 32.98-5.77L32.98-5.77L32.98-5.77Q32.64-6.01 32.14-6.01L32.14-6.01ZM40.08 0.10L40.08 0.10Q39.08 0.10 38.33-0.18L38.33-0.18L38.33-0.18Q37.58-0.46 37.16-0.97L37.16-0.97L37.16-0.97Q36.75-1.48 36.75-2.13L36.75-2.13L36.75-2.28L36.75-2.28Q36.75-2.35 36.80-2.41L36.80-2.41L36.80-2.41Q36.86-2.46 36.93-2.46L36.93-2.46L38.59-2.46L38.59-2.46Q38.67-2.46 38.72-2.41L38.72-2.41L38.72-2.41Q38.77-2.35 38.77-2.28L38.77-2.28L38.77-2.27L38.77-2.27Q38.77-1.93 39.14-1.70L39.14-1.70L39.14-1.70Q39.51-1.47 40.06-1.47L40.06-1.47L40.06-1.47Q40.58-1.47 40.89-1.67L40.89-1.67L40.89-1.67Q41.20-1.88 41.20-2.17L41.20-2.17L41.20-2.17Q41.20-2.44 40.94-2.58L40.94-2.58L40.94-2.58Q40.66-2.71 40.05-2.86L40.05-2.86L40.05-2.86Q39.34-3.04 38.94-3.21L38.94-3.21L38.94-3.21Q37.98-3.54 37.41-4.02L37.41-4.02L37.41-4.02Q36.84-4.50 36.84-5.40L36.84-5.40L36.84-5.40Q36.84-6.51 37.70-7.16L37.70-7.16L37.70-7.16Q38.56-7.81 39.99-7.81L39.99-7.81L39.99-7.81Q40.95-7.81 41.67-7.51L41.67-7.51L41.67-7.51Q42.39-7.20 42.79-6.64L42.79-6.64L42.79-6.64Q43.19-6.09 43.19-5.38L43.19-5.38L43.19-5.38Q43.19-5.31 43.13-5.26L43.13-5.26L43.13-5.26Q43.08-5.21 43.01-5.21L43.01-5.21L41.40-5.21L41.40-5.21Q41.33-5.21 41.27-5.26L41.27-5.26L41.27-5.26Q41.22-5.31 41.22-5.38L41.22-5.38L41.22-5.38Q41.22-5.71 40.88-5.94L40.88-5.94L40.88-5.94Q40.55-6.17 39.99-6.17L39.99-6.17L39.99-6.17Q39.50-6.17 39.18-5.98L39.18-5.98L39.18-5.98Q38.87-5.80 38.87-5.49L38.87-5.49L38.87-5.49Q38.87-5.19 39.17-5.04L39.17-5.04L39.17-5.04Q39.48-4.89 40.20-4.72L40.20-4.72L40.20-4.72Q40.37-4.68 40.58-4.63L40.58-4.63L40.58-4.63Q40.79-4.58 41.02-4.50L41.02-4.50L41.02-4.50Q42.09-4.18 42.70-3.69L42.70-3.69L42.70-3.69Q43.32-3.19 43.32-2.25L43.32-2.25L43.32-2.25Q43.32-1.14 42.44-0.52L42.44-0.52L42.44-0.52Q41.56 0.10 40.08 0.10L40.08 0.10ZM48.96-6.19L48.96-6.19Q48.96-6.12 48.91-6.07L48.91-6.07L48.91-6.07Q48.86-6.01 48.78-6.01L48.78-6.01L47.34-6.01L47.34-6.01Q47.27-6.01 47.27-5.94L47.27-5.94L47.27-2.76L47.27-2.76Q47.27-2.27 47.47-2.02L47.47-2.02L47.47-2.02Q47.67-1.78 48.12-1.78L48.12-1.78L48.62-1.78L48.62-1.78Q48.69-1.78 48.74-1.73L48.74-1.73L48.74-1.73Q48.80-1.68 48.80-1.60L48.80-1.60L48.80-0.18L48.80-0.18Q48.80-0.01 48.62 0.01L48.62 0.01L48.62 0.01Q47.98 0.04 47.72 0.04L47.72 0.04L47.72 0.04Q46.47 0.04 45.86-0.37L45.86-0.37L45.86-0.37Q45.24-0.78 45.23-1.92L45.23-1.92L45.23-5.94L45.23-5.94Q45.23-6.01 45.15-6.01L45.15-6.01L44.30-6.01L44.30-6.01Q44.22-6.01 44.17-6.07L44.17-6.07L44.17-6.07Q44.12-6.12 44.12-6.19L44.12-6.19L44.12-7.53L44.12-7.53Q44.12-7.60 44.17-7.66L44.17-7.66L44.17-7.66Q44.22-7.71 44.30-7.71L44.30-7.71L45.15-7.71L45.15-7.71Q45.23-7.71 45.23-7.79L45.23-7.79L45.23-9.57L45.23-9.57Q45.23-9.64 45.28-9.70L45.28-9.70L45.28-9.70Q45.33-9.75 45.41-9.75L45.41-9.75L47.09-9.75L47.09-9.75Q47.16-9.75 47.21-9.70L47.21-9.70L47.21-9.70Q47.27-9.64 47.27-9.57L47.27-9.57L47.27-7.79L47.27-7.79Q47.27-7.71 47.34-7.71L47.34-7.71L48.78-7.71L48.78-7.71Q48.86-7.71 48.91-7.66L48.91-7.66L48.91-7.66Q48.96-7.60 48.96-7.53L48.96-7.53L48.96-6.19Z"/><path fill="#242530" transform="translate(28.98, 75.4)" d="M2.22 0L2.22 0Q2.11 0 2.08-0.10L2.08-0.10L0.26-6.87L0.25-6.91L0.25-6.91Q0.25-7 0.36-7L0.36-7L1.34-7L1.34-7Q1.45-7 1.48-6.90L1.48-6.90L2.62-2.34L2.62-2.34Q2.63-2.31 2.65-2.31L2.65-2.31L2.65-2.31Q2.67-2.31 2.68-2.34L2.68-2.34L3.77-6.90L3.77-6.90Q3.80-7 3.90-7L3.90-7L4.86-7L4.86-7Q4.97-7 5-6.90L5-6.90L6.16-2.33L6.16-2.33Q6.17-2.30 6.19-2.30L6.19-2.30L6.19-2.30Q6.21-2.30 6.22-2.33L6.22-2.33L7.34-6.90L7.34-6.90Q7.37-7 7.48-7L7.48-7L8.41-7L8.41-7Q8.55-7 8.52-6.87L8.52-6.87L6.79-0.10L6.79-0.10Q6.76 0 6.65 0L6.65 0L5.72 0L5.72 0Q5.61 0 5.58-0.10L5.58-0.10L4.41-4.87L4.41-4.87Q4.40-4.90 4.38-4.91L4.38-4.91L4.38-4.91Q4.36-4.91 4.35-4.87L4.35-4.87L3.23-0.10L3.23-0.10Q3.20 0 3.10 0L3.10 0L2.22 0ZM9.63 0L9.63 0Q9.58 0 9.54-0.04L9.54-0.04L9.54-0.04Q9.51-0.07 9.51-0.12L9.51-0.12L9.51-6.88L9.51-6.88Q9.51-6.93 9.54-6.96L9.54-6.96L9.54-6.96Q9.58-7 9.63-7L9.63-7L10.55-7L10.55-7Q10.60-7 10.63-6.96L10.63-6.96L10.63-6.96Q10.67-6.93 10.67-6.88L10.67-6.88L10.67-0.12L10.67-0.12Q10.67-0.07 10.63-0.04L10.63-0.04L10.63-0.04Q10.60 0 10.55 0L10.55 0L9.63 0ZM16.20-6.88L16.20-6.88Q16.20-6.93 16.23-6.96L16.23-6.96L16.23-6.96Q16.27-7 16.32-7L16.32-7L17.24-7L17.24-7Q17.29-7 17.32-6.96L17.32-6.96L17.32-6.96Q17.36-6.93 17.36-6.88L17.36-6.88L17.36-0.12L17.36-0.12Q17.36-0.07 17.32-0.04L17.32-0.04L17.32-0.04Q17.29 0 17.24 0L17.24 0L16.35 0L16.35 0Q16.25 0 16.21-0.08L16.21-0.08L13.33-4.80L13.33-4.80Q13.31-4.83 13.29-4.83L13.29-4.83L13.29-4.83Q13.27-4.82 13.27-4.78L13.27-4.78L13.29-0.12L13.29-0.12Q13.29-0.07 13.25-0.04L13.25-0.04L13.25-0.04Q13.22 0 13.17 0L13.17 0L12.25 0L12.25 0Q12.20 0 12.16-0.04L12.16-0.04L12.16-0.04Q12.13-0.07 12.13-0.12L12.13-0.12L12.13-6.88L12.13-6.88Q12.13-6.93 12.16-6.96L12.16-6.96L12.16-6.96Q12.20-7 12.25-7L12.25-7L13.14-7L13.14-7Q13.24-7 13.28-6.92L13.28-6.92L16.15-2.20L16.15-2.20Q16.17-2.17 16.19-2.18L16.19-2.18L16.19-2.18Q16.21-2.18 16.21-2.22L16.21-2.22L16.20-6.88ZM23.42-7L23.42-7Q23.47-7 23.50-6.96L23.50-6.96L23.50-6.96Q23.54-6.93 23.54-6.88L23.54-6.88L23.54-6.11L23.54-6.11Q23.54-6.06 23.50-6.03L23.50-6.03L23.50-6.03Q23.47-5.99 23.42-5.99L23.42-5.99L21.58-5.99L21.58-5.99Q21.53-5.99 21.53-5.94L21.53-5.94L21.53-0.12L21.53-0.12Q21.53-0.07 21.50-0.04L21.50-0.04L21.50-0.04Q21.46 0 21.41 0L21.41 0L20.49 0L20.49 0Q20.44 0 20.41-0.04L20.41-0.04L20.41-0.04Q20.37-0.07 20.37-0.12L20.37-0.12L20.37-5.94L20.37-5.94Q20.37-5.99 20.32-5.99L20.32-5.99L18.55-5.99L18.55-5.99Q18.50-5.99 18.46-6.03L18.46-6.03L18.46-6.03Q18.43-6.06 18.43-6.11L18.43-6.11L18.43-6.88L18.43-6.88Q18.43-6.93 18.46-6.96L18.46-6.96L18.46-6.96Q18.50-7 18.55-7L18.55-7L23.42-7ZM29.35-6.12L29.35-6.12Q29.35-6.07 29.31-6.04L29.31-6.04L29.31-6.04Q29.28-6 29.23-6L29.23-6L25.82-6L25.82-6Q25.77-6 25.77-5.95L25.77-5.95L25.77-4.08L25.77-4.08Q25.77-4.03 25.82-4.03L25.82-4.03L28.11-4.03L28.11-4.03Q28.16-4.03 28.20-4.00L28.20-4.00L28.20-4.00Q28.23-3.96 28.23-3.91L28.23-3.91L28.23-3.15L28.23-3.15Q28.23-3.10 28.20-3.06L28.20-3.06L28.20-3.06Q28.16-3.03 28.11-3.03L28.11-3.03L25.82-3.03L25.82-3.03Q25.77-3.03 25.77-2.98L25.77-2.98L25.77-1.05L25.77-1.05Q25.77-1 25.82-1L25.82-1L29.23-1L29.23-1Q29.28-1 29.31-0.96L29.31-0.96L29.31-0.96Q29.35-0.93 29.35-0.88L29.35-0.88L29.35-0.12L29.35-0.12Q29.35-0.07 29.31-0.04L29.31-0.04L29.31-0.04Q29.28 0 29.23 0L29.23 0L24.73 0L24.73 0Q24.68 0 24.64-0.04L24.64-0.04L24.64-0.04Q24.61-0.07 24.61-0.12L24.61-0.12L24.61-6.88L24.61-6.88Q24.61-6.93 24.64-6.96L24.64-6.96L24.64-6.96Q24.68-7 24.73-7L24.73-7L29.23-7L29.23-7Q29.28-7 29.31-6.96L29.31-6.96L29.31-6.96Q29.35-6.93 29.35-6.88L29.35-6.88L29.35-6.12ZM34.46 0L34.46 0Q34.36 0 34.32-0.09L34.32-0.09L33-2.97L33-2.97Q32.98-3.01 32.94-3.01L32.94-3.01L31.74-3.01L31.74-3.01Q31.69-3.01 31.69-2.96L31.69-2.96L31.69-0.12L31.69-0.12Q31.69-0.07 31.65-0.04L31.65-0.04L31.65-0.04Q31.62 0 31.57 0L31.57 0L30.65 0L30.65 0Q30.60 0 30.56-0.04L30.56-0.04L30.56-0.04Q30.53-0.07 30.53-0.12L30.53-0.12L30.53-6.88L30.53-6.88Q30.53-6.93 30.56-6.96L30.56-6.96L30.56-6.96Q30.60-7 30.65-7L30.65-7L33.40-7L33.40-7Q34.01-7 34.48-6.75L34.48-6.75L34.48-6.75Q34.95-6.49 35.21-6.03L35.21-6.03L35.21-6.03Q35.47-5.56 35.47-4.96L35.47-4.96L35.47-4.96Q35.47-4.27 35.11-3.79L35.11-3.79L35.11-3.79Q34.76-3.30 34.13-3.11L34.13-3.11L34.13-3.11Q34.11-3.11 34.10-3.09L34.10-3.09L34.10-3.09Q34.09-3.07 34.10-3.05L34.10-3.05L35.51-0.14L35.51-0.14Q35.53-0.10 35.53-0.08L35.53-0.08L35.53-0.08Q35.53 0 35.42 0L35.42 0L34.46 0ZM31.74-6L31.74-6Q31.69-6 31.69-5.95L31.69-5.95L31.69-3.96L31.69-3.96Q31.69-3.91 31.74-3.91L31.74-3.91L33.24-3.91L33.24-3.91Q33.72-3.91 34.02-4.20L34.02-4.20L34.02-4.20Q34.31-4.48 34.31-4.95L34.31-4.95L34.31-4.95Q34.31-5.42 34.02-5.71L34.02-5.71L34.02-5.71Q33.72-6 33.24-6L33.24-6L31.74-6Z"/><path fill="#252530" transform="translate(30.36, 95.3)" d="M3.38-1.84L3.38-1.84Q3.35-1.81 3.36-1.78L3.36-1.78L3.36-1.78Q3.38-1.75 3.42-1.75L3.42-1.75L7.35-1.75L7.35-1.75Q7.42-1.75 7.47-1.70L7.47-1.70L7.47-1.70Q7.53-1.65 7.53-1.58L7.53-1.58L7.53-0.17L7.53-0.17Q7.53-0.10 7.47-0.05L7.47-0.05L7.47-0.05Q7.42 0 7.35 0L7.35 0L0.83 0L0.83 0Q0.75 0 0.70-0.05L0.70-0.05L0.70-0.05Q0.65-0.10 0.65-0.17L0.65-0.17L0.65-1.51L0.65-1.51Q0.65-1.64 0.74-1.73L0.74-1.73L0.74-1.73Q1.45-2.42 2.19-3.24L2.19-3.24L2.19-3.24Q2.93-4.06 3.12-4.26L3.12-4.26L3.12-4.26Q3.52-4.74 3.94-5.18L3.94-5.18L3.94-5.18Q5.26-6.64 5.26-7.35L5.26-7.35L5.26-7.35Q5.26-7.86 4.90-8.19L4.90-8.19L4.90-8.19Q4.54-8.51 3.96-8.51L3.96-8.51L3.96-8.51Q3.38-8.51 3.02-8.19L3.02-8.19L3.02-8.19Q2.65-7.86 2.65-7.32L2.65-7.32L2.65-6.96L2.65-6.96Q2.65-6.89 2.60-6.84L2.60-6.84L2.60-6.84Q2.55-6.79 2.48-6.79L2.48-6.79L0.77-6.79L0.77-6.79Q0.70-6.79 0.65-6.84L0.65-6.84L0.65-6.84Q0.59-6.89 0.59-6.96L0.59-6.96L0.59-7.64L0.59-7.64Q0.64-8.42 1.09-9.03L1.09-9.03L1.09-9.03Q1.54-9.63 2.28-9.95L2.28-9.95L2.28-9.95Q3.03-10.27 3.96-10.27L3.96-10.27L3.96-10.27Q4.99-10.27 5.75-9.88L5.75-9.88L5.75-9.88Q6.51-9.50 6.92-8.85L6.92-8.85L6.92-8.85Q7.34-8.19 7.34-7.40L7.34-7.40L7.34-7.40Q7.34-6.79 7.03-6.15L7.03-6.15L7.03-6.15Q6.73-5.51 6.12-4.77L6.12-4.77L6.12-4.77Q5.67-4.21 5.15-3.65L5.15-3.65L5.15-3.65Q4.63-3.10 3.60-2.06L3.60-2.06L3.38-1.84ZM12.24 0.16L12.24 0.16Q10.64 0.16 9.72-0.73L9.72-0.73L9.72-0.73Q8.79-1.62 8.79-3.16L8.79-3.16L8.79-6.99L8.79-6.99Q8.79-8.50 9.72-9.38L9.72-9.38L9.72-9.38Q10.64-10.27 12.24-10.27L12.24-10.27L12.24-10.27Q13.83-10.27 14.77-9.38L14.77-9.38L14.77-9.38Q15.70-8.50 15.70-6.99L15.70-6.99L15.70-3.16L15.70-3.16Q15.70-1.62 14.77-0.73L14.77-0.73L14.77-0.73Q13.83 0.16 12.24 0.16L12.24 0.16ZM12.24-1.59L12.24-1.59Q12.89-1.59 13.27-1.99L13.27-1.99L13.27-1.99Q13.66-2.39 13.66-3.06L13.66-3.06L13.66-7.05L13.66-7.05Q13.66-7.71 13.27-8.11L13.27-8.11L13.27-8.11Q12.89-8.51 12.24-8.51L12.24-8.51L12.24-8.51Q11.60-8.51 11.22-8.11L11.22-8.11L11.22-8.11Q10.83-7.71 10.83-7.05L10.83-7.05L10.83-3.06L10.83-3.06Q10.83-2.39 11.22-1.99L11.22-1.99L11.22-1.99Q11.60-1.59 12.24-1.59L12.24-1.59ZM19.76-1.84L19.76-1.84Q19.73-1.81 19.75-1.78L19.75-1.78L19.75-1.78Q19.76-1.75 19.81-1.75L19.81-1.75L23.74-1.75L23.74-1.75Q23.81-1.75 23.86-1.70L23.86-1.70L23.86-1.70Q23.91-1.65 23.91-1.58L23.91-1.58L23.91-0.17L23.91-0.17Q23.91-0.10 23.86-0.05L23.86-0.05L23.86-0.05Q23.81 0 23.74 0L23.74 0L17.21 0L17.21 0Q17.14 0 17.09-0.05L17.09-0.05L17.09-0.05Q17.04-0.10 17.04-0.17L17.04-0.17L17.04-1.51L17.04-1.51Q17.04-1.64 17.12-1.73L17.12-1.73L17.12-1.73Q17.84-2.42 18.57-3.24L18.57-3.24L18.57-3.24Q19.31-4.06 19.50-4.26L19.50-4.26L19.50-4.26Q19.91-4.74 20.33-5.18L20.33-5.18L20.33-5.18Q21.65-6.64 21.65-7.35L21.65-7.35L21.65-7.35Q21.65-7.86 21.29-8.19L21.29-8.19L21.29-8.19Q20.92-8.51 20.34-8.51L20.34-8.51L20.34-8.51Q19.76-8.51 19.40-8.19L19.40-8.19L19.40-8.19Q19.04-7.86 19.04-7.32L19.04-7.32L19.04-6.96L19.04-6.96Q19.04-6.89 18.99-6.84L18.99-6.84L18.99-6.84Q18.94-6.79 18.86-6.79L18.86-6.79L17.15-6.79L17.15-6.79Q17.08-6.79 17.03-6.84L17.03-6.84L17.03-6.84Q16.98-6.89 16.98-6.96L16.98-6.96L16.98-7.64L16.98-7.64Q17.02-8.42 17.47-9.03L17.47-9.03L17.47-9.03Q17.92-9.63 18.67-9.95L18.67-9.95L18.67-9.95Q19.42-10.27 20.34-10.27L20.34-10.27L20.34-10.27Q21.37-10.27 22.13-9.88L22.13-9.88L22.13-9.88Q22.90-9.50 23.31-8.85L23.31-8.85L23.31-8.85Q23.72-8.19 23.72-7.40L23.72-7.40L23.72-7.40Q23.72-6.79 23.42-6.15L23.42-6.15L23.42-6.15Q23.11-5.51 22.50-4.77L22.50-4.77L22.50-4.77Q22.05-4.21 21.53-3.65L21.53-3.65L21.53-3.65Q21.01-3.10 19.98-2.06L19.98-2.06L19.76-1.84ZM28.62 0.16L28.62 0.16Q27.03 0.16 26.10-0.73L26.10-0.73L26.10-0.73Q25.17-1.62 25.17-3.16L25.17-3.16L25.17-6.99L25.17-6.99Q25.17-8.50 26.10-9.38L26.10-9.38L26.10-9.38Q27.03-10.27 28.62-10.27L28.62-10.27L28.62-10.27Q30.22-10.27 31.15-9.38L31.15-9.38L31.15-9.38Q32.09-8.50 32.09-6.99L32.09-6.99L32.09-3.16L32.09-3.16Q32.09-1.62 31.15-0.73L31.15-0.73L31.15-0.73Q30.22 0.16 28.62 0.16L28.62 0.16ZM28.62-1.59L28.62-1.59Q29.28-1.59 29.66-1.99L29.66-1.99L29.66-1.99Q30.04-2.39 30.04-3.06L30.04-3.06L30.04-7.05L30.04-7.05Q30.04-7.71 29.66-8.11L29.66-8.11L29.66-8.11Q29.28-8.51 28.62-8.51L28.62-8.51L28.62-8.51Q27.99-8.51 27.60-8.11L27.60-8.11L27.60-8.11Q27.22-7.71 27.22-7.05L27.22-7.05L27.22-3.06L27.22-3.06Q27.22-2.39 27.60-1.99L27.60-1.99L27.60-1.99Q27.99-1.59 28.62-1.59L28.62-1.59Z"/></g>
</svg>
