<?xml version="1.0" encoding="utf-8"?>
<!-- Generator: Adobe Illustrator 24.3.0, SVG Export Plug-In . SVG Version: 6.00 Build 0)  -->
<svg version="1.1" id="Layer_1" xmlns="http://www.w3.org/2000/svg" xmlns:xlink="http://www.w3.org/1999/xlink" x="0px" y="0px"
	 width="677.9px" height="489.1px" viewBox="0 0 677.9 489.1" style="enable-background:new 0 0 677.9 489.1;" xml:space="preserve"
	>
<style type="text/css">
	.st0{opacity:7.000000e-02;fill:#FFE8AB;}
	.st1{opacity:0.1;fill:#47A1EA;}
	.st2{fill:#FFE8AB;}
	.st3{fill:#000C16;}
	.st4{fill:#001A33;}
</style>
<g>
	<path class="st0" d="M257.9,124.3C339,33,353.1,2.2,392.4,0.1C446.1-2.7,494,60.4,587.5,186.8c66.9,90.4,100.1,136.2,87.9,169.1
		c-21.7,58.4-140.2,62.5-237.4,65.9c-48.2,1.7-353.6,12.3-374.5-77.3C54.2,304.6,111.5,289,257.9,124.3z"/>
	<path class="st1" d="M199.2,191.1C249.8,80,254.1,46.4,291.1,32.8c50.4-18.6,114.8,27.6,241.5,120.8
		c90.6,66.6,135.8,100.6,133.9,135.6c-3.5,62.2-115.5,101.1-207.4,133C413.6,438,124.9,538.2,78.5,458.9
		C57.8,423.6,108,391.7,199.2,191.1z"/>
	<g>
		<g>
			<path class="st2" d="M434.4,375.2h-14.8v19.6h-7.2v-44.7h7.2v19h14.8v-19h7.2v44.7h-7.2V375.2z"/>
			<path class="st2" d="M444.9,378.3c0-10.6,6-17.3,15.7-17.3c9.7,0,15.7,6.7,15.7,17.3s-6,17.3-15.7,17.3
				C450.8,395.6,444.9,388.9,444.9,378.3z M468.9,380.8v-5c0-6.1-3.3-9.3-8.4-9.3s-8.4,3.1-8.4,9.3v5c0,6.1,3.3,9.3,8.4,9.3
				S468.9,386.9,468.9,380.8z"/>
			<path class="st2" d="M479.8,389.2h10.9v-36.1h-10.9v-5.6h17.9v41.7h10.9v5.6h-28.9V389.2z"/>
			<path class="st2" d="M540,394.8c-4,0-6-2.2-6.3-5.6h-0.3c-1.3,4-4.7,6.3-9.9,6.3c-6.7,0-11.1-3.8-11.1-10c0-6.4,4.7-9.9,14.5-9.9
				h6.3v-2.6c0-4.4-2.4-6.7-7.1-6.7c-4.2,0-6.7,1.8-8.5,4.5l-4.2-3.4c1.9-3.6,6.3-6.6,13.3-6.6c8.3,0,13.4,4.2,13.4,11.7v16.6h4.2
				v5.5H540z M533.2,385v-4.8H527c-5.1,0-7.6,1.6-7.6,4.5v1.3c0,2.9,2.3,4.5,6,4.5C529.9,390.5,533.2,388.2,533.2,385z"/>
		</g>
	</g>
	<g>
		<g>
			<path class="st2" d="M157,138.2h-8.4v11.1h-4v-25.1h4v10.7h8.4v-10.7h4v25.1h-4V138.2z"/>
			<path class="st2" d="M178.6,149.3c-2.2,0-3.3-1.3-3.6-3.1h-0.2c-0.7,2.2-2.7,3.6-5.6,3.6c-3.8,0-6.2-2.1-6.2-5.6
				c0-3.6,2.6-5.5,8.1-5.5h3.6v-1.4c0-2.5-1.3-3.8-4-3.8c-2.4,0-3.8,1-4.8,2.6l-2.3-1.9c1-2,3.6-3.7,7.5-3.7c4.7,0,7.6,2.3,7.6,6.6
				v9.3h2.3v3.1H178.6z M174.8,143.7V141h-3.5c-2.9,0-4.2,0.9-4.2,2.6v0.7c0,1.7,1.3,2.5,3.4,2.5C173,146.8,174.8,145.5,174.8,143.7
				z"/>
			<path class="st2" d="M182.5,146.1h6.2v-20.3h-6.2v-3.2h10.1v23.5h6.2v3.2h-16.2V146.1z"/>
			<path class="st2" d="M201.4,146.1h6.2v-20.3h-6.2v-3.2h10.1v23.5h6.2v3.2h-16.2V146.1z"/>
			<path class="st2" d="M219.6,140c0-5.9,3.3-9.7,8.8-9.7c5.5,0,8.8,3.8,8.8,9.7c0,5.9-3.3,9.7-8.8,9.7
				C223,149.7,219.6,145.9,219.6,140z M233.1,141.4v-2.8c0-3.5-1.9-5.2-4.7-5.2c-2.8,0-4.7,1.8-4.7,5.2v2.8c0,3.5,1.9,5.2,4.7,5.2
				C231.3,146.6,233.1,144.8,233.1,141.4z"/>
		</g>
	</g>
	<g>
		<g>
			<path class="st2" d="M0,391.4h15.4c8.1,0,12.8,4.5,12.8,11.7c0,5.2-2.8,8.2-7.1,9.5v0.3c5.2,1.2,8.6,4.4,8.6,10.6
				c0,7.3-5.1,12.6-12.6,12.6H0V391.4z M14,410.6c4.5,0,6.9-1.7,6.9-5.7v-2.3c0-4-2.4-5.7-6.9-5.7H7v13.7H14z M15,430.5
				c4.7,0,7.4-1.9,7.4-6.2V422c0-4.4-2.7-6.2-7.4-6.2H7v14.7H15z"/>
			<path class="st2" d="M31.8,419.5c0-10.6,6-17.3,15.7-17.3c9.7,0,15.7,6.7,15.7,17.3c0,10.6-6,17.3-15.7,17.3
				C37.8,436.8,31.8,430.1,31.8,419.5z M55.9,422v-5c0-6.1-3.3-9.3-8.4-9.3s-8.4,3.1-8.4,9.3v5c0,6.1,3.3,9.3,8.4,9.3
				S55.9,428.2,55.9,422z"/>
			<path class="st2" d="M67.3,436v-33h7v5.6h0.3c1.4-3.5,4.1-6.4,9.5-6.4c6.7,0,11.1,4.5,11.1,12.5V436h-7v-20.2
				c0-5.2-2.4-7.9-6.8-7.9c-3.6,0-7.2,1.9-7.2,5.7V436H67.3z"/>
			<path class="st2" d="M101.8,443.2h14.6v-34.6h-15V403h22v37.4c0,4.9-2.8,8.4-8.5,8.4h-13.1V443.2z M115.1,393.2v-1.3
				c0-2.1,1.3-3.8,4.7-3.8c3.5,0,4.8,1.7,4.8,3.8v1.3c0,2.1-1.3,3.8-4.7,3.8C116.3,397,115.1,395.3,115.1,393.2z"/>
			<path class="st2" d="M132.6,419.5c0-10.6,6-17.3,15.7-17.3c9.7,0,15.7,6.7,15.7,17.3c0,10.6-6,17.3-15.7,17.3
				C138.6,436.8,132.6,430.1,132.6,419.5z M156.7,422v-5c0-6.1-3.3-9.3-8.4-9.3s-8.4,3.1-8.4,9.3v5c0,6.1,3.3,9.3,8.4,9.3
				S156.7,428.2,156.7,422z"/>
			<path class="st2" d="M188.7,430.4h-0.3c-1.4,3.5-4.1,6.4-9.5,6.4c-6.7,0-11.1-4.5-11.1-12.5V403h7v20.2c0,5.2,2.4,7.9,6.8,7.9
				c3.6,0,7.2-1.9,7.2-5.7V403h7v33h-7V430.4z"/>
			<path class="st2" d="M201.1,430.4h8.8v-21.8h-8.8V403h15.7v8.8h0.4c1.3-4.6,4.2-8.8,10.9-8.8h4v6.7h-6.5c-5.7,0-8.7,3.8-8.7,8.4
				v12.4h12v5.6h-27.7V430.4z"/>
		</g>
	</g>
	<g>
		<g>
			<path class="st2" d="M538.9,218c0-8.2,2.8-13,9.2-13c6.4,0,9.2,4.8,9.2,13s-2.8,13-9.2,13C541.8,231,538.9,226.2,538.9,218z
				 M553.1,220v-4.2c0-4.6-1.3-7.5-4.9-7.5c-3.6,0-4.9,2.9-4.9,7.5v4.2c0,4.6,1.3,7.5,4.9,7.5C551.8,227.6,553.1,224.7,553.1,220z"
				/>
			<path class="st2" d="M559,227.4h6.2v-20.3H559v-3.2H569v23.5h6.2v3.2H559V227.4z"/>
			<path class="st2" d="M592.9,230.5c-2.2,0-3.3-1.3-3.6-3.1h-0.2c-0.7,2.2-2.7,3.6-5.6,3.6c-3.8,0-6.2-2.1-6.2-5.6
				c0-3.6,2.6-5.5,8.1-5.5h3.6v-1.4c0-2.5-1.3-3.8-4-3.8c-2.4,0-3.8,1-4.8,2.6l-2.3-1.9c1-2,3.6-3.7,7.5-3.7c4.7,0,7.6,2.3,7.6,6.6
				v9.3h2.3v3.1H592.9z M589,225v-2.7h-3.5c-2.9,0-4.2,0.9-4.2,2.6v0.7c0,1.7,1.3,2.5,3.4,2.5C587.2,228.1,589,226.8,589,225z
				 M585.9,209.7l-2.4-1.2l3.3-6.5l3.4,1.7L585.9,209.7z"/>
		</g>
	</g>
	<g>
		<path class="st2" d="M407.5,114.3h-14.8V134h-7.2V89.3h7.2v19h14.8v-19h7.2V134h-7.2V114.3z"/>
		<path class="st2" d="M418.4,117.5c0-10.6,6.1-17.3,15.6-17.3c9.3,0,15.2,6.7,15.2,16.4v2.6h-23.7v1.1c0,5.2,3.5,8.8,9.2,8.8
			c4.2,0,7.3-2,9.2-5.1l4.4,3.8c-2.2,3.8-6.8,6.8-13.6,6.8C424.3,134.8,418.4,128,418.4,117.5z M425.4,114.3v0.4H442v-0.6
			c0-5.2-3.2-8.6-8.1-8.6C428.9,105.5,425.4,109.2,425.4,114.3z"/>
		<path class="st2" d="M452.9,128.4h10.9V92.3h-10.9v-5.6h17.9v41.7h10.9v5.6h-28.9V128.4z"/>
		<path class="st2" d="M486.5,128.4h10.9V92.3h-10.9v-5.6h17.9v41.7h10.9v5.6h-28.9V128.4z"/>
		<path class="st2" d="M518.8,117.5c0-10.6,6-17.3,15.7-17.3c9.7,0,15.7,6.7,15.7,17.3c0,10.6-6,17.3-15.7,17.3
			C524.8,134.8,518.8,128,518.8,117.5z M542.9,120v-5c0-6.1-3.3-9.3-8.4-9.3s-8.4,3.1-8.4,9.3v5c0,6.1,3.3,9.3,8.4,9.3
			S542.9,126.1,542.9,120z"/>
	</g>
	<g>
		<g>
			<path class="st2" d="M180.5,296.3c0-8.3,3.1-13,9.4-13c4.9,0,7.1,2.8,8.2,6.2l-3.6,1.2c-0.8-2.3-1.8-4.1-4.6-4.1
				c-3.6,0-5.1,2.9-5.1,7.5v4.2c0,4.6,1.5,7.5,5.1,7.5c2.8,0,3.9-1.8,4.6-4.1l3.6,1.2c-1.2,3.4-3.4,6.2-8.2,6.2
				C183.6,309.3,180.5,304.6,180.5,296.3z"/>
			<path class="st2" d="M201,305.7h6.3v-12.2H201v-3.2h10.3v15.4h5.9v3.2H201V305.7z M206.6,284.8V284c0-1.2,0.7-2.1,2.7-2.1
				c2,0,2.7,0.9,2.7,2.1v0.8c0,1.2-0.7,2.1-2.7,2.1C207.3,286.9,206.6,286,206.6,284.8z"/>
			<path class="st2" d="M234,308.9c-2.2,0-3.3-1.3-3.6-3.1h-0.2c-0.7,2.2-2.7,3.6-5.6,3.6c-3.8,0-6.2-2.1-6.2-5.6
				c0-3.6,2.6-5.5,8.1-5.5h3.6v-1.4c0-2.5-1.3-3.8-4-3.8c-2.4,0-3.8,1-4.8,2.6l-2.3-1.9c1-2,3.6-3.7,7.5-3.7c4.7,0,7.6,2.3,7.6,6.6
				v9.3h2.3v3.1H234z M230.1,303.3v-2.7h-3.5c-2.9,0-4.2,0.9-4.2,2.6v0.7c0,1.7,1.3,2.5,3.4,2.5
				C228.3,306.4,230.1,305.2,230.1,303.3z"/>
			<path class="st2" d="M237.1,299.6c0-5.9,3.3-9.7,8.8-9.7c5.5,0,8.8,3.8,8.8,9.7c0,5.9-3.3,9.7-8.8,9.7
				C240.5,309.3,237.1,305.5,237.1,299.6z M250.7,301v-2.8c0-3.5-1.9-5.2-4.7-5.2c-2.8,0-4.7,1.8-4.7,5.2v2.8c0,3.5,1.9,5.2,4.7,5.2
				C248.8,306.2,250.7,304.4,250.7,301z"/>
		</g>
	</g>
	<circle class="st3" cx="372.6" cy="259.6" r="45.1"/>
	<circle class="st2" cx="362.6" cy="249.6" r="45.1"/>
	<g>
		<path class="st4" d="M342.5,249.6c0-18.1,7.9-28.6,22.1-28.6c10.6,0,15,5.1,18.3,10.4l-7.8,4.9c-2.1-4.4-5.1-7-10.2-7
			c-6.3,0-10,4-11.3,10.5h17.7v6.6h-18.1v6.2h18.1v6.6h-17.7c1.3,6.6,5,10.5,11.3,10.5c5.1,0,8.1-2.6,10.2-7l7.8,4.9
			c-3.2,5.2-7.7,10.4-18.3,10.4C350.4,278.1,342.5,267.7,342.5,249.6z"/>
	</g>
</g>
</svg>
