<svg id="Layer_1" data-name="Layer 1" xmlns="http://www.w3.org/2000/svg" xmlns:xlink="http://www.w3.org/1999/xlink" width="94" height="105.99" viewBox="0 0 94 105.99">
  <g id="container">
    <defs>
      <style>.cls-1,.cls-2{fill:none;}.cls-1{clip-rule:evenodd;}.cls-3{fill:#fff;}.cls-4{fill:#f7f8f7;}.cls-5{fill:#e9e9ea;}.cls-6{clip-path:url(#clip-path);}.cls-7{clip-path:url(#clip-path-2);}.cls-9{clip-path:url(#clip-path-3);}</style>
      <clipPath id="clip-path">
        <polygon class="cls-1" points="90.79 56.99 3.21 56.99 0 64.49 3.21 71.99 90.79 71.99 94 64.49 90.79 56.99"/>
      </clipPath>
      <clipPath id="clip-path-2">
        <rect class="cls-2" y="-1.01" width="94" height="122"/>
      </clipPath>
      <clipPath id="clip-path-3">
        <path class="cls-1" d="M47,21l10-5.6V0H37v15.4ZM49,7.86a2.15,2.15,0,0,1,.3-1.18,2.61,2.61,0,0,1,1.06-.84l.24-.1c.41-.2.51-.37.51-.57s-.22-.41-.57-.41a1,1,0,0,0-1,.62L49,4.85a1.49,1.49,0,0,1,.6-.62A1.72,1.72,0,0,1,50.49,4a1.77,1.77,0,0,1,1.06.31,1,1,0,0,1,.45.86c0,.58-.34.93-1,1.25l-.37.17c-.38.19-.57.35-.63.64h2V8H49ZM51.5,9l1.5,2.5L51.5,14,50,11.49H47L48.5,9ZM47.29,4a6.36,6.36,0,0,1,1.24.12L47.29,6.56A3.52,3.52,0,0,0,43.7,10a3.52,3.52,0,0,0,3.59,3.43,3.68,3.68,0,0,0,2.35-.83L51,14.84A6.5,6.5,0,0,1,47.29,16,6.16,6.16,0,0,1,41,10,6.16,6.16,0,0,1,47.29,4Z"/>
      </clipPath>
    </defs>
    <title>11-9-19_Dive_DC_IGArtboard 2</title>
    <path class="cls-3" d="M47.82,103,6.63,82.45V13.88A17.67,17.67,0,0,0,21.29,2H72.63A17.69,17.69,0,0,0,87.5,13.92V82.45Z"/>
    <path class="cls-4" d="M7,82.45,47.74,103,87,82.43V13.92a19.46,19.46,0,0,1-9-3.69Z"/>
    <path class="cls-5" d="M89,12h-.13A15.51,15.51,0,0,1,73.79,0H20A15.53,15.53,0,0,1,5,12V84.22l1.42.72,40.14,20.44,1.2.61h0l1.19-.63L87.61,84.92,89,84.19V14h0ZM47.74,103,7,82.45V13.88A17.5,17.5,0,0,0,21.49,2H72.28A17.52,17.52,0,0,0,87,13.92V82.45Z"/>
    <g class="cls-6">
      <g class="cls-7">
        <rect id="banner" class="cls-8" x="-5" y="51.99" width="104" height="25" fill="#9132a2"/>
      </g>
    </g>
    <g class="cls-9">
      <g class="cls-7">
        <rect id="logo" class="cls-10" x="32" y="-5.01" width="30" height="31" fill="#9132a2"/>
      </g>
    </g>
  <path fill="#252530" transform="translate(17.74, 52.1)" d="M1.31 0L1.31 0Q1.22 0 1.16-0.06L1.16-0.06L1.16-0.06Q1.10-0.13 1.10-0.22L1.10-0.22L1.10-12.38L1.10-12.38Q1.10-12.47 1.16-12.54L1.16-12.54L1.16-12.54Q1.22-12.60 1.31-12.60L1.31-12.60L3.42-12.60L3.42-12.60Q3.51-12.60 3.57-12.54L3.57-12.54L3.57-12.54Q3.64-12.47 3.64-12.38L3.64-12.38L3.64-2.27L3.64-2.27Q3.64-2.18 3.73-2.18L3.73-2.18L9.61-2.18L9.61-2.18Q9.70-2.18 9.77-2.12L9.77-2.12L9.77-2.12Q9.83-2.05 9.83-1.96L9.83-1.96L9.83-0.22L9.83-0.22Q9.83-0.13 9.77-0.06L9.77-0.06L9.77-0.06Q9.70 0 9.61 0L9.61 0L1.31 0ZM19.42-5.58L19.42-5.58Q19.53-4.90 19.49-4.05L19.49-4.05L19.49-4.05Q19.48-3.83 19.26-3.83L19.26-3.83L13.70-3.83L13.70-3.83Q13.59-3.83 13.63-3.74L13.63-3.74L13.63-3.74Q13.68-3.38 13.82-3.02L13.82-3.02L13.82-3.02Q14.29-2.02 15.73-2.02L15.73-2.02L15.73-2.02Q16.88-2.03 17.55-2.95L17.55-2.95L17.55-2.95Q17.62-3.06 17.71-3.06L17.71-3.06L17.71-3.06Q17.77-3.06 17.84-2.99L17.84-2.99L19.13-1.71L19.13-1.71Q19.22-1.62 19.22-1.55L19.22-1.55L19.22-1.55Q19.22-1.51 19.15-1.40L19.15-1.40L19.15-1.40Q18.56-0.67 17.62-0.26L17.62-0.26L17.62-0.26Q16.69 0.14 15.57 0.14L15.57 0.14L15.57 0.14Q14.02 0.14 12.95-0.56L12.95-0.56L12.95-0.56Q11.88-1.26 11.41-2.52L11.41-2.52L11.41-2.52Q11.03-3.42 11.03-4.88L11.03-4.88L11.03-4.88Q11.03-5.87 11.30-6.62L11.30-6.62L11.30-6.62Q11.72-7.90 12.75-8.66L12.75-8.66L12.75-8.66Q13.79-9.41 15.21-9.41L15.21-9.41L15.21-9.41Q17.01-9.41 18.10-8.37L18.10-8.37L18.10-8.37Q19.19-7.33 19.42-5.58L19.42-5.58ZM15.23-7.22L15.23-7.22Q14.09-7.22 13.73-6.16L13.73-6.16L13.73-6.16Q13.66-5.92 13.61-5.58L13.61-5.58L13.61-5.58Q13.61-5.49 13.70-5.49L13.70-5.49L16.81-5.49L16.81-5.49Q16.92-5.49 16.88-5.58L16.88-5.58L16.88-5.58Q16.79-6.10 16.79-6.08L16.79-6.08L16.79-6.08Q16.63-6.62 16.23-6.92L16.23-6.92L16.23-6.92Q15.82-7.22 15.23-7.22L15.23-7.22ZM24.75-9.40L24.75-9.40Q25.92-9.40 26.84-8.99L26.84-8.99L26.84-8.99Q27.76-8.59 28.27-7.88L28.27-7.88L28.27-7.88Q28.78-7.18 28.78-6.32L28.78-6.32L28.78-0.22L28.78-0.22Q28.78-0.13 28.72-0.06L28.72-0.06L28.72-0.06Q28.66 0 28.57 0L28.57 0L26.46 0L26.46 0Q26.37 0 26.31-0.06L26.31-0.06L26.31-0.06Q26.24-0.13 26.24-0.22L26.24-0.22L26.24-0.81L26.24-0.81Q26.24-0.86 26.21-0.88L26.21-0.88L26.21-0.88Q26.17-0.90 26.14-0.85L26.14-0.85L26.14-0.85Q25.38 0.14 23.71 0.14L23.71 0.14L23.71 0.14Q22.30 0.14 21.44-0.54L21.44-0.54L21.44-0.54Q20.57-1.22 20.57-2.56L20.57-2.56L20.57-2.56Q20.57-3.94 21.55-4.71L21.55-4.71L21.55-4.71Q22.52-5.47 24.32-5.47L24.32-5.47L26.15-5.47L26.15-5.47Q26.24-5.47 26.24-5.56L26.24-5.56L26.24-5.96L26.24-5.96Q26.24-6.55 25.88-6.89L25.88-6.89L25.88-6.89Q25.52-7.22 24.80-7.22L24.80-7.22L24.80-7.22Q24.25-7.22 23.88-7.02L23.88-7.02L23.88-7.02Q23.51-6.82 23.40-6.46L23.40-6.46L23.40-6.46Q23.35-6.26 23.17-6.28L23.17-6.28L20.99-6.57L20.99-6.57Q20.77-6.61 20.79-6.73L20.79-6.73L20.79-6.73Q20.86-7.49 21.39-8.10L21.39-8.10L21.39-8.10Q21.92-8.71 22.80-9.05L22.80-9.05L22.80-9.05Q23.67-9.40 24.75-9.40L24.75-9.40ZM24.39-1.75L24.39-1.75Q25.16-1.75 25.70-2.16L25.70-2.16L25.70-2.16Q26.24-2.57 26.24-3.22L26.24-3.22L26.24-3.87L26.24-3.87Q26.24-3.96 26.15-3.96L26.15-3.96L24.86-3.96L24.86-3.96Q24.05-3.96 23.59-3.65L23.59-3.65L23.59-3.65Q23.13-3.35 23.13-2.79L23.13-2.79L23.13-2.79Q23.13-2.30 23.47-2.03L23.47-2.03L23.47-2.03Q23.81-1.75 24.39-1.75L24.39-1.75ZM36.31-12.38L36.31-12.38Q36.31-12.47 36.37-12.54L36.37-12.54L36.37-12.54Q36.43-12.60 36.52-12.60L36.52-12.60L38.63-12.60L38.63-12.60Q38.72-12.60 38.78-12.54L38.78-12.54L38.78-12.54Q38.84-12.47 38.84-12.38L38.84-12.38L38.84-0.22L38.84-0.22Q38.84-0.13 38.78-0.06L38.78-0.06L38.78-0.06Q38.72 0 38.63 0L38.63 0L36.52 0L36.52 0Q36.43 0 36.37-0.06L36.37-0.06L36.37-0.06Q36.31-0.13 36.31-0.22L36.31-0.22L36.31-0.81L36.31-0.81Q36.31-0.86 36.27-0.87L36.27-0.87L36.27-0.87Q36.23-0.88 36.20-0.85L36.20-0.85L36.20-0.85Q35.44 0.14 34.13 0.14L34.13 0.14L34.13 0.14Q32.87 0.14 31.96-0.56L31.96-0.56L31.96-0.56Q31.05-1.26 30.65-2.48L30.65-2.48L30.65-2.48Q30.35-3.42 30.35-4.66L30.35-4.66L30.35-4.66Q30.35-5.94 30.67-6.89L30.67-6.89L30.67-6.89Q31.09-8.05 31.98-8.72L31.98-8.72L31.98-8.72Q32.87-9.40 34.18-9.40L34.18-9.40L34.18-9.40Q35.48-9.40 36.20-8.50L36.20-8.50L36.20-8.50Q36.23-8.44 36.27-8.46L36.27-8.46L36.27-8.46Q36.31-8.48 36.31-8.53L36.31-8.53L36.31-12.38ZM35.93-2.81L35.93-2.81Q36.29-3.47 36.29-4.63L36.29-4.63L36.29-4.63Q36.29-5.83 35.89-6.52L35.89-6.52L35.89-6.52Q35.48-7.22 34.69-7.22L34.69-7.22L34.69-7.22Q33.84-7.22 33.41-6.52L33.41-6.52L33.41-6.52Q32.96-5.81 32.96-4.61L32.96-4.61L32.96-4.61Q32.96-3.53 33.34-2.81L33.34-2.81L33.34-2.81Q33.79-2.03 34.67-2.03L34.67-2.03L34.67-2.03Q35.48-2.03 35.93-2.81L35.93-2.81ZM48.94-5.58L48.94-5.58Q49.05-4.90 49.01-4.05L49.01-4.05L49.01-4.05Q49.00-3.83 48.78-3.83L48.78-3.83L43.22-3.83L43.22-3.83Q43.11-3.83 43.15-3.74L43.15-3.74L43.15-3.74Q43.20-3.38 43.34-3.02L43.34-3.02L43.34-3.02Q43.81-2.02 45.25-2.02L45.25-2.02L45.25-2.02Q46.40-2.03 47.07-2.95L47.07-2.95L47.07-2.95Q47.14-3.06 47.23-3.06L47.23-3.06L47.23-3.06Q47.29-3.06 47.36-2.99L47.36-2.99L48.65-1.71L48.65-1.71Q48.74-1.62 48.74-1.55L48.74-1.55L48.74-1.55Q48.74-1.51 48.67-1.40L48.67-1.40L48.67-1.40Q48.08-0.67 47.14-0.26L47.14-0.26L47.14-0.26Q46.21 0.14 45.09 0.14L45.09 0.14L45.09 0.14Q43.54 0.14 42.47-0.56L42.47-0.56L42.47-0.56Q41.40-1.26 40.93-2.52L40.93-2.52L40.93-2.52Q40.55-3.42 40.55-4.88L40.55-4.88L40.55-4.88Q40.55-5.87 40.82-6.62L40.82-6.62L40.82-6.62Q41.24-7.90 42.27-8.66L42.27-8.66L42.27-8.66Q43.31-9.41 44.73-9.41L44.73-9.41L44.73-9.41Q46.53-9.41 47.62-8.37L47.62-8.37L47.62-8.37Q48.71-7.33 48.94-5.58L48.94-5.58ZM44.75-7.22L44.75-7.22Q43.61-7.22 43.25-6.16L43.25-6.16L43.25-6.16Q43.18-5.92 43.13-5.58L43.13-5.58L43.13-5.58Q43.13-5.49 43.22-5.49L43.22-5.49L46.33-5.49L46.33-5.49Q46.44-5.49 46.40-5.58L46.40-5.58L46.40-5.58Q46.31-6.10 46.31-6.08L46.31-6.08L46.31-6.08Q46.15-6.62 45.75-6.92L45.75-6.92L45.75-6.92Q45.34-7.22 44.75-7.22L44.75-7.22ZM55.19-9.38L55.19-9.38Q55.84-9.38 56.21-9.13L56.21-9.13L56.21-9.13Q56.36-9.05 56.32-8.86L56.32-8.86L55.94-6.80L55.94-6.80Q55.93-6.59 55.69-6.68L55.69-6.68L55.69-6.68Q55.42-6.77 55.06-6.77L55.06-6.77L55.06-6.77Q54.92-6.77 54.67-6.73L54.67-6.73L54.67-6.73Q54.02-6.68 53.57-6.26L53.57-6.26L53.57-6.26Q53.12-5.83 53.12-5.13L53.12-5.13L53.12-0.22L53.12-0.22Q53.12-0.13 53.06-0.06L53.06-0.06L53.06-0.06Q52.99 0 52.90 0L52.90 0L50.80 0L50.80 0Q50.71 0 50.64-0.06L50.64-0.06L50.64-0.06Q50.58-0.13 50.58-0.22L50.58-0.22L50.58-9.04L50.58-9.04Q50.58-9.13 50.64-9.19L50.64-9.19L50.64-9.19Q50.71-9.25 50.80-9.25L50.80-9.25L52.90-9.25L52.90-9.25Q52.99-9.25 53.06-9.19L53.06-9.19L53.06-9.19Q53.12-9.13 53.12-9.04L53.12-9.04L53.12-8.35L53.12-8.35Q53.12-8.30 53.15-8.28L53.15-8.28L53.15-8.28Q53.19-8.26 53.21-8.30L53.21-8.30L53.21-8.30Q53.95-9.38 55.19-9.38L55.19-9.38Z"/><path fill="#fff" transform="translate(30.64, 68.3)" d="M5.47-6.12L5.47-6.12Q5.47-6.07 5.44-6.04L5.44-6.04L5.44-6.04Q5.40-6 5.35-6L5.35-6L1.94-6L1.94-6Q1.89-6 1.89-5.95L1.89-5.95L1.89-4.08L1.89-4.08Q1.89-4.03 1.94-4.03L1.94-4.03L4.23-4.03L4.23-4.03Q4.28-4.03 4.32-4.00L4.32-4.00L4.32-4.00Q4.35-3.96 4.35-3.91L4.35-3.91L4.35-3.15L4.35-3.15Q4.35-3.10 4.32-3.06L4.32-3.06L4.32-3.06Q4.28-3.03 4.23-3.03L4.23-3.03L1.94-3.03L1.94-3.03Q1.89-3.03 1.89-2.98L1.89-2.98L1.89-1.05L1.89-1.05Q1.89-1 1.94-1L1.94-1L5.35-1L5.35-1Q5.40-1 5.44-0.96L5.44-0.96L5.44-0.96Q5.47-0.93 5.47-0.88L5.47-0.88L5.47-0.12L5.47-0.12Q5.47-0.07 5.44-0.04L5.44-0.04L5.44-0.04Q5.40 0 5.35 0L5.35 0L0.85 0L0.85 0Q0.80 0 0.77-0.04L0.77-0.04L0.77-0.04Q0.73-0.07 0.73-0.12L0.73-0.12L0.73-6.88L0.73-6.88Q0.73-6.93 0.77-6.96L0.77-6.96L0.77-6.96Q0.80-7 0.85-7L0.85-7L5.35-7L5.35-7Q5.40-7 5.44-6.96L5.44-6.96L5.44-6.96Q5.47-6.93 5.47-6.88L5.47-6.88L5.47-6.12ZM9.56-4.99L9.56-4.99Q9.56-5.04 9.60-5.08L9.60-5.08L9.60-5.08Q9.63-5.11 9.68-5.11L9.68-5.11L10.59-5.11L10.59-5.11Q10.64-5.11 10.68-5.08L10.68-5.08L10.68-5.08Q10.71-5.04 10.71-4.99L10.71-4.99L10.71-0.12L10.71-0.12Q10.71-0.07 10.68-0.04L10.68-0.04L10.68-0.04Q10.64 0 10.59 0L10.59 0L9.68 0L9.68 0Q9.63 0 9.60-0.04L9.60-0.04L9.60-0.04Q9.56-0.07 9.56-0.12L9.56-0.12L9.56-0.44L9.56-0.44Q9.56-0.47 9.54-0.48L9.54-0.48L9.54-0.48Q9.52-0.49 9.50-0.46L9.50-0.46L9.50-0.46Q9.09 0.07 8.27 0.07L8.27 0.07L8.27 0.07Q7.51 0.07 7.00-0.37L7.00-0.37L7.00-0.37Q6.48-0.81 6.48-1.62L6.48-1.62L6.48-4.99L6.48-4.99Q6.48-5.04 6.51-5.08L6.51-5.08L6.51-5.08Q6.55-5.11 6.60-5.11L6.60-5.11L7.52-5.11L7.52-5.11Q7.57-5.11 7.61-5.08L7.61-5.08L7.61-5.08Q7.64-5.04 7.64-4.99L7.64-4.99L7.64-1.95L7.64-1.95Q7.64-1.48 7.88-1.20L7.88-1.20L7.88-1.20Q8.13-0.92 8.57-0.92L8.57-0.92L8.57-0.92Q9.02-0.92 9.29-1.20L9.29-1.20L9.29-1.20Q9.56-1.48 9.56-1.95L9.56-1.95L9.56-4.99ZM14.33-5.17L14.33-5.17Q14.65-5.17 14.89-5.04L14.89-5.04L14.89-5.04Q14.97-5 14.95-4.89L14.95-4.89L14.78-3.99L14.78-3.99Q14.77-3.87 14.64-3.92L14.64-3.92L14.64-3.92Q14.49-3.97 14.29-3.97L14.29-3.97L14.29-3.97Q14.16-3.97 14.09-3.96L14.09-3.96L14.09-3.96Q13.67-3.94 13.39-3.67L13.39-3.67L13.39-3.67Q13.11-3.39 13.11-2.95L13.11-2.95L13.11-0.12L13.11-0.12Q13.11-0.07 13.07-0.04L13.07-0.04L13.07-0.04Q13.04 0 12.99 0L12.99 0L12.07 0L12.07 0Q12.02 0 11.98-0.04L11.98-0.04L11.98-0.04Q11.95-0.07 11.95-0.12L11.95-0.12L11.95-4.99L11.95-4.99Q11.95-5.04 11.98-5.08L11.98-5.08L11.98-5.08Q12.02-5.11 12.07-5.11L12.07-5.11L12.99-5.11L12.99-5.11Q13.04-5.11 13.07-5.08L13.07-5.08L13.07-5.08Q13.11-5.04 13.11-4.99L13.11-4.99L13.11-4.54L13.11-4.54Q13.11-4.50 13.13-4.50L13.13-4.50L13.13-4.50Q13.14-4.49 13.16-4.52L13.16-4.52L13.16-4.52Q13.58-5.17 14.33-5.17L14.33-5.17ZM17.88 0.08L17.88 0.08Q17.09 0.08 16.52-0.32L16.52-0.32L16.52-0.32Q15.96-0.72 15.73-1.43L15.73-1.43L15.73-1.43Q15.56-1.97 15.56-2.57L15.56-2.57L15.56-2.57Q15.56-3.21 15.72-3.71L15.72-3.71L15.72-3.71Q15.95-4.41 16.52-4.80L16.52-4.80L16.52-4.80Q17.09-5.19 17.89-5.19L17.89-5.19L17.89-5.19Q18.65-5.19 19.20-4.80L19.20-4.80L19.20-4.80Q19.76-4.41 19.99-3.72L19.99-3.72L19.99-3.72Q20.17-3.24 20.17-2.58L20.17-2.58L20.17-2.58Q20.17-1.95 20-1.44L20-1.44L20-1.44Q19.77-0.73 19.21-0.33L19.21-0.33L19.21-0.33Q18.65 0.08 17.88 0.08L17.88 0.08ZM17.88-0.92L17.88-0.92Q18.25-0.92 18.52-1.13L18.52-1.13L18.52-1.13Q18.78-1.34 18.90-1.72L18.90-1.72L18.90-1.72Q19-2.05 19-2.56L19-2.56L19-2.56Q19-3.10 18.90-3.40L18.90-3.40L18.90-3.40Q18.79-3.78 18.52-3.98L18.52-3.98L18.52-3.98Q18.25-4.19 17.86-4.19L17.86-4.19L17.86-4.19Q17.49-4.19 17.22-3.98L17.22-3.98L17.22-3.98Q16.95-3.78 16.83-3.40L16.83-3.40L16.83-3.40Q16.73-3.05 16.73-2.56L16.73-2.56L16.73-2.56Q16.73-2.07 16.83-1.72L16.83-1.72L16.83-1.72Q16.94-1.34 17.21-1.13L17.21-1.13L17.21-1.13Q17.49-0.92 17.88-0.92L17.88-0.92ZM25.60-3.79L25.60-3.79Q25.78-3.28 25.78-2.54L25.78-2.54L25.78-2.54Q25.78-1.83 25.61-1.32L25.61-1.32L25.61-1.32Q25.39-0.66 24.90-0.29L24.90-0.29L24.90-0.29Q24.42 0.08 23.68 0.08L23.68 0.08L23.68 0.08Q22.97 0.08 22.54-0.43L22.54-0.43L22.54-0.43Q22.52-0.45 22.50-0.44L22.50-0.44L22.50-0.44Q22.48-0.43 22.48-0.40L22.48-0.40L22.48 1.77L22.48 1.77Q22.48 1.82 22.45 1.85L22.45 1.85L22.45 1.85Q22.41 1.89 22.36 1.89L22.36 1.89L21.44 1.89L21.44 1.89Q21.39 1.89 21.35 1.85L21.35 1.85L21.35 1.85Q21.32 1.82 21.32 1.77L21.32 1.77L21.32-4.99L21.32-4.99Q21.32-5.04 21.35-5.08L21.35-5.08L21.35-5.08Q21.39-5.11 21.44-5.11L21.44-5.11L22.36-5.11L22.36-5.11Q22.41-5.11 22.45-5.08L22.45-5.08L22.45-5.08Q22.48-5.04 22.48-4.99L22.48-4.99L22.48-4.69L22.48-4.69Q22.48-4.66 22.50-4.65L22.50-4.65L22.50-4.65Q22.52-4.64 22.54-4.67L22.54-4.67L22.54-4.67Q22.98-5.19 23.69-5.19L23.69-5.19L23.69-5.19Q24.40-5.19 24.89-4.82L24.89-4.82L24.89-4.82Q25.38-4.45 25.60-3.79L25.60-3.79ZM24.30-1.34L24.30-1.34Q24.60-1.80 24.60-2.56L24.60-2.56L24.60-2.56Q24.60-3.29 24.36-3.71L24.36-3.71L24.36-3.71Q24.08-4.20 23.51-4.20L23.51-4.20L23.51-4.20Q22.99-4.20 22.73-3.72L22.73-3.72L22.73-3.72Q22.50-3.33 22.50-2.56L22.50-2.56L22.50-2.56Q22.50-1.77 22.75-1.36L22.75-1.36L22.75-1.36Q23.01-0.92 23.50-0.92L23.50-0.92L23.50-0.92Q24.03-0.92 24.30-1.34L24.30-1.34ZM31.21-3.13L31.21-3.13Q31.25-2.88 31.25-2.57L31.25-2.57L31.24-2.26L31.24-2.26Q31.24-2.14 31.12-2.14L31.12-2.14L27.99-2.14L27.99-2.14Q27.94-2.14 27.94-2.09L27.94-2.09L27.94-2.09Q27.97-1.76 28.03-1.64L28.03-1.64L28.03-1.64Q28.27-0.92 29.20-0.91L29.20-0.91L29.20-0.91Q29.88-0.91 30.28-1.47L30.28-1.47L30.28-1.47Q30.32-1.53 30.38-1.53L30.38-1.53L30.38-1.53Q30.42-1.53 30.45-1.50L30.45-1.50L31.07-0.99L31.07-0.99Q31.16-0.92 31.10-0.83L31.10-0.83L31.10-0.83Q30.79-0.39 30.27-0.15L30.27-0.15L30.27-0.15Q29.76 0.09 29.13 0.09L29.13 0.09L29.13 0.09Q28.35 0.09 27.80-0.26L27.80-0.26L27.80-0.26Q27.26-0.61 27.01-1.24L27.01-1.24L27.01-1.24Q26.78-1.78 26.78-2.74L26.78-2.74L26.78-2.74Q26.78-3.32 26.90-3.68L26.90-3.68L26.90-3.68Q27.10-4.38 27.65-4.79L27.65-4.79L27.65-4.79Q28.21-5.19 28.99-5.19L28.99-5.19L28.99-5.19Q30.96-5.19 31.21-3.13L31.21-3.13ZM28.99-4.19L28.99-4.19Q28.62-4.19 28.37-4.00L28.37-4.00L28.37-4.00Q28.13-3.82 28.03-3.49L28.03-3.49L28.03-3.49Q27.97-3.32 27.95-3.05L27.95-3.05L27.95-3.05Q27.93-3 27.99-3L27.99-3L30.02-3L30.02-3Q30.07-3 30.07-3.05L30.07-3.05L30.07-3.05Q30.05-3.30 30.01-3.43L30.01-3.43L30.01-3.43Q29.92-3.79 29.65-3.99L29.65-3.99L29.65-3.99Q29.39-4.19 28.99-4.19L28.99-4.19Z"/><path fill="#252530" transform="translate(29.00, 82.4)" d="M2.16 0L2.16 0Q2.05 0 2.02-0.10L2.02-0.10L0.25-6.87L0.24-6.91L0.24-6.91Q0.24-7 0.35-7L0.35-7L1.59-7L1.59-7Q1.69-7 1.72-6.90L1.72-6.90L2.67-2.83L2.67-2.83Q2.68-2.79 2.70-2.79L2.70-2.79L2.70-2.79Q2.72-2.79 2.73-2.83L2.73-2.83L3.65-6.89L3.65-6.89Q3.68-7 3.78-7L3.78-7L4.99-7L4.99-7Q5.10-7 5.13-6.90L5.13-6.90L6.13-2.83L6.13-2.83Q6.14-2.80 6.16-2.79L6.16-2.79L6.16-2.79Q6.18-2.79 6.19-2.83L6.19-2.83L7.11-6.89L7.11-6.89Q7.14-7 7.24-7L7.24-7L8.42-7L8.42-7Q8.56-7 8.53-6.87L8.53-6.87L6.89-0.10L6.89-0.10Q6.86 0 6.75 0L6.75 0L5.56 0L5.56 0Q5.46 0 5.43-0.10L5.43-0.10L4.41-4.43L4.41-4.43Q4.40-4.47 4.38-4.47L4.38-4.47L4.38-4.47Q4.36-4.47 4.35-4.43L4.35-4.43L3.40-0.11L3.40-0.11Q3.38 0 3.27 0L3.27 0L2.16 0ZM9.50 0L9.50 0Q9.45 0 9.41-0.04L9.41-0.04L9.41-0.04Q9.38-0.07 9.38-0.12L9.38-0.12L9.38-6.88L9.38-6.88Q9.38-6.93 9.41-6.96L9.41-6.96L9.41-6.96Q9.45-7 9.50-7L9.50-7L10.67-7L10.67-7Q10.72-7 10.75-6.96L10.75-6.96L10.75-6.96Q10.79-6.93 10.79-6.88L10.79-6.88L10.79-0.12L10.79-0.12Q10.79-0.07 10.75-0.04L10.75-0.04L10.75-0.04Q10.72 0 10.67 0L10.67 0L9.50 0ZM16.03-6.88L16.03-6.88Q16.03-6.93 16.06-6.96L16.06-6.96L16.06-6.96Q16.10-7 16.15-7L16.15-7L17.32-7L17.32-7Q17.37-7 17.40-6.96L17.40-6.96L17.40-6.96Q17.44-6.93 17.44-6.88L17.44-6.88L17.44-0.12L17.44-0.12Q17.44-0.07 17.40-0.04L17.40-0.04L17.40-0.04Q17.37 0 17.32 0L17.32 0L16.19 0L16.19 0Q16.09 0 16.05-0.08L16.05-0.08L13.46-4.36L13.46-4.36Q13.44-4.39 13.42-4.38L13.42-4.38L13.42-4.38Q13.40-4.38 13.40-4.34L13.40-4.34L13.42-0.12L13.42-0.12Q13.42-0.07 13.38-0.04L13.38-0.04L13.38-0.04Q13.35 0 13.30 0L13.30 0L12.13 0L12.13 0Q12.08 0 12.04-0.04L12.04-0.04L12.04-0.04Q12.01-0.07 12.01-0.12L12.01-0.12L12.01-6.88L12.01-6.88Q12.01-6.93 12.04-6.96L12.04-6.96L12.04-6.96Q12.08-7 12.13-7L12.13-7L13.26-7L13.26-7Q13.36-7 13.40-6.92L13.40-6.92L15.98-2.66L15.98-2.66Q16-2.63 16.02-2.64L16.02-2.64L16.02-2.64Q16.04-2.64 16.04-2.68L16.04-2.68L16.03-6.88ZM23.49-7L23.49-7Q23.54-7 23.57-6.96L23.57-6.96L23.57-6.96Q23.61-6.93 23.61-6.88L23.61-6.88L23.61-5.90L23.61-5.90Q23.61-5.85 23.57-5.82L23.57-5.82L23.57-5.82Q23.54-5.78 23.49-5.78L23.49-5.78L21.70-5.78L21.70-5.78Q21.65-5.78 21.65-5.73L21.65-5.73L21.65-0.12L21.65-0.12Q21.65-0.07 21.61-0.04L21.61-0.04L21.61-0.04Q21.58 0 21.53 0L21.53 0L20.36 0L20.36 0Q20.31 0 20.27-0.04L20.27-0.04L20.27-0.04Q20.24-0.07 20.24-0.12L20.24-0.12L20.24-5.73L20.24-5.73Q20.24-5.78 20.19-5.78L20.19-5.78L18.45-5.78L18.45-5.78Q18.40-5.78 18.36-5.82L18.36-5.82L18.36-5.82Q18.33-5.85 18.33-5.90L18.33-5.90L18.33-6.88L18.33-6.88Q18.33-6.93 18.36-6.96L18.36-6.96L18.36-6.96Q18.40-7 18.45-7L18.45-7L23.49-7ZM29.37-5.91L29.37-5.91Q29.37-5.86 29.34-5.83L29.34-5.83L29.34-5.83Q29.30-5.79 29.25-5.79L29.25-5.79L25.97-5.79L25.97-5.79Q25.92-5.79 25.92-5.74L25.92-5.74L25.92-4.19L25.92-4.19Q25.92-4.14 25.97-4.14L25.97-4.14L28.12-4.14L28.12-4.14Q28.17-4.14 28.20-4.11L28.20-4.11L28.20-4.11Q28.24-4.07 28.24-4.02L28.24-4.02L28.24-3.05L28.24-3.05Q28.24-3 28.20-2.96L28.20-2.96L28.20-2.96Q28.17-2.93 28.12-2.93L28.12-2.93L25.97-2.93L25.97-2.93Q25.92-2.93 25.92-2.88L25.92-2.88L25.92-1.26L25.92-1.26Q25.92-1.21 25.97-1.21L25.97-1.21L29.25-1.21L29.25-1.21Q29.30-1.21 29.34-1.18L29.34-1.18L29.34-1.18Q29.37-1.14 29.37-1.09L29.37-1.09L29.37-0.12L29.37-0.12Q29.37-0.07 29.34-0.04L29.34-0.04L29.34-0.04Q29.30 0 29.25 0L29.25 0L24.63 0L24.63 0Q24.58 0 24.54-0.04L24.54-0.04L24.54-0.04Q24.51-0.07 24.51-0.12L24.51-0.12L24.51-6.88L24.51-6.88Q24.51-6.93 24.54-6.96L24.54-6.96L24.54-6.96Q24.58-7 24.63-7L24.63-7L29.25-7L29.25-7Q29.30-7 29.34-6.96L29.34-6.96L29.34-6.96Q29.37-6.93 29.37-6.88L29.37-6.88L29.37-5.91ZM34.19 0L34.19 0Q34.09 0 34.05-0.09L34.05-0.09L32.80-2.86L32.80-2.86Q32.78-2.90 32.74-2.90L32.74-2.90L31.81-2.90L31.81-2.90Q31.76-2.90 31.76-2.85L31.76-2.85L31.76-0.12L31.76-0.12Q31.76-0.07 31.72-0.04L31.72-0.04L31.72-0.04Q31.69 0 31.64 0L31.64 0L30.47 0L30.47 0Q30.42 0 30.38-0.04L30.38-0.04L30.38-0.04Q30.35-0.07 30.35-0.12L30.35-0.12L30.35-6.88L30.35-6.88Q30.35-6.93 30.38-6.96L30.38-6.96L30.38-6.96Q30.42-7 30.47-7L30.47-7L33.33-7L33.33-7Q33.97-7 34.45-6.74L34.45-6.74L34.45-6.74Q34.94-6.48 35.20-6L35.20-6L35.20-6Q35.47-5.52 35.47-4.89L35.47-4.89L35.47-4.89Q35.47-4.21 35.13-3.73L35.13-3.73L35.13-3.73Q34.79-3.24 34.18-3.04L34.18-3.04L34.18-3.04Q34.13-3.02 34.15-2.97L34.15-2.97L35.51-0.14L35.51-0.14Q35.53-0.10 35.53-0.08L35.53-0.08L35.53-0.08Q35.53 0 35.42 0L35.42 0L34.19 0ZM31.81-5.79L31.81-5.79Q31.76-5.79 31.76-5.74L31.76-5.74L31.76-4.03L31.76-4.03Q31.76-3.98 31.81-3.98L31.81-3.98L33.12-3.98L33.12-3.98Q33.54-3.98 33.80-4.23L33.80-4.23L33.80-4.23Q34.07-4.48 34.07-4.88L34.07-4.88L34.07-4.88Q34.07-5.28 33.80-5.54L33.80-5.54L33.80-5.54Q33.54-5.79 33.12-5.79L33.12-5.79L31.81-5.79Z"/><path fill="#252530" transform="translate(35.53, 91.8)" d="M2.33-1.27L2.33-1.27Q2.31-1.25 2.32-1.23L2.32-1.23L2.32-1.23Q2.33-1.21 2.36-1.21L2.36-1.21L5.07-1.21L5.07-1.21Q5.12-1.21 5.16-1.18L5.16-1.18L5.16-1.18Q5.19-1.14 5.19-1.09L5.19-1.09L5.19-0.12L5.19-0.12Q5.19-0.07 5.16-0.04L5.16-0.04L5.16-0.04Q5.12 0 5.07 0L5.07 0L0.57 0L0.57 0Q0.52 0 0.48-0.04L0.48-0.04L0.48-0.04Q0.45-0.07 0.45-0.12L0.45-0.12L0.45-1.04L0.45-1.04Q0.45-1.13 0.51-1.19L0.51-1.19L0.51-1.19Q1-1.67 1.51-2.23L1.51-2.23L1.51-2.23Q2.02-2.80 2.15-2.94L2.15-2.94L2.15-2.94Q2.43-3.27 2.72-3.57L2.72-3.57L2.72-3.57Q3.63-4.58 3.63-5.07L3.63-5.07L3.63-5.07Q3.63-5.42 3.38-5.65L3.38-5.65L3.38-5.65Q3.13-5.87 2.73-5.87L2.73-5.87L2.73-5.87Q2.33-5.87 2.08-5.65L2.08-5.65L2.08-5.65Q1.83-5.42 1.83-5.05L1.83-5.05L1.83-4.80L1.83-4.80Q1.83-4.75 1.79-4.71L1.79-4.71L1.79-4.71Q1.76-4.68 1.71-4.68L1.71-4.68L0.53-4.68L0.53-4.68Q0.48-4.68 0.45-4.71L0.45-4.71L0.45-4.71Q0.41-4.75 0.41-4.80L0.41-4.80L0.41-5.27L0.41-5.27Q0.44-5.81 0.75-6.23L0.75-6.23L0.75-6.23Q1.06-6.64 1.57-6.86L1.57-6.86L1.57-6.86Q2.09-7.08 2.73-7.08L2.73-7.08L2.73-7.08Q3.44-7.08 3.97-6.82L3.97-6.82L3.97-6.82Q4.49-6.55 4.78-6.10L4.78-6.10L4.78-6.10Q5.06-5.65 5.06-5.10L5.06-5.10L5.06-5.10Q5.06-4.68 4.85-4.24L4.85-4.24L4.85-4.24Q4.64-3.80 4.22-3.29L4.22-3.29L4.22-3.29Q3.91-2.90 3.55-2.52L3.55-2.52L3.55-2.52Q3.19-2.14 2.48-1.42L2.48-1.42L2.33-1.27ZM8.44 0.11L8.44 0.11Q7.34 0.11 6.70-0.51L6.70-0.51L6.70-0.51Q6.06-1.12 6.06-2.18L6.06-2.18L6.06-4.82L6.06-4.82Q6.06-5.86 6.70-6.47L6.70-6.47L6.70-6.47Q7.34-7.08 8.44-7.08L8.44-7.08L8.44-7.08Q9.54-7.08 10.19-6.47L10.19-6.47L10.19-6.47Q10.83-5.86 10.83-4.82L10.83-4.82L10.83-2.18L10.83-2.18Q10.83-1.12 10.19-0.51L10.19-0.51L10.19-0.51Q9.54 0.11 8.44 0.11L8.44 0.11ZM8.44-1.10L8.44-1.10Q8.89-1.10 9.16-1.38L9.16-1.38L9.16-1.38Q9.42-1.65 9.42-2.11L9.42-2.11L9.42-4.86L9.42-4.86Q9.42-5.32 9.16-5.59L9.16-5.59L9.16-5.59Q8.89-5.87 8.44-5.87L8.44-5.87L8.44-5.87Q8-5.87 7.74-5.59L7.74-5.59L7.74-5.59Q7.47-5.32 7.47-4.86L7.47-4.86L7.47-2.11L7.47-2.11Q7.47-1.65 7.74-1.38L7.74-1.38L7.74-1.38Q8-1.10 8.44-1.10L8.44-1.10ZM13.63-1.27L13.63-1.27Q13.61-1.25 13.62-1.23L13.62-1.23L13.62-1.23Q13.63-1.21 13.66-1.21L13.66-1.21L16.37-1.21L16.37-1.21Q16.42-1.21 16.46-1.18L16.46-1.18L16.46-1.18Q16.49-1.14 16.49-1.09L16.49-1.09L16.49-0.12L16.49-0.12Q16.49-0.07 16.46-0.04L16.46-0.04L16.46-0.04Q16.42 0 16.37 0L16.37 0L11.87 0L11.87 0Q11.82 0 11.79-0.04L11.79-0.04L11.79-0.04Q11.75-0.07 11.75-0.12L11.75-0.12L11.75-1.04L11.75-1.04Q11.75-1.13 11.81-1.19L11.81-1.19L11.81-1.19Q12.30-1.67 12.81-2.23L12.81-2.23L12.81-2.23Q13.32-2.80 13.45-2.94L13.45-2.94L13.45-2.94Q13.73-3.27 14.02-3.57L14.02-3.57L14.02-3.57Q14.93-4.58 14.93-5.07L14.93-5.07L14.93-5.07Q14.93-5.42 14.68-5.65L14.68-5.65L14.68-5.65Q14.43-5.87 14.03-5.87L14.03-5.87L14.03-5.87Q13.63-5.87 13.38-5.65L13.38-5.65L13.38-5.65Q13.13-5.42 13.13-5.05L13.13-5.05L13.13-4.80L13.13-4.80Q13.13-4.75 13.10-4.71L13.10-4.71L13.10-4.71Q13.06-4.68 13.01-4.68L13.01-4.68L11.83-4.68L11.83-4.68Q11.78-4.68 11.75-4.71L11.75-4.71L11.75-4.71Q11.71-4.75 11.71-4.80L11.71-4.80L11.71-5.27L11.71-5.27Q11.74-5.81 12.05-6.23L12.05-6.23L12.05-6.23Q12.36-6.64 12.88-6.86L12.88-6.86L12.88-6.86Q13.39-7.08 14.03-7.08L14.03-7.08L14.03-7.08Q14.74-7.08 15.27-6.82L15.27-6.82L15.27-6.82Q15.79-6.55 16.08-6.10L16.08-6.10L16.08-6.10Q16.36-5.65 16.36-5.10L16.36-5.10L16.36-5.10Q16.36-4.68 16.15-4.24L16.15-4.24L16.15-4.24Q15.94-3.80 15.52-3.29L15.52-3.29L15.52-3.29Q15.21-2.90 14.85-2.52L14.85-2.52L14.85-2.52Q14.49-2.14 13.78-1.42L13.78-1.42L13.63-1.27ZM19.74 0.11L19.74 0.11Q18.64 0.11 18.00-0.51L18.00-0.51L18.00-0.51Q17.36-1.12 17.36-2.18L17.36-2.18L17.36-4.82L17.36-4.82Q17.36-5.86 18.00-6.47L18.00-6.47L18.00-6.47Q18.64-7.08 19.74-7.08L19.74-7.08L19.74-7.08Q20.84-7.08 21.49-6.47L21.49-6.47L21.49-6.47Q22.13-5.86 22.13-4.82L22.13-4.82L22.13-2.18L22.13-2.18Q22.13-1.12 21.49-0.51L21.49-0.51L21.49-0.51Q20.84 0.11 19.74 0.11L19.74 0.11ZM19.74-1.10L19.74-1.10Q20.19-1.10 20.46-1.38L20.46-1.38L20.46-1.38Q20.72-1.65 20.72-2.11L20.72-2.11L20.72-4.86L20.72-4.86Q20.72-5.32 20.46-5.59L20.46-5.59L20.46-5.59Q20.19-5.87 19.74-5.87L19.74-5.87L19.74-5.87Q19.30-5.87 19.04-5.59L19.04-5.59L19.04-5.59Q18.77-5.32 18.77-4.86L18.77-4.86L18.77-2.11L18.77-2.11Q18.77-1.65 19.04-1.38L19.04-1.38L19.04-1.38Q19.30-1.10 19.74-1.10L19.74-1.10Z"/></g>
</svg>
