<svg xmlns="http://www.w3.org/2000/svg" xmlns:xlink="http://www.w3.org/1999/xlink" viewBox="0 0 94 122">
  <g id="container">
    <path fill="#fff" d="M8.1 89.9L47.6 110l38-20.1V11.3H8.1z"/>
    <path fill="#f2f3f2" d="M86.4 11.6L7.3 91.3l41 20.3 38.1-19.5z"/>
    <path d="M5.5 37.5v54.1l1.4.7 39.5 20.1 1.2.6 1.2-.6 38.1-20.1 1.4-.7V8.7H5.5v28.8zm2.6 52.6V11.3h77.6v78.8l-38.1 20.1L8.1 90.1z" fill="#dcdedc"/>
    <path id="logo" d="M46.9 12.6c.4 0 .8 0 1.2.1L46.9 15c-1.8-.1-3.4 1.3-3.5 3.1-.1 1.8 1.3 3.4 3.1 3.5h.4c.8 0 1.6-.3 2.2-.8l1.3 2.2c-1 .7-2.2 1.1-3.5 1.1-3.2.1-5.9-2.3-6-5.5-.1-3.2 2.3-5.9 5.5-6h.5zm4.1 4.9l1.5 2.5-1.5 2.4-1.4-2.4h-2.9l1.5-2.5H51zm-2.4-.9c0-.4.1-.8.3-1.1.2-.3.6-.6.9-.8l.2-.1c.4-.2.5-.3.5-.5s-.3-.4-.5-.4c-.4 0-.7.2-.9.6l-.5-.5c.1-.2.3-.4.5-.6.3-.2.6-.2.9-.2.3 0 .7.1.9.3.2.2.4.5.4.8 0 .5-.3.9-.9 1.1l-.3.2c-.3.2-.5.3-.6.6h1.8v.7l-2.7-.1zm-1.7 12.5l9.5-5.4v-15H37.3v14.9l9.6 5.5z" fill="#ff492c"/>
    <path id="banner" d="M90.2 64.5H3.6l-3.2 7 3.2 7h86.6l3.1-7z" fill="#2690ce"/>
  <path fill="#252530" transform="translate(11.48, 60)" d="M0.73 0L0.73 0Q0.68 0 0.65-0.04L0.65-0.04L0.65-0.04Q0.61-0.07 0.61-0.12L0.61-0.12L0.61-6.88L0.61-6.88Q0.61-6.93 0.65-6.96L0.65-6.96L0.65-6.96Q0.68-7 0.73-7L0.73-7L1.90-7L1.90-7Q1.95-7 1.99-6.96L1.99-6.96L1.99-6.96Q2.02-6.93 2.02-6.88L2.02-6.88L2.02-0.12L2.02-0.12Q2.02-0.07 1.99-0.04L1.99-0.04L1.99-0.04Q1.95 0 1.90 0L1.90 0L0.73 0ZM8.85-5.22L8.85-5.22Q9.63-5.22 10.07-4.75L10.07-4.75L10.07-4.75Q10.51-4.28 10.51-3.43L10.51-3.43L10.51-0.12L10.51-0.12Q10.51-0.07 10.47-0.04L10.47-0.04L10.47-0.04Q10.44 0 10.39 0L10.39 0L9.22 0L9.22 0Q9.17 0 9.13-0.04L9.13-0.04L9.13-0.04Q9.10-0.07 9.10-0.12L9.10-0.12L9.10-3.12L9.10-3.12Q9.10-3.53 8.89-3.77L8.89-3.77L8.89-3.77Q8.68-4.01 8.33-4.01L8.33-4.01L8.33-4.01Q7.98-4.01 7.76-3.77L7.76-3.77L7.76-3.77Q7.54-3.53 7.54-3.13L7.54-3.13L7.54-0.12L7.54-0.12Q7.54-0.07 7.50-0.04L7.50-0.04L7.50-0.04Q7.47 0 7.42 0L7.42 0L6.26 0L6.26 0Q6.21 0 6.17-0.04L6.17-0.04L6.17-0.04Q6.14-0.07 6.14-0.12L6.14-0.12L6.14-3.12L6.14-3.12Q6.14-3.52 5.92-3.77L5.92-3.77L5.92-3.77Q5.70-4.01 5.35-4.01L5.35-4.01L5.35-4.01Q5.03-4.01 4.81-3.82L4.81-3.82L4.81-3.82Q4.60-3.63 4.56-3.29L4.56-3.29L4.56-0.12L4.56-0.12Q4.56-0.07 4.53-0.04L4.53-0.04L4.53-0.04Q4.49 0 4.44 0L4.44 0L3.27 0L3.27 0Q3.22 0 3.19-0.04L3.19-0.04L3.19-0.04Q3.15-0.07 3.15-0.12L3.15-0.12L3.15-5.02L3.15-5.02Q3.15-5.07 3.19-5.11L3.19-5.11L3.19-5.11Q3.22-5.14 3.27-5.14L3.27-5.14L4.44-5.14L4.44-5.14Q4.49-5.14 4.53-5.11L4.53-5.11L4.53-5.11Q4.56-5.07 4.56-5.02L4.56-5.02L4.56-4.63L4.56-4.63Q4.56-4.60 4.58-4.59L4.58-4.59L4.58-4.59Q4.60-4.58 4.62-4.61L4.62-4.61L4.62-4.61Q5.03-5.22 5.89-5.22L5.89-5.22L5.89-5.22Q6.39-5.22 6.76-5.01L6.76-5.01L6.76-5.01Q7.14-4.80 7.34-4.41L7.34-4.41L7.34-4.41Q7.37-4.35 7.41-4.41L7.41-4.41L7.41-4.41Q7.63-4.82 8.00-5.02L8.00-5.02L8.00-5.02Q8.38-5.22 8.85-5.22L8.85-5.22ZM16.09-3.76L16.09-3.76Q16.27-3.25 16.27-2.56L16.27-2.56L16.27-2.56Q16.27-1.87 16.08-1.31L16.08-1.31L16.08-1.31Q15.85-0.67 15.36-0.29L15.36-0.29L15.36-0.29Q14.86 0.08 14.13 0.08L14.13 0.08L14.13 0.08Q13.41 0.08 13.01-0.42L13.01-0.42L13.01-0.42Q12.99-0.45 12.97-0.44L12.97-0.44L12.97-0.44Q12.95-0.43 12.95-0.40L12.95-0.40L12.95 1.74L12.95 1.74Q12.95 1.79 12.92 1.82L12.92 1.82L12.92 1.82Q12.88 1.86 12.83 1.86L12.83 1.86L11.66 1.86L11.66 1.86Q11.61 1.86 11.58 1.82L11.58 1.82L11.58 1.82Q11.54 1.79 11.54 1.74L11.54 1.74L11.54-5.02L11.54-5.02Q11.54-5.07 11.58-5.11L11.58-5.11L11.58-5.11Q11.61-5.14 11.66-5.14L11.66-5.14L12.83-5.14L12.83-5.14Q12.88-5.14 12.92-5.11L12.92-5.11L12.92-5.11Q12.95-5.07 12.95-5.02L12.95-5.02L12.95-4.69L12.95-4.69Q12.95-4.66 12.97-4.66L12.97-4.66L12.97-4.66Q12.99-4.65 13.01-4.67L13.01-4.67L13.01-4.67Q13.43-5.22 14.17-5.22L14.17-5.22L14.17-5.22Q14.86-5.22 15.37-4.83L15.37-4.83L15.37-4.83Q15.87-4.45 16.09-3.76L16.09-3.76ZM14.56-1.52L14.56-1.52Q14.81-1.91 14.81-2.58L14.81-2.58L14.81-2.58Q14.81-3.21 14.60-3.58L14.60-3.58L14.60-3.58Q14.37-4.01 13.86-4.01L13.86-4.01L13.86-4.01Q13.40-4.01 13.17-3.58L13.17-3.58L13.17-3.58Q12.96-3.22 12.96-2.57L12.96-2.57L12.96-2.57Q12.96-1.90 13.18-1.53L13.18-1.53L13.18-1.53Q13.41-1.13 13.86-1.13L13.86-1.13L13.86-1.13Q14.31-1.13 14.56-1.52L14.56-1.52ZM17.30 0L17.30 0Q17.25 0 17.21-0.04L17.21-0.04L17.21-0.04Q17.18-0.07 17.18-0.12L17.18-0.12L17.18-6.88L17.18-6.88Q17.18-6.93 17.21-6.96L17.21-6.96L17.21-6.96Q17.25-7 17.30-7L17.30-7L18.47-7L18.47-7Q18.52-7 18.55-6.96L18.55-6.96L18.55-6.96Q18.59-6.93 18.59-6.88L18.59-6.88L18.59-0.12L18.59-0.12Q18.59-0.07 18.55-0.04L18.55-0.04L18.55-0.04Q18.52 0 18.47 0L18.47 0L17.30 0ZM24.17-3.10L24.17-3.10Q24.23-2.72 24.21-2.25L24.21-2.25L24.21-2.25Q24.20-2.13 24.08-2.13L24.08-2.13L20.99-2.13L20.99-2.13Q20.93-2.13 20.95-2.08L20.95-2.08L20.95-2.08Q20.98-1.88 21.06-1.68L21.06-1.68L21.06-1.68Q21.32-1.12 22.12-1.12L22.12-1.12L22.12-1.12Q22.76-1.13 23.13-1.64L23.13-1.64L23.13-1.64Q23.17-1.70 23.22-1.70L23.22-1.70L23.22-1.70Q23.25-1.70 23.29-1.66L23.29-1.66L24.01-0.95L24.01-0.95Q24.06-0.90 24.06-0.86L24.06-0.86L24.06-0.86Q24.06-0.84 24.02-0.78L24.02-0.78L24.02-0.78Q23.69-0.37 23.17-0.14L23.17-0.14L23.17-0.14Q22.65 0.08 22.03 0.08L22.03 0.08L22.03 0.08Q21.17 0.08 20.58-0.31L20.58-0.31L20.58-0.31Q19.98-0.70 19.72-1.40L19.72-1.40L19.72-1.40Q19.51-1.90 19.51-2.71L19.51-2.71L19.51-2.71Q19.51-3.26 19.66-3.68L19.66-3.68L19.66-3.68Q19.89-4.39 20.46-4.81L20.46-4.81L20.46-4.81Q21.04-5.23 21.83-5.23L21.83-5.23L21.83-5.23Q22.83-5.23 23.44-4.65L23.44-4.65L23.44-4.65Q24.04-4.07 24.17-3.10L24.17-3.10ZM21.84-4.01L21.84-4.01Q21.21-4.01 21.01-3.42L21.01-3.42L21.01-3.42Q20.97-3.29 20.94-3.10L20.94-3.10L20.94-3.10Q20.94-3.05 20.99-3.05L20.99-3.05L22.72-3.05L22.72-3.05Q22.78-3.05 22.76-3.10L22.76-3.10L22.76-3.10Q22.71-3.39 22.71-3.38L22.71-3.38L22.71-3.38Q22.62-3.68 22.40-3.85L22.40-3.85L22.40-3.85Q22.17-4.01 21.84-4.01L21.84-4.01ZM30.78-5.22L30.78-5.22Q31.56-5.22 32-4.75L32-4.75L32-4.75Q32.44-4.28 32.44-3.43L32.44-3.43L32.44-0.12L32.44-0.12Q32.44-0.07 32.41-0.04L32.41-0.04L32.41-0.04Q32.37 0 32.32 0L32.32 0L31.15 0L31.15 0Q31.10 0 31.07-0.04L31.07-0.04L31.07-0.04Q31.03-0.07 31.03-0.12L31.03-0.12L31.03-3.12L31.03-3.12Q31.03-3.53 30.82-3.77L30.82-3.77L30.82-3.77Q30.61-4.01 30.26-4.01L30.26-4.01L30.26-4.01Q29.91-4.01 29.69-3.77L29.69-3.77L29.69-3.77Q29.47-3.53 29.47-3.13L29.47-3.13L29.47-0.12L29.47-0.12Q29.47-0.07 29.44-0.04L29.44-0.04L29.44-0.04Q29.40 0 29.35 0L29.35 0L28.19 0L28.19 0Q28.14 0 28.11-0.04L28.11-0.04L28.11-0.04Q28.07-0.07 28.07-0.12L28.07-0.12L28.07-3.12L28.07-3.12Q28.07-3.52 27.85-3.77L27.85-3.77L27.85-3.77Q27.63-4.01 27.28-4.01L27.28-4.01L27.28-4.01Q26.96-4.01 26.75-3.82L26.75-3.82L26.75-3.82Q26.53-3.63 26.49-3.29L26.49-3.29L26.49-0.12L26.49-0.12Q26.49-0.07 26.46-0.04L26.46-0.04L26.46-0.04Q26.42 0 26.37 0L26.37 0L25.20 0L25.20 0Q25.15 0 25.12-0.04L25.12-0.04L25.12-0.04Q25.08-0.07 25.08-0.12L25.08-0.12L25.08-5.02L25.08-5.02Q25.08-5.07 25.12-5.11L25.12-5.11L25.12-5.11Q25.15-5.14 25.20-5.14L25.20-5.14L26.37-5.14L26.37-5.14Q26.42-5.14 26.46-5.11L26.46-5.11L26.46-5.11Q26.49-5.07 26.49-5.02L26.49-5.02L26.49-4.63L26.49-4.63Q26.49-4.60 26.51-4.59L26.51-4.59L26.51-4.59Q26.53-4.58 26.55-4.61L26.55-4.61L26.55-4.61Q26.96-5.22 27.82-5.22L27.82-5.22L27.82-5.22Q28.32-5.22 28.70-5.01L28.70-5.01L28.70-5.01Q29.07-4.80 29.27-4.41L29.27-4.41L29.27-4.41Q29.30-4.35 29.34-4.41L29.34-4.41L29.34-4.41Q29.56-4.82 29.94-5.02L29.94-5.02L29.94-5.02Q30.31-5.22 30.78-5.22L30.78-5.22ZM37.98-3.10L37.98-3.10Q38.04-2.72 38.02-2.25L38.02-2.25L38.02-2.25Q38.01-2.13 37.89-2.13L37.89-2.13L34.80-2.13L34.80-2.13Q34.74-2.13 34.76-2.08L34.76-2.08L34.76-2.08Q34.79-1.88 34.87-1.68L34.87-1.68L34.87-1.68Q35.13-1.12 35.93-1.12L35.93-1.12L35.93-1.12Q36.57-1.13 36.94-1.64L36.94-1.64L36.94-1.64Q36.98-1.70 37.03-1.70L37.03-1.70L37.03-1.70Q37.06-1.70 37.10-1.66L37.10-1.66L37.82-0.95L37.82-0.95Q37.87-0.90 37.87-0.86L37.87-0.86L37.87-0.86Q37.87-0.84 37.83-0.78L37.83-0.78L37.83-0.78Q37.50-0.37 36.98-0.14L36.98-0.14L36.98-0.14Q36.46 0.08 35.84 0.08L35.84 0.08L35.84 0.08Q34.98 0.08 34.39-0.31L34.39-0.31L34.39-0.31Q33.79-0.70 33.53-1.40L33.53-1.40L33.53-1.40Q33.32-1.90 33.32-2.71L33.32-2.71L33.32-2.71Q33.32-3.26 33.47-3.68L33.47-3.68L33.47-3.68Q33.70-4.39 34.28-4.81L34.28-4.81L34.28-4.81Q34.85-5.23 35.64-5.23L35.64-5.23L35.64-5.23Q36.64-5.23 37.25-4.65L37.25-4.65L37.25-4.65Q37.85-4.07 37.98-3.10L37.98-3.10ZM35.65-4.01L35.65-4.01Q35.02-4.01 34.82-3.42L34.82-3.42L34.82-3.42Q34.78-3.29 34.75-3.10L34.75-3.10L34.75-3.10Q34.75-3.05 34.80-3.05L34.80-3.05L36.53-3.05L36.53-3.05Q36.59-3.05 36.57-3.10L36.57-3.10L36.57-3.10Q36.52-3.39 36.52-3.38L36.52-3.38L36.52-3.38Q36.43-3.68 36.21-3.85L36.21-3.85L36.21-3.85Q35.98-4.01 35.65-4.01L35.65-4.01ZM41.57-5.22L41.57-5.22Q42.37-5.22 42.86-4.73L42.86-4.73L42.86-4.73Q43.35-4.24 43.35-3.40L43.35-3.40L43.35-0.12L43.35-0.12Q43.35-0.07 43.32-0.04L43.32-0.04L43.32-0.04Q43.28 0 43.23 0L43.23 0L42.06 0L42.06 0Q42.01 0 41.98-0.04L41.98-0.04L41.98-0.04Q41.94-0.07 41.94-0.12L41.94-0.12L41.94-3.11L41.94-3.11Q41.94-3.51 41.72-3.76L41.72-3.76L41.72-3.76Q41.49-4.01 41.12-4.01L41.12-4.01L41.12-4.01Q40.75-4.01 40.53-3.76L40.53-3.76L40.53-3.76Q40.30-3.51 40.30-3.11L40.30-3.11L40.30-0.12L40.30-0.12Q40.30-0.07 40.27-0.04L40.27-0.04L40.27-0.04Q40.23 0 40.18 0L40.18 0L39.01 0L39.01 0Q38.96 0 38.93-0.04L38.93-0.04L38.93-0.04Q38.89-0.07 38.89-0.12L38.89-0.12L38.89-5.02L38.89-5.02Q38.89-5.07 38.93-5.11L38.93-5.11L38.93-5.11Q38.96-5.14 39.01-5.14L39.01-5.14L40.18-5.14L40.18-5.14Q40.23-5.14 40.27-5.11L40.27-5.11L40.27-5.11Q40.30-5.07 40.30-5.02L40.30-5.02L40.30-4.67L40.30-4.67Q40.30-4.64 40.32-4.63L40.32-4.63L40.32-4.63Q40.34-4.62 40.35-4.64L40.35-4.64L40.35-4.64Q40.76-5.22 41.57-5.22L41.57-5.22ZM47.31-4.13L47.31-4.13Q47.31-4.08 47.28-4.04L47.28-4.04L47.28-4.04Q47.24-4.01 47.19-4.01L47.19-4.01L46.23-4.01L46.23-4.01Q46.18-4.01 46.18-3.96L46.18-3.96L46.18-1.84L46.18-1.84Q46.18-1.51 46.32-1.35L46.32-1.35L46.32-1.35Q46.45-1.19 46.75-1.19L46.75-1.19L47.08-1.19L47.08-1.19Q47.13-1.19 47.17-1.16L47.17-1.16L47.17-1.16Q47.20-1.12 47.20-1.07L47.20-1.07L47.20-0.12L47.20-0.12Q47.20-0.01 47.08 0.01L47.08 0.01L47.08 0.01Q46.66 0.03 46.48 0.03L46.48 0.03L46.48 0.03Q45.65 0.03 45.24-0.24L45.24-0.24L45.24-0.24Q44.83-0.52 44.82-1.28L44.82-1.28L44.82-3.96L44.82-3.96Q44.82-4.01 44.77-4.01L44.77-4.01L44.20-4.01L44.20-4.01Q44.15-4.01 44.12-4.04L44.12-4.04L44.12-4.04Q44.08-4.08 44.08-4.13L44.08-4.13L44.08-5.02L44.08-5.02Q44.08-5.07 44.12-5.11L44.12-5.11L44.12-5.11Q44.15-5.14 44.20-5.14L44.20-5.14L44.77-5.14L44.77-5.14Q44.82-5.14 44.82-5.19L44.82-5.19L44.82-6.38L44.82-6.38Q44.82-6.43 44.86-6.46L44.86-6.46L44.86-6.46Q44.89-6.50 44.94-6.50L44.94-6.50L46.06-6.50L46.06-6.50Q46.11-6.50 46.15-6.46L46.15-6.46L46.15-6.46Q46.18-6.43 46.18-6.38L46.18-6.38L46.18-5.19L46.18-5.19Q46.18-5.14 46.23-5.14L46.23-5.14L47.19-5.14L47.19-5.14Q47.24-5.14 47.28-5.11L47.28-5.11L47.28-5.11Q47.31-5.07 47.31-5.02L47.31-5.02L47.31-4.13ZM50.21-5.22L50.21-5.22Q50.86-5.22 51.37-5.00L51.37-5.00L51.37-5.00Q51.88-4.77 52.16-4.38L52.16-4.38L52.16-4.38Q52.45-3.99 52.45-3.51L52.45-3.51L52.45-0.12L52.45-0.12Q52.45-0.07 52.41-0.04L52.41-0.04L52.41-0.04Q52.38 0 52.33 0L52.33 0L51.16 0L51.16 0Q51.11 0 51.08-0.04L51.08-0.04L51.08-0.04Q51.04-0.07 51.04-0.12L51.04-0.12L51.04-0.45L51.04-0.45Q51.04-0.48 51.02-0.49L51.02-0.49L51.02-0.49Q51-0.50 50.98-0.47L50.98-0.47L50.98-0.47Q50.56 0.08 49.63 0.08L49.63 0.08L49.63 0.08Q48.85 0.08 48.37-0.30L48.37-0.30L48.37-0.30Q47.89-0.68 47.89-1.42L47.89-1.42L47.89-1.42Q47.89-2.19 48.43-2.62L48.43-2.62L48.43-2.62Q48.97-3.04 49.97-3.04L49.97-3.04L50.99-3.04L50.99-3.04Q51.04-3.04 51.04-3.09L51.04-3.09L51.04-3.31L51.04-3.31Q51.04-3.64 50.84-3.83L50.84-3.83L50.84-3.83Q50.64-4.01 50.24-4.01L50.24-4.01L50.24-4.01Q49.93-4.01 49.73-3.90L49.73-3.90L49.73-3.90Q49.52-3.79 49.46-3.59L49.46-3.59L49.46-3.59Q49.43-3.48 49.33-3.49L49.33-3.49L48.12-3.65L48.12-3.65Q48-3.67 48.01-3.74L48.01-3.74L48.01-3.74Q48.05-4.16 48.34-4.50L48.34-4.50L48.34-4.50Q48.64-4.84 49.13-5.03L49.13-5.03L49.13-5.03Q49.61-5.22 50.21-5.22L50.21-5.22ZM50.01-0.97L50.01-0.97Q50.44-0.97 50.74-1.20L50.74-1.20L50.74-1.20Q51.04-1.43 51.04-1.79L51.04-1.79L51.04-2.15L51.04-2.15Q51.04-2.20 50.99-2.20L50.99-2.20L50.27-2.20L50.27-2.20Q49.82-2.20 49.56-2.03L49.56-2.03L49.56-2.03Q49.31-1.86 49.31-1.55L49.31-1.55L49.31-1.55Q49.31-1.28 49.50-1.13L49.50-1.13L49.50-1.13Q49.69-0.97 50.01-0.97L50.01-0.97ZM56.39-4.13L56.39-4.13Q56.39-4.08 56.36-4.04L56.36-4.04L56.36-4.04Q56.32-4.01 56.27-4.01L56.27-4.01L55.31-4.01L55.31-4.01Q55.26-4.01 55.26-3.96L55.26-3.96L55.26-1.84L55.26-1.84Q55.26-1.51 55.40-1.35L55.40-1.35L55.40-1.35Q55.53-1.19 55.83-1.19L55.83-1.19L56.16-1.19L56.16-1.19Q56.21-1.19 56.25-1.16L56.25-1.16L56.25-1.16Q56.28-1.12 56.28-1.07L56.28-1.07L56.28-0.12L56.28-0.12Q56.28-0.01 56.16 0.01L56.16 0.01L56.16 0.01Q55.74 0.03 55.56 0.03L55.56 0.03L55.56 0.03Q54.73 0.03 54.32-0.24L54.32-0.24L54.32-0.24Q53.91-0.52 53.90-1.28L53.90-1.28L53.90-3.96L53.90-3.96Q53.90-4.01 53.85-4.01L53.85-4.01L53.28-4.01L53.28-4.01Q53.23-4.01 53.20-4.04L53.20-4.04L53.20-4.04Q53.16-4.08 53.16-4.13L53.16-4.13L53.16-5.02L53.16-5.02Q53.16-5.07 53.20-5.11L53.20-5.11L53.20-5.11Q53.23-5.14 53.28-5.14L53.28-5.14L53.85-5.14L53.85-5.14Q53.90-5.14 53.90-5.19L53.90-5.19L53.90-6.38L53.90-6.38Q53.90-6.43 53.94-6.46L53.94-6.46L53.94-6.46Q53.97-6.50 54.02-6.50L54.02-6.50L55.14-6.50L55.14-6.50Q55.19-6.50 55.23-6.46L55.23-6.46L55.23-6.46Q55.26-6.43 55.26-6.38L55.26-6.38L55.26-5.19L55.26-5.19Q55.26-5.14 55.31-5.14L55.31-5.14L56.27-5.14L56.27-5.14Q56.32-5.14 56.36-5.11L56.36-5.11L56.36-5.11Q56.39-5.07 56.39-5.02L56.39-5.02L56.39-4.13ZM58-5.72L58-5.72Q57.66-5.72 57.44-5.95L57.44-5.95L57.44-5.95Q57.21-6.17 57.21-6.51L57.21-6.51L57.21-6.51Q57.21-6.86 57.43-7.08L57.43-7.08L57.43-7.08Q57.65-7.30 58-7.30L58-7.30L58-7.30Q58.35-7.30 58.57-7.08L58.57-7.08L58.57-7.08Q58.79-6.86 58.79-6.51L58.79-6.51L58.79-6.51Q58.79-6.17 58.56-5.95L58.56-5.95L58.56-5.95Q58.34-5.72 58-5.72L58-5.72ZM57.40 0L57.40 0Q57.35 0 57.31-0.04L57.31-0.04L57.31-0.04Q57.28-0.07 57.28-0.12L57.28-0.12L57.28-5.03L57.28-5.03Q57.28-5.08 57.31-5.12L57.31-5.12L57.31-5.12Q57.35-5.15 57.40-5.15L57.40-5.15L58.57-5.15L58.57-5.15Q58.62-5.15 58.66-5.12L58.66-5.12L58.66-5.12Q58.69-5.08 58.69-5.03L58.69-5.03L58.69-0.12L58.69-0.12Q58.69-0.07 58.66-0.04L58.66-0.04L58.66-0.04Q58.62 0 58.57 0L58.57 0L57.40 0ZM62.06 0.08L62.06 0.08Q61.22 0.08 60.62-0.36L60.62-0.36L60.62-0.36Q60.02-0.80 59.80-1.56L59.80-1.56L59.80-1.56Q59.66-2.03 59.66-2.58L59.66-2.58L59.66-2.58Q59.66-3.17 59.80-3.64L59.80-3.64L59.80-3.64Q60.03-4.38 60.63-4.80L60.63-4.80L60.63-4.80Q61.23-5.22 62.07-5.22L62.07-5.22L62.07-5.22Q62.89-5.22 63.47-4.80L63.47-4.80L63.47-4.80Q64.05-4.39 64.29-3.65L64.29-3.65L64.29-3.65Q64.45-3.15 64.45-2.60L64.45-2.60L64.45-2.60Q64.45-2.06 64.31-1.59L64.31-1.59L64.31-1.59Q64.09-0.81 63.49-0.36L63.49-0.36L63.49-0.36Q62.90 0.08 62.06 0.08L62.06 0.08ZM62.06-1.13L62.06-1.13Q62.39-1.13 62.62-1.33L62.62-1.33L62.62-1.33Q62.85-1.53 62.95-1.88L62.95-1.88L62.95-1.88Q63.03-2.20 63.03-2.58L63.03-2.58L63.03-2.58Q63.03-3 62.95-3.29L62.95-3.29L62.95-3.29Q62.84-3.63 62.61-3.82L62.61-3.82L62.61-3.82Q62.38-4.01 62.05-4.01L62.05-4.01L62.05-4.01Q61.71-4.01 61.48-3.82L61.48-3.82L61.48-3.82Q61.26-3.63 61.16-3.29L61.16-3.29L61.16-3.29Q61.08-3.05 61.08-2.58L61.08-2.58L61.08-2.58Q61.08-2.13 61.15-1.88L61.15-1.88L61.15-1.88Q61.25-1.53 61.48-1.33L61.48-1.33L61.48-1.33Q61.72-1.13 62.06-1.13L62.06-1.13ZM68.04-5.22L68.04-5.22Q68.84-5.22 69.33-4.73L69.33-4.73L69.33-4.73Q69.82-4.24 69.82-3.40L69.82-3.40L69.82-0.12L69.82-0.12Q69.82-0.07 69.78-0.04L69.78-0.04L69.78-0.04Q69.75 0 69.70 0L69.70 0L68.53 0L68.53 0Q68.48 0 68.45-0.04L68.45-0.04L68.45-0.04Q68.41-0.07 68.41-0.12L68.41-0.12L68.41-3.11L68.41-3.11Q68.41-3.51 68.19-3.76L68.19-3.76L68.19-3.76Q67.96-4.01 67.59-4.01L67.59-4.01L67.59-4.01Q67.22-4.01 67.00-3.76L67.00-3.76L67.00-3.76Q66.77-3.51 66.77-3.11L66.77-3.11L66.77-0.12L66.77-0.12Q66.77-0.07 66.73-0.04L66.73-0.04L66.73-0.04Q66.70 0 66.65 0L66.65 0L65.48 0L65.48 0Q65.43 0 65.40-0.04L65.40-0.04L65.40-0.04Q65.36-0.07 65.36-0.12L65.36-0.12L65.36-5.02L65.36-5.02Q65.36-5.07 65.40-5.11L65.40-5.11L65.40-5.11Q65.43-5.14 65.48-5.14L65.48-5.14L66.65-5.14L66.65-5.14Q66.70-5.14 66.73-5.11L66.73-5.11L66.73-5.11Q66.77-5.07 66.77-5.02L66.77-5.02L66.77-4.67L66.77-4.67Q66.77-4.64 66.79-4.63L66.79-4.63L66.79-4.63Q66.81-4.62 66.82-4.64L66.82-4.64L66.82-4.64Q67.23-5.22 68.04-5.22L68.04-5.22Z"/><path fill="#252530" transform="translate(29.56, 50)" d="M5.46-5.91L5.46-5.91Q5.46-5.86 5.42-5.83L5.42-5.83L5.42-5.83Q5.39-5.79 5.34-5.79L5.34-5.79L2.07-5.79L2.07-5.79Q2.02-5.79 2.02-5.74L2.02-5.74L2.02-4.19L2.02-4.19Q2.02-4.14 2.07-4.14L2.07-4.14L4.22-4.14L4.22-4.14Q4.27-4.14 4.30-4.11L4.30-4.11L4.30-4.11Q4.34-4.07 4.34-4.02L4.34-4.02L4.34-3.05L4.34-3.05Q4.34-3 4.30-2.96L4.30-2.96L4.30-2.96Q4.27-2.93 4.22-2.93L4.22-2.93L2.07-2.93L2.07-2.93Q2.02-2.93 2.02-2.88L2.02-2.88L2.02-0.12L2.02-0.12Q2.02-0.07 1.99-0.04L1.99-0.04L1.99-0.04Q1.95 0 1.90 0L1.90 0L0.73 0L0.73 0Q0.68 0 0.65-0.04L0.65-0.04L0.65-0.04Q0.61-0.07 0.61-0.12L0.61-0.12L0.61-6.88L0.61-6.88Q0.61-6.93 0.65-6.96L0.65-6.96L0.65-6.96Q0.68-7 0.73-7L0.73-7L5.34-7L5.34-7Q5.39-7 5.42-6.96L5.42-6.96L5.42-6.96Q5.46-6.93 5.46-6.88L5.46-6.88L5.46-5.91ZM8.17-5.22L8.17-5.22Q8.82-5.22 9.33-5.00L9.33-5.00L9.33-5.00Q9.84-4.77 10.13-4.38L10.13-4.38L10.13-4.38Q10.41-3.99 10.41-3.51L10.41-3.51L10.41-0.12L10.41-0.12Q10.41-0.07 10.38-0.04L10.38-0.04L10.38-0.04Q10.34 0 10.29 0L10.29 0L9.12 0L9.12 0Q9.07 0 9.04-0.04L9.04-0.04L9.04-0.04Q9-0.07 9-0.12L9-0.12L9-0.45L9-0.45Q9-0.48 8.98-0.49L8.98-0.49L8.98-0.49Q8.96-0.50 8.94-0.47L8.94-0.47L8.94-0.47Q8.52 0.08 7.59 0.08L7.59 0.08L7.59 0.08Q6.81 0.08 6.33-0.30L6.33-0.30L6.33-0.30Q5.85-0.68 5.85-1.42L5.85-1.42L5.85-1.42Q5.85-2.19 6.39-2.62L6.39-2.62L6.39-2.62Q6.93-3.04 7.93-3.04L7.93-3.04L8.95-3.04L8.95-3.04Q9-3.04 9-3.09L9-3.09L9-3.31L9-3.31Q9-3.64 8.80-3.83L8.80-3.83L8.80-3.83Q8.60-4.01 8.20-4.01L8.20-4.01L8.20-4.01Q7.89-4.01 7.69-3.90L7.69-3.90L7.69-3.90Q7.48-3.79 7.42-3.59L7.42-3.59L7.42-3.59Q7.39-3.48 7.29-3.49L7.29-3.49L6.08-3.65L6.08-3.65Q5.96-3.67 5.97-3.74L5.97-3.74L5.97-3.74Q6.01-4.16 6.31-4.50L6.31-4.50L6.31-4.50Q6.60-4.84 7.09-5.03L7.09-5.03L7.09-5.03Q7.57-5.22 8.17-5.22L8.17-5.22ZM7.97-0.97L7.97-0.97Q8.40-0.97 8.70-1.20L8.70-1.20L8.70-1.20Q9-1.43 9-1.79L9-1.79L9-2.15L9-2.15Q9-2.20 8.95-2.20L8.95-2.20L8.23-2.20L8.23-2.20Q7.78-2.20 7.53-2.03L7.53-2.03L7.53-2.03Q7.27-1.86 7.27-1.55L7.27-1.55L7.27-1.55Q7.27-1.28 7.46-1.13L7.46-1.13L7.46-1.13Q7.65-0.97 7.97-0.97L7.97-0.97ZM13.45 0.07L13.45 0.07Q12.78 0.07 12.28-0.12L12.28-0.12L12.28-0.12Q11.78-0.31 11.51-0.65L11.51-0.65L11.51-0.65Q11.23-0.99 11.23-1.42L11.23-1.42L11.23-1.52L11.23-1.52Q11.23-1.57 11.27-1.60L11.27-1.60L11.27-1.60Q11.30-1.64 11.35-1.64L11.35-1.64L12.46-1.64L12.46-1.64Q12.51-1.64 12.55-1.60L12.55-1.60L12.55-1.60Q12.58-1.57 12.58-1.52L12.58-1.52L12.58-1.51L12.58-1.51Q12.58-1.29 12.83-1.14L12.83-1.14L12.83-1.14Q13.07-0.98 13.44-0.98L13.44-0.98L13.44-0.98Q13.78-0.98 13.99-1.11L13.99-1.11L13.99-1.11Q14.20-1.25 14.20-1.45L14.20-1.45L14.20-1.45Q14.20-1.63 14.02-1.72L14.02-1.72L14.02-1.72Q13.84-1.81 13.43-1.91L13.43-1.91L13.43-1.91Q12.96-2.03 12.69-2.14L12.69-2.14L12.69-2.14Q12.05-2.36 11.67-2.68L11.67-2.68L11.67-2.68Q11.29-3 11.29-3.60L11.29-3.60L11.29-3.60Q11.29-4.34 11.87-4.78L11.87-4.78L11.87-4.78Q12.44-5.21 13.39-5.21L13.39-5.21L13.39-5.21Q14.03-5.21 14.51-5.00L14.51-5.00L14.51-5.00Q14.99-4.80 15.26-4.43L15.26-4.43L15.26-4.43Q15.52-4.06 15.52-3.59L15.52-3.59L15.52-3.59Q15.52-3.54 15.49-3.50L15.49-3.50L15.49-3.50Q15.45-3.47 15.40-3.47L15.40-3.47L14.33-3.47L14.33-3.47Q14.28-3.47 14.25-3.50L14.25-3.50L14.25-3.50Q14.21-3.54 14.21-3.59L14.21-3.59L14.21-3.59Q14.21-3.81 13.99-3.96L13.99-3.96L13.99-3.96Q13.76-4.11 13.39-4.11L13.39-4.11L13.39-4.11Q13.06-4.11 12.85-3.99L12.85-3.99L12.85-3.99Q12.64-3.87 12.64-3.66L12.64-3.66L12.64-3.66Q12.64-3.46 12.85-3.36L12.85-3.36L12.85-3.36Q13.05-3.26 13.53-3.15L13.53-3.15L13.53-3.15Q13.64-3.12 13.78-3.08L13.78-3.08L13.78-3.08Q13.92-3.05 14.08-3L14.08-3L14.08-3Q14.79-2.79 15.20-2.46L15.20-2.46L15.20-2.46Q15.61-2.13 15.61-1.50L15.61-1.50L15.61-1.50Q15.61-0.76 15.03-0.35L15.03-0.35L15.03-0.35Q14.44 0.07 13.45 0.07L13.45 0.07ZM19.37-4.13L19.37-4.13Q19.37-4.08 19.34-4.04L19.34-4.04L19.34-4.04Q19.30-4.01 19.25-4.01L19.25-4.01L18.29-4.01L18.29-4.01Q18.24-4.01 18.24-3.96L18.24-3.96L18.24-1.84L18.24-1.84Q18.24-1.51 18.38-1.35L18.38-1.35L18.38-1.35Q18.51-1.19 18.81-1.19L18.81-1.19L19.14-1.19L19.14-1.19Q19.19-1.19 19.23-1.16L19.23-1.16L19.23-1.16Q19.26-1.12 19.26-1.07L19.26-1.07L19.26-0.12L19.26-0.12Q19.26-0.01 19.14 0.01L19.14 0.01L19.14 0.01Q18.72 0.03 18.54 0.03L18.54 0.03L18.54 0.03Q17.71 0.03 17.30-0.24L17.30-0.24L17.30-0.24Q16.89-0.52 16.88-1.28L16.88-1.28L16.88-3.96L16.88-3.96Q16.88-4.01 16.83-4.01L16.83-4.01L16.26-4.01L16.26-4.01Q16.21-4.01 16.18-4.04L16.18-4.04L16.18-4.04Q16.14-4.08 16.14-4.13L16.14-4.13L16.14-5.02L16.14-5.02Q16.14-5.07 16.18-5.11L16.18-5.11L16.18-5.11Q16.21-5.14 16.26-5.14L16.26-5.14L16.83-5.14L16.83-5.14Q16.88-5.14 16.88-5.19L16.88-5.19L16.88-6.38L16.88-6.38Q16.88-6.43 16.92-6.46L16.92-6.46L16.92-6.46Q16.95-6.50 17.00-6.50L17.00-6.50L18.12-6.50L18.12-6.50Q18.17-6.50 18.21-6.46L18.21-6.46L18.21-6.46Q18.24-6.43 18.24-6.38L18.24-6.38L18.24-5.19L18.24-5.19Q18.24-5.14 18.29-5.14L18.29-5.14L19.25-5.14L19.25-5.14Q19.30-5.14 19.34-5.11L19.34-5.11L19.34-5.11Q19.37-5.07 19.37-5.02L19.37-5.02L19.37-4.13ZM24.77-3.10L24.77-3.10Q24.83-2.72 24.81-2.25L24.81-2.25L24.81-2.25Q24.80-2.13 24.68-2.13L24.68-2.13L21.59-2.13L21.59-2.13Q21.53-2.13 21.55-2.08L21.55-2.08L21.55-2.08Q21.58-1.88 21.66-1.68L21.66-1.68L21.66-1.68Q21.92-1.12 22.72-1.12L22.72-1.12L22.72-1.12Q23.36-1.13 23.73-1.64L23.73-1.64L23.73-1.64Q23.77-1.70 23.82-1.70L23.82-1.70L23.82-1.70Q23.85-1.70 23.89-1.66L23.89-1.66L24.61-0.95L24.61-0.95Q24.66-0.90 24.66-0.86L24.66-0.86L24.66-0.86Q24.66-0.84 24.62-0.78L24.62-0.78L24.62-0.78Q24.29-0.37 23.77-0.14L23.77-0.14L23.77-0.14Q23.25 0.08 22.63 0.08L22.63 0.08L22.63 0.08Q21.77 0.08 21.18-0.31L21.18-0.31L21.18-0.31Q20.58-0.70 20.32-1.40L20.32-1.40L20.32-1.40Q20.11-1.90 20.11-2.71L20.11-2.71L20.11-2.71Q20.11-3.26 20.26-3.68L20.26-3.68L20.26-3.68Q20.49-4.39 21.07-4.81L21.07-4.81L21.07-4.81Q21.64-5.23 22.43-5.23L22.43-5.23L22.43-5.23Q23.43-5.23 24.04-4.65L24.04-4.65L24.04-4.65Q24.64-4.07 24.77-3.10L24.77-3.10ZM22.44-4.01L22.44-4.01Q21.81-4.01 21.61-3.42L21.61-3.42L21.61-3.42Q21.57-3.29 21.54-3.10L21.54-3.10L21.54-3.10Q21.54-3.05 21.59-3.05L21.59-3.05L23.32-3.05L23.32-3.05Q23.38-3.05 23.36-3.10L23.36-3.10L23.36-3.10Q23.31-3.39 23.31-3.38L23.31-3.38L23.31-3.38Q23.22-3.68 23.00-3.85L23.00-3.85L23.00-3.85Q22.77-4.01 22.44-4.01L22.44-4.01ZM27.73 0.07L27.73 0.07Q27.06 0.07 26.56-0.12L26.56-0.12L26.56-0.12Q26.06-0.31 25.79-0.65L25.79-0.65L25.79-0.65Q25.51-0.99 25.51-1.42L25.51-1.42L25.51-1.52L25.51-1.52Q25.51-1.57 25.55-1.60L25.55-1.60L25.55-1.60Q25.58-1.64 25.63-1.64L25.63-1.64L26.74-1.64L26.74-1.64Q26.79-1.64 26.83-1.60L26.83-1.60L26.83-1.60Q26.86-1.57 26.86-1.52L26.86-1.52L26.86-1.51L26.86-1.51Q26.86-1.29 27.11-1.14L27.11-1.14L27.11-1.14Q27.35-0.98 27.72-0.98L27.72-0.98L27.72-0.98Q28.06-0.98 28.27-1.11L28.27-1.11L28.27-1.11Q28.48-1.25 28.48-1.45L28.48-1.45L28.48-1.45Q28.48-1.63 28.30-1.72L28.30-1.72L28.30-1.72Q28.12-1.81 27.71-1.91L27.71-1.91L27.71-1.91Q27.24-2.03 26.97-2.14L26.97-2.14L26.97-2.14Q26.33-2.36 25.95-2.68L25.95-2.68L25.95-2.68Q25.57-3 25.57-3.60L25.57-3.60L25.57-3.60Q25.57-4.34 26.15-4.78L26.15-4.78L26.15-4.78Q26.72-5.21 27.67-5.21L27.67-5.21L27.67-5.21Q28.31-5.21 28.79-5.00L28.79-5.00L28.79-5.00Q29.27-4.80 29.54-4.43L29.54-4.43L29.54-4.43Q29.80-4.06 29.80-3.59L29.80-3.59L29.80-3.59Q29.80-3.54 29.77-3.50L29.77-3.50L29.77-3.50Q29.73-3.47 29.68-3.47L29.68-3.47L28.61-3.47L28.61-3.47Q28.56-3.47 28.53-3.50L28.53-3.50L28.53-3.50Q28.49-3.54 28.49-3.59L28.49-3.59L28.49-3.59Q28.49-3.81 28.27-3.96L28.27-3.96L28.27-3.96Q28.04-4.11 27.67-4.11L27.67-4.11L27.67-4.11Q27.34-4.11 27.13-3.99L27.13-3.99L27.13-3.99Q26.92-3.87 26.92-3.66L26.92-3.66L26.92-3.66Q26.92-3.46 27.13-3.36L27.13-3.36L27.13-3.36Q27.33-3.26 27.81-3.15L27.81-3.15L27.81-3.15Q27.92-3.12 28.06-3.08L28.06-3.08L28.06-3.08Q28.20-3.05 28.36-3L28.36-3L28.36-3Q29.07-2.79 29.48-2.46L29.48-2.46L29.48-2.46Q29.89-2.13 29.89-1.50L29.89-1.50L29.89-1.50Q29.89-0.76 29.31-0.35L29.31-0.35L29.31-0.35Q28.72 0.07 27.73 0.07L27.73 0.07ZM33.65-4.13L33.65-4.13Q33.65-4.08 33.62-4.04L33.62-4.04L33.62-4.04Q33.58-4.01 33.53-4.01L33.53-4.01L32.57-4.01L32.57-4.01Q32.52-4.01 32.52-3.96L32.52-3.96L32.52-1.84L32.52-1.84Q32.52-1.51 32.66-1.35L32.66-1.35L32.66-1.35Q32.79-1.19 33.09-1.19L33.09-1.19L33.42-1.19L33.42-1.19Q33.47-1.19 33.51-1.16L33.51-1.16L33.51-1.16Q33.54-1.12 33.54-1.07L33.54-1.07L33.54-0.12L33.54-0.12Q33.54-0.01 33.42 0.01L33.42 0.01L33.42 0.01Q33 0.03 32.82 0.03L32.82 0.03L32.82 0.03Q31.99 0.03 31.58-0.24L31.58-0.24L31.58-0.24Q31.17-0.52 31.16-1.28L31.16-1.28L31.16-3.96L31.16-3.96Q31.16-4.01 31.11-4.01L31.11-4.01L30.54-4.01L30.54-4.01Q30.49-4.01 30.46-4.04L30.46-4.04L30.46-4.04Q30.42-4.08 30.42-4.13L30.42-4.13L30.42-5.02L30.42-5.02Q30.42-5.07 30.46-5.11L30.46-5.11L30.46-5.11Q30.49-5.14 30.54-5.14L30.54-5.14L31.11-5.14L31.11-5.14Q31.16-5.14 31.16-5.19L31.16-5.19L31.16-6.38L31.16-6.38Q31.16-6.43 31.20-6.46L31.20-6.46L31.20-6.46Q31.23-6.50 31.28-6.50L31.28-6.50L32.40-6.50L32.40-6.50Q32.45-6.50 32.49-6.46L32.49-6.46L32.49-6.46Q32.52-6.43 32.52-6.38L32.52-6.38L32.52-5.19L32.52-5.19Q32.52-5.14 32.57-5.14L32.57-5.14L33.53-5.14L33.53-5.14Q33.58-5.14 33.62-5.11L33.62-5.11L33.62-5.11Q33.65-5.07 33.65-5.02L33.65-5.02L33.65-4.13Z"/><path fill="#fff" transform="translate(28.98, 75.4)" d="M2.22 0L2.22 0Q2.11 0 2.08-0.10L2.08-0.10L0.26-6.87L0.25-6.91L0.25-6.91Q0.25-7 0.36-7L0.36-7L1.34-7L1.34-7Q1.45-7 1.48-6.90L1.48-6.90L2.62-2.34L2.62-2.34Q2.63-2.31 2.65-2.31L2.65-2.31L2.65-2.31Q2.67-2.31 2.68-2.34L2.68-2.34L3.77-6.90L3.77-6.90Q3.80-7 3.90-7L3.90-7L4.86-7L4.86-7Q4.97-7 5-6.90L5-6.90L6.16-2.33L6.16-2.33Q6.17-2.30 6.19-2.30L6.19-2.30L6.19-2.30Q6.21-2.30 6.22-2.33L6.22-2.33L7.34-6.90L7.34-6.90Q7.37-7 7.48-7L7.48-7L8.41-7L8.41-7Q8.55-7 8.52-6.87L8.52-6.87L6.79-0.10L6.79-0.10Q6.76 0 6.65 0L6.65 0L5.72 0L5.72 0Q5.61 0 5.58-0.10L5.58-0.10L4.41-4.87L4.41-4.87Q4.40-4.90 4.38-4.91L4.38-4.91L4.38-4.91Q4.36-4.91 4.35-4.87L4.35-4.87L3.23-0.10L3.23-0.10Q3.20 0 3.10 0L3.10 0L2.22 0ZM9.63 0L9.63 0Q9.58 0 9.54-0.04L9.54-0.04L9.54-0.04Q9.51-0.07 9.51-0.12L9.51-0.12L9.51-6.88L9.51-6.88Q9.51-6.93 9.54-6.96L9.54-6.96L9.54-6.96Q9.58-7 9.63-7L9.63-7L10.55-7L10.55-7Q10.60-7 10.63-6.96L10.63-6.96L10.63-6.96Q10.67-6.93 10.67-6.88L10.67-6.88L10.67-0.12L10.67-0.12Q10.67-0.07 10.63-0.04L10.63-0.04L10.63-0.04Q10.60 0 10.55 0L10.55 0L9.63 0ZM16.20-6.88L16.20-6.88Q16.20-6.93 16.23-6.96L16.23-6.96L16.23-6.96Q16.27-7 16.32-7L16.32-7L17.24-7L17.24-7Q17.29-7 17.32-6.96L17.32-6.96L17.32-6.96Q17.36-6.93 17.36-6.88L17.36-6.88L17.36-0.12L17.36-0.12Q17.36-0.07 17.32-0.04L17.32-0.04L17.32-0.04Q17.29 0 17.24 0L17.24 0L16.35 0L16.35 0Q16.25 0 16.21-0.08L16.21-0.08L13.33-4.80L13.33-4.80Q13.31-4.83 13.29-4.83L13.29-4.83L13.29-4.83Q13.27-4.82 13.27-4.78L13.27-4.78L13.29-0.12L13.29-0.12Q13.29-0.07 13.25-0.04L13.25-0.04L13.25-0.04Q13.22 0 13.17 0L13.17 0L12.25 0L12.25 0Q12.20 0 12.16-0.04L12.16-0.04L12.16-0.04Q12.13-0.07 12.13-0.12L12.13-0.12L12.13-6.88L12.13-6.88Q12.13-6.93 12.16-6.96L12.16-6.96L12.16-6.96Q12.20-7 12.25-7L12.25-7L13.14-7L13.14-7Q13.24-7 13.28-6.92L13.28-6.92L16.15-2.20L16.15-2.20Q16.17-2.17 16.19-2.18L16.19-2.18L16.19-2.18Q16.21-2.18 16.21-2.22L16.21-2.22L16.20-6.88ZM23.42-7L23.42-7Q23.47-7 23.50-6.96L23.50-6.96L23.50-6.96Q23.54-6.93 23.54-6.88L23.54-6.88L23.54-6.11L23.54-6.11Q23.54-6.06 23.50-6.03L23.50-6.03L23.50-6.03Q23.47-5.99 23.42-5.99L23.42-5.99L21.58-5.99L21.58-5.99Q21.53-5.99 21.53-5.94L21.53-5.94L21.53-0.12L21.53-0.12Q21.53-0.07 21.50-0.04L21.50-0.04L21.50-0.04Q21.46 0 21.41 0L21.41 0L20.49 0L20.49 0Q20.44 0 20.41-0.04L20.41-0.04L20.41-0.04Q20.37-0.07 20.37-0.12L20.37-0.12L20.37-5.94L20.37-5.94Q20.37-5.99 20.32-5.99L20.32-5.99L18.55-5.99L18.55-5.99Q18.50-5.99 18.46-6.03L18.46-6.03L18.46-6.03Q18.43-6.06 18.43-6.11L18.43-6.11L18.43-6.88L18.43-6.88Q18.43-6.93 18.46-6.96L18.46-6.96L18.46-6.96Q18.50-7 18.55-7L18.55-7L23.42-7ZM29.35-6.12L29.35-6.12Q29.35-6.07 29.31-6.04L29.31-6.04L29.31-6.04Q29.28-6 29.23-6L29.23-6L25.82-6L25.82-6Q25.77-6 25.77-5.95L25.77-5.95L25.77-4.08L25.77-4.08Q25.77-4.03 25.82-4.03L25.82-4.03L28.11-4.03L28.11-4.03Q28.16-4.03 28.20-4.00L28.20-4.00L28.20-4.00Q28.23-3.96 28.23-3.91L28.23-3.91L28.23-3.15L28.23-3.15Q28.23-3.10 28.20-3.06L28.20-3.06L28.20-3.06Q28.16-3.03 28.11-3.03L28.11-3.03L25.82-3.03L25.82-3.03Q25.77-3.03 25.77-2.98L25.77-2.98L25.77-1.05L25.77-1.05Q25.77-1 25.82-1L25.82-1L29.23-1L29.23-1Q29.28-1 29.31-0.96L29.31-0.96L29.31-0.96Q29.35-0.93 29.35-0.88L29.35-0.88L29.35-0.12L29.35-0.12Q29.35-0.07 29.31-0.04L29.31-0.04L29.31-0.04Q29.28 0 29.23 0L29.23 0L24.73 0L24.73 0Q24.68 0 24.64-0.04L24.64-0.04L24.64-0.04Q24.61-0.07 24.61-0.12L24.61-0.12L24.61-6.88L24.61-6.88Q24.61-6.93 24.64-6.96L24.64-6.96L24.64-6.96Q24.68-7 24.73-7L24.73-7L29.23-7L29.23-7Q29.28-7 29.31-6.96L29.31-6.96L29.31-6.96Q29.35-6.93 29.35-6.88L29.35-6.88L29.35-6.12ZM34.46 0L34.46 0Q34.36 0 34.32-0.09L34.32-0.09L33-2.97L33-2.97Q32.98-3.01 32.94-3.01L32.94-3.01L31.74-3.01L31.74-3.01Q31.69-3.01 31.69-2.96L31.69-2.96L31.69-0.12L31.69-0.12Q31.69-0.07 31.65-0.04L31.65-0.04L31.65-0.04Q31.62 0 31.57 0L31.57 0L30.65 0L30.65 0Q30.60 0 30.56-0.04L30.56-0.04L30.56-0.04Q30.53-0.07 30.53-0.12L30.53-0.12L30.53-6.88L30.53-6.88Q30.53-6.93 30.56-6.96L30.56-6.96L30.56-6.96Q30.60-7 30.65-7L30.65-7L33.40-7L33.40-7Q34.01-7 34.48-6.75L34.48-6.75L34.48-6.75Q34.95-6.49 35.21-6.03L35.21-6.03L35.21-6.03Q35.47-5.56 35.47-4.96L35.47-4.96L35.47-4.96Q35.47-4.27 35.11-3.79L35.11-3.79L35.11-3.79Q34.76-3.30 34.13-3.11L34.13-3.11L34.13-3.11Q34.11-3.11 34.10-3.09L34.10-3.09L34.10-3.09Q34.09-3.07 34.10-3.05L34.10-3.05L35.51-0.14L35.51-0.14Q35.53-0.10 35.53-0.08L35.53-0.08L35.53-0.08Q35.53 0 35.42 0L35.42 0L34.46 0ZM31.74-6L31.74-6Q31.69-6 31.69-5.95L31.69-5.95L31.69-3.96L31.69-3.96Q31.69-3.91 31.74-3.91L31.74-3.91L33.24-3.91L33.24-3.91Q33.72-3.91 34.02-4.20L34.02-4.20L34.02-4.20Q34.31-4.48 34.31-4.95L34.31-4.95L34.31-4.95Q34.31-5.42 34.02-5.71L34.02-5.71L34.02-5.71Q33.72-6 33.24-6L33.24-6L31.74-6Z"/><path fill="#252530" transform="translate(30.36, 95.3)" d="M3.38-1.84L3.38-1.84Q3.35-1.81 3.36-1.78L3.36-1.78L3.36-1.78Q3.38-1.75 3.42-1.75L3.42-1.75L7.35-1.75L7.35-1.75Q7.42-1.75 7.47-1.70L7.47-1.70L7.47-1.70Q7.53-1.65 7.53-1.58L7.53-1.58L7.53-0.17L7.53-0.17Q7.53-0.10 7.47-0.05L7.47-0.05L7.47-0.05Q7.42 0 7.35 0L7.35 0L0.83 0L0.83 0Q0.75 0 0.70-0.05L0.70-0.05L0.70-0.05Q0.65-0.10 0.65-0.17L0.65-0.17L0.65-1.51L0.65-1.51Q0.65-1.64 0.74-1.73L0.74-1.73L0.74-1.73Q1.45-2.42 2.19-3.24L2.19-3.24L2.19-3.24Q2.93-4.06 3.12-4.26L3.12-4.26L3.12-4.26Q3.52-4.74 3.94-5.18L3.94-5.18L3.94-5.18Q5.26-6.64 5.26-7.35L5.26-7.35L5.26-7.35Q5.26-7.86 4.90-8.19L4.90-8.19L4.90-8.19Q4.54-8.51 3.96-8.51L3.96-8.51L3.96-8.51Q3.38-8.51 3.02-8.19L3.02-8.19L3.02-8.19Q2.65-7.86 2.65-7.32L2.65-7.32L2.65-6.96L2.65-6.96Q2.65-6.89 2.60-6.84L2.60-6.84L2.60-6.84Q2.55-6.79 2.48-6.79L2.48-6.79L0.77-6.79L0.77-6.79Q0.70-6.79 0.65-6.84L0.65-6.84L0.65-6.84Q0.59-6.89 0.59-6.96L0.59-6.96L0.59-7.64L0.59-7.64Q0.64-8.42 1.09-9.03L1.09-9.03L1.09-9.03Q1.54-9.63 2.28-9.95L2.28-9.95L2.28-9.95Q3.03-10.27 3.96-10.27L3.96-10.27L3.96-10.27Q4.99-10.27 5.75-9.88L5.75-9.88L5.75-9.88Q6.51-9.50 6.92-8.85L6.92-8.85L6.92-8.85Q7.34-8.19 7.34-7.40L7.34-7.40L7.34-7.40Q7.34-6.79 7.03-6.15L7.03-6.15L7.03-6.15Q6.73-5.51 6.12-4.77L6.12-4.77L6.12-4.77Q5.67-4.21 5.15-3.65L5.15-3.65L5.15-3.65Q4.63-3.10 3.60-2.06L3.60-2.06L3.38-1.84ZM12.24 0.16L12.24 0.16Q10.64 0.16 9.72-0.73L9.72-0.73L9.72-0.73Q8.79-1.62 8.79-3.16L8.79-3.16L8.79-6.99L8.79-6.99Q8.79-8.50 9.72-9.38L9.72-9.38L9.72-9.38Q10.64-10.27 12.24-10.27L12.24-10.27L12.24-10.27Q13.83-10.27 14.77-9.38L14.77-9.38L14.77-9.38Q15.70-8.50 15.70-6.99L15.70-6.99L15.70-3.16L15.70-3.16Q15.70-1.62 14.77-0.73L14.77-0.73L14.77-0.73Q13.83 0.16 12.24 0.16L12.24 0.16ZM12.24-1.59L12.24-1.59Q12.89-1.59 13.27-1.99L13.27-1.99L13.27-1.99Q13.66-2.39 13.66-3.06L13.66-3.06L13.66-7.05L13.66-7.05Q13.66-7.71 13.27-8.11L13.27-8.11L13.27-8.11Q12.89-8.51 12.24-8.51L12.24-8.51L12.24-8.51Q11.60-8.51 11.22-8.11L11.22-8.11L11.22-8.11Q10.83-7.71 10.83-7.05L10.83-7.05L10.83-3.06L10.83-3.06Q10.83-2.39 11.22-1.99L11.22-1.99L11.22-1.99Q11.60-1.59 12.24-1.59L12.24-1.59ZM19.76-1.84L19.76-1.84Q19.73-1.81 19.75-1.78L19.75-1.78L19.75-1.78Q19.76-1.75 19.81-1.75L19.81-1.75L23.74-1.75L23.74-1.75Q23.81-1.75 23.86-1.70L23.86-1.70L23.86-1.70Q23.91-1.65 23.91-1.58L23.91-1.58L23.91-0.17L23.91-0.17Q23.91-0.10 23.86-0.05L23.86-0.05L23.86-0.05Q23.81 0 23.74 0L23.74 0L17.21 0L17.21 0Q17.14 0 17.09-0.05L17.09-0.05L17.09-0.05Q17.04-0.10 17.04-0.17L17.04-0.17L17.04-1.51L17.04-1.51Q17.04-1.64 17.12-1.73L17.12-1.73L17.12-1.73Q17.84-2.42 18.57-3.24L18.57-3.24L18.57-3.24Q19.31-4.06 19.50-4.26L19.50-4.26L19.50-4.26Q19.91-4.74 20.33-5.18L20.33-5.18L20.33-5.18Q21.65-6.64 21.65-7.35L21.65-7.35L21.65-7.35Q21.65-7.86 21.29-8.19L21.29-8.19L21.29-8.19Q20.92-8.51 20.34-8.51L20.34-8.51L20.34-8.51Q19.76-8.51 19.40-8.19L19.40-8.19L19.40-8.19Q19.04-7.86 19.04-7.32L19.04-7.32L19.04-6.96L19.04-6.96Q19.04-6.89 18.99-6.84L18.99-6.84L18.99-6.84Q18.94-6.79 18.86-6.79L18.86-6.79L17.15-6.79L17.15-6.79Q17.08-6.79 17.03-6.84L17.03-6.84L17.03-6.84Q16.98-6.89 16.98-6.96L16.98-6.96L16.98-7.64L16.98-7.64Q17.02-8.42 17.47-9.03L17.47-9.03L17.47-9.03Q17.92-9.63 18.67-9.95L18.67-9.95L18.67-9.95Q19.42-10.27 20.34-10.27L20.34-10.27L20.34-10.27Q21.37-10.27 22.13-9.88L22.13-9.88L22.13-9.88Q22.90-9.50 23.31-8.85L23.31-8.85L23.31-8.85Q23.72-8.19 23.72-7.40L23.72-7.40L23.72-7.40Q23.72-6.79 23.42-6.15L23.42-6.15L23.42-6.15Q23.11-5.51 22.50-4.77L22.50-4.77L22.50-4.77Q22.05-4.21 21.53-3.65L21.53-3.65L21.53-3.65Q21.01-3.10 19.98-2.06L19.98-2.06L19.76-1.84ZM28.62 0.16L28.62 0.16Q27.03 0.16 26.10-0.73L26.10-0.73L26.10-0.73Q25.17-1.62 25.17-3.16L25.17-3.16L25.17-6.99L25.17-6.99Q25.17-8.50 26.10-9.38L26.10-9.38L26.10-9.38Q27.03-10.27 28.62-10.27L28.62-10.27L28.62-10.27Q30.22-10.27 31.15-9.38L31.15-9.38L31.15-9.38Q32.09-8.50 32.09-6.99L32.09-6.99L32.09-3.16L32.09-3.16Q32.09-1.62 31.15-0.73L31.15-0.73L31.15-0.73Q30.22 0.16 28.62 0.16L28.62 0.16ZM28.62-1.59L28.62-1.59Q29.28-1.59 29.66-1.99L29.66-1.99L29.66-1.99Q30.04-2.39 30.04-3.06L30.04-3.06L30.04-7.05L30.04-7.05Q30.04-7.71 29.66-8.11L29.66-8.11L29.66-8.11Q29.28-8.51 28.62-8.51L28.62-8.51L28.62-8.51Q27.99-8.51 27.60-8.11L27.60-8.11L27.60-8.11Q27.22-7.71 27.22-7.05L27.22-7.05L27.22-3.06L27.22-3.06Q27.22-2.39 27.60-1.99L27.60-1.99L27.60-1.99Q27.99-1.59 28.62-1.59L28.62-1.59Z"/></g>
</svg>
