<svg width="25" height="40" viewBox="0 0 25 40" fill="none" xmlns="http://www.w3.org/2000/svg">
<path d="M12.3322 24.663C19.143 24.663 24.6643 19.142 24.6643 12.3315C24.6643 5.52101 19.143 0 12.3322 0C5.5213 0 0 5.52101 0 12.3315C0 19.142 5.5213 24.663 12.3322 24.663Z" fill="#FF6333"/>
<path d="M1.39941 18.0518H23.1396L14.2401 37.7567C13.4773 39.5365 10.9346 39.5365 10.1718 37.7567L1.39941 18.0518Z" fill="#FF6333"/>
<path d="M12.3314 20.7214C16.9656 20.7214 20.7223 16.9648 20.7223 12.3309C20.7223 7.69698 16.9656 3.94043 12.3314 3.94043C7.69719 3.94043 3.94043 7.69698 3.94043 12.3309C3.94043 16.9648 7.69719 20.7214 12.3314 20.7214Z" fill="#001A33"/>
</svg>
