<svg xmlns="http://www.w3.org/2000/svg" xmlns:xlink="http://www.w3.org/1999/xlink" viewBox="0 0 94 122">
  <g id="container">
    <path fill="#fff" d="M8.1 89.9L47.6 110l38-20.1V11.3H8.1z"/>
    <path fill="#f2f3f2" d="M86.4 11.6L7.3 91.3l41 20.3 38.1-19.5z"/>
    <path d="M5.5 37.5v54.1l1.4.7 39.5 20.1 1.2.6 1.2-.6 38.1-20.1 1.4-.7V8.7H5.5v28.8zm2.6 52.6V11.3h77.6v78.8l-38.1 20.1L8.1 90.1z" fill="#dcdedc"/>
    <path id="logo" d="M46.9 12.6c.4 0 .8 0 1.2.1L46.9 15c-1.8-.1-3.4 1.3-3.5 3.1-.1 1.8 1.3 3.4 3.1 3.5h.4c.8 0 1.6-.3 2.2-.8l1.3 2.2c-1 .7-2.2 1.1-3.5 1.1-3.2.1-5.9-2.3-6-5.5-.1-3.2 2.3-5.9 5.5-6h.5zm4.1 4.9l1.5 2.5-1.5 2.4-1.4-2.4h-2.9l1.5-2.5H51zm-2.4-.9c0-.4.1-.8.3-1.1.2-.3.6-.6.9-.8l.2-.1c.4-.2.5-.3.5-.5s-.3-.4-.5-.4c-.4 0-.7.2-.9.6l-.5-.5c.1-.2.3-.4.5-.6.3-.2.6-.2.9-.2.3 0 .7.1.9.3.2.2.4.5.4.8 0 .5-.3.9-.9 1.1l-.3.2c-.3.2-.5.3-.6.6h1.8v.7l-2.7-.1zm-1.7 12.5l9.5-5.4v-15H37.3v14.9l9.6 5.5z" fill="#ff492c"/>
    <path id="banner" d="M90.2 64.5H3.6l-3.2 7 3.2 7h86.6l3.1-7z" fill="#ff492c"/>
  <path fill="#252530" transform="translate(17.74, 60)" d="M1.31 0L1.31 0Q1.22 0 1.16-0.06L1.16-0.06L1.16-0.06Q1.10-0.13 1.10-0.22L1.10-0.22L1.10-12.38L1.10-12.38Q1.10-12.47 1.16-12.54L1.16-12.54L1.16-12.54Q1.22-12.60 1.31-12.60L1.31-12.60L3.42-12.60L3.42-12.60Q3.51-12.60 3.57-12.54L3.57-12.54L3.57-12.54Q3.64-12.47 3.64-12.38L3.64-12.38L3.64-2.27L3.64-2.27Q3.64-2.18 3.73-2.18L3.73-2.18L9.61-2.18L9.61-2.18Q9.70-2.18 9.77-2.12L9.77-2.12L9.77-2.12Q9.83-2.05 9.83-1.96L9.83-1.96L9.83-0.22L9.83-0.22Q9.83-0.13 9.77-0.06L9.77-0.06L9.77-0.06Q9.70 0 9.61 0L9.61 0L1.31 0ZM19.42-5.58L19.42-5.58Q19.53-4.90 19.49-4.05L19.49-4.05L19.49-4.05Q19.48-3.83 19.26-3.83L19.26-3.83L13.70-3.83L13.70-3.83Q13.59-3.83 13.63-3.74L13.63-3.74L13.63-3.74Q13.68-3.38 13.82-3.02L13.82-3.02L13.82-3.02Q14.29-2.02 15.73-2.02L15.73-2.02L15.73-2.02Q16.88-2.03 17.55-2.95L17.55-2.95L17.55-2.95Q17.62-3.06 17.71-3.06L17.71-3.06L17.71-3.06Q17.77-3.06 17.84-2.99L17.84-2.99L19.13-1.71L19.13-1.71Q19.22-1.62 19.22-1.55L19.22-1.55L19.22-1.55Q19.22-1.51 19.15-1.40L19.15-1.40L19.15-1.40Q18.56-0.67 17.62-0.26L17.62-0.26L17.62-0.26Q16.69 0.14 15.57 0.14L15.57 0.14L15.57 0.14Q14.02 0.14 12.95-0.56L12.95-0.56L12.95-0.56Q11.88-1.26 11.41-2.52L11.41-2.52L11.41-2.52Q11.03-3.42 11.03-4.88L11.03-4.88L11.03-4.88Q11.03-5.87 11.30-6.62L11.30-6.62L11.30-6.62Q11.72-7.90 12.75-8.66L12.75-8.66L12.75-8.66Q13.79-9.41 15.21-9.41L15.21-9.41L15.21-9.41Q17.01-9.41 18.10-8.37L18.10-8.37L18.10-8.37Q19.19-7.33 19.42-5.58L19.42-5.58ZM15.23-7.22L15.23-7.22Q14.09-7.22 13.73-6.16L13.73-6.16L13.73-6.16Q13.66-5.92 13.61-5.58L13.61-5.58L13.61-5.58Q13.61-5.49 13.70-5.49L13.70-5.49L16.81-5.49L16.81-5.49Q16.92-5.49 16.88-5.58L16.88-5.58L16.88-5.58Q16.79-6.10 16.79-6.08L16.79-6.08L16.79-6.08Q16.63-6.62 16.23-6.92L16.23-6.92L16.23-6.92Q15.82-7.22 15.23-7.22L15.23-7.22ZM24.75-9.40L24.75-9.40Q25.92-9.40 26.84-8.99L26.84-8.99L26.84-8.99Q27.76-8.59 28.27-7.88L28.27-7.88L28.27-7.88Q28.78-7.18 28.78-6.32L28.78-6.32L28.78-0.22L28.78-0.22Q28.78-0.13 28.72-0.06L28.72-0.06L28.72-0.06Q28.66 0 28.57 0L28.57 0L26.46 0L26.46 0Q26.37 0 26.31-0.06L26.31-0.06L26.31-0.06Q26.24-0.13 26.24-0.22L26.24-0.22L26.24-0.81L26.24-0.81Q26.24-0.86 26.21-0.88L26.21-0.88L26.21-0.88Q26.17-0.90 26.14-0.85L26.14-0.85L26.14-0.85Q25.38 0.14 23.71 0.14L23.71 0.14L23.71 0.14Q22.30 0.14 21.44-0.54L21.44-0.54L21.44-0.54Q20.57-1.22 20.57-2.56L20.57-2.56L20.57-2.56Q20.57-3.94 21.55-4.71L21.55-4.71L21.55-4.71Q22.52-5.47 24.32-5.47L24.32-5.47L26.15-5.47L26.15-5.47Q26.24-5.47 26.24-5.56L26.24-5.56L26.24-5.96L26.24-5.96Q26.24-6.55 25.88-6.89L25.88-6.89L25.88-6.89Q25.52-7.22 24.80-7.22L24.80-7.22L24.80-7.22Q24.25-7.22 23.88-7.02L23.88-7.02L23.88-7.02Q23.51-6.82 23.40-6.46L23.40-6.46L23.40-6.46Q23.35-6.26 23.17-6.28L23.17-6.28L20.99-6.57L20.99-6.57Q20.77-6.61 20.79-6.73L20.79-6.73L20.79-6.73Q20.86-7.49 21.39-8.10L21.39-8.10L21.39-8.10Q21.92-8.71 22.80-9.05L22.80-9.05L22.80-9.05Q23.67-9.40 24.75-9.40L24.75-9.40ZM24.39-1.75L24.39-1.75Q25.16-1.75 25.70-2.16L25.70-2.16L25.70-2.16Q26.24-2.57 26.24-3.22L26.24-3.22L26.24-3.87L26.24-3.87Q26.24-3.96 26.15-3.96L26.15-3.96L24.86-3.96L24.86-3.96Q24.05-3.96 23.59-3.65L23.59-3.65L23.59-3.65Q23.13-3.35 23.13-2.79L23.13-2.79L23.13-2.79Q23.13-2.30 23.47-2.03L23.47-2.03L23.47-2.03Q23.81-1.75 24.39-1.75L24.39-1.75ZM36.31-12.38L36.31-12.38Q36.31-12.47 36.37-12.54L36.37-12.54L36.37-12.54Q36.43-12.60 36.52-12.60L36.52-12.60L38.63-12.60L38.63-12.60Q38.72-12.60 38.78-12.54L38.78-12.54L38.78-12.54Q38.84-12.47 38.84-12.38L38.84-12.38L38.84-0.22L38.84-0.22Q38.84-0.13 38.78-0.06L38.78-0.06L38.78-0.06Q38.72 0 38.63 0L38.63 0L36.52 0L36.52 0Q36.43 0 36.37-0.06L36.37-0.06L36.37-0.06Q36.31-0.13 36.31-0.22L36.31-0.22L36.31-0.81L36.31-0.81Q36.31-0.86 36.27-0.87L36.27-0.87L36.27-0.87Q36.23-0.88 36.20-0.85L36.20-0.85L36.20-0.85Q35.44 0.14 34.13 0.14L34.13 0.14L34.13 0.14Q32.87 0.14 31.96-0.56L31.96-0.56L31.96-0.56Q31.05-1.26 30.65-2.48L30.65-2.48L30.65-2.48Q30.35-3.42 30.35-4.66L30.35-4.66L30.35-4.66Q30.35-5.94 30.67-6.89L30.67-6.89L30.67-6.89Q31.09-8.05 31.98-8.72L31.98-8.72L31.98-8.72Q32.87-9.40 34.18-9.40L34.18-9.40L34.18-9.40Q35.48-9.40 36.20-8.50L36.20-8.50L36.20-8.50Q36.23-8.44 36.27-8.46L36.27-8.46L36.27-8.46Q36.31-8.48 36.31-8.53L36.31-8.53L36.31-12.38ZM35.93-2.81L35.93-2.81Q36.29-3.47 36.29-4.63L36.29-4.63L36.29-4.63Q36.29-5.83 35.89-6.52L35.89-6.52L35.89-6.52Q35.48-7.22 34.69-7.22L34.69-7.22L34.69-7.22Q33.84-7.22 33.41-6.52L33.41-6.52L33.41-6.52Q32.96-5.81 32.96-4.61L32.96-4.61L32.96-4.61Q32.96-3.53 33.34-2.81L33.34-2.81L33.34-2.81Q33.79-2.03 34.67-2.03L34.67-2.03L34.67-2.03Q35.48-2.03 35.93-2.81L35.93-2.81ZM48.94-5.58L48.94-5.58Q49.05-4.90 49.01-4.05L49.01-4.05L49.01-4.05Q49.00-3.83 48.78-3.83L48.78-3.83L43.22-3.83L43.22-3.83Q43.11-3.83 43.15-3.74L43.15-3.74L43.15-3.74Q43.20-3.38 43.34-3.02L43.34-3.02L43.34-3.02Q43.81-2.02 45.25-2.02L45.25-2.02L45.25-2.02Q46.40-2.03 47.07-2.95L47.07-2.95L47.07-2.95Q47.14-3.06 47.23-3.06L47.23-3.06L47.23-3.06Q47.29-3.06 47.36-2.99L47.36-2.99L48.65-1.71L48.65-1.71Q48.74-1.62 48.74-1.55L48.74-1.55L48.74-1.55Q48.74-1.51 48.67-1.40L48.67-1.40L48.67-1.40Q48.08-0.67 47.14-0.26L47.14-0.26L47.14-0.26Q46.21 0.14 45.09 0.14L45.09 0.14L45.09 0.14Q43.54 0.14 42.47-0.56L42.47-0.56L42.47-0.56Q41.40-1.26 40.93-2.52L40.93-2.52L40.93-2.52Q40.55-3.42 40.55-4.88L40.55-4.88L40.55-4.88Q40.55-5.87 40.82-6.62L40.82-6.62L40.82-6.62Q41.24-7.90 42.27-8.66L42.27-8.66L42.27-8.66Q43.31-9.41 44.73-9.41L44.73-9.41L44.73-9.41Q46.53-9.41 47.62-8.37L47.62-8.37L47.62-8.37Q48.71-7.33 48.94-5.58L48.94-5.58ZM44.75-7.22L44.75-7.22Q43.61-7.22 43.25-6.16L43.25-6.16L43.25-6.16Q43.18-5.92 43.13-5.58L43.13-5.58L43.13-5.58Q43.13-5.49 43.22-5.49L43.22-5.49L46.33-5.49L46.33-5.49Q46.44-5.49 46.40-5.58L46.40-5.58L46.40-5.58Q46.31-6.10 46.31-6.08L46.31-6.08L46.31-6.08Q46.15-6.62 45.75-6.92L45.75-6.92L45.75-6.92Q45.34-7.22 44.75-7.22L44.75-7.22ZM55.19-9.38L55.19-9.38Q55.84-9.38 56.21-9.13L56.21-9.13L56.21-9.13Q56.36-9.05 56.32-8.86L56.32-8.86L55.94-6.80L55.94-6.80Q55.93-6.59 55.69-6.68L55.69-6.68L55.69-6.68Q55.42-6.77 55.06-6.77L55.06-6.77L55.06-6.77Q54.92-6.77 54.67-6.73L54.67-6.73L54.67-6.73Q54.02-6.68 53.57-6.26L53.57-6.26L53.57-6.26Q53.12-5.83 53.12-5.13L53.12-5.13L53.12-0.22L53.12-0.22Q53.12-0.13 53.06-0.06L53.06-0.06L53.06-0.06Q52.99 0 52.90 0L52.90 0L50.80 0L50.80 0Q50.71 0 50.64-0.06L50.64-0.06L50.64-0.06Q50.58-0.13 50.58-0.22L50.58-0.22L50.58-9.04L50.58-9.04Q50.58-9.13 50.64-9.19L50.64-9.19L50.64-9.19Q50.71-9.25 50.80-9.25L50.80-9.25L52.90-9.25L52.90-9.25Q52.99-9.25 53.06-9.19L53.06-9.19L53.06-9.19Q53.12-9.13 53.12-9.04L53.12-9.04L53.12-8.35L53.12-8.35Q53.12-8.30 53.15-8.28L53.15-8.28L53.15-8.28Q53.19-8.26 53.21-8.30L53.21-8.30L53.21-8.30Q53.95-9.38 55.19-9.38L55.19-9.38Z"/><path fill="#fff" transform="translate(28.98, 75.4)" d="M2.22 0L2.22 0Q2.11 0 2.08-0.10L2.08-0.10L0.26-6.87L0.25-6.91L0.25-6.91Q0.25-7 0.36-7L0.36-7L1.34-7L1.34-7Q1.45-7 1.48-6.90L1.48-6.90L2.62-2.34L2.62-2.34Q2.63-2.31 2.65-2.31L2.65-2.31L2.65-2.31Q2.67-2.31 2.68-2.34L2.68-2.34L3.77-6.90L3.77-6.90Q3.80-7 3.90-7L3.90-7L4.86-7L4.86-7Q4.97-7 5-6.90L5-6.90L6.16-2.33L6.16-2.33Q6.17-2.30 6.19-2.30L6.19-2.30L6.19-2.30Q6.21-2.30 6.22-2.33L6.22-2.33L7.34-6.90L7.34-6.90Q7.37-7 7.48-7L7.48-7L8.41-7L8.41-7Q8.55-7 8.52-6.87L8.52-6.87L6.79-0.10L6.79-0.10Q6.76 0 6.65 0L6.65 0L5.72 0L5.72 0Q5.61 0 5.58-0.10L5.58-0.10L4.41-4.87L4.41-4.87Q4.40-4.90 4.38-4.91L4.38-4.91L4.38-4.91Q4.36-4.91 4.35-4.87L4.35-4.87L3.23-0.10L3.23-0.10Q3.20 0 3.10 0L3.10 0L2.22 0ZM9.63 0L9.63 0Q9.58 0 9.54-0.04L9.54-0.04L9.54-0.04Q9.51-0.07 9.51-0.12L9.51-0.12L9.51-6.88L9.51-6.88Q9.51-6.93 9.54-6.96L9.54-6.96L9.54-6.96Q9.58-7 9.63-7L9.63-7L10.55-7L10.55-7Q10.60-7 10.63-6.96L10.63-6.96L10.63-6.96Q10.67-6.93 10.67-6.88L10.67-6.88L10.67-0.12L10.67-0.12Q10.67-0.07 10.63-0.04L10.63-0.04L10.63-0.04Q10.60 0 10.55 0L10.55 0L9.63 0ZM16.20-6.88L16.20-6.88Q16.20-6.93 16.23-6.96L16.23-6.96L16.23-6.96Q16.27-7 16.32-7L16.32-7L17.24-7L17.24-7Q17.29-7 17.32-6.96L17.32-6.96L17.32-6.96Q17.36-6.93 17.36-6.88L17.36-6.88L17.36-0.12L17.36-0.12Q17.36-0.07 17.32-0.04L17.32-0.04L17.32-0.04Q17.29 0 17.24 0L17.24 0L16.35 0L16.35 0Q16.25 0 16.21-0.08L16.21-0.08L13.33-4.80L13.33-4.80Q13.31-4.83 13.29-4.83L13.29-4.83L13.29-4.83Q13.27-4.82 13.27-4.78L13.27-4.78L13.29-0.12L13.29-0.12Q13.29-0.07 13.25-0.04L13.25-0.04L13.25-0.04Q13.22 0 13.17 0L13.17 0L12.25 0L12.25 0Q12.20 0 12.16-0.04L12.16-0.04L12.16-0.04Q12.13-0.07 12.13-0.12L12.13-0.12L12.13-6.88L12.13-6.88Q12.13-6.93 12.16-6.96L12.16-6.96L12.16-6.96Q12.20-7 12.25-7L12.25-7L13.14-7L13.14-7Q13.24-7 13.28-6.92L13.28-6.92L16.15-2.20L16.15-2.20Q16.17-2.17 16.19-2.18L16.19-2.18L16.19-2.18Q16.21-2.18 16.21-2.22L16.21-2.22L16.20-6.88ZM23.42-7L23.42-7Q23.47-7 23.50-6.96L23.50-6.96L23.50-6.96Q23.54-6.93 23.54-6.88L23.54-6.88L23.54-6.11L23.54-6.11Q23.54-6.06 23.50-6.03L23.50-6.03L23.50-6.03Q23.47-5.99 23.42-5.99L23.42-5.99L21.58-5.99L21.58-5.99Q21.53-5.99 21.53-5.94L21.53-5.94L21.53-0.12L21.53-0.12Q21.53-0.07 21.50-0.04L21.50-0.04L21.50-0.04Q21.46 0 21.41 0L21.41 0L20.49 0L20.49 0Q20.44 0 20.41-0.04L20.41-0.04L20.41-0.04Q20.37-0.07 20.37-0.12L20.37-0.12L20.37-5.94L20.37-5.94Q20.37-5.99 20.32-5.99L20.32-5.99L18.55-5.99L18.55-5.99Q18.50-5.99 18.46-6.03L18.46-6.03L18.46-6.03Q18.43-6.06 18.43-6.11L18.43-6.11L18.43-6.88L18.43-6.88Q18.43-6.93 18.46-6.96L18.46-6.96L18.46-6.96Q18.50-7 18.55-7L18.55-7L23.42-7ZM29.35-6.12L29.35-6.12Q29.35-6.07 29.31-6.04L29.31-6.04L29.31-6.04Q29.28-6 29.23-6L29.23-6L25.82-6L25.82-6Q25.77-6 25.77-5.95L25.77-5.95L25.77-4.08L25.77-4.08Q25.77-4.03 25.82-4.03L25.82-4.03L28.11-4.03L28.11-4.03Q28.16-4.03 28.20-4.00L28.20-4.00L28.20-4.00Q28.23-3.96 28.23-3.91L28.23-3.91L28.23-3.15L28.23-3.15Q28.23-3.10 28.20-3.06L28.20-3.06L28.20-3.06Q28.16-3.03 28.11-3.03L28.11-3.03L25.82-3.03L25.82-3.03Q25.77-3.03 25.77-2.98L25.77-2.98L25.77-1.05L25.77-1.05Q25.77-1 25.82-1L25.82-1L29.23-1L29.23-1Q29.28-1 29.31-0.96L29.31-0.96L29.31-0.96Q29.35-0.93 29.35-0.88L29.35-0.88L29.35-0.12L29.35-0.12Q29.35-0.07 29.31-0.04L29.31-0.04L29.31-0.04Q29.28 0 29.23 0L29.23 0L24.73 0L24.73 0Q24.68 0 24.64-0.04L24.64-0.04L24.64-0.04Q24.61-0.07 24.61-0.12L24.61-0.12L24.61-6.88L24.61-6.88Q24.61-6.93 24.64-6.96L24.64-6.96L24.64-6.96Q24.68-7 24.73-7L24.73-7L29.23-7L29.23-7Q29.28-7 29.31-6.96L29.31-6.96L29.31-6.96Q29.35-6.93 29.35-6.88L29.35-6.88L29.35-6.12ZM34.46 0L34.46 0Q34.36 0 34.32-0.09L34.32-0.09L33-2.97L33-2.97Q32.98-3.01 32.94-3.01L32.94-3.01L31.74-3.01L31.74-3.01Q31.69-3.01 31.69-2.96L31.69-2.96L31.69-0.12L31.69-0.12Q31.69-0.07 31.65-0.04L31.65-0.04L31.65-0.04Q31.62 0 31.57 0L31.57 0L30.65 0L30.65 0Q30.60 0 30.56-0.04L30.56-0.04L30.56-0.04Q30.53-0.07 30.53-0.12L30.53-0.12L30.53-6.88L30.53-6.88Q30.53-6.93 30.56-6.96L30.56-6.96L30.56-6.96Q30.60-7 30.65-7L30.65-7L33.40-7L33.40-7Q34.01-7 34.48-6.75L34.48-6.75L34.48-6.75Q34.95-6.49 35.21-6.03L35.21-6.03L35.21-6.03Q35.47-5.56 35.47-4.96L35.47-4.96L35.47-4.96Q35.47-4.27 35.11-3.79L35.11-3.79L35.11-3.79Q34.76-3.30 34.13-3.11L34.13-3.11L34.13-3.11Q34.11-3.11 34.10-3.09L34.10-3.09L34.10-3.09Q34.09-3.07 34.10-3.05L34.10-3.05L35.51-0.14L35.51-0.14Q35.53-0.10 35.53-0.08L35.53-0.08L35.53-0.08Q35.53 0 35.42 0L35.42 0L34.46 0ZM31.74-6L31.74-6Q31.69-6 31.69-5.95L31.69-5.95L31.69-3.96L31.69-3.96Q31.69-3.91 31.74-3.91L31.74-3.91L33.24-3.91L33.24-3.91Q33.72-3.91 34.02-4.20L34.02-4.20L34.02-4.20Q34.31-4.48 34.31-4.95L34.31-4.95L34.31-4.95Q34.31-5.42 34.02-5.71L34.02-5.71L34.02-5.71Q33.72-6 33.24-6L33.24-6L31.74-6Z"/><path fill="#252530" transform="translate(30.36, 95.3)" d="M3.38-1.84L3.38-1.84Q3.35-1.81 3.36-1.78L3.36-1.78L3.36-1.78Q3.38-1.75 3.42-1.75L3.42-1.75L7.35-1.75L7.35-1.75Q7.42-1.75 7.47-1.70L7.47-1.70L7.47-1.70Q7.53-1.65 7.53-1.58L7.53-1.58L7.53-0.17L7.53-0.17Q7.53-0.10 7.47-0.05L7.47-0.05L7.47-0.05Q7.42 0 7.35 0L7.35 0L0.83 0L0.83 0Q0.75 0 0.70-0.05L0.70-0.05L0.70-0.05Q0.65-0.10 0.65-0.17L0.65-0.17L0.65-1.51L0.65-1.51Q0.65-1.64 0.74-1.73L0.74-1.73L0.74-1.73Q1.45-2.42 2.19-3.24L2.19-3.24L2.19-3.24Q2.93-4.06 3.12-4.26L3.12-4.26L3.12-4.26Q3.52-4.74 3.94-5.18L3.94-5.18L3.94-5.18Q5.26-6.64 5.26-7.35L5.26-7.35L5.26-7.35Q5.26-7.86 4.90-8.19L4.90-8.19L4.90-8.19Q4.54-8.51 3.96-8.51L3.96-8.51L3.96-8.51Q3.38-8.51 3.02-8.19L3.02-8.19L3.02-8.19Q2.65-7.86 2.65-7.32L2.65-7.32L2.65-6.96L2.65-6.96Q2.65-6.89 2.60-6.84L2.60-6.84L2.60-6.84Q2.55-6.79 2.48-6.79L2.48-6.79L0.77-6.79L0.77-6.79Q0.70-6.79 0.65-6.84L0.65-6.84L0.65-6.84Q0.59-6.89 0.59-6.96L0.59-6.96L0.59-7.64L0.59-7.64Q0.64-8.42 1.09-9.03L1.09-9.03L1.09-9.03Q1.54-9.63 2.28-9.95L2.28-9.95L2.28-9.95Q3.03-10.27 3.96-10.27L3.96-10.27L3.96-10.27Q4.99-10.27 5.75-9.88L5.75-9.88L5.75-9.88Q6.51-9.50 6.92-8.85L6.92-8.85L6.92-8.85Q7.34-8.19 7.34-7.40L7.34-7.40L7.34-7.40Q7.34-6.79 7.03-6.15L7.03-6.15L7.03-6.15Q6.73-5.51 6.12-4.77L6.12-4.77L6.12-4.77Q5.67-4.21 5.15-3.65L5.15-3.65L5.15-3.65Q4.63-3.10 3.60-2.06L3.60-2.06L3.38-1.84ZM12.24 0.16L12.24 0.16Q10.64 0.16 9.72-0.73L9.72-0.73L9.72-0.73Q8.79-1.62 8.79-3.16L8.79-3.16L8.79-6.99L8.79-6.99Q8.79-8.50 9.72-9.38L9.72-9.38L9.72-9.38Q10.64-10.27 12.24-10.27L12.24-10.27L12.24-10.27Q13.83-10.27 14.77-9.38L14.77-9.38L14.77-9.38Q15.70-8.50 15.70-6.99L15.70-6.99L15.70-3.16L15.70-3.16Q15.70-1.62 14.77-0.73L14.77-0.73L14.77-0.73Q13.83 0.16 12.24 0.16L12.24 0.16ZM12.24-1.59L12.24-1.59Q12.89-1.59 13.27-1.99L13.27-1.99L13.27-1.99Q13.66-2.39 13.66-3.06L13.66-3.06L13.66-7.05L13.66-7.05Q13.66-7.71 13.27-8.11L13.27-8.11L13.27-8.11Q12.89-8.51 12.24-8.51L12.24-8.51L12.24-8.51Q11.60-8.51 11.22-8.11L11.22-8.11L11.22-8.11Q10.83-7.71 10.83-7.05L10.83-7.05L10.83-3.06L10.83-3.06Q10.83-2.39 11.22-1.99L11.22-1.99L11.22-1.99Q11.60-1.59 12.24-1.59L12.24-1.59ZM19.76-1.84L19.76-1.84Q19.73-1.81 19.75-1.78L19.75-1.78L19.75-1.78Q19.76-1.75 19.81-1.75L19.81-1.75L23.74-1.75L23.74-1.75Q23.81-1.75 23.86-1.70L23.86-1.70L23.86-1.70Q23.91-1.65 23.91-1.58L23.91-1.58L23.91-0.17L23.91-0.17Q23.91-0.10 23.86-0.05L23.86-0.05L23.86-0.05Q23.81 0 23.74 0L23.74 0L17.21 0L17.21 0Q17.14 0 17.09-0.05L17.09-0.05L17.09-0.05Q17.04-0.10 17.04-0.17L17.04-0.17L17.04-1.51L17.04-1.51Q17.04-1.64 17.12-1.73L17.12-1.73L17.12-1.73Q17.84-2.42 18.57-3.24L18.57-3.24L18.57-3.24Q19.31-4.06 19.50-4.26L19.50-4.26L19.50-4.26Q19.91-4.74 20.33-5.18L20.33-5.18L20.33-5.18Q21.65-6.64 21.65-7.35L21.65-7.35L21.65-7.35Q21.65-7.86 21.29-8.19L21.29-8.19L21.29-8.19Q20.92-8.51 20.34-8.51L20.34-8.51L20.34-8.51Q19.76-8.51 19.40-8.19L19.40-8.19L19.40-8.19Q19.04-7.86 19.04-7.32L19.04-7.32L19.04-6.96L19.04-6.96Q19.04-6.89 18.99-6.84L18.99-6.84L18.99-6.84Q18.94-6.79 18.86-6.79L18.86-6.79L17.15-6.79L17.15-6.79Q17.08-6.79 17.03-6.84L17.03-6.84L17.03-6.84Q16.98-6.89 16.98-6.96L16.98-6.96L16.98-7.64L16.98-7.64Q17.02-8.42 17.47-9.03L17.47-9.03L17.47-9.03Q17.92-9.63 18.67-9.95L18.67-9.95L18.67-9.95Q19.42-10.27 20.34-10.27L20.34-10.27L20.34-10.27Q21.37-10.27 22.13-9.88L22.13-9.88L22.13-9.88Q22.90-9.50 23.31-8.85L23.31-8.85L23.31-8.85Q23.72-8.19 23.72-7.40L23.72-7.40L23.72-7.40Q23.72-6.79 23.42-6.15L23.42-6.15L23.42-6.15Q23.11-5.51 22.50-4.77L22.50-4.77L22.50-4.77Q22.05-4.21 21.53-3.65L21.53-3.65L21.53-3.65Q21.01-3.10 19.98-2.06L19.98-2.06L19.76-1.84ZM28.62 0.16L28.62 0.16Q27.03 0.16 26.10-0.73L26.10-0.73L26.10-0.73Q25.17-1.62 25.17-3.16L25.17-3.16L25.17-6.99L25.17-6.99Q25.17-8.50 26.10-9.38L26.10-9.38L26.10-9.38Q27.03-10.27 28.62-10.27L28.62-10.27L28.62-10.27Q30.22-10.27 31.15-9.38L31.15-9.38L31.15-9.38Q32.09-8.50 32.09-6.99L32.09-6.99L32.09-3.16L32.09-3.16Q32.09-1.62 31.15-0.73L31.15-0.73L31.15-0.73Q30.22 0.16 28.62 0.16L28.62 0.16ZM28.62-1.59L28.62-1.59Q29.28-1.59 29.66-1.99L29.66-1.99L29.66-1.99Q30.04-2.39 30.04-3.06L30.04-3.06L30.04-7.05L30.04-7.05Q30.04-7.71 29.66-8.11L29.66-8.11L29.66-8.11Q29.28-8.51 28.62-8.51L28.62-8.51L28.62-8.51Q27.99-8.51 27.60-8.11L27.60-8.11L27.60-8.11Q27.22-7.71 27.22-7.05L27.22-7.05L27.22-3.06L27.22-3.06Q27.22-2.39 27.60-1.99L27.60-1.99L27.60-1.99Q27.99-1.59 28.62-1.59L28.62-1.59Z"/></g>
</svg>
