<svg xmlns="http://www.w3.org/2000/svg" xmlns:xlink="http://www.w3.org/1999/xlink" viewBox="0 0 94 122">
  <g id="container">
    <path fill="#fff" d="M8.1 89.9L47.6 110l38-20.1V11.3H8.1z"/>
    <path fill="#f2f3f2" d="M86.4 11.6L7.3 91.3l41 20.3 38.1-19.5z"/>
    <path d="M5.5 37.5v54.1l1.4.7 39.5 20.1 1.2.6 1.2-.6 38.1-20.1 1.4-.7V8.7H5.5v28.8zm2.6 52.6V11.3h77.6v78.8l-38.1 20.1L8.1 90.1z" fill="#dcdedc"/>
    <path id="logo" d="M46.9 12.6c.4 0 .8 0 1.2.1L46.9 15c-1.8-.1-3.4 1.3-3.5 3.1-.1 1.8 1.3 3.4 3.1 3.5h.4c.8 0 1.6-.3 2.2-.8l1.3 2.2c-1 .7-2.2 1.1-3.5 1.1-3.2.1-5.9-2.3-6-5.5-.1-3.2 2.3-5.9 5.5-6h.5zm4.1 4.9l1.5 2.5-1.5 2.4-1.4-2.4h-2.9l1.5-2.5H51zm-2.4-.9c0-.4.1-.8.3-1.1.2-.3.6-.6.9-.8l.2-.1c.4-.2.5-.3.5-.5s-.3-.4-.5-.4c-.4 0-.7.2-.9.6l-.5-.5c.1-.2.3-.4.5-.6.3-.2.6-.2.9-.2.3 0 .7.1.9.3.2.2.4.5.4.8 0 .5-.3.9-.9 1.1l-.3.2c-.3.2-.5.3-.6.6h1.8v.7l-2.7-.1zm-1.7 12.5l9.5-5.4v-15H37.3v14.9l9.6 5.5z" fill="#ff492c"/>
    <path id="banner" d="M90.2 64.5H3.6l-3.2 7 3.2 7h86.6l3.1-7z" fill="#ff492c"/>
  <path fill="#252530" transform="translate(24.24, 60)" d="M1.02 0L1.02 0Q0.95 0 0.90-0.05L0.90-0.05L0.90-0.05Q0.85-0.10 0.85-0.17L0.85-0.17L0.85-9.63L0.85-9.63Q0.85-9.70 0.90-9.75L0.90-9.75L0.90-9.75Q0.95-9.80 1.02-9.80L1.02-9.80L2.66-9.80L2.66-9.80Q2.73-9.80 2.78-9.75L2.78-9.75L2.78-9.75Q2.83-9.70 2.83-9.63L2.83-9.63L2.83-1.76L2.83-1.76Q2.83-1.69 2.90-1.69L2.90-1.69L7.48-1.69L7.48-1.69Q7.55-1.69 7.59-1.65L7.59-1.65L7.59-1.65Q7.64-1.60 7.64-1.53L7.64-1.53L7.64-0.17L7.64-0.17Q7.64-0.10 7.59-0.05L7.59-0.05L7.59-0.05Q7.55 0 7.48 0L7.48 0L1.02 0ZM15.11-4.34L15.11-4.34Q15.19-3.81 15.16-3.15L15.16-3.15L15.16-3.15Q15.15-2.98 14.98-2.98L14.98-2.98L10.65-2.98L10.65-2.98Q10.57-2.98 10.60-2.91L10.60-2.91L10.60-2.91Q10.64-2.63 10.75-2.35L10.75-2.35L10.75-2.35Q11.12-1.57 12.24-1.57L12.24-1.57L12.24-1.57Q13.13-1.58 13.65-2.30L13.65-2.30L13.65-2.30Q13.71-2.38 13.78-2.38L13.78-2.38L13.78-2.38Q13.82-2.38 13.87-2.32L13.87-2.32L14.88-1.33L14.88-1.33Q14.95-1.26 14.95-1.20L14.95-1.20L14.95-1.20Q14.95-1.18 14.90-1.09L14.90-1.09L14.90-1.09Q14.43-0.52 13.71-0.20L13.71-0.20L13.71-0.20Q12.98 0.11 12.11 0.11L12.11 0.11L12.11 0.11Q10.91 0.11 10.07-0.43L10.07-0.43L10.07-0.43Q9.24-0.98 8.88-1.96L8.88-1.96L8.88-1.96Q8.58-2.66 8.58-3.79L8.58-3.79L8.58-3.79Q8.58-4.56 8.79-5.15L8.79-5.15L8.79-5.15Q9.11-6.15 9.92-6.73L9.92-6.73L9.92-6.73Q10.72-7.32 11.83-7.32L11.83-7.32L11.83-7.32Q13.23-7.32 14.08-6.51L14.08-6.51L14.08-6.51Q14.92-5.70 15.11-4.34L15.11-4.34ZM11.84-5.61L11.84-5.61Q10.96-5.61 10.68-4.79L10.68-4.79L10.68-4.79Q10.63-4.61 10.58-4.34L10.58-4.34L10.58-4.34Q10.58-4.27 10.65-4.27L10.65-4.27L13.08-4.27L13.08-4.27Q13.16-4.27 13.13-4.34L13.13-4.34L13.13-4.34Q13.06-4.75 13.06-4.73L13.06-4.73L13.06-4.73Q12.94-5.15 12.62-5.38L12.62-5.38L12.62-5.38Q12.31-5.61 11.84-5.61L11.84-5.61ZM19.25-7.31L19.25-7.31Q20.16-7.31 20.87-6.99L20.87-6.99L20.87-6.99Q21.59-6.68 21.99-6.13L21.99-6.13L21.99-6.13Q22.39-5.59 22.39-4.91L22.39-4.91L22.39-0.17L22.39-0.17Q22.39-0.10 22.34-0.05L22.34-0.05L22.34-0.05Q22.29 0 22.22 0L22.22 0L20.58 0L20.58 0Q20.51 0 20.46-0.05L20.46-0.05L20.46-0.05Q20.41-0.10 20.41-0.17L20.41-0.17L20.41-0.63L20.41-0.63Q20.41-0.67 20.38-0.69L20.38-0.69L20.38-0.69Q20.36-0.70 20.33-0.66L20.33-0.66L20.33-0.66Q19.74 0.11 18.44 0.11L18.44 0.11L18.44 0.11Q17.35 0.11 16.67-0.42L16.67-0.42L16.67-0.42Q16.00-0.95 16.00-1.99L16.00-1.99L16.00-1.99Q16.00-3.07 16.76-3.66L16.76-3.66L16.76-3.66Q17.51-4.26 18.91-4.26L18.91-4.26L20.34-4.26L20.34-4.26Q20.41-4.26 20.41-4.33L20.41-4.33L20.41-4.63L20.41-4.63Q20.41-5.10 20.13-5.36L20.13-5.36L20.13-5.36Q19.85-5.61 19.29-5.61L19.29-5.61L19.29-5.61Q18.86-5.61 18.57-5.46L18.57-5.46L18.57-5.46Q18.28-5.31 18.20-5.03L18.20-5.03L18.20-5.03Q18.16-4.87 18.02-4.89L18.02-4.89L16.32-5.11L16.32-5.11Q16.16-5.14 16.17-5.24L16.17-5.24L16.17-5.24Q16.23-5.82 16.64-6.30L16.64-6.30L16.64-6.30Q17.05-6.78 17.73-7.04L17.73-7.04L17.73-7.04Q18.41-7.31 19.25-7.31L19.25-7.31ZM18.97-1.36L18.97-1.36Q19.57-1.36 19.99-1.68L19.99-1.68L19.99-1.68Q20.41-2.00 20.41-2.51L20.41-2.51L20.41-3.01L20.41-3.01Q20.41-3.08 20.34-3.08L20.34-3.08L19.33-3.08L19.33-3.08Q18.70-3.08 18.35-2.84L18.35-2.84L18.35-2.84Q17.99-2.60 17.99-2.17L17.99-2.17L17.99-2.17Q17.99-1.79 18.26-1.57L18.26-1.57L18.26-1.57Q18.52-1.36 18.97-1.36L18.97-1.36ZM28.24-9.63L28.24-9.63Q28.24-9.70 28.29-9.75L28.29-9.75L28.29-9.75Q28.34-9.80 28.41-9.80L28.41-9.80L30.04-9.80L30.04-9.80Q30.11-9.80 30.16-9.75L30.16-9.75L30.16-9.75Q30.21-9.70 30.21-9.63L30.21-9.63L30.21-0.17L30.21-0.17Q30.21-0.10 30.16-0.05L30.16-0.05L30.16-0.05Q30.11 0 30.04 0L30.04 0L28.41 0L28.41 0Q28.34 0 28.29-0.05L28.29-0.05L28.29-0.05Q28.24-0.10 28.24-0.17L28.24-0.17L28.24-0.63L28.24-0.63Q28.24-0.67 28.21-0.68L28.21-0.68L28.21-0.68Q28.18-0.69 28.15-0.66L28.15-0.66L28.15-0.66Q27.57 0.11 26.54 0.11L26.54 0.11L26.54 0.11Q25.56 0.11 24.86-0.43L24.86-0.43L24.86-0.43Q24.15-0.98 23.84-1.93L23.84-1.93L23.84-1.93Q23.60-2.66 23.60-3.63L23.60-3.63L23.60-3.63Q23.60-4.62 23.86-5.36L23.86-5.36L23.86-5.36Q24.18-6.26 24.87-6.78L24.87-6.78L24.87-6.78Q25.56-7.31 26.59-7.31L26.59-7.31L26.59-7.31Q27.59-7.31 28.15-6.61L28.15-6.61L28.15-6.61Q28.18-6.57 28.21-6.58L28.21-6.58L28.21-6.58Q28.24-6.59 28.24-6.64L28.24-6.64L28.24-9.63ZM27.94-2.18L27.94-2.18Q28.22-2.70 28.22-3.60L28.22-3.60L28.22-3.60Q28.22-4.54 27.92-5.07L27.92-5.07L27.92-5.07Q27.59-5.61 26.98-5.61L26.98-5.61L26.98-5.61Q26.32-5.61 25.98-5.07L25.98-5.07L25.98-5.07Q25.63-4.52 25.63-3.58L25.63-3.58L25.63-3.58Q25.63-2.74 25.93-2.18L25.93-2.18L25.93-2.18Q26.28-1.58 26.96-1.58L26.96-1.58L26.96-1.58Q27.59-1.58 27.94-2.18L27.94-2.18ZM38.07-4.34L38.07-4.34Q38.15-3.81 38.12-3.15L38.12-3.15L38.12-3.15Q38.11-2.98 37.94-2.98L37.94-2.98L33.61-2.98L33.61-2.98Q33.53-2.98 33.56-2.91L33.56-2.91L33.56-2.91Q33.60-2.63 33.71-2.35L33.71-2.35L33.71-2.35Q34.08-1.57 35.20-1.57L35.20-1.57L35.20-1.57Q36.09-1.58 36.61-2.30L36.61-2.30L36.61-2.30Q36.67-2.38 36.74-2.38L36.74-2.38L36.74-2.38Q36.78-2.38 36.83-2.32L36.83-2.32L37.84-1.33L37.84-1.33Q37.91-1.26 37.91-1.20L37.91-1.20L37.91-1.20Q37.91-1.18 37.86-1.09L37.86-1.09L37.86-1.09Q37.39-0.52 36.67-0.20L36.67-0.20L36.67-0.20Q35.94 0.11 35.07 0.11L35.07 0.11L35.07 0.11Q33.87 0.11 33.03-0.43L33.03-0.43L33.03-0.43Q32.20-0.98 31.84-1.96L31.84-1.96L31.84-1.96Q31.54-2.66 31.54-3.79L31.54-3.79L31.54-3.79Q31.54-4.56 31.75-5.15L31.75-5.15L31.75-5.15Q32.07-6.15 32.88-6.73L32.88-6.73L32.88-6.73Q33.68-7.32 34.79-7.32L34.79-7.32L34.79-7.32Q36.19-7.32 37.04-6.51L37.04-6.51L37.04-6.51Q37.88-5.70 38.07-4.34L38.07-4.34ZM34.80-5.61L34.80-5.61Q33.92-5.61 33.64-4.79L33.64-4.79L33.64-4.79Q33.59-4.61 33.54-4.34L33.54-4.34L33.54-4.34Q33.54-4.27 33.61-4.27L33.61-4.27L36.04-4.27L36.04-4.27Q36.12-4.27 36.09-4.34L36.09-4.34L36.09-4.34Q36.02-4.75 36.02-4.73L36.02-4.73L36.02-4.73Q35.90-5.15 35.58-5.38L35.58-5.38L35.58-5.38Q35.27-5.61 34.80-5.61L34.80-5.61ZM42.92-7.29L42.92-7.29Q43.43-7.29 43.72-7.10L43.72-7.10L43.72-7.10Q43.83-7.04 43.81-6.89L43.81-6.89L43.51-5.29L43.51-5.29Q43.50-5.12 43.32-5.19L43.32-5.19L43.32-5.19Q43.11-5.26 42.83-5.26L42.83-5.26L42.83-5.26Q42.71-5.26 42.52-5.24L42.52-5.24L42.52-5.24Q42.01-5.19 41.66-4.87L41.66-4.87L41.66-4.87Q41.31-4.54 41.31-3.99L41.31-3.99L41.31-0.17L41.31-0.17Q41.31-0.10 41.27-0.05L41.27-0.05L41.27-0.05Q41.22 0 41.15 0L41.15 0L39.51 0L39.51 0Q39.44 0 39.39-0.05L39.39-0.05L39.39-0.05Q39.34-0.10 39.34-0.17L39.34-0.17L39.34-7.03L39.34-7.03Q39.34-7.10 39.39-7.15L39.39-7.15L39.39-7.15Q39.44-7.20 39.51-7.20L39.51-7.20L41.15-7.20L41.15-7.20Q41.22-7.20 41.27-7.15L41.27-7.15L41.27-7.15Q41.31-7.10 41.31-7.03L41.31-7.03L41.31-6.50L41.31-6.50Q41.31-6.45 41.34-6.44L41.34-6.44L41.34-6.44Q41.37-6.43 41.38-6.45L41.38-6.45L41.38-6.45Q41.96-7.29 42.92-7.29L42.92-7.29Z"/><path fill="#252530" transform="translate(11.76, 46)" d="M7.15-9.69L7.15-9.69Q7.22-9.80 7.35-9.80L7.35-9.80L8.99-9.80L8.99-9.80Q9.06-9.80 9.11-9.75L9.11-9.75L9.11-9.75Q9.16-9.70 9.16-9.63L9.16-9.63L9.16-0.17L9.16-0.17Q9.16-0.10 9.11-0.05L9.11-0.05L9.11-0.05Q9.06 0 8.99 0L8.99 0L7.35 0L7.35 0Q7.28 0 7.23-0.05L7.23-0.05L7.23-0.05Q7.18-0.10 7.18-0.17L7.18-0.17L7.18-6.34L7.18-6.34Q7.18-6.40 7.15-6.40L7.15-6.40L7.15-6.40Q7.13-6.40 7.10-6.36L7.10-6.36L5.61-4.03L5.61-4.03Q5.54-3.92 5.42-3.92L5.42-3.92L4.59-3.92L4.59-3.92Q4.47-3.92 4.40-4.03L4.40-4.03L2.91-6.36L2.91-6.36Q2.88-6.40 2.86-6.39L2.86-6.39L2.86-6.39Q2.83-6.38 2.83-6.33L2.83-6.33L2.83-0.17L2.83-0.17Q2.83-0.10 2.78-0.05L2.78-0.05L2.78-0.05Q2.73 0 2.66 0L2.66 0L1.02 0L1.02 0Q0.95 0 0.90-0.05L0.90-0.05L0.90-0.05Q0.85-0.10 0.85-0.17L0.85-0.17L0.85-9.63L0.85-9.63Q0.85-9.70 0.90-9.75L0.90-9.75L0.90-9.75Q0.95-9.80 1.02-9.80L1.02-9.80L2.66-9.80L2.66-9.80Q2.79-9.80 2.86-9.69L2.86-9.69L4.96-6.43L4.96-6.43Q5.00-6.34 5.04-6.43L5.04-6.43L7.15-9.69ZM13.92 0.11L13.92 0.11Q12.74 0.11 11.90-0.50L11.90-0.50L11.90-0.50Q11.06-1.12 10.75-2.18L10.75-2.18L10.75-2.18Q10.56-2.84 10.56-3.61L10.56-3.61L10.56-3.61Q10.56-4.44 10.75-5.10L10.75-5.10L10.75-5.10Q11.07-6.13 11.91-6.72L11.91-6.72L11.91-6.72Q12.75-7.31 13.93-7.31L13.93-7.31L13.93-7.31Q15.08-7.31 15.89-6.73L15.89-6.73L15.89-6.73Q16.70-6.15 17.04-5.11L17.04-5.11L17.04-5.11Q17.26-4.41 17.26-3.64L17.26-3.64L17.26-3.64Q17.26-2.88 17.07-2.23L17.07-2.23L17.07-2.23Q16.76-1.13 15.93-0.51L15.93-0.51L15.93-0.51Q15.09 0.11 13.92 0.11L13.92 0.11ZM13.92-1.58L13.92-1.58Q14.38-1.58 14.70-1.86L14.70-1.86L14.70-1.86Q15.02-2.14 15.16-2.63L15.16-2.63L15.16-2.63Q15.27-3.08 15.27-3.61L15.27-3.61L15.27-3.61Q15.27-4.20 15.16-4.61L15.16-4.61L15.16-4.61Q15.01-5.08 14.69-5.35L14.69-5.35L14.69-5.35Q14.36-5.61 13.90-5.61L13.90-5.61L13.90-5.61Q13.43-5.61 13.11-5.35L13.11-5.35L13.11-5.35Q12.80-5.08 12.66-4.61L12.66-4.61L12.66-4.61Q12.54-4.27 12.54-3.61L12.54-3.61L12.54-3.61Q12.54-2.98 12.64-2.63L12.64-2.63L12.64-2.63Q12.78-2.14 13.11-1.86L13.11-1.86L13.11-1.86Q13.44-1.58 13.92-1.58L13.92-1.58ZM26.52-7.31L26.52-7.31Q27.61-7.31 28.22-6.65L28.22-6.65L28.22-6.65Q28.84-5.99 28.84-4.80L28.84-4.80L28.84-0.17L28.84-0.17Q28.84-0.10 28.79-0.05L28.79-0.05L28.79-0.05Q28.74 0 28.67 0L28.67 0L27.03 0L27.03 0Q26.96 0 26.91-0.05L26.91-0.05L26.91-0.05Q26.87-0.10 26.87-0.17L26.87-0.17L26.87-4.37L26.87-4.37Q26.87-4.94 26.57-5.28L26.57-5.28L26.57-5.28Q26.28-5.61 25.79-5.61L25.79-5.61L25.79-5.61Q25.30-5.61 24.99-5.28L24.99-5.28L24.99-5.28Q24.68-4.94 24.68-4.38L24.68-4.38L24.68-0.17L24.68-0.17Q24.68-0.10 24.63-0.05L24.63-0.05L24.63-0.05Q24.58 0 24.51 0L24.51 0L22.89 0L22.89 0Q22.82 0 22.77-0.05L22.77-0.05L22.77-0.05Q22.72-0.10 22.72-0.17L22.72-0.17L22.72-4.37L22.72-4.37Q22.72-4.93 22.41-5.27L22.41-5.27L22.41-5.27Q22.11-5.61 21.62-5.61L21.62-5.61L21.62-5.61Q21.17-5.61 20.87-5.35L20.87-5.35L20.87-5.35Q20.57-5.08 20.51-4.61L20.51-4.61L20.51-0.17L20.51-0.17Q20.51-0.10 20.46-0.05L20.46-0.05L20.46-0.05Q20.41 0 20.34 0L20.34 0L18.70 0L18.70 0Q18.63 0 18.59-0.05L18.59-0.05L18.59-0.05Q18.54-0.10 18.54-0.17L18.54-0.17L18.54-7.03L18.54-7.03Q18.54-7.10 18.59-7.15L18.59-7.15L18.59-7.15Q18.63-7.20 18.70-7.20L18.70-7.20L20.34-7.20L20.34-7.20Q20.41-7.20 20.46-7.15L20.46-7.15L20.46-7.15Q20.51-7.10 20.51-7.03L20.51-7.03L20.51-6.48L20.51-6.48Q20.51-6.44 20.54-6.43L20.54-6.43L20.54-6.43Q20.57-6.41 20.59-6.45L20.59-6.45L20.59-6.45Q21.17-7.31 22.37-7.31L22.37-7.31L22.37-7.31Q23.07-7.31 23.60-7.01L23.60-7.01L23.60-7.01Q24.12-6.72 24.40-6.17L24.40-6.17L24.40-6.17Q24.44-6.09 24.50-6.17L24.50-6.17L24.50-6.17Q24.81-6.75 25.33-7.03L25.33-7.03L25.33-7.03Q25.86-7.31 26.52-7.31L26.52-7.31ZM36.60-4.34L36.60-4.34Q36.68-3.81 36.65-3.15L36.65-3.15L36.65-3.15Q36.64-2.98 36.47-2.98L36.47-2.98L32.14-2.98L32.14-2.98Q32.06-2.98 32.09-2.91L32.09-2.91L32.09-2.91Q32.13-2.63 32.24-2.35L32.24-2.35L32.24-2.35Q32.61-1.57 33.73-1.57L33.73-1.57L33.73-1.57Q34.62-1.58 35.14-2.30L35.14-2.30L35.14-2.30Q35.20-2.38 35.27-2.38L35.27-2.38L35.27-2.38Q35.31-2.38 35.36-2.32L35.36-2.32L36.37-1.33L36.37-1.33Q36.44-1.26 36.44-1.20L36.44-1.20L36.44-1.20Q36.44-1.18 36.39-1.09L36.39-1.09L36.39-1.09Q35.92-0.52 35.20-0.20L35.20-0.20L35.20-0.20Q34.47 0.11 33.60 0.11L33.60 0.11L33.60 0.11Q32.40 0.11 31.56-0.43L31.56-0.43L31.56-0.43Q30.73-0.98 30.37-1.96L30.37-1.96L30.37-1.96Q30.07-2.66 30.07-3.79L30.07-3.79L30.07-3.79Q30.07-4.56 30.28-5.15L30.28-5.15L30.28-5.15Q30.60-6.15 31.41-6.73L31.41-6.73L31.41-6.73Q32.21-7.32 33.32-7.32L33.32-7.32L33.32-7.32Q34.72-7.32 35.57-6.51L35.57-6.51L35.57-6.51Q36.41-5.70 36.60-4.34L36.60-4.34ZM33.33-5.61L33.33-5.61Q32.45-5.61 32.17-4.79L32.17-4.79L32.17-4.79Q32.12-4.61 32.07-4.34L32.07-4.34L32.07-4.34Q32.07-4.27 32.14-4.27L32.14-4.27L34.57-4.27L34.57-4.27Q34.65-4.27 34.62-4.34L34.62-4.34L34.62-4.34Q34.55-4.75 34.55-4.73L34.55-4.73L34.55-4.73Q34.43-5.15 34.11-5.38L34.11-5.38L34.11-5.38Q33.80-5.61 33.33-5.61L33.33-5.61ZM41.62-7.31L41.62-7.31Q42.74-7.31 43.43-6.62L43.43-6.62L43.43-6.62Q44.11-5.94 44.11-4.76L44.11-4.76L44.11-0.17L44.11-0.17Q44.11-0.10 44.06-0.05L44.06-0.05L44.06-0.05Q44.02 0 43.95 0L43.95 0L42.31 0L42.31 0Q42.24 0 42.19-0.05L42.19-0.05L42.19-0.05Q42.14-0.10 42.14-0.17L42.14-0.17L42.14-4.35L42.14-4.35Q42.14-4.91 41.82-5.26L41.82-5.26L41.82-5.26Q41.51-5.61 40.99-5.61L40.99-5.61L40.99-5.61Q40.47-5.61 40.16-5.26L40.16-5.26L40.16-5.26Q39.84-4.91 39.84-4.35L39.84-4.35L39.84-0.17L39.84-0.17Q39.84-0.10 39.79-0.05L39.79-0.05L39.79-0.05Q39.75 0 39.68 0L39.68 0L38.04 0L38.04 0Q37.97 0 37.92-0.05L37.92-0.05L37.92-0.05Q37.87-0.10 37.87-0.17L37.87-0.17L37.87-7.03L37.87-7.03Q37.87-7.10 37.92-7.15L37.92-7.15L37.92-7.15Q37.97-7.20 38.04-7.20L38.04-7.20L39.68-7.20L39.68-7.20Q39.75-7.20 39.79-7.15L39.79-7.15L39.79-7.15Q39.84-7.10 39.84-7.03L39.84-7.03L39.84-6.54L39.84-6.54Q39.84-6.50 39.87-6.48L39.87-6.48L39.87-6.48Q39.90-6.47 39.91-6.50L39.91-6.50L39.91-6.50Q40.49-7.31 41.62-7.31L41.62-7.31ZM49.66-5.78L49.66-5.78Q49.66-5.71 49.61-5.66L49.61-5.66L49.61-5.66Q49.56-5.61 49.49-5.61L49.49-5.61L48.15-5.61L48.15-5.61Q48.08-5.61 48.08-5.54L48.08-5.54L48.08-2.58L48.08-2.58Q48.08-2.11 48.27-1.89L48.27-1.89L48.27-1.89Q48.45-1.67 48.87-1.67L48.87-1.67L49.34-1.67L49.34-1.67Q49.41-1.67 49.45-1.62L49.45-1.62L49.45-1.62Q49.50-1.57 49.50-1.50L49.50-1.50L49.50-0.17L49.50-0.17Q49.50-0.01 49.34 0.01L49.34 0.01L49.34 0.01Q48.75 0.04 48.50 0.04L48.50 0.04L48.50 0.04Q47.33 0.04 46.76-0.34L46.76-0.34L46.76-0.34Q46.19-0.73 46.17-1.79L46.17-1.79L46.17-5.54L46.17-5.54Q46.17-5.61 46.10-5.61L46.10-5.61L45.30-5.61L45.30-5.61Q45.23-5.61 45.18-5.66L45.18-5.66L45.18-5.66Q45.14-5.71 45.14-5.78L45.14-5.78L45.14-7.03L45.14-7.03Q45.14-7.10 45.18-7.15L45.18-7.15L45.18-7.15Q45.23-7.20 45.30-7.20L45.30-7.20L46.10-7.20L46.10-7.20Q46.17-7.20 46.17-7.27L46.17-7.27L46.17-8.93L46.17-8.93Q46.17-9.00 46.22-9.05L46.22-9.05L46.22-9.05Q46.27-9.10 46.34-9.10L46.34-9.10L47.91-9.10L47.91-9.10Q47.98-9.10 48.03-9.05L48.03-9.05L48.03-9.05Q48.08-9.00 48.08-8.93L48.08-8.93L48.08-7.27L48.08-7.27Q48.08-7.20 48.15-7.20L48.15-7.20L49.49-7.20L49.49-7.20Q49.56-7.20 49.61-7.15L49.61-7.15L49.61-7.15Q49.66-7.10 49.66-7.03L49.66-7.03L49.66-5.78ZM55.05-7.03L55.05-7.03Q55.05-7.10 55.10-7.15L55.10-7.15L55.10-7.15Q55.15-7.20 55.22-7.20L55.22-7.20L56.85-7.20L56.85-7.20Q56.92-7.20 56.97-7.15L56.97-7.15L56.97-7.15Q57.02-7.10 57.02-7.03L57.02-7.03L57.02-0.17L57.02-0.17Q57.02-0.10 56.97-0.05L56.97-0.05L56.97-0.05Q56.92 0 56.85 0L56.85 0L55.22 0L55.22 0Q55.15 0 55.10-0.05L55.10-0.05L55.10-0.05Q55.05-0.10 55.05-0.17L55.05-0.17L55.05-0.64L55.05-0.64Q55.05-0.69 55.02-0.69L55.02-0.69L55.02-0.69Q54.99-0.70 54.96-0.66L54.96-0.66L54.96-0.66Q54.40 0.10 53.23 0.10L53.23 0.10L53.23 0.10Q52.16 0.10 51.48-0.55L51.48-0.55L51.48-0.55Q50.79-1.19 50.79-2.35L50.79-2.35L50.79-7.03L50.79-7.03Q50.79-7.10 50.84-7.15L50.84-7.15L50.84-7.15Q50.89-7.20 50.96-7.20L50.96-7.20L52.58-7.20L52.58-7.20Q52.65-7.20 52.70-7.15L52.70-7.15L52.70-7.15Q52.75-7.10 52.75-7.03L52.75-7.03L52.75-2.84L52.75-2.84Q52.75-2.28 53.05-1.93L53.05-1.93L53.05-1.93Q53.35-1.58 53.89-1.58L53.89-1.58L53.89-1.58Q54.36-1.58 54.67-1.87L54.67-1.87L54.67-1.87Q54.98-2.16 55.05-2.62L55.05-2.62L55.05-7.03ZM66.46-7.31L66.46-7.31Q67.55-7.31 68.17-6.65L68.17-6.65L68.17-6.65Q68.78-5.99 68.78-4.80L68.78-4.80L68.78-0.17L68.78-0.17Q68.78-0.10 68.73-0.05L68.73-0.05L68.73-0.05Q68.68 0 68.61 0L68.61 0L66.98 0L66.98 0Q66.91 0 66.86-0.05L66.86-0.05L66.86-0.05Q66.81-0.10 66.81-0.17L66.81-0.17L66.81-4.37L66.81-4.37Q66.81-4.94 66.51-5.28L66.51-5.28L66.51-5.28Q66.22-5.61 65.73-5.61L65.73-5.61L65.73-5.61Q65.24-5.61 64.93-5.28L64.93-5.28L64.93-5.28Q64.62-4.94 64.62-4.38L64.62-4.38L64.62-0.17L64.62-0.17Q64.62-0.10 64.58-0.05L64.58-0.05L64.58-0.05Q64.53 0 64.46 0L64.46 0L62.83 0L62.83 0Q62.76 0 62.71-0.05L62.71-0.05L62.71-0.05Q62.66-0.10 62.66-0.17L62.66-0.17L62.66-4.37L62.66-4.37Q62.66-4.93 62.36-5.27L62.36-5.27L62.36-5.27Q62.05-5.61 61.56-5.61L61.56-5.61L61.56-5.61Q61.11-5.61 60.81-5.35L60.81-5.35L60.81-5.35Q60.51-5.08 60.45-4.61L60.45-4.61L60.45-0.17L60.45-0.17Q60.45-0.10 60.40-0.05L60.40-0.05L60.40-0.05Q60.35 0 60.28 0L60.28 0L58.65 0L58.65 0Q58.58 0 58.53-0.05L58.53-0.05L58.53-0.05Q58.48-0.10 58.48-0.17L58.48-0.17L58.48-7.03L58.48-7.03Q58.48-7.10 58.53-7.15L58.53-7.15L58.53-7.15Q58.58-7.20 58.65-7.20L58.65-7.20L60.28-7.20L60.28-7.20Q60.35-7.20 60.40-7.15L60.40-7.15L60.40-7.15Q60.45-7.10 60.45-7.03L60.45-7.03L60.45-6.48L60.45-6.48Q60.45-6.44 60.48-6.43L60.48-6.43L60.48-6.43Q60.51-6.41 60.54-6.45L60.54-6.45L60.54-6.45Q61.11-7.31 62.31-7.31L62.31-7.31L62.31-7.31Q63.01-7.31 63.54-7.01L63.54-7.01L63.54-7.01Q64.06-6.72 64.34-6.17L64.34-6.17L64.34-6.17Q64.39-6.09 64.44-6.17L64.44-6.17L64.44-6.17Q64.75-6.75 65.28-7.03L65.28-7.03L65.28-7.03Q65.80-7.31 66.46-7.31L66.46-7.31Z"/><path fill="#fff" transform="translate(28.98, 75.4)" d="M2.22 0L2.22 0Q2.11 0 2.08-0.10L2.08-0.10L0.26-6.87L0.25-6.91L0.25-6.91Q0.25-7 0.36-7L0.36-7L1.34-7L1.34-7Q1.45-7 1.48-6.90L1.48-6.90L2.62-2.34L2.62-2.34Q2.63-2.31 2.65-2.31L2.65-2.31L2.65-2.31Q2.67-2.31 2.68-2.34L2.68-2.34L3.77-6.90L3.77-6.90Q3.80-7 3.90-7L3.90-7L4.86-7L4.86-7Q4.97-7 5-6.90L5-6.90L6.16-2.33L6.16-2.33Q6.17-2.30 6.19-2.30L6.19-2.30L6.19-2.30Q6.21-2.30 6.22-2.33L6.22-2.33L7.34-6.90L7.34-6.90Q7.37-7 7.48-7L7.48-7L8.41-7L8.41-7Q8.55-7 8.52-6.87L8.52-6.87L6.79-0.10L6.79-0.10Q6.76 0 6.65 0L6.65 0L5.72 0L5.72 0Q5.61 0 5.58-0.10L5.58-0.10L4.41-4.87L4.41-4.87Q4.40-4.90 4.38-4.91L4.38-4.91L4.38-4.91Q4.36-4.91 4.35-4.87L4.35-4.87L3.23-0.10L3.23-0.10Q3.20 0 3.10 0L3.10 0L2.22 0ZM9.63 0L9.63 0Q9.58 0 9.54-0.04L9.54-0.04L9.54-0.04Q9.51-0.07 9.51-0.12L9.51-0.12L9.51-6.88L9.51-6.88Q9.51-6.93 9.54-6.96L9.54-6.96L9.54-6.96Q9.58-7 9.63-7L9.63-7L10.55-7L10.55-7Q10.60-7 10.63-6.96L10.63-6.96L10.63-6.96Q10.67-6.93 10.67-6.88L10.67-6.88L10.67-0.12L10.67-0.12Q10.67-0.07 10.63-0.04L10.63-0.04L10.63-0.04Q10.60 0 10.55 0L10.55 0L9.63 0ZM16.20-6.88L16.20-6.88Q16.20-6.93 16.23-6.96L16.23-6.96L16.23-6.96Q16.27-7 16.32-7L16.32-7L17.24-7L17.24-7Q17.29-7 17.32-6.96L17.32-6.96L17.32-6.96Q17.36-6.93 17.36-6.88L17.36-6.88L17.36-0.12L17.36-0.12Q17.36-0.07 17.32-0.04L17.32-0.04L17.32-0.04Q17.29 0 17.24 0L17.24 0L16.35 0L16.35 0Q16.25 0 16.21-0.08L16.21-0.08L13.33-4.80L13.33-4.80Q13.31-4.83 13.29-4.83L13.29-4.83L13.29-4.83Q13.27-4.82 13.27-4.78L13.27-4.78L13.29-0.12L13.29-0.12Q13.29-0.07 13.25-0.04L13.25-0.04L13.25-0.04Q13.22 0 13.17 0L13.17 0L12.25 0L12.25 0Q12.20 0 12.16-0.04L12.16-0.04L12.16-0.04Q12.13-0.07 12.13-0.12L12.13-0.12L12.13-6.88L12.13-6.88Q12.13-6.93 12.16-6.96L12.16-6.96L12.16-6.96Q12.20-7 12.25-7L12.25-7L13.14-7L13.14-7Q13.24-7 13.28-6.92L13.28-6.92L16.15-2.20L16.15-2.20Q16.17-2.17 16.19-2.18L16.19-2.18L16.19-2.18Q16.21-2.18 16.21-2.22L16.21-2.22L16.20-6.88ZM23.42-7L23.42-7Q23.47-7 23.50-6.96L23.50-6.96L23.50-6.96Q23.54-6.93 23.54-6.88L23.54-6.88L23.54-6.11L23.54-6.11Q23.54-6.06 23.50-6.03L23.50-6.03L23.50-6.03Q23.47-5.99 23.42-5.99L23.42-5.99L21.58-5.99L21.58-5.99Q21.53-5.99 21.53-5.94L21.53-5.94L21.53-0.12L21.53-0.12Q21.53-0.07 21.50-0.04L21.50-0.04L21.50-0.04Q21.46 0 21.41 0L21.41 0L20.49 0L20.49 0Q20.44 0 20.41-0.04L20.41-0.04L20.41-0.04Q20.37-0.07 20.37-0.12L20.37-0.12L20.37-5.94L20.37-5.94Q20.37-5.99 20.32-5.99L20.32-5.99L18.55-5.99L18.55-5.99Q18.50-5.99 18.46-6.03L18.46-6.03L18.46-6.03Q18.43-6.06 18.43-6.11L18.43-6.11L18.43-6.88L18.43-6.88Q18.43-6.93 18.46-6.96L18.46-6.96L18.46-6.96Q18.50-7 18.55-7L18.55-7L23.42-7ZM29.35-6.12L29.35-6.12Q29.35-6.07 29.31-6.04L29.31-6.04L29.31-6.04Q29.28-6 29.23-6L29.23-6L25.82-6L25.82-6Q25.77-6 25.77-5.95L25.77-5.95L25.77-4.08L25.77-4.08Q25.77-4.03 25.82-4.03L25.82-4.03L28.11-4.03L28.11-4.03Q28.16-4.03 28.20-4.00L28.20-4.00L28.20-4.00Q28.23-3.96 28.23-3.91L28.23-3.91L28.23-3.15L28.23-3.15Q28.23-3.10 28.20-3.06L28.20-3.06L28.20-3.06Q28.16-3.03 28.11-3.03L28.11-3.03L25.82-3.03L25.82-3.03Q25.77-3.03 25.77-2.98L25.77-2.98L25.77-1.05L25.77-1.05Q25.77-1 25.82-1L25.82-1L29.23-1L29.23-1Q29.28-1 29.31-0.96L29.31-0.96L29.31-0.96Q29.35-0.93 29.35-0.88L29.35-0.88L29.35-0.12L29.35-0.12Q29.35-0.07 29.31-0.04L29.31-0.04L29.31-0.04Q29.28 0 29.23 0L29.23 0L24.73 0L24.73 0Q24.68 0 24.64-0.04L24.64-0.04L24.64-0.04Q24.61-0.07 24.61-0.12L24.61-0.12L24.61-6.88L24.61-6.88Q24.61-6.93 24.64-6.96L24.64-6.96L24.64-6.96Q24.68-7 24.73-7L24.73-7L29.23-7L29.23-7Q29.28-7 29.31-6.96L29.31-6.96L29.31-6.96Q29.35-6.93 29.35-6.88L29.35-6.88L29.35-6.12ZM34.46 0L34.46 0Q34.36 0 34.32-0.09L34.32-0.09L33-2.97L33-2.97Q32.98-3.01 32.94-3.01L32.94-3.01L31.74-3.01L31.74-3.01Q31.69-3.01 31.69-2.96L31.69-2.96L31.69-0.12L31.69-0.12Q31.69-0.07 31.65-0.04L31.65-0.04L31.65-0.04Q31.62 0 31.57 0L31.57 0L30.65 0L30.65 0Q30.60 0 30.56-0.04L30.56-0.04L30.56-0.04Q30.53-0.07 30.53-0.12L30.53-0.12L30.53-6.88L30.53-6.88Q30.53-6.93 30.56-6.96L30.56-6.96L30.56-6.96Q30.60-7 30.65-7L30.65-7L33.40-7L33.40-7Q34.01-7 34.48-6.75L34.48-6.75L34.48-6.75Q34.95-6.49 35.21-6.03L35.21-6.03L35.21-6.03Q35.47-5.56 35.47-4.96L35.47-4.96L35.47-4.96Q35.47-4.27 35.11-3.79L35.11-3.79L35.11-3.79Q34.76-3.30 34.13-3.11L34.13-3.11L34.13-3.11Q34.11-3.11 34.10-3.09L34.10-3.09L34.10-3.09Q34.09-3.07 34.10-3.05L34.10-3.05L35.51-0.14L35.51-0.14Q35.53-0.10 35.53-0.08L35.53-0.08L35.53-0.08Q35.53 0 35.42 0L35.42 0L34.46 0ZM31.74-6L31.74-6Q31.69-6 31.69-5.95L31.69-5.95L31.69-3.96L31.69-3.96Q31.69-3.91 31.74-3.91L31.74-3.91L33.24-3.91L33.24-3.91Q33.72-3.91 34.02-4.20L34.02-4.20L34.02-4.20Q34.31-4.48 34.31-4.95L34.31-4.95L34.31-4.95Q34.31-5.42 34.02-5.71L34.02-5.71L34.02-5.71Q33.72-6 33.24-6L33.24-6L31.74-6Z"/><path fill="#252530" transform="translate(30.36, 95.3)" d="M3.38-1.84L3.38-1.84Q3.35-1.81 3.36-1.78L3.36-1.78L3.36-1.78Q3.38-1.75 3.42-1.75L3.42-1.75L7.35-1.75L7.35-1.75Q7.42-1.75 7.47-1.70L7.47-1.70L7.47-1.70Q7.53-1.65 7.53-1.58L7.53-1.58L7.53-0.17L7.53-0.17Q7.53-0.10 7.47-0.05L7.47-0.05L7.47-0.05Q7.42 0 7.35 0L7.35 0L0.83 0L0.83 0Q0.75 0 0.70-0.05L0.70-0.05L0.70-0.05Q0.65-0.10 0.65-0.17L0.65-0.17L0.65-1.51L0.65-1.51Q0.65-1.64 0.74-1.73L0.74-1.73L0.74-1.73Q1.45-2.42 2.19-3.24L2.19-3.24L2.19-3.24Q2.93-4.06 3.12-4.26L3.12-4.26L3.12-4.26Q3.52-4.74 3.94-5.18L3.94-5.18L3.94-5.18Q5.26-6.64 5.26-7.35L5.26-7.35L5.26-7.35Q5.26-7.86 4.90-8.19L4.90-8.19L4.90-8.19Q4.54-8.51 3.96-8.51L3.96-8.51L3.96-8.51Q3.38-8.51 3.02-8.19L3.02-8.19L3.02-8.19Q2.65-7.86 2.65-7.32L2.65-7.32L2.65-6.96L2.65-6.96Q2.65-6.89 2.60-6.84L2.60-6.84L2.60-6.84Q2.55-6.79 2.48-6.79L2.48-6.79L0.77-6.79L0.77-6.79Q0.70-6.79 0.65-6.84L0.65-6.84L0.65-6.84Q0.59-6.89 0.59-6.96L0.59-6.96L0.59-7.64L0.59-7.64Q0.64-8.42 1.09-9.03L1.09-9.03L1.09-9.03Q1.54-9.63 2.28-9.95L2.28-9.95L2.28-9.95Q3.03-10.27 3.96-10.27L3.96-10.27L3.96-10.27Q4.99-10.27 5.75-9.88L5.75-9.88L5.75-9.88Q6.51-9.50 6.92-8.85L6.92-8.85L6.92-8.85Q7.34-8.19 7.34-7.40L7.34-7.40L7.34-7.40Q7.34-6.79 7.03-6.15L7.03-6.15L7.03-6.15Q6.73-5.51 6.12-4.77L6.12-4.77L6.12-4.77Q5.67-4.21 5.15-3.65L5.15-3.65L5.15-3.65Q4.63-3.10 3.60-2.06L3.60-2.06L3.38-1.84ZM12.24 0.16L12.24 0.16Q10.64 0.16 9.72-0.73L9.72-0.73L9.72-0.73Q8.79-1.62 8.79-3.16L8.79-3.16L8.79-6.99L8.79-6.99Q8.79-8.50 9.72-9.38L9.72-9.38L9.72-9.38Q10.64-10.27 12.24-10.27L12.24-10.27L12.24-10.27Q13.83-10.27 14.77-9.38L14.77-9.38L14.77-9.38Q15.70-8.50 15.70-6.99L15.70-6.99L15.70-3.16L15.70-3.16Q15.70-1.62 14.77-0.73L14.77-0.73L14.77-0.73Q13.83 0.16 12.24 0.16L12.24 0.16ZM12.24-1.59L12.24-1.59Q12.89-1.59 13.27-1.99L13.27-1.99L13.27-1.99Q13.66-2.39 13.66-3.06L13.66-3.06L13.66-7.05L13.66-7.05Q13.66-7.71 13.27-8.11L13.27-8.11L13.27-8.11Q12.89-8.51 12.24-8.51L12.24-8.51L12.24-8.51Q11.60-8.51 11.22-8.11L11.22-8.11L11.22-8.11Q10.83-7.71 10.83-7.05L10.83-7.05L10.83-3.06L10.83-3.06Q10.83-2.39 11.22-1.99L11.22-1.99L11.22-1.99Q11.60-1.59 12.24-1.59L12.24-1.59ZM19.76-1.84L19.76-1.84Q19.73-1.81 19.75-1.78L19.75-1.78L19.75-1.78Q19.76-1.75 19.81-1.75L19.81-1.75L23.74-1.75L23.74-1.75Q23.81-1.75 23.86-1.70L23.86-1.70L23.86-1.70Q23.91-1.65 23.91-1.58L23.91-1.58L23.91-0.17L23.91-0.17Q23.91-0.10 23.86-0.05L23.86-0.05L23.86-0.05Q23.81 0 23.74 0L23.74 0L17.21 0L17.21 0Q17.14 0 17.09-0.05L17.09-0.05L17.09-0.05Q17.04-0.10 17.04-0.17L17.04-0.17L17.04-1.51L17.04-1.51Q17.04-1.64 17.12-1.73L17.12-1.73L17.12-1.73Q17.84-2.42 18.57-3.24L18.57-3.24L18.57-3.24Q19.31-4.06 19.50-4.26L19.50-4.26L19.50-4.26Q19.91-4.74 20.33-5.18L20.33-5.18L20.33-5.18Q21.65-6.64 21.65-7.35L21.65-7.35L21.65-7.35Q21.65-7.86 21.29-8.19L21.29-8.19L21.29-8.19Q20.92-8.51 20.34-8.51L20.34-8.51L20.34-8.51Q19.76-8.51 19.40-8.19L19.40-8.19L19.40-8.19Q19.04-7.86 19.04-7.32L19.04-7.32L19.04-6.96L19.04-6.96Q19.04-6.89 18.99-6.84L18.99-6.84L18.99-6.84Q18.94-6.79 18.86-6.79L18.86-6.79L17.15-6.79L17.15-6.79Q17.08-6.79 17.03-6.84L17.03-6.84L17.03-6.84Q16.98-6.89 16.98-6.96L16.98-6.96L16.98-7.64L16.98-7.64Q17.02-8.42 17.47-9.03L17.47-9.03L17.47-9.03Q17.92-9.63 18.67-9.95L18.67-9.95L18.67-9.95Q19.42-10.27 20.34-10.27L20.34-10.27L20.34-10.27Q21.37-10.27 22.13-9.88L22.13-9.88L22.13-9.88Q22.90-9.50 23.31-8.85L23.31-8.85L23.31-8.85Q23.72-8.19 23.72-7.40L23.72-7.40L23.72-7.40Q23.72-6.79 23.42-6.15L23.42-6.15L23.42-6.15Q23.11-5.51 22.50-4.77L22.50-4.77L22.50-4.77Q22.05-4.21 21.53-3.65L21.53-3.65L21.53-3.65Q21.01-3.10 19.98-2.06L19.98-2.06L19.76-1.84ZM28.62 0.16L28.62 0.16Q27.03 0.16 26.10-0.73L26.10-0.73L26.10-0.73Q25.17-1.62 25.17-3.16L25.17-3.16L25.17-6.99L25.17-6.99Q25.17-8.50 26.10-9.38L26.10-9.38L26.10-9.38Q27.03-10.27 28.62-10.27L28.62-10.27L28.62-10.27Q30.22-10.27 31.15-9.38L31.15-9.38L31.15-9.38Q32.09-8.50 32.09-6.99L32.09-6.99L32.09-3.16L32.09-3.16Q32.09-1.62 31.15-0.73L31.15-0.73L31.15-0.73Q30.22 0.16 28.62 0.16L28.62 0.16ZM28.62-1.59L28.62-1.59Q29.28-1.59 29.66-1.99L29.66-1.99L29.66-1.99Q30.04-2.39 30.04-3.06L30.04-3.06L30.04-7.05L30.04-7.05Q30.04-7.71 29.66-8.11L29.66-8.11L29.66-8.11Q29.28-8.51 28.62-8.51L28.62-8.51L28.62-8.51Q27.99-8.51 27.60-8.11L27.60-8.11L27.60-8.11Q27.22-7.71 27.22-7.05L27.22-7.05L27.22-3.06L27.22-3.06Q27.22-2.39 27.60-1.99L27.60-1.99L27.60-1.99Q27.99-1.59 28.62-1.59L28.62-1.59Z"/></g>
</svg>
