<?xml version="1.0" encoding="UTF-8"?>
<svg width="820px" height="383px" viewBox="0 0 820 383" version="1.1" xmlns="http://www.w3.org/2000/svg" xmlns:xlink="http://www.w3.org/1999/xlink">
    <!-- Generator: Sketch 52.5 (67469) - http://www.bohemiancoding.com/sketch -->
    <title>tetimonial-yellow</title>
    <desc>Created with Sketch.</desc>
    <g id="Page-2" stroke="none" stroke-width="1" fill="none" fill-rule="evenodd">
        <g id="Artboard" transform="translate(-190.000000, -634.000000)" fill="#FDE6A3">
            <path d="M196.639333,902.44139 C178.187731,838.498701 196.639333,793.640625 277.982121,759.479172 C359.324908,725.317718 424,762.682282 470,744 C516,725.317718 483,636.423084 567.200921,636.423084 C651.401841,636.423084 672.419755,616.853559 812.133092,704.284897 C951.846428,791.716235 1011.18438,866.284953 1009,912.896939 C1007.54375,943.971597 937.921444,959.78933 800.133092,960.350137 C725.875522,926.848219 671.730492,916.291937 637.698003,928.681291 C586.64927,947.265323 624.783242,1007.52103 576.239008,1015.54441 C527.694775,1023.56779 482,960.350137 446.090548,960.350137 C410.181097,960.350137 402.958407,992.018983 348.479203,1003.7817 C294,1015.54441 215.090936,966.38408 196.639333,902.44139 Z" id="tetimonial-yellow"></path>
        </g>
    </g>
</svg>