<svg xmlns="http://www.w3.org/2000/svg" viewBox="0 0 1440 821.54"><defs><style>.cls-1{fill:#120d2f;}.cls-2{fill:#98b0dd;}.cls-3{fill:none;stroke:#fff;stroke-miterlimit:10;opacity:0.7;}.cls-4{fill:#fff;}</style></defs><title>Asset 12texture</title><g id="Layer_2" data-name="Layer 2"><g id="Layer_1-2" data-name="Layer 1"><path class="cls-1" d="M1440,28.58H1327.86a25.61,25.61,0,0,0-23.6,15.65l-96.66,229a12.56,12.56,0,0,1-21.38,3l-80.35-100.55a18.3,18.3,0,0,0-30.21,2.38l-13.78,24.22a9.44,9.44,0,0,1-14.59,2.28h0a18.29,18.29,0,0,0-27.94,3.81L938.91,337.85a30.14,30.14,0,0,1-49.41,2.56l-76.82-99.1a12,12,0,0,0-19.08.24l-113.42,154a47.57,47.57,0,0,1-46.82,18.56h0L547.14,392h0a47.5,47.5,0,0,0-25.53,2.36h0L382.45,436.14a20.73,20.73,0,0,1-3.48.74,240.24,240.24,0,0,1-32,.89c-2.13-.12-135.89-5.21-154.89-4.21L5.52,442.39h0L0,442.45l.07,4.47s0,0,0,0V821.54H1440Z"/><path class="cls-2" d="M499.07,320H501l5,12.6H504l-1.35-3.51h-5.22l-1.35,3.51H494Zm.54,3.42-1.53,4H502l-1.53-4c-.25-.65-.43-1.21-.43-1.21S499.86,322.77,499.61,323.42Z"/><path class="cls-2" d="M515.45,330.28a4.37,4.37,0,0,1-4.11,2.58,4.54,4.54,0,0,1-4.62-4.72,4.59,4.59,0,0,1,4.62-4.72,4.09,4.09,0,0,1,4,2.43l-1.46,1a2.69,2.69,0,0,0-2.56-1.71,2.79,2.79,0,0,0-2.77,3,2.74,2.74,0,0,0,2.77,3,2.82,2.82,0,0,0,2.67-1.8Z"/><path class="cls-2" d="M525.78,336.28h-1.84v-5a3.23,3.23,0,0,1-3,1.61,4.74,4.74,0,0,1,0-9.44,3.17,3.17,0,0,1,3,1.62v-1.37h1.84Zm-7.25-8.14a2.78,2.78,0,1,0,2.77-3A2.82,2.82,0,0,0,518.53,328.14Z"/><path class="cls-2" d="M528.21,323.67h1.84V329a1.85,1.85,0,0,0,2,2.12,2.45,2.45,0,0,0,2.34-2.66v-4.83h1.83v8.93h-1.83v-1.44a3.18,3.18,0,0,1-2.9,1.7,3.12,3.12,0,0,1-3.26-3.44Z"/><path class="cls-2" d="M538.58,320.18h2.09v2.07h-2.09Zm.12,3.49h1.84v8.93H538.7Z"/><path class="cls-2" d="M546.73,327.26c2,.39,3,1.2,3,2.7s-1.26,2.9-3.46,2.9a4.06,4.06,0,0,1-3.94-2.65l1.49-.94a2.69,2.69,0,0,0,2.47,2c.94,0,1.69-.5,1.69-1.28s-.66-1.1-2.1-1.39c-1.68-.34-3-1.11-3-2.7s1.51-2.5,3.19-2.5a3.46,3.46,0,0,1,3.58,2.22l-1.35.79a2.3,2.3,0,0,0-2.19-1.6c-.85,0-1.57.37-1.57,1S545.31,327,546.73,327.26Z"/><path class="cls-2" d="M551.59,320.18h2.09v2.07h-2.09Zm.13,3.49h1.83v8.93h-1.83Z"/><path class="cls-2" d="M555.28,323.67h1.44v-2.41h1.84v2.41h2v1.48h-2v4.73c0,.89.36,1.32,1.22,1.32a2.47,2.47,0,0,0,.67-.11l.16,1.55a3.84,3.84,0,0,1-1.33.22,2.33,2.33,0,0,1-2.56-2.65v-5.06h-1.44Z"/><path class="cls-2" d="M562.32,320.18h2.09v2.07h-2.09Zm.12,3.49h1.84v8.93h-1.84Z"/><path class="cls-2" d="M570.91,332.86a4.72,4.72,0,1,1,4.77-4.72A4.61,4.61,0,0,1,570.91,332.86Zm2.89-4.72a2.9,2.9,0,1,0-2.89,3A2.89,2.89,0,0,0,573.8,328.14Z"/><path class="cls-2" d="M585.63,332.6h-1.84v-5.52a1.81,1.81,0,0,0-2-2,2.5,2.5,0,0,0-2.34,2.78v4.71h-1.83v-8.93h1.83v1.5a3.55,3.55,0,0,1,3-1.75,2.93,2.93,0,0,1,3.11,3.12Z"/><path class="cls-2" d="M767,174h2l5,12.6h-2l-1.35-3.51h-5.23L764,186.6h-2Zm.54,3.42-1.53,4h3.93l-1.53-4c-.26-.65-.44-1.21-.44-1.21S767.79,176.77,767.54,177.42Z"/><path class="cls-2" d="M783.38,184.28a4.36,4.36,0,0,1-4.1,2.58,4.54,4.54,0,0,1-4.63-4.72,4.6,4.6,0,0,1,4.63-4.72,4.09,4.09,0,0,1,4,2.43l-1.46,1a2.68,2.68,0,0,0-2.55-1.71,2.79,2.79,0,0,0-2.78,3,2.75,2.75,0,0,0,2.78,3,2.79,2.79,0,0,0,2.66-1.8Z"/><path class="cls-2" d="M784.32,177.67h1.44v-2.41h1.83v2.41h2v1.48h-2v4.73c0,.89.36,1.32,1.23,1.32a2.4,2.4,0,0,0,.66-.11l.17,1.55a3.9,3.9,0,0,1-1.34.22,2.33,2.33,0,0,1-2.55-2.65v-5.06h-1.44Z"/><path class="cls-2" d="M791.35,174.18h2.09v2.07h-2.09Zm.13,3.49h1.84v8.93h-1.84Z"/><path class="cls-2" d="M800.07,186.6H798.3l-3.6-8.93h2l2.5,6.65,2.51-6.65h2Z"/><path class="cls-2" d="M810.9,186.6a2.57,2.57,0,0,1-.5-1.56,3.16,3.16,0,0,1-3,1.82,2.78,2.78,0,0,1-3-2.76c0-1.8,1.44-2.66,3.15-2.93l2.82-.45v-.38c0-1-.64-1.55-1.87-1.55s-1.85.54-1.85,1.17a1,1,0,0,0,0,.27l-1.63.56a1.76,1.76,0,0,1-.15-.72c0-1.39,1.35-2.65,3.6-2.65,2.43,0,3.71,1.08,3.71,3v3.92a3.82,3.82,0,0,0,.54,2.23Zm-.54-4.28v-.25l-2.41.41c-1.11.2-1.73.68-1.73,1.51a1.34,1.34,0,0,0,1.5,1.34A2.73,2.73,0,0,0,810.36,182.32Z"/><path class="cls-2" d="M813.6,177.67H815v-2.41h1.84v2.41h2v1.48h-2v4.73c0,.89.36,1.32,1.22,1.32a2.47,2.47,0,0,0,.67-.11l.16,1.55a3.84,3.84,0,0,1-1.33.22,2.33,2.33,0,0,1-2.56-2.65v-5.06H813.6Z"/><path class="cls-2" d="M820.64,174.18h2.09v2.07h-2.09Zm.13,3.49h1.83v8.93h-1.83Z"/><path class="cls-2" d="M829.23,186.86a4.72,4.72,0,1,1,4.77-4.72A4.61,4.61,0,0,1,829.23,186.86Zm2.9-4.72a2.9,2.9,0,1,0-2.9,3A2.9,2.9,0,0,0,832.13,182.14Z"/><path class="cls-2" d="M844,186.6h-1.83v-5.52a1.81,1.81,0,0,0-2-2,2.5,2.5,0,0,0-2.35,2.78v4.71H836v-8.93h1.83v1.5a3.56,3.56,0,0,1,3.05-1.75,2.93,2.93,0,0,1,3.11,3.12Z"/><path class="cls-2" d="M1166.92,7.29h-2.48V12.6h-2V0h5.21c2.65,0,4.27,1.49,4.27,3.56a3.63,3.63,0,0,1-3,3.57l3.13,5.47h-2.25Zm-2.48-1.69h3.13c1.61,0,2.45-.67,2.45-1.94s-.84-2-2.45-2h-3.13Z"/><path class="cls-2" d="M1174.86,8.53a2.66,2.66,0,0,0,2.72,2.72,2.75,2.75,0,0,0,2.66-1.85l1.43.85a4.23,4.23,0,0,1-4.14,2.61A4.53,4.53,0,0,1,1173,8.14a4.55,4.55,0,0,1,4.6-4.72,4.19,4.19,0,0,1,4.32,4.47v.64Zm0-1.4h5.33a2.49,2.49,0,0,0-2.61-2.23A2.83,2.83,0,0,0,1174.86,7.13Z"/><path class="cls-2" d="M1182.94,3.67h1.44V1.26h1.84V3.67h2V5.15h-2V9.88c0,.89.36,1.32,1.22,1.32a2.47,2.47,0,0,0,.67-.11l.16,1.55a3.84,3.84,0,0,1-1.33.22,2.33,2.33,0,0,1-2.56-2.65V5.15h-1.44Z"/><path class="cls-2" d="M1191.12,8.53a2.65,2.65,0,0,0,2.71,2.72,2.76,2.76,0,0,0,2.67-1.85l1.42.85a4.23,4.23,0,0,1-4.14,2.61,4.52,4.52,0,0,1-4.5-4.72,4.54,4.54,0,0,1,4.59-4.72,4.19,4.19,0,0,1,4.32,4.47v.64Zm0-1.4h5.32a2.49,2.49,0,0,0-2.61-2.23A2.82,2.82,0,0,0,1191.12,7.13Z"/><path class="cls-2" d="M1208.18,12.6h-1.84V7.08a1.81,1.81,0,0,0-2-2A2.5,2.5,0,0,0,1202,7.89V12.6h-1.83V3.67H1202v1.5a3.55,3.55,0,0,1,3-1.75,2.93,2.93,0,0,1,3.11,3.12Z"/><path class="cls-2" d="M1209.42,3.67h1.44V1.26h1.84V3.67h2V5.15h-2V9.88c0,.89.36,1.32,1.22,1.32a2.47,2.47,0,0,0,.67-.11l.16,1.55a3.84,3.84,0,0,1-1.33.22,2.33,2.33,0,0,1-2.56-2.65V5.15h-1.44Z"/><path class="cls-2" d="M1216.46.18h2.09V2.25h-2.09Zm.12,3.49h1.84V12.6h-1.84Z"/><path class="cls-2" d="M1225.05,12.86a4.62,4.62,0,0,1-4.78-4.72,4.78,4.78,0,0,1,9.55,0A4.61,4.61,0,0,1,1225.05,12.86Zm2.89-4.72a2.9,2.9,0,1,0-5.79,0,2.9,2.9,0,1,0,5.79,0Z"/><path class="cls-2" d="M1239.77,12.6h-1.84V7.08a1.81,1.81,0,0,0-2-2,2.5,2.5,0,0,0-2.34,2.78V12.6h-1.83V3.67h1.83v1.5a3.55,3.55,0,0,1,3.05-1.75,2.93,2.93,0,0,1,3.11,3.12Z"/><path class="cls-2" d="M1002.42,132.22h2.07l4.27,10.68,4.26-10.68h2.07v12.6h-1.87v-8.73c-.11.32-.65,1.78-.65,1.78l-2.88,6.95h-1.87l-2.88-6.95s-.54-1.46-.65-1.78v8.73h-1.87Z"/><path class="cls-2" d="M1021.88,145.07a4.72,4.72,0,1,1,4.77-4.71A4.61,4.61,0,0,1,1021.88,145.07Zm2.9-4.71a2.9,2.9,0,1,0-2.9,3A2.9,2.9,0,0,0,1024.78,140.36Z"/><path class="cls-2" d="M1036.6,144.82h-1.83v-5.53a1.8,1.8,0,0,0-2-2,2.5,2.5,0,0,0-2.35,2.77v4.72h-1.83v-8.93h1.83v1.5a3.55,3.55,0,0,1,3-1.75,2.93,2.93,0,0,1,3.11,3.11Z"/><path class="cls-2" d="M1040.31,140.75a2.66,2.66,0,0,0,2.72,2.72,2.76,2.76,0,0,0,2.66-1.85l1.42.84a4.22,4.22,0,0,1-4.14,2.61,4.72,4.72,0,0,1,.09-9.43,4.19,4.19,0,0,1,4.33,4.46v.65Zm0-1.4h5.33a2.5,2.5,0,0,0-2.61-2.23A2.82,2.82,0,0,0,1040.31,139.35Z"/><path class="cls-2" d="M1048.39,135.89h1.44v-2.41h1.84v2.41h2v1.48h-2v4.73c0,.89.36,1.32,1.22,1.32a2.93,2.93,0,0,0,.67-.11l.16,1.55a4.12,4.12,0,0,1-1.33.21,2.33,2.33,0,0,1-2.56-2.64v-5.06h-1.44Z"/><path class="cls-2" d="M1055.43,132.4h2.09v2.07h-2.09Zm.12,3.49h1.84v8.93h-1.84Z"/><path class="cls-2" d="M1066.75,143.27v1.55h-7.4v-1.55l5-5.83h-4.81v-1.55h6.89v1.55l-5,5.83Z"/><path class="cls-2" d="M1074.8,144.82a2.52,2.52,0,0,1-.51-1.56,3.15,3.15,0,0,1-3,1.81,2.77,2.77,0,0,1-3-2.75c0-1.8,1.44-2.67,3.15-2.94l2.83-.45v-.37c0-1-.65-1.55-1.87-1.55s-1.86.54-1.86,1.17a.79.79,0,0,0,0,.27l-1.64.56a1.79,1.79,0,0,1-.15-.72c0-1.39,1.36-2.65,3.61-2.65,2.43,0,3.7,1.08,3.7,3v3.93a3.75,3.75,0,0,0,.55,2.23Zm-.54-4.28v-.25l-2.41.41c-1.12.2-1.73.68-1.73,1.51a1.33,1.33,0,0,0,1.49,1.33A2.73,2.73,0,0,0,1074.26,140.54Z"/><path class="cls-2" d="M1077.5,135.89h1.44v-2.41h1.83v2.41h2v1.48h-2v4.73c0,.89.36,1.32,1.23,1.32a2.85,2.85,0,0,0,.66-.11l.16,1.55a4.07,4.07,0,0,1-1.33.21,2.32,2.32,0,0,1-2.55-2.64v-5.06h-1.44Z"/><path class="cls-2" d="M1084.53,132.4h2.09v2.07h-2.09Zm.13,3.49h1.84v8.93h-1.84Z"/><path class="cls-2" d="M1093.12,145.07a4.72,4.72,0,1,1,4.77-4.71A4.61,4.61,0,0,1,1093.12,145.07Zm2.9-4.71a2.9,2.9,0,1,0-2.9,3A2.9,2.9,0,0,0,1096,140.36Z"/><path class="cls-2" d="M1107.85,144.82H1106v-5.53a1.8,1.8,0,0,0-2-2,2.49,2.49,0,0,0-2.34,2.77v4.72h-1.84v-8.93h1.84v1.5a3.54,3.54,0,0,1,3-1.75,2.93,2.93,0,0,1,3.12,3.11Z"/><rect class="cls-2" x="537.9" y="381.51" width="1" height="4.5"/><path class="cls-2" d="M538.9,374.22h-1v-7.28h1Zm0-14.57h-1v-7.29h1Z"/><rect class="cls-2" x="537.9" y="340.58" width="1" height="4.5"/><rect class="cls-2" x="802.03" y="220.08" width="1" height="4.5"/><path class="cls-2" d="M803,212.68h-1v-7.4h1Zm0-14.8h-1v-7.4h1Z"/><rect class="cls-2" x="1197.53" y="274.08" width="1" height="4.5"/><path class="cls-2" d="M1198.53,264.94h-1V255.8h1Zm0-18.27h-1v-9.14h1Zm0-18.28h-1v-9.14h1Zm0-18.28h-1V201h1Zm0-18.27h-1V182.7h1Zm0-18.28h-1v-9.14h1Zm0-18.27h-1v-9.14h1Zm0-18.28h-1v-9.14h1Zm0-18.28h-1V109.6h1Zm0-18.27h-1V91.32h1Zm0-18.28h-1V73h1Zm0-18.27h-1V54.77h1Zm0-18.28h-1V36.49h1Zm0-18.28h-1V18.22h1Z"/><rect class="cls-2" x="1054.53" y="193.08" width="1" height="4.5"/><path class="cls-2" d="M1055.53,183.08h-1v-10h1Zm0-20h-1v-10h1Z"/><circle class="cls-3" cx="538.03" cy="393.58" r="9"/><circle class="cls-3" cx="803.03" cy="235.58" r="9"/><circle class="cls-3" cx="1055.03" cy="204.58" r="9"/><circle class="cls-3" cx="1198.03" cy="285.58" r="9"/><circle class="cls-4" cx="538.03" cy="393.58" r="3.96"/><circle class="cls-4" cx="803.03" cy="235.58" r="3.96"/><circle class="cls-4" cx="1055.03" cy="204.58" r="3.96"/><circle class="cls-4" cx="1198.03" cy="285.58" r="3.96"/></g></g></svg>