<svg xmlns="http://www.w3.org/2000/svg" viewBox="0 0 1439.78 761"><defs><style>.cls-1{fill:#c9d9f2;}</style></defs><title>Asset 11texture</title><g id="Layer_2" data-name="Layer 2"><g id="Layer_1-2" data-name="Layer 1"><path class="cls-1" d="M0,761V59.11L86.33,263.75a46.15,46.15,0,0,0,68.05,20.5l60-39.86a46.15,46.15,0,0,1,49.68-.89l114.27,70.16a46.15,46.15,0,0,0,39.19,4.3l53.09-18.31a46.18,46.18,0,0,1,26.87-1l268.26,71.16A68.37,68.37,0,0,0,839.26,343l73.27-104.5a46.13,46.13,0,0,1,55.6-16.07L1131,290.57a46.14,46.14,0,0,0,51.77-11.31L1439.78,0V761Z"/></g></g></svg>