<?xml version="1.0" encoding="utf-8"?>
<!-- Generator: Adobe Illustrator 24.1.2, SVG Export Plug-In . SVG Version: 6.00 Build 0)  -->
<svg version="1.1" id="Layer_1" xmlns="http://www.w3.org/2000/svg" xmlns:xlink="http://www.w3.org/1999/xlink" x="0px" y="0px"
	 viewBox="0 0 1350 1321.7" style="enable-background:new 0 0 1350 1321.7;" xml:space="preserve">
<style type="text/css">
	.st0{fill:#3C0D84;}
</style>
<g>
	<rect x="441.6" y="1051.8" class="st0" width="3.3" height="18.9"/>
	<rect x="572.7" y="749.9" class="st0" width="3.3" height="18.9"/>
	<rect x="835" y="426.2" class="st0" width="3.3" height="18.9"/>
	<rect x="835" y="456.7" class="st0" width="3.3" height="160.8"/>
	<path class="st0" d="M515.5,858.1c0-0.1,0-0.1-0.1-0.1c0-0.1,0-0.1-0.1-0.1c0-0.1-0.1-0.1-0.1-0.2c0,0,0-0.1-0.1-0.1l0,0
		c-0.1-0.1-0.1-0.1-0.1-0.1l-0.1-0.1c-0.1-0.1-0.1-0.1-0.1-0.1l-0.1-0.1c-0.1-0.1-0.1-0.1-0.1-0.1c-0.1,0-0.1-0.1-0.1-0.1
		s-0.1-0.1-0.1-0.1c-0.1,0-0.1,0-0.1-0.1c-0.1,0-0.1,0-0.1,0c-0.1,0-0.1,0-0.2,0l0,0h-39.6c-3.8-28.9-17.4-54.9-37.5-74.4l-2.1,2.6
		c19.4,18.9,32.5,44,36.2,71.9h-27.7c-0.9,0-1.7,0.7-1.7,1.7v96.2c-23.5,26.9-57.4,42.3-93.1,42.3c-6.7,0-13.4-0.5-19.8-1.6l-1,3.2
		c6.7,1.1,13.7,1.7,20.8,1.7c1.6,0,3.2-0.1,4.7-0.1c6.7,18.6,10.1,38.1,10.1,58c0,93.8-76.3,170.2-170.2,170.2
		c-79.1,0-145.8-54.3-164.8-127.5l-3.3,0.4c19.2,74.9,87.3,130.4,168.1,130.4c95.7,0,173.5-77.8,173.5-173.5c0-20-3.4-39.5-10-58.1
		c32.4-2.1,62.8-16.5,84.9-40.4v80.5h3.3V860.3h40.3v458h-40.3v-235.7h-3.4v237.3c0,0.9,0.7,1.7,1.7,1.7h70.6c0.9,0,1.7-0.7,1.7-1.7
		V858.6c0-0.1,0-0.1,0-0.1C515.5,858.3,515.5,858.2,515.5,858.1z M512.2,1253.7l-23.8,15.1v-13.3l23.8-15.1V1253.7z M512.2,1236.5
		l-23.8,15.1v-13.3l23.8-15.1V1236.5z M512.2,1219.3l-23.8,15.1v-13.3l23.8-15.1V1219.3z M512.2,1202.1l-23.8,15.1v-13.3l23.8-15.1
		V1202.1z M512.2,1184.9l-23.8,15.1v-13.3l23.8-15.1V1184.9z M512.2,1167.6l-23.8,15.1v-13.3l23.8-15.1V1167.6z M512.2,1150.4
		l-23.8,15.1v-13.3l23.8-15.1V1150.4z M512.2,1133.2l-23.8,15.1V1135l23.8-15.1V1133.2z M512.2,1116l-23.8,15.1v-13.3l23.8-15.1
		V1116z M512.2,1098.7l-23.8,15.1v-13.3l23.8-15.1V1098.7z M512.2,1081.5l-23.8,15.1v-13.3l23.8-15.1V1081.5z M512.2,1064.3
		l-23.8,15.1v-13.3l23.8-15.1V1064.3z M512.2,1047.1l-23.8,15.1v-13.3l23.8-15.1V1047.1z M512.2,1029.8l-23.8,15.1v-13.3l23.8-15.1
		V1029.8z M512.2,1012.6l-23.8,15.1v-13.3l23.8-15.1V1012.6z M512.2,995.4l-23.8,15.1v-13.3l23.8-15.1V995.4z M512.2,978.1
		l-23.8,15.1V980l23.8-15.1V978.1z M512.2,960.9L488.4,976v-13.3l23.8-15.1V960.9z M512.2,943.7l-23.8,15.1v-13.3l23.8-15.1V943.7z
		 M512.2,926.4l-23.8,15.1v-13.3l23.8-15.1V926.4z M512.2,909.2l-23.8,15.1V911l23.8-15.1V909.2z M512.2,892l-23.8,15.1v-13.3
		l23.8-15.1V892z M488.5,1272.8l23.8-15.1v13.3l-23.8,15.1V1272.8z M512.2,874.8l-23.8,15.1v-13.3l23.8-15.1V874.8z M488.5,1290
		l23.8-15.1v13.3l-23.8,15.1V1290z M508.2,860.1l-19.7,12.6v-12.6H508.2z M488.5,1307.2l23.8-15.1v13.3l-19.8,12.6h-3.8
		L488.5,1307.2L488.5,1307.2z M512.2,1318.1h-13.7l13.7-8.7V1318.1z"/>
	<path class="st0" d="M908.9,383.6c0-0.1,0-0.1-0.1-0.1c0-0.1,0-0.1-0.1-0.1c0-0.1-0.1-0.1-0.1-0.2c0,0,0-0.1-0.1-0.1l0,0
		c-0.1-0.1-0.1-0.1-0.1-0.1l-0.1-0.1c-0.1-0.1-0.1-0.1-0.1-0.1c-0.1,0-0.1-0.1-0.1-0.1c-0.1-0.1-0.1-0.1-0.1-0.1
		c-0.1,0-0.1-0.1-0.1-0.1c-0.1,0-0.1-0.1-0.2-0.1c-0.1,0-0.1,0-0.1-0.1c-0.1,0-0.1,0-0.1,0c-0.1,0-0.1,0-0.1,0l0,0h-70.6
		c-0.9,0-1.7,0.7-1.7,1.7v30.6h3.3v-28.9h40.3v932.5h-40.3V638.6l7.7,7.7c0.7,0.7,1.5,0.9,2.4,0.9c0.9,0,1.7-0.3,2.4-0.9
		c1.3-1.3,1.3-3.4,0-4.7L844,635l-5.1-5.1c-0.2-0.2-0.5-0.3-0.7-0.5c-1-0.5-2.3-0.5-3.3,0c-0.3,0.1-0.5,0.3-0.7,0.5l-5.1,5.1
		l-6.7,6.7c-1.3,1.3-1.3,3.4,0,4.7c1.3,1.3,3.4,1.3,4.7,0l7.7-7.7V1320c0,0.9,0.7,1.7,1.7,1.7h70.7c0.9,0,1.7-0.7,1.7-1.7V383.9
		c0-0.1,0-0.1,0-0.1C908.9,383.8,908.9,383.7,908.9,383.6z M905.6,1261.6l-23.8,15.1v-13.3l23.8-15.1V1261.6z M905.6,1244.3
		l-23.8,15.1v-13.3l23.8-15.1V1244.3z M905.6,1227.1l-23.8,15.1V1229l23.8-15.1V1227.1z M905.6,1209.9l-23.8,15.1v-13.3l23.8-15.1
		V1209.9z M905.6,1192.6l-23.8,15.1v-13.3l23.8-15.1V1192.6z M905.6,1175.4l-23.8,15.1v-13.3l23.8-15.1V1175.4z M905.6,1158.2
		l-23.8,15.1V1160l23.8-15.1V1158.2z M905.6,1141l-23.8,15.1v-13.3l23.8-15.1V1141z M905.6,1123.7l-23.8,15.1v-13.3l23.8-15.1
		V1123.7z M905.6,1106.5l-23.8,15.1v-13.3l23.8-15.1V1106.5z M905.6,1089.3l-23.8,15.1v-13.3l23.8-15.1V1089.3z M905.6,1072.1
		l-23.8,15.1v-13.3l23.8-15.1V1072.1z M905.6,1054.9l-23.8,15.1v-13.3l23.8-15.1V1054.9z M905.6,1037.6l-23.8,15.1v-13.3l23.8-15.1
		V1037.6z M905.6,1020.4l-23.8,15.1v-13.3l23.8-15.1V1020.4z M905.6,1003.2l-23.8,15.1V1005l23.8-15.1V1003.2z M905.6,986
		l-23.8,15.1v-13.3l23.8-15.1V986z M905.6,968.7l-23.8,15.1v-13.3l23.8-15.1V968.7z M905.6,951.5l-23.8,15.1v-13.3l23.8-15.1V951.5z
		 M905.6,934.3l-23.8,15.1v-13.3l23.8-15.1V934.3z M905.6,917.1l-23.8,15.1v-13.3l23.8-15.1V917.1z M905.6,899.8L881.8,915v-13.3
		l23.8-15.1V899.8z M905.6,882.6l-23.8,15.1v-13.3l23.8-15.1V882.6z M905.6,865.4l-23.8,15.1v-13.3l23.8-15.1V865.4z M905.6,848.1
		l-23.8,15.1V850l23.8-15.1V848.1z M905.6,830.9l-23.8,15.1v-13.3l23.8-15.1V830.9z M905.6,813.7l-23.8,15.1v-13.3l23.8-15.1V813.7z
		 M905.6,796.4l-23.8,15.1v-13.3l23.8-15.1V796.4z M905.6,779.2l-23.8,15.1v-13.3l23.8-15.1V779.2z M905.6,762l-23.8,15.1v-13.3
		l23.8-15.1V762z M905.6,744.8l-23.8,15.1v-13.3l23.8-15.1V744.8z M905.6,727.5l-23.8,15.1v-13.3l23.8-15.1V727.5z M905.6,710.3
		l-23.8,15.1v-13.3l23.8-15.1V710.3z M905.6,693.1l-23.8,15.1v-13.3l23.8-15.1V693.1z M905.6,675.9L881.8,691v-13.3l23.8-15.1V675.9
		z M905.6,658.6l-23.8,15.1v-13.3l23.8-15.1V658.6z M905.6,641.4l-23.8,15.1v-13.3l23.8-15.1V641.4z M905.6,624.2l-23.8,15.1V626
		l23.8-15.1V624.2z M905.6,607l-23.8,15.1v-13.3l23.8-15.1V607z M905.6,589.8l-23.8,15.1v-13.3l23.8-15.1V589.8z M905.6,572.5
		l-23.8,15.1v-13.3l23.8-15.1V572.5z M905.6,555.3l-23.8,15.1v-13.3l23.8-15.1V555.3z M905.6,538.1l-23.8,15.1v-13.3l23.8-15.1
		V538.1z M905.6,520.9L881.8,536v-13.3l23.8-15.1V520.9z M905.6,503.6l-23.8,15.1v-13.3l23.8-15.1V503.6z M905.6,486.4l-23.8,15.1
		v-13.3l23.8-15.1V486.4z M905.6,469.2l-23.8,15.1V471l23.8-15.1V469.2z M905.6,451.9l-23.8,15.1v-13.3l23.8-15.1V451.9z
		 M905.6,434.7l-23.8,15.1v-13.3l23.8-15.1V434.7z M905.6,417.5l-23.8,15.1v-13.3l23.8-15.1V417.5z M881.9,1280.6l23.8-15.1v13.3
		l-23.8,15.1V1280.6z M905.6,400.2l-23.8,15.1v-13.3l23.8-15.1V400.2z M881.9,1297.8l23.8-15.1v13.3l-23.8,15.1V1297.8z
		 M901.6,385.6l-19.7,12.6v-12.6H901.6z M905.6,1318.1h-23.8v-3l23.8-15.1V1318.1z"/>
	<path class="st0" d="M777.8,541.4c0-0.1,0-0.1-0.1-0.1c0-0.1,0-0.1-0.1-0.1c0-0.1-0.1-0.1-0.1-0.2c0,0,0-0.1-0.1-0.1l0,0
		c-0.1-0.1-0.1-0.1-0.1-0.2l-0.1-0.1c-0.1-0.1-0.1-0.1-0.1-0.1c-0.1,0-0.1-0.1-0.1-0.1c-0.1-0.1-0.1-0.1-0.2-0.1c0,0-0.1,0-0.1-0.1
		c-0.1,0-0.1-0.1-0.2-0.1h-0.1c-0.1,0-0.1,0-0.1,0c-0.1,0-0.1,0-0.1,0l0,0h-70.7c-0.9,0-1.7,0.7-1.7,1.7v411l-7.7-7.7
		c-1.3-1.3-3.4-1.3-4.7,0c-1.3,1.3-1.3,3.4,0,4.7l6.7,6.7l5.1,5.1c0.2,0.2,0.5,0.3,0.7,0.5c0.5,0.3,1.1,0.5,1.7,0.5s1.1-0.1,1.7-0.5
		c0.3-0.1,0.5-0.3,0.7-0.5l11.7-11.7c1.3-1.3,1.3-3.4,0-4.7c-1.3-1.3-3.4-1.3-4.7,0l-7.7,7.7V543.4h40.3v774.7h-40.3V973.6h-3.3
		v346.1c0,0.9,0.7,1.7,1.7,1.7h70.6c0.9,0,1.7-0.7,1.7-1.7v-778c0-0.1,0-0.1,0-0.1C777.8,541.6,777.8,541.5,777.8,541.4z
		 M774.5,1264.3l-23.8,15.1v-13.3l23.8-15.1V1264.3z M774.5,1247.1l-23.8,15.1v-13.3l23.8-15.1V1247.1z M774.5,1229.9l-23.8,15.1
		v-13.3l23.8-15.1V1229.9z M774.5,1212.7l-23.8,15.1v-13.3l23.8-15.1V1212.7z M774.5,1195.4l-23.8,15.1v-13.3l23.8-15.1V1195.4z
		 M774.5,1178.2l-23.8,15.1V1180l23.8-15.1V1178.2z M774.5,1161l-23.8,15.1v-13.3l23.8-15.1V1161z M774.5,1143.8l-23.8,15.1v-13.3
		l23.8-15.1V1143.8z M774.5,1126.5l-23.8,15.1v-13.3l23.8-15.1V1126.5z M774.5,1109.3l-23.8,15.1v-13.3l23.8-15.1V1109.3z
		 M774.5,1092.1l-23.8,15.1v-13.3l23.8-15.1V1092.1z M774.5,1074.9l-23.8,15.1v-13.3l23.8-15.1V1074.9z M774.5,1057.6l-23.8,15.1
		v-13.3l23.8-15.1V1057.6z M774.5,1040.4l-23.8,15.1v-13.3l23.8-15.1V1040.4z M774.5,1023.2l-23.8,15.1V1025l23.8-15.1V1023.2z
		 M774.5,1005.9l-23.8,15.1v-13.3l23.8-15.1V1005.9z M774.5,988.7l-23.8,15.1v-13.3l23.8-15.1V988.7z M774.5,971.5l-23.8,15.1v-13.3
		l23.8-15.1V971.5z M774.5,954.2l-23.8,15.1v-13.3l23.8-15.1V954.2z M774.5,937l-23.8,15.1v-13.3l23.8-15.1V937z M774.5,919.8
		l-23.8,15.1v-13.3l23.8-15.1V919.8z M774.5,902.6l-23.8,15.1v-13.3l23.8-15.1V902.6z M774.5,885.3l-23.8,15.1v-13.3l23.8-15.1
		V885.3z M774.5,868.1l-23.8,15.1v-13.3l23.8-15.1V868.1z M774.5,850.9L750.7,866v-13.3l23.8-15.1V850.9z M774.5,833.7l-23.8,15.1
		v-13.3l23.8-15.1V833.7z M774.5,816.5l-23.8,15.1v-13.3l23.8-15.1V816.5z M774.5,799.2l-23.8,15.1V801l23.8-15.1V799.2z M774.5,782
		l-23.8,15.1v-13.3l23.8-15.1V782z M774.5,764.8l-23.8,15.1v-13.3l23.8-15.1V764.8z M774.5,747.6l-23.8,15.1v-13.3l23.8-15.1V747.6z
		 M774.5,730.3l-23.8,15.1v-13.3l23.8-15.1V730.3z M774.5,713.1l-23.8,15.1v-13.3l23.8-15.1V713.1z M774.5,695.9L750.7,711v-13.3
		l23.8-15.1V695.9z M774.5,678.7l-23.8,15.1v-13.3l23.8-15.1V678.7z M774.5,661.5l-23.8,15.1v-13.3l23.8-15.1V661.5z M774.5,644.2
		l-23.8,15.1V646l23.8-15.1V644.2z M774.5,627l-23.8,15.1v-13.3l23.8-15.1V627z M774.5,609.8l-23.8,15.1v-13.3l23.8-15.1V609.8z
		 M774.5,592.5l-23.8,15.1v-13.3l23.8-15.1V592.5z M774.5,575.3l-23.8,15.1v-13.3l23.8-15.1V575.3z M750.8,1283.4l23.8-15.1v13.3
		l-23.8,15.1V1283.4z M774.5,558.1l-23.8,15.1v-13.3l23.8-15.1V558.1z M750.8,1300.6l23.8-15.1v13.3l-23.8,15.1V1300.6z
		 M770.5,543.4L750.8,556v-12.6H770.5z M774.5,1318.1h-23.8v-0.3l23.8-15.1V1318.1z"/>
	<path class="st0" d="M646.6,699.2c0-0.1,0-0.1-0.1-0.1c0-0.1,0-0.1-0.1-0.1c0-0.1-0.1-0.1-0.1-0.2c0,0,0-0.1-0.1-0.1l0,0
		c-0.1-0.1-0.1-0.1-0.1-0.1l-0.1-0.1c-0.1-0.1-0.1-0.1-0.1-0.1c-0.1,0-0.1-0.1-0.1-0.1s-0.1-0.1-0.1-0.1c-0.1,0-0.1-0.1-0.1-0.1
		c-0.1,0-0.1-0.1-0.2-0.1c-0.1,0-0.1,0-0.1-0.1c-0.1,0-0.1,0-0.1,0c-0.1,0-0.1,0-0.2,0l0,0h-70.6c-0.9,0-1.7,0.7-1.7,1.7v38.7h3.3
		v-37h40.3v616.9H576V780.7h-3.3V1320c0,0.9,0.7,1.7,1.7,1.7h70.6c0.9,0,1.7-0.7,1.7-1.7V699.8c0-0.1,0-0.1,0-0.1
		C646.6,699.4,646.6,699.3,646.6,699.2z M643.3,1267.1l-23.8,15.1v-13.3l23.8-15.1V1267.1z M643.3,1249.9l-23.8,15.1v-13.3
		l23.8-15.1V1249.9z M643.3,1232.7l-23.8,15.1v-13.3l23.8-15.1V1232.7z M643.3,1215.5l-23.8,15.1v-13.3l23.8-15.1V1215.5z
		 M643.3,1198.2l-23.8,15.1V1200l23.8-15.1V1198.2z M643.3,1181l-23.8,15.1v-13.3l23.8-15.1V1181z M643.3,1163.8l-23.8,15.1v-13.3
		l23.8-15.1V1163.8z M643.3,1146.5l-23.8,15.1v-13.3l23.8-15.1V1146.5z M643.3,1129.3l-23.8,15.1v-13.3l23.8-15.1V1129.3z
		 M643.3,1112.1l-23.8,15.1v-13.3l23.8-15.1V1112.1z M643.3,1094.8l-23.8,15.1v-13.3l23.8-15.1V1094.8z M643.3,1077.6l-23.8,15.1
		v-13.3l23.8-15.1V1077.6z M643.3,1060.4l-23.8,15.1v-13.3l23.8-15.1V1060.4z M643.3,1043.1l-23.8,15.1V1045l23.8-15.1V1043.1z
		 M643.3,1025.9l-23.8,15.1v-13.3l23.8-15.1V1025.9z M643.3,1008.7l-23.8,15.1v-13.3l23.8-15.1V1008.7z M643.3,991.5l-23.8,15.1
		v-13.3l23.8-15.1V991.5z M643.3,974.3l-23.8,15.1v-13.3l23.8-15.1V974.3z M643.3,957l-23.8,15.1v-13.3l23.8-15.1V957z M643.3,939.8
		l-23.8,15.1v-13.3l23.8-15.1V939.8z M643.3,922.6l-23.8,15.1v-13.3l23.8-15.1V922.6z M643.3,905.4l-23.8,15.1v-13.3l23.8-15.1
		V905.4z M643.3,888.1l-23.8,15.1v-13.3l23.8-15.1V888.1z M643.3,870.9L619.6,886v-13.3l23.8-15.1V870.9z M643.3,853.7l-23.8,15.1
		v-13.3l23.8-15.1V853.7z M643.3,836.5l-23.8,15.1v-13.3l23.8-15.1V836.5z M643.3,819.3l-23.8,15.1v-13.3l23.8-15.1V819.3z
		 M643.3,802l-23.8,15.1v-13.3l23.8-15.1V802z M643.3,784.8l-23.8,15.1v-13.3l23.8-15.1V784.8z M643.3,767.6l-23.8,15.1v-13.3
		l23.8-15.1V767.6z M643.3,750.3l-23.8,15.1v-13.3l23.8-15.1V750.3z M643.3,733.1l-23.8,15.1v-13.3l23.8-15.1V733.1z M619.6,1286.1
		l23.8-15.1v13.3l-23.8,15.1V1286.1z M643.3,715.9L619.6,731v-13.3l23.8-15.1V715.9z M619.6,1303.4l23.8-15.1v13.3l-23.8,15.1
		V1303.4z M639.3,701.2l-19.7,12.6v-12.6H639.3z M643.3,1318.1h-19.8l19.8-12.6V1318.1z"/>
	<path class="st0" d="M871.9,224.2c-31.9,0-57.8,25.9-57.8,57.8s25.9,57.8,57.8,57.8c31.9,0,57.8-25.9,57.8-57.8
		S903.8,224.2,871.9,224.2z M871.9,336.3c-30,0-54.5-24.4-54.5-54.5s24.4-54.5,54.5-54.5c30,0,54.5,24.4,54.5,54.5
		S902,336.3,871.9,336.3z"/>
	<path class="st0" d="M871.9,237.8c-24.3,0-44.1,19.8-44.1,44.1c0,24.3,19.8,44.1,44.1,44.1c24.3,0,44.1-19.8,44.1-44.1
		C916,257.6,896.3,237.8,871.9,237.8z M871.9,322.7c-22.5,0-40.8-18.3-40.8-40.8c0-22.5,18.3-40.8,40.8-40.8
		c22.5,0,40.8,18.3,40.8,40.8C912.7,304.4,894.4,322.7,871.9,322.7z"/>
	<path class="st0" d="M877.3,258.6h-3.6v-4.7c0-0.9-0.7-1.7-1.7-1.7s-1.7,0.7-1.7,1.7v4.7h-3.6c-4,0-7.2,3.2-7.2,7.2v10.6
		c0,4,3.2,7.2,7.2,7.2h3.6V302h-3.6c-2.2,0-3.8-1.8-3.8-3.8V295c0-0.9-0.7-1.7-1.7-1.7c-0.9,0-1.7,0.7-1.7,1.7v3
		c0,4,3.2,7.2,7.2,7.2h3.6v4.7c0,0.9,0.7,1.7,1.7,1.7s1.7-0.7,1.7-1.7v-4.7h3.6c4,0,7.2-3.2,7.2-7.2v-10.6c0-4-3.2-7.2-7.2-7.2h-3.6
		v-18.3h3.6c2.2,0,3.8,1.8,3.8,3.8v2.8c0,0.9,0.7,1.7,1.7,1.7s1.7-0.7,1.7-1.7v-2.8C884.4,261.8,881.2,258.6,877.3,258.6z
		 M877.3,283.5c2.2,0,3.8,1.8,3.8,3.8V298c0,2.2-1.8,3.8-3.8,3.8h-3.6v-18.4L877.3,283.5L877.3,283.5z M870.3,280.2h-3.6
		c-2.2,0-3.8-1.8-3.8-3.8v-10.6c0-2.2,1.8-3.8,3.8-3.8h3.6V280.2z"/>
	<path class="st0" d="M871.9,78.2c-31.9,0-57.8,25.9-57.8,57.8s25.9,57.8,57.8,57.8c31.9,0,57.8-25.9,57.8-57.8
		S903.8,78.2,871.9,78.2z M871.9,190.3c-30,0-54.5-24.4-54.5-54.5s24.4-54.5,54.5-54.5c30,0,54.5,24.4,54.5,54.5
		S902,190.3,871.9,190.3z"/>
	<path class="st0" d="M871.9,91.8c-24.3,0-44.1,19.8-44.1,44.1s19.8,44.1,44.1,44.1c24.3,0,44.1-19.8,44.1-44.1
		S896.3,91.8,871.9,91.8z M871.9,176.7c-22.5,0-40.8-18.3-40.8-40.8s18.3-40.8,40.8-40.8c22.5,0,40.8,18.3,40.8,40.8
		S894.4,176.7,871.9,176.7z"/>
	<path class="st0" d="M877.3,112.6h-3.6v-4.7c0-0.9-0.7-1.7-1.7-1.7s-1.7,0.7-1.7,1.7v4.7h-3.6c-4,0-7.2,3.2-7.2,7.2v10.6
		c0,4,3.2,7.2,7.2,7.2h3.6v18.3h-3.6c-2.2,0-3.8-1.8-3.8-3.8v-3c0-0.9-0.7-1.7-1.7-1.7c-0.9,0-1.7,0.7-1.7,1.7v3
		c0,4,3.2,7.2,7.2,7.2h3.6v4.7c0,0.9,0.7,1.7,1.7,1.7s1.7-0.7,1.7-1.7v-4.7h3.6c4,0,7.2-3.2,7.2-7.2v-10.6c0-4-3.2-7.2-7.2-7.2h-3.6
		v-18.4h3.6c2.2,0,3.8,1.8,3.8,3.8v2.8c0,0.9,0.7,1.7,1.7,1.7s1.7-0.7,1.7-1.7v-2.8C884.4,115.8,881.2,112.6,877.3,112.6z
		 M877.3,137.6c2.2,0,3.8,1.8,3.8,3.8V152c0,2.2-1.8,3.8-3.8,3.8h-3.6v-18.4L877.3,137.6L877.3,137.6z M870.3,134.2h-3.6
		c-2.2,0-3.8-1.8-3.8-3.8v-10.6c0-2.2,1.8-3.8,3.8-3.8h3.6V134.2z"/>
	<path class="st0" d="M316.2,996.2l0.9-3.2c-6.1-1.6-12.1-3.7-17.9-6.2l-1,3.2C304.2,992.4,310.1,994.5,316.2,996.2z"/>
	<path class="st0" d="M159,985.5c0.2,0.4,0.5,0.7,0.9,0.9c0.4,0.1,0.9,0.1,1.3,0c6.7-3,13.8-5,21.1-6l0.2-3.4
		c-7.3,0.9-14.3,2.8-21.1,5.7l-35.8-80.7c21.4-9.2,44.1-14,67.6-14c9.9,0,19.9,0.9,29.6,2.6c5.5,40.7,30.4,75.3,65,94.2l1-3.2
		c-38.1-21.1-63.9-61.6-63.9-108.1c0-10,1.2-20,3.6-29.6L348.1,875c0.5,0.1,0.9,0.1,1.3-0.2c0.4-0.3,0.7-0.7,0.7-1.1l20.2-122
		c17.5,3.1,33.7,10,47.9,19.7l-10.2,0.9c-1.8,0.1-3.2,1.8-3,3.6c0.1,1.7,1.6,3,3.3,3c0.1,0,0.2,0,0.3,0l9.4-0.9l7.1-0.6
		c0.3,0,0.7-0.1,0.9-0.3c1.1-0.5,1.9-1.4,2-2.6c0-0.3,0.1-0.5,0-0.7l-0.7-7.1l-0.9-9.4c-0.1-1.8-1.8-3.2-3.6-3
		c-1.8,0.1-3.2,1.8-3,3.6l1,11.3c-15.2-10.6-32.7-18-51.8-21.1c-0.9-0.1-1.8,0.5-1.9,1.3l-20.2,121.9l-119.5-31.2
		c-0.4-0.1-0.9-0.1-1.3,0.2c-0.4,0.2-0.7,0.6-0.7,1c-2.7,10.4-4,21.2-4,32.1c0,4.7,0.3,9.2,0.7,13.7c-9.6-1.6-19.4-2.4-29.2-2.4
		c-24.5,0-48.2,5-70.5,14.9c-0.8,0.3-1.2,1.3-0.8,2.2L159,985.5z"/>
	<path class="st0" d="M23,1058.2c0-8.4,0.6-16.9,1.9-25.3l87.1,14c-0.5,3.8-0.8,7.6-0.8,11.3c0,45.2,36.8,81.9,81.9,81.9
		s81.9-36.8,81.9-81.9c0-41.7-31.3-76.2-71.7-81.3l8.2-7.2c1.3-1.2,1.5-3.3,0.3-4.7c-1.2-1.3-3.3-1.5-4.7-0.3l-7.1,6.2l-5.3,4.7
		c-0.2,0.2-0.4,0.4-0.6,0.7c-0.7,1-0.7,2.2-0.2,3.3c0.1,0.3,0.3,0.5,0.5,0.7l4.7,5.3l6.2,7.1c0.7,0.7,1.6,1.1,2.5,1.1
		c0.7,0,1.6-0.3,2.2-0.8c1.3-1.2,1.5-3.3,0.3-4.7l-7.1-8.1c38.5,5,68.4,38.1,68.4,78c0,43.3-35.3,78.6-78.6,78.6
		s-78.6-35.3-78.6-78.6c0-4.1,0.3-8.3,1-12.4c0.1-0.9-0.5-1.8-1.3-1.9l-90.4-14.5c-0.4-0.1-0.9,0.1-1.2,0.3
		c-0.3,0.3-0.6,0.7-0.7,1.1c-1.4,9-2.2,18.3-2.2,27.5c0,0.4,0,0.8,0,1.2l3.3-0.4C23,1058.7,23,1058.5,23,1058.2z"/>
	<path class="st0" d="M23.4,1070.7l-3.3,0.4c0.5,6.3,1.3,12.6,2.4,18.8l3.3-0.4C24.7,1083.3,23.8,1077,23.4,1070.7z"/>
	<path class="st0" d="M92.2,1030.7c0.3,0,0.7-0.1,0.9-0.3c0.3-0.3,0.6-0.7,0.7-1.1c0.7-4.2,1.7-8.2,3-12.2c0-0.1,0.1-0.1,0.1-0.2
		c1.8-5.3,4-10.3,6.7-14.9c0.1-0.2,0.2-0.4,0.3-0.6c3.4-5.6,7.4-10.7,12-15.3c0.2-0.1,0.4-0.3,0.5-0.5c6.6-6.4,14.3-11.7,23-15.6
		l0,0l0,0c0,0,0.1,0,0.1-0.1c0.1-0.1,0.1-0.1,0.2-0.1c0.1,0,0.1-0.1,0.1-0.1c0.1-0.1,0.1-0.1,0.1-0.1c0.1-0.1,0.1-0.1,0.1-0.1
		c0-0.1,0.1-0.1,0.1-0.1c0-0.1,0.1-0.1,0.1-0.1c0-0.1,0.1-0.1,0.1-0.1c0-0.1,0.1-0.1,0.1-0.1c0-0.1,0-0.1,0.1-0.1c0-0.1,0-0.1,0-0.2
		v-0.1l0,0c0-0.1,0-0.1,0-0.2c0-0.1,0-0.1,0-0.1c0-0.1,0-0.1-0.1-0.1c0-0.1-0.1-0.1-0.1-0.2l0,0L111.7,903l0,0l-8.4-19
		c-0.2-0.4-0.5-0.7-0.9-0.9c-0.4-0.1-0.9-0.1-1.3,0c-11.5,5.1-22.5,11.5-32.6,19c-0.1,0.1-0.3,0.2-0.3,0.3
		c-6.6,4.9-12.8,10.3-18.6,16.1c-0.1,0.1-0.2,0.2-0.3,0.3c-5.1,5.1-9.9,10.5-14.4,16.3l-0.1,0.1c-0.1,0.1-0.2,0.3-0.3,0.4
		c-3.9,5-7.5,10.3-10.8,15.7c-0.1,0.1-0.2,0.3-0.3,0.5c-3.1,5.1-6,10.4-8.6,15.9c-0.1,0.1-0.1,0.3-0.2,0.5
		c-2.4,5.2-4.6,10.5-6.5,15.9c-0.1,0.2-0.1,0.3-0.2,0.5c-1.8,5.2-3.4,10.5-4.7,15.8c-0.1,0.2-0.1,0.3-0.1,0.5c-1.1,4.5-2,9-2.8,13.6
		c-0.1,0.9,0.5,1.8,1.3,1.9l90.4,14.5C92.1,1030.7,92.1,1030.7,92.2,1030.7z M100.9,886.9l6.7,15.1H74.5
		C82.8,896.2,91.7,891.1,100.9,886.9z M69.9,905.2h39.2l5.7,12.9H54.6C59.4,913.5,64.5,909.3,69.9,905.2z M51.2,921.5h65.1l5.7,12.9
		H39.5C43.1,929.9,47.1,925.6,51.2,921.5z M36.9,937.7h86.6l5.7,12.9H27.8C30.6,946.1,33.6,941.8,36.9,937.7z M25.8,953.9h104.9
		l5.7,12.9H18.8C20.9,962.4,23.2,958.1,25.8,953.9z M17.2,970.1h114.7c-6.5,3.6-12.4,7.9-17.5,12.9H11.8
		C13.4,978.6,15.2,974.3,17.2,970.1z M10.6,986.3h100.6c-3.6,4-6.9,8.3-9.7,12.9H6.7C7.8,994.9,9.1,990.6,10.6,986.3z M5.9,1002.5
		h93.7c-2.2,3.9-4,8-5.5,12.3H13.7l-10-1.6C4.3,1009.6,5.1,1006.1,5.9,1002.5z M34.4,1018.1H93c-0.9,3-1.6,6-2.2,9L34.4,1018.1z"/>
	<path class="st0" d="M185.6,755.1c0.3,0.2,0.6,0.3,0.9,0.3c0.5,0,1.1-0.3,1.3-0.7c2.4-3.6,5.1-7.2,7.8-10.6
		c0.5-0.7,0.5-1.8-0.3-2.3c-0.7-0.5-1.8-0.5-2.3,0.3c-2.8,3.4-5.4,7.1-7.9,10.8C184.7,753.6,184.9,754.6,185.6,755.1z"/>
	<path class="st0" d="M459.4,671c0.2,0,0.3,0,0.5-0.1c4.3-1.4,8.5-3,12.6-4.7c0.9-0.3,1.2-1.3,0.9-2.2c-0.3-0.9-1.3-1.2-2.2-0.9
		c-3.9,1.6-8.1,3.2-12.3,4.6c-0.9,0.3-1.3,1.2-1.1,2.1C458,670.6,458.6,671,459.4,671z"/>
	<path class="st0" d="M539,594.2c-0.9-0.3-1.8,0.2-2.1,1.1c-1.3,4.2-2.9,8.2-4.7,12.1c-0.4,0.8,0,1.8,0.8,2.2
		c0.2,0.1,0.5,0.1,0.7,0.1c0.6,0,1.2-0.3,1.5-0.9c1.8-4,3.4-8.2,4.9-12.5C540.3,595.4,539.8,594.6,539,594.2z"/>
	<path class="st0" d="M516.6,636.6c3-3.3,5.9-6.7,8.5-10.4c0.5-0.7,0.3-1.8-0.4-2.3s-1.8-0.3-2.3,0.4c-2.5,3.5-5.3,6.9-8.2,10.1
		c-0.6,0.7-0.6,1.7,0.1,2.4c0.3,0.3,0.7,0.5,1.1,0.5C515.9,637.2,516.3,637,516.6,636.6z"/>
	<path class="st0" d="M263.6,695.6c0.2,0,0.4,0,0.6-0.1c4-1.5,8.2-2.9,12.4-4.2c0.9-0.3,1.3-1.2,1.1-2.1c-0.3-0.9-1.2-1.3-2.1-1.1
		c-4.3,1.3-8.5,2.7-12.6,4.3c-0.9,0.3-1.3,1.3-0.9,2.2C262.3,695.2,262.9,695.6,263.6,695.6z"/>
	<path class="st0" d="M295.3,686.6c0.1,0,0.2,0,0.3,0c4.2-0.9,8.6-1.6,13-2.3c0.9-0.1,1.6-0.9,1.4-1.9c-0.1-0.9-0.9-1.6-1.9-1.4
		c-4.5,0.7-8.8,1.4-13.1,2.3c-0.9,0.2-1.5,1.1-1.3,2C293.9,686,294.6,686.6,295.3,686.6z"/>
	<path class="st0" d="M374.3,682.2c0.9,0,1.6-0.7,1.7-1.6c0-0.9-0.7-1.7-1.6-1.7c-5.8-0.1-10.3-0.5-13.2-0.7
		c-0.9-0.1-1.7,0.6-1.8,1.6c-0.1,0.9,0.6,1.7,1.6,1.8C363.8,681.8,368.4,682,374.3,682.2L374.3,682.2z"/>
	<path class="st0" d="M233.9,710c0.3,0,0.6-0.1,0.9-0.3c3.6-2.2,7.5-4.4,11.4-6.3c0.8-0.4,1.1-1.4,0.7-2.2c-0.4-0.8-1.4-1.1-2.2-0.7
		c-4,2-7.9,4.2-11.7,6.5c-0.8,0.5-1,1.5-0.5,2.3C232.8,709.7,233.3,710,233.9,710z"/>
	<path class="st0" d="M170.4,784.5c0.2,0.1,0.4,0.1,0.6,0.1c0.7,0,1.3-0.4,1.6-1c1.7-4,3.5-8.1,5.4-11.9c0.4-0.8,0.1-1.8-0.7-2.2
		c-0.8-0.4-1.8-0.1-2.2,0.7c-2,3.9-3.8,8-5.5,12.1C169.2,783.2,169.6,784.2,170.4,784.5z"/>
	<path class="st0" d="M328.2,682.1c4.3-0.3,8.7-0.5,13.2-0.7c0.9,0,1.6-0.8,1.6-1.7c0-0.9-0.8-1.7-1.7-1.6
		c-4.5,0.1-8.9,0.4-13.3,0.7c-0.9,0.1-1.6,0.9-1.6,1.8s0.8,1.6,1.6,1.6C328.1,682.1,328.1,682.1,328.2,682.1z"/>
	<path class="st0" d="M207.8,730.1c0.4,0,0.8-0.1,1.1-0.5c3.1-3,6.4-5.9,9.9-8.6c0.7-0.5,0.8-1.6,0.3-2.3c-0.5-0.7-1.6-0.8-2.3-0.3
		c-3.4,2.8-6.8,5.7-10.1,8.8c-0.7,0.6-0.7,1.7-0.1,2.4C206.9,729.9,207.3,730.1,207.8,730.1z"/>
	<path class="st0" d="M489.6,657.6c0.3,0,0.6-0.1,0.8-0.2c3.9-2.3,7.7-4.8,11.2-7.4c0.7-0.5,0.9-1.6,0.3-2.3
		c-0.5-0.7-1.6-0.9-2.3-0.3c-3.4,2.6-7.1,4.9-10.9,7.2c-0.8,0.5-1.1,1.5-0.6,2.3C488.4,657.3,489,657.6,489.6,657.6z"/>
	<path class="st0" d="M161.1,816.3c0.1,0,0.2,0.1,0.3,0.1c0.7,0,1.5-0.5,1.6-1.3c0.9-4.3,2-8.6,3.2-12.8c0.3-0.9-0.3-1.8-1.1-2
		c-0.9-0.3-1.8,0.3-2,1.1c-1.2,4.3-2.3,8.6-3.2,13C159.6,815.2,160.2,816.1,161.1,816.3z"/>
	<path class="st0" d="M394.1,678.7c-0.9,0.1-1.6,0.8-1.6,1.8c0.1,0.9,0.7,1.6,1.6,1.6h0.1c4.5-0.2,8.9-0.5,13.3-0.9
		c0.9-0.1,1.6-0.9,1.5-1.8c-0.1-0.9-0.9-1.6-1.8-1.5C403,678.3,398.6,678.6,394.1,678.7z"/>
	<path class="st0" d="M439.8,673c-4.2,0.9-8.6,1.8-12.9,2.5c-0.9,0.1-1.5,1-1.3,1.9c0.1,0.8,0.8,1.4,1.6,1.4c0.1,0,0.2,0,0.3,0
		c4.5-0.7,8.8-1.6,13.1-2.5c0.9-0.2,1.5-1.1,1.3-2C441.6,673.3,440.7,672.8,439.8,673z"/>
	<path class="st0" d="M157.6,849.3L157.6,849.3c0.9,0,1.7-0.8,1.7-1.7c0,0,0-0.3,0-0.7c0-1.6,0.1-6,0.7-12.4
		c0.1-0.9-0.5-1.7-1.5-1.8c-0.9-0.1-1.7,0.5-1.8,1.5c-0.7,6.5-0.7,11.1-0.7,12.8c0,0.5,0,0.7,0,0.7
		C156,848.5,156.7,849.3,157.6,849.3z"/>
	<polygon class="st0" points="619.2,459.8 613.5,477.9 616.7,478.9 622.4,460.9 	"/>
	<path class="st0" d="M658.9,343.4c-0.1-0.2-0.2-0.3-0.3-0.5l0,0c-0.1-0.1-0.1-0.1-0.1-0.1c-0.1-0.1-0.2-0.2-0.4-0.3l0,0
		c-0.1-0.1-0.3-0.1-0.4-0.1c-0.1,0-0.1-0.1-0.2-0.1c-0.1,0-0.1,0-0.3,0s-0.2,0-0.3,0.1c-0.1,0-0.1,0.1-0.2,0.1
		c-0.1,0.1-0.3,0.1-0.3,0.2l0,0L537,440.9l2.4,2.4l104.5-85.9l-111,129.8l-37.8-7.5l28.5-23.4l-0.1,11.7c0,1.8,1.5,3.3,3.3,3.3l0,0
		c1.8,0,3.3-1.5,3.3-3.3v-9.4v-7.1c0-0.2,0-0.4-0.1-0.5c-0.1-0.7-0.4-1.3-0.9-1.8c-0.3-0.3-0.7-0.6-1.2-0.7
		c-0.3-0.1-0.7-0.2-1.1-0.2h-7.1h-9.4l0,0c-1.8,0-3.3,1.5-3.3,3.3s1.5,3.3,3.3,3.3h9.9l-30,24.6c-0.5,0.4-0.7,1.1-0.5,1.7
		c0.1,0.6,0.7,1.1,1.3,1.2l41.2,8.2l19,71.7l0,0c0.1,0.1,0.1,0.3,0.2,0.5c0,0,0,0.1,0.1,0.1c0.1,0.1,0.2,0.3,0.3,0.3l0.1,0.1
		c0.1,0,0.1,0.1,0.1,0.1c0.1,0.1,0.1,0.1,0.2,0.1c0.1,0,0.1,0.1,0.1,0.1c0.1,0.1,0.3,0.1,0.5,0.1l0,0h0.1h0.1c0.1,0,0.3-0.1,0.4-0.1
		c0.1,0,0.1-0.1,0.1-0.1c0.1-0.1,0.2-0.1,0.3-0.2l0.1-0.1c0.1-0.1,0.2-0.2,0.3-0.4l28.1-49.3l18.4,10.2c0.3,0.1,0.5,0.2,0.8,0.2
		c0.2,0,0.4-0.1,0.6-0.1c0.5-0.2,0.8-0.5,0.9-1l10.1-32.3l-3.2-1l-9.6,30.4l-18-10l0,0l0,0l-18.6-10.5l88-142.9l-29.1,92.5l3.2,1
		l33.1-105.2c0-0.1,0-0.2,0-0.3c0-0.1,0.1-0.2,0.1-0.3c0-0.1-0.1-0.2-0.1-0.3C658.9,343.6,658.9,343.5,658.9,343.4z M579.4,511.5
		l-23.8,41.8l7.2-51L579.4,511.5z M560,498.9L560,498.9c-0.1,0.1-0.1,0.1-0.1,0.2c0,0,0,0.1-0.1,0.1c0,0.1,0,0.1-0.1,0.1
		c0,0.1,0,0.1-0.1,0.1l0,0l-7.6,53.7l-16.9-63.9l109.5-128L560,498.9z"/>
	<path class="st0" d="M608.5,641.1l-35.3,34.4c-0.5,0.5-0.6,1.2-0.4,1.8c0.3,0.6,0.9,1,1.6,1h70.6c0.7,0,1.3-0.4,1.6-1
		c0.3-0.6,0.1-1.3-0.4-1.8l-35.3-34.4C610.2,640.5,609.2,640.5,608.5,641.1z M578.5,675.2l31.3-30.5l31.3,30.5H578.5z"/>
	<path class="st0" d="M608.5,586l-35.3,34.4c-0.5,0.5-0.6,1.2-0.4,1.8c0.3,0.6,0.9,1,1.6,1h70.6c0.7,0,1.3-0.4,1.6-1
		c0.3-0.6,0.1-1.3-0.4-1.8L610.8,586C610.2,585.3,609.2,585.3,608.5,586z M578.5,619.9l31.3-30.5l31.3,30.5H578.5z"/>
	<rect x="1203.8" y="813.3" class="st0" width="18.9" height="3.3"/>
	<path class="st0" d="M1349.9,719.3c0-0.1-0.1-0.1-0.1-0.1c-0.1-0.1-0.1-0.3-0.3-0.4c0,0,0-0.1-0.1-0.1l-46.2-46.2v-79
		c0-0.9-0.7-1.7-1.7-1.7h-16.8l-4-30.4c-0.1-0.9-0.9-1.5-1.8-1.4l-29.2,2.4l-8.1-32.5c-0.2-0.9-1.1-1.4-2-1.2l-25.2,5.1l0.7,3.2
		l23.7-4.7l7.6,30.4l-210.3,17.7c-0.5,0.1-0.9,0.3-1.1,0.6c-0.3,0.3-0.4,0.8-0.4,1.2l17.1,179.2l-5.4-5.1L1014,577.6l159.9-32.1
		l-0.7-3.2l-161.4,32.5c-0.9,0.2-1.5,1-1.3,1.9l21,115.7l-26.5,26.5c0,0,0,0.1-0.1,0.1c-0.1,0.1-0.2,0.3-0.3,0.4
		c0,0.1-0.1,0.1-0.1,0.1c0,0.1-0.1,0.2-0.1,0.3c0,0.1,0,0.2,0,0.3l0,0l0,0l0.1,69.9h3.3l-0.1-66.1l96.4,92.4
		c0.3,0.3,0.7,0.5,1.1,0.5h86.8v-3.3h-86.1l-44.3-42.5V595.1H1241l-7.7,7.7c-1.3,1.3-1.3,3.4,0,4.7c0.7,0.7,1.5,0.9,2.4,0.9
		c0.9,0,1.7-0.3,2.4-0.9l11.7-11.7c0.2-0.2,0.3-0.5,0.5-0.7c0.6-1,0.6-2.3,0-3.3c-0.1-0.3-0.3-0.5-0.5-0.7l-11.7-11.7
		c-1.3-1.3-3.4-1.3-4.7,0s-1.3,3.4,0,4.7l7.7,7.7h-180.8c-0.9,0-1.7,0.7-1.7,1.7v174.2l-2.8-2.7l-17.3-181.4l239.6-20.1l3.7,28.3
		H1262v3.3h38.2v170.8l-47.4,47.4h-18.2v3.3h18.9c0.4,0,0.9-0.2,1.1-0.5l48.4-48.4l0,0l43.9-43.9v348.5l-94.2,94.2h-146.5l-98-95.2
		l-0.2-260.5l7.6,7.6c0.7,0.7,1.5,0.9,2.4,0.9c0.9,0,1.7-0.3,2.4-0.9c1.3-1.3,1.3-3.4,0-4.7l-6.7-6.7l-5.1-5.1
		c-0.2-0.2-0.4-0.3-0.6-0.5c-1-0.6-2.3-0.6-3.3-0.1c-0.3,0.1-0.5,0.3-0.7,0.5l-5.1,5.1l-6.7,6.7c-1.3,1.3-1.3,3.4,0,4.7
		c1.3,1.3,3.4,1.3,4.7,0l7.8-7.8l0.2,261.3c0,0.5,0.2,0.9,0.5,1.2l98.9,96.2c0.3,0.3,0.7,0.5,1.1,0.5h147.9c0.4,0,0.9-0.2,1.1-0.5
		l95.1-95.1c0.3-0.3,0.5-0.7,0.5-1.1V720C1350.1,719.6,1350,719.4,1349.9,719.3z M1008.6,719.8l23.7-23.7l10.2,56.2L1008.6,719.8z
		 M1303.4,762.6v-85.4l42.7,42.7L1303.4,762.6z"/>
	<path class="st0" d="M1207.2,615.6c0.9,0,1.7-0.7,1.7-1.7s-0.7-1.7-1.7-1.7h-57c-0.9,0-1.7,0.7-1.7,1.7s0.7,1.7,1.7,1.7H1207.2z"/>
	<path class="st0" d="M1115.6,630.6c0,0.9,0.7,1.7,1.7,1.7h123.1c0.9,0,1.7-0.7,1.7-1.7s-0.7-1.7-1.7-1.7h-123.2
		C1116.3,629,1115.6,629.7,1115.6,630.6z"/>
	<path class="st0" d="M1088.7,657c0,0.9,0.7,1.7,1.7,1.7h108.2c0.9,0,1.7-0.7,1.7-1.7s-0.7-1.7-1.7-1.7h-108.2
		C1089.5,655.3,1088.7,656.1,1088.7,657z"/>
	<path class="st0" d="M1090.4,678.5h90.5c0.9,0,1.7-0.7,1.7-1.7s-0.7-1.7-1.7-1.7h-90.5c-0.9,0-1.7,0.7-1.7,1.7
		C1088.7,677.7,1089.5,678.5,1090.4,678.5z"/>
	<path class="st0" d="M1087.6,717.3c0,0.9,0.7,1.7,1.7,1.7h101.2c0.9,0,1.7-0.7,1.7-1.7s-0.7-1.7-1.7-1.7h-101.2
		C1088.3,715.7,1087.6,716.4,1087.6,717.3z"/>
	<path class="st0" d="M1089.2,745.5h165.2c0.9,0,1.7-0.7,1.7-1.7s-0.7-1.7-1.7-1.7h-165.2c-0.9,0-1.7,0.7-1.7,1.7
		C1087.6,744.7,1088.3,745.5,1089.2,745.5z"/>
	<path class="st0" d="M1198,764.2c0-0.9-0.7-1.7-1.7-1.7h-107.1c-0.9,0-1.7,0.7-1.7,1.7s0.7,1.7,1.7,1.7h107.1
		C1197.2,765.8,1198,765.1,1198,764.2z"/>
	<path class="st0" d="M1089.2,782.9c-0.9,0-1.7,0.7-1.7,1.7s0.7,1.7,1.7,1.7h42.9c0.9,0,1.7-0.7,1.7-1.7s-0.7-1.7-1.7-1.7H1089.2z"
		/>
	<path class="st0" d="M1143.7,786.2h74c0.9,0,1.7-0.7,1.7-1.7s-0.7-1.7-1.7-1.7h-74c-0.9,0-1.7,0.7-1.7,1.7
		C1142,785.4,1142.7,786.2,1143.7,786.2z"/>
	<path class="st0" d="M1272.1,762.5h-64.9c-0.9,0-1.7,0.7-1.7,1.7s0.7,1.7,1.7,1.7h64.9c0.9,0,1.7-0.7,1.7-1.7
		S1273,762.5,1272.1,762.5z"/>
	<path class="st0" d="M1090.4,698.7h63.9c0.9,0,1.7-0.7,1.7-1.7s-0.7-1.7-1.7-1.7h-63.9c-0.9,0-1.7,0.7-1.7,1.7
		S1089.5,698.7,1090.4,698.7z"/>
	<path class="st0" d="M1165.9,695.4c-0.9,0-1.7,0.7-1.7,1.7s0.7,1.7,1.7,1.7h33.4c0.9,0,1.7-0.7,1.7-1.7s-0.7-1.7-1.7-1.7H1165.9z"
		/>
	<path class="st0" d="M1273.7,657c0-0.9-0.7-1.7-1.7-1.7h-48.9c-0.9,0-1.7,0.7-1.7,1.7v60.3c0,0.9,0.7,1.7,1.7,1.7h48.9
		c0.9,0,1.7-0.7,1.7-1.7V657z M1270.4,715.7h-45.6v-57h45.6V715.7z"/>
	<polygon class="st0" points="1184.8,539.8 1185.4,543.1 1204,539.4 1203.3,536.1 	"/>
	<path class="st0" d="M215.8,434.2H235c1.2,0,2.4,0.8,2.6,2c2,7.4,4.9,14.5,8.8,21.1c0.6,1.1,0.5,2.4-0.4,3.3l-13.6,13.6
		c-1.1,1.1-1.8,2.7-1.8,4.3s0.6,3.2,1.8,4.3l19.1,19.1c2.4,2.4,6.2,2.4,8.6,0l13.7-13.7c0.9-0.9,2.2-1.1,3.3-0.4
		c6.6,3.8,13.7,6.7,21.1,8.7c1.2,0.3,2,1.4,2,2.6v19.4c0,3.4,2.7,6.1,6.1,6.1h27c3.4,0,6.1-2.7,6.1-6.1v-19.4c0-1.2,0.8-2.4,2-2.6
		c7.4-2,14.4-4.9,21.1-8.7c1.1-0.6,2.4-0.5,3.3,0.4l13.7,13.7c2.4,2.4,6.2,2.4,8.6,0l19.1-19.1c1.1-1.1,1.8-2.7,1.8-4.3
		s-0.6-3.2-1.8-4.3l-13.5-13.6c-0.9-0.9-1.1-2.2-0.4-3.3c3.9-6.6,6.9-13.7,8.8-21.1c0.3-1.2,1.4-2,2.6-2H424c3.4,0,6.1-2.7,6.1-6.1
		v-27c0-3.4-2.7-6.1-6.1-6.1h-19c-1.3,0-2.4-0.9-2.6-2c-2-7.5-4.9-14.6-8.8-21.3c-0.6-1.1-0.5-2.4,0.4-3.3l13.4-13.4
		c1.1-1.1,1.8-2.7,1.8-4.3c0-1.6-0.6-3.2-1.8-4.3l-19.1-19.1c-2.4-2.4-6.2-2.4-8.6,0l-13.4,13.4c-0.9,0.9-2.2,1.1-3.3,0.4
		c-6.7-3.9-13.9-7-21.4-8.9c-1.2-0.3-2-1.4-2-2.6v-18.8c0-3.4-2.7-6.1-6.1-6.1h-27c-3.4,0-6.1,2.7-6.1,6.1v18.8c0,1.2-0.8,2.4-2,2.6
		c-7.5,2-14.7,5-21.4,8.9c-1.1,0.6-2.4,0.5-3.3-0.4l-13.4-13.4c-2.4-2.4-6.2-2.4-8.6,0l-19.4,19.1c-1.1,1.1-1.8,2.7-1.8,4.3
		s0.6,3.2,1.8,4.3l13.4,13.4c0.9,0.9,1.1,2.2,0.4,3.3c-3.9,6.7-6.8,13.9-8.8,21.3c-0.3,1.2-1.4,2-2.6,2h-19c-3.4,0-6.1,2.7-6.1,6.1
		v27C209.7,431.4,212.4,434.2,215.8,434.2z M213,401.1c0-1.6,1.2-2.8,2.8-2.8h19c2.8,0,5.2-1.9,5.9-4.5c1.8-7.2,4.7-14.1,8.4-20.5
		c1.3-2.4,1-5.4-0.9-7.4l-13.4-13.4c-0.5-0.5-0.8-1.2-0.8-2c0-0.7,0.3-1.4,0.8-2l19.1-19.1c1.1-1.1,2.8-1.1,3.9,0l13.4,13.4
		c2,2,5,2.4,7.4,0.9c6.5-3.8,13.4-6.7,20.6-8.6c2.6-0.7,4.5-3.1,4.5-5.9v-18.8c0-1.6,1.2-2.8,2.8-2.8h27c1.6,0,2.8,1.2,2.8,2.8v18.9
		c0,2.8,1.9,5.1,4.5,5.9c7.2,1.9,14.2,4.8,20.6,8.6c2.4,1.4,5.4,1,7.4-0.9l13.4-13.4c1.1-1.1,2.8-1.1,3.9,0l19.1,19.1
		c0.5,0.5,0.8,1.2,0.8,2c0,0.7-0.3,1.4-0.8,2L391.6,366c-2,2-2.4,4.9-0.9,7.4c3.7,6.4,6.6,13.4,8.4,20.5c0.7,2.7,3.1,4.5,5.9,4.5h19
		c1.6,0,2.8,1.2,2.8,2.8v27c0,1.6-1.2,2.8-2.8,2.8h-19.2c-2.8,0-5.1,1.8-5.9,4.5c-1.9,7.1-4.7,14-8.5,20.3c-1.4,2.4-1,5.4,0.9,7.4
		l13.6,13.6c0.5,0.5,0.8,1.2,0.8,2c0,0.7-0.3,1.4-0.8,2l-19.1,19.1c-1.1,1.1-2.8,1.1-3.9,0L368.2,486c-2-2-4.9-2.4-7.4-0.9
		c-6.3,3.7-13.2,6.5-20.2,8.4c-2.6,0.7-4.5,3.1-4.5,5.9v19.4c0,1.6-1.2,2.8-2.8,2.8h-27c-1.6,0-2.8-1.2-2.8-2.8v-19.4
		c0-2.8-1.9-5.1-4.5-5.9c-7.1-1.8-13.9-4.7-20.2-8.4c-0.9-0.5-2-0.8-3-0.8c-1.6,0-3.1,0.6-4.3,1.8l-13.7,13.7
		c-1.1,1.1-2.8,1.1-3.9,0l-19-19.1c-0.5-0.5-0.8-1.2-0.8-2c0-0.7,0.3-1.4,0.8-2l13.6-13.6c2-2,2.4-5,0.9-7.4
		c-3.7-6.3-6.6-13.2-8.5-20.3c-0.7-2.6-3.1-4.5-5.9-4.5h-19.2c-1.6,0-2.8-1.2-2.8-2.8L213,401.1L213,401.1z"/>
	<path class="st0" d="M319.8,463.4c19.5,0,36.4-11.4,44.3-27.9h-3.7c-7.6,14.6-22.9,24.6-40.6,24.6c-25.2,0-45.8-20.5-45.8-45.8
		c0-25.2,20.5-45.8,45.8-45.8c17.6,0,32.9,10,40.6,24.6h3.7c-7.9-16.5-24.8-27.9-44.3-27.9c-27.1,0-49.1,22-49.1,49.1
		C270.7,441.4,292.8,463.4,319.8,463.4z"/>
	<path class="st0" d="M368,423.7c0.6-3,0.9-6.2,0.9-9.4c0-3.2-0.3-6.4-0.9-9.4h-3.4c0.7,3,1,6.2,1,9.4c0,3.2-0.3,6.4-1,9.4H368z"/>
	<path class="st0" d="M292.4,414.3c0,15.1,12.3,27.4,27.4,27.4c15.1,0,27.4-12.3,27.4-27.4c0-15.1-12.3-27.4-27.4-27.4
		C304.8,386.9,292.4,399.2,292.4,414.3z M343.9,414.3c0,13.3-10.8,24.1-24.1,24.1c-13.3,0-24.1-10.8-24.1-24.1
		c0-13.3,10.8-24.1,24.1-24.1C333.1,390.2,343.9,401,343.9,414.3z"/>
	<path class="st0" d="M422.7,542.7c-2.6-3.6-5.8-6.8-9.3-9.5c-0.2-0.2-0.3-0.5-0.2-0.7l4.3-10c0.8-2-0.1-4.3-2-5.1l-14.2-6
		c-2-0.8-4.3,0.1-5.1,2l-4.3,10c-0.1,0.2-0.3,0.3-0.6,0.3c-4.4-0.7-8.8-0.7-13.3-0.1c-0.3,0-0.5-0.1-0.6-0.3l-4-10.1
		c-0.8-2-3-2.9-5.1-2.2L354,517c-2,0.8-2.9,3-2.2,5l4.1,10.1c0.1,0.2,0,0.5-0.2,0.7c-3.6,2.6-6.7,5.8-9.4,9.3
		c-0.2,0.2-0.5,0.3-0.7,0.2l-10.1-4.3c-2-0.8-4.3,0.1-5.1,2l-6,14.2c-0.8,2,0.1,4.3,2,5.1l10.2,4.3c0.2,0.1,0.3,0.3,0.3,0.6
		c-0.6,4.3-0.7,8.8-0.1,13.1c0.1,0.3-0.1,0.5-0.3,0.6l0,0l-10.3,4.2c-0.9,0.4-1.7,1.1-2.1,2.1c-0.4,0.9-0.4,2,0,3l5.8,14.3
		c0.8,2,3,2.9,5.1,2.2l10.3-4.2c0.3-0.1,0.5,0,0.7,0.2c2.6,3.5,5.7,6.6,9.2,9.3c0.2,0.2,0.3,0.5,0.2,0.7l-4.4,10.3
		c-0.4,0.9-0.4,2,0,3s1.1,1.7,2.1,2.1l14.2,6c2,0.8,4.3-0.1,5.1-2l4.4-10.3c0.1-0.2,0.3-0.3,0.6-0.3c4.3,0.7,8.7,0.7,13,0.1
		c0.3-0.1,0.5,0.1,0.6,0.3l4.2,10.3c0.4,0.9,1.1,1.7,2.1,2.1c0.5,0.2,1,0.3,1.5,0.3s1-0.1,1.4-0.3l14.3-5.8c0.9-0.4,1.7-1.1,2.1-2.1
		c0.4-0.9,0.4-2,0-3l-4.2-10.3c-0.1-0.3,0-0.5,0.2-0.7c3.6-2.6,6.7-5.7,9.4-9.2c0.2-0.2,0.5-0.3,0.7-0.2l10.2,4.3
		c2,0.8,4.3-0.1,5.1-2l6-14.2c0.4-0.9,0.4-2,0-3c-0.4-0.9-1.1-1.7-2.1-2.1l-10.1-4.3c-0.2-0.1-0.3-0.3-0.3-0.6
		c0.7-4.4,0.7-8.8,0.1-13.2c-0.1-0.3,0.1-0.5,0.3-0.6l10.1-4.1c2-0.8,2.9-3,2.2-5l-5.8-14.3c-0.4-0.9-1.1-1.7-2.1-2.1
		c-0.9-0.4-2-0.4-3,0l-10.1,4C423.1,543,422.8,542.9,422.7,542.7z M434.6,541.9c0.2-0.1,0.3,0,0.4,0c0.1,0,0.2,0.1,0.3,0.3l5.8,14.3
		c0.1,0.3,0,0.6-0.3,0.7l-10.1,4.1c-1.6,0.7-2.6,2.4-2.4,4.1c0.5,4.1,0.5,8.2-0.1,12.3c-0.3,1.8,0.7,3.5,2.3,4.2l10.1,4.3
		c0.2,0.1,0.3,0.2,0.3,0.3s0.1,0.3,0,0.4l-6,14.2c-0.1,0.3-0.5,0.4-0.7,0.3l-10.2-4.3c-1.6-0.7-3.5-0.2-4.6,1.2
		c-2.5,3.2-5.5,6.1-8.7,8.5c-1.4,1.1-2,3-1.3,4.6l4.2,10.3c0.1,0.2,0,0.3,0,0.4c0,0.1-0.1,0.2-0.3,0.3l-14.3,5.8
		c-0.2,0.1-0.3,0-0.4,0s-0.2-0.1-0.3-0.3l-4.2-10.3c-0.6-1.5-2-2.4-3.6-2.4c-0.1,0-0.3,0-0.5,0c-4,0.5-8.1,0.5-12.1-0.1
		c-1.8-0.3-3.4,0.7-4.2,2.3l-4.4,10.3c-0.1,0.3-0.5,0.4-0.7,0.3l-14.2-6c-0.2-0.1-0.3-0.2-0.3-0.3s-0.1-0.3,0-0.4l4.4-10.3
		c0.7-1.6,0.2-3.5-1.2-4.6c-3.2-2.5-6.1-5.4-8.5-8.6c-1.1-1.4-3-2-4.6-1.3l-10.3,4.2c-0.3,0.1-0.6,0-0.7-0.3l-5.8-14.3
		c-0.1-0.2,0-0.3,0-0.4c0-0.1,0.1-0.2,0.3-0.3l10.3-4.2l0,0c1.6-0.7,2.6-2.4,2.4-4.1c-0.5-4-0.5-8.2,0.1-12.2
		c0.3-1.8-0.7-3.4-2.3-4.1l-10.2-4.3c-0.3-0.1-0.4-0.5-0.3-0.7l6-14.2c0.1-0.2,0.2-0.3,0.3-0.3c0.1,0,0.3-0.1,0.4,0l10.1,4.3
		c1.6,0.7,3.5,0.2,4.6-1.2c2.5-3.2,5.5-6.2,8.8-8.6c1.4-1.1,2-3,1.3-4.6l-4.1-10.1c-0.1-0.3,0-0.6,0.3-0.7l14.3-5.8
		c0.3-0.1,0.6,0,0.7,0.3l4,10.1c0.7,1.6,2.4,2.6,4.1,2.4c4.1-0.5,8.3-0.5,12.4,0.1c1.8,0.3,3.5-0.7,4.2-2.3l4.3-10
		c0.1-0.3,0.5-0.4,0.7-0.3l14.2,6c0.3,0.1,0.4,0.5,0.3,0.7l-4.3,10c-0.7,1.6-0.2,3.5,1.2,4.6c3.3,2.5,6.2,5.5,8.6,8.8
		c1.1,1.4,3,2,4.6,1.3L434.6,541.9z"/>
	<path class="st0" d="M392.3,552c-10.5-4.5-22.7,0.5-27.1,11c-4.5,10.5,0.5,22.7,11,27.1c2.6,1.1,5.3,1.7,8.1,1.7
		c2.6,0,5.3-0.5,7.8-1.6c5.1-2.1,9.1-6,11.3-11.1C407.8,568.6,402.8,556.5,392.3,552z M400.2,577.9c-1.8,4.3-5.2,7.6-9.5,9.3
		c-4.3,1.8-9,1.7-13.3-0.1c-8.8-3.8-13-14-9.2-22.8c2.8-6.6,9.2-10.6,16.1-10.6c2.3,0,4.6,0.5,6.7,1.3
		C399.9,558.8,404,569.1,400.2,577.9z"/>
	<path class="st0" d="M509.9,700c-0.7-0.6-1.7-0.6-2.3,0l-17.7,17.2c-0.7,0.6-0.7,1.7,0,2.4c0.6,0.7,1.7,0.7,2.4,0l16.5-16.1
		l16.5,16.1c0.3,0.3,0.7,0.5,1.1,0.5s0.9-0.1,1.2-0.5c0.6-0.7,0.6-1.7,0-2.4L509.9,700z"/>
	<path class="st0" d="M509.9,721.6c-0.7-0.6-1.7-0.6-2.3,0l-17.7,17.2c-0.7,0.6-0.7,1.7,0,2.4c0.6,0.7,1.7,0.7,2.4,0l16.5-16.1
		l16.5,16.1c0.3,0.3,0.7,0.5,1.1,0.5s0.9-0.1,1.2-0.5c0.6-0.7,0.6-1.7,0-2.4L509.9,721.6z"/>
	<path class="st0" d="M509.9,743.2c-0.7-0.6-1.7-0.6-2.3,0l-17.7,17.2c-0.7,0.6-0.7,1.7,0,2.4c0.6,0.7,1.7,0.7,2.4,0l16.5-16.1
		l16.5,16.1c0.3,0.3,0.7,0.5,1.1,0.5s0.9-0.1,1.2-0.5c0.6-0.7,0.6-1.7,0-2.4L509.9,743.2z"/>
	<path class="st0" d="M509.9,764.9c-0.7-0.6-1.7-0.6-2.3,0l-17.7,17.2c-0.7,0.6-0.7,1.7,0,2.4c0.6,0.7,1.7,0.7,2.4,0l16.5-16.1
		l16.5,16.1c0.3,0.3,0.7,0.5,1.1,0.5s0.9-0.1,1.2-0.5c0.6-0.7,0.6-1.7,0-2.4L509.9,764.9z"/>
	<path class="st0" d="M509.9,786.5c-0.7-0.6-1.7-0.6-2.3,0l-17.7,17.2c-0.7,0.6-0.7,1.7,0,2.4c0.6,0.7,1.7,0.7,2.4,0l16.5-16.1
		l16.5,16.1c0.3,0.3,0.7,0.5,1.1,0.5s0.9-0.1,1.2-0.5c0.6-0.7,0.6-1.7,0-2.4L509.9,786.5z"/>
	<path class="st0" d="M963.6,424.3c-0.7-0.6-1.7-0.6-2.3,0l-17.7,17.2c-0.7,0.6-0.7,1.7,0,2.4c0.6,0.7,1.7,0.7,2.4,0l16.5-16.1
		l16.5,16.1c0.3,0.3,0.7,0.5,1.1,0.5c0.4,0,0.9-0.1,1.2-0.5c0.6-0.7,0.6-1.7,0-2.4L963.6,424.3z"/>
	<path class="st0" d="M963.6,445.9c-0.7-0.6-1.7-0.6-2.3,0l-17.7,17.2c-0.7,0.6-0.7,1.7,0,2.4c0.6,0.7,1.7,0.7,2.4,0l16.5-16.1
		l16.5,16.1c0.3,0.3,0.7,0.5,1.1,0.5c0.4,0,0.9-0.1,1.2-0.5c0.6-0.7,0.6-1.7,0-2.4L963.6,445.9z"/>
	<path class="st0" d="M963.6,467.5c-0.7-0.6-1.7-0.6-2.3,0l-17.7,17.2c-0.7,0.6-0.7,1.7,0,2.4c0.6,0.7,1.7,0.7,2.4,0l16.5-16.1
		l16.5,16.1c0.3,0.3,0.7,0.5,1.1,0.5c0.4,0,0.9-0.1,1.2-0.5c0.6-0.7,0.6-1.7,0-2.4L963.6,467.5z"/>
	<path class="st0" d="M963.6,489.1c-0.7-0.6-1.7-0.6-2.3,0l-17.7,17.2c-0.7,0.6-0.7,1.7,0,2.4c0.6,0.7,1.7,0.7,2.4,0l16.5-16.1
		l16.5,16.1c0.3,0.3,0.7,0.5,1.1,0.5c0.4,0,0.9-0.1,1.2-0.5c0.6-0.7,0.6-1.7,0-2.4L963.6,489.1z"/>
	<path class="st0" d="M963.6,510.7c-0.7-0.6-1.7-0.6-2.3,0l-17.7,17.2c-0.7,0.6-0.7,1.7,0,2.4c0.6,0.7,1.7,0.7,2.4,0l16.5-16.1
		l16.5,16.1c0.3,0.3,0.7,0.5,1.1,0.5c0.4,0,0.9-0.1,1.2-0.5c0.6-0.7,0.6-1.7,0-2.4L963.6,510.7z"/>
	<path class="st0" d="M963.6,532.1c-0.7-0.6-1.7-0.6-2.3,0l-17.7,17.2c-0.7,0.6-0.7,1.7,0,2.4c0.6,0.7,1.7,0.7,2.4,0l16.5-16.1
		l16.5,16.1c0.3,0.3,0.7,0.5,1.1,0.5c0.4,0,0.9-0.1,1.2-0.5c0.6-0.7,0.6-1.7,0-2.4L963.6,532.1z"/>
	<path class="st0" d="M963.6,553.7c-0.7-0.6-1.7-0.6-2.3,0l-17.7,17.2c-0.7,0.6-0.7,1.7,0,2.4c0.6,0.7,1.7,0.7,2.4,0l16.5-16.1
		l16.5,16.1c0.3,0.3,0.7,0.5,1.1,0.5c0.4,0,0.9-0.1,1.2-0.5c0.6-0.7,0.6-1.7,0-2.4L963.6,553.7z"/>
	<path class="st0" d="M963.6,575.3c-0.7-0.6-1.7-0.6-2.3,0l-17.7,17.2c-0.7,0.6-0.7,1.7,0,2.4c0.6,0.7,1.7,0.7,2.4,0l16.5-16.1
		l16.5,16.1c0.3,0.3,0.7,0.5,1.1,0.5c0.4,0,0.9-0.1,1.2-0.5c0.6-0.7,0.6-1.7,0-2.4L963.6,575.3z"/>
	<path class="st0" d="M963.6,596.9c-0.7-0.6-1.7-0.6-2.3,0l-17.7,17.2c-0.7,0.6-0.7,1.7,0,2.4c0.6,0.7,1.7,0.7,2.4,0l16.5-16.1
		l16.5,16.1c0.3,0.3,0.7,0.5,1.1,0.5c0.4,0,0.9-0.1,1.2-0.5c0.6-0.7,0.6-1.7,0-2.4L963.6,596.9z"/>
	<path class="st0" d="M963.6,618.5c-0.7-0.6-1.7-0.6-2.3,0l-17.7,17.2c-0.7,0.6-0.7,1.7,0,2.4c0.6,0.7,1.7,0.7,2.4,0l16.5-16.1
		l16.5,16.1c0.3,0.3,0.7,0.5,1.1,0.5c0.4,0,0.9-0.1,1.2-0.5c0.6-0.7,0.6-1.7,0-2.4L963.6,618.5z"/>
	<path class="st0" d="M230.8,794.2c-3.1,5.2-5.9,10.7-8.2,16.4c0,0.1-0.1,0.1-0.1,0.1c-2.2,5.3-4,10.7-5.5,16.4c0,0,0,0,0,0.1
		c0,0.1,0,0.1,0,0.1c0,0.1,0,0.1,0,0.2c0,0,0,0,0,0.1c0,0.1,0,0.1,0,0.1c0,0.1,0,0.1,0,0.2c0,0.1,0,0.1,0.1,0.1c0,0.1,0,0.1,0.1,0.1
		c0,0.1,0.1,0.1,0.1,0.1c0,0.1,0.1,0.1,0.1,0.1c0,0.1,0.1,0.1,0.1,0.1c0,0.1,0.1,0.1,0.1,0.1c0.1,0.1,0.1,0.1,0.1,0.1
		c0.1,0.1,0.1,0.1,0.1,0.1c0.1,0,0.1,0.1,0.1,0.1c0.1,0,0.1,0.1,0.1,0.1c0.1,0,0.1,0.1,0.2,0.1c0,0,0.1,0,0.1,0.1l121.2,31.6
		c0.1,0.1,0.3,0.1,0.4,0.1c0.3,0,0.6-0.1,0.9-0.3c0.4-0.3,0.7-0.7,0.7-1.1l20.5-123.6c0.1-0.4,0-0.9-0.3-1.2
		c-0.3-0.3-0.7-0.6-1.1-0.7c-6.8-1.1-13.8-1.7-20.7-1.7c-19.6,0-38.5,4.5-55.3,12.7c-0.1,0.1-0.2,0.1-0.3,0.1
		c-9,4.4-17.5,9.9-25.2,16.3c-0.1,0.1-0.2,0.1-0.3,0.2C247.7,770.7,238.2,781.7,230.8,794.2L230.8,794.2z M233.1,796.8h115.4
		l-2.2,12.9H226.5C228.5,805.2,230.7,800.9,233.1,796.8z M225.2,813h120.6l-2.2,12.9H220.7C222,821.5,223.5,817.2,225.2,813z
		 M343.1,829.2l-2.2,12.9h-60.1l-49.4-12.9H343.1z M338.5,857.1l-44.9-11.7h46.8L338.5,857.1z M339.9,735.6c6.2,0,12.4,0.5,18.6,1.4
		l-1.3,7.9h-64.3C307.5,738.9,323.3,735.6,339.9,735.6z M285.5,748.1h71.1l-2.2,12.9h-89.8C271.1,756.1,278.1,751.8,285.5,748.1z
		 M260.5,764.4h93.3l-2.2,12.9H247.3C251.3,772.6,255.8,768.3,260.5,764.4z M244.4,780.6h106.8l-2.2,12.9H235.1
		C237.9,789,241,784.6,244.4,780.6z"/>
	<path class="st0" d="M1104.3,865.7c0,0.9,0.7,1.7,1.7,1.7h147.9c0.9,0,1.7-0.7,1.7-1.7s-0.7-1.7-1.7-1.7H1106
		C1105,864.1,1104.3,864.8,1104.3,865.7z"/>
	<rect x="1138.2" y="912" class="st0" width="18.9" height="3.3"/>
	<path class="st0" d="M1105.9,915.3h20.6V912h-20.6c-0.9,0-1.7,0.7-1.7,1.7C1104.3,914.6,1105,915.3,1105.9,915.3z"/>
	<path class="st0" d="M1253.8,912h-85v3.3h85c0.9,0,1.7-0.7,1.7-1.7C1255.5,912.7,1254.8,912,1253.8,912z"/>
	<path class="st0" d="M1105.9,963.3h147.9c0.9,0,1.7-0.7,1.7-1.7s-0.7-1.7-1.7-1.7h-147.9c-0.9,0-1.7,0.7-1.7,1.7
		C1104.3,962.5,1105,963.3,1105.9,963.3z"/>
	<path class="st0" d="M1105.9,1011.2h147.9c0.9,0,1.7-0.7,1.7-1.7s-0.7-1.7-1.7-1.7h-147.9c-0.9,0-1.7,0.7-1.7,1.7
		C1104.3,1010.5,1105,1011.2,1105.9,1011.2z"/>
	<path class="st0" d="M1105.9,1059.1h147.9c0.9,0,1.7-0.7,1.7-1.7s-0.7-1.7-1.7-1.7h-147.9c-0.9,0-1.7,0.7-1.7,1.7
		C1104.3,1058.4,1105,1059.1,1105.9,1059.1z"/>
	<path class="st0" d="M1105.9,1107.1h147.9c0.9,0,1.7-0.7,1.7-1.7s-0.7-1.7-1.7-1.7h-147.9c-0.9,0-1.7,0.7-1.7,1.7
		S1105,1107.1,1105.9,1107.1z"/>
	<path class="st0" d="M1018.1,871.8v123.7c0,0.9,0.7,1.7,1.7,1.7c0.9,0,1.7-0.7,1.7-1.7V871.8c0-0.9-0.7-1.7-1.7-1.7
		C1018.9,870.1,1018.1,870.9,1018.1,871.8z"/>
	<path class="st0" d="M1336.2,843.4c0.9,0,1.7-0.7,1.7-1.7v-77.5c0-0.9-0.7-1.7-1.7-1.7s-1.7,0.7-1.7,1.7v77.5
		C1334.5,842.6,1335.3,843.4,1336.2,843.4z"/>
	<path class="st0" d="M1334.5,880.6c0,0.9,0.7,1.7,1.7,1.7s1.7-0.7,1.7-1.7v-23.7c0-0.9-0.7-1.7-1.7-1.7s-1.7,0.7-1.7,1.7V880.6z"/>
	<path class="st0" d="M1086.5,373.5h71.3c0.9,0,1.7-0.7,1.7-1.7s-0.7-1.7-1.7-1.7h-71.3c-0.9,0-1.7,0.7-1.7,1.7
		S1085.5,373.5,1086.5,373.5z"/>
	<path class="st0" d="M1086.5,405.1h71.3c0.9,0,1.7-0.7,1.7-1.7s-0.7-1.7-1.7-1.7h-71.3c-0.9,0-1.7,0.7-1.7,1.7
		C1084.8,404.4,1085.5,405.1,1086.5,405.1z"/>
	<path class="st0" d="M1086.5,432.6h72.4c0.9,0,1.7-0.7,1.7-1.7s-0.7-1.7-1.7-1.7h-72.4c-0.9,0-1.7,0.7-1.7,1.7
		C1084.8,431.8,1085.5,432.6,1086.5,432.6z"/>
	<path class="st0" d="M1086.5,448h48.9c0.9,0,1.7-0.7,1.7-1.7s-0.7-1.7-1.7-1.7h-48.9c-0.9,0-1.7,0.7-1.7,1.7S1085.5,448,1086.5,448
		z"/>
	<path class="st0" d="M1086.5,389.3h32.9c0.9,0,1.7-0.7,1.7-1.7s-0.7-1.7-1.7-1.7h-32.9c-0.9,0-1.7,0.7-1.7,1.7
		S1085.5,389.3,1086.5,389.3z"/>
	<path class="st0" d="M1071,364.7c-4.3,0-7.7,3.4-7.7,7.7c0,4.3,3.4,7.7,7.7,7.7c4.3,0,7.7-3.4,7.7-7.7
		C1078.7,368.1,1075.2,364.7,1071,364.7z M1071,376.8c-2.4,0-4.4-2-4.4-4.4s2-4.4,4.4-4.4s4.4,2,4.4,4.4S1073.4,376.8,1071,376.8z"
		/>
	<path class="st0" d="M1071,423.2c-4.3,0-7.7,3.4-7.7,7.7s3.4,7.7,7.7,7.7c4.3,0,7.7-3.4,7.7-7.7S1075.2,423.2,1071,423.2z
		 M1071,435.3c-2.4,0-4.4-2-4.4-4.4s2-4.4,4.4-4.4s4.4,2,4.4,4.4C1075.4,433.3,1073.4,435.3,1071,435.3z"/>
	<path class="st0" d="M1202.2,378.5c-0.9,0-1.7,0.7-1.7,1.7v10.7c0,0.9,0.7,1.7,1.7,1.7s1.7-0.7,1.7-1.7v-10.7
		C1203.9,379.3,1203.1,378.5,1202.2,378.5z"/>
	<path class="st0" d="M1083,322.8v19.8h-37.4c-0.9,0-1.7,0.7-1.7,1.7v131c0,0.9,0.7,1.7,1.7,1.7h28.3l-5.2,39.7
		c-0.1,0.7,0.3,1.4,0.9,1.7c0.2,0.1,0.5,0.2,0.7,0.2c0.4,0,0.9-0.1,1.1-0.5l41-41h65.6c0.9,0,1.7-0.7,1.7-1.7v-18h22.4
		c0.9,0,1.7-0.7,1.7-1.7v-55.5c0-0.9-0.7-1.7-1.7-1.7s-1.7,0.7-1.7,1.7V454h-20.7V344.3c0-0.9-0.7-1.7-1.7-1.7h-91.9v-18.2h114.2
		v45.8c0,0.9,0.7,1.7,1.7,1.7s1.7-0.7,1.7-1.7v-47.4c0-0.9-0.7-1.7-1.7-1.7h-117.6C1083.7,321.1,1083,321.9,1083,322.8z M1176.5,346
		v127.7h-64.6c-0.4,0-0.9,0.2-1.1,0.5l-38.1,38.1l4.8-36.7c0.1-0.5-0.1-0.9-0.4-1.3c-0.3-0.3-0.7-0.5-1.2-0.5h-28.6V346H1176.5z"/>
	<path class="st0" d="M1015.8,252.1c0,4.6,3.7,8.3,8.3,8.3c4.6,0,8.3-3.7,8.3-8.3c0-4.6-3.7-8.3-8.3-8.3
		C1019.5,243.8,1015.8,247.5,1015.8,252.1z M1024.1,247.1c2.8,0,5,2.2,5,5c0,2.8-2.2,5-5,5c-2.8,0-5-2.2-5-5
		C1019.1,249.3,1021.4,247.1,1024.1,247.1z"/>
	<path class="st0" d="M1042.8,252.1c0,4.6,3.7,8.3,8.3,8.3c4.6,0,8.3-3.7,8.3-8.3c0-4.6-3.7-8.3-8.3-8.3
		C1046.5,243.8,1042.8,247.5,1042.8,252.1z M1051.1,247.1c2.8,0,5,2.2,5,5c0,2.8-2.2,5-5,5s-5-2.2-5-5
		C1046.1,249.3,1048.4,247.1,1051.1,247.1z"/>
	<path class="st0" d="M1086.4,252.1c0-4.6-3.7-8.3-8.3-8.3s-8.3,3.7-8.3,8.3c0,4.6,3.7,8.3,8.3,8.3
		C1082.6,260.4,1086.4,256.7,1086.4,252.1z M1073.1,252.1c0-2.8,2.2-5,5-5c2.8,0,5,2.2,5,5c0,2.8-2.2,5-5,5
		C1075.3,257.1,1073.1,254.9,1073.1,252.1z"/>
	<path class="st0" d="M991.7,312.5l17.3-30.2h98.5c0.9,0,1.7-0.7,1.7-1.7v-56c0-0.9-0.7-1.7-1.7-1.7h-51.4c-0.9,0-1.7,0.7-1.7,1.7
		c0,0.9,0.7,1.7,1.7,1.7h49.8V279h-97.8c-0.6,0-1.1,0.3-1.4,0.8L992,305.4v-79.1h29.3c0.9,0,1.7-0.7,1.7-1.7s-0.7-1.7-1.7-1.7h-31
		c-0.9,0-1.7,0.7-1.7,1.7v87c0,0.7,0.5,1.4,1.2,1.6c0.1,0.1,0.3,0.1,0.4,0.1C990.8,313.3,991.4,313,991.7,312.5z"/>
	<path class="st0" d="M1032.2,226.3h13.4c0.9,0,1.7-0.7,1.7-1.7s-0.7-1.7-1.7-1.7h-13.4c-0.9,0-1.7,0.7-1.7,1.7
		S1031.3,226.3,1032.2,226.3z"/>
	<path class="st0" d="M761,487.3c0,0.9,0.7,1.7,1.7,1.7s1.7-0.7,1.7-1.7V150.1c0-0.9-0.7-1.7-1.7-1.7h-36.3l-21.7-55.5
		c-0.3-0.6-0.9-1.1-1.6-1.1h-65.8V1.7c0-0.9-0.7-1.7-1.7-1.7h-8.4c-0.9,0-1.7,0.7-1.7,1.7v90.1h-65.8c-0.7,0-1.3,0.4-1.6,1.1
		l-21.7,55.5h-36.3c-0.9,0-1.7,0.7-1.7,1.7v251.1c0,0.9,0.7,1.7,1.7,1.7s1.7-0.7,1.7-1.7v-15.1H531c0.9,0,1.7-0.7,1.7-1.7
		s-0.7-1.7-1.7-1.7h-29.1v-13.4h50.8c0.9,0,1.7-0.7,1.7-1.7s-0.7-1.7-1.7-1.7h-50.8v-13.4h79.6c0.9,0,1.7-0.7,1.7-1.7
		s-0.7-1.7-1.7-1.7h-79.6v-13.4H604c0.9,0,1.7-0.7,1.7-1.7s-0.7-1.7-1.7-1.7H502v-13.4h129.5c0.9,0,1.7-0.7,1.7-1.7
		c0-0.9-0.7-1.7-1.7-1.7H502v-13.4h259v13.8h-73.6c-0.9,0-1.7,0.7-1.7,1.7c0,0.9,0.7,1.7,1.7,1.7H761v13.4h-49.5
		c-0.9,0-1.7,0.7-1.7,1.7c0,0.9,0.7,1.7,1.7,1.7H761v13.4h-54.5c-0.9,0-1.7,0.7-1.7,1.7s0.7,1.7,1.7,1.7H761v13.4h-59.6
		c-0.9,0-1.7,0.7-1.7,1.7s0.7,1.7,1.7,1.7H761v13.4h-64.7c-0.9,0-1.7,0.7-1.7,1.7c0,0.9,0.7,1.7,1.7,1.7H761v13.1h-69.8
		c-0.9,0-1.7,0.7-1.7,1.7s0.7,1.7,1.7,1.7H761v13.4h-74.9c-0.9,0-1.7,0.7-1.7,1.7s0.7,1.7,1.7,1.7H761v13.4l-80.3,1
		c-0.9,0-1.6,0.7-1.6,1.7c0,0.9,0.7,1.6,1.7,1.6l0,0l80.3-1v13.4h-85c-0.9,0-1.7,0.7-1.7,1.7s0.7,1.7,1.7,1.7h85v13.4h-90.2
		c-0.9,0-1.7,0.7-1.7,1.7s0.7,1.7,1.7,1.7h90L761,487.3L761,487.3z M502,252.2h138.5v-3.3H502v-13.4h259v13.4h-78.2v3.3H761v13.4
		H502V252.2z M502,218.7h259v13.4H502V218.7z M502,201.9h38.3v-3.3H502v-13.4h259v13.4H582.6v3.3H761v13.4H502V201.9z M761,181.9
		H502v-13.4h259V181.9z M502,269h259v13.4H502V269z M628.9,3.3h5.1v88.5h-5.1V3.3z M502,151.7h155.4v-3.3H540.2L561,95.1H702
		l20.8,53.3h-23.2v3.3H761v13.4H502V151.7z M502,299.1v-13.4h259v13.4H502z"/>
	<rect x="669" y="148.4" class="st0" width="18.9" height="3.3"/>
	<path class="st0" d="M640.5,113.7h44.7c0.9,0,1.7-0.7,1.7-1.7c0-0.9-0.7-1.7-1.7-1.7h-44.7c-0.9,0-1.7,0.7-1.7,1.7
		C638.8,112.9,639.6,113.7,640.5,113.7z"/>
	<path class="st0" d="M620.8,110.4h-43c-0.9,0-1.7,0.7-1.7,1.7c0,0.9,0.7,1.7,1.7,1.7h43c0.9,0,1.7-0.7,1.7-1.7
		C622.5,111.1,621.6,110.4,620.8,110.4z"/>
	<path class="st0" d="M696,127.7h-55.5c-0.9,0-1.7,0.7-1.7,1.7s0.7,1.7,1.7,1.7H696c0.9,0,1.7-0.7,1.7-1.7S696.8,127.7,696,127.7z"
		/>
	<path class="st0" d="M620.8,127.7H567c-0.9,0-1.7,0.7-1.7,1.7s0.7,1.7,1.7,1.7h53.8c0.9,0,1.7-0.7,1.7-1.7S621.6,127.7,620.8,127.7
		z"/>
	<rect x="552" y="198.6" class="st0" width="18.9" height="3.3"/>
	<rect x="652.2" y="248.9" class="st0" width="18.9" height="3.3"/>
</g>
</svg>
