<svg width="90" height="45" viewBox="0 0 90 45" fill="none" xmlns="http://www.w3.org/2000/svg">
<path d="M13.946 18.07C13.634 15.522 11.242 6.76 9.94202 4.29C9.76002 3.926 9.21402 3.692 8.59002 3.692C7.86202 3.692 6.95202 3.9 6.22402 4.29C5.65202 4.602 -0.275982 15.21 0.0100181 17.472C0.114018 18.33 1.05002 18.616 1.67402 18.616C2.48002 18.616 2.58402 18.33 2.81802 17.732C3.15602 16.822 3.44202 15.86 3.91002 15.002C4.76802 14.872 7.68002 14.456 9.73402 13.936C9.96802 14.794 10.904 19.162 11.242 19.552C11.528 19.864 11.892 19.916 12.152 19.916C12.75 19.916 13.53 19.552 13.868 19.084C13.972 18.928 14.024 18.564 13.946 18.07ZM8.95402 11.31C8.25202 11.414 6.90002 11.674 5.10602 12.246C6.27602 9.672 7.78402 6.786 7.91402 6.786C8.07002 6.76 8.66802 10.01 8.95402 11.31Z" fill="white"/>
<path d="M32.9563 6.266C32.9303 6.11 32.8523 5.98 32.7743 5.876C31.6823 4.628 30.3823 4.16 28.8223 4.16C23.9863 4.16 17.5903 7.202 16.3683 8.346C15.8483 8.84 15.7703 9.776 15.8483 10.426C15.9003 10.894 16.0823 11.492 16.4203 11.83C17.9803 13.442 22.3743 13.884 24.4543 14.43C24.6883 14.482 24.9483 14.534 25.1043 14.56C25.1563 14.586 25.2083 14.56 25.2343 14.586C25.1303 15.184 19.6703 16.12 19.1503 16.952C19.0723 17.082 18.9943 17.238 19.0203 17.394C19.0983 18.07 20.9963 18.824 21.9843 18.824C23.0763 18.824 27.4703 16.874 28.3023 16.198C28.6923 15.912 28.7703 15.522 28.7183 15.132C28.6143 14.118 27.4443 12.974 27.0023 12.714C26.1443 12.194 21.0743 11.154 19.7223 10.868C19.3063 10.79 18.9683 10.712 18.7343 10.634C20.0863 9.256 26.3523 6.89 29.5763 6.89C30.2003 6.89 30.5383 6.994 30.7203 7.098C30.9283 7.228 31.1883 7.254 31.3703 7.254C32.0203 7.254 33.0083 6.734 32.9563 6.266Z" fill="white"/>
<path d="M47.1819 5.564C47.0779 4.68 45.8039 3.796 44.9459 3.796C44.6859 3.796 44.3219 3.9 44.1919 4.264C43.7759 5.408 43.9579 9.542 44.0099 10.998C44.0099 11.206 44.0359 11.544 44.0359 11.544C44.0359 11.544 38.6019 12.324 36.7819 12.688C36.7559 11.31 36.7819 8.58 36.7039 7.956C36.5999 7.098 35.2739 6.266 34.4939 6.266C34.2339 6.266 33.9219 6.344 33.7139 6.63C33.1419 7.488 33.3239 12.35 33.6619 15.08C33.7919 16.094 33.9739 17.056 34.2339 17.472C34.6499 18.148 35.4819 18.512 36.0539 18.512C36.7559 18.512 36.9119 18.07 36.8859 17.576C36.8599 16.952 36.7559 16.354 36.8079 15.756L43.9059 14.534C43.8799 14.976 43.8539 15.496 43.8279 15.964C43.8279 16.562 43.7239 17.16 43.8279 17.758C43.9579 18.512 45.4659 19.344 46.0899 19.344C46.3499 19.344 46.6619 19.24 46.8439 18.954C47.0779 18.564 47.0779 17.238 47.1039 15.86C47.1299 14.352 47.1299 12.48 47.1819 10.738C47.2339 8.372 47.2859 6.266 47.1819 5.564Z" fill="white"/>
<path d="M62.7878 1.196C62.6838 0.468 61.8518 0 61.1758 0C57.9778 0 55.7678 0.311999 54.1298 0.675999C52.5438 1.014 51.5038 1.43 50.5678 1.586C49.9438 1.69 48.2018 1.482 48.3318 2.548C48.4358 3.406 49.9698 4.238 50.8798 4.238C51.8678 4.264 52.8558 3.952 53.7918 3.718C53.7138 5.044 53.5838 7.878 53.4538 10.816C53.2978 14.846 53.1418 19.188 53.2458 20.202C53.4018 21.294 54.4938 21.97 55.4818 21.97C56.0278 21.97 56.4438 21.71 56.4958 21.424C56.5478 21.19 56.5998 19.942 56.6258 18.304C56.6778 16.484 56.9118 3.718 57.2238 3.146C57.2498 3.068 57.5358 3.016 57.9258 2.964C59.0698 2.756 60.2138 2.574 61.3578 2.34C61.6698 2.262 62.0078 2.21 62.2938 2.08C62.5798 1.924 62.8398 1.664 62.7878 1.196Z" fill="white"/>
<path d="M71.4842 10.764C71.4842 10.4 71.4322 10.036 71.4062 9.724C71.0682 6.942 69.4562 6.188 68.3642 6.136C67.8182 5.642 67.1162 5.59 66.6482 5.59C62.9562 5.59 61.1882 9.932 61.5002 12.48C61.7602 14.56 63.5802 16.614 66.1282 16.614C68.8842 16.614 71.5102 13.416 71.4842 10.764ZM68.3382 8.71C68.4162 9.412 68.0002 11.128 67.4542 12.012C67.0122 12.688 65.7122 13.52 64.8542 13.52C64.4122 13.52 64.2822 13.286 64.2302 12.87C64.0222 11.31 65.9722 8.58 67.7662 8.58C67.9482 8.58 68.1562 8.606 68.3382 8.684V8.71Z" fill="white"/>
<path d="M89.6982 6.63C89.7502 5.85 89.7502 5.2 89.6982 4.784C89.5422 3.744 88.4242 2.548 87.2542 2.548C86.8642 2.548 86.4482 2.73 86.3702 3.224C86.1102 4.81 86.2662 10.348 86.3702 12.922C85.4602 11.986 84.0822 10.634 82.7562 9.308C80.7802 7.332 78.7522 5.33 78.4142 5.07C78.1282 4.888 77.7902 4.836 77.5822 4.836C76.9062 4.836 76.0222 5.252 76.0742 5.954C76.2562 7.774 75.8922 15.444 76.0482 16.822C76.1522 17.628 77.3482 19.084 78.4142 19.084C78.9602 19.084 79.2462 18.694 79.2722 18.278C79.3762 17.16 79.2722 12.844 79.1422 10.218C80.2862 11.258 81.3782 12.35 82.4442 13.416C84.1862 15.132 85.9802 16.9 86.6302 17.316C86.8902 17.472 87.2022 17.498 87.4362 17.498C88.0342 17.498 89.5682 17.108 89.4902 16.12C89.2822 12.922 89.5422 9.802 89.6982 6.63Z" fill="white"/>
<path d="M15.298 31.58C15.116 30.124 13.036 28.928 11.398 28.408C10.436 28.096 8.38202 27.862 5.96402 27.862C4.56002 27.862 3.02602 27.94 1.46602 28.122C1.05002 28.174 0.426018 31.97 0.530018 34.648C0.556018 35.22 0.582018 35.792 0.660018 36.338C0.894018 38.262 1.38802 40.108 1.90802 40.862C2.35002 41.46 3.05202 41.668 3.59802 41.668C4.17002 41.668 5.00202 41.408 4.89802 40.628C4.84602 40.238 4.50802 39.172 4.32602 38.34C5.49602 38.886 6.56202 39.666 7.65402 40.342C8.35602 40.758 9.03202 41.226 9.83802 41.226C10.696 41.226 11.684 40.654 11.632 40.108C11.58 39.796 11.372 39.588 11.164 39.458C9.78602 38.652 8.27802 37.846 7.13402 37.144C8.95402 36.546 15.584 34.024 15.298 31.58ZM11.658 30.904C11.71 32.074 6.40602 34.518 4.06602 35.246C3.96202 33.608 4.17002 31.528 4.50802 30.228C5.21002 30.176 5.93802 30.15 6.66602 30.15C9.11002 30.15 11.164 30.488 11.658 30.904Z" fill="white"/>
<path d="M30.5336 39.822C30.2476 37.482 27.0496 28.304 25.3856 26.432C24.9956 25.99 24.3456 25.86 23.7996 25.86C23.1236 25.86 22.3176 26.042 21.6416 26.484C21.0176 26.9 14.5436 40.836 14.6996 43.618C14.7256 44.086 15.1676 44.372 15.6876 44.372C16.1556 44.372 17.0136 44.112 17.2476 43.748C17.3516 43.592 17.5076 43.28 17.6896 42.864C18.3396 41.252 18.8856 39.588 19.6656 38.028C20.6276 37.898 23.8776 37.482 26.1916 36.832C26.3996 37.534 26.9196 39.822 27.2836 40.29C27.6736 40.836 28.6356 41.148 29.2856 41.148C30.2476 41.148 30.6376 40.68 30.5336 39.822ZM25.2816 33.764C24.4236 33.842 22.9156 34.128 20.8096 34.882C21.8236 32.256 22.9676 29.604 23.4356 28.902C23.8256 29.682 24.8136 32.464 25.2816 33.764Z" fill="white"/>
<path d="M47.8616 29.63C47.9136 28.85 47.9136 28.2 47.8616 27.784C47.7056 26.744 46.5876 25.548 45.4176 25.548C45.0276 25.548 44.6116 25.73 44.5336 26.224C44.2736 27.81 44.4296 33.348 44.5336 35.922C43.6236 34.986 42.2456 33.634 40.9196 32.308C38.9436 30.332 36.9156 28.33 36.5776 28.07C36.2916 27.888 35.9536 27.836 35.7456 27.836C35.0696 27.836 34.1856 28.252 34.2376 28.954C34.4196 30.774 34.0556 38.444 34.2116 39.822C34.3156 40.628 35.5116 42.084 36.5776 42.084C37.1236 42.084 37.4096 41.694 37.4356 41.278C37.5396 40.16 37.4356 35.844 37.3056 33.218C38.4496 34.258 39.5416 35.35 40.6076 36.416C42.3496 38.132 44.1436 39.9 44.7936 40.316C45.0536 40.472 45.3656 40.498 45.5996 40.498C46.1976 40.498 47.7316 40.108 47.6536 39.12C47.4456 35.922 47.7056 32.802 47.8616 29.63Z" fill="white"/>
<path d="M65.4341 29.812C65.3561 29.162 64.2641 28.486 63.6921 28.512C61.3521 28.642 57.9721 31.684 56.2821 33.14C56.2301 31.112 56.3601 27.55 56.3081 27.03C56.2041 26.224 54.6441 25.678 54.0721 25.678C53.7341 25.678 53.0841 25.782 52.9541 26.432C52.5641 28.356 52.9021 37.716 53.1881 39.9C53.2141 40.212 53.3181 40.472 53.3441 40.576C53.8121 41.33 55.0601 41.746 55.6841 41.746C55.9961 41.746 56.6201 41.616 56.5681 40.992C56.5421 40.602 56.4121 38.808 56.3341 37.69C57.7641 38.392 59.9221 39.406 60.5721 39.614C60.9881 39.744 61.9761 39.926 62.6001 39.926C63.3021 39.926 63.6921 39.614 63.6141 38.86C63.5101 38.106 62.8601 37.742 62.1841 37.482C60.7541 36.91 59.2461 36.442 57.8161 35.792C60.2081 33.868 64.5761 30.8 65.1741 30.41C65.3821 30.254 65.4601 30.046 65.4341 29.812Z" fill="white"/>
<path d="M71.2596 31.684C71.2076 31.268 71.1296 30.878 70.9996 30.592C70.6356 29.812 69.5436 29.63 69.0236 29.63C68.7116 29.63 68.1136 29.682 67.9056 30.098C67.5936 30.696 67.6456 35.012 67.9056 37.248C67.9836 37.846 68.0876 38.392 68.2436 38.73C68.5036 39.276 69.2836 40.368 69.9336 40.368C70.1676 40.368 70.3756 40.29 70.5316 40.16C71.2596 39.614 71.5456 33.946 71.2596 31.684Z" fill="white"/>
<path d="M89.5459 29.63C89.5979 28.85 89.5979 28.2 89.5459 27.784C89.3899 26.744 88.2719 25.548 87.1019 25.548C86.7119 25.548 86.2959 25.73 86.2179 26.224C85.9579 27.81 86.1139 33.348 86.2179 35.922C85.3079 34.986 83.9299 33.634 82.6039 32.308C80.6279 30.332 78.5999 28.33 78.2619 28.07C77.9759 27.888 77.6379 27.836 77.4299 27.836C76.7539 27.836 75.8699 28.252 75.9219 28.954C76.1039 30.774 75.7399 38.444 75.8959 39.822C75.9999 40.628 77.1959 42.084 78.2619 42.084C78.8079 42.084 79.0939 41.694 79.1199 41.278C79.2239 40.16 79.1199 35.844 78.9899 33.218C80.1339 34.258 81.2259 35.35 82.2919 36.416C84.0339 38.132 85.8279 39.9 86.4779 40.316C86.7379 40.472 87.0499 40.498 87.2839 40.498C87.8819 40.498 89.4159 40.108 89.3379 39.12C89.1299 35.922 89.3899 32.802 89.5459 29.63Z" fill="white"/>
</svg>
