<svg width="129" height="51" viewBox="0 0 129 51" fill="none" xmlns="http://www.w3.org/2000/svg">
<path d="M18.6499 5.47006C18.4999 4.18006 17.1499 2.65006 16.0099 1.93006C14.4799 1.00006 10.8499 0.580059 8.11994 0.580059C6.34994 0.580059 4.51994 0.76006 3.85994 1.30006C3.16994 1.87006 2.14994 12.8801 2.68994 17.2901C2.71994 17.5601 2.74994 17.8001 2.80994 18.0401C2.92994 18.7901 4.27994 20.5301 5.35994 20.5601C5.44994 20.5601 5.56994 20.5601 5.65994 20.5601C8.77994 20.5601 12.6499 18.6701 13.2499 15.9701C13.3099 15.7001 13.3399 15.4601 13.3099 15.1901C13.1299 13.6601 11.4499 12.5801 10.0699 11.9801C12.3799 11.1701 19.0399 8.47006 18.6499 5.47006ZM14.4799 4.72006C14.7799 7.75006 7.99994 9.73006 6.61994 10.1201C6.70994 8.38006 6.91994 4.84006 7.09994 3.58006C8.02994 3.46006 8.92994 3.40006 9.73994 3.40006C13.1299 3.40006 14.4499 4.36006 14.4799 4.72006ZM8.92994 15.5801C9.04994 16.5701 7.42994 17.4101 6.37994 17.6801C6.31994 16.6301 6.37994 14.7401 6.43994 13.7201C7.57994 13.9601 8.80994 14.6201 8.92994 15.5801Z" fill="white"/>
<path d="M25.9392 8.32006C25.8792 7.84006 25.7892 7.39006 25.6392 7.06006C25.2192 6.16006 23.9592 5.95006 23.3592 5.95006C22.9992 5.95006 22.3092 6.01006 22.0692 6.49006C21.7092 7.18006 21.7692 12.1601 22.0692 14.7401C22.1592 15.4301 22.2792 16.0601 22.4592 16.4501C22.7592 17.0801 23.6592 18.3401 24.4092 18.3401C24.6792 18.3401 24.9192 18.2501 25.0992 18.1001C25.9392 17.4701 26.2692 10.9301 25.9392 8.32006Z" fill="white"/>
<path d="M42.4188 19.6901C42.2988 18.7601 41.1588 18.4001 40.5588 18.4001C40.3488 18.4001 40.1388 18.4601 39.8988 18.5501C39.1788 18.8201 36.6588 19.6601 35.0388 20.1101C34.9788 19.9001 34.9788 19.6901 34.9488 19.4501C34.3788 14.8001 35.0388 4.54006 34.7388 2.17006C34.6788 1.84006 34.5888 1.57006 34.4988 1.42006C34.0188 0.730059 33.2388 0.310059 32.5488 0.310059C32.0088 0.310059 31.4688 0.550059 31.3188 1.18006C30.6588 3.85006 31.0488 18.1301 31.4688 21.5801C31.5588 22.2101 31.7988 22.6901 31.9488 22.8101C32.9088 23.5001 33.8088 23.9501 34.5588 23.9501C34.7088 23.9501 34.8288 23.9201 34.9488 23.9201C36.4188 23.5901 41.4588 21.3401 42.1788 20.4101C42.3588 20.2001 42.4488 19.9601 42.4188 19.6901Z" fill="white"/>
<path d="M55.0528 19.6901C54.9328 18.7601 53.7928 18.4001 53.1928 18.4001C52.9828 18.4001 52.7728 18.4601 52.5328 18.5501C51.8128 18.8201 49.2928 19.6601 47.6728 20.1101C47.6128 19.9001 47.6128 19.6901 47.5828 19.4501C47.0128 14.8001 47.6728 4.54006 47.3728 2.17006C47.3128 1.84006 47.2228 1.57006 47.1328 1.42006C46.6528 0.730059 45.8728 0.310059 45.1828 0.310059C44.6428 0.310059 44.1028 0.550059 43.9528 1.18006C43.2928 3.85006 43.6828 18.1301 44.1028 21.5801C44.1928 22.2101 44.4328 22.6901 44.5828 22.8101C45.5428 23.5001 46.4428 23.9501 47.1928 23.9501C47.3428 23.9501 47.4628 23.9201 47.5828 23.9201C49.0528 23.5901 54.0928 21.3401 54.8128 20.4101C54.9928 20.2001 55.0828 19.9601 55.0528 19.6901Z" fill="white"/>
<path d="M21.8899 42.5501C21.6799 40.8401 19.9399 35.7101 19.3399 35.3201C19.0699 35.1401 18.7699 35.1101 18.5599 35.1101C17.6299 35.1101 16.3399 35.7701 15.7099 36.4001C15.1399 37.0001 13.5799 38.4101 12.1999 39.6401C11.6599 37.7801 11.4499 35.8901 11.1799 34.0301C11.0899 33.4301 10.9699 32.9201 10.8799 32.5601C10.6699 31.9001 10.0699 31.6001 9.52994 31.6001C8.68994 31.6001 7.75994 32.1701 7.21994 32.8301C6.67994 33.4901 0.829941 43.3901 0.949941 44.2601C1.00994 44.8301 1.78994 45.2201 2.47994 45.2201C2.83994 45.2201 3.58994 45.1301 3.85994 44.6801C4.60994 43.4501 6.13994 40.8101 7.69994 38.5301C7.87994 39.5201 8.47994 43.1201 8.98994 43.6601C9.46994 44.1701 10.5199 44.4101 11.2399 44.4101C11.7499 44.4101 12.3499 44.3201 12.7399 43.8701C13.4299 43.0601 15.6199 40.5101 16.6699 39.5801C16.9399 40.7801 17.8099 44.5301 19.5799 44.5301C20.2699 44.5301 21.6499 44.0201 21.8599 43.2101C21.9199 43.0001 21.8899 42.7601 21.8899 42.5501Z" fill="white"/>
<path d="M42.2794 44.7101C41.9494 42.0101 38.2594 31.4201 36.3394 29.2601C35.8894 28.7501 35.1394 28.6001 34.5094 28.6001C33.7294 28.6001 32.7994 28.8101 32.0194 29.3201C31.2994 29.8001 23.8294 45.8801 24.0094 49.0901C24.0394 49.6301 24.5494 49.9601 25.1494 49.9601C25.6894 49.9601 26.6794 49.6601 26.9494 49.2401C27.0694 49.0601 27.2494 48.7001 27.4594 48.2201C28.2094 46.3601 28.8394 44.4401 29.7394 42.6401C30.8494 42.4901 34.5994 42.0101 37.2694 41.2601C37.5094 42.0701 38.1094 44.7101 38.5294 45.2501C38.9794 45.8801 40.0894 46.2401 40.8394 46.2401C41.9494 46.2401 42.3994 45.7001 42.2794 44.7101ZM36.2194 37.7201C35.2294 37.8101 33.4894 38.1401 31.0594 39.0101C32.2294 35.9801 33.5494 32.9201 34.0894 32.1101C34.5394 33.0101 35.6794 36.2201 36.2194 37.7201Z" fill="white"/>
<path d="M58.4032 41.4701C58.3132 40.6001 57.6232 40.0001 56.8432 40.0001C56.4532 40.0001 56.0932 40.1501 55.8832 40.4801C54.9532 41.8601 51.3232 44.1101 49.7632 44.1101C49.4932 44.1101 49.1932 43.6901 49.1632 43.4801C48.5332 38.2001 56.1532 31.2101 57.5632 30.7901C57.9832 30.6701 58.3432 30.3401 58.2832 29.8301C58.1632 28.9301 56.9032 28.3301 56.0332 28.3301C50.1532 28.3301 44.8132 38.5901 45.3532 42.8201C45.6532 45.4001 47.7832 47.2001 50.5132 47.2001C50.9932 47.2001 51.4132 47.1101 51.8032 46.9901C53.9032 46.2401 58.6732 43.5101 58.4032 41.4701Z" fill="white"/>
<path d="M78.2407 44.7101C77.9107 42.0101 74.2207 31.4201 72.3007 29.2601C71.8507 28.7501 71.1007 28.6001 70.4707 28.6001C69.6907 28.6001 68.7607 28.8101 67.9807 29.3201C67.2607 29.8001 59.7907 45.8801 59.9707 49.0901C60.0007 49.6301 60.5107 49.9601 61.1107 49.9601C61.6507 49.9601 62.6407 49.6601 62.9107 49.2401C63.0307 49.0601 63.2107 48.7001 63.4207 48.2201C64.1707 46.3601 64.8007 44.4401 65.7007 42.6401C66.8107 42.4901 70.5607 42.0101 73.2307 41.2601C73.4707 42.0701 74.0707 44.7101 74.4907 45.2501C74.9407 45.8801 76.0507 46.2401 76.8007 46.2401C77.9107 46.2401 78.3607 45.7001 78.2407 44.7101ZM72.1807 37.7201C71.1907 37.8101 69.4507 38.1401 67.0207 39.0101C68.1907 35.9801 69.5107 32.9201 70.0507 32.1101C70.5007 33.0101 71.6407 36.2201 72.1807 37.7201Z" fill="white"/>
<path d="M85.7845 35.3201C85.7245 34.8401 85.6345 34.3901 85.4845 34.0601C85.0645 33.1601 83.8045 32.9501 83.2045 32.9501C82.8445 32.9501 82.1545 33.0101 81.9145 33.4901C81.5545 34.1801 81.6145 39.1601 81.9145 41.7401C82.0045 42.4301 82.1245 43.0601 82.3045 43.4501C82.6045 44.0801 83.5045 45.3401 84.2545 45.3401C84.5245 45.3401 84.7645 45.2501 84.9445 45.1001C85.7845 44.4701 86.1145 37.9301 85.7845 35.3201Z" fill="white"/>
<path d="M102.947 26.6801C102.827 25.8401 101.867 25.3001 101.087 25.3001C97.3974 25.3001 94.8474 25.6601 92.9574 26.0801C91.1274 26.4701 89.9274 26.9501 88.8474 27.1301C88.1274 27.2501 86.1174 27.0101 86.2674 28.2401C86.3874 29.2301 88.1574 30.1901 89.2074 30.1901C90.3474 30.2201 91.4874 29.8601 92.5674 29.5901C92.4774 31.1201 92.3274 34.3901 92.1774 37.7801C91.9974 42.4301 91.8174 47.4401 91.9374 48.6101C92.1174 49.8701 93.3774 50.6501 94.5174 50.6501C95.1474 50.6501 95.6274 50.3501 95.6874 50.0201C95.7474 49.7501 95.8074 48.3101 95.8374 46.4201C95.8974 44.3201 96.1674 29.5901 96.5274 28.9301C96.5574 28.8401 96.8874 28.7801 97.3374 28.7201C98.6574 28.4801 99.9774 28.2701 101.297 28.0001C101.657 27.9101 102.047 27.8501 102.377 27.7001C102.707 27.5201 103.007 27.2201 102.947 26.6801Z" fill="white"/>
<path d="M106.189 35.3201C106.129 34.8401 106.039 34.3901 105.889 34.0601C105.469 33.1601 104.209 32.9501 103.609 32.9501C103.249 32.9501 102.559 33.0101 102.319 33.4901C101.959 34.1801 102.019 39.1601 102.319 41.7401C102.409 42.4301 102.529 43.0601 102.709 43.4501C103.009 44.0801 103.909 45.3401 104.659 45.3401C104.929 45.3401 105.169 45.2501 105.349 45.1001C106.189 44.4701 106.519 37.9301 106.189 35.3201Z" fill="white"/>
<path d="M128.789 32.5301C128.759 32.3501 128.669 32.2001 128.579 32.0801C127.319 30.6401 125.819 30.1001 124.019 30.1001C118.439 30.1001 111.059 33.6101 109.649 34.9301C109.049 35.5001 108.959 36.5801 109.049 37.3301C109.109 37.8701 109.319 38.5601 109.709 38.9501C111.509 40.8101 116.579 41.3201 118.979 41.9501C119.249 42.0101 119.549 42.0701 119.729 42.1001C119.789 42.1301 119.849 42.1001 119.879 42.1301C119.759 42.8201 113.459 43.9001 112.859 44.8601C112.769 45.0101 112.679 45.1901 112.709 45.3701C112.799 46.1501 114.989 47.0201 116.129 47.0201C117.389 47.0201 122.459 44.7701 123.419 43.9901C123.869 43.6601 123.959 43.2101 123.899 42.7601C123.779 41.5901 122.429 40.2701 121.919 39.9701C120.929 39.3701 115.079 38.1701 113.519 37.8401C113.039 37.7501 112.649 37.6601 112.379 37.5701C113.939 35.9801 121.169 33.2501 124.889 33.2501C125.609 33.2501 125.999 33.3701 126.209 33.4901C126.449 33.6401 126.749 33.6701 126.959 33.6701C127.709 33.6701 128.849 33.0701 128.789 32.5301Z" fill="white"/>
</svg>
