<svg width="111" height="49" viewBox="0 0 111 49" fill="none" xmlns="http://www.w3.org/2000/svg">
<path d="M16.6499 5.47008C16.4999 4.18008 15.1499 2.65008 14.0099 1.93008C12.4799 1.00008 8.84992 0.580078 6.11992 0.580078C4.34992 0.580078 2.51992 0.760079 1.85992 1.30008C1.16992 1.87008 0.149915 12.8801 0.689915 17.2901C0.719915 17.5601 0.749915 17.8001 0.809915 18.0401C0.929915 18.7901 2.27992 20.5301 3.35992 20.5601C3.44992 20.5601 3.56992 20.5601 3.65992 20.5601C6.77992 20.5601 10.6499 18.6701 11.2499 15.9701C11.3099 15.7001 11.3399 15.4601 11.3099 15.1901C11.1299 13.6601 9.44992 12.5801 8.06992 11.9801C10.3799 11.1701 17.0399 8.47008 16.6499 5.47008ZM12.4799 4.72008C12.7799 7.75008 5.99992 9.73008 4.61992 10.1201C4.70992 8.38008 4.91992 4.84008 5.09992 3.58008C6.02992 3.46008 6.92992 3.40008 7.73992 3.40008C11.1299 3.40008 12.4499 4.36008 12.4799 4.72008ZM6.92992 15.5801C7.04992 16.5701 5.42992 17.4101 4.37992 17.6801C4.31992 16.6301 4.37992 14.7401 4.43992 13.7201C5.57992 13.9601 6.80992 14.6201 6.92992 15.5801Z" fill="white"/>
<path d="M40.8409 6.28008C40.6309 4.63008 38.3509 3.49008 36.5809 2.86008C35.6809 2.56008 34.2109 2.38008 32.4409 2.38008C29.4709 2.38008 25.4209 2.83008 21.1609 3.97008C20.5309 4.15008 19.8709 8.77008 19.8109 11.6501C19.7809 12.5501 19.8709 13.6001 19.9909 14.6501C20.2609 16.9301 20.8309 19.4201 21.4009 20.2001C21.8209 20.8301 22.4809 21.1601 23.0809 21.1601C23.9209 21.1601 24.4309 20.6201 24.3409 19.8701C24.2809 19.2101 23.8309 17.4701 23.7109 16.3001C25.2709 16.9901 26.7409 17.9501 28.2709 18.8201C29.1109 19.3001 29.9509 19.8701 30.9109 19.8701C31.9009 19.8701 32.9809 19.2401 32.8909 18.5501C32.7709 17.5601 28.9909 15.6101 27.4309 14.8901C30.3409 13.9601 41.2909 9.94008 40.8409 6.28008ZM36.8809 5.92008C35.8009 7.57008 27.4009 12.0101 23.4109 12.7901C23.2909 10.7501 23.5309 7.90008 23.9509 6.31008C26.3509 5.83008 30.0109 5.32008 32.9809 5.32008C34.9009 5.32008 36.2209 5.53008 36.8809 5.92008Z" fill="white"/>
<path d="M47.9181 6.88008C47.8581 6.31008 47.7381 5.80008 47.5581 5.44008C47.1681 4.54008 45.9081 4.33008 45.2781 4.33008C44.9481 4.33008 44.2281 4.39008 43.9881 4.90008C43.6581 5.56008 43.8381 11.1701 44.1981 14.1101C44.2881 14.9801 44.4681 15.7901 44.6481 16.2101C44.9481 16.8401 45.8181 18.1001 46.5981 18.1001C46.8681 18.1001 47.1081 18.0101 47.2881 17.8601C48.0981 17.2301 48.2781 9.79008 47.9181 6.88008Z" fill="white"/>
<path d="M68.241 19.1501C67.881 16.2101 65.121 6.10008 63.621 3.25008C63.411 2.83008 62.781 2.56008 62.061 2.56008C61.221 2.56008 60.171 2.80008 59.331 3.25008C58.671 3.61008 51.831 15.8501 52.161 18.4601C52.281 19.4501 53.361 19.7801 54.081 19.7801C55.011 19.7801 55.131 19.4501 55.401 18.7601C55.791 17.7101 56.121 16.6001 56.661 15.6101C57.651 15.4601 61.011 14.9801 63.381 14.3801C63.651 15.3701 64.731 20.4101 65.121 20.8601C65.451 21.2201 65.871 21.2801 66.171 21.2801C66.861 21.2801 67.761 20.8601 68.151 20.3201C68.271 20.1401 68.331 19.7201 68.241 19.1501ZM62.481 11.3501C61.671 11.4701 60.111 11.7701 58.041 12.4301C59.391 9.46008 61.131 6.13008 61.281 6.13008C61.461 6.10008 62.151 9.85008 62.481 11.3501Z" fill="white"/>
<path d="M83.9835 7.48008C83.8635 6.46008 82.8735 5.71008 81.8535 5.71008C81.4635 5.71008 80.9835 5.86008 80.7735 6.31008C80.5935 6.64008 80.4735 8.32008 80.3535 9.82008C80.3235 10.4201 80.2335 10.9901 80.2035 11.5901C78.4935 10.0901 76.8435 8.50008 75.1635 6.94008C74.5935 6.40008 74.0835 5.95008 73.9035 5.83008C73.6035 5.62008 73.2735 5.59008 73.0635 5.59008C72.6135 5.59008 71.5635 5.80008 71.5635 6.61008C71.5635 8.17008 71.4435 14.3801 71.5635 15.4601C71.6535 16.2401 72.7035 17.5601 73.7835 17.5601C74.3235 17.5601 74.6235 17.2001 74.7135 16.7801C74.8335 16.1501 74.8335 14.8901 74.8035 13.6301C74.7735 12.8501 74.7735 12.0701 74.7735 11.3501C75.6135 12.0701 76.4235 12.8201 77.2035 13.5701C78.6135 14.8601 80.0535 16.1801 80.6535 16.5701C80.9235 16.7501 81.2535 16.7801 81.4635 16.7801C81.9735 16.7801 83.5035 16.4501 83.5035 15.5201C83.5935 13.5101 83.7135 11.8001 83.8335 10.4501C83.8935 9.58008 84.0435 8.38008 83.9835 7.48008Z" fill="white"/>
<path d="M17.2199 32.6501C17.1299 31.8701 15.8399 31.1501 15.1799 31.1801C12.3299 31.3301 5.48992 36.1601 3.65992 37.4801C3.59992 35.8301 3.74992 33.4901 3.65992 32.9201C3.53992 31.9601 2.33992 31.4201 1.52992 31.4201C1.16992 31.4201 0.419915 31.5401 0.269915 32.2901C-0.150085 34.3301 0.0599154 40.5101 0.329915 42.6101C0.389915 43.0901 0.479915 43.4201 0.569915 43.5701C1.01992 44.3501 2.12992 44.8601 2.81992 44.8601C3.17992 44.8601 3.80992 44.6801 3.74992 43.9901C3.74992 43.6301 3.65992 42.0401 3.65992 42.0401C3.65992 42.0401 5.06992 43.0001 5.93992 43.4201C6.80992 43.8401 7.67992 44.4101 8.57992 44.6801C9.05992 44.8301 10.2299 45.0401 10.9499 45.0401C11.6399 45.0401 12.1799 44.7701 12.0599 43.9301C12.0299 43.5401 11.7899 43.0601 11.3399 42.7001C10.2599 41.8301 7.43992 40.8401 5.63992 40.2701C7.07992 39.2501 9.29992 37.8701 11.3999 36.5801C14.0699 34.9601 16.4999 33.5801 16.8899 33.3101C17.1299 33.1601 17.2499 32.9201 17.2199 32.6501Z" fill="white"/>
<path d="M32.5727 46.1501C32.2127 43.2101 29.4527 33.1001 27.9527 30.2501C27.7427 29.8301 27.1127 29.5601 26.3927 29.5601C25.5527 29.5601 24.5026 29.8001 23.6626 30.2501C23.0026 30.6101 16.1626 42.8501 16.4926 45.4601C16.6126 46.4501 17.6926 46.7801 18.4126 46.7801C19.3426 46.7801 19.4626 46.4501 19.7326 45.7601C20.1226 44.7101 20.4526 43.6001 20.9926 42.6101C21.9826 42.4601 25.3427 41.9801 27.7127 41.3801C27.9827 42.3701 29.0626 47.4101 29.4527 47.8601C29.7827 48.2201 30.2026 48.2801 30.5026 48.2801C31.1926 48.2801 32.0927 47.8601 32.4827 47.3201C32.6027 47.1401 32.6626 46.7201 32.5727 46.1501ZM26.8127 38.3501C26.0027 38.4701 24.4427 38.7701 22.3727 39.4301C23.7227 36.4601 25.4626 33.1301 25.6126 33.1301C25.7926 33.1001 26.4827 36.8501 26.8127 38.3501Z" fill="white"/>
<path d="M56.6976 33.2801C56.4876 31.6301 54.2076 30.4901 52.4376 29.8601C51.5376 29.5601 50.0676 29.3801 48.2976 29.3801C45.3276 29.3801 41.2776 29.8301 37.0176 30.9701C36.3876 31.1501 35.7276 35.7701 35.6676 38.6501C35.6376 39.5501 35.7276 40.6001 35.8476 41.6501C36.1176 43.9301 36.6876 46.4201 37.2576 47.2001C37.6776 47.8301 38.3376 48.1601 38.9376 48.1601C39.7776 48.1601 40.2876 47.6201 40.1976 46.8701C40.1376 46.2101 39.6876 44.4701 39.5676 43.3001C41.1276 43.9901 42.5976 44.9501 44.1276 45.8201C44.9676 46.3001 45.8076 46.8701 46.7676 46.8701C47.7576 46.8701 48.8376 46.2401 48.7476 45.5501C48.6276 44.5601 44.8476 42.6101 43.2876 41.8901C46.1976 40.9601 57.1476 36.9401 56.6976 33.2801ZM52.7376 32.9201C51.6576 34.5701 43.2576 39.0101 39.2676 39.7901C39.1476 37.7501 39.3876 34.9001 39.8076 33.3101C42.2076 32.8301 45.8676 32.3201 48.8376 32.3201C50.7576 32.3201 52.0776 32.5301 52.7376 32.9201Z" fill="white"/>
<path d="M75.1748 35.2601C74.9348 33.4301 73.4648 32.4701 72.0248 31.6001C71.0048 31.0001 68.3648 30.1901 64.2248 30.1901C62.9648 30.1901 61.5248 30.2201 59.9648 30.4301C59.4248 30.4901 58.7648 38.2001 59.3048 42.7301C59.6048 45.0101 60.4148 46.9601 61.5548 46.9601C61.6448 46.9601 61.7348 46.9601 61.8248 46.9601C64.5248 46.3901 75.8048 40.4201 75.1748 35.2601ZM71.3948 34.7801C70.5548 36.6701 67.3748 40.5701 62.9048 42.5501C62.6048 39.5801 62.4248 33.8201 62.8148 33.5201C62.9648 33.4001 63.3548 33.4301 63.8948 33.4301C66.0848 33.4301 71.8148 33.7901 71.3948 34.7801Z" fill="white"/>
<path d="M93.2926 34.6601C93.1426 33.2801 92.6327 31.6301 91.1926 30.6701C90.5026 30.2201 89.5726 29.9801 88.9726 29.9801C88.2826 29.9801 87.2626 30.1301 86.8426 30.7901C86.1226 30.7901 85.4926 30.8201 84.8926 31.0301C80.2126 32.5601 76.8526 37.8101 77.4526 42.5801C77.6326 44.1701 78.2326 45.2801 78.5026 45.6701C79.0426 46.4501 80.3926 47.7401 82.8226 47.7401C86.2726 47.7401 90.3226 44.7101 91.6726 42.1901C92.9926 39.7001 93.5926 36.9401 93.2926 34.6601ZM89.3926 34.6901C89.5726 36.1601 89.2726 38.4401 88.1926 40.4801C87.2027 42.4001 85.0727 45.0701 82.3427 45.0701C81.3827 45.0701 81.1726 44.1401 81.0826 43.4501C80.7226 40.3301 82.9427 36.2501 85.3727 34.3001C86.2127 33.6101 86.9926 33.1901 87.6526 32.7401C87.9226 32.7701 88.3127 32.8301 88.5527 32.9501C89.0627 33.1901 89.3326 34.0601 89.3926 34.6901Z" fill="white"/>
<path d="M110.211 34.4801C110.091 33.4601 109.101 32.7101 108.081 32.7101C107.691 32.7101 107.211 32.8601 107.001 33.3101C106.821 33.6401 106.701 35.3201 106.581 36.8201C106.551 37.4201 106.461 37.9901 106.431 38.5901C104.721 37.0901 103.071 35.5001 101.391 33.9401C100.821 33.4001 100.311 32.9501 100.131 32.8301C99.8312 32.6201 99.5012 32.5901 99.2912 32.5901C98.8412 32.5901 97.7912 32.8001 97.7912 33.6101C97.7912 35.1701 97.6712 41.3801 97.7912 42.4601C97.8812 43.2401 98.9312 44.5601 100.011 44.5601C100.551 44.5601 100.851 44.2001 100.941 43.7801C101.061 43.1501 101.061 41.8901 101.031 40.6301C101.001 39.8501 101.001 39.0701 101.001 38.3501C101.841 39.0701 102.651 39.8201 103.431 40.5701C104.841 41.8601 106.281 43.1801 106.881 43.5701C107.151 43.7501 107.481 43.7801 107.691 43.7801C108.201 43.7801 109.731 43.4501 109.731 42.5201C109.821 40.5101 109.941 38.8001 110.061 37.4501C110.121 36.5801 110.271 35.3801 110.211 34.4801Z" fill="white"/>
</svg>
