<svg width="129" height="57" viewBox="0 0 129 57" fill="none" xmlns="http://www.w3.org/2000/svg">
<path d="M14.28 9.072C14.224 8.736 13.244 8.232 12.18 8.232C11.592 8.232 10.948 8.26 10.78 8.288C9.968 8.4 4.872 10.22 4.928 10.724C5.096 11.396 6.244 12.124 6.944 12.124C7.028 12.124 7.14 12.096 7.252 12.068C8.204 11.816 9.184 11.648 9.912 11.564C9.156 15.568 5.656 18.76 4.508 19.18C3.892 17.864 3.584 16.66 3.444 15.512C2.632 8.904 8.512 4.816 10.36 4.816C10.472 4.816 10.556 4.844 10.668 4.844C11.536 4.844 11.564 4.004 11.536 3.696C11.452 3.052 10.892 1.988 9.688 1.988C2.576 1.988 -0.560001 10.612 0.0839992 15.68C0.223999 16.968 0.587999 18.228 1.148 19.376C1.568 20.216 3.836 21.728 5.46 21.728C8.54 21.728 14.7 12.572 14.28 9.072Z" fill="white"/>
<path d="M30.4336 4.648C30.3496 3.892 30.2096 3.052 28.9216 3.052C28.0536 3.052 26.7656 3.556 26.7656 4.256C26.6816 9.156 23.0696 16.296 20.5216 16.324C20.4096 16.324 20.4096 16.156 20.3536 15.904C20.2416 15.54 20.2136 15.036 20.1296 14.448C19.9056 12.488 20.0736 9.604 21.0816 7.056C21.1096 6.944 21.1096 6.832 21.1096 6.748C20.9976 5.964 19.3176 5.208 18.6456 5.208C18.3936 5.208 18.0016 5.292 17.8336 5.628C16.6016 7.84 16.2936 10.976 16.6016 13.524C16.7976 15.008 17.1896 16.38 17.8336 17.304C18.6176 18.452 20.4656 18.676 21.5576 18.676C22.0056 18.676 22.4256 18.648 22.7336 18.592C26.8496 17.864 30.9656 8.96 30.4336 4.648Z" fill="white"/>
<path d="M45.5766 1.764C45.4646 0.951997 44.6246 0.671997 44.0926 0.671997C43.5606 0.671997 43.0006 0.867996 42.5246 1.288C41.9086 1.82 40.9006 3.416 40.0606 4.788C39.6126 5.488 39.1926 6.188 38.8566 6.692C38.7166 6.916 38.5766 7.14 38.4366 7.336C37.2326 5.908 35.2166 3.192 33.6486 1.736C33.2566 1.4 32.2486 1.932 32.3606 2.744C32.4446 3.528 36.2806 8.484 37.2886 9.688C37.3166 10.948 37.3166 16.94 37.5686 18.844C37.6246 19.32 37.7926 19.712 37.9326 19.824C38.3526 20.16 39.4166 20.888 40.0886 20.888C40.3966 20.888 40.6766 20.776 40.8726 20.496C41.4046 19.74 40.6206 11.032 40.9846 10.584C41.5726 9.884 45.7166 3.052 45.5766 1.764Z" fill="white"/>
<path d="M16.072 40.74C15.988 40.012 14.784 39.34 14.168 39.368C11.508 39.508 5.124 44.016 3.416 45.248C3.36 43.708 3.5 41.524 3.416 40.992C3.304 40.096 2.184 39.592 1.428 39.592C1.092 39.592 0.391999 39.704 0.251999 40.404C-0.140001 42.308 0.0559992 48.076 0.307999 50.036C0.363999 50.484 0.447999 50.792 0.531999 50.932C0.951999 51.66 1.988 52.136 2.632 52.136C2.968 52.136 3.556 51.968 3.5 51.324C3.5 50.988 3.416 49.504 3.416 49.504C3.416 49.504 4.732 50.4 5.544 50.792C6.356 51.184 7.168 51.716 8.008 51.968C8.456 52.108 9.548 52.304 10.22 52.304C10.864 52.304 11.368 52.052 11.256 51.268C11.228 50.904 11.004 50.456 10.584 50.12C9.576 49.308 6.944 48.384 5.264 47.852C6.608 46.9 8.68 45.612 10.64 44.408C13.132 42.896 15.4 41.608 15.764 41.356C15.988 41.216 16.1 40.992 16.072 40.74Z" fill="white"/>
<path d="M31.1071 51.996C30.7991 49.476 27.3551 39.592 25.5631 37.576C25.1431 37.1 24.4431 36.96 23.8551 36.96C23.1271 36.96 22.2591 37.156 21.5311 37.632C20.8591 38.08 13.8871 53.088 14.0551 56.084C14.0831 56.588 14.5591 56.896 15.1191 56.896C15.6231 56.896 16.5471 56.616 16.7991 56.224C16.9111 56.056 17.0791 55.72 17.2751 55.272C17.9751 53.536 18.5631 51.744 19.4031 50.064C20.4391 49.924 23.9391 49.476 26.4311 48.776C26.6551 49.532 27.2151 51.996 27.6071 52.5C28.0271 53.088 29.0631 53.424 29.7631 53.424C30.7991 53.424 31.2191 52.92 31.1071 51.996ZM25.4511 45.472C24.5271 45.556 22.9031 45.864 20.6351 46.676C21.7271 43.848 22.9591 40.992 23.4631 40.236C23.8831 41.076 24.9471 44.072 25.4511 45.472Z" fill="white"/>
<path d="M53.352 39.2C53.268 38.416 52.456 38.332 52.176 38.332C51.7 38.332 50.944 38.528 50.72 39.032C50.58 39.256 50.356 40.012 50.132 40.88C49.88 41.804 49.544 42.98 49.236 44.128C48.732 45.892 48.284 47.488 47.948 48.272C47.864 48.104 47.752 47.908 47.64 47.656C47.08 46.368 46.352 45.108 45.652 43.848C45.092 42.896 44.728 42.084 43.384 42.084C42.74 42.084 41.872 42.364 41.62 42.756C41.564 42.868 41.452 43.148 41.284 43.568C40.752 45.052 40.164 46.536 39.492 47.964C38.484 44.604 36.776 39.788 35.908 38.78C35.488 38.276 34.872 38.164 34.424 38.164C33.528 38.164 32.576 38.724 32.66 39.34C32.66 39.452 32.688 39.564 32.744 39.648C33.136 40.348 34.004 43.204 34.872 46.256C35.74 49.252 36.58 52.276 36.86 53.172C37.056 53.872 37.784 53.956 38.092 53.956C38.652 53.956 39.324 53.732 39.688 53.452C40.192 53.06 42.712 47.656 43.244 46.564C43.832 47.796 44.504 49.196 45.12 50.4C45.624 51.352 46.996 53.76 47.584 53.76C48.312 53.76 49.348 52.696 49.628 51.996C50.44 50.176 53.492 40.236 53.352 39.2Z" fill="white"/>
<path d="M71.0837 51.996C70.7757 49.476 67.3317 39.592 65.5397 37.576C65.1197 37.1 64.4197 36.96 63.8317 36.96C63.1037 36.96 62.2357 37.156 61.5077 37.632C60.8357 38.08 53.8637 53.088 54.0317 56.084C54.0597 56.588 54.5357 56.896 55.0957 56.896C55.5997 56.896 56.5237 56.616 56.7757 56.224C56.8877 56.056 57.0557 55.72 57.2517 55.272C57.9517 53.536 58.5397 51.744 59.3797 50.064C60.4157 49.924 63.9157 49.476 66.4077 48.776C66.6317 49.532 67.1917 51.996 67.5837 52.5C68.0037 53.088 69.0397 53.424 69.7397 53.424C70.7757 53.424 71.1957 52.92 71.0837 51.996ZM65.4277 45.472C64.5037 45.556 62.8797 45.864 60.6117 46.676C61.7037 43.848 62.9357 40.992 63.4397 40.236C63.8597 41.076 64.9237 44.072 65.4277 45.472Z" fill="white"/>
<path d="M90.8646 40.628C90.8366 40.46 90.7526 40.32 90.6686 40.208C89.4926 38.864 88.0926 38.36 86.4126 38.36C81.2046 38.36 74.3166 41.636 73.0006 42.868C72.4406 43.4 72.3566 44.408 72.4406 45.108C72.4966 45.612 72.6926 46.256 73.0566 46.62C74.7366 48.356 79.4686 48.832 81.7086 49.42C81.9606 49.476 82.2406 49.532 82.4086 49.56C82.4646 49.588 82.5206 49.56 82.5486 49.588C82.4366 50.232 76.5566 51.24 75.9966 52.136C75.9126 52.276 75.8286 52.444 75.8566 52.612C75.9406 53.34 77.9846 54.152 79.0486 54.152C80.2246 54.152 84.9566 52.052 85.8526 51.324C86.2726 51.016 86.3566 50.596 86.3006 50.176C86.1886 49.084 84.9286 47.852 84.4526 47.572C83.5286 47.012 78.0686 45.892 76.6126 45.584C76.1646 45.5 75.8006 45.416 75.5486 45.332C77.0046 43.848 83.7526 41.3 87.2246 41.3C87.8966 41.3 88.2606 41.412 88.4566 41.524C88.6806 41.664 88.9606 41.692 89.1566 41.692C89.8566 41.692 90.9206 41.132 90.8646 40.628Z" fill="white"/>
<path d="M105.537 51.996C105.229 49.476 101.785 39.592 99.9928 37.576C99.5728 37.1 98.8728 36.96 98.2848 36.96C97.5568 36.96 96.6888 37.156 95.9608 37.632C95.2888 38.08 88.3168 53.088 88.4848 56.084C88.5128 56.588 88.9888 56.896 89.5488 56.896C90.0528 56.896 90.9768 56.616 91.2288 56.224C91.3408 56.056 91.5088 55.72 91.7048 55.272C92.4048 53.536 92.9928 51.744 93.8328 50.064C94.8688 49.924 98.3688 49.476 100.861 48.776C101.085 49.532 101.645 51.996 102.037 52.5C102.457 53.088 103.493 53.424 104.193 53.424C105.229 53.424 105.649 52.92 105.537 51.996ZM99.8808 45.472C98.9568 45.556 97.3328 45.864 95.0648 46.676C96.1568 43.848 97.3888 40.992 97.8928 40.236C98.3128 41.076 99.3768 44.072 99.8808 45.472Z" fill="white"/>
<path d="M122.574 41.216C122.49 40.516 121.314 39.788 120.698 39.816C118.178 39.956 114.538 43.232 112.718 44.8C112.662 42.616 112.802 38.78 112.746 38.22C112.634 37.352 110.954 36.764 110.338 36.764C109.974 36.764 109.274 36.876 109.134 37.576C108.714 39.648 109.078 49.728 109.386 52.08C109.414 52.416 109.526 52.696 109.554 52.808C110.058 53.62 111.402 54.068 112.074 54.068C112.41 54.068 113.082 53.928 113.026 53.256C112.998 52.836 112.858 50.904 112.774 49.7C114.314 50.456 116.638 51.548 117.338 51.772C117.786 51.912 118.85 52.108 119.522 52.108C120.278 52.108 120.698 51.772 120.614 50.96C120.502 50.148 119.802 49.756 119.074 49.476C117.534 48.86 115.91 48.356 114.37 47.656C116.946 45.584 121.65 42.28 122.294 41.86C122.518 41.692 122.602 41.468 122.574 41.216Z" fill="white"/>
<path d="M128.567 43.232C128.511 42.784 128.427 42.364 128.287 42.056C127.895 41.216 126.719 41.02 126.159 41.02C125.823 41.02 125.179 41.076 124.955 41.524C124.619 42.168 124.675 46.816 124.955 49.224C125.039 49.868 125.151 50.456 125.319 50.82C125.599 51.408 126.439 52.584 127.139 52.584C127.391 52.584 127.615 52.5 127.783 52.36C128.567 51.772 128.875 45.668 128.567 43.232Z" fill="white"/>
</svg>
