<svg width="109" height="42" viewBox="0 0 109 42" fill="none" xmlns="http://www.w3.org/2000/svg">
<path d="M18.1496 12.272C17.9676 10.79 16.4596 6.344 15.9396 6.006C15.7056 5.85 15.4456 5.824 15.2636 5.824C14.4576 5.824 13.3396 6.396 12.7936 6.942C12.2996 7.462 10.9476 8.684 9.75158 9.75C9.28358 8.138 9.10158 6.5 8.86758 4.888C8.78958 4.368 8.68558 3.926 8.60758 3.614C8.42558 3.042 7.90558 2.782 7.43758 2.782C6.70958 2.782 5.90358 3.276 5.43558 3.848C4.96758 4.42 -0.102422 13 0.00157791 13.754C0.0535779 14.248 0.729578 14.586 1.32758 14.586C1.63958 14.586 2.28958 14.508 2.52358 14.118C3.17358 13.052 4.49958 10.764 5.85158 8.788C6.00758 9.646 6.52758 12.766 6.96958 13.234C7.38558 13.676 8.29558 13.884 8.91958 13.884C9.36158 13.884 9.88158 13.806 10.2196 13.416C10.8176 12.714 12.7156 10.504 13.6256 9.698C13.8596 10.738 14.6136 13.988 16.1476 13.988C16.7456 13.988 17.9416 13.546 18.1236 12.844C18.1756 12.662 18.1496 12.454 18.1496 12.272Z" fill="white"/>
<path d="M35.8204 14.144C35.5344 11.804 32.3364 2.626 30.6724 0.754C30.2824 0.312001 29.6324 0.182001 29.0864 0.182001C28.4104 0.182001 27.6044 0.364 26.9284 0.806C26.3044 1.222 19.8304 15.158 19.9864 17.94C20.0124 18.408 20.4544 18.694 20.9744 18.694C21.4424 18.694 22.3004 18.434 22.5344 18.07C22.6384 17.914 22.7944 17.602 22.9764 17.186C23.6264 15.574 24.1724 13.91 24.9524 12.35C25.9144 12.22 29.1644 11.804 31.4784 11.154C31.6864 11.856 32.2064 14.144 32.5704 14.612C32.9604 15.158 33.9224 15.47 34.5724 15.47C35.5344 15.47 35.9244 15.002 35.8204 14.144ZM30.5684 8.086C29.7104 8.164 28.2024 8.45 26.0964 9.204C27.1104 6.578 28.2544 3.926 28.7224 3.224C29.1124 4.004 30.1004 6.786 30.5684 8.086Z" fill="white"/>
<path d="M53.1224 5.902C52.9404 4.446 50.8604 3.25 49.2224 2.73C48.2604 2.418 46.2064 2.184 43.7884 2.184C42.3844 2.184 40.8504 2.262 39.2904 2.444C38.8744 2.496 38.2504 6.292 38.3544 8.97C38.3804 9.542 38.4064 10.114 38.4844 10.66C38.7184 12.584 39.2124 14.43 39.7324 15.184C40.1744 15.782 40.8764 15.99 41.4224 15.99C41.9944 15.99 42.8264 15.73 42.7224 14.95C42.6704 14.56 42.3324 13.494 42.1504 12.662C43.3204 13.208 44.3864 13.988 45.4784 14.664C46.1804 15.08 46.8564 15.548 47.6624 15.548C48.5204 15.548 49.5084 14.976 49.4564 14.43C49.4044 14.118 49.1964 13.91 48.9884 13.78C47.6104 12.974 46.1024 12.168 44.9584 11.466C46.7784 10.868 53.4084 8.346 53.1224 5.902ZM49.4824 5.226C49.5344 6.396 44.2304 8.84 41.8904 9.568C41.7864 7.93 41.9944 5.85 42.3324 4.55C43.0344 4.498 43.7624 4.472 44.4904 4.472C46.9344 4.472 48.9884 4.81 49.4824 5.226Z" fill="white"/>
<path d="M68.8928 4.134C68.8148 3.484 67.7228 2.808 67.1508 2.834C64.8108 2.964 61.4308 6.006 59.7408 7.462C59.6888 5.434 59.8188 1.872 59.7668 1.352C59.6628 0.546001 58.1028 0 57.5308 0C57.1928 0 56.5428 0.104 56.4128 0.754C56.0228 2.678 56.3608 12.038 56.6468 14.222C56.6728 14.534 56.7768 14.794 56.8028 14.898C57.2708 15.652 58.5188 16.068 59.1428 16.068C59.4548 16.068 60.0788 15.938 60.0268 15.314C60.0008 14.924 59.8708 13.13 59.7928 12.012C61.2228 12.714 63.3808 13.728 64.0308 13.936C64.4468 14.066 65.4348 14.248 66.0588 14.248C66.7608 14.248 67.1508 13.936 67.0728 13.182C66.9688 12.428 66.3188 12.064 65.6428 11.804C64.2128 11.232 62.7048 10.764 61.2748 10.114C63.6668 8.19 68.0348 5.122 68.6328 4.732C68.8408 4.576 68.9188 4.368 68.8928 4.134Z" fill="white"/>
<path d="M19.1116 27.238C18.9296 25.808 16.9536 24.82 15.4196 24.274C14.6396 24.014 13.3656 23.858 11.8316 23.858C9.25758 23.858 5.74758 24.248 2.05558 25.236C1.50958 25.392 0.937578 29.396 0.885578 31.892C0.859578 32.672 0.937578 33.582 1.04158 34.492C1.27558 36.468 1.76958 38.626 2.26358 39.302C2.62758 39.848 3.19958 40.134 3.71958 40.134C4.44758 40.134 4.88958 39.666 4.81158 39.016C4.75958 38.444 4.36958 36.936 4.26558 35.922C5.61758 36.52 6.89158 37.352 8.21758 38.106C8.94558 38.522 9.67358 39.016 10.5056 39.016C11.3636 39.016 12.2996 38.47 12.2216 37.872C12.1176 37.014 8.84158 35.324 7.48958 34.7C10.0116 33.894 19.5016 30.41 19.1116 27.238ZM15.6796 26.926C14.7436 28.356 7.46358 32.204 4.00558 32.88C3.90158 31.112 4.10958 28.642 4.47358 27.264C6.55358 26.848 9.72558 26.406 12.2996 26.406C13.9636 26.406 15.1076 26.588 15.6796 26.926Z" fill="white"/>
<path d="M30.2371 31.086C30.2371 30.722 30.1851 30.358 30.1591 30.046C29.8211 27.264 28.2091 26.51 27.1171 26.458C26.5711 25.964 25.8691 25.912 25.4011 25.912C21.7091 25.912 19.9411 30.254 20.2531 32.802C20.5131 34.882 22.3331 36.936 24.8811 36.936C27.6371 36.936 30.2631 33.738 30.2371 31.086ZM27.0911 29.032C27.1691 29.734 26.7531 31.45 26.2071 32.334C25.7651 33.01 24.4651 33.842 23.6071 33.842C23.1651 33.842 23.0351 33.608 22.9831 33.192C22.7751 31.632 24.7251 28.902 26.5191 28.902C26.7011 28.902 26.9091 28.928 27.0911 29.006V29.032Z" fill="white"/>
<path d="M49.0492 27.732C48.9192 26.614 47.3332 24.794 46.1372 24.17C45.1752 23.676 43.0432 23.52 41.0152 23.52C38.2592 23.52 34.8272 23.832 34.1512 24.456C33.6312 24.924 33.4752 32.204 33.9952 36.312C34.0992 37.248 34.2552 38.08 34.4632 38.704C34.6712 39.328 35.8412 40.602 36.6992 40.628C36.7772 40.628 36.8552 40.628 36.9332 40.628C39.4552 40.628 43.4072 38.99 43.0952 36.364C42.9912 35.636 41.6912 34.596 40.5472 33.92C45.3052 32.568 49.2312 29.162 49.0492 27.732ZM45.4092 26.666C45.6172 27.94 40.4432 31.476 36.9852 32.048C36.9332 30.696 36.8552 27.706 36.9332 26.536C38.7272 26.276 40.6252 26.094 42.2372 26.094C43.9532 26.094 45.3052 26.016 45.4092 26.666ZM39.4552 36.546C39.5592 37.352 38.1032 38.08 37.0892 38.184L37.1412 38.054C37.1672 37.82 37.2192 37.456 37.1672 37.066C37.0892 36.39 37.0112 35.636 36.9852 35.116C38.1812 35.272 39.4032 36.26 39.4552 36.546Z" fill="white"/>
<path d="M62.1022 23.442C62.0242 22.376 59.5022 21.7 58.9042 21.7C58.1762 21.7 57.1622 21.882 56.0442 22.116C54.9782 22.35 53.7042 22.636 52.4042 22.818C51.7542 22.922 51.6762 23.468 51.7022 23.78C51.7542 24.17 51.9882 24.482 52.0402 24.82C52.0142 25.028 51.7802 26.744 51.5982 29.032C51.4162 31.424 51.3122 34.388 51.6242 36.832C51.8062 38.418 52.2222 39.952 52.9762 40.888C53.4442 41.486 54.1462 41.668 54.6662 41.668C55.3162 41.668 55.9922 41.356 56.6422 41.2C57.5002 40.966 61.4522 40.108 61.3222 38.99C61.2702 38.47 59.0602 37.716 58.2022 37.716C57.6822 37.716 56.8242 37.924 56.1222 38.106C55.6802 38.236 55.2642 38.366 54.8482 38.444C54.7962 38.34 54.7962 38.158 54.7702 37.898C54.7442 37.508 54.6922 37.04 54.6402 36.624C54.6142 36.39 54.6142 36.208 54.5882 36.078C55.6802 35.766 57.7862 35.012 58.8522 35.012C58.9302 35.012 59.0082 35.012 59.0862 35.012C59.8142 35.012 60.9582 34.388 61.0102 33.686C60.9582 33.14 59.2942 32.1 57.6302 32.126C56.3822 32.152 55.6282 32.516 54.5102 32.88C54.6922 31.06 55.0042 26.9 55.1862 25.47C55.4982 25.392 55.9142 25.288 56.4342 25.184C56.9802 25.08 58.3582 24.846 59.6322 24.56C60.9842 24.248 62.1282 23.78 62.1022 23.442Z" fill="white"/>
<path d="M78.4237 28.902C78.2417 27.446 76.1617 26.25 74.5237 25.73C73.5617 25.418 71.5077 25.184 69.0897 25.184C67.6857 25.184 66.1517 25.262 64.5917 25.444C64.1757 25.496 63.5517 29.292 63.6557 31.97C63.6817 32.542 63.7077 33.114 63.7857 33.66C64.0197 35.584 64.5137 37.43 65.0337 38.184C65.4757 38.782 66.1777 38.99 66.7237 38.99C67.2957 38.99 68.1277 38.73 68.0237 37.95C67.9717 37.56 67.6337 36.494 67.4517 35.662C68.6217 36.208 69.6877 36.988 70.7797 37.664C71.4817 38.08 72.1577 38.548 72.9637 38.548C73.8217 38.548 74.8097 37.976 74.7577 37.43C74.7057 37.118 74.4977 36.91 74.2897 36.78C72.9117 35.974 71.4037 35.168 70.2597 34.466C72.0797 33.868 78.7097 31.346 78.4237 28.902ZM74.7837 28.226C74.8357 29.396 69.5317 31.84 67.1917 32.568C67.0877 30.93 67.2957 28.85 67.6337 27.55C68.3357 27.498 69.0637 27.472 69.7917 27.472C72.2357 27.472 74.2897 27.81 74.7837 28.226Z" fill="white"/>
<path d="M95.0781 32.438C94.9221 31.086 91.6461 29.63 91.0221 29.63C88.6041 29.63 84.4701 31.164 84.6261 32.36C84.7041 33.062 86.0301 33.244 86.4461 33.244C87.3561 33.244 90.1381 32.542 91.1781 32.438C89.8781 33.088 86.2901 34.492 84.3401 34.492C83.9761 34.492 82.8841 34.57 82.8321 34.05C82.6241 32.412 87.1741 27.446 91.1001 26.51C91.9581 26.302 92.3741 25.886 92.3221 25.392C92.1921 24.326 90.0601 23.728 89.4101 23.728C89.2541 23.728 89.1241 23.728 88.9681 23.78C83.5341 25.288 79.8941 30.852 80.2061 33.478C80.2321 33.764 80.3101 34.024 80.4661 34.284C81.5581 36.078 83.3001 37.404 85.5101 37.404C87.1481 37.404 91.5161 36.754 94.8701 33.14C95.0261 32.958 95.1301 32.724 95.0781 32.438Z" fill="white"/>
<path d="M108.331 23.442C108.253 22.376 105.731 21.7 105.133 21.7C104.405 21.7 103.391 21.882 102.273 22.116C101.207 22.35 99.9334 22.636 98.6334 22.818C97.9834 22.922 97.9054 23.468 97.9314 23.78C97.9834 24.17 98.2174 24.482 98.2694 24.82C98.2434 25.028 98.0094 26.744 97.8274 29.032C97.6454 31.424 97.5414 34.388 97.8534 36.832C98.0354 38.418 98.4514 39.952 99.2054 40.888C99.6734 41.486 100.375 41.668 100.895 41.668C101.545 41.668 102.221 41.356 102.871 41.2C103.729 40.966 107.681 40.108 107.551 38.99C107.499 38.47 105.289 37.716 104.431 37.716C103.911 37.716 103.053 37.924 102.351 38.106C101.909 38.236 101.493 38.366 101.077 38.444C101.025 38.34 101.025 38.158 100.999 37.898C100.973 37.508 100.921 37.04 100.869 36.624C100.843 36.39 100.843 36.208 100.817 36.078C101.909 35.766 104.015 35.012 105.081 35.012C105.159 35.012 105.237 35.012 105.315 35.012C106.043 35.012 107.187 34.388 107.239 33.686C107.187 33.14 105.523 32.1 103.859 32.126C102.611 32.152 101.857 32.516 100.739 32.88C100.921 31.06 101.233 26.9 101.415 25.47C101.727 25.392 102.143 25.288 102.663 25.184C103.209 25.08 104.587 24.846 105.861 24.56C107.213 24.248 108.357 23.78 108.331 23.442Z" fill="white"/>
</svg>
