<svg width="132" height="44" viewBox="0 0 132 44" fill="none" xmlns="http://www.w3.org/2000/svg">
<path d="M18.238 14.41C18.056 12.928 16.548 8.48201 16.028 8.14401C15.794 7.98801 15.534 7.96201 15.352 7.96201C14.546 7.96201 13.428 8.53401 12.882 9.08001C12.388 9.60001 11.036 10.822 9.83996 11.888C9.37196 10.276 9.18996 8.63801 8.95596 7.02601C8.87796 6.50601 8.77396 6.06401 8.69596 5.75201C8.51396 5.18001 7.99396 4.92001 7.52596 4.92001C6.79796 4.92001 5.99196 5.41401 5.52396 5.98601C5.05596 6.55801 -0.0140432 15.138 0.0899568 15.892C0.141957 16.386 0.817957 16.724 1.41596 16.724C1.72796 16.724 2.37796 16.646 2.61196 16.256C3.26196 15.19 4.58796 12.902 5.93996 10.926C6.09596 11.784 6.61596 14.904 7.05796 15.372C7.47396 15.814 8.38396 16.022 9.00796 16.022C9.44996 16.022 9.96996 15.944 10.308 15.554C10.906 14.852 12.804 12.642 13.714 11.836C13.948 12.876 14.702 16.126 16.236 16.126C16.834 16.126 18.03 15.684 18.212 14.982C18.264 14.8 18.238 14.592 18.238 14.41Z" fill="white"/>
<path d="M32.2428 2.58001C32.1648 1.51401 29.6428 0.838013 29.0448 0.838013C28.3168 0.838013 27.3028 1.02001 26.1848 1.25401C25.1188 1.48801 23.8448 1.77401 22.5448 1.95601C21.8948 2.06001 21.8168 2.60601 21.8428 2.91801C21.8948 3.30801 22.1288 3.62001 22.1808 3.95801C22.1548 4.16601 21.9208 5.88201 21.7388 8.17001C21.5568 10.562 21.4528 13.526 21.7648 15.97C21.9468 17.556 22.3628 19.09 23.1168 20.026C23.5848 20.624 24.2868 20.806 24.8068 20.806C25.4568 20.806 26.1328 20.494 26.7828 20.338C27.6408 20.104 31.5928 19.246 31.4628 18.128C31.4108 17.608 29.2008 16.854 28.3428 16.854C27.8228 16.854 26.9648 17.062 26.2628 17.244C25.8208 17.374 25.4048 17.504 24.9888 17.582C24.9368 17.478 24.9368 17.296 24.9108 17.036C24.8848 16.646 24.8328 16.178 24.7808 15.762C24.7548 15.528 24.7548 15.346 24.7288 15.216C25.8208 14.904 27.9268 14.15 28.9928 14.15C29.0708 14.15 29.1488 14.15 29.2268 14.15C29.9548 14.15 31.0988 13.526 31.1508 12.824C31.0988 12.278 29.4348 11.238 27.7708 11.264C26.5228 11.29 25.7688 11.654 24.6508 12.018C24.8328 10.198 25.1448 6.03801 25.3268 4.60801C25.6388 4.53001 26.0548 4.42601 26.5748 4.32201C27.1208 4.21801 28.4988 3.98401 29.7728 3.69801C31.1248 3.38601 32.2688 2.91801 32.2428 2.58001Z" fill="white"/>
<path d="M48.2263 11.576C48.0703 10.224 44.7943 8.76801 44.1703 8.76801C41.7523 8.76801 37.6183 10.302 37.7743 11.498C37.8523 12.2 39.1783 12.382 39.5943 12.382C40.5043 12.382 43.2863 11.68 44.3263 11.576C43.0263 12.226 39.4383 13.63 37.4883 13.63C37.1243 13.63 36.0323 13.708 35.9803 13.188C35.7723 11.55 40.3223 6.58401 44.2483 5.64801C45.1063 5.44001 45.5223 5.02401 45.4703 4.53001C45.3403 3.46401 43.2083 2.86601 42.5583 2.86601C42.4023 2.86601 42.2723 2.86601 42.1163 2.91801C36.6823 4.42601 33.0423 9.99001 33.3543 12.616C33.3803 12.902 33.4583 13.162 33.6143 13.422C34.7063 15.216 36.4483 16.542 38.6583 16.542C40.2963 16.542 44.6643 15.892 48.0183 12.278C48.1743 12.096 48.2783 11.862 48.2263 11.576Z" fill="white"/>
<path d="M64.5476 5.02401C64.4436 4.14001 63.1696 3.25601 62.3116 3.25601C62.0516 3.25601 61.6876 3.36001 61.5576 3.72401C61.1416 4.86801 61.3236 9.00201 61.3756 10.458C61.3756 10.666 61.4016 11.004 61.4016 11.004C61.4016 11.004 55.9676 11.784 54.1476 12.148C54.1216 10.77 54.1476 8.04001 54.0696 7.41601C53.9656 6.55801 52.6396 5.72601 51.8596 5.72601C51.5996 5.72601 51.2876 5.80401 51.0796 6.09001C50.5076 6.94801 50.6896 11.81 51.0276 14.54C51.1576 15.554 51.3396 16.516 51.5996 16.932C52.0156 17.608 52.8476 17.972 53.4196 17.972C54.1216 17.972 54.2776 17.53 54.2516 17.036C54.2256 16.412 54.1216 15.814 54.1736 15.216L61.2716 13.994C61.2456 14.436 61.2196 14.956 61.1936 15.424C61.1936 16.022 61.0896 16.62 61.1936 17.218C61.3236 17.972 62.8316 18.804 63.4556 18.804C63.7156 18.804 64.0276 18.7 64.2096 18.414C64.4436 18.024 64.4436 16.698 64.4696 15.32C64.4956 13.812 64.4956 11.94 64.5476 10.198C64.5996 7.83201 64.6516 5.72601 64.5476 5.02401Z" fill="white"/>
<path d="M83.1029 16.282C82.8169 13.942 79.6189 4.76401 77.9549 2.89201C77.5649 2.45001 76.9149 2.32001 76.3689 2.32001C75.6929 2.32001 74.8869 2.50201 74.2109 2.94401C73.5869 3.36001 67.1129 17.296 67.2689 20.078C67.2949 20.546 67.7369 20.832 68.2569 20.832C68.7249 20.832 69.5829 20.572 69.8169 20.208C69.9209 20.052 70.0769 19.74 70.2589 19.324C70.9089 17.712 71.4549 16.048 72.2349 14.488C73.1969 14.358 76.4469 13.942 78.7609 13.292C78.9689 13.994 79.4889 16.282 79.8529 16.75C80.2429 17.296 81.2049 17.608 81.8549 17.608C82.8169 17.608 83.2069 17.14 83.1029 16.282ZM77.8509 10.224C76.9929 10.302 75.4849 10.588 73.3789 11.342C74.3929 8.71601 75.5369 6.06401 76.0049 5.36201C76.3949 6.14201 77.3829 8.92401 77.8509 10.224Z" fill="white"/>
<path d="M100.431 6.09001C100.483 5.31001 100.483 4.66001 100.431 4.24401C100.275 3.20401 99.1569 2.00801 97.9869 2.00801C97.5969 2.00801 97.1809 2.19001 97.1029 2.68401C96.8429 4.27001 96.9989 9.80801 97.1029 12.382C96.1929 11.446 94.8149 10.094 93.4889 8.76801C91.5129 6.79201 89.4849 4.79001 89.1469 4.53001C88.8609 4.34801 88.5229 4.29601 88.3149 4.29601C87.6389 4.29601 86.7549 4.71201 86.8069 5.41401C86.9889 7.23401 86.6249 14.904 86.7809 16.282C86.8849 17.088 88.0809 18.544 89.1469 18.544C89.6929 18.544 89.9789 18.154 90.0049 17.738C90.1089 16.62 90.0049 12.304 89.8749 9.67801C91.0189 10.718 92.1109 11.81 93.1769 12.876C94.9189 14.592 96.7129 16.36 97.3629 16.776C97.6229 16.932 97.9349 16.958 98.1689 16.958C98.7669 16.958 100.301 16.568 100.223 15.58C100.015 12.382 100.275 9.26201 100.431 6.09001Z" fill="white"/>
<path d="M12.726 26.932C12.648 25.892 10.204 25.19 9.63196 25.19C8.35796 25.19 5.44596 25.814 3.65196 26.542C3.41796 26.516 3.18396 26.464 2.92396 26.464C1.93596 26.464 1.31196 26.984 1.44196 27.946C1.46796 28.18 1.54596 28.414 1.59796 28.57C1.57196 28.752 1.44196 30.052 1.33796 31.794C1.23396 33.614 1.23396 35.902 1.46796 37.878C1.64996 39.438 2.06596 40.972 2.84596 41.856C3.39196 42.506 4.24996 42.662 4.87396 42.662C5.52396 42.662 6.09596 42.402 6.69396 42.22C7.49996 41.986 10.828 41.076 10.698 40.01C10.62 39.49 8.43596 38.762 7.60396 38.762C7.05796 38.762 6.35596 38.996 5.83596 39.178C5.54996 39.282 5.28996 39.412 5.00396 39.49C5.02996 39.022 5.02996 38.58 4.97796 38.112C4.92596 37.722 4.89996 37.436 4.92596 37.228C6.90196 36.656 9.21596 36.058 10.152 36.058C10.23 36.058 10.308 36.058 10.386 36.058C11.114 36.058 12.258 35.434 12.284 34.732C12.206 34.186 10.594 33.172 8.90396 33.198C7.39596 33.224 6.14796 33.64 4.74396 34.004C4.74396 32.808 4.71796 30.468 4.76996 29.324C5.86196 29.038 7.62996 28.726 9.16396 28.388C11.192 27.972 12.752 27.218 12.726 26.932Z" fill="white"/>
<path d="M18.929 31.144C18.877 30.728 18.799 30.338 18.669 30.052C18.305 29.272 17.213 29.09 16.693 29.09C16.381 29.09 15.783 29.142 15.575 29.558C15.263 30.156 15.315 34.472 15.575 36.708C15.653 37.306 15.757 37.852 15.913 38.19C16.173 38.736 16.953 39.828 17.603 39.828C17.837 39.828 18.045 39.75 18.201 39.62C18.929 39.074 19.215 33.406 18.929 31.144Z" fill="white"/>
<path d="M38.5153 28.726C38.4893 28.57 38.4113 28.44 38.3333 28.336C37.2413 27.088 35.9413 26.62 34.3813 26.62C29.5453 26.62 23.1493 29.662 21.9273 30.806C21.4073 31.3 21.3293 32.236 21.4073 32.886C21.4593 33.354 21.6413 33.952 21.9793 34.29C23.5393 35.902 27.9333 36.344 30.0133 36.89C30.2473 36.942 30.5073 36.994 30.6633 37.02C30.7153 37.046 30.7673 37.02 30.7933 37.046C30.6893 37.644 25.2293 38.58 24.7093 39.412C24.6313 39.542 24.5533 39.698 24.5793 39.854C24.6573 40.53 26.5553 41.284 27.5433 41.284C28.6353 41.284 33.0293 39.334 33.8613 38.658C34.2513 38.372 34.3293 37.982 34.2773 37.592C34.1733 36.578 33.0033 35.434 32.5613 35.174C31.7033 34.654 26.6333 33.614 25.2813 33.328C24.8653 33.25 24.5273 33.172 24.2933 33.094C25.6453 31.716 31.9113 29.35 35.1353 29.35C35.7593 29.35 36.0973 29.454 36.2793 29.558C36.4873 29.688 36.7473 29.714 36.9293 29.714C37.5793 29.714 38.5673 29.194 38.5153 28.726Z" fill="white"/>
<path d="M49.673 25.58C49.595 24.514 47.073 23.838 46.475 23.838C45.747 23.838 44.733 24.02 43.615 24.254C42.549 24.488 41.275 24.774 39.975 24.956C39.325 25.06 39.247 25.606 39.273 25.918C39.325 26.308 39.559 26.62 39.611 26.958C39.585 27.166 39.351 28.882 39.169 31.17C38.987 33.562 38.883 36.526 39.195 38.97C39.377 40.556 39.793 42.09 40.547 43.026C41.015 43.624 41.717 43.806 42.237 43.806C42.887 43.806 43.563 43.494 44.213 43.338C45.071 43.104 49.023 42.246 48.893 41.128C48.841 40.608 46.631 39.854 45.773 39.854C45.253 39.854 44.395 40.062 43.693 40.244C43.251 40.374 42.835 40.504 42.419 40.582C42.367 40.478 42.367 40.296 42.341 40.036C42.315 39.646 42.263 39.178 42.211 38.762C42.185 38.528 42.185 38.346 42.159 38.216C43.251 37.904 45.357 37.15 46.423 37.15C46.501 37.15 46.579 37.15 46.657 37.15C47.385 37.15 48.529 36.526 48.581 35.824C48.529 35.278 46.865 34.238 45.201 34.264C43.953 34.29 43.199 34.654 42.081 35.018C42.263 33.198 42.575 29.038 42.757 27.608C43.069 27.53 43.485 27.426 44.005 27.322C44.551 27.218 45.929 26.984 47.203 26.698C48.555 26.386 49.699 25.918 49.673 25.58Z" fill="white"/>
<path d="M66.0205 29.09C66.0725 28.31 66.0725 27.66 66.0205 27.244C65.8645 26.204 64.7465 25.008 63.5765 25.008C63.1865 25.008 62.7705 25.19 62.6925 25.684C62.4325 27.27 62.5885 32.808 62.6925 35.382C61.7825 34.446 60.4045 33.094 59.0785 31.768C57.1025 29.792 55.0745 27.79 54.7365 27.53C54.4505 27.348 54.1125 27.296 53.9045 27.296C53.2285 27.296 52.3445 27.712 52.3965 28.414C52.5785 30.234 52.2145 37.904 52.3705 39.282C52.4745 40.088 53.6705 41.544 54.7365 41.544C55.2825 41.544 55.5685 41.154 55.5945 40.738C55.6985 39.62 55.5945 35.304 55.4645 32.678C56.6085 33.718 57.7005 34.81 58.7665 35.876C60.5085 37.592 62.3025 39.36 62.9525 39.776C63.2125 39.932 63.5245 39.958 63.7585 39.958C64.3565 39.958 65.8905 39.568 65.8125 38.58C65.6045 35.382 65.8645 32.262 66.0205 29.09Z" fill="white"/>
<path d="M85.439 29.87C85.309 28.752 83.723 26.932 82.527 26.308C81.565 25.814 79.433 25.658 77.405 25.658C74.649 25.658 71.217 25.97 70.541 26.594C70.021 27.062 69.865 34.342 70.385 38.45C70.489 39.386 70.645 40.218 70.853 40.842C71.061 41.466 72.231 42.74 73.089 42.766C73.167 42.766 73.245 42.766 73.323 42.766C75.845 42.766 79.797 41.128 79.485 38.502C79.381 37.774 78.081 36.734 76.937 36.058C81.695 34.706 85.621 31.3 85.439 29.87ZM81.799 28.804C82.007 30.078 76.833 33.614 73.375 34.186C73.323 32.834 73.245 29.844 73.323 28.674C75.117 28.414 77.015 28.232 78.627 28.232C80.343 28.232 81.695 28.154 81.799 28.804ZM75.845 38.684C75.949 39.49 74.493 40.218 73.479 40.322L73.531 40.192C73.557 39.958 73.609 39.594 73.557 39.204C73.479 38.528 73.401 37.774 73.375 37.254C74.571 37.41 75.793 38.398 75.845 38.684Z" fill="white"/>
<path d="M98.492 25.58C98.414 24.514 95.892 23.838 95.294 23.838C94.566 23.838 93.552 24.02 92.434 24.254C91.368 24.488 90.094 24.774 88.794 24.956C88.144 25.06 88.066 25.606 88.092 25.918C88.144 26.308 88.378 26.62 88.43 26.958C88.404 27.166 88.17 28.882 87.988 31.17C87.806 33.562 87.702 36.526 88.014 38.97C88.196 40.556 88.612 42.09 89.366 43.026C89.834 43.624 90.536 43.806 91.056 43.806C91.706 43.806 92.382 43.494 93.032 43.338C93.89 43.104 97.842 42.246 97.712 41.128C97.66 40.608 95.45 39.854 94.592 39.854C94.072 39.854 93.214 40.062 92.512 40.244C92.07 40.374 91.654 40.504 91.238 40.582C91.186 40.478 91.186 40.296 91.16 40.036C91.134 39.646 91.082 39.178 91.03 38.762C91.004 38.528 91.004 38.346 90.978 38.216C92.07 37.904 94.176 37.15 95.242 37.15C95.32 37.15 95.398 37.15 95.476 37.15C96.204 37.15 97.348 36.526 97.4 35.824C97.348 35.278 95.684 34.238 94.02 34.264C92.772 34.29 92.018 34.654 90.9 35.018C91.082 33.198 91.394 29.038 91.576 27.608C91.888 27.53 92.304 27.426 92.824 27.322C93.37 27.218 94.748 26.984 96.022 26.698C97.374 26.386 98.518 25.918 98.492 25.58Z" fill="white"/>
<path d="M114.814 31.04C114.632 29.584 112.552 28.388 110.914 27.868C109.952 27.556 107.898 27.322 105.48 27.322C104.076 27.322 102.542 27.4 100.982 27.582C100.566 27.634 99.9415 31.43 100.046 34.108C100.072 34.68 100.098 35.252 100.176 35.798C100.41 37.722 100.904 39.568 101.424 40.322C101.866 40.92 102.568 41.128 103.114 41.128C103.686 41.128 104.518 40.868 104.414 40.088C104.362 39.698 104.024 38.632 103.842 37.8C105.012 38.346 106.078 39.126 107.17 39.802C107.872 40.218 108.548 40.686 109.354 40.686C110.212 40.686 111.2 40.114 111.148 39.568C111.096 39.256 110.888 39.048 110.68 38.918C109.302 38.112 107.794 37.306 106.65 36.604C108.47 36.006 115.1 33.484 114.814 31.04ZM111.174 30.364C111.226 31.534 105.922 33.978 103.582 34.706C103.478 33.068 103.686 30.988 104.024 29.688C104.726 29.636 105.454 29.61 106.182 29.61C108.626 29.61 110.68 29.948 111.174 30.364Z" fill="white"/>
<path d="M131.468 34.576C131.312 33.224 128.036 31.768 127.412 31.768C124.994 31.768 120.86 33.302 121.016 34.498C121.094 35.2 122.42 35.382 122.836 35.382C123.746 35.382 126.528 34.68 127.568 34.576C126.268 35.226 122.68 36.63 120.73 36.63C120.366 36.63 119.274 36.708 119.222 36.188C119.014 34.55 123.564 29.584 127.49 28.648C128.348 28.44 128.764 28.024 128.712 27.53C128.582 26.464 126.45 25.866 125.8 25.866C125.644 25.866 125.514 25.866 125.358 25.918C119.924 27.426 116.284 32.99 116.596 35.616C116.622 35.902 116.7 36.162 116.856 36.422C117.948 38.216 119.69 39.542 121.9 39.542C123.538 39.542 127.906 38.892 131.26 35.278C131.416 35.096 131.52 34.862 131.468 34.576Z" fill="white"/>
</svg>
