<svg width="141" height="42" viewBox="0 0 141 42" fill="none" xmlns="http://www.w3.org/2000/svg">
<path d="M15.8922 2.03752C15.8142 1.30952 14.9562 0.815523 14.2802 0.763522C13.1362 0.659522 12.0702 0.633523 11.0822 0.633523C6.58418 0.633523 3.80218 1.38752 2.32018 1.51752C2.21618 1.54352 2.11218 1.54352 2.03418 1.54352C1.69618 1.54352 1.38418 1.51752 1.12418 1.51752C0.604184 1.51752 -0.0718161 1.72552 0.00618395 2.32352C0.0841839 3.12952 1.69618 4.01352 2.60618 4.09152C2.73618 4.11752 2.91818 4.11752 3.12618 4.11752C3.93218 4.11752 5.28418 4.01352 6.09018 3.96152C6.09018 5.72952 6.01218 10.9555 6.24618 12.7495C6.27218 12.9835 6.29818 13.2175 6.37618 13.3995C6.87018 14.5695 8.19618 14.8815 8.89818 14.8815C9.49618 14.8815 9.93818 14.5955 9.96418 14.3095C9.99018 14.1015 9.96418 13.3215 9.91218 12.3595C9.86018 11.2415 9.39218 4.03952 9.62618 3.57152C9.67818 3.49352 9.99018 3.51952 10.4322 3.46752C11.7322 3.33752 13.0582 3.23352 14.3582 3.05152C14.6962 2.99952 15.0342 2.97352 15.3202 2.84352C15.6322 2.73952 15.9442 2.47952 15.8922 2.03752Z" fill="white"/>
<path d="M25.7259 7.26352C25.7259 6.89952 25.6739 6.53552 25.6479 6.22352C25.3099 3.44152 23.6979 2.68752 22.6059 2.63552C22.0599 2.14152 21.3579 2.08952 20.8899 2.08952C17.1979 2.08952 15.4299 6.43152 15.7419 8.97952C16.0019 11.0595 17.8219 13.1135 20.3699 13.1135C23.1259 13.1135 25.7519 9.91552 25.7259 7.26352ZM22.5799 5.20952C22.6579 5.91152 22.2419 7.62752 21.6959 8.51152C21.2539 9.18752 19.9539 10.0195 19.0959 10.0195C18.6539 10.0195 18.5239 9.78552 18.4719 9.36952C18.2639 7.80952 20.2139 5.07952 22.0079 5.07952C22.1899 5.07952 22.3979 5.10552 22.5799 5.18352V5.20952Z" fill="white"/>
<path d="M49.1139 10.7215C48.9319 9.29152 47.0339 4.40352 46.2539 3.90952C45.9939 3.75352 45.7339 3.70152 45.4999 3.70152C44.6679 3.70152 43.5759 4.29952 42.9519 4.97552C42.3539 5.59952 40.4819 7.57552 39.1039 9.10952C38.2719 5.93752 37.8299 2.27152 37.4399 0.997522C37.2579 0.373523 36.7379 0.0355225 36.1659 0.0355225C35.4119 0.0355225 34.6319 0.555524 34.0859 1.20552C33.3059 2.16752 28.4439 11.4755 28.2619 12.3855C28.2619 12.4375 28.2619 12.5155 28.2619 12.5675C28.3139 13.1135 28.9379 13.4255 29.5359 13.4255C29.9259 13.4255 30.6279 13.2955 30.8619 12.8795C31.6419 11.5535 33.1499 8.64152 34.7879 6.19752C34.9959 7.28952 35.8539 11.9695 36.3999 12.5415C36.8419 12.9835 37.6219 13.2175 38.2719 13.2175C38.7659 13.2175 39.3379 13.0875 39.7019 12.6455C40.4819 11.7095 43.2119 8.56352 44.2779 7.73152C44.3819 8.01752 44.5379 8.45952 44.7199 8.92752C45.0579 9.86352 45.4479 11.0335 45.9159 12.0735C46.0979 12.5415 46.6439 12.5935 46.7999 12.5935C47.4499 12.5935 48.9319 11.9695 49.1139 11.2415C49.1659 11.0855 49.1399 10.8775 49.1139 10.7215Z" fill="white"/>
<path d="M71.9462 10.7215C71.7642 9.29152 69.8661 4.40352 69.0862 3.90952C68.8261 3.75352 68.5662 3.70152 68.3322 3.70152C67.5002 3.70152 66.4081 4.29952 65.7841 4.97552C65.1861 5.59952 63.3142 7.57552 61.9362 9.10952C61.1042 5.93752 60.6622 2.27152 60.2722 0.997522C60.0902 0.373523 59.5702 0.0355225 58.9982 0.0355225C58.2442 0.0355225 57.4642 0.555524 56.9182 1.20552C56.1382 2.16752 51.2762 11.4755 51.0942 12.3855C51.0942 12.4375 51.0942 12.5155 51.0942 12.5675C51.1462 13.1135 51.7702 13.4255 52.3682 13.4255C52.7582 13.4255 53.4602 13.2955 53.6942 12.8795C54.4742 11.5535 55.9822 8.64152 57.6202 6.19752C57.8282 7.28952 58.6862 11.9695 59.2322 12.5415C59.6742 12.9835 60.4542 13.2175 61.1042 13.2175C61.5982 13.2175 62.1702 13.0875 62.5342 12.6455C63.3142 11.7095 66.0442 8.56352 67.1102 7.73152C67.2142 8.01752 67.3701 8.45952 67.5521 8.92752C67.8901 9.86352 68.2802 11.0335 68.7482 12.0735C68.9302 12.5415 69.4762 12.5935 69.6321 12.5935C70.2822 12.5935 71.7642 11.9695 71.9462 11.2415C71.9982 11.0855 71.9722 10.8775 71.9462 10.7215Z" fill="white"/>
<path d="M78.8144 5.18352C78.7624 4.76752 78.6844 4.37752 78.5544 4.09152C78.1904 3.31152 77.0984 3.12952 76.5784 3.12952C76.2664 3.12952 75.6684 3.18152 75.4604 3.59752C75.1484 4.19552 75.2004 8.51152 75.4604 10.7475C75.5384 11.3455 75.6424 11.8915 75.7984 12.2295C76.0584 12.7755 76.8384 13.8675 77.4884 13.8675C77.7224 13.8675 77.9304 13.7895 78.0864 13.6595C78.8144 13.1135 79.1004 7.44552 78.8144 5.18352Z" fill="white"/>
<path d="M12.0702 25.5835C12.0442 25.3755 11.9402 25.1675 11.6802 24.8815C11.0562 24.1015 9.99018 23.7635 9.08018 23.7635C7.70218 23.7635 4.79018 24.3355 2.45018 24.9855C2.06018 25.0895 1.46218 31.9795 1.54018 33.4355C1.59218 34.6835 1.64418 35.6715 1.74818 36.4255C1.95618 38.1675 2.39818 38.9995 2.91818 39.2075C3.07418 39.2595 3.25618 39.3115 3.41218 39.3115C4.11418 39.3115 4.60818 38.7655 4.79018 38.3235C4.99818 37.7515 4.99818 35.8535 5.02418 35.1255C6.53218 34.7095 8.17018 34.5535 9.73018 34.2675C10.2762 34.1635 11.1862 34.0855 11.0822 33.3055C10.9522 32.2395 9.10618 31.6935 8.40418 31.6935C7.18218 31.6935 6.11618 32.1355 4.97218 32.3695C4.94618 31.2775 5.02418 29.3795 5.46618 27.3515C7.05218 26.8835 8.92418 26.7795 10.6142 26.5715C10.9262 26.5195 11.2382 26.4935 11.5502 26.3895C11.8362 26.2595 12.1222 26.0255 12.0702 25.5835Z" fill="white"/>
<path d="M23.0599 30.2635C23.0599 29.8995 23.0079 29.5355 22.9819 29.2235C22.6439 26.4415 21.0319 25.6875 19.9399 25.6355C19.3939 25.1415 18.6919 25.0895 18.2239 25.0895C14.5319 25.0895 12.7639 29.4315 13.0759 31.9795C13.3359 34.0595 15.1559 36.1135 17.7039 36.1135C20.4599 36.1135 23.0859 32.9155 23.0599 30.2635ZM19.9139 28.2095C19.9919 28.9115 19.5759 30.6275 19.0299 31.5115C18.5879 32.1875 17.2879 33.0195 16.4299 33.0195C15.9879 33.0195 15.8579 32.7855 15.8059 32.3695C15.5979 30.8095 17.5479 28.0795 19.3419 28.0795C19.5239 28.0795 19.7319 28.1055 19.9139 28.1835V28.2095Z" fill="white"/>
<path d="M41.2479 28.0795C41.0659 26.6235 38.9859 25.4275 37.3479 24.9075C36.3859 24.5955 34.3319 24.3615 31.9139 24.3615C30.5099 24.3615 28.9759 24.4395 27.4159 24.6215C26.9999 24.6735 26.3759 28.4695 26.4799 31.1475C26.5059 31.7195 26.5319 32.2915 26.6099 32.8375C26.8439 34.7615 27.3379 36.6075 27.8579 37.3615C28.2999 37.9595 29.0019 38.1675 29.5479 38.1675C30.1199 38.1675 30.9519 37.9075 30.8479 37.1275C30.7959 36.7375 30.4579 35.6715 30.2759 34.8395C31.4459 35.3855 32.5119 36.1655 33.6039 36.8415C34.3059 37.2575 34.9819 37.7255 35.7879 37.7255C36.6459 37.7255 37.6339 37.1535 37.5819 36.6075C37.5299 36.2955 37.3219 36.0875 37.1139 35.9575C35.7359 35.1515 34.2279 34.3455 33.0839 33.6435C34.9039 33.0455 41.5339 30.5235 41.2479 28.0795ZM37.6079 27.4035C37.6599 28.5735 32.3559 31.0175 30.0159 31.7455C29.9119 30.1075 30.1199 28.0275 30.4579 26.7275C31.1599 26.6755 31.8879 26.6495 32.6159 26.6495C35.0599 26.6495 37.1139 26.9875 37.6079 27.4035Z" fill="white"/>
<path d="M59.5663 25.7655C59.5403 25.6095 59.4623 25.4795 59.3843 25.3755C58.2923 24.1275 56.9923 23.6595 55.4323 23.6595C50.5963 23.6595 44.2003 26.7015 42.9783 27.8455C42.4583 28.3395 42.3803 29.2755 42.4583 29.9255C42.5103 30.3935 42.6923 30.9915 43.0303 31.3295C44.5903 32.9415 48.9843 33.3835 51.0643 33.9295C51.2983 33.9815 51.5583 34.0335 51.7143 34.0595C51.7663 34.0855 51.8183 34.0595 51.8443 34.0855C51.7403 34.6835 46.2803 35.6195 45.7603 36.4515C45.6823 36.5815 45.6043 36.7375 45.6303 36.8935C45.7083 37.5695 47.6063 38.3235 48.5943 38.3235C49.6863 38.3235 54.0803 36.3735 54.9123 35.6975C55.3023 35.4115 55.3803 35.0215 55.3283 34.6315C55.2243 33.6175 54.0543 32.4735 53.6123 32.2135C52.7543 31.6935 47.6843 30.6535 46.3323 30.3675C45.9163 30.2895 45.5783 30.2115 45.3443 30.1335C46.6963 28.7555 52.9623 26.3895 56.1863 26.3895C56.8103 26.3895 57.1483 26.4935 57.3303 26.5975C57.5383 26.7275 57.7983 26.7535 57.9803 26.7535C58.6303 26.7535 59.6183 26.2335 59.5663 25.7655Z" fill="white"/>
<path d="M75.924 25.7655C75.8979 25.6095 75.82 25.4795 75.742 25.3755C74.6499 24.1275 73.3499 23.6595 71.7899 23.6595C66.9539 23.6595 60.558 26.7015 59.336 27.8455C58.816 28.3395 58.738 29.2755 58.816 29.9255C58.868 30.3935 59.0499 30.9915 59.388 31.3295C60.948 32.9415 65.3419 33.3835 67.422 33.9295C67.656 33.9815 67.9159 34.0335 68.0719 34.0595C68.1239 34.0855 68.1759 34.0595 68.202 34.0855C68.0979 34.6835 62.638 35.6195 62.118 36.4515C62.04 36.5815 61.962 36.7375 61.988 36.8935C62.066 37.5695 63.964 38.3235 64.952 38.3235C66.044 38.3235 70.438 36.3735 71.27 35.6975C71.66 35.4115 71.738 35.0215 71.686 34.6315C71.5819 33.6175 70.4119 32.4735 69.9699 32.2135C69.1119 31.6935 64.042 30.6535 62.69 30.3675C62.274 30.2895 61.936 30.2115 61.702 30.1335C63.054 28.7555 69.3199 26.3895 72.5439 26.3895C73.1679 26.3895 73.506 26.4935 73.688 26.5975C73.896 26.7275 74.156 26.7535 74.338 26.7535C74.988 26.7535 75.976 26.2335 75.924 25.7655Z" fill="white"/>
<path d="M88.4076 20.6955C88.3036 19.9675 87.4716 19.4995 86.7956 19.4995C83.5976 19.4995 81.3876 19.8115 79.7496 20.1755C78.1636 20.5135 77.1236 20.9295 76.1876 21.0855C75.5636 21.1895 73.8216 20.9815 73.9516 22.0475C74.0556 22.9055 75.5896 23.7375 76.4996 23.7375C77.4876 23.7635 78.4756 23.4515 79.4116 23.2175C79.3336 24.5435 79.2036 27.3775 79.0736 30.3155C78.9176 34.3455 78.7616 38.6875 78.8656 39.7015C79.0216 40.7935 80.1136 41.4695 81.1016 41.4695C81.6476 41.4695 82.0636 41.2095 82.1156 40.9235C82.1676 40.6895 82.2196 39.4415 82.2456 37.8035C82.2976 35.9835 82.5316 23.2175 82.8436 22.6455C82.8696 22.5675 83.1556 22.5155 83.5456 22.4635C84.6896 22.2555 85.8336 22.0735 86.9776 21.8395C87.2896 21.7615 87.6276 21.7095 87.9136 21.5795C88.1996 21.4235 88.4596 21.1635 88.4076 20.6955Z" fill="white"/>
<path d="M101.981 28.0795C101.799 26.6235 99.7192 25.4275 98.0812 24.9075C97.1192 24.5955 95.0652 24.3615 92.6472 24.3615C91.2432 24.3615 89.7092 24.4395 88.1492 24.6215C87.7332 24.6735 87.1092 28.4695 87.2132 31.1475C87.2392 31.7195 87.2652 32.2915 87.3432 32.8375C87.5772 34.7615 88.0712 36.6075 88.5912 37.3615C89.0332 37.9595 89.7352 38.1675 90.2812 38.1675C90.8532 38.1675 91.6852 37.9075 91.5812 37.1275C91.5292 36.7375 91.1912 35.6715 91.0092 34.8395C92.1792 35.3855 93.2452 36.1655 94.3372 36.8415C95.0392 37.2575 95.7152 37.7255 96.5212 37.7255C97.3792 37.7255 98.3672 37.1535 98.3152 36.6075C98.2632 36.2955 98.0552 36.0875 97.8472 35.9575C96.4692 35.1515 94.9612 34.3455 93.8172 33.6435C95.6372 33.0455 102.267 30.5235 101.981 28.0795ZM98.3412 27.4035C98.3932 28.5735 93.0892 31.0175 90.7492 31.7455C90.6452 30.1075 90.8532 28.0275 91.1912 26.7275C91.8932 26.6755 92.6212 26.6495 93.3492 26.6495C95.7932 26.6495 97.8472 26.9875 98.3412 27.4035Z" fill="white"/>
<path d="M117.232 16.6135C117.128 15.7295 116.556 15.3135 115.49 15.3135C115.074 15.3135 114.528 15.4175 114.19 15.7815C113.748 16.3015 113.644 18.5635 113.748 19.6035C113.8 19.9935 114.034 20.7995 114.736 20.7995C115.282 20.7995 116.218 20.0195 116.556 19.5515C117.102 18.8235 117.336 17.4455 117.232 16.6135ZM113.098 16.7695C112.994 15.9115 112.24 15.5475 111.33 15.5475C110.914 15.5475 110.368 15.6515 110.03 15.9895C109.588 16.4835 109.51 17.9655 109.614 18.7715C109.666 19.1875 109.9 19.9675 110.602 19.9675C111.148 19.9675 112.11 19.1875 112.422 18.7455C112.916 18.0955 113.176 17.3675 113.098 16.7695ZM117.466 27.6115C117.336 26.4155 116.894 24.9855 115.646 24.1535C115.048 23.7635 114.242 23.5555 113.722 23.5555C113.124 23.5555 112.24 23.6855 111.876 24.2575C111.252 24.2575 110.706 24.2835 110.186 24.4655C106.13 25.7915 103.218 30.3415 103.738 34.4755C103.894 35.8535 104.414 36.8155 104.648 37.1535C105.116 37.8295 106.286 38.9475 108.392 38.9475C111.382 38.9475 114.892 36.3215 116.062 34.1375C117.206 31.9795 117.726 29.5875 117.466 27.6115ZM114.086 27.6375C114.242 28.9115 113.982 30.8875 113.046 32.6555C112.188 34.3195 110.342 36.6335 107.976 36.6335C107.144 36.6335 106.962 35.8275 106.884 35.2295C106.572 32.5255 108.496 28.9895 110.602 27.2995C111.33 26.7015 112.006 26.3375 112.578 25.9475C112.812 25.9735 113.15 26.0255 113.358 26.1295C113.8 26.3375 114.034 27.0915 114.086 27.6375Z" fill="white"/>
<path d="M140.734 33.7215C140.552 32.2915 138.654 27.4035 137.874 26.9095C137.614 26.7535 137.354 26.7015 137.12 26.7015C136.288 26.7015 135.196 27.2995 134.572 27.9755C133.974 28.5995 132.102 30.5755 130.724 32.1095C129.892 28.9375 129.45 25.2715 129.06 23.9975C128.878 23.3735 128.358 23.0355 127.786 23.0355C127.032 23.0355 126.252 23.5555 125.706 24.2055C124.926 25.1675 120.064 34.4755 119.882 35.3855C119.882 35.4375 119.882 35.5155 119.882 35.5675C119.934 36.1135 120.558 36.4255 121.156 36.4255C121.546 36.4255 122.248 36.2955 122.482 35.8795C123.262 34.5535 124.77 31.6415 126.408 29.1975C126.616 30.2895 127.474 34.9695 128.02 35.5415C128.462 35.9835 129.242 36.2175 129.892 36.2175C130.386 36.2175 130.958 36.0875 131.322 35.6455C132.102 34.7095 134.832 31.5635 135.898 30.7315C136.002 31.0175 136.158 31.4595 136.34 31.9275C136.678 32.8635 137.068 34.0335 137.536 35.0735C137.718 35.5415 138.264 35.5935 138.42 35.5935C139.07 35.5935 140.552 34.9695 140.734 34.2415C140.786 34.0855 140.76 33.8775 140.734 33.7215Z" fill="white"/>
</svg>
