<?xml version="1.0" encoding="UTF-8"?>
<svg version="1.1" viewBox="0 0 157 40" xmlns="http://www.w3.org/2000/svg">
<title>Logo-Circleloop</title>
<desc>Created with Sketch.</desc>
<g transform="translate(-90 -40)" fill="none" fill-rule="evenodd">
<g transform="translate(90 40)">
<path d="m9.174 30.305c-5.5739-5.587-5.6092-14.51 0.3584-20.492 5.9346-5.9468 14.727-5.9468 20.231-0.4299 1.601 1.6049 2.694 3.4039 3.362 5.3269l-6.268 6.273c0.244-2.173-0.617-4.386-2.311-6.081-2.896-2.904-7.399-3.333-10.403-0.324-3.109 3.117-2.572 7.381 0.25 10.21 2.897 2.904 7.401 3.333 10.404 0.324 9e-3 -0.011 8.782-8.824 8.782-8.824 2e-3 0.01 4.316-4.283 4.316-4.283-0.958-2.1412-2.312-4.1496-4.065-5.9081-7.739-7.7577-20.286-7.7577-28.025 0-7.7397 7.7571-7.7397 20.334-1e-4 28.091 1.7575 1.762 3.7636 3.119 5.9051 4.08l2.971-2.979c1.367 0.399 2.791 0.614 4.245 0.614 1.863 0 3.689-0.355 5.428-1.004l-5.08 5.093c5.251 0.143 10.548-1.787 14.556-5.804 4.002-4.012 5.928-9.313 5.791-14.57l-10.134 10.177c-6.013 6.029-14.807 6.029-20.313 0.51z" fill="#F96854"/>
<path d="m55.814 13.231c2.292 0 3.735 1.032 4.328 1.548 0.206 0.182 0.206 0.388 0.025 0.621l-0.128 0.18c-0.18 0.232-0.387 0.232-0.619 0.052-0.566-0.491-1.828-1.344-3.606-1.344-3.015 0-5.513 2.247-5.513 5.734 0 3.433 2.498 5.68 5.513 5.68 2.034 0 3.375-0.955 3.967-1.497 0.206-0.207 0.413-0.18 0.593 0.051l0.128 0.182c0.155 0.206 0.104 0.412-0.103 0.593-0.592 0.542-2.138 1.73-4.585 1.73-3.633 0-6.647-2.634-6.647-6.739 0-4.106 3.066-6.791 6.647-6.791" fill="#959595"/>
<path d="m63.207 9.8215v-1.0069c0-0.2838 0.154-0.4392 0.437-0.4392h0.412c0.284 0 0.439 0.1554 0.439 0.4392v1.0069c0 0.2835-0.155 0.4395-0.439 0.4395h-0.412c-0.283 0-0.437-0.156-0.437-0.4395m0.103 4.1575c0-0.284 0.154-0.439 0.438-0.439h0.206c0.283 0 0.437 0.155 0.437 0.439v12.033c0 0.285-0.154 0.44-0.437 0.44h-0.206c-0.284 0-0.438-0.155-0.438-0.44v-12.033" fill="#959595"/>
<path d="m68.204 13.979c0-0.284 0.155-0.439 0.438-0.439h0.206c0.284 0 0.438 0.155 0.438 0.439v2.014c0 0.595-0.103 1.059-0.103 1.059h0.053c0.643-1.988 2.163-3.589 4.326-3.589 0.362 0 0.542 0.155 0.542 0.438v0.233c0 0.284-0.232 0.439-0.567 0.439-2.886 0-4.251 3.435-4.251 6.301v5.138c0 0.285-0.154 0.44-0.438 0.44h-0.206c-0.283 0-0.438-0.155-0.438-0.44v-12.033" fill="#959595"/>
<path d="m81.188 13.231c2.292 0 3.736 1.032 4.329 1.548 0.205 0.182 0.205 0.388 0.024 0.621l-0.129 0.18c-0.178 0.232-0.386 0.232-0.617 0.052-0.567-0.491-1.829-1.344-3.607-1.344-3.015 0-5.514 2.247-5.514 5.734 0 3.433 2.499 5.68 5.514 5.68 2.034 0 3.374-0.955 3.967-1.497 0.206-0.207 0.412-0.18 0.593 0.051l0.129 0.182c0.154 0.206 0.103 0.412-0.102 0.593-0.594 0.542-2.141 1.73-4.587 1.73-3.632 0-6.647-2.634-6.647-6.739 0-4.106 3.067-6.791 6.647-6.791" fill="#959595"/>
<path d="m88.71 8.8146c0-0.2838 0.154-0.4392 0.438-0.4392h0.206c0.283 0 0.438 0.1554 0.438 0.4392v14.667c0 1.807 0.876 1.963 1.494 2.04 0.232 0.026 0.413 0.103 0.413 0.413v0.155c0 0.284-0.103 0.465-0.464 0.465-0.747 0-2.525-0.283-2.525-2.712v-15.028" fill="#959595"/>
<path d="m99.426 13.231c3.354 0 5.254 2.427 5.254 6.145 0 0.284-0.2 0.439-0.46 0.439h-9.921c0 3.744 2.526 5.887 5.514 5.887 1.777 0 3.067-0.826 3.637-1.317 0.23-0.18 0.43-0.154 0.59 0.078l0.15 0.207c0.13 0.18 0.11 0.413-0.1 0.568-0.62 0.517-2.16 1.523-4.277 1.523-3.633 0-6.647-2.634-6.647-6.739 0-4.364 2.962-6.791 6.26-6.791m4.124 5.577c-0.13-3.15-2.01-4.571-4.149-4.571-2.37 0-4.561 1.55-5.024 4.571h9.173" fill="#959595"/>
<path d="m107.18 9.0723c0-0.5669 0.28-0.8515 0.85-0.8515h0.8c0.54 0 0.85 0.2846 0.85 0.8515v13.506c0 1.472 0.64 1.678 1.18 1.73 0.39 0.051 0.68 0.259 0.68 0.75v0.618c0 0.542-0.24 0.879-0.88 0.879-1.39 0-3.48-0.387-3.48-3.668v-13.815" fill="#959595"/>
<path d="m119.5 13.075c3.88 0 7.03 2.867 7.03 6.818 0 3.976-3.15 6.869-7.03 6.869-3.9 0-7.01-2.893-7.01-6.869 0-3.951 3.11-6.818 7.01-6.818m0 11.517c2.47 0 4.48-1.963 4.48-4.699 0-2.712-2.01-4.648-4.48-4.648-2.45 0-4.49 1.936-4.49 4.648 0 2.736 2.04 4.699 4.49 4.699" fill="#959595"/>
<path d="m134.93 13.075c3.89 0 7.03 2.867 7.03 6.818 0 3.976-3.14 6.869-7.03 6.869s-7.01-2.893-7.01-6.869c0-3.951 3.12-6.818 7.01-6.818m0 11.517c2.47 0 4.48-1.963 4.48-4.699 0-2.712-2.01-4.648-4.48-4.648-2.45 0-4.49 1.936-4.49 4.648 0 2.736 2.04 4.699 4.49 4.699" fill="#959595"/>
<path d="m144.23 14.237c0-0.567 0.28-0.852 0.85-0.852h0.59c0.56 0 0.85 0.285 0.85 0.723v0.775c0 0.388-0.05 0.697-0.05 0.697h0.05s1.11-2.505 4.38-2.505c3.5 0 5.72 2.789 5.72 6.843 0 4.157-2.5 6.843-5.9 6.843-2.97 0-4.05-2.323-4.05-2.323h-0.05s0.08 0.464 0.08 1.135v5.19c0 0.569-0.28 0.853-0.83 0.853h-0.79c-0.57 0-0.85-0.284-0.85-0.853v-16.526zm6.1 10.355c2.06 0 3.76-1.679 3.76-4.648 0-2.84-1.52-4.673-3.68-4.673-1.96 0-3.76 1.367-3.76 4.699 0 2.325 1.29 4.622 3.68 4.622z" fill="#959595"/>
</g>
</g>
</svg>
