<svg xmlns="http://www.w3.org/2000/svg" width="39" height="39"><title>noun_Target_2038</title><desc>Created with Sketch.</desc><g fill="none"><g fill="#5110B1" fill-rule="nonzero"><g><g><path d="M19.48 15.75c-2.07 0-3.73 1.66-3.73 3.72 0 2.07 1.66 3.74 3.73 3.74 2.06 0 3.73-1.66 3.73-3.73 0-2.06-1.66-3.72-3.72-3.72zM35.04 18.06C34.36 10.56 28.38 4.6 20.9 3.9V1.43C20.9.64 20.26 0 19.48 0c-.8 0-1.42.64-1.42 1.42v2.5c-7.5.67-13.47 6.65-14.15 14.14H1.43c-.78 0-1.42.63-1.42 1.42 0 .78.64 1.42 1.42 1.42h2.5c.67 7.5 6.65 13.46 14.14 14.14v2.5c0 .78.63 1.4 1.42 1.4.78 0 1.42-.62 1.42-1.4v-2.5c7.48-.68 13.46-6.65 14.14-14.14h2.5c.78 0 1.4-.64 1.4-1.42 0-.8-.62-1.42-1.4-1.42h-2.5zM32.2 20.9c-.67 5.92-5.38 10.63-11.3 11.3v-3.7c0-.8-.64-1.43-1.42-1.43-.8 0-1.42.64-1.42 1.42v3.7c-5.92-.67-10.64-5.38-11.3-11.3h3.7c.8 0 1.42-.64 1.42-1.42 0-.8-.63-1.42-1.42-1.42h-3.7c.66-5.92 5.38-10.64 11.3-11.3v3.7c0 .8.63 1.42 1.42 1.42.78 0 1.42-.63 1.42-1.42v-3.7c5.92.66 10.63 5.38 11.3 11.3h-3.7c-.8 0-1.43.63-1.43 1.42 0 .78.64 1.42 1.42 1.42h3.7z"/></g></g></g></g></svg>