<svg xmlns="http://www.w3.org/2000/svg" width="39" height="34"><title>programming-browser-1</title><desc>Created with Sketch.</desc><g fill="none"><g fill="#5110B1" fill-rule="nonzero"><g><path d="M11.05 22.58c-.3.32-.4.78-.3 1.22.1.43.4.77.8.9.4.1.84-.03 1.12-.35l3.82-4.17c.2-.23.32-.55.32-.88 0-.33-.12-.65-.33-.88l-3.83-4.16c-.45-.47-1.16-.47-1.6 0-.44.5-.45 1.27-.02 1.76l2.74 3c.06.07.1.17.1.28 0 .1-.04.22-.1.3l-2.75 2.98zM20.37 22.4h6.67c.7 0 1.25-.5 1.25-1.15 0-.64-.57-1.16-1.26-1.16h-6.67c-.7 0-1.25.5-1.25 1.15 0 .64.56 1.16 1.25 1.16zM39 4.98C39 2.23 36.82 0 34.12 0H4.9C2.17 0 0 2.23 0 4.98v24.04C0 31.77 2.18 34 4.88 34h29.25c2.7 0 4.87-2.23 4.87-4.98V4.98zM15.7 3.32c.26-.5.8-.83 1.36-.83.57 0 1.1.3 1.38.82.15.24.24.53.25.83-.02.3-.1.58-.26.83-.28.5-.8.82-1.38.82-.57 0-1.1-.3-1.37-.82-.17-.25-.26-.54-.26-.83 0-.3.1-.6.25-.83zm-5.7 0c.28-.5.8-.83 1.38-.83.57 0 1.1.3 1.37.82.16.24.24.53.25.83 0 .3-.1.58-.25.83-.28.5-.8.82-1.38.82-.57 0-1.1-.3-1.37-.82-.16-.25-.24-.54-.25-.83 0-.3.1-.6.25-.83zm-5.8.15c.27-.6.85-.98 1.5-.98.56 0 1.08.3 1.36.82.16.24.25.53.25.83 0 .3-.08.58-.24.83-.27.5-.8.82-1.37.82-.58 0-1.1-.3-1.4-.82-.14-.25-.23-.54-.24-.83 0-.24.05-.47.15-.68zm31.55 25.55c0 .92-.73 1.66-1.63 1.66H4.9c-.9 0-1.63-.74-1.63-1.66V8.72c0-.24.18-.43.4-.43h31.7c.22 0 .4.18.4.4v20.32z"/></g></g></g></svg>