<?xml version="1.0" encoding="UTF-8"?>
<svg width="38px" height="35px" viewBox="0 0 38 35" version="1.1" xmlns="http://www.w3.org/2000/svg" xmlns:xlink="http://www.w3.org/1999/xlink">
    <!-- Generator: Sketch 51.2 (57519) - http://www.bohemiancoding.com/sketch -->
    <title>Group 10</title>
    <desc>Created with Sketch.</desc>
    <defs></defs>
    <g id="Page-1" stroke="none" stroke-width="1" fill="none" fill-rule="evenodd">
        <g id="Desktop-HD-Copy-2" transform="translate(-923.000000, -2929.000000)" fill="#5110B1" fill-rule="nonzero">
            <g id="Group-10" transform="translate(923.000000, 2929.000000)">
                <path d="M5.91656051,24.2770701 L2.4388535,24.2770701 C1.83694268,24.2770701 1.34649682,23.7866242 1.34649682,23.1847134 L1.34649682,13.8796178 C1.34649682,13.277707 1.83694268,12.7872611 2.4388535,12.7872611 L5.91656051,12.7872611 C6.51847134,12.7872611 7.0089172,13.277707 7.0089172,13.8796178 L7.0089172,23.1802548 C7.0089172,23.7821656 6.51847134,24.2770701 5.91656051,24.2770701 Z" id="Shape"></path>
                <path d="M5.91656051,22.9394904 C5.32356688,22.9394904 4.72611465,22.9394904 4.13312102,22.9394904 C3.53121019,22.9394904 2.91592357,22.9840764 2.31847134,22.9305732 C2.4388535,22.9484076 2.55477707,22.9617834 2.67515924,22.9796178 C2.57261146,22.966242 2.48343949,22.9394904 2.38535032,22.9038217 C2.49235669,22.9484076 2.59936306,22.9929936 2.70636943,23.0375796 C2.65286624,23.0152866 2.60382166,22.9840764 2.55031847,22.9573248 C2.34968153,22.8592357 2.8089172,23.1980892 2.61719745,23.0063694 C2.4343949,22.8235669 2.72866242,23.211465 2.67961783,23.0955414 C2.65286624,23.033121 2.61273885,22.9751592 2.58598726,22.9127389 C2.63057325,23.0197452 2.67515924,23.1267516 2.71974522,23.233758 C2.68407643,23.1401274 2.66178344,23.0464968 2.64394904,22.943949 C2.66178344,23.0643312 2.67515924,23.1802548 2.69299363,23.3006369 C2.66624204,22.966242 2.68407643,22.6184713 2.68407643,22.2840764 C2.68407643,21.5350318 2.68407643,20.7904459 2.68407643,20.0414013 C2.68407643,18.3605096 2.68407643,16.6840764 2.68407643,15.0031847 C2.68407643,14.588535 2.65732484,14.1649682 2.69299363,13.7547771 C2.67515924,13.8751592 2.66178344,13.9910828 2.64394904,14.111465 C2.65732484,14.0089172 2.68407643,13.9197452 2.71974522,13.8216561 C2.67515924,13.9286624 2.63057325,14.0356688 2.58598726,14.1426752 C2.60828025,14.089172 2.63949045,14.0401274 2.66624204,13.9866242 C2.76433121,13.7859873 2.42547771,14.2452229 2.61719745,14.0535032 C2.8,13.8707006 2.41210191,14.1649682 2.52802548,14.1159236 C2.59044586,14.089172 2.64840764,14.0490446 2.71082803,14.022293 C2.60382166,14.066879 2.49681529,14.111465 2.38980892,14.156051 C2.48343949,14.1203822 2.57707006,14.0980892 2.67961783,14.0802548 C2.55923567,14.0980892 2.4433121,14.111465 2.32292994,14.1292994 C2.93821656,14.0757962 3.57133758,14.1203822 4.18216561,14.1203822 C4.79745223,14.1203822 5.43057325,14.0757962 6.04140127,14.1292994 C5.92101911,14.111465 5.80509554,14.0980892 5.68471338,14.0802548 C5.78726115,14.0936306 5.87643312,14.1203822 5.97452229,14.156051 C5.86751592,14.111465 5.76050955,14.066879 5.65350318,14.022293 C5.70700637,14.044586 5.75605096,14.0757962 5.80955414,14.1025478 C6.01019108,14.2006369 5.55095541,13.8617834 5.74267516,14.0535032 C5.92547771,14.2363057 5.63121019,13.8484076 5.68025478,13.9643312 C5.70700637,14.0267516 5.74713376,14.0847134 5.77388535,14.1471338 C5.72929936,14.0401274 5.68471338,13.933121 5.64012739,13.8261146 C5.67579618,13.9197452 5.69808917,14.0133758 5.71592357,14.1159236 C5.69808917,13.9955414 5.68471338,13.8796178 5.66687898,13.7592357 C5.69363057,14.0936306 5.67579618,14.4414013 5.67579618,14.7757962 C5.67579618,15.5248408 5.67579618,16.2694268 5.67579618,17.0184713 C5.67579618,18.6993631 5.67579618,20.3757962 5.67579618,22.0566879 C5.67579618,22.4713376 5.70254777,22.8949045 5.66687898,23.3050955 C5.68471338,23.1847134 5.69808917,23.0687898 5.71592357,22.9484076 C5.70254777,23.0509554 5.67579618,23.1401274 5.64012739,23.2382166 C5.68471338,23.1312102 5.72929936,23.0242038 5.77388535,22.9171975 C5.75159236,22.9707006 5.72038217,23.0197452 5.69363057,23.0732484 C5.5955414,23.2738854 5.9343949,22.8146497 5.74267516,23.0063694 C5.55987261,23.189172 5.9477707,22.8949045 5.83184713,22.943949 C5.76942675,22.9707006 5.71146497,23.010828 5.64904459,23.0375796 C5.75605096,22.9929936 5.86305732,22.9484076 5.97006369,22.9038217 C5.87643312,22.9394904 5.78280255,22.9617834 5.68025478,22.9796178 C5.80063694,22.9617834 5.91656051,22.9484076 6.03694268,22.9305732 C5.99681529,22.9350318 5.9566879,22.9394904 5.91656051,22.9394904 C5.21656051,22.9573248 4.5477707,23.5414013 4.57898089,24.2770701 C4.61019108,24.9859873 5.16751592,25.6369427 5.91656051,25.6146497 C7.28535032,25.5745223 8.33757962,24.4955414 8.34649682,23.1267516 C8.34649682,22.8191083 8.34649682,22.511465 8.34649682,22.2038217 C8.34649682,20.910828 8.34649682,19.622293 8.34649682,18.3292994 C8.34649682,17.0987261 8.34649682,15.8681529 8.34649682,14.6375796 C8.34649682,14.3878981 8.35095541,14.1382166 8.34649682,13.888535 C8.31528662,12.5242038 7.23630573,11.4585987 5.86751592,11.4452229 C4.75732484,11.4363057 3.64713376,11.4452229 2.54140127,11.4452229 C1.15477707,11.4452229 0.0445859873,12.4796178 0.00891719745,13.8796178 C0.00445859873,14.0980892 0.00891719745,14.3210191 0.00891719745,14.5394904 C0.00891719745,17.0541401 0.00891719745,19.5687898 0.00891719745,22.0834395 C0.00891719745,22.4178344 0.00891719745,22.7566879 0.00891719745,23.0910828 C0.0133757962,24.2235669 0.744585987,25.3203822 1.90382166,25.5477707 C2.4388535,25.6547771 3.00509554,25.6101911 3.54904459,25.6101911 C4.2133758,25.6101911 4.87770701,25.6101911 5.54203822,25.6101911 C5.66687898,25.6101911 5.79617834,25.6101911 5.92101911,25.6101911 C6.62101911,25.6101911 7.28980892,24.9949045 7.25859873,24.2726115 C7.22292994,23.5503185 6.6656051,22.9394904 5.91656051,22.9394904 Z" id="Shape"></path>
                <path d="M35.2808917,24.2770701 L31.8477707,24.2770701 C31.2458599,24.2770701 30.755414,23.7866242 30.755414,23.1847134 L30.755414,13.8796178 C30.755414,13.277707 31.2458599,12.7872611 31.8477707,12.7872611 L35.2808917,12.7872611 C35.8828025,12.7872611 36.3732484,13.277707 36.3732484,13.8796178 L36.3732484,23.1802548 C36.3732484,23.7821656 35.8828025,24.2770701 35.2808917,24.2770701 Z" id="Shape"></path>
                <path d="M35.2808917,22.9394904 C34.6923567,22.9394904 34.1082803,22.9394904 33.5197452,22.9394904 C32.9267516,22.9394904 32.3159236,22.9840764 31.7229299,22.9305732 C31.8433121,22.9484076 31.9592357,22.9617834 32.0796178,22.9796178 C31.9770701,22.966242 31.8878981,22.9394904 31.7898089,22.9038217 C31.8968153,22.9484076 32.0038217,22.9929936 32.110828,23.0375796 C32.0573248,23.0152866 32.0082803,22.9840764 31.9547771,22.9573248 C31.7541401,22.8592357 32.2133758,23.1980892 32.0216561,23.0063694 C31.8388535,22.8235669 32.133121,23.211465 32.0840764,23.0955414 C32.0573248,23.033121 32.0171975,22.9751592 31.9904459,22.9127389 C32.0350318,23.0197452 32.0796178,23.1267516 32.1242038,23.233758 C32.088535,23.1401274 32.066242,23.0464968 32.0484076,22.943949 C32.066242,23.0643312 32.0796178,23.1802548 32.0974522,23.3006369 C32.0707006,22.966242 32.088535,22.6184713 32.088535,22.2840764 C32.088535,21.5350318 32.088535,20.7904459 32.088535,20.0414013 C32.088535,18.3605096 32.088535,16.6840764 32.088535,15.0031847 C32.088535,14.588535 32.0617834,14.1649682 32.0974522,13.7547771 C32.0796178,13.8751592 32.066242,13.9910828 32.0484076,14.111465 C32.0617834,14.0089172 32.088535,13.9197452 32.1242038,13.8216561 C32.0796178,13.9286624 32.0350318,14.0356688 31.9904459,14.1426752 C32.0127389,14.089172 32.043949,14.0401274 32.0707006,13.9866242 C32.1687898,13.7859873 31.8299363,14.2452229 32.0216561,14.0535032 C32.2044586,13.8707006 31.8165605,14.1649682 31.9324841,14.1159236 C31.9949045,14.089172 32.0528662,14.0490446 32.1152866,14.022293 C32.0082803,14.066879 31.9012739,14.111465 31.7942675,14.156051 C31.8878981,14.1203822 31.9815287,14.0980892 32.0840764,14.0802548 C31.9636943,14.0980892 31.8477707,14.111465 31.7273885,14.1292994 C32.333758,14.0757962 32.9579618,14.1203822 33.5687898,14.1203822 C34.1751592,14.1203822 34.8038217,14.0757962 35.4101911,14.1292994 C35.2898089,14.111465 35.1738854,14.0980892 35.0535032,14.0802548 C35.156051,14.0936306 35.2452229,14.1203822 35.3433121,14.156051 C35.2363057,14.111465 35.1292994,14.066879 35.022293,14.022293 C35.0757962,14.044586 35.1248408,14.0757962 35.1783439,14.1025478 C35.3789809,14.2006369 34.9197452,13.8617834 35.111465,14.0535032 C35.2942675,14.2363057 35,13.8484076 35.0490446,13.9643312 C35.0757962,14.0267516 35.1159236,14.0847134 35.1426752,14.1471338 C35.0980892,14.0401274 35.0535032,13.933121 35.0089172,13.8261146 C35.044586,13.9197452 35.066879,14.0133758 35.0847134,14.1159236 C35.066879,13.9955414 35.0535032,13.8796178 35.0356688,13.7592357 C35.0624204,14.0936306 35.044586,14.4414013 35.044586,14.7757962 C35.044586,15.5248408 35.044586,16.2694268 35.044586,17.0184713 C35.044586,18.6993631 35.044586,20.3757962 35.044586,22.0566879 C35.044586,22.4713376 35.0713376,22.8949045 35.0356688,23.3050955 C35.0535032,23.1847134 35.066879,23.0687898 35.0847134,22.9484076 C35.0713376,23.0509554 35.044586,23.1401274 35.0089172,23.2382166 C35.0535032,23.1312102 35.0980892,23.0242038 35.1426752,22.9171975 C35.1203822,22.9707006 35.089172,23.0197452 35.0624204,23.0732484 C34.9643312,23.2738854 35.3031847,22.8146497 35.111465,23.0063694 C34.9286624,23.189172 35.3165605,22.8949045 35.2006369,22.943949 C35.1382166,22.9707006 35.0802548,23.010828 35.0178344,23.0375796 C35.1248408,22.9929936 35.2318471,22.9484076 35.3388535,22.9038217 C35.2452229,22.9394904 35.1515924,22.9617834 35.0490446,22.9796178 C35.1694268,22.9617834 35.2853503,22.9484076 35.4057325,22.9305732 C35.3611465,22.9350318 35.3210191,22.9394904 35.2808917,22.9394904 C34.5808917,22.9573248 33.9121019,23.5414013 33.9433121,24.2770701 C33.9745223,24.9859873 34.5318471,25.6369427 35.2808917,25.6146497 C36.6496815,25.5745223 37.7019108,24.4955414 37.710828,23.1267516 C37.710828,22.8191083 37.710828,22.511465 37.710828,22.2038217 C37.710828,20.9286624 37.710828,19.6535032 37.710828,18.3738854 C37.710828,17.1299363 37.710828,15.8859873 37.710828,14.6375796 C37.710828,14.3878981 37.7152866,14.1382166 37.710828,13.888535 C37.6840764,12.5242038 36.6095541,11.4541401 35.2452229,11.4452229 C34.1484076,11.4363057 33.0471338,11.4452229 31.9503185,11.4452229 C30.5636943,11.4452229 29.4490446,12.4751592 29.4178344,13.8796178 C29.4133758,14.0980892 29.4178344,14.3210191 29.4178344,14.5394904 C29.4178344,17.0452229 29.4178344,19.5509554 29.4178344,22.0566879 C29.4178344,22.4 29.4178344,22.7433121 29.4178344,23.0821656 C29.4178344,24.1968153 30.122293,25.2802548 31.2503185,25.5388535 C31.7853503,25.6592357 32.3694268,25.6146497 32.9133758,25.6146497 C33.577707,25.6146497 34.2375796,25.6146497 34.9019108,25.6146497 C35.0267516,25.6146497 35.156051,25.6146497 35.2808917,25.6146497 C35.9808917,25.6146497 36.6496815,24.9993631 36.6184713,24.2770701 C36.5828025,23.5503185 36.0299363,22.9394904 35.2808917,22.9394904 Z" id="Shape"></path>
                <path d="M19.8452229,33.622293 L17.8745223,33.622293 C16.5993631,33.622293 15.5605096,32.5789809 15.5605096,31.3082803 C15.5605096,30.033121 16.6038217,28.9942675 17.8745223,28.9942675 L19.8452229,28.9942675 C21.1203822,28.9942675 22.1592357,30.0375796 22.1592357,31.3082803 C22.1592357,32.5789809 21.1203822,33.622293 19.8452229,33.622293 Z" id="Shape"></path>
                <path d="M19.8452229,32.2847134 C19.4796178,32.2847134 19.1140127,32.2847134 18.7484076,32.2847134 C18.356051,32.2847134 17.9547771,32.311465 17.5624204,32.2624204 C17.6828025,32.2802548 17.7987261,32.2936306 17.9191083,32.311465 C17.7184713,32.2802548 17.5267516,32.2312102 17.343949,32.155414 C17.4509554,32.2 17.5579618,32.244586 17.6649682,32.289172 C17.5401274,32.2356688 17.4152866,32.1732484 17.2993631,32.0974522 C17.0273885,31.9191083 17.4955414,32.2802548 17.3350318,32.133121 C17.2859873,32.088535 17.2324841,32.043949 17.1834395,31.9949045 C17.1343949,31.9458599 17.0898089,31.8968153 17.0452229,31.8433121 C16.8936306,31.6738854 17.2369427,32.1464968 17.0987261,31.9012739 C17.0229299,31.7719745 16.9515924,31.6515924 16.889172,31.5133758 C16.933758,31.6203822 16.9783439,31.7273885 17.0229299,31.8343949 C16.9471338,31.6471338 16.8980892,31.455414 16.866879,31.2592357 C16.8847134,31.3796178 16.8980892,31.4955414 16.9159236,31.6159236 C16.889172,31.410828 16.889172,31.2057325 16.9159236,31.0006369 C16.8980892,31.1210191 16.8847134,31.2369427 16.866879,31.3573248 C16.8980892,31.1566879 16.9471338,30.9649682 17.0229299,30.7821656 C16.9783439,30.889172 16.933758,30.9961783 16.889172,31.1031847 C16.9426752,30.9783439 17.0050955,30.8535032 17.0808917,30.7375796 C17.2592357,30.4656051 16.8980892,30.933758 17.0452229,30.7732484 C17.0898089,30.7242038 17.1343949,30.6707006 17.1834395,30.6216561 C17.2324841,30.5726115 17.2815287,30.5280255 17.3350318,30.4834395 C17.5044586,30.3318471 17.0318471,30.6751592 17.2770701,30.5369427 C17.4063694,30.4611465 17.5267516,30.3898089 17.6649682,30.3273885 C17.5579618,30.3719745 17.4509554,30.4165605 17.343949,30.4611465 C17.5312102,30.3853503 17.7229299,30.3363057 17.9191083,30.3050955 C17.7987261,30.3229299 17.6828025,30.3363057 17.5624204,30.3541401 C17.9859873,30.3006369 18.4273885,30.3318471 18.855414,30.3318471 C19.2834395,30.3318471 19.7248408,30.3006369 20.1484076,30.3541401 C20.0280255,30.3363057 19.9121019,30.3229299 19.7917197,30.3050955 C19.9923567,30.3363057 20.1840764,30.3853503 20.366879,30.4611465 C20.2598726,30.4165605 20.1528662,30.3719745 20.0458599,30.3273885 C20.1707006,30.3808917 20.2955414,30.4433121 20.411465,30.5191083 C20.6834395,30.6974522 20.2152866,30.3363057 20.3757962,30.4834395 C20.4248408,30.5280255 20.4783439,30.5726115 20.5273885,30.6216561 C20.5764331,30.6707006 20.6210191,30.7197452 20.6656051,30.7732484 C20.8171975,30.9426752 20.4738854,30.4700637 20.6121019,30.7152866 C20.6878981,30.844586 20.7592357,30.9649682 20.8216561,31.1031847 C20.7770701,30.9961783 20.7324841,30.889172 20.6878981,30.7821656 C20.7636943,30.9694268 20.8127389,31.1611465 20.843949,31.3573248 C20.8261146,31.2369427 20.8127389,31.1210191 20.7949045,31.0006369 C20.8216561,31.2057325 20.8216561,31.410828 20.7949045,31.6159236 C20.8127389,31.4955414 20.8261146,31.3796178 20.843949,31.2592357 C20.8127389,31.4598726 20.7636943,31.6515924 20.6878981,31.8343949 C20.7324841,31.7273885 20.7770701,31.6203822 20.8216561,31.5133758 C20.7681529,31.6382166 20.7057325,31.7630573 20.6299363,31.8789809 C20.4515924,32.1509554 20.8127389,31.6828025 20.6656051,31.8433121 C20.6210191,31.8923567 20.5764331,31.9458599 20.5273885,31.9949045 C20.4783439,32.043949 20.4292994,32.088535 20.3757962,32.133121 C20.2063694,32.2847134 20.6789809,31.9414013 20.433758,32.0796178 C20.3044586,32.155414 20.1840764,32.2267516 20.0458599,32.289172 C20.1528662,32.244586 20.2598726,32.2 20.366879,32.155414 C20.1796178,32.2312102 19.9878981,32.2802548 19.7917197,32.311465 C19.9121019,32.2936306 20.0280255,32.2802548 20.1484076,32.2624204 C20.0503185,32.2757962 19.9477707,32.2847134 19.8452229,32.2847134 C19.1452229,32.2936306 18.4764331,32.8910828 18.5076433,33.622293 C18.5388535,34.3401274 19.0961783,34.9687898 19.8452229,34.9598726 C21.066879,34.9420382 22.1324841,34.3535032 22.8458599,33.3770701 C23.4700637,32.5254777 23.643949,31.3617834 23.3675159,30.3496815 C23.0732484,29.266242 22.2707006,28.3834395 21.2452229,27.9464968 C20.6165605,27.6834395 19.9745223,27.6522293 19.3057325,27.6522293 C18.8375796,27.6522293 18.3694268,27.6477707 17.9012739,27.6522293 C16.9159236,27.6566879 15.9350318,28.044586 15.2484076,28.766879 C14.4191083,29.6407643 14.1025478,30.7910828 14.2853503,31.9681529 C14.4458599,33.0025478 15.1458599,33.9477707 16.0464968,34.4694268 C17.1878981,35.1248408 18.5789809,34.9598726 19.8452229,34.9598726 C20.5452229,34.9598726 21.2140127,34.344586 21.1828025,33.622293 C21.1515924,32.9 20.5942675,32.2847134 19.8452229,32.2847134 Z" id="Shape"></path>
                <path d="M22.1592357,32.6414013 C23.956051,32.6414013 25.7573248,32.6414013 27.5541401,32.6414013 C28.0713376,32.6414013 28.5929936,32.6146497 29.0878981,32.4496815 C30.122293,32.1063694 31.0407643,31.3929936 31.5535032,30.4210191 C31.8878981,29.7789809 32.0617834,29.0878981 32.066242,28.3656051 C32.066242,28.2006369 32.066242,28.0356688 32.066242,27.866242 C32.066242,25.9980892 32.066242,24.1343949 32.066242,22.266242 C32.066242,19.9923567 32.066242,17.7184713 32.066242,15.444586 C32.066242,13.7458599 32.1152866,12.0694268 31.7630573,10.3929936 C31.0273885,6.91528662 28.7847134,3.8388535 25.7840764,1.96624204 C22.7031847,0.0445859873 18.8464968,-0.499363057 15.3509554,0.472611465 C11.9312102,1.42229299 8.94394904,3.79426752 7.25859873,6.91974522 C6.37133758,8.56050955 5.85414013,10.3484076 5.69808917,12.2076433 C5.63566879,12.9477707 5.65796178,13.6923567 5.65796178,14.4324841 C5.65796178,16.5547771 5.65796178,18.6726115 5.65796178,20.7949045 C5.65796178,20.9509554 5.65796178,21.111465 5.65796178,21.2675159 C5.65796178,21.9675159 6.27324841,22.6363057 6.9955414,22.6050955 C7.72229299,22.5738854 8.33312102,22.0165605 8.33312102,21.2675159 C8.33312102,20.2197452 8.33312102,19.1675159 8.33312102,18.1197452 C8.33312102,16.643949 8.33312102,15.1681529 8.33312102,13.6923567 C8.33312102,13.0101911 8.34649682,12.3369427 8.43566879,11.6592357 C8.41783439,11.7796178 8.4044586,11.8955414 8.3866242,12.0159236 C8.52484076,10.9770701 8.80127389,9.96496815 9.20254777,8.99745223 C9.15796178,9.1044586 9.1133758,9.21146497 9.06878981,9.31847134 C9.30063694,8.77452229 9.56815287,8.24394904 9.87579618,7.74012739 C10.0363057,7.48152866 10.2012739,7.22738854 10.3796178,6.97770701 C10.4197452,6.92420382 10.4598726,6.86624204 10.5,6.81273885 C10.5178344,6.79044586 10.5490446,6.73248408 10.5713376,6.71910828 C10.5936306,6.70573248 10.3707006,6.97770701 10.4509554,6.87515924 C10.5490446,6.75477707 10.6471338,6.62993631 10.7496815,6.50955414 C11.1286624,6.05923567 11.5388535,5.64012739 11.9802548,5.2522293 C12.0917197,5.15414013 12.2031847,5.06050955 12.3146497,4.96687898 C12.3681529,4.92229299 12.4216561,4.88216561 12.4751592,4.83757962 C12.6802548,4.67261146 12.2254777,5.02484076 12.4394904,4.86878981 C12.6847134,4.68598726 12.9343949,4.51210191 13.188535,4.35159236 C13.7547771,3.99044586 14.3522293,3.67834395 14.9675159,3.41974522 C14.8605096,3.46433121 14.7535032,3.5089172 14.6464968,3.55350318 C15.6140127,3.1477707 16.6261146,2.87579618 17.6649682,2.73757962 C17.544586,2.75541401 17.4286624,2.76878981 17.3082803,2.7866242 C18.3382166,2.65286624 19.3770701,2.65286624 20.4070064,2.7866242 C20.2866242,2.76878981 20.1707006,2.75541401 20.0503185,2.73757962 C21.089172,2.87579618 22.1012739,3.1522293 23.0687898,3.55350318 C22.9617834,3.5089172 22.8547771,3.46433121 22.7477707,3.41974522 C23.2917197,3.65159236 23.822293,3.91910828 24.3261146,4.22675159 C24.5847134,4.38726115 24.8388535,4.5522293 25.088535,4.73057325 C25.1420382,4.77070064 25.2,4.81082803 25.2535032,4.85095541 C25.2757962,4.86878981 25.333758,4.9 25.3471338,4.92229299 C25.3605096,4.94458599 25.088535,4.72165605 25.1910828,4.80191083 C25.311465,4.9 25.4363057,4.99808917 25.5566879,5.10063694 C26.0070064,5.47961783 26.4261146,5.88980892 26.8140127,6.33121019 C26.9121019,6.44267516 27.0057325,6.55414013 27.0993631,6.6656051 C27.143949,6.71910828 27.1840764,6.77261146 27.2286624,6.82611465 C27.3936306,7.03121019 27.0414013,6.57643312 27.1974522,6.79044586 C27.3802548,7.03566879 27.5541401,7.28535032 27.7146497,7.53949045 C28.0757962,8.10573248 28.3878981,8.70318471 28.6464968,9.31847134 C28.6019108,9.21146497 28.5573248,9.1044586 28.5127389,8.99745223 C28.9184713,9.96496815 29.1904459,10.9770701 29.3286624,12.0159236 C29.310828,11.8955414 29.2974522,11.7796178 29.2796178,11.6592357 C29.3910828,12.5152866 29.3821656,13.3713376 29.3821656,14.2318471 C29.3821656,15.4267516 29.3821656,16.6216561 29.3821656,17.8121019 C29.3821656,19.3592357 29.3821656,20.9019108 29.3821656,22.4490446 C29.3821656,23.8044586 29.3821656,25.1643312 29.3821656,26.5197452 C29.3821656,27.1484076 29.3866242,27.7770701 29.3821656,28.4057325 C29.3821656,28.5350318 29.3732484,28.6598726 29.3598726,28.7847134 C29.377707,28.6643312 29.3910828,28.5484076 29.4089172,28.4280255 C29.3732484,28.6866242 29.3063694,28.9363057 29.2038217,29.1815287 C29.2484076,29.0745223 29.2929936,28.9675159 29.3375796,28.8605096 C29.266242,29.0210191 29.1859873,29.1815287 29.0878981,29.3286624 C29.0656051,29.3598726 29.0433121,29.3910828 29.0210191,29.4267516 C28.9050955,29.6006369 29.2082803,29.2038217 29.1057325,29.3197452 C29.0433121,29.3821656 28.9898089,29.4535032 28.9273885,29.5159236 C28.8738854,29.5694268 28.811465,29.6229299 28.7535032,29.6764331 C28.588535,29.8324841 28.9764331,29.5203822 28.8649682,29.5961783 C28.833758,29.6184713 28.8025478,29.6407643 28.766879,29.6630573 C28.610828,29.7700637 28.4458599,29.8547771 28.2764331,29.9305732 C28.3834395,29.8859873 28.4904459,29.8414013 28.5974522,29.7968153 C28.3566879,29.8949045 28.1025478,29.966242 27.843949,30.0019108 C27.9643312,29.9840764 28.0802548,29.9707006 28.2006369,29.9528662 C27.5006369,30.0375796 26.7649682,29.9751592 26.0605096,29.9751592 C25.0082803,29.9751592 23.956051,29.9751592 22.9038217,29.9751592 C22.6541401,29.9751592 22.4044586,29.9751592 22.1547771,29.9751592 C21.4547771,29.9751592 20.7859873,30.5904459 20.8171975,31.3127389 C20.8573248,32.0305732 21.4101911,32.6414013 22.1592357,32.6414013 Z" id="Shape"></path>
            </g>
        </g>
    </g>
</svg>