<svg xmlns="http://www.w3.org/2000/svg" width="36" height="35"><title>noun_Scale_150433</title><desc>Created with Sketch.</desc><g fill="none"><g fill="#5110B1" fill-rule="nonzero"><g><g><path d="M29.95.04H6.1C3 .04.5 2.52.5 5.6v23.5c0 3.1 2.5 5.57 5.63 5.57h23.85c3.13 0 5.64-2.48 5.64-5.56V5.68C35.65 2.6 33.07.04 29.94.04zm3 29.13c0 1.6-1.37 2.95-3 2.95H6.1c-1.62 0-2.98-1.34-2.98-2.95V5.67c0-1.6 1.36-2.95 3-2.95h23.83c1.63 0 3 1.34 3 2.95v23.5zM14.33 19L8.5 24.74v-4.28c0-.74-.62-1.34-1.37-1.34-.75 0-1.36.6-1.36 1.34v7.5c0 .74.6 1.34 1.36 1.34h7.6c.76 0 1.37-.6 1.37-1.33 0-.74-.6-1.34-1.36-1.34H10.4l5.83-5.76c.55-.54.55-1.34 0-1.88-.54-.54-1.35-.54-1.9 0zM29 5.07h-7.6c-.75 0-1.36.6-1.36 1.33 0 .74.6 1.34 1.36 1.34h4.34L19.9 13.5c-.54.54-.54 1.34 0 1.88.27.27.6.4.95.4.34 0 .68-.13.95-.4l5.85-5.76v4.3c0 .72.6 1.32 1.35 1.32.75 0 1.36-.6 1.36-1.33V6.4c0-.73-.6-1.33-1.36-1.33z"/></g></g></g></g></svg>