<?xml version="1.0" encoding="UTF-8" standalone="no"?>
<svg width="113px" height="33px" viewBox="0 0 113 33" version="1.1" xmlns="http://www.w3.org/2000/svg" xmlns:xlink="http://www.w3.org/1999/xlink">
    <!-- Generator: Sketch 3.8.3 (29802) - http://www.bohemiancoding.com/sketch -->
    <title>Page 1</title>
    <desc>Created with Sketch.</desc>
    <defs>
        <polygon id="path-1" points="33.04658 32.8056075 33.04658 0.510736318 0.742371405 0.510736318 0.742371405 32.8056075 33.04658 32.8056075"></polygon>
    </defs>
    <g id="v2" stroke="none" stroke-width="1" fill="none" fill-rule="evenodd">
        <g id="Artboard-2-Copy" transform="translate(-197.000000, -286.000000)">
            <g id="Page-1" transform="translate(197.000000, 285.000000)">
                <path d="M31.109954,29.1135874 C27.1574954,25.1780558 23.2198479,21.2234814 19.2716211,17.2816022 C23.3298736,13.1979592 27.4177483,9.14182258 31.4760008,5.06029547 C32.2144419,4.33454959 32.385828,3.10522494 31.8208887,2.23136765 C31.1565033,1.06551932 29.3580077,0.843352213 28.4164423,1.78914932 C24.3158723,5.8833717 20.2195341,9.97970995 16.1253117,14.08028 C12.0416687,10.0706927 8.0066909,6.01667196 3.9611337,1.96899888 C3.41946914,1.40194379 2.61120405,1.07186695 1.82832949,1.23055774 C0.70056694,1.42310257 -0.154247448,2.57625564 0.0234862369,3.71248169 C0.14197536,4.6392359 0.912154659,5.25072441 1.52364317,5.87490819 C5.26662993,9.61577907 9.02019608,13.3503023 12.7483717,17.1102161 C12.7695305,17.1652289 12.8097321,17.2752545 12.8308909,17.3323832 C8.80649248,21.4519961 4.68264782,25.4827422 0.628627115,29.5811963 C0.0594561492,30.1588308 -0.141552184,31.0623103 0.127164219,31.8303738 C0.433966413,32.8608059 1.59135124,33.514612 2.63871045,33.3114878 C3.50198835,33.1951145 4.03095765,32.4312829 4.62128738,31.8769231 C8.48276327,28.104314 12.2659517,24.2576493 16.0914577,20.4511862 C20.1602895,24.486164 24.1994991,28.55288 28.2535198,32.6005531 C28.8226908,33.2056939 29.7071274,33.5209596 30.5196243,33.2691702 C31.5373612,33.0343079 32.2631071,31.9742534 32.1488497,30.9395895 C32.1403862,30.1905689 31.6177645,29.6002392 31.109954,29.1135874" id="Fill-1" fill="#FFFFFF"></path>
                <path d="M36.6753458,14.5677781 C37.3926282,11.726155 39.1784285,9.15748007 41.6476572,7.56634042 C44.5908424,5.61126989 48.4523183,5.13519752 51.782709,6.3243205 C55.4727988,7.56210866 58.3694347,10.795169 59.2898413,14.5698939 C51.7530867,14.5677781 44.2142162,14.5698939 36.6753458,14.5677781 M59.4019828,5.81016234 C56.9898828,3.35151304 53.7229684,1.7688369 50.3142902,1.31603918 C46.1714027,0.71936181 41.7957686,1.78999567 38.4378715,4.3015419 C33.1375991,8.13762726 30.6472117,15.3908543 32.4753296,21.6750096 C33.4761395,25.3016231 35.8289949,28.5092929 38.9266391,30.627286 C41.9206054,32.7071933 45.6382016,33.7058873 49.2711627,33.4075486 C51.8440694,33.1705704 54.3746585,32.3686529 56.5688232,30.9975645 C58.2890314,29.920583 59.7130167,28.4373531 60.9635001,26.8546769 C61.5009329,26.1945233 61.6046109,25.267769 61.3782121,24.4637357 C60.9910065,23.2090205 59.3258112,22.5911844 58.1980486,23.2576857 C57.4828821,23.6406595 57.1337624,24.4087229 56.6090249,24.9863574 C55.1533014,26.630394 53.2511278,27.8956885 51.126787,28.4860183 C47.5573022,29.5058711 43.4821227,28.6679837 40.6553108,26.2410726 C38.4971161,24.4277658 36.9059764,21.8548591 36.5103074,19.0407425 C43.9476157,19.0555536 51.3849241,19.0365107 58.8222324,19.049206 C59.9775014,19.0978711 61.1920149,18.9370645 62.1822454,18.3001854 C63.4919734,17.481341 64.1627065,15.8246091 63.8664836,14.3181046 C63.2486475,11.1337094 61.7400271,8.08261445 59.4019828,5.81016234" id="Fill-3" fill="#FFFFFF"></path>
                <g id="Group-7" transform="translate(79.287456, 0.605352)">
                    <mask id="mask-2" fill="white">
                        <use xlink:href="#path-1"></use>
                    </mask>
                    <g id="Clip-6"></g>
                    <path d="M26.326554,23.2824415 C24.6740539,25.6628033 22.088452,27.3766638 19.2510606,27.9585301 C16.7056604,28.5171217 13.9740629,28.1383796 11.6614091,26.942909 C8.55318554,25.3813916 6.22995238,22.3366444 5.57191457,18.9173868 C4.90964501,15.7626139 5.69463545,12.3370087 7.6475901,9.77468145 C9.35933475,7.46202767 11.9597478,5.8264546 14.7950233,5.31652819 C17.1351834,4.87642574 19.6192233,5.18534381 21.7689545,6.215776 C24.9533497,7.69265829 27.3971879,10.695088 28.1440925,14.1333885 C28.8846495,17.2543073 28.1885259,20.6756808 26.326554,23.2824415 M31.9442079,10.8072295 C30.6133212,7.33507504 28.0256034,4.37073109 24.7798478,2.56588784 C21.7562592,0.854143187 18.1677315,0.193989502 14.7294311,0.651018976 C9.47782388,1.32175205 4.69170966,4.76428425 2.3959829,9.53135557 C0.51708395,13.3018487 0.233556405,17.8171307 1.57502255,21.8034433 C2.58641185,24.8841605 4.59014755,27.6115262 7.16728598,29.5602491 C9.96235975,31.6867057 13.4704841,32.8567858 16.9828403,32.8038889 C20.4803853,32.8208159 23.9610033,31.6063024 26.7285707,29.4777299 C29.5448032,27.3174193 31.6310581,24.2070798 32.5154948,20.7666635 C33.3830044,17.4976332 33.1862279,13.951423 31.9442079,10.8072295" id="Fill-5" fill="#FFFFFF" mask="url(#mask-2)"></path>
                </g>
                <path d="M81.0438095,4.27593979 C81.4394785,3.11643909 80.673531,1.70091724 79.4569016,1.46605487 C77.0701921,1.16560031 74.5798047,1.77497294 72.6543564,3.22858058 C72.3031208,2.07119575 71.0462897,1.2777418 69.8571668,1.64167268 C68.8584727,1.88923031 68.181392,2.89850373 68.2406366,3.91200891 C68.2321731,12.8579377 68.2321731,21.8017506 68.2406366,30.7476794 C68.1496539,31.9960469 69.216056,33.1894017 70.4855823,33.1513159 C71.6747053,33.1851699 72.7516868,32.1356948 72.7093692,30.9381083 C72.7241804,25.7457457 72.7114851,20.5491513 72.7157168,15.3546728 C72.7241804,13.4186452 72.6374294,11.4508794 73.0606048,9.54658989 C73.3039307,8.40824795 73.9408097,7.31222357 74.9691261,6.72189383 C76.2005666,6.03634962 77.6372472,5.84168891 79.0273785,5.77398084 C79.9245105,5.76340146 80.8068312,5.15826058 81.0438095,4.27593979" id="Fill-8" fill="#FFFFFF"></path>
                <path d="M95.1131233,13.3756928 C93.8499446,13.7396237 92.7644996,14.7256225 92.3540195,15.9845694 C91.9329599,17.2710228 92.1805175,18.7732956 93.0564907,19.816423 C94.0551847,21.0986446 95.8833026,21.6022234 97.4173136,21.109224 C99.1269424,20.5781388 100.362615,18.8029179 100.180649,17.0023064 C100.146795,14.5309618 97.4575153,12.6774534 95.1131233,13.3756928" id="Fill-10" fill="#FFFFFF"></path>
            </g>
        </g>
    </g>
</svg>