<?xml version="1.0" encoding="UTF-8"?>
<svg width="200px" height="172px" viewBox="0 0 200 172" version="1.1" xmlns="http://www.w3.org/2000/svg" xmlns:xlink="http://www.w3.org/1999/xlink">
    <!-- Generator: Sketch 42 (36781) - http://www.bohemiancoding.com/sketch -->
    <title>xero-stripe</title>
    <desc>Created with Sketch.</desc>
    <defs>
        <polygon id="path-1" points="0.626725664 0.566672859 104.863894 0.566672859 104.863894 105.096401 0.626725664 105.096401"></polygon>
        <polygon id="path-3" points="104.237345 104.71911 0.000176991151 104.71911 0.000176991151 0.188316909 104.237345 0.188316909"></polygon>
        <polygon id="path-5" points="104.984396 104.71911 0.747227554 104.71911 0.747227554 0.188316909 104.984396 0.188316909"></polygon>
        <path d="M28.218555,0.321256932 C28.5442187,0.310607531 28.8681125,0.305282831 29.1920063,0.305282831 C30.9052807,0.305282831 32.6150152,0.456149346 34.298201,0.757882376 C36.2486435,1.10576281 38.1636877,1.65420697 40.0008559,2.39789014 C41.8167851,3.13092391 43.5548382,4.0485473 45.1849267,5.13301131 C46.8097054,6.21215062 48.3265196,7.45635565 49.7035107,8.84077778 C50.2822718,9.42117014 50.8132453,10.0122119 51.1725373,10.7594449 C51.4840417,11.4090583 51.6663426,12.1172435 51.7088205,12.8360781 C51.797316,14.3003707 51.2946612,15.7664383 50.3212099,16.8633266 C49.1849267,18.1394798 47.4928913,18.8281411 45.7902364,18.7074479 C44.9707674,18.6506511 44.1654576,18.4074897 43.4504134,17.9974878 C43.0805019,17.7898245 42.7371391,17.5360138 42.4256346,17.2449301 C42.0716523,16.9165736 41.7512984,16.5580438 41.399086,16.2261374 C39.9796169,14.900287 38.3459886,13.8087234 36.5813868,13.0029187 C34.7672276,12.1775901 32.8167851,11.6610942 30.8309444,11.4818292 C28.8061656,11.2990145 26.7530683,11.4516559 24.7813868,11.9521778 C22.8628028,12.4367255 21.0274045,13.24608 19.3725373,14.3358687 C17.7477585,15.4025837 16.2999709,16.7337589 15.098201,18.2637228 C13.8805019,19.8114358 12.9212099,21.5579376 12.2681125,23.4180329 C11.6043957,25.3136263 11.2663426,27.3192635 11.2610329,29.3266756 C11.2539532,31.3500618 11.5866966,33.373448 12.2486435,35.2832406 C12.8893514,37.1309117 13.8327143,38.868539 15.0309444,40.4073774 C16.2256346,41.9479908 17.6663426,43.2844906 19.2893514,44.361855 C20.9442187,45.4622931 22.7760771,46.2876217 24.6999709,46.7828189 C26.6681125,47.2922152 28.7265196,47.4608307 30.7530683,47.2868905 C32.7282895,47.1147252 34.6734222,46.6124285 36.4840417,45.803074 C36.6734222,45.7178788 36.8610329,45.6060601 37.0681125,45.5670123 C37.2397939,45.5332892 37.4203249,45.5421637 37.5884665,45.5971856 C37.9247497,45.7019047 38.1884665,45.9787891 38.2840417,46.317795 C38.377847,46.6514763 38.2999709,47.0188806 38.078732,47.2833407 C37.9495284,47.437757 37.7884665,47.5300519 37.6114753,47.6134722 C37.3920063,47.7128666 37.1743072,47.8087112 36.9530683,47.9027809 C35.1105904,48.6801872 33.1548382,49.1771592 31.1672276,49.3706233 C29.1442187,49.5694122 27.0928913,49.4629181 25.1052807,49.0475915 C25.3566081,49.3510994 25.599086,49.661707 25.8309444,49.981189 C26.0681125,50.3077706 26.2946612,50.639677 26.5088205,50.9804578 C26.538909,51.0283801 26.6238647,51.1650474 26.6238647,51.1650474 C26.6238647,51.1650474 26.6645727,51.1703721 26.7265196,51.1774717 C26.8274045,51.189896 26.9300594,51.2005454 27.0344842,51.2094199 C27.2397939,51.2307187 27.4451037,51.2502426 27.6504134,51.2644418 C28.4893514,51.3230135 29.3300594,51.3336629 30.1689975,51.29639 C31.8256346,51.2218442 33.4698824,50.9627088 35.0681125,50.5172089 C36.6150152,50.0859081 38.1141302,49.4806671 39.5282895,48.7174601 C40.9123603,47.972002 42.2150152,47.0774523 43.4097054,46.0497851 C43.7070506,45.7977493 43.9955461,45.536839 44.2769621,45.2670541 C44.5247497,45.0292175 44.7512984,44.7576578 45.0628028,44.5996917 C45.6061656,44.3210323 46.278732,44.3902534 46.7566081,44.7683072 C47.238024,45.1516856 47.457493,45.7906497 47.3141302,46.3870161 C47.2415638,46.6940739 47.0751922,46.9567591 46.8557231,47.1750718 C46.5796169,47.4519562 46.2964311,47.7199662 46.0079355,47.9808765 C44.8486435,49.0369421 43.5902364,49.9829639 42.2539532,50.8047427 C40.898201,51.6371709 39.4628028,52.3418062 37.9725373,52.9008998 C36.4433337,53.4759674 34.8557231,53.8983937 33.2451037,54.1628538 C31.5831568,54.4344135 29.8964311,54.5355829 28.2150152,54.4699115 C28.3495284,54.8461904 28.4734222,55.2224692 28.5831568,55.6058477 C28.6327143,55.7744632 28.6805019,55.9466285 28.7229798,56.1170189 C28.7371391,56.1702659 28.777847,56.3353316 28.777847,56.3353316 L29.1105904,56.3371065 C29.4716523,56.3388814 29.8327143,56.3335567 30.1937762,56.3193575 C30.9123603,56.2945089 31.6309444,56.239487 32.3459886,56.1560667 C32.3141302,56.1596165 32.2840417,56.1631663 32.2557231,56.1667161 C32.3035107,56.1613914 32.3495284,56.1560667 32.3866966,56.1525169 C33.0840417,56.097495 33.6610329,56.7630826 33.4928913,57.4535187 C33.4167851,57.7765506 33.1849267,58.0481103 32.8805019,58.177678 C32.6928913,58.2593234 32.4840417,58.2681979 32.2805019,58.2912716 C32.0397939,58.3161202 31.799086,58.3391939 31.558378,58.3587178 C29.6468736,58.5131342 27.71767,58.4811859 25.8114753,58.2717477 C24.0858116,58.0818334 22.377847,57.7392777 20.7141302,57.235206 C19.0946612,56.7471085 17.5212099,56.1081444 16.018555,55.3289632 C14.4946612,54.5409076 13.057493,53.6037603 11.6893514,52.5654437 C10.1371391,51.3886848 8.70528065,50.0539599 7.4203249,48.5896673 C6.14067888,47.1324742 5.00793552,45.5528131 4.04510366,43.8702077 C3.06103286,42.157429 2.25218331,40.343481 1.63802401,38.4674115 C1.00793552,36.5505194 0.581386846,34.5697308 0.363687731,32.5640936 C0.140678882,30.5229584 0.133599236,28.4605243 0.33890897,26.4176142 C0.544218705,24.4066523 0.956608085,22.4152143 1.57253729,20.4912225 C2.17607711,18.6045037 2.97076738,16.7834561 3.94598862,15.0618029 C4.91059039,13.352574 6.05041339,11.7427396 7.33890897,10.2642477 C8.61501516,8.79640528 10.038024,7.45813055 11.5796169,6.27604703 C13.1371391,5.08153921 14.8150152,4.0467724 16.5813868,3.18949562 C18.3743072,2.32156943 20.259263,1.63823286 22.1920063,1.15900982 C24.1654576,0.667362467 26.1884665,0.388703139 28.218555,0.321256932 Z M32.1619178,56.1773655 C31.9902364,56.1986643 31.9282895,56.2057639 31.9282895,56.2057639 C31.9282895,56.2057639 32.0397939,56.1915647 32.1619178,56.1773655 C32.1743072,56.1755906 32.1866966,56.1755906 32.2008559,56.1738157 L32.197316,56.1738157 C32.1849267,56.1755906 32.1743072,56.1755906 32.1619178,56.1773655 Z M25.2433337,23.7783377 C26.397316,22.9530091 27.797316,22.5075092 29.2150152,22.5075092 C29.5672276,22.5075092 29.91767,22.5341327 30.2681125,22.5891546 C31.6468736,22.8003677 32.9442187,23.4464313 33.9512984,24.4137519 C34.9566081,25.3775227 35.6557231,26.6448015 35.9318293,28.0132495 C36.2150152,29.4189704 36.0504134,30.9063368 35.459263,32.2144382 C34.8911214,33.4710675 33.9442187,34.5395575 32.7689975,35.2548422 C31.5477585,36.0003003 30.1088205,36.3410811 28.6840417,36.2310373 C27.2822718,36.1245433 25.9318293,35.5743243 24.8486435,34.6762248 C23.7849267,33.7940994 22.999086,32.5942669 22.6220948,31.2613168 C22.2309444,29.8768947 22.2840417,28.3788789 22.7743072,27.0246301 C23.2468736,25.7254032 24.1194399,24.5805926 25.2433337,23.7783377 Z M47.5477585,41.5734869 C47.8203249,41.3764729 48.1477585,41.2770785 48.4751922,41.2770785 C48.7619178,41.2770785 49.0486435,41.3516243 49.298201,41.5042657 C49.31767,41.518465 49.3371391,41.5308893 49.358378,41.5450885 C49.3796169,41.5592877 49.4008559,41.5734869 49.4220948,41.589461 C49.9937762,42.0172119 50.2132453,42.8088174 49.9335992,43.4744049 C49.678732,44.0831957 49.059263,44.4736737 48.4026258,44.4435004 C47.738909,44.4133271 47.1495284,43.9500782 46.9601479,43.312889 C46.7707674,42.673925 47.0079355,41.9657398 47.5477585,41.5734869 Z M49.298201,41.5042657 C49.218555,41.4510187 49.1512984,41.4048713 49.1495284,41.4030964 C49.1530683,41.4066462 49.2061656,41.4421442 49.338909,41.5291144 C49.3247497,41.5202399 49.3105904,41.5131403 49.298201,41.5042657 Z M42.1849267,41.7580765 C42.3884665,41.5468634 42.6663426,41.4368195 42.9477585,41.4368195 C43.1406789,41.4368195 43.3353691,41.4900665 43.5052807,41.5965606 C43.9265196,41.8627956 44.1088205,42.4041401 43.9300594,42.8709389 C43.838024,43.1105504 43.6504134,43.2827157 43.4751922,43.4619806 C43.2893514,43.6554448 43.098201,43.8453591 42.9035107,44.0334985 C42.5689975,44.3547554 42.2203249,44.6582634 41.8610329,44.949347 C41.4769621,45.2581796 41.078732,45.5510382 40.678732,45.838572 C40.2663426,46.1314305 39.7247497,46.1651536 39.3229798,45.8225979 C38.9831568,45.5315143 38.8645727,45.0434167 39.0274045,44.6263152 C39.1088205,44.4204267 39.2521833,44.2606857 39.4274045,44.1328929 C39.6415638,43.9820264 39.8539532,43.8276101 40.0645727,43.669644 C40.8274045,43.0963512 41.5229798,42.4556122 42.1813868,41.7634012 C41.6008559,42.3739668 41.8167851,42.1485545 42.0309444,41.9213673 C42.0875815,41.8610207 42.1442187,41.802449 42.1849267,41.7580765 Z M49.3601479,41.5433136 C49.3530683,41.5397638 49.3459886,41.5344391 49.338909,41.5291144 C49.3459886,41.5344391 49.3530683,41.5397638 49.3601479,41.5433136 Z M49.4220948,41.589461 C49.5743072,41.6906303 49.678732,41.7616263 49.3601479,41.5433136 C49.3813868,41.5592877 49.4008559,41.5734869 49.4220948,41.589461 Z M42.2079355,41.7332279 C42.2415638,41.7012797 42.2539532,41.6853056 42.2539532,41.6853056 C42.2539532,41.6853056 42.2362541,41.7048295 42.2079355,41.7332279 Z M42.1813868,41.7634012 C42.1813868,41.7616263 42.1831568,41.7598514 42.1849267,41.7580765 C42.1937762,41.749202 42.2008559,41.7421024 42.2079355,41.7332279 C42.2008559,41.7421024 42.1920063,41.7527518 42.1813868,41.7634012 Z M48.7831568,47.8406594 C48.9884665,47.6294463 49.2610329,47.528277 49.5335992,47.528277 C49.8858116,47.528277 50.238024,47.7004423 50.4362541,48.0287988 C50.5849267,48.2719601 50.6274045,48.5701434 50.558378,48.843478 C50.4698824,49.1860337 50.2008559,49.4167707 49.9654576,49.6581572 C49.6893514,49.9439161 49.4079355,50.2243503 49.1194399,50.49591 C48.859263,50.7426212 48.5371391,50.8846132 48.1760771,50.8278164 C47.5530683,50.7319718 47.1495284,50.0894579 47.3265196,49.4842169 C47.4238647,49.1523106 47.6875815,48.9481971 47.9247497,48.7156852 C48.2114753,48.4352509 48.4928913,48.1477171 48.7689975,47.8548586 C48.5866966,48.0500976 48.6822718,47.9489283 48.7760771,47.8495339 C48.777847,47.8459841 48.7796169,47.8442092 48.7831568,47.8406594 Z M48.7689975,47.8548586 C48.8557231,47.7643387 48.8875815,47.7306156 48.8875815,47.7306156 C48.8875815,47.7306156 48.8362541,47.7856375 48.7831568,47.8406594 C48.777847,47.8459841 48.7743072,47.8513088 48.7689975,47.8548586 Z M45.818555,50.7781192 C45.8468736,50.7763443 45.8734222,50.7745694 45.8999709,50.7745694 C46.2716523,50.7745694 46.6256346,50.9751331 46.8150152,51.2999398 C47.018555,51.6460454 47.0026258,52.0933202 46.7760771,52.4252265 C46.6468736,52.6169158 46.4504134,52.7429337 46.2681125,52.8778261 C46.059263,53.0304675 45.8486435,53.1795591 45.638024,53.3268758 C45.2203249,53.6161846 44.7955461,53.8948439 44.3619178,54.1628538 C42.6291745,55.2331186 40.7831568,56.1187938 38.8663426,56.7985806 C37.9105904,57.1358116 36.9371391,57.4215705 35.9512984,57.6594072 C35.5141302,57.7641263 35.0734222,57.6842558 34.7796169,57.3168514 C34.5212099,56.9955945 34.4751922,56.5394452 34.6645727,56.1720408 C34.7530683,55.9998755 34.8875815,55.8543337 35.0521833,55.7531644 C35.2433337,55.636021 35.4681125,55.6022979 35.6822718,55.5490509 C36.1796169,55.4248078 36.6716523,55.2863656 37.1636877,55.1354991 C38.1353691,54.8337661 39.0911214,54.4770111 40.0220948,54.0670092 C41.8769621,53.2470053 43.6344842,52.2122385 45.2557231,50.9982068 C45.2539532,50.9982068 45.2539532,50.9982068 45.2539532,50.9999817 C45.2539532,50.9982068 45.2557231,50.9964319 45.257493,50.9964319 C45.2628028,50.9911072 45.2681125,50.9875574 45.2716523,50.9840076 C45.2716523,50.9857825 45.2698824,50.9875574 45.2681125,50.9875574 C45.2698824,50.9857825 45.2716523,50.9840076 45.2734222,50.9840076 L45.2716523,50.9840076 C45.2769621,50.9804578 45.2822718,50.9786829 45.2858116,50.9751331 C45.4415638,50.8650893 45.6256346,50.7940933 45.818555,50.7781192 Z M44.6822718,51.4277326 C44.3636877,51.6655693 44.0468736,51.9034059 44.0468736,51.9034059 C44.0486435,51.9034059 44.3495284,51.6779936 45.2451037,51.0053064 C45.2468736,51.0035315 45.2504134,51.0017566 45.2521833,50.9999817 C45.2504134,51.0017566 45.2468736,51.0035315 45.2451037,51.0053064 C45.1335992,51.0887267 44.9070506,51.2573422 44.6822718,51.4277326 Z M45.2928913,50.9698084 C45.3070506,50.959159 45.3159001,50.9520594 45.3159001,50.9520594 C45.3159001,50.9520594 45.3088205,50.9573841 45.2928913,50.9698084 Z M45.2734222,50.9840076 C45.2805019,50.9786829 45.2875815,50.9733582 45.2928913,50.9698084 C45.2893514,50.9715833 45.2875815,50.9733582 45.2858116,50.9751331 C45.2822718,50.976908 45.278732,50.9804578 45.2734222,50.9840076 Z M45.2557231,50.9982068 C45.2557231,50.9964319 45.257493,50.9964319 45.257493,50.9964319 C45.2610329,50.9928821 45.2645727,50.9911072 45.2681125,50.9875574 C45.2628028,50.9911072 45.259263,50.994657 45.2557231,50.9982068 Z M32.3636877,56.1542918 C32.4327143,56.1454173 32.4645727,56.1436424 32.4663426,56.1436424 C32.4663426,56.1436424 32.4327143,56.1454173 32.3866966,56.1525169 C32.377847,56.1525169 32.3707674,56.1525169 32.3636877,56.1542918 Z M32.3459886,56.1560667 C32.3512984,56.1542918 32.358378,56.1542918 32.3636877,56.1542918 C32.3566081,56.1542918 32.3512984,56.1542918 32.3459886,56.1560667 Z" id="path-7"></path>
        <polygon id="path-9" points="0 171.2251 199.729204 171.2251 199.729204 0.566672859 0 0.566672859"></polygon>
        <polygon id="path-11" points="0 171.2251 199.729204 171.2251 199.729204 0.566672859 0 0.566672859"></polygon>
        <polygon id="path-13" points="0 171.2251 199.729204 171.2251 199.729204 0.566672859 0 0.566672859"></polygon>
        <polygon id="path-15" points="0 171.2251 199.729204 171.2251 199.729204 0.566672859 0 0.566672859"></polygon>
        <polygon id="path-17" points="0 171.2251 199.729204 171.2251 199.729204 0.566672859 0 0.566672859"></polygon>
    </defs>
    <g id="Stripe_Xero_lead" stroke="none" stroke-width="1" fill="none" fill-rule="evenodd">
        <g id="Stripe_Xero_Lead-Copy-4" transform="translate(-344.000000, -611.000000)">
            <g id="xero-stripe" transform="translate(344.000000, 611.000000)">
                <g id="Page-1">
                    <g id="Group">
                        <g>
                            <g id="Group-10" transform="translate(0.000000, 0.268720)">
                                <g id="Group-3" transform="translate(46.017699, 0.000000)">
                                    <g id="Fill-1-Clipped">
                                        <mask id="mask-2" fill="white">
                                            <use xlink:href="#path-1"></use>
                                        </mask>
                                        <g id="path-1"></g>
                                        <path d="M52.7453097,105.096401 C81.5293805,105.096401 104.863894,81.6961175 104.863894,52.8326909 C104.863894,23.9657144 81.5293805,0.565430429 52.7453097,0.565430429 C23.9612389,0.565430429 0.626725664,23.9657144 0.626725664,52.8326909 C0.626725664,81.6961175 23.9612389,105.096401 52.7453097,105.096401" id="Fill-1" fill="#6772E5" fill-rule="nonzero" mask="url(#mask-2)"></path>
                                    </g>
                                </g>
                                <g id="Group-6" transform="translate(0.000000, 66.505989)">
                                    <g id="Fill-4-Clipped">
                                        <mask id="mask-4" fill="white">
                                            <use xlink:href="#path-3"></use>
                                        </mask>
                                        <g id="path-3"></g>
                                        <path d="M52.1187611,104.719288 C80.9028319,104.719288 104.237345,81.319004 104.237345,52.4538024 C104.237345,23.5886008 80.9028319,0.188316909 52.1187611,0.188316909 C23.3346903,0.188316909 0.000176991151,23.5886008 0.000176991151,52.4538024 C0.000176991151,81.319004 23.3346903,104.719288 52.1187611,104.719288" id="Fill-4" fill="#03B6E2" fill-rule="nonzero" mask="url(#mask-4)"></path>
                                    </g>
                                </g>
                                <g id="Group-9" transform="translate(94.744277, 66.505989)">
                                    <g id="Fill-7-Clipped">
                                        <mask id="mask-6" fill="white">
                                            <use xlink:href="#path-5"></use>
                                        </mask>
                                        <g id="path-5"></g>
                                        <path d="M52.8658116,104.719288 C81.6498824,104.719288 104.984396,81.319004 104.984396,52.4538024 C104.984396,23.5886008 81.6498824,0.188316909 52.8658116,0.188316909 C24.0817408,0.188316909 0.747227554,23.5886008 0.747227554,52.4538024 C0.747227554,81.319004 24.0817408,104.719288 52.8658116,104.719288" id="Fill-7" fill="#FF7846" fill-rule="nonzero" mask="url(#mask-6)"></path>
                                    </g>
                                </g>
                            </g>
                            <g id="Group-13" transform="translate(119.523038, 89.848412)">
                                <g id="Fill-11-Clipped">
                                    <mask id="mask-8" fill="white">
                                        <use xlink:href="#path-7"></use>
                                    </mask>
                                    <g id="path-7"></g>
                                    <polygon id="Fill-11" fill="#FFFFFF" fill-rule="nonzero" mask="url(#mask-8)" points="-5.89471935 64.5584442 57.8061656 64.5584442 57.8061656 -5.79859888 -5.89471935 -5.79859888"></polygon>
                                </g>
                            </g>
                            <g id="Group-26" transform="translate(0.000000, 0.268720)">
                                <path d="M125.019646,51.4230651 L130.210796,51.4230651 C130.210796,49.1565176 128.902832,48.2033962 127.670973,48.2033962 C126.416106,48.2033962 125.019646,49.1547427 125.019646,51.4230651 Z M134.963009,53.3257581 C134.963009,53.8138557 134.916991,54.8681464 134.895752,55.141481 L125.063894,55.141481 C125.288673,57.5020982 127.012566,58.1960842 128.970088,58.1960842 C130.963009,58.1960842 132.53469,57.7754329 133.902832,57.0814469 L133.902832,61.1406436 C132.53823,61.8967511 130.73646,62.4451952 128.33646,62.4451952 C123.444425,62.4451952 120.017876,59.372843 120.017876,53.3009095 C120.017876,48.171448 122.924071,44.0980521 127.702832,44.0980521 C132.472743,44.0980521 134.963009,48.1696731 134.963009,53.3257581 Z" id="Fill-14" fill="#FFFFFF" fill-rule="nonzero"></path>
                                <path d="M111.05292,57.995698 C109.874159,57.995698 109.171504,57.5697219 108.684779,57.0408017 L108.65469,49.5560476 C109.178584,48.98098 109.900708,48.5585537 111.05292,48.5585537 C112.890088,48.5585537 114.155575,50.6227626 114.155575,53.2567145 C114.155575,55.9669871 112.909558,57.995698 111.05292,57.995698 M112.25292,44.0982296 C110.284779,44.0982296 109.013982,45.0265024 108.320177,45.6778907 L108.05823,44.4319108 L103.635221,44.4319108 L103.638761,67.9422386 L108.66,66.8701989 L108.670619,61.1709944 C109.390973,61.7016896 110.46531,62.4453727 112.222832,62.4453727 C115.815752,62.4453727 119.100708,59.5451858 119.100708,53.1466707 C119.100708,47.2841754 115.780354,44.0982296 112.25292,44.0982296" id="Fill-16" fill="#FFFFFF" fill-rule="nonzero"></path>
                                <polygon id="Fill-18" fill="#FFFFFF" fill-rule="nonzero" points="96.7122124 42.8985746 101.75469 41.82476 101.75469 37.7211907 96.7122124 38.7950054"></polygon>
                                <g id="Fill-20-Clipped">
                                    <mask id="mask-10" fill="white">
                                        <use xlink:href="#path-9"></use>
                                    </mask>
                                    <g id="path-9"></g>
                                    <polygon id="Fill-20" fill="#FFFFFF" fill-rule="nonzero" mask="url(#mask-10)" points="96.7115044 62.084713 101.753982 62.084713 101.753982 44.4333307 96.7115044 44.4333307"></polygon>
                                </g>
                                <g id="Fill-22-Clipped">
                                    <mask id="mask-12" fill="white">
                                        <use xlink:href="#path-11"></use>
                                    </mask>
                                    <g id="path-9"></g>
                                    <path d="M91.3109735,45.9215845 L90.9959292,44.4324433 L86.6543363,44.4324433 L86.6543363,62.0838256 L91.6738053,62.0838256 L91.6738053,50.1174486 C92.859646,48.5537615 94.8631858,48.8554945 95.5038938,49.0649328 L95.5038938,44.4342182 C94.8330973,44.1928318 92.4861947,43.7544314 91.3109735,45.9215845" id="Fill-22" fill="#FFFFFF" fill-rule="nonzero" mask="url(#mask-12)"></path>
                                </g>
                                <g id="Fill-23-Clipped">
                                    <mask id="mask-14" fill="white">
                                        <use xlink:href="#path-13"></use>
                                    </mask>
                                    <g id="path-9"></g>
                                    <path d="M81.240177,40.0594442 L76.3375221,41.1048604 L76.3162832,57.2617768 C76.3162832,60.2436091 78.5516814,62.4444853 81.5322124,62.4444853 C83.1746903,62.4444853 84.3870796,62.146302 85.0561062,61.7771228 L85.0561062,57.6788783 C84.4136283,57.9362388 81.2437168,58.8609618 81.2437168,55.8915538 L81.2437168,48.7280567 L85.0578761,48.7280567 L85.0578761,44.4327983 L81.2437168,44.4327983 L81.240177,40.0594442 Z" id="Fill-23" fill="#FFFFFF" fill-rule="nonzero" mask="url(#mask-14)"></path>
                                </g>
                                <g id="Fill-24-Clipped">
                                    <mask id="mask-16" fill="white">
                                        <use xlink:href="#path-15"></use>
                                    </mask>
                                    <g id="path-9"></g>
                                    <path d="M67.6435398,49.558 C67.6435398,48.7717192 68.2966372,48.4664364 69.3479646,48.4664364 C70.8771681,48.4664364 72.8152212,48.9350101 74.3444248,49.7621135 L74.3444248,45.0178054 C72.680708,44.3522178 71.0169912,44.0984071 69.3532743,44.0984071 C65.280708,44.0984071 62.5638938,46.2318371 62.5638938,49.7958367 C62.5638938,55.3707981 70.199292,54.4673739 70.199292,56.8705888 C70.199292,57.8024114 69.3922124,58.1005946 68.2718584,58.1005946 C66.6081416,58.1005946 64.4612389,57.4137082 62.7762832,56.492535 L62.7762832,61.3025145 C64.6435398,62.1065443 66.5355752,62.4455502 68.2683186,62.4455502 C72.4417699,62.4455502 75.319646,60.3760166 75.319646,56.7516704 C75.319646,50.7471831 67.6435398,51.8227727 67.6435398,49.558" id="Fill-24" fill="#FFFFFF" fill-rule="nonzero" mask="url(#mask-16)"></path>
                                </g>
                                <g id="Fill-25-Clipped">
                                    <mask id="mask-18" fill="white">
                                        <use xlink:href="#path-17"></use>
                                    </mask>
                                    <g id="path-9"></g>
                                    <path d="M57.440531,116.80666 C56.7821239,113.677511 55.0776991,111.105681 52.4812389,109.455024 C48.6352212,107.03406 43.7166372,107.167178 40.0051327,109.79048 C36.2493805,112.500753 34.5113274,117.229087 35.6175221,121.735558 C36.7750442,126.224281 40.539646,129.550444 45.1237168,130.137936 C46.4759292,130.303001 47.7909735,130.228456 49.1484956,129.869926 C50.3361062,129.580617 51.4670796,129.096069 52.4971681,128.434031 C53.580354,127.734721 54.4865487,126.813548 55.3661947,125.70956 C55.3785841,125.686486 55.3980531,125.670512 55.4139823,125.647438 C56.0246018,124.891331 55.9113274,123.805092 55.2440708,123.293921 C54.6776991,122.85907 53.7307965,122.683355 52.9892035,123.641801 C52.8281416,123.872538 52.6476106,124.1086 52.4546903,124.344661 C51.8617699,125.001375 51.1254867,125.638564 50.2440708,126.131986 C49.1184071,126.735452 47.8423009,127.076233 46.4865487,127.085107 C42.0423009,127.033635 39.6670796,123.918685 38.8210619,121.69651 C38.6723894,121.275859 38.559115,120.842783 38.4812389,120.402608 L38.4582301,120.170096 L54.4033628,120.170096 C56.5874336,120.120399 57.760885,118.570911 57.4369912,116.801336 L57.440531,116.80666 Z M38.5980531,117.095969 C38.5980531,117.051597 38.6033628,117.007224 38.6051327,116.966401 C39.7024779,112.624996 44.100708,109.994594 48.4316814,111.095032 C51.3538053,111.83694 53.6228319,114.14786 54.3166372,117.08887 L38.5962832,117.08887 L38.5980531,117.095969 Z M67.9219469,107.891337 L67.4546903,107.891337 C66.0423009,107.891337 64.6812389,108.336837 63.5449558,109.217187 C63.3838938,108.516102 62.7644248,108.017355 62.0476106,108.013805 C61.2104425,108.013805 60.5343363,108.691817 60.5343363,109.52957 L60.5343363,109.538444 L60.5378761,128.483729 C60.5856637,129.328581 61.3060177,129.974645 62.1484956,129.928497 C62.9272566,129.884125 63.5484956,129.261135 63.5892035,128.478404 L63.5892035,116.829734 C63.5892035,112.948027 63.9449558,111.377241 67.2546903,110.963689 C67.5661947,110.926416 67.8953982,110.931741 67.8989381,110.931741 C68.8015929,110.899793 69.4476106,110.271478 69.4476106,109.426625 C69.4440708,108.578223 68.759115,107.893112 67.9130973,107.893112 L67.9219469,107.891337 Z M68.7166372,118.945415 C68.7166372,125.143367 73.7414159,130.192958 79.9148673,130.192958 C86.0883186,130.192958 91.1130973,125.148691 91.1130973,118.94719 C91.1130973,112.747464 86.0883186,107.697873 79.9148673,107.697873 C73.7272566,107.710297 68.7184071,112.742139 68.7166372,118.94719 L68.7166372,118.945415 Z M71.8776991,118.945415 C71.8776991,114.49574 75.479469,110.871394 79.9148673,110.871394 C84.339646,110.871394 87.9502655,114.49574 87.9502655,118.945415 C87.9502655,123.393315 84.3431858,127.017661 79.9148673,127.017661 C75.4741593,127.010562 71.8776991,123.39864 71.8776991,118.945415 L71.8776991,118.945415 Z M77.1361062,118.945415 C77.1361062,120.482479 78.3821239,121.732008 79.9166372,121.732008 C81.4511504,121.732008 82.6971681,120.482479 82.6953982,118.94364 C82.6953982,117.404802 81.4493805,116.157047 79.9148673,116.157047 C78.3874336,116.157047 77.1431858,117.406577 77.1431858,118.945415 L77.1361062,118.945415 Z M26.4759292,118.94719 L34.9980531,110.360223 C35.5520354,109.723034 35.4847788,108.752163 34.8476106,108.19662 C34.2670796,107.688998 33.399823,107.694323 32.8246018,108.209044 L24.3077876,116.756963 L15.7573451,108.19307 C15.1555752,107.600253 14.1892035,107.603803 13.5945133,108.207269 C13.0015929,108.810735 13.0086726,109.781605 13.6086726,110.376197 L22.1307965,118.932991 L13.6139823,127.496884 C12.9927434,128.073727 12.9555752,129.044597 13.5290265,129.665812 C14.1042478,130.288802 15.0723894,130.3243 15.6918584,129.749232 C15.7148673,129.727934 15.7361062,129.70841 15.7573451,129.685336 L24.2971681,121.117893 L32.8033628,129.651613 C33.3785841,130.265728 34.3431858,130.295902 34.9555752,129.717284 C35.2653097,129.426201 35.4387611,129.021523 35.4352212,128.597322 C35.4387611,128.19087 35.2776991,127.800392 34.9909735,127.514633 L26.4741593,118.938315 L26.4759292,118.94719 Z" id="Fill-25" fill="#FFFFFF" fill-rule="nonzero" mask="url(#mask-18)"></path>
                                </g>
                            </g>
                        </g>
                    </g>
                </g>
            </g>
        </g>
    </g>
</svg>