<?xml version="1.0" encoding="utf-8"?>
<!-- Generator: Adobe Illustrator 24.1.0, SVG Export Plug-In . SVG Version: 6.00 Build 0)  -->
<svg version="1.1" id="Layer_1" xmlns="http://www.w3.org/2000/svg" xmlns:xlink="http://www.w3.org/1999/xlink" x="0px" y="0px"
	 viewBox="0 0 687 1006" style="enable-background:new 0 0 687 1006;" xml:space="preserve">
<style type="text/css">
	.st0{fill-rule:evenodd;clip-rule:evenodd;fill:#FFFFFF;}
	.st1{fill:#666678;}
	.st2{fill:none;stroke:#666678;stroke-linecap:square;stroke-dasharray:4;}
	.st3{fill-rule:evenodd;clip-rule:evenodd;fill:#FF5605;}
	.st4{enable-background:new    ;}
	.st5{fill-rule:evenodd;clip-rule:evenodd;}
	.st6{fill:#1D0046;}
	.st7{fill:#26292C;}
</style>
<desc>Created with Sketch.</desc>
<g id="Artboard-Copy-2">
	<rect y="0" class="st0" width="687" height="1006"/>
	<g id="Group-2" transform="translate(52.000000, 65.000000)">
		<path id="Line-2" class="st1" d="M115.5,512.5v1h5v-1H115.5z M123.5,512.5v1h5v-1H123.5z M131.5,512.5v1h5v-1H131.5z M139.5,512.5
			v1h5v-1H139.5z M147.5,512.5v1h5v-1H147.5z M155.5,512.5v1h5v-1H155.5z M163.5,512.5v1h5v-1H163.5z M171.5,512.5v1h5v-1H171.5z
			 M179.5,512.5v1h5v-1H179.5z M187.5,512.5v1h5v-1H187.5z M195.5,512.5v1h5v-1H195.5z M203.5,512.5v1h5v-1H203.5z M211.5,512.5v1h5
			v-1H211.5z M219.5,512.5v1h5v-1H219.5z M227.5,512.5v1h5v-1H227.5z M235.5,512.5v1h5v-1H235.5z M243.5,512.5v1h5v-1H243.5z
			 M251.5,512.5v1h5v-1H251.5z M259.5,512.5v1h5v-1H259.5z M267.5,512.5v1h5v-1H267.5z M275.5,512.5v1h5v-1H275.5z M283.5,512.5v1h5
			v-1H283.5z M291.5,512.5v1h3v-1H291.5z"/>
		<path id="Line-3-Copy-2" class="st1" d="M311,96l-1,0l0,5l1,0L311,96z M311,104l-1,0l0,5l1,0L311,104z M311,112l-1,0l0,5l1,0
			L311,112z M311,120l-1,0l0,5l1,0L311,120z M311,128l-1,0l0,5l1,0L311,128z M311,136l-1,0l0,5l1,0L311,136z M311,144l-1,0l0,5l1,0
			L311,144z M311,152l-1,0l0,5l1,0L311,152z M311,160l-1,0l0,5l1,0L311,160z M310.9,168l-1,0l0,5l1,0L310.9,168z M310.9,176l-1,0
			l0,5l1,0L310.9,176z M310.9,184l-1,0l0,5l1,0L310.9,184z M310.9,192l-1,0l0,5l1,0L310.9,192z M310.9,200l-1,0l0,5l1,0L310.9,200z
			 M310.9,208l-1,0l0,5l1,0L310.9,208z M310.9,216l-1,0l0,5l1,0L310.9,216z M310.9,224l-1,0l0,5l1,0L310.9,224z M310.9,232l-1,0l0,5
			l1,0L310.9,232z M310.9,240l-1,0l0,5l1,0L310.9,240z M310.9,248l-1,0l0,5l1,0L310.9,248z M310.9,256l-1,0l0,5l1,0L310.9,256z
			 M310.9,264l-1,0l0,5l1,0L310.9,264z M310.9,272l-1,0l0,5l1,0L310.9,272z M310.9,280l-1,0l0,5l1,0L310.9,280z M310.9,288l-1,0l0,5
			l1,0L310.9,288z M310.8,296l-1,0l0,5l1,0L310.8,296z M310.8,304l-1,0l0,5l1,0L310.8,304z M310.8,312l-1,0l0,5l1,0L310.8,312z
			 M310.8,320l-1,0l0,5l1,0L310.8,320z M310.8,328l-1,0l0,5l1,0L310.8,328z M310.8,336l-1,0l0,5l1,0L310.8,336z M310.8,344l-1,0l0,5
			l1,0L310.8,344z M310.8,352l-1,0l0,5l1,0L310.8,352z M310.8,360l-1,0l0,5l1,0L310.8,360z M310.8,368l-1,0l0,5l1,0L310.8,368z
			 M310.8,376l-1,0l0,5l1,0L310.8,376z M310.8,384l-1,0l0,5l1,0L310.8,384z M310.8,392l-1,0l0,5l1,0L310.8,392z M310.8,400l-1,0l0,5
			l1,0L310.8,400z M310.8,408l-1,0l0,5l1,0L310.8,408z M310.8,416l-1,0l0,5l1,0L310.8,416z M310.8,424l-1,0l0,5l1,0L310.8,424z"/>
		<path id="Line-4-Copy-2" class="st1" d="M346,863l0,1l5,0l0-1L346,863z M354,863l0,1l5,0l0-1L354,863z M362,862.9l0,1l5,0l0-1
			L362,862.9z M370,862.9l0,1l5,0l0-1L370,862.9z M378,862.9l0,1l1.4,0l0-1L378,862.9z"/>
		<path id="Line-2-Copy" class="st1" d="M242,709v1h5v-1H242z M250,709v1h5v-1H250z M258,709v1h5v-1H258z M266,709v1h5v-1H266z
			 M274,709v1h5v-1H274z M282,709v1h5v-1H282z M290,709v1h5v-1H290z"/>
		<g id="Group" transform="translate(310.000000, 165.000000)">
			<line id="Line-4-Copy-5" class="st2" x1="0.5" y1="5.5" x2="50.5" y2="5.5"/>
			<polygon id="_x25BA_" class="st1" points="23,10.1 31.7,5 23,0 			"/>
		</g>
		<g id="Group-Copy" transform="translate(310.000000, 230.000000)">
			<line id="Line-4-Copy-5_1_" class="st2" x1="0.5" y1="5.5" x2="49.5" y2="5.5"/>
			<polygon id="_x25BA__1_" class="st1" points="23,10.1 31.7,5 23,0 			"/>
		</g>
		<g id="Group-Copy-2" transform="translate(311.000000, 295.000000)">
			<line id="Line-4-Copy-5_2_" class="st2" x1="0.5" y1="5.5" x2="49.5" y2="5.5"/>
			<polygon id="_x25BA__2_" class="st1" points="23,10.1 31.7,5 23,0 			"/>
		</g>
		<g id="Group-Copy-3" transform="translate(310.000000, 362.000000)">
			<line id="Line-4-Copy-5_3_" class="st2" x1="0.5" y1="5.5" x2="49.5" y2="5.5"/>
			<polygon id="_x25BA__3_" class="st1" points="24,10.1 32.7,5 24,0 			"/>
		</g>
		<g id="Group-Copy-4" transform="translate(310.000000, 425.000000)">
			<line id="Line-4-Copy-5_4_" class="st2" x1="0.5" y1="5.5" x2="49.5" y2="5.5"/>
			<polygon id="_x25BA__4_" class="st1" points="24,10.1 32.7,5 24,0 			"/>
		</g>
		<path id="Line-4-Copy-7" class="st1" d="M344,590l0,1l5,0l0-1L344,590z M352,590l0,1l5,0l0-1L352,590z M360,589.9l0,1l5,0l0-1
			L360,589.9z M368,589.9l0,1l5,0l0-1L368,589.9z M376,589.9l0,1l1.4,0l0-1L376,589.9z"/>
		<path id="Line-3-Copy" class="st1" d="M344.9,534.6l-1,0l0,5l1,0L344.9,534.6z M344.9,542.6l-1,0l0,5l1,0L344.9,542.6z
			 M344.9,550.6l-1,0l0,5l1,0L344.9,550.6z M344.9,558.6l-1,0l0,5l1,0L344.9,558.6z M344.8,566.6l-1,0l0,5l1,0L344.8,566.6z
			 M344.8,574.6l-1,0l0,5l1,0L344.8,574.6z M344.8,582.6l-1,0l0,5l1,0L344.8,582.6z"/>
		<g id="Group-44" transform="translate(115.000000, 0.000000)">
			<path id="Fill-32" class="st3" d="M29.6,24.7C29.6,24.7,29.6,24.7,29.6,24.7c-0.4-0.3-1-0.2-1.3,0.3c0,0,0,0,0,0
				c-0.3,0.4-0.2,1,0.3,1.3c0.4,0.3,1,0.2,1.3-0.3C30.2,25.6,30.1,25,29.6,24.7"/>
			<path id="Fill-34" class="st3" d="M19.3,33.6c-0.7,0.1-1.5,0.1-2.2,0.1c-0.1-0.4-0.2-0.7-0.3-1.1c0.2,0,0.4,0,0.7,0l0,0
				c4.1,0,8.1-1.7,10.9-4.7c0.4-0.4,0.4-1,0-1.3c-0.4-0.4-1-0.3-1.3,0c-0.2,0.2-0.3,0.3-0.5,0.5c-3,2.8-6.9,4-10.7,3.5
				c-0.1-0.2-0.3-0.5-0.5-0.7c-0.1-0.2-0.3-0.4-0.5-0.6c0.8,0.2,1.7,0.3,2.5,0.3l0,0c1.8,0,3.5-0.4,5.1-1.1c0,0,0.1,0,0.1,0
				c0.3-0.2,0.4-0.6,0.2-0.9c-0.2-0.3-0.6-0.4-0.9-0.2c-1.4,0.7-3,1-4.6,1c-3,0-5.8-1.2-7.8-3.3c-0.1-0.1-0.2-0.2-0.3-0.3
				c0-0.1-0.1-0.1-0.1-0.2c-0.1-0.1-0.1-0.1-0.2-0.2c-0.1-0.1-0.2-0.3-0.3-0.4c0-0.1-0.1-0.1-0.1-0.2c-0.1-0.2-0.3-0.4-0.4-0.6
				c0,0,0-0.1-0.1-0.1C8.1,23,8,22.8,7.9,22.6c0-0.1-0.1-0.1-0.1-0.2c-0.1-0.2-0.2-0.4-0.3-0.6c0-0.1-0.1-0.1-0.1-0.2
				c0-0.1-0.1-0.2-0.1-0.3c0,0,0-0.1,0-0.1c0-0.1-0.1-0.3-0.1-0.4c0,0,0,0,0,0c0-0.2-0.1-0.3-0.1-0.5c0,0,0,0,0,0
				c-0.6-2.2-0.4-4.6,0.5-6.8c1.5-3.6,4.8-6,8.5-6.6C16,7,16,7,16.1,7c0.1,0,0.1,0,0.2,0c0.1,0,0.2,0,0.4,0c0,0,0,0,0,0
				c3.1-0.2,6.2,0.9,8.5,3.3c0,0,0.1,0.1,0.1,0.1c0.1,0.1,0.2,0.2,0.3,0.2c1.4,1.1,3.5,0.9,4.7-0.6c0.7-0.9,0.9-2.1,0.5-3.2
				C30.6,6.4,30.3,6,30,5.7h0c-0.1-0.1-0.2-0.2-0.3-0.3c-0.1,0-0.1-0.1-0.2-0.1c-0.1-0.1-0.2-0.2-0.3-0.3c-0.1-0.1-0.2-0.2-0.3-0.3
				c-0.1-0.1-0.2-0.2-0.3-0.2c-0.1-0.1-0.2-0.2-0.4-0.3C28.1,4,28,3.9,27.9,3.8c-0.1-0.1-0.2-0.2-0.4-0.3c0,0-0.1-0.1-0.1-0.1
				c-0.1-0.1-0.2-0.1-0.2-0.2C27.1,3.2,27,3.1,26.8,3c-0.1-0.1-0.2-0.1-0.3-0.2c-0.1-0.1-0.3-0.2-0.4-0.3c-0.1-0.1-0.2-0.1-0.3-0.2
				c-0.1-0.1-0.3-0.2-0.4-0.2C25.2,2.1,25.1,2.1,25,2c-0.1-0.1-0.2-0.1-0.4-0.2c0,0-0.1,0-0.1-0.1c-0.1,0-0.2-0.1-0.3-0.1
				c-0.1,0-0.2-0.1-0.4-0.1c-0.2-0.1-0.3-0.1-0.5-0.2c-0.1,0-0.2-0.1-0.3-0.1c-0.2-0.1-0.4-0.1-0.5-0.2c-0.1,0-0.2-0.1-0.3-0.1
				c-0.2-0.1-0.4-0.1-0.6-0.2c-0.1,0-0.2,0-0.2-0.1c-0.1,0-0.3-0.1-0.4-0.1c-0.1,0-0.1,0-0.2,0c-0.1,0-0.2,0-0.3,0
				c-0.2,0-0.4-0.1-0.6-0.1c-0.1,0-0.3,0-0.4,0c-0.2,0-0.3,0-0.5-0.1c-0.2,0-0.4,0-0.7,0c-0.1,0-0.1,0-0.2,0c-0.3,0-0.6,0-0.9,0
				c0,0,0,0,0,0c-0.1,0-0.2,0-0.3,0c-0.2,0-0.3,0-0.5,0c-0.1,0-0.2,0-0.4,0c-0.1,0-0.3,0-0.4,0c-0.5,0.1-1.1,0.1-1.6,0.2
				c-2,0.4-3.8,1.1-5.5,2.1c0,0,0,0,0,0C8.4,2.8,8.3,2.8,8.2,2.9C8.1,3,8,3.1,7.9,3.1c0,0,0,0,0,0C7.1,3.7,6.3,4.2,5.6,4.9
				C4.8,5.6,4.1,6.4,3.4,7.3C2.8,8.2,2.2,9.1,1.8,10c-0.5,1-0.8,1.9-1.1,3c-0.1,0.4-0.2,0.8-0.3,1.2c0,0,0,0,0,0.1
				c0,0.2-0.1,0.5-0.1,0.7c0,0,0,0.1,0,0.1c0,0.2-0.1,0.4-0.1,0.7c0,0.1,0,0.1,0,0.2c0,0.1,0,0.1,0,0.2c0,0.1,0,0.2,0,0.4
				c0,0.1,0,0.3,0,0.4c0,0.1,0,0.2,0,0.4c0,0.1,0,0.3,0,0.4c0,0.1,0,0.1,0,0.2c0,0.1,0,0.2,0,0.3c0,0.2,0,0.4,0,0.6c0,0,0,0.1,0,0.1
				c0.1,2.1,0.6,4,1.4,5.8c0,0,0,0,0,0c0.1,0.3,0.2,0.5,0.4,0.8c0,0,0,0.1,0,0.1C2,25.7,2.2,26,2.3,26.2c0,0,0,0,0,0.1
				c0,0,0,0,0,0.1c0.1,0.2,0.3,0.4,0.4,0.6c0,0,0.1,0.1,0.1,0.1c0.1,0.2,0.3,0.4,0.4,0.6c0,0.1,0.1,0.1,0.1,0.2
				c0.1,0.2,0.3,0.4,0.4,0.5c0,0.1,0.1,0.1,0.1,0.2C4,28.7,4.2,28.9,4.3,29c0,0,0.1,0.1,0.1,0.1c0,0,0,0,0,0
				c0.2,0.2,0.3,0.3,0.5,0.5c0,0,0.1,0.1,0.1,0.1c0.2,0.2,0.4,0.4,0.6,0.6l0,0c0.2,0.2,0.4,0.4,0.6,0.5c0,0,0,0,0,0
				c0.2,0.1,0.3,0.3,0.5,0.4c0.1,0,0.1,0.1,0.2,0.1c0,0,0,0,0,0c0.1,0.1,0.2,0.1,0.3,0.2c0.1,0.1,0.3,0.2,0.4,0.3
				c0.1,0,0.1,0.1,0.2,0.1c0.2,0.1,0.4,0.2,0.5,0.3c0,0,0.1,0,0.1,0.1c0.2,0.1,0.4,0.2,0.6,0.4c0,0,0,0,0,0c0.2,0.1,0.3,0.2,0.5,0.3
				c0.1,0,0.2,0.1,0.2,0.1c0,0,0,0,0,0c0.3,0.1,0.5,0.2,0.8,0.3c0,0,0,0,0,0c0.2,0.1,0.5,0.2,0.7,0.3c0,0,0.1,0,0.1,0
				c0.2,0.1,0.5,0.2,0.7,0.2c0.1,0,0.1,0,0.2,0c0.1,0,0.2,0.1,0.3,0.1c0.1,0,0.2,0.1,0.3,0.1c0.1,0,0.2,0,0.3,0.1
				c0.2,0,0.3,0.1,0.5,0.1c0.1,0,0.2,0,0.3,0.1c0.1,0,0.3,0.1,0.4,0.1c0.1,0,0.3,0,0.4,0.1c0.1,0,0.2,0,0.4,0c0.2,0,0.3,0,0.5,0.1
				c0,0,0,0,0,0c0.1,0,0.2,0,0.3,0c0.2,0,0.5,0,0.7,0c0.2,0,0.4,0,0.6,0c0,0,0,0,0,0c0,0,0.1,0,0.1,0v0c0.7,0,1.4,0,2-0.1
				c0.3-0.1,0.5-0.3,0.5-0.7C20,33.9,19.7,33.6,19.3,33.6"/>
			<path id="Fill-36" class="st3" d="M27.1,30.5c-1.8,1.3-3.8,2.3-6,2.8c-0.3,0.1-0.5,0.3-0.5,0.6c0,0.3,0.3,0.6,0.6,0.6
				c0,0,0.1,0,0.1,0c2.3-0.5,4.5-1.6,6.4-3c0.3-0.2,0.3-0.6,0.1-0.9C27.8,30.4,27.4,30.3,27.1,30.5"/>
			<path id="Fill-38" class="st3" d="M29.2,28.7c-0.2,0.2-0.5,0.5-0.7,0.7c-0.1,0.1-0.2,0.3-0.2,0.5c0,0.3,0.3,0.6,0.6,0.6
				c0.2,0,0.3-0.1,0.4-0.2c0.3-0.2,0.5-0.5,0.7-0.7c0.2-0.3,0.2-0.7,0-0.9C29.8,28.4,29.4,28.4,29.2,28.7"/>
			<path id="Fill-40" class="st3" d="M25.2,25c-0.5,0.5-1.1,1-1.7,1.4c-0.2,0.1-0.3,0.3-0.3,0.5c0,0.3,0.3,0.6,0.6,0.6l0,0
				c0.1,0,0.3,0,0.4-0.1c0.7-0.5,1.3-1,1.8-1.6c0.2-0.3,0.2-0.7,0-0.9C25.9,24.8,25.5,24.8,25.2,25"/>
			<path id="Fill-42" class="st3" d="M13.3,17.6c0,2.3,1.8,4.1,4.1,4.1c2.3,0,4.1-1.8,4.1-4.1s-1.8-4.1-4.1-4.1
				C15.2,13.5,13.3,15.4,13.3,17.6"/>
		</g>
		<g id="Group-9" transform="translate(164.000000, 8.000000)">
			<line id="Line" class="st2" x1="0.5" y1="9" x2="214.5" y2="9.5"/>
			<g class="st4">
				<path class="st1" d="M105.2,2.7L116.1,9l-10.9,6.3V2.7z"/>
			</g>
		</g>
		<g id="Group-30" transform="translate(293.000000, 49.000000)">
			<g id="Rectangle-Copy-2">
				<g>
					<path id="path-1" class="st5" d="M4,0h233c2.2,0,4,1.8,4,4v40c0,2.2-1.8,4-4,4H4c-2.2,0-4-1.8-4-4V4C0,1.8,1.8,0,4,0z"/>
				</g>
				<g>
					<path id="path-1_1_" class="st0" d="M4,0h233c2.2,0,4,1.8,4,4v40c0,2.2-1.8,4-4,4H4c-2.2,0-4-1.8-4-4V4C0,1.8,1.8,0,4,0z"/>
				</g>
			</g>
			<g id="Group-15-Copy" transform="translate(98.000000, 16.000000)">
				<g class="st4">
					<path class="st6" d="M1.1,3.2h4.3c0.5,0,1,0.1,1.4,0.2C7.3,3.6,7.7,3.8,8,4c0.3,0.3,0.5,0.6,0.7,1c0.2,0.4,0.3,0.8,0.3,1.3
						c0,0.5-0.1,0.9-0.3,1.3C8.5,8,8.3,8.3,8,8.6C7.7,8.9,7.3,9.1,6.9,9.2C6.4,9.4,6,9.4,5.4,9.4H2.6V13H1.1V3.2z M2.6,8.1h2.7
						c0.7,0,1.2-0.2,1.5-0.5c0.3-0.3,0.5-0.8,0.5-1.3S7.3,5.3,6.9,5C6.6,4.7,6,4.5,5.4,4.5H2.6V8.1z"/>
					<path class="st6" d="M11,9.8c0,0.3,0.1,0.6,0.2,0.8c0.1,0.3,0.3,0.5,0.4,0.7s0.4,0.3,0.7,0.4s0.5,0.2,0.8,0.2
						c0.3,0,0.5,0,0.7-0.1c0.2-0.1,0.4-0.2,0.6-0.3c0.2-0.1,0.3-0.3,0.4-0.5c0.1-0.2,0.2-0.4,0.3-0.6l1.1,0.7
						c-0.3,0.7-0.7,1.2-1.3,1.5c-0.5,0.3-1.2,0.5-2,0.5c-0.5,0-0.9-0.1-1.4-0.3c-0.4-0.2-0.8-0.4-1.1-0.7c-0.3-0.3-0.6-0.7-0.8-1.2
						c-0.2-0.5-0.3-0.9-0.3-1.5c0-0.5,0.1-1,0.3-1.5c0.2-0.5,0.4-0.8,0.8-1.2c0.3-0.3,0.7-0.6,1.1-0.7c0.4-0.2,0.9-0.3,1.4-0.3
						c0.5,0,1,0.1,1.4,0.3c0.4,0.2,0.8,0.4,1.1,0.7c0.3,0.3,0.5,0.7,0.7,1.1c0.2,0.4,0.2,0.9,0.2,1.4v0.5H11z M13.1,7
						c-0.3,0-0.5,0-0.7,0.1c-0.2,0.1-0.4,0.2-0.6,0.4c-0.2,0.2-0.3,0.3-0.5,0.5S11,8.5,11,8.7h4.1c0-0.3-0.1-0.5-0.2-0.7
						c-0.1-0.2-0.3-0.4-0.5-0.5c-0.2-0.1-0.4-0.3-0.6-0.3C13.6,7,13.3,7,13.1,7z"/>
					<path class="st6" d="M21.7,7.3c-0.2-0.1-0.4-0.1-0.5-0.1c-0.3,0-0.5,0.1-0.7,0.2s-0.4,0.3-0.6,0.4s-0.3,0.4-0.4,0.7
						c-0.1,0.3-0.1,0.5-0.1,0.9V13H18V6.1h1.4v1.2c0.2-0.4,0.4-0.7,0.8-1s0.7-0.4,1.2-0.4c0.1,0,0.2,0,0.3,0c0.1,0,0.2,0,0.3,0
						L21.7,7.3z"/>
					<path class="st6" d="M24.2,7.7c0,0.3,0.1,0.5,0.4,0.7s0.7,0.3,1.3,0.4c0.8,0.2,1.4,0.4,1.8,0.7c0.4,0.3,0.6,0.8,0.6,1.4
						c0,0.3-0.1,0.6-0.2,0.9s-0.3,0.5-0.5,0.7c-0.2,0.2-0.5,0.4-0.8,0.5s-0.7,0.2-1.1,0.2c-0.4,0-0.8-0.1-1.1-0.2
						c-0.3-0.1-0.6-0.3-0.9-0.4s-0.5-0.4-0.7-0.7s-0.3-0.5-0.4-0.8l1.2-0.7c0.2,0.5,0.4,0.8,0.7,1.1s0.7,0.4,1.2,0.4
						c0.4,0,0.7-0.1,0.9-0.3s0.4-0.4,0.4-0.7s-0.1-0.5-0.4-0.7c-0.3-0.2-0.7-0.3-1.2-0.4c-0.3-0.1-0.6-0.2-0.9-0.3
						c-0.3-0.1-0.5-0.3-0.7-0.4c-0.2-0.2-0.4-0.4-0.5-0.6c-0.1-0.2-0.2-0.5-0.2-0.8c0-0.3,0.1-0.6,0.2-0.8c0.1-0.2,0.3-0.4,0.5-0.6
						s0.5-0.3,0.8-0.4s0.6-0.1,0.9-0.1c0.7,0,1.3,0.1,1.8,0.4c0.4,0.3,0.8,0.7,1,1.3l-1,0.6c-0.2-0.4-0.4-0.7-0.7-0.9
						c-0.3-0.2-0.6-0.3-1-0.3c-0.3,0-0.6,0.1-0.9,0.2C24.3,7.3,24.2,7.5,24.2,7.7z"/>
					<path class="st6" d="M36.8,9.5c0,0.6-0.1,1.1-0.3,1.6s-0.5,0.8-0.8,1.1c-0.3,0.3-0.7,0.5-1.2,0.7s-0.9,0.2-1.4,0.2
						c-0.5,0-0.9-0.1-1.4-0.2s-0.8-0.4-1.2-0.7c-0.3-0.3-0.6-0.7-0.8-1.1c-0.2-0.5-0.3-1-0.3-1.6c0-0.6,0.1-1.1,0.3-1.6
						c0.2-0.5,0.5-0.8,0.8-1.1c0.4-0.3,0.7-0.5,1.2-0.7c0.4-0.2,0.9-0.2,1.4-0.2c0.5,0,0.9,0.1,1.4,0.2c0.4,0.2,0.8,0.4,1.2,0.7
						c0.4,0.3,0.6,0.7,0.8,1.1S36.8,8.9,36.8,9.5z M33,11.9c0.3,0,0.6-0.1,0.9-0.2c0.3-0.1,0.5-0.3,0.7-0.5s0.4-0.5,0.5-0.7
						s0.2-0.6,0.2-1s-0.1-0.7-0.2-1C35,8.3,34.8,8,34.6,7.8s-0.4-0.4-0.7-0.5c-0.3-0.1-0.6-0.2-0.9-0.2c-0.3,0-0.6,0.1-0.9,0.2
						c-0.3,0.1-0.5,0.3-0.7,0.5C31.3,8,31.1,8.3,31,8.6c-0.1,0.3-0.2,0.6-0.2,1s0.1,0.7,0.2,1c0.1,0.3,0.3,0.5,0.5,0.7
						c0.2,0.2,0.4,0.4,0.7,0.5C32.4,11.8,32.7,11.9,33,11.9z"/>
					<path class="st6" d="M44.5,13h-1.4V8.7c0-0.5-0.1-0.8-0.4-1.1S42,7.2,41.5,7.2c-0.3,0-0.5,0.1-0.7,0.2s-0.4,0.2-0.6,0.4
						c-0.2,0.2-0.3,0.4-0.4,0.7c-0.1,0.3-0.1,0.6-0.1,0.9V13h-1.4V6.1h1.4v1.2c0.2-0.4,0.6-0.7,1-1c0.4-0.2,0.9-0.4,1.4-0.4
						c0.3,0,0.7,0.1,1,0.2c0.3,0.1,0.6,0.3,0.8,0.5c0.2,0.2,0.4,0.5,0.5,0.8c0.1,0.3,0.2,0.7,0.2,1V13z"/>
				</g>
			</g>
		</g>
		<g id="Group-30-Copy-6" transform="translate(293.000000, 487.000000)">
			<g id="Rectangle-Copy-2_1_">
				<g>
					<path id="path-3" class="st5" d="M4,0h233c2.2,0,4,1.8,4,4v40c0,2.2-1.8,4-4,4H4c-2.2,0-4-1.8-4-4V4C0,1.8,1.8,0,4,0z"/>
				</g>
				<g>
					<path id="path-3_1_" class="st0" d="M4,0h233c2.2,0,4,1.8,4,4v40c0,2.2-1.8,4-4,4H4c-2.2,0-4-1.8-4-4V4C0,1.8,1.8,0,4,0z"/>
				</g>
			</g>
			<g id="Group-15-Copy_1_" transform="translate(79.000000, 16.000000)">
				<g class="st4">
					<path class="st6" d="M10.5,8.1c0,0.7-0.1,1.4-0.4,2.1s-0.6,1.2-1,1.6c-0.4,0.4-1,0.8-1.5,1.1c-0.6,0.3-1.2,0.4-1.9,0.4
						c-0.7,0-1.3-0.1-1.9-0.4s-1.1-0.6-1.5-1.1c-0.4-0.4-0.8-1-1-1.6S0.7,8.8,0.7,8.1c0-0.7,0.1-1.4,0.4-2.1s0.6-1.2,1-1.6
						c0.4-0.4,1-0.8,1.5-1S4.9,3,5.6,3c0.7,0,1.3,0.1,1.9,0.4c0.6,0.3,1.1,0.6,1.5,1c0.4,0.4,0.8,1,1,1.6S10.5,7.4,10.5,8.1z
						 M5.6,11.8c0.5,0,0.9-0.1,1.3-0.3c0.4-0.2,0.8-0.4,1.1-0.7c0.3-0.3,0.5-0.7,0.7-1.2s0.3-1,0.3-1.5c0-0.6-0.1-1.1-0.3-1.5
						S8.3,5.7,8,5.4C7.7,5.1,7.3,4.8,6.9,4.6C6.5,4.5,6.1,4.4,5.6,4.4c-0.5,0-0.9,0.1-1.3,0.3C3.9,4.8,3.5,5.1,3.2,5.4
						C2.9,5.7,2.7,6.1,2.5,6.6s-0.3,1-0.3,1.5c0,0.6,0.1,1.1,0.3,1.5s0.4,0.9,0.7,1.2c0.3,0.3,0.7,0.6,1.1,0.7
						C4.7,11.7,5.1,11.8,5.6,11.8z"/>
					<path class="st6" d="M15.9,7.3c-0.2-0.1-0.4-0.1-0.5-0.1c-0.3,0-0.5,0.1-0.7,0.2s-0.4,0.3-0.6,0.4c-0.2,0.2-0.3,0.4-0.4,0.7
						c-0.1,0.3-0.1,0.5-0.1,0.9V13h-1.4V6.1h1.4v1.2c0.2-0.4,0.4-0.7,0.8-1s0.7-0.4,1.2-0.4c0.1,0,0.2,0,0.3,0c0.1,0,0.2,0,0.3,0
						L15.9,7.3z"/>
					<path class="st6" d="M18.6,13.5c-0.1,0.1-0.1,0.3-0.1,0.5c0,0.3,0.2,0.5,0.5,0.6c0.3,0.2,0.7,0.3,1.3,0.3c1.3,0,2-0.7,2-2.1
						v-1.1c-0.2,0.3-0.4,0.6-0.8,0.9c-0.4,0.2-0.8,0.3-1.3,0.3c-0.5,0-0.9-0.1-1.3-0.3s-0.8-0.4-1.1-0.7c-0.3-0.3-0.5-0.7-0.7-1.1
						c-0.2-0.4-0.3-0.9-0.3-1.4s0.1-1,0.3-1.4c0.2-0.4,0.4-0.8,0.7-1.1c0.3-0.3,0.7-0.5,1-0.7c0.4-0.2,0.8-0.2,1.3-0.2
						c0.5,0,0.9,0.1,1.3,0.3C21.7,6.4,22,6.7,22.2,7v-1h1.4v6.5c0,1.1-0.3,2-0.9,2.6c-0.6,0.6-1.4,0.9-2.5,0.9c-1,0-1.8-0.2-2.4-0.6
						c-0.6-0.4-0.8-0.9-0.8-1.6c0-0.3,0.1-0.6,0.2-0.8L18.6,13.5z M20.3,7.1c-0.3,0-0.6,0-0.8,0.1c-0.2,0.1-0.5,0.2-0.7,0.4
						s-0.3,0.4-0.4,0.7c-0.1,0.3-0.2,0.6-0.2,1s0.1,0.7,0.2,1c0.1,0.3,0.3,0.5,0.4,0.7s0.4,0.3,0.7,0.4c0.2,0.1,0.5,0.1,0.8,0.1
						s0.6,0,0.8-0.1c0.2-0.1,0.5-0.2,0.7-0.4c0.2-0.2,0.3-0.4,0.4-0.7s0.2-0.6,0.2-1s-0.1-0.7-0.2-1s-0.3-0.5-0.4-0.7
						c-0.2-0.2-0.4-0.3-0.7-0.4C20.8,7.2,20.5,7.1,20.3,7.1z"/>
					<path class="st6" d="M30.3,13c-0.1-0.1-0.2-0.2-0.2-0.4c-0.1-0.2-0.1-0.5-0.1-0.8c-0.2,0.5-0.5,0.8-0.9,1.1
						c-0.4,0.2-0.9,0.4-1.4,0.4c-0.4,0-0.7-0.1-1-0.2s-0.5-0.2-0.7-0.4c-0.2-0.2-0.4-0.4-0.5-0.7c-0.1-0.3-0.2-0.6-0.2-0.9
						c0-0.3,0.1-0.7,0.2-0.9c0.1-0.3,0.3-0.5,0.5-0.7c0.2-0.2,0.5-0.3,0.8-0.4c0.3-0.1,0.6-0.2,0.9-0.3l2.2-0.4V8.1
						c0-0.8-0.5-1.2-1.5-1.2c-0.5,0-0.9,0.1-1.1,0.3c-0.2,0.2-0.3,0.4-0.3,0.6c0,0,0,0.1,0,0.1S27,8,27,8l-1.3,0.4
						c-0.1-0.2-0.1-0.4-0.1-0.6c0-0.3,0.1-0.5,0.2-0.8c0.1-0.2,0.3-0.5,0.6-0.7c0.2-0.2,0.5-0.3,0.9-0.5c0.3-0.1,0.7-0.2,1.2-0.2
						c1,0,1.7,0.2,2.2,0.6c0.5,0.4,0.7,1,0.7,1.7v3.1c0,0.4,0,0.7,0.1,1s0.2,0.5,0.3,0.8H30.3z M27.8,12c0.3,0,0.6-0.1,0.8-0.2
						c0.3-0.1,0.5-0.3,0.7-0.5s0.3-0.5,0.4-0.7c0.1-0.3,0.1-0.6,0.1-0.9V9.5L28,9.8c-0.4,0.1-0.8,0.2-1,0.4s-0.3,0.5-0.3,0.8
						c0,0.3,0.1,0.6,0.3,0.8C27.2,11.9,27.4,12,27.8,12z"/>
					<path class="st6" d="M39.3,13h-1.4V8.7c0-0.5-0.1-0.8-0.4-1.1c-0.3-0.3-0.6-0.4-1.1-0.4c-0.3,0-0.5,0.1-0.7,0.2
						S35.2,7.6,35,7.8c-0.2,0.2-0.3,0.4-0.4,0.7c-0.1,0.3-0.1,0.6-0.1,0.9V13h-1.4V6.1h1.4v1.2c0.2-0.4,0.6-0.7,1-1
						c0.4-0.2,0.9-0.4,1.4-0.4c0.3,0,0.7,0.1,1,0.2c0.3,0.1,0.6,0.3,0.8,0.5c0.2,0.2,0.4,0.5,0.5,0.8c0.1,0.3,0.2,0.7,0.2,1V13z"/>
					<path class="st6" d="M41.1,3.3h1.6V5h-1.6V3.3z M41.2,6.1h1.4V13h-1.4V6.1z"/>
					<path class="st6" d="M49.9,11.8V13h-5.8v-1.2l3.9-4.5h-3.7V6.1h5.4v1.2l-3.9,4.5H49.9z"/>
					<path class="st6" d="M56.2,13c-0.1-0.1-0.2-0.2-0.2-0.4c-0.1-0.2-0.1-0.5-0.1-0.8c-0.2,0.5-0.5,0.8-0.9,1.1
						c-0.4,0.2-0.9,0.4-1.4,0.4c-0.4,0-0.7-0.1-1-0.2s-0.5-0.2-0.7-0.4c-0.2-0.2-0.4-0.4-0.5-0.7c-0.1-0.3-0.2-0.6-0.2-0.9
						c0-0.3,0.1-0.7,0.2-0.9c0.1-0.3,0.3-0.5,0.5-0.7c0.2-0.2,0.5-0.3,0.8-0.4c0.3-0.1,0.6-0.2,0.9-0.3l2.2-0.4V8.1
						c0-0.8-0.5-1.2-1.5-1.2c-0.5,0-0.9,0.1-1.1,0.3c-0.2,0.2-0.4,0.4-0.4,0.6c0,0,0,0.1,0,0.1s0,0.1,0,0.1l-1.3,0.4
						c-0.1-0.2-0.1-0.4-0.1-0.6c0-0.3,0.1-0.5,0.2-0.8c0.1-0.2,0.3-0.5,0.6-0.7c0.2-0.2,0.5-0.3,0.9-0.5c0.3-0.1,0.7-0.2,1.2-0.2
						c1,0,1.7,0.2,2.2,0.6c0.5,0.4,0.7,1,0.7,1.7v3.1c0,0.4,0,0.7,0.1,1s0.2,0.5,0.3,0.8H56.2z M53.7,12c0.3,0,0.6-0.1,0.8-0.2
						c0.3-0.1,0.5-0.3,0.7-0.5c0.2-0.2,0.3-0.5,0.4-0.7c0.1-0.3,0.1-0.6,0.1-0.9V9.5l-1.9,0.3c-0.4,0.1-0.8,0.2-1,0.4
						s-0.3,0.5-0.3,0.8c0,0.3,0.1,0.6,0.3,0.8C53.1,11.9,53.4,12,53.7,12z"/>
					<path class="st6" d="M58.3,6.1h1.1V4.2h1.4v1.9h1.6v1.1h-1.6v3.7c0,0.3,0.1,0.6,0.2,0.8s0.4,0.3,0.7,0.3c0.1,0,0.2,0,0.3,0
						s0.2,0,0.3-0.1l0.1,1.2c-0.1,0-0.3,0.1-0.5,0.1c-0.2,0-0.4,0-0.6,0c-0.3,0-0.5,0-0.8-0.1s-0.5-0.2-0.6-0.3
						c-0.2-0.2-0.3-0.4-0.4-0.6s-0.2-0.6-0.2-1V7.2h-1.1V6.1z"/>
					<path class="st6" d="M63.8,3.3h1.6V5h-1.6V3.3z M63.9,6.1h1.4V13h-1.4V6.1z"/>
					<path class="st6" d="M74.2,9.5c0,0.6-0.1,1.1-0.3,1.6c-0.2,0.5-0.5,0.8-0.8,1.1c-0.3,0.3-0.7,0.5-1.2,0.7s-0.9,0.2-1.4,0.2
						s-0.9-0.1-1.4-0.2s-0.8-0.4-1.2-0.7c-0.3-0.3-0.6-0.7-0.8-1.1c-0.2-0.5-0.3-1-0.3-1.6c0-0.6,0.1-1.1,0.3-1.6
						c0.2-0.5,0.5-0.8,0.8-1.1c0.3-0.3,0.7-0.5,1.2-0.7c0.4-0.2,0.9-0.2,1.4-0.2s0.9,0.1,1.4,0.2c0.4,0.2,0.8,0.4,1.2,0.7
						c0.3,0.3,0.6,0.7,0.8,1.1C74,8.4,74.2,8.9,74.2,9.5z M70.4,11.9c0.3,0,0.6-0.1,0.9-0.2s0.5-0.3,0.7-0.5s0.4-0.5,0.5-0.7
						s0.2-0.6,0.2-1s-0.1-0.7-0.2-1C72.4,8.3,72.2,8,72,7.8s-0.4-0.4-0.7-0.5c-0.3-0.1-0.6-0.2-0.9-0.2c-0.3,0-0.6,0.1-0.9,0.2
						c-0.3,0.1-0.5,0.3-0.7,0.5s-0.4,0.5-0.5,0.7c-0.1,0.3-0.2,0.6-0.2,1s0.1,0.7,0.2,1s0.3,0.5,0.5,0.7s0.4,0.4,0.7,0.5
						C69.8,11.8,70.1,11.9,70.4,11.9z"/>
					<path class="st6" d="M81.9,13h-1.4V8.7c0-0.5-0.1-0.8-0.4-1.1s-0.6-0.4-1.1-0.4c-0.3,0-0.5,0.1-0.7,0.2
						c-0.2,0.1-0.4,0.2-0.6,0.4c-0.2,0.2-0.3,0.4-0.4,0.7c-0.1,0.3-0.1,0.6-0.1,0.9V13h-1.4V6.1h1.4v1.2c0.2-0.4,0.6-0.7,1-1
						C78.5,6,79,5.9,79.5,5.9c0.3,0,0.7,0.1,1,0.2c0.3,0.1,0.6,0.3,0.8,0.5c0.2,0.2,0.4,0.5,0.5,0.8c0.1,0.3,0.2,0.7,0.2,1V13z"/>
				</g>
			</g>
		</g>
		<g id="Group-30-Copy" transform="translate(362.000000, 146.000000)">
			<g id="Rectangle-Copy-2_2_">
				<g>
					<path id="path-5" class="st5" d="M4,0h187c2.2,0,4,1.8,4,4v40c0,2.2-1.8,4-4,4H4c-2.2,0-4-1.8-4-4V4C0,1.8,1.8,0,4,0z"/>
				</g>
				<g>
					<path id="path-5_1_" class="st0" d="M4,0h187c2.2,0,4,1.8,4,4v40c0,2.2-1.8,4-4,4H4c-2.2,0-4-1.8-4-4V4C0,1.8,1.8,0,4,0z"/>
				</g>
			</g>
			<g id="Group-15-Copy_2_" transform="translate(79.000000, 16.000000)">
				<g class="st4">
					<path class="st6" d="M1.1,3.2h1.5L7.1,10c0.1,0.1,0.1,0.2,0.2,0.3c0,0.1,0.1,0.2,0.1,0.2c0,0.1,0.1,0.2,0.1,0.2V3.2h1.5V13H7.4
						L3,6.2C2.9,6.1,2.9,6,2.8,5.9c0-0.1-0.1-0.2-0.1-0.2S2.6,5.5,2.6,5.4V13H1.1V3.2z"/>
					<path class="st6" d="M15.5,13c-0.1-0.1-0.2-0.2-0.2-0.4c-0.1-0.2-0.1-0.5-0.1-0.8c-0.2,0.5-0.5,0.8-0.9,1.1
						c-0.4,0.2-0.9,0.4-1.4,0.4c-0.4,0-0.7-0.1-1-0.2s-0.5-0.2-0.7-0.4c-0.2-0.2-0.4-0.4-0.5-0.7c-0.1-0.3-0.2-0.6-0.2-0.9
						c0-0.3,0.1-0.7,0.2-0.9c0.1-0.3,0.3-0.5,0.5-0.7c0.2-0.2,0.5-0.3,0.8-0.4c0.3-0.1,0.6-0.2,0.9-0.3l2.2-0.4V8.1
						c0-0.8-0.5-1.2-1.5-1.2c-0.5,0-0.9,0.1-1.1,0.3c-0.2,0.2-0.4,0.4-0.4,0.6c0,0,0,0.1,0,0.1s0,0.1,0,0.1l-1.3,0.4
						c-0.1-0.2-0.1-0.4-0.1-0.6c0-0.3,0.1-0.5,0.2-0.8c0.1-0.2,0.3-0.5,0.6-0.7c0.2-0.2,0.5-0.3,0.9-0.5c0.3-0.1,0.7-0.2,1.2-0.2
						c1,0,1.7,0.2,2.2,0.6c0.5,0.4,0.7,1,0.7,1.7v3.1c0,0.4,0,0.7,0.1,1s0.2,0.5,0.3,0.8H15.5z M13,12c0.3,0,0.6-0.1,0.8-0.2
						c0.3-0.1,0.5-0.3,0.7-0.5c0.2-0.2,0.3-0.5,0.4-0.7c0.1-0.3,0.1-0.6,0.1-0.9V9.5l-1.9,0.3c-0.4,0.1-0.8,0.2-1,0.4
						s-0.3,0.5-0.3,0.8c0,0.3,0.1,0.6,0.3,0.8C12.4,11.9,12.7,12,13,12z"/>
					<path class="st6" d="M28,13h-1.4V8.4c0-0.4-0.1-0.7-0.3-0.9c-0.2-0.2-0.5-0.3-0.9-0.3s-0.8,0.2-1.1,0.5
						c-0.3,0.3-0.4,0.8-0.4,1.6V13h-1.4V8.5c0-0.4-0.1-0.7-0.3-1s-0.5-0.4-0.9-0.4c-0.4,0-0.8,0.2-1.1,0.5s-0.5,0.9-0.5,1.5V13h-1.4
						V6.1h1.4v1c0.2-0.4,0.5-0.7,0.9-0.9C21,6,21.4,5.9,21.8,5.9c0.5,0,0.9,0.1,1.2,0.3c0.3,0.2,0.6,0.5,0.7,0.9
						c0.2-0.4,0.6-0.7,0.9-0.9C25,6,25.4,5.9,25.9,5.9c0.7,0,1.2,0.2,1.6,0.6C27.9,6.8,28,7.3,28,7.9V13z"/>
					<path class="st6" d="M30.9,9.8c0,0.3,0.1,0.6,0.2,0.8c0.1,0.3,0.3,0.5,0.4,0.7s0.4,0.3,0.7,0.4S32.7,12,33,12
						c0.3,0,0.5,0,0.7-0.1c0.2-0.1,0.4-0.2,0.6-0.3c0.2-0.1,0.3-0.3,0.4-0.5c0.1-0.2,0.2-0.4,0.3-0.6l1.1,0.7
						c-0.3,0.7-0.7,1.2-1.3,1.5c-0.5,0.3-1.2,0.5-2,0.5c-0.5,0-0.9-0.1-1.4-0.3c-0.4-0.2-0.8-0.4-1.1-0.7c-0.3-0.3-0.6-0.7-0.8-1.2
						c-0.2-0.5-0.3-0.9-0.3-1.5c0-0.5,0.1-1,0.3-1.5s0.4-0.8,0.8-1.2s0.7-0.6,1.1-0.7c0.4-0.2,0.9-0.3,1.4-0.3c0.5,0,1,0.1,1.4,0.3
						c0.4,0.2,0.8,0.4,1.1,0.7c0.3,0.3,0.5,0.7,0.7,1.1c0.2,0.4,0.2,0.9,0.2,1.4v0.5H30.9z M33,7c-0.3,0-0.5,0-0.7,0.1
						c-0.2,0.1-0.4,0.2-0.6,0.4s-0.3,0.3-0.5,0.5c-0.1,0.2-0.2,0.4-0.3,0.7h4.1C35,8.5,35,8.2,34.8,8c-0.1-0.2-0.3-0.4-0.5-0.5
						S34,7.2,33.7,7.1C33.5,7,33.3,7,33,7z"/>
				</g>
			</g>
		</g>
		<g id="Group-30-Copy-7" transform="translate(367.000000, 568.000000)">
			<g id="Rectangle-Copy-2_3_">
				<g>
					<path id="path-7" class="st5" d="M4,0h182c2.2,0,4,1.8,4,4v40c0,2.2-1.8,4-4,4H4c-2.2,0-4-1.8-4-4V4C0,1.8,1.8,0,4,0z"/>
				</g>
				<g>
					<path id="path-7_1_" class="st0" d="M4,0h182c2.2,0,4,1.8,4,4v40c0,2.2-1.8,4-4,4H4c-2.2,0-4-1.8-4-4V4C0,1.8,1.8,0,4,0z"/>
				</g>
			</g>
			<g id="Group-15-Copy_3_" transform="translate(76.000000, 16.000000)">
				<g class="st4">
					<path class="st6" d="M1.1,3.2h1.5L7.1,10c0.1,0.1,0.1,0.2,0.2,0.3c0,0.1,0.1,0.2,0.1,0.2c0,0.1,0.1,0.2,0.1,0.2V3.2h1.5V13H7.4
						L3,6.2C2.9,6.1,2.9,6,2.8,5.9c0-0.1-0.1-0.2-0.1-0.2S2.6,5.5,2.6,5.4V13H1.1V3.2z"/>
					<path class="st6" d="M15.5,13c-0.1-0.1-0.2-0.2-0.2-0.4c-0.1-0.2-0.1-0.5-0.1-0.8c-0.2,0.5-0.5,0.8-0.9,1.1
						c-0.4,0.2-0.9,0.4-1.4,0.4c-0.4,0-0.7-0.1-1-0.2s-0.5-0.2-0.7-0.4c-0.2-0.2-0.4-0.4-0.5-0.7c-0.1-0.3-0.2-0.6-0.2-0.9
						c0-0.3,0.1-0.7,0.2-0.9c0.1-0.3,0.3-0.5,0.5-0.7c0.2-0.2,0.5-0.3,0.8-0.4c0.3-0.1,0.6-0.2,0.9-0.3l2.2-0.4V8.1
						c0-0.8-0.5-1.2-1.5-1.2c-0.5,0-0.9,0.1-1.1,0.3c-0.2,0.2-0.4,0.4-0.4,0.6c0,0,0,0.1,0,0.1s0,0.1,0,0.1l-1.3,0.4
						c-0.1-0.2-0.1-0.4-0.1-0.6c0-0.3,0.1-0.5,0.2-0.8c0.1-0.2,0.3-0.5,0.6-0.7c0.2-0.2,0.5-0.3,0.9-0.5c0.3-0.1,0.7-0.2,1.2-0.2
						c1,0,1.7,0.2,2.2,0.6c0.5,0.4,0.7,1,0.7,1.7v3.1c0,0.4,0,0.7,0.1,1s0.2,0.5,0.3,0.8H15.5z M13,12c0.3,0,0.6-0.1,0.8-0.2
						c0.3-0.1,0.5-0.3,0.7-0.5c0.2-0.2,0.3-0.5,0.4-0.7c0.1-0.3,0.1-0.6,0.1-0.9V9.5l-1.9,0.3c-0.4,0.1-0.8,0.2-1,0.4
						s-0.3,0.5-0.3,0.8c0,0.3,0.1,0.6,0.3,0.8C12.4,11.9,12.7,12,13,12z"/>
					<path class="st6" d="M28,13h-1.4V8.4c0-0.4-0.1-0.7-0.3-0.9c-0.2-0.2-0.5-0.3-0.9-0.3s-0.8,0.2-1.1,0.5
						c-0.3,0.3-0.4,0.8-0.4,1.6V13h-1.4V8.5c0-0.4-0.1-0.7-0.3-1s-0.5-0.4-0.9-0.4c-0.4,0-0.8,0.2-1.1,0.5s-0.5,0.9-0.5,1.5V13h-1.4
						V6.1h1.4v1c0.2-0.4,0.5-0.7,0.9-0.9C21,6,21.4,5.9,21.8,5.9c0.5,0,0.9,0.1,1.2,0.3c0.3,0.2,0.6,0.5,0.7,0.9
						c0.2-0.4,0.6-0.7,0.9-0.9C25,6,25.4,5.9,25.9,5.9c0.7,0,1.2,0.2,1.6,0.6C27.9,6.8,28,7.3,28,7.9V13z"/>
					<path class="st6" d="M30.9,9.8c0,0.3,0.1,0.6,0.2,0.8c0.1,0.3,0.3,0.5,0.4,0.7s0.4,0.3,0.7,0.4S32.7,12,33,12
						c0.3,0,0.5,0,0.7-0.1c0.2-0.1,0.4-0.2,0.6-0.3c0.2-0.1,0.3-0.3,0.4-0.5c0.1-0.2,0.2-0.4,0.3-0.6l1.1,0.7
						c-0.3,0.7-0.7,1.2-1.3,1.5c-0.5,0.3-1.2,0.5-2,0.5c-0.5,0-0.9-0.1-1.4-0.3c-0.4-0.2-0.8-0.4-1.1-0.7c-0.3-0.3-0.6-0.7-0.8-1.2
						c-0.2-0.5-0.3-0.9-0.3-1.5c0-0.5,0.1-1,0.3-1.5s0.4-0.8,0.8-1.2s0.7-0.6,1.1-0.7c0.4-0.2,0.9-0.3,1.4-0.3c0.5,0,1,0.1,1.4,0.3
						c0.4,0.2,0.8,0.4,1.1,0.7c0.3,0.3,0.5,0.7,0.7,1.1c0.2,0.4,0.2,0.9,0.2,1.4v0.5H30.9z M33,7c-0.3,0-0.5,0-0.7,0.1
						c-0.2,0.1-0.4,0.2-0.6,0.4s-0.3,0.3-0.5,0.5c-0.1,0.2-0.2,0.4-0.3,0.7h4.1C35,8.5,35,8.2,34.8,8c-0.1-0.2-0.3-0.4-0.5-0.5
						S34,7.2,33.7,7.1C33.5,7,33.3,7,33,7z"/>
				</g>
			</g>
		</g>
		<g id="Group-30-Copy-2" transform="translate(362.000000, 211.000000)">
			<g id="Rectangle-Copy-2_4_">
				<g>
					<path id="path-9" class="st5" d="M4,0h187c2.2,0,4,1.8,4,4v40c0,2.2-1.8,4-4,4H4c-2.2,0-4-1.8-4-4V4C0,1.8,1.8,0,4,0z"/>
				</g>
				<g>
					<path id="path-9_1_" class="st0" d="M4,0h187c2.2,0,4,1.8,4,4v40c0,2.2-1.8,4-4,4H4c-2.2,0-4-1.8-4-4V4C0,1.8,1.8,0,4,0z"/>
				</g>
			</g>
			<g id="Group-15-Copy_4_" transform="translate(76.000000, 16.000000)">
				<g class="st4">
					<path class="st6" d="M5.5,3.2H12v1.3H7v2.7h4.5v1.3H7v3.1h5V13H5.5V3.2z"/>
					<path class="st6" d="M23.3,13h-1.4V8.4c0-0.4-0.1-0.7-0.3-0.9s-0.5-0.3-0.9-0.3s-0.8,0.2-1.1,0.5c-0.3,0.3-0.4,0.8-0.4,1.6V13
						h-1.4V8.5c0-0.4-0.1-0.7-0.3-1s-0.5-0.4-0.9-0.4c-0.4,0-0.8,0.2-1.1,0.5S15,8.5,15,9.2V13h-1.4V6.1H15v1
						c0.2-0.4,0.5-0.7,0.9-0.9C16.2,6,16.6,5.9,17,5.9c0.5,0,0.9,0.1,1.2,0.3s0.6,0.5,0.7,0.9c0.2-0.4,0.6-0.7,0.9-0.9
						c0.4-0.2,0.8-0.3,1.3-0.3c0.7,0,1.2,0.2,1.6,0.6c0.4,0.4,0.6,0.9,0.6,1.5V13z"/>
					<path class="st6" d="M29.8,13c-0.1-0.1-0.2-0.2-0.2-0.4c-0.1-0.2-0.1-0.5-0.1-0.8c-0.2,0.5-0.5,0.8-0.9,1.1s-0.9,0.4-1.4,0.4
						c-0.4,0-0.7-0.1-1-0.2s-0.5-0.2-0.7-0.4c-0.2-0.2-0.4-0.4-0.5-0.7c-0.1-0.3-0.2-0.6-0.2-0.9c0-0.3,0.1-0.7,0.2-0.9
						c0.1-0.3,0.3-0.5,0.5-0.7C25.7,9.3,26,9.1,26.3,9c0.3-0.1,0.6-0.2,0.9-0.3l2.2-0.4V8.1c0-0.8-0.5-1.2-1.5-1.2
						c-0.5,0-0.9,0.1-1.1,0.3c-0.2,0.2-0.4,0.4-0.4,0.6c0,0,0,0.1,0,0.1s0,0.1,0,0.1l-1.3,0.4c-0.1-0.2-0.1-0.4-0.1-0.6
						c0-0.3,0.1-0.5,0.2-0.8c0.1-0.2,0.3-0.5,0.6-0.7c0.2-0.2,0.5-0.3,0.9-0.5c0.3-0.1,0.7-0.2,1.2-0.2c1,0,1.7,0.2,2.2,0.6
						c0.5,0.4,0.7,1,0.7,1.7v3.1c0,0.4,0,0.7,0.1,1s0.2,0.5,0.3,0.8H29.8z M27.4,12c0.3,0,0.6-0.1,0.8-0.2c0.3-0.1,0.5-0.3,0.7-0.5
						c0.2-0.2,0.3-0.5,0.4-0.7c0.1-0.3,0.1-0.6,0.1-0.9V9.5l-1.9,0.3c-0.4,0.1-0.8,0.2-1,0.4s-0.3,0.5-0.3,0.8
						c0,0.3,0.1,0.6,0.3,0.8C26.7,11.9,27,12,27.4,12z"/>
					<path class="st6" d="M32.7,3.3h1.6V5h-1.6V3.3z M32.8,6.1h1.4V13h-1.4V6.1z"/>
					<path class="st6" d="M36.2,3.2h1.4V13h-1.4V3.2z"/>
				</g>
			</g>
		</g>
		<g id="Group-30-Copy-3" transform="translate(362.000000, 276.000000)">
			<g id="Rectangle-Copy-2_5_">
				<g>
					<path id="path-11" class="st5" d="M4,0h187c2.2,0,4,1.8,4,4v40c0,2.2-1.8,4-4,4H4c-2.2,0-4-1.8-4-4V4C0,1.8,1.8,0,4,0z"/>
				</g>
				<g>
					<path id="path-11_1_" class="st0" d="M4,0h187c2.2,0,4,1.8,4,4v40c0,2.2-1.8,4-4,4H4c-2.2,0-4-1.8-4-4V4C0,1.8,1.8,0,4,0z"/>
				</g>
			</g>
			<g id="Group-15-Copy_5_" transform="translate(39.000000, 16.000000)">
				<g class="st4">
					<path class="st6" d="M39,3.2h4.3c0.5,0,1,0.1,1.4,0.2c0.4,0.1,0.8,0.3,1.1,0.6c0.3,0.3,0.5,0.6,0.7,1c0.2,0.4,0.3,0.8,0.3,1.3
						c0,0.5-0.1,0.9-0.3,1.3c-0.2,0.4-0.4,0.7-0.7,1c-0.3,0.3-0.7,0.5-1.1,0.6c-0.4,0.1-0.9,0.2-1.4,0.2h-2.8V13H39V3.2z M40.5,8.1
						h2.7c0.7,0,1.2-0.2,1.5-0.5c0.3-0.3,0.5-0.8,0.5-1.3s-0.2-1-0.5-1.3c-0.4-0.3-0.9-0.5-1.5-0.5h-2.7V8.1z"/>
					<path class="st6" d="M54.5,13h-1.4V8.7c0-0.5-0.1-0.9-0.4-1.2s-0.7-0.4-1.1-0.4c-0.3,0-0.5,0.1-0.7,0.2s-0.4,0.2-0.6,0.4
						c-0.2,0.2-0.3,0.4-0.4,0.7c-0.1,0.3-0.2,0.6-0.2,0.9V13h-1.4V3.2h1.4v4c0.3-0.4,0.6-0.7,1-1c0.4-0.2,0.9-0.4,1.4-0.4
						c0.3,0,0.7,0.1,1,0.2c0.3,0.1,0.6,0.3,0.8,0.5C54,6.7,54.2,7,54.4,7.3c0.1,0.3,0.2,0.7,0.2,1.1V13z"/>
					<path class="st6" d="M63.4,9.5c0,0.6-0.1,1.1-0.3,1.6s-0.5,0.8-0.8,1.1c-0.4,0.3-0.7,0.5-1.2,0.7s-0.9,0.2-1.4,0.2
						s-0.9-0.1-1.4-0.2s-0.8-0.4-1.2-0.7c-0.3-0.3-0.6-0.7-0.8-1.1c-0.2-0.5-0.3-1-0.3-1.6c0-0.6,0.1-1.1,0.3-1.6
						c0.2-0.5,0.5-0.8,0.8-1.1c0.3-0.3,0.7-0.5,1.2-0.7c0.4-0.2,0.9-0.2,1.4-0.2s0.9,0.1,1.4,0.2c0.4,0.2,0.8,0.4,1.2,0.7
						c0.3,0.3,0.6,0.7,0.8,1.1S63.4,8.9,63.4,9.5z M59.7,11.9c0.3,0,0.6-0.1,0.9-0.2c0.3-0.1,0.5-0.3,0.7-0.5s0.4-0.5,0.5-0.7
						c0.1-0.3,0.2-0.6,0.2-1s-0.1-0.7-0.2-1c-0.1-0.3-0.3-0.5-0.5-0.7s-0.4-0.4-0.7-0.5c-0.3-0.1-0.6-0.2-0.9-0.2s-0.6,0.1-0.9,0.2
						c-0.3,0.1-0.5,0.3-0.7,0.5s-0.4,0.5-0.5,0.7c-0.1,0.3-0.2,0.6-0.2,1s0.1,0.7,0.2,1s0.3,0.5,0.5,0.7s0.4,0.4,0.7,0.5
						S59.4,11.9,59.7,11.9z"/>
					<path class="st6" d="M71.2,13h-1.4V8.7c0-0.5-0.1-0.8-0.4-1.1s-0.6-0.4-1.1-0.4c-0.3,0-0.5,0.1-0.7,0.2
						c-0.2,0.1-0.4,0.2-0.6,0.4c-0.2,0.2-0.3,0.4-0.4,0.7c-0.1,0.3-0.1,0.6-0.1,0.9V13H65V6.1h1.4v1.2c0.2-0.4,0.6-0.7,1-1
						c0.4-0.2,0.9-0.4,1.4-0.4c0.3,0,0.7,0.1,1,0.2c0.3,0.1,0.6,0.3,0.8,0.5c0.2,0.2,0.4,0.5,0.5,0.8c0.1,0.3,0.2,0.7,0.2,1V13z"/>
					<path class="st6" d="M74,9.8c0,0.3,0.1,0.6,0.2,0.8c0.1,0.3,0.3,0.5,0.4,0.7s0.4,0.3,0.7,0.4s0.5,0.2,0.8,0.2
						c0.3,0,0.5,0,0.7-0.1c0.2-0.1,0.4-0.2,0.6-0.3s0.3-0.3,0.4-0.5c0.1-0.2,0.2-0.4,0.3-0.6l1.1,0.7c-0.3,0.7-0.7,1.2-1.3,1.5
						c-0.5,0.3-1.2,0.5-2,0.5c-0.5,0-0.9-0.1-1.4-0.3c-0.4-0.2-0.8-0.4-1.1-0.7c-0.3-0.3-0.6-0.7-0.8-1.2c-0.2-0.5-0.3-0.9-0.3-1.5
						c0-0.5,0.1-1,0.3-1.5c0.2-0.5,0.4-0.8,0.8-1.2s0.7-0.6,1.1-0.7c0.4-0.2,0.9-0.3,1.4-0.3c0.5,0,1,0.1,1.4,0.3
						c0.4,0.2,0.8,0.4,1.1,0.7c0.3,0.3,0.5,0.7,0.7,1.1s0.2,0.9,0.2,1.4v0.5H74z M76.2,7c-0.3,0-0.5,0-0.7,0.1
						c-0.2,0.1-0.4,0.2-0.6,0.4c-0.2,0.2-0.3,0.3-0.5,0.5S74.1,8.5,74,8.7h4.1c0-0.3-0.1-0.5-0.2-0.7s-0.3-0.4-0.5-0.5
						c-0.2-0.1-0.4-0.3-0.6-0.3C76.6,7,76.4,7,76.2,7z"/>
				</g>
			</g>
		</g>
		<g id="Group-30-Copy-4" transform="translate(362.000000, 341.000000)">
			<g id="Rectangle-Copy-2_6_">
				<g>
					<path id="path-13" class="st5" d="M4,0h187c2.2,0,4,1.8,4,4v40c0,2.2-1.8,4-4,4H4c-2.2,0-4-1.8-4-4V4C0,1.8,1.8,0,4,0z"/>
				</g>
				<g>
					<path id="path-13_1_" class="st0" d="M4,0h187c2.2,0,4,1.8,4,4v40c0,2.2-1.8,4-4,4H4c-2.2,0-4-1.8-4-4V4C0,1.8,1.8,0,4,0z"/>
				</g>
			</g>
			<g id="Group-15-Copy_6_" transform="translate(33.000000, 16.000000)">
				<g class="st4">
					<path class="st6" d="M22.3,10.6c-0.3,0.4-0.5,0.8-0.8,1.1c-0.3,0.3-0.6,0.6-0.9,0.8c-0.3,0.2-0.7,0.4-1.1,0.5
						c-0.4,0.1-0.9,0.2-1.4,0.2c-0.7,0-1.3-0.1-1.9-0.4s-1.1-0.6-1.5-1.1c-0.4-0.4-0.8-1-1-1.6s-0.4-1.3-0.4-2.1
						c0-0.7,0.1-1.4,0.4-2.1c0.3-0.6,0.6-1.2,1.1-1.6c0.4-0.4,1-0.8,1.6-1C16.8,3.1,17.4,3,18.1,3c0.5,0,1,0.1,1.4,0.2
						c0.4,0.1,0.8,0.3,1.2,0.5c0.4,0.2,0.7,0.5,0.9,0.8c0.3,0.3,0.5,0.6,0.7,1l-1.2,0.9c-0.4-0.7-0.8-1.2-1.3-1.5s-1.1-0.5-1.7-0.5
						c-0.5,0-0.9,0.1-1.3,0.3c-0.4,0.2-0.8,0.4-1.1,0.8c-0.3,0.3-0.5,0.7-0.7,1.2c-0.2,0.5-0.3,0.9-0.3,1.5c0,0.5,0.1,1,0.3,1.5
						s0.4,0.8,0.7,1.2s0.7,0.6,1.1,0.8c0.4,0.2,0.9,0.3,1.3,0.3c0.7,0,1.2-0.2,1.8-0.5c0.5-0.3,1-0.8,1.3-1.5L22.3,10.6z"/>
					<path class="st6" d="M23.9,3.2h3.8c1,0,1.7,0.2,2.3,0.6c0.5,0.4,0.8,1,0.8,1.7c0,0.3,0,0.5-0.1,0.7c-0.1,0.2-0.2,0.4-0.3,0.6
						c-0.1,0.2-0.3,0.3-0.5,0.5c-0.2,0.1-0.4,0.2-0.6,0.3c0.3,0.1,0.5,0.2,0.8,0.4c0.2,0.1,0.4,0.3,0.6,0.5C30.8,8.7,31,9,31.1,9.2
						c0.1,0.3,0.1,0.5,0.1,0.9c0,0.5-0.1,0.9-0.3,1.2c-0.2,0.4-0.4,0.7-0.7,0.9c-0.3,0.3-0.7,0.4-1.1,0.6c-0.4,0.1-0.9,0.2-1.3,0.2
						h-3.9V3.2z M25.4,7.1h2.2c0.6,0,1-0.1,1.3-0.3s0.5-0.5,0.5-1s-0.2-0.8-0.5-1s-0.7-0.3-1.3-0.3h-2.2V7.1z M25.4,11.7h2.2
						c0.6,0,1.1-0.1,1.5-0.4c0.4-0.3,0.6-0.7,0.6-1.2s-0.2-1-0.6-1.2c-0.4-0.3-0.9-0.4-1.5-0.4h-2.2V11.7z"/>
					<path class="st6" d="M45.6,10.6c-0.3,0.4-0.5,0.8-0.8,1.1c-0.3,0.3-0.6,0.6-0.9,0.8c-0.3,0.2-0.7,0.4-1.1,0.5
						c-0.4,0.1-0.9,0.2-1.4,0.2c-0.7,0-1.3-0.1-1.9-0.4s-1.1-0.6-1.5-1.1c-0.4-0.4-0.8-1-1-1.6s-0.4-1.3-0.4-2.1
						c0-0.7,0.1-1.4,0.4-2.1c0.3-0.6,0.6-1.2,1.1-1.6c0.4-0.4,1-0.8,1.6-1C40.1,3.1,40.7,3,41.4,3c0.5,0,1,0.1,1.4,0.2
						c0.4,0.1,0.8,0.3,1.2,0.5c0.4,0.2,0.7,0.5,0.9,0.8c0.3,0.3,0.5,0.6,0.7,1l-1.2,0.9c-0.4-0.7-0.8-1.2-1.3-1.5S42,4.4,41.4,4.4
						c-0.5,0-0.9,0.1-1.3,0.3c-0.4,0.2-0.8,0.4-1.1,0.8c-0.3,0.3-0.5,0.7-0.7,1.2C38.1,7.1,38,7.6,38,8.1c0,0.5,0.1,1,0.3,1.5
						s0.4,0.8,0.7,1.2s0.7,0.6,1.1,0.8c0.4,0.2,0.9,0.3,1.3,0.3c0.7,0,1.2-0.2,1.8-0.5c0.5-0.3,1-0.8,1.3-1.5L45.6,10.6z"/>
					<path class="st6" d="M47.3,6.1h1.4v4.2c0,0.5,0.1,1,0.4,1.2c0.3,0.3,0.6,0.4,1.1,0.4c0.3,0,0.5-0.1,0.7-0.2
						c0.2-0.1,0.4-0.2,0.6-0.4c0.2-0.2,0.3-0.4,0.4-0.7c0.1-0.3,0.1-0.5,0.1-0.8V6.1h1.4V13h-1.4v-1.1c-0.2,0.4-0.5,0.7-0.9,1
						c-0.4,0.2-0.8,0.3-1.3,0.3c-0.3,0-0.7-0.1-1-0.2c-0.3-0.1-0.6-0.3-0.8-0.5c-0.2-0.2-0.4-0.5-0.6-0.8c-0.1-0.3-0.2-0.7-0.2-1.2
						V6.1z"/>
					<path class="st6" d="M56.6,7.7c0,0.3,0.1,0.5,0.4,0.7s0.7,0.3,1.3,0.4c0.8,0.2,1.4,0.4,1.8,0.7c0.4,0.3,0.6,0.8,0.6,1.4
						c0,0.3-0.1,0.6-0.2,0.9c-0.1,0.3-0.3,0.5-0.5,0.7c-0.2,0.2-0.5,0.4-0.8,0.5s-0.7,0.2-1.1,0.2c-0.4,0-0.8-0.1-1.1-0.2
						c-0.3-0.1-0.6-0.3-0.9-0.4s-0.5-0.4-0.7-0.7c-0.2-0.3-0.3-0.5-0.4-0.8l1.2-0.7c0.2,0.5,0.4,0.8,0.7,1.1S57.5,12,58,12
						c0.4,0,0.7-0.1,0.9-0.3s0.4-0.4,0.4-0.7s-0.1-0.5-0.4-0.7c-0.3-0.2-0.7-0.3-1.2-0.4c-0.3-0.1-0.6-0.2-0.9-0.3
						c-0.3-0.1-0.5-0.3-0.7-0.4s-0.4-0.4-0.5-0.6s-0.2-0.5-0.2-0.8c0-0.3,0.1-0.6,0.2-0.8c0.1-0.2,0.3-0.4,0.5-0.6s0.5-0.3,0.8-0.4
						s0.6-0.1,0.9-0.1c0.7,0,1.3,0.1,1.8,0.4s0.8,0.7,1,1.3l-1,0.6c-0.2-0.4-0.4-0.7-0.7-0.9c-0.3-0.2-0.6-0.3-1-0.3
						C57.5,7,57.2,7,57,7.2S56.6,7.5,56.6,7.7z"/>
					<path class="st6" d="M61.5,6.1h1.1V4.2H64v1.9h1.6v1.1H64v3.7c0,0.3,0.1,0.6,0.2,0.8s0.4,0.3,0.7,0.3c0.1,0,0.2,0,0.3,0
						c0.1,0,0.2,0,0.3-0.1l0.1,1.2c-0.1,0-0.3,0.1-0.5,0.1c-0.2,0-0.4,0-0.6,0c-0.3,0-0.5,0-0.8-0.1c-0.2-0.1-0.5-0.2-0.6-0.3
						c-0.2-0.2-0.3-0.4-0.4-0.6s-0.2-0.6-0.2-1V7.2h-1.1V6.1z"/>
					<path class="st6" d="M73.8,9.5c0,0.6-0.1,1.1-0.3,1.6S73,12,72.7,12.3c-0.4,0.3-0.7,0.5-1.2,0.7s-0.9,0.2-1.4,0.2
						s-0.9-0.1-1.4-0.2s-0.8-0.4-1.2-0.7c-0.3-0.3-0.6-0.7-0.8-1.1c-0.2-0.5-0.3-1-0.3-1.6c0-0.6,0.1-1.1,0.3-1.6
						c0.2-0.5,0.5-0.8,0.8-1.1c0.3-0.3,0.7-0.5,1.2-0.7c0.4-0.2,0.9-0.2,1.4-0.2s0.9,0.1,1.4,0.2c0.4,0.2,0.8,0.4,1.2,0.7
						c0.3,0.3,0.6,0.7,0.8,1.1S73.8,8.9,73.8,9.5z M70.1,11.9c0.3,0,0.6-0.1,0.9-0.2c0.3-0.1,0.5-0.3,0.7-0.5s0.4-0.5,0.5-0.7
						c0.1-0.3,0.2-0.6,0.2-1s-0.1-0.7-0.2-1c-0.1-0.3-0.3-0.5-0.5-0.7S71.3,7.5,71,7.3c-0.3-0.1-0.6-0.2-0.9-0.2s-0.6,0.1-0.9,0.2
						c-0.3,0.1-0.5,0.3-0.7,0.5s-0.4,0.5-0.5,0.7c-0.1,0.3-0.2,0.6-0.2,1s0.1,0.7,0.2,1s0.3,0.5,0.5,0.7s0.4,0.4,0.7,0.5
						S69.8,11.9,70.1,11.9z"/>
					<path class="st6" d="M85.1,13h-1.4V8.4c0-0.4-0.1-0.7-0.3-0.9c-0.2-0.2-0.5-0.3-0.9-0.3s-0.8,0.2-1.1,0.5
						c-0.3,0.3-0.4,0.8-0.4,1.6V13h-1.4V8.5c0-0.4-0.1-0.7-0.3-1s-0.5-0.4-0.9-0.4c-0.4,0-0.8,0.2-1.1,0.5c-0.3,0.3-0.5,0.9-0.5,1.5
						V13h-1.4V6.1h1.4v1c0.2-0.4,0.5-0.7,0.9-0.9C78,6,78.4,5.9,78.8,5.9c0.5,0,0.9,0.1,1.2,0.3c0.3,0.2,0.6,0.5,0.7,0.9
						c0.2-0.4,0.6-0.7,0.9-0.9C82,6,82.5,5.9,83,5.9c0.7,0,1.2,0.2,1.6,0.6s0.6,0.9,0.6,1.5V13z"/>
					<path class="st6" d="M88,9.8c0,0.3,0.1,0.6,0.2,0.8c0.1,0.3,0.3,0.5,0.4,0.7s0.4,0.3,0.7,0.4s0.5,0.2,0.8,0.2
						c0.3,0,0.5,0,0.7-0.1c0.2-0.1,0.4-0.2,0.6-0.3s0.3-0.3,0.4-0.5c0.1-0.2,0.2-0.4,0.3-0.6l1.1,0.7c-0.3,0.7-0.7,1.2-1.3,1.5
						c-0.5,0.3-1.2,0.5-2,0.5c-0.5,0-0.9-0.1-1.4-0.3c-0.4-0.2-0.8-0.4-1.1-0.7c-0.3-0.3-0.6-0.7-0.8-1.2c-0.2-0.5-0.3-0.9-0.3-1.5
						c0-0.5,0.1-1,0.3-1.5c0.2-0.5,0.4-0.8,0.8-1.2s0.7-0.6,1.1-0.7c0.4-0.2,0.9-0.3,1.4-0.3c0.5,0,1,0.1,1.4,0.3
						c0.4,0.2,0.8,0.4,1.1,0.7c0.3,0.3,0.5,0.7,0.7,1.1s0.2,0.9,0.2,1.4v0.5H88z M90.1,7c-0.3,0-0.5,0-0.7,0.1
						c-0.2,0.1-0.4,0.2-0.6,0.4c-0.2,0.2-0.3,0.3-0.5,0.5S88,8.5,88,8.7h4.1c0-0.3-0.1-0.5-0.2-0.7s-0.3-0.4-0.5-0.5
						c-0.2-0.1-0.4-0.3-0.6-0.3C90.6,7,90.3,7,90.1,7z"/>
					<path class="st6" d="M98.7,7.3c-0.2-0.1-0.4-0.1-0.5-0.1c-0.3,0-0.5,0.1-0.7,0.2s-0.4,0.3-0.6,0.4s-0.3,0.4-0.4,0.7
						c-0.1,0.3-0.1,0.5-0.1,0.9V13H95V6.1h1.4v1.2c0.2-0.4,0.4-0.7,0.8-1s0.7-0.4,1.2-0.4c0.1,0,0.2,0,0.3,0c0.1,0,0.2,0,0.3,0
						L98.7,7.3z"/>
					<path class="st6" d="M104.2,3.2h1.5V13h-1.5V3.2z"/>
					<path class="st6" d="M107.8,3.2h2.8c0.7,0,1.4,0.1,2.1,0.3c0.6,0.2,1.2,0.5,1.6,0.9c0.5,0.4,0.8,0.9,1.1,1.5
						c0.3,0.6,0.4,1.3,0.4,2.1c0,0.8-0.1,1.5-0.4,2.1c-0.3,0.6-0.6,1.1-1.1,1.5c-0.5,0.4-1,0.7-1.6,0.9c-0.6,0.2-1.3,0.3-2.1,0.3
						h-2.8V3.2z M110.7,11.6c0.5,0,1-0.1,1.5-0.2c0.4-0.1,0.8-0.4,1.1-0.7c0.3-0.3,0.6-0.7,0.7-1.1c0.2-0.4,0.3-1,0.3-1.6
						c0-0.6-0.1-1.1-0.3-1.6c-0.2-0.4-0.4-0.8-0.7-1.1c-0.3-0.3-0.7-0.5-1.1-0.7c-0.4-0.1-0.9-0.2-1.5-0.2h-1.3v7.1H110.7z"/>
				</g>
			</g>
		</g>
		<g id="Group-30-Copy-5" transform="translate(362.000000, 406.000000)">
			<g id="Rectangle-Copy-2_7_">
				<g>
					<path id="path-15" class="st5" d="M4,0h187c2.2,0,4,1.8,4,4v40c0,2.2-1.8,4-4,4H4c-2.2,0-4-1.8-4-4V4C0,1.8,1.8,0,4,0z"/>
				</g>
				<g>
					<path id="path-15_1_" class="st0" d="M4,0h187c2.2,0,4,1.8,4,4v40c0,2.2-1.8,4-4,4H4c-2.2,0-4-1.8-4-4V4C0,1.8,1.8,0,4,0z"/>
				</g>
			</g>
			<g id="Group-15-Copy_7_" transform="translate(36.000000, 16.000000)">
				<g class="st4">
					<path class="st6" d="M11,10.6c-0.3,0.4-0.5,0.8-0.8,1.1c-0.3,0.3-0.6,0.6-0.9,0.8c-0.3,0.2-0.7,0.4-1.1,0.5
						c-0.4,0.1-0.9,0.2-1.4,0.2c-0.7,0-1.3-0.1-1.9-0.4c-0.6-0.3-1.1-0.6-1.5-1.1c-0.4-0.4-0.8-1-1-1.6C1.9,9.5,1.8,8.8,1.8,8.1
						c0-0.7,0.1-1.4,0.4-2.1c0.3-0.6,0.6-1.2,1.1-1.6c0.4-0.4,1-0.8,1.6-1S6.1,3,6.7,3c0.5,0,1,0.1,1.4,0.2C8.6,3.3,9,3.5,9.3,3.7
						c0.4,0.2,0.7,0.5,0.9,0.8c0.3,0.3,0.5,0.6,0.7,1L9.7,6.4C9.4,5.7,9,5.2,8.5,4.9S7.4,4.4,6.7,4.4c-0.5,0-0.9,0.1-1.3,0.3
						C5,4.8,4.6,5.1,4.3,5.4C4,5.8,3.8,6.2,3.6,6.6C3.4,7.1,3.4,7.6,3.4,8.1c0,0.5,0.1,1,0.3,1.5s0.4,0.8,0.7,1.2
						c0.3,0.3,0.7,0.6,1.1,0.8s0.9,0.3,1.3,0.3c0.7,0,1.3-0.2,1.8-0.5c0.5-0.3,1-0.8,1.3-1.5L11,10.6z"/>
					<path class="st6" d="M12.5,3.2h3.8c1,0,1.7,0.2,2.3,0.6c0.5,0.4,0.8,1,0.8,1.7c0,0.3,0,0.5-0.1,0.7c-0.1,0.2-0.2,0.4-0.3,0.6
						c-0.1,0.2-0.3,0.3-0.5,0.5s-0.4,0.2-0.6,0.3c0.3,0.1,0.5,0.2,0.8,0.4c0.2,0.1,0.4,0.3,0.6,0.5c0.2,0.2,0.3,0.4,0.4,0.7
						s0.1,0.5,0.1,0.9c0,0.5-0.1,0.9-0.3,1.2c-0.2,0.4-0.4,0.7-0.8,0.9c-0.3,0.3-0.7,0.4-1.1,0.6c-0.4,0.1-0.9,0.2-1.3,0.2h-3.9V3.2
						z M14,7.1h2.2c0.5,0,1-0.1,1.3-0.3c0.3-0.2,0.5-0.5,0.5-1s-0.2-0.8-0.5-1c-0.3-0.2-0.7-0.3-1.3-0.3H14V7.1z M14,11.7h2.2
						c0.6,0,1.2-0.1,1.5-0.4c0.4-0.3,0.6-0.7,0.6-1.2s-0.2-1-0.6-1.2c-0.4-0.3-0.9-0.4-1.5-0.4H14V11.7z"/>
					<path class="st6" d="M34.3,10.6c-0.3,0.4-0.5,0.8-0.8,1.1c-0.3,0.3-0.6,0.6-0.9,0.8c-0.3,0.2-0.7,0.4-1.1,0.5
						c-0.4,0.1-0.9,0.2-1.4,0.2c-0.7,0-1.3-0.1-1.9-0.4c-0.6-0.3-1.1-0.6-1.5-1.1c-0.4-0.4-0.8-1-1-1.6c-0.2-0.6-0.4-1.3-0.4-2.1
						c0-0.7,0.1-1.4,0.4-2.1s0.6-1.2,1.1-1.6c0.4-0.4,1-0.8,1.6-1C28.7,3.1,29.4,3,30,3c0.5,0,1,0.1,1.4,0.2s0.8,0.3,1.2,0.5
						c0.4,0.2,0.7,0.5,0.9,0.8c0.3,0.3,0.5,0.6,0.7,1L33,6.4c-0.4-0.7-0.8-1.2-1.3-1.5c-0.5-0.3-1.1-0.5-1.7-0.5
						c-0.5,0-0.9,0.1-1.3,0.3s-0.8,0.4-1.1,0.8c-0.3,0.3-0.5,0.7-0.7,1.2c-0.2,0.5-0.3,0.9-0.3,1.5c0,0.5,0.1,1,0.3,1.5
						s0.4,0.8,0.7,1.2s0.7,0.6,1.1,0.8c0.4,0.2,0.9,0.3,1.3,0.3c0.7,0,1.2-0.2,1.8-0.5c0.5-0.3,1-0.8,1.3-1.5L34.3,10.6z"/>
					<path class="st6" d="M36,6.1h1.4v4.2c0,0.5,0.1,1,0.4,1.2s0.6,0.4,1.1,0.4c0.3,0,0.5-0.1,0.7-0.2c0.2-0.1,0.4-0.2,0.6-0.4
						c0.2-0.2,0.3-0.4,0.4-0.7c0.1-0.3,0.1-0.5,0.1-0.8V6.1h1.4V13h-1.4v-1.1c-0.2,0.4-0.5,0.7-0.9,1c-0.4,0.2-0.8,0.3-1.3,0.3
						c-0.3,0-0.7-0.1-1-0.2c-0.3-0.1-0.6-0.3-0.8-0.5c-0.2-0.2-0.4-0.5-0.6-0.8S36,11,36,10.5V6.1z"/>
					<path class="st6" d="M45.2,7.7c0,0.3,0.1,0.5,0.4,0.7s0.7,0.3,1.3,0.4c0.8,0.2,1.4,0.4,1.8,0.7c0.4,0.3,0.6,0.8,0.6,1.4
						c0,0.3-0.1,0.6-0.2,0.9c-0.1,0.3-0.3,0.5-0.5,0.7c-0.2,0.2-0.5,0.4-0.8,0.5c-0.3,0.1-0.7,0.2-1.1,0.2c-0.4,0-0.8-0.1-1.1-0.2
						c-0.3-0.1-0.6-0.3-0.9-0.4s-0.5-0.4-0.7-0.7c-0.2-0.3-0.3-0.5-0.4-0.8l1.2-0.7c0.2,0.5,0.4,0.8,0.7,1.1
						c0.3,0.3,0.7,0.4,1.2,0.4c0.4,0,0.7-0.1,0.9-0.3c0.3-0.2,0.4-0.4,0.4-0.7s-0.1-0.5-0.4-0.7c-0.3-0.2-0.7-0.3-1.2-0.4
						c-0.3-0.1-0.6-0.2-0.9-0.3c-0.3-0.1-0.5-0.3-0.7-0.4c-0.2-0.2-0.4-0.4-0.5-0.6C44,8.4,44,8.1,44,7.8C44,7.5,44,7.2,44.2,7
						c0.1-0.2,0.3-0.4,0.5-0.6s0.5-0.3,0.8-0.4s0.6-0.1,0.9-0.1c0.7,0,1.3,0.1,1.8,0.4c0.4,0.3,0.8,0.7,1,1.3l-1,0.6
						c-0.2-0.4-0.4-0.7-0.7-0.9c-0.3-0.2-0.6-0.3-1-0.3c-0.3,0-0.6,0.1-0.9,0.2C45.4,7.3,45.2,7.5,45.2,7.7z"/>
					<path class="st6" d="M50.1,6.1h1.1V4.2h1.4v1.9h1.6v1.1h-1.6v3.7c0,0.3,0.1,0.6,0.2,0.8s0.4,0.3,0.7,0.3c0.1,0,0.2,0,0.3,0
						s0.2,0,0.3-0.1l0.1,1.2c-0.1,0-0.3,0.1-0.5,0.1c-0.2,0-0.4,0-0.6,0c-0.3,0-0.5,0-0.8-0.1s-0.5-0.2-0.6-0.3
						c-0.2-0.2-0.3-0.4-0.4-0.6s-0.2-0.6-0.2-1V7.2h-1.1V6.1z"/>
					<path class="st6" d="M62.5,9.5c0,0.6-0.1,1.1-0.3,1.6c-0.2,0.5-0.5,0.8-0.8,1.1c-0.3,0.3-0.7,0.5-1.2,0.7s-0.9,0.2-1.4,0.2
						s-0.9-0.1-1.4-0.2s-0.8-0.4-1.2-0.7c-0.3-0.3-0.6-0.7-0.8-1.1c-0.2-0.5-0.3-1-0.3-1.6c0-0.6,0.1-1.1,0.3-1.6
						c0.2-0.5,0.5-0.8,0.8-1.1c0.3-0.3,0.7-0.5,1.2-0.7c0.4-0.2,0.9-0.2,1.4-0.2s0.9,0.1,1.4,0.2c0.4,0.2,0.8,0.4,1.2,0.7
						c0.3,0.3,0.6,0.7,0.8,1.1C62.4,8.4,62.5,8.9,62.5,9.5z M58.8,11.9c0.3,0,0.6-0.1,0.9-0.2s0.5-0.3,0.7-0.5s0.4-0.5,0.5-0.7
						s0.2-0.6,0.2-1s-0.1-0.7-0.2-1c-0.1-0.3-0.3-0.5-0.5-0.7s-0.4-0.4-0.7-0.5c-0.3-0.1-0.6-0.2-0.9-0.2c-0.3,0-0.6,0.1-0.9,0.2
						c-0.3,0.1-0.5,0.3-0.7,0.5s-0.4,0.5-0.5,0.7c-0.1,0.3-0.2,0.6-0.2,1s0.1,0.7,0.2,1s0.3,0.5,0.5,0.7s0.4,0.4,0.7,0.5
						C58.2,11.8,58.5,11.9,58.8,11.9z"/>
					<path class="st6" d="M73.7,13h-1.4V8.4c0-0.4-0.1-0.7-0.3-0.9c-0.2-0.2-0.5-0.3-0.9-0.3S70.3,7.3,70,7.6
						c-0.3,0.3-0.4,0.8-0.4,1.6V13h-1.4V8.5c0-0.4-0.1-0.7-0.3-1S67.4,7.1,67,7.1c-0.4,0-0.8,0.2-1.1,0.5s-0.5,0.9-0.5,1.5V13H64
						V6.1h1.4v1c0.2-0.4,0.5-0.7,0.9-0.9c0.4-0.2,0.8-0.3,1.2-0.3c0.5,0,0.9,0.1,1.2,0.3c0.3,0.2,0.6,0.5,0.7,0.9
						c0.2-0.4,0.6-0.7,0.9-0.9c0.4-0.2,0.8-0.3,1.3-0.3c0.7,0,1.2,0.2,1.6,0.6c0.4,0.4,0.6,0.9,0.6,1.5V13z"/>
					<path class="st6" d="M76.6,9.8c0,0.3,0.1,0.6,0.2,0.8c0.1,0.3,0.3,0.5,0.4,0.7s0.4,0.3,0.7,0.4s0.5,0.2,0.8,0.2
						c0.3,0,0.5,0,0.7-0.1c0.2-0.1,0.4-0.2,0.6-0.3c0.2-0.1,0.3-0.3,0.4-0.5c0.1-0.2,0.2-0.4,0.3-0.6l1.1,0.7
						c-0.3,0.7-0.7,1.2-1.3,1.5c-0.5,0.3-1.2,0.5-2,0.5c-0.5,0-0.9-0.1-1.4-0.3c-0.4-0.2-0.8-0.4-1.1-0.7c-0.3-0.3-0.6-0.7-0.8-1.2
						c-0.2-0.5-0.3-0.9-0.3-1.5c0-0.5,0.1-1,0.3-1.5s0.4-0.8,0.8-1.2s0.7-0.6,1.1-0.7c0.4-0.2,0.9-0.3,1.4-0.3c0.5,0,1,0.1,1.4,0.3
						c0.4,0.2,0.8,0.4,1.1,0.7c0.3,0.3,0.5,0.7,0.7,1.1c0.2,0.4,0.2,0.9,0.2,1.4v0.5H76.6z M78.7,7c-0.3,0-0.5,0-0.7,0.1
						c-0.2,0.1-0.4,0.2-0.6,0.4S77,7.8,76.9,8.1c-0.1,0.2-0.2,0.4-0.3,0.7h4.1c0-0.3-0.1-0.5-0.2-0.7c-0.1-0.2-0.3-0.4-0.5-0.5
						s-0.4-0.3-0.6-0.3C79.2,7,79,7,78.7,7z"/>
					<path class="st6" d="M87.4,7.3c-0.2-0.1-0.4-0.1-0.5-0.1c-0.3,0-0.5,0.1-0.7,0.2s-0.4,0.3-0.6,0.4s-0.3,0.4-0.4,0.7
						c-0.1,0.3-0.1,0.5-0.1,0.9V13h-1.4V6.1h1.4v1.2c0.2-0.4,0.4-0.7,0.8-1s0.7-0.4,1.2-0.4c0.1,0,0.2,0,0.3,0s0.2,0,0.3,0L87.4,7.3
						z"/>
					<path class="st6" d="M92.8,3.2h1.6l3.3,8.3l3.3-8.3h1.6V13h-1.5V6.2c0,0.1-0.1,0.2-0.1,0.3C101.1,6.7,101,6.8,101,7
						c-0.1,0.2-0.1,0.4-0.2,0.6L98.5,13H97l-2.2-5.4c-0.1-0.2-0.2-0.4-0.2-0.6c-0.1-0.2-0.1-0.3-0.2-0.5s-0.1-0.3-0.1-0.3V13h-1.5
						V3.2z"/>
					<path class="st6" d="M108.3,8.9h-1.9V13h-1.5V3.2h4c0.5,0,1,0.1,1.4,0.2c0.4,0.1,0.8,0.3,1,0.6c0.3,0.2,0.5,0.5,0.7,0.9
						c0.2,0.3,0.2,0.7,0.2,1.1c0,0.7-0.2,1.3-0.6,1.8c-0.4,0.5-1,0.8-1.7,1l2.4,4.3h-1.8L108.3,8.9z M106.3,7.6h2.4
						c1.3,0,1.9-0.5,1.9-1.5c0-1-0.6-1.5-1.9-1.5h-2.4V7.6z"/>
					<path class="st6" d="M117.3,8.9h-1.9V13h-1.5V3.2h4c0.5,0,1,0.1,1.4,0.2c0.4,0.1,0.8,0.3,1,0.6c0.3,0.2,0.5,0.5,0.7,0.9
						c0.2,0.3,0.2,0.7,0.2,1.1c0,0.7-0.2,1.3-0.6,1.8c-0.4,0.5-1,0.8-1.7,1l2.4,4.3h-1.8L117.3,8.9z M115.4,7.6h2.4
						c1.3,0,1.9-0.5,1.9-1.5c0-1-0.6-1.5-1.9-1.5h-2.4V7.6z"/>
				</g>
			</g>
		</g>
		<g id="Group-45-Copy-3" transform="translate(0.000000, 685.000000)">
			<g id="Rectangle">
				<g>
					<path id="path-17" class="st5" d="M4,0h231c2.2,0,4,1.8,4,4v40c0,2.2-1.8,4-4,4H4c-2.2,0-4-1.8-4-4V4C0,1.8,1.8,0,4,0z"/>
				</g>
				<g>
					<path id="path-17_1_" class="st0" d="M4,0h231c2.2,0,4,1.8,4,4v40c0,2.2-1.8,4-4,4H4c-2.2,0-4-1.8-4-4V4C0,1.8,1.8,0,4,0z"/>
				</g>
			</g>
		</g>
		<g id="Group-45-Copy-4" transform="translate(293.000000, 685.000000)">
			<g id="Rectangle_1_">
				<g>
					<path id="path-19" class="st5" d="M4,0h233c2.2,0,4,1.8,4,4v40c0,2.2-1.8,4-4,4H4c-2.2,0-4-1.8-4-4V4C0,1.8,1.8,0,4,0z"/>
				</g>
				<g>
					<path id="path-19_1_" class="st0" d="M4,0h233c2.2,0,4,1.8,4,4v40c0,2.2-1.8,4-4,4H4c-2.2,0-4-1.8-4-4V4C0,1.8,1.8,0,4,0z"/>
				</g>
			</g>
		</g>
		<g id="Group-16-Copy-4" transform="translate(79.000000, 701.000000)">
			<g id="Group-15-Copy-6">
				<g class="st4">
					<path class="st6" d="M2.6,5.6c0,0.4,0.2,0.8,0.6,1.1s1.1,0.5,1.9,0.7c1.1,0.2,1.9,0.5,2.4,1C8,8.8,8.3,9.4,8.3,10.2
						c0,0.4-0.1,0.8-0.3,1.1S7.6,12,7.3,12.3C7,12.6,6.6,12.8,6.2,13s-0.9,0.2-1.5,0.2c-0.6,0-1.1-0.1-1.6-0.2s-0.9-0.4-1.2-0.7
						c-0.3-0.3-0.6-0.6-0.8-1c-0.2-0.4-0.4-0.8-0.4-1.2L2,9.4c0.1,0.8,0.4,1.4,0.9,1.8c0.4,0.4,1,0.6,1.8,0.6c0.3,0,0.6,0,0.9-0.1
						s0.5-0.2,0.7-0.3c0.2-0.1,0.3-0.3,0.4-0.5c0.1-0.2,0.1-0.4,0.1-0.6c0-0.5-0.2-0.9-0.6-1.2c-0.4-0.3-1-0.5-1.9-0.6
						C3.8,8.4,3.4,8.3,3,8.1C2.6,8,2.3,7.8,2,7.6C1.8,7.3,1.5,7,1.4,6.7C1.2,6.4,1.1,6,1.1,5.6c0-0.4,0.1-0.7,0.2-1.1
						C1.5,4.2,1.8,4,2.1,3.7s0.7-0.4,1.1-0.5C3.5,3.1,4,3,4.5,3c0.9,0,1.6,0.2,2.3,0.6s1.1,1,1.4,1.8L6.9,6.1C6.7,5.6,6.4,5.1,6,4.8
						C5.6,4.5,5.1,4.3,4.5,4.3c-0.3,0-0.5,0-0.7,0.1C3.5,4.5,3.3,4.5,3.1,4.6C3,4.7,2.8,4.9,2.7,5S2.6,5.4,2.6,5.6z"/>
					<path class="st6" d="M10.1,6.1h1.4v4.2c0,0.5,0.1,1,0.4,1.2s0.6,0.4,1.1,0.4c0.3,0,0.5-0.1,0.7-0.2c0.2-0.1,0.4-0.2,0.6-0.4
						c0.2-0.2,0.3-0.4,0.4-0.7c0.1-0.3,0.1-0.5,0.1-0.8V6.1h1.4V13h-1.4v-1.1c-0.2,0.4-0.5,0.7-0.9,1c-0.4,0.2-0.8,0.3-1.3,0.3
						c-0.3,0-0.7-0.1-1-0.2c-0.3-0.1-0.6-0.3-0.8-0.5c-0.2-0.2-0.4-0.5-0.6-0.8c-0.1-0.3-0.2-0.7-0.2-1.2V6.1z"/>
					<path class="st6" d="M18.3,3.2h1.4v3.9c0.3-0.4,0.6-0.7,1-0.9c0.4-0.2,0.9-0.3,1.4-0.3c0.5,0,0.9,0.1,1.3,0.3
						c0.4,0.2,0.7,0.4,1,0.7c0.3,0.3,0.5,0.7,0.7,1.2c0.2,0.4,0.3,1,0.3,1.5c0,0.6-0.1,1.1-0.3,1.5s-0.4,0.8-0.7,1.2
						c-0.3,0.3-0.7,0.6-1.1,0.7c-0.4,0.2-0.8,0.3-1.3,0.3c-0.6,0-1-0.1-1.4-0.4c-0.4-0.2-0.7-0.5-0.9-0.9v1h-1.4V3.2z M21.8,11.9
						c0.3,0,0.6-0.1,0.8-0.2c0.3-0.1,0.5-0.3,0.7-0.5c0.2-0.2,0.3-0.5,0.5-0.7c0.1-0.3,0.2-0.6,0.2-1c0-0.3-0.1-0.7-0.2-1
						c-0.1-0.3-0.3-0.5-0.5-0.7c-0.2-0.2-0.4-0.4-0.7-0.5c-0.3-0.1-0.5-0.2-0.8-0.2s-0.6,0.1-0.8,0.2c-0.3,0.1-0.5,0.3-0.7,0.5
						C20,8,19.9,8.3,19.8,8.6s-0.2,0.6-0.2,1c0,0.4,0.1,0.7,0.2,1c0.1,0.3,0.3,0.5,0.5,0.7c0.2,0.2,0.4,0.4,0.7,0.5
						S21.5,11.9,21.8,11.9z"/>
					<path class="st6" d="M28,7.7c0,0.3,0.1,0.5,0.4,0.7c0.3,0.2,0.7,0.3,1.3,0.4c0.8,0.2,1.4,0.4,1.8,0.7c0.4,0.3,0.6,0.8,0.6,1.4
						c0,0.3-0.1,0.6-0.2,0.9c-0.1,0.3-0.3,0.5-0.5,0.7c-0.2,0.2-0.5,0.4-0.8,0.5c-0.3,0.1-0.7,0.2-1.1,0.2c-0.4,0-0.8-0.1-1.1-0.2
						c-0.3-0.1-0.6-0.3-0.9-0.4s-0.5-0.4-0.7-0.7s-0.3-0.5-0.4-0.8l1.2-0.7c0.2,0.5,0.4,0.8,0.7,1.1S29,12,29.4,12
						c0.4,0,0.7-0.1,0.9-0.3s0.4-0.4,0.4-0.7s-0.1-0.5-0.4-0.7c-0.3-0.2-0.7-0.3-1.2-0.4c-0.3-0.1-0.6-0.2-0.9-0.3
						c-0.3-0.1-0.5-0.3-0.7-0.4c-0.2-0.2-0.4-0.4-0.5-0.6c-0.1-0.2-0.2-0.5-0.2-0.8c0-0.3,0.1-0.6,0.2-0.8c0.1-0.2,0.3-0.4,0.5-0.6
						S28,6.1,28.3,6s0.6-0.1,0.9-0.1C30,5.9,30.5,6,31,6.3c0.4,0.3,0.8,0.7,1,1.3l-1,0.6c-0.2-0.4-0.4-0.7-0.7-0.9
						C30,7.1,29.6,7,29.2,7c-0.3,0-0.6,0.1-0.9,0.2C28.1,7.3,28,7.5,28,7.7z"/>
					<path class="st6" d="M39.9,11.2c-0.3,0.7-0.8,1.2-1.3,1.5c-0.5,0.3-1.2,0.5-1.9,0.5c-0.5,0-1-0.1-1.4-0.3
						c-0.4-0.2-0.8-0.4-1.1-0.7c-0.3-0.3-0.6-0.7-0.8-1.2c-0.2-0.5-0.3-0.9-0.3-1.5c0-0.5,0.1-1,0.3-1.5s0.5-0.8,0.8-1.2
						c0.3-0.3,0.7-0.6,1.1-0.7c0.4-0.2,0.9-0.3,1.4-0.3c0.8,0,1.4,0.2,2,0.5c0.5,0.3,0.9,0.8,1.2,1.4l-1.1,0.8
						c-0.3-0.5-0.5-0.9-0.9-1s-0.7-0.3-1.1-0.3c-0.3,0-0.6,0.1-0.8,0.2s-0.5,0.3-0.7,0.5C35,8,34.9,8.2,34.8,8.5
						c-0.1,0.3-0.2,0.6-0.2,1c0,0.4,0.1,0.7,0.2,1c0.1,0.3,0.3,0.5,0.5,0.7c0.2,0.2,0.4,0.4,0.7,0.5c0.3,0.1,0.5,0.2,0.9,0.2
						c0.5,0,0.9-0.1,1.3-0.4c0.3-0.2,0.6-0.6,0.8-1L39.9,11.2z"/>
					<path class="st6" d="M44.9,7.3c-0.2-0.1-0.4-0.1-0.5-0.1c-0.3,0-0.5,0.1-0.7,0.2s-0.4,0.3-0.6,0.4C43,8,42.8,8.2,42.8,8.5
						c-0.1,0.3-0.1,0.5-0.1,0.9V13h-1.4V6.1h1.4v1.2c0.2-0.4,0.4-0.7,0.8-1s0.7-0.4,1.2-0.4c0.1,0,0.2,0,0.3,0c0.1,0,0.2,0,0.3,0
						L44.9,7.3z"/>
					<path class="st6" d="M46.2,3.3h1.6V5h-1.6V3.3z M46.3,6.1h1.4V13h-1.4V6.1z"/>
					<path class="st6" d="M49.7,6.1h1.4v1.1c0.2-0.3,0.5-0.6,1-0.9c0.4-0.2,0.9-0.4,1.5-0.4c0.4,0,0.8,0.1,1.2,0.3s0.7,0.4,1,0.7
						c0.3,0.3,0.5,0.7,0.7,1.2s0.3,1,0.3,1.5c0,0.6-0.1,1.1-0.3,1.5c-0.2,0.5-0.4,0.8-0.7,1.2s-0.7,0.6-1.1,0.7
						c-0.4,0.2-0.8,0.3-1.3,0.3c-0.5,0-1-0.1-1.4-0.3c-0.4-0.2-0.7-0.5-1-0.8v3.8h-1.4V6.1z M53.2,7.2c-0.3,0-0.6,0.1-0.8,0.2
						c-0.3,0.1-0.5,0.3-0.7,0.5c-0.2,0.2-0.4,0.5-0.5,0.7S51,9.2,51,9.5c0,0.4,0.1,0.7,0.2,1c0.1,0.3,0.3,0.5,0.5,0.7
						c0.2,0.2,0.4,0.4,0.7,0.5s0.5,0.2,0.8,0.2s0.6-0.1,0.8-0.2c0.3-0.1,0.5-0.3,0.7-0.5c0.2-0.2,0.3-0.5,0.5-0.7
						c0.1-0.3,0.2-0.6,0.2-1c0-0.3-0.1-0.7-0.2-1c-0.1-0.3-0.3-0.5-0.5-0.7c-0.2-0.2-0.4-0.4-0.7-0.5C53.8,7.2,53.5,7.2,53.2,7.2z"
						/>
					<path class="st6" d="M57.5,6.1h1.1V4.2H60v1.9h1.6v1.1H60v3.7c0,0.3,0.1,0.6,0.2,0.8s0.4,0.3,0.7,0.3c0.1,0,0.2,0,0.3,0
						c0.1,0,0.2,0,0.3-0.1l0.1,1.2c-0.1,0-0.3,0.1-0.5,0.1c-0.2,0-0.4,0-0.6,0c-0.3,0-0.5,0-0.8-0.1s-0.5-0.2-0.6-0.3
						c-0.2-0.2-0.3-0.4-0.4-0.6c-0.1-0.3-0.2-0.6-0.2-1V7.2h-1.1V6.1z"/>
					<path class="st6" d="M62.9,3.3h1.6V5h-1.6V3.3z M63,6.1h1.4V13H63V6.1z"/>
					<path class="st6" d="M73.3,9.5c0,0.6-0.1,1.1-0.3,1.6c-0.2,0.5-0.5,0.8-0.8,1.1c-0.4,0.3-0.7,0.5-1.2,0.7s-0.9,0.2-1.4,0.2
						c-0.5,0-0.9-0.1-1.4-0.2s-0.8-0.4-1.2-0.7c-0.3-0.3-0.6-0.7-0.8-1.1c-0.2-0.5-0.3-1-0.3-1.6c0-0.6,0.1-1.1,0.3-1.6
						c0.2-0.5,0.5-0.8,0.8-1.1c0.4-0.3,0.7-0.5,1.2-0.7c0.4-0.2,0.9-0.2,1.4-0.2c0.5,0,0.9,0.1,1.4,0.2c0.4,0.2,0.8,0.4,1.2,0.7
						c0.4,0.3,0.6,0.7,0.8,1.1C73.2,8.4,73.3,8.9,73.3,9.5z M69.6,11.9c0.3,0,0.6-0.1,0.9-0.2c0.3-0.1,0.5-0.3,0.7-0.5
						s0.4-0.5,0.5-0.7c0.1-0.3,0.2-0.6,0.2-1s-0.1-0.7-0.2-1c-0.1-0.3-0.3-0.5-0.5-0.7s-0.4-0.4-0.7-0.5c-0.3-0.1-0.6-0.2-0.9-0.2
						c-0.3,0-0.6,0.1-0.9,0.2c-0.3,0.1-0.5,0.3-0.7,0.5c-0.2,0.2-0.4,0.5-0.5,0.7c-0.1,0.3-0.2,0.6-0.2,1s0.1,0.7,0.2,1
						c0.1,0.3,0.3,0.5,0.5,0.7c0.2,0.2,0.4,0.4,0.7,0.5C69,11.8,69.3,11.9,69.6,11.9z"/>
					<path class="st6" d="M81.1,13h-1.4V8.7c0-0.5-0.1-0.8-0.4-1.1c-0.3-0.3-0.6-0.4-1.1-0.4c-0.3,0-0.5,0.1-0.7,0.2
						S77,7.6,76.8,7.8c-0.2,0.2-0.3,0.4-0.4,0.7c-0.1,0.3-0.1,0.6-0.1,0.9V13h-1.4V6.1h1.4v1.2c0.2-0.4,0.6-0.7,1-1
						c0.4-0.2,0.9-0.4,1.4-0.4c0.3,0,0.7,0.1,1,0.2c0.3,0.1,0.6,0.3,0.8,0.5c0.2,0.2,0.4,0.5,0.5,0.8c0.1,0.3,0.2,0.7,0.2,1V13z"/>
				</g>
			</g>
		</g>
		<g id="Group-16-Copy-5" transform="translate(335.000000, 701.000000)">
			<g id="Group-15-Copy-2">
				<g class="st4">
					<path class="st6" d="M56.3,3.7h2.8c0.7,0,1.4,0.1,2.1,0.3c0.6,0.2,1.2,0.5,1.6,0.9c0.5,0.4,0.8,0.9,1.1,1.5
						c0.3,0.6,0.4,1.3,0.4,2.1c0,0.8-0.1,1.5-0.4,2.1c-0.3,0.6-0.6,1.1-1.1,1.5c-0.5,0.4-1,0.7-1.6,0.9c-0.6,0.2-1.3,0.3-2.1,0.3
						h-2.8V3.7z M59.2,12.1c0.5,0,1-0.1,1.5-0.2c0.4-0.1,0.8-0.4,1.1-0.7c0.3-0.3,0.6-0.7,0.7-1.1c0.2-0.4,0.3-1,0.3-1.6
						c0-0.6-0.1-1.1-0.3-1.6c-0.2-0.4-0.4-0.8-0.7-1.1c-0.3-0.3-0.7-0.5-1.1-0.7c-0.4-0.1-0.9-0.2-1.5-0.2h-1.3v7.1H59.2z"/>
					<path class="st6" d="M67,10.3c0,0.3,0.1,0.6,0.2,0.8c0.1,0.3,0.3,0.5,0.4,0.7s0.4,0.3,0.7,0.4s0.5,0.2,0.8,0.2
						c0.3,0,0.5,0,0.7-0.1c0.2-0.1,0.4-0.2,0.6-0.3s0.3-0.3,0.4-0.5c0.1-0.2,0.2-0.4,0.3-0.6l1.1,0.7c-0.3,0.7-0.7,1.2-1.3,1.5
						c-0.5,0.3-1.2,0.5-2,0.5c-0.5,0-0.9-0.1-1.4-0.3c-0.4-0.2-0.8-0.4-1.1-0.7c-0.3-0.3-0.6-0.7-0.8-1.2c-0.2-0.5-0.3-0.9-0.3-1.5
						c0-0.5,0.1-1,0.3-1.5c0.2-0.5,0.4-0.8,0.8-1.2s0.7-0.6,1.1-0.7c0.4-0.2,0.9-0.3,1.4-0.3c0.5,0,1,0.1,1.4,0.3
						c0.4,0.2,0.8,0.4,1.1,0.7c0.3,0.3,0.5,0.7,0.7,1.1s0.2,0.9,0.2,1.4v0.5H67z M69.1,7.5c-0.3,0-0.5,0-0.7,0.1
						C68.2,7.7,68,7.9,67.8,8c-0.2,0.2-0.3,0.3-0.5,0.5S67.1,9,67,9.2h4.1c0-0.3-0.1-0.5-0.2-0.7s-0.3-0.4-0.5-0.5
						c-0.2-0.1-0.4-0.3-0.6-0.3C69.6,7.5,69.4,7.5,69.1,7.5z"/>
					<path class="st6" d="M78.8,13.5c-0.1-0.1-0.2-0.2-0.2-0.4c-0.1-0.2-0.1-0.5-0.1-0.8c-0.2,0.5-0.5,0.8-0.9,1.1s-0.9,0.4-1.4,0.4
						c-0.4,0-0.7-0.1-1-0.2s-0.5-0.2-0.7-0.4c-0.2-0.2-0.4-0.4-0.5-0.7c-0.1-0.3-0.2-0.6-0.2-0.9c0-0.3,0.1-0.7,0.2-0.9
						c0.1-0.3,0.3-0.5,0.5-0.7c0.2-0.2,0.5-0.3,0.8-0.4c0.3-0.1,0.6-0.2,0.9-0.3l2.2-0.4V8.6c0-0.8-0.5-1.2-1.5-1.2
						c-0.5,0-0.9,0.1-1.1,0.3c-0.2,0.2-0.4,0.4-0.4,0.6c0,0,0,0.1,0,0.1s0,0.1,0,0.1L74.2,9c-0.1-0.2-0.1-0.4-0.1-0.6
						c0-0.3,0.1-0.5,0.2-0.8c0.1-0.2,0.3-0.5,0.6-0.7c0.2-0.2,0.5-0.3,0.9-0.5c0.3-0.1,0.7-0.2,1.2-0.2c1,0,1.7,0.2,2.2,0.6
						c0.5,0.4,0.7,1,0.7,1.7v3.1c0,0.4,0,0.7,0.1,1s0.2,0.5,0.3,0.8H78.8z M76.3,12.5c0.3,0,0.6-0.1,0.8-0.2
						c0.3-0.1,0.5-0.3,0.7-0.5c0.2-0.2,0.3-0.5,0.4-0.7c0.1-0.3,0.1-0.6,0.1-0.9V10l-1.9,0.3c-0.4,0.1-0.8,0.2-1,0.4
						s-0.3,0.5-0.3,0.8c0,0.3,0.1,0.6,0.3,0.8C75.7,12.4,76,12.5,76.3,12.5z"/>
					<path class="st6" d="M81.6,3.7H83v9.8h-1.4V3.7z"/>
					<path class="st6" d="M86.2,8.2c0,0.3,0.1,0.5,0.4,0.7c0.3,0.2,0.7,0.3,1.3,0.4c0.8,0.2,1.4,0.4,1.8,0.7
						c0.4,0.3,0.6,0.8,0.6,1.4c0,0.3-0.1,0.6-0.2,0.9s-0.3,0.5-0.5,0.7c-0.2,0.2-0.5,0.4-0.8,0.5c-0.3,0.1-0.7,0.2-1.1,0.2
						c-0.4,0-0.8-0.1-1.1-0.2c-0.3-0.1-0.6-0.3-0.9-0.4s-0.5-0.4-0.7-0.7c-0.2-0.3-0.3-0.5-0.4-0.8l1.2-0.7c0.2,0.5,0.4,0.8,0.7,1.1
						s0.7,0.4,1.2,0.4c0.4,0,0.7-0.1,0.9-0.3s0.4-0.4,0.4-0.7s-0.1-0.5-0.4-0.7c-0.3-0.2-0.7-0.3-1.2-0.4c-0.3-0.1-0.6-0.2-0.9-0.3
						C86,10,85.8,9.9,85.6,9.7c-0.2-0.2-0.4-0.4-0.5-0.6c-0.1-0.2-0.2-0.5-0.2-0.8c0-0.3,0.1-0.6,0.2-0.8c0.1-0.2,0.3-0.4,0.5-0.6
						s0.5-0.3,0.8-0.4s0.6-0.1,0.9-0.1c0.7,0,1.3,0.1,1.8,0.4c0.4,0.3,0.8,0.7,1,1.3l-1,0.6c-0.2-0.4-0.4-0.7-0.7-0.9
						c-0.3-0.2-0.6-0.3-1-0.3c-0.3,0-0.6,0.1-0.9,0.2C86.3,7.8,86.2,8,86.2,8.2z"/>
				</g>
			</g>
		</g>
		<g id="Group-45" transform="translate(0.000000, 49.000000)">
			<g id="Rectangle_2_">
				<g>
					<path id="path-21" class="st5" d="M4,0h231c2.2,0,4,1.8,4,4v40c0,2.2-1.8,4-4,4H4c-2.2,0-4-1.8-4-4V4C0,1.8,1.8,0,4,0z"/>
				</g>
				<g>
					<path id="path-21_1_" class="st0" d="M4,0h231c2.2,0,4,1.8,4,4v40c0,2.2-1.8,4-4,4H4c-2.2,0-4-1.8-4-4V4C0,1.8,1.8,0,4,0z"/>
				</g>
			</g>
			<g id="Group-15" transform="translate(87.000000, 16.000000)">
				<g class="st4">
					<path class="st6" d="M9.9,10.6c-0.3,0.4-0.5,0.8-0.8,1.1c-0.3,0.3-0.6,0.6-0.9,0.8C7.8,12.8,7.4,12.9,7,13
						c-0.4,0.1-0.9,0.2-1.4,0.2c-0.7,0-1.3-0.1-1.9-0.4s-1.1-0.6-1.5-1.1c-0.4-0.4-0.8-1-1-1.6C0.8,9.5,0.7,8.8,0.7,8.1
						c0-0.7,0.1-1.4,0.4-2.1c0.3-0.6,0.6-1.2,1.1-1.6c0.4-0.4,1-0.8,1.6-1C4.3,3.1,5,3,5.6,3c0.5,0,1,0.1,1.4,0.2
						c0.4,0.1,0.8,0.3,1.2,0.5c0.4,0.2,0.7,0.5,0.9,0.8c0.3,0.3,0.5,0.6,0.7,1L8.6,6.4C8.3,5.7,7.8,5.2,7.4,4.9
						C6.9,4.5,6.3,4.4,5.6,4.4c-0.5,0-0.9,0.1-1.3,0.3C3.9,4.8,3.5,5.1,3.2,5.4C2.9,5.8,2.7,6.2,2.5,6.6C2.3,7.1,2.3,7.6,2.3,8.1
						c0,0.5,0.1,1,0.3,1.5s0.4,0.8,0.7,1.2c0.3,0.3,0.7,0.6,1.1,0.8c0.4,0.2,0.9,0.3,1.3,0.3c0.7,0,1.3-0.2,1.8-0.5
						c0.5-0.3,1-0.8,1.3-1.5L9.9,10.6z"/>
					<path class="st6" d="M11.6,6.1H13v4.2c0,0.5,0.1,1,0.4,1.2s0.6,0.4,1.1,0.4c0.3,0,0.5-0.1,0.7-0.2c0.2-0.1,0.4-0.2,0.6-0.4
						c0.2-0.2,0.3-0.4,0.4-0.7c0.1-0.3,0.1-0.5,0.1-0.8V6.1h1.4V13h-1.4v-1.1c-0.2,0.4-0.5,0.7-0.9,1c-0.4,0.2-0.8,0.3-1.3,0.3
						c-0.3,0-0.7-0.1-1-0.2c-0.3-0.1-0.6-0.3-0.8-0.5c-0.2-0.2-0.4-0.5-0.6-0.8c-0.1-0.3-0.2-0.7-0.2-1.2V6.1z"/>
					<path class="st6" d="M20.8,7.7c0,0.3,0.1,0.5,0.4,0.7c0.3,0.2,0.7,0.3,1.3,0.4C23.4,9,24,9.2,24.3,9.6c0.4,0.3,0.6,0.8,0.6,1.4
						c0,0.3-0.1,0.6-0.2,0.9c-0.1,0.3-0.3,0.5-0.5,0.7c-0.2,0.2-0.5,0.4-0.8,0.5c-0.3,0.1-0.7,0.2-1.1,0.2c-0.4,0-0.8-0.1-1.1-0.2
						c-0.3-0.1-0.6-0.3-0.9-0.4s-0.5-0.4-0.7-0.7s-0.3-0.5-0.4-0.8l1.2-0.7c0.2,0.5,0.4,0.8,0.7,1.1s0.7,0.4,1.2,0.4
						c0.4,0,0.7-0.1,0.9-0.3s0.4-0.4,0.4-0.7s-0.1-0.5-0.4-0.7c-0.3-0.2-0.7-0.3-1.2-0.4c-0.3-0.1-0.6-0.2-0.9-0.3
						c-0.3-0.1-0.5-0.3-0.7-0.4c-0.2-0.2-0.4-0.4-0.5-0.6c-0.1-0.2-0.2-0.5-0.2-0.8c0-0.3,0.1-0.6,0.2-0.8c0.1-0.2,0.3-0.4,0.5-0.6
						s0.5-0.3,0.8-0.4s0.6-0.1,0.9-0.1c0.7,0,1.3,0.1,1.8,0.4c0.4,0.3,0.8,0.7,1,1.3l-1,0.6c-0.2-0.4-0.4-0.7-0.7-0.9
						c-0.3-0.2-0.6-0.3-1-0.3c-0.3,0-0.6,0.1-0.9,0.2C21,7.3,20.8,7.5,20.8,7.7z"/>
					<path class="st6" d="M25.7,6.1h1.1V4.2h1.4v1.9h1.6v1.1h-1.6v3.7c0,0.3,0.1,0.6,0.2,0.8s0.4,0.3,0.7,0.3c0.1,0,0.2,0,0.3,0
						c0.1,0,0.2,0,0.3-0.1l0.1,1.2c-0.1,0-0.3,0.1-0.5,0.1c-0.2,0-0.4,0-0.6,0c-0.3,0-0.5,0-0.8-0.1s-0.5-0.2-0.6-0.3
						c-0.2-0.2-0.3-0.4-0.4-0.6c-0.1-0.3-0.2-0.6-0.2-1V7.2h-1.1V6.1z"/>
					<path class="st6" d="M38.1,9.5c0,0.6-0.1,1.1-0.3,1.6c-0.2,0.5-0.5,0.8-0.8,1.1c-0.4,0.3-0.7,0.5-1.2,0.7s-0.9,0.2-1.4,0.2
						c-0.5,0-0.9-0.1-1.4-0.2s-0.8-0.4-1.2-0.7c-0.3-0.3-0.6-0.7-0.8-1.1c-0.2-0.5-0.3-1-0.3-1.6c0-0.6,0.1-1.1,0.3-1.6
						c0.2-0.5,0.5-0.8,0.8-1.1c0.4-0.3,0.7-0.5,1.2-0.7c0.4-0.2,0.9-0.2,1.4-0.2c0.5,0,0.9,0.1,1.4,0.2c0.4,0.2,0.8,0.4,1.2,0.7
						c0.4,0.3,0.6,0.7,0.8,1.1C38,8.4,38.1,8.9,38.1,9.5z M34.4,11.9c0.3,0,0.6-0.1,0.9-0.2c0.3-0.1,0.5-0.3,0.7-0.5
						s0.4-0.5,0.5-0.7c0.1-0.3,0.2-0.6,0.2-1s-0.1-0.7-0.2-1C36.3,8.3,36.2,8,36,7.8s-0.4-0.4-0.7-0.5c-0.3-0.1-0.6-0.2-0.9-0.2
						c-0.3,0-0.6,0.1-0.9,0.2c-0.3,0.1-0.5,0.3-0.7,0.5c-0.2,0.2-0.4,0.5-0.5,0.7c-0.1,0.3-0.2,0.6-0.2,1s0.1,0.7,0.2,1
						c0.1,0.3,0.3,0.5,0.5,0.7c0.2,0.2,0.4,0.4,0.7,0.5C33.8,11.8,34.1,11.9,34.4,11.9z"/>
					<path class="st6" d="M49.3,13h-1.4V8.4c0-0.4-0.1-0.7-0.3-0.9c-0.2-0.2-0.5-0.3-0.9-0.3s-0.8,0.2-1.1,0.5
						c-0.3,0.3-0.4,0.8-0.4,1.6V13h-1.4V8.5c0-0.4-0.1-0.7-0.3-1S43,7.1,42.6,7.1c-0.4,0-0.8,0.2-1.1,0.5C41.2,8,41,8.5,41,9.2V13
						h-1.4V6.1H41v1c0.2-0.4,0.5-0.7,0.9-0.9c0.4-0.2,0.8-0.3,1.2-0.3c0.5,0,0.9,0.1,1.2,0.3c0.3,0.2,0.6,0.5,0.7,0.9
						c0.2-0.4,0.6-0.7,0.9-0.9c0.4-0.2,0.8-0.3,1.3-0.3c0.7,0,1.2,0.2,1.6,0.6c0.4,0.4,0.6,0.9,0.6,1.5V13z"/>
					<path class="st6" d="M52.2,9.8c0,0.3,0.1,0.6,0.2,0.8c0.1,0.3,0.3,0.5,0.4,0.7s0.4,0.3,0.7,0.4S54,12,54.3,12
						c0.3,0,0.5,0,0.7-0.1c0.2-0.1,0.4-0.2,0.6-0.3c0.2-0.1,0.3-0.3,0.4-0.5c0.1-0.2,0.2-0.4,0.3-0.6l1.1,0.7
						c-0.3,0.7-0.7,1.2-1.3,1.5c-0.5,0.3-1.2,0.5-2,0.5c-0.5,0-0.9-0.1-1.4-0.3c-0.4-0.2-0.8-0.4-1.1-0.7c-0.3-0.3-0.6-0.7-0.8-1.2
						c-0.2-0.5-0.3-0.9-0.3-1.5c0-0.5,0.1-1,0.3-1.5c0.2-0.5,0.4-0.8,0.8-1.2c0.3-0.3,0.7-0.6,1.1-0.7c0.4-0.2,0.9-0.3,1.4-0.3
						c0.5,0,1,0.1,1.4,0.3s0.8,0.4,1.1,0.7c0.3,0.3,0.5,0.7,0.7,1.1c0.2,0.4,0.2,0.9,0.2,1.4v0.5H52.2z M54.3,7
						c-0.3,0-0.5,0-0.7,0.1c-0.2,0.1-0.4,0.2-0.6,0.4c-0.2,0.2-0.3,0.3-0.5,0.5c-0.1,0.2-0.2,0.4-0.3,0.7h4.1c0-0.3-0.1-0.5-0.2-0.7
						s-0.3-0.4-0.5-0.5c-0.2-0.1-0.4-0.3-0.6-0.3C54.8,7,54.6,7,54.3,7z"/>
					<path class="st6" d="M63,7.3c-0.2-0.1-0.4-0.1-0.5-0.1c-0.3,0-0.5,0.1-0.7,0.2s-0.4,0.3-0.6,0.4C61,8,60.9,8.2,60.8,8.5
						c-0.1,0.3-0.1,0.5-0.1,0.9V13h-1.4V6.1h1.4v1.2c0.2-0.4,0.4-0.7,0.8-1s0.7-0.4,1.2-0.4c0.1,0,0.2,0,0.3,0c0.1,0,0.2,0,0.3,0
						L63,7.3z"/>
				</g>
			</g>
		</g>
		<g id="Pipedrive_letter_logo_light" transform="translate(397.000000, 0.000000)">
			<path id="path-1_2_" class="st7" d="M8.8,12.1c0,3,1.5,6.3,4.9,6.3c2.5,0,5-2,5-6.3c0-3.8-2-6.4-4.9-6.4
				C11.3,5.6,8.8,7.3,8.8,12.1z M14.9,0C20.9,0,25,4.8,25,12c0,7-4.3,12-10.4,12c-2.9,0-4.8-1.3-5.8-2.2c0,0.2,0,0.5,0,0.7V32H2.6
				V6.6c0-0.4-0.1-0.5-0.5-0.5H0V0.5h5.2c2.4,0,3,1.2,3.1,2.2C9.4,1.6,11.4,0,14.9,0z"/>
		</g>
		<path id="Line-3" class="st1" d="M116,97l-1,0l0,5l1,0L116,97z M116,105l-1,0l0,5l1,0L116,105z M116,113l-1,0l0,5l1,0L116,113z
			 M116,121l-1,0l0,5l1,0L116,121z M116,129l-1,0l0,5l1,0L116,129z M116,137l-1,0l0,5l1,0L116,137z M116.1,145l-1,0l0,5l1,0
			L116.1,145z M116.1,153l-1,0l0,5l1,0L116.1,153z M116.1,161l-1,0l0,5l1,0L116.1,161z M116.1,169l-1,0l0,5l1,0L116.1,169z
			 M116.1,177l-1,0l0,5l1,0L116.1,177z M116.1,185l-1,0l0,5l1,0L116.1,185z M116.1,193l-1,0l0,5l1,0L116.1,193z M116.1,201l-1,0l0,5
			l1,0L116.1,201z M116.1,209l-1,0l0,5l1,0L116.1,209z M116.1,217l-1,0l0,5l1,0L116.1,217z M116.2,225l-1,0l0,5l1,0L116.2,225z
			 M116.2,233l-1,0l0,5l1,0L116.2,233z M116.2,241l-1,0l0,5l1,0L116.2,241z M116.2,249l-1,0l0,5l1,0L116.2,249z M116.2,257l-1,0l0,5
			l1,0L116.2,257z M116.2,265l-1,0l0,5l1,0L116.2,265z M116.2,273l-1,0l0,5l1,0L116.2,273z M116.2,281l-1,0l0,5l1,0L116.2,281z
			 M116.2,289l-1,0l0,5l1,0L116.2,289z M116.2,297l-1,0l0,5l1,0L116.2,297z M116.2,305l-1,0l0,5l1,0L116.2,305z M116.3,313l-1,0l0,5
			l1,0L116.3,313z M116.3,321l-1,0l0,5l1,0L116.3,321z M116.3,329l-1,0l0,5l1,0L116.3,329z M116.3,337l-1,0l0,5l1,0L116.3,337z
			 M116.3,345l-1,0l0,5l1,0L116.3,345z M116.3,353l-1,0l0,5l1,0L116.3,353z M116.3,361l-1,0l0,5l1,0L116.3,361z M116.3,369l-1,0l0,5
			l1,0L116.3,369z M116.3,377l-1,0l0,5l1,0L116.3,377z M116.3,385l-1,0l0,5l1,0L116.3,385z M116.4,393l-1,0l0,5l1,0L116.4,393z
			 M116.4,401l-1,0l0,5l1,0L116.4,401z M116.4,409l-1,0l0,5l1,0L116.4,409z M116.4,417l-1,0l0,5l1,0L116.4,417z M116.4,425l-1,0l0,5
			l1,0L116.4,425z M116.4,433l-1,0l0,5l1,0L116.4,433z M116.4,441l-1,0l0,5l1,0L116.4,441z M116.4,449l-1,0l0,5l1,0L116.4,449z
			 M116.4,457l-1,0l0,5l1,0L116.4,457z M116.4,465l-1,0l0,5l1,0L116.4,465z M116.5,473l-1,0l0,5l1,0L116.5,473z M116.5,481l-1,0l0,5
			l1,0L116.5,481z M116.5,489l-1,0l0,5l1,0L116.5,489z M116.5,497l-1,0l0,5l1,0L116.5,497z M116.5,505l-1,0l0,5l1,0L116.5,505z"/>
		<path id="Line-4-Copy-3" class="st1" d="M346,799l0,1l5,0l0-1L346,799z M354,799l0,1l5,0l0-1L354,799z M362,798.9l0,1l5,0l0-1
			L362,798.9z M370,798.9l0,1l5,0l0-1L370,798.9z M378,798.9l0,1l1.4,0l0-1L378,798.9z"/>
		<g id="Group-30-Copy-4_1_" transform="translate(367.000000, 775.000000)">
			<g id="Rectangle-Copy-2_8_">
				<g>
					<path id="path-23" class="st5" d="M4,0h182c2.2,0,4,1.8,4,4v40c0,2.2-1.8,4-4,4H4c-2.2,0-4-1.8-4-4V4C0,1.8,1.8,0,4,0z"/>
				</g>
				<g>
					<path id="path-23_1_" class="st0" d="M4,0h182c2.2,0,4,1.8,4,4v40c0,2.2-1.8,4-4,4H4c-2.2,0-4-1.8-4-4V4C0,1.8,1.8,0,4,0z"/>
				</g>
			</g>
			<g id="Group-15-Copy_8_" transform="translate(31.000000, 16.000000)">
				<g class="st4">
					<path class="st6" d="M13,10.6c-0.3,0.4-0.5,0.8-0.8,1.1c-0.3,0.3-0.6,0.6-0.9,0.8c-0.3,0.2-0.7,0.4-1.1,0.5
						c-0.4,0.1-0.9,0.2-1.4,0.2c-0.7,0-1.3-0.1-1.9-0.4s-1.1-0.6-1.5-1.1c-0.4-0.4-0.8-1-1-1.6C4,9.5,3.9,8.8,3.9,8.1
						C3.9,7.4,4,6.7,4.3,6s0.6-1.2,1.1-1.6c0.4-0.4,1-0.8,1.6-1S8.1,3,8.8,3c0.5,0,1,0.1,1.4,0.2s0.8,0.3,1.2,0.5
						c0.4,0.2,0.7,0.5,0.9,0.8c0.3,0.3,0.5,0.6,0.7,1l-1.2,0.9c-0.4-0.7-0.8-1.2-1.3-1.5C10,4.5,9.4,4.4,8.8,4.4
						c-0.5,0-0.9,0.1-1.3,0.3S6.7,5.1,6.4,5.4C6.1,5.8,5.8,6.2,5.7,6.6C5.5,7.1,5.4,7.6,5.4,8.1c0,0.5,0.1,1,0.3,1.5
						s0.4,0.8,0.7,1.2c0.3,0.3,0.7,0.6,1.1,0.8s0.9,0.3,1.3,0.3c0.7,0,1.3-0.2,1.8-0.5c0.5-0.3,1-0.8,1.3-1.5L13,10.6z"/>
					<path class="st6" d="M14.6,3.2h3.8c1,0,1.7,0.2,2.3,0.6c0.5,0.4,0.8,1,0.8,1.7c0,0.3,0,0.5-0.1,0.7c-0.1,0.2-0.2,0.4-0.3,0.6
						s-0.3,0.3-0.5,0.5c-0.2,0.1-0.4,0.2-0.6,0.3c0.3,0.1,0.5,0.2,0.8,0.4c0.2,0.1,0.4,0.3,0.6,0.5c0.2,0.2,0.3,0.4,0.4,0.7
						c0.1,0.3,0.1,0.5,0.1,0.9c0,0.5-0.1,0.9-0.3,1.2s-0.4,0.7-0.7,0.9c-0.3,0.3-0.7,0.4-1.1,0.6c-0.4,0.1-0.9,0.2-1.3,0.2h-3.9V3.2
						z M16.1,7.1h2.2c0.5,0,1-0.1,1.3-0.3c0.3-0.2,0.5-0.5,0.5-1s-0.2-0.8-0.5-1c-0.3-0.2-0.7-0.3-1.3-0.3h-2.2V7.1z M16.1,11.7h2.2
						c0.6,0,1.2-0.1,1.5-0.4c0.4-0.3,0.6-0.7,0.6-1.2s-0.2-1-0.6-1.2c-0.4-0.3-0.9-0.4-1.5-0.4h-2.2V11.7z"/>
					<path class="st6" d="M29,5.6c0,0.4,0.2,0.8,0.6,1.1s1.1,0.5,1.9,0.7c1.1,0.2,1.9,0.5,2.4,1c0.5,0.5,0.8,1.1,0.8,1.9
						c0,0.4-0.1,0.8-0.3,1.1s-0.4,0.7-0.7,0.9c-0.3,0.3-0.7,0.5-1.1,0.6s-0.9,0.2-1.5,0.2c-0.6,0-1.1-0.1-1.6-0.2s-0.9-0.4-1.2-0.7
						c-0.3-0.3-0.6-0.6-0.8-1c-0.2-0.4-0.4-0.8-0.4-1.2l1.3-0.7c0.1,0.8,0.4,1.4,0.9,1.8c0.4,0.4,1,0.6,1.8,0.6c0.3,0,0.6,0,0.9-0.1
						s0.5-0.2,0.7-0.3s0.3-0.3,0.4-0.5c0.1-0.2,0.1-0.4,0.1-0.6c0-0.5-0.2-0.9-0.6-1.2c-0.4-0.3-1-0.5-1.9-0.6
						c-0.5-0.1-0.9-0.2-1.3-0.4c-0.4-0.2-0.7-0.4-1-0.6C28.2,7.3,28,7,27.8,6.7c-0.2-0.3-0.2-0.7-0.2-1.1c0-0.4,0.1-0.7,0.2-1.1
						C28,4.2,28.2,4,28.5,3.7s0.7-0.4,1.1-0.5C30,3.1,30.4,3,30.9,3c0.9,0,1.6,0.2,2.3,0.6s1.1,1,1.4,1.8l-1.2,0.7
						c-0.2-0.6-0.5-1-0.9-1.4s-0.9-0.5-1.5-0.5c-0.3,0-0.5,0-0.7,0.1c-0.2,0.1-0.4,0.1-0.6,0.2c-0.2,0.1-0.3,0.2-0.4,0.4
						S29,5.4,29,5.6z"/>
					<path class="st6" d="M36.5,6.1H38v4.2c0,0.5,0.1,1,0.4,1.2c0.3,0.3,0.6,0.4,1.1,0.4c0.3,0,0.5-0.1,0.7-0.2
						c0.2-0.1,0.4-0.2,0.6-0.4c0.2-0.2,0.3-0.4,0.4-0.7c0.1-0.3,0.1-0.5,0.1-0.8V6.1h1.4V13h-1.4v-1.1c-0.2,0.4-0.5,0.7-0.9,1
						c-0.4,0.2-0.8,0.3-1.3,0.3c-0.3,0-0.7-0.1-1-0.2c-0.3-0.1-0.6-0.3-0.8-0.5c-0.2-0.2-0.4-0.5-0.6-0.8c-0.1-0.3-0.2-0.7-0.2-1.2
						V6.1z"/>
					<path class="st6" d="M44.7,3.2h1.4v3.9c0.3-0.4,0.6-0.7,1-0.9c0.4-0.2,0.9-0.3,1.4-0.3c0.5,0,0.9,0.1,1.3,0.3s0.7,0.4,1,0.7
						c0.3,0.3,0.5,0.7,0.7,1.2c0.2,0.4,0.3,1,0.3,1.5c0,0.6-0.1,1.1-0.3,1.5s-0.4,0.8-0.7,1.2c-0.3,0.3-0.7,0.6-1.1,0.7
						c-0.4,0.2-0.8,0.3-1.3,0.3c-0.6,0-1-0.1-1.4-0.4c-0.4-0.2-0.7-0.5-0.9-0.9v1h-1.4V3.2z M48.2,11.9c0.3,0,0.6-0.1,0.8-0.2
						c0.3-0.1,0.5-0.3,0.7-0.5c0.2-0.2,0.3-0.5,0.5-0.7c0.1-0.3,0.2-0.6,0.2-1c0-0.3-0.1-0.7-0.2-1S49.9,8,49.7,7.8S49.3,7.5,49,7.3
						c-0.3-0.1-0.5-0.2-0.8-0.2s-0.6,0.1-0.8,0.2c-0.3,0.1-0.5,0.3-0.7,0.5s-0.4,0.5-0.5,0.7c-0.1,0.3-0.2,0.6-0.2,1
						c0,0.4,0.1,0.7,0.2,1c0.1,0.3,0.3,0.5,0.5,0.7c0.2,0.2,0.4,0.4,0.7,0.5C47.6,11.8,47.9,11.9,48.2,11.9z"/>
					<path class="st6" d="M54.5,7.7c0,0.3,0.1,0.5,0.4,0.7s0.7,0.3,1.3,0.4C57,9,57.6,9.2,58,9.6c0.4,0.3,0.6,0.8,0.6,1.4
						c0,0.3-0.1,0.6-0.2,0.9c-0.1,0.3-0.3,0.5-0.5,0.7c-0.2,0.2-0.5,0.4-0.8,0.5s-0.7,0.2-1.1,0.2c-0.4,0-0.8-0.1-1.1-0.2
						c-0.3-0.1-0.6-0.3-0.9-0.4s-0.5-0.4-0.7-0.7c-0.2-0.3-0.3-0.5-0.4-0.8l1.2-0.7c0.2,0.5,0.4,0.8,0.7,1.1s0.7,0.4,1.2,0.4
						c0.4,0,0.7-0.1,0.9-0.3s0.4-0.4,0.4-0.7s-0.1-0.5-0.4-0.7c-0.3-0.2-0.7-0.3-1.2-0.4c-0.3-0.1-0.6-0.2-0.9-0.3
						c-0.3-0.1-0.5-0.3-0.7-0.4s-0.4-0.4-0.5-0.6s-0.2-0.5-0.2-0.8c0-0.3,0.1-0.6,0.2-0.8c0.1-0.2,0.3-0.4,0.5-0.6s0.5-0.3,0.8-0.4
						s0.6-0.1,0.9-0.1c0.7,0,1.3,0.1,1.8,0.4s0.8,0.7,1,1.3l-1,0.6c-0.2-0.4-0.4-0.7-0.7-0.9c-0.3-0.2-0.6-0.3-1-0.3
						c-0.3,0-0.6,0.1-0.9,0.2S54.5,7.5,54.5,7.7z"/>
					<path class="st6" d="M66.4,11.2c-0.3,0.7-0.8,1.2-1.3,1.5c-0.5,0.3-1.2,0.5-1.9,0.5c-0.5,0-1-0.1-1.4-0.3
						c-0.4-0.2-0.8-0.4-1.1-0.7c-0.3-0.3-0.6-0.7-0.8-1.2c-0.2-0.5-0.3-0.9-0.3-1.5c0-0.5,0.1-1,0.3-1.5s0.5-0.8,0.8-1.2
						c0.3-0.3,0.7-0.6,1.1-0.7c0.4-0.2,0.9-0.3,1.4-0.3c0.8,0,1.4,0.2,2,0.5s0.9,0.8,1.2,1.4l-1.1,0.8c-0.3-0.5-0.5-0.9-0.9-1
						s-0.7-0.3-1.1-0.3c-0.3,0-0.6,0.1-0.8,0.2c-0.3,0.1-0.5,0.3-0.7,0.5c-0.2,0.2-0.3,0.4-0.5,0.7S61,9.2,61,9.5
						c0,0.4,0.1,0.7,0.2,1c0.1,0.3,0.3,0.5,0.5,0.7c0.2,0.2,0.4,0.4,0.7,0.5s0.5,0.2,0.9,0.2c0.5,0,0.9-0.1,1.3-0.4
						c0.3-0.2,0.6-0.6,0.8-1L66.4,11.2z"/>
					<path class="st6" d="M71.4,7.3c-0.2-0.1-0.4-0.1-0.5-0.1c-0.3,0-0.5,0.1-0.7,0.2s-0.4,0.3-0.6,0.4s-0.3,0.4-0.4,0.7
						c-0.1,0.3-0.1,0.5-0.1,0.9V13h-1.4V6.1h1.4v1.2c0.2-0.4,0.4-0.7,0.8-1s0.7-0.4,1.2-0.4c0.1,0,0.2,0,0.3,0c0.1,0,0.2,0,0.3,0
						L71.4,7.3z"/>
					<path class="st6" d="M72.7,3.3h1.6V5h-1.6V3.3z M72.8,6.1h1.4V13h-1.4V6.1z"/>
					<path class="st6" d="M76.1,6.1h1.4v1.1c0.2-0.3,0.5-0.6,1-0.9C79,6,79.5,5.9,80,5.9c0.4,0,0.8,0.1,1.2,0.3
						c0.4,0.2,0.7,0.4,1,0.7S82.8,7.5,83,8s0.3,1,0.3,1.5c0,0.6-0.1,1.1-0.3,1.5c-0.2,0.5-0.4,0.8-0.7,1.2s-0.7,0.6-1.1,0.7
						c-0.4,0.2-0.8,0.3-1.3,0.3c-0.5,0-1-0.1-1.4-0.3s-0.7-0.5-1-0.8v3.8h-1.4V6.1z M79.6,7.2c-0.3,0-0.6,0.1-0.8,0.2
						c-0.3,0.1-0.5,0.3-0.7,0.5s-0.4,0.5-0.5,0.7c-0.1,0.3-0.2,0.6-0.2,1c0,0.4,0.1,0.7,0.2,1c0.1,0.3,0.3,0.5,0.5,0.7
						c0.2,0.2,0.4,0.4,0.7,0.5c0.3,0.1,0.5,0.2,0.8,0.2s0.6-0.1,0.8-0.2c0.3-0.1,0.5-0.3,0.7-0.5c0.2-0.2,0.3-0.5,0.5-0.7
						c0.1-0.3,0.2-0.6,0.2-1c0-0.3-0.1-0.7-0.2-1S81.4,8,81.2,7.8s-0.4-0.4-0.7-0.5C80.2,7.2,79.9,7.2,79.6,7.2z"/>
					<path class="st6" d="M83.9,6.1H85V4.2h1.4v1.9H88v1.1h-1.6v3.7c0,0.3,0.1,0.6,0.2,0.8s0.4,0.3,0.7,0.3c0.1,0,0.2,0,0.3,0
						c0.1,0,0.2,0,0.3-0.1l0.1,1.2c-0.1,0-0.3,0.1-0.5,0.1c-0.2,0-0.4,0-0.6,0c-0.3,0-0.5,0-0.8-0.1c-0.2-0.1-0.5-0.2-0.6-0.3
						c-0.2-0.2-0.3-0.4-0.4-0.6s-0.2-0.6-0.2-1V7.2h-1.1V6.1z"/>
					<path class="st6" d="M89.4,3.3H91V5h-1.6V3.3z M89.5,6.1h1.4V13h-1.4V6.1z"/>
					<path class="st6" d="M99.8,9.5c0,0.6-0.1,1.1-0.3,1.6S99,12,98.6,12.3c-0.4,0.3-0.7,0.5-1.2,0.7s-0.9,0.2-1.4,0.2
						s-0.9-0.1-1.4-0.2s-0.8-0.4-1.2-0.7c-0.3-0.3-0.6-0.7-0.8-1.1c-0.2-0.5-0.3-1-0.3-1.6c0-0.6,0.1-1.1,0.3-1.6
						c0.2-0.5,0.5-0.8,0.8-1.1c0.3-0.3,0.7-0.5,1.2-0.7c0.4-0.2,0.9-0.2,1.4-0.2s0.9,0.1,1.4,0.2c0.4,0.2,0.8,0.4,1.2,0.7
						c0.3,0.3,0.6,0.7,0.8,1.1S99.8,8.9,99.8,9.5z M96.1,11.9c0.3,0,0.6-0.1,0.9-0.2c0.3-0.1,0.5-0.3,0.7-0.5s0.4-0.5,0.5-0.7
						c0.1-0.3,0.2-0.6,0.2-1s-0.1-0.7-0.2-1C98,8.3,97.9,8,97.7,7.8s-0.4-0.4-0.7-0.5c-0.3-0.1-0.6-0.2-0.9-0.2s-0.6,0.1-0.9,0.2
						c-0.3,0.1-0.5,0.3-0.7,0.5S94.1,8.3,94,8.6c-0.1,0.3-0.2,0.6-0.2,1s0.1,0.7,0.2,1s0.3,0.5,0.5,0.7s0.4,0.4,0.7,0.5
						S95.8,11.9,96.1,11.9z"/>
					<path class="st6" d="M107.5,13h-1.4V8.7c0-0.5-0.1-0.8-0.4-1.1c-0.3-0.3-0.6-0.4-1.1-0.4c-0.3,0-0.5,0.1-0.7,0.2
						c-0.2,0.1-0.4,0.2-0.6,0.4c-0.2,0.2-0.3,0.4-0.4,0.7c-0.1,0.3-0.1,0.6-0.1,0.9V13h-1.4V6.1h1.4v1.2c0.2-0.4,0.6-0.7,1-1
						c0.4-0.2,0.9-0.4,1.4-0.4c0.3,0,0.7,0.1,1,0.2c0.3,0.1,0.6,0.3,0.8,0.5c0.2,0.2,0.4,0.5,0.5,0.8c0.1,0.3,0.2,0.7,0.2,1V13z"/>
					<path class="st6" d="M113.5,3.2h1.5V13h-1.5V3.2z"/>
					<path class="st6" d="M117.1,3.2h2.8c0.7,0,1.4,0.1,2.1,0.3c0.6,0.2,1.2,0.5,1.6,0.9c0.5,0.4,0.8,0.9,1.1,1.5
						c0.3,0.6,0.4,1.3,0.4,2.1c0,0.8-0.1,1.5-0.4,2.1c-0.3,0.6-0.6,1.1-1.1,1.5c-0.5,0.4-1,0.7-1.6,0.9c-0.6,0.2-1.3,0.3-2.1,0.3
						h-2.8V3.2z M120,11.6c0.5,0,1-0.1,1.5-0.2c0.4-0.1,0.8-0.4,1.1-0.7c0.3-0.3,0.6-0.7,0.7-1.1c0.2-0.4,0.3-1,0.3-1.6
						c0-0.6-0.1-1.1-0.3-1.6c-0.2-0.4-0.4-0.8-0.7-1.1c-0.3-0.3-0.7-0.5-1.1-0.7c-0.4-0.1-0.9-0.2-1.5-0.2h-1.3v7.1H120z"/>
				</g>
			</g>
		</g>
		<g id="Group-30-Copy-5_1_" transform="translate(367.000000, 840.000000)">
			<g id="Rectangle-Copy-2_9_">
				<g>
					<path id="path-25" class="st5" d="M4,0h182c2.2,0,4,1.8,4,4v40c0,2.2-1.8,4-4,4H4c-2.2,0-4-1.8-4-4V4C0,1.8,1.8,0,4,0z"/>
				</g>
				<g>
					<path id="path-25_1_" class="st0" d="M4,0h182c2.2,0,4,1.8,4,4v40c0,2.2-1.8,4-4,4H4c-2.2,0-4-1.8-4-4V4C0,1.8,1.8,0,4,0z"/>
				</g>
			</g>
		</g>
		<g id="Group-15-Copy-3" transform="translate(392.000000, 856.000000)">
			<g class="st4">
				<path class="st6" d="M10.7,10.6c-0.3,0.4-0.5,0.8-0.8,1.1c-0.3,0.3-0.6,0.6-0.9,0.8c-0.3,0.2-0.7,0.4-1.1,0.5
					c-0.4,0.1-0.9,0.2-1.4,0.2c-0.7,0-1.3-0.1-1.9-0.4s-1.1-0.6-1.5-1.1c-0.4-0.4-0.8-1-1-1.6S1.5,8.8,1.5,8.1
					c0-0.7,0.1-1.4,0.4-2.1C2.1,5.4,2.5,4.9,3,4.4c0.4-0.4,1-0.8,1.6-1C5.1,3.1,5.8,3,6.4,3c0.5,0,1,0.1,1.4,0.2
					C8.3,3.3,8.7,3.5,9,3.7C9.4,3.9,9.7,4.2,10,4.5c0.3,0.3,0.5,0.6,0.7,1L9.4,6.4C9.1,5.7,8.6,5.2,8.2,4.9S7.1,4.4,6.4,4.4
					c-0.5,0-0.9,0.1-1.3,0.3C4.7,4.8,4.3,5.1,4,5.4C3.7,5.8,3.5,6.2,3.3,6.6C3.1,7.1,3,7.6,3,8.1c0,0.5,0.1,1,0.3,1.5
					s0.4,0.8,0.7,1.2s0.7,0.6,1.1,0.8c0.4,0.2,0.9,0.3,1.3,0.3c0.7,0,1.2-0.2,1.8-0.5c0.5-0.3,1-0.8,1.3-1.5L10.7,10.6z"/>
				<path class="st6" d="M12.2,3.2H16c1,0,1.7,0.2,2.3,0.6c0.5,0.4,0.8,1,0.8,1.7c0,0.3,0,0.5-0.1,0.7c-0.1,0.2-0.2,0.4-0.3,0.6
					c-0.1,0.2-0.3,0.3-0.5,0.5c-0.2,0.1-0.4,0.2-0.6,0.3c0.3,0.1,0.5,0.2,0.8,0.4c0.2,0.1,0.4,0.3,0.6,0.5c0.2,0.2,0.3,0.4,0.4,0.7
					c0.1,0.3,0.1,0.5,0.1,0.9c0,0.5-0.1,0.9-0.3,1.2c-0.2,0.4-0.4,0.7-0.7,0.9c-0.3,0.3-0.7,0.4-1.1,0.6C17,12.9,16.5,13,16.1,13
					h-3.9V3.2z M13.7,7.1h2.2c0.6,0,1-0.1,1.3-0.3s0.5-0.5,0.5-1s-0.2-0.8-0.5-1s-0.7-0.3-1.3-0.3h-2.2V7.1z M13.7,11.7h2.2
					c0.6,0,1.1-0.1,1.5-0.4c0.4-0.3,0.6-0.7,0.6-1.2s-0.2-1-0.6-1.2c-0.4-0.3-0.9-0.4-1.5-0.4h-2.2V11.7z"/>
				<path class="st6" d="M26.7,5.6c0,0.4,0.2,0.8,0.6,1.1s1.1,0.5,1.9,0.7c1.1,0.2,1.9,0.5,2.4,1s0.8,1.1,0.8,1.9
					c0,0.4-0.1,0.8-0.3,1.1s-0.4,0.7-0.7,0.9c-0.3,0.3-0.7,0.5-1.1,0.6s-0.9,0.2-1.5,0.2c-0.6,0-1.1-0.1-1.6-0.2s-0.9-0.4-1.2-0.7
					c-0.3-0.3-0.6-0.6-0.8-1s-0.3-0.8-0.4-1.2l1.3-0.7c0.1,0.8,0.4,1.4,0.9,1.8c0.4,0.4,1,0.6,1.8,0.6c0.3,0,0.6,0,0.9-0.1
					s0.5-0.2,0.7-0.3c0.2-0.1,0.3-0.3,0.4-0.5c0.1-0.2,0.1-0.4,0.1-0.6c0-0.5-0.2-0.9-0.6-1.2c-0.4-0.3-1-0.5-1.9-0.6
					c-0.5-0.1-0.9-0.2-1.3-0.4c-0.4-0.2-0.7-0.4-1-0.6c-0.3-0.2-0.5-0.5-0.7-0.8c-0.2-0.3-0.2-0.7-0.2-1.1c0-0.4,0.1-0.7,0.2-1.1
					c0.2-0.3,0.4-0.6,0.7-0.8s0.7-0.4,1.1-0.5C27.6,3.1,28.1,3,28.6,3c0.9,0,1.6,0.2,2.3,0.6s1.1,1,1.4,1.8L31,6.1
					c-0.2-0.6-0.5-1-0.9-1.4c-0.4-0.3-0.9-0.5-1.5-0.5c-0.3,0-0.5,0-0.7,0.1c-0.2,0.1-0.4,0.1-0.6,0.2C27,4.7,26.9,4.9,26.8,5
					S26.7,5.4,26.7,5.6z"/>
				<path class="st6" d="M34.2,6.1h1.4v4.2c0,0.5,0.1,1,0.4,1.2c0.3,0.3,0.6,0.4,1.1,0.4c0.3,0,0.5-0.1,0.7-0.2
					c0.2-0.1,0.4-0.2,0.6-0.4c0.2-0.2,0.3-0.4,0.4-0.7c0.1-0.3,0.1-0.5,0.1-0.8V6.1h1.4V13H39v-1.1c-0.2,0.4-0.5,0.7-0.9,1
					c-0.4,0.2-0.8,0.3-1.3,0.3c-0.3,0-0.7-0.1-1-0.2s-0.6-0.3-0.8-0.5c-0.2-0.2-0.4-0.5-0.6-0.8s-0.2-0.7-0.2-1.2V6.1z"/>
				<path class="st6" d="M42.4,3.2h1.4v3.9c0.3-0.4,0.6-0.7,1-0.9c0.4-0.2,0.9-0.3,1.4-0.3c0.5,0,0.9,0.1,1.3,0.3
					c0.4,0.2,0.7,0.4,1,0.7C48.8,7.2,49,7.6,49.2,8c0.2,0.4,0.3,1,0.3,1.5c0,0.6-0.1,1.1-0.3,1.5s-0.4,0.8-0.7,1.2
					c-0.3,0.3-0.7,0.6-1.1,0.7c-0.4,0.2-0.8,0.3-1.3,0.3c-0.6,0-1-0.1-1.4-0.4S44,12.3,43.8,12v1h-1.4V3.2z M45.8,11.9
					c0.3,0,0.6-0.1,0.8-0.2s0.5-0.3,0.7-0.5c0.2-0.2,0.3-0.5,0.5-0.7c0.1-0.3,0.2-0.6,0.2-1c0-0.3-0.1-0.7-0.2-1
					c-0.1-0.3-0.3-0.5-0.5-0.7c-0.2-0.2-0.4-0.4-0.7-0.5c-0.3-0.1-0.5-0.2-0.8-0.2S45.3,7.2,45,7.3c-0.3,0.1-0.5,0.3-0.7,0.5
					C44.1,8,44,8.3,43.9,8.6c-0.1,0.3-0.2,0.6-0.2,1c0,0.4,0.1,0.7,0.2,1c0.1,0.3,0.3,0.5,0.5,0.7c0.2,0.2,0.4,0.4,0.7,0.5
					C45.3,11.8,45.5,11.9,45.8,11.9z"/>
				<path class="st6" d="M52.1,7.7c0,0.3,0.1,0.5,0.4,0.7c0.3,0.2,0.7,0.3,1.3,0.4c0.8,0.2,1.4,0.4,1.8,0.7c0.4,0.3,0.6,0.8,0.6,1.4
					c0,0.3-0.1,0.6-0.2,0.9s-0.3,0.5-0.5,0.7c-0.2,0.2-0.5,0.4-0.8,0.5c-0.3,0.1-0.7,0.2-1.1,0.2c-0.4,0-0.8-0.1-1.1-0.2
					c-0.3-0.1-0.6-0.3-0.9-0.4s-0.5-0.4-0.7-0.7c-0.2-0.3-0.3-0.5-0.4-0.8l1.2-0.7c0.2,0.5,0.4,0.8,0.7,1.1S53,12,53.5,12
					c0.4,0,0.7-0.1,0.9-0.3s0.4-0.4,0.4-0.7s-0.1-0.5-0.4-0.7c-0.3-0.2-0.7-0.3-1.2-0.4c-0.3-0.1-0.6-0.2-0.9-0.3
					c-0.3-0.1-0.5-0.3-0.7-0.4c-0.2-0.2-0.4-0.4-0.5-0.6c-0.1-0.2-0.2-0.5-0.2-0.8c0-0.3,0.1-0.6,0.2-0.8c0.1-0.2,0.3-0.4,0.5-0.6
					s0.5-0.3,0.8-0.4s0.6-0.1,0.9-0.1c0.7,0,1.3,0.1,1.8,0.4c0.4,0.3,0.8,0.7,1,1.3l-1,0.6c-0.2-0.4-0.4-0.7-0.7-0.9
					C54,7.1,53.7,7,53.3,7C53,7,52.7,7,52.5,7.2C52.2,7.3,52.1,7.5,52.1,7.7z"/>
				<path class="st6" d="M64,11.2c-0.3,0.7-0.8,1.2-1.3,1.5c-0.5,0.3-1.2,0.5-1.9,0.5c-0.5,0-1-0.1-1.4-0.3
					c-0.4-0.2-0.8-0.4-1.1-0.7c-0.3-0.3-0.6-0.7-0.8-1.2c-0.2-0.5-0.3-0.9-0.3-1.5c0-0.5,0.1-1,0.3-1.5s0.5-0.8,0.8-1.2
					s0.7-0.6,1.1-0.7c0.4-0.2,0.9-0.3,1.4-0.3c0.8,0,1.4,0.2,2,0.5c0.5,0.3,0.9,0.8,1.2,1.4l-1.1,0.8c-0.3-0.5-0.5-0.9-0.9-1
					s-0.7-0.3-1.1-0.3c-0.3,0-0.6,0.1-0.8,0.2c-0.3,0.1-0.5,0.3-0.7,0.5C59.1,8,59,8.2,58.9,8.5c-0.1,0.3-0.2,0.6-0.2,1
					c0,0.4,0.1,0.7,0.2,1s0.3,0.5,0.5,0.7c0.2,0.2,0.4,0.4,0.7,0.5c0.3,0.1,0.5,0.2,0.9,0.2c0.5,0,0.9-0.1,1.3-0.4
					c0.3-0.2,0.6-0.6,0.8-1L64,11.2z"/>
				<path class="st6" d="M69,7.3c-0.2-0.1-0.4-0.1-0.5-0.1c-0.3,0-0.5,0.1-0.7,0.2s-0.4,0.3-0.6,0.4C67,8,66.9,8.2,66.8,8.5
					c-0.1,0.3-0.1,0.5-0.1,0.9V13h-1.4V6.1h1.4v1.2c0.2-0.4,0.4-0.7,0.8-1s0.7-0.4,1.2-0.4c0.1,0,0.2,0,0.3,0s0.2,0,0.3,0L69,7.3z"
					/>
				<path class="st6" d="M70.3,3.3h1.6V5h-1.6V3.3z M70.4,6.1h1.4V13h-1.4V6.1z"/>
				<path class="st6" d="M73.8,6.1h1.4v1.1c0.2-0.3,0.5-0.6,1-0.9c0.4-0.2,0.9-0.4,1.5-0.4c0.4,0,0.8,0.1,1.2,0.3
					c0.4,0.2,0.7,0.4,1,0.7c0.3,0.3,0.5,0.7,0.7,1.2s0.3,1,0.3,1.5c0,0.6-0.1,1.1-0.3,1.5c-0.2,0.5-0.4,0.8-0.7,1.2
					s-0.7,0.6-1.1,0.7c-0.4,0.2-0.8,0.3-1.3,0.3c-0.5,0-1-0.1-1.4-0.3c-0.4-0.2-0.7-0.5-1-0.8v3.8h-1.4V6.1z M77.3,7.2
					c-0.3,0-0.6,0.1-0.8,0.2c-0.3,0.1-0.5,0.3-0.7,0.5c-0.2,0.2-0.3,0.5-0.5,0.7c-0.1,0.3-0.2,0.6-0.2,1c0,0.4,0.1,0.7,0.2,1
					c0.1,0.3,0.3,0.5,0.5,0.7c0.2,0.2,0.4,0.4,0.7,0.5c0.3,0.1,0.5,0.2,0.8,0.2s0.6-0.1,0.8-0.2s0.5-0.3,0.7-0.5
					c0.2-0.2,0.3-0.5,0.5-0.7c0.1-0.3,0.2-0.6,0.2-1c0-0.3-0.1-0.7-0.2-1C79.2,8.3,79,8,78.8,7.8c-0.2-0.2-0.4-0.4-0.7-0.5
					C77.9,7.2,77.6,7.2,77.3,7.2z"/>
				<path class="st6" d="M81.6,6.1h1.1V4.2h1.4v1.9h1.6v1.1h-1.6v3.7c0,0.3,0.1,0.6,0.2,0.8s0.4,0.3,0.7,0.3c0.1,0,0.2,0,0.3,0
					s0.2,0,0.3-0.1l0.1,1.2c-0.1,0-0.3,0.1-0.5,0.1c-0.2,0-0.4,0-0.6,0c-0.3,0-0.5,0-0.8-0.1c-0.2-0.1-0.5-0.2-0.6-0.3
					c-0.2-0.2-0.3-0.4-0.4-0.6c-0.1-0.3-0.2-0.6-0.2-1V7.2h-1.1V6.1z"/>
				<path class="st6" d="M87,3.3h1.6V5H87V3.3z M87.1,6.1h1.4V13h-1.4V6.1z"/>
				<path class="st6" d="M97.4,9.5c0,0.6-0.1,1.1-0.3,1.6c-0.2,0.5-0.5,0.8-0.8,1.1c-0.3,0.3-0.7,0.5-1.2,0.7s-0.9,0.2-1.4,0.2
					c-0.5,0-0.9-0.1-1.4-0.2s-0.8-0.4-1.2-0.7c-0.3-0.3-0.6-0.7-0.8-1.1s-0.3-1-0.3-1.6c0-0.6,0.1-1.1,0.3-1.6s0.5-0.8,0.8-1.1
					c0.4-0.3,0.7-0.5,1.2-0.7c0.4-0.2,0.9-0.2,1.4-0.2c0.5,0,0.9,0.1,1.4,0.2c0.4,0.2,0.8,0.4,1.2,0.7c0.4,0.3,0.6,0.7,0.8,1.1
					C97.3,8.4,97.4,8.9,97.4,9.5z M93.7,11.9c0.3,0,0.6-0.1,0.9-0.2s0.5-0.3,0.7-0.5s0.4-0.5,0.5-0.7s0.2-0.6,0.2-1s-0.1-0.7-0.2-1
					c-0.1-0.3-0.3-0.5-0.5-0.7s-0.4-0.4-0.7-0.5c-0.3-0.1-0.6-0.2-0.9-0.2c-0.3,0-0.6,0.1-0.9,0.2c-0.3,0.1-0.5,0.3-0.7,0.5
					c-0.2,0.2-0.4,0.5-0.5,0.7c-0.1,0.3-0.2,0.6-0.2,1s0.1,0.7,0.2,1c0.1,0.3,0.3,0.5,0.5,0.7c0.2,0.2,0.4,0.4,0.7,0.5
					C93.1,11.8,93.4,11.9,93.7,11.9z"/>
				<path class="st6" d="M105.2,13h-1.4V8.7c0-0.5-0.1-0.8-0.4-1.1s-0.6-0.4-1.1-0.4c-0.3,0-0.5,0.1-0.7,0.2
					c-0.2,0.1-0.4,0.2-0.6,0.4c-0.2,0.2-0.3,0.4-0.4,0.7c-0.1,0.3-0.1,0.6-0.1,0.9V13h-1.4V6.1h1.4v1.2c0.2-0.4,0.6-0.7,1-1
					c0.4-0.2,0.9-0.4,1.4-0.4c0.3,0,0.7,0.1,1,0.2c0.3,0.1,0.6,0.3,0.8,0.5c0.2,0.2,0.4,0.5,0.5,0.8c0.1,0.3,0.2,0.7,0.2,1V13z"/>
				<path class="st6" d="M111.1,3.2h1.6l3.3,8.3l3.3-8.3h1.6V13h-1.5V6.2c0,0.1-0.1,0.2-0.1,0.3c-0.1,0.1-0.1,0.3-0.2,0.5
					c-0.1,0.2-0.1,0.4-0.2,0.6l-2.2,5.4h-1.5l-2.2-5.4c-0.1-0.2-0.2-0.4-0.2-0.6c-0.1-0.2-0.1-0.3-0.2-0.5s-0.1-0.3-0.1-0.3V13h-1.5
					V3.2z"/>
				<path class="st6" d="M126.6,8.9h-1.9V13h-1.5V3.2h4c0.5,0,1,0.1,1.4,0.2c0.4,0.1,0.8,0.3,1,0.6c0.3,0.2,0.5,0.5,0.7,0.9
					s0.2,0.7,0.2,1.1c0,0.7-0.2,1.3-0.6,1.8c-0.4,0.5-1,0.8-1.7,1l2.4,4.3h-1.8L126.6,8.9z M124.6,7.6h2.4c1.3,0,1.9-0.5,1.9-1.5
					c0-1-0.6-1.5-1.9-1.5h-2.4V7.6z"/>
				<path class="st6" d="M135.6,8.9h-1.9V13h-1.5V3.2h4c0.5,0,1,0.1,1.4,0.2c0.4,0.1,0.8,0.3,1,0.6c0.3,0.2,0.5,0.5,0.7,0.9
					s0.2,0.7,0.2,1.1c0,0.7-0.2,1.3-0.6,1.8c-0.4,0.5-1,0.8-1.7,1l2.4,4.3h-1.8L135.6,8.9z M133.7,7.6h2.4c1.3,0,1.9-0.5,1.9-1.5
					c0-1-0.6-1.5-1.9-1.5h-2.4V7.6z"/>
			</g>
		</g>
		<path id="Line-3-Copy-2_1_" class="st1" d="M346,734l-1,0l0,5l1,0L346,734z M346,742l-1,0l0,5l1,0L346,742z M346,750l-1,0l0,5l1,0
			L346,750z M346,758l-1,0l0,5l1,0L346,758z M345.9,766l-1,0l0,5l1,0L345.9,766z M345.9,774l-1,0l0,5l1,0L345.9,774z M345.9,782
			l-1,0l0,5l1,0L345.9,782z M345.9,790l-1,0l0,5l1,0L345.9,790z M345.9,798l-1,0l0,5l1,0L345.9,798z M345.9,806l-1,0l0,5l1,0
			L345.9,806z M345.8,814l-1,0l0,5l1,0L345.8,814z M345.8,822l-1,0l0,5l1,0L345.8,822z M345.8,830l-1,0l0,5l1,0L345.8,830z
			 M345.8,838l-1,0l0,5l1,0L345.8,838z M345.8,846l-1,0l0,5l1,0L345.8,846z M345.8,854l-1,0l0,5l1,0L345.8,854z M345.8,862l-1,0
			l0,2.3l1,0L345.8,862z"/>
		<path id="Line-4-Copy-6" class="st1" d="M238.5,72.5v1h5v-1H238.5z M246.5,72.5v1h5v-1H246.5z M254.5,72.5v1h5v-1H254.5z
			 M262.5,72.5v1h5v-1H262.5z M270.5,72.5v1h5v-1H270.5z M278.5,72.5v1h5v-1H278.5z M286.5,72.5v1h5v-1H286.5z"/>
		<polygon id="_x25BA__6_" class="st1" points="284,78.2 292.7,73.2 284,68.2 		"/>
		<polygon id="_x25BA__7_" class="st1" points="264,518.1 272.7,513 264,508 		"/>
		<polygon id="_x25BA__8_" class="st1" points="351,596.1 359.7,591 351,586 		"/>
		<polygon id="_x25BA__9_" class="st1" points="264,714.1 272.7,709 264,704 		"/>
		<polygon id="_x25BA_-copy" class="st1" points="355,804.1 363.7,799 355,794 		"/>
		<polygon id="_x25BA_-copy-2" class="st1" points="355,868.1 363.7,863 355,858 		"/>
	</g>
</g>
</svg>
