<?xml version="1.0" encoding="UTF-8"?>
<svg width="1200px" height="520px" viewBox="0 0 1200 520" version="1.1" xmlns="http://www.w3.org/2000/svg" xmlns:xlink="http://www.w3.org/1999/xlink">
    <!-- Generator: Sketch 63.1 (92452) - https://sketch.com -->
    <title>Group 27</title>
    <desc>Created with Sketch.</desc>
    <g id="Pipedrive-Integration" stroke="none" stroke-width="1" fill="none" fill-rule="evenodd">
        <g id="Group-27">
            <rect id="Rectangle-Copy" stroke="#979797" fill="#E5ECFB" x="0.5" y="0.5" width="1199" height="519"></rect>
            <g id="Group-26-Copy" transform="translate(303.000000, 187.000000)">
                <g id="Group-12" transform="translate(254.000000, 26.000000)">
                    <circle id="Oval" fill="#CFD8EC" cx="47.5" cy="47.5" r="47.5"></circle>
                    <polygon id="+" fill="#68696B" fill-rule="nonzero" points="51.3959732 69 51.3959732 51.3959732 69 51.3959732 69 43.50783 51.3959732 43.50783 51.3959732 26 43.50783 26 43.50783 43.50783 26 43.50783 26 51.3959732 43.50783 51.3959732 43.50783 69"></polygon>
                </g>
                <g id="Group-44" transform="translate(0.000000, 7.000000)" fill="#FF5605">
                    <path d="M118.214276,98.6778648 C118.205119,98.6710047 118.194818,98.6652879 118.185661,98.6584278 C116.353117,97.4487614 113.885306,97.9529796 112.675438,99.7846295 C112.673148,99.7869162 112.670859,99.7903463 112.669715,99.792633 C111.446111,101.63 111.946312,104.10993 113.785724,105.33103 C115.625135,106.553273 118.107826,106.053628 119.330285,104.216262 C120.553889,102.378895 120.053688,99.8989647 118.214276,98.6778648" id="Fill-32"></path>
                    <path d="M77.3699482,134.452543 C74.4092745,134.804728 71.4529611,134.923946 68.512999,134.867071 C68.1390995,133.347864 67.6714526,131.854907 67.1351302,130.382731 C68.0104693,130.421012 68.8879886,130.450543 69.7731385,130.450543 L69.7622376,130.471324 C86.2759514,130.493199 102.071298,123.693409 113.434355,111.668815 C114.891801,110.143046 114.839476,107.721502 113.318806,106.25917 C111.798136,104.797931 109.383596,104.850431 107.926151,106.3762 C107.299351,107.040101 106.65293,107.687596 105.992338,108.317591 C94.1180305,119.626878 78.3684671,124.29606 63.2936669,122.444356 C62.7006601,121.485145 62.0836714,120.541246 61.4165387,119.631253 C60.824622,118.818603 60.1989126,118.033297 59.5535817,117.264396 C62.8489118,117.977516 66.2652415,118.361419 69.7731385,118.360325 L69.7197243,118.371263 C76.8150944,118.387669 83.8243478,116.822525 90.2427745,113.786299 C90.3561435,113.743643 90.4651521,113.693331 90.5708904,113.635362 C91.7972373,112.95943 92.2452626,111.415067 91.5704994,110.184608 C90.8979163,108.955243 89.3587147,108.505715 88.1323679,109.181647 C82.3908846,111.897407 76.1196195,113.297396 69.7731385,113.278803 C57.9348039,113.284271 46.6164403,108.407278 38.4691371,99.7907829 C38.0865169,99.3860985 37.7235182,98.9715705 37.3594295,98.5570425 C37.1752049,98.3503254 36.9953407,98.1425145 36.8165666,97.9325162 C36.6050899,97.6820494 36.4045141,97.4261139 36.1995779,97.1734596 C35.7722642,96.6419012 35.3569414,96.101593 34.9557897,95.5525347 C34.8042677,95.3458176 34.6494755,95.141288 34.5023139,94.9323833 C33.9834329,94.1930141 33.4841735,93.44052 33.0121663,92.670526 C32.9195089,92.5206834 32.8355723,92.3675596 32.7450952,92.2166233 C32.3483039,91.5527222 31.970044,90.87679 31.6092255,90.1921079 C31.5023971,89.9875782 31.3933885,89.7830486 31.2887402,89.5774252 C30.8777778,88.7647753 30.4853468,87.941188 30.1256184,87.1022883 C30.0133395,86.8386966 29.9130516,86.5707299 29.8051331,86.3049507 C29.63944,85.893704 29.4693866,85.4824572 29.3167745,85.0679292 C29.2666306,84.9312115 29.2230271,84.7923063 29.1739732,84.6555886 C28.9766677,84.1032492 28.7848125,83.5487223 28.6103988,82.9909141 C28.5940475,82.9362271 28.5798763,82.88154 28.5635251,82.8279467 C28.3662195,82.1870142 28.1819949,81.5438942 28.0163018,80.8985867 C28.0141217,80.893118 28.0130316,80.8876493 28.0119415,80.8821806 C25.6976888,71.8763135 26.3201279,62.2984195 29.8879796,53.5900501 C35.9019844,38.9590706 49.0680439,29.2663339 63.8190884,27.1619753 C64.0251147,27.133538 64.2300509,27.1007258 64.4349871,27.074476 C64.7064185,27.0394763 64.97894,27.0154139 65.2503714,26.9858829 C65.7289192,26.9366646 66.207467,26.8852587 66.6871049,26.8513527 C66.7459695,26.8469778 66.8048341,26.8447903 66.8636988,26.8404153 C79.2241846,26.0146405 91.844111,30.5088241 101.036807,40.2299982 C101.146905,40.3448411 101.267905,40.4432778 101.393265,40.5318708 C101.744273,40.8643682 102.101821,41.1881157 102.47136,41.499832 C108.272798,46.0454215 116.646839,45.0118358 121.177237,39.1909438 C124.045253,35.5050351 124.786512,30.5842923 123.130671,26.2126077 C122.502781,24.5588706 121.552226,23.0473199 120.33569,21.7665487 L120.293177,21.7665487 C119.874584,21.3235834 119.44945,20.8871806 119.019956,20.4551527 C118.819381,20.254998 118.610084,20.0701557 118.407328,19.8732822 C118.007267,19.4817228 117.601754,19.0967258 117.192972,18.71501 C116.729686,18.2829822 116.265309,17.856423 115.794392,17.4397075 C115.408501,17.0984602 115.01607,16.764869 114.622549,16.4323716 C114.12765,16.0123749 113.630571,15.5978469 113.125861,15.1942563 C112.710538,14.8617589 112.287585,14.5380114 111.865722,14.2153577 C111.390444,13.8533293 110.916257,13.4923946 110.435529,13.1445848 C110.265475,13.0220858 110.101962,12.8886493 109.931909,12.767244 C109.624505,12.5506832 109.30729,12.3516223 108.997705,12.1394364 C108.510437,11.806939 108.023168,11.4744416 107.529359,11.1550691 C107.104226,10.8794463 106.673642,10.6147608 106.243058,10.3489816 C105.687114,10.0055468 105.13008,9.6642995 104.567595,9.33836454 C104.144642,9.09336646 103.715148,8.85821205 103.286744,8.62305763 C102.72753,8.31462254 102.169406,8.00728119 101.603651,7.71634597 C101.101122,7.4560355 100.590962,7.20994367 100.080801,6.96166436 C99.6033435,6.73088491 99.1269759,6.49682424 98.646248,6.27698221 C98.4533027,6.18838915 98.2647179,6.08885868 98.0717726,6.00245311 C97.6749813,5.82526699 97.2683792,5.67214319 96.8683176,5.50261326 C96.3995806,5.30464606 95.9308436,5.10558511 95.4588363,4.91746158 C94.7949739,4.65386989 94.1278413,4.40449684 93.4563482,4.1605925 C93.0562867,4.01621862 92.6562251,3.87293849 92.2539833,3.73512707 C91.5258058,3.48575402 90.7943581,3.24950586 90.05855,3.02528886 C89.7075423,2.91919594 89.3576247,2.81638425 89.0055269,2.71576003 C88.2282955,2.49154303 87.448884,2.27935719 86.664022,2.08248373 C86.347897,2.00373435 86.030682,1.93154741 85.714557,1.85717299 C85.1727843,1.72920524 84.6353718,1.58592511 84.0914189,1.47108226 C83.8254379,1.41639518 83.5572767,1.37920797 83.2912957,1.32670839 C82.9370178,1.25670893 82.5805596,1.19874063 82.2262816,1.13420989 C81.4697619,0.997492207 80.7143323,0.861868267 79.9545423,0.750306638 C79.4465622,0.674838478 78.937492,0.620151405 78.4284218,0.556714401 C77.8016223,0.479058757 77.177003,0.392653182 76.5491134,0.331403661 C75.6476123,0.242810603 74.7461111,0.183748564 73.8424298,0.131248975 C73.5928,0.117030336 73.3453505,0.0896867993 73.0946307,0.0776556433 C71.9097072,0.0207810876 70.7226035,-0.00218748291 69.5365898,0.00218748291 C69.5060674,0.00218748291 69.475545,0 69.4450226,0 C69.0406007,0.00218748291 68.6372688,0.0251560535 68.2328469,0.0339059851 C67.5668043,0.048124624 66.9007617,0.0557808142 66.2347191,0.0896867993 C65.7354597,0.113749111 65.2383805,0.161873735 64.7391211,0.196873462 C64.1537448,0.239529379 63.5683686,0.270154139 62.9840825,0.327028695 C60.8039104,0.537027054 58.632459,0.847649628 56.4773588,1.25999016 C48.6570814,2.76607214 41.1671001,5.63058101 34.3191795,9.69164303 C34.3104588,9.696018 34.3028282,9.70039297 34.2941075,9.70586167 C33.7675959,10.0186717 33.2356339,10.3227319 32.7167529,10.6497605 C32.2730879,10.9297584 31.843594,11.2294435 31.4064695,11.519285 C31.3857579,11.5335036 31.3639561,11.5466285 31.3432445,11.5619409 C28.196166,13.6509871 25.2115104,15.9773752 22.4394216,18.5476676 C19.2432892,21.5281131 16.3262189,24.7951188 13.7230934,28.3093101 C11.1537606,31.7710018 8.9070932,35.4645667 7.01361371,39.3407864 C5.14520621,43.1874751 3.63761718,47.1993188 2.50719794,51.3249115 C2.06789326,52.9283365 1.70271443,54.5503551 1.37895887,56.1789361 C1.36369766,56.2533105 1.34843646,56.3265912 1.33426534,56.4009656 C1.14132011,57.3820517 0.97126668,58.3675128 0.819744718,59.356255 C0.792492566,59.5356286 0.763060243,59.7150022 0.736898177,59.8954696 C0.609358108,60.7846814 0.500349502,61.6749869 0.406602101,62.5685737 C0.378259863,62.8332591 0.346647367,63.0968508 0.321575388,63.3615362 C0.299773667,63.5846595 0.268161171,63.8055953 0.249629708,64.0287185 C0.209296524,64.5099648 0.195125405,64.991211 0.164602995,65.473551 C0.130810327,65.9985469 0.0948374873,66.5235428 0.0730357661,67.0507262 C0.053414217,67.5243162 0.0479637867,67.9979063 0.0381530121,68.4714963 C0.0261620655,68.9910235 0,69.5072695 0,70.0278904 C0,70.2357013 0.0141711188,70.4402309 0.0163512909,70.6469481 C0.018531463,70.9925704 0.0337926679,71.3381927 0.0414232703,71.6849087 C0.0621349055,72.546777 0.0882969709,73.4075515 0.139531016,74.2617636 C0.14934179,74.4137936 0.164602995,74.5658237 0.17441377,74.7189475 C0.727087403,83.0587261 2.73284575,90.9960078 5.94532938,98.2825134 C5.95841041,98.3131382 5.97258153,98.3426692 5.98566256,98.373294 C6.43804827,99.3948485 6.9133258,100.404372 7.41258521,101.399677 C7.46926969,101.514519 7.52922442,101.628269 7.58699898,101.742018 C8.04810539,102.648729 8.52665317,103.544504 9.0248225,104.428247 C9.06951603,104.50809 9.10875912,104.591214 9.15454274,104.671057 C9.21340739,104.773869 9.27881255,104.871212 9.33658711,104.97293 C9.8303961,105.830423 10.3416465,106.676979 10.8714283,107.511504 C10.9891576,107.698534 11.109067,107.885563 11.2300666,108.072593 C11.754398,108.881962 12.2950807,109.679299 12.8510246,110.465699 C12.996006,110.670229 13.1398974,110.876946 13.287059,111.080382 C13.8266516,111.826314 14.3836856,112.560214 14.9527105,113.284271 C15.1336648,113.513957 15.3113488,113.746924 15.4944833,113.975516 C16.036256,114.648167 16.5943801,115.305505 17.1601348,115.956282 C17.3290981,116.152061 17.4871606,116.356591 17.6593942,116.550183 C17.7171687,116.614714 17.7782136,116.67487 17.8359881,116.7394 C18.4442561,117.418614 19.0710556,118.081421 19.7054857,118.736572 C19.8188547,118.852509 19.9267732,118.973914 20.0412322,119.089851 C20.8042925,119.868595 21.5858842,120.626558 22.3849173,121.369208 L22.4252504,121.407489 C23.2013917,122.127171 23.9960645,122.828259 24.8038182,123.512941 C24.8703135,123.568722 24.9346286,123.627784 25.0011238,123.683565 C25.6475448,124.227154 26.308137,124.751057 26.9741796,125.270584 C27.1878364,125.437926 27.3938627,125.616206 27.6096997,125.781361 C27.6663842,125.825111 27.7252489,125.864485 27.7830234,125.908235 C28.1776346,126.206827 28.5820565,126.492293 28.9832082,126.783228 C29.51299,127.168225 30.0416817,127.553222 30.5823644,127.922907 C30.8341743,128.095718 31.0914346,128.258685 31.3454247,128.427122 C32.0485302,128.895243 32.7570861,129.354614 33.4765429,129.79758 C33.6204343,129.885079 33.7665058,129.968203 33.9103972,130.054609 C34.7519436,130.563199 35.6022107,131.056476 36.4655589,131.528972 C36.5222434,131.559597 36.5800179,131.589128 36.6367024,131.619753 C37.264592,131.962094 37.8913915,132.30881 38.5301819,132.631464 C38.8582978,132.796619 39.1951344,132.944274 39.5276106,133.105054 C39.5287007,133.106148 39.5308809,133.106148 39.5330611,133.107241 C40.5370303,133.592863 41.5540806,134.053328 42.5798516,134.488637 C42.6136443,134.502855 42.6463469,134.51598 42.6801395,134.530199 C43.6601269,134.944727 44.6477449,135.335193 45.6462637,135.703784 C45.7520021,135.742065 45.8588305,135.780345 45.9645688,135.81972 C46.8737006,136.148936 47.7882828,136.459559 48.7104956,136.750494 C48.9241525,136.818306 49.1378094,136.885024 49.3525563,136.950649 C49.7275459,137.064398 50.0970851,137.192366 50.4742549,137.300646 C50.9037488,137.423145 51.337603,137.523769 51.7692771,137.638612 C52.1072038,137.729393 52.4462206,137.81908 52.7863274,137.904391 C53.477442,138.076109 54.1707367,138.234701 54.8651215,138.385638 C55.3098766,138.481887 55.7524516,138.57923 56.2004769,138.667823 C56.796754,138.784853 57.3952113,138.887665 57.9958487,138.989383 C58.532171,139.081257 59.0674033,139.175319 59.608086,139.254068 C60.102985,139.326255 60.5989742,139.382036 61.0949634,139.443286 C61.7392042,139.523129 62.3801748,139.607347 63.0298661,139.66969 C63.0647489,139.672971 63.1007217,139.67844 63.1356045,139.681721 C63.484432,139.714533 63.8321695,139.729846 64.1799069,139.757189 C65.1620745,139.834845 66.1486023,139.897188 67.1416707,139.933282 C67.9167219,139.963907 68.6917731,139.994531 69.4668243,140 C69.4657342,139.996719 69.4657342,139.994531 69.4657342,139.992344 C69.5682023,139.992344 69.6695803,140 69.7731385,140 L69.7731385,139.989063 C72.5059842,139.990156 75.2355597,139.83047 77.949874,139.512191 C79.2187342,139.289068 80.1202354,138.149389 80.0493798,136.858775 C79.9719837,135.452223 78.7717989,134.374888 77.3699482,134.452543" id="Fill-34"></path>
                    <path d="M107.92309,121.516452 C100.790448,126.947898 92.6257091,130.817803 83.9449221,132.881307 C82.8131219,133.165123 82.0133018,134.19131 82,135.375543 C81.9848151,136.809089 83.1166153,137.983305 84.5278047,138 C84.7250206,137.995548 84.9200452,137.969949 85.1117829,137.924316 C94.4751561,135.698313 103.283038,131.524559 110.977745,125.664607 C112.105163,124.807596 112.335248,123.184841 111.491602,122.038449 C110.647956,120.893171 109.050508,120.659441 107.92309,121.516452" id="Fill-36"></path>
                    <path d="M116.592125,113.802373 C115.700402,114.756143 114.754935,115.689108 113.799596,116.590317 C113.291764,117.071035 113.002201,117.739003 113,118.437632 C112.996717,119.848029 114.138517,120.99562 115.551233,121 C116.200557,120.998905 116.824653,120.748143 117.292999,120.300276 C118.332794,119.335556 119.341877,118.350029 120.308185,117.290041 C121.272298,116.265094 121.222941,114.654305 120.196308,113.69068 C119.170772,112.728149 117.556238,112.777425 116.592125,113.802373" id="Fill-38"></path>
                    <path d="M100.676029,98.776289 C98.6907446,100.911253 96.4683473,102.813664 94.0519482,104.445841 C93.3955758,104.914176 93.004339,105.668896 93,106.475295 C92.9935611,107.861998 94.1133821,108.992464 95.5015721,109 L95.5436058,108.958011 C96.0674104,108.955858 96.5772038,108.79221 97.0040076,108.488599 C99.6596754,106.676625 102.108408,104.58042 104.306016,102.235512 C105.263091,101.234243 105.225369,99.6483621 104.223027,98.6923116 C103.220684,97.7373378 101.632026,97.7750199 100.676029,98.776289" id="Fill-40"></path>
                    <path d="M53,69.5 C53,78.6121356 60.3867737,86 69.5,86 C78.6121356,86 86,78.6121356 86,69.5 C86,60.3878644 78.6121356,53 69.5,53 C60.3867737,53 53,60.3878644 53,69.5" id="Fill-42"></path>
                </g>
                <g id="Pipedrive_letter_logo_light" transform="translate(479.000000, 0.000000)" fill="#26292C" fill-rule="nonzero">
                    <path d="M40.363458,55.6118246 C40.363458,69.4357157 47.3340478,84.3484953 62.6735167,84.3484953 C74.0493659,84.3484953 85.5513689,75.4136348 85.5513689,55.4089864 C85.5513689,37.8701762 76.5095344,26.0958534 63.0520457,26.0958534 C52.0862471,26.0958534 40.363458,33.8457371 40.363458,55.6118246 Z M68.4560736,0.48684225 C95.9599038,0.48684225 114.453489,22.402325 114.453489,55.0247009 C114.453489,87.1346506 94.9715975,109.551844 67.1208274,109.551844 C53.842006,109.551844 45.3364434,103.830124 40.8891327,99.6882739 C40.9207218,100.670345 40.9417136,101.769894 40.9417136,102.944074 L40.9417136,146.486842 L12.4496109,146.486842 L12.4496109,30.472526 C12.4496109,28.7858525 11.9134133,28.2521716 10.2522528,28.2521716 L0.4534885,28.2521716 L0.4534885,2.84599853 L24.3616308,2.84599853 C35.3694807,2.84599853 38.1871187,8.4822776 38.7233232,12.826966 C43.1916932,7.78847202 52.4542464,0.48684225 68.4560736,0.48684225 Z" id="path-1"></path>
                </g>
            </g>
        </g>
    </g>
</svg>