<?xml version="1.0" encoding="UTF-8"?>
<svg width="807px" height="545px" viewBox="0 0 807 545" version="1.1" xmlns="http://www.w3.org/2000/svg" xmlns:xlink="http://www.w3.org/1999/xlink">
    <!-- Generator: Sketch 63.1 (92452) - https://sketch.com -->
    <title>Group 34</title>
    <desc>Created with Sketch.</desc>
    <defs>
        <rect id="path-1" x="87" y="189" width="215.466102" height="225" rx="15"></rect>
        <filter x="-17.2%" y="-15.6%" width="134.3%" height="132.9%" filterUnits="objectBoundingBox" id="filter-2">
            <feOffset dx="0" dy="2" in="SourceAlpha" result="shadowOffsetOuter1"></feOffset>
            <feGaussianBlur stdDeviation="12" in="shadowOffsetOuter1" result="shadowBlurOuter1"></feGaussianBlur>
            <feColorMatrix values="0 0 0 0 0.781221694   0 0 0 0 0.781221694   0 0 0 0 0.781221694  0 0 0 0.5 0" type="matrix" in="shadowBlurOuter1"></feColorMatrix>
        </filter>
        <rect id="path-3" x="113" y="171" width="225" height="261" rx="15"></rect>
        <filter x="-16.4%" y="-13.4%" width="132.9%" height="128.4%" filterUnits="objectBoundingBox" id="filter-4">
            <feOffset dx="0" dy="2" in="SourceAlpha" result="shadowOffsetOuter1"></feOffset>
            <feGaussianBlur stdDeviation="12" in="shadowOffsetOuter1" result="shadowBlurOuter1"></feGaussianBlur>
            <feColorMatrix values="0 0 0 0 0.781221694   0 0 0 0 0.781221694   0 0 0 0 0.781221694  0 0 0 0.5 0" type="matrix" in="shadowBlurOuter1"></feColorMatrix>
        </filter>
        <rect id="path-5" x="139" y="151" width="236" height="300" rx="15"></rect>
        <filter x="-15.7%" y="-11.7%" width="131.4%" height="124.7%" filterUnits="objectBoundingBox" id="filter-6">
            <feOffset dx="0" dy="2" in="SourceAlpha" result="shadowOffsetOuter1"></feOffset>
            <feGaussianBlur stdDeviation="12" in="shadowOffsetOuter1" result="shadowBlurOuter1"></feGaussianBlur>
            <feColorMatrix values="0 0 0 0 0.781221694   0 0 0 0 0.781221694   0 0 0 0 0.781221694  0 0 0 0.5 0" type="matrix" in="shadowBlurOuter1"></feColorMatrix>
        </filter>
        <rect id="path-7" x="510.533898" y="189" width="215.466102" height="225" rx="15"></rect>
        <filter x="-17.2%" y="-15.6%" width="134.3%" height="132.9%" filterUnits="objectBoundingBox" id="filter-8">
            <feOffset dx="0" dy="2" in="SourceAlpha" result="shadowOffsetOuter1"></feOffset>
            <feGaussianBlur stdDeviation="12" in="shadowOffsetOuter1" result="shadowBlurOuter1"></feGaussianBlur>
            <feColorMatrix values="0 0 0 0 0.781221694   0 0 0 0 0.781221694   0 0 0 0 0.781221694  0 0 0 0.5 0" type="matrix" in="shadowBlurOuter1"></feColorMatrix>
        </filter>
        <rect id="path-9" x="475" y="171" width="225" height="261" rx="15"></rect>
        <filter x="-16.4%" y="-13.4%" width="132.9%" height="128.4%" filterUnits="objectBoundingBox" id="filter-10">
            <feOffset dx="0" dy="2" in="SourceAlpha" result="shadowOffsetOuter1"></feOffset>
            <feGaussianBlur stdDeviation="12" in="shadowOffsetOuter1" result="shadowBlurOuter1"></feGaussianBlur>
            <feColorMatrix values="0 0 0 0 0.781221694   0 0 0 0 0.781221694   0 0 0 0 0.781221694  0 0 0 0.5 0" type="matrix" in="shadowBlurOuter1"></feColorMatrix>
        </filter>
        <rect id="path-11" x="438" y="146" width="236" height="310" rx="15"></rect>
        <filter x="-15.7%" y="-11.3%" width="131.4%" height="123.9%" filterUnits="objectBoundingBox" id="filter-12">
            <feOffset dx="0" dy="2" in="SourceAlpha" result="shadowOffsetOuter1"></feOffset>
            <feGaussianBlur stdDeviation="12" in="shadowOffsetOuter1" result="shadowBlurOuter1"></feGaussianBlur>
            <feColorMatrix values="0 0 0 0 0.781221694   0 0 0 0 0.781221694   0 0 0 0 0.781221694  0 0 0 0.5 0" type="matrix" in="shadowBlurOuter1"></feColorMatrix>
        </filter>
    </defs>
    <g id="Pipedrive-Integration" stroke="none" stroke-width="1" fill="none" fill-rule="evenodd">
        <g id="Group-34">
            <g id="Group-33">
                <rect id="Rectangle" fill="#E1E9FB" opacity="0.831821987" x="0" y="0" width="807" height="545"></rect>
                <g id="Rectangle">
                    <use fill="black" fill-opacity="1" filter="url(#filter-2)" xlink:href="#path-1"></use>
                    <use fill="#FFFFFF" fill-rule="evenodd" xlink:href="#path-1"></use>
                </g>
                <g id="Rectangle">
                    <use fill="black" fill-opacity="1" filter="url(#filter-4)" xlink:href="#path-3"></use>
                    <use fill="#FFFFFF" fill-rule="evenodd" xlink:href="#path-3"></use>
                </g>
                <g id="Rectangle-Copy-22">
                    <use fill="black" fill-opacity="1" filter="url(#filter-6)" xlink:href="#path-5"></use>
                    <use fill="#FFFFFF" fill-rule="evenodd" xlink:href="#path-5"></use>
                </g>
                <g id="Rectangle" transform="translate(618.266949, 301.500000) scale(-1, 1) translate(-618.266949, -301.500000) ">
                    <use fill="black" fill-opacity="1" filter="url(#filter-8)" xlink:href="#path-7"></use>
                    <use fill="#FFFFFF" fill-rule="evenodd" xlink:href="#path-7"></use>
                </g>
                <g id="Rectangle" transform="translate(587.500000, 301.500000) scale(-1, 1) translate(-587.500000, -301.500000) ">
                    <use fill="black" fill-opacity="1" filter="url(#filter-10)" xlink:href="#path-9"></use>
                    <use fill="#FFFFFF" fill-rule="evenodd" xlink:href="#path-9"></use>
                </g>
                <g id="Rectangle-Copy-22" transform="translate(556.000000, 301.000000) scale(-1, 1) translate(-556.000000, -301.000000) ">
                    <use fill="black" fill-opacity="1" filter="url(#filter-12)" xlink:href="#path-11"></use>
                    <use fill="#FFFFFF" fill-rule="evenodd" xlink:href="#path-11"></use>
                </g>
                <path d="M217.2135,265.182 C217.7075,265.182 218.147333,265.13 218.533,265.026 C218.918667,264.922 219.269667,264.768167 219.586,264.5645 C219.902333,264.360833 220.1905,264.111667 220.4505,263.817 C220.7105,263.522333 220.9575,263.18 221.1915,262.79 L221.1915,262.79 L220.1125,262.023 C219.765833,262.673 219.354167,263.149667 218.8775,263.453 C218.400833,263.756333 217.854833,263.908 217.2395,263.908 C216.788833,263.908 216.375,263.821333 215.998,263.648 C215.621,263.474667 215.293833,263.232 215.0165,262.92 C214.739167,262.608 214.5225,262.241833 214.3665,261.8215 C214.2105,261.401167 214.1325,260.944 214.1325,260.45 C214.1325,259.947333 214.214833,259.485833 214.3795,259.0655 C214.544167,258.645167 214.767333,258.281167 215.049,257.9735 C215.330667,257.665833 215.66,257.425333 216.037,257.252 C216.414,257.078667 216.819167,256.992 217.2525,256.992 C217.8765,256.992 218.416,257.148 218.871,257.46 C219.326,257.772 219.718167,258.244333 220.0475,258.877 L220.0475,258.877 L221.1655,258.071 C221.0095,257.724333 220.805833,257.408 220.5545,257.122 C220.303167,256.836 220.012833,256.589 219.6835,256.381 C219.354167,256.173 218.988,256.0105 218.585,255.8935 C218.182,255.7765 217.7465,255.718 217.2785,255.718 C216.645833,255.718 216.052167,255.835 215.4975,256.069 C214.942833,256.303 214.4575,256.628 214.0415,257.044 C213.6255,257.46 213.298333,257.958333 213.06,258.539 C212.821667,259.119667 212.7025,259.756667 212.7025,260.45 C212.7025,261.143333 212.815167,261.780333 213.0405,262.361 C213.265833,262.941667 213.58,263.44 213.983,263.856 C214.386,264.272 214.862667,264.597 215.413,264.831 C215.963333,265.065 216.5635,265.182 217.2135,265.182 Z M225.1435,265.182 C225.6115,265.182 226.025333,265.075833 226.385,264.8635 C226.744667,264.651167 227.0285,264.35 227.2365,263.96 L227.2365,263.96 L227.2365,265 L228.5625,265 L228.5625,258.552 L227.2365,258.552 L227.2365,262.036 C227.2365,262.313333 227.193167,262.571167 227.1065,262.8095 C227.019833,263.047833 226.900667,263.2515 226.749,263.4205 C226.597333,263.5895 226.4175,263.721667 226.2095,263.817 C226.0015,263.912333 225.7805,263.96 225.5465,263.96 C225.087167,263.96 224.734,263.83 224.487,263.57 C224.24,263.31 224.1165,262.928667 224.1165,262.426 L224.1165,262.426 L224.1165,258.552 L222.7905,258.552 L222.7905,262.699 C222.7905,263.123667 222.853333,263.492 222.979,263.804 C223.104667,264.116 223.275833,264.373833 223.4925,264.5775 C223.709167,264.781167 223.9605,264.932833 224.2465,265.0325 C224.5325,265.132167 224.8315,265.182 225.1435,265.182 Z M232.6835,265.182 C233.082167,265.182 233.435333,265.125667 233.743,265.013 C234.050667,264.900333 234.310667,264.750833 234.523,264.5645 C234.735333,264.378167 234.897833,264.157167 235.0105,263.9015 C235.123167,263.645833 235.1795,263.375 235.1795,263.089 C235.1795,262.543 235.001833,262.118333 234.6465,261.815 C234.291167,261.511667 233.745167,261.286333 233.0085,261.139 C232.4885,261.043667 232.089833,260.918 231.8125,260.762 C231.535167,260.606 231.3965,260.389333 231.3965,260.112 C231.3965,259.886667 231.509167,259.709 231.7345,259.579 C231.959833,259.449 232.224167,259.384 232.5275,259.384 C232.874167,259.384 233.188333,259.479333 233.47,259.67 C233.751667,259.860667 233.966167,260.151 234.1135,260.541 L234.1135,260.541 L235.0885,259.969 C234.863167,259.440333 234.546833,259.041667 234.1395,258.773 C233.732167,258.504333 233.186167,258.37 232.5015,258.37 C232.198167,258.37 231.907833,258.409 231.6305,258.487 C231.353167,258.565 231.108333,258.682 230.896,258.838 C230.683667,258.994 230.514667,259.184667 230.389,259.41 C230.263333,259.635333 230.2005,259.891 230.2005,260.177 C230.2005,260.463 230.259,260.714333 230.376,260.931 C230.493,261.147667 230.651167,261.334 230.8505,261.49 C231.049833,261.646 231.281667,261.776 231.546,261.88 C231.810333,261.984 232.094167,262.066333 232.3975,262.127 C232.9175,262.231 233.301,262.3545 233.548,262.4975 C233.795,262.6405 233.9185,262.850667 233.9185,263.128 C233.9185,263.405333 233.799333,263.6285 233.561,263.7975 C233.322667,263.9665 233.0345,264.051 232.6965,264.051 C232.2545,264.051 231.886167,263.9145 231.5915,263.6415 C231.296833,263.3685 231.0715,263.019667 230.9155,262.595 L230.9155,262.595 L229.8365,263.271 C229.931833,263.522333 230.064,263.765 230.233,263.999 C230.402,264.233 230.6035,264.436667 230.8375,264.61 C231.0715,264.783333 231.342333,264.922 231.65,265.026 C231.957667,265.13 232.302167,265.182 232.6835,265.182 Z M238.8195,265.182 C239.010167,265.182 239.187833,265.166833 239.3525,265.1365 C239.517167,265.106167 239.660167,265.069333 239.7815,265.026 L239.7815,265.026 L239.6645,263.908 C239.595167,263.925333 239.515,263.942667 239.424,263.96 C239.333,263.977333 239.252833,263.986 239.1835,263.986 C238.8715,263.986 238.646167,263.908 238.5075,263.752 C238.368833,263.596 238.2995,263.357667 238.2995,263.037 L238.2995,263.037 L238.2995,259.618 L239.7425,259.618 L239.7425,258.552 L238.2995,258.552 L238.2995,256.81 L236.9735,256.81 L236.9735,258.552 L235.9335,258.552 L235.9335,259.618 L236.9735,259.618 L236.9735,263.271 C236.9735,263.635 237.023333,263.9405 237.123,264.1875 C237.222667,264.4345 237.357,264.631667 237.526,264.779 C237.695,264.926333 237.892167,265.030333 238.1175,265.091 C238.342833,265.151667 238.576833,265.182 238.8195,265.182 Z M243.9545,265.182 C244.379167,265.182 244.797333,265.1105 245.209,264.9675 C245.620667,264.8245 245.989,264.61 246.314,264.324 C246.639,264.038 246.901167,263.682667 247.1005,263.258 C247.299833,262.833333 247.3995,262.339333 247.3995,261.776 C247.3995,261.221333 247.299833,260.731667 247.1005,260.307 C246.901167,259.882333 246.639,259.527 246.314,259.241 C245.989,258.955 245.620667,258.738333 245.209,258.591 C244.797333,258.443667 244.379167,258.37 243.9545,258.37 C243.529833,258.37 243.111667,258.443667 242.7,258.591 C242.288333,258.738333 241.92,258.955 241.595,259.241 C241.27,259.527 241.007833,259.882333 240.8085,260.307 C240.609167,260.731667 240.5095,261.221333 240.5095,261.776 C240.5095,262.339333 240.609167,262.833333 240.8085,263.258 C241.007833,263.682667 241.27,264.038 241.595,264.324 C241.92,264.61 242.288333,264.8245 242.7,264.9675 C243.111667,265.1105 243.529833,265.182 243.9545,265.182 Z M243.9545,263.96 C243.6685,263.96 243.399833,263.908 243.1485,263.804 C242.897167,263.7 242.676167,263.552667 242.4855,263.362 C242.294833,263.171333 242.143167,262.941667 242.0305,262.673 C241.917833,262.404333 241.8615,262.105333 241.8615,261.776 C241.8615,261.446667 241.917833,261.147667 242.0305,260.879 C242.143167,260.610333 242.294833,260.380667 242.4855,260.19 C242.676167,259.999333 242.897167,259.852 243.1485,259.748 C243.399833,259.644 243.6685,259.592 243.9545,259.592 C244.2405,259.592 244.509167,259.644 244.7605,259.748 C245.011833,259.852 245.232833,259.999333 245.4235,260.19 C245.614167,260.380667 245.765833,260.610333 245.8785,260.879 C245.991167,261.147667 246.0475,261.446667 246.0475,261.776 C246.0475,262.105333 245.991167,262.404333 245.8785,262.673 C245.765833,262.941667 245.614167,263.171333 245.4235,263.362 C245.232833,263.552667 245.011833,263.7 244.7605,263.804 C244.509167,263.908 244.2405,263.96 243.9545,263.96 Z M250.1425,265 L250.1425,261.451 C250.1425,260.809667 250.287667,260.330833 250.578,260.0145 C250.868333,259.698167 251.2085,259.54 251.5985,259.54 C251.953833,259.54 252.220333,259.654833 252.398,259.8845 C252.575667,260.114167 252.6645,260.411 252.6645,260.775 L252.6645,260.775 L252.6645,265 L253.9905,265 L253.9905,261.451 C253.9905,260.775 254.129167,260.2875 254.4065,259.9885 C254.683833,259.6895 255.0175,259.54 255.4075,259.54 C255.7975,259.54 256.081333,259.646167 256.259,259.8585 C256.436667,260.070833 256.5255,260.363333 256.5255,260.736 L256.5255,260.736 L256.5255,265 L257.8515,265 L257.8515,260.281 C257.8515,259.709 257.673833,259.2475 257.3185,258.8965 C256.963167,258.5455 256.477833,258.37 255.8625,258.37 C255.4205,258.37 255.024,258.463167 254.673,258.6495 C254.322,258.835833 254.033833,259.124 253.8085,259.514 C253.669833,259.132667 253.451,258.846667 253.152,258.656 C252.853,258.465333 252.4825,258.37 252.0405,258.37 C251.6505,258.37 251.2865,258.469667 250.9485,258.669 C250.6105,258.868333 250.341833,259.137 250.1425,259.475 L250.1425,259.475 L250.1425,258.552 L248.8165,258.552 L248.8165,265 L250.1425,265 Z M262.4535,265.182 C263.190167,265.182 263.796833,265.023833 264.2735,264.7075 C264.750167,264.391167 265.140167,263.921 265.4435,263.297 L265.4435,263.297 L264.4165,262.686 C264.321167,262.876667 264.217167,263.054333 264.1045,263.219 C263.991833,263.383667 263.859667,263.5245 263.708,263.6415 C263.556333,263.7585 263.380833,263.851667 263.1815,263.921 C262.982167,263.990333 262.7525,264.025 262.4925,264.025 C262.2065,264.025 261.9465,263.977333 261.7125,263.882 C261.4785,263.786667 261.274833,263.650167 261.1015,263.4725 C260.928167,263.294833 260.791667,263.086833 260.692,262.8485 C260.592333,262.610167 260.538167,262.348 260.5295,262.062 L260.5295,262.062 L265.6385,262.062 L265.6385,261.594 C265.6385,261.126 265.562667,260.694833 265.411,260.3005 C265.259333,259.906167 265.047,259.566 264.774,259.28 C264.501,258.994 264.173833,258.770833 263.7925,258.6105 C263.411167,258.450167 262.9865,258.37 262.5185,258.37 C262.059167,258.37 261.628,258.452333 261.225,258.617 C260.822,258.781667 260.471,259.0135 260.172,259.3125 C259.873,259.6115 259.636833,259.971167 259.4635,260.3915 C259.290167,260.811833 259.2035,261.273333 259.2035,261.776 C259.2035,262.278667 259.290167,262.740167 259.4635,263.1605 C259.636833,263.580833 259.870833,263.9405 260.1655,264.2395 C260.460167,264.5385 260.804667,264.770333 261.199,264.935 C261.593333,265.099667 262.0115,265.182 262.4535,265.182 Z M264.3775,261.048 L260.5295,261.048 C260.590167,260.814 260.681167,260.5995 260.8025,260.4045 C260.923833,260.2095 261.069,260.0405 261.238,259.8975 C261.407,259.7545 261.597667,259.641833 261.81,259.5595 C262.022333,259.477167 262.249833,259.436 262.4925,259.436 C262.717833,259.436 262.936667,259.470667 263.149,259.54 C263.361333,259.609333 263.554167,259.711167 263.7275,259.8455 C263.900833,259.979833 264.046,260.148833 264.163,260.3525 C264.28,260.556167 264.3515,260.788 264.3775,261.048 L264.3775,261.048 Z M268.4075,265 L268.4075,261.607 C268.4075,261.321 268.4465,261.056667 268.5245,260.814 C268.6025,260.571333 268.713,260.361167 268.856,260.1835 C268.999,260.005833 269.170167,259.867167 269.3695,259.7675 C269.568833,259.667833 269.7855,259.618 270.0195,259.618 C270.184167,259.618 270.353167,259.644 270.5265,259.696 L270.5265,259.696 L270.7475,258.435 C270.660833,258.417667 270.580667,258.4025 270.507,258.3895 C270.433333,258.3765 270.353167,258.37 270.2665,258.37 C269.8245,258.37 269.4475,258.487 269.1355,258.721 C268.8235,258.955 268.580833,259.262667 268.4075,259.644 L268.4075,259.644 L268.4075,258.552 L267.0815,258.552 L267.0815,265 L268.4075,265 Z M278.2095,265 C278.902833,265 279.542,264.9025 280.127,264.7075 C280.712,264.5125 281.219,264.224333 281.648,263.843 C282.077,263.461667 282.410667,262.987167 282.649,262.4195 C282.887333,261.851833 283.0065,261.195333 283.0065,260.45 C283.0065,259.704667 282.887333,259.048167 282.649,258.4805 C282.410667,257.912833 282.077,257.438333 281.648,257.057 C281.219,256.675667 280.712,256.3875 280.127,256.1925 C279.542,255.9975 278.902833,255.9 278.2095,255.9 L278.2095,255.9 L275.5835,255.9 L275.5835,265 L278.2095,265 Z M278.2355,263.726 L276.9875,263.726 L276.9875,257.174 L278.2355,257.174 C278.7295,257.174 279.182333,257.241167 279.594,257.3755 C280.005667,257.509833 280.356667,257.711333 280.647,257.98 C280.937333,258.248667 281.164833,258.588833 281.3295,259.0005 C281.494167,259.412167 281.5765,259.895333 281.5765,260.45 C281.5765,261.004667 281.494167,261.487833 281.3295,261.8995 C281.164833,262.311167 280.937333,262.651333 280.647,262.92 C280.356667,263.188667 280.005667,263.390167 279.594,263.5245 C279.182333,263.658833 278.7295,263.726 278.2355,263.726 L278.2355,263.726 Z M286.1005,265.182 C286.577167,265.182 287.001833,265.0715 287.3745,264.8505 C287.747167,264.6295 288.0375,264.302333 288.2455,263.869 C288.262833,264.172333 288.308333,264.412833 288.382,264.5905 C288.455667,264.768167 288.5315,264.904667 288.6095,265 L288.6095,265 L289.9355,265 C289.788167,264.757333 289.686333,264.521167 289.63,264.2915 C289.573667,264.061833 289.5455,263.760667 289.5455,263.388 L289.5455,263.388 L289.5455,260.554 C289.5455,259.852 289.320167,259.3125 288.8695,258.9355 C288.418833,258.5585 287.7515,258.37 286.8675,258.37 C286.460167,258.37 286.096167,258.422 285.7755,258.526 C285.454833,258.63 285.181833,258.770833 284.9565,258.9485 C284.731167,259.126167 284.56,259.329833 284.443,259.5595 C284.326,259.789167 284.2675,260.029667 284.2675,260.281 C284.2675,260.463 284.302167,260.636333 284.3715,260.801 L284.3715,260.801 L285.5545,260.398 C285.537167,260.346 285.5285,260.309167 285.5285,260.2875 L285.5285,260.2875 L285.5285,260.203 C285.5285,259.977667 285.636833,259.7805 285.8535,259.6115 C286.070167,259.4425 286.408167,259.358 286.8675,259.358 C287.768833,259.358 288.2195,259.730667 288.2195,260.476 L288.2195,260.476 L288.2195,260.749 L286.1785,261.074 C285.8665,261.126 285.574,261.204 285.301,261.308 C285.028,261.412 284.7875,261.5485 284.5795,261.7175 C284.3715,261.8865 284.206833,262.0945 284.0855,262.3415 C283.964167,262.5885 283.9035,262.872333 283.9035,263.193 C283.9035,263.487667 283.957667,263.756333 284.066,263.999 C284.174333,264.241667 284.323833,264.451833 284.5145,264.6295 C284.705167,264.807167 284.934833,264.943667 285.2035,265.039 C285.472167,265.134333 285.771167,265.182 286.1005,265.182 Z M286.3085,264.077 C285.979167,264.077 285.717,263.990333 285.522,263.817 C285.327,263.643667 285.2295,263.409667 285.2295,263.115 C285.2295,262.811667 285.335667,262.571167 285.548,262.3935 C285.760333,262.215833 286.070167,262.092333 286.4775,262.023 L286.4775,262.023 L288.2195,261.724 L288.2195,261.906 C288.2195,262.218 288.174,262.506167 288.083,262.7705 C287.992,263.034833 287.864167,263.2645 287.6995,263.4595 C287.534833,263.6545 287.333333,263.806167 287.095,263.9145 C286.856667,264.022833 286.5945,264.077 286.3085,264.077 Z M293.4455,265.182 C293.636167,265.182 293.813833,265.166833 293.9785,265.1365 C294.143167,265.106167 294.286167,265.069333 294.4075,265.026 L294.4075,265.026 L294.2905,263.908 C294.221167,263.925333 294.141,263.942667 294.05,263.96 C293.959,263.977333 293.878833,263.986 293.8095,263.986 C293.4975,263.986 293.272167,263.908 293.1335,263.752 C292.994833,263.596 292.9255,263.357667 292.9255,263.037 L292.9255,263.037 L292.9255,259.618 L294.3685,259.618 L294.3685,258.552 L292.9255,258.552 L292.9255,256.81 L291.5995,256.81 L291.5995,258.552 L290.5595,258.552 L290.5595,259.618 L291.5995,259.618 L291.5995,263.271 C291.5995,263.635 291.649333,263.9405 291.749,264.1875 C291.848667,264.4345 291.983,264.631667 292.152,264.779 C292.321,264.926333 292.518167,265.030333 292.7435,265.091 C292.968833,265.151667 293.202833,265.182 293.4455,265.182 Z M297.5665,265.182 C298.043167,265.182 298.467833,265.0715 298.8405,264.8505 C299.213167,264.6295 299.5035,264.302333 299.7115,263.869 C299.728833,264.172333 299.774333,264.412833 299.848,264.5905 C299.921667,264.768167 299.9975,264.904667 300.0755,265 L300.0755,265 L301.4015,265 C301.254167,264.757333 301.152333,264.521167 301.096,264.2915 C301.039667,264.061833 301.0115,263.760667 301.0115,263.388 L301.0115,263.388 L301.0115,260.554 C301.0115,259.852 300.786167,259.3125 300.3355,258.9355 C299.884833,258.5585 299.2175,258.37 298.3335,258.37 C297.926167,258.37 297.562167,258.422 297.2415,258.526 C296.920833,258.63 296.647833,258.770833 296.4225,258.9485 C296.197167,259.126167 296.026,259.329833 295.909,259.5595 C295.792,259.789167 295.7335,260.029667 295.7335,260.281 C295.7335,260.463 295.768167,260.636333 295.8375,260.801 L295.8375,260.801 L297.0205,260.398 C297.003167,260.346 296.9945,260.309167 296.9945,260.2875 L296.9945,260.2875 L296.9945,260.203 C296.9945,259.977667 297.102833,259.7805 297.3195,259.6115 C297.536167,259.4425 297.874167,259.358 298.3335,259.358 C299.234833,259.358 299.6855,259.730667 299.6855,260.476 L299.6855,260.476 L299.6855,260.749 L297.6445,261.074 C297.3325,261.126 297.04,261.204 296.767,261.308 C296.494,261.412 296.2535,261.5485 296.0455,261.7175 C295.8375,261.8865 295.672833,262.0945 295.5515,262.3415 C295.430167,262.5885 295.3695,262.872333 295.3695,263.193 C295.3695,263.487667 295.423667,263.756333 295.532,263.999 C295.640333,264.241667 295.789833,264.451833 295.9805,264.6295 C296.171167,264.807167 296.400833,264.943667 296.6695,265.039 C296.938167,265.134333 297.237167,265.182 297.5665,265.182 Z M297.7745,264.077 C297.445167,264.077 297.183,263.990333 296.988,263.817 C296.793,263.643667 296.6955,263.409667 296.6955,263.115 C296.6955,262.811667 296.801667,262.571167 297.014,262.3935 C297.226333,262.215833 297.536167,262.092333 297.9435,262.023 L297.9435,262.023 L299.6855,261.724 L299.6855,261.906 C299.6855,262.218 299.64,262.506167 299.549,262.7705 C299.458,263.034833 299.330167,263.2645 299.1655,263.4595 C299.000833,263.6545 298.799333,263.806167 298.561,263.9145 C298.322667,264.022833 298.0605,264.077 297.7745,264.077 Z" id="CustomerData" fill="#737474" fill-rule="nonzero"></path>
                <rect id="Rectangle" fill="#D8D8D8" x="184" y="276" width="146" height="6" rx="3"></rect>
                <rect id="Rectangle-Copy-26" fill="#D8D8D8" x="184" y="340" width="146" height="6" rx="3"></rect>
                <rect id="Rectangle-Copy-27" fill="#D8D8D8" x="184" y="404" width="146" height="6" rx="3"></rect>
                <rect id="Rectangle-Copy-28" fill="#D8D8D8" x="184" y="290" width="146" height="6" rx="3"></rect>
                <rect id="Rectangle-Copy-29" fill="#D8D8D8" x="184" y="354" width="146" height="6" rx="3"></rect>
                <rect id="Rectangle-Copy-30" fill="#D8D8D8" x="184" y="418" width="146" height="6" rx="3"></rect>
                <path d="M207.7625,330.182 C208.273833,330.182 208.735333,330.108333 209.147,329.961 C209.558667,329.813667 209.9075,329.614333 210.1935,329.363 C210.4795,329.111667 210.7005,328.819167 210.8565,328.4855 C211.0125,328.151833 211.0905,327.803 211.0905,327.439 C211.0905,326.676333 210.847833,326.0805 210.3625,325.6515 C209.877167,325.2225 209.1405,324.912667 208.1525,324.722 C207.3465,324.566 206.7485,324.3645 206.3585,324.1175 C205.9685,323.8705 205.7735,323.539 205.7735,323.123 C205.7735,322.932333 205.821167,322.761167 205.9165,322.6095 C206.011833,322.457833 206.139667,322.334333 206.3,322.239 C206.460333,322.143667 206.648833,322.07 206.8655,322.018 C207.082167,321.966 207.311833,321.94 207.5545,321.94 C208.1265,321.94 208.601,322.085167 208.978,322.3755 C209.355,322.665833 209.6345,323.084 209.8165,323.63 L209.8165,323.63 L210.9345,322.98 C210.683167,322.252 210.265,321.693 209.68,321.303 C209.095,320.913 208.390833,320.718 207.5675,320.718 C207.108167,320.718 206.687833,320.7765 206.3065,320.8935 C205.925167,321.0105 205.595833,321.177333 205.3185,321.394 C205.041167,321.610667 204.826667,321.866333 204.675,322.161 C204.523333,322.455667 204.4475,322.785 204.4475,323.149 C204.4475,323.530333 204.521167,323.8705 204.6685,324.1695 C204.815833,324.4685 205.0195,324.726333 205.2795,324.943 C205.5395,325.159667 205.847167,325.341667 206.2025,325.489 C206.557833,325.636333 206.947833,325.749 207.3725,325.827 C208.161167,325.974333 208.744,326.169333 209.121,326.412 C209.498,326.654667 209.6865,327.014333 209.6865,327.491 C209.6865,327.690333 209.643167,327.878833 209.5565,328.0565 C209.469833,328.234167 209.342,328.390167 209.173,328.5245 C209.004,328.658833 208.800333,328.765 208.562,328.843 C208.323667,328.921 208.052833,328.96 207.7495,328.96 C207.056167,328.96 206.5015,328.767167 206.0855,328.3815 C205.6695,327.995833 205.3965,327.426 205.2665,326.672 L205.2665,326.672 L204.0315,327.309 C204.1095,327.716333 204.243833,328.0955 204.4345,328.4465 C204.625167,328.7975 204.8765,329.100833 205.1885,329.3565 C205.5005,329.612167 205.871,329.813667 206.3,329.961 C206.729,330.108333 207.2165,330.182 207.7625,330.182 Z M215.1205,330.182 C215.5885,330.182 216.002333,330.075833 216.362,329.8635 C216.721667,329.651167 217.0055,329.35 217.2135,328.96 L217.2135,328.96 L217.2135,330 L218.5395,330 L218.5395,323.552 L217.2135,323.552 L217.2135,327.036 C217.2135,327.313333 217.170167,327.571167 217.0835,327.8095 C216.996833,328.047833 216.877667,328.2515 216.726,328.4205 C216.574333,328.5895 216.3945,328.721667 216.1865,328.817 C215.9785,328.912333 215.7575,328.96 215.5235,328.96 C215.064167,328.96 214.711,328.83 214.464,328.57 C214.217,328.31 214.0935,327.928667 214.0935,327.426 L214.0935,327.426 L214.0935,323.552 L212.7675,323.552 L212.7675,327.699 C212.7675,328.123667 212.830333,328.492 212.956,328.804 C213.081667,329.116 213.252833,329.373833 213.4695,329.5775 C213.686167,329.781167 213.9375,329.932833 214.2235,330.0325 C214.5095,330.132167 214.8085,330.182 215.1205,330.182 Z M223.8695,330.182 C224.294167,330.182 224.695,330.101833 225.072,329.9415 C225.449,329.781167 225.776167,329.5515 226.0535,329.2525 C226.330833,328.9535 226.549667,328.596 226.71,328.18 C226.870333,327.764 226.9505,327.296 226.9505,326.776 C226.9505,326.256 226.8725,325.788 226.7165,325.372 C226.5605,324.956 226.348167,324.5985 226.0795,324.2995 C225.810833,324.0005 225.492333,323.770833 225.124,323.6105 C224.755667,323.450167 224.359167,323.37 223.9345,323.37 C223.4665,323.37 223.033167,323.474 222.6345,323.682 C222.235833,323.89 221.9195,324.171667 221.6855,324.527 L221.6855,324.527 L221.6855,320.9 L220.3595,320.9 L220.3595,330 L221.6855,330 L221.6855,329.051 C221.8675,329.354333 222.147,329.618667 222.524,329.844 C222.901,330.069333 223.3495,330.182 223.8695,330.182 Z M223.5965,328.96 C223.319167,328.96 223.059167,328.908 222.8165,328.804 C222.573833,328.7 222.3615,328.5505 222.1795,328.3555 C221.9975,328.1605 221.8545,327.930833 221.7505,327.6665 C221.6465,327.402167 221.5945,327.105333 221.5945,326.776 C221.5945,326.455333 221.6465,326.160667 221.7505,325.892 C221.8545,325.623333 221.9975,325.3915 222.1795,325.1965 C222.3615,325.0015 222.573833,324.852 222.8165,324.748 C223.059167,324.644 223.319167,324.592 223.5965,324.592 C223.873833,324.592 224.133833,324.644 224.3765,324.748 C224.619167,324.852 224.8315,325.0015 225.0135,325.1965 C225.1955,325.3915 225.3385,325.623333 225.4425,325.892 C225.5465,326.160667 225.5985,326.455333 225.5985,326.776 C225.5985,327.105333 225.5465,327.402167 225.4425,327.6665 C225.3385,327.930833 225.1955,328.1605 225.0135,328.3555 C224.8315,328.5505 224.619167,328.7 224.3765,328.804 C224.133833,328.908 223.873833,328.96 223.5965,328.96 Z M230.7075,330.182 C231.106167,330.182 231.459333,330.125667 231.767,330.013 C232.074667,329.900333 232.334667,329.750833 232.547,329.5645 C232.759333,329.378167 232.921833,329.157167 233.0345,328.9015 C233.147167,328.645833 233.2035,328.375 233.2035,328.089 C233.2035,327.543 233.025833,327.118333 232.6705,326.815 C232.315167,326.511667 231.769167,326.286333 231.0325,326.139 C230.5125,326.043667 230.113833,325.918 229.8365,325.762 C229.559167,325.606 229.4205,325.389333 229.4205,325.112 C229.4205,324.886667 229.533167,324.709 229.7585,324.579 C229.983833,324.449 230.248167,324.384 230.5515,324.384 C230.898167,324.384 231.212333,324.479333 231.494,324.67 C231.775667,324.860667 231.990167,325.151 232.1375,325.541 L232.1375,325.541 L233.1125,324.969 C232.887167,324.440333 232.570833,324.041667 232.1635,323.773 C231.756167,323.504333 231.210167,323.37 230.5255,323.37 C230.222167,323.37 229.931833,323.409 229.6545,323.487 C229.377167,323.565 229.132333,323.682 228.92,323.838 C228.707667,323.994 228.538667,324.184667 228.413,324.41 C228.287333,324.635333 228.2245,324.891 228.2245,325.177 C228.2245,325.463 228.283,325.714333 228.4,325.931 C228.517,326.147667 228.675167,326.334 228.8745,326.49 C229.073833,326.646 229.305667,326.776 229.57,326.88 C229.834333,326.984 230.118167,327.066333 230.4215,327.127 C230.9415,327.231 231.325,327.3545 231.572,327.4975 C231.819,327.6405 231.9425,327.850667 231.9425,328.128 C231.9425,328.405333 231.823333,328.6285 231.585,328.7975 C231.346667,328.9665 231.0585,329.051 230.7205,329.051 C230.2785,329.051 229.910167,328.9145 229.6155,328.6415 C229.320833,328.3685 229.0955,328.019667 228.9395,327.595 L228.9395,327.595 L227.8605,328.271 C227.955833,328.522333 228.088,328.765 228.257,328.999 C228.426,329.233 228.6275,329.436667 228.8615,329.61 C229.0955,329.783333 229.366333,329.922 229.674,330.026 C229.981667,330.13 230.326167,330.182 230.7075,330.182 Z M237.5065,330.182 C238.1825,330.182 238.769667,330.023833 239.268,329.7075 C239.766333,329.391167 240.167167,328.929667 240.4705,328.323 L240.4705,328.323 L239.4435,327.66 C239.226833,328.067333 238.973333,328.385833 238.683,328.6155 C238.392667,328.845167 238.004833,328.96 237.5195,328.96 C237.2335,328.96 236.969167,328.910167 236.7265,328.8105 C236.483833,328.710833 236.2715,328.567833 236.0895,328.3815 C235.9075,328.195167 235.766667,327.9655 235.667,327.6925 C235.567333,327.4195 235.5175,327.114 235.5175,326.776 C235.5175,326.438 235.5695,326.1325 235.6735,325.8595 C235.7775,325.5865 235.9205,325.356833 236.1025,325.1705 C236.2845,324.984167 236.496833,324.841167 236.7395,324.7415 C236.982167,324.641833 237.242167,324.592 237.5195,324.592 C237.8835,324.592 238.223667,324.678667 238.54,324.852 C238.856333,325.025333 239.1315,325.350333 239.3655,325.827 L239.3655,325.827 L240.4185,325.125 C240.193167,324.579 239.829167,324.15 239.3265,323.838 C238.823833,323.526 238.217167,323.37 237.5065,323.37 C237.055833,323.37 236.629,323.452333 236.226,323.617 C235.823,323.781667 235.467667,324.0135 235.16,324.3125 C234.852333,324.6115 234.609667,324.971167 234.432,325.3915 C234.254333,325.811833 234.1655,326.273333 234.1655,326.776 C234.1655,327.278667 234.252167,327.740167 234.4255,328.1605 C234.598833,328.580833 234.835,328.9405 235.134,329.2395 C235.433,329.5385 235.786167,329.770333 236.1935,329.935 C236.600833,330.099667 237.0385,330.182 237.5065,330.182 Z M242.9795,330 L242.9795,326.607 C242.9795,326.321 243.0185,326.056667 243.0965,325.814 C243.1745,325.571333 243.285,325.361167 243.428,325.1835 C243.571,325.005833 243.742167,324.867167 243.9415,324.7675 C244.140833,324.667833 244.3575,324.618 244.5915,324.618 C244.756167,324.618 244.925167,324.644 245.0985,324.696 L245.0985,324.696 L245.3195,323.435 C245.232833,323.417667 245.152667,323.4025 245.079,323.3895 C245.005333,323.3765 244.925167,323.37 244.8385,323.37 C244.3965,323.37 244.0195,323.487 243.7075,323.721 C243.3955,323.955 243.152833,324.262667 242.9795,324.644 L242.9795,324.644 L242.9795,323.552 L241.6535,323.552 L241.6535,330 L242.9795,330 Z M247.8285,322.525 L247.8285,321.03 L246.3205,321.03 L246.3205,322.525 L247.8285,322.525 Z M247.7375,330 L247.7375,323.552 L246.4115,323.552 L246.4115,330 L247.7375,330 Z M250.8705,332.652 L250.8705,329.116 C251.0785,329.445333 251.375333,329.705333 251.761,329.896 C252.146667,330.086667 252.5735,330.182 253.0415,330.182 C253.474833,330.182 253.88,330.101833 254.257,329.9415 C254.634,329.781167 254.961167,329.553667 255.2385,329.259 C255.515833,328.964333 255.734667,328.606833 255.895,328.1865 C256.055333,327.766167 256.1355,327.296 256.1355,326.776 C256.1355,326.247333 256.055333,325.770667 255.895,325.346 C255.734667,324.921333 255.520167,324.563833 255.2515,324.2735 C254.982833,323.983167 254.6665,323.76 254.3025,323.604 C253.9385,323.448 253.557167,323.37 253.1585,323.37 C252.655833,323.37 252.198667,323.484833 251.787,323.7145 C251.375333,323.944167 251.069833,324.219333 250.8705,324.54 L250.8705,324.54 L250.8705,323.552 L249.5445,323.552 L249.5445,332.652 L250.8705,332.652 Z M252.7815,328.96 C252.504167,328.96 252.244167,328.908 252.0015,328.804 C251.758833,328.7 251.5465,328.5505 251.3645,328.3555 C251.1825,328.1605 251.0395,327.930833 250.9355,327.6665 C250.8315,327.402167 250.7795,327.105333 250.7795,326.776 C250.7795,326.455333 250.8315,326.160667 250.9355,325.892 C251.0395,325.623333 251.1825,325.3915 251.3645,325.1965 C251.5465,325.0015 251.758833,324.852 252.0015,324.748 C252.244167,324.644 252.504167,324.592 252.7815,324.592 C253.058833,324.592 253.318833,324.644 253.5615,324.748 C253.804167,324.852 254.0165,325.0015 254.1985,325.1965 C254.3805,325.3915 254.5235,325.623333 254.6275,325.892 C254.7315,326.160667 254.7835,326.455333 254.7835,326.776 C254.7835,327.105333 254.7315,327.402167 254.6275,327.6665 C254.5235,327.930833 254.3805,328.1605 254.1985,328.3555 C254.0165,328.5505 253.804167,328.7 253.5615,328.804 C253.318833,328.908 253.058833,328.96 252.7815,328.96 Z M259.6455,330.182 C259.836167,330.182 260.013833,330.166833 260.1785,330.1365 C260.343167,330.106167 260.486167,330.069333 260.6075,330.026 L260.6075,330.026 L260.4905,328.908 C260.421167,328.925333 260.341,328.942667 260.25,328.96 C260.159,328.977333 260.078833,328.986 260.0095,328.986 C259.6975,328.986 259.472167,328.908 259.3335,328.752 C259.194833,328.596 259.1255,328.357667 259.1255,328.037 L259.1255,328.037 L259.1255,324.618 L260.5685,324.618 L260.5685,323.552 L259.1255,323.552 L259.1255,321.81 L257.7995,321.81 L257.7995,323.552 L256.7595,323.552 L256.7595,324.618 L257.7995,324.618 L257.7995,328.271 C257.7995,328.635 257.849333,328.9405 257.949,329.1875 C258.048667,329.4345 258.183,329.631667 258.352,329.779 C258.521,329.926333 258.718167,330.030333 258.9435,330.091 C259.168833,330.151667 259.402833,330.182 259.6455,330.182 Z M263.3505,322.525 L263.3505,321.03 L261.8425,321.03 L261.8425,322.525 L263.3505,322.525 Z M263.2595,330 L263.2595,323.552 L261.9335,323.552 L261.9335,330 L263.2595,330 Z M268.0435,330.182 C268.468167,330.182 268.886333,330.1105 269.298,329.9675 C269.709667,329.8245 270.078,329.61 270.403,329.324 C270.728,329.038 270.990167,328.682667 271.1895,328.258 C271.388833,327.833333 271.4885,327.339333 271.4885,326.776 C271.4885,326.221333 271.388833,325.731667 271.1895,325.307 C270.990167,324.882333 270.728,324.527 270.403,324.241 C270.078,323.955 269.709667,323.738333 269.298,323.591 C268.886333,323.443667 268.468167,323.37 268.0435,323.37 C267.618833,323.37 267.200667,323.443667 266.789,323.591 C266.377333,323.738333 266.009,323.955 265.684,324.241 C265.359,324.527 265.096833,324.882333 264.8975,325.307 C264.698167,325.731667 264.5985,326.221333 264.5985,326.776 C264.5985,327.339333 264.698167,327.833333 264.8975,328.258 C265.096833,328.682667 265.359,329.038 265.684,329.324 C266.009,329.61 266.377333,329.8245 266.789,329.9675 C267.200667,330.1105 267.618833,330.182 268.0435,330.182 Z M268.0435,328.96 C267.7575,328.96 267.488833,328.908 267.2375,328.804 C266.986167,328.7 266.765167,328.552667 266.5745,328.362 C266.383833,328.171333 266.232167,327.941667 266.1195,327.673 C266.006833,327.404333 265.9505,327.105333 265.9505,326.776 C265.9505,326.446667 266.006833,326.147667 266.1195,325.879 C266.232167,325.610333 266.383833,325.380667 266.5745,325.19 C266.765167,324.999333 266.986167,324.852 267.2375,324.748 C267.488833,324.644 267.7575,324.592 268.0435,324.592 C268.3295,324.592 268.598167,324.644 268.8495,324.748 C269.100833,324.852 269.321833,324.999333 269.5125,325.19 C269.703167,325.380667 269.854833,325.610333 269.9675,325.879 C270.080167,326.147667 270.1365,326.446667 270.1365,326.776 C270.1365,327.105333 270.080167,327.404333 269.9675,327.673 C269.854833,327.941667 269.703167,328.171333 269.5125,328.362 C269.321833,328.552667 269.100833,328.7 268.8495,328.804 C268.598167,328.908 268.3295,328.96 268.0435,328.96 Z M274.2315,330 L274.2315,326.594 C274.2315,326.290667 274.277,326.0155 274.368,325.7685 C274.459,325.5215 274.580333,325.311333 274.732,325.138 C274.883667,324.964667 275.061333,324.830333 275.265,324.735 C275.468667,324.639667 275.6875,324.592 275.9215,324.592 C276.380833,324.592 276.734,324.717667 276.981,324.969 C277.228,325.220333 277.3515,325.567 277.3515,326.009 L277.3515,326.009 L277.3515,330 L278.6775,330 L278.6775,325.619 C278.6775,325.255 278.619,324.932167 278.502,324.6505 C278.385,324.368833 278.226833,324.134833 278.0275,323.9485 C277.828167,323.762167 277.589833,323.619167 277.3125,323.5195 C277.035167,323.419833 276.7405,323.37 276.4285,323.37 C275.9605,323.37 275.533667,323.484833 275.148,323.7145 C274.762333,323.944167 274.456833,324.249667 274.2315,324.631 L274.2315,324.631 L274.2315,323.552 L272.9055,323.552 L272.9055,330 L274.2315,330 Z M286.8545,330 C287.547833,330 288.187,329.9025 288.772,329.7075 C289.357,329.5125 289.864,329.224333 290.293,328.843 C290.722,328.461667 291.055667,327.987167 291.294,327.4195 C291.532333,326.851833 291.6515,326.195333 291.6515,325.45 C291.6515,324.704667 291.532333,324.048167 291.294,323.4805 C291.055667,322.912833 290.722,322.438333 290.293,322.057 C289.864,321.675667 289.357,321.3875 288.772,321.1925 C288.187,320.9975 287.547833,320.9 286.8545,320.9 L286.8545,320.9 L284.2285,320.9 L284.2285,330 L286.8545,330 Z M286.8805,328.726 L285.6325,328.726 L285.6325,322.174 L286.8805,322.174 C287.3745,322.174 287.827333,322.241167 288.239,322.3755 C288.650667,322.509833 289.001667,322.711333 289.292,322.98 C289.582333,323.248667 289.809833,323.588833 289.9745,324.0005 C290.139167,324.412167 290.2215,324.895333 290.2215,325.45 C290.2215,326.004667 290.139167,326.487833 289.9745,326.8995 C289.809833,327.311167 289.582333,327.651333 289.292,327.92 C289.001667,328.188667 288.650667,328.390167 288.239,328.5245 C287.827333,328.658833 287.3745,328.726 286.8805,328.726 L286.8805,328.726 Z M294.7455,330.182 C295.222167,330.182 295.646833,330.0715 296.0195,329.8505 C296.392167,329.6295 296.6825,329.302333 296.8905,328.869 C296.907833,329.172333 296.953333,329.412833 297.027,329.5905 C297.100667,329.768167 297.1765,329.904667 297.2545,330 L297.2545,330 L298.5805,330 C298.433167,329.757333 298.331333,329.521167 298.275,329.2915 C298.218667,329.061833 298.1905,328.760667 298.1905,328.388 L298.1905,328.388 L298.1905,325.554 C298.1905,324.852 297.965167,324.3125 297.5145,323.9355 C297.063833,323.5585 296.3965,323.37 295.5125,323.37 C295.105167,323.37 294.741167,323.422 294.4205,323.526 C294.099833,323.63 293.826833,323.770833 293.6015,323.9485 C293.376167,324.126167 293.205,324.329833 293.088,324.5595 C292.971,324.789167 292.9125,325.029667 292.9125,325.281 C292.9125,325.463 292.947167,325.636333 293.0165,325.801 L293.0165,325.801 L294.1995,325.398 C294.182167,325.346 294.1735,325.309167 294.1735,325.2875 L294.1735,325.2875 L294.1735,325.203 C294.1735,324.977667 294.281833,324.7805 294.4985,324.6115 C294.715167,324.4425 295.053167,324.358 295.5125,324.358 C296.413833,324.358 296.8645,324.730667 296.8645,325.476 L296.8645,325.476 L296.8645,325.749 L294.8235,326.074 C294.5115,326.126 294.219,326.204 293.946,326.308 C293.673,326.412 293.4325,326.5485 293.2245,326.7175 C293.0165,326.8865 292.851833,327.0945 292.7305,327.3415 C292.609167,327.5885 292.5485,327.872333 292.5485,328.193 C292.5485,328.487667 292.602667,328.756333 292.711,328.999 C292.819333,329.241667 292.968833,329.451833 293.1595,329.6295 C293.350167,329.807167 293.579833,329.943667 293.8485,330.039 C294.117167,330.134333 294.416167,330.182 294.7455,330.182 Z M294.9535,329.077 C294.624167,329.077 294.362,328.990333 294.167,328.817 C293.972,328.643667 293.8745,328.409667 293.8745,328.115 C293.8745,327.811667 293.980667,327.571167 294.193,327.3935 C294.405333,327.215833 294.715167,327.092333 295.1225,327.023 L295.1225,327.023 L296.8645,326.724 L296.8645,326.906 C296.8645,327.218 296.819,327.506167 296.728,327.7705 C296.637,328.034833 296.509167,328.2645 296.3445,328.4595 C296.179833,328.6545 295.978333,328.806167 295.74,328.9145 C295.501667,329.022833 295.2395,329.077 294.9535,329.077 Z M302.0905,330.182 C302.281167,330.182 302.458833,330.166833 302.6235,330.1365 C302.788167,330.106167 302.931167,330.069333 303.0525,330.026 L303.0525,330.026 L302.9355,328.908 C302.866167,328.925333 302.786,328.942667 302.695,328.96 C302.604,328.977333 302.523833,328.986 302.4545,328.986 C302.1425,328.986 301.917167,328.908 301.7785,328.752 C301.639833,328.596 301.5705,328.357667 301.5705,328.037 L301.5705,328.037 L301.5705,324.618 L303.0135,324.618 L303.0135,323.552 L301.5705,323.552 L301.5705,321.81 L300.2445,321.81 L300.2445,323.552 L299.2045,323.552 L299.2045,324.618 L300.2445,324.618 L300.2445,328.271 C300.2445,328.635 300.294333,328.9405 300.394,329.1875 C300.493667,329.4345 300.628,329.631667 300.797,329.779 C300.966,329.926333 301.163167,330.030333 301.3885,330.091 C301.613833,330.151667 301.847833,330.182 302.0905,330.182 Z M306.2115,330.182 C306.688167,330.182 307.112833,330.0715 307.4855,329.8505 C307.858167,329.6295 308.1485,329.302333 308.3565,328.869 C308.373833,329.172333 308.419333,329.412833 308.493,329.5905 C308.566667,329.768167 308.6425,329.904667 308.7205,330 L308.7205,330 L310.0465,330 C309.899167,329.757333 309.797333,329.521167 309.741,329.2915 C309.684667,329.061833 309.6565,328.760667 309.6565,328.388 L309.6565,328.388 L309.6565,325.554 C309.6565,324.852 309.431167,324.3125 308.9805,323.9355 C308.529833,323.5585 307.8625,323.37 306.9785,323.37 C306.571167,323.37 306.207167,323.422 305.8865,323.526 C305.565833,323.63 305.292833,323.770833 305.0675,323.9485 C304.842167,324.126167 304.671,324.329833 304.554,324.5595 C304.437,324.789167 304.3785,325.029667 304.3785,325.281 C304.3785,325.463 304.413167,325.636333 304.4825,325.801 L304.4825,325.801 L305.6655,325.398 C305.648167,325.346 305.6395,325.309167 305.6395,325.2875 L305.6395,325.2875 L305.6395,325.203 C305.6395,324.977667 305.747833,324.7805 305.9645,324.6115 C306.181167,324.4425 306.519167,324.358 306.9785,324.358 C307.879833,324.358 308.3305,324.730667 308.3305,325.476 L308.3305,325.476 L308.3305,325.749 L306.2895,326.074 C305.9775,326.126 305.685,326.204 305.412,326.308 C305.139,326.412 304.8985,326.5485 304.6905,326.7175 C304.4825,326.8865 304.317833,327.0945 304.1965,327.3415 C304.075167,327.5885 304.0145,327.872333 304.0145,328.193 C304.0145,328.487667 304.068667,328.756333 304.177,328.999 C304.285333,329.241667 304.434833,329.451833 304.6255,329.6295 C304.816167,329.807167 305.045833,329.943667 305.3145,330.039 C305.583167,330.134333 305.882167,330.182 306.2115,330.182 Z M306.4195,329.077 C306.090167,329.077 305.828,328.990333 305.633,328.817 C305.438,328.643667 305.3405,328.409667 305.3405,328.115 C305.3405,327.811667 305.446667,327.571167 305.659,327.3935 C305.871333,327.215833 306.181167,327.092333 306.5885,327.023 L306.5885,327.023 L308.3305,326.724 L308.3305,326.906 C308.3305,327.218 308.285,327.506167 308.194,327.7705 C308.103,328.034833 307.975167,328.2645 307.8105,328.4595 C307.645833,328.6545 307.444333,328.806167 307.206,328.9145 C306.967667,329.022833 306.7055,329.077 306.4195,329.077 Z" id="SubscriptionData" fill="#737474" fill-rule="nonzero"></path>
                <path d="M222.407,394 L222.407,384.9 L221.003,384.9 L221.003,394 L222.407,394 Z M225.696,394 L225.696,390.594 C225.696,390.290667 225.7415,390.0155 225.8325,389.7685 C225.9235,389.5215 226.044833,389.311333 226.1965,389.138 C226.348167,388.964667 226.525833,388.830333 226.7295,388.735 C226.933167,388.639667 227.152,388.592 227.386,388.592 C227.845333,388.592 228.1985,388.717667 228.4455,388.969 C228.6925,389.220333 228.816,389.567 228.816,390.009 L228.816,390.009 L228.816,394 L230.142,394 L230.142,389.619 C230.142,389.255 230.0835,388.932167 229.9665,388.6505 C229.8495,388.368833 229.691333,388.134833 229.492,387.9485 C229.292667,387.762167 229.054333,387.619167 228.777,387.5195 C228.499667,387.419833 228.205,387.37 227.893,387.37 C227.425,387.37 226.998167,387.484833 226.6125,387.7145 C226.226833,387.944167 225.921333,388.249667 225.696,388.631 L225.696,388.631 L225.696,387.552 L224.37,387.552 L224.37,394 L225.696,394 Z M235.03,394 L237.63,387.552 L236.2,387.552 L234.393,392.349 L232.586,387.552 L231.156,387.552 L233.756,394 L235.03,394 Z M241.478,394.182 C241.902667,394.182 242.320833,394.1105 242.7325,393.9675 C243.144167,393.8245 243.5125,393.61 243.8375,393.324 C244.1625,393.038 244.424667,392.682667 244.624,392.258 C244.823333,391.833333 244.923,391.339333 244.923,390.776 C244.923,390.221333 244.823333,389.731667 244.624,389.307 C244.424667,388.882333 244.1625,388.527 243.8375,388.241 C243.5125,387.955 243.144167,387.738333 242.7325,387.591 C242.320833,387.443667 241.902667,387.37 241.478,387.37 C241.053333,387.37 240.635167,387.443667 240.2235,387.591 C239.811833,387.738333 239.4435,387.955 239.1185,388.241 C238.7935,388.527 238.531333,388.882333 238.332,389.307 C238.132667,389.731667 238.033,390.221333 238.033,390.776 C238.033,391.339333 238.132667,391.833333 238.332,392.258 C238.531333,392.682667 238.7935,393.038 239.1185,393.324 C239.4435,393.61 239.811833,393.8245 240.2235,393.9675 C240.635167,394.1105 241.053333,394.182 241.478,394.182 Z M241.478,392.96 C241.192,392.96 240.923333,392.908 240.672,392.804 C240.420667,392.7 240.199667,392.552667 240.009,392.362 C239.818333,392.171333 239.666667,391.941667 239.554,391.673 C239.441333,391.404333 239.385,391.105333 239.385,390.776 C239.385,390.446667 239.441333,390.147667 239.554,389.879 C239.666667,389.610333 239.818333,389.380667 240.009,389.19 C240.199667,388.999333 240.420667,388.852 240.672,388.748 C240.923333,388.644 241.192,388.592 241.478,388.592 C241.764,388.592 242.032667,388.644 242.284,388.748 C242.535333,388.852 242.756333,388.999333 242.947,389.19 C243.137667,389.380667 243.289333,389.610333 243.402,389.879 C243.514667,390.147667 243.571,390.446667 243.571,390.776 C243.571,391.105333 243.514667,391.404333 243.402,391.673 C243.289333,391.941667 243.137667,392.171333 242.947,392.362 C242.756333,392.552667 242.535333,392.7 242.284,392.804 C242.032667,392.908 241.764,392.96 241.478,392.96 Z M247.64,386.525 L247.64,385.03 L246.132,385.03 L246.132,386.525 L247.64,386.525 Z M247.549,394 L247.549,387.552 L246.223,387.552 L246.223,394 L247.549,394 Z M252.229,394.182 C252.905,394.182 253.492167,394.023833 253.9905,393.7075 C254.488833,393.391167 254.889667,392.929667 255.193,392.323 L255.193,392.323 L254.166,391.66 C253.949333,392.067333 253.695833,392.385833 253.4055,392.6155 C253.115167,392.845167 252.727333,392.96 252.242,392.96 C251.956,392.96 251.691667,392.910167 251.449,392.8105 C251.206333,392.710833 250.994,392.567833 250.812,392.3815 C250.63,392.195167 250.489167,391.9655 250.3895,391.6925 C250.289833,391.4195 250.24,391.114 250.24,390.776 C250.24,390.438 250.292,390.1325 250.396,389.8595 C250.5,389.5865 250.643,389.356833 250.825,389.1705 C251.007,388.984167 251.219333,388.841167 251.462,388.7415 C251.704667,388.641833 251.964667,388.592 252.242,388.592 C252.606,388.592 252.946167,388.678667 253.2625,388.852 C253.578833,389.025333 253.854,389.350333 254.088,389.827 L254.088,389.827 L255.141,389.125 C254.915667,388.579 254.551667,388.15 254.049,387.838 C253.546333,387.526 252.939667,387.37 252.229,387.37 C251.778333,387.37 251.3515,387.452333 250.9485,387.617 C250.5455,387.781667 250.190167,388.0135 249.8825,388.3125 C249.574833,388.6115 249.332167,388.971167 249.1545,389.3915 C248.976833,389.811833 248.888,390.273333 248.888,390.776 C248.888,391.278667 248.974667,391.740167 249.148,392.1605 C249.321333,392.580833 249.5575,392.9405 249.8565,393.2395 C250.1555,393.5385 250.508667,393.770333 250.916,393.935 C251.323333,394.099667 251.761,394.182 252.229,394.182 Z M259.314,394.182 C260.050667,394.182 260.657333,394.023833 261.134,393.7075 C261.610667,393.391167 262.000667,392.921 262.304,392.297 L262.304,392.297 L261.277,391.686 C261.181667,391.876667 261.077667,392.054333 260.965,392.219 C260.852333,392.383667 260.720167,392.5245 260.5685,392.6415 C260.416833,392.7585 260.241333,392.851667 260.042,392.921 C259.842667,392.990333 259.613,393.025 259.353,393.025 C259.067,393.025 258.807,392.977333 258.573,392.882 C258.339,392.786667 258.135333,392.650167 257.962,392.4725 C257.788667,392.294833 257.652167,392.086833 257.5525,391.8485 C257.452833,391.610167 257.398667,391.348 257.39,391.062 L257.39,391.062 L262.499,391.062 L262.499,390.594 C262.499,390.126 262.423167,389.694833 262.2715,389.3005 C262.119833,388.906167 261.9075,388.566 261.6345,388.28 C261.3615,387.994 261.034333,387.770833 260.653,387.6105 C260.271667,387.450167 259.847,387.37 259.379,387.37 C258.919667,387.37 258.4885,387.452333 258.0855,387.617 C257.6825,387.781667 257.3315,388.0135 257.0325,388.3125 C256.7335,388.6115 256.497333,388.971167 256.324,389.3915 C256.150667,389.811833 256.064,390.273333 256.064,390.776 C256.064,391.278667 256.150667,391.740167 256.324,392.1605 C256.497333,392.580833 256.731333,392.9405 257.026,393.2395 C257.320667,393.5385 257.665167,393.770333 258.0595,393.935 C258.453833,394.099667 258.872,394.182 259.314,394.182 Z M261.238,390.048 L257.39,390.048 C257.450667,389.814 257.541667,389.5995 257.663,389.4045 C257.784333,389.2095 257.9295,389.0405 258.0985,388.8975 C258.2675,388.7545 258.458167,388.641833 258.6705,388.5595 C258.882833,388.477167 259.110333,388.436 259.353,388.436 C259.578333,388.436 259.797167,388.470667 260.0095,388.54 C260.221833,388.609333 260.414667,388.711167 260.588,388.8455 C260.761333,388.979833 260.9065,389.148833 261.0235,389.3525 C261.1405,389.556167 261.212,389.788 261.238,390.048 L261.238,390.048 Z M270.299,394 C270.992333,394 271.6315,393.9025 272.2165,393.7075 C272.8015,393.5125 273.3085,393.224333 273.7375,392.843 C274.1665,392.461667 274.500167,391.987167 274.7385,391.4195 C274.976833,390.851833 275.096,390.195333 275.096,389.45 C275.096,388.704667 274.976833,388.048167 274.7385,387.4805 C274.500167,386.912833 274.1665,386.438333 273.7375,386.057 C273.3085,385.675667 272.8015,385.3875 272.2165,385.1925 C271.6315,384.9975 270.992333,384.9 270.299,384.9 L270.299,384.9 L267.673,384.9 L267.673,394 L270.299,394 Z M270.325,392.726 L269.077,392.726 L269.077,386.174 L270.325,386.174 C270.819,386.174 271.271833,386.241167 271.6835,386.3755 C272.095167,386.509833 272.446167,386.711333 272.7365,386.98 C273.026833,387.248667 273.254333,387.588833 273.419,388.0005 C273.583667,388.412167 273.666,388.895333 273.666,389.45 C273.666,390.004667 273.583667,390.487833 273.419,390.8995 C273.254333,391.311167 273.026833,391.651333 272.7365,391.92 C272.446167,392.188667 272.095167,392.390167 271.6835,392.5245 C271.271833,392.658833 270.819,392.726 270.325,392.726 L270.325,392.726 Z M278.19,394.182 C278.666667,394.182 279.091333,394.0715 279.464,393.8505 C279.836667,393.6295 280.127,393.302333 280.335,392.869 C280.352333,393.172333 280.397833,393.412833 280.4715,393.5905 C280.545167,393.768167 280.621,393.904667 280.699,394 L280.699,394 L282.025,394 C281.877667,393.757333 281.775833,393.521167 281.7195,393.2915 C281.663167,393.061833 281.635,392.760667 281.635,392.388 L281.635,392.388 L281.635,389.554 C281.635,388.852 281.409667,388.3125 280.959,387.9355 C280.508333,387.5585 279.841,387.37 278.957,387.37 C278.549667,387.37 278.185667,387.422 277.865,387.526 C277.544333,387.63 277.271333,387.770833 277.046,387.9485 C276.820667,388.126167 276.6495,388.329833 276.5325,388.5595 C276.4155,388.789167 276.357,389.029667 276.357,389.281 C276.357,389.463 276.391667,389.636333 276.461,389.801 L276.461,389.801 L277.644,389.398 C277.626667,389.346 277.618,389.309167 277.618,389.2875 L277.618,389.2875 L277.618,389.203 C277.618,388.977667 277.726333,388.7805 277.943,388.6115 C278.159667,388.4425 278.497667,388.358 278.957,388.358 C279.858333,388.358 280.309,388.730667 280.309,389.476 L280.309,389.476 L280.309,389.749 L278.268,390.074 C277.956,390.126 277.6635,390.204 277.3905,390.308 C277.1175,390.412 276.877,390.5485 276.669,390.7175 C276.461,390.8865 276.296333,391.0945 276.175,391.3415 C276.053667,391.5885 275.993,391.872333 275.993,392.193 C275.993,392.487667 276.047167,392.756333 276.1555,392.999 C276.263833,393.241667 276.413333,393.451833 276.604,393.6295 C276.794667,393.807167 277.024333,393.943667 277.293,394.039 C277.561667,394.134333 277.860667,394.182 278.19,394.182 Z M278.398,393.077 C278.068667,393.077 277.8065,392.990333 277.6115,392.817 C277.4165,392.643667 277.319,392.409667 277.319,392.115 C277.319,391.811667 277.425167,391.571167 277.6375,391.3935 C277.849833,391.215833 278.159667,391.092333 278.567,391.023 L278.567,391.023 L280.309,390.724 L280.309,390.906 C280.309,391.218 280.2635,391.506167 280.1725,391.7705 C280.0815,392.034833 279.953667,392.2645 279.789,392.4595 C279.624333,392.6545 279.422833,392.806167 279.1845,392.9145 C278.946167,393.022833 278.684,393.077 278.398,393.077 Z M285.535,394.182 C285.725667,394.182 285.903333,394.166833 286.068,394.1365 C286.232667,394.106167 286.375667,394.069333 286.497,394.026 L286.497,394.026 L286.38,392.908 C286.310667,392.925333 286.2305,392.942667 286.1395,392.96 C286.0485,392.977333 285.968333,392.986 285.899,392.986 C285.587,392.986 285.361667,392.908 285.223,392.752 C285.084333,392.596 285.015,392.357667 285.015,392.037 L285.015,392.037 L285.015,388.618 L286.458,388.618 L286.458,387.552 L285.015,387.552 L285.015,385.81 L283.689,385.81 L283.689,387.552 L282.649,387.552 L282.649,388.618 L283.689,388.618 L283.689,392.271 C283.689,392.635 283.738833,392.9405 283.8385,393.1875 C283.938167,393.4345 284.0725,393.631667 284.2415,393.779 C284.4105,393.926333 284.607667,394.030333 284.833,394.091 C285.058333,394.151667 285.292333,394.182 285.535,394.182 Z M289.656,394.182 C290.132667,394.182 290.557333,394.0715 290.93,393.8505 C291.302667,393.6295 291.593,393.302333 291.801,392.869 C291.818333,393.172333 291.863833,393.412833 291.9375,393.5905 C292.011167,393.768167 292.087,393.904667 292.165,394 L292.165,394 L293.491,394 C293.343667,393.757333 293.241833,393.521167 293.1855,393.2915 C293.129167,393.061833 293.101,392.760667 293.101,392.388 L293.101,392.388 L293.101,389.554 C293.101,388.852 292.875667,388.3125 292.425,387.9355 C291.974333,387.5585 291.307,387.37 290.423,387.37 C290.015667,387.37 289.651667,387.422 289.331,387.526 C289.010333,387.63 288.737333,387.770833 288.512,387.9485 C288.286667,388.126167 288.1155,388.329833 287.9985,388.5595 C287.8815,388.789167 287.823,389.029667 287.823,389.281 C287.823,389.463 287.857667,389.636333 287.927,389.801 L287.927,389.801 L289.11,389.398 C289.092667,389.346 289.084,389.309167 289.084,389.2875 L289.084,389.2875 L289.084,389.203 C289.084,388.977667 289.192333,388.7805 289.409,388.6115 C289.625667,388.4425 289.963667,388.358 290.423,388.358 C291.324333,388.358 291.775,388.730667 291.775,389.476 L291.775,389.476 L291.775,389.749 L289.734,390.074 C289.422,390.126 289.1295,390.204 288.8565,390.308 C288.5835,390.412 288.343,390.5485 288.135,390.7175 C287.927,390.8865 287.762333,391.0945 287.641,391.3415 C287.519667,391.5885 287.459,391.872333 287.459,392.193 C287.459,392.487667 287.513167,392.756333 287.6215,392.999 C287.729833,393.241667 287.879333,393.451833 288.07,393.6295 C288.260667,393.807167 288.490333,393.943667 288.759,394.039 C289.027667,394.134333 289.326667,394.182 289.656,394.182 Z M289.864,393.077 C289.534667,393.077 289.2725,392.990333 289.0775,392.817 C288.8825,392.643667 288.785,392.409667 288.785,392.115 C288.785,391.811667 288.891167,391.571167 289.1035,391.3935 C289.315833,391.215833 289.625667,391.092333 290.033,391.023 L290.033,391.023 L291.775,390.724 L291.775,390.906 C291.775,391.218 291.7295,391.506167 291.6385,391.7705 C291.5475,392.034833 291.419667,392.2645 291.255,392.4595 C291.090333,392.6545 290.888833,392.806167 290.6505,392.9145 C290.412167,393.022833 290.15,393.077 289.864,393.077 Z" id="InvoiceData" fill="#737474" fill-rule="nonzero"></path>
                <g id="Chargebee-logo-mark" transform="translate(238.000000, 189.000000)" fill="#FF6C36" fill-rule="nonzero">
                    <path d="M35.5580059,30.1694943 C35.2117959,29.9316566 34.7562564,29.9499518 34.4100465,30.1877895 C34.0638365,30.4256271 33.9180639,30.8830073 34.0456149,31.2855018 C34.1731659,31.6879963 34.5375975,31.9807196 34.9566938,31.9990148 C35.3757901,32.01731 35.7584432,31.7794724 35.9224374,31.3952731 C36.1046532,30.9561881 35.9588806,30.4256271 35.5580059,30.1694943 C35.120688,29.8584758 36.0135453,30.4805128 35.5580059,30.1694943 Z" id="Path"></path>
                    <path d="M21.2934115,40.4857941 C21.5496676,40.4857941 21.8272783,40.4857941 22.0835344,40.4647999 C22.6174012,40.4438057 23.1512681,40.4018174 23.6637802,40.3388348 C24.0908736,40.2968464 22.7882386,40.4438057 23.6637802,40.3388348 C24.197647,40.2758522 24.6247405,40.7587186 24.5179671,41.2835733 C24.4539031,41.5145094 24.2830657,41.7034571 24.069519,41.808428 C23.9200363,41.8714106 23.7705536,41.8714106 23.6210708,41.8924048 C23.4502335,41.913399 23.2580414,41.9343932 23.087204,41.9343932 C21.6777956,42.0393641 20.2683872,42.0183699 18.8589788,41.8714106 C17.5776985,41.7244513 16.3391275,41.4935152 15.1005565,41.1156198 C13.9046948,40.7587186 12.7515425,40.2968464 11.6410995,39.7300033 C10.5093018,39.1631602 9.46292288,38.4913461 8.45925327,37.7355553 C7.30610095,36.8957878 6.25972199,35.9300551 5.32011639,34.8593514 C4.38051079,33.809642 3.54767856,32.6549616 2.84297436,31.4582928 C2.11691549,30.2196356 1.51898466,28.9179959 1.07053653,27.5533736 C0.600733734,26.1677571 0.301768317,24.7401523 0.130930936,23.2915532 C-0.0399064455,21.82196 -0.0399064455,20.3313726 0.109576263,18.8617793 C0.259058972,17.4131803 0.558024389,15.9645812 1.02782719,14.5789648 C1.47627531,13.2143425 2.05285147,11.9127027 2.77891034,10.6530514 C3.48361454,9.41439423 4.33780145,8.25971383 5.27740704,7.18901018 C6.21701264,6.13930073 7.2633916,5.17356803 8.39518925,4.31280628 C9.54834157,3.45204452 10.7869126,2.69625372 12.0681929,2.08742223 C13.3921827,1.45759656 14.7802364,0.974730209 16.2109994,0.617828994 C17.6631172,0.260927779 19.1579443,0.0719800769 20.6527714,0.00899750962 C22.1475984,-0.0329908686 23.6637802,0.0719800769 25.1372526,0.323910346 C26.5680157,0.575840616 27.9774241,0.974730209 29.3441231,1.49958494 C30.6894675,2.02443966 31.9707479,2.69625372 33.1666095,3.47303871 C34.3624712,4.24982371 35.4729142,5.15257384 36.4979385,6.16029492 C36.9250319,6.5801787 37.309416,7.00006248 37.5870268,7.5459114 C37.8219282,8.00778356 37.9500562,8.53263829 37.9927655,9.03649883 C38.0568296,10.0862083 37.6938001,11.1569119 36.9677413,11.9336969 C36.134909,12.8574412 34.8749833,13.3613018 33.6364123,13.277325 C33.0384815,13.2353366 32.4405507,13.0673831 31.9066838,12.7734645 C31.6290731,12.6265052 31.372817,12.4375575 31.1592703,12.2276156 C30.9030142,11.9966795 30.6681128,11.723755 30.4118568,11.492819 C29.3654778,10.5270863 28.1696161,9.75030126 26.8669811,9.16246396 C25.5216367,8.57462667 24.0908736,8.19673126 22.6387559,8.07076613 C21.1439288,7.94480099 19.6277471,8.04977194 18.1756293,8.40667315 C16.7662209,8.76357437 15.4208766,9.35141166 14.1823055,10.1281967 C12.9864439,10.9049817 11.9187102,11.8707144 11.0431687,12.9624122 C10.1462724,14.0751042 9.44156821,15.3347556 8.95041074,16.6783837 C8.45925327,18.043006 8.2029972,19.491605 8.2029972,20.9402041 C8.2029972,22.4097973 8.4378986,23.8583963 8.92905607,25.2440128 C9.39885886,26.5876409 10.1035631,27.8262981 10.9791046,28.9389901 C11.8546462,30.0516821 12.9223799,31.0174148 14.1182415,31.7941998 C15.3354579,32.591979 16.6808022,33.1798163 18.1115653,33.5367175 C19.563683,33.9146129 21.0798648,34.0195839 22.5746919,33.8936187 C24.0268096,33.7676536 25.4575727,33.4107524 26.8029171,32.8229151 C26.9523998,32.7599325 27.0805278,32.6759558 27.2300105,32.6549616 C27.3581386,32.6339674 27.4862666,32.6339674 27.6143946,32.6759558 C27.8706507,32.7599325 28.0628428,32.9488802 28.1269068,33.2008105 C28.1909708,33.4317466 28.1482614,33.704671 27.9774241,33.8936187 C27.8920054,33.9985897 27.7638773,34.0615722 27.6357493,34.1245548 C27.4649119,34.1875374 27.3154292,34.2715141 27.1445918,34.3344967 C25.7778928,34.9013398 24.3471297,35.258241 22.8736573,35.3842062 C21.3788302,35.5311655 19.8626485,35.4471887 18.4105307,35.1532701 C18.6027228,35.363212 18.7735602,35.594148 18.9443975,35.8250841 C19.1152349,36.0560202 19.2860723,36.3079505 19.435555,36.5388866 C19.4569097,36.5808749 19.5209737,36.6648517 19.5209737,36.6648517 C19.5209737,36.6648517 19.5423284,36.6648517 19.5850377,36.6648517 C19.6704564,36.6648517 19.7345204,36.6858459 19.8199391,36.6858459 C19.9694218,36.7068401 20.1189045,36.7068401 20.2683872,36.7278343 C20.8876727,36.7698226 21.5069583,36.7698226 22.1262438,36.7488284 C23.3434601,36.6858459 24.5606764,36.5178924 25.7351834,36.1819853 C26.8669811,35.8670725 27.9774241,35.4261945 29.023803,34.8803456 C30.0488273,34.3344967 31.0097876,33.704671 31.8853292,32.9488802 C32.0988759,32.7599325 32.3124226,32.5709848 32.5259693,32.3820371 C32.7181614,32.2140836 32.8676441,32.0041417 33.1025455,31.8991708 C33.5082843,31.6892289 33.9994418,31.7522114 34.3411165,32.0251359 C34.704146,32.2980604 34.8536287,32.7599325 34.7468553,33.2008105 C34.6827913,33.4317466 34.5760179,33.6206943 34.4051805,33.7676536 C34.1916338,33.9566013 33.9994418,34.1665432 33.785895,34.3554909 C32.9317081,35.1112817 32.0134572,35.8040899 31.0311423,36.3919272 C30.0274726,37.0007587 28.9810937,37.5046193 27.8706507,37.9035089 C26.7388531,38.3233926 25.5857007,38.6173113 24.3898391,38.806259 C23.1726227,38.9952067 21.9340517,39.0791834 20.6954807,39.0371951 C20.8022541,39.3101195 20.8876727,39.583044 20.9730914,39.8559684 C21.0158008,39.9819336 21.0371555,40.1078987 21.0798648,40.2338638 C21.0798648,40.2758522 21.1225741,40.3808232 21.1225741,40.3808232 L21.2934115,40.4857941 Z" id="Path"></path>
                    <path d="M32.7604682,36.1900109 C31.586575,37.0675153 30.3078698,37.8196619 28.9662775,38.4046649 C28.2954814,38.6971663 27.6037229,38.9478819 26.891002,39.1777045 C26.5346415,39.2821693 26.1782811,39.3866341 25.8219206,39.4702059 C25.6751839,39.5119918 25.5074849,39.5328848 25.3607483,39.6164566 C25.234974,39.6791355 25.1511245,39.7836003 25.0882373,39.9089581 C24.9415007,40.1805666 24.9834254,40.493961 25.1720868,40.7237836 C25.3817106,40.9953921 25.6961463,41.037178 26.010582,40.9744991 C26.7233029,40.8073555 27.4360238,40.5984258 28.1277823,40.3477103 C29.5112994,39.8671722 30.8528917,39.2194904 32.1106344,38.4464508 C32.4250701,38.2584141 32.7395058,38.0494845 33.0329791,37.8405549 C33.1797158,37.7360901 33.3474148,37.6316253 33.4941515,37.5271605 C33.6199258,37.4226957 33.7666624,37.3391238 33.8714743,37.1928731 C34.0391733,36.9630505 34.0391733,36.6287631 33.8924367,36.3780476 C33.7457,36.1273321 33.4522267,35.9810813 33.1797158,36.0019743 C33.0120168,36.0437602 32.8652801,36.1064391 32.7604682,36.1900109 C30.6013431,37.777876 33.0958663,35.9392954 32.7604682,36.1900109 Z" id="Path"></path>
                    <path d="M35.9067748,34.1951993 C35.7479931,34.3713788 35.5715689,34.5475583 35.3951448,34.7237378 C35.2540055,34.8646814 35.0952238,34.9880071 35.0246542,35.1818045 C34.9187997,35.5517815 35.1657935,35.9393764 35.5362841,35.9922303 C35.7656355,36.0274662 35.959702,35.9393764 36.1184837,35.7984328 C36.2949078,35.6398713 36.471332,35.4636917 36.6301137,35.2875122 C36.771253,35.1465686 36.9300347,35.005625 36.9829619,34.7942096 C37.0182467,34.635648 37.0006043,34.4418506 36.9123923,34.300907 C36.7006833,33.948548 36.1890534,33.8956941 35.9067748,34.1951993 C35.6774234,34.4418506 36.1537685,33.93093 35.9067748,34.1951993 Z" id="Path"></path>
                    <path d="M30.5536219,30.2032252 C30.0280752,30.6548367 29.4796787,31.0688138 28.8855824,31.4451568 C28.7256334,31.5392425 28.5428346,31.6521453 28.3828856,31.7462311 C28.2457865,31.8214997 28.1315372,31.9344025 28.0629876,32.0661225 C27.9258885,32.3295626 28.0172879,32.649454 28.2914862,32.8376255 C28.6113842,33.0634312 29.0226816,33.0446141 29.3654294,32.8376255 C29.6853274,32.649454 30.0052254,32.4612826 30.3022735,32.2731111 C30.5764718,32.0849397 30.8506701,31.8779511 31.1248683,31.6709625 C31.2848173,31.5580596 31.4219165,31.4263396 31.5818654,31.2946196 C31.7189646,31.1817167 31.8560637,31.0688138 31.9474631,30.9182767 C32.0845623,30.6172024 31.9474631,30.2596766 31.6047153,30.0903223 C31.2619675,29.9397851 30.8278202,29.9774194 30.5536219,30.2032252 C29.753877,30.8994595 30.8735199,29.9397851 30.5536219,30.2032252 Z" id="Path"></path>
                    <path d="M21.9949538,15 C20.9590643,15 19.9443153,15.3172898 19.0986912,15.9307167 C18.2742077,16.522991 17.6399896,17.3479444 17.30174,18.2998138 C16.9423497,19.2728358 16.9000685,20.3727737 17.1960369,21.388101 C17.4708648,22.361123 18.0416611,23.2283818 18.8238634,23.8629613 C19.6060657,24.5186935 20.599674,24.9205939 21.614423,24.9840519 C22.6503125,25.0686625 23.7073427,24.8148307 24.595248,24.2648617 C25.4620127,23.7360454 26.138512,22.9745499 26.5613241,22.0438332 C26.9841362,21.0919639 27.1109798,20.0131786 26.8995738,18.9766986 C26.7093083,17.982524 26.1807932,17.0518073 25.4620127,16.3537697 C24.7220916,15.6557322 23.7707645,15.1903739 22.7771562,15.0211527 C22.5023283,15.0211527 22.2486411,15 21.9949538,15 Z" id="Path"></path>
                </g>
                <g id="Group-8" transform="translate(482.000000, 273.000000)" fill="#979797">
                    <rect id="Rectangle-Copy-23" x="0" y="0" width="28" height="6" rx="3"></rect>
                    <rect id="Rectangle-Copy-31" x="0" y="14" width="28" height="6" rx="3"></rect>
                </g>
                <g id="Group-8-Copy-2" transform="translate(566.000000, 273.000000)" fill="#979797">
                    <rect id="Rectangle-Copy-23" x="0" y="0" width="28" height="6" rx="3"></rect>
                    <rect id="Rectangle-Copy-31" x="0" y="14" width="28" height="6" rx="3"></rect>
                </g>
                <g id="Group-8-Copy" transform="translate(524.000000, 273.000000)" fill="#D8D8D8">
                    <rect id="Rectangle-Copy-23" x="0" y="0" width="28" height="6" rx="3"></rect>
                    <rect id="Rectangle-Copy-31" x="0" y="14" width="28" height="6" rx="3"></rect>
                </g>
                <g id="Group-8-Copy-3" transform="translate(608.000000, 273.000000)" fill="#D8D8D8">
                    <rect id="Rectangle-Copy-23" x="0" y="0" width="28" height="6" rx="3"></rect>
                    <rect id="Rectangle-Copy-31" x="0" y="14" width="28" height="6" rx="3"></rect>
                </g>
                <g id="Group-6" transform="translate(482.000000, 313.000000)" fill="#979797">
                    <rect id="Rectangle-Copy-24" x="0" y="-9.09494702e-13" width="28" height="6" rx="3"></rect>
                    <rect id="Rectangle-Copy-32" x="0" y="14" width="28" height="6" rx="3"></rect>
                </g>
                <g id="Group-6-Copy" transform="translate(566.000000, 313.000000)" fill="#979797">
                    <rect id="Rectangle-Copy-24" x="0" y="-9.09494702e-13" width="28" height="6" rx="3"></rect>
                    <rect id="Rectangle-Copy-32" x="0" y="14" width="28" height="6" rx="3"></rect>
                </g>
                <rect id="Rectangle-Copy-24" fill="#D8D8D8" x="524" y="313" width="28" height="6" rx="3"></rect>
                <rect id="Rectangle-Copy-37" fill="#D8D8D8" x="608" y="313" width="28" height="6" rx="3"></rect>
                <rect id="Rectangle-Copy-32" fill="#D8D8D8" x="524" y="327" width="28" height="6" rx="3"></rect>
                <rect id="Rectangle-Copy-38" fill="#D8D8D8" x="608" y="327" width="28" height="6" rx="3"></rect>
                <g id="Group-10" transform="translate(482.000000, 353.000000)" fill="#979797">
                    <rect id="Rectangle-Copy-25" x="0" y="-9.09494702e-13" width="28" height="6" rx="3"></rect>
                    <rect id="Rectangle-Copy-33" x="0" y="14" width="28" height="6" rx="3"></rect>
                </g>
                <g id="Group-10-Copy-2" transform="translate(566.000000, 353.000000)" fill="#979797">
                    <rect id="Rectangle-Copy-25" x="0" y="-9.09494702e-13" width="28" height="6" rx="3"></rect>
                    <rect id="Rectangle-Copy-33" x="0" y="14" width="28" height="6" rx="3"></rect>
                </g>
                <g id="Group-10-Copy" transform="translate(524.000000, 353.000000)" fill="#D8D8D8">
                    <rect id="Rectangle-Copy-25" x="0" y="-9.09494702e-13" width="28" height="6" rx="3"></rect>
                    <rect id="Rectangle-Copy-33" x="0" y="14" width="28" height="6" rx="3"></rect>
                </g>
                <g id="Group-10-Copy-3" transform="translate(608.000000, 353.000000)" fill="#D8D8D8">
                    <rect id="Rectangle-Copy-25" x="0" y="-9.09494702e-13" width="28" height="6" rx="3"></rect>
                    <rect id="Rectangle-Copy-33" x="0" y="14" width="28" height="6" rx="3"></rect>
                </g>
                <g id="Group-11" transform="translate(482.000000, 393.000000)" fill="#979797">
                    <rect id="Rectangle-Copy-34" x="0" y="-9.09494702e-13" width="28" height="6" rx="3"></rect>
                    <rect id="Rectangle-Copy-35" x="0" y="14" width="28" height="6" rx="3"></rect>
                </g>
                <g id="Group-11-Copy-2" transform="translate(566.000000, 393.000000)" fill="#979797">
                    <rect id="Rectangle-Copy-34" x="0" y="-9.09494702e-13" width="28" height="6" rx="3"></rect>
                    <rect id="Rectangle-Copy-35" x="0" y="14" width="28" height="6" rx="3"></rect>
                </g>
                <g id="Group-11-Copy" transform="translate(524.000000, 393.000000)" fill="#D8D8D8">
                    <rect id="Rectangle-Copy-34" x="0" y="-9.09494702e-13" width="28" height="6" rx="3"></rect>
                    <rect id="Rectangle-Copy-35" x="0" y="14" width="28" height="6" rx="3"></rect>
                </g>
                <g id="Group-11-Copy-3" transform="translate(608.000000, 393.000000)" fill="#D8D8D8">
                    <rect id="Rectangle-Copy-34" x="0" y="-9.09494702e-13" width="28" height="6" rx="3"></rect>
                    <rect id="Rectangle-Copy-35" x="0" y="14" width="28" height="6" rx="3"></rect>
                </g>
                <path d="M551.202798,210.857872 C551.202798,214.834607 553.159455,219.124585 557.465271,219.124585 C560.658492,219.124585 563.887124,216.554283 563.887124,210.799521 C563.887124,205.75411 561.349066,202.366976 557.571525,202.366976 C554.493406,202.366976 551.202798,204.596394 551.202798,210.857872 Z M559.088445,195 C566.808818,195 572,201.304454 572,210.688973 C572,219.926082 566.531399,226.374863 558.713639,226.374863 C554.986251,226.374863 552.598724,224.728889 551.350356,223.537398 C551.359223,223.819912 551.365116,224.13622 551.365116,224.473998 L551.365116,237 L543.367333,237 L543.367333,203.626019 C543.367333,203.140811 543.216821,202.987287 542.75053,202.987287 L540,202.987287 L540,195.678661 L546.711057,195.678661 C549.80098,195.678661 550.591896,197.300057 550.74241,198.549899 C551.996689,197.100469 554.596704,195 559.088445,195 Z" id="path-1" fill="#26292C" fill-rule="nonzero"></path>
            </g>
            <path d="M552.490687,113.423867 L553.146382,114.772964 L561.171029,131.28372 L562.33671,133.682115 L559.681719,133.432848 L541.404536,131.716872 L539.911104,131.576659 L540.191529,128.589794 L541.684962,128.730007 L554.26,129.91 L547.411361,125.164064 L546.178463,124.309686 L547.887219,121.843889 L549.120117,122.698267 L555.969,127.444 L550.448188,116.084355 L549.792492,114.735258 L552.490687,113.423867 Z M251.731924,124.083825 L253.427511,126.558696 L252.190076,127.406489 C250.352594,128.665387 248.523685,129.9502 246.703348,131.26093 L244.885868,132.5803 L243.675397,133.466168 L241.903662,131.045227 L243.114132,130.159359 C244.947538,128.817605 246.789706,127.501964 248.640637,126.212438 L250.494489,124.931618 L251.731924,124.083825 Z M557.055,129.68 L556.735,130.142 L557.306,130.196 L557.055,129.68 Z M267.036398,114.420432 L268.568306,116.999823 L267.278611,117.765777 C265.361988,118.904065 263.454247,120.069168 261.555384,121.26109 L259.659481,122.46195 L258.395564,123.269733 L256.779998,120.741899 L258.043915,119.934116 C259.957521,118.71111 261.880195,117.515158 263.811938,116.346263 L265.746703,115.186386 L267.036398,114.420432 Z M532.418922,112.377242 L533.719998,113.1237 C535.675509,114.245623 537.621892,115.394792 539.559145,116.571205 L541.493355,117.7567 L542.769021,118.545798 L541.190824,121.09713 L539.915158,120.308032 C538.005062,119.12649 536.086024,117.971947 534.158044,116.844401 L532.227082,115.725853 L530.926006,114.979395 L532.418922,112.377242 Z M282.946371,105.795872 L284.300622,108.472811 L282.962153,109.149937 C280.971178,110.157162 278.989336,111.19192 277.016625,112.254215 L275.046956,113.325688 L273.732353,114.048057 L272.287615,111.41885 L273.602218,110.69648 C275.591228,109.603528 277.589547,108.538386 279.597173,107.501056 L281.607901,106.472997 L282.946371,105.795872 Z M516.413011,104.015094 L517.761779,104.671469 C519.7917,105.659325 521.812272,106.675133 523.823493,107.71889 L525.831597,108.771963 L527.157025,109.474272 L525.752406,112.12513 L524.426978,111.42282 C522.444727,110.372478 520.4533,109.349803 518.452695,108.354792 L516.44903,107.369003 L515.100263,106.712629 L516.413011,104.015094 Z M299.435449,98.276551 L300.599869,101.041352 L299.217468,101.623562 C297.15942,102.490327 295.11068,103.385103 293.071245,104.30789 L291.034912,105.240015 L289.673751,105.870284 L288.413213,103.147961 L289.774374,102.517692 C291.831427,101.565199 293.897943,100.641025 295.973919,99.7451729 L298.053048,98.8587611 L299.435449,98.276551 Z M499.808908,96.7551881 L501.200324,97.3155102 C503.29688,98.1597917 505.383955,99.0324772 507.461544,99.933565 L509.535971,100.84412 L510.906821,101.453029 L509.689002,104.194729 L508.318152,103.58582 C506.270981,102.6765 504.214476,101.795269 502.148634,100.942124 L500.07968,100.098343 L498.688264,99.5380205 L499.808908,96.7551881 Z M316.381063,91.9478834 L317.347144,94.7880747 L315.927049,95.2711155 C313.809926,95.9912477 311.702211,96.7396288 309.603899,97.5162601 L307.508721,98.3023083 L306.106655,98.8354211 L305.040429,96.031288 L306.442496,95.4981751 C308.700535,94.6395927 310.969419,93.8135287 313.249142,93.0199847 L314.960967,92.4309242 L316.381063,91.9478834 Z M482.726895,90.6841376 L484.154561,91.1443229 C486.452773,91.885115 488.740143,92.6584524 491.016667,93.4643337 L492.722026,94.0748466 L494.132453,94.5854304 L493.111285,97.4062843 L491.700858,96.8957005 C489.596744,96.1339975 487.483217,95.4005636 485.360273,94.6953977 L483.23419,93.9996544 L481.806525,93.5394691 L482.726895,90.6841376 Z M333.765516,86.8267934 L334.527767,89.7283399 L333.076994,90.1094657 C330.911905,90.6782458 328.756222,91.27521 326.60994,91.9003587 L324.466792,92.5349022 L323.03041,92.9671149 L322.165985,90.0943517 L323.602366,89.662139 C325.912168,88.9671108 328.23277,88.304538 330.564169,87.6744212 L332.314742,87.2079191 L333.765516,86.8267934 Z M465.272327,85.8440974 L466.728972,86.2021277 C469.07599,86.7790036 471.412235,87.3882835 473.737703,88.0299668 L475.479783,88.5173048 L476.922887,88.9265133 L476.10447,91.8127208 L474.661366,91.4035123 C472.511774,90.7939709 470.352792,90.2125679 468.184417,89.659303 L466.012912,89.1154175 L464.556267,88.7573872 L465.272327,85.8440974 Z M351.468542,82.9427705 L352.025937,85.8905342 L350.552055,86.1692318 C348.348764,86.585854 346.154794,87.0303564 343.970144,87.5027386 L341.788599,87.9844142 L340.325303,88.3142069 L339.665718,85.3876138 L341.129014,85.0578211 C343.332932,84.5611097 345.546222,84.0926157 347.76888,83.652339 L349.99466,83.2214681 L351.468542,82.9427705 Z M447.541586,82.2436571 L449.019588,82.4996043 C451.255052,82.8867218 453.481191,83.3019417 455.698002,83.7452641 L457.911703,84.197954 L459.379972,84.5048514 L458.766177,87.4413895 L457.297908,87.1344921 C455.112735,86.6777476 452.918278,86.2487708 450.714534,85.8475619 L448.507694,85.455609 L447.029692,85.1996619 L447.541586,82.2436571 Z M369.394625,80.2882806 L369.750189,83.2671352 L368.260761,83.444917 C366.031464,83.7110117 363.811312,84.0044095 361.600301,84.3251096 L359.392337,84.6549105 L357.909748,84.8827885 L357.453992,81.9176095 L358.936581,81.6897315 C361.166526,81.346983 363.405629,81.0318582 365.653888,80.7443565 L367.905197,80.4660625 L369.394625,80.2882806 Z M429.600825,79.8626386 L431.092718,80.0183852 C433.351814,80.2542243 435.601808,80.517538 437.842698,80.8083271 L440.080552,81.1082748 L441.566406,81.313789 L441.155378,84.2854982 L439.669524,84.0799841 C437.459578,83.7743182 435.240537,83.4958112 433.012397,83.244464 L430.781225,83.00217 L429.289332,82.8464234 L429.600825,79.8626386 Z M387.384114,78.8354098 L387.545134,81.8310854 L386.047297,81.9115956 C383.802812,82.0322388 381.567222,82.1794024 379.340524,82.3530852 L377.11679,82.5356078 L375.622328,82.6643845 L375.364774,79.6754606 L376.859236,79.5466838 C379.104161,79.3532402 381.357964,79.1866116 383.620641,79.0467969 L385.886276,78.91592 L387.384114,78.8354098 Z M411.530074,78.6666408 L413.02891,78.7257125 C415.300057,78.8152223 417.562395,78.9313552 419.815921,79.0741125 L422.066511,79.2257446 L423.562701,79.332589 L423.349012,82.3249689 L421.852822,82.2181245 C419.629086,82.0593253 417.396517,81.9268613 415.155114,81.8207339 L412.910767,81.7233853 L411.411931,81.6643135 L411.530074,78.6666408 Z M401.5,78.5 L402.744604,78.5026003 L402.744604,78.5026003 L403.987488,78.5104012 L405.487435,78.5229625 L405.462313,81.5228573 L403.962366,81.510296 C403.142729,81.503432 402.321941,81.5 401.5,81.5 C400.052042,81.5 398.607659,81.5106508 397.16685,81.5319521 L395.008319,81.5718918 L393.508689,81.6052306 L393.442012,78.6059716 L394.941641,78.5726329 C397.119754,78.5242105 399.305874,78.5 401.5,78.5 Z" id="Line-5" fill="#26292C" fill-rule="nonzero"></path>
        </g>
    </g>
</svg>