<?xml version="1.0" encoding="UTF-8"?>
<svg width="1400px" height="518px" viewBox="0 0 1400 518" version="1.1" xmlns="http://www.w3.org/2000/svg" xmlns:xlink="http://www.w3.org/1999/xlink">
    <!-- Generator: Sketch 52.6 (67491) - http://www.bohemiancoding.com/sketch -->
    <title>Group 94</title>
    <desc>Created with Sketch.</desc>
    <g id="Page-4" stroke="none" stroke-width="1" fill="none" fill-rule="evenodd">
        <g id="Reporting-and-Analytics" transform="translate(-30.000000, -69.000000)">
            <g id="chargebee-icon-black" transform="translate(0.000000, -1.000000)">
                <g id="Group-94" transform="translate(30.000000, 70.000000)">
                    <path d="M1312.72727,408.636364 C1312.72727,468.635026 1264.08881,517.272727 1204.0914,517.272727 C1144.09301,517.272727 1095.45455,468.635026 1095.45455,408.636364 C1095.45455,348.638685 1144.09301,300 1204.0914,300 C1264.08881,300 1312.72727,348.638685 1312.72727,408.636364" id="Fill-1" fill="#F9D8D4"></path>
                    <path d="M1297.93876,482.727273 L1295.45311,480.243716 C1293.03474,477.82739 1293.03474,473.894432 1295.45311,471.478106 L1300.41946,466.516925 C1301.21701,465.719062 1301.65635,464.660189 1301.65635,463.532109 C1301.65635,462.404028 1301.21701,461.345155 1300.41946,460.547293 L1295.45311,455.586112 C1294.28152,454.415518 1293.63636,452.858352 1293.63636,451.203307 C1293.63636,449.547273 1294.28152,447.990106 1295.45311,446.820502 L1300.42342,441.854377 C1302.06997,440.209219 1302.06997,437.530893 1300.42342,435.884745 L1295.45311,430.919609 C1293.03474,428.503283 1293.03474,424.571314 1295.45311,422.153011 L1300.41946,417.192818 C1302.06601,415.546671 1302.06601,412.868345 1300.41946,411.223186 L1295.45311,406.261017 C1293.03474,403.84469 1293.03474,399.911733 1295.45311,397.495406 L1300.42342,392.53027 C1302.06997,390.884123 1302.06997,388.205797 1300.42342,386.560639 L1295.45311,381.594514 C1293.03474,379.178188 1293.03474,375.246219 1295.45311,372.829893 L1300.41946,367.867723 C1302.067,366.221576 1302.067,363.544238 1300.41946,361.898091 L1295.45311,356.93691 C1294.28152,355.766316 1293.63636,354.210139 1293.63636,352.554105 C1293.63636,350.898071 1294.28152,349.341893 1295.45311,348.1713 L1300.42342,343.205175 C1302.06997,341.560017 1302.06997,338.881691 1300.42342,337.236532 L1295.45311,332.270407 C1293.03474,329.853092 1293.03474,325.920135 1295.45311,323.504797 L1300.41946,318.543616 C1302.06601,316.897469 1302.06601,314.220132 1300.41946,312.572996 L1295.45311,307.611815 C1293.03474,305.195488 1293.03474,301.26352 1295.45311,298.847193 L1297.93876,296.363636 L1299.33793,297.761626 L1296.85227,300.245182 C1295.20573,301.890341 1295.20573,304.568667 1296.85227,306.213825 L1301.81863,311.175006 C1304.237,313.59331 1304.237,317.525279 1301.81863,319.941605 L1296.85227,324.902787 C1295.20573,326.547945 1295.20573,329.226271 1296.85227,330.872418 L1301.82259,335.838543 C1304.24095,338.254869 1304.24095,342.186838 1301.82259,344.603164 L1296.85227,349.569289 C1296.05473,350.367151 1295.61539,351.426024 1295.61539,352.554105 C1295.61539,353.682185 1296.05473,354.741058 1296.85227,355.537932 L1301.81863,360.500102 C1304.237,362.916428 1304.237,366.849385 1301.81863,369.265712 L1296.85227,374.227882 C1295.20573,375.87304 1295.20573,378.551366 1296.85227,380.196525 L1301.82259,385.162649 C1304.24095,387.579965 1304.24095,391.510944 1301.82259,393.92826 L1296.85227,398.893396 C1295.20474,400.539543 1295.20474,403.21688 1296.85227,404.863027 L1301.81863,409.825197 C1304.237,412.240535 1304.237,416.173492 1301.81863,418.590807 L1296.85227,423.551 C1295.20573,425.198136 1295.20573,427.876462 1296.85227,429.52162 L1301.82259,434.486756 C1304.24095,436.904071 1304.24095,440.837028 1301.82259,443.252366 L1296.85227,448.218491 C1296.05473,449.015365 1295.61539,450.076215 1295.61539,451.203307 C1295.61539,452.330398 1296.05473,453.39026 1296.85227,454.188123 L1301.81863,459.149304 C1302.99021,460.319897 1303.63537,461.876075 1303.63537,463.532109 C1303.63537,465.188143 1302.99021,466.74432 1301.81863,467.914914 L1296.85227,472.876095 C1295.20474,474.522242 1295.20474,477.19958 1296.85227,478.845727 L1299.33793,481.329283 L1297.93876,482.727273 Z" id="Fill-3" fill="#DEB8B3"></path>
                    <path d="M1312.48322,482.727273 L1309.99856,480.243716 C1307.5802,477.82739 1307.5802,473.894432 1309.99856,471.478106 L1314.96492,466.516925 C1315.76246,465.719062 1316.20181,464.660189 1316.20181,463.532109 C1316.20181,462.404028 1315.76246,461.345155 1314.96492,460.547293 L1309.99856,455.586112 C1308.82698,454.415518 1308.18182,452.858352 1308.18182,451.203307 C1308.18182,449.547273 1308.82698,447.990106 1309.99856,446.820502 L1314.96888,441.854377 C1316.61542,440.209219 1316.61542,437.530893 1314.96888,435.884745 L1309.99856,430.919609 C1307.5802,428.503283 1307.5802,424.571314 1309.99856,422.153011 L1314.96492,417.192818 C1316.61146,415.546671 1316.61146,412.868345 1314.96492,411.223186 L1309.99856,406.261017 C1307.5802,403.84469 1307.5802,399.911733 1309.99856,397.495406 L1314.96888,392.53027 C1316.61542,390.884123 1316.61542,388.205797 1314.96888,386.560639 L1309.99856,381.594514 C1307.5802,379.178188 1307.5802,375.246219 1309.99856,372.829893 L1314.96492,367.867723 C1316.61245,366.221576 1316.61245,363.544238 1314.96492,361.898091 L1309.99856,356.93691 C1308.82698,355.766316 1308.18182,354.210139 1308.18182,352.554105 C1308.18182,350.898071 1308.82698,349.341893 1309.99856,348.1713 L1314.96888,343.205175 C1316.61542,341.560017 1316.61542,338.881691 1314.96888,337.236532 L1309.99856,332.270407 C1307.5802,329.853092 1307.5802,325.920135 1309.99856,323.504797 L1314.96492,318.543616 C1316.61146,316.897469 1316.61146,314.220132 1314.96492,312.572996 L1309.99856,307.611815 C1307.5802,305.195488 1307.5802,301.26352 1309.99856,298.847193 L1312.48322,296.363636 L1313.88239,297.761626 L1311.39773,300.245182 C1309.75118,301.890341 1309.75118,304.568667 1311.39773,306.213825 L1316.36409,311.175006 C1318.78245,313.59331 1318.78245,317.525279 1316.36409,319.941605 L1311.39773,324.902787 C1309.75118,326.547945 1309.75118,329.226271 1311.39773,330.872418 L1316.36804,335.838543 C1318.78641,338.254869 1318.78641,342.186838 1316.36804,344.603164 L1311.39773,349.569289 C1310.60018,350.367151 1310.16084,351.426024 1310.16084,352.554105 C1310.16084,353.682185 1310.60018,354.741058 1311.39773,355.537932 L1316.36409,360.500102 C1318.78245,362.916428 1318.78245,366.849385 1316.36409,369.265712 L1311.39773,374.227882 C1309.75118,375.87304 1309.75118,378.551366 1311.39773,380.196525 L1316.36804,385.162649 C1318.78641,387.579965 1318.78641,391.510944 1316.36804,393.92826 L1311.39773,398.893396 C1309.75019,400.539543 1309.75019,403.21688 1311.39773,404.863027 L1316.36409,409.825197 C1318.78245,412.240535 1318.78245,416.173492 1316.36409,418.590807 L1311.39773,423.551 C1309.75118,425.198136 1309.75118,427.876462 1311.39773,429.52162 L1316.36804,434.486756 C1318.78641,436.904071 1318.78641,440.837028 1316.36804,443.252366 L1311.39773,448.218491 C1310.60018,449.015365 1310.16084,450.076215 1310.16084,451.203307 C1310.16084,452.330398 1310.60018,453.39026 1311.39773,454.188123 L1316.36409,459.149304 C1317.53567,460.319897 1318.18083,461.876075 1318.18083,463.532109 C1318.18083,465.188143 1317.53567,466.74432 1316.36409,467.914914 L1311.39773,472.876095 C1309.75019,474.522242 1309.75019,477.19958 1311.39773,478.845727 L1313.88239,481.329283 L1312.48322,482.727273 Z" id="Fill-5" fill="#DEB8B3"></path>
                    <path d="M1327.93706,482.727273 L1325.45239,480.243716 C1323.03498,477.82739 1323.03498,473.894432 1325.45239,471.478106 L1330.41678,466.516925 C1331.21401,465.719062 1331.65318,464.660189 1331.65318,463.532109 C1331.65318,462.404028 1331.21401,461.345155 1330.41678,460.547293 L1325.45239,455.586112 C1324.28127,454.415518 1323.63636,452.858352 1323.63636,451.203307 C1323.63636,449.547273 1324.28127,447.990106 1325.45239,446.820502 L1330.42074,441.854377 C1332.06762,440.209219 1332.06762,437.530893 1330.42172,435.884745 L1325.45239,430.919609 C1323.03498,428.503283 1323.03498,424.571314 1325.45239,422.153011 L1330.41678,417.192818 C1332.06267,415.546671 1332.06267,412.868345 1330.41678,411.223186 L1325.45239,406.261017 C1323.03498,403.84469 1323.03498,399.911733 1325.45239,397.495406 L1330.42074,392.53027 C1331.21797,391.732408 1331.65812,390.672546 1331.65812,389.545455 C1331.65812,388.417374 1331.21896,387.358501 1330.42172,386.560639 L1325.45239,381.594514 C1323.03498,379.178188 1323.03498,375.246219 1325.45239,372.829893 L1330.41678,367.867723 C1332.06366,366.221576 1332.06366,363.544238 1330.41678,361.898091 L1325.45239,356.93691 C1324.28127,355.766316 1323.63636,354.210139 1323.63636,352.554105 C1323.63636,350.898071 1324.28127,349.341893 1325.45239,348.1713 L1330.42074,343.205175 C1331.21797,342.407313 1331.65812,341.347451 1331.65812,340.220359 C1331.65812,339.093267 1331.21896,338.033406 1330.42172,337.236532 L1325.45239,332.270407 C1323.03498,329.853092 1323.03498,325.920135 1325.45239,323.504797 L1330.41678,318.543616 C1332.06267,316.897469 1332.06267,314.220132 1330.41678,312.572996 L1325.45239,307.611815 C1323.03498,305.195488 1323.03498,301.26352 1325.45239,298.847193 L1327.93706,296.363636 L1329.33567,297.761626 L1326.851,300.245182 C1325.20511,301.890341 1325.20511,304.568667 1326.851,306.213825 L1331.81539,311.175006 C1334.2328,313.59331 1334.2328,317.525279 1331.81539,319.941605 L1326.851,324.902787 C1325.20511,326.547945 1325.20511,329.226271 1326.851,330.872418 L1331.82034,335.838543 C1332.99146,337.008148 1333.63636,338.565314 1333.63636,340.220359 C1333.63636,341.876393 1332.99047,343.432571 1331.81935,344.603164 L1326.851,349.569289 C1326.05377,350.367151 1325.6146,351.426024 1325.6146,352.554105 C1325.6146,353.682185 1326.05377,354.741058 1326.851,355.537932 L1331.81539,360.500102 C1334.2328,362.916428 1334.2328,366.849385 1331.81539,369.265712 L1326.851,374.227882 C1325.20511,375.87304 1325.20511,378.551366 1326.851,380.196525 L1331.82034,385.162649 C1332.99146,386.333243 1333.63636,387.889421 1333.63636,389.545455 C1333.63636,391.201489 1332.99047,392.757666 1331.81935,393.92826 L1326.851,398.893396 C1325.20412,400.539543 1325.20412,403.21688 1326.851,404.863027 L1331.81539,409.825197 C1334.2328,412.240535 1334.2328,416.173492 1331.81539,418.590807 L1326.851,423.551 C1325.20511,425.198136 1325.20511,427.876462 1326.851,429.52162 L1331.82034,434.486756 C1332.99146,435.658338 1333.63636,437.214516 1333.63636,438.87055 C1333.63636,440.525595 1332.99047,442.082761 1331.81935,443.252366 L1326.851,448.218491 C1326.05377,449.015365 1325.6146,450.076215 1325.6146,451.203307 C1325.6146,452.330398 1326.05377,453.39026 1326.851,454.188123 L1331.81539,459.149304 C1332.98651,460.319897 1333.63142,461.876075 1333.63142,463.532109 C1333.63142,465.188143 1332.98651,466.74432 1331.81539,467.914914 L1326.851,472.876095 C1325.20412,474.522242 1325.20412,477.19958 1326.851,478.845727 L1329.33567,481.329283 L1327.93706,482.727273 Z" id="Fill-7" fill="#DEB8B3"></path>
                    <path d="M1341.57512,482.727273 L1339.08947,480.243716 C1337.91789,479.074111 1337.27273,477.515956 1337.27273,475.8619 C1337.27273,474.205866 1337.91789,472.648699 1339.08947,471.478106 L1344.05583,466.516925 C1344.85337,465.719062 1345.29272,464.660189 1345.29272,463.532109 C1345.29272,462.404028 1344.85337,461.345155 1344.05583,460.547293 L1339.08947,455.586112 C1336.6711,453.169785 1336.6711,449.236828 1339.08947,446.820502 L1344.05978,441.854377 C1345.70633,440.209219 1345.70633,437.530893 1344.05978,435.884745 L1339.08947,430.919609 C1336.6711,428.503283 1336.6711,424.571314 1339.08947,422.153011 L1344.05583,417.192818 C1345.70237,415.546671 1345.70237,412.868345 1344.05583,411.223186 L1339.08947,406.261017 C1336.6711,403.84469 1336.6711,399.911733 1339.08947,397.495406 L1344.05978,392.53027 C1345.70633,390.884123 1345.70633,388.205797 1344.05978,386.560639 L1339.08947,381.594514 C1336.6711,379.178188 1336.6711,375.246219 1339.08947,372.829893 L1344.05583,367.867723 C1345.70336,366.221576 1345.70336,363.544238 1344.05583,361.898091 L1339.08947,356.93691 C1336.6711,354.519595 1336.6711,350.588615 1339.08947,348.1713 L1344.05978,343.205175 C1345.70633,341.560017 1345.70633,338.881691 1344.05978,337.236532 L1339.08947,332.270407 C1336.6711,329.853092 1336.6711,325.920135 1339.08947,323.504797 L1344.05583,318.543616 C1345.70237,316.897469 1345.70237,314.220132 1344.05583,312.572996 L1339.08947,307.611815 C1337.91789,306.441221 1337.27273,304.885043 1337.27273,303.229009 C1337.27273,301.572975 1337.91789,300.016798 1339.08947,298.847193 L1341.57512,296.363636 L1342.97429,297.761626 L1340.48864,300.245182 C1339.69109,301.042056 1339.25175,302.101918 1339.25175,303.229009 C1339.25175,304.35709 1339.69109,305.415963 1340.48864,306.213825 L1345.455,311.175006 C1347.87336,313.59331 1347.87336,317.525279 1345.455,319.941605 L1340.48864,324.902787 C1338.84209,326.547945 1338.84209,329.226271 1340.48864,330.872418 L1345.45895,335.838543 C1347.87732,338.254869 1347.87732,342.186838 1345.45895,344.603164 L1340.48864,349.569289 C1338.84209,351.214447 1338.84209,353.892773 1340.48864,355.537932 L1345.455,360.500102 C1347.87336,362.916428 1347.87336,366.849385 1345.455,369.265712 L1340.48864,374.227882 C1338.84209,375.87304 1338.84209,378.551366 1340.48864,380.196525 L1345.45895,385.162649 C1347.87732,387.579965 1347.87732,391.510944 1345.45895,393.92826 L1340.48864,398.893396 C1338.8411,400.539543 1338.8411,403.21688 1340.48864,404.863027 L1345.455,409.825197 C1347.87336,412.240535 1347.87336,416.173492 1345.455,418.590807 L1340.48864,423.551 C1338.84209,425.198136 1338.84209,427.876462 1340.48864,429.52162 L1345.45895,434.486756 C1347.87732,436.904071 1347.87732,440.837028 1345.45895,443.252366 L1340.48864,448.218491 C1338.8411,449.864638 1338.8411,452.541975 1340.48864,454.188123 L1345.455,459.149304 C1346.62658,460.319897 1347.27174,461.876075 1347.27174,463.532109 C1347.27174,465.188143 1346.62658,466.74432 1345.455,467.914914 L1340.48864,472.876095 C1339.69109,473.673957 1339.25175,474.733819 1339.25175,475.8619 C1339.25175,476.988003 1339.69109,478.048853 1340.48864,478.845727 L1342.97429,481.329283 L1341.57512,482.727273 Z" id="Fill-9" fill="#DEB8B3"></path>
                    <path d="M1400,46.3636364 C1400,71.9691136 1379.24184,92.7272727 1353.63538,92.7272727 C1328.0299,92.7272727 1307.27273,71.9691136 1307.27273,46.3636364 C1307.27273,20.7581591 1328.0299,0 1353.63538,0 C1379.24184,0 1400,20.7581591 1400,46.3636364" id="Fill-11" fill="#F9D8D4"></path>
                    <path d="M1197.81618,126.729688 C1188.88749,117.801111 1174.44117,117.758161 1165.45455,126.593846 L1197.95103,159.090909 C1206.78683,150.1044 1206.74488,135.658264 1197.81618,126.729688" id="Fill-13" fill="#F9D8D4"></path>
                    <polygon id="Fill-15" fill="#F9D8D4" points="155.454545 91.8181818 127.272727 120 127.272727 91.8181818"></polygon>
                    <polygon id="Fill-17" fill="#DEB8B3" points="1258.18182 500.909091 1353.63636 500.909091 1353.63636 404.545455 1258.18182 404.545455"></polygon>
                    <polygon id="Fill-19" fill="#FFFFFF" points="1353.63636 500.909091 1258.18182 404.545455 1353.63636 404.545455"></polygon>
                    <path d="M299.090909,332.727273 C298.086042,332.727273 297.272727,331.914192 297.272727,330.909614 C297.272727,329.906082 298.086042,329.090909 299.090909,329.090909 C300.095776,329.090909 300.909091,329.906082 300.909091,330.909614 C300.909091,331.914192 300.095776,332.727273 299.090909,332.727273" id="Fill-20" fill="#DEB8B3"></path>
                    <path d="M299.090909,347.272727 C298.086042,347.272727 297.272727,346.4586 297.272727,345.455069 C297.272727,344.450491 298.086042,343.636364 299.090909,343.636364 C300.095776,343.636364 300.909091,344.450491 300.909091,345.455069 C300.909091,346.4586 300.095776,347.272727 299.090909,347.272727" id="Fill-21" fill="#DEB8B3"></path>
                    <path d="M299.090909,360.909091 C298.086042,360.909091 297.272727,360.09601 297.272727,359.091432 C297.272727,358.086854 298.086042,357.272727 299.090909,357.272727 C300.095776,357.272727 300.909091,358.086854 300.909091,359.091432 C300.909091,360.09601 300.095776,360.909091 299.090909,360.909091" id="Fill-22" fill="#DEB8B3"></path>
                    <path d="M299.090909,376.363636 C298.086042,376.363636 297.272727,375.549744 297.272727,374.545455 C297.272727,373.542212 298.086042,372.727273 299.090909,372.727273 C300.095776,372.727273 300.909091,373.542212 300.909091,374.545455 C300.909091,375.549744 300.095776,376.363636 299.090909,376.363636" id="Fill-23" fill="#DEB8B3"></path>
                    <path d="M285.454545,332.727273 C284.449678,332.727273 283.636364,331.914192 283.636364,330.909614 C283.636364,329.906082 284.449678,329.090909 285.454545,329.090909 C286.458366,329.090909 287.272727,329.906082 287.272727,330.909614 C287.272727,331.914192 286.458366,332.727273 285.454545,332.727273" id="Fill-24" fill="#DEB8B3"></path>
                    <path d="M285.454545,347.272727 C284.449678,347.272727 283.636364,346.4586 283.636364,345.455069 C283.636364,344.450491 284.449678,343.636364 285.454545,343.636364 C286.458366,343.636364 287.272727,344.450491 287.272727,345.455069 C287.272727,346.4586 286.458366,347.272727 285.454545,347.272727" id="Fill-25" fill="#DEB8B3"></path>
                    <path d="M285.454545,360.909091 C284.449678,360.909091 283.636364,360.09601 283.636364,359.091432 C283.636364,358.086854 284.449678,357.272727 285.454545,357.272727 C286.458366,357.272727 287.272727,358.086854 287.272727,359.091432 C287.272727,360.09601 286.458366,360.909091 285.454545,360.909091" id="Fill-26" fill="#DEB8B3"></path>
                    <path d="M285.454545,376.363636 C284.449678,376.363636 283.636364,375.549744 283.636364,374.545455 C283.636364,373.542212 284.449678,372.727273 285.454545,372.727273 C286.458366,372.727273 287.272727,373.542212 287.272727,374.545455 C287.272727,375.549744 286.458366,376.363636 285.454545,376.363636" id="Fill-27" fill="#DEB8B3"></path>
                    <path d="M271.818182,332.727273 C270.814361,332.727273 270,331.914192 270,330.909614 C270,329.906082 270.814361,329.090909 271.818182,329.090909 C272.823049,329.090909 273.636364,329.906082 273.636364,330.909614 C273.636364,331.914192 272.823049,332.727273 271.818182,332.727273" id="Fill-28" fill="#DEB8B3"></path>
                    <path d="M271.818182,347.272727 C270.814361,347.272727 270,346.4586 270,345.455069 C270,344.450491 270.814361,343.636364 271.818182,343.636364 C272.823049,343.636364 273.636364,344.450491 273.636364,345.455069 C273.636364,346.4586 272.823049,347.272727 271.818182,347.272727" id="Fill-29" fill="#DEB8B3"></path>
                    <path d="M271.818182,360.909091 C270.814361,360.909091 270,360.09601 270,359.091432 C270,358.086854 270.814361,357.272727 271.818182,357.272727 C272.823049,357.272727 273.636364,358.086854 273.636364,359.091432 C273.636364,360.09601 272.823049,360.909091 271.818182,360.909091" id="Fill-30" fill="#DEB8B3"></path>
                    <path d="M271.818182,376.363636 C270.814361,376.363636 270,375.549744 270,374.545455 C270,373.542212 270.814361,372.727273 271.818182,372.727273 C272.823049,372.727273 273.636364,373.542212 273.636364,374.545455 C273.636364,375.549744 272.823049,376.363636 271.818182,376.363636" id="Fill-31" fill="#DEB8B3"></path>
                    <path d="M257.272727,332.727273 C256.26786,332.727273 255.454545,331.914192 255.454545,330.909614 C255.454545,329.906082 256.26786,329.090909 257.272727,329.090909 C258.277595,329.090909 259.090909,329.906082 259.090909,330.909614 C259.090909,331.914192 258.277595,332.727273 257.272727,332.727273" id="Fill-32" fill="#DEB8B3"></path>
                    <path d="M257.272727,347.272727 C256.26786,347.272727 255.454545,346.4586 255.454545,345.455069 C255.454545,344.450491 256.26786,343.636364 257.272727,343.636364 C258.277595,343.636364 259.090909,344.450491 259.090909,345.455069 C259.090909,346.4586 258.277595,347.272727 257.272727,347.272727" id="Fill-33" fill="#DEB8B3"></path>
                    <path d="M257.272727,360.909091 C256.26786,360.909091 255.454545,360.09601 255.454545,359.091432 C255.454545,358.086854 256.26786,357.272727 257.272727,357.272727 C258.277595,357.272727 259.090909,358.086854 259.090909,359.091432 C259.090909,360.09601 258.277595,360.909091 257.272727,360.909091" id="Fill-34" fill="#DEB8B3"></path>
                    <path d="M257.272727,376.363636 C256.26786,376.363636 255.454545,375.549744 255.454545,374.545455 C255.454545,373.542212 256.26786,372.727273 257.272727,372.727273 C258.277595,372.727273 259.090909,373.542212 259.090909,374.545455 C259.090909,375.549744 258.277595,376.363636 257.272727,376.363636" id="Fill-35" fill="#DEB8B3"></path>
                    <path d="M243.636364,332.727273 C242.631496,332.727273 241.818182,331.914192 241.818182,330.909614 C241.818182,329.906082 242.631496,329.090909 243.636364,329.090909 C244.640184,329.090909 245.454545,329.906082 245.454545,330.909614 C245.454545,331.914192 244.640184,332.727273 243.636364,332.727273" id="Fill-36" fill="#DEB8B3"></path>
                    <path d="M243.636364,347.272727 C242.631496,347.272727 241.818182,346.4586 241.818182,345.455069 C241.818182,344.450491 242.631496,343.636364 243.636364,343.636364 C244.640184,343.636364 245.454545,344.450491 245.454545,345.455069 C245.454545,346.4586 244.640184,347.272727 243.636364,347.272727" id="Fill-37" fill="#DEB8B3"></path>
                    <path d="M243.636364,360.909091 C242.631496,360.909091 241.818182,360.09601 241.818182,359.091432 C241.818182,358.086854 242.631496,357.272727 243.636364,357.272727 C244.640184,357.272727 245.454545,358.086854 245.454545,359.091432 C245.454545,360.09601 244.640184,360.909091 243.636364,360.909091" id="Fill-38" fill="#DEB8B3"></path>
                    <path d="M243.636364,376.363636 C242.631496,376.363636 241.818182,375.549744 241.818182,374.545455 C241.818182,373.542212 242.631496,372.727273 243.636364,372.727273 C244.640184,372.727273 245.454545,373.542212 245.454545,374.545455 C245.454545,375.549744 244.640184,376.363636 243.636364,376.363636" id="Fill-39" fill="#DEB8B3"></path>
                    <path d="M230,332.727273 C228.996179,332.727273 228.181818,331.914192 228.181818,330.909614 C228.181818,329.906082 228.996179,329.090909 230,329.090909 C231.004867,329.090909 231.818182,329.906082 231.818182,330.909614 C231.818182,331.914192 231.004867,332.727273 230,332.727273" id="Fill-40" fill="#DEB8B3"></path>
                    <path d="M230,347.272727 C228.996179,347.272727 228.181818,346.4586 228.181818,345.455069 C228.181818,344.450491 228.996179,343.636364 230,343.636364 C231.004867,343.636364 231.818182,344.450491 231.818182,345.455069 C231.818182,346.4586 231.004867,347.272727 230,347.272727" id="Fill-41" fill="#DEB8B3"></path>
                    <path d="M230,360.909091 C228.996179,360.909091 228.181818,360.09601 228.181818,359.091432 C228.181818,358.086854 228.996179,357.272727 230,357.272727 C231.004867,357.272727 231.818182,358.086854 231.818182,359.091432 C231.818182,360.09601 231.004867,360.909091 230,360.909091" id="Fill-42" fill="#DEB8B3"></path>
                    <path d="M230,376.363636 C228.996179,376.363636 228.181818,375.549744 228.181818,374.545455 C228.181818,373.542212 228.996179,372.727273 230,372.727273 C231.004867,372.727273 231.818182,373.542212 231.818182,374.545455 C231.818182,375.549744 231.004867,376.363636 230,376.363636" id="Fill-43" fill="#DEB8B3"></path>
                    <path d="M216.363636,332.727273 C215.359816,332.727273 214.545455,331.914192 214.545455,330.909614 C214.545455,329.906082 215.359816,329.090909 216.363636,329.090909 C217.368504,329.090909 218.181818,329.906082 218.181818,330.909614 C218.181818,331.914192 217.368504,332.727273 216.363636,332.727273" id="Fill-44" fill="#DEB8B3"></path>
                    <path d="M216.363636,347.272727 C215.359816,347.272727 214.545455,346.4586 214.545455,345.455069 C214.545455,344.450491 215.359816,343.636364 216.363636,343.636364 C217.368504,343.636364 218.181818,344.450491 218.181818,345.455069 C218.181818,346.4586 217.368504,347.272727 216.363636,347.272727" id="Fill-45" fill="#DEB8B3"></path>
                    <path d="M216.363636,360.909091 C215.359816,360.909091 214.545455,360.09601 214.545455,359.091432 C214.545455,358.086854 215.359816,357.272727 216.363636,357.272727 C217.368504,357.272727 218.181818,358.086854 218.181818,359.091432 C218.181818,360.09601 217.368504,360.909091 216.363636,360.909091" id="Fill-46" fill="#DEB8B3"></path>
                    <path d="M216.363636,376.363636 C215.359816,376.363636 214.545455,375.549744 214.545455,374.545455 C214.545455,373.542212 215.359816,372.727273 216.363636,372.727273 C217.368504,372.727273 218.181818,373.542212 218.181818,374.545455 C218.181818,375.549744 217.368504,376.363636 216.363636,376.363636" id="Fill-47" fill="#DEB8B3"></path>
                    <path d="M201.818182,332.727273 C200.813314,332.727273 200,331.914192 200,330.909614 C200,329.906082 200.813314,329.090909 201.818182,329.090909 C202.822002,329.090909 203.636364,329.906082 203.636364,330.909614 C203.636364,331.914192 202.822002,332.727273 201.818182,332.727273" id="Fill-48" fill="#DEB8B3"></path>
                    <path d="M201.818182,347.272727 C200.813314,347.272727 200,346.4586 200,345.455069 C200,344.450491 200.813314,343.636364 201.818182,343.636364 C202.822002,343.636364 203.636364,344.450491 203.636364,345.455069 C203.636364,346.4586 202.822002,347.272727 201.818182,347.272727" id="Fill-49" fill="#DEB8B3"></path>
                    <path d="M201.818182,360.909091 C200.813314,360.909091 200,360.09601 200,359.091432 C200,358.086854 200.813314,357.272727 201.818182,357.272727 C202.822002,357.272727 203.636364,358.086854 203.636364,359.091432 C203.636364,360.09601 202.822002,360.909091 201.818182,360.909091" id="Fill-50" fill="#DEB8B3"></path>
                    <path d="M201.818182,376.363636 C200.813314,376.363636 200,375.549744 200,374.545455 C200,373.542212 200.813314,372.727273 201.818182,372.727273 C202.822002,372.727273 203.636364,373.542212 203.636364,374.545455 C203.636364,375.549744 202.822002,376.363636 201.818182,376.363636" id="Fill-51" fill="#DEB8B3"></path>
                    <path d="M188.181818,332.727273 C187.177998,332.727273 186.363636,331.914192 186.363636,330.909614 C186.363636,329.906082 187.177998,329.090909 188.181818,329.090909 C189.186686,329.090909 190,329.906082 190,330.909614 C190,331.914192 189.186686,332.727273 188.181818,332.727273" id="Fill-52" fill="#DEB8B3"></path>
                    <path d="M188.181818,347.272727 C187.177998,347.272727 186.363636,346.4586 186.363636,345.455069 C186.363636,344.450491 187.177998,343.636364 188.181818,343.636364 C189.186686,343.636364 190,344.450491 190,345.455069 C190,346.4586 189.186686,347.272727 188.181818,347.272727" id="Fill-53" fill="#DEB8B3"></path>
                    <path d="M188.181818,360.909091 C187.177998,360.909091 186.363636,360.09601 186.363636,359.091432 C186.363636,358.086854 187.177998,357.272727 188.181818,357.272727 C189.186686,357.272727 190,358.086854 190,359.091432 C190,360.09601 189.186686,360.909091 188.181818,360.909091" id="Fill-54" fill="#DEB8B3"></path>
                    <path d="M188.181818,376.363636 C187.177998,376.363636 186.363636,375.549744 186.363636,374.545455 C186.363636,373.542212 187.177998,372.727273 188.181818,372.727273 C189.186686,372.727273 190,373.542212 190,374.545455 C190,375.549744 189.186686,376.363636 188.181818,376.363636" id="Fill-55" fill="#DEB8B3"></path>
                    <path d="M299.090909,390 C298.086042,390 297.272727,389.185873 297.272727,388.182341 C297.272727,387.177763 298.086042,386.363636 299.090909,386.363636 C300.095776,386.363636 300.909091,387.177763 300.909091,388.182341 C300.909091,389.185873 300.095776,390 299.090909,390" id="Fill-56" fill="#DEB8B3"></path>
                    <path d="M299.090909,404.545455 C298.086042,404.545455 297.272727,403.732374 297.272727,402.727796 C297.272727,401.724264 298.086042,400.909091 299.090909,400.909091 C300.095776,400.909091 300.909091,401.724264 300.909091,402.727796 C300.909091,403.732374 300.095776,404.545455 299.090909,404.545455" id="Fill-57" fill="#DEB8B3"></path>
                    <path d="M299.090909,419.090909 C298.086042,419.090909 297.272727,418.276782 297.272727,417.27325 C297.272727,416.268672 298.086042,415.454545 299.090909,415.454545 C300.095776,415.454545 300.909091,416.268672 300.909091,417.27325 C300.909091,418.276782 300.095776,419.090909 299.090909,419.090909" id="Fill-58" fill="#DEB8B3"></path>
                    <path d="M299.090909,434.545455 C298.086042,434.545455 297.272727,433.732374 297.272727,432.727796 C297.272727,431.724264 298.086042,430.909091 299.090909,430.909091 C300.095776,430.909091 300.909091,431.724264 300.909091,432.727796 C300.909091,433.732374 300.095776,434.545455 299.090909,434.545455" id="Fill-59" fill="#DEB8B3"></path>
                    <path d="M285.454545,390 C284.449678,390 283.636364,389.185873 283.636364,388.182341 C283.636364,387.177763 284.449678,386.363636 285.454545,386.363636 C286.458366,386.363636 287.272727,387.177763 287.272727,388.182341 C287.272727,389.185873 286.458366,390 285.454545,390" id="Fill-60" fill="#DEB8B3"></path>
                    <path d="M285.454545,404.545455 C284.449678,404.545455 283.636364,403.732374 283.636364,402.727796 C283.636364,401.724264 284.449678,400.909091 285.454545,400.909091 C286.458366,400.909091 287.272727,401.724264 287.272727,402.727796 C287.272727,403.732374 286.458366,404.545455 285.454545,404.545455" id="Fill-61" fill="#DEB8B3"></path>
                    <path d="M285.454545,419.090909 C284.449678,419.090909 283.636364,418.276782 283.636364,417.27325 C283.636364,416.268672 284.449678,415.454545 285.454545,415.454545 C286.458366,415.454545 287.272727,416.268672 287.272727,417.27325 C287.272727,418.276782 286.458366,419.090909 285.454545,419.090909" id="Fill-62" fill="#DEB8B3"></path>
                    <path d="M285.454545,434.545455 C284.449678,434.545455 283.636364,433.732374 283.636364,432.727796 C283.636364,431.724264 284.449678,430.909091 285.454545,430.909091 C286.458366,430.909091 287.272727,431.724264 287.272727,432.727796 C287.272727,433.732374 286.458366,434.545455 285.454545,434.545455" id="Fill-63" fill="#DEB8B3"></path>
                    <path d="M271.818182,390 C270.814361,390 270,389.185873 270,388.182341 C270,387.177763 270.814361,386.363636 271.818182,386.363636 C272.823049,386.363636 273.636364,387.177763 273.636364,388.182341 C273.636364,389.185873 272.823049,390 271.818182,390" id="Fill-64" fill="#DEB8B3"></path>
                    <path d="M271.818182,404.545455 C270.814361,404.545455 270,403.732374 270,402.727796 C270,401.724264 270.814361,400.909091 271.818182,400.909091 C272.823049,400.909091 273.636364,401.724264 273.636364,402.727796 C273.636364,403.732374 272.823049,404.545455 271.818182,404.545455" id="Fill-65" fill="#DEB8B3"></path>
                    <path d="M271.818182,419.090909 C270.814361,419.090909 270,418.276782 270,417.27325 C270,416.268672 270.814361,415.454545 271.818182,415.454545 C272.823049,415.454545 273.636364,416.268672 273.636364,417.27325 C273.636364,418.276782 272.823049,419.090909 271.818182,419.090909" id="Fill-66" fill="#DEB8B3"></path>
                    <path d="M271.818182,434.545455 C270.814361,434.545455 270,433.732374 270,432.727796 C270,431.724264 270.814361,430.909091 271.818182,430.909091 C272.823049,430.909091 273.636364,431.724264 273.636364,432.727796 C273.636364,433.732374 272.823049,434.545455 271.818182,434.545455" id="Fill-67" fill="#DEB8B3"></path>
                    <path d="M257.272727,390 C256.26786,390 255.454545,389.185873 255.454545,388.182341 C255.454545,387.177763 256.26786,386.363636 257.272727,386.363636 C258.277595,386.363636 259.090909,387.177763 259.090909,388.182341 C259.090909,389.185873 258.277595,390 257.272727,390" id="Fill-68" fill="#DEB8B3"></path>
                    <path d="M257.272727,404.545455 C256.26786,404.545455 255.454545,403.732374 255.454545,402.727796 C255.454545,401.724264 256.26786,400.909091 257.272727,400.909091 C258.277595,400.909091 259.090909,401.724264 259.090909,402.727796 C259.090909,403.732374 258.277595,404.545455 257.272727,404.545455" id="Fill-69" fill="#DEB8B3"></path>
                    <path d="M257.272727,419.090909 C256.26786,419.090909 255.454545,418.276782 255.454545,417.27325 C255.454545,416.268672 256.26786,415.454545 257.272727,415.454545 C258.277595,415.454545 259.090909,416.268672 259.090909,417.27325 C259.090909,418.276782 258.277595,419.090909 257.272727,419.090909" id="Fill-70" fill="#DEB8B3"></path>
                    <path d="M257.272727,434.545455 C256.26786,434.545455 255.454545,433.732374 255.454545,432.727796 C255.454545,431.724264 256.26786,430.909091 257.272727,430.909091 C258.277595,430.909091 259.090909,431.724264 259.090909,432.727796 C259.090909,433.732374 258.277595,434.545455 257.272727,434.545455" id="Fill-71" fill="#DEB8B3"></path>
                    <path d="M243.636364,390 C242.631496,390 241.818182,389.185873 241.818182,388.182341 C241.818182,387.177763 242.631496,386.363636 243.636364,386.363636 C244.640184,386.363636 245.454545,387.177763 245.454545,388.182341 C245.454545,389.185873 244.640184,390 243.636364,390" id="Fill-72" fill="#DEB8B3"></path>
                    <path d="M243.636364,404.545455 C242.631496,404.545455 241.818182,403.732374 241.818182,402.727796 C241.818182,401.724264 242.631496,400.909091 243.636364,400.909091 C244.640184,400.909091 245.454545,401.724264 245.454545,402.727796 C245.454545,403.732374 244.640184,404.545455 243.636364,404.545455" id="Fill-73" fill="#DEB8B3"></path>
                    <path d="M243.636364,419.090909 C242.631496,419.090909 241.818182,418.276782 241.818182,417.27325 C241.818182,416.268672 242.631496,415.454545 243.636364,415.454545 C244.640184,415.454545 245.454545,416.268672 245.454545,417.27325 C245.454545,418.276782 244.640184,419.090909 243.636364,419.090909" id="Fill-74" fill="#DEB8B3"></path>
                    <path d="M243.636364,434.545455 C242.631496,434.545455 241.818182,433.732374 241.818182,432.727796 C241.818182,431.724264 242.631496,430.909091 243.636364,430.909091 C244.640184,430.909091 245.454545,431.724264 245.454545,432.727796 C245.454545,433.732374 244.640184,434.545455 243.636364,434.545455" id="Fill-75" fill="#DEB8B3"></path>
                    <path d="M230,390 C228.996179,390 228.181818,389.185873 228.181818,388.182341 C228.181818,387.177763 228.996179,386.363636 230,386.363636 C231.004867,386.363636 231.818182,387.177763 231.818182,388.182341 C231.818182,389.185873 231.004867,390 230,390" id="Fill-76" fill="#DEB8B3"></path>
                    <path d="M230,404.545455 C228.996179,404.545455 228.181818,403.732374 228.181818,402.727796 C228.181818,401.724264 228.996179,400.909091 230,400.909091 C231.004867,400.909091 231.818182,401.724264 231.818182,402.727796 C231.818182,403.732374 231.004867,404.545455 230,404.545455" id="Fill-77" fill="#DEB8B3"></path>
                    <path d="M230,419.090909 C228.996179,419.090909 228.181818,418.276782 228.181818,417.27325 C228.181818,416.268672 228.996179,415.454545 230,415.454545 C231.004867,415.454545 231.818182,416.268672 231.818182,417.27325 C231.818182,418.276782 231.004867,419.090909 230,419.090909" id="Fill-78" fill="#DEB8B3"></path>
                    <path d="M230,434.545455 C228.996179,434.545455 228.181818,433.732374 228.181818,432.727796 C228.181818,431.724264 228.996179,430.909091 230,430.909091 C231.004867,430.909091 231.818182,431.724264 231.818182,432.727796 C231.818182,433.732374 231.004867,434.545455 230,434.545455" id="Fill-79" fill="#DEB8B3"></path>
                    <path d="M216.363636,390 C215.359816,390 214.545455,389.185873 214.545455,388.182341 C214.545455,387.177763 215.359816,386.363636 216.363636,386.363636 C217.368504,386.363636 218.181818,387.177763 218.181818,388.182341 C218.181818,389.185873 217.368504,390 216.363636,390" id="Fill-80" fill="#DEB8B3"></path>
                    <path d="M216.363636,404.545455 C215.359816,404.545455 214.545455,403.732374 214.545455,402.727796 C214.545455,401.724264 215.359816,400.909091 216.363636,400.909091 C217.368504,400.909091 218.181818,401.724264 218.181818,402.727796 C218.181818,403.732374 217.368504,404.545455 216.363636,404.545455" id="Fill-81" fill="#DEB8B3"></path>
                    <path d="M216.363636,419.090909 C215.359816,419.090909 214.545455,418.276782 214.545455,417.27325 C214.545455,416.268672 215.359816,415.454545 216.363636,415.454545 C217.368504,415.454545 218.181818,416.268672 218.181818,417.27325 C218.181818,418.276782 217.368504,419.090909 216.363636,419.090909" id="Fill-82" fill="#DEB8B3"></path>
                    <path d="M216.363636,434.545455 C215.359816,434.545455 214.545455,433.732374 214.545455,432.727796 C214.545455,431.724264 215.359816,430.909091 216.363636,430.909091 C217.368504,430.909091 218.181818,431.724264 218.181818,432.727796 C218.181818,433.732374 217.368504,434.545455 216.363636,434.545455" id="Fill-83" fill="#DEB8B3"></path>
                    <path d="M201.818182,390 C200.813314,390 200,389.185873 200,388.182341 C200,387.177763 200.813314,386.363636 201.818182,386.363636 C202.822002,386.363636 203.636364,387.177763 203.636364,388.182341 C203.636364,389.185873 202.822002,390 201.818182,390" id="Fill-84" fill="#DEB8B3"></path>
                    <path d="M201.818182,404.545455 C200.813314,404.545455 200,403.732374 200,402.727796 C200,401.724264 200.813314,400.909091 201.818182,400.909091 C202.822002,400.909091 203.636364,401.724264 203.636364,402.727796 C203.636364,403.732374 202.822002,404.545455 201.818182,404.545455" id="Fill-85" fill="#DEB8B3"></path>
                    <path d="M201.818182,419.090909 C200.813314,419.090909 200,418.276782 200,417.27325 C200,416.268672 200.813314,415.454545 201.818182,415.454545 C202.822002,415.454545 203.636364,416.268672 203.636364,417.27325 C203.636364,418.276782 202.822002,419.090909 201.818182,419.090909" id="Fill-86" fill="#DEB8B3"></path>
                    <path d="M201.818182,434.545455 C200.813314,434.545455 200,433.732374 200,432.727796 C200,431.724264 200.813314,430.909091 201.818182,430.909091 C202.822002,430.909091 203.636364,431.724264 203.636364,432.727796 C203.636364,433.732374 202.822002,434.545455 201.818182,434.545455" id="Fill-87" fill="#DEB8B3"></path>
                    <path d="M188.181818,390 C187.177998,390 186.363636,389.185873 186.363636,388.182341 C186.363636,387.177763 187.177998,386.363636 188.181818,386.363636 C189.186686,386.363636 190,387.177763 190,388.182341 C190,389.185873 189.186686,390 188.181818,390" id="Fill-88" fill="#DEB8B3"></path>
                    <path d="M188.181818,404.545455 C187.177998,404.545455 186.363636,403.732374 186.363636,402.727796 C186.363636,401.724264 187.177998,400.909091 188.181818,400.909091 C189.186686,400.909091 190,401.724264 190,402.727796 C190,403.732374 189.186686,404.545455 188.181818,404.545455" id="Fill-89" fill="#DEB8B3"></path>
                    <path d="M188.181818,419.090909 C187.177998,419.090909 186.363636,418.276782 186.363636,417.27325 C186.363636,416.268672 187.177998,415.454545 188.181818,415.454545 C189.186686,415.454545 190,416.268672 190,417.27325 C190,418.276782 189.186686,419.090909 188.181818,419.090909" id="Fill-90" fill="#DEB8B3"></path>
                    <path d="M188.181818,434.545455 C187.177998,434.545455 186.363636,433.732374 186.363636,432.727796 C186.363636,431.724264 187.177998,430.909091 188.181818,430.909091 C189.186686,430.909091 190,431.724264 190,432.727796 C190,433.732374 189.186686,434.545455 188.181818,434.545455" id="Fill-91" fill="#DEB8B3"></path>
                    <path d="M17.2727273,394.545948 L17.2727273,394.544961 C17.2727273,329.275267 69.9808516,276.363636 135.000492,276.363636 C200.019148,276.363636 252.727273,329.275267 252.727273,394.544961 L252.727273,394.545948 C252.727273,459.815642 200.019148,512.727273 135.000492,512.727273 C69.9808516,512.727273 17.2727273,459.815642 17.2727273,394.545948" id="Fill-92" fill="#F9D8D4"></path>
                    <polygon id="Fill-93" fill="#DEB8B3" points="0 483.636364 135.455529 348.181818 270.909091 483.636364"></polygon>
                </g>
            </g>
        </g>
    </g>
</svg>