<?xml version="1.0" encoding="UTF-8"?>
<svg width="30px" height="30px" viewBox="0 0 30 30" version="1.1" xmlns="http://www.w3.org/2000/svg" xmlns:xlink="http://www.w3.org/1999/xlink">
    <!-- Generator: Sketch 52.4 (67378) - http://www.bohemiancoding.com/sketch -->
    <title>Fill 3</title>
    <desc>Created with Sketch.</desc>
    <g id="Page-4" stroke="none" stroke-width="1" fill="none" fill-rule="evenodd">
        <g id="Reporting-and-Analytics" transform="translate(-452.000000, -3425.000000)" fill="#2055FF">
            <g id="Group-18" transform="translate(436.000000, 3417.000000)">
                <g id="Group-5" transform="translate(16.000000, 8.000000)">
                    <path d="M14.9976176,29.6895882 C10.5934412,29.6895882 6.46085294,27.7376471 3.65602941,24.3388235 C0.854382353,20.9384118 -0.263735294,16.4659412 0.592323529,12.0681176 C1.70885294,6.32029412 6.3195,1.70964706 12.0657353,0.593117647 C16.4619706,-0.266117647 20.9360294,0.855176471 24.3364412,3.65682353 C27.7384412,6.46164706 29.6887941,10.5958235 29.6887941,14.9984118 C29.6887941,16.0101176 29.6887941,17.8921765 28.2387353,18.5227059 C26.8680882,19.1198824 25.7293235,18.0494118 24.7207941,17.1075882 C24.2427353,16.6644706 23.7996176,16.1181176 23.2151471,15.8131765 C22.8927353,15.6432353 22.7196176,15.6003529 22.5052059,15.9068824 C22.2701471,16.2435882 22.1272059,16.6755882 21.9667941,17.0504118 C21.4347353,18.2924118 20.5405588,20.3539412 18.2963824,20.0537647 C16.1903824,19.7504118 15.5074412,17.4522353 14.8467353,15.2302941 C14.3940882,13.704 13.7730882,11.6138824 12.9472059,11.6154706 C12.3023824,11.6329412 11.6782059,12.8447647 11.3176765,14.7760588 C10.9365,16.8137647 9.1545,18.2892353 7.08026471,18.2892353 C6.20355882,18.2892353 5.49202941,17.5792941 5.49202941,16.701 C5.49202941,15.8242941 6.20355882,15.1127647 7.08026471,15.1127647 C7.62661765,15.1127647 8.09514706,14.7252353 8.19520588,14.1931765 C9.06714706,9.52376471 11.2128529,8.48505882 12.8582647,8.439 C16.0617353,8.37547059 17.1433235,11.8028824 17.8929706,14.325 C18.0422647,14.8252941 18.1280294,15.3414706 18.2963824,15.8354118 C18.3408529,15.9704118 18.3742059,16.2801176 18.4949118,16.3658824 C18.8316176,16.6088824 18.9618529,15.999 19.0460294,15.8020588 C19.5939706,14.5203529 20.4214412,12.5858824 22.5417353,12.4810588 C24.1156765,12.3952941 25.4243824,13.4435294 26.4980294,14.4250588 C26.3360294,11.1866471 24.8319706,8.18329412 22.3162059,6.10905882 C19.6511471,3.91252941 16.1363824,3.039 12.6724412,3.71082353 C8.1825,4.58117647 4.58197059,8.18488235 3.71002941,12.6732353 C3.03661765,16.1371765 3.91014706,19.6535294 6.10667647,22.317 C8.30638235,24.9836471 11.5463824,26.5131176 14.9976176,26.5131176 C17.8818529,26.5131176 20.6422059,25.4410588 22.7688529,23.4970588 C23.4152647,22.9030588 24.4206176,22.9475294 25.0130294,23.5955294 C25.6038529,24.2419412 25.5593824,25.2472941 24.9129706,25.8381176 C22.2002647,28.3221176 18.6775588,29.6895882 14.9976176,29.6895882" id="Fill-3"></path>
                </g>
            </g>
        </g>
    </g>
</svg>