<?xml version="1.0" encoding="UTF-8"?>
<svg width="30px" height="29px" viewBox="0 0 30 29" version="1.1" xmlns="http://www.w3.org/2000/svg" xmlns:xlink="http://www.w3.org/1999/xlink">
    <!-- Generator: Sketch 43.2 (39069) - http://www.bohemiancoding.com/sketch -->
    <title>Page 1</title>
    <desc>Created with Sketch.</desc>
    <defs>
        <polygon id="path-1" points="0 14.9378 0 0.876 29.279 0.876 29.279 28.9996 0 28.9996 0 14.9378"></polygon>
    </defs>
    <g id="Page-1" stroke="none" stroke-width="1" fill="none" fill-rule="evenodd">
        <g id="Desktop-HD" transform="translate(-781.000000, -657.000000)">
            <g id="Page-1" transform="translate(781.000000, 656.000000)">
                <path d="M14.7814,21.583 L14.7814,19.953 C16.6194,19.634 17.6264,18.419 17.6264,16.996 C17.6264,15.558 16.8594,14.678 14.9574,14.008 C13.5984,13.496 13.0394,13.16 13.0394,12.632 C13.0394,12.186 13.3754,11.737 14.4134,11.737 C15.5644,11.737 16.3004,12.105 16.7154,12.281 L17.1794,10.476 C16.6514,10.22 15.9324,9.996 14.8614,9.948 L14.8614,8.541 L13.2944,8.541 L13.2944,10.06 C11.5844,10.395 10.5944,11.498 10.5944,12.904 C10.5944,14.455 11.7604,15.254 13.4704,15.829 C14.6534,16.229 15.1644,16.612 15.1644,17.22 C15.1644,17.859 14.5414,18.21 13.6304,18.21 C12.5914,18.21 11.6494,17.875 10.9774,17.507 L10.4974,19.377 C11.1054,19.729 12.1434,20.017 13.2144,20.064 L13.2144,21.583 L14.7814,21.583 Z" id="Fill-1" fill="#FFFFFF"></path>
                <g id="Group-5" transform="translate(0.000000, 0.124000)">
                    <mask id="mask-2" fill="white">
                        <use xlink:href="#path-1"></use>
                    </mask>
                    <g id="Clip-4"></g>
                    <path d="M28.716,7.5176 C28.218,7.2766 27.621,7.4836 27.38,7.9806 L26.844,9.0846 C24.584,4.1636 19.6,0.8756 14.062,0.8756 C6.308,0.8756 0,7.1846 0,14.9386 C0,22.6926 6.308,28.9996 14.062,28.9996 C18.055,28.9996 21.874,27.2926 24.54,24.3166 C24.908,23.9056 24.873,23.2736 24.462,22.9046 C24.053,22.5376 23.419,22.5706 23.05,22.9826 C20.763,25.5356 17.487,26.9996 14.062,26.9996 C7.411,26.9996 2,21.5886 2,14.9386 C2,8.2876 7.411,2.8756 14.062,2.8756 C18.705,2.8756 22.893,5.5716 24.891,9.6326 L23.629,8.8936 C23.151,8.6146 22.539,8.7746 22.26,9.2506 C21.982,9.7276 22.141,10.3406 22.617,10.6206 L26.127,12.6756 C26.282,12.7656 26.457,12.8126 26.633,12.8126 C26.731,12.8126 26.828,12.7976 26.923,12.7696 C27.191,12.6886 27.411,12.4996 27.532,12.2486 L29.179,8.8536 C29.42,8.3566 29.213,7.7576 28.716,7.5176" id="Fill-3" fill="#FFFFFF" mask="url(#mask-2)"></path>
                </g>
            </g>
        </g>
    </g>
</svg>