<?xml version="1.0" encoding="UTF-8"?>
<svg width="32px" height="28px" viewBox="0 0 32 28" version="1.1" xmlns="http://www.w3.org/2000/svg" xmlns:xlink="http://www.w3.org/1999/xlink">
    <!-- Generator: Sketch 43.2 (39069) - http://www.bohemiancoding.com/sketch -->
    <title>Page 1</title>
    <desc>Created with Sketch.</desc>
    <defs>
        <polygon id="path-1" points="31.897 27.601 31.897 -0.00025 1.35525272e-20 -0.00025 0 27.601"></polygon>
    </defs>
    <g id="Page-1" stroke="none" stroke-width="1" fill="none" fill-rule="evenodd">
        <g id="Desktop-HD" transform="translate(-563.000000, -581.000000)">
            <g id="Page-1" transform="translate(563.000000, 581.000000)">
                <mask id="mask-2" fill="white">
                    <use xlink:href="#path-1"></use>
                </mask>
                <g id="Clip-2"></g>
                <path d="M18.5839,24.35 L13.8749,20.229 L27.2859,6.215 L18.5839,24.35 Z M11.7069,19.601 C11.7049,19.604 11.7039,19.607 11.7019,19.609 L11.6679,19.644 L8.0559,23.885 L8.0559,16.141 L24.8549,5.862 L11.7069,19.601 Z M7.1889,14.327 L2.9439,10.29 L23.9039,4.099 L7.1889,14.327 Z M31.8949,0.985 C31.8949,0.936 31.8859,0.889 31.8779,0.84 C31.8719,0.795 31.8699,0.751 31.8579,0.708 C31.8509,0.683 31.8379,0.66 31.8289,0.635 C31.8219,0.618 31.8239,0.6 31.8159,0.583 C31.8039,0.554 31.7799,0.535 31.7649,0.508 C31.7429,0.469 31.7249,0.429 31.6979,0.393 C31.6909,0.383 31.6889,0.371 31.6809,0.362 C31.6699,0.348 31.6539,0.341 31.6419,0.328 C31.6079,0.291 31.5719,0.261 31.5339,0.229 C31.5109,0.21 31.4969,0.184 31.4719,0.167 C31.4599,0.159 31.4469,0.158 31.4359,0.15 C31.4109,0.135 31.3869,0.121 31.3609,0.108 C31.3179,0.086 31.2739,0.072 31.2289,0.057 C31.1879,0.042 31.1509,0.025 31.1099,0.017 C31.0819,0.011 31.0549,0.007 31.0259,0.003 C30.9819,-0.002 30.9379,0 30.8929,0.001 C30.8489,0.001 30.8069,-0.001 30.7639,0.005 C30.7309,0.01 30.7009,0.017 30.6689,0.025 C30.6519,0.029 30.6359,0.025 30.6189,0.03 L0.7169,8.862 C0.3739,8.963 0.1109,9.24 0.0279,9.587 C-0.0561,9.934 0.0519,10.3 0.3109,10.546 L6.0559,16.009 L6.0559,26.601 C6.0559,27.02 6.3169,27.395 6.7099,27.54 C6.8239,27.581 6.9399,27.601 7.0559,27.601 C7.3429,27.601 7.6239,27.477 7.8169,27.25 L12.5319,21.712 L18.2569,26.722 C18.4409,26.883 18.6759,26.97 18.9159,26.97 C18.9829,26.97 19.0499,26.963 19.1169,26.949 C19.4229,26.887 19.6819,26.684 19.8169,26.402 L31.8039,1.422 C31.8079,1.414 31.8069,1.406 31.8099,1.398 C31.8199,1.375 31.8269,1.352 31.8349,1.329 C31.8529,1.28 31.8609,1.23 31.8709,1.178 C31.8789,1.136 31.8939,1.096 31.8969,1.054 C31.8979,1.031 31.8949,1.009 31.8949,0.985 L31.8949,0.985 Z" id="Fill-1" fill="#FFFFFF" mask="url(#mask-2)"></path>
            </g>
        </g>
    </g>
</svg>