<?xml version="1.0" encoding="UTF-8"?>
<svg width="31px" height="22px" viewBox="0 0 31 22" version="1.1" xmlns="http://www.w3.org/2000/svg" xmlns:xlink="http://www.w3.org/1999/xlink">
    <!-- Generator: Sketch 43.2 (39069) - http://www.bohemiancoding.com/sketch -->
    <title>Page 1</title>
    <desc>Created with Sketch.</desc>
    <defs>
        <polygon id="path-1" points="30.4976 0.17 0 0.17 0 21.9997 30.4976 21.9997 30.4976 0.17"></polygon>
    </defs>
    <g id="Page-1" stroke="none" stroke-width="1" fill="none" fill-rule="evenodd">
        <g id="Desktop-HD" transform="translate(-689.000000, -664.000000)">
            <g id="Page-1" transform="translate(689.000000, 663.000000)">
                <g id="Group-3" transform="translate(0.000000, 0.830100)">
                    <mask id="mask-2" fill="white">
                        <use xlink:href="#path-1"></use>
                    </mask>
                    <g id="Clip-2"></g>
                    <path d="M28.4976,4.6787 L1.9996,4.6787 L1.9996,2.6697 C1.9996,2.3947 2.2246,2.1697 2.4996,2.1697 L27.9976,2.1697 C28.2736,2.1697 28.4976,2.3947 28.4976,2.6697 L28.4976,4.6787 Z M28.4976,19.4997 C28.4976,19.7757 28.2736,19.9997 27.9976,19.9997 L2.4996,19.9997 C2.2246,19.9997 1.9996,19.7757 1.9996,19.4997 L1.9996,8.5107 L28.4976,8.5107 L28.4976,19.4997 Z M27.9976,0.1697 L2.4996,0.1697 C1.1216,0.1697 -0.0004,1.2907 -0.0004,2.6697 L-0.0004,19.4997 C-0.0004,20.8787 1.1216,21.9997 2.4996,21.9997 L27.9976,21.9997 C29.3756,21.9997 30.4976,20.8787 30.4976,19.4997 L30.4976,2.6697 C30.4976,1.2907 29.3756,0.1697 27.9976,0.1697 L27.9976,0.1697 Z" id="Fill-1" fill="#FFFFFF" mask="url(#mask-2)"></path>
                </g>
                <path d="M4.9932,12.5498 L24.8962,12.5498 C25.3342,12.5498 25.6902,12.2658 25.6902,11.9148 C25.6902,11.5648 25.3342,11.2798 24.8962,11.2798 L4.9932,11.2798 C4.5542,11.2798 4.1992,11.5648 4.1992,11.9148 C4.1992,12.2658 4.5542,12.5498 4.9932,12.5498" id="Fill-4" fill="#FFFFFF"></path>
                <path d="M4.9932,15.3457 L12.8932,15.3457 C13.3312,15.3457 13.6872,15.0617 13.6872,14.7107 C13.6872,14.3597 13.3312,14.0747 12.8932,14.0747 L4.9932,14.0747 C4.5542,14.0747 4.1992,14.3597 4.1992,14.7107 C4.1992,15.0617 4.5542,15.3457 4.9932,15.3457" id="Fill-6" fill="#FFFFFF"></path>
                <path d="M17.2085,15.9942 C17.2085,16.3462 17.5635,16.6302 18.0025,16.6302 L25.8155,16.6302 C26.2545,16.6302 26.6095,16.3462 26.6095,15.9942 C26.6095,15.6432 26.2545,15.3592 25.8155,15.3592 L18.0025,15.3592 C17.5635,15.3592 17.2085,15.6432 17.2085,15.9942" id="Fill-8" fill="#FFFFFF"></path>
                <path d="M25.8159,18.0127 L21.0839,18.0127 C20.6449,18.0127 20.2899,18.2967 20.2899,18.6487 C20.2899,18.9987 20.6449,19.2837 21.0839,19.2837 L25.8159,19.2837 C26.2539,19.2837 26.6099,18.9987 26.6099,18.6487 C26.6099,18.2967 26.2539,18.0127 25.8159,18.0127" id="Fill-10" fill="#FFFFFF"></path>
            </g>
        </g>
    </g>
</svg>