<?xml version="1.0" encoding="UTF-8"?>
<svg width="31px" height="28px" viewBox="0 0 31 28" version="1.1" xmlns="http://www.w3.org/2000/svg" xmlns:xlink="http://www.w3.org/1999/xlink">
    <!-- Generator: Sketch 43.2 (39069) - http://www.bohemiancoding.com/sketch -->
    <title>Page 1</title>
    <desc>Created with Sketch.</desc>
    <defs>
        <polygon id="path-1" points="15.16585 0.787 0 0.787 0 28 15.16585 28 30.3317 28 30.3317 0.787 15.16585 0.787"></polygon>
    </defs>
    <g id="Page-1" stroke="none" stroke-width="1" fill="none" fill-rule="evenodd">
        <g id="Desktop-HD" transform="translate(-765.000000, -582.000000)">
            <g id="Page-1" transform="translate(765.000000, 581.000000)">
                <path d="M5.2179,22.7354 C5.4599,22.7354 5.7019,22.6484 5.8949,22.4704 L12.5069,16.3854 L18.3679,20.8814 C18.7669,21.1884 19.3309,21.1504 19.6859,20.7944 L27.6209,12.8064 L27.6209,15.5894 C27.6209,16.1414 28.0689,16.5894 28.6209,16.5894 C29.1739,16.5894 29.6209,16.1414 29.6209,15.5894 L29.6209,10.3814 L29.6209,10.3794 C29.6209,10.2444 29.5929,10.1154 29.5439,9.9974 C29.4939,9.8794 29.4229,9.7674 29.3259,9.6724 C29.3249,9.6714 29.3239,9.6714 29.3239,9.6714 C29.2319,9.5804 29.1229,9.5074 29.0009,9.4584 C28.9099,9.4204 28.8089,9.4074 28.7069,9.3984 C28.6769,9.3954 28.6519,9.3814 28.6209,9.3814 L23.3809,9.3814 C22.8289,9.3814 22.3809,9.8284 22.3809,10.3814 C22.3809,10.9334 22.8289,11.3814 23.3809,11.3814 L26.2179,11.3814 L18.8869,18.7594 L13.0569,14.2874 C12.6719,13.9904 12.1279,14.0144 11.7709,14.3444 L4.5399,21.0004 C4.1339,21.3744 4.1079,22.0064 4.4819,22.4124 C4.6789,22.6274 4.9479,22.7354 5.2179,22.7354" id="Fill-1" fill="#FFFFFF"></path>
                <g id="Group-5" transform="translate(0.000000, 0.212900)">
                    <mask id="mask-2" fill="white">
                        <use xlink:href="#path-1"></use>
                    </mask>
                    <g id="Clip-4"></g>
                    <path d="M29.3317,26 L1.9997,26 L1.9997,1.787 C1.9997,1.234 1.5527,0.787 0.9997,0.787 C0.4477,0.787 -0.0003,1.234 -0.0003,1.787 L-0.0003,27 C-0.0003,27.553 0.4477,28 0.9997,28 L29.3317,28 C29.8837,28 30.3317,27.553 30.3317,27 C30.3317,26.447 29.8837,26 29.3317,26" id="Fill-3" fill="#FFFFFF" mask="url(#mask-2)"></path>
                </g>
            </g>
        </g>
    </g>
</svg>