<svg id="Layer_1" data-name="Layer 1" xmlns="http://www.w3.org/2000/svg" width="1170" height="529.52" viewBox="0 0 1170 529.52"><title>Saas-billing-third-fold1</title><path d="M688.83,102.41c-6.39-3.9-13.75-6.21-21-8.11a248.05,248.05,0,0,0-30.6-5.76c-26-3.47-52.28-4.55-78.46-4.33-26.5.23-53.11,1.8-79.32,5.85a268.92,268.92,0,0,0-42,9.67,161.21,161.21,0,0,0-23.28,9.5C407,112.87,400,117,394.11,122.59c-5,4.8-9.42,10.89-10.33,17.95-.94,7.21,2.25,13.85,7.17,18.94,7.45,7.71,17.61,12.32,27.67,15.59,11.67,3.79,23.83,6,36,7.61,15.63,2.08,31.39,3.11,47.13,3.65,32.48,1.09,65.26.59,97.55-3.29,18.65-2.24,37.42-5.6,55.15-12a127.84,127.84,0,0,0,25.06-12.18c8.69-5.48,16.45-12.16,21-21.56a33.71,33.71,0,0,0,3.4-19.8,30.45,30.45,0,0,0-9.42-17.46,23.71,23.71,0,0,0-16.83-6.53c-1,0-1,1.63,0,1.59,14.21-.54,25.19,13.64,25,27.08-.18,14.35-10.17,26.58-21.81,33.92a135.66,135.66,0,0,1-20.71,11c-15,6.2-31.06,9.8-47.07,12.35-28.91,4.61-58.36,5.74-87.59,5.64-16.82-.06-33.66-.56-50.42-1.91a308.79,308.79,0,0,1-40.4-5.58c-10-2.16-20.15-5-29.3-9.72-11.37-5.9-23.83-16.84-19.15-31,2.34-7.12,8-12.88,13.85-17.29a109.69,109.69,0,0,1,21.56-12.16c14.5-6.45,30-10.6,45.51-13.63,24.67-4.82,49.91-6.84,75-7.67a621.67,621.67,0,0,1,78.52,2.1c11.21,1,22.39,2.47,33.45,4.59a145,145,0,0,1,25.34,6.82,52.39,52.39,0,0,1,8.57,4.13.8.8,0,0,0,.8-1.38Z"/><path d="M1011.47,192.19a492.89,492.89,0,0,0-78.06-10c-27.67-1.32-55.58-.37-82.95,4.15a254.39,254.39,0,0,0-38.57,9.33,82.59,82.59,0,0,0-19.3,8.89c-3.91,2.56-7.85,5.58-10.53,9.47a12.65,12.65,0,0,0,0,15c4.21,5.94,11.24,9.69,17.71,12.63a161,161,0,0,0,30.46,9.81,300.24,300.24,0,0,0,37,6,345.75,345.75,0,0,0,40.32,1.61c13.48-.2,27-.88,40.36-2.31,18.52-2,37.22-5.25,54.67-11.94,9.88-3.78,19.68-8.74,27.42-16.08,3.94-3.74,7.64-8.36,9.15-13.67a10.26,10.26,0,0,0,.25-5c-1.87-9.7-9.3-17.3-18-21.54a26.51,26.51,0,0,0-9.11-2.89c-1-.09-1,1.5,0,1.59a25.69,25.69,0,0,1,9.44,3.25,35,35,0,0,1,10.71,8.63,25.54,25.54,0,0,1,5.09,10.05c.16.67.29,1.34.41,2,.18,1,0-.05,0,.31s0,.48,0,.72l0,.38c0,.16-.06.55,0,.34-.64,4.35-3.27,8.29-6.17,11.62-6,6.89-14,11.79-22.23,15.61-14.78,6.9-31,10.62-47,13.12a355.05,355.05,0,0,1-35.37,3.55c-13.62.74-27.33,1-41,.45a322.87,322.87,0,0,1-37.87-3.89,239.67,239.67,0,0,1-33.75-7.82c-8.46-2.7-17.07-5.95-24.41-11-4.39-3-9.36-7.59-9.11-13.43a13,13,0,0,1,3.18-7.42c3.4-4.21,8.14-7.4,12.81-10a99.3,99.3,0,0,1,19-7.72q9.23-2.87,18.65-5c26.34-5.94,53.49-8,80.45-7.76a488.44,488.44,0,0,1,78.6,7.14q8.67,1.49,17.27,3.3c1,.21,1.43-1.32.42-1.53Z"/><path d="M323.41,332.4c-23.52.38-47.18,1.19-70.33,5.63a174.66,174.66,0,0,0-33.4,9.67,137.81,137.81,0,0,0-15.4,7.4,61.33,61.33,0,0,0-13.49,9.67c-6.3,6.28-11.52,16.05-7.5,25,2.41,5.36,7.88,9,12.9,11.6,7.46,3.92,15.63,6.46,23.78,8.49A234,234,0,0,0,249.6,415c22.36,2.57,44.89,2.08,67.31.56,18.29-1.25,36.61-3.38,54.51-7.39a164.72,164.72,0,0,0,31.14-9.83,83,83,0,0,0,8.71-4.46c2.86-1.7,5.92-3.66,8-6.28,3.72-4.7,2-10.43-1-15a45,45,0,0,0-10.92-11.43c-9.19-6.91-20.35-11.29-31.31-14.52-23.76-7-48.83-7.72-73.41-7.27-6,.11-11.94.29-17.91.48-1,0-1,1.62,0,1.59,24.14-.77,48.55-1.5,72.46,2.54a143.52,143.52,0,0,1,34.47,10c9.72,4.32,19.37,10.25,25.25,19.37,1.62,2.51,3.09,5.42,3,8.49s-1.92,5.18-4.07,7a37.22,37.22,0,0,1-3.05,2.23,66.68,66.68,0,0,1-6.87,3.94,136.06,136.06,0,0,1-26.2,9.5,302,302,0,0,1-47.41,8.16c-11,1.11-22.13,1.81-33.23,2.21-10.92.39-21.83.56-32.75-.06a275.15,275.15,0,0,1-30.43-3.36,174.65,174.65,0,0,1-27.14-6.61c-6.65-2.27-13.57-5.08-19-9.66a18.56,18.56,0,0,1-4.85-5.84c-1.84-3.72-1.65-8.28-.39-12.13,3.41-10.47,13.52-17,22.7-21.92A149.34,149.34,0,0,1,238.71,343c22.17-6,45.25-7.84,68.14-8.59,5.51-.18,11-.29,16.56-.38a.8.8,0,0,0,0-1.59Z"/><path d="M311.45,177.08a302.63,302.63,0,0,0-171.9,3.7c-12,3.86-24.62,8-34.84,15.62-7.57,5.66-14.65,14.45-13.21,24.54.53,3.64,2.53,7.05,4.72,9.93a52.38,52.38,0,0,0,13.1,11.87c17,11.21,38,15.5,58,17.16,14.45,1.2,29.07,1.26,43.55,1,12.06-.21,24.12-.83,36.11-2.07,17.44-1.8,35-4.77,51.57-10.64,9.94-3.52,19.86-8.13,27.89-15.08,4.44-3.84,8.73-8.81,10.12-14.67.93-4-.06-7.77-2-11.33-3.12-5.61-8.25-10.16-13.31-14A71.2,71.2,0,0,0,304,183.61a70.42,70.42,0,0,0-18.36-4.36c-1-.11-1,1.48,0,1.59a69.38,69.38,0,0,1,36.16,14.77c4.88,3.92,10,8.64,12.42,14.57a12.55,12.55,0,0,1,1.11,5.66,16.49,16.49,0,0,1-1.69,5.94,29.3,29.3,0,0,1-5.08,7.1c-6.35,6.73-14.77,11.37-23.19,15-14.17,6.05-29.46,9.42-44.64,11.68-23.79,3.54-48,4.24-72,3.73-23.25-.51-47.24-2.27-68.6-12.31a68.47,68.47,0,0,1-17.4-11.3,35.25,35.25,0,0,1-8.42-10.94c-2.56-5.58-1.26-12,1.94-17.23,5.82-9.46,16.77-15.22,26.79-19.15a296.83,296.83,0,0,1,82.72-19.22A300.92,300.92,0,0,1,291,173.84q10.1,2,20,4.77a.8.8,0,0,0,.43-1.53Z"/><path d="M920.79,350.07a330.34,330.34,0,0,0-186.57-2.86c-7.35,2.05-14.7,4.29-21.85,7a83.92,83.92,0,0,0-16.36,8c-9,5.88-17.36,14.92-16.85,26.43.3,6.64,4.39,12.85,8.73,17.6,9.11,10,21.84,16.31,34.36,20.89,23.74,8.7,49.4,12,74.5,13.5,26.78,1.65,54,.89,80.31-4.57,16.8-3.49,33.67-8.91,48.29-18.07a70.64,70.64,0,0,0,13.47-10.63,33.44,33.44,0,0,0,7-9.87c2.11-4.92,1.25-9.6-1.32-14.36-3.32-6.13-8.73-11.25-14.13-15.55a78.1,78.1,0,0,0-17.9-10.66,76.87,76.87,0,0,0-19.67-5.45c-1-.13-1.44,1.4-.43,1.54a76.06,76.06,0,0,1,37.88,16.51c5.32,4.38,10.77,9.61,13.65,16,1.11,2.45,1.94,5.5,1.5,8a21.37,21.37,0,0,1-4.29,8.82,53.14,53.14,0,0,1-10.52,10.18c-12.16,9.16-26.73,14.95-41.31,19-23.22,6.43-47.53,8.49-71.56,8.3a393,393,0,0,1-45.48-3,256.19,256.19,0,0,1-36-6.9c-14.77-4-29.94-9.76-41.84-19.68-5.78-4.83-11.32-11.11-13.15-18.57-1.5-6.11.73-13,4.58-18.17,7.16-9.54,19-15,30-18.83a325.53,325.53,0,0,1,91-17.52,329,329,0,0,1,92,8.5q10.92,2.61,21.63,6c1,.31,1.4-1.22.42-1.53Z"/><path d="M743.68,118.11a286,286,0,0,1,30.25-2,144.27,144.27,0,0,1,29.75,3,93.49,93.49,0,0,1,19.84,6.7,103.94,103.94,0,0,1,20,11.89c6.56,5,12.61,11.13,16.41,18.55.46.92,1.84.11,1.37-.8-3.39-6.63-8.56-12.23-14.26-17a100,100,0,0,0-20-12.78,102.43,102.43,0,0,0-20.26-7.54A134.41,134.41,0,0,0,778,114.52c-11.47-.26-22.93.76-34.33,2-1,.11-1,1.7,0,1.59Z"/><path d="M843.17,150.56l17.25,6c1,.34,1.39-1.2.43-1.53l-17.26-6c-1-.34-1.38,1.2-.42,1.53Z"/><path d="M858.31,141.43c.41,4.79,1.12,9.55,1.53,14.34.09,1,1.68,1,1.59,0-.41-4.79-1.12-9.55-1.53-14.34-.09-1-1.68-1-1.59,0Z"/><path d="M922.61,264.79a56.72,56.72,0,0,1-3.43,27.8,60.24,60.24,0,0,1-16,23.17,54.45,54.45,0,0,1-13.33,8.77c-.93.43-.12,1.8.8,1.38a57.93,57.93,0,0,0,22-18.27A61.6,61.6,0,0,0,924,281a56,56,0,0,0,.25-16.25c-.13-1-1.73-1-1.59,0Z"/><path d="M893.79,316a68.09,68.09,0,0,1-4.86,9.65.8.8,0,0,0,.69,1.19l8.94,1.11a.79.79,0,0,0,.79-.8.8.8,0,0,0-.79-.79l-8.94-1.11.69,1.2a70.44,70.44,0,0,0,5-10,.79.79,0,0,0-1.53-.43Z"/><path d="M452,407.83c7.57,9.61,18.51,15.63,29.91,19.53,12.63,4.31,26,6.47,39.22,8.1a305.71,305.71,0,0,0,44,2.21,308.55,308.55,0,0,0,43.55-4.1,301.62,301.62,0,0,0,42.85-10.39q2.61-.84,5.19-1.72c1-.33.55-1.87-.42-1.54A299.69,299.69,0,0,1,614.25,431,303.18,303.18,0,0,1,571,435.89a305.24,305.24,0,0,1-43.5-1.3c-13.48-1.38-27.13-3.4-40.16-7.18-11.5-3.35-22.9-8.48-31.27-17.28q-1.56-1.65-2.95-3.42c-.64-.81-1.75.33-1.13,1.12Z"/><path d="M451.38,407.18l4.67,13.42c.33,1,1.87.55,1.53-.42l-4.66-13.42c-.34-1-1.87-.55-1.54.42Z"/><path d="M452.54,407.72l17.63.63c1,0,1-1.56,0-1.59l-17.63-.63c-1,0-1,1.55,0,1.59Z"/><path d="M189.77,286.55a65.06,65.06,0,0,0,7.45,48.68c.53.87,1.91.08,1.38-.8a63.7,63.7,0,0,1-8.93-36.67A61.31,61.31,0,0,1,191.31,287c.24-1-1.29-1.42-1.54-.43Z"/><path d="M181.36,294.69a62.78,62.78,0,0,1,11.47-9.55l-1.16-.48,4.82,15.28c.31,1,1.84.56,1.54-.42l-4.83-15.28a.81.81,0,0,0-1.17-.48,64.78,64.78,0,0,0-11.79,9.8c-.7.74.42,1.87,1.12,1.13Z"/><path d="M227,153.24A67.29,67.29,0,0,1,237,146q5-3.21,10.29-6.1A185.41,185.41,0,0,1,269,129.73a188.14,188.14,0,0,1,46.4-11.61,183.87,183.87,0,0,1,27-1.17.8.8,0,0,0,0-1.59,188.35,188.35,0,0,0-93.47,21.87q-6,3.15-11.69,6.75a73.63,73.63,0,0,0-11.3,8.14c-.75.7.38,1.82,1.13,1.12Z"/><path d="M327.74,110.67l19.31,8.49.19-1.45L333.46,123c-.94.36-.53,1.9.43,1.53l13.77-5.29c.55-.21.88-1.15.19-1.45l-19.31-8.5c-.93-.41-1.74,1-.8,1.38Z"/><path d="M490.57,140.89a9.39,9.39,0,0,1-3.05-1.27,16.51,16.51,0,0,1-2.76-2.11,16.68,16.68,0,0,1-2.13-2.4,7.9,7.9,0,0,1-1.17-2.15,15.4,15.4,0,0,1-.74-3.55c-.1-1.16-.15-2.15-.15-3a13.56,13.56,0,0,1,.94-5.29,12.49,12.49,0,0,1,2.11-3.49,15.3,15.3,0,0,1,3.35-2.9,5.52,5.52,0,0,1,2.72-.92,3.11,3.11,0,0,1,1.87.62c.17.1.26.37.26.81a1.77,1.77,0,0,1-.26.94,1.37,1.37,0,0,1-.92.57,16.17,16.17,0,0,0-1.71.4,6,6,0,0,0-2,1.29,9.82,9.82,0,0,0-1.23,1.36,9.56,9.56,0,0,0-1.08,1.91,12.28,12.28,0,0,0-.77,2.52,15.15,15.15,0,0,0-.3,3.14,12.61,12.61,0,0,0,2.06,6.54c.42.51.81,1,1.18,1.38s.68.74.95,1l.81.79a5.85,5.85,0,0,0,1.25.82,7.28,7.28,0,0,0,.77.32l.77.27a1,1,0,0,1,.59.92,1.66,1.66,0,0,1-.39,1.07.78.78,0,0,1-.82.36Z"/><path d="M496.63,136.19a1.91,1.91,0,0,1-1.12-.35c-.33-.23-.68-.46-1.05-.68a4.93,4.93,0,0,1-1.87-1.84,5.49,5.49,0,0,1-.66-2.79,8.45,8.45,0,0,1,.27-1.93c.19-.75.35-1.44.5-2.07a5,5,0,0,1,.51-1.12,8.1,8.1,0,0,1,1-1.4,7.93,7.93,0,0,1,1.38-1.2,2.84,2.84,0,0,1,1.58-.51,1.16,1.16,0,0,1,.66.22,6,6,0,0,0,1.07.55l1.12.44c.38.15.75.31,1.12.48a4.51,4.51,0,0,1,1,.66,2.15,2.15,0,0,1,.62.81l.44.92a1.85,1.85,0,0,1,.22.75,6.85,6.85,0,0,1,0,.79v.7a5.65,5.65,0,0,1-.46,2.11,13.23,13.23,0,0,1-1,1.89c-.2.32-.45.69-.77,1.11a9,9,0,0,1-1.07,1.17,7.17,7.17,0,0,1-1.23.94,2.48,2.48,0,0,1-1.3.39l-.39,0-.42,0Zm3.6-8.78a1.7,1.7,0,0,0-.77-1.55,3.21,3.21,0,0,0-1.69-.47,1.62,1.62,0,0,0-1.25.57,5.17,5.17,0,0,0-.88,1.39,7.27,7.27,0,0,0-.53,1.77,9.61,9.61,0,0,0-.17,1.63,5.36,5.36,0,0,0,.06.59,4.77,4.77,0,0,0,.2.92,2.55,2.55,0,0,0,.42.84.84.84,0,0,0,.72.37,1.9,1.9,0,0,0,.73-.13c.22-.08.47-.19.74-.31a3.55,3.55,0,0,0,1-1,5.71,5.71,0,0,0,.72-1.36,9.57,9.57,0,0,0,.44-1.55,15.24,15.24,0,0,0,.24-1.54Z"/><path d="M525.22,126.27a14.41,14.41,0,0,0,.25,2.77c.17.87.32,1.8.44,2.78a4.61,4.61,0,0,0,.43,1.5,3.79,3.79,0,0,1,.35,1.55,1.62,1.62,0,0,1-.5,1.28,1.7,1.7,0,0,1-1.19.44,1.33,1.33,0,0,1-1.2-.71,5.45,5.45,0,0,1-.62-1.66,13.31,13.31,0,0,1-.28-1.83,7.48,7.48,0,0,0-.18-1.27,5,5,0,0,1-.3-1.2c0-.4-.09-.8-.12-1.19l-.12-1.18a6.12,6.12,0,0,0-.23-1.21c-.22.42-.46.87-.72,1.34s-.52,1-.77,1.47-.51,1-.76,1.47-.45.92-.62,1.31a7.42,7.42,0,0,0-.46,1.19c-.11.38-.21.75-.31,1.12s-.21.74-.33,1.1a8.9,8.9,0,0,1-.52,1.18,2,2,0,0,1-1,.22,1.29,1.29,0,0,1-1.09-.51,3.83,3.83,0,0,1-.58-1.29,10.11,10.11,0,0,1-.3-1.62c-.06-.56-.13-1.06-.2-1.5s-.12-1-.2-1.51-.2-1.07-.33-1.6-.28-1-.44-1.49a5.06,5.06,0,0,0-.54-1.14,3.56,3.56,0,0,0-.9,1.14,15.15,15.15,0,0,0-.69,1.53c-.21.53-.39,1-.54,1.54a11.89,11.89,0,0,1-.4,1.2,5.53,5.53,0,0,0-.64,1.7c-.11.58-.24,1.11-.37,1.58a3,3,0,0,1-.63,1.18,1.83,1.83,0,0,1-1.41.46,1,1,0,0,1-.57-.2,1.83,1.83,0,0,1-.46-.5,2.7,2.7,0,0,1-.29-.62,1.82,1.82,0,0,1-.11-.63,6.06,6.06,0,0,0,.09-.73c0-.25,0-.5,0-.77,0-.08,0-.26,0-.56s.05-.6.08-.93,0-.65.07-.94,0-.48,0-.55c0-1.37,0-2.36,0-3s-.05-1-.07-1.23-.05-.34-.08-.35,0-.11,0-.31a2.44,2.44,0,0,0-.13-.77,2.22,2.22,0,0,1-.13-.77,1.14,1.14,0,0,1,.44-.89,1.59,1.59,0,0,1,2,0,1.84,1.84,0,0,1,.54.82,4.61,4.61,0,0,1,.2,1.07c0,.38,0,.72,0,1a7.81,7.81,0,0,1-.05.92,8.08,8.08,0,0,0-.05,1,3,3,0,0,0,.07.59l.49-1.06c.19-.39.38-.79.59-1.2s.42-.79.65-1.15a8,8,0,0,1,.66-1,14.38,14.38,0,0,1,1-1.16,1.8,1.8,0,0,1,1.32-.6,1.94,1.94,0,0,1,1.25.36,2.36,2.36,0,0,1,.66.92,5,5,0,0,1,.31,1.23,10.64,10.64,0,0,0,.24,1.27c.22.71.42,1.51.61,2.39s.36,1.68.53,2.39c.05-.17.13-.4.24-.68s.22-.58.35-.88.24-.59.36-.85.22-.46.3-.61c.22-.46.47-1,.75-1.52a8.79,8.79,0,0,1,1-1.54,5.76,5.76,0,0,1,1.33-1.23,3.42,3.42,0,0,1,1.74-.59c.3.14.57.26.81.35a1.51,1.51,0,0,1,.62.4,1.84,1.84,0,0,1,.41.83,6.36,6.36,0,0,1,.15,1.58Z"/><path d="M532.93,141.66a13.39,13.39,0,0,0,.13,2,11.3,11.3,0,0,1,.13,1.67,4.52,4.52,0,0,1-.09.81,3.47,3.47,0,0,1-.32.92,2.09,2.09,0,0,1-.58.73,1.49,1.49,0,0,1-1,.3,1.67,1.67,0,0,1-1.08-.46,1.37,1.37,0,0,1-.54-1c0-.12,0-.26,0-.42s0-.33.06-.5c0-.41,0-.83,0-1.25v-1.25c0-1.27,0-2.55,0-3.84s0-2.62,0-4c0-1,0-2.06,0-3.1s0-2.19,0-3.44c0-1,0-2-.13-3s-.13-2-.13-3a1.54,1.54,0,0,1,.28-1q.27-.33,1.23-.33a1.61,1.61,0,0,1,1.38.48,4.25,4.25,0,0,1,.57,1.17l.71-.26a2.5,2.5,0,0,1,.72-.14h.26a5.2,5.2,0,0,1,1.5.16,5.51,5.51,0,0,1,1,.46l.11.08h.06s0,0,0,0a5,5,0,0,1,1.31,1,7.82,7.82,0,0,1,1,1.47,8.57,8.57,0,0,1,.69,1.69,6.1,6.1,0,0,1,.26,1.69,6.18,6.18,0,0,1-.42,2.13,6.71,6.71,0,0,1-1.27,2.1,6.78,6.78,0,0,1-2.15,1.58,7.13,7.13,0,0,1-3.07.62h-.33a1,1,0,0,1-.37-.07,1.14,1.14,0,0,0-.07.42v5.6Zm3.12-9.44a4.21,4.21,0,0,0,1.22-3.05,4.16,4.16,0,0,0-.21-1.3,4.44,4.44,0,0,0-.58-1.2,4,4,0,0,0-.92-.92,3,3,0,0,0-1.23-.47l-.48.18a2.12,2.12,0,0,0-.53.28,2.74,2.74,0,0,0-.39.27l0,.07a.29.29,0,0,1-.1.08,1.64,1.64,0,0,0-.07.7c0,.46,0,1,.06,1.63s.05,1.06.05,1.31v1.25c0,.53,0,1,.07,1.47s.18.66.37.66a4.49,4.49,0,0,0,1-.1,4.36,4.36,0,0,0,1.05-.38Z"/><path d="M547.33,135.56a.42.42,0,0,0,0,.15.28.28,0,0,1,0,.15.92.92,0,0,1-.5.86,2,2,0,0,1-1,.28,1.66,1.66,0,0,1-1.47-1,8.67,8.67,0,0,1-.84-2.35,17.92,17.92,0,0,1-.39-2.67q-.09-1.32-.09-2c0-1.2,0-2.27,0-3.22s0-1.93,0-3a39.06,39.06,0,0,1,.2-3.94,37.31,37.31,0,0,0,.21-4,1.23,1.23,0,0,1,.22-.77,3.2,3.2,0,0,1,.58-.59c.2,0,.44,0,.72,0a2.53,2.53,0,0,1,.79.18,2,2,0,0,1,.63.41,1,1,0,0,1,.25.73,10.59,10.59,0,0,1-.18,1.93,10.59,10.59,0,0,0-.18,1.93c0,.93,0,1.77,0,2.52s0,1.48,0,2.22,0,1.24,0,1.82,0,1.16,0,1.74c0,.42,0,.82,0,1.2s0,.74,0,1.08a18.32,18.32,0,0,0,.31,3.2C546.9,133.65,547.11,134.68,547.33,135.56Z"/><path d="M554.5,135.09a1.25,1.25,0,0,1-.15.58,2.89,2.89,0,0,1-.55.7,5.32,5.32,0,0,1-1.16-.11,2,2,0,0,1-.92-.44,2.29,2.29,0,0,1-.6-.95,5.16,5.16,0,0,1-.22-1.69,5.83,5.83,0,0,0-.13-1.25,6,6,0,0,1-.13-1.25,27.16,27.16,0,0,0-.22-3.57,26.9,26.9,0,0,1-.22-3.56,1.34,1.34,0,0,1,.62-1.18c.25-.07.48-.12.7-.16l.74-.13a1.7,1.7,0,0,1,.77.42c.17.19.33.36.48.54,0,.24,0,.49-.06.73s0,.5,0,.77c0,.93.05,1.93.15,3s.21,2.06.33,3,.24,1.83.35,2.61.19,1.38.24,1.8Zm-3.23-20.69a.93.93,0,0,1,.66-.18,2.28,2.28,0,0,1,.75.13,2.43,2.43,0,0,1,.72.36,2.26,2.26,0,0,1,.53.54,1.09,1.09,0,0,1,.2.62,1.07,1.07,0,0,1-.35.94,1.7,1.7,0,0,1-1,.24,3,3,0,0,1-.83-.13,4.34,4.34,0,0,1-.75-.31,2.7,2.7,0,0,1-.53-.39.55.55,0,0,1-.21-.39,2.57,2.57,0,0,1,.1-.77C550.65,114.84,550.87,114.62,551.27,114.4Z"/><path d="M569.89,135.31c.08.19.15.4.22.6a1.68,1.68,0,0,1,.11.61.7.7,0,0,1-.16.48,1.28,1.28,0,0,1-.4.29,3,3,0,0,1-.5.17,2.8,2.8,0,0,1-.48,0,1.39,1.39,0,0,1-1.21-.82,7.58,7.58,0,0,1-.77-2.06c-.2-.82-.36-1.69-.5-2.61s-.26-1.75-.38-2.48a7,7,0,0,1-.72,2,11.84,11.84,0,0,1-1.53,2.26,10.35,10.35,0,0,1-2,1.85,3.77,3.77,0,0,1-2.2.77,2.66,2.66,0,0,1-1.45-.35,2.47,2.47,0,0,1-.87-.86,3.54,3.54,0,0,1-.4-1.16,7.32,7.32,0,0,1-.11-1.19,9.53,9.53,0,0,1,.61-3,16.88,16.88,0,0,1,1.65-3.47,12.71,12.71,0,0,1,2.42-2.88,4.41,4.41,0,0,1,2.93-1.2,3.16,3.16,0,0,1,.75.11c.28.08.57.17.86.28a5.08,5.08,0,0,1,.85.4c.27.16.5.32.7.46a2.63,2.63,0,0,1,.84,1.4,13.32,13.32,0,0,1,.33,1.84c.17,1.22.31,2.33.41,3.32a21.4,21.4,0,0,0,.55,3.14l.22,1.36Zm-10.36-1.91a.08.08,0,0,0,0,0,.08.08,0,0,1,0,.06,1.94,1.94,0,0,0,1.1-.65,11,11,0,0,0,1.25-1.45,17,17,0,0,0,1.16-1.78,10.57,10.57,0,0,0,.79-1.67c.1-.22.21-.47.35-.74s.27-.54.4-.82a6.11,6.11,0,0,0,.33-.79,1.91,1.91,0,0,0,.13-.63l-.33-.14a.73.73,0,0,0-.33-.08,1.94,1.94,0,0,0-1.43.63,7,7,0,0,0-1.09,1.39,13,13,0,0,0-.75,1.49c-.2.48-.33.78-.4.9a10.51,10.51,0,0,0-.87,2,6.64,6.64,0,0,0-.35,2.05Z"/><path d="M575.55,130.75a3.64,3.64,0,0,0,.83-1.32c.21-.54.41-1.05.61-1.54l.07-.22a15.86,15.86,0,0,1,.66-1.46,11.92,11.92,0,0,1,1-1.65,6.87,6.87,0,0,1,1.29-1.34,2.26,2.26,0,0,1,1.43-.55,1.8,1.8,0,0,1,.94.59,3.22,3.22,0,0,1,.47.9c.11.33.21.67.3,1a5,5,0,0,0,.35,1,11.12,11.12,0,0,1,.71,2.27c.16.81.3,1.63.41,2.47s.24,1.65.38,2.46a10.83,10.83,0,0,0,.66,2.24,1.05,1.05,0,0,1-.64.86,2.31,2.31,0,0,1-1,.28,1.22,1.22,0,0,1-1-.5,3.88,3.88,0,0,1-.57-1.21,10.33,10.33,0,0,1-.29-1.49,8.32,8.32,0,0,0-.24-1.29,9.43,9.43,0,0,1-.29-1.41c-.08-.53-.16-1.06-.26-1.6s-.22-1-.35-1.5a3.2,3.2,0,0,0-.57-1.14,15.19,15.19,0,0,0-1,1.85c-.26.58-.49,1.13-.7,1.66s-.41,1-.6,1.54a12.45,12.45,0,0,1-.74,1.52,11.78,11.78,0,0,1-1.07,1.66,4.11,4.11,0,0,1-.88.86,2,2,0,0,1-.77.33,4.32,4.32,0,0,1-.7.06,1.78,1.78,0,0,1-.9-.37,1.08,1.08,0,0,1-.53-.88c0-1.55,0-3,0-4.3s0-2.72,0-4.19c0-.42,0-.84,0-1.27s0-.85,0-1.27a2.35,2.35,0,0,1,.17-.86,1.1,1.1,0,0,1,.57-.61h.44a2.89,2.89,0,0,1,.4,0,1.05,1.05,0,0,1,.76.27,1.78,1.78,0,0,1,.4.68,3.88,3.88,0,0,1,.17.85c0,.29,0,.54,0,.73a3.19,3.19,0,0,0,.09.77,2.88,2.88,0,0,1,.1.78c0,.9,0,1.67,0,2.31s0,1.25,0,1.84Z"/><path d="M594.92,134.06a.94.94,0,0,1,.71.29,1,1,0,0,1,.28.74.83.83,0,0,1-.2.58,1.35,1.35,0,0,1-.54.34,4.68,4.68,0,0,1-.75.16l-.83.09-1.19-.33a3.7,3.7,0,0,1-1.16-.55c-.61-.51-1.2-1.06-1.78-1.65a6.36,6.36,0,0,1-1.34-2,1.92,1.92,0,0,1-.31-.59,7.08,7.08,0,0,1-.22-.75,4.27,4.27,0,0,1-.13-.74,4.43,4.43,0,0,1,0-.57,7.72,7.72,0,0,1,.17-1.54,8,8,0,0,1,.49-1.58,6.8,6.8,0,0,1,.81-1.42,4.68,4.68,0,0,1,1.14-1.08l1.4-.63a10.07,10.07,0,0,0,1-.33,3.36,3.36,0,0,1,1.11-.18,2.48,2.48,0,0,1,1.17.31,1.06,1.06,0,0,1,.33,1.6.87.87,0,0,1-.55.44,2.19,2.19,0,0,1-.79.22,2.23,2.23,0,0,0-.75.22,5.26,5.26,0,0,0-1,.59,7.14,7.14,0,0,0-.59.52,1.64,1.64,0,0,0-.37.51,2,2,0,0,0-.37.92,6.36,6.36,0,0,0-.07.92,5.15,5.15,0,0,0,.24,1.54,7.78,7.78,0,0,0,.61,1.45,5.86,5.86,0,0,0,.82,1.18,3.44,3.44,0,0,0,.87.71,1.83,1.83,0,0,0,1.32.63Z"/><path d="M598,129.87a11.23,11.23,0,0,1,.34-2.74,8.91,8.91,0,0,1,1.05-2.48,5.88,5.88,0,0,1,1.73-1.78,4.24,4.24,0,0,1,2.39-.68,4.53,4.53,0,0,1,1.67.29,3.62,3.62,0,0,1,1.19.78,3.1,3.1,0,0,1,.72,1.08,3.41,3.41,0,0,1,.24,1.27,4.46,4.46,0,0,1-1.21,3,4.69,4.69,0,0,1-1.46,1,5.22,5.22,0,0,1-2,.42,3.3,3.3,0,0,1-.85,0c-.24-.05-.52-.12-.84-.22a1.39,1.39,0,0,0,0,.32v.2a5.05,5.05,0,0,0,.44,2.13,3.87,3.87,0,0,0,.88,1.16,2.51,2.51,0,0,0,.92.49,2.67,2.67,0,0,0,.59.11,3.29,3.29,0,0,0,1.89-.51c.5-.35,1.06-.72,1.68-1.14l.4.16a1,1,0,0,1,.4.35,2.7,2.7,0,0,0,.08.35,1.92,1.92,0,0,1,0,.39,1.65,1.65,0,0,1-.27.86,3.19,3.19,0,0,1-.54.61,4.79,4.79,0,0,1-1.78,1,7.87,7.87,0,0,1-2.15.24,5.3,5.3,0,0,1-1.45-.25,10.9,10.9,0,0,1-1.45-.55,7.06,7.06,0,0,1-1.38-1.33,5.76,5.76,0,0,1-.77-1.39,6.58,6.58,0,0,1-.37-1.53C598,131,598,130.46,598,129.87Zm3.19-2a3.17,3.17,0,0,0,.46,0l.5,0a2.75,2.75,0,0,0,1.93-.63,2,2,0,0,0,.68-1.5,1.7,1.7,0,0,0-.3-1,.92.92,0,0,0-.81-.44,3.36,3.36,0,0,0-.71.08.79.79,0,0,0-.54.36,2.25,2.25,0,0,1-.33.37,2.24,2.24,0,0,0-.35.51,5.87,5.87,0,0,0-.31.83A6.92,6.92,0,0,0,601.16,127.89Z"/><path d="M517.64,299.1a10.35,10.35,0,0,1-3.28-1.36,19.8,19.8,0,0,1-3-2.28,18.12,18.12,0,0,1-2.3-2.59,8.74,8.74,0,0,1-1.26-2.32,16.59,16.59,0,0,1-.79-3.81c-.11-1.26-.16-2.32-.16-3.19a14.38,14.38,0,0,1,1-5.7,13.36,13.36,0,0,1,2.27-3.76,16.73,16.73,0,0,1,3.6-3.12,5.94,5.94,0,0,1,2.93-1,3.31,3.31,0,0,1,2,.67c.18.11.28.4.28.87a1.94,1.94,0,0,1-.28,1,1.47,1.47,0,0,1-1,.61,15.82,15.82,0,0,0-1.84.44,6.48,6.48,0,0,0-2.2,1.38,10.19,10.19,0,0,0-1.32,1.47,9.58,9.58,0,0,0-1.17,2.06,14,14,0,0,0-.83,2.71,16.66,16.66,0,0,0-.32,3.38,13.5,13.5,0,0,0,2.22,7c.45.56.87,1.05,1.27,1.49s.73.79,1,1.08.57.58.87.85a5.9,5.9,0,0,0,1.34.9c.21.1.49.21.83.33l.83.3a1.11,1.11,0,0,1,.64,1,1.79,1.79,0,0,1-.42,1.15.85.85,0,0,1-.89.39Z"/><path d="M521.32,288.58c0-1.51,0-3.06-.1-4.67s-.1-3.21-.1-4.79c0-.95,0-1.95,0-3s.07-2.05.12-3,.14-1.9.26-2.79A16.54,16.54,0,0,1,522,268a4.34,4.34,0,0,1,1.15-.2,1.38,1.38,0,0,1,1.23.61,2.58,2.58,0,0,1,.39,1.41,9.24,9.24,0,0,1-.15,1.76,9.31,9.31,0,0,0-.2,1.64c-.06,1.16-.1,2.24-.14,3.23s-.07,1.94-.08,2.87,0,1.82,0,2.71,0,1.78,0,2.71a17.77,17.77,0,0,1,1-2.06,12.8,12.8,0,0,1,1.17-1.76,5.74,5.74,0,0,1,1.3-1.23,2.5,2.5,0,0,1,1.37-.45,2.67,2.67,0,0,1,1.76.77,5.17,5.17,0,0,1,1.09,1.64,8.39,8.39,0,0,1,.55,1.94,10.17,10.17,0,0,1,.16,1.62,9.26,9.26,0,0,1,.22,1.45c0,.54.08,1,.14,1.48a16.69,16.69,0,0,0,.55,2.67,12.15,12.15,0,0,1,.47,2.51,1.51,1.51,0,0,1-.51.72,1.18,1.18,0,0,1-.71.31,1.77,1.77,0,0,1-1.58-.95,7.47,7.47,0,0,1-.91-2.19,14.41,14.41,0,0,1-.42-2.52c-.07-.84-.1-1.46-.1-1.86a8.23,8.23,0,0,0-.1-1.18c-.06-.48-.14-.93-.24-1.37a10.91,10.91,0,0,0-.29-1.11c-.11-.3-.21-.45-.32-.45a1.88,1.88,0,0,0-.91.75A7.8,7.8,0,0,0,527,285a18.77,18.77,0,0,0-.69,1.8c-.21.63-.39,1.24-.54,1.82s-.26,1.09-.35,1.54-.16.75-.18.91v.2a.22.22,0,0,1,0,.1.14.14,0,0,0,0,.09v.16c0,.29-.06.58-.1.87a4.81,4.81,0,0,1-.18.81,1.8,1.8,0,0,1-.31.62.63.63,0,0,1-.48.24,2.38,2.38,0,0,1-2.45-1.57,4.63,4.63,0,0,1-.32-1.54c0-.57,0-1.14,0-1.72Z"/><path d="M549.69,293.09l.24.65a1.91,1.91,0,0,1,.12.65.77.77,0,0,1-.18.52,1.29,1.29,0,0,1-.44.31,2.37,2.37,0,0,1-.53.18,2.43,2.43,0,0,1-.51.06,1.51,1.51,0,0,1-1.31-.89,8.25,8.25,0,0,1-.83-2.22c-.21-.88-.39-1.82-.53-2.8s-.29-1.88-.42-2.68a7.11,7.11,0,0,1-.77,2.1,12.65,12.65,0,0,1-1.64,2.43,11.38,11.38,0,0,1-2.18,2,4.06,4.06,0,0,1-2.37.83,3,3,0,0,1-1.57-.37,2.59,2.59,0,0,1-.93-.93,3.85,3.85,0,0,1-.43-1.25,7.53,7.53,0,0,1-.12-1.28,10.56,10.56,0,0,1,.65-3.23,18.76,18.76,0,0,1,1.78-3.74,13.51,13.51,0,0,1,2.61-3.11,4.78,4.78,0,0,1,3.15-1.28,3.18,3.18,0,0,1,.81.12c.3.08.61.18.93.29a5.88,5.88,0,0,1,.91.44c.29.17.54.34.75.49a2.78,2.78,0,0,1,.91,1.51,15.11,15.11,0,0,1,.36,2c.18,1.32.33,2.51.43,3.58a25.14,25.14,0,0,0,.6,3.38l.23,1.46ZM538.53,291a.14.14,0,0,0,0,.06s0,0,0,.06a2.11,2.11,0,0,0,1.19-.7,12,12,0,0,0,1.35-1.56,18.58,18.58,0,0,0,1.24-1.92,10.86,10.86,0,0,0,.85-1.8c.11-.23.23-.5.38-.79s.29-.59.43-.89a7.15,7.15,0,0,0,.36-.85,2.17,2.17,0,0,0,.14-.67l-.36-.16a.78.78,0,0,0-.35-.08,2.13,2.13,0,0,0-1.55.67,7.48,7.48,0,0,0-1.16,1.51,12.8,12.8,0,0,0-.82,1.6,9.83,9.83,0,0,1-.43,1,11.82,11.82,0,0,0-.93,2.14,7.08,7.08,0,0,0-.38,2.21Z"/><path d="M552.86,293.24a2.83,2.83,0,0,0,.1-.73c0-.35,0-.8,0-1.32s0-1,0-1.63,0-1.11,0-1.6,0-.91,0-1.26,0-.56,0-.62v-1.3q0-.87-.06-1.74c0-.58-.07-1.16-.1-1.75v-.15a1.59,1.59,0,0,0-.16-.7,1.74,1.74,0,0,1-.16-.73,1.92,1.92,0,0,1,.44-.79,1.39,1.39,0,0,1,1-.28,2,2,0,0,1,1.07.26,1.69,1.69,0,0,1,.59.63,2.56,2.56,0,0,1,.26.85c0,.32.07.62.1.91l.11,2.1a4.36,4.36,0,0,0,.83-.93c.29-.41.6-.85.91-1.32s.65-.94,1-1.39a6.32,6.32,0,0,1,1.07-1.11,1.86,1.86,0,0,1,.79-.15,2.87,2.87,0,0,1,1.53.35A2.31,2.31,0,0,1,563,280a2.18,2.18,0,0,1-.44.81c-.23.3-.51.62-.81.95l-1,1a8.7,8.7,0,0,0-.85,1.05,11.64,11.64,0,0,0-1.19,1.54,19.25,19.25,0,0,0-1.06,1.86,17,17,0,0,0-.8,1.8,4.16,4.16,0,0,0-.31,1.37c0,.21,0,.5,0,.89s0,.68,0,.89a6.56,6.56,0,0,1-.08,1,2.82,2.82,0,0,1-.32.91,2,2,0,0,1-.63.67,1.89,1.89,0,0,1-1,.26,1.67,1.67,0,0,1-1.21-.46,1.54,1.54,0,0,1-.45-1.13Z"/><path d="M572,280.23a1.58,1.58,0,0,1,.37-.12l.38-.12c.24.05.5.09.77.12a4.66,4.66,0,0,1,1,.2c0,.6.13,1.18.22,1.74a11.31,11.31,0,0,1,.14,1.82q0,2.81.18,5.89t.17,7.05a26.45,26.45,0,0,1-.27,3.77,10.21,10.21,0,0,1-1.23,3.55,3.93,3.93,0,0,0-.59.89,5.38,5.38,0,0,1-.76,1.06,4.31,4.31,0,0,1-1.2.95,4.86,4.86,0,0,1-1.92.54l-1-.34c-.26-.09-.46-.41-.59-1a2.89,2.89,0,0,1,1-1.2,7.18,7.18,0,0,0,1.4-1.41,8.27,8.27,0,0,0,1.25-2.63,17.78,17.78,0,0,0,.53-4.93v-1.68c0-.54,0-1.07,0-1.6s-.06-1.07-.1-1.62-.1-1.16-.18-1.82a14.5,14.5,0,0,1-.85,1.56,6.33,6.33,0,0,1-1.1,1.33,6.08,6.08,0,0,1-1.55,1,7.2,7.2,0,0,1-2.11.58c-.37-.19-.75-.4-1.13-.63a5.7,5.7,0,0,1-1-.84,4,4,0,0,1-.77-1.06,3,3,0,0,1-.3-1.35,1.11,1.11,0,0,1,0-.36c.18-.63.49-1.51.91-2.65a23.89,23.89,0,0,1,1.58-3.38,12.44,12.44,0,0,1,2.26-2.91,4.21,4.21,0,0,1,3-1.23,2.72,2.72,0,0,1,.63.08c.21.06.42.12.63.2Zm-5.38,10.6a2.14,2.14,0,0,0,1.2-.71,8,8,0,0,0,1.19-1.64,19.06,19.06,0,0,0,1.09-2.3c.34-.86.66-1.76.95-2.71a6,6,0,0,1,.14-.85,4,4,0,0,0,.1-.85,2.55,2.55,0,0,0-1.07.28,2.77,2.77,0,0,0-.77.59,5.8,5.8,0,0,0-.62.77,9.3,9.3,0,0,1-.59.81c-.21.45-.46.92-.73,1.41s-.54,1-.79,1.48a11.57,11.57,0,0,0-.64,1.51,4.48,4.48,0,0,0-.25,1.46C565.8,290.5,566.06,290.75,566.59,290.83Z"/><path d="M578.22,287.23a12,12,0,0,1,.38-3,9.13,9.13,0,0,1,1.12-2.67,6.56,6.56,0,0,1,1.86-1.92,4.56,4.56,0,0,1,2.58-.73,4.78,4.78,0,0,1,1.8.32,3.88,3.88,0,0,1,1.28.83,3.22,3.22,0,0,1,.77,1.17,3.5,3.5,0,0,1,.26,1.36,4.82,4.82,0,0,1-.33,1.76A4.72,4.72,0,0,1,585.4,287a5.59,5.59,0,0,1-2.11.46,3.74,3.74,0,0,1-.91,0,7.33,7.33,0,0,1-.91-.24,1.48,1.48,0,0,0,0,.34v.21a5.23,5.23,0,0,0,.47,2.3,4.05,4.05,0,0,0,1,1.25,2.68,2.68,0,0,0,1,.53,3.4,3.4,0,0,0,.63.12,3.53,3.53,0,0,0,2-.56l1.8-1.22.44.18a1,1,0,0,1,.43.37,3.43,3.43,0,0,0,.08.38,1.44,1.44,0,0,1,0,.41,1.9,1.9,0,0,1-.3.93,3.66,3.66,0,0,1-.57.66,5.43,5.43,0,0,1-1.92,1.12,8.16,8.16,0,0,1-2.31.26,5.49,5.49,0,0,1-1.57-.28,9.34,9.34,0,0,1-1.56-.59,7.23,7.23,0,0,1-1.48-1.42,5.75,5.75,0,0,1-.83-1.51,6.45,6.45,0,0,1-.4-1.64C578.29,288.46,578.25,287.86,578.22,287.23Zm3.44-2.14a2.41,2.41,0,0,0,.5.06c.22,0,.4,0,.53,0a3,3,0,0,0,2.08-.67,2.12,2.12,0,0,0,.73-1.62,1.77,1.77,0,0,0-.32-1,1,1,0,0,0-.87-.48,3.94,3.94,0,0,0-.77.08.88.88,0,0,0-.57.4q-.16.19-.36.39a2.36,2.36,0,0,0-.37.56,5.77,5.77,0,0,0-.34.89A7.55,7.55,0,0,0,581.66,285.09Z"/><path d="M594.52,281.65v1.25c0,.3,0,.58,0,.85s0,.43,0,.51c.24-.47.51-.95.81-1.42s.8-1.15,1.49-2l.35-.32a6.09,6.09,0,0,1,1.77-1,3.68,3.68,0,0,1,1.2-.19,2.76,2.76,0,0,1,1.92.65,4.56,4.56,0,0,1,1.15,1.6,7.54,7.54,0,0,1,.57,2.06,13.56,13.56,0,0,1,.16,2c0,.31,0,.76-.08,1.34a12.52,12.52,0,0,1-.32,1.86,11,11,0,0,1-.65,2,4.54,4.54,0,0,1-1.09,1.6,6.1,6.1,0,0,1-2.13,1.27,6.75,6.75,0,0,1-2.22.44,12.85,12.85,0,0,1-2-.16,14.68,14.68,0,0,1-1.88-.44,1.2,1.2,0,0,1-.45-.45,8.8,8.8,0,0,1-.44-.77,7.22,7.22,0,0,1-.37-.91c-.11-.32-.2-.62-.28-.91a1.91,1.91,0,0,1-.24-.78c-.08-.43-.15-1-.22-1.54s-.11-1.21-.15-1.86-.06-1.22-.06-1.72q0-3.33.12-6.63t.59-7.18a11.59,11.59,0,0,1,.08-1.46,9,9,0,0,1,.31-1.51,1.1,1.1,0,0,1,.9-.73,6.32,6.32,0,0,1,1.16-.14,1.48,1.48,0,0,1,.68.16.74.74,0,0,1,.39.55c-.13,1.69-.32,3.29-.55,4.79a37.51,37.51,0,0,0-.44,4.79Zm2,4.75-.37,1.09c-.12.33-.23.66-.32,1s-.17.7-.24,1.08-.11.82-.14,1.29a1.6,1.6,0,0,0,.83.55,4.94,4.94,0,0,0,1,.08,2.62,2.62,0,0,0,1.61-.75,4.53,4.53,0,0,0,1-1.54,7.71,7.71,0,0,0,.48-2,17.28,17.28,0,0,0,.12-2c0-.24,0-.51,0-.83a4.44,4.44,0,0,0-.12-.91,3.28,3.28,0,0,0-.26-.75c-.1-.21-.23-.32-.39-.32a1.31,1.31,0,0,0-.7.4,8,8,0,0,0-.93,1c-.31.38-.61.78-.89,1.2a5.88,5.88,0,0,0-.57,1.11Z"/><path d="M606.67,287.23a12,12,0,0,1,.38-3,9.13,9.13,0,0,1,1.12-2.67,6.56,6.56,0,0,1,1.86-1.92,4.56,4.56,0,0,1,2.58-.73,4.78,4.78,0,0,1,1.8.32,3.88,3.88,0,0,1,1.28.83,3.22,3.22,0,0,1,.77,1.17,3.5,3.5,0,0,1,.26,1.36,4.82,4.82,0,0,1-.33,1.76,4.72,4.72,0,0,1-2.54,2.61,5.59,5.59,0,0,1-2.11.46,3.74,3.74,0,0,1-.91,0,7.33,7.33,0,0,1-.91-.24,1.48,1.48,0,0,0,0,.34v.21a5.23,5.23,0,0,0,.47,2.3,4.05,4.05,0,0,0,.95,1.25,2.68,2.68,0,0,0,1,.53,3.4,3.4,0,0,0,.63.12,3.53,3.53,0,0,0,2-.56l1.8-1.22.44.18a1,1,0,0,1,.43.37,3.43,3.43,0,0,0,.08.38,1.44,1.44,0,0,1,0,.41,1.9,1.9,0,0,1-.3.93,3.66,3.66,0,0,1-.57.66,5.43,5.43,0,0,1-1.92,1.12,8.16,8.16,0,0,1-2.31.26,5.49,5.49,0,0,1-1.57-.28,9.34,9.34,0,0,1-1.56-.59,7.23,7.23,0,0,1-1.48-1.42,5.75,5.75,0,0,1-.83-1.51,6.45,6.45,0,0,1-.4-1.64C606.74,288.46,606.7,287.86,606.67,287.23Zm3.44-2.14a2.41,2.41,0,0,0,.5.06c.22,0,.4,0,.53,0a3,3,0,0,0,2.08-.67,2.12,2.12,0,0,0,.73-1.62,1.83,1.83,0,0,0-.31-1,1,1,0,0,0-.88-.48,3.94,3.94,0,0,0-.77.08.88.88,0,0,0-.57.4,4.26,4.26,0,0,1-.36.39,2.36,2.36,0,0,0-.37.56,5.77,5.77,0,0,0-.34.89A7.55,7.55,0,0,0,610.11,285.09Z"/><path d="M619.45,287.23a12,12,0,0,1,.38-3,8.88,8.88,0,0,1,1.13-2.67,6.32,6.32,0,0,1,1.86-1.92,4.51,4.51,0,0,1,2.57-.73,4.78,4.78,0,0,1,1.8.32,3.88,3.88,0,0,1,1.28.83,3.38,3.38,0,0,1,.78,1.17,3.69,3.69,0,0,1,.25,1.36,4.82,4.82,0,0,1-.33,1.76,4.72,4.72,0,0,1-2.54,2.61,5.59,5.59,0,0,1-2.11.46,3.74,3.74,0,0,1-.91,0,7.33,7.33,0,0,1-.91-.24,1.48,1.48,0,0,0,0,.34v.21a5.23,5.23,0,0,0,.47,2.3,4.05,4.05,0,0,0,1,1.25,2.68,2.68,0,0,0,1,.53,3.4,3.4,0,0,0,.63.12,3.53,3.53,0,0,0,2-.56l1.8-1.22.44.18a1,1,0,0,1,.43.37c0,.16.06.29.08.38a1.44,1.44,0,0,1,0,.41,1.8,1.8,0,0,1-.3.93,3.66,3.66,0,0,1-.57.66,5.43,5.43,0,0,1-1.92,1.12,8.16,8.16,0,0,1-2.31.26,5.49,5.49,0,0,1-1.57-.28,9.34,9.34,0,0,1-1.56-.59,7.23,7.23,0,0,1-1.48-1.42,5.75,5.75,0,0,1-.83-1.51,6.9,6.9,0,0,1-.4-1.64C619.52,288.46,619.48,287.86,619.45,287.23Zm3.44-2.14a2.41,2.41,0,0,0,.5.06c.22,0,.4,0,.53,0a3,3,0,0,0,2.08-.67,2.12,2.12,0,0,0,.73-1.62,1.83,1.83,0,0,0-.31-1,1,1,0,0,0-.87-.48,4,4,0,0,0-.78.08.88.88,0,0,0-.57.4,4.26,4.26,0,0,1-.36.39,2.36,2.36,0,0,0-.37.56,5.77,5.77,0,0,0-.34.89A8.49,8.49,0,0,0,622.89,285.09Z"/><path d="M852.86,232.11a9.39,9.39,0,0,1-3.05-1.27,17.06,17.06,0,0,1-2.76-2.11,16.22,16.22,0,0,1-2.13-2.41,8.23,8.23,0,0,1-1.18-2.14,15.91,15.91,0,0,1-.73-3.55c-.1-1.16-.15-2.15-.15-3a13.38,13.38,0,0,1,.94-5.29,12.49,12.49,0,0,1,2.11-3.49,15.3,15.3,0,0,1,3.35-2.9,5.52,5.52,0,0,1,2.72-.92,3.11,3.11,0,0,1,1.87.62c.17.1.26.37.26.81a1.77,1.77,0,0,1-.26.94,1.37,1.37,0,0,1-.92.57,16.17,16.17,0,0,0-1.71.4,6,6,0,0,0-2,1.29,9.82,9.82,0,0,0-1.23,1.36,9.56,9.56,0,0,0-1.08,1.91,12.28,12.28,0,0,0-.77,2.52,15.15,15.15,0,0,0-.3,3.14,12.64,12.64,0,0,0,2.06,6.54c.42.51.81,1,1.18,1.37s.68.75,1,1l.81.79a5.85,5.85,0,0,0,1.25.82,5.78,5.78,0,0,0,.77.31l.77.28a1,1,0,0,1,.59.92,1.62,1.62,0,0,1-.39,1.06.77.77,0,0,1-.82.37Z"/><path d="M858.92,227.41a1.91,1.91,0,0,1-1.12-.35c-.33-.23-.68-.46-1-.68a5,5,0,0,1-1.87-1.84,5.49,5.49,0,0,1-.66-2.79,8.45,8.45,0,0,1,.27-1.93c.19-.75.35-1.44.5-2.08a5.41,5.41,0,0,1,.51-1.12,8.43,8.43,0,0,1,1-1.39,7.93,7.93,0,0,1,1.38-1.2,2.84,2.84,0,0,1,1.58-.51,1.16,1.16,0,0,1,.66.22,6.77,6.77,0,0,0,1.07.55l1.12.44c.38.15.75.31,1.12.48a4.51,4.51,0,0,1,1,.66,2.15,2.15,0,0,1,.62.81l.44.92a1.85,1.85,0,0,1,.22.75,6.85,6.85,0,0,1,0,.79v.7a5.65,5.65,0,0,1-.46,2.11,13.23,13.23,0,0,1-1,1.89c-.2.32-.45.69-.77,1.11a9.75,9.75,0,0,1-1.07,1.17,7.17,7.17,0,0,1-1.23.94,2.48,2.48,0,0,1-1.3.39l-.39,0a2.82,2.82,0,0,0-.42,0Zm3.6-8.78a1.7,1.7,0,0,0-.77-1.55,3.24,3.24,0,0,0-1.69-.47,1.62,1.62,0,0,0-1.25.57,5.17,5.17,0,0,0-.88,1.39,7.27,7.27,0,0,0-.53,1.77,8.68,8.68,0,0,0-.17,1.63c0,.1,0,.29,0,.59a5.73,5.73,0,0,0,.21.92,2.55,2.55,0,0,0,.42.84.84.84,0,0,0,.72.37,1.9,1.9,0,0,0,.73-.13c.22-.08.47-.19.74-.31a3.68,3.68,0,0,0,1-1,5.71,5.71,0,0,0,.72-1.36,9.57,9.57,0,0,0,.44-1.55,15.24,15.24,0,0,0,.24-1.54Z"/><path d="M887.51,217.49a14.41,14.41,0,0,0,.25,2.77c.17.87.32,1.8.44,2.78a4.61,4.61,0,0,0,.43,1.5,3.79,3.79,0,0,1,.35,1.55,1.62,1.62,0,0,1-.5,1.28,1.71,1.71,0,0,1-1.2.44,1.32,1.32,0,0,1-1.19-.71,5.45,5.45,0,0,1-.62-1.66,13.31,13.31,0,0,1-.28-1.83,7.48,7.48,0,0,0-.18-1.27,5,5,0,0,1-.3-1.2c-.05-.4-.09-.8-.12-1.19l-.12-1.18a6.12,6.12,0,0,0-.23-1.21c-.22.42-.46.86-.72,1.34s-.51,1-.77,1.47l-.76,1.47c-.24.48-.45.91-.62,1.31a7.42,7.42,0,0,0-.46,1.19c-.11.38-.21.75-.31,1.12s-.21.74-.33,1.1a8.9,8.9,0,0,1-.52,1.18,2,2,0,0,1-1,.22,1.29,1.29,0,0,1-1.09-.51,3.83,3.83,0,0,1-.58-1.29,10.11,10.11,0,0,1-.3-1.62c-.06-.56-.13-1.06-.2-1.5s-.12-1-.2-1.51-.2-1.07-.33-1.6-.29-1-.44-1.49a5.06,5.06,0,0,0-.54-1.14,3.56,3.56,0,0,0-.9,1.14,15.15,15.15,0,0,0-.69,1.53c-.21.53-.39,1-.54,1.54a11.89,11.89,0,0,1-.4,1.2,5.53,5.53,0,0,0-.64,1.7c-.12.58-.24,1.11-.37,1.58a3,3,0,0,1-.63,1.18,1.83,1.83,0,0,1-1.41.46,1,1,0,0,1-.57-.2,1.69,1.69,0,0,1-.46-.5,2.7,2.7,0,0,1-.29-.62,1.82,1.82,0,0,1-.11-.63c0-.24.07-.49.09-.73s0-.5,0-.77c0-.08,0-.26,0-.56s0-.6.08-.93,0-.65.07-.94,0-.48,0-.55c0-1.37,0-2.36,0-3s0-1-.07-1.23-.05-.34-.08-.35,0-.12,0-.31a2.44,2.44,0,0,0-.13-.77,2.22,2.22,0,0,1-.13-.77,1.14,1.14,0,0,1,.44-.89,1.59,1.59,0,0,1,2,0,1.84,1.84,0,0,1,.54.82,4.51,4.51,0,0,1,.2,1.07c0,.38,0,.72,0,1a7.81,7.81,0,0,1,0,.92,8.08,8.08,0,0,0-.05.95,3,3,0,0,0,.07.59c.14-.32.31-.67.49-1.06s.38-.79.59-1.2.42-.79.65-1.16a8.68,8.68,0,0,1,.66-1,14.38,14.38,0,0,1,1-1.16,1.8,1.8,0,0,1,1.32-.6,1.94,1.94,0,0,1,1.25.36,2.36,2.36,0,0,1,.66.92,5,5,0,0,1,.31,1.23,10.64,10.64,0,0,0,.24,1.27c.22.71.42,1.51.61,2.39s.36,1.68.53,2.39c0-.17.13-.4.24-.68s.22-.58.35-.88.24-.59.36-.85.22-.46.3-.61c.22-.46.47-1,.75-1.52a8.79,8.79,0,0,1,1-1.54,6,6,0,0,1,1.33-1.24,3.5,3.5,0,0,1,1.74-.58c.29.14.57.26.81.35a1.51,1.51,0,0,1,.62.4,1.84,1.84,0,0,1,.41.83,6.3,6.3,0,0,1,.15,1.58Z"/><path d="M895.22,232.88a13.39,13.39,0,0,0,.13,2,11.3,11.3,0,0,1,.13,1.67,4.52,4.52,0,0,1-.09.81,3.47,3.47,0,0,1-.32.92,2.09,2.09,0,0,1-.58.73,1.49,1.49,0,0,1-1,.3,1.67,1.67,0,0,1-1.08-.46,1.37,1.37,0,0,1-.54-1c0-.12,0-.26,0-.42s0-.33.06-.5c0-.42,0-.83,0-1.25v-1.25c0-1.27,0-2.55,0-3.84s0-2.62,0-4c0-1,0-2.06,0-3.1s0-2.19,0-3.44c0-1,0-2-.13-3s-.13-2-.13-3a1.54,1.54,0,0,1,.28-1q.27-.33,1.23-.33a1.61,1.61,0,0,1,1.38.48,4.12,4.12,0,0,1,.57,1.17l.71-.26a2.44,2.44,0,0,1,.72-.14h.26a5.2,5.2,0,0,1,1.5.16,5.51,5.51,0,0,1,1,.46l.11.08h.06s0,0,.05,0a5,5,0,0,1,1.31,1,7.82,7.82,0,0,1,1.05,1.47,8.57,8.57,0,0,1,.69,1.69,6.1,6.1,0,0,1,.26,1.69,6.18,6.18,0,0,1-.42,2.13,6.71,6.71,0,0,1-1.27,2.1,6.78,6.78,0,0,1-2.15,1.58,7.13,7.13,0,0,1-3.07.62h-.33a1,1,0,0,1-.37-.07,1,1,0,0,0-.07.42v5.6Zm3.12-9.44a4.21,4.21,0,0,0,1.22-3.05,4.11,4.11,0,0,0-.21-1.3,4.44,4.44,0,0,0-.58-1.2,3.83,3.83,0,0,0-.92-.92,3,3,0,0,0-1.23-.47l-.48.18a2.41,2.41,0,0,0-.53.27,3.5,3.5,0,0,0-.39.28l-.05.07a.29.29,0,0,1-.1.08,1.64,1.64,0,0,0-.07.7c0,.46,0,1,.06,1.63s.05,1.06.05,1.31v1.24a13.18,13.18,0,0,0,.07,1.47c.05.45.18.67.37.67a4.49,4.49,0,0,0,1-.1,4.36,4.36,0,0,0,1.05-.38Z"/><path d="M905,221.09a10.78,10.78,0,0,1,.35-2.74,8.61,8.61,0,0,1,1-2.48,6,6,0,0,1,1.73-1.78,4.26,4.26,0,0,1,2.39-.68,4.49,4.49,0,0,1,1.67.29,3.65,3.65,0,0,1,1.19.77,3.14,3.14,0,0,1,.72,1.09,3.41,3.41,0,0,1,.24,1.27,4.33,4.33,0,0,1-.31,1.63,4.51,4.51,0,0,1-.9,1.42,4.65,4.65,0,0,1-1.45,1,5.48,5.48,0,0,1-2,.42,3.2,3.2,0,0,1-.84,0,8.29,8.29,0,0,1-.85-.22,2.39,2.39,0,0,0,0,.31v.21a5.05,5.05,0,0,0,.44,2.13,3.72,3.72,0,0,0,.89,1.16,2.37,2.37,0,0,0,.92.49,3.26,3.26,0,0,0,.58.11,3.34,3.34,0,0,0,1.9-.51c.5-.35,1.05-.73,1.67-1.14l.4.16a1,1,0,0,1,.41.35,1.77,1.77,0,0,0,.07.35,1.79,1.79,0,0,1,0,.39,1.75,1.75,0,0,1-.28.86,3.52,3.52,0,0,1-.53.61,5,5,0,0,1-1.78,1,8,8,0,0,1-2.15.24,5.18,5.18,0,0,1-1.45-.25,9.76,9.76,0,0,1-1.46-.56,7.32,7.32,0,0,1-1.38-1.32,5.76,5.76,0,0,1-.77-1.39,6.56,6.56,0,0,1-.36-1.53C905,222.23,905,221.68,905,221.09Zm3.19-2a2.14,2.14,0,0,0,.46.06l.5,0a2.74,2.74,0,0,0,1.93-.63,2,2,0,0,0,.68-1.5,1.68,1.68,0,0,0-.3-1,.91.91,0,0,0-.8-.44,4.18,4.18,0,0,0-.72.07.82.82,0,0,0-.53.37c-.1.12-.21.25-.33.37a1.75,1.75,0,0,0-.35.51,5.37,5.37,0,0,0-.32.83A7.88,7.88,0,0,0,908.15,219.1Z"/><path d="M919.84,203.82a5,5,0,0,1,.11-1l.48-.23a.94.94,0,0,1,.47-.1,2.07,2.07,0,0,1,1,.22,1.52,1.52,0,0,1,.59.56,2,2,0,0,1,.28.75,4.7,4.7,0,0,1,.07.82c0,.52,0,1,0,1.35s0,.75,0,1.12,0,.77,0,1.15,0,.77,0,1.16,0,.55,0,.85,0,.6,0,.92a1.7,1.7,0,0,0,0,.4q0,.18.33.18a4.11,4.11,0,0,0,1.67-.31,4.15,4.15,0,0,1,1.67-.31.69.69,0,0,1,.7.4,2,2,0,0,1,.18.81,1.14,1.14,0,0,1-.22.75,1.37,1.37,0,0,1-.55.43,4.93,4.93,0,0,1-.71.24c-.26.06-.51.12-.76.2a4.82,4.82,0,0,1-.79.27,5.86,5.86,0,0,0-.86.32,2.46,2.46,0,0,0-.7.47,1,1,0,0,0-.29.74,3.7,3.7,0,0,0,0,.48c0,.14,0,.29,0,.44s0,.3,0,.46a3.93,3.93,0,0,0,0,.49,25.86,25.86,0,0,0,.24,3.44c.16,1.19.33,2.33.53,3.43.07.35.16.69.26,1a3.84,3.84,0,0,1,.14,1,1.19,1.19,0,0,1-.33.92,1.81,1.81,0,0,1-.73.4,3.25,3.25,0,0,1-.44.07,1.39,1.39,0,0,1-.94-.35,3.2,3.2,0,0,1-.72-.86,8.11,8.11,0,0,1-.31-1.4,14.34,14.34,0,0,1-.16-1.61c-.08-1.2-.13-2.4-.15-3.58s-.05-2.39-.07-3.59a2.28,2.28,0,0,0,0-.27,1.19,1.19,0,0,0-.1-.28,4.49,4.49,0,0,0-1.1.33,2.2,2.2,0,0,1-1,.22,1.81,1.81,0,0,1-1.25-.47,10.71,10.71,0,0,1-.77-.78,3.6,3.6,0,0,1,.19-1,5,5,0,0,1,.88-.25l.79-.15.79-.18a4.77,4.77,0,0,0,.88-.37c.39,0,.62-.15.68-.46a4.24,4.24,0,0,0,.09-.79c0-.44,0-.81,0-1.12s0-.74,0-1.3c0-.37,0-.74,0-1.13s0-.75,0-1.12Z"/><path d="M927,221.09a11.25,11.25,0,0,1,.35-2.74,8.62,8.62,0,0,1,1-2.48,5.77,5.77,0,0,1,1.73-1.78,4.24,4.24,0,0,1,2.39-.68,4.53,4.53,0,0,1,1.67.29,3.76,3.76,0,0,1,1.19.77,3.14,3.14,0,0,1,.72,1.09,3.41,3.41,0,0,1,.24,1.27,4.34,4.34,0,0,1-.32,1.63,4.18,4.18,0,0,1-.9,1.42,4.53,4.53,0,0,1-1.45,1,5.42,5.42,0,0,1-2,.42,3.3,3.3,0,0,1-.85,0,8.17,8.17,0,0,1-.84-.22,1.38,1.38,0,0,0,0,.31v.21a4.9,4.9,0,0,0,.44,2.13,3.71,3.71,0,0,0,.88,1.16,2.51,2.51,0,0,0,.92.49,3.48,3.48,0,0,0,.59.11,3.29,3.29,0,0,0,1.89-.51l1.67-1.14.41.16a1,1,0,0,1,.4.35,2.7,2.7,0,0,0,.08.35,1.92,1.92,0,0,1,0,.39,1.65,1.65,0,0,1-.27.86,3.19,3.19,0,0,1-.54.61,4.93,4.93,0,0,1-1.78,1,7.92,7.92,0,0,1-2.15.24,5.3,5.3,0,0,1-1.45-.25,9.6,9.6,0,0,1-1.45-.56,6.76,6.76,0,0,1-1.38-1.32,5.44,5.44,0,0,1-.77-1.39,6.58,6.58,0,0,1-.37-1.53C927.07,222.23,927,221.68,927,221.09Zm3.2-2a2.05,2.05,0,0,0,.46.06l.5,0a2.75,2.75,0,0,0,1.93-.63,2,2,0,0,0,.67-1.5,1.67,1.67,0,0,0-.29-1,.93.93,0,0,0-.81-.44,4.17,4.17,0,0,0-.71.07.84.84,0,0,0-.54.37c-.1.12-.21.25-.33.37a2,2,0,0,0-.35.51,5.44,5.44,0,0,0-.31.83A6.94,6.94,0,0,0,930.2,219.1Z"/><path d="M942.55,222a3.76,3.76,0,0,0,.82-1.32c.21-.54.41-1.06.61-1.55l.07-.22c.15-.39.37-.87.66-1.45a13,13,0,0,1,1-1.65,6.87,6.87,0,0,1,1.29-1.34,2.26,2.26,0,0,1,1.43-.55,1.81,1.81,0,0,1,.94.58,2.94,2.94,0,0,1,.48.91c.11.33.2.67.29,1a5.22,5.22,0,0,0,.35,1,10.64,10.64,0,0,1,.72,2.28c.15.81.29,1.63.4,2.46s.24,1.66.39,2.47a9.88,9.88,0,0,0,.66,2.24,1.07,1.07,0,0,1-.65.86,2.42,2.42,0,0,1-1,.28,1.22,1.22,0,0,1-1-.5,3.88,3.88,0,0,1-.57-1.21,10.33,10.33,0,0,1-.29-1.49,8.32,8.32,0,0,0-.24-1.29,9.43,9.43,0,0,1-.29-1.41c-.08-.53-.16-1.06-.26-1.6A14.62,14.62,0,0,0,948,219a2.93,2.93,0,0,0-.57-1.13,16.7,16.7,0,0,0-1,1.85c-.25.58-.49,1.13-.7,1.65s-.41,1-.6,1.55a11.15,11.15,0,0,1-.74,1.52,11.86,11.86,0,0,1-1.06,1.66,4.35,4.35,0,0,1-.88.86,2,2,0,0,1-.78.33,4.2,4.2,0,0,1-.69.06,1.72,1.72,0,0,1-.9-.37,1.06,1.06,0,0,1-.54-.88c0-1.55,0-3,0-4.3s0-2.72,0-4.19c0-.42,0-.84,0-1.27s0-.85,0-1.27a2.34,2.34,0,0,1,.16-.86,1.1,1.1,0,0,1,.57-.61h.44a3,3,0,0,1,.41,0,1,1,0,0,1,.75.27,1.66,1.66,0,0,1,.4.68,3.88,3.88,0,0,1,.17.85c0,.29,0,.54,0,.73a3.19,3.19,0,0,0,.09.77,3.33,3.33,0,0,1,.09.78c0,.9,0,1.67,0,2.31s0,1.25,0,1.84Z"/><path d="M961.91,225.28a1,1,0,0,1,.72.29,1.05,1.05,0,0,1,.27.74.83.83,0,0,1-.2.58,1.2,1.2,0,0,1-.53.33,3.72,3.72,0,0,1-.76.17l-.82.09-1.2-.33a3.65,3.65,0,0,1-1.15-.55c-.62-.51-1.21-1.07-1.79-1.65a6.54,6.54,0,0,1-1.34-2,2.17,2.17,0,0,1-.31-.59,7.08,7.08,0,0,1-.22-.75,5.5,5.5,0,0,1-.13-.74c0-.23,0-.42,0-.57a7.72,7.72,0,0,1,.17-1.54,8.06,8.06,0,0,1,.5-1.58,7.24,7.24,0,0,1,.8-1.42,4.5,4.5,0,0,1,1.14-1.08l1.4-.63c.34-.09.68-.2,1-.33a3.3,3.3,0,0,1,1.1-.18,2.52,2.52,0,0,1,1.18.31,2,2,0,0,1,.55,1.09,2.33,2.33,0,0,1-.22.51.92.92,0,0,1-.55.44,2.48,2.48,0,0,1-.79.22,2.35,2.35,0,0,0-.76.22,5.38,5.38,0,0,0-1,.59c-.24.2-.44.37-.59.51a2,2,0,0,0-.37.52,2.07,2.07,0,0,0-.36.92,6.48,6.48,0,0,0-.08.92,5.2,5.2,0,0,0,.24,1.54,7.78,7.78,0,0,0,.61,1.45,5.51,5.51,0,0,0,.83,1.18,3.25,3.25,0,0,0,.86.71,1.86,1.86,0,0,0,1.32.63Z"/><path d="M965,221.09a11.25,11.25,0,0,1,.35-2.74,8.35,8.35,0,0,1,1.05-2.48,5.85,5.85,0,0,1,1.72-1.78,4.26,4.26,0,0,1,2.39-.68,4.49,4.49,0,0,1,1.67.29,3.81,3.81,0,0,1,1.2.77,3.11,3.11,0,0,1,.71,1.09,3.41,3.41,0,0,1,.24,1.27,4.33,4.33,0,0,1-.31,1.63,4.51,4.51,0,0,1-.9,1.42,4.65,4.65,0,0,1-1.45,1,5.48,5.48,0,0,1-2,.42,3.2,3.2,0,0,1-.84,0,8.29,8.29,0,0,1-.85-.22,2.11,2.11,0,0,0,0,.31v.21a4.9,4.9,0,0,0,.44,2.13,3.71,3.71,0,0,0,.88,1.16,2.44,2.44,0,0,0,.92.49,2.9,2.9,0,0,0,2.48-.4l1.67-1.14.4.16a1,1,0,0,1,.41.35,3,3,0,0,0,.07.35,1.33,1.33,0,0,1,0,.39,1.75,1.75,0,0,1-.28.86,3.52,3.52,0,0,1-.53.61,5,5,0,0,1-1.78,1,7.92,7.92,0,0,1-2.15.24,5.24,5.24,0,0,1-1.45-.25,9.76,9.76,0,0,1-1.46-.56,7,7,0,0,1-1.37-1.32,5.8,5.8,0,0,1-.78-1.39,6.56,6.56,0,0,1-.36-1.53C965,222.23,965,221.68,965,221.09Zm3.2-2a2,2,0,0,0,.46.06l.49,0a2.74,2.74,0,0,0,1.93-.63,2,2,0,0,0,.68-1.5,1.74,1.74,0,0,0-.29-1,.94.94,0,0,0-.81-.44,4.18,4.18,0,0,0-.72.07.82.82,0,0,0-.53.37c-.1.12-.21.25-.33.37a1.75,1.75,0,0,0-.35.51,4.55,4.55,0,0,0-.31.83A6.94,6.94,0,0,0,968.16,219.1Z"/><path d="M764.09,407.23A9.62,9.62,0,0,1,761,406a17.42,17.42,0,0,1-2.75-2.11,16.76,16.76,0,0,1-2.14-2.41,8.19,8.19,0,0,1-1.17-2.15,15.86,15.86,0,0,1-.74-3.54c-.09-1.17-.14-2.15-.14-3a13.57,13.57,0,0,1,.93-5.29,12.12,12.12,0,0,1,2.12-3.49,15.36,15.36,0,0,1,3.34-2.91,5.49,5.49,0,0,1,2.72-.91,3,3,0,0,1,1.87.62c.17.1.26.37.26.81a1.82,1.82,0,0,1-.26.94,1.32,1.32,0,0,1-.92.56,15.52,15.52,0,0,0-1.7.41,5.89,5.89,0,0,0-2,1.28,9.18,9.18,0,0,0-1.23,1.36,9.37,9.37,0,0,0-1.09,1.91,12.67,12.67,0,0,0-.77,2.52,15.18,15.18,0,0,0-.29,3.14,12.57,12.57,0,0,0,2.05,6.54c.42.52.81,1,1.18,1.38s.68.74,1,1l.81.79a5.83,5.83,0,0,0,1.25.83,7.16,7.16,0,0,0,.77.31l.78.28a1,1,0,0,1,.58.92,1.62,1.62,0,0,1-.38,1.06.81.81,0,0,1-.83.37Z"/><path d="M770.15,402.52a1.92,1.92,0,0,1-1.12-.34c-.33-.24-.68-.46-1-.68a5,5,0,0,1-1.88-1.84,5.49,5.49,0,0,1-.66-2.79,7.93,7.93,0,0,1,.28-1.93c.18-.75.34-1.44.49-2.08a5.91,5.91,0,0,1,.52-1.12,8,8,0,0,1,1-1.4,7.1,7.1,0,0,1,1.37-1.19,2.87,2.87,0,0,1,1.58-.51,1.19,1.19,0,0,1,.67.22,6.27,6.27,0,0,0,1.06.55l1.12.44c.38.15.76.31,1.12.48a4.51,4.51,0,0,1,1,.66,2.28,2.28,0,0,1,.63.81c.14.31.29.62.44.91a2.35,2.35,0,0,1,.22.76c0,.26,0,.52,0,.79v.7a5.46,5.46,0,0,1-.46,2.11,12.3,12.3,0,0,1-1,1.89,10.88,10.88,0,0,1-.77,1.1,9.83,9.83,0,0,1-1.06,1.18,7.58,7.58,0,0,1-1.23.94,2.6,2.6,0,0,1-1.31.38,2.48,2.48,0,0,1-.38,0l-.43,0Zm3.6-8.78a1.66,1.66,0,0,0-.77-1.54,3.13,3.13,0,0,0-1.69-.48,1.63,1.63,0,0,0-1.25.57,5.49,5.49,0,0,0-.88,1.4,7.81,7.81,0,0,0-.53,1.76,9.71,9.71,0,0,0-.17,1.64,5.6,5.6,0,0,0,.06.59,4.52,4.52,0,0,0,.2.91,2.93,2.93,0,0,0,.42.85.88.88,0,0,0,.72.37,2.11,2.11,0,0,0,.73-.13c.23-.09.47-.19.74-.32a3.57,3.57,0,0,0,1-1,5.86,5.86,0,0,0,.71-1.36,9.46,9.46,0,0,0,.45-1.54c.1-.54.18-1.05.23-1.54Z"/><path d="M782.65,397.09a3.9,3.9,0,0,0,.82-1.33c.21-.53.41-1.05.61-1.54l.07-.22a15.84,15.84,0,0,1,.66-1.45,11.68,11.68,0,0,1,1-1.65,6.93,6.93,0,0,1,1.29-1.35,2.32,2.32,0,0,1,1.43-.55,1.82,1.82,0,0,1,.94.59,3,3,0,0,1,.48.9c.11.33.2.68.29,1a5.47,5.47,0,0,0,.35,1,10.46,10.46,0,0,1,.72,2.28c.15.81.29,1.63.4,2.46s.24,1.65.38,2.46a10.1,10.1,0,0,0,.67,2.24,1.08,1.08,0,0,1-.65.87,2.39,2.39,0,0,1-1,.27,1.21,1.21,0,0,1-1-.49,3.94,3.94,0,0,1-.57-1.22,9.94,9.94,0,0,1-.29-1.48,7.88,7.88,0,0,0-.24-1.29,10,10,0,0,1-.29-1.41c-.08-.53-.16-1.06-.26-1.6a14.62,14.62,0,0,0-.35-1.51,3.05,3.05,0,0,0-.57-1.14,15.92,15.92,0,0,0-1,1.86c-.26.57-.49,1.12-.7,1.65s-.41,1-.6,1.54a11.25,11.25,0,0,1-.74,1.53,11.11,11.11,0,0,1-1.06,1.65,4.46,4.46,0,0,1-.89.87,1.89,1.89,0,0,1-.77.33,5.6,5.6,0,0,1-.69.05,1.64,1.64,0,0,1-.9-.37,1,1,0,0,1-.54-.88c0-1.54,0-3,0-4.3s0-2.72,0-4.19c0-.41,0-.83,0-1.26s0-.85,0-1.27a2.34,2.34,0,0,1,.16-.86,1,1,0,0,1,.57-.61l.44,0,.41,0a1,1,0,0,1,.75.28,1.6,1.6,0,0,1,.4.68,3.91,3.91,0,0,1,.17.84c0,.3,0,.54,0,.74a3.18,3.18,0,0,0,.1.77,3.25,3.25,0,0,1,.09.77c0,.91,0,1.68,0,2.32s0,1.25,0,1.83Z"/><path d="M796.53,378.94a4.79,4.79,0,0,1,.11-1l.48-.24a1.08,1.08,0,0,1,.48-.09,2,2,0,0,1,1,.22,1.65,1.65,0,0,1,.59.55,2.23,2.23,0,0,1,.27.75,4.85,4.85,0,0,1,.08.83c0,.52,0,1,0,1.34s0,.76,0,1.12,0,.78,0,1.16,0,.77,0,1.16,0,.55,0,.84,0,.6,0,.92a2.63,2.63,0,0,0,0,.41c0,.12.14.18.34.18a4.15,4.15,0,0,0,1.67-.31,4.08,4.08,0,0,1,1.67-.32.71.71,0,0,1,.7.41,2,2,0,0,1,.18.81,1.14,1.14,0,0,1-.22.75,1.42,1.42,0,0,1-.55.42,3.8,3.8,0,0,1-.72.24l-.75.2a5.91,5.91,0,0,1-.79.28,6.17,6.17,0,0,0-.86.31,2.18,2.18,0,0,0-.7.48,1,1,0,0,0-.3.73c0,.18,0,.34,0,.48s0,.3,0,.44,0,.3,0,.46,0,.33,0,.5a25.6,25.6,0,0,0,.24,3.43c.16,1.19.34,2.34.53,3.44.08.34.16.69.26,1a3.4,3.4,0,0,1,.15.95,1.16,1.16,0,0,1-.33.92,1.87,1.87,0,0,1-.74.41,3,3,0,0,1-.44.07,1.44,1.44,0,0,1-.93-.35,2.87,2.87,0,0,1-.72-.86,7.45,7.45,0,0,1-.31-1.4c-.09-.59-.14-1.13-.17-1.62-.07-1.2-.12-2.39-.15-3.58s0-2.38-.07-3.58a2.46,2.46,0,0,0,0-.28.85.85,0,0,0-.09-.27,3.67,3.67,0,0,0-1.1.33,2.26,2.26,0,0,1-1,.22,1.76,1.76,0,0,1-1.25-.48c-.34-.32-.6-.57-.77-.77a3.9,3.9,0,0,1,.18-1,5.29,5.29,0,0,1,.88-.26l.79-.14c.26-.05.52-.11.79-.19a4.15,4.15,0,0,0,.89-.36c.39,0,.61-.16.68-.46a4.24,4.24,0,0,0,.09-.79c0-.44,0-.82,0-1.12s0-.74,0-1.31c0-.37,0-.74,0-1.12s0-.75,0-1.12Z"/><path d="M810,401.42a1.42,1.42,0,0,1-.14.59,3,3,0,0,1-.56.7,5.91,5.91,0,0,1-1.15-.11,2.08,2.08,0,0,1-.92-.44,2.18,2.18,0,0,1-.61-1,5.4,5.4,0,0,1-.22-1.69,6,6,0,0,0-.13-1.25,6.55,6.55,0,0,1-.13-1.25,27,27,0,0,0-.22-3.56,29,29,0,0,1-.22-3.56,1.31,1.31,0,0,1,.63-1.18,7.08,7.08,0,0,1,.7-.17l.73-.12a1.54,1.54,0,0,1,.77.42l.48.53c0,.25,0,.49,0,.74s0,.5,0,.77c0,.93.05,1.92.14,3s.21,2.06.33,3,.24,1.82.35,2.61.19,1.38.24,1.8Zm-3.23-20.68a.88.88,0,0,1,.66-.19,2.52,2.52,0,0,1,.75.13,2.73,2.73,0,0,1,.72.37,2.22,2.22,0,0,1,.53.53,1.28,1.28,0,0,1-.14,1.56,1.73,1.73,0,0,1-1,.24,2.65,2.65,0,0,1-.82-.13,3.54,3.54,0,0,1-.76-.31,2.34,2.34,0,0,1-.53-.38.57.57,0,0,1-.2-.39,3,3,0,0,1,.09-.77C806.13,381.18,806.36,381,806.75,380.74Z"/><path d="M816.23,397.09a3.75,3.75,0,0,0,.82-1.33c.21-.53.41-1.05.61-1.54l.07-.22a13.87,13.87,0,0,1,.67-1.45,10.11,10.11,0,0,1,1-1.65,7.2,7.2,0,0,1,1.28-1.35,2.34,2.34,0,0,1,1.43-.55,1.82,1.82,0,0,1,.94.59,3,3,0,0,1,.48.9c.11.33.21.68.29,1a5.47,5.47,0,0,0,.35,1,10.46,10.46,0,0,1,.72,2.28c.16.81.29,1.63.4,2.46s.24,1.65.39,2.46a10.65,10.65,0,0,0,.66,2.24,1.07,1.07,0,0,1-.64.87,2.43,2.43,0,0,1-1,.27,1.19,1.19,0,0,1-1-.49,3.53,3.53,0,0,1-.57-1.22,8.82,8.82,0,0,1-.3-1.48,7.88,7.88,0,0,0-.24-1.29,10,10,0,0,1-.29-1.41c-.07-.53-.16-1.06-.26-1.6a12.42,12.42,0,0,0-.35-1.51,3.05,3.05,0,0,0-.57-1.14,15.92,15.92,0,0,0-1,1.86c-.25.57-.49,1.12-.69,1.65L818.8,398a12.46,12.46,0,0,1-.73,1.53A11.9,11.9,0,0,1,817,401.2a4.73,4.73,0,0,1-.88.87,2,2,0,0,1-.77.33,5.91,5.91,0,0,1-.7.05,1.64,1.64,0,0,1-.9-.37,1,1,0,0,1-.54-.88c0-1.54,0-3,0-4.3s0-2.72,0-4.19c0-.41,0-.83,0-1.26s0-.85,0-1.27a2.34,2.34,0,0,1,.16-.86,1,1,0,0,1,.57-.61l.44,0,.41,0a1,1,0,0,1,.75.28,1.72,1.72,0,0,1,.41.68,3.9,3.9,0,0,1,.16.84c0,.3,0,.54,0,.74a3.19,3.19,0,0,0,.09.77,3.25,3.25,0,0,1,.09.77c0,.91,0,1.68,0,2.32s0,1.25,0,1.83Z"/><path d="M828.61,392c0-.66,0-1.3.07-1.91a7.78,7.78,0,0,1,.37-1.8.44.44,0,0,1,.2-.17,2.4,2.4,0,0,1,.39-.17l.24-.07.31-.07a2.9,2.9,0,0,1,1.18.44,1.17,1.17,0,0,1,.58,1.06,4.13,4.13,0,0,1-.11,1.05,5,5,0,0,0-.11,1.09,11.54,11.54,0,0,1-.09,1.65,7.29,7.29,0,0,0-.09,1.1c0,1.18,0,2.26.11,3.25s.13,1.75.18,2.26a2.22,2.22,0,0,0,1.31-1,15.28,15.28,0,0,0,1.41-2.26,27.5,27.5,0,0,0,1.29-2.79c.39-1,.71-1.85.95-2.61a2.87,2.87,0,0,0,.13-.95,3,3,0,0,1,.09-.87,1.18,1.18,0,0,1,.5-.64,2.46,2.46,0,0,1,1.3-.26l.08,0,.07,0a1.29,1.29,0,0,1,.7.29,2.34,2.34,0,0,1,.59.59c0,1.45,0,2.58-.13,3.4a19.56,19.56,0,0,0-.13,2.11,16.45,16.45,0,0,0,.24,3,5,5,0,0,0,.79,2c.15.17.28.34.4.5a2.24,2.24,0,0,1,.33.57,1.36,1.36,0,0,1-.23.57,1,1,0,0,1-.39.29,1.89,1.89,0,0,1-.48.13,3.1,3.1,0,0,0-.51.11,2.67,2.67,0,0,1-1.31-.66,3.77,3.77,0,0,1-.81-1.16,6.12,6.12,0,0,1-.45-1.5c-.1-.56-.19-1.13-.26-1.71l-.15.29-.79,1.65a15.6,15.6,0,0,1-1.16,2,8.23,8.23,0,0,1-1.52,1.69,2.91,2.91,0,0,1-1.86.71,3.09,3.09,0,0,1-1.71-.42,2.75,2.75,0,0,1-1-1.38,9.9,9.9,0,0,1-.48-2.46c-.08-1-.12-2.24-.12-3.71a8.91,8.91,0,0,0,.07-1V392Z"/><path d="M847.64,401.42a1.42,1.42,0,0,1-.14.59,3.16,3.16,0,0,1-.55.7,5.94,5.94,0,0,1-1.16-.11,2.08,2.08,0,0,1-.92-.44,2.18,2.18,0,0,1-.61-1,5.4,5.4,0,0,1-.22-1.69,6,6,0,0,0-.13-1.25,6.55,6.55,0,0,1-.13-1.25,27,27,0,0,0-.22-3.56,29,29,0,0,1-.22-3.56,1.31,1.31,0,0,1,.63-1.18,7.08,7.08,0,0,1,.7-.17l.73-.12a1.54,1.54,0,0,1,.77.42l.48.53c0,.25,0,.49,0,.74s0,.5,0,.77c0,.93,0,1.92.14,3s.21,2.06.33,3,.24,1.82.35,2.61.19,1.38.24,1.8Zm-3.23-20.68a.88.88,0,0,1,.66-.19,2.46,2.46,0,0,1,.75.13,2.73,2.73,0,0,1,.72.37,2.22,2.22,0,0,1,.53.53,1.08,1.08,0,0,1,.21.63,1.07,1.07,0,0,1-.35.93,1.73,1.73,0,0,1-1,.24,2.65,2.65,0,0,1-.82-.13,3.54,3.54,0,0,1-.76-.31,2.34,2.34,0,0,1-.53-.38.57.57,0,0,1-.2-.39,3,3,0,0,1,.09-.77C843.79,381.18,844,381,844.41,380.74Z"/><path d="M852.86,378.94a4.79,4.79,0,0,1,.11-1l.48-.24a1.08,1.08,0,0,1,.48-.09,2,2,0,0,1,1,.22,1.62,1.62,0,0,1,.58.55,2,2,0,0,1,.28.75,4.81,4.81,0,0,1,.07.83c0,.52,0,1,0,1.34s0,.76,0,1.12,0,.78,0,1.16,0,.77,0,1.16,0,.55,0,.84,0,.6,0,.92a2.59,2.59,0,0,0,0,.41q0,.18.33.18a4.08,4.08,0,0,0,1.67-.31,4.15,4.15,0,0,1,1.67-.32.69.69,0,0,1,.7.41,1.85,1.85,0,0,1,.19.81,1.2,1.2,0,0,1-.22.75,1.38,1.38,0,0,1-.56.42,4,4,0,0,1-.71.24l-.76.2a6.26,6.26,0,0,1-.78.28,6.83,6.83,0,0,0-.87.31,2.29,2.29,0,0,0-.7.48,1,1,0,0,0-.29.73,3.54,3.54,0,0,0,0,.48c0,.15,0,.3,0,.44s0,.3,0,.46a4.1,4.1,0,0,0,0,.5,25.6,25.6,0,0,0,.24,3.43c.16,1.19.33,2.34.53,3.44.07.34.16.69.26,1a3.36,3.36,0,0,1,.14.95,1.16,1.16,0,0,1-.33.92,1.83,1.83,0,0,1-.73.41,3,3,0,0,1-.44.07,1.46,1.46,0,0,1-.94-.35,3,3,0,0,1-.71-.86,7.35,7.35,0,0,1-.32-1.4c-.08-.59-.14-1.13-.16-1.62-.08-1.2-.13-2.39-.15-3.58s-.05-2.38-.07-3.58a2.46,2.46,0,0,0,0-.28.85.85,0,0,0-.09-.27,3.84,3.84,0,0,0-1.11.33,2.19,2.19,0,0,1-1,.22,1.74,1.74,0,0,1-1.25-.48c-.35-.32-.6-.57-.78-.77a4,4,0,0,1,.19-1,5.29,5.29,0,0,1,.88-.26l.79-.14c.26-.05.52-.11.79-.19a4.09,4.09,0,0,0,.88-.36c.39,0,.62-.16.68-.46a4.24,4.24,0,0,0,.09-.79c0-.44,0-.82,0-1.12s0-.74,0-1.31c0-.37,0-.74,0-1.12s0-.75,0-1.12Z"/><path d="M864.07,395c0,.34,0,.76,0,1.25s.06,1,.13,1.49a8.24,8.24,0,0,0,.32,1.36,1.59,1.59,0,0,0,.57.86,2.54,2.54,0,0,0,1.24-1,8.55,8.55,0,0,0,.89-1.67,17.63,17.63,0,0,0,.62-1.86c.17-.62.32-1.14.44-1.56a15.34,15.34,0,0,0,.15-1.71,17.27,17.27,0,0,1,.16-1.84,5,5,0,0,1,.43-1.45,1,1,0,0,1,.92-.58,2.25,2.25,0,0,1,1.17.33,1.32,1.32,0,0,1,.66.95c-.1,1.4-.16,2.6-.2,3.62s-.05,1.86-.05,2.52c0,.22,0,.51,0,.88s0,.76.06,1.19,0,.87,0,1.33,0,.87,0,1.26a23.77,23.77,0,0,1-.94,7,15.46,15.46,0,0,1-3.14,5.66l-.69.55a5.34,5.34,0,0,1-2,1,5.53,5.53,0,0,1-1.49.18,2,2,0,0,1-.53-.09,2,2,0,0,1-.59-.28,1.55,1.55,0,0,1-.46-.46,1.06,1.06,0,0,1-.18-.6c0-.15.16-.3.48-.46s.69-.34,1.13-.53.89-.42,1.35-.67a4,4,0,0,0,1.12-.88,14,14,0,0,0,2.31-4.5,17.82,17.82,0,0,0,.66-4.94v-.53a2.89,2.89,0,0,1,0-.5.34.34,0,0,0-.18,0,4,4,0,0,1-.63,1,7.5,7.5,0,0,1-.9.88,4.86,4.86,0,0,1-1,.64,2.26,2.26,0,0,1-.95.24,2.79,2.79,0,0,1-2.17-.88A5.9,5.9,0,0,1,861.7,400a11.44,11.44,0,0,1-.55-2.61c-.09-.91-.13-1.68-.13-2.32a3.31,3.31,0,0,1,0-.44c0-.15,0-.29,0-.44,0-.42,0-.81,0-1.19s0-.78,0-1.2,0-.63,0-1a4.69,4.69,0,0,1,.18-1.08,3,3,0,0,1,.39-.86.72.72,0,0,1,.64-.35,1.79,1.79,0,0,1,1.21.33,1.47,1.47,0,0,1,.48.82,5.29,5.29,0,0,1,.11,1.09,4.93,4.93,0,0,0,.11,1.06c0,.35,0,.78-.06,1.31s0,.95,0,1.26Z"/><path d="M231.36,388.92a9.71,9.71,0,0,1-3.05-1.27,18,18,0,0,1-2.75-2.11,16.08,16.08,0,0,1-2.13-2.41,8,8,0,0,1-1.18-2.15,15.83,15.83,0,0,1-.74-3.55c-.09-1.16-.14-2.15-.14-2.95a13.57,13.57,0,0,1,.93-5.29,12.33,12.33,0,0,1,2.12-3.5,15.56,15.56,0,0,1,3.34-2.9,5.55,5.55,0,0,1,2.72-.92,3,3,0,0,1,1.87.63c.17.1.26.37.26.81a1.76,1.76,0,0,1-.26.93,1.28,1.28,0,0,1-.91.57,15.15,15.15,0,0,0-1.71.41,5.89,5.89,0,0,0-2,1.28,8.7,8.7,0,0,0-1.23,1.36,9.37,9.37,0,0,0-1.09,1.91,13.37,13.37,0,0,0-.77,2.52,15.18,15.18,0,0,0-.29,3.14,12.57,12.57,0,0,0,2.05,6.54c.42.52.81,1,1.18,1.38s.69.74,1,1,.53.53.8.79a5.83,5.83,0,0,0,1.25.83c.2.09.46.2.77.31l.78.27a1,1,0,0,1,.58.92,1.63,1.63,0,0,1-.38,1.07.8.8,0,0,1-.83.37Z"/><path d="M237.42,384.21a1.86,1.86,0,0,1-1.12-.35c-.33-.23-.68-.45-1-.67a5,5,0,0,1-1.88-1.84,5.5,5.5,0,0,1-.66-2.8,7.92,7.92,0,0,1,.28-1.92c.18-.75.35-1.44.49-2.08a5.91,5.91,0,0,1,.52-1.12,8,8,0,0,1,1-1.4,7.1,7.1,0,0,1,1.37-1.19,2.89,2.89,0,0,1,1.59-.52,1.24,1.24,0,0,1,.66.22,5.67,5.67,0,0,0,1.06.56l1.12.44c.38.14.76.3,1.12.47a4.92,4.92,0,0,1,1,.67,2.33,2.33,0,0,1,.63.8c.14.32.29.63.44.92a2.35,2.35,0,0,1,.22.76c0,.25,0,.52,0,.79v.69a5.91,5.91,0,0,1-.46,2.12,14.32,14.32,0,0,1-1,1.89,13.15,13.15,0,0,1-.78,1.1,9,9,0,0,1-1.06,1.18,7.1,7.1,0,0,1-1.23.93,2.51,2.51,0,0,1-1.31.39l-.38,0-.43,0Zm3.61-8.78a1.67,1.67,0,0,0-.78-1.54,3.11,3.11,0,0,0-1.69-.48,1.63,1.63,0,0,0-1.25.57,5.49,5.49,0,0,0-.88,1.4,7.81,7.81,0,0,0-.53,1.76,9.61,9.61,0,0,0-.17,1.64,5.5,5.5,0,0,0,.06.58,5.44,5.44,0,0,0,.2.92,2.93,2.93,0,0,0,.42.85.88.88,0,0,0,.72.36,2.11,2.11,0,0,0,.73-.12c.23-.09.47-.19.74-.32a3.57,3.57,0,0,0,1-1,6.3,6.3,0,0,0,.72-1.36,10.56,10.56,0,0,0,.44-1.54c.11-.54.19-1.05.24-1.54Z"/><path d="M266,374.29a14.5,14.5,0,0,0,.26,2.78c.17.87.32,1.79.44,2.77a5,5,0,0,0,.42,1.51,3.75,3.75,0,0,1,.35,1.54,1.66,1.66,0,0,1-.5,1.29,1.75,1.75,0,0,1-1.19.44,1.32,1.32,0,0,1-1.19-.72,5.25,5.25,0,0,1-.63-1.65,15.49,15.49,0,0,1-.28-1.84,6.7,6.7,0,0,0-.18-1.27,5,5,0,0,1-.29-1.19c-.05-.41-.09-.8-.13-1.2s-.07-.78-.11-1.17a6.81,6.81,0,0,0-.24-1.21l-.72,1.34-.77,1.47-.75,1.47c-.25.47-.46.91-.63,1.3a9.12,9.12,0,0,0-.46,1.2c-.11.38-.21.75-.31,1.12s-.21.73-.33,1.1a7.17,7.17,0,0,1-.51,1.17,2.11,2.11,0,0,1-1,.22,1.28,1.28,0,0,1-1.08-.51,3.5,3.5,0,0,1-.59-1.29,11.48,11.48,0,0,1-.29-1.61c-.07-.57-.13-1.07-.21-1.51s-.11-1-.2-1.51a14.47,14.47,0,0,0-.33-1.59c-.13-.53-.28-1-.44-1.49a5.09,5.09,0,0,0-.53-1.14,3.3,3.3,0,0,0-.9,1.14,16.11,16.11,0,0,0-.7,1.52,15,15,0,0,0-.53,1.55c-.15.5-.29.9-.41,1.19a5.49,5.49,0,0,0-.64,1.71c-.11.57-.23,1.1-.37,1.58a2.73,2.73,0,0,1-.62,1.17,1.85,1.85,0,0,1-1.42.46.94.94,0,0,1-.57-.2,2,2,0,0,1-.46-.49,3,3,0,0,1-.29-.63,2.08,2.08,0,0,1-.11-.62,4.67,4.67,0,0,0,.09-.74c0-.24,0-.5,0-.77,0-.07,0-.26,0-.55s.05-.61.07-.94,0-.64.07-.94,0-.47,0-.55c0-1.37,0-2.35,0-2.95s-.05-1-.07-1.23a.79.79,0,0,0-.07-.35s0-.12,0-.32a2.22,2.22,0,0,0-.13-.77,2.19,2.19,0,0,1-.13-.77,1.12,1.12,0,0,1,.44-.88,1.47,1.47,0,0,1,1-.37,1.5,1.5,0,0,1,1,.33,2,2,0,0,1,.53.83,4.06,4.06,0,0,1,.2,1.06c0,.38,0,.72,0,1a8,8,0,0,1-.06.92c0,.35,0,.66,0,1a3.06,3.06,0,0,0,.07.59c.15-.32.31-.68.5-1.07s.38-.79.59-1.19.42-.79.64-1.16a8,8,0,0,1,.66-1c.29-.36.64-.75,1-1.15a1.78,1.78,0,0,1,1.32-.61,1.87,1.87,0,0,1,1.25.37,2.12,2.12,0,0,1,.66.92,5.26,5.26,0,0,1,.32,1.23c.06.45.14.87.23,1.27.22.71.43,1.5.61,2.38s.36,1.68.53,2.39c.05-.17.13-.4.24-.68l.35-.88c.12-.31.25-.59.37-.85l.29-.6c.22-.47.47-1,.76-1.53a9.18,9.18,0,0,1,1-1.54,5.92,5.92,0,0,1,1.32-1.23,3.51,3.51,0,0,1,1.75-.59,5.75,5.75,0,0,0,.8.35,1.5,1.5,0,0,1,.63.41,1.9,1.9,0,0,1,.4.82,6.41,6.41,0,0,1,.15,1.58Z"/><path d="M289.56,374.29a14.5,14.5,0,0,0,.26,2.78c.17.87.32,1.79.44,2.77a5,5,0,0,0,.42,1.51,3.75,3.75,0,0,1,.35,1.54,1.65,1.65,0,0,1-.49,1.29,1.78,1.78,0,0,1-1.2.44,1.32,1.32,0,0,1-1.19-.72,5.5,5.5,0,0,1-.63-1.65,15.42,15.42,0,0,1-.27-1.84,6.5,6.5,0,0,0-.19-1.27,5.58,5.58,0,0,1-.29-1.19c0-.41-.09-.8-.13-1.2s-.07-.78-.11-1.17a6.81,6.81,0,0,0-.24-1.21l-.72,1.34-.77,1.47-.75,1.47c-.25.47-.45.91-.62,1.3a7.9,7.9,0,0,0-.46,1.2c-.11.38-.22.75-.32,1.12s-.2.73-.33,1.1a7.17,7.17,0,0,1-.51,1.17,2.08,2.08,0,0,1-1,.22,1.28,1.28,0,0,1-1.08-.51,3.67,3.67,0,0,1-.59-1.29,11.48,11.48,0,0,1-.29-1.61c-.06-.57-.13-1.07-.2-1.51s-.12-1-.21-1.51a14.47,14.47,0,0,0-.33-1.59c-.13-.53-.28-1-.44-1.49a5.09,5.09,0,0,0-.53-1.14,3.56,3.56,0,0,0-.9,1.14,16.11,16.11,0,0,0-.7,1.52,15,15,0,0,0-.53,1.55,10.52,10.52,0,0,1-.41,1.19,5.49,5.49,0,0,0-.64,1.71c-.11.57-.23,1.1-.37,1.58A2.73,2.73,0,0,1,273,384a1.84,1.84,0,0,1-1.42.46.94.94,0,0,1-.57-.2,1.76,1.76,0,0,1-.45-.49,2.6,2.6,0,0,1-.3-.63,2.08,2.08,0,0,1-.11-.62,4.67,4.67,0,0,0,.09-.74c0-.24,0-.5,0-.77,0-.07,0-.26,0-.55s.05-.61.07-.94.05-.64.08-.94,0-.47,0-.55c0-1.37,0-2.35,0-2.95s0-1-.08-1.23a.79.79,0,0,0-.07-.35s0-.12,0-.32a2.22,2.22,0,0,0-.13-.77,2.44,2.44,0,0,1-.13-.77,1.1,1.1,0,0,1,.45-.88,1.43,1.43,0,0,1,1-.37,1.5,1.5,0,0,1,1,.33,2,2,0,0,1,.53.83,4.06,4.06,0,0,1,.2,1.06c0,.38,0,.72,0,1s0,.58,0,.92a8.37,8.37,0,0,0-.06,1,3.06,3.06,0,0,0,.07.59l.5-1.07c.18-.39.38-.79.59-1.19s.42-.79.64-1.16a8,8,0,0,1,.66-1c.3-.36.64-.75,1-1.15a1.78,1.78,0,0,1,1.32-.61,1.87,1.87,0,0,1,1.25.37,2.12,2.12,0,0,1,.66.92,4.81,4.81,0,0,1,.32,1.23,11.46,11.46,0,0,0,.24,1.27c.22.71.42,1.5.6,2.38s.36,1.68.53,2.39c.05-.17.13-.4.24-.68l.35-.88c.13-.31.25-.59.37-.85l.29-.6c.22-.47.48-1,.76-1.53a9.18,9.18,0,0,1,1-1.54,5.92,5.92,0,0,1,1.32-1.23,3.55,3.55,0,0,1,1.75-.59,5.36,5.36,0,0,0,.81.35,1.53,1.53,0,0,1,.62.41,1.8,1.8,0,0,1,.4.82,6.41,6.41,0,0,1,.15,1.58Z"/><path d="M297.79,383.11a1.29,1.29,0,0,1-.15.59,2.65,2.65,0,0,1-.55.7,5.91,5.91,0,0,1-1.15-.11,2,2,0,0,1-.92-.44,2.18,2.18,0,0,1-.61-1,5.16,5.16,0,0,1-.22-1.69,5.9,5.9,0,0,0-.13-1.25,6.55,6.55,0,0,1-.13-1.25,26.9,26.9,0,0,0-.22-3.56,29,29,0,0,1-.22-3.57,1.31,1.31,0,0,1,.63-1.17,5.07,5.07,0,0,1,.7-.17l.73-.13a1.62,1.62,0,0,1,.77.43l.48.53-.06.73c0,.25,0,.51,0,.78,0,.93,0,1.92.14,3s.21,2.06.33,3,.24,1.83.35,2.61.19,1.39.24,1.8Zm-3.23-20.69a.93.93,0,0,1,.66-.18,2.24,2.24,0,0,1,.75.13,2.73,2.73,0,0,1,.72.37,2.05,2.05,0,0,1,.53.53,1,1,0,0,1,.2.62,1.07,1.07,0,0,1-.34.94,1.73,1.73,0,0,1-1,.24,2.76,2.76,0,0,1-.83-.13,3.67,3.67,0,0,1-.75-.31,2.08,2.08,0,0,1-.53-.39.53.53,0,0,1-.2-.38,2.91,2.91,0,0,1,.09-.77C293.94,362.87,294.17,362.65,294.56,362.42Z"/><path d="M303,360.62a4.78,4.78,0,0,1,.11-.95l.48-.24a1.08,1.08,0,0,1,.48-.09,2,2,0,0,1,1,.22,1.62,1.62,0,0,1,.58.55,2,2,0,0,1,.28.75,4.81,4.81,0,0,1,.07.83c0,.51,0,1,0,1.34s0,.75,0,1.12,0,.78,0,1.16,0,.76,0,1.16,0,.55,0,.84,0,.6,0,.92a1.64,1.64,0,0,0,0,.4c0,.13.13.19.33.19a4.29,4.29,0,0,0,1.67-.31,4.15,4.15,0,0,1,1.67-.32.69.69,0,0,1,.7.41,2,2,0,0,1,.19.81,1.22,1.22,0,0,1-.22.75,1.56,1.56,0,0,1-.56.42,4,4,0,0,1-.71.24l-.76.2a5.91,5.91,0,0,1-.79.28,5.84,5.84,0,0,0-.86.31,2.29,2.29,0,0,0-.7.48,1,1,0,0,0-.29.73,3.7,3.7,0,0,0,0,.48c0,.15,0,.29,0,.44s0,.3,0,.46a4.1,4.1,0,0,0,0,.5,25.6,25.6,0,0,0,.24,3.43c.16,1.19.33,2.34.53,3.44.07.34.16.68.26,1a3.36,3.36,0,0,1,.14.95,1.17,1.17,0,0,1-.33.92,1.7,1.7,0,0,1-.73.4l-.44.08a1.44,1.44,0,0,1-.94-.35,3.2,3.2,0,0,1-.72-.86,8.34,8.34,0,0,1-.31-1.4c-.08-.59-.14-1.13-.16-1.62-.08-1.2-.13-2.39-.15-3.58s-.05-2.38-.07-3.58a2.46,2.46,0,0,0,0-.28,1.07,1.07,0,0,0-.09-.27,3.74,3.74,0,0,0-1.11.33,2.34,2.34,0,0,1-1,.22,1.74,1.74,0,0,1-1.24-.48,9.56,9.56,0,0,1-.78-.77,3.6,3.6,0,0,1,.19-1,5.29,5.29,0,0,1,.88-.26l.79-.14c.26-.05.52-.11.79-.19a3.7,3.7,0,0,0,.88-.37c.39,0,.62-.15.68-.45a4.24,4.24,0,0,0,.09-.79c0-.45,0-.82,0-1.13s0-.74,0-1.3c0-.37,0-.74,0-1.12s0-.75,0-1.12Z"/><path d="M331,374.29a14.5,14.5,0,0,0,.26,2.78c.17.87.32,1.79.44,2.77a5,5,0,0,0,.42,1.51,3.59,3.59,0,0,1,.35,1.54,1.65,1.65,0,0,1-.49,1.29,1.76,1.76,0,0,1-1.2.44,1.32,1.32,0,0,1-1.19-.72,5.49,5.49,0,0,1-.62-1.65,13.68,13.68,0,0,1-.28-1.84,7.65,7.65,0,0,0-.18-1.27,5.07,5.07,0,0,1-.3-1.19c-.05-.41-.09-.8-.13-1.2s-.07-.78-.11-1.17a5.4,5.4,0,0,0-.24-1.21l-.71,1.34c-.26.48-.52,1-.77,1.47l-.76,1.47c-.24.47-.45.91-.62,1.3a7.9,7.9,0,0,0-.46,1.2c-.11.38-.22.75-.31,1.12s-.21.73-.33,1.1a8.28,8.28,0,0,1-.52,1.17,2,2,0,0,1-1,.22,1.29,1.29,0,0,1-1.09-.51,3.85,3.85,0,0,1-.59-1.29,11.48,11.48,0,0,1-.29-1.61c-.06-.57-.13-1.07-.2-1.51s-.12-1-.2-1.51-.2-1.07-.33-1.59-.29-1-.45-1.49a4.68,4.68,0,0,0-.53-1.14,3.56,3.56,0,0,0-.9,1.14,16.11,16.11,0,0,0-.7,1.52c-.2.53-.38,1-.53,1.55s-.28.9-.4,1.19a5.52,5.52,0,0,0-.65,1.71c-.11.57-.23,1.1-.36,1.58a2.85,2.85,0,0,1-.63,1.17,1.83,1.83,0,0,1-1.41.46.9.9,0,0,1-.57-.2,1.65,1.65,0,0,1-.46-.49,3.64,3.64,0,0,1-.3-.63,2.08,2.08,0,0,1-.11-.62,6.26,6.26,0,0,0,.1-.74c0-.24,0-.5,0-.77,0-.07,0-.26,0-.55s0-.61.07-.94.05-.64.08-.94,0-.47,0-.55c0-1.37,0-2.35,0-2.95s-.05-1-.08-1.23,0-.34-.07-.35a.7.7,0,0,1,0-.32,2.48,2.48,0,0,0-.12-.77,2.19,2.19,0,0,1-.13-.77,1.09,1.09,0,0,1,.44-.88,1.43,1.43,0,0,1,.95-.37,1.48,1.48,0,0,1,1,.33,1.86,1.86,0,0,1,.53.83,4.53,4.53,0,0,1,.21,1.06c0,.38,0,.72,0,1a7.81,7.81,0,0,1-.05.92,8.37,8.37,0,0,0-.06,1,3.22,3.22,0,0,0,.08.59c.14-.32.31-.68.49-1.07s.38-.79.59-1.19.42-.79.64-1.16a8,8,0,0,1,.66-1c.3-.36.64-.75,1-1.15a1.81,1.81,0,0,1,1.33-.61,1.88,1.88,0,0,1,1.25.37,2.29,2.29,0,0,1,.66.92,5.27,5.27,0,0,1,.31,1.23,11.46,11.46,0,0,0,.24,1.27c.22.71.42,1.5.6,2.38s.37,1.68.54,2.39c.05-.17.13-.4.24-.68s.22-.57.35-.88.24-.59.36-.85l.3-.6q.33-.71.75-1.53a9.18,9.18,0,0,1,1-1.54,5.92,5.92,0,0,1,1.32-1.23,3.58,3.58,0,0,1,1.75-.59,5.36,5.36,0,0,0,.81.35,1.53,1.53,0,0,1,.62.41,1.9,1.9,0,0,1,.41.82,7,7,0,0,1,.14,1.58Z"/><path d="M334.83,377.89a10.71,10.71,0,0,1,.35-2.73,8.24,8.24,0,0,1,1.05-2.48,5.89,5.89,0,0,1,1.72-1.79,4.64,4.64,0,0,1,4.06-.38,3.65,3.65,0,0,1,1.2.77,3.32,3.32,0,0,1,.71,1.08,3.45,3.45,0,0,1,.24,1.27,4.38,4.38,0,0,1-.31,1.64,4.58,4.58,0,0,1-.9,1.41,4.49,4.49,0,0,1-1.45,1,5.09,5.09,0,0,1-2,.42,2.85,2.85,0,0,1-.84,0,8.29,8.29,0,0,1-.85-.22,1.89,1.89,0,0,0,0,.31v.2a4.84,4.84,0,0,0,.44,2.13,3.6,3.6,0,0,0,.88,1.16,2.47,2.47,0,0,0,.92.5,3.43,3.43,0,0,0,.58.11,3.35,3.35,0,0,0,1.9-.52l1.67-1.14.4.17a1,1,0,0,1,.41.35c0,.14.05.26.07.35a1.62,1.62,0,0,1,0,.38,1.79,1.79,0,0,1-.28.87,3.44,3.44,0,0,1-.53.6,5.06,5.06,0,0,1-1.78,1.05,7.92,7.92,0,0,1-2.15.24,5.3,5.3,0,0,1-1.45-.26,9.83,9.83,0,0,1-1.46-.55,7,7,0,0,1-1.37-1.32,5.87,5.87,0,0,1-.78-1.4,6.6,6.6,0,0,1-.36-1.52C334.9,379,334.85,378.48,334.83,377.89Zm3.2-2a3,3,0,0,0,.45,0,5,5,0,0,0,.5,0,2.73,2.73,0,0,0,1.93-.62,2,2,0,0,0,.68-1.51,1.71,1.71,0,0,0-.29-1,.92.92,0,0,0-.81-.44,3.38,3.38,0,0,0-.72.07.78.78,0,0,0-.53.37q-.15.18-.33.36a2,2,0,0,0-.35.52,4.29,4.29,0,0,0-.31.83A6.09,6.09,0,0,0,338,375.91Z"/><path d="M350.37,378.78a3.92,3.92,0,0,0,.83-1.33l.6-1.54.08-.22a11.78,11.78,0,0,1,.66-1.45,11.45,11.45,0,0,1,1-1.66,7.45,7.45,0,0,1,1.28-1.34,2.36,2.36,0,0,1,1.44-.55,1.73,1.73,0,0,1,.93.59,3,3,0,0,1,.48.9c.11.33.21.67.3,1a5.71,5.71,0,0,0,.34,1,10.46,10.46,0,0,1,.72,2.28c.16.81.29,1.63.4,2.46s.24,1.65.39,2.46a10.65,10.65,0,0,0,.66,2.24,1.08,1.08,0,0,1-.64.87,2.43,2.43,0,0,1-1,.27,1.2,1.2,0,0,1-1-.49,3.62,3.62,0,0,1-.57-1.22,9.83,9.83,0,0,1-.29-1.49,9.23,9.23,0,0,0-.24-1.28,9.79,9.79,0,0,1-.3-1.42c-.07-.52-.16-1.06-.25-1.59s-.22-1.05-.35-1.51a3.2,3.2,0,0,0-.57-1.14,13.41,13.41,0,0,0-1,1.86c-.26.57-.49,1.12-.7,1.65l-.61,1.54a11.16,11.16,0,0,1-.73,1.53,11,11,0,0,1-1.07,1.65,4.35,4.35,0,0,1-.88.86,1.74,1.74,0,0,1-.77.33,4.41,4.41,0,0,1-.7.06,1.69,1.69,0,0,1-.9-.37,1.06,1.06,0,0,1-.53-.88c0-1.54,0-3,0-4.3s0-2.72,0-4.19c0-.41,0-.84,0-1.26s0-.86,0-1.27a2.4,2.4,0,0,1,.17-.87,1.05,1.05,0,0,1,.57-.6l.44,0,.4,0a1,1,0,0,1,.75.28,1.61,1.61,0,0,1,.41.68,3.9,3.9,0,0,1,.16.84,7.38,7.38,0,0,1,0,.74,3.25,3.25,0,0,0,.09.77,3.19,3.19,0,0,1,.09.77q0,1.37,0,2.31c0,.64,0,1.25,0,1.84Z"/><path d="M364.26,360.62a4.78,4.78,0,0,1,.11-.95l.48-.24a1.08,1.08,0,0,1,.48-.09,2,2,0,0,1,1,.22,1.62,1.62,0,0,1,.58.55,2,2,0,0,1,.28.75,4.81,4.81,0,0,1,.07.83c0,.51,0,1,0,1.34s0,.75,0,1.12,0,.78,0,1.16,0,.76,0,1.16,0,.55,0,.84,0,.6,0,.92a1.64,1.64,0,0,0,0,.4c0,.13.13.19.33.19a4.29,4.29,0,0,0,1.67-.31,4.15,4.15,0,0,1,1.67-.32.69.69,0,0,1,.7.41,2,2,0,0,1,.19.81,1.22,1.22,0,0,1-.22.75,1.56,1.56,0,0,1-.56.42,4,4,0,0,1-.71.24l-.76.2a5.91,5.91,0,0,1-.79.28,5.84,5.84,0,0,0-.86.31,2.29,2.29,0,0,0-.7.48,1,1,0,0,0-.29.73,3.7,3.7,0,0,0,0,.48c0,.15,0,.29,0,.44s0,.3,0,.46a4.1,4.1,0,0,0,0,.5,25.6,25.6,0,0,0,.24,3.43c.16,1.19.33,2.34.53,3.44.07.34.16.68.26,1a3.36,3.36,0,0,1,.14.95,1.17,1.17,0,0,1-.33.92,1.7,1.7,0,0,1-.73.4l-.44.08a1.44,1.44,0,0,1-.94-.35,3.2,3.2,0,0,1-.72-.86,8.34,8.34,0,0,1-.31-1.4c-.08-.59-.14-1.13-.16-1.62-.08-1.2-.13-2.39-.15-3.58s-.05-2.38-.07-3.58a2.46,2.46,0,0,0,0-.28.78.78,0,0,0-.09-.27,3.84,3.84,0,0,0-1.11.33,2.32,2.32,0,0,1-1,.22,1.74,1.74,0,0,1-1.25-.48c-.35-.32-.6-.57-.78-.77a3.6,3.6,0,0,1,.19-1,5.29,5.29,0,0,1,.88-.26l.79-.14c.26-.05.52-.11.79-.19a3.7,3.7,0,0,0,.88-.37c.39,0,.62-.15.68-.45a4.24,4.24,0,0,0,.09-.79c0-.45,0-.82,0-1.13s0-.74,0-1.3c0-.37,0-.74,0-1.12s0-.75,0-1.12Z"/><path d="M159,224.4a9.48,9.48,0,0,1-3.05-1.27,16.85,16.85,0,0,1-2.75-2.11,15.55,15.55,0,0,1-2.13-2.4,8.42,8.42,0,0,1-1.18-2.15,15.37,15.37,0,0,1-.73-3.55c-.1-1.16-.15-2.15-.15-3a13.38,13.38,0,0,1,.94-5.29,12,12,0,0,1,2.11-3.49,15.28,15.28,0,0,1,3.34-2.9,5.55,5.55,0,0,1,2.72-.92A3.09,3.09,0,0,1,160,198c.18.1.26.37.26.81a1.69,1.69,0,0,1-.26.94,1.34,1.34,0,0,1-.91.57,15.09,15.09,0,0,0-1.71.4,5.79,5.79,0,0,0-2,1.29,8.7,8.7,0,0,0-1.23,1.36,9.11,9.11,0,0,0-1.09,1.91,12.93,12.93,0,0,0-.77,2.52,15.9,15.9,0,0,0-.29,3.14,12.62,12.62,0,0,0,2.05,6.54c.42.51.81,1,1.18,1.38s.69.74,1,1l.8.79a5.85,5.85,0,0,0,1.25.82,6.64,6.64,0,0,0,.78.31l.77.28a1,1,0,0,1,.58.92A1.61,1.61,0,0,1,160,224a.79.79,0,0,1-.83.37Z"/><path d="M165.08,219.7a2,2,0,0,1-1.12-.35c-.33-.23-.68-.46-1-.68a5,5,0,0,1-1.88-1.84,5.49,5.49,0,0,1-.66-2.79,8,8,0,0,1,.28-1.93c.18-.75.35-1.44.49-2.07a5.94,5.94,0,0,1,.52-1.13,7.89,7.89,0,0,1,1-1.39,7.26,7.26,0,0,1,1.38-1.2,2.82,2.82,0,0,1,1.58-.51,1.16,1.16,0,0,1,.66.22,6.68,6.68,0,0,0,1.06.55l1.12.44c.38.15.76.31,1.12.48a4.51,4.51,0,0,1,1,.66,2.28,2.28,0,0,1,.63.81c.14.32.29.62.44.92a2.23,2.23,0,0,1,.22.75c0,.26,0,.52,0,.79v.7a5.86,5.86,0,0,1-.46,2.11,14.32,14.32,0,0,1-1,1.89q-.3.48-.78,1.11a9,9,0,0,1-1.06,1.17,7.17,7.17,0,0,1-1.23.94,2.51,2.51,0,0,1-1.31.39l-.38,0a3,3,0,0,0-.42,0Zm3.61-8.78a1.69,1.69,0,0,0-.78-1.55,3.19,3.19,0,0,0-1.69-.47,1.63,1.63,0,0,0-1.25.57,5.42,5.42,0,0,0-.88,1.39,7.74,7.74,0,0,0-.53,1.77,9.61,9.61,0,0,0-.17,1.63,6.81,6.81,0,0,0,.26,1.51,2.76,2.76,0,0,0,.42.84.86.86,0,0,0,.72.37,2,2,0,0,0,.74-.13c.22-.08.46-.19.73-.31a3.72,3.72,0,0,0,1-1,6.54,6.54,0,0,0,.72-1.36,10.7,10.7,0,0,0,.44-1.55,15.24,15.24,0,0,0,.24-1.54Z"/><path d="M193.67,209.78a14.4,14.4,0,0,0,.26,2.77c.17.87.32,1.8.44,2.78a4.84,4.84,0,0,0,.42,1.5,3.79,3.79,0,0,1,.35,1.55,1.62,1.62,0,0,1-.5,1.28,1.69,1.69,0,0,1-1.19.44,1.32,1.32,0,0,1-1.19-.71,5.46,5.46,0,0,1-.63-1.66,13.26,13.26,0,0,1-.27-1.83,6.37,6.37,0,0,0-.19-1.27,5.53,5.53,0,0,1-.29-1.2c0-.4-.09-.8-.13-1.19s-.07-.78-.11-1.18a7,7,0,0,0-.24-1.21c-.22.42-.46.86-.72,1.34l-.77,1.47-.75,1.47c-.25.48-.45.91-.63,1.31a8.4,8.4,0,0,0-.45,1.19c-.11.38-.22.75-.32,1.12s-.21.74-.33,1.1a7.65,7.65,0,0,1-.51,1.18,2.08,2.08,0,0,1-1,.22,1.28,1.28,0,0,1-1.08-.51,3.84,3.84,0,0,1-.59-1.29,11.37,11.37,0,0,1-.29-1.62q-.09-.84-.21-1.5c0-.47-.11-1-.2-1.51a14.65,14.65,0,0,0-.33-1.6c-.13-.52-.28-1-.44-1.49a5.55,5.55,0,0,0-.53-1.14,3.42,3.42,0,0,0-.9,1.14,15.2,15.2,0,0,0-.7,1.53,15.67,15.67,0,0,0-.53,1.54,11.57,11.57,0,0,1-.41,1.2,5.53,5.53,0,0,0-.64,1.7,16.14,16.14,0,0,1-.37,1.58,2.83,2.83,0,0,1-.62,1.18,1.85,1.85,0,0,1-1.42.46,1,1,0,0,1-.57-.2,2,2,0,0,1-.46-.5,2.7,2.7,0,0,1-.29-.62,2.09,2.09,0,0,1-.11-.63,4.55,4.55,0,0,0,.09-.73c0-.25,0-.5,0-.77,0-.08,0-.26,0-.56s.05-.6.07-.93,0-.65.07-.94,0-.48,0-.55c0-1.37,0-2.36,0-3s-.05-1-.07-1.23a.85.85,0,0,0-.07-.35s0-.11,0-.31a2.19,2.19,0,0,0-.13-.77,2.49,2.49,0,0,1-.13-.77,1.14,1.14,0,0,1,.44-.89,1.6,1.6,0,0,1,2,0,1.91,1.91,0,0,1,.53.82,4.14,4.14,0,0,1,.2,1.07c0,.38,0,.72,0,1s0,.58,0,.92a8.21,8.21,0,0,0-.06.95,3,3,0,0,0,.07.59l.5-1.06c.18-.4.38-.79.59-1.2s.42-.79.64-1.16a8.68,8.68,0,0,1,.66-1c.3-.37.64-.75,1-1.16a1.8,1.8,0,0,1,1.32-.6,1.92,1.92,0,0,1,1.25.36,2.17,2.17,0,0,1,.66.92,5.53,5.53,0,0,1,.32,1.23,10.64,10.64,0,0,0,.24,1.27c.22.71.42,1.51.6,2.39s.36,1.68.53,2.39c0-.17.13-.4.24-.68l.35-.88c.12-.31.25-.59.37-.85l.29-.61c.22-.46.47-1,.76-1.52a8.79,8.79,0,0,1,1-1.54,6.21,6.21,0,0,1,1.32-1.24,3.54,3.54,0,0,1,1.75-.58c.29.14.56.26.8.35a1.48,1.48,0,0,1,.63.4,1.84,1.84,0,0,1,.4.83,6.3,6.3,0,0,1,.15,1.58Z"/><path d="M201.39,225.17a15,15,0,0,0,.12,2,11.3,11.3,0,0,1,.13,1.67,4.52,4.52,0,0,1-.09.81,3.44,3.44,0,0,1-.31.92,2.11,2.11,0,0,1-.59.73,1.44,1.44,0,0,1-1,.3,1.71,1.71,0,0,1-1.09-.46,1.38,1.38,0,0,1-.53-1.05,3.25,3.25,0,0,1,0-.42c0-.16,0-.33.05-.5,0-.42,0-.83,0-1.25v-1.25q0-1.9,0-3.84c0-1.28,0-2.62,0-4,0-1,0-2.06,0-3.1s0-2.19,0-3.44c0-1-.05-2-.13-3s-.13-2-.13-3a1.54,1.54,0,0,1,.27-1,1.64,1.64,0,0,1,1.23-.33,1.61,1.61,0,0,1,1.38.48,3.65,3.65,0,0,1,.57,1.17l.72-.26a2.44,2.44,0,0,1,.72-.14H203a5.28,5.28,0,0,1,1.51.16,6.16,6.16,0,0,1,1,.46l.11.08h0s0,0,.06,0a5,5,0,0,1,1.3,1,7,7,0,0,1,1.05,1.47,8.6,8.6,0,0,1,.7,1.69,6.1,6.1,0,0,1,.26,1.69,6.21,6.21,0,0,1-.43,2.13,6.53,6.53,0,0,1-1.27,2.1,6.85,6.85,0,0,1-2.14,1.58,7.16,7.16,0,0,1-3.07.62h-.33a.94.94,0,0,1-.37-.07,1,1,0,0,0-.07.42v5.6Zm3.12-9.44a4.2,4.2,0,0,0,1.21-3,4.38,4.38,0,0,0-.79-2.5,3.83,3.83,0,0,0-.92-.92,2.9,2.9,0,0,0-1.23-.47l-.48.18a2.52,2.52,0,0,0-.53.28,2.43,2.43,0,0,0-.38.27l-.06.07s0,0-.09.08a1.64,1.64,0,0,0-.07.7c0,.46,0,1,.05,1.63s.06,1.06.06,1.31v1.24a13.18,13.18,0,0,0,.07,1.47c.05.45.17.67.37.67a4.61,4.61,0,0,0,1-.1,4.46,4.46,0,0,0,1-.38Z"/><path d="M215.79,219.07a.28.28,0,0,0,0,.15.4.4,0,0,1,0,.15.91.91,0,0,1-.49.86,2,2,0,0,1-1,.28,1.64,1.64,0,0,1-1.47-1,9,9,0,0,1-.85-2.35,17.88,17.88,0,0,1-.38-2.67c-.07-.88-.1-1.54-.1-2,0-1.2,0-2.27,0-3.22s0-1.93,0-3a36.65,36.65,0,0,1,.2-3.95,39.77,39.77,0,0,0,.2-4,1.23,1.23,0,0,1,.22-.77,3.28,3.28,0,0,1,.59-.59,6.89,6.89,0,0,1,.72,0,2.6,2.6,0,0,1,.79.18,1.92,1.92,0,0,1,.62.41,1,1,0,0,1,.26.73,9.79,9.79,0,0,1-.19,1.93,10.59,10.59,0,0,0-.18,1.93c0,.93,0,1.77,0,2.52s0,1.48,0,2.22,0,1.24,0,1.82,0,1.16,0,1.74c0,.42,0,.82,0,1.2s0,.74,0,1.08a18.41,18.41,0,0,0,.32,3.2C215.35,217.16,215.57,218.19,215.79,219.07Z"/><path d="M218.14,213.38a11.25,11.25,0,0,1,.35-2.74,8.35,8.35,0,0,1,1-2.48,5.85,5.85,0,0,1,1.72-1.78,4.29,4.29,0,0,1,2.39-.68,4.45,4.45,0,0,1,1.67.29,3.67,3.67,0,0,1,1.2.78,3,3,0,0,1,.71,1.08,3.41,3.41,0,0,1,.24,1.27,4.33,4.33,0,0,1-.31,1.63,4.51,4.51,0,0,1-.9,1.42,4.65,4.65,0,0,1-1.45,1,5.28,5.28,0,0,1-2,.42,3.2,3.2,0,0,1-.84,0,8.29,8.29,0,0,1-.85-.22,2.11,2.11,0,0,0,0,.31v.21a4.9,4.9,0,0,0,.44,2.13,3.71,3.71,0,0,0,.88,1.16,2.44,2.44,0,0,0,.92.49,2.9,2.9,0,0,0,2.48-.4l1.67-1.14.4.16a1,1,0,0,1,.41.35,3,3,0,0,0,.07.35,1.33,1.33,0,0,1,0,.39,1.75,1.75,0,0,1-.28.86,3.14,3.14,0,0,1-.53.61,5,5,0,0,1-1.78,1,7.92,7.92,0,0,1-2.15.24,5.24,5.24,0,0,1-1.45-.25,9.2,9.2,0,0,1-1.45-.56,6.76,6.76,0,0,1-1.38-1.32,5.44,5.44,0,0,1-.77-1.39,6.11,6.11,0,0,1-.37-1.53C218.21,214.52,218.16,214,218.14,213.38Zm3.2-2a2,2,0,0,0,.46.06l.49,0a2.74,2.74,0,0,0,1.93-.63,2,2,0,0,0,.68-1.5,1.74,1.74,0,0,0-.29-1,.94.94,0,0,0-.81-.44,4.18,4.18,0,0,0-.72.07.82.82,0,0,0-.53.37c-.1.12-.21.25-.33.37a2,2,0,0,0-.35.51,5.44,5.44,0,0,0-.31.83A6.94,6.94,0,0,0,221.34,211.39Z"/><path d="M229.49,206l.3-.38a.49.49,0,0,1,.44-.2,4.43,4.43,0,0,1,1.3.36,2.59,2.59,0,0,1,1.12,1.11l.67,1.23c.17.33.33.63.49.91s.33.55.5.8.38.51.62.8c.1-.19.28-.48.53-.86s.54-.75.83-1.12.56-.7.81-1,.4-.46.48-.48a12,12,0,0,1,1-1.07,1.83,1.83,0,0,1,1.31-.51,3,3,0,0,1,1.3.28,1,1,0,0,1,.61.93,1.32,1.32,0,0,1-.08.44,17.91,17.91,0,0,1-1.39,1.6c-.49.5-1,.94-1.36,1.31a6.87,6.87,0,0,1-.55.77l-.74.88c-.24.29-.46.56-.64.81a1.07,1.07,0,0,0-.28.55c0,.07.12.24.35.51l.79.9.85,1a3.27,3.27,0,0,1,.51.73c.27.39.56.78.86,1.16a2,2,0,0,1,.46,1.27.77.77,0,0,1-.25.55,3.66,3.66,0,0,1-.55.44,1.51,1.51,0,0,0-.39,0,2,2,0,0,1-.35,0l-.37,0a1.71,1.71,0,0,1-.44-.19,8.74,8.74,0,0,1-.66-.79l-.9-1.17c-.31-.41-.6-.78-.88-1.12a2.58,2.58,0,0,0-.57-.59,10.62,10.62,0,0,0-.66,1c-.22.37-.44.73-.65,1.1s-.39.72-.56,1.07a9,9,0,0,0-.41.88,6.78,6.78,0,0,1-.64,1.3,1.24,1.24,0,0,1-1.09.68,1.33,1.33,0,0,1-.77-.25,2.51,2.51,0,0,1-.71-.92,4.73,4.73,0,0,1-.24-1,.27.27,0,0,0,0-.11.31.31,0,0,1,0-.11,8.65,8.65,0,0,1,1.05-2,16.18,16.18,0,0,0,1.19-2,6.64,6.64,0,0,1,.75-1.09,1.89,1.89,0,0,0,.5-1.19c-.27-.54-.51-1-.72-1.4s-.41-.76-.6-1.1l-.61-1.05c-.21-.35-.43-.75-.68-1.19a3.19,3.19,0,0,0-.66-.85,1.28,1.28,0,0,1-.44-.91Z"/><path d="M247.76,218.6a1.25,1.25,0,0,1-.15.58,2.89,2.89,0,0,1-.55.7,5.25,5.25,0,0,1-1.16-.11,2,2,0,0,1-.92-.44,2.1,2.1,0,0,1-.6-1,5.13,5.13,0,0,1-.23-1.69,6.54,6.54,0,0,0-.12-1.25,6,6,0,0,1-.13-1.25,29,29,0,0,0-.22-3.57,26.9,26.9,0,0,1-.22-3.56,1.32,1.32,0,0,1,.62-1.18,5.32,5.32,0,0,1,.7-.16l.73-.13a1.75,1.75,0,0,1,.78.42c.17.19.33.36.47.54,0,.24,0,.48,0,.73s0,.5,0,.77c0,.93.05,1.92.15,3s.2,2.06.33,3,.24,1.83.35,2.61.19,1.38.24,1.8Zm-3.24-20.69a.93.93,0,0,1,.66-.18,2.29,2.29,0,0,1,.76.13,2.5,2.5,0,0,1,.71.36,2.31,2.31,0,0,1,.54.54,1.09,1.09,0,0,1,.2.62,1.07,1.07,0,0,1-.35.94,1.7,1.7,0,0,1-1,.24,3,3,0,0,1-.83-.13,4,4,0,0,1-.76-.32,2.59,2.59,0,0,1-.53-.38.59.59,0,0,1-.2-.39,3,3,0,0,1,.09-.77C243.9,198.35,244.13,198.13,244.52,197.91Z"/><path d="M253,196.11a5,5,0,0,1,.11-1l.48-.23a1.07,1.07,0,0,1,.48-.1,2.13,2.13,0,0,1,1,.22,1.59,1.59,0,0,1,.59.56,2.23,2.23,0,0,1,.27.75,4.76,4.76,0,0,1,.08.83c0,.51,0,1,0,1.34s0,.75,0,1.12,0,.77,0,1.15,0,.77,0,1.16,0,.55,0,.85,0,.6,0,.92a2.5,2.5,0,0,0,0,.4q0,.18.33.18A4.08,4.08,0,0,0,258,204a4.16,4.16,0,0,1,1.68-.31.7.7,0,0,1,.7.4,2,2,0,0,1,.18.81,1.14,1.14,0,0,1-.22.75,1.45,1.45,0,0,1-.55.43,4.67,4.67,0,0,1-.72.24c-.26.06-.51.12-.75.2a5.17,5.17,0,0,1-.79.27,5.59,5.59,0,0,0-.87.32,2.28,2.28,0,0,0-.69.47,1,1,0,0,0-.3.74c0,.17,0,.33,0,.48s0,.29,0,.44,0,.3,0,.46,0,.32,0,.49a25.86,25.86,0,0,0,.24,3.44c.16,1.19.34,2.33.53,3.43.08.35.16.69.26,1a3.46,3.46,0,0,1,.15,1,1.19,1.19,0,0,1-.33.92,1.85,1.85,0,0,1-.74.4,3,3,0,0,1-.44.07,1.43,1.43,0,0,1-.94-.35,3,3,0,0,1-.71-.86,7.32,7.32,0,0,1-.31-1.39,14.92,14.92,0,0,1-.17-1.62c-.07-1.2-.12-2.4-.15-3.58S253,210.24,253,209a2.28,2.28,0,0,0,0-.27.83.83,0,0,0-.09-.28,4.36,4.36,0,0,0-1.1.33,2.26,2.26,0,0,1-1,.22,1.8,1.8,0,0,1-1.25-.47,10.71,10.71,0,0,1-.77-.78,3.78,3.78,0,0,1,.18-1,4.48,4.48,0,0,1,.88-.26l.79-.15.79-.18a4.5,4.5,0,0,0,.88-.37c.4,0,.62-.15.68-.46a3.62,3.62,0,0,0,.1-.79c0-.44,0-.81,0-1.12s0-.74,0-1.3c0-.37,0-.74,0-1.12s0-.76,0-1.13Z"/><path d="M264.18,212.2c0,.35,0,.76,0,1.25a10.84,10.84,0,0,0,.13,1.49,7.17,7.17,0,0,0,.31,1.36,1.59,1.59,0,0,0,.57.86,2.5,2.5,0,0,0,1.25-1,9.09,9.09,0,0,0,.88-1.67,18.26,18.26,0,0,0,.62-1.85c.17-.63.32-1.15.44-1.57a13.27,13.27,0,0,0,.15-1.7,17,17,0,0,1,.17-1.84,4.53,4.53,0,0,1,.42-1.45,1,1,0,0,1,.92-.59,2.23,2.23,0,0,1,1.17.33,1.36,1.36,0,0,1,.67,1c-.1,1.39-.17,2.6-.21,3.61s-.05,1.86-.05,2.52c0,.22,0,.52,0,.88s0,.77,0,1.2,0,.87.06,1.32,0,.88,0,1.27a24.22,24.22,0,0,1-.93,7,15.69,15.69,0,0,1-3.14,5.66c-.22.17-.46.35-.7.55a6.24,6.24,0,0,1-.85.55,5.34,5.34,0,0,1-2.61.62,2,2,0,0,1-.53-.09,2.24,2.24,0,0,1-.59-.27,2,2,0,0,1-.46-.46,1.11,1.11,0,0,1-.18-.61c0-.15.16-.3.48-.46s.7-.34,1.14-.53.89-.42,1.34-.66a4,4,0,0,0,1.12-.88,13.92,13.92,0,0,0,2.31-4.51,17.4,17.4,0,0,0,.67-4.94V218a4.46,4.46,0,0,1,0-.5.31.31,0,0,0-.18,0,4.12,4.12,0,0,1-.63,1,6.81,6.81,0,0,1-.9.88,4.27,4.27,0,0,1-1,.64,2.26,2.26,0,0,1-1,.24,2.79,2.79,0,0,1-2.17-.88,5.9,5.9,0,0,1-1.23-2.13,11.21,11.21,0,0,1-.55-2.61c-.09-.9-.13-1.68-.13-2.31a3.17,3.17,0,0,1,0-.44c0-.15,0-.3,0-.45,0-.41,0-.81,0-1.19s0-.78,0-1.19,0-.63,0-1a4.87,4.87,0,0,1,.18-1.09,3,3,0,0,1,.39-.86.74.74,0,0,1,.64-.35,1.77,1.77,0,0,1,1.21.33,1.49,1.49,0,0,1,.48.83,4.6,4.6,0,0,1,.11,1.08,5,5,0,0,0,.11,1.07c0,.34,0,.77-.05,1.3s0,.95,0,1.27Z"/><path d="M146.62,4.32A123.39,123.39,0,0,0,123.16.54,212.26,212.26,0,0,0,95.88.34a258.49,258.49,0,0,0-28.3,3.08,213,213,0,0,0-26.51,6A122.89,122.89,0,0,0,19.22,18C13.86,20.83,8.52,24.27,4.61,29,1.9,32.21-.53,36.61.1,41s3.59,7.93,6.68,10.73C12,56.48,18.59,59.67,25.21,62c10.24,3.67,21.12,5.41,31.93,6.23,6.86.51,13.75.66,20.62.73q9.38.09,18.73-.24a264.94,264.94,0,0,0,30.69-2.81,151.74,151.74,0,0,0,22.69-5.15,85.69,85.69,0,0,0,15.76-6.6,47.69,47.69,0,0,0,10-7.24A26.5,26.5,0,0,0,181,40a14.57,14.57,0,0,0,1.71-6c.25-6.27-3.76-11.52-8.51-15.17-6.12-4.71-13.6-7.59-20.94-9.83a150.73,150.73,0,0,0-21.43-4.77c-2.31-.35-4.64-.66-7-.89-1-.1-1,1.49,0,1.59a147.27,147.27,0,0,1,16.82,2.72,109,109,0,0,1,22.26,7c6,2.73,12.46,6.5,15.6,12.54a13.49,13.49,0,0,1,1.57,7c0,.21,0,.42-.06.63s0-.14,0,.12l-.06.34a12.43,12.43,0,0,1-.33,1.37,13.32,13.32,0,0,1-1.2,2.86c-.3.56-.62,1.1-1,1.63-.19.27-.37.55-.57.82l-.56.75a35.13,35.13,0,0,1-7.48,6.93,64.33,64.33,0,0,1-12.64,6.78,116.68,116.68,0,0,1-19.08,5.82,203.31,203.31,0,0,1-26.21,3.91,345.13,345.13,0,0,1-34.64,1.2c-12.63-.14-25.31-.58-37.72-3.08-8.45-1.71-16.9-4.26-24.41-8.56-4.55-2.6-9.1-6-11.81-10.56a10.42,10.42,0,0,1-.72-10.08c2-4.76,6.05-8.46,10.18-11.36a83.09,83.09,0,0,1,18.7-9.43,174.4,174.4,0,0,1,24.36-7A251.42,251.42,0,0,1,110.7,1.61a165.86,165.86,0,0,1,25,2A101.87,101.87,0,0,1,146.2,5.86a.8.8,0,0,0,.42-1.54Z"/><path d="M1140.36,481.63a96.48,96.48,0,0,0-38.8-2.79c-9.88,1.38-20.84,4.67-27.68,12.38a20.13,20.13,0,0,0-5.17,11,15,15,0,0,0,.85,6.19c2.17,6.54,7.23,11.8,13.14,15.17,10.53,6,23,6.29,34.77,5.77,11.08-.49,22.44-1.89,32.85-5.91,5.88-2.26,11.82-5.47,15.86-10.44,2.22-2.73,4.14-6.32,3.77-10-.28-2.77-2-5.23-4-7.13a37.26,37.26,0,0,0-11.18-7,106.43,106.43,0,0,0-25.79-7.37c-1.32-.21-2.64-.41-4-.54-1-.1-1,1.49,0,1.59a84,84,0,0,1,9.17,1.55,118.88,118.88,0,0,1,13.09,3.57,62.73,62.73,0,0,1,12.58,5.61c3.12,1.89,6.3,4.33,7.87,7.72a7.35,7.35,0,0,1,.5,1.43c0,.14.06.28.09.42s0,.28,0,0a2.46,2.46,0,0,1,0,.26,7.54,7.54,0,0,1,0,.95,4.32,4.32,0,0,1,0,.5,1.94,1.94,0,0,1,0,.24l0,.16a12.43,12.43,0,0,1-1.72,4.65c-2.67,4.53-7.26,7.77-11.89,10.13-8.44,4.29-18,6.22-27.38,7.24a150.37,150.37,0,0,1-20.46.9,56.32,56.32,0,0,1-16.94-2.82c-7.07-2.42-13.64-6.9-17.29-13.57a20,20,0,0,1-2.3-6.66,13.55,13.55,0,0,1,1.53-7.84c4.09-8.51,13.66-12.87,22.32-15.11,11.76-3,24.37-2.93,36.27-.86,3.19.55,6.35,1.27,9.46,2.12a.8.8,0,0,0,.43-1.53Z"/><path d="M31.23,28.11a1.23,1.23,0,0,1-.44-.8s0-.15.07-.33a.82.82,0,0,1,.73-.47l.86-.1a13.75,13.75,0,0,1,5.85,3.13,6.66,6.66,0,0,1,1.29,1.39,7.94,7.94,0,0,1,1.6,4.42,4.55,4.55,0,0,1-.43,2c-.11.25-.22.5-.32.77s-.2.52-.31.76a6.36,6.36,0,0,1-.87,1.43l-1,1.29c-.33.42-.67.85-1,1.27a12.2,12.2,0,0,1-2.29,2.19c-.22.26-.46.53-.71.79a1.08,1.08,0,0,1-.75.4,2.76,2.76,0,0,1-.76-.18,1.16,1.16,0,0,1-.73-.58c-.07-.93-.1-1.93-.1-3,0-.55,0-1.23,0-2s.05-1.73.1-2.82.08-2,.1-2.82,0-1.47,0-2,0-1.39,0-2.06S32,29.47,32,28.87Zm3.45,13.78q3.75-3.75,3.75-7.14a3.77,3.77,0,0,0,0-.47,3.59,3.59,0,0,0,0-.46c-.19-1.39-1.38-2.62-3.55-3.69,0,1.27-.08,2.54-.11,3.84s-.05,2.64-.05,4v1.93C34.65,40.57,34.66,41.23,34.68,41.89Z"/><path d="M46.7,44.91a1.7,1.7,0,0,1-1-.31c-.3-.21-.62-.42-.95-.62a4.49,4.49,0,0,1-1.69-1.66,4.92,4.92,0,0,1-.6-2.52,7.33,7.33,0,0,1,.25-1.75c.17-.67.32-1.3.45-1.87a4.74,4.74,0,0,1,.46-1,7.48,7.48,0,0,1,.92-1.26,6.41,6.41,0,0,1,1.24-1.08,2.55,2.55,0,0,1,1.43-.46,1.1,1.1,0,0,1,.6.2,6.26,6.26,0,0,0,1,.5l1,.39c.35.14.68.28,1,.44a4.17,4.17,0,0,1,.93.59,2.1,2.1,0,0,1,.56.73c.13.29.27.57.4.83a1.94,1.94,0,0,1,.2.69c0,.23,0,.47,0,.71v.63A5.22,5.22,0,0,1,52.5,40a11.76,11.76,0,0,1-.92,1.71c-.17.29-.41.62-.69,1a8.76,8.76,0,0,1-1,1.06,6.82,6.82,0,0,1-1.11.85,2.3,2.3,0,0,1-1.18.35l-.35,0-.38,0ZM50,37a1.52,1.52,0,0,0-.7-1.39,2.86,2.86,0,0,0-1.53-.43,1.48,1.48,0,0,0-1.13.51,5.23,5.23,0,0,0-.8,1.26,6.91,6.91,0,0,0-.48,1.6A8.61,8.61,0,0,0,45.17,40c0,.09,0,.26,0,.53a5.75,5.75,0,0,0,.19.83,2.17,2.17,0,0,0,.38.76.77.77,0,0,0,.65.33,1.76,1.76,0,0,0,.66-.11l.66-.28a3.18,3.18,0,0,0,.93-.9,5.56,5.56,0,0,0,.65-1.23,8.92,8.92,0,0,0,.4-1.39c.1-.49.17-1,.22-1.4Z"/><path d="M58,40a3.42,3.42,0,0,0,.75-1.2c.19-.49.37-.95.55-1.39l.06-.2c.14-.36.34-.79.6-1.31a11.67,11.67,0,0,1,.93-1.5A6.38,6.38,0,0,1,62,33.19a2.11,2.11,0,0,1,1.3-.5,1.66,1.66,0,0,1,.85.53,3.06,3.06,0,0,1,.43.82c.1.29.18.6.26.93a5.44,5.44,0,0,0,.32.91,9.71,9.71,0,0,1,.65,2.06q.21,1.1.36,2.22c.1.76.22,1.5.35,2.23a9,9,0,0,0,.6,2,1,1,0,0,1-.58.78,2.13,2.13,0,0,1-.92.25,1.09,1.09,0,0,1-.93-.45,3.24,3.24,0,0,1-.51-1.09A9.49,9.49,0,0,1,64,42.55a7,7,0,0,0-.21-1.16,9.21,9.21,0,0,1-.27-1.28c-.07-.47-.14-1-.23-1.44s-.2-.94-.32-1.36a2.76,2.76,0,0,0-.51-1A12.88,12.88,0,0,0,61.5,38c-.24.52-.45,1-.64,1.5s-.37.94-.54,1.39a9.7,9.7,0,0,1-.67,1.38,10.42,10.42,0,0,1-1,1.5,4.1,4.1,0,0,1-.8.78,1.83,1.83,0,0,1-.7.3,4.7,4.7,0,0,1-.63.05,1.56,1.56,0,0,1-.81-.34,1,1,0,0,1-.48-.79c0-1.4,0-2.69,0-3.89s0-2.46,0-3.79q0-.55,0-1.14c0-.39,0-.77,0-1.15a2.38,2.38,0,0,1,.14-.78,1,1,0,0,1,.52-.54l.4,0,.36,0a.89.89,0,0,1,.68.25,1.49,1.49,0,0,1,.37.62,3.1,3.1,0,0,1,.15.76c0,.26,0,.49,0,.66a2.63,2.63,0,0,0,.09.7,3.13,3.13,0,0,1,.08.7c0,.82,0,1.51,0,2.09s0,1.13,0,1.66Z"/><path d="M74.4,22.49a.83.83,0,0,1,.46.44A4.25,4.25,0,0,1,75,24.06a6.87,6.87,0,0,1-.7,2.65l-.78,1.85a9.48,9.48,0,0,0-.35.94c-.53,1.75-1.28,2.63-2.26,2.63a1.47,1.47,0,0,1-.53-.1c-.46-.14-.63-.48-.5-1,.07-.29.22-.76.45-1.4s.54-1.49.92-2.56c.28-.81.52-1.56.69-2.24a10.94,10.94,0,0,0,.34-1.87c0-.47.48-.65,1.32-.53Z"/><path d="M79.38,23.59a3.92,3.92,0,0,1,.1-.86l.43-.22a1,1,0,0,1,.43-.08,1.73,1.73,0,0,1,.91.2,1.45,1.45,0,0,1,.54.5,2,2,0,0,1,.25.68,4.71,4.71,0,0,1,.06.74c0,.47,0,.87,0,1.22s0,.68,0,1,0,.7,0,1,0,.69,0,1,0,.5,0,.77,0,.54,0,.83a2,2,0,0,0,0,.36c0,.11.13.17.3.17a3.7,3.7,0,0,0,1.51-.29,4,4,0,0,1,1.52-.28.62.62,0,0,1,.63.37,1.72,1.72,0,0,1,.16.73,1,1,0,0,1-.2.68,1.41,1.41,0,0,1-.49.38,4.13,4.13,0,0,1-.65.22c-.23,0-.46.11-.68.18a5.41,5.41,0,0,1-.72.25,6.55,6.55,0,0,0-.78.28,2.34,2.34,0,0,0-.63.43.9.9,0,0,0-.26.67c0,.15,0,.3,0,.43s0,.26,0,.4,0,.27,0,.41,0,.3,0,.45a24.13,24.13,0,0,0,.21,3.11c.15,1.07.31,2.1.48,3.1q.1.46.24.93a3.52,3.52,0,0,1,.13.86,1,1,0,0,1-.3.83,1.67,1.67,0,0,1-.66.37l-.4.07a1.3,1.3,0,0,1-.85-.32,2.94,2.94,0,0,1-.65-.78,7.12,7.12,0,0,1-.28-1.26,14.2,14.2,0,0,1-.15-1.46c-.07-1.09-.11-2.17-.13-3.24s0-2.15-.07-3.24a2,2,0,0,0,0-.25,1,1,0,0,0-.09-.25,3.63,3.63,0,0,0-1,.3,2.12,2.12,0,0,1-.93.2,1.58,1.58,0,0,1-1.13-.43,9.05,9.05,0,0,1-.7-.7,3.17,3.17,0,0,1,.17-.93,4,4,0,0,1,.79-.23l.72-.13c.23,0,.47-.1.71-.17a4.54,4.54,0,0,0,.8-.33c.35,0,.56-.14.61-.42a3.27,3.27,0,0,0,.08-.71c0-.4,0-.74,0-1s0-.67,0-1.18c0-.33,0-.67,0-1s0-.68,0-1Z"/><path d="M97.25,42.92c.08-1.13.13-2.15.14-3.06s.07-1.71.15-2.42A1.91,1.91,0,0,1,97,37a.87.87,0,0,1-.22-.59.94.94,0,0,1,.38-.7,1.78,1.78,0,0,1,.68-.4c.09-1.06.16-2.09.2-3.09s.07-2,.07-3c0-.55,0-1.1,0-1.64A13.4,13.4,0,0,0,97.91,26a2.45,2.45,0,0,1-2-1.39,1,1,0,0,1,.58-1,3.06,3.06,0,0,1,1.18-.23h.83a12.32,12.32,0,0,1,3,.5,9.79,9.79,0,0,1,1.74.68,10.62,10.62,0,0,1,3.49,2.59,4.21,4.21,0,0,1,1,2.56,2.72,2.72,0,0,1,0,.28c0,.1,0,.21-.05.32a4.92,4.92,0,0,1-.7,1.59,7.94,7.94,0,0,1-1.18,1.36,12.36,12.36,0,0,1-1.48,1.18q-.8.56-1.62,1.08l-.6.4a1.79,1.79,0,0,0,.63.65,9.66,9.66,0,0,0,.86.44l.33.1q2.73,1.83,2.73,4.29a5.44,5.44,0,0,1-1.08,3.27,10,10,0,0,1-3.11,2.64L99.3,49.13a1.36,1.36,0,0,1-.79.23,1.15,1.15,0,0,1-1.26-.9Zm3.18,2.76c.25-.23.48-.42.7-.59l.66-.51a6.46,6.46,0,0,0,1.42-1.38,4.82,4.82,0,0,0,.64-1.58,1.86,1.86,0,0,0,.05-.34c0-.13,0-.24,0-.35a2.5,2.5,0,0,0-.7-1.76,7.72,7.72,0,0,0-1.39-.8,2.37,2.37,0,0,0-.83-.23h-.37a1.44,1.44,0,0,0-.4.06c0,1-.08,1.92-.13,2.76s-.06,1.68-.06,2.52a9,9,0,0,0,0,1.05c0,.34.07.72.11,1.15Zm.5-12.13a4.78,4.78,0,0,0,.47-.21,4.37,4.37,0,0,0,.53-.32l.6-.5a3.69,3.69,0,0,0,.89-.64,5.27,5.27,0,0,0,.75-.9,5,5,0,0,0,.51-1,2.81,2.81,0,0,0,.2-1,1.09,1.09,0,0,0,0-.17,1.15,1.15,0,0,1,0-.16c-.11-.82-.81-1.45-2.09-1.9l-.25-.13-.42-.23a3.58,3.58,0,0,0-.48-.24,1.18,1.18,0,0,0-.38-.09h-.18l-.25,0a5.17,5.17,0,0,0,0,.57v.63c0,.88,0,1.87-.07,3s-.07,2.24-.07,3.44Z"/><path d="M109.33,35.41c0-.59,0-1.17.07-1.72a6.94,6.94,0,0,1,.33-1.63.55.55,0,0,1,.19-.15,2.84,2.84,0,0,1,.34-.15l.22-.07.28-.06a2.52,2.52,0,0,1,1.06.4,1.06,1.06,0,0,1,.54,1,4.54,4.54,0,0,1-.1.95,4,4,0,0,0-.1,1,9.42,9.42,0,0,1-.09,1.49,7.19,7.19,0,0,0-.08,1c0,1.06,0,2,.1,2.94s.12,1.57.17,2a2.09,2.09,0,0,0,1.18-.92,14.19,14.19,0,0,0,1.27-2c.42-.79.81-1.64,1.17-2.52s.64-1.67.86-2.36a2.59,2.59,0,0,0,.12-.86,2.16,2.16,0,0,1,.08-.78,1.08,1.08,0,0,1,.45-.59,2.25,2.25,0,0,1,1.18-.23l.06,0,.07,0a1.09,1.09,0,0,1,.63.26,2.2,2.2,0,0,1,.53.53c0,1.31,0,2.33-.11,3.07a18.35,18.35,0,0,0-.12,1.91,15.35,15.35,0,0,0,.21,2.74,4.77,4.77,0,0,0,.72,1.85q.19.23.36.45a2.08,2.08,0,0,1,.3.51A1.18,1.18,0,0,1,121,44a.87.87,0,0,1-.35.26,1.52,1.52,0,0,1-.43.12,2.63,2.63,0,0,0-.47.1,2.41,2.41,0,0,1-1.18-.6,3.46,3.46,0,0,1-.73-1.05,5.54,5.54,0,0,1-.41-1.36c-.09-.5-.17-1-.24-1.54l-.13.26c-.18.38-.41.88-.71,1.5a14.39,14.39,0,0,1-1,1.81A7.44,7.44,0,0,1,113.93,45a2.54,2.54,0,0,1-1.67.65,2.82,2.82,0,0,1-1.55-.38,2.37,2.37,0,0,1-.89-1.25,8.35,8.35,0,0,1-.44-2.22c-.07-.91-.11-2-.11-3.35a7.26,7.26,0,0,0,.06-.93v-2.1Z"/><path d="M126.54,43.92a1.2,1.2,0,0,1-.14.53,2.8,2.8,0,0,1-.5.63,5.65,5.65,0,0,1-1-.1,1.84,1.84,0,0,1-.83-.4,2,2,0,0,1-.55-.86,4.85,4.85,0,0,1-.2-1.53,6.18,6.18,0,0,0-.11-1.13,5.43,5.43,0,0,1-.12-1.13,25.42,25.42,0,0,0-.2-3.22,25.42,25.42,0,0,1-.2-3.22,1.17,1.17,0,0,1,.57-1.06,4.08,4.08,0,0,1,.63-.15l.66-.12a1.51,1.51,0,0,1,.7.38l.43.48c0,.22,0,.45,0,.67s0,.45,0,.69c0,.85.05,1.74.14,2.69s.18,1.86.29,2.73.22,1.65.32,2.36.17,1.25.22,1.62Zm-2.93-18.7a.84.84,0,0,1,.6-.17,2.08,2.08,0,0,1,.68.12,2.65,2.65,0,0,1,.65.33A1.82,1.82,0,0,1,126,26a1,1,0,0,1,.18.57.94.94,0,0,1-.31.84,1.51,1.51,0,0,1-.88.22,2.5,2.5,0,0,1-.75-.12,3.22,3.22,0,0,1-.68-.28,2.13,2.13,0,0,1-.48-.35.52.52,0,0,1-.18-.35,2.42,2.42,0,0,1,.08-.69C123.05,25.62,123.26,25.42,123.61,25.22Z"/><path d="M133.08,44.35a.31.31,0,0,0,0,.13.33.33,0,0,1,0,.13.82.82,0,0,1-.45.78,1.85,1.85,0,0,1-.92.25,1.5,1.5,0,0,1-1.33-.91,8.2,8.2,0,0,1-.76-2.13,16.74,16.74,0,0,1-.35-2.4c-.05-.8-.08-1.4-.08-1.8,0-1.08,0-2,0-2.9s0-1.75,0-2.68a35,35,0,0,1,.18-3.57,35.29,35.29,0,0,0,.18-3.63,1.16,1.16,0,0,1,.2-.7,2.94,2.94,0,0,1,.53-.53l.65,0a2.38,2.38,0,0,1,.71.17,1.73,1.73,0,0,1,.57.36.94.94,0,0,1,.23.67,9.47,9.47,0,0,1-.16,1.74,8.69,8.69,0,0,0-.17,1.74c0,.85,0,1.6,0,2.28s0,1.34,0,2,0,1.12,0,1.64,0,1,0,1.58,0,.74,0,1.08,0,.67,0,1a16.62,16.62,0,0,0,.28,2.89C132.69,42.62,132.88,43.55,133.08,44.35Z"/><path d="M145.9,38.5a4.51,4.51,0,0,0,.11.63c.08.34.18.69.3,1.07l.35,1.09a4.55,4.55,0,0,0,.27.73,3.62,3.62,0,0,1,.3.77,4.86,4.86,0,0,0,.26.79,1.11,1.11,0,0,1-.33.93,1,1,0,0,1-.66.27h-.42a1.63,1.63,0,0,1-.42,0,6.09,6.09,0,0,1-.63-.3,2,2,0,0,1-.63-.93,3,3,0,0,1-.33-.85c-.11-.41-.22-.85-.31-1.31s-.2-.9-.3-1.31a4.22,4.22,0,0,0-.29-.88,9.7,9.7,0,0,1-.79,2.44,8.19,8.19,0,0,1-1.23,1.84,5.28,5.28,0,0,1-1.46,1.16,3.18,3.18,0,0,1-1.5.4,2.74,2.74,0,0,1-2.42-1.11,4.78,4.78,0,0,1-.77-2.77,9,9,0,0,1,.29-2.13,12.43,12.43,0,0,1,.79-2.29,12.64,12.64,0,0,1,1.25-2.13A7,7,0,0,1,138.92,33a3.28,3.28,0,0,0,.47-.33,1.54,1.54,0,0,1,1-.27,3.58,3.58,0,0,1,.92.13l.88.27c0-.77,0-1.54-.1-2.29S142,29,142,28.31c0-.07,0-.35,0-.85s0-1.08,0-1.74V25c0-.24,0-.47,0-.72a1.58,1.58,0,0,0,0-.58.64.64,0,0,1,.19-.55,1.54,1.54,0,0,1,.69-.48,2.32,2.32,0,0,1,.81-.15,1.09,1.09,0,0,1,.93.45,1.63,1.63,0,0,1,.33,1c0,.75,0,1.47-.08,2.14s-.08,1.42-.08,2.24c0,.51,0,1.12.09,1.81s.14,1.34.2,1.91.09,1,.14,1.53.1,1.11.16,1.68.15,1.11.24,1.64a8.63,8.63,0,0,0,.33,1.43Zm-7.91,4a1.64,1.64,0,0,0,1.2-.5,4.72,4.72,0,0,0,.86-1.2,9.05,9.05,0,0,0,.63-1.46c.18-.51.36-.95.53-1.33s.19-.66.3-1a3.38,3.38,0,0,0,.17-1.07c0-.06,0-.1-.12-.11l-.28,0-.33,0a.31.31,0,0,1-.23-.2c0-.11,0-.22,0-.34s0-.22,0-.33h-.18a.72.72,0,0,0-.22,0,13,13,0,0,1-1,1.34,4.4,4.4,0,0,0-.89,1.55c-.13.4-.24.75-.34,1s-.18.59-.24.85-.1.54-.13.82a8.31,8.31,0,0,0-.05.91,1.51,1.51,0,0,0,.13.56A3,3,0,0,1,138,42.49Z"/><path d="M1098,510.05c.08-1.13.13-2.15.15-3.05a24.19,24.19,0,0,1,.14-2.43,2.05,2.05,0,0,1-.54-.46.91.91,0,0,1-.22-.6,1,1,0,0,1,.38-.7,1.78,1.78,0,0,1,.68-.4c.09-1.06.16-2.09.2-3.08s.07-2,.07-3q0-.84,0-1.65a13,13,0,0,0-.17-1.57,2.46,2.46,0,0,1-2-1.4,1,1,0,0,1,.58-1,3.26,3.26,0,0,1,1.18-.23c.16,0,.43,0,.83,0a10.92,10.92,0,0,1,1.38.13,15.17,15.17,0,0,1,1.66.36,11.74,11.74,0,0,1,5.23,3.27,4.23,4.23,0,0,1,1,2.56,2.72,2.72,0,0,1,0,.28c0,.1,0,.21,0,.32a4.74,4.74,0,0,1-.7,1.59,8.4,8.4,0,0,1-1.18,1.37,12.29,12.29,0,0,1-1.48,1.17q-.79.56-1.62,1.08l-.6.4a1.79,1.79,0,0,0,.63.65c.24.14.53.29.86.45l.33.1c1.82,1.22,2.73,2.64,2.73,4.28a5.39,5.39,0,0,1-1.08,3.27,9.71,9.71,0,0,1-3.11,2.64l-3.18,1.86a1.35,1.35,0,0,1-.8.23,1.14,1.14,0,0,1-1.26-.89Zm3.18,2.76c.25-.22.48-.42.7-.58l.67-.52a6.6,6.6,0,0,0,1.41-1.38,4.76,4.76,0,0,0,.64-1.57c0-.11,0-.23.06-.35s0-.24,0-.35a2.52,2.52,0,0,0-.7-1.76,8,8,0,0,0-1.39-.8,2.62,2.62,0,0,0-.83-.23h-.37a1.16,1.16,0,0,0-.4.07c0,1-.08,1.91-.13,2.75s-.06,1.69-.06,2.53a8.94,8.94,0,0,0,0,1c0,.35.07.73.11,1.15Zm.5-12.12.47-.22a4.36,4.36,0,0,0,.53-.31l.6-.5a3.74,3.74,0,0,0,.89-.65,5.27,5.27,0,0,0,.75-.9,5.68,5.68,0,0,0,.52-1,3,3,0,0,0,.19-1,1,1,0,0,0,0-.16,1.49,1.49,0,0,1,0-.17c-.11-.82-.81-1.45-2.09-1.89l-.25-.14-.41-.23a3.12,3.12,0,0,0-.49-.23,1,1,0,0,0-.38-.1h-.18l-.25,0a5.17,5.17,0,0,0,0,.57v.63c0,.89,0,1.88-.07,3s-.07,2.24-.07,3.44Z"/><path d="M1110.05,502.55c0-.6,0-1.18.07-1.73a7.61,7.61,0,0,1,.33-1.63.68.68,0,0,1,.19-.15l.34-.15.22-.06.28-.07a2.76,2.76,0,0,1,1.07.4,1.07,1.07,0,0,1,.53,1,4.47,4.47,0,0,1-.1.95,4,4,0,0,0-.1,1,9.42,9.42,0,0,1-.09,1.49,7.31,7.31,0,0,0-.08,1c0,1.06,0,2,.1,2.94s.12,1.58.17,2a2.07,2.07,0,0,0,1.18-.91,15.4,15.4,0,0,0,1.27-2,25.58,25.58,0,0,0,1.17-2.53c.35-.88.64-1.67.86-2.36a2.52,2.52,0,0,0,.12-.86,2.4,2.4,0,0,1,.08-.78,1.06,1.06,0,0,1,.45-.58,2.16,2.16,0,0,1,1.18-.23h.06l.07,0a1.16,1.16,0,0,1,.63.26,2.06,2.06,0,0,1,.53.54c0,1.3,0,2.33-.11,3.07a18.19,18.19,0,0,0-.12,1.91,14.53,14.53,0,0,0,.22,2.74,4.57,4.57,0,0,0,.71,1.84l.36.45a1.81,1.81,0,0,1,.3.51,1.13,1.13,0,0,1-.21.52.87.87,0,0,1-.35.26,1.52,1.52,0,0,1-.43.12,3.94,3.94,0,0,0-.47.1,2.45,2.45,0,0,1-1.18-.6,3.41,3.41,0,0,1-.73-1,6.1,6.1,0,0,1-.41-1.37c-.09-.49-.17-1-.23-1.54l-.14.27-.71,1.49a14.39,14.39,0,0,1-1,1.81,7.25,7.25,0,0,1-1.38,1.53,2.59,2.59,0,0,1-1.67.65,2.74,2.74,0,0,1-1.55-.39,2.44,2.44,0,0,1-.89-1.24,9,9,0,0,1-.44-2.23c-.07-.9-.11-2-.11-3.35a7.26,7.26,0,0,0,.06-.93v-2.09Z"/><path d="M1126.23,505.27c0,.31,0,.69,0,1.13a10.26,10.26,0,0,0,.12,1.34,7.47,7.47,0,0,0,.28,1.23,1.45,1.45,0,0,0,.52.78,2.28,2.28,0,0,0,1.13-.91,7.7,7.7,0,0,0,.79-1.51,16.6,16.6,0,0,0,.57-1.68c.15-.56.29-1,.4-1.41a15.36,15.36,0,0,0,.13-1.54,14,14,0,0,1,.15-1.66,4.49,4.49,0,0,1,.38-1.32.88.88,0,0,1,.83-.53,2,2,0,0,1,1.06.3,1.21,1.21,0,0,1,.6.87q-.14,1.89-.18,3.27c0,.91,0,1.67,0,2.27,0,.2,0,.47,0,.8s0,.69,0,1.08,0,.78,0,1.19,0,.79,0,1.15a21.51,21.51,0,0,1-.85,6.31,14.11,14.11,0,0,1-2.83,5.11l-.64.5a5,5,0,0,1-.76.5,5.59,5.59,0,0,1-1,.4,5,5,0,0,1-1.35.16,1.59,1.59,0,0,1-.48-.08,1.83,1.83,0,0,1-.53-.25,1.49,1.49,0,0,1-.42-.41,1,1,0,0,1-.16-.55c0-.13.14-.27.43-.42l1-.48c.4-.18.8-.37,1.21-.6a3.56,3.56,0,0,0,1-.79,12.83,12.83,0,0,0,2.09-4.07,16,16,0,0,0,.59-4.47v-.48a3.75,3.75,0,0,1,0-.45.29.29,0,0,0-.17,0,3.62,3.62,0,0,1-.56.9,6.82,6.82,0,0,1-.82.79,4,4,0,0,1-.91.58,2,2,0,0,1-.86.22,2.53,2.53,0,0,1-2-.8,5.21,5.21,0,0,1-1.11-1.92,9.82,9.82,0,0,1-.5-2.36c-.08-.82-.12-1.52-.12-2.09,0-.14,0-.27,0-.4s0-.27,0-.4q0-.57,0-1.08t0-1.08c0-.27,0-.57,0-.91a4.36,4.36,0,0,1,.17-1,2.56,2.56,0,0,1,.35-.78.66.66,0,0,1,.58-.32,1.6,1.6,0,0,1,1.09.3,1.36,1.36,0,0,1,.43.75,4.28,4.28,0,0,1,.1,1,4.72,4.72,0,0,0,.1,1c0,.31,0,.7,0,1.18s0,.86,0,1.15Z"/><path d="M32,66.76V460.67a.8.8,0,0,0,1.59,0V66.76a.8.8,0,0,0-1.59,0Z"/><path d="M24.14,443.16a137.6,137.6,0,0,0,8.37,21.56.8.8,0,0,0,1.25.16A58.23,58.23,0,0,0,43.87,448.7c.39-.94-1.15-1.35-1.53-.42a55.93,55.93,0,0,1-9.71,15.48l1.25.16a136,136,0,0,1-8.21-21.18.79.79,0,0,0-1.53.42Z"/><path d="M188.41,34.73H1024a.8.8,0,0,0,0-1.59H188.41a.8.8,0,0,0,0,1.59Z"/><path d="M1013.14,29.31l14.16,7.14.19-1.45-17.69,5.85c-1,.32-.56,1.85.42,1.53l17.7-5.85a.81.81,0,0,0,.19-1.45l-14.17-7.14c-.91-.46-1.72.91-.8,1.37Z"/><path d="M1147.22,114.7l-1,144.28c-.32,47.95-1.08,95.92-.56,143.87.3,26.83,1.15,53.65,3.15,80.41.08,1,1.67,1,1.59,0-3.57-47.7-3.45-95.56-3.14-143.35q.48-72.12,1-144.24l.55-81a.8.8,0,0,0-1.59,0Z"/><path d="M1140.52,133.38l7.15-16,1-2.3-1.46-.19c2.74,6.79,6,13.39,9.27,20,.46.92,1.83.11,1.37-.8-3.19-6.44-6.42-12.91-9.1-19.58-.23-.55-1.14-.88-1.46-.19l-7.15,16-1,2.31c-.41.93,1,1.73,1.38.8Z"/><path d="M632.25,513.11h439.94a.8.8,0,0,0,0-1.59H632.25a.8.8,0,0,0,0,1.59Z"/><path d="M650.37,502.83a62.22,62.22,0,0,1-20.16,8.69A.8.8,0,0,0,630,513a146.15,146.15,0,0,0,19.83,8.58c1,.33,1.38-1.2.42-1.54a143.58,143.58,0,0,1-19.45-8.41l-.19,1.45a63.48,63.48,0,0,0,20.54-8.85c.85-.56.05-1.94-.8-1.37Z"/><path d="M429.89,380.35c-5.58-9.05-14.84-15.17-24.52-19.64A44.44,44.44,0,0,1,418,373.62c1.95,3.16,3.43,7,2.29,10.56-.83,2.57-2.91,4.54-5.08,6.16-8.42,6.31-40.06,24.4-130.26,25.71-28.05.4-62.35-4.12-83.16-13,16.74,13.27,60.62,20.21,95.07,19.71,90.2-1.31,121.84-19.4,130.26-25.71,2.17-1.62,4.25-3.59,5.08-6.16C433.32,387.37,431.84,383.51,429.89,380.35Z"/><path d="M293.45,423.07c-33,0-75.4-6.76-91.85-19.79a.27.27,0,0,1,.27-.45c19.25,8.19,52.63,13.39,83.06,12.95,88.25-1.27,120.39-18.37,130.1-25.65,1.87-1.4,4.13-3.36,5-6,.93-2.91.17-6.38-2.27-10.34a44.37,44.37,0,0,0-12.53-12.84.26.26,0,0,1,.26-.45c11.73,5.41,19.79,11.87,24.63,19.74,2.53,4.1,3.31,7.72,2.32,10.78-.91,2.82-3.24,4.84-5.17,6.29-9.76,7.32-42,24.48-130.42,25.76Q295.16,423.07,293.45,423.07Zm-89.82-18.95c18.05,12.58,60.89,18.87,93.21,18.39,88.25-1.27,120.38-18.36,130.1-25.65,1.87-1.4,4.12-3.35,5-6,.93-2.91.17-6.38-2.27-10.34h0c-4.43-7.2-11.6-13.22-21.88-18.33a42.94,42.94,0,0,1,10.42,11.32c2.53,4.1,3.31,7.72,2.32,10.78-.91,2.82-3.24,4.84-5.17,6.29-9.76,7.32-42,24.48-130.42,25.76C255.45,416.73,223.18,411.87,203.63,404.12Z"/><path d="M955.86,399.25c-.72-5.95-4.43-11.11-8.54-15.47a74.16,74.16,0,0,0-10.49-9.22c.29.29.59.58.87.88,4.11,4.37,7.82,9.53,8.54,15.48,1.87,15.45-40.69,56.14-151.48,48.8-51.62-3.42-80.66-14.37-96.61-25.61,12.52,13.66,41.76,29.67,106.23,33.94C915.17,455.39,957.73,414.7,955.86,399.25Z"/><path d="M830.27,449.2q-12.54,0-25.9-.88c-66.19-4.39-94.4-20.93-106.42-34a.27.27,0,0,1,0-.36.26.26,0,0,1,.35,0c19.65,13.85,53,22.69,96.48,25.57,37.19,2.46,69.68-.24,96.57-8,27.81-8,41.44-19.24,47.09-25.21,5.29-5.59,8-11.16,7.54-15.29-.6-4.95-3.29-9.82-8.47-15.32-.17-.18-.34-.36-.52-.53l-.35-.36a.26.26,0,0,1,0-.36.27.27,0,0,1,.36,0,75.69,75.69,0,0,1,10.53,9.26c5.26,5.59,8,10.55,8.6,15.62.52,4.29-2.28,10-7.68,15.72-5.68,6-19.39,17.28-47.32,25.35C880.61,446.22,856.87,449.2,830.27,449.2ZM700.12,415.77c12.87,12.7,41.35,27.85,104.28,32,37.19,2.46,69.68-.23,96.57-8,27.81-8,41.44-19.24,47.09-25.2,5.29-5.59,8-11.16,7.54-15.29-.6-5-3.29-9.82-8.47-15.33a73.84,73.84,0,0,0-8-7.29c4.42,5,6.76,9.58,7.32,14.22.52,4.29-2.28,10-7.68,15.72-5.69,6-19.39,17.28-47.32,25.35-27,7.79-59.51,10.49-96.76,8C752.08,437.16,720.27,429,700.12,415.77Z"/><path d="M1047.21,218.12c-1.51-10-8.49-16.77-15.21-20.71a26.51,26.51,0,0,1,6.81,14c1,6.37-12.48,47-139.7,47.05-39.81,0-85.46-8.55-106.74-21.48,14.46,16.61,68.75,28.22,115.13,28.21C1034.73,265.15,1048.17,224.49,1047.21,218.12Z"/><path d="M907.48,265.43c-43.61,0-100.08-10.82-115.31-28.3a.27.27,0,0,1,0-.35.26.26,0,0,1,.34-.05c20.45,12.42,65.27,21.43,106.57,21.43h0c39,0,108.3-4.34,133.24-33.32,5.53-6.44,6.47-11.59,6.2-13.42a26.16,26.16,0,0,0-6.75-13.83.27.27,0,0,1,0-.35.25.25,0,0,1,.33-.06c5,2.93,13.62,9.54,15.34,20.9h0c.29,1.91-.66,7.26-6.32,13.84-5.35,6.21-16.36,15.08-38.51,22.07-24,7.59-56,11.44-95.14,11.44ZM793.84,238.12C801.21,245.36,816.77,252,838,257a317.36,317.36,0,0,0,69.45,7.87h0c39.06,0,108.31-4.34,133.25-33.33,5.53-6.43,6.47-11.58,6.19-13.41-1.52-10.11-8.65-16.4-13.63-19.63a26.33,26.33,0,0,1,5.76,12.81c.29,1.91-.66,7.26-6.32,13.84-5.34,6.21-16.36,15.08-38.51,22.07-24,7.59-56,11.44-95.13,11.44h0C858.73,258.69,815,250.1,793.84,238.12Z"/><path d="M695.32,102a29.39,29.39,0,0,1,8.16,20.21c-.21,14.19-9.9,26.91-21.94,34.43S639.54,186,528.59,186c-56.1,0-99.59-5.11-123.09-17.06a58.16,58.16,0,0,0,5.29,3.79c21.93,14,67.75,20,128.18,20,111,0,140.93-21.78,153-29.31s21.73-20.24,21.94-34.43C714,117.23,706.05,105.44,695.32,102Z"/><path d="M539,192.91c-64.4,0-107.57-6.72-128.33-20a56.13,56.13,0,0,1-5.3-3.81.26.26,0,0,1-.06-.35.27.27,0,0,1,.34-.09c22.23,11.3,63.6,17,123,17,106.69,0,138-19.88,151.37-28.36l1.44-.91c13.27-8.3,21.63-21.41,21.81-34.21a29.17,29.17,0,0,0-8.08-20,.26.26,0,0,1,0-.32.26.26,0,0,1,.3-.12c10.68,3.42,18.9,15.35,18.73,27.16-.19,13-8.64,26.26-22.06,34.66l-1.44.9C677.23,173,645.82,192.91,539,192.91ZM407.7,170.26c1,.74,2.1,1.48,3.23,2.21,20.67,13.21,63.75,19.91,128,19.91,106.7,0,138-19.87,151.38-28.35l1.44-.91c13.27-8.3,21.62-21.41,21.81-34.22.17-11.22-7.39-22.55-17.37-26.3a29.65,29.65,0,0,1,7.51,19.62c-.19,13-8.64,26.26-22.06,34.66l-1.43.91c-13.41,8.51-44.81,28.44-151.66,28.44C471.14,186.23,430.5,180.86,407.7,170.26Z"/><path d="M343.8,219.49c-.85-5.42-4.42-10-8.32-13.89a68.46,68.46,0,0,0-11.39-9.09c1.24,1.06,2.45,2.16,3.61,3.31,3.9,3.86,7.46,8.46,8.31,13.89,2.21,14.07-26.23,51.24-159.18,46-31.86-1.27-52.87-8.6-66-16.91,11.87,10.44,34.62,21.14,73.76,22.69C317.56,270.74,346,233.57,343.8,219.49Z"/><path d="M209.42,266.25q-12,0-24.82-.51c-18.78-.75-53.37-4.69-73.93-22.76a.27.27,0,0,1,0-.36.27.27,0,0,1,.36-.06c19.83,12.56,46.75,16.1,65.85,16.86,36.38,1.44,124.09,1.31,152.83-31,4.53-5.09,6.75-10.44,6.08-14.69-.71-4.51-3.33-8.88-8.24-13.75-1.06-1.05-2.24-2.13-3.59-3.28a.28.28,0,0,1,0-.36.27.27,0,0,1,.36-.07,68.58,68.58,0,0,1,11.43,9.13c5,5,7.66,9.41,8.39,14,.69,4.41-1.57,9.93-6.21,15.13-6,6.72-18.71,16.17-45.39,23C270.2,263.36,242.34,266.25,209.42,266.25Zm-95.67-21.41c20.66,16,53,19.66,70.87,20.37,36.38,1.44,124.09,1.31,152.84-31,4.53-5.09,6.74-10.45,6.08-14.69-.71-4.51-3.33-8.88-8.24-13.75a68,68,0,0,0-8.18-6.9l.77.74c5,5,7.66,9.41,8.38,14,.69,4.41-1.57,9.93-6.21,15.14-6,6.72-18.71,16.17-45.38,23-27.66,7.12-64,9.85-107.86,8.11C158.62,259.23,133.32,256,113.75,244.84Z"/></svg>