<?xml version="1.0" encoding="UTF-8"?>
<svg width="84px" height="55px" viewBox="0 0 84 55" version="1.1" xmlns="http://www.w3.org/2000/svg" xmlns:xlink="http://www.w3.org/1999/xlink">
    <!-- Generator: Sketch 61.1 (89650) - https://sketch.com -->
    <title>Group 10</title>
    <desc>Created with Sketch.</desc>
    <g id="Page-1" stroke="none" stroke-width="1" fill="none" fill-rule="evenodd">
        <g id="Desktop-HD-Copy-8" transform="translate(-165.000000, -2739.000000)">
            <g id="Group-10" transform="translate(165.000000, 2739.000000)">
                <path d="M29.84,54.16 C30.1466667,54.16 30.4933333,54.02 30.88,53.74 C31.36,53.38 31.66,53.0866667 31.78,52.86 C32.14,52.18 32.32,51.4733333 32.32,50.74 C32.32,49.8466667 32,48.76 31.36,47.48 C30.88,46.52 30.5133333,45.78 30.26,45.26 C30.0066667,44.74 29.8666667,44.4466667 29.84,44.38 C29.72,44.0466667 29.66,43.6866667 29.66,43.3 C29.66,42.26 30.02,41.38 30.74,40.66 C30.82,40.58 30.9,40.54 30.98,40.54 C31.0333333,40.54 31.1333333,40.5666667 31.28,40.62 C31.3066667,40.6333333 31.36,40.64 31.44,40.64 C31.5066667,40.64 31.5666667,40.6266667 31.62,40.6 C32.0066667,40.4 32.2,40.1666667 32.2,39.9 C32.2,39.74 32.1333333,39.5933333 32,39.46 C31.72,39.1533333 31.3,39 30.74,39 C30.4733333,39 30.1733333,39.0733333 29.84,39.22 C29.1733333,39.54 28.66,40.0666667 28.3,40.8 C27.98,41.44 27.82,42.1666667 27.82,42.98 C27.82,43.9666667 28.2466667,45.2866667 29.1,46.94 C29.9666667,48.6066667 30.4,49.86 30.4,50.7 C30.4,51.3266667 30.26,51.9266667 29.98,52.5 C29.9133333,52.6466667 29.78,52.7266667 29.58,52.74 C29.38,52.7666667 29.2533333,52.8066667 29.2,52.86 C29,53.0866667 28.9,53.28 28.9,53.44 C28.9,53.7066667 29.1,53.9266667 29.5,54.1 C29.5933333,54.14 29.7066667,54.16 29.84,54.16 Z M35.72,52.56 C36.08,52.56 36.4166667,52.43 36.73,52.17 C37.0433333,51.91 37.32,51.6033333 37.56,51.25 C37.8,50.8966667 38.01,50.5333333 38.19,50.16 C38.37,49.7866667 38.5133333,49.4866667 38.62,49.26 L38.62,49.26 L38.7,49.1 C38.74,49.42 38.7866667,49.73 38.84,50.03 C38.8933333,50.33 38.9766667,50.6033333 39.09,50.85 C39.2033333,51.0966667 39.35,51.3066667 39.53,51.48 C39.71,51.6533333 39.9466667,51.7733333 40.24,51.84 C40.3333333,51.8133333 40.4266667,51.7933333 40.52,51.78 C40.6133333,51.7666667 40.7,51.7433333 40.78,51.71 C40.86,51.6766667 40.93,51.6233333 40.99,51.55 C41.05,51.4766667 41.0933333,51.3733333 41.12,51.24 C41.0666667,51.12 41.0066667,51.0166667 40.94,50.93 C40.8733333,50.8433333 40.8,50.7533333 40.72,50.66 C40.52,50.38 40.3766667,50.01 40.29,49.55 C40.2033333,49.09 40.16,48.54 40.16,47.9 C40.16,47.58 40.1833333,47.1966667 40.23,46.75 C40.2766667,46.3033333 40.3,45.6866667 40.3,44.9 C40.2333333,44.7933333 40.1266667,44.6866667 39.98,44.58 C39.8333333,44.4733333 39.7066667,44.42 39.6,44.42 C39.5866667,44.42 39.5733333,44.4166667 39.56,44.41 C39.5466667,44.4033333 39.5333333,44.4 39.52,44.4 C39.1866667,44.4 38.95,44.4466667 38.81,44.54 C38.67,44.6333333 38.58,44.75 38.54,44.89 C38.5,45.03 38.4833333,45.1866667 38.49,45.36 C38.4966667,45.5333333 38.4733333,45.7066667 38.42,45.88 C38.2866667,46.2933333 38.1133333,46.7666667 37.9,47.3 C37.6866667,47.8333333 37.4533333,48.34 37.2,48.82 C36.9466667,49.3 36.69,49.71 36.43,50.05 C36.17,50.39 35.9333333,50.5733333 35.72,50.6 C35.6933333,50.32 35.66,49.91 35.62,49.37 C35.58,48.83 35.56,48.24 35.56,47.6 C35.56,47.4133333 35.5766667,47.2133333 35.61,47 C35.6433333,46.7866667 35.66,46.4866667 35.66,46.1 C35.66,45.8733333 35.68,45.6766667 35.72,45.51 C35.76,45.3433333 35.78,45.1533333 35.78,44.94 C35.78,44.6866667 35.6733333,44.4933333 35.46,44.36 C35.2466667,44.2266667 35.0333333,44.1466667 34.82,44.12 C34.7533333,44.1333333 34.6966667,44.1466667 34.65,44.16 C34.6033333,44.1733333 34.56,44.1866667 34.52,44.2 C34.44,44.2266667 34.37,44.2566667 34.31,44.29 C34.25,44.3233333 34.2133333,44.3533333 34.2,44.38 C34.0933333,44.7 34.0266667,45.0266667 34,45.36 C33.9733333,45.6933333 33.96,46.04 33.96,46.4 L33.96,46.4 L33.96,47.66 C33.96,47.8466667 33.9466667,48.0333333 33.92,48.22 C33.92,49.02 33.9433333,49.6933333 33.99,50.24 C34.0366667,50.7866667 34.1233333,51.2333333 34.25,51.58 C34.3766667,51.9266667 34.5566667,52.1766667 34.79,52.33 C35.0233333,52.4833333 35.3333333,52.56 35.72,52.56 Z M45.18,52.14 C45.5133333,52.14 45.8866667,52.0666667 46.3,51.92 C46.7133333,51.7733333 47.0733333,51.56 47.38,51.28 C47.6066667,51.0666667 47.79,50.7966667 47.93,50.47 C48.07,50.1433333 48.18,49.8133333 48.26,49.48 C48.34,49.1466667 48.3933333,48.8333333 48.42,48.54 C48.4466667,48.2466667 48.46,48.02 48.46,47.86 C48.46,47.5666667 48.4333333,47.2333333 48.38,46.86 C48.3266667,46.4866667 48.23,46.14 48.09,45.82 C47.95,45.5 47.7566667,45.23 47.51,45.01 C47.2633333,44.79 46.94,44.68 46.54,44.68 C46.3266667,44.68 46.1233333,44.7133333 45.93,44.78 C45.7366667,44.8466667 45.5633333,44.9266667 45.41,45.02 C45.2566667,45.1133333 45.1333333,45.2 45.04,45.28 C44.9466667,45.36 44.8866667,45.4133333 44.86,45.44 C44.5133333,45.88 44.2633333,46.22 44.11,46.46 C43.9566667,46.7 43.82,46.94 43.7,47.18 C43.7,47.14 43.6966667,47.0533333 43.69,46.92 C43.6833333,46.7866667 43.68,46.6433333 43.68,46.49 L43.68,46.49 L43.68,45.86 L43.76,43.6 C43.7866667,42.7466667 43.86,41.94 43.98,41.18 C44.1,40.42 44.1933333,39.6133333 44.26,38.76 C44.2333333,38.6266667 44.1666667,38.5333333 44.06,38.48 C43.9533333,38.4266667 43.84,38.4 43.72,38.4 C43.56,38.4 43.3633333,38.4233333 43.13,38.47 C42.8966667,38.5166667 42.7466667,38.64 42.68,38.84 C42.6,39.1066667 42.5466667,39.36 42.52,39.6 C42.4933333,39.84 42.48,40.0866667 42.48,40.34 C42.32,41.6466667 42.22,42.8566667 42.18,43.97 C42.14,45.0833333 42.12,46.2 42.12,47.32 C42.12,47.5733333 42.13,47.8633333 42.15,48.19 C42.17,48.5166667 42.1966667,48.83 42.23,49.13 C42.2633333,49.43 42.3,49.69 42.34,49.91 C42.38,50.13 42.42,50.26 42.46,50.3 C42.5,50.4466667 42.5466667,50.6 42.6,50.76 C42.6533333,50.92 42.7166667,51.0733333 42.79,51.22 C42.8633333,51.3666667 42.9366667,51.4966667 43.01,51.61 C43.0833333,51.7233333 43.16,51.8 43.24,51.84 C43.5466667,51.9333333 43.8633333,52.0066667 44.19,52.06 C44.5166667,52.1133333 44.8466667,52.14 45.18,52.14 Z M45.1,50.84 C44.8866667,50.84 44.7133333,50.8266667 44.58,50.8 C44.4466667,50.7733333 44.3066667,50.68 44.16,50.52 C44.1733333,50.28 44.1966667,50.0633333 44.23,49.87 C44.2633333,49.6766667 44.3033333,49.4933333 44.35,49.32 C44.3966667,49.1466667 44.45,48.9766667 44.51,48.81 C44.57,48.6433333 44.6333333,48.46 44.7,48.26 L44.7,48.26 L44.74,48.14 C44.7933333,47.98 44.89,47.7933333 45.03,47.58 C45.17,47.3666667 45.32,47.1633333 45.48,46.97 C45.64,46.7766667 45.7966667,46.6133333 45.95,46.48 C46.1033333,46.3466667 46.22,46.28 46.3,46.28 C46.38,46.28 46.4466667,46.3333333 46.5,46.44 C46.5533333,46.5466667 46.5966667,46.6733333 46.63,46.82 C46.6633333,46.9666667 46.6833333,47.12 46.69,47.28 C46.6966667,47.44 46.7,47.58 46.7,47.7 C46.7,48.0066667 46.68,48.3366667 46.64,48.69 C46.6,49.0433333 46.52,49.3733333 46.4,49.68 C46.28,49.9866667 46.1166667,50.2466667 45.91,50.46 C45.7033333,50.6733333 45.4333333,50.8 45.1,50.84 Z M51.3,53.8 C51.62,53.8 51.92,53.7333333 52.2,53.6 C52.48,53.4666667 52.72,53.2866667 52.92,53.06 C53.12,52.8333333 53.2766667,52.5733333 53.39,52.28 C53.5033333,51.9866667 53.56,51.6733333 53.56,51.34 C53.56,50.7 53.4466667,50.1233333 53.22,49.61 C52.9933333,49.0966667 52.7466667,48.5866667 52.48,48.08 L52.48,48.08 L52.4,47.92 C52.3466667,47.84 52.2766667,47.7166667 52.19,47.55 C52.1033333,47.3833333 52.0166667,47.2033333 51.93,47.01 C51.8433333,46.8166667 51.7666667,46.6333333 51.7,46.46 C51.6333333,46.2866667 51.6,46.1533333 51.6,46.06 L51.6,46.06 L51.6,45.58 C51.6,45.3133333 51.6366667,45.05 51.71,44.79 C51.7833333,44.53 51.9,44.2933333 52.06,44.08 C52.1266667,44.0133333 52.1966667,43.95 52.27,43.89 C52.3433333,43.83 52.38,43.7466667 52.38,43.64 C52.34,43.5333333 52.2733333,43.41 52.18,43.27 C52.0866667,43.13 51.9733333,43.06 51.84,43.06 C51.8,43.06 51.7633333,43.0566667 51.73,43.05 C51.6966667,43.0433333 51.66,43.04 51.62,43.04 C51.2733333,43.04 50.99,43.1333333 50.77,43.32 C50.55,43.5066667 50.3733333,43.7466667 50.24,44.04 C50.1066667,44.3333333 50.0133333,44.65 49.96,44.99 C49.9066667,45.33 49.88,45.66 49.88,45.98 C49.88,46.3666667 49.96,46.75 50.12,47.13 C50.28,47.51 50.47,47.9133333 50.69,48.34 C50.91,48.7666667 51.1333333,49.2233333 51.36,49.71 C51.5866667,50.1966667 51.7733333,50.74 51.92,51.34 C51.9333333,51.3666667 51.94,51.4333333 51.94,51.54 C51.94,51.8466667 51.8533333,52.1 51.68,52.3 C51.5066667,52.5 51.3066667,52.6 51.08,52.6 C50.92,52.6 50.76,52.52 50.6,52.36 C50.44,52.4 50.3366667,52.4433333 50.29,52.49 C50.2433333,52.5366667 50.1933333,52.6133333 50.14,52.72 C50.1666667,53 50.2966667,53.25 50.53,53.47 C50.7633333,53.69 51.02,53.8 51.3,53.8 Z M57.96,52.16 C58.1066667,52.1466667 58.2566667,52.13 58.41,52.11 C58.5633333,52.09 58.7,52.06 58.82,52.02 C58.94,51.98 59.0366667,51.92 59.11,51.84 C59.1833333,51.76 59.22,51.6533333 59.22,51.52 C59.22,51.36 59.17,51.2266667 59.07,51.12 C58.97,51.0133333 58.84,50.96 58.68,50.96 L58.68,50.96 L58.42,50.96 C58.1666667,50.96 57.9266667,50.8466667 57.7,50.62 C57.5533333,50.54 57.3966667,50.41 57.23,50.23 C57.0633333,50.05 56.9133333,49.8366667 56.78,49.59 C56.6466667,49.3433333 56.5366667,49.08 56.45,48.8 C56.3633333,48.52 56.32,48.24 56.32,47.96 C56.32,47.8133333 56.3333333,47.6466667 56.36,47.46 C56.3866667,47.2733333 56.4533333,47.1066667 56.56,46.96 C56.6,46.8666667 56.6666667,46.7733333 56.76,46.68 C56.84,46.6 56.9466667,46.5066667 57.08,46.4 C57.2133333,46.2933333 57.3933333,46.1866667 57.62,46.08 C57.7533333,46.0133333 57.89,45.9733333 58.03,45.96 C58.17,45.9466667 58.3133333,45.9066667 58.46,45.84 C58.5933333,45.8 58.6933333,45.72 58.76,45.6 C58.8266667,45.48 58.8666667,45.3866667 58.88,45.32 C58.8,45.0133333 58.7,44.8166667 58.58,44.73 C58.46,44.6433333 58.2466667,44.5866667 57.94,44.56 C57.7266667,44.56 57.5266667,44.5933333 57.34,44.66 C57.1533333,44.7266667 56.9666667,44.7866667 56.78,44.84 L56.78,44.84 L56.02,45.18 C55.78,45.34 55.5733333,45.5366667 55.4,45.77 C55.2266667,46.0033333 55.08,46.26 54.96,46.54 C54.84,46.82 54.75,47.1066667 54.69,47.4 C54.63,47.6933333 54.6,47.9733333 54.6,48.24 C54.6,48.32 54.6066667,48.4233333 54.62,48.55 C54.6333333,48.6766667 54.6566667,48.81 54.69,48.95 C54.7233333,49.09 54.7633333,49.2266667 54.81,49.36 C54.8566667,49.4933333 54.9133333,49.6 54.98,49.68 C55.1533333,50.0933333 55.3966667,50.46 55.71,50.78 C56.0233333,51.1 56.3466667,51.4 56.68,51.68 C56.8933333,51.8266667 57.1033333,51.9266667 57.31,51.98 C57.5166667,52.0333333 57.7333333,52.0933333 57.96,52.16 Z M61.5,52.6 C61.7133333,52.6 61.8866667,52.5566667 62.02,52.47 C62.1533333,52.3833333 62.26,52.27 62.34,52.13 C62.42,51.99 62.4733333,51.8366667 62.5,51.67 C62.5266667,51.5033333 62.54,51.34 62.54,51.18 C62.54,51.0733333 62.5366667,50.9233333 62.53,50.73 C62.5233333,50.5366667 62.52,50.3866667 62.52,50.28 C62.52,50.1066667 62.5733333,49.8766667 62.68,49.59 C62.7866667,49.3033333 62.92,49 63.08,48.68 C63.24,48.36 63.42,48.0466667 63.62,47.74 C63.82,47.4333333 64.02,47.1733333 64.22,46.96 C64.34,46.7866667 64.4833333,46.61 64.65,46.43 C64.8166667,46.25 64.9766667,46.0766667 65.13,45.91 C65.2833333,45.7433333 65.42,45.5833333 65.54,45.43 C65.66,45.2766667 65.7333333,45.14 65.76,45.02 C65.6533333,44.7533333 65.5033333,44.56 65.31,44.44 C65.1166667,44.32 64.86,44.26 64.54,44.26 C64.38,44.26 64.2466667,44.2866667 64.14,44.34 C63.9533333,44.4866667 63.7733333,44.6733333 63.6,44.9 C63.4266667,45.1266667 63.26,45.36 63.1,45.6 C62.94,45.84 62.7866667,46.0633333 62.64,46.27 C62.4933333,46.4766667 62.3533333,46.6333333 62.22,46.74 L62.22,46.74 L62.16,45.68 C62.1466667,45.5333333 62.13,45.38 62.11,45.22 C62.09,45.06 62.0466667,44.9166667 61.98,44.79 C61.9133333,44.6633333 61.8133333,44.5566667 61.68,44.47 C61.5466667,44.3833333 61.3666667,44.34 61.14,44.34 C60.9,44.34 60.7333333,44.3866667 60.64,44.48 C60.5466667,44.5733333 60.4733333,44.7066667 60.42,44.88 C60.42,45.0133333 60.4466667,45.1366667 60.5,45.25 C60.5533333,45.3633333 60.58,45.48 60.58,45.6 L60.58,45.6 L60.58,45.68 C60.5933333,45.9733333 60.61,46.2666667 60.63,46.56 C60.65,46.8533333 60.66,47.1466667 60.66,47.44 L60.66,47.44 L60.6604,48.1252 C60.6614667,48.1710667 60.6646667,48.266 60.67,48.41 C60.6766667,48.59 60.6833333,48.8033333 60.69,49.05 C60.6966667,49.2966667 60.7033333,49.5666667 60.71,49.86 C60.7166667,50.1533333 60.72,50.4266667 60.72,50.68 C60.72,50.9466667 60.7166667,51.17 60.71,51.35 C60.7033333,51.53 60.6866667,51.6533333 60.66,51.72 L60.66,51.72 L60.66,51.8 C60.66,52.0266667 60.7366667,52.2166667 60.89,52.37 C61.0433333,52.5233333 61.2466667,52.6 61.5,52.6 Z M68.02,41.7 C68.2466667,41.7 68.4233333,41.6566667 68.55,41.57 C68.6766667,41.4833333 68.74,41.3133333 68.74,41.06 C68.74,40.94 68.7033333,40.8266667 68.63,40.72 C68.5566667,40.6133333 68.46,40.5166667 68.34,40.43 C68.22,40.3433333 68.09,40.2766667 67.95,40.23 C67.81,40.1833333 67.6733333,40.16 67.54,40.16 C67.3666667,40.16 67.2466667,40.1933333 67.18,40.26 C66.9666667,40.38 66.8433333,40.5 66.81,40.62 C66.7766667,40.74 66.76,40.88 66.76,41.04 C66.76,41.1066667 66.7966667,41.1766667 66.87,41.25 C66.9433333,41.3233333 67.04,41.3933333 67.16,41.46 C67.28,41.5266667 67.4166667,41.5833333 67.57,41.63 C67.7233333,41.6766667 67.8733333,41.7 68.02,41.7 Z M68.56,52.22 C68.7066667,52.0733333 68.8066667,51.9466667 68.86,51.84 C68.9133333,51.7333333 68.94,51.6266667 68.94,51.52 L68.94,51.52 L68.94,51.44 C68.9133333,51.2133333 68.87,50.8866667 68.81,50.46 C68.75,50.0333333 68.6866667,49.56 68.62,49.04 C68.5533333,48.52 68.4933333,47.9733333 68.44,47.4 C68.3866667,46.8266667 68.36,46.2866667 68.36,45.78 C68.36,45.6333333 68.3633333,45.4933333 68.37,45.36 C68.3766667,45.2266667 68.3866667,45.0933333 68.4,44.96 C68.32,44.8666667 68.2333333,44.77 68.14,44.67 C68.0466667,44.57 67.9066667,44.4933333 67.72,44.44 C67.5733333,44.4666667 67.44,44.49 67.32,44.51 C67.2,44.53 67.0733333,44.56 66.94,44.6 C66.7133333,44.7466667 66.6,44.96 66.6,45.24 C66.6,45.92 66.64,46.5666667 66.72,47.18 C66.8,47.7933333 66.84,48.44 66.84,49.12 C66.84,49.3466667 66.8633333,49.5733333 66.91,49.8 C66.9566667,50.0266667 66.98,50.2533333 66.98,50.48 C66.98,50.8666667 67.02,51.1733333 67.1,51.4 C67.18,51.6266667 67.29,51.8 67.43,51.92 C67.57,52.04 67.7366667,52.12 67.93,52.16 C68.1233333,52.2 68.3333333,52.22 68.56,52.22 Z M73.62,52.14 C73.9533333,52.14 74.3266667,52.0666667 74.74,51.92 C75.1533333,51.7733333 75.5133333,51.56 75.82,51.28 C76.0466667,51.0666667 76.23,50.7966667 76.37,50.47 C76.51,50.1433333 76.62,49.8133333 76.7,49.48 C76.78,49.1466667 76.8333333,48.8333333 76.86,48.54 C76.8866667,48.2466667 76.9,48.02 76.9,47.86 C76.9,47.5666667 76.8733333,47.2333333 76.82,46.86 C76.7666667,46.4866667 76.67,46.14 76.53,45.82 C76.39,45.5 76.1966667,45.23 75.95,45.01 C75.7033333,44.79 75.38,44.68 74.98,44.68 C74.7666667,44.68 74.5633333,44.7133333 74.37,44.78 C74.1766667,44.8466667 74.0033333,44.9266667 73.85,45.02 C73.6966667,45.1133333 73.5733333,45.2 73.48,45.28 C73.3866667,45.36 73.3266667,45.4133333 73.3,45.44 C72.9533333,45.88 72.7033333,46.22 72.55,46.46 C72.3966667,46.7 72.26,46.94 72.14,47.18 C72.14,47.14 72.1366667,47.0533333 72.13,46.92 C72.1233333,46.7866667 72.12,46.6433333 72.12,46.49 L72.12,46.49 L72.12,45.86 L72.2,43.6 C72.2266667,42.7466667 72.3,41.94 72.42,41.18 C72.54,40.42 72.6333333,39.6133333 72.7,38.76 C72.6733333,38.6266667 72.6066667,38.5333333 72.5,38.48 C72.3933333,38.4266667 72.28,38.4 72.16,38.4 C72,38.4 71.8033333,38.4233333 71.57,38.47 C71.3366667,38.5166667 71.1866667,38.64 71.12,38.84 C71.04,39.1066667 70.9866667,39.36 70.96,39.6 C70.9333333,39.84 70.92,40.0866667 70.92,40.34 C70.76,41.6466667 70.66,42.8566667 70.62,43.97 C70.58,45.0833333 70.56,46.2 70.56,47.32 C70.56,47.5733333 70.57,47.8633333 70.59,48.19 C70.61,48.5166667 70.6366667,48.83 70.67,49.13 C70.7033333,49.43 70.74,49.69 70.78,49.91 C70.82,50.13 70.86,50.26 70.9,50.3 C70.94,50.4466667 70.9866667,50.6 71.04,50.76 C71.0933333,50.92 71.1566667,51.0733333 71.23,51.22 C71.3033333,51.3666667 71.3766667,51.4966667 71.45,51.61 C71.5233333,51.7233333 71.6,51.8 71.68,51.84 C71.9866667,51.9333333 72.3033333,52.0066667 72.63,52.06 C72.9566667,52.1133333 73.2866667,52.14 73.62,52.14 Z M73.54,50.84 C73.3266667,50.84 73.1533333,50.8266667 73.02,50.8 C72.8866667,50.7733333 72.7466667,50.68 72.6,50.52 C72.6133333,50.28 72.6366667,50.0633333 72.67,49.87 C72.7033333,49.6766667 72.7433333,49.4933333 72.79,49.32 C72.8366667,49.1466667 72.89,48.9766667 72.95,48.81 C73.01,48.6433333 73.0733333,48.46 73.14,48.26 L73.14,48.26 L73.18,48.14 C73.2333333,47.98 73.33,47.7933333 73.47,47.58 C73.61,47.3666667 73.76,47.1633333 73.92,46.97 C74.08,46.7766667 74.2366667,46.6133333 74.39,46.48 C74.5433333,46.3466667 74.66,46.28 74.74,46.28 C74.82,46.28 74.8866667,46.3333333 74.94,46.44 C74.9933333,46.5466667 75.0366667,46.6733333 75.07,46.82 C75.1033333,46.9666667 75.1233333,47.12 75.13,47.28 C75.1366667,47.44 75.14,47.58 75.14,47.7 C75.14,48.0066667 75.12,48.3366667 75.08,48.69 C75.04,49.0433333 74.96,49.3733333 74.84,49.68 C74.72,49.9866667 74.5566667,50.2466667 74.35,50.46 C74.1433333,50.6733333 73.8733333,50.8 73.54,50.84 Z M81.28,52.34 C81.76,52.34 82.15,52.2966667 82.45,52.21 C82.75,52.1233333 83.0733333,51.9333333 83.42,51.64 C83.5266667,51.5466667 83.6233333,51.4366667 83.71,51.31 C83.7966667,51.1833333 83.8466667,51.0266667 83.86,50.84 C83.86,50.7466667 83.8533333,50.6766667 83.84,50.63 C83.8266667,50.5833333 83.8133333,50.52 83.8,50.44 C83.7333333,50.3466667 83.66,50.2833333 83.58,50.25 C83.5,50.2166667 83.4266667,50.1866667 83.36,50.16 C83.0266667,50.3866667 82.7233333,50.5933333 82.45,50.78 C82.1766667,50.9666667 81.8333333,51.06 81.42,51.06 C81.3666667,51.06 81.26,51.04 81.1,51 C80.94,50.96 80.7733333,50.87 80.6,50.73 C80.4266667,50.59 80.2666667,50.38 80.12,50.1 C79.9733333,49.82 79.8933333,49.4333333 79.88,48.94 L79.88,48.94 L79.88,48.83 C79.88,48.7833333 79.8866667,48.7266667 79.9,48.66 C80.0733333,48.7133333 80.2266667,48.7533333 80.36,48.78 C80.4933333,48.8066667 80.6466667,48.8133333 80.82,48.8 C81.22,48.7866667 81.5766667,48.71 81.89,48.57 C82.2033333,48.43 82.4666667,48.2466667 82.68,48.02 C82.8933333,47.7933333 83.0566667,47.5366667 83.17,47.25 C83.2833333,46.9633333 83.34,46.6666667 83.34,46.36 C83.34,46.12 83.2966667,45.89 83.21,45.67 C83.1233333,45.45 82.9933333,45.2533333 82.82,45.08 C82.6466667,44.9066667 82.43,44.7666667 82.17,44.66 C81.91,44.5533333 81.6066667,44.5 81.26,44.5 C80.7666667,44.5 80.3333333,44.6233333 79.96,44.87 C79.5866667,45.1166667 79.2733333,45.44 79.02,45.84 C78.7666667,46.24 78.5766667,46.69 78.45,47.19 C78.3233333,47.69 78.26,48.1866667 78.26,48.68 C78.2733333,49 78.2966667,49.3033333 78.33,49.59 C78.3633333,49.8766667 78.43,50.1533333 78.53,50.42 C78.63,50.6866667 78.77,50.94 78.95,51.18 C79.13,51.42 79.38,51.66 79.7,51.9 C79.9133333,52.0066667 80.1766667,52.1066667 80.49,52.2 C80.8033333,52.2933333 81.0666667,52.34 81.28,52.34 Z M80.52,47.64 C80.4533333,47.64 80.3633333,47.6366667 80.25,47.63 C80.1366667,47.6233333 80.0533333,47.6133333 80,47.6 C80.0266667,47.3066667 80.0666667,47.07 80.12,46.89 C80.1733333,46.71 80.23,46.56 80.29,46.44 C80.35,46.32 80.4133333,46.2266667 80.48,46.16 C80.5466667,46.0933333 80.6066667,46.0266667 80.66,45.96 C80.7266667,45.8533333 80.8233333,45.7866667 80.95,45.76 C81.0766667,45.7333333 81.2066667,45.72 81.34,45.72 C81.5266667,45.72 81.6733333,45.8 81.78,45.96 C81.8866667,46.12 81.94,46.2933333 81.94,46.48 C81.94,46.8 81.8166667,47.0733333 81.57,47.3 C81.3233333,47.5266667 80.9733333,47.64 80.52,47.64 Z" id="Subscribe" fill="#00001E" fill-rule="nonzero"></path>
                <path d="M2,44 C13,35.0248756 18.5,21.358209 18.5,3" id="Path-3" stroke="#DDE3EC" stroke-dasharray="2" transform="translate(10.250000, 23.500000) scale(-1, 1) translate(-10.250000, -23.500000) "></path>
                <path d="M0.47365969,0 L4.48147219,0 C4.84084719,0 5.05178469,0.453125 4.90334719,0.78125 L2.91115969,5.109375 C2.76272219,5.4296875 2.18459719,5.4296875 2.04397219,5.109375 L0.0439721896,0.78125 C-0.0966528104,0.453125 0.11428469,0 0.47365969,0 Z" id="▾" fill="#DDE3EC" fill-rule="nonzero" transform="translate(2.475691, 2.674805) scale(1, -1) translate(-2.475691, -2.674805) "></path>
            </g>
        </g>
    </g>
</svg>